<?xml version="1.0" encoding="UTF-8" standalone="no"?>
<svg
   xmlns:dc="http://purl.org/dc/elements/1.1/"
   xmlns:cc="http://creativecommons.org/ns#"
   xmlns:rdf="http://www.w3.org/1999/02/22-rdf-syntax-ns#"
   xmlns:svg="http://www.w3.org/2000/svg"
   xmlns="http://www.w3.org/2000/svg"
   xmlns:sodipodi="http://sodipodi.sourceforge.net/DTD/sodipodi-0.dtd"
   xmlns:inkscape="http://www.inkscape.org/namespaces/inkscape"
   width="8.5in"
   height="11in"
   viewBox="0 0 215.9 279.4"
   version="1.1"
   id="svg1633"
   inkscape:version="1.0.2 (e86c870879, 2021-01-15)"
   sodipodi:docname="bendybendy-16inrad.svg">
  <defs
     id="defs1627" />
  <sodipodi:namedview
     id="base"
     pagecolor="#ffffff"
     bordercolor="#666666"
     borderopacity="1.0"
     inkscape:pageopacity="0.0"
     inkscape:pageshadow="2"
     inkscape:zoom="0.5"
     inkscape:cx="133.85181"
     inkscape:cy="471.94194"
     inkscape:document-units="mm"
     inkscape:current-layer="layer1"
     inkscape:document-rotation="0"
     showgrid="false"
     inkscape:snap-center="true"
     units="in"
     inkscape:window-width="1920"
     inkscape:window-height="1016"
     inkscape:window-x="0"
     inkscape:window-y="0"
     inkscape:window-maximized="1" />
  <metadata
     id="metadata1630">
    <rdf:RDF>
      <cc:Work
         rdf:about="">
        <dc:format>image/svg+xml</dc:format>
        <dc:type
           rdf:resource="http://purl.org/dc/dcmitype/StillImage" />
        <dc:title></dc:title>
      </cc:Work>
    </rdf:RDF>
  </metadata>
  <g
     inkscape:label="Layer 1"
     inkscape:groupmode="layer"
     id="layer1">
    <g
       id="g2673"
       transform="translate(317.62816,37.500553)">
      <path
         id="path2632"
         style="fill:none;fill-opacity:1;stroke:#000000;stroke-width:0.919253;stroke-linecap:square;stroke-linejoin:round;stroke-miterlimit:4;stroke-dasharray:none;stroke-dashoffset:0;stroke-opacity:1"
         d="m -1018.3559,887.14222 a 1515.9563,1515.9563 0 0 1 -86.0382,-503.44602 1515.9563,1515.9563 0 0 1 86.0391,-503.44856"
         transform="scale(0.26458333)" />
      <path
         id="path2628"
         style="fill:none;fill-opacity:1;stroke:#000000;stroke-width:0.919253;stroke-linecap:square;stroke-linejoin:round;stroke-miterlimit:4;stroke-dasharray:none;stroke-dashoffset:0;stroke-opacity:1"
         d="m -1002.2743,887.14179 a 1500.7968,1500.7968 0 0 1 -86.9603,-503.44559 1500.7968,1500.7968 0 0 1 86.9612,-503.44816"
         transform="scale(0.26458333)" />
      <path
         id="path2624"
         style="fill:none;fill-opacity:1;stroke:#000000;stroke-width:0.919253;stroke-linecap:square;stroke-linejoin:round;stroke-miterlimit:4;stroke-dasharray:none;stroke-dashoffset:0;stroke-opacity:1"
         d="m -986.33252,887.1432 a 1485.7888,1485.7888 0 0 1 -87.89418,-503.447 1485.7888,1485.7888 0 0 1 87.89446,-503.44778"
         transform="scale(0.26458333)" />
      <path
         id="path2620"
         style="fill:none;fill-opacity:1;stroke:#000000;stroke-width:0.919253;stroke-linecap:square;stroke-linejoin:round;stroke-miterlimit:4;stroke-dasharray:none;stroke-dashoffset:0;stroke-opacity:1"
         d="m -970.53055,887.14186 a 1470.9309,1470.9309 0 0 1 -88.83825,-503.44566 1470.9309,1470.9309 0 0 1 88.8393,-503.4485"
         transform="scale(0.26458333)" />
      <path
         id="path2616"
         style="fill:none;fill-opacity:1;stroke:#000000;stroke-width:0.919253;stroke-linecap:square;stroke-linejoin:round;stroke-miterlimit:4;stroke-dasharray:none;stroke-dashoffset:0;stroke-opacity:1"
         d="m -954.8647,887.14335 a 1456.2216,1456.2216 0 0 1 -89.7948,-503.44715 1456.2216,1456.2216 0 0 1 89.79554,-503.44913"
         transform="scale(0.26458333)" />
      <path
         id="path2612"
         style="fill:none;fill-opacity:1;stroke:#000000;stroke-width:0.919253;stroke-linecap:square;stroke-linejoin:round;stroke-miterlimit:4;stroke-dasharray:none;stroke-dashoffset:0;stroke-opacity:1"
         d="m -939.33485,887.1435 a 1441.6594,1441.6594 0 0 1 -90.76245,-503.4473 1441.6594,1441.6594 0 0 1 90.76302,-503.4488"
         transform="scale(0.26458333)" />
      <path
         id="path2608"
         style="fill:none;fill-opacity:1;stroke:#000000;stroke-width:0.919253;stroke-linecap:square;stroke-linejoin:round;stroke-miterlimit:4;stroke-dasharray:none;stroke-dashoffset:0;stroke-opacity:1"
         d="m -923.93933,887.14227 a 1427.2428,1427.2428 0 0 1 -91.74137,-503.44607 1427.2428,1427.2428 0 0 1 91.74219,-503.44818"
         transform="scale(0.26458333)" />
      <path
         id="path2604"
         style="fill:none;fill-opacity:1;stroke:#000000;stroke-width:0.919253;stroke-linecap:square;stroke-linejoin:round;stroke-miterlimit:4;stroke-dasharray:none;stroke-dashoffset:0;stroke-opacity:1"
         d="m -908.67492,887.14371 a 1412.9704,1412.9704 0 0 1 -92.73328,-503.44751 1412.9704,1412.9704 0 0 1 92.73322,-503.44735"
         transform="scale(0.26458333)" />
      <path
         id="path2600"
         style="fill:none;fill-opacity:1;stroke:#000000;stroke-width:0.919253;stroke-linecap:square;stroke-linejoin:round;stroke-miterlimit:4;stroke-dasharray:none;stroke-dashoffset:0;stroke-opacity:1"
         d="M -893.54212,887.14241 A 1398.8406,1398.8406 0 0 1 -987.27851,383.6962 1398.8406,1398.8406 0 0 1 -893.5412,-119.75235"
         transform="scale(0.26458333)" />
      <path
         id="path2596"
         style="fill:none;fill-opacity:1;stroke:#000000;stroke-width:0.919253;stroke-linecap:square;stroke-linejoin:round;stroke-miterlimit:4;stroke-dasharray:none;stroke-dashoffset:0;stroke-opacity:1"
         d="m -878.53763,887.14257 a 1384.8522,1384.8522 0 0 1 -94.75244,-503.44637 1384.8522,1384.8522 0 0 1 94.75308,-503.44798"
         transform="scale(0.26458333)" />
      <path
         id="path2592"
         style="fill:none;fill-opacity:1;stroke:#000000;stroke-width:0.919253;stroke-linecap:square;stroke-linejoin:round;stroke-miterlimit:4;stroke-dasharray:none;stroke-dashoffset:0;stroke-opacity:1"
         d="M -863.66011,887.14353 A 1371.0037,1371.0037 0 0 1 -959.4415,383.6962 1371.0037,1371.0037 0 0 1 -863.65946,-119.75276"
         transform="scale(0.26458333)" />
      <path
         id="path2588"
         style="fill:none;fill-opacity:1;stroke:#000000;stroke-width:0.919253;stroke-linecap:square;stroke-linejoin:round;stroke-miterlimit:4;stroke-dasharray:none;stroke-dashoffset:0;stroke-opacity:1"
         d="m -848.90863,887.14375 a 1357.2937,1357.2937 0 0 1 -96.82286,-503.44755 1357.2937,1357.2937 0 0 1 96.82293,-503.44772"
         transform="scale(0.26458333)" />
      <path
         id="path2584"
         style="fill:none;fill-opacity:1;stroke:#000000;stroke-width:0.919253;stroke-linecap:square;stroke-linejoin:round;stroke-miterlimit:4;stroke-dasharray:none;stroke-dashoffset:0;stroke-opacity:1"
         d="m -834.28151,887.14318 a 1343.7207,1343.7207 0 0 1 -97.87702,-503.44698 1343.7207,1343.7207 0 0 1 97.87794,-503.44921"
         transform="scale(0.26458333)" />
      <path
         id="path2580"
         style="fill:none;fill-opacity:1;stroke:#000000;stroke-width:0.919253;stroke-linecap:square;stroke-linejoin:round;stroke-miterlimit:4;stroke-dasharray:none;stroke-dashoffset:0;stroke-opacity:1"
         d="m -819.77653,887.14339 a 1330.2835,1330.2835 0 0 1 -98.94476,-503.44719 1330.2835,1330.2835 0 0 1 98.94541,-503.44874"
         transform="scale(0.26458333)" />
      <path
         id="path2576"
         style="fill:none;fill-opacity:1;stroke:#000000;stroke-width:0.919253;stroke-linecap:square;stroke-linejoin:round;stroke-miterlimit:4;stroke-dasharray:none;stroke-dashoffset:0;stroke-opacity:1"
         d="M -805.39282,887.14271 A 1316.9806,1316.9806 0 0 1 -905.41841,383.6962 1316.9806,1316.9806 0 0 1 -805.39214,-119.75196"
         transform="scale(0.26458333)" />
      <path
         id="path2572"
         style="fill:none;fill-opacity:1;stroke:#000000;stroke-width:0.919253;stroke-linecap:square;stroke-linejoin:round;stroke-miterlimit:4;stroke-dasharray:none;stroke-dashoffset:0;stroke-opacity:1"
         d="M -791.12794,887.14359 A 1303.8108,1303.8108 0 0 1 -892.24868,383.6962 1303.8108,1303.8108 0 0 1 -791.12715,-119.75303"
         transform="scale(0.26458333)" />
      <path
         id="path2568"
         style="fill:none;fill-opacity:1;stroke:#000000;stroke-width:0.919253;stroke-linecap:square;stroke-linejoin:round;stroke-miterlimit:4;stroke-dasharray:none;stroke-dashoffset:0;stroke-opacity:1"
         d="M -776.98117,887.14319 A 1290.7727,1290.7727 0 0 1 -879.21052,383.6962 1290.7727,1290.7727 0 0 1 -776.98066,-119.75195"
         transform="scale(0.26458333)" />
      <path
         id="path2564"
         style="fill:none;fill-opacity:1;stroke:#000000;stroke-width:0.919253;stroke-linecap:square;stroke-linejoin:round;stroke-miterlimit:4;stroke-dasharray:none;stroke-dashoffset:0;stroke-opacity:1"
         d="M -762.95035,887.14361 A 1277.865,1277.865 0 0 1 -866.30283,383.6962 1277.865,1277.865 0 0 1 -762.94996,-119.75208"
         transform="scale(0.26458333)" />
      <path
         id="path2560"
         style="fill:none;fill-opacity:1;stroke:#000000;stroke-width:0.919253;stroke-linecap:square;stroke-linejoin:round;stroke-miterlimit:4;stroke-dasharray:none;stroke-dashoffset:0;stroke-opacity:1"
         d="M -749.03494,887.14225 A 1265.0863,1265.0863 0 0 1 -853.52421,383.6962 1265.0863,1265.0863 0 0 1 -749.03382,-119.75238"
         transform="scale(0.26458333)" />
      <path
         id="path2556"
         style="fill:none;fill-opacity:1;stroke:#000000;stroke-width:0.919253;stroke-linecap:square;stroke-linejoin:round;stroke-miterlimit:4;stroke-dasharray:none;stroke-dashoffset:0;stroke-opacity:1"
         d="M -735.23212,887.14196 A 1252.4355,1252.4355 0 0 1 -840.87337,383.6962 1252.4355,1252.4355 0 0 1 -735.23098,-119.75212"
         transform="scale(0.26458333)" />
      <path
         id="path2552"
         style="fill:none;fill-opacity:1;stroke:#000000;stroke-width:0.919253;stroke-linecap:square;stroke-linejoin:round;stroke-miterlimit:4;stroke-dasharray:none;stroke-dashoffset:0;stroke-opacity:1"
         d="M -721.54065,887.14225 A 1239.9112,1239.9112 0 0 1 -828.34908,383.6962 1239.9112,1239.9112 0 0 1 -721.5393,-119.75286"
         transform="scale(0.26458333)" />
      <path
         id="path2548"
         style="fill:none;fill-opacity:1;stroke:#000000;stroke-width:0.919253;stroke-linecap:square;stroke-linejoin:round;stroke-miterlimit:4;stroke-dasharray:none;stroke-dashoffset:0;stroke-opacity:1"
         d="M -707.95901,887.14259 A 1227.5121,1227.5121 0 0 1 -815.94992,383.6962 1227.5121,1227.5121 0 0 1 -707.9581,-119.75216"
         transform="scale(0.26458333)" />
      <path
         id="path2544"
         style="fill:none;fill-opacity:1;stroke:#000000;stroke-width:0.919253;stroke-linecap:square;stroke-linejoin:round;stroke-miterlimit:4;stroke-dasharray:none;stroke-dashoffset:0;stroke-opacity:1"
         d="M -694.48592,887.1428 A 1215.2369,1215.2369 0 0 1 -803.67477,383.6962 1215.2369,1215.2369 0 0 1 -694.48544,-119.75142"
         transform="scale(0.26458333)" />
      <path
         id="path2540"
         style="fill:none;fill-opacity:1;stroke:#000000;stroke-width:0.919253;stroke-linecap:square;stroke-linejoin:round;stroke-miterlimit:4;stroke-dasharray:none;stroke-dashoffset:0;stroke-opacity:1"
         d="M -681.11971,887.14324 A 1203.0846,1203.0846 0 0 1 -791.52246,383.6962 1203.0846,1203.0846 0 0 1 -681.1194,-119.7515"
         transform="scale(0.26458333)" />
      <path
         id="path2536"
         style="fill:none;fill-opacity:1;stroke:#000000;stroke-width:0.919253;stroke-linecap:square;stroke-linejoin:round;stroke-miterlimit:4;stroke-dasharray:none;stroke-dashoffset:0;stroke-opacity:1"
         d="M -667.8589,887.1435 A 1191.0537,1191.0537 0 0 1 -779.49158,383.6962 1191.0537,1191.0537 0 0 1 -667.85802,-119.75295"
         transform="scale(0.26458333)" />
      <path
         id="path2532"
         style="fill:none;fill-opacity:1;stroke:#000000;stroke-width:0.919253;stroke-linecap:square;stroke-linejoin:round;stroke-miterlimit:4;stroke-dasharray:none;stroke-dashoffset:0;stroke-opacity:1"
         d="M -654.70265,887.14227 A 1179.1432,1179.1432 0 0 1 -767.581,383.6962 1179.1432,1179.1432 0 0 1 -654.70169,-119.75191"
         transform="scale(0.26458333)" />
      <path
         id="path2528"
         style="fill:none;fill-opacity:1;stroke:#000000;stroke-width:0.919253;stroke-linecap:square;stroke-linejoin:round;stroke-miterlimit:4;stroke-dasharray:none;stroke-dashoffset:0;stroke-opacity:1"
         d="M -641.6481,887.14258 A 1167.3518,1167.3518 0 0 1 -755.78959,383.6962 1167.3518,1167.3518 0 0 1 -641.6472,-119.75204"
         transform="scale(0.26458333)" />
      <path
         id="path2524"
         style="fill:none;fill-opacity:1;stroke:#000000;stroke-width:0.919253;stroke-linecap:square;stroke-linejoin:round;stroke-miterlimit:4;stroke-dasharray:none;stroke-dashoffset:0;stroke-opacity:1"
         d="M -628.69402,887.1436 A 1155.6782,1155.6782 0 0 1 -744.11607,383.6962 1155.6782,1155.6782 0 0 1 -628.69386,-119.75148"
         transform="scale(0.26458333)" />
      <path
         id="path2520"
         style="fill:none;fill-opacity:1;stroke:#000000;stroke-width:0.919253;stroke-linecap:square;stroke-linejoin:round;stroke-miterlimit:4;stroke-dasharray:none;stroke-dashoffset:0;stroke-opacity:1"
         d="M -615.83999,887.143 A 1144.1214,1144.1214 0 0 1 -732.55926,383.6962 1144.1214,1144.1214 0 0 1 -615.83931,-119.75193"
         transform="scale(0.26458333)" />
      <path
         id="path2516"
         style="fill:none;fill-opacity:1;stroke:#000000;stroke-width:0.919253;stroke-linecap:square;stroke-linejoin:round;stroke-miterlimit:4;stroke-dasharray:none;stroke-dashoffset:0;stroke-opacity:1"
         d="M -603.08317,887.14359 A 1132.6802,1132.6802 0 0 1 -721.11802,383.6962 1132.6802,1132.6802 0 0 1 -603.08264,-119.75222"
         transform="scale(0.26458333)" />
      <path
         id="path2512"
         style="fill:none;fill-opacity:1;stroke:#000000;stroke-width:0.919253;stroke-linecap:square;stroke-linejoin:round;stroke-miterlimit:4;stroke-dasharray:none;stroke-dashoffset:0;stroke-opacity:1"
         d="M -590.42291,887.14359 A 1121.3534,1121.3534 0 0 1 -709.79119,383.6962 1121.3534,1121.3534 0 0 1 -590.42268,-119.75159"
         transform="scale(0.26458333)" />
      <path
         id="path2508"
         style="fill:none;fill-opacity:1;stroke:#000000;stroke-width:0.919253;stroke-linecap:square;stroke-linejoin:round;stroke-miterlimit:4;stroke-dasharray:none;stroke-dashoffset:0;stroke-opacity:1"
         d="M -577.8576,887.14322 A 1110.1398,1110.1398 0 0 1 -698.57764,383.6962 1110.1398,1110.1398 0 0 1 -577.85686,-119.75224"
         transform="scale(0.26458333)" />
      <path
         id="path2504"
         style="fill:none;fill-opacity:1;stroke:#000000;stroke-width:0.919253;stroke-linecap:square;stroke-linejoin:round;stroke-miterlimit:4;stroke-dasharray:none;stroke-dashoffset:0;stroke-opacity:1"
         d="M -565.38556,887.14275 A 1099.0383,1099.0383 0 0 1 -687.47618,383.6962 1099.0383,1099.0383 0 0 1 -565.38394,-119.7535"
         transform="scale(0.26458333)" />
      <path
         id="path2500"
         style="fill:none;fill-opacity:1;stroke:#000000;stroke-width:0.919253;stroke-linecap:square;stroke-linejoin:round;stroke-miterlimit:4;stroke-dasharray:none;stroke-dashoffset:0;stroke-opacity:1"
         d="M -553.00514,887.14274 A 1088.048,1088.048 0 0 1 -676.48585,383.6962 1088.048,1088.048 0 0 1 -553.00414,-119.75222"
         transform="scale(0.26458333)" />
      <path
         id="path2496"
         style="fill:none;fill-opacity:1;stroke:#000000;stroke-width:0.919253;stroke-linecap:square;stroke-linejoin:round;stroke-miterlimit:4;stroke-dasharray:none;stroke-dashoffset:0;stroke-opacity:1"
         d="M -540.71475,887.14292 A 1077.1675,1077.1675 0 0 1 -665.60538,383.6962 1077.1675,1077.1675 0 0 1 -540.71383,-119.75226"
         transform="scale(0.26458333)" />
      <path
         id="path2492"
         style="fill:none;fill-opacity:1;stroke:#000000;stroke-width:0.919253;stroke-linecap:square;stroke-linejoin:round;stroke-miterlimit:4;stroke-dasharray:none;stroke-dashoffset:0;stroke-opacity:1"
         d="M -528.5139,887.14155 A 1066.3959,1066.3959 0 0 1 -654.83373,383.6962 1066.3959,1066.3959 0 0 1 -528.51269,-119.75137"
         transform="scale(0.26458333)" />
      <path
         id="path2488"
         style="fill:none;fill-opacity:1;stroke:#000000;stroke-width:0.919253;stroke-linecap:square;stroke-linejoin:round;stroke-miterlimit:4;stroke-dasharray:none;stroke-dashoffset:0;stroke-opacity:1"
         d="M -516.39833,887.14352 A 1055.7319,1055.7319 0 0 1 -644.16975,383.6962 1055.7319,1055.7319 0 0 1 -516.39807,-119.7516"
         transform="scale(0.26458333)" />
      <path
         id="path2484"
         style="fill:none;fill-opacity:1;stroke:#000000;stroke-width:0.919253;stroke-linecap:square;stroke-linejoin:round;stroke-miterlimit:4;stroke-dasharray:none;stroke-dashoffset:0;stroke-opacity:1"
         d="M -504.36947,887.14342 A 1045.1746,1045.1746 0 0 1 -633.6124,383.6962 1045.1746,1045.1746 0 0 1 -504.36904,-119.75177"
         transform="scale(0.26458333)" />
    </g>
  </g>
</svg>
