<?xml version="1.0" encoding="UTF-8" standalone="no"?>
<!-- Created with Inkscape (http://www.inkscape.org/) -->

<svg
   width="8.5in"
   height="11in"
   viewBox="0 0 215.9 279.40001"
   version="1.1"
   id="svg5"
   sodipodi:docname="birthday.svg"
   inkscape:version="1.1.2 (0a00cf5339, 2022-02-04)"
   xmlns:inkscape="http://www.inkscape.org/namespaces/inkscape"
   xmlns:sodipodi="http://sodipodi.sourceforge.net/DTD/sodipodi-0.dtd"
   xmlns="http://www.w3.org/2000/svg"
   xmlns:svg="http://www.w3.org/2000/svg">
  <sodipodi:namedview
     id="namedview7"
     pagecolor="#ffffff"
     bordercolor="#666666"
     borderopacity="1.0"
     inkscape:pageshadow="2"
     inkscape:pageopacity="0.0"
     inkscape:pagecheckerboard="0"
     inkscape:document-units="mm"
     showgrid="false"
     units="in"
     width="12in"
     inkscape:zoom="0.50898197"
     inkscape:cx="218.08238"
     inkscape:cy="651.30009"
     inkscape:window-width="1920"
     inkscape:window-height="1016"
     inkscape:window-x="0"
     inkscape:window-y="0"
     inkscape:window-maximized="1"
     inkscape:current-layer="layer1" />
  <defs
     id="defs2" />
  <g
     inkscape:label="Layer 1"
     inkscape:groupmode="layer"
     id="layer1">
    <path
       id="path16026"
       style="font-size:17.6389px;-inkscape-font-specification:'sans-serif Bold';text-align:center;letter-spacing:1.32292px;word-spacing:0px;text-anchor:middle;fill:#ff0000;fill-opacity:1;stroke:#000000;stroke-width:0.239734;stroke-opacity:1"
       d="m 199.14998,12.684942 -7.61155,0.0796 H 14.316649 v 1.81205 h 6.673683 v 11.337723 h 3.004632 v -4.939828 h 4.432733 v 4.939828 h 3.004164 V 14.576591 h 6.943382 l -4.199555,11.337723 h 3.020084 l 0.741677,-2.122488 H 42.6352 l 0.733717,2.122488 h 3.020085 L 42.189446,14.576591 h 6.943383 v 11.337723 h 3.004164 v -4.042231 h 1.982485 c 1.48273,0 2.619332,-0.327763 3.41012,-0.983283 0.795993,-0.660725 1.193987,-1.602698 1.193987,-2.8253 0,-1.217396 -0.397994,-2.153857 -1.193987,-2.80938 -0.346305,-0.289346 -0.758995,-0.514893 -1.238,-0.677529 h 5.753141 v 11.337723 h 3.004633 v -4.042231 h 1.982019 c 1.482727,0 2.619798,-0.327763 3.410586,-0.983283 0.795993,-0.660725 1.193987,-1.602698 1.193987,-2.8253 0,-1.217396 -0.397994,-2.153857 -1.193987,-2.80938 -0.346305,-0.289346 -0.758994,-0.514893 -1.237999,-0.677529 h 4.336278 l 4.234204,6.429267 v 4.908456 h 3.004164 v -4.908456 l 4.234204,-6.429267 h 9.478848 v 11.337723 h 4.98665 c 1.550364,0 2.705324,-0.275891 3.464904,-0.827362 0.75956,-0.551472 1.1392,-1.388771 1.1392,-2.512523 0,-0.733561 -0.17672,-1.352819 -0.5305,-1.857469 -0.35377,-0.504646 -0.85323,-0.850771 -1.49834,-1.038066 0.50464,-0.192493 0.8898,-0.486282 1.15513,-0.881677 0.26533,-0.400597 0.39799,-0.884432 0.39799,-1.451513 0,-1.076929 -0.36449,-1.860068 -1.09285,-2.34911 -0.25074,-0.169568 -0.55519,-0.309228 -0.91352,-0.420003 h 6.27195 v 11.337723 h 3.00415 V 14.576591 h 4.14103 v 11.337723 h 3.00463 v -4.409323 h 0.85031 c 0.48904,0 0.87923,0.106963 1.17057,0.32027 0.29655,0.213306 0.58805,0.611297 0.87419,1.193987 l 1.42014,2.895066 h 3.19989 l -1.63132,-3.308983 c -0.33296,-0.671133 -0.66301,-1.170576 -0.99077,-1.498335 -0.32256,-0.332964 -0.68935,-0.545958 -1.10034,-0.639603 0.74916,-0.234117 1.30829,-0.598603 1.67766,-1.092849 0.3746,-0.494242 0.56188,-1.126354 0.56188,-1.896331 0,-1.113347 -0.35898,-1.927234 -1.07693,-2.442288 -0.25879,-0.187013 -0.5721,-0.340224 -0.93927,-0.459334 h 4.37748 v 1.95767 h 3.87086 v 9.380053 h 3.00463 v -9.380053 h 3.8629 v -1.95767 h 2.75132 v 11.337723 h 3.00463 v -4.939828 h 4.43274 v 4.939828 h 3.00416 V 14.576591 h 4.13307 v 11.337723 h 3.16851 c 1.74805,0 3.0591,-0.124861 3.93313,-0.374584 0.87404,-0.254926 1.62321,-0.684138 2.24751,-1.287634 0.54626,-0.525461 0.95206,-1.131398 1.2174,-1.818137 0.26532,-0.691938 0.39799,-1.477836 0.39799,-2.357069 0,-0.868827 -0.13267,-1.646454 -0.39799,-2.333191 -0.26534,-0.686739 -0.67114,-1.292676 -1.2174,-1.818137 -0.61911,-0.603496 -1.36323,-1.030417 -2.23206,-1.280141 -0.0824,-0.02432 -0.17018,-0.04683 -0.2608,-0.06883 h 10.41905 l -4.19908,11.337723 h 3.02008 l 0.74121,-2.122488 h 4.69775 l 0.73372,2.122488 h 3.02008 l -4.19955,-11.337723 h 3.99728 l 4.23373,6.429267 v 4.908456 h 3.00463 v -4.908456 l 4.23374,-6.429267 h 0.5099 l 7.6064,-0.0796 c 1.55859,0 2.60321,0.757333 3.38718,2.056467 0.78397,1.299137 1.19506,3.147149 1.16776,5.004442 -0.0273,1.857298 -0.49272,3.714504 -1.297,5.025982 -0.75478,1.230781 -1.71614,1.9588 -3.00463,2.044759 v -0.04823 H 22.186659 l -7.611547,-0.0796 h -0.0052 c -2.199872,0 -3.915572,1.238608 -4.9374852,2.932056 -1.0219227,1.693444 -1.4613248,3.834775 -1.4299744,5.967592 0.031359,2.132816 0.5334001,4.264946 1.5643565,5.946052 1.0309561,1.681109 2.6992211,2.926908 4.8031031,2.926908 h 0.0052 l 6.41522,-0.06509 v 11.337722 h 3.004632 v -4.939827 h 4.432733 v 4.939827 h 3.004164 V 46.208338 h 6.943382 L 34.175688,57.54606 h 3.020084 l 0.741677,-2.122485 H 42.6352 l 0.733717,2.122485 h 3.020085 L 42.189446,46.208338 h 6.943383 V 57.54606 h 3.004164 v -4.04223 h 1.982485 c 1.48273,0 2.619332,-0.327762 3.41012,-0.983282 0.795993,-0.660726 1.193987,-1.6027 1.193987,-2.825301 0,-1.217397 -0.397994,-2.153855 -1.193987,-2.80938 -0.346305,-0.289345 -0.758995,-0.514891 -1.238,-0.677529 h 5.753141 V 57.54606 h 3.004633 v -4.04223 h 1.982019 c 1.482727,0 2.619798,-0.327762 3.410586,-0.983282 0.795993,-0.660726 1.193987,-1.6027 1.193987,-2.825301 0,-1.217397 -0.397994,-2.153855 -1.193987,-2.80938 -0.346305,-0.289345 -0.758994,-0.514891 -1.237999,-0.677529 h 4.336278 l 4.234204,6.429267 v 4.908455 h 3.004164 v -4.908455 l 4.234204,-6.429267 h 9.478848 V 57.54606 h 4.98665 c 1.550374,0 2.705324,-0.27589 3.464904,-0.827362 0.75956,-0.551471 1.1392,-1.38877 1.1392,-2.512522 0,-0.733562 -0.17672,-1.352818 -0.5305,-1.85747 -0.35377,-0.504644 -0.85323,-0.850769 -1.49834,-1.038066 0.50464,-0.192487 0.8898,-0.486281 1.15513,-0.881676 0.26533,-0.400598 0.39799,-0.884431 0.39799,-1.451514 0,-1.076927 -0.36449,-1.860072 -1.09285,-2.349108 -0.25074,-0.169568 -0.55519,-0.309228 -0.91352,-0.420004 h 6.27195 V 57.54606 h 3.00415 V 46.208338 h 4.14103 V 57.54606 h 3.00463 v -4.409322 h 0.85031 c 0.48903,0 0.87923,0.106964 1.17057,0.32027 0.29655,0.213305 0.58806,0.611297 0.87419,1.193987 l 1.42014,2.895065 h 3.19989 l -1.63132,-3.30898 c -0.33296,-0.671133 -0.66301,-1.170577 -0.99077,-1.498336 -0.32256,-0.332967 -0.68935,-0.545958 -1.10034,-0.639603 0.74916,-0.234119 1.30829,-0.598603 1.67766,-1.09285 0.3746,-0.49424 0.56188,-1.126353 0.56188,-1.89633 0,-1.113348 -0.35898,-1.927234 -1.07693,-2.442288 -0.25879,-0.187014 -0.5721,-0.340223 -0.93927,-0.459335 h 4.37748 v 1.957671 h 3.87086 v 9.380051 h 3.00463 v -9.380051 h 3.8629 v -1.957671 h 2.75132 V 57.54606 h 3.00463 v -4.939827 h 4.43274 v 4.939827 h 3.00416 V 46.208338 h 4.13307 V 57.54606 h 3.16851 c 1.74805,0 3.05909,-0.12486 3.93313,-0.374584 0.87404,-0.254925 1.62321,-0.684135 2.24751,-1.287631 0.54626,-0.525461 0.95206,-1.1314 1.2174,-1.818139 0.26532,-0.691939 0.39799,-1.477836 0.39799,-2.35707 0,-0.868826 -0.13267,-1.646453 -0.39799,-2.333189 -0.26534,-0.686739 -0.67114,-1.292681 -1.2174,-1.818136 -0.6191,-0.603497 -1.36323,-1.030419 -2.23206,-1.280143 -0.0824,-0.02432 -0.17018,-0.04682 -0.2608,-0.06883 h 10.41905 l -4.19908,11.337722 h 3.02008 l 0.74121,-2.122485 h 4.69775 l 0.73372,2.122485 h 3.02008 l -4.19955,-11.337722 h 3.99728 l 4.23373,6.429267 v 4.908455 h 3.00463 v -4.908455 l 4.23374,-6.429267 h 0.5099 l 7.6064,-0.0796 c 1.55859,0 2.60321,0.757334 3.38718,2.056468 0.78397,1.299136 1.19506,3.147148 1.16776,5.004442 -0.0273,1.857299 -0.49272,3.714503 -1.297,5.025981 -0.75478,1.230781 -1.71614,1.958802 -3.00463,2.044761 V 60.21216 H 22.186659 l -7.611547,-0.0796 h -0.0052 c -2.199872,0 -3.915572,1.238609 -4.9374852,2.932057 -1.0219227,1.693443 -1.4613248,3.834774 -1.4299744,5.967592 0.031359,2.132816 0.5334001,4.264945 1.5643565,5.946052 1.0309561,1.681109 2.6992211,2.926907 4.8031031,2.926907 h 0.0052 l 6.41522,-0.06508 V 89.17781 h 3.004632 v -4.939827 h 4.432733 v 4.939827 h 3.004164 V 77.840085 h 6.943382 l -4.199555,11.337722 h 3.020084 l 0.741677,-2.122485 H 42.6352 l 0.733717,2.122485 h 3.020085 L 42.189446,77.840085 h 6.943383 v 11.337722 h 3.004164 v -4.042228 h 1.982485 c 1.48273,0 2.619332,-0.327764 3.41012,-0.983285 0.795993,-0.660725 1.193987,-1.602697 1.193987,-2.825298 0,-1.217397 -0.397994,-2.153859 -1.193987,-2.80938 -0.346305,-0.289347 -0.758995,-0.514893 -1.238,-0.677531 h 5.753141 v 11.337722 h 3.004633 v -4.042228 h 1.982019 c 1.482727,0 2.619798,-0.327764 3.410586,-0.983285 0.795993,-0.660725 1.193987,-1.602697 1.193987,-2.825298 0,-1.217397 -0.397994,-2.153859 -1.193987,-2.80938 -0.346305,-0.289347 -0.758994,-0.514893 -1.237999,-0.677531 h 4.336278 l 4.234204,6.429267 v 4.908455 h 3.004164 v -4.908455 l 4.234204,-6.429267 h 9.478848 v 11.337722 h 4.98665 c 1.550374,0 2.705324,-0.27589 3.464904,-0.827362 0.75956,-0.551472 1.1392,-1.388771 1.1392,-2.512523 0,-0.733561 -0.17672,-1.352817 -0.5305,-1.857466 -0.35377,-0.504647 -0.85323,-0.850772 -1.49834,-1.038067 0.50464,-0.192494 0.8898,-0.486283 1.15513,-0.881678 0.26533,-0.400598 0.39799,-0.884431 0.39799,-1.451512 0,-1.076929 -0.36449,-1.860068 -1.09285,-2.34911 -0.25074,-0.169569 -0.55519,-0.309228 -0.91352,-0.420004 h 6.27195 v 11.337722 h 3.00415 V 77.840085 h 4.14103 v 11.337722 h 3.00463 v -4.409323 h 0.85031 c 0.48903,0 0.87923,0.106965 1.17057,0.32027 0.29655,0.213306 0.58806,0.611297 0.87419,1.193987 l 1.42014,2.895066 h 3.19989 l -1.63132,-3.308981 c -0.33296,-0.671132 -0.66301,-1.170576 -0.99077,-1.498336 -0.32256,-0.332963 -0.68935,-0.545957 -1.10034,-0.639602 0.74916,-0.234117 1.30829,-0.598603 1.67766,-1.092848 0.3746,-0.494242 0.56188,-1.126356 0.56188,-1.896333 0,-1.113347 -0.35898,-1.927234 -1.07693,-2.442287 -0.25879,-0.187014 -0.5721,-0.340223 -0.93927,-0.459335 h 4.37748 v 1.957671 h 3.87086 v 9.380051 h 3.00463 v -9.380051 h 3.8629 v -1.957671 h 2.75132 v 11.337722 h 3.00463 V 84.23798 h 4.43274 v 4.939827 h 3.00416 V 77.840085 h 4.13307 v 11.337722 h 3.16851 c 1.74805,0 3.05909,-0.124868 3.93313,-0.374584 0.87404,-0.254926 1.62321,-0.684136 2.24751,-1.287632 0.54626,-0.52546 0.95206,-1.131397 1.2174,-1.818138 0.26532,-0.691934 0.39799,-1.477837 0.39799,-2.35707 0,-0.868826 -0.13267,-1.646453 -0.39799,-2.33319 -0.26534,-0.686739 -0.67114,-1.292675 -1.2174,-1.818136 -0.6191,-0.603496 -1.36323,-1.030416 -2.23206,-1.280142 -0.0824,-0.02432 -0.17018,-0.04683 -0.2608,-0.06883 h 10.41905 l -4.19908,11.337722 h 3.02008 l 0.74121,-2.122485 h 4.69775 l 0.73372,2.122485 h 3.02008 l -4.19955,-11.337722 h 3.99728 l 4.23373,6.429267 v 4.908455 h 3.00463 v -4.908455 l 4.23374,-6.429267 h 0.5099 l 7.6064,-0.0796 c 1.55859,0 2.60321,0.757334 3.38718,2.056468 0.78397,1.299136 1.19506,3.147148 1.16776,5.004442 -0.0273,1.857297 -0.49272,3.714502 -1.297,5.02598 -0.75478,1.230784 -1.71614,1.9588 -3.00463,2.044761 v -0.04823 H 22.186659 l -7.611547,-0.0796 h -0.0052 c -2.199872,0 -3.915572,1.238609 -4.9374852,2.932055 -1.0219227,1.693448 -1.4613248,3.834788 -1.4299744,5.967589 0.031359,2.13281 0.5334001,4.26495 1.5643565,5.94605 1.0309561,1.68112 2.6992211,2.92691 4.8031031,2.92691 h 0.0052 l 6.41522,-0.0651 v 11.33773 h 3.004632 v -4.93983 h 4.432733 v 4.93983 h 3.004164 v -11.33773 h 6.943382 l -4.199555,11.33773 h 3.020084 l 0.741677,-2.12249 H 42.6352 l 0.733717,2.12249 h 3.020085 l -4.199556,-11.33773 h 6.943383 v 11.33773 h 3.004164 v -4.04224 h 1.982485 c 1.48273,0 2.619332,-0.32775 3.41012,-0.98328 0.795993,-0.66072 1.193987,-1.6027 1.193987,-2.8253 0,-1.2174 -0.397994,-2.15386 -1.193987,-2.80939 -0.346305,-0.28933 -0.758995,-0.51488 -1.238,-0.67752 h 5.753141 v 11.33773 h 3.004633 v -4.04224 h 1.982019 c 1.482727,0 2.619798,-0.32775 3.410586,-0.98328 0.795993,-0.66072 1.193987,-1.6027 1.193987,-2.8253 0,-1.2174 -0.397994,-2.15386 -1.193987,-2.80939 -0.346305,-0.28933 -0.758994,-0.51488 -1.237999,-0.67752 h 4.336278 l 4.234204,6.42926 v 4.90847 h 3.004164 v -4.90847 l 4.234204,-6.42926 h 9.478848 v 11.33773 h 4.98665 c 1.550374,0 2.705324,-0.2759 3.464904,-0.82737 0.75956,-0.55147 1.1392,-1.38877 1.1392,-2.51252 0,-0.73356 -0.17672,-1.35282 -0.5305,-1.85748 -0.35377,-0.50463 -0.85323,-0.85075 -1.49834,-1.03806 0.50464,-0.19249 0.8898,-0.48627 1.15513,-0.88168 0.26533,-0.4006 0.39799,-0.88442 0.39799,-1.45151 0,-1.07693 -0.36449,-1.86006 -1.09285,-2.34911 -0.25074,-0.16956 -0.55519,-0.30922 -0.91352,-0.42 h 6.27195 v 11.33773 h 3.00415 v -11.33773 h 4.14103 v 11.33773 h 3.00463 v -4.40933 h 0.85031 c 0.48902,0 0.87923,0.10697 1.17057,0.32026 0.29655,0.21332 0.58807,0.6113 0.87419,1.19399 l 1.42014,2.89508 h 3.19989 l -1.63132,-3.30899 c -0.33296,-0.67112 -0.66301,-1.17058 -0.99077,-1.49833 -0.32256,-0.33297 -0.68935,-0.54596 -1.10034,-0.6396 0.74916,-0.23413 1.30829,-0.5986 1.67766,-1.09285 0.3746,-0.49424 0.56188,-1.12636 0.56188,-1.89633 0,-1.11335 -0.35898,-1.92724 -1.07693,-2.44229 -0.25879,-0.18702 -0.5721,-0.34022 -0.93927,-0.45933 h 4.37748 v 1.95766 h 3.87086 v 9.38006 h 3.00463 v -9.38006 h 3.8629 v -1.95766 h 2.75132 v 11.33772 h 3.00463 v -4.93983 h 4.43274 v 4.93983 h 3.00416 v -11.33772 h 4.13307 v 11.33772 h 3.16851 c 1.74805,0 3.05909,-0.12486 3.93313,-0.37459 0.87404,-0.25492 1.62321,-0.68413 2.24751,-1.28763 0.54626,-0.52545 0.95206,-1.1314 1.2174,-1.81814 0.26532,-0.69194 0.39799,-1.47783 0.39799,-2.35707 0,-0.86883 -0.13267,-1.64645 -0.39799,-2.33319 -0.26534,-0.68674 -0.67114,-1.29267 -1.2174,-1.81814 -0.6191,-0.60349 -1.36323,-1.03041 -2.23206,-1.28014 -0.0824,-0.0243 -0.17018,-0.0468 -0.2608,-0.0688 h 10.41905 l -4.19908,11.33772 h 3.02008 l 0.74121,-2.12249 h 4.69775 l 0.73372,2.12249 h 3.02008 l -4.19955,-11.33772 h 3.99728 l 4.23373,6.42926 v 4.90846 h 3.00463 v -4.90846 l 4.23374,-6.42926 h 0.5099 l 7.6064,-0.0796 c 1.55859,0 2.60321,0.75732 3.38718,2.05646 0.78397,1.29913 1.19506,3.14715 1.16776,5.00444 -0.0273,1.85731 -0.49272,3.71451 -1.297,5.02598 -0.75478,1.23079 -1.71614,1.95881 -3.00463,2.04477 v -0.0482 H 22.186659 l -7.611547,-0.0796 h -0.0052 c -2.199872,0 -3.915572,1.23861 -4.9374852,2.93206 -1.0219227,1.69344 -1.4613248,3.83477 -1.4299744,5.96759 0.031359,2.13281 0.5334001,4.26495 1.5643565,5.94604 1.0309561,1.6811 2.6992211,2.9269 4.8031031,2.9269 h 0.0052 l 6.41522,-0.0651 v 11.33772 h 3.004632 v -4.93982 h 4.432733 v 4.93982 h 3.004164 v -11.33772 h 6.943382 l -4.199555,11.33772 h 3.020084 l 0.741677,-2.12248 H 42.6352 l 0.733717,2.12248 h 3.020085 l -4.199556,-11.33772 h 6.943383 v 11.33772 h 3.004164 v -4.04223 h 1.982485 c 1.48273,0 2.619332,-0.32776 3.41012,-0.98328 0.795993,-0.66073 1.193987,-1.6027 1.193987,-2.8253 0,-1.2174 -0.397994,-2.15385 -1.193987,-2.80938 -0.346305,-0.28934 -0.758995,-0.5149 -1.238,-0.67753 h 5.753141 v 11.33772 h 3.004633 v -4.04223 h 1.982019 c 1.482727,0 2.619798,-0.32776 3.410586,-0.98328 0.795993,-0.66073 1.193987,-1.6027 1.193987,-2.8253 0,-1.2174 -0.397994,-2.15385 -1.193987,-2.80938 -0.346305,-0.28934 -0.758994,-0.5149 -1.237999,-0.67753 h 4.336278 l 4.234204,6.42927 v 4.90845 h 3.004164 v -4.90845 l 4.234204,-6.42927 h 9.478848 v 11.33772 h 4.98665 c 1.550374,0 2.705324,-0.27589 3.464904,-0.82736 0.75956,-0.55148 1.1392,-1.38877 1.1392,-2.51252 0,-0.73356 -0.17672,-1.35282 -0.5305,-1.85747 -0.35377,-0.50464 -0.85323,-0.85077 -1.49834,-1.03807 0.50464,-0.19249 0.8898,-0.48628 1.15513,-0.88167 0.26533,-0.4006 0.39799,-0.88444 0.39799,-1.45152 0,-1.07693 -0.36449,-1.86006 -1.09285,-2.34911 -0.25074,-0.16956 -0.55519,-0.30923 -0.91352,-0.42 h 6.27195 v 11.33772 h 3.00415 v -11.33772 h 4.14103 v 11.33772 h 3.00463 v -4.40932 h 0.85031 c 0.48903,0 0.87923,0.10696 1.17057,0.32027 0.29655,0.2133 0.58806,0.6113 0.87419,1.19399 l 1.42014,2.89506 h 3.19989 l -1.63132,-3.30898 c -0.33296,-0.67112 -0.66301,-1.17058 -0.99077,-1.49834 -0.32256,-0.33296 -0.68935,-0.54595 -1.10034,-0.6396 0.74916,-0.23412 1.30829,-0.5986 1.67766,-1.09285 0.3746,-0.49424 0.56188,-1.12636 0.56188,-1.89633 0,-1.11335 -0.35898,-1.92723 -1.07693,-2.44228 -0.25879,-0.18702 -0.5721,-0.34023 -0.93927,-0.45934 h 4.37748 v 1.95767 h 3.87086 v 9.38005 h 3.00463 v -9.38005 h 3.8629 v -1.95767 h 2.75132 v 11.33772 h 3.00463 v -4.93982 h 4.43274 v 4.93982 h 3.00416 v -11.33772 h 4.13307 v 11.33772 h 3.16851 c 1.74805,0 3.05909,-0.12486 3.93313,-0.37458 0.87404,-0.25493 1.62321,-0.68414 2.24751,-1.28763 0.54626,-0.52546 0.95206,-1.1314 1.2174,-1.81814 0.26532,-0.69194 0.39799,-1.47784 0.39799,-2.35707 0,-0.86883 -0.13267,-1.64645 -0.39799,-2.33319 -0.26534,-0.68674 -0.67114,-1.29268 -1.2174,-1.81814 -0.6191,-0.60349 -1.36323,-1.03041 -2.23206,-1.28014 -0.0824,-0.0243 -0.17018,-0.0468 -0.2608,-0.0688 h 10.41905 l -4.19908,11.33772 h 3.02008 l 0.74121,-2.12248 h 4.69775 l 0.73372,2.12248 h 3.02008 l -4.19955,-11.33772 h 3.99728 l 4.23373,6.42927 v 4.90845 h 3.00463 v -4.90845 l 4.23374,-6.42927 h 0.5099 l 7.6064,-0.0796 c 1.55859,0 2.60321,0.75733 3.38718,2.05647 0.78397,1.29913 1.19506,3.14715 1.16776,5.00444 -0.0273,1.8573 -0.49272,3.7145 -1.297,5.02598 -0.75478,1.23079 -1.71614,1.9588 -3.00463,2.04476 v -0.0482 H 22.186659 l -7.611547,-0.0796 h -0.0052 c -2.199872,0 -3.915572,1.23861 -4.9374852,2.93205 -1.0219227,1.69345 -1.4613248,3.83478 -1.4299744,5.96759 0.031359,2.13283 0.5334001,4.26495 1.5643565,5.94606 1.0309561,1.68111 2.6992211,2.9269 4.8031031,2.9269 h 0.0052 l 6.41522,-0.0651 v 11.33772 h 3.004632 v -4.93983 h 4.432733 v 4.93983 h 3.004164 v -11.33772 h 6.943382 l -4.199555,11.33772 h 3.020084 l 0.741677,-2.12249 H 42.6352 l 0.733717,2.12249 h 3.020085 l -4.199556,-11.33772 h 6.943383 v 11.33772 h 3.004164 v -4.04223 h 1.982485 c 1.48273,0 2.619332,-0.32776 3.41012,-0.98328 0.795993,-0.66073 1.193987,-1.6027 1.193987,-2.8253 0,-1.2174 -0.397994,-2.15385 -1.193987,-2.80938 -0.346305,-0.28934 -0.758995,-0.5149 -1.238,-0.67753 h 5.753141 v 11.33772 h 3.004633 v -4.04223 h 1.982019 c 1.482727,0 2.619798,-0.32776 3.410586,-0.98328 0.795993,-0.66073 1.193987,-1.6027 1.193987,-2.8253 0,-1.2174 -0.397994,-2.15385 -1.193987,-2.80938 -0.346305,-0.28934 -0.758994,-0.5149 -1.237999,-0.67753 h 4.336278 l 4.234204,6.42926 v 4.90846 h 3.004164 v -4.90849 l 4.234204,-6.42926 h 9.478848 v 11.33772 h 4.98665 c 1.550374,0 2.705324,-0.27589 3.464904,-0.82736 0.75956,-0.55148 1.1392,-1.38878 1.1392,-2.51252 0,-0.73357 -0.17672,-1.35282 -0.5305,-1.85747 -0.35377,-0.50464 -0.85323,-0.85077 -1.49834,-1.03807 0.50464,-0.19249 0.8898,-0.48628 1.15513,-0.88168 0.26533,-0.40059 0.39799,-0.88443 0.39799,-1.45151 0,-1.07693 -0.36449,-1.86008 -1.09285,-2.34911 -0.25074,-0.16957 -0.55519,-0.30922 -0.91352,-0.42 h 6.27195 v 11.33772 h 3.00415 v -11.33772 h 4.14103 v 11.33772 h 3.00463 v -4.40932 h 0.85031 c 0.48902,0 0.87923,0.10696 1.17057,0.32027 0.29655,0.2133 0.58807,0.6113 0.87419,1.19398 l 1.42014,2.89507 h 3.19989 l -1.63132,-3.30898 c -0.33296,-0.67113 -0.66301,-1.17058 -0.99077,-1.49834 -0.32256,-0.33296 -0.68935,-0.54596 -1.10034,-0.6396 0.74916,-0.23412 1.30829,-0.5986 1.67766,-1.09285 0.3746,-0.49424 0.56188,-1.12636 0.56188,-1.89633 0,-1.11335 -0.35898,-1.92724 -1.07693,-2.44229 -0.25879,-0.18701 -0.5721,-0.34023 -0.93927,-0.45933 h 4.37748 v 1.95767 h 3.87086 v 9.38005 h 3.00463 V 174.693 h 3.8629 v -1.95767 h 2.75132 v 11.33772 h 3.00463 v -4.93983 h 4.43274 v 4.93983 h 3.00416 v -11.33772 h 4.13307 v 11.33772 h 3.16851 c 1.74805,0 3.05909,-0.12487 3.93313,-0.37458 0.87404,-0.25493 1.62321,-0.68414 2.24751,-1.28764 0.54626,-0.52546 0.95206,-1.1314 1.2174,-1.81813 0.26532,-0.69194 0.39799,-1.47784 0.39799,-2.35707 0,-0.86883 -0.13267,-1.64646 -0.39799,-2.33319 -0.26534,-0.68674 -0.67114,-1.29269 -1.2174,-1.81814 -0.6191,-0.60351 -1.36323,-1.03042 -2.23206,-1.28014 -0.0824,-0.0243 -0.17018,-0.0468 -0.2608,-0.0688 h 10.41905 l -4.19908,11.33772 h 3.02008 l 0.74121,-2.12249 h 4.69775 l 0.73372,2.12249 h 3.02008 l -4.19955,-11.33772 h 3.99728 l 4.23373,6.42926 v 4.90846 h 3.00463 v -4.90849 l 4.23374,-6.42926 h 0.5099 l 7.6064,-0.0796 c 1.55859,0 2.60321,0.75733 3.38718,2.05647 0.78397,1.29913 1.19506,3.14715 1.16776,5.00444 -0.0273,1.8573 -0.49272,3.7145 -1.297,5.02598 -0.75478,1.23078 -1.71614,1.9588 -3.00463,2.04476 v -0.0482 H 22.186659 l -7.611547,-0.0796 h -0.0052 c -2.199872,0 -3.915572,1.23861 -4.9374852,2.93206 -1.0219227,1.69344 -1.4613248,3.83478 -1.4299744,5.96759 0.031359,2.13282 0.5334001,4.26495 1.5643565,5.94605 1.0309561,1.68112 2.6992211,2.92691 4.8031031,2.92691 h 0.0052 l 6.41522,-0.0651 v 11.33772 h 3.004632 v -4.93983 h 4.432733 v 4.93983 h 3.004164 v -11.33772 h 6.943382 l -4.199555,11.33772 h 3.020084 l 0.741677,-2.12249 H 42.6352 l 0.733717,2.12249 h 3.020085 l -4.199556,-11.33772 h 6.943383 v 11.33772 h 3.004164 v -4.04223 h 1.982485 c 1.48273,0 2.619332,-0.32777 3.41012,-0.98329 0.795993,-0.66073 1.193987,-1.60269 1.193987,-2.82529 0,-1.2174 -0.397994,-2.15387 -1.193987,-2.80938 -0.346305,-0.28935 -0.758995,-0.5149 -1.238,-0.67753 h 5.753141 v 11.33772 h 3.004633 v -4.04223 h 1.982019 c 1.482727,0 2.619798,-0.32777 3.410586,-0.98329 0.795993,-0.66073 1.193987,-1.60269 1.193987,-2.82529 0,-1.2174 -0.397994,-2.15387 -1.193987,-2.80938 -0.346305,-0.28935 -0.758994,-0.5149 -1.237999,-0.67753 h 4.336278 l 4.234204,6.42926 v 4.90846 h 3.004164 v -4.90846 l 4.234204,-6.42926 h 9.478848 v 11.33772 h 4.98665 c 1.550374,0 2.705324,-0.2759 3.464904,-0.82736 0.75956,-0.55148 1.1392,-1.38878 1.1392,-2.51253 0,-0.73356 -0.17672,-1.35282 -0.5305,-1.85746 -0.35377,-0.50466 -0.85323,-0.85078 -1.49834,-1.03807 0.50464,-0.1925 0.8898,-0.48628 1.15513,-0.88168 0.26533,-0.40059 0.39799,-0.88443 0.39799,-1.45151 0,-1.07693 -0.36449,-1.86007 -1.09285,-2.34911 -0.25074,-0.16957 -0.55519,-0.30924 -0.91352,-0.42 h 6.27195 v 11.33772 h 3.00415 v -11.33772 h 4.14103 v 11.33772 h 3.00463 v -4.40932 h 0.85031 c 0.48902,0 0.87923,0.10696 1.17057,0.32026 0.29655,0.21331 0.58807,0.61131 0.87419,1.19399 l 1.42014,2.89507 h 3.19989 l -1.63132,-3.30898 c -0.33296,-0.67114 -0.66301,-1.17058 -0.99077,-1.49834 -0.32256,-0.33297 -0.68935,-0.54596 -1.10034,-0.6396 0.74916,-0.23412 1.30829,-0.5986 1.67766,-1.09285 0.3746,-0.49424 0.56188,-1.12636 0.56188,-1.89633 0,-1.11336 -0.35898,-1.92724 -1.07693,-2.44229 -0.25879,-0.18701 -0.5721,-0.34023 -0.93927,-0.45933 h 4.37748 v 1.95767 h 3.87086 v 9.38005 h 3.00463 v -9.38005 h 3.8629 v -1.95767 h 2.75132 v 11.33772 h 3.00463 v -4.93983 h 4.43274 v 4.93983 h 3.00416 v -11.33772 h 4.13307 v 11.33772 h 3.16851 c 1.74805,0 3.05909,-0.12487 3.93313,-0.37459 0.87404,-0.25492 1.62321,-0.68413 2.24751,-1.28763 0.54626,-0.52546 0.95206,-1.1314 1.2174,-1.81813 0.26532,-0.69194 0.39799,-1.47784 0.39799,-2.35708 0,-0.86883 -0.13267,-1.64645 -0.39799,-2.33319 -0.26534,-0.68673 -0.67114,-1.29268 -1.2174,-1.81813 -0.6191,-0.60351 -1.36323,-1.03042 -2.23206,-1.28015 -0.0824,-0.0243 -0.17018,-0.0468 -0.2608,-0.0688 h 10.41905 l -4.19908,11.33772 h 3.02008 l 0.74121,-2.12249 h 4.69775 l 0.73372,2.12249 h 3.02008 l -4.19955,-11.33772 h 3.99728 l 4.23373,6.42926 v 4.90846 h 3.00463 v -4.90846 l 4.23374,-6.42926 h 0.5099 l 7.6064,-0.0796 c 1.55859,0 2.60321,0.75732 3.38718,2.05646 0.78397,1.29913 1.19506,3.14715 1.16776,5.00445 -0.0273,1.8573 -0.49272,3.7145 -1.297,5.02598 -0.75478,1.23078 -1.71614,1.9588 -3.00463,2.04476 v -0.0482 H 22.186659 l -7.611547,-0.0796 h -0.0052 c -2.199872,0 -3.915572,1.23861 -4.9374852,2.93206 -1.0219227,1.69344 -1.4613248,3.83477 -1.4299744,5.96759 0.031359,2.13281 0.5334001,4.26495 1.5643565,5.94605 1.0309561,1.68112 2.6992211,2.92691 4.8031031,2.92691 h 0.0052 l 6.41522,-0.0651 v 11.33773 h 3.004632 v -4.93983 h 4.432733 v 4.93983 h 3.004164 v -11.33773 h 6.943382 l -4.199555,11.33773 h 3.020084 l 0.741677,-2.12248 H 42.6352 l 0.733717,2.12248 h 3.020085 l -4.199556,-11.33773 h 6.943383 v 11.33773 h 3.004164 v -4.04224 h 1.982485 c 1.48273,0 2.619332,-0.32777 3.41012,-0.98327 0.795993,-0.66073 1.193987,-1.60272 1.193987,-2.82531 0,-1.21739 -0.397994,-2.15386 -1.193987,-2.80938 -0.346305,-0.28935 -0.758995,-0.51489 -1.238,-0.67753 h 5.753141 v 11.33773 h 3.004633 v -4.04224 h 1.982019 c 1.482727,0 2.619798,-0.32777 3.410586,-0.98327 0.795993,-0.66073 1.193987,-1.60272 1.193987,-2.82531 0,-1.21739 -0.397994,-2.15386 -1.193987,-2.80938 -0.346305,-0.28935 -0.758994,-0.51489 -1.237999,-0.67753 h 4.336278 l 4.234204,6.42928 v 4.90845 h 3.004164 v -4.90845 l 4.234204,-6.42928 h 9.478848 v 11.33773 h 4.98665 c 1.550374,0 2.705324,-0.27588 3.464904,-0.82737 0.75956,-0.55146 1.1392,-1.38877 1.1392,-2.51253 0,-0.73356 -0.17672,-1.35281 -0.5305,-1.85745 -0.35377,-0.50464 -0.85323,-0.85077 -1.49834,-1.03807 0.50464,-0.19249 0.8898,-0.48628 1.15513,-0.88167 0.26533,-0.4006 0.39799,-0.88445 0.39799,-1.45152 0,-1.07693 -0.36449,-1.86007 -1.09285,-2.34911 -0.25074,-0.16957 -0.55519,-0.30923 -0.91352,-0.42001 h 6.27195 v 11.33773 h 3.00415 v -11.33773 h 4.14103 v 11.33773 h 3.00463 v -4.40932 h 0.85031 c 0.48902,0 0.87923,0.10697 1.17057,0.32026 0.29655,0.21331 0.58807,0.61132 0.87419,1.19399 l 1.42014,2.89507 h 3.19989 l -1.63132,-3.30899 c -0.33296,-0.67111 -0.66301,-1.17058 -0.99077,-1.49834 -0.32256,-0.33297 -0.68935,-0.54595 -1.10034,-0.63959 0.74916,-0.23412 1.30829,-0.59861 1.67766,-1.09285 0.3746,-0.49426 0.56188,-1.12634 0.56188,-1.89634 0,-1.11332 -0.35898,-1.92723 -1.07693,-2.44228 -0.25879,-0.18702 -0.5721,-0.34022 -0.93927,-0.45934 h 4.37748 v 1.95767 h 3.87086 v 9.38006 h 3.00463 v -9.38006 h 3.8629 v -1.95767 h 2.75132 v 11.33773 h 3.00463 v -4.93983 h 4.43274 v 4.93983 h 3.00416 v -11.33773 h 4.13307 v 11.33773 h 3.16851 c 1.74805,0 3.05909,-0.12487 3.93313,-0.37458 0.87404,-0.25493 1.62321,-0.68413 2.24751,-1.28763 0.54626,-0.52545 0.95206,-1.1314 1.2174,-1.81815 0.26532,-0.69194 0.39799,-1.47783 0.39799,-2.35706 0,-0.86884 -0.13267,-1.64647 -0.39799,-2.33321 -0.26534,-0.68671 -0.67114,-1.29267 -1.2174,-1.81813 -0.6191,-0.60349 -1.36323,-1.03041 -2.23206,-1.28014 -0.0824,-0.0243 -0.17018,-0.0468 -0.2608,-0.0688 h 10.41905 l -4.19908,11.33773 h 3.02008 l 0.74121,-2.12248 h 4.69775 l 0.73372,2.12248 h 3.02008 l -4.19955,-11.33773 h 3.99728 l 4.23373,6.42928 v 4.90845 h 3.00463 v -4.90845 l 4.23374,-6.42928 h 0.5099 l 7.6064,-0.0796 c 1.55859,0 2.60321,0.75732 3.38718,2.05646 0.78397,1.29912 1.19506,3.14716 1.16776,5.00445 -0.0273,1.85728 -0.49272,3.7145 -1.297,5.02597 -0.75478,1.23079 -1.71614,1.95881 -3.00463,2.04476 v -0.0482 H 22.186659 l -7.611547,-0.0796 h -0.0052 c -2.199872,0 -3.915572,1.23861 -4.9374852,2.93206 -1.0219227,1.69346 -1.4613248,3.83479 -1.4299744,5.9676 0.031359,2.13282 0.5334001,4.26496 1.5643565,5.94605 1.0309561,1.68111 2.6992211,2.92691 4.8031031,2.92691 h 0.0052 l 6.41522,-0.0651 -0.01779,-1.81064 -6.402577,0.0637 c -1.419891,0 -2.453671,-0.75015 -3.257945,-2.06161 -0.804273,-1.31149 -1.269724,-3.16868 -1.296997,-5.02599 -0.0273,-1.85729 0.383789,-3.70531 1.167766,-5.00445 0.783968,-1.29911 1.828582,-2.05646 3.387176,-2.05646 l 7.606396,0.0796 h 0.509903 L 26.92,258.24406 v 4.90845 h 3.004632 v -4.90845 l 4.233736,-6.42925 h 3.99728 l -4.199556,11.3377 h 3.020085 l 0.733715,-2.12248 h 4.697753 l 0.741207,2.12248 h 3.020084 l -4.199088,-11.3377 h 10.419055 c -0.09062,0.022 -0.178441,0.0444 -0.260804,0.0688 -0.868831,0.2497 -1.612945,0.67664 -2.232053,1.28013 -0.546267,0.52544 -0.95206,1.1314 -1.217397,1.81814 -0.265328,0.68674 -0.397996,1.46436 -0.397996,2.33318 0,0.87925 0.132668,1.66514 0.397996,2.35706 0.265337,0.68677 0.67113,1.2927 1.217397,1.81815 0.6243,0.6035 1.373475,1.03272 2.247504,1.28763 0.874033,0.24973 2.185077,0.37458 3.933132,0.37458 h 3.168514 v -11.3377 h 4.133065 v 11.3377 h 3.004166 v -4.93981 h 4.432733 v 4.93981 h 3.004631 v -11.3377 h 2.751321 v 1.95766 h 3.862898 v 9.38004 h 3.004631 v -9.38004 h 3.870857 v -1.95766 h 4.377483 c -0.367171,0.1191 -0.680475,0.27231 -0.93927,0.45933 -0.71795,0.51504 -1.076929,1.32894 -1.076929,2.44229 0,0.76997 0.187284,1.40208 0.561876,1.89631 0.369374,0.49424 0.928503,0.85875 1.677669,1.09285 -0.410998,0.0937 -0.777785,0.30665 -1.10034,0.63961 -0.327766,0.32777 -0.65781,0.82721 -0.990777,1.49834 l -1.631311,3.30897 h 3.199882 l 1.420142,-2.89505 c 0.286142,-0.58269 0.577634,-0.98067 0.874187,-1.19399 0.291332,-0.21331 0.681532,-0.32028 1.170575,-0.32028 h 0.850304 v 4.40932 h 3.004634 v -11.3377 h 4.141027 v 11.3377 h 3.00416 v -11.3377 h 6.27194 c -0.35833,0.11076 -0.66278,0.25042 -0.91352,0.41999 -0.72836,0.48903 -1.09284,1.27219 -1.09284,2.3491 0,0.56709 0.13265,1.05092 0.39799,1.45152 0.26532,0.39539 0.65048,0.68918 1.15512,0.88169 -0.64511,0.18728 -1.14457,0.53341 -1.49833,1.03805 -0.35378,0.50466 -0.5305,1.12392 -0.5305,1.85748 0,1.12375 0.37963,1.96104 1.13919,2.51253 0.75959,0.55146 1.91454,0.82734 3.4649,0.82734 h 4.98666 v -11.3377 h 9.47884 l 4.23421,6.42925 v 4.90845 h 3.00416 v -4.90845 l 4.23421,-6.42925 h 4.33627 c -0.47901,0.16261 -0.89169,0.38818 -1.238,0.67751 -0.79599,0.65553 -1.19398,1.592 -1.19398,2.80939 0,1.2226 0.39799,2.16458 1.19398,2.82529 0.79079,0.65553 1.92786,0.98329 3.41059,0.98329 h 1.98202 v 4.04222 h 3.00463 v -11.3377 h 5.75314 c -0.47901,0.16261 -0.89168,0.38818 -1.238,0.67751 -0.79597,0.65553 -1.19399,1.592 -1.19399,2.80939 0,1.2226 0.39802,2.16458 1.19399,2.82529 0.79079,0.65553 1.92738,0.98329 3.41012,0.98329 h 1.98249 v 4.04222 h 3.00416 v -11.3377 h 6.94339 l -4.19956,11.3377 h 3.02008 l 0.73372,-2.12248 h 4.69775 l 0.74168,2.12248 h 3.02008 l -4.19955,-11.3377 h 6.94338 v 11.3377 h 3.00416 v -4.93981 h 4.43274 v 4.93981 h 3.00463 v -11.3377 l 6.41522,0.0651 h 0.006 c 2.10388,0 3.77214,-1.2458 4.8031,-2.92688 1.03096,-1.68111 1.533,-3.81326 1.56436,-5.94607 0.0314,-2.13282 -0.40805,-4.27414 -1.42998,-5.96759 -1.02191,-1.69346 -2.73761,-2.93206 -4.93748,-2.93206 h -0.006 l -7.61155,0.0796 H 14.316649 v 0.03 c -1.284086,-0.0887 -2.25155,-0.7985 -3.004632,-2.0265 -0.804273,-1.31148 -1.269724,-3.16869 -1.296997,-5.02598 -0.0273,-1.8573 0.383789,-3.70531 1.167766,-5.00444 0.783968,-1.29914 1.828582,-2.05647 3.387176,-2.05647 l 7.606396,0.0796 h 0.509903 l 4.233736,6.42927 v 4.90845 h 3.004632 v -4.90845 l 4.233736,-6.42927 h 3.99728 l -4.199556,11.33772 h 3.020085 l 0.733715,-2.12249 h 4.697753 l 0.741207,2.12249 h 3.020084 L 41.969845,220.18309 H 52.3889 c -0.09062,0.022 -0.178441,0.0449 -0.260804,0.0693 -0.868831,0.24971 -1.612945,0.67664 -2.232053,1.28014 -0.546267,0.52546 -0.95206,1.13093 -1.217397,1.81767 -0.265328,0.68673 -0.397996,1.46437 -0.397996,2.33319 0,0.87923 0.132668,1.66513 0.397996,2.35707 0.265337,0.68674 0.67113,1.29314 1.217397,1.8186 0.6243,0.6035 1.373475,1.03224 2.247504,1.28717 0.874033,0.24972 2.185077,0.37458 3.933132,0.37458 h 3.168514 v -11.33772 h 4.133065 v 11.33772 h 3.004166 v -4.93936 h 4.432733 v 4.93936 h 3.004631 v -11.33772 h 2.751321 v 1.95767 h 3.862898 v 9.38005 h 3.004631 v -9.38005 h 3.870857 v -1.95767 h 4.377483 c -0.367171,0.11911 -0.680475,0.27279 -0.93927,0.4598 -0.71795,0.51505 -1.076929,1.32894 -1.076929,2.44229 0,0.76998 0.187284,1.40162 0.561876,1.89586 0.369374,0.49425 0.928503,0.85874 1.677669,1.09285 -0.410998,0.0936 -0.777785,0.30665 -1.10034,0.6396 -0.327766,0.32777 -0.65781,0.82767 -0.990777,1.49881 l -1.631311,3.30851 h 3.199882 l 1.420142,-2.8946 c 0.286142,-0.58269 0.577634,-0.98067 0.874187,-1.19398 0.291332,-0.21331 0.681532,-0.32074 1.170575,-0.32074 h 0.850304 v 4.40932 h 3.004634 v -11.33772 h 4.14102 v 11.33772 h 3.00417 v -11.33772 h 6.27194 c -0.35833,0.11078 -0.66278,0.2509 -0.91352,0.42047 -0.72836,0.48904 -1.09285,1.27219 -1.09285,2.34911 0,0.56708 0.13266,1.05044 0.398,1.45105 0.26532,0.39539 0.65048,0.68917 1.15512,0.88167 -0.64511,0.1873 -1.14457,0.5339 -1.49833,1.03854 -0.35378,0.50466 -0.53051,1.12343 -0.53051,1.857 0,1.12375 0.37964,1.96151 1.1392,2.51299 0.75959,0.55146 1.91454,0.82689 3.4649,0.82689 h 4.98666 v -11.33772 h 9.47884 l 4.23421,6.42927 v 4.90845 h 3.00416 v -4.90845 l 4.23421,-6.42927 h 4.33627 c -0.47901,0.16263 -0.89169,0.38865 -1.238,0.678 -0.79599,0.65552 -1.19398,1.59151 -1.19398,2.80891 0,1.2226 0.39799,2.16458 1.19398,2.8253 0.79079,0.65552 1.92786,0.98375 3.41059,0.98375 h 1.98202 v 4.04176 h 3.00463 v -11.33772 h 5.75314 c -0.47901,0.16263 -0.89168,0.38865 -1.238,0.678 -0.79597,0.65552 -1.19399,1.59151 -1.19399,2.80891 0,1.2226 0.39802,2.16458 1.19399,2.8253 0.79079,0.65552 1.92738,0.98375 3.41012,0.98375 h 1.98249 v 4.04176 h 3.00416 v -11.33772 h 6.94339 l -4.19956,11.33772 h 3.02008 l 0.73372,-2.12202 h 4.69775 l 0.74168,2.12202 h 3.02008 l -4.19955,-11.33772 h 6.94338 v 11.33772 h 3.00416 v -4.93936 h 4.43274 v 4.93936 h 3.00463 v -11.33772 l 6.41522,0.0651 h 0.006 c 2.10388,0 3.77214,-1.2458 4.8031,-2.9269 1.03096,-1.68111 1.533,-3.81324 1.56436,-5.94605 0.0314,-2.13283 -0.40805,-4.27416 -1.42998,-5.9676 -1.02191,-1.69344 -2.73761,-2.93205 -4.93748,-2.93205 h -0.006 l -7.61155,0.0796 H 14.316649 v 0.03 c -1.284086,-0.0887 -2.25155,-0.7985 -3.004632,-2.0265 -0.804273,-1.31148 -1.269724,-3.16868 -1.296997,-5.02598 -0.0273,-1.85729 0.383789,-3.7053 1.167766,-5.00444 0.783968,-1.29914 1.828582,-2.05647 3.387176,-2.05647 l 7.606396,0.0796 h 0.509903 l 4.233736,6.42927 v 4.90845 h 3.004632 v -4.90845 l 4.233736,-6.42927 h 3.99728 l -4.199556,11.33772 h 3.020085 l 0.733715,-2.12248 h 4.697753 l 0.741207,2.12248 h 3.020084 L 41.969845,188.5514 H 52.3889 c -0.09062,0.022 -0.178441,0.0449 -0.260804,0.0693 -0.868831,0.24973 -1.612945,0.67665 -2.232053,1.28014 -0.546267,0.52547 -0.95206,1.13139 -1.217397,1.81814 -0.265328,0.68674 -0.397996,1.46437 -0.397996,2.33319 0,0.87924 0.132668,1.66513 0.397996,2.35707 0.265337,0.68674 0.67113,1.29267 1.217397,1.81814 0.6243,0.60349 1.373475,1.0327 2.247504,1.28763 0.874033,0.24972 2.185077,0.37458 3.933132,0.37458 h 3.168514 v -11.33772 h 4.133065 v 11.33772 h 3.004166 v -4.93982 h 4.432733 v 4.93982 h 3.004631 v -11.33772 h 2.751321 v 1.95767 h 3.862898 v 9.38005 h 3.004631 v -9.38005 h 3.870857 v -1.95767 h 4.377483 c -0.367171,0.11911 -0.680475,0.27232 -0.93927,0.45934 -0.71795,0.51505 -1.076929,1.32894 -1.076929,2.44228 0,0.76998 0.187284,1.40209 0.561876,1.89633 0.369374,0.49424 0.928503,0.85874 1.677669,1.09285 -0.410998,0.0937 -0.777785,0.30665 -1.10034,0.63961 -0.327766,0.32776 -0.65781,0.8272 -0.990777,1.49833 l -1.631311,3.30898 h 3.199882 l 1.420142,-2.89506 c 0.286142,-0.5827 0.577634,-0.98068 0.874187,-1.19399 0.291332,-0.2133 0.681532,-0.32027 1.170575,-0.32027 h 0.850304 v 4.40932 h 3.004634 v -11.33772 h 4.14102 v 11.33772 h 3.00417 v -11.33772 h 6.27194 c -0.35833,0.11078 -0.66278,0.25043 -0.91352,0.42 -0.72836,0.48904 -1.09285,1.27218 -1.09285,2.34911 0,0.56708 0.13266,1.05092 0.398,1.45152 0.26532,0.39539 0.65048,0.68919 1.15512,0.88167 -0.64511,0.1873 -1.14457,0.53342 -1.49833,1.03807 -0.35378,0.50465 -0.53051,1.12391 -0.53051,1.85747 0,1.12375 0.37964,1.96104 1.1392,2.51252 0.75959,0.55147 1.91455,0.82736 3.4649,0.82736 h 4.98666 v -11.33772 h 9.47884 l 4.23421,6.42927 v 4.90845 h 3.00416 v -4.90845 l 4.23421,-6.42927 h 4.33627 c -0.47901,0.16264 -0.89169,0.38818 -1.238,0.67753 -0.79599,0.65552 -1.19398,1.59198 -1.19398,2.80938 0,1.2226 0.39799,2.16458 1.19398,2.8253 0.79079,0.65552 1.92786,0.98328 3.41059,0.98328 h 1.98202 v 4.04223 h 3.00463 v -11.33772 h 5.75314 c -0.47901,0.16264 -0.89168,0.38818 -1.238,0.67753 -0.79597,0.65552 -1.19399,1.59198 -1.19399,2.80938 0,1.2226 0.39802,2.16458 1.19399,2.8253 0.79079,0.65552 1.92738,0.98328 3.41012,0.98328 h 1.98249 v 4.04223 h 3.00416 v -11.33772 h 6.94339 l -4.19956,11.33772 h 3.02008 l 0.73372,-2.12249 h 4.69775 l 0.74168,2.12249 h 3.02008 l -4.19955,-11.33772 h 6.94338 v 11.33772 h 3.00416 v -4.93982 h 4.43274 v 4.93982 h 3.00463 v -11.33772 l 6.41522,0.0646 h 0.006 c 2.10388,0 3.77214,-1.2458 4.8031,-2.92691 1.03096,-1.68111 1.533,-3.81324 1.56436,-5.94605 0.0314,-2.13282 -0.40805,-4.27415 -1.42998,-5.96759 -1.02191,-1.69345 -2.73761,-2.93206 -4.93748,-2.93206 h -0.006 l -7.61155,0.0801 H 14.316649 v 0.03 c -1.284086,-0.0887 -2.25155,-0.79849 -3.004632,-2.0265 -0.804273,-1.31148 -1.269724,-3.16868 -1.296997,-5.02598 -0.0273,-1.85729 0.383789,-3.7053 1.167766,-5.00444 0.783968,-1.29913 1.828582,-2.05647 3.387176,-2.05647 l 7.606396,0.0796 h 0.509903 l 4.233736,6.42927 v 4.90846 h 3.004632 v -4.90846 l 4.233736,-6.42927 h 3.99728 l -4.199556,11.33773 h 3.020085 l 0.733715,-2.12249 h 4.697753 l 0.741207,2.12249 h 3.020084 L 41.969845,156.92017 H 52.3889 c -0.09062,0.022 -0.178441,0.0445 -0.260804,0.0688 -0.868831,0.24972 -1.612945,0.67665 -2.232053,1.28014 -0.546267,0.52547 -0.95206,1.13141 -1.217397,1.81814 -0.265328,0.68674 -0.397996,1.46438 -0.397996,2.33319 0,0.87924 0.132668,1.66514 0.397996,2.35707 0.265337,0.68675 0.67113,1.29267 1.217397,1.81814 0.6243,0.60349 1.373475,1.03271 2.247504,1.28763 0.874033,0.24973 2.185077,0.37459 3.933132,0.37459 h 3.168514 v -11.33773 h 4.133065 v 11.33773 h 3.004166 v -4.93983 h 4.432733 v 4.93983 h 3.004631 v -11.33773 h 2.751321 v 1.95767 h 3.862898 v 9.38006 h 3.004631 v -9.38028 h 3.870857 v -1.95767 h 4.377483 c -0.367171,0.11912 -0.680475,0.27232 -0.93927,0.45934 -0.71795,0.51505 -1.076929,1.32894 -1.076929,2.44228 0,0.76998 0.187284,1.40209 0.561876,1.89634 0.369374,0.49424 0.928503,0.85873 1.677669,1.09284 -0.410998,0.0936 -0.777785,0.30665 -1.10034,0.63961 -0.327766,0.32776 -0.65781,0.8272 -0.990777,1.49833 l -1.631311,3.30899 h 3.199882 l 1.420142,-2.89507 c 0.286142,-0.58269 0.577634,-0.98068 0.874187,-1.19399 0.291332,-0.2133 0.681532,-0.32027 1.170575,-0.32027 h 0.850304 v 4.40933 h 3.004634 v -11.33773 h 4.14102 v 11.33773 h 3.00417 v -11.33773 h 6.27194 c -0.35833,0.11078 -0.66278,0.25043 -0.91352,0.42001 -0.72836,0.48904 -1.09285,1.27217 -1.09285,2.34911 0,0.56708 0.13266,1.05092 0.398,1.45151 0.26532,0.39539 0.65048,0.68919 1.15512,0.88168 -0.64511,0.18729 -1.14457,0.53341 -1.49833,1.03806 -0.35378,0.50465 -0.53051,1.12392 -0.53051,1.85747 0,1.12376 0.37964,1.96105 1.1392,2.51252 0.75959,0.55147 1.91455,0.82737 3.4649,0.82737 h 4.98666 v -11.33773 h 9.47884 l 4.23421,6.42927 v 4.90846 h 3.00416 v -4.90846 l 4.23421,-6.42927 h 4.33627 c -0.47901,0.16264 -0.89169,0.38819 -1.238,0.67753 -0.79599,0.65553 -1.19398,1.59198 -1.19398,2.80938 0,1.2226 0.39799,2.16458 1.19398,2.8253 0.79079,0.65552 1.92786,0.98329 3.41059,0.98329 h 1.98202 v 4.04223 h 3.00463 v -11.33773 h 5.75314 c -0.47901,0.16264 -0.89168,0.38819 -1.238,0.67753 -0.79598,0.65553 -1.19399,1.59198 -1.19399,2.80938 0,1.2226 0.39801,2.16458 1.19399,2.8253 0.79079,0.65552 1.92738,0.98329 3.41012,0.98329 h 1.98249 v 4.04223 h 3.00416 v -11.33773 h 6.94339 l -4.19956,11.33773 h 3.02008 l 0.73372,-2.12249 h 4.69775 l 0.74168,2.12249 h 3.02008 l -4.19955,-11.33773 h 6.94338 v 11.33773 h 3.00416 v -4.93983 h 4.43274 v 4.93983 h 3.00463 v -11.33773 l 6.41522,0.0651 h 0.006 c 2.10388,0 3.77214,-1.2458 4.8031,-2.92691 1.03096,-1.6811 1.533,-3.81324 1.56436,-5.94605 0.0314,-2.13282 -0.40805,-4.27416 -1.42998,-5.96759 -1.02191,-1.69346 -2.73761,-2.93206 -4.93748,-2.93206 l -0.006,-4.7e-4 -7.61155,0.0796 H 14.316649 v 0.03 c -1.284087,-0.0887 -2.25155,-0.79851 -3.004632,-2.0265 -0.804273,-1.31148 -1.269724,-3.16869 -1.296997,-5.02598 -0.0273,-1.8573 0.383789,-3.70531 1.167766,-5.00444 0.783968,-1.29914 1.828582,-2.05647 3.387176,-2.05647 l 7.606396,0.0796 h 0.509903 l 4.233736,6.42926 v 4.90846 h 3.004632 v -4.90846 l 4.233736,-6.42926 h 3.99728 l -4.199556,11.33772 h 3.020085 l 0.733715,-2.12249 h 4.697753 l 0.741207,2.12249 h 3.020084 L 41.969845,125.28775 H 52.3889 c -0.09062,0.022 -0.178441,0.0445 -0.260804,0.0688 -0.868831,0.24971 -1.612945,0.67664 -2.232053,1.28014 -0.546267,0.52545 -0.95206,1.13139 -1.217397,1.81814 -0.265328,0.68673 -0.397996,1.46436 -0.397996,2.33319 0,0.87923 0.132668,1.66513 0.397996,2.35706 0.265337,0.68675 0.67113,1.29268 1.217397,1.81814 0.6243,0.6035 1.373475,1.03271 2.247504,1.28764 0.874033,0.24972 2.185077,0.37458 3.933132,0.37458 h 3.168514 v -11.33772 h 4.133065 v 11.33772 h 3.004166 v -4.93983 h 4.432733 v 4.93983 h 3.004631 v -11.33772 h 2.751321 v 1.95767 h 3.862898 v 9.38005 h 3.004631 v -9.38005 h 3.870857 v -1.95767 h 4.377483 c -0.367171,0.11911 -0.680475,0.27232 -0.93927,0.45933 -0.71795,0.51505 -1.076929,1.32894 -1.076929,2.44229 0,0.76998 0.187284,1.40209 0.561876,1.89633 0.369374,0.49425 0.928503,0.85874 1.677669,1.09285 -0.410998,0.0936 -0.777785,0.30664 -1.10034,0.6396 -0.327766,0.32776 -0.65781,0.8272 -0.990777,1.49834 l -1.631311,3.30898 h 3.199882 l 1.420142,-2.89507 c 0.286142,-0.58269 0.577634,-0.98067 0.874187,-1.19398 0.291334,-0.2133 0.681532,-0.32027 1.170575,-0.32027 h 0.850304 v 4.40932 h 3.004634 v -11.33772 h 4.14102 v 11.33772 h 3.00417 v -11.33772 h 6.27194 c -0.35833,0.11078 -0.66278,0.25043 -0.91352,0.42 -0.72836,0.48904 -1.09285,1.27219 -1.09285,2.34911 0,0.56709 0.13266,1.05092 0.398,1.45151 0.26532,0.3954 0.65048,0.68918 1.15512,0.88168 -0.64511,0.1873 -1.14457,0.53342 -1.49833,1.03807 -0.35378,0.50465 -0.53051,1.12391 -0.53051,1.85746 0,1.12376 0.37964,1.96105 1.1392,2.51253 0.75959,0.55146 1.91454,0.82736 3.4649,0.82736 h 4.98666 v -11.33772 h 9.47884 l 4.23421,6.42926 v 4.90846 h 3.00416 v -4.90846 l 4.23421,-6.42926 h 4.33627 c -0.47901,0.16263 -0.89169,0.38818 -1.238,0.67753 -0.79599,0.65552 -1.19398,1.59199 -1.19398,2.80938 0,1.2226 0.39799,2.16457 1.19398,2.8253 0.79079,0.65552 1.92786,0.98328 3.41059,0.98328 h 1.98202 v 4.04223 h 3.00463 v -11.33772 h 5.75314 c -0.47901,0.16263 -0.89168,0.38818 -1.238,0.67753 -0.79597,0.65552 -1.19399,1.59199 -1.19399,2.80938 0,1.2226 0.39802,2.16457 1.19399,2.8253 0.79079,0.65552 1.92738,0.98328 3.41012,0.98328 h 1.98249 v 4.04223 h 3.00416 v -11.33772 h 6.94339 l -4.19956,11.33772 h 3.02008 l 0.73372,-2.12249 h 4.69775 l 0.74168,2.12249 h 3.02008 l -4.19955,-11.33772 h 6.94338 v 11.33772 h 3.00416 v -4.93983 h 4.43274 v 4.93983 h 3.00463 v -11.33772 l 6.41522,0.0651 h 0.006 c 2.10388,0 3.77214,-1.2458 4.8031,-2.9269 1.03096,-1.68111 1.533,-3.81324 1.56436,-5.94606 0.0314,-2.13282 -0.40805,-4.27415 -1.42998,-5.96759 -1.02191,-1.69345 -2.73761,-2.93206 -4.93748,-2.93206 h -0.006 l -7.61155,0.0796 H 14.316649 v 0.03 c -1.284086,-0.0887 -2.25155,-0.7985 -3.004632,-2.0265 -0.804273,-1.31148 -1.269724,-3.16869 -1.296997,-5.02598 -0.0273,-1.857301 0.383789,-3.705301 1.167766,-5.004444 0.783968,-1.299197 1.828582,-2.056525 3.387176,-2.056525 l 7.606396,0.0796 h 0.509903 l 4.233736,6.429269 v 4.90845 h 3.004632 v -4.90845 l 4.233736,-6.429269 h 3.99728 l -4.199556,11.337719 h 3.020085 l 0.733715,-2.12249 h 4.697753 l 0.741207,2.12249 h 3.020084 L 41.969845,93.655959 H 52.3889 c -0.09062,0.02202 -0.178441,0.04492 -0.260804,0.0693 -0.868831,0.249716 -1.612945,0.676646 -2.232053,1.280142 -0.546267,0.525463 -0.95206,1.130932 -1.217397,1.817668 -0.265328,0.68674 -0.397996,1.46437 -0.397996,2.33319 0,0.879231 0.132668,1.665131 0.397996,2.357071 0.265337,0.68674 0.67113,1.29314 1.217397,1.8186 0.6243,0.6035 1.373475,1.03224 2.247504,1.28717 0.874033,0.24972 2.185077,0.37458 3.933132,0.37458 h 3.168514 V 93.655959 h 4.133065 v 11.337721 h 3.004166 v -4.93936 h 4.432733 v 4.93936 h 3.004631 V 93.655959 h 2.751321 v 1.957671 h 3.862898 v 9.38005 h 3.004631 v -9.38005 h 3.870857 v -1.957671 h 4.377483 c -0.367171,0.119115 -0.680475,0.272786 -0.93927,0.459803 -0.71795,0.515051 -1.076929,1.32894 -1.076929,2.442287 0,0.76998 0.187284,1.40162 0.561876,1.89586 0.369374,0.49425 0.928503,0.85874 1.677669,1.09285 -0.410998,0.0937 -0.777785,0.30664 -1.10034,0.639601 -0.327766,0.32777 -0.65781,0.82767 -0.990777,1.49881 l -1.631311,3.30851 h 3.199882 l 1.420142,-2.8946 c 0.286142,-0.58269 0.577634,-0.98067 0.874187,-1.19398 0.291334,-0.21331 0.681532,-0.32074 1.170575,-0.32074 h 0.850304 v 4.40932 H 98.70762 V 93.655959 h 4.14102 v 11.337721 h 3.00417 V 93.655959 h 6.27194 c -0.35833,0.110779 -0.66278,0.250899 -0.91352,0.420472 -0.72836,0.489038 -1.09285,1.272181 -1.09285,2.349108 0,0.56708 0.13266,1.05045 0.398,1.45105 0.26532,0.39539 0.65048,0.68918 1.15512,0.88167 -0.64511,0.1873 -1.14457,0.53389 -1.49833,1.03854 -0.35378,0.504651 -0.53051,1.123431 -0.53051,1.857001 0,1.12375 0.37964,1.96151 1.1392,2.51299 0.75959,0.55146 1.91454,0.82689 3.4649,0.82689 h 4.98666 V 93.655959 h 9.47884 l 4.23421,6.429271 v 4.90845 h 3.00416 v -4.90845 l 4.23421,-6.429271 h 4.33627 c -0.47901,0.162633 -0.89169,0.38865 -1.238,0.677999 -0.79599,0.655521 -1.19398,1.591518 -1.19398,2.808911 0,1.2226 0.39799,2.16458 1.19398,2.8253 0.79079,0.655521 1.92786,0.983751 3.41059,0.983751 h 1.98202 v 4.04176 h 3.00463 V 93.655959 h 5.75314 c -0.47901,0.162633 -0.89168,0.38865 -1.238,0.677999 -0.79598,0.655521 -1.19399,1.591518 -1.19399,2.808911 0,1.2226 0.39801,2.16458 1.19399,2.8253 0.79079,0.655521 1.92738,0.983751 3.41012,0.983751 h 1.98249 v 4.04176 h 3.00416 V 93.655959 h 6.94339 l -4.19956,11.337721 h 3.02008 l 0.73372,-2.12202 h 4.69775 l 0.74168,2.12202 h 3.02008 l -4.19955,-11.337721 h 6.94338 v 11.337721 h 3.00416 v -4.93936 h 4.43274 v 4.93936 h 3.00463 V 93.655959 l 6.41522,0.06509 h 0.006 c 2.10388,0 3.77214,-1.245803 4.8031,-2.926907 1.03096,-1.681105 1.533,-3.813239 1.56436,-5.946052 0.0314,-2.132818 -0.40805,-4.274149 -1.42998,-5.967592 -1.02191,-1.693449 -2.73761,-2.932057 -4.93748,-2.932057 h -0.006 l -7.61155,0.0796 H 14.316649 v 0.02997 c -1.284087,-0.0887 -2.25155,-0.798504 -3.004632,-2.026507 -0.804273,-1.311478 -1.269724,-3.168686 -1.296997,-5.025982 -0.0273,-1.857295 0.383789,-3.705306 1.167766,-5.004443 0.783968,-1.299134 1.828582,-2.056465 3.387176,-2.056465 l 7.606396,0.0796 h 0.509903 l 4.233736,6.429266 v 4.908456 h 3.004632 v -4.908457 l 4.233736,-6.429266 h 3.99728 l -4.199556,11.337722 h 3.020085 l 0.733715,-2.122488 h 4.697753 l 0.741207,2.122488 h 3.020084 L 41.969845,62.024213 H 52.3889 c -0.09062,0.022 -0.178441,0.04451 -0.260804,0.06883 -0.868831,0.249723 -1.612945,0.676644 -2.232053,1.28014 -0.546267,0.52546 -0.95206,1.131397 -1.217397,1.818138 -0.265328,0.686737 -0.397996,1.464366 -0.397996,2.33319 0,0.879236 0.132668,1.665131 0.397996,2.35707 0.265337,0.686739 0.67113,1.292675 1.217397,1.818136 0.6243,0.603498 1.373475,1.032708 2.247504,1.287634 0.874033,0.249723 2.185077,0.374584 3.933132,0.374584 h 3.168514 V 62.024213 h 4.133065 v 11.337722 h 3.004166 v -4.939827 h 4.432733 v 4.939827 h 3.004631 V 62.024213 h 2.751321 v 1.957668 h 3.862898 v 9.380054 h 3.004631 v -9.380054 h 3.870857 v -1.957668 h 4.377483 c -0.367171,0.119109 -0.680475,0.272318 -0.93927,0.459332 -0.71795,0.515056 -1.076929,1.32894 -1.076929,2.442288 0,0.769977 0.187284,1.40209 0.561876,1.896332 0.369374,0.494245 0.928503,0.858732 1.677669,1.092848 -0.410998,0.09365 -0.777785,0.306639 -1.10034,0.639603 -0.327766,0.327759 -0.65781,0.827204 -0.990777,1.498336 l -1.631311,3.308983 h 3.199882 l 1.420142,-2.895066 c 0.286142,-0.582687 0.577634,-0.980679 0.874187,-1.193987 0.291332,-0.213303 0.681532,-0.32027 1.170575,-0.32027 h 0.850304 v 4.409323 H 98.70762 V 62.024213 h 4.14102 v 11.337722 h 3.00417 V 62.024213 h 6.27194 c -0.35833,0.110774 -0.66278,0.250433 -0.91352,0.420001 -0.72836,0.489043 -1.09285,1.272181 -1.09285,2.349111 0,0.56708 0.13266,1.050918 0.398,1.451514 0.26532,0.395395 0.65048,0.689181 1.15512,0.881676 -0.64511,0.187294 -1.14457,0.533419 -1.49833,1.038066 -0.35378,0.504649 -0.53051,1.12391 -0.53051,1.857469 0,1.123755 0.37964,1.961049 1.1392,2.512523 0.75959,0.551464 1.91454,0.827362 3.4649,0.827362 h 4.98666 V 62.024213 h 9.47884 l 4.23421,6.429266 v 4.908456 h 3.00416 v -4.908456 l 4.23421,-6.429266 h 4.33627 c -0.47901,0.162635 -0.89169,0.388182 -1.238,0.677528 -0.79599,0.655523 -1.19398,1.591983 -1.19398,2.80938 0,1.222602 0.39799,2.164576 1.19398,2.825301 0.79079,0.655521 1.92786,0.983283 3.41059,0.983283 h 1.98202 v 4.04223 h 3.00463 V 62.024213 h 5.75314 c -0.47901,0.162635 -0.89168,0.388182 -1.238,0.677528 -0.79598,0.655523 -1.19398,1.591983 -1.19399,2.80938 0,1.222602 0.39801,2.164576 1.19399,2.825301 0.79079,0.655521 1.92738,0.983283 3.41012,0.983283 h 1.98249 v 4.04223 h 3.00416 V 62.024213 h 6.94339 l -4.19956,11.337722 h 3.02008 l 0.73372,-2.122488 h 4.69775 l 0.74168,2.122488 h 3.02008 l -4.19955,-11.337722 h 6.94338 v 11.337722 h 3.00416 v -4.939827 h 4.43274 v 4.939827 h 3.00463 V 62.024213 l 6.41522,0.06508 h 0.006 c 2.10388,0 3.77214,-1.245798 4.8031,-2.926905 1.03096,-1.681107 1.533,-3.813239 1.56436,-5.946054 0.0314,-2.132816 -0.40805,-4.274147 -1.42998,-5.96759 -1.02191,-1.693448 -2.73761,-2.932057 -4.93748,-2.932057 h -0.006 l -7.61155,0.0796 H 14.316649 v 0.02997 c -1.284087,-0.0887 -2.25155,-0.798499 -3.004632,-2.026502 -0.804273,-1.311478 -1.269724,-3.168684 -1.296997,-5.02598 -0.0273,-1.857294 0.383789,-3.705306 1.167766,-5.004443 0.783968,-1.299134 1.828582,-2.056467 3.387176,-2.056467 l 7.606396,0.0796 h 0.509903 l 4.233736,6.429264 v 4.908456 h 3.004632 v -4.908456 l 4.233736,-6.429264 h 3.99728 l -4.199556,11.33772 h 3.020085 l 0.733715,-2.122486 h 4.697753 l 0.741207,2.122486 h 3.020084 L 41.969845,30.392465 H 52.3889 c -0.09062,0.022 -0.178441,0.04451 -0.260804,0.06883 -0.868831,0.249716 -1.612945,0.676644 -2.232053,1.28014 -0.546267,0.525461 -0.95206,1.131397 -1.217397,1.818136 -0.265328,0.686737 -0.397996,1.464373 -0.397996,2.33319 0,0.879236 0.132668,1.665133 0.397996,2.357072 0.265337,0.686739 0.67113,1.292676 1.217397,1.818136 0.6243,0.603496 1.373473,1.032706 2.247504,1.287632 0.874033,0.249723 2.185077,0.374584 3.933132,0.374584 h 3.168514 v -11.33772 h 4.133065 v 11.33772 h 3.004166 V 36.79036 h 4.432733 v 4.939825 h 3.004631 v -11.33772 h 2.751321 v 1.957669 h 3.862898 v 9.380051 h 3.004631 v -9.380051 h 3.870857 v -1.957669 h 4.377483 c -0.367171,0.119109 -0.680475,0.272319 -0.93927,0.459332 -0.71795,0.515054 -1.076929,1.328941 -1.076929,2.442288 0,0.769977 0.187284,1.40209 0.561876,1.896333 0.369374,0.494244 0.928503,0.858731 1.677669,1.092848 -0.410998,0.09364 -0.777785,0.306638 -1.10034,0.639602 -0.327766,0.327759 -0.65781,0.827204 -0.990777,1.498336 l -1.631311,3.308981 h 3.199882 l 1.420142,-2.895066 c 0.286142,-0.582687 0.577634,-0.980679 0.874187,-1.193987 0.291332,-0.213303 0.681532,-0.320267 1.170575,-0.320267 h 0.850304 v 4.40932 h 3.004634 v -11.33772 h 4.14102 v 11.33772 h 3.00417 v -11.33772 h 6.27194 c -0.35833,0.110774 -0.66278,0.250433 -0.91352,0.420002 -0.72836,0.489042 -1.09285,1.272181 -1.09285,2.34911 0,0.567081 0.13266,1.050916 0.398,1.451511 0.26532,0.395396 0.65048,0.689185 1.15512,0.881679 -0.64511,0.187294 -1.14457,0.53342 -1.49833,1.038066 -0.35378,0.50465 -0.53051,1.123908 -0.53051,1.857467 0,1.123755 0.37964,1.961051 1.1392,2.512523 0.75958,0.551471 1.91454,0.827362 3.4649,0.827362 h 4.98666 v -11.33772 h 9.47884 l 4.23421,6.429264 v 4.908456 h 3.00416 v -4.908456 l 4.23421,-6.429264 h 4.33627 c -0.47901,0.162636 -0.89169,0.388182 -1.238,0.677529 -0.79599,0.655523 -1.19398,1.591983 -1.19398,2.80938 0,1.222601 0.39799,2.164573 1.19398,2.825298 0.79079,0.655521 1.92786,0.983285 3.41059,0.983285 h 1.98202 v 4.042228 h 3.00463 v -11.33772 h 5.75314 c -0.47901,0.162636 -0.89169,0.388182 -1.238,0.677529 -0.79599,0.655523 -1.19399,1.591983 -1.19399,2.80938 1e-5,1.222601 0.398,2.164573 1.19399,2.825298 0.79079,0.655521 1.92738,0.983285 3.41012,0.983285 h 1.98249 v 4.042228 h 3.00416 v -11.33772 h 6.94339 l -4.19956,11.33772 h 3.02008 l 0.73372,-2.122486 h 4.69775 l 0.74168,2.122486 h 3.02008 l -4.19955,-11.33772 h 6.94338 v 11.33772 h 3.00416 V 36.79036 h 4.43274 v 4.939825 h 3.00463 v -11.33772 l 6.41522,0.06508 h 0.006 c 2.10388,0 3.77214,-1.245798 4.8031,-2.926905 1.03096,-1.681106 1.533,-3.813239 1.56436,-5.946054 0.0314,-2.132816 -0.40805,-4.274148 -1.42998,-5.967591 -1.02191,-1.693448 -2.73761,-2.932057 -4.93748,-2.932057 z M 23.994964,14.576591 h 4.432733 v 4.12698 h -4.432733 z m 52.824773,0 h 4.905648 l -2.452589,3.838082 z m 66.090193,0 h 4.43274 v 4.12698 h -4.43274 z m 39.93581,0 h 4.90611 l -2.45305,3.838082 z m -85.349433,1.731047 h 1.662216 c 0.473434,0 0.832409,0.106966 1.076927,0.320269 0.24452,0.208103 0.36663,0.512451 0.36663,0.913049 0,0.405797 -0.12211,0.712436 -0.36663,0.92054 -0.244518,0.208102 -0.603493,0.312309 -1.076927,0.312309 h -1.662216 z m -45.359314,0.132977 h 1.662215 c 0.582685,0 1.03302,0.140471 1.350378,0.421407 0.317354,0.28094 0.47572,0.681223 0.47572,1.201478 0,0.520256 -0.158366,0.923766 -0.47572,1.209907 -0.317358,0.280939 -0.767693,0.421407 -1.350378,0.421407 h -1.662215 z m 12.912379,0 h 1.662216 c 0.582685,0 1.032553,0.140471 1.349907,0.421407 0.317358,0.28094 0.476191,0.681223 0.476191,1.201478 0,0.520256 -0.158833,0.923766 -0.476191,1.209907 -0.317354,0.280939 -0.767222,0.421407 -1.349907,0.421407 h -1.662216 z m 52.972728,0 h 1.26422 c 0.62952,0 1.07938,0.114301 1.34991,0.343213 0.27573,0.228912 0.41345,0.60854 0.41345,1.139203 0,0.535863 -0.13772,0.921007 -0.41345,1.155124 -0.27053,0.234115 -0.72039,0.351172 -1.34991,0.351172 h -1.26422 z m 39.46243,0.09365 h 1.07693 c 1.233,0 2.17176,0.301589 2.81687,0.905089 0.64512,0.603496 0.96783,1.482572 0.96783,2.63754 0,1.160169 -0.32501,2.044761 -0.97532,2.653459 -0.64512,0.608699 -1.58158,0.913048 -2.80938,0.913048 h -1.07693 z m -117.198438,0.46027 1.591981,4.635477 h -3.191456 z m 133.380468,0 1.59198,4.635477 h -3.19192 z M 97.496307,20.81857 h 1.763355 c 0.608706,0 1.064078,0.12715 1.365828,0.382076 0.30175,0.249724 0.45278,0.627064 0.45278,1.131711 0,0.515054 -0.1538,0.900198 -0.46074,1.155124 -0.30175,0.254925 -0.754369,0.382075 -1.357868,0.382075 h -1.763355 z m -71.523071,9.5739 h 4.906114 l -2.453057,3.83808 z m 40.409188,0 h 4.432733 v 4.126979 h -4.432733 z m 65.617286,0 h 4.90564 l -2.45305,3.83808 z m 53.29768,0 h 4.43274 v 4.126979 h -4.43274 z m -70.73082,1.731046 h 1.66221 v 2.466167 h -1.66221 c -0.47343,0 -0.83242,-0.104207 -1.07693,-0.31231 -0.24453,-0.208104 -0.36663,-0.514742 -0.36663,-0.92054 0,-0.400597 0.1221,-0.704944 0.36663,-0.913047 0.24451,-0.213303 0.6035,-0.32027 1.07693,-0.32027 z m -20.127805,0.132978 h 1.264221 v 2.98871 h -1.264221 c -0.62951,0 -1.079378,-0.117057 -1.349905,-0.351171 -0.27573,-0.234117 -0.413448,-0.619261 -0.413448,-1.155124 0,-0.530663 0.137718,-0.910291 0.413448,-1.139203 0.270527,-0.228912 0.720395,-0.343212 1.349905,-0.343212 z m 52.574735,0 h 1.66222 v 3.254195 h -1.66222 c -0.58268,0 -1.03255,-0.14047 -1.34991,-0.421409 -0.31735,-0.286142 -0.47618,-0.68965 -0.47619,-1.209905 0,-0.520256 0.15884,-0.92054 0.47619,-1.201479 0.31736,-0.280937 0.76723,-0.421406 1.34991,-0.421406 z m 12.91238,0 h 1.66222 v 3.254195 h -1.66222 c -0.58268,0 -1.03301,-0.14047 -1.35037,-0.421409 -0.31736,-0.286142 -0.47573,-0.68965 -0.47573,-1.209905 0,-0.520256 0.15837,-0.92054 0.47573,-1.201479 0.31736,-0.280937 0.76769,-0.421406 1.35037,-0.421406 z m -104.762248,0.09365 h 1.076929 v 7.109137 h -1.076929 c -1.227802,0 -2.164259,-0.304352 -2.809381,-0.91305 -0.650311,-0.608699 -0.975323,-1.49329 -0.975323,-2.65346 0,-1.154961 0.322711,-2.034043 0.967832,-2.637539 0.645111,-0.603499 1.583868,-0.905088 2.816872,-0.905088 z m -15.1051,0.460269 1.599942,4.635478 h -3.191926 z m 133.380468,0 1.59947,4.635478 h -3.19145 z m -58.97357,3.824037 h 1.76335 v 3.050986 h -1.76335 c -0.6035,0 -1.05613,-0.12715 -1.35787,-0.382076 -0.30694,-0.254925 -0.46074,-0.64007 -0.46074,-1.155123 0,-0.504647 0.15104,-0.881988 0.45278,-1.131714 0.30175,-0.254919 0.75712,-0.382073 1.36583,-0.382073 z m -90.470466,9.573897 h 4.432733 v 4.126972 h -4.432733 z m 52.824773,0 h 4.905648 l -2.452589,3.838083 z m 66.090193,0 h 4.43274 v 4.126981 h -4.43274 z m 39.93581,0 h 4.90611 l -2.45305,3.838083 z m -85.349433,1.731046 h 1.662216 c 0.473434,0 0.832409,0.106967 1.076927,0.32027 0.24452,0.208103 0.36663,0.51245 0.36663,0.91305 0,0.405795 -0.12211,0.712436 -0.36663,0.920539 -0.244518,0.208104 -0.603493,0.312309 -1.076927,0.312309 h -1.662216 z m -45.359314,0.132978 h 1.662215 c 0.582685,0 1.03302,0.140477 1.350378,0.421406 0.317354,0.280942 0.47572,0.681223 0.47572,1.201479 0,0.520256 -0.158366,0.923766 -0.47572,1.209907 -0.317358,0.28094 -0.767693,0.421407 -1.350378,0.421407 h -1.662215 z m 12.912379,0 h 1.662216 c 0.582685,0 1.032553,0.140477 1.349907,0.421406 0.317358,0.280942 0.476191,0.681223 0.476191,1.201479 0,0.520256 -0.158833,0.923766 -0.476191,1.209907 -0.317354,0.28094 -0.767222,0.421407 -1.349907,0.421407 h -1.662216 z m 52.972728,0 h 1.26422 c 0.62952,0 1.07938,0.1143 1.34991,0.343212 0.27573,0.228912 0.41345,0.60854 0.41345,1.139206 0,0.535862 -0.13772,0.921006 -0.41345,1.155123 -0.27053,0.234115 -0.72039,0.351172 -1.34991,0.351172 h -1.26422 z m 39.46243,0.09365 h 1.07693 c 1.233,0 2.17176,0.301588 2.81687,0.905089 0.64512,0.603496 0.96783,1.482571 0.96783,2.637538 0,1.16017 -0.32501,2.044762 -0.97532,2.65346 -0.64512,0.608699 -1.58157,0.913048 -2.80938,0.913048 h -1.07693 z m -117.198438,0.46027 1.591981,4.635478 h -3.191456 z m 133.380468,0 1.59198,4.635478 h -3.19192 z m -76.170253,3.824034 h 1.763355 c 0.608706,0 1.064078,0.12715 1.365828,0.382076 0.30174,0.249723 0.45278,0.627064 0.45278,1.131711 0,0.515056 -0.15379,0.900198 -0.46074,1.155123 -0.30175,0.254926 -0.754369,0.382076 -1.357868,0.382076 h -1.763355 z m -71.523071,9.5739 h 4.906114 l -2.453057,3.83808 z m 40.409188,0 h 4.432733 v 4.126978 h -4.432733 z m 65.617286,0 h 4.90564 l -2.45305,3.83808 z m 53.29768,0 h 4.43274 v 4.126978 h -4.43274 z m -70.73082,1.731045 h 1.66221 v 2.466168 h -1.66221 c -0.47343,0 -0.83242,-0.104205 -1.07693,-0.312308 -0.24453,-0.208104 -0.36663,-0.514745 -0.36663,-0.920542 0,-0.400598 0.1221,-0.704944 0.36663,-0.913048 0.24451,-0.213303 0.6035,-0.32027 1.07693,-0.32027 z m -20.127805,0.132978 h 1.264221 v 2.988713 h -1.264221 c -0.62951,0 -1.079378,-0.117059 -1.349905,-0.351174 -0.27573,-0.234116 -0.413448,-0.619261 -0.413448,-1.155123 0,-0.530663 0.137718,-0.910291 0.413448,-1.139203 0.270527,-0.228912 0.720395,-0.343213 1.349905,-0.343213 z m 52.574735,0 h 1.66222 v 3.254199 h -1.66222 c -0.58268,0 -1.03254,-0.140472 -1.34991,-0.421406 -0.31735,-0.286144 -0.47618,-0.689652 -0.47619,-1.209908 0,-0.520256 0.15884,-0.920539 0.47619,-1.201478 0.31737,-0.280937 0.76723,-0.421407 1.34991,-0.421407 z m 12.91238,0 h 1.66222 v 3.254199 h -1.66222 c -0.58268,0 -1.03301,-0.140472 -1.35037,-0.421406 -0.31736,-0.286144 -0.47573,-0.689652 -0.47573,-1.209908 0,-0.520256 0.15837,-0.920539 0.47573,-1.201478 0.31736,-0.280937 0.76769,-0.421407 1.35037,-0.421407 z m -104.762248,0.09365 h 1.076929 v 7.109137 h -1.076929 c -1.227802,0 -2.164259,-0.304349 -2.809381,-0.913047 -0.650311,-0.608699 -0.975323,-1.49329 -0.975323,-2.65346 0,-1.154968 0.322711,-2.034043 0.967832,-2.637541 0.645111,-0.603499 1.583868,-0.905089 2.816872,-0.905089 z m -15.1051,0.460272 1.599942,4.635476 h -3.191926 z m 133.380468,0 1.59947,4.635476 h -3.19145 z m -58.97357,3.824034 h 1.76335 v 3.050987 h -1.76335 c -0.6035,0 -1.05613,-0.12715 -1.35787,-0.382076 -0.30694,-0.254926 -0.46074,-0.64007 -0.46074,-1.155124 0,-0.504647 0.15104,-0.881985 0.45278,-1.131711 0.30175,-0.254926 0.75712,-0.382076 1.36583,-0.382076 z m -90.470466,9.573898 h 4.432733 v 4.126981 h -4.432733 z m 52.824773,0 h 4.905648 l -2.452589,3.838082 z m 66.090193,0 h 4.43274 v 4.126981 h -4.43274 z m 39.93581,0 h 4.90611 l -2.45305,3.838082 z M 97.496307,79.57115 h 1.662216 c 0.473434,0 0.832409,0.106967 1.076927,0.32027 0.24452,0.208098 0.36663,0.51245 0.36663,0.913048 0,0.405797 -0.12211,0.712436 -0.36663,0.920539 -0.244518,0.208103 -0.603493,0.312311 -1.076927,0.312311 h -1.662216 z m -45.359314,0.132959 h 1.662215 c 0.582685,0 1.03302,0.140472 1.350378,0.421408 0.317354,0.28094 0.47572,0.681223 0.47572,1.201479 0,0.520256 -0.158366,0.923764 -0.47572,1.209905 -0.317358,0.280939 -0.767693,0.421406 -1.350378,0.421406 h -1.662215 z m 12.912379,0 h 1.662216 c 0.582685,0 1.032553,0.140472 1.349907,0.421408 0.317358,0.28094 0.476191,0.681223 0.476191,1.201479 0,0.520256 -0.158833,0.923764 -0.476191,1.209905 -0.317354,0.280939 -0.767222,0.421406 -1.349907,0.421406 h -1.662216 z m 52.972728,0 h 1.26422 c 0.62952,0 1.07938,0.114302 1.34991,0.343214 0.27573,0.228913 0.41345,0.608541 0.41345,1.139203 0,0.535863 -0.13772,0.921007 -0.41345,1.155124 -0.27053,0.234114 -0.72039,0.351171 -1.34991,0.351171 h -1.26422 z m 39.46243,0.09365 h 1.07693 c 1.233,0 2.17176,0.30159 2.81687,0.905088 0.64512,0.603496 0.96783,1.482571 0.96783,2.637539 0,1.16017 -0.32501,2.044761 -0.97532,2.65346 -0.64512,0.608698 -1.58157,0.91305 -2.80938,0.91305 h -1.07693 z m -117.198438,0.460269 1.591981,4.635478 h -3.191456 z m 133.380468,0 1.59198,4.635478 h -3.19192 z m -76.170253,3.824031 h 1.763355 c 0.608706,0 1.064078,0.12715 1.365828,0.382076 0.30174,0.249726 0.45278,0.627067 0.45278,1.131714 0,0.515053 -0.15379,0.900198 -0.46074,1.155123 -0.30175,0.254926 -0.754369,0.382076 -1.357868,0.382076 h -1.763355 z m -71.523071,9.5739 h 4.906114 l -2.453057,3.83808 z m 40.409188,0 h 4.432733 v 4.12698 h -4.432733 z m 65.617286,0 h 4.90564 l -2.45305,3.83808 z m 53.29768,0 h 4.43274 v 4.12698 h -4.43274 z m -70.73082,1.731046 h 1.66221 v 2.466164 h -1.66221 c -0.47343,0 -0.83242,-0.1042 -1.07693,-0.3123 -0.24453,-0.20811 -0.36663,-0.51475 -0.36663,-0.92055 0,-0.400599 0.1221,-0.704943 0.36663,-0.913044 0.24451,-0.21331 0.6035,-0.32027 1.07693,-0.32027 z m -20.127805,0.132978 h 1.264221 v 2.988716 h -1.264221 c -0.62951,0 -1.079378,-0.11706 -1.349905,-0.35118 -0.27573,-0.23411 -0.413448,-0.61926 -0.413448,-1.15512 0,-0.53065 0.137718,-0.910291 0.413448,-1.139204 0.270527,-0.228912 0.720395,-0.343212 1.349905,-0.343212 z m 52.574735,0 h 1.66222 v 3.254196 h -1.66222 c -0.58268,0 -1.03254,-0.14046 -1.34991,-0.4214 -0.31735,-0.28614 -0.47618,-0.68965 -0.47619,-1.20991 0,-0.52025 0.15884,-0.92054 0.47619,-1.20148 0.31737,-0.280939 0.76723,-0.421406 1.34991,-0.421406 z m 12.91238,0 h 1.66222 v 3.254196 h -1.66222 c -0.58268,0 -1.03301,-0.14046 -1.35037,-0.4214 -0.31736,-0.28614 -0.47573,-0.68965 -0.47573,-1.20991 0,-0.52025 0.15837,-0.92054 0.47573,-1.20148 0.31736,-0.280939 0.76769,-0.421406 1.35037,-0.421406 z m -104.762248,0.09365 h 1.076929 v 7.109137 h -1.076929 c -1.227802,0 -2.164259,-0.30435 -2.809381,-0.91305 -0.650311,-0.6087 -0.975323,-1.49329 -0.975323,-2.653461 0,-1.15496 0.322711,-2.03405 0.967832,-2.63754 0.645111,-0.603503 1.583868,-0.905086 2.816872,-0.905086 z m -15.1051,0.46027 1.599942,4.635477 h -3.191926 z m 133.380468,0 1.59947,4.635477 h -3.19145 z m -58.97357,3.824036 h 1.76335 v 3.050981 h -1.76335 c -0.6035,0 -1.05613,-0.12715 -1.35787,-0.38207 -0.30694,-0.25493 -0.46074,-0.64006 -0.46074,-1.15513 0,-0.50464 0.15104,-0.88198 0.45278,-1.13171 0.30175,-0.25492 0.75712,-0.382071 1.36583,-0.382071 z m -90.470466,9.573901 h 4.432733 v 4.12697 h -4.432733 z m 52.824773,0 h 4.905648 l -2.452589,3.83808 z m 66.090193,0 h 4.43274 v 4.12697 h -4.43274 z m 39.93581,0 h 4.90611 l -2.45305,3.83808 z m -85.349433,1.73104 h 1.662216 c 0.473434,0 0.832409,0.10697 1.076927,0.32027 0.24452,0.2081 0.36663,0.51245 0.36663,0.91305 0,0.4058 -0.12211,0.71243 -0.36663,0.92054 -0.244518,0.2081 -0.603493,0.31231 -1.076927,0.31231 h -1.662216 z m -45.359314,0.13298 h 1.662215 c 0.582685,0 1.03302,0.14048 1.350378,0.4214 0.317354,0.28094 0.47572,0.68123 0.47572,1.20148 0,0.52026 -0.158366,0.92377 -0.47572,1.20991 -0.317358,0.28094 -0.767693,0.42141 -1.350378,0.42141 h -1.662215 z m 12.912379,0 h 1.662216 c 0.582685,0 1.032553,0.14048 1.349907,0.4214 0.317358,0.28094 0.476191,0.68123 0.476191,1.20148 0,0.52026 -0.158833,0.92377 -0.476191,1.20991 -0.317354,0.28094 -0.767222,0.42141 -1.349907,0.42141 h -1.662216 z m 52.972728,0 h 1.26422 c 0.62952,0 1.07938,0.1143 1.34991,0.34321 0.27573,0.22891 0.41345,0.60854 0.41345,1.1392 0,0.53587 -0.13772,0.92101 -0.41345,1.15513 -0.27053,0.23411 -0.72039,0.35117 -1.34991,0.35117 h -1.26422 z m 39.46243,0.0936 h 1.07693 c 1.233,0 2.17176,0.3016 2.81687,0.90509 0.64512,0.6035 0.96783,1.48257 0.96783,2.63754 0,1.16017 -0.32501,2.04477 -0.97532,2.65346 -0.64512,0.6087 -1.58156,0.91305 -2.80938,0.91305 h -1.07693 z m -117.198438,0.46027 1.591981,4.63548 h -3.191456 z m 133.380468,0 1.59198,4.63548 h -3.19192 z m -76.170253,3.82404 h 1.763355 c 0.608706,0 1.064078,0.12715 1.365828,0.38208 0.30174,0.24972 0.45278,0.62705 0.45278,1.13171 0,0.51505 -0.15379,0.90019 -0.46074,1.15512 -0.30175,0.25493 -0.754369,0.38208 -1.357868,0.38208 h -1.763355 z m -71.523071,9.5739 h 4.906114 l -2.453057,3.83808 z m 40.409188,0 h 4.432733 v 4.12698 h -4.432733 z m 65.617286,0 h 4.90564 l -2.45305,3.83808 z m 53.29768,0 h 4.43274 v 4.12698 h -4.43274 z m -70.73082,1.73105 h 1.66221 v 2.46616 h -1.66221 c -0.47343,0 -0.83242,-0.1042 -1.07693,-0.31231 -0.24453,-0.2081 -0.36663,-0.51474 -0.36663,-0.92054 0,-0.40059 0.1221,-0.70495 0.36663,-0.91305 0.24451,-0.21331 0.6035,-0.32026 1.07693,-0.32026 z m -20.127805,0.13297 h 1.264221 v 2.98871 h -1.264221 c -0.62951,0 -1.079378,-0.11706 -1.349905,-0.35117 -0.27573,-0.23411 -0.413448,-0.61926 -0.413448,-1.15512 0,-0.53066 0.137718,-0.91029 0.413448,-1.13921 0.270527,-0.22891 0.720395,-0.34321 1.349905,-0.34321 z m 52.574735,0 h 1.66222 v 3.2542 h -1.66222 c -0.58268,0 -1.03253,-0.14047 -1.34991,-0.42141 -0.31735,-0.28614 -0.47618,-0.68964 -0.47619,-1.2099 0,-0.52025 0.15884,-0.92054 0.47619,-1.20148 0.31738,-0.28094 0.76723,-0.42141 1.34991,-0.42141 z m 12.91238,0 h 1.66222 v 3.2542 h -1.66222 c -0.58268,0 -1.03301,-0.14047 -1.35037,-0.42141 -0.31736,-0.28614 -0.47573,-0.68964 -0.47573,-1.2099 0,-0.52025 0.15837,-0.92054 0.47573,-1.20148 0.31736,-0.28094 0.76769,-0.42141 1.35037,-0.42141 z m -104.762248,0.0936 h 1.076929 v 7.10914 h -1.076929 c -1.227802,0 -2.164259,-0.30435 -2.809381,-0.91305 -0.650311,-0.6087 -0.975323,-1.49329 -0.975323,-2.65346 0,-1.15497 0.322711,-2.03405 0.967832,-2.63754 0.645111,-0.60351 1.583868,-0.90509 2.816872,-0.90509 z m -15.1051,0.46027 1.599942,4.63548 h -3.191926 z m 133.380468,0 1.59947,4.63548 h -3.19145 z m -58.97357,3.82403 h 1.76335 v 3.05099 h -1.76335 c -0.6035,0 -1.05613,-0.12715 -1.35787,-0.38208 -0.30694,-0.25492 -0.46074,-0.64006 -0.46074,-1.15512 0,-0.50464 0.15104,-0.88199 0.45278,-1.13171 0.30175,-0.25493 0.75712,-0.38208 1.36583,-0.38208 z m -90.470466,9.5739 h 4.432733 v 4.12698 h -4.432733 z m 52.824773,0 h 4.905648 l -2.452589,3.83808 z m 66.090193,0 h 4.43274 v 4.12698 h -4.43274 z m 39.93581,0 h 4.90611 l -2.45305,3.83808 z m -85.349433,1.73105 h 1.662216 c 0.473434,0 0.832409,0.10697 1.076927,0.32027 0.24452,0.20811 0.36663,0.51245 0.36663,0.91304 0,0.4058 -0.12211,0.71245 -0.36663,0.92055 -0.244518,0.2081 -0.603493,0.3123 -1.076927,0.3123 h -1.662216 z m -45.359314,0.13298 h 1.662215 c 0.582685,0 1.03302,0.14047 1.350378,0.4214 0.317354,0.28094 0.47572,0.68123 0.47572,1.20148 0,0.52025 -0.158366,0.92377 -0.47572,1.20991 -0.317358,0.28094 -0.767693,0.4214 -1.350378,0.4214 h -1.662215 z m 12.912379,0 h 1.662216 c 0.582685,0 1.032553,0.14047 1.349907,0.4214 0.317358,0.28094 0.476191,0.68123 0.476191,1.20148 0,0.52025 -0.158833,0.92377 -0.476191,1.20991 -0.317354,0.28094 -0.767222,0.4214 -1.349907,0.4214 h -1.662216 z m 52.972728,0 h 1.26422 c 0.62952,0 1.07938,0.1143 1.34991,0.34321 0.27573,0.22891 0.41345,0.60854 0.41345,1.1392 0,0.53587 -0.13772,0.921 -0.41345,1.15512 -0.27053,0.23412 -0.72039,0.35118 -1.34991,0.35118 h -1.26422 z m 39.46243,0.0936 h 1.07693 c 1.233,0 2.17176,0.30159 2.81687,0.90509 0.64512,0.60349 0.96783,1.48257 0.96783,2.63754 0,1.16016 -0.32501,2.04476 -0.97532,2.65346 -0.64512,0.6087 -1.58157,0.91305 -2.80938,0.91305 h -1.07693 z m -117.198438,0.46027 1.591981,4.63548 h -3.191456 z m 133.380468,0 1.59198,4.63548 h -3.19192 z m -76.170253,3.82404 h 1.763355 c 0.608706,0 1.064078,0.12715 1.365828,0.38207 0.30174,0.24973 0.45278,0.62706 0.45278,1.13171 0,0.51506 -0.15379,0.9002 -0.46074,1.15513 -0.30175,0.25492 -0.754369,0.38207 -1.357868,0.38207 h -1.763355 z m -71.523071,9.5739 h 4.906114 l -2.453057,3.83808 z m 40.409188,0 h 4.432733 v 4.12697 h -4.432733 z m 65.617286,0 h 4.90564 l -2.45305,3.83808 z m 53.29768,0 h 4.43274 v 4.12697 h -4.43274 z m -70.73082,1.73104 h 1.66221 v 2.46617 h -1.66221 c -0.47343,0 -0.83242,-0.1042 -1.07693,-0.31231 -0.24453,-0.2081 -0.36663,-0.51474 -0.36663,-0.92054 0,-0.4006 0.1221,-0.70495 0.36663,-0.91305 0.24451,-0.21331 0.6035,-0.32027 1.07693,-0.32027 z m -20.127805,0.13298 h 1.264221 v 2.98871 h -1.264221 c -0.629508,0 -1.079378,-0.11705 -1.349905,-0.35117 -0.27573,-0.23411 -0.413448,-0.61927 -0.413448,-1.15512 0,-0.53067 0.137718,-0.9103 0.413448,-1.13921 0.270527,-0.22891 0.720397,-0.34321 1.349905,-0.34321 z m 52.574735,0 h 1.66222 v 3.2542 h -1.66222 c -0.58268,0 -1.03254,-0.14047 -1.34991,-0.42141 -0.31735,-0.28614 -0.47619,-0.68965 -0.47619,-1.20991 0,-0.52026 0.15884,-0.92053 0.47619,-1.20147 0.31737,-0.28094 0.76723,-0.42141 1.34991,-0.42141 z m 12.91238,0 h 1.66222 v 3.2542 h -1.66222 c -0.58268,0 -1.03301,-0.14047 -1.35037,-0.42141 -0.31736,-0.28614 -0.47573,-0.68965 -0.47573,-1.20991 0,-0.52026 0.15837,-0.92053 0.47573,-1.20147 0.31736,-0.28094 0.76769,-0.42141 1.35037,-0.42141 z m -104.762248,0.0936 h 1.076929 v 7.10914 h -1.076929 c -1.227802,0 -2.164259,-0.30434 -2.809381,-0.91305 -0.650311,-0.60869 -0.975323,-1.49328 -0.975323,-2.65346 0,-1.15496 0.322711,-2.03404 0.967832,-2.63754 0.645111,-0.6035 1.583868,-0.90509 2.816872,-0.90509 z m -15.1051,0.46027 1.599942,4.63548 h -3.191926 z m 133.380468,0 1.59947,4.63548 h -3.19145 z m -58.97357,3.82404 h 1.76335 v 3.05099 h -1.76335 c -0.6035,0 -1.05613,-0.12715 -1.35787,-0.38208 -0.30694,-0.25492 -0.46074,-0.64007 -0.46074,-1.15512 0,-0.50465 0.15104,-0.88199 0.45278,-1.13171 0.30175,-0.25493 0.75712,-0.38208 1.36583,-0.38208 z m -90.470466,9.5739 h 4.432733 v 4.12698 h -4.432733 z m 52.824773,0 h 4.905648 l -2.452589,3.83808 z m 66.090193,0 h 4.43274 v 4.12698 h -4.43274 z m 39.93581,0 h 4.90611 l -2.45305,3.83808 z m -85.349433,1.73105 h 1.662216 c 0.473434,0 0.832409,0.10696 1.076927,0.32026 0.24452,0.2081 0.36663,0.51246 0.36663,0.91305 0,0.4058 -0.12211,0.71244 -0.36663,0.92054 -0.244518,0.2081 -0.603493,0.31231 -1.076927,0.31231 h -1.662216 z m -45.359314,0.13297 h 1.662215 c 0.582685,0 1.03302,0.14048 1.350378,0.42141 0.317354,0.28094 0.47572,0.68122 0.47572,1.20148 0,0.52025 -0.158366,0.92376 -0.47572,1.2099 -0.317358,0.28094 -0.767693,0.42141 -1.350378,0.42141 h -1.662215 z m 12.912379,0 h 1.662216 c 0.582685,0 1.032553,0.14048 1.349907,0.42141 0.317358,0.28094 0.476191,0.68122 0.476191,1.20148 0,0.52025 -0.158833,0.92376 -0.476191,1.2099 -0.317354,0.28094 -0.767222,0.42141 -1.349907,0.42141 h -1.662216 z m 52.972728,0 h 1.26422 c 0.62952,0 1.07938,0.1143 1.34991,0.34321 0.27573,0.22892 0.41345,0.60854 0.41345,1.13921 0,0.53586 -0.13772,0.92101 -0.41345,1.15512 -0.27053,0.23412 -0.72039,0.35117 -1.34991,0.35117 h -1.26422 z m 39.46243,0.0936 h 1.07693 c 1.233,0 2.17176,0.30159 2.81687,0.90509 0.64512,0.6035 0.96783,1.48257 0.96783,2.63754 0,1.16016 -0.32501,2.04476 -0.97532,2.65346 -0.64512,0.60869 -1.58156,0.91304 -2.80938,0.91304 h -1.07693 z m -117.198438,0.46027 1.591981,4.63548 h -3.191456 z m 133.380468,0 1.59198,4.63548 h -3.19192 z m -76.170253,3.82403 h 1.763355 c 0.608706,0 1.064078,0.12715 1.365828,0.38208 0.30174,0.24972 0.45278,0.62706 0.45278,1.13171 0,0.51505 -0.15379,0.9002 -0.46074,1.15512 -0.30175,0.25493 -0.754369,0.38208 -1.357868,0.38208 h -1.763355 z m -71.523071,9.5739 h 4.906114 l -2.453057,3.83808 z m 40.409188,0 h 4.432733 v 4.12698 h -4.432733 z m 65.617286,0 h 4.90564 l -2.45305,3.83808 z m 53.29768,0 h 4.43274 v 4.12698 h -4.43274 z m -70.73082,1.73105 h 1.66221 v 2.46617 h -1.66221 c -0.47343,0 -0.83242,-0.10421 -1.07693,-0.31231 -0.24453,-0.20811 -0.36663,-0.51475 -0.36663,-0.92054 0,-0.40061 0.1221,-0.70495 0.36663,-0.91305 0.24451,-0.21331 0.6035,-0.32027 1.07693,-0.32027 z m -20.127805,0.13298 h 1.264221 v 2.98871 h -1.264221 c -0.629508,0 -1.079378,-0.11705 -1.349905,-0.35117 -0.27573,-0.23412 -0.413448,-0.61927 -0.413448,-1.15513 0,-0.53066 0.137718,-0.91029 0.413448,-1.1392 0.270527,-0.22891 0.720397,-0.34321 1.349905,-0.34321 z m 52.574735,0 h 1.66222 v 3.2542 h -1.66222 c -0.58268,0 -1.03253,-0.14048 -1.34991,-0.42141 -0.31735,-0.28615 -0.47618,-0.68966 -0.47619,-1.20991 0,-0.52026 0.15884,-0.92054 0.47619,-1.20148 0.31738,-0.28094 0.76723,-0.4214 1.34991,-0.4214 z m 12.91238,0 h 1.66222 v 3.2542 h -1.66222 c -0.58268,0 -1.03301,-0.14048 -1.35037,-0.42141 -0.31736,-0.28615 -0.47573,-0.68966 -0.47573,-1.20991 0,-0.52026 0.15837,-0.92054 0.47573,-1.20148 0.31736,-0.28094 0.76769,-0.4214 1.35037,-0.4214 z m -104.762248,0.0936 h 1.076929 v 7.10914 h -1.076929 c -1.227802,0 -2.164259,-0.30435 -2.809381,-0.91305 -0.650311,-0.6087 -0.975323,-1.49329 -0.975323,-2.65346 0,-1.15496 0.322711,-2.03404 0.967832,-2.63754 0.645111,-0.6035 1.583868,-0.90509 2.816872,-0.90509 z m -15.1051,0.46027 1.599942,4.63548 h -3.191926 z m 133.380468,0 1.59947,4.63548 h -3.19145 z m -58.97357,3.82404 h 1.76335 v 3.05098 h -1.76335 c -0.6035,0 -1.05613,-0.12715 -1.35787,-0.38207 -0.30694,-0.25493 -0.46074,-0.64007 -0.46074,-1.15513 0,-0.50465 0.15104,-0.88198 0.45278,-1.13171 0.30175,-0.25492 0.75712,-0.38207 1.36583,-0.38207 z m -90.470466,9.5739 h 4.432733 v 4.12698 h -4.432733 z m 52.824773,0 h 4.905648 l -2.452589,3.83808 z m 66.090193,0 h 4.43274 v 4.12698 h -4.43274 z m 39.93581,0 h 4.90611 l -2.45305,3.83808 z m -85.349433,1.73104 h 1.662216 c 0.473434,0 0.832409,0.10697 1.076927,0.32027 0.24452,0.2081 0.36663,0.51245 0.36663,0.91305 0,0.4058 -0.12211,0.71244 -0.36663,0.92054 -0.244518,0.2081 -0.603493,0.31231 -1.076927,0.31231 h -1.662216 z m -45.359314,0.13298 h 1.662215 c 0.582685,0 1.03302,0.14048 1.350378,0.42141 0.317354,0.28094 0.47572,0.68122 0.47572,1.20148 0,0.52025 -0.158366,0.92376 -0.47572,1.2099 -0.317358,0.28094 -0.767693,0.42141 -1.350378,0.42141 h -1.662215 z m 12.912379,0 h 1.662216 c 0.582685,0 1.032553,0.14048 1.349907,0.42141 0.317358,0.28094 0.476191,0.68122 0.476191,1.20148 0,0.52025 -0.158833,0.92376 -0.476191,1.2099 -0.317354,0.28094 -0.767222,0.42141 -1.349907,0.42141 h -1.662216 z m 52.972728,0 h 1.26422 c 0.62952,0 1.07938,0.1143 1.34991,0.34321 0.27573,0.22892 0.41345,0.60854 0.41345,1.13921 0,0.53586 -0.13772,0.92101 -0.41345,1.15512 -0.27053,0.23411 -0.72039,0.35117 -1.34991,0.35117 h -1.26422 z m 39.46243,0.0937 h 1.07693 c 1.233,0 2.17176,0.30159 2.81687,0.90508 0.64512,0.60351 0.96783,1.48257 0.96783,2.63754 0,1.16017 -0.32501,2.04477 -0.97532,2.65346 -0.64512,0.6087 -1.58156,0.91305 -2.80938,0.91305 h -1.07693 z m -117.198438,0.46027 1.591981,4.63547 h -3.191456 z m 133.380468,0 1.59198,4.63547 h -3.19192 z m -76.170253,3.82403 h 1.763355 c 0.608706,0 1.064078,0.12715 1.365828,0.38208 0.30174,0.24972 0.45278,0.62707 0.45278,1.13171 0,0.51505 -0.15379,0.9002 -0.46074,1.15512 -0.30175,0.25493 -0.754369,0.38208 -1.357868,0.38208 h -1.763355 z m -71.523071,9.5739 h 4.906114 l -2.453057,3.83808 z m 40.409188,0 h 4.432733 v 4.12698 h -4.432733 z m 65.617286,0 h 4.90564 l -2.45305,3.83808 z m 53.29768,0 h 4.43274 v 4.12698 h -4.43274 z m -70.73082,1.73105 h 1.66221 v 2.46616 h -1.66221 c -0.47343,0 -0.83242,-0.1042 -1.07693,-0.31231 -0.24453,-0.2081 -0.36663,-0.51474 -0.36663,-0.92053 0,-0.40061 0.1221,-0.70495 0.36663,-0.91305 0.24451,-0.21332 0.6035,-0.32027 1.07693,-0.32027 z m -20.127805,0.13297 h 1.264221 v 2.98872 h -1.264221 c -0.629508,0 -1.079378,-0.11706 -1.349905,-0.35118 -0.27573,-0.23411 -0.413448,-0.61925 -0.413448,-1.15512 0,-0.53065 0.137718,-0.91029 0.413448,-1.1392 0.270527,-0.22892 0.720397,-0.34322 1.349905,-0.34322 z m 52.574735,0 h 1.66222 v 3.2542 h -1.66222 c -0.58268,0 -1.03253,-0.14047 -1.34991,-0.4214 -0.31735,-0.28616 -0.47619,-0.68965 -0.47619,-1.20991 0,-0.52026 0.15884,-0.92054 0.47619,-1.20148 0.31738,-0.28094 0.76723,-0.42141 1.34991,-0.42141 z m 12.91238,0 h 1.66222 v 3.2542 h -1.66222 c -0.58268,0 -1.03301,-0.14047 -1.35037,-0.4214 -0.31736,-0.28616 -0.47573,-0.68965 -0.47573,-1.20991 0,-0.52026 0.15837,-0.92054 0.47573,-1.20148 0.31736,-0.28094 0.76769,-0.42141 1.35037,-0.42141 z m -104.762248,0.0936 h 1.076929 v 7.10914 h -1.076929 c -1.227802,0 -2.164259,-0.30435 -2.809381,-0.91305 -0.650311,-0.6087 -0.975323,-1.49329 -0.975323,-2.65346 0,-1.15497 0.322711,-2.03405 0.967832,-2.63754 0.645111,-0.60351 1.583868,-0.90509 2.816872,-0.90509 z m -15.1051,0.46027 1.599942,4.63548 h -3.191926 z m 133.380468,0 1.59947,4.63548 h -3.19145 z m -58.97357,3.82403 h 1.76335 v 3.05099 h -1.76335 c -0.6035,0 -1.05613,-0.12715 -1.35787,-0.38208 -0.30694,-0.25492 -0.46074,-0.64006 -0.46074,-1.15512 0,-0.50464 0.15104,-0.88198 0.45278,-1.13171 0.30175,-0.25492 0.75712,-0.38208 1.36583,-0.38208 z m -90.470466,9.5739 h 4.432733 v 4.12697 h -4.432733 z m 52.824773,0 h 4.905648 l -2.452589,3.83809 z m 66.090193,0 h 4.43274 v 4.12697 h -4.43274 z m 39.93581,0 h 4.90611 l -2.45305,3.83809 z m -85.349433,1.73105 h 1.662216 c 0.473434,0 0.832409,0.10697 1.076927,0.32026 0.24452,0.20811 0.36663,0.51245 0.36663,0.91305 0,0.4058 -0.12211,0.71244 -0.36663,0.92055 -0.244518,0.20809 -0.603493,0.3123 -1.076927,0.3123 h -1.662216 z m -45.359314,0.13298 h 1.662215 c 0.582685,0 1.03302,0.14048 1.350378,0.4214 0.317354,0.28095 0.47572,0.68123 0.47572,1.20148 0,0.52024 -0.158366,0.92376 -0.47572,1.20991 -0.317358,0.28094 -0.767693,0.4214 -1.350378,0.4214 h -1.662215 z m 12.912379,0 h 1.662216 c 0.582685,0 1.032553,0.14048 1.349907,0.4214 0.317358,0.28095 0.476191,0.68123 0.476191,1.20148 0,0.52024 -0.158833,0.92376 -0.476191,1.20991 -0.317354,0.28094 -0.767222,0.4214 -1.349907,0.4214 h -1.662216 z m 52.972728,0 h 1.26422 c 0.62952,0 1.07938,0.11431 1.34991,0.3432 0.27573,0.22892 0.41345,0.60854 0.41345,1.13922 0,0.53585 -0.13772,0.92098 -0.41345,1.15511 -0.27053,0.23412 -0.72039,0.35118 -1.34991,0.35118 h -1.26422 z m 39.46243,0.0936 h 1.07693 c 1.233,0 2.17176,0.30159 2.81687,0.90509 0.64512,0.60351 0.96783,1.48256 0.96783,2.63755 0,1.16015 -0.32501,2.04476 -0.97532,2.65345 -0.64512,0.60871 -1.58156,0.91305 -2.80938,0.91305 h -1.07693 z m -117.198438,0.46026 1.591981,4.6355 h -3.191456 z m 133.380468,0 1.59198,4.6355 h -3.19192 z m -76.170253,3.82405 h 1.763355 c 0.608706,0 1.064078,0.12715 1.365828,0.38208 0.30174,0.24971 0.45278,0.62705 0.45278,1.13172 0,0.51504 -0.15379,0.90017 -0.46074,1.1551 -0.30175,0.25494 -0.754369,0.38209 -1.357868,0.38209 h -1.763355 z m -71.523071,9.57391 h 4.906114 l -2.453057,3.83806 z m 40.409188,0 h 4.432733 v 4.12697 h -4.432733 z m 65.617286,0 h 4.90564 l -2.45305,3.83806 z m 53.29768,0 h 4.43274 v 4.12697 h -4.43274 z m -70.73082,1.73104 h 1.66221 v 2.46617 h -1.66221 c -0.47343,0 -0.83242,-0.10421 -1.07693,-0.31233 -0.24453,-0.20808 -0.36662,-0.51473 -0.36663,-0.92053 0,-0.40059 0.1221,-0.70496 0.36663,-0.91305 0.24451,-0.21331 0.6035,-0.32026 1.07693,-0.32026 z m -20.127805,0.13296 h 1.264221 v 2.98871 h -1.264221 c -0.629508,0 -1.079378,-0.11706 -1.349905,-0.35116 -0.27573,-0.23412 -0.413448,-0.61926 -0.413448,-1.15513 0,-0.53065 0.137718,-0.9103 0.413448,-1.13919 0.270527,-0.22892 0.720397,-0.34323 1.349905,-0.34323 z m 52.574735,0 h 1.66222 v 3.25422 h -1.66222 c -0.58268,0 -1.03252,-0.14049 -1.34991,-0.42141 -0.31735,-0.28614 -0.47618,-0.68964 -0.47619,-1.20991 0,-0.52024 0.15884,-0.92055 0.47619,-1.20147 0.31739,-0.28095 0.76723,-0.42143 1.34991,-0.42143 z m 12.91238,0 h 1.66222 v 3.25422 h -1.66222 c -0.58268,0 -1.03301,-0.14049 -1.35037,-0.42141 -0.31736,-0.28614 -0.47573,-0.68964 -0.47573,-1.20991 0,-0.52024 0.15837,-0.92055 0.47573,-1.20147 0.31736,-0.28095 0.76769,-0.42143 1.35037,-0.42143 z m -104.762248,0.0937 h 1.076929 v 7.10914 h -1.076929 c -1.227802,0 -2.164259,-0.30434 -2.809381,-0.91305 -0.650311,-0.60871 -0.975323,-1.4933 -0.975323,-2.65347 0,-1.15496 0.322711,-2.03404 0.967832,-2.63752 0.645111,-0.60351 1.583868,-0.9051 2.816872,-0.9051 z m -15.1051,0.46027 1.599942,4.63547 h -3.191926 z m 133.380468,0 1.59947,4.63547 h -3.19145 z m -58.97357,3.82404 h 1.76335 v 3.05097 h -1.76335 c -0.6035,0 -1.05613,-0.12713 -1.35787,-0.38206 -0.30694,-0.25493 -0.46074,-0.64007 -0.46074,-1.15513 0,-0.50464 0.15104,-0.88199 0.45278,-1.13172 0.30175,-0.25493 0.75712,-0.38206 1.36583,-0.38206 z" />
  </g>
</svg>
