  0
SECTION
  2
HEADER
  9
$ACADVER
  1
AC1014
  9
$HANDSEED
  5
FFFF
  9
$MEASUREMENT
 70
     1
  0
ENDSEC
  0
SECTION
  2
TABLES
  0
TABLE
  2
VPORT
  5
8
330
0
100
AcDbSymbolTable
 70
     4
  0
VPORT
  5
2E
330
8
100
AcDbSymbolTableRecord
100
AcDbViewportTableRecord
  2
*ACTIVE
 70
     0
 10
0.0
 20
0.0
 11
1.0
 21
1.0
 12
210.0
 22
148.5
 13
0.0
 23
0.0
 14
10.0
 24
10.0
 15
10.0
 25
10.0
 16
0.0
 26
0.0
 36
1.0
 17
0.0
 27
0.0
 37
0.0
 40
341.0
 41
1.24
 42
50.0
 43
0.0
 44
0.0
 50
0.0
 51
0.0
 71
     0
 72
   100
 73
     1
 74
     3
 75
     0
 76
     0
 77
     0
 78
     0
  0
ENDTAB
  0
TABLE
  2
LTYPE
  5
5
330
0
100
AcDbSymbolTable
 70
     1
  0
LTYPE
  5
14
330
5
100
AcDbSymbolTableRecord
100
AcDbLinetypeTableRecord
  2
BYBLOCK
 70
     0
  3

 72
    65
 73
     0
 40
0.0
  0
LTYPE
  5
15
330
5
100
AcDbSymbolTableRecord
100
AcDbLinetypeTableRecord
  2
BYLAYER
 70
     0
  3

 72
    65
 73
     0
 40
0.0
  0
LTYPE
  5
16
330
5
100
AcDbSymbolTableRecord
100
AcDbLinetypeTableRecord
  2
CONTINUOUS
 70
     0
  3
Solid line
 72
    65
 73
     0
 40
0.0
  0
ENDTAB
  0
TABLE
  2
LAYER
  5
2
100
AcDbSymbolTable
 70
1
  0
LAYER
  5
50
100
AcDbSymbolTableRecord
100
AcDbLayerTableRecord
  2
0
 70
0
  6
CONTINUOUS
  0
ENDTAB
  0
TABLE
  2
STYLE
  5
3
330
0
100
AcDbSymbolTable
 70
     1
  0
STYLE
  5
11
330
3
100
AcDbSymbolTableRecord
100
AcDbTextStyleTableRecord
  2
STANDARD
 70
     0
 40
0.0
 41
1.0
 50
0.0
 71
     0
 42
2.5
  3
txt
  4

  0
ENDTAB
  0
TABLE
  2
VIEW
  5
6
330
0
100
AcDbSymbolTable
 70
     0
  0
ENDTAB
  0
TABLE
  2
UCS
  5
7
330
0
100
AcDbSymbolTable
 70
     0
  0
ENDTAB
  0
TABLE
  2
APPID
  5
9
330
0
100
AcDbSymbolTable
 70
     2
  0
APPID
  5
12
330
9
100
AcDbSymbolTableRecord
100
AcDbRegAppTableRecord
  2
ACAD
 70
     0
  0
ENDTAB
  0
TABLE
  2
DIMSTYLE
  5
A
330
0
100
AcDbSymbolTable
 70
     1
  0
DIMSTYLE
105
27
330
A
100
AcDbSymbolTableRecord
100
AcDbDimStyleTableRecord
  2
ISO-25
 70
     0
  3

  4

  5

  6

  7

 40
1.0
 41
2.5
 42
0.625
 43
3.75
 44
1.25
 45
0.0
 46
0.0
 47
0.0
 48
0.0
140
2.5
141
2.5
142
0.0
143
0.03937007874016
144
1.0
145
0.0
146
1.0
147
0.625
 71
     0
 72
     0
 73
     0
 74
     0
 75
     0
 76
     0
 77
     1
 78
     8
170
     0
171
     3
172
     1
173
     0
174
     0
175
     0
176
     0
177
     0
178
     0
270
     2
271
     2
272
     2
273
     2
274
     3
340
11
275
     0
280
     0
281
     0
282
     0
283
     0
284
     8
285
     0
286
     0
287
     3
288
     0
  0
ENDTAB
  0
TABLE
  2
BLOCK_RECORD
  5
1
330
0
100
AcDbSymbolTable
 70
     1
  0
BLOCK_RECORD
  5
1F
330
1
100
AcDbSymbolTableRecord
100
AcDbBlockTableRecord
  2
*MODEL_SPACE
  0
BLOCK_RECORD
  5
1B
330
1
100
AcDbSymbolTableRecord
100
AcDbBlockTableRecord
  2
*PAPER_SPACE
  0
ENDTAB
  0
ENDSEC
  0
SECTION
  2
BLOCKS
  0
BLOCK
  5
20
330
1F
100
AcDbEntity
  8
0
100
AcDbBlockBegin
  2
*MODEL_SPACE
 70
     0
 10
0.0
 20
0.0
 30
0.0
  3
*MODEL_SPACE
  1

  0
ENDBLK
  5
21
330
1F
100
AcDbEntity
  8
0
100
AcDbBlockEnd
  0
BLOCK
  5
1C
330
1B
100
AcDbEntity
 67
     1
  8
0
100
AcDbBlockBegin
  2
*PAPER_SPACE
  1

  0
ENDBLK
  5
1D
330
1B
100
AcDbEntity
 67
     1
  8
0
100
AcDbBlockEnd
  0
ENDSEC
  0
SECTION
  2
ENTITIES
  0
SPLINE
  5
100
100
AcDbEntity
  8
0
 62
7
100
AcDbSpline
 70
0
 71
3
 72
10
 73
6
 74
4
 40
0.000000
 40
0.000000
 40
0.000000
 40
0.000000
 40
52.052892
 40
104.679262
 40
158.488425
 40
158.488425
 40
158.488425
 40
158.488425
 10
549.326594
 20
1587.832705
 30
0.0
 10
536.818625
 20
1599.880931
 30
0.0
 10
511.664886
 20
1624.110121
 30
0.0
 10
467.906345
 20
1654.313437
 30
0.0
 10
435.644402
 20
1669.177327
 30
0.0
 10
419.334170
 20
1676.691861
 30
0.0
 11
549.326594
 21
1587.832705
 31
0.0
 11
510.875895
 21
1622.918989
 31
0.0
 11
467.530008
 21
1652.763065
 31
0.0
 11
419.334170
 21
1676.691861
 31
0.0
  0
SPLINE
  5
101
100
AcDbEntity
  8
0
 62
7
100
AcDbSpline
 70
0
 71
3
 72
10
 73
6
 74
4
 40
0.000000
 40
0.000000
 40
0.000000
 40
0.000000
 40
0.145389
 40
0.296475
 40
0.441951
 40
0.441951
 40
0.441951
 40
0.441951
 10
419.334170
 20
1676.691861
 30
0.0
 10
419.286720
 20
1676.703183
 30
0.0
 10
419.189960
 20
1676.726272
 30
0.0
 10
419.041071
 20
1676.709382
 30
0.0
 10
418.944255
 20
1676.732320
 30
0.0
 10
418.896762
 20
1676.743572
 30
0.0
 11
419.334170
 21
1676.691861
 31
0.0
 11
419.191069
 21
1676.717551
 31
0.0
 11
419.039984
 21
1676.718063
 31
0.0
 11
418.896762
 21
1676.743572
 31
0.0
  0
SPLINE
  5
102
100
AcDbEntity
  8
0
 62
7
100
AcDbSpline
 70
0
 71
3
 72
13
 73
9
 74
7
 40
0.000000
 40
0.000000
 40
0.000000
 40
0.000000
 40
77.142172
 40
155.050297
 40
232.907226
 40
310.213845
 40
387.181215
 40
466.785708
 40
466.785708
 40
466.785708
 40
466.785708
 10
418.896762
 20
1676.743572
 30
0.0
 10
394.585976
 20
1685.568208
 30
0.0
 10
345.723020
 20
1703.305099
 30
0.0
 10
266.909169
 20
1705.100859
 30
0.0
 10
190.045982
 20
1689.921288
 30
0.0
 10
119.981971
 20
1655.442441
 30
0.0
 10
60.406442
 20
1601.854126
 30
0.0
 10
40.112924
 20
1553.134107
 30
0.0
 10
29.795265
 20
1528.363804
 30
0.0
 11
418.896762
 21
1676.743572
 31
0.0
 11
345.072096
 21
1699.122879
 31
0.0
 11
267.227277
 21
1702.262964
 31
0.0
 11
190.956556
 21
1686.627159
 31
0.0
 11
121.704195
 21
1652.269861
 31
0.0
 11
65.812059
 21
1599.354408
 31
0.0
 11
29.795265
 21
1528.363804
 31
0.0
  0
LINE
  5
103
100
AcDbEntity
  8
0
 62
7
100
AcDbLine
 10
51.512076
 20
1383.125979
 30
0.0
 11
51.253377
 21
1382.933431
 31
0.0
  0
SPLINE
  5
104
100
AcDbEntity
  8
0
 62
7
100
AcDbSpline
 70
0
 71
3
 72
10
 73
6
 74
4
 40
0.000000
 40
0.000000
 40
0.000000
 40
0.000000
 40
49.560160
 40
99.771305
 40
151.329791
 40
151.329791
 40
151.329791
 40
151.329791
 10
29.795265
 20
1528.363804
 30
0.0
 10
26.397784
 20
1512.133773
 30
0.0
 10
19.558197
 20
1479.460527
 30
0.0
 10
26.313244
 20
1427.975082
 30
0.0
 10
43.038656
 20
1398.207047
 30
0.0
 10
51.512076
 20
1383.125979
 30
0.0
 11
29.795265
 21
1528.363804
 31
0.0
 11
22.389394
 21
1479.360104
 31
0.0
 11
29.218649
 21
1429.615553
 31
0.0
 11
51.512076
 21
1383.125979
 31
0.0
  0
SPLINE
  5
105
100
AcDbEntity
  8
0
 62
7
100
AcDbSpline
 70
0
 71
3
 72
13
 73
9
 74
7
 40
0.000000
 40
0.000000
 40
0.000000
 40
0.000000
 40
0.322699
 40
0.643278
 40
0.965793
 40
1.072915
 40
1.179602
 40
1.286752
 40
1.286752
 40
1.286752
 40
1.286752
 10
51.253377
 20
1382.933431
 30
0.0
 10
51.314761
 20
1382.844926
 30
0.0
 10
51.437125
 20
1382.668499
 30
0.0
 10
51.660265
 20
1382.434839
 30
0.0
 10
51.802319
 20
1382.228806
 30
0.0
 10
51.909095
 20
1382.084883
 30
0.0
 10
51.988433
 20
1382.012321
 30
0.0
 10
52.031095
 20
1381.955039
 30
0.0
 10
52.052471
 20
1381.926336
 30
0.0
 11
51.253377
 21
1382.933431
 31
0.0
 11
51.444137
 21
1382.673151
 31
0.0
 11
51.653155
 21
1382.430082
 31
0.0
 11
51.845461
 21
1382.171173
 31
0.0
 11
51.911763
 21
1382.087035
 31
0.0
 11
51.985781
 21
1382.010201
 31
0.0
 11
52.052471
 21
1381.926336
 31
0.0
  0
LINE
  5
106
100
AcDbEntity
  8
0
 62
7
100
AcDbLine
 10
211.440621
 20
1395.874354
 30
0.0
 11
211.633170
 21
1395.615656
 31
0.0
  0
SPLINE
  5
107
100
AcDbEntity
  8
0
 62
7
100
AcDbSpline
 70
0
 71
3
 72
16
 73
12
 74
10
 40
0.000000
 40
0.000000
 40
0.000000
 40
0.000000
 40
34.503666
 40
68.588352
 40
102.131253
 40
118.870280
 40
135.528733
 40
152.295436
 40
168.831787
 40
186.193924
 40
204.776594
 40
204.776594
 40
204.776594
 40
204.776594
 10
52.052471
 20
1381.926336
 30
0.0
 10
59.334655
 20
1372.853616
 30
0.0
 10
73.810593
 20
1354.818347
 30
0.0
 10
105.439535
 20
1339.784621
 30
0.0
 10
133.551364
 20
1335.216839
 30
0.0
 10
155.902639
 20
1337.298483
 30
0.0
 10
172.026004
 20
1342.148418
 30
0.0
 10
186.671188
 20
1350.470690
 30
0.0
 10
198.654353
 20
1362.632067
 30
0.0
 10
207.488538
 20
1378.045729
 30
0.0
 10
210.093773
 20
1389.798455
 30
0.0
 10
211.440621
 20
1395.874354
 30
0.0
 11
52.052471
 21
1381.926336
 31
0.0
 11
75.611029
 21
1356.717264
 31
0.0
 11
106.011388
 21
1341.303502
 31
0.0
 11
139.165981
 21
1336.214382
 31
0.0
 11
155.824786
 21
1337.851221
 31
0.0
 11
171.756402
 21
1342.718217
 31
0.0
 11
186.260825
 21
1351.129165
 31
0.0
 11
197.909000
 21
1362.866751
 31
0.0
 11
206.479243
 21
1377.966246
 31
0.0
 11
211.440621
 21
1395.874354
 31
0.0
  0
SPLINE
  5
108
100
AcDbEntity
  8
0
 62
7
100
AcDbSpline
 70
0
 71
3
 72
16
 73
12
 74
10
 40
0.000000
 40
0.000000
 40
0.000000
 40
0.000000
 40
14.505957
 40
26.825921
 40
38.368673
 40
50.343002
 40
63.242672
 40
77.053120
 40
106.429594
 40
136.092250
 40
163.246809
 40
163.246809
 40
163.246809
 40
163.246809
 10
211.633170
 20
1395.615656
 30
0.0
 10
213.229921
 20
1400.207114
 30
0.0
 10
216.182799
 20
1408.698115
 30
0.0
 10
224.108432
 20
1419.028249
 30
0.0
 10
233.892343
 20
1426.124029
 30
0.0
 10
245.350004
 20
1430.489702
 30
0.0
 10
258.183791
 20
1432.376145
 30
0.0
 10
276.974197
 20
1431.803407
 30
0.0
 10
300.524278
 20
1424.856764
 30
0.0
 10
326.104849
 20
1410.492591
 30
0.0
 10
337.900876
 20
1395.471141
 30
0.0
 10
343.538531
 20
1388.291964
 30
0.0
 11
211.633170
 21
1395.615656
 31
0.0
 11
217.180290
 21
1409.019097
 31
0.0
 11
224.691614
 21
1418.784420
 31
0.0
 11
234.010286
 21
1425.595988
 31
0.0
 11
245.157610
 21
1429.968828
 31
0.0
 11
257.902002
 21
1431.964313
 31
0.0
 11
271.707277
 21
1431.586336
 31
0.0
 11
300.044560
 21
1423.841947
 31
0.0
 11
325.468367
 21
1408.561135
 31
0.0
 11
343.538531
 21
1388.291964
 31
0.0
  0
SPLINE
  5
109
100
AcDbEntity
  8
0
 62
7
100
AcDbSpline
 70
0
 71
3
 72
10
 73
6
 74
4
 40
0.000000
 40
0.000000
 40
0.000000
 40
0.000000
 40
0.429354
 40
0.858661
 40
1.288015
 40
1.288015
 40
1.288015
 40
1.288015
 10
343.538531
 20
1388.291964
 30
0.0
 10
343.621631
 20
1388.175435
 30
0.0
 10
343.787821
 20
1387.942388
 30
0.0
 10
344.049520
 20
1387.601868
 30
0.0
 10
344.231946
 20
1387.381299
 30
0.0
 10
344.323164
 20
1387.271008
 30
0.0
 11
343.538531
 21
1388.291964
 31
0.0
 11
343.789899
 21
1387.943885
 31
0.0
 11
344.051501
 21
1387.603490
 31
0.0
 11
344.323164
 21
1387.271008
 31
0.0
  0
SPLINE
  5
10a
100
AcDbEntity
  8
0
 62
7
100
AcDbSpline
 70
0
 71
3
 72
13
 73
9
 74
7
 40
0.000000
 40
0.000000
 40
0.000000
 40
0.000000
 40
66.115062
 40
130.377061
 40
196.220989
 40
264.239357
 40
332.796828
 40
399.419250
 40
399.419250
 40
399.419250
 40
399.419250
 10
344.323164
 20
1387.271008
 30
0.0
 10
355.539812
 20
1368.051033
 30
0.0
 10
377.658730
 20
1330.149776
 30
0.0
 10
385.313061
 20
1263.607837
 30
0.0
 10
376.352363
 20
1197.749014
 30
0.0
 10
352.662102
 20
1134.125977
 30
0.0
 10
318.568490
 20
1075.019626
 30
0.0
 10
288.002324
 20
1041.756744
 30
0.0
 10
272.938013
 20
1025.363376
 30
0.0
 11
344.323164
 21
1387.271008
 31
0.0
 11
373.592934
 21
1327.987941
 31
0.0
 11
382.577662
 21
1264.357138
 31
0.0
 11
374.125060
 21
1199.058008
 31
0.0
 11
351.006055
 21
1135.089188
 31
0.0
 11
316.215725
 21
1076.014998
 31
0.0
 11
272.938013
 21
1025.363376
 31
0.0
  0
LINE
  5
10b
100
AcDbEntity
  8
0
 62
7
100
AcDbLine
 10
54.947019
 20
886.736476
 30
0.0
 11
90.377777
 21
583.077449
 31
0.0
  0
SPLINE
  5
10c
100
AcDbEntity
  8
0
 62
7
100
AcDbSpline
 70
0
 71
3
 72
10
 73
6
 74
4
 40
0.000000
 40
0.000000
 40
0.000000
 40
0.000000
 40
87.448006
 40
173.698584
 40
259.956970
 40
259.956970
 40
259.956970
 40
259.956970
 10
272.938013
 20
1025.363376
 30
0.0
 10
251.285008
 20
1005.785232
 30
0.0
 10
208.275492
 20
966.897030
 30
0.0
 10
134.211020
 20
920.889625
 30
0.0
 10
81.369150
 20
898.121203
 30
0.0
 10
54.947019
 20
886.736476
 30
0.0
 11
272.938013
 21
1025.363376
 31
0.0
 11
206.336828
 21
968.693844
 31
0.0
 11
133.290265
 21
922.831421
 31
0.0
 11
54.947019
 21
886.736476
 31
0.0
  0
SPLINE
  5
10d
100
AcDbEntity
  8
0
 62
7
100
AcDbSpline
 70
0
 71
3
 72
10
 73
6
 74
4
 40
0.000000
 40
0.000000
 40
0.000000
 40
0.000000
 40
5.468459
 40
10.945002
 40
16.423715
 40
16.423715
 40
16.423715
 40
16.423715
 10
90.377777
 20
583.077449
 30
0.0
 10
92.113552
 20
583.634011
 30
0.0
 10
95.587668
 20
584.747959
 30
0.0
 10
100.791993
 20
586.446894
 30
0.0
 10
104.256576
 20
587.601017
 30
0.0
 10
105.989210
 20
588.178193
 30
0.0
 11
90.377777
 21
583.077449
 31
0.0
 11
95.583635
 21
584.751691
 31
0.0
 11
100.789581
 21
586.451884
 31
0.0
 11
105.989210
 21
588.178193
 31
0.0
  0
SPLINE
  5
10e
100
AcDbEntity
  8
0
 62
7
100
AcDbSpline
 70
0
 71
3
 72
10
 73
6
 74
4
 40
0.000000
 40
0.000000
 40
0.000000
 40
0.000000
 40
0.098933
 40
0.203362
 40
0.303759
 40
0.303759
 40
0.303759
 40
0.303759
 10
105.989210
 20
588.178193
 30
0.0
 10
106.018216
 20
588.194379
 30
0.0
 10
106.077838
 20
588.227649
 30
0.0
 10
106.144008
 20
588.306861
 30
0.0
 10
106.204145
 20
588.340242
 30
0.0
 10
106.233622
 20
588.356605
 30
0.0
 11
105.989210
 21
588.178193
 31
0.0
 11
106.072601
 21
588.231427
 31
0.0
 11
106.148920
 21
588.302705
 31
0.0
 11
106.233622
 21
588.356605
 31
0.0
  0
SPLINE
  5
10f
100
AcDbEntity
  8
0
 62
7
100
AcDbSpline
 70
0
 71
3
 72
10
 73
6
 74
4
 40
0.000000
 40
0.000000
 40
0.000000
 40
0.000000
 40
271.329875
 40
542.606928
 40
813.906971
 40
813.906971
 40
813.906971
 40
813.906971
 10
106.233622
 20
588.356605
 30
0.0
 10
190.018216
 20
622.896368
 30
0.0
 10
357.571091
 20
691.969170
 30
0.0
 10
567.395617
 20
880.506129
 30
0.0
 10
630.694985
 20
1052.273630
 30
0.0
 10
662.346010
 20
1138.161020
 30
0.0
 11
106.233622
 21
588.356605
 31
0.0
 11
350.668738
 21
706.133409
 31
0.0
 11
548.247176
 21
892.020471
 31
0.0
 11
662.346010
 21
1138.161020
 31
0.0
  0
SPLINE
  5
110
100
AcDbEntity
  8
0
 62
7
100
AcDbSpline
 70
0
 71
3
 72
10
 73
6
 74
4
 40
0.000000
 40
0.000000
 40
0.000000
 40
0.000000
 40
0.151378
 40
0.304459
 40
0.456247
 40
0.456247
 40
0.456247
 40
0.456247
 10
662.346010
 20
1138.161020
 30
0.0
 10
662.355614
 20
1138.210607
 30
0.0
 10
662.374929
 20
1138.310340
 30
0.0
 10
662.383875
 20
1138.462522
 30
0.0
 10
662.402788
 20
1138.562462
 30
0.0
 10
662.412205
 20
1138.612221
 30
0.0
 11
662.346010
 21
1138.161020
 31
0.0
 11
662.371522
 21
1138.310232
 31
0.0
 11
662.387162
 21
1138.462512
 31
0.0
 11
662.412205
 21
1138.612221
 31
0.0
  0
LINE
  5
111
100
AcDbEntity
  8
0
 62
7
100
AcDbLine
 10
549.326594
 20
1587.832705
 30
0.0
 11
549.326594
 21
1587.832705
 31
0.0
  0
SPLINE
  5
112
100
AcDbEntity
  8
0
 62
7
100
AcDbSpline
 70
0
 71
3
 72
13
 73
9
 74
7
 40
0.000000
 40
0.000000
 40
0.000000
 40
0.000000
 40
132.834942
 40
266.688757
 40
399.478328
 40
426.738011
 40
453.954029
 40
481.159329
 40
481.159329
 40
481.159329
 40
481.159329
 10
662.412205
 20
1138.612221
 30
0.0
 10
669.423844
 20
1182.596607
 30
0.0
 10
683.500905
 20
1270.902749
 30
0.0
 10
660.149380
 20
1404.241003
 30
0.0
 10
619.979817
 20
1494.906698
 30
0.0
 10
584.545325
 20
1546.335974
 30
0.0
 10
567.792181
 20
1567.835391
 30
0.0
 10
555.480981
 20
1581.167809
 30
0.0
 10
549.326594
 20
1587.832705
 30
0.0
 11
662.412205
 21
1138.612221
 31
0.0
 11
676.087094
 21
1270.741397
 31
0.0
 11
654.831173
 21
1402.896721
 31
0.0
 11
599.767404
 21
1523.731532
 31
0.0
 11
584.320397
 21
1546.192170
 31
0.0
 11
567.502585
 21
1567.590133
 31
0.0
 11
549.326594
 21
1587.832705
 31
0.0
  0
SPLINE
  5
113
100
AcDbEntity
  8
0
 62
7
100
AcDbSpline
 70
0
 71
3
 72
10
 73
6
 74
4
 40
0.000000
 40
0.000000
 40
0.000000
 40
0.000000
 40
47.895796
 40
96.192298
 40
145.327823
 40
145.327823
 40
145.327823
 40
145.327823
 10
527.085273
 20
1568.925274
 30
0.0
 10
515.540595
 20
1579.973905
 30
0.0
 10
492.354652
 20
1602.163603
 30
0.0
 10
452.171907
 20
1629.768409
 30
0.0
 10
422.625223
 20
1643.343345
 30
0.0
 10
407.724662
 20
1650.189262
 30
0.0
 11
527.085273
 21
1568.925274
 31
0.0
 11
491.605586
 21
1601.099783
 31
0.0
 11
451.763323
 21
1628.397149
 31
0.0
 11
407.724662
 21
1650.189262
 31
0.0
  0
SPLINE
  5
114
100
AcDbEntity
  8
0
 62
7
100
AcDbSpline
 70
0
 71
3
 72
10
 73
6
 74
4
 40
0.000000
 40
0.000000
 40
0.000000
 40
0.000000
 40
0.151150
 40
0.302298
 40
0.453448
 40
0.453448
 40
0.453448
 40
0.453448
 10
407.724662
 20
1650.189262
 30
0.0
 10
407.674405
 20
1650.192838
 30
0.0
 10
407.573893
 20
1650.199989
 30
0.0
 10
407.423266
 20
1650.212614
 30
0.0
 10
407.322965
 20
1650.222294
 30
0.0
 10
407.272815
 20
1650.227135
 30
0.0
 11
407.724662
 21
1650.189262
 31
0.0
 11
407.573916
 21
1650.200305
 31
0.0
 11
407.423296
 21
1650.212930
 31
0.0
 11
407.272815
 21
1650.227135
 31
0.0
  0
SPLINE
  5
115
100
AcDbEntity
  8
0
 62
7
100
AcDbSpline
 70
0
 71
3
 72
13
 73
9
 74
7
 40
0.000000
 40
0.000000
 40
0.000000
 40
0.000000
 40
69.560698
 40
140.532690
 40
211.390482
 40
280.607223
 40
348.402594
 40
418.080186
 40
418.080186
 40
418.080186
 40
418.080186
 10
407.272815
 20
1650.227135
 30
0.0
 10
385.348648
 20
1658.169519
 30
0.0
 10
341.055503
 20
1674.215427
 30
0.0
 10
269.532875
 20
1675.943087
 30
0.0
 10
199.900466
 20
1662.366221
 30
0.0
 10
137.058165
 20
1631.726121
 30
0.0
 10
84.230791
 20
1584.527401
 30
0.0
 10
66.434356
 20
1541.731532
 30
0.0
 10
57.414308
 20
1520.040626
 30
0.0
 11
407.272815
 21
1650.227135
 31
0.0
 11
340.702779
 21
1670.404375
 31
0.0
 11
269.792735
 21
1673.369073
 31
0.0
 11
200.349143
 21
1659.283121
 31
0.0
 11
138.262408
 21
1628.685822
 31
0.0
 11
88.928966
 21
1582.183954
 31
0.0
 11
57.414308
 21
1520.040626
 31
0.0
  0
SPLINE
  5
116
100
AcDbEntity
  8
0
 62
7
100
AcDbSpline
 70
0
 71
3
 72
10
 73
6
 74
4
 40
0.000000
 40
0.000000
 40
0.000000
 40
0.000000
 40
41.725748
 40
83.636618
 40
126.293760
 40
126.293760
 40
126.293760
 40
126.293760
 10
57.414308
 20
1520.040626
 30
0.0
 10
54.547075
 20
1506.379138
 30
0.0
 10
48.799889
 20
1478.995551
 30
0.0
 10
54.409987
 20
1436.000998
 30
0.0
 10
68.455306
 20
1411.338013
 30
0.0
 10
75.539937
 20
1398.897701
 30
0.0
 11
57.414308
 21
1520.040626
 31
0.0
 11
51.167752
 21
1478.785098
 31
0.0
 11
56.903821
 21
1437.268613
 31
0.0
 11
75.539937
 21
1398.897701
 31
0.0
  0
SPLINE
  5
117
100
AcDbEntity
  8
0
 62
7
100
AcDbSpline
 70
0
 71
3
 72
10
 73
6
 74
4
 40
0.000000
 40
0.000000
 40
0.000000
 40
0.000000
 40
0.441013
 40
0.881974
 40
1.322987
 40
1.322987
 40
1.322987
 40
1.322987
 10
75.539937
 20
1398.897701
 30
0.0
 10
75.603313
 20
1398.765051
 30
0.0
 10
75.730060
 20
1398.499769
 30
0.0
 10
75.905480
 20
1398.095014
 30
0.0
 10
76.012405
 20
1397.821141
 30
0.0
 10
76.065870
 20
1397.684196
 30
0.0
 11
75.539937
 21
1398.897701
 31
0.0
 11
75.727616
 21
1398.498616
 31
0.0
 11
75.902969
 21
1398.094019
 31
0.0
 11
76.065870
 21
1397.684196
 31
0.0
  0
SPLINE
  5
118
100
AcDbEntity
  8
0
 62
7
100
AcDbSpline
 70
0
 71
3
 72
16
 73
12
 74
10
 40
0.000000
 40
0.000000
 40
0.000000
 40
0.000000
 40
23.937583
 40
49.046524
 40
73.532263
 40
84.832776
 40
95.244009
 40
104.972678
 40
114.446339
 40
124.608460
 40
136.808524
 40
136.808524
 40
136.808524
 40
136.808524
 10
76.065870
 20
1397.684196
 30
0.0
 10
81.184489
 20
1391.444486
 30
0.0
 10
91.672202
 20
1378.659732
 30
0.0
 10
114.522809
 20
1368.087175
 30
0.0
 10
134.744972
 20
1364.384562
 30
0.0
 10
150.177735
 20
1365.835104
 30
0.0
 10
160.289094
 20
1368.879665
 30
0.0
 10
168.920574
 20
1373.855850
 30
0.0
 10
176.065573
 20
1380.690591
 30
0.0
 10
181.425879
 20
1390.090706
 30
0.0
 10
182.746747
 20
1397.474767
 30
0.0
 10
183.467369
 20
1401.503266
 30
0.0
 11
76.065870
 21
1397.684196
 31
0.0
 11
92.554089
 21
1380.330622
 31
0.0
 11
114.987564
 21
1369.052408
 31
0.0
 11
139.156700
 21
1365.127579
 31
0.0
 11
150.401541
 21
1366.247907
 31
0.0
 11
160.346430
 21
1369.328971
 31
0.0
 11
168.757578
 21
1374.217693
 31
0.0
 11
175.555487
 21
1380.816078
 31
0.0
 11
180.577967
 21
1389.650295
 31
0.0
 11
183.467369
 21
1401.503266
 31
0.0
  0
SPLINE
  5
119
100
AcDbEntity
  8
0
 62
7
100
AcDbSpline
 70
0
 71
3
 72
10
 73
6
 74
4
 40
0.000000
 40
0.000000
 40
0.000000
 40
0.000000
 40
0.836815
 40
1.673278
 40
2.510094
 40
2.510094
 40
2.510094
 40
2.510094
 10
183.467369
 20
1401.503266
 30
0.0
 10
183.507527
 20
1401.779349
 30
0.0
 10
183.587826
 20
1402.331400
 30
0.0
 10
183.765858
 20
1403.149901
 30
0.0
 10
183.922118
 20
1403.685429
 30
0.0
 10
184.000264
 20
1403.953250
 30
0.0
 11
183.467369
 21
1401.503266
 31
0.0
 11
183.597442
 21
1402.329910
 31
0.0
 11
183.775224
 21
1403.147262
 31
0.0
 11
184.000264
 21
1403.953250
 31
0.0
  0
SPLINE
  5
11a
100
AcDbEntity
  8
0
 62
7
100
AcDbSpline
 70
0
 71
3
 72
16
 73
12
 74
10
 40
0.000000
 40
0.000000
 40
0.000000
 40
0.000000
 40
21.575531
 40
41.511299
 40
60.573325
 40
79.253665
 40
97.879071
 40
116.638622
 40
154.188323
 40
191.857210
 40
228.829529
 40
228.829529
 40
228.829529
 40
228.829529
 10
184.000264
 20
1403.953250
 30
0.0
 10
186.485582
 20
1410.744438
 30
0.0
 10
191.267332
 20
1423.810676
 30
0.0
 10
204.082678
 20
1439.858970
 30
0.0
 10
219.703388
 20
1451.402354
 30
0.0
 10
237.355371
 20
1458.368988
 30
0.0
 10
255.919391
 20
1461.394239
 30
0.0
 10
281.022811
 20
1460.658433
 30
0.0
 10
311.563728
 20
1452.349392
 30
0.0
 10
344.886640
 20
1433.573721
 30
0.0
 10
360.182406
 20
1413.665956
 30
0.0
 10
367.758917
 20
1403.804965
 30
0.0
 11
184.000264
 21
1403.953250
 31
0.0
 11
192.536969
 21
1423.768098
 31
0.0
 11
204.871444
 21
1439.430013
 31
0.0
 11
220.214304
 21
1450.741842
 31
0.0
 11
237.540541
 21
1457.724435
 31
0.0
 11
255.911069
 21
1460.795179
 31
0.0
 11
274.665378
 21
1460.351735
 31
0.0
 11
311.000896
 21
1450.880191
 31
0.0
 11
343.342773
 21
1431.568328
 31
0.0
 11
367.758917
 21
1403.804965
 31
0.0
  0
LINE
  5
11b
100
AcDbEntity
  8
0
 62
7
100
AcDbLine
 10
368.543550
 20
1402.784009
 30
0.0
 11
368.284851
 21
1402.591460
 31
0.0
  0
SPLINE
  5
11c
100
AcDbEntity
  8
0
 62
7
100
AcDbSpline
 70
0
 71
3
 72
10
 73
6
 74
4
 40
0.000000
 40
0.000000
 40
0.000000
 40
0.000000
 40
0.428810
 40
0.860046
 40
1.288498
 40
1.288498
 40
1.288498
 40
1.288498
 10
367.758917
 20
1403.804965
 30
0.0
 10
367.840845
 20
1403.687634
 30
0.0
 10
368.005165
 20
1403.452307
 30
0.0
 10
368.301437
 20
1403.139382
 30
0.0
 10
368.463020
 20
1402.902210
 30
0.0
 10
368.543550
 20
1402.784009
 30
0.0
 11
367.758917
 21
1403.804965
 31
0.0
 11
368.013013
 21
1403.459548
 31
0.0
 11
368.292996
 21
1403.131563
 31
0.0
 11
368.543550
 21
1402.784009
 31
0.0
  0
SPLINE
  5
11d
100
AcDbEntity
  8
0
 62
7
100
AcDbSpline
 70
0
 71
3
 72
13
 73
9
 74
7
 40
0.000000
 40
0.000000
 40
0.000000
 40
0.000000
 40
74.697135
 40
146.750859
 40
219.195781
 40
292.903124
 40
366.583907
 40
438.304335
 40
438.304335
 40
438.304335
 40
438.304335
 10
368.284851
 20
1402.591460
 30
0.0
 10
380.841037
 20
1380.821196
 30
0.0
 10
405.509065
 20
1338.051083
 30
0.0
 10
414.310673
 20
1263.803059
 30
0.0
 10
404.725217
 20
1191.208896
 30
0.0
 10
379.104218
 20
1122.069847
 30
0.0
 10
342.401931
 20
1058.295570
 30
0.0
 10
309.508320
 20
1022.529787
 30
0.0
 10
293.283257
 20
1004.888000
 30
0.0
 11
368.284851
 21
1402.591460
 31
0.0
 11
401.088940
 21
1335.482938
 31
0.0
 11
411.273935
 21
1264.152686
 31
0.0
 11
402.172953
 21
1192.281698
 31
0.0
 11
377.222729
 21
1122.925669
 31
0.0
 11
339.881153
 21
1059.408234
 31
0.0
 11
293.283257
 21
1004.888000
 31
0.0
  0
SPLINE
  5
11e
100
AcDbEntity
  8
0
 62
7
100
AcDbSpline
 70
0
 71
3
 72
10
 73
6
 74
4
 40
0.000000
 40
0.000000
 40
0.000000
 40
0.000000
 40
0.106436
 40
0.216189
 40
0.322696
 40
0.322696
 40
0.322696
 40
0.322696
 10
293.283257
 20
1004.888000
 30
0.0
 10
293.255869
 20
1004.865378
 30
0.0
 10
293.200239
 20
1004.819428
 30
0.0
 10
293.107626
 20
1004.764037
 30
0.0
 10
293.051969
 20
1004.718084
 30
0.0
 10
293.024558
 20
1004.695452
 30
0.0
 11
293.283257
 21
1004.888000
 31
0.0
 11
293.199537
 21
1004.822276
 31
0.0
 11
293.108345
 21
1004.761205
 31
0.0
 11
293.024558
 21
1004.695452
 31
0.0
  0
LINE
  5
11f
100
AcDbEntity
  8
0
 62
7
100
AcDbLine
 10
58.432108
 20
856.971555
 30
0.0
 11
86.976922
 21
612.147372
 31
0.0
  0
SPLINE
  5
120
100
AcDbEntity
  8
0
 62
7
100
AcDbSpline
 70
0
 71
3
 72
10
 73
6
 74
4
 40
0.000000
 40
0.000000
 40
0.000000
 40
0.000000
 40
94.279898
 40
186.842285
 40
279.043304
 40
279.043304
 40
279.043304
 40
279.043304
 10
293.024558
 20
1004.695452
 30
0.0
 10
269.651944
 20
983.615847
 30
0.0
 10
223.332499
 20
941.840647
 30
0.0
 10
143.569293
 20
892.831482
 30
0.0
 10
86.774142
 20
868.909268
 30
0.0
 10
58.432108
 20
856.971555
 30
0.0
 11
293.024558
 21
1004.695452
 31
0.0
 11
221.101853
 21
943.737896
 31
0.0
 11
142.466748
 21
894.908439
 31
0.0
 11
58.432108
 21
856.971555
 31
0.0
  0
SPLINE
  5
121
100
AcDbEntity
  8
0
 62
7
100
AcDbSpline
 70
0
 71
3
 72
10
 73
6
 74
4
 40
0.000000
 40
0.000000
 40
0.000000
 40
0.000000
 40
3.532196
 40
7.064472
 40
10.600522
 40
10.600522
 40
10.600522
 40
10.600522
 10
86.976922
 20
612.147372
 30
0.0
 10
88.096678
 20
612.511259
 30
0.0
 10
90.336215
 20
613.239040
 30
0.0
 10
93.694427
 20
614.338210
 30
0.0
 10
95.929641
 20
615.083250
 30
0.0
 10
97.047845
 20
615.455969
 30
0.0
 11
86.976922
 21
612.147372
 31
0.0
 11
90.335806
 21
613.240216
 31
0.0
 11
93.692230
 21
614.340846
 31
0.0
 11
97.047845
 21
615.455969
 31
0.0
  0
SPLINE
  5
122
100
AcDbEntity
  8
0
 62
7
100
AcDbSpline
 70
0
 71
3
 72
10
 73
6
 74
4
 40
0.000000
 40
0.000000
 40
0.000000
 40
0.000000
 40
0.107486
 40
0.214971
 40
0.322457
 40
0.322457
 40
0.322457
 40
0.322457
 10
97.047845
 20
615.455969
 30
0.0
 10
97.076372
 20
615.477646
 30
0.0
 10
97.133427
 20
615.520999
 30
0.0
 10
97.219589
 20
615.585261
 30
0.0
 10
97.277411
 20
615.627586
 30
0.0
 10
97.306322
 20
615.648748
 30
0.0
 11
97.047845
 21
615.455969
 31
0.0
 11
97.133524
 21
615.520871
 31
0.0
 11
97.219684
 21
615.585132
 31
0.0
 11
97.306322
 21
615.648748
 31
0.0
  0
SPLINE
  5
123
100
AcDbEntity
  8
0
 62
7
100
AcDbSpline
 70
0
 71
3
 72
10
 73
6
 74
4
 40
0.000000
 40
0.000000
 40
0.000000
 40
0.000000
 40
262.800645
 40
524.449860
 40
784.315271
 40
784.315271
 40
784.315271
 40
784.315271
 10
97.306322
 20
615.648748
 30
0.0
 10
178.448548
 20
649.115402
 30
0.0
 10
340.377483
 20
715.902080
 30
0.0
 10
542.664460
 20
897.475123
 30
0.0
 10
603.650498
 20
1062.509803
 30
0.0
 10
634.039217
 20
1144.744899
 30
0.0
 11
97.306322
 21
615.648748
 31
0.0
 11
334.037383
 21
729.765287
 31
0.0
 11
524.618427
 21
909.039314
 31
0.0
 11
634.039217
 21
1144.744899
 31
0.0
  0
SPLINE
  5
124
100
AcDbEntity
  8
0
 62
7
100
AcDbSpline
 70
0
 71
3
 72
10
 73
6
 74
4
 40
0.000000
 40
0.000000
 40
0.000000
 40
0.000000
 40
0.107486
 40
0.214971
 40
0.322457
 40
0.322457
 40
0.322457
 40
0.322457
 10
634.039217
 20
1144.744899
 30
0.0
 10
634.067745
 20
1144.766575
 30
0.0
 10
634.124799
 20
1144.809929
 30
0.0
 10
634.210962
 20
1144.874191
 30
0.0
 10
634.268784
 20
1144.916516
 30
0.0
 10
634.297695
 20
1144.937678
 30
0.0
 11
634.039217
 21
1144.744899
 31
0.0
 11
634.124896
 21
1144.809801
 31
0.0
 11
634.211057
 21
1144.874062
 31
0.0
 11
634.297695
 21
1144.937678
 31
0.0
  0
LINE
  5
125
100
AcDbEntity
  8
0
 62
7
100
AcDbLine
 10
527.085273
 20
1568.925274
 30
0.0
 11
527.085273
 21
1568.925274
 31
0.0
  0
LINE
  5
126
100
AcDbEntity
  8
0
 62
7
100
AcDbLine
 10
125.165153
 20
833.083539
 30
0.0
 11
144.968261
 21
812.422340
 31
0.0
  0
LINE
  5
127
100
AcDbEntity
  8
0
 62
7
100
AcDbLine
 10
144.968261
 20
812.422340
 30
0.0
 11
123.279339
 21
791.634191
 31
0.0
  0
LINE
  5
128
100
AcDbEntity
  8
0
 62
7
100
AcDbLine
 10
123.279339
 20
791.634191
 30
0.0
 11
103.476230
 21
812.295389
 31
0.0
  0
LINE
  5
129
100
AcDbEntity
  8
0
 62
7
100
AcDbLine
 10
103.476230
 20
812.295389
 30
0.0
 11
125.165153
 21
833.083539
 31
0.0
  0
LINE
  5
12a
100
AcDbEntity
  8
0
 62
7
100
AcDbLine
 10
404.714597
 20
902.805194
 30
0.0
 11
422.278369
 21
884.480364
 31
0.0
  0
LINE
  5
12b
100
AcDbEntity
  8
0
 62
7
100
AcDbLine
 10
422.278369
 20
884.480364
 30
0.0
 11
403.953539
 21
866.916591
 31
0.0
  0
LINE
  5
12c
100
AcDbEntity
  8
0
 62
7
100
AcDbLine
 10
403.953539
 20
866.916591
 30
0.0
 11
386.389767
 21
885.241421
 31
0.0
  0
LINE
  5
12d
100
AcDbEntity
  8
0
 62
7
100
AcDbLine
 10
386.389767
 20
885.241421
 30
0.0
 11
404.714597
 21
902.805194
 31
0.0
  0
SPLINE
  5
12e
100
AcDbEntity
  8
0
 62
7
100
AcDbSpline
 70
0
 71
3
 72
13
 73
9
 74
7
 40
0.000000
 40
0.000000
 40
0.000000
 40
0.000000
 40
149.756357
 40
300.439892
 40
448.745504
 40
450.291299
 40
451.839556
 40
453.385532
 40
453.385532
 40
453.385532
 40
453.385532
 10
634.297695
 20
1144.937678
 30
0.0
 10
641.399494
 20
1194.766773
 30
0.0
 10
655.647063
 20
1294.733468
 30
0.0
 10
617.672983
 20
1443.029489
 30
0.0
 10
563.967315
 20
1530.087044
 30
0.0
 10
529.232256
 20
1566.698237
 30
0.0
 10
528.160094
 20
1567.813000
 30
0.0
 10
527.443371
 20
1568.554698
 30
0.0
 10
527.085273
 20
1568.925274
 30
0.0
 11
634.297695
 21
1144.937678
 31
0.0
 11
645.746309
 21
1294.255780
 31
0.0
 11
610.327420
 21
1440.717482
 31
0.0
 11
530.295950
 21
1565.575475
 31
0.0
 11
529.231553
 21
1566.696430
 31
0.0
 11
528.159130
 21
1567.813125
 31
0.0
 11
527.085273
 21
1568.925274
 31
0.0
  0
ENDSEC
  0
SECTION
  2
OBJECTS
  0
DICTIONARY
  5
C
330
0
100
AcDbDictionary
  3
ACAD_GROUP
350
D
  3
ACAD_MLINESTYLE
350
17
  0
DICTIONARY
  5
D
330
C
100
AcDbDictionary
  0
DICTIONARY
  5
1A
330
C
100
AcDbDictionary
  0
DICTIONARY
  5
17
330
C
100
AcDbDictionary
  3
STANDARD
350
18
  0
DICTIONARY
  5
19
330
C
100
AcDbDictionary
  0
ENDSEC
  0
EOF
