  0
SECTION
  2
HEADER
  9
$ACADVER
  1
AC1014
  9
$HANDSEED
  5
FFFF
  9
$MEASUREMENT
 70
     1
  0
ENDSEC
  0
SECTION
  2
TABLES
  0
TABLE
  2
VPORT
  5
8
330
0
100
AcDbSymbolTable
 70
     4
  0
VPORT
  5
2E
330
8
100
AcDbSymbolTableRecord
100
AcDbViewportTableRecord
  2
*ACTIVE
 70
     0
 10
0.0
 20
0.0
 11
1.0
 21
1.0
 12
210.0
 22
148.5
 13
0.0
 23
0.0
 14
10.0
 24
10.0
 15
10.0
 25
10.0
 16
0.0
 26
0.0
 36
1.0
 17
0.0
 27
0.0
 37
0.0
 40
341.0
 41
1.24
 42
50.0
 43
0.0
 44
0.0
 50
0.0
 51
0.0
 71
     0
 72
   100
 73
     1
 74
     3
 75
     0
 76
     0
 77
     0
 78
     0
  0
ENDTAB
  0
TABLE
  2
LTYPE
  5
5
330
0
100
AcDbSymbolTable
 70
     1
  0
LTYPE
  5
14
330
5
100
AcDbSymbolTableRecord
100
AcDbLinetypeTableRecord
  2
BYBLOCK
 70
     0
  3

 72
    65
 73
     0
 40
0.0
  0
LTYPE
  5
15
330
5
100
AcDbSymbolTableRecord
100
AcDbLinetypeTableRecord
  2
BYLAYER
 70
     0
  3

 72
    65
 73
     0
 40
0.0
  0
LTYPE
  5
16
330
5
100
AcDbSymbolTableRecord
100
AcDbLinetypeTableRecord
  2
CONTINUOUS
 70
     0
  3
Solid line
 72
    65
 73
     0
 40
0.0
  0
ENDTAB
  0
TABLE
  2
LAYER
  5
2
100
AcDbSymbolTable
 70
1
  0
LAYER
  5
50
100
AcDbSymbolTableRecord
100
AcDbLayerTableRecord
  2
0
 70
0
  6
CONTINUOUS
  0
ENDTAB
  0
TABLE
  2
STYLE
  5
3
330
0
100
AcDbSymbolTable
 70
     1
  0
STYLE
  5
11
330
3
100
AcDbSymbolTableRecord
100
AcDbTextStyleTableRecord
  2
STANDARD
 70
     0
 40
0.0
 41
1.0
 50
0.0
 71
     0
 42
2.5
  3
txt
  4

  0
ENDTAB
  0
TABLE
  2
VIEW
  5
6
330
0
100
AcDbSymbolTable
 70
     0
  0
ENDTAB
  0
TABLE
  2
UCS
  5
7
330
0
100
AcDbSymbolTable
 70
     0
  0
ENDTAB
  0
TABLE
  2
APPID
  5
9
330
0
100
AcDbSymbolTable
 70
     2
  0
APPID
  5
12
330
9
100
AcDbSymbolTableRecord
100
AcDbRegAppTableRecord
  2
ACAD
 70
     0
  0
ENDTAB
  0
TABLE
  2
DIMSTYLE
  5
A
330
0
100
AcDbSymbolTable
 70
     1
  0
DIMSTYLE
105
27
330
A
100
AcDbSymbolTableRecord
100
AcDbDimStyleTableRecord
  2
ISO-25
 70
     0
  3

  4

  5

  6

  7

 40
1.0
 41
2.5
 42
0.625
 43
3.75
 44
1.25
 45
0.0
 46
0.0
 47
0.0
 48
0.0
140
2.5
141
2.5
142
0.0
143
0.03937007874016
144
1.0
145
0.0
146
1.0
147
0.625
 71
     0
 72
     0
 73
     0
 74
     0
 75
     0
 76
     0
 77
     1
 78
     8
170
     0
171
     3
172
     1
173
     0
174
     0
175
     0
176
     0
177
     0
178
     0
270
     2
271
     2
272
     2
273
     2
274
     3
340
11
275
     0
280
     0
281
     0
282
     0
283
     0
284
     8
285
     0
286
     0
287
     3
288
     0
  0
ENDTAB
  0
TABLE
  2
BLOCK_RECORD
  5
1
330
0
100
AcDbSymbolTable
 70
     1
  0
BLOCK_RECORD
  5
1F
330
1
100
AcDbSymbolTableRecord
100
AcDbBlockTableRecord
  2
*MODEL_SPACE
  0
BLOCK_RECORD
  5
1B
330
1
100
AcDbSymbolTableRecord
100
AcDbBlockTableRecord
  2
*PAPER_SPACE
  0
ENDTAB
  0
ENDSEC
  0
SECTION
  2
BLOCKS
  0
BLOCK
  5
20
330
1F
100
AcDbEntity
  8
0
100
AcDbBlockBegin
  2
*MODEL_SPACE
 70
     0
 10
0.0
 20
0.0
 30
0.0
  3
*MODEL_SPACE
  1

  0
ENDBLK
  5
21
330
1F
100
AcDbEntity
  8
0
100
AcDbBlockEnd
  0
BLOCK
  5
1C
330
1B
100
AcDbEntity
 67
     1
  8
0
100
AcDbBlockBegin
  2
*PAPER_SPACE
  1

  0
ENDBLK
  5
1D
330
1B
100
AcDbEntity
 67
     1
  8
0
100
AcDbBlockEnd
  0
ENDSEC
  0
SECTION
  2
ENTITIES
  0
LINE
  5
100
100
AcDbEntity
  8
0
 62
7
100
AcDbLine
 10
38.076792
 20
1709.854420
 30
0.0
 11
34.086526
 21
1352.236871
 31
0.0
  0
SPLINE
  5
101
100
AcDbEntity
  8
0
 62
7
100
AcDbSpline
 70
0
 71
3
 72
10
 73
6
 74
4
 40
0.000000
 40
0.000000
 40
0.000000
 40
0.000000
 40
215.289701
 40
434.515118
 40
654.339826
 40
654.339826
 40
654.339826
 40
654.339826
 10
34.086526
 20
1352.236871
 30
0.0
 10
79.499432
 20
1296.005171
 30
0.0
 10
171.155439
 20
1182.513798
 30
0.0
 10
241.681298
 20
972.214601
 30
0.0
 10
265.069938
 20
827.916550
 30
0.0
 10
276.780220
 20
755.669043
 30
0.0
 11
34.086526
 21
1352.236871
 31
0.0
 11
159.321516
 21
1177.120188
 31
0.0
 11
235.649796
 21
971.611606
 31
0.0
 11
276.780220
 21
755.669043
 31
0.0
  0
SPLINE
  5
102
100
AcDbEntity
  8
0
 62
7
100
AcDbSpline
 70
0
 71
3
 72
10
 73
6
 74
4
 40
0.000000
 40
0.000000
 40
0.000000
 40
0.000000
 40
108.954070
 40
218.359153
 40
328.339320
 40
328.339320
 40
328.339320
 40
328.339320
 10
276.780220
 20
755.669043
 30
0.0
 10
280.895687
 20
719.582480
 30
0.0
 10
289.143657
 20
647.259973
 30
0.0
 10
297.780902
 20
538.137392
 30
0.0
 10
302.396386
 20
465.155581
 30
0.0
 10
304.710177
 20
428.569020
 30
0.0
 11
276.780220
 21
755.669043
 31
0.0
 11
288.503243
 21
647.347485
 31
0.0
 11
297.478379
 21
538.311164
 31
0.0
 11
304.710177
 21
428.569020
 31
0.0
  0
SPLINE
  5
103
100
AcDbEntity
  8
0
 62
7
100
AcDbSpline
 70
0
 71
3
 72
19
 73
15
 74
13
 40
0.000000
 40
0.000000
 40
0.000000
 40
0.000000
 40
7.346568
 40
14.484241
 40
21.830809
 40
91.709094
 40
221.483052
 40
291.361338
 40
295.194885
 40
298.995667
 40
302.829213
 40
306.662759
 40
310.463541
 40
314.297088
 40
314.297088
 40
314.297088
 40
314.297088
 10
304.710177
 20
428.569020
 30
0.0
 10
305.271809
 20
426.142145
 30
0.0
 10
306.379104
 20
421.357402
 30
0.0
 10
312.254047
 20
416.126632
 30
0.0
 10
340.676494
 20
412.580923
 30
0.0
 10
409.212897
 20
420.354545
 30
0.0
 10
499.239590
 20
421.811879
 30
0.0
 10
567.026521
 20
420.495826
 30
0.0
 10
592.837765
 20
423.644867
 30
0.0
 10
596.332799
 20
425.348010
 30
0.0
 10
599.280850
 20
427.843836
 30
0.0
 10
601.441820
 20
431.044565
 30
0.0
 10
602.759512
 20
434.703909
 30
0.0
 10
602.784613
 20
437.263891
 30
0.0
 10
602.797217
 20
438.549376
 30
0.0
 11
304.710177
 21
428.569020
 31
0.0
 11
307.112991
 21
421.626502
 31
0.0
 11
312.436294
 21
416.871630
 31
0.0
 11
319.604968
 21
415.264716
 31
0.0
 11
389.453051
 21
417.318994
 31
0.0
 11
519.170920
 21
421.134082
 31
0.0
 11
589.019003
 21
423.188361
 31
0.0
 11
592.794339
 21
423.853883
 31
0.0
 11
596.232560
 21
425.473939
 31
0.0
 11
599.149295
 21
427.961655
 31
0.0
 11
601.306441
 21
431.130693
 31
0.0
 11
602.544546
 21
434.724165
 31
0.0
 11
602.797217
 21
438.549376
 31
0.0
  0
SPLINE
  5
104
100
AcDbEntity
  8
0
 62
7
100
AcDbSpline
 70
0
 71
3
 72
10
 73
6
 74
4
 40
0.000000
 40
0.000000
 40
0.000000
 40
0.000000
 40
291.756362
 40
583.221984
 40
876.115950
 40
876.115950
 40
876.115950
 40
876.115950
 10
602.797217
 20
438.549376
 30
0.0
 10
596.382702
 20
535.493670
 30
0.0
 10
583.560062
 20
729.285651
 30
0.0
 10
544.226028
 20
1020.687048
 30
0.0
 10
471.352004
 20
1202.119202
 30
0.0
 10
434.825930
 20
1293.057016
 30
0.0
 11
602.797217
 21
438.549376
 31
0.0
 11
580.209926
 21
729.430089
 31
0.0
 11
532.687419
 21
1016.995421
 31
0.0
 11
434.825930
 21
1293.057016
 31
0.0
  0
SPLINE
  5
105
100
AcDbEntity
  8
0
 62
7
100
AcDbSpline
 70
0
 71
3
 72
10
 73
6
 74
4
 40
0.000000
 40
0.000000
 40
0.000000
 40
0.000000
 40
0.104112
 40
0.218216
 40
0.323550
 40
0.323550
 40
0.323550
 40
0.323550
 10
434.825930
 20
1293.057016
 30
0.0
 10
434.804654
 20
1293.084719
 30
0.0
 10
434.760062
 20
1293.142785
 30
0.0
 10
434.667378
 20
1293.201581
 30
0.0
 10
434.622141
 20
1293.259633
 30
0.0
 10
434.600426
 20
1293.287499
 30
0.0
 11
434.825930
 21
1293.057016
 31
0.0
 11
434.758025
 21
1293.135936
 31
0.0
 11
434.669631
 21
1293.208088
 31
0.0
 11
434.600426
 21
1293.287499
 31
0.0
  0
LINE
  5
106
100
AcDbEntity
  8
0
 62
7
100
AcDbLine
 10
38.076592
 20
1709.854169
 30
0.0
 11
38.076792
 21
1709.854420
 31
0.0
  0
LINE
  5
107
100
AcDbEntity
  8
0
 62
7
100
AcDbLine
 10
37.722397
 20
1677.578836
 30
0.0
 11
34.525018
 21
1391.581037
 31
0.0
  0
SPLINE
  5
108
100
AcDbEntity
  8
0
 62
7
100
AcDbSpline
 70
0
 71
3
 72
10
 73
6
 74
4
 40
0.000000
 40
0.000000
 40
0.000000
 40
0.000000
 40
194.532019
 40
390.463895
 40
584.819992
 40
584.819992
 40
584.819992
 40
584.819992
 10
434.600426
 20
1293.287499
 30
0.0
 10
403.357407
 20
1350.218648
 30
0.0
 10
340.646543
 20
1464.490623
 30
0.0
 10
206.712425
 20
1610.612458
 30
0.0
 10
94.137030
 20
1676.862760
 30
0.0
 10
38.076592
 20
1709.854169
 30
0.0
 11
434.600426
 21
1293.287499
 31
0.0
 11
334.241098
 21
1459.932966
 31
0.0
 11
200.506493
 21
1603.126385
 31
0.0
 11
38.076592
 21
1709.854169
 31
0.0
  0
SPLINE
  5
109
100
AcDbEntity
  8
0
 62
7
100
AcDbSpline
 70
0
 71
3
 72
10
 73
6
 74
4
 40
0.000000
 40
0.000000
 40
0.000000
 40
0.000000
 40
233.141554
 40
467.536942
 40
700.398141
 40
700.398141
 40
700.398141
 40
700.398141
 10
34.525018
 20
1391.581037
 30
0.0
 10
86.121260
 20
1332.591430
 30
0.0
 10
189.591227
 20
1214.294972
 30
0.0
 10
267.927803
 20
989.540458
 30
0.0
 10
292.951253
 20
836.022464
 30
0.0
 10
305.421898
 20
759.515498
 30
0.0
 11
34.525018
 21
1391.581037
 31
0.0
 11
176.587791
 21
1206.721218
 31
0.0
 11
261.245300
 21
988.147880
 31
0.0
 11
305.421898
 21
759.515498
 31
0.0
  0
SPLINE
  5
10a
100
AcDbEntity
  8
0
 62
7
100
AcDbSpline
 70
0
 71
3
 72
10
 73
6
 74
4
 40
0.000000
 40
0.000000
 40
0.000000
 40
0.000000
 40
0.106874
 40
0.213747
 40
0.320620
 40
0.320620
 40
0.320620
 40
0.320620
 10
305.421898
 20
759.515498
 30
0.0
 10
305.398248
 20
759.488855
 30
0.0
 10
305.350949
 20
759.435571
 30
0.0
 10
305.279290
 20
759.356278
 30
0.0
 10
305.231050
 20
759.303844
 30
0.0
 10
305.206929
 20
759.277627
 30
0.0
 11
305.421898
 21
759.515498
 31
0.0
 11
305.350830
 21
759.435676
 31
0.0
 11
305.279173
 21
759.356385
 31
0.0
 11
305.206929
 21
759.277627
 31
0.0
  0
LINE
  5
10b
100
AcDbEntity
  8
0
 62
7
100
AcDbLine
 10
332.361704
 20
444.713803
 30
0.0
 11
572.885116
 21
451.751606
 31
0.0
  0
SPLINE
  5
10c
100
AcDbEntity
  8
0
 62
7
100
AcDbSpline
 70
0
 71
3
 72
10
 73
6
 74
4
 40
0.000000
 40
0.000000
 40
0.000000
 40
0.000000
 40
105.073963
 40
210.272586
 40
315.779464
 40
315.779464
 40
315.779464
 40
315.779464
 10
305.206929
 20
759.277627
 30
0.0
 10
309.188231
 20
724.477742
 30
0.0
 10
317.155558
 20
654.836685
 30
0.0
 10
325.594014
 20
549.899443
 30
0.0
 10
330.103608
 20
479.809863
 30
0.0
 10
332.361704
 20
444.713803
 30
0.0
 11
305.206929
 21
759.277627
 31
0.0
 11
316.564458
 21
654.819290
 31
0.0
 11
325.306344
 21
549.984517
 31
0.0
 11
332.361704
 21
444.713803
 31
0.0
  0
SPLINE
  5
10d
100
AcDbEntity
  8
0
 62
7
100
AcDbSpline
 70
0
 71
3
 72
10
 73
6
 74
4
 40
0.000000
 40
0.000000
 40
0.000000
 40
0.000000
 40
285.468988
 40
568.098073
 40
849.934689
 40
849.934689
 40
849.934689
 40
849.934689
 10
572.885116
 20
451.751606
 30
0.0
 10
566.475132
 20
546.600462
 30
0.0
 10
553.718932
 20
735.354597
 30
0.0
 10
514.661775
 20
1017.906844
 30
0.0
 10
444.165787
 20
1193.099488
 30
0.0
 10
408.967278
 20
1280.572831
 30
0.0
 11
572.885116
 21
451.751606
 31
0.0
 11
550.284293
 21
736.324524
 31
0.0
 11
503.454803
 21
1015.046964
 31
0.0
 11
408.967278
 21
1280.572831
 31
0.0
  0
SPLINE
  5
10e
100
AcDbEntity
  8
0
 62
7
100
AcDbSpline
 70
0
 71
3
 72
10
 73
6
 74
4
 40
0.000000
 40
0.000000
 40
0.000000
 40
0.000000
 40
0.107486
 40
0.214971
 40
0.322457
 40
0.322457
 40
0.322457
 40
0.322457
 10
408.967278
 20
1280.572831
 30
0.0
 10
408.941993
 20
1280.598215
 30
0.0
 10
408.891423
 20
1280.648984
 30
0.0
 10
408.816252
 20
1280.725814
 30
0.0
 10
408.766600
 20
1280.777480
 30
0.0
 10
408.741774
 20
1280.803314
 30
0.0
 11
408.967278
 21
1280.572831
 31
0.0
 11
408.891537
 21
1280.649097
 31
0.0
 11
408.816368
 21
1280.725926
 31
0.0
 11
408.741774
 21
1280.803314
 31
0.0
  0
LINE
  5
10f
100
AcDbEntity
  8
0
 62
7
100
AcDbLine
 10
37.722348
 20
1677.578466
 30
0.0
 11
37.722397
 21
1677.578836
 31
0.0
  0
LINE
  5
110
100
AcDbEntity
  8
0
 62
7
100
AcDbLine
 10
189.534970
 20
1279.439257
 30
0.0
 11
207.372995
 21
1301.819004
 31
0.0
  0
LINE
  5
111
100
AcDbEntity
  8
0
 62
7
100
AcDbLine
 10
207.372995
 20
1301.819004
 30
0.0
 11
230.865950
 21
1283.093685
 31
0.0
  0
LINE
  5
112
100
AcDbEntity
  8
0
 62
7
100
AcDbLine
 10
230.865950
 20
1283.093685
 30
0.0
 11
213.027925
 21
1260.713938
 31
0.0
  0
LINE
  5
113
100
AcDbEntity
  8
0
 62
7
100
AcDbLine
 10
213.027925
 20
1260.713938
 30
0.0
 11
189.534970
 21
1279.439257
 31
0.0
  0
LINE
  5
114
100
AcDbEntity
  8
0
 62
7
100
AcDbLine
 10
83.183207
 20
1547.204521
 30
0.0
 11
99.004107
 21
1567.053565
 31
0.0
  0
LINE
  5
115
100
AcDbEntity
  8
0
 62
7
100
AcDbLine
 10
99.004107
 20
1567.053565
 30
0.0
 11
118.853150
 21
1551.232666
 31
0.0
  0
LINE
  5
116
100
AcDbEntity
  8
0
 62
7
100
AcDbLine
 10
118.853150
 20
1551.232666
 30
0.0
 11
103.032251
 21
1531.383622
 31
0.0
  0
LINE
  5
117
100
AcDbEntity
  8
0
 62
7
100
AcDbLine
 10
103.032251
 20
1531.383622
 30
0.0
 11
83.183207
 21
1547.204521
 31
0.0
  0
SPLINE
  5
118
100
AcDbEntity
  8
0
 62
7
100
AcDbSpline
 70
0
 71
3
 72
10
 73
6
 74
4
 40
0.000000
 40
0.000000
 40
0.000000
 40
0.000000
 40
184.032537
 40
368.958667
 40
551.834035
 40
551.834035
 40
551.834035
 40
551.834035
 10
408.741774
 20
1280.803314
 30
0.0
 10
379.262764
 20
1334.702981
 30
0.0
 10
320.161607
 20
1442.764031
 30
0.0
 10
194.845787
 20
1581.365791
 30
0.0
 10
89.901781
 20
1645.627009
 30
0.0
 10
37.722348
 20
1677.578466
 30
0.0
 11
408.741774
 21
1280.803314
 31
0.0
 11
314.163215
 21
1438.673105
 31
0.0
 11
188.965178
 21
1574.772792
 31
0.0
 11
37.722348
 21
1677.578466
 31
0.0
  0
ENDSEC
  0
SECTION
  2
OBJECTS
  0
DICTIONARY
  5
C
330
0
100
AcDbDictionary
  3
ACAD_GROUP
350
D
  3
ACAD_MLINESTYLE
350
17
  0
DICTIONARY
  5
D
330
C
100
AcDbDictionary
  0
DICTIONARY
  5
1A
330
C
100
AcDbDictionary
  0
DICTIONARY
  5
17
330
C
100
AcDbDictionary
  3
STANDARD
350
18
  0
DICTIONARY
  5
19
330
C
100
AcDbDictionary
  0
ENDSEC
  0
EOF
