<?xml version="1.0" encoding="UTF-8" standalone="no"?>
<!-- Created with Inkscape (http://www.inkscape.org/) -->

<svg
   version="1.1"
   id="svg2"
   width="280.95999"
   height="282.23999"
   viewBox="0 0 280.95999 282.23999"
   sodipodi:docname="chickenyeah.svg"
   inkscape:version="1.1.2 (0a00cf5339, 2022-02-04)"
   xmlns:inkscape="http://www.inkscape.org/namespaces/inkscape"
   xmlns:sodipodi="http://sodipodi.sourceforge.net/DTD/sodipodi-0.dtd"
   xmlns="http://www.w3.org/2000/svg"
   xmlns:svg="http://www.w3.org/2000/svg">
  <defs
     id="defs6" />
  <sodipodi:namedview
     id="namedview4"
     pagecolor="#ffffff"
     bordercolor="#666666"
     borderopacity="1.0"
     inkscape:pageshadow="2"
     inkscape:pageopacity="0.0"
     inkscape:pagecheckerboard="0"
     showgrid="false"
     inkscape:zoom="2.0243137"
     inkscape:cx="230.94247"
     inkscape:cy="178.08505"
     inkscape:window-width="1920"
     inkscape:window-height="1016"
     inkscape:window-x="0"
     inkscape:window-y="0"
     inkscape:window-maximized="1"
     inkscape:current-layer="g8" />
  <g
     inkscape:groupmode="layer"
     inkscape:label="Image"
     id="g8">
    <path
       style="fill:#8c8c8c;fill-opacity:1;stroke-width:0.32"
       d="M 0.54856986,142.14338 V 1.0233909 H 141.02856 h 140.48 v 141.1199891 141.12 H 141.02856 0.54856986 Z M 121.34691,275.37974 c 0.92812,-0.35616 1.12616,-1.51828 0.56027,-3.28786 -0.32652,-1.02106 -0.40911,-1.74423 -0.2204,-1.92999 0.18584,-0.18294 2.14589,-0.0709 5.10179,0.29175 2.64,0.32384 6.96,0.73838 9.6,0.9212 2.64,0.18281 6.31199,0.56633 8.15999,0.85226 3.47735,0.53802 7.0299,0.43877 8.51505,-0.23791 1.59512,-0.72679 0.44253,-3.43296 -1.6901,-3.96822 -0.40972,-0.10283 -0.74495,-0.38736 -0.74495,-0.63228 0,-0.84219 1.0932,-0.70757 17.28,2.12806 12.28214,2.15159 13.9474,2.21484 14.53222,0.55189 0.40345,-1.14719 -0.262,-1.87398 -2.90894,-3.17706 -3.2406,-1.59534 -2.80242,-1.84601 2.87485,-1.64464 4.82506,0.17114 4.92529,0.16088 6.71999,-0.68815 1.47088,-0.69583 1.82188,-1.00995 1.82188,-1.63043 0,-1.75981 -3.31182,-2.26276 -20,-3.03731 -11.91139,-0.55284 -15.90205,-0.88432 -20.96,-1.74099 -5.41668,-0.91744 -7.92871,-1.83202 -8.83627,-3.21714 -1.13492,-1.73211 -0.90156,-9.09523 0.34217,-10.79613 0.32797,-0.44853 1.18404,-0.62341 4.21286,-0.86059 4.26438,-0.33394 10.74034,-1.13744 12.92124,-1.60321 0.792,-0.16914 2.592,-0.46617 4,-0.66007 9.63565,-1.32694 12.05091,-1.97 20.64,-5.4954 9.88826,-4.05864 19.71988,-9.66458 25.30048,-14.42621 4.20244,-3.58573 10.86717,-11.34607 11.73827,-13.66793 0.099,-0.264 0.78374,-1.344 1.52155,-2.4 2.56285,-3.66814 5.73979,-10.55266 7.82638,-16.96 0.40121,-1.232 0.87749,-2.6 1.05839,-3.04 0.76669,-1.86471 3.87585,-10.97049 4.75298,-13.92 0.52339,-1.76 1.15033,-3.632 1.3932,-4.16 0.24287,-0.528 0.67033,-1.824 0.94991,-2.88 0.27958,-1.056 0.74103,-2.64 1.02543,-3.52 0.66353,-2.05307 1.88714,-7.38774 2.67904,-11.68 0.59176,-3.20746 0.8909,-6.51882 1.58992,-17.59999 0.92377,-7.08271 1.48639,-14.49294 2.23884,-20.16 0.1762,-1.32 0.54213,-3.336 0.81317,-4.48 0.27103,-1.144 0.56295,-2.404 0.64869,-2.8 0.19224,-0.8878 0.76278,-0.90694 2.38371,-0.08 0.78212,0.399 1.88601,0.64 2.93155,0.64 1.62145,0 1.7362,-0.061 3.4611,-1.84 1.15945,-1.19582 1.92566,-2.31614 2.18854,-3.200002 0.22248,-0.748 0.59445,-1.36 0.8266,-1.36 0.23216,0 1.08763,-0.585815 1.90104,-1.301808 1.19895,-1.05536 1.60124,-1.697828 2.12505,-3.393706 0.81508,-2.638915 0.80394,-3.201126 -0.12624,-6.369907 -0.76311,-2.599603 -1.51963,-4.277603 -2.72969,-6.054579 -0.35955,-0.528 -0.65468,-1.278934 -0.65584,-1.668742 -0.004,-1.253683 1.01582,-1.476605 5.87384,-1.284291 4.83959,0.191587 5.96405,-0.0085 5.96405,-1.061389 0,-0.844819 -1.56151,-3.144637 -3.68382,-5.425577 -3.00473,-3.229322 -3.00825,-3.236772 -2.80349,-5.944061 0.13592,-1.797216 -0.006,-3.375117 -0.56167,-6.26256 -0.63986,-3.322525 -0.68272,-3.955613 -0.30787,-4.546688 2.27795,-3.591865 2.86442,-5.628848 2.35457,-8.178115 -0.54481,-2.724048 -3.57721,-3.901955 -6.70633,-2.605008 -0.93979,0.389524 -1.83779,0.628448 -1.99555,0.530944 -0.15776,-0.0975 -0.36182,-1.11142 -0.45346,-2.253155 -0.17961,-2.237484 -1.25974,-4.536969 -2.55842,-5.446604 -1.05582,-0.739523 -3.20622,-0.610954 -5.10542,0.305248 -1.96503,0.947961 -2.39459,0.987049 -2.63751,0.24 -0.58813,-1.808675 -3.74925,-3.799818 -7.00103,-4.409856 -1.60473,-0.301051 -4.09951,0.642128 -5.6831,2.14856 -1.13304,1.077833 -1.2569,1.352141 -1.2569,2.78359 0,1.234285 0.29756,2.168288 1.33612,4.193862 0.73486,1.433264 1.81911,3.133239 2.40944,3.777725 0.59032,0.644483 1.03307,1.361027 0.98388,1.592317 -0.0492,0.231289 -1.57784,0.919107 -3.39701,1.528483 -6.48669,2.17288 -11.47302,4.612704 -18.07889,8.846035 -3.81716,2.446201 -10.62033,7.208364 -12.22857,8.559887 -0.53627,0.450669 -1.37889,1.107396 -1.8725,1.459396 -0.49361,0.352 -2.14284,1.607286 -3.66497,2.789526 -1.52212,1.182243 -3.68654,2.838243 -4.80982,3.68 -1.12327,0.84176 -3.06727,2.340224 -4.32,3.329916 -6.70728,5.29898 -15.31052,11.03199 -20.67768,13.779136 -2.38251,1.219478 -9.16857,3.382912 -12.35317,3.938259 -14.42272,2.515117 -31.39344,2.570061 -52.92678,0.171354 C 90.693882,94.066469 88.606669,93.587465 84.551645,91.209577 79.413418,88.196492 72.335214,81.428339 68.711611,76.063388 63.797387,68.787603 60.498334,66.255949 56.54195,66.724521 c -1.722249,0.203978 -4.726547,1.592352 -5.002652,2.311879 -0.09856,0.256841 -0.50777,0.466989 -0.909354,0.466989 -0.590457,0 -0.773129,-0.229584 -0.954797,-1.2 -0.312496,-1.669274 -1.564489,-4.17336 -2.803455,-5.607143 -0.840397,-0.972537 -1.393303,-1.279225 -2.844951,-1.578051 -1.545052,-0.318054 -2.009849,-0.291469 -3.26152,0.186551 -2.143958,0.818784 -3.069142,1.683008 -4.072124,3.803814 -1.203568,2.544941 -1.691677,5.709545 -1.520698,9.859299 l 0.141251,3.428291 -1.956153,0.124557 c -1.356731,0.08639 -2.260995,0.341622 -2.950965,0.832924 -1.229211,0.875277 -3.188566,3.781091 -4.017276,5.957815 -1.546101,4.061046 -3.090151,13.70949 -3.109308,19.429414 l -0.01138,3.39748 -1.271922,0.84172 c -1.394333,0.92272 -3.549711,3.48398 -4.500888,5.34844 -1.276825,2.50278 -1.90719,5.69444 -1.90719,9.65647 0,3.22124 0.16605,4.46507 1.132921,8.48643 0.623106,2.59159 1.781157,6.29888 2.573447,8.23842 l 1.440528,3.52643 -0.478347,2.05049 c -0.994007,4.26093 -1.285296,8.88617 -0.910205,14.45274 0.194342,2.88415 0.564768,6.2519 0.823168,7.4839 0.644881,3.07467 1.119686,5.23212 1.443701,6.56 0.503471,2.06333 2.538897,6.84881 4.345209,10.216 1.339331,2.57489 2.366865,4.57931 4.291027,6.94722 0.645851,0.68023 1.391237,1.53966 1.656413,1.90984 0.734221,1.02495 6.588643,6.06865 9.195542,7.92213 2.176103,1.54719 2.362633,1.77776 3.142778,3.88481 0.615682,1.66286 0.960112,2.5779 1.191157,3.07959 0.653899,1.62174 0.624122,1.61213 1.433165,3.00887 1.556956,3.3042 6.002811,9.60422 8.787863,12.15154 2.502755,2.28912 7.130819,5.84751 9.371632,7.20557 1.706272,1.0341 6.626204,3.08952 8.799999,3.67641 0.44,0.1188 1.664,0.55225 2.72,0.96323 2.097207,0.8162 5.136621,1.5655 7.75567,1.91198 0.997184,0.13192 2.203424,0.57612 2.979069,1.09705 1.652163,1.1096 6.027206,5.41921 7.646157,7.53178 3.22526,4.20867 5.002387,9.16012 4.502796,12.54574 -0.645308,4.37313 -1.218556,4.77943 -6.552377,4.64412 -1.929779,-0.0489 -4.534029,-0.21901 -5.787222,-0.3779 -4.423431,-0.56083 -10.534749,-0.75113 -11.281849,-0.35129 -0.975213,0.52192 -0.956554,2.24284 0.03441,3.1738 0.832608,0.7822 3.28209,1.33649 5.947024,1.34576 5.360272,0.0186 15.707385,2.27427 27.876326,6.07692 6.71664,2.09888 10.01205,2.6726 11.67834,2.03319 z m -3.88218,-12.92856 c -1.90584,-0.3773 -5.06544,-2.05725 -6.696,-3.56025 -2.75594,-2.54033 -3.97081,-6.97506 -3.44829,-12.58755 l 0.26813,-2.88 4.64,-0.19979 c 2.552,-0.10988 6.96208,-0.21788 9.80017,-0.24 l 5.16017,-0.0402 1.30948,2.65552 c 1.75504,3.55909 2.34958,6.19176 1.98281,8.78007 -0.15553,1.09758 -0.56994,2.39358 -0.9209,2.88 -1.88596,2.61384 -4.8087,4.50561 -7.98748,5.16999 -1.8905,0.39512 -2.21557,0.39688 -4.10809,0.0222 z"
       id="path831"
       sodipodi:nodetypes="cccccccccsssssssssssssssssssssssssssssssssccssssssssssscsssscssssssssssssssssssssssssssssssssssscsssscssssscssssccsssccsssssssssssssssssscsscssssss" />
  </g>
</svg>
