<?xml version="1.0" encoding="UTF-8" standalone="no"?>
<svg
   xmlns:dc="http://purl.org/dc/elements/1.1/"
   xmlns:cc="http://creativecommons.org/ns#"
   xmlns:rdf="http://www.w3.org/1999/02/22-rdf-syntax-ns#"
   xmlns:svg="http://www.w3.org/2000/svg"
   xmlns="http://www.w3.org/2000/svg"
   xmlns:xlink="http://www.w3.org/1999/xlink"
   xmlns:sodipodi="http://sodipodi.sourceforge.net/DTD/sodipodi-0.dtd"
   xmlns:inkscape="http://www.inkscape.org/namespaces/inkscape"
   width="210mm"
   height="297mm"
   viewBox="0 0 210 297"
   version="1.1"
   id="svg8"
   inkscape:version="1.0.2 (e86c870879, 2021-01-15)"
   sodipodi:docname="compy.svg">
  <defs
     id="defs2" />
  <sodipodi:namedview
     id="base"
     pagecolor="#ffffff"
     bordercolor="#666666"
     borderopacity="1.0"
     inkscape:pageopacity="0.0"
     inkscape:pageshadow="2"
     inkscape:zoom="0.49497475"
     inkscape:cx="361.70909"
     inkscape:cy="639.23187"
     inkscape:document-units="mm"
     inkscape:current-layer="layer1"
     inkscape:document-rotation="0"
     showgrid="false"
     inkscape:window-width="1920"
     inkscape:window-height="1016"
     inkscape:window-x="0"
     inkscape:window-y="0"
     inkscape:window-maximized="1" />
  <metadata
     id="metadata5">
    <rdf:RDF>
      <cc:Work
         rdf:about="">
        <dc:format>image/svg+xml</dc:format>
        <dc:type
           rdf:resource="http://purl.org/dc/dcmitype/StillImage" />
        <dc:title></dc:title>
      </cc:Work>
    </rdf:RDF>
  </metadata>
  <g
     inkscape:label="Layer 1"
     inkscape:groupmode="layer"
     id="layer1">
    <path
       id="rect833"
       style="fill:none;stroke:#ff0000;stroke-width:0.354973;stroke-linecap:square;stroke-linejoin:round"
       d="M 40.759941,19.196153 V 74.467198 H 110.25492 V 19.196153 Z" />
    <path
       style="fill:none;stroke:#000000;stroke-width:0.264583px;stroke-linecap:butt;stroke-linejoin:miter;stroke-opacity:1"
       d="m 37.671601,19.049904 h 2.96629 l -1e-5,-2.795785 h 69.617029 l 1e-5,2.942034 h 2.96628 v 55.417288 h -2.96629 l 1e-5,2.795783 H 40.637891 l 0.12204,-2.942026 -3.08833,-6e-6 z"
       id="path845" />
    <path
       id="path847"
       style="fill:none;stroke:#ff0000;stroke-width:0.354973;stroke-linecap:square;stroke-linejoin:round"
       d="m 129.12664,18.479637 v 55.271047 h 69.49498 V 18.479637 Z" />
    <path
       style="fill:none;stroke:#000000;stroke-width:0.264583px;stroke-linecap:butt;stroke-linejoin:miter;stroke-opacity:1"
       d="m 126.03831,18.33339 h 2.96629 l -1e-5,-2.795785 h 69.61703 l 1e-5,2.942034 h 2.96628 v 55.417285 h -2.96629 v 5.73783 h -69.49498 l 0,-5.88407 -3.08833,-1e-5 z"
       id="path849"
       sodipodi:nodetypes="ccccccccccccc" />
    <g
       id="g1108"
       transform="translate(-56.771806,-21.396179)">
      <path
         id="path857"
         style="fill:none;stroke:#000000;stroke-width:0.318547;stroke-linecap:square;stroke-linejoin:round"
         d="m 88.563511,164.94626 v 48.95745 h 63.181459 v -48.95745 z" />
      <rect
         style="fill:none;stroke:#000000;stroke-width:0.352777;stroke-linecap:square;stroke-linejoin:round;stroke-opacity:1"
         id="rect863"
         width="69.49498"
         height="110.54208"
         x="85.406738"
         y="161.78946" />
      <path
         style="fill:none;stroke:#ff0000;stroke-width:0.264583px;stroke-linecap:butt;stroke-linejoin:miter;stroke-opacity:1"
         d="M 85.406751,217.0605 H 154.90173"
         id="path865" />
    </g>
    <g
       id="g1238"
       transform="translate(-55.249364,-129.05315)">
      <rect
         style="fill:none;stroke:#000000;stroke-width:0.352777;stroke-linecap:square;stroke-linejoin:round;stroke-opacity:1"
         id="rect867"
         width="6.7965808"
         height="6.7965808"
         x="89.945847"
         y="224.91774"
         inkscape:tile-cx="228.96437"
         inkscape:tile-cy="148.84511"
         inkscape:tile-w="7.1493576"
         inkscape:tile-h="7.1493576"
         inkscape:tile-x0="225.38969"
         inkscape:tile-y0="145.27043" />
      <use
         x="0"
         y="0"
         inkscape:tiled-clone-of="#rect867"
         xlink:href="#rect867"
         id="use1061"
         width="100%"
         height="100%" />
      <use
         x="0"
         y="0"
         inkscape:tiled-clone-of="#rect867"
         xlink:href="#rect867"
         transform="translate(0,8.936697)"
         id="use1063"
         width="100%"
         height="100%" />
      <use
         x="0"
         y="0"
         inkscape:tiled-clone-of="#rect867"
         xlink:href="#rect867"
         transform="translate(0,17.873394)"
         id="use1065"
         width="100%"
         height="100%" />
      <use
         x="0"
         y="0"
         inkscape:tiled-clone-of="#rect867"
         xlink:href="#rect867"
         transform="matrix(1,0,0,1.01,8.9367,-2.28316)"
         id="use1067"
         width="100%"
         height="100%" />
      <use
         x="0"
         y="0"
         inkscape:tiled-clone-of="#rect867"
         xlink:href="#rect867"
         transform="matrix(1,0,0,1.01,8.9367,6.653537)"
         id="use1069"
         width="100%"
         height="100%" />
      <use
         x="0"
         y="0"
         inkscape:tiled-clone-of="#rect867"
         xlink:href="#rect867"
         transform="matrix(1,0,0,1.01,8.9367,15.590234)"
         id="use1071"
         width="100%"
         height="100%" />
      <use
         x="0"
         y="0"
         inkscape:tiled-clone-of="#rect867"
         xlink:href="#rect867"
         transform="matrix(1,0,0,1.02,17.87339,-4.566321)"
         id="use1073"
         width="100%"
         height="100%" />
      <use
         x="0"
         y="0"
         inkscape:tiled-clone-of="#rect867"
         xlink:href="#rect867"
         transform="matrix(1,0,0,1.02,17.87339,4.370376)"
         id="use1075"
         width="100%"
         height="100%" />
      <use
         x="0"
         y="0"
         inkscape:tiled-clone-of="#rect867"
         xlink:href="#rect867"
         transform="matrix(1,0,0,1.03,26.81009,-6.849481)"
         id="use1079"
         width="100%"
         height="100%" />
      <use
         x="0"
         y="0"
         inkscape:tiled-clone-of="#rect867"
         xlink:href="#rect867"
         transform="matrix(1,0,0,1.03,26.81009,2.087216)"
         id="use1081"
         width="100%"
         height="100%" />
      <use
         x="0"
         y="0"
         inkscape:tiled-clone-of="#rect867"
         xlink:href="#rect867"
         transform="matrix(1,0,0,1.04,35.74679,-9.132641)"
         id="use1085"
         width="100%"
         height="100%" />
      <use
         x="0"
         y="0"
         inkscape:tiled-clone-of="#rect867"
         xlink:href="#rect867"
         transform="matrix(1,0,0,1.04,35.74679,-0.195944)"
         id="use1087"
         width="100%"
         height="100%" />
      <use
         x="0"
         y="0"
         inkscape:tiled-clone-of="#rect867"
         xlink:href="#rect867"
         transform="matrix(1,0,0,1.05,44.68348,-11.415802)"
         id="use1091"
         width="100%"
         height="100%" />
      <use
         x="0"
         y="0"
         inkscape:tiled-clone-of="#rect867"
         xlink:href="#rect867"
         transform="matrix(1,0,0,1.05,44.68348,-2.479105)"
         id="use1093"
         width="100%"
         height="100%" />
      <use
         x="0"
         y="0"
         inkscape:tiled-clone-of="#rect867"
         xlink:href="#rect867"
         transform="matrix(1,0,0,1.05,44.68348,6.457592)"
         id="use1095"
         width="100%"
         height="100%" />
      <use
         x="0"
         y="0"
         inkscape:tiled-clone-of="#rect867"
         xlink:href="#rect867"
         transform="matrix(1,0,0,1.06,53.62018,-13.698962)"
         id="use1097"
         width="100%"
         height="100%" />
      <use
         x="0"
         y="0"
         inkscape:tiled-clone-of="#rect867"
         xlink:href="#rect867"
         transform="matrix(1,0,0,1.06,53.62018,-4.762265)"
         id="use1099"
         width="100%"
         height="100%" />
      <use
         x="0"
         y="0"
         inkscape:tiled-clone-of="#rect867"
         xlink:href="#rect867"
         transform="matrix(1,0,0,1.06,53.62018,4.174432)"
         id="use1101"
         width="100%"
         height="100%" />
      <rect
         style="fill:none;stroke:#000000;stroke-width:0.352777;stroke-linecap:square;stroke-linejoin:round;stroke-opacity:1"
         id="rect1150"
         width="24.669979"
         height="7.000483"
         x="107.81924"
         y="242.72316" />
    </g>
    <rect
       style="fill:none;stroke:#000000;stroke-width:0.352777;stroke-linecap:square;stroke-linejoin:round;stroke-opacity:1"
       id="rect1216"
       width="15.859497"
       height="12.907296"
       x="55.452675"
       y="233.42769" />
    <path
       style="fill:none;stroke:#ff0000;stroke-width:0.264583px;stroke-linecap:butt;stroke-linejoin:miter;stroke-opacity:1"
       d="m 129.0046,76.692714 h 69.61703"
       id="path1275" />
    <rect
       style="fill:none;stroke:#000000;stroke-width:0.352777;stroke-linecap:square;stroke-linejoin:round;stroke-opacity:1"
       id="rect863-6"
       width="69.49498"
       height="110.54208"
       x="117.81747"
       y="139.26151" />
    <path
       style="fill:none;stroke:#ff0000;stroke-width:0.264583px;stroke-linecap:butt;stroke-linejoin:miter;stroke-opacity:1"
       d="m 117.81749,194.53254 h 69.49498"
       id="path865-2" />
  </g>
</svg>
