  0
SECTION
  2
HEADER
  9
$ACADVER
  1
AC1014
  9
$HANDSEED
  5
FFFF
  9
$MEASUREMENT
 70
     1
  0
ENDSEC
  0
SECTION
  2
TABLES
  0
TABLE
  2
VPORT
  5
8
330
0
100
AcDbSymbolTable
 70
     4
  0
VPORT
  5
2E
330
8
100
AcDbSymbolTableRecord
100
AcDbViewportTableRecord
  2
*ACTIVE
 70
     0
 10
0.0
 20
0.0
 11
1.0
 21
1.0
 12
210.0
 22
148.5
 13
0.0
 23
0.0
 14
10.0
 24
10.0
 15
10.0
 25
10.0
 16
0.0
 26
0.0
 36
1.0
 17
0.0
 27
0.0
 37
0.0
 40
341.0
 41
1.24
 42
50.0
 43
0.0
 44
0.0
 50
0.0
 51
0.0
 71
     0
 72
   100
 73
     1
 74
     3
 75
     0
 76
     0
 77
     0
 78
     0
  0
ENDTAB
  0
TABLE
  2
LTYPE
  5
5
330
0
100
AcDbSymbolTable
 70
     1
  0
LTYPE
  5
14
330
5
100
AcDbSymbolTableRecord
100
AcDbLinetypeTableRecord
  2
BYBLOCK
 70
     0
  3

 72
    65
 73
     0
 40
0.0
  0
LTYPE
  5
15
330
5
100
AcDbSymbolTableRecord
100
AcDbLinetypeTableRecord
  2
BYLAYER
 70
     0
  3

 72
    65
 73
     0
 40
0.0
  0
LTYPE
  5
16
330
5
100
AcDbSymbolTableRecord
100
AcDbLinetypeTableRecord
  2
CONTINUOUS
 70
     0
  3
Solid line
 72
    65
 73
     0
 40
0.0
  0
ENDTAB
  0
TABLE
  2
LAYER
  5
2
100
AcDbSymbolTable
 70
1
  0
LAYER
  5
50
100
AcDbSymbolTableRecord
100
AcDbLayerTableRecord
  2
0
 70
0
  6
CONTINUOUS
  0
ENDTAB
  0
TABLE
  2
STYLE
  5
3
330
0
100
AcDbSymbolTable
 70
     1
  0
STYLE
  5
11
330
3
100
AcDbSymbolTableRecord
100
AcDbTextStyleTableRecord
  2
STANDARD
 70
     0
 40
0.0
 41
1.0
 50
0.0
 71
     0
 42
2.5
  3
txt
  4

  0
ENDTAB
  0
TABLE
  2
VIEW
  5
6
330
0
100
AcDbSymbolTable
 70
     0
  0
ENDTAB
  0
TABLE
  2
UCS
  5
7
330
0
100
AcDbSymbolTable
 70
     0
  0
ENDTAB
  0
TABLE
  2
APPID
  5
9
330
0
100
AcDbSymbolTable
 70
     2
  0
APPID
  5
12
330
9
100
AcDbSymbolTableRecord
100
AcDbRegAppTableRecord
  2
ACAD
 70
     0
  0
ENDTAB
  0
TABLE
  2
DIMSTYLE
  5
A
330
0
100
AcDbSymbolTable
 70
     1
  0
DIMSTYLE
105
27
330
A
100
AcDbSymbolTableRecord
100
AcDbDimStyleTableRecord
  2
ISO-25
 70
     0
  3

  4

  5

  6

  7

 40
1.0
 41
2.5
 42
0.625
 43
3.75
 44
1.25
 45
0.0
 46
0.0
 47
0.0
 48
0.0
140
2.5
141
2.5
142
0.0
143
0.03937007874016
144
1.0
145
0.0
146
1.0
147
0.625
 71
     0
 72
     0
 73
     0
 74
     0
 75
     0
 76
     0
 77
     1
 78
     8
170
     0
171
     3
172
     1
173
     0
174
     0
175
     0
176
     0
177
     0
178
     0
270
     2
271
     2
272
     2
273
     2
274
     3
340
11
275
     0
280
     0
281
     0
282
     0
283
     0
284
     8
285
     0
286
     0
287
     3
288
     0
  0
ENDTAB
  0
TABLE
  2
BLOCK_RECORD
  5
1
330
0
100
AcDbSymbolTable
 70
     1
  0
BLOCK_RECORD
  5
1F
330
1
100
AcDbSymbolTableRecord
100
AcDbBlockTableRecord
  2
*MODEL_SPACE
  0
BLOCK_RECORD
  5
1B
330
1
100
AcDbSymbolTableRecord
100
AcDbBlockTableRecord
  2
*PAPER_SPACE
  0
ENDTAB
  0
ENDSEC
  0
SECTION
  2
BLOCKS
  0
BLOCK
  5
20
330
1F
100
AcDbEntity
  8
0
100
AcDbBlockBegin
  2
*MODEL_SPACE
 70
     0
 10
0.0
 20
0.0
 30
0.0
  3
*MODEL_SPACE
  1

  0
ENDBLK
  5
21
330
1F
100
AcDbEntity
  8
0
100
AcDbBlockEnd
  0
BLOCK
  5
1C
330
1B
100
AcDbEntity
 67
     1
  8
0
100
AcDbBlockBegin
  2
*PAPER_SPACE
  1

  0
ENDBLK
  5
1D
330
1B
100
AcDbEntity
 67
     1
  8
0
100
AcDbBlockEnd
  0
ENDSEC
  0
SECTION
  2
ENTITIES
  0
LINE
  5
100
100
AcDbEntity
  8
0
 62
7
100
AcDbLine
 10
594.802270
 20
519.955310
 30
0.0
 11
587.180870
 21
526.455450
 31
0.0
  0
LINE
  5
101
100
AcDbEntity
  8
0
 62
7
100
AcDbLine
 10
587.180870
 20
526.455450
 30
0.0
 11
580.066710
 21
532.749470
 31
0.0
  0
LINE
  5
102
100
AcDbEntity
  8
0
 62
7
100
AcDbLine
 10
580.066710
 20
532.749470
 30
0.0
 11
573.500380
 21
538.796830
 31
0.0
  0
LINE
  5
103
100
AcDbEntity
  8
0
 62
7
100
AcDbLine
 10
573.500380
 20
538.796830
 30
0.0
 11
567.576890
 21
544.483240
 31
0.0
  0
LINE
  5
104
100
AcDbEntity
  8
0
 62
7
100
AcDbLine
 10
567.576890
 20
544.483240
 30
0.0
 11
561.919320
 21
550.157910
 31
0.0
  0
LINE
  5
105
100
AcDbEntity
  8
0
 62
7
100
AcDbLine
 10
561.919320
 20
550.157910
 30
0.0
 11
556.547910
 21
555.804820
 31
0.0
  0
LINE
  5
106
100
AcDbEntity
  8
0
 62
7
100
AcDbLine
 10
556.547910
 20
555.804820
 30
0.0
 11
552.239070
 21
560.542960
 31
0.0
  0
LINE
  5
107
100
AcDbEntity
  8
0
 62
7
100
AcDbLine
 10
552.239070
 20
560.542960
 30
0.0
 11
547.619450
 21
565.858820
 31
0.0
  0
LINE
  5
108
100
AcDbEntity
  8
0
 62
7
100
AcDbLine
 10
547.619450
 20
565.858820
 30
0.0
 11
542.998770
 21
571.453400
 31
0.0
  0
LINE
  5
109
100
AcDbEntity
  8
0
 62
7
100
AcDbLine
 10
542.998770
 20
571.453400
 30
0.0
 11
538.977170
 21
576.575970
 31
0.0
  0
LINE
  5
10a
100
AcDbEntity
  8
0
 62
7
100
AcDbLine
 10
538.977170
 20
576.575970
 30
0.0
 11
535.343200
 21
581.434780
 31
0.0
  0
LINE
  5
10b
100
AcDbEntity
  8
0
 62
7
100
AcDbLine
 10
535.343200
 20
581.434780
 30
0.0
 11
531.213750
 21
587.246140
 31
0.0
  0
LINE
  5
10c
100
AcDbEntity
  8
0
 62
7
100
AcDbLine
 10
531.213750
 20
587.246140
 30
0.0
 11
527.410000
 21
592.902650
 31
0.0
  0
LINE
  5
10d
100
AcDbEntity
  8
0
 62
7
100
AcDbLine
 10
527.410000
 20
592.902650
 30
0.0
 11
523.777100
 21
598.600820
 31
0.0
  0
LINE
  5
10e
100
AcDbEntity
  8
0
 62
7
100
AcDbLine
 10
523.777100
 20
598.600820
 30
0.0
 11
520.165560
 21
604.580850
 31
0.0
  0
LINE
  5
10f
100
AcDbEntity
  8
0
 62
7
100
AcDbLine
 10
520.165560
 20
604.580850
 30
0.0
 11
516.710990
 21
610.615440
 31
0.0
  0
LINE
  5
110
100
AcDbEntity
  8
0
 62
7
100
AcDbLine
 10
516.710990
 20
610.615440
 30
0.0
 11
513.320500
 21
616.859250
 31
0.0
  0
LINE
  5
111
100
AcDbEntity
  8
0
 62
7
100
AcDbLine
 10
513.320500
 20
616.859250
 30
0.0
 11
509.998350
 21
623.301720
 31
0.0
  0
LINE
  5
112
100
AcDbEntity
  8
0
 62
7
100
AcDbLine
 10
509.998350
 20
623.301720
 30
0.0
 11
506.646310
 21
630.140390
 31
0.0
  0
LINE
  5
113
100
AcDbEntity
  8
0
 62
7
100
AcDbLine
 10
506.646310
 20
630.140390
 30
0.0
 11
503.043320
 21
637.885650
 31
0.0
  0
LINE
  5
114
100
AcDbEntity
  8
0
 62
7
100
AcDbLine
 10
503.043320
 20
637.885650
 30
0.0
 11
499.615440
 21
645.635200
 31
0.0
  0
LINE
  5
115
100
AcDbEntity
  8
0
 62
7
100
AcDbLine
 10
499.615440
 20
645.635200
 30
0.0
 11
496.424660
 21
653.183920
 31
0.0
  0
LINE
  5
116
100
AcDbEntity
  8
0
 62
7
100
AcDbLine
 10
496.424660
 20
653.183920
 30
0.0
 11
494.391410
 21
658.160220
 31
0.0
  0
LINE
  5
117
100
AcDbEntity
  8
0
 62
7
100
AcDbLine
 10
494.391410
 20
658.160220
 30
0.0
 11
484.404680
 21
658.938720
 31
0.0
  0
LINE
  5
118
100
AcDbEntity
  8
0
 62
7
100
AcDbLine
 10
484.404680
 20
658.938720
 30
0.0
 11
474.949760
 21
659.849610
 31
0.0
  0
LINE
  5
119
100
AcDbEntity
  8
0
 62
7
100
AcDbLine
 10
474.949760
 20
659.849610
 30
0.0
 11
466.082150
 21
660.881150
 31
0.0
  0
LINE
  5
11a
100
AcDbEntity
  8
0
 62
7
100
AcDbLine
 10
466.082150
 20
660.881150
 30
0.0
 11
457.947120
 21
662.000310
 31
0.0
  0
LINE
  5
11b
100
AcDbEntity
  8
0
 62
7
100
AcDbLine
 10
457.947120
 20
662.000310
 30
0.0
 11
450.035250
 21
663.266800
 31
0.0
  0
LINE
  5
11c
100
AcDbEntity
  8
0
 62
7
100
AcDbLine
 10
450.035250
 20
663.266800
 30
0.0
 11
442.371160
 21
664.677480
 31
0.0
  0
LINE
  5
11d
100
AcDbEntity
  8
0
 62
7
100
AcDbLine
 10
442.371160
 20
664.677480
 30
0.0
 11
436.099540
 21
665.978100
 31
0.0
  0
LINE
  5
11e
100
AcDbEntity
  8
0
 62
7
100
AcDbLine
 10
436.099540
 20
665.978100
 30
0.0
 11
429.237410
 21
667.562860
 31
0.0
  0
LINE
  5
11f
100
AcDbEntity
  8
0
 62
7
100
AcDbLine
 10
429.237410
 20
667.562860
 30
0.0
 11
422.210810
 21
669.372900
 31
0.0
  0
LINE
  5
120
100
AcDbEntity
  8
0
 62
7
100
AcDbLine
 10
422.210810
 20
669.372900
 30
0.0
 11
415.946680
 21
671.154070
 31
0.0
  0
LINE
  5
121
100
AcDbEntity
  8
0
 62
7
100
AcDbLine
 10
415.946680
 20
671.154070
 30
0.0
 11
410.150270
 21
672.948140
 31
0.0
  0
LINE
  5
122
100
AcDbEntity
  8
0
 62
7
100
AcDbLine
 10
410.150270
 20
672.948140
 30
0.0
 11
403.393840
 21
675.222690
 31
0.0
  0
LINE
  5
123
100
AcDbEntity
  8
0
 62
7
100
AcDbLine
 10
403.393840
 20
675.222690
 30
0.0
 11
396.991970
 21
677.562410
 31
0.0
  0
LINE
  5
124
100
AcDbEntity
  8
0
 62
7
100
AcDbLine
 10
396.991970
 20
677.562410
 30
0.0
 11
390.704350
 21
680.037740
 31
0.0
  0
LINE
  5
125
100
AcDbEntity
  8
0
 62
7
100
AcDbLine
 10
390.704350
 20
680.037740
 30
0.0
 11
384.267210
 21
682.752240
 31
0.0
  0
LINE
  5
126
100
AcDbEntity
  8
0
 62
7
100
AcDbLine
 10
384.267210
 20
682.752240
 30
0.0
 11
377.925120
 21
685.604530
 31
0.0
  0
LINE
  5
127
100
AcDbEntity
  8
0
 62
7
100
AcDbLine
 10
377.925120
 20
685.604530
 30
0.0
 11
371.511490
 21
688.662900
 31
0.0
  0
LINE
  5
128
100
AcDbEntity
  8
0
 62
7
100
AcDbLine
 10
371.511490
 20
688.662900
 30
0.0
 11
365.037000
 21
691.922040
 31
0.0
  0
LINE
  5
129
100
AcDbEntity
  8
0
 62
7
100
AcDbLine
 10
365.037000
 20
691.922040
 30
0.0
 11
358.306200
 21
695.484447
 31
0.0
  0
LINE
  5
12a
100
AcDbEntity
  8
0
 62
7
100
AcDbLine
 10
358.306200
 20
695.484447
 30
0.0
 11
350.838590
 21
699.633187
 31
0.0
  0
LINE
  5
12b
100
AcDbEntity
  8
0
 62
7
100
AcDbLine
 10
350.838590
 20
699.633187
 30
0.0
 11
343.510840
 21
703.887557
 31
0.0
  0
LINE
  5
12c
100
AcDbEntity
  8
0
 62
7
100
AcDbLine
 10
343.510840
 20
703.887557
 30
0.0
 11
336.491730
 21
708.118447
 31
0.0
  0
LINE
  5
12d
100
AcDbEntity
  8
0
 62
7
100
AcDbLine
 10
336.491730
 20
708.118447
 30
0.0
 11
331.922310
 21
710.949377
 31
0.0
  0
LINE
  5
12e
100
AcDbEntity
  8
0
 62
7
100
AcDbLine
 10
331.922310
 20
710.949377
 30
0.0
 11
331.922310
 21
676.398430
 31
0.0
  0
LINE
  5
12f
100
AcDbEntity
  8
0
 62
7
100
AcDbLine
 10
331.922310
 20
676.398430
 30
0.0
 11
331.922310
 21
641.847480
 31
0.0
  0
LINE
  5
130
100
AcDbEntity
  8
0
 62
7
100
AcDbLine
 10
331.922310
 20
641.847480
 30
0.0
 11
331.922310
 21
607.295430
 31
0.0
  0
LINE
  5
131
100
AcDbEntity
  8
0
 62
7
100
AcDbLine
 10
331.922310
 20
607.295430
 30
0.0
 11
331.922310
 21
572.744450
 31
0.0
  0
LINE
  5
132
100
AcDbEntity
  8
0
 62
7
100
AcDbLine
 10
331.922310
 20
572.744450
 30
0.0
 11
331.922310
 21
538.193480
 31
0.0
  0
LINE
  5
133
100
AcDbEntity
  8
0
 62
7
100
AcDbLine
 10
331.922310
 20
538.193480
 30
0.0
 11
331.922310
 21
503.642510
 31
0.0
  0
LINE
  5
134
100
AcDbEntity
  8
0
 62
7
100
AcDbLine
 10
331.922310
 20
503.642510
 30
0.0
 11
331.922310
 21
469.091540
 31
0.0
  0
LINE
  5
135
100
AcDbEntity
  8
0
 62
7
100
AcDbLine
 10
331.922310
 20
469.091540
 30
0.0
 11
331.922310
 21
434.540580
 31
0.0
  0
LINE
  5
136
100
AcDbEntity
  8
0
 62
7
100
AcDbLine
 10
331.922310
 20
434.540580
 30
0.0
 11
309.003650
 21
402.995650
 31
0.0
  0
LINE
  5
137
100
AcDbEntity
  8
0
 62
7
100
AcDbLine
 10
309.003650
 20
402.995650
 30
0.0
 11
309.003650
 21
171.671330
 31
0.0
  0
LINE
  5
138
100
AcDbEntity
  8
0
 62
7
100
AcDbLine
 10
309.003650
 20
171.671330
 30
0.0
 11
313.006040
 21
169.447970
 31
0.0
  0
LINE
  5
139
100
AcDbEntity
  8
0
 62
7
100
AcDbLine
 10
313.006040
 20
169.447970
 30
0.0
 11
320.333770
 21
165.193600
 31
0.0
  0
LINE
  5
13a
100
AcDbEntity
  8
0
 62
7
100
AcDbLine
 10
320.333770
 20
165.193600
 30
0.0
 11
327.352890
 21
160.961600
 31
0.0
  0
LINE
  5
13b
100
AcDbEntity
  8
0
 62
7
100
AcDbLine
 10
327.352890
 20
160.961600
 30
0.0
 11
331.922310
 21
158.131700
 31
0.0
  0
LINE
  5
13c
100
AcDbEntity
  8
0
 62
7
100
AcDbLine
 10
331.922310
 20
158.131700
 30
0.0
 11
340.458870
 21
163.371800
 31
0.0
  0
LINE
  5
13d
100
AcDbEntity
  8
0
 62
7
100
AcDbLine
 10
340.458870
 20
163.371800
 30
0.0
 11
348.643030
 21
168.192200
 31
0.0
  0
LINE
  5
13e
100
AcDbEntity
  8
0
 62
7
100
AcDbLine
 10
348.643030
 20
168.192200
 30
0.0
 11
356.423550
 21
172.569350
 31
0.0
  0
LINE
  5
13f
100
AcDbEntity
  8
0
 62
7
100
AcDbLine
 10
356.423550
 20
172.569350
 30
0.0
 11
363.662650
 21
176.445740
 31
0.0
  0
LINE
  5
140
100
AcDbEntity
  8
0
 62
7
100
AcDbLine
 10
363.662650
 20
176.445740
 30
0.0
 11
370.807760
 21
180.071210
 31
0.0
  0
LINE
  5
141
100
AcDbEntity
  8
0
 62
7
100
AcDbLine
 10
370.807760
 20
180.071210
 30
0.0
 11
377.838630
 21
183.435950
 31
0.0
  0
LINE
  5
142
100
AcDbEntity
  8
0
 62
7
100
AcDbLine
 10
377.838630
 20
183.435950
 30
0.0
 11
383.675620
 21
186.069350
 31
0.0
  0
LINE
  5
143
100
AcDbEntity
  8
0
 62
7
100
AcDbLine
 10
383.675620
 20
186.069350
 30
0.0
 11
390.159720
 21
188.820200
 31
0.0
  0
LINE
  5
144
100
AcDbEntity
  8
0
 62
7
100
AcDbLine
 10
390.159720
 20
188.820200
 30
0.0
 11
396.907600
 21
191.486720
 31
0.0
  0
LINE
  5
145
100
AcDbEntity
  8
0
 62
7
100
AcDbLine
 10
396.907600
 20
191.486720
 30
0.0
 11
403.023300
 21
193.727000
 31
0.0
  0
LINE
  5
146
100
AcDbEntity
  8
0
 62
7
100
AcDbLine
 10
403.023300
 20
193.727000
 30
0.0
 11
408.766310
 21
195.682380
 31
0.0
  0
LINE
  5
147
100
AcDbEntity
  8
0
 62
7
100
AcDbLine
 10
408.766310
 20
195.682380
 30
0.0
 11
415.569730
 21
197.813810
 31
0.0
  0
LINE
  5
148
100
AcDbEntity
  8
0
 62
7
100
AcDbLine
 10
415.569730
 20
197.813810
 30
0.0
 11
422.124320
 21
199.683700
 31
0.0
  0
LINE
  5
149
100
AcDbEntity
  8
0
 62
7
100
AcDbLine
 10
422.124320
 20
199.683700
 30
0.0
 11
428.666090
 21
201.377330
 31
0.0
  0
LINE
  5
14a
100
AcDbEntity
  8
0
 62
7
100
AcDbLine
 10
428.666090
 20
201.377330
 30
0.0
 11
435.469490
 21
202.965250
 31
0.0
  0
LINE
  5
14b
100
AcDbEntity
  8
0
 62
7
100
AcDbLine
 10
435.469490
 20
202.965250
 30
0.0
 11
442.276100
 21
204.385510
 31
0.0
  0
LINE
  5
14c
100
AcDbEntity
  8
0
 62
7
100
AcDbLine
 10
442.276100
 20
204.385510
 30
0.0
 11
449.263190
 21
205.680860
 31
0.0
  0
LINE
  5
14d
100
AcDbEntity
  8
0
 62
7
100
AcDbLine
 10
449.263190
 20
205.680860
 30
0.0
 11
456.416850
 21
206.849040
 31
0.0
  0
LINE
  5
14e
100
AcDbEntity
  8
0
 62
7
100
AcDbLine
 10
456.416850
 20
206.849040
 30
0.0
 11
463.956020
 21
207.923420
 31
0.0
  0
LINE
  5
14f
100
AcDbEntity
  8
0
 62
7
100
AcDbLine
 10
463.956020
 20
207.923420
 30
0.0
 11
472.435990
 21
208.957070
 31
0.0
  0
LINE
  5
150
100
AcDbEntity
  8
0
 62
7
100
AcDbLine
 10
472.435990
 20
208.957070
 30
0.0
 11
480.864690
 21
209.822060
 31
0.0
  0
LINE
  5
151
100
AcDbEntity
  8
0
 62
7
100
AcDbLine
 10
480.864690
 20
209.822060
 30
0.0
 11
489.030710
 21
210.524660
 31
0.0
  0
LINE
  5
152
100
AcDbEntity
  8
0
 62
7
100
AcDbLine
 10
489.030710
 20
210.524660
 30
0.0
 11
494.391410
 21
210.920910
 31
0.0
  0
LINE
  5
153
100
AcDbEntity
  8
0
 62
7
100
AcDbLine
 10
494.391410
 20
210.920910
 30
0.0
 11
498.217600
 21
220.178260
 31
0.0
  0
LINE
  5
154
100
AcDbEntity
  8
0
 62
7
100
AcDbLine
 10
498.217600
 20
220.178260
 30
0.0
 11
502.005350
 21
228.888860
 31
0.0
  0
LINE
  5
155
100
AcDbEntity
  8
0
 62
7
100
AcDbLine
 10
502.005350
 20
228.888860
 30
0.0
 11
505.726870
 21
237.002560
 31
0.0
  0
LINE
  5
156
100
AcDbEntity
  8
0
 62
7
100
AcDbLine
 10
505.726870
 20
237.002560
 30
0.0
 11
509.305300
 21
244.394390
 31
0.0
  0
LINE
  5
157
100
AcDbEntity
  8
0
 62
7
100
AcDbLine
 10
509.305300
 20
244.394390
 30
0.0
 11
512.954220
 21
251.527760
 31
0.0
  0
LINE
  5
158
100
AcDbEntity
  8
0
 62
7
100
AcDbLine
 10
512.954220
 20
251.527760
 30
0.0
 11
516.664010
 21
258.381360
 31
0.0
  0
LINE
  5
159
100
AcDbEntity
  8
0
 62
7
100
AcDbLine
 10
516.664010
 20
258.381360
 30
0.0
 11
519.839850
 21
263.943900
 31
0.0
  0
LINE
  5
15a
100
AcDbEntity
  8
0
 62
7
100
AcDbLine
 10
519.839850
 20
263.943900
 30
0.0
 11
523.467420
 21
269.979500
 31
0.0
  0
LINE
  5
15b
100
AcDbEntity
  8
0
 62
7
100
AcDbLine
 10
523.467420
 20
269.979500
 30
0.0
 11
527.360880
 21
276.102670
 31
0.0
  0
LINE
  5
15c
100
AcDbEntity
  8
0
 62
7
100
AcDbLine
 10
527.360880
 20
276.102670
 30
0.0
 11
530.990570
 21
281.510380
 31
0.0
  0
LINE
  5
15d
100
AcDbEntity
  8
0
 62
7
100
AcDbLine
 10
530.990570
 20
281.510380
 30
0.0
 11
534.487860
 21
286.468500
 31
0.0
  0
LINE
  5
15e
100
AcDbEntity
  8
0
 62
7
100
AcDbLine
 10
534.487860
 20
286.468500
 30
0.0
 11
538.737980
 21
292.191230
 31
0.0
  0
LINE
  5
15f
100
AcDbEntity
  8
0
 62
7
100
AcDbLine
 10
538.737980
 20
292.191230
 30
0.0
 11
542.942180
 21
297.557280
 31
0.0
  0
LINE
  5
160
100
AcDbEntity
  8
0
 62
7
100
AcDbLine
 10
542.942180
 20
297.557280
 30
0.0
 11
547.239300
 21
302.772760
 31
0.0
  0
LINE
  5
161
100
AcDbEntity
  8
0
 62
7
100
AcDbLine
 10
547.239300
 20
302.772760
 30
0.0
 11
551.810850
 21
308.055520
 31
0.0
  0
LINE
  5
162
100
AcDbEntity
  8
0
 62
7
100
AcDbLine
 10
551.810850
 20
308.055520
 30
0.0
 11
556.482790
 21
313.205860
 31
0.0
  0
LINE
  5
163
100
AcDbEntity
  8
0
 62
7
100
AcDbLine
 10
556.482790
 20
313.205860
 30
0.0
 11
561.372570
 21
318.359400
 31
0.0
  0
LINE
  5
164
100
AcDbEntity
  8
0
 62
7
100
AcDbLine
 10
561.372570
 20
318.359400
 30
0.0
 11
566.473790
 21
323.510820
 31
0.0
  0
LINE
  5
165
100
AcDbEntity
  8
0
 62
7
100
AcDbLine
 10
566.473790
 20
323.510820
 30
0.0
 11
571.941290
 21
328.810660
 31
0.0
  0
LINE
  5
166
100
AcDbEntity
  8
0
 62
7
100
AcDbLine
 10
571.941290
 20
328.810660
 30
0.0
 11
578.194740
 21
334.631630
 31
0.0
  0
LINE
  5
167
100
AcDbEntity
  8
0
 62
7
100
AcDbLine
 10
578.194740
 20
334.631630
 30
0.0
 11
584.504790
 21
340.286000
 31
0.0
  0
LINE
  5
168
100
AcDbEntity
  8
0
 62
7
100
AcDbLine
 10
584.504790
 20
340.286000
 30
0.0
 11
590.698450
 21
345.654200
 31
0.0
  0
LINE
  5
169
100
AcDbEntity
  8
0
 62
7
100
AcDbLine
 10
590.698450
 20
345.654200
 30
0.0
 11
594.802270
 21
349.124770
 31
0.0
  0
LINE
  5
16a
100
AcDbEntity
  8
0
 62
7
100
AcDbLine
 10
594.802270
 20
349.124770
 30
0.0
 11
592.457230
 21
358.863760
 31
0.0
  0
LINE
  5
16b
100
AcDbEntity
  8
0
 62
7
100
AcDbLine
 10
592.457230
 20
358.863760
 30
0.0
 11
590.401580
 21
368.137140
 31
0.0
  0
LINE
  5
16c
100
AcDbEntity
  8
0
 62
7
100
AcDbLine
 10
590.401580
 20
368.137140
 30
0.0
 11
588.642790
 21
376.889420
 31
0.0
  0
LINE
  5
16d
100
AcDbEntity
  8
0
 62
7
100
AcDbLine
 10
588.642790
 20
376.889420
 30
0.0
 11
587.193690
 21
384.972140
 31
0.0
  0
LINE
  5
16e
100
AcDbEntity
  8
0
 62
7
100
AcDbLine
 10
587.193690
 20
384.972140
 30
0.0
 11
585.952830
 21
392.888270
 31
0.0
  0
LINE
  5
16f
100
AcDbEntity
  8
0
 62
7
100
AcDbLine
 10
585.952830
 20
392.888270
 30
0.0
 11
584.925540
 21
400.613240
 31
0.0
  0
LINE
  5
170
100
AcDbEntity
  8
0
 62
7
100
AcDbLine
 10
584.925540
 20
400.613240
 30
0.0
 11
584.225010
 21
406.979890
 31
0.0
  0
LINE
  5
171
100
AcDbEntity
  8
0
 62
7
100
AcDbLine
 10
584.225010
 20
406.979890
 30
0.0
 11
583.612050
 21
413.995800
 31
0.0
  0
LINE
  5
172
100
AcDbEntity
  8
0
 62
7
100
AcDbLine
 10
583.612050
 20
413.995800
 30
0.0
 11
583.162480
 21
421.238100
 31
0.0
  0
LINE
  5
173
100
AcDbEntity
  8
0
 62
7
100
AcDbLine
 10
583.162480
 20
421.238100
 30
0.0
 11
582.920070
 21
427.745720
 31
0.0
  0
LINE
  5
174
100
AcDbEntity
  8
0
 62
7
100
AcDbLine
 10
582.920070
 20
427.745720
 30
0.0
 11
582.835770
 21
433.812280
 31
0.0
  0
LINE
  5
175
100
AcDbEntity
  8
0
 62
7
100
AcDbLine
 10
582.835770
 20
433.812280
 30
0.0
 11
582.910570
 21
440.941400
 31
0.0
  0
LINE
  5
176
100
AcDbEntity
  8
0
 62
7
100
AcDbLine
 10
582.910570
 20
440.941400
 30
0.0
 11
583.157260
 21
447.753340
 31
0.0
  0
LINE
  5
177
100
AcDbEntity
  8
0
 62
7
100
AcDbLine
 10
583.157260
 20
447.753340
 30
0.0
 11
583.568390
 21
454.498030
 31
0.0
  0
LINE
  5
178
100
AcDbEntity
  8
0
 62
7
100
AcDbLine
 10
583.568390
 20
454.498030
 30
0.0
 11
584.162120
 21
461.459470
 31
0.0
  0
LINE
  5
179
100
AcDbEntity
  8
0
 62
7
100
AcDbLine
 10
584.162120
 20
461.459470
 30
0.0
 11
584.913910
 21
468.371800
 31
0.0
  0
LINE
  5
17a
100
AcDbEntity
  8
0
 62
7
100
AcDbLine
 10
584.913910
 20
468.371800
 30
0.0
 11
585.840820
 21
475.416540
 31
0.0
  0
LINE
  5
17b
100
AcDbEntity
  8
0
 62
7
100
AcDbLine
 10
585.840820
 20
475.416540
 30
0.0
 11
586.939670
 21
482.580890
 31
0.0
  0
LINE
  5
17c
100
AcDbEntity
  8
0
 62
7
100
AcDbLine
 10
586.939670
 20
482.580890
 30
0.0
 11
588.247800
 21
490.083750
 31
0.0
  0
LINE
  5
17d
100
AcDbEntity
  8
0
 62
7
100
AcDbLine
 10
588.247800
 20
490.083750
 30
0.0
 11
589.884850
 21
498.467610
 31
0.0
  0
LINE
  5
17e
100
AcDbEntity
  8
0
 62
7
100
AcDbLine
 10
589.884850
 20
498.467610
 30
0.0
 11
591.667120
 21
506.751080
 31
0.0
  0
LINE
  5
17f
100
AcDbEntity
  8
0
 62
7
100
AcDbLine
 10
591.667120
 20
506.751080
 30
0.0
 11
593.523090
 21
514.734500
 31
0.0
  0
LINE
  5
180
100
AcDbEntity
  8
0
 62
7
100
AcDbLine
 10
593.523090
 20
514.734500
 30
0.0
 11
594.802270
 21
519.955310
 31
0.0
  0
LINE
  5
181
100
AcDbEntity
  8
0
 62
7
100
AcDbLine
 10
20.677911
 20
352.427150
 30
0.0
 11
28.299311
 21
345.927010
 31
0.0
  0
LINE
  5
182
100
AcDbEntity
  8
0
 62
7
100
AcDbLine
 10
28.299311
 20
345.927010
 30
0.0
 11
35.413471
 21
339.632990
 31
0.0
  0
LINE
  5
183
100
AcDbEntity
  8
0
 62
7
100
AcDbLine
 10
35.413471
 20
339.632990
 30
0.0
 11
41.979801
 21
333.585630
 31
0.0
  0
LINE
  5
184
100
AcDbEntity
  8
0
 62
7
100
AcDbLine
 10
41.979801
 20
333.585630
 30
0.0
 11
47.903291
 21
327.899220
 31
0.0
  0
LINE
  5
185
100
AcDbEntity
  8
0
 62
7
100
AcDbLine
 10
47.903291
 20
327.899220
 30
0.0
 11
53.560861
 21
322.224550
 31
0.0
  0
LINE
  5
186
100
AcDbEntity
  8
0
 62
7
100
AcDbLine
 10
53.560861
 20
322.224550
 30
0.0
 11
58.932271
 21
316.577640
 31
0.0
  0
LINE
  5
187
100
AcDbEntity
  8
0
 62
7
100
AcDbLine
 10
58.932271
 20
316.577640
 30
0.0
 11
63.241111
 21
311.839500
 31
0.0
  0
LINE
  5
188
100
AcDbEntity
  8
0
 62
7
100
AcDbLine
 10
63.241111
 20
311.839500
 30
0.0
 11
67.860731
 21
306.523640
 31
0.0
  0
LINE
  5
189
100
AcDbEntity
  8
0
 62
7
100
AcDbLine
 10
67.860731
 20
306.523640
 30
0.0
 11
72.481411
 21
300.929060
 31
0.0
  0
LINE
  5
18a
100
AcDbEntity
  8
0
 62
7
100
AcDbLine
 10
72.481411
 20
300.929060
 30
0.0
 11
76.503011
 21
295.806490
 31
0.0
  0
LINE
  5
18b
100
AcDbEntity
  8
0
 62
7
100
AcDbLine
 10
76.503011
 20
295.806490
 30
0.0
 11
80.136981
 21
290.947680
 31
0.0
  0
LINE
  5
18c
100
AcDbEntity
  8
0
 62
7
100
AcDbLine
 10
80.136981
 20
290.947680
 30
0.0
 11
84.266431
 21
285.136320
 31
0.0
  0
LINE
  5
18d
100
AcDbEntity
  8
0
 62
7
100
AcDbLine
 10
84.266431
 20
285.136320
 30
0.0
 11
88.070181
 21
279.479810
 31
0.0
  0
LINE
  5
18e
100
AcDbEntity
  8
0
 62
7
100
AcDbLine
 10
88.070181
 20
279.479810
 30
0.0
 11
91.703081
 21
273.781640
 31
0.0
  0
LINE
  5
18f
100
AcDbEntity
  8
0
 62
7
100
AcDbLine
 10
91.703081
 20
273.781640
 30
0.0
 11
95.314621
 21
267.801610
 31
0.0
  0
LINE
  5
190
100
AcDbEntity
  8
0
 62
7
100
AcDbLine
 10
95.314621
 20
267.801610
 30
0.0
 11
98.769191
 21
261.767020
 31
0.0
  0
LINE
  5
191
100
AcDbEntity
  8
0
 62
7
100
AcDbLine
 10
98.769191
 20
261.767020
 30
0.0
 11
102.159680
 21
255.523210
 31
0.0
  0
LINE
  5
192
100
AcDbEntity
  8
0
 62
7
100
AcDbLine
 10
102.159680
 20
255.523210
 30
0.0
 11
105.481830
 21
249.080740
 31
0.0
  0
LINE
  5
193
100
AcDbEntity
  8
0
 62
7
100
AcDbLine
 10
105.481830
 20
249.080740
 30
0.0
 11
108.833870
 21
242.242070
 31
0.0
  0
LINE
  5
194
100
AcDbEntity
  8
0
 62
7
100
AcDbLine
 10
108.833870
 20
242.242070
 30
0.0
 11
112.436860
 21
234.496810
 31
0.0
  0
LINE
  5
195
100
AcDbEntity
  8
0
 62
7
100
AcDbLine
 10
112.436860
 20
234.496810
 30
0.0
 11
115.864740
 21
226.747260
 31
0.0
  0
LINE
  5
196
100
AcDbEntity
  8
0
 62
7
100
AcDbLine
 10
115.864740
 20
226.747260
 30
0.0
 11
119.055510
 21
219.198540
 31
0.0
  0
LINE
  5
197
100
AcDbEntity
  8
0
 62
7
100
AcDbLine
 10
119.055510
 20
219.198540
 30
0.0
 11
121.088760
 21
214.222240
 31
0.0
  0
LINE
  5
198
100
AcDbEntity
  8
0
 62
7
100
AcDbLine
 10
121.088760
 20
214.222240
 30
0.0
 11
131.075490
 21
213.443740
 31
0.0
  0
LINE
  5
199
100
AcDbEntity
  8
0
 62
7
100
AcDbLine
 10
131.075490
 20
213.443740
 30
0.0
 11
140.530410
 21
212.532850
 31
0.0
  0
LINE
  5
19a
100
AcDbEntity
  8
0
 62
7
100
AcDbLine
 10
140.530410
 20
212.532850
 30
0.0
 11
149.398020
 21
211.501310
 31
0.0
  0
LINE
  5
19b
100
AcDbEntity
  8
0
 62
7
100
AcDbLine
 10
149.398020
 20
211.501310
 30
0.0
 11
157.533060
 21
210.382150
 31
0.0
  0
LINE
  5
19c
100
AcDbEntity
  8
0
 62
7
100
AcDbLine
 10
157.533060
 20
210.382150
 30
0.0
 11
165.444930
 21
209.115660
 31
0.0
  0
LINE
  5
19d
100
AcDbEntity
  8
0
 62
7
100
AcDbLine
 10
165.444930
 20
209.115660
 30
0.0
 11
173.109020
 21
207.704980
 31
0.0
  0
LINE
  5
19e
100
AcDbEntity
  8
0
 62
7
100
AcDbLine
 10
173.109020
 20
207.704980
 30
0.0
 11
179.380640
 21
206.404360
 31
0.0
  0
LINE
  5
19f
100
AcDbEntity
  8
0
 62
7
100
AcDbLine
 10
179.380640
 20
206.404360
 30
0.0
 11
186.242760
 21
204.819600
 31
0.0
  0
LINE
  5
1a0
100
AcDbEntity
  8
0
 62
7
100
AcDbLine
 10
186.242760
 20
204.819600
 30
0.0
 11
193.269360
 21
203.009560
 31
0.0
  0
LINE
  5
1a1
100
AcDbEntity
  8
0
 62
7
100
AcDbLine
 10
193.269360
 20
203.009560
 30
0.0
 11
199.533500
 21
201.228390
 31
0.0
  0
LINE
  5
1a2
100
AcDbEntity
  8
0
 62
7
100
AcDbLine
 10
199.533500
 20
201.228390
 30
0.0
 11
205.329900
 21
199.434320
 31
0.0
  0
LINE
  5
1a3
100
AcDbEntity
  8
0
 62
7
100
AcDbLine
 10
205.329900
 20
199.434320
 30
0.0
 11
212.086340
 21
197.159770
 31
0.0
  0
LINE
  5
1a4
100
AcDbEntity
  8
0
 62
7
100
AcDbLine
 10
212.086340
 20
197.159770
 30
0.0
 11
218.488210
 21
194.820050
 31
0.0
  0
LINE
  5
1a5
100
AcDbEntity
  8
0
 62
7
100
AcDbLine
 10
218.488210
 20
194.820050
 30
0.0
 11
224.775820
 21
192.344720
 31
0.0
  0
LINE
  5
1a6
100
AcDbEntity
  8
0
 62
7
100
AcDbLine
 10
224.775820
 20
192.344720
 30
0.0
 11
231.212970
 21
189.630220
 31
0.0
  0
LINE
  5
1a7
100
AcDbEntity
  8
0
 62
7
100
AcDbLine
 10
231.212970
 20
189.630220
 30
0.0
 11
237.555060
 21
186.777930
 31
0.0
  0
LINE
  5
1a8
100
AcDbEntity
  8
0
 62
7
100
AcDbLine
 10
237.555060
 20
186.777930
 30
0.0
 11
243.968690
 21
183.719560
 31
0.0
  0
LINE
  5
1a9
100
AcDbEntity
  8
0
 62
7
100
AcDbLine
 10
243.968690
 20
183.719560
 30
0.0
 11
250.443180
 21
180.460420
 31
0.0
  0
LINE
  5
1aa
100
AcDbEntity
  8
0
 62
7
100
AcDbLine
 10
250.443180
 20
180.460420
 30
0.0
 11
257.173980
 21
176.898010
 31
0.0
  0
LINE
  5
1ab
100
AcDbEntity
  8
0
 62
7
100
AcDbLine
 10
257.173980
 20
176.898010
 30
0.0
 11
264.641590
 21
172.749270
 31
0.0
  0
LINE
  5
1ac
100
AcDbEntity
  8
0
 62
7
100
AcDbLine
 10
264.641590
 20
172.749270
 30
0.0
 11
271.969340
 21
168.494900
 31
0.0
  0
LINE
  5
1ad
100
AcDbEntity
  8
0
 62
7
100
AcDbLine
 10
271.969340
 20
168.494900
 30
0.0
 11
278.988450
 21
164.264010
 31
0.0
  0
LINE
  5
1ae
100
AcDbEntity
  8
0
 62
7
100
AcDbLine
 10
278.988450
 20
164.264010
 30
0.0
 11
283.557870
 21
161.433080
 31
0.0
  0
LINE
  5
1af
100
AcDbEntity
  8
0
 62
7
100
AcDbLine
 10
283.557870
 20
161.433080
 30
0.0
 11
283.557870
 21
195.984030
 31
0.0
  0
LINE
  5
1b0
100
AcDbEntity
  8
0
 62
7
100
AcDbLine
 10
283.557870
 20
195.984030
 30
0.0
 11
283.557870
 21
230.534980
 31
0.0
  0
LINE
  5
1b1
100
AcDbEntity
  8
0
 62
7
100
AcDbLine
 10
283.557870
 20
230.534980
 30
0.0
 11
283.557870
 21
265.087030
 31
0.0
  0
LINE
  5
1b2
100
AcDbEntity
  8
0
 62
7
100
AcDbLine
 10
283.557870
 20
265.087030
 30
0.0
 11
283.557870
 21
299.638010
 31
0.0
  0
LINE
  5
1b3
100
AcDbEntity
  8
0
 62
7
100
AcDbLine
 10
283.557870
 20
299.638010
 30
0.0
 11
283.557870
 21
334.188980
 31
0.0
  0
LINE
  5
1b4
100
AcDbEntity
  8
0
 62
7
100
AcDbLine
 10
283.557870
 20
334.188980
 30
0.0
 11
283.557870
 21
368.739950
 31
0.0
  0
LINE
  5
1b5
100
AcDbEntity
  8
0
 62
7
100
AcDbLine
 10
283.557870
 20
368.739950
 30
0.0
 11
283.557870
 21
403.290920
 31
0.0
  0
LINE
  5
1b6
100
AcDbEntity
  8
0
 62
7
100
AcDbLine
 10
283.557870
 20
403.290920
 30
0.0
 11
283.557870
 21
437.841870
 31
0.0
  0
LINE
  5
1b7
100
AcDbEntity
  8
0
 62
7
100
AcDbLine
 10
283.557870
 20
437.841870
 30
0.0
 11
306.476530
 21
469.386810
 31
0.0
  0
LINE
  5
1b8
100
AcDbEntity
  8
0
 62
7
100
AcDbLine
 10
306.476530
 20
469.386810
 30
0.0
 11
306.476530
 21
700.711119
 31
0.0
  0
LINE
  5
1b9
100
AcDbEntity
  8
0
 62
7
100
AcDbLine
 10
306.476530
 20
700.711119
 30
0.0
 11
302.474140
 21
702.934489
 31
0.0
  0
LINE
  5
1ba
100
AcDbEntity
  8
0
 62
7
100
AcDbLine
 10
302.474140
 20
702.934489
 30
0.0
 11
295.146410
 21
707.188849
 31
0.0
  0
LINE
  5
1bb
100
AcDbEntity
  8
0
 62
7
100
AcDbLine
 10
295.146410
 20
707.188849
 30
0.0
 11
288.127290
 21
711.420849
 31
0.0
  0
LINE
  5
1bc
100
AcDbEntity
  8
0
 62
7
100
AcDbLine
 10
288.127290
 20
711.420849
 30
0.0
 11
283.557870
 21
714.250759
 31
0.0
  0
LINE
  5
1bd
100
AcDbEntity
  8
0
 62
7
100
AcDbLine
 10
283.557870
 20
714.250759
 30
0.0
 11
275.021310
 21
709.010659
 31
0.0
  0
LINE
  5
1be
100
AcDbEntity
  8
0
 62
7
100
AcDbLine
 10
275.021310
 20
709.010659
 30
0.0
 11
266.837150
 21
704.190259
 31
0.0
  0
LINE
  5
1bf
100
AcDbEntity
  8
0
 62
7
100
AcDbLine
 10
266.837150
 20
704.190259
 30
0.0
 11
259.056630
 21
699.813099
 31
0.0
  0
LINE
  5
1c0
100
AcDbEntity
  8
0
 62
7
100
AcDbLine
 10
259.056630
 20
699.813099
 30
0.0
 11
251.817530
 21
695.936719
 31
0.0
  0
LINE
  5
1c1
100
AcDbEntity
  8
0
 62
7
100
AcDbLine
 10
251.817530
 20
695.936719
 30
0.0
 11
244.672420
 21
692.311249
 31
0.0
  0
LINE
  5
1c2
100
AcDbEntity
  8
0
 62
7
100
AcDbLine
 10
244.672420
 20
692.311249
 30
0.0
 11
237.641550
 21
688.946510
 31
0.0
  0
LINE
  5
1c3
100
AcDbEntity
  8
0
 62
7
100
AcDbLine
 10
237.641550
 20
688.946510
 30
0.0
 11
231.804560
 21
686.313100
 31
0.0
  0
LINE
  5
1c4
100
AcDbEntity
  8
0
 62
7
100
AcDbLine
 10
231.804560
 20
686.313100
 30
0.0
 11
225.320460
 21
683.562260
 31
0.0
  0
LINE
  5
1c5
100
AcDbEntity
  8
0
 62
7
100
AcDbLine
 10
225.320460
 20
683.562260
 30
0.0
 11
218.572570
 21
680.895740
 31
0.0
  0
LINE
  5
1c6
100
AcDbEntity
  8
0
 62
7
100
AcDbLine
 10
218.572570
 20
680.895740
 30
0.0
 11
212.456880
 21
678.655460
 31
0.0
  0
LINE
  5
1c7
100
AcDbEntity
  8
0
 62
7
100
AcDbLine
 10
212.456880
 20
678.655460
 30
0.0
 11
206.713870
 21
676.700080
 31
0.0
  0
LINE
  5
1c8
100
AcDbEntity
  8
0
 62
7
100
AcDbLine
 10
206.713870
 20
676.700080
 30
0.0
 11
199.910450
 21
674.568650
 31
0.0
  0
LINE
  5
1c9
100
AcDbEntity
  8
0
 62
7
100
AcDbLine
 10
199.910450
 20
674.568650
 30
0.0
 11
193.355850
 21
672.698760
 31
0.0
  0
LINE
  5
1ca
100
AcDbEntity
  8
0
 62
7
100
AcDbLine
 10
193.355850
 20
672.698760
 30
0.0
 11
186.814080
 21
671.005130
 31
0.0
  0
LINE
  5
1cb
100
AcDbEntity
  8
0
 62
7
100
AcDbLine
 10
186.814080
 20
671.005130
 30
0.0
 11
180.010680
 21
669.417200
 31
0.0
  0
LINE
  5
1cc
100
AcDbEntity
  8
0
 62
7
100
AcDbLine
 10
180.010680
 20
669.417200
 30
0.0
 11
173.204070
 21
667.996950
 31
0.0
  0
LINE
  5
1cd
100
AcDbEntity
  8
0
 62
7
100
AcDbLine
 10
173.204070
 20
667.996950
 30
0.0
 11
166.216980
 21
666.701600
 31
0.0
  0
LINE
  5
1ce
100
AcDbEntity
  8
0
 62
7
100
AcDbLine
 10
166.216980
 20
666.701600
 30
0.0
 11
159.063330
 21
665.533430
 31
0.0
  0
LINE
  5
1cf
100
AcDbEntity
  8
0
 62
7
100
AcDbLine
 10
159.063330
 20
665.533430
 30
0.0
 11
151.524150
 21
664.459040
 31
0.0
  0
LINE
  5
1d0
100
AcDbEntity
  8
0
 62
7
100
AcDbLine
 10
151.524150
 20
664.459040
 30
0.0
 11
143.044190
 21
663.425390
 31
0.0
  0
LINE
  5
1d1
100
AcDbEntity
  8
0
 62
7
100
AcDbLine
 10
143.044190
 20
663.425390
 30
0.0
 11
134.615490
 21
662.560400
 31
0.0
  0
LINE
  5
1d2
100
AcDbEntity
  8
0
 62
7
100
AcDbLine
 10
134.615490
 20
662.560400
 30
0.0
 11
126.449460
 21
661.857800
 31
0.0
  0
LINE
  5
1d3
100
AcDbEntity
  8
0
 62
7
100
AcDbLine
 10
126.449460
 20
661.857800
 30
0.0
 11
121.088760
 21
661.461560
 31
0.0
  0
LINE
  5
1d4
100
AcDbEntity
  8
0
 62
7
100
AcDbLine
 10
121.088760
 20
661.461560
 30
0.0
 11
117.262580
 21
652.204200
 31
0.0
  0
LINE
  5
1d5
100
AcDbEntity
  8
0
 62
7
100
AcDbLine
 10
117.262580
 20
652.204200
 30
0.0
 11
113.474830
 21
643.493600
 31
0.0
  0
LINE
  5
1d6
100
AcDbEntity
  8
0
 62
7
100
AcDbLine
 10
113.474830
 20
643.493600
 30
0.0
 11
109.753300
 21
635.379900
 31
0.0
  0
LINE
  5
1d7
100
AcDbEntity
  8
0
 62
7
100
AcDbLine
 10
109.753300
 20
635.379900
 30
0.0
 11
106.174870
 21
627.988070
 31
0.0
  0
LINE
  5
1d8
100
AcDbEntity
  8
0
 62
7
100
AcDbLine
 10
106.174870
 20
627.988070
 30
0.0
 11
102.525950
 21
620.854700
 31
0.0
  0
LINE
  5
1d9
100
AcDbEntity
  8
0
 62
7
100
AcDbLine
 10
102.525950
 20
620.854700
 30
0.0
 11
98.816161
 21
614.001110
 31
0.0
  0
LINE
  5
1da
100
AcDbEntity
  8
0
 62
7
100
AcDbLine
 10
98.816161
 20
614.001110
 30
0.0
 11
95.640321
 21
608.438570
 31
0.0
  0
LINE
  5
1db
100
AcDbEntity
  8
0
 62
7
100
AcDbLine
 10
95.640321
 20
608.438570
 30
0.0
 11
92.012751
 21
602.402960
 31
0.0
  0
LINE
  5
1dc
100
AcDbEntity
  8
0
 62
7
100
AcDbLine
 10
92.012751
 20
602.402960
 30
0.0
 11
88.119291
 21
596.279800
 31
0.0
  0
LINE
  5
1dd
100
AcDbEntity
  8
0
 62
7
100
AcDbLine
 10
88.119291
 20
596.279800
 30
0.0
 11
84.489601
 21
590.872090
 31
0.0
  0
LINE
  5
1de
100
AcDbEntity
  8
0
 62
7
100
AcDbLine
 10
84.489601
 20
590.872090
 30
0.0
 11
80.992311
 21
585.913970
 31
0.0
  0
LINE
  5
1df
100
AcDbEntity
  8
0
 62
7
100
AcDbLine
 10
80.992311
 20
585.913970
 30
0.0
 11
76.742191
 21
580.191230
 31
0.0
  0
LINE
  5
1e0
100
AcDbEntity
  8
0
 62
7
100
AcDbLine
 10
76.742191
 20
580.191230
 30
0.0
 11
72.537991
 21
574.825190
 31
0.0
  0
LINE
  5
1e1
100
AcDbEntity
  8
0
 62
7
100
AcDbLine
 10
72.537991
 20
574.825190
 30
0.0
 11
68.240871
 21
569.609710
 31
0.0
  0
LINE
  5
1e2
100
AcDbEntity
  8
0
 62
7
100
AcDbLine
 10
68.240871
 20
569.609710
 30
0.0
 11
63.669321
 21
564.326950
 31
0.0
  0
LINE
  5
1e3
100
AcDbEntity
  8
0
 62
7
100
AcDbLine
 10
63.669321
 20
564.326950
 30
0.0
 11
58.997381
 21
559.176610
 31
0.0
  0
LINE
  5
1e4
100
AcDbEntity
  8
0
 62
7
100
AcDbLine
 10
58.997381
 20
559.176610
 30
0.0
 11
54.107601
 21
554.023070
 31
0.0
  0
LINE
  5
1e5
100
AcDbEntity
  8
0
 62
7
100
AcDbLine
 10
54.107601
 20
554.023070
 30
0.0
 11
49.006381
 21
548.871650
 31
0.0
  0
LINE
  5
1e6
100
AcDbEntity
  8
0
 62
7
100
AcDbLine
 10
49.006381
 20
548.871650
 30
0.0
 11
43.538881
 21
543.571810
 31
0.0
  0
LINE
  5
1e7
100
AcDbEntity
  8
0
 62
7
100
AcDbLine
 10
43.538881
 20
543.571810
 30
0.0
 11
37.285441
 21
537.750830
 31
0.0
  0
LINE
  5
1e8
100
AcDbEntity
  8
0
 62
7
100
AcDbLine
 10
37.285441
 20
537.750830
 30
0.0
 11
30.975391
 21
532.096460
 31
0.0
  0
LINE
  5
1e9
100
AcDbEntity
  8
0
 62
7
100
AcDbLine
 10
30.975391
 20
532.096460
 30
0.0
 11
24.781721
 21
526.728260
 31
0.0
  0
LINE
  5
1ea
100
AcDbEntity
  8
0
 62
7
100
AcDbLine
 10
24.781721
 20
526.728260
 30
0.0
 11
20.677911
 21
523.257700
 31
0.0
  0
LINE
  5
1eb
100
AcDbEntity
  8
0
 62
7
100
AcDbLine
 10
20.677911
 20
523.257700
 30
0.0
 11
23.022941
 21
513.518710
 31
0.0
  0
LINE
  5
1ec
100
AcDbEntity
  8
0
 62
7
100
AcDbLine
 10
23.022941
 20
513.518710
 30
0.0
 11
25.078601
 21
504.245330
 31
0.0
  0
LINE
  5
1ed
100
AcDbEntity
  8
0
 62
7
100
AcDbLine
 10
25.078601
 20
504.245330
 30
0.0
 11
26.837381
 21
495.493050
 31
0.0
  0
LINE
  5
1ee
100
AcDbEntity
  8
0
 62
7
100
AcDbLine
 10
26.837381
 20
495.493050
 30
0.0
 11
28.286481
 21
487.410320
 31
0.0
  0
LINE
  5
1ef
100
AcDbEntity
  8
0
 62
7
100
AcDbLine
 10
28.286481
 20
487.410320
 30
0.0
 11
29.527341
 21
479.494190
 31
0.0
  0
LINE
  5
1f0
100
AcDbEntity
  8
0
 62
7
100
AcDbLine
 10
29.527341
 20
479.494190
 30
0.0
 11
30.554631
 21
471.769220
 31
0.0
  0
LINE
  5
1f1
100
AcDbEntity
  8
0
 62
7
100
AcDbLine
 10
30.554631
 20
471.769220
 30
0.0
 11
31.255161
 21
465.402570
 31
0.0
  0
LINE
  5
1f2
100
AcDbEntity
  8
0
 62
7
100
AcDbLine
 10
31.255161
 20
465.402570
 30
0.0
 11
31.868121
 21
458.386660
 31
0.0
  0
LINE
  5
1f3
100
AcDbEntity
  8
0
 62
7
100
AcDbLine
 10
31.868121
 20
458.386660
 30
0.0
 11
32.317691
 21
451.144360
 31
0.0
  0
LINE
  5
1f4
100
AcDbEntity
  8
0
 62
7
100
AcDbLine
 10
32.317691
 20
451.144360
 30
0.0
 11
32.560101
 21
444.636740
 31
0.0
  0
LINE
  5
1f5
100
AcDbEntity
  8
0
 62
7
100
AcDbLine
 10
32.560101
 20
444.636740
 30
0.0
 11
32.644401
 21
438.570180
 31
0.0
  0
LINE
  5
1f6
100
AcDbEntity
  8
0
 62
7
100
AcDbLine
 10
32.644401
 20
438.570180
 30
0.0
 11
32.569601
 21
431.441060
 31
0.0
  0
LINE
  5
1f7
100
AcDbEntity
  8
0
 62
7
100
AcDbLine
 10
32.569601
 20
431.441060
 30
0.0
 11
32.322911
 21
424.629120
 31
0.0
  0
LINE
  5
1f8
100
AcDbEntity
  8
0
 62
7
100
AcDbLine
 10
32.322911
 20
424.629120
 30
0.0
 11
31.911781
 21
417.884430
 31
0.0
  0
LINE
  5
1f9
100
AcDbEntity
  8
0
 62
7
100
AcDbLine
 10
31.911781
 20
417.884430
 30
0.0
 11
31.318051
 21
410.922990
 31
0.0
  0
LINE
  5
1fa
100
AcDbEntity
  8
0
 62
7
100
AcDbLine
 10
31.318051
 20
410.922990
 30
0.0
 11
30.566261
 21
404.010660
 31
0.0
  0
LINE
  5
1fb
100
AcDbEntity
  8
0
 62
7
100
AcDbLine
 10
30.566261
 20
404.010660
 30
0.0
 11
29.639351
 21
396.965920
 31
0.0
  0
LINE
  5
1fc
100
AcDbEntity
  8
0
 62
7
100
AcDbLine
 10
29.639351
 20
396.965920
 30
0.0
 11
28.540501
 21
389.801570
 31
0.0
  0
LINE
  5
1fd
100
AcDbEntity
  8
0
 62
7
100
AcDbLine
 10
28.540501
 20
389.801570
 30
0.0
 11
27.232371
 21
382.298710
 31
0.0
  0
LINE
  5
1fe
100
AcDbEntity
  8
0
 62
7
100
AcDbLine
 10
27.232371
 20
382.298710
 30
0.0
 11
25.595321
 21
373.914850
 31
0.0
  0
LINE
  5
1ff
100
AcDbEntity
  8
0
 62
7
100
AcDbLine
 10
25.595321
 20
373.914850
 30
0.0
 11
23.813051
 21
365.631380
 31
0.0
  0
LINE
  5
200
100
AcDbEntity
  8
0
 62
7
100
AcDbLine
 10
23.813051
 20
365.631380
 30
0.0
 11
21.957081
 21
357.647960
 31
0.0
  0
LINE
  5
201
100
AcDbEntity
  8
0
 62
7
100
AcDbLine
 10
21.957081
 20
357.647960
 30
0.0
 11
20.677911
 21
352.427150
 31
0.0
  0
ENDSEC
  0
SECTION
  2
OBJECTS
  0
DICTIONARY
  5
C
330
0
100
AcDbDictionary
  3
ACAD_GROUP
350
D
  3
ACAD_MLINESTYLE
350
17
  0
DICTIONARY
  5
D
330
C
100
AcDbDictionary
  0
DICTIONARY
  5
1A
330
C
100
AcDbDictionary
  0
DICTIONARY
  5
17
330
C
100
AcDbDictionary
  3
STANDARD
350
18
  0
DICTIONARY
  5
19
330
C
100
AcDbDictionary
  0
ENDSEC
  0
EOF
