  0
SECTION
  2
HEADER
  9
$ACADVER
  1
AC1014
  9
$HANDSEED
  5
FFFF
  9
$MEASUREMENT
 70
     1
  0
ENDSEC
  0
SECTION
  2
TABLES
  0
TABLE
  2
VPORT
  5
8
330
0
100
AcDbSymbolTable
 70
     4
  0
VPORT
  5
2E
330
8
100
AcDbSymbolTableRecord
100
AcDbViewportTableRecord
  2
*ACTIVE
 70
     0
 10
0.0
 20
0.0
 11
1.0
 21
1.0
 12
210.0
 22
148.5
 13
0.0
 23
0.0
 14
10.0
 24
10.0
 15
10.0
 25
10.0
 16
0.0
 26
0.0
 36
1.0
 17
0.0
 27
0.0
 37
0.0
 40
341.0
 41
1.24
 42
50.0
 43
0.0
 44
0.0
 50
0.0
 51
0.0
 71
     0
 72
   100
 73
     1
 74
     3
 75
     0
 76
     0
 77
     0
 78
     0
  0
ENDTAB
  0
TABLE
  2
LTYPE
  5
5
330
0
100
AcDbSymbolTable
 70
     1
  0
LTYPE
  5
14
330
5
100
AcDbSymbolTableRecord
100
AcDbLinetypeTableRecord
  2
BYBLOCK
 70
     0
  3

 72
    65
 73
     0
 40
0.0
  0
LTYPE
  5
15
330
5
100
AcDbSymbolTableRecord
100
AcDbLinetypeTableRecord
  2
BYLAYER
 70
     0
  3

 72
    65
 73
     0
 40
0.0
  0
LTYPE
  5
16
330
5
100
AcDbSymbolTableRecord
100
AcDbLinetypeTableRecord
  2
CONTINUOUS
 70
     0
  3
Solid line
 72
    65
 73
     0
 40
0.0
  0
ENDTAB
  0
TABLE
  2
LAYER
  5
2
100
AcDbSymbolTable
 70
1
  0
LAYER
  5
50
100
AcDbSymbolTableRecord
100
AcDbLayerTableRecord
  2
0
 70
0
  6
CONTINUOUS
  0
ENDTAB
  0
TABLE
  2
STYLE
  5
3
330
0
100
AcDbSymbolTable
 70
     1
  0
STYLE
  5
11
330
3
100
AcDbSymbolTableRecord
100
AcDbTextStyleTableRecord
  2
STANDARD
 70
     0
 40
0.0
 41
1.0
 50
0.0
 71
     0
 42
2.5
  3
txt
  4

  0
ENDTAB
  0
TABLE
  2
VIEW
  5
6
330
0
100
AcDbSymbolTable
 70
     0
  0
ENDTAB
  0
TABLE
  2
UCS
  5
7
330
0
100
AcDbSymbolTable
 70
     0
  0
ENDTAB
  0
TABLE
  2
APPID
  5
9
330
0
100
AcDbSymbolTable
 70
     2
  0
APPID
  5
12
330
9
100
AcDbSymbolTableRecord
100
AcDbRegAppTableRecord
  2
ACAD
 70
     0
  0
ENDTAB
  0
TABLE
  2
DIMSTYLE
  5
A
330
0
100
AcDbSymbolTable
 70
     1
  0
DIMSTYLE
105
27
330
A
100
AcDbSymbolTableRecord
100
AcDbDimStyleTableRecord
  2
ISO-25
 70
     0
  3

  4

  5

  6

  7

 40
1.0
 41
2.5
 42
0.625
 43
3.75
 44
1.25
 45
0.0
 46
0.0
 47
0.0
 48
0.0
140
2.5
141
2.5
142
0.0
143
0.03937007874016
144
1.0
145
0.0
146
1.0
147
0.625
 71
     0
 72
     0
 73
     0
 74
     0
 75
     0
 76
     0
 77
     1
 78
     8
170
     0
171
     3
172
     1
173
     0
174
     0
175
     0
176
     0
177
     0
178
     0
270
     2
271
     2
272
     2
273
     2
274
     3
340
11
275
     0
280
     0
281
     0
282
     0
283
     0
284
     8
285
     0
286
     0
287
     3
288
     0
  0
ENDTAB
  0
TABLE
  2
BLOCK_RECORD
  5
1
330
0
100
AcDbSymbolTable
 70
     1
  0
BLOCK_RECORD
  5
1F
330
1
100
AcDbSymbolTableRecord
100
AcDbBlockTableRecord
  2
*MODEL_SPACE
  0
BLOCK_RECORD
  5
1B
330
1
100
AcDbSymbolTableRecord
100
AcDbBlockTableRecord
  2
*PAPER_SPACE
  0
ENDTAB
  0
ENDSEC
  0
SECTION
  2
BLOCKS
  0
BLOCK
  5
20
330
1F
100
AcDbEntity
  8
0
100
AcDbBlockBegin
  2
*MODEL_SPACE
 70
     0
 10
0.0
 20
0.0
 30
0.0
  3
*MODEL_SPACE
  1

  0
ENDBLK
  5
21
330
1F
100
AcDbEntity
  8
0
100
AcDbBlockEnd
  0
BLOCK
  5
1C
330
1B
100
AcDbEntity
 67
     1
  8
0
100
AcDbBlockBegin
  2
*PAPER_SPACE
  1

  0
ENDBLK
  5
1D
330
1B
100
AcDbEntity
 67
     1
  8
0
100
AcDbBlockEnd
  0
ENDSEC
  0
SECTION
  2
ENTITIES
  0
SPLINE
  5
100
100
AcDbEntity
  8
0
 62
7
100
AcDbSpline
 70
0
 71
3
 72
10
 73
6
 74
4
 40
0.000000
 40
0.000000
 40
0.000000
 40
0.000000
 40
9.468975
 40
18.488317
 40
29.872067
 40
29.872067
 40
29.872067
 40
29.872067
 10
-181.208495
 20
514.100099
 30
0.0
 10
-184.415659
 20
513.789892
 30
0.0
 10
-190.677695
 20
513.184209
 30
0.0
 10
-198.345500
 20
504.750074
 30
0.0
 10
-196.588317
 20
497.730175
 30
0.0
 10
-195.607910
 20
493.813476
 30
0.0
 11
-181.208495
 21
514.100099
 31
0.0
 11
-190.432248
 21
511.959101
 31
0.0
 11
-196.371772
 21
505.171569
 31
0.0
 11
-195.607910
 21
493.813476
 31
0.0
  0
SPLINE
  5
101
100
AcDbEntity
  8
0
 62
7
100
AcDbSpline
 70
0
 71
3
 72
13
 73
9
 74
7
 40
0.000000
 40
0.000000
 40
0.000000
 40
0.000000
 40
10.095560
 40
20.163481
 40
30.184683
 40
40.140690
 40
50.013801
 40
59.786734
 40
59.786734
 40
59.786734
 40
59.786734
 10
-195.607910
 20
493.813476
 30
0.0
 10
-198.909739
 20
493.163038
 30
0.0
 10
-205.504356
 20
491.863942
 30
0.0
 10
-215.420324
 20
490.153285
 30
0.0
 10
-225.319225
 20
488.628542
 30
0.0
 10
-235.183619
 20
487.321054
 30
0.0
 10
-244.990020
 20
486.214953
 30
0.0
 10
-251.516225
 20
485.669356
 30
0.0
 10
-254.762689
 20
485.397949
 30
0.0
 11
-195.607910
 21
493.813476
 31
0.0
 11
-205.520738
 21
491.901361
 31
0.0
 11
-215.440504
 21
490.180531
 31
0.0
 11
-225.345702
 21
488.660155
 31
0.0
 11
-235.215075
 21
487.349595
 31
0.0
 11
-245.027746
 21
486.258814
 31
0.0
 11
-254.762689
 21
485.397949
 31
0.0
  0
SPLINE
  5
102
100
AcDbEntity
  8
0
 62
7
100
AcDbSpline
 70
0
 71
3
 72
10
 73
6
 74
4
 40
0.000000
 40
0.000000
 40
0.000000
 40
0.000000
 40
15.864123
 40
30.473809
 40
47.744794
 40
47.744794
 40
47.744794
 40
47.744794
 10
-254.762689
 20
485.397949
 30
0.0
 10
-255.938557
 20
491.200557
 30
0.0
 10
-258.197311
 20
502.346938
 30
0.0
 10
-279.762945
 20
502.450563
 30
0.0
 10
-282.050996
 20
490.672578
 30
0.0
 10
-283.290521
 20
484.291991
 30
0.0
 11
-254.762689
 21
485.397949
 31
0.0
 11
-261.408437
 21
499.802962
 31
0.0
 11
-276.017313
 21
499.956836
 31
0.0
 11
-283.290521
 21
484.291991
 31
0.0
  0
SPLINE
  5
103
100
AcDbEntity
  8
0
 62
7
100
AcDbSpline
 70
0
 71
3
 72
10
 73
6
 74
4
 40
0.000000
 40
0.000000
 40
0.000000
 40
0.000000
 40
10.341100
 40
20.554701
 40
30.655584
 40
30.655584
 40
30.655584
 40
30.655584
 10
-283.290521
 20
484.291991
 30
0.0
 10
-286.737215
 20
484.347125
 30
0.0
 10
-293.588106
 20
484.456712
 30
0.0
 10
-303.798631
 20
484.904379
 30
0.0
 10
-310.553115
 20
485.386661
 30
0.0
 10
-313.911618
 20
485.626464
 30
0.0
 11
-283.290521
 21
484.291991
 31
0.0
 11
-293.629414
 21
484.505628
 31
0.0
 11
-303.833215
 21
484.952948
 31
0.0
 11
-313.911618
 21
485.626464
 31
0.0
  0
SPLINE
  5
104
100
AcDbEntity
  8
0
 62
7
100
AcDbSpline
 70
0
 71
3
 72
10
 73
6
 74
4
 40
0.000000
 40
0.000000
 40
0.000000
 40
0.000000
 40
23.270258
 40
54.311194
 40
77.524537
 40
77.524537
 40
77.524537
 40
77.524537
 10
-313.911618
 20
485.626464
 30
0.0
 10
-316.753002
 20
493.167513
 30
0.0
 10
-323.384598
 20
510.767807
 30
0.0
 10
-356.988843
 20
516.710803
 30
0.0
 10
-367.678326
 20
500.796792
 30
0.0
 10
-372.251950
 20
493.987792
 30
0.0
 11
-313.911618
 21
485.626464
 31
0.0
 11
-325.540180
 21
505.782889
 31
0.0
 11
-356.182729
 21
510.740089
 31
0.0
 11
-372.251950
 21
493.987792
 31
0.0
  0
SPLINE
  5
105
100
AcDbEntity
  8
0
 62
7
100
AcDbSpline
 70
0
 71
3
 72
10
 73
6
 74
4
 40
0.000000
 40
0.000000
 40
0.000000
 40
0.000000
 40
9.669786
 40
19.323776
 40
28.972100
 40
28.972100
 40
28.972100
 40
28.972100
 10
-372.251950
 20
493.987792
 30
0.0
 10
-375.405026
 20
494.657073
 30
0.0
 10
-381.706027
 20
495.994542
 30
0.0
 10
-391.107863
 20
498.205657
 30
0.0
 10
-397.340599
 20
499.803083
 30
0.0
 10
-400.456052
 20
500.601561
 30
0.0
 11
-372.251950
 21
493.987792
 31
0.0
 11
-381.703621
 21
496.030016
 31
0.0
 11
-391.101916
 21
498.237182
 31
0.0
 11
-400.456052
 21
500.601561
 31
0.0
  0
SPLINE
  5
106
100
AcDbEntity
  8
0
 62
7
100
AcDbSpline
 70
0
 71
3
 72
10
 73
6
 74
4
 40
0.000000
 40
0.000000
 40
0.000000
 40
0.000000
 40
16.005103
 40
32.415298
 40
49.797163
 40
49.797163
 40
49.797163
 40
49.797163
 10
-400.456052
 20
500.601561
 30
0.0
 10
-405.538489
 20
503.396543
 30
0.0
 10
-415.832000
 20
509.057249
 30
0.0
 10
-432.397392
 20
493.116996
 30
0.0
 10
-424.423731
 20
482.988938
 30
0.0
 10
-420.322262
 20
477.779296
 30
0.0
 11
-400.456052
 21
500.601561
 31
0.0
 11
-415.822741
 21
505.076848
 31
0.0
 11
-427.542733
 21
493.590495
 31
0.0
 11
-420.322262
 21
477.779296
 31
0.0
  0
SPLINE
  5
107
100
AcDbEntity
  8
0
 62
7
100
AcDbSpline
 70
0
 71
3
 72
13
 73
9
 74
7
 40
0.000000
 40
0.000000
 40
0.000000
 40
0.000000
 40
10.095367
 40
20.162907
 40
30.183899
 40
40.139849
 40
50.012848
 40
59.785723
 40
59.785723
 40
59.785723
 40
59.785723
 10
-420.322262
 20
477.779296
 30
0.0
 10
-422.611073
 20
475.312303
 30
0.0
 10
-427.182385
 20
470.385119
 30
0.0
 10
-434.198311
 20
463.172336
 30
0.0
 10
-441.310046
 20
456.120238
 30
0.0
 10
-448.522120
 20
449.264630
 30
0.0
 10
-455.805833
 20
442.606181
 30
0.0
 10
-460.764988
 20
438.328908
 30
0.0
 10
-463.231929
 20
436.201171
 30
0.0
 11
-420.322262
 21
477.779296
 31
0.0
 11
-427.217609
 21
470.405652
 31
0.0
 11
-434.230662
 21
463.182602
 31
0.0
 11
-441.350094
 21
456.130371
 31
0.0
 11
-448.564382
 21
449.269250
 31
0.0
 11
-455.862081
 21
442.619459
 31
0.0
 11
-463.231929
 21
436.201171
 31
0.0
  0
SPLINE
  5
108
100
AcDbEntity
  8
0
 62
7
100
AcDbSpline
 70
0
 71
3
 72
10
 73
6
 74
4
 40
0.000000
 40
0.000000
 40
0.000000
 40
0.000000
 40
15.863831
 40
30.473071
 40
47.744143
 40
47.744143
 40
47.744143
 40
47.744143
 10
-463.231929
 20
436.201171
 30
0.0
 10
-467.593832
 20
440.204446
 30
0.0
 10
-475.972677
 20
447.894396
 30
0.0
 10
-493.479920
 20
435.301859
 30
0.0
 10
-488.407904
 20
424.428629
 30
0.0
 10
-485.660154
 20
418.538086
 30
0.0
 11
-463.231929
 21
436.201171
 31
0.0
 11
-477.075187
 21
443.948773
 31
0.0
 11
-488.983875
 21
435.486325
 31
0.0
 11
-485.660154
 21
418.538086
 31
0.0
  0
SPLINE
  5
109
100
AcDbEntity
  8
0
 62
7
100
AcDbSpline
 70
0
 71
3
 72
10
 73
6
 74
4
 40
0.000000
 40
0.000000
 40
0.000000
 40
0.000000
 40
10.341563
 40
20.556027
 40
30.657368
 40
30.657368
 40
30.657368
 40
30.657368
 10
-485.660154
 20
418.538086
 30
0.0
 10
-488.481105
 20
416.556665
 30
0.0
 10
-494.088337
 20
412.618174
 30
0.0
 10
-502.612287
 20
406.978168
 30
0.0
 10
-508.360594
 20
403.397861
 30
0.0
 10
-511.218743
 20
401.617676
 30
0.0
 11
-485.660154
 21
418.538086
 31
0.0
 11
-494.150380
 21
412.633513
 31
0.0
 11
-502.668947
 21
406.997089
 31
0.0
 11
-511.218743
 21
401.617676
 31
0.0
  0
SPLINE
  5
10a
100
AcDbEntity
  8
0
 62
7
100
AcDbSpline
 70
0
 71
3
 72
10
 73
6
 74
4
 40
0.000000
 40
0.000000
 40
0.000000
 40
0.000000
 40
23.270468
 40
54.311257
 40
77.524291
 40
77.524291
 40
77.524291
 40
77.524291
 10
-511.218743
 20
401.617676
 30
0.0
 10
-517.949983
 20
406.048497
 30
0.0
 10
-533.660115
 20
416.389649
 30
0.0
 10
-564.340049
 20
401.446351
 30
0.0
 10
-563.634082
 20
382.288621
 30
0.0
 10
-563.332027
 20
374.091797
 30
0.0
 11
-511.218743
 21
401.617676
 31
0.0
 11
-532.474181
 21
411.089795
 31
0.0
 11
-560.178434
 21
397.089618
 31
0.0
 11
-563.332027
 21
374.091797
 31
0.0
  0
SPLINE
  5
10b
100
AcDbEntity
  8
0
 62
7
100
AcDbSpline
 70
0
 71
3
 72
10
 73
6
 74
4
 40
0.000000
 40
0.000000
 40
0.000000
 40
0.000000
 40
9.669982
 40
19.324321
 40
28.972833
 40
28.972833
 40
28.972833
 40
28.972833
 10
-563.332027
 20
374.091797
 30
0.0
 10
-566.276361
 20
372.779873
 30
0.0
 10
-572.160264
 20
370.158147
 30
0.0
 10
-581.066278
 20
366.420342
 30
0.0
 10
-587.047756
 20
364.049055
 30
0.0
 10
-590.037592
 20
362.863770
 30
0.0
 11
-563.332027
 21
374.091797
 31
0.0
 11
-572.179109
 21
370.188247
 31
0.0
 11
-581.080061
 21
366.449355
 31
0.0
 11
-590.037592
 21
362.863770
 31
0.0
  0
SPLINE
  5
10c
100
AcDbEntity
  8
0
 62
7
100
AcDbSpline
 70
0
 71
3
 72
10
 73
6
 74
4
 40
0.000000
 40
0.000000
 40
0.000000
 40
0.000000
 40
16.005029
 40
32.415183
 40
49.797103
 40
49.797103
 40
49.797103
 40
49.797103
 10
-590.037592
 20
362.863770
 30
0.0
 10
-595.792203
 20
362.137574
 30
0.0
 10
-607.447088
 20
360.666800
 30
0.0
 10
-611.479099
 20
338.033963
 30
0.0
 10
-599.075147
 20
334.527035
 30
0.0
 10
-592.694820
 20
332.723146
 30
0.0
 11
-590.037592
 21
362.863770
 31
0.0
 11
-605.099936
 21
357.452048
 31
0.0
 11
-607.829965
 21
341.270574
 31
0.0
 11
-592.694820
 21
332.723146
 31
0.0
  0
SPLINE
  5
10d
100
AcDbEntity
  8
0
 62
7
100
AcDbSpline
 70
0
 71
3
 72
13
 73
9
 74
7
 40
0.000000
 40
0.000000
 40
0.000000
 40
0.000000
 40
10.095306
 40
20.162710
 40
30.183608
 40
40.139611
 40
50.012701
 40
59.785633
 40
59.785633
 40
59.785633
 40
59.785633
 10
-592.694820
 20
332.723146
 30
0.0
 10
-593.096390
 20
329.381992
 30
0.0
 10
-593.898421
 20
322.708920
 30
0.0
 10
-595.334385
 20
312.749829
 30
0.0
 10
-596.942506
 20
302.864401
 30
0.0
 10
-598.747887
 20
293.078984
 30
0.0
 10
-600.727425
 20
283.410989
 30
0.0
 10
-602.225485
 20
277.035667
 30
0.0
 10
-602.970697
 20
273.864257
 30
0.0
 11
-592.694820
 21
332.723146
 31
0.0
 11
-593.938938
 21
322.704794
 31
0.0
 11
-595.366621
 21
312.739136
 31
0.0
 11
-596.980950
 21
302.849124
 31
0.0
 11
-598.784844
 21
293.057906
 31
0.0
 11
-600.780668
 21
283.388645
 31
0.0
 11
-602.970697
 21
273.864257
 31
0.0
  0
SPLINE
  5
10e
100
AcDbEntity
  8
0
 62
7
100
AcDbSpline
 70
0
 71
3
 72
10
 73
6
 74
4
 40
0.000000
 40
0.000000
 40
0.000000
 40
0.000000
 40
15.863715
 40
30.473073
 40
47.744316
 40
47.744316
 40
47.744316
 40
47.744316
 10
-602.970697
 20
273.864257
 30
0.0
 10
-608.852598
 20
274.539057
 30
0.0
 10
-620.151314
 20
275.835301
 30
0.0
 10
-626.912772
 20
255.356985
 30
0.0
 10
-616.418275
 20
249.541589
 30
0.0
 10
-610.732904
 20
246.391112
 30
0.0
 11
-602.970697
 21
273.864257
 31
0.0
 11
-618.723924
 21
271.995226
 31
0.0
 11
-623.383907
 21
258.149003
 31
0.0
 11
-610.732904
 21
246.391112
 31
0.0
  0
SPLINE
  5
10f
100
AcDbEntity
  8
0
 62
7
100
AcDbSpline
 70
0
 71
3
 72
10
 73
6
 74
4
 40
0.000000
 40
0.000000
 40
0.000000
 40
0.000000
 40
10.341426
 40
20.555664
 40
30.656902
 40
30.656902
 40
30.656902
 40
30.656902
 10
-610.732904
 20
246.391112
 30
0.0
 10
-611.850512
 20
243.130063
 30
0.0
 10
-614.071981
 20
236.648072
 30
0.0
 10
-617.653658
 20
227.075413
 30
0.0
 10
-620.199813
 20
220.800286
 30
0.0
 10
-621.465809
 20
217.680175
 30
0.0
 11
-610.732904
 21
246.391112
 31
0.0
 11
-614.131303
 21
236.624026
 31
0.0
 11
-617.710511
 21
227.057421
 31
0.0
 11
-621.465809
 21
217.680175
 31
0.0
  0
SPLINE
  5
110
100
AcDbEntity
  8
0
 62
7
100
AcDbSpline
 70
0
 71
3
 72
10
 73
6
 74
4
 40
0.000000
 40
0.000000
 40
0.000000
 40
0.000000
 40
23.270321
 40
54.311395
 40
77.524751
 40
77.524751
 40
77.524751
 40
77.524751
 10
-621.465809
 20
217.680175
 30
0.0
 10
-629.515824
 20
217.308148
 30
0.0
 10
-648.304027
 20
216.439862
 30
0.0
 10
-664.340539
 20
186.316791
 30
0.0
 10
-652.508675
 20
171.232706
 30
0.0
 10
-647.446281
 20
164.778813
 30
0.0
 11
-621.465809
 21
217.680175
 31
0.0
 11
-644.229184
 21
212.849377
 31
0.0
 11
-658.412941
 21
185.238341
 31
0.0
 11
-647.446281
 21
164.778813
 31
0.0
  0
LINE
  5
111
100
AcDbEntity
  8
0
 62
7
100
AcDbLine
 10
-662.452139
 20
139.998049
 30
0.0
 11
-615.057119
 21
139.998049
 31
0.0
  0
SPLINE
  5
112
100
AcDbEntity
  8
0
 62
7
100
AcDbSpline
 70
0
 71
3
 72
10
 73
6
 74
4
 40
0.000000
 40
0.000000
 40
0.000000
 40
0.000000
 40
9.670113
 40
19.324300
 40
28.972942
 40
28.972942
 40
28.972942
 40
28.972942
 10
-647.446281
 20
164.778813
 30
0.0
 10
-649.057198
 20
161.986776
 30
0.0
 10
-652.276379
 20
156.407300
 30
0.0
 10
-657.284614
 20
148.148574
 30
0.0
 10
-660.729960
 20
142.714370
 30
0.0
 10
-662.452139
 20
139.998049
 30
0.0
 11
-647.446281
 21
164.778813
 31
0.0
 11
-652.309382
 21
156.420504
 31
0.0
 11
-657.312758
 21
148.164018
 31
0.0
 11
-662.452139
 21
139.998049
 31
0.0
  0
LINE
  5
113
100
AcDbEntity
  8
0
 62
7
100
AcDbLine
 10
-567.662100
 20
139.998049
 30
0.0
 11
-520.267081
 21
139.998049
 31
0.0
  0
LINE
  5
114
100
AcDbEntity
  8
0
 62
7
100
AcDbLine
 10
-520.267081
 20
139.998049
 30
0.0
 11
-472.870599
 21
139.998049
 31
0.0
  0
LINE
  5
115
100
AcDbEntity
  8
0
 62
7
100
AcDbLine
 10
-472.870599
 20
139.998049
 30
0.0
 11
-425.475579
 21
139.998049
 31
0.0
  0
LINE
  5
116
100
AcDbEntity
  8
0
 62
7
100
AcDbLine
 10
-425.475579
 20
139.998049
 30
0.0
 11
-378.080560
 21
139.998049
 31
0.0
  0
SPLINE
  5
117
100
AcDbEntity
  8
0
 62
7
100
AcDbSpline
 70
0
 71
3
 72
10
 73
6
 74
4
 40
0.000000
 40
0.000000
 40
0.000000
 40
0.000000
 40
23.380606
 40
46.551335
 40
70.096521
 40
70.096521
 40
70.096521
 40
70.096521
 10
-615.057119
 20
139.998049
 30
0.0
 10
-612.339959
 20
131.948811
 30
0.0
 10
-606.930029
 20
115.922590
 30
0.0
 10
-576.091181
 20
115.986834
 30
0.0
 10
-570.486768
 20
131.951655
 30
0.0
 10
-567.662100
 20
139.998049
 30
0.0
 11
-615.057119
 21
139.998049
 31
0.0
 11
-603.104027
 21
119.903862
 31
0.0
 11
-579.933298
 21
119.903436
 31
0.0
 11
-567.662100
 21
139.998049
 31
0.0
  0
LINE
  5
118
100
AcDbEntity
  8
0
 62
7
100
AcDbLine
 10
-330.685541
 20
139.998049
 30
0.0
 11
-283.290521
 21
139.998049
 31
0.0
  0
LINE
  5
119
100
AcDbEntity
  8
0
 62
7
100
AcDbLine
 10
-283.290521
 20
139.998049
 30
0.0
 11
-283.290521
 21
139.996549
 31
0.0
  0
SPLINE
  5
11a
100
AcDbEntity
  8
0
 62
7
100
AcDbSpline
 70
0
 71
3
 72
10
 73
6
 74
4
 40
0.000000
 40
0.000000
 40
0.000000
 40
0.000000
 40
26.160801
 40
48.918712
 40
75.179086
 40
75.179086
 40
75.179086
 40
75.179086
 10
-378.080560
 20
139.998049
 30
0.0
 10
-375.575590
 20
130.657224
 30
0.0
 10
-370.891488
 20
113.190592
 30
0.0
 10
-337.791239
 20
112.959332
 30
0.0
 10
-333.164308
 20
130.565803
 30
0.0
 10
-330.685541
 20
139.998049
 30
0.0
 11
-378.080560
 21
139.998049
 31
0.0
 11
-365.745537
 21
116.927836
 31
0.0
 11
-342.987998
 21
116.797687
 31
0.0
 11
-330.685541
 21
139.998049
 31
0.0
  0
LINE
  5
11b
100
AcDbEntity
  8
0
 62
7
100
AcDbLine
 10
-251.808102
 20
117.123012
 30
0.0
 11
81.969726
 21
117.123012
 31
0.0
  0
SPLINE
  5
11c
100
AcDbEntity
  8
0
 62
7
100
AcDbSpline
 70
0
 71
3
 72
10
 73
6
 74
4
 40
0.000000
 40
0.000000
 40
0.000000
 40
0.000000
 40
12.971519
 40
25.943023
 40
38.914540
 40
38.914540
 40
38.914540
 40
38.914540
 10
-283.290521
 20
139.996549
 30
0.0
 10
-279.792467
 20
137.455052
 30
0.0
 10
-272.796363
 20
132.372061
 30
0.0
 10
-262.302249
 20
124.747512
 30
0.0
 10
-255.306152
 20
119.664513
 30
0.0
 10
-251.808102
 20
117.123012
 30
0.0
 11
-283.290521
 21
139.996549
 31
0.0
 11
-272.796366
 21
132.372047
 31
0.0
 11
-262.302247
 21
124.747523
 31
0.0
 11
-251.808102
 21
117.123012
 31
0.0
  0
SPLINE
  5
11d
100
AcDbEntity
  8
0
 62
7
100
AcDbSpline
 70
0
 71
3
 72
10
 73
6
 74
4
 40
0.000000
 40
0.000000
 40
0.000000
 40
0.000000
 40
8.932372
 40
17.852902
 40
26.768796
 40
26.768796
 40
26.768796
 40
26.768796
 10
81.969726
 20
117.123012
 30
0.0
 10
83.466871
 20
119.696738
 30
0.0
 10
86.459175
 20
124.840778
 30
0.0
 10
91.095085
 20
132.465776
 30
0.0
 10
94.279363
 20
137.486726
 30
0.0
 10
95.871089
 20
139.996549
 30
0.0
 11
81.969726
 21
117.123012
 31
0.0
 11
86.486073
 21
124.829494
 31
0.0
 11
91.119727
 21
132.452166
 31
0.0
 11
95.871089
 21
139.996549
 31
0.0
  0
SPLINE
  5
11e
100
AcDbEntity
  8
0
 62
7
100
AcDbSpline
 70
0
 71
3
 72
10
 73
6
 74
4
 40
0.000000
 40
0.000000
 40
0.000000
 40
0.000000
 40
16.004786
 40
32.414664
 40
49.796713
 40
49.796713
 40
49.796713
 40
49.796713
 10
95.871089
 20
139.996549
 30
0.0
 10
100.099806
 20
143.966478
 30
0.0
 10
108.664273
 20
152.006817
 30
0.0
 10
98.622484
 20
172.686681
 30
0.0
 10
86.526296
 20
168.232846
 30
0.0
 10
80.304201
 20
165.941861
 30
0.0
 11
95.871089
 21
139.996549
 31
0.0
 11
104.875746
 21
153.227926
 31
0.0
 11
97.572949
 21
167.923273
 31
0.0
 11
80.304201
 21
165.941861
 31
0.0
  0
SPLINE
  5
11f
100
AcDbEntity
  8
0
 62
7
100
AcDbSpline
 70
0
 71
3
 72
13
 73
9
 74
7
 40
0.000000
 40
0.000000
 40
0.000000
 40
0.000000
 40
10.095313
 40
20.162721
 40
30.183628
 40
40.139898
 40
50.013490
 40
59.786694
 40
59.786694
 40
59.786694
 40
59.786694
 10
80.304201
 20
165.941861
 30
0.0
 10
78.665209
 20
168.880957
 30
0.0
 10
75.391754
 20
174.751025
 30
0.0
 10
70.699764
 20
183.652196
 30
0.0
 10
66.190265
 20
192.595016
 30
0.0
 10
61.898925
 20
201.572950
 30
0.0
 10
57.817300
 20
210.558266
 30
0.0
 10
55.281786
 20
216.596765
 30
0.0
 10
54.020507
 20
219.600588
 30
0.0
 11
80.304201
 21
165.941861
 31
0.0
 11
75.422120
 21
174.778184
 31
0.0
 11
70.719552
 21
183.679790
 31
0.0
 11
66.212401
 21
192.629883
 31
0.0
 11
61.916440
 21
201.611643
 31
0.0
 11
57.847242
 21
210.607723
 31
0.0
 11
54.020507
 21
219.600588
 31
0.0
  0
SPLINE
  5
120
100
AcDbEntity
  8
0
 62
7
100
AcDbSpline
 70
0
 71
3
 72
10
 73
6
 74
4
 40
0.000000
 40
0.000000
 40
0.000000
 40
0.000000
 40
15.863772
 40
30.472407
 40
47.743267
 40
47.743267
 40
47.743267
 40
47.743267
 10
54.020507
 20
219.600588
 30
0.0
 10
59.175832
 20
222.511791
 30
0.0
 10
69.078594
 20
228.103864
 30
0.0
 10
62.512804
 20
248.645289
 30
0.0
 10
50.604628
 20
247.181307
 30
0.0
 10
44.153320
 20
246.388187
 30
0.0
 11
54.020507
 21
219.600588
 31
0.0
 11
65.666902
 21
230.371881
 31
0.0
 11
61.298961
 21
244.312229
 31
0.0
 11
44.153320
 21
246.388187
 31
0.0
  0
SPLINE
  5
121
100
AcDbEntity
  8
0
 62
7
100
AcDbSpline
 70
0
 71
3
 72
10
 73
6
 74
4
 40
0.000000
 40
0.000000
 40
0.000000
 40
0.000000
 40
10.341761
 40
20.556585
 40
30.658119
 40
30.658119
 40
30.658119
 40
30.658119
 10
44.153320
 20
246.388187
 30
0.0
 10
43.140587
 20
249.683430
 30
0.0
 10
41.127552
 20
256.233469
 30
0.0
 10
38.397619
 20
266.083340
 30
0.0
 10
36.768835
 20
272.656862
 30
0.0
 10
35.958984
 20
275.925294
 30
0.0
 11
44.153320
 21
246.388187
 31
0.0
 11
41.161334
 21
256.287684
 31
0.0
 11
38.433103
 21
266.131433
 31
0.0
 11
35.958984
 21
275.925294
 31
0.0
  0
SPLINE
  5
122
100
AcDbEntity
  8
0
 62
7
100
AcDbSpline
 70
0
 71
3
 72
10
 73
6
 74
4
 40
0.000000
 40
0.000000
 40
0.000000
 40
0.000000
 40
23.270245
 40
54.310698
 40
77.523735
 40
77.523735
 40
77.523735
 40
77.523735
 10
35.958984
 20
275.925294
 30
0.0
 10
42.252985
 20
280.957824
 30
0.0
 10
56.942630
 20
292.703303
 30
0.0
 10
52.210987
 20
326.499155
 30
0.0
 10
33.772799
 20
331.747567
 30
0.0
 10
25.883789
 20
333.993166
 30
0.0
 11
35.958984
 21
275.925294
 31
0.0
 11
51.535682
 21
293.213174
 31
0.0
 11
46.781604
 21
323.887406
 31
0.0
 11
25.883789
 21
333.993166
 31
0.0
  0
SPLINE
  5
123
100
AcDbEntity
  8
0
 62
7
100
AcDbSpline
 70
0
 71
3
 72
10
 73
6
 74
4
 40
0.000000
 40
0.000000
 40
0.000000
 40
0.000000
 40
9.670227
 40
19.325045
 40
28.973797
 40
28.973797
 40
28.973797
 40
28.973797
 10
25.883789
 20
333.993166
 30
0.0
 10
25.545935
 20
337.198884
 30
0.0
 10
24.870765
 20
343.605211
 30
0.0
 10
24.068184
 20
353.230716
 30
0.0
 10
23.661357
 20
359.652448
 30
0.0
 10
23.458008
 20
362.862305
 30
0.0
 11
25.883789
 21
333.993166
 31
0.0
 11
24.905248
 21
343.613756
 31
0.0
 11
24.100008
 21
353.234936
 31
0.0
 11
23.458008
 21
362.862305
 31
0.0
  0
SPLINE
  5
124
100
AcDbEntity
  8
0
 62
7
100
AcDbSpline
 70
0
 71
3
 72
10
 73
6
 74
4
 40
0.000000
 40
0.000000
 40
0.000000
 40
0.000000
 40
16.004650
 40
32.413972
 40
49.795364
 40
49.795364
 40
49.795364
 40
49.795364
 10
23.458008
 20
362.862305
 30
0.0
 10
24.545286
 20
368.559538
 30
0.0
 10
26.747333
 20
380.098058
 30
0.0
 10
6.469112
 20
390.926205
 30
0.0
 10
-0.698724
 20
380.213222
 30
0.0
 10
-4.385742
 20
374.702638
 30
0.0
 11
23.458008
 21
362.862305
 31
0.0
 11
22.964879
 21
378.859356
 31
0.0
 11
8.419703
 21
386.455653
 31
0.0
 11
-4.385742
 21
374.702638
 31
0.0
  0
SPLINE
  5
125
100
AcDbEntity
  8
0
 62
7
100
AcDbSpline
 70
0
 71
3
 72
13
 73
9
 74
7
 40
0.000000
 40
0.000000
 40
0.000000
 40
0.000000
 40
10.095430
 40
20.163084
 40
30.184127
 40
40.140059
 40
50.013028
 40
59.785885
 40
59.785885
 40
59.785885
 40
59.785885
 10
-4.385742
 20
374.702638
 30
0.0
 10
-7.439315
 20
376.117041
 30
0.0
 10
-13.538059
 20
378.941957
 30
0.0
 10
-22.566153
 20
383.385209
 30
0.0
 10
-31.470909
 20
387.969445
 30
0.0
 10
-40.219543
 20
392.710209
 30
0.0
 10
-48.802723
 20
397.580114
 30
0.0
 10
-54.403063
 20
400.974854
 30
0.0
 10
-57.188964
 20
402.663575
 30
0.0
 11
-4.385742
 21
374.702638
 31
0.0
 11
-13.529426
 21
378.981744
 31
0.0
 11
-22.566388
 21
383.419195
 31
0.0
 11
-31.473633
 21
388.010742
 31
0.0
 11
-40.228201
 21
392.751849
 31
0.0
 11
-48.807489
 21
397.637681
 31
0.0
 11
-57.188964
 21
402.663575
 31
0.0
  0
SPLINE
  5
126
100
AcDbEntity
  8
0
 62
7
100
AcDbSpline
 70
0
 71
3
 72
10
 73
6
 74
4
 40
0.000000
 40
0.000000
 40
0.000000
 40
0.000000
 40
15.863585
 40
30.473069
 40
47.744500
 40
47.744500
 40
47.744500
 40
47.744500
 10
-57.188964
 20
402.663575
 30
0.0
 10
-54.729649
 20
408.049068
 30
0.0
 10
-50.005441
 20
418.394303
 30
0.0
 10
-67.392476
 20
431.152561
 30
0.0
 10
-76.166255
 20
422.968732
 30
0.0
 10
-80.919434
 20
418.535156
 30
0.0
 11
-57.188964
 21
402.663575
 31
0.0
 11
-54.098665
 21
418.223247
 31
0.0
 11
-65.827484
 21
426.933691
 31
0.0
 11
-80.919434
 21
418.535156
 31
0.0
  0
SPLINE
  5
127
100
AcDbEntity
  8
0
 62
7
100
AcDbSpline
 70
0
 71
3
 72
10
 73
6
 74
4
 40
0.000000
 40
0.000000
 40
0.000000
 40
0.000000
 40
10.341246
 40
20.555134
 40
30.656168
 40
30.656168
 40
30.656168
 40
30.656168
 10
-80.919434
 20
418.535156
 30
0.0
 10
-83.675453
 20
420.605768
 30
0.0
 10
-89.153550
 20
424.721491
 30
0.0
 10
-97.150567
 20
431.085997
 30
0.0
 10
-102.331590
 20
435.446571
 30
0.0
 10
-104.907711
 20
437.614746
 30
0.0
 11
-80.919434
 21
418.535156
 31
0.0
 11
-89.158119
 21
424.785392
 31
0.0
 11
-97.150086
 21
431.145577
 31
0.0
 11
-104.907711
 21
437.614746
 31
0.0
  0
SPLINE
  5
128
100
AcDbEntity
  8
0
 62
7
100
AcDbSpline
 70
0
 71
3
 72
10
 73
6
 74
4
 40
0.000000
 40
0.000000
 40
0.000000
 40
0.000000
 40
23.270448
 40
54.311269
 40
77.524344
 40
77.524344
 40
77.524344
 40
77.524344
 10
-104.907711
 20
437.614746
 30
0.0
 10
-102.773834
 20
445.385734
 30
0.0
 10
-97.793543
 20
463.522566
 30
0.0
 10
-121.486178
 20
488.083118
 30
0.0
 10
-139.488119
 20
481.491623
 30
0.0
 10
-147.190431
 20
478.671386
 30
0.0
 11
-104.907711
 21
437.614746
 31
0.0
 11
-102.467526
 21
460.756898
 31
0.0
 11
-124.343651
 21
482.778882
 31
0.0
 11
-147.190431
 21
478.671386
 31
0.0
  0
SPLINE
  5
129
100
AcDbEntity
  8
0
 62
7
100
AcDbSpline
 70
0
 71
3
 72
10
 73
6
 74
4
 40
0.000000
 40
0.000000
 40
0.000000
 40
0.000000
 40
9.670458
 40
19.325290
 40
28.974276
 40
28.974276
 40
28.974276
 40
28.974276
 10
-147.190431
 20
478.671386
 30
0.0
 10
-149.348085
 20
481.066339
 30
0.0
 10
-153.659906
 20
485.852373
 30
0.0
 10
-159.967027
 20
493.167959
 30
0.0
 10
-164.070800
 20
498.124194
 30
0.0
 10
-166.122065
 20
500.601561
 30
0.0
 11
-147.190431
 21
478.671386
 31
0.0
 11
-153.637077
 21
485.879612
 31
0.0
 11
-159.943714
 21
493.190023
 31
0.0
 11
-166.122065
 21
500.601561
 31
0.0
  0
LINE
  5
12a
100
AcDbEntity
  8
0
 62
7
100
AcDbLine
 10
-181.208495
 20
514.100099
 30
0.0
 11
-181.208495
 21
514.100099
 31
0.0
  0
LINE
  5
12b
100
AcDbEntity
  8
0
 62
7
100
AcDbLine
 10
-235.894740
 20
139.996830
 30
0.0
 11
-188.499630
 21
139.996750
 31
0.0
  0
LINE
  5
12c
100
AcDbEntity
  8
0
 62
7
100
AcDbLine
 10
1.080584
 20
139.996230
 30
0.0
 11
48.475690
 21
139.996150
 31
0.0
  0
SPLINE
  5
12d
100
AcDbEntity
  8
0
 62
7
100
AcDbSpline
 70
0
 71
3
 72
10
 73
6
 74
4
 40
0.000000
 40
0.000000
 40
0.000000
 40
0.000000
 40
7.753755
 40
14.902830
 40
22.331993
 40
22.331993
 40
22.331993
 40
22.331993
 10
-166.122065
 20
500.601561
 30
0.0
 10
-166.564567
 20
503.235813
 30
0.0
 10
-167.415060
 20
508.298882
 30
0.0
 10
-173.881844
 20
513.188155
 30
0.0
 10
-178.735196
 20
513.792249
 30
0.0
 10
-181.208495
 20
514.100099
 30
0.0
 11
-166.122065
 21
500.601561
 31
0.0
 11
-168.387539
 21
508.016974
 31
0.0
 11
-173.952692
 21
512.504551
 31
0.0
 11
-181.208495
 21
514.100099
 31
0.0
  0
ENDSEC
  0
SECTION
  2
OBJECTS
  0
DICTIONARY
  5
C
330
0
100
AcDbDictionary
  3
ACAD_GROUP
350
D
  3
ACAD_MLINESTYLE
350
17
  0
DICTIONARY
  5
D
330
C
100
AcDbDictionary
  0
DICTIONARY
  5
1A
330
C
100
AcDbDictionary
  0
DICTIONARY
  5
17
330
C
100
AcDbDictionary
  3
STANDARD
350
18
  0
DICTIONARY
  5
19
330
C
100
AcDbDictionary
  0
ENDSEC
  0
EOF
