  0
SECTION
  2
HEADER
  9
$ACADVER
  1
AC1014
  9
$HANDSEED
  5
FFFF
  9
$MEASUREMENT
 70
     1
  0
ENDSEC
  0
SECTION
  2
TABLES
  0
TABLE
  2
VPORT
  5
8
330
0
100
AcDbSymbolTable
 70
     4
  0
VPORT
  5
2E
330
8
100
AcDbSymbolTableRecord
100
AcDbViewportTableRecord
  2
*ACTIVE
 70
     0
 10
0.0
 20
0.0
 11
1.0
 21
1.0
 12
210.0
 22
148.5
 13
0.0
 23
0.0
 14
10.0
 24
10.0
 15
10.0
 25
10.0
 16
0.0
 26
0.0
 36
1.0
 17
0.0
 27
0.0
 37
0.0
 40
341.0
 41
1.24
 42
50.0
 43
0.0
 44
0.0
 50
0.0
 51
0.0
 71
     0
 72
   100
 73
     1
 74
     3
 75
     0
 76
     0
 77
     0
 78
     0
  0
ENDTAB
  0
TABLE
  2
LTYPE
  5
5
330
0
100
AcDbSymbolTable
 70
     1
  0
LTYPE
  5
14
330
5
100
AcDbSymbolTableRecord
100
AcDbLinetypeTableRecord
  2
BYBLOCK
 70
     0
  3

 72
    65
 73
     0
 40
0.0
  0
LTYPE
  5
15
330
5
100
AcDbSymbolTableRecord
100
AcDbLinetypeTableRecord
  2
BYLAYER
 70
     0
  3

 72
    65
 73
     0
 40
0.0
  0
LTYPE
  5
16
330
5
100
AcDbSymbolTableRecord
100
AcDbLinetypeTableRecord
  2
CONTINUOUS
 70
     0
  3
Solid line
 72
    65
 73
     0
 40
0.0
  0
ENDTAB
  0
TABLE
  2
LAYER
  5
2
100
AcDbSymbolTable
 70
1
  0
LAYER
  5
50
100
AcDbSymbolTableRecord
100
AcDbLayerTableRecord
  2
0
 70
0
  6
CONTINUOUS
  0
ENDTAB
  0
TABLE
  2
STYLE
  5
3
330
0
100
AcDbSymbolTable
 70
     1
  0
STYLE
  5
11
330
3
100
AcDbSymbolTableRecord
100
AcDbTextStyleTableRecord
  2
STANDARD
 70
     0
 40
0.0
 41
1.0
 50
0.0
 71
     0
 42
2.5
  3
txt
  4

  0
ENDTAB
  0
TABLE
  2
VIEW
  5
6
330
0
100
AcDbSymbolTable
 70
     0
  0
ENDTAB
  0
TABLE
  2
UCS
  5
7
330
0
100
AcDbSymbolTable
 70
     0
  0
ENDTAB
  0
TABLE
  2
APPID
  5
9
330
0
100
AcDbSymbolTable
 70
     2
  0
APPID
  5
12
330
9
100
AcDbSymbolTableRecord
100
AcDbRegAppTableRecord
  2
ACAD
 70
     0
  0
ENDTAB
  0
TABLE
  2
DIMSTYLE
  5
A
330
0
100
AcDbSymbolTable
 70
     1
  0
DIMSTYLE
105
27
330
A
100
AcDbSymbolTableRecord
100
AcDbDimStyleTableRecord
  2
ISO-25
 70
     0
  3

  4

  5

  6

  7

 40
1.0
 41
2.5
 42
0.625
 43
3.75
 44
1.25
 45
0.0
 46
0.0
 47
0.0
 48
0.0
140
2.5
141
2.5
142
0.0
143
0.03937007874016
144
1.0
145
0.0
146
1.0
147
0.625
 71
     0
 72
     0
 73
     0
 74
     0
 75
     0
 76
     0
 77
     1
 78
     8
170
     0
171
     3
172
     1
173
     0
174
     0
175
     0
176
     0
177
     0
178
     0
270
     2
271
     2
272
     2
273
     2
274
     3
340
11
275
     0
280
     0
281
     0
282
     0
283
     0
284
     8
285
     0
286
     0
287
     3
288
     0
  0
ENDTAB
  0
TABLE
  2
BLOCK_RECORD
  5
1
330
0
100
AcDbSymbolTable
 70
     1
  0
BLOCK_RECORD
  5
1F
330
1
100
AcDbSymbolTableRecord
100
AcDbBlockTableRecord
  2
*MODEL_SPACE
  0
BLOCK_RECORD
  5
1B
330
1
100
AcDbSymbolTableRecord
100
AcDbBlockTableRecord
  2
*PAPER_SPACE
  0
ENDTAB
  0
ENDSEC
  0
SECTION
  2
BLOCKS
  0
BLOCK
  5
20
330
1F
100
AcDbEntity
  8
0
100
AcDbBlockBegin
  2
*MODEL_SPACE
 70
     0
 10
0.0
 20
0.0
 30
0.0
  3
*MODEL_SPACE
  1

  0
ENDBLK
  5
21
330
1F
100
AcDbEntity
  8
0
100
AcDbBlockEnd
  0
BLOCK
  5
1C
330
1B
100
AcDbEntity
 67
     1
  8
0
100
AcDbBlockBegin
  2
*PAPER_SPACE
  1

  0
ENDBLK
  5
1D
330
1B
100
AcDbEntity
 67
     1
  8
0
100
AcDbBlockEnd
  0
ENDSEC
  0
SECTION
  2
ENTITIES
  0
LINE
  5
100
100
AcDbEntity
  8
0
 62
7
100
AcDbLine
 10
-205.175385
 20
473.463305
 30
0.0
 11
-193.478901
 21
474.560180
 31
0.0
  0
LINE
  5
101
100
AcDbEntity
  8
0
 62
7
100
AcDbLine
 10
-193.478901
 20
474.560180
 30
0.0
 11
-193.106247
 21
471.492211
 31
0.0
  0
SPLINE
  5
102
100
AcDbEntity
  8
0
 62
7
100
AcDbSpline
 70
0
 71
3
 72
13
 73
9
 74
7
 40
0.000000
 40
0.000000
 40
0.000000
 40
0.000000
 40
0.163124
 40
0.324944
 40
0.485812
 40
18.202620
 40
45.872461
 40
60.449656
 40
60.449656
 40
60.449656
 40
60.449656
 10
-189.351561
 20
530.716403
 30
0.0
 10
-189.405948
 20
530.715799
 30
0.0
 10
-189.514286
 20
530.714596
 30
0.0
 10
-189.675820
 20
530.702517
 30
0.0
 10
-195.648228
 20
529.888008
 30
0.0
 10
-199.169141
 20
509.544317
 30
0.0
 10
-203.135605
 20
492.633883
 30
0.0
 10
-204.652118
 20
478.381159
 30
0.0
 10
-205.175385
 20
473.463305
 30
0.0
 11
-189.351561
 21
530.716403
 31
0.0
 11
-189.514647
 21
530.712858
 31
0.0
 11
-189.676020
 21
530.700847
 31
0.0
 11
-189.835545
 21
530.680103
 31
0.0
 11
-198.322610
 21
515.128414
 31
0.0
 11
-203.453424
 21
487.938437
 31
0.0
 11
-205.175385
 21
473.463305
 31
0.0
  0
SPLINE
  5
103
100
AcDbEntity
  8
0
 62
7
100
AcDbSpline
 70
0
 71
3
 72
13
 73
9
 74
7
 40
0.000000
 40
0.000000
 40
0.000000
 40
0.000000
 40
3.911878
 40
7.857139
 40
11.843564
 40
19.836774
 40
27.790395
 40
35.724702
 40
35.724702
 40
35.724702
 40
35.724702
 10
-193.106247
 20
471.492211
 30
0.0
 10
-194.402742
 20
471.352791
 30
0.0
 10
-197.006796
 20
471.072762
 30
0.0
 10
-200.937103
 20
470.699867
 30
0.0
 10
-206.226738
 20
470.253737
 30
0.0
 10
-212.857449
 20
469.819379
 30
0.0
 10
-220.813218
 20
469.497442
 30
0.0
 10
-226.109674
 20
469.499164
 30
0.0
 10
-228.754683
 20
469.500023
 30
0.0
 11
-193.106247
 21
471.492211
 31
0.0
 11
-196.996563
 21
471.082044
 31
0.0
 11
-200.924050
 21
470.707974
 31
0.0
 11
-204.896481
 21
470.374242
 31
0.0
 11
-212.872600
 21
469.851810
 31
0.0
 11
-220.820541
 21
469.551289
 31
0.0
 11
-228.754683
 21
469.500023
 31
0.0
  0
LINE
  5
104
100
AcDbEntity
  8
0
 62
7
100
AcDbLine
 10
-247.866795
 20
484.869161
 30
0.0
 11
-298.671092
 21
492.128927
 31
0.0
  0
SPLINE
  5
105
100
AcDbEntity
  8
0
 62
7
100
AcDbSpline
 70
0
 71
3
 72
10
 73
6
 74
4
 40
0.000000
 40
0.000000
 40
0.000000
 40
0.000000
 40
7.010484
 40
14.890317
 40
25.845913
 40
25.845913
 40
25.845913
 40
25.845913
 10
-228.754683
 20
469.500023
 30
0.0
 10
-231.039697
 20
470.481386
 30
0.0
 10
-235.893083
 20
472.565808
 30
0.0
 10
-236.826162
 20
482.799358
 30
0.0
 10
-243.806622
 20
484.107995
 30
0.0
 10
-247.866795
 20
484.869161
 30
0.0
 11
-228.754683
 21
469.500023
 31
0.0
 11
-234.653079
 21
473.288931
 31
0.0
 11
-237.817819
 21
480.505314
 31
0.0
 11
-247.866795
 21
484.869161
 31
0.0
  0
SPLINE
  5
106
100
AcDbEntity
  8
0
 62
7
100
AcDbSpline
 70
0
 71
3
 72
10
 73
6
 74
4
 40
0.000000
 40
0.000000
 40
0.000000
 40
0.000000
 40
8.353158
 40
16.847903
 40
26.960345
 40
26.960345
 40
26.960345
 40
26.960345
 10
-298.671092
 20
492.128927
 30
0.0
 10
-301.422684
 20
492.432726
 30
0.0
 10
-306.972507
 20
493.045474
 30
0.0
 10
-316.413491
 20
491.048984
 30
0.0
 10
-319.801112
 20
485.518288
 30
0.0
 10
-321.642182
 20
482.512523
 30
0.0
 11
-298.671092
 21
492.128927
 31
0.0
 11
-307.011898
 21
492.583013
 31
0.0
 11
-315.195015
 21
490.303257
 31
0.0
 11
-321.642182
 21
482.512523
 31
0.0
  0
SPLINE
  5
107
100
AcDbEntity
  8
0
 62
7
100
AcDbSpline
 70
0
 71
3
 72
10
 73
6
 74
4
 40
0.000000
 40
0.000000
 40
0.000000
 40
0.000000
 40
0.084643
 40
0.167487
 40
0.251684
 40
0.251684
 40
0.251684
 40
0.251684
 10
-321.642182
 20
482.512523
 30
0.0
 10
-321.648010
 20
482.484917
 30
0.0
 10
-321.659543
 20
482.430292
 30
0.0
 10
-321.677511
 20
482.348344
 30
0.0
 10
-321.689087
 20
482.293880
 30
0.0
 10
-321.694922
 20
482.266427
 30
0.0
 11
-321.642182
 21
482.512523
 31
0.0
 11
-321.659775
 21
482.429729
 31
0.0
 11
-321.677328
 21
482.348766
 31
0.0
 11
-321.694922
 21
482.266427
 31
0.0
  0
SPLINE
  5
108
100
AcDbEntity
  8
0
 62
7
100
AcDbSpline
 70
0
 71
3
 72
10
 73
6
 74
4
 40
0.000000
 40
0.000000
 40
0.000000
 40
0.000000
 40
7.583365
 40
15.172250
 40
22.772463
 40
22.772463
 40
22.772463
 40
22.772463
 10
-321.694922
 20
482.266427
 30
0.0
 10
-323.308447
 20
480.320559
 30
0.0
 10
-326.536672
 20
476.427406
 30
0.0
 10
-331.495205
 20
470.678947
 30
0.0
 10
-334.884280
 20
466.917371
 30
0.0
 10
-336.580082
 20
465.035180
 30
0.0
 11
-321.694922
 21
482.266427
 31
0.0
 11
-326.554339
 21
476.444615
 31
0.0
 11
-331.513149
 21
470.699932
 31
0.0
 11
-336.580082
 21
465.035180
 31
0.0
  0
LINE
  5
109
100
AcDbEntity
  8
0
 62
7
100
AcDbLine
 10
-344.879299
 20
456.232055
 30
0.0
 11
-347.096485
 21
458.391820
 31
0.0
  0
LINE
  5
10a
100
AcDbEntity
  8
0
 62
7
100
AcDbLine
 10
-347.096485
 20
458.391820
 30
0.0
 11
-338.850001
 21
467.165648
 31
0.0
  0
SPLINE
  5
10b
100
AcDbEntity
  8
0
 62
7
100
AcDbSpline
 70
0
 71
3
 72
10
 73
6
 74
4
 40
0.000000
 40
0.000000
 40
0.000000
 40
0.000000
 40
4.037980
 40
8.070380
 40
12.098862
 40
12.098862
 40
12.098862
 40
12.098862
 10
-336.580082
 20
465.035180
 30
0.0
 10
-337.492207
 20
464.045369
 30
0.0
 10
-339.315198
 20
462.067115
 30
0.0
 10
-342.075991
 20
459.127060
 30
0.0
 10
-343.945166
 20
457.196744
 30
0.0
 10
-344.879299
 20
456.232055
 30
0.0
 11
-336.580082
 21
465.035180
 31
0.0
 11
-339.321104
 21
462.070036
 31
0.0
 11
-342.084341
 21
459.133239
 31
0.0
 11
-344.879299
 21
456.232055
 31
0.0
  0
LINE
  5
10c
100
AcDbEntity
  8
0
 62
7
100
AcDbLine
 10
-372.806251
 20
434.235961
 30
0.0
 11
-363.987889
 21
441.998461
 31
0.0
  0
LINE
  5
10d
100
AcDbEntity
  8
0
 62
7
100
AcDbLine
 10
-363.987889
 20
441.998461
 30
0.0
 11
-361.883203
 21
439.735571
 31
0.0
  0
SPLINE
  5
10e
100
AcDbEntity
  8
0
 62
7
100
AcDbSpline
 70
0
 71
3
 72
13
 73
9
 74
7
 40
0.000000
 40
0.000000
 40
0.000000
 40
0.000000
 40
14.699650
 40
42.558618
 40
60.277520
 40
77.994154
 40
105.663426
 40
120.240290
 40
120.240290
 40
120.240290
 40
120.240290
 10
-338.850001
 20
467.165648
 30
0.0
 10
-343.163627
 20
469.696166
 30
0.0
 10
-355.652493
 20
477.022552
 30
0.0
 10
-370.377911
 20
485.325991
 30
0.0
 10
-399.365418
 20
494.970812
 30
0.0
 10
-390.224693
 20
465.913885
 30
0.0
 10
-382.273178
 20
451.090527
 30
0.0
 10
-375.234812
 20
438.559680
 30
0.0
 10
-372.806251
 20
434.235961
 30
0.0
 11
-338.850001
 21
467.165648
 31
0.0
 11
-351.541297
 21
474.582571
 31
0.0
 11
-376.493789
 21
486.971889
 31
0.0
 11
-394.025389
 21
489.541427
 31
0.0
 11
-391.750997
 21
471.971389
 31
0.0
 11
-379.920942
 21
446.958623
 31
0.0
 11
-372.806251
 21
434.235961
 31
0.0
  0
SPLINE
  5
10f
100
AcDbEntity
  8
0
 62
7
100
AcDbSpline
 70
0
 71
3
 72
13
 73
9
 74
7
 40
0.000000
 40
0.000000
 40
0.000000
 40
0.000000
 40
3.912030
 40
7.857570
 40
11.844147
 40
19.837238
 40
27.790644
 40
35.724841
 40
35.724841
 40
35.724841
 40
35.724841
 10
-361.883203
 20
439.735571
 30
0.0
 10
-362.850168
 20
438.860672
 30
0.0
 10
-364.792382
 20
437.103382
 30
0.0
 10
-367.752926
 20
434.491281
 30
0.0
 10
-371.770128
 20
431.021054
 30
0.0
 10
-376.879154
 20
426.772283
 30
0.0
 10
-383.126161
 20
421.835640
 30
0.0
 10
-387.412012
 20
418.723923
 30
0.0
 10
-389.552347
 20
417.169946
 30
0.0
 11
-361.883203
 21
439.735571
 31
0.0
 11
-364.789516
 21
437.116921
 31
0.0
 11
-367.747175
 21
434.505495
 31
0.0
 11
-370.764847
 21
431.900414
 31
0.0
 11
-376.910494
 21
426.789589
 31
0.0
 11
-383.163708
 21
421.874920
 31
0.0
 11
-389.552347
 21
417.169946
 31
0.0
  0
LINE
  5
110
100
AcDbEntity
  8
0
 62
7
100
AcDbLine
 10
-414.048048
 20
418.369946
 30
0.0
 11
-459.417186
 21
394.381665
 31
0.0
  0
SPLINE
  5
111
100
AcDbEntity
  8
0
 62
7
100
AcDbSpline
 70
0
 71
3
 72
10
 73
6
 74
4
 40
0.000000
 40
0.000000
 40
0.000000
 40
0.000000
 40
7.010462
 40
14.890244
 40
25.845830
 40
25.845830
 40
25.845830
 40
25.845830
 10
-389.552347
 20
417.169946
 30
0.0
 10
-391.977784
 20
416.620782
 30
0.0
 10
-397.129420
 20
415.454357
 30
0.0
 10
-403.899423
 20
423.184977
 30
0.0
 10
-410.315904
 20
420.140667
 30
0.0
 10
-414.048048
 20
418.369946
 30
0.0
 11
-389.552347
 21
417.169946
 31
0.0
 11
-396.551290
 21
416.768229
 31
0.0
 11
-403.353266
 21
420.746179
 31
0.0
 11
-414.048048
 21
418.369946
 31
0.0
  0
SPLINE
  5
112
100
AcDbEntity
  8
0
 62
7
100
AcDbSpline
 70
0
 71
3
 72
10
 73
6
 74
4
 40
0.000000
 40
0.000000
 40
0.000000
 40
0.000000
 40
8.353239
 40
16.848185
 40
26.960759
 40
26.960759
 40
26.960759
 40
26.960759
 10
-459.417186
 20
394.381665
 30
0.0
 10
-461.821848
 20
393.010054
 30
0.0
 10
-466.671967
 20
390.243565
 30
0.0
 10
-473.136302
 20
383.078862
 30
0.0
 10
-472.626105
 20
376.613147
 30
0.0
 10
-472.348830
 20
373.099243
 30
0.0
 11
-459.417186
 21
394.381665
 31
0.0
 11
-466.431953
 21
389.846288
 31
0.0
 11
-471.712235
 21
383.191761
 31
0.0
 11
-472.348830
 21
373.099243
 31
0.0
  0
SPLINE
  5
113
100
AcDbEntity
  8
0
 62
7
100
AcDbSpline
 70
0
 71
3
 72
10
 73
6
 74
4
 40
0.000000
 40
0.000000
 40
0.000000
 40
0.000000
 40
0.085393
 40
0.168977
 40
0.253917
 40
0.253917
 40
0.253917
 40
0.253917
 10
-472.348830
 20
373.099243
 30
0.0
 10
-472.337200
 20
373.073263
 30
0.0
 10
-472.314187
 20
373.021853
 30
0.0
 10
-472.280102
 20
372.944380
 30
0.0
 10
-472.257230
 20
372.893072
 30
0.0
 10
-472.245702
 20
372.867212
 30
0.0
 11
-472.348830
 21
373.099243
 31
0.0
 11
-472.314025
 21
373.021265
 31
0.0
 11
-472.280223
 21
372.944821
 31
0.0
 11
-472.245702
 21
372.867212
 31
0.0
  0
SPLINE
  5
114
100
AcDbEntity
  8
0
 62
7
100
AcDbSpline
 70
0
 71
3
 72
10
 73
6
 74
4
 40
0.000000
 40
0.000000
 40
0.000000
 40
0.000000
 40
7.582643
 40
15.170890
 40
22.770386
 40
22.770386
 40
22.770386
 40
22.770386
 10
-472.245702
 20
372.867212
 30
0.0
 10
-472.407368
 20
370.344809
 30
0.0
 10
-472.730821
 20
365.298139
 30
0.0
 10
-473.364022
 20
357.733725
 30
0.0
 10
-473.894908
 20
352.698959
 30
0.0
 10
-474.160548
 20
350.179711
 30
0.0
 11
-472.245702
 21
372.867212
 31
0.0
 11
-472.755289
 21
365.301712
 31
0.0
 11
-473.390805
 21
357.740124
 31
0.0
 11
-474.160548
 21
350.179711
 31
0.0
  0
LINE
  5
115
100
AcDbEntity
  8
0
 62
7
100
AcDbLine
 10
-475.700388
 20
338.179711
 30
0.0
 11
-478.763670
 21
338.623855
 31
0.0
  0
LINE
  5
116
100
AcDbEntity
  8
0
 62
7
100
AcDbLine
 10
-478.763670
 20
338.623855
 30
0.0
 11
-477.248436
 21
350.568775
 31
0.0
  0
SPLINE
  5
117
100
AcDbEntity
  8
0
 62
7
100
AcDbSpline
 70
0
 71
3
 72
10
 73
6
 74
4
 40
0.000000
 40
0.000000
 40
0.000000
 40
0.000000
 40
4.037969
 40
8.070352
 40
12.098824
 40
12.098824
 40
12.098824
 40
12.098824
 10
-474.160548
 20
350.179711
 30
0.0
 10
-474.316675
 20
348.842807
 30
0.0
 10
-474.628713
 20
346.170848
 30
0.0
 10
-475.134112
 20
342.169551
 30
0.0
 10
-475.511690
 20
339.509227
 30
0.0
 10
-475.700388
 20
338.179711
 30
0.0
 11
-474.160548
 21
350.179711
 31
0.0
 11
-474.635208
 21
346.169737
 31
0.0
 11
-475.144499
 21
342.169645
 31
0.0
 11
-475.700388
 21
338.179711
 31
0.0
  0
LINE
  5
118
100
AcDbEntity
  8
0
 62
7
100
AcDbLine
 10
-485.363670
 20
303.969164
 30
0.0
 11
-482.792580
 21
315.432445
 31
0.0
  0
LINE
  5
119
100
AcDbEntity
  8
0
 62
7
100
AcDbLine
 10
-482.792580
 20
315.432445
 30
0.0
 11
-479.759766
 21
314.839477
 31
0.0
  0
SPLINE
  5
11a
100
AcDbEntity
  8
0
 62
7
100
AcDbSpline
 70
0
 71
3
 72
13
 73
9
 74
7
 40
0.000000
 40
0.000000
 40
0.000000
 40
0.000000
 40
14.699909
 40
42.559340
 40
60.278432
 40
77.995378
 40
105.665318
 40
120.242547
 40
120.242547
 40
120.242547
 40
120.242547
 10
-477.248436
 20
350.568775
 30
0.0
 10
-482.225726
 20
350.080552
 30
0.0
 10
-496.636034
 20
348.667045
 30
0.0
 10
-513.430009
 20
346.729439
 30
0.0
 10
-542.551125
 20
337.493936
 30
0.0
 10
-518.076093
 20
319.358992
 30
0.0
 10
-502.929921
 20
312.040388
 30
0.0
 10
-489.869961
 20
306.039684
 30
0.0
 10
-485.363670
 20
303.969164
 30
0.0
 11
-477.248436
 21
350.568775
 31
0.0
 11
-491.875737
 21
349.109532
 31
0.0
 11
-519.345486
 21
344.466174
 31
0.0
 11
-535.039451
 21
336.240259
 31
0.0
 11
-522.871657
 21
323.362567
 31
0.0
 11
-498.598132
 21
310.080188
 31
0.0
 11
-485.363670
 21
303.969164
 31
0.0
  0
SPLINE
  5
11b
100
AcDbEntity
  8
0
 62
7
100
AcDbSpline
 70
0
 71
3
 72
13
 73
9
 74
7
 40
0.000000
 40
0.000000
 40
0.000000
 40
0.000000
 40
3.912078
 40
7.857714
 40
11.844342
 40
19.837466
 40
27.790918
 40
35.725132
 40
35.725132
 40
35.725132
 40
35.725132
 10
-479.759766
 20
314.839477
 30
0.0
 10
-480.027835
 20
313.563292
 30
0.0
 10
-480.566272
 20
310.999973
 30
0.0
 10
-481.426314
 20
307.146568
 30
0.0
 10
-482.636714
 20
301.977821
 30
0.0
 10
-484.272391
 20
295.537380
 30
0.0
 10
-486.424154
 20
287.871481
 30
0.0
 10
-488.062358
 20
282.834833
 30
0.0
 10
-488.880467
 20
280.319558
 30
0.0
 11
-479.759766
 21
314.839477
 31
0.0
 11
-480.571936
 21
311.012634
 31
0.0
 11
-481.429995
 21
307.161429
 31
0.0
 11
-482.340234
 21
303.280106
 31
0.0
 11
-484.307884
 21
295.532952
 31
0.0
 11
-486.477677
 21
287.881195
 31
0.0
 11
-488.880467
 21
280.319558
 31
0.0
  0
LINE
  5
11c
100
AcDbEntity
  8
0
 62
7
100
AcDbLine
 10
-509.403515
 20
266.892212
 30
0.0
 11
-532.007813
 21
220.817607
 31
0.0
  0
SPLINE
  5
11d
100
AcDbEntity
  8
0
 62
7
100
AcDbSpline
 70
0
 71
3
 72
10
 73
6
 74
4
 40
0.000000
 40
0.000000
 40
0.000000
 40
0.000000
 40
7.010502
 40
14.890402
 40
25.846033
 40
25.846033
 40
25.846033
 40
25.846033
 10
-488.880467
 20
280.319558
 30
0.0
 10
-490.519920
 20
278.449643
 30
0.0
 10
-494.002140
 20
274.477918
 30
0.0
 10
-504.023201
 20
276.752881
 30
0.0
 10
-507.424917
 20
270.518450
 30
0.0
 10
-509.403515
 20
266.892212
 30
0.0
 11
-488.880467
 21
280.319558
 31
0.0
 11
-494.306670
 21
275.880699
 31
0.0
 11
-502.147885
 21
275.100846
 31
0.0
 11
-509.403515
 21
266.892212
 31
0.0
  0
LINE
  5
11e
100
AcDbEntity
  8
0
 62
7
100
AcDbLine
 10
-529.960547
 20
195.999639
 30
0.0
 11
-500.439845
 21
195.999639
 31
0.0
  0
SPLINE
  5
11f
100
AcDbEntity
  8
0
 62
7
100
AcDbSpline
 70
0
 71
3
 72
10
 73
6
 74
4
 40
0.000000
 40
0.000000
 40
0.000000
 40
0.000000
 40
8.353037
 40
16.847557
 40
26.959872
 40
26.959872
 40
26.959872
 40
26.959872
 10
-532.007813
 20
220.817607
 30
0.0
 10
-533.147020
 20
218.294606
 30
0.0
 10
-535.444730
 20
213.205869
 30
0.0
 10
-536.463391
 20
203.610180
 30
0.0
 10
-532.250267
 20
198.679391
 30
0.0
 10
-529.960547
 20
195.999639
 30
0.0
 11
-532.007813
 21
220.817607
 31
0.0
 11
-535.017096
 21
213.025467
 31
0.0
 11
-535.377652
 21
204.538603
 31
0.0
 11
-529.960547
 21
195.999639
 31
0.0
  0
LINE
  5
120
100
AcDbEntity
  8
0
 62
7
100
AcDbLine
 10
-493.700387
 20
176.839479
 30
0.0
 11
-470.000388
 21
176.600415
 31
0.0
  0
SPLINE
  5
121
100
AcDbEntity
  8
0
 62
7
100
AcDbSpline
 70
0
 71
3
 72
10
 73
6
 74
4
 40
0.000000
 40
0.000000
 40
0.000000
 40
0.000000
 40
13.815657
 40
22.151419
 40
34.416297
 40
34.416297
 40
34.416297
 40
34.416297
 10
-500.439845
 20
195.999639
 30
0.0
 10
-505.535225
 20
193.175544
 30
0.0
 10
-513.704933
 20
188.647515
 30
0.0
 10
-504.980703
 20
177.060746
 30
0.0
 10
-497.910018
 20
176.922053
 30
0.0
 10
-493.700387
 20
176.839479
 30
0.0
 11
-500.439845
 21
195.999639
 31
0.0
 11
-510.363777
 21
186.387773
 31
0.0
 11
-505.674027
 21
179.496389
 31
0.0
 11
-493.700387
 21
176.839479
 31
0.0
  0
LINE
  5
122
100
AcDbEntity
  8
0
 62
7
100
AcDbLine
 10
-458.219532
 20
195.999639
 30
0.0
 11
-450.760548
 21
195.999639
 31
0.0
  0
LINE
  5
123
100
AcDbEntity
  8
0
 62
7
100
AcDbLine
 10
-450.760548
 20
195.999639
 30
0.0
 11
-421.239846
 21
195.999639
 31
0.0
  0
SPLINE
  5
124
100
AcDbEntity
  8
0
 62
7
100
AcDbSpline
 70
0
 71
3
 72
10
 73
6
 74
4
 40
0.000000
 40
0.000000
 40
0.000000
 40
0.000000
 40
15.822905
 40
24.880080
 40
37.903903
 40
37.903903
 40
37.903903
 40
37.903903
 10
-470.000388
 20
176.600415
 30
0.0
 10
-464.645935
 20
176.536014
 30
0.0
 10
-456.226544
 20
176.434749
 30
0.0
 10
-445.420457
 20
188.481905
 30
0.0
 10
-453.471099
 20
193.210574
 30
0.0
 10
-458.219532
 20
195.999639
 30
0.0
 11
-470.000388
 21
176.600415
 31
0.0
 11
-454.473451
 21
179.646484
 31
0.0
 11
-448.964949
 21
186.835979
 31
0.0
 11
-458.219532
 21
195.999639
 31
0.0
  0
LINE
  5
125
100
AcDbEntity
  8
0
 62
7
100
AcDbLine
 10
-414.500388
 20
176.839479
 30
0.0
 11
-390.800389
 21
176.600415
 31
0.0
  0
SPLINE
  5
126
100
AcDbEntity
  8
0
 62
7
100
AcDbSpline
 70
0
 71
3
 72
10
 73
6
 74
4
 40
0.000000
 40
0.000000
 40
0.000000
 40
0.000000
 40
13.815656
 40
22.151409
 40
34.416293
 40
34.416293
 40
34.416293
 40
34.416293
 10
-421.239846
 20
195.999639
 30
0.0
 10
-426.335228
 20
193.175545
 30
0.0
 10
-434.504936
 20
188.647518
 30
0.0
 10
-425.780702
 20
177.060759
 30
0.0
 10
-418.710020
 20
176.922057
 30
0.0
 10
-414.500388
 20
176.839479
 30
0.0
 11
-421.239846
 21
195.999639
 31
0.0
 11
-431.163779
 21
186.387777
 31
0.0
 11
-426.474031
 21
179.496401
 31
0.0
 11
-414.500388
 21
176.839479
 31
0.0
  0
LINE
  5
127
100
AcDbEntity
  8
0
 62
7
100
AcDbLine
 10
-379.019533
 20
195.999639
 30
0.0
 11
-355.400389
 21
195.999639
 31
0.0
  0
SPLINE
  5
128
100
AcDbEntity
  8
0
 62
7
100
AcDbSpline
 70
0
 71
3
 72
10
 73
6
 74
4
 40
0.000000
 40
0.000000
 40
0.000000
 40
0.000000
 40
15.822908
 40
24.880091
 40
37.903895
 40
37.903895
 40
37.903895
 40
37.903895
 10
-390.800389
 20
176.600415
 30
0.0
 10
-385.445936
 20
176.536020
 30
0.0
 10
-377.026544
 20
176.434765
 30
0.0
 10
-366.220460
 20
188.481928
 30
0.0
 10
-374.271103
 20
193.210584
 30
0.0
 10
-379.019533
 20
195.999639
 30
0.0
 11
-390.800389
 21
176.600415
 31
0.0
 11
-375.273452
 21
179.646501
 31
0.0
 11
-369.764950
 21
186.836005
 31
0.0
 11
-379.019533
 21
195.999639
 31
0.0
  0
SPLINE
  5
129
100
AcDbEntity
  8
0
 62
7
100
AcDbSpline
 70
0
 71
3
 72
10
 73
6
 74
4
 40
0.000000
 40
0.000000
 40
0.000000
 40
0.000000
 40
27.199012
 40
53.570052
 40
79.512935
 40
79.512935
 40
79.512935
 40
79.512935
 10
-355.400389
 20
195.999639
 30
0.0
 10
-354.813784
 20
205.070848
 30
0.0
 10
-353.658431
 20
222.937128
 30
0.0
 10
-345.194367
 20
248.458956
 30
0.0
 10
-335.789913
 20
263.190326
 30
0.0
 10
-331.126172
 20
270.495728
 30
0.0
 11
-355.400389
 21
195.999639
 31
0.0
 11
-352.468383
 21
223.040157
 31
0.0
 11
-344.174106
 21
248.072870
 31
0.0
 11
-331.126172
 21
270.495728
 31
0.0
  0
SPLINE
  5
12a
100
AcDbEntity
  8
0
 62
7
100
AcDbSpline
 70
0
 71
3
 72
10
 73
6
 74
4
 40
0.000000
 40
0.000000
 40
0.000000
 40
0.000000
 40
27.198950
 40
53.569827
 40
79.512597
 40
79.512597
 40
79.512597
 40
79.512597
 10
-331.126172
 20
270.495728
 30
0.0
 10
-325.319719
 20
277.489698
 30
0.0
 10
-313.883593
 20
291.264708
 30
0.0
 10
-292.034946
 20
306.937443
 30
0.0
 10
-275.767798
 20
313.327585
 30
0.0
 10
-267.700784
 20
316.496509
 30
0.0
 11
-331.126172
 21
270.495728
 31
0.0
 11
-312.860261
 21
290.648628
 31
0.0
 11
-291.436463
 21
306.025365
 31
0.0
 11
-267.700784
 21
316.496509
 31
0.0
  0
SPLINE
  5
12b
100
AcDbEntity
  8
0
 62
7
100
AcDbSpline
 70
0
 71
3
 72
10
 73
6
 74
4
 40
0.000000
 40
0.000000
 40
0.000000
 40
0.000000
 40
27.199120
 40
53.570366
 40
79.513357
 40
79.513357
 40
79.513357
 40
79.513357
 10
-267.700784
 20
316.496509
 30
0.0
 10
-258.892243
 20
318.741770
 30
0.0
 10
-241.543271
 20
323.163952
 30
0.0
 10
-214.654890
 20
323.000811
 30
0.0
 10
-197.738283
 20
318.608877
 30
0.0
 10
-189.349221
 20
316.430887
 30
0.0
 11
-267.700784
 21
316.496509
 31
0.0
 11
-241.077572
 21
322.063979
 31
0.0
 11
-214.706770
 21
321.911174
 31
0.0
 11
-189.349221
 21
316.430887
 31
0.0
  0
SPLINE
  5
12c
100
AcDbEntity
  8
0
 62
7
100
AcDbSpline
 70
0
 71
3
 72
10
 73
6
 74
4
 40
0.000000
 40
0.000000
 40
0.000000
 40
0.000000
 40
27.199175
 40
53.570563
 40
79.513650
 40
79.513650
 40
79.513650
 40
79.513650
 10
-189.349221
 20
316.430887
 30
0.0
 10
-180.903221
 20
313.069780
 30
0.0
 10
-164.268268
 20
306.449858
 30
0.0
 10
-142.611052
 20
290.513046
 30
0.0
 10
-131.506717
 20
277.016491
 30
0.0
 10
-126.000004
 20
270.323462
 30
0.0
 11
-189.349221
 21
316.430887
 31
0.0
 11
-164.538104
 21
305.286221
 31
0.0
 11
-143.293474
 21
289.662016
 31
0.0
 11
-126.000004
 21
270.323462
 31
0.0
  0
SPLINE
  5
12d
100
AcDbEntity
  8
0
 62
7
100
AcDbSpline
 70
0
 71
3
 72
10
 73
6
 74
4
 40
0.000000
 40
0.000000
 40
0.000000
 40
0.000000
 40
27.198775
 40
53.569409
 40
79.512095
 40
79.512095
 40
79.512095
 40
79.512095
 10
-126.000004
 20
270.323462
 30
0.0
 10
-121.142697
 20
262.639965
 30
0.0
 10
-111.575977
 20
247.506916
 30
0.0
 10
-103.422510
 20
221.884464
 30
0.0
 10
-102.372089
 20
204.438935
 30
0.0
 10
-101.851175
 20
195.787527
 30
0.0
 11
-126.000004
 21
270.323462
 31
0.0
 11
-112.478191
 21
246.724015
 31
0.0
 11
-104.474840
 21
221.597202
 31
0.0
 11
-101.851175
 21
195.787527
 31
0.0
  0
SPLINE
  5
12e
100
AcDbEntity
  8
0
 62
7
100
AcDbSpline
 70
0
 71
3
 72
10
 73
6
 74
4
 40
0.000000
 40
0.000000
 40
0.000000
 40
0.000000
 40
38.370663
 40
75.632967
 40
108.177102
 40
108.177102
 40
108.177102
 40
108.177102
 10
-101.851175
 20
195.787527
 30
0.0
 10
-94.194773
 20
184.188991
 30
0.0
 10
-79.103129
 20
161.326951
 30
0.0
 10
-36.388113
 20
169.236089
 30
0.0
 10
-21.555352
 20
187.345038
 30
0.0
 10
-14.640240
 20
195.787527
 30
0.0
 11
-101.851175
 21
195.787527
 31
0.0
 11
-75.079698
 21
168.299423
 31
0.0
 11
-38.152658
 21
173.286707
 31
0.0
 11
-14.640240
 21
195.787527
 31
0.0
  0
SPLINE
  5
12f
100
AcDbEntity
  8
0
 62
7
100
AcDbSpline
 70
0
 71
3
 72
10
 73
6
 74
4
 40
0.000000
 40
0.000000
 40
0.000000
 40
0.000000
 40
35.617146
 40
71.045046
 40
105.765808
 40
105.765808
 40
105.765808
 40
105.765808
 10
-14.640240
 20
195.787527
 30
0.0
 10
-7.124247
 20
185.746861
 30
0.0
 10
7.867804
 20
165.718879
 30
0.0
 10
49.273123
 20
168.693699
 30
0.0
 10
64.857203
 20
186.817149
 30
0.0
 10
72.570695
 20
195.787527
 30
0.0
 11
-14.640240
 21
195.787527
 31
0.0
 11
11.130024
 21
171.201462
 31
0.0
 11
46.520335
 21
172.833005
 31
0.0
 11
72.570695
 21
195.787527
 31
0.0
  0
SPLINE
  5
130
100
AcDbEntity
  8
0
 62
7
100
AcDbSpline
 70
0
 71
3
 72
10
 73
6
 74
4
 40
0.000000
 40
0.000000
 40
0.000000
 40
0.000000
 40
7.633080
 40
15.271762
 40
22.921811
 40
22.921811
 40
22.921811
 40
22.921811
 10
72.570695
 20
195.787527
 30
0.0
 10
71.209267
 20
197.937048
 30
0.0
 10
68.485412
 20
202.237668
 30
0.0
 10
64.524290
 20
208.772182
 30
0.0
 10
61.977475
 20
213.186527
 30
0.0
 10
60.703121
 20
215.395341
 30
0.0
 11
72.570695
 21
195.787527
 31
0.0
 11
68.507581
 21
202.249338
 31
0.0
 11
64.550028
 21
208.782885
 31
0.0
 11
60.703121
 21
215.395341
 31
0.0
  0
LINE
  5
131
100
AcDbEntity
  8
0
 62
7
100
AcDbLine
 10
54.895306
 20
226.009011
 30
0.0
 11
57.635150
 21
227.449245
 31
0.0
  0
LINE
  5
132
100
AcDbEntity
  8
0
 62
7
100
AcDbLine
 10
57.635150
 20
227.449245
 30
0.0
 11
63.430073
 21
216.895341
 31
0.0
  0
SPLINE
  5
133
100
AcDbEntity
  8
0
 62
7
100
AcDbSpline
 70
0
 71
3
 72
10
 73
6
 74
4
 40
0.000000
 40
0.000000
 40
0.000000
 40
0.000000
 40
4.038072
 40
8.070647
 40
12.099221
 40
12.099221
 40
12.099221
 40
12.099221
 10
60.703121
 20
215.395341
 30
0.0
 10
60.043604
 20
216.568719
 30
0.0
 10
58.725466
 20
218.913879
 30
0.0
 10
56.782403
 20
222.448194
 30
0.0
 10
55.524130
 20
224.822464
 30
0.0
 10
54.895306
 20
226.009011
 30
0.0
 11
60.703121
 21
215.395341
 31
0.0
 11
58.730086
 21
218.918572
 31
0.0
 11
56.790844
 21
222.454248
 31
0.0
 11
54.895306
 21
226.009011
 31
0.0
  0
LINE
  5
134
100
AcDbEntity
  8
0
 62
7
100
AcDbLine
 10
42.604681
 20
259.365260
 30
0.0
 11
47.262884
 21
248.580494
 31
0.0
  0
LINE
  5
135
100
AcDbEntity
  8
0
 62
7
100
AcDbLine
 10
47.262884
 20
248.580494
 30
0.0
 11
44.460931
 21
247.277372
 31
0.0
  0
SPLINE
  5
136
100
AcDbEntity
  8
0
 62
7
100
AcDbSpline
 70
0
 71
3
 72
13
 73
9
 74
7
 40
0.000000
 40
0.000000
 40
0.000000
 40
0.000000
 40
14.700052
 40
42.559759
 40
60.279019
 40
77.996040
 40
105.666205
 40
120.243565
 40
120.243565
 40
120.243565
 40
120.243565
 10
63.430073
 20
216.895341
 30
0.0
 10
67.169835
 20
220.215952
 30
0.0
 10
77.997238
 20
229.829824
 30
0.0
 10
90.444976
 20
241.268797
 30
0.0
 10
108.576133
 20
265.857721
 30
0.0
 10
78.115708
 20
266.142888
 30
0.0
 10
61.560355
 20
263.160880
 30
0.0
 10
47.467404
 20
260.338955
 30
0.0
 10
42.604681
 20
259.365260
 30
0.0
 11
63.430073
 21
216.895341
 31
0.0
 11
74.406141
 21
226.673760
 31
0.0
 11
93.900437
 21
246.576917
 31
0.0
 11
101.762105
 21
262.456664
 31
0.0
 11
84.348731
 21
265.722736
 31
0.0
 11
56.903659
 21
262.200509
 31
0.0
 11
42.604681
 21
259.365260
 31
0.0
  0
SPLINE
  5
137
100
AcDbEntity
  8
0
 62
7
100
AcDbSpline
 70
0
 71
3
 72
13
 73
9
 74
7
 40
0.000000
 40
0.000000
 40
0.000000
 40
0.000000
 40
3.911897
 40
7.857200
 40
11.843651
 40
19.836984
 40
27.790826
 40
35.725253
 40
35.725253
 40
35.725253
 40
35.725253
 10
44.460931
 20
247.277372
 30
0.0
 10
43.927720
 20
248.467347
 30
0.0
 10
42.856745
 20
250.857458
 30
0.0
 10
41.287810
 20
254.480307
 30
0.0
 10
39.229067
 20
259.373314
 30
0.0
 10
36.766573
 20
265.545240
 30
0.0
 10
34.001108
 20
273.012009
 30
0.0
 10
32.365845
 20
278.049824
 30
0.0
 10
31.549212
 20
280.565654
 30
0.0
 11
44.460931
 21
247.277372
 31
0.0
 11
42.868766
 21
250.850599
 31
0.0
 11
41.299529
 21
254.470394
 31
0.0
 11
39.754681
 21
258.145340
 31
0.0
 11
36.792688
 21
265.569623
 31
0.0
 11
34.050130
 21
273.035679
 31
0.0
 11
31.549212
 21
280.565654
 31
0.0
  0
LINE
  5
138
100
AcDbEntity
  8
0
 62
7
100
AcDbLine
 10
40.260931
 20
303.491042
 30
0.0
 11
31.466015
 21
354.052735
 31
0.0
  0
SPLINE
  5
139
100
AcDbEntity
  8
0
 62
7
100
AcDbSpline
 70
0
 71
3
 72
10
 73
6
 74
4
 40
0.000000
 40
0.000000
 40
0.000000
 40
0.000000
 40
7.010372
 40
14.890278
 40
25.845730
 40
25.845730
 40
25.845730
 40
25.845730
 10
31.549212
 20
280.565654
 30
0.0
 10
31.776505
 20
283.042053
 30
0.0
 10
32.259284
 20
288.302014
 30
0.0
 10
41.704024
 20
292.351118
 30
0.0
 10
40.791623
 20
299.394379
 30
0.0
 10
40.260931
 20
303.491042
 30
0.0
 11
31.549212
 21
280.565654
 31
0.0
 11
33.330174
 21
287.346029
 31
0.0
 11
39.215771
 21
292.585559
 31
0.0
 11
40.260931
 21
303.491042
 31
0.0
  0
SPLINE
  5
13a
100
AcDbEntity
  8
0
 62
7
100
AcDbSpline
 70
0
 71
3
 72
10
 73
6
 74
4
 40
0.000000
 40
0.000000
 40
0.000000
 40
0.000000
 40
8.353236
 40
16.848156
 40
26.960696
 40
26.960696
 40
26.960696
 40
26.960696
 10
31.466015
 20
354.052735
 30
0.0
 10
30.904628
 20
356.763555
 30
0.0
 10
29.772332
 20
362.231176
 30
0.0
 10
24.955987
 20
370.593181
 30
0.0
 10
18.649080
 20
372.105973
 30
0.0
 10
15.221484
 20
372.928126
 30
0.0
 11
31.466015
 21
354.052735
 31
0.0
 11
29.320337
 21
362.125691
 31
0.0
 11
24.623279
 21
369.203919
 31
0.0
 11
15.221484
 21
372.928126
 31
0.0
  0
SPLINE
  5
13b
100
AcDbEntity
  8
0
 62
7
100
AcDbSpline
 70
0
 71
3
 72
10
 73
6
 74
4
 40
0.000000
 40
0.000000
 40
0.000000
 40
0.000000
 40
0.085181
 40
0.168537
 40
0.253269
 40
0.253269
 40
0.253269
 40
0.253269
 10
15.221484
 20
372.928126
 30
0.0
 10
15.193249
 20
372.925134
 30
0.0
 10
15.137382
 20
372.919215
 30
0.0
 10
15.053349
 20
372.911097
 30
0.0
 10
14.997623
 20
372.905277
 30
0.0
 10
14.969531
 20
372.902344
 30
0.0
 11
15.221484
 21
372.928126
 31
0.0
 11
15.136764
 21
372.919283
 31
0.0
 11
15.053816
 21
372.911035
 31
0.0
 11
14.969531
 21
372.902344
 31
0.0
  0
SPLINE
  5
13c
100
AcDbEntity
  8
0
 62
7
100
AcDbSpline
 70
0
 71
3
 72
10
 73
6
 74
4
 40
0.000000
 40
0.000000
 40
0.000000
 40
0.000000
 40
7.582711
 40
15.171077
 40
22.770633
 40
22.770633
 40
22.770633
 40
22.770633
 10
14.969531
 20
372.902344
 30
0.0
 10
12.620502
 20
373.835524
 30
0.0
 10
7.920690
 20
375.702580
 30
0.0
 10
0.921888
 20
378.641852
 30
0.0
 10
-3.702506
 20
380.702507
 30
0.0
 10
-6.016406
 20
381.733594
 30
0.0
 11
14.969531
 21
372.902344
 31
0.0
 11
7.931639
 21
375.724680
 31
0.0
 11
0.936256
 21
378.665414
 31
0.0
 11
-6.016406
 21
381.733594
 31
0.0
  0
LINE
  5
13d
100
AcDbEntity
  8
0
 62
7
100
AcDbLine
 10
-16.953515
 20
386.906250
 30
0.0
 11
-15.583593
 21
389.682422
 31
0.0
  0
LINE
  5
13e
100
AcDbEntity
  8
0
 62
7
100
AcDbLine
 10
-15.583593
 20
389.682422
 30
0.0
 11
-4.692187
 21
384.550782
 31
0.0
  0
SPLINE
  5
13f
100
AcDbEntity
  8
0
 62
7
100
AcDbSpline
 70
0
 71
3
 72
10
 73
6
 74
4
 40
0.000000
 40
0.000000
 40
0.000000
 40
0.000000
 40
4.038031
 40
8.070527
 40
12.099056
 40
12.099056
 40
12.099056
 40
12.099056
 10
-6.016406
 20
381.733594
 30
0.0
 10
-7.239654
 20
382.295208
 30
0.0
 10
-9.684471
 20
383.417665
 30
0.0
 10
-13.333861
 20
385.134752
 30
0.0
 10
-15.747360
 20
386.315945
 30
0.0
 10
-16.953515
 20
386.906250
 30
0.0
 11
-6.016406
 21
381.733594
 31
0.0
 11
-9.683510
 21
383.424169
 31
0.0
 11
-13.330574
 21
385.144619
 31
0.0
 11
-16.953515
 21
386.906250
 31
0.0
  0
LINE
  5
140
100
AcDbEntity
  8
0
 62
7
100
AcDbLine
 10
-46.503515
 20
406.668750
 30
0.0
 11
-36.394921
 21
400.681641
 31
0.0
  0
LINE
  5
141
100
AcDbEntity
  8
0
 62
7
100
AcDbLine
 10
-36.394921
 20
400.681641
 30
0.0
 11
-37.896093
 21
397.980469
 31
0.0
  0
SPLINE
  5
142
100
AcDbEntity
  8
0
 62
7
100
AcDbSpline
 70
0
 71
3
 72
13
 73
9
 74
7
 40
0.000000
 40
0.000000
 40
0.000000
 40
0.000000
 40
14.700022
 40
42.559650
 40
60.278812
 40
77.995971
 40
105.666310
 40
120.243752
 40
120.243752
 40
120.243752
 40
120.243752
 10
-4.692187
 20
384.550782
 30
0.0
 10
-3.618407
 20
389.435367
 30
0.0
 10
-0.509587
 20
403.577265
 30
0.0
 10
2.837417
 20
420.148103
 30
0.0
 10
3.053036
 20
450.698116
 30
0.0
 10
-21.757820
 20
433.024661
 30
0.0
 10
-33.398821
 20
420.881278
 30
0.0
 10
-43.141752
 20
410.314707
 30
0.0
 10
-46.503515
 20
406.668750
 30
0.0
 11
-4.692187
 21
384.550782
 31
0.0
 11
-1.559806
 21
398.913192
 31
0.0
 11
2.512941
 21
426.473519
 31
0.0
 11
-0.460547
 21
443.941406
 31
0.0
 11
-16.468189
 21
436.348442
 31
0.0
 11
-36.601737
 21
417.367190
 31
0.0
 11
-46.503515
 21
406.668750
 31
0.0
  0
SPLINE
  5
143
100
AcDbEntity
  8
0
 62
7
100
AcDbSpline
 70
0
 71
3
 72
13
 73
9
 74
7
 40
0.000000
 40
0.000000
 40
0.000000
 40
0.000000
 40
3.912084
 40
7.857728
 40
11.844361
 40
19.837564
 40
27.791152
 40
35.725435
 40
35.725435
 40
35.725435
 40
35.725435
 10
-37.896093
 20
397.980469
 30
0.0
 10
-39.026998
 20
398.629754
 30
0.0
 10
-41.298508
 20
399.933893
 30
0.0
 10
-44.697715
 20
401.942337
 30
0.0
 10
-49.239548
 20
404.690628
 30
0.0
 10
-54.859429
 20
408.236414
 30
0.0
 10
-61.485557
 20
412.651393
 30
0.0
 10
-65.769576
 20
415.765788
 30
0.0
 10
-67.908983
 20
417.321094
 30
0.0
 11
-37.896093
 21
397.980469
 31
0.0
 11
-41.284735
 21
399.935336
 31
0.0
 11
-44.682426
 21
401.941279
 31
0.0
 11
-48.092578
 21
404.006250
 31
0.0
 11
-54.852692
 21
408.271475
 31
0.0
 11
-61.459766
 21
412.699357
 31
0.0
 11
-67.908983
 21
417.321094
 31
0.0
  0
LINE
  5
144
100
AcDbEntity
  8
0
 62
7
100
AcDbLine
 10
-74.336717
 20
440.989453
 30
0.0
 11
-111.171095
 21
476.724609
 31
0.0
  0
SPLINE
  5
145
100
AcDbEntity
  8
0
 62
7
100
AcDbSpline
 70
0
 71
3
 72
10
 73
6
 74
4
 40
0.000000
 40
0.000000
 40
0.000000
 40
0.000000
 40
7.010587
 40
14.890779
 40
25.846451
 40
25.846451
 40
25.846451
 40
25.846451
 10
-67.908983
 20
417.321094
 30
0.0
 10
-69.180722
 20
419.458196
 30
0.0
 10
-71.881947
 20
423.997490
 30
0.0
 10
-66.621299
 20
432.825130
 30
0.0
 10
-71.499415
 20
437.987069
 30
0.0
 10
-74.336717
 20
440.989453
 30
0.0
 11
-67.908983
 21
417.321094
 31
0.0
 11
-70.453679
 21
423.853540
 31
0.0
 11
-68.772069
 21
431.552216
 31
0.0
 11
-74.336717
 21
440.989453
 31
0.0
  0
SPLINE
  5
146
100
AcDbEntity
  8
0
 62
7
100
AcDbSpline
 70
0
 71
3
 72
10
 73
6
 74
4
 40
0.000000
 40
0.000000
 40
0.000000
 40
0.000000
 40
8.352994
 40
16.847364
 40
26.959591
 40
26.959591
 40
26.959591
 40
26.959591
 10
-111.171095
 20
476.724609
 30
0.0
 10
-113.218537
 20
478.587728
 30
0.0
 10
-117.348076
 20
482.345500
 30
0.0
 10
-126.159188
 20
486.279678
 30
0.0
 10
-132.150504
 20
483.796446
 30
0.0
 10
-135.406636
 20
482.446871
 30
0.0
 11
-111.171095
 21
476.724609
 31
0.0
 11
-117.651828
 21
481.994581
 31
0.0
 11
-125.611710
 21
484.960149
 31
0.0
 11
-135.406636
 21
482.446871
 31
0.0
  0
SPLINE
  5
147
100
AcDbEntity
  8
0
 62
7
100
AcDbSpline
 70
0
 71
3
 72
10
 73
6
 74
4
 40
0.000000
 40
0.000000
 40
0.000000
 40
0.000000
 40
0.084562
 40
0.167343
 40
0.251471
 40
0.251471
 40
0.251471
 40
0.251471
 10
-135.406636
 20
482.446871
 30
0.0
 10
-135.427581
 20
482.428007
 30
0.0
 10
-135.469029
 20
482.390675
 30
0.0
 10
-135.531888
 20
482.335220
 30
0.0
 10
-135.573275
 20
482.298038
 30
0.0
 10
-135.594136
 20
482.279297
 30
0.0
 11
-135.406636
 21
482.446871
 31
0.0
 11
-135.469567
 21
482.390387
 31
0.0
 11
-135.531469
 21
482.335425
 31
0.0
 11
-135.594136
 21
482.279297
 31
0.0
  0
SPLINE
  5
148
100
AcDbEntity
  8
0
 62
7
100
AcDbSpline
 70
0
 71
3
 72
10
 73
6
 74
4
 40
0.000000
 40
0.000000
 40
0.000000
 40
0.000000
 40
7.583434
 40
15.172338
 40
22.772619
 40
22.772619
 40
22.772619
 40
22.772619
 10
-135.594136
 20
482.279297
 30
0.0
 10
-138.043275
 20
481.653438
 30
0.0
 10
-142.943321
 20
480.401268
 30
0.0
 10
-150.333727
 20
478.665037
 30
0.0
 10
-155.286568
 20
477.613868
 30
0.0
 10
-157.764844
 20
477.087890
 30
0.0
 11
-135.594136
 21
482.279297
 31
0.0
 11
-142.947509
 21
480.425553
 31
0.0
 11
-150.335899
 21
478.692586
 31
0.0
 11
-157.764844
 21
477.087890
 31
0.0
  0
LINE
  5
149
100
AcDbEntity
  8
0
 62
7
100
AcDbLine
 10
-169.653514
 20
474.844921
 30
0.0
 11
-170.177344
 21
477.895312
 31
0.0
  0
LINE
  5
14a
100
AcDbEntity
  8
0
 62
7
100
AcDbLine
 10
-170.177344
 20
477.895312
 30
0.0
 11
-158.349610
 21
480.145313
 31
0.0
  0
SPLINE
  5
14b
100
AcDbEntity
  8
0
 62
7
100
AcDbSpline
 70
0
 71
3
 72
10
 73
6
 74
4
 40
0.000000
 40
0.000000
 40
0.000000
 40
0.000000
 40
4.037967
 40
8.070358
 40
12.098835
 40
12.098835
 40
12.098835
 40
12.098835
 10
-157.764844
 20
477.087890
 30
0.0
 10
-159.084570
 20
476.823296
 30
0.0
 10
-161.722201
 20
476.294476
 30
0.0
 10
-165.683932
 20
475.539149
 30
0.0
 10
-168.330748
 20
475.076255
 30
0.0
 10
-169.653514
 20
474.844921
 30
0.0
 11
-157.764844
 21
477.087890
 31
0.0
 11
-161.725272
 21
476.300366
 31
0.0
 11
-165.687042
 21
475.549000
 31
0.0
 11
-169.653514
 21
474.844921
 31
0.0
  0
LINE
  5
14c
100
AcDbEntity
  8
0
 62
7
100
AcDbLine
 10
-189.351561
 20
530.716403
 30
0.0
 11
-189.351561
 21
530.716403
 31
0.0
  0
SPLINE
  5
14d
100
AcDbEntity
  8
0
 62
7
100
AcDbSpline
 70
0
 71
3
 72
10
 73
6
 74
4
 40
0.000000
 40
0.000000
 40
0.000000
 40
0.000000
 40
14.305754
 40
41.728936
 40
59.943884
 40
59.943884
 40
59.943884
 40
59.943884
 10
-158.349610
 20
480.145313
 30
0.0
 10
-160.273618
 20
484.492980
 30
0.0
 10
-165.885821
 20
497.174837
 30
0.0
 10
-173.592856
 20
516.118331
 30
0.0
 10
-184.856179
 20
526.552107
 30
0.0
 10
-189.351561
 20
530.716403
 30
0.0
 11
-158.349610
 21
480.145313
 31
0.0
 11
-164.092594
 21
493.247707
 31
0.0
 11
-176.724901
 21
517.588121
 31
0.0
 11
-189.351561
 21
530.716403
 31
0.0
  0
LINE
  5
14e
100
AcDbEntity
  8
0
 62
7
100
AcDbLine
 10
-498.885936
 20
260.867184
 30
0.0
 11
-498.885936
 21
260.867184
 31
0.0
  0
SPLINE
  5
14f
100
AcDbEntity
  8
0
 62
7
100
AcDbSpline
 70
0
 71
3
 72
61
 73
57
 74
55
 40
0.000000
 40
0.000000
 40
0.000000
 40
0.000000
 40
0.734160
 40
1.448893
 40
2.183053
 40
2.776474
 40
4.337343
 40
6.537511
 40
9.049997
 40
11.501176
 40
13.501937
 40
17.427712
 40
21.381096
 40
25.354954
 40
29.340075
 40
33.330508
 40
37.321110
 40
39.383793
 40
41.915501
 40
44.513576
 40
46.791623
 40
48.409365
 40
49.024801
 40
49.554961
 40
50.077352
 40
50.607512
 40
51.137672
 40
51.660063
 40
52.190223
 40
52.720383
 40
53.242774
 40
53.772934
 40
54.412583
 40
56.093084
 40
58.457676
 40
61.151740
 40
63.875644
 40
66.370205
 40
70.397871
 40
74.423632
 40
78.441888
 40
82.447367
 40
86.435985
 40
90.401191
 40
92.848720
 40
95.502179
 40
98.117403
 40
100.409001
 40
102.036105
 40
102.655059
 40
103.080431
 40
103.501698
 40
103.927070
 40
104.352443
 40
104.773710
 40
105.199082
 40
105.199082
 40
105.199082
 40
105.199082
 10
-498.885936
 20
260.867184
 30
0.0
 10
-499.132150
 20
260.829654
 30
0.0
 10
-499.618063
 20
260.755586
 30
0.0
 10
-500.186755
 20
260.226371
 30
0.0
 10
-500.385191
 20
259.557151
 30
0.0
 10
-500.462698
 20
258.598875
 30
0.0
 10
-500.681654
 20
257.162009
 30
0.0
 10
-500.992420
 20
255.094607
 30
0.0
 10
-501.453544
 20
252.751040
 30
0.0
 10
-501.982944
 20
250.488204
 30
0.0
 10
-502.909705
 20
247.848349
 30
0.0
 10
-504.370025
 20
244.891579
 30
0.0
 10
-506.023506
 20
241.304333
 30
0.0
 10
-507.766037
 20
237.735870
 30
0.0
 10
-509.530817
 20
234.164620
 30
0.0
 10
-511.376465
 20
230.629648
 30
0.0
 10
-512.849769
 20
227.618739
 30
0.0
 10
-514.400499
 20
225.207761
 30
0.0
 10
-515.899541
 20
223.333738
 30
0.0
 10
-517.507237
 20
221.458855
 30
0.0
 10
-518.981936
 20
219.875181
 30
0.0
 10
-520.010646
 20
218.775445
 30
0.0
 10
-520.674397
 20
218.139858
 30
0.0
 10
-521.029924
 20
217.701381
 30
0.0
 10
-521.172769
 20
217.178684
 30
0.0
 10
-521.134222
 20
216.642726
 30
0.0
 10
-520.909495
 20
216.152451
 30
0.0
 10
-520.530232
 20
215.770664
 30
0.0
 10
-520.041486
 20
215.542720
 30
0.0
 10
-519.505682
 20
215.500505
 30
0.0
 10
-518.982469
 20
215.640312
 30
0.0
 10
-518.533553
 20
215.996300
 30
0.0
 10
-517.887415
 20
216.690599
 30
0.0
 10
-516.791298
 20
217.804730
 30
0.0
 10
-515.275784
 20
219.462917
 30
0.0
 10
-513.570491
 20
221.417650
 30
0.0
 10
-511.918557
 20
223.478325
 30
0.0
 10
-510.276657
 20
226.093603
 30
0.0
 10
-508.709359
 20
229.243362
 30
0.0
 10
-506.853539
 20
232.813250
 30
0.0
 10
-505.071640
 20
236.413120
 30
0.0
 10
-503.317258
 20
240.012726
 30
0.0
 10
-501.642379
 20
243.629729
 30
0.0
 10
-500.128869
 20
246.751522
 30
0.0
 10
-499.091947
 20
249.596820
 30
0.0
 10
-498.507518
 20
252.105569
 30
0.0
 10
-498.044282
 20
254.582501
 30
0.0
 10
-497.697764
 20
256.732996
 30
0.0
 10
-497.510964
 20
258.234806
 30
0.0
 10
-497.381625
 20
259.114866
 30
0.0
 10
-497.371600
 20
259.608109
 30
0.0
 10
-497.503436
 20
260.018707
 30
0.0
 10
-497.739340
 20
260.377548
 30
0.0
 10
-498.067806
 20
260.653242
 30
0.0
 10
-498.460268
 20
260.834818
 30
0.0
 10
-498.743589
 20
260.856361
 30
0.0
 10
-498.885936
 20
260.867184
 30
0.0
 11
-498.885936
 21
260.867184
 31
0.0
 11
-499.596728
 21
260.683429
 31
0.0
 11
-500.124104
 21
260.201021
 31
0.0
 11
-500.370312
 21
259.509376
 31
0.0
 11
-500.440571
 21
258.920129
 31
0.0
 11
-500.649024
 21
257.373242
 31
0.0
 11
-500.992184
 21
255.200000
 31
0.0
 11
-501.472302
 21
252.733814
 31
0.0
 11
-502.063888
 21
250.355095
 31
0.0
 11
-502.721872
 21
248.465624
 31
0.0
 11
-504.349694
 21
244.893243
 31
0.0
 11
-506.034018
 21
241.316611
 31
0.0
 11
-507.767184
 21
237.740624
 31
0.0
 11
-509.543078
 21
234.173077
 31
0.0
 11
-511.361375
 21
230.620987
 31
0.0
 11
-513.221872
 21
227.090624
 31
0.0
 11
-514.341509
 21
225.358263
 31
0.0
 11
-515.896465
 21
223.360350
 31
0.0
 11
-517.590624
 21
221.390624
 31
0.0
 11
-519.133141
 21
219.714277
 31
0.0
 11
-520.253462
 21
218.547243
 31
0.0
 11
-520.685936
 21
218.109376
 31
0.0
 11
-520.998763
 21
217.681347
 31
0.0
 11
-521.142353
 21
217.179078
 31
0.0
 11
-521.103040
 21
216.650377
 31
0.0
 11
-520.882319
 21
216.168348
 31
0.0
 11
-520.514159
 21
215.797740
 31
0.0
 11
-520.033604
 21
215.573827
 31
0.0
 11
-519.505176
 21
215.531009
 31
0.0
 11
-519.001966
 21
215.671266
 31
0.0
 11
-518.571872
 21
215.981248
 31
0.0
 11
-518.122081
 21
216.436044
 31
0.0
 11
-516.957708
 21
217.647785
 31
0.0
 11
-515.356248
 21
219.387504
 31
0.0
 11
-513.590885
 21
221.422564
 31
0.0
 11
-511.915033
 21
223.569929
 31
0.0
 11
-510.576560
 21
225.675000
 31
0.0
 11
-508.698711
 21
229.238113
 31
0.0
 11
-506.864175
 21
232.821580
 31
0.0
 11
-505.073440
 21
236.418752
 31
0.0
 11
-503.326837
 21
240.023367
 31
0.0
 11
-501.628174
 21
243.632191
 31
0.0
 11
-499.984376
 21
247.240624
 31
0.0
 11
-499.160868
 21
249.545451
 31
0.0
 11
-498.523956
 21
252.121338
 31
0.0
 11
-498.035936
 21
254.690624
 31
0.0
 11
-497.678427
 21
256.954163
 31
0.0
 11
-497.460917
 21
258.566664
 31
0.0
 11
-497.387504
 21
259.181248
 31
0.0
 11
-497.395184
 21
259.606551
 31
0.0
 11
-497.520159
 21
260.008853
 31
0.0
 11
-497.754816
 21
260.363646
 31
0.0
 11
-498.079618
 21
260.638319
 31
0.0
 11
-498.464473
 21
260.809644
 31
0.0
 11
-498.885936
 21
260.867184
 31
0.0
  0
LINE
  5
150
100
AcDbEntity
  8
0
 62
7
100
AcDbLine
 10
1.640625
 20
196.759376
 30
0.0
 11
1.640625
 21
194.359376
 31
0.0
  0
LINE
  5
151
100
AcDbEntity
  8
0
 62
7
100
AcDbLine
 10
1.640625
 20
194.359376
 30
0.0
 11
43.859375
 21
194.359376
 31
0.0
  0
LINE
  5
152
100
AcDbEntity
  8
0
 62
7
100
AcDbLine
 10
43.859375
 20
194.359376
 30
0.0
 11
43.859375
 21
196.759376
 31
0.0
  0
LINE
  5
153
100
AcDbEntity
  8
0
 62
7
100
AcDbLine
 10
43.859375
 20
196.759376
 30
0.0
 11
1.640625
 21
196.759376
 31
0.0
  0
SPLINE
  5
154
100
AcDbEntity
  8
0
 62
1
100
AcDbSpline
 70
0
 71
3
 72
16
 73
12
 74
10
 40
0.000000
 40
0.000000
 40
0.000000
 40
0.000000
 40
83.209273
 40
164.963191
 40
248.172464
 40
331.381732
 40
413.135648
 40
496.344916
 40
579.554187
 40
661.308104
 40
744.517374
 40
744.517374
 40
744.517374
 40
744.517374
 10
-440.081176
 20
164.651832
 30
0.0
 10
-440.985494
 20
192.730846
 30
0.0
 10
-442.778312
 20
248.397766
 30
0.0
 10
-405.042338
 20
325.461638
 30
0.0
 10
-343.192909
 20
382.965731
 30
0.0
 10
-263.463003
 20
412.444311
 30
0.0
 10
-178.803178
 20
409.629527
 30
0.0
 10
-101.207404
 20
374.920157
 30
0.0
 10
-43.314158
 20
313.434837
 30
0.0
 10
-10.780330
 20
234.034624
 30
0.0
 10
-16.266749
 20
178.609728
 30
0.0
 10
-19.034159
 20
150.652792
 30
0.0
 11
-440.081176
 21
164.651832
 31
0.0
 11
-435.955958
 21
247.758785
 31
0.0
 11
-401.326899
 21
321.816408
 31
0.0
 11
-340.195352
 21
378.267422
 31
0.0
 11
-262.161681
 21
407.155630
 31
0.0
 11
-180.452915
 21
404.438963
 31
0.0
 11
-104.510416
 21
370.431329
 31
0.0
 11
-47.263518
 21
310.044448
 31
0.0
 11
-17.630061
 21
233.850215
 31
0.0
 11
-19.034159
 21
150.652792
 31
0.0
  0
LINE
  5
155
100
AcDbEntity
  8
0
 62
7
100
AcDbLine
 10
-252.230859
 20
347.658985
 30
0.0
 11
-251.512497
 21
343.102735
 31
0.0
  0
SPLINE
  5
156
100
AcDbEntity
  8
0
 62
7
100
AcDbSpline
 70
0
 71
3
 72
10
 73
6
 74
4
 40
0.000000
 40
0.000000
 40
0.000000
 40
0.000000
 40
8.018214
 40
16.033714
 40
24.051931
 40
24.051931
 40
24.051931
 40
24.051931
 10
-228.289449
 20
349.722655
 30
0.0
 10
-230.961838
 20
349.659898
 30
0.0
 10
-236.305711
 20
349.534404
 30
0.0
 10
-244.300622
 20
348.845269
 30
0.0
 10
-249.587148
 20
348.054457
 30
0.0
 10
-252.230859
 20
347.658985
 30
0.0
 11
-228.289449
 21
349.722655
 31
0.0
 11
-236.303056
 21
349.450879
 31
0.0
 11
-244.288944
 21
348.762521
 31
0.0
 11
-252.230859
 21
347.658985
 31
0.0
  0
SPLINE
  5
157
100
AcDbEntity
  8
0
 62
7
100
AcDbSpline
 70
0
 71
3
 72
10
 73
6
 74
4
 40
0.000000
 40
0.000000
 40
0.000000
 40
0.000000
 40
7.777622
 40
15.552612
 40
23.330237
 40
23.330237
 40
23.330237
 40
23.330237
 10
-251.512497
 20
343.102735
 30
0.0
 10
-248.948110
 20
343.486320
 30
0.0
 10
-243.820204
 20
344.253361
 30
0.0
 10
-236.065181
 20
344.921757
 30
0.0
 10
-230.881652
 20
345.043445
 30
0.0
 10
-228.289449
 20
345.104299
 30
0.0
 11
-251.512497
 21
343.102735
 31
0.0
 11
-243.808879
 21
344.173096
 31
0.0
 11
-236.062607
 21
344.840738
 31
0.0
 11
-228.289449
 21
345.104299
 31
0.0
  0
LINE
  5
158
100
AcDbEntity
  8
0
 62
7
100
AcDbLine
 10
-204.835545
 20
343.166017
 30
0.0
 11
-204.110151
 21
347.724613
 31
0.0
  0
SPLINE
  5
159
100
AcDbEntity
  8
0
 62
7
100
AcDbSpline
 70
0
 71
3
 72
10
 73
6
 74
4
 40
0.000000
 40
0.000000
 40
0.000000
 40
0.000000
 40
7.852759
 40
15.702808
 40
23.555569
 40
23.555569
 40
23.555569
 40
23.555569
 10
-228.289449
 20
345.104299
 30
0.0
 10
-225.671966
 20
345.053650
 30
0.0
 10
-220.437902
 20
344.952370
 30
0.0
 10
-212.605513
 20
344.305092
 30
0.0
 10
-207.425832
 20
343.545752
 30
0.0
 10
-204.835545
 20
343.166017
 30
0.0
 11
-228.289449
 21
345.104299
 31
0.0
 11
-220.440193
 21
344.869771
 31
0.0
 11
-212.616814
 21
344.223233
 31
0.0
 11
-204.835545
 21
343.166017
 31
0.0
  0
LINE
  5
15a
100
AcDbEntity
  8
0
 62
7
100
AcDbLine
 10
-228.289449
 20
349.722655
 30
0.0
 11
-228.289449
 21
349.722655
 31
0.0
  0
LINE
  5
15b
100
AcDbEntity
  8
0
 62
7
100
AcDbLine
 10
-158.305078
 20
332.885155
 30
0.0
 11
-160.405078
 21
328.771873
 31
0.0
  0
SPLINE
  5
15c
100
AcDbEntity
  8
0
 62
7
100
AcDbSpline
 70
0
 71
3
 72
10
 73
6
 74
4
 40
0.000000
 40
0.000000
 40
0.000000
 40
0.000000
 40
8.095630
 40
16.188464
 40
24.284092
 40
24.284092
 40
24.284092
 40
24.284092
 10
-204.110151
 20
347.724613
 30
0.0
 10
-206.780554
 20
348.116072
 30
0.0
 10
-212.120436
 20
348.898856
 30
0.0
 10
-220.195069
 20
349.566098
 30
0.0
 10
-225.591012
 20
349.670463
 30
0.0
 10
-228.289449
 20
349.722655
 30
0.0
 11
-204.110151
 21
347.724613
 31
0.0
 11
-212.132086
 21
348.814467
 31
0.0
 11
-220.197430
 21
349.480941
 31
0.0
 11
-228.289449
 21
349.722655
 31
0.0
  0
LINE
  5
15d
100
AcDbEntity
  8
0
 62
7
100
AcDbLine
 10
-122.692966
 20
301.223438
 30
0.0
 11
-119.426950
 21
304.484768
 31
0.0
  0
SPLINE
  5
15e
100
AcDbEntity
  8
0
 62
7
100
AcDbSpline
 70
0
 71
3
 72
10
 73
6
 74
4
 40
0.000000
 40
0.000000
 40
0.000000
 40
0.000000
 40
15.631606
 40
31.241917
 40
46.873522
 40
46.873522
 40
46.873522
 40
46.873522
 10
-160.405078
 20
328.771873
 30
0.0
 10
-155.842929
 20
326.248282
 30
0.0
 10
-146.724845
 20
321.204538
 30
0.0
 10
-134.062115
 20
311.954503
 30
0.0
 10
-126.484404
 20
304.802084
 30
0.0
 10
-122.692966
 20
301.223438
 30
0.0
 11
-160.405078
 21
328.771873
 31
0.0
 11
-146.888406
 21
320.920332
 31
0.0
 11
-134.283122
 21
311.712259
 31
0.0
 11
-122.692966
 21
301.223438
 31
0.0
  0
LINE
  5
15f
100
AcDbEntity
  8
0
 62
7
100
AcDbLine
 10
-158.305078
 20
332.885155
 30
0.0
 11
-158.305078
 21
332.885155
 31
0.0
  0
SPLINE
  5
160
100
AcDbEntity
  8
0
 62
7
100
AcDbSpline
 70
0
 71
3
 72
10
 73
6
 74
4
 40
0.000000
 40
0.000000
 40
0.000000
 40
0.000000
 40
16.114952
 40
32.207952
 40
48.322906
 40
48.322906
 40
48.322906
 40
48.322906
 10
-119.426950
 20
304.484768
 30
0.0
 10
-123.335615
 20
308.174079
 30
0.0
 10
-131.147620
 20
315.547676
 30
0.0
 10
-144.201866
 20
325.083775
 30
0.0
 10
-153.601871
 20
330.283514
 30
0.0
 10
-158.305078
 20
332.885155
 30
0.0
 11
-119.426950
 21
304.484768
 31
0.0
 11
-131.375460
 21
315.297944
 31
0.0
 11
-144.370485
 21
324.790782
 31
0.0
 11
-158.305078
 21
332.885155
 31
0.0
  0
LINE
  5
161
100
AcDbEntity
  8
0
 62
7
100
AcDbLine
 10
-336.993746
 20
304.642958
 30
0.0
 11
-333.733592
 21
301.376942
 31
0.0
  0
SPLINE
  5
162
100
AcDbEntity
  8
0
 62
7
100
AcDbSpline
 70
0
 71
3
 72
10
 73
6
 74
4
 40
0.000000
 40
0.000000
 40
0.000000
 40
0.000000
 40
16.107115
 40
32.192311
 40
48.299425
 40
48.299425
 40
48.299425
 40
48.299425
 10
-298.005464
 20
332.852335
 30
0.0
 10
-302.718019
 20
330.273114
 30
0.0
 10
-312.136715
 20
325.118180
 30
0.0
 10
-325.227855
 20
315.646286
 30
0.0
 10
-333.070002
 20
308.312398
 30
0.0
 10
-336.993746
 20
304.642958
 30
0.0
 11
-298.005464
 21
332.852335
 31
0.0
 11
-311.969580
 21
324.824718
 31
0.0
 11
-325.001390
 21
315.395751
 31
0.0
 11
-336.993746
 21
304.642958
 31
0.0
  0
LINE
  5
163
100
AcDbEntity
  8
0
 62
7
100
AcDbLine
 10
-295.914842
 20
328.740223
 30
0.0
 11
-298.005464
 21
332.852335
 31
0.0
  0
SPLINE
  5
164
100
AcDbEntity
  8
0
 62
7
100
AcDbSpline
 70
0
 71
3
 72
10
 73
6
 74
4
 40
0.000000
 40
0.000000
 40
0.000000
 40
0.000000
 40
15.623970
 40
31.226677
 40
46.850648
 40
46.850648
 40
46.850648
 40
46.850648
 10
-333.733592
 20
301.376942
 30
0.0
 10
-329.927553
 20
304.936324
 30
0.0
 10
-322.320655
 20
312.050245
 30
0.0
 10
-309.622208
 20
321.238046
 30
0.0
 10
-300.486038
 20
326.238362
 30
0.0
 10
-295.914842
 20
328.740223
 30
0.0
 11
-333.733592
 21
301.376942
 31
0.0
 11
-322.100980
 21
311.807224
 31
0.0
 11
-309.460086
 21
320.953384
 31
0.0
 11
-295.914842
 21
328.740223
 31
0.0
  0
LINE
  5
165
100
AcDbEntity
  8
0
 62
7
100
AcDbLine
 10
-380.234761
 20
219.959757
 30
0.0
 11
-375.677341
 21
219.234363
 31
0.0
  0
SPLINE
  5
166
100
AcDbEntity
  8
0
 62
7
100
AcDbSpline
 70
0
 71
3
 72
10
 73
6
 74
4
 40
0.000000
 40
0.000000
 40
0.000000
 40
0.000000
 40
16.115738
 40
32.209519
 40
48.325256
 40
48.325256
 40
48.325256
 40
48.325256
 10
-365.395309
 20
265.764836
 30
0.0
 10
-367.679610
 20
260.899297
 30
0.0
 10
-372.245101
 20
251.174848
 30
0.0
 10
-377.227798
 20
235.794704
 30
0.0
 10
-379.231985
 20
225.240471
 30
0.0
 10
-380.234761
 20
219.959757
 30
0.0
 11
-365.395309
 21
265.764836
 31
0.0
 11
-371.936677
 21
251.036377
 31
0.0
 11
-376.896769
 21
235.726012
 31
0.0
 11
-380.234761
 21
219.959757
 31
0.0
  0
LINE
  5
167
100
AcDbEntity
  8
0
 62
7
100
AcDbLine
 10
-361.283197
 20
263.664836
 30
0.0
 11
-365.395309
 21
265.764836
 31
0.0
  0
LINE
  5
168
100
AcDbEntity
  8
0
 62
7
100
AcDbLine
 10
-91.217579
 20
265.496474
 30
0.0
 11
-95.330861
 21
263.404676
 31
0.0
  0
SPLINE
  5
169
100
AcDbEntity
  8
0
 62
7
100
AcDbSpline
 70
0
 71
3
 72
10
 73
6
 74
4
 40
0.000000
 40
0.000000
 40
0.000000
 40
0.000000
 40
15.632107
 40
31.242917
 40
46.875024
 40
46.875024
 40
46.875024
 40
46.875024
 10
-375.677341
 20
219.234363
 30
0.0
 10
-374.704650
 20
224.356602
 30
0.0
 10
-372.760592
 20
234.594101
 30
0.0
 10
-367.927416
 20
249.512686
 30
0.0
 10
-363.498943
 20
258.945310
 30
0.0
 10
-361.283197
 20
263.664836
 30
0.0
 11
-375.677341
 21
219.234363
 31
0.0
 11
-372.439499
 21
234.527470
 31
0.0
 11
-367.628251
 21
249.378372
 31
0.0
 11
-361.283197
 21
263.664836
 31
0.0
  0
LINE
  5
16a
100
AcDbEntity
  8
0
 62
7
100
AcDbLine
 10
-80.968361
 20
219.003507
 30
0.0
 11
-76.410935
 21
219.721863
 31
0.0
  0
SPLINE
  5
16b
100
AcDbEntity
  8
0
 62
7
100
AcDbSpline
 70
0
 71
3
 72
10
 73
6
 74
4
 40
0.000000
 40
0.000000
 40
0.000000
 40
0.000000
 40
15.619408
 40
31.217573
 40
46.836982
 40
46.836982
 40
46.836982
 40
46.836982
 10
-95.330861
 20
263.404676
 30
0.0
 10
-93.119528
 20
258.687763
 30
0.0
 10
-88.699871
 20
249.260352
 30
0.0
 10
-83.877378
 20
234.351783
 30
0.0
 10
-81.938473
 20
224.121919
 30
0.0
 10
-80.968361
 20
219.003507
 30
0.0
 11
-95.330861
 21
263.404676
 31
0.0
 11
-88.998622
 21
249.126418
 31
0.0
 11
-84.197972
 21
234.285377
 31
0.0
 11
-80.968361
 21
219.003507
 31
0.0
  0
LINE
  5
16c
100
AcDbEntity
  8
0
 62
7
100
AcDbLine
 10
-91.217579
 20
265.496474
 30
0.0
 11
-91.217579
 21
265.496474
 31
0.0
  0
LINE
  5
16d
100
AcDbEntity
  8
0
 62
7
100
AcDbLine
 10
-77.550000
 20
196.981248
 30
0.0
 11
-77.550000
 21
194.581248
 31
0.0
  0
LINE
  5
16e
100
AcDbEntity
  8
0
 62
7
100
AcDbLine
 10
-77.550000
 20
194.581248
 30
0.0
 11
-35.329687
 21
194.581248
 31
0.0
  0
LINE
  5
16f
100
AcDbEntity
  8
0
 62
7
100
AcDbLine
 10
-35.329687
 20
194.581248
 30
0.0
 11
-35.329687
 21
196.981248
 31
0.0
  0
LINE
  5
170
100
AcDbEntity
  8
0
 62
7
100
AcDbLine
 10
-35.329687
 20
196.981248
 30
0.0
 11
-77.550000
 21
196.981248
 31
0.0
  0
SPLINE
  5
171
100
AcDbEntity
  8
0
 62
7
100
AcDbSpline
 70
0
 71
3
 72
10
 73
6
 74
4
 40
0.000000
 40
0.000000
 40
0.000000
 40
0.000000
 40
16.102546
 40
32.183188
 40
48.285732
 40
48.285732
 40
48.285732
 40
48.285732
 10
-76.410935
 20
219.721863
 30
0.0
 10
-77.411039
 20
224.998600
 30
0.0
 10
-79.409886
 20
235.544897
 30
0.0
 10
-84.381511
 20
250.914627
 30
0.0
 10
-88.937856
 20
260.633654
 30
0.0
 10
-91.217579
 20
265.496474
 30
0.0
 11
-76.410935
 21
219.721863
 31
0.0
 11
-79.740398
 21
235.476438
 31
0.0
 11
-84.689503
 21
250.776550
 31
0.0
 11
-91.217579
 21
265.496474
 31
0.0
  0
SPLINE
  5
172
100
AcDbEntity
  8
0
 62
7
100
AcDbSpline
 70
0
 71
3
 72
16
 73
12
 74
10
 40
0.000000
 40
0.000000
 40
0.000000
 40
0.000000
 40
6.086128
 40
12.121891
 40
18.208019
 40
24.294148
 40
30.329910
 40
36.416039
 40
40.060210
 40
43.693327
 40
47.337499
 40
47.337499
 40
47.337499
 40
47.337499
 10
-252.059176
 20
303.853728
 30
0.0
 10
-254.093695
 20
303.698710
 30
0.0
 10
-258.145895
 20
303.389956
 30
0.0
 10
-263.816751
 20
300.950345
 30
0.0
 10
-268.688766
 20
297.238983
 30
0.0
 10
-272.424655
 20
292.359646
 30
0.0
 10
-274.772511
 20
286.692389
 30
0.0
 10
-275.471165
 20
281.415176
 30
0.0
 10
-275.110722
 20
276.962970
 30
0.0
 10
-274.287801
 20
273.393154
 30
0.0
 10
-273.285630
 20
271.178669
 30
0.0
 10
-272.783784
 20
270.069744
 30
0.0
 11
-252.059176
 21
303.853728
 31
0.0
 11
-258.092941
 21
303.057084
 31
0.0
 11
-263.669211
 21
300.747183
 31
0.0
 11
-268.498888
 21
297.043782
 31
0.0
 11
-272.202046
 21
292.213919
 31
0.0
 11
-274.511667
 21
286.637533
 31
0.0
 11
-275.308008
 21
280.603728
 31
0.0
 11
-275.022144
 21
276.970786
 31
0.0
 11
-274.175520
 21
273.437690
 31
0.0
 11
-272.783784
 21
270.069744
 31
0.0
  0
SPLINE
  5
173
100
AcDbEntity
  8
0
 62
7
100
AcDbSpline
 70
0
 71
3
 72
10
 73
6
 74
4
 40
0.000000
 40
0.000000
 40
0.000000
 40
0.000000
 40
16.607015
 40
33.119246
 40
49.726261
 40
49.726261
 40
49.726261
 40
49.726261
 10
-272.783784
 20
270.069744
 30
0.0
 10
-277.093953
 20
266.573308
 30
0.0
 10
-285.689692
 20
259.600393
 30
0.0
 10
-295.601235
 20
245.997002
 30
0.0
 10
-299.604534
 20
235.677997
 30
0.0
 10
-301.611912
 20
230.503728
 30
0.0
 11
-272.783784
 21
270.069744
 31
0.0
 11
-285.212849
 21
259.055603
 31
0.0
 11
-294.936530
 21
245.710050
 31
0.0
 11
-301.611912
 21
230.503728
 31
0.0
  0
SPLINE
  5
174
100
AcDbEntity
  8
0
 62
7
100
AcDbSpline
 70
0
 71
3
 72
10
 73
6
 74
4
 40
0.000000
 40
0.000000
 40
0.000000
 40
0.000000
 40
1.179541
 40
2.358703
 40
3.538244
 40
3.538244
 40
3.538244
 40
3.538244
 10
-301.611912
 20
230.503728
 30
0.0
 10
-302.001010
 20
230.560618
 30
0.0
 10
-302.779080
 20
230.674379
 30
0.0
 10
-303.955314
 20
230.773768
 30
0.0
 10
-304.741441
 20
230.792178
 30
0.0
 10
-305.134568
 20
230.801384
 30
0.0
 11
-301.611912
 21
230.503728
 31
0.0
 11
-302.780716
 21
230.662517
 31
0.0
 11
-303.955691
 21
230.761800
 31
0.0
 11
-305.134568
 21
230.801384
 31
0.0
  0
SPLINE
  5
175
100
AcDbEntity
  8
0
 62
7
100
AcDbSpline
 70
0
 71
3
 72
13
 73
9
 74
7
 40
0.000000
 40
0.000000
 40
0.000000
 40
0.000000
 40
6.086127
 40
12.121889
 40
18.208016
 40
24.294143
 40
30.329905
 40
36.416032
 40
36.416032
 40
36.416032
 40
36.416032
 10
-305.134568
 20
230.801384
 30
0.0
 10
-307.169202
 20
230.646363
 30
0.0
 10
-311.221633
 20
230.337603
 30
0.0
 10
-316.890761
 20
227.898029
 30
0.0
 10
-321.769372
 20
224.186523
 30
0.0
 10
-325.480632
 20
219.307724
 30
0.0
 10
-327.919919
 20
213.638472
 30
0.0
 10
-328.228474
 20
209.586026
 30
0.0
 10
-328.383392
 20
207.551384
 30
0.0
 11
-305.134568
 21
230.801384
 31
0.0
 11
-311.168332
 21
230.004739
 31
0.0
 11
-316.744600
 21
227.694837
 31
0.0
 11
-321.574275
 21
223.991436
 31
0.0
 11
-325.277433
 21
219.161573
 31
0.0
 11
-327.587052
 21
213.585188
 31
0.0
 11
-328.383392
 21
207.551384
 31
0.0
  0
SPLINE
  5
176
100
AcDbEntity
  8
0
 62
7
100
AcDbSpline
 70
0
 71
3
 72
10
 73
6
 74
4
 40
0.000000
 40
0.000000
 40
0.000000
 40
0.000000
 40
12.155811
 40
23.951096
 40
36.106906
 40
36.106906
 40
36.106906
 40
36.106906
 10
-328.383392
 20
207.551384
 30
0.0
 10
-327.743881
 20
203.477617
 30
0.0
 10
-326.483826
 20
195.450907
 30
0.0
 10
-317.235044
 20
186.202122
 30
0.0
 10
-309.208334
 20
184.942064
 30
0.0
 10
-305.134568
 20
184.302552
 30
0.0
 11
-328.383392
 21
207.551384
 31
0.0
 11
-325.209138
 21
195.817338
 31
0.0
 11
-316.868613
 21
187.476810
 31
0.0
 11
-305.134568
 21
184.302552
 31
0.0
  0
SPLINE
  5
177
100
AcDbEntity
  8
0
 62
7
100
AcDbSpline
 70
0
 71
3
 72
10
 73
6
 74
4
 40
0.000000
 40
0.000000
 40
0.000000
 40
0.000000
 40
1.204885
 40
2.409366
 40
3.614251
 40
3.614251
 40
3.614251
 40
3.614251
 10
-305.134568
 20
184.302552
 30
0.0
 10
-304.732962
 20
184.310588
 30
0.0
 10
-303.929886
 20
184.326658
 30
0.0
 10
-302.728129
 20
184.425664
 30
0.0
 10
-301.933250
 20
184.541242
 30
0.0
 10
-301.535744
 20
184.599040
 30
0.0
 11
-305.134568
 21
184.302552
 31
0.0
 11
-303.930239
 21
184.339147
 31
0.0
 11
-302.729824
 21
184.438043
 31
0.0
 11
-301.535744
 21
184.599040
 31
0.0
  0
SPLINE
  5
178
100
AcDbEntity
  8
0
 62
7
100
AcDbSpline
 70
0
 71
3
 72
10
 73
6
 74
4
 40
0.000000
 40
0.000000
 40
0.000000
 40
0.000000
 40
16.605501
 40
33.116243
 40
49.721745
 40
49.721745
 40
49.721745
 40
49.721745
 10
-301.535744
 20
184.599040
 30
0.0
 10
-299.537901
 20
179.421627
 30
0.0
 10
-295.553616
 20
169.096347
 30
0.0
 10
-285.667914
 20
155.476112
 30
0.0
 10
-277.085901
 20
148.487908
 30
0.0
 10
-272.782616
 20
144.983808
 30
0.0
 11
-301.535744
 21
184.599040
 31
0.0
 11
-294.888514
 21
169.382043
 31
0.0
 11
-285.190152
 21
156.019918
 31
0.0
 11
-272.782616
 21
144.983808
 31
0.0
  0
SPLINE
  5
179
100
AcDbEntity
  8
0
 62
7
100
AcDbSpline
 70
0
 71
3
 72
10
 73
6
 74
4
 40
0.000000
 40
0.000000
 40
0.000000
 40
0.000000
 40
3.627474
 40
7.244043
 40
10.871517
 40
10.871517
 40
10.871517
 40
10.871517
 10
-272.782616
 20
144.983808
 30
0.0
 10
-273.280371
 20
143.880096
 30
0.0
 10
-274.274385
 20
141.675991
 30
0.0
 10
-275.129907
 20
138.124483
 30
0.0
 10
-275.248582
 20
135.709517
 30
0.0
 10
-275.308008
 20
134.500216
 30
0.0
 11
-272.782616
 21
144.983808
 31
0.0
 11
-274.169574
 21
141.631956
 31
0.0
 11
-275.016542
 21
138.115961
 31
0.0
 11
-275.308008
 21
134.500216
 31
0.0
  0
SPLINE
  5
17a
100
AcDbEntity
  8
0
 62
7
100
AcDbSpline
 70
0
 71
3
 72
13
 73
9
 74
7
 40
0.000000
 40
0.000000
 40
0.000000
 40
0.000000
 40
6.086129
 40
12.121891
 40
18.208020
 40
24.294149
 40
30.329911
 40
36.416040
 40
36.416040
 40
36.416040
 40
36.416040
 10
-275.308008
 20
134.500216
 30
0.0
 10
-275.153090
 20
132.465574
 30
0.0
 10
-274.844535
 20
128.413127
 30
0.0
 10
-272.405246
 20
122.743873
 30
0.0
 10
-268.693985
 20
117.865075
 30
0.0
 10
-263.815373
 20
114.153568
 30
0.0
 10
-258.146242
 20
111.713995
 30
0.0
 10
-254.093811
 20
111.405237
 30
0.0
 10
-252.059176
 20
111.250216
 30
0.0
 11
-275.308008
 21
134.500216
 31
0.0
 11
-274.511667
 21
128.466411
 31
0.0
 11
-272.202047
 21
122.890025
 31
0.0
 11
-268.498888
 21
118.060162
 31
0.0
 11
-263.669211
 21
114.356760
 31
0.0
 11
-258.092941
 21
112.046860
 31
0.0
 11
-252.059176
 21
111.250216
 31
0.0
  0
SPLINE
  5
17b
100
AcDbEntity
  8
0
 62
7
100
AcDbSpline
 70
0
 71
3
 72
10
 73
6
 74
4
 40
0.000000
 40
0.000000
 40
0.000000
 40
0.000000
 40
10.909196
 40
21.550247
 40
32.459443
 40
32.459443
 40
32.459443
 40
32.459443
 10
-252.059176
 20
111.250216
 30
0.0
 10
-248.409213
 20
111.768434
 30
0.0
 10
-241.199003
 20
112.792132
 30
0.0
 10
-232.383215
 20
120.304028
 30
0.0
 10
-230.228207
 20
127.260395
 30
0.0
 10
-229.137296
 20
130.781856
 30
0.0
 11
-252.059176
 21
111.250216
 31
0.0
 11
-241.457108
 21
113.820568
 31
0.0
 11
-233.357656
 21
120.722079
 31
0.0
 11
-229.137296
 21
130.781856
 31
0.0
  0
SPLINE
  5
17c
100
AcDbEntity
  8
0
 62
7
100
AcDbSpline
 70
0
 71
3
 72
10
 73
6
 74
4
 40
0.000000
 40
0.000000
 40
0.000000
 40
0.000000
 40
0.271828
 40
0.543656
 40
0.815485
 40
0.815485
 40
0.815485
 40
0.815485
 10
-229.137296
 20
130.781856
 30
0.0
 10
-229.046821
 20
130.776912
 30
0.0
 10
-228.865873
 20
130.767023
 30
0.0
 10
-228.594388
 20
130.753343
 30
0.0
 10
-228.413361
 20
130.744992
 30
0.0
 10
-228.322848
 20
130.740816
 30
0.0
 11
-229.137296
 21
130.781856
 31
0.0
 11
-228.865862
 21
130.767215
 31
0.0
 11
-228.594379
 21
130.753535
 31
0.0
 11
-228.322848
 21
130.740816
 31
0.0
  0
SPLINE
  5
17d
100
AcDbEntity
  8
0
 62
7
100
AcDbSpline
 70
0
 71
3
 72
10
 73
6
 74
4
 40
0.000000
 40
0.000000
 40
0.000000
 40
0.000000
 40
16.342463
 40
32.594532
 40
48.936995
 40
48.936995
 40
48.936995
 40
48.936995
 10
-228.322848
 20
130.740816
 30
0.0
 10
-222.873433
 20
131.098435
 30
0.0
 10
-212.004746
 20
131.811696
 30
0.0
 10
-196.294123
 20
137.035153
 30
0.0
 10
-187.162077
 20
142.971723
 30
0.0
 10
-182.583392
 20
145.948240
 30
0.0
 11
-228.322848
 21
130.740816
 31
0.0
 11
-212.076318
 21
132.508971
 31
0.0
 11
-196.654305
 21
137.636472
 31
0.0
 11
-182.583392
 21
145.948240
 31
0.0
  0
SPLINE
  5
17e
100
AcDbEntity
  8
0
 62
7
100
AcDbSpline
 70
0
 71
3
 72
10
 73
6
 74
4
 40
0.000000
 40
0.000000
 40
0.000000
 40
0.000000
 40
6.071293
 40
12.092580
 40
18.163873
 40
18.163873
 40
18.163873
 40
18.163873
 10
-182.583392
 20
145.948240
 30
0.0
 10
-181.037945
 20
144.629622
 30
0.0
 10
-177.959780
 20
142.003247
 30
0.0
 10
-172.240712
 20
139.634056
 30
0.0
 10
-168.207019
 20
139.314262
 30
0.0
 10
-166.181832
 20
139.153704
 30
0.0
 11
-182.583392
 21
145.948240
 31
0.0
 11
-177.763215
 21
142.256832
 31
0.0
 11
-172.200366
 21
139.952357
 31
0.0
 11
-166.181832
 21
139.153704
 31
0.0
  0
SPLINE
  5
17f
100
AcDbEntity
  8
0
 62
7
100
AcDbSpline
 70
0
 71
3
 72
13
 73
9
 74
7
 40
0.000000
 40
0.000000
 40
0.000000
 40
0.000000
 40
6.086323
 40
12.122275
 40
18.208598
 40
24.294921
 40
30.330874
 40
36.417197
 40
36.417197
 40
36.417197
 40
36.417197
 10
-166.181832
 20
139.153704
 30
0.0
 10
-164.147124
 20
139.308633
 30
0.0
 10
-160.094548
 20
139.617208
 30
0.0
 10
-154.425141
 20
142.056650
 30
0.0
 10
-149.546261
 20
145.768133
 30
0.0
 10
-145.834778
 20
150.647013
 30
0.0
 10
-143.395336
 20
156.316420
 30
0.0
 10
-143.086761
 20
160.368996
 30
0.0
 10
-142.931832
 20
162.403704
 30
0.0
 11
-166.181832
 21
139.153704
 31
0.0
 11
-160.147838
 21
139.950096
 31
0.0
 11
-154.571305
 21
142.259859
 31
0.0
 11
-149.741365
 21
145.963237
 31
0.0
 11
-146.037987
 21
150.793177
 31
0.0
 11
-143.728224
 21
156.369710
 31
0.0
 11
-142.931832
 21
162.403704
 31
0.0
  0
SPLINE
  5
180
100
AcDbEntity
  8
0
 62
7
100
AcDbSpline
 70
0
 71
3
 72
10
 73
6
 74
4
 40
0.000000
 40
0.000000
 40
0.000000
 40
0.000000
 40
8.496438
 40
16.860323
 40
25.356761
 40
25.356761
 40
25.356761
 40
25.356761
 10
-142.931832
 20
162.403704
 30
0.0
 10
-143.245925
 20
165.240883
 30
0.0
 10
-143.869210
 20
170.870977
 30
0.0
 10
-148.475154
 20
178.391503
 30
0.0
 10
-153.207051
 20
181.505280
 30
0.0
 10
-155.591600
 20
183.074408
 30
0.0
 11
-142.931832
 21
162.403704
 31
0.0
 11
-144.493566
 21
170.755377
 31
0.0
 11
-148.861864
 21
177.887877
 31
0.0
 11
-155.591600
 21
183.074408
 31
0.0
  0
SPLINE
  5
181
100
AcDbEntity
  8
0
 62
7
100
AcDbSpline
 70
0
 71
3
 72
10
 73
6
 74
4
 40
0.000000
 40
0.000000
 40
0.000000
 40
0.000000
 40
8.307957
 40
16.603836
 40
24.911793
 40
24.911793
 40
24.911793
 40
24.911793
 10
-155.591600
 20
183.074408
 30
0.0
 10
-154.785947
 20
185.725770
 30
0.0
 10
-153.175812
 20
191.024638
 30
0.0
 10
-151.805023
 20
199.247396
 30
0.0
 10
-151.609140
 20
204.782030
 30
0.0
 10
-151.511128
 20
207.551360
 30
0.0
 11
-155.591600
 21
183.074408
 31
0.0
 11
-153.349018
 21
191.073969
 31
0.0
 11
-151.984865
 21
199.256921
 31
0.0
 11
-151.511128
 21
207.551360
 31
0.0
  0
SPLINE
  5
182
100
AcDbEntity
  8
0
 62
7
100
AcDbSpline
 70
0
 71
3
 72
10
 73
6
 74
4
 40
0.000000
 40
0.000000
 40
0.000000
 40
0.000000
 40
8.298589
 40
16.585140
 40
24.883728
 40
24.883728
 40
24.883728
 40
24.883728
 10
-151.511128
 20
207.551360
 30
0.0
 10
-151.611542
 20
210.317473
 30
0.0
 10
-151.812225
 20
215.845687
 30
0.0
 10
-153.187714
 20
224.058064
 30
0.0
 10
-154.799291
 20
229.349968
 30
0.0
 10
-155.605664
 20
231.997840
 30
0.0
 11
-151.511128
 21
207.551360
 31
0.0
 11
-151.991653
 21
215.836025
 31
0.0
 11
-153.360498
 21
224.008735
 31
0.0
 11
-155.605664
 21
231.997840
 31
0.0
  0
SPLINE
  5
183
100
AcDbEntity
  8
0
 62
7
100
AcDbSpline
 70
0
 71
3
 72
10
 73
6
 74
4
 40
0.000000
 40
0.000000
 40
0.000000
 40
0.000000
 40
8.509829
 40
16.886508
 40
25.396337
 40
25.396337
 40
25.396337
 40
25.396337
 10
-155.605664
 20
231.997840
 30
0.0
 10
-153.216494
 20
233.568271
 30
0.0
 10
-148.475537
 20
236.684560
 30
0.0
 10
-143.863221
 20
244.218649
 30
0.0
 10
-143.243923
 20
249.858188
 30
0.0
 10
-142.931832
 20
252.700192
 30
0.0
 11
-155.605664
 21
231.997840
 31
0.0
 11
-148.863316
 21
237.189943
 31
0.0
 11
-144.489671
 21
244.334170
 31
0.0
 11
-142.931832
 21
252.700192
 31
0.0
  0
SPLINE
  5
184
100
AcDbEntity
  8
0
 62
7
100
AcDbSpline
 70
0
 71
3
 72
13
 73
9
 74
7
 40
0.000000
 40
0.000000
 40
0.000000
 40
0.000000
 40
6.086323
 40
12.122275
 40
18.208598
 40
24.294921
 40
30.330874
 40
36.417197
 40
36.417197
 40
36.417197
 40
36.417197
 10
-142.931832
 20
252.700192
 30
0.0
 10
-143.086761
 20
254.734900
 30
0.0
 10
-143.395336
 20
258.787476
 30
0.0
 10
-145.834778
 20
264.456883
 30
0.0
 10
-149.546261
 20
269.335763
 30
0.0
 10
-154.425141
 20
273.047246
 30
0.0
 10
-160.094548
 20
275.486688
 30
0.0
 10
-164.147124
 20
275.795263
 30
0.0
 10
-166.181832
 20
275.950192
 30
0.0
 11
-142.931832
 21
252.700192
 31
0.0
 11
-143.728224
 21
258.734186
 31
0.0
 11
-146.037987
 21
264.310719
 31
0.0
 11
-149.741365
 21
269.140659
 31
0.0
 11
-154.571305
 21
272.844037
 31
0.0
 11
-160.147838
 21
275.153800
 31
0.0
 11
-166.181832
 21
275.950192
 31
0.0
  0
SPLINE
  5
185
100
AcDbEntity
  8
0
 62
7
100
AcDbSpline
 70
0
 71
3
 72
10
 73
6
 74
4
 40
0.000000
 40
0.000000
 40
0.000000
 40
0.000000
 40
6.074120
 40
12.098164
 40
18.172284
 40
18.172284
 40
18.172284
 40
18.172284
 10
-166.181832
 20
275.950192
 30
0.0
 10
-168.207988
 20
275.789792
 30
0.0
 10
-172.243595
 20
275.470313
 30
0.0
 10
-177.965354
 20
273.099800
 30
0.0
 10
-181.044486
 20
270.471655
 30
0.0
 10
-182.590424
 20
269.152144
 30
0.0
 11
-166.181832
 21
275.950192
 31
0.0
 11
-172.203240
 21
275.151709
 31
0.0
 11
-177.768565
 21
272.846006
 31
0.0
 11
-182.590424
 21
269.152144
 31
0.0
  0
SPLINE
  5
186
100
AcDbEntity
  8
0
 62
7
100
AcDbSpline
 70
0
 71
3
 72
10
 73
6
 74
4
 40
0.000000
 40
0.000000
 40
0.000000
 40
0.000000
 40
16.340510
 40
32.590658
 40
48.931168
 40
48.931168
 40
48.931168
 40
48.931168
 10
-182.590424
 20
269.152144
 30
0.0
 10
-187.168308
 20
272.128691
 30
0.0
 10
-196.298759
 20
278.065324
 30
0.0
 10
-212.006855
 20
283.289951
 30
0.0
 10
-222.874140
 20
284.004710
 30
0.0
 10
-228.322848
 20
284.363080
 30
0.0
 11
-182.590424
 21
269.152144
 31
0.0
 11
-196.658909
 21
277.464182
 31
0.0
 11
-212.078509
 21
282.592853
 31
0.0
 11
-228.322848
 21
284.363080
 31
0.0
  0
SPLINE
  5
187
100
AcDbEntity
  8
0
 62
7
100
AcDbSpline
 70
0
 71
3
 72
10
 73
6
 74
4
 40
0.000000
 40
0.000000
 40
0.000000
 40
0.000000
 40
0.266183
 40
0.532365
 40
0.798548
 40
0.798548
 40
0.798548
 40
0.798548
 10
-228.322848
 20
284.363080
 30
0.0
 10
-228.411533
 20
284.360320
 30
0.0
 10
-228.588902
 20
284.354800
 30
0.0
 10
-228.854920
 20
284.345413
 30
0.0
 10
-229.032237
 20
284.338418
 30
0.0
 10
-229.120896
 20
284.334920
 30
0.0
 11
-228.322848
 21
284.363080
 31
0.0
 11
-228.588896
 21
284.354615
 31
0.0
 11
-228.854913
 21
284.345229
 31
0.0
 11
-229.120896
 21
284.334920
 31
0.0
  0
LINE
  5
188
100
AcDbEntity
  8
0
 62
7
100
AcDbLine
 10
-252.059176
 20
303.853728
 30
0.0
 11
-252.059176
 21
303.853728
 31
0.0
  0
SPLINE
  5
189
100
AcDbEntity
  8
0
 62
7
100
AcDbSpline
 70
0
 71
3
 72
10
 73
6
 74
4
 40
0.000000
 40
0.000000
 40
0.000000
 40
0.000000
 40
10.911011
 40
21.553753
 40
32.464764
 40
32.464764
 40
32.464764
 40
32.464764
 10
-229.120896
 20
284.334920
 30
0.0
 10
-230.214047
 20
287.856349
 30
0.0
 10
-232.373473
 20
294.812625
 30
0.0
 10
-241.195979
 20
302.319936
 30
0.0
 10
-248.408188
 20
303.338239
 30
0.0
 10
-252.059176
 20
303.853728
 30
0.0
 11
-229.120896
 21
284.334920
 31
0.0
 11
-233.347992
 21
294.393837
 31
0.0
 11
-241.453407
 21
301.290955
 31
0.0
 11
-252.059176
 21
303.853728
 31
0.0
  0
LINE
  5
18a
100
AcDbEntity
  8
0
 62
7
100
AcDbLine
 10
-409.080240
 20
407.313367
 30
0.0
 11
-409.080240
 21
407.313367
 31
0.0
  0
SPLINE
  5
18b
100
AcDbEntity
  8
0
 62
7
100
AcDbSpline
 70
0
 71
3
 72
61
 73
57
 74
55
 40
0.000000
 40
0.000000
 40
0.000000
 40
0.000000
 40
0.734160
 40
1.448892
 40
2.183052
 40
2.776473
 40
4.337340
 40
6.537507
 40
9.049993
 40
11.501173
 40
13.501938
 40
17.427710
 40
21.381096
 40
25.354963
 40
29.340069
 40
33.330500
 40
37.321104
 40
39.383786
 40
41.915497
 40
44.513600
 40
46.791632
 40
48.409365
 40
49.024799
 40
49.554900
 40
50.077234
 40
50.607335
 40
51.137436
 40
51.659770
 40
52.189871
 40
52.719972
 40
53.242306
 40
53.772407
 40
54.412049
 40
56.092541
 40
58.457134
 40
61.151210
 40
63.875115
 40
66.369664
 40
70.397335
 40
74.423099
 40
78.441349
 40
82.446831
 40
86.435449
 40
90.400656
 40
92.848184
 40
95.501643
 40
98.116867
 40
100.408466
 40
102.035569
 40
102.654521
 40
103.079893
 40
103.501160
 40
103.926532
 40
104.351905
 40
104.773172
 40
105.198544
 40
105.198544
 40
105.198544
 40
105.198544
 10
-409.080240
 20
407.313367
 30
0.0
 10
-409.301491
 20
407.427725
 30
0.0
 10
-409.738138
 20
407.653416
 30
0.0
 10
-410.509284
 20
407.559540
 30
0.0
 10
-411.063180
 20
407.134769
 30
0.0
 10
-411.689143
 20
406.405064
 30
0.0
 10
-412.710850
 20
405.371314
 30
0.0
 10
-414.177451
 20
403.881414
 30
0.0
 10
-415.928023
 20
402.256471
 30
0.0
 10
-417.686379
 20
400.736970
 30
0.0
 10
-419.987817
 20
399.146023
 30
0.0
 10
-422.907185
 20
397.612297
 30
0.0
 10
-426.353412
 20
395.682045
 30
0.0
 10
-429.860660
 20
393.819373
 30
0.0
 10
-433.387492
 20
391.967426
 30
0.0
 10
-436.958458
 20
390.192429
 30
0.0
 10
-439.920151
 20
388.622534
 30
0.0
 10
-442.591857
 20
387.583512
 30
0.0
 10
-444.906140
 20
386.948503
 30
0.0
 10
-447.308837
 20
386.376716
 30
0.0
 10
-449.432754
 20
385.962290
 30
0.0
 10
-450.911388
 20
385.677207
 30
0.0
 10
-451.821952
 20
385.553202
 30
0.0
 10
-452.367241
 20
385.407331
 30
0.0
 10
-452.789949
 20
385.068418
 30
0.0
 10
-453.073722
 20
384.612189
 30
0.0
 10
-453.180057
 20
384.083514
 30
0.0
 10
-453.097643
 20
383.551778
 30
0.0
 10
-452.836269
 20
383.080135
 30
0.0
 10
-452.427681
 20
382.731051
 30
0.0
 10
-451.922299
 20
382.536593
 30
0.0
 10
-451.349909
 20
382.560601
 30
0.0
 10
-450.419104
 20
382.742576
 30
0.0
 10
-448.877460
 20
382.999613
 30
0.0
 10
-446.676726
 20
383.450336
 30
0.0
 10
-444.148142
 20
384.029378
 30
0.0
 10
-441.600462
 20
384.725514
 30
0.0
 10
-438.734933
 20
385.876272
 30
0.0
 10
-435.615569
 20
387.503217
 30
0.0
 10
-432.015849
 20
389.300490
 30
0.0
 10
-428.458317
 20
391.165483
 30
0.0
 10
-424.923196
 20
393.046421
 30
0.0
 10
-421.442168
 20
394.988170
 30
0.0
 10
-418.382768
 20
396.624133
 30
0.0
 10
-415.871458
 20
398.316542
 30
0.0
 10
-413.924040
 20
400.002644
 30
0.0
 10
-412.093369
 20
401.734240
 30
0.0
 10
-410.549001
 20
403.270349
 30
0.0
 10
-409.515136
 20
404.375540
 30
0.0
 10
-408.893214
 20
405.011500
 30
0.0
 10
-408.595183
 20
405.404649
 30
0.0
 10
-408.460496
 20
405.814322
 30
0.0
 10
-408.440425
 20
406.243291
 30
0.0
 10
-408.544111
 20
406.659400
 30
0.0
 10
-408.754892
 20
407.036981
 30
0.0
 10
-408.971441
 20
407.220941
 30
0.0
 10
-409.080240
 20
407.313367
 30
0.0
 11
-409.080240
 21
407.313367
 31
0.0
 11
-409.763291
 21
407.582499
 31
0.0
 11
-410.473499
 21
407.502207
 31
0.0
 11
-411.079224
 21
407.087372
 31
0.0
 11
-411.482415
 21
406.651958
 31
0.0
 11
-412.560292
 21
405.523026
 31
0.0
 11
-414.115312
 21
403.966541
 31
0.0
 11
-415.953323
 21
402.253560
 31
0.0
 11
-417.830104
 21
400.676862
 31
0.0
 11
-419.473032
 21
399.535001
 31
0.0
 11
-422.889757
 21
397.601694
 31
0.0
 11
-426.354701
 21
395.698164
 31
0.0
 11
-429.858792
 21
393.823873
 31
0.0
 11
-433.392442
 21
391.981488
 31
0.0
 11
-436.951339
 21
390.176551
 31
0.0
 11
-440.531608
 21
388.413998
 31
0.0
 11
-442.455669
 21
387.670596
 31
0.0
 11
-444.888003
 21
386.968235
 31
0.0
 11
-447.416416
 21
386.370518
 31
0.0
 11
-449.649653
 21
385.920982
 31
0.0
 11
-451.241968
 21
385.635335
 31
0.0
 11
-451.849216
 21
385.535293
 31
0.0
 11
-452.353805
 21
385.372822
 31
0.0
 11
-452.765115
 21
385.050864
 31
0.0
 11
-453.044004
 21
384.600056
 31
0.0
 11
-453.148733
 21
384.080403
 31
0.0
 11
-453.068731
 21
383.564232
 31
0.0
 11
-452.811613
 21
383.100662
 31
0.0
 11
-452.409345
 21
382.755427
 31
0.0
 11
-451.919873
 21
382.573081
 31
0.0
 11
-451.389776
 21
382.570976
 31
0.0
 11
-450.758573
 21
382.674539
 31
0.0
 11
-449.104342
 21
382.970466
 31
0.0
 11
-446.786152
 21
383.436613
 31
0.0
 11
-444.161748
 21
384.045346
 31
0.0
 11
-441.543766
 21
384.797559
 31
0.0
 11
-439.223608
 21
385.713878
 31
0.0
 11
-435.610041
 21
387.492716
 31
0.0
 11
-432.019556
 21
389.313484
 31
0.0
 11
-428.456464
 21
391.171094
 31
0.0
 11
-424.924691
 21
393.060661
 31
0.0
 11
-421.429229
 21
394.981811
 31
0.0
 11
-417.978384
 21
396.934895
 31
0.0
 11
-415.957409
 21
398.315494
 31
0.0
 11
-413.928071
 21
400.025063
 31
0.0
 11
-412.023064
 21
401.816808
 31
0.0
 11
-410.403357
 21
403.437911
 31
0.0
 11
-409.279587
 21
404.614602
 31
0.0
 11
-408.858952
 21
405.068660
 31
0.0
 11
-408.615178
 21
405.417252
 31
0.0
 11
-408.479818
 21
405.816179
 31
0.0
 11
-408.461118
 21
406.241140
 31
0.0
 11
-408.562439
 21
406.654270
 31
0.0
 11
-408.773091
 21
407.019087
 31
0.0
 11
-409.080240
 21
407.313367
 31
0.0
  0
LINE
  5
18c
100
AcDbEntity
  8
0
 62
7
100
AcDbLine
 10
-250.346968
 20
473.004347
 30
0.0
 11
-250.346968
 21
473.004347
 31
0.0
  0
SPLINE
  5
18d
100
AcDbEntity
  8
0
 62
7
100
AcDbSpline
 70
0
 71
3
 72
61
 73
57
 74
55
 40
0.000000
 40
0.000000
 40
0.000000
 40
0.000000
 40
0.734160
 40
1.448892
 40
2.183052
 40
2.776473
 40
4.337343
 40
6.537512
 40
9.049998
 40
11.501178
 40
13.501943
 40
17.427715
 40
21.381102
 40
25.354972
 40
29.340074
 40
33.330502
 40
37.321106
 40
39.383788
 40
41.915500
 40
44.513604
 40
46.791636
 40
48.409370
 40
49.024804
 40
49.554888
 40
50.077205
 40
50.607289
 40
51.137373
 40
51.659691
 40
52.189775
 40
52.719859
 40
53.242176
 40
53.772260
 40
54.411903
 40
56.092396
 40
58.456991
 40
61.151063
 40
63.874966
 40
66.369512
 40
70.397187
 40
74.422954
 40
78.441205
 40
82.446687
 40
86.435306
 40
90.400513
 40
92.848037
 40
95.501497
 40
98.116724
 40
100.408319
 40
102.035422
 40
102.654375
 40
103.079747
 40
103.501015
 40
103.926388
 40
104.351760
 40
104.773028
 40
105.198401
 40
105.198401
 40
105.198401
 40
105.198401
 10
-250.346968
 20
473.004347
 30
0.0
 10
-250.458746
 20
473.226913
 30
0.0
 10
-250.679343
 20
473.666155
 30
0.0
 10
-251.358391
 20
474.043477
 30
0.0
 10
-252.056177
 20
474.025401
 30
0.0
 10
-252.991503
 20
473.802991
 30
0.0
 10
-254.425707
 20
473.567215
 30
0.0
 10
-256.487955
 20
473.223908
 30
0.0
 10
-258.859315
 20
472.938262
 30
0.0
 10
-261.174996
 20
472.742496
 30
0.0
 10
-263.972033
 20
472.808138
 30
0.0
 10
-267.235353
 20
473.283295
 30
0.0
 10
-271.157984
 20
473.747329
 30
0.0
 10
-275.090258
 20
474.301905
 30
0.0
 10
-279.032071
 20
474.876667
 30
0.0
 10
-282.964358
 20
475.539624
 30
0.0
 10
-286.283179
 20
476.010390
 30
0.0
 10
-289.055356
 20
476.740195
 30
0.0
 10
-291.300899
 20
477.586765
 30
0.0
 10
-293.580812
 20
478.536446
 30
0.0
 10
-295.542688
 20
479.449582
 30
0.0
 10
-296.906501
 20
480.088054
 30
0.0
 10
-297.716040
 20
480.522960
 30
0.0
 10
-298.242931
 20
480.725423
 30
0.0
 10
-298.784097
 20
480.699683
 30
0.0
 10
-299.281818
 20
480.497379
 30
0.0
 10
-299.678575
 20
480.132181
 30
0.0
 10
-299.924439
 20
479.653572
 30
0.0
 10
-299.990211
 20
479.118392
 30
0.0
 10
-299.864860
 20
478.595829
 30
0.0
 10
-299.570321
 20
478.141460
 30
0.0
 10
-299.093164
 20
477.824416
 30
0.0
 10
-298.233161
 20
477.424541
 30
0.0
 10
-296.834867
 20
476.726323
 30
0.0
 10
-294.789504
 20
475.797413
 30
0.0
 10
-292.403486
 20
474.779602
 30
0.0
 10
-289.933194
 20
473.845300
 30
0.0
 10
-286.938535
 20
473.091968
 30
0.0
 10
-283.458621
 20
472.574676
 30
0.0
 10
-279.489973
 20
471.912838
 30
0.0
 10
-275.515653
 20
471.330582
 30
0.0
 10
-271.550091
 20
470.774404
 30
0.0
 10
-267.592549
 20
470.299214
 30
0.0
 10
-264.155848
 20
469.824468
 30
0.0
 10
-261.129383
 20
469.717542
 30
0.0
 10
-258.562822
 20
469.936963
 30
0.0
 10
-256.063972
 20
470.261812
 30
0.0
 10
-253.911650
 20
470.596795
 30
0.0
 10
-252.425622
 20
470.883222
 30
0.0
 10
-251.548668
 20
471.032167
 30
0.0
 10
-251.076468
 20
471.175052
 30
0.0
 10
-250.726704
 20
471.427317
 30
0.0
 10
-250.458323
 20
471.762562
 30
0.0
 10
-250.297623
 20
472.160146
 30
0.0
 10
-250.246212
 20
472.589511
 30
0.0
 10
-250.313274
 20
472.865622
 30
0.0
 10
-250.346968
 20
473.004347
 30
0.0
 11
-250.346968
 21
473.004347
 31
0.0
 11
-250.741376
 21
473.623567
 31
0.0
 11
-251.363140
 21
473.976059
 31
0.0
 11
-252.097016
 21
473.996487
 31
0.0
 11
-252.679135
 21
473.881220
 31
0.0
 11
-254.214729
 21
473.601456
 31
0.0
 11
-256.387648
 21
473.256252
 31
0.0
 11
-258.881494
 21
472.950778
 31
0.0
 11
-261.326602
 21
472.778346
 31
0.0
 11
-263.326928
 21
472.820247
 31
0.0
 11
-267.227486
 21
473.264472
 31
0.0
 11
-271.149551
 21
473.761128
 31
0.0
 11
-275.086104
 21
474.304447
 31
0.0
 11
-279.027810
 21
474.890953
 31
0.0
 11
-282.967931
 21
475.522594
 31
0.0
 11
-286.900432
 21
476.201087
 31
0.0
 11
-288.893991
 21
476.730598
 31
0.0
 11
-291.274628
 21
477.592067
 31
0.0
 11
-293.671488
 21
478.594666
 31
0.0
 11
-295.742445
 21
479.543649
 31
0.0
 11
-297.198555
 21
480.248495
 31
0.0
 11
-297.748632
 21
480.524491
 31
0.0
 11
-298.252342
 21
480.689611
 31
0.0
 11
-298.774324
 21
480.670886
 31
0.0
 11
-299.264908
 21
480.470097
 31
0.0
 11
-299.655063
 21
480.111254
 31
0.0
 11
-299.893731
 21
479.646654
 31
0.0
 11
-299.958201
 21
479.120505
 31
0.0
 11
-299.835699
 21
478.604770
 31
0.0
 11
-299.546912
 21
478.169549
 31
0.0
 11
-299.119320
 21
477.856254
 31
0.0
 11
-298.547793
 21
477.569026
 31
0.0
 11
-297.035549
 21
476.836105
 31
0.0
 11
-294.886096
 21
475.850627
 31
0.0
 11
-292.405109
 21
474.800519
 31
0.0
 11
-289.844979
 21
473.870261
 31
0.0
 11
-287.429336
 21
473.247825
 31
0.0
 11
-283.460320
 21
472.562932
 31
0.0
 11
-279.485334
 21
471.925529
 31
0.0
 11
-275.510856
 21
471.334033
 31
0.0
 11
-271.542931
 21
470.786802
 31
0.0
 11
-267.585818
 21
470.286465
 31
0.0
 11
-263.646032
 21
469.838188
 31
0.0
 11
-261.199537
 21
469.767216
 31
0.0
 11
-258.552906
 21
469.957470
 31
0.0
 11
-255.958560
 21
470.287287
 31
0.0
 11
-253.695333
 21
470.646748
 31
0.0
 11
-252.094542
 21
470.938174
 31
0.0
 11
-251.487352
 21
471.058271
 31
0.0
 11
-251.085237
 21
471.197000
 31
0.0
 11
-250.741244
 21
471.440177
 31
0.0
 11
-250.476328
 21
471.772985
 31
0.0
 11
-250.315467
 21
472.166769
 31
0.0
 11
-250.271453
 21
472.585731
 31
0.0
 11
-250.346968
 21
473.004347
 31
0.0
  0
LINE
  5
18e
100
AcDbEntity
  8
0
 62
7
100
AcDbLine
 10
-83.316872
 20
432.848398
 30
0.0
 11
-83.316872
 21
432.848398
 31
0.0
  0
SPLINE
  5
18f
100
AcDbEntity
  8
0
 62
7
100
AcDbSpline
 70
0
 71
3
 72
61
 73
57
 74
55
 40
0.000000
 40
0.000000
 40
0.000000
 40
0.000000
 40
0.734161
 40
1.448893
 40
2.183054
 40
2.776474
 40
4.337341
 40
6.537509
 40
9.049997
 40
11.501177
 40
13.501937
 40
17.427713
 40
21.381101
 40
25.354968
 40
29.340072
 40
33.330502
 40
37.321103
 40
39.383786
 40
41.915498
 40
44.513598
 40
46.791632
 40
48.409367
 40
49.024801
 40
49.554900
 40
50.077233
 40
50.607332
 40
51.137431
 40
51.659764
 40
52.189863
 40
52.719962
 40
53.242295
 40
53.772394
 40
54.412036
 40
56.092526
 40
58.457117
 40
61.151192
 40
63.875096
 40
66.369642
 40
70.397315
 40
74.423081
 40
78.441332
 40
82.446814
 40
86.435432
 40
90.400639
 40
92.848168
 40
95.501628
 40
98.116851
 40
100.408448
 40
102.035551
 40
102.654503
 40
103.079876
 40
103.501144
 40
103.926516
 40
104.351889
 40
104.773157
 40
105.198530
 40
105.198530
 40
105.198530
 40
105.198530
 10
-83.316872
 20
432.848398
 30
0.0
 10
-83.276481
 20
433.094159
 30
0.0
 10
-83.196769
 20
433.579177
 30
0.0
 10
-83.524347
 20
434.283572
 30
0.0
 10
-84.099493
 20
434.679095
 30
0.0
 10
-84.986915
 20
435.048933
 30
0.0
 10
-86.285794
 20
435.701189
 30
0.0
 10
-88.155979
 20
436.635607
 30
0.0
 10
-90.242350
 20
437.798363
 30
0.0
 10
-92.230842
 20
439.001108
 30
0.0
 10
-94.455108
 20
440.698271
 30
0.0
 10
-96.815899
 20
443.000812
 30
0.0
 10
-99.716624
 20
445.681888
 30
0.0
 10
-102.571928
 20
448.441883
 30
0.0
 10
-105.423086
 20
451.223814
 30
0.0
 10
-108.214697
 20
454.071498
 30
0.0
 10
-110.622970
 20
456.403110
 30
0.0
 10
-112.436739
 20
458.622980
 30
0.0
 10
-113.755821
 20
460.627764
 30
0.0
 10
-115.042093
 20
462.736176
 30
0.0
 10
-116.092563
 20
464.628075
 30
0.0
 10
-116.820619
 20
465.946245
 30
0.0
 10
-117.219933
 20
466.773924
 30
0.0
 10
-117.527172
 20
467.247444
 30
0.0
 10
-117.980120
 20
467.544730
 30
0.0
 10
-118.501710
 20
467.673630
 30
0.0
 10
-119.037367
 20
467.611389
 30
0.0
 10
-119.517608
 20
467.368694
 30
0.0
 10
-119.885397
 20
466.974367
 30
0.0
 10
-120.091135
 20
466.477906
 30
0.0
 10
-120.119904
 20
465.937171
 30
0.0
 10
-119.920196
 20
465.400214
 30
0.0
 10
-119.459493
 20
464.571201
 30
0.0
 10
-118.738644
 20
463.184440
 30
0.0
 10
-117.629918
 20
461.230699
 30
0.0
 10
-116.297841
 20
459.004808
 30
0.0
 10
-114.848500
 20
456.796941
 30
0.0
 10
-112.868569
 20
454.427263
 30
0.0
 10
-110.357316
 20
451.963324
 30
0.0
 10
-107.535631
 20
449.095175
 30
0.0
 10
-104.662582
 20
446.288072
 30
0.0
 10
-101.781287
 20
443.507218
 30
0.0
 10
-98.858878
 20
440.796598
 30
0.0
 10
-96.357578
 20
438.392475
 30
0.0
 10
-93.971962
 20
436.527060
 30
0.0
 10
-91.766598
 20
435.195988
 30
0.0
 10
-89.554044
 20
433.990011
 30
0.0
 10
-87.615883
 20
432.995914
 30
0.0
 10
-86.245303
 20
432.354172
 30
0.0
 10
-85.448285
 20
431.959209
 30
0.0
 10
-84.982282
 20
431.797253
 30
0.0
 10
-84.551039
 20
431.795754
 30
0.0
 10
-84.136862
 20
431.909224
 30
0.0
 10
-83.773159
 20
432.136420
 30
0.0
 10
-83.479192
 20
432.453564
 30
0.0
 10
-83.371153
 20
432.716362
 30
0.0
 10
-83.316872
 20
432.848398
 30
0.0
 11
-83.316872
 21
432.848398
 31
0.0
 11
-83.271987
 21
433.581185
 31
0.0
 11
-83.567816
 21
434.231821
 31
0.0
 11
-84.149528
 21
434.679709
 31
0.0
 11
-84.688223
 21
434.928617
 31
0.0
 11
-86.094982
 21
435.604881
 31
0.0
 11
-88.055816
 21
436.602814
 31
0.0
 11
-90.252937
 21
437.821527
 31
0.0
 11
-92.332423
 21
439.119223
 31
0.0
 11
-93.926088
 21
440.328882
 31
0.0
 11
-96.820599
 21
442.980960
 31
0.0
 11
-99.701692
 21
445.688096
 31
0.0
 11
-102.567072
 21
448.441497
 31
0.0
 11
-105.411242
 21
451.232867
 31
0.0
 11
-108.227598
 21
454.059821
 31
0.0
 11
-111.010248
 21
456.920198
 31
0.0
 11
-112.311832
 21
458.520367
 31
0.0
 11
-113.731450
 21
460.616614
 31
0.0
 11
-115.081232
 21
462.836571
 31
0.0
 11
-116.198876
 21
464.821594
 31
0.0
 11
-116.962596
 21
466.247706
 31
0.0
 11
-117.245392
 21
466.794319
 31
0.0
 11
-117.555839
 21
467.224002
 31
0.0
 11
-117.989142
 21
467.515687
 31
0.0
 11
-118.504066
 21
467.641617
 31
0.0
 11
-119.030646
 21
467.580637
 31
0.0
 11
-119.496830
 21
467.345046
 31
0.0
 11
-119.858256
 21
466.957261
 31
0.0
 11
-120.062286
 21
466.468000
 31
0.0
 11
-120.084453
 21
465.946138
 31
0.0
 11
-119.922648
 21
465.441337
 31
0.0
 11
-119.629102
 21
464.873030
 31
0.0
 11
-118.836474
 21
463.391211
 31
0.0
 11
-117.676784
 21
461.330529
 31
0.0
 11
-116.286860
 21
459.022684
 31
0.0
 11
-114.762460
 21
456.765282
 31
0.0
 11
-113.174024
 21
454.841840
 31
0.0
 11
-110.365594
 21
451.954822
 31
0.0
 11
-107.524419
 21
449.102715
 31
0.0
 11
-104.656672
 21
446.288045
 31
0.0
 11
-101.768207
 21
443.513040
 31
0.0
 11
-98.860926
 21
440.782327
 31
0.0
 11
-95.937064
 21
438.103914
 31
0.0
 11
-93.999519
 21
436.608481
 31
0.0
 11
-91.746521
 21
435.206750
 31
0.0
 11
-89.453792
 21
433.948662
 31
0.0
 11
-87.411516
 21
432.909178
 31
0.0
 11
-85.945153
 21
432.204024
 31
0.0
 11
-85.383336
 21
431.944287
 31
0.0
 11
-84.976475
 21
431.820165
 31
0.0
 11
-84.555243
 21
431.814705
 31
0.0
 11
-84.145302
 21
431.928240
 31
0.0
 11
-83.783702
 21
432.152266
 31
0.0
 11
-83.501835
 21
432.465343
 31
0.0
 11
-83.316872
 21
432.848398
 31
0.0
  0
LINE
  5
190
100
AcDbEntity
  8
0
 62
7
100
AcDbLine
 10
28.210243
 20
302.183720
 30
0.0
 11
28.210243
 21
302.183720
 31
0.0
  0
SPLINE
  5
191
100
AcDbEntity
  8
0
 62
7
100
AcDbSpline
 70
0
 71
3
 72
61
 73
57
 74
55
 40
0.000000
 40
0.000000
 40
0.000000
 40
0.000000
 40
0.734160
 40
1.448893
 40
2.183053
 40
2.776474
 40
4.337341
 40
6.537506
 40
9.049996
 40
11.501176
 40
13.501934
 40
17.427711
 40
21.381098
 40
25.354967
 40
29.340070
 40
33.330499
 40
37.321097
 40
39.383785
 40
41.915497
 40
44.513598
 40
46.791632
 40
48.409366
 40
49.024800
 40
49.554897
 40
50.077228
 40
50.607326
 40
51.137423
 40
51.659754
 40
52.189851
 40
52.719949
 40
53.242280
 40
53.772377
 40
54.412019
 40
56.092510
 40
58.457102
 40
61.151178
 40
63.875084
 40
66.369631
 40
70.397303
 40
74.423067
 40
78.441318
 40
82.446797
 40
86.435416
 40
90.400626
 40
92.848152
 40
95.501610
 40
98.116837
 40
100.408434
 40
102.035538
 40
102.654491
 40
103.079863
 40
103.501130
 40
103.926502
 40
104.351875
 40
104.773141
 40
105.198514
 40
105.198514
 40
105.198514
 40
105.198514
 10
28.210243
 20
302.183720
 30
0.0
 10
28.387375
 20
302.358804
 30
0.0
 10
28.736951
 20
302.704338
 30
0.0
 10
28.885967
 20
303.466750
 30
0.0
 10
28.653147
 20
304.124799
 30
0.0
 10
28.152592
 20
304.945617
 30
0.0
 10
27.485162
 20
306.236764
 30
0.0
 10
26.521386
 20
308.091989
 30
0.0
 10
25.516933
 20
310.259018
 30
0.0
 10
24.615164
 20
312.400865
 30
0.0
 10
23.813260
 20
315.081289
 30
0.0
 10
23.256740
 20
318.331722
 30
0.0
 10
22.485902
 20
322.205761
 30
0.0
 10
21.798196
 20
326.116950
 30
0.0
 10
21.126741
 20
330.043449
 30
0.0
 10
20.542106
 20
333.988139
 30
0.0
 10
19.964259
 20
337.290000
 30
0.0
 10
19.801695
 20
340.152020
 30
0.0
 10
19.912919
 20
342.549264
 30
0.0
 10
20.111591
 20
345.011057
 30
0.0
 10
20.373776
 20
347.159086
 30
0.0
 10
20.559567
 20
348.653448
 30
0.0
 10
20.723013
 20
349.557764
 30
0.0
 10
20.752777
 20
350.121440
 30
0.0
 10
20.561074
 20
350.628184
 30
0.0
 10
20.214865
 20
351.039046
 30
0.0
 10
19.744926
 20
351.303542
 30
0.0
 10
19.213751
 20
351.389476
 30
0.0
 10
18.684427
 20
351.286641
 30
0.0
 10
18.226170
 20
351.005928
 30
0.0
 10
17.885058
 20
350.585377
 30
0.0
 10
17.731007
 20
350.033586
 30
0.0
 10
17.616444
 20
349.092106
 30
0.0
 10
17.384505
 20
347.546488
 30
0.0
 10
17.133104
 20
345.314184
 30
0.0
 10
16.902432
 20
342.730424
 30
0.0
 10
16.777220
 20
340.092319
 30
0.0
 10
16.986159
 20
337.011436
 30
0.0
 10
17.569538
 20
333.541990
 30
0.0
 10
18.166473
 20
329.563065
 30
0.0
 10
18.840847
 20
325.603337
 30
0.0
 10
19.537315
 20
321.659996
 30
0.0
 10
20.308331
 20
317.749308
 30
0.0
 10
20.918818
 20
314.334105
 30
0.0
 10
21.752356
 20
311.422723
 30
0.0
 10
22.754149
 20
309.049585
 30
0.0
 10
23.835285
 20
306.773419
 30
0.0
 10
24.818977
 20
304.829955
 30
0.0
 10
25.550594
 20
303.505168
 30
0.0
 10
25.963243
 20
302.717160
 30
0.0
 10
26.245054
 20
302.312227
 30
0.0
 10
26.593055
 20
302.057537
 30
0.0
 10
26.994827
 20
301.905890
 30
0.0
 10
27.422611
 20
301.875917
 30
0.0
 10
27.846847
 20
301.959703
 30
0.0
 10
28.088720
 20
302.108807
 30
0.0
 10
28.210243
 20
302.183720
 30
0.0
 11
28.210243
 21
302.183720
 31
0.0
 11
28.677278
 21
302.750174
 31
0.0
 11
28.820381
 21
303.450434
 31
0.0
 11
28.613029
 21
304.154704
 31
0.0
 11
28.323519
 21
304.672712
 31
0.0
 11
27.582923
 21
306.046693
 31
0.0
 11
26.583146
 21
308.006584
 31
0.0
 11
25.521982
 21
310.283981
 31
0.0
 11
24.602409
 21
312.556131
 31
0.0
 11
24.024126
 21
314.471496
 31
0.0
 11
23.241269
 21
318.318425
 31
0.0
 11
22.501632
 21
322.202007
 31
0.0
 11
21.801898
 21
326.113784
 31
0.0
 11
21.141644
 21
330.043812
 31
0.0
 11
20.524805
 21
333.986276
 31
0.0
 11
19.954882
 21
337.935968
 31
0.0
 11
19.842432
 21
339.995588
 31
0.0
 11
19.926080
 21
342.525918
 31
0.0
 11
20.138939
 21
345.115285
 31
0.0
 11
20.401514
 21
347.378135
 31
0.0
 11
20.621900
 21
348.980787
 31
0.0
 11
20.714404
 21
349.589230
 31
0.0
 11
20.715806
 21
350.119325
 31
0.0
 11
20.536704
 21
350.609990
 31
0.0
 11
20.194142
 21
351.014532
 31
0.0
 11
19.732288
 21
351.274713
 31
0.0
 11
19.216661
 21
351.358132
 31
0.0
 11
18.696329
 21
351.256849
 31
0.0
 11
18.243685
 21
350.980957
 31
0.0
 11
17.919009
 21
350.571794
 31
0.0
 11
17.753195
 21
350.068297
 31
0.0
 11
17.656637
 21
349.435985
 31
0.0
 11
17.426895
 21
347.771272
 31
0.0
 11
17.153867
 21
345.422495
 31
0.0
 11
16.921823
 21
342.738431
 31
0.0
 11
16.828219
 21
340.016134
 31
0.0
 11
16.982722
 21
337.526376
 31
0.0
 11
17.557844
 21
333.539977
 31
0.0
 11
18.179976
 21
329.562575
 31
0.0
 11
18.845611
 21
325.599840
 31
0.0
 11
19.551319
 21
321.657019
 31
0.0
 11
20.298285
 21
317.738968
 31
0.0
 11
21.089409
 21
313.853480
 31
0.0
 11
21.777920
 21
311.504792
 31
0.0
 11
22.776716
 21
309.046490
 31
0.0
 11
23.892087
 21
306.681040
 31
0.0
 11
24.933331
 21
304.639661
 31
0.0
 11
25.705167
 21
303.207272
 31
0.0
 11
26.007018
 21
302.666912
 31
0.0
 11
26.263218
 21
302.327349
 31
0.0
 11
26.600793
 21
302.075339
 31
0.0
 11
26.999176
 21
301.926234
 31
0.0
 11
27.423395
 21
301.894933
 31
0.0
 11
27.835452
 21
301.982541
 31
0.0
 11
28.210243
 21
302.183720
 31
0.0
  0
ENDSEC
  0
SECTION
  2
OBJECTS
  0
DICTIONARY
  5
C
330
0
100
AcDbDictionary
  3
ACAD_GROUP
350
D
  3
ACAD_MLINESTYLE
350
17
  0
DICTIONARY
  5
D
330
C
100
AcDbDictionary
  0
DICTIONARY
  5
1A
330
C
100
AcDbDictionary
  0
DICTIONARY
  5
17
330
C
100
AcDbDictionary
  3
STANDARD
350
18
  0
DICTIONARY
  5
19
330
C
100
AcDbDictionary
  0
ENDSEC
  0
EOF
