  0
SECTION
  2
HEADER
  9
$ACADVER
  1
AC1014
  9
$HANDSEED
  5
FFFF
  9
$MEASUREMENT
 70
     1
  0
ENDSEC
  0
SECTION
  2
TABLES
  0
TABLE
  2
VPORT
  5
8
330
0
100
AcDbSymbolTable
 70
     4
  0
VPORT
  5
2E
330
8
100
AcDbSymbolTableRecord
100
AcDbViewportTableRecord
  2
*ACTIVE
 70
     0
 10
0.0
 20
0.0
 11
1.0
 21
1.0
 12
210.0
 22
148.5
 13
0.0
 23
0.0
 14
10.0
 24
10.0
 15
10.0
 25
10.0
 16
0.0
 26
0.0
 36
1.0
 17
0.0
 27
0.0
 37
0.0
 40
341.0
 41
1.24
 42
50.0
 43
0.0
 44
0.0
 50
0.0
 51
0.0
 71
     0
 72
   100
 73
     1
 74
     3
 75
     0
 76
     0
 77
     0
 78
     0
  0
ENDTAB
  0
TABLE
  2
LTYPE
  5
5
330
0
100
AcDbSymbolTable
 70
     1
  0
LTYPE
  5
14
330
5
100
AcDbSymbolTableRecord
100
AcDbLinetypeTableRecord
  2
BYBLOCK
 70
     0
  3

 72
    65
 73
     0
 40
0.0
  0
LTYPE
  5
15
330
5
100
AcDbSymbolTableRecord
100
AcDbLinetypeTableRecord
  2
BYLAYER
 70
     0
  3

 72
    65
 73
     0
 40
0.0
  0
LTYPE
  5
16
330
5
100
AcDbSymbolTableRecord
100
AcDbLinetypeTableRecord
  2
CONTINUOUS
 70
     0
  3
Solid line
 72
    65
 73
     0
 40
0.0
  0
ENDTAB
  0
TABLE
  2
LAYER
  5
2
100
AcDbSymbolTable
 70
1
  0
LAYER
  5
50
100
AcDbSymbolTableRecord
100
AcDbLayerTableRecord
  2
0
 70
0
  6
CONTINUOUS
  0
ENDTAB
  0
TABLE
  2
STYLE
  5
3
330
0
100
AcDbSymbolTable
 70
     1
  0
STYLE
  5
11
330
3
100
AcDbSymbolTableRecord
100
AcDbTextStyleTableRecord
  2
STANDARD
 70
     0
 40
0.0
 41
1.0
 50
0.0
 71
     0
 42
2.5
  3
txt
  4

  0
ENDTAB
  0
TABLE
  2
VIEW
  5
6
330
0
100
AcDbSymbolTable
 70
     0
  0
ENDTAB
  0
TABLE
  2
UCS
  5
7
330
0
100
AcDbSymbolTable
 70
     0
  0
ENDTAB
  0
TABLE
  2
APPID
  5
9
330
0
100
AcDbSymbolTable
 70
     2
  0
APPID
  5
12
330
9
100
AcDbSymbolTableRecord
100
AcDbRegAppTableRecord
  2
ACAD
 70
     0
  0
ENDTAB
  0
TABLE
  2
DIMSTYLE
  5
A
330
0
100
AcDbSymbolTable
 70
     1
  0
DIMSTYLE
105
27
330
A
100
AcDbSymbolTableRecord
100
AcDbDimStyleTableRecord
  2
ISO-25
 70
     0
  3

  4

  5

  6

  7

 40
1.0
 41
2.5
 42
0.625
 43
3.75
 44
1.25
 45
0.0
 46
0.0
 47
0.0
 48
0.0
140
2.5
141
2.5
142
0.0
143
0.03937007874016
144
1.0
145
0.0
146
1.0
147
0.625
 71
     0
 72
     0
 73
     0
 74
     0
 75
     0
 76
     0
 77
     1
 78
     8
170
     0
171
     3
172
     1
173
     0
174
     0
175
     0
176
     0
177
     0
178
     0
270
     2
271
     2
272
     2
273
     2
274
     3
340
11
275
     0
280
     0
281
     0
282
     0
283
     0
284
     8
285
     0
286
     0
287
     3
288
     0
  0
ENDTAB
  0
TABLE
  2
BLOCK_RECORD
  5
1
330
0
100
AcDbSymbolTable
 70
     1
  0
BLOCK_RECORD
  5
1F
330
1
100
AcDbSymbolTableRecord
100
AcDbBlockTableRecord
  2
*MODEL_SPACE
  0
BLOCK_RECORD
  5
1B
330
1
100
AcDbSymbolTableRecord
100
AcDbBlockTableRecord
  2
*PAPER_SPACE
  0
ENDTAB
  0
ENDSEC
  0
SECTION
  2
BLOCKS
  0
BLOCK
  5
20
330
1F
100
AcDbEntity
  8
0
100
AcDbBlockBegin
  2
*MODEL_SPACE
 70
     0
 10
0.0
 20
0.0
 30
0.0
  3
*MODEL_SPACE
  1

  0
ENDBLK
  5
21
330
1F
100
AcDbEntity
  8
0
100
AcDbBlockEnd
  0
BLOCK
  5
1C
330
1B
100
AcDbEntity
 67
     1
  8
0
100
AcDbBlockBegin
  2
*PAPER_SPACE
  1

  0
ENDBLK
  5
1D
330
1B
100
AcDbEntity
 67
     1
  8
0
100
AcDbBlockEnd
  0
ENDSEC
  0
SECTION
  2
ENTITIES
  0
SPLINE
  5
100
100
AcDbEntity
  8
0
 62
7
100
AcDbSpline
 70
0
 71
3
 72
13
 73
9
 74
7
 40
0.000000
 40
0.000000
 40
0.000000
 40
0.000000
 40
7.206461
 40
14.353284
 40
21.559745
 40
28.766206
 40
35.913030
 40
43.119491
 40
43.119491
 40
43.119491
 40
43.119491
 10
486.937380
 20
473.897480
 30
0.0
 10
487.120937
 20
471.488311
 30
0.0
 10
487.486531
 20
466.689909
 30
0.0
 10
490.375180
 20
459.977207
 30
0.0
 10
494.769898
 20
454.200541
 30
0.0
 10
500.546785
 20
449.806112
 30
0.0
 10
507.259631
 20
446.917800
 30
0.0
 10
512.058051
 20
446.552446
 30
0.0
 10
514.467230
 20
446.369010
 30
0.0
 11
486.937380
 21
473.897480
 31
0.0
 11
487.880670
 21
466.753022
 31
0.0
 11
490.615775
 21
460.150274
 31
0.0
 11
495.000897
 21
454.431551
 31
0.0
 11
500.719839
 21
450.046716
 31
0.0
 11
507.322724
 21
447.311941
 31
0.0
 11
514.467230
 21
446.369010
 31
0.0
  0
SPLINE
  5
101
100
AcDbEntity
  8
0
 62
7
100
AcDbSpline
 70
0
 71
3
 72
10
 73
6
 74
4
 40
0.000000
 40
0.000000
 40
0.000000
 40
0.000000
 40
4.314991
 40
8.616893
 40
12.931885
 40
12.931885
 40
12.931885
 40
12.931885
 10
514.467230
 20
446.369010
 30
0.0
 10
515.905891
 20
446.436742
 30
0.0
 10
518.778848
 20
446.572001
 30
0.0
 10
523.004959
 20
447.584692
 30
0.0
 10
525.627199
 20
448.766232
 30
0.0
 10
526.940310
 20
449.357900
 30
0.0
 11
514.467230
 21
446.369010
 31
0.0
 11
518.768925
 21
446.707498
 31
0.0
 11
522.952393
 21
447.709971
 31
0.0
 11
526.940310
 21
449.357900
 31
0.0
  0
SPLINE
  5
102
100
AcDbEntity
  8
0
 62
7
100
AcDbSpline
 70
0
 71
3
 72
10
 73
6
 74
4
 40
0.000000
 40
0.000000
 40
0.000000
 40
0.000000
 40
19.664028
 40
39.215823
 40
58.879851
 40
58.879851
 40
58.879851
 40
58.879851
 10
526.940310
 20
449.357900
 30
0.0
 10
531.080368
 20
444.254316
 30
0.0
 10
539.336854
 20
434.076277
 30
0.0
 10
555.444350
 20
422.340220
 30
0.0
 10
567.662874
 20
417.599995
 30
0.0
 10
573.789620
 20
415.223100
 30
0.0
 11
526.940310
 21
449.357900
 31
0.0
 11
539.981928
 21
434.640897
 31
0.0
 11
555.784125
 21
423.127284
 31
0.0
 11
573.789620
 21
415.223100
 31
0.0
  0
SPLINE
  5
103
100
AcDbEntity
  8
0
 62
7
100
AcDbSpline
 70
0
 71
3
 72
10
 73
6
 74
4
 40
0.000000
 40
0.000000
 40
0.000000
 40
0.000000
 40
1.396669
 40
2.792889
 40
4.189558
 40
4.189558
 40
4.189558
 40
4.189558
 10
573.789620
 20
415.223100
 30
0.0
 10
573.722258
 20
414.762378
 30
0.0
 10
573.587555
 20
413.841082
 30
0.0
 10
573.469870
 20
412.448329
 30
0.0
 10
573.448071
 20
411.517493
 30
0.0
 10
573.437170
 20
411.052000
 30
0.0
 11
573.789620
 21
415.223100
 31
0.0
 11
573.601601
 21
413.839144
 31
0.0
 11
573.484042
 21
412.447882
 31
0.0
 11
573.437170
 21
411.052000
 31
0.0
  0
SPLINE
  5
104
100
AcDbEntity
  8
0
 62
7
100
AcDbSpline
 70
0
 71
3
 72
13
 73
9
 74
7
 40
0.000000
 40
0.000000
 40
0.000000
 40
0.000000
 40
7.206460
 40
14.353282
 40
21.559741
 40
28.766201
 40
35.913023
 40
43.119483
 40
43.119483
 40
43.119483
 40
43.119483
 10
573.437170
 20
411.052000
 30
0.0
 10
573.620727
 20
408.642831
 30
0.0
 10
573.986323
 20
403.844430
 30
0.0
 10
576.874972
 20
397.131730
 30
0.0
 10
581.269691
 20
391.355066
 30
0.0
 10
587.046577
 20
386.960639
 30
0.0
 10
593.759423
 20
384.072329
 30
0.0
 10
598.557842
 20
383.706976
 30
0.0
 10
600.967020
 20
383.523540
 30
0.0
 11
573.437170
 21
411.052000
 31
0.0
 11
574.380461
 21
403.907543
 31
0.0
 11
577.115567
 21
397.304797
 31
0.0
 11
581.500689
 21
391.586076
 31
0.0
 11
587.219631
 21
387.201243
 31
0.0
 11
593.822516
 21
384.466470
 31
0.0
 11
600.967020
 21
383.523540
 31
0.0
  0
SPLINE
  5
105
100
AcDbEntity
  8
0
 62
7
100
AcDbSpline
 70
0
 71
3
 72
10
 73
6
 74
4
 40
0.000000
 40
0.000000
 40
0.000000
 40
0.000000
 40
14.393446
 40
28.360001
 40
42.753446
 40
42.753446
 40
42.753446
 40
42.753446
 10
600.967020
 20
383.523540
 30
0.0
 10
605.790683
 20
384.280773
 30
0.0
 10
615.294946
 20
385.772780
 30
0.0
 10
626.246240
 20
396.724074
 30
0.0
 10
627.738247
 20
406.228337
 30
0.0
 10
628.495480
 20
411.052000
 30
0.0
 11
600.967020
 21
383.523540
 31
0.0
 11
614.861062
 21
387.282112
 31
0.0
 11
624.736908
 21
397.157958
 31
0.0
 11
628.495480
 21
411.052000
 31
0.0
  0
SPLINE
  5
106
100
AcDbEntity
  8
0
 62
7
100
AcDbSpline
 70
0
 71
3
 72
10
 73
6
 74
4
 40
0.000000
 40
0.000000
 40
0.000000
 40
0.000000
 40
1.426678
 40
2.852878
 40
4.279557
 40
4.279557
 40
4.279557
 40
4.279557
 10
628.495480
 20
411.052000
 30
0.0
 10
628.485965
 20
411.527533
 30
0.0
 10
628.466939
 20
412.478438
 30
0.0
 10
628.349709
 20
413.901413
 30
0.0
 10
628.212857
 20
414.842612
 30
0.0
 10
628.144420
 20
415.313290
 30
0.0
 11
628.495480
 21
411.052000
 31
0.0
 11
628.452150
 21
412.478020
 31
0.0
 11
628.335051
 21
413.899405
 31
0.0
 11
628.144420
 21
415.313290
 31
0.0
  0
SPLINE
  5
107
100
AcDbEntity
  8
0
 62
7
100
AcDbSpline
 70
0
 71
3
 72
10
 73
6
 74
4
 40
0.000000
 40
0.000000
 40
0.000000
 40
0.000000
 40
19.662233
 40
39.212263
 40
58.874495
 40
58.874495
 40
58.874495
 40
58.874495
 10
628.144420
 20
415.313290
 30
0.0
 10
634.274888
 20
417.678895
 30
0.0
 10
646.500839
 20
422.396607
 30
0.0
 10
662.628279
 20
434.102063
 30
0.0
 10
670.902867
 20
444.263849
 30
0.0
 10
675.052000
 20
449.359280
 30
0.0
 11
628.144420
 21
415.313290
 31
0.0
 11
646.162553
 21
423.184139
 31
0.0
 11
661.984369
 21
434.667772
 31
0.0
 11
675.052000
 21
449.359280
 31
0.0
  0
SPLINE
  5
108
100
AcDbEntity
  8
0
 62
7
100
AcDbSpline
 70
0
 71
3
 72
10
 73
6
 74
4
 40
0.000000
 40
0.000000
 40
0.000000
 40
0.000000
 40
4.295219
 40
8.577526
 40
12.872745
 40
12.872745
 40
12.872745
 40
12.872745
 10
675.052000
 20
449.359280
 30
0.0
 10
676.358883
 20
448.769898
 30
0.0
 10
678.968719
 20
447.592905
 30
0.0
 10
683.173988
 20
446.579896
 30
0.0
 10
686.033501
 20
446.439376
 30
0.0
 10
687.465410
 20
446.369010
 30
0.0
 11
675.052000
 21
449.359280
 31
0.0
 11
679.020860
 21
447.717009
 31
0.0
 11
683.184079
 21
446.714131
 31
0.0
 11
687.465410
 21
446.369010
 31
0.0
  0
SPLINE
  5
109
100
AcDbEntity
  8
0
 62
7
100
AcDbSpline
 70
0
 71
3
 72
13
 73
9
 74
7
 40
0.000000
 40
0.000000
 40
0.000000
 40
0.000000
 40
7.206461
 40
14.353285
 40
21.559746
 40
28.766207
 40
35.913031
 40
43.119492
 40
43.119492
 40
43.119492
 40
43.119492
 10
687.465410
 20
446.369010
 30
0.0
 10
689.874589
 20
446.552446
 30
0.0
 10
694.673009
 20
446.917799
 30
0.0
 10
701.385856
 20
449.806111
 30
0.0
 10
707.162742
 20
454.200540
 30
0.0
 10
711.557461
 20
459.977206
 30
0.0
 10
714.446110
 20
466.689909
 30
0.0
 10
714.811704
 20
471.488311
 30
0.0
 10
714.995260
 20
473.897480
 30
0.0
 11
687.465410
 21
446.369010
 31
0.0
 11
694.609916
 21
447.311941
 31
0.0
 11
701.212801
 21
450.046715
 31
0.0
 11
706.931744
 21
454.431550
 31
0.0
 11
711.316866
 21
460.150273
 31
0.0
 11
714.051971
 21
466.753021
 31
0.0
 11
714.995260
 21
473.897480
 31
0.0
  0
SPLINE
  5
10a
100
AcDbEntity
  8
0
 62
7
100
AcDbSpline
 70
0
 71
3
 72
10
 73
6
 74
4
 40
0.000000
 40
0.000000
 40
0.000000
 40
0.000000
 40
12.917357
 40
25.517210
 40
38.434567
 40
38.434567
 40
38.434567
 40
38.434567
 10
714.995260
 20
473.897480
 30
0.0
 10
714.381649
 20
478.219327
 30
0.0
 10
713.169509
 20
486.756791
 30
0.0
 10
704.274824
 20
497.195385
 30
0.0
 10
696.037931
 20
499.747085
 30
0.0
 10
691.868240
 20
501.038810
 30
0.0
 11
714.995260
 21
473.897480
 31
0.0
 11
711.951758
 21
486.451173
 31
0.0
 11
703.779819
 21
496.041570
 31
0.0
 11
691.868240
 21
501.038810
 31
0.0
  0
SPLINE
  5
10b
100
AcDbEntity
  8
0
 62
7
100
AcDbSpline
 70
0
 71
3
 72
10
 73
6
 74
4
 40
0.000000
 40
0.000000
 40
0.000000
 40
0.000000
 40
0.321866
 40
0.643732
 40
0.965598
 40
0.965598
 40
0.965598
 40
0.965598
 10
691.868240
 20
501.038810
 30
0.0
 10
691.874095
 20
501.145939
 30
0.0
 10
691.885805
 20
501.360197
 30
0.0
 10
691.902005
 20
501.681656
 30
0.0
 10
691.911895
 20
501.896005
 30
0.0
 10
691.916840
 20
502.003180
 30
0.0
 11
691.868240
 21
501.038810
 31
0.0
 11
691.885578
 21
501.360209
 31
0.0
 11
691.901778
 21
501.681667
 31
0.0
 11
691.916840
 21
502.003180
 31
0.0
  0
SPLINE
  5
10c
100
AcDbEntity
  8
0
 62
7
100
AcDbSpline
 70
0
 71
3
 72
10
 73
6
 74
4
 40
0.000000
 40
0.000000
 40
0.000000
 40
0.000000
 40
19.350775
 40
38.594516
 40
57.945291
 40
57.945291
 40
57.945291
 40
57.945291
 10
691.916840
 20
502.003180
 30
0.0
 10
691.493390
 20
508.455720
 30
0.0
 10
690.648833
 20
521.325110
 30
0.0
 10
684.463843
 20
539.927736
 30
0.0
 10
677.434473
 20
550.740803
 30
0.0
 10
673.910040
 20
556.162330
 30
0.0
 11
691.916840
 21
502.003180
 31
0.0
 11
689.823203
 21
521.240362
 31
0.0
 11
683.751834
 21
539.501250
 31
0.0
 11
673.910040
 21
556.162330
 31
0.0
  0
SPLINE
  5
10d
100
AcDbEntity
  8
0
 62
7
100
AcDbSpline
 70
0
 71
3
 72
10
 73
6
 74
4
 40
0.000000
 40
0.000000
 40
0.000000
 40
0.000000
 40
7.188897
 40
14.318581
 40
21.507478
 40
21.507478
 40
21.507478
 40
21.507478
 10
673.910040
 20
556.162330
 30
0.0
 10
675.471389
 20
557.992263
 30
0.0
 10
678.581227
 20
561.637057
 30
0.0
 10
681.386537
 20
568.408892
 30
0.0
 10
681.765197
 20
573.185107
 30
0.0
 10
681.955310
 20
575.583090
 30
0.0
 11
673.910040
 21
556.162330
 31
0.0
 11
678.280962
 21
561.869805
 31
0.0
 11
681.009643
 21
568.456664
 31
0.0
 11
681.955310
 21
575.583090
 31
0.0
  0
SPLINE
  5
10e
100
AcDbEntity
  8
0
 62
7
100
AcDbSpline
 70
0
 71
3
 72
13
 73
9
 74
7
 40
0.000000
 40
0.000000
 40
0.000000
 40
0.000000
 40
7.206691
 40
14.353739
 40
21.560429
 40
28.767120
 40
35.914168
 40
43.120859
 40
43.120859
 40
43.120859
 40
43.120859
 10
681.955310
 20
575.583090
 30
0.0
 10
681.771862
 20
577.992346
 30
0.0
 10
681.406485
 20
582.790919
 30
0.0
 10
678.517992
 20
589.503948
 30
0.0
 10
674.123300
 20
595.280930
 30
0.0
 10
668.346318
 20
599.675622
 30
0.0
 10
661.633289
 20
602.564115
 30
0.0
 10
656.834716
 20
602.929492
 30
0.0
 10
654.425460
 20
603.112940
 30
0.0
 11
681.955310
 21
575.583090
 31
0.0
 11
681.012318
 21
582.727819
 31
0.0
 11
678.277375
 21
589.330878
 31
0.0
 11
673.892281
 21
595.049911
 31
0.0
 11
668.173248
 21
599.435005
 31
0.0
 11
661.570189
 21
602.169948
 31
0.0
 11
654.425460
 21
603.112940
 31
0.0
  0
SPLINE
  5
10f
100
AcDbEntity
  8
0
 62
7
100
AcDbSpline
 70
0
 71
3
 72
10
 73
6
 74
4
 40
0.000000
 40
0.000000
 40
0.000000
 40
0.000000
 40
10.060460
 40
19.963968
 40
30.024428
 40
30.024428
 40
30.024428
 40
30.024428
 10
654.425460
 20
603.112940
 30
0.0
 10
651.066014
 20
602.741029
 30
0.0
 10
644.399533
 20
602.003009
 30
0.0
 10
635.494631
 20
596.549201
 30
0.0
 10
631.807672
 20
590.946257
 30
0.0
 10
629.949700
 20
588.122760
 30
0.0
 11
654.425460
 21
603.112940
 31
0.0
 11
644.536413
 21
601.263721
 31
0.0
 11
636.090965
 21
596.091306
 31
0.0
 11
629.949700
 21
588.122760
 31
0.0
  0
SPLINE
  5
110
100
AcDbEntity
  8
0
 62
7
100
AcDbSpline
 70
0
 71
3
 72
10
 73
6
 74
4
 40
0.000000
 40
0.000000
 40
0.000000
 40
0.000000
 40
9.837283
 40
19.660265
 40
29.497548
 40
29.497548
 40
29.497548
 40
29.497548
 10
629.949700
 20
588.122760
 30
0.0
 10
626.810277
 20
589.076718
 30
0.0
 10
620.535995
 20
590.983248
 30
0.0
 10
610.799595
 20
592.606373
 30
0.0
 10
604.246147
 20
592.838315
 30
0.0
 10
600.967040
 20
592.954370
 30
0.0
 11
629.949700
 21
588.122760
 31
0.0
 11
620.477583
 21
590.778158
 31
0.0
 11
610.788317
 21
592.393425
 31
0.0
 11
600.967040
 21
592.954370
 31
0.0
  0
SPLINE
  5
111
100
AcDbEntity
  8
0
 62
7
100
AcDbSpline
 70
0
 71
3
 72
10
 73
6
 74
4
 40
0.000000
 40
0.000000
 40
0.000000
 40
0.000000
 40
9.826187
 40
19.638120
 40
29.464307
 40
29.464307
 40
29.464307
 40
29.464307
 10
600.967040
 20
592.954370
 30
0.0
 10
597.691743
 20
592.835471
 30
0.0
 10
591.145899
 20
592.597846
 30
0.0
 10
581.421794
 20
590.969156
 30
0.0
 10
575.155761
 20
589.060920
 30
0.0
 10
572.020470
 20
588.106110
 30
0.0
 11
600.967040
 21
592.954370
 31
0.0
 11
591.157340
 21
592.385389
 31
0.0
 11
581.480204
 21
590.764566
 31
0.0
 11
572.020470
 21
588.106110
 31
0.0
  0
SPLINE
  5
112
100
AcDbEntity
  8
0
 62
7
100
AcDbSpline
 70
0
 71
3
 72
10
 73
6
 74
4
 40
0.000000
 40
0.000000
 40
0.000000
 40
0.000000
 40
10.076315
 40
19.994969
 40
30.071284
 40
30.071284
 40
30.071284
 40
30.071284
 10
572.020470
 20
588.106110
 30
0.0
 10
570.160956
 20
590.935078
 30
0.0
 10
566.471022
 20
596.548749
 30
0.0
 10
557.550061
 20
602.010099
 30
0.0
 10
550.872398
 20
602.743399
 30
0.0
 10
547.507240
 20
603.112940
 30
0.0
 11
572.020470
 21
588.106110
 31
0.0
 11
565.872608
 21
596.089588
 31
0.0
 11
557.413276
 21
601.268333
 31
0.0
 11
547.507240
 21
603.112940
 31
0.0
  0
SPLINE
  5
113
100
AcDbEntity
  8
0
 62
7
100
AcDbSpline
 70
0
 71
3
 72
13
 73
9
 74
7
 40
0.000000
 40
0.000000
 40
0.000000
 40
0.000000
 40
7.206691
 40
14.353739
 40
21.560429
 40
28.767120
 40
35.914168
 40
43.120859
 40
43.120859
 40
43.120859
 40
43.120859
 10
547.507240
 20
603.112940
 30
0.0
 10
545.097984
 20
602.929492
 30
0.0
 10
540.299411
 20
602.564115
 30
0.0
 10
533.586382
 20
599.675622
 30
0.0
 10
527.809400
 20
595.280930
 30
0.0
 10
523.414708
 20
589.503948
 30
0.0
 10
520.526215
 20
582.790919
 30
0.0
 10
520.160838
 20
577.992346
 30
0.0
 10
519.977390
 20
575.583090
 30
0.0
 11
547.507240
 21
603.112940
 31
0.0
 11
540.362511
 21
602.169948
 31
0.0
 11
533.759452
 21
599.435005
 31
0.0
 11
528.040419
 21
595.049911
 31
0.0
 11
523.655325
 21
589.330878
 31
0.0
 11
520.920382
 21
582.727819
 31
0.0
 11
519.977390
 21
575.583090
 31
0.0
  0
SPLINE
  5
114
100
AcDbEntity
  8
0
 62
7
100
AcDbSpline
 70
0
 71
3
 72
10
 73
6
 74
4
 40
0.000000
 40
0.000000
 40
0.000000
 40
0.000000
 40
7.192242
 40
14.325190
 40
21.517432
 40
21.517432
 40
21.517432
 40
21.517432
 10
519.977390
 20
575.583090
 30
0.0
 10
520.167317
 20
573.183960
 30
0.0
 10
520.545604
 20
568.405479
 30
0.0
 10
523.352481
 20
561.630461
 30
0.0
 10
526.464413
 20
557.984524
 30
0.0
 10
528.026820
 20
556.154010
 30
0.0
 11
519.977390
 21
575.583090
 31
0.0
 11
520.922857
 21
568.453263
 31
0.0
 11
523.652994
 21
561.863475
 31
0.0
 11
528.026820
 21
556.154010
 31
0.0
  0
SPLINE
  5
115
100
AcDbEntity
  8
0
 62
7
100
AcDbSpline
 70
0
 71
3
 72
10
 73
6
 74
4
 40
0.000000
 40
0.000000
 40
0.000000
 40
0.000000
 40
19.348464
 40
38.589933
 40
57.938397
 40
57.938397
 40
57.938397
 40
57.938397
 10
528.026820
 20
556.154010
 30
0.0
 10
524.502352
 20
550.733432
 30
0.0
 10
517.472905
 20
539.922250
 30
0.0
 10
511.286531
 20
521.322615
 30
0.0
 10
510.440199
 20
508.454884
 30
0.0
 10
510.015860
 20
502.003180
 30
0.0
 11
528.026820
 21
556.154010
 31
0.0
 11
518.184704
 21
539.495804
 31
0.0
 11
512.111950
 21
521.237771
 31
0.0
 11
510.015860
 21
502.003180
 31
0.0
  0
SPLINE
  5
116
100
AcDbEntity
  8
0
 62
7
100
AcDbSpline
 70
0
 71
3
 72
10
 73
6
 74
4
 40
0.000000
 40
0.000000
 40
0.000000
 40
0.000000
 40
0.315180
 40
0.630360
 40
0.945540
 40
0.945540
 40
0.945540
 40
0.945540
 10
510.015860
 20
502.003180
 30
0.0
 10
510.019123
 20
501.898171
 30
0.0
 10
510.025650
 20
501.688152
 30
0.0
 10
510.036750
 20
501.373166
 30
0.0
 10
510.045023
 20
501.163209
 30
0.0
 10
510.049160
 20
501.058230
 30
0.0
 11
510.015860
 21
502.003180
 31
0.0
 11
510.025868
 21
501.688159
 31
0.0
 11
510.036968
 21
501.373174
 31
0.0
 11
510.049160
 21
501.058230
 31
0.0
  0
LINE
  5
117
100
AcDbEntity
  8
0
 62
7
100
AcDbLine
 10
486.937340
 20
473.897480
 30
0.0
 11
486.937380
 21
473.897480
 31
0.0
  0
SPLINE
  5
118
100
AcDbEntity
  8
0
 62
7
100
AcDbSpline
 70
0
 71
3
 72
10
 73
6
 74
4
 40
0.000000
 40
0.000000
 40
0.000000
 40
0.000000
 40
12.919505
 40
25.521359
 40
38.440864
 40
38.440864
 40
38.440864
 40
38.440864
 10
510.049160
 20
501.058230
 30
0.0
 10
505.879508
 20
499.763852
 30
0.0
 10
497.642724
 20
497.206920
 30
0.0
 10
488.753470
 20
486.760369
 30
0.0
 10
487.547719
 20
478.220540
 30
0.0
 10
486.937340
 20
473.897480
 30
0.0
 11
510.049160
 21
501.058230
 31
0.0
 11
498.138602
 21
496.053011
 31
0.0
 11
489.971866
 21
486.455555
 31
0.0
 11
486.937340
 21
473.897480
 31
0.0
  0
LINE
  5
119
100
AcDbEntity
  8
0
 62
7
100
AcDbLine
 10
91.083500
 20
411.837490
 30
0.0
 11
89.784716
 21
425.687050
 31
0.0
  0
LINE
  5
11a
100
AcDbEntity
  8
0
 62
7
100
AcDbLine
 10
89.784716
 20
425.687050
 30
0.0
 11
93.417434
 21
426.128300
 31
0.0
  0
SPLINE
  5
11b
100
AcDbEntity
  8
0
 62
7
100
AcDbSpline
 70
0
 71
3
 72
13
 73
9
 74
7
 40
0.000000
 40
0.000000
 40
0.000000
 40
0.000000
 40
0.193148
 40
0.384756
 40
0.575237
 40
21.553344
 40
54.316633
 40
71.577190
 40
71.577190
 40
71.577190
 40
71.577190
 10
23.291257
 20
430.574150
 30
0.0
 10
23.291974
 20
430.509753
 30
0.0
 10
23.293402
 20
430.381473
 30
0.0
 10
23.307721
 20
430.190207
 30
0.0
 10
24.272387
 20
423.118438
 30
0.0
 10
48.360554
 20
418.949335
 30
0.0
 10
68.384034
 20
414.252756
 30
0.0
 10
85.260376
 20
412.457081
 30
0.0
 10
91.083500
 20
411.837490
 30
0.0
 11
23.291257
 21
430.574150
 31
0.0
 11
23.295461
 21
430.381047
 31
0.0
 11
23.309696
 21
430.189969
 31
0.0
 11
23.334267
 21
430.001080
 31
0.0
 11
41.748700
 21
419.951721
 31
0.0
 11
73.943793
 21
413.876429
 31
0.0
 11
91.083500
 21
411.837490
 31
0.0
  0
SPLINE
  5
11c
100
AcDbEntity
  8
0
 62
7
100
AcDbSpline
 70
0
 71
3
 72
13
 73
9
 74
7
 40
0.000000
 40
0.000000
 40
0.000000
 40
0.000000
 40
4.631972
 40
9.303474
 40
14.023718
 40
23.488316
 40
32.906036
 40
42.300886
 40
42.300886
 40
42.300886
 40
42.300886
 10
93.417434
 20
426.128300
 30
0.0
 10
93.582518
 20
424.593148
 30
0.0
 10
93.914095
 20
421.509742
 30
0.0
 10
94.355634
 20
416.855948
 30
0.0
 10
94.883883
 20
410.592599
 30
0.0
 10
95.398199
 20
402.741309
 30
0.0
 10
95.779399
 20
393.321046
 30
0.0
 10
95.777364
 20
387.049621
 30
0.0
 10
95.776348
 20
383.917720
 30
0.0
 11
93.417434
 21
426.128300
 31
0.0
 11
93.903104
 21
421.521860
 31
0.0
 11
94.346035
 21
416.871404
 31
0.0
 11
94.741197
 21
412.167730
 31
0.0
 11
95.359798
 21
402.723369
 31
0.0
 11
95.715641
 21
393.312374
 31
0.0
 11
95.776348
 21
383.917720
 31
0.0
  0
LINE
  5
11d
100
AcDbEntity
  8
0
 62
7
100
AcDbLine
 10
77.578059
 20
361.287460
 30
0.0
 11
68.981926
 21
301.131130
 31
0.0
  0
SPLINE
  5
11e
100
AcDbEntity
  8
0
 62
7
100
AcDbSpline
 70
0
 71
3
 72
10
 73
6
 74
4
 40
0.000000
 40
0.000000
 40
0.000000
 40
0.000000
 40
8.300974
 40
17.631321
 40
30.603621
 40
30.603621
 40
30.603621
 40
30.603621
 10
95.776348
 20
383.917720
 30
0.0
 10
94.614334
 20
381.212082
 30
0.0
 10
92.146209
 20
375.465289
 30
0.0
 10
80.028872
 20
374.360448
 30
0.0
 10
78.479341
 20
366.095028
 30
0.0
 10
77.578059
 20
361.287460
 30
0.0
 11
95.776348
 21
383.917720
 31
0.0
 11
91.289975
 21
376.933551
 31
0.0
 11
82.745204
 21
373.186249
 31
0.0
 11
77.578059
 21
361.287460
 31
0.0
  0
SPLINE
  5
11f
100
AcDbEntity
  8
0
 62
7
100
AcDbSpline
 70
0
 71
3
 72
10
 73
6
 74
4
 40
0.000000
 40
0.000000
 40
0.000000
 40
0.000000
 40
9.890804
 40
19.949257
 40
31.923194
 40
31.923194
 40
31.923194
 40
31.923194
 10
68.981926
 20
301.131130
 30
0.0
 10
68.622203
 20
297.873026
 30
0.0
 10
67.896660
 20
291.301594
 30
0.0
 10
70.260659
 20
280.122717
 30
0.0
 10
76.809442
 20
276.111503
 30
0.0
 10
80.368508
 20
273.931530
 30
0.0
 11
68.981926
 21
301.131130
 31
0.0
 11
68.444250
 21
291.254951
 31
0.0
 11
71.143660
 21
281.565489
 31
0.0
 11
80.368508
 21
273.931530
 31
0.0
  0
SPLINE
  5
120
100
AcDbEntity
  8
0
 62
7
100
AcDbSpline
 70
0
 71
3
 72
10
 73
6
 74
4
 40
0.000000
 40
0.000000
 40
0.000000
 40
0.000000
 40
0.100220
 40
0.198316
 40
0.298004
 40
0.298004
 40
0.298004
 40
0.298004
 10
80.368508
 20
273.931530
 30
0.0
 10
80.401197
 20
273.924645
 30
0.0
 10
80.465884
 20
273.911020
 30
0.0
 10
80.562904
 20
273.889699
 30
0.0
 10
80.627398
 20
273.876023
 30
0.0
 10
80.659905
 20
273.869130
 30
0.0
 11
80.368508
 21
273.931530
 31
0.0
 11
80.466546
 21
273.910730
 31
0.0
 11
80.562411
 21
273.889930
 31
0.0
 11
80.659905
 21
273.869130
 31
0.0
  0
SPLINE
  5
121
100
AcDbEntity
  8
0
 62
7
100
AcDbSpline
 70
0
 71
3
 72
10
 73
6
 74
4
 40
0.000000
 40
0.000000
 40
0.000000
 40
0.000000
 40
8.979308
 40
17.965153
 40
26.964410
 40
26.964410
 40
26.964410
 40
26.964410
 10
80.659905
 20
273.869130
 30
0.0
 10
82.963967
 20
271.958586
 30
0.0
 10
87.573769
 20
268.136109
 30
0.0
 10
94.380400
 20
262.264810
 30
0.0
 10
98.834406
 20
258.251874
 30
0.0
 10
101.063070
 20
256.243910
 30
0.0
 11
80.659905
 21
273.869130
 31
0.0
 11
87.553392
 21
268.115191
 31
0.0
 11
94.355553
 21
262.243563
 31
0.0
 11
101.063070
 21
256.243910
 31
0.0
  0
LINE
  5
122
100
AcDbEntity
  8
0
 62
7
100
AcDbLine
 10
111.486670
 20
246.416980
 30
0.0
 11
108.929340
 21
243.791650
 31
0.0
  0
LINE
  5
123
100
AcDbEntity
  8
0
 62
7
100
AcDbLine
 10
108.929340
 20
243.791650
 30
0.0
 11
98.540425
 21
253.556150
 31
0.0
  0
SPLINE
  5
124
100
AcDbEntity
  8
0
 62
7
100
AcDbSpline
 70
0
 71
3
 72
10
 73
6
 74
4
 40
0.000000
 40
0.000000
 40
0.000000
 40
0.000000
 40
4.781290
 40
9.555972
 40
14.326012
 40
14.326012
 40
14.326012
 40
14.326012
 10
101.063070
 20
256.243910
 30
0.0
 10
102.235085
 20
255.163881
 30
0.0
 10
104.577494
 20
253.005314
 30
0.0
 10
108.058754
 20
249.736316
 30
0.0
 10
110.344402
 20
247.523067
 30
0.0
 10
111.486670
 20
246.416980
 30
0.0
 11
101.063070
 21
256.243910
 31
0.0
 11
104.574036
 21
252.998321
 31
0.0
 11
108.051437
 21
249.726429
 31
0.0
 11
111.486670
 21
246.416980
 31
0.0
  0
LINE
  5
125
100
AcDbEntity
  8
0
 62
7
100
AcDbLine
 10
137.531790
 20
213.349250
 30
0.0
 11
128.340380
 21
223.790890
 31
0.0
  0
LINE
  5
126
100
AcDbEntity
  8
0
 62
7
100
AcDbLine
 10
128.340380
 20
223.790890
 30
0.0
 11
131.019820
 21
226.283010
 31
0.0
  0
SPLINE
  5
127
100
AcDbEntity
  8
0
 62
7
100
AcDbSpline
 70
0
 71
3
 72
13
 73
9
 74
7
 40
0.000000
 40
0.000000
 40
0.000000
 40
0.000000
 40
17.405556
 40
50.392791
 40
71.373379
 40
92.351280
 40
125.113897
 40
142.374062
 40
142.374062
 40
142.374062
 40
142.374062
 10
98.540425
 20
253.556150
 30
0.0
 10
95.544092
 20
248.448473
 30
0.0
 10
86.869069
 20
233.660660
 30
0.0
 10
77.037142
 20
216.224594
 30
0.0
 10
65.616904
 20
181.901081
 30
0.0
 10
100.022614
 20
192.724427
 30
0.0
 10
117.574646
 20
202.139655
 30
0.0
 10
132.412163
 20
210.473641
 30
0.0
 10
137.531790
 20
213.349250
 30
0.0
 11
98.540425
 21
253.556150
 31
0.0
 11
89.758201
 21
238.528644
 31
0.0
 11
75.088266
 21
208.982906
 31
0.0
 11
72.045727
 21
188.224100
 31
0.0
 11
92.850048
 21
190.917161
 31
0.0
 11
122.467148
 21
204.924889
 31
0.0
 11
137.531790
 21
213.349250
 31
0.0
  0
SPLINE
  5
128
100
AcDbEntity
  8
0
 62
7
100
AcDbSpline
 70
0
 71
3
 72
13
 73
9
 74
7
 40
0.000000
 40
0.000000
 40
0.000000
 40
0.000000
 40
4.632159
 40
9.303995
 40
14.024419
 40
23.488872
 40
32.906337
 40
42.301053
 40
42.301053
 40
42.301053
 40
42.301053
 10
131.019820
 20
226.283010
 30
0.0
 10
132.055770
 20
225.138045
 30
0.0
 10
134.136543
 20
222.838308
 30
0.0
 10
137.229475
 20
219.332782
 30
0.0
 10
141.338503
 20
214.576099
 30
0.0
 10
146.369383
 20
208.526605
 30
0.0
 10
152.214758
 20
201.129653
 30
0.0
 10
155.899278
 20
196.054865
 30
0.0
 10
157.739310
 20
193.520540
 30
0.0
 11
131.019820
 21
226.283010
 31
0.0
 11
134.120511
 21
222.841700
 31
0.0
 11
137.212645
 21
219.339593
 31
0.0
 11
140.297270
 21
215.766430
 31
0.0
 11
146.348891
 21
208.489497
 31
0.0
 11
152.168249
 21
201.085193
 31
0.0
 11
157.739310
 21
193.520540
 31
0.0
  0
LINE
  5
129
100
AcDbEntity
  8
0
 62
7
100
AcDbLine
 10
156.318420
 20
164.515680
 30
0.0
 11
184.722450
 21
110.795010
 31
0.0
  0
SPLINE
  5
12a
100
AcDbEntity
  8
0
 62
7
100
AcDbSpline
 70
0
 71
3
 72
10
 73
6
 74
4
 40
0.000000
 40
0.000000
 40
0.000000
 40
0.000000
 40
8.300949
 40
17.631237
 40
30.603519
 40
30.603519
 40
30.603519
 40
30.603519
 10
157.739310
 20
193.520540
 30
0.0
 10
158.389564
 20
190.648628
 30
0.0
 10
159.770706
 20
184.548680
 30
0.0
 10
150.617039
 20
176.532456
 30
0.0
 10
154.221744
 20
168.934834
 30
0.0
 10
156.318420
 20
164.515680
 30
0.0
 11
157.739310
 21
193.520540
 31
0.0
 11
158.214976
 21
185.233230
 31
0.0
 11
153.504768
 21
177.179150
 31
0.0
 11
156.318420
 21
164.515680
 31
0.0
  0
SPLINE
  5
12b
100
AcDbEntity
  8
0
 62
7
100
AcDbSpline
 70
0
 71
3
 72
10
 73
6
 74
4
 40
0.000000
 40
0.000000
 40
0.000000
 40
0.000000
 40
9.890900
 40
19.949591
 40
31.923685
 40
31.923685
 40
31.923685
 40
31.923685
 10
184.722450
 20
110.795010
 30
0.0
 10
186.346545
 20
107.947697
 30
0.0
 10
189.622286
 20
102.204770
 30
0.0
 10
198.105867
 20
94.550486
 30
0.0
 10
205.761789
 20
95.154596
 30
0.0
 10
209.922530
 20
95.482910
 30
0.0
 11
184.722450
 21
110.795010
 31
0.0
 11
190.092695
 21
102.488966
 31
0.0
 11
197.972185
 21
96.236694
 31
0.0
 11
209.922530
 21
95.482910
 31
0.0
  0
SPLINE
  5
12c
100
AcDbEntity
  8
0
 62
7
100
AcDbSpline
 70
0
 71
3
 72
10
 73
6
 74
4
 40
0.000000
 40
0.000000
 40
0.000000
 40
0.000000
 40
0.101093
 40
0.200069
 40
0.300654
 40
0.300654
 40
0.300654
 40
0.300654
 10
209.922530
 20
95.482910
 30
0.0
 10
209.953294
 20
95.496662
 30
0.0
 10
210.014178
 20
95.523878
 30
0.0
 10
210.105903
 20
95.564254
 30
0.0
 10
210.166651
 20
95.591359
 30
0.0
 10
210.197270
 20
95.605020
 30
0.0
 11
209.922530
 21
95.482910
 31
0.0
 11
210.014861
 21
95.524077
 31
0.0
 11
210.105379
 21
95.564113
 31
0.0
 11
210.197270
 21
95.605020
 31
0.0
  0
SPLINE
  5
12d
100
AcDbEntity
  8
0
 62
7
100
AcDbSpline
 70
0
 71
3
 72
10
 73
6
 74
4
 40
0.000000
 40
0.000000
 40
0.000000
 40
0.000000
 40
8.978452
 40
17.963541
 40
26.961952
 40
26.961952
 40
26.961952
 40
26.961952
 10
210.197270
 20
95.605020
 30
0.0
 10
213.183996
 20
95.413596
 30
0.0
 10
219.159655
 20
95.030607
 30
0.0
 10
228.116524
 20
94.280844
 30
0.0
 10
234.078089
 20
93.652237
 30
0.0
 10
237.061080
 20
93.337700
 30
0.0
 11
210.197270
 21
95.605020
 31
0.0
 11
219.155424
 21
95.001634
 31
0.0
 11
228.108946
 21
94.249133
 31
0.0
 11
237.061080
 21
93.337700
 31
0.0
  0
LINE
  5
12e
100
AcDbEntity
  8
0
 62
7
100
AcDbLine
 10
251.270040
 20
91.514410
 30
0.0
 11
250.744140
 21
87.887230
 31
0.0
  0
LINE
  5
12f
100
AcDbEntity
  8
0
 62
7
100
AcDbLine
 10
250.744140
 20
87.887230
 30
0.0
 11
236.600400
 21
89.681400
 31
0.0
  0
SPLINE
  5
130
100
AcDbEntity
  8
0
 62
7
100
AcDbSpline
 70
0
 71
3
 72
10
 73
6
 74
4
 40
0.000000
 40
0.000000
 40
0.000000
 40
0.000000
 40
4.781277
 40
9.555941
 40
14.325975
 40
14.325975
 40
14.325975
 40
14.325975
 10
237.061080
 20
93.337700
 30
0.0
 10
238.644081
 20
93.152833
 30
0.0
 10
241.807893
 20
92.783353
 30
0.0
 10
246.545750
 20
92.184926
 30
0.0
 10
249.695786
 20
91.737843
 30
0.0
 10
251.270040
 20
91.514410
 30
0.0
 11
237.061080
 21
93.337700
 31
0.0
 11
241.809209
 21
92.775664
 31
0.0
 11
246.545638
 21
92.172626
 31
0.0
 11
251.270040
 21
91.514410
 31
0.0
  0
LINE
  5
131
100
AcDbEntity
  8
0
 62
7
100
AcDbLine
 10
291.778040
 20
80.072310
 30
0.0
 11
278.204610
 21
83.116690
 31
0.0
  0
LINE
  5
132
100
AcDbEntity
  8
0
 62
7
100
AcDbLine
 10
278.204610
 20
83.116690
 30
0.0
 11
278.906730
 21
86.707770
 31
0.0
  0
SPLINE
  5
133
100
AcDbEntity
  8
0
 62
7
100
AcDbSpline
 70
0
 71
3
 72
13
 73
9
 74
7
 40
0.000000
 40
0.000000
 40
0.000000
 40
0.000000
 40
17.405865
 40
50.393650
 40
71.374460
 40
92.352728
 40
125.116136
 40
142.376735
 40
142.376735
 40
142.376735
 40
142.376735
 10
236.600400
 20
89.681400
 30
0.0
 10
237.178494
 20
83.787891
 30
0.0
 10
238.852197
 20
66.724939
 30
0.0
 10
241.146473
 20
46.839535
 30
0.0
 10
252.082047
 20
12.357824
 30
0.0
 10
273.555264
 20
41.338197
 30
0.0
 10
282.221070
 20
59.272471
 30
0.0
 10
289.326379
 20
74.736503
 30
0.0
 10
291.778040
 20
80.072310
 30
0.0
 11
236.600400
 21
89.681400
 31
0.0
 11
238.328259
 21
72.361509
 31
0.0
 11
243.826361
 21
39.835138
 31
0.0
 11
253.566500
 21
21.252240
 31
0.0
 11
268.814711
 21
35.659870
 31
0.0
 11
284.542102
 21
64.401653
 31
0.0
 11
291.778040
 21
80.072310
 31
0.0
  0
SPLINE
  5
134
100
AcDbEntity
  8
0
 62
7
100
AcDbSpline
 70
0
 71
3
 72
13
 73
9
 74
7
 40
0.000000
 40
0.000000
 40
0.000000
 40
0.000000
 40
4.632212
 40
9.304157
 40
14.024636
 40
23.489133
 40
32.906653
 40
42.301393
 40
42.301393
 40
42.301393
 40
42.301393
 10
278.906730
 20
86.707770
 30
0.0
 10
280.417836
 20
86.390357
 30
0.0
 10
283.453010
 20
85.752810
 30
0.0
 10
288.015747
 20
84.734455
 30
0.0
 10
294.135951
 20
83.301241
 30
0.0
 10
301.761945
 20
81.364472
 30
0.0
 10
310.838980
 20
78.816613
 30
0.0
 10
316.802774
 20
76.876855
 30
0.0
 10
319.781060
 20
75.908150
 30
0.0
 11
278.906730
 21
86.707770
 31
0.0
 11
283.438019
 21
85.746102
 31
0.0
 11
287.998151
 21
84.730094
 31
0.0
 11
292.593940
 21
83.652300
 31
0.0
 11
301.767188
 21
81.322444
 31
0.0
 11
310.827479
 21
78.753239
 31
0.0
 11
319.781060
 21
75.908150
 31
0.0
  0
LINE
  5
135
100
AcDbEntity
  8
0
 62
7
100
AcDbLine
 10
335.680100
 20
51.607220
 30
0.0
 11
390.236100
 21
24.841930
 31
0.0
  0
SPLINE
  5
136
100
AcDbEntity
  8
0
 62
7
100
AcDbSpline
 70
0
 71
3
 72
10
 73
6
 74
4
 40
0.000000
 40
0.000000
 40
0.000000
 40
0.000000
 40
8.300995
 40
17.631429
 40
30.603764
 40
30.603764
 40
30.603764
 40
30.603764
 10
319.781060
 20
75.908150
 30
0.0
 10
321.995187
 20
73.966906
 30
0.0
 10
326.698025
 20
69.843676
 30
0.0
 10
324.004285
 20
57.977941
 30
0.0
 10
331.386347
 20
53.950037
 30
0.0
 10
335.680100
 20
51.607220
 30
0.0
 11
319.781060
 21
75.908150
 31
0.0
 11
325.037020
 21
69.483089
 31
0.0
 11
325.960427
 21
60.198461
 31
0.0
 11
335.680100
 21
51.607220
 31
0.0
  0
LINE
  5
137
100
AcDbEntity
  8
0
 62
7
100
AcDbLine
 10
419.622550
 20
27.266060
 30
0.0
 11
419.622550
 21
62.220900
 31
0.0
  0
SPLINE
  5
138
100
AcDbEntity
  8
0
 62
7
100
AcDbSpline
 70
0
 71
3
 72
10
 73
6
 74
4
 40
0.000000
 40
0.000000
 40
0.000000
 40
0.000000
 40
9.890659
 40
19.948846
 40
31.922632
 40
31.922632
 40
31.922632
 40
31.922632
 10
390.236100
 20
24.841930
 30
0.0
 10
393.223534
 20
23.493020
 30
0.0
 10
399.249004
 20
20.772351
 30
0.0
 10
410.611062
 20
19.566178
 30
0.0
 10
416.449510
 20
24.554851
 30
0.0
 10
419.622550
 20
27.266060
 30
0.0
 11
390.236100
 21
24.841930
 31
0.0
 11
399.462614
 21
21.278704
 31
0.0
 11
409.511736
 21
20.851780
 31
0.0
 11
419.622550
 21
27.266060
 31
0.0
  0
LINE
  5
139
100
AcDbEntity
  8
0
 62
7
100
AcDbLine
 10
451.854590
 20
70.200960
 30
0.0
 11
452.137660
 21
98.263640
 31
0.0
  0
SPLINE
  5
13a
100
AcDbEntity
  8
0
 62
7
100
AcDbSpline
 70
0
 71
3
 72
10
 73
6
 74
4
 40
0.000000
 40
0.000000
 40
0.000000
 40
0.000000
 40
18.167638
 40
32.079590
 40
47.330808
 40
47.330808
 40
47.330808
 40
47.330808
 10
419.622550
 20
62.220900
 30
0.0
 10
423.725759
 20
56.641359
 30
0.0
 10
430.971018
 20
46.789257
 30
0.0
 10
448.773559
 20
55.198579
 30
0.0
 10
450.796611
 20
65.049373
 30
0.0
 10
451.854590
 20
70.200960
 30
0.0
 11
419.622550
 21
62.220900
 31
0.0
 11
433.478363
 21
50.470176
 31
0.0
 11
446.233997
 21
56.023211
 31
0.0
 11
451.854590
 21
70.200960
 31
0.0
  0
LINE
  5
13b
100
AcDbEntity
  8
0
 62
7
100
AcDbLine
 10
419.622550
 20
112.213110
 30
0.0
 11
419.622550
 21
121.045140
 31
0.0
  0
LINE
  5
13c
100
AcDbEntity
  8
0
 62
7
100
AcDbLine
 10
419.622550
 20
121.045140
 30
0.0
 11
419.622550
 21
165.152570
 31
0.0
  0
SPLINE
  5
13d
100
AcDbEntity
  8
0
 62
7
100
AcDbSpline
 70
0
 71
3
 72
10
 73
6
 74
4
 40
0.000000
 40
0.000000
 40
0.000000
 40
0.000000
 40
19.364819
 40
34.006501
 40
51.258737
 40
51.258737
 40
51.258737
 40
51.258737
 10
452.137660
 20
98.263640
 30
0.0
 10
451.288875
 20
104.886744
 30
0.0
 10
449.798327
 20
116.517558
 30
0.0
 10
431.119350
 20
127.149858
 30
0.0
 10
423.658380
 20
117.456497
 30
0.0
 10
419.622550
 20
112.213110
 30
0.0
 11
452.137660
 21
98.263640
 31
0.0
 11
446.056270
 21
116.648767
 31
0.0
 11
432.947653
 21
123.171270
 31
0.0
 11
419.622550
 21
112.213110
 31
0.0
  0
LINE
  5
13e
100
AcDbEntity
  8
0
 62
7
100
AcDbLine
 10
442.309710
 20
173.132620
 30
0.0
 11
442.592780
 21
201.195310
 31
0.0
  0
SPLINE
  5
13f
100
AcDbEntity
  8
0
 62
7
100
AcDbSpline
 70
0
 71
3
 72
10
 73
6
 74
4
 40
0.000000
 40
0.000000
 40
0.000000
 40
0.000000
 40
16.358838
 40
26.229037
 40
40.751633
 40
40.751633
 40
40.751633
 40
40.751633
 10
419.622550
 20
165.152570
 30
0.0
 10
422.966501
 20
159.119232
 30
0.0
 10
428.328045
 20
149.445645
 30
0.0
 10
442.047694
 20
159.775831
 30
0.0
 10
442.211930
 20
168.148082
 30
0.0
 10
442.309710
 20
173.132620
 30
0.0
 11
419.622550
 21
165.152570
 31
0.0
 11
431.003760
 21
153.401841
 31
0.0
 11
439.163700
 21
158.954876
 31
0.0
 11
442.309710
 21
173.132620
 31
0.0
  0
LINE
  5
140
100
AcDbEntity
  8
0
 62
7
100
AcDbLine
 10
419.622550
 20
215.144780
 30
0.0
 11
419.622550
 21
233.959150
 31
0.0
  0
SPLINE
  5
141
100
AcDbEntity
  8
0
 62
7
100
AcDbSpline
 70
0
 71
3
 72
10
 73
6
 74
4
 40
0.000000
 40
0.000000
 40
0.000000
 40
0.000000
 40
18.735581
 40
29.460006
 40
44.881225
 40
44.881225
 40
44.881225
 40
44.881225
 10
442.592780
 20
201.195310
 30
0.0
 10
442.669027
 20
207.535408
 30
0.0
 10
442.788919
 20
217.504638
 30
0.0
 10
428.524119
 20
230.299898
 30
0.0
 10
422.925013
 20
220.767297
 30
0.0
 10
419.622550
 20
215.144780
 30
0.0
 11
442.592780
 21
201.195310
 31
0.0
 11
438.985969
 21
219.580437
 31
0.0
 11
430.473021
 21
226.102940
 31
0.0
 11
419.622550
 21
215.144780
 31
0.0
  0
SPLINE
  5
142
100
AcDbEntity
  8
0
 62
7
100
AcDbSpline
 70
0
 71
3
 72
10
 73
6
 74
4
 40
0.000000
 40
0.000000
 40
0.000000
 40
0.000000
 40
32.205799
 40
63.431212
 40
94.149653
 40
94.149653
 40
94.149653
 40
94.149653
 10
419.622550
 20
233.959150
 30
0.0
 10
408.881514
 20
234.653729
 30
0.0
 10
387.726413
 20
236.021744
 30
0.0
 10
357.506537
 20
246.043885
 30
0.0
 10
340.063425
 20
257.179514
 30
0.0
 10
331.413250
 20
262.701760
 30
0.0
 11
419.622550
 21
233.959150
 31
0.0
 11
387.604419
 21
237.430862
 31
0.0
 11
357.963694
 21
247.251954
 31
0.0
 11
331.413250
 21
262.701760
 31
0.0
  0
SPLINE
  5
143
100
AcDbEntity
  8
0
 62
7
100
AcDbSpline
 70
0
 71
3
 72
10
 73
6
 74
4
 40
0.000000
 40
0.000000
 40
0.000000
 40
0.000000
 40
32.205718
 40
63.430932
 40
94.149234
 40
94.149234
 40
94.149234
 40
94.149234
 10
331.413250
 20
262.701760
 30
0.0
 10
323.131833
 20
269.577061
 30
0.0
 10
306.821128
 20
283.118343
 30
0.0
 10
288.263366
 20
308.988880
 30
0.0
 10
280.696929
 20
328.250475
 30
0.0
 10
276.944670
 20
337.802460
 30
0.0
 11
331.413250
 21
262.701760
 31
0.0
 11
307.550615
 21
284.330050
 31
0.0
 11
289.343338
 21
309.697530
 31
0.0
 11
276.944670
 21
337.802460
 31
0.0
  0
SPLINE
  5
144
100
AcDbEntity
  8
0
 62
7
100
AcDbSpline
 70
0
 71
3
 72
10
 73
6
 74
4
 40
0.000000
 40
0.000000
 40
0.000000
 40
0.000000
 40
32.205917
 40
63.431569
 40
94.150136
 40
94.150136
 40
94.150136
 40
94.150136
 10
276.944670
 20
337.802460
 30
0.0
 10
274.286102
 20
348.232472
 30
0.0
 10
269.049887
 20
368.775033
 30
0.0
 10
269.243060
 20
400.613014
 30
0.0
 10
274.443457
 20
420.643623
 30
0.0
 10
277.022370
 20
430.576940
 30
0.0
 11
276.944670
 21
337.802460
 31
0.0
 11
270.352343
 21
369.326456
 31
0.0
 11
270.533277
 21
400.551584
 31
0.0
 11
277.022370
 21
430.576940
 31
0.0
  0
SPLINE
  5
145
100
AcDbEntity
  8
0
 62
7
100
AcDbSpline
 70
0
 71
3
 72
10
 73
6
 74
4
 40
0.000000
 40
0.000000
 40
0.000000
 40
0.000000
 40
32.205989
 40
63.431804
 40
94.150481
 40
94.150481
 40
94.150481
 40
94.150481
 10
277.022370
 20
430.576940
 30
0.0
 10
281.002187
 20
440.577678
 30
0.0
 10
288.840698
 20
460.274785
 30
0.0
 10
307.711146
 20
485.918653
 30
0.0
 10
323.692141
 20
499.067066
 30
0.0
 10
331.617220
 20
505.587450
 30
0.0
 11
277.022370
 21
430.576940
 31
0.0
 11
290.218537
 21
459.955280
 31
0.0
 11
308.718833
 21
485.110610
 31
0.0
 11
331.617220
 21
505.587450
 31
0.0
  0
SPLINE
  5
146
100
AcDbEntity
  8
0
 62
7
100
AcDbSpline
 70
0
 71
3
 72
10
 73
6
 74
4
 40
0.000000
 40
0.000000
 40
0.000000
 40
0.000000
 40
32.205516
 40
63.430445
 40
94.148648
 40
94.148648
 40
94.148648
 40
94.148648
 10
331.617220
 20
505.587450
 30
0.0
 10
340.715093
 20
511.338887
 30
0.0
 10
358.633830
 20
522.666643
 30
0.0
 10
388.972851
 20
532.320997
 30
0.0
 10
409.629745
 20
533.564784
 30
0.0
 10
419.873700
 20
534.181590
 30
0.0
 11
331.617220
 21
505.587450
 31
0.0
 11
359.560847
 21
521.598350
 31
0.0
 11
389.312993
 21
531.074957
 31
0.0
 11
419.873700
 21
534.181590
 31
0.0
  0
SPLINE
  5
147
100
AcDbEntity
  8
0
 62
7
100
AcDbSpline
 70
0
 71
3
 72
10
 73
6
 74
4
 40
0.000000
 40
0.000000
 40
0.000000
 40
0.000000
 40
38.222598
 40
79.505301
 40
117.207926
 40
117.207926
 40
117.207926
 40
117.207926
 10
419.873700
 20
534.181590
 30
0.0
 10
431.196914
 20
541.209580
 30
0.0
 10
454.749880
 20
555.828221
 30
0.0
 10
455.364390
 20
604.477628
 30
0.0
 10
431.255965
 20
618.346319
 30
0.0
 10
419.748120
 20
624.966360
 30
0.0
 11
419.873700
 21
534.181590
 31
0.0
 11
448.495989
 21
559.514011
 31
0.0
 11
448.684178
 21
600.796286
 31
0.0
 11
419.748120
 21
624.966360
 31
0.0
  0
SPLINE
  5
148
100
AcDbEntity
  8
0
 62
7
100
AcDbSpline
 70
0
 71
3
 72
10
 73
6
 74
4
 40
0.000000
 40
0.000000
 40
0.000000
 40
0.000000
 40
54.805049
 40
102.412467
 40
158.294716
 40
158.294716
 40
158.294716
 40
158.294716
 10
419.748120
 20
624.966360
 30
0.0
 10
438.061348
 20
633.099370
 30
0.0
 10
472.282700
 20
648.297269
 30
0.0
 10
468.499309
 20
713.217877
 30
0.0
 10
436.923808
 20
731.070768
 30
0.0
 10
419.873700
 20
740.710954
 30
0.0
 11
419.748120
 21
624.966360
 31
0.0
 11
464.186680
 21
657.041393
 31
0.0
 11
462.538540
 21
704.620275
 31
0.0
 11
419.873700
 21
740.710954
 31
0.0
  0
SPLINE
  5
149
100
AcDbEntity
  8
0
 62
7
100
AcDbSpline
 70
0
 71
3
 72
10
 73
6
 74
4
 40
0.000000
 40
0.000000
 40
0.000000
 40
0.000000
 40
9.038176
 40
18.082984
 40
27.141247
 40
27.141247
 40
27.141247
 40
27.141247
 10
419.873700
 20
740.710954
 30
0.0
 10
417.328495
 20
739.098915
 30
0.0
 10
412.236217
 20
735.873654
 30
0.0
 10
404.498832
 20
731.183372
 30
0.0
 10
399.271899
 20
728.167739
 30
0.0
 10
396.656490
 20
726.658802
 30
0.0
 11
419.873700
 21
740.710954
 31
0.0
 11
412.222399
 21
735.899903
 31
0.0
 11
404.486158
 21
731.213845
 31
0.0
 11
396.656490
 21
726.658802
 31
0.0
  0
LINE
  5
14a
100
AcDbEntity
  8
0
 62
7
100
AcDbLine
 10
384.089060
 20
719.781888
 30
0.0
 11
382.383710
 21
723.026080
 31
0.0
  0
LINE
  5
14b
100
AcDbEntity
  8
0
 62
7
100
AcDbLine
 10
382.383710
 20
723.026080
 30
0.0
 11
394.880370
 21
729.887730
 31
0.0
  0
SPLINE
  5
14c
100
AcDbEntity
  8
0
 62
7
100
AcDbSpline
 70
0
 71
3
 72
10
 73
6
 74
4
 40
0.000000
 40
0.000000
 40
0.000000
 40
0.000000
 40
4.781399
 40
9.556290
 40
14.326440
 40
14.326440
 40
14.326440
 40
14.326440
 10
396.656490
 20
726.658802
 30
0.0
 10
395.267116
 20
725.877881
 30
0.0
 10
392.490259
 20
724.317102
 30
0.0
 10
388.305350
 20
722.016361
 30
0.0
 10
385.494024
 20
720.526466
 30
0.0
 10
384.089060
 20
719.781888
 30
0.0
 11
396.656490
 21
726.658802
 31
0.0
 11
392.484703
 21
724.322572
 31
0.0
 11
388.298180
 21
722.026356
 31
0.0
 11
384.089060
 21
719.781888
 31
0.0
  0
LINE
  5
14d
100
AcDbEntity
  8
0
 62
7
100
AcDbLine
 10
344.592600
 20
705.228810
 30
0.0
 11
357.362630
 21
710.744493
 31
0.0
  0
LINE
  5
14e
100
AcDbEntity
  8
0
 62
7
100
AcDbLine
 10
357.362630
 20
710.744493
 30
0.0
 11
358.905630
 21
707.426757
 31
0.0
  0
SPLINE
  5
14f
100
AcDbEntity
  8
0
 62
7
100
AcDbSpline
 70
0
 71
3
 72
13
 73
9
 74
7
 40
0.000000
 40
0.000000
 40
0.000000
 40
0.000000
 40
17.406032
 40
50.394144
 40
71.375161
 40
92.353520
 40
125.117197
 40
142.377950
 40
142.377950
 40
142.377950
 40
142.377950
 10
394.880370
 20
729.887730
 30
0.0
 10
390.948501
 20
734.315906
 30
0.0
 10
379.564911
 20
747.136412
 30
0.0
 10
366.020254
 20
761.875524
 30
0.0
 10
336.905009
 20
783.344256
 30
0.0
 10
336.567350
 20
747.276691
 30
0.0
 10
340.098284
 20
727.673836
 30
0.0
 10
343.439667
 20
710.986661
 30
0.0
 10
344.592600
 20
705.228810
 30
0.0
 11
394.880370
 21
729.887730
 31
0.0
 11
383.301943
 21
742.884267
 31
0.0
 11
359.735017
 21
765.967065
 31
0.0
 11
340.932130
 21
775.275904
 31
0.0
 11
337.064843
 21
754.657086
 31
0.0
 11
341.235440
 21
722.159938
 31
0.0
 11
344.592600
 21
705.228810
 31
0.0
  0
SPLINE
  5
150
100
AcDbEntity
  8
0
 62
7
100
AcDbSpline
 70
0
 71
3
 72
13
 73
9
 74
7
 40
0.000000
 40
0.000000
 40
0.000000
 40
0.000000
 40
4.632000
 40
9.303552
 40
14.023826
 40
23.488574
 40
32.906557
 40
42.301547
 40
42.301547
 40
42.301547
 40
42.301547
 10
358.905630
 20
707.426757
 30
0.0
 10
357.496604
 20
706.795393
 30
0.0
 10
354.666521
 20
705.527275
 30
0.0
 10
350.376779
 20
703.669531
 30
0.0
 10
344.583070
 20
701.231813
 30
0.0
 10
337.275015
 20
698.316026
 30
0.0
 10
328.433765
 20
695.041496
 30
0.0
 10
322.468591
 20
693.105213
 30
0.0
 10
319.489650
 20
692.138255
 30
0.0
 11
358.905630
 21
707.426757
 31
0.0
 11
354.674642
 21
705.541508
 31
0.0
 11
350.388518
 21
703.683406
 31
0.0
 11
346.037090
 21
701.854183
 31
0.0
 11
337.246143
 21
698.346948
 31
0.0
 11
328.405737
 21
695.099541
 31
0.0
 11
319.489650
 21
692.138255
 31
0.0
  0
LINE
  5
151
100
AcDbEntity
  8
0
 62
7
100
AcDbLine
 10
292.344170
 20
702.453623
 30
0.0
 11
232.475100
 21
692.039725
 31
0.0
  0
SPLINE
  5
152
100
AcDbEntity
  8
0
 62
7
100
AcDbSpline
 70
0
 71
3
 72
10
 73
6
 74
4
 40
0.000000
 40
0.000000
 40
0.000000
 40
0.000000
 40
8.300834
 40
17.631271
 40
30.603397
 40
30.603397
 40
30.603397
 40
30.603397
 10
319.489650
 20
692.138255
 30
0.0
 10
316.557398
 20
692.407389
 30
0.0
 10
310.329188
 20
692.979039
 30
0.0
 10
305.534725
 20
704.162361
 30
0.0
 10
297.194944
 20
703.082005
 30
0.0
 10
292.344170
 20
702.453623
 30
0.0
 11
319.489650
 21
692.138255
 31
0.0
 11
311.461151
 21
694.247056
 31
0.0
 11
305.257129
 21
701.216071
 31
0.0
 11
292.344170
 21
702.453623
 31
0.0
  0
SPLINE
  5
153
100
AcDbEntity
  8
0
 62
7
100
AcDbSpline
 70
0
 71
3
 72
10
 73
6
 74
4
 40
0.000000
 40
0.000000
 40
0.000000
 40
0.000000
 40
9.890905
 40
19.949567
 40
31.923617
 40
31.923617
 40
31.923617
 40
31.923617
 10
232.475100
 20
692.039725
 30
0.0
 10
229.265270
 20
691.375000
 30
0.0
 10
222.791168
 20
690.034275
 30
0.0
 10
212.889885
 20
684.331337
 30
0.0
 10
211.098622
 20
676.863456
 30
0.0
 10
210.125130
 20
672.804910
 30
0.0
 11
232.475100
 21
692.039725
 31
0.0
 11
222.916068
 21
689.499074
 31
0.0
 11
214.534882
 21
683.937384
 31
0.0
 11
210.125130
 21
672.804910
 31
0.0
  0
SPLINE
  5
154
100
AcDbEntity
  8
0
 62
7
100
AcDbSpline
 70
0
 71
3
 72
10
 73
6
 74
4
 40
0.000000
 40
0.000000
 40
0.000000
 40
0.000000
 40
0.100867
 40
0.199564
 40
0.299886
 40
0.299886
 40
0.299886
 40
0.299886
 10
210.125130
 20
672.804910
 30
0.0
 10
210.128688
 20
672.771476
 30
0.0
 10
210.135729
 20
672.705328
 30
0.0
 10
210.145321
 20
672.605827
 30
0.0
 10
210.152175
 20
672.539842
 30
0.0
 10
210.155630
 20
672.506580
 30
0.0
 11
210.125130
 21
672.804910
 31
0.0
 11
210.135637
 21
672.704592
 31
0.0
 11
210.145389
 21
672.606378
 31
0.0
 11
210.155630
 21
672.506580
 31
0.0
  0
SPLINE
  5
155
100
AcDbEntity
  8
0
 62
7
100
AcDbSpline
 70
0
 71
3
 72
10
 73
6
 74
4
 40
0.000000
 40
0.000000
 40
0.000000
 40
0.000000
 40
8.978535
 40
17.963764
 40
26.962244
 40
26.962244
 40
26.962244
 40
26.962244
 10
210.155630
 20
672.506580
 30
0.0
 10
209.050670
 20
669.725142
 30
0.0
 10
206.839925
 20
664.160191
 30
0.0
 10
203.359592
 20
655.873052
 30
0.0
 10
200.919610
 20
650.397402
 30
0.0
 10
199.698720
 20
647.657560
 30
0.0
 11
210.155630
 21
672.506580
 31
0.0
 11
206.813757
 21
664.173155
 31
0.0
 11
203.331693
 21
655.890065
 31
0.0
 11
199.698720
 21
647.657560
 31
0.0
  0
LINE
  5
156
100
AcDbEntity
  8
0
 62
7
100
AcDbLine
 10
193.573890
 20
634.707150
 30
0.0
 11
190.286680
 21
636.329250
 31
0.0
  0
LINE
  5
157
100
AcDbEntity
  8
0
 62
7
100
AcDbLine
 10
190.286680
 20
636.329250
 30
0.0
 11
196.362950
 21
649.225540
 31
0.0
  0
SPLINE
  5
158
100
AcDbEntity
  8
0
 62
7
100
AcDbSpline
 70
0
 71
3
 72
10
 73
6
 74
4
 40
0.000000
 40
0.000000
 40
0.000000
 40
0.000000
 40
4.781352
 40
9.556147
 40
14.326245
 40
14.326245
 40
14.326245
 40
14.326245
 10
199.698720
 20
647.657560
 30
0.0
 10
199.033725
 20
646.209137
 30
0.0
 10
197.704647
 20
643.314278
 30
0.0
 10
195.671481
 20
638.993110
 30
0.0
 10
194.272857
 20
636.135335
 30
0.0
 10
193.573890
 20
634.707150
 30
0.0
 11
199.698720
 21
647.657560
 31
0.0
 11
197.696946
 21
643.315415
 31
0.0
 11
195.659798
 21
638.997001
 31
0.0
 11
193.573890
 21
634.707150
 31
0.0
  0
LINE
  5
159
100
AcDbEntity
  8
0
 62
7
100
AcDbLine
 10
170.173550
 20
599.717600
 30
0.0
 11
177.262760
 21
611.686980
 31
0.0
  0
LINE
  5
15a
100
AcDbEntity
  8
0
 62
7
100
AcDbLine
 10
177.262760
 20
611.686980
 30
0.0
 11
180.461160
 21
609.909470
 31
0.0
  0
SPLINE
  5
15b
100
AcDbEntity
  8
0
 62
7
100
AcDbSpline
 70
0
 71
3
 72
13
 73
9
 74
7
 40
0.000000
 40
0.000000
 40
0.000000
 40
0.000000
 40
17.405994
 40
50.394007
 40
71.374905
 40
92.353442
 40
125.117331
 40
142.378183
 40
142.378183
 40
142.378183
 40
142.378183
 10
196.362950
 20
649.225540
 30
0.0
 10
190.579214
 20
650.496981
 30
0.0
 10
173.834082
 20
654.178071
 30
0.0
 10
154.212895
 20
658.141191
 30
0.0
 10
118.039240
 20
658.396499
 30
0.0
 10
138.966051
 20
629.018474
 30
0.0
 10
153.344782
 20
615.234600
 30
0.0
 10
165.856446
 20
603.698194
 30
0.0
 10
170.173550
 20
599.717600
 30
0.0
 11
196.362950
 21
649.225540
 31
0.0
 11
179.356715
 21
652.934529
 31
0.0
 11
146.723098
 21
657.756984
 31
0.0
 11
126.039730
 21
654.236140
 31
0.0
 11
135.030423
 21
635.281815
 31
0.0
 11
157.505744
 21
611.442092
 31
0.0
 11
170.173550
 21
599.717600
 31
0.0
  0
SPLINE
  5
15c
100
AcDbEntity
  8
0
 62
7
100
AcDbSpline
 70
0
 71
3
 72
13
 73
9
 74
7
 40
0.000000
 40
0.000000
 40
0.000000
 40
0.000000
 40
4.632218
 40
9.304174
 40
14.024664
 40
23.489249
 40
32.906931
 40
42.301753
 40
42.301753
 40
42.301753
 40
42.301753
 10
180.461160
 20
609.909470
 30
0.0
 10
179.692355
 20
608.570390
 30
0.0
 10
178.148149
 20
605.880742
 30
0.0
 10
175.769992
 20
601.855810
 30
0.0
 10
172.515807
 20
596.477915
 30
0.0
 10
168.317306
 20
589.823535
 30
0.0
 10
163.089622
 20
581.977671
 30
0.0
 10
159.401934
 20
576.905049
 30
0.0
 10
157.560330
 20
574.371820
 30
0.0
 11
180.461160
 21
609.909470
 31
0.0
 11
178.146441
 21
605.897050
 31
0.0
 11
175.771246
 21
601.873914
 31
0.0
 11
173.326160
 21
597.836020
 31
0.0
 11
168.275794
 21
589.831511
 31
0.0
 11
163.032830
 21
582.008209
 31
0.0
 11
157.560330
 21
574.371820
 31
0.0
  0
LINE
  5
15d
100
AcDbEntity
  8
0
 62
7
100
AcDbLine
 10
129.535110
 20
566.760870
 30
0.0
 11
87.221833
 21
523.146040
 31
0.0
  0
SPLINE
  5
15e
100
AcDbEntity
  8
0
 62
7
100
AcDbSpline
 70
0
 71
3
 72
10
 73
6
 74
4
 40
0.000000
 40
0.000000
 40
0.000000
 40
0.000000
 40
8.301097
 40
17.631869
 40
30.604255
 40
30.604255
 40
30.604255
 40
30.604255
 10
157.560330
 20
574.371820
 30
0.0
 10
155.029829
 20
572.865982
 30
0.0
 10
149.654941
 20
569.667521
 30
0.0
 10
139.202313
 20
575.896543
 30
0.0
 10
133.090171
 20
570.120463
 30
0.0
 10
129.535110
 20
566.760870
 30
0.0
 11
157.560330
 21
574.371820
 31
0.0
 11
149.825388
 21
571.358702
 31
0.0
 11
140.709546
 21
573.349861
 31
0.0
 11
129.535110
 21
566.760870
 31
0.0
  0
SPLINE
  5
15f
100
AcDbEntity
  8
0
 62
7
100
AcDbSpline
 70
0
 71
3
 72
10
 73
6
 74
4
 40
0.000000
 40
0.000000
 40
0.000000
 40
0.000000
 40
9.890608
 40
19.948617
 40
31.922298
 40
31.922298
 40
31.922298
 40
31.922298
 10
87.221833
 20
523.146040
 30
0.0
 10
85.015753
 20
520.721705
 30
0.0
 10
80.566253
 20
515.832001
 30
0.0
 10
75.907878
 20
505.398944
 30
0.0
 10
78.848222
 20
498.304750
 30
0.0
 10
80.446227
 20
494.449230
 30
0.0
 11
87.221833
 21
523.146040
 31
0.0
 11
80.981770
 21
515.472335
 31
0.0
 11
77.470305
 21
506.047201
 31
0.0
 11
80.446227
 21
494.449230
 31
0.0
  0
SPLINE
  5
160
100
AcDbEntity
  8
0
 62
7
100
AcDbSpline
 70
0
 71
3
 72
10
 73
6
 74
4
 40
0.000000
 40
0.000000
 40
0.000000
 40
0.000000
 40
0.100125
 40
0.198144
 40
0.297753
 40
0.297753
 40
0.297753
 40
0.297753
 10
80.446227
 20
494.449230
 30
0.0
 10
80.468570
 20
494.424437
 30
0.0
 10
80.512786
 20
494.375372
 30
0.0
 10
80.578433
 20
494.300931
 30
0.0
 10
80.622453
 20
494.251922
 30
0.0
 10
80.644641
 20
494.227220
 30
0.0
 11
80.446227
 21
494.449230
 31
0.0
 11
80.513120
 21
494.374730
 31
0.0
 11
80.578192
 21
494.301427
 31
0.0
 11
80.644641
 21
494.227220
 31
0.0
  0
SPLINE
  5
161
100
AcDbEntity
  8
0
 62
7
100
AcDbSpline
 70
0
 71
3
 72
10
 73
6
 74
4
 40
0.000000
 40
0.000000
 40
0.000000
 40
0.000000
 40
8.979393
 40
17.965260
 40
26.964592
 40
26.964592
 40
26.964592
 40
26.964592
 10
80.644641
 20
494.227220
 30
0.0
 10
81.385709
 20
491.327243
 30
0.0
 10
82.868379
 20
485.525198
 30
0.0
 10
84.924213
 20
476.774369
 30
0.0
 10
86.168881
 20
470.909813
 30
0.0
 10
86.791681
 20
467.975340
 30
0.0
 11
80.644641
 21
494.227220
 31
0.0
 11
82.839624
 21
485.520237
 31
0.0
 11
84.891594
 21
476.771796
 31
0.0
 11
86.791681
 21
467.975340
 31
0.0
  0
LINE
  5
162
100
AcDbEntity
  8
0
 62
7
100
AcDbLine
 10
89.447533
 20
453.898210
 30
0.0
 11
85.835627
 21
453.277950
 31
0.0
  0
LINE
  5
163
100
AcDbEntity
  8
0
 62
7
100
AcDbLine
 10
85.835627
 20
453.277950
 30
0.0
 11
83.171448
 21
467.282930
 31
0.0
  0
SPLINE
  5
164
100
AcDbEntity
  8
0
 62
7
100
AcDbSpline
 70
0
 71
3
 72
10
 73
6
 74
4
 40
0.000000
 40
0.000000
 40
0.000000
 40
0.000000
 40
4.781278
 40
9.555947
 40
14.325982
 40
14.325982
 40
14.325982
 40
14.325982
 10
86.791681
 20
467.975340
 30
0.0
 10
87.104982
 20
466.412678
 30
0.0
 10
87.731150
 20
463.289514
 30
0.0
 10
88.625518
 20
458.598510
 30
0.0
 10
89.173617
 20
455.464469
 30
0.0
 10
89.447533
 20
453.898210
 30
0.0
 11
86.791681
 21
467.975340
 31
0.0
 11
87.724175
 21
463.285876
 31
0.0
 11
88.613852
 21
458.594827
 31
0.0
 11
89.447533
 21
453.898210
 31
0.0
  0
LINE
  5
165
100
AcDbEntity
  8
0
 62
7
100
AcDbLine
 10
23.291257
 20
430.574150
 30
0.0
 11
23.291257
 21
430.574150
 31
0.0
  0
SPLINE
  5
166
100
AcDbEntity
  8
0
 62
7
100
AcDbSpline
 70
0
 71
3
 72
10
 73
6
 74
4
 40
0.000000
 40
0.000000
 40
0.000000
 40
0.000000
 40
16.939151
 40
49.410380
 40
70.978327
 40
70.978327
 40
70.978327
 40
70.978327
 10
83.171448
 20
467.282930
 30
0.0
 10
78.023464
 20
465.004751
 30
0.0
 10
63.007137
 20
458.359455
 30
0.0
 10
40.576534
 20
449.233712
 30
0.0
 10
28.222114
 20
435.897041
 30
0.0
 10
23.291257
 20
430.574150
 30
0.0
 11
83.171448
 21
467.282930
 31
0.0
 11
67.657172
 21
460.482779
 31
0.0
 11
38.836187
 21
445.525121
 31
0.0
 11
23.291257
 21
430.574150
 31
0.0
  0
LINE
  5
167
100
AcDbEntity
  8
0
 62
7
100
AcDbLine
 10
342.814190
 20
64.060830
 30
0.0
 11
342.814190
 21
64.060830
 31
0.0
  0
SPLINE
  5
168
100
AcDbEntity
  8
0
 62
7
100
AcDbSpline
 70
0
 71
3
 72
61
 73
57
 74
55
 40
0.000000
 40
0.000000
 40
0.000000
 40
0.000000
 40
0.869304
 40
1.715603
 40
2.584907
 40
3.287567
 40
5.135763
 40
7.740937
 40
10.715919
 40
13.618312
 40
15.987374
 40
20.635802
 40
25.316922
 40
30.022286
 40
34.740985
 40
39.465976
 40
44.191172
 40
46.633546
 40
49.631290
 40
52.707621
 40
55.405008
 40
57.320541
 40
58.049267
 40
58.677029
 40
59.295592
 40
59.923354
 40
60.551117
 40
61.169679
 40
61.797441
 40
62.425204
 40
63.043766
 40
63.671529
 40
64.428923
 40
66.418769
 40
69.218634
 40
72.408616
 40
75.633936
 40
78.587692
 40
83.356773
 40
88.123595
 40
92.881527
 40
97.624334
 40
102.347175
 40
107.042298
 40
109.940366
 40
113.082273
 40
116.178905
 40
118.892340
 40
120.818962
 40
121.551853
 40
122.055527
 40
122.554340
 40
123.058014
 40
123.561687
 40
124.060500
 40
124.564174
 40
124.564174
 40
124.564174
 40
124.564174
 10
342.814190
 20
64.060830
 30
0.0
 10
342.858629
 20
63.769293
 30
0.0
 10
342.946330
 20
63.193934
 30
0.0
 10
343.572962
 20
62.520558
 30
0.0
 10
344.365371
 20
62.285592
 30
0.0
 10
345.500048
 20
62.193819
 30
0.0
 10
347.201414
 20
61.934559
 30
0.0
 10
349.649384
 20
61.566593
 30
0.0
 10
352.424353
 20
61.020579
 30
0.0
 10
355.103733
 20
60.393731
 30
0.0
 10
358.229532
 20
59.296371
 30
0.0
 10
361.730580
 20
57.567232
 30
0.0
 10
365.978164
 20
55.609383
 30
0.0
 10
370.203510
 20
53.546090
 30
0.0
 10
374.432150
 20
51.456443
 30
0.0
 10
378.617840
 20
49.271048
 30
0.0
 10
382.182997
 20
47.526541
 30
0.0
 10
385.037786
 20
45.690355
 30
0.0
 10
387.256777
 20
43.915369
 30
0.0
 10
389.476786
 20
42.011726
 30
0.0
 10
391.351988
 20
40.265573
 30
0.0
 10
392.654159
 20
39.047494
 30
0.0
 10
393.406753
 20
38.261565
 30
0.0
 10
393.925936
 20
37.840571
 30
0.0
 10
394.544859
 20
37.671419
 30
0.0
 10
395.179488
 20
37.717054
 30
0.0
 10
395.760025
 20
37.983151
 30
0.0
 10
396.212098
 20
38.432237
 30
0.0
 10
396.482002
 20
39.010963
 30
0.0
 10
396.531981
 20
39.645409
 30
0.0
 10
396.366425
 20
40.264943
 30
0.0
 10
395.944886
 20
40.796487
 30
0.0
 10
395.122786
 20
41.561573
 30
0.0
 10
393.803560
 20
42.859458
 30
0.0
 10
391.840136
 20
44.653944
 30
0.0
 10
389.525578
 20
46.673149
 30
0.0
 10
387.085577
 20
48.629170
 30
0.0
 10
383.988879
 20
50.573310
 30
0.0
 10
380.259314
 20
52.429118
 30
0.0
 10
376.032283
 20
54.626558
 30
0.0
 10
371.769746
 20
56.736459
 30
0.0
 10
367.507530
 20
58.813793
 30
0.0
 10
363.224710
 20
60.796985
 30
0.0
 10
359.528256
 20
62.589097
 30
0.0
 10
356.159198
 20
63.816900
 30
0.0
 10
353.188639
 20
64.508909
 30
0.0
 10
350.255756
 20
65.057418
 30
0.0
 10
347.709398
 20
65.467722
 30
0.0
 10
345.931135
 20
65.688906
 30
0.0
 10
344.889072
 20
65.842052
 30
0.0
 10
344.305034
 20
65.853921
 30
0.0
 10
343.818853
 20
65.697817
 30
0.0
 10
343.393958
 20
65.418489
 30
0.0
 10
343.067515
 20
65.029559
 30
0.0
 10
342.852515
 20
64.564854
 30
0.0
 10
342.827006
 20
64.229380
 30
0.0
 10
342.814190
 20
64.060830
 30
0.0
 11
342.814190
 21
64.060830
 31
0.0
 11
343.031770
 21
63.219196
 31
0.0
 11
343.602978
 21
62.594741
 31
0.0
 11
344.421940
 21
62.303210
 31
0.0
 11
345.119658
 21
62.220018
 31
0.0
 11
346.951299
 21
61.973195
 31
0.0
 11
349.524590
 21
61.566870
 31
0.0
 11
352.444749
 21
60.998370
 31
0.0
 11
355.261344
 21
60.297886
 31
0.0
 11
357.498630
 21
59.518780
 31
0.0
 11
361.728610
 21
57.591308
 31
0.0
 11
365.963626
 21
55.596936
 31
0.0
 11
370.197880
 21
53.544730
 31
0.0
 11
374.422136
 21
51.441927
 31
0.0
 11
378.628094
 21
49.288917
 31
0.0
 11
382.808330
 21
47.085940
 31
0.0
 11
384.859578
 21
45.760205
 31
0.0
 11
387.225266
 21
43.919012
 31
0.0
 11
389.557580
 21
41.912990
 31
0.0
 11
391.542510
 21
40.086533
 31
0.0
 11
392.924370
 21
38.759984
 31
0.0
 11
393.442840
 21
38.247900
 31
0.0
 11
393.949661
 21
37.877470
 31
0.0
 11
394.544394
 21
37.707434
 31
0.0
 11
395.170428
 21
37.753978
 31
0.0
 11
395.741200
 21
38.015331
 31
0.0
 11
396.180037
 21
38.451269
 31
0.0
 11
396.445168
 21
39.020295
 31
0.0
 11
396.495861
 21
39.646008
 31
0.0
 11
396.329772
 21
40.241855
 31
0.0
 11
395.962710
 21
40.751120
 31
0.0
 11
395.424196
 21
41.283707
 31
0.0
 11
393.989397
 21
42.662416
 31
0.0
 11
391.929430
 21
44.558670
 31
0.0
 11
389.519760
 21
46.649000
 31
0.0
 11
386.977110
 21
48.633343
 31
0.0
 11
384.484540
 21
50.218200
 31
0.0
 11
380.265528
 21
52.441727
 31
0.0
 11
376.022419
 21
54.613963
 31
0.0
 11
371.763080
 21
56.734330
 31
0.0
 11
367.494931
 21
58.802450
 31
0.0
 11
363.221796
 21
60.813803
 31
0.0
 11
358.949120
 21
62.760190
 31
0.0
 11
356.220022
 21
63.735292
 31
0.0
 11
353.169968
 21
64.489445
 31
0.0
 11
350.127730
 21
65.067300
 31
0.0
 11
347.447519
 21
65.490619
 31
0.0
 11
345.538188
 21
65.748164
 31
0.0
 11
344.810470
 21
65.835090
 31
0.0
 11
344.306878
 21
65.825996
 31
0.0
 11
343.830522
 21
65.678015
 31
0.0
 11
343.410420
 21
65.400163
 31
0.0
 11
343.085185
 21
65.015572
 31
0.0
 11
342.882322
 21
64.559874
 31
0.0
 11
342.814190
 21
64.060830
 31
0.0
  0
LINE
  5
169
100
AcDbEntity
  8
0
 62
7
100
AcDbLine
 10
240.045800
 20
356.120060
 30
0.0
 11
245.440770
 21
356.970660
 31
0.0
  0
SPLINE
  5
16a
100
AcDbEntity
  8
0
 62
7
100
AcDbSpline
 70
0
 71
3
 72
10
 73
6
 74
4
 40
0.000000
 40
0.000000
 40
0.000000
 40
0.000000
 40
9.494208
 40
18.985199
 40
28.479406
 40
28.479406
 40
28.479406
 40
28.479406
 10
237.602260
 20
384.468600
 30
0.0
 10
237.676565
 20
381.304277
 30
0.0
 10
237.825151
 20
374.976704
 30
0.0
 10
238.641146
 20
365.510092
 30
0.0
 10
239.577529
 20
359.250424
 30
0.0
 10
240.045800
 20
356.120060
 30
0.0
 11
237.602260
 21
384.468600
 31
0.0
 11
237.924055
 21
374.979847
 31
0.0
 11
238.739125
 21
365.523919
 31
0.0
 11
240.045800
 21
356.120060
 31
0.0
  0
SPLINE
  5
16b
100
AcDbEntity
  8
0
 62
7
100
AcDbSpline
 70
0
 71
3
 72
10
 73
6
 74
4
 40
0.000000
 40
0.000000
 40
0.000000
 40
0.000000
 40
9.209325
 40
18.415534
 40
27.624861
 40
27.624861
 40
27.624861
 40
27.624861
 10
245.440770
 20
356.970660
 30
0.0
 10
244.986573
 20
360.007098
 30
0.0
 10
244.078333
 20
366.078947
 30
0.0
 10
243.286902
 20
375.261514
 30
0.0
 10
243.142809
 20
381.399225
 30
0.0
 10
243.070750
 20
384.468600
 30
0.0
 11
245.440770
 21
356.970660
 31
0.0
 11
244.173374
 21
366.092358
 31
0.0
 11
243.382833
 21
375.264562
 31
0.0
 11
243.070750
 21
384.468600
 31
0.0
  0
LINE
  5
16c
100
AcDbEntity
  8
0
 62
7
100
AcDbLine
 10
245.365830
 20
412.239880
 30
0.0
 11
239.968090
 21
413.098810
 31
0.0
  0
SPLINE
  5
16d
100
AcDbEntity
  8
0
 62
7
100
AcDbSpline
 70
0
 71
3
 72
10
 73
6
 74
4
 40
0.000000
 40
0.000000
 40
0.000000
 40
0.000000
 40
9.298288
 40
18.593368
 40
27.891657
 40
27.891657
 40
27.891657
 40
27.891657
 10
243.070750
 20
384.468600
 30
0.0
 10
243.130733
 20
387.567907
 30
0.0
 10
243.250678
 20
393.765451
 30
0.0
 10
244.017085
 20
403.039622
 30
0.0
 10
244.916196
 20
409.172774
 30
0.0
 10
245.365830
 20
412.239880
 30
0.0
 11
243.070750
 21
384.468600
 31
0.0
 11
243.348473
 21
393.762739
 31
0.0
 11
244.114014
 21
403.026241
 31
0.0
 11
245.365830
 21
412.239880
 31
0.0
  0
LINE
  5
16e
100
AcDbEntity
  8
0
 62
7
100
AcDbLine
 10
237.602260
 20
384.468600
 30
0.0
 11
237.602260
 21
384.468600
 31
0.0
  0
LINE
  5
16f
100
AcDbEntity
  8
0
 62
7
100
AcDbLine
 10
257.539190
 20
467.335650
 30
0.0
 11
262.409640
 21
464.849090
 31
0.0
  0
SPLINE
  5
170
100
AcDbEntity
  8
0
 62
7
100
AcDbSpline
 70
0
 71
3
 72
10
 73
6
 74
4
 40
0.000000
 40
0.000000
 40
0.000000
 40
0.000000
 40
9.585867
 40
19.168427
 40
28.754294
 40
28.754294
 40
28.754294
 40
28.754294
 10
239.968090
 20
413.098810
 30
0.0
 10
239.504572
 20
409.936842
 30
0.0
 10
238.577697
 20
403.613997
 30
0.0
 10
237.787630
 20
394.052989
 30
0.0
 10
237.664057
 20
387.663764
 30
0.0
 10
237.602260
 20
384.468600
 30
0.0
 11
239.968090
 21
413.098810
 31
0.0
 11
238.677620
 21
403.600203
 31
0.0
 11
237.888463
 21
394.050194
 31
0.0
 11
237.602260
 21
384.468600
 31
0.0
  0
LINE
  5
171
100
AcDbEntity
  8
0
 62
7
100
AcDbLine
 10
295.029180
 20
509.503230
 30
0.0
 11
291.167510
 21
513.370450
 31
0.0
  0
SPLINE
  5
172
100
AcDbEntity
  8
0
 62
7
100
AcDbSpline
 70
0
 71
3
 72
10
 73
6
 74
4
 40
0.000000
 40
0.000000
 40
0.000000
 40
0.000000
 40
18.509064
 40
36.992916
 40
55.501979
 40
55.501979
 40
55.501979
 40
55.501979
 10
262.409640
 20
464.849090
 30
0.0
 10
265.397773
 20
470.251037
 30
0.0
 10
271.369969
 20
481.047573
 30
0.0
 10
282.322746
 20
496.041253
 30
0.0
 10
290.791778
 20
505.013866
 30
0.0
 10
295.029180
 20
509.503230
 30
0.0
 11
262.409640
 21
464.849090
 31
0.0
 11
271.706491
 21
480.853903
 31
0.0
 11
282.609582
 21
495.779564
 31
0.0
 11
295.029180
 21
509.503230
 31
0.0
  0
LINE
  5
173
100
AcDbEntity
  8
0
 62
7
100
AcDbLine
 10
257.539190
 20
467.335650
 30
0.0
 11
257.539190
 21
467.335650
 31
0.0
  0
SPLINE
  5
174
100
AcDbEntity
  8
0
 62
7
100
AcDbSpline
 70
0
 71
3
 72
10
 73
6
 74
4
 40
0.000000
 40
0.000000
 40
0.000000
 40
0.000000
 40
19.081384
 40
38.136778
 40
57.218170
 40
57.218170
 40
57.218170
 40
57.218170
 10
291.167510
 20
513.370450
 30
0.0
 10
286.799071
 20
508.742281
 30
0.0
 10
278.068144
 20
499.492246
 30
0.0
 10
266.776645
 20
484.034978
 30
0.0
 10
260.619741
 20
472.904622
 30
0.0
 10
257.539190
 20
467.335650
 30
0.0
 11
291.167510
 21
513.370450
 31
0.0
 11
278.363848
 21
499.222466
 31
0.0
 11
267.123572
 21
483.835320
 31
0.0
 11
257.539190
 21
467.335650
 31
0.0
  0
LINE
  5
175
100
AcDbEntity
  8
0
 62
7
100
AcDbLine
 10
290.980130
 20
255.754060
 30
0.0
 11
294.847360
 21
259.614340
 31
0.0
  0
SPLINE
  5
176
100
AcDbEntity
  8
0
 62
7
100
AcDbSpline
 70
0
 71
3
 72
10
 73
6
 74
4
 40
0.000000
 40
0.000000
 40
0.000000
 40
0.000000
 40
19.072106
 40
38.118254
 40
57.190360
 40
57.190360
 40
57.190360
 40
57.190360
 10
257.577990
 20
301.919290
 30
0.0
 10
260.631992
 20
296.339250
 30
0.0
 10
266.735841
 20
285.186763
 30
0.0
 10
277.951317
 20
269.685812
 30
0.0
 10
286.635221
 20
260.400085
 30
0.0
 10
290.980130
 20
255.754060
 30
0.0
 11
257.577990
 21
301.919290
 31
0.0
 11
267.083324
 21
285.384664
 31
0.0
 11
278.247969
 21
269.953966
 31
0.0
 11
290.980130
 21
255.754060
 31
0.0
  0
LINE
  5
177
100
AcDbEntity
  8
0
 62
7
100
AcDbLine
 10
262.447060
 20
304.394750
 30
0.0
 11
257.577990
 21
301.919290
 31
0.0
  0
SPLINE
  5
178
100
AcDbEntity
  8
0
 62
7
100
AcDbSpline
 70
0
 71
3
 72
10
 73
6
 74
4
 40
0.000000
 40
0.000000
 40
0.000000
 40
0.000000
 40
18.500026
 40
36.974873
 40
55.474895
 40
55.474895
 40
55.474895
 40
55.474895
 10
294.847360
 20
259.614340
 30
0.0
 10
290.632767
 20
264.120993
 30
0.0
 10
282.209317
 20
273.128165
 30
0.0
 10
271.330233
 20
288.164138
 30
0.0
 10
265.409461
 20
298.982091
 30
0.0
 10
262.447060
 20
304.394750
 30
0.0
 11
294.847360
 21
259.614340
 31
0.0
 11
282.497073
 21
273.388278
 31
0.0
 11
271.667293
 21
288.356105
 31
0.0
 11
262.447060
 21
304.394750
 31
0.0
  0
LINE
  5
179
100
AcDbEntity
  8
0
 62
7
100
AcDbLine
 10
391.251780
 20
204.553260
 30
0.0
 11
392.110700
 21
209.949600
 31
0.0
  0
SPLINE
  5
17a
100
AcDbEntity
  8
0
 62
7
100
AcDbSpline
 70
0
 71
3
 72
10
 73
6
 74
4
 40
0.000000
 40
0.000000
 40
0.000000
 40
0.000000
 40
19.082311
 40
38.138630
 40
57.220949
 40
57.220949
 40
57.220949
 40
57.220949
 10
337.014920
 20
222.124350
 30
0.0
 10
342.776104
 20
219.419557
 30
0.0
 10
354.290625
 20
214.013654
 30
0.0
 10
372.501940
 20
208.113745
 30
0.0
 10
384.998994
 20
205.740628
 30
0.0
 10
391.251780
 20
204.553260
 30
0.0
 11
337.014920
 21
222.124350
 31
0.0
 11
354.454584
 21
214.378853
 31
0.0
 11
372.583276
 21
208.505710
 31
0.0
 11
391.251780
 21
204.553260
 31
0.0
  0
LINE
  5
17b
100
AcDbEntity
  8
0
 62
7
100
AcDbLine
 10
339.501490
 20
226.993420
 30
0.0
 11
337.014920
 21
222.124350
 31
0.0
  0
LINE
  5
17c
100
AcDbEntity
  8
0
 62
7
100
AcDbLine
 10
337.332680
 20
546.772590
 30
0.0
 11
339.809540
 21
541.902130
 31
0.0
  0
SPLINE
  5
17d
100
AcDbEntity
  8
0
 62
7
100
AcDbSpline
 70
0
 71
3
 72
10
 73
6
 74
4
 40
0.000000
 40
0.000000
 40
0.000000
 40
0.000000
 40
18.509657
 40
36.994099
 40
55.503754
 40
55.503754
 40
55.503754
 40
55.503754
 10
392.110700
 20
209.949600
 30
0.0
 10
386.045562
 20
211.101346
 30
0.0
 10
373.923550
 20
213.403270
 30
0.0
 10
356.258760
 20
219.126137
 30
0.0
 10
345.089784
 20
224.369801
 30
0.0
 10
339.501490
 20
226.993420
 30
0.0
 11
392.110700
 21
209.949600
 31
0.0
 11
374.002446
 21
213.783468
 31
0.0
 11
356.417797
 21
219.480372
 31
0.0
 11
339.501490
 21
226.993420
 31
0.0
  0
LINE
  5
17e
100
AcDbEntity
  8
0
 62
7
100
AcDbLine
 10
392.384050
 20
558.908480
 30
0.0
 11
391.533460
 21
564.304840
 31
0.0
  0
SPLINE
  5
17f
100
AcDbEntity
  8
0
 62
7
100
AcDbSpline
 70
0
 71
3
 72
10
 73
6
 74
4
 40
0.000000
 40
0.000000
 40
0.000000
 40
0.000000
 40
18.494624
 40
36.964090
 40
55.458709
 40
55.458709
 40
55.458709
 40
55.458709
 10
339.809540
 20
541.902130
 30
0.0
 10
345.394740
 20
544.520527
 30
0.0
 10
356.557542
 20
549.753758
 30
0.0
 10
374.210474
 20
555.463973
 30
0.0
 10
386.323444
 20
557.759790
 30
0.0
 10
392.384050
 20
558.908480
 30
0.0
 11
339.809540
 21
541.902130
 31
0.0
 11
356.716133
 21
549.400013
 31
0.0
 11
374.289104
 21
555.084364
 31
0.0
 11
392.384050
 21
558.908480
 31
0.0
  0
LINE
  5
180
100
AcDbEntity
  8
0
 62
7
100
AcDbLine
 10
337.332680
 20
546.772590
 30
0.0
 11
337.332680
 21
546.772590
 31
0.0
  0
LINE
  5
181
100
AcDbEntity
  8
0
 62
7
100
AcDbLine
 10
418.327210
 20
554.577880
 30
0.0
 11
421.169000
 21
554.577880
 31
0.0
  0
LINE
  5
182
100
AcDbEntity
  8
0
 62
7
100
AcDbLine
 10
421.169000
 20
554.577880
 30
0.0
 11
421.169000
 21
604.570080
 31
0.0
  0
LINE
  5
183
100
AcDbEntity
  8
0
 62
7
100
AcDbLine
 10
421.169000
 20
604.570080
 30
0.0
 11
418.327210
 21
604.570080
 31
0.0
  0
LINE
  5
184
100
AcDbEntity
  8
0
 62
7
100
AcDbLine
 10
418.327210
 20
604.570080
 30
0.0
 11
418.327210
 21
554.577880
 31
0.0
  0
SPLINE
  5
185
100
AcDbEntity
  8
0
 62
7
100
AcDbSpline
 70
0
 71
3
 72
10
 73
6
 74
4
 40
0.000000
 40
0.000000
 40
0.000000
 40
0.000000
 40
19.066697
 40
38.107458
 40
57.174149
 40
57.174149
 40
57.174149
 40
57.174149
 10
391.533460
 20
564.304840
 30
0.0
 10
385.285383
 20
563.120636
 30
0.0
 10
372.797728
 20
560.753839
 30
0.0
 10
354.598746
 20
554.867038
 30
0.0
 10
343.090645
 20
549.471963
 30
0.0
 10
337.332680
 20
546.772590
 30
0.0
 11
391.533460
 21
564.304840
 31
0.0
 11
372.878788
 21
560.362486
 31
0.0
 11
354.762239
 21
554.502350
 31
0.0
 11
337.332680
 21
546.772590
 31
0.0
  0
LINE
  5
186
100
AcDbEntity
  8
0
 62
7
100
AcDbLine
 10
169.410270
 20
170.397920
 30
0.0
 11
169.410270
 21
170.397920
 31
0.0
  0
SPLINE
  5
187
100
AcDbEntity
  8
0
 62
7
100
AcDbSpline
 70
0
 71
3
 72
61
 73
57
 74
55
 40
0.000000
 40
0.000000
 40
0.000000
 40
0.000000
 40
0.869305
 40
1.715606
 40
2.584911
 40
3.287569
 40
5.135762
 40
7.740938
 40
10.715918
 40
13.618309
 40
15.987369
 40
20.635798
 40
25.316923
 40
30.022298
 40
34.740980
 40
39.465967
 40
44.191161
 40
46.633543
 40
49.631289
 40
52.707647
 40
55.405018
 40
57.320544
 40
58.049267
 40
58.676989
 40
59.295513
 40
59.923235
 40
60.550958
 40
61.169482
 40
61.797204
 40
62.424926
 40
63.043450
 40
63.671173
 40
64.428561
 40
66.418398
 40
69.218262
 40
72.408264
 40
75.633583
 40
78.587326
 40
83.356411
 40
88.123236
 40
92.881164
 40
97.623977
 40
102.346818
 40
107.041934
 40
109.940005
 40
113.081912
 40
116.178544
 40
118.891980
 40
120.818598
 40
121.551486
 40
122.055160
 40
122.553973
 40
123.057647
 40
123.561321
 40
124.060134
 40
124.563808
 40
124.563808
 40
124.563808
 40
124.563808
 10
169.410270
 20
170.397920
 30
0.0
 10
169.274860
 20
170.135941
 30
0.0
 10
169.007622
 20
169.618916
 30
0.0
 10
169.118776
 20
168.705817
 30
0.0
 10
169.621738
 20
168.049957
 30
0.0
 10
170.485769
 20
167.308769
 30
0.0
 10
171.709814
 20
166.098986
 30
0.0
 10
173.473976
 20
164.362414
 30
0.0
 10
175.398038
 20
162.289599
 30
0.0
 10
177.197246
 20
160.207567
 30
0.0
 10
179.081051
 20
157.482482
 30
0.0
 10
180.897104
 20
154.025718
 30
0.0
 10
183.182678
 20
149.945111
 30
0.0
 10
185.388228
 20
145.792248
 30
0.0
 10
187.581079
 20
141.616198
 30
0.0
 10
189.682818
 20
137.387892
 30
0.0
 10
191.541711
 20
133.881015
 30
0.0
 10
192.771987
 20
130.717498
 30
0.0
 10
193.523883
 20
127.977203
 30
0.0
 10
194.200930
 20
125.132221
 30
0.0
 10
194.691650
 20
122.617337
 30
0.0
 10
195.029186
 20
120.866509
 30
0.0
 10
195.176056
 20
119.788325
 30
0.0
 10
195.348704
 20
119.142612
 30
0.0
 10
195.750001
 20
118.642032
 30
0.0
 10
196.290231
 20
118.305973
 30
0.0
 10
196.916264
 20
118.180042
 30
0.0
 10
197.545924
 20
118.277632
 30
0.0
 10
198.104417
 20
118.587153
 30
0.0
 10
198.517765
 20
119.071004
 30
0.0
 10
198.747999
 20
119.669473
 30
0.0
 10
198.719486
 20
120.347252
 30
0.0
 10
198.504051
 20
121.449415
 30
0.0
 10
198.199674
 20
123.274843
 30
0.0
 10
197.666008
 20
125.880691
 30
0.0
 10
196.980363
 20
128.874733
 30
0.0
 10
196.156088
 20
131.891389
 30
0.0
 10
194.793490
 20
135.284399
 30
0.0
 10
192.867064
 20
138.977978
 30
0.0
 10
190.738945
 20
143.240331
 30
0.0
 10
188.530657
 20
147.452740
 30
0.0
 10
186.303463
 20
151.638599
 30
0.0
 10
184.004280
 20
155.760413
 30
0.0
 10
182.067178
 20
159.382990
 30
0.0
 10
180.063227
 20
162.356579
 30
0.0
 10
178.066746
 20
164.662476
 30
0.0
 10
176.016395
 20
166.830133
 30
0.0
 10
174.197524
 20
168.658790
 30
0.0
 10
172.888890
 20
169.882968
 30
0.0
 10
172.135861
 20
170.619371
 30
0.0
 10
171.670343
 20
170.972263
 30
0.0
 10
171.185258
 20
171.131743
 30
0.0
 10
170.677325
 20
171.155509
 30
0.0
 10
170.184620
 20
171.032738
 30
0.0
 10
169.737533
 20
170.783157
 30
0.0
 10
169.519710
 20
170.526747
 30
0.0
 10
169.410270
 20
170.397920
 30
0.0
 11
169.410270
 21
170.397920
 31
0.0
 11
169.091593
 21
169.589133
 31
0.0
 11
169.186663
 21
168.748189
 31
0.0
 11
169.677860
 21
168.030960
 31
0.0
 11
170.193426
 21
167.553551
 31
0.0
 11
171.530174
 21
166.277259
 31
0.0
 11
173.373180
 21
164.435990
 31
0.0
 11
175.401484
 21
162.259642
 31
0.0
 11
177.268419
 21
160.037385
 31
0.0
 11
178.620470
 21
158.092030
 31
0.0
 11
180.909659
 21
154.046353
 31
0.0
 11
183.163591
 21
149.943583
 31
0.0
 11
185.382900
 21
145.794460
 31
0.0
 11
187.564429
 21
141.610337
 31
0.0
 11
189.701621
 21
137.396323
 31
0.0
 11
191.788630
 21
133.157000
 31
0.0
 11
192.668873
 21
130.878755
 31
0.0
 11
193.500520
 21
127.998679
 31
0.0
 11
194.208270
 21
125.004840
 31
0.0
 11
194.740554
 21
122.360509
 31
0.0
 11
195.078783
 21
120.475081
 31
0.0
 11
195.197240
 21
119.756050
 31
0.0
 11
195.389576
 21
119.158520
 31
0.0
 11
195.770790
 21
118.671439
 31
0.0
 11
196.304602
 21
118.341166
 31
0.0
 11
196.919949
 21
118.217136
 31
0.0
 11
197.531175
 21
118.311870
 31
0.0
 11
198.080107
 21
118.616351
 31
0.0
 11
198.488898
 21
119.092718
 31
0.0
 11
198.704785
 21
119.672342
 31
0.0
 11
198.707220
 21
120.300060
 31
0.0
 11
198.584594
 21
121.047456
 31
0.0
 11
198.234196
 21
123.006198
 31
0.0
 11
197.682250
 21
125.751120
 31
0.0
 11
196.961459
 21
128.858623
 31
0.0
 11
196.070778
 21
131.958521
 31
0.0
 11
194.985780
 21
134.705770
 31
0.0
 11
192.879495
 21
138.984523
 31
0.0
 11
190.723561
 21
143.235943
 31
0.0
 11
188.524010
 21
147.454930
 31
0.0
 11
186.286604
 21
151.636831
 31
0.0
 11
184.011809
 21
155.775736
 31
0.0
 11
181.699210
 21
159.861810
 31
0.0
 11
180.064468
 21
162.254806
 31
0.0
 11
178.040199
 21
164.657704
 31
0.0
 11
175.918630
 21
166.913380
 31
0.0
 11
173.999116
 21
168.831244
 31
0.0
 11
172.605820
 21
170.161876
 31
0.0
 11
172.068180
 21
170.659940
 31
0.0
 11
171.655420
 21
170.948587
 31
0.0
 11
171.183059
 21
171.108864
 31
0.0
 11
170.679871
 21
171.131008
 31
0.0
 11
170.190694
 21
171.011036
 31
0.0
 11
169.758722
 21
170.761608
 31
0.0
 11
169.410270
 21
170.397920
 31
0.0
  0
LINE
  5
188
100
AcDbEntity
  8
0
 62
7
100
AcDbLine
 10
91.626922
 20
358.350740
 30
0.0
 11
91.626922
 21
358.350740
 31
0.0
  0
SPLINE
  5
189
100
AcDbEntity
  8
0
 62
7
100
AcDbSpline
 70
0
 71
3
 72
61
 73
57
 74
55
 40
0.000000
 40
0.000000
 40
0.000000
 40
0.000000
 40
0.869304
 40
1.715604
 40
2.584908
 40
3.287567
 40
5.135761
 40
7.740936
 40
10.715918
 40
13.618311
 40
15.987376
 40
20.635799
 40
25.316924
 40
30.022305
 40
34.740982
 40
39.465966
 40
44.191156
 40
46.633537
 40
49.631286
 40
52.707648
 40
55.405017
 40
57.320542
 40
58.049265
 40
58.676892
 40
59.295326
 40
59.922953
 40
60.550581
 40
61.169014
 40
61.796642
 40
62.424269
 40
63.042702
 40
63.670330
 40
64.427718
 40
66.417555
 40
69.217429
 40
72.407422
 40
75.632738
 40
78.586475
 40
83.355563
 40
88.122392
 40
92.880321
 40
97.623133
 40
102.345977
 40
107.041098
 40
109.939163
 40
113.081071
 40
116.177707
 40
118.891137
 40
120.817753
 40
121.550640
 40
122.054317
 40
122.553133
 40
123.056809
 40
123.560486
 40
124.059302
 40
124.562978
 40
124.562978
 40
124.562978
 40
124.562978
 10
91.626922
 20
358.350740
 30
0.0
 10
91.363386
 20
358.218386
 30
0.0
 10
90.843289
 20
357.957179
 30
0.0
 10
90.396512
 20
357.153131
 30
0.0
 10
90.417919
 20
356.326896
 30
0.0
 10
90.681267
 20
355.219396
 30
0.0
 10
90.960445
 20
353.521185
 30
0.0
 10
91.366945
 20
351.079318
 30
0.0
 10
91.705173
 20
348.271439
 30
0.0
 10
91.936973
 20
345.529489
 30
0.0
 10
91.859258
 20
342.217575
 30
0.0
 10
91.296628
 20
338.353546
 30
0.0
 10
90.747177
 20
333.708839
 30
0.0
 10
90.090517
 20
329.052712
 30
0.0
 10
89.409950
 20
324.385292
 30
0.0
 10
88.624952
 20
319.729154
 30
0.0
 10
88.067535
 20
315.799405
 30
0.0
 10
87.203381
 20
312.516928
 30
0.0
 10
86.200977
 20
309.858025
 30
0.0
 10
85.076477
 20
307.158428
 30
0.0
 10
83.995244
 20
304.835415
 30
0.0
 10
83.239261
 20
303.220546
 30
0.0
 10
82.724276
 20
302.262008
 30
0.0
 10
82.484616
 20
301.638122
 30
0.0
 10
82.515124
 20
300.997379
 30
0.0
 10
82.754678
 20
300.408078
 30
0.0
 10
83.187085
 20
299.938321
 30
0.0
 10
83.753765
 20
299.647214
 30
0.0
 10
84.387424
 20
299.569326
 30
0.0
 10
85.006152
 20
299.717719
 30
0.0
 10
85.544147
 20
300.066427
 30
0.0
 10
85.919600
 20
300.631360
 30
0.0
 10
86.393049
 20
301.649682
 30
0.0
 10
87.219813
 20
303.305363
 30
0.0
 10
88.319706
 20
305.727243
 30
0.0
 10
89.524880
 20
308.552475
 30
0.0
 10
90.631167
 20
311.477495
 30
0.0
 10
91.523168
 20
315.023409
 30
0.0
 10
92.135685
 20
319.143903
 30
0.0
 10
92.919353
 20
323.843099
 30
0.0
 10
93.608789
 20
328.549011
 30
0.0
 10
94.267353
 20
333.244553
 30
0.0
 10
94.830012
 20
337.930599
 30
0.0
 10
95.392155
 20
341.999927
 30
0.0
 10
95.518758
 20
345.583504
 30
0.0
 10
95.258947
 20
348.622515
 30
0.0
 10
94.874309
 20
351.581354
 30
0.0
 10
94.477658
 20
354.129872
 30
0.0
 10
94.138507
 20
355.889445
 30
0.0
 10
93.962144
 20
356.927828
 30
0.0
 10
93.792959
 20
357.486951
 30
0.0
 10
93.494257
 20
357.901102
 30
0.0
 10
93.097299
 20
358.218887
 30
0.0
 10
92.626526
 20
358.409169
 30
0.0
 10
92.118123
 20
358.470045
 30
0.0
 10
91.791184
 20
358.390637
 30
0.0
 10
91.626922
 20
358.350740
 30
0.0
 11
91.626922
 21
358.350740
 31
0.0
 11
90.893717
 21
357.883728
 31
0.0
 11
90.476340
 21
357.147508
 31
0.0
 11
90.452154
 21
356.278540
 31
0.0
 11
90.588639
 21
355.589264
 31
0.0
 11
90.919900
 21
353.770999
 31
0.0
 11
91.328647
 21
351.198090
 31
0.0
 11
91.690352
 21
348.245178
 31
0.0
 11
91.894526
 21
345.349975
 31
0.0
 11
91.844916
 21
342.981430
 31
0.0
 11
91.318917
 21
338.362863
 31
0.0
 11
90.730838
 21
333.718824
 31
0.0
 11
90.087505
 21
329.057630
 31
0.0
 11
89.393034
 21
324.390337
 31
0.0
 11
88.645120
 21
319.724923
 31
0.0
 11
87.841732
 21
315.068530
 31
0.0
 11
87.214746
 21
312.707998
 31
0.0
 11
86.194698
 21
309.889132
 31
0.0
 11
85.007538
 21
307.051060
 31
0.0
 11
83.883868
 21
304.598884
 31
0.0
 11
83.049274
 21
302.874736
 31
0.0
 11
82.722473
 21
302.223400
 31
0.0
 11
82.527013
 21
301.626984
 31
0.0
 11
82.549219
 21
301.008950
 31
0.0
 11
82.786978
 21
300.428100
 31
0.0
 11
83.211861
 21
299.966158
 31
0.0
 11
83.761956
 21
299.683570
 31
0.0
 11
84.384923
 21
299.607224
 31
0.0
 11
84.995567
 21
299.752244
 31
0.0
 11
85.510897
 21
300.094143
 31
0.0
 11
85.881882
 21
300.600390
 31
0.0
 11
86.221981
 21
301.277124
 31
0.0
 11
87.089817
 21
303.067743
 31
0.0
 11
88.256700
 21
305.612870
 31
0.0
 11
89.500112
 21
308.550553
 31
0.0
 11
90.601611
 21
311.581950
 31
0.0
 11
91.338622
 21
314.442260
 31
0.0
 11
92.149591
 21
319.141891
 31
0.0
 11
92.904325
 21
323.848592
 31
0.0
 11
93.604704
 21
328.554690
 31
0.0
 11
94.252671
 21
333.253031
 31
0.0
 11
94.845110
 21
337.938569
 31
0.0
 11
95.375907
 21
342.603590
 31
0.0
 11
95.459942
 21
345.500436
 31
0.0
 11
95.234667
 21
348.634257
 31
0.0
 11
94.844142
 21
351.706170
 31
0.0
 11
94.418510
 21
354.386009
 31
0.0
 11
94.073439
 21
356.281471
 31
0.0
 11
93.931235
 21
357.000430
 31
0.0
 11
93.766969
 21
357.476568
 31
0.0
 11
93.479029
 21
357.883885
 31
0.0
 11
93.084956
 21
358.197568
 31
0.0
 11
92.618684
 21
358.388041
 31
0.0
 11
92.122598
 21
358.440157
 31
0.0
 11
91.626922
 21
358.350740
 31
0.0
  0
LINE
  5
18a
100
AcDbEntity
  8
0
 62
7
100
AcDbLine
 10
139.174760
 20
556.127660
 30
0.0
 11
139.174760
 21
556.127660
 31
0.0
  0
SPLINE
  5
18b
100
AcDbEntity
  8
0
 62
7
100
AcDbSpline
 70
0
 71
3
 72
61
 73
57
 74
55
 40
0.000000
 40
0.000000
 40
0.000000
 40
0.000000
 40
0.869305
 40
1.715606
 40
2.584911
 40
3.287568
 40
5.135759
 40
7.740932
 40
10.715922
 40
13.618314
 40
15.987374
 40
20.635802
 40
25.316927
 40
30.022303
 40
34.740980
 40
39.465965
 40
44.191152
 40
46.633537
 40
49.631288
 40
52.707642
 40
55.405017
 40
57.320543
 40
58.049265
 40
58.676997
 40
59.295530
 40
59.923261
 40
60.550993
 40
61.169526
 40
61.797258
 40
62.424989
 40
63.043522
 40
63.671254
 40
64.428643
 40
66.418480
 40
69.218344
 40
72.408341
 40
75.633661
 40
78.587397
 40
83.356487
 40
88.123317
 40
92.881248
 40
97.624057
 40
102.346897
 40
107.042017
 40
109.940085
 40
113.081990
 40
116.178628
 40
118.892059
 40
120.818677
 40
121.551565
 40
122.055241
 40
122.554056
 40
123.057732
 40
123.561408
 40
124.060223
 40
124.563899
 40
124.563899
 40
124.563899
 40
124.563899
 10
139.174760
 20
556.127660
 30
0.0
 10
138.883759
 20
556.175486
 30
0.0
 10
138.309458
 20
556.269873
 30
0.0
 10
137.475398
 20
555.881994
 30
0.0
 10
137.007066
 20
555.200975
 30
0.0
 10
136.569150
 20
554.150196
 30
0.0
 10
135.796829
 20
552.612219
 30
0.0
 10
134.690413
 20
550.397766
 30
0.0
 10
133.313606
 20
547.927342
 30
0.0
 10
131.889461
 20
545.572806
 30
0.0
 10
129.879884
 20
542.939099
 30
0.0
 10
127.153495
 20
540.143733
 30
0.0
 10
123.978890
 20
536.709046
 30
0.0
 10
120.710833
 20
533.328142
 30
0.0
 10
117.416809
 20
529.952142
 30
0.0
 10
114.044928
 20
526.646653
 30
0.0
 10
111.284113
 20
523.795067
 30
0.0
 10
108.655608
 20
521.647420
 30
0.0
 10
106.281783
 20
520.085521
 30
0.0
 10
103.785253
 20
518.562476
 30
0.0
 10
101.545103
 20
517.318624
 30
0.0
 10
99.984268
 20
516.456575
 30
0.0
 10
99.004242
 20
515.983705
 30
0.0
 10
98.443468
 20
515.619984
 30
0.0
 10
98.091382
 20
515.083637
 30
0.0
 10
97.938703
 20
514.465992
 30
0.0
 10
98.012388
 20
513.831674
 30
0.0
 10
98.299781
 20
513.262980
 30
0.0
 10
98.766747
 20
512.827464
 30
0.0
 10
99.354659
 20
512.583868
 30
0.0
 10
99.994995
 20
512.549848
 30
0.0
 10
100.630788
 20
512.786431
 30
0.0
 10
101.612443
 20
513.331898
 30
0.0
 10
103.254469
 20
514.185471
 30
0.0
 10
105.567856
 20
515.498280
 30
0.0
 10
108.203488
 20
517.075566
 30
0.0
 10
110.817777
 20
518.791700
 30
0.0
 10
113.623665
 20
521.136095
 30
0.0
 10
116.541162
 20
524.109622
 30
0.0
 10
119.937285
 20
527.450720
 30
0.0
 10
123.261116
 20
530.852642
 30
0.0
 10
126.553870
 20
534.264324
 30
0.0
 10
129.763459
 20
537.724691
 30
0.0
 10
132.610130
 20
540.686428
 30
0.0
 10
134.818931
 20
543.511184
 30
0.0
 10
136.395024
 20
546.122512
 30
0.0
 10
137.822999
 20
548.742351
 30
0.0
 10
139.000088
 20
551.037290
 30
0.0
 10
139.759963
 20
552.660163
 30
0.0
 10
140.227632
 20
553.603895
 30
0.0
 10
140.419400
 20
554.155681
 30
0.0
 10
140.421175
 20
554.666307
 30
0.0
 10
140.286818
 20
555.156726
 30
0.0
 10
140.017800
 20
555.587380
 30
0.0
 10
139.642275
 20
555.935460
 30
0.0
 10
139.331101
 20
556.063387
 30
0.0
 10
139.174760
 20
556.127660
 30
0.0
 11
139.174760
 21
556.127660
 31
0.0
 11
138.307081
 21
556.180809
 31
0.0
 11
137.536675
 21
555.830523
 31
0.0
 11
137.006340
 21
555.141730
 31
0.0
 11
136.711614
 21
554.503871
 31
0.0
 11
135.910866
 21
552.838155
 31
0.0
 11
134.729240
 21
550.516370
 31
0.0
 11
133.286180
 21
547.914804
 31
0.0
 11
131.749603
 21
545.452526
 31
0.0
 11
130.317270
 21
543.565500
 31
0.0
 11
127.177002
 21
540.138169
 31
0.0
 11
123.971538
 21
536.726727
 31
0.0
 11
120.711290
 21
533.333890
 31
0.0
 11
117.406090
 21
529.966167
 31
0.0
 11
114.058754
 21
526.631376
 31
0.0
 11
110.671840
 21
523.336500
 31
0.0
 11
108.777110
 21
521.795319
 31
0.0
 11
106.294984
 21
520.114378
 31
0.0
 11
103.666380
 21
518.516130
 31
0.0
 11
101.315955
 21
517.192750
 31
0.0
 11
99.627326
 21
516.288443
 31
0.0
 11
98.980094
 21
515.953590
 31
0.0
 11
98.471229
 21
515.586026
 31
0.0
 11
98.125776
 21
515.072952
 31
0.0
 11
97.976615
 21
514.463199
 31
0.0
 11
98.048806
 21
513.839632
 31
0.0
 11
98.327787
 21
513.287588
 31
0.0
 11
98.787004
 21
512.859608
 31
0.0
 11
99.366390
 21
512.618032
 31
0.0
 11
99.984368
 21
512.591835
 31
0.0
 11
100.582120
 21
512.783510
 31
0.0
 11
101.255043
 21
513.131091
 31
0.0
 11
103.009640
 21
514.069623
 31
0.0
 11
105.449650
 21
515.442790
 31
0.0
 11
108.182321
 21
517.088569
 31
0.0
 11
110.855266
 21
518.893578
 31
0.0
 11
113.132770
 21
520.774410
 31
0.0
 11
116.551231
 21
524.099819
 31
0.0
 11
119.928356
 21
527.463997
 31
0.0
 11
123.261150
 21
530.859640
 31
0.0
 11
126.546977
 21
534.279812
 31
0.0
 11
129.780357
 21
537.722264
 31
0.0
 11
132.951810
 21
541.184350
 31
0.0
 11
134.722522
 21
543.478555
 31
0.0
 11
136.382281
 21
546.146282
 31
0.0
 11
137.871960
 21
548.861060
 31
0.0
 11
139.102790
 21
551.279276
 31
0.0
 11
139.937750
 21
553.015564
 31
0.0
 11
140.245300
 21
553.680800
 31
0.0
 11
140.392271
 21
554.162556
 31
0.0
 11
140.398737
 21
554.661329
 31
0.0
 11
140.264302
 21
555.146733
 31
0.0
 11
139.999037
 21
555.574896
 31
0.0
 11
139.628328
 21
555.908649
 31
0.0
 11
139.174760
 21
556.127660
 31
0.0
  0
LINE
  5
18c
100
AcDbEntity
  8
0
 62
7
100
AcDbLine
 10
293.892130
 20
688.184630
 30
0.0
 11
293.892130
 21
688.184630
 31
0.0
  0
LINE
  5
18d
100
AcDbEntity
  8
0
 62
5
100
AcDbLine
 10
405.563170
 20
77.896120
 30
0.0
 11
405.563170
 21
84.198439
 31
0.0
  0
LINE
  5
18e
100
AcDbEntity
  8
0
 62
5
100
AcDbLine
 10
405.563170
 20
84.198439
 30
0.0
 11
433.933007
 21
84.198439
 31
0.0
  0
LINE
  5
18f
100
AcDbEntity
  8
0
 62
5
100
AcDbLine
 10
433.933007
 20
84.198439
 30
0.0
 11
433.933007
 21
77.896120
 31
0.0
  0
LINE
  5
190
100
AcDbEntity
  8
0
 62
5
100
AcDbLine
 10
433.933007
 20
77.896120
 30
0.0
 11
405.563170
 21
77.896120
 31
0.0
  0
SPLINE
  5
191
100
AcDbEntity
  8
0
 62
7
100
AcDbSpline
 70
0
 71
3
 72
61
 73
57
 74
55
 40
0.000000
 40
0.000000
 40
0.000000
 40
0.000000
 40
0.869304
 40
1.715603
 40
2.584906
 40
3.287564
 40
5.135757
 40
7.740930
 40
10.715915
 40
13.618306
 40
15.987366
 40
20.635797
 40
25.316920
 40
30.022296
 40
34.740978
 40
39.465964
 40
44.191149
 40
46.633535
 40
49.631281
 40
52.707631
 40
55.405010
 40
57.320534
 40
58.049255
 40
58.676964
 40
59.295475
 40
59.923184
 40
60.550893
 40
61.169404
 40
61.797113
 40
62.424822
 40
63.043333
 40
63.671042
 40
64.428429
 40
66.418266
 40
69.218142
 40
72.408134
 40
75.633450
 40
78.587191
 40
83.356276
 40
88.123103
 40
92.881031
 40
97.623835
 40
102.346677
 40
107.041800
 40
109.939866
 40
113.081770
 40
116.178406
 40
118.891841
 40
120.818464
 40
121.551355
 40
122.055029
 40
122.553841
 40
123.057515
 40
123.561188
 40
124.060001
 40
124.563675
 40
124.563675
 40
124.563675
 40
124.563675
 10
293.892130
 20
688.184630
 30
0.0
 10
293.684817
 20
688.394368
 30
0.0
 10
293.275677
 20
688.808292
 30
0.0
 10
292.372921
 20
688.984740
 30
0.0
 10
291.593740
 20
688.709063
 30
0.0
 10
290.621825
 20
688.116367
 30
0.0
 10
289.093001
 20
687.326078
 30
0.0
 10
286.896265
 20
686.184893
 30
0.0
 10
284.330332
 20
684.995538
 30
0.0
 10
281.794215
 20
683.927770
 30
0.0
 10
278.620377
 20
682.978261
 30
0.0
 10
274.771607
 20
682.319294
 30
0.0
 10
270.184438
 20
681.406561
 30
0.0
 10
265.553280
 20
680.592254
 30
0.0
 10
260.903991
 20
679.797204
 30
0.0
 10
256.233164
 20
679.104945
 30
0.0
 10
252.323497
 20
678.420736
 30
0.0
 10
248.934639
 20
678.228242
 30
0.0
 10
246.096116
 20
678.359942
 30
0.0
 10
243.181159
 20
678.595192
 30
0.0
 10
240.637722
 20
678.905624
 30
0.0
 10
238.868279
 20
679.125634
 30
0.0
 10
237.797485
 20
679.319140
 30
0.0
 10
237.130033
 20
679.354450
 30
0.0
 10
236.529964
 20
679.127475
 30
0.0
 10
236.043430
 20
678.717534
 30
0.0
 10
235.730218
 20
678.161067
 30
0.0
 10
235.628459
 20
677.532082
 30
0.0
 10
235.750239
 20
676.905288
 30
0.0
 10
236.082662
 20
676.362660
 30
0.0
 10
236.580674
 20
675.958757
 30
0.0
 10
237.234074
 20
675.776404
 30
0.0
 10
238.348866
 20
675.640722
 30
0.0
 10
240.179009
 20
675.366106
 30
0.0
 10
242.822232
 20
675.068410
 30
0.0
 10
245.881610
 20
674.795287
 30
0.0
 10
249.005331
 20
674.647025
 30
0.0
 10
252.653341
 20
674.894416
 30
0.0
 10
256.761440
 20
675.585194
 30
0.0
 10
261.472806
 20
676.292010
 30
0.0
 10
266.161439
 20
677.090517
 30
0.0
 10
270.830667
 20
677.915193
 30
0.0
 10
275.461231
 20
678.828140
 30
0.0
 10
279.505102
 20
679.551009
 30
0.0
 10
282.952411
 20
680.537978
 30
0.0
 10
285.762395
 20
681.724181
 30
0.0
 10
288.457556
 20
683.004331
 30
0.0
 10
290.758774
 20
684.169102
 30
0.0
 10
292.327428
 20
685.035397
 30
0.0
 10
293.260492
 20
685.524007
 30
0.0
 10
293.739965
 20
685.857693
 30
0.0
 10
294.041537
 20
686.269754
 30
0.0
 10
294.221099
 20
686.745482
 30
0.0
 10
294.256591
 20
687.252011
 30
0.0
 10
294.157382
 20
687.754340
 30
0.0
 10
293.980833
 20
688.040737
 30
0.0
 10
293.892130
 20
688.184630
 30
0.0
 11
293.892130
 21
688.184630
 31
0.0
 11
293.221404
 21
688.737635
 31
0.0
 11
292.392241
 21
688.907081
 31
0.0
 11
291.558330
 21
688.661560
 31
0.0
 11
290.944966
 21
688.318758
 31
0.0
 11
289.318060
 21
687.441836
 31
0.0
 11
286.997390
 21
686.258020
 31
0.0
 11
284.300775
 21
685.001517
 31
0.0
 11
281.610369
 21
683.912670
 31
0.0
 11
279.342420
 21
683.227940
 31
0.0
 11
274.787352
 21
682.300976
 31
0.0
 11
270.188884
 21
681.425184
 31
0.0
 11
265.557030
 21
680.596640
 31
0.0
 11
260.903561
 21
679.814849
 31
0.0
 11
256.235369
 21
679.084461
 31
0.0
 11
251.558620
 21
678.409630
 31
0.0
 11
249.119866
 21
678.276480
 31
0.0
 11
246.123757
 21
678.375527
 31
0.0
 11
243.057750
 21
678.627570
 31
0.0
 11
240.378348
 21
678.938476
 31
0.0
 11
238.480682
 21
679.199428
 31
0.0
 11
237.760240
 21
679.308960
 31
0.0
 11
237.132533
 21
679.310666
 31
0.0
 11
236.551507
 21
679.098617
 31
0.0
 11
236.072458
 21
678.692993
 31
0.0
 11
235.764357
 21
678.146100
 31
0.0
 11
235.665577
 21
677.535528
 31
0.0
 11
235.785519
 21
676.919385
 31
0.0
 11
236.112232
 21
676.383402
 31
0.0
 11
236.596756
 21
675.998965
 31
0.0
 11
237.192980
 21
675.802660
 31
0.0
 11
237.941688
 21
675.688327
 31
0.0
 11
239.912842
 21
675.416293
 31
0.0
 11
242.693990
 21
675.093000
 31
0.0
 11
245.872128
 21
674.818246
 31
0.0
 11
249.095539
 21
674.707411
 31
0.0
 11
252.043610
 21
674.890350
 31
0.0
 11
256.763824
 21
675.571344
 31
0.0
 11
261.473386
 21
676.307999
 31
0.0
 11
266.165580
 21
677.096160
 31
0.0
 11
270.834192
 21
677.931775
 31
0.0
 11
275.473475
 21
678.816245
 31
0.0
 11
280.074200
 21
679.753000
 31
0.0
 11
282.855235
 21
680.568249
 31
0.0
 11
285.766059
 21
681.750901
 31
0.0
 11
288.566940
 21
683.071590
 31
0.0
 11
290.984097
 21
684.304507
 31
0.0
 11
292.680160
 21
685.218423
 31
0.0
 11
293.319990
 21
685.575840
 31
0.0
 11
293.722058
 21
685.879201
 31
0.0
 11
294.020458
 21
686.278916
 31
0.0
 11
294.197010
 21
686.750632
 31
0.0
 11
294.234074
 21
687.252940
 31
0.0
 11
294.130341
 21
687.740848
 31
0.0
 11
293.892130
 21
688.184630
 31
0.0
  0
LINE
  5
192
100
AcDbEntity
  8
0
 62
7
100
AcDbLine
 10
418.372560
 20
705.755858
 30
0.0
 11
418.372560
 21
690.250485
 31
0.0
  0
LINE
  5
193
100
AcDbEntity
  8
0
 62
7
100
AcDbLine
 10
418.372560
 20
690.250485
 30
0.0
 11
405.981442
 21
690.250485
 31
0.0
  0
LINE
  5
194
100
AcDbEntity
  8
0
 62
7
100
AcDbLine
 10
405.981442
 20
690.250485
 30
0.0
 11
405.981442
 21
690.244628
 31
0.0
  0
LINE
  5
195
100
AcDbEntity
  8
0
 62
7
100
AcDbLine
 10
405.981442
 20
690.244628
 30
0.0
 11
405.563962
 21
690.244628
 31
0.0
  0
LINE
  5
196
100
AcDbEntity
  8
0
 62
7
100
AcDbLine
 10
405.563962
 20
690.244628
 30
0.0
 11
405.563962
 21
683.942873
 31
0.0
  0
LINE
  5
197
100
AcDbEntity
  8
0
 62
7
100
AcDbLine
 10
405.563962
 20
683.942873
 30
0.0
 11
405.981442
 21
683.942873
 31
0.0
  0
LINE
  5
198
100
AcDbEntity
  8
0
 62
7
100
AcDbLine
 10
405.981442
 20
683.942873
 30
0.0
 11
405.981442
 21
683.937015
 31
0.0
  0
LINE
  5
199
100
AcDbEntity
  8
0
 62
7
100
AcDbLine
 10
405.981442
 20
683.937015
 30
0.0
 11
418.372560
 21
683.937015
 31
0.0
  0
LINE
  5
19a
100
AcDbEntity
  8
0
 62
7
100
AcDbLine
 10
418.372560
 20
683.937015
 30
0.0
 11
418.372560
 21
655.763670
 31
0.0
  0
LINE
  5
19b
100
AcDbEntity
  8
0
 62
7
100
AcDbLine
 10
418.372560
 20
655.763670
 30
0.0
 11
421.372560
 21
655.763670
 31
0.0
  0
LINE
  5
19c
100
AcDbEntity
  8
0
 62
7
100
AcDbLine
 10
421.372560
 20
655.763670
 30
0.0
 11
421.372560
 21
683.937015
 31
0.0
  0
LINE
  5
19d
100
AcDbEntity
  8
0
 62
7
100
AcDbLine
 10
421.372560
 20
683.937015
 30
0.0
 11
433.514647
 21
683.937015
 31
0.0
  0
LINE
  5
19e
100
AcDbEntity
  8
0
 62
7
100
AcDbLine
 10
433.514647
 20
683.937015
 30
0.0
 11
433.514647
 21
683.942873
 31
0.0
  0
LINE
  5
19f
100
AcDbEntity
  8
0
 62
7
100
AcDbLine
 10
433.514647
 20
683.942873
 30
0.0
 11
433.933590
 21
683.942873
 31
0.0
  0
LINE
  5
1a0
100
AcDbEntity
  8
0
 62
7
100
AcDbLine
 10
433.933590
 20
683.942873
 30
0.0
 11
433.933590
 21
690.244628
 31
0.0
  0
LINE
  5
1a1
100
AcDbEntity
  8
0
 62
7
100
AcDbLine
 10
433.933590
 20
690.244628
 30
0.0
 11
433.514647
 21
690.244628
 31
0.0
  0
LINE
  5
1a2
100
AcDbEntity
  8
0
 62
7
100
AcDbLine
 10
433.514647
 20
690.244628
 30
0.0
 11
433.514647
 21
690.250485
 31
0.0
  0
LINE
  5
1a3
100
AcDbEntity
  8
0
 62
7
100
AcDbLine
 10
433.514647
 20
690.250485
 30
0.0
 11
421.372560
 21
690.250485
 31
0.0
  0
LINE
  5
1a4
100
AcDbEntity
  8
0
 62
7
100
AcDbLine
 10
421.372560
 20
690.250485
 30
0.0
 11
421.372560
 21
705.755858
 31
0.0
  0
LINE
  5
1a5
100
AcDbEntity
  8
0
 62
7
100
AcDbLine
 10
421.372560
 20
705.755858
 30
0.0
 11
418.372560
 21
705.755858
 31
0.0
  0
LINE
  5
1a6
100
AcDbEntity
  8
0
 62
7
100
AcDbLine
 10
418.372560
 20
705.755858
 30
0.0
 11
418.372560
 21
705.755858
 31
0.0
  0
SPLINE
  5
1a7
100
AcDbEntity
  8
0
 62
1
100
AcDbSpline
 70
0
 71
3
 72
16
 73
12
 74
10
 40
0.000000
 40
0.000000
 40
0.000000
 40
0.000000
 40
89.771108
 40
178.089940
 40
267.861048
 40
357.632152
 40
445.950980
 40
535.722084
 40
625.493193
 40
713.812026
 40
803.583135
 40
803.583135
 40
803.583135
 40
803.583135
 10
436.636330
 20
143.767060
 30
0.0
 10
406.381827
 20
144.940189
 30
0.0
 10
346.362264
 20
147.267470
 30
0.0
 10
265.608077
 20
192.072647
 30
0.0
 10
206.064683
 20
260.876470
 30
0.0
 10
175.988730
 20
347.344454
 30
0.0
 10
179.329699
 20
438.535134
 30
0.0
 10
215.652412
 20
522.570459
 30
0.0
 10
280.070971
 20
586.832666
 30
0.0
 10
363.887329
 20
625.608443
 30
0.0
 10
423.916283
 20
623.537484
 30
0.0
 10
454.175520
 20
622.493560
 30
0.0
 11
436.636330
 21
143.767060
 31
0.0
 11
347.481078
 21
154.264343
 31
0.0
 11
269.514190
 21
195.753864
 31
0.0
 11
211.002550
 21
263.836460
 31
0.0
 11
181.471013
 21
348.611099
 31
0.0
 11
184.704596
 21
436.870712
 31
0.0
 11
220.360440
 21
519.257070
 31
0.0
 11
283.697234
 21
582.875484
 31
0.0
 11
364.491139
 21
618.548457
 31
0.0
 11
454.175520
 21
622.493560
 31
0.0
  0
SPLINE
  5
1a8
100
AcDbEntity
  8
0
 62
7
100
AcDbSpline
 70
0
 71
3
 72
10
 73
6
 74
4
 40
0.000000
 40
0.000000
 40
0.000000
 40
0.000000
 40
3.370993
 40
6.846685
 40
10.580306
 40
10.580306
 40
10.580306
 40
10.580306
 10
700.639020
 20
371.710400
 30
0.0
 10
699.511819
 20
371.649778
 30
0.0
 10
697.222408
 20
371.526650
 30
0.0
 10
693.878964
 20
370.164816
 30
0.0
 10
692.035552
 20
368.609270
 30
0.0
 10
691.080870
 20
367.803670
 30
0.0
 11
700.639020
 21
371.710400
 31
0.0
 11
697.287917
 21
371.344751
 31
0.0
 11
694.061527
 21
370.052139
 31
0.0
 11
691.080870
 21
367.803670
 31
0.0
  0
SPLINE
  5
1a9
100
AcDbEntity
  8
0
 62
7
100
AcDbSpline
 70
0
 71
3
 72
10
 73
6
 74
4
 40
0.000000
 40
0.000000
 40
0.000000
 40
0.000000
 40
5.992584
 40
11.498168
 40
17.113276
 40
17.113276
 40
17.113276
 40
17.113276
 10
691.080870
 20
367.803670
 30
0.0
 10
689.918610
 20
366.158503
 30
0.0
 10
687.688544
 20
363.001868
 30
0.0
 10
686.748474
 20
357.091044
 30
0.0
 10
687.983284
 20
353.552026
 30
0.0
 10
688.606770
 20
351.765090
 30
0.0
 11
691.080870
 21
367.803670
 31
0.0
 11
688.028270
 21
362.646860
 31
0.0
 11
687.206870
 21
357.202894
 31
0.0
 11
688.606770
 21
351.765090
 31
0.0
  0
SPLINE
  5
1aa
100
AcDbEntity
  8
0
 62
7
100
AcDbSpline
 70
0
 71
3
 72
13
 73
9
 74
7
 40
0.000000
 40
0.000000
 40
0.000000
 40
0.000000
 40
0.614087
 40
1.440039
 40
2.054063
 40
24.538418
 40
47.022096
 40
69.513993
 40
69.513993
 40
69.513993
 40
69.513993
 10
688.606770
 20
351.765090
 30
0.0
 10
688.424645
 20
351.671640
 30
0.0
 10
687.997559
 20
351.452500
 30
0.0
 10
687.396004
 20
351.125372
 30
0.0
 10
680.294116
 20
347.496540
 30
0.0
 10
665.985319
 20
342.196974
 30
0.0
 10
644.235358
 20
336.261005
 30
0.0
 10
629.303542
 20
334.671379
 30
0.0
 10
621.836270
 20
333.876420
 30
0.0
 11
688.606770
 21
351.765090
 31
0.0
 11
688.061367
 21
351.482886
 31
0.0
 11
687.332049
 21
351.095211
 31
0.0
 11
686.786000
 21
350.814400
 31
0.0
 11
665.889546
 21
342.514736
 31
0.0
 11
644.130271
 21
336.853484
 31
0.0
 11
621.836270
 21
333.876420
 31
0.0
  0
LINE
  5
1ab
100
AcDbEntity
  8
0
 62
7
100
AcDbLine
 10
608.216150
 20
333.876420
 30
0.0
 11
608.200050
 21
333.847120
 31
0.0
  0
SPLINE
  5
1ac
100
AcDbEntity
  8
0
 62
7
100
AcDbSpline
 70
0
 71
3
 72
10
 73
6
 74
4
 40
0.000000
 40
0.000000
 40
0.000000
 40
0.000000
 40
13.176208
 40
18.345514
 40
31.638444
 40
31.638444
 40
31.638444
 40
31.638444
 10
621.836270
 20
333.876420
 30
0.0
 10
621.721054
 20
339.345550
 30
0.0
 10
621.560637
 20
346.960336
 30
0.0
 10
608.669090
 20
347.082500
 30
0.0
 10
608.405754
 20
339.404575
 30
0.0
 10
608.216150
 20
333.876420
 30
0.0
 11
621.836270
 21
333.876420
 31
0.0
 11
617.717339
 21
346.392284
 31
0.0
 11
612.548288
 21
346.443622
 31
0.0
 11
608.216150
 21
333.876420
 31
0.0
  0
SPLINE
  5
1ad
100
AcDbEntity
  8
0
 62
7
100
AcDbSpline
 70
0
 71
3
 72
10
 73
6
 74
4
 40
0.000000
 40
0.000000
 40
0.000000
 40
0.000000
 40
13.073607
 40
18.310024
 40
30.821017
 40
30.821017
 40
30.821017
 40
30.821017
 10
608.200050
 20
333.847120
 30
0.0
 10
607.865129
 20
339.227706
 30
0.0
 10
607.396061
 20
346.763398
 30
0.0
 10
594.762032
 20
346.567408
 30
0.0
 10
594.707630
 20
339.215711
 30
0.0
 10
594.669280
 20
334.033150
 30
0.0
 11
608.200050
 21
333.847120
 31
0.0
 11
603.607968
 21
346.087708
 31
0.0
 11
598.372589
 21
345.983482
 31
0.0
 11
594.669280
 21
334.033150
 31
0.0
  0
SPLINE
  5
1ae
100
AcDbEntity
  8
0
 62
7
100
AcDbSpline
 70
0
 71
3
 72
13
 73
9
 74
7
 40
0.000000
 40
0.000000
 40
0.000000
 40
0.000000
 40
22.777231
 40
45.108260
 40
67.346753
 40
68.011377
 40
68.888481
 40
69.553296
 40
69.553296
 40
69.553296
 40
69.553296
 10
594.669280
 20
334.033150
 30
0.0
 10
587.098901
 20
334.767512
 30
0.0
 10
572.106445
 20
336.221849
 30
0.0
 10
550.374592
 20
342.107755
 30
0.0
 10
536.170279
 20
347.334128
 30
0.0
 10
529.083746
 20
350.887050
 30
0.0
 10
528.435630
 20
351.234963
 30
0.0
 10
527.976583
 20
351.466179
 30
0.0
 10
527.778660
 20
351.565870
 30
0.0
 11
594.669280
 21
334.033150
 31
0.0
 11
572.069476
 21
336.870599
 31
0.0
 11
550.441721
 21
342.430731
 31
0.0
 11
529.741550
 21
350.558060
 31
0.0
 11
529.148290
 21
350.857673
 31
0.0
 11
528.371286
 21
351.264584
 31
0.0
 11
527.778660
 21
351.565870
 31
0.0
  0
SPLINE
  5
1af
100
AcDbEntity
  8
0
 62
7
100
AcDbSpline
 70
0
 71
3
 72
13
 73
9
 74
7
 40
0.000000
 40
0.000000
 40
0.000000
 40
0.000000
 40
0.052932
 40
0.105570
 40
0.158599
 40
2.327820
 40
4.486821
 40
6.612218
 40
6.612218
 40
6.612218
 40
6.612218
 10
527.778660
 20
351.565870
 30
0.0
 10
527.786531
 20
351.581665
 30
0.0
 10
527.802230
 20
351.613167
 30
0.0
 10
527.822986
 20
351.661812
 30
0.0
 10
528.154014
 20
352.344122
 30
0.0
 10
528.725891
 20
353.692034
 30
0.0
 10
529.248342
 20
355.793397
 30
0.0
 10
529.324426
 20
357.221947
 30
0.0
 10
529.362170
 20
357.930620
 30
0.0
 11
527.778660
 21
351.565870
 31
0.0
 11
527.801801
 21
351.613476
 31
0.0
 11
527.823319
 21
351.661514
 31
0.0
 11
527.846060
 21
351.709420
 31
0.0
 11
528.673330
 21
353.714699
 31
0.0
 11
529.182307
 21
355.812847
 31
0.0
 11
529.362170
 21
357.930620
 31
0.0
  0
LINE
  5
1b0
100
AcDbEntity
  8
0
 62
7
100
AcDbLine
 10
523.559930
 20
369.070750
 30
0.0
 11
506.211780
 21
338.556590
 31
0.0
  0
SPLINE
  5
1b1
100
AcDbEntity
  8
0
 62
7
100
AcDbSpline
 70
0
 71
3
 72
10
 73
6
 74
4
 40
0.000000
 40
0.000000
 40
0.000000
 40
0.000000
 40
4.483592
 40
8.690536
 40
12.973392
 40
12.973392
 40
12.973392
 40
12.973392
 10
529.362170
 20
357.930620
 30
0.0
 10
529.193106
 20
359.424099
 30
0.0
 10
528.865410
 20
362.318906
 30
0.0
 10
526.795270
 20
366.265531
 30
0.0
 10
524.644786
 20
368.130120
 30
0.0
 10
523.559930
 20
369.070750
 30
0.0
 11
529.362170
 21
357.930620
 31
0.0
 11
528.573094
 21
362.344231
 31
0.0
 11
526.611979
 21
366.066113
 31
0.0
 11
523.559930
 21
369.070750
 31
0.0
  0
SPLINE
  5
1b2
100
AcDbEntity
  8
0
 62
7
100
AcDbSpline
 70
0
 71
3
 72
10
 73
6
 74
4
 40
0.000000
 40
0.000000
 40
0.000000
 40
0.000000
 40
0.801303
 40
1.492148
 40
2.175620
 40
2.175620
 40
2.175620
 40
2.175620
 10
506.211780
 20
338.556590
 30
0.0
 10
506.050448
 20
338.335161
 30
0.0
 10
505.750024
 20
337.922827
 30
0.0
 10
504.988459
 20
337.724340
 30
0.0
 10
504.549314
 20
337.874175
 30
0.0
 10
504.330920
 20
337.948690
 30
0.0
 11
506.211780
 21
338.556590
 31
0.0
 11
505.663794
 21
337.971955
 31
0.0
 11
504.996473
 21
337.793211
 31
0.0
 11
504.330920
 21
337.948690
 31
0.0
  0
LINE
  5
1b3
100
AcDbEntity
  8
0
 62
7
100
AcDbLine
 10
503.891470
 20
339.873490
 30
0.0
 11
521.239610
 21
370.386190
 31
0.0
  0
SPLINE
  5
1b4
100
AcDbEntity
  8
0
 62
7
100
AcDbSpline
 70
0
 71
3
 72
10
 73
6
 74
4
 40
0.000000
 40
0.000000
 40
0.000000
 40
0.000000
 40
0.703118
 40
1.405579
 40
2.151759
 40
2.151759
 40
2.151759
 40
2.151759
 10
504.330920
 20
337.948690
 30
0.0
 10
504.156147
 20
338.109424
 30
0.0
 10
503.806765
 20
338.430743
 30
0.0
 10
503.614461
 20
339.181090
 30
0.0
 10
503.797294
 20
339.638093
 30
0.0
 10
503.891470
 20
339.873490
 30
0.0
 11
504.330920
 21
337.948690
 31
0.0
 11
503.862595
 21
338.473139
 31
0.0
 11
503.691801
 21
339.154521
 31
0.0
 11
503.891470
 21
339.873490
 31
0.0
  0
LINE
  5
1b5
100
AcDbEntity
  8
0
 62
7
100
AcDbLine
 10
521.021350
 20
370.471190
 30
0.0
 11
521.027350
 21
370.481390
 31
0.0
  0
SPLINE
  5
1b6
100
AcDbEntity
  8
0
 62
7
100
AcDbSpline
 70
0
 71
3
 72
10
 73
6
 74
4
 40
0.000000
 40
0.000000
 40
0.000000
 40
0.000000
 40
0.077998
 40
0.156250
 40
0.234249
 40
0.234249
 40
0.234249
 40
0.234249
 10
521.239610
 20
370.386190
 30
0.0
 10
521.215625
 20
370.396240
 30
0.0
 10
521.167578
 20
370.416374
 30
0.0
 10
521.093830
 20
370.442127
 30
0.0
 10
521.045484
 20
370.461513
 30
0.0
 10
521.021350
 20
370.471190
 30
0.0
 11
521.239610
 21
370.386190
 31
0.0
 11
521.167371
 21
370.415605
 31
0.0
 11
521.093963
 21
370.442709
 31
0.0
 11
521.021350
 21
370.471190
 31
0.0
  0
SPLINE
  5
1b7
100
AcDbEntity
  8
0
 62
7
100
AcDbSpline
 70
0
 71
3
 72
10
 73
6
 74
4
 40
0.000000
 40
0.000000
 40
0.000000
 40
0.000000
 40
2.892307
 40
5.758279
 40
8.632097
 40
8.632097
 40
8.632097
 40
8.632097
 10
521.027350
 20
370.481390
 30
0.0
 10
520.113077
 20
370.793825
 30
0.0
 10
518.292856
 20
371.415851
 30
0.0
 10
515.385454
 20
371.665967
 30
0.0
 10
513.494260
 20
371.345142
 30
0.0
 10
512.547370
 20
371.184510
 30
0.0
 11
521.027350
 21
370.481390
 31
0.0
 11
518.254448
 21
371.303858
 31
0.0
 11
515.398579
 21
371.544289
 31
0.0
 11
512.547370
 21
371.184510
 31
0.0
  0
LINE
  5
1b8
100
AcDbEntity
  8
0
 62
7
100
AcDbLine
 10
503.734870
 20
364.605900
 30
0.0
 11
503.720270
 21
364.612900
 31
0.0
  0
LINE
  5
1b9
100
AcDbEntity
  8
0
 62
7
100
AcDbLine
 10
503.720270
 20
364.612900
 30
0.0
 11
482.179730
 21
327.303340
 31
0.0
  0
LINE
  5
1ba
100
AcDbEntity
  8
0
 62
7
100
AcDbLine
 10
482.179730
 20
327.303340
 30
0.0
 11
482.194430
 21
327.294340
 31
0.0
  0
SPLINE
  5
1bb
100
AcDbEntity
  8
0
 62
7
100
AcDbSpline
 70
0
 71
3
 72
10
 73
6
 74
4
 40
0.000000
 40
0.000000
 40
0.000000
 40
0.000000
 40
3.771815
 40
7.511202
 40
11.252560
 40
11.252560
 40
11.252560
 40
11.252560
 10
512.547370
 20
371.184510
 30
0.0
 10
511.353445
 20
370.776407
 30
0.0
 10
508.975859
 20
369.963711
 30
0.0
 10
505.895315
 20
367.678516
 30
0.0
 10
504.455145
 20
365.630285
 30
0.0
 10
503.734870
 20
364.605900
 30
0.0
 11
512.547370
 21
371.184510
 31
0.0
 11
509.046612
 21
369.780487
 31
0.0
 11
506.047721
 21
367.546730
 31
0.0
 11
503.734870
 21
364.605900
 31
0.0
  0
SPLINE
  5
1bc
100
AcDbEntity
  8
0
 62
7
100
AcDbSpline
 70
0
 71
3
 72
10
 73
6
 74
4
 40
0.000000
 40
0.000000
 40
0.000000
 40
0.000000
 40
8.644286
 40
16.346053
 40
24.420038
 40
24.420038
 40
24.420038
 40
24.420038
 10
482.194430
 20
327.294340
 30
0.0
 10
481.366510
 20
324.482504
 30
0.0
 10
479.800941
 20
319.165416
 30
0.0
 10
483.016553
 20
310.755542
 30
0.0
 10
487.941458
 20
308.474150
 30
0.0
 10
490.462010
 20
307.306540
 30
0.0
 11
482.194430
 21
327.294340
 31
0.0
 11
480.750452
 21
318.771511
 31
0.0
 11
483.646234
 21
311.634869
 31
0.0
 11
490.462010
 21
307.306540
 31
0.0
  0
SPLINE
  5
1bd
100
AcDbEntity
  8
0
 62
7
100
AcDbSpline
 70
0
 71
3
 72
10
 73
6
 74
4
 40
0.000000
 40
0.000000
 40
0.000000
 40
0.000000
 40
5.992725
 40
11.498622
 40
17.113897
 40
17.113897
 40
17.113897
 40
17.113897
 10
490.462010
 20
307.306540
 30
0.0
 10
492.467945
 20
307.122603
 30
0.0
 10
496.316861
 20
306.769671
 30
0.0
 10
501.905996
 20
308.911079
 30
0.0
 10
504.353608
 20
311.750052
 30
0.0
 10
505.589450
 20
313.183500
 30
0.0
 11
490.462010
 21
307.306540
 31
0.0
 11
496.454381
 21
307.241390
 31
0.0
 11
501.579972
 21
309.252164
 31
0.0
 11
505.589450
 21
313.183500
 31
0.0
  0
SPLINE
  5
1be
100
AcDbEntity
  8
0
 62
7
100
AcDbSpline
 70
0
 71
3
 72
13
 73
9
 74
7
 40
0.000000
 40
0.000000
 40
0.000000
 40
0.000000
 40
0.613929
 40
1.439566
 40
2.053428
 40
24.537630
 40
47.021024
 40
69.512773
 40
69.512773
 40
69.512773
 40
69.512773
 10
505.589450
 20
313.183500
 30
0.0
 10
505.761376
 20
313.072494
 30
0.0
 10
506.164514
 20
312.812201
 30
0.0
 10
506.748296
 20
312.454723
 30
0.0
 10
513.440907
 20
308.117585
 30
0.0
 10
525.185794
 20
298.377371
 30
0.0
 10
541.200841
 20
282.508757
 30
0.0
 10
550.043353
 20
270.372424
 30
0.0
 10
554.465430
 20
264.303130
 30
0.0
 11
505.589450
 21
313.183500
 31
0.0
 11
506.106341
 21
312.852241
 31
0.0
 11
506.806349
 21
312.414445
 31
0.0
 11
507.322360
 21
312.081940
 31
0.0
 11
524.958175
 21
298.134992
 31
0.0
 11
540.740348
 21
282.121684
 31
0.0
 11
554.465430
 21
264.303130
 31
0.0
  0
SPLINE
  5
1bf
100
AcDbEntity
  8
0
 62
7
100
AcDbSpline
 70
0
 71
3
 72
10
 73
6
 74
4
 40
0.000000
 40
0.000000
 40
0.000000
 40
0.000000
 40
13.105272
 40
18.232032
 40
31.156722
 40
31.156722
 40
31.156722
 40
31.156722
 10
554.465430
 20
264.303130
 30
0.0
 10
549.854520
 20
261.520267
 30
0.0
 10
543.439830
 20
257.648754
 30
0.0
 10
549.289389
 20
246.376104
 30
0.0
 10
556.000313
 20
249.851439
 30
0.0
 10
560.805280
 20
252.339750
 30
0.0
 11
554.465430
 21
264.303130
 31
0.0
 11
545.715639
 21
254.546629
 31
0.0
 11
548.093297
 21
250.004558
 31
0.0
 11
560.805280
 21
252.339750
 31
0.0
  0
SPLINE
  5
1c0
100
AcDbEntity
  8
0
 62
7
100
AcDbSpline
 70
0
 71
3
 72
10
 73
6
 74
4
 40
0.000000
 40
0.000000
 40
0.000000
 40
0.000000
 40
12.785021
 40
17.984065
 40
30.441351
 40
30.441351
 40
30.441351
 40
30.441351
 10
560.805280
 20
252.339750
 30
0.0
 10
556.420160
 20
249.370208
 30
0.0
 10
550.251825
 20
245.193098
 30
0.0
 10
556.948557
 20
234.662157
 30
0.0
 10
563.255990
 20
238.254741
 30
0.0
 10
567.706150
 20
240.789460
 30
0.0
 11
560.805280
 21
252.339750
 31
0.0
 11
552.766803
 21
242.397937
 31
0.0
 11
555.561940
 21
238.014186
 31
0.0
 11
567.706150
 21
240.789460
 31
0.0
  0
SPLINE
  5
1c1
100
AcDbEntity
  8
0
 62
7
100
AcDbSpline
 70
0
 71
3
 72
13
 73
9
 74
7
 40
0.000000
 40
0.000000
 40
0.000000
 40
0.000000
 40
22.777113
 40
45.107929
 40
67.346323
 40
68.010760
 40
68.887525
 40
69.552167
 40
69.552167
 40
69.552167
 40
69.552167
 10
567.706150
 20
240.789460
 30
0.0
 10
570.855351
 20
233.866165
 30
0.0
 10
577.092047
 20
220.155231
 30
0.0
 10
582.860003
 20
198.391987
 30
0.0
 10
585.436736
 20
183.477716
 30
0.0
 10
585.902403
 20
175.564303
 30
0.0
 10
585.925012
 20
174.829289
 30
0.0
 10
585.954273
 20
174.316305
 30
0.0
 10
585.966890
 20
174.095110
 30
0.0
 11
567.706150
 21
240.789460
 31
0.0
 11
576.548610
 21
219.798801
 31
0.0
 11
582.547017
 21
198.288699
 31
0.0
 11
585.858490
 21
176.298240
 31
0.0
 11
585.895571
 21
175.634838
 31
0.0
 11
585.931542
 21
174.758812
 31
0.0
 11
585.966890
 21
174.095110
 31
0.0
  0
SPLINE
  5
1c2
100
AcDbEntity
  8
0
 62
7
100
AcDbSpline
 70
0
 71
3
 72
13
 73
9
 74
7
 40
0.000000
 40
0.000000
 40
0.000000
 40
0.000000
 40
0.053032
 40
0.105757
 40
0.158763
 40
2.327775
 40
4.486396
 40
6.611596
 40
6.611596
 40
6.611596
 40
6.611596
 10
585.966890
 20
174.095110
 30
0.0
 10
585.949241
 20
174.094051
 30
0.0
 10
585.914045
 20
174.091938
 30
0.0
 10
585.861470
 20
174.085719
 30
0.0
 10
585.105102
 20
174.031448
 30
0.0
 10
583.652040
 20
173.852555
 30
0.0
 10
581.571229
 20
173.254506
 30
0.0
 10
580.296207
 20
172.606176
 30
0.0
 10
579.663670
 20
172.284540
 30
0.0
 11
585.966890
 21
174.095110
 31
0.0
 11
585.913986
 21
174.091421
 31
0.0
 11
585.861527
 21
174.086132
 31
0.0
 11
585.808690
 21
174.081910
 31
0.0
 11
583.658634
 21
173.795772
 31
0.0
 11
581.587459
 21
173.187598
 31
0.0
 11
579.663670
 21
172.284540
 31
0.0
  0
LINE
  5
1c3
100
AcDbEntity
  8
0
 62
7
100
AcDbLine
 10
572.916600
 20
161.689330
 30
0.0
 11
608.017190
 21
161.922240
 31
0.0
  0
SPLINE
  5
1c4
100
AcDbEntity
  8
0
 62
7
100
AcDbSpline
 70
0
 71
3
 72
10
 73
6
 74
4
 40
0.000000
 40
0.000000
 40
0.000000
 40
0.000000
 40
4.483740
 40
8.690927
 40
12.973893
 40
12.973893
 40
12.973893
 40
12.973893
 10
579.663670
 20
172.284540
 30
0.0
 10
578.454774
 20
171.391361
 30
0.0
 10
576.111546
 20
169.660094
 30
0.0
 10
573.728463
 20
165.893964
 30
0.0
 10
573.188826
 20
163.099189
 30
0.0
 10
572.916600
 20
161.689330
 30
0.0
 11
579.663670
 21
172.284540
 31
0.0
 11
576.235767
 21
169.394314
 31
0.0
 11
573.992816
 21
165.834876
 31
0.0
 11
572.916600
 21
161.689330
 31
0.0
  0
SPLINE
  5
1c5
100
AcDbEntity
  8
0
 62
7
100
AcDbSpline
 70
0
 71
3
 72
10
 73
6
 74
4
 40
0.000000
 40
0.000000
 40
0.000000
 40
0.000000
 40
0.801112
 40
1.491522
 40
2.174772
 40
2.174772
 40
2.174772
 40
2.174772
 10
608.017190
 20
161.922240
 30
0.0
 10
608.289564
 20
161.893304
 30
0.0
 10
608.796675
 20
161.839430
 30
0.0
 10
609.349203
 20
161.279393
 30
0.0
 10
609.438883
 20
160.824353
 30
0.0
 10
609.483490
 20
160.598020
 30
0.0
 11
608.017190
 21
161.922240
 31
0.0
 11
608.797337
 21
161.740168
 31
0.0
 11
609.285516
 21
161.251959
 31
0.0
 11
609.483490
 21
160.598020
 31
0.0
  0
LINE
  5
1c6
100
AcDbEntity
  8
0
 62
7
100
AcDbLine
 10
608.036230
 20
159.254750
 30
0.0
 11
572.937110
 21
159.020380
 31
0.0
  0
SPLINE
  5
1c7
100
AcDbEntity
  8
0
 62
7
100
AcDbSpline
 70
0
 71
3
 72
10
 73
6
 74
4
 40
0.000000
 40
0.000000
 40
0.000000
 40
0.000000
 40
0.703196
 40
1.405771
 40
2.151986
 40
2.151986
 40
2.151986
 40
2.151986
 10
609.483490
 20
160.598020
 30
0.0
 10
609.431667
 20
160.366274
 30
0.0
 10
609.328066
 20
159.902987
 30
0.0
 10
608.774427
 20
159.361137
 30
0.0
 10
608.287188
 20
159.290917
 30
0.0
 10
608.036230
 20
159.254750
 30
0.0
 11
609.483490
 21
160.598020
 31
0.0
 11
609.263448
 21
159.930138
 31
0.0
 11
608.758726
 21
159.441399
 31
0.0
 11
608.036230
 21
159.254750
 31
0.0
  0
LINE
  5
1c8
100
AcDbEntity
  8
0
 62
7
100
AcDbLine
 10
572.973710
 20
158.790400
 30
0.0
 11
572.962010
 21
158.790400
 31
0.0
  0
SPLINE
  5
1c9
100
AcDbEntity
  8
0
 62
7
100
AcDbSpline
 70
0
 71
3
 72
10
 73
6
 74
4
 40
0.000000
 40
0.000000
 40
0.000000
 40
0.000000
 40
0.077641
 40
0.155241
 40
0.232901
 40
0.232901
 40
0.232901
 40
0.232901
 10
572.937110
 20
159.020380
 30
0.0
 10
572.940471
 20
158.994711
 30
0.0
 10
572.947190
 20
158.943387
 30
0.0
 10
572.962512
 20
158.867239
 30
0.0
 10
572.969976
 20
158.816020
 30
0.0
 10
572.973710
 20
158.790400
 30
0.0
 11
572.937110
 21
159.020380
 31
0.0
 11
572.948066
 21
158.943516
 31
0.0
 11
572.961821
 21
158.867144
 31
0.0
 11
572.973710
 21
158.790400
 31
0.0
  0
SPLINE
  5
1ca
100
AcDbEntity
  8
0
 62
7
100
AcDbSpline
 70
0
 71
3
 72
10
 73
6
 74
4
 40
0.000000
 40
0.000000
 40
0.000000
 40
0.000000
 40
2.892447
 40
5.758551
 40
8.632358
 40
8.632358
 40
8.632358
 40
8.632358
 10
572.962010
 20
158.790400
 30
0.0
 10
573.148496
 20
157.842346
 30
0.0
 10
573.519770
 20
155.954873
 30
0.0
 10
574.756068
 20
153.311461
 30
0.0
 10
575.979402
 20
151.833888
 30
0.0
 10
576.591890
 20
151.094110
 30
0.0
 11
572.962010
 21
158.790400
 31
0.0
 11
573.635870
 21
155.977543
 31
0.0
 11
574.855017
 21
153.383660
 31
0.0
 11
576.591890
 21
151.094110
 31
0.0
  0
LINE
  5
1cb
100
AcDbEntity
  8
0
 62
7
100
AcDbLine
 10
586.694920
 20
146.752310
 30
0.0
 11
586.695920
 21
146.736210
 31
0.0
  0
LINE
  5
1cc
100
AcDbEntity
  8
0
 62
7
100
AcDbLine
 10
586.695920
 20
146.736210
 30
0.0
 11
629.777180
 21
146.736210
 31
0.0
  0
LINE
  5
1cd
100
AcDbEntity
  8
0
 62
7
100
AcDbLine
 10
629.777180
 20
146.736210
 30
0.0
 11
629.777180
 21
146.752310
 31
0.0
  0
SPLINE
  5
1ce
100
AcDbEntity
  8
0
 62
7
100
AcDbSpline
 70
0
 71
3
 72
10
 73
6
 74
4
 40
0.000000
 40
0.000000
 40
0.000000
 40
0.000000
 40
3.771607
 40
7.510644
 40
11.251854
 40
11.251854
 40
11.251854
 40
11.251854
 10
576.591890
 20
151.094110
 30
0.0
 10
577.542237
 20
150.264242
 30
0.0
 10
579.434725
 20
148.611672
 30
0.0
 10
582.953944
 20
147.086823
 30
0.0
 10
585.447687
 20
146.863836
 30
0.0
 10
586.694920
 20
146.752310
 30
0.0
 11
576.591890
 21
151.094110
 31
0.0
 11
579.558074
 21
148.764567
 31
0.0
 11
582.991783
 21
147.284686
 31
0.0
 11
586.694920
 21
146.752310
 31
0.0
  0
SPLINE
  5
1cf
100
AcDbEntity
  8
0
 62
7
100
AcDbSpline
 70
0
 71
3
 72
10
 73
6
 74
4
 40
0.000000
 40
0.000000
 40
0.000000
 40
0.000000
 40
8.644396
 40
16.346564
 40
24.420795
 40
24.420795
 40
24.420795
 40
24.420795
 10
629.777180
 20
146.752310
 30
0.0
 10
632.626285
 20
147.441315
 30
0.0
 10
638.013945
 20
148.744225
 30
0.0
 10
643.689187
 20
155.734383
 30
0.0
 10
643.202521
 20
161.140363
 30
0.0
 10
642.953450
 20
163.907100
 30
0.0
 11
629.777180
 21
146.752310
 31
0.0
 11
637.880179
 21
149.763455
 31
0.0
 11
642.612864
 21
155.840055
 31
0.0
 11
642.953450
 21
163.907100
 31
0.0
  0
SPLINE
  5
1d0
100
AcDbEntity
  8
0
 62
7
100
AcDbSpline
 70
0
 71
3
 72
10
 73
6
 74
4
 40
0.000000
 40
0.000000
 40
0.000000
 40
0.000000
 40
5.992582
 40
11.498283
 40
17.113513
 40
17.113513
 40
17.113513
 40
17.113513
 10
642.953450
 20
163.907100
 30
0.0
 10
642.109784
 20
165.736219
 30
0.0
 10
640.490998
 20
169.245847
 30
0.0
 10
635.841797
 20
173.015123
 30
0.0
 10
632.159441
 20
173.715223
 30
0.0
 10
630.300130
 20
174.068720
 30
0.0
 11
642.953450
 21
163.907100
 31
0.0
 11
640.013682
 21
169.129054
 31
0.0
 11
635.709505
 21
172.562246
 31
0.0
 11
630.300130
 21
174.068720
 31
0.0
  0
SPLINE
  5
1d1
100
AcDbEntity
  8
0
 62
7
100
AcDbSpline
 70
0
 71
3
 72
10
 73
6
 74
4
 40
0.000000
 40
0.000000
 40
0.000000
 40
0.000000
 40
0.614121
 40
1.440115
 40
2.054169
 40
2.054169
 40
2.054169
 40
2.054169
 10
630.300130
 20
174.068720
 30
0.0
 10
630.310341
 20
174.273177
 30
0.0
 10
630.334287
 20
174.752629
 30
0.0
 10
630.351878
 20
175.437201
 30
0.0
 10
630.377223
 20
175.916564
 30
0.0
 10
630.388030
 20
176.120970
 30
0.0
 11
630.300130
 21
174.068720
 31
0.0
 11
630.328652
 21
174.682178
 31
0.0
 11
630.357974
 21
175.507652
 31
0.0
 11
630.388030
 21
176.120970
 31
0.0
  0
SPLINE
  5
1d2
100
AcDbEntity
  8
0
 62
7
100
AcDbSpline
 70
0
 71
3
 72
10
 73
6
 74
4
 40
0.000000
 40
0.000000
 40
0.000000
 40
0.000000
 40
22.484291
 40
44.967887
 40
67.459758
 40
67.459758
 40
67.459758
 40
67.459758
 10
630.388030
 20
176.120970
 30
0.0
 10
631.290945
 20
183.567597
 30
0.0
 10
633.096747
 20
198.460621
 30
0.0
 10
639.117378
 20
220.243104
 30
0.0
 10
645.168535
 20
233.972032
 30
0.0
 10
648.194670
 20
240.837760
 30
0.0
 11
630.388030
 21
176.120970
 31
0.0
 11
633.648662
 21
198.367579
 31
0.0
 11
639.625751
 21
220.042137
 31
0.0
 11
648.194670
 21
240.837760
 31
0.0
  0
SPLINE
  5
1d3
100
AcDbEntity
  8
0
 62
7
100
AcDbSpline
 70
0
 71
3
 72
10
 73
6
 74
4
 40
0.000000
 40
0.000000
 40
0.000000
 40
0.000000
 40
13.176134
 40
18.345866
 40
31.638970
 40
31.638970
 40
31.638970
 40
31.638970
 10
648.194670
 20
240.837760
 30
0.0
 10
652.988732
 20
238.203100
 30
0.0
 10
659.663772
 20
234.534715
 30
0.0
 10
666.214924
 20
245.638649
 30
0.0
 10
659.697359
 20
249.705818
 30
0.0
 10
655.004760
 20
252.634150
 30
0.0
 11
648.194670
 21
240.837760
 31
0.0
 11
661.093171
 21
238.147190
 31
0.0
 11
663.722166
 21
242.598540
 31
0.0
 11
655.004760
 21
252.634150
 31
0.0
  0
SPLINE
  5
1d4
100
AcDbEntity
  8
0
 62
7
100
AcDbSpline
 70
0
 71
3
 72
10
 73
6
 74
4
 40
0.000000
 40
0.000000
 40
0.000000
 40
0.000000
 40
13.221961
 40
18.478898
 40
31.017771
 40
31.017771
 40
31.017771
 40
31.017771
 10
655.004760
 20
252.634150
 30
0.0
 10
659.863910
 20
250.189511
 30
0.0
 10
666.655016
 20
246.772904
 30
0.0
 10
672.993472
 20
257.797819
 30
0.0
 10
666.615975
 20
261.550542
 30
0.0
 10
662.122410
 20
264.194700
 30
0.0
 11
655.004760
 21
252.634150
 31
0.0
 11
668.038659
 21
250.412052
 31
0.0
 11
670.631558
 21
254.985045
 31
0.0
 11
662.122410
 21
264.194700
 31
0.0
  0
SPLINE
  5
1d5
100
AcDbEntity
  8
0
 62
7
100
AcDbSpline
 70
0
 71
3
 72
13
 73
9
 74
7
 40
0.000000
 40
0.000000
 40
0.000000
 40
0.000000
 40
22.777258
 40
45.108354
 40
67.346911
 40
68.011166
 40
68.887596
 40
69.552062
 40
69.552062
 40
69.552062
 40
69.552062
 10
662.122410
 20
264.194700
 30
0.0
 10
666.543624
 20
270.383632
 30
0.0
 10
675.299450
 20
282.640267
 30
0.0
 10
691.262900
 20
298.517611
 30
0.0
 10
702.891510
 20
308.205152
 30
0.0
 10
709.511214
 20
312.565950
 30
0.0
 10
710.136167
 20
312.953052
 30
0.0
 10
710.565635
 20
313.234817
 30
0.0
 10
710.750830
 20
313.356320
 30
0.0
 11
662.122410
 21
264.194700
 31
0.0
 11
675.879763
 21
282.347901
 31
0.0
 11
691.509103
 21
298.297873
 31
0.0
 11
708.897810
 21
312.161000
 31
0.0
 11
709.453587
 21
312.524793
 31
0.0
 11
710.193900
 21
312.993907
 31
0.0
 11
710.750830
 21
313.356320
 31
0.0
  0
SPLINE
  5
1d6
100
AcDbEntity
  8
0
 62
7
100
AcDbSpline
 70
0
 71
3
 72
13
 73
9
 74
7
 40
0.000000
 40
0.000000
 40
0.000000
 40
0.000000
 40
0.053034
 40
0.105828
 40
0.158888
 40
2.327716
 40
4.486054
 40
6.611143
 40
6.611143
 40
6.611143
 40
6.611143
 10
710.750830
 20
313.356320
 30
0.0
 10
710.760584
 20
313.341572
 30
0.0
 10
710.780049
 20
313.312143
 30
0.0
 10
710.811863
 20
313.269774
 30
0.0
 10
711.237688
 20
312.642328
 30
0.0
 10
712.118190
 20
311.472905
 30
0.0
 10
713.676896
 20
309.970434
 30
0.0
 10
714.875767
 20
309.190513
 30
0.0
 10
715.470550
 20
308.803580
 30
0.0
 11
710.750830
 21
313.356320
 31
0.0
 11
710.780526
 21
313.312380
 31
0.0
 11
710.811467
 21
313.269603
 31
0.0
 11
710.841630
 21
313.225950
 31
0.0
 11
712.164387
 21
311.507192
 31
0.0
 11
713.726593
 21
310.017918
 31
0.0
 11
715.470550
 21
308.803580
 31
0.0
  0
LINE
  5
1d7
100
AcDbEntity
  8
0
 62
7
100
AcDbLine
 10
728.019850
 20
308.257200
 30
0.0
 11
710.267430
 21
338.538450
 31
0.0
  0
SPLINE
  5
1d8
100
AcDbEntity
  8
0
 62
7
100
AcDbSpline
 70
0
 71
3
 72
10
 73
6
 74
4
 40
0.000000
 40
0.000000
 40
0.000000
 40
0.000000
 40
4.483828
 40
8.691048
 40
12.973968
 40
12.973968
 40
12.973968
 40
12.973968
 10
715.470550
 20
308.803580
 30
0.0
 10
716.848515
 20
308.203188
 30
0.0
 10
719.519437
 20
307.039442
 30
0.0
 10
723.972544
 20
306.858119
 30
0.0
 10
726.662753
 20
307.788076
 30
0.0
 10
728.019850
 20
308.257200
 30
0.0
 11
715.470550
 21
308.803580
 31
0.0
 11
719.687526
 21
307.279824
 31
0.0
 11
723.891581
 21
307.116676
 31
0.0
 11
728.019850
 21
308.257200
 31
0.0
  0
SPLINE
  5
1d9
100
AcDbEntity
  8
0
 62
7
100
AcDbSpline
 70
0
 71
3
 72
10
 73
6
 74
4
 40
0.000000
 40
0.000000
 40
0.000000
 40
0.000000
 40
0.801450
 40
1.492724
 40
2.176440
 40
2.176440
 40
2.176440
 40
2.176440
 10
710.267430
 20
338.538450
 30
0.0
 10
710.156373
 20
338.788958
 30
0.0
 10
709.949526
 20
339.255536
 30
0.0
 10
710.158740
 20
340.014515
 30
0.0
 10
710.508187
 20
340.320092
 30
0.0
 10
710.681950
 20
340.472040
 30
0.0
 11
710.267430
 21
338.538450
 31
0.0
 11
710.035249
 21
339.305531
 31
0.0
 11
710.214384
 21
339.973192
 31
0.0
 11
710.681950
 21
340.472040
 31
0.0
  0
LINE
  5
1da
100
AcDbEntity
  8
0
 62
7
100
AcDbLine
 10
712.568650
 20
339.889030
 30
0.0
 11
730.321080
 21
309.609250
 31
0.0
  0
SPLINE
  5
1db
100
AcDbEntity
  8
0
 62
7
100
AcDbSpline
 70
0
 71
3
 72
10
 73
6
 74
4
 40
0.000000
 40
0.000000
 40
0.000000
 40
0.000000
 40
0.703069
 40
1.405723
 40
2.152121
 40
2.152121
 40
2.152121
 40
2.152121
 10
710.681950
 20
340.472040
 30
0.0
 10
710.908560
 20
340.542950
 30
0.0
 10
711.361647
 20
340.684729
 30
0.0
 10
712.107524
 20
340.475320
 30
0.0
 10
712.411879
 20
340.088354
 30
0.0
 10
712.568650
 20
339.889030
 30
0.0
 11
710.681950
 21
340.472040
 31
0.0
 11
711.370312
 21
340.615089
 31
0.0
 11
712.045841
 21
340.421741
 31
0.0
 11
712.568650
 21
339.889030
 31
0.0
  0
LINE
  5
1dc
100
AcDbEntity
  8
0
 62
7
100
AcDbLine
 10
730.501300
 20
309.755730
 30
0.0
 11
730.507300
 21
309.745430
 31
0.0
  0
SPLINE
  5
1dd
100
AcDbEntity
  8
0
 62
7
100
AcDbSpline
 70
0
 71
3
 72
10
 73
6
 74
4
 40
0.000000
 40
0.000000
 40
0.000000
 40
0.000000
 40
0.077454
 40
0.154758
 40
0.232269
 40
0.232269
 40
0.232269
 40
0.232269
 10
730.321080
 20
309.609250
 30
0.0
 10
730.341574
 20
309.624966
 30
0.0
 10
730.382521
 20
309.656367
 30
0.0
 10
730.440546
 20
309.707689
 30
0.0
 10
730.481031
 20
309.739702
 30
0.0
 10
730.501300
 20
309.755730
 30
0.0
 11
730.321080
 21
309.609250
 31
0.0
 11
730.381988
 21
309.657097
 31
0.0
 11
730.440945
 21
309.707096
 31
0.0
 11
730.501300
 21
309.755730
 31
0.0
  0
SPLINE
  5
1de
100
AcDbEntity
  8
0
 62
7
100
AcDbSpline
 70
0
 71
3
 72
10
 73
6
 74
4
 40
0.000000
 40
0.000000
 40
0.000000
 40
0.000000
 40
2.892676
 40
5.759315
 40
8.633452
 40
8.633452
 40
8.633452
 40
8.633452
 10
730.507300
 20
309.745430
 30
0.0
 10
731.235101
 20
310.381076
 30
0.0
 10
732.684152
 20
311.646648
 30
0.0
 10
734.354986
 20
314.039657
 30
0.0
 10
735.022971
 20
315.838162
 30
0.0
 10
735.357400
 20
316.738590
 30
0.0
 11
730.507300
 21
309.745430
 31
0.0
 11
732.606333
 21
311.735816
 31
0.0
 11
734.243067
 21
314.089264
 31
0.0
 11
735.357400
 21
316.738590
 31
0.0
  0
LINE
  5
1df
100
AcDbEntity
  8
0
 62
7
100
AcDbLine
 10
734.066880
 20
327.659000
 30
0.0
 11
734.080080
 21
327.668000
 31
0.0
  0
LINE
  5
1e0
100
AcDbEntity
  8
0
 62
7
100
AcDbLine
 10
734.080080
 20
327.668000
 30
0.0
 11
712.539550
 21
364.977570
 31
0.0
  0
LINE
  5
1e1
100
AcDbEntity
  8
0
 62
7
100
AcDbLine
 10
712.539550
 20
364.977570
 30
0.0
 11
712.524850
 21
364.970570
 31
0.0
  0
SPLINE
  5
1e2
100
AcDbEntity
  8
0
 62
7
100
AcDbSpline
 70
0
 71
3
 72
10
 73
6
 74
4
 40
0.000000
 40
0.000000
 40
0.000000
 40
0.000000
 40
3.771644
 40
7.510645
 40
11.251775
 40
11.251775
 40
11.251775
 40
11.251775
 10
735.357400
 20
316.738590
 30
0.0
 10
735.600963
 20
317.976544
 30
0.0
 10
736.085982
 20
320.441739
 30
0.0
 10
735.647503
 20
324.251935
 30
0.0
 10
734.593854
 20
326.523096
 30
0.0
 10
734.066880
 20
327.659000
 30
0.0
 11
735.357400
 21
316.738590
 31
0.0
 11
735.891970
 21
320.472159
 31
0.0
 11
735.457157
 21
324.185791
 31
0.0
 11
734.066880
 21
327.659000
 31
0.0
  0
LINE
  5
1e3
100
AcDbEntity
  8
0
 62
7
100
AcDbLine
 10
700.639150
 20
371.710320
 30
0.0
 11
700.639020
 21
371.710400
 31
0.0
  0
LINE
  5
1e4
100
AcDbEntity
  8
0
 62
5
100
AcDbLine
 10
311.644382
 20
97.264746
 30
0.0
 11
313.591905
 21
103.258607
 31
0.0
  0
LINE
  5
1e5
100
AcDbEntity
  8
0
 62
5
100
AcDbLine
 10
313.591905
 20
103.258607
 30
0.0
 11
340.573224
 21
94.491846
 31
0.0
  0
LINE
  5
1e6
100
AcDbEntity
  8
0
 62
5
100
AcDbLine
 10
340.573224
 20
94.491846
 30
0.0
 11
338.625700
 21
88.497985
 31
0.0
  0
LINE
  5
1e7
100
AcDbEntity
  8
0
 62
5
100
AcDbLine
 10
338.625700
 20
88.497985
 30
0.0
 11
311.644382
 21
97.264746
 31
0.0
  0
LINE
  5
1e8
100
AcDbEntity
  8
0
 62
5
100
AcDbLine
 10
228.307524
 20
144.707929
 30
0.0
 11
232.011934
 21
149.806612
 31
0.0
  0
LINE
  5
1e9
100
AcDbEntity
  8
0
 62
5
100
AcDbLine
 10
232.011934
 20
149.806612
 30
0.0
 11
254.963614
 21
133.131240
 31
0.0
  0
LINE
  5
1ea
100
AcDbEntity
  8
0
 62
5
100
AcDbLine
 10
254.963614
 20
133.131240
 30
0.0
 11
251.259204
 21
128.032557
 31
0.0
  0
LINE
  5
1eb
100
AcDbEntity
  8
0
 62
5
100
AcDbLine
 10
251.259204
 20
128.032557
 30
0.0
 11
228.307524
 21
144.707929
 31
0.0
  0
LINE
  5
1ec
100
AcDbEntity
  8
0
 62
5
100
AcDbLine
 10
163.710242
 20
215.581560
 30
0.0
 11
168.808925
 21
219.285970
 31
0.0
  0
LINE
  5
1ed
100
AcDbEntity
  8
0
 62
5
100
AcDbLine
 10
168.808925
 20
219.285970
 30
0.0
 11
185.484297
 21
196.334290
 31
0.0
  0
LINE
  5
1ee
100
AcDbEntity
  8
0
 62
5
100
AcDbLine
 10
185.484297
 20
196.334290
 30
0.0
 11
180.385614
 21
192.629880
 31
0.0
  0
LINE
  5
1ef
100
AcDbEntity
  8
0
 62
5
100
AcDbLine
 10
180.385614
 20
192.629880
 30
0.0
 11
163.710242
 21
215.581560
 31
0.0
  0
LINE
  5
1f0
100
AcDbEntity
  8
0
 62
5
100
AcDbLine
 10
124.175725
 20
302.948043
 30
0.0
 11
130.169587
 21
304.895567
 31
0.0
  0
LINE
  5
1f1
100
AcDbEntity
  8
0
 62
5
100
AcDbLine
 10
130.169587
 20
304.895567
 30
0.0
 11
138.936348
 21
277.914248
 31
0.0
  0
LINE
  5
1f2
100
AcDbEntity
  8
0
 62
5
100
AcDbLine
 10
138.936348
 20
277.914248
 30
0.0
 11
132.942487
 21
275.966725
 31
0.0
  0
LINE
  5
1f3
100
AcDbEntity
  8
0
 62
5
100
AcDbLine
 10
132.942487
 20
275.966725
 30
0.0
 11
124.175725
 21
302.948043
 31
0.0
  0
LINE
  5
1f4
100
AcDbEntity
  8
0
 62
5
100
AcDbLine
 10
113.573900
 20
398.255340
 30
0.0
 11
119.876219
 21
398.255340
 31
0.0
  0
LINE
  5
1f5
100
AcDbEntity
  8
0
 62
5
100
AcDbLine
 10
119.876219
 20
398.255340
 30
0.0
 11
119.876219
 21
369.885503
 31
0.0
  0
LINE
  5
1f6
100
AcDbEntity
  8
0
 62
5
100
AcDbLine
 10
119.876219
 20
369.885503
 30
0.0
 11
113.573900
 21
369.885503
 31
0.0
  0
LINE
  5
1f7
100
AcDbEntity
  8
0
 62
5
100
AcDbLine
 10
113.573900
 20
369.885503
 30
0.0
 11
113.573900
 21
398.255340
 31
0.0
  0
LINE
  5
1f8
100
AcDbEntity
  8
0
 62
5
100
AcDbLine
 10
132.942540
 20
492.174123
 30
0.0
 11
138.936401
 21
490.226599
 31
0.0
  0
LINE
  5
1f9
100
AcDbEntity
  8
0
 62
5
100
AcDbLine
 10
138.936401
 20
490.226599
 30
0.0
 11
130.169639
 21
463.245281
 31
0.0
  0
LINE
  5
1fa
100
AcDbEntity
  8
0
 62
5
100
AcDbLine
 10
130.169639
 20
463.245281
 30
0.0
 11
124.175778
 21
465.192805
 31
0.0
  0
LINE
  5
1fb
100
AcDbEntity
  8
0
 62
5
100
AcDbLine
 10
124.175778
 20
465.192805
 30
0.0
 11
132.942540
 21
492.174123
 31
0.0
  0
LINE
  5
1fc
100
AcDbEntity
  8
0
 62
5
100
AcDbLine
 10
180.385698
 20
575.510943
 30
0.0
 11
185.484381
 21
571.806533
 31
0.0
  0
LINE
  5
1fd
100
AcDbEntity
  8
0
 62
5
100
AcDbLine
 10
185.484381
 20
571.806533
 30
0.0
 11
168.809009
 21
548.854853
 31
0.0
  0
LINE
  5
1fe
100
AcDbEntity
  8
0
 62
5
100
AcDbLine
 10
168.809009
 20
548.854853
 30
0.0
 11
163.710326
 21
552.559263
 31
0.0
  0
LINE
  5
1ff
100
AcDbEntity
  8
0
 62
5
100
AcDbLine
 10
163.710326
 20
552.559263
 30
0.0
 11
180.385698
 21
575.510943
 31
0.0
  0
LINE
  5
200
100
AcDbEntity
  8
0
 62
5
100
AcDbLine
 10
251.259324
 20
640.108228
 30
0.0
 11
254.963734
 21
635.009545
 31
0.0
  0
LINE
  5
201
100
AcDbEntity
  8
0
 62
5
100
AcDbLine
 10
254.963734
 20
635.009545
 30
0.0
 11
232.012054
 21
618.334174
 31
0.0
  0
LINE
  5
202
100
AcDbEntity
  8
0
 62
5
100
AcDbLine
 10
232.012054
 20
618.334174
 30
0.0
 11
228.307644
 21
623.432856
 31
0.0
  0
LINE
  5
203
100
AcDbEntity
  8
0
 62
5
100
AcDbLine
 10
228.307644
 20
623.432856
 30
0.0
 11
251.259324
 21
640.108228
 31
0.0
  0
LINE
  5
204
100
AcDbEntity
  8
0
 62
5
100
AcDbLine
 10
338.625796
 20
679.642750
 30
0.0
 11
340.573319
 21
673.648889
 31
0.0
  0
LINE
  5
205
100
AcDbEntity
  8
0
 62
5
100
AcDbLine
 10
340.573319
 20
673.648889
 30
0.0
 11
313.592001
 21
664.882127
 31
0.0
  0
LINE
  5
206
100
AcDbEntity
  8
0
 62
5
100
AcDbLine
 10
313.592001
 20
664.882127
 30
0.0
 11
311.644477
 21
670.875989
 31
0.0
  0
LINE
  5
207
100
AcDbEntity
  8
0
 62
5
100
AcDbLine
 10
311.644477
 20
670.875989
 30
0.0
 11
338.625796
 21
679.642750
 31
0.0
  0
SPLINE
  5
208
100
AcDbEntity
  8
0
 62
7
100
AcDbSpline
 70
0
 71
3
 72
10
 73
6
 74
4
 40
0.000000
 40
0.000000
 40
0.000000
 40
0.000000
 40
5.069451
 40
9.708462
 40
14.088016
 40
14.088016
 40
14.088016
 40
14.088016
 10
712.524850
 20
364.970570
 30
0.0
 10
711.413067
 20
366.250657
 30
0.0
 10
709.283900
 20
368.702142
 30
0.0
 10
705.098934
 20
371.127747
 30
0.0
 10
702.096957
 20
371.519890
 30
0.0
 10
700.639150
 20
371.710320
 30
0.0
 11
712.524850
 21
364.970570
 31
0.0
 11
708.983692
 21
368.598177
 31
0.0
 11
704.936414
 21
370.865326
 31
0.0
 11
700.639150
 21
371.710320
 31
0.0
  0
ENDSEC
  0
SECTION
  2
OBJECTS
  0
DICTIONARY
  5
C
330
0
100
AcDbDictionary
  3
ACAD_GROUP
350
D
  3
ACAD_MLINESTYLE
350
17
  0
DICTIONARY
  5
D
330
C
100
AcDbDictionary
  0
DICTIONARY
  5
1A
330
C
100
AcDbDictionary
  0
DICTIONARY
  5
17
330
C
100
AcDbDictionary
  3
STANDARD
350
18
  0
DICTIONARY
  5
19
330
C
100
AcDbDictionary
  0
ENDSEC
  0
EOF
