<?xml version="1.0" encoding="UTF-8" standalone="no"?>
<!-- Created with matplotlib (http://matplotlib.org/) -->

<svg
   xmlns:dc="http://purl.org/dc/elements/1.1/"
   xmlns:cc="http://creativecommons.org/ns#"
   xmlns:rdf="http://www.w3.org/1999/02/22-rdf-syntax-ns#"
   xmlns:svg="http://www.w3.org/2000/svg"
   xmlns="http://www.w3.org/2000/svg"
   xmlns:sodipodi="http://sodipodi.sourceforge.net/DTD/sodipodi-0.dtd"
   xmlns:inkscape="http://www.inkscape.org/namespaces/inkscape"
   height="11in"
   version="1.1"
   viewBox="0 0 864 792"
   width="12in"
   id="svg448"
   sodipodi:docname="cone4.svg"
   inkscape:version="0.92.3 (2405546, 2018-03-11)">
  <metadata
     id="metadata452">
    <rdf:RDF>
      <cc:Work
         rdf:about="">
        <dc:format>image/svg+xml</dc:format>
        <dc:type
           rdf:resource="http://purl.org/dc/dcmitype/StillImage" />
        <dc:title />
      </cc:Work>
    </rdf:RDF>
  </metadata>
  <sodipodi:namedview
     pagecolor="#ffffff"
     bordercolor="#666666"
     borderopacity="1"
     objecttolerance="10"
     gridtolerance="10"
     guidetolerance="10"
     inkscape:pageopacity="0"
     inkscape:pageshadow="2"
     inkscape:window-width="1920"
     inkscape:window-height="1029"
     id="namedview450"
     showgrid="false"
     inkscape:snap-intersection-paths="true"
     inkscape:zoom="1"
     inkscape:cx="656.25765"
     inkscape:cy="630.53144"
     inkscape:window-x="0"
     inkscape:window-y="25"
     inkscape:window-maximized="1"
     inkscape:current-layer="svg448"
     units="in"
     inkscape:object-paths="true"
     inkscape:snap-page="true"
     inkscape:snap-nodes="true"
     inkscape:object-nodes="true"
     inkscape:snap-smooth-nodes="true"
     inkscape:snap-center="true"
     inkscape:snap-global="true"
     inkscape:snap-bbox="false"
     showguides="false"
     inkscape:snap-midpoints="true" />
  <defs
     id="defs4"
     style="stroke-linecap:butt;stroke-linejoin:round">
    <style
       type="text/css"
       id="style2">
*{stroke-linecap:butt;stroke-linejoin:round;}
  </style>
    <clipPath
       id="pbf9476fbec"
       style="stroke-linecap:butt;stroke-linejoin:round">
      <rect
         height="406.07999"
         width="310.26892"
         x="24.744226"
         y="7.1999998"
         id="rect1798"
         style="stroke-linecap:butt;stroke-linejoin:round" />
    </clipPath>
    <clipPath
       id="clipPath3268"
       style="stroke-linecap:butt;stroke-linejoin:round">
      <rect
         height="406.07999"
         width="310.26892"
         x="24.744226"
         y="7.1999998"
         id="rect3266"
         style="stroke-linecap:butt;stroke-linejoin:round" />
    </clipPath>
    <clipPath
       id="pbf9476fbec-7"
       style="stroke-linecap:butt;stroke-linejoin:round">
      <rect
         height="406.07999"
         width="310.26892"
         x="24.744226"
         y="7.1999998"
         id="rect1798-5"
         style="stroke-linecap:butt;stroke-linejoin:round" />
    </clipPath>
    <clipPath
       id="pbf9476fbec-6"
       style="stroke-linecap:butt;stroke-linejoin:round">
      <rect
         height="406.07999"
         width="310.26892"
         x="24.744226"
         y="7.1999998"
         id="rect1798-2"
         style="stroke-linecap:butt;stroke-linejoin:round" />
    </clipPath>
    <clipPath
       id="paf85c306f7"
       style="stroke-linecap:butt;stroke-linejoin:round">
      <rect
         height="406.07999"
         width="312.42859"
         x="24.702696"
         y="7.1999998"
         id="rect1307"
         style="stroke-linecap:butt;stroke-linejoin:round" />
    </clipPath>
    <clipPath
       id="clipPath2800"
       style="stroke-linecap:butt;stroke-linejoin:round">
      <rect
         height="406.07999"
         width="312.42859"
         x="24.702696"
         y="7.1999998"
         id="rect2798"
         style="stroke-linecap:butt;stroke-linejoin:round" />
    </clipPath>
  </defs>
  <g
     id="line2d_1"
     style="stroke-linecap:butt;stroke-linejoin:round"
     transform="translate(0,371.99999)" />
  <defs
     id="defs446">
    <clipPath
       id="p9b010a994c"
       style="stroke-linecap:butt;stroke-linejoin:round">
      <rect
         height="399.72617"
         width="243.70816"
         x="10.407009"
         y="7.1999998"
         id="rect443"
         style="stroke-linecap:butt;stroke-linejoin:round" />
    </clipPath>
  </defs>
  <path
     style="fill:none;fill-opacity:1;stroke:#000000;stroke-width:0.80550581;stroke-linecap:round;stroke-linejoin:round;stroke-miterlimit:4;stroke-dasharray:none;stroke-opacity:1"
     d="m 486.93738,318.10252 a 27.528903,27.528903 0 0 0 27.52985,27.52847 27.528903,27.528903 0 0 0 12.47308,-2.98889 90.950869,90.950869 0 0 0 46.84931,34.1348 27.528899,27.528899 0 0 0 -0.35245,4.1711 27.528899,27.528899 0 0 0 27.52985,27.52846 27.528899,27.528899 0 0 0 27.52846,-27.52846 27.528899,27.528899 0 0 0 -0.35106,-4.26129 90.950869,90.950869 0 0 0 46.90758,-34.04599 27.5289,27.5289 0 0 0 12.41341,2.99027 27.5289,27.5289 0 0 0 27.52985,-27.52847 27.5289,27.5289 0 0 0 -23.12702,-27.14133 90.950869,90.950869 0 0 0 0.0486,-0.96437 90.950869,90.950869 0 0 0 -18.0068,-54.15915 27.528903,27.528903 0 0 0 8.04527,-19.42076 27.528903,27.528903 0 0 0 -27.52985,-27.52985 27.528903,27.528903 0 0 0 -24.47576,14.99018 90.950869,90.950869 0 0 0 -28.98266,-4.83161 90.950869,90.950869 0 0 0 -28.94657,4.84826 27.528903,27.528903 0 0 0 -24.51323,-15.00683 27.528903,27.528903 0 0 0 -27.52985,27.52985 27.528903,27.528903 0 0 0 8.04943,19.42908 90.950869,90.950869 0 0 0 -18.01096,54.15083 90.950869,90.950869 0 0 0 0.0333,0.94495 27.528903,27.528903 0 0 0 -23.11182,27.16075 z"
     id="path1059"
     inkscape:connector-curvature="0" />
  <g
     transform="translate(-479.37862,719.05136)"
     id="line2d_1-3-3"
     style="stroke-linecap:butt;stroke-linejoin:round" />
  <path
     style="color:#000000;font-style:normal;font-variant:normal;font-weight:normal;font-stretch:normal;font-size:medium;line-height:normal;font-family:sans-serif;font-variant-ligatures:normal;font-variant-position:normal;font-variant-caps:normal;font-variant-numeric:normal;font-variant-alternates:normal;font-feature-settings:normal;text-indent:0;text-align:start;text-decoration:none;text-decoration-line:none;text-decoration-style:solid;text-decoration-color:#000000;letter-spacing:normal;word-spacing:normal;text-transform:none;writing-mode:lr-tb;direction:ltr;text-orientation:mixed;dominant-baseline:auto;baseline-shift:baseline;text-anchor:start;white-space:normal;shape-padding:0;clip-rule:nonzero;display:inline;overflow:visible;visibility:visible;opacity:1;isolation:auto;mix-blend-mode:normal;color-interpolation:sRGB;color-interpolation-filters:linearRGB;solid-color:#000000;solid-opacity:1;vector-effect:none;fill:none;fill-opacity:1;fill-rule:nonzero;stroke:#000000;stroke-width:0.71044773;stroke-linecap:round;stroke-linejoin:miter;stroke-miterlimit:4;stroke-dasharray:none;stroke-dashoffset:0;stroke-opacity:1;color-rendering:auto;image-rendering:auto;shape-rendering:auto;text-rendering:auto;enable-background:accumulate"
     d="m 23.291257,361.42585 c -7.1e-4,0.19406 0.01317,0.38533 0.04301,0.57307 1.912089,12.01563 67.749233,18.16359 67.749233,18.16359 l -1.298784,-13.84956 3.632718,-0.44125 c 0.505365,4.5875 0.95416,9.22722 1.323763,13.96057 0.739188,9.46672 1.132804,18.85785 1.035151,28.25001 0.0215,12.39872 -17.198632,2.85961 -18.198289,22.63026 l -8.596133,60.15633 c -1.060102,9.34661 -2.197103,21.21632 11.386582,27.1996 0.100391,0.0208 0.191821,0.0416 0.291397,0.0624 6.938043,5.69854 13.744076,11.55811 20.403165,17.62522 3.52488,3.23619 7.01232,6.49495 10.4236,9.82693 l -2.55733,2.62533 -10.388915,-9.7645 c 0,0 -35.104226,56.7351 -26.494698,65.33205 8.609518,8.59695 65.486063,-25.12515 65.486063,-25.12515 l -9.19141,-10.44164 2.67944,-2.49212 c 3.10532,3.41433 6.19623,6.90447 9.27745,10.51658 6.16241,7.22424 12.00047,14.59007 17.44204,22.24589 7.30518,10.01813 -12.23305,12.42249 -1.42089,29.00486 l 28.40403,53.72067 c 4.63616,8.18469 10.69377,18.4558 25.20008,15.3121 0.0943,-0.0424 0.1811,-0.0801 0.27474,-0.12211 8.96155,0.5321 17.91129,1.27315 26.86381,2.26732 4.75387,0.54626 9.49068,1.13276 14.20896,1.82329 l -0.5259,3.62718 -14.14374,-1.79417 c 0,0 4.94768,66.53465 16.9661,68.42916 12.01841,1.89454 38.21154,-58.82007 38.21154,-58.82007 l -13.57343,-3.04438 0.70212,-3.59108 c 4.51914,0.93698 9.07132,1.9443 13.68721,3.05547 9.23181,2.22236 18.28481,4.74894 27.18712,7.74415 11.79851,3.81096 -2.59504,17.2407 15.89904,24.30093 l 54.556,26.76529 c 8.56157,3.89641 19.49843,8.64572 29.38645,-2.42413 V 729.7791 c 12.39428,23.29562 32.19059,7.61703 32.23204,-7.98006 l 0.28307,-28.06268 c -0.29753,-22.44376 -21.35201,-35.52064 -32.51511,-13.94947 v -8.83203 -44.10743 c 12.39429,23.29563 22.64567,7.61703 22.68716,-7.98005 l 0.28307,-28.06269 c -0.29754,-22.44376 -11.8072,-35.52064 -22.97023,-13.94947 v -18.81437 c -32.96921,-0.0568 -63.44162,-10.71867 -88.2093,-28.74261 -26.63923,-19.42478 -45.0253,-45.96096 -54.46858,-75.1007 -10.13399,-31.37313 -9.41044,-63.64931 0.0777,-92.77448 10.24209,-31.33802 29.79943,-57.02474 54.59485,-75.01051 26.70605,-19.33282 57.62481,-28.61772 88.25648,-28.59414 42.60929,-6.33681 43.60265,-86.19148 -0.12558,-90.78477 69.17191,-15.32576 61.60877,-94.395365 0.12558,-115.744594 -7.61166,4.87154 -15.338,9.564623 -23.21721,14.052152 -4.16704,2.352325 -8.34439,4.662232 -12.56743,6.876914 l -1.70535,-3.244192 12.49666,-6.86165 c 0,0 -43.11155,-50.91972 -53.94824,-45.388174 -10.83667,5.531537 3.66047,70.047093 3.66047,70.047094 l 12.77003,-5.515683 1.543,3.317736 c -4.20681,1.898245 -8.48107,3.758368 -12.86854,5.572574 -8.77496,3.628386 -17.58477,6.906466 -26.54744,9.715928 -11.78521,3.851865 -8.03358,-15.474107 -27.14548,-10.315368 L 232.4751,99.960275 c -9.21676,1.880045 -20.85713,4.467035 -22.34997,19.234815 0.0113,0.1026 0.0196,0.19651 0.0305,0.29833 -3.27535,8.35851 -6.74491,16.64189 -10.45691,24.84902 -1.98855,4.3524 -4.01008,8.67645 -6.12483,12.95041 l -3.28721,-1.6221 6.07627,-12.89629 c 0,0 -64.80752,-15.85535 -70.32322,-5.0106 -5.51567,10.84475 44.13382,54.51854 44.13382,54.51854 l 7.08921,-11.96938 3.1984,1.77751 c -2.28762,4.00841 -4.65183,8.02683 -7.135,12.07345 -4.96638,8.09321 -10.16625,15.92317 -15.76583,23.4642 -7.27039,10.0434 -15.59559,-7.79626 -28.02522,7.61095 l -42.313277,43.61483 c -6.351431,6.93846 -14.248152,15.87195 -6.775606,28.69681 0.06887,0.0758 0.130211,0.14665 0.198414,0.22201 2.263534,8.68844 4.32585,17.42923 6.14704,26.25188 0.949509,4.69 1.854562,9.3764 2.655852,14.07713 l -3.611906,0.62026 -2.664179,-14.00498 c 0,0 -59.834211,24.48255 -59.880191,36.70878 z"
     id="path3011-3-6"
     inkscape:connector-curvature="0"
     sodipodi:nodetypes="cccccccccccccccscccccccccccccscccccccccccccccccccccccccccccscccccccccccccscccccccccccccc" />
  <path
     style="color:#000000;font-style:normal;font-variant:normal;font-weight:normal;font-stretch:normal;font-size:medium;line-height:normal;font-family:sans-serif;font-variant-ligatures:normal;font-variant-position:normal;font-variant-caps:normal;font-variant-numeric:normal;font-variant-alternates:normal;font-feature-settings:normal;text-indent:0;text-align:start;text-decoration:none;text-decoration-line:none;text-decoration-style:solid;text-decoration-color:#000000;letter-spacing:normal;word-spacing:normal;text-transform:none;writing-mode:lr-tb;direction:ltr;text-orientation:mixed;dominant-baseline:auto;baseline-shift:baseline;text-anchor:start;white-space:normal;shape-padding:0;clip-rule:nonzero;display:inline;overflow:visible;visibility:visible;opacity:1;isolation:auto;mix-blend-mode:normal;color-interpolation:sRGB;color-interpolation-filters:linearRGB;solid-color:#000000;solid-opacity:1;vector-effect:none;fill:none;fill-opacity:1;fill-rule:nonzero;stroke:#000000;stroke-width:0.71044773;stroke-linecap:round;stroke-linejoin:miter;stroke-miterlimit:4;stroke-dasharray:none;stroke-dashoffset:0;stroke-opacity:1;color-rendering:auto;image-rendering:auto;shape-rendering:auto;text-rendering:auto;enable-background:accumulate"
     d="m 342.81419,727.93917 a 1.7762969,1.7762969 0 0 0 1.60775,1.75762 c 0,0 2.28929,0.25164 5.10265,0.73634 2.81336,0.48472 6.18499,1.24746 7.97404,2.04809 4.22553,1.891 8.46731,3.89595 12.69925,5.97405 4.23093,2.07762 8.44555,4.23091 12.61045,6.45879 1.77809,0.95113 4.54956,3.20139 6.74925,5.17295 2.19969,1.97156 3.88526,3.66509 3.88526,3.66509 a 1.7762969,1.7762969 0 1 0 2.51987,-2.50322 c 0,0 -1.7511,-1.76205 -4.03328,-3.80755 -2.28216,-2.04549 -5.03838,-4.37225 -7.44489,-5.65953 -4.20434,-2.24898 -8.45663,-4.42189 -12.72146,-6.51613 -4.26384,-2.09377 -8.54333,-4.11469 -12.81396,-6.02586 -2.45903,-1.10046 -5.89265,-1.80252 -8.82139,-2.30711 -2.92874,-0.50459 -5.31726,-0.76779 -5.31726,-0.76779 a 1.7762969,1.7762969 0 0 0 -1.99628,1.77426 z"
     id="path840"
     inkscape:connector-curvature="0" />
  <path
     style="fill:none;fill-opacity:1;stroke:#000000;stroke-width:0.72253346;stroke-linecap:round;stroke-linejoin:round;stroke-miterlimit:4;stroke-dasharray:none;stroke-opacity:1"
     d="m 237.60226,407.5314 c 0.0746,9.49875 0.89162,18.97713 2.44354,28.34854 l 5.39497,-0.8506 c -1.50529,-9.09022 -2.2977,-18.28421 -2.37002,-27.49794 0.0333,-9.30305 0.80064,-18.58898 2.29508,-27.77128 l -5.39774,-0.85893 c -1.54058,9.4663 -2.33165,19.03943 -2.36583,28.63021 z m 19.93693,-82.86705 4.87045,2.48656 c 8.46382,-16.50344 19.4716,-31.57242 32.61954,-44.65414 l -3.86167,-3.86722 c -13.55452,13.48619 -24.90272,29.02108 -33.62832,46.0348 z m 0.0388,165.41636 c 8.64508,17.0443 19.91682,32.62301 33.40214,46.16523 l 3.86723,-3.86028 c -13.08086,-13.13597 -24.01452,-28.24738 -32.4003,-44.78041 z m 79.43693,79.79494 c 17.04541,8.66556 35.34819,14.5951 54.23686,17.57109 l 0.85892,-5.39634 c -18.32181,-2.88672 -36.07532,-8.63833 -52.60921,-17.04382 z m 0.31776,-324.64824 2.47686,4.87046 c 16.52527,-8.38908 34.26671,-14.12792 52.57451,-17.00635 l -0.85059,-5.39636 c -18.87411,2.96741 -37.16434,8.88373 -54.20078,17.53225 z"
     id="path943"
     inkscape:connector-curvature="0"
     sodipodi:nodetypes="ccccccccccccccccccccccccccc" />
  <path
     style="color:#000000;font-style:normal;font-variant:normal;font-weight:normal;font-stretch:normal;font-size:medium;line-height:normal;font-family:sans-serif;font-variant-ligatures:normal;font-variant-position:normal;font-variant-caps:normal;font-variant-numeric:normal;font-variant-alternates:normal;font-feature-settings:normal;text-indent:0;text-align:start;text-decoration:none;text-decoration-line:none;text-decoration-style:solid;text-decoration-color:#000000;letter-spacing:normal;word-spacing:normal;text-transform:none;writing-mode:lr-tb;direction:ltr;text-orientation:mixed;dominant-baseline:auto;baseline-shift:baseline;text-anchor:start;white-space:normal;shape-padding:0;clip-rule:nonzero;display:inline;overflow:visible;visibility:visible;opacity:1;isolation:auto;mix-blend-mode:normal;color-interpolation:sRGB;color-interpolation-filters:linearRGB;solid-color:#000000;solid-opacity:1;vector-effect:none;fill:none;fill-opacity:1;fill-rule:nonzero;stroke:#000000;stroke-width:0.71044773;stroke-linecap:butt;stroke-linejoin:miter;stroke-miterlimit:4;stroke-dasharray:none;stroke-dashoffset:0;stroke-opacity:1;color-rendering:auto;image-rendering:auto;shape-rendering:auto;text-rendering:auto;enable-background:accumulate"
     d="m 418.32721,237.42212 h 2.84179 v -49.9922 h -2.84179 z"
     id="path1036"
     inkscape:connector-curvature="0" />
  <path
     inkscape:connector-curvature="0"
     style="color:#000000;font-style:normal;font-variant:normal;font-weight:normal;font-stretch:normal;font-size:medium;line-height:normal;font-family:sans-serif;font-variant-ligatures:normal;font-variant-position:normal;font-variant-caps:normal;font-variant-numeric:normal;font-variant-alternates:normal;font-feature-settings:normal;text-indent:0;text-align:start;text-decoration:none;text-decoration-line:none;text-decoration-style:solid;text-decoration-color:#000000;letter-spacing:normal;word-spacing:normal;text-transform:none;writing-mode:lr-tb;direction:ltr;text-orientation:mixed;dominant-baseline:auto;baseline-shift:baseline;text-anchor:start;white-space:normal;shape-padding:0;clip-rule:nonzero;display:inline;overflow:visible;visibility:visible;opacity:1;isolation:auto;mix-blend-mode:normal;color-interpolation:sRGB;color-interpolation-filters:linearRGB;solid-color:#000000;solid-opacity:1;vector-effect:none;fill:none;fill-opacity:1;fill-rule:nonzero;stroke:#000000;stroke-width:0.71044773;stroke-linecap:round;stroke-linejoin:miter;stroke-miterlimit:4;stroke-dasharray:none;stroke-dashoffset:0;stroke-opacity:1;color-rendering:auto;image-rendering:auto;shape-rendering:auto;text-rendering:auto;enable-background:accumulate"
     d="m 169.41027,621.60208 a 1.7762969,1.7762969 0 0 0 0.26759,2.36696 c 0,0 1.70416,1.54918 3.69532,3.59497 1.99115,2.04579 4.27052,4.64466 5.24729,6.34396 2.30703,4.01355 4.56022,8.12885 6.76243,12.29757 2.20175,4.16765 4.34576,8.38701 6.40573,12.63746 0.87944,1.81464 1.79894,5.26413 2.41964,8.15216 0.62074,2.88795 0.98897,5.24879 0.98897,5.24879 a 1.7762969,1.7762969 0 1 0 3.50998,-0.54401 c 0,0 -0.38099,-2.45477 -1.02497,-5.45106 -0.64399,-2.99629 -1.50617,-6.49874 -2.69647,-8.95465 -2.07945,-4.29072 -4.24242,-8.54809 -6.46177,-12.74916 -2.21885,-4.20012 -4.49316,-8.3505 -6.8248,-12.40688 -1.34257,-2.33567 -3.70777,-4.92188 -5.78058,-7.05157 -2.07281,-2.1297 -3.85045,-3.74656 -3.85045,-3.74656 a 1.7762969,1.7762969 0 0 0 -2.65791,0.26202 z"
     id="path840-6" />
  <path
     inkscape:connector-curvature="0"
     style="color:#000000;font-style:normal;font-variant:normal;font-weight:normal;font-stretch:normal;font-size:medium;line-height:normal;font-family:sans-serif;font-variant-ligatures:normal;font-variant-position:normal;font-variant-caps:normal;font-variant-numeric:normal;font-variant-alternates:normal;font-feature-settings:normal;text-indent:0;text-align:start;text-decoration:none;text-decoration-line:none;text-decoration-style:solid;text-decoration-color:#000000;letter-spacing:normal;word-spacing:normal;text-transform:none;writing-mode:lr-tb;direction:ltr;text-orientation:mixed;dominant-baseline:auto;baseline-shift:baseline;text-anchor:start;white-space:normal;shape-padding:0;clip-rule:nonzero;display:inline;overflow:visible;visibility:visible;opacity:1;isolation:auto;mix-blend-mode:normal;color-interpolation:sRGB;color-interpolation-filters:linearRGB;solid-color:#000000;solid-opacity:1;vector-effect:none;fill:none;fill-opacity:1;fill-rule:nonzero;stroke:#000000;stroke-width:0.71044773;stroke-linecap:round;stroke-linejoin:miter;stroke-miterlimit:4;stroke-dasharray:none;stroke-dashoffset:0;stroke-opacity:1;color-rendering:auto;image-rendering:auto;shape-rendering:auto;text-rendering:auto;enable-background:accumulate"
     d="m 91.626922,433.64926 a 1.7762969,1.7762969 0 0 0 -1.174768,2.0722 c 0,0 0.4681,2.255 0.876493,5.08045 0.408385,2.82545 0.724856,6.26776 0.516269,8.21666 -0.492682,4.60306 -1.088728,9.2568 -1.757411,13.9238 -0.668427,4.66585 -1.413971,9.3396 -2.245773,13.9891 -0.355139,1.98499 -1.638794,5.31617 -2.834194,8.01747 -1.195304,2.70126 -2.285065,4.82766 -2.285065,4.82766 a 1.7762969,1.7762969 0 1 0 3.159409,1.62301 c 0,0 1.134641,-2.20989 2.374818,-5.01248 1.240176,-2.80256 2.601347,-6.14289 3.081922,-8.82939 0.839711,-4.69354 1.592256,-9.40919 2.266082,-14.11243 0.673694,-4.70217 1.273264,-9.39671 1.771203,-14.0489 0.286708,-2.67873 -0.106633,-6.16125 -0.531765,-9.10258 -0.425142,-2.94132 -0.912907,-5.29426 -0.912907,-5.29426 a 1.7762969,1.7762969 0 0 0 -2.304313,-1.35031 z"
     id="path840-6-3" />
  <path
     inkscape:connector-curvature="0"
     style="color:#000000;font-style:normal;font-variant:normal;font-weight:normal;font-stretch:normal;font-size:medium;line-height:normal;font-family:sans-serif;font-variant-ligatures:normal;font-variant-position:normal;font-variant-caps:normal;font-variant-numeric:normal;font-variant-alternates:normal;font-feature-settings:normal;text-indent:0;text-align:start;text-decoration:none;text-decoration-line:none;text-decoration-style:solid;text-decoration-color:#000000;letter-spacing:normal;word-spacing:normal;text-transform:none;writing-mode:lr-tb;direction:ltr;text-orientation:mixed;dominant-baseline:auto;baseline-shift:baseline;text-anchor:start;white-space:normal;shape-padding:0;clip-rule:nonzero;display:inline;overflow:visible;visibility:visible;opacity:1;isolation:auto;mix-blend-mode:normal;color-interpolation:sRGB;color-interpolation-filters:linearRGB;solid-color:#000000;solid-opacity:1;vector-effect:none;fill:none;fill-opacity:1;fill-rule:nonzero;stroke:#000000;stroke-width:0.71044773;stroke-linecap:round;stroke-linejoin:miter;stroke-miterlimit:4;stroke-dasharray:none;stroke-dashoffset:0;stroke-opacity:1;color-rendering:auto;image-rendering:auto;shape-rendering:auto;text-rendering:auto;enable-background:accumulate"
     d="m 139.17476,235.87234 a 1.7762969,1.7762969 0 0 0 -2.16842,0.98593 c 0,0 -0.94675,2.09947 -2.2771,4.62536 -1.33038,2.52589 -3.09768,5.49679 -4.41197,6.95087 -3.1042,3.43437 -6.32181,6.84898 -9.60598,10.23161 -3.28328,3.38186 -6.6336,6.7248 -10.03945,9.99739 -1.45406,1.39715 -4.45059,3.33762 -7.00546,4.82037 -2.55479,1.48279 -4.686286,2.56254 -4.686286,2.56254 a 1.7762969,1.7762969 0 1 0 1.602026,3.17008 c 0,0 2.2169,-1.1209 4.86753,-2.65928 2.65063,-1.53836 5.71524,-3.44068 7.68312,-5.33162 3.43813,-3.30359 6.81875,-6.67629 10.12838,-10.08523 3.30889,-3.40815 6.55333,-6.85369 9.69066,-10.32471 1.80648,-1.99862 3.53522,-5.04723 4.92015,-7.67671 1.38492,-2.62947 2.37334,-4.81974 2.37334,-4.81974 a 1.7762969,1.7762969 0 0 0 -1.07054,-2.44686 z"
     id="path840-6-3-2" />
  <path
     inkscape:connector-curvature="0"
     style="color:#000000;font-style:normal;font-variant:normal;font-weight:normal;font-stretch:normal;font-size:medium;line-height:normal;font-family:sans-serif;font-variant-ligatures:normal;font-variant-position:normal;font-variant-caps:normal;font-variant-numeric:normal;font-variant-alternates:normal;font-feature-settings:normal;text-indent:0;text-align:start;text-decoration:none;text-decoration-line:none;text-decoration-style:solid;text-decoration-color:#000000;letter-spacing:normal;word-spacing:normal;text-transform:none;writing-mode:lr-tb;direction:ltr;text-orientation:mixed;dominant-baseline:auto;baseline-shift:baseline;text-anchor:start;white-space:normal;shape-padding:0;clip-rule:nonzero;display:inline;overflow:visible;visibility:visible;opacity:1;isolation:auto;mix-blend-mode:normal;color-interpolation:sRGB;color-interpolation-filters:linearRGB;solid-color:#000000;solid-opacity:1;vector-effect:none;fill:none;fill-opacity:1;fill-rule:nonzero;stroke:#000000;stroke-width:0.71044773;stroke-linecap:round;stroke-linejoin:miter;stroke-miterlimit:4;stroke-dasharray:none;stroke-dashoffset:0;stroke-opacity:1;color-rendering:auto;image-rendering:auto;shape-rendering:auto;text-rendering:auto;enable-background:accumulate"
     d="m 293.89213,103.81537 a 1.7762969,1.7762969 0 0 0 -2.3338,-0.47693 c 0,0 -1.99998,1.14202 -4.56094,2.40354 -2.56097,1.26151 -5.737,2.62623 -7.65497,3.03008 -4.53003,0.95386 -9.14018,1.82507 -13.78539,2.6313 -4.64405,0.80611 -9.31944,1.54134 -13.99841,2.18701 -1.99759,0.27565 -5.5624,0.0842 -8.50087,-0.21794 -2.93844,-0.30206 -5.29751,-0.68139 -5.29751,-0.68139 a 1.7762969,1.7762969 0 1 0 -0.56726,3.5063 c 0,0 2.45235,0.39622 5.50101,0.70966 3.04863,0.31343 6.64609,0.57576 9.34962,0.20265 4.7233,-0.65178 9.4407,-1.39328 14.12197,-2.20581 4.6802,-0.81233 9.33025,-1.6928 13.90862,-2.65684 2.63623,-0.55509 5.82674,-2.00534 8.49274,-3.31859 2.66599,-1.31325 4.75305,-2.50425 4.75305,-2.50425 a 1.7762969,1.7762969 0 0 0 0.57214,-2.60879 z"
     id="path840-6-3-2-2" />
  <rect
     style="fill:none;fill-opacity:0.54128436;stroke:#000019;stroke-width:0.74939477;stroke-linecap:round;stroke-linejoin:round;stroke-miterlimit:4;stroke-dasharray:none;stroke-opacity:1"
     id="rect2903"
     width="6.3023186"
     height="28.369837"
     x="-714.10388"
     y="405.56317"
     inkscape:transform-center-x="4.4746399e-05"
     transform="rotate(-90)"
     inkscape:transform-center-y="303.02308" />
  <path
     style="fill:none;fill-opacity:0.54128436;stroke:#ff0000;stroke-width:0.71080607;stroke-linecap:round;stroke-linejoin:round;stroke-miterlimit:4;stroke-dasharray:none;stroke-opacity:1"
     id="path862"
     sodipodi:type="arc"
     sodipodi:cx="-407.92966"
     sodipodi:cy="419.74808"
     sodipodi:rx="240.896"
     sodipodi:ry="240.896"
     sodipodi:start="3.0714291"
     sodipodi:end="0.14340514"
     d="m -648.23294,436.63633 a 240.896,240.896 0 0 1 120.0694,-225.63378 240.896,240.896 0 0 1 255.42061,9.35789 240.896,240.896 0 0 1 103.23649,233.81508"
     sodipodi:open="true"
     transform="rotate(-90)" />
  <path
     style="color:#000000;font-style:normal;font-variant:normal;font-weight:normal;font-stretch:normal;font-size:medium;line-height:normal;font-family:sans-serif;font-variant-ligatures:normal;font-variant-position:normal;font-variant-caps:normal;font-variant-numeric:normal;font-variant-alternates:normal;font-feature-settings:normal;text-indent:0;text-align:start;text-decoration:none;text-decoration-line:none;text-decoration-style:solid;text-decoration-color:#000000;letter-spacing:normal;word-spacing:normal;text-transform:none;writing-mode:lr-tb;direction:ltr;text-orientation:mixed;dominant-baseline:auto;baseline-shift:baseline;text-anchor:start;white-space:normal;shape-padding:0;clip-rule:nonzero;display:inline;overflow:visible;visibility:visible;opacity:1;isolation:auto;mix-blend-mode:normal;color-interpolation:sRGB;color-interpolation-filters:linearRGB;solid-color:#000000;solid-opacity:1;vector-effect:none;fill:none;fill-opacity:1;fill-rule:nonzero;stroke:#000000;stroke-width:1;stroke-linecap:butt;stroke-linejoin:miter;stroke-miterlimit:4;stroke-dasharray:none;stroke-dashoffset:0;stroke-opacity:1;color-rendering:auto;image-rendering:auto;shape-rendering:auto;text-rendering:auto;enable-background:accumulate"
     d="M 557.83008 114.99219 L 557.83008 135.66602 L 541.30859 135.66602 L 541.30859 135.67383 L 540.75195 135.67383 L 540.75195 144.07617 L 541.30859 144.07617 L 541.30859 144.08398 L 557.83008 144.08398 L 557.83008 181.64844 L 561.83008 181.64844 L 561.83008 144.08398 L 578.01953 144.08398 L 578.01953 144.07617 L 578.57812 144.07617 L 578.57812 135.67383 L 578.01953 135.67383 L 578.01953 135.66602 L 561.83008 135.66602 L 561.83008 114.99219 L 557.83008 114.99219 z "
     transform="scale(0.75)"
     id="path874" />
  <path
     style="fill:none;stroke:#000000;stroke-width:1.01668501;stroke-linecap:square;stroke-linejoin:round;stroke-miterlimit:4;stroke-dasharray:none;stroke-opacity:1"
     d="m 700.63902,420.2896 c -3.37312,-0.0882 -6.7407,1.1707 -9.55815,3.90673 -4.1715,4.91546 -4.98135,10.70163 -2.4741,16.03858 -0.33105,0.15869 -1.48875,0.79409 -1.82077,0.95069 -20.35568,9.60361 -42.49773,15.31827 -64.94973,16.93798 -2.96486,-18.69679 -10.33545,-18.92781 -13.62012,0 l -0.0161,0.0293 c -3.54531,-18.57923 -11.31862,-17.89318 -13.53077,-0.18603 -23.10065,-1.42428 -44.67653,-7.16581 -64.92773,-16.52491 -0.37868,-0.17499 -1.58516,-0.83031 -1.96289,-1.00781 0.0249,-0.0472 0.0431,-0.0959 0.0674,-0.14355 0.98281,-1.93443 1.50441,-4.11803 1.51611,-6.2212 -0.17602,-4.75097 -2.23176,-8.50262 -5.80224,-11.14013 l -17.34815,30.51416 c -0.44795,0.81147 -1.25656,0.9066 -1.88086,0.6079 -0.59278,-0.4062 -0.84866,-1.22682 -0.43945,-1.9248 l 17.34814,-30.5127 c -0.071,-0.0318 -0.1467,-0.0546 -0.21826,-0.085 l 0.006,-0.0102 c -2.70221,-1.10743 -5.66031,-1.36906 -8.47998,-0.70312 -3.6903,0.94827 -6.90406,3.32513 -8.8125,6.57861 l -0.0146,-0.007 -21.54054,37.30956 0.0147,0.009 c -3.75378,8.74188 -0.36827,17.53767 8.26758,19.9878 6.34265,1.1549 11.75913,-1.03713 15.12744,-5.87696 0.30296,0.20738 1.43127,0.89231 1.73291,1.10156 18.49482,12.82673 34.51435,29.14467 47.14307,47.77881 -14.57789,11.80944 -11.27492,18.29148 6.33985,11.96338 -13.95013,12.18719 -9.42303,18.43873 6.90087,11.55029 10.31686,20.71791 16.13196,42.27361 18.15234,64.49122 0.0378,0.41544 0.0732,1.78724 0.1084,2.20313 -0.0534,0.002 -0.1049,0.0104 -0.1582,0.0132 -2.16666,0.11607 -4.31776,0.75592 -6.14502,1.79737 -4.02645,2.52792 -6.24815,6.18431 -6.74707,10.59521 l 35.10059,-0.23291 c 0.92672,-0.0178 1.41284,0.63422 1.4663,1.32422 -0.0554,0.71647 -0.63818,1.34865 -1.44726,1.34327 l -35.09912,0.23437 c 0.008,0.0774 0.0272,0.15276 0.0366,0.22998 h -0.0117 c 0.39203,2.89389 1.64333,5.58736 3.62988,7.69629 2.66639,2.72176 6.33121,4.31579 10.10303,4.3418 l 10e-4,0.0161 h 43.08126 v -0.0161 c 9.44756,-1.12008 15.37233,-8.45086 13.17627,-17.15479 -2.17116,-6.07035 -6.77775,-9.66449 -12.65332,-10.16162 0.0281,-0.36606 0.0575,-1.6864 0.0879,-2.05225 1.86086,-22.43034 7.98335,-44.46293 17.80664,-64.71679 17.67429,6.78075 21.55966,0.51213 6.81009,-11.79639 18.03405,6.33912 21.39817,-0.75204 7.11765,-11.56055 12.78382,-19.29361 28.54455,-35.1078 46.7754,-47.9663 0.34087,-0.24046 1.51042,-0.95693 1.85302,-1.19532 0.0284,0.0452 0.0617,0.0856 0.0908,0.13037 1.1838,1.81835 2.81332,3.36065 4.62892,4.42237 4.20248,2.22304 8.47988,2.31976 12.5493,0.54638 l -17.75242,-30.28125 c -0.4788,-0.79366 -0.1563,-1.54228 0.41452,-1.93359 0.64815,-0.31026 1.48688,-0.12037 1.8867,0.58301 l 17.75243,30.27978 c 0.063,-0.0456 0.11805,-0.0997 0.18022,-0.14648 l 0.006,0.0103 c 2.31015,-1.78646 4.017,-4.21829 4.8501,-6.99316 1.0239,-3.67004 0.57285,-7.64091 -1.29052,-10.92041 l 0.0132,-0.009 -21.54053,-37.30957 -0.0147,0.007 c -3.20272,-4.28727 -7.54882,-6.6264 -11.8857,-6.73975 z"
     id="path3082-3"
     inkscape:connector-curvature="0" />
  <rect
     inkscape:transform-center-y="288.19206"
     transform="rotate(-72)"
     inkscape:transform-center-x="93.639335"
     y="511.07642"
     x="-564.42908"
     height="28.369837"
     width="6.3023186"
     id="rect853"
     style="fill:none;fill-opacity:0.54128436;stroke:#000019;stroke-width:0.74939477;stroke-linecap:round;stroke-linejoin:round;stroke-miterlimit:4;stroke-dasharray:none;stroke-opacity:1" />
  <rect
     style="fill:none;fill-opacity:0.54128436;stroke:#000019;stroke-width:0.74939477;stroke-linecap:round;stroke-linejoin:round;stroke-miterlimit:4;stroke-dasharray:none;stroke-opacity:1"
     id="rect855"
     width="6.3023186"
     height="28.369837"
     x="-389.47449"
     y="565.1734"
     inkscape:transform-center-x="178.11256"
     transform="rotate(-54)"
     inkscape:transform-center-y="245.15077" />
  <rect
     inkscape:transform-center-y="178.11243"
     transform="rotate(-36)"
     inkscape:transform-center-x="245.15086"
     y="562.55878"
     x="-206.36589"
     height="28.369837"
     width="6.3023186"
     id="rect857"
     style="fill:none;fill-opacity:0.54128436;stroke:#000019;stroke-width:0.74939477;stroke-linecap:round;stroke-linejoin:round;stroke-miterlimit:4;stroke-dasharray:none;stroke-opacity:1" />
  <rect
     style="fill:none;fill-opacity:0.54128436;stroke:#000019;stroke-width:0.74939477;stroke-linecap:round;stroke-linejoin:round;stroke-miterlimit:4;stroke-dasharray:none;stroke-opacity:1"
     id="rect859"
     width="6.3023186"
     height="28.369837"
     x="-33.027233"
     y="503.48846"
     inkscape:transform-center-x="288.19209"
     transform="rotate(-18)"
     inkscape:transform-center-y="93.639216" />
  <rect
     inkscape:transform-center-y="-6.4699058e-05"
     inkscape:transform-center-x="303.02307"
     y="393.74466"
     x="113.5739"
     height="28.369837"
     width="6.3023186"
     id="rect861"
     style="fill:none;fill-opacity:0.54128436;stroke:#000019;stroke-width:0.74939477;stroke-linecap:round;stroke-linejoin:round;stroke-miterlimit:4;stroke-dasharray:none;stroke-opacity:1" />
  <rect
     style="fill:none;fill-opacity:0.54128436;stroke:#000019;stroke-width:0.74939477;stroke-linecap:round;stroke-linejoin:round;stroke-miterlimit:4;stroke-dasharray:none;stroke-opacity:1"
     id="rect863"
     width="6.3023186"
     height="28.369837"
     x="219.08716"
     y="244.06985"
     inkscape:transform-center-x="288.19204"
     inkscape:transform-center-y="-93.639341"
     transform="rotate(18)" />
  <rect
     transform="rotate(36)"
     inkscape:transform-center-y="-178.11254"
     inkscape:transform-center-x="245.15077"
     y="69.115273"
     x="273.18417"
     height="28.369837"
     width="6.3023186"
     id="rect865"
     style="fill:none;fill-opacity:0.54128436;stroke:#000019;stroke-width:0.74939477;stroke-linecap:round;stroke-linejoin:round;stroke-miterlimit:4;stroke-dasharray:none;stroke-opacity:1" />
  <rect
     style="fill:none;fill-opacity:0.54128436;stroke:#000019;stroke-width:0.74939477;stroke-linecap:round;stroke-linejoin:round;stroke-miterlimit:4;stroke-dasharray:none;stroke-opacity:1"
     id="rect867"
     width="6.3023186"
     height="28.369837"
     x="270.56955"
     y="-113.99332"
     inkscape:transform-center-x="178.11244"
     inkscape:transform-center-y="-245.15084"
     transform="rotate(54)" />
  <rect
     transform="rotate(72)"
     inkscape:transform-center-y="-288.19208"
     inkscape:transform-center-x="93.639227"
     y="-287.33197"
     x="211.49922"
     height="28.369837"
     width="6.3023186"
     id="rect869"
     style="fill:none;fill-opacity:0.54128436;stroke:#000019;stroke-width:0.74939477;stroke-linecap:round;stroke-linejoin:round;stroke-miterlimit:4;stroke-dasharray:none;stroke-opacity:1" />
</svg>
