  0
SECTION
  2
HEADER
  9
$ACADVER
  1
AC1014
  9
$HANDSEED
  5
FFFF
  9
$MEASUREMENT
 70
     1
  0
ENDSEC
  0
SECTION
  2
TABLES
  0
TABLE
  2
VPORT
  5
8
330
0
100
AcDbSymbolTable
 70
     4
  0
VPORT
  5
2E
330
8
100
AcDbSymbolTableRecord
100
AcDbViewportTableRecord
  2
*ACTIVE
 70
     0
 10
0.0
 20
0.0
 11
1.0
 21
1.0
 12
210.0
 22
148.5
 13
0.0
 23
0.0
 14
10.0
 24
10.0
 15
10.0
 25
10.0
 16
0.0
 26
0.0
 36
1.0
 17
0.0
 27
0.0
 37
0.0
 40
341.0
 41
1.24
 42
50.0
 43
0.0
 44
0.0
 50
0.0
 51
0.0
 71
     0
 72
   100
 73
     1
 74
     3
 75
     0
 76
     0
 77
     0
 78
     0
  0
ENDTAB
  0
TABLE
  2
LTYPE
  5
5
330
0
100
AcDbSymbolTable
 70
     1
  0
LTYPE
  5
14
330
5
100
AcDbSymbolTableRecord
100
AcDbLinetypeTableRecord
  2
BYBLOCK
 70
     0
  3

 72
    65
 73
     0
 40
0.0
  0
LTYPE
  5
15
330
5
100
AcDbSymbolTableRecord
100
AcDbLinetypeTableRecord
  2
BYLAYER
 70
     0
  3

 72
    65
 73
     0
 40
0.0
  0
LTYPE
  5
16
330
5
100
AcDbSymbolTableRecord
100
AcDbLinetypeTableRecord
  2
CONTINUOUS
 70
     0
  3
Solid line
 72
    65
 73
     0
 40
0.0
  0
ENDTAB
  0
TABLE
  2
LAYER
  5
2
100
AcDbSymbolTable
 70
1
  0
LAYER
  5
50
100
AcDbSymbolTableRecord
100
AcDbLayerTableRecord
  2
0
 70
0
  6
CONTINUOUS
  0
ENDTAB
  0
TABLE
  2
STYLE
  5
3
330
0
100
AcDbSymbolTable
 70
     1
  0
STYLE
  5
11
330
3
100
AcDbSymbolTableRecord
100
AcDbTextStyleTableRecord
  2
STANDARD
 70
     0
 40
0.0
 41
1.0
 50
0.0
 71
     0
 42
2.5
  3
txt
  4

  0
ENDTAB
  0
TABLE
  2
VIEW
  5
6
330
0
100
AcDbSymbolTable
 70
     0
  0
ENDTAB
  0
TABLE
  2
UCS
  5
7
330
0
100
AcDbSymbolTable
 70
     0
  0
ENDTAB
  0
TABLE
  2
APPID
  5
9
330
0
100
AcDbSymbolTable
 70
     2
  0
APPID
  5
12
330
9
100
AcDbSymbolTableRecord
100
AcDbRegAppTableRecord
  2
ACAD
 70
     0
  0
ENDTAB
  0
TABLE
  2
DIMSTYLE
  5
A
330
0
100
AcDbSymbolTable
 70
     1
  0
DIMSTYLE
105
27
330
A
100
AcDbSymbolTableRecord
100
AcDbDimStyleTableRecord
  2
ISO-25
 70
     0
  3

  4

  5

  6

  7

 40
1.0
 41
2.5
 42
0.625
 43
3.75
 44
1.25
 45
0.0
 46
0.0
 47
0.0
 48
0.0
140
2.5
141
2.5
142
0.0
143
0.03937007874016
144
1.0
145
0.0
146
1.0
147
0.625
 71
     0
 72
     0
 73
     0
 74
     0
 75
     0
 76
     0
 77
     1
 78
     8
170
     0
171
     3
172
     1
173
     0
174
     0
175
     0
176
     0
177
     0
178
     0
270
     2
271
     2
272
     2
273
     2
274
     3
340
11
275
     0
280
     0
281
     0
282
     0
283
     0
284
     8
285
     0
286
     0
287
     3
288
     0
  0
ENDTAB
  0
TABLE
  2
BLOCK_RECORD
  5
1
330
0
100
AcDbSymbolTable
 70
     1
  0
BLOCK_RECORD
  5
1F
330
1
100
AcDbSymbolTableRecord
100
AcDbBlockTableRecord
  2
*MODEL_SPACE
  0
BLOCK_RECORD
  5
1B
330
1
100
AcDbSymbolTableRecord
100
AcDbBlockTableRecord
  2
*PAPER_SPACE
  0
ENDTAB
  0
ENDSEC
  0
SECTION
  2
BLOCKS
  0
BLOCK
  5
20
330
1F
100
AcDbEntity
  8
0
100
AcDbBlockBegin
  2
*MODEL_SPACE
 70
     0
 10
0.0
 20
0.0
 30
0.0
  3
*MODEL_SPACE
  1

  0
ENDBLK
  5
21
330
1F
100
AcDbEntity
  8
0
100
AcDbBlockEnd
  0
BLOCK
  5
1C
330
1B
100
AcDbEntity
 67
     1
  8
0
100
AcDbBlockBegin
  2
*PAPER_SPACE
  1

  0
ENDBLK
  5
1D
330
1B
100
AcDbEntity
 67
     1
  8
0
100
AcDbBlockEnd
  0
ENDSEC
  0
SECTION
  2
ENTITIES
  0
SPLINE
  5
100
100
AcDbEntity
  8
0
 62
7
100
AcDbSpline
 70
0
 71
3
 72
13
 73
9
 74
7
 40
0.000000
 40
0.000000
 40
0.000000
 40
0.000000
 40
7.206461
 40
14.353284
 40
21.559745
 40
28.766206
 40
35.913030
 40
43.119491
 40
43.119491
 40
43.119491
 40
43.119491
 10
444.510970
 20
481.322100
 30
0.0
 10
444.694527
 20
478.912931
 30
0.0
 10
445.060121
 20
474.114529
 30
0.0
 10
447.948770
 20
467.401827
 30
0.0
 10
452.343488
 20
461.625161
 30
0.0
 10
458.120375
 20
457.230732
 30
0.0
 10
464.833221
 20
454.342420
 30
0.0
 10
469.631641
 20
453.977066
 30
0.0
 10
472.040820
 20
453.793630
 30
0.0
 11
444.510970
 21
481.322100
 31
0.0
 11
445.454260
 21
474.177642
 31
0.0
 11
448.189365
 21
467.574894
 31
0.0
 11
452.574487
 21
461.856171
 31
0.0
 11
458.293429
 21
457.471336
 31
0.0
 11
464.896314
 21
454.736561
 31
0.0
 11
472.040820
 21
453.793630
 31
0.0
  0
SPLINE
  5
101
100
AcDbEntity
  8
0
 62
7
100
AcDbSpline
 70
0
 71
3
 72
10
 73
6
 74
4
 40
0.000000
 40
0.000000
 40
0.000000
 40
0.000000
 40
4.314991
 40
8.616893
 40
12.931885
 40
12.931885
 40
12.931885
 40
12.931885
 10
472.040820
 20
453.793630
 30
0.0
 10
473.479481
 20
453.861362
 30
0.0
 10
476.352438
 20
453.996621
 30
0.0
 10
480.578549
 20
455.009312
 30
0.0
 10
483.200789
 20
456.190852
 30
0.0
 10
484.513900
 20
456.782520
 30
0.0
 11
472.040820
 21
453.793630
 31
0.0
 11
476.342515
 21
454.132118
 31
0.0
 11
480.525983
 21
455.134591
 31
0.0
 11
484.513900
 21
456.782520
 31
0.0
  0
SPLINE
  5
102
100
AcDbEntity
  8
0
 62
7
100
AcDbSpline
 70
0
 71
3
 72
10
 73
6
 74
4
 40
0.000000
 40
0.000000
 40
0.000000
 40
0.000000
 40
19.664028
 40
39.215823
 40
58.879851
 40
58.879851
 40
58.879851
 40
58.879851
 10
484.513900
 20
456.782520
 30
0.0
 10
488.653958
 20
451.678936
 30
0.0
 10
496.910444
 20
441.500897
 30
0.0
 10
513.017940
 20
429.764840
 30
0.0
 10
525.236464
 20
425.024615
 30
0.0
 10
531.363210
 20
422.647720
 30
0.0
 11
484.513900
 21
456.782520
 31
0.0
 11
497.555518
 21
442.065517
 31
0.0
 11
513.357715
 21
430.551904
 31
0.0
 11
531.363210
 21
422.647720
 31
0.0
  0
SPLINE
  5
103
100
AcDbEntity
  8
0
 62
7
100
AcDbSpline
 70
0
 71
3
 72
10
 73
6
 74
4
 40
0.000000
 40
0.000000
 40
0.000000
 40
0.000000
 40
1.396669
 40
2.792889
 40
4.189558
 40
4.189558
 40
4.189558
 40
4.189558
 10
531.363210
 20
422.647720
 30
0.0
 10
531.295848
 20
422.186998
 30
0.0
 10
531.161145
 20
421.265702
 30
0.0
 10
531.043460
 20
419.872949
 30
0.0
 10
531.021661
 20
418.942113
 30
0.0
 10
531.010760
 20
418.476620
 30
0.0
 11
531.363210
 21
422.647720
 31
0.0
 11
531.175191
 21
421.263764
 31
0.0
 11
531.057632
 21
419.872502
 31
0.0
 11
531.010760
 21
418.476620
 31
0.0
  0
SPLINE
  5
104
100
AcDbEntity
  8
0
 62
7
100
AcDbSpline
 70
0
 71
3
 72
13
 73
9
 74
7
 40
0.000000
 40
0.000000
 40
0.000000
 40
0.000000
 40
7.206460
 40
14.353282
 40
21.559741
 40
28.766201
 40
35.913023
 40
43.119483
 40
43.119483
 40
43.119483
 40
43.119483
 10
531.010760
 20
418.476620
 30
0.0
 10
531.194317
 20
416.067451
 30
0.0
 10
531.559913
 20
411.269050
 30
0.0
 10
534.448562
 20
404.556350
 30
0.0
 10
538.843281
 20
398.779686
 30
0.0
 10
544.620167
 20
394.385259
 30
0.0
 10
551.333013
 20
391.496949
 30
0.0
 10
556.131432
 20
391.131596
 30
0.0
 10
558.540610
 20
390.948160
 30
0.0
 11
531.010760
 21
418.476620
 31
0.0
 11
531.954051
 21
411.332163
 31
0.0
 11
534.689157
 21
404.729417
 31
0.0
 11
539.074279
 21
399.010696
 31
0.0
 11
544.793221
 21
394.625863
 31
0.0
 11
551.396106
 21
391.891090
 31
0.0
 11
558.540610
 21
390.948160
 31
0.0
  0
SPLINE
  5
105
100
AcDbEntity
  8
0
 62
7
100
AcDbSpline
 70
0
 71
3
 72
10
 73
6
 74
4
 40
0.000000
 40
0.000000
 40
0.000000
 40
0.000000
 40
14.393446
 40
28.360001
 40
42.753446
 40
42.753446
 40
42.753446
 40
42.753446
 10
558.540610
 20
390.948160
 30
0.0
 10
563.364273
 20
391.705393
 30
0.0
 10
572.868536
 20
393.197400
 30
0.0
 10
583.819830
 20
404.148694
 30
0.0
 10
585.311837
 20
413.652957
 30
0.0
 10
586.069070
 20
418.476620
 30
0.0
 11
558.540610
 21
390.948160
 31
0.0
 11
572.434652
 21
394.706732
 31
0.0
 11
582.310498
 21
404.582578
 31
0.0
 11
586.069070
 21
418.476620
 31
0.0
  0
SPLINE
  5
106
100
AcDbEntity
  8
0
 62
7
100
AcDbSpline
 70
0
 71
3
 72
10
 73
6
 74
4
 40
0.000000
 40
0.000000
 40
0.000000
 40
0.000000
 40
1.426678
 40
2.852878
 40
4.279557
 40
4.279557
 40
4.279557
 40
4.279557
 10
586.069070
 20
418.476620
 30
0.0
 10
586.059555
 20
418.952153
 30
0.0
 10
586.040529
 20
419.903058
 30
0.0
 10
585.923299
 20
421.326033
 30
0.0
 10
585.786447
 20
422.267232
 30
0.0
 10
585.718010
 20
422.737910
 30
0.0
 11
586.069070
 21
418.476620
 31
0.0
 11
586.025740
 21
419.902640
 31
0.0
 11
585.908641
 21
421.324025
 31
0.0
 11
585.718010
 21
422.737910
 31
0.0
  0
SPLINE
  5
107
100
AcDbEntity
  8
0
 62
7
100
AcDbSpline
 70
0
 71
3
 72
10
 73
6
 74
4
 40
0.000000
 40
0.000000
 40
0.000000
 40
0.000000
 40
19.662233
 40
39.212263
 40
58.874495
 40
58.874495
 40
58.874495
 40
58.874495
 10
585.718010
 20
422.737910
 30
0.0
 10
591.848478
 20
425.103515
 30
0.0
 10
604.074429
 20
429.821227
 30
0.0
 10
620.201869
 20
441.526683
 30
0.0
 10
628.476457
 20
451.688469
 30
0.0
 10
632.625590
 20
456.783900
 30
0.0
 11
585.718010
 21
422.737910
 31
0.0
 11
603.736143
 21
430.608759
 31
0.0
 11
619.557959
 21
442.092392
 31
0.0
 11
632.625590
 21
456.783900
 31
0.0
  0
SPLINE
  5
108
100
AcDbEntity
  8
0
 62
7
100
AcDbSpline
 70
0
 71
3
 72
10
 73
6
 74
4
 40
0.000000
 40
0.000000
 40
0.000000
 40
0.000000
 40
4.295219
 40
8.577526
 40
12.872745
 40
12.872745
 40
12.872745
 40
12.872745
 10
632.625590
 20
456.783900
 30
0.0
 10
633.932473
 20
456.194518
 30
0.0
 10
636.542309
 20
455.017525
 30
0.0
 10
640.747578
 20
454.004516
 30
0.0
 10
643.607091
 20
453.863996
 30
0.0
 10
645.039000
 20
453.793630
 30
0.0
 11
632.625590
 21
456.783900
 31
0.0
 11
636.594450
 21
455.141629
 31
0.0
 11
640.757669
 21
454.138751
 31
0.0
 11
645.039000
 21
453.793630
 31
0.0
  0
SPLINE
  5
109
100
AcDbEntity
  8
0
 62
7
100
AcDbSpline
 70
0
 71
3
 72
13
 73
9
 74
7
 40
0.000000
 40
0.000000
 40
0.000000
 40
0.000000
 40
7.206461
 40
14.353285
 40
21.559746
 40
28.766207
 40
35.913031
 40
43.119492
 40
43.119492
 40
43.119492
 40
43.119492
 10
645.039000
 20
453.793630
 30
0.0
 10
647.448179
 20
453.977066
 30
0.0
 10
652.246599
 20
454.342419
 30
0.0
 10
658.959446
 20
457.230731
 30
0.0
 10
664.736332
 20
461.625160
 30
0.0
 10
669.131051
 20
467.401826
 30
0.0
 10
672.019700
 20
474.114529
 30
0.0
 10
672.385294
 20
478.912931
 30
0.0
 10
672.568850
 20
481.322100
 30
0.0
 11
645.039000
 21
453.793630
 31
0.0
 11
652.183506
 21
454.736561
 31
0.0
 11
658.786391
 21
457.471335
 31
0.0
 11
664.505334
 21
461.856170
 31
0.0
 11
668.890456
 21
467.574893
 31
0.0
 11
671.625561
 21
474.177641
 31
0.0
 11
672.568850
 21
481.322100
 31
0.0
  0
SPLINE
  5
10a
100
AcDbEntity
  8
0
 62
7
100
AcDbSpline
 70
0
 71
3
 72
10
 73
6
 74
4
 40
0.000000
 40
0.000000
 40
0.000000
 40
0.000000
 40
12.917357
 40
25.517210
 40
38.434567
 40
38.434567
 40
38.434567
 40
38.434567
 10
672.568850
 20
481.322100
 30
0.0
 10
671.955239
 20
485.643947
 30
0.0
 10
670.743099
 20
494.181411
 30
0.0
 10
661.848414
 20
504.620005
 30
0.0
 10
653.611521
 20
507.171705
 30
0.0
 10
649.441830
 20
508.463430
 30
0.0
 11
672.568850
 21
481.322100
 31
0.0
 11
669.525348
 21
493.875793
 31
0.0
 11
661.353409
 21
503.466190
 31
0.0
 11
649.441830
 21
508.463430
 31
0.0
  0
SPLINE
  5
10b
100
AcDbEntity
  8
0
 62
7
100
AcDbSpline
 70
0
 71
3
 72
10
 73
6
 74
4
 40
0.000000
 40
0.000000
 40
0.000000
 40
0.000000
 40
0.321866
 40
0.643732
 40
0.965598
 40
0.965598
 40
0.965598
 40
0.965598
 10
649.441830
 20
508.463430
 30
0.0
 10
649.447685
 20
508.570559
 30
0.0
 10
649.459395
 20
508.784817
 30
0.0
 10
649.475595
 20
509.106276
 30
0.0
 10
649.485485
 20
509.320625
 30
0.0
 10
649.490430
 20
509.427800
 30
0.0
 11
649.441830
 21
508.463430
 31
0.0
 11
649.459168
 21
508.784829
 31
0.0
 11
649.475368
 21
509.106287
 31
0.0
 11
649.490430
 21
509.427800
 31
0.0
  0
SPLINE
  5
10c
100
AcDbEntity
  8
0
 62
7
100
AcDbSpline
 70
0
 71
3
 72
10
 73
6
 74
4
 40
0.000000
 40
0.000000
 40
0.000000
 40
0.000000
 40
19.350775
 40
38.594516
 40
57.945291
 40
57.945291
 40
57.945291
 40
57.945291
 10
649.490430
 20
509.427800
 30
0.0
 10
649.066980
 20
515.880340
 30
0.0
 10
648.222423
 20
528.749730
 30
0.0
 10
642.037433
 20
547.352356
 30
0.0
 10
635.008063
 20
558.165423
 30
0.0
 10
631.483630
 20
563.586950
 30
0.0
 11
649.490430
 21
509.427800
 31
0.0
 11
647.396793
 21
528.664982
 31
0.0
 11
641.325424
 21
546.925870
 31
0.0
 11
631.483630
 21
563.586950
 31
0.0
  0
SPLINE
  5
10d
100
AcDbEntity
  8
0
 62
7
100
AcDbSpline
 70
0
 71
3
 72
10
 73
6
 74
4
 40
0.000000
 40
0.000000
 40
0.000000
 40
0.000000
 40
7.188897
 40
14.318581
 40
21.507478
 40
21.507478
 40
21.507478
 40
21.507478
 10
631.483630
 20
563.586950
 30
0.0
 10
633.044979
 20
565.416883
 30
0.0
 10
636.154817
 20
569.061677
 30
0.0
 10
638.960127
 20
575.833512
 30
0.0
 10
639.338787
 20
580.609727
 30
0.0
 10
639.528900
 20
583.007710
 30
0.0
 11
631.483630
 21
563.586950
 31
0.0
 11
635.854552
 21
569.294425
 31
0.0
 11
638.583233
 21
575.881284
 31
0.0
 11
639.528900
 21
583.007710
 31
0.0
  0
SPLINE
  5
10e
100
AcDbEntity
  8
0
 62
7
100
AcDbSpline
 70
0
 71
3
 72
13
 73
9
 74
7
 40
0.000000
 40
0.000000
 40
0.000000
 40
0.000000
 40
7.206691
 40
14.353739
 40
21.560429
 40
28.767120
 40
35.914168
 40
43.120859
 40
43.120859
 40
43.120859
 40
43.120859
 10
639.528900
 20
583.007710
 30
0.0
 10
639.345452
 20
585.416966
 30
0.0
 10
638.980075
 20
590.215539
 30
0.0
 10
636.091582
 20
596.928568
 30
0.0
 10
631.696890
 20
602.705550
 30
0.0
 10
625.919908
 20
607.100242
 30
0.0
 10
619.206879
 20
609.988735
 30
0.0
 10
614.408306
 20
610.354112
 30
0.0
 10
611.999050
 20
610.537560
 30
0.0
 11
639.528900
 21
583.007710
 31
0.0
 11
638.585908
 21
590.152439
 31
0.0
 11
635.850965
 21
596.755498
 31
0.0
 11
631.465871
 21
602.474531
 31
0.0
 11
625.746838
 21
606.859625
 31
0.0
 11
619.143779
 21
609.594568
 31
0.0
 11
611.999050
 21
610.537560
 31
0.0
  0
SPLINE
  5
10f
100
AcDbEntity
  8
0
 62
7
100
AcDbSpline
 70
0
 71
3
 72
10
 73
6
 74
4
 40
0.000000
 40
0.000000
 40
0.000000
 40
0.000000
 40
10.060460
 40
19.963968
 40
30.024428
 40
30.024428
 40
30.024428
 40
30.024428
 10
611.999050
 20
610.537560
 30
0.0
 10
608.639604
 20
610.165649
 30
0.0
 10
601.973123
 20
609.427629
 30
0.0
 10
593.068221
 20
603.973821
 30
0.0
 10
589.381262
 20
598.370877
 30
0.0
 10
587.523290
 20
595.547380
 30
0.0
 11
611.999050
 21
610.537560
 31
0.0
 11
602.110003
 21
608.688341
 31
0.0
 11
593.664555
 21
603.515926
 31
0.0
 11
587.523290
 21
595.547380
 31
0.0
  0
SPLINE
  5
110
100
AcDbEntity
  8
0
 62
7
100
AcDbSpline
 70
0
 71
3
 72
10
 73
6
 74
4
 40
0.000000
 40
0.000000
 40
0.000000
 40
0.000000
 40
9.837283
 40
19.660265
 40
29.497548
 40
29.497548
 40
29.497548
 40
29.497548
 10
587.523290
 20
595.547380
 30
0.0
 10
584.383867
 20
596.501338
 30
0.0
 10
578.109585
 20
598.407868
 30
0.0
 10
568.373185
 20
600.030993
 30
0.0
 10
561.819737
 20
600.262935
 30
0.0
 10
558.540630
 20
600.378990
 30
0.0
 11
587.523290
 21
595.547380
 31
0.0
 11
578.051173
 21
598.202778
 31
0.0
 11
568.361907
 21
599.818045
 31
0.0
 11
558.540630
 21
600.378990
 31
0.0
  0
SPLINE
  5
111
100
AcDbEntity
  8
0
 62
7
100
AcDbSpline
 70
0
 71
3
 72
10
 73
6
 74
4
 40
0.000000
 40
0.000000
 40
0.000000
 40
0.000000
 40
9.826187
 40
19.638120
 40
29.464307
 40
29.464307
 40
29.464307
 40
29.464307
 10
558.540630
 20
600.378990
 30
0.0
 10
555.265333
 20
600.260091
 30
0.0
 10
548.719489
 20
600.022466
 30
0.0
 10
538.995384
 20
598.393776
 30
0.0
 10
532.729351
 20
596.485540
 30
0.0
 10
529.594060
 20
595.530730
 30
0.0
 11
558.540630
 21
600.378990
 31
0.0
 11
548.730930
 21
599.810009
 31
0.0
 11
539.053794
 21
598.189186
 31
0.0
 11
529.594060
 21
595.530730
 31
0.0
  0
SPLINE
  5
112
100
AcDbEntity
  8
0
 62
7
100
AcDbSpline
 70
0
 71
3
 72
10
 73
6
 74
4
 40
0.000000
 40
0.000000
 40
0.000000
 40
0.000000
 40
10.076315
 40
19.994969
 40
30.071284
 40
30.071284
 40
30.071284
 40
30.071284
 10
529.594060
 20
595.530730
 30
0.0
 10
527.734546
 20
598.359698
 30
0.0
 10
524.044612
 20
603.973369
 30
0.0
 10
515.123651
 20
609.434719
 30
0.0
 10
508.445988
 20
610.168019
 30
0.0
 10
505.080830
 20
610.537560
 30
0.0
 11
529.594060
 21
595.530730
 31
0.0
 11
523.446198
 21
603.514208
 31
0.0
 11
514.986866
 21
608.692953
 31
0.0
 11
505.080830
 21
610.537560
 31
0.0
  0
SPLINE
  5
113
100
AcDbEntity
  8
0
 62
7
100
AcDbSpline
 70
0
 71
3
 72
13
 73
9
 74
7
 40
0.000000
 40
0.000000
 40
0.000000
 40
0.000000
 40
7.206691
 40
14.353739
 40
21.560429
 40
28.767120
 40
35.914168
 40
43.120859
 40
43.120859
 40
43.120859
 40
43.120859
 10
505.080830
 20
610.537560
 30
0.0
 10
502.671574
 20
610.354112
 30
0.0
 10
497.873001
 20
609.988735
 30
0.0
 10
491.159972
 20
607.100242
 30
0.0
 10
485.382990
 20
602.705550
 30
0.0
 10
480.988298
 20
596.928568
 30
0.0
 10
478.099805
 20
590.215539
 30
0.0
 10
477.734428
 20
585.416966
 30
0.0
 10
477.550980
 20
583.007710
 30
0.0
 11
505.080830
 21
610.537560
 31
0.0
 11
497.936101
 21
609.594568
 31
0.0
 11
491.333042
 21
606.859625
 31
0.0
 11
485.614009
 21
602.474531
 31
0.0
 11
481.228915
 21
596.755498
 31
0.0
 11
478.493972
 21
590.152439
 31
0.0
 11
477.550980
 21
583.007710
 31
0.0
  0
SPLINE
  5
114
100
AcDbEntity
  8
0
 62
7
100
AcDbSpline
 70
0
 71
3
 72
10
 73
6
 74
4
 40
0.000000
 40
0.000000
 40
0.000000
 40
0.000000
 40
7.192242
 40
14.325190
 40
21.517432
 40
21.517432
 40
21.517432
 40
21.517432
 10
477.550980
 20
583.007710
 30
0.0
 10
477.740907
 20
580.608580
 30
0.0
 10
478.119194
 20
575.830099
 30
0.0
 10
480.926071
 20
569.055081
 30
0.0
 10
484.038003
 20
565.409144
 30
0.0
 10
485.600410
 20
563.578630
 30
0.0
 11
477.550980
 21
583.007710
 31
0.0
 11
478.496447
 21
575.877883
 31
0.0
 11
481.226584
 21
569.288095
 31
0.0
 11
485.600410
 21
563.578630
 31
0.0
  0
SPLINE
  5
115
100
AcDbEntity
  8
0
 62
7
100
AcDbSpline
 70
0
 71
3
 72
10
 73
6
 74
4
 40
0.000000
 40
0.000000
 40
0.000000
 40
0.000000
 40
19.348464
 40
38.589933
 40
57.938397
 40
57.938397
 40
57.938397
 40
57.938397
 10
485.600410
 20
563.578630
 30
0.0
 10
482.075942
 20
558.158052
 30
0.0
 10
475.046495
 20
547.346870
 30
0.0
 10
468.860121
 20
528.747235
 30
0.0
 10
468.013789
 20
515.879504
 30
0.0
 10
467.589450
 20
509.427800
 30
0.0
 11
485.600410
 21
563.578630
 31
0.0
 11
475.758294
 21
546.920424
 31
0.0
 11
469.685540
 21
528.662391
 31
0.0
 11
467.589450
 21
509.427800
 31
0.0
  0
SPLINE
  5
116
100
AcDbEntity
  8
0
 62
7
100
AcDbSpline
 70
0
 71
3
 72
10
 73
6
 74
4
 40
0.000000
 40
0.000000
 40
0.000000
 40
0.000000
 40
0.315180
 40
0.630360
 40
0.945540
 40
0.945540
 40
0.945540
 40
0.945540
 10
467.589450
 20
509.427800
 30
0.0
 10
467.592713
 20
509.322791
 30
0.0
 10
467.599240
 20
509.112772
 30
0.0
 10
467.610340
 20
508.797786
 30
0.0
 10
467.618613
 20
508.587829
 30
0.0
 10
467.622750
 20
508.482850
 30
0.0
 11
467.589450
 21
509.427800
 31
0.0
 11
467.599458
 21
509.112779
 31
0.0
 11
467.610558
 21
508.797794
 31
0.0
 11
467.622750
 21
508.482850
 31
0.0
  0
LINE
  5
117
100
AcDbEntity
  8
0
 62
7
100
AcDbLine
 10
444.510930
 20
481.322100
 30
0.0
 11
444.510970
 21
481.322100
 31
0.0
  0
SPLINE
  5
118
100
AcDbEntity
  8
0
 62
7
100
AcDbSpline
 70
0
 71
3
 72
10
 73
6
 74
4
 40
0.000000
 40
0.000000
 40
0.000000
 40
0.000000
 40
12.919505
 40
25.521359
 40
38.440864
 40
38.440864
 40
38.440864
 40
38.440864
 10
467.622750
 20
508.482850
 30
0.0
 10
463.453098
 20
507.188472
 30
0.0
 10
455.216314
 20
504.631540
 30
0.0
 10
446.327060
 20
494.184989
 30
0.0
 10
445.121309
 20
485.645160
 30
0.0
 10
444.510930
 20
481.322100
 30
0.0
 11
467.622750
 21
508.482850
 31
0.0
 11
455.712192
 21
503.477631
 31
0.0
 11
447.545456
 21
493.880175
 31
0.0
 11
444.510930
 21
481.322100
 31
0.0
  0
SPLINE
  5
119
100
AcDbEntity
  8
0
 62
7
100
AcDbSpline
 70
0
 71
3
 72
40
 73
36
 74
34
 40
0.000000
 40
0.000000
 40
0.000000
 40
0.000000
 40
0.510123
 40
1.017484
 40
1.523063
 40
1.766459
 40
2.009372
 40
2.251926
 40
2.291830
 40
2.331707
 40
2.371550
 40
2.585175
 40
2.798486
 40
3.011571
 40
3.098013
 40
3.184542
 40
3.271069
 40
3.443875
 40
3.616460
 40
3.789001
 40
3.922845
 40
4.056726
 40
4.190738
 40
4.325966
 40
4.461094
 40
4.596161
 40
4.809529
 40
5.023071
 40
5.236959
 40
5.289766
 40
5.342598
 40
5.395415
 40
5.974371
 40
6.555726
 40
7.139850
 40
7.139850
 40
7.139850
 40
7.139850
 10
443.796930
 20
378.341000
 30
0.0
 10
443.626880
 20
378.338607
 30
0.0
 10
443.287700
 20
378.333835
 30
0.0
 10
442.780942
 20
378.300076
 30
0.0
 10
442.364075
 20
378.259629
 30
0.0
 10
442.035858
 20
378.219593
 30
0.0
 10
441.795296
 20
378.185503
 30
0.0
 10
441.622288
 20
378.158296
 30
0.0
 10
441.516398
 20
378.140069
 30
0.0
 10
441.476989
 20
378.133982
 30
0.0
 10
441.380525
 20
378.117971
 30
0.0
 10
441.227623
 20
378.089075
 30
0.0
 10
441.018332
 20
378.047694
 30
0.0
 10
440.851278
 20
378.011376
 30
0.0
 10
440.725817
 20
377.982744
 30
0.0
 10
440.641701
 20
377.962572
 30
0.0
 10
440.529659
 20
377.935410
 30
0.0
 10
440.390053
 20
377.900204
 30
0.0
 10
440.223180
 20
377.855923
 30
0.0
 10
440.069394
 20
377.813010
 30
0.0
 10
439.928581
 20
377.771649
 30
0.0
 10
439.800810
 20
377.731547
 30
0.0
 10
439.672716
 20
377.690950
 30
0.0
 10
439.544212
 20
377.650272
 30
0.0
 10
439.415427
 20
377.609306
 30
0.0
 10
439.262771
 20
377.557526
 30
0.0
 10
439.086645
 20
377.493694
 30
0.0
 10
438.886922
 20
377.417923
 30
0.0
 10
438.738485
 20
377.357984
 30
0.0
 10
438.639281
 20
377.319204
 30
0.0
 10
438.589572
 20
377.301330
 30
0.0
 10
438.377639
 20
377.216646
 30
0.0
 10
438.008756
 20
377.050561
 30
0.0
 10
437.485371
 20
376.796754
 30
0.0
 10
437.146172
 20
376.607188
 30
0.0
 10
436.976170
 20
376.512180
 30
0.0
 11
443.796930
 21
378.341000
 31
0.0
 11
443.286940
 21
378.329353
 31
0.0
 11
442.780580
 21
378.297487
 31
0.0
 11
442.277390
 21
378.248400
 31
0.0
 11
442.035801
 21
378.218793
 31
0.0
 11
441.795269
 21
378.184877
 31
0.0
 11
441.555720
 21
378.146810
 31
0.0
 11
441.516370
 21
378.140180
 31
0.0
 11
441.476990
 21
378.133906
 31
0.0
 11
441.437680
 21
378.127410
 31
0.0
 11
441.227580
 21
378.088761
 31
0.0
 11
441.018393
 21
378.047022
 31
0.0
 11
440.810140
 21
378.001900
 31
0.0
 11
440.725881
 21
377.982596
 31
0.0
 11
440.641709
 21
377.962537
 31
0.0
 11
440.557630
 21
377.942100
 31
0.0
 11
440.390071
 21
377.899841
 31
0.0
 11
440.223262
 21
377.855565
 31
0.0
 11
440.057090
 21
377.809120
 31
0.0
 11
439.928713
 21
377.771259
 31
0.0
 11
439.800871
 21
377.731501
 31
0.0
 11
439.673100
 21
377.691080
 31
0.0
 11
439.544189
 21
377.650231
 31
0.0
 11
439.415541
 21
377.608892
 31
0.0
 11
439.287610
 21
377.565570
 31
0.0
 11
439.086884
 21
377.493217
 31
0.0
 11
438.887306
 21
377.417263
 31
0.0
 11
438.688460
 21
377.338470
 31
0.0
 11
438.639204
 21
377.319433
 31
0.0
 11
438.589676
 21
377.301040
 31
0.0
 11
438.540540
 21
377.281670
 31
0.0
 11
438.010654
 21
377.048408
 31
0.0
 11
437.488810
 21
376.792182
 31
0.0
 11
436.976170
 21
376.512180
 31
0.0
  0
LINE
  5
11a
100
AcDbEntity
  8
0
 62
7
100
AcDbLine
 10
431.994710
 20
371.515780
 30
0.0
 11
431.982710
 21
371.522780
 31
0.0
  0
LINE
  5
11b
100
AcDbEntity
  8
0
 62
7
100
AcDbLine
 10
431.982710
 20
371.522780
 30
0.0
 11
410.441680
 21
334.211110
 31
0.0
  0
LINE
  5
11c
100
AcDbEntity
  8
0
 62
7
100
AcDbLine
 10
410.441680
 20
334.211110
 30
0.0
 11
410.440680
 21
334.208110
 31
0.0
  0
LINE
  5
11d
100
AcDbEntity
  8
0
 62
7
100
AcDbLine
 10
410.440680
 20
334.208110
 30
0.0
 11
410.452580
 21
334.202110
 31
0.0
  0
SPLINE
  5
11e
100
AcDbEntity
  8
0
 62
7
100
AcDbSpline
 70
0
 71
3
 72
25
 73
21
 74
19
 40
0.000000
 40
0.000000
 40
0.000000
 40
0.000000
 40
1.116965
 40
2.229732
 40
3.340611
 40
3.410752
 40
3.480769
 40
3.550927
 40
3.689025
 40
3.827168
 40
3.965292
 40
4.125153
 40
4.285119
 40
4.445215
 40
4.510273
 40
4.575433
 40
4.640540
 40
5.466202
 40
6.296674
 40
7.133503
 40
7.133503
 40
7.133503
 40
7.133503
 10
436.976170
 20
376.512180
 30
0.0
 10
436.658781
 20
376.317174
 30
0.0
 10
436.025195
 20
375.927896
 30
0.0
 10
435.139687
 20
375.249237
 30
0.0
 10
434.573593
 20
374.734551
 30
0.0
 10
434.271831
 20
374.446731
 30
0.0
 10
434.220364
 20
374.399127
 30
0.0
 10
434.153675
 20
374.334637
 30
0.0
 10
434.073922
 20
374.251099
 30
0.0
 10
433.980190
 20
374.149658
 30
0.0
 10
433.881750
 20
374.042674
 30
0.0
 10
433.775765
 20
373.932798
 30
0.0
 10
433.665096
 20
373.817301
 30
0.0
 10
433.577712
 20
373.723188
 30
0.0
 10
433.515492
 20
373.649046
 30
0.0
 10
433.475138
 20
373.597946
 30
0.0
 10
433.271719
 20
373.352671
 30
0.0
 10
432.908037
 20
372.908716
 30
0.0
 10
432.425555
 20
372.230949
 30
0.0
 10
432.138690
 20
371.754775
 30
0.0
 10
431.994710
 20
371.515780
 30
0.0
 11
436.976170
 21
376.512180
 31
0.0
 11
436.034678
 21
375.911177
 31
0.0
 11
435.149366
 21
375.237033
 31
0.0
 11
434.322580
 21
374.495090
 31
0.0
 11
434.271678
 21
374.446833
 31
0.0
 11
434.220576
 21
374.398970
 31
0.0
 11
434.170180
 21
374.350160
 31
0.0
 11
434.074210
 21
374.250857
 31
0.0
 11
433.980220
 21
374.149619
 31
0.0
 11
433.886290
 21
374.048350
 31
0.0
 11
433.775856
 21
373.932765
 31
0.0
 11
433.665421
 21
373.817035
 31
0.0
 11
433.557580
 21
373.698710
 31
0.0
 11
433.515765
 21
373.648870
 31
0.0
 11
433.474925
 21
373.598097
 31
0.0
 11
433.433570
 21
373.547810
 31
0.0
 11
432.916361
 21
372.904216
 31
0.0
 11
432.435672
 21
372.227000
 31
0.0
 11
431.994710
 21
371.515780
 31
0.0
  0
SPLINE
  5
11f
100
AcDbEntity
  8
0
 62
7
100
AcDbSpline
 70
0
 71
3
 72
91
 73
87
 74
85
 40
0.000000
 40
0.000000
 40
0.000000
 40
0.000000
 40
2.378802
 40
4.748676
 40
7.127411
 40
7.276571
 40
7.424768
 40
7.573278
 40
7.783243
 40
7.993129
 40
8.203138
 40
8.399854
 40
8.595992
 40
8.791626
 40
9.097879
 40
9.404077
 40
9.710788
 40
9.734513
 40
9.758238
 40
9.782013
 40
9.932039
 40
10.081531
 40
10.231116
 40
10.470547
 40
10.710237
 40
10.950174
 40
11.115247
 40
11.280065
 40
11.444654
 40
11.791890
 40
12.139828
 40
12.488577
 40
12.599039
 40
12.709281
 40
12.819614
 40
13.114792
 40
13.410530
 40
13.707219
 40
13.817812
 40
13.928271
 40
14.038749
 40
14.114951
 40
14.191057
 40
14.267363
 40
14.428909
 40
14.589419
 40
14.750226
 40
14.969148
 40
15.187784
 40
15.406356
 40
15.665366
 40
15.923148
 40
16.180416
 40
16.358410
 40
16.536246
 40
16.714118
 40
16.994332
 40
17.273378
 40
17.551955
 40
17.708374
 40
17.864695
 40
18.021090
 40
18.316710
 40
18.611286
 40
18.905488
 40
19.043749
 40
19.181940
 40
19.320254
 40
19.621265
 40
19.921461
 40
20.221374
 40
20.364366
 40
20.507236
 40
20.650321
 40
20.929192
 40
21.207572
 40
21.485793
 40
21.665162
 40
21.844470
 40
22.024097
 40
22.262691
 40
22.500932
 40
22.739223
 40
22.756981
 40
22.774873
 40
22.792771
 40
22.792771
 40
22.792771
 40
22.792771
 10
410.452580
 20
334.202110
 30
0.0
 10
410.088704
 20
333.494987
 30
0.0
 10
409.362318
 20
332.083395
 30
0.0
 10
408.769697
 20
329.766673
 30
0.0
 10
408.595488
 20
328.133495
 30
0.0
 10
408.618190
 20
327.241495
 30
0.0
 10
408.629912
 20
327.093303
 30
0.0
 10
408.638750
 20
326.924631
 30
0.0
 10
408.644155
 20
326.735245
 30
0.0
 10
408.654129
 20
326.525517
 30
0.0
 10
408.667618
 20
326.320409
 30
0.0
 10
408.684595
 20
326.120168
 30
0.0
 10
408.702986
 20
325.924864
 30
0.0
 10
408.729032
 20
325.693636
 30
0.0
 10
408.764328
 20
325.426594
 30
0.0
 10
408.808649
 20
325.123366
 30
0.0
 10
408.849268
 20
324.915014
 30
0.0
 10
408.868166
 20
324.798484
 30
0.0
 10
408.871739
 20
324.775010
 30
0.0
 10
408.884469
 20
324.710400
 30
0.0
 10
408.907058
 20
324.605021
 30
0.0
 10
408.942065
 20
324.459464
 30
0.0
 10
408.983392
 20
324.284786
 30
0.0
 10
409.031239
 20
324.080745
 30
0.0
 10
409.091136
 20
323.848643
 30
0.0
 10
409.148576
 20
323.641553
 30
0.0
 10
409.201365
 20
323.459095
 30
0.0
 10
409.247686
 20
323.300904
 30
0.0
 10
409.315737
 20
323.085854
 30
0.0
 10
409.407597
 20
322.814349
 30
0.0
 10
409.526951
 20
322.487479
 30
0.0
 10
409.624299
 20
322.236569
 30
0.0
 10
409.699970
 20
322.062462
 30
0.0
 10
409.746712
 20
321.962499
 30
0.0
 10
409.817772
 20
321.805956
 30
0.0
 10
409.913357
 20
321.592626
 30
0.0
 10
410.042416
 20
321.326346
 30
0.0
 10
410.148813
 20
321.117539
 30
0.0
 10
410.229020
 20
320.964731
 30
0.0
 10
410.280006
 20
320.866678
 30
0.0
 10
410.327866
 20
320.779958
 30
0.0
 10
410.369200
 20
320.702723
 30
0.0
 10
410.403814
 20
320.634832
 30
0.0
 10
410.453818
 20
320.542865
 30
0.0
 10
410.525050
 20
320.430663
 30
0.0
 10
410.616040
 20
320.297919
 30
0.0
 10
410.714904
 20
320.147370
 30
0.0
 10
410.819317
 20
319.977416
 30
0.0
 10
410.936689
 20
319.792855
 30
0.0
 10
411.065897
 20
319.600039
 30
0.0
 10
411.208970
 20
319.400956
 30
0.0
 10
411.364346
 20
319.194948
 30
0.0
 10
411.506156
 20
319.012577
 30
0.0
 10
411.631981
 20
318.851541
 30
0.0
 10
411.741986
 20
318.711719
 30
0.0
 10
411.876887
 20
318.548184
 30
0.0
 10
412.038523
 20
318.363076
 30
0.0
 10
412.226886
 20
318.156859
 30
0.0
 10
412.390629
 20
317.984108
 30
0.0
 10
412.527282
 20
317.842064
 30
0.0
 10
412.636387
 20
317.730031
 30
0.0
 10
412.780317
 20
317.587175
 30
0.0
 10
412.961001
 20
317.415999
 30
0.0
 10
413.179355
 20
317.217905
 30
0.0
 10
413.362437
 20
317.059097
 30
0.0
 10
413.507263
 20
316.935776
 30
0.0
 10
413.613086
 20
316.846800
 30
0.0
 10
413.762147
 20
316.724973
 30
0.0
 10
413.956525
 20
316.573324
 30
0.0
 10
414.197117
 20
316.393453
 30
0.0
 10
414.399080
 20
316.250013
 30
0.0
 10
414.559154
 20
316.138203
 30
0.0
 10
414.676970
 20
316.057182
 30
0.0
 10
414.833570
 20
315.952649
 30
0.0
 10
415.030868
 20
315.827814
 30
0.0
 10
415.269072
 20
315.683506
 30
0.0
 10
415.481544
 20
315.560846
 30
0.0
 10
415.666348
 20
315.456351
 30
0.0
 10
415.823636
 20
315.369981
 30
0.0
 10
415.999603
 20
315.276658
 30
0.0
 10
416.194988
 20
315.178064
 30
0.0
 10
416.410150
 20
315.075514
 30
0.0
 10
416.558749
 20
315.004165
 30
0.0
 10
416.642848
 20
314.968586
 30
0.0
 10
416.659362
 20
314.961809
 30
0.0
 10
416.670294
 20
314.957030
 30
0.0
 10
416.675760
 20
314.954640
 30
0.0
 11
410.452580
 21
334.202110
 31
0.0
 11
409.444151
 21
332.047633
 31
0.0
 11
408.826705
 21
329.759607
 31
0.0
 11
408.614790
 21
327.390330
 31
0.0
 11
408.619531
 21
327.241246
 31
0.0
 11
408.629249
 21
327.093368
 31
0.0
 11
408.637190
 21
326.945070
 31
0.0
 11
408.644820
 21
326.735244
 31
0.0
 11
408.654760
 21
326.525593
 31
0.0
 11
408.668590
 21
326.316040
 31
0.0
 11
408.684916
 21
326.120003
 31
0.0
 11
408.703597
 21
325.924757
 31
0.0
 11
408.725390
 21
325.730340
 31
0.0
 11
408.765026
 21
325.426663
 31
0.0
 11
408.811008
 21
325.123937
 31
0.0
 11
408.864350
 21
324.821900
 31
0.0
 11
408.868128
 21
324.798478
 31
0.0
 11
408.871906
 21
324.775056
 31
0.0
 11
408.876350
 21
324.751700
 31
0.0
 11
408.907702
 21
324.604986
 31
0.0
 11
408.941968
 21
324.459474
 31
0.0
 11
408.976460
 21
324.313920
 31
0.0
 11
409.032080
 21
324.081039
 31
0.0
 11
409.091810
 21
323.848911
 31
0.0
 11
409.155750
 21
323.617650
 31
0.0
 11
409.201474
 21
323.459037
 31
0.0
 11
409.248276
 21
323.301003
 31
0.0
 11
409.297700
 21
323.144010
 31
0.0
 11
409.408821
 21
322.815034
 31
0.0
 11
409.527949
 21
322.488126
 31
0.0
 11
409.656290
 21
322.163850
 31
0.0
 11
409.700459
 21
322.062603
 31
0.0
 11
409.746511
 21
321.962440
 31
0.0
 11
409.792260
 21
321.862040
 31
0.0
 11
409.914622
 21
321.593418
 31
0.0
 11
410.043155
 21
321.327072
 31
0.0
 11
410.177750
 21
321.062670
 31
0.0
 11
410.228979
 21
320.964657
 31
0.0
 11
410.280405
 21
320.866900
 31
0.0
 11
410.333140
 21
320.769820
 31
0.0
 11
410.368991
 21
320.702578
 31
0.0
 11
410.404082
 21
320.635045
 31
0.0
 11
410.440720
 21
320.568110
 31
0.0
 11
410.526015
 21
320.430918
 31
0.0
 11
410.615548
 21
320.297699
 31
0.0
 11
410.703690
 21
320.163200
 31
0.0
 11
410.819847
 21
319.977636
 31
0.0
 11
410.937433
 21
319.793311
 31
0.0
 11
411.059290
 21
319.611860
 31
0.0
 11
411.210009
 21
319.401219
 31
0.0
 11
411.364951
 21
319.195198
 31
0.0
 11
411.522470
 21
318.991790
 31
0.0
 11
411.632093
 21
318.851559
 31
0.0
 11
411.742514
 21
318.712157
 31
0.0
 11
411.855670
 21
318.574920
 31
0.0
 11
412.039557
 21
318.363484
 31
0.0
 11
412.227620
 21
318.157330
 31
0.0
 11
412.418960
 21
317.954860
 31
0.0
 11
412.527419
 21
317.842151
 31
0.0
 11
412.636684
 21
317.730359
 31
0.0
 11
412.747670
 21
317.620170
 31
0.0
 11
412.961977
 21
317.416543
 31
0.0
 11
413.180173
 21
317.218640
 31
0.0
 11
413.402100
 21
317.025500
 31
0.0
 11
413.507374
 21
316.935870
 31
0.0
 11
413.613259
 21
316.847073
 31
0.0
 11
413.720360
 21
316.759550
 31
0.0
 11
413.957364
 21
316.573979
 31
0.0
 11
414.197913
 21
316.394384
 31
0.0
 11
414.442030
 21
316.220160
 31
0.0
 11
414.559287
 21
316.138322
 31
0.0
 11
414.677096
 21
316.057495
 31
0.0
 11
414.796140
 21
315.978110
 31
0.0
 11
415.031480
 21
315.828497
 31
0.0
 11
415.269616
 21
315.684323
 31
0.0
 11
415.510330
 21
315.544810
 31
0.0
 11
415.666548
 21
315.456666
 31
0.0
 11
415.823749
 21
315.370414
 31
0.0
 11
415.982480
 21
315.286330
 31
0.0
 11
416.195480
 21
315.178821
 31
0.0
 11
416.410107
 21
315.075409
 31
0.0
 11
416.626460
 21
314.975540
 31
0.0
 11
416.642819
 21
314.968633
 31
0.0
 11
416.659334
 21
314.961747
 31
0.0
 11
416.675760
 21
314.954640
 31
0.0
  0
SPLINE
  5
120
100
AcDbEntity
  8
0
 62
7
100
AcDbSpline
 70
0
 71
3
 72
10
 73
6
 74
4
 40
0.000000
 40
0.000000
 40
0.000000
 40
0.000000
 40
6.525186
 40
12.914266
 40
19.498478
 40
19.498478
 40
19.498478
 40
19.498478
 10
416.675760
 20
314.954640
 30
0.0
 10
418.786488
 20
314.312851
 30
0.0
 10
422.963917
 20
313.042658
 30
0.0
 10
429.670045
 20
314.977740
 30
0.0
 10
432.525645
 20
318.310437
 30
0.0
 10
433.974920
 20
320.001850
 30
0.0
 11
416.675760
 21
314.954640
 31
0.0
 11
423.075390
 21
313.680749
 31
0.0
 11
429.213344
 21
315.454407
 31
0.0
 11
433.974920
 21
320.001850
 31
0.0
  0
SPLINE
  5
121
100
AcDbEntity
  8
0
 62
7
100
AcDbSpline
 70
0
 71
3
 72
94
 73
90
 74
88
 40
0.000000
 40
0.000000
 40
0.000000
 40
0.000000
 40
0.654681
 40
1.309363
 40
1.963992
 40
2.698974
 40
3.433987
 40
4.168900
 40
4.948150
 40
5.727484
 40
6.506715
 40
7.251057
 40
7.995305
 40
8.739592
 40
9.505915
 40
10.272209
 40
11.038528
 40
11.769560
 40
12.500601
 40
13.231600
 40
14.032438
 40
14.833171
 40
15.633998
 40
16.334633
 40
17.035260
 40
17.735878
 40
18.539884
 40
19.343870
 40
20.147866
 40
20.848508
 40
21.549126
 40
22.249765
 40
23.061002
 40
23.872178
 40
24.683411
 40
25.381302
 40
26.079138
 40
26.777034
 40
27.576832
 40
28.376688
 40
29.176490
 40
29.870339
 40
30.564209
 40
31.258075
 40
32.089561
 40
32.921109
 40
33.752597
 40
34.347778
 40
34.943038
 40
35.538246
 40
36.463192
 40
37.388086
 40
38.313037
 40
38.646777
 40
38.980490
 40
39.314245
 40
41.870730
 40
44.427138
 40
46.983773
 40
48.025404
 40
49.067119
 40
50.108821
 40
50.551120
 40
50.993421
 40
51.435721
 40
52.443210
 40
53.450733
 40
54.458286
 40
54.942553
 40
55.426843
 40
55.911109
 40
56.882340
 40
57.853582
 40
58.824864
 40
59.358683
 40
59.892474
 40
60.426297
 40
61.357313
 40
62.288348
 40
63.219402
 40
63.797533
 40
64.375566
 40
64.953703
 40
65.859727
 40
66.765806
 40
67.671866
 40
67.931135
 40
68.190441
 40
68.449714
 40
68.449714
 40
68.449714
 40
68.449714
 10
433.974920
 20
320.001850
 30
0.0
 10
434.154138
 20
319.877334
 30
0.0
 10
434.512574
 20
319.628300
 30
0.0
 10
435.047375
 20
319.250707
 30
0.0
 10
435.604192
 20
318.857892
 30
0.0
 10
436.185057
 20
318.452729
 30
0.0
 10
436.787730
 20
318.032056
 30
0.0
 10
437.399086
 20
317.598051
 30
0.0
 10
438.016159
 20
317.146710
 30
0.0
 10
438.641769
 20
316.682086
 30
0.0
 10
439.257475
 20
316.223640
 30
0.0
 10
439.865889
 20
315.774998
 30
0.0
 10
440.464278
 20
315.332389
 30
0.0
 10
441.065449
 20
314.881227
 30
0.0
 10
441.666760
 20
314.418106
 30
0.0
 10
442.270574
 20
313.946255
 30
0.0
 10
442.864554
 20
313.480926
 30
0.0
 10
443.450515
 20
313.024420
 30
0.0
 10
444.026108
 20
312.573763
 30
0.0
 10
444.617124
 20
312.105074
 30
0.0
 10
445.222172
 20
311.616740
 30
0.0
 10
445.842754
 20
311.110617
 30
0.0
 10
446.435807
 20
310.623596
 30
0.0
 10
447.002264
 20
310.156769
 30
0.0
 10
447.541380
 20
309.709293
 30
0.0
 10
448.104949
 20
309.237337
 30
0.0
 10
448.692052
 20
308.739840
 30
0.0
 10
449.302893
 20
308.217072
 30
0.0
 10
449.885611
 20
307.714443
 30
0.0
 10
450.440858
 20
307.232725
 30
0.0
 10
450.968459
 20
306.771718
 30
0.0
 10
451.521652
 20
306.283985
 30
0.0
 10
452.100491
 20
305.769624
 30
0.0
 10
452.704938
 20
305.228590
 30
0.0
 10
453.278670
 20
304.709901
 30
0.0
 10
453.821412
 20
304.213291
 30
0.0
 10
454.334008
 20
303.739712
 30
0.0
 10
454.870065
 20
303.241477
 30
0.0
 10
455.430293
 20
302.719297
 30
0.0
 10
456.013589
 20
302.172051
 30
0.0
 10
456.568333
 20
301.645996
 30
0.0
 10
457.093710
 20
301.140348
 30
0.0
 10
457.591157
 20
300.656620
 30
0.0
 10
458.120139
 20
300.139518
 30
0.0
 10
458.682120
 20
299.590521
 30
0.0
 10
459.275244
 20
299.007761
 30
0.0
 10
459.809293
 20
298.477264
 30
0.0
 10
460.282131
 20
297.996971
 30
0.0
 10
460.696484
 20
297.569660
 30
0.0
 10
461.187874
 20
297.063936
 30
0.0
 10
461.758258
 20
296.481768
 30
0.0
 10
462.402857
 20
295.818458
 30
0.0
 10
462.907572
 20
295.293978
 30
0.0
 10
463.270288
 20
294.906426
 30
0.0
 10
463.495915
 20
294.660511
 30
0.0
 10
464.227953
 20
293.873747
 30
0.0
 10
465.465436
 20
292.545212
 30
0.0
 10
467.176700
 20
290.645792
 30
0.0
 10
468.530559
 20
289.104249
 30
0.0
 10
469.534145
 20
287.927372
 30
0.0
 10
470.203411
 20
287.129123
 30
0.0
 10
470.741179
 20
286.481347
 30
0.0
 10
471.153792
 20
285.989366
 30
0.0
 10
471.439241
 20
285.651506
 30
0.0
 10
471.842191
 20
285.166304
 30
0.0
 10
472.357769
 20
284.529796
 30
0.0
 10
472.987938
 20
283.743675
 30
0.0
 10
473.505782
 20
283.091048
 30
0.0
 10
473.916022
 20
282.575691
 30
0.0
 10
474.217714
 20
282.196872
 30
0.0
 10
474.617727
 20
281.688854
 30
0.0
 10
475.112623
 20
281.048983
 30
0.0
 10
475.702688
 20
280.277518
 30
0.0
 10
476.200948
 20
279.619412
 30
0.0
 10
476.611258
 20
279.077617
 30
0.0
 10
476.933303
 20
278.651891
 30
0.0
 10
477.332411
 20
278.118455
 30
0.0
 10
477.806102
 20
277.475469
 30
0.0
 10
478.354593
 20
276.723147
 30
0.0
 10
478.830793
 20
276.063703
 30
0.0
 10
479.236598
 20
275.498568
 30
0.0
 10
479.572389
 20
275.027989
 30
0.0
 10
479.969742
 20
274.467071
 30
0.0
 10
480.427508
 20
273.814950
 30
0.0
 10
480.944407
 20
273.070803
 30
0.0
 10
481.335985
 20
272.502102
 30
0.0
 10
481.603206
 20
272.109542
 30
0.0
 10
481.748229
 20
271.894610
 30
0.0
 10
481.845085
 20
271.751434
 30
0.0
 10
481.893510
 20
271.679850
 30
0.0
 11
433.974920
 21
320.001850
 31
0.0
 11
434.512100
 21
319.627625
 31
0.0
 11
435.047413
 21
319.250731
 31
0.0
 11
435.582620
 21
318.873780
 31
0.0
 11
436.185025
 21
318.452701
 31
0.0
 11
436.787199
 21
318.031239
 31
0.0
 11
437.386050
 21
317.605240
 31
0.0
 11
438.015572
 21
317.145966
 31
0.0
 11
438.641701
 21
316.681937
 31
0.0
 11
439.267170
 21
316.217190
 31
0.0
 11
439.865806
 21
315.774833
 31
0.0
 11
440.463754
 21
315.331704
 31
0.0
 11
441.058650
 21
314.884420
 31
0.0
 11
441.666215
 21
314.417391
 31
0.0
 11
442.270471
 21
313.946139
 31
0.0
 11
442.874030
 21
313.473950
 31
0.0
 11
443.450333
 21
313.024191
 31
0.0
 11
444.025651
 21
312.573159
 31
0.0
 11
444.598260
 21
312.118760
 31
0.0
 11
445.221770
 21
311.616189
 31
0.0
 11
445.842444
 21
311.110287
 31
0.0
 11
446.461460
 21
310.602210
 31
0.0
 11
447.002005
 21
310.156452
 31
0.0
 11
447.541055
 21
309.708898
 31
0.0
 11
448.078120
 21
309.258980
 31
0.0
 11
448.691631
 21
308.739337
 31
0.0
 11
449.302552
 21
308.216680
 31
0.0
 11
449.911430
 21
307.691630
 31
0.0
 11
450.440593
 21
307.232409
 31
0.0
 11
450.968110
 21
306.771331
 31
0.0
 11
451.493720
 21
306.308050
 31
0.0
 11
452.100181
 21
305.769246
 31
0.0
 11
452.704476
 21
305.228104
 31
0.0
 11
453.306110
 21
304.683920
 31
0.0
 11
453.821047
 21
304.212866
 31
0.0
 11
454.333757
 21
303.739470
 31
0.0
 11
454.845080
 21
303.264490
 31
0.0
 11
455.429982
 21
302.718993
 31
0.0
 11
456.013115
 21
302.171520
 31
0.0
 11
456.593230
 21
301.620930
 31
0.0
 11
457.093290
 21
301.139925
 31
0.0
 11
457.590946
 21
300.656402
 31
0.0
 11
458.087360
 21
300.171610
 31
0.0
 11
458.681827
 21
299.590251
 31
0.0
 11
459.274727
 21
299.007206
 31
0.0
 11
459.863900
 21
298.420480
 31
0.0
 11
460.281574
 21
297.996466
 31
0.0
 11
460.696569
 21
297.569718
 31
0.0
 11
461.111510
 21
297.142990
 31
0.0
 11
461.757819
 21
296.481317
 31
0.0
 11
462.402305
 21
295.817943
 31
0.0
 11
463.041940
 21
295.149810
 31
0.0
 11
463.269890
 21
294.906045
 31
0.0
 11
463.496190
 21
294.660785
 31
0.0
 11
463.723260
 21
294.416180
 31
0.0
 11
465.460243
 21
292.540412
 31
0.0
 11
467.172620
 21
290.642258
 31
0.0
 11
468.857130
 21
288.719030
 31
0.0
 11
469.533018
 21
287.926457
 31
0.0
 11
470.202766
 21
287.128580
 31
0.0
 11
470.869740
 21
286.328400
 31
0.0
 11
471.153996
 21
285.989539
 31
0.0
 11
471.438764
 21
285.651104
 31
0.0
 11
471.721400
 21
285.310890
 31
0.0
 11
472.357094
 21
284.529272
 31
0.0
 11
472.987279
 21
283.743161
 31
0.0
 11
473.614480
 21
282.954630
 31
0.0
 11
473.916031
 21
282.575709
 31
0.0
 11
474.217369
 21
282.196588
 31
0.0
 11
474.516940
 21
281.816100
 31
0.0
 11
475.111929
 21
281.048456
 31
0.0
 11
475.702047
 21
280.277047
 31
0.0
 11
476.288990
 21
279.503170
 31
0.0
 11
476.611226
 21
279.077580
 31
0.0
 11
476.932921
 21
278.651617
 31
0.0
 11
477.252710
 21
278.224180
 31
0.0
 11
477.805475
 21
277.475019
 31
0.0
 11
478.354018
 21
276.722738
 31
0.0
 11
478.899250
 21
275.968030
 31
0.0
 11
479.236384
 21
275.498375
 31
0.0
 11
479.572100
 21
275.027825
 31
0.0
 11
479.906300
 21
274.556070
 31
0.0
 11
480.426886
 21
273.814539
 31
0.0
 11
480.943901
 21
273.070445
 31
0.0
 11
481.457220
 21
272.323820
 31
0.0
 11
481.603052
 21
272.109454
 31
0.0
 11
481.748278
 21
271.894630
 31
0.0
 11
481.893510
 21
271.679850
 31
0.0
  0
SPLINE
  5
122
100
AcDbEntity
  8
0
 62
7
100
AcDbSpline
 70
0
 71
3
 72
10
 73
6
 74
4
 40
0.000000
 40
0.000000
 40
0.000000
 40
0.000000
 40
13.169275
 40
18.337194
 40
31.628479
 40
31.628479
 40
31.628479
 40
31.628479
 10
481.893510
 20
271.679850
 30
0.0
 10
477.217175
 20
268.845814
 30
0.0
 10
470.705741
 20
264.899638
 30
0.0
 10
477.050409
 20
253.681553
 30
0.0
 10
483.828972
 20
257.291668
 30
0.0
 10
488.709780
 20
259.891080
 30
0.0
 11
481.893510
 21
271.679850
 31
0.0
 11
473.120158
 21
261.858542
 31
0.0
 11
475.661932
 21
257.358901
 31
0.0
 11
488.709780
 21
259.891080
 31
0.0
  0
LINE
  5
123
100
AcDbEntity
  8
0
 62
7
100
AcDbLine
 10
495.162970
 20
247.946920
 30
0.0
 11
498.509850
 21
241.589350
 31
0.0
  0
SPLINE
  5
124
100
AcDbEntity
  8
0
 62
7
100
AcDbSpline
 70
0
 71
3
 72
10
 73
6
 74
4
 40
0.000000
 40
0.000000
 40
0.000000
 40
0.000000
 40
13.221879
 40
18.478809
 40
31.017764
 40
31.017764
 40
31.017764
 40
31.017764
 10
488.709780
 20
259.891080
 30
0.0
 10
484.163074
 20
256.905232
 30
0.0
 10
477.808628
 20
252.732232
 30
0.0
 10
484.187639
 20
241.730742
 30
0.0
 10
490.626299
 20
245.377453
 30
0.0
 10
495.162970
 20
247.946920
 30
0.0
 11
488.709780
 21
259.891080
 31
0.0
 11
480.268509
 21
249.714488
 31
0.0
 11
482.932527
 21
245.182565
 31
0.0
 11
495.162970
 21
247.946920
 31
0.0
  0
SPLINE
  5
125
100
AcDbEntity
  8
0
 62
7
100
AcDbSpline
 70
0
 71
3
 72
82
 73
78
 74
76
 40
0.000000
 40
0.000000
 40
0.000000
 40
0.000000
 40
0.436380
 40
0.872727
 40
1.309090
 40
1.425365
 40
1.541649
 40
1.657917
 40
2.955439
 40
4.252989
 40
5.550449
 40
5.682972
 40
5.815494
 40
5.948040
 40
7.193649
 40
8.439212
 40
9.684759
 40
9.886514
 40
10.088263
 40
10.290015
 40
11.524713
 40
12.759529
 40
13.994173
 40
14.155149
 40
14.316149
 40
14.477112
 40
15.828519
 40
17.179825
 40
18.531159
 40
18.553854
 40
18.576525
 40
18.599157
 40
18.605742
 40
18.612624
 40
18.619464
 40
22.904783
 40
27.189855
 40
31.474688
 40
32.818786
 40
34.162939
 40
35.507020
 40
35.797561
 40
36.088048
 40
36.378600
 40
37.460777
 40
38.542780
 40
39.624940
 40
39.985655
 40
40.346390
 40
40.707107
 40
41.721341
 40
42.735629
 40
43.749883
 40
44.131015
 40
44.512202
 40
44.893341
 40
45.909917
 40
46.926606
 40
47.943221
 40
48.323031
 40
48.702784
 40
49.082598
 40
50.126715
 40
51.170867
 40
52.215042
 40
52.542507
 40
52.870015
 40
53.197476
 40
54.273138
 40
55.348665
 40
56.424427
 40
56.749541
 40
57.074627
 40
57.399753
 40
58.771604
 40
60.143741
 40
61.515800
 40
61.515800
 40
61.515800
 40
61.515800
 10
498.509850
 20
241.589350
 30
0.0
 10
498.568738
 20
241.456342
 30
0.0
 10
498.686509
 20
241.190337
 30
0.0
 10
498.865589
 20
240.792416
 30
0.0
 10
498.998624
 20
240.490774
 30
0.0
 10
499.085866
 20
240.285574
 30
0.0
 10
499.130805
 20
240.178333
 30
0.0
 10
499.330043
 20
239.708834
 30
0.0
 10
499.684076
 20
238.877275
 30
0.0
 10
500.180884
 20
237.678628
 30
0.0
 10
500.524149
 20
236.836733
 30
0.0
 10
500.718300
 20
236.353437
 30
0.0
 10
500.767522
 20
236.230387
 30
0.0
 10
500.954799
 20
235.762948
 30
0.0
 10
501.277174
 20
234.949950
 30
0.0
 10
501.728459
 20
233.788993
 30
0.0
 10
502.047553
 20
232.949997
 30
0.0
 10
502.241808
 20
232.435783
 30
0.0
 10
502.313314
 20
232.247127
 30
0.0
 10
502.505174
 20
231.735875
 30
0.0
 10
502.813394
 20
230.900490
 30
0.0
 10
503.234020
 20
229.739617
 30
0.0
 10
503.526594
 20
228.913051
 30
0.0
 10
503.698585
 20
228.423512
 30
0.0
 10
503.752038
 20
228.271666
 30
0.0
 10
503.935942
 20
227.745064
 30
0.0
 10
504.245410
 20
226.842063
 30
0.0
 10
504.679309
 20
225.562221
 30
0.0
 10
504.954142
 20
224.696304
 30
0.0
 10
505.103285
 20
224.255247
 30
0.0
 10
505.111116
 20
224.233976
 30
0.0
 10
505.116800
 20
224.217638
 30
0.0
 10
505.120470
 20
224.206178
 30
0.0
 10
505.122407
 20
224.199692
 30
0.0
 10
505.543219
 20
222.829858
 30
0.0
 10
506.419269
 20
220.107950
 30
0.0
 10
507.581639
 20
215.982806
 30
0.0
 10
508.416189
 20
212.785046
 30
0.0
 10
508.965492
 20
210.526488
 30
0.0
 10
509.272240
 20
209.217842
 30
0.0
 10
509.493979
 20
208.249978
 30
0.0
 10
509.632207
 20
207.623336
 30
0.0
 10
509.693061
 20
207.339253
 30
0.0
 10
509.810759
 20
206.797485
 30
0.0
 10
509.985296
 20
205.998069
 30
0.0
 10
510.208328
 20
204.939184
 30
0.0
 10
510.377874
 20
204.114802
 30
0.0
 10
510.494144
 20
203.524945
 30
0.0
 10
510.561950
 20
203.170652
 30
0.0
 10
510.671622
 20
202.602580
 30
0.0
 10
510.822627
 20
201.820611
 30
0.0
 10
511.008488
 20
200.823521
 30
0.0
 10
511.151263
 20
200.033082
 30
0.0
 10
511.253789
 20
199.449833
 30
0.0
 10
511.319051
 20
199.074309
 30
0.0
 10
511.419315
 20
198.489880
 30
0.0
 10
511.552371
 20
197.696149
 30
0.0
 10
511.714695
 20
196.692559
 30
0.0
 10
511.838469
 20
195.897764
 30
0.0
 10
511.927960
 20
195.312507
 30
0.0
 10
511.985123
 20
194.937041
 30
0.0
 10
512.073570
 20
194.342353
 30
0.0
 10
512.189858
 20
193.527912
 30
0.0
 10
512.331724
 20
192.493439
 30
0.0
 10
512.435600
 20
191.694900
 30
0.0
 10
512.509115
 20
191.133309
 30
0.0
 10
512.552542
 20
190.808722
 30
0.0
 10
512.625302
 20
190.236448
 30
0.0
 10
512.722192
 20
189.415920
 30
0.0
 10
512.843208
 20
188.347093
 30
0.0
 10
512.929803
 20
187.526176
 30
0.0
 10
512.991511
 20
186.954174
 30
0.0
 10
513.027820
 20
186.631097
 30
0.0
 10
513.097627
 20
185.960695
 30
0.0
 10
513.193672
 20
184.942160
 30
0.0
 10
513.316578
 20
183.575646
 30
0.0
 10
513.388440
 20
182.663733
 30
0.0
 10
513.424370
 20
182.207790
 30
0.0
 11
498.509850
 21
241.589350
 31
0.0
 11
498.686917
 21
241.190508
 31
0.0
 11
498.865089
 21
240.792195
 31
0.0
 11
499.040270
 21
240.392540
 31
0.0
 11
499.085772
 21
240.285538
 31
0.0
 11
499.130888
 21
240.178362
 31
0.0
 11
499.176230
 21
240.071300
 31
0.0
 11
499.682162
 21
238.876480
 31
0.0
 11
500.179741
 21
237.678127
 31
0.0
 11
500.668880
 21
236.476400
 31
0.0
 11
500.718270
 21
236.353425
 31
0.0
 11
500.767530
 21
236.230399
 31
0.0
 11
500.816800
 21
236.107350
 31
0.0
 11
501.275872
 21
234.949423
 31
0.0
 11
501.727044
 21
233.788444
 31
0.0
 11
502.170490
 21
232.624510
 31
0.0
 11
502.241843
 21
232.435794
 31
0.0
 11
502.313210
 21
232.247089
 31
0.0
 11
502.384150
 21
232.058220
 31
0.0
 11
502.812251
 21
230.900115
 31
0.0
 11
503.232602
 21
229.739048
 31
0.0
 11
503.645210
 21
228.575390
 31
0.0
 11
503.698598
 21
228.423525
 31
0.0
 11
503.751979
 21
228.271631
 31
0.0
 11
503.805080
 21
228.119680
 31
0.0
 11
504.244719
 21
226.841784
 31
0.0
 11
504.675127
 21
225.560856
 31
0.0
 11
505.096020
 21
224.276740
 31
0.0
 11
505.103383
 21
224.255273
 31
0.0
 11
505.111057
 21
224.233940
 31
0.0
 11
505.118420
 21
224.212540
 31
0.0
 11
505.120420
 21
224.206266
 31
0.0
 11
505.122420
 21
224.199681
 31
0.0
 11
505.124420
 21
224.193140
 31
0.0
 11
506.394189
 21
220.100262
 31
0.0
 11
507.568288
 21
215.979178
 31
0.0
 11
508.646110
 21
211.832120
 31
0.0
 11
508.963671
 21
210.526074
 31
0.0
 11
509.271149
 21
209.217562
 31
0.0
 11
509.569490
 21
207.907010
 31
0.0
 11
509.631923
 21
207.623256
 31
0.0
 11
509.693194
 21
207.339304
 31
0.0
 11
509.754760
 21
207.055350
 31
0.0
 11
509.984010
 21
205.997734
 31
0.0
 11
510.207477
 21
204.939060
 31
0.0
 11
510.424140
 21
203.878810
 31
0.0
 11
510.493817
 21
203.524889
 31
0.0
 11
510.562047
 21
203.170665
 31
0.0
 11
510.630330
 21
202.816470
 31
0.0
 11
510.821549
 21
201.820424
 31
0.0
 11
511.007561
 21
200.823339
 31
0.0
 11
511.187640
 21
199.825200
 31
0.0
 11
511.253665
 21
199.449830
 31
0.0
 11
511.318919
 21
199.074270
 31
0.0
 11
511.383370
 21
198.698620
 31
0.0
 11
511.551406
 21
197.696028
 31
0.0
 11
511.713717
 21
196.692379
 31
0.0
 11
511.870460
 21
195.687920
 31
0.0
 11
511.927922
 21
195.312482
 31
0.0
 11
511.984904
 21
194.937028
 31
0.0
 11
512.040800
 21
194.561350
 31
0.0
 11
512.188903
 21
193.527790
 31
0.0
 11
512.330527
 21
192.493287
 31
0.0
 11
512.466630
 21
191.458020
 31
0.0
 11
512.509267
 21
191.133343
 31
0.0
 11
512.552190
 21
190.808660
 31
0.0
 11
512.593620
 21
190.483830
 31
0.0
 11
512.721343
 21
189.415778
 31
0.0
 11
512.841837
 21
188.347022
 31
0.0
 11
512.956700
 21
187.277410
 31
0.0
 11
512.991751
 21
186.954191
 31
0.0
 11
513.027379
 21
186.631063
 31
0.0
 11
513.061290
 21
186.307710
 31
0.0
 11
513.192680
 21
184.942166
 31
0.0
 11
513.314060
 21
183.575408
 31
0.0
 11
513.424370
 21
182.207790
 31
0.0
  0
SPLINE
  5
126
100
AcDbEntity
  8
0
 62
7
100
AcDbSpline
 70
0
 71
3
 72
25
 73
21
 74
19
 40
0.000000
 40
0.000000
 40
0.000000
 40
0.000000
 40
0.053084
 40
0.105910
 40
0.158968
 40
0.475296
 40
0.791235
 40
1.106880
 40
1.210432
 40
1.313836
 40
1.417125
 40
2.186196
 40
2.954245
 40
3.722207
 40
3.746113
 40
3.770077
 40
3.794018
 40
4.734148
 40
5.675691
 40
6.620117
 40
6.620117
 40
6.620117
 40
6.620117
 10
513.424370
 20
182.207790
 30
0.0
 10
513.406704
 20
182.206709
 30
0.0
 10
513.371459
 20
182.204553
 30
0.0
 10
513.318834
 20
182.198182
 30
0.0
 10
513.178473
 20
182.187647
 30
0.0
 10
512.950232
 20
182.177204
 30
0.0
 10
512.635498
 20
182.148470
 30
0.0
 10
512.391864
 20
182.122186
 30
0.0
 10
512.218923
 20
182.101274
 30
0.0
 10
512.116260
 20
182.088813
 30
0.0
 10
511.793988
 20
182.044807
 30
0.0
 10
511.254890
 20
181.951678
 30
0.0
 10
510.504960
 20
181.781839
 30
0.0
 10
510.007172
 20
181.630755
 30
0.0
 10
509.746792
 20
181.552308
 30
0.0
 10
509.723811
 20
181.545606
 30
0.0
 10
509.410069
 20
181.445385
 30
0.0
 10
508.813409
 20
181.226164
 30
0.0
 10
507.948413
 20
180.850355
 30
0.0
 10
507.396832
 20
180.548132
 30
0.0
 10
507.120620
 20
180.396790
 30
0.0
 11
513.424370
 21
182.207790
 31
0.0
 11
513.371420
 21
182.204023
 31
0.0
 11
513.318874
 21
182.198590
 31
0.0
 11
513.265990
 21
182.194290
 31
0.0
 11
512.950263
 21
182.174812
 31
0.0
 11
512.635497
 21
182.147601
 31
0.0
 11
512.321690
 21
182.113590
 31
0.0
 11
512.218875
 21
182.101260
 31
0.0
 11
512.116255
 21
182.088553
 31
0.0
 11
512.013900
 21
182.074690
 31
0.0
 11
511.255824
 21
181.945114
 31
0.0
 11
510.507323
 21
181.772933
 31
0.0
 11
509.769700
 21
181.559210
 31
0.0
 11
509.746800
 21
181.552347
 31
0.0
 11
509.723833
 21
181.545506
 31
0.0
 11
509.701000
 21
181.538310
 31
0.0
 11
508.817155
 21
181.217900
 31
0.0
 11
507.955692
 21
180.837920
 31
0.0
 11
507.120620
 21
180.396790
 31
0.0
  0
LINE
  5
127
100
AcDbEntity
  8
0
 62
7
100
AcDbLine
 10
500.394520
 20
170.031920
 30
0.0
 11
500.405020
 21
170.031920
 31
0.0
  0
SPLINE
  5
128
100
AcDbEntity
  8
0
 62
7
100
AcDbSpline
 70
0
 71
3
 72
31
 73
27
 74
25
 40
0.000000
 40
0.000000
 40
0.000000
 40
0.000000
 40
2.300515
 40
4.572409
 40
6.832967
 40
7.621013
 40
8.409860
 40
9.200414
 40
9.245192
 40
9.289905
 40
9.334719
 40
9.726750
 40
10.119094
 40
10.512484
 40
10.514544
 40
10.516573
 40
10.518580
 40
10.911882
 40
11.306222
 40
11.701531
 40
11.737121
 40
11.772618
 40
11.808190
 40
12.141627
 40
12.476018
 40
12.811248
 40
12.811248
 40
12.811248
 40
12.811248
 10
507.120620
 20
180.396790
 30
0.0
 10
506.475186
 20
179.979249
 30
0.0
 10
505.192348
 20
179.149363
 30
0.0
 10
503.575317
 20
177.522749
 30
0.0
 10
502.528363
 20
176.082776
 30
0.0
 10
501.897882
 20
174.968988
 30
0.0
 10
501.549045
 20
174.260663
 30
0.0
 10
501.338177
 20
173.761631
 30
0.0
 10
501.232504
 20
173.487977
 30
0.0
 10
501.216677
 20
173.446100
 30
0.0
 10
501.159886
 20
173.295964
 30
0.0
 10
501.064933
 20
173.036321
 30
0.0
 10
500.942266
 20
172.663431
 30
0.0
 10
500.862932
 20
172.412900
 30
0.0
 10
500.829787
 20
172.284616
 30
0.0
 10
500.829426
 20
172.282612
 30
0.0
 10
500.821249
 20
172.150317
 30
0.0
 10
500.714641
 20
171.902558
 30
0.0
 10
500.641267
 20
171.515665
 30
0.0
 10
500.585689
 20
171.246127
 30
0.0
 10
500.554763
 20
171.093772
 30
0.0
 10
500.547545
 20
171.058959
 30
0.0
 10
500.522399
 20
170.926485
 30
0.0
 10
500.483716
 20
170.695212
 30
0.0
 10
500.432932
 20
170.364690
 30
0.0
 10
500.407335
 20
170.142936
 30
0.0
 10
500.394520
 20
170.031920
 30
0.0
 11
507.120620
 21
180.396790
 31
0.0
 11
505.235141
 21
179.078708
 31
0.0
 11
503.618042
 21
177.482935
 31
0.0
 11
502.293050
 21
175.651400
 31
0.0
 11
501.904689
 21
174.965695
 31
0.0
 11
501.556198
 21
174.257999
 31
0.0
 11
501.248650
 21
173.529720
 31
0.0
 11
501.232546
 21
173.487938
 31
0.0
 11
501.216687
 21
173.446132
 31
0.0
 11
501.200850
 21
173.404210
 31
0.0
 11
501.066999
 21
173.035737
 31
0.0
 11
500.943051
 21
172.663486
 31
0.0
 11
500.830300
 21
172.286600
 31
0.0
 11
500.829810
 21
172.284600
 31
0.0
 11
500.829464
 21
172.282600
 31
0.0
 11
500.829300
 21
172.280600
 31
0.0
 11
500.729114
 21
171.900272
 31
0.0
 11
500.640279
 21
171.516068
 31
0.0
 11
500.561840
 21
171.128620
 31
0.0
 11
500.554733
 21
171.093746
 31
0.0
 11
500.547647
 21
171.058964
 31
0.0
 11
500.540940
 21
171.024030
 31
0.0
 11
500.484495
 21
170.695405
 31
0.0
 11
500.435045
 21
170.364691
 31
0.0
 11
500.394520
 21
170.031920
 31
0.0
  0
LINE
  5
129
100
AcDbEntity
  8
0
 62
7
100
AcDbLine
 10
500.373620
 20
169.801820
 30
0.0
 11
535.473970
 21
170.034900
 31
0.0
  0
SPLINE
  5
12a
100
AcDbEntity
  8
0
 62
7
100
AcDbSpline
 70
0
 71
3
 72
10
 73
6
 74
4
 40
0.000000
 40
0.000000
 40
0.000000
 40
0.000000
 40
0.077442
 40
0.154656
 40
0.232252
 40
0.232252
 40
0.232252
 40
0.232252
 10
500.405020
 20
170.031920
 30
0.0
 10
500.401842
 20
170.006299
 30
0.0
 10
500.395494
 20
169.955134
 30
0.0
 10
500.382334
 20
169.878813
 30
0.0
 10
500.376530
 20
169.827526
 30
0.0
 10
500.373620
 20
169.801820
 30
0.0
 11
500.405020
 21
170.031920
 31
0.0
 11
500.394879
 21
169.955144
 31
0.0
 11
500.383094
 21
169.878836
 31
0.0
 11
500.373620
 21
169.801820
 31
0.0
  0
SPLINE
  5
12b
100
AcDbEntity
  8
0
 62
7
100
AcDbSpline
 70
0
 71
3
 72
10
 73
6
 74
4
 40
0.000000
 40
0.000000
 40
0.000000
 40
0.000000
 40
0.801417
 40
1.492516
 40
2.176105
 40
2.176105
 40
2.176105
 40
2.176105
 10
535.473970
 20
170.034900
 30
0.0
 10
535.746431
 20
170.005859
 30
0.0
 10
536.253848
 20
169.951776
 30
0.0
 10
536.806627
 20
169.391356
 30
0.0
 10
536.896519
 20
168.936023
 30
0.0
 10
536.941220
 20
168.709600
 30
0.0
 11
535.473970
 21
170.034900
 31
0.0
 11
536.254366
 21
169.852548
 31
0.0
 11
536.742997
 21
169.363819
 31
0.0
 11
536.941220
 21
168.709600
 31
0.0
  0
LINE
  5
12c
100
AcDbEntity
  8
0
 62
7
100
AcDbLine
 10
535.493400
 20
167.366370
 30
0.0
 11
500.394540
 21
167.133280
 31
0.0
  0
SPLINE
  5
12d
100
AcDbEntity
  8
0
 62
7
100
AcDbSpline
 70
0
 71
3
 72
10
 73
6
 74
4
 40
0.000000
 40
0.000000
 40
0.000000
 40
0.000000
 40
0.703238
 40
1.405993
 40
2.152345
 40
2.152345
 40
2.152345
 40
2.152345
 10
536.941220
 20
168.709600
 30
0.0
 10
536.889351
 20
168.477845
 30
0.0
 10
536.785648
 20
168.014494
 30
0.0
 10
536.231723
 20
167.472767
 30
0.0
 10
535.744395
 20
167.402540
 30
0.0
 10
535.493400
 20
167.366370
 30
0.0
 11
536.941220
 21
168.709600
 31
0.0
 11
536.721033
 21
168.041722
 31
0.0
 11
536.216041
 21
167.553001
 31
0.0
 11
535.493400
 21
167.366370
 31
0.0
  0
LINE
  5
12e
100
AcDbEntity
  8
0
 62
7
100
AcDbLine
 10
500.430440
 20
166.903190
 30
0.0
 11
500.418440
 21
166.903190
 31
0.0
  0
SPLINE
  5
12f
100
AcDbEntity
  8
0
 62
7
100
AcDbSpline
 70
0
 71
3
 72
10
 73
6
 74
4
 40
0.000000
 40
0.000000
 40
0.000000
 40
0.000000
 40
0.077644
 40
0.155237
 40
0.232898
 40
0.232898
 40
0.232898
 40
0.232898
 10
500.394540
 20
167.133280
 30
0.0
 10
500.397857
 20
167.107606
 30
0.0
 10
500.404489
 20
167.056273
 30
0.0
 10
500.419372
 20
166.980044
 30
0.0
 10
500.426750
 20
166.928815
 30
0.0
 10
500.430440
 20
166.903190
 30
0.0
 11
500.394540
 21
167.133280
 31
0.0
 11
500.405314
 21
167.056387
 31
0.0
 11
500.418733
 21
166.979963
 31
0.0
 11
500.430440
 21
166.903190
 31
0.0
  0
LINE
  5
130
100
AcDbEntity
  8
0
 62
7
100
AcDbLine
 10
514.152110
 20
154.864730
 30
0.0
 11
514.153110
 21
154.848330
 31
0.0
  0
LINE
  5
131
100
AcDbEntity
  8
0
 62
7
100
AcDbLine
 10
514.153110
 20
154.848330
 30
0.0
 11
557.235160
 21
154.848330
 31
0.0
  0
LINE
  5
132
100
AcDbEntity
  8
0
 62
7
100
AcDbLine
 10
557.235160
 20
154.848330
 30
0.0
 11
557.235160
 21
154.864730
 31
0.0
  0
SPLINE
  5
133
100
AcDbEntity
  8
0
 62
7
100
AcDbSpline
 70
0
 71
3
 72
64
 73
60
 74
58
 40
0.000000
 40
0.000000
 40
0.000000
 40
0.000000
 40
0.308799
 40
0.615567
 40
0.921794
 40
1.024914
 40
1.128031
 40
1.231078
 40
1.664100
 40
2.095086
 40
2.523901
 40
2.527328
 40
2.531075
 40
2.534822
 40
2.800298
 40
3.065814
 40
3.331491
 40
3.498012
 40
3.664462
 40
3.830467
 40
4.129940
 40
4.429511
 40
4.729501
 40
4.853654
 40
4.977762
 40
5.101714
 40
5.217782
 40
5.333771
 40
5.449882
 40
6.527023
 40
7.594366
 40
8.654509
 40
9.452775
 40
10.248108
 40
11.041957
 40
11.073712
 40
11.105504
 40
11.137328
 40
11.471655
 40
11.805888
 40
12.139971
 40
12.221369
 40
12.302744
 40
12.384189
 40
12.745195
 40
13.106040
 40
13.467081
 40
13.469551
 40
13.472227
 40
13.474697
 40
13.526157
 40
13.577673
 40
13.629172
 40
13.638012
 40
13.646697
 40
13.655279
 40
15.752766
 40
17.846034
 40
19.947827
 40
19.947827
 40
19.947827
 40
19.947827
 10
500.418440
 20
166.903190
 30
0.0
 10
500.432553
 20
166.801220
 30
0.0
 10
500.460685
 20
166.597949
 30
0.0
 10
500.515079
 20
166.295468
 30
0.0
 10
500.562574
 20
166.061522
 30
0.0
 10
500.591585
 20
165.893168
 30
0.0
 10
500.606525
 20
165.791148
 30
0.0
 10
500.646342
 20
165.581789
 30
0.0
 10
500.722866
 20
165.268512
 30
0.0
 10
500.831538
 20
164.851463
 30
0.0
 10
500.915540
 20
164.576202
 30
0.0
 10
500.958874
 20
164.437467
 30
0.0
 10
500.959814
 20
164.433949
 30
0.0
 10
500.984210
 20
164.346292
 30
0.0
 10
501.047095
 20
164.179149
 30
0.0
 10
501.140531
 20
163.930712
 30
0.0
 10
501.226161
 20
163.714428
 30
0.0
 10
501.295598
 20
163.527350
 30
0.0
 10
501.352305
 20
163.370979
 30
0.0
 10
501.430822
 20
163.175465
 30
0.0
 10
501.536237
 20
162.943169
 30
0.0
 10
501.666879
 20
162.673457
 30
0.0
 10
501.775712
 20
162.458155
 30
0.0
 10
501.857810
 20
162.294888
 30
0.0
 10
501.912620
 20
162.183565
 30
0.0
 10
501.970040
 20
162.076618
 30
0.0
 10
502.023825
 20
161.970819
 30
0.0
 10
502.072628
 20
161.865488
 30
0.0
 10
502.278706
 20
161.480626
 30
0.0
 10
502.695098
 20
160.850489
 30
0.0
 10
503.335058
 20
159.994694
 30
0.0
 10
503.982217
 20
159.263525
 30
0.0
 10
504.608998
 20
158.638729
 30
0.0
 10
505.205522
 20
158.111400
 30
0.0
 10
505.629056
 20
157.775171
 30
0.0
 10
505.860416
 20
157.607363
 30
0.0
 10
505.886577
 20
157.589299
 30
0.0
 10
505.994281
 20
157.511865
 30
0.0
 10
506.184336
 20
157.376254
 30
0.0
 10
506.462017
 20
157.190166
 30
0.0
 10
506.673203
 20
157.056526
 30
0.0
 10
506.813658
 20
156.968767
 30
0.0
 10
506.882693
 20
156.925623
 30
0.0
 10
507.031926
 20
156.834971
 30
0.0
 10
507.263365
 20
156.700169
 30
0.0
 10
507.579962
 20
156.526972
 30
0.0
 10
507.792310
 20
156.411522
 30
0.0
 10
507.903421
 20
156.360917
 30
0.0
 10
507.905799
 20
156.360023
 30
0.0
 10
507.922977
 20
156.352206
 30
0.0
 10
507.954546
 20
156.336741
 30
0.0
 10
508.001889
 20
156.316456
 30
0.0
 10
508.035723
 20
156.300793
 30
0.0
 10
508.056497
 20
156.290893
 30
0.0
 10
508.064556
 20
156.287601
 30
0.0
 10
508.711181
 20
156.006949
 30
0.0
 10
509.994287
 20
155.439954
 30
0.0
 10
512.052483
 20
154.958690
 30
0.0
 10
513.451287
 20
154.896092
 30
0.0
 10
514.152110
 20
154.864730
 30
0.0
 11
500.418440
 21
166.903190
 31
0.0
 11
500.462839
 21
166.597600
 31
0.0
 11
500.516234
 21
166.295514
 31
0.0
 11
500.573820
 21
165.994750
 31
0.0
 11
500.591157
 21
165.893099
 31
0.0
 11
500.607250
 21
165.791245
 31
0.0
 11
500.626120
 21
165.689940
 31
0.0
 11
500.724096
 21
165.268148
 31
0.0
 11
500.834584
 21
164.851565
 31
0.0
 11
500.957820
 21
164.440840
 31
0.0
 11
500.958820
 21
164.437562
 31
0.0
 11
500.959820
 21
164.433951
 31
0.0
 11
500.960820
 21
164.430340
 31
0.0
 11
501.047049
 21
164.179258
 31
0.0
 11
501.141235
 21
163.931009
 31
0.0
 11
501.237230
 21
163.683280
 31
0.0
 11
501.295411
 21
163.527254
 31
0.0
 11
501.353239
 21
163.371173
 31
0.0
 11
501.415040
 21
163.217100
 31
0.0
 11
501.537350
 21
162.943742
 31
0.0
 11
501.667576
 21
162.673958
 31
0.0
 11
501.802020
 21
162.405780
 31
0.0
 11
501.857662
 21
162.294795
 31
0.0
 11
501.913291
 21
162.183852
 31
0.0
 11
501.970860
 21
162.074080
 31
0.0
 11
502.023204
 21
161.970485
 31
0.0
 11
502.073610
 21
161.866021
 31
0.0
 11
502.127740
 21
161.763300
 31
0.0
 11
502.705290
 21
160.854087
 31
0.0
 11
503.348007
 21
160.001950
 31
0.0
 11
504.049210
 21
159.206830
 31
0.0
 11
504.615157
 21
158.643862
 31
0.0
 11
505.210443
 21
158.116425
 31
0.0
 11
505.834710
 21
157.626030
 31
0.0
 11
505.860477
 21
157.607471
 31
0.0
 11
505.886510
 21
157.589223
 31
0.0
 11
505.912410
 21
157.570730
 31
0.0
 11
506.185296
 21
157.377578
 31
0.0
 11
506.462851
 21
157.191366
 31
0.0
 11
506.744650
 21
157.011920
 31
0.0
 11
506.813664
 21
156.968761
 31
0.0
 11
506.882763
 21
156.925782
 31
0.0
 11
506.952330
 21
156.883430
 31
0.0
 11
507.264179
 21
156.701563
 31
0.0
 11
507.580048
 21
156.527103
 31
0.0
 11
507.901110
 21
156.361970
 31
0.0
 11
507.903369
 21
156.360970
 31
0.0
 11
507.905851
 21
156.359970
 31
0.0
 11
507.908110
 21
156.358970
 31
0.0
 11
507.954712
 21
156.337144
 31
0.0
 11
508.001791
 21
156.316229
 31
0.0
 11
508.048560
 21
156.294670
 31
0.0
 11
508.056579
 21
156.290948
 31
0.0
 11
508.064575
 21
156.287559
 31
0.0
 11
508.072460
 21
156.284170
 31
0.0
 11
510.018183
 21
155.500838
 31
0.0
 11
512.056333
 21
155.023642
 31
0.0
 11
514.152110
 21
154.864730
 31
0.0
  0
SPLINE
  5
134
100
AcDbEntity
  8
0
 62
7
100
AcDbSpline
 70
0
 71
3
 72
10
 73
6
 74
4
 40
0.000000
 40
0.000000
 40
0.000000
 40
0.000000
 40
4.756761
 40
9.445226
 40
14.201778
 40
14.201778
 40
14.201778
 40
14.201778
 10
557.235160
 20
154.864730
 30
0.0
 10
558.823502
 20
155.029652
 30
0.0
 10
561.977383
 20
155.357127
 30
0.0
 10
566.242169
 20
157.812878
 30
0.0
 10
568.108133
 20
160.376506
 30
0.0
 10
569.047840
 20
161.667560
 30
0.0
 11
557.235160
 21
154.864730
 31
0.0
 11
561.919664
 21
155.690678
 31
0.0
 11
565.982616
 21
158.030366
 31
0.0
 11
569.047840
 21
161.667560
 31
0.0
  0
SPLINE
  5
135
100
AcDbEntity
  8
0
 62
7
100
AcDbSpline
 70
0
 71
3
 72
34
 73
30
 74
28
 40
0.000000
 40
0.000000
 40
0.000000
 40
0.000000
 40
7.132735
 40
14.053875
 40
21.186291
 40
22.041770
 40
22.894889
 40
23.746526
 40
23.790553
 40
23.834570
 40
23.878592
 40
24.003361
 40
24.128255
 40
24.253290
 40
24.541433
 40
24.829815
 40
25.118714
 40
25.215565
 40
25.312318
 40
25.409377
 40
25.773477
 40
26.138585
 40
26.504441
 40
26.628360
 40
26.752454
 40
26.876780
 40
27.189461
 40
27.502880
 40
27.817245
 40
27.817245
 40
27.817245
 40
27.817245
 10
569.047840
 20
161.667560
 30
0.0
 10
569.925075
 20
163.938059
 30
0.0
 10
571.653520
 20
168.411702
 30
0.0
 10
569.567584
 20
175.638395
 30
0.0
 10
565.907263
 20
179.327097
 30
0.0
 10
563.305935
 20
180.712620
 30
0.0
 10
562.530486
 20
181.071599
 30
0.0
 10
561.980518
 20
181.265894
 30
0.0
 10
561.688476
 20
181.379229
 30
0.0
 10
561.648154
 20
181.396919
 30
0.0
 10
561.581972
 20
181.422503
 30
0.0
 10
561.489020
 20
181.453312
 30
0.0
 10
561.370353
 20
181.492241
 30
0.0
 10
561.199704
 20
181.547462
 30
0.0
 10
560.976771
 20
181.618107
 30
0.0
 10
560.699877
 20
181.699168
 30
0.0
 10
560.482512
 20
181.756197
 30
0.0
 10
560.327094
 20
181.797587
 30
0.0
 10
560.233874
 20
181.824016
 30
0.0
 10
560.053493
 20
181.869362
 30
0.0
 10
559.783891
 20
181.926106
 30
0.0
 10
559.425163
 20
181.993640
 30
0.0
 10
559.143839
 20
182.039278
 30
0.0
 10
558.941306
 20
182.068469
 30
0.0
 10
558.818247
 20
182.084628
 30
0.0
 10
558.632663
 20
182.107876
 30
0.0
 10
558.384008
 20
182.135314
 30
0.0
 10
558.071624
 20
182.162083
 30
0.0
 10
557.862719
 20
182.174422
 30
0.0
 10
557.758110
 20
182.180600
 30
0.0
 11
569.047840
 21
161.667560
 31
0.0
 11
570.877903
 21
168.561527
 31
0.0
 11
569.087147
 21
175.246987
 31
0.0
 11
564.055910
 21
180.302480
 31
0.0
 11
563.301537
 21
180.705921
 31
0.0
 11
562.525083
 21
181.059379
 31
0.0
 11
561.729530
 21
181.363320
 31
0.0
 11
561.688593
 21
181.379524
 31
0.0
 11
561.648031
 21
181.396616
 31
0.0
 11
561.607020
 21
181.412620
 31
0.0
 11
561.489047
 21
181.453236
 31
0.0
 11
561.370370
 21
181.492147
 31
0.0
 11
561.251410
 21
181.530650
 31
0.0
 11
560.976533
 21
181.617070
 31
0.0
 11
560.699684
 21
181.697813
 31
0.0
 11
560.420660
 21
181.772700
 31
0.0
 11
560.327130
 21
181.797844
 31
0.0
 11
560.233847
 21
181.823522
 31
0.0
 11
560.139770
 21
181.847400
 31
0.0
 11
559.783984
 21
181.924764
 31
0.0
 11
559.425136
 21
181.992083
 31
0.0
 11
559.063990
 21
182.050600
 31
0.0
 11
558.941328
 21
182.068204
 31
0.0
 11
558.818309
 21
182.084496
 31
0.0
 11
558.694940
 21
182.099900
 31
0.0
 11
558.384127
 21
182.134022
 31
0.0
 11
558.071843
 21
182.160678
 31
0.0
 11
557.758110
 21
182.180600
 31
0.0
  0
SPLINE
  5
136
100
AcDbEntity
  8
0
 62
7
100
AcDbSpline
 70
0
 71
3
 72
10
 73
6
 74
4
 40
0.000000
 40
0.000000
 40
0.000000
 40
0.000000
 40
22.850866
 40
45.700159
 40
68.558123
 40
68.558123
 40
68.558123
 40
68.558123
 10
557.758110
 20
182.180600
 30
0.0
 10
558.633848
 20
189.753833
 30
0.0
 10
560.385263
 20
204.899778
 30
0.0
 10
566.439132
 20
227.058733
 30
0.0
 10
572.580616
 20
241.015035
 30
0.0
 10
575.651940
 20
247.994510
 30
0.0
 11
557.758110
 21
182.180600
 31
0.0
 11
560.956371
 21
204.806541
 31
0.0
 11
566.964519
 21
226.851776
 31
0.0
 11
575.651940
 21
247.994510
 31
0.0
  0
SPLINE
  5
137
100
AcDbEntity
  8
0
 62
7
100
AcDbSpline
 70
0
 71
3
 72
10
 73
6
 74
4
 40
0.000000
 40
0.000000
 40
0.000000
 40
0.000000
 40
13.176215
 40
18.345939
 40
31.639005
 40
31.639005
 40
31.639005
 40
31.639005
 10
575.651940
 20
247.994510
 30
0.0
 10
580.445991
 20
245.359839
 30
0.0
 10
587.121000
 20
241.691448
 30
0.0
 10
593.672463
 20
252.795213
 30
0.0
 10
587.154856
 20
256.862404
 30
0.0
 10
582.462230
 20
259.790750
 30
0.0
 11
575.651940
 21
247.994510
 31
0.0
 11
588.550515
 21
245.303894
 31
0.0
 11
591.179615
 21
249.755172
 31
0.0
 11
582.462230
 21
259.790750
 31
0.0
  0
LINE
  5
138
100
AcDbEntity
  8
0
 62
7
100
AcDbLine
 10
589.396540
 20
271.489880
 30
0.0
 11
591.261230
 21
274.448270
 31
0.0
  0
SPLINE
  5
139
100
AcDbEntity
  8
0
 62
7
100
AcDbSpline
 70
0
 71
3
 72
10
 73
6
 74
4
 40
0.000000
 40
0.000000
 40
0.000000
 40
0.000000
 40
13.255798
 40
18.532909
 40
31.238008
 40
31.238008
 40
31.238008
 40
31.238008
 10
582.462230
 20
259.790750
 30
0.0
 10
587.359118
 20
257.332198
 30
0.0
 10
594.205449
 20
253.894900
 30
0.0
 10
600.403184
 20
265.100605
 30
0.0
 10
593.953489
 20
268.844605
 30
0.0
 10
589.396540
 20
271.489880
 30
0.0
 11
582.462230
 21
259.790750
 31
0.0
 11
595.531485
 21
257.574727
 31
0.0
 11
598.066738
 21
262.202943
 31
0.0
 11
589.396540
 21
271.489880
 31
0.0
  0
SPLINE
  5
13a
100
AcDbEntity
  8
0
 62
7
100
AcDbSpline
 70
0
 71
3
 72
10
 73
6
 74
4
 40
0.000000
 40
0.000000
 40
0.000000
 40
0.000000
 40
21.681993
 40
43.355859
 40
65.032077
 40
65.032077
 40
65.032077
 40
65.032077
 10
591.261230
 20
274.448270
 30
0.0
 10
595.634934
 20
280.208402
 30
0.0
 10
604.380704
 20
291.726507
 30
0.0
 10
619.845138
 20
307.061307
 30
0.0
 10
631.469669
 20
315.664127
 30
0.0
 10
637.282250
 20
319.965770
 30
0.0
 11
591.261230
 21
274.448270
 31
0.0
 11
604.773521
 21
291.404886
 31
0.0
 11
620.173546
 21
306.655974
 31
0.0
 11
637.282250
 21
319.965770
 31
0.0
  0
SPLINE
  5
13b
100
AcDbEntity
  8
0
 62
7
100
AcDbSpline
 70
0
 71
3
 72
28
 73
24
 74
22
 40
0.000000
 40
0.000000
 40
0.000000
 40
0.000000
 40
0.318478
 40
0.636189
 40
0.953066
 40
1.036268
 40
1.119315
 40
1.202318
 40
1.578768
 40
1.954131
 40
2.328649
 40
2.725776
 40
3.121947
 40
3.517607
 40
3.557482
 40
3.597331
 40
3.637268
 40
4.022487
 40
4.407289
 40
4.791558
 40
5.616092
 40
6.439655
 40
7.263297
 40
7.263297
 40
7.263297
 40
7.263297
 10
637.282250
 20
319.965770
 30
0.0
 10
637.340851
 20
319.877247
 30
0.0
 10
637.457913
 20
319.700414
 30
0.0
 10
637.639360
 20
319.439609
 30
0.0
 10
637.780273
 20
319.246199
 30
0.0
 10
637.877935
 20
319.118146
 30
0.0
 10
637.928848
 20
319.052489
 30
0.0
 10
638.040214
 20
318.910018
 30
0.0
 10
638.213575
 20
318.692318
 30
0.0
 10
638.454934
 20
318.404669
 30
0.0
 10
638.709610
 20
318.119408
 30
0.0
 10
638.979059
 20
317.838344
 30
0.0
 10
639.262410
 20
317.561199
 30
0.0
 10
639.464912
 20
317.371780
 30
0.0
 10
639.583042
 20
317.266156
 30
0.0
 10
639.613127
 20
317.239967
 30
0.0
 10
639.729293
 20
317.137347
 30
0.0
 10
639.932454
 20
316.959491
 30
0.0
 10
640.229921
 20
316.715351
 30
0.0
 10
640.649800
 20
316.389842
 30
0.0
 10
641.205911
 20
316.002154
 30
0.0
 10
641.908891
 20
315.571120
 30
0.0
 10
642.396483
 20
315.318357
 30
0.0
 10
642.640290
 20
315.191970
 30
0.0
 11
637.282250
 21
319.965770
 31
0.0
 11
637.459071
 21
319.700888
 31
0.0
 11
637.640463
 21
319.440049
 31
0.0
 11
637.827610
 21
319.184340
 31
0.0
 11
637.878054
 21
319.118173
 31
0.0
 11
637.928899
 21
319.052510
 31
0.0
 11
637.980010
 21
318.987110
 31
0.0
 11
638.215049
 21
318.693051
 31
0.0
 11
638.456571
 21
318.405709
 31
0.0
 11
638.706170
 21
318.126490
 31
0.0
 11
638.980789
 21
317.839620
 31
0.0
 11
639.263554
 21
317.562140
 31
0.0
 11
639.553340
 21
317.292750
 31
0.0
 11
639.583107
 21
317.266217
 31
0.0
 11
639.613073
 21
317.239950
 31
0.0
 11
639.643040
 21
317.213550
 31
0.0
 11
639.933884
 21
316.960956
 31
0.0
 11
640.231170
 21
316.716634
 31
0.0
 11
640.535040
 21
316.481420
 31
0.0
 11
641.210623
 21
316.008723
 31
0.0
 11
641.913647
 21
315.579754
 31
0.0
 11
642.640290
 21
315.191970
 31
0.0
  0
LINE
  5
13c
100
AcDbEntity
  8
0
 62
7
100
AcDbLine
 10
654.439520
 20
314.837860
 30
0.0
 11
654.348420
 21
314.993250
 31
0.0
  0
SPLINE
  5
13d
100
AcDbEntity
  8
0
 62
7
100
AcDbSpline
 70
0
 71
3
 72
10
 73
6
 74
4
 40
0.000000
 40
0.000000
 40
0.000000
 40
0.000000
 40
4.062428
 40
8.087836
 40
12.162996
 40
12.162996
 40
12.162996
 40
12.162996
 10
642.640290
 20
315.191970
 30
0.0
 10
643.899880
 20
314.676529
 30
0.0
 10
646.407581
 20
313.650344
 30
0.0
 10
650.578144
 20
313.521825
 30
0.0
 10
653.147135
 20
314.397389
 30
0.0
 10
654.439520
 20
314.837860
 30
0.0
 11
642.640290
 21
315.191970
 31
0.0
 11
646.486052
 21
313.882986
 31
0.0
 11
650.509571
 21
313.759697
 31
0.0
 11
654.439520
 21
314.837860
 31
0.0
  0
LINE
  5
13e
100
AcDbEntity
  8
0
 62
7
100
AcDbLine
 10
654.438020
 20
315.029150
 30
0.0
 11
636.687630
 21
345.310900
 31
0.0
  0
SPLINE
  5
13f
100
AcDbEntity
  8
0
 62
7
100
AcDbSpline
 70
0
 71
3
 72
10
 73
6
 74
4
 40
0.000000
 40
0.000000
 40
0.000000
 40
0.000000
 40
0.032086
 40
0.064239
 40
0.096543
 40
0.096543
 40
0.096543
 40
0.096543
 10
654.348420
 20
314.993250
 30
0.0
 10
654.358413
 20
314.997061
 30
0.0
 10
654.378419
 20
315.004690
 30
0.0
 10
654.408529
 20
315.016073
 30
0.0
 10
654.428174
 20
315.024784
 30
0.0
 10
654.438020
 20
315.029150
 30
0.0
 11
654.348420
 21
314.993250
 31
0.0
 11
654.378405
 21
315.004669
 31
0.0
 11
654.408368
 21
315.016331
 31
0.0
 11
654.438020
 21
315.029150
 31
0.0
  0
SPLINE
  5
140
100
AcDbEntity
  8
0
 62
7
100
AcDbSpline
 70
0
 71
3
 72
10
 73
6
 74
4
 40
0.000000
 40
0.000000
 40
0.000000
 40
0.000000
 40
0.177577
 40
0.344171
 40
0.503184
 40
0.503184
 40
0.503184
 40
0.503184
 10
636.687630
 20
345.310900
 30
0.0
 10
636.658699
 20
345.362596
 30
0.0
 10
636.602628
 20
345.462791
 30
0.0
 10
636.540891
 20
345.619392
 30
0.0
 10
636.512994
 20
345.724325
 30
0.0
 10
636.499370
 20
345.775570
 30
0.0
 11
636.687630
 21
345.310900
 31
0.0
 11
636.604524
 21
345.467830
 31
0.0
 11
636.543116
 21
345.622693
 31
0.0
 11
636.499370
 21
345.775570
 31
0.0
  0
SPLINE
  5
141
100
AcDbEntity
  8
0
 62
7
100
AcDbSpline
 70
0
 71
3
 72
13
 73
9
 74
7
 40
0.000000
 40
0.000000
 40
0.000000
 40
0.000000
 40
0.275308
 40
0.551604
 40
0.832664
 40
1.558607
 40
2.241371
 40
2.923693
 40
2.923693
 40
2.923693
 40
2.923693
 10
636.499370
 20
345.775570
 30
0.0
 10
636.499202
 20
345.867585
 30
0.0
 10
636.498867
 20
346.051946
 30
0.0
 10
636.563120
 20
346.324630
 30
0.0
 10
636.738570
 20
346.716940
 30
0.0
 10
637.150384
 20
347.136619
 30
0.0
 10
637.852528
 20
347.356856
 30
0.0
 10
638.298184
 20
347.231018
 30
0.0
 10
638.520940
 20
347.168120
 30
0.0
 11
636.499370
 21
345.775570
 31
0.0
 11
636.509554
 21
346.050690
 31
0.0
 11
636.570909
 21
346.320087
 31
0.0
 11
636.686140
 21
346.576440
 31
0.0
 11
637.195353
 21
347.093832
 31
0.0
 11
637.849493
 21
347.289455
 31
0.0
 11
638.520940
 21
347.168120
 31
0.0
  0
LINE
  5
142
100
AcDbEntity
  8
0
 62
7
100
AcDbLine
 10
638.988610
 20
346.661600
 30
0.0
 11
656.739000
 21
316.379850
 31
0.0
  0
SPLINE
  5
143
100
AcDbEntity
  8
0
 62
7
100
AcDbSpline
 70
0
 71
3
 72
10
 73
6
 74
4
 40
0.000000
 40
0.000000
 40
0.000000
 40
0.000000
 40
0.216056
 40
0.445695
 40
0.694667
 40
0.694667
 40
0.694667
 40
0.694667
 10
638.520940
 20
347.168120
 30
0.0
 10
638.578851
 20
347.125159
 30
0.0
 10
638.698315
 20
347.036537
 30
0.0
 10
638.857557
 20
346.866041
 30
0.0
 10
638.943765
 20
346.731558
 30
0.0
 10
638.988610
 20
346.661600
 30
0.0
 11
638.520940
 21
347.168120
 31
0.0
 11
638.690610
 21
347.034358
 31
0.0
 11
638.847713
 21
346.866869
 31
0.0
 11
638.988610
 21
346.661600
 31
0.0
  0
LINE
  5
144
100
AcDbEntity
  8
0
 62
7
100
AcDbLine
 10
656.846580
 20
316.463550
 30
0.0
 11
656.949680
 21
316.287240
 31
0.0
  0
SPLINE
  5
145
100
AcDbEntity
  8
0
 62
7
100
AcDbSpline
 70
0
 71
3
 72
10
 73
6
 74
4
 40
0.000000
 40
0.000000
 40
0.000000
 40
0.000000
 40
0.045488
 40
0.090924
 40
0.136317
 40
0.136317
 40
0.136317
 40
0.136317
 10
656.739000
 20
316.379850
 30
0.0
 10
656.751174
 20
316.388890
 30
0.0
 10
656.775508
 20
316.406960
 30
0.0
 10
656.811168
 20
316.435129
 30
0.0
 10
656.834780
 20
316.454079
 30
0.0
 10
656.846580
 20
316.463550
 30
0.0
 11
656.739000
 21
316.379850
 31
0.0
 11
656.775384
 21
316.407150
 31
0.0
 11
656.811142
 21
316.435183
 31
0.0
 11
656.846580
 21
316.463550
 31
0.0
  0
SPLINE
  5
146
100
AcDbEntity
  8
0
 62
7
100
AcDbSpline
 70
0
 71
3
 72
10
 73
6
 74
4
 40
0.000000
 40
0.000000
 40
0.000000
 40
0.000000
 40
1.894537
 40
3.784505
 40
5.679021
 40
5.679021
 40
5.679021
 40
5.679021
 10
656.949680
 20
316.287240
 30
0.0
 10
657.445608
 20
316.679279
 30
0.0
 10
658.436269
 20
317.462411
 30
0.0
 10
659.714223
 20
318.875337
 30
0.0
 10
660.394022
 20
319.939566
 30
0.0
 10
660.734330
 20
320.472320
 30
0.0
 11
656.949680
 21
316.287240
 31
0.0
 11
658.402623
 21
317.503063
 31
0.0
 11
659.670347
 21
318.904797
 31
0.0
 11
660.734330
 21
320.472320
 31
0.0
  0
LINE
  5
147
100
AcDbEntity
  8
0
 62
7
100
AcDbLine
 10
660.723830
 20
334.107850
 30
0.0
 11
660.735730
 21
334.113850
 31
0.0
  0
LINE
  5
148
100
AcDbEntity
  8
0
 62
7
100
AcDbLine
 10
660.735730
 20
334.113850
 30
0.0
 11
639.194710
 21
371.424040
 31
0.0
  0
LINE
  5
149
100
AcDbEntity
  8
0
 62
7
100
AcDbLine
 10
639.194710
 20
371.424040
 30
0.0
 11
639.182810
 21
371.418040
 31
0.0
  0
SPLINE
  5
14a
100
AcDbEntity
  8
0
 62
7
100
AcDbSpline
 70
0
 71
3
 72
10
 73
6
 74
4
 40
0.000000
 40
0.000000
 40
0.000000
 40
0.000000
 40
4.757977
 40
9.448178
 40
14.206128
 40
14.206128
 40
14.206128
 40
14.206128
 10
660.734330
 20
320.472320
 30
0.0
 10
661.383260
 20
321.931863
 30
0.0
 10
662.671875
 20
324.830157
 30
0.0
 10
662.668076
 20
329.753021
 30
0.0
 10
661.375003
 20
332.649317
 30
0.0
 10
660.723830
 20
334.107850
 30
0.0
 11
660.734330
 21
320.472320
 31
0.0
 11
662.353686
 21
324.946249
 31
0.0
 11
662.350068
 21
329.636448
 31
0.0
 11
660.723830
 21
334.107850
 31
0.0
  0
SPLINE
  5
14b
100
AcDbEntity
  8
0
 62
7
100
AcDbSpline
 70
0
 71
3
 72
10
 73
6
 74
4
 40
0.000000
 40
0.000000
 40
0.000000
 40
0.000000
 40
2.379662
 40
4.750153
 40
7.129741
 40
7.129741
 40
7.129741
 40
7.129741
 10
639.182810
 20
371.418040
 30
0.0
 10
638.751286
 20
372.085184
 30
0.0
 10
637.889901
 20
373.416902
 30
0.0
 10
636.195569
 20
375.117458
 30
0.0
 10
634.866931
 20
375.983553
 30
0.0
 10
634.201340
 20
376.417430
 30
0.0
 11
639.182810
 21
371.418040
 31
0.0
 11
637.821116
 21
373.369598
 31
0.0
 11
636.147968
 21
375.048825
 31
0.0
 11
634.201340
 21
376.417430
 31
0.0
  0
SPLINE
  5
14c
100
AcDbEntity
  8
0
 62
7
100
AcDbSpline
 70
0
 71
3
 72
10
 73
6
 74
4
 40
0.000000
 40
0.000000
 40
0.000000
 40
0.000000
 40
0.595806
 40
1.185568
 40
1.771293
 40
1.771293
 40
1.771293
 40
1.771293
 10
634.201340
 20
376.417430
 30
0.0
 10
634.027643
 20
376.513803
 30
0.0
 10
633.682012
 20
376.705570
 30
0.0
 10
633.148605
 20
376.959591
 30
0.0
 10
632.788183
 20
377.113313
 30
0.0
 10
632.608590
 20
377.189910
 30
0.0
 11
634.201340
 21
376.417430
 31
0.0
 11
633.677374
 21
376.701056
 31
0.0
 11
633.145770
 21
376.956431
 31
0.0
 11
632.608590
 21
377.189910
 31
0.0
  0
SPLINE
  5
14d
100
AcDbEntity
  8
0
 62
7
100
AcDbSpline
 70
0
 71
3
 72
115
 73
111
 74
109
 40
0.000000
 40
0.000000
 40
0.000000
 40
0.000000
 40
0.154975
 40
0.310003
 40
0.465195
 40
0.619739
 40
0.774154
 40
0.928631
 40
1.251575
 40
1.574736
 40
1.898424
 40
2.005493
 40
2.112462
 40
2.219528
 40
2.536957
 40
2.855047
 40
3.173611
 40
3.281799
 40
3.389897
 40
3.498105
 40
3.840429
 40
4.183351
 40
4.527465
 40
4.579028
 40
4.630521
 40
4.682080
 40
4.684809
 40
4.687175
 40
4.689412
 40
4.991573
 40
5.294615
 40
5.598533
 40
5.650522
 40
5.702187
 40
5.754096
 40
6.028545
 40
6.303322
 40
6.578550
 40
6.764766
 40
6.950791
 40
7.135980
 40
7.371329
 40
7.607161
 40
7.843308
 40
8.063290
 40
8.282878
 40
8.501699
 40
8.698784
 40
8.896421
 40
9.094260
 40
9.356031
 40
9.617292
 40
9.877773
 40
10.028985
 40
10.180706
 40
10.332491
 40
10.636918
 40
10.940712
 40
11.243830
 40
11.378244
 40
11.513206
 40
11.648172
 40
11.971105
 40
12.293402
 40
12.615290
 40
12.656790
 40
12.698058
 40
12.739600
 40
12.850886
 40
12.961480
 40
13.072421
 40
13.361626
 40
13.650496
 40
13.939146
 40
14.111155
 40
14.282481
 40
14.453770
 40
14.719472
 40
14.984826
 40
15.250275
 40
15.435130
 40
15.619330
 40
15.803504
 40
16.056173
 40
16.308595
 40
16.561204
 40
16.744879
 40
16.928049
 40
17.111210
 40
17.367769
 40
17.624265
 40
17.880950
 40
18.039148
 40
18.196998
 40
18.354911
 40
18.647878
 40
18.940788
 40
19.234161
 40
19.339981
 40
19.445643
 40
19.551404
 40
19.890348
 40
20.229420
 40
20.569264
 40
20.628322
 40
20.687331
 40
20.746361
 40
22.792455
 40
24.872255
 40
27.007174
 40
27.007174
 40
27.007174
 40
27.007174
 10
632.608590
 20
377.189910
 30
0.0
 10
632.561358
 20
377.210831
 30
0.0
 10
632.466878
 20
377.252680
 30
0.0
 10
632.324873
 20
377.314980
 30
0.0
 10
632.181664
 20
377.374115
 30
0.0
 10
632.037422
 20
377.430085
 30
0.0
 10
631.893183
 20
377.485398
 30
0.0
 10
631.695296
 20
377.557515
 30
0.0
 10
631.443137
 20
377.644943
 30
0.0
 10
631.135324
 20
377.743759
 30
0.0
 10
630.894360
 20
377.815252
 30
0.0
 10
630.721312
 20
377.861991
 30
0.0
 10
630.617583
 20
377.888391
 30
0.0
 10
630.445843
 20
377.931849
 30
0.0
 10
630.205326
 20
377.990439
 30
0.0
 10
629.894370
 20
378.057306
 30
0.0
 10
629.650504
 20
378.104013
 30
0.0
 10
629.475018
 20
378.135471
 30
0.0
 10
629.368510
 20
378.154335
 30
0.0
 10
629.184725
 20
378.184319
 30
0.0
 10
628.922859
 20
378.221634
 30
0.0
 10
628.582164
 20
378.262761
 30
0.0
 10
628.336841
 20
378.283902
 30
0.0
 10
628.188388
 20
378.297201
 30
0.0
 10
628.137191
 20
378.303417
 30
0.0
 10
628.102068
 20
378.305886
 30
0.0
 10
628.083228
 20
378.307769
 30
0.0
 10
628.080885
 20
378.308519
 30
0.0
 10
627.988788
 20
378.353101
 30
0.0
 10
627.772403
 20
378.310976
 30
0.0
 10
627.475303
 20
378.342022
 30
0.0
 10
627.254318
 20
378.343230
 30
0.0
 10
627.118528
 20
378.339608
 30
0.0
 10
627.066831
 20
378.335208
 30
0.0
 10
626.940839
 20
378.332023
 30
0.0
 10
626.740502
 20
378.327824
 30
0.0
 10
626.466114
 20
378.311524
 30
0.0
 10
626.221354
 20
378.293825
 30
0.0
 10
626.005976
 20
378.279936
 30
0.0
 10
625.820538
 20
378.268158
 30
0.0
 10
625.619116
 20
378.250037
 30
0.0
 10
625.402259
 20
378.220563
 30
0.0
 10
625.169424
 20
378.183429
 30
0.0
 10
624.942047
 20
378.144669
 30
0.0
 10
624.719593
 20
378.109342
 30
0.0
 10
624.503080
 20
378.073485
 30
0.0
 10
624.294923
 20
378.033862
 30
0.0
 10
624.096069
 20
377.985819
 30
0.0
 10
623.905419
 20
377.934177
 30
0.0
 10
623.693989
 20
377.876769
 30
0.0
 10
623.461201
 20
377.817162
 30
0.0
 10
623.209175
 20
377.748657
 30
0.0
 10
622.994035
 20
377.684877
 30
0.0
 10
622.816641
 20
377.623099
 30
0.0
 10
622.674882
 20
377.569438
 30
0.0
 10
622.484951
 20
377.498792
 30
0.0
 10
622.246616
 20
377.412876
 30
0.0
 10
621.963295
 20
377.303248
 30
0.0
 10
621.734736
 20
377.209116
 30
0.0
 10
621.561492
 20
377.129022
 30
0.0
 10
621.440776
 20
377.069067
 30
0.0
 10
621.263009
 20
376.982734
 30
0.0
 10
621.028481
 20
376.870378
 30
0.0
 10
620.740300
 20
376.725673
 30
0.0
 10
620.541245
 20
376.613297
 30
0.0
 10
620.422158
 20
376.549895
 30
0.0
 10
620.384599
 20
376.532366
 30
0.0
 10
620.327457
 20
376.501947
 30
0.0
 10
620.253649
 20
376.454188
 30
0.0
 10
620.162106
 20
376.391562
 30
0.0
 10
620.018944
 20
376.299371
 30
0.0
 10
619.822188
 20
376.180859
 30
0.0
 10
619.579377
 20
376.024242
 30
0.0
 10
619.372194
 20
375.884539
 30
0.0
 10
619.201512
 20
375.761020
 30
0.0
 10
619.064878
 20
375.657294
 30
0.0
 10
618.903699
 20
375.534260
 30
0.0
 10
618.717559
 20
375.392260
 30
0.0
 10
618.509171
 20
375.227723
 30
0.0
 10
618.325291
 20
375.075689
 30
0.0
 10
618.166629
 20
374.935797
 30
0.0
 10
618.031002
 20
374.810840
 30
0.0
 10
617.879551
 20
374.669712
 30
0.0
 10
617.711512
 20
374.513021
 30
0.0
 10
617.529536
 20
374.337863
 30
0.0
 10
617.367563
 20
374.175128
 30
0.0
 10
617.226321
 20
374.024481
 30
0.0
 10
617.103403
 20
373.888448
 30
0.0
 10
616.965554
 20
373.733183
 30
0.0
 10
616.811962
 20
373.559199
 30
0.0
 10
616.645715
 20
373.363751
 30
0.0
 10
616.503813
 20
373.190654
 30
0.0
 10
616.387462
 20
373.039270
 30
0.0
 10
616.293670
 20
372.912133
 30
0.0
 10
616.173849
 20
372.748382
 30
0.0
 10
616.027273
 20
372.548404
 30
0.0
 10
615.859631
 20
372.307981
 30
0.0
 10
615.731320
 20
372.116200
 30
0.0
 10
615.642034
 20
371.973544
 30
0.0
 10
615.587241
 20
371.883097
 30
0.0
 10
615.492321
 20
371.726110
 30
0.0
 10
615.357233
 20
371.502452
 30
0.0
 10
615.190607
 20
371.206891
 30
0.0
 10
615.073104
 20
370.990679
 30
0.0
 10
615.005894
 20
370.853619
 30
0.0
 10
614.981380
 20
370.799913
 30
0.0
 10
614.668413
 20
370.149955
 30
0.0
 10
614.130858
 20
368.858909
 30
0.0
 10
613.626373
 20
366.819854
 30
0.0
 10
613.561673
 20
365.413694
 30
0.0
 10
613.528900
 20
364.701420
 30
0.0
 11
632.608590
 21
377.189910
 31
0.0
 11
632.466856
 21
377.252590
 31
0.0
 11
632.324700
 21
377.314440
 31
0.0
 11
632.181260
 21
377.373680
 31
0.0
 11
632.037346
 21
377.430005
 31
0.0
 11
631.893051
 21
377.484988
 31
0.0
 11
631.747970
 21
377.538040
 31
0.0
 11
631.442813
 21
377.643739
 31
0.0
 11
631.135134
 21
377.742564
 31
0.0
 11
630.824590
 21
377.833870
 31
0.0
 11
630.721215
 21
377.861748
 31
0.0
 11
630.617609
 21
377.888359
 31
0.0
 11
630.513800
 21
377.914570
 31
0.0
 11
630.205218
 21
377.988990
 31
0.0
 11
629.894289
 21
378.056100
 31
0.0
 11
629.581460
 21
378.116280
 31
0.0
 11
629.474982
 21
378.135439
 31
0.0
 11
629.368504
 21
378.154087
 31
0.0
 11
629.261720
 21
378.171580
 31
0.0
 11
628.922895
 21
378.220396
 31
0.0
 11
628.582359
 21
378.260774
 31
0.0
 11
628.239720
 21
378.292610
 31
0.0
 11
628.188387
 21
378.297473
 31
0.0
 11
628.137190
 21
378.302980
 31
0.0
 11
628.085830
 21
378.307510
 31
0.0
 11
628.083126
 21
378.307882
 31
0.0
 11
628.080867
 21
378.308585
 31
0.0
 11
628.078830
 21
378.309510
 31
0.0
 11
627.777156
 21
378.326651
 31
0.0
 11
627.474294
 21
378.337103
 31
0.0
 11
627.170400
 21
378.340910
 31
0.0
 11
627.118443
 21
378.339100
 31
0.0
 11
627.066887
 21
378.335727
 31
0.0
 11
627.015010
 21
378.333910
 31
0.0
 11
626.740674
 21
378.326073
 31
0.0
 11
626.466313
 21
378.310947
 31
0.0
 11
626.191730
 21
378.292110
 31
0.0
 11
626.005911
 21
378.279962
 31
0.0
 11
625.820316
 21
378.267325
 31
0.0
 11
625.635910
 21
378.250310
 31
0.0
 11
625.402561
 21
378.219692
 31
0.0
 11
625.169596
 21
378.183031
 31
0.0
 11
624.936660
 21
378.144220
 31
0.0
 11
624.719503
 21
378.109081
 31
0.0
 11
624.502970
 21
378.072576
 31
0.0
 11
624.288200
 21
378.030670
 31
0.0
 11
624.096481
 21
377.984991
 31
0.0
 11
623.905489
 21
377.934175
 31
0.0
 11
623.714450
 21
377.882750
 31
0.0
 11
623.461201
 21
377.816498
 31
0.0
 11
623.209182
 21
377.747629
 31
0.0
 11
622.959900
 21
377.672070
 31
0.0
 11
622.817036
 21
377.622524
 31
0.0
 11
622.674851
 21
377.569583
 31
0.0
 11
622.532580
 21
377.516690
 31
0.0
 11
622.246830
 21
377.411700
 31
0.0
 11
621.963476
 21
377.302150
 31
0.0
 11
621.683920
 21
377.184980
 31
0.0
 11
621.561930
 21
377.128537
 31
0.0
 11
621.440690
 21
377.069247
 31
0.0
 11
621.319340
 21
377.010170
 31
0.0
 11
621.028714
 21
376.869379
 31
0.0
 11
620.741416
 21
376.723311
 31
0.0
 11
620.458710
 21
376.569400
 31
0.0
 11
620.421926
 21
376.550185
 31
0.0
 11
620.384840
 21
376.532081
 31
0.0
 11
620.348150
 21
376.512600
 31
0.0
 11
620.253742
 21
376.453680
 31
0.0
 11
620.161911
 21
376.392050
 31
0.0
 11
620.068750
 21
376.331810
 31
0.0
 11
619.822876
 21
376.179543
 31
0.0
 11
619.579854
 21
376.023380
 31
0.0
 11
619.341100
 21
375.861160
 31
0.0
 11
619.201722
 21
375.760360
 31
0.0
 11
619.064915
 21
375.657227
 31
0.0
 11
618.928710
 21
375.553360
 31
0.0
 11
618.717919
 21
375.391606
 31
0.0
 11
618.509818
 21
375.226964
 31
0.0
 11
618.305660
 21
375.057310
 31
0.0
 11
618.166919
 21
374.935153
 31
0.0
 11
618.031114
 21
374.810707
 31
0.0
 11
617.896260
 21
374.685270
 31
0.0
 11
617.711910
 21
374.512480
 31
0.0
 11
617.530210
 21
374.337260
 31
0.0
 11
617.352400
 21
374.157830
 31
0.0
 11
617.226623
 21
374.023978
 31
0.0
 11
617.103601
 21
373.888269
 31
0.0
 11
616.981850
 21
373.751430
 31
0.0
 11
616.812542
 21
373.558669
 31
0.0
 11
616.646348
 21
373.363298
 31
0.0
 11
616.484300
 21
373.164230
 31
0.0
 11
616.387808
 21
373.038867
 31
0.0
 11
616.293765
 21
372.912089
 31
0.0
 11
616.200420
 21
372.784720
 31
0.0
 11
616.028200
 21
372.547718
 31
0.0
 11
615.860490
 21
372.307572
 31
0.0
 11
615.698390
 21
372.063050
 31
0.0
 11
615.642225
 21
371.973365
 31
0.0
 11
615.587271
 21
371.883118
 31
0.0
 11
615.532540
 21
371.792620
 31
0.0
 11
615.358721
 21
371.501639
 31
0.0
 11
615.191492
 21
371.206674
 31
0.0
 11
615.032000
 21
370.906580
 31
0.0
 11
615.006133
 21
370.853488
 31
0.0
 11
614.981200
 21
370.800005
 31
0.0
 11
614.955800
 21
370.746720
 31
0.0
 11
614.183763
 21
368.851869
 31
0.0
 11
613.697757
 21
366.829651
 31
0.0
 11
613.528900
 21
364.701420
 31
0.0
  0
SPLINE
  5
14e
100
AcDbEntity
  8
0
 62
7
100
AcDbSpline
 70
0
 71
3
 72
13
 73
9
 74
7
 40
0.000000
 40
0.000000
 40
0.000000
 40
0.000000
 40
1.756990
 40
3.507649
 40
5.259522
 40
5.711655
 40
6.164301
 40
6.617789
 40
6.617789
 40
6.617789
 40
6.617789
 10
613.528900
 20
364.701420
 30
0.0
 10
613.551856
 20
364.115373
 30
0.0
 10
613.597684
 20
362.945391
 30
0.0
 10
613.953675
 20
361.221226
 30
0.0
 10
614.373324
 20
359.968432
 30
0.0
 10
614.719461
 20
359.153260
 30
0.0
 10
614.906961
 20
358.741002
 30
0.0
 10
615.045071
 20
358.472337
 30
0.0
 10
615.114190
 20
358.337880
 30
0.0
 11
613.528900
 21
364.701420
 31
0.0
 11
613.645837
 21
362.948325
 31
0.0
 11
613.987220
 21
361.231275
 31
0.0
 11
614.544910
 21
359.570540
 31
0.0
 11
614.721146
 21
359.154168
 31
0.0
 11
614.910094
 21
358.742845
 31
0.0
 11
615.114190
 21
358.337880
 31
0.0
  0
SPLINE
  5
14f
100
AcDbEntity
  8
0
 62
7
100
AcDbSpline
 70
0
 71
3
 72
13
 73
9
 74
7
 40
0.000000
 40
0.000000
 40
0.000000
 40
0.000000
 40
1.429587
 40
2.858943
 40
4.288291
 40
4.289649
 40
4.291162
 40
4.292435
 40
4.292435
 40
4.292435
 40
4.292435
 10
615.114190
 20
358.337880
 30
0.0
 10
614.684161
 20
358.132739
 30
0.0
 10
613.824173
 20
357.722491
 30
0.0
 10
612.527388
 20
357.118324
 30
0.0
 10
611.661533
 20
356.726387
 30
0.0
 10
611.225141
 20
356.527884
 30
0.0
 10
611.223767
 20
356.527661
 30
0.0
 10
611.222849
 20
356.527530
 30
0.0
 10
611.222430
 20
356.527470
 30
0.0
 11
615.114190
 21
358.337880
 31
0.0
 11
613.822963
 21
357.724323
 31
0.0
 11
612.527143
 21
357.121074
 31
0.0
 11
611.226430
 21
356.528470
 31
0.0
 11
611.225171
 21
356.527960
 31
0.0
 11
611.223689
 21
356.527654
 31
0.0
 11
611.222430
 21
356.527470
 31
0.0
  0
SPLINE
  5
150
100
AcDbEntity
  8
0
 62
7
100
AcDbSpline
 70
0
 71
3
 72
31
 73
27
 74
25
 40
0.000000
 40
0.000000
 40
0.000000
 40
0.000000
 40
5.721266
 40
11.441736
 40
17.161576
 40
17.162923
 40
17.164449
 40
17.165718
 40
18.594693
 40
20.023775
 40
21.452762
 40
21.453855
 40
21.455057
 40
21.456396
 40
22.024397
 40
22.592437
 40
23.160457
 40
26.026861
 40
28.893334
 40
31.759913
 40
33.518233
 40
35.276450
 40
37.034859
 40
46.147118
 40
55.260655
 40
64.375727
 40
64.375727
 40
64.375727
 40
64.375727
 10
611.222430
 20
356.527470
 30
0.0
 10
609.474930
 20
355.764061
 30
0.0
 10
605.980172
 20
354.237349
 30
0.0
 10
600.673826
 20
352.090877
 30
0.0
 10
597.030206
 20
350.950788
 30
0.0
 10
595.260715
 20
350.235112
 30
0.0
 10
595.259368
 20
350.234779
 30
0.0
 10
594.784362
 20
350.185789
 30
0.0
 10
593.913217
 20
349.733898
 30
0.0
 10
592.547928
 20
349.331260
 30
0.0
 10
591.626222
 20
349.079661
 30
0.0
 10
591.182449
 20
348.901448
 30
0.0
 10
591.181443
 20
348.900755
 30
0.0
 10
591.042793
 20
348.770467
 30
0.0
 10
590.618031
 20
348.766251
 30
0.0
 10
590.097909
 20
348.563167
 30
0.0
 10
588.807351
 20
348.201144
 30
0.0
 10
586.805611
 20
347.582054
 30
0.0
 10
584.039451
 20
346.821913
 30
0.0
 10
581.624724
 20
346.187484
 30
0.0
 10
579.559630
 20
345.674617
 30
0.0
 10
577.849359
 20
345.266363
 30
0.0
 10
573.745336
 20
344.329045
 30
0.0
 10
567.207131
 20
343.041895
 30
0.0
 10
558.189422
 20
341.685702
 30
0.0
 10
552.134637
 20
341.161082
 30
0.0
 10
549.106990
 20
340.898750
 30
0.0
 11
611.222430
 21
356.527470
 31
0.0
 11
605.969173
 21
354.261157
 31
0.0
 11
600.647164
 21
352.163540
 31
0.0
 11
595.262020
 21
350.235640
 31
0.0
 11
595.260761
 21
350.235163
 31
0.0
 11
595.259279
 21
350.234797
 31
0.0
 11
595.258020
 21
350.234640
 31
0.0
 11
593.903390
 21
349.779727
 31
0.0
 11
592.545110
 21
349.335483
 31
0.0
 11
591.183500
 21
348.901870
 31
0.0
 11
591.182500
 21
348.901427
 31
0.0
 11
591.181500
 21
348.900760
 31
0.0
 11
591.180500
 21
348.899870
 31
0.0
 11
590.637423
 21
348.733459
 31
0.0
 11
590.093013
 21
348.571324
 31
0.0
 11
589.548890
 21
348.408300
 31
0.0
 11
586.799936
 21
347.596193
 31
0.0
 11
584.038528
 21
346.827234
 31
0.0
 11
581.265380
 21
346.101340
 31
0.0
 11
579.558981
 21
345.677204
 31
0.0
 11
577.848766
 21
345.269169
 31
0.0
 11
576.134500
 21
344.877640
 31
0.0
 11
567.195446
 21
343.109427
 31
0.0
 11
558.179298
 21
341.780656
 31
0.0
 11
549.106990
 21
340.898750
 31
0.0
  0
SPLINE
  5
151
100
AcDbEntity
  8
0
 62
7
100
AcDbSpline
 70
0
 71
3
 72
10
 73
6
 74
4
 40
0.000000
 40
0.000000
 40
0.000000
 40
0.000000
 40
13.176120
 40
18.344924
 40
31.637773
 40
31.637773
 40
31.637773
 40
31.637773
 10
549.106990
 20
340.898750
 30
0.0
 10
548.991910
 20
346.367920
 30
0.0
 10
548.831685
 20
353.982566
 30
0.0
 10
535.940529
 20
354.104750
 30
0.0
 10
535.677376
 20
346.426954
 30
0.0
 10
535.487900
 20
340.898750
 30
0.0
 11
549.106990
 21
340.898750
 31
0.0
 11
544.988333
 21
353.414612
 31
0.0
 11
539.819784
 21
353.465954
 31
0.0
 11
535.487900
 21
340.898750
 31
0.0
  0
LINE
  5
152
100
AcDbEntity
  8
0
 62
7
100
AcDbLine
 10
521.906160
 20
341.196080
 30
0.0
 11
515.896730
 21
341.430660
 31
0.0
  0
SPLINE
  5
153
100
AcDbEntity
  8
0
 62
7
100
AcDbSpline
 70
0
 71
3
 72
10
 73
6
 74
4
 40
0.000000
 40
0.000000
 40
0.000000
 40
0.000000
 40
13.234602
 40
18.499232
 40
31.100834
 40
31.100834
 40
31.100834
 40
31.100834
 10
535.487900
 20
340.898750
 30
0.0
 10
535.172846
 20
346.344188
 30
0.0
 10
534.732466
 20
353.955782
 30
0.0
 10
521.982509
 20
353.851981
 30
0.0
 10
521.937738
 20
346.430604
 30
0.0
 10
521.906160
 20
341.196080
 30
0.0
 11
535.487900
 21
340.898750
 31
0.0
 11
530.886586
 21
353.307722
 31
0.0
 11
525.622427
 21
353.237248
 31
0.0
 11
521.906160
 21
341.196080
 31
0.0
  0
LINE
  5
154
100
AcDbEntity
  8
0
 62
7
100
AcDbLine
 10
471.667170
 20
351.662530
 30
0.0
 11
471.666170
 21
351.663530
 31
0.0
  0
SPLINE
  5
155
100
AcDbEntity
  8
0
 62
7
100
AcDbSpline
 70
0
 71
3
 72
16
 73
12
 74
10
 40
0.000000
 40
0.000000
 40
0.000000
 40
0.000000
 40
2.295342
 40
4.590674
 40
6.885946
 40
18.332010
 40
29.776043
 40
41.218470
 40
42.648304
 40
44.078142
 40
45.508012
 40
45.508012
 40
45.508012
 40
45.508012
 10
515.896730
 20
341.430660
 30
0.0
 10
515.136027
 20
341.512773
 30
0.0
 10
513.614626
 20
341.677000
 30
0.0
 10
511.336385
 20
341.957258
 30
0.0
 10
506.039246
 20
342.675290
 30
0.0
 10
497.762696
 20
344.118354
 30
0.0
 10
486.624220
 20
346.774587
 30
0.0
 10
478.866647
 20
349.145137
 30
0.0
 10
474.359363
 20
350.698163
 30
0.0
 10
473.010763
 20
351.173370
 30
0.0
 10
472.115038
 20
351.499475
 30
0.0
 10
471.667170
 20
351.662530
 30
0.0
 11
515.896730
 21
341.430660
 31
0.0
 11
513.615263
 21
341.682654
 31
0.0
 11
511.336984
 21
341.961936
 31
0.0
 11
509.062530
 21
342.270370
 31
0.0
 11
497.786045
 21
344.233342
 31
0.0
 11
486.654609
 21
346.889848
 31
0.0
 11
475.711810
 21
350.234140
 31
0.0
 11
474.359904
 21
350.699732
 31
0.0
 11
473.011609
 21
351.175691
 31
0.0
 11
471.667170
 21
351.662530
 31
0.0
  0
LINE
  5
156
100
AcDbEntity
  8
0
 62
7
100
AcDbLine
 10
463.682980
 20
354.808690
 30
0.0
 11
463.681980
 21
354.809690
 31
0.0
  0
SPLINE
  5
157
100
AcDbEntity
  8
0
 62
7
100
AcDbSpline
 70
0
 71
3
 72
13
 73
9
 74
7
 40
0.000000
 40
0.000000
 40
0.000000
 40
0.000000
 40
2.816232
 40
5.632464
 40
8.449030
 40
8.493075
 40
8.537103
 40
8.581099
 40
8.581099
 40
8.581099
 40
8.581099
 10
471.666170
 20
351.663530
 30
0.0
 10
470.786455
 20
351.991181
 30
0.0
 10
469.027026
 20
352.646483
 30
0.0
 10
466.405614
 20
353.676794
 30
0.0
 10
464.660462
 20
354.408418
 30
0.0
 10
463.764759
 20
354.776116
 30
0.0
 10
463.723681
 20
354.791954
 30
0.0
 10
463.696544
 20
354.803113
 30
0.0
 10
463.682980
 20
354.808690
 30
0.0
 11
471.666170
 21
351.663530
 31
0.0
 11
469.029999
 21
352.654369
 31
0.0
 11
466.409725
 21
353.686517
 31
0.0
 11
463.805500
 21
354.759390
 31
0.0
 11
463.764696
 21
354.775971
 31
0.0
 11
463.723731
 21
354.792109
 31
0.0
 11
463.682980
 21
354.808690
 31
0.0
  0
SPLINE
  5
158
100
AcDbEntity
  8
0
 62
7
100
AcDbSpline
 70
0
 71
3
 72
22
 73
18
 74
16
 40
0.000000
 40
0.000000
 40
0.000000
 40
0.000000
 40
0.002211
 40
0.004460
 40
0.006709
 40
1.266630
 40
2.526515
 40
3.786644
 40
3.986441
 40
4.186254
 40
4.386055
 40
5.255427
 40
6.124974
 40
6.994442
 40
7.447432
 40
7.900377
 40
8.353378
 40
8.353378
 40
8.353378
 40
8.353378
 10
463.681980
 20
354.809690
 30
0.0
 10
463.681310
 20
354.809998
 30
0.0
 10
463.679959
 20
354.810619
 30
0.0
 10
463.677982
 20
354.811666
 30
0.0
 10
463.302775
 20
355.003621
 30
0.0
 10
462.510710
 20
355.293282
 30
0.0
 10
461.363618
 20
355.813799
 30
0.0
 10
460.534082
 20
356.179786
 30
0.0
 10
460.028455
 20
356.404335
 30
0.0
 10
459.845130
 20
356.483798
 30
0.0
 10
459.458805
 20
356.656084
 30
0.0
 10
458.871902
 20
356.926634
 30
0.0
 10
458.084254
 20
357.294832
 30
0.0
 10
457.423410
 20
357.606545
 30
0.0
 10
456.887042
 20
357.856623
 30
0.0
 10
456.475575
 20
358.046067
 30
0.0
 10
456.202744
 20
358.175520
 30
0.0
 10
456.066320
 20
358.240250
 30
0.0
 11
463.681980
 21
354.809690
 31
0.0
 11
463.679980
 21
354.810632
 31
0.0
 11
463.677980
 21
354.811661
 31
0.0
 11
463.675980
 21
354.812690
 31
0.0
 11
462.517368
 21
355.307684
 31
0.0
 11
461.362729
 21
355.811786
 31
0.0
 11
460.211070
 21
356.323260
 31
0.0
 11
460.028340
 21
356.404061
 31
0.0
 11
459.845266
 21
356.484119
 31
0.0
 11
459.662710
 21
356.565320
 31
0.0
 11
458.872285
 21
356.927309
 31
0.0
 11
458.084442
 21
357.295298
 31
0.0
 11
457.297490
 21
357.665000
 31
0.0
 11
456.886876
 21
357.856301
 31
0.0
 11
456.475961
 21
358.046849
 31
0.0
 11
456.066320
 21
358.240250
 31
0.0
  0
LINE
  5
159
100
AcDbEntity
  8
0
 62
7
100
AcDbLine
 10
451.849850
 20
375.745590
 30
0.0
 11
451.830450
 21
375.711190
 31
0.0
  0
LINE
  5
15a
100
AcDbEntity
  8
0
 62
7
100
AcDbLine
 10
451.830450
 20
375.711190
 30
0.0
 11
434.499920
 21
345.232220
 31
0.0
  0
LINE
  5
15b
100
AcDbEntity
  8
0
 62
7
100
AcDbLine
 10
434.499920
 20
345.232220
 30
0.0
 11
434.493920
 21
345.225220
 31
0.0
  0
SPLINE
  5
15c
100
AcDbEntity
  8
0
 62
7
100
AcDbSpline
 70
0
 71
3
 72
10
 73
6
 74
4
 40
0.000000
 40
0.000000
 40
0.000000
 40
0.000000
 40
6.548766
 40
12.929599
 40
19.478272
 40
19.478272
 40
19.478272
 40
19.478272
 10
456.066320
 20
358.240250
 30
0.0
 10
456.808029
 20
360.327009
 30
0.0
 10
458.272427
 20
364.447016
 30
0.0
 10
456.640200
 20
371.224169
 30
0.0
 10
453.460393
 20
374.225463
 30
0.0
 10
451.849850
 20
375.745590
 30
0.0
 11
456.066320
 21
358.240250
 31
0.0
 11
457.637828
 21
364.597663
 31
0.0
 11
456.143696
 21
370.801097
 31
0.0
 11
451.849850
 21
375.745590
 31
0.0
  0
SPLINE
  5
15d
100
AcDbEntity
  8
0
 62
7
100
AcDbSpline
 70
0
 71
3
 72
16
 73
12
 74
10
 40
0.000000
 40
0.000000
 40
0.000000
 40
0.000000
 40
0.013512
 40
0.026470
 40
0.039814
 40
0.161340
 40
0.281486
 40
0.400756
 40
0.770389
 40
1.140130
 40
1.516081
 40
1.516081
 40
1.516081
 40
1.516081
 10
434.493920
 20
345.225220
 30
0.0
 10
434.491535
 20
345.221395
 30
0.0
 10
434.486864
 20
345.213902
 30
0.0
 10
434.478631
 20
345.203469
 30
0.0
 10
434.452051
 20
345.161941
 30
0.0
 10
434.409680
 20
345.088184
 30
0.0
 10
434.338146
 20
344.991139
 30
0.0
 10
434.204088
 20
344.838371
 30
0.0
 10
433.975395
 20
344.661069
 30
0.0
 10
433.630929
 20
344.506413
 30
0.0
 10
433.382187
 20
344.481640
 30
0.0
 10
433.256780
 20
344.469150
 30
0.0
 11
434.493920
 21
345.225220
 31
0.0
 11
434.486557
 21
345.213890
 31
0.0
 11
434.478883
 21
345.203450
 31
0.0
 11
434.471520
 21
345.192320
 31
0.0
 11
434.407493
 21
345.089029
 31
0.0
 11
434.336650
 21
344.991991
 31
0.0
 11
434.257850
 21
344.902460
 31
0.0
 11
433.967569
 21
344.673625
 31
0.0
 11
433.628314
 21
344.526605
 31
0.0
 11
433.256780
 21
344.469150
 31
0.0
  0
SPLINE
  5
15e
100
AcDbEntity
  8
0
 62
7
100
AcDbSpline
 70
0
 71
3
 72
22
 73
18
 74
16
 40
0.000000
 40
0.000000
 40
0.000000
 40
0.000000
 40
0.067004
 40
0.133901
 40
0.200896
 40
0.215454
 40
0.230099
 40
0.244621
 40
0.289017
 40
0.333541
 40
0.378095
 40
0.497120
 40
0.615952
 40
0.735008
 40
1.015283
 40
1.294441
 40
1.572734
 40
1.572734
 40
1.572734
 40
1.572734
 10
433.256780
 20
344.469150
 30
0.0
 10
433.234452
 20
344.469693
 30
0.0
 10
433.189830
 20
344.470779
 30
0.0
 10
433.122970
 20
344.475270
 30
0.0
 10
433.073913
 20
344.481883
 30
0.0
 10
433.042099
 20
344.485873
 30
0.0
 10
433.027602
 20
344.487436
 30
0.0
 10
433.003447
 20
344.491721
 30
0.0
 10
432.969871
 20
344.499755
 30
0.0
 10
432.927471
 20
344.513275
 30
0.0
 10
432.860987
 20
344.533043
 30
0.0
 10
432.770563
 20
344.559433
 30
0.0
 10
432.659713
 20
344.603052
 30
0.0
 10
432.503816
 20
344.677791
 30
0.0
 10
432.314002
 20
344.802464
 30
0.0
 10
432.105007
 20
344.991066
 30
0.0
 10
432.000241
 20
345.145249
 30
0.0
 10
431.947940
 20
345.222220
 30
0.0
 11
433.256780
 21
344.469150
 31
0.0
 11
433.189809
 21
344.471257
 31
0.0
 11
433.123081
 21
344.476009
 31
0.0
 11
433.056570
 21
344.484050
 31
0.0
 11
433.042122
 21
344.485828
 31
0.0
 11
433.027585
 21
344.487606
 31
0.0
 11
433.013270
 21
344.490050
 31
0.0
 11
432.970066
 21
344.500269
 31
0.0
 11
432.927440
 21
344.513131
 31
0.0
 11
432.884770
 21
344.525950
 31
0.0
 11
432.771074
 21
344.561164
 31
0.0
 11
432.660360
 21
344.604332
 31
0.0
 11
432.553070
 21
344.655940
 31
0.0
 11
432.317942
 21
344.808480
 31
0.0
 11
432.113394
 21
344.998453
 31
0.0
 11
431.947940
 21
345.222220
 31
0.0
  0
LINE
  5
15f
100
AcDbEntity
  8
0
 62
7
100
AcDbLine
 10
431.980800
 20
346.665530
 30
0.0
 11
449.317310
 21
377.157950
 31
0.0
  0
SPLINE
  5
160
100
AcDbEntity
  8
0
 62
7
100
AcDbSpline
 70
0
 71
3
 72
19
 73
15
 74
13
 40
0.000000
 40
0.000000
 40
0.000000
 40
0.000000
 40
0.338869
 40
0.680570
 40
1.030711
 40
1.054676
 40
1.078500
 40
1.102817
 40
1.209322
 40
1.318049
 40
1.428897
 40
1.455224
 40
1.481026
 40
1.507818
 40
1.507818
 40
1.507818
 40
1.507818
 10
431.947940
 20
345.222220
 30
0.0
 10
431.900576
 20
345.325345
 30
0.0
 10
431.805452
 20
345.532456
 30
0.0
 10
431.758908
 20
345.877565
 30
0.0
 10
431.780869
 20
346.117516
 30
0.0
 10
431.811442
 20
346.246592
 30
0.0
 10
431.815909
 20
346.270223
 30
0.0
 10
431.829607
 20
346.319949
 30
0.0
 10
431.854678
 20
346.395827
 30
0.0
 10
431.896934
 20
346.496160
 30
0.0
 10
431.935872
 20
346.568337
 30
0.0
 10
431.959212
 20
346.617419
 30
0.0
 10
431.968456
 20
346.642093
 30
0.0
 10
431.976634
 20
346.657620
 30
0.0
 10
431.980800
 20
346.665530
 30
0.0
 11
431.947940
 21
345.222220
 31
0.0
 11
431.821812
 21
345.536741
 31
0.0
 11
431.772088
 21
345.874805
 31
0.0
 11
431.806000
 21
346.223300
 31
0.0
 11
431.811274
 21
346.246678
 31
0.0
 11
431.816193
 21
346.269989
 31
0.0
 11
431.822400
 21
346.293500
 31
0.0
 11
431.855759
 21
346.394646
 31
0.0
 11
431.898207
 21
346.494744
 31
0.0
 11
431.947900
 21
346.593830
 31
0.0
 11
431.958941
 21
346.617730
 31
0.0
 11
431.968826
 21
346.641563
 31
0.0
 11
431.980800
 21
346.665530
 31
0.0
  0
LINE
  5
161
100
AcDbEntity
  8
0
 62
7
100
AcDbLine
 10
443.799450
 20
378.341340
 30
0.0
 11
443.796930
 21
378.341000
 31
0.0
  0
SPLINE
  5
162
100
AcDbEntity
  8
0
 62
7
100
AcDbSpline
 70
0
 71
3
 72
31
 73
27
 74
25
 40
0.000000
 40
0.000000
 40
0.000000
 40
0.000000
 40
0.414641
 40
0.827642
 40
1.239607
 40
1.339045
 40
1.438388
 40
1.537747
 40
1.907071
 40
2.275354
 40
2.643115
 40
2.778551
 40
2.913839
 40
3.049286
 40
3.389360
 40
3.728988
 40
4.068170
 40
4.246182
 40
4.424211
 40
4.602393
 40
4.819465
 40
5.036391
 40
5.253307
 40
5.395971
 40
5.538617
 40
5.681341
 40
5.681341
 40
5.681341
 40
5.681341
 10
449.317310
 20
377.157950
 30
0.0
 10
449.190328
 20
377.212560
 30
0.0
 10
448.936866
 20
377.321564
 30
0.0
 10
448.550431
 20
377.468217
 30
0.0
 10
448.259365
 20
377.569369
 30
0.0
 10
448.066839
 20
377.635542
 30
0.0
 10
447.972942
 20
377.668101
 30
0.0
 10
447.792981
 20
377.726992
 30
0.0
 10
447.525382
 20
377.806100
 30
0.0
 10
447.169715
 20
377.902439
 30
0.0
 10
446.887277
 20
377.970552
 30
0.0
 10
446.679535
 20
378.016820
 30
0.0
 10
446.546956
 20
378.044283
 30
0.0
 10
446.347373
 20
378.084545
 30
0.0
 10
446.080271
 20
378.134534
 30
0.0
 10
445.745109
 20
378.189603
 30
0.0
 10
445.462112
 20
378.228501
 30
0.0
 10
445.231709
 20
378.253568
 30
0.0
 10
445.054259
 20
378.268553
 30
0.0
 10
444.863831
 20
378.284481
 30
0.0
 10
444.660261
 20
378.298741
 30
0.0
 10
444.443570
 20
378.310124
 30
0.0
 10
444.251459
 20
378.315467
 30
0.0
 10
444.084309
 20
378.325053
 30
0.0
 10
443.942132
 20
378.337520
 30
0.0
 10
443.847019
 20
378.340066
 30
0.0
 10
443.799450
 20
378.341340
 30
0.0
 11
449.317310
 21
377.157950
 31
0.0
 11
448.935222
 21
377.318997
 31
0.0
 11
448.549461
 21
377.466503
 31
0.0
 11
448.160840
 21
377.603210
 31
0.0
 11
448.066823
 21
377.635595
 31
0.0
 11
447.972853
 21
377.667825
 31
0.0
 11
447.878450
 21
377.698810
 31
0.0
 11
447.524672
 21
377.804837
 31
0.0
 11
447.169118
 21
377.900826
 31
0.0
 11
446.811640
 21
377.987180
 31
0.0
 11
446.679416
 21
378.016502
 31
0.0
 11
446.546984
 21
378.044158
 31
0.0
 11
446.414200
 21
378.070880
 31
0.0
 11
446.079908
 21
378.133323
 31
0.0
 11
445.744736
 21
378.188157
 31
0.0
 11
445.408630
 21
378.233740
 31
0.0
 11
445.231647
 21
378.252855
 31
0.0
 11
445.054309
 21
378.268525
 31
0.0
 11
444.876720
 21
378.283040
 31
0.0
 11
444.660172
 21
378.298114
 31
0.0
 11
444.443531
 21
378.309233
 31
0.0
 11
444.226770
 21
378.317440
 31
0.0
 11
444.084350
 21
378.325770
 31
0.0
 11
443.942077
 21
378.336077
 31
0.0
 11
443.799450
 21
378.341340
 31
0.0
  0
LINE
  5
163
100
AcDbEntity
  8
0
 62
7
100
AcDbLine
 10
91.083500
 20
411.837490
 30
0.0
 11
89.784716
 21
425.687050
 31
0.0
  0
LINE
  5
164
100
AcDbEntity
  8
0
 62
7
100
AcDbLine
 10
89.784716
 20
425.687050
 30
0.0
 11
93.417434
 21
426.128300
 31
0.0
  0
SPLINE
  5
165
100
AcDbEntity
  8
0
 62
7
100
AcDbSpline
 70
0
 71
3
 72
13
 73
9
 74
7
 40
0.000000
 40
0.000000
 40
0.000000
 40
0.000000
 40
0.193148
 40
0.384756
 40
0.575237
 40
21.553344
 40
54.316633
 40
71.577190
 40
71.577190
 40
71.577190
 40
71.577190
 10
23.291257
 20
430.574150
 30
0.0
 10
23.291974
 20
430.509753
 30
0.0
 10
23.293402
 20
430.381473
 30
0.0
 10
23.307721
 20
430.190207
 30
0.0
 10
24.272387
 20
423.118438
 30
0.0
 10
48.360554
 20
418.949335
 30
0.0
 10
68.384034
 20
414.252756
 30
0.0
 10
85.260376
 20
412.457081
 30
0.0
 10
91.083500
 20
411.837490
 30
0.0
 11
23.291257
 21
430.574150
 31
0.0
 11
23.295461
 21
430.381047
 31
0.0
 11
23.309696
 21
430.189969
 31
0.0
 11
23.334267
 21
430.001080
 31
0.0
 11
41.748700
 21
419.951721
 31
0.0
 11
73.943793
 21
413.876429
 31
0.0
 11
91.083500
 21
411.837490
 31
0.0
  0
SPLINE
  5
166
100
AcDbEntity
  8
0
 62
7
100
AcDbSpline
 70
0
 71
3
 72
13
 73
9
 74
7
 40
0.000000
 40
0.000000
 40
0.000000
 40
0.000000
 40
4.631972
 40
9.303474
 40
14.023718
 40
23.488316
 40
32.906036
 40
42.300886
 40
42.300886
 40
42.300886
 40
42.300886
 10
93.417434
 20
426.128300
 30
0.0
 10
93.582518
 20
424.593148
 30
0.0
 10
93.914095
 20
421.509742
 30
0.0
 10
94.355634
 20
416.855948
 30
0.0
 10
94.883883
 20
410.592599
 30
0.0
 10
95.398199
 20
402.741309
 30
0.0
 10
95.779399
 20
393.321046
 30
0.0
 10
95.777364
 20
387.049621
 30
0.0
 10
95.776348
 20
383.917720
 30
0.0
 11
93.417434
 21
426.128300
 31
0.0
 11
93.903104
 21
421.521860
 31
0.0
 11
94.346035
 21
416.871404
 31
0.0
 11
94.741197
 21
412.167730
 31
0.0
 11
95.359798
 21
402.723369
 31
0.0
 11
95.715641
 21
393.312374
 31
0.0
 11
95.776348
 21
383.917720
 31
0.0
  0
LINE
  5
167
100
AcDbEntity
  8
0
 62
7
100
AcDbLine
 10
77.578059
 20
361.287460
 30
0.0
 11
68.981926
 21
301.131130
 31
0.0
  0
SPLINE
  5
168
100
AcDbEntity
  8
0
 62
7
100
AcDbSpline
 70
0
 71
3
 72
10
 73
6
 74
4
 40
0.000000
 40
0.000000
 40
0.000000
 40
0.000000
 40
8.300974
 40
17.631321
 40
30.603621
 40
30.603621
 40
30.603621
 40
30.603621
 10
95.776348
 20
383.917720
 30
0.0
 10
94.614334
 20
381.212082
 30
0.0
 10
92.146209
 20
375.465289
 30
0.0
 10
80.028872
 20
374.360448
 30
0.0
 10
78.479341
 20
366.095028
 30
0.0
 10
77.578059
 20
361.287460
 30
0.0
 11
95.776348
 21
383.917720
 31
0.0
 11
91.289975
 21
376.933551
 31
0.0
 11
82.745204
 21
373.186249
 31
0.0
 11
77.578059
 21
361.287460
 31
0.0
  0
SPLINE
  5
169
100
AcDbEntity
  8
0
 62
7
100
AcDbSpline
 70
0
 71
3
 72
10
 73
6
 74
4
 40
0.000000
 40
0.000000
 40
0.000000
 40
0.000000
 40
9.890804
 40
19.949257
 40
31.923194
 40
31.923194
 40
31.923194
 40
31.923194
 10
68.981926
 20
301.131130
 30
0.0
 10
68.622203
 20
297.873026
 30
0.0
 10
67.896660
 20
291.301594
 30
0.0
 10
70.260659
 20
280.122717
 30
0.0
 10
76.809442
 20
276.111503
 30
0.0
 10
80.368508
 20
273.931530
 30
0.0
 11
68.981926
 21
301.131130
 31
0.0
 11
68.444250
 21
291.254951
 31
0.0
 11
71.143660
 21
281.565489
 31
0.0
 11
80.368508
 21
273.931530
 31
0.0
  0
SPLINE
  5
16a
100
AcDbEntity
  8
0
 62
7
100
AcDbSpline
 70
0
 71
3
 72
10
 73
6
 74
4
 40
0.000000
 40
0.000000
 40
0.000000
 40
0.000000
 40
0.100220
 40
0.198316
 40
0.298004
 40
0.298004
 40
0.298004
 40
0.298004
 10
80.368508
 20
273.931530
 30
0.0
 10
80.401197
 20
273.924645
 30
0.0
 10
80.465884
 20
273.911020
 30
0.0
 10
80.562904
 20
273.889699
 30
0.0
 10
80.627398
 20
273.876023
 30
0.0
 10
80.659905
 20
273.869130
 30
0.0
 11
80.368508
 21
273.931530
 31
0.0
 11
80.466546
 21
273.910730
 31
0.0
 11
80.562411
 21
273.889930
 31
0.0
 11
80.659905
 21
273.869130
 31
0.0
  0
SPLINE
  5
16b
100
AcDbEntity
  8
0
 62
7
100
AcDbSpline
 70
0
 71
3
 72
10
 73
6
 74
4
 40
0.000000
 40
0.000000
 40
0.000000
 40
0.000000
 40
8.979308
 40
17.965153
 40
26.964410
 40
26.964410
 40
26.964410
 40
26.964410
 10
80.659905
 20
273.869130
 30
0.0
 10
82.963967
 20
271.958586
 30
0.0
 10
87.573769
 20
268.136109
 30
0.0
 10
94.380400
 20
262.264810
 30
0.0
 10
98.834406
 20
258.251874
 30
0.0
 10
101.063070
 20
256.243910
 30
0.0
 11
80.659905
 21
273.869130
 31
0.0
 11
87.553392
 21
268.115191
 31
0.0
 11
94.355553
 21
262.243563
 31
0.0
 11
101.063070
 21
256.243910
 31
0.0
  0
LINE
  5
16c
100
AcDbEntity
  8
0
 62
7
100
AcDbLine
 10
111.486670
 20
246.416980
 30
0.0
 11
108.929340
 21
243.791650
 31
0.0
  0
LINE
  5
16d
100
AcDbEntity
  8
0
 62
7
100
AcDbLine
 10
108.929340
 20
243.791650
 30
0.0
 11
98.540425
 21
253.556150
 31
0.0
  0
SPLINE
  5
16e
100
AcDbEntity
  8
0
 62
7
100
AcDbSpline
 70
0
 71
3
 72
10
 73
6
 74
4
 40
0.000000
 40
0.000000
 40
0.000000
 40
0.000000
 40
4.781290
 40
9.555972
 40
14.326012
 40
14.326012
 40
14.326012
 40
14.326012
 10
101.063070
 20
256.243910
 30
0.0
 10
102.235085
 20
255.163881
 30
0.0
 10
104.577494
 20
253.005314
 30
0.0
 10
108.058754
 20
249.736316
 30
0.0
 10
110.344402
 20
247.523067
 30
0.0
 10
111.486670
 20
246.416980
 30
0.0
 11
101.063070
 21
256.243910
 31
0.0
 11
104.574036
 21
252.998321
 31
0.0
 11
108.051437
 21
249.726429
 31
0.0
 11
111.486670
 21
246.416980
 31
0.0
  0
LINE
  5
16f
100
AcDbEntity
  8
0
 62
7
100
AcDbLine
 10
137.531790
 20
213.349250
 30
0.0
 11
128.340380
 21
223.790890
 31
0.0
  0
LINE
  5
170
100
AcDbEntity
  8
0
 62
7
100
AcDbLine
 10
128.340380
 20
223.790890
 30
0.0
 11
131.019820
 21
226.283010
 31
0.0
  0
SPLINE
  5
171
100
AcDbEntity
  8
0
 62
7
100
AcDbSpline
 70
0
 71
3
 72
13
 73
9
 74
7
 40
0.000000
 40
0.000000
 40
0.000000
 40
0.000000
 40
17.405556
 40
50.392791
 40
71.373379
 40
92.351280
 40
125.113897
 40
142.374062
 40
142.374062
 40
142.374062
 40
142.374062
 10
98.540425
 20
253.556150
 30
0.0
 10
95.544092
 20
248.448473
 30
0.0
 10
86.869069
 20
233.660660
 30
0.0
 10
77.037142
 20
216.224594
 30
0.0
 10
65.616904
 20
181.901081
 30
0.0
 10
100.022614
 20
192.724427
 30
0.0
 10
117.574646
 20
202.139655
 30
0.0
 10
132.412163
 20
210.473641
 30
0.0
 10
137.531790
 20
213.349250
 30
0.0
 11
98.540425
 21
253.556150
 31
0.0
 11
89.758201
 21
238.528644
 31
0.0
 11
75.088266
 21
208.982906
 31
0.0
 11
72.045727
 21
188.224100
 31
0.0
 11
92.850048
 21
190.917161
 31
0.0
 11
122.467148
 21
204.924889
 31
0.0
 11
137.531790
 21
213.349250
 31
0.0
  0
SPLINE
  5
172
100
AcDbEntity
  8
0
 62
7
100
AcDbSpline
 70
0
 71
3
 72
13
 73
9
 74
7
 40
0.000000
 40
0.000000
 40
0.000000
 40
0.000000
 40
4.632159
 40
9.303995
 40
14.024419
 40
23.488872
 40
32.906337
 40
42.301053
 40
42.301053
 40
42.301053
 40
42.301053
 10
131.019820
 20
226.283010
 30
0.0
 10
132.055770
 20
225.138045
 30
0.0
 10
134.136543
 20
222.838308
 30
0.0
 10
137.229475
 20
219.332782
 30
0.0
 10
141.338503
 20
214.576099
 30
0.0
 10
146.369383
 20
208.526605
 30
0.0
 10
152.214758
 20
201.129653
 30
0.0
 10
155.899278
 20
196.054865
 30
0.0
 10
157.739310
 20
193.520540
 30
0.0
 11
131.019820
 21
226.283010
 31
0.0
 11
134.120511
 21
222.841700
 31
0.0
 11
137.212645
 21
219.339593
 31
0.0
 11
140.297270
 21
215.766430
 31
0.0
 11
146.348891
 21
208.489497
 31
0.0
 11
152.168249
 21
201.085193
 31
0.0
 11
157.739310
 21
193.520540
 31
0.0
  0
LINE
  5
173
100
AcDbEntity
  8
0
 62
7
100
AcDbLine
 10
156.318420
 20
164.515680
 30
0.0
 11
184.722450
 21
110.795010
 31
0.0
  0
SPLINE
  5
174
100
AcDbEntity
  8
0
 62
7
100
AcDbSpline
 70
0
 71
3
 72
10
 73
6
 74
4
 40
0.000000
 40
0.000000
 40
0.000000
 40
0.000000
 40
8.300949
 40
17.631237
 40
30.603519
 40
30.603519
 40
30.603519
 40
30.603519
 10
157.739310
 20
193.520540
 30
0.0
 10
158.389564
 20
190.648628
 30
0.0
 10
159.770706
 20
184.548680
 30
0.0
 10
150.617039
 20
176.532456
 30
0.0
 10
154.221744
 20
168.934834
 30
0.0
 10
156.318420
 20
164.515680
 30
0.0
 11
157.739310
 21
193.520540
 31
0.0
 11
158.214976
 21
185.233230
 31
0.0
 11
153.504768
 21
177.179150
 31
0.0
 11
156.318420
 21
164.515680
 31
0.0
  0
SPLINE
  5
175
100
AcDbEntity
  8
0
 62
7
100
AcDbSpline
 70
0
 71
3
 72
10
 73
6
 74
4
 40
0.000000
 40
0.000000
 40
0.000000
 40
0.000000
 40
9.890900
 40
19.949591
 40
31.923685
 40
31.923685
 40
31.923685
 40
31.923685
 10
184.722450
 20
110.795010
 30
0.0
 10
186.346545
 20
107.947697
 30
0.0
 10
189.622286
 20
102.204770
 30
0.0
 10
198.105867
 20
94.550486
 30
0.0
 10
205.761789
 20
95.154596
 30
0.0
 10
209.922530
 20
95.482910
 30
0.0
 11
184.722450
 21
110.795010
 31
0.0
 11
190.092695
 21
102.488966
 31
0.0
 11
197.972185
 21
96.236694
 31
0.0
 11
209.922530
 21
95.482910
 31
0.0
  0
SPLINE
  5
176
100
AcDbEntity
  8
0
 62
7
100
AcDbSpline
 70
0
 71
3
 72
10
 73
6
 74
4
 40
0.000000
 40
0.000000
 40
0.000000
 40
0.000000
 40
0.101093
 40
0.200069
 40
0.300654
 40
0.300654
 40
0.300654
 40
0.300654
 10
209.922530
 20
95.482910
 30
0.0
 10
209.953294
 20
95.496662
 30
0.0
 10
210.014178
 20
95.523878
 30
0.0
 10
210.105903
 20
95.564254
 30
0.0
 10
210.166651
 20
95.591359
 30
0.0
 10
210.197270
 20
95.605020
 30
0.0
 11
209.922530
 21
95.482910
 31
0.0
 11
210.014861
 21
95.524077
 31
0.0
 11
210.105379
 21
95.564113
 31
0.0
 11
210.197270
 21
95.605020
 31
0.0
  0
SPLINE
  5
177
100
AcDbEntity
  8
0
 62
7
100
AcDbSpline
 70
0
 71
3
 72
10
 73
6
 74
4
 40
0.000000
 40
0.000000
 40
0.000000
 40
0.000000
 40
8.978452
 40
17.963541
 40
26.961952
 40
26.961952
 40
26.961952
 40
26.961952
 10
210.197270
 20
95.605020
 30
0.0
 10
213.183996
 20
95.413596
 30
0.0
 10
219.159655
 20
95.030607
 30
0.0
 10
228.116524
 20
94.280844
 30
0.0
 10
234.078089
 20
93.652237
 30
0.0
 10
237.061080
 20
93.337700
 30
0.0
 11
210.197270
 21
95.605020
 31
0.0
 11
219.155424
 21
95.001634
 31
0.0
 11
228.108946
 21
94.249133
 31
0.0
 11
237.061080
 21
93.337700
 31
0.0
  0
LINE
  5
178
100
AcDbEntity
  8
0
 62
7
100
AcDbLine
 10
251.270040
 20
91.514410
 30
0.0
 11
250.744140
 21
87.887230
 31
0.0
  0
LINE
  5
179
100
AcDbEntity
  8
0
 62
7
100
AcDbLine
 10
250.744140
 20
87.887230
 30
0.0
 11
236.600400
 21
89.681400
 31
0.0
  0
SPLINE
  5
17a
100
AcDbEntity
  8
0
 62
7
100
AcDbSpline
 70
0
 71
3
 72
10
 73
6
 74
4
 40
0.000000
 40
0.000000
 40
0.000000
 40
0.000000
 40
4.781277
 40
9.555941
 40
14.325975
 40
14.325975
 40
14.325975
 40
14.325975
 10
237.061080
 20
93.337700
 30
0.0
 10
238.644081
 20
93.152833
 30
0.0
 10
241.807893
 20
92.783353
 30
0.0
 10
246.545750
 20
92.184926
 30
0.0
 10
249.695786
 20
91.737843
 30
0.0
 10
251.270040
 20
91.514410
 30
0.0
 11
237.061080
 21
93.337700
 31
0.0
 11
241.809209
 21
92.775664
 31
0.0
 11
246.545638
 21
92.172626
 31
0.0
 11
251.270040
 21
91.514410
 31
0.0
  0
LINE
  5
17b
100
AcDbEntity
  8
0
 62
7
100
AcDbLine
 10
291.778040
 20
80.072310
 30
0.0
 11
278.204610
 21
83.116690
 31
0.0
  0
LINE
  5
17c
100
AcDbEntity
  8
0
 62
7
100
AcDbLine
 10
278.204610
 20
83.116690
 30
0.0
 11
278.906730
 21
86.707770
 31
0.0
  0
SPLINE
  5
17d
100
AcDbEntity
  8
0
 62
7
100
AcDbSpline
 70
0
 71
3
 72
13
 73
9
 74
7
 40
0.000000
 40
0.000000
 40
0.000000
 40
0.000000
 40
17.405865
 40
50.393650
 40
71.374460
 40
92.352728
 40
125.116136
 40
142.376735
 40
142.376735
 40
142.376735
 40
142.376735
 10
236.600400
 20
89.681400
 30
0.0
 10
237.178494
 20
83.787891
 30
0.0
 10
238.852197
 20
66.724939
 30
0.0
 10
241.146473
 20
46.839535
 30
0.0
 10
252.082047
 20
12.357824
 30
0.0
 10
273.555264
 20
41.338197
 30
0.0
 10
282.221070
 20
59.272471
 30
0.0
 10
289.326379
 20
74.736503
 30
0.0
 10
291.778040
 20
80.072310
 30
0.0
 11
236.600400
 21
89.681400
 31
0.0
 11
238.328259
 21
72.361509
 31
0.0
 11
243.826361
 21
39.835138
 31
0.0
 11
253.566500
 21
21.252240
 31
0.0
 11
268.814711
 21
35.659870
 31
0.0
 11
284.542102
 21
64.401653
 31
0.0
 11
291.778040
 21
80.072310
 31
0.0
  0
SPLINE
  5
17e
100
AcDbEntity
  8
0
 62
7
100
AcDbSpline
 70
0
 71
3
 72
13
 73
9
 74
7
 40
0.000000
 40
0.000000
 40
0.000000
 40
0.000000
 40
4.632212
 40
9.304157
 40
14.024636
 40
23.489133
 40
32.906653
 40
42.301393
 40
42.301393
 40
42.301393
 40
42.301393
 10
278.906730
 20
86.707770
 30
0.0
 10
280.417836
 20
86.390357
 30
0.0
 10
283.453010
 20
85.752810
 30
0.0
 10
288.015747
 20
84.734455
 30
0.0
 10
294.135951
 20
83.301241
 30
0.0
 10
301.761945
 20
81.364472
 30
0.0
 10
310.838980
 20
78.816613
 30
0.0
 10
316.802774
 20
76.876855
 30
0.0
 10
319.781060
 20
75.908150
 30
0.0
 11
278.906730
 21
86.707770
 31
0.0
 11
283.438019
 21
85.746102
 31
0.0
 11
287.998151
 21
84.730094
 31
0.0
 11
292.593940
 21
83.652300
 31
0.0
 11
301.767188
 21
81.322444
 31
0.0
 11
310.827479
 21
78.753239
 31
0.0
 11
319.781060
 21
75.908150
 31
0.0
  0
LINE
  5
17f
100
AcDbEntity
  8
0
 62
7
100
AcDbLine
 10
335.680100
 20
51.607220
 30
0.0
 11
390.236100
 21
24.841930
 31
0.0
  0
SPLINE
  5
180
100
AcDbEntity
  8
0
 62
7
100
AcDbSpline
 70
0
 71
3
 72
10
 73
6
 74
4
 40
0.000000
 40
0.000000
 40
0.000000
 40
0.000000
 40
8.300995
 40
17.631429
 40
30.603764
 40
30.603764
 40
30.603764
 40
30.603764
 10
319.781060
 20
75.908150
 30
0.0
 10
321.995187
 20
73.966906
 30
0.0
 10
326.698025
 20
69.843676
 30
0.0
 10
324.004285
 20
57.977941
 30
0.0
 10
331.386347
 20
53.950037
 30
0.0
 10
335.680100
 20
51.607220
 30
0.0
 11
319.781060
 21
75.908150
 31
0.0
 11
325.037020
 21
69.483089
 31
0.0
 11
325.960427
 21
60.198461
 31
0.0
 11
335.680100
 21
51.607220
 31
0.0
  0
LINE
  5
181
100
AcDbEntity
  8
0
 62
7
100
AcDbLine
 10
419.622550
 20
27.266060
 30
0.0
 11
419.622550
 21
62.220900
 31
0.0
  0
SPLINE
  5
182
100
AcDbEntity
  8
0
 62
7
100
AcDbSpline
 70
0
 71
3
 72
10
 73
6
 74
4
 40
0.000000
 40
0.000000
 40
0.000000
 40
0.000000
 40
9.890659
 40
19.948846
 40
31.922632
 40
31.922632
 40
31.922632
 40
31.922632
 10
390.236100
 20
24.841930
 30
0.0
 10
393.223534
 20
23.493020
 30
0.0
 10
399.249004
 20
20.772351
 30
0.0
 10
410.611062
 20
19.566178
 30
0.0
 10
416.449510
 20
24.554851
 30
0.0
 10
419.622550
 20
27.266060
 30
0.0
 11
390.236100
 21
24.841930
 31
0.0
 11
399.462614
 21
21.278704
 31
0.0
 11
409.511736
 21
20.851780
 31
0.0
 11
419.622550
 21
27.266060
 31
0.0
  0
LINE
  5
183
100
AcDbEntity
  8
0
 62
7
100
AcDbLine
 10
451.854590
 20
70.200960
 30
0.0
 11
452.137660
 21
98.263640
 31
0.0
  0
SPLINE
  5
184
100
AcDbEntity
  8
0
 62
7
100
AcDbSpline
 70
0
 71
3
 72
10
 73
6
 74
4
 40
0.000000
 40
0.000000
 40
0.000000
 40
0.000000
 40
18.167638
 40
32.079590
 40
47.330808
 40
47.330808
 40
47.330808
 40
47.330808
 10
419.622550
 20
62.220900
 30
0.0
 10
423.725759
 20
56.641359
 30
0.0
 10
430.971018
 20
46.789257
 30
0.0
 10
448.773559
 20
55.198579
 30
0.0
 10
450.796611
 20
65.049373
 30
0.0
 10
451.854590
 20
70.200960
 30
0.0
 11
419.622550
 21
62.220900
 31
0.0
 11
433.478363
 21
50.470176
 31
0.0
 11
446.233997
 21
56.023211
 31
0.0
 11
451.854590
 21
70.200960
 31
0.0
  0
LINE
  5
185
100
AcDbEntity
  8
0
 62
7
100
AcDbLine
 10
419.622550
 20
112.213110
 30
0.0
 11
419.622550
 21
121.045140
 31
0.0
  0
LINE
  5
186
100
AcDbEntity
  8
0
 62
7
100
AcDbLine
 10
419.622550
 20
121.045140
 30
0.0
 11
419.622550
 21
165.152570
 31
0.0
  0
SPLINE
  5
187
100
AcDbEntity
  8
0
 62
7
100
AcDbSpline
 70
0
 71
3
 72
10
 73
6
 74
4
 40
0.000000
 40
0.000000
 40
0.000000
 40
0.000000
 40
19.364819
 40
34.006501
 40
51.258737
 40
51.258737
 40
51.258737
 40
51.258737
 10
452.137660
 20
98.263640
 30
0.0
 10
451.288875
 20
104.886744
 30
0.0
 10
449.798327
 20
116.517558
 30
0.0
 10
431.119350
 20
127.149858
 30
0.0
 10
423.658380
 20
117.456497
 30
0.0
 10
419.622550
 20
112.213110
 30
0.0
 11
452.137660
 21
98.263640
 31
0.0
 11
446.056270
 21
116.648767
 31
0.0
 11
432.947653
 21
123.171270
 31
0.0
 11
419.622550
 21
112.213110
 31
0.0
  0
LINE
  5
188
100
AcDbEntity
  8
0
 62
7
100
AcDbLine
 10
442.309710
 20
173.132620
 30
0.0
 11
442.592780
 21
201.195310
 31
0.0
  0
SPLINE
  5
189
100
AcDbEntity
  8
0
 62
7
100
AcDbSpline
 70
0
 71
3
 72
10
 73
6
 74
4
 40
0.000000
 40
0.000000
 40
0.000000
 40
0.000000
 40
16.358838
 40
26.229037
 40
40.751633
 40
40.751633
 40
40.751633
 40
40.751633
 10
419.622550
 20
165.152570
 30
0.0
 10
422.966501
 20
159.119232
 30
0.0
 10
428.328045
 20
149.445645
 30
0.0
 10
442.047694
 20
159.775831
 30
0.0
 10
442.211930
 20
168.148082
 30
0.0
 10
442.309710
 20
173.132620
 30
0.0
 11
419.622550
 21
165.152570
 31
0.0
 11
431.003760
 21
153.401841
 31
0.0
 11
439.163700
 21
158.954876
 31
0.0
 11
442.309710
 21
173.132620
 31
0.0
  0
LINE
  5
18a
100
AcDbEntity
  8
0
 62
7
100
AcDbLine
 10
419.622550
 20
215.144780
 30
0.0
 11
419.622550
 21
233.959150
 31
0.0
  0
SPLINE
  5
18b
100
AcDbEntity
  8
0
 62
7
100
AcDbSpline
 70
0
 71
3
 72
10
 73
6
 74
4
 40
0.000000
 40
0.000000
 40
0.000000
 40
0.000000
 40
18.735581
 40
29.460006
 40
44.881225
 40
44.881225
 40
44.881225
 40
44.881225
 10
442.592780
 20
201.195310
 30
0.0
 10
442.669027
 20
207.535408
 30
0.0
 10
442.788919
 20
217.504638
 30
0.0
 10
428.524119
 20
230.299898
 30
0.0
 10
422.925013
 20
220.767297
 30
0.0
 10
419.622550
 20
215.144780
 30
0.0
 11
442.592780
 21
201.195310
 31
0.0
 11
438.985969
 21
219.580437
 31
0.0
 11
430.473021
 21
226.102940
 31
0.0
 11
419.622550
 21
215.144780
 31
0.0
  0
SPLINE
  5
18c
100
AcDbEntity
  8
0
 62
7
100
AcDbSpline
 70
0
 71
3
 72
10
 73
6
 74
4
 40
0.000000
 40
0.000000
 40
0.000000
 40
0.000000
 40
32.205799
 40
63.431212
 40
94.149653
 40
94.149653
 40
94.149653
 40
94.149653
 10
419.622550
 20
233.959150
 30
0.0
 10
408.881514
 20
234.653729
 30
0.0
 10
387.726413
 20
236.021744
 30
0.0
 10
357.506537
 20
246.043885
 30
0.0
 10
340.063425
 20
257.179514
 30
0.0
 10
331.413250
 20
262.701760
 30
0.0
 11
419.622550
 21
233.959150
 31
0.0
 11
387.604419
 21
237.430862
 31
0.0
 11
357.963694
 21
247.251954
 31
0.0
 11
331.413250
 21
262.701760
 31
0.0
  0
SPLINE
  5
18d
100
AcDbEntity
  8
0
 62
7
100
AcDbSpline
 70
0
 71
3
 72
10
 73
6
 74
4
 40
0.000000
 40
0.000000
 40
0.000000
 40
0.000000
 40
32.205718
 40
63.430932
 40
94.149234
 40
94.149234
 40
94.149234
 40
94.149234
 10
331.413250
 20
262.701760
 30
0.0
 10
323.131833
 20
269.577061
 30
0.0
 10
306.821128
 20
283.118343
 30
0.0
 10
288.263366
 20
308.988880
 30
0.0
 10
280.696929
 20
328.250475
 30
0.0
 10
276.944670
 20
337.802460
 30
0.0
 11
331.413250
 21
262.701760
 31
0.0
 11
307.550615
 21
284.330050
 31
0.0
 11
289.343338
 21
309.697530
 31
0.0
 11
276.944670
 21
337.802460
 31
0.0
  0
SPLINE
  5
18e
100
AcDbEntity
  8
0
 62
7
100
AcDbSpline
 70
0
 71
3
 72
10
 73
6
 74
4
 40
0.000000
 40
0.000000
 40
0.000000
 40
0.000000
 40
32.205917
 40
63.431569
 40
94.150136
 40
94.150136
 40
94.150136
 40
94.150136
 10
276.944670
 20
337.802460
 30
0.0
 10
274.286102
 20
348.232472
 30
0.0
 10
269.049887
 20
368.775033
 30
0.0
 10
269.243060
 20
400.613014
 30
0.0
 10
274.443457
 20
420.643623
 30
0.0
 10
277.022370
 20
430.576940
 30
0.0
 11
276.944670
 21
337.802460
 31
0.0
 11
270.352343
 21
369.326456
 31
0.0
 11
270.533277
 21
400.551584
 31
0.0
 11
277.022370
 21
430.576940
 31
0.0
  0
SPLINE
  5
18f
100
AcDbEntity
  8
0
 62
7
100
AcDbSpline
 70
0
 71
3
 72
10
 73
6
 74
4
 40
0.000000
 40
0.000000
 40
0.000000
 40
0.000000
 40
32.205989
 40
63.431804
 40
94.150481
 40
94.150481
 40
94.150481
 40
94.150481
 10
277.022370
 20
430.576940
 30
0.0
 10
281.002187
 20
440.577678
 30
0.0
 10
288.840698
 20
460.274785
 30
0.0
 10
307.711146
 20
485.918653
 30
0.0
 10
323.692141
 20
499.067066
 30
0.0
 10
331.617220
 20
505.587450
 30
0.0
 11
277.022370
 21
430.576940
 31
0.0
 11
290.218537
 21
459.955280
 31
0.0
 11
308.718833
 21
485.110610
 31
0.0
 11
331.617220
 21
505.587450
 31
0.0
  0
SPLINE
  5
190
100
AcDbEntity
  8
0
 62
7
100
AcDbSpline
 70
0
 71
3
 72
10
 73
6
 74
4
 40
0.000000
 40
0.000000
 40
0.000000
 40
0.000000
 40
32.205516
 40
63.430445
 40
94.148648
 40
94.148648
 40
94.148648
 40
94.148648
 10
331.617220
 20
505.587450
 30
0.0
 10
340.715093
 20
511.338887
 30
0.0
 10
358.633830
 20
522.666643
 30
0.0
 10
388.972851
 20
532.320997
 30
0.0
 10
409.629745
 20
533.564784
 30
0.0
 10
419.873700
 20
534.181590
 30
0.0
 11
331.617220
 21
505.587450
 31
0.0
 11
359.560847
 21
521.598350
 31
0.0
 11
389.312993
 21
531.074957
 31
0.0
 11
419.873700
 21
534.181590
 31
0.0
  0
SPLINE
  5
191
100
AcDbEntity
  8
0
 62
7
100
AcDbSpline
 70
0
 71
3
 72
10
 73
6
 74
4
 40
0.000000
 40
0.000000
 40
0.000000
 40
0.000000
 40
38.222598
 40
79.505301
 40
117.207926
 40
117.207926
 40
117.207926
 40
117.207926
 10
419.873700
 20
534.181590
 30
0.0
 10
431.196914
 20
541.209580
 30
0.0
 10
454.749880
 20
555.828221
 30
0.0
 10
455.364390
 20
604.477628
 30
0.0
 10
431.255965
 20
618.346319
 30
0.0
 10
419.748120
 20
624.966360
 30
0.0
 11
419.873700
 21
534.181590
 31
0.0
 11
448.495989
 21
559.514011
 31
0.0
 11
448.684178
 21
600.796286
 31
0.0
 11
419.748120
 21
624.966360
 31
0.0
  0
SPLINE
  5
192
100
AcDbEntity
  8
0
 62
7
100
AcDbSpline
 70
0
 71
3
 72
10
 73
6
 74
4
 40
0.000000
 40
0.000000
 40
0.000000
 40
0.000000
 40
54.805049
 40
102.412467
 40
158.294716
 40
158.294716
 40
158.294716
 40
158.294716
 10
419.748120
 20
624.966360
 30
0.0
 10
438.061348
 20
633.099370
 30
0.0
 10
472.282700
 20
648.297269
 30
0.0
 10
468.499309
 20
713.217877
 30
0.0
 10
436.923808
 20
731.070768
 30
0.0
 10
419.873700
 20
740.710954
 30
0.0
 11
419.748120
 21
624.966360
 31
0.0
 11
464.186680
 21
657.041393
 31
0.0
 11
462.538540
 21
704.620275
 31
0.0
 11
419.873700
 21
740.710954
 31
0.0
  0
SPLINE
  5
193
100
AcDbEntity
  8
0
 62
7
100
AcDbSpline
 70
0
 71
3
 72
10
 73
6
 74
4
 40
0.000000
 40
0.000000
 40
0.000000
 40
0.000000
 40
9.038176
 40
18.082984
 40
27.141247
 40
27.141247
 40
27.141247
 40
27.141247
 10
419.873700
 20
740.710954
 30
0.0
 10
417.328495
 20
739.098915
 30
0.0
 10
412.236217
 20
735.873654
 30
0.0
 10
404.498832
 20
731.183372
 30
0.0
 10
399.271899
 20
728.167739
 30
0.0
 10
396.656490
 20
726.658802
 30
0.0
 11
419.873700
 21
740.710954
 31
0.0
 11
412.222399
 21
735.899903
 31
0.0
 11
404.486158
 21
731.213845
 31
0.0
 11
396.656490
 21
726.658802
 31
0.0
  0
LINE
  5
194
100
AcDbEntity
  8
0
 62
7
100
AcDbLine
 10
384.089060
 20
719.781888
 30
0.0
 11
382.383710
 21
723.026080
 31
0.0
  0
LINE
  5
195
100
AcDbEntity
  8
0
 62
7
100
AcDbLine
 10
382.383710
 20
723.026080
 30
0.0
 11
394.880370
 21
729.887730
 31
0.0
  0
SPLINE
  5
196
100
AcDbEntity
  8
0
 62
7
100
AcDbSpline
 70
0
 71
3
 72
10
 73
6
 74
4
 40
0.000000
 40
0.000000
 40
0.000000
 40
0.000000
 40
4.781399
 40
9.556290
 40
14.326440
 40
14.326440
 40
14.326440
 40
14.326440
 10
396.656490
 20
726.658802
 30
0.0
 10
395.267116
 20
725.877881
 30
0.0
 10
392.490259
 20
724.317102
 30
0.0
 10
388.305350
 20
722.016361
 30
0.0
 10
385.494024
 20
720.526466
 30
0.0
 10
384.089060
 20
719.781888
 30
0.0
 11
396.656490
 21
726.658802
 31
0.0
 11
392.484703
 21
724.322572
 31
0.0
 11
388.298180
 21
722.026356
 31
0.0
 11
384.089060
 21
719.781888
 31
0.0
  0
LINE
  5
197
100
AcDbEntity
  8
0
 62
7
100
AcDbLine
 10
344.592600
 20
705.228810
 30
0.0
 11
357.362630
 21
710.744493
 31
0.0
  0
LINE
  5
198
100
AcDbEntity
  8
0
 62
7
100
AcDbLine
 10
357.362630
 20
710.744493
 30
0.0
 11
358.905630
 21
707.426757
 31
0.0
  0
SPLINE
  5
199
100
AcDbEntity
  8
0
 62
7
100
AcDbSpline
 70
0
 71
3
 72
13
 73
9
 74
7
 40
0.000000
 40
0.000000
 40
0.000000
 40
0.000000
 40
17.406032
 40
50.394144
 40
71.375161
 40
92.353520
 40
125.117197
 40
142.377950
 40
142.377950
 40
142.377950
 40
142.377950
 10
394.880370
 20
729.887730
 30
0.0
 10
390.948501
 20
734.315906
 30
0.0
 10
379.564911
 20
747.136412
 30
0.0
 10
366.020254
 20
761.875524
 30
0.0
 10
336.905009
 20
783.344256
 30
0.0
 10
336.567350
 20
747.276691
 30
0.0
 10
340.098284
 20
727.673836
 30
0.0
 10
343.439667
 20
710.986661
 30
0.0
 10
344.592600
 20
705.228810
 30
0.0
 11
394.880370
 21
729.887730
 31
0.0
 11
383.301943
 21
742.884267
 31
0.0
 11
359.735017
 21
765.967065
 31
0.0
 11
340.932130
 21
775.275904
 31
0.0
 11
337.064843
 21
754.657086
 31
0.0
 11
341.235440
 21
722.159938
 31
0.0
 11
344.592600
 21
705.228810
 31
0.0
  0
SPLINE
  5
19a
100
AcDbEntity
  8
0
 62
7
100
AcDbSpline
 70
0
 71
3
 72
13
 73
9
 74
7
 40
0.000000
 40
0.000000
 40
0.000000
 40
0.000000
 40
4.632000
 40
9.303552
 40
14.023826
 40
23.488574
 40
32.906557
 40
42.301547
 40
42.301547
 40
42.301547
 40
42.301547
 10
358.905630
 20
707.426757
 30
0.0
 10
357.496604
 20
706.795393
 30
0.0
 10
354.666521
 20
705.527275
 30
0.0
 10
350.376779
 20
703.669531
 30
0.0
 10
344.583070
 20
701.231813
 30
0.0
 10
337.275015
 20
698.316026
 30
0.0
 10
328.433765
 20
695.041496
 30
0.0
 10
322.468591
 20
693.105213
 30
0.0
 10
319.489650
 20
692.138255
 30
0.0
 11
358.905630
 21
707.426757
 31
0.0
 11
354.674642
 21
705.541508
 31
0.0
 11
350.388518
 21
703.683406
 31
0.0
 11
346.037090
 21
701.854183
 31
0.0
 11
337.246143
 21
698.346948
 31
0.0
 11
328.405737
 21
695.099541
 31
0.0
 11
319.489650
 21
692.138255
 31
0.0
  0
LINE
  5
19b
100
AcDbEntity
  8
0
 62
7
100
AcDbLine
 10
292.344170
 20
702.453623
 30
0.0
 11
232.475100
 21
692.039725
 31
0.0
  0
SPLINE
  5
19c
100
AcDbEntity
  8
0
 62
7
100
AcDbSpline
 70
0
 71
3
 72
10
 73
6
 74
4
 40
0.000000
 40
0.000000
 40
0.000000
 40
0.000000
 40
8.300834
 40
17.631271
 40
30.603397
 40
30.603397
 40
30.603397
 40
30.603397
 10
319.489650
 20
692.138255
 30
0.0
 10
316.557398
 20
692.407389
 30
0.0
 10
310.329188
 20
692.979039
 30
0.0
 10
305.534725
 20
704.162361
 30
0.0
 10
297.194944
 20
703.082005
 30
0.0
 10
292.344170
 20
702.453623
 30
0.0
 11
319.489650
 21
692.138255
 31
0.0
 11
311.461151
 21
694.247056
 31
0.0
 11
305.257129
 21
701.216071
 31
0.0
 11
292.344170
 21
702.453623
 31
0.0
  0
SPLINE
  5
19d
100
AcDbEntity
  8
0
 62
7
100
AcDbSpline
 70
0
 71
3
 72
10
 73
6
 74
4
 40
0.000000
 40
0.000000
 40
0.000000
 40
0.000000
 40
9.890905
 40
19.949567
 40
31.923617
 40
31.923617
 40
31.923617
 40
31.923617
 10
232.475100
 20
692.039725
 30
0.0
 10
229.265270
 20
691.375000
 30
0.0
 10
222.791168
 20
690.034275
 30
0.0
 10
212.889885
 20
684.331337
 30
0.0
 10
211.098622
 20
676.863456
 30
0.0
 10
210.125130
 20
672.804910
 30
0.0
 11
232.475100
 21
692.039725
 31
0.0
 11
222.916068
 21
689.499074
 31
0.0
 11
214.534882
 21
683.937384
 31
0.0
 11
210.125130
 21
672.804910
 31
0.0
  0
SPLINE
  5
19e
100
AcDbEntity
  8
0
 62
7
100
AcDbSpline
 70
0
 71
3
 72
10
 73
6
 74
4
 40
0.000000
 40
0.000000
 40
0.000000
 40
0.000000
 40
0.100867
 40
0.199564
 40
0.299886
 40
0.299886
 40
0.299886
 40
0.299886
 10
210.125130
 20
672.804910
 30
0.0
 10
210.128688
 20
672.771476
 30
0.0
 10
210.135729
 20
672.705328
 30
0.0
 10
210.145321
 20
672.605827
 30
0.0
 10
210.152175
 20
672.539842
 30
0.0
 10
210.155630
 20
672.506580
 30
0.0
 11
210.125130
 21
672.804910
 31
0.0
 11
210.135637
 21
672.704592
 31
0.0
 11
210.145389
 21
672.606378
 31
0.0
 11
210.155630
 21
672.506580
 31
0.0
  0
SPLINE
  5
19f
100
AcDbEntity
  8
0
 62
7
100
AcDbSpline
 70
0
 71
3
 72
10
 73
6
 74
4
 40
0.000000
 40
0.000000
 40
0.000000
 40
0.000000
 40
8.978535
 40
17.963764
 40
26.962244
 40
26.962244
 40
26.962244
 40
26.962244
 10
210.155630
 20
672.506580
 30
0.0
 10
209.050670
 20
669.725142
 30
0.0
 10
206.839925
 20
664.160191
 30
0.0
 10
203.359592
 20
655.873052
 30
0.0
 10
200.919610
 20
650.397402
 30
0.0
 10
199.698720
 20
647.657560
 30
0.0
 11
210.155630
 21
672.506580
 31
0.0
 11
206.813757
 21
664.173155
 31
0.0
 11
203.331693
 21
655.890065
 31
0.0
 11
199.698720
 21
647.657560
 31
0.0
  0
LINE
  5
1a0
100
AcDbEntity
  8
0
 62
7
100
AcDbLine
 10
193.573890
 20
634.707150
 30
0.0
 11
190.286680
 21
636.329250
 31
0.0
  0
LINE
  5
1a1
100
AcDbEntity
  8
0
 62
7
100
AcDbLine
 10
190.286680
 20
636.329250
 30
0.0
 11
196.362950
 21
649.225540
 31
0.0
  0
SPLINE
  5
1a2
100
AcDbEntity
  8
0
 62
7
100
AcDbSpline
 70
0
 71
3
 72
10
 73
6
 74
4
 40
0.000000
 40
0.000000
 40
0.000000
 40
0.000000
 40
4.781352
 40
9.556147
 40
14.326245
 40
14.326245
 40
14.326245
 40
14.326245
 10
199.698720
 20
647.657560
 30
0.0
 10
199.033725
 20
646.209137
 30
0.0
 10
197.704647
 20
643.314278
 30
0.0
 10
195.671481
 20
638.993110
 30
0.0
 10
194.272857
 20
636.135335
 30
0.0
 10
193.573890
 20
634.707150
 30
0.0
 11
199.698720
 21
647.657560
 31
0.0
 11
197.696946
 21
643.315415
 31
0.0
 11
195.659798
 21
638.997001
 31
0.0
 11
193.573890
 21
634.707150
 31
0.0
  0
LINE
  5
1a3
100
AcDbEntity
  8
0
 62
7
100
AcDbLine
 10
170.173550
 20
599.717600
 30
0.0
 11
177.262760
 21
611.686980
 31
0.0
  0
LINE
  5
1a4
100
AcDbEntity
  8
0
 62
7
100
AcDbLine
 10
177.262760
 20
611.686980
 30
0.0
 11
180.461160
 21
609.909470
 31
0.0
  0
SPLINE
  5
1a5
100
AcDbEntity
  8
0
 62
7
100
AcDbSpline
 70
0
 71
3
 72
13
 73
9
 74
7
 40
0.000000
 40
0.000000
 40
0.000000
 40
0.000000
 40
17.405994
 40
50.394007
 40
71.374905
 40
92.353442
 40
125.117331
 40
142.378183
 40
142.378183
 40
142.378183
 40
142.378183
 10
196.362950
 20
649.225540
 30
0.0
 10
190.579214
 20
650.496981
 30
0.0
 10
173.834082
 20
654.178071
 30
0.0
 10
154.212895
 20
658.141191
 30
0.0
 10
118.039240
 20
658.396499
 30
0.0
 10
138.966051
 20
629.018474
 30
0.0
 10
153.344782
 20
615.234600
 30
0.0
 10
165.856446
 20
603.698194
 30
0.0
 10
170.173550
 20
599.717600
 30
0.0
 11
196.362950
 21
649.225540
 31
0.0
 11
179.356715
 21
652.934529
 31
0.0
 11
146.723098
 21
657.756984
 31
0.0
 11
126.039730
 21
654.236140
 31
0.0
 11
135.030423
 21
635.281815
 31
0.0
 11
157.505744
 21
611.442092
 31
0.0
 11
170.173550
 21
599.717600
 31
0.0
  0
SPLINE
  5
1a6
100
AcDbEntity
  8
0
 62
7
100
AcDbSpline
 70
0
 71
3
 72
13
 73
9
 74
7
 40
0.000000
 40
0.000000
 40
0.000000
 40
0.000000
 40
4.632218
 40
9.304174
 40
14.024664
 40
23.489249
 40
32.906931
 40
42.301753
 40
42.301753
 40
42.301753
 40
42.301753
 10
180.461160
 20
609.909470
 30
0.0
 10
179.692355
 20
608.570390
 30
0.0
 10
178.148149
 20
605.880742
 30
0.0
 10
175.769992
 20
601.855810
 30
0.0
 10
172.515807
 20
596.477915
 30
0.0
 10
168.317306
 20
589.823535
 30
0.0
 10
163.089622
 20
581.977671
 30
0.0
 10
159.401934
 20
576.905049
 30
0.0
 10
157.560330
 20
574.371820
 30
0.0
 11
180.461160
 21
609.909470
 31
0.0
 11
178.146441
 21
605.897050
 31
0.0
 11
175.771246
 21
601.873914
 31
0.0
 11
173.326160
 21
597.836020
 31
0.0
 11
168.275794
 21
589.831511
 31
0.0
 11
163.032830
 21
582.008209
 31
0.0
 11
157.560330
 21
574.371820
 31
0.0
  0
LINE
  5
1a7
100
AcDbEntity
  8
0
 62
7
100
AcDbLine
 10
129.535110
 20
566.760870
 30
0.0
 11
87.221833
 21
523.146040
 31
0.0
  0
SPLINE
  5
1a8
100
AcDbEntity
  8
0
 62
7
100
AcDbSpline
 70
0
 71
3
 72
10
 73
6
 74
4
 40
0.000000
 40
0.000000
 40
0.000000
 40
0.000000
 40
8.301097
 40
17.631869
 40
30.604255
 40
30.604255
 40
30.604255
 40
30.604255
 10
157.560330
 20
574.371820
 30
0.0
 10
155.029829
 20
572.865982
 30
0.0
 10
149.654941
 20
569.667521
 30
0.0
 10
139.202313
 20
575.896543
 30
0.0
 10
133.090171
 20
570.120463
 30
0.0
 10
129.535110
 20
566.760870
 30
0.0
 11
157.560330
 21
574.371820
 31
0.0
 11
149.825388
 21
571.358702
 31
0.0
 11
140.709546
 21
573.349861
 31
0.0
 11
129.535110
 21
566.760870
 31
0.0
  0
SPLINE
  5
1a9
100
AcDbEntity
  8
0
 62
7
100
AcDbSpline
 70
0
 71
3
 72
10
 73
6
 74
4
 40
0.000000
 40
0.000000
 40
0.000000
 40
0.000000
 40
9.890608
 40
19.948617
 40
31.922298
 40
31.922298
 40
31.922298
 40
31.922298
 10
87.221833
 20
523.146040
 30
0.0
 10
85.015753
 20
520.721705
 30
0.0
 10
80.566253
 20
515.832001
 30
0.0
 10
75.907878
 20
505.398944
 30
0.0
 10
78.848222
 20
498.304750
 30
0.0
 10
80.446227
 20
494.449230
 30
0.0
 11
87.221833
 21
523.146040
 31
0.0
 11
80.981770
 21
515.472335
 31
0.0
 11
77.470305
 21
506.047201
 31
0.0
 11
80.446227
 21
494.449230
 31
0.0
  0
SPLINE
  5
1aa
100
AcDbEntity
  8
0
 62
7
100
AcDbSpline
 70
0
 71
3
 72
10
 73
6
 74
4
 40
0.000000
 40
0.000000
 40
0.000000
 40
0.000000
 40
0.100125
 40
0.198144
 40
0.297753
 40
0.297753
 40
0.297753
 40
0.297753
 10
80.446227
 20
494.449230
 30
0.0
 10
80.468570
 20
494.424437
 30
0.0
 10
80.512786
 20
494.375372
 30
0.0
 10
80.578433
 20
494.300931
 30
0.0
 10
80.622453
 20
494.251922
 30
0.0
 10
80.644641
 20
494.227220
 30
0.0
 11
80.446227
 21
494.449230
 31
0.0
 11
80.513120
 21
494.374730
 31
0.0
 11
80.578192
 21
494.301427
 31
0.0
 11
80.644641
 21
494.227220
 31
0.0
  0
SPLINE
  5
1ab
100
AcDbEntity
  8
0
 62
7
100
AcDbSpline
 70
0
 71
3
 72
10
 73
6
 74
4
 40
0.000000
 40
0.000000
 40
0.000000
 40
0.000000
 40
8.979393
 40
17.965260
 40
26.964592
 40
26.964592
 40
26.964592
 40
26.964592
 10
80.644641
 20
494.227220
 30
0.0
 10
81.385709
 20
491.327243
 30
0.0
 10
82.868379
 20
485.525198
 30
0.0
 10
84.924213
 20
476.774369
 30
0.0
 10
86.168881
 20
470.909813
 30
0.0
 10
86.791681
 20
467.975340
 30
0.0
 11
80.644641
 21
494.227220
 31
0.0
 11
82.839624
 21
485.520237
 31
0.0
 11
84.891594
 21
476.771796
 31
0.0
 11
86.791681
 21
467.975340
 31
0.0
  0
LINE
  5
1ac
100
AcDbEntity
  8
0
 62
7
100
AcDbLine
 10
89.447533
 20
453.898210
 30
0.0
 11
85.835627
 21
453.277950
 31
0.0
  0
LINE
  5
1ad
100
AcDbEntity
  8
0
 62
7
100
AcDbLine
 10
85.835627
 20
453.277950
 30
0.0
 11
83.171448
 21
467.282930
 31
0.0
  0
SPLINE
  5
1ae
100
AcDbEntity
  8
0
 62
7
100
AcDbSpline
 70
0
 71
3
 72
10
 73
6
 74
4
 40
0.000000
 40
0.000000
 40
0.000000
 40
0.000000
 40
4.781278
 40
9.555947
 40
14.325982
 40
14.325982
 40
14.325982
 40
14.325982
 10
86.791681
 20
467.975340
 30
0.0
 10
87.104982
 20
466.412678
 30
0.0
 10
87.731150
 20
463.289514
 30
0.0
 10
88.625518
 20
458.598510
 30
0.0
 10
89.173617
 20
455.464469
 30
0.0
 10
89.447533
 20
453.898210
 30
0.0
 11
86.791681
 21
467.975340
 31
0.0
 11
87.724175
 21
463.285876
 31
0.0
 11
88.613852
 21
458.594827
 31
0.0
 11
89.447533
 21
453.898210
 31
0.0
  0
LINE
  5
1af
100
AcDbEntity
  8
0
 62
7
100
AcDbLine
 10
23.291257
 20
430.574150
 30
0.0
 11
23.291257
 21
430.574150
 31
0.0
  0
SPLINE
  5
1b0
100
AcDbEntity
  8
0
 62
7
100
AcDbSpline
 70
0
 71
3
 72
10
 73
6
 74
4
 40
0.000000
 40
0.000000
 40
0.000000
 40
0.000000
 40
16.939151
 40
49.410380
 40
70.978327
 40
70.978327
 40
70.978327
 40
70.978327
 10
83.171448
 20
467.282930
 30
0.0
 10
78.023464
 20
465.004751
 30
0.0
 10
63.007137
 20
458.359455
 30
0.0
 10
40.576534
 20
449.233712
 30
0.0
 10
28.222114
 20
435.897041
 30
0.0
 10
23.291257
 20
430.574150
 30
0.0
 11
83.171448
 21
467.282930
 31
0.0
 11
67.657172
 21
460.482779
 31
0.0
 11
38.836187
 21
445.525121
 31
0.0
 11
23.291257
 21
430.574150
 31
0.0
  0
LINE
  5
1b1
100
AcDbEntity
  8
0
 62
7
100
AcDbLine
 10
342.814190
 20
64.060830
 30
0.0
 11
342.814190
 21
64.060830
 31
0.0
  0
SPLINE
  5
1b2
100
AcDbEntity
  8
0
 62
7
100
AcDbSpline
 70
0
 71
3
 72
61
 73
57
 74
55
 40
0.000000
 40
0.000000
 40
0.000000
 40
0.000000
 40
0.869304
 40
1.715603
 40
2.584907
 40
3.287567
 40
5.135763
 40
7.740937
 40
10.715919
 40
13.618312
 40
15.987374
 40
20.635802
 40
25.316922
 40
30.022286
 40
34.740985
 40
39.465976
 40
44.191172
 40
46.633546
 40
49.631290
 40
52.707621
 40
55.405008
 40
57.320541
 40
58.049267
 40
58.677029
 40
59.295592
 40
59.923354
 40
60.551117
 40
61.169679
 40
61.797441
 40
62.425204
 40
63.043766
 40
63.671529
 40
64.428923
 40
66.418769
 40
69.218634
 40
72.408616
 40
75.633936
 40
78.587692
 40
83.356773
 40
88.123595
 40
92.881527
 40
97.624334
 40
102.347175
 40
107.042298
 40
109.940366
 40
113.082273
 40
116.178905
 40
118.892340
 40
120.818962
 40
121.551853
 40
122.055527
 40
122.554340
 40
123.058014
 40
123.561687
 40
124.060500
 40
124.564174
 40
124.564174
 40
124.564174
 40
124.564174
 10
342.814190
 20
64.060830
 30
0.0
 10
342.858629
 20
63.769293
 30
0.0
 10
342.946330
 20
63.193934
 30
0.0
 10
343.572962
 20
62.520558
 30
0.0
 10
344.365371
 20
62.285592
 30
0.0
 10
345.500048
 20
62.193819
 30
0.0
 10
347.201414
 20
61.934559
 30
0.0
 10
349.649384
 20
61.566593
 30
0.0
 10
352.424353
 20
61.020579
 30
0.0
 10
355.103733
 20
60.393731
 30
0.0
 10
358.229532
 20
59.296371
 30
0.0
 10
361.730580
 20
57.567232
 30
0.0
 10
365.978164
 20
55.609383
 30
0.0
 10
370.203510
 20
53.546090
 30
0.0
 10
374.432150
 20
51.456443
 30
0.0
 10
378.617840
 20
49.271048
 30
0.0
 10
382.182997
 20
47.526541
 30
0.0
 10
385.037786
 20
45.690355
 30
0.0
 10
387.256777
 20
43.915369
 30
0.0
 10
389.476786
 20
42.011726
 30
0.0
 10
391.351988
 20
40.265573
 30
0.0
 10
392.654159
 20
39.047494
 30
0.0
 10
393.406753
 20
38.261565
 30
0.0
 10
393.925936
 20
37.840571
 30
0.0
 10
394.544859
 20
37.671419
 30
0.0
 10
395.179488
 20
37.717054
 30
0.0
 10
395.760025
 20
37.983151
 30
0.0
 10
396.212098
 20
38.432237
 30
0.0
 10
396.482002
 20
39.010963
 30
0.0
 10
396.531981
 20
39.645409
 30
0.0
 10
396.366425
 20
40.264943
 30
0.0
 10
395.944886
 20
40.796487
 30
0.0
 10
395.122786
 20
41.561573
 30
0.0
 10
393.803560
 20
42.859458
 30
0.0
 10
391.840136
 20
44.653944
 30
0.0
 10
389.525578
 20
46.673149
 30
0.0
 10
387.085577
 20
48.629170
 30
0.0
 10
383.988879
 20
50.573310
 30
0.0
 10
380.259314
 20
52.429118
 30
0.0
 10
376.032283
 20
54.626558
 30
0.0
 10
371.769746
 20
56.736459
 30
0.0
 10
367.507530
 20
58.813793
 30
0.0
 10
363.224710
 20
60.796985
 30
0.0
 10
359.528256
 20
62.589097
 30
0.0
 10
356.159198
 20
63.816900
 30
0.0
 10
353.188639
 20
64.508909
 30
0.0
 10
350.255756
 20
65.057418
 30
0.0
 10
347.709398
 20
65.467722
 30
0.0
 10
345.931135
 20
65.688906
 30
0.0
 10
344.889072
 20
65.842052
 30
0.0
 10
344.305034
 20
65.853921
 30
0.0
 10
343.818853
 20
65.697817
 30
0.0
 10
343.393958
 20
65.418489
 30
0.0
 10
343.067515
 20
65.029559
 30
0.0
 10
342.852515
 20
64.564854
 30
0.0
 10
342.827006
 20
64.229380
 30
0.0
 10
342.814190
 20
64.060830
 30
0.0
 11
342.814190
 21
64.060830
 31
0.0
 11
343.031770
 21
63.219196
 31
0.0
 11
343.602978
 21
62.594741
 31
0.0
 11
344.421940
 21
62.303210
 31
0.0
 11
345.119658
 21
62.220018
 31
0.0
 11
346.951299
 21
61.973195
 31
0.0
 11
349.524590
 21
61.566870
 31
0.0
 11
352.444749
 21
60.998370
 31
0.0
 11
355.261344
 21
60.297886
 31
0.0
 11
357.498630
 21
59.518780
 31
0.0
 11
361.728610
 21
57.591308
 31
0.0
 11
365.963626
 21
55.596936
 31
0.0
 11
370.197880
 21
53.544730
 31
0.0
 11
374.422136
 21
51.441927
 31
0.0
 11
378.628094
 21
49.288917
 31
0.0
 11
382.808330
 21
47.085940
 31
0.0
 11
384.859578
 21
45.760205
 31
0.0
 11
387.225266
 21
43.919012
 31
0.0
 11
389.557580
 21
41.912990
 31
0.0
 11
391.542510
 21
40.086533
 31
0.0
 11
392.924370
 21
38.759984
 31
0.0
 11
393.442840
 21
38.247900
 31
0.0
 11
393.949661
 21
37.877470
 31
0.0
 11
394.544394
 21
37.707434
 31
0.0
 11
395.170428
 21
37.753978
 31
0.0
 11
395.741200
 21
38.015331
 31
0.0
 11
396.180037
 21
38.451269
 31
0.0
 11
396.445168
 21
39.020295
 31
0.0
 11
396.495861
 21
39.646008
 31
0.0
 11
396.329772
 21
40.241855
 31
0.0
 11
395.962710
 21
40.751120
 31
0.0
 11
395.424196
 21
41.283707
 31
0.0
 11
393.989397
 21
42.662416
 31
0.0
 11
391.929430
 21
44.558670
 31
0.0
 11
389.519760
 21
46.649000
 31
0.0
 11
386.977110
 21
48.633343
 31
0.0
 11
384.484540
 21
50.218200
 31
0.0
 11
380.265528
 21
52.441727
 31
0.0
 11
376.022419
 21
54.613963
 31
0.0
 11
371.763080
 21
56.734330
 31
0.0
 11
367.494931
 21
58.802450
 31
0.0
 11
363.221796
 21
60.813803
 31
0.0
 11
358.949120
 21
62.760190
 31
0.0
 11
356.220022
 21
63.735292
 31
0.0
 11
353.169968
 21
64.489445
 31
0.0
 11
350.127730
 21
65.067300
 31
0.0
 11
347.447519
 21
65.490619
 31
0.0
 11
345.538188
 21
65.748164
 31
0.0
 11
344.810470
 21
65.835090
 31
0.0
 11
344.306878
 21
65.825996
 31
0.0
 11
343.830522
 21
65.678015
 31
0.0
 11
343.410420
 21
65.400163
 31
0.0
 11
343.085185
 21
65.015572
 31
0.0
 11
342.882322
 21
64.559874
 31
0.0
 11
342.814190
 21
64.060830
 31
0.0
  0
LINE
  5
1b3
100
AcDbEntity
  8
0
 62
7
100
AcDbLine
 10
240.045800
 20
356.120060
 30
0.0
 11
245.440770
 21
356.970660
 31
0.0
  0
SPLINE
  5
1b4
100
AcDbEntity
  8
0
 62
7
100
AcDbSpline
 70
0
 71
3
 72
10
 73
6
 74
4
 40
0.000000
 40
0.000000
 40
0.000000
 40
0.000000
 40
9.494208
 40
18.985199
 40
28.479406
 40
28.479406
 40
28.479406
 40
28.479406
 10
237.602260
 20
384.468600
 30
0.0
 10
237.676565
 20
381.304277
 30
0.0
 10
237.825151
 20
374.976704
 30
0.0
 10
238.641146
 20
365.510092
 30
0.0
 10
239.577529
 20
359.250424
 30
0.0
 10
240.045800
 20
356.120060
 30
0.0
 11
237.602260
 21
384.468600
 31
0.0
 11
237.924055
 21
374.979847
 31
0.0
 11
238.739125
 21
365.523919
 31
0.0
 11
240.045800
 21
356.120060
 31
0.0
  0
SPLINE
  5
1b5
100
AcDbEntity
  8
0
 62
7
100
AcDbSpline
 70
0
 71
3
 72
10
 73
6
 74
4
 40
0.000000
 40
0.000000
 40
0.000000
 40
0.000000
 40
9.209325
 40
18.415534
 40
27.624861
 40
27.624861
 40
27.624861
 40
27.624861
 10
245.440770
 20
356.970660
 30
0.0
 10
244.986573
 20
360.007098
 30
0.0
 10
244.078333
 20
366.078947
 30
0.0
 10
243.286902
 20
375.261514
 30
0.0
 10
243.142809
 20
381.399225
 30
0.0
 10
243.070750
 20
384.468600
 30
0.0
 11
245.440770
 21
356.970660
 31
0.0
 11
244.173374
 21
366.092358
 31
0.0
 11
243.382833
 21
375.264562
 31
0.0
 11
243.070750
 21
384.468600
 31
0.0
  0
LINE
  5
1b6
100
AcDbEntity
  8
0
 62
7
100
AcDbLine
 10
245.365830
 20
412.239880
 30
0.0
 11
239.968090
 21
413.098810
 31
0.0
  0
SPLINE
  5
1b7
100
AcDbEntity
  8
0
 62
7
100
AcDbSpline
 70
0
 71
3
 72
10
 73
6
 74
4
 40
0.000000
 40
0.000000
 40
0.000000
 40
0.000000
 40
9.298288
 40
18.593368
 40
27.891657
 40
27.891657
 40
27.891657
 40
27.891657
 10
243.070750
 20
384.468600
 30
0.0
 10
243.130733
 20
387.567907
 30
0.0
 10
243.250678
 20
393.765451
 30
0.0
 10
244.017085
 20
403.039622
 30
0.0
 10
244.916196
 20
409.172774
 30
0.0
 10
245.365830
 20
412.239880
 30
0.0
 11
243.070750
 21
384.468600
 31
0.0
 11
243.348473
 21
393.762739
 31
0.0
 11
244.114014
 21
403.026241
 31
0.0
 11
245.365830
 21
412.239880
 31
0.0
  0
LINE
  5
1b8
100
AcDbEntity
  8
0
 62
7
100
AcDbLine
 10
237.602260
 20
384.468600
 30
0.0
 11
237.602260
 21
384.468600
 31
0.0
  0
LINE
  5
1b9
100
AcDbEntity
  8
0
 62
7
100
AcDbLine
 10
257.539190
 20
467.335650
 30
0.0
 11
262.409640
 21
464.849090
 31
0.0
  0
SPLINE
  5
1ba
100
AcDbEntity
  8
0
 62
7
100
AcDbSpline
 70
0
 71
3
 72
10
 73
6
 74
4
 40
0.000000
 40
0.000000
 40
0.000000
 40
0.000000
 40
9.585867
 40
19.168427
 40
28.754294
 40
28.754294
 40
28.754294
 40
28.754294
 10
239.968090
 20
413.098810
 30
0.0
 10
239.504572
 20
409.936842
 30
0.0
 10
238.577697
 20
403.613997
 30
0.0
 10
237.787630
 20
394.052989
 30
0.0
 10
237.664057
 20
387.663764
 30
0.0
 10
237.602260
 20
384.468600
 30
0.0
 11
239.968090
 21
413.098810
 31
0.0
 11
238.677620
 21
403.600203
 31
0.0
 11
237.888463
 21
394.050194
 31
0.0
 11
237.602260
 21
384.468600
 31
0.0
  0
LINE
  5
1bb
100
AcDbEntity
  8
0
 62
7
100
AcDbLine
 10
295.029180
 20
509.503230
 30
0.0
 11
291.167510
 21
513.370450
 31
0.0
  0
SPLINE
  5
1bc
100
AcDbEntity
  8
0
 62
7
100
AcDbSpline
 70
0
 71
3
 72
10
 73
6
 74
4
 40
0.000000
 40
0.000000
 40
0.000000
 40
0.000000
 40
18.509064
 40
36.992916
 40
55.501979
 40
55.501979
 40
55.501979
 40
55.501979
 10
262.409640
 20
464.849090
 30
0.0
 10
265.397773
 20
470.251037
 30
0.0
 10
271.369969
 20
481.047573
 30
0.0
 10
282.322746
 20
496.041253
 30
0.0
 10
290.791778
 20
505.013866
 30
0.0
 10
295.029180
 20
509.503230
 30
0.0
 11
262.409640
 21
464.849090
 31
0.0
 11
271.706491
 21
480.853903
 31
0.0
 11
282.609582
 21
495.779564
 31
0.0
 11
295.029180
 21
509.503230
 31
0.0
  0
LINE
  5
1bd
100
AcDbEntity
  8
0
 62
7
100
AcDbLine
 10
257.539190
 20
467.335650
 30
0.0
 11
257.539190
 21
467.335650
 31
0.0
  0
SPLINE
  5
1be
100
AcDbEntity
  8
0
 62
7
100
AcDbSpline
 70
0
 71
3
 72
10
 73
6
 74
4
 40
0.000000
 40
0.000000
 40
0.000000
 40
0.000000
 40
19.081384
 40
38.136778
 40
57.218170
 40
57.218170
 40
57.218170
 40
57.218170
 10
291.167510
 20
513.370450
 30
0.0
 10
286.799071
 20
508.742281
 30
0.0
 10
278.068144
 20
499.492246
 30
0.0
 10
266.776645
 20
484.034978
 30
0.0
 10
260.619741
 20
472.904622
 30
0.0
 10
257.539190
 20
467.335650
 30
0.0
 11
291.167510
 21
513.370450
 31
0.0
 11
278.363848
 21
499.222466
 31
0.0
 11
267.123572
 21
483.835320
 31
0.0
 11
257.539190
 21
467.335650
 31
0.0
  0
LINE
  5
1bf
100
AcDbEntity
  8
0
 62
7
100
AcDbLine
 10
290.980130
 20
255.754060
 30
0.0
 11
294.847360
 21
259.614340
 31
0.0
  0
SPLINE
  5
1c0
100
AcDbEntity
  8
0
 62
7
100
AcDbSpline
 70
0
 71
3
 72
10
 73
6
 74
4
 40
0.000000
 40
0.000000
 40
0.000000
 40
0.000000
 40
19.072106
 40
38.118254
 40
57.190360
 40
57.190360
 40
57.190360
 40
57.190360
 10
257.577990
 20
301.919290
 30
0.0
 10
260.631992
 20
296.339250
 30
0.0
 10
266.735841
 20
285.186763
 30
0.0
 10
277.951317
 20
269.685812
 30
0.0
 10
286.635221
 20
260.400085
 30
0.0
 10
290.980130
 20
255.754060
 30
0.0
 11
257.577990
 21
301.919290
 31
0.0
 11
267.083324
 21
285.384664
 31
0.0
 11
278.247969
 21
269.953966
 31
0.0
 11
290.980130
 21
255.754060
 31
0.0
  0
LINE
  5
1c1
100
AcDbEntity
  8
0
 62
7
100
AcDbLine
 10
262.447060
 20
304.394750
 30
0.0
 11
257.577990
 21
301.919290
 31
0.0
  0
SPLINE
  5
1c2
100
AcDbEntity
  8
0
 62
7
100
AcDbSpline
 70
0
 71
3
 72
10
 73
6
 74
4
 40
0.000000
 40
0.000000
 40
0.000000
 40
0.000000
 40
18.500026
 40
36.974873
 40
55.474895
 40
55.474895
 40
55.474895
 40
55.474895
 10
294.847360
 20
259.614340
 30
0.0
 10
290.632767
 20
264.120993
 30
0.0
 10
282.209317
 20
273.128165
 30
0.0
 10
271.330233
 20
288.164138
 30
0.0
 10
265.409461
 20
298.982091
 30
0.0
 10
262.447060
 20
304.394750
 30
0.0
 11
294.847360
 21
259.614340
 31
0.0
 11
282.497073
 21
273.388278
 31
0.0
 11
271.667293
 21
288.356105
 31
0.0
 11
262.447060
 21
304.394750
 31
0.0
  0
LINE
  5
1c3
100
AcDbEntity
  8
0
 62
7
100
AcDbLine
 10
391.251780
 20
204.553260
 30
0.0
 11
392.110700
 21
209.949600
 31
0.0
  0
SPLINE
  5
1c4
100
AcDbEntity
  8
0
 62
7
100
AcDbSpline
 70
0
 71
3
 72
10
 73
6
 74
4
 40
0.000000
 40
0.000000
 40
0.000000
 40
0.000000
 40
19.082311
 40
38.138630
 40
57.220949
 40
57.220949
 40
57.220949
 40
57.220949
 10
337.014920
 20
222.124350
 30
0.0
 10
342.776104
 20
219.419557
 30
0.0
 10
354.290625
 20
214.013654
 30
0.0
 10
372.501940
 20
208.113745
 30
0.0
 10
384.998994
 20
205.740628
 30
0.0
 10
391.251780
 20
204.553260
 30
0.0
 11
337.014920
 21
222.124350
 31
0.0
 11
354.454584
 21
214.378853
 31
0.0
 11
372.583276
 21
208.505710
 31
0.0
 11
391.251780
 21
204.553260
 31
0.0
  0
LINE
  5
1c5
100
AcDbEntity
  8
0
 62
7
100
AcDbLine
 10
339.501490
 20
226.993420
 30
0.0
 11
337.014920
 21
222.124350
 31
0.0
  0
LINE
  5
1c6
100
AcDbEntity
  8
0
 62
7
100
AcDbLine
 10
337.332680
 20
546.772590
 30
0.0
 11
339.809540
 21
541.902130
 31
0.0
  0
SPLINE
  5
1c7
100
AcDbEntity
  8
0
 62
7
100
AcDbSpline
 70
0
 71
3
 72
10
 73
6
 74
4
 40
0.000000
 40
0.000000
 40
0.000000
 40
0.000000
 40
18.509657
 40
36.994099
 40
55.503754
 40
55.503754
 40
55.503754
 40
55.503754
 10
392.110700
 20
209.949600
 30
0.0
 10
386.045562
 20
211.101346
 30
0.0
 10
373.923550
 20
213.403270
 30
0.0
 10
356.258760
 20
219.126137
 30
0.0
 10
345.089784
 20
224.369801
 30
0.0
 10
339.501490
 20
226.993420
 30
0.0
 11
392.110700
 21
209.949600
 31
0.0
 11
374.002446
 21
213.783468
 31
0.0
 11
356.417797
 21
219.480372
 31
0.0
 11
339.501490
 21
226.993420
 31
0.0
  0
LINE
  5
1c8
100
AcDbEntity
  8
0
 62
7
100
AcDbLine
 10
392.384050
 20
558.908480
 30
0.0
 11
391.533460
 21
564.304840
 31
0.0
  0
SPLINE
  5
1c9
100
AcDbEntity
  8
0
 62
7
100
AcDbSpline
 70
0
 71
3
 72
10
 73
6
 74
4
 40
0.000000
 40
0.000000
 40
0.000000
 40
0.000000
 40
18.494624
 40
36.964090
 40
55.458709
 40
55.458709
 40
55.458709
 40
55.458709
 10
339.809540
 20
541.902130
 30
0.0
 10
345.394740
 20
544.520527
 30
0.0
 10
356.557542
 20
549.753758
 30
0.0
 10
374.210474
 20
555.463973
 30
0.0
 10
386.323444
 20
557.759790
 30
0.0
 10
392.384050
 20
558.908480
 30
0.0
 11
339.809540
 21
541.902130
 31
0.0
 11
356.716133
 21
549.400013
 31
0.0
 11
374.289104
 21
555.084364
 31
0.0
 11
392.384050
 21
558.908480
 31
0.0
  0
LINE
  5
1ca
100
AcDbEntity
  8
0
 62
7
100
AcDbLine
 10
337.332680
 20
546.772590
 30
0.0
 11
337.332680
 21
546.772590
 31
0.0
  0
LINE
  5
1cb
100
AcDbEntity
  8
0
 62
7
100
AcDbLine
 10
418.327210
 20
554.577880
 30
0.0
 11
421.169000
 21
554.577880
 31
0.0
  0
LINE
  5
1cc
100
AcDbEntity
  8
0
 62
7
100
AcDbLine
 10
421.169000
 20
554.577880
 30
0.0
 11
421.169000
 21
604.570080
 31
0.0
  0
LINE
  5
1cd
100
AcDbEntity
  8
0
 62
7
100
AcDbLine
 10
421.169000
 20
604.570080
 30
0.0
 11
418.327210
 21
604.570080
 31
0.0
  0
LINE
  5
1ce
100
AcDbEntity
  8
0
 62
7
100
AcDbLine
 10
418.327210
 20
604.570080
 30
0.0
 11
418.327210
 21
554.577880
 31
0.0
  0
SPLINE
  5
1cf
100
AcDbEntity
  8
0
 62
7
100
AcDbSpline
 70
0
 71
3
 72
10
 73
6
 74
4
 40
0.000000
 40
0.000000
 40
0.000000
 40
0.000000
 40
19.066697
 40
38.107458
 40
57.174149
 40
57.174149
 40
57.174149
 40
57.174149
 10
391.533460
 20
564.304840
 30
0.0
 10
385.285383
 20
563.120636
 30
0.0
 10
372.797728
 20
560.753839
 30
0.0
 10
354.598746
 20
554.867038
 30
0.0
 10
343.090645
 20
549.471963
 30
0.0
 10
337.332680
 20
546.772590
 30
0.0
 11
391.533460
 21
564.304840
 31
0.0
 11
372.878788
 21
560.362486
 31
0.0
 11
354.762239
 21
554.502350
 31
0.0
 11
337.332680
 21
546.772590
 31
0.0
  0
LINE
  5
1d0
100
AcDbEntity
  8
0
 62
7
100
AcDbLine
 10
169.410270
 20
170.397920
 30
0.0
 11
169.410270
 21
170.397920
 31
0.0
  0
SPLINE
  5
1d1
100
AcDbEntity
  8
0
 62
7
100
AcDbSpline
 70
0
 71
3
 72
61
 73
57
 74
55
 40
0.000000
 40
0.000000
 40
0.000000
 40
0.000000
 40
0.869305
 40
1.715606
 40
2.584911
 40
3.287569
 40
5.135762
 40
7.740938
 40
10.715918
 40
13.618309
 40
15.987369
 40
20.635798
 40
25.316923
 40
30.022298
 40
34.740980
 40
39.465967
 40
44.191161
 40
46.633543
 40
49.631289
 40
52.707647
 40
55.405018
 40
57.320544
 40
58.049267
 40
58.676989
 40
59.295513
 40
59.923235
 40
60.550958
 40
61.169482
 40
61.797204
 40
62.424926
 40
63.043450
 40
63.671173
 40
64.428561
 40
66.418398
 40
69.218262
 40
72.408264
 40
75.633583
 40
78.587326
 40
83.356411
 40
88.123236
 40
92.881164
 40
97.623977
 40
102.346818
 40
107.041934
 40
109.940005
 40
113.081912
 40
116.178544
 40
118.891980
 40
120.818598
 40
121.551486
 40
122.055160
 40
122.553973
 40
123.057647
 40
123.561321
 40
124.060134
 40
124.563808
 40
124.563808
 40
124.563808
 40
124.563808
 10
169.410270
 20
170.397920
 30
0.0
 10
169.274860
 20
170.135941
 30
0.0
 10
169.007622
 20
169.618916
 30
0.0
 10
169.118776
 20
168.705817
 30
0.0
 10
169.621738
 20
168.049957
 30
0.0
 10
170.485769
 20
167.308769
 30
0.0
 10
171.709814
 20
166.098986
 30
0.0
 10
173.473976
 20
164.362414
 30
0.0
 10
175.398038
 20
162.289599
 30
0.0
 10
177.197246
 20
160.207567
 30
0.0
 10
179.081051
 20
157.482482
 30
0.0
 10
180.897104
 20
154.025718
 30
0.0
 10
183.182678
 20
149.945111
 30
0.0
 10
185.388228
 20
145.792248
 30
0.0
 10
187.581079
 20
141.616198
 30
0.0
 10
189.682818
 20
137.387892
 30
0.0
 10
191.541711
 20
133.881015
 30
0.0
 10
192.771987
 20
130.717498
 30
0.0
 10
193.523883
 20
127.977203
 30
0.0
 10
194.200930
 20
125.132221
 30
0.0
 10
194.691650
 20
122.617337
 30
0.0
 10
195.029186
 20
120.866509
 30
0.0
 10
195.176056
 20
119.788325
 30
0.0
 10
195.348704
 20
119.142612
 30
0.0
 10
195.750001
 20
118.642032
 30
0.0
 10
196.290231
 20
118.305973
 30
0.0
 10
196.916264
 20
118.180042
 30
0.0
 10
197.545924
 20
118.277632
 30
0.0
 10
198.104417
 20
118.587153
 30
0.0
 10
198.517765
 20
119.071004
 30
0.0
 10
198.747999
 20
119.669473
 30
0.0
 10
198.719486
 20
120.347252
 30
0.0
 10
198.504051
 20
121.449415
 30
0.0
 10
198.199674
 20
123.274843
 30
0.0
 10
197.666008
 20
125.880691
 30
0.0
 10
196.980363
 20
128.874733
 30
0.0
 10
196.156088
 20
131.891389
 30
0.0
 10
194.793490
 20
135.284399
 30
0.0
 10
192.867064
 20
138.977978
 30
0.0
 10
190.738945
 20
143.240331
 30
0.0
 10
188.530657
 20
147.452740
 30
0.0
 10
186.303463
 20
151.638599
 30
0.0
 10
184.004280
 20
155.760413
 30
0.0
 10
182.067178
 20
159.382990
 30
0.0
 10
180.063227
 20
162.356579
 30
0.0
 10
178.066746
 20
164.662476
 30
0.0
 10
176.016395
 20
166.830133
 30
0.0
 10
174.197524
 20
168.658790
 30
0.0
 10
172.888890
 20
169.882968
 30
0.0
 10
172.135861
 20
170.619371
 30
0.0
 10
171.670343
 20
170.972263
 30
0.0
 10
171.185258
 20
171.131743
 30
0.0
 10
170.677325
 20
171.155509
 30
0.0
 10
170.184620
 20
171.032738
 30
0.0
 10
169.737533
 20
170.783157
 30
0.0
 10
169.519710
 20
170.526747
 30
0.0
 10
169.410270
 20
170.397920
 30
0.0
 11
169.410270
 21
170.397920
 31
0.0
 11
169.091593
 21
169.589133
 31
0.0
 11
169.186663
 21
168.748189
 31
0.0
 11
169.677860
 21
168.030960
 31
0.0
 11
170.193426
 21
167.553551
 31
0.0
 11
171.530174
 21
166.277259
 31
0.0
 11
173.373180
 21
164.435990
 31
0.0
 11
175.401484
 21
162.259642
 31
0.0
 11
177.268419
 21
160.037385
 31
0.0
 11
178.620470
 21
158.092030
 31
0.0
 11
180.909659
 21
154.046353
 31
0.0
 11
183.163591
 21
149.943583
 31
0.0
 11
185.382900
 21
145.794460
 31
0.0
 11
187.564429
 21
141.610337
 31
0.0
 11
189.701621
 21
137.396323
 31
0.0
 11
191.788630
 21
133.157000
 31
0.0
 11
192.668873
 21
130.878755
 31
0.0
 11
193.500520
 21
127.998679
 31
0.0
 11
194.208270
 21
125.004840
 31
0.0
 11
194.740554
 21
122.360509
 31
0.0
 11
195.078783
 21
120.475081
 31
0.0
 11
195.197240
 21
119.756050
 31
0.0
 11
195.389576
 21
119.158520
 31
0.0
 11
195.770790
 21
118.671439
 31
0.0
 11
196.304602
 21
118.341166
 31
0.0
 11
196.919949
 21
118.217136
 31
0.0
 11
197.531175
 21
118.311870
 31
0.0
 11
198.080107
 21
118.616351
 31
0.0
 11
198.488898
 21
119.092718
 31
0.0
 11
198.704785
 21
119.672342
 31
0.0
 11
198.707220
 21
120.300060
 31
0.0
 11
198.584594
 21
121.047456
 31
0.0
 11
198.234196
 21
123.006198
 31
0.0
 11
197.682250
 21
125.751120
 31
0.0
 11
196.961459
 21
128.858623
 31
0.0
 11
196.070778
 21
131.958521
 31
0.0
 11
194.985780
 21
134.705770
 31
0.0
 11
192.879495
 21
138.984523
 31
0.0
 11
190.723561
 21
143.235943
 31
0.0
 11
188.524010
 21
147.454930
 31
0.0
 11
186.286604
 21
151.636831
 31
0.0
 11
184.011809
 21
155.775736
 31
0.0
 11
181.699210
 21
159.861810
 31
0.0
 11
180.064468
 21
162.254806
 31
0.0
 11
178.040199
 21
164.657704
 31
0.0
 11
175.918630
 21
166.913380
 31
0.0
 11
173.999116
 21
168.831244
 31
0.0
 11
172.605820
 21
170.161876
 31
0.0
 11
172.068180
 21
170.659940
 31
0.0
 11
171.655420
 21
170.948587
 31
0.0
 11
171.183059
 21
171.108864
 31
0.0
 11
170.679871
 21
171.131008
 31
0.0
 11
170.190694
 21
171.011036
 31
0.0
 11
169.758722
 21
170.761608
 31
0.0
 11
169.410270
 21
170.397920
 31
0.0
  0
LINE
  5
1d2
100
AcDbEntity
  8
0
 62
7
100
AcDbLine
 10
91.626922
 20
358.350740
 30
0.0
 11
91.626922
 21
358.350740
 31
0.0
  0
SPLINE
  5
1d3
100
AcDbEntity
  8
0
 62
7
100
AcDbSpline
 70
0
 71
3
 72
61
 73
57
 74
55
 40
0.000000
 40
0.000000
 40
0.000000
 40
0.000000
 40
0.869304
 40
1.715604
 40
2.584908
 40
3.287567
 40
5.135761
 40
7.740936
 40
10.715918
 40
13.618311
 40
15.987376
 40
20.635799
 40
25.316924
 40
30.022305
 40
34.740982
 40
39.465966
 40
44.191156
 40
46.633537
 40
49.631286
 40
52.707648
 40
55.405017
 40
57.320542
 40
58.049265
 40
58.676892
 40
59.295326
 40
59.922953
 40
60.550581
 40
61.169014
 40
61.796642
 40
62.424269
 40
63.042702
 40
63.670330
 40
64.427718
 40
66.417555
 40
69.217429
 40
72.407422
 40
75.632738
 40
78.586475
 40
83.355563
 40
88.122392
 40
92.880321
 40
97.623133
 40
102.345977
 40
107.041098
 40
109.939163
 40
113.081071
 40
116.177707
 40
118.891137
 40
120.817753
 40
121.550640
 40
122.054317
 40
122.553133
 40
123.056809
 40
123.560486
 40
124.059302
 40
124.562978
 40
124.562978
 40
124.562978
 40
124.562978
 10
91.626922
 20
358.350740
 30
0.0
 10
91.363386
 20
358.218386
 30
0.0
 10
90.843289
 20
357.957179
 30
0.0
 10
90.396512
 20
357.153131
 30
0.0
 10
90.417919
 20
356.326896
 30
0.0
 10
90.681267
 20
355.219396
 30
0.0
 10
90.960445
 20
353.521185
 30
0.0
 10
91.366945
 20
351.079318
 30
0.0
 10
91.705173
 20
348.271439
 30
0.0
 10
91.936973
 20
345.529489
 30
0.0
 10
91.859258
 20
342.217575
 30
0.0
 10
91.296628
 20
338.353546
 30
0.0
 10
90.747177
 20
333.708839
 30
0.0
 10
90.090517
 20
329.052712
 30
0.0
 10
89.409950
 20
324.385292
 30
0.0
 10
88.624952
 20
319.729154
 30
0.0
 10
88.067535
 20
315.799405
 30
0.0
 10
87.203381
 20
312.516928
 30
0.0
 10
86.200977
 20
309.858025
 30
0.0
 10
85.076477
 20
307.158428
 30
0.0
 10
83.995244
 20
304.835415
 30
0.0
 10
83.239261
 20
303.220546
 30
0.0
 10
82.724276
 20
302.262008
 30
0.0
 10
82.484616
 20
301.638122
 30
0.0
 10
82.515124
 20
300.997379
 30
0.0
 10
82.754678
 20
300.408078
 30
0.0
 10
83.187085
 20
299.938321
 30
0.0
 10
83.753765
 20
299.647214
 30
0.0
 10
84.387424
 20
299.569326
 30
0.0
 10
85.006152
 20
299.717719
 30
0.0
 10
85.544147
 20
300.066427
 30
0.0
 10
85.919600
 20
300.631360
 30
0.0
 10
86.393049
 20
301.649682
 30
0.0
 10
87.219813
 20
303.305363
 30
0.0
 10
88.319706
 20
305.727243
 30
0.0
 10
89.524880
 20
308.552475
 30
0.0
 10
90.631167
 20
311.477495
 30
0.0
 10
91.523168
 20
315.023409
 30
0.0
 10
92.135685
 20
319.143903
 30
0.0
 10
92.919353
 20
323.843099
 30
0.0
 10
93.608789
 20
328.549011
 30
0.0
 10
94.267353
 20
333.244553
 30
0.0
 10
94.830012
 20
337.930599
 30
0.0
 10
95.392155
 20
341.999927
 30
0.0
 10
95.518758
 20
345.583504
 30
0.0
 10
95.258947
 20
348.622515
 30
0.0
 10
94.874309
 20
351.581354
 30
0.0
 10
94.477658
 20
354.129872
 30
0.0
 10
94.138507
 20
355.889445
 30
0.0
 10
93.962144
 20
356.927828
 30
0.0
 10
93.792959
 20
357.486951
 30
0.0
 10
93.494257
 20
357.901102
 30
0.0
 10
93.097299
 20
358.218887
 30
0.0
 10
92.626526
 20
358.409169
 30
0.0
 10
92.118123
 20
358.470045
 30
0.0
 10
91.791184
 20
358.390637
 30
0.0
 10
91.626922
 20
358.350740
 30
0.0
 11
91.626922
 21
358.350740
 31
0.0
 11
90.893717
 21
357.883728
 31
0.0
 11
90.476340
 21
357.147508
 31
0.0
 11
90.452154
 21
356.278540
 31
0.0
 11
90.588639
 21
355.589264
 31
0.0
 11
90.919900
 21
353.770999
 31
0.0
 11
91.328647
 21
351.198090
 31
0.0
 11
91.690352
 21
348.245178
 31
0.0
 11
91.894526
 21
345.349975
 31
0.0
 11
91.844916
 21
342.981430
 31
0.0
 11
91.318917
 21
338.362863
 31
0.0
 11
90.730838
 21
333.718824
 31
0.0
 11
90.087505
 21
329.057630
 31
0.0
 11
89.393034
 21
324.390337
 31
0.0
 11
88.645120
 21
319.724923
 31
0.0
 11
87.841732
 21
315.068530
 31
0.0
 11
87.214746
 21
312.707998
 31
0.0
 11
86.194698
 21
309.889132
 31
0.0
 11
85.007538
 21
307.051060
 31
0.0
 11
83.883868
 21
304.598884
 31
0.0
 11
83.049274
 21
302.874736
 31
0.0
 11
82.722473
 21
302.223400
 31
0.0
 11
82.527013
 21
301.626984
 31
0.0
 11
82.549219
 21
301.008950
 31
0.0
 11
82.786978
 21
300.428100
 31
0.0
 11
83.211861
 21
299.966158
 31
0.0
 11
83.761956
 21
299.683570
 31
0.0
 11
84.384923
 21
299.607224
 31
0.0
 11
84.995567
 21
299.752244
 31
0.0
 11
85.510897
 21
300.094143
 31
0.0
 11
85.881882
 21
300.600390
 31
0.0
 11
86.221981
 21
301.277124
 31
0.0
 11
87.089817
 21
303.067743
 31
0.0
 11
88.256700
 21
305.612870
 31
0.0
 11
89.500112
 21
308.550553
 31
0.0
 11
90.601611
 21
311.581950
 31
0.0
 11
91.338622
 21
314.442260
 31
0.0
 11
92.149591
 21
319.141891
 31
0.0
 11
92.904325
 21
323.848592
 31
0.0
 11
93.604704
 21
328.554690
 31
0.0
 11
94.252671
 21
333.253031
 31
0.0
 11
94.845110
 21
337.938569
 31
0.0
 11
95.375907
 21
342.603590
 31
0.0
 11
95.459942
 21
345.500436
 31
0.0
 11
95.234667
 21
348.634257
 31
0.0
 11
94.844142
 21
351.706170
 31
0.0
 11
94.418510
 21
354.386009
 31
0.0
 11
94.073439
 21
356.281471
 31
0.0
 11
93.931235
 21
357.000430
 31
0.0
 11
93.766969
 21
357.476568
 31
0.0
 11
93.479029
 21
357.883885
 31
0.0
 11
93.084956
 21
358.197568
 31
0.0
 11
92.618684
 21
358.388041
 31
0.0
 11
92.122598
 21
358.440157
 31
0.0
 11
91.626922
 21
358.350740
 31
0.0
  0
LINE
  5
1d4
100
AcDbEntity
  8
0
 62
7
100
AcDbLine
 10
139.174760
 20
556.127660
 30
0.0
 11
139.174760
 21
556.127660
 31
0.0
  0
SPLINE
  5
1d5
100
AcDbEntity
  8
0
 62
7
100
AcDbSpline
 70
0
 71
3
 72
61
 73
57
 74
55
 40
0.000000
 40
0.000000
 40
0.000000
 40
0.000000
 40
0.869305
 40
1.715606
 40
2.584911
 40
3.287568
 40
5.135759
 40
7.740932
 40
10.715922
 40
13.618314
 40
15.987374
 40
20.635802
 40
25.316927
 40
30.022303
 40
34.740980
 40
39.465965
 40
44.191152
 40
46.633537
 40
49.631288
 40
52.707642
 40
55.405017
 40
57.320543
 40
58.049265
 40
58.676997
 40
59.295530
 40
59.923261
 40
60.550993
 40
61.169526
 40
61.797258
 40
62.424989
 40
63.043522
 40
63.671254
 40
64.428643
 40
66.418480
 40
69.218344
 40
72.408341
 40
75.633661
 40
78.587397
 40
83.356487
 40
88.123317
 40
92.881248
 40
97.624057
 40
102.346897
 40
107.042017
 40
109.940085
 40
113.081990
 40
116.178628
 40
118.892059
 40
120.818677
 40
121.551565
 40
122.055241
 40
122.554056
 40
123.057732
 40
123.561408
 40
124.060223
 40
124.563899
 40
124.563899
 40
124.563899
 40
124.563899
 10
139.174760
 20
556.127660
 30
0.0
 10
138.883759
 20
556.175486
 30
0.0
 10
138.309458
 20
556.269873
 30
0.0
 10
137.475398
 20
555.881994
 30
0.0
 10
137.007066
 20
555.200975
 30
0.0
 10
136.569150
 20
554.150196
 30
0.0
 10
135.796829
 20
552.612219
 30
0.0
 10
134.690413
 20
550.397766
 30
0.0
 10
133.313606
 20
547.927342
 30
0.0
 10
131.889461
 20
545.572806
 30
0.0
 10
129.879884
 20
542.939099
 30
0.0
 10
127.153495
 20
540.143733
 30
0.0
 10
123.978890
 20
536.709046
 30
0.0
 10
120.710833
 20
533.328142
 30
0.0
 10
117.416809
 20
529.952142
 30
0.0
 10
114.044928
 20
526.646653
 30
0.0
 10
111.284113
 20
523.795067
 30
0.0
 10
108.655608
 20
521.647420
 30
0.0
 10
106.281783
 20
520.085521
 30
0.0
 10
103.785253
 20
518.562476
 30
0.0
 10
101.545103
 20
517.318624
 30
0.0
 10
99.984268
 20
516.456575
 30
0.0
 10
99.004242
 20
515.983705
 30
0.0
 10
98.443468
 20
515.619984
 30
0.0
 10
98.091382
 20
515.083637
 30
0.0
 10
97.938703
 20
514.465992
 30
0.0
 10
98.012388
 20
513.831674
 30
0.0
 10
98.299781
 20
513.262980
 30
0.0
 10
98.766747
 20
512.827464
 30
0.0
 10
99.354659
 20
512.583868
 30
0.0
 10
99.994995
 20
512.549848
 30
0.0
 10
100.630788
 20
512.786431
 30
0.0
 10
101.612443
 20
513.331898
 30
0.0
 10
103.254469
 20
514.185471
 30
0.0
 10
105.567856
 20
515.498280
 30
0.0
 10
108.203488
 20
517.075566
 30
0.0
 10
110.817777
 20
518.791700
 30
0.0
 10
113.623665
 20
521.136095
 30
0.0
 10
116.541162
 20
524.109622
 30
0.0
 10
119.937285
 20
527.450720
 30
0.0
 10
123.261116
 20
530.852642
 30
0.0
 10
126.553870
 20
534.264324
 30
0.0
 10
129.763459
 20
537.724691
 30
0.0
 10
132.610130
 20
540.686428
 30
0.0
 10
134.818931
 20
543.511184
 30
0.0
 10
136.395024
 20
546.122512
 30
0.0
 10
137.822999
 20
548.742351
 30
0.0
 10
139.000088
 20
551.037290
 30
0.0
 10
139.759963
 20
552.660163
 30
0.0
 10
140.227632
 20
553.603895
 30
0.0
 10
140.419400
 20
554.155681
 30
0.0
 10
140.421175
 20
554.666307
 30
0.0
 10
140.286818
 20
555.156726
 30
0.0
 10
140.017800
 20
555.587380
 30
0.0
 10
139.642275
 20
555.935460
 30
0.0
 10
139.331101
 20
556.063387
 30
0.0
 10
139.174760
 20
556.127660
 30
0.0
 11
139.174760
 21
556.127660
 31
0.0
 11
138.307081
 21
556.180809
 31
0.0
 11
137.536675
 21
555.830523
 31
0.0
 11
137.006340
 21
555.141730
 31
0.0
 11
136.711614
 21
554.503871
 31
0.0
 11
135.910866
 21
552.838155
 31
0.0
 11
134.729240
 21
550.516370
 31
0.0
 11
133.286180
 21
547.914804
 31
0.0
 11
131.749603
 21
545.452526
 31
0.0
 11
130.317270
 21
543.565500
 31
0.0
 11
127.177002
 21
540.138169
 31
0.0
 11
123.971538
 21
536.726727
 31
0.0
 11
120.711290
 21
533.333890
 31
0.0
 11
117.406090
 21
529.966167
 31
0.0
 11
114.058754
 21
526.631376
 31
0.0
 11
110.671840
 21
523.336500
 31
0.0
 11
108.777110
 21
521.795319
 31
0.0
 11
106.294984
 21
520.114378
 31
0.0
 11
103.666380
 21
518.516130
 31
0.0
 11
101.315955
 21
517.192750
 31
0.0
 11
99.627326
 21
516.288443
 31
0.0
 11
98.980094
 21
515.953590
 31
0.0
 11
98.471229
 21
515.586026
 31
0.0
 11
98.125776
 21
515.072952
 31
0.0
 11
97.976615
 21
514.463199
 31
0.0
 11
98.048806
 21
513.839632
 31
0.0
 11
98.327787
 21
513.287588
 31
0.0
 11
98.787004
 21
512.859608
 31
0.0
 11
99.366390
 21
512.618032
 31
0.0
 11
99.984368
 21
512.591835
 31
0.0
 11
100.582120
 21
512.783510
 31
0.0
 11
101.255043
 21
513.131091
 31
0.0
 11
103.009640
 21
514.069623
 31
0.0
 11
105.449650
 21
515.442790
 31
0.0
 11
108.182321
 21
517.088569
 31
0.0
 11
110.855266
 21
518.893578
 31
0.0
 11
113.132770
 21
520.774410
 31
0.0
 11
116.551231
 21
524.099819
 31
0.0
 11
119.928356
 21
527.463997
 31
0.0
 11
123.261150
 21
530.859640
 31
0.0
 11
126.546977
 21
534.279812
 31
0.0
 11
129.780357
 21
537.722264
 31
0.0
 11
132.951810
 21
541.184350
 31
0.0
 11
134.722522
 21
543.478555
 31
0.0
 11
136.382281
 21
546.146282
 31
0.0
 11
137.871960
 21
548.861060
 31
0.0
 11
139.102790
 21
551.279276
 31
0.0
 11
139.937750
 21
553.015564
 31
0.0
 11
140.245300
 21
553.680800
 31
0.0
 11
140.392271
 21
554.162556
 31
0.0
 11
140.398737
 21
554.661329
 31
0.0
 11
140.264302
 21
555.146733
 31
0.0
 11
139.999037
 21
555.574896
 31
0.0
 11
139.628328
 21
555.908649
 31
0.0
 11
139.174760
 21
556.127660
 31
0.0
  0
LINE
  5
1d6
100
AcDbEntity
  8
0
 62
7
100
AcDbLine
 10
293.892130
 20
688.184630
 30
0.0
 11
293.892130
 21
688.184630
 31
0.0
  0
LINE
  5
1d7
100
AcDbEntity
  8
0
 62
5
100
AcDbLine
 10
405.981960
 20
77.890870
 30
0.0
 11
405.981960
 21
84.203718
 31
0.0
  0
LINE
  5
1d8
100
AcDbEntity
  8
0
 62
5
100
AcDbLine
 10
405.981960
 20
84.203718
 30
0.0
 11
433.514192
 21
84.203718
 31
0.0
  0
LINE
  5
1d9
100
AcDbEntity
  8
0
 62
5
100
AcDbLine
 10
433.514192
 20
84.203718
 30
0.0
 11
433.514192
 21
77.890870
 31
0.0
  0
LINE
  5
1da
100
AcDbEntity
  8
0
 62
5
100
AcDbLine
 10
433.514192
 20
77.890870
 30
0.0
 11
405.981960
 21
77.890870
 31
0.0
  0
LINE
  5
1db
100
AcDbEntity
  8
0
 62
5
100
AcDbLine
 10
312.041081
 20
97.130331
 30
0.0
 11
313.991858
 21
103.134206
 31
0.0
  0
LINE
  5
1dc
100
AcDbEntity
  8
0
 62
5
100
AcDbLine
 10
313.991858
 20
103.134206
 30
0.0
 11
340.176567
 21
94.626278
 31
0.0
  0
LINE
  5
1dd
100
AcDbEntity
  8
0
 62
5
100
AcDbLine
 10
340.176567
 20
94.626278
 30
0.0
 11
338.225790
 21
88.622403
 31
0.0
  0
LINE
  5
1de
100
AcDbEntity
  8
0
 62
5
100
AcDbLine
 10
338.225790
 20
88.622403
 30
0.0
 11
312.041081
 21
97.130331
 31
0.0
  0
LINE
  5
1df
100
AcDbEntity
  8
0
 62
5
100
AcDbLine
 10
228.643327
 20
144.457465
 30
0.0
 11
232.353926
 21
149.564665
 31
0.0
  0
LINE
  5
1e0
100
AcDbEntity
  8
0
 62
5
100
AcDbLine
 10
232.353926
 20
149.564665
 30
0.0
 11
254.627970
 21
133.381626
 31
0.0
  0
LINE
  5
1e1
100
AcDbEntity
  8
0
 62
5
100
AcDbLine
 10
254.627970
 20
133.381626
 30
0.0
 11
250.917371
 21
128.274425
 31
0.0
  0
LINE
  5
1e2
100
AcDbEntity
  8
0
 62
5
100
AcDbLine
 10
250.917371
 20
128.274425
 30
0.0
 11
228.643327
 21
144.457465
 31
0.0
  0
LINE
  5
1e3
100
AcDbEntity
  8
0
 62
5
100
AcDbLine
 10
163.952171
 20
215.239642
 30
0.0
 11
169.059372
 21
218.950240
 31
0.0
  0
LINE
  5
1e4
100
AcDbEntity
  8
0
 62
5
100
AcDbLine
 10
169.059372
 20
218.950240
 30
0.0
 11
185.242412
 21
196.676197
 31
0.0
  0
LINE
  5
1e5
100
AcDbEntity
  8
0
 62
5
100
AcDbLine
 10
185.242412
 20
196.676197
 30
0.0
 11
180.135211
 21
192.965598
 31
0.0
  0
LINE
  5
1e6
100
AcDbEntity
  8
0
 62
5
100
AcDbLine
 10
180.135211
 20
192.965598
 30
0.0
 11
163.952171
 21
215.239642
 31
0.0
  0
LINE
  5
1e7
100
AcDbEntity
  8
0
 62
5
100
AcDbLine
 10
124.300150
 20
302.548056
 30
0.0
 11
130.304025
 21
304.498833
 31
0.0
  0
LINE
  5
1e8
100
AcDbEntity
  8
0
 62
5
100
AcDbLine
 10
130.304025
 20
304.498833
 30
0.0
 11
138.811953
 21
278.314124
 31
0.0
  0
LINE
  5
1e9
100
AcDbEntity
  8
0
 62
5
100
AcDbLine
 10
138.811953
 20
278.314124
 30
0.0
 11
132.808078
 21
276.363347
 31
0.0
  0
LINE
  5
1ea
100
AcDbEntity
  8
0
 62
5
100
AcDbLine
 10
132.808078
 20
276.363347
 30
0.0
 11
124.300150
 21
302.548056
 31
0.0
  0
LINE
  5
1eb
100
AcDbEntity
  8
0
 62
5
100
AcDbLine
 10
113.568640
 20
397.836460
 30
0.0
 11
119.881488
 21
397.836460
 31
0.0
  0
LINE
  5
1ec
100
AcDbEntity
  8
0
 62
5
100
AcDbLine
 10
119.881488
 20
397.836460
 30
0.0
 11
119.881488
 21
370.304228
 31
0.0
  0
LINE
  5
1ed
100
AcDbEntity
  8
0
 62
5
100
AcDbLine
 10
119.881488
 20
370.304228
 30
0.0
 11
113.568640
 21
370.304228
 31
0.0
  0
LINE
  5
1ee
100
AcDbEntity
  8
0
 62
5
100
AcDbLine
 10
113.568640
 20
370.304228
 30
0.0
 11
113.568640
 21
397.836460
 31
0.0
  0
LINE
  5
1ef
100
AcDbEntity
  8
0
 62
5
100
AcDbLine
 10
132.808065
 20
491.777338
 30
0.0
 11
138.811940
 21
489.826561
 31
0.0
  0
LINE
  5
1f0
100
AcDbEntity
  8
0
 62
5
100
AcDbLine
 10
138.811940
 20
489.826561
 30
0.0
 11
130.304012
 21
463.641852
 31
0.0
  0
LINE
  5
1f1
100
AcDbEntity
  8
0
 62
5
100
AcDbLine
 10
130.304012
 20
463.641852
 30
0.0
 11
124.300137
 21
465.592629
 31
0.0
  0
LINE
  5
1f2
100
AcDbEntity
  8
0
 62
5
100
AcDbLine
 10
124.300137
 20
465.592629
 30
0.0
 11
132.808065
 21
491.777338
 31
0.0
  0
LINE
  5
1f3
100
AcDbEntity
  8
0
 62
5
100
AcDbLine
 10
180.135228
 20
575.175133
 30
0.0
 11
185.242429
 21
571.464534
 31
0.0
  0
LINE
  5
1f4
100
AcDbEntity
  8
0
 62
5
100
AcDbLine
 10
185.242429
 20
571.464534
 30
0.0
 11
169.059389
 21
549.190490
 31
0.0
  0
LINE
  5
1f5
100
AcDbEntity
  8
0
 62
5
100
AcDbLine
 10
169.059389
 20
549.190490
 30
0.0
 11
163.952188
 21
552.901089
 31
0.0
  0
LINE
  5
1f6
100
AcDbEntity
  8
0
 62
5
100
AcDbLine
 10
163.952188
 20
552.901089
 30
0.0
 11
180.135228
 21
575.175133
 31
0.0
  0
LINE
  5
1f7
100
AcDbEntity
  8
0
 62
5
100
AcDbLine
 10
250.917324
 20
639.866277
 30
0.0
 11
254.627922
 21
634.759076
 31
0.0
  0
LINE
  5
1f8
100
AcDbEntity
  8
0
 62
5
100
AcDbLine
 10
254.627922
 20
634.759076
 30
0.0
 11
232.353879
 21
618.576036
 31
0.0
  0
LINE
  5
1f9
100
AcDbEntity
  8
0
 62
5
100
AcDbLine
 10
232.353879
 20
618.576036
 30
0.0
 11
228.643280
 21
623.683237
 31
0.0
  0
LINE
  5
1fa
100
AcDbEntity
  8
0
 62
5
100
AcDbLine
 10
228.643280
 20
623.683237
 30
0.0
 11
250.917324
 21
639.866277
 31
0.0
  0
LINE
  5
1fb
100
AcDbEntity
  8
0
 62
5
100
AcDbLine
 10
338.225795
 20
679.518302
 30
0.0
 11
340.176572
 21
673.514428
 31
0.0
  0
LINE
  5
1fc
100
AcDbEntity
  8
0
 62
5
100
AcDbLine
 10
340.176572
 20
673.514428
 30
0.0
 11
313.991863
 21
665.006500
 31
0.0
  0
LINE
  5
1fd
100
AcDbEntity
  8
0
 62
5
100
AcDbLine
 10
313.991863
 20
665.006500
 30
0.0
 11
312.041086
 21
671.010375
 31
0.0
  0
LINE
  5
1fe
100
AcDbEntity
  8
0
 62
5
100
AcDbLine
 10
312.041086
 20
671.010375
 30
0.0
 11
338.225795
 21
679.518302
 31
0.0
  0
SPLINE
  5
1ff
100
AcDbEntity
  8
0
 62
7
100
AcDbSpline
 70
0
 71
3
 72
61
 73
57
 74
55
 40
0.000000
 40
0.000000
 40
0.000000
 40
0.000000
 40
0.869304
 40
1.715603
 40
2.584906
 40
3.287564
 40
5.135757
 40
7.740930
 40
10.715915
 40
13.618306
 40
15.987366
 40
20.635797
 40
25.316920
 40
30.022296
 40
34.740978
 40
39.465964
 40
44.191149
 40
46.633535
 40
49.631281
 40
52.707631
 40
55.405010
 40
57.320534
 40
58.049255
 40
58.676964
 40
59.295475
 40
59.923184
 40
60.550893
 40
61.169404
 40
61.797113
 40
62.424822
 40
63.043333
 40
63.671042
 40
64.428429
 40
66.418266
 40
69.218142
 40
72.408134
 40
75.633450
 40
78.587191
 40
83.356276
 40
88.123103
 40
92.881031
 40
97.623835
 40
102.346677
 40
107.041800
 40
109.939866
 40
113.081770
 40
116.178406
 40
118.891841
 40
120.818464
 40
121.551355
 40
122.055029
 40
122.553841
 40
123.057515
 40
123.561188
 40
124.060001
 40
124.563675
 40
124.563675
 40
124.563675
 40
124.563675
 10
293.892130
 20
688.184630
 30
0.0
 10
293.684817
 20
688.394368
 30
0.0
 10
293.275677
 20
688.808292
 30
0.0
 10
292.372921
 20
688.984740
 30
0.0
 10
291.593740
 20
688.709063
 30
0.0
 10
290.621825
 20
688.116367
 30
0.0
 10
289.093001
 20
687.326078
 30
0.0
 10
286.896265
 20
686.184893
 30
0.0
 10
284.330332
 20
684.995538
 30
0.0
 10
281.794215
 20
683.927770
 30
0.0
 10
278.620377
 20
682.978261
 30
0.0
 10
274.771607
 20
682.319294
 30
0.0
 10
270.184438
 20
681.406561
 30
0.0
 10
265.553280
 20
680.592254
 30
0.0
 10
260.903991
 20
679.797204
 30
0.0
 10
256.233164
 20
679.104945
 30
0.0
 10
252.323497
 20
678.420736
 30
0.0
 10
248.934639
 20
678.228242
 30
0.0
 10
246.096116
 20
678.359942
 30
0.0
 10
243.181159
 20
678.595192
 30
0.0
 10
240.637722
 20
678.905624
 30
0.0
 10
238.868279
 20
679.125634
 30
0.0
 10
237.797485
 20
679.319140
 30
0.0
 10
237.130033
 20
679.354450
 30
0.0
 10
236.529964
 20
679.127475
 30
0.0
 10
236.043430
 20
678.717534
 30
0.0
 10
235.730218
 20
678.161067
 30
0.0
 10
235.628459
 20
677.532082
 30
0.0
 10
235.750239
 20
676.905288
 30
0.0
 10
236.082662
 20
676.362660
 30
0.0
 10
236.580674
 20
675.958757
 30
0.0
 10
237.234074
 20
675.776404
 30
0.0
 10
238.348866
 20
675.640722
 30
0.0
 10
240.179009
 20
675.366106
 30
0.0
 10
242.822232
 20
675.068410
 30
0.0
 10
245.881610
 20
674.795287
 30
0.0
 10
249.005331
 20
674.647025
 30
0.0
 10
252.653341
 20
674.894416
 30
0.0
 10
256.761440
 20
675.585194
 30
0.0
 10
261.472806
 20
676.292010
 30
0.0
 10
266.161439
 20
677.090517
 30
0.0
 10
270.830667
 20
677.915193
 30
0.0
 10
275.461231
 20
678.828140
 30
0.0
 10
279.505102
 20
679.551009
 30
0.0
 10
282.952411
 20
680.537978
 30
0.0
 10
285.762395
 20
681.724181
 30
0.0
 10
288.457556
 20
683.004331
 30
0.0
 10
290.758774
 20
684.169102
 30
0.0
 10
292.327428
 20
685.035397
 30
0.0
 10
293.260492
 20
685.524007
 30
0.0
 10
293.739965
 20
685.857693
 30
0.0
 10
294.041537
 20
686.269754
 30
0.0
 10
294.221099
 20
686.745482
 30
0.0
 10
294.256591
 20
687.252011
 30
0.0
 10
294.157382
 20
687.754340
 30
0.0
 10
293.980833
 20
688.040737
 30
0.0
 10
293.892130
 20
688.184630
 30
0.0
 11
293.892130
 21
688.184630
 31
0.0
 11
293.221404
 21
688.737635
 31
0.0
 11
292.392241
 21
688.907081
 31
0.0
 11
291.558330
 21
688.661560
 31
0.0
 11
290.944966
 21
688.318758
 31
0.0
 11
289.318060
 21
687.441836
 31
0.0
 11
286.997390
 21
686.258020
 31
0.0
 11
284.300775
 21
685.001517
 31
0.0
 11
281.610369
 21
683.912670
 31
0.0
 11
279.342420
 21
683.227940
 31
0.0
 11
274.787352
 21
682.300976
 31
0.0
 11
270.188884
 21
681.425184
 31
0.0
 11
265.557030
 21
680.596640
 31
0.0
 11
260.903561
 21
679.814849
 31
0.0
 11
256.235369
 21
679.084461
 31
0.0
 11
251.558620
 21
678.409630
 31
0.0
 11
249.119866
 21
678.276480
 31
0.0
 11
246.123757
 21
678.375527
 31
0.0
 11
243.057750
 21
678.627570
 31
0.0
 11
240.378348
 21
678.938476
 31
0.0
 11
238.480682
 21
679.199428
 31
0.0
 11
237.760240
 21
679.308960
 31
0.0
 11
237.132533
 21
679.310666
 31
0.0
 11
236.551507
 21
679.098617
 31
0.0
 11
236.072458
 21
678.692993
 31
0.0
 11
235.764357
 21
678.146100
 31
0.0
 11
235.665577
 21
677.535528
 31
0.0
 11
235.785519
 21
676.919385
 31
0.0
 11
236.112232
 21
676.383402
 31
0.0
 11
236.596756
 21
675.998965
 31
0.0
 11
237.192980
 21
675.802660
 31
0.0
 11
237.941688
 21
675.688327
 31
0.0
 11
239.912842
 21
675.416293
 31
0.0
 11
242.693990
 21
675.093000
 31
0.0
 11
245.872128
 21
674.818246
 31
0.0
 11
249.095539
 21
674.707411
 31
0.0
 11
252.043610
 21
674.890350
 31
0.0
 11
256.763824
 21
675.571344
 31
0.0
 11
261.473386
 21
676.307999
 31
0.0
 11
266.165580
 21
677.096160
 31
0.0
 11
270.834192
 21
677.931775
 31
0.0
 11
275.473475
 21
678.816245
 31
0.0
 11
280.074200
 21
679.753000
 31
0.0
 11
282.855235
 21
680.568249
 31
0.0
 11
285.766059
 21
681.750901
 31
0.0
 11
288.566940
 21
683.071590
 31
0.0
 11
290.984097
 21
684.304507
 31
0.0
 11
292.680160
 21
685.218423
 31
0.0
 11
293.319990
 21
685.575840
 31
0.0
 11
293.722058
 21
685.879201
 31
0.0
 11
294.020458
 21
686.278916
 31
0.0
 11
294.197010
 21
686.750632
 31
0.0
 11
294.234074
 21
687.252940
 31
0.0
 11
294.130341
 21
687.740848
 31
0.0
 11
293.892130
 21
688.184630
 31
0.0
  0
LINE
  5
200
100
AcDbEntity
  8
0
 62
7
100
AcDbLine
 10
418.372560
 20
705.755858
 30
0.0
 11
418.372560
 21
690.250485
 31
0.0
  0
LINE
  5
201
100
AcDbEntity
  8
0
 62
7
100
AcDbLine
 10
418.372560
 20
690.250485
 30
0.0
 11
405.981442
 21
690.250485
 31
0.0
  0
LINE
  5
202
100
AcDbEntity
  8
0
 62
7
100
AcDbLine
 10
405.981442
 20
690.250485
 30
0.0
 11
405.981442
 21
683.937015
 31
0.0
  0
LINE
  5
203
100
AcDbEntity
  8
0
 62
7
100
AcDbLine
 10
405.981442
 20
683.937015
 30
0.0
 11
418.372560
 21
683.937015
 31
0.0
  0
LINE
  5
204
100
AcDbEntity
  8
0
 62
7
100
AcDbLine
 10
418.372560
 20
683.937015
 30
0.0
 11
418.372560
 21
655.763670
 31
0.0
  0
LINE
  5
205
100
AcDbEntity
  8
0
 62
7
100
AcDbLine
 10
418.372560
 20
655.763670
 30
0.0
 11
421.372560
 21
655.763670
 31
0.0
  0
LINE
  5
206
100
AcDbEntity
  8
0
 62
7
100
AcDbLine
 10
421.372560
 20
655.763670
 30
0.0
 11
421.372560
 21
683.937015
 31
0.0
  0
LINE
  5
207
100
AcDbEntity
  8
0
 62
7
100
AcDbLine
 10
421.372560
 20
683.937015
 30
0.0
 11
433.514647
 21
683.937015
 31
0.0
  0
LINE
  5
208
100
AcDbEntity
  8
0
 62
7
100
AcDbLine
 10
433.514647
 20
683.937015
 30
0.0
 11
433.514647
 21
690.250485
 31
0.0
  0
LINE
  5
209
100
AcDbEntity
  8
0
 62
7
100
AcDbLine
 10
433.514647
 20
690.250485
 30
0.0
 11
421.372560
 21
690.250485
 31
0.0
  0
LINE
  5
20a
100
AcDbEntity
  8
0
 62
7
100
AcDbLine
 10
421.372560
 20
690.250485
 30
0.0
 11
421.372560
 21
705.755858
 31
0.0
  0
LINE
  5
20b
100
AcDbEntity
  8
0
 62
7
100
AcDbLine
 10
421.372560
 20
705.755858
 30
0.0
 11
418.372560
 21
705.755858
 31
0.0
  0
LINE
  5
20c
100
AcDbEntity
  8
0
 62
7
100
AcDbLine
 10
418.372560
 20
705.755858
 30
0.0
 11
418.372560
 21
705.755858
 31
0.0
  0
SPLINE
  5
20d
100
AcDbEntity
  8
0
 62
1
100
AcDbSpline
 70
0
 71
3
 72
16
 73
12
 74
10
 40
0.000000
 40
0.000000
 40
0.000000
 40
0.000000
 40
89.771108
 40
178.089940
 40
267.861048
 40
357.632152
 40
445.950980
 40
535.722084
 40
625.493193
 40
713.812026
 40
803.583135
 40
803.583135
 40
803.583135
 40
803.583135
 10
436.636330
 20
143.767060
 30
0.0
 10
406.381827
 20
144.940189
 30
0.0
 10
346.362264
 20
147.267470
 30
0.0
 10
265.608077
 20
192.072647
 30
0.0
 10
206.064683
 20
260.876470
 30
0.0
 10
175.988730
 20
347.344454
 30
0.0
 10
179.329699
 20
438.535134
 30
0.0
 10
215.652412
 20
522.570459
 30
0.0
 10
280.070971
 20
586.832666
 30
0.0
 10
363.887329
 20
625.608443
 30
0.0
 10
423.916283
 20
623.537484
 30
0.0
 10
454.175520
 20
622.493560
 30
0.0
 11
436.636330
 21
143.767060
 31
0.0
 11
347.481078
 21
154.264343
 31
0.0
 11
269.514190
 21
195.753864
 31
0.0
 11
211.002550
 21
263.836460
 31
0.0
 11
181.471013
 21
348.611099
 31
0.0
 11
184.704596
 21
436.870712
 31
0.0
 11
220.360440
 21
519.257070
 31
0.0
 11
283.697234
 21
582.875484
 31
0.0
 11
364.491139
 21
618.548457
 31
0.0
 11
454.175520
 21
622.493560
 31
0.0
  0
ENDSEC
  0
SECTION
  2
OBJECTS
  0
DICTIONARY
  5
C
330
0
100
AcDbDictionary
  3
ACAD_GROUP
350
D
  3
ACAD_MLINESTYLE
350
17
  0
DICTIONARY
  5
D
330
C
100
AcDbDictionary
  0
DICTIONARY
  5
1A
330
C
100
AcDbDictionary
  0
DICTIONARY
  5
17
330
C
100
AcDbDictionary
  3
STANDARD
350
18
  0
DICTIONARY
  5
19
330
C
100
AcDbDictionary
  0
ENDSEC
  0
EOF
