<?xml version="1.0" encoding="UTF-8" standalone="no"?>
<!-- Created with matplotlib (http://matplotlib.org/) -->

<svg
   xmlns:dc="http://purl.org/dc/elements/1.1/"
   xmlns:cc="http://creativecommons.org/ns#"
   xmlns:rdf="http://www.w3.org/1999/02/22-rdf-syntax-ns#"
   xmlns:svg="http://www.w3.org/2000/svg"
   xmlns="http://www.w3.org/2000/svg"
   xmlns:sodipodi="http://sodipodi.sourceforge.net/DTD/sodipodi-0.dtd"
   xmlns:inkscape="http://www.inkscape.org/namespaces/inkscape"
   height="420pt"
   version="1.1"
   viewBox="0 0 262 420"
   width="262pt"
   id="svg448"
   sodipodi:docname="cone3.svg"
   inkscape:version="0.48.5 r10040">
  <metadata
     id="metadata452">
    <rdf:RDF>
      <cc:Work
         rdf:about="">
        <dc:format>image/svg+xml</dc:format>
        <dc:type
           rdf:resource="http://purl.org/dc/dcmitype/StillImage" />
        <dc:title />
      </cc:Work>
    </rdf:RDF>
  </metadata>
  <sodipodi:namedview
     pagecolor="#ffffff"
     bordercolor="#666666"
     borderopacity="1"
     objecttolerance="10"
     gridtolerance="10"
     guidetolerance="10"
     inkscape:pageopacity="0"
     inkscape:pageshadow="2"
     inkscape:window-width="1366"
     inkscape:window-height="718"
     id="namedview450"
     showgrid="false"
     inkscape:snap-intersection-paths="true"
     inkscape:zoom="1.0734554"
     inkscape:cx="-284.42883"
     inkscape:cy="198.11996"
     inkscape:window-x="1680"
     inkscape:window-y="282"
     inkscape:window-maximized="1"
     inkscape:current-layer="svg448"
     units="in"
     inkscape:object-paths="false"
     inkscape:snap-page="true"
     inkscape:snap-nodes="true"
     inkscape:object-nodes="true"
     inkscape:snap-smooth-nodes="true"
     inkscape:snap-center="true"
     inkscape:snap-global="true"
     inkscape:snap-bbox="false"
     showguides="false" />
  <defs
     id="defs4">
    <style
       type="text/css"
       id="style2">
*{stroke-linecap:butt;stroke-linejoin:round;}
  </style>
  </defs>
  <path
     style="color:#000000;font-style:normal;font-variant:normal;font-weight:normal;font-stretch:normal;font-size:medium;line-height:normal;font-family:sans-serif;font-variant-ligatures:normal;font-variant-position:normal;font-variant-caps:normal;font-variant-numeric:normal;font-variant-alternates:normal;font-feature-settings:normal;text-indent:0;text-align:start;text-decoration:none;text-decoration-line:none;text-decoration-style:solid;text-decoration-color:#000000;letter-spacing:normal;word-spacing:normal;text-transform:none;writing-mode:lr-tb;direction:ltr;text-orientation:mixed;dominant-baseline:auto;baseline-shift:baseline;text-anchor:start;white-space:normal;shape-padding:0;clip-rule:nonzero;display:inline;overflow:visible;visibility:visible;opacity:1;isolation:auto;mix-blend-mode:normal;color-interpolation:sRGB;color-interpolation-filters:linearRGB;solid-color:#000000;solid-opacity:1;vector-effect:none;fill:#00e500;fill-opacity:1;fill-rule:nonzero;stroke:#000000;stroke-width:1;stroke-linecap:round;stroke-linejoin:miter;stroke-miterlimit:4;stroke-dasharray:none;stroke-dashoffset:0;stroke-opacity:1;color-rendering:auto;image-rendering:auto;shape-rendering:auto;text-rendering:auto;enable-background:accumulate"
     d="m -315.58594,-184.52734 c -0.27316,-10e-4 -0.54238,0.0185 -0.80664,0.0605 -16.91276,2.69139 -25.5664,95.361331 -25.5664,95.361331 l 19.49414,-1.828125 0.62109,5.113282 c -6.4572,0.711332 -12.9879,1.343035 -19.65039,1.863281 -13.325,1.040456 -26.54361,1.594492 -39.76367,1.457031 -17.45198,0.03028 -4.02509,-24.20816 -31.85352,-25.61523 l -84.67383,-12.09961 c -13.15594,-1.49216 -29.86331,-3.09255 -38.28515,16.02734 -0.0294,0.1413 -0.0585,0.27 -0.0879,0.41016 -8.02105,9.765737 -16.26876,19.345657 -24.8086,28.718746 -4.55514,4.961491 -9.14205,9.870282 -13.83203,14.671875 l -3.69531,-3.599609 13.74414,-14.623047 c 0,0 -79.85822,-49.411425 -91.95898,-37.292965 -12.10075,12.11844 35.36523,92.175778 35.36523,92.175778 l 14.69727,-12.9375 3.50781,3.771484 c -4.80588,4.370925 -9.71846,8.72159 -14.80274,13.058594 -10.16858,8.673985 -20.53644,16.8914238 -31.3125,24.5507809 -14.10114,10.2825011 -17.48543,-17.2187929 -40.82617,-2 l -75.61523,39.9804691 c -11.52046,6.525693 -25.97771,15.052158 -21.55274,35.470703 0.0598,0.132742 0.11279,0.2549 0.17188,0.386719 -0.74898,12.613948 -1.79204,25.211272 -3.19141,37.812502 -0.76889,6.69137 -1.59444,13.35873 -2.5664,20 l -5.10547,-0.74024 2.52539,-19.9082 c 0,0 -93.6517,6.96418 -96.31836,23.88086 -2.66667,16.91667 82.79297,53.78516 82.79297,53.78516 l 4.28515,-19.10547 5.05469,0.98828 c -1.31887,6.36097 -2.73674,12.76845 -4.30078,19.26562 -3.12811,12.99435 -6.68443,25.73702 -10.90039,38.26758 -5.36416,16.60715 -24.26735,-3.65268 -34.20508,22.37891 l -37.67383,76.79101 c -5.48445,12.05095 -12.16941,27.44527 3.41211,41.36328 h 49.20117 c -32.79006,17.44574 -10.72144,31.87525 11.23243,31.9336 l 39.5,0.39844 c 31.59101,-0.41878 49.99755,-16.61928 19.63476,-32.33204 h 12.43164 49.20117 c -32.79006,17.44575 -10.72145,31.8752 11.23243,31.9336 l 39.5,0.39844 c 31.59101,-0.4188 49.99755,-16.61937 19.63476,-32.33204 h 39.36524 c 0.08,-46.40623 15.08721,-89.29807 40.45703,-124.16015 27.34161,-37.4964 64.69295,-63.37596 105.70898,-76.66797 44.15967,-14.26423 89.59043,-13.24579 130.58594,0.10937 44.11023,14.41639 80.26592,41.9446 105.58203,76.84571 27.21217,37.59044 40.28125,81.11055 40.24805,124.22656 23.06161,81.18847 130.437597,43.78384 145.35156,0 24.4004,65.54402 120.25092,53.30745 145.35156,0 -6.857,-10.71389 -13.46281,-21.58919 -19.77929,-32.67969 -3.311048,-5.86537 -6.562386,-11.74525 -9.679692,-17.68945 l 4.566406,-2.40039 9.658206,17.58984 c 0,0 71.67272,-60.68222 63.88672,-75.93554 -7.78599,-15.2533 -98.595707,5.15234 -98.595708,5.15234 l 7.763672,17.97461 -4.669922,2.17187 c -2.6719,-5.92134 -5.290141,-11.93764 -7.84375,-18.11328 C 61.15062,257.40647 56.536516,245.00611 52.582021,232.39058 47.160275,215.80214 74.362802,221.08281 67.101552,194.1816 L 52.443359,109.91211 C 49.797071,96.938961 46.155722,80.5544 25.369141,78.453125 c -0.144407,0.01581 -0.276604,0.02754 -0.419922,0.04297 C 13.184092,73.885839 1.5247098,69.00221 -10.027344,63.777344 -16.153616,60.978334 -22.239993,58.132902 -28.255859,55.15625 l 2.283203,-4.626953 18.1523435,8.552734 c 0,0 22.3174085,-91.220683 7.05273438,-98.984375 C -16.032239,-47.666032 -77.505859,22.21875 -77.505859,22.21875 l 16.847656,9.978516 -2.501953,4.501953 C -68.802248,33.479252 -74.458431,30.151478 -80.154297,26.65625 -91.546012,19.665758 -102.56717,12.346616 -113.18164,4.4648438 -127.31837,-5.7686704 -102.20792,-17.486932 -123.89453,-34.982422 l -61.39063,-59.558594 c -9.76632,-8.940044 -22.34077,-20.055184 -40.39257,-9.537104 -0.10674,0.0969 -0.20642,0.18328 -0.3125,0.27929 -12.22952,3.18606 -24.53273,6.088907 -36.95118,8.652346 -6.60146,1.336486 -13.19788,2.610405 -19.81445,3.738281 l -0.87305,-5.083985 19.71289,-3.750002 c 0,0 -34.46073,-84.22043 -51.66992,-84.28515 z"
     transform="scale(0.74999999)"
     id="path3011-3-6"
     inkscape:connector-curvature="0"
     sodipodi:nodetypes="cccccccccccccccscccccccccccccscccccccccccccccccccccccccccccscccccccccccccscccccccccccccc" />
  <g
     id="line2d_1"
     style="stroke-linecap:butt;stroke-linejoin:round" />
  <defs
     id="defs446">
    <clipPath
       id="p9b010a994c">
      <rect
         height="399.726154"
         width="243.708163"
         x="10.407009"
         y="7.2"
         id="rect443" />
    </clipPath>
  </defs>
  <path
     style="color:#000000;font-style:normal;font-variant:normal;font-weight:normal;font-stretch:normal;font-size:medium;line-height:normal;font-family:sans-serif;font-variant-ligatures:normal;font-variant-position:normal;font-variant-caps:normal;font-variant-numeric:normal;font-variant-alternates:normal;font-feature-settings:normal;text-indent:0;text-align:start;text-decoration:none;text-decoration-line:none;text-decoration-style:solid;text-decoration-color:#000000;letter-spacing:normal;word-spacing:normal;text-transform:none;writing-mode:lr-tb;direction:ltr;text-orientation:mixed;dominant-baseline:auto;baseline-shift:baseline;text-anchor:start;white-space:normal;shape-padding:0;clip-rule:nonzero;display:inline;overflow:visible;visibility:visible;opacity:1;isolation:auto;mix-blend-mode:normal;color-interpolation:sRGB;color-interpolation-filters:linearRGB;solid-color:#000000;solid-opacity:1;vector-effect:none;fill:none;fill-opacity:1;fill-rule:nonzero;stroke:#000000;stroke-width:0.74999999;stroke-linecap:round;stroke-linejoin:miter;stroke-miterlimit:4;stroke-dasharray:none;stroke-dashoffset:0;stroke-opacity:1;color-rendering:auto;image-rendering:auto;shape-rendering:auto;text-rendering:auto;enable-background:accumulate"
     d="m -623.60742,198.91602 a 1.8751875,1.8751875 0 0 0 -1.85547,1.69726 c 0,0 -0.26565,2.41673 -0.77734,5.38672 -0.5117,2.96999 -1.31691,6.52932 -2.16211,8.41797 -1.99627,4.46078 -4.11285,8.93871 -6.30664,13.40625 -2.19328,4.46648 -4.46645,8.91574 -6.81836,13.3125 -1.00409,1.87709 -3.37962,4.80285 -5.46094,7.125 -2.08133,2.32215 -3.86914,4.10156 -3.86914,4.10156 a 1.8751875,1.8751875 0 1 0 2.64258,2.66016 c 0,0 1.86015,-1.84859 4.01953,-4.25782 2.15937,-2.40922 4.61566,-5.31888 5.97461,-7.85937 2.37418,-4.4384 4.66806,-8.92743 6.8789,-13.42969 2.21033,-4.50122 4.34376,-9.01896 6.36133,-13.52734 1.16172,-2.59593 1.90287,-6.22071 2.43555,-9.3125 0.53268,-3.09179 0.81054,-5.61328 0.81054,-5.61328 a 1.8751875,1.8751875 0 0 0 -1.87304,-2.10742 z"
     id="path840" />
  <path
     style="fill:none;fill-opacity:1;stroke:#ff0000;stroke-width:0.75000000000000000;stroke-linecap:round;stroke-linejoin:round;stroke-miterlimit:4;stroke-dasharray:none;stroke-opacity:1"
     id="path897"
     sodipodi:type="arc"
     sodipodi:cx="-285.36249"
     sodipodi:cy="280.27499"
     sodipodi:rx="267.58313"
     sodipodi:ry="267.58313"
     sodipodi:start="2.9956617"
     sodipodi:end="0.21240281"
     sodipodi:open="true"
     d="M -550.10147,319.18521 A 267.58313,267.58313 0 0 1 -425.24419,52.165723 267.58313,267.58313 0 0 1 -130.63802,61.960839 267.58313,267.58313 0 0 1 -23.792699,336.68401" />
  <path
     style="color:#000000;font-style:normal;font-variant:normal;font-weight:normal;font-stretch:normal;font-size:medium;line-height:normal;font-family:sans-serif;font-variant-ligatures:normal;font-variant-position:normal;font-variant-caps:normal;font-variant-numeric:normal;font-variant-alternates:normal;font-feature-settings:normal;text-indent:0;text-align:start;text-decoration:none;text-decoration-line:none;text-decoration-style:solid;text-decoration-color:#000000;letter-spacing:normal;word-spacing:normal;text-transform:none;writing-mode:lr-tb;direction:ltr;text-orientation:mixed;dominant-baseline:auto;baseline-shift:baseline;text-anchor:start;white-space:normal;shape-padding:0;clip-rule:nonzero;display:inline;overflow:visible;visibility:visible;opacity:1;isolation:auto;mix-blend-mode:normal;color-interpolation:sRGB;color-interpolation-filters:linearRGB;solid-color:#000000;solid-opacity:1;vector-effect:none;fill:none;fill-opacity:1;fill-rule:nonzero;stroke:#000000;stroke-width:0.74999999;stroke-linecap:butt;stroke-linejoin:miter;stroke-miterlimit:4;stroke-dasharray:none;stroke-dashoffset:0;stroke-opacity:1;color-rendering:auto;image-rendering:auto;shape-rendering:auto;text-rendering:auto;enable-background:accumulate"
     d="m 2.0507812,279.05078 v 3 H 54.824219 v -3 z"
     id="path914"
     inkscape:connector-curvature="0" />
  <path
     style="fill:none;fill-opacity:1;stroke:#000000;stroke-width:1.0170114;stroke-linecap:round;stroke-linejoin:round;stroke-miterlimit:4;stroke-dasharray:none;stroke-opacity:1"
     d="m -380.48242,117.12891 c -13.37008,0.10503 -26.7115,1.25502 -39.90235,3.43945 l 1.19727,7.59375 c 12.79506,-2.11878 25.73617,-3.23416 38.70508,-3.33594 13.09464,0.0468 26.16517,1.12695 39.08984,3.23047 l 1.20899,-7.59766 c -13.32442,-2.16847 -26.7992,-3.28195 -40.29883,-3.33007 z m 116.64062,28.0625 -3.5,6.85547 c 23.22964,11.91336 44.44017,27.4075 62.85352,45.91406 l 5.44336,-5.43555 c -18.98267,-19.07884 -40.849,-35.05215 -64.79688,-47.33398 z m -232.83398,0.0547 c -23.99092,12.1685 -45.91895,28.03419 -64.98047,47.01563 l 5.43359,5.44336 c 18.48971,-18.41213 39.75996,-33.80195 63.03125,-45.60547 z m -112.31641,111.8125 c -12.19733,23.9925 -20.54353,49.75481 -24.73242,76.3418 l 7.5957,1.20899 c 4.06323,-25.78911 12.15898,-50.77829 23.99024,-74.05079 z m 456.96289,0.44727 -6.85547,3.48633 c 11.80814,23.26036 19.88593,48.23256 23.9375,74.00195 l 7.59571,-1.19726 c -4.17681,-26.5665 -12.5044,-52.31115 -24.67774,-76.29102 z"
     transform="scale(0.74999999)"
     id="path943"
     inkscape:connector-curvature="0"
     sodipodi:nodetypes="ccccccccccccccccccccccccccc" />
  <path
     style="color:#000000;font-style:normal;font-variant:normal;font-weight:normal;font-stretch:normal;font-size:medium;line-height:normal;font-family:sans-serif;font-variant-ligatures:normal;font-variant-position:normal;font-variant-caps:normal;font-variant-numeric:normal;font-variant-alternates:normal;font-feature-settings:normal;text-indent:0;text-align:start;text-decoration:none;text-decoration-line:none;text-decoration-style:solid;text-decoration-color:#000000;letter-spacing:normal;word-spacing:normal;text-transform:none;writing-mode:lr-tb;direction:ltr;text-orientation:mixed;dominant-baseline:auto;baseline-shift:baseline;text-anchor:start;white-space:normal;shape-padding:0;clip-rule:nonzero;display:inline;overflow:visible;visibility:visible;opacity:1;isolation:auto;mix-blend-mode:normal;color-interpolation:sRGB;color-interpolation-filters:linearRGB;solid-color:#000000;solid-opacity:1;vector-effect:none;fill:none;fill-opacity:1;fill-rule:nonzero;stroke:#000000;stroke-width:0.74999999;stroke-linecap:butt;stroke-linejoin:miter;stroke-miterlimit:4;stroke-dasharray:none;stroke-dashoffset:0;stroke-opacity:1;color-rendering:auto;image-rendering:auto;shape-rendering:auto;text-rendering:auto;enable-background:accumulate"
     d="m -96.9375,278.77344 v 3 h 52.775391 v -3 z"
     id="path1036"
     inkscape:connector-curvature="0" />
  <path
     style="fill:none;fill-opacity:1;stroke:#000000;stroke-width:0.8503502;stroke-linecap:round;stroke-linejoin:round;stroke-miterlimit:4;stroke-dasharray:none;stroke-opacity:1"
     d="m -315.07397,145.18284 a 29.061501,29.061501 0 0 0 -29.06104,29.0625 29.061501,29.061501 0 0 0 3.15528,13.16748 96.014316,96.014316 0 0 0 -36.03516,49.45752 29.061497,29.061497 0 0 0 -4.40332,-0.37207 29.061497,29.061497 0 0 0 -29.06103,29.0625 29.061497,29.061497 0 0 0 29.06103,29.06104 29.061497,29.061497 0 0 0 4.49853,-0.37061 96.014316,96.014316 0 0 0 35.94141,49.51904 29.061498,29.061498 0 0 0 -3.15674,13.10449 29.061498,29.061498 0 0 0 29.06104,29.0625 29.061498,29.061498 0 0 0 28.65235,-24.41455 96.014316,96.014316 0 0 0 1.01806,0.0513 96.014316,96.014316 0 0 0 57.17432,-19.00928 29.061501,29.061501 0 0 0 20.50195,8.49317 29.061501,29.061501 0 0 0 29.0625,-29.0625 29.061501,29.061501 0 0 0 -15.82471,-25.83838 96.014316,96.014316 0 0 0 5.10059,-30.59619 96.014316,96.014316 0 0 0 -5.11817,-30.5581 29.061501,29.061501 0 0 0 15.84229,-25.87794 29.061501,29.061501 0 0 0 -29.0625,-29.0625 29.061501,29.061501 0 0 0 -20.51074,8.49756 96.014316,96.014316 0 0 0 -57.16553,-19.01367 96.014316,96.014316 0 0 0 -0.99756,0.0352 29.061501,29.061501 0 0 0 -28.67285,-24.39851 z"
     id="path1059"
     inkscape:connector-curvature="0" />
  <path
     inkscape:connector-curvature="0"
     style="color:#000000;font-style:normal;font-variant:normal;font-weight:normal;font-stretch:normal;font-size:medium;line-height:normal;font-family:sans-serif;font-variant-ligatures:normal;font-variant-position:normal;font-variant-caps:normal;font-variant-numeric:normal;font-variant-alternates:normal;font-feature-settings:normal;text-indent:0;text-align:start;text-decoration:none;text-decoration-line:none;text-decoration-style:solid;text-decoration-color:#000000;letter-spacing:normal;word-spacing:normal;text-transform:none;writing-mode:lr-tb;direction:ltr;text-orientation:mixed;dominant-baseline:auto;baseline-shift:baseline;text-anchor:start;white-space:normal;shape-padding:0;clip-rule:nonzero;display:inline;overflow:visible;visibility:visible;opacity:1;isolation:auto;mix-blend-mode:normal;color-interpolation:sRGB;color-interpolation-filters:linearRGB;solid-color:#000000;solid-opacity:1;vector-effect:none;fill:none;fill-opacity:1;fill-rule:nonzero;stroke:#000000;stroke-width:0.75;stroke-linecap:round;stroke-linejoin:miter;stroke-miterlimit:4;stroke-dasharray:none;stroke-dashoffset:0;stroke-opacity:1;color-rendering:auto;image-rendering:auto;shape-rendering:auto;text-rendering:auto;enable-background:accumulate"
     d="m -511.3503,15.858291 a 1.8751875,1.8751875 0 0 0 -2.49873,0.282494 c 0,0 -1.63543,1.799031 -3.79511,3.901039 -2.15969,2.102003 -4.90324,4.508271 -6.69715,5.539425 -4.23699,2.435468 -8.5814,4.814095 -12.9822,7.13891 -4.39967,2.324328 -8.85394,4.587701 -13.34102,6.762343 -1.91566,0.928402 -5.55719,1.899108 -8.60601,2.554351 -3.04873,0.655301 -5.541,1.044031 -5.541,1.044031 a 1.8751875,1.8751875 0 1 0 0.5743,3.705396 c 0,0 2.59143,-0.402201 5.75453,-1.082046 3.1631,-0.679836 6.86054,-1.590023 9.45318,-2.846582 4.52959,-2.195221 9.02398,-4.478602 13.45893,-6.821519 4.43395,-2.342364 8.81539,-4.743294 13.0976,-7.204752 2.4657,-1.41731 5.19589,-3.914182 7.44415,-6.102391 2.24826,-2.188209 3.95514,-4.064815 3.95514,-4.064815 a 1.8751875,1.8751875 0 0 0 -0.27661,-2.805884 z"
     id="path840-6" />
  <path
     inkscape:connector-curvature="0"
     style="color:#000000;font-style:normal;font-variant:normal;font-weight:normal;font-stretch:normal;font-size:medium;line-height:normal;font-family:sans-serif;font-variant-ligatures:normal;font-variant-position:normal;font-variant-caps:normal;font-variant-numeric:normal;font-variant-alternates:normal;font-feature-settings:normal;text-indent:0;text-align:start;text-decoration:none;text-decoration-line:none;text-decoration-style:solid;text-decoration-color:#000000;letter-spacing:normal;word-spacing:normal;text-transform:none;writing-mode:lr-tb;direction:ltr;text-orientation:mixed;dominant-baseline:auto;baseline-shift:baseline;text-anchor:start;white-space:normal;shape-padding:0;clip-rule:nonzero;display:inline;overflow:visible;visibility:visible;opacity:1;isolation:auto;mix-blend-mode:normal;color-interpolation:sRGB;color-interpolation-filters:linearRGB;solid-color:#000000;solid-opacity:1;vector-effect:none;fill:none;fill-opacity:1;fill-rule:nonzero;stroke:#000000;stroke-width:0.75;stroke-linecap:round;stroke-linejoin:miter;stroke-miterlimit:4;stroke-dasharray:none;stroke-dashoffset:0;stroke-opacity:1;color-rendering:auto;image-rendering:auto;shape-rendering:auto;text-rendering:auto;enable-background:accumulate"
     d="m -312.93371,-66.255434 a 1.8751875,1.8751875 0 0 0 -2.18756,-1.240175 c 0,0 -2.38054,0.494162 -5.36329,0.925294 -2.98275,0.431121 -6.6167,0.765214 -8.6741,0.545006 -4.85933,-0.520108 -9.77215,-1.149339 -14.69897,-1.85525 -4.92561,-0.705639 -9.85956,-1.492684 -14.76791,-2.3708 -2.0955,-0.374903 -5.61213,-1.730029 -8.46382,-2.991974 -2.85165,-1.26185 -5.09643,-2.412281 -5.09643,-2.412281 a 1.8751875,1.8751875 0 1 0 -1.71336,3.335297 c 0,0 2.33292,1.197814 5.29153,2.507033 2.95859,1.309221 6.48488,2.746167 9.32095,3.253503 4.95484,0.886458 9.93302,1.6809 14.8981,2.39224 4.96395,0.711195 9.91984,1.344149 14.83103,1.869806 2.82786,0.302675 6.50426,-0.112568 9.60934,-0.561374 3.10507,-0.448807 5.58901,-0.96373 5.58901,-0.96373 a 1.8751875,1.8751875 0 0 0 1.42548,-2.432595 z"
     id="path840-6-3" />
  <path
     inkscape:connector-curvature="0"
     style="color:#000000;font-style:normal;font-variant:normal;font-weight:normal;font-stretch:normal;font-size:medium;line-height:normal;font-family:sans-serif;font-variant-ligatures:normal;font-variant-position:normal;font-variant-caps:normal;font-variant-numeric:normal;font-variant-alternates:normal;font-feature-settings:normal;text-indent:0;text-align:start;text-decoration:none;text-decoration-line:none;text-decoration-style:solid;text-decoration-color:#000000;letter-spacing:normal;word-spacing:normal;text-transform:none;writing-mode:lr-tb;direction:ltr;text-orientation:mixed;dominant-baseline:auto;baseline-shift:baseline;text-anchor:start;white-space:normal;shape-padding:0;clip-rule:nonzero;display:inline;overflow:visible;visibility:visible;opacity:1;isolation:auto;mix-blend-mode:normal;color-interpolation:sRGB;color-interpolation-filters:linearRGB;solid-color:#000000;solid-opacity:1;vector-effect:none;fill:none;fill-opacity:1;fill-rule:nonzero;stroke:#000000;stroke-width:0.75;stroke-linecap:round;stroke-linejoin:miter;stroke-miterlimit:4;stroke-dasharray:none;stroke-dashoffset:0;stroke-opacity:1;color-rendering:auto;image-rendering:auto;shape-rendering:auto;text-rendering:auto;enable-background:accumulate"
     d="m -104.14609,-16.060497 a 1.8751875,1.8751875 0 0 0 -1.04082,-2.289139 c 0,0 -2.21635,-0.999459 -4.88286,-2.403882 -2.66651,-1.404433 -5.80281,-3.270127 -7.33784,-4.657585 -3.62557,-3.277022 -7.23028,-6.673766 -10.80123,-10.140768 -3.57014,-3.466075 -7.09918,-7.002914 -10.55397,-10.598377 -1.47493,-1.535009 -3.52343,-4.698353 -5.08873,-7.395466 -1.56534,-2.697018 -2.7052,-4.947185 -2.7052,-4.947185 a 1.8751875,1.8751875 0 1 0 -3.34657,1.691228 c 0,0 1.18331,2.340306 2.80733,5.13851 1.62401,2.798201 3.63223,6.033416 5.62845,8.110861 3.4875,3.62954 7.04797,7.198355 10.64669,10.692244 3.59789,3.493102 7.23525,6.918173 10.89951,10.230163 2.10989,1.907047 5.32823,3.732042 8.10409,5.194066 2.77586,1.462024 5.08807,2.505468 5.08807,2.505468 a 1.8751875,1.8751875 0 0 0 2.58308,-1.130138 z"
     id="path840-6-3-2" />
  <path
     inkscape:connector-curvature="0"
     style="color:#000000;font-style:normal;font-variant:normal;font-weight:normal;font-stretch:normal;font-size:medium;line-height:normal;font-family:sans-serif;font-variant-ligatures:normal;font-variant-position:normal;font-variant-caps:normal;font-variant-numeric:normal;font-variant-alternates:normal;font-feature-settings:normal;text-indent:0;text-align:start;text-decoration:none;text-decoration-line:none;text-decoration-style:solid;text-decoration-color:#000000;letter-spacing:normal;word-spacing:normal;text-transform:none;writing-mode:lr-tb;direction:ltr;text-orientation:mixed;dominant-baseline:auto;baseline-shift:baseline;text-anchor:start;white-space:normal;shape-padding:0;clip-rule:nonzero;display:inline;overflow:visible;visibility:visible;opacity:1;isolation:auto;mix-blend-mode:normal;color-interpolation:sRGB;color-interpolation-filters:linearRGB;solid-color:#000000;solid-opacity:1;vector-effect:none;fill:none;fill-opacity:1;fill-rule:nonzero;stroke:#000000;stroke-width:0.75;stroke-linecap:round;stroke-linejoin:miter;stroke-miterlimit:4;stroke-dasharray:none;stroke-dashoffset:0;stroke-opacity:1;color-rendering:auto;image-rendering:auto;shape-rendering:auto;text-rendering:auto;enable-background:accumulate"
     d="m 35.262804,147.27035 a 1.8751875,1.8751875 0 0 0 0.503482,-2.46373 c 0,0 -1.205603,-2.11132 -2.537353,-4.81485 -1.331743,-2.70355 -2.772436,-6.0564 -3.198775,-8.08114 -1.006965,-4.78223 -1.926677,-9.64904 -2.777785,-14.55286 -0.850995,-4.90259 -1.627147,-9.83827 -2.308771,-14.77773 -0.290991,-2.1088 -0.08889,-5.872071 0.230072,-8.974146 0.318882,-3.102016 0.719331,-5.592431 0.719331,-5.592431 a 1.8751875,1.8751875 0 1 0 -3.701511,-0.598834 c 0,0 -0.418278,2.58888 -0.74916,5.807252 -0.330887,3.218363 -0.60782,7.016109 -0.213931,9.870149 0.688058,4.98626 1.47084,9.96628 2.328611,14.90817 0.857556,4.94076 1.787036,9.84969 2.804747,14.68295 0.585998,2.78299 2.116987,6.15113 3.503348,8.96555 1.386362,2.81441 2.643663,5.01766 2.643663,5.01766 a 1.8751875,1.8751875 0 0 0 2.754032,0.60399 z"
     id="path840-6-3-2-2" />
</svg>
