  0
SECTION
  2
HEADER
  9
$ACADVER
  1
AC1014
  9
$HANDSEED
  5
FFFF
  9
$MEASUREMENT
 70
     1
  0
ENDSEC
  0
SECTION
  2
TABLES
  0
TABLE
  2
VPORT
  5
8
330
0
100
AcDbSymbolTable
 70
     4
  0
VPORT
  5
2E
330
8
100
AcDbSymbolTableRecord
100
AcDbViewportTableRecord
  2
*ACTIVE
 70
     0
 10
0.0
 20
0.0
 11
1.0
 21
1.0
 12
210.0
 22
148.5
 13
0.0
 23
0.0
 14
10.0
 24
10.0
 15
10.0
 25
10.0
 16
0.0
 26
0.0
 36
1.0
 17
0.0
 27
0.0
 37
0.0
 40
341.0
 41
1.24
 42
50.0
 43
0.0
 44
0.0
 50
0.0
 51
0.0
 71
     0
 72
   100
 73
     1
 74
     3
 75
     0
 76
     0
 77
     0
 78
     0
  0
ENDTAB
  0
TABLE
  2
LTYPE
  5
5
330
0
100
AcDbSymbolTable
 70
     1
  0
LTYPE
  5
14
330
5
100
AcDbSymbolTableRecord
100
AcDbLinetypeTableRecord
  2
BYBLOCK
 70
     0
  3

 72
    65
 73
     0
 40
0.0
  0
LTYPE
  5
15
330
5
100
AcDbSymbolTableRecord
100
AcDbLinetypeTableRecord
  2
BYLAYER
 70
     0
  3

 72
    65
 73
     0
 40
0.0
  0
LTYPE
  5
16
330
5
100
AcDbSymbolTableRecord
100
AcDbLinetypeTableRecord
  2
CONTINUOUS
 70
     0
  3
Solid line
 72
    65
 73
     0
 40
0.0
  0
ENDTAB
  0
TABLE
  2
LAYER
  5
2
100
AcDbSymbolTable
 70
1
  0
LAYER
  5
50
100
AcDbSymbolTableRecord
100
AcDbLayerTableRecord
  2
0
 70
0
  6
CONTINUOUS
  0
ENDTAB
  0
TABLE
  2
STYLE
  5
3
330
0
100
AcDbSymbolTable
 70
     1
  0
STYLE
  5
11
330
3
100
AcDbSymbolTableRecord
100
AcDbTextStyleTableRecord
  2
STANDARD
 70
     0
 40
0.0
 41
1.0
 50
0.0
 71
     0
 42
2.5
  3
txt
  4

  0
ENDTAB
  0
TABLE
  2
VIEW
  5
6
330
0
100
AcDbSymbolTable
 70
     0
  0
ENDTAB
  0
TABLE
  2
UCS
  5
7
330
0
100
AcDbSymbolTable
 70
     0
  0
ENDTAB
  0
TABLE
  2
APPID
  5
9
330
0
100
AcDbSymbolTable
 70
     2
  0
APPID
  5
12
330
9
100
AcDbSymbolTableRecord
100
AcDbRegAppTableRecord
  2
ACAD
 70
     0
  0
ENDTAB
  0
TABLE
  2
DIMSTYLE
  5
A
330
0
100
AcDbSymbolTable
 70
     1
  0
DIMSTYLE
105
27
330
A
100
AcDbSymbolTableRecord
100
AcDbDimStyleTableRecord
  2
ISO-25
 70
     0
  3

  4

  5

  6

  7

 40
1.0
 41
2.5
 42
0.625
 43
3.75
 44
1.25
 45
0.0
 46
0.0
 47
0.0
 48
0.0
140
2.5
141
2.5
142
0.0
143
0.03937007874016
144
1.0
145
0.0
146
1.0
147
0.625
 71
     0
 72
     0
 73
     0
 74
     0
 75
     0
 76
     0
 77
     1
 78
     8
170
     0
171
     3
172
     1
173
     0
174
     0
175
     0
176
     0
177
     0
178
     0
270
     2
271
     2
272
     2
273
     2
274
     3
340
11
275
     0
280
     0
281
     0
282
     0
283
     0
284
     8
285
     0
286
     0
287
     3
288
     0
  0
ENDTAB
  0
TABLE
  2
BLOCK_RECORD
  5
1
330
0
100
AcDbSymbolTable
 70
     1
  0
BLOCK_RECORD
  5
1F
330
1
100
AcDbSymbolTableRecord
100
AcDbBlockTableRecord
  2
*MODEL_SPACE
  0
BLOCK_RECORD
  5
1B
330
1
100
AcDbSymbolTableRecord
100
AcDbBlockTableRecord
  2
*PAPER_SPACE
  0
ENDTAB
  0
ENDSEC
  0
SECTION
  2
BLOCKS
  0
BLOCK
  5
20
330
1F
100
AcDbEntity
  8
0
100
AcDbBlockBegin
  2
*MODEL_SPACE
 70
     0
 10
0.0
 20
0.0
 30
0.0
  3
*MODEL_SPACE
  1

  0
ENDBLK
  5
21
330
1F
100
AcDbEntity
  8
0
100
AcDbBlockEnd
  0
BLOCK
  5
1C
330
1B
100
AcDbEntity
 67
     1
  8
0
100
AcDbBlockBegin
  2
*PAPER_SPACE
  1

  0
ENDBLK
  5
1D
330
1B
100
AcDbEntity
 67
     1
  8
0
100
AcDbBlockEnd
  0
ENDSEC
  0
SECTION
  2
ENTITIES
  0
LINE
  5
100
100
AcDbEntity
  8
0
 62
7
100
AcDbLine
 10
-204.700000
 20
472.220000
 30
0.0
 11
-192.960000
 21
473.320000
 31
0.0
  0
LINE
  5
101
100
AcDbEntity
  8
0
 62
7
100
AcDbLine
 10
-192.960000
 20
473.320000
 30
0.0
 11
-192.760000
 21
471.740000
 31
0.0
  0
SPLINE
  5
102
100
AcDbEntity
  8
0
 62
7
100
AcDbSpline
 70
0
 71
3
 72
13
 73
9
 74
7
 40
0.000000
 40
0.000000
 40
0.000000
 40
0.000000
 40
0.162166
 40
0.322199
 40
0.482164
 40
18.520439
 40
46.880239
 40
61.835215
 40
61.835215
 40
61.835215
 40
61.835215
 10
-189.020000
 20
530.960000
 30
0.0
 10
-189.074076
 20
530.959322
 30
0.0
 10
-189.181515
 20
530.957974
 30
0.0
 10
-189.341618
 20
530.943179
 30
0.0
 10
-195.413605
 20
530.078203
 30
0.0
 10
-198.729307
 20
509.177641
 30
0.0
 10
-202.718659
 20
491.894682
 30
0.0
 10
-204.191487
 20
477.269522
 30
0.0
 10
-204.700000
 20
472.220000
 30
0.0
 11
-189.020000
 21
530.960000
 31
0.0
 11
-189.182112
 21
530.955802
 31
0.0
 11
-189.341536
 21
530.941862
 31
0.0
 11
-189.500000
 21
530.920000
 31
0.0
 11
-197.950809
 21
514.983777
 31
0.0
 11
-203.014294
 21
487.079666
 31
0.0
 11
-204.700000
 21
472.220000
 31
0.0
  0
SPLINE
  5
103
100
AcDbEntity
  8
0
 62
7
100
AcDbSpline
 70
0
 71
3
 72
31
 73
27
 74
25
 40
0.000000
 40
0.000000
 40
0.000000
 40
0.000000
 40
3.914450
 40
7.864483
 40
11.853479
 40
19.847245
 40
27.801837
 40
35.736627
 40
39.678467
 40
43.577113
 40
47.440837
 40
51.646645
 40
56.908026
 40
61.113974
 40
68.822577
 40
76.686151
 40
84.649063
 40
92.660316
 40
100.677236
 40
108.655249
 40
113.003937
 40
118.361008
 40
122.638687
 40
126.515936
 40
130.381547
 40
134.241800
 40
134.241800
 40
134.241800
 40
134.241800
 10
-192.760000
 20
471.740000
 30
0.0
 10
-194.057342
 20
471.600435
 30
0.0
 10
-196.663818
 20
471.320038
 30
0.0
 10
-200.597337
 20
470.946088
 30
0.0
 10
-205.889632
 20
470.499694
 30
0.0
 10
-212.521212
 20
470.062766
 30
0.0
 10
-220.479168
 20
469.742975
 30
0.0
 10
-227.085110
 20
469.726714
 30
0.0
 10
-232.354283
 20
469.763057
 30
0.0
 10
-236.220157
 20
470.022388
 30
0.0
 10
-240.338080
 20
469.560357
 30
0.0
 10
-244.201556
 20
472.406875
 30
0.0
 10
-246.328341
 20
476.446452
 30
0.0
 10
-251.308569
 20
479.882550
 30
0.0
 10
-258.202753
 20
479.019265
 30
0.0
 10
-265.900083
 20
480.309222
 30
0.0
 10
-273.807357
 20
481.204199
 30
0.0
 10
-281.697068
 20
482.574043
 30
0.0
 10
-289.601925
 20
483.538150
 30
0.0
 10
-296.163565
 20
486.294112
 30
0.0
 10
-302.092754
 20
484.423227
 30
0.0
 10
-305.389648
 20
481.117111
 30
0.0
 10
-309.940790
 20
479.443282
 30
0.0
 10
-313.798524
 20
480.988043
 30
0.0
 10
-317.562715
 20
481.762897
 30
0.0
 10
-320.054815
 20
482.427786
 30
0.0
 10
-321.300000
 20
482.760000
 30
0.0
 11
-192.760000
 21
471.740000
 31
0.0
 11
-196.652846
 21
471.329307
 31
0.0
 11
-200.585033
 21
470.954256
 31
0.0
 11
-204.560000
 21
470.620000
 31
0.0
 11
-212.536578
 21
470.096065
 31
0.0
 11
-220.485385
 21
469.792766
 31
0.0
 11
-228.420000
 21
469.740000
 31
0.0
 11
-232.361344
 21
469.802502
 31
0.0
 11
-236.258665
 21
469.904184
 31
0.0
 11
-240.120000
 21
470.040000
 31
0.0
 11
-243.644765
 21
472.334527
 31
0.0
 11
-246.885515
 21
476.479363
 31
0.0
 11
-250.380000
 21
478.820000
 31
0.0
 11
-258.066620
 21
479.401741
 31
0.0
 11
-265.885781
 21
480.236319
 31
0.0
 11
-273.780000
 21
481.280000
 31
0.0
 11
-281.696903
 21
482.505899
 31
0.0
 11
-289.587639
 21
483.922687
 31
0.0
 11
-297.400000
 21
485.540000
 31
0.0
 11
-301.560748
 21
484.275378
 31
0.0
 11
-305.945130
 21
481.197163
 31
0.0
 11
-310.040000
 21
479.960000
 31
0.0
 11
-313.809023
 21
480.869687
 31
0.0
 11
-317.560882
 21
481.800545
 31
0.0
 11
-321.300000
 21
482.760000
 31
0.0
  0
SPLINE
  5
104
100
AcDbEntity
  8
0
 62
7
100
AcDbSpline
 70
0
 71
3
 72
10
 73
6
 74
4
 40
0.000000
 40
0.000000
 40
0.000000
 40
0.000000
 40
7.717485
 40
15.438170
 40
23.172819
 40
23.172819
 40
23.172819
 40
23.172819
 10
-321.300000
 20
482.760000
 30
0.0
 10
-322.940576
 20
480.778483
 30
0.0
 10
-326.222408
 20
476.814628
 30
0.0
 10
-331.266045
 20
470.963289
 30
0.0
 10
-334.714310
 20
467.135582
 30
0.0
 10
-336.440000
 20
465.220000
 30
0.0
 11
-321.300000
 21
482.760000
 31
0.0
 11
-326.241303
 21
476.831839
 31
0.0
 11
-331.284058
 21
470.985506
 31
0.0
 11
-336.440000
 21
465.220000
 31
0.0
  0
LINE
  5
105
100
AcDbEntity
  8
0
 62
7
100
AcDbLine
 10
-344.740000
 20
456.400000
 30
0.0
 11
-345.900000
 21
457.520000
 31
0.0
  0
LINE
  5
106
100
AcDbEntity
  8
0
 62
7
100
AcDbLine
 10
-345.900000
 20
457.520000
 30
0.0
 11
-337.620000
 21
466.320000
 31
0.0
  0
SPLINE
  5
107
100
AcDbEntity
  8
0
 62
7
100
AcDbSpline
 70
0
 71
3
 72
10
 73
6
 74
4
 40
0.000000
 40
0.000000
 40
0.000000
 40
0.000000
 40
4.041331
 40
8.079912
 40
12.111685
 40
12.111685
 40
12.111685
 40
12.111685
 10
-336.440000
 20
465.220000
 30
0.0
 10
-337.352392
 20
464.228920
 30
0.0
 10
-339.176556
 20
462.247435
 30
0.0
 10
-341.935229
 20
459.299526
 30
0.0
 10
-343.805602
 20
457.365965
 30
0.0
 10
-344.740000
 20
456.400000
 30
0.0
 11
-336.440000
 21
465.220000
 31
0.0
 11
-339.181228
 21
462.250484
 31
0.0
 11
-341.944841
 21
459.305560
 31
0.0
 11
-344.740000
 21
456.400000
 31
0.0
  0
LINE
  5
108
100
AcDbEntity
  8
0
 62
7
100
AcDbLine
 10
-371.680000
 20
433.280000
 30
0.0
 11
-362.840000
 21
441.080000
 31
0.0
  0
LINE
  5
109
100
AcDbEntity
  8
0
 62
7
100
AcDbLine
 10
-362.840000
 20
441.080000
 30
0.0
 11
-361.760000
 21
439.920000
 31
0.0
  0
SPLINE
  5
10a
100
AcDbEntity
  8
0
 62
7
100
AcDbSpline
 70
0
 71
3
 72
13
 73
9
 74
7
 40
0.000000
 40
0.000000
 40
0.000000
 40
0.000000
 40
15.081124
 40
43.636502
 40
61.678619
 40
79.721607
 40
108.091445
 40
123.051910
 40
123.051910
 40
123.051910
 40
123.051910
 10
-337.620000
 20
466.320000
 30
0.0
 10
-342.033308
 20
468.941709
 30
0.0
 10
-354.802999
 20
476.527498
 30
0.0
 10
-369.749197
 20
485.088107
 30
0.0
 10
-399.395522
 20
495.307015
 30
0.0
 10
-389.693470
 20
465.577713
 30
0.0
 10
-381.489606
 20
450.525249
 30
0.0
 10
-374.197659
 20
437.706034
 30
0.0
 10
-371.680000
 20
433.280000
 30
0.0
 11
-337.620000
 21
466.320000
 31
0.0
 11
-350.597678
 21
474.002459
 31
0.0
 11
-376.082023
 21
486.884918
 31
0.0
 11
-393.900000
 21
489.720000
 31
0.0
 11
-391.366125
 21
471.855821
 31
0.0
 11
-379.054174
 21
446.296800
 31
0.0
 11
-371.680000
 21
433.280000
 31
0.0
  0
SPLINE
  5
10b
100
AcDbEntity
  8
0
 62
7
100
AcDbSpline
 70
0
 71
3
 72
31
 73
27
 74
25
 40
0.000000
 40
0.000000
 40
0.000000
 40
0.000000
 40
3.912551
 40
7.859044
 40
11.846121
 40
19.839293
 40
27.792697
 40
35.726800
 40
39.669083
 40
43.568535
 40
47.432683
 40
51.638064
 40
56.899856
 40
61.105400
 40
68.818548
 40
76.690783
 40
84.658457
 40
92.667074
 40
100.678998
 40
108.654261
 40
113.005318
 40
118.368758
 40
122.648798
 40
126.525860
 40
130.391169
 40
134.251290
 40
134.251290
 40
134.251290
 40
134.251290
 10
-361.760000
 20
439.920000
 30
0.0
 10
-362.726899
 20
439.044772
 30
0.0
 10
-364.669086
 20
437.286722
 30
0.0
 10
-367.628115
 20
434.671924
 30
0.0
 10
-371.645156
 20
431.200653
 30
0.0
 10
-376.751856
 20
426.949341
 30
0.0
 10
-382.998775
 20
422.010265
 30
0.0
 10
-388.332836
 20
418.114074
 30
0.0
 10
-392.616283
 20
415.044904
 30
0.0
 10
-395.894829
 20
412.979439
 30
0.0
 10
-398.953965
 20
410.183164
 30
0.0
 10
-403.753603
 20
410.217876
 30
0.0
 10
-407.846804
 20
412.239384
 30
0.0
 10
-413.897370
 20
412.094099
 30
0.0
 10
-418.972474
 20
407.342080
 30
0.0
 10
-425.967756
 20
403.866755
 30
0.0
 10
-432.895931
 20
399.944786
 30
0.0
 10
-440.081791
 20
396.413256
 30
0.0
 10
-447.038089
 20
392.543965
 30
0.0
 10
-453.965779
 20
390.917092
 30
0.0
 10
-457.659236
 20
385.912108
 30
0.0
 10
-458.379030
 20
381.296000
 30
0.0
 10
-461.074215
 20
377.259212
 30
0.0
 10
-465.105995
 20
376.245270
 30
0.0
 10
-468.609566
 20
374.667483
 30
0.0
 10
-471.017061
 20
373.742287
 30
0.0
 10
-472.220000
 20
373.280000
 30
0.0
 11
-361.760000
 21
439.920000
 31
0.0
 11
-364.665882
 21
437.300094
 31
0.0
 11
-367.622750
 21
434.686335
 31
0.0
 11
-370.640000
 21
432.080000
 31
0.0
 11
-376.783695
 21
426.966702
 31
0.0
 11
-383.033301
 21
422.047448
 31
0.0
 11
-389.420000
 21
417.340000
 31
0.0
 11
-392.644873
 21
415.072448
 31
0.0
 11
-395.856755
 21
412.861217
 31
0.0
 11
-399.060000
 21
410.700000
 31
0.0
 11
-403.259956
 21
410.486453
 31
0.0
 11
-408.317442
 21
411.938446
 31
0.0
 11
-412.520000
 21
411.780000
 31
0.0
 11
-419.086524
 21
407.733592
 31
0.0
 11
-425.914005
 21
403.814716
 31
0.0
 11
-432.920000
 21
400.020000
 31
0.0
 11
-440.042121
 21
396.357577
 31
0.0
 11
-447.252395
 21
392.864316
 31
0.0
 11
-454.520000
 21
389.580000
 31
0.0
 11
-457.141201
 21
386.107106
 31
0.0
 11
-458.875957
 21
381.031959
 31
0.0
 11
-461.460000
 21
377.620000
 31
0.0
 11
-465.045114
 21
376.144003
 31
0.0
 11
-468.629826
 21
374.698160
 31
0.0
 11
-472.220000
 21
373.280000
 31
0.0
  0
SPLINE
  5
10c
100
AcDbEntity
  8
0
 62
7
100
AcDbSpline
 70
0
 71
3
 72
10
 73
6
 74
4
 40
0.000000
 40
0.000000
 40
0.000000
 40
0.000000
 40
7.720294
 40
15.446197
 40
23.183657
 40
23.183657
 40
23.183657
 40
23.183657
 10
-472.220000
 20
373.280000
 30
0.0
 10
-472.382648
 20
370.711681
 30
0.0
 10
-472.708062
 20
365.573177
 30
0.0
 10
-473.349628
 20
357.871186
 30
0.0
 10
-473.889741
 20
352.745006
 30
0.0
 10
-474.160000
 20
350.180000
 30
0.0
 11
-472.220000
 21
373.280000
 31
0.0
 11
-472.733433
 21
365.576798
 31
0.0
 11
-473.377314
 21
357.877773
 31
0.0
 11
-474.160000
 21
350.180000
 31
0.0
  0
LINE
  5
10d
100
AcDbEntity
  8
0
 62
7
100
AcDbLine
 10
-475.700000
 20
338.180000
 30
0.0
 11
-477.280000
 21
338.400000
 31
0.0
  0
LINE
  5
10e
100
AcDbEntity
  8
0
 62
7
100
AcDbLine
 10
-477.280000
 20
338.400000
 30
0.0
 11
-475.760000
 21
350.380000
 31
0.0
  0
SPLINE
  5
10f
100
AcDbEntity
  8
0
 62
7
100
AcDbSpline
 70
0
 71
3
 72
10
 73
6
 74
4
 40
0.000000
 40
0.000000
 40
0.000000
 40
0.000000
 40
4.037974
 40
8.070367
 40
12.098844
 40
12.098844
 40
12.098844
 40
12.098844
 10
-474.160000
 20
350.180000
 30
0.0
 10
-474.316139
 20
348.843095
 30
0.0
 10
-474.628201
 20
346.171134
 30
0.0
 10
-475.133693
 20
342.169842
 30
0.0
 10
-475.511292
 20
339.509517
 30
0.0
 10
-475.700000
 20
338.180000
 30
0.0
 11
-474.160000
 21
350.180000
 31
0.0
 11
-474.634705
 21
346.170026
 31
0.0
 11
-475.144070
 21
342.169934
 31
0.0
 11
-475.700000
 21
338.180000
 31
0.0
  0
LINE
  5
110
100
AcDbEntity
  8
0
 62
7
100
AcDbLine
 10
-483.900000
 20
303.640000
 30
0.0
 11
-481.320000
 21
315.140000
 31
0.0
  0
LINE
  5
111
100
AcDbEntity
  8
0
 62
7
100
AcDbLine
 10
-481.320000
 20
315.140000
 30
0.0
 11
-479.760000
 21
314.840000
 31
0.0
  0
SPLINE
  5
112
100
AcDbEntity
  8
0
 62
7
100
AcDbSpline
 70
0
 71
3
 72
13
 73
9
 74
7
 40
0.000000
 40
0.000000
 40
0.000000
 40
0.000000
 40
15.079434
 40
43.631391
 40
61.671079
 40
79.712030
 40
108.077147
 40
123.034991
 40
123.034991
 40
123.034991
 40
123.034991
 10
-475.760000
 20
350.380000
 30
0.0
 10
-480.870935
 20
349.907760
 30
0.0
 10
-495.659104
 20
348.541362
 30
0.0
 10
-512.781088
 20
346.685179
 30
0.0
 10
-542.768769
 20
337.530277
 30
0.0
 10
-517.450840
 20
319.181358
 30
0.0
 10
-501.968932
 20
311.825674
 30
0.0
 10
-488.537415
 20
305.740864
 30
0.0
 10
-483.900000
 20
303.640000
 30
0.0
 11
-475.760000
 21
350.380000
 31
0.0
 11
-490.773333
 21
348.969630
 31
0.0
 11
-518.960000
 21
344.417038
 31
0.0
 11
-535.040000
 21
336.240000
 31
0.0
 11
-522.492593
 21
323.277036
 31
0.0
 11
-497.514074
 21
309.836296
 31
0.0
 11
-483.900000
 21
303.640000
 31
0.0
  0
LINE
  5
113
100
AcDbEntity
  8
0
 62
7
100
AcDbLine
 10
-529.960000
 20
196.000000
 30
0.0
 11
-511.000000
 21
196.000000
 31
0.0
  0
LINE
  5
114
100
AcDbEntity
  8
0
 62
7
100
AcDbLine
 10
-511.000000
 20
196.000000
 30
0.0
 11
-492.040000
 21
196.000000
 31
0.0
  0
SPLINE
  5
115
100
AcDbEntity
  8
0
 62
7
100
AcDbSpline
 70
0
 71
3
 72
31
 73
27
 74
25
 40
0.000000
 40
0.000000
 40
0.000000
 40
0.000000
 40
3.912211
 40
7.858093
 40
11.844853
 40
19.837822
 40
27.790989
 40
35.725053
 40
39.668129
 40
43.569072
 40
47.434029
 40
51.638916
 40
56.899170
 40
61.104209
 40
68.815047
 40
76.682866
 40
84.648109
 40
92.656391
 40
100.667728
 40
108.642696
 40
112.995102
 40
118.358639
 40
122.640040
 40
126.516143
 40
130.379627
 40
134.238740
 40
134.238740
 40
134.238740
 40
134.238740
 10
-479.760000
 20
314.840000
 30
0.0
 10
-480.028044
 20
313.563763
 30
0.0
 10
-480.566439
 20
311.000306
 30
0.0
 10
-481.426121
 20
307.146653
 30
0.0
 10
-482.636550
 20
301.977797
 30
0.0
 10
-484.270879
 20
295.537443
 30
0.0
 10
-486.428204
 20
287.871824
 30
0.0
 10
-488.455462
 20
281.584964
 30
0.0
 10
-490.117694
 20
276.583716
 30
0.0
 10
-491.558227
 20
272.985291
 30
0.0
 10
-492.390548
 20
268.924811
 30
0.0
 10
-496.292132
 20
266.130729
 30
0.0
 10
-500.790840
 20
265.358803
 30
0.0
 10
-505.598254
 20
261.684566
 30
0.0
 10
-506.909021
 20
254.859331
 30
0.0
 10
-510.519341
 20
247.936411
 30
0.0
 10
-513.816173
 20
240.692438
 30
0.0
 10
-517.554219
 20
233.613101
 30
0.0
 10
-520.909569
 20
226.395171
 30
0.0
 10
-525.555931
 20
221.006652
 30
0.0
 10
-525.607799
 20
214.787257
 30
0.0
 10
-523.483759
 20
210.624927
 30
0.0
 10
-523.297144
 20
205.776189
 30
0.0
 10
-525.958255
 20
202.584279
 30
0.0
 10
-527.857645
 20
199.245035
 30
0.0
 10
-529.259480
 20
197.081270
 30
0.0
 10
-529.960000
 20
196.000000
 30
0.0
 11
-479.760000
 21
314.840000
 31
0.0
 11
-480.572047
 21
311.012994
 31
0.0
 11
-481.429879
 21
307.161487
 31
0.0
 11
-482.340000
 21
303.280000
 31
0.0
 11
-484.307588
 21
295.532991
 31
0.0
 11
-486.477271
 21
287.881499
 31
0.0
 11
-488.880000
 21
280.320000
 31
0.0
 11
-490.157172
 21
276.589493
 31
0.0
 11
-491.457823
 21
272.911768
 31
0.0
 11
-492.780000
 21
269.280000
 31
0.0
 11
-496.051232
 21
266.638008
 31
0.0
 11
-500.994272
 21
264.838945
 31
0.0
 11
-504.300000
 21
262.240000
 31
0.0
 11
-507.231003
 21
255.107943
 31
0.0
 11
-510.445514
 21
247.926752
 31
0.0
 11
-513.880000
 21
240.740000
 31
0.0
 11
-517.489639
 21
233.591358
 31
0.0
 11
-521.270410
 21
226.528264
 31
0.0
 11
-525.220000
 21
219.600000
 31
0.0
 11
-525.303255
 21
215.248391
 31
0.0
 11
-523.730989
 21
210.120475
 31
0.0
 11
-523.820000
 21
205.840000
 31
0.0
 11
-525.849209
 21
202.537503
 31
0.0
 11
-527.892698
 21
199.258682
 31
0.0
 11
-529.960000
 21
196.000000
 31
0.0
  0
LINE
  5
116
100
AcDbEntity
  8
0
 62
7
100
AcDbLine
 10
-416.220000
 20
196.000000
 30
0.0
 11
-397.260000
 21
196.000000
 31
0.0
  0
LINE
  5
117
100
AcDbEntity
  8
0
 62
7
100
AcDbLine
 10
-397.260000
 20
196.000000
 30
0.0
 11
-378.300000
 21
196.000000
 31
0.0
  0
LINE
  5
118
100
AcDbEntity
  8
0
 62
7
100
AcDbLine
 10
-378.300000
 20
196.000000
 30
0.0
 11
-359.340000
 21
196.000000
 31
0.0
  0
LINE
  5
119
100
AcDbEntity
  8
0
 62
7
100
AcDbLine
 10
-359.340000
 20
196.000000
 30
0.0
 11
-340.380000
 21
196.000000
 31
0.0
  0
LINE
  5
11a
100
AcDbEntity
  8
0
 62
7
100
AcDbLine
 10
-340.380000
 20
196.000000
 30
0.0
 11
-330.900000
 21
196.000000
 31
0.0
  0
SPLINE
  5
11b
100
AcDbEntity
  8
0
 62
7
100
AcDbSpline
 70
0
 71
3
 72
19
 73
15
 74
13
 40
0.000000
 40
0.000000
 40
0.000000
 40
0.000000
 40
10.413434
 40
19.160628
 40
31.649420
 40
36.535545
 40
48.377296
 40
62.949733
 40
76.148065
 40
85.437905
 40
88.949926
 40
102.118437
 40
112.639196
 40
121.630041
 40
121.630041
 40
121.630041
 40
121.630041
 10
-492.040000
 20
196.000000
 30
0.0
 10
-496.582301
 20
195.220727
 30
0.0
 10
-504.940095
 20
193.786873
 30
0.0
 10
-496.253040
 20
181.993014
 30
0.0
 10
-487.864247
 20
180.294999
 30
0.0
 10
-478.082177
 20
180.476231
 30
0.0
 10
-467.666703
 20
180.325864
 30
0.0
 10
-454.462385
 20
180.319555
 30
0.0
 10
-442.087656
 20
180.219939
 30
0.0
 10
-433.470454
 20
180.275271
 30
0.0
 10
-424.695474
 20
180.040418
 30
0.0
 10
-417.040410
 20
182.452503
 30
0.0
 10
-404.200952
 20
192.459223
 30
0.0
 10
-412.428698
 20
194.883093
 30
0.0
 10
-416.220000
 20
196.000000
 30
0.0
 11
-492.040000
 21
196.000000
 31
0.0
 11
-501.644843
 21
191.976742
 31
0.0
 11
-497.111908
 21
184.495706
 31
0.0
 11
-485.300000
 21
180.440000
 31
0.0
 11
-480.413927
 21
180.417376
 31
0.0
 11
-468.572298
 21
180.363640
 31
0.0
 11
-454.000000
 21
180.300000
 31
0.0
 11
-440.801776
 21
180.246739
 31
0.0
 11
-431.511999
 21
180.212258
 31
0.0
 11
-428.000000
 21
180.200000
 31
0.0
 11
-415.479365
 21
184.279628
 31
0.0
 11
-408.220793
 21
191.895369
 31
0.0
 11
-416.220000
 21
196.000000
 31
0.0
  0
LINE
  5
11c
100
AcDbEntity
  8
0
 62
7
100
AcDbLine
 10
-311.940000
 20
196.000000
 30
0.0
 11
-302.460000
 21
196.000000
 31
0.0
  0
SPLINE
  5
11d
100
AcDbEntity
  8
0
 62
7
100
AcDbSpline
 70
0
 71
3
 72
13
 73
9
 74
7
 40
0.000000
 40
0.000000
 40
0.000000
 40
0.000000
 40
5.003630
 40
9.840367
 40
14.798659
 40
19.756951
 40
24.593688
 40
29.597318
 40
29.597318
 40
29.597318
 40
29.597318
 10
-330.900000
 20
196.000000
 30
0.0
 10
-330.639725
 20
194.313291
 30
0.0
 10
-330.127858
 20
190.996133
 30
0.0
 10
-326.364551
 20
187.328543
 30
0.0
 10
-321.420000
 20
185.960091
 30
0.0
 10
-316.475449
 20
187.328543
 30
0.0
 10
-312.712142
 20
190.996133
 30
0.0
 10
-312.200275
 20
194.313291
 30
0.0
 10
-311.940000
 20
196.000000
 30
0.0
 11
-330.900000
 21
196.000000
 31
0.0
 11
-329.604518
 21
191.166984
 31
0.0
 11
-326.202369
 21
187.729048
 31
0.0
 11
-321.420000
 21
186.420000
 31
0.0
 11
-316.637631
 21
187.729048
 31
0.0
 11
-313.235482
 21
191.166984
 31
0.0
 11
-311.940000
 21
196.000000
 31
0.0
  0
LINE
  5
11e
100
AcDbEntity
  8
0
 62
7
100
AcDbLine
 10
-288.280000
 20
239.640000
 30
0.0
 11
-288.160000
 21
239.560000
 31
0.0
  0
SPLINE
  5
11f
100
AcDbEntity
  8
0
 62
7
100
AcDbSpline
 70
0
 71
3
 72
10
 73
6
 74
4
 40
0.000000
 40
0.000000
 40
0.000000
 40
0.000000
 40
15.931453
 40
31.376482
 40
46.570338
 40
46.570338
 40
46.570338
 40
46.570338
 10
-302.460000
 20
196.000000
 30
0.0
 10
-302.124614
 20
201.313948
 30
0.0
 10
-301.464082
 20
211.779596
 30
0.0
 10
-296.518304
 20
226.732803
 30
0.0
 10
-291.011052
 20
235.361179
 30
0.0
 10
-288.280000
 20
239.640000
 30
0.0
 11
-302.460000
 21
196.000000
 31
0.0
 11
-300.765058
 21
211.841034
 31
0.0
 11
-295.919006
 21
226.506119
 31
0.0
 11
-288.280000
 21
239.640000
 31
0.0
  0
LINE
  5
120
100
AcDbEntity
  8
0
 62
7
100
AcDbLine
 10
-251.040000
 20
266.520000
 30
0.0
 11
-251.000000
 21
266.380000
 31
0.0
  0
SPLINE
  5
121
100
AcDbEntity
  8
0
 62
7
100
AcDbSpline
 70
0
 71
3
 72
10
 73
6
 74
4
 40
0.000000
 40
0.000000
 40
0.000000
 40
0.000000
 40
15.928906
 40
31.369827
 40
46.561895
 40
46.561895
 40
46.561895
 40
46.561895
 10
-288.160000
 20
239.560000
 30
0.0
 10
-284.765554
 20
243.661192
 30
0.0
 10
-278.080650
 20
251.737934
 30
0.0
 10
-265.289792
 20
260.922963
 30
0.0
 10
-255.764136
 20
264.664453
 30
0.0
 10
-251.040000
 20
266.520000
 30
0.0
 11
-288.160000
 21
239.560000
 31
0.0
 11
-277.478363
 21
251.376628
 31
0.0
 11
-264.939258
 21
260.387336
 31
0.0
 11
-251.040000
 21
266.520000
 31
0.0
  0
LINE
  5
122
100
AcDbEntity
  8
0
 62
7
100
AcDbLine
 10
-205.120000
 20
266.380000
 30
0.0
 11
-205.160000
 21
266.260000
 31
0.0
  0
SPLINE
  5
123
100
AcDbEntity
  8
0
 62
7
100
AcDbSpline
 70
0
 71
3
 72
10
 73
6
 74
4
 40
0.000000
 40
0.000000
 40
0.000000
 40
0.000000
 40
15.929965
 40
31.372120
 40
46.564438
 40
46.564438
 40
46.564438
 40
46.564438
 10
-251.000000
 20
266.380000
 30
0.0
 10
-245.843018
 20
267.703172
 30
0.0
 10
-235.686973
 20
270.308996
 30
0.0
 10
-219.939261
 20
270.226383
 30
0.0
 10
-210.032823
 20
267.655138
 30
0.0
 10
-205.120000
 20
266.380000
 30
0.0
 11
-251.000000
 21
266.380000
 31
0.0
 11
-235.412062
 21
269.663291
 31
0.0
 11
-219.970099
 21
269.586411
 31
0.0
 11
-205.120000
 21
266.380000
 31
0.0
  0
LINE
  5
124
100
AcDbEntity
  8
0
 62
7
100
AcDbLine
 10
-168.040000
 20
239.280000
 30
0.0
 11
-168.140000
 21
239.200000
 31
0.0
  0
SPLINE
  5
125
100
AcDbEntity
  8
0
 62
7
100
AcDbSpline
 70
0
 71
3
 72
10
 73
6
 74
4
 40
0.000000
 40
0.000000
 40
0.000000
 40
0.000000
 40
15.931825
 40
31.378410
 40
46.573521
 40
46.573521
 40
46.573521
 40
46.573521
 10
-205.160000
 20
266.260000
 30
0.0
 10
-200.209816
 20
264.298343
 30
0.0
 10
-190.460218
 20
260.434777
 30
0.0
 10
-177.769466
 20
251.105383
 30
0.0
 10
-171.265363
 20
243.200169
 30
0.0
 10
-168.040000
 20
239.280000
 30
0.0
 11
-205.160000
 21
266.260000
 31
0.0
 11
-190.618629
 21
259.750655
 31
0.0
 11
-178.169898
 21
250.605925
 31
0.0
 11
-168.040000
 21
239.280000
 31
0.0
  0
LINE
  5
126
100
AcDbEntity
  8
0
 62
7
100
AcDbLine
 10
-153.980000
 20
195.560000
 30
0.0
 11
-154.120000
 21
195.560000
 31
0.0
  0
SPLINE
  5
127
100
AcDbEntity
  8
0
 62
7
100
AcDbSpline
 70
0
 71
3
 72
10
 73
6
 74
4
 40
0.000000
 40
0.000000
 40
0.000000
 40
0.000000
 40
15.928917
 40
31.371016
 40
46.564298
 40
46.564298
 40
46.564298
 40
46.564298
 10
-168.140000
 20
239.200000
 30
0.0
 10
-165.289032
 20
234.703908
 30
0.0
 10
-159.674226
 20
225.849133
 30
0.0
 10
-154.897862
 20
210.843044
 30
0.0
 10
-154.284293
 20
200.626689
 30
0.0
 10
-153.980000
 20
195.560000
 30
0.0
 11
-168.140000
 21
239.200000
 31
0.0
 11
-160.205062
 21
225.388151
 31
0.0
 11
-155.514869
 21
210.675555
 31
0.0
 11
-153.980000
 21
195.560000
 31
0.0
  0
LINE
  5
128
100
AcDbEntity
  8
0
 62
7
100
AcDbLine
 10
73.380000
 20
195.560000
 30
0.0
 11
73.399968
 21
195.560000
 31
0.0
  0
SPLINE
  5
129
100
AcDbEntity
  8
0
 62
7
100
AcDbSpline
 70
0
 71
3
 72
10
 73
6
 74
4
 40
0.000000
 40
0.000000
 40
0.000000
 40
0.000000
 40
69.990151
 40
167.260869
 40
236.540060
 40
236.540060
 40
236.540060
 40
236.540060
 10
-154.120000
 20
195.560000
 30
0.0
 10
-132.503444
 20
186.906311
 30
0.0
 10
-80.844692
 20
166.225921
 30
0.0
 10
2.126942
 20
160.299410
 30
0.0
 10
52.448087
 20
185.201545
 30
0.0
 10
73.380000
 20
195.560000
 30
0.0
 11
-154.120000
 21
195.560000
 31
0.0
 11
-88.042591
 21
172.486266
 31
0.0
 11
9.182750
 21
169.515436
 31
0.0
 11
73.380000
 21
195.560000
 31
0.0
  0
SPLINE
  5
12a
100
AcDbEntity
  8
0
 62
7
100
AcDbSpline
 70
0
 71
3
 72
10
 73
6
 74
4
 40
0.000000
 40
0.000000
 40
0.000000
 40
0.000000
 40
7.720005
 40
15.445275
 40
23.182331
 40
23.182331
 40
23.182331
 40
23.182331
 10
73.399968
 20
195.560000
 30
0.0
 10
72.021240
 20
197.732854
 30
0.0
 10
69.262843
 20
202.080043
 30
0.0
 10
65.247233
 20
208.683099
 30
0.0
 10
62.669732
 20
213.146566
 30
0.0
 10
61.380000
 20
215.380000
 30
0.0
 11
73.399968
 21
195.560000
 31
0.0
 11
69.284516
 21
202.091579
 31
0.0
 11
65.274451
 21
208.694547
 31
0.0
 11
61.380000
 21
215.380000
 31
0.0
  0
LINE
  5
12b
100
AcDbEntity
  8
0
 62
7
100
AcDbLine
 10
55.580000
 20
226.000000
 30
0.0
 11
56.980000
 21
226.740000
 31
0.0
  0
LINE
  5
12c
100
AcDbEntity
  8
0
 62
7
100
AcDbLine
 10
56.980000
 20
226.740000
 30
0.0
 11
62.800000
 21
216.160000
 31
0.0
  0
SPLINE
  5
12d
100
AcDbEntity
  8
0
 62
7
100
AcDbSpline
 70
0
 71
3
 72
10
 73
6
 74
4
 40
0.000000
 40
0.000000
 40
0.000000
 40
0.000000
 40
4.038512
 40
8.071952
 40
12.101024
 40
12.101024
 40
12.101024
 40
12.101024
 10
61.380000
 20
215.380000
 30
0.0
 10
60.720944
 20
216.553809
 30
0.0
 10
59.403661
 20
218.899954
 30
0.0
 10
57.465766
 20
222.437787
 30
0.0
 10
56.208362
 20
224.813025
 30
0.0
 10
55.580000
 20
226.000000
 30
0.0
 11
61.380000
 21
215.380000
 31
0.0
 11
59.408995
 21
218.904872
 31
0.0
 11
57.473513
 21
222.443593
 31
0.0
 11
55.580000
 21
226.000000
 31
0.0
  0
LINE
  5
12e
100
AcDbEntity
  8
0
 62
7
100
AcDbLine
 10
41.900000
 20
258.760000
 30
0.0
 11
46.580000
 21
247.940000
 31
0.0
  0
LINE
  5
12f
100
AcDbEntity
  8
0
 62
7
100
AcDbLine
 10
46.580000
 20
247.940000
 30
0.0
 11
45.140000
 21
247.260000
 31
0.0
  0
SPLINE
  5
130
100
AcDbEntity
  8
0
 62
7
100
AcDbSpline
 70
0
 71
3
 72
13
 73
9
 74
7
 40
0.000000
 40
0.000000
 40
0.000000
 40
0.000000
 40
15.077440
 40
43.625775
 40
61.663820
 40
79.706307
 40
108.073496
 40
123.032349
 40
123.032349
 40
123.032349
 40
123.032349
 10
62.800000
 20
216.160000
 30
0.0
 10
66.656600
 20
219.545868
 30
0.0
 10
77.815468
 20
229.342697
 30
0.0
 10
90.574993
 20
240.908045
 30
0.0
 10
109.450365
 20
265.939495
 30
0.0
 10
78.181591
 20
265.903471
 30
0.0
 10
61.331289
 20
262.756545
 30
0.0
 10
46.887052
 20
259.785716
 30
0.0
 10
41.900000
 20
258.760000
 30
0.0
 11
62.800000
 21
216.160000
 31
0.0
 11
74.115168
 21
226.124746
 31
0.0
 11
94.239225
 21
246.373937
 31
0.0
 11
102.440000
 21
262.440000
 31
0.0
 11
84.668179
 21
265.553476
 31
0.0
 11
56.557423
 21
261.747849
 31
0.0
 11
41.900000
 21
258.760000
 31
0.0
  0
LINE
  5
131
100
AcDbEntity
  8
0
 62
7
100
AcDbLine
 10
15.900000
 20
372.920000
 30
0.0
 11
15.900000
 21
372.920000
 31
0.0
  0
SPLINE
  5
132
100
AcDbEntity
  8
0
 62
7
100
AcDbSpline
 70
0
 71
3
 72
31
 73
27
 74
25
 40
0.000000
 40
0.000000
 40
0.000000
 40
0.000000
 40
3.914088
 40
7.863512
 40
11.852212
 40
19.846870
 40
27.802986
 40
35.738520
 40
39.679562
 40
43.576789
 40
47.439774
 40
51.642841
 40
56.899891
 40
61.103112
 40
68.817339
 40
76.691604
 40
84.660382
 40
92.666942
 40
100.674970
 40
108.648092
 40
112.998467
 40
118.359140
 40
122.638505
 40
126.517334
 40
130.385873
 40
134.247701
 40
134.247701
 40
134.247701
 40
134.247701
 10
45.140000
 20
247.260000
 30
0.0
 10
44.607110
 20
248.450922
 30
0.0
 10
43.536519
 20
250.843518
 30
0.0
 10
41.972311
 20
254.471518
 30
0.0
 10
39.916034
 20
259.368354
 30
0.0
 10
37.447176
 20
265.539441
 30
0.0
 10
34.679390
 20
273.008545
 30
0.0
 10
32.618727
 20
279.285440
 30
0.0
 10
31.028314
 20
284.308471
 30
0.0
 10
30.086178
 20
288.065981
 30
0.0
 10
28.377172
 20
291.838672
 30
0.0
 10
29.889170
 20
296.390001
 30
0.0
 10
33.075214
 20
299.656356
 30
0.0
 10
34.803459
 20
305.454175
 30
0.0
 10
31.853312
 20
311.749431
 30
0.0
 10
30.709997
 20
319.477879
 30
0.0
 10
29.121713
 20
327.279404
 30
0.0
 10
27.981693
 20
335.202850
 30
0.0
 10
26.448556
 20
343.011473
 30
0.0
 10
27.038566
 20
350.099445
 30
0.0
 10
23.425282
 20
355.159234
 30
0.0
 10
19.260022
 20
357.273576
 30
0.0
 10
16.258948
 20
361.085731
 30
0.0
 10
16.535707
 20
365.234296
 30
0.0
 10
16.107258
 20
369.055506
 30
0.0
 10
15.969046
 20
371.632581
 30
0.0
 10
15.900000
 20
372.920000
 30
0.0
 11
45.140000
 21
247.260000
 31
0.0
 11
43.549455
 21
250.836346
 31
0.0
 11
41.983225
 21
254.461932
 31
0.0
 11
40.440000
 21
258.140000
 31
0.0
 11
37.474237
 21
265.564204
 31
0.0
 11
34.724688
 21
273.030111
 31
0.0
 11
32.220000
 21
280.560000
 31
0.0
 11
31.064142
 21
284.327732
 31
0.0
 11
29.961411
 21
288.065695
 31
0.0
 11
28.900000
 21
291.780000
 31
0.0
 11
29.993074
 21
295.838442
 31
0.0
 11
32.933716
 21
300.196103
 31
0.0
 11
34.080000
 21
304.240000
 31
0.0
 11
32.260928
 21
311.736684
 31
0.0
 11
30.643894
 21
319.443126
 31
0.0
 11
29.200000
 21
327.280000
 31
0.0
 11
27.916197
 21
335.182965
 31
0.0
 11
26.819242
 21
343.115506
 31
0.0
 11
25.940000
 21
351.040000
 31
0.0
 11
23.449684
 21
354.607083
 31
0.0
 11
19.163845
 21
357.827084
 31
0.0
 11
16.720000
 21
361.340000
 31
0.0
 11
16.419584
 21
365.207178
 31
0.0
 11
16.143845
 21
369.065878
 31
0.0
 11
15.900000
 21
372.920000
 31
0.0
  0
SPLINE
  5
133
100
AcDbEntity
  8
0
 62
7
100
AcDbSpline
 70
0
 71
3
 72
10
 73
6
 74
4
 40
0.000000
 40
0.000000
 40
0.000000
 40
0.000000
 40
7.717586
 40
15.438465
 40
23.173225
 40
23.173225
 40
23.173225
 40
23.173225
 10
15.900000
 20
372.920000
 30
0.0
 10
13.508493
 20
373.868034
 30
0.0
 10
8.724459
 20
375.764507
 30
0.0
 10
1.601076
 20
378.753812
 30
0.0
 10
-3.104899
 20
380.850643
 30
0.0
 10
-5.460000
 20
381.900000
 30
0.0
 11
15.900000
 21
372.920000
 31
0.0
 11
8.735049
 21
375.787858
 31
0.0
 11
1.616584
 21
378.777746
 31
0.0
 11
-5.460000
 21
381.900000
 31
0.0
  0
LINE
  5
134
100
AcDbEntity
  8
0
 62
7
100
AcDbLine
 10
-16.400000
 20
387.080000
 30
0.0
 11
-15.700000
 21
388.520000
 31
0.0
  0
LINE
  5
135
100
AcDbEntity
  8
0
 62
7
100
AcDbLine
 10
-15.700000
 20
388.520000
 30
0.0
 11
-4.780000
 21
383.360000
 31
0.0
  0
SPLINE
  5
136
100
AcDbEntity
  8
0
 62
7
100
AcDbSpline
 70
0
 71
3
 72
10
 73
6
 74
4
 40
0.000000
 40
0.000000
 40
0.000000
 40
0.000000
 40
4.039508
 40
8.074771
 40
12.104809
 40
12.104809
 40
12.104809
 40
12.104809
 10
-5.460000
 20
381.900000
 30
0.0
 10
-6.683554
 20
382.462129
 30
0.0
 10
-9.129376
 20
383.585796
 30
0.0
 10
-12.779050
 20
385.306775
 30
0.0
 10
-15.193538
 20
386.489180
 30
0.0
 10
-16.400000
 20
387.080000
 30
0.0
 11
-5.460000
 21
381.900000
 31
0.0
 11
-9.127851
 21
383.592480
 31
0.0
 11
-12.776308
 21
385.316463
 31
0.0
 11
-16.400000
 21
387.080000
 31
0.0
  0
LINE
  5
137
100
AcDbEntity
  8
0
 62
7
100
AcDbLine
 10
-46.720000
 20
405.540000
 30
0.0
 11
-36.580000
 21
399.540000
 31
0.0
  0
LINE
  5
138
100
AcDbEntity
  8
0
 62
7
100
AcDbLine
 10
-36.580000
 20
399.540000
 30
0.0
 11
-37.340000
 21
398.160000
 31
0.0
  0
SPLINE
  5
139
100
AcDbEntity
  8
0
 62
7
100
AcDbSpline
 70
0
 71
3
 72
13
 73
9
 74
7
 40
0.000000
 40
0.000000
 40
0.000000
 40
0.000000
 40
15.082970
 40
43.641270
 40
61.683619
 40
79.729392
 40
108.104465
 40
123.067721
 40
123.067721
 40
123.067721
 40
123.067721
 10
-4.780000
 20
383.360000
 30
0.0
 10
-3.648941
 20
388.367788
 30
0.0
 10
-0.376318
 20
402.857389
 30
0.0
 10
3.152323
 20
419.717287
 30
0.0
 10
3.716273
 20
451.074300
 30
0.0
 10
-21.564651
 20
432.655794
 30
0.0
 10
-33.347057
 20
420.200916
 30
0.0
 10
-43.287799
 20
409.302763
 30
0.0
 10
-46.720000
 20
405.540000
 30
0.0
 11
-4.780000
 21
383.360000
 31
0.0
 11
-1.479526
 21
398.077434
 31
0.0
 11
2.905393
 21
426.297090
 31
0.0
 11
0.100000
 21
444.120000
 31
0.0
 11
-16.109096
 21
436.188095
 31
0.0
 11
-36.616770
 21
416.577381
 31
0.0
 11
-46.720000
 21
405.540000
 31
0.0
  0
SPLINE
  5
13a
100
AcDbEntity
  8
0
 62
7
100
AcDbSpline
 70
0
 71
3
 72
31
 73
27
 74
25
 40
0.000000
 40
0.000000
 40
0.000000
 40
0.000000
 40
3.912124
 40
7.857812
 40
11.844449
 40
19.839152
 40
27.795560
 40
35.731381
 40
39.675496
 40
43.578344
 40
47.444319
 40
51.644945
 40
56.899337
 40
61.100150
 40
68.814333
 40
76.688296
 40
84.656815
 40
92.665335
 40
100.677145
 40
108.652384
 40
113.004946
 40
118.368884
 40
122.650437
 40
126.526325
 40
130.389411
 40
134.248309
 40
134.248309
 40
134.248309
 40
134.248309
 10
-37.340000
 20
398.160000
 30
0.0
 10
-38.471127
 20
398.808922
 30
0.0
 10
-40.743084
 20
400.112334
 30
0.0
 10
-44.144446
 20
402.117164
 30
0.0
 10
-48.687778
 20
404.864080
 30
0.0
 10
-54.308464
 20
408.410731
 30
0.0
 10
-60.933900
 20
412.832850
 30
0.0
 10
-66.287635
 20
416.705605
 30
0.0
 10
-70.532513
 20
419.831837
 30
0.0
 10
-73.511858
 20
422.313032
 30
0.0
 10
-77.117436
 20
424.357666
 30
0.0
 10
-78.566099
 20
428.930269
 30
0.0
 10
-77.901943
 20
433.442015
 30
0.0
 10
-79.907648
 20
439.149070
 30
0.0
 10
-85.997680
 20
442.503622
 30
0.0
 10
-91.470311
 20
448.078012
 30
0.0
 10
-97.344572
 20
453.452944
 30
0.0
 10
-102.922492
 20
459.197385
 30
0.0
 10
-108.749600
 20
464.620061
 30
0.0
 10
-112.438234
 20
470.704968
 30
0.0
 10
-118.337709
 20
472.675879
 30
0.0
 10
-122.952810
 20
471.941765
 30
0.0
 10
-127.622213
 20
473.262306
 30
0.0
 10
-129.835349
 20
476.779545
 30
0.0
 10
-132.423725
 20
479.617902
 30
0.0
 10
-134.048202
 20
481.619663
 30
0.0
 10
-134.860000
 20
482.620000
 30
0.0
 11
-37.340000
 21
398.160000
 31
0.0
 11
-40.729554
 21
400.113367
 31
0.0
 11
-44.128938
 21
402.116524
 31
0.0
 11
-47.540000
 21
404.180000
 31
0.0
 11
-54.301047
 21
408.446557
 31
0.0
 11
-60.909850
 21
412.876926
 31
0.0
 11
-67.360000
 21
417.500000
 31
0.0
 11
-70.514683
 21
419.867280
 31
0.0
 11
-73.613131
 21
422.240430
 31
0.0
 11
-76.660000
 21
424.620000
 31
0.0
 11
-78.157783
 21
428.544526
 31
0.0
 11
-78.333818
 21
433.795968
 31
0.0
 11
-79.780000
 21
437.740000
 31
0.0
 11
-85.660545
 21
442.732776
 31
0.0
 11
-91.503024
 21
448.011481
 31
0.0
 11
-97.280000
 21
453.500000
 31
0.0
 11
-102.963042
 21
459.142645
 31
0.0
 11
-108.511599
 21
464.922143
 31
0.0
 11
-113.880000
 21
470.820000
 31
0.0
 11
-117.993118
 21
472.243747
 31
0.0
 11
-123.356317
 21
472.332760
 31
0.0
 11
-127.400000
 21
473.740000
 31
0.0
 11
-129.913534
 21
476.690365
 31
0.0
 11
-132.399910
 21
479.646946
 31
0.0
 11
-134.860000
 21
482.620000
 31
0.0
  0
SPLINE
  5
13b
100
AcDbEntity
  8
0
 62
7
100
AcDbSpline
 70
0
 71
3
 72
10
 73
6
 74
4
 40
0.000000
 40
0.000000
 40
0.000000
 40
0.000000
 40
7.718485
 40
15.440964
 40
23.176540
 40
23.176540
 40
23.176540
 40
23.176540
 10
-134.860000
 20
482.620000
 30
0.0
 10
-137.352154
 20
481.980656
 30
0.0
 10
-142.337751
 20
480.701636
 30
0.0
 10
-149.857482
 20
478.927017
 30
0.0
 10
-154.897737
 20
477.855975
 30
0.0
 10
-157.420000
 20
477.320000
 30
0.0
 11
-134.860000
 21
482.620000
 31
0.0
 11
-142.342532
 21
480.726132
 31
0.0
 11
-149.859427
 21
478.956116
 31
0.0
 11
-157.420000
 21
477.320000
 31
0.0
  0
LINE
  5
13c
100
AcDbEntity
  8
0
 62
7
100
AcDbLine
 10
-169.320000
 20
475.080000
 30
0.0
 11
-169.600000
 21
476.660000
 31
0.0
  0
LINE
  5
13d
100
AcDbEntity
  8
0
 62
7
100
AcDbLine
 10
-169.600000
 20
476.660000
 30
0.0
 11
-157.720000
 21
478.920000
 31
0.0
  0
SPLINE
  5
13e
100
AcDbEntity
  8
0
 62
7
100
AcDbSpline
 70
0
 71
3
 72
10
 73
6
 74
4
 40
0.000000
 40
0.000000
 40
0.000000
 40
0.000000
 40
4.040702
 40
8.078182
 40
12.109418
 40
12.109418
 40
12.109418
 40
12.109418
 10
-157.420000
 20
477.320000
 30
0.0
 10
-158.740685
 20
477.055543
 30
0.0
 10
-161.381001
 20
476.526841
 30
0.0
 10
-165.346787
 20
475.773957
 30
0.0
 10
-167.996279
 20
475.311200
 30
0.0
 10
-169.320000
 20
475.080000
 30
0.0
 11
-157.420000
 21
477.320000
 31
0.0
 11
-161.383369
 21
476.533249
 31
0.0
 11
-165.350589
 21
475.783309
 31
0.0
 11
-169.320000
 21
475.080000
 31
0.0
  0
LINE
  5
13f
100
AcDbEntity
  8
0
 62
7
100
AcDbLine
 10
-189.020000
 20
530.960000
 30
0.0
 11
-189.020000
 21
530.960000
 31
0.0
  0
SPLINE
  5
140
100
AcDbEntity
  8
0
 62
7
100
AcDbSpline
 70
0
 71
3
 72
10
 73
6
 74
4
 40
0.000000
 40
0.000000
 40
0.000000
 40
0.000000
 40
14.675942
 40
42.783981
 40
61.345187
 40
61.345187
 40
61.345187
 40
61.345187
 10
-157.720000
 20
478.920000
 30
0.0
 10
-159.669992
 20
483.391114
 30
0.0
 10
-165.354698
 20
496.425511
 30
0.0
 10
-173.120476
 20
515.845346
 30
0.0
 10
-184.495819
 20
526.659153
 30
0.0
 10
-189.020000
 20
530.960000
 30
0.0
 11
-157.720000
 21
478.920000
 31
0.0
 11
-163.538368
 21
492.393302
 31
0.0
 11
-176.312292
 21
517.431048
 31
0.0
 11
-189.020000
 21
530.960000
 31
0.0
  0
SPLINE
  5
141
100
AcDbEntity
  8
0
 62
7
100
AcDbSpline
 70
0
 71
3
 72
19
 73
15
 74
13
 40
0.000000
 40
0.000000
 40
0.000000
 40
0.000000
 40
2.200801
 40
7.009976
 40
11.780534
 40
15.725936
 40
19.696773
 40
23.686354
 40
27.688043
 40
31.696140
 40
35.705276
 40
40.606511
 40
45.573344
 40
47.850153
 40
47.850153
 40
47.850153
 40
47.850153
 10
-498.879144
 20
259.345776
 30
0.0
 10
-498.970904
 20
258.617891
 30
0.0
 10
-499.263177
 20
256.299437
 30
0.0
 10
-499.912569
 20
252.425827
 30
0.0
 10
-501.124731
 20
248.057345
 30
0.0
 10
-503.011084
 20
244.262144
 30
0.0
 10
-504.668675
 20
240.658295
 30
0.0
 10
-506.419243
 20
237.075104
 30
0.0
 10
-508.190693
 20
233.488399
 30
0.0
 10
-510.046581
 20
229.939786
 30
0.0
 10
-511.933353
 20
226.059299
 30
0.0
 10
-514.696742
 20
222.319983
 30
0.0
 10
-517.411926
 20
219.316542
 30
0.0
 10
-519.098898
 20
217.588858
 30
0.0
 10
-519.629144
 20
217.045816
 30
0.0
 11
-498.879144
 21
259.345776
 31
0.0
 11
-499.163703
 21
257.163449
 31
0.0
 11
-499.997987
 21
252.427191
 31
0.0
 11
-501.352904
 21
247.853088
 31
0.0
 11
-502.988698
 21
244.262771
 31
0.0
 11
-504.680163
 21
240.670210
 31
0.0
 11
-506.420032
 21
237.080000
 31
0.0
 11
-508.203312
 21
233.497623
 31
0.0
 11
-510.029666
 21
229.929812
 31
0.0
 11
-511.898808
 21
226.383056
 31
0.0
 11
-514.743161
 21
222.391595
 31
0.0
 11
-518.045079
 21
218.681234
 31
0.0
 11
-519.629144
 21
217.045816
 31
0.0
  0
SPLINE
  5
142
100
AcDbEntity
  8
0
 62
7
100
AcDbSpline
 70
0
 71
3
 72
19
 73
15
 74
13
 40
0.000000
 40
0.000000
 40
0.000000
 40
0.000000
 40
2.200801
 40
7.009976
 40
11.780534
 40
15.725936
 40
19.696773
 40
23.686354
 40
27.688042
 40
31.696140
 40
35.705275
 40
40.606511
 40
45.573344
 40
47.850152
 40
47.850152
 40
47.850152
 40
47.850152
 10
-409.838943
 20
406.253638
 30
0.0
 10
-410.341018
 20
405.718701
 30
0.0
 10
-411.940225
 20
404.014826
 30
0.0
 10
-414.742445
 20
401.262713
 30
0.0
 10
-418.290834
 20
398.441028
 30
0.0
 10
-422.047688
 20
396.479416
 30
0.0
 10
-425.506997
 20
394.538149
 30
0.0
 10
-429.029383
 20
392.668244
 30
0.0
 10
-432.570729
 20
390.807771
 30
0.0
 10
-436.157996
 20
389.027747
 30
0.0
 10
-439.965320
 20
386.997384
 30
0.0
 10
-444.398863
 20
385.596493
 30
0.0
 10
-448.360871
 20
384.762604
 30
0.0
 10
-450.741167
 20
384.356455
 30
0.0
 10
-451.489338
 20
384.228795
 30
0.0
 11
-409.838943
 21
406.253638
 31
0.0
 11
-411.351896
 21
404.655358
 31
0.0
 11
-414.810748
 21
401.314024
 31
0.0
 11
-418.595489
 21
398.409897
 31
0.0
 11
-422.029210
 21
396.466766
 31
0.0
 11
-425.509288
 21
394.554541
 31
0.0
 11
-429.027144
 21
392.672669
 31
0.0
 11
-432.575516
 21
390.822651
 31
0.0
 11
-436.150175
 21
389.009735
 31
0.0
 11
-439.747073
 21
387.239004
 31
0.0
 11
-444.394325
 21
385.681713
 31
0.0
 11
-449.246527
 21
384.620786
 31
0.0
 11
-451.489338
 21
384.228795
 31
0.0
  0
SPLINE
  5
143
100
AcDbEntity
  8
0
 62
7
100
AcDbSpline
 70
0
 71
3
 72
19
 73
15
 74
13
 40
0.000000
 40
0.000000
 40
0.000000
 40
0.000000
 40
2.200801
 40
7.009976
 40
11.780534
 40
15.725936
 40
19.696773
 40
23.686354
 40
27.688042
 40
31.696140
 40
35.705275
 40
40.606510
 40
45.573344
 40
47.850152
 40
47.850152
 40
47.850152
 40
47.850152
 10
-251.450493
 20
472.769429
 30
0.0
 10
-252.171108
 20
472.631769
 30
0.0
 10
-254.466407
 20
472.193295
 30
0.0
 10
-258.351101
 20
471.613892
 30
0.0
 10
-262.880353
 20
471.416792
 30
0.0
 10
-267.072719
 20
472.038038
 30
0.0
 10
-271.012407
 20
472.500851
 30
0.0
 10
-274.961180
 20
473.058473
 30
0.0
 10
-278.919747
 20
473.634869
 30
0.0
 10
-282.868179
 20
474.303343
 30
0.0
 10
-287.141786
 20
474.898632
 30
0.0
 10
-291.552021
 20
476.371259
 30
0.0
 10
-295.247501
 20
478.025439
 30
0.0
 10
-297.411929
 20
479.095961
 30
0.0
 10
-298.092248
 20
479.432445
 30
0.0
 11
-251.450493
 21
472.769429
 31
0.0
 11
-253.613943
 21
472.365685
 31
0.0
 11
-258.376200
 21
471.695552
 31
0.0
 11
-263.145123
 21
471.570679
 31
0.0
 11
-267.065205
 21
472.016942
 31
0.0
 11
-271.004625
 21
472.515459
 31
0.0
 11
-274.956767
 21
473.060736
 31
0.0
 11
-278.914874
 21
473.649721
 31
0.0
 11
-282.872438
 21
474.284173
 31
0.0
 11
-286.823200
 21
474.965825
 31
0.0
 11
-291.498258
 21
476.437536
 31
0.0
 11
-296.047370
 21
478.431282
 31
0.0
 11
-298.092248
 21
479.432445
 31
0.0
  0
SPLINE
  5
144
100
AcDbEntity
  8
0
 62
7
100
AcDbSpline
 70
0
 71
3
 72
19
 73
15
 74
13
 40
0.000000
 40
0.000000
 40
0.000000
 40
0.000000
 40
2.200801
 40
7.009976
 40
11.780534
 40
15.725936
 40
19.696773
 40
23.686354
 40
27.688042
 40
31.696140
 40
35.705275
 40
40.606510
 40
45.573344
 40
47.850152
 40
47.850152
 40
47.850152
 40
47.850152
 10
-84.214546
 20
433.483438
 30
0.0
 10
-84.878451
 20
433.795636
 30
0.0
 10
-86.993114
 20
434.790046
 30
0.0
 10
-90.476463
 20
436.604665
 30
0.0
 10
-94.256557
 20
439.107435
 30
0.0
 10
-97.283093
 20
442.074245
 30
0.0
 10
-100.198333
 20
444.764359
 30
0.0
 10
-103.065195
 20
447.536514
 30
0.0
 10
-105.928946
 20
450.329617
 30
0.0
 10
-108.730376
 20
453.191253
 30
0.0
 10
-111.837895
 20
456.184816
 30
0.0
 10
-114.540261
 20
459.968467
 30
0.0
 10
-116.557665
 20
463.478875
 30
0.0
 10
-117.679487
 20
465.617164
 30
0.0
 10
-118.032096
 20
466.289267
 30
0.0
 11
-84.214546
 21
433.483438
 31
0.0
 11
-86.202129
 21
434.428447
 31
0.0
 11
-90.448770
 21
436.685482
 31
0.0
 11
-94.380308
 21
439.387560
 31
0.0
 11
-97.289414
 21
442.052761
 31
0.0
 11
-100.183451
 21
444.771603
 31
0.0
 11
-103.060295
 21
447.535752
 31
0.0
 11
-105.916274
 21
450.338768
 31
0.0
 11
-108.745090
 21
453.178248
 31
0.0
 11
-111.540658
 21
456.051915
 31
0.0
 11
-114.457810
 21
459.990485
 31
0.0
 11
-116.966224
 21
464.277360
 31
0.0
 11
-118.032096
 21
466.289267
 31
0.0
  0
SPLINE
  5
145
100
AcDbEntity
  8
0
 62
7
100
AcDbSpline
 70
0
 71
3
 72
19
 73
15
 74
13
 40
0.000000
 40
0.000000
 40
0.000000
 40
0.000000
 40
2.200801
 40
7.009976
 40
11.780534
 40
15.725936
 40
19.696773
 40
23.686354
 40
27.688042
 40
31.696140
 40
35.705275
 40
40.606511
 40
45.573344
 40
47.850152
 40
47.850152
 40
47.850152
 40
47.850152
 10
27.990448
 20
303.401583
 30
0.0
 10
27.636844
 20
304.044390
 30
0.0
 10
26.510544
 20
306.091852
 30
0.0
 10
24.759062
 20
309.607371
 30
0.0
 10
23.171993
 20
313.854038
 30
0.0
 10
22.467321
 20
318.033191
 30
0.0
 10
21.690051
 20
321.923074
 30
0.0
 10
21.000144
 20
325.850894
 30
0.0
 10
20.325065
 20
329.793832
 30
0.0
 10
19.740688
 20
333.755583
 30
0.0
 10
18.986225
 20
338.003980
 30
0.0
 10
19.023939
 20
342.653429
 30
0.0
 10
19.455191
 20
346.679209
 30
0.0
 10
19.804473
 20
349.068512
 30
0.0
 10
19.914258
 20
349.819513
 30
0.0
 11
27.990448
 21
303.401583
 31
0.0
 11
26.937922
 21
305.334383
 31
0.0
 11
24.828969
 21
309.656475
 31
0.0
 11
23.236530
 21
314.153403
 31
0.0
 11
22.449579
 21
318.019526
 31
0.0
 11
21.706349
 21
321.920187
 31
0.0
 11
21.003660
 21
325.847397
 31
0.0
 11
20.340696
 21
329.793787
 31
0.0
 11
19.721140
 21
333.753711
 31
0.0
 11
19.148577
 21
337.721750
 31
0.0
 11
19.103585
 21
342.622779
 31
0.0
 11
19.593997
 21
347.565342
 31
0.0
 11
19.914258
 21
349.819513
 31
0.0
  0
LINE
  5
146
100
AcDbEntity
  8
0
 62
7
100
AcDbLine
 10
-242.660000
 20
287.860000
 30
0.0
 11
-241.940000
 21
283.260000
 31
0.0
  0
SPLINE
  5
147
100
AcDbEntity
  8
0
 62
7
100
AcDbSpline
 70
0
 71
3
 72
10
 73
6
 74
4
 40
0.000000
 40
0.000000
 40
0.000000
 40
0.000000
 40
4.883309
 40
9.800937
 40
14.758064
 40
14.758064
 40
14.758064
 40
14.758064
 10
-227.960000
 20
289.000000
 30
0.0
 10
-229.587874
 20
288.978376
 30
0.0
 10
-232.855063
 20
288.934975
 30
0.0
 10
-237.764364
 20
288.554874
 30
0.0
 10
-241.023776
 20
288.092241
 30
0.0
 10
-242.660000
 20
287.860000
 30
0.0
 11
-227.960000
 21
289.000000
 31
0.0
 11
-232.841913
 21
288.883236
 31
0.0
 11
-237.744914
 21
288.504231
 31
0.0
 11
-242.660000
 21
287.860000
 31
0.0
  0
LINE
  5
148
100
AcDbEntity
  8
0
 62
7
100
AcDbLine
 10
-214.260000
 20
283.220000
 30
0.0
 11
-213.520000
 21
287.820000
 31
0.0
  0
SPLINE
  5
149
100
AcDbEntity
  8
0
 62
7
100
AcDbSpline
 70
0
 71
3
 72
10
 73
6
 74
4
 40
0.000000
 40
0.000000
 40
0.000000
 40
0.000000
 40
9.375582
 40
18.622544
 40
27.782986
 40
27.782986
 40
27.782986
 40
27.782986
 10
-241.940000
 20
283.260000
 30
0.0
 10
-238.837213
 20
283.649740
 30
0.0
 10
-232.674206
 20
284.423874
 30
0.0
 10
-223.379010
 20
284.395825
 30
0.0
 10
-217.290130
 20
283.610711
 30
0.0
 10
-214.260000
 20
283.220000
 30
0.0
 11
-241.940000
 21
283.260000
 31
0.0
 11
-232.614548
 21
284.228239
 31
0.0
 11
-223.367623
 21
284.202299
 31
0.0
 11
-214.260000
 21
283.220000
 31
0.0
  0
LINE
  5
14a
100
AcDbEntity
  8
0
 62
7
100
AcDbLine
 10
-227.960000
 20
289.000000
 30
0.0
 11
-227.960000
 21
289.000000
 31
0.0
  0
SPLINE
  5
14b
100
AcDbEntity
  8
0
 62
7
100
AcDbSpline
 70
0
 71
3
 72
10
 73
6
 74
4
 40
0.000000
 40
0.000000
 40
0.000000
 40
0.000000
 40
4.814198
 40
9.646468
 40
14.501282
 40
14.501282
 40
14.501282
 40
14.501282
 10
-213.520000
 20
287.820000
 30
0.0
 10
-215.108353
 20
288.050217
 30
0.0
 10
-218.291022
 20
288.511515
 30
0.0
 10
-223.112800
 20
288.909103
 30
0.0
 10
-226.341762
 20
288.969654
 30
0.0
 10
-227.960000
 20
289.000000
 30
0.0
 11
-213.520000
 21
287.820000
 31
0.0
 11
-218.291249
 21
288.461631
 31
0.0
 11
-223.107279
 21
288.857463
 31
0.0
 11
-227.960000
 21
289.000000
 31
0.0
  0
LINE
  5
14c
100
AcDbEntity
  8
0
 62
7
100
AcDbLine
 10
-294.020000
 20
261.780000
 30
0.0
 11
-290.740000
 21
258.480000
 31
0.0
  0
SPLINE
  5
14d
100
AcDbEntity
  8
0
 62
7
100
AcDbSpline
 70
0
 71
3
 72
10
 73
6
 74
4
 40
0.000000
 40
0.000000
 40
0.000000
 40
0.000000
 40
9.644269
 40
19.381321
 40
29.252301
 40
29.252301
 40
29.252301
 40
29.252301
 10
-270.420000
 20
278.880000
 30
0.0
 10
-273.242521
 20
277.337319
 30
0.0
 10
-278.914718
 20
274.237117
 30
0.0
 10
-286.848025
 20
268.506125
 30
0.0
 10
-291.618481
 20
264.032228
 30
0.0
 10
-294.020000
 20
261.780000
 30
0.0
 11
-270.420000
 21
278.880000
 31
0.0
 11
-278.784575
 21
274.079396
 31
0.0
 11
-286.676742
 21
268.376423
 31
0.0
 11
-294.020000
 21
261.780000
 31
0.0
  0
LINE
  5
14e
100
AcDbEntity
  8
0
 62
7
100
AcDbLine
 10
-268.320000
 20
274.720000
 30
0.0
 11
-270.420000
 21
278.880000
 31
0.0
  0
LINE
  5
14f
100
AcDbEntity
  8
0
 62
7
100
AcDbLine
 10
-185.780000
 20
278.760000
 30
0.0
 11
-187.900000
 21
274.620000
 31
0.0
  0
SPLINE
  5
150
100
AcDbEntity
  8
0
 62
7
100
AcDbSpline
 70
0
 71
3
 72
10
 73
6
 74
4
 40
0.000000
 40
0.000000
 40
0.000000
 40
0.000000
 40
9.376567
 40
18.625356
 40
27.786764
 40
27.786764
 40
27.786764
 40
27.786764
 10
-290.740000
 20
258.480000
 30
0.0
 10
-288.458612
 20
260.619274
 30
0.0
 10
-283.926926
 20
264.868671
 30
0.0
 10
-276.389570
 20
270.310462
 30
0.0
 10
-271.001332
 20
273.254812
 30
0.0
 10
-268.320000
 20
274.720000
 30
0.0
 11
-290.740000
 21
258.480000
 31
0.0
 11
-283.763902
 21
264.745305
 31
0.0
 11
-276.266344
 21
270.160721
 31
0.0
 11
-268.320000
 21
274.720000
 31
0.0
  0
LINE
  5
151
100
AcDbEntity
  8
0
 62
7
100
AcDbLine
 10
-165.520000
 20
258.320000
 30
0.0
 11
-162.220000
 21
261.600000
 31
0.0
  0
SPLINE
  5
152
100
AcDbEntity
  8
0
 62
7
100
AcDbSpline
 70
0
 71
3
 72
10
 73
6
 74
4
 40
0.000000
 40
0.000000
 40
0.000000
 40
0.000000
 40
9.377508
 40
18.627688
 40
27.789647
 40
27.789647
 40
27.789647
 40
27.789647
 10
-187.900000
 20
274.620000
 30
0.0
 10
-185.159987
 20
273.111568
 30
0.0
 10
-179.717165
 20
270.115186
 30
0.0
 10
-172.209017
 20
264.631541
 30
0.0
 10
-167.742539
 20
260.417116
 30
0.0
 10
-165.520000
 20
258.320000
 30
0.0
 11
-187.900000
 21
274.620000
 31
0.0
 11
-179.783876
 21
269.922535
 31
0.0
 11
-172.313420
 21
264.467433
 31
0.0
 11
-165.520000
 21
258.320000
 31
0.0
  0
LINE
  5
153
100
AcDbEntity
  8
0
 62
7
100
AcDbLine
 10
-185.780000
 20
278.760000
 30
0.0
 11
-185.780000
 21
278.760000
 31
0.0
  0
SPLINE
  5
154
100
AcDbEntity
  8
0
 62
7
100
AcDbSpline
 70
0
 71
3
 72
10
 73
6
 74
4
 40
0.000000
 40
0.000000
 40
0.000000
 40
0.000000
 40
9.644937
 40
19.383385
 40
29.255193
 40
29.255193
 40
29.255193
 40
29.255193
 10
-162.220000
 20
261.600000
 30
0.0
 10
-164.559705
 20
263.807660
 30
0.0
 10
-169.261798
 20
268.244383
 30
0.0
 10
-177.165728
 20
274.017456
 30
0.0
 10
-182.895587
 20
277.172001
 30
0.0
 10
-185.780000
 20
278.760000
 30
0.0
 11
-162.220000
 21
261.600000
 31
0.0
 11
-169.371515
 21
268.071525
 31
0.0
 11
-177.236165
 21
273.814752
 31
0.0
 11
-185.780000
 21
278.760000
 31
0.0
  0
LINE
  5
155
100
AcDbEntity
  8
0
 62
7
100
AcDbLine
 10
-320.260000
 20
210.500000
 30
0.0
 11
-315.660000
 21
209.760000
 31
0.0
  0
SPLINE
  5
156
100
AcDbEntity
  8
0
 62
7
100
AcDbSpline
 70
0
 71
3
 72
10
 73
6
 74
4
 40
0.000000
 40
0.000000
 40
0.000000
 40
0.000000
 40
9.642689
 40
19.376783
 40
29.246169
 40
29.246169
 40
29.246169
 40
29.246169
 10
-311.220000
 20
238.200000
 30
0.0
 10
-312.596557
 20
235.293422
 30
0.0
 10
-315.362720
 20
229.452715
 30
0.0
 10
-318.411823
 20
220.155156
 30
0.0
 10
-319.641113
 20
213.733159
 30
0.0
 10
-320.260000
 20
210.500000
 30
0.0
 11
-311.220000
 21
238.200000
 31
0.0
 11
-315.164925
 21
229.401192
 31
0.0
 11
-318.196894
 21
220.151341
 31
0.0
 11
-320.260000
 21
210.500000
 31
0.0
  0
LINE
  5
157
100
AcDbEntity
  8
0
 62
7
100
AcDbLine
 10
-307.060000
 20
236.080000
 30
0.0
 11
-311.220000
 21
238.200000
 31
0.0
  0
LINE
  5
158
100
AcDbEntity
  8
0
 62
7
100
AcDbLine
 10
-145.100000
 20
237.960000
 30
0.0
 11
-149.260000
 21
235.860000
 31
0.0
  0
SPLINE
  5
159
100
AcDbEntity
  8
0
 62
7
100
AcDbSpline
 70
0
 71
3
 72
10
 73
6
 74
4
 40
0.000000
 40
0.000000
 40
0.000000
 40
0.000000
 40
9.377837
 40
18.629314
 40
27.792324
 40
27.792324
 40
27.792324
 40
27.792324
 10
-315.660000
 20
209.760000
 30
0.0
 10
-315.071245
 20
212.832029
 30
0.0
 10
-313.901668
 20
218.934693
 30
0.0
 10
-310.998216
 20
227.768111
 30
0.0
 10
-308.368528
 20
233.318258
 30
0.0
 10
-307.060000
 20
236.080000
 30
0.0
 11
-315.660000
 21
209.760000
 31
0.0
 11
-313.696937
 21
218.930072
 31
0.0
 11
-310.810791
 21
227.719838
 31
0.0
 11
-307.060000
 21
236.080000
 31
0.0
  0
LINE
  5
15a
100
AcDbEntity
  8
0
 62
7
100
AcDbLine
 10
-140.740000
 20
209.520000
 30
0.0
 11
-136.140000
 21
210.240000
 31
0.0
  0
SPLINE
  5
15b
100
AcDbEntity
  8
0
 62
7
100
AcDbSpline
 70
0
 71
3
 72
10
 73
6
 74
4
 40
0.000000
 40
0.000000
 40
0.000000
 40
0.000000
 40
9.376616
 40
18.625331
 40
27.786619
 40
27.786619
 40
27.786619
 40
27.786619
 10
-149.260000
 20
235.860000
 30
0.0
 10
-147.930231
 20
233.029279
 30
0.0
 10
-145.288833
 20
227.406450
 30
0.0
 10
-142.440647
 20
218.557057
 30
0.0
 10
-141.305085
 20
212.522800
 30
0.0
 10
-140.740000
 20
209.520000
 30
0.0
 11
-149.260000
 21
235.860000
 31
0.0
 11
-145.456283
 21
227.289547
 31
0.0
 11
-142.621349
 21
218.486032
 31
0.0
 11
-140.740000
 21
209.520000
 31
0.0
  0
LINE
  5
15c
100
AcDbEntity
  8
0
 62
7
100
AcDbLine
 10
-145.100000
 20
237.960000
 30
0.0
 11
-145.100000
 21
237.960000
 31
0.0
  0
SPLINE
  5
15d
100
AcDbEntity
  8
0
 62
7
100
AcDbSpline
 70
0
 71
3
 72
10
 73
6
 74
4
 40
0.000000
 40
0.000000
 40
0.000000
 40
0.000000
 40
9.641412
 40
19.372764
 40
29.240503
 40
29.240503
 40
29.240503
 40
29.240503
 10
-136.140000
 20
210.240000
 30
0.0
 10
-136.734228
 20
213.400242
 30
0.0
 10
-137.928226
 20
219.750207
 30
0.0
 10
-140.921779
 20
229.063819
 30
0.0
 10
-143.700813
 20
234.980881
 30
0.0
 10
-145.100000
 20
237.960000
 30
0.0
 11
-136.140000
 21
210.240000
 31
0.0
 11
-138.118186
 21
219.676292
 31
0.0
 11
-141.098273
 21
228.940108
 31
0.0
 11
-145.100000
 21
237.960000
 31
0.0
  0
SPLINE
  5
15e
100
AcDbEntity
  8
0
 62
1
100
AcDbSpline
 70
0
 71
3
 72
10
 73
6
 74
4
 40
0.000000
 40
0.000000
 40
0.000000
 40
0.000000
 40
6.872142
 40
13.520389
 40
20.275596
 40
20.275596
 40
20.275596
 40
20.275596
 10
-233.220376
 20
259.287000
 30
0.0
 10
-235.307478
 20
258.265575
 30
0.0
 10
-239.413684
 20
256.256003
 30
0.0
 10
-243.161921
 20
250.061625
 30
0.0
 10
-243.071063
 20
245.534137
 30
0.0
 10
-243.025272
 20
243.252328
 30
0.0
 11
-233.220376
 21
259.287000
 31
0.0
 11
-239.066576
 21
255.674761
 31
0.0
 11
-242.510186
 21
249.987869
 31
0.0
 11
-243.025272
 21
243.252328
 31
0.0
  0
SPLINE
  5
15f
100
AcDbEntity
  8
0
 62
1
100
AcDbSpline
 70
0
 71
3
 72
10
 73
6
 74
4
 40
0.000000
 40
0.000000
 40
0.000000
 40
0.000000
 40
0.006760
 40
0.013430
 40
0.020088
 40
0.020088
 40
0.020088
 40
0.020088
 10
-243.025272
 20
243.252328
 30
0.0
 10
-243.027398
 20
243.251580
 30
0.0
 10
-243.031620
 20
243.250093
 30
0.0
 10
-243.038040
 20
243.248180
 30
0.0
 10
-243.042223
 20
243.246678
 30
0.0
 10
-243.044312
 20
243.245928
 30
0.0
 11
-243.025272
 21
243.252328
 31
0.0
 11
-243.031666
 21
243.250135
 31
0.0
 11
-243.038025
 21
243.248121
 31
0.0
 11
-243.044312
 21
243.245928
 31
0.0
  0
SPLINE
  5
160
100
AcDbEntity
  8
0
 62
1
100
AcDbSpline
 70
0
 71
3
 72
10
 73
6
 74
4
 40
0.000000
 40
0.000000
 40
0.000000
 40
0.000000
 40
10.037921
 40
19.767353
 40
29.338906
 40
29.338906
 40
29.338906
 40
29.338906
 10
-243.044312
 20
243.245928
 30
0.0
 10
-246.163232
 20
242.010136
 30
0.0
 10
-252.305220
 20
239.576530
 30
0.0
 10
-260.298655
 20
233.695845
 30
0.0
 10
-264.384393
 20
228.706804
 30
0.0
 10
-266.410552
 20
226.232688
 30
0.0
 11
-243.044312
 21
243.245928
 31
0.0
 11
-252.206039
 21
239.144391
 31
0.0
 11
-260.043641
 21
233.379510
 31
0.0
 11
-266.410552
 21
226.232688
 31
0.0
  0
SPLINE
  5
161
100
AcDbEntity
  8
0
 62
1
100
AcDbSpline
 70
0
 71
3
 72
16
 73
12
 74
10
 40
0.000000
 40
0.000000
 40
0.000000
 40
0.000000
 40
3.684998
 40
7.421033
 40
11.287568
 40
18.844881
 40
26.175961
 40
33.729629
 40
39.132426
 40
44.344873
 40
49.541826
 40
49.541826
 40
49.541826
 40
49.541826
 10
-266.410552
 20
226.232688
 30
0.0
 10
-267.550366
 20
226.708258
 30
0.0
 10
-269.845779
 20
227.665985
 30
0.0
 10
-273.664584
 20
227.929101
 30
0.0
 10
-278.677354
 20
227.027922
 30
0.0
 10
-284.194395
 20
223.445422
 30
0.0
 10
-287.744271
 20
216.494562
 30
0.0
 10
-287.382920
 20
209.392860
 30
0.0
 10
-284.396855
 20
203.996396
 30
0.0
 10
-280.284809
 20
200.426266
 30
0.0
 10
-276.897117
 20
199.518390
 30
0.0
 10
-275.205792
 20
199.065128
 30
0.0
 11
-266.410552
 21
226.232688
 31
0.0
 11
-269.883072
 21
227.465902
 31
0.0
 11
-273.606371
 21
227.774124
 31
0.0
 11
-277.409200
 21
227.075136
 31
0.0
 11
-283.739295
 21
222.946834
 31
0.0
 11
-287.073607
 21
216.417891
 31
0.0
 11
-286.699280
 21
208.873504
 31
0.0
 11
-284.102397
 21
204.135738
 31
0.0
 11
-280.110104
 21
200.784440
 31
0.0
 11
-275.205792
 21
199.065128
 31
0.0
  0
SPLINE
  5
162
100
AcDbEntity
  8
0
 62
1
100
AcDbSpline
 70
0
 71
3
 72
13
 73
9
 74
7
 40
0.000000
 40
0.000000
 40
0.000000
 40
0.000000
 40
4.825351
 40
9.723006
 40
14.719329
 40
19.723134
 40
24.626737
 40
29.458701
 40
29.458701
 40
29.458701
 40
29.458701
 10
-275.205792
 20
199.065128
 30
0.0
 10
-275.161869
 20
197.455850
 30
0.0
 10
-275.073365
 20
194.213180
 30
0.0
 10
-274.296209
 20
189.355091
 30
0.0
 10
-273.025271
 20
184.545821
 30
0.0
 10
-271.226876
 20
179.905883
 30
0.0
 10
-268.999868
 20
175.511319
 30
0.0
 10
-267.162420
 20
172.832873
 30
0.0
 10
-266.250456
 20
171.503504
 30
0.0
 11
-275.205792
 21
199.065128
 31
0.0
 11
-274.969383
 21
194.245571
 31
0.0
 11
-274.222596
 21
189.405186
 31
0.0
 11
-272.937648
 21
184.576920
 31
0.0
 11
-271.137894
 21
179.907985
 31
0.0
 11
-268.896071
 21
175.546844
 31
0.0
 11
-266.250456
 21
171.503504
 31
0.0
  0
SPLINE
  5
163
100
AcDbEntity
  8
0
 62
1
100
AcDbSpline
 70
0
 71
3
 72
16
 73
12
 74
10
 40
0.000000
 40
0.000000
 40
0.000000
 40
0.000000
 40
5.187544
 40
10.389244
 40
15.781355
 40
23.338672
 40
30.669751
 40
38.223420
 40
42.090638
 40
45.830401
 40
49.518568
 40
49.518568
 40
49.518568
 40
49.518568
 10
-266.250456
 20
171.503504
 30
0.0
 10
-267.348449
 20
170.143791
 30
0.0
 10
-269.547430
 20
167.420654
 30
0.0
 10
-270.773473
 20
162.126252
 30
0.0
 10
-270.015745
 20
156.011558
 30
0.0
 10
-266.140425
 20
150.054839
 30
0.0
 10
-259.192078
 20
146.501782
 30
0.0
 10
-252.620604
 20
146.838276
 30
0.0
 10
-248.037398
 20
149.062706
 30
0.0
 10
-245.108334
 20
151.530505
 30
0.0
 10
-243.814754
 20
153.657242
 30
0.0
 10
-243.172456
 20
154.713224
 30
0.0
 11
-266.250456
 21
171.503504
 31
0.0
 11
-269.197420
 21
167.234309
 31
0.0
 11
-270.453631
 21
162.186576
 31
0.0
 11
-269.770824
 21
156.837872
 31
0.0
 11
-265.642517
 21
150.507776
 31
0.0
 11
-259.113571
 21
147.173470
 31
0.0
 11
-251.569184
 21
147.547800
 31
0.0
 11
-248.083383
 21
149.222486
 31
0.0
 11
-245.255318
 21
151.669498
 31
0.0
 11
-243.172456
 21
154.713224
 31
0.0
  0
SPLINE
  5
164
100
AcDbEntity
  8
0
 62
1
100
AcDbSpline
 70
0
 71
3
 72
13
 73
9
 74
7
 40
0.000000
 40
0.000000
 40
0.000000
 40
0.000000
 40
9.571395
 40
19.301143
 40
29.338783
 40
29.398849
 40
29.458756
 40
29.518778
 40
29.518778
 40
29.518778
 40
29.518778
 10
-243.172456
 20
154.713224
 30
0.0
 10
-240.076630
 20
153.895603
 30
0.0
 10
-233.833760
 20
152.246835
 30
0.0
 10
-223.947560
 20
152.297851
 30
0.0
 10
-217.431601
 20
153.655489
 30
0.0
 10
-214.211554
 20
154.702082
 30
0.0
 10
-214.154465
 20
154.720537
 30
0.0
 10
-214.116460
 20
154.732938
 30
0.0
 10
-214.097440
 20
154.739144
 30
0.0
 11
-243.172456
 21
154.713224
 31
0.0
 11
-233.820801
 21
152.674071
 31
0.0
 11
-224.091220
 21
152.616910
 31
0.0
 11
-214.268632
 21
154.683544
 31
0.0
 11
-214.211499
 21
154.702083
 31
0.0
 11
-214.154509
 21
154.720551
 31
0.0
 11
-214.097440
 21
154.739144
 31
0.0
  0
SPLINE
  5
165
100
AcDbEntity
  8
0
 62
1
100
AcDbSpline
 70
0
 71
3
 72
16
 73
12
 74
10
 40
0.000000
 40
0.000000
 40
0.000000
 40
0.000000
 40
6.732552
 40
13.358337
 40
20.208231
 40
27.765546
 40
35.096626
 40
42.650290
 40
44.978133
 40
47.245559
 40
49.474086
 40
49.474086
 40
49.474086
 40
49.474086
 10
-214.097440
 20
154.739144
 30
0.0
 10
-212.787603
 20
152.865794
 30
0.0
 10
-210.188701
 20
149.148801
 30
0.0
 10
-203.588570
 20
146.533238
 30
0.0
 10
-196.373112
 20
147.057205
 30
0.0
 10
-189.996615
 20
151.211792
 30
0.0
 10
-186.440526
 20
158.157802
 30
0.0
 10
-186.752257
 20
164.196578
 30
0.0
 10
-188.320434
 20
167.938178
 30
0.0
 10
-189.504863
 20
169.897711
 30
0.0
 10
-190.520320
 20
171.003905
 30
0.0
 10
-191.023656
 20
171.552216
 30
0.0
 11
-214.097440
 21
154.739144
 31
0.0
 11
-209.719849
 21
149.624073
 31
0.0
 11
-203.608181
 21
147.065060
 31
0.0
 11
-196.777736
 21
147.580880
 31
0.0
 11
-190.447639
 21
151.709183
 31
0.0
 11
-187.113331
 21
158.238129
 31
0.0
 11
-187.487656
 21
165.782512
 31
0.0
 11
-188.380701
 21
167.932239
 31
0.0
 11
-189.571406
 21
169.861860
 31
0.0
 11
-191.023656
 21
171.552216
 31
0.0
  0
SPLINE
  5
166
100
AcDbEntity
  8
0
 62
1
100
AcDbSpline
 70
0
 71
3
 72
10
 73
6
 74
4
 40
0.000000
 40
0.000000
 40
0.000000
 40
0.000000
 40
9.780573
 40
19.582328
 40
29.496699
 40
29.496699
 40
29.496699
 40
29.496699
 10
-191.023656
 20
171.552216
 30
0.0
 10
-189.271468
 20
174.310657
 30
0.0
 10
-185.763296
 20
179.833513
 30
0.0
 10
-182.675807
 20
189.320837
 30
0.0
 10
-182.287289
 20
195.898252
 30
0.0
 10
-182.091920
 20
199.205744
 30
0.0
 11
-191.023656
 21
171.552216
 31
0.0
 11
-186.130913
 21
180.021022
 31
0.0
 11
-183.101628
 21
189.342922
 31
0.0
 11
-182.091920
 21
199.205744
 31
0.0
  0
SPLINE
  5
167
100
AcDbEntity
  8
0
 62
1
100
AcDbSpline
 70
0
 71
3
 72
19
 73
15
 74
13
 40
0.000000
 40
0.000000
 40
0.000000
 40
0.000000
 40
0.728628
 40
1.464043
 40
2.207694
 40
9.765011
 40
17.096088
 40
24.649751
 40
32.208423
 40
39.546309
 40
47.104981
 40
47.869744
 40
48.626132
 40
49.375887
 40
49.375887
 40
49.375887
 40
49.375887
 10
-182.091920
 20
199.205744
 30
0.0
 10
-181.852863
 20
199.248939
 30
0.0
 10
-181.372522
 20
199.335730
 30
0.0
 10
-180.658311
 20
199.515639
 30
0.0
 10
-177.772746
 20
200.375000
 30
0.0
 10
-173.160096
 20
203.362541
 30
0.0
 10
-169.619406
 20
210.318977
 30
0.0
 10
-170.002055
 20
218.150294
 30
0.0
 10
-174.298053
 20
224.714491
 30
0.0
 10
-181.247358
 20
228.261971
 30
0.0
 10
-186.754432
 20
227.996856
 30
0.0
 10
-189.599768
 20
226.966283
 30
0.0
 10
-190.294893
 20
226.665036
 30
0.0
 10
-190.744510
 20
226.441591
 30
0.0
 10
-190.968328
 20
226.330360
 30
0.0
 11
-182.091920
 21
199.205744
 31
0.0
 11
-181.376410
 21
199.343382
 31
0.0
 11
-180.662504
 21
199.519944
 31
0.0
 11
-179.950152
 21
199.733416
 31
0.0
 11
-173.620056
 21
203.861723
 31
0.0
 11
-170.285750
 21
210.390666
 31
0.0
 11
-170.660080
 21
217.935048
 31
0.0
 11
-174.793323
 21
224.263542
 31
0.0
 11
-181.331426
 21
227.594874
 31
0.0
 11
-188.880744
 21
227.218952
 31
0.0
 11
-189.599598
 21
226.957968
 31
0.0
 11
-190.294045
 21
226.658192
 31
0.0
 11
-190.968328
 21
226.330360
 31
0.0
  0
SPLINE
  5
168
100
AcDbEntity
  8
0
 62
1
100
AcDbSpline
 70
0
 71
3
 72
10
 73
6
 74
4
 40
0.000000
 40
0.000000
 40
0.000000
 40
0.000000
 40
9.893751
 40
19.678605
 40
29.444206
 40
29.444206
 40
29.444206
 40
29.444206
 10
-190.968328
 20
226.330360
 30
0.0
 10
-193.078760
 20
228.875631
 30
0.0
 10
-197.276395
 20
233.938158
 30
0.0
 10
-205.364976
 20
239.747772
 30
0.0
 10
-211.448717
 20
242.125857
 30
0.0
 10
-214.487592
 20
243.313728
 30
0.0
 11
-190.968328
 21
226.330360
 31
0.0
 11
-197.605039
 21
233.667960
 31
0.0
 11
-205.548881
 21
239.380992
 31
0.0
 11
-214.487592
 21
243.313728
 31
0.0
  0
LINE
  5
169
100
AcDbEntity
  8
0
 62
1
100
AcDbLine
 10
-233.220376
 20
259.286752
 30
0.0
 11
-233.220376
 21
259.287000
 31
0.0
  0
LINE
  5
16a
100
AcDbEntity
  8
0
 62
7
100
AcDbLine
 10
-146.288582
 20
195.560000
 30
0.0
 11
-124.366419
 21
195.558720
 31
0.0
  0
LINE
  5
16b
100
AcDbEntity
  8
0
 62
7
100
AcDbLine
 10
-56.091342
 20
195.526984
 30
0.0
 11
33.326006
 21
195.597464
 31
0.0
  0
SPLINE
  5
16c
100
AcDbEntity
  8
0
 62
1
100
AcDbSpline
 70
0
 71
3
 72
13
 73
9
 74
7
 40
0.000000
 40
0.000000
 40
0.000000
 40
0.000000
 40
2.215466
 40
4.471655
 40
6.783546
 40
14.337215
 40
21.668291
 40
29.225608
 40
29.225608
 40
29.225608
 40
29.225608
 10
-214.487592
 20
243.313728
 30
0.0
 10
-214.404562
 20
244.048916
 30
0.0
 10
-214.236976
 20
245.532806
 30
0.0
 10
-214.419683
 20
247.800616
 30
0.0
 10
-215.343048
 20
251.746847
 30
0.0
 10
-218.625310
 20
256.757735
 30
0.0
 10
-225.658832
 20
260.503606
 30
0.0
 10
-230.674456
 20
259.696458
 30
0.0
 10
-233.220376
 20
259.286752
 30
0.0
 11
-214.487592
 21
243.313728
 31
0.0
 11
-214.309203
 21
245.522000
 31
0.0
 11
-214.473053
 21
247.772232
 31
0.0
 11
-215.005896
 21
250.021880
 31
0.0
 11
-219.137536
 21
256.345445
 31
0.0
 11
-225.672662
 21
259.667614
 31
0.0
 11
-233.220376
 21
259.286752
 31
0.0
  0
SPLINE
  5
16d
100
AcDbEntity
  8
0
 62
7
100
AcDbSpline
 70
0
 71
3
 72
16
 73
12
 74
10
 40
0.000000
 40
0.000000
 40
0.000000
 40
0.000000
 40
64.500713
 40
127.094220
 40
191.608868
 40
256.125369
 40
318.722472
 40
383.225054
 40
397.366413
 40
411.484696
 40
425.626153
 40
425.626153
 40
425.626153
 40
425.626153
 10
-350.821656
 20
181.876026
 30
0.0
 10
-349.903012
 20
203.866587
 30
0.0
 10
-348.092887
 20
247.197475
 30
0.0
 10
-304.595572
 20
299.601147
 30
0.0
 10
-242.896573
 20
324.193727
 30
0.0
 10
-176.586679
 20
314.092379
 30
0.0
 10
-124.432443
 20
272.649283
 30
0.0
 10
-106.219663
 20
226.466236
 30
0.0
 10
-104.573771
 20
195.576693
 30
0.0
 10
-105.317145
 20
181.411037
 30
0.0
 10
-107.171482
 20
172.165442
 30
0.0
 10
-108.099410
 20
167.538853
 30
0.0
 11
-350.821656
 21
181.876026
 31
0.0
 11
-341.100890
 21
245.640034
 31
0.0
 11
-302.104442
 21
294.601489
 31
0.0
 11
-242.121211
 21
318.353369
 31
0.0
 11
-178.340853
 21
308.635092
 31
0.0
 11
-129.366840
 21
269.648642
 31
0.0
 11
-105.608873
 21
209.680800
 31
0.0
 11
-104.822984
 21
195.561296
 31
0.0
 11
-105.655904
 21
181.467603
 31
0.0
 11
-108.099410
 21
167.538853
 31
0.0
  0
ENDSEC
  0
SECTION
  2
OBJECTS
  0
DICTIONARY
  5
C
330
0
100
AcDbDictionary
  3
ACAD_GROUP
350
D
  3
ACAD_MLINESTYLE
350
17
  0
DICTIONARY
  5
D
330
C
100
AcDbDictionary
  0
DICTIONARY
  5
1A
330
C
100
AcDbDictionary
  0
DICTIONARY
  5
17
330
C
100
AcDbDictionary
  3
STANDARD
350
18
  0
DICTIONARY
  5
19
330
C
100
AcDbDictionary
  0
ENDSEC
  0
EOF
