  0
SECTION
  2
HEADER
  9
$ACADVER
  1
AC1014
  9
$HANDSEED
  5
FFFF
  9
$MEASUREMENT
 70
     1
  0
ENDSEC
  0
SECTION
  2
TABLES
  0
TABLE
  2
VPORT
  5
8
330
0
100
AcDbSymbolTable
 70
     4
  0
VPORT
  5
2E
330
8
100
AcDbSymbolTableRecord
100
AcDbViewportTableRecord
  2
*ACTIVE
 70
     0
 10
0.0
 20
0.0
 11
1.0
 21
1.0
 12
210.0
 22
148.5
 13
0.0
 23
0.0
 14
10.0
 24
10.0
 15
10.0
 25
10.0
 16
0.0
 26
0.0
 36
1.0
 17
0.0
 27
0.0
 37
0.0
 40
341.0
 41
1.24
 42
50.0
 43
0.0
 44
0.0
 50
0.0
 51
0.0
 71
     0
 72
   100
 73
     1
 74
     3
 75
     0
 76
     0
 77
     0
 78
     0
  0
ENDTAB
  0
TABLE
  2
LTYPE
  5
5
330
0
100
AcDbSymbolTable
 70
     1
  0
LTYPE
  5
14
330
5
100
AcDbSymbolTableRecord
100
AcDbLinetypeTableRecord
  2
BYBLOCK
 70
     0
  3

 72
    65
 73
     0
 40
0.0
  0
LTYPE
  5
15
330
5
100
AcDbSymbolTableRecord
100
AcDbLinetypeTableRecord
  2
BYLAYER
 70
     0
  3

 72
    65
 73
     0
 40
0.0
  0
LTYPE
  5
16
330
5
100
AcDbSymbolTableRecord
100
AcDbLinetypeTableRecord
  2
CONTINUOUS
 70
     0
  3
Solid line
 72
    65
 73
     0
 40
0.0
  0
ENDTAB
  0
TABLE
  2
LAYER
  5
2
100
AcDbSymbolTable
 70
1
  0
LAYER
  5
50
100
AcDbSymbolTableRecord
100
AcDbLayerTableRecord
  2
0
 70
0
  6
CONTINUOUS
  0
ENDTAB
  0
TABLE
  2
STYLE
  5
3
330
0
100
AcDbSymbolTable
 70
     1
  0
STYLE
  5
11
330
3
100
AcDbSymbolTableRecord
100
AcDbTextStyleTableRecord
  2
STANDARD
 70
     0
 40
0.0
 41
1.0
 50
0.0
 71
     0
 42
2.5
  3
txt
  4

  0
ENDTAB
  0
TABLE
  2
VIEW
  5
6
330
0
100
AcDbSymbolTable
 70
     0
  0
ENDTAB
  0
TABLE
  2
UCS
  5
7
330
0
100
AcDbSymbolTable
 70
     0
  0
ENDTAB
  0
TABLE
  2
APPID
  5
9
330
0
100
AcDbSymbolTable
 70
     2
  0
APPID
  5
12
330
9
100
AcDbSymbolTableRecord
100
AcDbRegAppTableRecord
  2
ACAD
 70
     0
  0
ENDTAB
  0
TABLE
  2
DIMSTYLE
  5
A
330
0
100
AcDbSymbolTable
 70
     1
  0
DIMSTYLE
105
27
330
A
100
AcDbSymbolTableRecord
100
AcDbDimStyleTableRecord
  2
ISO-25
 70
     0
  3

  4

  5

  6

  7

 40
1.0
 41
2.5
 42
0.625
 43
3.75
 44
1.25
 45
0.0
 46
0.0
 47
0.0
 48
0.0
140
2.5
141
2.5
142
0.0
143
0.03937007874016
144
1.0
145
0.0
146
1.0
147
0.625
 71
     0
 72
     0
 73
     0
 74
     0
 75
     0
 76
     0
 77
     1
 78
     8
170
     0
171
     3
172
     1
173
     0
174
     0
175
     0
176
     0
177
     0
178
     0
270
     2
271
     2
272
     2
273
     2
274
     3
340
11
275
     0
280
     0
281
     0
282
     0
283
     0
284
     8
285
     0
286
     0
287
     3
288
     0
  0
ENDTAB
  0
TABLE
  2
BLOCK_RECORD
  5
1
330
0
100
AcDbSymbolTable
 70
     1
  0
BLOCK_RECORD
  5
1F
330
1
100
AcDbSymbolTableRecord
100
AcDbBlockTableRecord
  2
*MODEL_SPACE
  0
BLOCK_RECORD
  5
1B
330
1
100
AcDbSymbolTableRecord
100
AcDbBlockTableRecord
  2
*PAPER_SPACE
  0
ENDTAB
  0
ENDSEC
  0
SECTION
  2
BLOCKS
  0
BLOCK
  5
20
330
1F
100
AcDbEntity
  8
0
100
AcDbBlockBegin
  2
*MODEL_SPACE
 70
     0
 10
0.0
 20
0.0
 30
0.0
  3
*MODEL_SPACE
  1

  0
ENDBLK
  5
21
330
1F
100
AcDbEntity
  8
0
100
AcDbBlockEnd
  0
BLOCK
  5
1C
330
1B
100
AcDbEntity
 67
     1
  8
0
100
AcDbBlockBegin
  2
*PAPER_SPACE
  1

  0
ENDBLK
  5
1D
330
1B
100
AcDbEntity
 67
     1
  8
0
100
AcDbBlockEnd
  0
ENDSEC
  0
SECTION
  2
ENTITIES
  0
SPLINE
  5
100
100
AcDbEntity
  8
0
 62
7
100
AcDbSpline
 70
0
 71
3
 72
13
 73
9
 74
7
 40
0.000000
 40
0.000000
 40
0.000000
 40
0.000000
 40
7.206461
 40
14.353284
 40
21.559745
 40
28.766206
 40
35.913030
 40
43.119491
 40
43.119491
 40
43.119491
 40
43.119491
 10
444.510970
 20
481.322100
 30
0.0
 10
444.694527
 20
478.912931
 30
0.0
 10
445.060121
 20
474.114529
 30
0.0
 10
447.948770
 20
467.401827
 30
0.0
 10
452.343488
 20
461.625161
 30
0.0
 10
458.120375
 20
457.230732
 30
0.0
 10
464.833221
 20
454.342420
 30
0.0
 10
469.631641
 20
453.977066
 30
0.0
 10
472.040820
 20
453.793630
 30
0.0
 11
444.510970
 21
481.322100
 31
0.0
 11
445.454260
 21
474.177642
 31
0.0
 11
448.189365
 21
467.574894
 31
0.0
 11
452.574487
 21
461.856171
 31
0.0
 11
458.293429
 21
457.471336
 31
0.0
 11
464.896314
 21
454.736561
 31
0.0
 11
472.040820
 21
453.793630
 31
0.0
  0
SPLINE
  5
101
100
AcDbEntity
  8
0
 62
7
100
AcDbSpline
 70
0
 71
3
 72
10
 73
6
 74
4
 40
0.000000
 40
0.000000
 40
0.000000
 40
0.000000
 40
4.314991
 40
8.616893
 40
12.931885
 40
12.931885
 40
12.931885
 40
12.931885
 10
472.040820
 20
453.793630
 30
0.0
 10
473.479481
 20
453.861362
 30
0.0
 10
476.352438
 20
453.996621
 30
0.0
 10
480.578549
 20
455.009312
 30
0.0
 10
483.200789
 20
456.190852
 30
0.0
 10
484.513900
 20
456.782520
 30
0.0
 11
472.040820
 21
453.793630
 31
0.0
 11
476.342515
 21
454.132118
 31
0.0
 11
480.525983
 21
455.134591
 31
0.0
 11
484.513900
 21
456.782520
 31
0.0
  0
SPLINE
  5
102
100
AcDbEntity
  8
0
 62
7
100
AcDbSpline
 70
0
 71
3
 72
10
 73
6
 74
4
 40
0.000000
 40
0.000000
 40
0.000000
 40
0.000000
 40
19.664028
 40
39.215823
 40
58.879851
 40
58.879851
 40
58.879851
 40
58.879851
 10
484.513900
 20
456.782520
 30
0.0
 10
488.653958
 20
451.678936
 30
0.0
 10
496.910444
 20
441.500897
 30
0.0
 10
513.017940
 20
429.764840
 30
0.0
 10
525.236464
 20
425.024615
 30
0.0
 10
531.363210
 20
422.647720
 30
0.0
 11
484.513900
 21
456.782520
 31
0.0
 11
497.555518
 21
442.065517
 31
0.0
 11
513.357715
 21
430.551904
 31
0.0
 11
531.363210
 21
422.647720
 31
0.0
  0
SPLINE
  5
103
100
AcDbEntity
  8
0
 62
7
100
AcDbSpline
 70
0
 71
3
 72
10
 73
6
 74
4
 40
0.000000
 40
0.000000
 40
0.000000
 40
0.000000
 40
1.396669
 40
2.792889
 40
4.189558
 40
4.189558
 40
4.189558
 40
4.189558
 10
531.363210
 20
422.647720
 30
0.0
 10
531.295848
 20
422.186998
 30
0.0
 10
531.161145
 20
421.265702
 30
0.0
 10
531.043460
 20
419.872949
 30
0.0
 10
531.021661
 20
418.942113
 30
0.0
 10
531.010760
 20
418.476620
 30
0.0
 11
531.363210
 21
422.647720
 31
0.0
 11
531.175191
 21
421.263764
 31
0.0
 11
531.057632
 21
419.872502
 31
0.0
 11
531.010760
 21
418.476620
 31
0.0
  0
SPLINE
  5
104
100
AcDbEntity
  8
0
 62
7
100
AcDbSpline
 70
0
 71
3
 72
13
 73
9
 74
7
 40
0.000000
 40
0.000000
 40
0.000000
 40
0.000000
 40
7.206460
 40
14.353282
 40
21.559741
 40
28.766201
 40
35.913023
 40
43.119483
 40
43.119483
 40
43.119483
 40
43.119483
 10
531.010760
 20
418.476620
 30
0.0
 10
531.194317
 20
416.067451
 30
0.0
 10
531.559913
 20
411.269050
 30
0.0
 10
534.448562
 20
404.556350
 30
0.0
 10
538.843281
 20
398.779686
 30
0.0
 10
544.620167
 20
394.385259
 30
0.0
 10
551.333013
 20
391.496949
 30
0.0
 10
556.131432
 20
391.131596
 30
0.0
 10
558.540610
 20
390.948160
 30
0.0
 11
531.010760
 21
418.476620
 31
0.0
 11
531.954051
 21
411.332163
 31
0.0
 11
534.689157
 21
404.729417
 31
0.0
 11
539.074279
 21
399.010696
 31
0.0
 11
544.793221
 21
394.625863
 31
0.0
 11
551.396106
 21
391.891090
 31
0.0
 11
558.540610
 21
390.948160
 31
0.0
  0
SPLINE
  5
105
100
AcDbEntity
  8
0
 62
7
100
AcDbSpline
 70
0
 71
3
 72
10
 73
6
 74
4
 40
0.000000
 40
0.000000
 40
0.000000
 40
0.000000
 40
14.393446
 40
28.360001
 40
42.753446
 40
42.753446
 40
42.753446
 40
42.753446
 10
558.540610
 20
390.948160
 30
0.0
 10
563.364273
 20
391.705393
 30
0.0
 10
572.868536
 20
393.197400
 30
0.0
 10
583.819830
 20
404.148694
 30
0.0
 10
585.311837
 20
413.652957
 30
0.0
 10
586.069070
 20
418.476620
 30
0.0
 11
558.540610
 21
390.948160
 31
0.0
 11
572.434652
 21
394.706732
 31
0.0
 11
582.310498
 21
404.582578
 31
0.0
 11
586.069070
 21
418.476620
 31
0.0
  0
SPLINE
  5
106
100
AcDbEntity
  8
0
 62
7
100
AcDbSpline
 70
0
 71
3
 72
10
 73
6
 74
4
 40
0.000000
 40
0.000000
 40
0.000000
 40
0.000000
 40
1.426678
 40
2.852878
 40
4.279557
 40
4.279557
 40
4.279557
 40
4.279557
 10
586.069070
 20
418.476620
 30
0.0
 10
586.059555
 20
418.952153
 30
0.0
 10
586.040529
 20
419.903058
 30
0.0
 10
585.923299
 20
421.326033
 30
0.0
 10
585.786447
 20
422.267232
 30
0.0
 10
585.718010
 20
422.737910
 30
0.0
 11
586.069070
 21
418.476620
 31
0.0
 11
586.025740
 21
419.902640
 31
0.0
 11
585.908641
 21
421.324025
 31
0.0
 11
585.718010
 21
422.737910
 31
0.0
  0
SPLINE
  5
107
100
AcDbEntity
  8
0
 62
7
100
AcDbSpline
 70
0
 71
3
 72
10
 73
6
 74
4
 40
0.000000
 40
0.000000
 40
0.000000
 40
0.000000
 40
19.662233
 40
39.212263
 40
58.874495
 40
58.874495
 40
58.874495
 40
58.874495
 10
585.718010
 20
422.737910
 30
0.0
 10
591.848478
 20
425.103515
 30
0.0
 10
604.074429
 20
429.821227
 30
0.0
 10
620.201869
 20
441.526683
 30
0.0
 10
628.476457
 20
451.688469
 30
0.0
 10
632.625590
 20
456.783900
 30
0.0
 11
585.718010
 21
422.737910
 31
0.0
 11
603.736143
 21
430.608759
 31
0.0
 11
619.557959
 21
442.092392
 31
0.0
 11
632.625590
 21
456.783900
 31
0.0
  0
SPLINE
  5
108
100
AcDbEntity
  8
0
 62
7
100
AcDbSpline
 70
0
 71
3
 72
10
 73
6
 74
4
 40
0.000000
 40
0.000000
 40
0.000000
 40
0.000000
 40
4.295219
 40
8.577526
 40
12.872745
 40
12.872745
 40
12.872745
 40
12.872745
 10
632.625590
 20
456.783900
 30
0.0
 10
633.932473
 20
456.194518
 30
0.0
 10
636.542309
 20
455.017525
 30
0.0
 10
640.747578
 20
454.004516
 30
0.0
 10
643.607091
 20
453.863996
 30
0.0
 10
645.039000
 20
453.793630
 30
0.0
 11
632.625590
 21
456.783900
 31
0.0
 11
636.594450
 21
455.141629
 31
0.0
 11
640.757669
 21
454.138751
 31
0.0
 11
645.039000
 21
453.793630
 31
0.0
  0
SPLINE
  5
109
100
AcDbEntity
  8
0
 62
7
100
AcDbSpline
 70
0
 71
3
 72
13
 73
9
 74
7
 40
0.000000
 40
0.000000
 40
0.000000
 40
0.000000
 40
7.206461
 40
14.353285
 40
21.559746
 40
28.766207
 40
35.913031
 40
43.119492
 40
43.119492
 40
43.119492
 40
43.119492
 10
645.039000
 20
453.793630
 30
0.0
 10
647.448179
 20
453.977066
 30
0.0
 10
652.246599
 20
454.342419
 30
0.0
 10
658.959446
 20
457.230731
 30
0.0
 10
664.736332
 20
461.625160
 30
0.0
 10
669.131051
 20
467.401826
 30
0.0
 10
672.019700
 20
474.114529
 30
0.0
 10
672.385294
 20
478.912931
 30
0.0
 10
672.568850
 20
481.322100
 30
0.0
 11
645.039000
 21
453.793630
 31
0.0
 11
652.183506
 21
454.736561
 31
0.0
 11
658.786391
 21
457.471335
 31
0.0
 11
664.505334
 21
461.856170
 31
0.0
 11
668.890456
 21
467.574893
 31
0.0
 11
671.625561
 21
474.177641
 31
0.0
 11
672.568850
 21
481.322100
 31
0.0
  0
SPLINE
  5
10a
100
AcDbEntity
  8
0
 62
7
100
AcDbSpline
 70
0
 71
3
 72
10
 73
6
 74
4
 40
0.000000
 40
0.000000
 40
0.000000
 40
0.000000
 40
12.917357
 40
25.517210
 40
38.434567
 40
38.434567
 40
38.434567
 40
38.434567
 10
672.568850
 20
481.322100
 30
0.0
 10
671.955239
 20
485.643947
 30
0.0
 10
670.743099
 20
494.181411
 30
0.0
 10
661.848414
 20
504.620005
 30
0.0
 10
653.611521
 20
507.171705
 30
0.0
 10
649.441830
 20
508.463430
 30
0.0
 11
672.568850
 21
481.322100
 31
0.0
 11
669.525348
 21
493.875793
 31
0.0
 11
661.353409
 21
503.466190
 31
0.0
 11
649.441830
 21
508.463430
 31
0.0
  0
SPLINE
  5
10b
100
AcDbEntity
  8
0
 62
7
100
AcDbSpline
 70
0
 71
3
 72
10
 73
6
 74
4
 40
0.000000
 40
0.000000
 40
0.000000
 40
0.000000
 40
0.321866
 40
0.643732
 40
0.965598
 40
0.965598
 40
0.965598
 40
0.965598
 10
649.441830
 20
508.463430
 30
0.0
 10
649.447685
 20
508.570559
 30
0.0
 10
649.459395
 20
508.784817
 30
0.0
 10
649.475595
 20
509.106276
 30
0.0
 10
649.485485
 20
509.320625
 30
0.0
 10
649.490430
 20
509.427800
 30
0.0
 11
649.441830
 21
508.463430
 31
0.0
 11
649.459168
 21
508.784829
 31
0.0
 11
649.475368
 21
509.106287
 31
0.0
 11
649.490430
 21
509.427800
 31
0.0
  0
SPLINE
  5
10c
100
AcDbEntity
  8
0
 62
7
100
AcDbSpline
 70
0
 71
3
 72
10
 73
6
 74
4
 40
0.000000
 40
0.000000
 40
0.000000
 40
0.000000
 40
19.350775
 40
38.594516
 40
57.945291
 40
57.945291
 40
57.945291
 40
57.945291
 10
649.490430
 20
509.427800
 30
0.0
 10
649.066980
 20
515.880340
 30
0.0
 10
648.222423
 20
528.749730
 30
0.0
 10
642.037433
 20
547.352356
 30
0.0
 10
635.008063
 20
558.165423
 30
0.0
 10
631.483630
 20
563.586950
 30
0.0
 11
649.490430
 21
509.427800
 31
0.0
 11
647.396793
 21
528.664982
 31
0.0
 11
641.325424
 21
546.925870
 31
0.0
 11
631.483630
 21
563.586950
 31
0.0
  0
SPLINE
  5
10d
100
AcDbEntity
  8
0
 62
7
100
AcDbSpline
 70
0
 71
3
 72
10
 73
6
 74
4
 40
0.000000
 40
0.000000
 40
0.000000
 40
0.000000
 40
7.188897
 40
14.318581
 40
21.507478
 40
21.507478
 40
21.507478
 40
21.507478
 10
631.483630
 20
563.586950
 30
0.0
 10
633.044979
 20
565.416883
 30
0.0
 10
636.154817
 20
569.061677
 30
0.0
 10
638.960127
 20
575.833512
 30
0.0
 10
639.338787
 20
580.609727
 30
0.0
 10
639.528900
 20
583.007710
 30
0.0
 11
631.483630
 21
563.586950
 31
0.0
 11
635.854552
 21
569.294425
 31
0.0
 11
638.583233
 21
575.881284
 31
0.0
 11
639.528900
 21
583.007710
 31
0.0
  0
SPLINE
  5
10e
100
AcDbEntity
  8
0
 62
7
100
AcDbSpline
 70
0
 71
3
 72
13
 73
9
 74
7
 40
0.000000
 40
0.000000
 40
0.000000
 40
0.000000
 40
7.206691
 40
14.353739
 40
21.560429
 40
28.767120
 40
35.914168
 40
43.120859
 40
43.120859
 40
43.120859
 40
43.120859
 10
639.528900
 20
583.007710
 30
0.0
 10
639.345452
 20
585.416966
 30
0.0
 10
638.980075
 20
590.215539
 30
0.0
 10
636.091582
 20
596.928568
 30
0.0
 10
631.696890
 20
602.705550
 30
0.0
 10
625.919908
 20
607.100242
 30
0.0
 10
619.206879
 20
609.988735
 30
0.0
 10
614.408306
 20
610.354112
 30
0.0
 10
611.999050
 20
610.537560
 30
0.0
 11
639.528900
 21
583.007710
 31
0.0
 11
638.585908
 21
590.152439
 31
0.0
 11
635.850965
 21
596.755498
 31
0.0
 11
631.465871
 21
602.474531
 31
0.0
 11
625.746838
 21
606.859625
 31
0.0
 11
619.143779
 21
609.594568
 31
0.0
 11
611.999050
 21
610.537560
 31
0.0
  0
SPLINE
  5
10f
100
AcDbEntity
  8
0
 62
7
100
AcDbSpline
 70
0
 71
3
 72
10
 73
6
 74
4
 40
0.000000
 40
0.000000
 40
0.000000
 40
0.000000
 40
10.060460
 40
19.963968
 40
30.024428
 40
30.024428
 40
30.024428
 40
30.024428
 10
611.999050
 20
610.537560
 30
0.0
 10
608.639604
 20
610.165649
 30
0.0
 10
601.973123
 20
609.427629
 30
0.0
 10
593.068221
 20
603.973821
 30
0.0
 10
589.381262
 20
598.370877
 30
0.0
 10
587.523290
 20
595.547380
 30
0.0
 11
611.999050
 21
610.537560
 31
0.0
 11
602.110003
 21
608.688341
 31
0.0
 11
593.664555
 21
603.515926
 31
0.0
 11
587.523290
 21
595.547380
 31
0.0
  0
SPLINE
  5
110
100
AcDbEntity
  8
0
 62
7
100
AcDbSpline
 70
0
 71
3
 72
10
 73
6
 74
4
 40
0.000000
 40
0.000000
 40
0.000000
 40
0.000000
 40
9.837283
 40
19.660265
 40
29.497548
 40
29.497548
 40
29.497548
 40
29.497548
 10
587.523290
 20
595.547380
 30
0.0
 10
584.383867
 20
596.501338
 30
0.0
 10
578.109585
 20
598.407868
 30
0.0
 10
568.373185
 20
600.030993
 30
0.0
 10
561.819737
 20
600.262935
 30
0.0
 10
558.540630
 20
600.378990
 30
0.0
 11
587.523290
 21
595.547380
 31
0.0
 11
578.051173
 21
598.202778
 31
0.0
 11
568.361907
 21
599.818045
 31
0.0
 11
558.540630
 21
600.378990
 31
0.0
  0
SPLINE
  5
111
100
AcDbEntity
  8
0
 62
7
100
AcDbSpline
 70
0
 71
3
 72
10
 73
6
 74
4
 40
0.000000
 40
0.000000
 40
0.000000
 40
0.000000
 40
9.826187
 40
19.638120
 40
29.464307
 40
29.464307
 40
29.464307
 40
29.464307
 10
558.540630
 20
600.378990
 30
0.0
 10
555.265333
 20
600.260091
 30
0.0
 10
548.719489
 20
600.022466
 30
0.0
 10
538.995384
 20
598.393776
 30
0.0
 10
532.729351
 20
596.485540
 30
0.0
 10
529.594060
 20
595.530730
 30
0.0
 11
558.540630
 21
600.378990
 31
0.0
 11
548.730930
 21
599.810009
 31
0.0
 11
539.053794
 21
598.189186
 31
0.0
 11
529.594060
 21
595.530730
 31
0.0
  0
SPLINE
  5
112
100
AcDbEntity
  8
0
 62
7
100
AcDbSpline
 70
0
 71
3
 72
10
 73
6
 74
4
 40
0.000000
 40
0.000000
 40
0.000000
 40
0.000000
 40
10.076315
 40
19.994969
 40
30.071284
 40
30.071284
 40
30.071284
 40
30.071284
 10
529.594060
 20
595.530730
 30
0.0
 10
527.734546
 20
598.359698
 30
0.0
 10
524.044612
 20
603.973369
 30
0.0
 10
515.123651
 20
609.434719
 30
0.0
 10
508.445988
 20
610.168019
 30
0.0
 10
505.080830
 20
610.537560
 30
0.0
 11
529.594060
 21
595.530730
 31
0.0
 11
523.446198
 21
603.514208
 31
0.0
 11
514.986866
 21
608.692953
 31
0.0
 11
505.080830
 21
610.537560
 31
0.0
  0
SPLINE
  5
113
100
AcDbEntity
  8
0
 62
7
100
AcDbSpline
 70
0
 71
3
 72
13
 73
9
 74
7
 40
0.000000
 40
0.000000
 40
0.000000
 40
0.000000
 40
7.206691
 40
14.353739
 40
21.560429
 40
28.767120
 40
35.914168
 40
43.120859
 40
43.120859
 40
43.120859
 40
43.120859
 10
505.080830
 20
610.537560
 30
0.0
 10
502.671574
 20
610.354112
 30
0.0
 10
497.873001
 20
609.988735
 30
0.0
 10
491.159972
 20
607.100242
 30
0.0
 10
485.382990
 20
602.705550
 30
0.0
 10
480.988298
 20
596.928568
 30
0.0
 10
478.099805
 20
590.215539
 30
0.0
 10
477.734428
 20
585.416966
 30
0.0
 10
477.550980
 20
583.007710
 30
0.0
 11
505.080830
 21
610.537560
 31
0.0
 11
497.936101
 21
609.594568
 31
0.0
 11
491.333042
 21
606.859625
 31
0.0
 11
485.614009
 21
602.474531
 31
0.0
 11
481.228915
 21
596.755498
 31
0.0
 11
478.493972
 21
590.152439
 31
0.0
 11
477.550980
 21
583.007710
 31
0.0
  0
SPLINE
  5
114
100
AcDbEntity
  8
0
 62
7
100
AcDbSpline
 70
0
 71
3
 72
10
 73
6
 74
4
 40
0.000000
 40
0.000000
 40
0.000000
 40
0.000000
 40
7.192242
 40
14.325190
 40
21.517432
 40
21.517432
 40
21.517432
 40
21.517432
 10
477.550980
 20
583.007710
 30
0.0
 10
477.740907
 20
580.608580
 30
0.0
 10
478.119194
 20
575.830099
 30
0.0
 10
480.926071
 20
569.055081
 30
0.0
 10
484.038003
 20
565.409144
 30
0.0
 10
485.600410
 20
563.578630
 30
0.0
 11
477.550980
 21
583.007710
 31
0.0
 11
478.496447
 21
575.877883
 31
0.0
 11
481.226584
 21
569.288095
 31
0.0
 11
485.600410
 21
563.578630
 31
0.0
  0
SPLINE
  5
115
100
AcDbEntity
  8
0
 62
7
100
AcDbSpline
 70
0
 71
3
 72
10
 73
6
 74
4
 40
0.000000
 40
0.000000
 40
0.000000
 40
0.000000
 40
19.348464
 40
38.589933
 40
57.938397
 40
57.938397
 40
57.938397
 40
57.938397
 10
485.600410
 20
563.578630
 30
0.0
 10
482.075942
 20
558.158052
 30
0.0
 10
475.046495
 20
547.346870
 30
0.0
 10
468.860121
 20
528.747235
 30
0.0
 10
468.013789
 20
515.879504
 30
0.0
 10
467.589450
 20
509.427800
 30
0.0
 11
485.600410
 21
563.578630
 31
0.0
 11
475.758294
 21
546.920424
 31
0.0
 11
469.685540
 21
528.662391
 31
0.0
 11
467.589450
 21
509.427800
 31
0.0
  0
SPLINE
  5
116
100
AcDbEntity
  8
0
 62
7
100
AcDbSpline
 70
0
 71
3
 72
10
 73
6
 74
4
 40
0.000000
 40
0.000000
 40
0.000000
 40
0.000000
 40
0.315180
 40
0.630360
 40
0.945540
 40
0.945540
 40
0.945540
 40
0.945540
 10
467.589450
 20
509.427800
 30
0.0
 10
467.592713
 20
509.322791
 30
0.0
 10
467.599240
 20
509.112772
 30
0.0
 10
467.610340
 20
508.797786
 30
0.0
 10
467.618613
 20
508.587829
 30
0.0
 10
467.622750
 20
508.482850
 30
0.0
 11
467.589450
 21
509.427800
 31
0.0
 11
467.599458
 21
509.112779
 31
0.0
 11
467.610558
 21
508.797794
 31
0.0
 11
467.622750
 21
508.482850
 31
0.0
  0
LINE
  5
117
100
AcDbEntity
  8
0
 62
7
100
AcDbLine
 10
444.510930
 20
481.322100
 30
0.0
 11
444.510970
 21
481.322100
 31
0.0
  0
SPLINE
  5
118
100
AcDbEntity
  8
0
 62
7
100
AcDbSpline
 70
0
 71
3
 72
10
 73
6
 74
4
 40
0.000000
 40
0.000000
 40
0.000000
 40
0.000000
 40
12.919505
 40
25.521359
 40
38.440864
 40
38.440864
 40
38.440864
 40
38.440864
 10
467.622750
 20
508.482850
 30
0.0
 10
463.453098
 20
507.188472
 30
0.0
 10
455.216314
 20
504.631540
 30
0.0
 10
446.327060
 20
494.184989
 30
0.0
 10
445.121309
 20
485.645160
 30
0.0
 10
444.510930
 20
481.322100
 30
0.0
 11
467.622750
 21
508.482850
 31
0.0
 11
455.712192
 21
503.477631
 31
0.0
 11
447.545456
 21
493.880175
 31
0.0
 11
444.510930
 21
481.322100
 31
0.0
  0
SPLINE
  5
119
100
AcDbEntity
  8
0
 62
7
100
AcDbSpline
 70
0
 71
3
 72
10
 73
6
 74
4
 40
0.000000
 40
0.000000
 40
0.000000
 40
0.000000
 40
6.991687
 40
13.776030
 40
20.767717
 40
20.767717
 40
20.767717
 40
20.767717
 10
556.604520
 20
157.134220
 30
0.0
 10
558.947620
 20
157.502131
 30
0.0
 10
563.564334
 20
158.227041
 30
0.0
 10
568.883939
 20
163.546646
 30
0.0
 10
569.608849
 20
168.163360
 30
0.0
 10
569.976760
 20
170.506460
 30
0.0
 11
556.604520
 21
157.134220
 31
0.0
 11
563.353567
 21
158.960158
 31
0.0
 11
568.150822
 21
163.757413
 31
0.0
 11
569.976760
 21
170.506460
 31
0.0
  0
SPLINE
  5
11a
100
AcDbEntity
  8
0
 62
7
100
AcDbSpline
 70
0
 71
3
 72
10
 73
6
 74
4
 40
0.000000
 40
0.000000
 40
0.000000
 40
0.000000
 40
6.819746
 40
13.445683
 40
20.265429
 40
20.265429
 40
20.265429
 40
20.265429
 10
569.976760
 20
170.506460
 30
0.0
 10
569.624549
 20
172.790686
 30
0.0
 10
568.930136
 20
177.294224
 30
0.0
 10
563.854354
 20
182.559943
 30
0.0
 10
559.379353
 20
183.419259
 30
0.0
 10
557.109600
 20
183.855110
 30
0.0
 11
569.976760
 21
170.506460
 31
0.0
 11
568.232406
 21
177.099348
 31
0.0
 11
563.633988
 21
181.869839
 31
0.0
 11
557.109600
 21
183.855110
 31
0.0
  0
SPLINE
  5
11b
100
AcDbEntity
  8
0
 62
7
100
AcDbSpline
 70
0
 71
3
 72
10
 73
6
 74
4
 40
0.000000
 40
0.000000
 40
0.000000
 40
0.000000
 40
22.427378
 40
44.853172
 40
67.287540
 40
67.287540
 40
67.287540
 40
67.287540
 10
557.109600
 20
183.855110
 30
0.0
 10
557.966400
 20
191.288327
 30
0.0
 10
559.679940
 20
206.154237
 30
0.0
 10
565.618453
 20
227.903653
 30
0.0
 10
571.645694
 20
241.601498
 30
0.0
 10
574.659890
 20
248.451730
 30
0.0
 11
557.109600
 21
183.855110
 31
0.0
 11
560.241293
 21
206.062762
 31
0.0
 11
566.134517
 21
227.700371
 31
0.0
 11
574.659890
 21
248.451730
 31
0.0
  0
SPLINE
  5
11c
100
AcDbEntity
  8
0
 62
7
100
AcDbSpline
 70
0
 71
3
 72
10
 73
6
 74
4
 40
0.000000
 40
0.000000
 40
0.000000
 40
0.000000
 40
2.175003
 40
4.342908
 40
6.517911
 40
6.517911
 40
6.517911
 40
6.517911
 10
574.659890
 20
248.451730
 30
0.0
 10
575.316733
 20
248.142375
 30
0.0
 10
576.628277
 20
247.524675
 30
0.0
 10
578.754556
 20
246.993224
 30
0.0
 10
580.202490
 20
246.921207
 30
0.0
 10
580.927640
 20
246.885140
 30
0.0
 11
574.659890
 21
248.451730
 31
0.0
 11
576.656807
 21
247.589779
 31
0.0
 11
578.760012
 21
247.064095
 31
0.0
 11
580.927640
 21
246.885140
 31
0.0
  0
SPLINE
  5
11d
100
AcDbEntity
  8
0
 62
7
100
AcDbSpline
 70
0
 71
3
 72
10
 73
6
 74
4
 40
0.000000
 40
0.000000
 40
0.000000
 40
0.000000
 40
6.991694
 40
13.776042
 40
20.767736
 40
20.767736
 40
20.767736
 40
20.767736
 10
580.927640
 20
246.885140
 30
0.0
 10
583.270743
 20
247.253048
 30
0.0
 10
587.887462
 20
247.977953
 30
0.0
 10
593.207077
 20
253.297560
 30
0.0
 10
593.931989
 20
257.914278
 30
0.0
 10
594.299900
 20
260.257380
 30
0.0
 11
580.927640
 21
246.885140
 31
0.0
 11
587.676696
 21
248.711071
 31
0.0
 11
592.473959
 21
253.508327
 31
0.0
 11
594.299900
 21
260.257380
 31
0.0
  0
SPLINE
  5
11e
100
AcDbEntity
  8
0
 62
7
100
AcDbSpline
 70
0
 71
3
 72
10
 73
6
 74
4
 40
0.000000
 40
0.000000
 40
0.000000
 40
0.000000
 40
4.505403
 40
8.950451
 40
13.455853
 40
13.455853
 40
13.455853
 40
13.455853
 10
594.299900
 20
260.257380
 30
0.0
 10
594.145916
 20
261.761254
 30
0.0
 10
593.840011
 20
264.748856
 30
0.0
 10
591.582048
 20
268.815265
 30
0.0
 10
589.207813
 20
270.654381
 30
0.0
 10
588.012690
 20
271.580140
 30
0.0
 11
594.299900
 21
260.257380
 31
0.0
 11
593.534895
 21
264.697360
 31
0.0
 11
591.377032
 21
268.583499
 31
0.0
 11
588.012690
 21
271.580140
 31
0.0
  0
SPLINE
  5
11f
100
AcDbEntity
  8
0
 62
7
100
AcDbSpline
 70
0
 71
3
 72
10
 73
6
 74
4
 40
0.000000
 40
0.000000
 40
0.000000
 40
0.000000
 40
22.434321
 40
44.860183
 40
67.287488
 40
67.287488
 40
67.287488
 40
67.287488
 10
588.012690
 20
271.580140
 30
0.0
 10
592.437738
 20
277.615844
 30
0.0
 10
601.286165
 20
289.684977
 30
0.0
 10
617.151347
 20
305.703658
 30
0.0
 10
629.168320
 20
314.621277
 30
0.0
 10
635.177000
 20
319.080230
 30
0.0
 11
588.012690
 21
271.580140
 31
0.0
 11
601.720196
 21
289.339729
 31
0.0
 11
617.511334
 21
305.263274
 31
0.0
 11
635.177000
 21
319.080230
 31
0.0
  0
SPLINE
  5
120
100
AcDbEntity
  8
0
 62
7
100
AcDbSpline
 70
0
 71
3
 72
10
 73
6
 74
4
 40
0.000000
 40
0.000000
 40
0.000000
 40
0.000000
 40
4.497198
 40
8.934359
 40
13.431557
 40
13.431557
 40
13.431557
 40
13.431557
 10
635.177000
 20
319.080230
 30
0.0
 10
636.104193
 20
317.889756
 30
0.0
 10
637.946200
 20
315.524701
 30
0.0
 10
642.009021
 20
313.278810
 30
0.0
 10
644.991526
 20
312.976920
 30
0.0
 10
646.492800
 20
312.824960
 30
0.0
 11
635.177000
 21
319.080230
 31
0.0
 11
638.176600
 21
315.729530
 31
0.0
 11
642.059925
 21
313.582864
 31
0.0
 11
646.492800
 21
312.824960
 31
0.0
  0
LINE
  5
121
100
AcDbEntity
  8
0
 62
7
100
AcDbLine
 10
651.904420
 20
313.979430
 30
0.0
 11
634.509540
 21
343.654530
 31
0.0
  0
SPLINE
  5
122
100
AcDbEntity
  8
0
 62
7
100
AcDbSpline
 70
0
 71
3
 72
10
 73
6
 74
4
 40
0.000000
 40
0.000000
 40
0.000000
 40
0.000000
 40
1.857868
 40
3.711297
 40
5.569165
 40
5.569165
 40
5.569165
 40
5.569165
 10
646.492800
 20
312.824960
 30
0.0
 10
647.112153
 20
312.851876
 30
0.0
 10
648.349378
 20
312.905645
 30
0.0
 10
650.176547
 20
313.295438
 30
0.0
 10
651.328003
 20
313.751251
 30
0.0
 10
651.904420
 20
313.979430
 30
0.0
 11
646.492800
 21
312.824960
 31
0.0
 11
648.345946
 21
312.957330
 31
0.0
 11
650.158587
 21
313.344023
 31
0.0
 11
651.904420
 21
313.979430
 31
0.0
  0
SPLINE
  5
123
100
AcDbEntity
  8
0
 62
7
100
AcDbSpline
 70
0
 71
3
 72
22
 73
18
 74
16
 40
0.000000
 40
0.000000
 40
0.000000
 40
0.000000
 40
0.496575
 40
0.986026
 40
1.482601
 40
1.979176
 40
2.468627
 40
2.965202
 40
3.461777
 40
3.951228
 40
4.447803
 40
13.369385
 40
29.938038
 40
38.859620
 40
43.049498
 40
47.190451
 40
51.380328
 40
51.380328
 40
51.380328
 40
51.380328
 10
634.509540
 20
343.654530
 30
0.0
 10
634.439764
 20
343.806519
 30
0.0
 10
634.301212
 20
344.108316
 30
0.0
 10
634.305664
 20
344.617449
 30
0.0
 10
634.471891
 20
345.091584
 30
0.0
 10
634.794380
 20
345.480471
 30
0.0
 10
635.228957
 20
345.735262
 30
0.0
 10
635.725779
 20
345.826719
 30
0.0
 10
636.220830
 20
345.740321
 30
0.0
 10
636.666821
 20
345.495145
 30
0.0
 10
638.644880
 20
342.809553
 30
0.0
 10
642.450275
 20
334.558773
 30
0.0
 10
649.060141
 20
328.135636
 30
0.0
 10
652.894385
 20
312.655109
 30
0.0
 10
657.560287
 20
318.484052
 30
0.0
 10
659.454303
 20
321.942586
 30
0.0
 10
659.727606
 20
324.773447
 30
0.0
 10
659.865060
 20
326.197190
 30
0.0
 11
634.509540
 21
343.654530
 31
0.0
 11
634.336102
 21
344.119832
 31
0.0
 11
634.332153
 21
344.609267
 31
0.0
 11
634.498060
 21
345.077308
 31
0.0
 11
634.814836
 21
345.459720
 31
0.0
 11
635.237069
 21
345.707271
 31
0.0
 11
635.725482
 21
345.796934
 31
0.0
 11
636.214934
 21
345.713124
 31
0.0
 11
636.640099
 21
345.470644
 31
0.0
 11
636.961430
 21
345.092050
 31
0.0
 11
641.473003
 21
337.395275
 31
0.0
 11
649.851637
 21
323.101265
 31
0.0
 11
654.363210
 21
315.404490
 31
0.0
 11
657.322380
 21
318.370697
 31
0.0
 11
659.203065
 21
322.059940
 31
0.0
 11
659.865060
 21
326.197190
 31
0.0
  0
LINE
  5
124
100
AcDbEntity
  8
0
 62
7
100
AcDbLine
 10
658.059810
 20
332.875680
 30
0.0
 11
658.073610
 21
332.884680
 31
0.0
  0
LINE
  5
125
100
AcDbEntity
  8
0
 62
7
100
AcDbLine
 10
658.073610
 20
332.884680
 30
0.0
 11
636.954410
 21
369.464420
 31
0.0
  0
SPLINE
  5
126
100
AcDbEntity
  8
0
 62
7
100
AcDbSpline
 70
0
 71
3
 72
10
 73
6
 74
4
 40
0.000000
 40
0.000000
 40
0.000000
 40
0.000000
 40
2.332536
 40
4.656337
 40
6.988873
 40
6.988873
 40
6.988873
 40
6.988873
 10
659.865060
 20
326.197190
 30
0.0
 10
659.822544
 20
326.974835
 30
0.0
 10
659.737671
 20
328.527211
 30
0.0
 10
659.123645
 20
330.798788
 30
0.0
 10
658.414865
 20
332.182517
 30
0.0
 10
658.059810
 20
332.875680
 30
0.0
 11
659.865060
 21
326.197190
 31
0.0
 11
659.656152
 21
328.520352
 31
0.0
 11
659.049772
 21
330.763643
 31
0.0
 11
658.059810
 21
332.875680
 31
0.0
  0
SPLINE
  5
127
100
AcDbEntity
  8
0
 62
7
100
AcDbSpline
 70
0
 71
3
 72
13
 73
9
 74
7
 40
0.000000
 40
0.000000
 40
0.000000
 40
0.000000
 40
0.004271
 40
0.012204
 40
0.016475
 40
4.680050
 40
9.276966
 40
13.940541
 40
13.940541
 40
13.940541
 40
13.940541
 10
636.954410
 20
369.464420
 30
0.0
 10
636.953217
 20
369.463642
 30
0.0
 10
636.949810
 20
369.461420
 30
0.0
 10
636.945210
 20
369.458422
 30
0.0
 10
635.639473
 20
368.605671
 30
0.0
 10
634.372128
 20
374.201784
 30
0.0
 10
629.978027
 20
375.415004
 30
0.0
 10
626.915763
 20
375.904181
 30
0.0
 10
625.373610
 20
376.150530
 30
0.0
 11
636.954410
 21
369.464420
 31
0.0
 11
636.950832
 21
369.462087
 31
0.0
 11
636.944188
 21
369.457753
 31
0.0
 11
636.940610
 21
369.455420
 31
0.0
 11
633.943123
 21
373.028094
 31
0.0
 11
629.964596
 21
375.330910
 31
0.0
 11
625.373610
 21
376.150530
 31
0.0
  0
SPLINE
  5
128
100
AcDbEntity
  8
0
 62
7
100
AcDbSpline
 70
0
 71
3
 72
13
 73
9
 74
7
 40
0.000000
 40
0.000000
 40
0.000000
 40
0.000000
 40
3.500916
 40
6.972858
 40
10.473774
 40
13.974691
 40
17.446633
 40
20.947549
 40
20.947549
 40
20.947549
 40
20.947549
 10
625.373610
 20
376.150530
 30
0.0
 10
624.203224
 20
376.061423
 30
0.0
 10
621.872139
 20
375.883945
 30
0.0
 10
618.611030
 20
374.480766
 30
0.0
 10
615.804644
 20
372.345886
 30
0.0
 10
613.669764
 20
369.539500
 30
0.0
 10
612.266585
 20
366.278391
 30
0.0
 10
612.089107
 20
363.947306
 30
0.0
 10
612.000000
 20
362.776920
 30
0.0
 11
625.373610
 21
376.150530
 31
0.0
 11
621.902790
 21
375.692462
 31
0.0
 11
618.695106
 21
374.363877
 31
0.0
 11
615.916871
 21
372.233659
 31
0.0
 11
613.786654
 21
369.455424
 31
0.0
 11
612.458068
 21
366.247740
 31
0.0
 11
612.000000
 21
362.776920
 31
0.0
  0
SPLINE
  5
129
100
AcDbEntity
  8
0
 62
7
100
AcDbSpline
 70
0
 71
3
 72
10
 73
6
 74
4
 40
0.000000
 40
0.000000
 40
0.000000
 40
0.000000
 40
2.164268
 40
4.321542
 40
6.485810
 40
6.485810
 40
6.485810
 40
6.485810
 10
612.000000
 20
362.776920
 30
0.0
 10
612.036016
 20
362.055366
 30
0.0
 10
612.107932
 20
360.614589
 30
0.0
 10
612.635056
 20
358.498546
 30
0.0
 10
613.247422
 20
357.192400
 30
0.0
 10
613.554100
 20
356.538270
 30
0.0
 11
612.000000
 21
362.776920
 31
0.0
 11
612.178103
 21
360.619993
 31
0.0
 11
612.699562
 21
358.526691
 31
0.0
 11
613.554100
 21
356.538270
 31
0.0
  0
SPLINE
  5
12a
100
AcDbEntity
  8
0
 62
7
100
AcDbSpline
 70
0
 71
3
 72
10
 73
6
 74
4
 40
0.000000
 40
0.000000
 40
0.000000
 40
0.000000
 40
22.425846
 40
44.850150
 40
67.282962
 40
67.282962
 40
67.282962
 40
67.282962
 10
613.554100
 20
356.538270
 30
0.0
 10
606.688759
 20
353.564015
 30
0.0
 10
592.958548
 20
347.615710
 30
0.0
 10
571.155304
 20
341.884063
 30
0.0
 10
556.280002
 20
340.255024
 30
0.0
 10
548.840940
 20
339.440350
 30
0.0
 11
613.554100
 21
356.538270
 31
0.0
 11
592.757159
 21
348.147454
 31
0.0
 11
571.073288
 21
342.432633
 31
0.0
 11
548.840940
 21
339.440350
 31
0.0
  0
SPLINE
  5
12b
100
AcDbEntity
  8
0
 62
7
100
AcDbSpline
 70
0
 71
3
 72
10
 73
6
 74
4
 40
0.000000
 40
0.000000
 40
0.000000
 40
0.000000
 40
6.832243
 40
13.469710
 40
20.301952
 40
20.301952
 40
20.301952
 40
20.301952
 10
548.840940
 20
339.440350
 30
0.0
 10
548.409066
 20
341.715338
 30
0.0
 10
547.557629
 20
346.200458
 30
0.0
 10
542.285985
 20
351.291919
 30
0.0
 10
537.773977
 20
351.986923
 30
0.0
 10
535.485350
 20
352.339450
 30
0.0
 11
548.840940
 21
339.440350
 31
0.0
 11
546.864513
 21
345.980478
 31
0.0
 11
542.090233
 21
350.591575
 31
0.0
 11
535.485350
 21
352.339450
 31
0.0
  0
SPLINE
  5
12c
100
AcDbEntity
  8
0
 62
7
100
AcDbSpline
 70
0
 71
3
 72
10
 73
6
 74
4
 40
0.000000
 40
0.000000
 40
0.000000
 40
0.000000
 40
6.830403
 40
13.466172
 40
20.296574
 40
20.296574
 40
20.296574
 40
20.296574
 10
535.485350
 20
352.339450
 30
0.0
 10
533.197496
 20
351.986164
 30
0.0
 10
528.686980
 20
351.289658
 30
0.0
 10
523.418000
 20
346.198651
 30
0.0
 10
522.566980
 20
341.714720
 30
0.0
 10
522.135320
 20
339.440350
 30
0.0
 11
535.485350
 21
352.339450
 31
0.0
 11
528.882850
 21
350.589768
 31
0.0
 11
524.110750
 21
345.978857
 31
0.0
 11
522.135320
 21
339.440350
 31
0.0
  0
SPLINE
  5
12d
100
AcDbEntity
  8
0
 62
7
100
AcDbSpline
 70
0
 71
3
 72
10
 73
6
 74
4
 40
0.000000
 40
0.000000
 40
0.000000
 40
0.000000
 40
22.435089
 40
44.861653
 40
67.289781
 40
67.289781
 40
67.289781
 40
67.289781
 10
522.135320
 20
339.440350
 30
0.0
 10
514.695474
 20
340.254837
 30
0.0
 10
499.818609
 20
341.883503
 30
0.0
 10
478.012961
 20
347.615064
 30
0.0
 10
464.281280
 20
353.563799
 30
0.0
 10
457.415200
 20
356.538270
 30
0.0
 11
522.135320
 21
339.440350
 31
0.0
 11
499.900610
 21
342.432153
 31
0.0
 11
478.214390
 21
348.146927
 31
0.0
 11
457.415200
 21
356.538270
 31
0.0
  0
SPLINE
  5
12e
100
AcDbEntity
  8
0
 62
7
100
AcDbSpline
 70
0
 71
3
 72
10
 73
6
 74
4
 40
0.000000
 40
0.000000
 40
0.000000
 40
0.000000
 40
2.164268
 40
4.321542
 40
6.485810
 40
6.485810
 40
6.485810
 40
6.485810
 10
457.415200
 20
356.538270
 30
0.0
 10
457.721878
 20
357.192400
 30
0.0
 10
458.334244
 20
358.498546
 30
0.0
 10
458.861368
 20
360.614589
 30
0.0
 10
458.933284
 20
362.055366
 30
0.0
 10
458.969300
 20
362.776920
 30
0.0
 11
457.415200
 21
356.538270
 31
0.0
 11
458.269738
 21
358.526691
 31
0.0
 11
458.791197
 21
360.619993
 31
0.0
 11
458.969300
 21
362.776920
 31
0.0
  0
SPLINE
  5
12f
100
AcDbEntity
  8
0
 62
7
100
AcDbSpline
 70
0
 71
3
 72
28
 73
24
 74
22
 40
0.000000
 40
0.000000
 40
0.000000
 40
0.000000
 40
4.189396
 40
8.329885
 40
12.519281
 40
21.435739
 40
37.994874
 40
46.911332
 40
47.417200
 40
47.915552
 40
48.421420
 40
48.918548
 40
49.408527
 40
49.905655
 40
50.402782
 40
50.892762
 40
51.389890
 40
60.311162
 40
76.879239
 40
85.800511
 40
87.657950
 40
89.510953
 40
91.368392
 40
91.368392
 40
91.368392
 40
91.368392
 10
458.969300
 20
362.776920
 30
0.0
 10
458.831544
 20
364.200599
 30
0.0
 10
458.557641
 20
367.031337
 30
0.0
 10
456.666453
 20
370.487660
 30
0.0
 10
451.987444
 20
376.323456
 30
0.0
 10
448.316006
 20
360.760338
 30
0.0
 10
441.837364
 20
354.257875
 30
0.0
 10
438.096145
 20
345.988763
 30
0.0
 10
436.177374
 20
343.253668
 30
0.0
 10
435.726318
 20
342.997064
 30
0.0
 10
435.225397
 20
342.905236
 30
0.0
 10
434.724690
 20
342.995254
 30
0.0
 10
434.288598
 20
343.248598
 30
0.0
 10
433.964403
 20
343.636782
 30
0.0
 10
433.796350
 20
344.110981
 30
0.0
 10
433.791069
 20
344.620524
 30
0.0
 10
435.162267
 20
347.660724
 30
0.0
 10
440.442949
 20
355.125738
 30
0.0
 10
442.129534
 20
363.927850
 30
0.0
 10
453.861295
 20
374.350709
 30
0.0
 10
449.211475
 20
375.651490
 30
0.0
 10
447.470099
 20
376.073241
 30
0.0
 10
446.221910
 20
376.124746
 30
0.0
 10
445.597070
 20
376.150530
 30
0.0
 11
458.969300
 21
362.776920
 31
0.0
 11
458.307028
 21
366.913638
 31
0.0
 11
456.426371
 21
370.602374
 31
0.0
 11
453.467500
 21
373.568200
 31
0.0
 11
449.060248
 21
365.817113
 31
0.0
 11
440.875352
 21
351.422237
 31
0.0
 11
436.468100
 21
343.671150
 31
0.0
 11
436.149091
 21
343.278549
 31
0.0
 11
435.719918
 21
343.025239
 31
0.0
 11
435.222040
 21
342.935690
 31
0.0
 11
434.732697
 21
343.023324
 31
0.0
 11
434.309034
 21
343.269474
 31
0.0
 11
433.990552
 21
343.651187
 31
0.0
 11
433.822997
 21
344.119227
 31
0.0
 11
433.825618
 21
344.609199
 31
0.0
 11
433.998170
 21
345.075420
 31
0.0
 11
438.407584
 21
352.830816
 31
0.0
 11
446.596496
 21
367.233694
 31
0.0
 11
451.005910
 21
374.989090
 31
0.0
 11
449.261311
 21
375.626627
 31
0.0
 11
447.449605
 21
376.015654
 31
0.0
 11
445.597070
 21
376.150530
 31
0.0
  0
LINE
  5
130
100
AcDbEntity
  8
0
 62
7
100
AcDbLine
 10
434.025930
 20
369.458190
 30
0.0
 11
434.014830
 21
369.465190
 31
0.0
  0
LINE
  5
131
100
AcDbEntity
  8
0
 62
7
100
AcDbLine
 10
434.014830
 20
369.465190
 30
0.0
 11
412.895670
 21
332.885500
 31
0.0
  0
SPLINE
  5
132
100
AcDbEntity
  8
0
 62
7
100
AcDbSpline
 70
0
 71
3
 72
10
 73
6
 74
4
 40
0.000000
 40
0.000000
 40
0.000000
 40
0.000000
 40
4.664419
 40
9.262144
 40
13.926563
 40
13.926563
 40
13.926563
 40
13.926563
 10
445.597070
 20
376.150530
 30
0.0
 10
444.039827
 20
375.986132
 30
0.0
 10
440.947607
 20
375.659686
 30
0.0
 10
436.769990
 20
373.243499
 30
0.0
 10
434.944997
 20
370.726002
 30
0.0
 10
434.025930
 20
369.458190
 30
0.0
 11
445.597070
 21
376.150530
 31
0.0
 11
441.004928
 21
375.332586
 31
0.0
 11
437.024931
 21
373.030696
 31
0.0
 11
434.025930
 21
369.458190
 31
0.0
  0
SPLINE
  5
133
100
AcDbEntity
  8
0
 62
7
100
AcDbSpline
 70
0
 71
3
 72
13
 73
9
 74
7
 40
0.000000
 40
0.000000
 40
0.000000
 40
0.000000
 40
0.003271
 40
0.009347
 40
0.012618
 40
2.345832
 40
4.670303
 40
7.003517
 40
7.003517
 40
7.003517
 40
7.003517
 10
412.895670
 20
332.885500
 30
0.0
 10
412.896629
 20
332.884982
 30
0.0
 10
412.899370
 20
332.883500
 30
0.0
 10
412.903068
 20
332.881499
 30
0.0
 10
413.590998
 20
332.510504
 30
0.0
 10
411.366602
 20
330.652976
 30
0.0
 10
411.349988
 20
328.566246
 30
0.0
 10
411.186285
 20
326.988556
 30
0.0
 10
411.104280
 20
326.198230
 30
0.0
 11
412.895670
 21
332.885500
 31
0.0
 11
412.898548
 21
332.883944
 31
0.0
 11
412.903892
 21
332.881056
 31
0.0
 11
412.906770
 21
332.879500
 31
0.0
 11
411.917448
 21
330.766414
 31
0.0
 11
411.311993
 21
328.522180
 31
0.0
 11
411.104280
 21
326.198230
 31
0.0
  0
SPLINE
  5
134
100
AcDbEntity
  8
0
 62
7
100
AcDbSpline
 70
0
 71
3
 72
10
 73
6
 74
4
 40
0.000000
 40
0.000000
 40
0.000000
 40
0.000000
 40
6.992144
 40
13.776907
 40
20.769051
 40
20.769051
 40
20.769051
 40
20.769051
 10
411.104280
 20
326.198230
 30
0.0
 10
411.472241
 20
323.854975
 30
0.0
 10
412.197250
 20
319.237963
 30
0.0
 10
417.517528
 20
313.918241
 30
0.0
 10
422.134616
 20
313.193716
 30
0.0
 10
424.477910
 20
312.826000
 30
0.0
 11
411.104280
 21
326.198230
 31
0.0
 11
412.930461
 21
319.448775
 31
0.0
 11
417.728264
 21
314.651474
 31
0.0
 11
424.477910
 21
312.826000
 31
0.0
  0
SPLINE
  5
135
100
AcDbEntity
  8
0
 62
7
100
AcDbSpline
 70
0
 71
3
 72
10
 73
6
 74
4
 40
0.000000
 40
0.000000
 40
0.000000
 40
0.000000
 40
4.494996
 40
8.930038
 40
13.425034
 40
13.425034
 40
13.425034
 40
13.425034
 10
424.477910
 20
312.826000
 30
0.0
 10
425.978295
 20
312.979290
 30
0.0
 10
428.959053
 20
313.283826
 30
0.0
 10
433.018104
 20
315.531548
 30
0.0
 10
434.857931
 20
317.896437
 30
0.0
 10
435.784020
 20
319.086820
 30
0.0
 11
424.477910
 21
312.826000
 31
0.0
 11
428.907928
 21
313.587531
 31
0.0
 11
432.787814
 21
315.736039
 31
0.0
 11
435.784020
 21
319.086820
 31
0.0
  0
SPLINE
  5
136
100
AcDbEntity
  8
0
 62
7
100
AcDbSpline
 70
0
 71
3
 72
10
 73
6
 74
4
 40
0.000000
 40
0.000000
 40
0.000000
 40
0.000000
 40
24.844120
 40
49.688444
 40
74.543152
 40
74.543152
 40
74.543152
 40
74.543152
 10
435.784020
 20
319.086820
 30
0.0
 10
442.421397
 20
314.119418
 30
0.0
 10
455.696206
 20
304.184572
 30
0.0
 10
472.934247
 20
286.070426
 30
0.0
 10
482.252540
 20
272.353631
 30
0.0
 10
486.912660
 20
265.493800
 30
0.0
 11
435.784020
 21
319.086820
 31
0.0
 11
455.250056
 21
303.649729
 31
0.0
 11
472.388431
 21
285.663164
 31
0.0
 11
486.912660
 21
265.493800
 31
0.0
  0
SPLINE
  5
137
100
AcDbEntity
  8
0
 62
7
100
AcDbSpline
 70
0
 71
3
 72
10
 73
6
 74
4
 40
0.000000
 40
0.000000
 40
0.000000
 40
0.000000
 40
4.676914
 40
9.286619
 40
13.963533
 40
13.963533
 40
13.963533
 40
13.963533
 10
486.912660
 20
265.493800
 30
0.0
 10
485.638791
 20
264.575842
 30
0.0
 10
483.109358
 20
262.753116
 30
0.0
 10
480.679115
 20
258.567720
 30
0.0
 10
480.349986
 20
255.467393
 30
0.0
 10
480.184230
 20
253.906010
 30
0.0
 11
486.912660
 21
265.493800
 31
0.0
 11
483.322661
 21
262.496229
 31
0.0
 11
481.007955
 21
258.509813
 31
0.0
 11
480.184230
 21
253.906010
 31
0.0
  0
SPLINE
  5
138
100
AcDbEntity
  8
0
 62
7
100
AcDbSpline
 70
0
 71
3
 72
10
 73
6
 74
4
 40
0.000000
 40
0.000000
 40
0.000000
 40
0.000000
 40
6.991677
 40
13.776011
 40
20.767688
 40
20.767688
 40
20.767688
 40
20.767688
 10
480.184230
 20
253.906010
 30
0.0
 10
480.552141
 20
251.562914
 30
0.0
 10
481.277053
 20
246.946207
 30
0.0
 10
486.596648
 20
241.626608
 30
0.0
 10
491.213354
 20
240.901693
 30
0.0
 10
493.556450
 20
240.533780
 30
0.0
 11
480.184230
 21
253.906010
 31
0.0
 11
482.010168
 21
247.156973
 31
0.0
 11
486.807414
 21
242.359723
 31
0.0
 11
493.556450
 21
240.533780
 31
0.0
  0
SPLINE
  5
139
100
AcDbEntity
  8
0
 62
7
100
AcDbSpline
 70
0
 71
3
 72
10
 73
6
 74
4
 40
0.000000
 40
0.000000
 40
0.000000
 40
0.000000
 40
1.998129
 40
3.990744
 40
5.988873
 40
5.988873
 40
5.988873
 40
5.988873
 10
493.556450
 20
240.533780
 30
0.0
 10
494.222575
 20
240.564888
 30
0.0
 10
495.552987
 20
240.627019
 30
0.0
 10
497.512919
 20
241.077686
 30
0.0
 10
498.736849
 20
241.602900
 30
0.0
 10
499.349660
 20
241.865870
 30
0.0
 11
493.556450
 21
240.533780
 31
0.0
 11
495.548710
 21
240.686813
 31
0.0
 11
497.490649
 21
241.133342
 31
0.0
 11
499.349660
 21
241.865870
 31
0.0
  0
SPLINE
  5
13a
100
AcDbEntity
  8
0
 62
7
100
AcDbSpline
 70
0
 71
3
 72
10
 73
6
 74
4
 40
0.000000
 40
0.000000
 40
0.000000
 40
0.000000
 40
20.016213
 40
40.026378
 40
60.039292
 40
60.039292
 40
60.039292
 40
60.039292
 10
499.349660
 20
241.865870
 30
0.0
 10
501.817146
 20
235.662281
 30
0.0
 10
506.751372
 20
223.256976
 30
0.0
 10
511.649370
 20
203.766879
 30
0.0
 10
513.122903
 20
190.497990
 30
0.0
 10
513.859720
 20
183.863090
 30
0.0
 11
499.349660
 21
241.865870
 31
0.0
 11
506.334772
 21
223.108019
 31
0.0
 11
511.201321
 21
203.698654
 31
0.0
 11
513.859720
 21
183.863090
 31
0.0
  0
LINE
  5
13b
100
AcDbEntity
  8
0
 62
7
100
AcDbLine
 10
501.063340
 20
171.700830
 30
0.0
 11
535.475650
 21
171.928400
 31
0.0
  0
SPLINE
  5
13c
100
AcDbEntity
  8
0
 62
7
100
AcDbSpline
 70
0
 71
3
 72
10
 73
6
 74
4
 40
0.000000
 40
0.000000
 40
0.000000
 40
0.000000
 40
6.420591
 40
12.676865
 40
19.097456
 40
19.097456
 40
19.097456
 40
19.097456
 10
513.859720
 20
183.863090
 30
0.0
 10
511.724325
 20
183.469794
 30
0.0
 10
507.508183
 20
182.693267
 30
0.0
 10
502.554190
 20
177.984768
 30
0.0
 10
501.564566
 20
173.813498
 30
0.0
 10
501.063340
 20
171.700830
 30
0.0
 11
513.859720
 21
183.863090
 31
0.0
 11
507.691507
 21
182.080637
 31
0.0
 11
503.156720
 21
177.770570
 31
0.0
 11
501.063340
 21
171.700830
 31
0.0
  0
LINE
  5
13d
100
AcDbEntity
  8
0
 62
7
100
AcDbLine
 10
535.495050
 20
169.086610
 30
0.0
 11
501.106330
 21
168.859050
 31
0.0
  0
SPLINE
  5
13e
100
AcDbEntity
  8
0
 62
7
100
AcDbSpline
 70
0
 71
3
 72
16
 73
12
 74
10
 40
0.000000
 40
0.000000
 40
0.000000
 40
0.000000
 40
0.499804
 40
0.992348
 40
1.492152
 40
1.991956
 40
2.484500
 40
2.984304
 40
3.484108
 40
3.976652
 40
4.476456
 40
4.476456
 40
4.476456
 40
4.476456
 10
535.475650
 20
171.928400
 30
0.0
 10
535.643415
 20
171.914372
 30
0.0
 10
535.976509
 20
171.886518
 30
0.0
 10
536.419998
 20
171.629412
 30
0.0
 10
536.751501
 20
171.247418
 30
0.0
 10
536.929384
 20
170.770930
 30
0.0
 10
536.932846
 20
170.263819
 30
0.0
 10
536.761485
 20
169.784948
 30
0.0
 10
536.435228
 20
169.398463
 30
0.0
 10
535.995291
 20
169.135326
 30
0.0
 10
535.662608
 20
169.102928
 30
0.0
 10
535.495050
 20
169.086610
 30
0.0
 11
535.475650
 21
171.928400
 31
0.0
 11
535.969267
 21
171.850006
 31
0.0
 11
536.399493
 21
171.610202
 31
0.0
 11
536.725773
 21
171.231592
 31
0.0
 11
536.900824
 21
170.763446
 31
0.0
 11
536.904186
 21
170.270913
 31
0.0
 11
536.735543
 21
169.800420
 31
0.0
 11
536.414463
 21
169.417392
 31
0.0
 11
535.987551
 21
169.171736
 31
0.0
 11
535.495050
 21
169.086610
 31
0.0
  0
LINE
  5
13f
100
AcDbEntity
  8
0
 62
7
100
AcDbLine
 10
514.366180
 20
157.135270
 30
0.0
 11
556.604520
 21
157.134220
 31
0.0
  0
SPLINE
  5
140
100
AcDbEntity
  8
0
 62
7
100
AcDbSpline
 70
0
 71
3
 72
10
 73
6
 74
4
 40
0.000000
 40
0.000000
 40
0.000000
 40
0.000000
 40
6.440627
 40
12.715522
 40
19.156149
 40
19.156149
 40
19.156149
 40
19.156149
 10
501.106330
 20
168.859050
 30
0.0
 10
501.681327
 20
166.757998
 30
0.0
 10
502.816524
 20
162.609960
 30
0.0
 10
507.954653
 20
158.067051
 30
0.0
 10
512.210514
 20
157.448551
 30
0.0
 10
514.366180
 20
157.135270
 30
0.0
 11
501.106330
 21
168.859050
 31
0.0
 11
503.415097
 21
162.846457
 31
0.0
 11
508.116042
 21
158.690087
 31
0.0
 11
514.366180
 21
157.135270
 31
0.0
  0
LINE
  5
141
100
AcDbEntity
  8
0
 62
7
100
AcDbLine
 10
91.083496
 20
411.837486
 30
0.0
 11
89.784712
 21
425.687049
 31
0.0
  0
LINE
  5
142
100
AcDbEntity
  8
0
 62
7
100
AcDbLine
 10
89.784712
 20
425.687049
 30
0.0
 11
93.417430
 21
426.128303
 31
0.0
  0
SPLINE
  5
143
100
AcDbEntity
  8
0
 62
7
100
AcDbSpline
 70
0
 71
3
 72
13
 73
9
 74
7
 40
0.000000
 40
0.000000
 40
0.000000
 40
0.000000
 40
0.193153
 40
0.384762
 40
0.575242
 40
21.553349
 40
54.316639
 40
71.577196
 40
71.577196
 40
71.577196
 40
71.577196
 10
23.291257
 20
430.574152
 30
0.0
 10
23.291974
 20
430.509754
 30
0.0
 10
23.293401
 20
430.381472
 30
0.0
 10
23.307718
 20
430.190204
 30
0.0
 10
24.272336
 20
423.118428
 30
0.0
 10
48.360585
 20
418.949336
 30
0.0
 10
68.384025
 20
414.252751
 30
0.0
 10
85.260370
 20
412.457077
 30
0.0
 10
91.083496
 20
411.837486
 30
0.0
 11
23.291257
 21
430.574152
 31
0.0
 11
23.295460
 21
430.381045
 31
0.0
 11
23.309694
 21
430.189965
 31
0.0
 11
23.334263
 21
430.001077
 31
0.0
 11
41.748696
 21
419.951717
 31
0.0
 11
73.943788
 21
413.876425
 31
0.0
 11
91.083496
 21
411.837486
 31
0.0
  0
SPLINE
  5
144
100
AcDbEntity
  8
0
 62
7
100
AcDbSpline
 70
0
 71
3
 72
13
 73
9
 74
7
 40
0.000000
 40
0.000000
 40
0.000000
 40
0.000000
 40
4.631974
 40
9.303475
 40
14.023720
 40
23.488317
 40
32.906036
 40
42.300885
 40
42.300885
 40
42.300885
 40
42.300885
 10
93.417430
 20
426.128303
 30
0.0
 10
93.582514
 20
424.593150
 30
0.0
 10
93.914091
 20
421.509745
 30
0.0
 10
94.355630
 20
416.855950
 30
0.0
 10
94.883879
 20
410.592601
 30
0.0
 10
95.398195
 20
402.741312
 30
0.0
 10
95.779395
 20
393.321049
 30
0.0
 10
95.777360
 20
387.049624
 30
0.0
 10
95.776344
 20
383.917724
 30
0.0
 11
93.417430
 21
426.128303
 31
0.0
 11
93.903100
 21
421.521862
 31
0.0
 11
94.346030
 21
416.871406
 31
0.0
 11
94.741193
 21
412.167731
 31
0.0
 11
95.359794
 21
402.723372
 31
0.0
 11
95.715637
 21
393.312377
 31
0.0
 11
95.776344
 21
383.917724
 31
0.0
  0
LINE
  5
145
100
AcDbEntity
  8
0
 62
7
100
AcDbLine
 10
77.578055
 20
361.287464
 30
0.0
 11
68.981922
 21
301.131127
 31
0.0
  0
SPLINE
  5
146
100
AcDbEntity
  8
0
 62
7
100
AcDbSpline
 70
0
 71
3
 72
10
 73
6
 74
4
 40
0.000000
 40
0.000000
 40
0.000000
 40
0.000000
 40
8.300976
 40
17.631325
 40
30.603621
 40
30.603621
 40
30.603621
 40
30.603621
 10
95.776344
 20
383.917724
 30
0.0
 10
94.614331
 20
381.212085
 30
0.0
 10
92.146208
 20
375.465289
 30
0.0
 10
80.028870
 20
374.360448
 30
0.0
 10
78.479338
 20
366.095030
 30
0.0
 10
77.578055
 20
361.287464
 30
0.0
 11
95.776344
 21
383.917724
 31
0.0
 11
91.289972
 21
376.933552
 31
0.0
 11
82.745200
 21
373.186248
 31
0.0
 11
77.578055
 21
361.287464
 31
0.0
  0
SPLINE
  5
147
100
AcDbEntity
  8
0
 62
7
100
AcDbSpline
 70
0
 71
3
 72
10
 73
6
 74
4
 40
0.000000
 40
0.000000
 40
0.000000
 40
0.000000
 40
9.890801
 40
19.949254
 40
31.923190
 40
31.923190
 40
31.923190
 40
31.923190
 10
68.981922
 20
301.131127
 30
0.0
 10
68.622199
 20
297.873024
 30
0.0
 10
67.896656
 20
291.301593
 30
0.0
 10
70.260655
 20
280.122718
 30
0.0
 10
76.809439
 20
276.111504
 30
0.0
 10
80.368504
 20
273.931532
 30
0.0
 11
68.981922
 21
301.131127
 31
0.0
 11
68.444246
 21
291.254951
 31
0.0
 11
71.143656
 21
281.565490
 31
0.0
 11
80.368504
 21
273.931532
 31
0.0
  0
SPLINE
  5
148
100
AcDbEntity
  8
0
 62
7
100
AcDbSpline
 70
0
 71
3
 72
10
 73
6
 74
4
 40
0.000000
 40
0.000000
 40
0.000000
 40
0.000000
 40
0.100223
 40
0.198317
 40
0.298009
 40
0.298009
 40
0.298009
 40
0.298009
 10
80.368504
 20
273.931532
 30
0.0
 10
80.401193
 20
273.924639
 30
0.0
 10
80.465877
 20
273.911000
 30
0.0
 10
80.562903
 20
273.889698
 30
0.0
 10
80.627395
 20
273.876007
 30
0.0
 10
80.659901
 20
273.869107
 30
0.0
 11
80.368504
 21
273.931532
 31
0.0
 11
80.466542
 21
273.910716
 31
0.0
 11
80.562407
 21
273.889922
 31
0.0
 11
80.659901
 21
273.869107
 31
0.0
  0
SPLINE
  5
149
100
AcDbEntity
  8
0
 62
7
100
AcDbSpline
 70
0
 71
3
 72
10
 73
6
 74
4
 40
0.000000
 40
0.000000
 40
0.000000
 40
0.000000
 40
8.979307
 40
17.965151
 40
26.964408
 40
26.964408
 40
26.964408
 40
26.964408
 10
80.659901
 20
273.869107
 30
0.0
 10
82.963963
 20
271.958564
 30
0.0
 10
87.573765
 20
268.136087
 30
0.0
 10
94.380398
 20
262.264791
 30
0.0
 10
98.834405
 20
258.251857
 30
0.0
 10
101.063069
 20
256.243893
 30
0.0
 11
80.659901
 21
273.869107
 31
0.0
 11
87.553388
 21
268.115170
 31
0.0
 11
94.355550
 21
262.243545
 31
0.0
 11
101.063069
 21
256.243893
 31
0.0
  0
LINE
  5
14a
100
AcDbEntity
  8
0
 62
7
100
AcDbLine
 10
111.486673
 20
246.416962
 30
0.0
 11
108.929336
 21
243.791630
 31
0.0
  0
LINE
  5
14b
100
AcDbEntity
  8
0
 62
7
100
AcDbLine
 10
108.929336
 20
243.791630
 30
0.0
 11
98.540421
 21
253.556128
 31
0.0
  0
SPLINE
  5
14c
100
AcDbEntity
  8
0
 62
7
100
AcDbSpline
 70
0
 71
3
 72
10
 73
6
 74
4
 40
0.000000
 40
0.000000
 40
0.000000
 40
0.000000
 40
4.781291
 40
9.555974
 40
14.326016
 40
14.326016
 40
14.326016
 40
14.326016
 10
101.063069
 20
256.243893
 30
0.0
 10
102.235084
 20
255.163863
 30
0.0
 10
104.577493
 20
253.005296
 30
0.0
 10
108.058754
 20
249.736297
 30
0.0
 10
110.344404
 20
247.523048
 30
0.0
 10
111.486673
 20
246.416962
 30
0.0
 11
101.063069
 21
256.243893
 31
0.0
 11
104.574036
 21
252.998302
 31
0.0
 11
108.051437
 21
249.726411
 31
0.0
 11
111.486673
 21
246.416962
 31
0.0
  0
LINE
  5
14d
100
AcDbEntity
  8
0
 62
7
100
AcDbLine
 10
137.531791
 20
213.349229
 30
0.0
 11
128.340378
 21
223.790869
 31
0.0
  0
LINE
  5
14e
100
AcDbEntity
  8
0
 62
7
100
AcDbLine
 10
128.340378
 20
223.790869
 30
0.0
 11
131.019818
 21
226.282987
 31
0.0
  0
SPLINE
  5
14f
100
AcDbEntity
  8
0
 62
7
100
AcDbSpline
 70
0
 71
3
 72
13
 73
9
 74
7
 40
0.000000
 40
0.000000
 40
0.000000
 40
0.000000
 40
17.405555
 40
50.392790
 40
71.373382
 40
92.351284
 40
125.113904
 40
142.374071
 40
142.374071
 40
142.374071
 40
142.374071
 10
98.540421
 20
253.556128
 30
0.0
 10
95.544088
 20
248.448451
 30
0.0
 10
86.869065
 20
233.660639
 30
0.0
 10
77.037137
 20
216.224572
 30
0.0
 10
65.616899
 20
181.901054
 30
0.0
 10
100.022611
 20
192.724405
 30
0.0
 10
117.574646
 20
202.139633
 30
0.0
 10
132.412163
 20
210.473620
 30
0.0
 10
137.531791
 20
213.349229
 30
0.0
 11
98.540421
 21
253.556128
 31
0.0
 11
89.758197
 21
238.528623
 31
0.0
 11
75.088262
 21
208.982885
 31
0.0
 11
72.045723
 21
188.224075
 31
0.0
 11
92.850045
 21
190.917138
 31
0.0
 11
122.467148
 21
204.924867
 31
0.0
 11
137.531791
 21
213.349229
 31
0.0
  0
SPLINE
  5
150
100
AcDbEntity
  8
0
 62
7
100
AcDbSpline
 70
0
 71
3
 72
13
 73
9
 74
7
 40
0.000000
 40
0.000000
 40
0.000000
 40
0.000000
 40
4.632157
 40
9.303992
 40
14.024419
 40
23.488872
 40
32.906335
 40
42.301054
 40
42.301054
 40
42.301054
 40
42.301054
 10
131.019818
 20
226.282987
 30
0.0
 10
132.055768
 20
225.138023
 30
0.0
 10
134.136541
 20
222.838287
 30
0.0
 10
137.229475
 20
219.332763
 30
0.0
 10
141.338502
 20
214.576078
 30
0.0
 10
146.369385
 20
208.526586
 30
0.0
 10
152.214758
 20
201.129632
 30
0.0
 10
155.899278
 20
196.054845
 30
0.0
 10
157.739311
 20
193.520520
 30
0.0
 11
131.019818
 21
226.282987
 31
0.0
 11
134.120509
 21
222.841681
 31
0.0
 11
137.212644
 21
219.339575
 31
0.0
 11
140.297270
 21
215.766409
 31
0.0
 11
146.348893
 21
208.489477
 31
0.0
 11
152.168248
 21
201.085174
 31
0.0
 11
157.739311
 21
193.520520
 31
0.0
  0
LINE
  5
151
100
AcDbEntity
  8
0
 62
7
100
AcDbLine
 10
156.318416
 20
164.515658
 30
0.0
 11
184.722447
 21
110.794992
 31
0.0
  0
SPLINE
  5
152
100
AcDbEntity
  8
0
 62
7
100
AcDbSpline
 70
0
 71
3
 72
10
 73
6
 74
4
 40
0.000000
 40
0.000000
 40
0.000000
 40
0.000000
 40
8.300949
 40
17.631238
 40
30.603521
 40
30.603521
 40
30.603521
 40
30.603521
 10
157.739311
 20
193.520520
 30
0.0
 10
158.389566
 20
190.648608
 30
0.0
 10
159.770709
 20
184.548659
 30
0.0
 10
150.617040
 20
176.532436
 30
0.0
 10
154.221742
 20
168.934813
 30
0.0
 10
156.318416
 20
164.515658
 30
0.0
 11
157.739311
 21
193.520520
 31
0.0
 11
158.214979
 21
185.233211
 31
0.0
 11
153.504769
 21
177.179129
 31
0.0
 11
156.318416
 21
164.515658
 31
0.0
  0
SPLINE
  5
153
100
AcDbEntity
  8
0
 62
7
100
AcDbSpline
 70
0
 71
3
 72
10
 73
6
 74
4
 40
0.000000
 40
0.000000
 40
0.000000
 40
0.000000
 40
9.890901
 40
19.949593
 40
31.923687
 40
31.923687
 40
31.923687
 40
31.923687
 10
184.722447
 20
110.794992
 30
0.0
 10
186.346543
 20
107.947680
 30
0.0
 10
189.622286
 20
102.204752
 30
0.0
 10
198.105867
 20
94.550467
 30
0.0
 10
205.761789
 20
95.154578
 30
0.0
 10
209.922530
 20
95.482892
 30
0.0
 11
184.722447
 21
110.794992
 31
0.0
 11
190.092695
 21
102.488948
 31
0.0
 11
197.972185
 21
96.236675
 31
0.0
 11
209.922530
 21
95.482892
 31
0.0
  0
SPLINE
  5
154
100
AcDbEntity
  8
0
 62
7
100
AcDbSpline
 70
0
 71
3
 72
10
 73
6
 74
4
 40
0.000000
 40
0.000000
 40
0.000000
 40
0.000000
 40
0.101122
 40
0.200090
 40
0.300659
 40
0.300659
 40
0.300659
 40
0.300659
 10
209.922530
 20
95.482892
 30
0.0
 10
209.953301
 20
95.496653
 30
0.0
 10
210.014186
 20
95.523881
 30
0.0
 10
210.105909
 20
95.564267
 30
0.0
 10
210.166657
 20
95.591353
 30
0.0
 10
210.197274
 20
95.605004
 30
0.0
 11
209.922530
 21
95.482892
 31
0.0
 11
210.014882
 21
95.524085
 31
0.0
 11
210.105390
 21
95.564121
 31
0.0
 11
210.197274
 21
95.605004
 31
0.0
  0
SPLINE
  5
155
100
AcDbEntity
  8
0
 62
7
100
AcDbSpline
 70
0
 71
3
 72
10
 73
6
 74
4
 40
0.000000
 40
0.000000
 40
0.000000
 40
0.000000
 40
8.978451
 40
17.963539
 40
26.961951
 40
26.961951
 40
26.961951
 40
26.961951
 10
210.197274
 20
95.605004
 30
0.0
 10
213.184000
 20
95.413579
 30
0.0
 10
219.159658
 20
95.030587
 30
0.0
 10
228.116527
 20
94.280826
 30
0.0
 10
234.078092
 20
93.652218
 30
0.0
 10
237.061084
 20
93.337681
 30
0.0
 11
210.197274
 21
95.605004
 31
0.0
 11
219.155427
 21
95.001615
 31
0.0
 11
228.108949
 21
94.249114
 31
0.0
 11
237.061084
 21
93.337681
 31
0.0
  0
LINE
  5
156
100
AcDbEntity
  8
0
 62
7
100
AcDbLine
 10
251.270038
 20
91.514388
 30
0.0
 11
250.744136
 21
87.887212
 31
0.0
  0
LINE
  5
157
100
AcDbEntity
  8
0
 62
7
100
AcDbLine
 10
250.744136
 20
87.887212
 30
0.0
 11
236.600401
 21
89.681376
 31
0.0
  0
SPLINE
  5
158
100
AcDbEntity
  8
0
 62
7
100
AcDbSpline
 70
0
 71
3
 72
10
 73
6
 74
4
 40
0.000000
 40
0.000000
 40
0.000000
 40
0.000000
 40
4.781272
 40
9.555934
 40
14.325970
 40
14.325970
 40
14.325970
 40
14.325970
 10
237.061084
 20
93.337681
 30
0.0
 10
238.644083
 20
93.152814
 30
0.0
 10
241.807893
 20
92.783334
 30
0.0
 10
246.545747
 20
92.184903
 30
0.0
 10
249.695783
 20
91.737821
 30
0.0
 10
251.270038
 20
91.514388
 30
0.0
 11
237.061084
 21
93.337681
 31
0.0
 11
241.809207
 21
92.775645
 31
0.0
 11
246.545634
 21
92.172604
 31
0.0
 11
251.270038
 21
91.514388
 31
0.0
  0
LINE
  5
159
100
AcDbEntity
  8
0
 62
7
100
AcDbLine
 10
291.778043
 20
80.072287
 30
0.0
 11
278.204608
 21
83.116669
 31
0.0
  0
LINE
  5
15a
100
AcDbEntity
  8
0
 62
7
100
AcDbLine
 10
278.204608
 20
83.116669
 30
0.0
 11
278.906729
 21
86.707755
 31
0.0
  0
SPLINE
  5
15b
100
AcDbEntity
  8
0
 62
7
100
AcDbSpline
 70
0
 71
3
 72
13
 73
9
 74
7
 40
0.000000
 40
0.000000
 40
0.000000
 40
0.000000
 40
17.405863
 40
50.393646
 40
71.374458
 40
92.352727
 40
125.116136
 40
142.376735
 40
142.376735
 40
142.376735
 40
142.376735
 10
236.600401
 20
89.681376
 30
0.0
 10
237.178495
 20
83.787868
 30
0.0
 10
238.852198
 20
66.724917
 30
0.0
 10
241.146476
 20
46.839514
 30
0.0
 10
252.082045
 20
12.357799
 30
0.0
 10
273.555262
 20
41.338176
 30
0.0
 10
282.221071
 20
59.272448
 30
0.0
 10
289.326382
 20
74.736480
 30
0.0
 10
291.778043
 20
80.072287
 30
0.0
 11
236.600401
 21
89.681376
 31
0.0
 11
238.328260
 21
72.361487
 31
0.0
 11
243.826362
 21
39.835118
 31
0.0
 11
253.566499
 21
21.252217
 31
0.0
 11
268.814710
 21
35.659848
 31
0.0
 11
284.542104
 21
64.401631
 31
0.0
 11
291.778043
 21
80.072287
 31
0.0
  0
SPLINE
  5
15c
100
AcDbEntity
  8
0
 62
7
100
AcDbSpline
 70
0
 71
3
 72
13
 73
9
 74
7
 40
0.000000
 40
0.000000
 40
0.000000
 40
0.000000
 40
4.632212
 40
9.304158
 40
14.024638
 40
23.489136
 40
32.906656
 40
42.301397
 40
42.301397
 40
42.301397
 40
42.301397
 10
278.906729
 20
86.707755
 30
0.0
 10
280.417835
 20
86.390341
 30
0.0
 10
283.453008
 20
85.752790
 30
0.0
 10
288.015746
 20
84.734434
 30
0.0
 10
294.135951
 20
83.301222
 30
0.0
 10
301.761947
 20
81.364455
 30
0.0
 10
310.838982
 20
78.816595
 30
0.0
 10
316.802775
 20
76.876832
 30
0.0
 10
319.781060
 20
75.908125
 30
0.0
 11
278.906729
 21
86.707755
 31
0.0
 11
283.438018
 21
85.746083
 31
0.0
 11
287.998149
 21
84.730074
 31
0.0
 11
292.593940
 21
83.652280
 31
0.0
 11
301.767190
 21
81.322427
 31
0.0
 11
310.827480
 21
78.753221
 31
0.0
 11
319.781060
 21
75.908125
 31
0.0
  0
LINE
  5
15d
100
AcDbEntity
  8
0
 62
7
100
AcDbLine
 10
335.680103
 20
51.607204
 30
0.0
 11
390.236104
 21
24.841910
 31
0.0
  0
SPLINE
  5
15e
100
AcDbEntity
  8
0
 62
7
100
AcDbSpline
 70
0
 71
3
 72
10
 73
6
 74
4
 40
0.000000
 40
0.000000
 40
0.000000
 40
0.000000
 40
8.300992
 40
17.631423
 40
30.603758
 40
30.603758
 40
30.603758
 40
30.603758
 10
319.781060
 20
75.908125
 30
0.0
 10
321.995187
 20
73.966883
 30
0.0
 10
326.698025
 20
69.843656
 30
0.0
 10
324.004288
 20
57.977923
 30
0.0
 10
331.386350
 20
53.950021
 30
0.0
 10
335.680103
 20
51.607204
 30
0.0
 11
319.781060
 21
75.908125
 31
0.0
 11
325.037020
 21
69.483069
 31
0.0
 11
325.960428
 21
60.198444
 31
0.0
 11
335.680103
 21
51.607204
 31
0.0
  0
LINE
  5
15f
100
AcDbEntity
  8
0
 62
7
100
AcDbLine
 10
419.622552
 20
27.266043
 30
0.0
 11
419.622552
 21
62.220895
 31
0.0
  0
SPLINE
  5
160
100
AcDbEntity
  8
0
 62
7
100
AcDbSpline
 70
0
 71
3
 72
10
 73
6
 74
4
 40
0.000000
 40
0.000000
 40
0.000000
 40
0.000000
 40
9.890657
 40
19.948844
 40
31.922631
 40
31.922631
 40
31.922631
 40
31.922631
 10
390.236104
 20
24.841910
 30
0.0
 10
393.223538
 20
23.493000
 30
0.0
 10
399.249006
 20
20.772332
 30
0.0
 10
410.611065
 20
19.566158
 30
0.0
 10
416.449512
 20
24.554832
 30
0.0
 10
419.622552
 20
27.266043
 30
0.0
 11
390.236104
 21
24.841910
 31
0.0
 11
399.462616
 21
21.278684
 31
0.0
 11
409.511738
 21
20.851760
 31
0.0
 11
419.622552
 21
27.266043
 31
0.0
  0
LINE
  5
161
100
AcDbEntity
  8
0
 62
7
100
AcDbLine
 10
451.854589
 20
70.200957
 30
0.0
 11
452.137660
 21
98.263642
 31
0.0
  0
SPLINE
  5
162
100
AcDbEntity
  8
0
 62
7
100
AcDbSpline
 70
0
 71
3
 72
10
 73
6
 74
4
 40
0.000000
 40
0.000000
 40
0.000000
 40
0.000000
 40
18.167636
 40
32.079587
 40
47.330802
 40
47.330802
 40
47.330802
 40
47.330802
 10
419.622552
 20
62.220895
 30
0.0
 10
423.725761
 20
56.641354
 30
0.0
 10
430.971021
 20
46.789254
 30
0.0
 10
448.773557
 20
55.198578
 30
0.0
 10
450.796610
 20
65.049371
 30
0.0
 10
451.854589
 20
70.200957
 30
0.0
 11
419.622552
 21
62.220895
 31
0.0
 11
433.478364
 21
50.470173
 31
0.0
 11
446.233997
 21
56.023210
 31
0.0
 11
451.854589
 21
70.200957
 31
0.0
  0
LINE
  5
163
100
AcDbEntity
  8
0
 62
7
100
AcDbLine
 10
419.622552
 20
112.213112
 30
0.0
 11
419.622552
 21
121.045142
 31
0.0
  0
LINE
  5
164
100
AcDbEntity
  8
0
 62
7
100
AcDbLine
 10
419.622552
 20
121.045142
 30
0.0
 11
419.622552
 21
165.152569
 31
0.0
  0
SPLINE
  5
165
100
AcDbEntity
  8
0
 62
7
100
AcDbSpline
 70
0
 71
3
 72
10
 73
6
 74
4
 40
0.000000
 40
0.000000
 40
0.000000
 40
0.000000
 40
19.364816
 40
34.006501
 40
51.258735
 40
51.258735
 40
51.258735
 40
51.258735
 10
452.137660
 20
98.263642
 30
0.0
 10
451.288876
 20
104.886745
 30
0.0
 10
449.798327
 20
116.517558
 30
0.0
 10
431.119351
 20
127.149860
 30
0.0
 10
423.658381
 20
117.456499
 30
0.0
 10
419.622552
 20
112.213112
 30
0.0
 11
452.137660
 21
98.263642
 31
0.0
 11
446.056271
 21
116.648767
 31
0.0
 11
432.947653
 21
123.171271
 31
0.0
 11
419.622552
 21
112.213112
 31
0.0
  0
LINE
  5
166
100
AcDbEntity
  8
0
 62
7
100
AcDbLine
 10
442.309705
 20
173.132621
 30
0.0
 11
442.592776
 21
201.195306
 31
0.0
  0
SPLINE
  5
167
100
AcDbEntity
  8
0
 62
7
100
AcDbSpline
 70
0
 71
3
 72
10
 73
6
 74
4
 40
0.000000
 40
0.000000
 40
0.000000
 40
0.000000
 40
16.358836
 40
26.229033
 40
40.751630
 40
40.751630
 40
40.751630
 40
40.751630
 10
419.622552
 20
165.152569
 30
0.0
 10
422.966503
 20
159.119231
 30
0.0
 10
428.328046
 20
149.445645
 30
0.0
 10
442.047692
 20
159.775833
 30
0.0
 10
442.211926
 20
168.148083
 30
0.0
 10
442.309705
 20
173.132621
 30
0.0
 11
419.622552
 21
165.152569
 31
0.0
 11
431.003760
 21
153.401841
 31
0.0
 11
439.163698
 21
158.954875
 31
0.0
 11
442.309705
 21
173.132621
 31
0.0
  0
LINE
  5
168
100
AcDbEntity
  8
0
 62
7
100
AcDbLine
 10
419.622552
 20
215.144777
 30
0.0
 11
419.622552
 21
233.959147
 31
0.0
  0
SPLINE
  5
169
100
AcDbEntity
  8
0
 62
7
100
AcDbSpline
 70
0
 71
3
 72
10
 73
6
 74
4
 40
0.000000
 40
0.000000
 40
0.000000
 40
0.000000
 40
18.735582
 40
29.460007
 40
44.881226
 40
44.881226
 40
44.881226
 40
44.881226
 10
442.592776
 20
201.195306
 30
0.0
 10
442.669025
 20
207.535405
 30
0.0
 10
442.788919
 20
217.504636
 30
0.0
 10
428.524119
 20
230.299897
 30
0.0
 10
422.925015
 20
220.767295
 30
0.0
 10
419.622552
 20
215.144777
 30
0.0
 11
442.592776
 21
201.195306
 31
0.0
 11
438.985968
 21
219.580436
 31
0.0
 11
430.473022
 21
226.102938
 31
0.0
 11
419.622552
 21
215.144777
 31
0.0
  0
SPLINE
  5
16a
100
AcDbEntity
  8
0
 62
7
100
AcDbSpline
 70
0
 71
3
 72
10
 73
6
 74
4
 40
0.000000
 40
0.000000
 40
0.000000
 40
0.000000
 40
32.205800
 40
63.431211
 40
94.149650
 40
94.149650
 40
94.149650
 40
94.149650
 10
419.622552
 20
233.959147
 30
0.0
 10
408.881517
 20
234.653734
 30
0.0
 10
387.726418
 20
236.021764
 30
0.0
 10
357.506540
 20
246.043892
 30
0.0
 10
340.063426
 20
257.179516
 30
0.0
 10
331.413249
 20
262.701759
 30
0.0
 11
419.622552
 21
233.959147
 31
0.0
 11
387.604422
 21
237.430877
 31
0.0
 11
357.963697
 21
247.251963
 31
0.0
 11
331.413249
 21
262.701759
 31
0.0
  0
SPLINE
  5
16b
100
AcDbEntity
  8
0
 62
7
100
AcDbSpline
 70
0
 71
3
 72
10
 73
6
 74
4
 40
0.000000
 40
0.000000
 40
0.000000
 40
0.000000
 40
32.205717
 40
63.430930
 40
94.149232
 40
94.149232
 40
94.149232
 40
94.149232
 10
331.413249
 20
262.701759
 30
0.0
 10
323.131832
 20
269.577059
 30
0.0
 10
306.821126
 20
283.118340
 30
0.0
 10
288.263366
 20
308.988877
 30
0.0
 10
280.696930
 20
328.250473
 30
0.0
 10
276.944672
 20
337.802458
 30
0.0
 11
331.413249
 21
262.701759
 31
0.0
 11
307.550614
 21
284.330047
 31
0.0
 11
289.343339
 21
309.697527
 31
0.0
 11
276.944672
 21
337.802458
 31
0.0
  0
SPLINE
  5
16c
100
AcDbEntity
  8
0
 62
7
100
AcDbSpline
 70
0
 71
3
 72
10
 73
6
 74
4
 40
0.000000
 40
0.000000
 40
0.000000
 40
0.000000
 40
32.205920
 40
63.431572
 40
94.150131
 40
94.150131
 40
94.150131
 40
94.150131
 10
276.944672
 20
337.802458
 30
0.0
 10
274.286104
 20
348.232472
 30
0.0
 10
269.049890
 20
368.775034
 30
0.0
 10
269.243058
 20
400.613012
 30
0.0
 10
274.443441
 20
420.643621
 30
0.0
 10
277.022347
 20
430.576937
 30
0.0
 11
276.944672
 21
337.802458
 31
0.0
 11
270.352345
 21
369.326458
 31
0.0
 11
270.533272
 21
400.551585
 31
0.0
 11
277.022347
 21
430.576937
 31
0.0
  0
SPLINE
  5
16d
100
AcDbEntity
  8
0
 62
7
100
AcDbSpline
 70
0
 71
3
 72
10
 73
6
 74
4
 40
0.000000
 40
0.000000
 40
0.000000
 40
0.000000
 40
32.205989
 40
63.431807
 40
94.150486
 40
94.150486
 40
94.150486
 40
94.150486
 10
277.022347
 20
430.576937
 30
0.0
 10
281.002165
 20
440.577675
 30
0.0
 10
288.840676
 20
460.274784
 30
0.0
 10
307.711128
 20
485.918650
 30
0.0
 10
323.692124
 20
499.067064
 30
0.0
 10
331.617204
 20
505.587448
 30
0.0
 11
277.022347
 21
430.576937
 31
0.0
 11
290.218515
 21
459.955278
 31
0.0
 11
308.718815
 21
485.110607
 31
0.0
 11
331.617204
 21
505.587448
 31
0.0
  0
SPLINE
  5
16e
100
AcDbEntity
  8
0
 62
7
100
AcDbSpline
 70
0
 71
3
 72
10
 73
6
 74
4
 40
0.000000
 40
0.000000
 40
0.000000
 40
0.000000
 40
32.205513
 40
63.430442
 40
94.148647
 40
94.148647
 40
94.148647
 40
94.148647
 10
331.617204
 20
505.587448
 30
0.0
 10
340.715076
 20
511.338886
 30
0.0
 10
358.633809
 20
522.666645
 30
0.0
 10
388.972831
 20
532.320999
 30
0.0
 10
409.629725
 20
533.564782
 30
0.0
 10
419.873681
 20
534.181586
 30
0.0
 11
331.617204
 21
505.587448
 31
0.0
 11
359.560827
 21
521.598352
 31
0.0
 11
389.312971
 21
531.074957
 31
0.0
 11
419.873681
 21
534.181586
 31
0.0
  0
SPLINE
  5
16f
100
AcDbEntity
  8
0
 62
7
100
AcDbSpline
 70
0
 71
3
 72
10
 73
6
 74
4
 40
0.000000
 40
0.000000
 40
0.000000
 40
0.000000
 40
38.222600
 40
79.505306
 40
117.207933
 40
117.207933
 40
117.207933
 40
117.207933
 10
419.873681
 20
534.181586
 30
0.0
 10
431.196895
 20
541.209576
 30
0.0
 10
454.749862
 20
555.828220
 30
0.0
 10
455.364371
 20
604.477628
 30
0.0
 10
431.255947
 20
618.346323
 30
0.0
 10
419.748102
 20
624.966365
 30
0.0
 11
419.873681
 21
534.181586
 31
0.0
 11
448.495970
 21
559.514010
 31
0.0
 11
448.684159
 21
600.796286
 31
0.0
 11
419.748102
 21
624.966365
 31
0.0
  0
SPLINE
  5
170
100
AcDbEntity
  8
0
 62
7
100
AcDbSpline
 70
0
 71
3
 72
10
 73
6
 74
4
 40
0.000000
 40
0.000000
 40
0.000000
 40
0.000000
 40
54.805047
 40
102.412463
 40
158.294711
 40
158.294711
 40
158.294711
 40
158.294711
 10
419.748102
 20
624.966365
 30
0.0
 10
438.061330
 20
633.099374
 30
0.0
 10
472.282681
 20
648.297273
 30
0.0
 10
468.499289
 20
713.217878
 30
0.0
 10
436.923789
 20
731.070768
 30
0.0
 10
419.873681
 20
740.710954
 30
0.0
 11
419.748102
 21
624.966365
 31
0.0
 11
464.186661
 21
657.041397
 31
0.0
 11
462.538520
 21
704.620276
 31
0.0
 11
419.873681
 21
740.710954
 31
0.0
  0
SPLINE
  5
171
100
AcDbEntity
  8
0
 62
7
100
AcDbSpline
 70
0
 71
3
 72
10
 73
6
 74
4
 40
0.000000
 40
0.000000
 40
0.000000
 40
0.000000
 40
9.038176
 40
18.082985
 40
27.141250
 40
27.141250
 40
27.141250
 40
27.141250
 10
419.873681
 20
740.710954
 30
0.0
 10
417.328476
 20
739.098915
 30
0.0
 10
412.236198
 20
735.873654
 30
0.0
 10
404.498812
 20
731.183371
 30
0.0
 10
399.271877
 20
728.167739
 30
0.0
 10
396.656467
 20
726.658802
 30
0.0
 11
419.873681
 21
740.710954
 31
0.0
 11
412.222380
 21
735.899903
 31
0.0
 11
404.486138
 21
731.213845
 31
0.0
 11
396.656467
 21
726.658802
 31
0.0
  0
LINE
  5
172
100
AcDbEntity
  8
0
 62
7
100
AcDbLine
 10
384.089036
 20
719.781888
 30
0.0
 11
382.383686
 21
723.026080
 31
0.0
  0
LINE
  5
173
100
AcDbEntity
  8
0
 62
7
100
AcDbLine
 10
382.383686
 20
723.026080
 30
0.0
 11
394.880348
 21
729.887730
 31
0.0
  0
SPLINE
  5
174
100
AcDbEntity
  8
0
 62
7
100
AcDbSpline
 70
0
 71
3
 72
10
 73
6
 74
4
 40
0.000000
 40
0.000000
 40
0.000000
 40
0.000000
 40
4.781399
 40
9.556290
 40
14.326441
 40
14.326441
 40
14.326441
 40
14.326441
 10
396.656467
 20
726.658802
 30
0.0
 10
395.267093
 20
725.877881
 30
0.0
 10
392.490236
 20
724.317102
 30
0.0
 10
388.305326
 20
722.016361
 30
0.0
 10
385.494001
 20
720.526466
 30
0.0
 10
384.089036
 20
719.781888
 30
0.0
 11
396.656467
 21
726.658802
 31
0.0
 11
392.484680
 21
724.322572
 31
0.0
 11
388.298158
 21
722.026356
 31
0.0
 11
384.089036
 21
719.781888
 31
0.0
  0
LINE
  5
175
100
AcDbEntity
  8
0
 62
7
100
AcDbLine
 10
344.592585
 20
705.228810
 30
0.0
 11
357.362608
 21
710.744493
 31
0.0
  0
LINE
  5
176
100
AcDbEntity
  8
0
 62
7
100
AcDbLine
 10
357.362608
 20
710.744493
 30
0.0
 11
358.905606
 21
707.426757
 31
0.0
  0
SPLINE
  5
177
100
AcDbEntity
  8
0
 62
7
100
AcDbSpline
 70
0
 71
3
 72
13
 73
9
 74
7
 40
0.000000
 40
0.000000
 40
0.000000
 40
0.000000
 40
17.406032
 40
50.394143
 40
71.375157
 40
92.353517
 40
125.117194
 40
142.377947
 40
142.377947
 40
142.377947
 40
142.377947
 10
394.880348
 20
729.887730
 30
0.0
 10
390.948480
 20
734.315906
 30
0.0
 10
379.564889
 20
747.136412
 30
0.0
 10
366.020234
 20
761.875523
 30
0.0
 10
336.904990
 20
783.344255
 30
0.0
 10
336.567335
 20
747.276691
 30
0.0
 10
340.098268
 20
727.673836
 30
0.0
 10
343.439652
 20
710.986661
 30
0.0
 10
344.592585
 20
705.228810
 30
0.0
 11
394.880348
 21
729.887730
 31
0.0
 11
383.301921
 21
742.884267
 31
0.0
 11
359.734997
 21
765.967065
 31
0.0
 11
340.932112
 21
775.275904
 31
0.0
 11
337.064827
 21
754.657086
 31
0.0
 11
341.235425
 21
722.159938
 31
0.0
 11
344.592585
 21
705.228810
 31
0.0
  0
SPLINE
  5
178
100
AcDbEntity
  8
0
 62
7
100
AcDbSpline
 70
0
 71
3
 72
13
 73
9
 74
7
 40
0.000000
 40
0.000000
 40
0.000000
 40
0.000000
 40
4.631999
 40
9.303551
 40
14.023824
 40
23.488570
 40
32.906552
 40
42.301539
 40
42.301539
 40
42.301539
 40
42.301539
 10
358.905606
 20
707.426757
 30
0.0
 10
357.496580
 20
706.795393
 30
0.0
 10
354.666498
 20
705.527274
 30
0.0
 10
350.376756
 20
703.669531
 30
0.0
 10
344.583048
 20
701.231813
 30
0.0
 10
337.274995
 20
698.316026
 30
0.0
 10
328.433747
 20
695.041496
 30
0.0
 10
322.468575
 20
693.105213
 30
0.0
 10
319.489634
 20
692.138255
 30
0.0
 11
358.905606
 21
707.426757
 31
0.0
 11
354.674619
 21
705.541508
 31
0.0
 11
350.388495
 21
703.683406
 31
0.0
 11
346.037067
 21
701.854183
 31
0.0
 11
337.246122
 21
698.346947
 31
0.0
 11
328.405719
 21
695.099541
 31
0.0
 11
319.489634
 21
692.138255
 31
0.0
  0
LINE
  5
179
100
AcDbEntity
  8
0
 62
7
100
AcDbLine
 10
292.344147
 20
702.453623
 30
0.0
 11
232.475096
 21
692.039725
 31
0.0
  0
SPLINE
  5
17a
100
AcDbEntity
  8
0
 62
7
100
AcDbSpline
 70
0
 71
3
 72
10
 73
6
 74
4
 40
0.000000
 40
0.000000
 40
0.000000
 40
0.000000
 40
8.300838
 40
17.631276
 40
30.603404
 40
30.603404
 40
30.603404
 40
30.603404
 10
319.489634
 20
692.138255
 30
0.0
 10
316.557380
 20
692.407389
 30
0.0
 10
310.329168
 20
692.979037
 30
0.0
 10
305.534704
 20
704.162361
 30
0.0
 10
297.194922
 20
703.082005
 30
0.0
 10
292.344147
 20
702.453623
 30
0.0
 11
319.489634
 21
692.138255
 31
0.0
 11
311.461130
 21
694.247056
 31
0.0
 11
305.257109
 21
701.216071
 31
0.0
 11
292.344147
 21
702.453623
 31
0.0
  0
SPLINE
  5
17b
100
AcDbEntity
  8
0
 62
7
100
AcDbSpline
 70
0
 71
3
 72
10
 73
6
 74
4
 40
0.000000
 40
0.000000
 40
0.000000
 40
0.000000
 40
9.890901
 40
19.949562
 40
31.923613
 40
31.923613
 40
31.923613
 40
31.923613
 10
232.475096
 20
692.039725
 30
0.0
 10
229.265268
 20
691.374998
 30
0.0
 10
222.791168
 20
690.034271
 30
0.0
 10
212.889887
 20
684.331334
 30
0.0
 10
211.098623
 20
676.863454
 30
0.0
 10
210.125131
 20
672.804908
 30
0.0
 11
232.475096
 21
692.039725
 31
0.0
 11
222.916069
 21
689.499072
 31
0.0
 11
214.534884
 21
683.937381
 31
0.0
 11
210.125131
 21
672.804908
 31
0.0
  0
SPLINE
  5
17c
100
AcDbEntity
  8
0
 62
7
100
AcDbSpline
 70
0
 71
3
 72
10
 73
6
 74
4
 40
0.000000
 40
0.000000
 40
0.000000
 40
0.000000
 40
0.100864
 40
0.199564
 40
0.299888
 40
0.299888
 40
0.299888
 40
0.299888
 10
210.125131
 20
672.804908
 30
0.0
 10
210.128684
 20
672.771475
 30
0.0
 10
210.135714
 20
672.705326
 30
0.0
 10
210.145323
 20
672.605825
 30
0.0
 10
210.152177
 20
672.539838
 30
0.0
 10
210.155633
 20
672.506576
 30
0.0
 11
210.125131
 21
672.804908
 31
0.0
 11
210.135628
 21
672.704592
 31
0.0
 11
210.145388
 21
672.606376
 31
0.0
 11
210.155633
 21
672.506576
 31
0.0
  0
SPLINE
  5
17d
100
AcDbEntity
  8
0
 62
7
100
AcDbSpline
 70
0
 71
3
 72
10
 73
6
 74
4
 40
0.000000
 40
0.000000
 40
0.000000
 40
0.000000
 40
8.978535
 40
17.963764
 40
26.962243
 40
26.962243
 40
26.962243
 40
26.962243
 10
210.155633
 20
672.506576
 30
0.0
 10
209.050671
 20
669.725138
 30
0.0
 10
206.839925
 20
664.160188
 30
0.0
 10
203.359592
 20
655.873049
 30
0.0
 10
200.919612
 20
650.397399
 30
0.0
 10
199.698723
 20
647.657556
 30
0.0
 11
210.155633
 21
672.506576
 31
0.0
 11
206.813757
 21
664.173152
 31
0.0
 11
203.331693
 21
655.890062
 31
0.0
 11
199.698723
 21
647.657556
 31
0.0
  0
LINE
  5
17e
100
AcDbEntity
  8
0
 62
7
100
AcDbLine
 10
193.573887
 20
634.707150
 30
0.0
 11
190.286683
 21
636.329246
 31
0.0
  0
LINE
  5
17f
100
AcDbEntity
  8
0
 62
7
100
AcDbLine
 10
190.286683
 20
636.329246
 30
0.0
 11
196.362953
 21
649.225537
 31
0.0
  0
SPLINE
  5
180
100
AcDbEntity
  8
0
 62
7
100
AcDbSpline
 70
0
 71
3
 72
10
 73
6
 74
4
 40
0.000000
 40
0.000000
 40
0.000000
 40
0.000000
 40
4.781350
 40
9.556145
 40
14.326245
 40
14.326245
 40
14.326245
 40
14.326245
 10
199.698723
 20
647.657556
 30
0.0
 10
199.033728
 20
646.209134
 30
0.0
 10
197.704648
 20
643.314276
 30
0.0
 10
195.671482
 20
638.993108
 30
0.0
 10
194.272856
 20
636.135334
 30
0.0
 10
193.573887
 20
634.707150
 30
0.0
 11
199.698723
 21
647.657556
 31
0.0
 11
197.696947
 21
643.315414
 31
0.0
 11
195.659799
 21
638.997000
 31
0.0
 11
193.573887
 21
634.707150
 31
0.0
  0
LINE
  5
181
100
AcDbEntity
  8
0
 62
7
100
AcDbLine
 10
170.173548
 20
599.717600
 30
0.0
 11
177.262756
 21
611.686978
 31
0.0
  0
LINE
  5
182
100
AcDbEntity
  8
0
 62
7
100
AcDbLine
 10
177.262756
 20
611.686978
 30
0.0
 11
180.461163
 21
609.909472
 31
0.0
  0
SPLINE
  5
183
100
AcDbEntity
  8
0
 62
7
100
AcDbSpline
 70
0
 71
3
 72
13
 73
9
 74
7
 40
0.000000
 40
0.000000
 40
0.000000
 40
0.000000
 40
17.405995
 40
50.394010
 40
71.374908
 40
92.353441
 40
125.117329
 40
142.378181
 40
142.378181
 40
142.378181
 40
142.378181
 10
196.362953
 20
649.225537
 30
0.0
 10
190.579216
 20
650.496978
 30
0.0
 10
173.834084
 20
654.178068
 30
0.0
 10
154.212896
 20
658.141189
 30
0.0
 10
118.039241
 20
658.396494
 30
0.0
 10
138.966052
 20
629.018474
 30
0.0
 10
153.344781
 20
615.234600
 30
0.0
 10
165.856445
 20
603.698194
 30
0.0
 10
170.173548
 20
599.717600
 30
0.0
 11
196.362953
 21
649.225537
 31
0.0
 11
179.356717
 21
652.934526
 31
0.0
 11
146.723099
 21
657.756982
 31
0.0
 11
126.039731
 21
654.236136
 31
0.0
 11
135.030423
 21
635.281815
 31
0.0
 11
157.505743
 21
611.442092
 31
0.0
 11
170.173548
 21
599.717600
 31
0.0
  0
SPLINE
  5
184
100
AcDbEntity
  8
0
 62
7
100
AcDbSpline
 70
0
 71
3
 72
13
 73
9
 74
7
 40
0.000000
 40
0.000000
 40
0.000000
 40
0.000000
 40
4.632220
 40
9.304177
 40
14.024667
 40
23.489255
 40
32.906935
 40
42.301757
 40
42.301757
 40
42.301757
 40
42.301757
 10
180.461163
 20
609.909472
 30
0.0
 10
179.692357
 20
608.570391
 30
0.0
 10
178.148150
 20
605.880742
 30
0.0
 10
175.769993
 20
601.855810
 30
0.0
 10
172.515798
 20
596.477919
 30
0.0
 10
168.317305
 20
589.823534
 30
0.0
 10
163.089622
 20
581.977670
 30
0.0
 10
159.401931
 20
576.905050
 30
0.0
 10
157.560326
 20
574.371823
 30
0.0
 11
180.461163
 21
609.909472
 31
0.0
 11
178.146442
 21
605.897050
 31
0.0
 11
175.771245
 21
601.873914
 31
0.0
 11
173.326155
 21
597.836023
 31
0.0
 11
168.275791
 21
589.831510
 31
0.0
 11
163.032829
 21
582.008208
 31
0.0
 11
157.560326
 21
574.371823
 31
0.0
  0
LINE
  5
185
100
AcDbEntity
  8
0
 62
7
100
AcDbLine
 10
129.535105
 20
566.760875
 30
0.0
 11
87.221833
 21
523.146040
 31
0.0
  0
SPLINE
  5
186
100
AcDbEntity
  8
0
 62
7
100
AcDbSpline
 70
0
 71
3
 72
10
 73
6
 74
4
 40
0.000000
 40
0.000000
 40
0.000000
 40
0.000000
 40
8.301094
 40
17.631868
 40
30.604255
 40
30.604255
 40
30.604255
 40
30.604255
 10
157.560326
 20
574.371823
 30
0.0
 10
155.029826
 20
572.865983
 30
0.0
 10
149.654940
 20
569.667518
 30
0.0
 10
139.202313
 20
575.896543
 30
0.0
 10
133.090167
 20
570.120466
 30
0.0
 10
129.535105
 20
566.760875
 30
0.0
 11
157.560326
 21
574.371823
 31
0.0
 11
149.825388
 21
571.358700
 31
0.0
 11
140.709544
 21
573.349861
 31
0.0
 11
129.535105
 21
566.760875
 31
0.0
  0
SPLINE
  5
187
100
AcDbEntity
  8
0
 62
7
100
AcDbSpline
 70
0
 71
3
 72
10
 73
6
 74
4
 40
0.000000
 40
0.000000
 40
0.000000
 40
0.000000
 40
9.890608
 40
19.948618
 40
31.922300
 40
31.922300
 40
31.922300
 40
31.922300
 10
87.221833
 20
523.146040
 30
0.0
 10
85.015753
 20
520.721705
 30
0.0
 10
80.566253
 20
515.832001
 30
0.0
 10
75.907878
 20
505.398943
 30
0.0
 10
78.848222
 20
498.304748
 30
0.0
 10
80.446227
 20
494.449228
 30
0.0
 11
87.221833
 21
523.146040
 31
0.0
 11
80.981771
 21
515.472335
 31
0.0
 11
77.470305
 21
506.047200
 31
0.0
 11
80.446227
 21
494.449228
 31
0.0
  0
SPLINE
  5
188
100
AcDbEntity
  8
0
 62
7
100
AcDbSpline
 70
0
 71
3
 72
10
 73
6
 74
4
 40
0.000000
 40
0.000000
 40
0.000000
 40
0.000000
 40
0.100117
 40
0.198138
 40
0.297753
 40
0.297753
 40
0.297753
 40
0.297753
 10
80.446227
 20
494.449228
 30
0.0
 10
80.468570
 20
494.424439
 30
0.0
 10
80.512787
 20
494.375378
 30
0.0
 10
80.578432
 20
494.300935
 30
0.0
 10
80.622453
 20
494.251922
 30
0.0
 10
80.644641
 20
494.227218
 30
0.0
 11
80.446227
 21
494.449228
 31
0.0
 11
80.513119
 21
494.374737
 31
0.0
 11
80.578191
 21
494.301431
 31
0.0
 11
80.644641
 21
494.227218
 31
0.0
  0
SPLINE
  5
189
100
AcDbEntity
  8
0
 62
7
100
AcDbSpline
 70
0
 71
3
 72
10
 73
6
 74
4
 40
0.000000
 40
0.000000
 40
0.000000
 40
0.000000
 40
8.979390
 40
17.965255
 40
26.964589
 40
26.964589
 40
26.964589
 40
26.964589
 10
80.644641
 20
494.227218
 30
0.0
 10
81.385709
 20
491.327242
 30
0.0
 10
82.868379
 20
485.525199
 30
0.0
 10
84.924213
 20
476.774371
 30
0.0
 10
86.168881
 20
470.909815
 30
0.0
 10
86.791681
 20
467.975341
 30
0.0
 11
80.644641
 21
494.227218
 31
0.0
 11
82.839624
 21
485.520239
 31
0.0
 11
84.891594
 21
476.771799
 31
0.0
 11
86.791681
 21
467.975341
 31
0.0
  0
LINE
  5
18a
100
AcDbEntity
  8
0
 62
7
100
AcDbLine
 10
89.447533
 20
453.898208
 30
0.0
 11
85.835627
 21
453.277949
 31
0.0
  0
LINE
  5
18b
100
AcDbEntity
  8
0
 62
7
100
AcDbLine
 10
85.835627
 20
453.277949
 30
0.0
 11
83.171448
 21
467.282929
 31
0.0
  0
SPLINE
  5
18c
100
AcDbEntity
  8
0
 62
7
100
AcDbSpline
 70
0
 71
3
 72
10
 73
6
 74
4
 40
0.000000
 40
0.000000
 40
0.000000
 40
0.000000
 40
4.781277
 40
9.555949
 40
14.325985
 40
14.325985
 40
14.325985
 40
14.325985
 10
86.791681
 20
467.975341
 30
0.0
 10
87.104982
 20
466.412679
 30
0.0
 10
87.731150
 20
463.289515
 30
0.0
 10
88.625518
 20
458.598509
 30
0.0
 10
89.173617
 20
455.464468
 30
0.0
 10
89.447533
 20
453.898208
 30
0.0
 11
86.791681
 21
467.975341
 31
0.0
 11
87.724175
 21
463.285878
 31
0.0
 11
88.613852
 21
458.594827
 31
0.0
 11
89.447533
 21
453.898208
 31
0.0
  0
LINE
  5
18d
100
AcDbEntity
  8
0
 62
7
100
AcDbLine
 10
23.291257
 20
430.574152
 30
0.0
 11
23.291257
 21
430.574152
 31
0.0
  0
SPLINE
  5
18e
100
AcDbEntity
  8
0
 62
7
100
AcDbSpline
 70
0
 71
3
 72
10
 73
6
 74
4
 40
0.000000
 40
0.000000
 40
0.000000
 40
0.000000
 40
16.939150
 40
49.410379
 40
70.978325
 40
70.978325
 40
70.978325
 40
70.978325
 10
83.171448
 20
467.282929
 30
0.0
 10
78.023464
 20
465.004751
 30
0.0
 10
63.007137
 20
458.359455
 30
0.0
 10
40.576534
 20
449.233712
 30
0.0
 10
28.222115
 20
435.897042
 30
0.0
 10
23.291257
 20
430.574152
 30
0.0
 11
83.171448
 21
467.282929
 31
0.0
 11
67.657172
 21
460.482779
 31
0.0
 11
38.836187
 21
445.525122
 31
0.0
 11
23.291257
 21
430.574152
 31
0.0
  0
LINE
  5
18f
100
AcDbEntity
  8
0
 62
7
100
AcDbLine
 10
342.814192
 20
64.060832
 30
0.0
 11
342.814192
 21
64.060832
 31
0.0
  0
LINE
  5
190
100
AcDbEntity
  8
0
 62
7
100
AcDbLine
 10
406.511192
 20
684.058289
 30
0.0
 11
418.723400
 21
684.058289
 31
0.0
  0
LINE
  5
191
100
AcDbEntity
  8
0
 62
7
100
AcDbLine
 10
418.723400
 20
684.058289
 30
0.0
 11
418.723400
 21
656.724090
 31
0.0
  0
LINE
  5
192
100
AcDbEntity
  8
0
 62
7
100
AcDbLine
 10
418.723400
 20
656.724090
 30
0.0
 11
421.565191
 21
656.724090
 31
0.0
  0
LINE
  5
193
100
AcDbEntity
  8
0
 62
7
100
AcDbLine
 10
421.565191
 20
656.724090
 30
0.0
 11
421.565191
 21
684.058289
 31
0.0
  0
LINE
  5
194
100
AcDbEntity
  8
0
 62
7
100
AcDbLine
 10
421.565191
 20
684.058289
 30
0.0
 11
432.985088
 21
684.058289
 31
0.0
  0
LINE
  5
195
100
AcDbEntity
  8
0
 62
7
100
AcDbLine
 10
432.985088
 20
684.058289
 30
0.0
 11
432.985088
 21
690.129009
 31
0.0
  0
LINE
  5
196
100
AcDbEntity
  8
0
 62
7
100
AcDbLine
 10
432.985088
 20
690.129009
 30
0.0
 11
421.565191
 21
690.129009
 31
0.0
  0
LINE
  5
197
100
AcDbEntity
  8
0
 62
7
100
AcDbLine
 10
421.565191
 20
690.129009
 30
0.0
 11
421.565191
 21
706.714910
 31
0.0
  0
LINE
  5
198
100
AcDbEntity
  8
0
 62
7
100
AcDbLine
 10
421.565191
 20
706.714910
 30
0.0
 11
418.723400
 21
706.714910
 31
0.0
  0
LINE
  5
199
100
AcDbEntity
  8
0
 62
7
100
AcDbLine
 10
418.723400
 20
706.714910
 30
0.0
 11
418.723400
 21
690.129009
 31
0.0
  0
LINE
  5
19a
100
AcDbEntity
  8
0
 62
7
100
AcDbLine
 10
418.723400
 20
690.129009
 30
0.0
 11
406.511192
 21
690.129009
 31
0.0
  0
LINE
  5
19b
100
AcDbEntity
  8
0
 62
7
100
AcDbLine
 10
406.511192
 20
690.129009
 30
0.0
 11
406.511192
 21
684.058289
 31
0.0
  0
SPLINE
  5
19c
100
AcDbEntity
  8
0
 62
7
100
AcDbSpline
 70
0
 71
3
 72
61
 73
57
 74
55
 40
0.000000
 40
0.000000
 40
0.000000
 40
0.000000
 40
0.869304
 40
1.715604
 40
2.584909
 40
3.287567
 40
5.135759
 40
7.740933
 40
10.715916
 40
13.618307
 40
15.987367
 40
20.635798
 40
25.316919
 40
30.022282
 40
34.740982
 40
39.465972
 40
44.191163
 40
46.633543
 40
49.631287
 40
52.707615
 40
55.405004
 40
57.320538
 40
58.049263
 40
58.677015
 40
59.295568
 40
59.923319
 40
60.551071
 40
61.169623
 40
61.797375
 40
62.425127
 40
63.043679
 40
63.671431
 40
64.428826
 40
66.418673
 40
69.218538
 40
72.408524
 40
75.633843
 40
78.587601
 40
83.356678
 40
88.123500
 40
92.881434
 40
97.624241
 40
102.347081
 40
107.042201
 40
109.940269
 40
113.082176
 40
116.178809
 40
118.892243
 40
120.818864
 40
121.551755
 40
122.055429
 40
122.554243
 40
123.057917
 40
123.561592
 40
124.060406
 40
124.564080
 40
124.564080
 40
124.564080
 40
124.564080
 10
342.814192
 20
64.060832
 30
0.0
 10
342.858631
 20
63.769295
 30
0.0
 10
342.946333
 20
63.193935
 30
0.0
 10
343.572966
 20
62.520559
 30
0.0
 10
344.365375
 20
62.285595
 30
0.0
 10
345.500050
 20
62.193820
 30
0.0
 10
347.201414
 20
61.934559
 30
0.0
 10
349.649383
 20
61.566587
 30
0.0
 10
352.424352
 20
61.020580
 30
0.0
 10
355.103730
 20
60.393728
 30
0.0
 10
358.229529
 20
59.296369
 30
0.0
 10
361.730580
 20
57.567234
 30
0.0
 10
365.978163
 20
55.609381
 30
0.0
 10
370.203508
 20
53.546086
 30
0.0
 10
374.432151
 20
51.456446
 30
0.0
 10
378.617840
 20
49.271052
 30
0.0
 10
382.182996
 20
47.526543
 30
0.0
 10
385.037785
 20
45.690355
 30
0.0
 10
387.256777
 20
43.915370
 30
0.0
 10
389.476788
 20
42.011730
 30
0.0
 10
391.351984
 20
40.265569
 30
0.0
 10
392.654159
 20
39.047495
 30
0.0
 10
393.406744
 20
38.261561
 30
0.0
 10
393.925936
 20
37.840588
 30
0.0
 10
394.544850
 20
37.671449
 30
0.0
 10
395.179468
 20
37.717091
 30
0.0
 10
395.759993
 20
37.983186
 30
0.0
 10
396.212058
 20
38.432264
 30
0.0
 10
396.481962
 20
39.010978
 30
0.0
 10
396.531948
 20
39.645413
 30
0.0
 10
396.366405
 20
40.264938
 30
0.0
 10
395.944888
 20
40.796490
 30
0.0
 10
395.122783
 20
41.561569
 30
0.0
 10
393.803562
 20
42.859459
 30
0.0
 10
391.840138
 20
44.653948
 30
0.0
 10
389.525578
 20
46.673151
 30
0.0
 10
387.085575
 20
48.629172
 30
0.0
 10
383.988878
 20
50.573312
 30
0.0
 10
380.259312
 20
52.429117
 30
0.0
 10
376.032281
 20
54.626556
 30
0.0
 10
371.769748
 20
56.736467
 30
0.0
 10
367.507528
 20
58.813794
 30
0.0
 10
363.224710
 20
60.796984
 30
0.0
 10
359.528259
 20
62.589101
 30
0.0
 10
356.159199
 20
63.816898
 30
0.0
 10
353.188641
 20
64.508909
 30
0.0
 10
350.255757
 20
65.057417
 30
0.0
 10
347.709399
 20
65.467721
 30
0.0
 10
345.931138
 20
65.688907
 30
0.0
 10
344.889076
 20
65.842056
 30
0.0
 10
344.305037
 20
65.853926
 30
0.0
 10
343.818856
 20
65.697822
 30
0.0
 10
343.393960
 20
65.418493
 30
0.0
 10
343.067516
 20
65.029563
 30
0.0
 10
342.852516
 20
64.564856
 30
0.0
 10
342.827008
 20
64.229382
 30
0.0
 10
342.814192
 20
64.060832
 30
0.0
 11
342.814192
 21
64.060832
 31
0.0
 11
343.031773
 21
63.219197
 31
0.0
 11
343.602982
 21
62.594743
 31
0.0
 11
344.421945
 21
62.303212
 31
0.0
 11
345.119661
 21
62.220020
 31
0.0
 11
346.951297
 21
61.973196
 31
0.0
 11
349.524589
 21
61.566866
 31
0.0
 11
352.444749
 21
60.998369
 31
0.0
 11
355.261341
 21
60.297884
 31
0.0
 11
357.498625
 21
59.518778
 31
0.0
 11
361.728609
 21
57.591308
 31
0.0
 11
365.963626
 21
55.596934
 31
0.0
 11
370.197879
 21
53.544728
 31
0.0
 11
374.422138
 21
51.441928
 31
0.0
 11
378.628095
 21
49.288919
 31
0.0
 11
382.808326
 21
47.085943
 31
0.0
 11
384.859579
 21
45.760204
 31
0.0
 11
387.225266
 21
43.919013
 31
0.0
 11
389.557579
 21
41.912993
 31
0.0
 11
391.542507
 21
40.086531
 31
0.0
 11
392.924368
 21
38.759981
 31
0.0
 11
393.442838
 21
38.247898
 31
0.0
 11
393.949658
 21
37.877486
 31
0.0
 11
394.544385
 21
37.707463
 31
0.0
 11
395.170408
 21
37.754014
 31
0.0
 11
395.741169
 21
38.015365
 31
0.0
 11
396.179999
 21
38.451295
 31
0.0
 11
396.445129
 21
39.020310
 31
0.0
 11
396.495829
 21
39.646011
 31
0.0
 11
396.329754
 21
40.241852
 31
0.0
 11
395.962710
 21
40.751118
 31
0.0
 11
395.424196
 21
41.283705
 31
0.0
 11
393.989397
 21
42.662416
 31
0.0
 11
391.929432
 21
44.558672
 31
0.0
 11
389.519759
 21
46.649003
 31
0.0
 11
386.977109
 21
48.633345
 31
0.0
 11
384.484537
 21
50.218203
 31
0.0
 11
380.265528
 21
52.441726
 31
0.0
 11
376.022418
 21
54.613962
 31
0.0
 11
371.763080
 21
56.734335
 31
0.0
 11
367.494930
 21
58.802452
 31
0.0
 11
363.221795
 21
60.813804
 31
0.0
 11
358.949123
 21
62.760191
 31
0.0
 11
356.220024
 21
63.735291
 31
0.0
 11
353.169969
 21
64.489444
 31
0.0
 11
350.127730
 21
65.067299
 31
0.0
 11
347.447520
 21
65.490619
 31
0.0
 11
345.538191
 21
65.748167
 31
0.0
 11
344.810474
 21
65.835094
 31
0.0
 11
344.306882
 21
65.826000
 31
0.0
 11
343.830524
 21
65.678020
 31
0.0
 11
343.410422
 21
65.400167
 31
0.0
 11
343.085187
 21
65.015576
 31
0.0
 11
342.882324
 21
64.559877
 31
0.0
 11
342.814192
 21
64.060832
 31
0.0
  0
LINE
  5
19d
100
AcDbEntity
  8
0
 62
7
100
AcDbLine
 10
240.045798
 20
356.120065
 30
0.0
 11
245.440767
 21
356.970660
 31
0.0
  0
SPLINE
  5
19e
100
AcDbEntity
  8
0
 62
7
100
AcDbSpline
 70
0
 71
3
 72
10
 73
6
 74
4
 40
0.000000
 40
0.000000
 40
0.000000
 40
0.000000
 40
9.494205
 40
18.985194
 40
28.479396
 40
28.479396
 40
28.479396
 40
28.479396
 10
237.602255
 20
384.468596
 30
0.0
 10
237.676570
 20
381.304275
 30
0.0
 10
237.825174
 20
374.976704
 30
0.0
 10
238.641151
 20
365.510094
 30
0.0
 10
239.577529
 20
359.250427
 30
0.0
 10
240.045798
 20
356.120065
 30
0.0
 11
237.602255
 21
384.468596
 31
0.0
 11
237.924070
 21
374.979847
 31
0.0
 11
238.739132
 21
365.523920
 31
0.0
 11
240.045798
 21
356.120065
 31
0.0
  0
SPLINE
  5
19f
100
AcDbEntity
  8
0
 62
7
100
AcDbSpline
 70
0
 71
3
 72
10
 73
6
 74
4
 40
0.000000
 40
0.000000
 40
0.000000
 40
0.000000
 40
9.209322
 40
18.415530
 40
27.624857
 40
27.624857
 40
27.624857
 40
27.624857
 10
245.440767
 20
356.970660
 30
0.0
 10
244.986571
 20
360.007097
 30
0.0
 10
244.078331
 20
366.078945
 30
0.0
 10
243.286899
 20
375.261510
 30
0.0
 10
243.142809
 20
381.399221
 30
0.0
 10
243.070751
 20
384.468596
 30
0.0
 11
245.440767
 21
356.970660
 31
0.0
 11
244.173372
 21
366.092355
 31
0.0
 11
243.382831
 21
375.264558
 31
0.0
 11
243.070751
 21
384.468596
 31
0.0
  0
LINE
  5
1a0
100
AcDbEntity
  8
0
 62
7
100
AcDbLine
 10
245.365829
 20
412.239884
 30
0.0
 11
239.968094
 21
413.098806
 31
0.0
  0
SPLINE
  5
1a1
100
AcDbEntity
  8
0
 62
7
100
AcDbSpline
 70
0
 71
3
 72
10
 73
6
 74
4
 40
0.000000
 40
0.000000
 40
0.000000
 40
0.000000
 40
9.298292
 40
18.593375
 40
27.891667
 40
27.891667
 40
27.891667
 40
27.891667
 10
243.070751
 20
384.468596
 30
0.0
 10
243.130723
 20
387.567905
 30
0.0
 10
243.250647
 20
393.765452
 30
0.0
 10
244.017074
 20
403.039625
 30
0.0
 10
244.916192
 20
409.172778
 30
0.0
 10
245.365829
 20
412.239884
 30
0.0
 11
243.070751
 21
384.468596
 31
0.0
 11
243.348451
 21
393.762740
 31
0.0
 11
244.114002
 21
403.026244
 31
0.0
 11
245.365829
 21
412.239884
 31
0.0
  0
LINE
  5
1a2
100
AcDbEntity
  8
0
 62
7
100
AcDbLine
 10
237.602255
 20
384.468596
 30
0.0
 11
237.602255
 21
384.468596
 31
0.0
  0
LINE
  5
1a3
100
AcDbEntity
  8
0
 62
7
100
AcDbLine
 10
257.539190
 20
467.335654
 30
0.0
 11
262.409640
 21
464.849087
 31
0.0
  0
SPLINE
  5
1a4
100
AcDbEntity
  8
0
 62
7
100
AcDbSpline
 70
0
 71
3
 72
10
 73
6
 74
4
 40
0.000000
 40
0.000000
 40
0.000000
 40
0.000000
 40
9.585867
 40
19.168427
 40
28.754294
 40
28.754294
 40
28.754294
 40
28.754294
 10
239.968094
 20
413.098806
 30
0.0
 10
239.504575
 20
409.936838
 30
0.0
 10
238.577699
 20
403.613992
 30
0.0
 10
237.787631
 20
394.052985
 30
0.0
 10
237.664054
 20
387.663760
 30
0.0
 10
237.602255
 20
384.468596
 30
0.0
 11
239.968094
 21
413.098806
 31
0.0
 11
238.677622
 21
403.600199
 31
0.0
 11
237.888463
 21
394.050189
 31
0.0
 11
237.602255
 21
384.468596
 31
0.0
  0
LINE
  5
1a5
100
AcDbEntity
  8
0
 62
7
100
AcDbLine
 10
295.029185
 20
509.503227
 30
0.0
 11
291.167513
 21
513.370450
 31
0.0
  0
SPLINE
  5
1a6
100
AcDbEntity
  8
0
 62
7
100
AcDbSpline
 70
0
 71
3
 72
10
 73
6
 74
4
 40
0.000000
 40
0.000000
 40
0.000000
 40
0.000000
 40
18.509066
 40
36.992918
 40
55.501982
 40
55.501982
 40
55.501982
 40
55.501982
 10
262.409640
 20
464.849087
 30
0.0
 10
265.397773
 20
470.251035
 30
0.0
 10
271.369968
 20
481.047572
 30
0.0
 10
282.322748
 20
496.041252
 30
0.0
 10
290.791782
 20
505.013864
 30
0.0
 10
295.029185
 20
509.503227
 30
0.0
 11
262.409640
 21
464.849087
 31
0.0
 11
271.706492
 21
480.853902
 31
0.0
 11
282.609584
 21
495.779562
 31
0.0
 11
295.029185
 21
509.503227
 31
0.0
  0
LINE
  5
1a7
100
AcDbEntity
  8
0
 62
7
100
AcDbLine
 10
257.539190
 20
467.335654
 30
0.0
 11
257.539190
 21
467.335654
 31
0.0
  0
SPLINE
  5
1a8
100
AcDbEntity
  8
0
 62
7
100
AcDbSpline
 70
0
 71
3
 72
10
 73
6
 74
4
 40
0.000000
 40
0.000000
 40
0.000000
 40
0.000000
 40
19.081385
 40
38.136780
 40
57.218168
 40
57.218168
 40
57.218168
 40
57.218168
 10
291.167513
 20
513.370450
 30
0.0
 10
286.799074
 20
508.742280
 30
0.0
 10
278.068147
 20
499.492245
 30
0.0
 10
266.776644
 20
484.034980
 30
0.0
 10
260.619740
 20
472.904625
 30
0.0
 10
257.539190
 20
467.335654
 30
0.0
 11
291.167513
 21
513.370450
 31
0.0
 11
278.363850
 21
499.222466
 31
0.0
 11
267.123571
 21
483.835321
 31
0.0
 11
257.539190
 21
467.335654
 31
0.0
  0
LINE
  5
1a9
100
AcDbEntity
  8
0
 62
7
100
AcDbLine
 10
290.980173
 20
255.754063
 30
0.0
 11
294.847395
 21
259.614343
 31
0.0
  0
SPLINE
  5
1aa
100
AcDbEntity
  8
0
 62
7
100
AcDbSpline
 70
0
 71
3
 72
10
 73
6
 74
4
 40
0.000000
 40
0.000000
 40
0.000000
 40
0.000000
 40
19.072104
 40
38.118254
 40
57.190359
 40
57.190359
 40
57.190359
 40
57.190359
 10
257.578028
 20
301.919288
 30
0.0
 10
260.632030
 20
296.339248
 30
0.0
 10
266.735879
 20
285.186763
 30
0.0
 10
277.951357
 20
269.685813
 30
0.0
 10
286.635263
 20
260.400088
 30
0.0
 10
290.980173
 20
255.754063
 30
0.0
 11
257.578028
 21
301.919288
 31
0.0
 11
267.083362
 21
285.384665
 31
0.0
 11
278.248010
 21
269.953966
 31
0.0
 11
290.980173
 21
255.754063
 31
0.0
  0
LINE
  5
1ab
100
AcDbEntity
  8
0
 62
7
100
AcDbLine
 10
262.447095
 20
304.394753
 30
0.0
 11
257.578028
 21
301.919288
 31
0.0
  0
SPLINE
  5
1ac
100
AcDbEntity
  8
0
 62
7
100
AcDbSpline
 70
0
 71
3
 72
10
 73
6
 74
4
 40
0.000000
 40
0.000000
 40
0.000000
 40
0.000000
 40
18.500023
 40
36.974869
 40
55.474896
 40
55.474896
 40
55.474896
 40
55.474896
 10
294.847395
 20
259.614343
 30
0.0
 10
290.632803
 20
264.120995
 30
0.0
 10
282.209354
 20
273.128167
 30
0.0
 10
271.330269
 20
288.164139
 30
0.0
 10
265.409497
 20
298.982093
 30
0.0
 10
262.447095
 20
304.394753
 30
0.0
 11
294.847395
 21
259.614343
 31
0.0
 11
282.497110
 21
273.388279
 31
0.0
 11
271.667331
 21
288.356105
 31
0.0
 11
262.447095
 21
304.394753
 31
0.0
  0
LINE
  5
1ad
100
AcDbEntity
  8
0
 62
7
100
AcDbLine
 10
391.251817
 20
204.553261
 30
0.0
 11
392.110739
 21
209.949604
 31
0.0
  0
SPLINE
  5
1ae
100
AcDbEntity
  8
0
 62
7
100
AcDbSpline
 70
0
 71
3
 72
10
 73
6
 74
4
 40
0.000000
 40
0.000000
 40
0.000000
 40
0.000000
 40
19.082312
 40
38.138631
 40
57.220946
 40
57.220946
 40
57.220946
 40
57.220946
 10
337.014959
 20
222.124348
 30
0.0
 10
342.776143
 20
219.419555
 30
0.0
 10
354.290665
 20
214.013654
 30
0.0
 10
372.501979
 20
208.113746
 30
0.0
 10
384.999032
 20
205.740629
 30
0.0
 10
391.251817
 20
204.553261
 30
0.0
 11
337.014959
 21
222.124348
 31
0.0
 11
354.454624
 21
214.378853
 31
0.0
 11
372.583317
 21
208.505711
 31
0.0
 11
391.251817
 21
204.553261
 31
0.0
  0
LINE
  5
1af
100
AcDbEntity
  8
0
 62
7
100
AcDbLine
 10
339.501526
 20
226.993416
 30
0.0
 11
337.014959
 21
222.124348
 31
0.0
  0
LINE
  5
1b0
100
AcDbEntity
  8
0
 62
7
100
AcDbLine
 10
337.332718
 20
546.772595
 30
0.0
 11
339.809576
 21
541.902135
 31
0.0
  0
SPLINE
  5
1b1
100
AcDbEntity
  8
0
 62
7
100
AcDbSpline
 70
0
 71
3
 72
10
 73
6
 74
4
 40
0.000000
 40
0.000000
 40
0.000000
 40
0.000000
 40
18.509658
 40
36.994100
 40
55.503754
 40
55.503754
 40
55.503754
 40
55.503754
 10
392.110739
 20
209.949604
 30
0.0
 10
386.045601
 20
211.101350
 30
0.0
 10
373.923587
 20
213.403273
 30
0.0
 10
356.258796
 20
219.126136
 30
0.0
 10
345.089820
 20
224.369798
 30
0.0
 10
339.501526
 20
226.993416
 30
0.0
 11
392.110739
 21
209.949604
 31
0.0
 11
374.002483
 21
213.783471
 31
0.0
 11
356.417833
 21
219.480371
 31
0.0
 11
339.501526
 21
226.993416
 31
0.0
  0
LINE
  5
1b2
100
AcDbEntity
  8
0
 62
7
100
AcDbLine
 10
392.384090
 20
558.908482
 30
0.0
 11
391.533505
 21
564.304835
 31
0.0
  0
SPLINE
  5
1b3
100
AcDbEntity
  8
0
 62
7
100
AcDbSpline
 70
0
 71
3
 72
10
 73
6
 74
4
 40
0.000000
 40
0.000000
 40
0.000000
 40
0.000000
 40
18.494623
 40
36.964090
 40
55.458712
 40
55.458712
 40
55.458712
 40
55.458712
 10
339.809576
 20
541.902135
 30
0.0
 10
345.394776
 20
544.520529
 30
0.0
 10
356.557580
 20
549.753757
 30
0.0
 10
374.210512
 20
555.463973
 30
0.0
 10
386.323483
 20
557.759791
 30
0.0
 10
392.384090
 20
558.908482
 30
0.0
 11
339.809576
 21
541.902135
 31
0.0
 11
356.716170
 21
549.400012
 31
0.0
 11
374.289142
 21
555.084364
 31
0.0
 11
392.384090
 21
558.908482
 31
0.0
  0
LINE
  5
1b4
100
AcDbEntity
  8
0
 62
7
100
AcDbLine
 10
337.332718
 20
546.772595
 30
0.0
 11
337.332718
 21
546.772595
 31
0.0
  0
LINE
  5
1b5
100
AcDbEntity
  8
0
 62
7
100
AcDbLine
 10
418.327207
 20
554.577877
 30
0.0
 11
421.168998
 21
554.577877
 31
0.0
  0
LINE
  5
1b6
100
AcDbEntity
  8
0
 62
7
100
AcDbLine
 10
421.168998
 20
554.577877
 30
0.0
 11
421.168998
 21
604.570084
 31
0.0
  0
LINE
  5
1b7
100
AcDbEntity
  8
0
 62
7
100
AcDbLine
 10
421.168998
 20
604.570084
 30
0.0
 11
418.327207
 21
604.570084
 31
0.0
  0
LINE
  5
1b8
100
AcDbEntity
  8
0
 62
7
100
AcDbLine
 10
418.327207
 20
604.570084
 30
0.0
 11
418.327207
 21
554.577877
 31
0.0
  0
SPLINE
  5
1b9
100
AcDbEntity
  8
0
 62
7
100
AcDbSpline
 70
0
 71
3
 72
10
 73
6
 74
4
 40
0.000000
 40
0.000000
 40
0.000000
 40
0.000000
 40
19.066699
 40
38.107460
 40
57.174152
 40
57.174152
 40
57.174152
 40
57.174152
 10
391.533505
 20
564.304835
 30
0.0
 10
385.285426
 20
563.120633
 30
0.0
 10
372.797770
 20
560.753839
 30
0.0
 10
354.598786
 20
554.867040
 30
0.0
 10
343.090684
 20
549.471967
 30
0.0
 10
337.332718
 20
546.772595
 30
0.0
 11
391.533505
 21
564.304835
 31
0.0
 11
372.878830
 21
560.362486
 31
0.0
 11
354.762278
 21
554.502353
 31
0.0
 11
337.332718
 21
546.772595
 31
0.0
  0
LINE
  5
1ba
100
AcDbEntity
  8
0
 62
7
100
AcDbLine
 10
169.410272
 20
170.397919
 30
0.0
 11
169.410272
 21
170.397919
 31
0.0
  0
SPLINE
  5
1bb
100
AcDbEntity
  8
0
 62
7
100
AcDbSpline
 70
0
 71
3
 72
61
 73
57
 74
55
 40
0.000000
 40
0.000000
 40
0.000000
 40
0.000000
 40
0.869304
 40
1.715603
 40
2.584907
 40
3.287564
 40
5.135755
 40
7.740928
 40
10.715910
 40
13.618302
 40
15.987365
 40
20.635793
 40
25.316917
 40
30.022290
 40
34.740973
 40
39.465962
 40
44.191156
 40
46.633535
 40
49.631281
 40
52.707642
 40
55.405014
 40
57.320538
 40
58.049260
 40
58.676973
 40
59.295489
 40
59.923202
 40
60.550915
 40
61.169430
 40
61.797143
 40
62.424856
 40
63.043371
 40
63.671084
 40
64.428472
 40
66.418307
 40
69.218172
 40
72.408174
 40
75.633493
 40
78.587237
 40
83.356320
 40
88.123146
 40
92.881073
 40
97.623884
 40
102.346725
 40
107.041843
 40
109.939911
 40
113.081820
 40
116.178456
 40
118.891887
 40
120.818506
 40
121.551395
 40
122.055069
 40
122.553881
 40
123.057555
 40
123.561229
 40
124.060041
 40
124.563715
 40
124.563715
 40
124.563715
 40
124.563715
 10
169.410272
 20
170.397919
 30
0.0
 10
169.274862
 20
170.135940
 30
0.0
 10
169.007626
 20
169.618915
 30
0.0
 10
169.118781
 20
168.705818
 30
0.0
 10
169.621743
 20
168.049960
 30
0.0
 10
170.485771
 20
167.308770
 30
0.0
 10
171.709813
 20
166.098988
 30
0.0
 10
173.473975
 20
164.362416
 30
0.0
 10
175.398034
 20
162.289599
 30
0.0
 10
177.197244
 20
160.207566
 30
0.0
 10
179.081048
 20
157.482479
 30
0.0
 10
180.897105
 20
154.025716
 30
0.0
 10
183.182678
 20
149.945110
 30
0.0
 10
185.388226
 20
145.792247
 30
0.0
 10
187.581080
 20
141.616199
 30
0.0
 10
189.682817
 20
137.387890
 30
0.0
 10
191.541705
 20
133.881012
 30
0.0
 10
192.771986
 20
130.717498
 30
0.0
 10
193.523885
 20
127.977203
 30
0.0
 10
194.200928
 20
125.132219
 30
0.0
 10
194.691649
 20
122.617335
 30
0.0
 10
195.029191
 20
120.866509
 30
0.0
 10
195.176052
 20
119.788325
 30
0.0
 10
195.348718
 20
119.142624
 30
0.0
 10
195.750016
 20
118.642058
 30
0.0
 10
196.290242
 20
118.306011
 30
0.0
 10
196.916266
 20
118.180085
 30
0.0
 10
197.545916
 20
118.277675
 30
0.0
 10
198.104402
 20
118.587189
 30
0.0
 10
198.517748
 20
119.071028
 30
0.0
 10
198.747986
 20
119.669485
 30
0.0
 10
198.719492
 20
120.347258
 30
0.0
 10
198.504049
 20
121.449417
 30
0.0
 10
198.199677
 20
123.274844
 30
0.0
 10
197.666000
 20
125.880690
 30
0.0
 10
196.980361
 20
128.874733
 30
0.0
 10
196.156085
 20
131.891389
 30
0.0
 10
194.793497
 20
135.284403
 30
0.0
 10
192.867064
 20
138.977979
 30
0.0
 10
190.738945
 20
143.240332
 30
0.0
 10
188.530651
 20
147.452736
 30
0.0
 10
186.303464
 20
151.638598
 30
0.0
 10
184.004280
 20
155.760411
 30
0.0
 10
182.067176
 20
159.382987
 30
0.0
 10
180.063226
 20
162.356577
 30
0.0
 10
178.066743
 20
164.662474
 30
0.0
 10
176.016393
 20
166.830132
 30
0.0
 10
174.197523
 20
168.658791
 30
0.0
 10
172.888890
 20
169.882967
 30
0.0
 10
172.135862
 20
170.619372
 30
0.0
 10
171.670342
 20
170.972264
 30
0.0
 10
171.185258
 20
171.131742
 30
0.0
 10
170.677326
 20
171.155508
 30
0.0
 10
170.184620
 20
171.032737
 30
0.0
 10
169.737535
 20
170.783156
 30
0.0
 10
169.519711
 20
170.526745
 30
0.0
 10
169.410272
 20
170.397919
 30
0.0
 11
169.410272
 21
170.397919
 31
0.0
 11
169.091597
 21
169.589132
 31
0.0
 11
169.186668
 21
168.748190
 31
0.0
 11
169.677864
 21
168.030963
 31
0.0
 11
170.193429
 21
167.553553
 31
0.0
 11
171.530174
 21
166.277260
 31
0.0
 11
173.373178
 21
164.435993
 31
0.0
 11
175.401481
 21
162.259642
 31
0.0
 11
177.268417
 21
160.037384
 31
0.0
 11
178.620469
 21
158.092026
 31
0.0
 11
180.909659
 21
154.046352
 31
0.0
 11
183.163591
 21
149.943582
 31
0.0
 11
185.382898
 21
145.794460
 31
0.0
 11
187.564429
 21
141.610337
 31
0.0
 11
189.701620
 21
137.396321
 31
0.0
 11
191.788627
 21
133.156997
 31
0.0
 11
192.668871
 21
130.878756
 31
0.0
 11
193.500521
 21
127.998680
 31
0.0
 11
194.208269
 21
125.004837
 31
0.0
 11
194.740555
 21
122.360506
 31
0.0
 11
195.078784
 21
120.475079
 31
0.0
 11
195.197241
 21
119.756049
 31
0.0
 11
195.389587
 21
119.158532
 31
0.0
 11
195.770804
 21
118.671465
 31
0.0
 11
196.304612
 21
118.341203
 31
0.0
 11
196.919950
 21
118.217179
 31
0.0
 11
197.531168
 21
118.311912
 31
0.0
 11
198.080093
 21
118.616385
 31
0.0
 11
198.488883
 21
119.092741
 31
0.0
 11
198.704775
 21
119.672355
 31
0.0
 11
198.707222
 21
120.300063
 31
0.0
 11
198.584596
 21
121.047458
 31
0.0
 11
198.234197
 21
123.006199
 31
0.0
 11
197.682245
 21
125.751120
 31
0.0
 11
196.961455
 21
128.858622
 31
0.0
 11
196.070777
 21
131.958522
 31
0.0
 11
194.985783
 21
134.705773
 31
0.0
 11
192.879496
 21
138.984524
 31
0.0
 11
190.723560
 21
143.235943
 31
0.0
 11
188.524006
 21
147.454928
 31
0.0
 11
186.286604
 21
151.636828
 31
0.0
 11
184.011809
 21
155.775733
 31
0.0
 11
181.699208
 21
159.861808
 31
0.0
 11
180.064467
 21
162.254803
 31
0.0
 11
178.040197
 21
164.657702
 31
0.0
 11
175.918626
 21
166.913381
 31
0.0
 11
173.999117
 21
168.831242
 31
0.0
 11
172.605821
 21
170.161876
 31
0.0
 11
172.068180
 21
170.659941
 31
0.0
 11
171.655420
 21
170.948587
 31
0.0
 11
171.183058
 21
171.108864
 31
0.0
 11
170.679872
 21
171.131006
 31
0.0
 11
170.190695
 21
171.011034
 31
0.0
 11
169.758723
 21
170.761607
 31
0.0
 11
169.410272
 21
170.397919
 31
0.0
  0
LINE
  5
1bc
100
AcDbEntity
  8
0
 62
7
100
AcDbLine
 10
91.626922
 20
358.350738
 30
0.0
 11
91.626922
 21
358.350738
 31
0.0
  0
SPLINE
  5
1bd
100
AcDbEntity
  8
0
 62
7
100
AcDbSpline
 70
0
 71
3
 72
61
 73
57
 74
55
 40
0.000000
 40
0.000000
 40
0.000000
 40
0.000000
 40
0.869303
 40
1.715601
 40
2.584904
 40
3.287562
 40
5.135756
 40
7.740931
 40
10.715913
 40
13.618306
 40
15.987371
 40
20.635797
 40
25.316921
 40
30.022299
 40
34.740977
 40
39.465962
 40
44.191154
 40
46.633534
 40
49.631282
 40
52.707645
 40
55.405017
 40
57.320542
 40
58.049264
 40
58.676912
 40
59.295364
 40
59.923011
 40
60.550658
 40
61.169110
 40
61.796758
 40
62.424405
 40
63.042857
 40
63.670504
 40
64.427892
 40
66.417728
 40
69.217598
 40
72.407593
 40
75.632911
 40
78.586650
 40
83.355738
 40
88.122566
 40
92.880495
 40
97.623305
 40
102.346146
 40
107.041267
 40
109.939331
 40
113.081239
 40
116.177875
 40
118.891306
 40
120.817924
 40
121.550814
 40
122.054490
 40
122.553305
 40
123.056981
 40
123.560658
 40
124.059473
 40
124.563149
 40
124.563149
 40
124.563149
 40
124.563149
 10
91.626922
 20
358.350738
 30
0.0
 10
91.363387
 20
358.218384
 30
0.0
 10
90.843291
 20
357.957178
 30
0.0
 10
90.396514
 20
357.153131
 30
0.0
 10
90.417918
 20
356.326898
 30
0.0
 10
90.681267
 20
355.219398
 30
0.0
 10
90.960445
 20
353.521187
 30
0.0
 10
91.366945
 20
351.079321
 30
0.0
 10
91.705172
 20
348.271442
 30
0.0
 10
91.936973
 20
345.529492
 30
0.0
 10
91.859257
 20
342.217577
 30
0.0
 10
91.296628
 20
338.353547
 30
0.0
 10
90.747177
 20
333.708840
 30
0.0
 10
90.090516
 20
329.052714
 30
0.0
 10
89.409949
 20
324.385294
 30
0.0
 10
88.624952
 20
319.729154
 30
0.0
 10
88.067535
 20
315.799405
 30
0.0
 10
87.203381
 20
312.516928
 30
0.0
 10
86.200977
 20
309.858025
 30
0.0
 10
85.076476
 20
307.158428
 30
0.0
 10
83.995248
 20
304.835412
 30
0.0
 10
83.239254
 20
303.220546
 30
0.0
 10
82.724282
 20
302.261996
 30
0.0
 10
82.484580
 20
301.638112
 30
0.0
 10
82.515071
 20
300.997346
 30
0.0
 10
82.754621
 20
300.408022
 30
0.0
 10
83.187037
 20
299.938245
 30
0.0
 10
83.753736
 20
299.647129
 30
0.0
 10
84.387416
 20
299.569247
 30
0.0
 10
85.006160
 20
299.717660
 30
0.0
 10
85.544163
 20
300.066397
 30
0.0
 10
85.919588
 20
300.631364
 30
0.0
 10
86.393057
 20
301.649681
 30
0.0
 10
87.219809
 20
303.305367
 30
0.0
 10
88.319709
 20
305.727242
 30
0.0
 10
89.524879
 20
308.552475
 30
0.0
 10
90.631168
 20
311.477497
 30
0.0
 10
91.523167
 20
315.023413
 30
0.0
 10
92.135686
 20
319.143907
 30
0.0
 10
92.919353
 20
323.843102
 30
0.0
 10
93.608789
 20
328.549013
 30
0.0
 10
94.267353
 20
333.244554
 30
0.0
 10
94.830013
 20
337.930598
 30
0.0
 10
95.392154
 20
341.999925
 30
0.0
 10
95.518758
 20
345.583501
 30
0.0
 10
95.258947
 20
348.622512
 30
0.0
 10
94.874309
 20
351.581351
 30
0.0
 10
94.477658
 20
354.129870
 30
0.0
 10
94.138507
 20
355.889446
 30
0.0
 10
93.962145
 20
356.927830
 30
0.0
 10
93.792958
 20
357.486953
 30
0.0
 10
93.494255
 20
357.901102
 30
0.0
 10
93.097297
 20
358.218887
 30
0.0
 10
92.626524
 20
358.409168
 30
0.0
 10
92.118122
 20
358.470043
 30
0.0
 10
91.791184
 20
358.390635
 30
0.0
 10
91.626922
 20
358.350738
 30
0.0
 11
91.626922
 21
358.350738
 31
0.0
 11
90.893718
 21
357.883726
 31
0.0
 11
90.476342
 21
357.147508
 31
0.0
 11
90.452154
 21
356.278542
 31
0.0
 11
90.588639
 21
355.589266
 31
0.0
 11
90.919900
 21
353.771002
 31
0.0
 11
91.328647
 21
351.198092
 31
0.0
 11
91.690352
 21
348.245180
 31
0.0
 11
91.894526
 21
345.349978
 31
0.0
 11
91.844916
 21
342.981433
 31
0.0
 11
91.318917
 21
338.362862
 31
0.0
 11
90.730837
 21
333.718825
 31
0.0
 11
90.087505
 21
329.057633
 31
0.0
 11
89.393033
 21
324.390339
 31
0.0
 11
88.645120
 21
319.724923
 31
0.0
 11
87.841732
 21
315.068529
 31
0.0
 11
87.214746
 21
312.707997
 31
0.0
 11
86.194698
 21
309.889133
 31
0.0
 11
85.007538
 21
307.051060
 31
0.0
 11
83.883867
 21
304.598882
 31
0.0
 11
83.049274
 21
302.874733
 31
0.0
 11
82.722473
 21
302.223398
 31
0.0
 11
82.526981
 21
301.626971
 31
0.0
 11
82.549168
 21
301.008917
 31
0.0
 11
82.786923
 21
300.428044
 31
0.0
 11
83.211815
 21
299.966084
 31
0.0
 11
83.761927
 21
299.683488
 31
0.0
 11
84.384915
 21
299.607148
 31
0.0
 11
84.995574
 21
299.752187
 31
0.0
 11
85.510908
 21
300.094114
 31
0.0
 11
85.881882
 21
300.600394
 31
0.0
 11
86.221980
 21
301.277128
 31
0.0
 11
87.089817
 21
303.067745
 31
0.0
 11
88.256700
 21
305.612868
 31
0.0
 11
89.500112
 21
308.550554
 31
0.0
 11
90.601611
 21
311.581951
 31
0.0
 11
91.338622
 21
314.442265
 31
0.0
 11
92.149591
 21
319.141896
 31
0.0
 11
92.904325
 21
323.848595
 31
0.0
 11
93.604704
 21
328.554693
 31
0.0
 11
94.252671
 21
333.253032
 31
0.0
 11
94.845110
 21
337.938568
 31
0.0
 11
95.375907
 21
342.603588
 31
0.0
 11
95.459942
 21
345.500434
 31
0.0
 11
95.234667
 21
348.634255
 31
0.0
 11
94.844142
 21
351.706167
 31
0.0
 11
94.418510
 21
354.386007
 31
0.0
 11
94.073439
 21
356.281472
 31
0.0
 11
93.931235
 21
357.000433
 31
0.0
 11
93.766969
 21
357.476569
 31
0.0
 11
93.479028
 21
357.883886
 31
0.0
 11
93.084955
 21
358.197568
 31
0.0
 11
92.618683
 21
358.388040
 31
0.0
 11
92.122597
 21
358.440155
 31
0.0
 11
91.626922
 21
358.350738
 31
0.0
  0
LINE
  5
1be
100
AcDbEntity
  8
0
 62
7
100
AcDbLine
 10
139.174763
 20
556.127657
 30
0.0
 11
139.174763
 21
556.127657
 31
0.0
  0
SPLINE
  5
1bf
100
AcDbEntity
  8
0
 62
7
100
AcDbSpline
 70
0
 71
3
 72
61
 73
57
 74
55
 40
0.000000
 40
0.000000
 40
0.000000
 40
0.000000
 40
0.869305
 40
1.715605
 40
2.584911
 40
3.287567
 40
5.135757
 40
7.740931
 40
10.715919
 40
13.618311
 40
15.987371
 40
20.635799
 40
25.316925
 40
30.022303
 40
34.740981
 40
39.465966
 40
44.191154
 40
46.633536
 40
49.631286
 40
52.707642
 40
55.405016
 40
57.320541
 40
58.049262
 40
58.676961
 40
59.295462
 40
59.923161
 40
60.550860
 40
61.169361
 40
61.797060
 40
62.424759
 40
63.043260
 40
63.670959
 40
64.428346
 40
66.418181
 40
69.218044
 40
72.408043
 40
75.633363
 40
78.587102
 40
83.356188
 40
88.123017
 40
92.880947
 40
97.623755
 40
102.346596
 40
107.041715
 40
109.939786
 40
113.081694
 40
116.178327
 40
118.891760
 40
120.818379
 40
121.551268
 40
122.054944
 40
122.553758
 40
123.057434
 40
123.561109
 40
124.059924
 40
124.563599
 40
124.563599
 40
124.563599
 40
124.563599
 10
139.174763
 20
556.127657
 30
0.0
 10
138.883762
 20
556.175483
 30
0.0
 10
138.309461
 20
556.269869
 30
0.0
 10
137.475401
 20
555.881990
 30
0.0
 10
137.007070
 20
555.200971
 30
0.0
 10
136.569152
 20
554.150193
 30
0.0
 10
135.796830
 20
552.612217
 30
0.0
 10
134.690407
 20
550.397768
 30
0.0
 10
133.313606
 20
547.927342
 30
0.0
 10
131.889462
 20
545.572806
 30
0.0
 10
129.879884
 20
542.939100
 30
0.0
 10
127.153495
 20
540.143734
 30
0.0
 10
123.978889
 20
536.709045
 30
0.0
 10
120.710830
 20
533.328141
 30
0.0
 10
117.416806
 20
529.952140
 30
0.0
 10
114.044923
 20
526.646653
 30
0.0
 10
111.284111
 20
523.795064
 30
0.0
 10
108.655606
 20
521.647419
 30
0.0
 10
106.281781
 20
520.085520
 30
0.0
 10
103.785253
 20
518.562473
 30
0.0
 10
101.545098
 20
517.318629
 30
0.0
 10
99.984274
 20
516.456563
 30
0.0
 10
99.004243
 20
515.983724
 30
0.0
 10
98.443524
 20
515.619957
 30
0.0
 10
98.091486
 20
515.083623
 30
0.0
 10
97.938839
 20
514.466005
 30
0.0
 10
98.012531
 20
513.831723
 30
0.0
 10
98.299910
 20
513.263060
 30
0.0
 10
98.766842
 20
512.827560
 30
0.0
 10
99.354714
 20
512.583955
 30
0.0
 10
99.995011
 20
512.549905
 30
0.0
 10
100.630808
 20
512.786416
 30
0.0
 10
101.612439
 20
513.331911
 30
0.0
 10
103.254470
 20
514.185465
 30
0.0
 10
105.567856
 20
515.498280
 30
0.0
 10
108.203487
 20
517.075566
 30
0.0
 10
110.817778
 20
518.791701
 30
0.0
 10
113.623663
 20
521.136098
 30
0.0
 10
116.541164
 20
524.109620
 30
0.0
 10
119.937283
 20
527.450719
 30
0.0
 10
123.261118
 20
530.852637
 30
0.0
 10
126.553869
 20
534.264321
 30
0.0
 10
129.763459
 20
537.724686
 30
0.0
 10
132.610131
 20
540.686425
 30
0.0
 10
134.818931
 20
543.511183
 30
0.0
 10
136.395025
 20
546.122510
 30
0.0
 10
137.823003
 20
548.742347
 30
0.0
 10
139.000090
 20
551.037287
 30
0.0
 10
139.759965
 20
552.660162
 30
0.0
 10
140.227635
 20
553.603894
 30
0.0
 10
140.419403
 20
554.155679
 30
0.0
 10
140.421178
 20
554.666305
 30
0.0
 10
140.286820
 20
555.156724
 30
0.0
 10
140.017802
 20
555.587377
 30
0.0
 10
139.642277
 20
555.935457
 30
0.0
 10
139.331104
 20
556.063383
 30
0.0
 10
139.174763
 20
556.127657
 30
0.0
 11
139.174763
 21
556.127657
 31
0.0
 11
138.307084
 21
556.180805
 31
0.0
 11
137.536679
 21
555.830519
 31
0.0
 11
137.006344
 21
555.141726
 31
0.0
 11
136.711617
 21
554.503868
 31
0.0
 11
135.910866
 21
552.838153
 31
0.0
 11
134.729236
 21
550.516370
 31
0.0
 11
133.286180
 21
547.914805
 31
0.0
 11
131.749603
 21
545.452527
 31
0.0
 11
130.317270
 21
543.565501
 31
0.0
 11
127.177001
 21
540.138170
 31
0.0
 11
123.971537
 21
536.726727
 31
0.0
 11
120.711287
 21
533.333889
 31
0.0
 11
117.406086
 21
529.966166
 31
0.0
 11
114.058750
 21
526.631376
 31
0.0
 11
110.671837
 21
523.336497
 31
0.0
 11
108.777108
 21
521.795318
 31
0.0
 11
106.294983
 21
520.114377
 31
0.0
 11
103.666377
 21
518.516128
 31
0.0
 11
101.315953
 21
517.192749
 31
0.0
 11
99.627325
 21
516.288443
 31
0.0
 11
98.980094
 21
515.953590
 31
0.0
 11
98.471282
 21
515.586008
 31
0.0
 11
98.125876
 21
515.072940
 31
0.0
 11
97.976747
 21
514.463214
 31
0.0
 11
98.048946
 21
513.839681
 31
0.0
 11
98.327913
 21
513.287665
 31
0.0
 11
98.787098
 21
512.859699
 31
0.0
 11
99.366445
 21
512.618115
 31
0.0
 11
99.984390
 21
512.591886
 31
0.0
 11
100.582125
 21
512.783506
 31
0.0
 11
101.255046
 21
513.131089
 31
0.0
 11
103.009639
 21
514.069622
 31
0.0
 11
105.449648
 21
515.442788
 31
0.0
 11
108.182321
 21
517.088569
 31
0.0
 11
110.855265
 21
518.893579
 31
0.0
 11
113.132771
 21
520.774414
 31
0.0
 11
116.551231
 21
524.099818
 31
0.0
 11
119.928355
 21
527.463995
 31
0.0
 11
123.261151
 21
530.859636
 31
0.0
 11
126.546976
 21
534.279808
 31
0.0
 11
129.780356
 21
537.722260
 31
0.0
 11
132.951809
 21
541.184346
 31
0.0
 11
134.722522
 21
543.478553
 31
0.0
 11
136.382284
 21
546.146282
 31
0.0
 11
137.871963
 21
548.861055
 31
0.0
 11
139.102793
 21
551.279272
 31
0.0
 11
139.937752
 21
553.015563
 31
0.0
 11
140.245303
 21
553.680799
 31
0.0
 11
140.392274
 21
554.162555
 31
0.0
 11
140.398739
 21
554.661327
 31
0.0
 11
140.264304
 21
555.146731
 31
0.0
 11
139.999039
 21
555.574893
 31
0.0
 11
139.628330
 21
555.908646
 31
0.0
 11
139.174763
 21
556.127657
 31
0.0
  0
LINE
  5
1c0
100
AcDbEntity
  8
0
 62
7
100
AcDbLine
 10
293.892127
 20
688.184632
 30
0.0
 11
293.892127
 21
688.184632
 31
0.0
  0
LINE
  5
1c1
100
AcDbEntity
  8
0
 62
5
100
AcDbLine
 10
406.511429
 20
78.012272
 30
0.0
 11
406.511429
 21
84.082318
 31
0.0
  0
LINE
  5
1c2
100
AcDbEntity
  8
0
 62
5
100
AcDbLine
 10
406.511429
 20
84.082318
 30
0.0
 11
432.984730
 21
84.082318
 31
0.0
  0
LINE
  5
1c3
100
AcDbEntity
  8
0
 62
5
100
AcDbLine
 10
432.984730
 20
84.082318
 30
0.0
 11
432.984730
 21
78.012272
 31
0.0
  0
LINE
  5
1c4
100
AcDbEntity
  8
0
 62
5
100
AcDbLine
 10
432.984730
 20
78.012272
 30
0.0
 11
406.511429
 21
78.012272
 31
0.0
  0
LINE
  5
1c5
100
AcDbEntity
  8
0
 62
5
100
AcDbLine
 10
312.582142
 20
97.082164
 30
0.0
 11
314.457889
 21
102.855121
 31
0.0
  0
LINE
  5
1c6
100
AcDbEntity
  8
0
 62
5
100
AcDbLine
 10
314.457889
 20
102.855121
 30
0.0
 11
339.635496
 21
94.674420
 31
0.0
  0
LINE
  5
1c7
100
AcDbEntity
  8
0
 62
5
100
AcDbLine
 10
339.635496
 20
94.674420
 30
0.0
 11
337.759748
 21
88.901464
 31
0.0
  0
LINE
  5
1c8
100
AcDbEntity
  8
0
 62
5
100
AcDbLine
 10
337.759748
 20
88.901464
 30
0.0
 11
312.582142
 21
97.082164
 31
0.0
  0
LINE
  5
1c9
100
AcDbEntity
  8
0
 62
5
100
AcDbLine
 10
229.143036
 20
144.244454
 30
0.0
 11
232.710919
 21
149.155225
 31
0.0
  0
LINE
  5
1ca
100
AcDbEntity
  8
0
 62
5
100
AcDbLine
 10
232.710919
 20
149.155225
 30
0.0
 11
254.128270
 21
133.594608
 31
0.0
  0
LINE
  5
1cb
100
AcDbEntity
  8
0
 62
5
100
AcDbLine
 10
254.128270
 20
133.594608
 30
0.0
 11
250.560387
 21
128.683838
 31
0.0
  0
LINE
  5
1cc
100
AcDbEntity
  8
0
 62
5
100
AcDbLine
 10
250.560387
 20
128.683838
 30
0.0
 11
229.143036
 21
144.244454
 31
0.0
  0
LINE
  5
1cd
100
AcDbEntity
  8
0
 62
5
100
AcDbLine
 10
164.361615
 20
214.882616
 30
0.0
 11
169.272386
 21
218.450500
 31
0.0
  0
LINE
  5
1ce
100
AcDbEntity
  8
0
 62
5
100
AcDbLine
 10
169.272386
 20
218.450500
 30
0.0
 11
184.833002
 21
197.033149
 31
0.0
  0
LINE
  5
1cf
100
AcDbEntity
  8
0
 62
5
100
AcDbLine
 10
184.833002
 20
197.033149
 30
0.0
 11
179.922232
 21
193.465265
 31
0.0
  0
LINE
  5
1d0
100
AcDbEntity
  8
0
 62
5
100
AcDbLine
 10
179.922232
 20
193.465265
 30
0.0
 11
164.361615
 21
214.882616
 31
0.0
  0
LINE
  5
1d1
100
AcDbEntity
  8
0
 62
5
100
AcDbLine
 10
124.579232
 20
302.082005
 30
0.0
 11
130.352189
 21
303.957752
 31
0.0
  0
LINE
  5
1d2
100
AcDbEntity
  8
0
 62
5
100
AcDbLine
 10
130.352189
 20
303.957752
 30
0.0
 11
138.532889
 21
278.780146
 31
0.0
  0
LINE
  5
1d3
100
AcDbEntity
  8
0
 62
5
100
AcDbLine
 10
138.532889
 20
278.780146
 30
0.0
 11
132.759933
 21
276.904399
 31
0.0
  0
LINE
  5
1d4
100
AcDbEntity
  8
0
 62
5
100
AcDbLine
 10
132.759933
 20
276.904399
 30
0.0
 11
124.579232
 21
302.082005
 31
0.0
  0
LINE
  5
1d5
100
AcDbEntity
  8
0
 62
5
100
AcDbLine
 10
113.690037
 20
397.306974
 30
0.0
 11
119.760083
 21
397.306974
 31
0.0
  0
LINE
  5
1d6
100
AcDbEntity
  8
0
 62
5
100
AcDbLine
 10
119.760083
 20
397.306974
 30
0.0
 11
119.760083
 21
370.833672
 31
0.0
  0
LINE
  5
1d7
100
AcDbEntity
  8
0
 62
5
100
AcDbLine
 10
119.760083
 20
370.833672
 30
0.0
 11
113.690037
 21
370.833672
 31
0.0
  0
LINE
  5
1d8
100
AcDbEntity
  8
0
 62
5
100
AcDbLine
 10
113.690037
 20
370.833672
 30
0.0
 11
113.690037
 21
397.306974
 31
0.0
  0
LINE
  5
1d9
100
AcDbEntity
  8
0
 62
5
100
AcDbLine
 10
132.759915
 20
491.236277
 30
0.0
 11
138.532872
 21
489.360530
 31
0.0
  0
LINE
  5
1da
100
AcDbEntity
  8
0
 62
5
100
AcDbLine
 10
138.532872
 20
489.360530
 30
0.0
 11
130.352172
 21
464.182923
 31
0.0
  0
LINE
  5
1db
100
AcDbEntity
  8
0
 62
5
100
AcDbLine
 10
130.352172
 20
464.182923
 30
0.0
 11
124.579215
 21
466.058671
 31
0.0
  0
LINE
  5
1dc
100
AcDbEntity
  8
0
 62
5
100
AcDbLine
 10
124.579215
 20
466.058671
 30
0.0
 11
132.759915
 21
491.236277
 31
0.0
  0
LINE
  5
1dd
100
AcDbEntity
  8
0
 62
5
100
AcDbLine
 10
179.922222
 20
574.675436
 30
0.0
 11
184.832992
 21
571.107553
 31
0.0
  0
LINE
  5
1de
100
AcDbEntity
  8
0
 62
5
100
AcDbLine
 10
184.832992
 20
571.107553
 30
0.0
 11
169.272376
 21
549.690202
 31
0.0
  0
LINE
  5
1df
100
AcDbEntity
  8
0
 62
5
100
AcDbLine
 10
169.272376
 20
549.690202
 30
0.0
 11
164.361606
 21
553.258085
 31
0.0
  0
LINE
  5
1e0
100
AcDbEntity
  8
0
 62
5
100
AcDbLine
 10
164.361606
 20
553.258085
 30
0.0
 11
179.922222
 21
574.675436
 31
0.0
  0
LINE
  5
1e1
100
AcDbEntity
  8
0
 62
5
100
AcDbLine
 10
250.560349
 20
639.456843
 30
0.0
 11
254.128232
 21
634.546072
 31
0.0
  0
LINE
  5
1e2
100
AcDbEntity
  8
0
 62
5
100
AcDbLine
 10
254.128232
 20
634.546072
 30
0.0
 11
232.710881
 21
618.985456
 31
0.0
  0
LINE
  5
1e3
100
AcDbEntity
  8
0
 62
5
100
AcDbLine
 10
232.710881
 20
618.985456
 30
0.0
 11
229.142998
 21
623.896226
 31
0.0
  0
LINE
  5
1e4
100
AcDbEntity
  8
0
 62
5
100
AcDbLine
 10
229.142998
 20
623.896226
 30
0.0
 11
250.560349
 21
639.456843
 31
0.0
  0
LINE
  5
1e5
100
AcDbEntity
  8
0
 62
5
100
AcDbLine
 10
337.759731
 20
679.239220
 30
0.0
 11
339.635479
 21
673.466263
 31
0.0
  0
LINE
  5
1e6
100
AcDbEntity
  8
0
 62
5
100
AcDbLine
 10
339.635479
 20
673.466263
 30
0.0
 11
314.457873
 21
665.285563
 31
0.0
  0
LINE
  5
1e7
100
AcDbEntity
  8
0
 62
5
100
AcDbLine
 10
314.457873
 20
665.285563
 30
0.0
 11
312.582125
 21
671.058520
 31
0.0
  0
LINE
  5
1e8
100
AcDbEntity
  8
0
 62
5
100
AcDbLine
 10
312.582125
 20
671.058520
 30
0.0
 11
337.759731
 21
679.239220
 31
0.0
  0
SPLINE
  5
1e9
100
AcDbEntity
  8
0
 62
7
100
AcDbSpline
 70
0
 71
3
 72
61
 73
57
 74
55
 40
0.000000
 40
0.000000
 40
0.000000
 40
0.000000
 40
0.869304
 40
1.715604
 40
2.584908
 40
3.287566
 40
5.135757
 40
7.740927
 40
10.715915
 40
13.618307
 40
15.987364
 40
20.635796
 40
25.316921
 40
30.022297
 40
34.740977
 40
39.465962
 40
44.191148
 40
46.633533
 40
49.631280
 40
52.707635
 40
55.405010
 40
57.320534
 40
58.049256
 40
58.676928
 40
59.295405
 40
59.923077
 40
60.550750
 40
61.169226
 40
61.796898
 40
62.424571
 40
63.043047
 40
63.670720
 40
64.428107
 40
66.417943
 40
69.217814
 40
72.407811
 40
75.633128
 40
78.586870
 40
83.355954
 40
88.122778
 40
92.880707
 40
97.623512
 40
102.346355
 40
107.041479
 40
109.939544
 40
113.081450
 40
116.178086
 40
118.891519
 40
120.818140
 40
121.551030
 40
122.054704
 40
122.553518
 40
123.057192
 40
123.560867
 40
124.059680
 40
124.563355
 40
124.563355
 40
124.563355
 40
124.563355
 10
293.892127
 20
688.184632
 30
0.0
 10
293.684814
 20
688.394370
 30
0.0
 10
293.275674
 20
688.808295
 30
0.0
 10
292.372917
 20
688.984742
 30
0.0
 10
291.593736
 20
688.709066
 30
0.0
 10
290.621822
 20
688.116368
 30
0.0
 10
289.093001
 20
687.326078
 30
0.0
 10
286.896267
 20
686.184891
 30
0.0
 10
284.330332
 20
684.995538
 30
0.0
 10
281.794215
 20
683.927772
 30
0.0
 10
278.620379
 20
682.978254
 30
0.0
 10
274.771608
 20
682.319290
 30
0.0
 10
270.184438
 20
681.406557
 30
0.0
 10
265.553279
 20
680.592258
 30
0.0
 10
260.903993
 20
679.797201
 30
0.0
 10
256.233165
 20
679.104948
 30
0.0
 10
252.323499
 20
678.420731
 30
0.0
 10
248.934641
 20
678.228242
 30
0.0
 10
246.096115
 20
678.359939
 30
0.0
 10
243.181158
 20
678.595183
 30
0.0
 10
240.637722
 20
678.905632
 30
0.0
 10
238.868278
 20
679.125620
 30
0.0
 10
237.797499
 20
679.319158
 30
0.0
 10
237.130065
 20
679.354391
 30
0.0
 10
236.530047
 20
679.127397
 30
0.0
 10
236.043559
 20
678.717460
 30
0.0
 10
235.730378
 20
678.161019
 30
0.0
 10
235.628625
 20
677.532072
 30
0.0
 10
235.750386
 20
676.905314
 30
0.0
 10
236.082766
 20
676.362703
 30
0.0
 10
236.580724
 20
675.958799
 30
0.0
 10
237.234082
 20
675.776379
 30
0.0
 10
238.348870
 20
675.640733
 30
0.0
 10
240.179006
 20
675.366095
 30
0.0
 10
242.822233
 20
675.068419
 30
0.0
 10
245.881609
 20
674.795283
 30
0.0
 10
249.005333
 20
674.647023
 30
0.0
 10
252.653342
 20
674.894424
 30
0.0
 10
256.761441
 20
675.585190
 30
0.0
 10
261.472806
 20
676.292009
 30
0.0
 10
266.161438
 20
677.090521
 30
0.0
 10
270.830668
 20
677.915195
 30
0.0
 10
275.461233
 20
678.828139
 30
0.0
 10
279.505105
 20
679.551004
 30
0.0
 10
282.952413
 20
680.537980
 30
0.0
 10
285.762398
 20
681.724183
 30
0.0
 10
288.457558
 20
683.004333
 30
0.0
 10
290.758775
 20
684.169103
 30
0.0
 10
292.327428
 20
685.035396
 30
0.0
 10
293.260492
 20
685.524004
 30
0.0
 10
293.739965
 20
685.857691
 30
0.0
 10
294.041538
 20
686.269753
 30
0.0
 10
294.221100
 20
686.745482
 30
0.0
 10
294.256591
 20
687.252012
 30
0.0
 10
294.157381
 20
687.754341
 30
0.0
 10
293.980831
 20
688.040739
 30
0.0
 10
293.892127
 20
688.184632
 30
0.0
 11
293.892127
 21
688.184632
 31
0.0
 11
293.221400
 21
688.737638
 31
0.0
 11
292.392237
 21
688.907083
 31
0.0
 11
291.558325
 21
688.661562
 31
0.0
 11
290.944963
 21
688.318759
 31
0.0
 11
289.318060
 21
687.441835
 31
0.0
 11
286.997393
 21
686.258020
 31
0.0
 11
284.300774
 21
685.001516
 31
0.0
 11
281.610367
 21
683.912669
 31
0.0
 11
279.342423
 21
683.227936
 31
0.0
 11
274.787353
 21
682.300971
 31
0.0
 11
270.188883
 21
681.425182
 31
0.0
 11
265.557028
 21
680.596642
 31
0.0
 11
260.903563
 21
679.814848
 31
0.0
 11
256.235371
 21
679.084462
 31
0.0
 11
251.558622
 21
678.409627
 31
0.0
 11
249.119869
 21
678.276478
 31
0.0
 11
246.123758
 21
678.375524
 31
0.0
 11
243.057746
 21
678.627566
 31
0.0
 11
240.378349
 21
678.938475
 31
0.0
 11
238.480683
 21
679.199429
 31
0.0
 11
237.760240
 21
679.308962
 31
0.0
 11
237.132570
 21
679.310616
 31
0.0
 11
236.551590
 21
679.098543
 31
0.0
 11
236.072585
 21
678.692923
 31
0.0
 11
235.764513
 21
678.146055
 31
0.0
 11
235.665739
 21
677.535517
 31
0.0
 11
235.785661
 21
676.919407
 31
0.0
 11
236.112334
 21
676.383443
 31
0.0
 11
236.596808
 21
675.998998
 31
0.0
 11
237.192981
 21
675.802655
 31
0.0
 11
237.941689
 21
675.688323
 31
0.0
 11
239.912843
 21
675.416290
 31
0.0
 11
242.693987
 21
675.093003
 31
0.0
 11
245.872129
 21
674.818244
 31
0.0
 11
249.095541
 21
674.707410
 31
0.0
 11
252.043611
 21
674.890354
 31
0.0
 11
256.763825
 21
675.571344
 31
0.0
 11
261.473385
 21
676.307998
 31
0.0
 11
266.165579
 21
677.096163
 31
0.0
 11
270.834192
 21
677.931777
 31
0.0
 11
275.473477
 21
678.816244
 31
0.0
 11
280.074203
 21
679.752997
 31
0.0
 11
282.855236
 21
680.568249
 31
0.0
 11
285.766061
 21
681.750903
 31
0.0
 11
288.566943
 21
683.071592
 31
0.0
 11
290.984098
 21
684.304507
 31
0.0
 11
292.680160
 21
685.218422
 31
0.0
 11
293.319989
 21
685.575837
 31
0.0
 11
293.722059
 21
685.879199
 31
0.0
 11
294.020459
 21
686.278915
 31
0.0
 11
294.197011
 21
686.750632
 31
0.0
 11
294.234074
 21
687.252941
 31
0.0
 11
294.130339
 21
687.740849
 31
0.0
 11
293.892127
 21
688.184632
 31
0.0
  0
SPLINE
  5
1ea
100
AcDbEntity
  8
0
 62
1
100
AcDbSpline
 70
0
 71
3
 72
16
 73
12
 74
10
 40
0.000000
 40
0.000000
 40
0.000000
 40
0.000000
 40
89.771109
 40
178.089941
 40
267.861049
 40
357.632154
 40
445.950982
 40
535.722086
 40
625.493193
 40
713.812022
 40
803.583129
 40
803.583129
 40
803.583129
 40
803.583129
 10
436.636345
 20
143.767070
 30
0.0
 10
406.381841
 20
144.940199
 30
0.0
 10
346.362278
 20
147.267478
 30
0.0
 10
265.608091
 20
192.072655
 30
0.0
 10
206.064695
 20
260.876477
 30
0.0
 10
175.988744
 20
347.344462
 30
0.0
 10
179.329714
 20
438.535142
 30
0.0
 10
215.652429
 20
522.570465
 30
0.0
 10
280.070984
 20
586.832672
 30
0.0
 10
363.887339
 20
625.608450
 30
0.0
 10
423.916291
 20
623.537493
 30
0.0
 10
454.175527
 20
622.493571
 30
0.0
 11
436.636345
 21
143.767070
 31
0.0
 11
347.481092
 21
154.264351
 31
0.0
 11
269.514203
 21
195.753872
 31
0.0
 11
211.002562
 21
263.836467
 31
0.0
 11
181.471026
 21
348.611107
 31
0.0
 11
184.704611
 21
436.870720
 31
0.0
 11
220.360456
 21
519.257078
 31
0.0
 11
283.697247
 21
582.875491
 31
0.0
 11
364.491149
 21
618.548465
 31
0.0
 11
454.175527
 21
622.493571
 31
0.0
  0
ENDSEC
  0
SECTION
  2
OBJECTS
  0
DICTIONARY
  5
C
330
0
100
AcDbDictionary
  3
ACAD_GROUP
350
D
  3
ACAD_MLINESTYLE
350
17
  0
DICTIONARY
  5
D
330
C
100
AcDbDictionary
  0
DICTIONARY
  5
1A
330
C
100
AcDbDictionary
  0
DICTIONARY
  5
17
330
C
100
AcDbDictionary
  3
STANDARD
350
18
  0
DICTIONARY
  5
19
330
C
100
AcDbDictionary
  0
ENDSEC
  0
EOF
