<?xml version="1.0" encoding="UTF-8" standalone="no"?>
<!-- Created with matplotlib (http://matplotlib.org/) -->

<svg
   xmlns:dc="http://purl.org/dc/elements/1.1/"
   xmlns:cc="http://creativecommons.org/ns#"
   xmlns:rdf="http://www.w3.org/1999/02/22-rdf-syntax-ns#"
   xmlns:svg="http://www.w3.org/2000/svg"
   xmlns="http://www.w3.org/2000/svg"
   xmlns:sodipodi="http://sodipodi.sourceforge.net/DTD/sodipodi-0.dtd"
   xmlns:inkscape="http://www.inkscape.org/namespaces/inkscape"
   height="11in"
   version="1.1"
   viewBox="0 0 864 792"
   width="12in"
   id="svg448"
   sodipodi:docname="cone4.svg"
   inkscape:version="0.92.3 (2405546, 2018-03-11)">
  <metadata
     id="metadata452">
    <rdf:RDF>
      <cc:Work
         rdf:about="">
        <dc:format>image/svg+xml</dc:format>
        <dc:type
           rdf:resource="http://purl.org/dc/dcmitype/StillImage" />
        <dc:title />
      </cc:Work>
    </rdf:RDF>
  </metadata>
  <sodipodi:namedview
     pagecolor="#ffffff"
     bordercolor="#666666"
     borderopacity="1"
     objecttolerance="10"
     gridtolerance="10"
     guidetolerance="10"
     inkscape:pageopacity="0"
     inkscape:pageshadow="2"
     inkscape:window-width="1920"
     inkscape:window-height="1029"
     id="namedview450"
     showgrid="false"
     inkscape:snap-intersection-paths="true"
     inkscape:zoom="0.7071068"
     inkscape:cx="494.91722"
     inkscape:cy="659.05626"
     inkscape:window-x="0"
     inkscape:window-y="25"
     inkscape:window-maximized="1"
     inkscape:current-layer="svg448"
     units="in"
     inkscape:object-paths="true"
     inkscape:snap-page="true"
     inkscape:snap-nodes="true"
     inkscape:object-nodes="true"
     inkscape:snap-smooth-nodes="true"
     inkscape:snap-center="true"
     inkscape:snap-global="true"
     inkscape:snap-bbox="false"
     showguides="false"
     inkscape:snap-midpoints="true" />
  <defs
     id="defs4"
     style="stroke-linecap:butt;stroke-linejoin:round">
    <style
       type="text/css"
       id="style2">
*{stroke-linecap:butt;stroke-linejoin:round;}
  </style>
    <clipPath
       id="pbf9476fbec"
       style="stroke-linecap:butt;stroke-linejoin:round">
      <rect
         height="406.07999"
         width="310.26892"
         x="24.744226"
         y="7.1999998"
         id="rect1798"
         style="stroke-linecap:butt;stroke-linejoin:round" />
    </clipPath>
    <clipPath
       id="clipPath3268"
       style="stroke-linecap:butt;stroke-linejoin:round">
      <rect
         height="406.07999"
         width="310.26892"
         x="24.744226"
         y="7.1999998"
         id="rect3266"
         style="stroke-linecap:butt;stroke-linejoin:round" />
    </clipPath>
    <clipPath
       id="pbf9476fbec-7"
       style="stroke-linecap:butt;stroke-linejoin:round">
      <rect
         height="406.07999"
         width="310.26892"
         x="24.744226"
         y="7.1999998"
         id="rect1798-5"
         style="stroke-linecap:butt;stroke-linejoin:round" />
    </clipPath>
    <clipPath
       id="pbf9476fbec-6"
       style="stroke-linecap:butt;stroke-linejoin:round">
      <rect
         height="406.07999"
         width="310.26892"
         x="24.744226"
         y="7.1999998"
         id="rect1798-2"
         style="stroke-linecap:butt;stroke-linejoin:round" />
    </clipPath>
    <clipPath
       id="paf85c306f7"
       style="stroke-linecap:butt;stroke-linejoin:round">
      <rect
         height="406.07999"
         width="312.42859"
         x="24.702696"
         y="7.1999998"
         id="rect1307"
         style="stroke-linecap:butt;stroke-linejoin:round" />
    </clipPath>
    <clipPath
       id="clipPath2800"
       style="stroke-linecap:butt;stroke-linejoin:round">
      <rect
         height="406.07999"
         width="312.42859"
         x="24.702696"
         y="7.1999998"
         id="rect2798"
         style="stroke-linecap:butt;stroke-linejoin:round" />
    </clipPath>
  </defs>
  <g
     id="line2d_1"
     style="stroke-linecap:butt;stroke-linejoin:round"
     transform="translate(0,371.99999)" />
  <defs
     id="defs446">
    <clipPath
       id="p9b010a994c"
       style="stroke-linecap:butt;stroke-linejoin:round">
      <rect
         height="399.72617"
         width="243.70816"
         x="10.407009"
         y="7.1999998"
         id="rect443"
         style="stroke-linecap:butt;stroke-linejoin:round" />
    </clipPath>
  </defs>
  <path
     style="fill:none;fill-opacity:1;stroke:#000000;stroke-width:0.80550581;stroke-linecap:round;stroke-linejoin:round;stroke-miterlimit:4;stroke-dasharray:none;stroke-opacity:1"
     d="m 444.51097,310.6779 a 27.528903,27.528903 0 0 0 27.52985,27.52847 27.528903,27.528903 0 0 0 12.47308,-2.98889 90.950869,90.950869 0 0 0 46.84931,34.1348 27.528899,27.528899 0 0 0 -0.35245,4.1711 27.528899,27.528899 0 0 0 27.52985,27.52846 27.528899,27.528899 0 0 0 27.52846,-27.52846 27.528899,27.528899 0 0 0 -0.35106,-4.26129 90.950869,90.950869 0 0 0 46.90758,-34.04599 27.5289,27.5289 0 0 0 12.41341,2.99027 27.5289,27.5289 0 0 0 27.52985,-27.52847 27.5289,27.5289 0 0 0 -23.12702,-27.14133 90.950869,90.950869 0 0 0 0.0486,-0.96437 90.950869,90.950869 0 0 0 -18.0068,-54.15915 27.528903,27.528903 0 0 0 8.04527,-19.42076 27.528903,27.528903 0 0 0 -27.52985,-27.52985 27.528903,27.528903 0 0 0 -24.47576,14.99018 90.950869,90.950869 0 0 0 -28.98266,-4.83161 90.950869,90.950869 0 0 0 -28.94657,4.84826 27.528903,27.528903 0 0 0 -24.51323,-15.00683 27.528903,27.528903 0 0 0 -27.52985,27.52985 27.528903,27.528903 0 0 0 8.04943,19.42908 90.950869,90.950869 0 0 0 -18.01096,54.15083 90.950869,90.950869 0 0 0 0.0333,0.94495 27.528903,27.528903 0 0 0 -23.11182,27.16075 z"
     id="path1059"
     inkscape:connector-curvature="0" />
  <g
     transform="translate(-479.37862,719.05136)"
     id="line2d_1-3-3"
     style="stroke-linecap:butt;stroke-linejoin:round" />
  <path
     style="fill:none;stroke:#000000;stroke-width:1.01668501;stroke-linecap:square;stroke-linejoin:round;stroke-miterlimit:4;stroke-dasharray:none;stroke-opacity:1"
     d="m 443.79693,413.659 c -0.51196,5.4e-4 -1.01778,0.0359 -1.51954,0.0926 -0.24214,0.0274 -0.48259,0.0615 -0.72167,0.10159 -0.0393,0.007 -0.0788,0.0126 -0.11804,0.0194 -0.21055,0.0372 -0.41976,0.0786 -0.62754,0.12551 -0.0843,0.0188 -0.16848,0.0393 -0.25251,0.0598 -0.16797,0.0413 -0.33465,0.0854 -0.50054,0.13298 -0.1288,0.0365 -0.2561,0.0777 -0.38399,0.11804 -0.12889,0.0411 -0.25807,0.0807 -0.38549,0.12551 -0.20144,0.0703 -0.40053,0.14714 -0.59915,0.2271 -0.0489,0.0199 -0.0992,0.0364 -0.14792,0.0568 -0.53352,0.22205 -1.05672,0.47733 -1.56437,0.76949 -0.9688,0.56265 -1.85685,1.24303 -2.65359,2.01709 -0.0505,0.0489 -0.10266,0.0952 -0.1524,0.14493 -0.0976,0.0977 -0.18935,0.20116 -0.28389,0.30181 -0.10957,0.11633 -0.22303,0.2292 -0.32871,0.34964 -0.0428,0.0489 -0.0819,0.10133 -0.12401,0.1509 -0.5344,0.62691 -1.01883,1.30368 -1.43886,2.03203 l -0.012,-0.007 -21.54103,37.31167 -0.001,0.003 0.0119,0.006 c -1.19907,2.07027 -1.83349,4.41931 -1.83779,6.81178 0,0.15023 0.0176,0.29621 0.0224,0.44526 0.007,0.20994 0.0151,0.4195 0.0314,0.62903 0.0154,0.19642 0.0332,0.39171 0.0568,0.5857 0.0368,0.30424 0.0816,0.60666 0.13896,0.90844 0.004,0.0234 0.007,0.0469 0.012,0.0702 0.029,0.14773 0.0664,0.29179 0.10011,0.43778 0.0536,0.23322 0.11321,0.46548 0.17929,0.69627 0.0457,0.15875 0.0907,0.31732 0.14195,0.47364 0.10752,0.32982 0.22524,0.65739 0.35859,0.98016 0.0425,0.10223 0.0911,0.20085 0.13597,0.30181 0.11924,0.26987 0.2479,0.53583 0.38549,0.79937 0.0515,0.098 0.10163,0.19625 0.15539,0.29285 0.037,0.0668 0.0694,0.13537 0.10758,0.20171 0.0813,0.14093 0.1774,0.26802 0.26297,0.40491 0.11639,0.18564 0.23066,0.37187 0.3556,0.55134 0.14806,0.21362 0.30492,0.4173 0.46318,0.62007 0.10987,0.1402 0.21803,0.28116 0.3332,0.41687 0.1815,0.21461 0.37061,0.4189 0.56329,0.62006 0.10836,0.11294 0.21656,0.22553 0.32871,0.33469 0.21231,0.20681 0.43069,0.40359 0.65443,0.59467 0.10517,0.0899 0.21035,0.17921 0.31826,0.26595 0.23524,0.18876 0.47576,0.36765 0.72167,0.53939 0.11721,0.0822 0.23422,0.16353 0.35411,0.24205 0.23387,0.15259 0.47226,0.29586 0.71419,0.4333 0.15591,0.089 0.31247,0.17557 0.47215,0.25848 0.21222,0.10974 0.42673,0.21251 0.64398,0.31079 0.0162,0.007 0.033,0.0136 0.0493,0.0209 6.1589,2.88892 13.59734,0.79587 17.29916,-5.04721 0.5387,0.37202 1.07196,0.75196 1.6077,1.12807 0.60149,0.42227 1.20727,0.83889 1.80343,1.26854 0.63213,0.45555 1.25507,0.92429 1.88112,1.38805 0.59819,0.4431 1.1989,0.88228 1.79148,1.33277 0.61009,0.46382 1.2113,0.93891 1.81538,1.41047 0.57622,0.44982 1.15355,0.89841 1.72423,1.35519 0.62532,0.50052 1.24462,1.00777 1.8632,1.51655 0.54113,0.44505 1.08075,0.89194 1.61666,1.34323 0.61499,0.51793 1.22527,1.04131 1.83331,1.56735 0.5299,0.45841 1.05772,0.91908 1.58229,1.38358 0.60738,0.53787 1.21225,1.07819 1.81239,1.62413 0.51633,0.46963 1.02806,0.94391 1.53897,1.41943 0.58537,0.54489 1.16996,1.09103 1.74815,1.64356 0.50165,0.47933 0.99795,0.96431 1.49413,1.44932 0.59453,0.58118 1.18995,1.1619 1.77654,1.75113 0.41989,0.42173 0.83182,0.85169 1.24761,1.27749 0.64621,0.66184 1.29423,1.32165 1.93043,1.99318 0.22958,0.2423 0.45306,0.49007 0.68132,0.73363 1.7482,1.86547 3.46438,3.76049 5.13387,5.69715 0.68008,0.78892 1.3459,1.5903 2.01261,2.39063 0.28312,0.33981 0.57097,0.67567 0.85166,1.01751 0.63929,0.77868 1.26653,1.56721 1.89308,2.35626 0.30114,0.37921 0.60429,0.75697 0.90246,1.13853 0.59799,0.76533 1.18613,1.53825 1.77205,2.31293 0.32205,0.42577 0.64534,0.85045 0.96372,1.27899 0.55518,0.74737 1.10266,1.50046 1.64654,2.25615 0.33781,0.46931 0.67364,0.9395 1.00705,1.41196 0.52233,0.74024 1.03949,1.48437 1.55092,2.23225 0.14634,0.21397 0.29085,0.42938 0.43629,0.64397 -14.7006,11.91209 -11.21493,18.40691 6.81627,11.78877 -14.50687,12.44839 -10.04751,18.90719 6.45319,11.94416 l 3.34688,6.35757 c 0.17515,0.39973 0.3581,0.79586 0.53042,1.19681 0.0459,0.10682 0.0903,0.21433 0.13596,0.32124 0.51008,1.193 1.00776,2.39154 1.49265,3.5949 0.0495,0.12294 0.0986,0.246 0.14792,0.36905 0.46308,1.15637 0.91405,2.31746 1.35369,3.48284 0.0712,0.18878 0.14308,0.37728 0.21366,0.56629 0.43198,1.1565 0.85232,2.318 1.26106,3.48283 0.0533,0.15186 0.107,0.30372 0.15987,0.45571 0.44416,1.27643 0.8749,2.55718 1.29094,3.84294 0.007,0.0216 0.0154,0.0427 0.0224,0.0642 0.002,0.006 0.004,0.013 0.006,0.0194 1.3174,4.07803 2.49221,8.20172 3.52169,12.36102 0.32292,1.30467 0.62929,2.61368 0.92338,3.92511 0.0635,0.28359 0.12307,0.56777 0.18527,0.85166 0.2318,1.05726 0.45646,2.11533 0.66938,3.17654 0.0709,0.35366 0.13738,0.70827 0.20619,1.06234 0.19358,0.99553 0.38044,1.9926 0.55731,2.99127 0.0664,0.37524 0.13169,0.75092 0.19573,1.12658 0.17095,1.00198 0.33308,2.00592 0.48709,3.0107 0.0575,0.3755 0.11519,0.75071 0.17034,1.12657 0.15166,1.03303 0.29217,2.06774 0.42583,3.10333 0.0419,0.32472 0.0869,0.64924 0.12699,0.97419 0.13187,1.06775 0.2505,2.13633 0.36308,3.20642 0.034,0.32337 0.0723,0.64613 0.10459,0.9697 0.13604,1.36482 0.25866,2.73199 0.36308,4.09992 -0.0534,0.002 -0.10508,0.0107 -0.15838,0.0135 -0.31621,0.0153 -0.63097,0.0436 -0.9443,0.0807 -0.10289,0.0124 -0.20559,0.0242 -0.30779,0.0389 -0.76243,0.10792 -1.51245,0.28134 -2.2442,0.51548 -0.0228,0.007 -0.046,0.0134 -0.0687,0.0209 -0.8937,0.29115 -1.75984,0.66929 -2.58038,1.14152 -2.01176,1.16526 -3.65654,2.80995 -4.82757,4.74539 -0.40794,0.67424 -0.75768,1.38358 -1.0444,2.12168 -0.0163,0.0418 -0.0319,0.0835 -0.0478,0.12551 -0.13837,0.36687 -0.26383,0.73812 -0.37055,1.11761 -5.5e-4,0.002 -9.4e-4,0.004 -0.001,0.006 -0.10618,0.37818 -0.1939,0.76312 -0.26746,1.15198 -0.007,0.035 -0.0145,0.0695 -0.0209,0.10459 -0.0593,0.32757 -0.111,0.65832 -0.14642,0.99211 h 0.0105 c -0.008,0.0774 -0.0244,0.15234 -0.0314,0.2301 l 35.10035,-0.23308 c 0.92673,-0.0178 1.41378,0.6353 1.46725,1.3253 -0.0554,0.71648 -0.63874,1.34862 -1.44782,1.34323 l -35.09886,0.23309 c 0.008,0.0774 0.0265,0.15287 0.0359,0.23009 h -0.012 c 0.0383,0.30807 0.0973,0.60761 0.15538,0.90844 0.0193,0.1013 0.0307,0.20403 0.0523,0.30481 0.0918,0.42418 0.20201,0.84152 0.3317,1.2491 10e-4,0.003 0.002,0.007 0.003,0.0105 0.0802,0.25327 0.18156,0.49882 0.27641,0.74706 0.0598,0.15531 0.11258,0.3138 0.17781,0.46618 0.11712,0.2758 0.25166,0.54329 0.38698,0.81132 0.0563,0.11063 0.10965,0.22289 0.16884,0.3317 0.0552,0.10229 0.099,0.2098 0.15688,0.31078 0.54274,0.93777 1.19325,1.78984 1.92147,2.55647 0.55116,0.58023 1.14686,1.10943 1.7855,1.5808 0.0255,0.0189 0.052,0.0365 0.0777,0.0553 0.27041,0.19668 0.54846,0.38269 0.83224,0.55881 0.0691,0.0431 0.13775,0.0866 0.20768,0.12849 0.31023,0.18493 0.62473,0.36163 0.94878,0.52146 0.002,0.001 0.005,0.002 0.007,0.003 0.0461,0.0228 0.0941,0.0419 0.14045,0.0643 0.008,0.004 0.0161,0.007 0.0239,0.0105 1.88791,0.93235 3.96666,1.42372 6.07965,1.41944 l 10e-4,0.0164 h 43.08205 v -0.0164 c 4.86989,0.003 9.37171,-2.58896 11.81268,-6.80283 3.76725,-6.5244 1.53277,-14.86823 -4.99193,-18.63492 -0.74234,-0.42859 -1.52227,-0.7815 -2.32638,-1.06084 -0.0414,-0.0151 -0.081,-0.0345 -0.12251,-0.0493 -0.11748,-0.0419 -0.23665,-0.0793 -0.35561,-0.11803 -0.27396,-0.0892 -0.55057,-0.17015 -0.83075,-0.24205 -0.094,-0.0241 -0.18607,-0.0525 -0.28089,-0.0747 -0.354,-0.0828 -0.71374,-0.14867 -1.07578,-0.2032 -0.12248,-0.0184 -0.24551,-0.0342 -0.36905,-0.0493 -0.31007,-0.0381 -0.62238,-0.0639 -0.93683,-0.0807 1.74978,-22.80903 7.91031,-45.22969 17.89383,-65.81391 17.67431,6.78076 21.55992,0.51229 6.81029,-11.79624 18.11244,6.36665 21.43105,-0.81134 6.93431,-11.69913 l 1.86469,-2.95839 c 12.50874,-17.73079 28.11766,-33.25694 46.02102,-45.5175 0.17493,0.26654 0.35494,0.52865 0.54536,0.78143 0.0502,0.0665 0.1012,0.13188 0.1524,0.19723 0.23233,0.29695 0.47199,0.58593 0.72616,0.86062 0.27017,0.292 0.55425,0.56796 0.84717,0.83374 0.0296,0.0268 0.0598,0.0526 0.0897,0.0792 0.28767,0.25645 0.58479,0.50175 0.892,0.73213 0.66059,0.49541 1.36807,0.92141 2.10525,1.28945 3.66644,1.89658 8.00651,2.03825 11.79923,0.35411 l -0.0911,-0.15539 c 0.0299,-0.0116 0.0602,-0.0222 0.0896,-0.0359 L 636.68763,446.6891 c -0.0953,-0.15799 -0.152,-0.31276 -0.18826,-0.46467 -0.0145,-0.27554 0.0437,-0.55348 0.18677,-0.80087 0.39421,-0.67988 1.19724,-0.86989 1.8348,-0.59168 0.17474,0.11825 0.33609,0.28101 0.46767,0.50652 l 17.75039,30.28175 c 0.0368,-0.0268 0.0722,-0.0553 0.10758,-0.0837 l 0.1031,0.17631 c 1.53938,-1.11616 2.82871,-2.54137 3.78465,-4.18508 2.43096,-4.22077 2.42693,-9.41855 -0.0105,-13.63553 l 0.0119,-0.006 -21.54102,-37.31019 -0.0119,0.006 c -1.19331,-2.07496 -2.91076,-3.79886 -4.98147,-4.99939 -0.51946,-0.29987 -1.05347,-0.54783 -1.59275,-0.77248 -0.14181,-0.0625 -0.28296,-0.12643 -0.42733,-0.18377 -0.14386,-0.0568 -0.28768,-0.11247 -0.43329,-0.16436 -0.30401,-0.10892 -0.61129,-0.2085 -0.92338,-0.29583 -0.10325,-0.0288 -0.20689,-0.0544 -0.31079,-0.0807 -0.30726,-0.0782 -0.61871,-0.14487 -0.93234,-0.20171 -0.10658,-0.0192 -0.2127,-0.0386 -0.31974,-0.0553 -0.3381,-0.053 -0.67818,-0.0935 -1.022,-0.12103 -0.0515,-0.004 -0.10235,-0.0114 -0.15389,-0.0149 -0.003,-1.7e-4 -0.005,-0.001 -0.007,-0.002 -0.30103,-0.0205 -0.60407,-0.0309 -0.90843,-0.0314 -0.0524,-10e-6 -0.10311,0.007 -0.15539,0.007 -0.27439,0.003 -0.54852,0.0223 -0.82328,0.0418 -0.18561,0.0132 -0.37233,0.0213 -0.55582,0.0418 -0.23366,0.0263 -0.46621,0.0675 -0.69925,0.10609 -0.21709,0.0358 -0.43495,0.0676 -0.64846,0.11355 -0.19234,0.0416 -0.38243,0.0977 -0.57375,0.14792 -0.25336,0.0663 -0.50714,0.13042 -0.75455,0.21068 -0.14346,0.0467 -0.28475,0.10366 -0.42732,0.15538 -0.28648,0.10373 -0.57147,0.20971 -0.84866,0.33171 -0.12265,0.054 -0.24289,0.11686 -0.36458,0.17481 -0.29187,0.13901 -0.58064,0.28208 -0.86063,0.44077 -0.0364,0.0206 -0.0743,0.0358 -0.11056,0.0568 -0.097,0.0562 -0.18427,0.12261 -0.2794,0.18079 -0.24683,0.15104 -0.4915,0.30468 -0.72765,0.47065 -0.14132,0.0991 -0.27583,0.2041 -0.41239,0.3078 -0.21172,0.16102 -0.42128,0.32318 -0.62305,0.49605 -0.14087,0.12058 -0.27436,0.24654 -0.4094,0.37204 -0.18526,0.17217 -0.36841,0.34531 -0.54386,0.52744 -0.12765,0.13268 -0.24894,0.26924 -0.37055,0.4064 -0.17052,0.19182 -0.33792,0.38592 -0.49755,0.5872 -0.0983,0.12438 -0.1903,0.25212 -0.28388,0.37951 -0.17411,0.23584 -0.3431,0.47455 -0.50203,0.72167 -0.0571,0.0893 -0.1109,0.17991 -0.16585,0.27043 -0.17673,0.28937 -0.3453,0.583 -0.50054,0.88604 -0.0268,0.0527 -0.0501,0.10687 -0.0762,0.15986 -0.90468,1.82405 -1.42699,3.87118 -1.4269,6.0453 0.002,1.76436 0.35288,3.50506 1.01601,5.13088 0.17069,0.41846 0.3568,0.83131 0.56928,1.23266 -1.28903,0.6186 -2.5845,1.22224 -3.88776,1.80941 -0.001,6.4e-4 -0.003,8.5e-4 -0.004,0.001 -5.21701,2.35032 -10.54557,4.44913 -15.96041,6.29183 -10e-4,5e-4 -0.003,9.8e-4 -0.004,10e-4 -1.3527,0.46026 -2.71135,0.90446 -4.07452,1.33277 -10e-4,3.3e-4 -0.002,10e-4 -0.003,0.002 -0.54187,0.17027 -1.08817,0.32638 -1.63161,0.49157 -2.74249,0.83371 -5.50473,1.60257 -8.28351,2.30696 -1.70457,0.43205 -3.41451,0.84056 -5.13088,1.2237 -8.89353,1.98546 -17.9341,3.32289 -27.02751,3.97889 -2.96486,-18.69678 -10.33439,-18.92782 -13.61909,0 -3.53298,-18.81828 -11.37633,-18.15426 -13.58174,-0.29733 l -6.00943,-0.23458 c -2.28285,-0.23897 -4.56187,-0.51608 -6.8342,-0.83971 -11.33448,-1.61429 -22.51677,-4.2775 -33.35072,-7.96377 -1.35363,-0.46058 -2.70221,-0.93594 -4.04464,-1.42839 l -10e-4,-10e-4 c -2.64407,-0.96999 -5.26452,-2.00282 -7.86067,-3.09586 -0.0406,-0.0171 -0.082,-0.0322 -0.12252,-0.0493 l -10e-4,-10e-4 c -0.002,-8.7e-4 -0.004,-0.002 -0.006,-0.003 -1.16093,-0.48986 -2.31441,-0.99599 -3.46491,-1.51057 -0.18227,-0.0818 -0.36635,-0.15966 -0.54836,-0.24206 -0.79228,-0.35756 -1.57815,-0.73055 -2.36522,-1.09968 -0.40994,-0.19288 -0.82269,-0.37922 -1.23117,-0.57525 3.19297,-6.06608 1.38859,-13.55864 -4.21647,-17.50534 l -0.0194,0.0344 -17.33053,30.47897 -0.006,0.007 c -0.007,0.0123 -0.0154,0.0209 -0.0224,0.0329 -0.061,0.106 -0.13051,0.2045 -0.21367,0.28986 -0.26023,0.26716 -0.61896,0.42322 -1.00107,0.43331 -0.0671,-10e-4 -0.1338,-0.005 -0.20021,-0.0149 -0.0143,-0.002 -0.0292,-0.003 -0.0433,-0.006 -0.0437,-0.008 -0.0856,-0.024 -0.1285,-0.0359 -0.11504,-0.0314 -0.22627,-0.074 -0.3317,-0.12999 -0.24758,-0.13261 -0.46206,-0.32683 -0.60513,-0.56628 -0.16192,-0.29838 -0.22008,-0.65174 -0.14194,-1.00108 0.006,-0.0235 0.009,-0.0465 0.0164,-0.0702 0.0282,-0.10168 0.0728,-0.20174 0.1255,-0.30033 0.0127,-0.024 0.0188,-0.0476 0.0329,-0.0717 l 17.33651,-30.49242 c -0.37998,-0.16873 -0.76669,-0.31304 -1.15647,-0.44526 -0.0942,-0.0321 -0.18761,-0.0656 -0.28239,-0.0956 -0.35294,-0.11118 -0.70832,-0.2067 -1.06681,-0.28837 -0.13217,-0.0304 -0.26443,-0.0572 -0.39744,-0.0837 -0.33387,-0.0657 -0.66898,-0.12245 -1.00557,-0.16286 -0.17677,-0.0216 -0.35423,-0.0346 -0.53191,-0.0493 -0.21651,-0.0174 -0.43312,-0.0273 -0.64995,-0.0344 -0.14266,-0.005 -0.28435,-0.0235 -0.42732,-0.0239 z"
     id="path3082"
     inkscape:connector-curvature="0" />
  <path
     style="color:#000000;font-style:normal;font-variant:normal;font-weight:normal;font-stretch:normal;font-size:medium;line-height:normal;font-family:sans-serif;font-variant-ligatures:normal;font-variant-position:normal;font-variant-caps:normal;font-variant-numeric:normal;font-variant-alternates:normal;font-feature-settings:normal;text-indent:0;text-align:start;text-decoration:none;text-decoration-line:none;text-decoration-style:solid;text-decoration-color:#000000;letter-spacing:normal;word-spacing:normal;text-transform:none;writing-mode:lr-tb;direction:ltr;text-orientation:mixed;dominant-baseline:auto;baseline-shift:baseline;text-anchor:start;white-space:normal;shape-padding:0;clip-rule:nonzero;display:inline;overflow:visible;visibility:visible;opacity:1;isolation:auto;mix-blend-mode:normal;color-interpolation:sRGB;color-interpolation-filters:linearRGB;solid-color:#000000;solid-opacity:1;vector-effect:none;fill:#00e500;fill-opacity:1;fill-rule:nonzero;stroke:#000000;stroke-width:0.71044773;stroke-linecap:round;stroke-linejoin:miter;stroke-miterlimit:4;stroke-dasharray:none;stroke-dashoffset:0;stroke-opacity:1;color-rendering:auto;image-rendering:auto;shape-rendering:auto;text-rendering:auto;enable-background:accumulate"
     d="m 23.291257,361.42585 c -7.1e-4,0.19406 0.01317,0.38533 0.04301,0.57307 1.912089,12.01563 67.749233,18.16359 67.749233,18.16359 l -1.298784,-13.84956 3.632718,-0.44125 c 0.505365,4.5875 0.95416,9.22722 1.323763,13.96057 0.739188,9.46672 1.132804,18.85785 1.035151,28.25001 0.0215,12.39872 -17.198632,2.85961 -18.198289,22.63026 l -8.596133,60.15633 c -1.060102,9.34661 -2.197103,21.21632 11.386582,27.1996 0.100391,0.0208 0.191821,0.0416 0.291397,0.0624 6.938043,5.69854 13.744076,11.55811 20.403165,17.62522 3.52488,3.23619 7.01232,6.49495 10.4236,9.82693 l -2.55733,2.62533 -10.388915,-9.7645 c 0,0 -35.104226,56.7351 -26.494698,65.33205 8.609518,8.59695 65.486063,-25.12515 65.486063,-25.12515 l -9.19141,-10.44164 2.67944,-2.49212 c 3.10532,3.41433 6.19623,6.90447 9.27745,10.51658 6.16241,7.22424 12.00047,14.59007 17.44204,22.24589 7.30518,10.01813 -12.23305,12.42249 -1.42089,29.00486 l 28.40403,53.72067 c 4.63616,8.18469 10.69377,18.4558 25.20008,15.3121 0.0943,-0.0424 0.1811,-0.0801 0.27474,-0.12211 8.96155,0.5321 17.91129,1.27315 26.86381,2.26732 4.75387,0.54626 9.49068,1.13276 14.20896,1.82329 l -0.5259,3.62718 -14.14374,-1.79417 c 0,0 4.94768,66.53465 16.9661,68.42916 12.01841,1.89454 38.21154,-58.82007 38.21154,-58.82007 l -13.57343,-3.04438 0.70212,-3.59108 c 4.51914,0.93698 9.07132,1.9443 13.68721,3.05547 9.23181,2.22236 18.28481,4.74894 27.18712,7.74415 11.79851,3.81096 -2.59504,17.2407 15.89904,24.30093 l 54.556,26.76529 c 8.56157,3.89641 19.49843,8.64572 29.38645,-2.42413 V 729.7791 c 12.39428,23.29562 32.19059,7.61703 32.23204,-7.98006 l 0.28307,-28.06268 c -0.29753,-22.44376 -21.35201,-35.52064 -32.51511,-13.94947 v -8.83203 -44.10743 c 12.39429,23.29563 22.64567,7.61703 22.68716,-7.98005 l 0.28307,-28.06269 c -0.29754,-22.44376 -11.8072,-35.52064 -22.97023,-13.94947 v -18.81437 c -32.96921,-0.0568 -63.44162,-10.71867 -88.2093,-28.74261 -26.63923,-19.42478 -45.0253,-45.96096 -54.46858,-75.1007 -10.13399,-31.37313 -9.41044,-63.64931 0.0777,-92.77448 10.24209,-31.33802 29.79943,-57.02474 54.59485,-75.01051 26.70605,-19.33282 57.62481,-28.61772 88.25648,-28.59414 42.60929,-6.33681 43.60265,-86.19148 -0.12558,-90.78477 69.17191,-15.32576 61.60877,-94.395365 0.12558,-115.744594 -7.61166,4.87154 -15.338,9.564623 -23.21721,14.052152 -4.16704,2.352325 -8.34439,4.662232 -12.56743,6.876914 l -1.70535,-3.244192 12.49666,-6.86165 c 0,0 -43.11155,-50.91972 -53.94824,-45.388174 -10.83667,5.531537 3.66047,70.047093 3.66047,70.047094 l 12.77003,-5.515683 1.543,3.317736 c -4.20681,1.898245 -8.48107,3.758368 -12.86854,5.572574 -8.77496,3.628386 -17.58477,6.906466 -26.54744,9.715928 -11.78521,3.851865 -8.03358,-15.474107 -27.14548,-10.315368 L 232.4751,99.960275 c -9.21676,1.880045 -20.85713,4.467035 -22.34997,19.234815 0.0113,0.1026 0.0196,0.19651 0.0305,0.29833 -3.27535,8.35851 -6.74491,16.64189 -10.45691,24.84902 -1.98855,4.3524 -4.01008,8.67645 -6.12483,12.95041 l -3.28721,-1.6221 6.07627,-12.89629 c 0,0 -64.80752,-15.85535 -70.32322,-5.0106 -5.51567,10.84475 44.13382,54.51854 44.13382,54.51854 l 7.08921,-11.96938 3.1984,1.77751 c -2.28762,4.00841 -4.65183,8.02683 -7.135,12.07345 -4.96638,8.09321 -10.16625,15.92317 -15.76583,23.4642 -7.27039,10.0434 -15.59559,-7.79626 -28.02522,7.61095 l -42.313277,43.61483 c -6.351431,6.93846 -14.248152,15.87195 -6.775606,28.69681 0.06887,0.0758 0.130211,0.14665 0.198414,0.22201 2.263534,8.68844 4.32585,17.42923 6.14704,26.25188 0.949509,4.69 1.854562,9.3764 2.655852,14.07713 l -3.611906,0.62026 -2.664179,-14.00498 c 0,0 -59.834211,24.48255 -59.880191,36.70878 z"
     id="path3011-3-6"
     inkscape:connector-curvature="0"
     sodipodi:nodetypes="cccccccccccccccscccccccccccccscccccccccccccccccccccccccccccscccccccccccccscccccccccccccc" />
  <path
     style="color:#000000;font-style:normal;font-variant:normal;font-weight:normal;font-stretch:normal;font-size:medium;line-height:normal;font-family:sans-serif;font-variant-ligatures:normal;font-variant-position:normal;font-variant-caps:normal;font-variant-numeric:normal;font-variant-alternates:normal;font-feature-settings:normal;text-indent:0;text-align:start;text-decoration:none;text-decoration-line:none;text-decoration-style:solid;text-decoration-color:#000000;letter-spacing:normal;word-spacing:normal;text-transform:none;writing-mode:lr-tb;direction:ltr;text-orientation:mixed;dominant-baseline:auto;baseline-shift:baseline;text-anchor:start;white-space:normal;shape-padding:0;clip-rule:nonzero;display:inline;overflow:visible;visibility:visible;opacity:1;isolation:auto;mix-blend-mode:normal;color-interpolation:sRGB;color-interpolation-filters:linearRGB;solid-color:#000000;solid-opacity:1;vector-effect:none;fill:none;fill-opacity:1;fill-rule:nonzero;stroke:#000000;stroke-width:0.71044773;stroke-linecap:round;stroke-linejoin:miter;stroke-miterlimit:4;stroke-dasharray:none;stroke-dashoffset:0;stroke-opacity:1;color-rendering:auto;image-rendering:auto;shape-rendering:auto;text-rendering:auto;enable-background:accumulate"
     d="m 342.81419,727.93917 a 1.7762969,1.7762969 0 0 0 1.60775,1.75762 c 0,0 2.28929,0.25164 5.10265,0.73634 2.81336,0.48472 6.18499,1.24746 7.97404,2.04809 4.22553,1.891 8.46731,3.89595 12.69925,5.97405 4.23093,2.07762 8.44555,4.23091 12.61045,6.45879 1.77809,0.95113 4.54956,3.20139 6.74925,5.17295 2.19969,1.97156 3.88526,3.66509 3.88526,3.66509 a 1.7762969,1.7762969 0 1 0 2.51987,-2.50322 c 0,0 -1.7511,-1.76205 -4.03328,-3.80755 -2.28216,-2.04549 -5.03838,-4.37225 -7.44489,-5.65953 -4.20434,-2.24898 -8.45663,-4.42189 -12.72146,-6.51613 -4.26384,-2.09377 -8.54333,-4.11469 -12.81396,-6.02586 -2.45903,-1.10046 -5.89265,-1.80252 -8.82139,-2.30711 -2.92874,-0.50459 -5.31726,-0.76779 -5.31726,-0.76779 a 1.7762969,1.7762969 0 0 0 -1.99628,1.77426 z"
     id="path840"
     inkscape:connector-curvature="0" />
  <path
     style="fill:none;fill-opacity:1;stroke:#000000;stroke-width:0.72253346;stroke-linecap:round;stroke-linejoin:round;stroke-miterlimit:4;stroke-dasharray:none;stroke-opacity:1"
     d="m 237.60226,407.5314 c 0.0746,9.49875 0.89162,18.97713 2.44354,28.34854 l 5.39497,-0.8506 c -1.50529,-9.09022 -2.2977,-18.28421 -2.37002,-27.49794 0.0333,-9.30305 0.80064,-18.58898 2.29508,-27.77128 l -5.39774,-0.85893 c -1.54058,9.4663 -2.33165,19.03943 -2.36583,28.63021 z m 19.93693,-82.86705 4.87045,2.48656 c 8.46382,-16.50344 19.4716,-31.57242 32.61954,-44.65414 l -3.86167,-3.86722 c -13.55452,13.48619 -24.90272,29.02108 -33.62832,46.0348 z m 0.0388,165.41636 c 8.64508,17.0443 19.91682,32.62301 33.40214,46.16523 l 3.86723,-3.86028 c -13.08086,-13.13597 -24.01452,-28.24738 -32.4003,-44.78041 z m 79.43693,79.79494 c 17.04541,8.66556 35.34819,14.5951 54.23686,17.57109 l 0.85892,-5.39634 c -18.32181,-2.88672 -36.07532,-8.63833 -52.60921,-17.04382 z m 0.31776,-324.64824 2.47686,4.87046 c 16.52527,-8.38908 34.26671,-14.12792 52.57451,-17.00635 l -0.85059,-5.39636 c -18.87411,2.96741 -37.16434,8.88373 -54.20078,17.53225 z"
     id="path943"
     inkscape:connector-curvature="0"
     sodipodi:nodetypes="ccccccccccccccccccccccccccc" />
  <path
     style="color:#000000;font-style:normal;font-variant:normal;font-weight:normal;font-stretch:normal;font-size:medium;line-height:normal;font-family:sans-serif;font-variant-ligatures:normal;font-variant-position:normal;font-variant-caps:normal;font-variant-numeric:normal;font-variant-alternates:normal;font-feature-settings:normal;text-indent:0;text-align:start;text-decoration:none;text-decoration-line:none;text-decoration-style:solid;text-decoration-color:#000000;letter-spacing:normal;word-spacing:normal;text-transform:none;writing-mode:lr-tb;direction:ltr;text-orientation:mixed;dominant-baseline:auto;baseline-shift:baseline;text-anchor:start;white-space:normal;shape-padding:0;clip-rule:nonzero;display:inline;overflow:visible;visibility:visible;opacity:1;isolation:auto;mix-blend-mode:normal;color-interpolation:sRGB;color-interpolation-filters:linearRGB;solid-color:#000000;solid-opacity:1;vector-effect:none;fill:none;fill-opacity:1;fill-rule:nonzero;stroke:#000000;stroke-width:0.71044773;stroke-linecap:butt;stroke-linejoin:miter;stroke-miterlimit:4;stroke-dasharray:none;stroke-dashoffset:0;stroke-opacity:1;color-rendering:auto;image-rendering:auto;shape-rendering:auto;text-rendering:auto;enable-background:accumulate"
     d="m 418.32721,237.42212 h 2.84179 v -49.9922 h -2.84179 z"
     id="path1036"
     inkscape:connector-curvature="0" />
  <path
     inkscape:connector-curvature="0"
     style="color:#000000;font-style:normal;font-variant:normal;font-weight:normal;font-stretch:normal;font-size:medium;line-height:normal;font-family:sans-serif;font-variant-ligatures:normal;font-variant-position:normal;font-variant-caps:normal;font-variant-numeric:normal;font-variant-alternates:normal;font-feature-settings:normal;text-indent:0;text-align:start;text-decoration:none;text-decoration-line:none;text-decoration-style:solid;text-decoration-color:#000000;letter-spacing:normal;word-spacing:normal;text-transform:none;writing-mode:lr-tb;direction:ltr;text-orientation:mixed;dominant-baseline:auto;baseline-shift:baseline;text-anchor:start;white-space:normal;shape-padding:0;clip-rule:nonzero;display:inline;overflow:visible;visibility:visible;opacity:1;isolation:auto;mix-blend-mode:normal;color-interpolation:sRGB;color-interpolation-filters:linearRGB;solid-color:#000000;solid-opacity:1;vector-effect:none;fill:none;fill-opacity:1;fill-rule:nonzero;stroke:#000000;stroke-width:0.71044773;stroke-linecap:round;stroke-linejoin:miter;stroke-miterlimit:4;stroke-dasharray:none;stroke-dashoffset:0;stroke-opacity:1;color-rendering:auto;image-rendering:auto;shape-rendering:auto;text-rendering:auto;enable-background:accumulate"
     d="m 169.41027,621.60208 a 1.7762969,1.7762969 0 0 0 0.26759,2.36696 c 0,0 1.70416,1.54918 3.69532,3.59497 1.99115,2.04579 4.27052,4.64466 5.24729,6.34396 2.30703,4.01355 4.56022,8.12885 6.76243,12.29757 2.20175,4.16765 4.34576,8.38701 6.40573,12.63746 0.87944,1.81464 1.79894,5.26413 2.41964,8.15216 0.62074,2.88795 0.98897,5.24879 0.98897,5.24879 a 1.7762969,1.7762969 0 1 0 3.50998,-0.54401 c 0,0 -0.38099,-2.45477 -1.02497,-5.45106 -0.64399,-2.99629 -1.50617,-6.49874 -2.69647,-8.95465 -2.07945,-4.29072 -4.24242,-8.54809 -6.46177,-12.74916 -2.21885,-4.20012 -4.49316,-8.3505 -6.8248,-12.40688 -1.34257,-2.33567 -3.70777,-4.92188 -5.78058,-7.05157 -2.07281,-2.1297 -3.85045,-3.74656 -3.85045,-3.74656 a 1.7762969,1.7762969 0 0 0 -2.65791,0.26202 z"
     id="path840-6" />
  <path
     inkscape:connector-curvature="0"
     style="color:#000000;font-style:normal;font-variant:normal;font-weight:normal;font-stretch:normal;font-size:medium;line-height:normal;font-family:sans-serif;font-variant-ligatures:normal;font-variant-position:normal;font-variant-caps:normal;font-variant-numeric:normal;font-variant-alternates:normal;font-feature-settings:normal;text-indent:0;text-align:start;text-decoration:none;text-decoration-line:none;text-decoration-style:solid;text-decoration-color:#000000;letter-spacing:normal;word-spacing:normal;text-transform:none;writing-mode:lr-tb;direction:ltr;text-orientation:mixed;dominant-baseline:auto;baseline-shift:baseline;text-anchor:start;white-space:normal;shape-padding:0;clip-rule:nonzero;display:inline;overflow:visible;visibility:visible;opacity:1;isolation:auto;mix-blend-mode:normal;color-interpolation:sRGB;color-interpolation-filters:linearRGB;solid-color:#000000;solid-opacity:1;vector-effect:none;fill:none;fill-opacity:1;fill-rule:nonzero;stroke:#000000;stroke-width:0.71044773;stroke-linecap:round;stroke-linejoin:miter;stroke-miterlimit:4;stroke-dasharray:none;stroke-dashoffset:0;stroke-opacity:1;color-rendering:auto;image-rendering:auto;shape-rendering:auto;text-rendering:auto;enable-background:accumulate"
     d="m 91.626922,433.64926 a 1.7762969,1.7762969 0 0 0 -1.174768,2.0722 c 0,0 0.4681,2.255 0.876493,5.08045 0.408385,2.82545 0.724856,6.26776 0.516269,8.21666 -0.492682,4.60306 -1.088728,9.2568 -1.757411,13.9238 -0.668427,4.66585 -1.413971,9.3396 -2.245773,13.9891 -0.355139,1.98499 -1.638794,5.31617 -2.834194,8.01747 -1.195304,2.70126 -2.285065,4.82766 -2.285065,4.82766 a 1.7762969,1.7762969 0 1 0 3.159409,1.62301 c 0,0 1.134641,-2.20989 2.374818,-5.01248 1.240176,-2.80256 2.601347,-6.14289 3.081922,-8.82939 0.839711,-4.69354 1.592256,-9.40919 2.266082,-14.11243 0.673694,-4.70217 1.273264,-9.39671 1.771203,-14.0489 0.286708,-2.67873 -0.106633,-6.16125 -0.531765,-9.10258 -0.425142,-2.94132 -0.912907,-5.29426 -0.912907,-5.29426 a 1.7762969,1.7762969 0 0 0 -2.304313,-1.35031 z"
     id="path840-6-3" />
  <path
     inkscape:connector-curvature="0"
     style="color:#000000;font-style:normal;font-variant:normal;font-weight:normal;font-stretch:normal;font-size:medium;line-height:normal;font-family:sans-serif;font-variant-ligatures:normal;font-variant-position:normal;font-variant-caps:normal;font-variant-numeric:normal;font-variant-alternates:normal;font-feature-settings:normal;text-indent:0;text-align:start;text-decoration:none;text-decoration-line:none;text-decoration-style:solid;text-decoration-color:#000000;letter-spacing:normal;word-spacing:normal;text-transform:none;writing-mode:lr-tb;direction:ltr;text-orientation:mixed;dominant-baseline:auto;baseline-shift:baseline;text-anchor:start;white-space:normal;shape-padding:0;clip-rule:nonzero;display:inline;overflow:visible;visibility:visible;opacity:1;isolation:auto;mix-blend-mode:normal;color-interpolation:sRGB;color-interpolation-filters:linearRGB;solid-color:#000000;solid-opacity:1;vector-effect:none;fill:none;fill-opacity:1;fill-rule:nonzero;stroke:#000000;stroke-width:0.71044773;stroke-linecap:round;stroke-linejoin:miter;stroke-miterlimit:4;stroke-dasharray:none;stroke-dashoffset:0;stroke-opacity:1;color-rendering:auto;image-rendering:auto;shape-rendering:auto;text-rendering:auto;enable-background:accumulate"
     d="m 139.17476,235.87234 a 1.7762969,1.7762969 0 0 0 -2.16842,0.98593 c 0,0 -0.94675,2.09947 -2.2771,4.62536 -1.33038,2.52589 -3.09768,5.49679 -4.41197,6.95087 -3.1042,3.43437 -6.32181,6.84898 -9.60598,10.23161 -3.28328,3.38186 -6.6336,6.7248 -10.03945,9.99739 -1.45406,1.39715 -4.45059,3.33762 -7.00546,4.82037 -2.55479,1.48279 -4.686286,2.56254 -4.686286,2.56254 a 1.7762969,1.7762969 0 1 0 1.602026,3.17008 c 0,0 2.2169,-1.1209 4.86753,-2.65928 2.65063,-1.53836 5.71524,-3.44068 7.68312,-5.33162 3.43813,-3.30359 6.81875,-6.67629 10.12838,-10.08523 3.30889,-3.40815 6.55333,-6.85369 9.69066,-10.32471 1.80648,-1.99862 3.53522,-5.04723 4.92015,-7.67671 1.38492,-2.62947 2.37334,-4.81974 2.37334,-4.81974 a 1.7762969,1.7762969 0 0 0 -1.07054,-2.44686 z"
     id="path840-6-3-2" />
  <path
     inkscape:connector-curvature="0"
     style="color:#000000;font-style:normal;font-variant:normal;font-weight:normal;font-stretch:normal;font-size:medium;line-height:normal;font-family:sans-serif;font-variant-ligatures:normal;font-variant-position:normal;font-variant-caps:normal;font-variant-numeric:normal;font-variant-alternates:normal;font-feature-settings:normal;text-indent:0;text-align:start;text-decoration:none;text-decoration-line:none;text-decoration-style:solid;text-decoration-color:#000000;letter-spacing:normal;word-spacing:normal;text-transform:none;writing-mode:lr-tb;direction:ltr;text-orientation:mixed;dominant-baseline:auto;baseline-shift:baseline;text-anchor:start;white-space:normal;shape-padding:0;clip-rule:nonzero;display:inline;overflow:visible;visibility:visible;opacity:1;isolation:auto;mix-blend-mode:normal;color-interpolation:sRGB;color-interpolation-filters:linearRGB;solid-color:#000000;solid-opacity:1;vector-effect:none;fill:none;fill-opacity:1;fill-rule:nonzero;stroke:#000000;stroke-width:0.71044773;stroke-linecap:round;stroke-linejoin:miter;stroke-miterlimit:4;stroke-dasharray:none;stroke-dashoffset:0;stroke-opacity:1;color-rendering:auto;image-rendering:auto;shape-rendering:auto;text-rendering:auto;enable-background:accumulate"
     d="m 293.89213,103.81537 a 1.7762969,1.7762969 0 0 0 -2.3338,-0.47693 c 0,0 -1.99998,1.14202 -4.56094,2.40354 -2.56097,1.26151 -5.737,2.62623 -7.65497,3.03008 -4.53003,0.95386 -9.14018,1.82507 -13.78539,2.6313 -4.64405,0.80611 -9.31944,1.54134 -13.99841,2.18701 -1.99759,0.27565 -5.5624,0.0842 -8.50087,-0.21794 -2.93844,-0.30206 -5.29751,-0.68139 -5.29751,-0.68139 a 1.7762969,1.7762969 0 1 0 -0.56726,3.5063 c 0,0 2.45235,0.39622 5.50101,0.70966 3.04863,0.31343 6.64609,0.57576 9.34962,0.20265 4.7233,-0.65178 9.4407,-1.39328 14.12197,-2.20581 4.6802,-0.81233 9.33025,-1.6928 13.90862,-2.65684 2.63623,-0.55509 5.82674,-2.00534 8.49274,-3.31859 2.66599,-1.31325 4.75305,-2.50425 4.75305,-2.50425 a 1.7762969,1.7762969 0 0 0 0.57214,-2.60879 z"
     id="path840-6-3-2-2" />
  <rect
     style="fill:none;fill-opacity:0.54128436;stroke:#000019;stroke-width:0.73886561;stroke-linecap:round;stroke-linejoin:round;stroke-miterlimit:4;stroke-dasharray:none;stroke-opacity:1"
     id="rect2903"
     width="6.3128476"
     height="27.532232"
     x="-714.10913"
     y="405.98196"
     inkscape:transform-center-x="4.4746399e-05"
     transform="rotate(-90)"
     inkscape:transform-center-y="303.02308" />
  <rect
     inkscape:transform-center-x="304.23639"
     y="511.49524"
     x="-564.43433"
     height="27.532232"
     width="6.3128476"
     id="rect2920"
     style="fill:none;fill-opacity:0.54128436;stroke:#000019;stroke-width:0.73886561;stroke-linecap:round;stroke-linejoin:round;stroke-miterlimit:4;stroke-dasharray:none;stroke-opacity:1"
     transform="rotate(-72)"
     inkscape:transform-center-y="-98.852381" />
  <rect
     inkscape:transform-center-y="-188.02842"
     transform="rotate(-54)"
     style="fill:none;fill-opacity:0.54128436;stroke:#000019;stroke-width:0.73886561;stroke-linecap:round;stroke-linejoin:round;stroke-miterlimit:4;stroke-dasharray:none;stroke-opacity:1"
     id="rect2922"
     width="6.3128476"
     height="27.532232"
     x="-389.47974"
     y="565.59229"
     inkscape:transform-center-x="258.79893" />
  <rect
     inkscape:transform-center-x="188.02843"
     y="562.9776"
     x="-206.37114"
     height="27.532232"
     width="6.3128476"
     id="rect2924"
     style="fill:none;fill-opacity:0.54128436;stroke:#000019;stroke-width:0.73886561;stroke-linecap:round;stroke-linejoin:round;stroke-miterlimit:4;stroke-dasharray:none;stroke-opacity:1"
     transform="rotate(-36)"
     inkscape:transform-center-y="-258.79891" />
  <rect
     inkscape:transform-center-y="-304.23637"
     transform="rotate(-18)"
     style="fill:none;fill-opacity:0.54128436;stroke:#000019;stroke-width:0.73886561;stroke-linecap:round;stroke-linejoin:round;stroke-miterlimit:4;stroke-dasharray:none;stroke-opacity:1"
     id="rect2926"
     width="6.3128476"
     height="27.532232"
     x="-33.032501"
     y="503.90732"
     inkscape:transform-center-x="98.85241" />
  <rect
     inkscape:transform-center-x="3.3169522e-05"
     y="394.16354"
     x="113.56864"
     height="27.532232"
     width="6.3128476"
     id="rect2928"
     style="fill:none;fill-opacity:0.54128436;stroke:#000019;stroke-width:0.73886561;stroke-linecap:round;stroke-linejoin:round;stroke-miterlimit:4;stroke-dasharray:none;stroke-opacity:1"
     inkscape:transform-center-y="-319.89306" />
  <rect
     inkscape:transform-center-y="-304.23639"
     transform="rotate(18)"
     style="fill:none;fill-opacity:0.54128436;stroke:#000019;stroke-width:0.73886561;stroke-linecap:round;stroke-linejoin:round;stroke-miterlimit:4;stroke-dasharray:none;stroke-opacity:1"
     id="rect2930"
     width="6.3128476"
     height="27.532232"
     x="219.08188"
     y="244.48877"
     inkscape:transform-center-x="-98.852357" />
  <rect
     inkscape:transform-center-x="-188.02839"
     y="69.534172"
     x="273.17892"
     height="27.532232"
     width="6.3128476"
     id="rect2932"
     style="fill:none;fill-opacity:0.54128436;stroke:#000019;stroke-width:0.73886561;stroke-linecap:round;stroke-linejoin:round;stroke-miterlimit:4;stroke-dasharray:none;stroke-opacity:1"
     transform="rotate(36)"
     inkscape:transform-center-y="-258.79894" />
  <rect
     inkscape:transform-center-y="-188.02845"
     transform="rotate(54)"
     style="fill:none;fill-opacity:0.54128436;stroke:#000019;stroke-width:0.73886561;stroke-linecap:round;stroke-linejoin:round;stroke-miterlimit:4;stroke-dasharray:none;stroke-opacity:1"
     id="rect2934"
     width="6.3128476"
     height="27.532232"
     x="270.56427"
     y="-113.57442"
     inkscape:transform-center-x="-258.7989" />
  <rect
     inkscape:transform-center-x="-304.23637"
     y="-286.91309"
     x="211.49397"
     height="27.532232"
     width="6.3128476"
     id="rect2936"
     style="fill:none;fill-opacity:0.54128436;stroke:#000019;stroke-width:0.73886561;stroke-linecap:round;stroke-linejoin:round;stroke-miterlimit:4;stroke-dasharray:none;stroke-opacity:1"
     transform="rotate(72)"
     inkscape:transform-center-y="-98.852426" />
  <path
     style="fill:none;fill-opacity:0.54128436;stroke:#ff0000;stroke-width:0.71080607;stroke-linecap:round;stroke-linejoin:round;stroke-miterlimit:4;stroke-dasharray:none;stroke-opacity:1"
     id="path862"
     sodipodi:type="arc"
     sodipodi:cx="-407.92966"
     sodipodi:cy="419.74808"
     sodipodi:rx="240.896"
     sodipodi:ry="240.896"
     sodipodi:start="3.0714291"
     sodipodi:end="0.14340514"
     d="m -648.23294,436.63633 a 240.896,240.896 0 0 1 120.0694,-225.63378 240.896,240.896 0 0 1 255.42061,9.35789 240.896,240.896 0 0 1 103.23649,233.81508"
     sodipodi:open="true"
     transform="rotate(-90)" />
  <path
     style="color:#000000;font-style:normal;font-variant:normal;font-weight:normal;font-stretch:normal;font-size:medium;line-height:normal;font-family:sans-serif;font-variant-ligatures:normal;font-variant-position:normal;font-variant-caps:normal;font-variant-numeric:normal;font-variant-alternates:normal;font-feature-settings:normal;text-indent:0;text-align:start;text-decoration:none;text-decoration-line:none;text-decoration-style:solid;text-decoration-color:#000000;letter-spacing:normal;word-spacing:normal;text-transform:none;writing-mode:lr-tb;direction:ltr;text-orientation:mixed;dominant-baseline:auto;baseline-shift:baseline;text-anchor:start;white-space:normal;shape-padding:0;clip-rule:nonzero;display:inline;overflow:visible;visibility:visible;opacity:1;isolation:auto;mix-blend-mode:normal;color-interpolation:sRGB;color-interpolation-filters:linearRGB;solid-color:#000000;solid-opacity:1;vector-effect:none;fill:none;fill-opacity:1;fill-rule:nonzero;stroke:#000000;stroke-width:1;stroke-linecap:butt;stroke-linejoin:miter;stroke-miterlimit:4;stroke-dasharray:none;stroke-dashoffset:0;stroke-opacity:1;color-rendering:auto;image-rendering:auto;shape-rendering:auto;text-rendering:auto;enable-background:accumulate"
     d="M 557.83008 114.99219 L 557.83008 135.66602 L 541.30859 135.66602 L 541.30859 144.08398 L 557.83008 144.08398 L 557.83008 181.64844 L 561.83008 181.64844 L 561.83008 144.08398 L 578.01953 144.08398 L 578.01953 135.66602 L 561.83008 135.66602 L 561.83008 114.99219 L 557.83008 114.99219 z "
     transform="scale(0.75)"
     id="path874" />
</svg>
