<?xml version="1.0" encoding="UTF-8" standalone="no"?>
<!-- Created with matplotlib (http://matplotlib.org/) -->

<svg
   xmlns:dc="http://purl.org/dc/elements/1.1/"
   xmlns:cc="http://creativecommons.org/ns#"
   xmlns:rdf="http://www.w3.org/1999/02/22-rdf-syntax-ns#"
   xmlns:svg="http://www.w3.org/2000/svg"
   xmlns="http://www.w3.org/2000/svg"
   xmlns:sodipodi="http://sodipodi.sourceforge.net/DTD/sodipodi-0.dtd"
   xmlns:inkscape="http://www.inkscape.org/namespaces/inkscape"
   height="11in"
   version="1.1"
   viewBox="0 0 864 792"
   width="12in"
   id="svg448"
   sodipodi:docname="cone4.svg"
   inkscape:version="0.92.3 (2405546, 2018-03-11)">
  <metadata
     id="metadata452">
    <rdf:RDF>
      <cc:Work
         rdf:about="">
        <dc:format>image/svg+xml</dc:format>
        <dc:type
           rdf:resource="http://purl.org/dc/dcmitype/StillImage" />
        <dc:title></dc:title>
      </cc:Work>
    </rdf:RDF>
  </metadata>
  <sodipodi:namedview
     pagecolor="#ffffff"
     bordercolor="#666666"
     borderopacity="1"
     objecttolerance="10"
     gridtolerance="10"
     guidetolerance="10"
     inkscape:pageopacity="0"
     inkscape:pageshadow="2"
     inkscape:window-width="2493"
     inkscape:window-height="1025"
     id="namedview450"
     showgrid="false"
     inkscape:snap-intersection-paths="true"
     inkscape:zoom="1.4142136"
     inkscape:cx="576.89314"
     inkscape:cy="426.84855"
     inkscape:window-x="67"
     inkscape:window-y="27"
     inkscape:window-maximized="1"
     inkscape:current-layer="svg448"
     units="in"
     inkscape:object-paths="true"
     inkscape:snap-page="true"
     inkscape:snap-nodes="true"
     inkscape:object-nodes="true"
     inkscape:snap-smooth-nodes="true"
     inkscape:snap-center="false"
     inkscape:snap-global="true"
     inkscape:snap-bbox="false"
     showguides="false"
     inkscape:snap-midpoints="true" />
  <defs
     id="defs4"
     style="stroke-linecap:butt;stroke-linejoin:round">
    <style
       type="text/css"
       id="style2">
*{stroke-linecap:butt;stroke-linejoin:round;}
  </style>
    <clipPath
       id="pbf9476fbec"
       style="stroke-linecap:butt;stroke-linejoin:round">
      <rect
         height="406.07999"
         width="310.26892"
         x="24.744226"
         y="7.1999998"
         id="rect1798"
         style="stroke-linecap:butt;stroke-linejoin:round" />
    </clipPath>
    <clipPath
       id="clipPath3268"
       style="stroke-linecap:butt;stroke-linejoin:round">
      <rect
         height="406.07999"
         width="310.26892"
         x="24.744226"
         y="7.1999998"
         id="rect3266"
         style="stroke-linecap:butt;stroke-linejoin:round" />
    </clipPath>
    <clipPath
       id="pbf9476fbec-7"
       style="stroke-linecap:butt;stroke-linejoin:round">
      <rect
         height="406.07999"
         width="310.26892"
         x="24.744226"
         y="7.1999998"
         id="rect1798-5"
         style="stroke-linecap:butt;stroke-linejoin:round" />
    </clipPath>
    <clipPath
       id="pbf9476fbec-6"
       style="stroke-linecap:butt;stroke-linejoin:round">
      <rect
         height="406.07999"
         width="310.26892"
         x="24.744226"
         y="7.1999998"
         id="rect1798-2"
         style="stroke-linecap:butt;stroke-linejoin:round" />
    </clipPath>
    <clipPath
       id="paf85c306f7"
       style="stroke-linecap:butt;stroke-linejoin:round">
      <rect
         height="406.07999"
         width="312.42859"
         x="24.702696"
         y="7.1999998"
         id="rect1307"
         style="stroke-linecap:butt;stroke-linejoin:round" />
    </clipPath>
    <clipPath
       id="clipPath2800"
       style="stroke-linecap:butt;stroke-linejoin:round">
      <rect
         height="406.07999"
         width="312.42859"
         x="24.702696"
         y="7.1999998"
         id="rect2798"
         style="stroke-linecap:butt;stroke-linejoin:round" />
    </clipPath>
  </defs>
  <g
     id="line2d_1"
     style="stroke-linecap:butt;stroke-linejoin:round"
     transform="translate(0,371.99999)" />
  <defs
     id="defs446">
    <clipPath
       id="p9b010a994c"
       style="stroke-linecap:butt;stroke-linejoin:round">
      <rect
         height="399.72617"
         width="243.70816"
         x="10.407009"
         y="7.1999998"
         id="rect443"
         style="stroke-linecap:butt;stroke-linejoin:round" />
    </clipPath>
  </defs>
  <path
     style="fill:none;fill-opacity:1;stroke:#000000;stroke-width:0.80550581;stroke-linecap:round;stroke-linejoin:round;stroke-miterlimit:4;stroke-dasharray:none;stroke-opacity:1"
     d="m 444.51097,310.6779 a 27.528903,27.528903 0 0 0 27.52985,27.52847 27.528903,27.528903 0 0 0 12.47308,-2.98889 90.950869,90.950869 0 0 0 46.84931,34.1348 27.528899,27.528899 0 0 0 -0.35245,4.1711 27.528899,27.528899 0 0 0 27.52985,27.52846 27.528899,27.528899 0 0 0 27.52846,-27.52846 27.528899,27.528899 0 0 0 -0.35106,-4.26129 90.950869,90.950869 0 0 0 46.90758,-34.04599 27.5289,27.5289 0 0 0 12.41341,2.99027 27.5289,27.5289 0 0 0 27.52985,-27.52847 27.5289,27.5289 0 0 0 -23.12702,-27.14133 90.950869,90.950869 0 0 0 0.0486,-0.96437 90.950869,90.950869 0 0 0 -18.0068,-54.15915 27.528903,27.528903 0 0 0 8.04527,-19.42076 27.528903,27.528903 0 0 0 -27.52985,-27.52985 27.528903,27.528903 0 0 0 -24.47576,14.99018 90.950869,90.950869 0 0 0 -28.98266,-4.83161 90.950869,90.950869 0 0 0 -28.94657,4.84826 27.528903,27.528903 0 0 0 -24.51323,-15.00683 27.528903,27.528903 0 0 0 -27.52985,27.52985 27.528903,27.528903 0 0 0 8.04943,19.42908 90.950869,90.950869 0 0 0 -18.01096,54.15083 90.950869,90.950869 0 0 0 0.0333,0.94495 27.528903,27.528903 0 0 0 -23.11182,27.16075 z"
     id="path1059"
     inkscape:connector-curvature="0" />
  <g
     transform="translate(-479.37862,719.05136)"
     id="line2d_1-3-3"
     style="stroke-linecap:butt;stroke-linejoin:round" />
  <path
     style="fill:none;stroke:#000000;stroke-width:1.32892251;stroke-linecap:square;stroke-linejoin:round;stroke-opacity:1"
     d="M 594.12891 554.4668 C 593.45968 554.4675 592.79848 554.51368 592.14258 554.58789 C 591.82606 554.6237 591.51175 554.66829 591.19922 554.7207 C 591.1478 554.7292 591.09628 554.73714 591.04492 554.74609 C 590.7697 554.79474 590.49622 554.84886 590.22461 554.91016 C 590.11437 554.93474 590.00437 554.96159 589.89453 554.98828 C 589.67496 555.04225 589.45708 555.09998 589.24023 555.16211 C 589.07186 555.20987 588.90546 555.26361 588.73828 555.31641 C 588.5698 555.37011 588.40094 555.42186 588.23438 555.48047 C 587.97105 555.57234 587.71081 555.67281 587.45117 555.77734 C 587.3872 555.80329 587.32145 555.82489 587.25781 555.85156 C 586.5604 556.14182 585.87648 556.47552 585.21289 556.85742 C 583.94648 557.59291 582.78563 558.4823 581.74414 559.49414 C 581.67819 559.55802 581.60994 559.61864 581.54492 559.68359 C 581.41741 559.81135 581.29741 559.94655 581.17383 560.07812 C 581.0306 560.23019 580.88228 560.37773 580.74414 560.53516 C 580.68815 560.59914 580.63712 560.66762 580.58203 560.73242 C 579.88347 561.55191 579.25023 562.43657 578.70117 563.38867 L 578.68555 563.37891 L 550.52734 612.15234 L 550.52539 612.15625 L 550.54102 612.16406 C 548.9736 614.8703 548.1443 617.94094 548.13867 621.06836 C 548.13868 621.26473 548.16166 621.45555 548.16797 621.65039 C 548.17654 621.92482 548.18775 622.19876 548.20898 622.47266 C 548.22905 622.72941 548.25237 622.98469 548.2832 623.23828 C 548.33134 623.63597 548.38982 624.0313 548.46484 624.42578 C 548.47066 624.45635 548.47449 624.48703 548.48047 624.51758 C 548.51836 624.7107 548.56726 624.89901 548.61133 625.08984 C 548.68145 625.39471 548.75932 625.69831 548.8457 626 C 548.90539 626.20752 548.96431 626.4148 549.03125 626.61914 C 549.1718 627.05027 549.32568 627.47847 549.5 627.90039 C 549.5555 628.03403 549.6191 628.16294 549.67773 628.29492 C 549.83361 628.64769 550.00179 628.99535 550.18164 629.33984 C 550.24892 629.46798 550.31449 629.59638 550.38477 629.72266 C 550.4331 629.81 550.47549 629.89961 550.52539 629.98633 C 550.63174 630.17055 550.75729 630.33668 550.86914 630.51562 C 551.02129 630.75829 551.17066 631.00172 551.33398 631.23633 C 551.52753 631.51557 551.73257 631.78182 551.93945 632.04688 C 552.08307 632.23014 552.22446 632.4144 552.375 632.5918 C 552.61226 632.87234 552.85946 633.13939 553.11133 633.40234 C 553.25297 633.54997 553.39441 633.69715 553.54102 633.83984 C 553.81855 634.11019 554.10401 634.36741 554.39648 634.61719 C 554.53396 634.73474 554.67145 634.85145 554.8125 634.96484 C 555.12001 635.21158 555.43441 635.44542 555.75586 635.66992 C 555.90908 635.77731 556.06204 635.88369 556.21875 635.98633 C 556.52447 636.18579 556.83609 636.37307 557.15234 636.55273 C 557.35614 636.66904 557.5608 636.78224 557.76953 636.89062 C 558.04694 637.03406 558.32734 637.1684 558.61133 637.29688 C 558.63256 637.30652 558.65453 637.31464 558.67578 637.32422 C 566.72662 641.10059 576.45008 638.36457 581.28906 630.72656 C 581.99324 631.21287 582.69031 631.70952 583.39062 632.20117 C 584.17689 632.75315 584.96876 633.29775 585.74805 633.85938 C 586.57436 634.45488 587.38866 635.06761 588.20703 635.67383 C 588.98897 636.25304 589.77422 636.82714 590.54883 637.41602 C 591.34633 638.02232 592.13223 638.64335 592.92188 639.25977 C 593.67511 639.84776 594.42979 640.43416 595.17578 641.03125 C 595.99319 641.68553 596.80273 642.3486 597.61133 643.01367 C 598.31869 643.59544 599.02407 644.17961 599.72461 644.76953 C 600.52852 645.44656 601.32627 646.13072 602.12109 646.81836 C 602.81378 647.41758 603.50374 648.01977 604.18945 648.62695 C 604.98341 649.33005 605.77409 650.03636 606.55859 650.75 C 607.23353 651.3639 607.90245 651.98387 608.57031 652.60547 C 609.3355 653.31774 610.09967 654.03165 610.85547 654.75391 C 611.51122 655.38049 612.15998 656.01444 612.80859 656.64844 C 613.58575 657.40816 614.36407 658.16727 615.13086 658.9375 C 615.67974 659.48878 616.21821 660.05083 616.76172 660.60742 C 617.60644 661.47258 618.45353 662.33507 619.28516 663.21289 C 619.58526 663.52962 619.8774 663.8535 620.17578 664.17188 C 622.461 666.61041 624.70438 669.08755 626.88672 671.61914 C 627.77571 672.65041 628.64606 673.69796 629.51758 674.74414 C 629.88767 675.18834 630.26395 675.62737 630.63086 676.07422 C 631.46653 677.09211 632.28646 678.12286 633.10547 679.1543 C 633.49912 679.65 633.89539 680.1438 634.28516 680.64258 C 635.06684 681.64301 635.83566 682.65336 636.60156 683.66602 C 637.02255 684.22257 637.44515 684.77771 637.86133 685.33789 C 638.58706 686.31485 639.30271 687.29928 640.01367 688.28711 C 640.45525 688.90059 640.89425 689.51521 641.33008 690.13281 C 642.01286 691.10045 642.68888 692.07317 643.35742 693.05078 C 643.54871 693.33048 643.73762 693.61207 643.92773 693.89258 C 624.71126 709.46393 629.2677 717.95389 652.83789 709.30273 C 633.87466 725.57514 639.70389 734.01802 661.27344 724.91602 L 665.64844 733.22656 C 665.8774 733.74909 666.11654 734.2669 666.3418 734.79102 C 666.40181 734.93066 666.45978 735.07119 666.51953 735.21094 C 667.1863 736.77042 667.83686 738.33714 668.4707 739.91016 C 668.53545 740.07086 668.59966 740.23173 668.66406 740.39258 C 669.26939 741.90417 669.8589 743.42193 670.43359 744.94531 C 670.52667 745.19208 670.62063 745.43848 670.71289 745.68555 C 671.27757 747.19732 671.82703 748.71562 672.36133 750.23828 C 672.43096 750.43678 672.5012 750.6353 672.57031 750.83398 C 673.15091 752.50251 673.71397 754.17669 674.25781 755.85742 C 674.26694 755.88563 674.27799 755.91319 674.28711 755.94141 C 674.28983 755.94983 674.2922 755.95837 674.29492 755.9668 C 676.01702 761.29756 677.55272 766.688 678.89844 772.125 C 679.32056 773.83045 679.72104 775.54157 680.10547 777.25586 C 680.18855 777.62656 680.26635 777.99804 680.34766 778.36914 C 680.65066 779.75118 680.94433 781.13427 681.22266 782.52148 C 681.31535 782.98378 681.40224 783.44732 681.49219 783.91016 C 681.74524 785.21151 681.9895 786.51487 682.2207 787.82031 C 682.30752 788.31083 682.39284 788.80191 682.47656 789.29297 C 682.70002 790.60274 682.91196 791.91509 683.11328 793.22852 C 683.18847 793.71937 683.26385 794.20984 683.33594 794.70117 C 683.53419 796.05153 683.71787 797.40409 683.89258 798.75781 C 683.94732 799.18227 684.00617 799.60649 684.05859 800.03125 C 684.23096 801.42701 684.38604 802.82384 684.5332 804.22266 C 684.57765 804.64536 684.62778 805.06727 684.66992 805.49023 C 684.84775 807.27432 685.00803 809.06147 685.14453 810.84961 C 685.07466 810.85235 685.00717 810.86365 684.9375 810.86719 C 684.52415 810.88718 684.1127 810.92417 683.70312 810.97266 C 683.56862 810.98884 683.43438 811.00428 683.30078 811.02344 C 682.30414 811.16451 681.32372 811.3912 680.36719 811.69727 C 680.33738 811.70688 680.30709 811.71484 680.27734 811.72461 C 679.10911 812.1052 677.9769 812.59951 676.9043 813.2168 C 674.27455 814.74002 672.12451 816.88994 670.59375 819.41992 C 670.06049 820.30128 669.60332 821.22853 669.22852 822.19336 C 669.20725 822.24796 669.18676 822.30256 669.16602 822.35742 C 668.98514 822.83699 668.82115 823.32229 668.68164 823.81836 C 668.68092 823.82092 668.68041 823.82361 668.67969 823.82617 C 668.5409 824.32052 668.42623 824.82371 668.33008 825.33203 C 668.32141 825.37775 668.31106 825.4229 668.30273 825.46875 C 668.22521 825.89694 668.15763 826.32929 668.11133 826.76562 L 668.125 826.76562 C 668.11416 826.86676 668.09315 826.96476 668.08398 827.06641 L 713.9668 826.76172 C 715.1782 826.73841 715.81487 827.59218 715.88477 828.49414 C 715.81235 829.43072 715.04981 830.25704 713.99219 830.25 L 668.11133 830.55469 C 668.12187 830.65592 668.14594 830.75452 668.1582 830.85547 L 668.14258 830.85547 C 668.19262 831.25817 668.26976 831.64973 668.3457 832.04297 C 668.37094 832.17539 668.38585 832.30967 668.41406 832.44141 C 668.53412 832.9959 668.67813 833.54144 668.84766 834.07422 C 668.84908 834.0787 668.85013 834.08341 668.85156 834.08789 C 668.95635 834.41897 669.0889 834.73995 669.21289 835.06445 C 669.29109 835.26746 669.36005 835.47464 669.44531 835.67383 C 669.59841 836.03435 669.77429 836.38402 669.95117 836.73438 C 670.02476 836.87899 670.0945 837.02574 670.17188 837.16797 C 670.24401 837.30169 670.3013 837.44222 670.37695 837.57422 C 671.08641 838.80007 671.93675 839.91388 672.88867 840.91602 C 673.60914 841.67449 674.38784 842.36625 675.22266 842.98242 C 675.25605 843.00718 675.29065 843.03016 675.32422 843.05469 C 675.67769 843.31179 676.04116 843.55494 676.41211 843.78516 C 676.50247 843.84152 676.59218 843.89835 676.68359 843.95312 C 677.08912 844.19486 677.50023 844.42585 677.92383 844.63477 C 677.92697 844.63631 677.93045 844.63712 677.93359 844.63867 C 677.99385 844.66851 678.05655 844.69348 678.11719 844.72266 C 678.12744 844.72756 678.13818 844.73144 678.14844 844.73633 C 680.6163 845.95508 683.33362 846.5974 686.0957 846.5918 L 686.09766 846.61328 L 742.41406 846.61328 L 742.41406 846.5918 C 748.77993 846.5958 754.66466 843.20754 757.85547 837.69922 C 762.77998 829.17059 759.85909 818.26362 751.33008 813.33984 C 750.35969 812.77959 749.34018 812.31828 748.28906 811.95312 C 748.23493 811.93335 748.18323 811.90803 748.12891 811.88867 C 747.97534 811.8339 747.81957 811.78503 747.66406 811.73438 C 747.30594 811.61778 746.94436 811.51196 746.57812 811.41797 C 746.45521 811.38644 746.33488 811.34928 746.21094 811.32031 C 745.74819 811.21205 745.27794 811.12598 744.80469 811.05469 C 744.64459 811.03062 744.48376 811.01003 744.32227 810.99023 C 743.91695 810.94046 743.5087 810.90671 743.09766 810.88477 C 745.38495 781.06905 753.43793 751.761 766.48828 724.85352 C 789.59196 733.71725 794.67119 725.52318 775.39062 709.43359 C 799.06702 717.75601 803.40507 708.37302 784.45508 694.14062 L 786.89258 690.27344 C 803.24388 667.09594 823.6477 646.80032 847.05078 630.77344 C 847.27945 631.12186 847.51475 631.46449 847.76367 631.79492 C 847.82924 631.88182 847.89596 631.96731 847.96289 632.05273 C 848.26659 632.4409 848.57987 632.81866 848.91211 633.17773 C 849.26528 633.55943 849.63663 633.92016 850.01953 634.26758 C 850.05828 634.30267 850.09769 634.33638 850.13672 634.37109 C 850.51276 634.70632 850.90114 635.02697 851.30273 635.32812 C 852.16624 635.97571 853.09105 636.53258 854.05469 637.01367 C 858.84742 639.49286 864.52071 639.67805 869.47852 637.47656 L 869.35938 637.27344 C 869.3985 637.25826 869.43804 637.2444 869.47656 637.22656 L 846.27344 597.64258 C 846.14884 597.43605 846.07474 597.23374 846.02734 597.03516 C 846.00845 596.67498 846.08447 596.31166 846.27148 595.98828 C 846.7868 595.09954 847.83651 594.85117 848.66992 595.21484 C 848.89834 595.36941 849.10925 595.58217 849.28125 595.87695 L 872.48438 635.46094 C 872.53255 635.42586 872.57871 635.38866 872.625 635.35156 L 872.75977 635.58203 C 874.77203 634.12299 876.45743 632.25997 877.70703 630.11133 C 880.88476 624.59399 880.87949 617.7995 877.69336 612.28711 L 877.70898 612.2793 L 849.55078 563.50781 L 849.53516 563.51562 C 847.97528 560.80325 845.73024 558.54979 843.02344 556.98047 C 842.3444 556.58848 841.64635 556.26435 840.94141 555.9707 C 840.75604 555.88893 840.57153 555.80543 840.38281 555.73047 C 840.19476 555.65622 840.00675 555.58345 839.81641 555.51562 C 839.41902 555.37324 839.01734 555.24307 838.60938 555.12891 C 838.47442 555.09134 838.33894 555.05784 838.20312 555.02344 C 837.80147 554.92117 837.39435 554.83407 836.98438 554.75977 C 836.84506 554.73463 836.70633 554.70934 836.56641 554.6875 C 836.12445 554.61823 835.6799 554.56527 835.23047 554.5293 C 835.16317 554.52393 835.09668 554.51437 835.0293 554.50977 C 835.02604 554.50954 835.02279 554.50803 835.01953 554.50781 C 834.62602 554.48104 834.22989 554.46737 833.83203 554.4668 C 833.7635 554.46679 833.69725 554.47579 833.62891 554.47656 C 833.27023 554.48023 832.91189 554.50576 832.55273 554.53125 C 832.3101 554.5485 832.06602 554.55907 831.82617 554.58594 C 831.52073 554.62029 831.21674 554.67414 830.91211 554.72461 C 830.62833 554.77145 830.34355 554.81297 830.06445 554.87305 C 829.81303 554.9274 829.56455 555.00078 829.31445 555.06641 C 828.98326 555.15304 828.65152 555.23689 828.32812 555.3418 C 828.14058 555.40283 827.95589 555.47731 827.76953 555.54492 C 827.39504 555.68051 827.0225 555.81904 826.66016 555.97852 C 826.49984 556.04915 826.34266 556.13128 826.18359 556.20703 C 825.80206 556.38874 825.42459 556.57577 825.05859 556.7832 C 825.01101 556.8101 824.9615 556.83004 824.91406 556.85742 C 824.78723 556.93084 824.67318 557.0177 824.54883 557.09375 C 824.22618 557.29119 823.90635 557.49203 823.59766 557.70898 C 823.41292 557.83858 823.23709 557.97578 823.05859 558.11133 C 822.78183 558.32182 822.50789 558.53379 822.24414 558.75977 C 822.06 558.91739 821.8855 559.08204 821.70898 559.24609 C 821.46681 559.47115 821.2274 559.69748 820.99805 559.93555 C 820.83118 560.10899 820.67264 560.28751 820.51367 560.4668 C 820.29077 560.71754 820.07194 560.97127 819.86328 561.23438 C 819.73483 561.39697 819.61452 561.56395 819.49219 561.73047 C 819.2646 562.03876 819.04369 562.3508 818.83594 562.67383 C 818.76127 562.79061 818.69097 562.90901 818.61914 563.02734 C 818.38813 563.4056 818.16777 563.78942 817.96484 564.18555 C 817.92978 564.25442 817.89939 564.32525 817.86523 564.39453 C 816.68264 566.7789 815.99988 569.45489 816 572.29688 C 816.00318 574.60323 816.46128 576.87866 817.32812 579.00391 C 817.55124 579.55092 817.79452 580.09059 818.07227 580.61523 C 816.38727 581.42386 814.69384 582.21293 812.99023 582.98047 C 812.98837 582.98131 812.98623 582.98158 812.98438 582.98242 C 806.16476 586.05473 799.19932 588.79827 792.12109 591.20703 C 792.11915 591.20769 792.11718 591.20832 792.11523 591.20898 C 790.34699 591.81063 788.57097 592.39128 786.78906 592.95117 C 786.78769 592.9516 786.78653 592.95271 786.78516 592.95312 C 786.07683 593.1757 785.36272 593.37976 784.65234 593.5957 C 781.06738 594.68552 777.45661 595.69056 773.82422 596.61133 C 771.59602 597.17611 769.36081 597.7101 767.11719 598.21094 C 755.49166 600.80631 743.67392 602.55459 731.78711 603.41211 C 727.91147 578.97187 718.2781 578.66986 713.98438 603.41211 C 709.3661 578.81304 699.11336 579.68105 696.23047 603.02344 L 688.375 602.7168 C 685.39088 602.40442 682.41177 602.04219 679.44141 601.61914 C 664.6251 599.50895 650.00772 596.02764 635.8457 591.20898 C 634.07624 590.60692 632.31339 589.98553 630.55859 589.3418 L 630.55664 589.33984 C 627.10034 588.07188 623.67491 586.72178 620.28125 585.29297 C 620.2282 585.27063 620.17413 585.25089 620.12109 585.22852 L 620.11914 585.22656 C 620.11646 585.22543 620.11401 585.22379 620.11133 585.22266 C 618.59377 584.58231 617.08596 583.92071 615.58203 583.24805 C 615.34377 583.14114 615.10314 583.03935 614.86523 582.93164 C 613.82956 582.46423 612.80229 581.97667 611.77344 581.49414 C 611.23757 581.24202 610.69802 580.99843 610.16406 580.74219 C 614.33788 572.81267 611.97921 563.01847 604.65234 557.85938 L 604.62695 557.9043 L 581.97266 597.74609 L 581.96484 597.75586 C 581.95589 597.77189 581.94472 597.78323 581.93555 597.79883 C 581.85583 597.93738 581.76495 598.06615 581.65625 598.17773 C 581.31607 598.52695 580.84715 598.73095 580.34766 598.74414 C 580.25991 598.74277 580.17276 598.73805 580.08594 598.72461 C 580.06726 598.72147 580.04784 598.72025 580.0293 598.7168 C 579.97214 598.70624 579.91747 598.6854 579.86133 598.66992 C 579.71095 598.62885 579.56555 598.57319 579.42773 598.5 C 579.1041 598.32666 578.82373 598.07277 578.63672 597.75977 C 578.42506 597.36972 578.34903 596.90782 578.45117 596.45117 C 578.45868 596.42043 578.46343 596.39038 578.47266 596.35938 C 578.50953 596.22647 578.56783 596.09568 578.63672 595.9668 C 578.65327 595.93543 578.66127 595.90455 578.67969 595.87305 L 601.3418 556.01367 C 600.84509 555.79311 600.33959 555.60447 599.83008 555.43164 C 599.707 555.38962 599.58483 555.34594 599.46094 555.30664 C 598.99958 555.16131 598.53503 555.03644 598.06641 554.92969 C 597.89364 554.88996 597.72075 554.85487 597.54688 554.82031 C 597.11046 554.73447 596.6724 554.66025 596.23242 554.60742 C 596.00134 554.57921 595.76937 554.56213 595.53711 554.54297 C 595.25409 554.5202 594.97094 554.50727 594.6875 554.49805 C 594.50101 554.49159 594.3158 554.46739 594.12891 554.4668 z "
     transform="scale(0.75)"
     id="path3082" />
  <g
     id="g909"
     transform="matrix(0,-0.94726363,0.94726363,0,-197.99378,137.21854)"
     style="stroke-linecap:butt;stroke-linejoin:round">
    <path
       sodipodi:nodetypes="cccccccccccccccscccccccccccccscccccccccccccccccccccccccccccscccccccccccccscccccccccccccc"
       inkscape:connector-curvature="0"
       id="path3011-3-6"
       d="m -236.68945,233.60449 c -0.20487,-7.5e-4 -0.40679,0.0139 -0.60498,0.0454 -12.68457,2.01854 -19.1748,71.52099 -19.1748,71.52099 l 14.6206,-1.37109 0.46582,3.83496 c -4.8429,0.5335 -9.74092,1.00728 -14.73779,1.39746 -9.99375,0.78034 -19.90771,1.19587 -29.82275,1.09278 -13.08899,0.0227 -3.01882,-18.15612 -23.89014,-19.21143 l -63.50538,-9.0747 c -9.86695,-1.11912 -22.39748,-2.31942 -28.71386,12.0205 -0.022,0.10598 -0.0439,0.2025 -0.0659,0.30762 -6.01579,7.3243 -12.20157,14.50924 -18.60645,21.53906 -3.41636,3.72112 -6.85654,7.40271 -10.37402,11.00391 l -2.77149,-2.69971 10.30811,-10.96729 c 0,0 -59.89367,-37.05856 -68.96924,-27.96972 -9.07556,9.08883 26.52393,69.13183 26.52393,69.13183 l 11.02295,-9.70312 2.63086,2.82861 c -3.60441,3.2782 -7.28885,6.54119 -11.10206,9.79395 -7.62643,6.50549 -15.40233,12.66856 -23.48437,18.41308 -10.57586,7.71188 -13.11408,-12.91409 -30.61963,-1.5 l -56.71142,29.98535 c -8.64035,4.89427 -19.48328,11.28912 -16.16456,26.60303 0.0448,0.0996 0.0846,0.19118 0.12891,0.29004 -0.56173,9.46046 -1.34403,18.90845 -2.39355,28.35938 -0.57667,5.01852 -1.19583,10.01904 -1.9248,15 l -3.82911,-0.55518 1.89405,-14.93115 c 0,0 -70.23878,5.22313 -72.23877,17.91064 -2.00001,12.6875 62.09472,40.33887 62.09472,40.33887 l 3.21387,-14.3291 3.79101,0.74121 c -0.98915,4.77073 -2.05255,9.57634 -3.22558,14.44921 -2.34608,9.74577 -5.01332,19.30277 -8.17529,28.70069 -4.02312,12.45536 -18.20052,-2.73951 -25.65381,16.78418 l -28.25538,57.59326 c -4.11333,9.03821 -9.12705,20.58395 2.55909,31.02246 h 36.90087 c -24.59254,13.0843 -8.04108,33.98271 8.42433,34.02647 l 29.625,0.29883 c 23.69325,-0.31409 37.49816,-22.54073 14.72607,-34.3253 h 9.32373 46.56299 c -24.59255,13.08431 -8.04109,23.9064 8.42432,23.9502 l 29.625,0.29883 c 23.69326,-0.3141 37.49816,-12.46453 14.72607,-24.24903 h 19.86181 c 0.06,-34.80468 11.31541,-66.97356 30.34278,-93.12012 20.5062,-28.1223 48.51971,-47.53196 79.28173,-57.50097 33.11975,-10.69817 67.19282,-9.93434 97.93945,0.082 33.08268,10.81229 60.19944,31.45844 79.18652,57.63428 20.40913,28.19283 30.21094,60.83291 30.18604,93.16992 6.6896,44.98145 90.989964,46.03011 95.838979,-0.13257 16.17898,73.02287 99.65057,65.03867 122.18836,0.13257 -5.14275,-8.03542 -10.097108,-16.1919 -14.834468,-24.50977 -2.483285,-4.39903 -4.921789,-8.80894 -7.259768,-13.26709 l 3.424804,-1.80029 7.243654,13.19238 c 0,0 53.754539,-45.51167 47.915039,-56.95166 -5.83949,-11.43997 -73.946778,3.86426 -73.946779,3.86426 l 5.822754,13.48096 -3.502442,1.6289 c -2.003925,-4.44101 -3.967605,-8.95323 -5.882812,-13.58496 -3.830387,-9.26348 -7.290965,-18.56375 -10.256836,-28.02539 -4.066309,-12.44133 16.335586,-8.48083 10.889648,-28.65674 l -10.993664,-63.2021 c -1.984716,-9.72987 -4.715728,-22.01829 -20.305664,-23.59424 -0.108305,0.0119 -0.207453,0.0207 -0.314941,0.0322 -8.8238451,-3.4577 -17.5683817,-7.12042 -26.2324219,-11.03907 -4.5947041,-2.09926 -9.1594871,-4.23333 -13.6713861,-6.46582 l 1.712402,-3.47021 13.6142577,6.41455 c 0,0 16.7380563,-68.41551 5.28955072,-74.23828 C -12.024179,336.25047 -58.129393,388.66406 -58.129393,388.66406 l 12.635741,7.48388 -1.876464,3.37647 c -4.231569,-2.41498 -8.473707,-4.91081 -12.745606,-7.53223 -8.543786,-5.24287 -16.809654,-10.73222 -24.770507,-16.64355 -10.602547,-7.67514 8.23029,-16.46383 -8.034667,-29.58545 l -46.042974,-44.66895 c -7.32474,-6.70503 -16.75558,-15.04138 -30.29443,-7.15282 -0.08,0.0727 -0.15481,0.13746 -0.23437,0.20946 -9.17214,2.38955 -18.39955,4.56668 -27.71338,6.48926 -4.9511,1.00237 -9.89841,1.95781 -14.86084,2.80371 l -0.65479,-3.81299 14.78467,-2.8125 c 0,0 -25.84555,-63.16532 -38.75244,-63.21386 z"
       style="color:#000000;font-style:normal;font-variant:normal;font-weight:normal;font-stretch:normal;font-size:medium;line-height:normal;font-family:sans-serif;font-variant-ligatures:normal;font-variant-position:normal;font-variant-caps:normal;font-variant-numeric:normal;font-variant-alternates:normal;font-feature-settings:normal;text-indent:0;text-align:start;text-decoration:none;text-decoration-line:none;text-decoration-style:solid;text-decoration-color:#000000;letter-spacing:normal;word-spacing:normal;text-transform:none;writing-mode:lr-tb;direction:ltr;text-orientation:mixed;dominant-baseline:auto;baseline-shift:baseline;text-anchor:start;white-space:normal;shape-padding:0;clip-rule:nonzero;display:inline;overflow:visible;visibility:visible;opacity:1;isolation:auto;mix-blend-mode:normal;color-interpolation:sRGB;color-interpolation-filters:linearRGB;solid-color:#000000;solid-opacity:1;vector-effect:none;fill:#00e500;fill-opacity:1;fill-rule:nonzero;stroke:#000000;stroke-width:0.75;stroke-linecap:round;stroke-linejoin:miter;stroke-miterlimit:4;stroke-dasharray:none;stroke-dashoffset:0;stroke-opacity:1;color-rendering:auto;image-rendering:auto;shape-rendering:auto;text-rendering:auto;enable-background:accumulate" />
    <path
       inkscape:connector-curvature="0"
       id="path840"
       d="m -623.60742,570.91601 a 1.8751875,1.8751875 0 0 0 -1.85547,1.69726 c 0,0 -0.26565,2.41673 -0.77734,5.38672 -0.5117,2.96999 -1.31691,6.52932 -2.16211,8.41797 -1.99627,4.46078 -4.11285,8.93871 -6.30664,13.40625 -2.19328,4.46648 -4.46645,8.91574 -6.81836,13.3125 -1.00409,1.87709 -3.37962,4.80285 -5.46094,7.125 -2.08133,2.32215 -3.86914,4.10156 -3.86914,4.10156 a 1.8751875,1.8751875 0 1 0 2.64258,2.66016 c 0,0 1.86015,-1.84859 4.01953,-4.25782 2.15937,-2.40922 4.61566,-5.31888 5.97461,-7.85937 2.37418,-4.4384 4.66806,-8.92743 6.8789,-13.42969 2.21033,-4.50122 4.34376,-9.01896 6.36133,-13.52734 1.16172,-2.59593 1.90287,-6.22071 2.43555,-9.3125 0.53268,-3.09179 0.81054,-5.61328 0.81054,-5.61328 a 1.8751875,1.8751875 0 0 0 -1.87304,-2.10742 z"
       style="color:#000000;font-style:normal;font-variant:normal;font-weight:normal;font-stretch:normal;font-size:medium;line-height:normal;font-family:sans-serif;font-variant-ligatures:normal;font-variant-position:normal;font-variant-caps:normal;font-variant-numeric:normal;font-variant-alternates:normal;font-feature-settings:normal;text-indent:0;text-align:start;text-decoration:none;text-decoration-line:none;text-decoration-style:solid;text-decoration-color:#000000;letter-spacing:normal;word-spacing:normal;text-transform:none;writing-mode:lr-tb;direction:ltr;text-orientation:mixed;dominant-baseline:auto;baseline-shift:baseline;text-anchor:start;white-space:normal;shape-padding:0;clip-rule:nonzero;display:inline;overflow:visible;visibility:visible;opacity:1;isolation:auto;mix-blend-mode:normal;color-interpolation:sRGB;color-interpolation-filters:linearRGB;solid-color:#000000;solid-opacity:1;vector-effect:none;fill:none;fill-opacity:1;fill-rule:nonzero;stroke:#000000;stroke-width:0.75;stroke-linecap:round;stroke-linejoin:miter;stroke-miterlimit:4;stroke-dasharray:none;stroke-dashoffset:0;stroke-opacity:1;color-rendering:auto;image-rendering:auto;shape-rendering:auto;text-rendering:auto;enable-background:accumulate" />
    <path
       inkscape:connector-curvature="0"
       id="path914"
       d="m 30.906738,638.15917 v 12.89209 H 2.0507812 v 3 H 30.906738 v 12.05567 h 6.408691 v -12.05567 h 17.509277 v -3 H 37.315429 v -12.89209 z"
       style="color:#000000;font-style:normal;font-variant:normal;font-weight:normal;font-stretch:normal;font-size:medium;line-height:normal;font-family:sans-serif;font-variant-ligatures:normal;font-variant-position:normal;font-variant-caps:normal;font-variant-numeric:normal;font-variant-alternates:normal;font-feature-settings:normal;text-indent:0;text-align:start;text-decoration:none;text-decoration-line:none;text-decoration-style:solid;text-decoration-color:#000000;letter-spacing:normal;word-spacing:normal;text-transform:none;writing-mode:lr-tb;direction:ltr;text-orientation:mixed;dominant-baseline:auto;baseline-shift:baseline;text-anchor:start;white-space:normal;shape-padding:0;clip-rule:nonzero;display:inline;overflow:visible;visibility:visible;opacity:1;isolation:auto;mix-blend-mode:normal;color-interpolation:sRGB;color-interpolation-filters:linearRGB;solid-color:#000000;solid-opacity:1;vector-effect:none;fill:none;fill-opacity:1;fill-rule:nonzero;stroke:#000000;stroke-width:0.75;stroke-linecap:butt;stroke-linejoin:miter;stroke-miterlimit:4;stroke-dasharray:none;stroke-dashoffset:0;stroke-opacity:1;color-rendering:auto;image-rendering:auto;shape-rendering:auto;text-rendering:auto;enable-background:accumulate" />
    <path
       sodipodi:nodetypes="ccccccccccccccccccccccccccc"
       inkscape:connector-curvature="0"
       id="path943"
       d="m -285.36181,459.84668 c -10.02756,0.0788 -20.03363,0.94126 -29.92676,2.57958 l 0.89795,5.69532 c 9.59629,-1.58909 19.30213,-2.42562 29.02881,-2.50196 9.82098,0.0351 19.62388,0.84521 29.31738,2.42285 l 0.90674,-5.69824 c -9.99331,-1.62635 -20.0994,-2.46146 -30.22412,-2.49755 z m 87.48046,21.04687 -2.625,5.1416 c 17.42223,8.93502 33.33013,20.55563 47.14014,34.43555 l 4.08252,-4.07666 c -14.237,-14.30913 -30.63675,-26.28912 -48.59766,-35.50049 z m -174.62548,0.041 c -17.99319,9.12637 -34.43921,21.02564 -48.73535,35.26172 l 4.07519,4.08252 c 13.86728,-13.8091 29.81997,-25.35146 47.27344,-34.2041 z m -84.23731,83.85937 c -9.14799,17.99437 -15.40764,37.31611 -18.54931,57.25635 l 5.69677,0.90674 c 3.04743,-19.34183 9.11924,-38.08372 17.99268,-55.53809 z m 342.72217,0.33545 -5.14161,2.61475 c 8.85611,17.44527 14.91445,36.17442 17.95313,55.50146 l 5.696781,-0.89794 c -3.132607,-19.92488 -9.378301,-39.23337 -18.508301,-57.21827 z"
       style="fill:none;fill-opacity:1;stroke:#000000;stroke-width:0.76275855;stroke-linecap:round;stroke-linejoin:round;stroke-miterlimit:4;stroke-dasharray:none;stroke-opacity:1" />
    <path
       inkscape:connector-curvature="0"
       id="path1036"
       d="m -105.78215,650.63301 v 3 h 52.77539 v -3 z"
       style="color:#000000;font-style:normal;font-variant:normal;font-weight:normal;font-stretch:normal;font-size:medium;line-height:normal;font-family:sans-serif;font-variant-ligatures:normal;font-variant-position:normal;font-variant-caps:normal;font-variant-numeric:normal;font-variant-alternates:normal;font-feature-settings:normal;text-indent:0;text-align:start;text-decoration:none;text-decoration-line:none;text-decoration-style:solid;text-decoration-color:#000000;letter-spacing:normal;word-spacing:normal;text-transform:none;writing-mode:lr-tb;direction:ltr;text-orientation:mixed;dominant-baseline:auto;baseline-shift:baseline;text-anchor:start;white-space:normal;shape-padding:0;clip-rule:nonzero;display:inline;overflow:visible;visibility:visible;opacity:1;isolation:auto;mix-blend-mode:normal;color-interpolation:sRGB;color-interpolation-filters:linearRGB;solid-color:#000000;solid-opacity:1;vector-effect:none;fill:none;fill-opacity:1;fill-rule:nonzero;stroke:#000000;stroke-width:0.75;stroke-linecap:butt;stroke-linejoin:miter;stroke-miterlimit:4;stroke-dasharray:none;stroke-dashoffset:0;stroke-opacity:1;color-rendering:auto;image-rendering:auto;shape-rendering:auto;text-rendering:auto;enable-background:accumulate" />
    <path
       id="path840-6"
       d="m -511.3503,387.85829 a 1.8751875,1.8751875 0 0 0 -2.49873,0.28249 c 0,0 -1.63543,1.79903 -3.79511,3.90104 -2.15969,2.102 -4.90324,4.50827 -6.69715,5.53942 -4.23699,2.43547 -8.5814,4.8141 -12.9822,7.13891 -4.39967,2.32433 -8.85394,4.5877 -13.34102,6.76235 -1.91566,0.9284 -5.55719,1.8991 -8.60601,2.55435 -3.04873,0.6553 -5.541,1.04403 -5.541,1.04403 a 1.8751875,1.8751875 0 1 0 0.5743,3.70539 c 0,0 2.59143,-0.4022 5.75453,-1.08204 3.1631,-0.67984 6.86054,-1.59002 9.45318,-2.84658 4.52959,-2.19522 9.02398,-4.47861 13.45893,-6.82152 4.43395,-2.34237 8.81539,-4.7433 13.0976,-7.20475 2.4657,-1.41731 5.19589,-3.91419 7.44415,-6.1024 2.24826,-2.1882 3.95514,-4.06481 3.95514,-4.06481 a 1.8751875,1.8751875 0 0 0 -0.27661,-2.80588 z"
       style="color:#000000;font-style:normal;font-variant:normal;font-weight:normal;font-stretch:normal;font-size:medium;line-height:normal;font-family:sans-serif;font-variant-ligatures:normal;font-variant-position:normal;font-variant-caps:normal;font-variant-numeric:normal;font-variant-alternates:normal;font-feature-settings:normal;text-indent:0;text-align:start;text-decoration:none;text-decoration-line:none;text-decoration-style:solid;text-decoration-color:#000000;letter-spacing:normal;word-spacing:normal;text-transform:none;writing-mode:lr-tb;direction:ltr;text-orientation:mixed;dominant-baseline:auto;baseline-shift:baseline;text-anchor:start;white-space:normal;shape-padding:0;clip-rule:nonzero;display:inline;overflow:visible;visibility:visible;opacity:1;isolation:auto;mix-blend-mode:normal;color-interpolation:sRGB;color-interpolation-filters:linearRGB;solid-color:#000000;solid-opacity:1;vector-effect:none;fill:none;fill-opacity:1;fill-rule:nonzero;stroke:#000000;stroke-width:0.75;stroke-linecap:round;stroke-linejoin:miter;stroke-miterlimit:4;stroke-dasharray:none;stroke-dashoffset:0;stroke-opacity:1;color-rendering:auto;image-rendering:auto;shape-rendering:auto;text-rendering:auto;enable-background:accumulate"
       inkscape:connector-curvature="0" />
    <path
       id="path840-6-3"
       d="m -312.93371,305.74456 a 1.8751875,1.8751875 0 0 0 -2.18756,-1.24017 c 0,0 -2.38054,0.49416 -5.36329,0.92529 -2.98275,0.43112 -6.6167,0.76521 -8.6741,0.54501 -4.85933,-0.52011 -9.77215,-1.14934 -14.69897,-1.85525 -4.92561,-0.70564 -9.85956,-1.49269 -14.76791,-2.3708 -2.0955,-0.37491 -5.61213,-1.73003 -8.46382,-2.99198 -2.85165,-1.26185 -5.09643,-2.41228 -5.09643,-2.41228 a 1.8751875,1.8751875 0 1 0 -1.71336,3.3353 c 0,0 2.33292,1.19781 5.29153,2.50703 2.95859,1.30922 6.48488,2.74617 9.32095,3.2535 4.95484,0.88646 9.93302,1.6809 14.8981,2.39224 4.96395,0.7112 9.91984,1.34415 14.83103,1.86981 2.82786,0.30267 6.50426,-0.11257 9.60934,-0.56137 3.10507,-0.44881 5.58901,-0.96373 5.58901,-0.96373 a 1.8751875,1.8751875 0 0 0 1.42548,-2.4326 z"
       style="color:#000000;font-style:normal;font-variant:normal;font-weight:normal;font-stretch:normal;font-size:medium;line-height:normal;font-family:sans-serif;font-variant-ligatures:normal;font-variant-position:normal;font-variant-caps:normal;font-variant-numeric:normal;font-variant-alternates:normal;font-feature-settings:normal;text-indent:0;text-align:start;text-decoration:none;text-decoration-line:none;text-decoration-style:solid;text-decoration-color:#000000;letter-spacing:normal;word-spacing:normal;text-transform:none;writing-mode:lr-tb;direction:ltr;text-orientation:mixed;dominant-baseline:auto;baseline-shift:baseline;text-anchor:start;white-space:normal;shape-padding:0;clip-rule:nonzero;display:inline;overflow:visible;visibility:visible;opacity:1;isolation:auto;mix-blend-mode:normal;color-interpolation:sRGB;color-interpolation-filters:linearRGB;solid-color:#000000;solid-opacity:1;vector-effect:none;fill:none;fill-opacity:1;fill-rule:nonzero;stroke:#000000;stroke-width:0.75;stroke-linecap:round;stroke-linejoin:miter;stroke-miterlimit:4;stroke-dasharray:none;stroke-dashoffset:0;stroke-opacity:1;color-rendering:auto;image-rendering:auto;shape-rendering:auto;text-rendering:auto;enable-background:accumulate"
       inkscape:connector-curvature="0" />
    <path
       id="path840-6-3-2"
       d="m -104.14609,355.9395 a 1.8751875,1.8751875 0 0 0 -1.04082,-2.28914 c 0,0 -2.21635,-0.99946 -4.88286,-2.40388 -2.66651,-1.40444 -5.80281,-3.27013 -7.33784,-4.65759 -3.62557,-3.27702 -7.23028,-6.67376 -10.80123,-10.14077 -3.57014,-3.46607 -7.09918,-7.00291 -10.55397,-10.59837 -1.47493,-1.53501 -3.52343,-4.69836 -5.08873,-7.39547 -1.56534,-2.69702 -2.7052,-4.94718 -2.7052,-4.94718 a 1.8751875,1.8751875 0 1 0 -3.34657,1.69122 c 0,0 1.18331,2.34031 2.80733,5.13851 1.62401,2.7982 3.63223,6.03342 5.62845,8.11086 3.4875,3.62954 7.04797,7.19836 10.64669,10.69225 3.59789,3.4931 7.23525,6.91817 10.89951,10.23016 2.10989,1.90705 5.32823,3.73204 8.10409,5.19407 2.77586,1.46202 5.08807,2.50547 5.08807,2.50547 a 1.8751875,1.8751875 0 0 0 2.58308,-1.13014 z"
       style="color:#000000;font-style:normal;font-variant:normal;font-weight:normal;font-stretch:normal;font-size:medium;line-height:normal;font-family:sans-serif;font-variant-ligatures:normal;font-variant-position:normal;font-variant-caps:normal;font-variant-numeric:normal;font-variant-alternates:normal;font-feature-settings:normal;text-indent:0;text-align:start;text-decoration:none;text-decoration-line:none;text-decoration-style:solid;text-decoration-color:#000000;letter-spacing:normal;word-spacing:normal;text-transform:none;writing-mode:lr-tb;direction:ltr;text-orientation:mixed;dominant-baseline:auto;baseline-shift:baseline;text-anchor:start;white-space:normal;shape-padding:0;clip-rule:nonzero;display:inline;overflow:visible;visibility:visible;opacity:1;isolation:auto;mix-blend-mode:normal;color-interpolation:sRGB;color-interpolation-filters:linearRGB;solid-color:#000000;solid-opacity:1;vector-effect:none;fill:none;fill-opacity:1;fill-rule:nonzero;stroke:#000000;stroke-width:0.75;stroke-linecap:round;stroke-linejoin:miter;stroke-miterlimit:4;stroke-dasharray:none;stroke-dashoffset:0;stroke-opacity:1;color-rendering:auto;image-rendering:auto;shape-rendering:auto;text-rendering:auto;enable-background:accumulate"
       inkscape:connector-curvature="0" />
    <path
       id="path840-6-3-2-2"
       d="m 35.262804,519.27034 a 1.8751875,1.8751875 0 0 0 0.503482,-2.46373 c 0,0 -1.205603,-2.11132 -2.537353,-4.81485 -1.331743,-2.70355 -2.772436,-6.0564 -3.198775,-8.08114 -1.006965,-4.78223 -1.926677,-9.64904 -2.777785,-14.55286 -0.850995,-4.90259 -1.627147,-9.83827 -2.308771,-14.77773 -0.290991,-2.1088 -0.08889,-5.87207 0.230072,-8.97414 0.318882,-3.10202 0.719331,-5.59243 0.719331,-5.59243 a 1.8751875,1.8751875 0 1 0 -3.701511,-0.59884 c 0,0 -0.418278,2.58888 -0.74916,5.80726 -0.330887,3.21836 -0.60782,7.0161 -0.213931,9.87014 0.688058,4.98626 1.47084,9.96628 2.328611,14.90817 0.857556,4.94076 1.787036,9.84969 2.804747,14.68295 0.585998,2.78299 2.116987,6.15113 3.503348,8.96555 1.386362,2.81441 2.643663,5.01766 2.643663,5.01766 a 1.8751875,1.8751875 0 0 0 2.754032,0.60399 z"
       style="color:#000000;font-style:normal;font-variant:normal;font-weight:normal;font-stretch:normal;font-size:medium;line-height:normal;font-family:sans-serif;font-variant-ligatures:normal;font-variant-position:normal;font-variant-caps:normal;font-variant-numeric:normal;font-variant-alternates:normal;font-feature-settings:normal;text-indent:0;text-align:start;text-decoration:none;text-decoration-line:none;text-decoration-style:solid;text-decoration-color:#000000;letter-spacing:normal;word-spacing:normal;text-transform:none;writing-mode:lr-tb;direction:ltr;text-orientation:mixed;dominant-baseline:auto;baseline-shift:baseline;text-anchor:start;white-space:normal;shape-padding:0;clip-rule:nonzero;display:inline;overflow:visible;visibility:visible;opacity:1;isolation:auto;mix-blend-mode:normal;color-interpolation:sRGB;color-interpolation-filters:linearRGB;solid-color:#000000;solid-opacity:1;vector-effect:none;fill:none;fill-opacity:1;fill-rule:nonzero;stroke:#000000;stroke-width:0.75;stroke-linecap:round;stroke-linejoin:miter;stroke-miterlimit:4;stroke-dasharray:none;stroke-dashoffset:0;stroke-opacity:1;color-rendering:auto;image-rendering:auto;shape-rendering:auto;text-rendering:auto;enable-background:accumulate"
       inkscape:connector-curvature="0" />
    <rect
       inkscape:transform-center-x="319.89306"
       y="638.15942"
       x="-608.87927"
       height="27.947132"
       width="6.4079795"
       id="rect2903"
       style="fill:none;fill-opacity:0.54128436;stroke:#000019;stroke-width:0.75;stroke-linecap:round;stroke-linejoin:round;stroke-miterlimit:4;stroke-dasharray:none;stroke-opacity:1" />
    <rect
       inkscape:transform-center-y="-98.852381"
       transform="rotate(18)"
       style="fill:none;fill-opacity:0.54128436;stroke:#000019;stroke-width:0.75;stroke-linecap:round;stroke-linejoin:round;stroke-miterlimit:4;stroke-dasharray:none;stroke-opacity:1"
       id="rect2920"
       width="6.4079795"
       height="27.947132"
       x="-393.37192"
       y="694.55334"
       inkscape:transform-center-x="304.23639" />
    <rect
       inkscape:transform-center-x="258.79893"
       y="681.59174"
       x="-170.98555"
       height="27.947132"
       width="6.4079795"
       id="rect2922"
       style="fill:none;fill-opacity:0.54128436;stroke:#000019;stroke-width:0.75;stroke-linecap:round;stroke-linejoin:round;stroke-miterlimit:4;stroke-dasharray:none;stroke-opacity:1"
       transform="rotate(36)"
       inkscape:transform-center-y="-188.02842" />
    <rect
       inkscape:transform-center-y="-258.79891"
       transform="rotate(54)"
       style="fill:none;fill-opacity:0.54128436;stroke:#000019;stroke-width:0.75;stroke-linecap:round;stroke-linejoin:round;stroke-miterlimit:4;stroke-dasharray:none;stroke-opacity:1"
       id="rect2924"
       width="6.4079795"
       height="27.947132"
       x="36.511082"
       y="600.54327"
       inkscape:transform-center-x="188.02843" />
    <rect
       inkscape:transform-center-x="98.85241"
       y="459.34167"
       x="208.80675"
       height="27.947132"
       width="6.4079795"
       id="rect2926"
       style="fill:none;fill-opacity:0.54128436;stroke:#000019;stroke-width:0.75;stroke-linecap:round;stroke-linejoin:round;stroke-miterlimit:4;stroke-dasharray:none;stroke-opacity:1"
       transform="rotate(72)"
       inkscape:transform-center-y="-304.23637" />
    <rect
       inkscape:transform-center-y="-319.89306"
       transform="rotate(90)"
       style="fill:none;fill-opacity:0.54128436;stroke:#000019;stroke-width:0.75;stroke-linecap:round;stroke-linejoin:round;stroke-miterlimit:4;stroke-dasharray:none;stroke-opacity:1"
       id="rect2928"
       width="6.4079795"
       height="27.947132"
       x="329.03598"
       y="271.80869"
       inkscape:transform-center-x="3.3169522e-05" />
    <rect
       inkscape:transform-center-x="-98.852357"
       y="56.301327"
       x="385.42987"
       height="27.947132"
       width="6.4079795"
       id="rect2930"
       style="fill:none;fill-opacity:0.54128436;stroke:#000019;stroke-width:0.75;stroke-linecap:round;stroke-linejoin:round;stroke-miterlimit:4;stroke-dasharray:none;stroke-opacity:1"
       transform="rotate(108)"
       inkscape:transform-center-y="-304.23639" />
    <rect
       inkscape:transform-center-y="-258.79894"
       transform="rotate(126)"
       style="fill:none;fill-opacity:0.54128436;stroke:#000019;stroke-width:0.75;stroke-linecap:round;stroke-linejoin:round;stroke-miterlimit:4;stroke-dasharray:none;stroke-opacity:1"
       id="rect2932"
       width="6.4079795"
       height="27.947132"
       x="372.46823"
       y="-166.08504"
       inkscape:transform-center-x="-188.02839" />
    <rect
       inkscape:transform-center-x="-258.7989"
       y="-373.58167"
       x="291.4198"
       height="27.947132"
       width="6.4079795"
       id="rect2934"
       style="fill:none;fill-opacity:0.54128436;stroke:#000019;stroke-width:0.75;stroke-linecap:round;stroke-linejoin:round;stroke-miterlimit:4;stroke-dasharray:none;stroke-opacity:1"
       transform="rotate(144)"
       inkscape:transform-center-y="-188.02845" />
    <rect
       inkscape:transform-center-y="-98.852426"
       transform="rotate(162)"
       style="fill:none;fill-opacity:0.54128436;stroke:#000019;stroke-width:0.75;stroke-linecap:round;stroke-linejoin:round;stroke-miterlimit:4;stroke-dasharray:none;stroke-opacity:1"
       id="rect2936"
       width="6.4079795"
       height="27.947132"
       x="150.21819"
       y="-545.87732"
       inkscape:transform-center-x="-304.23637" />
    <path
       sodipodi:open="true"
       d="m -539.46375,669.96146 a 254.30724,254.30724 0 0 1 126.75394,-238.19534 254.30724,254.30724 0 0 1 269.64047,9.87887 254.30724,254.30724 0 0 1 108.983909,246.8321"
       sodipodi:end="0.14340514"
       sodipodi:start="3.0714291"
       sodipodi:ry="254.30724"
       sodipodi:rx="254.30724"
       sodipodi:cy="652.133"
       sodipodi:cx="-285.78223"
       sodipodi:type="arc"
       id="path862"
       style="fill:none;fill-opacity:0.54128436;stroke:#ff0000;stroke-width:0.75037831;stroke-linecap:round;stroke-linejoin:round;stroke-miterlimit:4;stroke-dasharray:none;stroke-opacity:1" />
  </g>
</svg>
