  0
SECTION
  2
HEADER
  9
$ACADVER
  1
AC1014
  9
$HANDSEED
  5
FFFF
  9
$MEASUREMENT
 70
     1
  0
ENDSEC
  0
SECTION
  2
TABLES
  0
TABLE
  2
VPORT
  5
8
330
0
100
AcDbSymbolTable
 70
     4
  0
VPORT
  5
2E
330
8
100
AcDbSymbolTableRecord
100
AcDbViewportTableRecord
  2
*ACTIVE
 70
     0
 10
0.0
 20
0.0
 11
1.0
 21
1.0
 12
210.0
 22
148.5
 13
0.0
 23
0.0
 14
10.0
 24
10.0
 15
10.0
 25
10.0
 16
0.0
 26
0.0
 36
1.0
 17
0.0
 27
0.0
 37
0.0
 40
341.0
 41
1.24
 42
50.0
 43
0.0
 44
0.0
 50
0.0
 51
0.0
 71
     0
 72
   100
 73
     1
 74
     3
 75
     0
 76
     0
 77
     0
 78
     0
  0
ENDTAB
  0
TABLE
  2
LTYPE
  5
5
330
0
100
AcDbSymbolTable
 70
     1
  0
LTYPE
  5
14
330
5
100
AcDbSymbolTableRecord
100
AcDbLinetypeTableRecord
  2
BYBLOCK
 70
     0
  3

 72
    65
 73
     0
 40
0.0
  0
LTYPE
  5
15
330
5
100
AcDbSymbolTableRecord
100
AcDbLinetypeTableRecord
  2
BYLAYER
 70
     0
  3

 72
    65
 73
     0
 40
0.0
  0
LTYPE
  5
16
330
5
100
AcDbSymbolTableRecord
100
AcDbLinetypeTableRecord
  2
CONTINUOUS
 70
     0
  3
Solid line
 72
    65
 73
     0
 40
0.0
  0
ENDTAB
  0
TABLE
  2
LAYER
  5
2
100
AcDbSymbolTable
 70
1
  0
LAYER
  5
50
100
AcDbSymbolTableRecord
100
AcDbLayerTableRecord
  2
0
 70
0
  6
CONTINUOUS
  0
ENDTAB
  0
TABLE
  2
STYLE
  5
3
330
0
100
AcDbSymbolTable
 70
     1
  0
STYLE
  5
11
330
3
100
AcDbSymbolTableRecord
100
AcDbTextStyleTableRecord
  2
STANDARD
 70
     0
 40
0.0
 41
1.0
 50
0.0
 71
     0
 42
2.5
  3
txt
  4

  0
ENDTAB
  0
TABLE
  2
VIEW
  5
6
330
0
100
AcDbSymbolTable
 70
     0
  0
ENDTAB
  0
TABLE
  2
UCS
  5
7
330
0
100
AcDbSymbolTable
 70
     0
  0
ENDTAB
  0
TABLE
  2
APPID
  5
9
330
0
100
AcDbSymbolTable
 70
     2
  0
APPID
  5
12
330
9
100
AcDbSymbolTableRecord
100
AcDbRegAppTableRecord
  2
ACAD
 70
     0
  0
ENDTAB
  0
TABLE
  2
DIMSTYLE
  5
A
330
0
100
AcDbSymbolTable
 70
     1
  0
DIMSTYLE
105
27
330
A
100
AcDbSymbolTableRecord
100
AcDbDimStyleTableRecord
  2
ISO-25
 70
     0
  3

  4

  5

  6

  7

 40
1.0
 41
2.5
 42
0.625
 43
3.75
 44
1.25
 45
0.0
 46
0.0
 47
0.0
 48
0.0
140
2.5
141
2.5
142
0.0
143
0.03937007874016
144
1.0
145
0.0
146
1.0
147
0.625
 71
     0
 72
     0
 73
     0
 74
     0
 75
     0
 76
     0
 77
     1
 78
     8
170
     0
171
     3
172
     1
173
     0
174
     0
175
     0
176
     0
177
     0
178
     0
270
     2
271
     2
272
     2
273
     2
274
     3
340
11
275
     0
280
     0
281
     0
282
     0
283
     0
284
     8
285
     0
286
     0
287
     3
288
     0
  0
ENDTAB
  0
TABLE
  2
BLOCK_RECORD
  5
1
330
0
100
AcDbSymbolTable
 70
     1
  0
BLOCK_RECORD
  5
1F
330
1
100
AcDbSymbolTableRecord
100
AcDbBlockTableRecord
  2
*MODEL_SPACE
  0
BLOCK_RECORD
  5
1B
330
1
100
AcDbSymbolTableRecord
100
AcDbBlockTableRecord
  2
*PAPER_SPACE
  0
ENDTAB
  0
ENDSEC
  0
SECTION
  2
BLOCKS
  0
BLOCK
  5
20
330
1F
100
AcDbEntity
  8
0
100
AcDbBlockBegin
  2
*MODEL_SPACE
 70
     0
 10
0.0
 20
0.0
 30
0.0
  3
*MODEL_SPACE
  1

  0
ENDBLK
  5
21
330
1F
100
AcDbEntity
  8
0
100
AcDbBlockEnd
  0
BLOCK
  5
1C
330
1B
100
AcDbEntity
 67
     1
  8
0
100
AcDbBlockBegin
  2
*PAPER_SPACE
  1

  0
ENDBLK
  5
1D
330
1B
100
AcDbEntity
 67
     1
  8
0
100
AcDbBlockEnd
  0
ENDSEC
  0
SECTION
  2
ENTITIES
  0
LINE
  5
100
100
AcDbEntity
  8
0
 62
7
100
AcDbLine
 10
-256.469232
 20
486.829131
 30
0.0
 11
-241.848627
 21
488.200225
 31
0.0
  0
LINE
  5
101
100
AcDbEntity
  8
0
 62
7
100
AcDbLine
 10
-241.848627
 20
488.200225
 30
0.0
 11
-241.382809
 21
484.365263
 31
0.0
  0
SPLINE
  5
102
100
AcDbEntity
  8
0
 62
7
100
AcDbSpline
 70
0
 71
3
 72
13
 73
9
 74
7
 40
0.000000
 40
0.000000
 40
0.000000
 40
0.000000
 40
0.203905
 40
0.406179
 40
0.607265
 40
22.753275
 40
57.340576
 40
75.562070
 40
75.562070
 40
75.562070
 40
75.562070
 10
-236.689452
 20
558.395503
 30
0.0
 10
-236.757435
 20
558.394748
 30
0.0
 10
-236.892857
 20
558.393245
 30
0.0
 10
-237.094775
 20
558.378146
 30
0.0
 10
-244.560285
 20
557.360010
 30
0.0
 10
-248.961426
 20
531.930396
 30
0.0
 10
-253.919506
 20
510.792354
 30
0.0
 10
-255.815147
 20
492.976448
 30
0.0
 10
-256.469232
 20
486.829131
 30
0.0
 11
-236.689452
 21
558.395503
 31
0.0
 11
-236.893309
 21
558.391073
 31
0.0
 11
-237.095025
 21
558.376059
 31
0.0
 11
-237.294432
 21
558.350128
 31
0.0
 11
-247.903263
 21
538.910517
 31
0.0
 11
-254.316780
 21
504.923047
 31
0.0
 11
-256.469232
 21
486.829131
 31
0.0
  0
SPLINE
  5
103
100
AcDbEntity
  8
0
 62
7
100
AcDbSpline
 70
0
 71
3
 72
13
 73
9
 74
7
 40
0.000000
 40
0.000000
 40
0.000000
 40
0.000000
 40
4.889847
 40
9.821424
 40
14.804456
 40
24.795968
 40
34.737993
 40
44.655878
 40
44.655878
 40
44.655878
 40
44.655878
 10
-241.382809
 20
484.365263
 30
0.0
 10
-243.003428
 20
484.190989
 30
0.0
 10
-246.258495
 20
483.840953
 30
0.0
 10
-251.171378
 20
483.374834
 30
0.0
 10
-257.783422
 20
482.817171
 30
0.0
 10
-266.071811
 20
482.274223
 30
0.0
 10
-276.016522
 20
481.871803
 30
0.0
 10
-282.637092
 20
481.873955
 30
0.0
 10
-285.943354
 20
481.875029
 30
0.0
 11
-241.382809
 21
484.365263
 31
0.0
 11
-246.245703
 21
483.852556
 31
0.0
 11
-251.155062
 21
483.384967
 31
0.0
 11
-256.120602
 21
482.967802
 31
0.0
 11
-266.090750
 21
482.314762
 31
0.0
 11
-276.025676
 21
481.939111
 31
0.0
 11
-285.943354
 21
481.875029
 31
0.0
  0
LINE
  5
104
100
AcDbEntity
  8
0
 62
7
100
AcDbLine
 10
-309.833493
 20
501.086451
 30
0.0
 11
-373.338865
 21
510.161159
 31
0.0
  0
SPLINE
  5
105
100
AcDbEntity
  8
0
 62
7
100
AcDbSpline
 70
0
 71
3
 72
10
 73
6
 74
4
 40
0.000000
 40
0.000000
 40
0.000000
 40
0.000000
 40
8.763106
 40
18.612897
 40
32.307391
 40
32.307391
 40
32.307391
 40
32.307391
 10
-285.943354
 20
481.875029
 30
0.0
 10
-288.799621
 20
483.101733
 30
0.0
 10
-294.866354
 20
485.707259
 30
0.0
 10
-296.032703
 20
498.499198
 30
0.0
 10
-304.758278
 20
500.134994
 30
0.0
 10
-309.833493
 20
501.086451
 30
0.0
 11
-285.943354
 21
481.875029
 31
0.0
 11
-293.316349
 21
486.611163
 31
0.0
 11
-297.272274
 21
495.631642
 31
0.0
 11
-309.833493
 21
501.086451
 31
0.0
  0
SPLINE
  5
106
100
AcDbEntity
  8
0
 62
7
100
AcDbSpline
 70
0
 71
3
 72
10
 73
6
 74
4
 40
0.000000
 40
0.000000
 40
0.000000
 40
0.000000
 40
10.441447
 40
21.059878
 40
33.700431
 40
33.700431
 40
33.700431
 40
33.700431
 10
-373.338865
 20
510.161159
 30
0.0
 10
-376.778355
 20
510.540908
 30
0.0
 10
-383.715634
 20
511.306843
 30
0.0
 10
-395.516863
 20
508.811230
 30
0.0
 10
-399.751390
 20
501.897861
 30
0.0
 10
-402.052727
 20
498.140654
 30
0.0
 11
-373.338865
 21
510.161159
 31
0.0
 11
-383.764873
 21
510.728767
 31
0.0
 11
-393.993769
 21
507.879071
 31
0.0
 11
-402.052727
 21
498.140654
 31
0.0
  0
SPLINE
  5
107
100
AcDbEntity
  8
0
 62
7
100
AcDbSpline
 70
0
 71
3
 72
10
 73
6
 74
4
 40
0.000000
 40
0.000000
 40
0.000000
 40
0.000000
 40
0.105804
 40
0.209359
 40
0.314605
 40
0.314605
 40
0.314605
 40
0.314605
 10
-402.052727
 20
498.140654
 30
0.0
 10
-402.060013
 20
498.106146
 30
0.0
 10
-402.074428
 20
498.037865
 30
0.0
 10
-402.096889
 20
497.935429
 30
0.0
 10
-402.111359
 20
497.867350
 30
0.0
 10
-402.118652
 20
497.833034
 30
0.0
 11
-402.052727
 21
498.140654
 31
0.0
 11
-402.074719
 21
498.037161
 31
0.0
 11
-402.096660
 21
497.935957
 31
0.0
 11
-402.118652
 21
497.833034
 31
0.0
  0
SPLINE
  5
108
100
AcDbEntity
  8
0
 62
7
100
AcDbSpline
 70
0
 71
3
 72
10
 73
6
 74
4
 40
0.000000
 40
0.000000
 40
0.000000
 40
0.000000
 40
9.479206
 40
18.965313
 40
28.465579
 40
28.465579
 40
28.465579
 40
28.465579
 10
-402.118652
 20
497.833034
 30
0.0
 10
-404.135559
 20
495.400699
 30
0.0
 10
-408.170840
 20
490.534257
 30
0.0
 10
-414.369006
 20
483.348684
 30
0.0
 10
-418.605350
 20
478.646713
 30
0.0
 10
-420.725102
 20
476.293975
 30
0.0
 11
-402.118652
 21
497.833034
 31
0.0
 11
-408.192923
 21
490.555769
 31
0.0
 11
-414.391436
 21
483.374915
 31
0.0
 11
-420.725102
 21
476.293975
 31
0.0
  0
LINE
  5
109
100
AcDbEntity
  8
0
 62
7
100
AcDbLine
 10
-431.099124
 20
465.290069
 30
0.0
 11
-433.870607
 21
467.989775
 31
0.0
  0
LINE
  5
10a
100
AcDbEntity
  8
0
 62
7
100
AcDbLine
 10
-433.870607
 20
467.989775
 30
0.0
 11
-423.562502
 21
478.957060
 31
0.0
  0
SPLINE
  5
10b
100
AcDbEntity
  8
0
 62
7
100
AcDbSpline
 70
0
 71
3
 72
10
 73
6
 74
4
 40
0.000000
 40
0.000000
 40
0.000000
 40
0.000000
 40
5.047475
 40
10.087976
 40
15.123577
 40
15.123577
 40
15.123577
 40
15.123577
 10
-420.725102
 20
476.293975
 30
0.0
 10
-421.865259
 20
475.056711
 30
0.0
 10
-424.143997
 20
472.583894
 30
0.0
 10
-427.594989
 20
468.908825
 30
0.0
 10
-429.931458
 20
466.495930
 30
0.0
 10
-431.099124
 20
465.290069
 30
0.0
 11
-420.725102
 21
476.293975
 31
0.0
 11
-424.151380
 21
472.587545
 31
0.0
 11
-427.605426
 21
468.916549
 31
0.0
 11
-431.099124
 21
465.290069
 31
0.0
  0
LINE
  5
10c
100
AcDbEntity
  8
0
 62
7
100
AcDbLine
 10
-466.007814
 20
437.794951
 30
0.0
 11
-454.984861
 21
447.498076
 31
0.0
  0
LINE
  5
10d
100
AcDbEntity
  8
0
 62
7
100
AcDbLine
 10
-454.984861
 20
447.498076
 30
0.0
 11
-452.354004
 21
444.669463
 31
0.0
  0
SPLINE
  5
10e
100
AcDbEntity
  8
0
 62
7
100
AcDbSpline
 70
0
 71
3
 72
13
 73
9
 74
7
 40
0.000000
 40
0.000000
 40
0.000000
 40
0.000000
 40
18.374563
 40
53.198272
 40
75.346900
 40
97.492692
 40
132.079283
 40
150.300363
 40
150.300363
 40
150.300363
 40
150.300363
 10
-423.562502
 20
478.957060
 30
0.0
 10
-428.954534
 20
482.120207
 30
0.0
 10
-444.565616
 20
491.278190
 30
0.0
 10
-462.972388
 20
501.657488
 30
0.0
 10
-499.206773
 20
513.713515
 30
0.0
 10
-487.780866
 20
477.392357
 30
0.0
 10
-477.841472
 20
458.863158
 30
0.0
 10
-469.043515
 20
443.199600
 30
0.0
 10
-466.007814
 20
437.794951
 30
0.0
 11
-423.562502
 21
478.957060
 31
0.0
 11
-439.426621
 21
488.228214
 31
0.0
 11
-470.617237
 21
503.714861
 31
0.0
 11
-492.531736
 21
506.926784
 31
0.0
 11
-489.688747
 21
484.964236
 31
0.0
 11
-474.901178
 21
453.698279
 31
0.0
 11
-466.007814
 21
437.794951
 31
0.0
  0
SPLINE
  5
10f
100
AcDbEntity
  8
0
 62
7
100
AcDbSpline
 70
0
 71
3
 72
13
 73
9
 74
7
 40
0.000000
 40
0.000000
 40
0.000000
 40
0.000000
 40
4.890037
 40
9.821963
 40
14.805184
 40
24.796548
 40
34.738305
 40
44.656052
 40
44.656052
 40
44.656052
 40
44.656052
 10
-452.354004
 20
444.669463
 30
0.0
 10
-453.562711
 20
443.575840
 30
0.0
 10
-455.990478
 20
441.379227
 30
0.0
 10
-459.691158
 20
438.114101
 30
0.0
 10
-464.712660
 20
433.776318
 30
0.0
 10
-471.098943
 20
428.465354
 30
0.0
 10
-478.907701
 20
422.294550
 30
0.0
 10
-484.265015
 20
418.404904
 30
0.0
 10
-486.940434
 20
416.462432
 30
0.0
 11
-452.354004
 21
444.669463
 31
0.0
 11
-455.986894
 21
441.396151
 31
0.0
 11
-459.683968
 21
438.131869
 31
0.0
 11
-463.456059
 21
434.875518
 31
0.0
 11
-471.138117
 21
428.486986
 31
0.0
 11
-478.954635
 21
422.343650
 31
0.0
 11
-486.940434
 21
416.462432
 31
0.0
  0
LINE
  5
110
100
AcDbEntity
  8
0
 62
7
100
AcDbLine
 10
-517.560061
 20
417.962432
 30
0.0
 11
-574.271482
 21
387.977081
 31
0.0
  0
SPLINE
  5
111
100
AcDbEntity
  8
0
 62
7
100
AcDbSpline
 70
0
 71
3
 72
10
 73
6
 74
4
 40
0.000000
 40
0.000000
 40
0.000000
 40
0.000000
 40
8.763077
 40
18.612805
 40
32.307288
 40
32.307288
 40
32.307288
 40
32.307288
 10
-486.940434
 20
416.462432
 30
0.0
 10
-489.972230
 20
415.775978
 30
0.0
 10
-496.411775
 20
414.317946
 30
0.0
 10
-504.874279
 20
423.981221
 30
0.0
 10
-512.894880
 20
420.175834
 30
0.0
 10
-517.560061
 20
417.962432
 30
0.0
 11
-486.940434
 21
416.462432
 31
0.0
 11
-495.689112
 21
415.960286
 31
0.0
 11
-504.191582
 21
420.932724
 31
0.0
 11
-517.560061
 21
417.962432
 31
0.0
  0
SPLINE
  5
112
100
AcDbEntity
  8
0
 62
7
100
AcDbSpline
 70
0
 71
3
 72
10
 73
6
 74
4
 40
0.000000
 40
0.000000
 40
0.000000
 40
0.000000
 40
10.441549
 40
21.060231
 40
33.700949
 40
33.700949
 40
33.700949
 40
33.700949
 10
-574.271482
 20
387.977081
 30
0.0
 10
-577.277310
 20
386.262568
 30
0.0
 10
-583.339959
 20
382.804457
 30
0.0
 10
-591.420377
 20
373.848577
 30
0.0
 10
-590.782631
 20
365.766433
 30
0.0
 10
-590.436037
 20
361.374054
 30
0.0
 11
-574.271482
 21
387.977081
 31
0.0
 11
-583.039941
 21
382.307860
 31
0.0
 11
-589.640293
 21
373.989701
 31
0.0
 11
-590.436037
 21
361.374054
 31
0.0
  0
SPLINE
  5
113
100
AcDbEntity
  8
0
 62
7
100
AcDbSpline
 70
0
 71
3
 72
10
 73
6
 74
4
 40
0.000000
 40
0.000000
 40
0.000000
 40
0.000000
 40
0.106741
 40
0.211221
 40
0.317397
 40
0.317397
 40
0.317397
 40
0.317397
 10
-590.436037
 20
361.374054
 30
0.0
 10
-590.421500
 20
361.341579
 30
0.0
 10
-590.392734
 20
361.277316
 30
0.0
 10
-590.350128
 20
361.180475
 30
0.0
 10
-590.321537
 20
361.116340
 30
0.0
 10
-590.307127
 20
361.084015
 30
0.0
 11
-590.436037
 21
361.374054
 31
0.0
 11
-590.392531
 21
361.276581
 31
0.0
 11
-590.350278
 21
361.181026
 31
0.0
 11
-590.307127
 21
361.084015
 31
0.0
  0
SPLINE
  5
114
100
AcDbEntity
  8
0
 62
7
100
AcDbSpline
 70
0
 71
3
 72
10
 73
6
 74
4
 40
0.000000
 40
0.000000
 40
0.000000
 40
0.000000
 40
9.478303
 40
18.963612
 40
28.462983
 40
28.462983
 40
28.462983
 40
28.462983
 10
-590.307127
 20
361.084015
 30
0.0
 10
-590.509210
 20
357.931011
 30
0.0
 10
-590.913526
 20
351.622674
 30
0.0
 10
-591.705027
 20
342.167156
 30
0.0
 10
-592.368635
 20
335.873698
 30
0.0
 10
-592.700685
 20
332.724639
 30
0.0
 11
-590.307127
 21
361.084015
 31
0.0
 11
-590.944111
 21
351.627140
 31
0.0
 11
-591.738506
 21
342.175155
 31
0.0
 11
-592.700685
 21
332.724639
 31
0.0
  0
LINE
  5
115
100
AcDbEntity
  8
0
 62
7
100
AcDbLine
 10
-594.625485
 20
317.724639
 30
0.0
 11
-598.454587
 21
318.279819
 31
0.0
  0
LINE
  5
116
100
AcDbEntity
  8
0
 62
7
100
AcDbLine
 10
-598.454587
 20
318.279819
 30
0.0
 11
-596.560545
 21
333.210969
 31
0.0
  0
SPLINE
  5
117
100
AcDbEntity
  8
0
 62
7
100
AcDbSpline
 70
0
 71
3
 72
10
 73
6
 74
4
 40
0.000000
 40
0.000000
 40
0.000000
 40
0.000000
 40
5.047461
 40
10.087940
 40
15.123530
 40
15.123530
 40
15.123530
 40
15.123530
 10
-592.700685
 20
332.724639
 30
0.0
 10
-592.895844
 20
331.053509
 30
0.0
 10
-593.285892
 20
327.713560
 30
0.0
 10
-593.917640
 20
322.711939
 30
0.0
 10
-594.389613
 20
319.386534
 30
0.0
 10
-594.625485
 20
317.724639
 30
0.0
 11
-592.700685
 21
332.724639
 31
0.0
 11
-593.294010
 21
327.712172
 31
0.0
 11
-593.930624
 21
322.712056
 31
0.0
 11
-594.625485
 21
317.724639
 31
0.0
  0
LINE
  5
118
100
AcDbEntity
  8
0
 62
7
100
AcDbLine
 10
-606.704587
 20
274.961454
 30
0.0
 11
-603.490724
 21
289.290557
 31
0.0
  0
LINE
  5
119
100
AcDbEntity
  8
0
 62
7
100
AcDbLine
 10
-603.490724
 20
289.290557
 30
0.0
 11
-599.699707
 21
288.549347
 31
0.0
  0
SPLINE
  5
11a
100
AcDbEntity
  8
0
 62
7
100
AcDbSpline
 70
0
 71
3
 72
13
 73
9
 74
7
 40
0.000000
 40
0.000000
 40
0.000000
 40
0.000000
 40
18.374886
 40
53.199175
 40
75.348040
 40
97.494222
 40
132.081648
 40
150.303184
 40
150.303184
 40
150.303184
 40
150.303184
 10
-596.560545
 20
333.210969
 30
0.0
 10
-602.782158
 20
332.600691
 30
0.0
 10
-620.795042
 20
330.833807
 30
0.0
 10
-641.787511
 20
328.411799
 30
0.0
 10
-678.188907
 20
316.867420
 30
0.0
 10
-647.595117
 20
294.198740
 30
0.0
 10
-628.662402
 20
285.050485
 30
0.0
 10
-612.337451
 20
277.549605
 30
0.0
 10
-606.704587
 20
274.961454
 30
0.0
 11
-596.560545
 21
333.210969
 31
0.0
 11
-614.844671
 21
331.386915
 31
0.0
 11
-649.181857
 21
325.582718
 31
0.0
 11
-668.799314
 21
315.300324
 31
0.0
 11
-653.589571
 21
299.203209
 31
0.0
 11
-623.247665
 21
282.600235
 31
0.0
 11
-606.704587
 21
274.961454
 31
0.0
  0
SPLINE
  5
11b
100
AcDbEntity
  8
0
 62
7
100
AcDbSpline
 70
0
 71
3
 72
13
 73
9
 74
7
 40
0.000000
 40
0.000000
 40
0.000000
 40
0.000000
 40
4.890097
 40
9.822142
 40
14.805428
 40
24.796833
 40
34.738647
 40
44.656415
 40
44.656415
 40
44.656415
 40
44.656415
 10
-599.699707
 20
288.549347
 30
0.0
 10
-600.034793
 20
286.954115
 30
0.0
 10
-600.707840
 20
283.749967
 30
0.0
 10
-601.782892
 20
278.933210
 30
0.0
 10
-603.295893
 20
272.472276
 30
0.0
 10
-605.340488
 20
264.421725
 30
0.0
 10
-608.030193
 20
254.839351
 30
0.0
 10
-610.077947
 20
248.543541
 30
0.0
 10
-611.100584
 20
245.399447
 30
0.0
 11
-599.699707
 21
288.549347
 31
0.0
 11
-600.714920
 21
283.765792
 31
0.0
 11
-601.787494
 21
278.951786
 31
0.0
 11
-602.925292
 21
274.100132
 31
0.0
 11
-605.384856
 21
264.416190
 31
0.0
 11
-608.097096
 21
254.851494
 31
0.0
 11
-611.100584
 21
245.399447
 31
0.0
  0
LINE
  5
11c
100
AcDbEntity
  8
0
 62
7
100
AcDbLine
 10
-636.754394
 20
228.615265
 30
0.0
 11
-665.009766
 21
171.022008
 31
0.0
  0
SPLINE
  5
11d
100
AcDbEntity
  8
0
 62
7
100
AcDbSpline
 70
0
 71
3
 72
10
 73
6
 74
4
 40
0.000000
 40
0.000000
 40
0.000000
 40
0.000000
 40
8.763127
 40
18.613003
 40
32.307541
 40
32.307541
 40
32.307541
 40
32.307541
 10
-611.100584
 20
245.399447
 30
0.0
 10
-613.149900
 20
243.062054
 30
0.0
 10
-617.502674
 20
238.097398
 30
0.0
 10
-630.029001
 20
240.941101
 30
0.0
 10
-634.281146
 20
233.148063
 30
0.0
 10
-636.754394
 20
228.615265
 30
0.0
 11
-611.100584
 21
245.399447
 31
0.0
 11
-617.883337
 21
239.850874
 31
0.0
 11
-627.684856
 21
238.876058
 31
0.0
 11
-636.754394
 21
228.615265
 31
0.0
  0
LINE
  5
11e
100
AcDbEntity
  8
0
 62
7
100
AcDbLine
 10
-662.450684
 20
139.999549
 30
0.0
 11
-625.549807
 21
139.999549
 31
0.0
  0
SPLINE
  5
11f
100
AcDbEntity
  8
0
 62
7
100
AcDbSpline
 70
0
 71
3
 72
10
 73
6
 74
4
 40
0.000000
 40
0.000000
 40
0.000000
 40
0.000000
 40
10.441296
 40
21.059446
 40
33.699840
 40
33.699840
 40
33.699840
 40
33.699840
 10
-665.009766
 20
171.022008
 30
0.0
 10
-666.433775
 20
167.868257
 30
0.0
 10
-669.305913
 20
161.507337
 30
0.0
 10
-670.579239
 20
149.512725
 30
0.0
 10
-665.312834
 20
143.349238
 30
0.0
 10
-662.450684
 20
139.999549
 30
0.0
 11
-665.009766
 21
171.022008
 31
0.0
 11
-668.771370
 21
161.281833
 31
0.0
 11
-669.222064
 21
150.673254
 31
0.0
 11
-662.450684
 21
139.999549
 31
0.0
  0
LINE
  5
120
100
AcDbEntity
  8
0
 62
7
100
AcDbLine
 10
-617.125484
 20
116.049349
 30
0.0
 11
-587.500485
 21
115.750519
 31
0.0
  0
SPLINE
  5
121
100
AcDbEntity
  8
0
 62
7
100
AcDbSpline
 70
0
 71
3
 72
10
 73
6
 74
4
 40
0.000000
 40
0.000000
 40
0.000000
 40
0.000000
 40
17.269572
 40
27.689273
 40
43.020371
 40
43.020371
 40
43.020371
 40
43.020371
 10
-625.549807
 20
139.999549
 30
0.0
 10
-631.919031
 20
136.469430
 30
0.0
 10
-642.131166
 20
130.809394
 30
0.0
 10
-631.225879
 20
116.325933
 30
0.0
 10
-622.387523
 20
116.152566
 30
0.0
 10
-617.125484
 20
116.049349
 30
0.0
 11
-625.549807
 21
139.999549
 31
0.0
 11
-637.954721
 21
127.984716
 31
0.0
 11
-632.092534
 21
119.370487
 31
0.0
 11
-617.125484
 21
116.049349
 31
0.0
  0
LINE
  5
122
100
AcDbEntity
  8
0
 62
7
100
AcDbLine
 10
-572.774415
 20
139.999549
 30
0.0
 11
-563.450685
 21
139.999549
 31
0.0
  0
LINE
  5
123
100
AcDbEntity
  8
0
 62
7
100
AcDbLine
 10
-563.450685
 20
139.999549
 30
0.0
 11
-526.549808
 21
139.999549
 31
0.0
  0
SPLINE
  5
124
100
AcDbEntity
  8
0
 62
7
100
AcDbSpline
 70
0
 71
3
 72
10
 73
6
 74
4
 40
0.000000
 40
0.000000
 40
0.000000
 40
0.000000
 40
19.778631
 40
31.100100
 40
47.379879
 40
47.379879
 40
47.379879
 40
47.379879
 10
-587.500485
 20
115.750519
 30
0.0
 10
-580.807418
 20
115.670017
 30
0.0
 10
-570.283180
 20
115.543436
 30
0.0
 10
-556.775572
 20
130.602381
 30
0.0
 10
-566.838874
 20
136.513217
 30
0.0
 10
-572.774415
 20
139.999549
 30
0.0
 11
-587.500485
 21
115.750519
 31
0.0
 11
-568.091813
 21
119.558105
 31
0.0
 11
-561.206187
 21
128.544973
 31
0.0
 11
-572.774415
 21
139.999549
 31
0.0
  0
LINE
  5
125
100
AcDbEntity
  8
0
 62
7
100
AcDbLine
 10
-518.125486
 20
116.049349
 30
0.0
 11
-488.500486
 21
115.750519
 31
0.0
  0
SPLINE
  5
126
100
AcDbEntity
  8
0
 62
7
100
AcDbSpline
 70
0
 71
3
 72
10
 73
6
 74
4
 40
0.000000
 40
0.000000
 40
0.000000
 40
0.000000
 40
17.269569
 40
27.689262
 40
43.020366
 40
43.020366
 40
43.020366
 40
43.020366
 10
-526.549808
 20
139.999549
 30
0.0
 10
-532.919035
 20
136.469432
 30
0.0
 10
-543.131170
 20
130.809398
 30
0.0
 10
-532.225877
 20
116.325949
 30
0.0
 10
-523.387525
 20
116.152572
 30
0.0
 10
-518.125486
 20
116.049349
 30
0.0
 11
-526.549808
 21
139.999549
 31
0.0
 11
-538.954724
 21
127.984721
 31
0.0
 11
-533.092539
 21
119.370502
 31
0.0
 11
-518.125486
 21
116.049349
 31
0.0
  0
LINE
  5
127
100
AcDbEntity
  8
0
 62
7
100
AcDbLine
 10
-473.774416
 20
139.999549
 30
0.0
 11
-444.250487
 21
139.999549
 31
0.0
  0
SPLINE
  5
128
100
AcDbEntity
  8
0
 62
7
100
AcDbSpline
 70
0
 71
3
 72
10
 73
6
 74
4
 40
0.000000
 40
0.000000
 40
0.000000
 40
0.000000
 40
19.778635
 40
31.100113
 40
47.379869
 40
47.379869
 40
47.379869
 40
47.379869
 10
-488.500486
 20
115.750519
 30
0.0
 10
-481.807420
 20
115.670025
 30
0.0
 10
-471.283180
 20
115.543456
 30
0.0
 10
-457.775574
 20
130.602410
 30
0.0
 10
-467.838879
 20
136.513230
 30
0.0
 10
-473.774416
 20
139.999549
 30
0.0
 11
-488.500486
 21
115.750519
 31
0.0
 11
-469.091815
 21
119.558126
 31
0.0
 11
-462.206188
 21
128.545007
 31
0.0
 11
-473.774416
 21
139.999549
 31
0.0
  0
SPLINE
  5
129
100
AcDbEntity
  8
0
 62
7
100
AcDbSpline
 70
0
 71
3
 72
10
 73
6
 74
4
 40
0.000000
 40
0.000000
 40
0.000000
 40
0.000000
 40
33.998766
 40
66.962565
 40
99.391169
 40
99.391169
 40
99.391169
 40
99.391169
 10
-444.250487
 20
139.999549
 30
0.0
 10
-443.517230
 20
151.338560
 30
0.0
 10
-442.073039
 20
173.671410
 30
0.0
 10
-431.492958
 20
205.573695
 30
0.0
 10
-419.737392
 20
223.987908
 30
0.0
 10
-413.907714
 20
233.119660
 30
0.0
 11
-444.250487
 21
139.999549
 31
0.0
 11
-440.585479
 21
173.800196
 31
0.0
 11
-430.217632
 21
205.091087
 31
0.0
 11
-413.907714
 21
233.119660
 31
0.0
  0
SPLINE
  5
12a
100
AcDbEntity
  8
0
 62
7
100
AcDbSpline
 70
0
 71
3
 72
10
 73
6
 74
4
 40
0.000000
 40
0.000000
 40
0.000000
 40
0.000000
 40
33.998688
 40
66.962283
 40
99.390746
 40
99.390746
 40
99.390746
 40
99.390746
 10
-413.907714
 20
233.119660
 30
0.0
 10
-406.649649
 20
241.862123
 30
0.0
 10
-392.354491
 20
259.080884
 30
0.0
 10
-365.043682
 20
278.671804
 30
0.0
 10
-344.709747
 20
286.659481
 30
0.0
 10
-334.625981
 20
290.620637
 30
0.0
 11
-413.907714
 21
233.119660
 31
0.0
 11
-391.075326
 21
258.310785
 31
0.0
 11
-364.295579
 21
277.531706
 31
0.0
 11
-334.625981
 21
290.620637
 31
0.0
  0
SPLINE
  5
12b
100
AcDbEntity
  8
0
 62
7
100
AcDbSpline
 70
0
 71
3
 72
10
 73
6
 74
4
 40
0.000000
 40
0.000000
 40
0.000000
 40
0.000000
 40
33.998900
 40
66.962957
 40
99.391696
 40
99.391696
 40
99.391696
 40
99.391696
 10
-334.625981
 20
290.620637
 30
0.0
 10
-323.615304
 20
293.427213
 30
0.0
 10
-301.929089
 20
298.954940
 30
0.0
 10
-268.318612
 20
298.751014
 30
0.0
 10
-247.172854
 20
293.261097
 30
0.0
 10
-236.686527
 20
290.538609
 30
0.0
 11
-334.625981
 21
290.620637
 31
0.0
 11
-301.346965
 21
297.579974
 31
0.0
 11
-268.383462
 21
297.388967
 31
0.0
 11
-236.686527
 21
290.538609
 31
0.0
  0
SPLINE
  5
12c
100
AcDbEntity
  8
0
 62
7
100
AcDbSpline
 70
0
 71
3
 72
10
 73
6
 74
4
 40
0.000000
 40
0.000000
 40
0.000000
 40
0.000000
 40
33.998969
 40
66.963204
 40
99.392063
 40
99.392063
 40
99.392063
 40
99.392063
 10
-236.686527
 20
290.538609
 30
0.0
 10
-226.129026
 20
286.337225
 30
0.0
 10
-205.335335
 20
278.062322
 30
0.0
 10
-178.263816
 20
258.141307
 30
0.0
 10
-164.383396
 20
241.270614
 30
0.0
 10
-157.500005
 20
232.904327
 30
0.0
 11
-236.686527
 21
290.538609
 31
0.0
 11
-205.672630
 21
276.607776
 31
0.0
 11
-179.116843
 21
257.077520
 31
0.0
 11
-157.500005
 21
232.904327
 31
0.0
  0
SPLINE
  5
12d
100
AcDbEntity
  8
0
 62
7
100
AcDbSpline
 70
0
 71
3
 72
10
 73
6
 74
4
 40
0.000000
 40
0.000000
 40
0.000000
 40
0.000000
 40
33.998468
 40
66.961761
 40
99.390118
 40
99.390118
 40
99.390118
 40
99.390118
 10
-157.500005
 20
232.904327
 30
0.0
 10
-151.428372
 20
223.299956
 30
0.0
 10
-139.469971
 20
204.383645
 30
0.0
 10
-129.278138
 20
172.355580
 30
0.0
 10
-127.965111
 20
150.548669
 30
0.0
 10
-127.313968
 20
139.734409
 30
0.0
 11
-157.500005
 21
232.904327
 31
0.0
 11
-140.597739
 21
203.405018
 31
0.0
 11
-130.593550
 21
171.996503
 31
0.0
 11
-127.313968
 21
139.734409
 31
0.0
  0
SPLINE
  5
12e
100
AcDbEntity
  8
0
 62
7
100
AcDbSpline
 70
0
 71
3
 72
10
 73
6
 74
4
 40
0.000000
 40
0.000000
 40
0.000000
 40
0.000000
 40
47.963329
 40
94.541209
 40
135.221377
 40
135.221377
 40
135.221377
 40
135.221377
 10
-127.313968
 20
139.734409
 30
0.0
 10
-117.743466
 20
125.236239
 30
0.0
 10
-98.878911
 20
96.658688
 30
0.0
 10
-45.485141
 20
106.545111
 30
0.0
 10
-26.944190
 20
129.181298
 30
0.0
 10
-18.300300
 20
139.734409
 30
0.0
 11
-127.313968
 21
139.734409
 31
0.0
 11
-93.849623
 21
105.374279
 31
0.0
 11
-47.690822
 21
111.608384
 31
0.0
 11
-18.300300
 21
139.734409
 31
0.0
  0
SPLINE
  5
12f
100
AcDbEntity
  8
0
 62
7
100
AcDbSpline
 70
0
 71
3
 72
10
 73
6
 74
4
 40
0.000000
 40
0.000000
 40
0.000000
 40
0.000000
 40
44.521432
 40
88.806307
 40
132.207260
 40
132.207260
 40
132.207260
 40
132.207260
 10
-18.300300
 20
139.734409
 30
0.0
 10
-8.905308
 20
127.183576
 30
0.0
 10
9.834756
 20
102.148599
 30
0.0
 10
61.591404
 20
105.867123
 30
0.0
 10
81.071504
 20
128.521436
 30
0.0
 10
90.713369
 20
139.734409
 30
0.0
 11
-18.300300
 21
139.734409
 31
0.0
 11
13.912530
 21
109.001827
 31
0.0
 11
58.150419
 21
111.041256
 31
0.0
 11
90.713369
 21
139.734409
 31
0.0
  0
SPLINE
  5
130
100
AcDbEntity
  8
0
 62
7
100
AcDbSpline
 70
0
 71
3
 72
10
 73
6
 74
4
 40
0.000000
 40
0.000000
 40
0.000000
 40
0.000000
 40
9.541349
 40
19.089702
 40
28.652264
 40
28.652264
 40
28.652264
 40
28.652264
 10
90.713369
 20
139.734409
 30
0.0
 10
89.011584
 20
142.421310
 30
0.0
 10
85.606765
 20
147.797085
 30
0.0
 10
80.655363
 20
155.965228
 30
0.0
 10
77.471844
 20
161.483159
 30
0.0
 10
75.878901
 20
164.244176
 30
0.0
 11
90.713369
 21
139.734409
 31
0.0
 11
85.634476
 21
147.811673
 31
0.0
 11
80.687534
 21
155.978607
 31
0.0
 11
75.878901
 21
164.244176
 31
0.0
  0
LINE
  5
131
100
AcDbEntity
  8
0
 62
7
100
AcDbLine
 10
68.619133
 20
177.511263
 30
0.0
 11
72.043937
 21
179.311556
 31
0.0
  0
LINE
  5
132
100
AcDbEntity
  8
0
 62
7
100
AcDbLine
 10
72.043937
 20
179.311556
 30
0.0
 11
79.287591
 21
166.119176
 31
0.0
  0
SPLINE
  5
133
100
AcDbEntity
  8
0
 62
7
100
AcDbSpline
 70
0
 71
3
 72
10
 73
6
 74
4
 40
0.000000
 40
0.000000
 40
0.000000
 40
0.000000
 40
5.047590
 40
10.088309
 40
15.124026
 40
15.124026
 40
15.124026
 40
15.124026
 10
75.878901
 20
164.244176
 30
0.0
 10
75.054505
 20
165.710899
 30
0.0
 10
73.406833
 20
168.642349
 30
0.0
 10
70.978004
 20
173.060242
 30
0.0
 10
69.405163
 20
176.028081
 30
0.0
 10
68.619133
 20
177.511263
 30
0.0
 11
75.878901
 21
164.244176
 31
0.0
 11
73.412608
 21
168.648214
 31
0.0
 11
70.988556
 21
173.067810
 31
0.0
 11
68.619133
 21
177.511263
 31
0.0
  0
LINE
  5
134
100
AcDbEntity
  8
0
 62
7
100
AcDbLine
 10
53.255851
 20
219.206575
 30
0.0
 11
59.078605
 21
205.725618
 31
0.0
  0
LINE
  5
135
100
AcDbEntity
  8
0
 62
7
100
AcDbLine
 10
59.078605
 20
205.725618
 30
0.0
 11
55.576163
 21
204.096715
 31
0.0
  0
SPLINE
  5
136
100
AcDbEntity
  8
0
 62
7
100
AcDbSpline
 70
0
 71
3
 72
13
 73
9
 74
7
 40
0.000000
 40
0.000000
 40
0.000000
 40
0.000000
 40
18.375065
 40
53.199699
 40
75.348774
 40
97.495050
 40
132.082757
 40
150.304456
 40
150.304456
 40
150.304456
 40
150.304456
 10
79.287591
 20
166.119176
 30
0.0
 10
83.962294
 20
170.269940
 30
0.0
 10
97.496548
 20
182.287280
 30
0.0
 10
113.056220
 20
196.585996
 30
0.0
 10
135.720166
 20
227.322151
 30
0.0
 10
97.644635
 20
227.678610
 30
0.0
 10
76.950444
 20
223.951100
 30
0.0
 10
59.334255
 20
220.423694
 30
0.0
 10
53.255851
 20
219.206575
 30
0.0
 11
79.287591
 21
166.119176
 31
0.0
 11
93.007676
 21
178.342200
 31
0.0
 11
117.375546
 21
203.221147
 31
0.0
 11
127.202631
 21
223.070830
 31
0.0
 11
105.435914
 21
227.153420
 31
0.0
 11
71.129574
 21
222.750636
 31
0.0
 11
53.255851
 21
219.206575
 31
0.0
  0
SPLINE
  5
137
100
AcDbEntity
  8
0
 62
7
100
AcDbSpline
 70
0
 71
3
 72
13
 73
9
 74
7
 40
0.000000
 40
0.000000
 40
0.000000
 40
0.000000
 40
4.889871
 40
9.821500
 40
14.804563
 40
24.796231
 40
34.738533
 40
44.656566
 40
44.656566
 40
44.656566
 40
44.656566
 10
55.576163
 20
204.096715
 30
0.0
 10
54.909650
 20
205.584184
 30
0.0
 10
53.570931
 20
208.571823
 30
0.0
 10
51.609763
 20
213.100384
 30
0.0
 10
49.036333
 20
219.216642
 30
0.0
 10
45.958216
 20
226.931550
 30
0.0
 10
42.501385
 20
236.265011
 30
0.0
 10
40.457306
 20
242.562280
 30
0.0
 10
39.436515
 20
245.707067
 30
0.0
 11
55.576163
 21
204.096715
 31
0.0
 11
53.585958
 21
208.563249
 31
0.0
 11
51.624411
 21
213.087992
 31
0.0
 11
49.693351
 21
217.681675
 31
0.0
 11
45.990860
 21
226.962029
 31
0.0
 11
42.562663
 21
236.294598
 31
0.0
 11
39.436515
 21
245.707067
 31
0.0
  0
LINE
  5
138
100
AcDbEntity
  8
0
 62
7
100
AcDbLine
 10
50.326163
 20
274.363802
 30
0.0
 11
39.332519
 21
337.565919
 31
0.0
  0
SPLINE
  5
139
100
AcDbEntity
  8
0
 62
7
100
AcDbSpline
 70
0
 71
3
 72
10
 73
6
 74
4
 40
0.000000
 40
0.000000
 40
0.000000
 40
0.000000
 40
8.762964
 40
18.612848
 40
32.307162
 40
32.307162
 40
32.307162
 40
32.307162
 10
39.436515
 20
245.707067
 30
0.0
 10
39.720632
 20
248.802567
 30
0.0
 10
40.324105
 20
255.377517
 30
0.0
 10
52.130031
 20
260.438898
 30
0.0
 10
50.989528
 20
269.242974
 30
0.0
 10
50.326163
 20
274.363802
 30
0.0
 11
39.436515
 21
245.707067
 31
0.0
 11
41.662717
 21
254.182536
 31
0.0
 11
49.019714
 21
260.731948
 31
0.0
 11
50.326163
 21
274.363802
 31
0.0
  0
SPLINE
  5
13a
100
AcDbEntity
  8
0
 62
7
100
AcDbSpline
 70
0
 71
3
 72
10
 73
6
 74
4
 40
0.000000
 40
0.000000
 40
0.000000
 40
0.000000
 40
10.441545
 40
21.060195
 40
33.700870
 40
33.700870
 40
33.700870
 40
33.700870
 10
39.332519
 20
337.565919
 30
0.0
 10
38.630785
 20
340.954444
 30
0.0
 10
37.215415
 20
347.788970
 30
0.0
 10
31.194984
 20
358.241476
 30
0.0
 10
23.311350
 20
360.132466
 30
0.0
 10
19.026855
 20
361.160157
 30
0.0
 11
39.332519
 21
337.565919
 31
0.0
 11
36.650422
 21
347.657114
 31
0.0
 11
30.779099
 21
356.504899
 31
0.0
 11
19.026855
 21
361.160157
 31
0.0
  0
SPLINE
  5
13b
100
AcDbEntity
  8
0
 62
7
100
AcDbSpline
 70
0
 71
3
 72
10
 73
6
 74
4
 40
0.000000
 40
0.000000
 40
0.000000
 40
0.000000
 40
0.106476
 40
0.210672
 40
0.316587
 40
0.316587
 40
0.316587
 40
0.316587
 10
19.026855
 20
361.160157
 30
0.0
 10
18.991561
 20
361.156417
 30
0.0
 10
18.921727
 20
361.149018
 30
0.0
 10
18.816686
 20
361.138871
 30
0.0
 10
18.747028
 20
361.131596
 30
0.0
 10
18.711914
 20
361.127930
 30
0.0
 11
19.026855
 21
361.160157
 31
0.0
 11
18.920955
 21
361.149103
 31
0.0
 11
18.817270
 21
361.138793
 31
0.0
 11
18.711914
 21
361.127930
 31
0.0
  0
SPLINE
  5
13c
100
AcDbEntity
  8
0
 62
7
100
AcDbSpline
 70
0
 71
3
 72
10
 73
6
 74
4
 40
0.000000
 40
0.000000
 40
0.000000
 40
0.000000
 40
9.478389
 40
18.963846
 40
28.463291
 40
28.463291
 40
28.463291
 40
28.463291
 10
18.711914
 20
361.127930
 30
0.0
 10
15.775627
 20
362.294405
 30
0.0
 10
9.900863
 20
364.628225
 30
0.0
 10
1.152360
 20
368.302315
 30
0.0
 10
-4.628132
 20
370.878134
 30
0.0
 10
-7.520508
 20
372.166993
 30
0.0
 11
18.711914
 21
361.127930
 31
0.0
 11
9.914549
 21
364.655850
 31
0.0
 11
1.170320
 21
368.331767
 31
0.0
 11
-7.520508
 21
372.166993
 31
0.0
  0
LINE
  5
13d
100
AcDbEntity
  8
0
 62
7
100
AcDbLine
 10
-21.191894
 20
378.632813
 30
0.0
 11
-19.479492
 21
382.103028
 31
0.0
  0
LINE
  5
13e
100
AcDbEntity
  8
0
 62
7
100
AcDbLine
 10
-19.479492
 20
382.103028
 30
0.0
 11
-5.865234
 21
375.688477
 31
0.0
  0
SPLINE
  5
13f
100
AcDbEntity
  8
0
 62
7
100
AcDbSpline
 70
0
 71
3
 72
10
 73
6
 74
4
 40
0.000000
 40
0.000000
 40
0.000000
 40
0.000000
 40
5.047539
 40
10.088158
 40
15.123820
 40
15.123820
 40
15.123820
 40
15.123820
 10
-7.520508
 20
372.166993
 30
0.0
 10
-9.049567
 20
372.869010
 30
0.0
 10
-12.105589
 20
374.272081
 30
0.0
 10
-16.667326
 20
376.418440
 30
0.0
 10
-19.684199
 20
377.894931
 30
0.0
 10
-21.191894
 20
378.632813
 30
0.0
 11
-7.520508
 21
372.166993
 31
0.0
 11
-12.104388
 21
374.280211
 31
0.0
 11
-16.663217
 21
376.430774
 31
0.0
 11
-21.191894
 21
378.632813
 31
0.0
  0
LINE
  5
140
100
AcDbEntity
  8
0
 62
7
100
AcDbLine
 10
-58.129393
 20
403.335938
 30
0.0
 11
-45.493652
 21
395.852051
 31
0.0
  0
LINE
  5
141
100
AcDbEntity
  8
0
 62
7
100
AcDbLine
 10
-45.493652
 20
395.852051
 30
0.0
 11
-47.370116
 21
392.475586
 31
0.0
  0
SPLINE
  5
142
100
AcDbEntity
  8
0
 62
7
100
AcDbSpline
 70
0
 71
3
 72
13
 73
9
 74
7
 40
0.000000
 40
0.000000
 40
0.000000
 40
0.000000
 40
18.375027
 40
53.199563
 40
75.348515
 40
97.494964
 40
132.082888
 40
150.304690
 40
150.304690
 40
150.304690
 40
150.304690
 10
-5.865234
 20
375.688477
 30
0.0
 10
-4.523009
 20
381.794208
 30
0.0
 10
-0.636984
 20
399.471581
 30
0.0
 10
3.546771
 20
420.185128
 30
0.0
 10
3.816295
 20
458.372645
 30
0.0
 10
-27.197275
 20
436.280826
 30
0.0
 10
-41.748526
 20
421.101597
 30
0.0
 10
-53.927190
 20
407.893383
 30
0.0
 10
-58.129393
 20
403.335938
 30
0.0
 11
-5.865234
 21
375.688477
 31
0.0
 11
-1.949757
 21
393.641490
 31
0.0
 11
3.141176
 21
428.091899
 31
0.0
 11
-0.575684
 21
449.926758
 31
0.0
 11
-20.585236
 21
440.435552
 31
0.0
 11
-45.752171
 21
416.708987
 31
0.0
 11
-58.129393
 21
403.335938
 31
0.0
  0
SPLINE
  5
143
100
AcDbEntity
  8
0
 62
7
100
AcDbSpline
 70
0
 71
3
 72
13
 73
9
 74
7
 40
0.000000
 40
0.000000
 40
0.000000
 40
0.000000
 40
4.890105
 40
9.822160
 40
14.805451
 40
24.796955
 40
34.738940
 40
44.656794
 40
44.656794
 40
44.656794
 40
44.656794
 10
-47.370116
 20
392.475586
 30
0.0
 10
-48.783747
 20
393.287192
 30
0.0
 10
-51.623135
 20
394.917366
 30
0.0
 10
-55.872144
 20
397.427921
 30
0.0
 10
-61.549435
 20
400.863285
 30
0.0
 10
-68.574286
 20
405.295518
 30
0.0
 10
-76.856946
 20
410.814242
 30
0.0
 10
-82.211970
 20
414.707235
 30
0.0
 10
-84.886229
 20
416.651367
 30
0.0
 11
-47.370116
 21
392.475586
 31
0.0
 11
-51.605919
 21
394.919170
 31
0.0
 11
-55.853032
 21
397.426598
 31
0.0
 11
-60.115722
 21
400.007813
 31
0.0
 11
-68.565865
 21
405.339344
 31
0.0
 11
-76.824708
 21
410.874196
 31
0.0
 11
-84.886229
 21
416.651367
 31
0.0
  0
LINE
  5
144
100
AcDbEntity
  8
0
 62
7
100
AcDbLine
 10
-92.920896
 20
446.236816
 30
0.0
 11
-138.963868
 21
490.905761
 31
0.0
  0
SPLINE
  5
145
100
AcDbEntity
  8
0
 62
7
100
AcDbSpline
 70
0
 71
3
 72
10
 73
6
 74
4
 40
0.000000
 40
0.000000
 40
0.000000
 40
0.000000
 40
8.763234
 40
18.613474
 40
32.308064
 40
32.308064
 40
32.308064
 40
32.308064
 10
-84.886229
 20
416.651367
 30
0.0
 10
-86.475902
 20
419.322745
 30
0.0
 10
-89.852434
 20
424.996863
 30
0.0
 10
-83.276624
 20
436.031413
 30
0.0
 10
-89.374269
 20
442.483836
 30
0.0
 10
-92.920896
 20
446.236816
 30
0.0
 11
-84.886229
 21
416.651367
 31
0.0
 11
-88.067099
 21
424.816925
 31
0.0
 11
-85.965086
 21
434.440270
 31
0.0
 11
-92.920896
 21
446.236816
 31
0.0
  0
SPLINE
  5
146
100
AcDbEntity
  8
0
 62
7
100
AcDbSpline
 70
0
 71
3
 72
10
 73
6
 74
4
 40
0.000000
 40
0.000000
 40
0.000000
 40
0.000000
 40
10.441243
 40
21.059205
 40
33.699489
 40
33.699489
 40
33.699489
 40
33.699489
 10
-138.963868
 20
490.905761
 30
0.0
 10
-141.523172
 20
493.234660
 30
0.0
 10
-146.685096
 20
497.931875
 30
0.0
 10
-157.698985
 20
502.849597
 30
0.0
 10
-165.188130
 20
499.745558
 30
0.0
 10
-169.258295
 20
498.058589
 30
0.0
 11
-138.963868
 21
490.905761
 31
0.0
 11
-147.064786
 21
497.493226
 31
0.0
 11
-157.014638
 21
501.200186
 31
0.0
 11
-169.258295
 21
498.058589
 31
0.0
  0
SPLINE
  5
147
100
AcDbEntity
  8
0
 62
7
100
AcDbSpline
 70
0
 71
3
 72
10
 73
6
 74
4
 40
0.000000
 40
0.000000
 40
0.000000
 40
0.000000
 40
0.105703
 40
0.209179
 40
0.314339
 40
0.314339
 40
0.314339
 40
0.314339
 10
-169.258295
 20
498.058589
 30
0.0
 10
-169.284476
 20
498.035008
 30
0.0
 10
-169.336286
 20
497.988344
 30
0.0
 10
-169.414860
 20
497.919025
 30
0.0
 10
-169.466594
 20
497.872548
 30
0.0
 10
-169.492670
 20
497.849121
 30
0.0
 11
-169.258295
 21
498.058589
 31
0.0
 11
-169.336959
 21
497.987984
 31
0.0
 11
-169.414336
 21
497.919281
 31
0.0
 11
-169.492670
 21
497.849121
 31
0.0
  0
SPLINE
  5
148
100
AcDbEntity
  8
0
 62
7
100
AcDbSpline
 70
0
 71
3
 72
10
 73
6
 74
4
 40
0.000000
 40
0.000000
 40
0.000000
 40
0.000000
 40
9.479292
 40
18.965423
 40
28.465774
 40
28.465774
 40
28.465774
 40
28.465774
 10
-169.492670
 20
497.849121
 30
0.0
 10
-172.554094
 20
497.066798
 30
0.0
 10
-178.679151
 20
495.501586
 30
0.0
 10
-187.917159
 20
493.331296
 30
0.0
 10
-194.108211
 20
492.017335
 30
0.0
 10
-197.206055
 20
491.359862
 30
0.0
 11
-169.492670
 21
497.849121
 31
0.0
 11
-178.684387
 21
495.531941
 31
0.0
 11
-187.919873
 21
493.365732
 31
0.0
 11
-197.206055
 21
491.359862
 31
0.0
  0
LINE
  5
149
100
AcDbEntity
  8
0
 62
7
100
AcDbLine
 10
-212.066892
 20
488.556151
 30
0.0
 11
-212.721680
 21
492.369140
 31
0.0
  0
LINE
  5
14a
100
AcDbEntity
  8
0
 62
7
100
AcDbLine
 10
-212.721680
 20
492.369140
 30
0.0
 11
-197.937012
 21
495.181641
 31
0.0
  0
SPLINE
  5
14b
100
AcDbEntity
  8
0
 62
7
100
AcDbSpline
 70
0
 71
3
 72
10
 73
6
 74
4
 40
0.000000
 40
0.000000
 40
0.000000
 40
0.000000
 40
5.047459
 40
10.087948
 40
15.123544
 40
15.123544
 40
15.123544
 40
15.123544
 10
-197.206055
 20
491.359862
 30
0.0
 10
-198.855713
 20
491.029121
 30
0.0
 10
-202.152751
 20
490.368094
 30
0.0
 10
-207.104915
 20
489.423936
 30
0.0
 10
-210.413435
 20
488.845319
 30
0.0
 10
-212.066892
 20
488.556151
 30
0.0
 11
-197.206055
 21
491.359862
 31
0.0
 11
-202.156590
 21
490.375458
 31
0.0
 11
-207.108803
 21
489.436250
 31
0.0
 11
-212.066892
 21
488.556151
 31
0.0
  0
LINE
  5
14c
100
AcDbEntity
  8
0
 62
7
100
AcDbLine
 10
-236.689452
 20
558.395503
 30
0.0
 11
-236.689452
 21
558.395503
 31
0.0
  0
SPLINE
  5
14d
100
AcDbEntity
  8
0
 62
7
100
AcDbSpline
 70
0
 71
3
 72
10
 73
6
 74
4
 40
0.000000
 40
0.000000
 40
0.000000
 40
0.000000
 40
17.882192
 40
52.161170
 40
74.929855
 40
74.929855
 40
74.929855
 40
74.929855
 10
-197.937012
 20
495.181641
 30
0.0
 10
-200.342022
 20
500.616225
 30
0.0
 10
-207.357276
 20
516.468546
 30
0.0
 10
-216.991070
 20
540.147914
 30
0.0
 10
-231.070224
 20
553.190133
 30
0.0
 10
-236.689452
 20
558.395503
 30
0.0
 11
-197.937012
 21
495.181641
 31
0.0
 11
-205.115743
 21
511.559634
 31
0.0
 11
-220.906126
 21
541.985151
 31
0.0
 11
-236.689452
 21
558.395503
 31
0.0
  0
LINE
  5
14e
100
AcDbEntity
  8
0
 62
7
100
AcDbLine
 10
-623.607420
 20
221.083980
 30
0.0
 11
-623.607420
 21
221.083980
 31
0.0
  0
SPLINE
  5
14f
100
AcDbEntity
  8
0
 62
7
100
AcDbSpline
 70
0
 71
3
 72
61
 73
57
 74
55
 40
0.000000
 40
0.000000
 40
0.000000
 40
0.000000
 40
0.917701
 40
1.811116
 40
2.728816
 40
3.470593
 40
5.421679
 40
8.171889
 40
11.312496
 40
14.376470
 40
16.877421
 40
21.784640
 40
26.726371
 40
31.693693
 40
36.675094
 40
41.663135
 40
46.651388
 40
49.229741
 40
52.394376
 40
55.641971
 40
58.489529
 40
60.511706
 40
61.281001
 40
61.943701
 40
62.596690
 40
63.259390
 40
63.922090
 40
64.575079
 40
65.237779
 40
65.900479
 40
66.553468
 40
67.216168
 40
68.015729
 40
70.116355
 40
73.072095
 40
76.439675
 40
79.844555
 40
82.962756
 40
87.997338
 40
93.029540
 40
98.052360
 40
103.059209
 40
108.044981
 40
113.001489
 40
116.060900
 40
119.377724
 40
122.646754
 40
125.511251
 40
127.545132
 40
128.318824
 40
128.850539
 40
129.377123
 40
129.908838
 40
130.440553
 40
130.967137
 40
131.498852
 40
131.498852
 40
131.498852
 40
131.498852
 10
-623.607420
 20
221.083980
 30
0.0
 10
-623.915188
 20
221.037067
 30
0.0
 10
-624.522578
 20
220.944483
 30
0.0
 10
-625.233443
 20
220.282964
 30
0.0
 10
-625.481488
 20
219.446439
 30
0.0
 10
-625.578372
 20
218.248594
 30
0.0
 10
-625.852067
 20
216.452511
 30
0.0
 10
-626.240525
 20
213.868258
 30
0.0
 10
-626.816930
 20
210.938800
 30
0.0
 10
-627.478679
 20
208.110255
 30
0.0
 10
-628.637132
 20
204.810436
 30
0.0
 10
-630.462531
 20
201.114473
 30
0.0
 10
-632.529383
 20
196.630417
 30
0.0
 10
-634.707546
 20
192.169837
 30
0.0
 10
-636.913521
 20
187.705776
 30
0.0
 10
-639.220581
 20
183.287060
 30
0.0
 10
-641.062211
 20
179.523423
 30
0.0
 10
-643.000623
 20
176.509701
 30
0.0
 10
-644.874427
 20
174.167173
 30
0.0
 10
-646.884046
 20
171.823569
 30
0.0
 10
-648.727420
 20
169.843976
 30
0.0
 10
-650.013308
 20
168.469306
 30
0.0
 10
-650.842996
 20
167.674823
 30
0.0
 10
-651.287406
 20
167.126726
 30
0.0
 10
-651.465961
 20
166.473356
 30
0.0
 10
-651.417778
 20
165.803408
 30
0.0
 10
-651.136869
 20
165.190563
 30
0.0
 10
-650.662790
 20
164.713330
 30
0.0
 10
-650.051857
 20
164.428400
 30
0.0
 10
-649.382102
 20
164.375631
 30
0.0
 10
-648.728086
 20
164.550391
 30
0.0
 10
-648.166941
 20
164.995375
 30
0.0
 10
-647.359269
 20
165.863248
 30
0.0
 10
-645.989122
 20
167.255913
 30
0.0
 10
-644.094731
 20
169.328646
 30
0.0
 10
-641.963113
 20
171.772063
 30
0.0
 10
-639.898196
 20
174.347906
 30
0.0
 10
-637.845821
 20
177.617003
 30
0.0
 10
-635.886699
 20
181.554203
 30
0.0
 10
-633.566924
 20
186.016562
 30
0.0
 10
-631.339550
 20
190.516401
 30
0.0
 10
-629.146573
 20
195.015908
 30
0.0
 10
-627.052973
 20
199.537161
 30
0.0
 10
-625.161086
 20
203.439402
 30
0.0
 10
-623.864934
 20
206.996025
 30
0.0
 10
-623.134398
 20
210.131961
 30
0.0
 10
-622.555352
 20
213.228126
 30
0.0
 10
-622.122205
 20
215.916245
 30
0.0
 10
-621.888706
 20
217.793507
 30
0.0
 10
-621.727031
 20
218.893583
 30
0.0
 10
-621.714500
 20
219.510136
 30
0.0
 10
-621.879295
 20
220.023384
 30
0.0
 10
-622.174174
 20
220.471935
 30
0.0
 10
-622.584757
 20
220.816553
 30
0.0
 10
-623.075335
 20
221.043523
 30
0.0
 10
-623.429486
 20
221.070451
 30
0.0
 10
-623.607420
 20
221.083980
 30
0.0
 11
-623.607420
 21
221.083980
 31
0.0
 11
-624.495910
 21
220.854286
 31
0.0
 11
-625.155130
 21
220.251277
 31
0.0
 11
-625.462890
 21
219.386720
 31
0.0
 11
-625.550714
 21
218.650161
 31
0.0
 11
-625.811280
 21
216.716553
 31
0.0
 11
-626.240230
 21
214.000000
 31
0.0
 11
-626.840377
 21
210.917268
 31
0.0
 11
-627.579860
 21
207.943869
 31
0.0
 11
-628.402340
 21
205.582030
 31
0.0
 11
-630.437117
 21
201.116553
 31
0.0
 11
-632.542523
 21
196.645763
 31
0.0
 11
-634.708980
 21
192.175780
 31
0.0
 11
-636.928847
 21
187.716347
 31
0.0
 11
-639.201719
 21
183.276233
 31
0.0
 11
-641.527340
 21
178.863280
 31
0.0
 11
-642.926886
 21
176.697829
 31
0.0
 11
-644.870581
 21
174.200438
 31
0.0
 11
-646.988280
 21
171.738280
 31
0.0
 11
-648.916426
 21
169.642846
 31
0.0
 11
-650.316827
 21
168.184054
 31
0.0
 11
-650.857420
 21
167.636720
 31
0.0
 11
-651.248454
 21
167.101683
 31
0.0
 11
-651.427942
 21
166.473847
 31
0.0
 11
-651.378800
 21
165.812972
 31
0.0
 11
-651.102898
 21
165.210435
 31
0.0
 11
-650.642699
 21
164.747175
 31
0.0
 11
-650.042005
 21
164.467284
 31
0.0
 11
-649.381470
 21
164.413761
 31
0.0
 11
-648.752458
 21
164.589082
 31
0.0
 11
-648.214840
 21
164.976560
 31
0.0
 11
-647.652602
 21
165.545055
 31
0.0
 11
-646.197135
 21
167.059732
 31
0.0
 11
-644.195310
 21
169.234380
 31
0.0
 11
-641.988606
 21
171.778206
 31
0.0
 11
-639.893791
 21
174.462411
 31
0.0
 11
-638.220700
 21
177.093750
 31
0.0
 11
-635.873388
 21
181.547641
 31
0.0
 11
-633.580219
 21
186.026975
 31
0.0
 11
-631.341800
 21
190.523440
 31
0.0
 11
-629.158546
 21
195.029208
 31
0.0
 11
-627.035217
 21
199.540239
 31
0.0
 11
-624.980470
 21
204.050780
 31
0.0
 11
-623.951084
 21
206.931814
 31
0.0
 11
-623.154946
 21
210.151673
 31
0.0
 11
-622.544920
 21
213.363280
 31
0.0
 11
-622.098033
 21
216.192704
 31
0.0
 11
-621.826147
 21
218.208330
 31
0.0
 11
-621.734380
 21
218.976560
 31
0.0
 11
-621.743980
 21
219.508189
 31
0.0
 11
-621.900199
 21
220.011066
 31
0.0
 11
-622.193520
 21
220.454557
 31
0.0
 11
-622.599523
 21
220.797899
 31
0.0
 11
-623.080592
 21
221.012055
 31
0.0
 11
-623.607420
 21
221.083980
 31
0.0
  0
LINE
  5
150
100
AcDbEntity
  8
0
 62
7
100
AcDbLine
 10
2.050781
 20
140.949220
 30
0.0
 11
2.050781
 21
137.949220
 31
0.0
  0
LINE
  5
151
100
AcDbEntity
  8
0
 62
7
100
AcDbLine
 10
2.050781
 20
137.949220
 30
0.0
 11
54.824219
 21
137.949220
 31
0.0
  0
LINE
  5
152
100
AcDbEntity
  8
0
 62
7
100
AcDbLine
 10
54.824219
 20
137.949220
 30
0.0
 11
54.824219
 21
140.949220
 31
0.0
  0
LINE
  5
153
100
AcDbEntity
  8
0
 62
7
100
AcDbLine
 10
54.824219
 20
140.949220
 30
0.0
 11
2.050781
 21
140.949220
 31
0.0
  0
SPLINE
  5
154
100
AcDbEntity
  8
0
 62
7
100
AcDbSpline
 70
0
 71
3
 72
16
 73
12
 74
10
 40
0.000000
 40
0.000000
 40
0.000000
 40
0.000000
 40
104.011591
 40
206.203989
 40
310.215580
 40
414.227166
 40
516.419559
 40
620.431145
 40
724.442734
 40
826.635130
 40
930.646718
 40
930.646718
 40
930.646718
 40
930.646718
 10
-550.101470
 20
100.814790
 30
0.0
 10
-551.231867
 20
135.913558
 30
0.0
 10
-553.472890
 20
205.497207
 30
0.0
 10
-506.302923
 20
301.827047
 30
0.0
 10
-428.991136
 20
373.707164
 30
0.0
 10
-329.328754
 20
410.555389
 30
0.0
 10
-223.503972
 20
407.036909
 30
0.0
 10
-126.509255
 20
363.650196
 30
0.0
 10
-54.142697
 20
286.793546
 30
0.0
 10
-13.475413
 20
187.543280
 30
0.0
 10
-20.333436
 20
118.262159
 30
0.0
 10
-23.792699
 20
83.315990
 30
0.0
 11
-550.101470
 21
100.814790
 31
0.0
 11
-544.944947
 21
204.698481
 31
0.0
 11
-501.658624
 21
297.270510
 31
0.0
 11
-425.244190
 21
367.834277
 31
0.0
 11
-327.702101
 21
403.944537
 31
0.0
 11
-225.566144
 21
400.548704
 31
0.0
 11
-130.638020
 21
358.039161
 31
0.0
 11
-59.079397
 21
282.555560
 31
0.0
 11
-22.037576
 21
187.312769
 31
0.0
 11
-23.792699
 21
83.315990
 31
0.0
  0
LINE
  5
155
100
AcDbEntity
  8
0
 62
7
100
AcDbLine
 10
-315.288573
 20
329.573731
 30
0.0
 11
-314.390621
 21
323.878419
 31
0.0
  0
SPLINE
  5
156
100
AcDbEntity
  8
0
 62
7
100
AcDbSpline
 70
0
 71
3
 72
10
 73
6
 74
4
 40
0.000000
 40
0.000000
 40
0.000000
 40
0.000000
 40
10.022768
 40
20.042143
 40
30.064914
 40
30.064914
 40
30.064914
 40
30.064914
 10
-285.361811
 20
332.153319
 30
0.0
 10
-288.702297
 20
332.074872
 30
0.0
 10
-295.382139
 20
331.918005
 30
0.0
 10
-305.375777
 20
331.056586
 30
0.0
 10
-311.983935
 20
330.068072
 30
0.0
 10
-315.288573
 20
329.573731
 30
0.0
 11
-285.361811
 21
332.153319
 31
0.0
 11
-295.378820
 21
331.813598
 31
0.0
 11
-305.361180
 21
330.953151
 31
0.0
 11
-315.288573
 21
329.573731
 31
0.0
  0
SPLINE
  5
157
100
AcDbEntity
  8
0
 62
7
100
AcDbSpline
 70
0
 71
3
 72
10
 73
6
 74
4
 40
0.000000
 40
0.000000
 40
0.000000
 40
0.000000
 40
9.722028
 40
19.440765
 40
29.162796
 40
29.162796
 40
29.162796
 40
29.162796
 10
-314.390621
 20
323.878419
 30
0.0
 10
-311.185137
 20
324.357900
 30
0.0
 10
-304.775256
 20
325.316701
 30
0.0
 10
-295.081476
 20
326.152196
 30
0.0
 10
-288.602066
 20
326.304306
 30
0.0
 10
-285.361811
 20
326.380374
 30
0.0
 11
-314.390621
 21
323.878419
 31
0.0
 11
-304.761098
 21
325.216370
 31
0.0
 11
-295.078259
 21
326.050922
 31
0.0
 11
-285.361811
 21
326.380374
 31
0.0
  0
LINE
  5
158
100
AcDbEntity
  8
0
 62
7
100
AcDbLine
 10
-256.044432
 20
323.957521
 30
0.0
 11
-255.137689
 21
329.655766
 31
0.0
  0
SPLINE
  5
159
100
AcDbEntity
  8
0
 62
7
100
AcDbSpline
 70
0
 71
3
 72
10
 73
6
 74
4
 40
0.000000
 40
0.000000
 40
0.000000
 40
0.000000
 40
9.815949
 40
19.628510
 40
29.444461
 40
29.444461
 40
29.444461
 40
29.444461
 10
-285.361811
 20
326.380374
 30
0.0
 10
-282.089957
 20
326.317063
 30
0.0
 10
-275.547378
 20
326.190463
 30
0.0
 10
-265.756891
 20
325.381365
 30
0.0
 10
-259.282291
 20
324.432190
 30
0.0
 10
-256.044432
 20
323.957521
 30
0.0
 11
-285.361811
 21
326.380374
 31
0.0
 11
-275.550241
 21
326.087213
 31
0.0
 11
-265.771017
 21
325.279042
 31
0.0
 11
-256.044432
 21
323.957521
 31
0.0
  0
LINE
  5
15a
100
AcDbEntity
  8
0
 62
7
100
AcDbLine
 10
-285.361811
 20
332.153319
 30
0.0
 11
-285.361811
 21
332.153319
 31
0.0
  0
LINE
  5
15b
100
AcDbEntity
  8
0
 62
7
100
AcDbLine
 10
-197.881347
 20
311.106444
 30
0.0
 11
-200.506347
 21
305.964842
 31
0.0
  0
SPLINE
  5
15c
100
AcDbEntity
  8
0
 62
7
100
AcDbSpline
 70
0
 71
3
 72
10
 73
6
 74
4
 40
0.000000
 40
0.000000
 40
0.000000
 40
0.000000
 40
10.119537
 40
20.235580
 40
30.355115
 40
30.355115
 40
30.355115
 40
30.355115
 10
-255.137689
 20
329.655766
 30
0.0
 10
-258.475692
 20
330.145090
 30
0.0
 10
-265.150545
 20
331.123570
 30
0.0
 10
-275.243837
 20
331.957623
 30
0.0
 10
-281.988765
 20
332.088079
 30
0.0
 10
-285.361811
 20
332.153319
 30
0.0
 11
-255.137689
 21
329.655766
 31
0.0
 11
-265.165108
 21
331.018083
 31
0.0
 11
-275.246788
 21
331.851177
 31
0.0
 11
-285.361811
 21
332.153319
 31
0.0
  0
LINE
  5
15d
100
AcDbEntity
  8
0
 62
7
100
AcDbLine
 10
-153.366208
 20
271.529297
 30
0.0
 11
-149.283688
 21
275.605959
 31
0.0
  0
SPLINE
  5
15e
100
AcDbEntity
  8
0
 62
7
100
AcDbSpline
 70
0
 71
3
 72
10
 73
6
 74
4
 40
0.000000
 40
0.000000
 40
0.000000
 40
0.000000
 40
19.539508
 40
39.052396
 40
58.591903
 40
58.591903
 40
58.591903
 40
58.591903
 10
-200.506347
 20
305.964842
 30
0.0
 10
-194.803661
 20
302.810353
 30
0.0
 10
-183.406057
 20
296.505673
 30
0.0
 10
-167.577644
 20
284.943129
 30
0.0
 10
-158.105505
 20
276.002606
 30
0.0
 10
-153.366208
 20
271.529297
 30
0.0
 11
-200.506347
 21
305.964842
 31
0.0
 11
-183.610508
 21
296.150414
 31
0.0
 11
-167.853902
 21
284.640324
 31
0.0
 11
-153.366208
 21
271.529297
 31
0.0
  0
LINE
  5
15f
100
AcDbEntity
  8
0
 62
7
100
AcDbLine
 10
-197.881347
 20
311.106444
 30
0.0
 11
-197.881347
 21
311.106444
 31
0.0
  0
SPLINE
  5
160
100
AcDbEntity
  8
0
 62
7
100
AcDbSpline
 70
0
 71
3
 72
10
 73
6
 74
4
 40
0.000000
 40
0.000000
 40
0.000000
 40
0.000000
 40
20.143689
 40
40.259940
 40
60.403633
 40
60.403633
 40
60.403633
 40
60.403633
 10
-149.283688
 20
275.605959
 30
0.0
 10
-154.169519
 20
280.217599
 30
0.0
 10
-163.934525
 20
289.434595
 30
0.0
 10
-180.252332
 20
301.354719
 30
0.0
 10
-192.002339
 20
307.854392
 30
0.0
 10
-197.881347
 20
311.106444
 30
0.0
 11
-149.283688
 21
275.605959
 31
0.0
 11
-164.219324
 21
289.122430
 31
0.0
 11
-180.463106
 21
300.988478
 31
0.0
 11
-197.881347
 21
311.106444
 31
0.0
  0
LINE
  5
161
100
AcDbEntity
  8
0
 62
7
100
AcDbLine
 10
-421.242182
 20
275.803697
 30
0.0
 11
-417.166989
 21
271.721177
 31
0.0
  0
SPLINE
  5
162
100
AcDbEntity
  8
0
 62
7
100
AcDbSpline
 70
0
 71
3
 72
10
 73
6
 74
4
 40
0.000000
 40
0.000000
 40
0.000000
 40
0.000000
 40
20.133894
 40
40.240388
 40
60.374282
 40
60.374282
 40
60.374282
 40
60.374282
 10
-372.506830
 20
311.065419
 30
0.0
 10
-378.397523
 20
307.841392
 30
0.0
 10
-390.170894
 20
301.397725
 30
0.0
 10
-406.534819
 20
289.557857
 30
0.0
 10
-416.337503
 20
280.390498
 30
0.0
 10
-421.242182
 20
275.803697
 30
0.0
 11
-372.506830
 21
311.065419
 31
0.0
 11
-389.961975
 21
301.030898
 31
0.0
 11
-406.251737
 21
289.244688
 31
0.0
 11
-421.242182
 21
275.803697
 31
0.0
  0
LINE
  5
163
100
AcDbEntity
  8
0
 62
7
100
AcDbLine
 10
-369.893553
 20
305.925279
 30
0.0
 11
-372.506830
 21
311.065419
 31
0.0
  0
SPLINE
  5
164
100
AcDbEntity
  8
0
 62
7
100
AcDbSpline
 70
0
 71
3
 72
10
 73
6
 74
4
 40
0.000000
 40
0.000000
 40
0.000000
 40
0.000000
 40
19.529963
 40
39.033346
 40
58.563310
 40
58.563310
 40
58.563310
 40
58.563310
 10
-417.166989
 20
271.721177
 30
0.0
 10
-412.409441
 20
276.170405
 30
0.0
 10
-402.900818
 20
285.062806
 30
0.0
 10
-387.027760
 20
296.547557
 30
0.0
 10
-375.607547
 20
302.797953
 30
0.0
 10
-369.893553
 20
305.925279
 30
0.0
 11
-417.166989
 21
271.721177
 31
0.0
 11
-402.626225
 21
284.759030
 31
0.0
 11
-386.825107
 21
296.191731
 31
0.0
 11
-369.893553
 21
305.925279
 31
0.0
  0
LINE
  5
165
100
AcDbEntity
  8
0
 62
7
100
AcDbLine
 10
-475.293451
 20
169.949696
 30
0.0
 11
-469.596676
 21
169.042953
 31
0.0
  0
SPLINE
  5
166
100
AcDbEntity
  8
0
 62
7
100
AcDbSpline
 70
0
 71
3
 72
10
 73
6
 74
4
 40
0.000000
 40
0.000000
 40
0.000000
 40
0.000000
 40
20.144672
 40
40.261899
 40
60.406570
 40
60.406570
 40
60.406570
 40
60.406570
 10
-456.744136
 20
227.206045
 30
0.0
 10
-459.599513
 20
221.124122
 30
0.0
 10
-465.306376
 20
208.968560
 30
0.0
 10
-471.534748
 20
189.743380
 30
0.0
 10
-474.039981
 20
176.550588
 30
0.0
 10
-475.293451
 20
169.949696
 30
0.0
 11
-456.744136
 21
227.206045
 31
0.0
 11
-464.920846
 21
208.795471
 31
0.0
 11
-471.120961
 21
189.657514
 31
0.0
 11
-475.293451
 21
169.949696
 31
0.0
  0
LINE
  5
167
100
AcDbEntity
  8
0
 62
7
100
AcDbLine
 10
-451.603996
 20
224.581045
 30
0.0
 11
-456.744136
 21
227.206045
 31
0.0
  0
LINE
  5
168
100
AcDbEntity
  8
0
 62
7
100
AcDbLine
 10
-114.021973
 20
226.870593
 30
0.0
 11
-119.163576
 21
224.255845
 31
0.0
  0
SPLINE
  5
169
100
AcDbEntity
  8
0
 62
7
100
AcDbSpline
 70
0
 71
3
 72
10
 73
6
 74
4
 40
0.000000
 40
0.000000
 40
0.000000
 40
0.000000
 40
19.540133
 40
39.053647
 40
58.593780
 40
58.593780
 40
58.593780
 40
58.593780
 10
-469.596676
 20
169.042953
 30
0.0
 10
-468.380812
 20
175.445752
 30
0.0
 10
-465.950740
 20
188.242626
 30
0.0
 10
-459.909270
 20
206.890858
 30
0.0
 10
-454.373679
 20
218.681637
 30
0.0
 10
-451.603996
 20
224.581045
 30
0.0
 11
-469.596676
 21
169.042953
 31
0.0
 11
-465.549374
 21
188.159338
 31
0.0
 11
-459.535314
 21
206.722966
 31
0.0
 11
-451.603996
 21
224.581045
 31
0.0
  0
LINE
  5
16a
100
AcDbEntity
  8
0
 62
7
100
AcDbLine
 10
-101.210451
 20
168.754383
 30
0.0
 11
-95.513669
 21
169.652328
 31
0.0
  0
SPLINE
  5
16b
100
AcDbEntity
  8
0
 62
7
100
AcDbSpline
 70
0
 71
3
 72
10
 73
6
 74
4
 40
0.000000
 40
0.000000
 40
0.000000
 40
0.000000
 40
19.524260
 40
39.021966
 40
58.546227
 40
58.546227
 40
58.546227
 40
58.546227
 10
-119.163576
 20
224.255845
 30
0.0
 10
-116.399411
 20
218.359704
 30
0.0
 10
-110.874839
 20
206.575440
 30
0.0
 10
-104.846722
 20
187.939728
 30
0.0
 10
-102.423091
 20
175.152399
 30
0.0
 10
-101.210451
 20
168.754383
 30
0.0
 11
-119.163576
 21
224.255845
 31
0.0
 11
-111.248277
 21
206.408022
 31
0.0
 11
-105.247465
 21
187.856721
 31
0.0
 11
-101.210451
 21
168.754383
 31
0.0
  0
LINE
  5
16c
100
AcDbEntity
  8
0
 62
7
100
AcDbLine
 10
-114.021973
 20
226.870593
 30
0.0
 11
-114.021973
 21
226.870593
 31
0.0
  0
LINE
  5
16d
100
AcDbEntity
  8
0
 62
7
100
AcDbLine
 10
-96.937500
 20
141.226560
 30
0.0
 11
-96.937500
 21
138.226560
 31
0.0
  0
LINE
  5
16e
100
AcDbEntity
  8
0
 62
7
100
AcDbLine
 10
-96.937500
 20
138.226560
 30
0.0
 11
-44.162109
 21
138.226560
 31
0.0
  0
LINE
  5
16f
100
AcDbEntity
  8
0
 62
7
100
AcDbLine
 10
-44.162109
 20
138.226560
 30
0.0
 11
-44.162109
 21
141.226560
 31
0.0
  0
LINE
  5
170
100
AcDbEntity
  8
0
 62
7
100
AcDbLine
 10
-44.162109
 20
141.226560
 30
0.0
 11
-96.937500
 21
141.226560
 31
0.0
  0
SPLINE
  5
171
100
AcDbEntity
  8
0
 62
7
100
AcDbSpline
 70
0
 71
3
 72
10
 73
6
 74
4
 40
0.000000
 40
0.000000
 40
0.000000
 40
0.000000
 40
20.128182
 40
40.228985
 40
60.357166
 40
60.357166
 40
60.357166
 40
60.357166
 10
-95.513669
 20
169.652328
 30
0.0
 10
-96.763799
 20
176.248250
 30
0.0
 10
-99.262358
 20
189.431121
 30
0.0
 10
-105.476889
 20
208.643284
 30
0.0
 10
-111.172320
 20
220.792067
 30
0.0
 10
-114.021973
 20
226.870593
 30
0.0
 11
-95.513669
 21
169.652328
 31
0.0
 11
-99.675498
 21
189.345548
 31
0.0
 11
-105.861879
 21
208.470688
 31
0.0
 11
-114.021973
 21
226.870593
 31
0.0
  0
SPLINE
  5
172
100
AcDbEntity
  8
0
 62
7
100
AcDbSpline
 70
0
 71
3
 72
13
 73
9
 74
7
 40
0.000000
 40
0.000000
 40
0.000000
 40
0.000000
 40
7.607661
 40
15.152364
 40
22.760024
 40
30.367685
 40
37.912388
 40
45.520048
 40
45.520048
 40
45.520048
 40
45.520048
 10
-315.073970
 20
274.817160
 30
0.0
 10
-317.617263
 20
274.623384
 30
0.0
 10
-322.682802
 20
274.237435
 30
0.0
 10
-329.769215
 20
271.187969
 30
0.0
 10
-335.867480
 20
266.548586
 30
0.0
 10
-340.506557
 20
260.450088
 30
0.0
 10
-343.555668
 20
253.363521
 30
0.0
 10
-343.941362
 20
248.297963
 30
0.0
 10
-344.135010
 20
245.754660
 30
0.0
 11
-315.073970
 21
274.817160
 31
0.0
 11
-322.616176
 21
273.821355
 31
0.0
 11
-329.586514
 21
270.933979
 31
0.0
 11
-335.623610
 21
266.304727
 31
0.0
 11
-340.252558
 21
260.267399
 31
0.0
 11
-343.139583
 21
253.296916
 31
0.0
 11
-344.135010
 21
245.754660
 31
0.0
  0
SPLINE
  5
173
100
AcDbEntity
  8
0
 62
7
100
AcDbSpline
 70
0
 71
3
 72
10
 73
6
 74
4
 40
0.000000
 40
0.000000
 40
0.000000
 40
0.000000
 40
4.555215
 40
9.096611
 40
13.651826
 40
13.651826
 40
13.651826
 40
13.651826
 10
-344.135010
 20
245.754660
 30
0.0
 10
-344.063508
 20
244.235907
 30
0.0
 10
-343.920721
 20
241.203007
 30
0.0
 10
-342.851653
 20
236.741620
 30
0.0
 10
-341.604336
 20
233.973395
 30
0.0
 10
-340.979730
 20
232.587180
 30
0.0
 11
-344.135010
 21
245.754660
 31
0.0
 11
-343.777680
 21
241.213482
 31
0.0
 11
-342.719400
 21
236.797112
 31
0.0
 11
-340.979730
 21
232.587180
 31
0.0
  0
SPLINE
  5
174
100
AcDbEntity
  8
0
 62
7
100
AcDbSpline
 70
0
 71
3
 72
10
 73
6
 74
4
 40
0.000000
 40
0.000000
 40
0.000000
 40
0.000000
 40
20.758769
 40
41.399057
 40
62.157827
 40
62.157827
 40
62.157827
 40
62.157827
 10
-340.979730
 20
232.587180
 30
0.0
 10
-346.367442
 20
228.216635
 30
0.0
 10
-357.112115
 20
219.500491
 30
0.0
 10
-369.501544
 20
202.496253
 30
0.0
 10
-374.505668
 20
189.597496
 30
0.0
 10
-377.014890
 20
183.129660
 30
0.0
 11
-340.979730
 21
232.587180
 31
0.0
 11
-356.516062
 21
218.819504
 31
0.0
 11
-368.670663
 21
202.137563
 31
0.0
 11
-377.014890
 21
183.129660
 31
0.0
  0
SPLINE
  5
175
100
AcDbEntity
  8
0
 62
7
100
AcDbSpline
 70
0
 71
3
 72
10
 73
6
 74
4
 40
0.000000
 40
0.000000
 40
0.000000
 40
0.000000
 40
1.474426
 40
2.948379
 40
4.422806
 40
4.422806
 40
4.422806
 40
4.422806
 10
-377.014890
 20
183.129660
 30
0.0
 10
-377.501262
 20
183.200772
 30
0.0
 10
-378.473850
 20
183.342974
 30
0.0
 10
-379.944143
 20
183.467210
 30
0.0
 10
-380.926802
 20
183.490222
 30
0.0
 10
-381.418210
 20
183.501730
 30
0.0
 11
-377.014890
 21
183.129660
 31
0.0
 11
-378.475895
 21
183.328146
 31
0.0
 11
-379.944614
 21
183.452250
 31
0.0
 11
-381.418210
 21
183.501730
 31
0.0
  0
SPLINE
  5
176
100
AcDbEntity
  8
0
 62
7
100
AcDbSpline
 70
0
 71
3
 72
13
 73
9
 74
7
 40
0.000000
 40
0.000000
 40
0.000000
 40
0.000000
 40
7.607659
 40
15.152361
 40
22.760020
 40
30.367679
 40
37.912381
 40
45.520040
 40
45.520040
 40
45.520040
 40
45.520040
 10
-381.418210
 20
183.501730
 30
0.0
 10
-383.961503
 20
183.307953
 30
0.0
 10
-389.027041
 20
182.922004
 30
0.0
 10
-396.113452
 20
179.872536
 30
0.0
 10
-402.211715
 20
175.233153
 30
0.0
 10
-406.850790
 20
169.134655
 30
0.0
 10
-409.899899
 20
162.048090
 30
0.0
 10
-410.285592
 20
156.982532
 30
0.0
 10
-410.479240
 20
154.439230
 30
0.0
 11
-381.418210
 21
183.501730
 31
0.0
 11
-388.960414
 21
182.505923
 31
0.0
 11
-395.930750
 21
179.618547
 31
0.0
 11
-401.967844
 21
174.989295
 31
0.0
 11
-406.596791
 21
168.951967
 31
0.0
 11
-409.483815
 21
161.981485
 31
0.0
 11
-410.479240
 21
154.439230
 31
0.0
  0
SPLINE
  5
177
100
AcDbEntity
  8
0
 62
7
100
AcDbSpline
 70
0
 71
3
 72
10
 73
6
 74
4
 40
0.000000
 40
0.000000
 40
0.000000
 40
0.000000
 40
15.194763
 40
29.938870
 40
45.133633
 40
45.133633
 40
45.133633
 40
45.133633
 10
-410.479240
 20
154.439230
 30
0.0
 10
-409.679851
 20
149.347022
 30
0.0
 10
-408.104783
 20
139.313634
 30
0.0
 10
-396.543806
 20
127.752653
 30
0.0
 10
-386.510418
 20
126.177581
 30
0.0
 10
-381.418210
 20
125.378190
 30
0.0
 11
-410.479240
 21
154.439230
 31
0.0
 11
-406.511422
 21
139.771672
 31
0.0
 11
-396.085766
 21
129.346013
 31
0.0
 11
-381.418210
 21
125.378190
 31
0.0
  0
SPLINE
  5
178
100
AcDbEntity
  8
0
 62
7
100
AcDbSpline
 70
0
 71
3
 72
10
 73
6
 74
4
 40
0.000000
 40
0.000000
 40
0.000000
 40
0.000000
 40
1.506106
 40
3.011708
 40
4.517814
 40
4.517814
 40
4.517814
 40
4.517814
 10
-381.418210
 20
125.378190
 30
0.0
 10
-380.916203
 20
125.388235
 30
0.0
 10
-379.912357
 20
125.408322
 30
0.0
 10
-378.410161
 20
125.532080
 30
0.0
 10
-377.416562
 20
125.676552
 30
0.0
 10
-376.919680
 20
125.748800
 30
0.0
 11
-381.418210
 21
125.378190
 31
0.0
 11
-379.912798
 21
125.423934
 31
0.0
 11
-378.412281
 21
125.547554
 31
0.0
 11
-376.919680
 21
125.748800
 31
0.0
  0
SPLINE
  5
179
100
AcDbEntity
  8
0
 62
7
100
AcDbSpline
 70
0
 71
3
 72
10
 73
6
 74
4
 40
0.000000
 40
0.000000
 40
0.000000
 40
0.000000
 40
20.756877
 40
41.395304
 40
62.152181
 40
62.152181
 40
62.152181
 40
62.152181
 10
-376.919680
 20
125.748800
 30
0.0
 10
-374.422376
 20
119.277034
 30
0.0
 10
-369.442019
 20
106.370434
 30
0.0
 10
-357.084892
 20
89.345140
 30
0.0
 10
-346.357376
 20
80.609885
 30
0.0
 10
-340.978270
 20
76.229760
 30
0.0
 11
-376.919680
 21
125.748800
 31
0.0
 11
-368.610643
 21
106.727553
 31
0.0
 11
-356.487690
 21
90.024898
 31
0.0
 11
-340.978270
 21
76.229760
 31
0.0
  0
SPLINE
  5
17a
100
AcDbEntity
  8
0
 62
7
100
AcDbSpline
 70
0
 71
3
 72
10
 73
6
 74
4
 40
0.000000
 40
0.000000
 40
0.000000
 40
0.000000
 40
4.534342
 40
9.055054
 40
13.589396
 40
13.589396
 40
13.589396
 40
13.589396
 10
-340.978270
 20
76.229760
 30
0.0
 10
-341.600464
 20
74.850120
 30
0.0
 10
-342.842981
 20
72.094988
 30
0.0
 10
-343.912384
 20
67.655604
 30
0.0
 10
-344.060727
 20
64.636896
 30
0.0
 10
-344.135010
 20
63.125270
 30
0.0
 11
-340.978270
 21
76.229760
 31
0.0
 11
-342.711967
 21
72.039945
 31
0.0
 11
-343.770677
 21
67.644951
 31
0.0
 11
-344.135010
 21
63.125270
 31
0.0
  0
SPLINE
  5
17b
100
AcDbEntity
  8
0
 62
7
100
AcDbSpline
 70
0
 71
3
 72
13
 73
9
 74
7
 40
0.000000
 40
0.000000
 40
0.000000
 40
0.000000
 40
7.607661
 40
15.152364
 40
22.760025
 40
30.367686
 40
37.912389
 40
45.520050
 40
45.520050
 40
45.520050
 40
45.520050
 10
-344.135010
 20
63.125270
 30
0.0
 10
-343.941362
 20
60.581967
 30
0.0
 10
-343.555668
 20
55.516408
 30
0.0
 10
-340.506558
 20
48.429842
 30
0.0
 10
-335.867481
 20
42.331343
 30
0.0
 10
-329.769216
 20
37.691960
 30
0.0
 10
-322.682803
 20
34.642494
 30
0.0
 10
-317.617263
 20
34.256546
 30
0.0
 10
-315.073970
 20
34.062770
 30
0.0
 11
-344.135010
 21
63.125270
 31
0.0
 11
-343.139584
 21
55.583014
 31
0.0
 11
-340.252559
 21
48.612531
 31
0.0
 11
-335.623611
 21
42.575202
 31
0.0
 11
-329.586514
 21
37.945950
 31
0.0
 11
-322.616176
 21
35.058575
 31
0.0
 11
-315.073970
 21
34.062770
 31
0.0
  0
SPLINE
  5
17c
100
AcDbEntity
  8
0
 62
7
100
AcDbSpline
 70
0
 71
3
 72
10
 73
6
 74
4
 40
0.000000
 40
0.000000
 40
0.000000
 40
0.000000
 40
13.636495
 40
26.937809
 40
40.574304
 40
40.574304
 40
40.574304
 40
40.574304
 10
-315.073970
 20
34.062770
 30
0.0
 10
-310.511517
 20
34.710542
 30
0.0
 10
-301.498753
 20
35.990165
 30
0.0
 10
-290.479019
 20
45.380035
 30
0.0
 10
-287.785259
 20
54.075493
 30
0.0
 10
-286.421620
 20
58.477320
 30
0.0
 11
-315.073970
 21
34.062770
 31
0.0
 11
-301.821385
 21
37.275710
 31
0.0
 11
-291.697069
 21
45.902598
 31
0.0
 11
-286.421620
 21
58.477320
 31
0.0
  0
SPLINE
  5
17d
100
AcDbEntity
  8
0
 62
7
100
AcDbSpline
 70
0
 71
3
 72
10
 73
6
 74
4
 40
0.000000
 40
0.000000
 40
0.000000
 40
0.000000
 40
0.339785
 40
0.679570
 40
1.019356
 40
1.019356
 40
1.019356
 40
1.019356
 10
-286.421620
 20
58.477320
 30
0.0
 10
-286.308527
 20
58.471140
 30
0.0
 10
-286.082341
 20
58.458779
 30
0.0
 10
-285.742985
 20
58.441679
 30
0.0
 10
-285.516702
 20
58.431240
 30
0.0
 10
-285.403560
 20
58.426020
 30
0.0
 11
-286.421620
 21
58.477320
 31
0.0
 11
-286.082328
 21
58.459019
 31
0.0
 11
-285.742973
 21
58.441919
 31
0.0
 11
-285.403560
 21
58.426020
 31
0.0
  0
SPLINE
  5
17e
100
AcDbEntity
  8
0
 62
7
100
AcDbSpline
 70
0
 71
3
 72
10
 73
6
 74
4
 40
0.000000
 40
0.000000
 40
0.000000
 40
0.000000
 40
20.428079
 40
40.743165
 40
61.171244
 40
61.171244
 40
61.171244
 40
61.171244
 10
-285.403560
 20
58.426020
 30
0.0
 10
-278.591791
 20
58.873044
 30
0.0
 10
-265.005932
 20
59.764619
 30
0.0
 10
-245.367653
 20
66.293941
 30
0.0
 10
-233.952597
 20
73.714654
 30
0.0
 10
-228.229240
 20
77.435300
 30
0.0
 11
-285.403560
 21
58.426020
 31
0.0
 11
-265.095398
 21
60.636214
 31
0.0
 11
-245.817882
 21
67.045590
 31
0.0
 11
-228.229240
 21
77.435300
 31
0.0
  0
SPLINE
  5
17f
100
AcDbEntity
  8
0
 62
7
100
AcDbSpline
 70
0
 71
3
 72
10
 73
6
 74
4
 40
0.000000
 40
0.000000
 40
0.000000
 40
0.000000
 40
7.589117
 40
15.115724
 40
22.704841
 40
22.704841
 40
22.704841
 40
22.704841
 10
-228.229240
 20
77.435300
 30
0.0
 10
-226.297431
 20
75.787027
 30
0.0
 10
-222.449725
 20
72.504058
 30
0.0
 10
-215.300889
 20
69.542570
 30
0.0
 10
-210.258773
 20
69.142828
 30
0.0
 10
-207.727290
 20
68.942130
 30
0.0
 11
-228.229240
 21
77.435300
 31
0.0
 11
-222.204019
 21
72.821039
 31
0.0
 11
-215.250458
 21
69.940446
 31
0.0
 11
-207.727290
 21
68.942130
 31
0.0
  0
SPLINE
  5
180
100
AcDbEntity
  8
0
 62
7
100
AcDbSpline
 70
0
 71
3
 72
13
 73
9
 74
7
 40
0.000000
 40
0.000000
 40
0.000000
 40
0.000000
 40
7.607904
 40
15.152844
 40
22.760748
 40
30.368652
 40
37.913592
 40
45.521496
 40
45.521496
 40
45.521496
 40
45.521496
 10
-207.727290
 20
68.942130
 30
0.0
 10
-205.183905
 20
69.135791
 30
0.0
 10
-200.118185
 20
69.521510
 30
0.0
 10
-193.031426
 20
72.570812
 30
0.0
 10
-186.932826
 20
77.210166
 30
0.0
 10
-182.293472
 20
83.308766
 30
0.0
 10
-179.244170
 20
90.395525
 30
0.0
 10
-178.858451
 20
95.461245
 30
0.0
 10
-178.664790
 20
98.004630
 30
0.0
 11
-207.727290
 21
68.942130
 31
0.0
 11
-200.184797
 21
69.937620
 31
0.0
 11
-193.214131
 21
72.824824
 31
0.0
 11
-187.176707
 21
77.454047
 31
0.0
 11
-182.547484
 21
83.491471
 31
0.0
 11
-179.660280
 21
90.462137
 31
0.0
 11
-178.664790
 21
98.004630
 31
0.0
  0
SPLINE
  5
181
100
AcDbEntity
  8
0
 62
7
100
AcDbSpline
 70
0
 71
3
 72
10
 73
6
 74
4
 40
0.000000
 40
0.000000
 40
0.000000
 40
0.000000
 40
10.620547
 40
21.075404
 40
31.695951
 40
31.695951
 40
31.695951
 40
31.695951
 10
-178.664790
 20
98.004630
 30
0.0
 10
-179.057406
 20
101.551103
 30
0.0
 10
-179.836513
 20
108.588722
 30
0.0
 10
-185.593943
 20
117.989379
 30
0.0
 10
-191.508814
 20
121.881600
 30
0.0
 10
-194.489500
 20
123.843010
 30
0.0
 11
-178.664790
 21
98.004630
 31
0.0
 11
-180.616958
 21
108.444221
 31
0.0
 11
-186.077330
 21
117.359846
 31
0.0
 11
-194.489500
 21
123.843010
 31
0.0
  0
SPLINE
  5
182
100
AcDbEntity
  8
0
 62
7
100
AcDbSpline
 70
0
 71
3
 72
10
 73
6
 74
4
 40
0.000000
 40
0.000000
 40
0.000000
 40
0.000000
 40
10.384946
 40
20.754795
 40
31.139742
 40
31.139742
 40
31.139742
 40
31.139742
 10
-194.489500
 20
123.843010
 30
0.0
 10
-193.482434
 20
127.157212
 30
0.0
 10
-191.469765
 20
133.780798
 30
0.0
 10
-189.756279
 20
144.059245
 30
0.0
 10
-189.511426
 20
150.977537
 30
0.0
 10
-189.388910
 20
154.439200
 30
0.0
 11
-194.489500
 21
123.843010
 31
0.0
 11
-191.686273
 21
133.842461
 31
0.0
 11
-189.981082
 21
144.071151
 31
0.0
 11
-189.388910
 21
154.439200
 31
0.0
  0
SPLINE
  5
183
100
AcDbEntity
  8
0
 62
7
100
AcDbSpline
 70
0
 71
3
 72
10
 73
6
 74
4
 40
0.000000
 40
0.000000
 40
0.000000
 40
0.000000
 40
10.373236
 40
20.731425
 40
31.104660
 40
31.104660
 40
31.104660
 40
31.104660
 10
-189.388910
 20
154.439200
 30
0.0
 10
-189.514428
 20
157.896841
 30
0.0
 10
-189.765281
 20
164.807109
 30
0.0
 10
-191.484643
 20
175.072580
 30
0.0
 10
-193.499114
 20
181.687460
 30
0.0
 10
-194.507080
 20
184.997300
 30
0.0
 11
-189.388910
 21
154.439200
 31
0.0
 11
-189.989566
 21
164.795031
 31
0.0
 11
-191.700623
 21
175.010918
 31
0.0
 11
-194.507080
 21
184.997300
 31
0.0
  0
SPLINE
  5
184
100
AcDbEntity
  8
0
 62
7
100
AcDbSpline
 70
0
 71
3
 72
10
 73
6
 74
4
 40
0.000000
 40
0.000000
 40
0.000000
 40
0.000000
 40
10.637286
 40
21.108134
 40
31.745421
 40
31.745421
 40
31.745421
 40
31.745421
 10
-194.507080
 20
184.997300
 30
0.0
 10
-191.520618
 20
186.960338
 30
0.0
 10
-185.594421
 20
190.855700
 30
0.0
 10
-179.829027
 20
200.273312
 30
0.0
 10
-179.054904
 20
207.322736
 30
0.0
 10
-178.664790
 20
210.875240
 30
0.0
 11
-194.507080
 21
184.997300
 31
0.0
 11
-186.079145
 21
191.487429
 31
0.0
 11
-180.612089
 21
200.417712
 31
0.0
 11
-178.664790
 21
210.875240
 31
0.0
  0
SPLINE
  5
185
100
AcDbEntity
  8
0
 62
7
100
AcDbSpline
 70
0
 71
3
 72
13
 73
9
 74
7
 40
0.000000
 40
0.000000
 40
0.000000
 40
0.000000
 40
7.607904
 40
15.152844
 40
22.760748
 40
30.368652
 40
37.913592
 40
45.521496
 40
45.521496
 40
45.521496
 40
45.521496
 10
-178.664790
 20
210.875240
 30
0.0
 10
-178.858451
 20
213.418625
 30
0.0
 10
-179.244170
 20
218.484345
 30
0.0
 10
-182.293472
 20
225.571104
 30
0.0
 10
-186.932826
 20
231.669704
 30
0.0
 10
-193.031426
 20
236.309058
 30
0.0
 10
-200.118185
 20
239.358360
 30
0.0
 10
-205.183905
 20
239.744079
 30
0.0
 10
-207.727290
 20
239.937740
 30
0.0
 11
-178.664790
 21
210.875240
 31
0.0
 11
-179.660280
 21
218.417733
 31
0.0
 11
-182.547484
 21
225.388399
 31
0.0
 11
-187.176707
 21
231.425823
 31
0.0
 11
-193.214131
 21
236.055046
 31
0.0
 11
-200.184797
 21
238.942250
 31
0.0
 11
-207.727290
 21
239.937740
 31
0.0
  0
SPLINE
  5
186
100
AcDbEntity
  8
0
 62
7
100
AcDbSpline
 70
0
 71
3
 72
10
 73
6
 74
4
 40
0.000000
 40
0.000000
 40
0.000000
 40
0.000000
 40
7.592650
 40
15.122706
 40
22.715355
 40
22.715355
 40
22.715355
 40
22.715355
 10
-207.727290
 20
239.937740
 30
0.0
 10
-210.259985
 20
239.737240
 30
0.0
 10
-215.304494
 20
239.337892
 30
0.0
 10
-222.456692
 20
236.374750
 30
0.0
 10
-226.305607
 20
233.089569
 30
0.0
 10
-228.238030
 20
231.440180
 30
0.0
 11
-207.727290
 21
239.937740
 31
0.0
 11
-215.254050
 21
238.939636
 31
0.0
 11
-222.210707
 21
236.057507
 31
0.0
 11
-228.238030
 21
231.440180
 31
0.0
  0
SPLINE
  5
187
100
AcDbEntity
  8
0
 62
7
100
AcDbSpline
 70
0
 71
3
 72
10
 73
6
 74
4
 40
0.000000
 40
0.000000
 40
0.000000
 40
0.000000
 40
20.425637
 40
40.738322
 40
61.163960
 40
61.163960
 40
61.163960
 40
61.163960
 10
-228.238030
 20
231.440180
 30
0.0
 10
-233.960384
 20
235.160863
 30
0.0
 10
-245.373449
 20
242.581655
 30
0.0
 10
-265.008569
 20
249.112438
 30
0.0
 10
-278.592675
 20
250.005887
 30
0.0
 10
-285.403560
 20
250.453850
 30
0.0
 11
-228.238030
 21
231.440180
 31
0.0
 11
-245.823637
 21
241.830228
 31
0.0
 11
-265.098136
 21
248.241066
 31
0.0
 11
-285.403560
 21
250.453850
 31
0.0
  0
SPLINE
  5
188
100
AcDbEntity
  8
0
 62
7
100
AcDbSpline
 70
0
 71
3
 72
10
 73
6
 74
4
 40
0.000000
 40
0.000000
 40
0.000000
 40
0.000000
 40
0.332728
 40
0.665456
 40
0.998185
 40
0.998185
 40
0.998185
 40
0.998185
 10
-285.403560
 20
250.453850
 30
0.0
 10
-285.514416
 20
250.450400
 30
0.0
 10
-285.736127
 20
250.443499
 30
0.0
 10
-286.068650
 20
250.431766
 30
0.0
 10
-286.290297
 20
250.423022
 30
0.0
 10
-286.401120
 20
250.418650
 30
0.0
 11
-285.403560
 21
250.453850
 31
0.0
 11
-285.736120
 21
250.443269
 31
0.0
 11
-286.068641
 21
250.431536
 31
0.0
 11
-286.401120
 21
250.418650
 31
0.0
  0
LINE
  5
189
100
AcDbEntity
  8
0
 62
7
100
AcDbLine
 10
-315.073970
 20
274.817160
 30
0.0
 11
-315.073970
 21
274.817160
 31
0.0
  0
SPLINE
  5
18a
100
AcDbEntity
  8
0
 62
7
100
AcDbSpline
 70
0
 71
3
 72
10
 73
6
 74
4
 40
0.000000
 40
0.000000
 40
0.000000
 40
0.000000
 40
13.638763
 40
26.942192
 40
40.580955
 40
40.580955
 40
40.580955
 40
40.580955
 10
-286.401120
 20
250.418650
 30
0.0
 10
-287.767559
 20
254.820436
 30
0.0
 10
-290.466841
 20
263.515781
 30
0.0
 10
-301.494974
 20
272.899921
 30
0.0
 10
-310.510235
 20
274.172799
 30
0.0
 10
-315.073970
 20
274.817160
 30
0.0
 11
-286.401120
 21
250.418650
 31
0.0
 11
-291.684990
 21
262.992296
 31
0.0
 11
-301.816758
 21
271.613694
 31
0.0
 11
-315.073970
 21
274.817160
 31
0.0
  0
LINE
  5
18b
100
AcDbEntity
  8
0
 62
7
100
AcDbLine
 10
-511.350300
 20
404.141709
 30
0.0
 11
-511.350300
 21
404.141709
 31
0.0
  0
SPLINE
  5
18c
100
AcDbEntity
  8
0
 62
7
100
AcDbSpline
 70
0
 71
3
 72
61
 73
57
 74
55
 40
0.000000
 40
0.000000
 40
0.000000
 40
0.000000
 40
0.917700
 40
1.811115
 40
2.728815
 40
3.470591
 40
5.421675
 40
8.171883
 40
11.312491
 40
14.376466
 40
16.877422
 40
21.784637
 40
26.726370
 40
31.693704
 40
36.675086
 40
41.663125
 40
46.651380
 40
49.229733
 40
52.394371
 40
55.642000
 40
58.489540
 40
60.511707
 40
61.280999
 40
61.943625
 40
62.596542
 40
63.259168
 40
63.921795
 40
64.574712
 40
65.237338
 40
65.899965
 40
66.552882
 40
67.215508
 40
68.015062
 40
70.115676
 40
73.071417
 40
76.439013
 40
79.843894
 40
82.962080
 40
87.996668
 40
93.028873
 40
98.051687
 40
103.058539
 40
108.044312
 40
113.000821
 40
116.060230
 40
119.377054
 40
122.646084
 40
125.510582
 40
127.544461
 40
128.318151
 40
128.849867
 40
129.376450
 40
129.908166
 40
130.439881
 40
130.966465
 40
131.498180
 40
131.498180
 40
131.498180
 40
131.498180
 10
-511.350300
 20
404.141709
 30
0.0
 10
-511.626864
 20
404.284657
 30
0.0
 10
-512.172673
 20
404.566769
 30
0.0
 10
-513.136605
 20
404.449425
 30
0.0
 10
-513.828975
 20
403.918461
 30
0.0
 10
-514.611429
 20
403.006330
 30
0.0
 10
-515.888562
 20
401.714142
 30
0.0
 10
-517.721814
 20
399.851767
 30
0.0
 10
-519.910028
 20
397.820589
 30
0.0
 10
-522.107974
 20
395.921212
 30
0.0
 10
-524.984771
 20
393.932529
 30
0.0
 10
-528.633981
 20
392.015372
 30
0.0
 10
-532.941765
 20
389.602556
 30
0.0
 10
-537.325825
 20
387.274216
 30
0.0
 10
-541.734365
 20
384.959283
 30
0.0
 10
-546.198072
 20
382.740536
 30
0.0
 10
-549.900189
 20
380.778168
 30
0.0
 10
-553.239822
 20
379.479390
 30
0.0
 10
-556.132675
 20
378.685628
 30
0.0
 10
-559.136047
 20
377.970896
 30
0.0
 10
-561.790942
 20
377.452863
 30
0.0
 10
-563.639236
 20
377.096509
 30
0.0
 10
-564.777440
 20
376.941502
 30
0.0
 10
-565.459051
 20
376.759163
 30
0.0
 10
-565.987436
 20
376.335523
 30
0.0
 10
-566.342153
 20
375.765237
 30
0.0
 10
-566.475071
 20
375.104393
 30
0.0
 10
-566.372054
 20
374.439723
 30
0.0
 10
-566.045336
 20
373.850169
 30
0.0
 10
-565.534602
 20
373.413814
 30
0.0
 10
-564.902874
 20
373.170742
 30
0.0
 10
-564.187386
 20
373.200751
 30
0.0
 10
-563.023879
 20
373.428220
 30
0.0
 10
-561.096825
 20
373.749516
 30
0.0
 10
-558.345907
 20
374.312920
 30
0.0
 10
-555.185177
 20
375.036722
 30
0.0
 10
-552.000577
 20
375.906893
 30
0.0
 10
-548.418667
 20
377.345340
 30
0.0
 10
-544.519461
 20
379.379021
 30
0.0
 10
-540.019811
 20
381.625613
 30
0.0
 10
-535.572896
 20
383.956854
 30
0.0
 10
-531.153994
 20
386.308026
 30
0.0
 10
-526.802710
 20
388.735212
 30
0.0
 10
-522.978460
 20
390.780166
 30
0.0
 10
-519.839322
 20
392.895677
 30
0.0
 10
-517.405050
 20
395.003306
 30
0.0
 10
-515.116711
 20
397.167800
 30
0.0
 10
-513.186251
 20
399.087936
 30
0.0
 10
-511.893920
 20
400.469425
 30
0.0
 10
-511.116517
 20
401.264376
 30
0.0
 10
-510.743978
 20
401.755812
 30
0.0
 10
-510.575620
 20
402.267902
 30
0.0
 10
-510.550531
 20
402.804113
 30
0.0
 10
-510.680138
 20
403.324250
 30
0.0
 10
-510.943615
 20
403.796227
 30
0.0
 10
-511.214301
 20
404.026177
 30
0.0
 10
-511.350300
 20
404.141709
 30
0.0
 11
-511.350300
 21
404.141709
 31
0.0
 11
-512.204114
 21
404.478124
 31
0.0
 11
-513.091873
 21
404.377758
 31
0.0
 11
-513.849030
 21
403.859215
 31
0.0
 11
-514.353019
 21
403.314947
 31
0.0
 11
-515.700365
 21
401.903782
 31
0.0
 11
-517.644140
 21
399.958176
 31
0.0
 11
-519.941654
 21
397.816951
 31
0.0
 11
-522.287630
 21
395.846077
 31
0.0
 11
-524.341290
 21
394.418751
 31
0.0
 11
-528.612197
 21
392.002118
 31
0.0
 11
-532.943377
 21
389.622706
 31
0.0
 11
-537.323490
 21
387.279841
 31
0.0
 11
-541.740553
 21
384.976860
 31
0.0
 11
-546.189174
 21
382.720688
 31
0.0
 11
-550.664510
 21
380.517498
 31
0.0
 11
-553.069587
 21
379.588245
 31
0.0
 11
-556.110003
 21
378.710294
 31
0.0
 11
-559.270520
 21
377.963147
 31
0.0
 11
-562.062067
 21
377.401227
 31
0.0
 11
-564.052460
 21
377.044168
 31
0.0
 11
-564.811520
 21
376.919116
 31
0.0
 11
-565.442256
 21
376.716028
 31
0.0
 11
-565.956394
 21
376.313580
 31
0.0
 11
-566.305005
 21
375.750070
 31
0.0
 11
-566.435916
 21
375.100504
 31
0.0
 11
-566.335914
 21
374.455290
 31
0.0
 11
-566.014516
 21
373.875828
 31
0.0
 11
-565.511681
 21
373.444283
 31
0.0
 11
-564.899841
 21
373.216351
 31
0.0
 11
-564.237220
 21
373.213720
 31
0.0
 11
-563.448216
 21
373.343174
 31
0.0
 11
-561.380427
 21
373.713082
 31
0.0
 11
-558.482690
 21
374.295766
 31
0.0
 11
-555.202186
 21
375.056683
 31
0.0
 11
-551.929708
 21
375.996949
 31
0.0
 11
-549.029510
 21
377.142348
 31
0.0
 11
-544.512551
 21
379.365896
 31
0.0
 11
-540.024446
 21
381.641855
 31
0.0
 11
-535.570580
 21
383.963867
 31
0.0
 11
-531.155864
 21
386.325826
 31
0.0
 11
-526.786536
 21
388.727264
 31
0.0
 11
-522.472980
 21
391.168619
 31
0.0
 11
-519.946762
 21
392.894367
 31
0.0
 11
-517.410088
 21
395.031329
 31
0.0
 11
-515.028830
 21
397.271010
 31
0.0
 11
-513.004197
 21
399.297388
 31
0.0
 11
-511.599483
 21
400.768253
 31
0.0
 11
-511.073690
 21
401.335825
 31
0.0
 11
-510.768973
 21
401.771564
 31
0.0
 11
-510.599773
 21
402.270224
 31
0.0
 11
-510.576397
 21
402.801426
 31
0.0
 11
-510.703049
 21
403.317837
 31
0.0
 11
-510.966363
 21
403.773859
 31
0.0
 11
-511.350300
 21
404.141709
 31
0.0
  0
LINE
  5
18d
100
AcDbEntity
  8
0
 62
7
100
AcDbLine
 10
-312.933710
 20
486.255434
 30
0.0
 11
-312.933710
 21
486.255434
 31
0.0
  0
SPLINE
  5
18e
100
AcDbEntity
  8
0
 62
7
100
AcDbSpline
 70
0
 71
3
 72
61
 73
57
 74
55
 40
0.000000
 40
0.000000
 40
0.000000
 40
0.000000
 40
0.917700
 40
1.811115
 40
2.728814
 40
3.470592
 40
5.421679
 40
8.171891
 40
11.312497
 40
14.376473
 40
16.877429
 40
21.784644
 40
26.726377
 40
31.693715
 40
36.675092
 40
41.663128
 40
46.651383
 40
49.229735
 40
52.394375
 40
55.642004
 40
58.489545
 40
60.511712
 40
61.281005
 40
61.943609
 40
62.596507
 40
63.259111
 40
63.921716
 40
64.574614
 40
65.237218
 40
65.899823
 40
66.552720
 40
67.215325
 40
68.014879
 40
70.115495
 40
73.071239
 40
76.438829
 40
79.843708
 40
82.961890
 40
87.996484
 40
93.028692
 40
98.051506
 40
103.058359
 40
108.044132
 40
113.000641
 40
116.060047
 40
119.376872
 40
122.645905
 40
125.510399
 40
127.544277
 40
128.317968
 40
128.849684
 40
129.376269
 40
129.907985
 40
130.439701
 40
130.966285
 40
131.498001
 40
131.498001
 40
131.498001
 40
131.498001
 10
-312.933710
 20
486.255434
 30
0.0
 10
-313.073432
 20
486.533641
 30
0.0
 10
-313.349179
 20
487.082694
 30
0.0
 10
-314.197989
 20
487.554346
 30
0.0
 10
-315.070222
 20
487.531751
 30
0.0
 10
-316.239379
 20
487.253739
 30
0.0
 10
-318.032133
 20
486.959018
 30
0.0
 10
-320.609944
 20
486.529885
 30
0.0
 10
-323.574144
 20
486.172827
 30
0.0
 10
-326.468745
 20
485.928120
 30
0.0
 10
-329.965041
 20
486.010173
 30
0.0
 10
-334.044191
 20
486.604118
 30
0.0
 10
-338.947480
 20
487.184161
 30
0.0
 10
-343.862823
 20
487.877381
 30
0.0
 10
-348.790089
 20
488.595834
 30
0.0
 10
-353.705448
 20
489.424530
 30
0.0
 10
-357.853974
 20
490.012988
 30
0.0
 10
-361.319196
 20
490.925243
 30
0.0
 10
-364.126124
 20
491.983456
 30
0.0
 10
-366.976015
 20
493.170558
 30
0.0
 10
-369.428360
 20
494.311977
 30
0.0
 10
-371.133126
 20
495.110068
 30
0.0
 10
-372.145050
 20
495.653700
 30
0.0
 10
-372.803664
 20
495.906779
 30
0.0
 10
-373.480121
 20
495.874604
 30
0.0
 10
-374.102273
 20
495.621724
 30
0.0
 10
-374.598218
 20
495.165227
 30
0.0
 10
-374.905549
 20
494.566965
 30
0.0
 10
-374.987764
 20
493.897990
 30
0.0
 10
-374.831075
 20
493.244786
 30
0.0
 10
-374.462901
 20
492.676825
 30
0.0
 10
-373.866456
 20
492.280521
 30
0.0
 10
-372.791451
 20
491.780676
 30
0.0
 10
-371.043583
 20
490.907904
 30
0.0
 10
-368.486879
 20
489.746766
 30
0.0
 10
-365.504358
 20
488.474502
 30
0.0
 10
-362.416493
 20
487.306625
 30
0.0
 10
-358.673169
 20
486.364960
 30
0.0
 10
-354.323276
 20
485.718345
 30
0.0
 10
-349.362466
 20
484.891048
 30
0.0
 10
-344.394566
 20
484.163227
 30
0.0
 10
-339.437614
 20
483.468005
 30
0.0
 10
-334.490686
 20
482.874018
 30
0.0
 10
-330.194810
 20
482.280585
 30
0.0
 10
-326.411728
 20
482.146928
 30
0.0
 10
-323.203528
 20
482.421204
 30
0.0
 10
-320.079965
 20
482.827265
 30
0.0
 10
-317.389563
 20
483.245994
 30
0.0
 10
-315.532028
 20
483.604027
 30
0.0
 10
-314.435835
 20
483.790209
 30
0.0
 10
-313.845585
 20
483.968815
 30
0.0
 10
-313.408380
 20
484.284146
 30
0.0
 10
-313.072904
 20
484.703203
 30
0.0
 10
-312.872029
 20
485.200183
 30
0.0
 10
-312.807764
 20
485.736889
 30
0.0
 10
-312.891593
 20
486.082028
 30
0.0
 10
-312.933710
 20
486.255434
 30
0.0
 11
-312.933710
 21
486.255434
 31
0.0
 11
-313.426720
 21
487.029459
 31
0.0
 11
-314.203925
 21
487.470073
 31
0.0
 11
-315.121270
 21
487.495609
 31
0.0
 11
-315.848919
 21
487.351525
 31
0.0
 11
-317.768411
 21
487.001820
 31
0.0
 11
-320.484560
 21
486.570315
 31
0.0
 11
-323.601867
 21
486.188473
 31
0.0
 11
-326.658253
 21
485.972932
 31
0.0
 11
-329.158660
 21
486.025309
 31
0.0
 11
-334.034357
 21
486.580590
 31
0.0
 11
-338.936939
 21
487.201410
 31
0.0
 11
-343.857630
 21
487.880559
 31
0.0
 11
-348.784763
 21
488.613691
 31
0.0
 11
-353.709914
 21
489.403242
 31
0.0
 11
-358.625540
 21
490.251359
 31
0.0
 11
-361.117488
 21
490.913247
 31
0.0
 11
-364.093285
 21
491.990083
 31
0.0
 11
-367.089360
 21
493.243333
 31
0.0
 11
-369.678057
 21
494.429561
 31
0.0
 11
-371.498193
 21
495.310619
 31
0.0
 11
-372.185790
 21
495.655614
 31
0.0
 11
-372.815428
 21
495.862014
 31
0.0
 11
-373.467906
 21
495.838608
 31
0.0
 11
-374.081135
 21
495.587621
 31
0.0
 11
-374.568829
 21
495.139068
 31
0.0
 11
-374.867164
 21
494.558317
 31
0.0
 11
-374.947751
 21
493.900631
 31
0.0
 11
-374.794624
 21
493.255963
 31
0.0
 11
-374.433640
 21
492.711936
 31
0.0
 11
-373.899150
 21
492.320317
 31
0.0
 11
-373.184741
 21
491.961283
 31
0.0
 11
-371.294436
 21
491.045131
 31
0.0
 11
-368.607620
 21
489.813284
 31
0.0
 11
-365.506386
 21
488.500649
 31
0.0
 11
-362.306224
 21
487.337826
 31
0.0
 11
-359.286670
 21
486.559781
 31
0.0
 11
-354.325400
 21
485.703665
 31
0.0
 11
-349.356667
 21
484.906912
 31
0.0
 11
-344.388570
 21
484.167541
 31
0.0
 11
-339.428664
 21
483.483502
 31
0.0
 11
-334.482273
 21
482.858082
 31
0.0
 11
-329.557540
 21
482.297735
 31
0.0
 11
-326.499421
 21
482.209020
 31
0.0
 11
-323.191133
 21
482.446837
 31
0.0
 11
-319.948200
 21
482.859109
 31
0.0
 11
-317.119166
 21
483.308435
 31
0.0
 11
-315.118177
 21
483.672718
 31
0.0
 11
-314.359190
 21
483.822839
 31
0.0
 11
-313.856547
 21
483.996250
 31
0.0
 11
-313.426555
 21
484.300221
 31
0.0
 11
-313.095410
 21
484.716232
 31
0.0
 11
-312.894333
 21
485.208461
 31
0.0
 11
-312.839316
 21
485.732164
 31
0.0
 11
-312.933710
 21
486.255434
 31
0.0
  0
LINE
  5
18f
100
AcDbEntity
  8
0
 62
7
100
AcDbLine
 10
-104.146090
 20
436.060497
 30
0.0
 11
-104.146090
 21
436.060497
 31
0.0
  0
SPLINE
  5
190
100
AcDbEntity
  8
0
 62
7
100
AcDbSpline
 70
0
 71
3
 72
61
 73
57
 74
55
 40
0.000000
 40
0.000000
 40
0.000000
 40
0.000000
 40
0.917701
 40
1.811116
 40
2.728817
 40
3.470593
 40
5.421676
 40
8.171886
 40
11.312497
 40
14.376471
 40
16.877422
 40
21.784641
 40
26.726376
 40
31.693710
 40
36.675090
 40
41.663127
 40
46.651379
 40
49.229733
 40
52.394373
 40
55.641997
 40
58.489540
 40
60.511709
 40
61.281002
 40
61.943626
 40
62.596541
 40
63.259165
 40
63.921789
 40
64.574705
 40
65.237329
 40
65.899953
 40
66.552868
 40
67.215492
 40
68.015045
 40
70.115657
 40
73.071396
 40
76.438990
 40
79.843870
 40
82.962053
 40
87.996644
 40
93.028851
 40
98.051665
 40
103.058517
 40
108.044290
 40
113.000798
 40
116.060211
 40
119.377035
 40
122.646064
 40
125.510560
 40
127.544438
 40
128.318129
 40
128.849845
 40
129.376429
 40
129.908146
 40
130.439862
 40
130.966446
 40
131.498162
 40
131.498162
 40
131.498162
 40
131.498162
 10
-104.146090
 20
436.060497
 30
0.0
 10
-104.095602
 20
436.367698
 30
0.0
 10
-103.995961
 20
436.973972
 30
0.0
 10
-104.405434
 20
437.854465
 30
0.0
 10
-105.124367
 20
438.348869
 30
0.0
 10
-106.233644
 20
438.811167
 30
0.0
 10
-107.857243
 20
439.626486
 30
0.0
 10
-110.194973
 20
440.794509
 30
0.0
 10
-112.802937
 20
442.247954
 30
0.0
 10
-115.288553
 20
443.751385
 30
0.0
 10
-118.068885
 20
445.872839
 30
0.0
 10
-121.019874
 20
448.751015
 30
0.0
 10
-124.645779
 20
452.102360
 30
0.0
 10
-128.214910
 20
455.552354
 30
0.0
 10
-131.778857
 20
459.029768
 30
0.0
 10
-135.268371
 20
462.589372
 30
0.0
 10
-138.278712
 20
465.503887
 30
0.0
 10
-140.545923
 20
468.278725
 30
0.0
 10
-142.194777
 20
470.784705
 30
0.0
 10
-143.802617
 20
473.420220
 30
0.0
 10
-145.115704
 20
475.785094
 30
0.0
 10
-146.025773
 20
477.432806
 30
0.0
 10
-146.524916
 20
478.467405
 30
0.0
 10
-146.908965
 20
479.059305
 30
0.0
 10
-147.475150
 20
479.430913
 30
0.0
 10
-148.127137
 20
479.592038
 30
0.0
 10
-148.796709
 20
479.514236
 30
0.0
 10
-149.397011
 20
479.210867
 30
0.0
 10
-149.856746
 20
478.717959
 30
0.0
 10
-150.113918
 20
478.097383
 30
0.0
 10
-150.149880
 20
477.421463
 30
0.0
 10
-149.900245
 20
476.750268
 30
0.0
 10
-149.324366
 20
475.714001
 30
0.0
 10
-148.423305
 20
473.980550
 30
0.0
 10
-147.037398
 20
471.538374
 30
0.0
 10
-145.372302
 20
468.756010
 30
0.0
 10
-143.560625
 20
465.996176
 30
0.0
 10
-141.085711
 20
463.034079
 30
0.0
 10
-137.946645
 20
459.954155
 30
0.0
 10
-134.419539
 20
456.368968
 30
0.0
 10
-130.828227
 20
452.860090
 30
0.0
 10
-127.226608
 20
449.384022
 30
0.0
 10
-123.573597
 20
445.995747
 30
0.0
 10
-120.446972
 20
442.990593
 30
0.0
 10
-117.464952
 20
440.658825
 30
0.0
 10
-114.708248
 20
438.994986
 30
0.0
 10
-111.942555
 20
437.487513
 30
0.0
 10
-109.519853
 20
436.244893
 30
0.0
 10
-107.806629
 20
435.442715
 30
0.0
 10
-106.810357
 20
434.949011
 30
0.0
 10
-106.227852
 20
434.746567
 30
0.0
 10
-105.688799
 20
434.744693
 30
0.0
 10
-105.171078
 20
434.886530
 30
0.0
 10
-104.716449
 20
435.170525
 30
0.0
 10
-104.348991
 20
435.566956
 30
0.0
 10
-104.213942
 20
435.895452
 30
0.0
 10
-104.146090
 20
436.060497
 30
0.0
 11
-104.146090
 21
436.060497
 31
0.0
 11
-104.089983
 21
436.976481
 31
0.0
 11
-104.459770
 21
437.789776
 31
0.0
 11
-105.186910
 21
438.349636
 31
0.0
 11
-105.860279
 21
438.660771
 31
0.0
 11
-107.618728
 21
439.506101
 31
0.0
 11
-110.069770
 21
440.753518
 31
0.0
 11
-112.816171
 21
442.276908
 31
0.0
 11
-115.415529
 21
443.899029
 31
0.0
 11
-117.407610
 21
445.411103
 31
0.0
 11
-121.025749
 21
448.726200
 31
0.0
 11
-124.627114
 21
452.110120
 31
0.0
 11
-128.208840
 21
455.551871
 31
0.0
 11
-131.764052
 21
459.041084
 31
0.0
 11
-135.284498
 21
462.574776
 31
0.0
 11
-138.762810
 21
466.150248
 31
0.0
 11
-140.389790
 21
468.150459
 31
0.0
 11
-142.164313
 21
470.770767
 31
0.0
 11
-143.851540
 21
473.545714
 31
0.0
 11
-145.248595
 21
476.026992
 31
0.0
 11
-146.203245
 21
477.809633
 31
0.0
 11
-146.556740
 21
478.492899
 31
0.0
 11
-146.944799
 21
479.030003
 31
0.0
 11
-147.486427
 21
479.394609
 31
0.0
 11
-148.130082
 21
479.552021
 31
0.0
 11
-148.788307
 21
479.475796
 31
0.0
 11
-149.371038
 21
479.181307
 31
0.0
 11
-149.822820
 21
478.696577
 31
0.0
 11
-150.077858
 21
478.085000
 31
0.0
 11
-150.105567
 21
477.432672
 31
0.0
 11
-149.903310
 21
476.801671
 31
0.0
 11
-149.536377
 21
476.091288
 31
0.0
 11
-148.545593
 21
474.239014
 31
0.0
 11
-147.095980
 21
471.663161
 31
0.0
 11
-145.358574
 21
468.778355
 31
0.0
 11
-143.453076
 21
465.956602
 31
0.0
 11
-141.467530
 21
463.552300
 31
0.0
 11
-137.956993
 21
459.943528
 31
0.0
 11
-134.405524
 21
456.378394
 31
0.0
 11
-130.820840
 21
452.860056
 31
0.0
 11
-127.210259
 21
449.391300
 31
0.0
 11
-123.576158
 21
445.977908
 31
0.0
 11
-119.921330
 21
442.629893
 31
0.0
 11
-117.499399
 21
440.760601
 31
0.0
 11
-114.683151
 21
439.008437
 31
0.0
 11
-111.817240
 21
437.435827
 31
0.0
 11
-109.264395
 21
436.136473
 31
0.0
 11
-107.431441
 21
435.255031
 31
0.0
 11
-106.729170
 21
434.930359
 31
0.0
 11
-106.220594
 21
434.775206
 31
0.0
 11
-105.694054
 21
434.768381
 31
0.0
 11
-105.181627
 21
434.910300
 31
0.0
 11
-104.729628
 21
435.190332
 31
0.0
 11
-104.377294
 21
435.581679
 31
0.0
 11
-104.146090
 21
436.060497
 31
0.0
  0
LINE
  5
191
100
AcDbEntity
  8
0
 62
7
100
AcDbLine
 10
35.262804
 20
272.729650
 30
0.0
 11
35.262804
 21
272.729650
 31
0.0
  0
SPLINE
  5
192
100
AcDbEntity
  8
0
 62
7
100
AcDbSpline
 70
0
 71
3
 72
61
 73
57
 74
55
 40
0.000000
 40
0.000000
 40
0.000000
 40
0.000000
 40
0.917701
 40
1.811116
 40
2.728816
 40
3.470593
 40
5.421676
 40
8.171882
 40
11.312495
 40
14.376470
 40
16.877417
 40
21.784639
 40
26.726373
 40
31.693708
 40
36.675088
 40
41.663124
 40
46.651372
 40
49.229731
 40
52.394372
 40
55.641998
 40
58.489540
 40
60.511708
 40
61.281000
 40
61.943622
 40
62.596535
 40
63.259157
 40
63.921779
 40
64.574692
 40
65.237314
 40
65.899936
 40
66.552849
 40
67.215471
 40
68.015024
 40
70.115637
 40
73.071378
 40
76.438972
 40
79.843855
 40
82.962039
 40
87.996629
 40
93.028834
 40
98.051647
 40
103.058496
 40
108.044270
 40
113.000783
 40
116.060190
 40
119.377013
 40
122.646046
 40
125.510542
 40
127.544422
 40
128.318114
 40
128.849829
 40
129.376413
 40
129.908128
 40
130.439843
 40
130.966427
 40
131.498142
 40
131.498142
 40
131.498142
 40
131.498142
 10
35.262804
 20
272.729650
 30
0.0
 10
35.484218
 20
272.948505
 30
0.0
 10
35.921188
 20
273.380422
 30
0.0
 10
36.107459
 20
274.333438
 30
0.0
 10
35.816434
 20
275.155998
 30
0.0
 10
35.190740
 20
276.182021
 30
0.0
 10
34.356453
 20
277.795954
 30
0.0
 10
33.151733
 20
280.114987
 30
0.0
 10
31.896166
 20
282.823773
 30
0.0
 10
30.768955
 20
285.501082
 30
0.0
 10
29.766575
 20
288.851612
 30
0.0
 10
29.070926
 20
292.914653
 30
0.0
 10
28.107378
 20
297.757202
 30
0.0
 10
27.247746
 20
302.646188
 30
0.0
 10
26.408426
 20
307.554311
 30
0.0
 10
25.677633
 20
312.485174
 30
0.0
 10
24.955324
 20
316.612500
 30
0.0
 10
24.752119
 20
320.190025
 30
0.0
 10
24.891148
 20
323.186580
 30
0.0
 10
25.139488
 20
326.263822
 30
0.0
 10
25.467220
 20
328.948858
 30
0.0
 10
25.699458
 20
330.816810
 30
0.0
 10
25.903767
 20
331.947206
 30
0.0
 10
25.940971
 20
332.651800
 30
0.0
 10
25.701342
 20
333.285229
 30
0.0
 10
25.268581
 20
333.798808
 30
0.0
 10
24.681157
 20
334.129428
 30
0.0
 10
24.017189
 20
334.236845
 30
0.0
 10
23.355533
 20
334.108302
 30
0.0
 10
22.782712
 20
333.757410
 30
0.0
 10
22.356322
 20
333.231721
 30
0.0
 10
22.163758
 20
332.541983
 30
0.0
 10
22.020555
 20
331.365132
 30
0.0
 10
21.730631
 20
329.433110
 30
0.0
 10
21.416380
 20
326.642730
 30
0.0
 10
21.128040
 20
323.413030
 30
0.0
 10
20.971525
 20
320.115399
 30
0.0
 10
21.232699
 20
316.264295
 30
0.0
 10
21.961923
 20
311.927488
 30
0.0
 10
22.708091
 20
306.953831
 30
0.0
 10
23.551059
 20
302.004171
 30
0.0
 10
24.421644
 20
297.074995
 30
0.0
 10
25.385413
 20
292.186635
 30
0.0
 10
26.148522
 20
287.917631
 30
0.0
 10
27.190445
 20
284.278404
 30
0.0
 10
28.442687
 20
281.311981
 30
0.0
 10
29.794106
 20
278.466774
 30
0.0
 10
31.023722
 20
276.037444
 30
0.0
 10
31.938243
 20
274.381460
 30
0.0
 10
32.454053
 20
273.396450
 30
0.0
 10
32.806317
 20
272.890283
 30
0.0
 10
33.241319
 20
272.571921
 30
0.0
 10
33.743534
 20
272.382362
 30
0.0
 10
34.278263
 20
272.344896
 30
0.0
 10
34.808558
 20
272.449629
 30
0.0
 10
35.110900
 20
272.636008
 30
0.0
 10
35.262804
 20
272.729650
 30
0.0
 11
35.262804
 21
272.729650
 31
0.0
 11
35.846597
 21
273.437718
 31
0.0
 11
36.025476
 21
274.313042
 31
0.0
 11
35.766286
 21
275.193380
 31
0.0
 11
35.404398
 21
275.840890
 31
0.0
 11
34.478654
 21
277.558367
 31
0.0
 11
33.228933
 21
280.008230
 31
0.0
 11
31.902477
 21
282.854976
 31
0.0
 11
30.753011
 21
285.695164
 31
0.0
 11
30.030158
 21
288.089370
 31
0.0
 11
29.051587
 21
292.898031
 31
0.0
 11
28.127040
 21
297.752509
 31
0.0
 11
27.252373
 21
302.642230
 31
0.0
 11
26.427055
 21
307.554764
 31
0.0
 11
25.656006
 21
312.482846
 31
0.0
 11
24.943602
 21
317.419960
 31
0.0
 11
24.803041
 21
319.994485
 31
0.0
 11
24.907600
 21
323.157398
 31
0.0
 11
25.173674
 21
326.394106
 31
0.0
 11
25.501893
 21
329.222669
 31
0.0
 11
25.777374
 21
331.225984
 31
0.0
 11
25.893005
 21
331.986537
 31
0.0
 11
25.894758
 21
332.649156
 31
0.0
 11
25.670880
 21
333.262487
 31
0.0
 11
25.242677
 21
333.768165
 31
0.0
 11
24.665360
 21
334.093391
 31
0.0
 11
24.020827
 21
334.197665
 31
0.0
 11
23.370412
 21
334.071062
 31
0.0
 11
22.804607
 21
333.726196
 31
0.0
 11
22.398761
 21
333.214742
 31
0.0
 11
22.191494
 21
332.585371
 31
0.0
 11
22.070797
 21
331.794981
 31
0.0
 11
21.783619
 21
329.714090
 31
0.0
 11
21.442334
 21
326.778119
 31
0.0
 11
21.152279
 21
323.423039
 31
0.0
 11
21.035274
 21
320.020168
 31
0.0
 11
21.228403
 21
316.907970
 31
0.0
 11
21.947305
 21
311.924971
 31
0.0
 11
22.724970
 21
306.953219
 31
0.0
 11
23.557014
 21
301.999800
 31
0.0
 11
24.439149
 21
297.071274
 31
0.0
 11
25.372856
 21
292.173710
 31
0.0
 11
26.361761
 21
287.316850
 31
0.0
 11
27.222400
 21
284.380990
 31
0.0
 11
28.470895
 21
281.308113
 31
0.0
 11
29.865109
 21
278.351300
 31
0.0
 11
31.166664
 21
275.799576
 31
0.0
 11
32.131458
 21
274.009090
 31
0.0
 11
32.508772
 21
273.333640
 31
0.0
 11
32.829023
 21
272.909187
 31
0.0
 11
33.250991
 21
272.594174
 31
0.0
 11
33.748970
 21
272.407793
 31
0.0
 11
34.279244
 21
272.368667
 31
0.0
 11
34.794315
 21
272.478176
 31
0.0
 11
35.262804
 21
272.729650
 31
0.0
  0
ENDSEC
  0
SECTION
  2
OBJECTS
  0
DICTIONARY
  5
C
330
0
100
AcDbDictionary
  3
ACAD_GROUP
350
D
  3
ACAD_MLINESTYLE
350
17
  0
DICTIONARY
  5
D
330
C
100
AcDbDictionary
  0
DICTIONARY
  5
1A
330
C
100
AcDbDictionary
  0
DICTIONARY
  5
17
330
C
100
AcDbDictionary
  3
STANDARD
350
18
  0
DICTIONARY
  5
19
330
C
100
AcDbDictionary
  0
ENDSEC
  0
EOF
