  0
SECTION
  2
BLOCKS
  0
ENDSEC
  0
SECTION
  2
ENTITIES
  0
LINE
  8
0
 10
180.975
 20
114.3
 11
-180.975
 21
114.3
  0
LINE
  8
0
 10
-180.975
 20
114.3
 11
-180.975
 21
76.2
  0
LINE
  8
0
 10
-180.975
 20
76.2
 11
180.975
 21
76.2
  0
LINE
  8
0
 10
180.975
 20
76.2
 11
180.975
 21
114.3
  0
LINE
  8
0
 10
-176.522
 20
107.98
 11
-176.82
 21
108.071
  0
LINE
  8
0
 10
-176.82
 20
108.071
 11
-177.094
 21
108.218
  0
LINE
  8
0
 10
-177.094
 20
108.218
 11
-177.335
 21
108.415
  0
LINE
  8
0
 10
-177.335
 20
108.415
 11
-177.532
 21
108.656
  0
LINE
  8
0
 10
-177.532
 20
108.656
 11
-177.679
 21
108.93
  0
LINE
  8
0
 10
-177.679
 20
108.93
 11
-177.769
 21
109.228
  0
LINE
  8
0
 10
-177.769
 20
109.228
 11
-177.8
 21
109.537
  0
LINE
  8
0
 10
-177.8
 20
109.537
 11
-177.769
 21
109.847
  0
LINE
  8
0
 10
-177.769
 20
109.847
 11
-177.679
 21
110.145
  0
LINE
  8
0
 10
-177.679
 20
110.145
 11
-177.532
 21
110.419
  0
LINE
  8
0
 10
-177.532
 20
110.419
 11
-177.335
 21
110.66
  0
LINE
  8
0
 10
-177.335
 20
110.66
 11
-177.094
 21
110.857
  0
LINE
  8
0
 10
-177.094
 20
110.857
 11
-176.82
 21
111.004
  0
LINE
  8
0
 10
-176.82
 20
111.004
 11
-176.522
 21
111.094
  0
LINE
  8
0
 10
-176.522
 20
111.094
 11
-176.212
 21
111.125
  0
LINE
  8
0
 10
-176.212
 20
111.125
 11
-175.903
 21
111.094
  0
LINE
  8
0
 10
-175.903
 20
111.094
 11
-175.605
 21
111.004
  0
LINE
  8
0
 10
-175.605
 20
111.004
 11
-175.331
 21
110.857
  0
LINE
  8
0
 10
-175.331
 20
110.857
 11
-175.09
 21
110.66
  0
LINE
  8
0
 10
-175.09
 20
110.66
 11
-174.893
 21
110.419
  0
LINE
  8
0
 10
-174.893
 20
110.419
 11
-174.746
 21
110.145
  0
LINE
  8
0
 10
-174.746
 20
110.145
 11
-174.656
 21
109.847
  0
LINE
  8
0
 10
-174.656
 20
109.847
 11
-174.625
 21
109.537
  0
LINE
  8
0
 10
-174.625
 20
109.537
 11
-174.656
 21
109.228
  0
LINE
  8
0
 10
-174.656
 20
109.228
 11
-174.746
 21
108.93
  0
LINE
  8
0
 10
-174.746
 20
108.93
 11
-174.893
 21
108.656
  0
LINE
  8
0
 10
-174.893
 20
108.656
 11
-175.09
 21
108.415
  0
LINE
  8
0
 10
-175.09
 20
108.415
 11
-175.331
 21
108.218
  0
LINE
  8
0
 10
-175.331
 20
108.218
 11
-175.605
 21
108.071
  0
LINE
  8
0
 10
-175.605
 20
108.071
 11
-175.903
 21
107.98
  0
LINE
  8
0
 10
-175.903
 20
107.98
 11
-176.212
 21
107.95
  0
LINE
  8
0
 10
-176.212
 20
107.95
 11
-176.522
 21
107.98
  0
LINE
  8
0
 10
175.903
 20
107.98
 11
175.605
 21
108.071
  0
LINE
  8
0
 10
175.605
 20
108.071
 11
175.331
 21
108.218
  0
LINE
  8
0
 10
175.331
 20
108.218
 11
175.09
 21
108.415
  0
LINE
  8
0
 10
175.09
 20
108.415
 11
174.893
 21
108.656
  0
LINE
  8
0
 10
174.893
 20
108.656
 11
174.746
 21
108.93
  0
LINE
  8
0
 10
174.746
 20
108.93
 11
174.656
 21
109.228
  0
LINE
  8
0
 10
174.656
 20
109.228
 11
174.625
 21
109.537
  0
LINE
  8
0
 10
174.625
 20
109.537
 11
174.656
 21
109.847
  0
LINE
  8
0
 10
174.656
 20
109.847
 11
174.746
 21
110.145
  0
LINE
  8
0
 10
174.746
 20
110.145
 11
174.893
 21
110.419
  0
LINE
  8
0
 10
174.893
 20
110.419
 11
175.09
 21
110.66
  0
LINE
  8
0
 10
175.09
 20
110.66
 11
175.331
 21
110.857
  0
LINE
  8
0
 10
175.331
 20
110.857
 11
175.605
 21
111.004
  0
LINE
  8
0
 10
175.605
 20
111.004
 11
175.903
 21
111.094
  0
LINE
  8
0
 10
175.903
 20
111.094
 11
176.212
 21
111.125
  0
LINE
  8
0
 10
176.212
 20
111.125
 11
176.522
 21
111.094
  0
LINE
  8
0
 10
176.522
 20
111.094
 11
176.82
 21
111.004
  0
LINE
  8
0
 10
176.82
 20
111.004
 11
177.094
 21
110.857
  0
LINE
  8
0
 10
177.094
 20
110.857
 11
177.335
 21
110.66
  0
LINE
  8
0
 10
177.335
 20
110.66
 11
177.532
 21
110.419
  0
LINE
  8
0
 10
177.532
 20
110.419
 11
177.679
 21
110.145
  0
LINE
  8
0
 10
177.679
 20
110.145
 11
177.769
 21
109.847
  0
LINE
  8
0
 10
177.769
 20
109.847
 11
177.8
 21
109.537
  0
LINE
  8
0
 10
177.8
 20
109.537
 11
177.769
 21
109.228
  0
LINE
  8
0
 10
177.769
 20
109.228
 11
177.679
 21
108.93
  0
LINE
  8
0
 10
177.679
 20
108.93
 11
177.532
 21
108.656
  0
LINE
  8
0
 10
177.532
 20
108.656
 11
177.335
 21
108.415
  0
LINE
  8
0
 10
177.335
 20
108.415
 11
177.094
 21
108.218
  0
LINE
  8
0
 10
177.094
 20
108.218
 11
176.82
 21
108.071
  0
LINE
  8
0
 10
176.82
 20
108.071
 11
176.522
 21
107.98
  0
LINE
  8
0
 10
176.522
 20
107.98
 11
176.212
 21
107.95
  0
LINE
  8
0
 10
176.212
 20
107.95
 11
175.903
 21
107.98
  0
LINE
  8
0
 10
-176.522
 20
98.4555
 11
-176.82
 21
98.5458
  0
LINE
  8
0
 10
-176.82
 20
98.5458
 11
-177.094
 21
98.6925
  0
LINE
  8
0
 10
-177.094
 20
98.6925
 11
-177.335
 21
98.89
  0
LINE
  8
0
 10
-177.335
 20
98.89
 11
-177.532
 21
99.1305
  0
LINE
  8
0
 10
-177.532
 20
99.1305
 11
-177.679
 21
99.405
  0
LINE
  8
0
 10
-177.679
 20
99.405
 11
-177.769
 21
99.7028
  0
LINE
  8
0
 10
-177.769
 20
99.7028
 11
-177.8
 21
100.012
  0
LINE
  8
0
 10
-177.8
 20
100.012
 11
-177.769
 21
100.322
  0
LINE
  8
0
 10
-177.769
 20
100.322
 11
-177.679
 21
100.62
  0
LINE
  8
0
 10
-177.679
 20
100.62
 11
-177.532
 21
100.894
  0
LINE
  8
0
 10
-177.532
 20
100.894
 11
-177.335
 21
101.135
  0
LINE
  8
0
 10
-177.335
 20
101.135
 11
-177.094
 21
101.332
  0
LINE
  8
0
 10
-177.094
 20
101.332
 11
-176.82
 21
101.479
  0
LINE
  8
0
 10
-176.82
 20
101.479
 11
-176.522
 21
101.569
  0
LINE
  8
0
 10
-176.522
 20
101.569
 11
-176.212
 21
101.6
  0
LINE
  8
0
 10
-176.212
 20
101.6
 11
-175.903
 21
101.569
  0
LINE
  8
0
 10
-175.903
 20
101.569
 11
-175.605
 21
101.479
  0
LINE
  8
0
 10
-175.605
 20
101.479
 11
-175.331
 21
101.332
  0
LINE
  8
0
 10
-175.331
 20
101.332
 11
-175.09
 21
101.135
  0
LINE
  8
0
 10
-175.09
 20
101.135
 11
-174.893
 21
100.894
  0
LINE
  8
0
 10
-174.893
 20
100.894
 11
-174.746
 21
100.62
  0
LINE
  8
0
 10
-174.746
 20
100.62
 11
-174.656
 21
100.322
  0
LINE
  8
0
 10
-174.656
 20
100.322
 11
-174.625
 21
100.012
  0
LINE
  8
0
 10
-174.625
 20
100.012
 11
-174.656
 21
99.7028
  0
LINE
  8
0
 10
-174.656
 20
99.7028
 11
-174.746
 21
99.405
  0
LINE
  8
0
 10
-174.746
 20
99.405
 11
-174.893
 21
99.1305
  0
LINE
  8
0
 10
-174.893
 20
99.1305
 11
-175.09
 21
98.89
  0
LINE
  8
0
 10
-175.09
 20
98.89
 11
-175.331
 21
98.6925
  0
LINE
  8
0
 10
-175.331
 20
98.6925
 11
-175.605
 21
98.5458
  0
LINE
  8
0
 10
-175.605
 20
98.5458
 11
-175.903
 21
98.4555
  0
LINE
  8
0
 10
-175.903
 20
98.4555
 11
-176.212
 21
98.425
  0
LINE
  8
0
 10
-176.212
 20
98.425
 11
-176.522
 21
98.4555
  0
LINE
  8
0
 10
175.903
 20
98.4555
 11
175.605
 21
98.5458
  0
LINE
  8
0
 10
175.605
 20
98.5458
 11
175.331
 21
98.6925
  0
LINE
  8
0
 10
175.331
 20
98.6925
 11
175.09
 21
98.89
  0
LINE
  8
0
 10
175.09
 20
98.89
 11
174.893
 21
99.1305
  0
LINE
  8
0
 10
174.893
 20
99.1305
 11
174.746
 21
99.405
  0
LINE
  8
0
 10
174.746
 20
99.405
 11
174.656
 21
99.7028
  0
LINE
  8
0
 10
174.656
 20
99.7028
 11
174.625
 21
100.012
  0
LINE
  8
0
 10
174.625
 20
100.012
 11
174.656
 21
100.322
  0
LINE
  8
0
 10
174.656
 20
100.322
 11
174.746
 21
100.62
  0
LINE
  8
0
 10
174.746
 20
100.62
 11
174.893
 21
100.894
  0
LINE
  8
0
 10
174.893
 20
100.894
 11
175.09
 21
101.135
  0
LINE
  8
0
 10
175.09
 20
101.135
 11
175.331
 21
101.332
  0
LINE
  8
0
 10
175.331
 20
101.332
 11
175.605
 21
101.479
  0
LINE
  8
0
 10
175.605
 20
101.479
 11
175.903
 21
101.569
  0
LINE
  8
0
 10
175.903
 20
101.569
 11
176.212
 21
101.6
  0
LINE
  8
0
 10
176.212
 20
101.6
 11
176.522
 21
101.569
  0
LINE
  8
0
 10
176.522
 20
101.569
 11
176.82
 21
101.479
  0
LINE
  8
0
 10
176.82
 20
101.479
 11
177.094
 21
101.332
  0
LINE
  8
0
 10
177.094
 20
101.332
 11
177.335
 21
101.135
  0
LINE
  8
0
 10
177.335
 20
101.135
 11
177.532
 21
100.894
  0
LINE
  8
0
 10
177.532
 20
100.894
 11
177.679
 21
100.62
  0
LINE
  8
0
 10
177.679
 20
100.62
 11
177.769
 21
100.322
  0
LINE
  8
0
 10
177.769
 20
100.322
 11
177.8
 21
100.012
  0
LINE
  8
0
 10
177.8
 20
100.012
 11
177.769
 21
99.7028
  0
LINE
  8
0
 10
177.769
 20
99.7028
 11
177.679
 21
99.405
  0
LINE
  8
0
 10
177.679
 20
99.405
 11
177.532
 21
99.1305
  0
LINE
  8
0
 10
177.532
 20
99.1305
 11
177.335
 21
98.89
  0
LINE
  8
0
 10
177.335
 20
98.89
 11
177.094
 21
98.6925
  0
LINE
  8
0
 10
177.094
 20
98.6925
 11
176.82
 21
98.5458
  0
LINE
  8
0
 10
176.82
 20
98.5458
 11
176.522
 21
98.4555
  0
LINE
  8
0
 10
176.522
 20
98.4555
 11
176.212
 21
98.425
  0
LINE
  8
0
 10
176.212
 20
98.425
 11
175.903
 21
98.4555
  0
LINE
  8
0
 10
175.903
 20
88.9305
 11
175.605
 21
89.0208
  0
LINE
  8
0
 10
175.605
 20
89.0208
 11
175.331
 21
89.1675
  0
LINE
  8
0
 10
175.331
 20
89.1675
 11
175.09
 21
89.365
  0
LINE
  8
0
 10
175.09
 20
89.365
 11
174.893
 21
89.6055
  0
LINE
  8
0
 10
174.893
 20
89.6055
 11
174.746
 21
89.88
  0
LINE
  8
0
 10
174.746
 20
89.88
 11
174.656
 21
90.1778
  0
LINE
  8
0
 10
174.656
 20
90.1778
 11
174.625
 21
90.4875
  0
LINE
  8
0
 10
174.625
 20
90.4875
 11
174.656
 21
90.7972
  0
LINE
  8
0
 10
174.656
 20
90.7972
 11
174.746
 21
91.095
  0
LINE
  8
0
 10
174.746
 20
91.095
 11
174.893
 21
91.3695
  0
LINE
  8
0
 10
174.893
 20
91.3695
 11
175.09
 21
91.61
  0
LINE
  8
0
 10
175.09
 20
91.61
 11
175.331
 21
91.8074
  0
LINE
  8
0
 10
175.331
 20
91.8074
 11
175.605
 21
91.9541
  0
LINE
  8
0
 10
175.605
 20
91.9541
 11
175.903
 21
92.0445
  0
LINE
  8
0
 10
175.903
 20
92.0445
 11
176.212
 21
92.075
  0
LINE
  8
0
 10
176.212
 20
92.075
 11
176.522
 21
92.0445
  0
LINE
  8
0
 10
176.522
 20
92.0445
 11
176.82
 21
91.9541
  0
LINE
  8
0
 10
176.82
 20
91.9541
 11
177.094
 21
91.8074
  0
LINE
  8
0
 10
177.094
 20
91.8074
 11
177.335
 21
91.61
  0
LINE
  8
0
 10
177.335
 20
91.61
 11
177.532
 21
91.3695
  0
LINE
  8
0
 10
177.532
 20
91.3695
 11
177.679
 21
91.095
  0
LINE
  8
0
 10
177.679
 20
91.095
 11
177.769
 21
90.7972
  0
LINE
  8
0
 10
177.769
 20
90.7972
 11
177.8
 21
90.4875
  0
LINE
  8
0
 10
177.8
 20
90.4875
 11
177.769
 21
90.1778
  0
LINE
  8
0
 10
177.769
 20
90.1778
 11
177.679
 21
89.88
  0
LINE
  8
0
 10
177.679
 20
89.88
 11
177.532
 21
89.6055
  0
LINE
  8
0
 10
177.532
 20
89.6055
 11
177.335
 21
89.365
  0
LINE
  8
0
 10
177.335
 20
89.365
 11
177.094
 21
89.1675
  0
LINE
  8
0
 10
177.094
 20
89.1675
 11
176.82
 21
89.0208
  0
LINE
  8
0
 10
176.82
 20
89.0208
 11
176.522
 21
88.9305
  0
LINE
  8
0
 10
176.522
 20
88.9305
 11
176.212
 21
88.9
  0
LINE
  8
0
 10
176.212
 20
88.9
 11
175.903
 21
88.9305
  0
LINE
  8
0
 10
-176.522
 20
88.9305
 11
-176.82
 21
89.0208
  0
LINE
  8
0
 10
-176.82
 20
89.0208
 11
-177.094
 21
89.1675
  0
LINE
  8
0
 10
-177.094
 20
89.1675
 11
-177.335
 21
89.365
  0
LINE
  8
0
 10
-177.335
 20
89.365
 11
-177.532
 21
89.6055
  0
LINE
  8
0
 10
-177.532
 20
89.6055
 11
-177.679
 21
89.88
  0
LINE
  8
0
 10
-177.679
 20
89.88
 11
-177.769
 21
90.1778
  0
LINE
  8
0
 10
-177.769
 20
90.1778
 11
-177.8
 21
90.4875
  0
LINE
  8
0
 10
-177.8
 20
90.4875
 11
-177.769
 21
90.7972
  0
LINE
  8
0
 10
-177.769
 20
90.7972
 11
-177.679
 21
91.095
  0
LINE
  8
0
 10
-177.679
 20
91.095
 11
-177.532
 21
91.3695
  0
LINE
  8
0
 10
-177.532
 20
91.3695
 11
-177.335
 21
91.61
  0
LINE
  8
0
 10
-177.335
 20
91.61
 11
-177.094
 21
91.8074
  0
LINE
  8
0
 10
-177.094
 20
91.8074
 11
-176.82
 21
91.9541
  0
LINE
  8
0
 10
-176.82
 20
91.9541
 11
-176.522
 21
92.0445
  0
LINE
  8
0
 10
-176.522
 20
92.0445
 11
-176.212
 21
92.075
  0
LINE
  8
0
 10
-176.212
 20
92.075
 11
-175.903
 21
92.0445
  0
LINE
  8
0
 10
-175.903
 20
92.0445
 11
-175.605
 21
91.9541
  0
LINE
  8
0
 10
-175.605
 20
91.9541
 11
-175.331
 21
91.8074
  0
LINE
  8
0
 10
-175.331
 20
91.8074
 11
-175.09
 21
91.61
  0
LINE
  8
0
 10
-175.09
 20
91.61
 11
-174.893
 21
91.3695
  0
LINE
  8
0
 10
-174.893
 20
91.3695
 11
-174.746
 21
91.095
  0
LINE
  8
0
 10
-174.746
 20
91.095
 11
-174.656
 21
90.7972
  0
LINE
  8
0
 10
-174.656
 20
90.7972
 11
-174.625
 21
90.4875
  0
LINE
  8
0
 10
-174.625
 20
90.4875
 11
-174.656
 21
90.1778
  0
LINE
  8
0
 10
-174.656
 20
90.1778
 11
-174.746
 21
89.88
  0
LINE
  8
0
 10
-174.746
 20
89.88
 11
-174.893
 21
89.6055
  0
LINE
  8
0
 10
-174.893
 20
89.6055
 11
-175.09
 21
89.365
  0
LINE
  8
0
 10
-175.09
 20
89.365
 11
-175.331
 21
89.1675
  0
LINE
  8
0
 10
-175.331
 20
89.1675
 11
-175.605
 21
89.0208
  0
LINE
  8
0
 10
-175.605
 20
89.0208
 11
-175.903
 21
88.9305
  0
LINE
  8
0
 10
-175.903
 20
88.9305
 11
-176.212
 21
88.9
  0
LINE
  8
0
 10
-176.212
 20
88.9
 11
-176.522
 21
88.9305
  0
LINE
  8
0
 10
-147.947
 20
79.4055
 11
-148.245
 21
79.4958
  0
LINE
  8
0
 10
-148.245
 20
79.4958
 11
-148.519
 21
79.6425
  0
LINE
  8
0
 10
-148.519
 20
79.6425
 11
-148.76
 21
79.84
  0
LINE
  8
0
 10
-148.76
 20
79.84
 11
-148.957
 21
80.0805
  0
LINE
  8
0
 10
-148.957
 20
80.0805
 11
-149.104
 21
80.355
  0
LINE
  8
0
 10
-149.104
 20
80.355
 11
-149.195
 21
80.6528
  0
LINE
  8
0
 10
-149.195
 20
80.6528
 11
-149.225
 21
80.9625
  0
LINE
  8
0
 10
-149.225
 20
80.9625
 11
-149.195
 21
81.2722
  0
LINE
  8
0
 10
-149.195
 20
81.2722
 11
-149.104
 21
81.57
  0
LINE
  8
0
 10
-149.104
 20
81.57
 11
-148.957
 21
81.8445
  0
LINE
  8
0
 10
-148.957
 20
81.8445
 11
-148.76
 21
82.085
  0
LINE
  8
0
 10
-148.76
 20
82.085
 11
-148.519
 21
82.2824
  0
LINE
  8
0
 10
-148.519
 20
82.2824
 11
-148.245
 21
82.4291
  0
LINE
  8
0
 10
-148.245
 20
82.4291
 11
-147.947
 21
82.5195
  0
LINE
  8
0
 10
-147.947
 20
82.5195
 11
-147.637
 21
82.55
  0
LINE
  8
0
 10
-147.637
 20
82.55
 11
-147.328
 21
82.5195
  0
LINE
  8
0
 10
-147.328
 20
82.5195
 11
-147.03
 21
82.4291
  0
LINE
  8
0
 10
-147.03
 20
82.4291
 11
-146.756
 21
82.2824
  0
LINE
  8
0
 10
-146.756
 20
82.2824
 11
-146.515
 21
82.085
  0
LINE
  8
0
 10
-146.515
 20
82.085
 11
-146.318
 21
81.8445
  0
LINE
  8
0
 10
-146.318
 20
81.8445
 11
-146.171
 21
81.57
  0
LINE
  8
0
 10
-146.171
 20
81.57
 11
-146.081
 21
81.2722
  0
LINE
  8
0
 10
-146.081
 20
81.2722
 11
-146.05
 21
80.9625
  0
LINE
  8
0
 10
-146.05
 20
80.9625
 11
-146.081
 21
80.6528
  0
LINE
  8
0
 10
-146.081
 20
80.6528
 11
-146.171
 21
80.355
  0
LINE
  8
0
 10
-146.171
 20
80.355
 11
-146.318
 21
80.0805
  0
LINE
  8
0
 10
-146.318
 20
80.0805
 11
-146.515
 21
79.84
  0
LINE
  8
0
 10
-146.515
 20
79.84
 11
-146.756
 21
79.6425
  0
LINE
  8
0
 10
-146.756
 20
79.6425
 11
-147.03
 21
79.4958
  0
LINE
  8
0
 10
-147.03
 20
79.4958
 11
-147.328
 21
79.4055
  0
LINE
  8
0
 10
-147.328
 20
79.4055
 11
-147.637
 21
79.375
  0
LINE
  8
0
 10
-147.637
 20
79.375
 11
-147.947
 21
79.4055
  0
LINE
  8
0
 10
109.228
 20
79.4055
 11
108.93
 21
79.4958
  0
LINE
  8
0
 10
108.93
 20
79.4958
 11
108.656
 21
79.6425
  0
LINE
  8
0
 10
108.656
 20
79.6425
 11
108.415
 21
79.84
  0
LINE
  8
0
 10
108.415
 20
79.84
 11
108.218
 21
80.0805
  0
LINE
  8
0
 10
108.218
 20
80.0805
 11
108.071
 21
80.355
  0
LINE
  8
0
 10
108.071
 20
80.355
 11
107.98
 21
80.6528
  0
LINE
  8
0
 10
107.98
 20
80.6528
 11
107.95
 21
80.9625
  0
LINE
  8
0
 10
107.95
 20
80.9625
 11
107.98
 21
81.2722
  0
LINE
  8
0
 10
107.98
 20
81.2722
 11
108.071
 21
81.57
  0
LINE
  8
0
 10
108.071
 20
81.57
 11
108.218
 21
81.8445
  0
LINE
  8
0
 10
108.218
 20
81.8445
 11
108.415
 21
82.085
  0
LINE
  8
0
 10
108.415
 20
82.085
 11
108.656
 21
82.2824
  0
LINE
  8
0
 10
108.656
 20
82.2824
 11
108.93
 21
82.4291
  0
LINE
  8
0
 10
108.93
 20
82.4291
 11
109.228
 21
82.5195
  0
LINE
  8
0
 10
109.228
 20
82.5195
 11
109.537
 21
82.55
  0
LINE
  8
0
 10
109.537
 20
82.55
 11
109.847
 21
82.5195
  0
LINE
  8
0
 10
109.847
 20
82.5195
 11
110.145
 21
82.4291
  0
LINE
  8
0
 10
110.145
 20
82.4291
 11
110.419
 21
82.2824
  0
LINE
  8
0
 10
110.419
 20
82.2824
 11
110.66
 21
82.085
  0
LINE
  8
0
 10
110.66
 20
82.085
 11
110.857
 21
81.8445
  0
LINE
  8
0
 10
110.857
 20
81.8445
 11
111.004
 21
81.57
  0
LINE
  8
0
 10
111.004
 20
81.57
 11
111.094
 21
81.2722
  0
LINE
  8
0
 10
111.094
 20
81.2722
 11
111.125
 21
80.9625
  0
LINE
  8
0
 10
111.125
 20
80.9625
 11
111.094
 21
80.6528
  0
LINE
  8
0
 10
111.094
 20
80.6528
 11
111.004
 21
80.355
  0
LINE
  8
0
 10
111.004
 20
80.355
 11
110.857
 21
80.0805
  0
LINE
  8
0
 10
110.857
 20
80.0805
 11
110.66
 21
79.84
  0
LINE
  8
0
 10
110.66
 20
79.84
 11
110.419
 21
79.6425
  0
LINE
  8
0
 10
110.419
 20
79.6425
 11
110.145
 21
79.4958
  0
LINE
  8
0
 10
110.145
 20
79.4958
 11
109.847
 21
79.4055
  0
LINE
  8
0
 10
109.847
 20
79.4055
 11
109.537
 21
79.375
  0
LINE
  8
0
 10
109.537
 20
79.375
 11
109.228
 21
79.4055
  0
LINE
  8
0
 10
-128.897
 20
79.4055
 11
-129.195
 21
79.4958
  0
LINE
  8
0
 10
-129.195
 20
79.4958
 11
-129.469
 21
79.6425
  0
LINE
  8
0
 10
-129.469
 20
79.6425
 11
-129.71
 21
79.84
  0
LINE
  8
0
 10
-129.71
 20
79.84
 11
-129.907
 21
80.0805
  0
LINE
  8
0
 10
-129.907
 20
80.0805
 11
-130.054
 21
80.355
  0
LINE
  8
0
 10
-130.054
 20
80.355
 11
-130.145
 21
80.6528
  0
LINE
  8
0
 10
-130.145
 20
80.6528
 11
-130.175
 21
80.9625
  0
LINE
  8
0
 10
-130.175
 20
80.9625
 11
-130.145
 21
81.2722
  0
LINE
  8
0
 10
-130.145
 20
81.2722
 11
-130.054
 21
81.57
  0
LINE
  8
0
 10
-130.054
 20
81.57
 11
-129.907
 21
81.8445
  0
LINE
  8
0
 10
-129.907
 20
81.8445
 11
-129.71
 21
82.085
  0
LINE
  8
0
 10
-129.71
 20
82.085
 11
-129.469
 21
82.2824
  0
LINE
  8
0
 10
-129.469
 20
82.2824
 11
-129.195
 21
82.4291
  0
LINE
  8
0
 10
-129.195
 20
82.4291
 11
-128.897
 21
82.5195
  0
LINE
  8
0
 10
-128.897
 20
82.5195
 11
-128.587
 21
82.55
  0
LINE
  8
0
 10
-128.587
 20
82.55
 11
-128.278
 21
82.5195
  0
LINE
  8
0
 10
-128.278
 20
82.5195
 11
-127.98
 21
82.4291
  0
LINE
  8
0
 10
-127.98
 20
82.4291
 11
-127.706
 21
82.2824
  0
LINE
  8
0
 10
-127.706
 20
82.2824
 11
-127.465
 21
82.085
  0
LINE
  8
0
 10
-127.465
 20
82.085
 11
-127.268
 21
81.8445
  0
LINE
  8
0
 10
-127.268
 20
81.8445
 11
-127.121
 21
81.57
  0
LINE
  8
0
 10
-127.121
 20
81.57
 11
-127.031
 21
81.2722
  0
LINE
  8
0
 10
-127.031
 20
81.2722
 11
-127
 21
80.9625
  0
LINE
  8
0
 10
-127
 20
80.9625
 11
-127.031
 21
80.6528
  0
LINE
  8
0
 10
-127.031
 20
80.6528
 11
-127.121
 21
80.355
  0
LINE
  8
0
 10
-127.121
 20
80.355
 11
-127.268
 21
80.0805
  0
LINE
  8
0
 10
-127.268
 20
80.0805
 11
-127.465
 21
79.84
  0
LINE
  8
0
 10
-127.465
 20
79.84
 11
-127.706
 21
79.6425
  0
LINE
  8
0
 10
-127.706
 20
79.6425
 11
-127.98
 21
79.4958
  0
LINE
  8
0
 10
-127.98
 20
79.4958
 11
-128.278
 21
79.4055
  0
LINE
  8
0
 10
-128.278
 20
79.4055
 11
-128.587
 21
79.375
  0
LINE
  8
0
 10
-128.587
 20
79.375
 11
-128.897
 21
79.4055
  0
LINE
  8
0
 10
-119.372
 20
79.4055
 11
-119.67
 21
79.4958
  0
LINE
  8
0
 10
-119.67
 20
79.4958
 11
-119.944
 21
79.6425
  0
LINE
  8
0
 10
-119.944
 20
79.6425
 11
-120.185
 21
79.84
  0
LINE
  8
0
 10
-120.185
 20
79.84
 11
-120.382
 21
80.0805
  0
LINE
  8
0
 10
-120.382
 20
80.0805
 11
-120.529
 21
80.355
  0
LINE
  8
0
 10
-120.529
 20
80.355
 11
-120.619
 21
80.6528
  0
LINE
  8
0
 10
-120.619
 20
80.6528
 11
-120.65
 21
80.9625
  0
LINE
  8
0
 10
-120.65
 20
80.9625
 11
-120.619
 21
81.2722
  0
LINE
  8
0
 10
-120.619
 20
81.2722
 11
-120.529
 21
81.57
  0
LINE
  8
0
 10
-120.529
 20
81.57
 11
-120.382
 21
81.8445
  0
LINE
  8
0
 10
-120.382
 20
81.8445
 11
-120.185
 21
82.085
  0
LINE
  8
0
 10
-120.185
 20
82.085
 11
-119.944
 21
82.2824
  0
LINE
  8
0
 10
-119.944
 20
82.2824
 11
-119.67
 21
82.4291
  0
LINE
  8
0
 10
-119.67
 20
82.4291
 11
-119.372
 21
82.5195
  0
LINE
  8
0
 10
-119.372
 20
82.5195
 11
-119.062
 21
82.55
  0
LINE
  8
0
 10
-119.062
 20
82.55
 11
-118.753
 21
82.5195
  0
LINE
  8
0
 10
-118.753
 20
82.5195
 11
-118.455
 21
82.4291
  0
LINE
  8
0
 10
-118.455
 20
82.4291
 11
-118.181
 21
82.2824
  0
LINE
  8
0
 10
-118.181
 20
82.2824
 11
-117.94
 21
82.085
  0
LINE
  8
0
 10
-117.94
 20
82.085
 11
-117.743
 21
81.8445
  0
LINE
  8
0
 10
-117.743
 20
81.8445
 11
-117.596
 21
81.57
  0
LINE
  8
0
 10
-117.596
 20
81.57
 11
-117.506
 21
81.2722
  0
LINE
  8
0
 10
-117.506
 20
81.2722
 11
-117.475
 21
80.9625
  0
LINE
  8
0
 10
-117.475
 20
80.9625
 11
-117.506
 21
80.6528
  0
LINE
  8
0
 10
-117.506
 20
80.6528
 11
-117.596
 21
80.355
  0
LINE
  8
0
 10
-117.596
 20
80.355
 11
-117.743
 21
80.0805
  0
LINE
  8
0
 10
-117.743
 20
80.0805
 11
-117.94
 21
79.84
  0
LINE
  8
0
 10
-117.94
 20
79.84
 11
-118.181
 21
79.6425
  0
LINE
  8
0
 10
-118.181
 20
79.6425
 11
-118.455
 21
79.4958
  0
LINE
  8
0
 10
-118.455
 20
79.4958
 11
-118.753
 21
79.4055
  0
LINE
  8
0
 10
-118.753
 20
79.4055
 11
-119.062
 21
79.375
  0
LINE
  8
0
 10
-119.062
 20
79.375
 11
-119.372
 21
79.4055
  0
LINE
  8
0
 10
-109.847
 20
79.4055
 11
-110.145
 21
79.4958
  0
LINE
  8
0
 10
-110.145
 20
79.4958
 11
-110.419
 21
79.6425
  0
LINE
  8
0
 10
-110.419
 20
79.6425
 11
-110.66
 21
79.84
  0
LINE
  8
0
 10
-110.66
 20
79.84
 11
-110.857
 21
80.0805
  0
LINE
  8
0
 10
-110.857
 20
80.0805
 11
-111.004
 21
80.355
  0
LINE
  8
0
 10
-111.004
 20
80.355
 11
-111.094
 21
80.6528
  0
LINE
  8
0
 10
-111.094
 20
80.6528
 11
-111.125
 21
80.9625
  0
LINE
  8
0
 10
-111.125
 20
80.9625
 11
-111.094
 21
81.2722
  0
LINE
  8
0
 10
-111.094
 20
81.2722
 11
-111.004
 21
81.57
  0
LINE
  8
0
 10
-111.004
 20
81.57
 11
-110.857
 21
81.8445
  0
LINE
  8
0
 10
-110.857
 20
81.8445
 11
-110.66
 21
82.085
  0
LINE
  8
0
 10
-110.66
 20
82.085
 11
-110.419
 21
82.2824
  0
LINE
  8
0
 10
-110.419
 20
82.2824
 11
-110.145
 21
82.4291
  0
LINE
  8
0
 10
-110.145
 20
82.4291
 11
-109.847
 21
82.5195
  0
LINE
  8
0
 10
-109.847
 20
82.5195
 11
-109.538
 21
82.55
  0
LINE
  8
0
 10
-109.538
 20
82.55
 11
-109.228
 21
82.5195
  0
LINE
  8
0
 10
-109.228
 20
82.5195
 11
-108.93
 21
82.4291
  0
LINE
  8
0
 10
-108.93
 20
82.4291
 11
-108.656
 21
82.2824
  0
LINE
  8
0
 10
-108.656
 20
82.2824
 11
-108.415
 21
82.085
  0
LINE
  8
0
 10
-108.415
 20
82.085
 11
-108.218
 21
81.8445
  0
LINE
  8
0
 10
-108.218
 20
81.8445
 11
-108.071
 21
81.57
  0
LINE
  8
0
 10
-108.071
 20
81.57
 11
-107.98
 21
81.2722
  0
LINE
  8
0
 10
-107.98
 20
81.2722
 11
-107.95
 21
80.9625
  0
LINE
  8
0
 10
-107.95
 20
80.9625
 11
-107.98
 21
80.6528
  0
LINE
  8
0
 10
-107.98
 20
80.6528
 11
-108.071
 21
80.355
  0
LINE
  8
0
 10
-108.071
 20
80.355
 11
-108.218
 21
80.0805
  0
LINE
  8
0
 10
-108.218
 20
80.0805
 11
-108.415
 21
79.84
  0
LINE
  8
0
 10
-108.415
 20
79.84
 11
-108.656
 21
79.6425
  0
LINE
  8
0
 10
-108.656
 20
79.6425
 11
-108.93
 21
79.4958
  0
LINE
  8
0
 10
-108.93
 20
79.4958
 11
-109.228
 21
79.4055
  0
LINE
  8
0
 10
-109.228
 20
79.4055
 11
-109.538
 21
79.375
  0
LINE
  8
0
 10
-109.538
 20
79.375
 11
-109.847
 21
79.4055
  0
LINE
  8
0
 10
-100.322
 20
79.4055
 11
-100.62
 21
79.4958
  0
LINE
  8
0
 10
-100.62
 20
79.4958
 11
-100.894
 21
79.6425
  0
LINE
  8
0
 10
-100.894
 20
79.6425
 11
-101.135
 21
79.84
  0
LINE
  8
0
 10
-101.135
 20
79.84
 11
-101.332
 21
80.0805
  0
LINE
  8
0
 10
-101.332
 20
80.0805
 11
-101.479
 21
80.355
  0
LINE
  8
0
 10
-101.479
 20
80.355
 11
-101.57
 21
80.6528
  0
LINE
  8
0
 10
-101.57
 20
80.6528
 11
-101.6
 21
80.9625
  0
LINE
  8
0
 10
-101.6
 20
80.9625
 11
-101.57
 21
81.2722
  0
LINE
  8
0
 10
-101.57
 20
81.2722
 11
-101.479
 21
81.57
  0
LINE
  8
0
 10
-101.479
 20
81.57
 11
-101.332
 21
81.8445
  0
LINE
  8
0
 10
-101.332
 20
81.8445
 11
-101.135
 21
82.085
  0
LINE
  8
0
 10
-101.135
 20
82.085
 11
-100.894
 21
82.2824
  0
LINE
  8
0
 10
-100.894
 20
82.2824
 11
-100.62
 21
82.4291
  0
LINE
  8
0
 10
-100.62
 20
82.4291
 11
-100.322
 21
82.5195
  0
LINE
  8
0
 10
-100.322
 20
82.5195
 11
-100.012
 21
82.55
  0
LINE
  8
0
 10
-100.012
 20
82.55
 11
-99.7028
 21
82.5195
  0
LINE
  8
0
 10
-99.7028
 20
82.5195
 11
-99.405
 21
82.4291
  0
LINE
  8
0
 10
-99.405
 20
82.4291
 11
-99.1305
 21
82.2824
  0
LINE
  8
0
 10
-99.1305
 20
82.2824
 11
-98.89
 21
82.085
  0
LINE
  8
0
 10
-98.89
 20
82.085
 11
-98.6926
 21
81.8445
  0
LINE
  8
0
 10
-98.6926
 20
81.8445
 11
-98.5458
 21
81.57
  0
LINE
  8
0
 10
-98.5458
 20
81.57
 11
-98.4555
 21
81.2722
  0
LINE
  8
0
 10
-98.4555
 20
81.2722
 11
-98.425
 21
80.9625
  0
LINE
  8
0
 10
-98.425
 20
80.9625
 11
-98.4555
 21
80.6528
  0
LINE
  8
0
 10
-98.4555
 20
80.6528
 11
-98.5458
 21
80.355
  0
LINE
  8
0
 10
-98.5458
 20
80.355
 11
-98.6926
 21
80.0805
  0
LINE
  8
0
 10
-98.6926
 20
80.0805
 11
-98.89
 21
79.84
  0
LINE
  8
0
 10
-98.89
 20
79.84
 11
-99.1305
 21
79.6425
  0
LINE
  8
0
 10
-99.1305
 20
79.6425
 11
-99.405
 21
79.4958
  0
LINE
  8
0
 10
-99.405
 20
79.4958
 11
-99.7028
 21
79.4055
  0
LINE
  8
0
 10
-99.7028
 20
79.4055
 11
-100.012
 21
79.375
  0
LINE
  8
0
 10
-100.012
 20
79.375
 11
-100.322
 21
79.4055
  0
LINE
  8
0
 10
-90.7972
 20
79.4055
 11
-91.095
 21
79.4958
  0
LINE
  8
0
 10
-91.095
 20
79.4958
 11
-91.3695
 21
79.6425
  0
LINE
  8
0
 10
-91.3695
 20
79.6425
 11
-91.61
 21
79.84
  0
LINE
  8
0
 10
-91.61
 20
79.84
 11
-91.8075
 21
80.0805
  0
LINE
  8
0
 10
-91.8075
 20
80.0805
 11
-91.9542
 21
80.355
  0
LINE
  8
0
 10
-91.9542
 20
80.355
 11
-92.0445
 21
80.6528
  0
LINE
  8
0
 10
-92.0445
 20
80.6528
 11
-92.075
 21
80.9625
  0
LINE
  8
0
 10
-92.075
 20
80.9625
 11
-92.0445
 21
81.2722
  0
LINE
  8
0
 10
-92.0445
 20
81.2722
 11
-91.9542
 21
81.57
  0
LINE
  8
0
 10
-91.9542
 20
81.57
 11
-91.8075
 21
81.8445
  0
LINE
  8
0
 10
-91.8075
 20
81.8445
 11
-91.61
 21
82.085
  0
LINE
  8
0
 10
-91.61
 20
82.085
 11
-91.3695
 21
82.2824
  0
LINE
  8
0
 10
-91.3695
 20
82.2824
 11
-91.095
 21
82.4291
  0
LINE
  8
0
 10
-91.095
 20
82.4291
 11
-90.7972
 21
82.5195
  0
LINE
  8
0
 10
-90.7972
 20
82.5195
 11
-90.4875
 21
82.55
  0
LINE
  8
0
 10
-90.4875
 20
82.55
 11
-90.1778
 21
82.5195
  0
LINE
  8
0
 10
-90.1778
 20
82.5195
 11
-89.88
 21
82.4291
  0
LINE
  8
0
 10
-89.88
 20
82.4291
 11
-89.6055
 21
82.2824
  0
LINE
  8
0
 10
-89.6055
 20
82.2824
 11
-89.365
 21
82.085
  0
LINE
  8
0
 10
-89.365
 20
82.085
 11
-89.1675
 21
81.8445
  0
LINE
  8
0
 10
-89.1675
 20
81.8445
 11
-89.0208
 21
81.57
  0
LINE
  8
0
 10
-89.0208
 20
81.57
 11
-88.9305
 21
81.2722
  0
LINE
  8
0
 10
-88.9305
 20
81.2722
 11
-88.9
 21
80.9625
  0
LINE
  8
0
 10
-88.9
 20
80.9625
 11
-88.9305
 21
80.6528
  0
LINE
  8
0
 10
-88.9305
 20
80.6528
 11
-89.0208
 21
80.355
  0
LINE
  8
0
 10
-89.0208
 20
80.355
 11
-89.1675
 21
80.0805
  0
LINE
  8
0
 10
-89.1675
 20
80.0805
 11
-89.365
 21
79.84
  0
LINE
  8
0
 10
-89.365
 20
79.84
 11
-89.6055
 21
79.6425
  0
LINE
  8
0
 10
-89.6055
 20
79.6425
 11
-89.88
 21
79.4958
  0
LINE
  8
0
 10
-89.88
 20
79.4958
 11
-90.1778
 21
79.4055
  0
LINE
  8
0
 10
-90.1778
 20
79.4055
 11
-90.4875
 21
79.375
  0
LINE
  8
0
 10
-90.4875
 20
79.375
 11
-90.7972
 21
79.4055
  0
LINE
  8
0
 10
-176.522
 20
79.4055
 11
-176.82
 21
79.4958
  0
LINE
  8
0
 10
-176.82
 20
79.4958
 11
-177.094
 21
79.6425
  0
LINE
  8
0
 10
-177.094
 20
79.6425
 11
-177.335
 21
79.84
  0
LINE
  8
0
 10
-177.335
 20
79.84
 11
-177.532
 21
80.0805
  0
LINE
  8
0
 10
-177.532
 20
80.0805
 11
-177.679
 21
80.355
  0
LINE
  8
0
 10
-177.679
 20
80.355
 11
-177.769
 21
80.6528
  0
LINE
  8
0
 10
-177.769
 20
80.6528
 11
-177.8
 21
80.9625
  0
LINE
  8
0
 10
-177.8
 20
80.9625
 11
-177.769
 21
81.2722
  0
LINE
  8
0
 10
-177.769
 20
81.2722
 11
-177.679
 21
81.57
  0
LINE
  8
0
 10
-177.679
 20
81.57
 11
-177.532
 21
81.8445
  0
LINE
  8
0
 10
-177.532
 20
81.8445
 11
-177.335
 21
82.085
  0
LINE
  8
0
 10
-177.335
 20
82.085
 11
-177.094
 21
82.2824
  0
LINE
  8
0
 10
-177.094
 20
82.2824
 11
-176.82
 21
82.4291
  0
LINE
  8
0
 10
-176.82
 20
82.4291
 11
-176.522
 21
82.5195
  0
LINE
  8
0
 10
-176.522
 20
82.5195
 11
-176.212
 21
82.55
  0
LINE
  8
0
 10
-176.212
 20
82.55
 11
-175.903
 21
82.5195
  0
LINE
  8
0
 10
-175.903
 20
82.5195
 11
-175.605
 21
82.4291
  0
LINE
  8
0
 10
-175.605
 20
82.4291
 11
-175.331
 21
82.2824
  0
LINE
  8
0
 10
-175.331
 20
82.2824
 11
-175.09
 21
82.085
  0
LINE
  8
0
 10
-175.09
 20
82.085
 11
-174.893
 21
81.8445
  0
LINE
  8
0
 10
-174.893
 20
81.8445
 11
-174.746
 21
81.57
  0
LINE
  8
0
 10
-174.746
 20
81.57
 11
-174.656
 21
81.2722
  0
LINE
  8
0
 10
-174.656
 20
81.2722
 11
-174.625
 21
80.9625
  0
LINE
  8
0
 10
-174.625
 20
80.9625
 11
-174.656
 21
80.6528
  0
LINE
  8
0
 10
-174.656
 20
80.6528
 11
-174.746
 21
80.355
  0
LINE
  8
0
 10
-174.746
 20
80.355
 11
-174.893
 21
80.0805
  0
LINE
  8
0
 10
-174.893
 20
80.0805
 11
-175.09
 21
79.84
  0
LINE
  8
0
 10
-175.09
 20
79.84
 11
-175.331
 21
79.6425
  0
LINE
  8
0
 10
-175.331
 20
79.6425
 11
-175.605
 21
79.4958
  0
LINE
  8
0
 10
-175.605
 20
79.4958
 11
-175.903
 21
79.4055
  0
LINE
  8
0
 10
-175.903
 20
79.4055
 11
-176.212
 21
79.375
  0
LINE
  8
0
 10
-176.212
 20
79.375
 11
-176.522
 21
79.4055
  0
LINE
  8
0
 10
-71.7472
 20
79.4055
 11
-72.045
 21
79.4958
  0
LINE
  8
0
 10
-72.045
 20
79.4958
 11
-72.3195
 21
79.6425
  0
LINE
  8
0
 10
-72.3195
 20
79.6425
 11
-72.56
 21
79.84
  0
LINE
  8
0
 10
-72.56
 20
79.84
 11
-72.7575
 21
80.0805
  0
LINE
  8
0
 10
-72.7575
 20
80.0805
 11
-72.9042
 21
80.355
  0
LINE
  8
0
 10
-72.9042
 20
80.355
 11
-72.9945
 21
80.6528
  0
LINE
  8
0
 10
-72.9945
 20
80.6528
 11
-73.025
 21
80.9625
  0
LINE
  8
0
 10
-73.025
 20
80.9625
 11
-72.9945
 21
81.2722
  0
LINE
  8
0
 10
-72.9945
 20
81.2722
 11
-72.9042
 21
81.57
  0
LINE
  8
0
 10
-72.9042
 20
81.57
 11
-72.7575
 21
81.8445
  0
LINE
  8
0
 10
-72.7575
 20
81.8445
 11
-72.56
 21
82.085
  0
LINE
  8
0
 10
-72.56
 20
82.085
 11
-72.3195
 21
82.2824
  0
LINE
  8
0
 10
-72.3195
 20
82.2824
 11
-72.045
 21
82.4291
  0
LINE
  8
0
 10
-72.045
 20
82.4291
 11
-71.7472
 21
82.5195
  0
LINE
  8
0
 10
-71.7472
 20
82.5195
 11
-71.4375
 21
82.55
  0
LINE
  8
0
 10
-71.4375
 20
82.55
 11
-71.1278
 21
82.5195
  0
LINE
  8
0
 10
-71.1278
 20
82.5195
 11
-70.83
 21
82.4291
  0
LINE
  8
0
 10
-70.83
 20
82.4291
 11
-70.5555
 21
82.2824
  0
LINE
  8
0
 10
-70.5555
 20
82.2824
 11
-70.315
 21
82.085
  0
LINE
  8
0
 10
-70.315
 20
82.085
 11
-70.1175
 21
81.8445
  0
LINE
  8
0
 10
-70.1175
 20
81.8445
 11
-69.9708
 21
81.57
  0
LINE
  8
0
 10
-69.9708
 20
81.57
 11
-69.8805
 21
81.2722
  0
LINE
  8
0
 10
-69.8805
 20
81.2722
 11
-69.85
 21
80.9625
  0
LINE
  8
0
 10
-69.85
 20
80.9625
 11
-69.8805
 21
80.6528
  0
LINE
  8
0
 10
-69.8805
 20
80.6528
 11
-69.9708
 21
80.355
  0
LINE
  8
0
 10
-69.9708
 20
80.355
 11
-70.1175
 21
80.0805
  0
LINE
  8
0
 10
-70.1175
 20
80.0805
 11
-70.315
 21
79.84
  0
LINE
  8
0
 10
-70.315
 20
79.84
 11
-70.5555
 21
79.6425
  0
LINE
  8
0
 10
-70.5555
 20
79.6425
 11
-70.83
 21
79.4958
  0
LINE
  8
0
 10
-70.83
 20
79.4958
 11
-71.1278
 21
79.4055
  0
LINE
  8
0
 10
-71.1278
 20
79.4055
 11
-71.4375
 21
79.375
  0
LINE
  8
0
 10
-71.4375
 20
79.375
 11
-71.7472
 21
79.4055
  0
LINE
  8
0
 10
-62.2222
 20
79.4055
 11
-62.52
 21
79.4958
  0
LINE
  8
0
 10
-62.52
 20
79.4958
 11
-62.7945
 21
79.6425
  0
LINE
  8
0
 10
-62.7945
 20
79.6425
 11
-63.035
 21
79.84
  0
LINE
  8
0
 10
-63.035
 20
79.84
 11
-63.2325
 21
80.0805
  0
LINE
  8
0
 10
-63.2325
 20
80.0805
 11
-63.3792
 21
80.355
  0
LINE
  8
0
 10
-63.3792
 20
80.355
 11
-63.4695
 21
80.6528
  0
LINE
  8
0
 10
-63.4695
 20
80.6528
 11
-63.5
 21
80.9625
  0
LINE
  8
0
 10
-63.5
 20
80.9625
 11
-63.4695
 21
81.2722
  0
LINE
  8
0
 10
-63.4695
 20
81.2722
 11
-63.3792
 21
81.57
  0
LINE
  8
0
 10
-63.3792
 20
81.57
 11
-63.2325
 21
81.8445
  0
LINE
  8
0
 10
-63.2325
 20
81.8445
 11
-63.035
 21
82.085
  0
LINE
  8
0
 10
-63.035
 20
82.085
 11
-62.7945
 21
82.2824
  0
LINE
  8
0
 10
-62.7945
 20
82.2824
 11
-62.52
 21
82.4291
  0
LINE
  8
0
 10
-62.52
 20
82.4291
 11
-62.2222
 21
82.5195
  0
LINE
  8
0
 10
-62.2222
 20
82.5195
 11
-61.9125
 21
82.55
  0
LINE
  8
0
 10
-61.9125
 20
82.55
 11
-61.6028
 21
82.5195
  0
LINE
  8
0
 10
-61.6028
 20
82.5195
 11
-61.305
 21
82.4291
  0
LINE
  8
0
 10
-61.305
 20
82.4291
 11
-61.0305
 21
82.2824
  0
LINE
  8
0
 10
-61.0305
 20
82.2824
 11
-60.79
 21
82.085
  0
LINE
  8
0
 10
-60.79
 20
82.085
 11
-60.5925
 21
81.8445
  0
LINE
  8
0
 10
-60.5925
 20
81.8445
 11
-60.4458
 21
81.57
  0
LINE
  8
0
 10
-60.4458
 20
81.57
 11
-60.3555
 21
81.2722
  0
LINE
  8
0
 10
-60.3555
 20
81.2722
 11
-60.325
 21
80.9625
  0
LINE
  8
0
 10
-60.325
 20
80.9625
 11
-60.3555
 21
80.6528
  0
LINE
  8
0
 10
-60.3555
 20
80.6528
 11
-60.4458
 21
80.355
  0
LINE
  8
0
 10
-60.4458
 20
80.355
 11
-60.5925
 21
80.0805
  0
LINE
  8
0
 10
-60.5925
 20
80.0805
 11
-60.79
 21
79.84
  0
LINE
  8
0
 10
-60.79
 20
79.84
 11
-61.0305
 21
79.6425
  0
LINE
  8
0
 10
-61.0305
 20
79.6425
 11
-61.305
 21
79.4958
  0
LINE
  8
0
 10
-61.305
 20
79.4958
 11
-61.6028
 21
79.4055
  0
LINE
  8
0
 10
-61.6028
 20
79.4055
 11
-61.9125
 21
79.375
  0
LINE
  8
0
 10
-61.9125
 20
79.375
 11
-62.2222
 21
79.4055
  0
LINE
  8
0
 10
-52.6972
 20
79.4055
 11
-52.995
 21
79.4958
  0
LINE
  8
0
 10
-52.995
 20
79.4958
 11
-53.2695
 21
79.6425
  0
LINE
  8
0
 10
-53.2695
 20
79.6425
 11
-53.51
 21
79.84
  0
LINE
  8
0
 10
-53.51
 20
79.84
 11
-53.7075
 21
80.0805
  0
LINE
  8
0
 10
-53.7075
 20
80.0805
 11
-53.8542
 21
80.355
  0
LINE
  8
0
 10
-53.8542
 20
80.355
 11
-53.9445
 21
80.6528
  0
LINE
  8
0
 10
-53.9445
 20
80.6528
 11
-53.975
 21
80.9625
  0
LINE
  8
0
 10
-53.975
 20
80.9625
 11
-53.9445
 21
81.2722
  0
LINE
  8
0
 10
-53.9445
 20
81.2722
 11
-53.8542
 21
81.57
  0
LINE
  8
0
 10
-53.8542
 20
81.57
 11
-53.7075
 21
81.8445
  0
LINE
  8
0
 10
-53.7075
 20
81.8445
 11
-53.51
 21
82.085
  0
LINE
  8
0
 10
-53.51
 20
82.085
 11
-53.2695
 21
82.2824
  0
LINE
  8
0
 10
-53.2695
 20
82.2824
 11
-52.995
 21
82.4291
  0
LINE
  8
0
 10
-52.995
 20
82.4291
 11
-52.6972
 21
82.5195
  0
LINE
  8
0
 10
-52.6972
 20
82.5195
 11
-52.3875
 21
82.55
  0
LINE
  8
0
 10
-52.3875
 20
82.55
 11
-52.0778
 21
82.5195
  0
LINE
  8
0
 10
-52.0778
 20
82.5195
 11
-51.78
 21
82.4291
  0
LINE
  8
0
 10
-51.78
 20
82.4291
 11
-51.5055
 21
82.2824
  0
LINE
  8
0
 10
-51.5055
 20
82.2824
 11
-51.265
 21
82.085
  0
LINE
  8
0
 10
-51.265
 20
82.085
 11
-51.0676
 21
81.8445
  0
LINE
  8
0
 10
-51.0676
 20
81.8445
 11
-50.9208
 21
81.57
  0
LINE
  8
0
 10
-50.9208
 20
81.57
 11
-50.8305
 21
81.2722
  0
LINE
  8
0
 10
-50.8305
 20
81.2722
 11
-50.8
 21
80.9625
  0
LINE
  8
0
 10
-50.8
 20
80.9625
 11
-50.8305
 21
80.6528
  0
LINE
  8
0
 10
-50.8305
 20
80.6528
 11
-50.9208
 21
80.355
  0
LINE
  8
0
 10
-50.9208
 20
80.355
 11
-51.0676
 21
80.0805
  0
LINE
  8
0
 10
-51.0676
 20
80.0805
 11
-51.265
 21
79.84
  0
LINE
  8
0
 10
-51.265
 20
79.84
 11
-51.5055
 21
79.6425
  0
LINE
  8
0
 10
-51.5055
 20
79.6425
 11
-51.78
 21
79.4958
  0
LINE
  8
0
 10
-51.78
 20
79.4958
 11
-52.0778
 21
79.4055
  0
LINE
  8
0
 10
-52.0778
 20
79.4055
 11
-52.3875
 21
79.375
  0
LINE
  8
0
 10
-52.3875
 20
79.375
 11
-52.6972
 21
79.4055
  0
LINE
  8
0
 10
-43.1722
 20
79.4055
 11
-43.47
 21
79.4958
  0
LINE
  8
0
 10
-43.47
 20
79.4958
 11
-43.7445
 21
79.6425
  0
LINE
  8
0
 10
-43.7445
 20
79.6425
 11
-43.985
 21
79.84
  0
LINE
  8
0
 10
-43.985
 20
79.84
 11
-44.1825
 21
80.0805
  0
LINE
  8
0
 10
-44.1825
 20
80.0805
 11
-44.3292
 21
80.355
  0
LINE
  8
0
 10
-44.3292
 20
80.355
 11
-44.4195
 21
80.6528
  0
LINE
  8
0
 10
-44.4195
 20
80.6528
 11
-44.45
 21
80.9625
  0
LINE
  8
0
 10
-44.45
 20
80.9625
 11
-44.4195
 21
81.2722
  0
LINE
  8
0
 10
-44.4195
 20
81.2722
 11
-44.3292
 21
81.57
  0
LINE
  8
0
 10
-44.3292
 20
81.57
 11
-44.1825
 21
81.8445
  0
LINE
  8
0
 10
-44.1825
 20
81.8445
 11
-43.985
 21
82.085
  0
LINE
  8
0
 10
-43.985
 20
82.085
 11
-43.7445
 21
82.2824
  0
LINE
  8
0
 10
-43.7445
 20
82.2824
 11
-43.47
 21
82.4291
  0
LINE
  8
0
 10
-43.47
 20
82.4291
 11
-43.1722
 21
82.5195
  0
LINE
  8
0
 10
-43.1722
 20
82.5195
 11
-42.8625
 21
82.55
  0
LINE
  8
0
 10
-42.8625
 20
82.55
 11
-42.5528
 21
82.5195
  0
LINE
  8
0
 10
-42.5528
 20
82.5195
 11
-42.255
 21
82.4291
  0
LINE
  8
0
 10
-42.255
 20
82.4291
 11
-41.9805
 21
82.2824
  0
LINE
  8
0
 10
-41.9805
 20
82.2824
 11
-41.74
 21
82.085
  0
LINE
  8
0
 10
-41.74
 20
82.085
 11
-41.5425
 21
81.8445
  0
LINE
  8
0
 10
-41.5425
 20
81.8445
 11
-41.3958
 21
81.57
  0
LINE
  8
0
 10
-41.3958
 20
81.57
 11
-41.3055
 21
81.2722
  0
LINE
  8
0
 10
-41.3055
 20
81.2722
 11
-41.275
 21
80.9625
  0
LINE
  8
0
 10
-41.275
 20
80.9625
 11
-41.3055
 21
80.6528
  0
LINE
  8
0
 10
-41.3055
 20
80.6528
 11
-41.3958
 21
80.355
  0
LINE
  8
0
 10
-41.3958
 20
80.355
 11
-41.5425
 21
80.0805
  0
LINE
  8
0
 10
-41.5425
 20
80.0805
 11
-41.74
 21
79.84
  0
LINE
  8
0
 10
-41.74
 20
79.84
 11
-41.9805
 21
79.6425
  0
LINE
  8
0
 10
-41.9805
 20
79.6425
 11
-42.255
 21
79.4958
  0
LINE
  8
0
 10
-42.255
 20
79.4958
 11
-42.5528
 21
79.4055
  0
LINE
  8
0
 10
-42.5528
 20
79.4055
 11
-42.8625
 21
79.375
  0
LINE
  8
0
 10
-42.8625
 20
79.375
 11
-43.1722
 21
79.4055
  0
LINE
  8
0
 10
-33.6472
 20
79.4055
 11
-33.945
 21
79.4958
  0
LINE
  8
0
 10
-33.945
 20
79.4958
 11
-34.2195
 21
79.6425
  0
LINE
  8
0
 10
-34.2195
 20
79.6425
 11
-34.46
 21
79.84
  0
LINE
  8
0
 10
-34.46
 20
79.84
 11
-34.6575
 21
80.0805
  0
LINE
  8
0
 10
-34.6575
 20
80.0805
 11
-34.8042
 21
80.355
  0
LINE
  8
0
 10
-34.8042
 20
80.355
 11
-34.8945
 21
80.6528
  0
LINE
  8
0
 10
-34.8945
 20
80.6528
 11
-34.925
 21
80.9625
  0
LINE
  8
0
 10
-34.925
 20
80.9625
 11
-34.8945
 21
81.2722
  0
LINE
  8
0
 10
-34.8945
 20
81.2722
 11
-34.8042
 21
81.57
  0
LINE
  8
0
 10
-34.8042
 20
81.57
 11
-34.6575
 21
81.8445
  0
LINE
  8
0
 10
-34.6575
 20
81.8445
 11
-34.46
 21
82.085
  0
LINE
  8
0
 10
-34.46
 20
82.085
 11
-34.2195
 21
82.2824
  0
LINE
  8
0
 10
-34.2195
 20
82.2824
 11
-33.945
 21
82.4291
  0
LINE
  8
0
 10
-33.945
 20
82.4291
 11
-33.6472
 21
82.5195
  0
LINE
  8
0
 10
-33.6472
 20
82.5195
 11
-33.3375
 21
82.55
  0
LINE
  8
0
 10
-33.3375
 20
82.55
 11
-33.0278
 21
82.5195
  0
LINE
  8
0
 10
-33.0278
 20
82.5195
 11
-32.73
 21
82.4291
  0
LINE
  8
0
 10
-32.73
 20
82.4291
 11
-32.4555
 21
82.2824
  0
LINE
  8
0
 10
-32.4555
 20
82.2824
 11
-32.215
 21
82.085
  0
LINE
  8
0
 10
-32.215
 20
82.085
 11
-32.0175
 21
81.8445
  0
LINE
  8
0
 10
-32.0175
 20
81.8445
 11
-31.8708
 21
81.57
  0
LINE
  8
0
 10
-31.8708
 20
81.57
 11
-31.7805
 21
81.2722
  0
LINE
  8
0
 10
-31.7805
 20
81.2722
 11
-31.75
 21
80.9625
  0
LINE
  8
0
 10
-31.75
 20
80.9625
 11
-31.7805
 21
80.6528
  0
LINE
  8
0
 10
-31.7805
 20
80.6528
 11
-31.8708
 21
80.355
  0
LINE
  8
0
 10
-31.8708
 20
80.355
 11
-32.0175
 21
80.0805
  0
LINE
  8
0
 10
-32.0175
 20
80.0805
 11
-32.215
 21
79.84
  0
LINE
  8
0
 10
-32.215
 20
79.84
 11
-32.4555
 21
79.6425
  0
LINE
  8
0
 10
-32.4555
 20
79.6425
 11
-32.73
 21
79.4958
  0
LINE
  8
0
 10
-32.73
 20
79.4958
 11
-33.0278
 21
79.4055
  0
LINE
  8
0
 10
-33.0278
 20
79.4055
 11
-33.3375
 21
79.375
  0
LINE
  8
0
 10
-33.3375
 20
79.375
 11
-33.6472
 21
79.4055
  0
LINE
  8
0
 10
-24.1222
 20
79.4055
 11
-24.42
 21
79.4958
  0
LINE
  8
0
 10
-24.42
 20
79.4958
 11
-24.6945
 21
79.6425
  0
LINE
  8
0
 10
-24.6945
 20
79.6425
 11
-24.935
 21
79.84
  0
LINE
  8
0
 10
-24.935
 20
79.84
 11
-25.1325
 21
80.0805
  0
LINE
  8
0
 10
-25.1325
 20
80.0805
 11
-25.2792
 21
80.355
  0
LINE
  8
0
 10
-25.2792
 20
80.355
 11
-25.3695
 21
80.6528
  0
LINE
  8
0
 10
-25.3695
 20
80.6528
 11
-25.4
 21
80.9625
  0
LINE
  8
0
 10
-25.4
 20
80.9625
 11
-25.3695
 21
81.2722
  0
LINE
  8
0
 10
-25.3695
 20
81.2722
 11
-25.2792
 21
81.57
  0
LINE
  8
0
 10
-25.2792
 20
81.57
 11
-25.1325
 21
81.8445
  0
LINE
  8
0
 10
-25.1325
 20
81.8445
 11
-24.935
 21
82.085
  0
LINE
  8
0
 10
-24.935
 20
82.085
 11
-24.6945
 21
82.2824
  0
LINE
  8
0
 10
-24.6945
 20
82.2824
 11
-24.42
 21
82.4291
  0
LINE
  8
0
 10
-24.42
 20
82.4291
 11
-24.1222
 21
82.5195
  0
LINE
  8
0
 10
-24.1222
 20
82.5195
 11
-23.8125
 21
82.55
  0
LINE
  8
0
 10
-23.8125
 20
82.55
 11
-23.5028
 21
82.5195
  0
LINE
  8
0
 10
-23.5028
 20
82.5195
 11
-23.205
 21
82.4291
  0
LINE
  8
0
 10
-23.205
 20
82.4291
 11
-22.9305
 21
82.2824
  0
LINE
  8
0
 10
-22.9305
 20
82.2824
 11
-22.69
 21
82.085
  0
LINE
  8
0
 10
-22.69
 20
82.085
 11
-22.4925
 21
81.8445
  0
LINE
  8
0
 10
-22.4925
 20
81.8445
 11
-22.3458
 21
81.57
  0
LINE
  8
0
 10
-22.3458
 20
81.57
 11
-22.2555
 21
81.2722
  0
LINE
  8
0
 10
-22.2555
 20
81.2722
 11
-22.225
 21
80.9625
  0
LINE
  8
0
 10
-22.225
 20
80.9625
 11
-22.2555
 21
80.6528
  0
LINE
  8
0
 10
-22.2555
 20
80.6528
 11
-22.3458
 21
80.355
  0
LINE
  8
0
 10
-22.3458
 20
80.355
 11
-22.4925
 21
80.0805
  0
LINE
  8
0
 10
-22.4925
 20
80.0805
 11
-22.69
 21
79.84
  0
LINE
  8
0
 10
-22.69
 20
79.84
 11
-22.9305
 21
79.6425
  0
LINE
  8
0
 10
-22.9305
 20
79.6425
 11
-23.205
 21
79.4958
  0
LINE
  8
0
 10
-23.205
 20
79.4958
 11
-23.5028
 21
79.4055
  0
LINE
  8
0
 10
-23.5028
 20
79.4055
 11
-23.8125
 21
79.375
  0
LINE
  8
0
 10
-23.8125
 20
79.375
 11
-24.1222
 21
79.4055
  0
LINE
  8
0
 10
-14.5972
 20
79.4055
 11
-14.895
 21
79.4958
  0
LINE
  8
0
 10
-14.895
 20
79.4958
 11
-15.1695
 21
79.6425
  0
LINE
  8
0
 10
-15.1695
 20
79.6425
 11
-15.41
 21
79.84
  0
LINE
  8
0
 10
-15.41
 20
79.84
 11
-15.6075
 21
80.0805
  0
LINE
  8
0
 10
-15.6075
 20
80.0805
 11
-15.7542
 21
80.355
  0
LINE
  8
0
 10
-15.7542
 20
80.355
 11
-15.8445
 21
80.6528
  0
LINE
  8
0
 10
-15.8445
 20
80.6528
 11
-15.875
 21
80.9625
  0
LINE
  8
0
 10
-15.875
 20
80.9625
 11
-15.8445
 21
81.2722
  0
LINE
  8
0
 10
-15.8445
 20
81.2722
 11
-15.7542
 21
81.57
  0
LINE
  8
0
 10
-15.7542
 20
81.57
 11
-15.6075
 21
81.8445
  0
LINE
  8
0
 10
-15.6075
 20
81.8445
 11
-15.41
 21
82.085
  0
LINE
  8
0
 10
-15.41
 20
82.085
 11
-15.1695
 21
82.2824
  0
LINE
  8
0
 10
-15.1695
 20
82.2824
 11
-14.895
 21
82.4291
  0
LINE
  8
0
 10
-14.895
 20
82.4291
 11
-14.5972
 21
82.5195
  0
LINE
  8
0
 10
-14.5972
 20
82.5195
 11
-14.2875
 21
82.55
  0
LINE
  8
0
 10
-14.2875
 20
82.55
 11
-13.9778
 21
82.5195
  0
LINE
  8
0
 10
-13.9778
 20
82.5195
 11
-13.68
 21
82.4291
  0
LINE
  8
0
 10
-13.68
 20
82.4291
 11
-13.4055
 21
82.2824
  0
LINE
  8
0
 10
-13.4055
 20
82.2824
 11
-13.165
 21
82.085
  0
LINE
  8
0
 10
-13.165
 20
82.085
 11
-12.9675
 21
81.8445
  0
LINE
  8
0
 10
-12.9675
 20
81.8445
 11
-12.8208
 21
81.57
  0
LINE
  8
0
 10
-12.8208
 20
81.57
 11
-12.7305
 21
81.2722
  0
LINE
  8
0
 10
-12.7305
 20
81.2722
 11
-12.7
 21
80.9625
  0
LINE
  8
0
 10
-12.7
 20
80.9625
 11
-12.7305
 21
80.6528
  0
LINE
  8
0
 10
-12.7305
 20
80.6528
 11
-12.8208
 21
80.355
  0
LINE
  8
0
 10
-12.8208
 20
80.355
 11
-12.9675
 21
80.0805
  0
LINE
  8
0
 10
-12.9675
 20
80.0805
 11
-13.165
 21
79.84
  0
LINE
  8
0
 10
-13.165
 20
79.84
 11
-13.4055
 21
79.6425
  0
LINE
  8
0
 10
-13.4055
 20
79.6425
 11
-13.68
 21
79.4958
  0
LINE
  8
0
 10
-13.68
 20
79.4958
 11
-13.9778
 21
79.4055
  0
LINE
  8
0
 10
-13.9778
 20
79.4055
 11
-14.2875
 21
79.375
  0
LINE
  8
0
 10
-14.2875
 20
79.375
 11
-14.5972
 21
79.4055
  0
LINE
  8
0
 10
-5.0722
 20
79.4055
 11
-5.37001
 21
79.4958
  0
LINE
  8
0
 10
-5.37001
 20
79.4958
 11
-5.64447
 21
79.6425
  0
LINE
  8
0
 10
-5.64447
 20
79.6425
 11
-5.88504
 21
79.84
  0
LINE
  8
0
 10
-5.88504
 20
79.84
 11
-6.08246
 21
80.0805
  0
LINE
  8
0
 10
-6.08246
 20
80.0805
 11
-6.22916
 21
80.355
  0
LINE
  8
0
 10
-6.22916
 20
80.355
 11
-6.3195
 21
80.6528
  0
LINE
  8
0
 10
-6.3195
 20
80.6528
 11
-6.35001
 21
80.9625
  0
LINE
  8
0
 10
-6.35001
 20
80.9625
 11
-6.3195
 21
81.2722
  0
LINE
  8
0
 10
-6.3195
 20
81.2722
 11
-6.22916
 21
81.57
  0
LINE
  8
0
 10
-6.22916
 20
81.57
 11
-6.08246
 21
81.8445
  0
LINE
  8
0
 10
-6.08246
 20
81.8445
 11
-5.88504
 21
82.085
  0
LINE
  8
0
 10
-5.88504
 20
82.085
 11
-5.64447
 21
82.2824
  0
LINE
  8
0
 10
-5.64447
 20
82.2824
 11
-5.37001
 21
82.4291
  0
LINE
  8
0
 10
-5.37001
 20
82.4291
 11
-5.0722
 21
82.5195
  0
LINE
  8
0
 10
-5.0722
 20
82.5195
 11
-4.7625
 21
82.55
  0
LINE
  8
0
 10
-4.7625
 20
82.55
 11
-4.45279
 21
82.5195
  0
LINE
  8
0
 10
-4.45279
 20
82.5195
 11
-4.155
 21
82.4291
  0
LINE
  8
0
 10
-4.155
 20
82.4291
 11
-3.88054
 21
82.2824
  0
LINE
  8
0
 10
-3.88054
 20
82.2824
 11
-3.63997
 21
82.085
  0
LINE
  8
0
 10
-3.63997
 20
82.085
 11
-3.44255
 21
81.8445
  0
LINE
  8
0
 10
-3.44255
 20
81.8445
 11
-3.29584
 21
81.57
  0
LINE
  8
0
 10
-3.29584
 20
81.57
 11
-3.20551
 21
81.2722
  0
LINE
  8
0
 10
-3.20551
 20
81.2722
 11
-3.175
 21
80.9625
  0
LINE
  8
0
 10
-3.175
 20
80.9625
 11
-3.20551
 21
80.6528
  0
LINE
  8
0
 10
-3.20551
 20
80.6528
 11
-3.29584
 21
80.355
  0
LINE
  8
0
 10
-3.29584
 20
80.355
 11
-3.44255
 21
80.0805
  0
LINE
  8
0
 10
-3.44255
 20
80.0805
 11
-3.63997
 21
79.84
  0
LINE
  8
0
 10
-3.63997
 20
79.84
 11
-3.88054
 21
79.6425
  0
LINE
  8
0
 10
-3.88054
 20
79.6425
 11
-4.155
 21
79.4958
  0
LINE
  8
0
 10
-4.155
 20
79.4958
 11
-4.45279
 21
79.4055
  0
LINE
  8
0
 10
-4.45279
 20
79.4055
 11
-4.7625
 21
79.375
  0
LINE
  8
0
 10
-4.7625
 20
79.375
 11
-5.0722
 21
79.4055
  0
LINE
  8
0
 10
4.45277
 20
79.4055
 11
4.15497
 21
79.4958
  0
LINE
  8
0
 10
4.15497
 20
79.4958
 11
3.88051
 21
79.6425
  0
LINE
  8
0
 10
3.88051
 20
79.6425
 11
3.63995
 21
79.84
  0
LINE
  8
0
 10
3.63995
 20
79.84
 11
3.44252
 21
80.0805
  0
LINE
  8
0
 10
3.44252
 20
80.0805
 11
3.29582
 21
80.355
  0
LINE
  8
0
 10
3.29582
 20
80.355
 11
3.20549
 21
80.6528
  0
LINE
  8
0
 10
3.20549
 20
80.6528
 11
3.17499
 21
80.9625
  0
LINE
  8
0
 10
3.17499
 20
80.9625
 11
3.20549
 21
81.2722
  0
LINE
  8
0
 10
3.20549
 20
81.2722
 11
3.29582
 21
81.57
  0
LINE
  8
0
 10
3.29582
 20
81.57
 11
3.44252
 21
81.8445
  0
LINE
  8
0
 10
3.44252
 20
81.8445
 11
3.63995
 21
82.085
  0
LINE
  8
0
 10
3.63995
 20
82.085
 11
3.88051
 21
82.2824
  0
LINE
  8
0
 10
3.88051
 20
82.2824
 11
4.15497
 21
82.4291
  0
LINE
  8
0
 10
4.15497
 20
82.4291
 11
4.45277
 21
82.5195
  0
LINE
  8
0
 10
4.45277
 20
82.5195
 11
4.76248
 21
82.55
  0
LINE
  8
0
 10
4.76248
 20
82.55
 11
5.07219
 21
82.5195
  0
LINE
  8
0
 10
5.07219
 20
82.5195
 11
5.37
 21
82.4291
  0
LINE
  8
0
 10
5.37
 20
82.4291
 11
5.64445
 21
82.2824
  0
LINE
  8
0
 10
5.64445
 20
82.2824
 11
5.88501
 21
82.085
  0
LINE
  8
0
 10
5.88501
 20
82.085
 11
6.08244
 21
81.8445
  0
LINE
  8
0
 10
6.08244
 20
81.8445
 11
6.22914
 21
81.57
  0
LINE
  8
0
 10
6.22914
 20
81.57
 11
6.31947
 21
81.2722
  0
LINE
  8
0
 10
6.31947
 20
81.2722
 11
6.34999
 21
80.9625
  0
LINE
  8
0
 10
6.34999
 20
80.9625
 11
6.31947
 21
80.6528
  0
LINE
  8
0
 10
6.31947
 20
80.6528
 11
6.22914
 21
80.355
  0
LINE
  8
0
 10
6.22914
 20
80.355
 11
6.08244
 21
80.0805
  0
LINE
  8
0
 10
6.08244
 20
80.0805
 11
5.88501
 21
79.84
  0
LINE
  8
0
 10
5.88501
 20
79.84
 11
5.64445
 21
79.6425
  0
LINE
  8
0
 10
5.64445
 20
79.6425
 11
5.37
 21
79.4958
  0
LINE
  8
0
 10
5.37
 20
79.4958
 11
5.07219
 21
79.4055
  0
LINE
  8
0
 10
5.07219
 20
79.4055
 11
4.76248
 21
79.375
  0
LINE
  8
0
 10
4.76248
 20
79.375
 11
4.45277
 21
79.4055
  0
LINE
  8
0
 10
-166.997
 20
79.4055
 11
-167.295
 21
79.4958
  0
LINE
  8
0
 10
-167.295
 20
79.4958
 11
-167.569
 21
79.6425
  0
LINE
  8
0
 10
-167.569
 20
79.6425
 11
-167.81
 21
79.84
  0
LINE
  8
0
 10
-167.81
 20
79.84
 11
-168.007
 21
80.0805
  0
LINE
  8
0
 10
-168.007
 20
80.0805
 11
-168.154
 21
80.355
  0
LINE
  8
0
 10
-168.154
 20
80.355
 11
-168.244
 21
80.6528
  0
LINE
  8
0
 10
-168.244
 20
80.6528
 11
-168.275
 21
80.9625
  0
LINE
  8
0
 10
-168.275
 20
80.9625
 11
-168.244
 21
81.2722
  0
LINE
  8
0
 10
-168.244
 20
81.2722
 11
-168.154
 21
81.57
  0
LINE
  8
0
 10
-168.154
 20
81.57
 11
-168.007
 21
81.8445
  0
LINE
  8
0
 10
-168.007
 20
81.8445
 11
-167.81
 21
82.085
  0
LINE
  8
0
 10
-167.81
 20
82.085
 11
-167.569
 21
82.2824
  0
LINE
  8
0
 10
-167.569
 20
82.2824
 11
-167.295
 21
82.4291
  0
LINE
  8
0
 10
-167.295
 20
82.4291
 11
-166.997
 21
82.5195
  0
LINE
  8
0
 10
-166.997
 20
82.5195
 11
-166.688
 21
82.55
  0
LINE
  8
0
 10
-166.688
 20
82.55
 11
-166.378
 21
82.5195
  0
LINE
  8
0
 10
-166.378
 20
82.5195
 11
-166.08
 21
82.4291
  0
LINE
  8
0
 10
-166.08
 20
82.4291
 11
-165.806
 21
82.2824
  0
LINE
  8
0
 10
-165.806
 20
82.2824
 11
-165.565
 21
82.085
  0
LINE
  8
0
 10
-165.565
 20
82.085
 11
-165.368
 21
81.8445
  0
LINE
  8
0
 10
-165.368
 20
81.8445
 11
-165.221
 21
81.57
  0
LINE
  8
0
 10
-165.221
 20
81.57
 11
-165.131
 21
81.2722
  0
LINE
  8
0
 10
-165.131
 20
81.2722
 11
-165.1
 21
80.9625
  0
LINE
  8
0
 10
-165.1
 20
80.9625
 11
-165.131
 21
80.6528
  0
LINE
  8
0
 10
-165.131
 20
80.6528
 11
-165.221
 21
80.355
  0
LINE
  8
0
 10
-165.221
 20
80.355
 11
-165.368
 21
80.0805
  0
LINE
  8
0
 10
-165.368
 20
80.0805
 11
-165.565
 21
79.84
  0
LINE
  8
0
 10
-165.565
 20
79.84
 11
-165.806
 21
79.6425
  0
LINE
  8
0
 10
-165.806
 20
79.6425
 11
-166.08
 21
79.4958
  0
LINE
  8
0
 10
-166.08
 20
79.4958
 11
-166.378
 21
79.4055
  0
LINE
  8
0
 10
-166.378
 20
79.4055
 11
-166.688
 21
79.375
  0
LINE
  8
0
 10
-166.688
 20
79.375
 11
-166.997
 21
79.4055
  0
LINE
  8
0
 10
-81.2722
 20
79.4055
 11
-81.57
 21
79.4958
  0
LINE
  8
0
 10
-81.57
 20
79.4958
 11
-81.8445
 21
79.6425
  0
LINE
  8
0
 10
-81.8445
 20
79.6425
 11
-82.085
 21
79.84
  0
LINE
  8
0
 10
-82.085
 20
79.84
 11
-82.2825
 21
80.0805
  0
LINE
  8
0
 10
-82.2825
 20
80.0805
 11
-82.4292
 21
80.355
  0
LINE
  8
0
 10
-82.4292
 20
80.355
 11
-82.5195
 21
80.6528
  0
LINE
  8
0
 10
-82.5195
 20
80.6528
 11
-82.55
 21
80.9625
  0
LINE
  8
0
 10
-82.55
 20
80.9625
 11
-82.5195
 21
81.2722
  0
LINE
  8
0
 10
-82.5195
 20
81.2722
 11
-82.4292
 21
81.57
  0
LINE
  8
0
 10
-82.4292
 20
81.57
 11
-82.2825
 21
81.8445
  0
LINE
  8
0
 10
-82.2825
 20
81.8445
 11
-82.085
 21
82.085
  0
LINE
  8
0
 10
-82.085
 20
82.085
 11
-81.8445
 21
82.2824
  0
LINE
  8
0
 10
-81.8445
 20
82.2824
 11
-81.57
 21
82.4291
  0
LINE
  8
0
 10
-81.57
 20
82.4291
 11
-81.2722
 21
82.5195
  0
LINE
  8
0
 10
-81.2722
 20
82.5195
 11
-80.9625
 21
82.55
  0
LINE
  8
0
 10
-80.9625
 20
82.55
 11
-80.6528
 21
82.5195
  0
LINE
  8
0
 10
-80.6528
 20
82.5195
 11
-80.355
 21
82.4291
  0
LINE
  8
0
 10
-80.355
 20
82.4291
 11
-80.0805
 21
82.2824
  0
LINE
  8
0
 10
-80.0805
 20
82.2824
 11
-79.84
 21
82.085
  0
LINE
  8
0
 10
-79.84
 20
82.085
 11
-79.6425
 21
81.8445
  0
LINE
  8
0
 10
-79.6425
 20
81.8445
 11
-79.4958
 21
81.57
  0
LINE
  8
0
 10
-79.4958
 20
81.57
 11
-79.4055
 21
81.2722
  0
LINE
  8
0
 10
-79.4055
 20
81.2722
 11
-79.375
 21
80.9625
  0
LINE
  8
0
 10
-79.375
 20
80.9625
 11
-79.4055
 21
80.6528
  0
LINE
  8
0
 10
-79.4055
 20
80.6528
 11
-79.4958
 21
80.355
  0
LINE
  8
0
 10
-79.4958
 20
80.355
 11
-79.6425
 21
80.0805
  0
LINE
  8
0
 10
-79.6425
 20
80.0805
 11
-79.84
 21
79.84
  0
LINE
  8
0
 10
-79.84
 20
79.84
 11
-80.0805
 21
79.6425
  0
LINE
  8
0
 10
-80.0805
 20
79.6425
 11
-80.355
 21
79.4958
  0
LINE
  8
0
 10
-80.355
 20
79.4958
 11
-80.6528
 21
79.4055
  0
LINE
  8
0
 10
-80.6528
 20
79.4055
 11
-80.9625
 21
79.375
  0
LINE
  8
0
 10
-80.9625
 20
79.375
 11
-81.2722
 21
79.4055
  0
LINE
  8
0
 10
175.903
 20
79.4055
 11
175.605
 21
79.4958
  0
LINE
  8
0
 10
175.605
 20
79.4958
 11
175.331
 21
79.6425
  0
LINE
  8
0
 10
175.331
 20
79.6425
 11
175.09
 21
79.84
  0
LINE
  8
0
 10
175.09
 20
79.84
 11
174.893
 21
80.0805
  0
LINE
  8
0
 10
174.893
 20
80.0805
 11
174.746
 21
80.355
  0
LINE
  8
0
 10
174.746
 20
80.355
 11
174.655
 21
80.6528
  0
LINE
  8
0
 10
174.655
 20
80.6528
 11
174.625
 21
80.9625
  0
LINE
  8
0
 10
174.625
 20
80.9625
 11
174.655
 21
81.2722
  0
LINE
  8
0
 10
174.655
 20
81.2722
 11
174.746
 21
81.57
  0
LINE
  8
0
 10
174.746
 20
81.57
 11
174.893
 21
81.8445
  0
LINE
  8
0
 10
174.893
 20
81.8445
 11
175.09
 21
82.085
  0
LINE
  8
0
 10
175.09
 20
82.085
 11
175.331
 21
82.2824
  0
LINE
  8
0
 10
175.331
 20
82.2824
 11
175.605
 21
82.4291
  0
LINE
  8
0
 10
175.605
 20
82.4291
 11
175.903
 21
82.5195
  0
LINE
  8
0
 10
175.903
 20
82.5195
 11
176.212
 21
82.55
  0
LINE
  8
0
 10
176.212
 20
82.55
 11
176.522
 21
82.5195
  0
LINE
  8
0
 10
176.522
 20
82.5195
 11
176.82
 21
82.4291
  0
LINE
  8
0
 10
176.82
 20
82.4291
 11
177.094
 21
82.2824
  0
LINE
  8
0
 10
177.094
 20
82.2824
 11
177.335
 21
82.085
  0
LINE
  8
0
 10
177.335
 20
82.085
 11
177.532
 21
81.8445
  0
LINE
  8
0
 10
177.532
 20
81.8445
 11
177.679
 21
81.57
  0
LINE
  8
0
 10
177.679
 20
81.57
 11
177.769
 21
81.2722
  0
LINE
  8
0
 10
177.769
 20
81.2722
 11
177.8
 21
80.9625
  0
LINE
  8
0
 10
177.8
 20
80.9625
 11
177.769
 21
80.6528
  0
LINE
  8
0
 10
177.769
 20
80.6528
 11
177.679
 21
80.355
  0
LINE
  8
0
 10
177.679
 20
80.355
 11
177.532
 21
80.0805
  0
LINE
  8
0
 10
177.532
 20
80.0805
 11
177.335
 21
79.84
  0
LINE
  8
0
 10
177.335
 20
79.84
 11
177.094
 21
79.6425
  0
LINE
  8
0
 10
177.094
 20
79.6425
 11
176.82
 21
79.4958
  0
LINE
  8
0
 10
176.82
 20
79.4958
 11
176.522
 21
79.4055
  0
LINE
  8
0
 10
176.522
 20
79.4055
 11
176.212
 21
79.375
  0
LINE
  8
0
 10
176.212
 20
79.375
 11
175.903
 21
79.4055
  0
LINE
  8
0
 10
166.378
 20
79.4055
 11
166.08
 21
79.4958
  0
LINE
  8
0
 10
166.08
 20
79.4958
 11
165.806
 21
79.6425
  0
LINE
  8
0
 10
165.806
 20
79.6425
 11
165.565
 21
79.84
  0
LINE
  8
0
 10
165.565
 20
79.84
 11
165.368
 21
80.0805
  0
LINE
  8
0
 10
165.368
 20
80.0805
 11
165.221
 21
80.355
  0
LINE
  8
0
 10
165.221
 20
80.355
 11
165.13
 21
80.6528
  0
LINE
  8
0
 10
165.13
 20
80.6528
 11
165.1
 21
80.9625
  0
LINE
  8
0
 10
165.1
 20
80.9625
 11
165.13
 21
81.2722
  0
LINE
  8
0
 10
165.13
 20
81.2722
 11
165.221
 21
81.57
  0
LINE
  8
0
 10
165.221
 20
81.57
 11
165.368
 21
81.8445
  0
LINE
  8
0
 10
165.368
 20
81.8445
 11
165.565
 21
82.085
  0
LINE
  8
0
 10
165.565
 20
82.085
 11
165.806
 21
82.2824
  0
LINE
  8
0
 10
165.806
 20
82.2824
 11
166.08
 21
82.4291
  0
LINE
  8
0
 10
166.08
 20
82.4291
 11
166.378
 21
82.5195
  0
LINE
  8
0
 10
166.378
 20
82.5195
 11
166.687
 21
82.55
  0
LINE
  8
0
 10
166.687
 20
82.55
 11
166.997
 21
82.5195
  0
LINE
  8
0
 10
166.997
 20
82.5195
 11
167.295
 21
82.4291
  0
LINE
  8
0
 10
167.295
 20
82.4291
 11
167.569
 21
82.2824
  0
LINE
  8
0
 10
167.569
 20
82.2824
 11
167.81
 21
82.085
  0
LINE
  8
0
 10
167.81
 20
82.085
 11
168.007
 21
81.8445
  0
LINE
  8
0
 10
168.007
 20
81.8445
 11
168.154
 21
81.57
  0
LINE
  8
0
 10
168.154
 20
81.57
 11
168.244
 21
81.2722
  0
LINE
  8
0
 10
168.244
 20
81.2722
 11
168.275
 21
80.9625
  0
LINE
  8
0
 10
168.275
 20
80.9625
 11
168.244
 21
80.6528
  0
LINE
  8
0
 10
168.244
 20
80.6528
 11
168.154
 21
80.355
  0
LINE
  8
0
 10
168.154
 20
80.355
 11
168.007
 21
80.0805
  0
LINE
  8
0
 10
168.007
 20
80.0805
 11
167.81
 21
79.84
  0
LINE
  8
0
 10
167.81
 20
79.84
 11
167.569
 21
79.6425
  0
LINE
  8
0
 10
167.569
 20
79.6425
 11
167.295
 21
79.4958
  0
LINE
  8
0
 10
167.295
 20
79.4958
 11
166.997
 21
79.4055
  0
LINE
  8
0
 10
166.997
 20
79.4055
 11
166.687
 21
79.375
  0
LINE
  8
0
 10
166.687
 20
79.375
 11
166.378
 21
79.4055
  0
LINE
  8
0
 10
156.853
 20
79.4055
 11
156.555
 21
79.4958
  0
LINE
  8
0
 10
156.555
 20
79.4958
 11
156.281
 21
79.6425
  0
LINE
  8
0
 10
156.281
 20
79.6425
 11
156.04
 21
79.84
  0
LINE
  8
0
 10
156.04
 20
79.84
 11
155.843
 21
80.0805
  0
LINE
  8
0
 10
155.843
 20
80.0805
 11
155.696
 21
80.355
  0
LINE
  8
0
 10
155.696
 20
80.355
 11
155.605
 21
80.6528
  0
LINE
  8
0
 10
155.605
 20
80.6528
 11
155.575
 21
80.9625
  0
LINE
  8
0
 10
155.575
 20
80.9625
 11
155.605
 21
81.2722
  0
LINE
  8
0
 10
155.605
 20
81.2722
 11
155.696
 21
81.57
  0
LINE
  8
0
 10
155.696
 20
81.57
 11
155.843
 21
81.8445
  0
LINE
  8
0
 10
155.843
 20
81.8445
 11
156.04
 21
82.085
  0
LINE
  8
0
 10
156.04
 20
82.085
 11
156.281
 21
82.2824
  0
LINE
  8
0
 10
156.281
 20
82.2824
 11
156.555
 21
82.4291
  0
LINE
  8
0
 10
156.555
 20
82.4291
 11
156.853
 21
82.5195
  0
LINE
  8
0
 10
156.853
 20
82.5195
 11
157.162
 21
82.55
  0
LINE
  8
0
 10
157.162
 20
82.55
 11
157.472
 21
82.5195
  0
LINE
  8
0
 10
157.472
 20
82.5195
 11
157.77
 21
82.4291
  0
LINE
  8
0
 10
157.77
 20
82.4291
 11
158.044
 21
82.2824
  0
LINE
  8
0
 10
158.044
 20
82.2824
 11
158.285
 21
82.085
  0
LINE
  8
0
 10
158.285
 20
82.085
 11
158.482
 21
81.8445
  0
LINE
  8
0
 10
158.482
 20
81.8445
 11
158.629
 21
81.57
  0
LINE
  8
0
 10
158.629
 20
81.57
 11
158.719
 21
81.2722
  0
LINE
  8
0
 10
158.719
 20
81.2722
 11
158.75
 21
80.9625
  0
LINE
  8
0
 10
158.75
 20
80.9625
 11
158.719
 21
80.6528
  0
LINE
  8
0
 10
158.719
 20
80.6528
 11
158.629
 21
80.355
  0
LINE
  8
0
 10
158.629
 20
80.355
 11
158.482
 21
80.0805
  0
LINE
  8
0
 10
158.482
 20
80.0805
 11
158.285
 21
79.84
  0
LINE
  8
0
 10
158.285
 20
79.84
 11
158.044
 21
79.6425
  0
LINE
  8
0
 10
158.044
 20
79.6425
 11
157.77
 21
79.4958
  0
LINE
  8
0
 10
157.77
 20
79.4958
 11
157.472
 21
79.4055
  0
LINE
  8
0
 10
157.472
 20
79.4055
 11
157.162
 21
79.375
  0
LINE
  8
0
 10
157.162
 20
79.375
 11
156.853
 21
79.4055
  0
LINE
  8
0
 10
147.328
 20
79.4055
 11
147.03
 21
79.4958
  0
LINE
  8
0
 10
147.03
 20
79.4958
 11
146.756
 21
79.6425
  0
LINE
  8
0
 10
146.756
 20
79.6425
 11
146.515
 21
79.84
  0
LINE
  8
0
 10
146.515
 20
79.84
 11
146.318
 21
80.0805
  0
LINE
  8
0
 10
146.318
 20
80.0805
 11
146.171
 21
80.355
  0
LINE
  8
0
 10
146.171
 20
80.355
 11
146.08
 21
80.6528
  0
LINE
  8
0
 10
146.08
 20
80.6528
 11
146.05
 21
80.9625
  0
LINE
  8
0
 10
146.05
 20
80.9625
 11
146.08
 21
81.2722
  0
LINE
  8
0
 10
146.08
 20
81.2722
 11
146.171
 21
81.57
  0
LINE
  8
0
 10
146.171
 20
81.57
 11
146.318
 21
81.8445
  0
LINE
  8
0
 10
146.318
 20
81.8445
 11
146.515
 21
82.085
  0
LINE
  8
0
 10
146.515
 20
82.085
 11
146.756
 21
82.2824
  0
LINE
  8
0
 10
146.756
 20
82.2824
 11
147.03
 21
82.4291
  0
LINE
  8
0
 10
147.03
 20
82.4291
 11
147.328
 21
82.5195
  0
LINE
  8
0
 10
147.328
 20
82.5195
 11
147.637
 21
82.55
  0
LINE
  8
0
 10
147.637
 20
82.55
 11
147.947
 21
82.5195
  0
LINE
  8
0
 10
147.947
 20
82.5195
 11
148.245
 21
82.4291
  0
LINE
  8
0
 10
148.245
 20
82.4291
 11
148.519
 21
82.2824
  0
LINE
  8
0
 10
148.519
 20
82.2824
 11
148.76
 21
82.085
  0
LINE
  8
0
 10
148.76
 20
82.085
 11
148.957
 21
81.8445
  0
LINE
  8
0
 10
148.957
 20
81.8445
 11
149.104
 21
81.57
  0
LINE
  8
0
 10
149.104
 20
81.57
 11
149.194
 21
81.2722
  0
LINE
  8
0
 10
149.194
 20
81.2722
 11
149.225
 21
80.9625
  0
LINE
  8
0
 10
149.225
 20
80.9625
 11
149.194
 21
80.6528
  0
LINE
  8
0
 10
149.194
 20
80.6528
 11
149.104
 21
80.355
  0
LINE
  8
0
 10
149.104
 20
80.355
 11
148.957
 21
80.0805
  0
LINE
  8
0
 10
148.957
 20
80.0805
 11
148.76
 21
79.84
  0
LINE
  8
0
 10
148.76
 20
79.84
 11
148.519
 21
79.6425
  0
LINE
  8
0
 10
148.519
 20
79.6425
 11
148.245
 21
79.4958
  0
LINE
  8
0
 10
148.245
 20
79.4958
 11
147.947
 21
79.4055
  0
LINE
  8
0
 10
147.947
 20
79.4055
 11
147.637
 21
79.375
  0
LINE
  8
0
 10
147.637
 20
79.375
 11
147.328
 21
79.4055
  0
LINE
  8
0
 10
137.803
 20
79.4055
 11
137.505
 21
79.4958
  0
LINE
  8
0
 10
137.505
 20
79.4958
 11
137.231
 21
79.6425
  0
LINE
  8
0
 10
137.231
 20
79.6425
 11
136.99
 21
79.84
  0
LINE
  8
0
 10
136.99
 20
79.84
 11
136.793
 21
80.0805
  0
LINE
  8
0
 10
136.793
 20
80.0805
 11
136.646
 21
80.355
  0
LINE
  8
0
 10
136.646
 20
80.355
 11
136.555
 21
80.6528
  0
LINE
  8
0
 10
136.555
 20
80.6528
 11
136.525
 21
80.9625
  0
LINE
  8
0
 10
136.525
 20
80.9625
 11
136.555
 21
81.2722
  0
LINE
  8
0
 10
136.555
 20
81.2722
 11
136.646
 21
81.57
  0
LINE
  8
0
 10
136.646
 20
81.57
 11
136.793
 21
81.8445
  0
LINE
  8
0
 10
136.793
 20
81.8445
 11
136.99
 21
82.085
  0
LINE
  8
0
 10
136.99
 20
82.085
 11
137.231
 21
82.2824
  0
LINE
  8
0
 10
137.231
 20
82.2824
 11
137.505
 21
82.4291
  0
LINE
  8
0
 10
137.505
 20
82.4291
 11
137.803
 21
82.5195
  0
LINE
  8
0
 10
137.803
 20
82.5195
 11
138.112
 21
82.55
  0
LINE
  8
0
 10
138.112
 20
82.55
 11
138.422
 21
82.5195
  0
LINE
  8
0
 10
138.422
 20
82.5195
 11
138.72
 21
82.4291
  0
LINE
  8
0
 10
138.72
 20
82.4291
 11
138.994
 21
82.2824
  0
LINE
  8
0
 10
138.994
 20
82.2824
 11
139.235
 21
82.085
  0
LINE
  8
0
 10
139.235
 20
82.085
 11
139.432
 21
81.8445
  0
LINE
  8
0
 10
139.432
 20
81.8445
 11
139.579
 21
81.57
  0
LINE
  8
0
 10
139.579
 20
81.57
 11
139.669
 21
81.2722
  0
LINE
  8
0
 10
139.669
 20
81.2722
 11
139.7
 21
80.9625
  0
LINE
  8
0
 10
139.7
 20
80.9625
 11
139.669
 21
80.6528
  0
LINE
  8
0
 10
139.669
 20
80.6528
 11
139.579
 21
80.355
  0
LINE
  8
0
 10
139.579
 20
80.355
 11
139.432
 21
80.0805
  0
LINE
  8
0
 10
139.432
 20
80.0805
 11
139.235
 21
79.84
  0
LINE
  8
0
 10
139.235
 20
79.84
 11
138.994
 21
79.6425
  0
LINE
  8
0
 10
138.994
 20
79.6425
 11
138.72
 21
79.4958
  0
LINE
  8
0
 10
138.72
 20
79.4958
 11
138.422
 21
79.4055
  0
LINE
  8
0
 10
138.422
 20
79.4055
 11
138.112
 21
79.375
  0
LINE
  8
0
 10
138.112
 20
79.375
 11
137.803
 21
79.4055
  0
LINE
  8
0
 10
128.278
 20
79.4055
 11
127.98
 21
79.4958
  0
LINE
  8
0
 10
127.98
 20
79.4958
 11
127.706
 21
79.6425
  0
LINE
  8
0
 10
127.706
 20
79.6425
 11
127.465
 21
79.84
  0
LINE
  8
0
 10
127.465
 20
79.84
 11
127.268
 21
80.0805
  0
LINE
  8
0
 10
127.268
 20
80.0805
 11
127.121
 21
80.355
  0
LINE
  8
0
 10
127.121
 20
80.355
 11
127.03
 21
80.6528
  0
LINE
  8
0
 10
127.03
 20
80.6528
 11
127
 21
80.9625
  0
LINE
  8
0
 10
127
 20
80.9625
 11
127.03
 21
81.2722
  0
LINE
  8
0
 10
127.03
 20
81.2722
 11
127.121
 21
81.57
  0
LINE
  8
0
 10
127.121
 20
81.57
 11
127.268
 21
81.8445
  0
LINE
  8
0
 10
127.268
 20
81.8445
 11
127.465
 21
82.085
  0
LINE
  8
0
 10
127.465
 20
82.085
 11
127.706
 21
82.2824
  0
LINE
  8
0
 10
127.706
 20
82.2824
 11
127.98
 21
82.4291
  0
LINE
  8
0
 10
127.98
 20
82.4291
 11
128.278
 21
82.5195
  0
LINE
  8
0
 10
128.278
 20
82.5195
 11
128.587
 21
82.55
  0
LINE
  8
0
 10
128.587
 20
82.55
 11
128.897
 21
82.5195
  0
LINE
  8
0
 10
128.897
 20
82.5195
 11
129.195
 21
82.4291
  0
LINE
  8
0
 10
129.195
 20
82.4291
 11
129.469
 21
82.2824
  0
LINE
  8
0
 10
129.469
 20
82.2824
 11
129.71
 21
82.085
  0
LINE
  8
0
 10
129.71
 20
82.085
 11
129.907
 21
81.8445
  0
LINE
  8
0
 10
129.907
 20
81.8445
 11
130.054
 21
81.57
  0
LINE
  8
0
 10
130.054
 20
81.57
 11
130.144
 21
81.2722
  0
LINE
  8
0
 10
130.144
 20
81.2722
 11
130.175
 21
80.9625
  0
LINE
  8
0
 10
130.175
 20
80.9625
 11
130.144
 21
80.6528
  0
LINE
  8
0
 10
130.144
 20
80.6528
 11
130.054
 21
80.355
  0
LINE
  8
0
 10
130.054
 20
80.355
 11
129.907
 21
80.0805
  0
LINE
  8
0
 10
129.907
 20
80.0805
 11
129.71
 21
79.84
  0
LINE
  8
0
 10
129.71
 20
79.84
 11
129.469
 21
79.6425
  0
LINE
  8
0
 10
129.469
 20
79.6425
 11
129.195
 21
79.4958
  0
LINE
  8
0
 10
129.195
 20
79.4958
 11
128.897
 21
79.4055
  0
LINE
  8
0
 10
128.897
 20
79.4055
 11
128.587
 21
79.375
  0
LINE
  8
0
 10
128.587
 20
79.375
 11
128.278
 21
79.4055
  0
LINE
  8
0
 10
118.753
 20
79.4055
 11
118.455
 21
79.4958
  0
LINE
  8
0
 10
118.455
 20
79.4958
 11
118.181
 21
79.6425
  0
LINE
  8
0
 10
118.181
 20
79.6425
 11
117.94
 21
79.84
  0
LINE
  8
0
 10
117.94
 20
79.84
 11
117.743
 21
80.0805
  0
LINE
  8
0
 10
117.743
 20
80.0805
 11
117.596
 21
80.355
  0
LINE
  8
0
 10
117.596
 20
80.355
 11
117.505
 21
80.6528
  0
LINE
  8
0
 10
117.505
 20
80.6528
 11
117.475
 21
80.9625
  0
LINE
  8
0
 10
117.475
 20
80.9625
 11
117.505
 21
81.2722
  0
LINE
  8
0
 10
117.505
 20
81.2722
 11
117.596
 21
81.57
  0
LINE
  8
0
 10
117.596
 20
81.57
 11
117.743
 21
81.8445
  0
LINE
  8
0
 10
117.743
 20
81.8445
 11
117.94
 21
82.085
  0
LINE
  8
0
 10
117.94
 20
82.085
 11
118.181
 21
82.2824
  0
LINE
  8
0
 10
118.181
 20
82.2824
 11
118.455
 21
82.4291
  0
LINE
  8
0
 10
118.455
 20
82.4291
 11
118.753
 21
82.5195
  0
LINE
  8
0
 10
118.753
 20
82.5195
 11
119.062
 21
82.55
  0
LINE
  8
0
 10
119.062
 20
82.55
 11
119.372
 21
82.5195
  0
LINE
  8
0
 10
119.372
 20
82.5195
 11
119.67
 21
82.4291
  0
LINE
  8
0
 10
119.67
 20
82.4291
 11
119.944
 21
82.2824
  0
LINE
  8
0
 10
119.944
 20
82.2824
 11
120.185
 21
82.085
  0
LINE
  8
0
 10
120.185
 20
82.085
 11
120.382
 21
81.8445
  0
LINE
  8
0
 10
120.382
 20
81.8445
 11
120.529
 21
81.57
  0
LINE
  8
0
 10
120.529
 20
81.57
 11
120.619
 21
81.2722
  0
LINE
  8
0
 10
120.619
 20
81.2722
 11
120.65
 21
80.9625
  0
LINE
  8
0
 10
120.65
 20
80.9625
 11
120.619
 21
80.6528
  0
LINE
  8
0
 10
120.619
 20
80.6528
 11
120.529
 21
80.355
  0
LINE
  8
0
 10
120.529
 20
80.355
 11
120.382
 21
80.0805
  0
LINE
  8
0
 10
120.382
 20
80.0805
 11
120.185
 21
79.84
  0
LINE
  8
0
 10
120.185
 20
79.84
 11
119.944
 21
79.6425
  0
LINE
  8
0
 10
119.944
 20
79.6425
 11
119.67
 21
79.4958
  0
LINE
  8
0
 10
119.67
 20
79.4958
 11
119.372
 21
79.4055
  0
LINE
  8
0
 10
119.372
 20
79.4055
 11
119.062
 21
79.375
  0
LINE
  8
0
 10
119.062
 20
79.375
 11
118.753
 21
79.4055
  0
LINE
  8
0
 10
-138.422
 20
79.4055
 11
-138.72
 21
79.4958
  0
LINE
  8
0
 10
-138.72
 20
79.4958
 11
-138.994
 21
79.6425
  0
LINE
  8
0
 10
-138.994
 20
79.6425
 11
-139.235
 21
79.84
  0
LINE
  8
0
 10
-139.235
 20
79.84
 11
-139.432
 21
80.0805
  0
LINE
  8
0
 10
-139.432
 20
80.0805
 11
-139.579
 21
80.355
  0
LINE
  8
0
 10
-139.579
 20
80.355
 11
-139.669
 21
80.6528
  0
LINE
  8
0
 10
-139.669
 20
80.6528
 11
-139.7
 21
80.9625
  0
LINE
  8
0
 10
-139.7
 20
80.9625
 11
-139.669
 21
81.2722
  0
LINE
  8
0
 10
-139.669
 20
81.2722
 11
-139.579
 21
81.57
  0
LINE
  8
0
 10
-139.579
 20
81.57
 11
-139.432
 21
81.8445
  0
LINE
  8
0
 10
-139.432
 20
81.8445
 11
-139.235
 21
82.085
  0
LINE
  8
0
 10
-139.235
 20
82.085
 11
-138.994
 21
82.2824
  0
LINE
  8
0
 10
-138.994
 20
82.2824
 11
-138.72
 21
82.4291
  0
LINE
  8
0
 10
-138.72
 20
82.4291
 11
-138.422
 21
82.5195
  0
LINE
  8
0
 10
-138.422
 20
82.5195
 11
-138.113
 21
82.55
  0
LINE
  8
0
 10
-138.113
 20
82.55
 11
-137.803
 21
82.5195
  0
LINE
  8
0
 10
-137.803
 20
82.5195
 11
-137.505
 21
82.4291
  0
LINE
  8
0
 10
-137.505
 20
82.4291
 11
-137.231
 21
82.2824
  0
LINE
  8
0
 10
-137.231
 20
82.2824
 11
-136.99
 21
82.085
  0
LINE
  8
0
 10
-136.99
 20
82.085
 11
-136.793
 21
81.8445
  0
LINE
  8
0
 10
-136.793
 20
81.8445
 11
-136.646
 21
81.57
  0
LINE
  8
0
 10
-136.646
 20
81.57
 11
-136.556
 21
81.2722
  0
LINE
  8
0
 10
-136.556
 20
81.2722
 11
-136.525
 21
80.9625
  0
LINE
  8
0
 10
-136.525
 20
80.9625
 11
-136.556
 21
80.6528
  0
LINE
  8
0
 10
-136.556
 20
80.6528
 11
-136.646
 21
80.355
  0
LINE
  8
0
 10
-136.646
 20
80.355
 11
-136.793
 21
80.0805
  0
LINE
  8
0
 10
-136.793
 20
80.0805
 11
-136.99
 21
79.84
  0
LINE
  8
0
 10
-136.99
 20
79.84
 11
-137.231
 21
79.6425
  0
LINE
  8
0
 10
-137.231
 20
79.6425
 11
-137.505
 21
79.4958
  0
LINE
  8
0
 10
-137.505
 20
79.4958
 11
-137.803
 21
79.4055
  0
LINE
  8
0
 10
-137.803
 20
79.4055
 11
-138.113
 21
79.375
  0
LINE
  8
0
 10
-138.113
 20
79.375
 11
-138.422
 21
79.4055
  0
LINE
  8
0
 10
-157.472
 20
79.4055
 11
-157.77
 21
79.4958
  0
LINE
  8
0
 10
-157.77
 20
79.4958
 11
-158.044
 21
79.6425
  0
LINE
  8
0
 10
-158.044
 20
79.6425
 11
-158.285
 21
79.84
  0
LINE
  8
0
 10
-158.285
 20
79.84
 11
-158.482
 21
80.0805
  0
LINE
  8
0
 10
-158.482
 20
80.0805
 11
-158.629
 21
80.355
  0
LINE
  8
0
 10
-158.629
 20
80.355
 11
-158.719
 21
80.6528
  0
LINE
  8
0
 10
-158.719
 20
80.6528
 11
-158.75
 21
80.9625
  0
LINE
  8
0
 10
-158.75
 20
80.9625
 11
-158.719
 21
81.2722
  0
LINE
  8
0
 10
-158.719
 20
81.2722
 11
-158.629
 21
81.57
  0
LINE
  8
0
 10
-158.629
 20
81.57
 11
-158.482
 21
81.8445
  0
LINE
  8
0
 10
-158.482
 20
81.8445
 11
-158.285
 21
82.085
  0
LINE
  8
0
 10
-158.285
 20
82.085
 11
-158.044
 21
82.2824
  0
LINE
  8
0
 10
-158.044
 20
82.2824
 11
-157.77
 21
82.4291
  0
LINE
  8
0
 10
-157.77
 20
82.4291
 11
-157.472
 21
82.5195
  0
LINE
  8
0
 10
-157.472
 20
82.5195
 11
-157.163
 21
82.55
  0
LINE
  8
0
 10
-157.163
 20
82.55
 11
-156.853
 21
82.5195
  0
LINE
  8
0
 10
-156.853
 20
82.5195
 11
-156.555
 21
82.4291
  0
LINE
  8
0
 10
-156.555
 20
82.4291
 11
-156.281
 21
82.2824
  0
LINE
  8
0
 10
-156.281
 20
82.2824
 11
-156.04
 21
82.085
  0
LINE
  8
0
 10
-156.04
 20
82.085
 11
-155.843
 21
81.8445
  0
LINE
  8
0
 10
-155.843
 20
81.8445
 11
-155.696
 21
81.57
  0
LINE
  8
0
 10
-155.696
 20
81.57
 11
-155.605
 21
81.2722
  0
LINE
  8
0
 10
-155.605
 20
81.2722
 11
-155.575
 21
80.9625
  0
LINE
  8
0
 10
-155.575
 20
80.9625
 11
-155.605
 21
80.6528
  0
LINE
  8
0
 10
-155.605
 20
80.6528
 11
-155.696
 21
80.355
  0
LINE
  8
0
 10
-155.696
 20
80.355
 11
-155.843
 21
80.0805
  0
LINE
  8
0
 10
-155.843
 20
80.0805
 11
-156.04
 21
79.84
  0
LINE
  8
0
 10
-156.04
 20
79.84
 11
-156.281
 21
79.6425
  0
LINE
  8
0
 10
-156.281
 20
79.6425
 11
-156.555
 21
79.4958
  0
LINE
  8
0
 10
-156.555
 20
79.4958
 11
-156.853
 21
79.4055
  0
LINE
  8
0
 10
-156.853
 20
79.4055
 11
-157.163
 21
79.375
  0
LINE
  8
0
 10
-157.163
 20
79.375
 11
-157.472
 21
79.4055
  0
LINE
  8
0
 10
90.1778
 20
79.4055
 11
89.88
 21
79.4958
  0
LINE
  8
0
 10
89.88
 20
79.4958
 11
89.6055
 21
79.6425
  0
LINE
  8
0
 10
89.6055
 20
79.6425
 11
89.3649
 21
79.84
  0
LINE
  8
0
 10
89.3649
 20
79.84
 11
89.1675
 21
80.0805
  0
LINE
  8
0
 10
89.1675
 20
80.0805
 11
89.0208
 21
80.355
  0
LINE
  8
0
 10
89.0208
 20
80.355
 11
88.9305
 21
80.6528
  0
LINE
  8
0
 10
88.9305
 20
80.6528
 11
88.9
 21
80.9625
  0
LINE
  8
0
 10
88.9
 20
80.9625
 11
88.9305
 21
81.2722
  0
LINE
  8
0
 10
88.9305
 20
81.2722
 11
89.0208
 21
81.57
  0
LINE
  8
0
 10
89.0208
 20
81.57
 11
89.1675
 21
81.8445
  0
LINE
  8
0
 10
89.1675
 20
81.8445
 11
89.3649
 21
82.085
  0
LINE
  8
0
 10
89.3649
 20
82.085
 11
89.6055
 21
82.2824
  0
LINE
  8
0
 10
89.6055
 20
82.2824
 11
89.88
 21
82.4291
  0
LINE
  8
0
 10
89.88
 20
82.4291
 11
90.1778
 21
82.5195
  0
LINE
  8
0
 10
90.1778
 20
82.5195
 11
90.4875
 21
82.55
  0
LINE
  8
0
 10
90.4875
 20
82.55
 11
90.7972
 21
82.5195
  0
LINE
  8
0
 10
90.7972
 20
82.5195
 11
91.095
 21
82.4291
  0
LINE
  8
0
 10
91.095
 20
82.4291
 11
91.3694
 21
82.2824
  0
LINE
  8
0
 10
91.3694
 20
82.2824
 11
91.61
 21
82.085
  0
LINE
  8
0
 10
91.61
 20
82.085
 11
91.8074
 21
81.8445
  0
LINE
  8
0
 10
91.8074
 20
81.8445
 11
91.9541
 21
81.57
  0
LINE
  8
0
 10
91.9541
 20
81.57
 11
92.0445
 21
81.2722
  0
LINE
  8
0
 10
92.0445
 20
81.2722
 11
92.075
 21
80.9625
  0
LINE
  8
0
 10
92.075
 20
80.9625
 11
92.0445
 21
80.6528
  0
LINE
  8
0
 10
92.0445
 20
80.6528
 11
91.9541
 21
80.355
  0
LINE
  8
0
 10
91.9541
 20
80.355
 11
91.8074
 21
80.0805
  0
LINE
  8
0
 10
91.8074
 20
80.0805
 11
91.61
 21
79.84
  0
LINE
  8
0
 10
91.61
 20
79.84
 11
91.3694
 21
79.6425
  0
LINE
  8
0
 10
91.3694
 20
79.6425
 11
91.095
 21
79.4958
  0
LINE
  8
0
 10
91.095
 20
79.4958
 11
90.7972
 21
79.4055
  0
LINE
  8
0
 10
90.7972
 20
79.4055
 11
90.4875
 21
79.375
  0
LINE
  8
0
 10
90.4875
 20
79.375
 11
90.1778
 21
79.4055
  0
LINE
  8
0
 10
80.6528
 20
79.4055
 11
80.355
 21
79.4958
  0
LINE
  8
0
 10
80.355
 20
79.4958
 11
80.0805
 21
79.6425
  0
LINE
  8
0
 10
80.0805
 20
79.6425
 11
79.84
 21
79.84
  0
LINE
  8
0
 10
79.84
 20
79.84
 11
79.6425
 21
80.0805
  0
LINE
  8
0
 10
79.6425
 20
80.0805
 11
79.4958
 21
80.355
  0
LINE
  8
0
 10
79.4958
 20
80.355
 11
79.4055
 21
80.6528
  0
LINE
  8
0
 10
79.4055
 20
80.6528
 11
79.375
 21
80.9625
  0
LINE
  8
0
 10
79.375
 20
80.9625
 11
79.4055
 21
81.2722
  0
LINE
  8
0
 10
79.4055
 20
81.2722
 11
79.4958
 21
81.57
  0
LINE
  8
0
 10
79.4958
 20
81.57
 11
79.6425
 21
81.8445
  0
LINE
  8
0
 10
79.6425
 20
81.8445
 11
79.84
 21
82.085
  0
LINE
  8
0
 10
79.84
 20
82.085
 11
80.0805
 21
82.2824
  0
LINE
  8
0
 10
80.0805
 20
82.2824
 11
80.355
 21
82.4291
  0
LINE
  8
0
 10
80.355
 20
82.4291
 11
80.6528
 21
82.5195
  0
LINE
  8
0
 10
80.6528
 20
82.5195
 11
80.9625
 21
82.55
  0
LINE
  8
0
 10
80.9625
 20
82.55
 11
81.2722
 21
82.5195
  0
LINE
  8
0
 10
81.2722
 20
82.5195
 11
81.57
 21
82.4291
  0
LINE
  8
0
 10
81.57
 20
82.4291
 11
81.8445
 21
82.2824
  0
LINE
  8
0
 10
81.8445
 20
82.2824
 11
82.085
 21
82.085
  0
LINE
  8
0
 10
82.085
 20
82.085
 11
82.2824
 21
81.8445
  0
LINE
  8
0
 10
82.2824
 20
81.8445
 11
82.4291
 21
81.57
  0
LINE
  8
0
 10
82.4291
 20
81.57
 11
82.5195
 21
81.2722
  0
LINE
  8
0
 10
82.5195
 20
81.2722
 11
82.55
 21
80.9625
  0
LINE
  8
0
 10
82.55
 20
80.9625
 11
82.5195
 21
80.6528
  0
LINE
  8
0
 10
82.5195
 20
80.6528
 11
82.4291
 21
80.355
  0
LINE
  8
0
 10
82.4291
 20
80.355
 11
82.2824
 21
80.0805
  0
LINE
  8
0
 10
82.2824
 20
80.0805
 11
82.085
 21
79.84
  0
LINE
  8
0
 10
82.085
 20
79.84
 11
81.8445
 21
79.6425
  0
LINE
  8
0
 10
81.8445
 20
79.6425
 11
81.57
 21
79.4958
  0
LINE
  8
0
 10
81.57
 20
79.4958
 11
81.2722
 21
79.4055
  0
LINE
  8
0
 10
81.2722
 20
79.4055
 11
80.9625
 21
79.375
  0
LINE
  8
0
 10
80.9625
 20
79.375
 11
80.6528
 21
79.4055
  0
LINE
  8
0
 10
71.1278
 20
79.4055
 11
70.83
 21
79.4958
  0
LINE
  8
0
 10
70.83
 20
79.4958
 11
70.5555
 21
79.6425
  0
LINE
  8
0
 10
70.5555
 20
79.6425
 11
70.315
 21
79.84
  0
LINE
  8
0
 10
70.315
 20
79.84
 11
70.1175
 21
80.0805
  0
LINE
  8
0
 10
70.1175
 20
80.0805
 11
69.9708
 21
80.355
  0
LINE
  8
0
 10
69.9708
 20
80.355
 11
69.8805
 21
80.6528
  0
LINE
  8
0
 10
69.8805
 20
80.6528
 11
69.85
 21
80.9625
  0
LINE
  8
0
 10
69.85
 20
80.9625
 11
69.8805
 21
81.2722
  0
LINE
  8
0
 10
69.8805
 20
81.2722
 11
69.9708
 21
81.57
  0
LINE
  8
0
 10
69.9708
 20
81.57
 11
70.1175
 21
81.8445
  0
LINE
  8
0
 10
70.1175
 20
81.8445
 11
70.315
 21
82.085
  0
LINE
  8
0
 10
70.315
 20
82.085
 11
70.5555
 21
82.2824
  0
LINE
  8
0
 10
70.5555
 20
82.2824
 11
70.83
 21
82.4291
  0
LINE
  8
0
 10
70.83
 20
82.4291
 11
71.1278
 21
82.5195
  0
LINE
  8
0
 10
71.1278
 20
82.5195
 11
71.4375
 21
82.55
  0
LINE
  8
0
 10
71.4375
 20
82.55
 11
71.7472
 21
82.5195
  0
LINE
  8
0
 10
71.7472
 20
82.5195
 11
72.045
 21
82.4291
  0
LINE
  8
0
 10
72.045
 20
82.4291
 11
72.3195
 21
82.2824
  0
LINE
  8
0
 10
72.3195
 20
82.2824
 11
72.56
 21
82.085
  0
LINE
  8
0
 10
72.56
 20
82.085
 11
72.7574
 21
81.8445
  0
LINE
  8
0
 10
72.7574
 20
81.8445
 11
72.9041
 21
81.57
  0
LINE
  8
0
 10
72.9041
 20
81.57
 11
72.9945
 21
81.2722
  0
LINE
  8
0
 10
72.9945
 20
81.2722
 11
73.025
 21
80.9625
  0
LINE
  8
0
 10
73.025
 20
80.9625
 11
72.9945
 21
80.6528
  0
LINE
  8
0
 10
72.9945
 20
80.6528
 11
72.9041
 21
80.355
  0
LINE
  8
0
 10
72.9041
 20
80.355
 11
72.7574
 21
80.0805
  0
LINE
  8
0
 10
72.7574
 20
80.0805
 11
72.56
 21
79.84
  0
LINE
  8
0
 10
72.56
 20
79.84
 11
72.3195
 21
79.6425
  0
LINE
  8
0
 10
72.3195
 20
79.6425
 11
72.045
 21
79.4958
  0
LINE
  8
0
 10
72.045
 20
79.4958
 11
71.7472
 21
79.4055
  0
LINE
  8
0
 10
71.7472
 20
79.4055
 11
71.4375
 21
79.375
  0
LINE
  8
0
 10
71.4375
 20
79.375
 11
71.1278
 21
79.4055
  0
LINE
  8
0
 10
61.6028
 20
79.4055
 11
61.305
 21
79.4958
  0
LINE
  8
0
 10
61.305
 20
79.4958
 11
61.0305
 21
79.6425
  0
LINE
  8
0
 10
61.0305
 20
79.6425
 11
60.7899
 21
79.84
  0
LINE
  8
0
 10
60.7899
 20
79.84
 11
60.5925
 21
80.0805
  0
LINE
  8
0
 10
60.5925
 20
80.0805
 11
60.4458
 21
80.355
  0
LINE
  8
0
 10
60.4458
 20
80.355
 11
60.3555
 21
80.6528
  0
LINE
  8
0
 10
60.3555
 20
80.6528
 11
60.325
 21
80.9625
  0
LINE
  8
0
 10
60.325
 20
80.9625
 11
60.3555
 21
81.2722
  0
LINE
  8
0
 10
60.3555
 20
81.2722
 11
60.4458
 21
81.57
  0
LINE
  8
0
 10
60.4458
 20
81.57
 11
60.5925
 21
81.8445
  0
LINE
  8
0
 10
60.5925
 20
81.8445
 11
60.7899
 21
82.085
  0
LINE
  8
0
 10
60.7899
 20
82.085
 11
61.0305
 21
82.2824
  0
LINE
  8
0
 10
61.0305
 20
82.2824
 11
61.305
 21
82.4291
  0
LINE
  8
0
 10
61.305
 20
82.4291
 11
61.6028
 21
82.5195
  0
LINE
  8
0
 10
61.6028
 20
82.5195
 11
61.9125
 21
82.55
  0
LINE
  8
0
 10
61.9125
 20
82.55
 11
62.2222
 21
82.5195
  0
LINE
  8
0
 10
62.2222
 20
82.5195
 11
62.52
 21
82.4291
  0
LINE
  8
0
 10
62.52
 20
82.4291
 11
62.7944
 21
82.2824
  0
LINE
  8
0
 10
62.7944
 20
82.2824
 11
63.035
 21
82.085
  0
LINE
  8
0
 10
63.035
 20
82.085
 11
63.2324
 21
81.8445
  0
LINE
  8
0
 10
63.2324
 20
81.8445
 11
63.3791
 21
81.57
  0
LINE
  8
0
 10
63.3791
 20
81.57
 11
63.4695
 21
81.2722
  0
LINE
  8
0
 10
63.4695
 20
81.2722
 11
63.5
 21
80.9625
  0
LINE
  8
0
 10
63.5
 20
80.9625
 11
63.4695
 21
80.6528
  0
LINE
  8
0
 10
63.4695
 20
80.6528
 11
63.3791
 21
80.355
  0
LINE
  8
0
 10
63.3791
 20
80.355
 11
63.2324
 21
80.0805
  0
LINE
  8
0
 10
63.2324
 20
80.0805
 11
63.035
 21
79.84
  0
LINE
  8
0
 10
63.035
 20
79.84
 11
62.7944
 21
79.6425
  0
LINE
  8
0
 10
62.7944
 20
79.6425
 11
62.52
 21
79.4958
  0
LINE
  8
0
 10
62.52
 20
79.4958
 11
62.2222
 21
79.4055
  0
LINE
  8
0
 10
62.2222
 20
79.4055
 11
61.9125
 21
79.375
  0
LINE
  8
0
 10
61.9125
 20
79.375
 11
61.6028
 21
79.4055
  0
LINE
  8
0
 10
52.0778
 20
79.4055
 11
51.78
 21
79.4958
  0
LINE
  8
0
 10
51.78
 20
79.4958
 11
51.5055
 21
79.6425
  0
LINE
  8
0
 10
51.5055
 20
79.6425
 11
51.265
 21
79.84
  0
LINE
  8
0
 10
51.265
 20
79.84
 11
51.0675
 21
80.0805
  0
LINE
  8
0
 10
51.0675
 20
80.0805
 11
50.9208
 21
80.355
  0
LINE
  8
0
 10
50.9208
 20
80.355
 11
50.8305
 21
80.6528
  0
LINE
  8
0
 10
50.8305
 20
80.6528
 11
50.8
 21
80.9625
  0
LINE
  8
0
 10
50.8
 20
80.9625
 11
50.8305
 21
81.2722
  0
LINE
  8
0
 10
50.8305
 20
81.2722
 11
50.9208
 21
81.57
  0
LINE
  8
0
 10
50.9208
 20
81.57
 11
51.0675
 21
81.8445
  0
LINE
  8
0
 10
51.0675
 20
81.8445
 11
51.265
 21
82.085
  0
LINE
  8
0
 10
51.265
 20
82.085
 11
51.5055
 21
82.2824
  0
LINE
  8
0
 10
51.5055
 20
82.2824
 11
51.78
 21
82.4291
  0
LINE
  8
0
 10
51.78
 20
82.4291
 11
52.0778
 21
82.5195
  0
LINE
  8
0
 10
52.0778
 20
82.5195
 11
52.3875
 21
82.55
  0
LINE
  8
0
 10
52.3875
 20
82.55
 11
52.6972
 21
82.5195
  0
LINE
  8
0
 10
52.6972
 20
82.5195
 11
52.995
 21
82.4291
  0
LINE
  8
0
 10
52.995
 20
82.4291
 11
53.2695
 21
82.2824
  0
LINE
  8
0
 10
53.2695
 20
82.2824
 11
53.51
 21
82.085
  0
LINE
  8
0
 10
53.51
 20
82.085
 11
53.7074
 21
81.8445
  0
LINE
  8
0
 10
53.7074
 20
81.8445
 11
53.8541
 21
81.57
  0
LINE
  8
0
 10
53.8541
 20
81.57
 11
53.9445
 21
81.2722
  0
LINE
  8
0
 10
53.9445
 20
81.2722
 11
53.975
 21
80.9625
  0
LINE
  8
0
 10
53.975
 20
80.9625
 11
53.9445
 21
80.6528
  0
LINE
  8
0
 10
53.9445
 20
80.6528
 11
53.8541
 21
80.355
  0
LINE
  8
0
 10
53.8541
 20
80.355
 11
53.7074
 21
80.0805
  0
LINE
  8
0
 10
53.7074
 20
80.0805
 11
53.51
 21
79.84
  0
LINE
  8
0
 10
53.51
 20
79.84
 11
53.2695
 21
79.6425
  0
LINE
  8
0
 10
53.2695
 20
79.6425
 11
52.995
 21
79.4958
  0
LINE
  8
0
 10
52.995
 20
79.4958
 11
52.6972
 21
79.4055
  0
LINE
  8
0
 10
52.6972
 20
79.4055
 11
52.3875
 21
79.375
  0
LINE
  8
0
 10
52.3875
 20
79.375
 11
52.0778
 21
79.4055
  0
LINE
  8
0
 10
42.5528
 20
79.4055
 11
42.255
 21
79.4958
  0
LINE
  8
0
 10
42.255
 20
79.4958
 11
41.9805
 21
79.6425
  0
LINE
  8
0
 10
41.9805
 20
79.6425
 11
41.7399
 21
79.84
  0
LINE
  8
0
 10
41.7399
 20
79.84
 11
41.5425
 21
80.0805
  0
LINE
  8
0
 10
41.5425
 20
80.0805
 11
41.3958
 21
80.355
  0
LINE
  8
0
 10
41.3958
 20
80.355
 11
41.3055
 21
80.6528
  0
LINE
  8
0
 10
41.3055
 20
80.6528
 11
41.275
 21
80.9625
  0
LINE
  8
0
 10
41.275
 20
80.9625
 11
41.3055
 21
81.2722
  0
LINE
  8
0
 10
41.3055
 20
81.2722
 11
41.3958
 21
81.57
  0
LINE
  8
0
 10
41.3958
 20
81.57
 11
41.5425
 21
81.8445
  0
LINE
  8
0
 10
41.5425
 20
81.8445
 11
41.7399
 21
82.085
  0
LINE
  8
0
 10
41.7399
 20
82.085
 11
41.9805
 21
82.2824
  0
LINE
  8
0
 10
41.9805
 20
82.2824
 11
42.255
 21
82.4291
  0
LINE
  8
0
 10
42.255
 20
82.4291
 11
42.5528
 21
82.5195
  0
LINE
  8
0
 10
42.5528
 20
82.5195
 11
42.8625
 21
82.55
  0
LINE
  8
0
 10
42.8625
 20
82.55
 11
43.1722
 21
82.5195
  0
LINE
  8
0
 10
43.1722
 20
82.5195
 11
43.47
 21
82.4291
  0
LINE
  8
0
 10
43.47
 20
82.4291
 11
43.7444
 21
82.2824
  0
LINE
  8
0
 10
43.7444
 20
82.2824
 11
43.985
 21
82.085
  0
LINE
  8
0
 10
43.985
 20
82.085
 11
44.1824
 21
81.8445
  0
LINE
  8
0
 10
44.1824
 20
81.8445
 11
44.3291
 21
81.57
  0
LINE
  8
0
 10
44.3291
 20
81.57
 11
44.4195
 21
81.2722
  0
LINE
  8
0
 10
44.4195
 20
81.2722
 11
44.45
 21
80.9625
  0
LINE
  8
0
 10
44.45
 20
80.9625
 11
44.4195
 21
80.6528
  0
LINE
  8
0
 10
44.4195
 20
80.6528
 11
44.3291
 21
80.355
  0
LINE
  8
0
 10
44.3291
 20
80.355
 11
44.1824
 21
80.0805
  0
LINE
  8
0
 10
44.1824
 20
80.0805
 11
43.985
 21
79.84
  0
LINE
  8
0
 10
43.985
 20
79.84
 11
43.7444
 21
79.6425
  0
LINE
  8
0
 10
43.7444
 20
79.6425
 11
43.47
 21
79.4958
  0
LINE
  8
0
 10
43.47
 20
79.4958
 11
43.1722
 21
79.4055
  0
LINE
  8
0
 10
43.1722
 20
79.4055
 11
42.8625
 21
79.375
  0
LINE
  8
0
 10
42.8625
 20
79.375
 11
42.5528
 21
79.4055
  0
LINE
  8
0
 10
33.0278
 20
79.4055
 11
32.73
 21
79.4958
  0
LINE
  8
0
 10
32.73
 20
79.4958
 11
32.4555
 21
79.6425
  0
LINE
  8
0
 10
32.4555
 20
79.6425
 11
32.215
 21
79.84
  0
LINE
  8
0
 10
32.215
 20
79.84
 11
32.0175
 21
80.0805
  0
LINE
  8
0
 10
32.0175
 20
80.0805
 11
31.8708
 21
80.355
  0
LINE
  8
0
 10
31.8708
 20
80.355
 11
31.7805
 21
80.6528
  0
LINE
  8
0
 10
31.7805
 20
80.6528
 11
31.75
 21
80.9625
  0
LINE
  8
0
 10
31.75
 20
80.9625
 11
31.7805
 21
81.2722
  0
LINE
  8
0
 10
31.7805
 20
81.2722
 11
31.8708
 21
81.57
  0
LINE
  8
0
 10
31.8708
 20
81.57
 11
32.0175
 21
81.8445
  0
LINE
  8
0
 10
32.0175
 20
81.8445
 11
32.215
 21
82.085
  0
LINE
  8
0
 10
32.215
 20
82.085
 11
32.4555
 21
82.2824
  0
LINE
  8
0
 10
32.4555
 20
82.2824
 11
32.73
 21
82.4291
  0
LINE
  8
0
 10
32.73
 20
82.4291
 11
33.0278
 21
82.5195
  0
LINE
  8
0
 10
33.0278
 20
82.5195
 11
33.3375
 21
82.55
  0
LINE
  8
0
 10
33.3375
 20
82.55
 11
33.6472
 21
82.5195
  0
LINE
  8
0
 10
33.6472
 20
82.5195
 11
33.945
 21
82.4291
  0
LINE
  8
0
 10
33.945
 20
82.4291
 11
34.2195
 21
82.2824
  0
LINE
  8
0
 10
34.2195
 20
82.2824
 11
34.46
 21
82.085
  0
LINE
  8
0
 10
34.46
 20
82.085
 11
34.6574
 21
81.8445
  0
LINE
  8
0
 10
34.6574
 20
81.8445
 11
34.8041
 21
81.57
  0
LINE
  8
0
 10
34.8041
 20
81.57
 11
34.8945
 21
81.2722
  0
LINE
  8
0
 10
34.8945
 20
81.2722
 11
34.925
 21
80.9625
  0
LINE
  8
0
 10
34.925
 20
80.9625
 11
34.8945
 21
80.6528
  0
LINE
  8
0
 10
34.8945
 20
80.6528
 11
34.8041
 21
80.355
  0
LINE
  8
0
 10
34.8041
 20
80.355
 11
34.6574
 21
80.0805
  0
LINE
  8
0
 10
34.6574
 20
80.0805
 11
34.46
 21
79.84
  0
LINE
  8
0
 10
34.46
 20
79.84
 11
34.2195
 21
79.6425
  0
LINE
  8
0
 10
34.2195
 20
79.6425
 11
33.945
 21
79.4958
  0
LINE
  8
0
 10
33.945
 20
79.4958
 11
33.6472
 21
79.4055
  0
LINE
  8
0
 10
33.6472
 20
79.4055
 11
33.3375
 21
79.375
  0
LINE
  8
0
 10
33.3375
 20
79.375
 11
33.0278
 21
79.4055
  0
LINE
  8
0
 10
23.5028
 20
79.4055
 11
23.205
 21
79.4958
  0
LINE
  8
0
 10
23.205
 20
79.4958
 11
22.9305
 21
79.6425
  0
LINE
  8
0
 10
22.9305
 20
79.6425
 11
22.69
 21
79.84
  0
LINE
  8
0
 10
22.69
 20
79.84
 11
22.4925
 21
80.0805
  0
LINE
  8
0
 10
22.4925
 20
80.0805
 11
22.3458
 21
80.355
  0
LINE
  8
0
 10
22.3458
 20
80.355
 11
22.2555
 21
80.6528
  0
LINE
  8
0
 10
22.2555
 20
80.6528
 11
22.225
 21
80.9625
  0
LINE
  8
0
 10
22.225
 20
80.9625
 11
22.2555
 21
81.2722
  0
LINE
  8
0
 10
22.2555
 20
81.2722
 11
22.3458
 21
81.57
  0
LINE
  8
0
 10
22.3458
 20
81.57
 11
22.4925
 21
81.8445
  0
LINE
  8
0
 10
22.4925
 20
81.8445
 11
22.69
 21
82.085
  0
LINE
  8
0
 10
22.69
 20
82.085
 11
22.9305
 21
82.2824
  0
LINE
  8
0
 10
22.9305
 20
82.2824
 11
23.205
 21
82.4291
  0
LINE
  8
0
 10
23.205
 20
82.4291
 11
23.5028
 21
82.5195
  0
LINE
  8
0
 10
23.5028
 20
82.5195
 11
23.8125
 21
82.55
  0
LINE
  8
0
 10
23.8125
 20
82.55
 11
24.1222
 21
82.5195
  0
LINE
  8
0
 10
24.1222
 20
82.5195
 11
24.42
 21
82.4291
  0
LINE
  8
0
 10
24.42
 20
82.4291
 11
24.6945
 21
82.2824
  0
LINE
  8
0
 10
24.6945
 20
82.2824
 11
24.935
 21
82.085
  0
LINE
  8
0
 10
24.935
 20
82.085
 11
25.1324
 21
81.8445
  0
LINE
  8
0
 10
25.1324
 20
81.8445
 11
25.2791
 21
81.57
  0
LINE
  8
0
 10
25.2791
 20
81.57
 11
25.3695
 21
81.2722
  0
LINE
  8
0
 10
25.3695
 20
81.2722
 11
25.4
 21
80.9625
  0
LINE
  8
0
 10
25.4
 20
80.9625
 11
25.3695
 21
80.6528
  0
LINE
  8
0
 10
25.3695
 20
80.6528
 11
25.2791
 21
80.355
  0
LINE
  8
0
 10
25.2791
 20
80.355
 11
25.1324
 21
80.0805
  0
LINE
  8
0
 10
25.1324
 20
80.0805
 11
24.935
 21
79.84
  0
LINE
  8
0
 10
24.935
 20
79.84
 11
24.6945
 21
79.6425
  0
LINE
  8
0
 10
24.6945
 20
79.6425
 11
24.42
 21
79.4958
  0
LINE
  8
0
 10
24.42
 20
79.4958
 11
24.1222
 21
79.4055
  0
LINE
  8
0
 10
24.1222
 20
79.4055
 11
23.8125
 21
79.375
  0
LINE
  8
0
 10
23.8125
 20
79.375
 11
23.5028
 21
79.4055
  0
LINE
  8
0
 10
13.9778
 20
79.4055
 11
13.68
 21
79.4958
  0
LINE
  8
0
 10
13.68
 20
79.4958
 11
13.4055
 21
79.6425
  0
LINE
  8
0
 10
13.4055
 20
79.6425
 11
13.1649
 21
79.84
  0
LINE
  8
0
 10
13.1649
 20
79.84
 11
12.9675
 21
80.0805
  0
LINE
  8
0
 10
12.9675
 20
80.0805
 11
12.8208
 21
80.355
  0
LINE
  8
0
 10
12.8208
 20
80.355
 11
12.7305
 21
80.6528
  0
LINE
  8
0
 10
12.7305
 20
80.6528
 11
12.7
 21
80.9625
  0
LINE
  8
0
 10
12.7
 20
80.9625
 11
12.7305
 21
81.2722
  0
LINE
  8
0
 10
12.7305
 20
81.2722
 11
12.8208
 21
81.57
  0
LINE
  8
0
 10
12.8208
 20
81.57
 11
12.9675
 21
81.8445
  0
LINE
  8
0
 10
12.9675
 20
81.8445
 11
13.1649
 21
82.085
  0
LINE
  8
0
 10
13.1649
 20
82.085
 11
13.4055
 21
82.2824
  0
LINE
  8
0
 10
13.4055
 20
82.2824
 11
13.68
 21
82.4291
  0
LINE
  8
0
 10
13.68
 20
82.4291
 11
13.9778
 21
82.5195
  0
LINE
  8
0
 10
13.9778
 20
82.5195
 11
14.2875
 21
82.55
  0
LINE
  8
0
 10
14.2875
 20
82.55
 11
14.5972
 21
82.5195
  0
LINE
  8
0
 10
14.5972
 20
82.5195
 11
14.895
 21
82.4291
  0
LINE
  8
0
 10
14.895
 20
82.4291
 11
15.1694
 21
82.2824
  0
LINE
  8
0
 10
15.1694
 20
82.2824
 11
15.41
 21
82.085
  0
LINE
  8
0
 10
15.41
 20
82.085
 11
15.6074
 21
81.8445
  0
LINE
  8
0
 10
15.6074
 20
81.8445
 11
15.7541
 21
81.57
  0
LINE
  8
0
 10
15.7541
 20
81.57
 11
15.8445
 21
81.2722
  0
LINE
  8
0
 10
15.8445
 20
81.2722
 11
15.875
 21
80.9625
  0
LINE
  8
0
 10
15.875
 20
80.9625
 11
15.8445
 21
80.6528
  0
LINE
  8
0
 10
15.8445
 20
80.6528
 11
15.7541
 21
80.355
  0
LINE
  8
0
 10
15.7541
 20
80.355
 11
15.6074
 21
80.0805
  0
LINE
  8
0
 10
15.6074
 20
80.0805
 11
15.41
 21
79.84
  0
LINE
  8
0
 10
15.41
 20
79.84
 11
15.1694
 21
79.6425
  0
LINE
  8
0
 10
15.1694
 20
79.6425
 11
14.895
 21
79.4958
  0
LINE
  8
0
 10
14.895
 20
79.4958
 11
14.5972
 21
79.4055
  0
LINE
  8
0
 10
14.5972
 20
79.4055
 11
14.2875
 21
79.375
  0
LINE
  8
0
 10
14.2875
 20
79.375
 11
13.9778
 21
79.4055
  0
LINE
  8
0
 10
99.7028
 20
79.4055
 11
99.405
 21
79.4958
  0
LINE
  8
0
 10
99.405
 20
79.4958
 11
99.1305
 21
79.6425
  0
LINE
  8
0
 10
99.1305
 20
79.6425
 11
98.89
 21
79.84
  0
LINE
  8
0
 10
98.89
 20
79.84
 11
98.6925
 21
80.0805
  0
LINE
  8
0
 10
98.6925
 20
80.0805
 11
98.5458
 21
80.355
  0
LINE
  8
0
 10
98.5458
 20
80.355
 11
98.4555
 21
80.6528
  0
LINE
  8
0
 10
98.4555
 20
80.6528
 11
98.425
 21
80.9625
  0
LINE
  8
0
 10
98.425
 20
80.9625
 11
98.4555
 21
81.2722
  0
LINE
  8
0
 10
98.4555
 20
81.2722
 11
98.5458
 21
81.57
  0
LINE
  8
0
 10
98.5458
 20
81.57
 11
98.6925
 21
81.8445
  0
LINE
  8
0
 10
98.6925
 20
81.8445
 11
98.89
 21
82.085
  0
LINE
  8
0
 10
98.89
 20
82.085
 11
99.1305
 21
82.2824
  0
LINE
  8
0
 10
99.1305
 20
82.2824
 11
99.405
 21
82.4291
  0
LINE
  8
0
 10
99.405
 20
82.4291
 11
99.7028
 21
82.5195
  0
LINE
  8
0
 10
99.7028
 20
82.5195
 11
100.012
 21
82.55
  0
LINE
  8
0
 10
100.012
 20
82.55
 11
100.322
 21
82.5195
  0
LINE
  8
0
 10
100.322
 20
82.5195
 11
100.62
 21
82.4291
  0
LINE
  8
0
 10
100.62
 20
82.4291
 11
100.894
 21
82.2824
  0
LINE
  8
0
 10
100.894
 20
82.2824
 11
101.135
 21
82.085
  0
LINE
  8
0
 10
101.135
 20
82.085
 11
101.332
 21
81.8445
  0
LINE
  8
0
 10
101.332
 20
81.8445
 11
101.479
 21
81.57
  0
LINE
  8
0
 10
101.479
 20
81.57
 11
101.569
 21
81.2722
  0
LINE
  8
0
 10
101.569
 20
81.2722
 11
101.6
 21
80.9625
  0
LINE
  8
0
 10
101.6
 20
80.9625
 11
101.569
 21
80.6528
  0
LINE
  8
0
 10
101.569
 20
80.6528
 11
101.479
 21
80.355
  0
LINE
  8
0
 10
101.479
 20
80.355
 11
101.332
 21
80.0805
  0
LINE
  8
0
 10
101.332
 20
80.0805
 11
101.135
 21
79.84
  0
LINE
  8
0
 10
101.135
 20
79.84
 11
100.894
 21
79.6425
  0
LINE
  8
0
 10
100.894
 20
79.6425
 11
100.62
 21
79.4958
  0
LINE
  8
0
 10
100.62
 20
79.4958
 11
100.322
 21
79.4055
  0
LINE
  8
0
 10
100.322
 20
79.4055
 11
100.012
 21
79.375
  0
LINE
  8
0
 10
100.012
 20
79.375
 11
99.7028
 21
79.4055
  0
LINE
  8
0
 10
11.4591
 20
-57.6089
 11
22.4779
 21
-54.2664
  0
LINE
  8
0
 10
22.4779
 20
-54.2664
 11
32.6328
 21
-48.8384
  0
LINE
  8
0
 10
32.6328
 20
-48.8384
 11
41.5337
 21
-41.5337
  0
LINE
  8
0
 10
41.5337
 20
-41.5337
 11
48.8384
 21
-32.6328
  0
LINE
  8
0
 10
48.8384
 20
-32.6328
 11
54.2664
 21
-22.4779
  0
LINE
  8
0
 10
54.2664
 20
-22.4779
 11
57.6089
 21
-11.4591
  0
LINE
  8
0
 10
57.6089
 20
-11.4591
 11
58.7375
 21
0
  0
LINE
  8
0
 10
58.7375
 20
0
 11
57.6089
 21
11.4591
  0
LINE
  8
0
 10
57.6089
 20
11.4591
 11
54.2664
 21
22.4779
  0
LINE
  8
0
 10
54.2664
 20
22.4779
 11
48.8384
 21
32.6328
  0
LINE
  8
0
 10
48.8384
 20
32.6328
 11
41.5337
 21
41.5337
  0
LINE
  8
0
 10
41.5337
 20
41.5337
 11
32.6328
 21
48.8384
  0
LINE
  8
0
 10
32.6328
 20
48.8384
 11
22.4779
 21
54.2664
  0
LINE
  8
0
 10
22.4779
 20
54.2664
 11
11.4591
 21
57.6089
  0
LINE
  8
0
 10
11.4591
 20
57.6089
 11
0
 21
58.7375
  0
LINE
  8
0
 10
0
 20
58.7375
 11
-11.4591
 21
57.6089
  0
LINE
  8
0
 10
-11.4591
 20
57.6089
 11
-22.4779
 21
54.2664
  0
LINE
  8
0
 10
-22.4779
 20
54.2664
 11
-32.6328
 21
48.8384
  0
LINE
  8
0
 10
-32.6328
 20
48.8384
 11
-41.5337
 21
41.5337
  0
LINE
  8
0
 10
-41.5337
 20
41.5337
 11
-48.8384
 21
32.6328
  0
LINE
  8
0
 10
-48.8384
 20
32.6328
 11
-54.2664
 21
22.4779
  0
LINE
  8
0
 10
-54.2664
 20
22.4779
 11
-57.6089
 21
11.4591
  0
LINE
  8
0
 10
-57.6089
 20
11.4591
 11
-58.7375
 21
0
  0
LINE
  8
0
 10
-58.7375
 20
0
 11
-57.6089
 21
-11.4591
  0
LINE
  8
0
 10
-57.6089
 20
-11.4591
 11
-54.2664
 21
-22.4779
  0
LINE
  8
0
 10
-54.2664
 20
-22.4779
 11
-48.8384
 21
-32.6328
  0
LINE
  8
0
 10
-48.8384
 20
-32.6328
 11
-41.5337
 21
-41.5337
  0
LINE
  8
0
 10
-41.5337
 20
-41.5337
 11
-32.6328
 21
-48.8384
  0
LINE
  8
0
 10
-32.6328
 20
-48.8384
 11
-22.4779
 21
-54.2664
  0
LINE
  8
0
 10
-22.4779
 20
-54.2664
 11
-11.4591
 21
-57.6089
  0
LINE
  8
0
 10
-11.4591
 20
-57.6089
 11
0
 21
-58.7375
  0
LINE
  8
0
 10
0
 20
-58.7375
 11
11.4591
 21
-57.6089
  0
LINE
  8
0
 10
3.7578
 20
49.1004
 11
3.46848
 21
49.215
  0
LINE
  8
0
 10
3.46848
 20
49.215
 11
3.20706
 21
49.3839
  0
LINE
  8
0
 10
3.20706
 20
49.3839
 11
2.98363
 21
49.6005
  0
LINE
  8
0
 10
2.98363
 20
49.6005
 11
2.80675
 21
49.8565
  0
LINE
  8
0
 10
2.80675
 20
49.8565
 11
2.68321
 21
50.1422
  0
LINE
  8
0
 10
2.68321
 20
50.1422
 11
2.61777
 21
50.4464
  0
LINE
  8
0
 10
2.61777
 20
50.4464
 11
2.61295
 21
50.7576
  0
LINE
  8
0
 10
2.61295
 20
50.7576
 11
2.66891
 21
51.0637
  0
LINE
  8
0
 10
2.66891
 20
51.0637
 11
2.78354
 21
51.353
  0
LINE
  8
0
 10
2.78354
 20
51.353
 11
2.95241
 21
51.6144
  0
LINE
  8
0
 10
2.95241
 20
51.6144
 11
3.16902
 21
51.8379
  0
LINE
  8
0
 10
3.16902
 20
51.8379
 11
3.42506
 21
52.0148
  0
LINE
  8
0
 10
3.42506
 20
52.0148
 11
3.71071
 21
52.1383
  0
LINE
  8
0
 10
3.71071
 20
52.1383
 11
4.01495
 21
52.2037
  0
LINE
  8
0
 10
4.01495
 20
52.2037
 11
4.32611
 21
52.2086
  0
LINE
  8
0
 10
4.32611
 20
52.2086
 11
4.63225
 21
52.1526
  0
LINE
  8
0
 10
4.63225
 20
52.1526
 11
4.92157
 21
52.038
  0
LINE
  8
0
 10
4.92157
 20
52.038
 11
5.18298
 21
51.8691
  0
LINE
  8
0
 10
5.18298
 20
51.8691
 11
5.40642
 21
51.6525
  0
LINE
  8
0
 10
5.40642
 20
51.6525
 11
5.5833
 21
51.3964
  0
LINE
  8
0
 10
5.5833
 20
51.3964
 11
5.70683
 21
51.1108
  0
LINE
  8
0
 10
5.70683
 20
51.1108
 11
5.77228
 21
50.8066
  0
LINE
  8
0
 10
5.77228
 20
50.8066
 11
5.7771
 21
50.4954
  0
LINE
  8
0
 10
5.7771
 20
50.4954
 11
5.72113
 21
50.1893
  0
LINE
  8
0
 10
5.72113
 20
50.1893
 11
5.60651
 21
49.8999
  0
LINE
  8
0
 10
5.60651
 20
49.8999
 11
5.43764
 21
49.6385
  0
LINE
  8
0
 10
5.43764
 20
49.6385
 11
5.22102
 21
49.4151
  0
LINE
  8
0
 10
5.22102
 20
49.4151
 11
4.96498
 21
49.2382
  0
LINE
  8
0
 10
4.96498
 20
49.2382
 11
4.67934
 21
49.1147
  0
LINE
  8
0
 10
4.67934
 20
49.1147
 11
4.37509
 21
49.0492
  0
LINE
  8
0
 10
4.37509
 20
49.0492
 11
4.06393
 21
49.0444
  0
LINE
  8
0
 10
4.06393
 20
49.0444
 11
3.7578
 21
49.1004
  0
LINE
  8
0
 10
-4.37509
 20
49.0492
 11
-4.67934
 21
49.1147
  0
LINE
  8
0
 10
-4.67934
 20
49.1147
 11
-4.96498
 21
49.2382
  0
LINE
  8
0
 10
-4.96498
 20
49.2382
 11
-5.22102
 21
49.4151
  0
LINE
  8
0
 10
-5.22102
 20
49.4151
 11
-5.43764
 21
49.6385
  0
LINE
  8
0
 10
-5.43764
 20
49.6385
 11
-5.60651
 21
49.8999
  0
LINE
  8
0
 10
-5.60651
 20
49.8999
 11
-5.72113
 21
50.1893
  0
LINE
  8
0
 10
-5.72113
 20
50.1893
 11
-5.7771
 21
50.4954
  0
LINE
  8
0
 10
-5.7771
 20
50.4954
 11
-5.77228
 21
50.8066
  0
LINE
  8
0
 10
-5.77228
 20
50.8066
 11
-5.70683
 21
51.1108
  0
LINE
  8
0
 10
-5.70683
 20
51.1108
 11
-5.5833
 21
51.3964
  0
LINE
  8
0
 10
-5.5833
 20
51.3964
 11
-5.40642
 21
51.6525
  0
LINE
  8
0
 10
-5.40642
 20
51.6525
 11
-5.18298
 21
51.8691
  0
LINE
  8
0
 10
-5.18298
 20
51.8691
 11
-4.92157
 21
52.038
  0
LINE
  8
0
 10
-4.92157
 20
52.038
 11
-4.63225
 21
52.1526
  0
LINE
  8
0
 10
-4.63225
 20
52.1526
 11
-4.32611
 21
52.2086
  0
LINE
  8
0
 10
-4.32611
 20
52.2086
 11
-4.01495
 21
52.2037
  0
LINE
  8
0
 10
-4.01495
 20
52.2037
 11
-3.71071
 21
52.1383
  0
LINE
  8
0
 10
-3.71071
 20
52.1383
 11
-3.42506
 21
52.0148
  0
LINE
  8
0
 10
-3.42506
 20
52.0148
 11
-3.16902
 21
51.8379
  0
LINE
  8
0
 10
-3.16902
 20
51.8379
 11
-2.95241
 21
51.6144
  0
LINE
  8
0
 10
-2.95241
 20
51.6144
 11
-2.78354
 21
51.353
  0
LINE
  8
0
 10
-2.78354
 20
51.353
 11
-2.66891
 21
51.0637
  0
LINE
  8
0
 10
-2.66891
 20
51.0637
 11
-2.61295
 21
50.7576
  0
LINE
  8
0
 10
-2.61295
 20
50.7576
 11
-2.61777
 21
50.4464
  0
LINE
  8
0
 10
-2.61777
 20
50.4464
 11
-2.68321
 21
50.1422
  0
LINE
  8
0
 10
-2.68321
 20
50.1422
 11
-2.80675
 21
49.8565
  0
LINE
  8
0
 10
-2.80675
 20
49.8565
 11
-2.98363
 21
49.6005
  0
LINE
  8
0
 10
-2.98363
 20
49.6005
 11
-3.20706
 21
49.3839
  0
LINE
  8
0
 10
-3.20706
 20
49.3839
 11
-3.46848
 21
49.215
  0
LINE
  8
0
 10
-3.46848
 20
49.215
 11
-3.7578
 21
49.1004
  0
LINE
  8
0
 10
-3.7578
 20
49.1004
 11
-4.06393
 21
49.0444
  0
LINE
  8
0
 10
-4.06393
 20
49.0444
 11
-4.37509
 21
49.0492
  0
LINE
  8
0
 10
12.0809
 20
47.7066
 11
11.7882
 21
47.8122
  0
LINE
  8
0
 10
11.7882
 20
47.8122
 11
11.5217
 21
47.9729
  0
LINE
  8
0
 10
11.5217
 20
47.9729
 11
11.2916
 21
48.1825
  0
LINE
  8
0
 10
11.2916
 20
48.1825
 11
11.1069
 21
48.4329
  0
LINE
  8
0
 10
11.1069
 20
48.4329
 11
10.9746
 21
48.7146
  0
LINE
  8
0
 10
10.9746
 20
48.7146
 11
10.8997
 21
49.0166
  0
LINE
  8
0
 10
10.8997
 20
49.0166
 11
10.8853
 21
49.3275
  0
LINE
  8
0
 10
10.8853
 20
49.3275
 11
10.9317
 21
49.6352
  0
LINE
  8
0
 10
10.9317
 20
49.6352
 11
11.0373
 21
49.928
  0
LINE
  8
0
 10
11.0373
 20
49.928
 11
11.198
 21
50.1945
  0
LINE
  8
0
 10
11.198
 20
50.1945
 11
11.4076
 21
50.4245
  0
LINE
  8
0
 10
11.4076
 20
50.4245
 11
11.658
 21
50.6093
  0
LINE
  8
0
 10
11.658
 20
50.6093
 11
11.9397
 21
50.7416
  0
LINE
  8
0
 10
11.9397
 20
50.7416
 11
12.2418
 21
50.8164
  0
LINE
  8
0
 10
12.2418
 20
50.8164
 11
12.5526
 21
50.8309
  0
LINE
  8
0
 10
12.5526
 20
50.8309
 11
12.8604
 21
50.7845
  0
LINE
  8
0
 10
12.8604
 20
50.7845
 11
13.1531
 21
50.6788
  0
LINE
  8
0
 10
13.1531
 20
50.6788
 11
13.4196
 21
50.5182
  0
LINE
  8
0
 10
13.4196
 20
50.5182
 11
13.6497
 21
50.3086
  0
LINE
  8
0
 10
13.6497
 20
50.3086
 11
13.8344
 21
50.0581
  0
LINE
  8
0
 10
13.8344
 20
50.0581
 11
13.9667
 21
49.7765
  0
LINE
  8
0
 10
13.9667
 20
49.7765
 11
14.0416
 21
49.4744
  0
LINE
  8
0
 10
14.0416
 20
49.4744
 11
14.056
 21
49.1635
  0
LINE
  8
0
 10
14.056
 20
49.1635
 11
14.0096
 21
48.8558
  0
LINE
  8
0
 10
14.0096
 20
48.8558
 11
13.904
 21
48.5631
  0
LINE
  8
0
 10
13.904
 20
48.5631
 11
13.7433
 21
48.2966
  0
LINE
  8
0
 10
13.7433
 20
48.2966
 11
13.5337
 21
48.0665
  0
LINE
  8
0
 10
13.5337
 20
48.0665
 11
13.2833
 21
47.8818
  0
LINE
  8
0
 10
13.2833
 20
47.8818
 11
13.0016
 21
47.7495
  0
LINE
  8
0
 10
13.0016
 20
47.7495
 11
12.6995
 21
47.6746
  0
LINE
  8
0
 10
12.6995
 20
47.6746
 11
12.3887
 21
47.6601
  0
LINE
  8
0
 10
12.3887
 20
47.6601
 11
12.0809
 21
47.7066
  0
LINE
  8
0
 10
-12.6995
 20
47.6746
 11
-13.0016
 21
47.7495
  0
LINE
  8
0
 10
-13.0016
 20
47.7495
 11
-13.2833
 21
47.8818
  0
LINE
  8
0
 10
-13.2833
 20
47.8818
 11
-13.5337
 21
48.0665
  0
LINE
  8
0
 10
-13.5337
 20
48.0665
 11
-13.7433
 21
48.2966
  0
LINE
  8
0
 10
-13.7433
 20
48.2966
 11
-13.904
 21
48.5631
  0
LINE
  8
0
 10
-13.904
 20
48.5631
 11
-14.0096
 21
48.8558
  0
LINE
  8
0
 10
-14.0096
 20
48.8558
 11
-14.056
 21
49.1635
  0
LINE
  8
0
 10
-14.056
 20
49.1635
 11
-14.0416
 21
49.4744
  0
LINE
  8
0
 10
-14.0416
 20
49.4744
 11
-13.9667
 21
49.7765
  0
LINE
  8
0
 10
-13.9667
 20
49.7765
 11
-13.8344
 21
50.0581
  0
LINE
  8
0
 10
-13.8344
 20
50.0581
 11
-13.6497
 21
50.3086
  0
LINE
  8
0
 10
-13.6497
 20
50.3086
 11
-13.4196
 21
50.5182
  0
LINE
  8
0
 10
-13.4196
 20
50.5182
 11
-13.1531
 21
50.6788
  0
LINE
  8
0
 10
-13.1531
 20
50.6788
 11
-12.8604
 21
50.7845
  0
LINE
  8
0
 10
-12.8604
 20
50.7845
 11
-12.5526
 21
50.8309
  0
LINE
  8
0
 10
-12.5526
 20
50.8309
 11
-12.2418
 21
50.8164
  0
LINE
  8
0
 10
-12.2418
 20
50.8164
 11
-11.9397
 21
50.7416
  0
LINE
  8
0
 10
-11.9397
 20
50.7416
 11
-11.658
 21
50.6093
  0
LINE
  8
0
 10
-11.658
 20
50.6093
 11
-11.4076
 21
50.4245
  0
LINE
  8
0
 10
-11.4076
 20
50.4245
 11
-11.198
 21
50.1945
  0
LINE
  8
0
 10
-11.198
 20
50.1945
 11
-11.0373
 21
49.928
  0
LINE
  8
0
 10
-11.0373
 20
49.928
 11
-10.9317
 21
49.6352
  0
LINE
  8
0
 10
-10.9317
 20
49.6352
 11
-10.8853
 21
49.3275
  0
LINE
  8
0
 10
-10.8853
 20
49.3275
 11
-10.8997
 21
49.0166
  0
LINE
  8
0
 10
-10.8997
 20
49.0166
 11
-10.9746
 21
48.7146
  0
LINE
  8
0
 10
-10.9746
 20
48.7146
 11
-11.1069
 21
48.4329
  0
LINE
  8
0
 10
-11.1069
 20
48.4329
 11
-11.2916
 21
48.1825
  0
LINE
  8
0
 10
-11.2916
 20
48.1825
 11
-11.5217
 21
47.9729
  0
LINE
  8
0
 10
-11.5217
 20
47.9729
 11
-11.7882
 21
47.8122
  0
LINE
  8
0
 10
-11.7882
 20
47.8122
 11
-12.0809
 21
47.7066
  0
LINE
  8
0
 10
-12.0809
 20
47.7066
 11
-12.3887
 21
47.6601
  0
LINE
  8
0
 10
-12.3887
 20
47.6601
 11
-12.6995
 21
47.6746
  0
LINE
  8
0
 10
20.0643
 20
44.971
 11
19.7684
 21
45.0675
  0
LINE
  8
0
 10
19.7684
 20
45.0675
 11
19.4971
 21
45.2198
  0
LINE
  8
0
 10
19.4971
 20
45.2198
 11
19.2606
 21
45.4222
  0
LINE
  8
0
 10
19.2606
 20
45.4222
 11
19.0682
 21
45.6668
  0
LINE
  8
0
 10
19.0682
 20
45.6668
 11
18.9272
 21
45.9442
  0
LINE
  8
0
 10
18.9272
 20
45.9442
 11
18.843
 21
46.2438
  0
LINE
  8
0
 10
18.843
 20
46.2438
 11
18.819
 21
46.5541
  0
LINE
  8
0
 10
18.819
 20
46.5541
 11
18.8559
 21
46.8631
  0
LINE
  8
0
 10
18.8559
 20
46.8631
 11
18.9523
 21
47.159
  0
LINE
  8
0
 10
18.9523
 20
47.159
 11
19.1047
 21
47.4303
  0
LINE
  8
0
 10
19.1047
 20
47.4303
 11
19.307
 21
47.6668
  0
LINE
  8
0
 10
19.307
 20
47.6668
 11
19.5516
 21
47.8592
  0
LINE
  8
0
 10
19.5516
 20
47.8592
 11
19.8291
 21
48.0002
  0
LINE
  8
0
 10
19.8291
 20
48.0002
 11
20.1287
 21
48.0843
  0
LINE
  8
0
 10
20.1287
 20
48.0843
 11
20.4389
 21
48.1084
  0
LINE
  8
0
 10
20.4389
 20
48.1084
 11
20.7479
 21
48.0715
  0
LINE
  8
0
 10
20.7479
 20
48.0715
 11
21.0438
 21
47.9751
  0
LINE
  8
0
 10
21.0438
 20
47.9751
 11
21.3152
 21
47.8227
  0
LINE
  8
0
 10
21.3152
 20
47.8227
 11
21.5516
 21
47.6204
  0
LINE
  8
0
 10
21.5516
 20
47.6204
 11
21.744
 21
47.3758
  0
LINE
  8
0
 10
21.744
 20
47.3758
 11
21.885
 21
47.0983
  0
LINE
  8
0
 10
21.885
 20
47.0983
 11
21.9692
 21
46.7987
  0
LINE
  8
0
 10
21.9692
 20
46.7987
 11
21.9933
 21
46.4885
  0
LINE
  8
0
 10
21.9933
 20
46.4885
 11
21.9564
 21
46.1795
  0
LINE
  8
0
 10
21.9564
 20
46.1795
 11
21.8599
 21
45.8836
  0
LINE
  8
0
 10
21.8599
 20
45.8836
 11
21.7076
 21
45.6122
  0
LINE
  8
0
 10
21.7076
 20
45.6122
 11
21.5052
 21
45.3758
  0
LINE
  8
0
 10
21.5052
 20
45.3758
 11
21.2606
 21
45.1834
  0
LINE
  8
0
 10
21.2606
 20
45.1834
 11
20.9832
 21
45.0424
  0
LINE
  8
0
 10
20.9832
 20
45.0424
 11
20.6836
 21
44.9582
  0
LINE
  8
0
 10
20.6836
 20
44.9582
 11
20.3733
 21
44.9341
  0
LINE
  8
0
 10
20.3733
 20
44.9341
 11
20.0643
 21
44.971
  0
LINE
  8
0
 10
-20.6836
 20
44.9582
 11
-20.9832
 21
45.0424
  0
LINE
  8
0
 10
-20.9832
 20
45.0424
 11
-21.2606
 21
45.1834
  0
LINE
  8
0
 10
-21.2606
 20
45.1834
 11
-21.5052
 21
45.3758
  0
LINE
  8
0
 10
-21.5052
 20
45.3758
 11
-21.7076
 21
45.6122
  0
LINE
  8
0
 10
-21.7076
 20
45.6122
 11
-21.8599
 21
45.8836
  0
LINE
  8
0
 10
-21.8599
 20
45.8836
 11
-21.9564
 21
46.1795
  0
LINE
  8
0
 10
-21.9564
 20
46.1795
 11
-21.9933
 21
46.4885
  0
LINE
  8
0
 10
-21.9933
 20
46.4885
 11
-21.9692
 21
46.7987
  0
LINE
  8
0
 10
-21.9692
 20
46.7987
 11
-21.885
 21
47.0983
  0
LINE
  8
0
 10
-21.885
 20
47.0983
 11
-21.744
 21
47.3758
  0
LINE
  8
0
 10
-21.744
 20
47.3758
 11
-21.5516
 21
47.6204
  0
LINE
  8
0
 10
-21.5516
 20
47.6204
 11
-21.3152
 21
47.8227
  0
LINE
  8
0
 10
-21.3152
 20
47.8227
 11
-21.0438
 21
47.9751
  0
LINE
  8
0
 10
-21.0438
 20
47.9751
 11
-20.7479
 21
48.0715
  0
LINE
  8
0
 10
-20.7479
 20
48.0715
 11
-20.4389
 21
48.1084
  0
LINE
  8
0
 10
-20.4389
 20
48.1084
 11
-20.1287
 21
48.0843
  0
LINE
  8
0
 10
-20.1287
 20
48.0843
 11
-19.8291
 21
48.0002
  0
LINE
  8
0
 10
-19.8291
 20
48.0002
 11
-19.5516
 21
47.8592
  0
LINE
  8
0
 10
-19.5516
 20
47.8592
 11
-19.307
 21
47.6668
  0
LINE
  8
0
 10
-19.307
 20
47.6668
 11
-19.1047
 21
47.4303
  0
LINE
  8
0
 10
-19.1047
 20
47.4303
 11
-18.9523
 21
47.159
  0
LINE
  8
0
 10
-18.9523
 20
47.159
 11
-18.8559
 21
46.8631
  0
LINE
  8
0
 10
-18.8559
 20
46.8631
 11
-18.819
 21
46.5541
  0
LINE
  8
0
 10
-18.819
 20
46.5541
 11
-18.843
 21
46.2438
  0
LINE
  8
0
 10
-18.843
 20
46.2438
 11
-18.9272
 21
45.9442
  0
LINE
  8
0
 10
-18.9272
 20
45.9442
 11
-19.0682
 21
45.6668
  0
LINE
  8
0
 10
-19.0682
 20
45.6668
 11
-19.2606
 21
45.4222
  0
LINE
  8
0
 10
-19.2606
 20
45.4222
 11
-19.4971
 21
45.2198
  0
LINE
  8
0
 10
-19.4971
 20
45.2198
 11
-19.7684
 21
45.0675
  0
LINE
  8
0
 10
-19.7684
 20
45.0675
 11
-20.0643
 21
44.971
  0
LINE
  8
0
 10
-20.0643
 20
44.971
 11
-20.3733
 21
44.9341
  0
LINE
  8
0
 10
-20.3733
 20
44.9341
 11
-20.6836
 21
44.9582
  0
LINE
  8
0
 10
-28.1107
 20
40.9743
 11
-28.4076
 21
41.0677
  0
LINE
  8
0
 10
-28.4076
 20
41.0677
 11
-28.6805
 21
41.2173
  0
LINE
  8
0
 10
-28.6805
 20
41.2173
 11
-28.919
 21
41.4172
  0
LINE
  8
0
 10
-28.919
 20
41.4172
 11
-29.114
 21
41.6598
  0
LINE
  8
0
 10
-29.114
 20
41.6598
 11
-29.2578
 21
41.9357
  0
LINE
  8
0
 10
-29.2578
 20
41.9357
 11
-29.3451
 21
42.2345
  0
LINE
  8
0
 10
-29.3451
 20
42.2345
 11
-29.3724
 21
42.5444
  0
LINE
  8
0
 10
-29.3724
 20
42.5444
 11
-29.3387
 21
42.8538
  0
LINE
  8
0
 10
-29.3387
 20
42.8538
 11
-29.2453
 21
43.1507
  0
LINE
  8
0
 10
-29.2453
 20
43.1507
 11
-29.0957
 21
43.4236
  0
LINE
  8
0
 10
-29.0957
 20
43.4236
 11
-28.8958
 21
43.6621
  0
LINE
  8
0
 10
-28.8958
 20
43.6621
 11
-28.6532
 21
43.8571
  0
LINE
  8
0
 10
-28.6532
 20
43.8571
 11
-28.3773
 21
44.0009
  0
LINE
  8
0
 10
-28.3773
 20
44.0009
 11
-28.0786
 21
44.0882
  0
LINE
  8
0
 10
-28.0786
 20
44.0882
 11
-27.7686
 21
44.1155
  0
LINE
  8
0
 10
-27.7686
 20
44.1155
 11
-27.4592
 21
44.0818
  0
LINE
  8
0
 10
-27.4592
 20
44.0818
 11
-27.1623
 21
43.9884
  0
LINE
  8
0
 10
-27.1623
 20
43.9884
 11
-26.8894
 21
43.8388
  0
LINE
  8
0
 10
-26.8894
 20
43.8388
 11
-26.6509
 21
43.6389
  0
LINE
  8
0
 10
-26.6509
 20
43.6389
 11
-26.456
 21
43.3963
  0
LINE
  8
0
 10
-26.456
 20
43.3963
 11
-26.3121
 21
43.1204
  0
LINE
  8
0
 10
-26.3121
 20
43.1204
 11
-26.2248
 21
42.8217
  0
LINE
  8
0
 10
-26.2248
 20
42.8217
 11
-26.1975
 21
42.5116
  0
LINE
  8
0
 10
-26.1975
 20
42.5116
 11
-26.2312
 21
42.2023
  0
LINE
  8
0
 10
-26.2312
 20
42.2023
 11
-26.3247
 21
41.9054
  0
LINE
  8
0
 10
-26.3247
 20
41.9054
 11
-26.4742
 21
41.6325
  0
LINE
  8
0
 10
-26.4742
 20
41.6325
 11
-26.6741
 21
41.394
  0
LINE
  8
0
 10
-26.6741
 20
41.394
 11
-26.9167
 21
41.1991
  0
LINE
  8
0
 10
-26.9167
 20
41.1991
 11
-27.1926
 21
41.0552
  0
LINE
  8
0
 10
-27.1926
 20
41.0552
 11
-27.4914
 21
40.9679
  0
LINE
  8
0
 10
-27.4914
 20
40.9679
 11
-27.8014
 21
40.9406
  0
LINE
  8
0
 10
-27.8014
 20
40.9406
 11
-28.1107
 21
40.9743
  0
LINE
  8
0
 10
27.4914
 20
40.9679
 11
27.1926
 21
41.0552
  0
LINE
  8
0
 10
27.1926
 20
41.0552
 11
26.9167
 21
41.1991
  0
LINE
  8
0
 10
26.9167
 20
41.1991
 11
26.6741
 21
41.394
  0
LINE
  8
0
 10
26.6741
 20
41.394
 11
26.4742
 21
41.6325
  0
LINE
  8
0
 10
26.4742
 20
41.6325
 11
26.3247
 21
41.9054
  0
LINE
  8
0
 10
26.3247
 20
41.9054
 11
26.2312
 21
42.2023
  0
LINE
  8
0
 10
26.2312
 20
42.2023
 11
26.1975
 21
42.5116
  0
LINE
  8
0
 10
26.1975
 20
42.5116
 11
26.2248
 21
42.8217
  0
LINE
  8
0
 10
26.2248
 20
42.8217
 11
26.3121
 21
43.1204
  0
LINE
  8
0
 10
26.3121
 20
43.1204
 11
26.456
 21
43.3963
  0
LINE
  8
0
 10
26.456
 20
43.3963
 11
26.6509
 21
43.6389
  0
LINE
  8
0
 10
26.6509
 20
43.6389
 11
26.8894
 21
43.8388
  0
LINE
  8
0
 10
26.8894
 20
43.8388
 11
27.1623
 21
43.9884
  0
LINE
  8
0
 10
27.1623
 20
43.9884
 11
27.4592
 21
44.0818
  0
LINE
  8
0
 10
27.4592
 20
44.0818
 11
27.7686
 21
44.1155
  0
LINE
  8
0
 10
27.7686
 20
44.1155
 11
28.0786
 21
44.0882
  0
LINE
  8
0
 10
28.0786
 20
44.0882
 11
28.3773
 21
44.0009
  0
LINE
  8
0
 10
28.3773
 20
44.0009
 11
28.6532
 21
43.8571
  0
LINE
  8
0
 10
28.6532
 20
43.8571
 11
28.8958
 21
43.6621
  0
LINE
  8
0
 10
28.8958
 20
43.6621
 11
29.0957
 21
43.4236
  0
LINE
  8
0
 10
29.0957
 20
43.4236
 11
29.2453
 21
43.1507
  0
LINE
  8
0
 10
29.2453
 20
43.1507
 11
29.3387
 21
42.8538
  0
LINE
  8
0
 10
29.3387
 20
42.8538
 11
29.3724
 21
42.5444
  0
LINE
  8
0
 10
29.3724
 20
42.5444
 11
29.3451
 21
42.2345
  0
LINE
  8
0
 10
29.3451
 20
42.2345
 11
29.2578
 21
41.9357
  0
LINE
  8
0
 10
29.2578
 20
41.9357
 11
29.114
 21
41.6598
  0
LINE
  8
0
 10
29.114
 20
41.6598
 11
28.919
 21
41.4172
  0
LINE
  8
0
 10
28.919
 20
41.4172
 11
28.6805
 21
41.2173
  0
LINE
  8
0
 10
28.6805
 20
41.2173
 11
28.4076
 21
41.0677
  0
LINE
  8
0
 10
28.4076
 20
41.0677
 11
28.1107
 21
40.9743
  0
LINE
  8
0
 10
28.1107
 20
40.9743
 11
27.8014
 21
40.9406
  0
LINE
  8
0
 10
27.8014
 20
40.9406
 11
27.4914
 21
40.9679
  0
LINE
  8
0
 10
-34.7797
 20
35.8319
 11
-35.0735
 21
35.9345
  0
LINE
  8
0
 10
-35.0735
 20
35.9345
 11
-35.3417
 21
36.0924
  0
LINE
  8
0
 10
-35.3417
 20
36.0924
 11
-35.5739
 21
36.2996
  0
LINE
  8
0
 10
-35.5739
 20
36.2996
 11
-35.7612
 21
36.5481
  0
LINE
  8
0
 10
-35.7612
 20
36.5481
 11
-35.8964
 21
36.8284
  0
LINE
  8
0
 10
-35.8964
 20
36.8284
 11
-35.9744
 21
37.1297
  0
LINE
  8
0
 10
-35.9744
 20
37.1297
 11
-35.992
 21
37.4404
  0
LINE
  8
0
 10
-35.992
 20
37.4404
 11
-35.9488
 21
37.7486
  0
LINE
  8
0
 10
-35.9488
 20
37.7486
 11
-35.8462
 21
38.0424
  0
LINE
  8
0
 10
-35.8462
 20
38.0424
 11
-35.6883
 21
38.3105
  0
LINE
  8
0
 10
-35.6883
 20
38.3105
 11
-35.4811
 21
38.5427
  0
LINE
  8
0
 10
-35.4811
 20
38.5427
 11
-35.2326
 21
38.73
  0
LINE
  8
0
 10
-35.2326
 20
38.73
 11
-34.9523
 21
38.8653
  0
LINE
  8
0
 10
-34.9523
 20
38.8653
 11
-34.651
 21
38.9432
  0
LINE
  8
0
 10
-34.651
 20
38.9432
 11
-34.3403
 21
38.9609
  0
LINE
  8
0
 10
-34.3403
 20
38.9609
 11
-34.0321
 21
38.9176
  0
LINE
  8
0
 10
-34.0321
 20
38.9176
 11
-33.7383
 21
38.8151
  0
LINE
  8
0
 10
-33.7383
 20
38.8151
 11
-33.4701
 21
38.6572
  0
LINE
  8
0
 10
-33.4701
 20
38.6572
 11
-33.2379
 21
38.45
  0
LINE
  8
0
 10
-33.2379
 20
38.45
 11
-33.0506
 21
38.2014
  0
LINE
  8
0
 10
-33.0506
 20
38.2014
 11
-32.9154
 21
37.9211
  0
LINE
  8
0
 10
-32.9154
 20
37.9211
 11
-32.8374
 21
37.6199
  0
LINE
  8
0
 10
-32.8374
 20
37.6199
 11
-32.8197
 21
37.3092
  0
LINE
  8
0
 10
-32.8197
 20
37.3092
 11
-32.863
 21
37.001
  0
LINE
  8
0
 10
-32.863
 20
37.001
 11
-32.9656
 21
36.7072
  0
LINE
  8
0
 10
-32.9656
 20
36.7072
 11
-33.1235
 21
36.439
  0
LINE
  8
0
 10
-33.1235
 20
36.439
 11
-33.3307
 21
36.2068
  0
LINE
  8
0
 10
-33.3307
 20
36.2068
 11
-33.5792
 21
36.0195
  0
LINE
  8
0
 10
-33.5792
 20
36.0195
 11
-33.8595
 21
35.8843
  0
LINE
  8
0
 10
-33.8595
 20
35.8843
 11
-34.1608
 21
35.8063
  0
LINE
  8
0
 10
-34.1608
 20
35.8063
 11
-34.4715
 21
35.7886
  0
LINE
  8
0
 10
-34.4715
 20
35.7886
 11
-34.7797
 21
35.8319
  0
LINE
  8
0
 10
34.1608
 20
35.8063
 11
33.8595
 21
35.8843
  0
LINE
  8
0
 10
33.8595
 20
35.8843
 11
33.5792
 21
36.0195
  0
LINE
  8
0
 10
33.5792
 20
36.0195
 11
33.3307
 21
36.2068
  0
LINE
  8
0
 10
33.3307
 20
36.2068
 11
33.1235
 21
36.439
  0
LINE
  8
0
 10
33.1235
 20
36.439
 11
32.9656
 21
36.7072
  0
LINE
  8
0
 10
32.9656
 20
36.7072
 11
32.863
 21
37.001
  0
LINE
  8
0
 10
32.863
 20
37.001
 11
32.8197
 21
37.3092
  0
LINE
  8
0
 10
32.8197
 20
37.3092
 11
32.8374
 21
37.6199
  0
LINE
  8
0
 10
32.8374
 20
37.6199
 11
32.9154
 21
37.9211
  0
LINE
  8
0
 10
32.9154
 20
37.9211
 11
33.0506
 21
38.2014
  0
LINE
  8
0
 10
33.0506
 20
38.2014
 11
33.2379
 21
38.45
  0
LINE
  8
0
 10
33.2379
 20
38.45
 11
33.4701
 21
38.6572
  0
LINE
  8
0
 10
33.4701
 20
38.6572
 11
33.7383
 21
38.8151
  0
LINE
  8
0
 10
33.7383
 20
38.8151
 11
34.0321
 21
38.9176
  0
LINE
  8
0
 10
34.0321
 20
38.9176
 11
34.3403
 21
38.9609
  0
LINE
  8
0
 10
34.3403
 20
38.9609
 11
34.651
 21
38.9432
  0
LINE
  8
0
 10
34.651
 20
38.9432
 11
34.9523
 21
38.8653
  0
LINE
  8
0
 10
34.9523
 20
38.8653
 11
35.2326
 21
38.73
  0
LINE
  8
0
 10
35.2326
 20
38.73
 11
35.4811
 21
38.5427
  0
LINE
  8
0
 10
35.4811
 20
38.5427
 11
35.6883
 21
38.3105
  0
LINE
  8
0
 10
35.6883
 20
38.3105
 11
35.8462
 21
38.0424
  0
LINE
  8
0
 10
35.8462
 20
38.0424
 11
35.9488
 21
37.7486
  0
LINE
  8
0
 10
35.9488
 20
37.7486
 11
35.992
 21
37.4404
  0
LINE
  8
0
 10
35.992
 20
37.4404
 11
35.9744
 21
37.1297
  0
LINE
  8
0
 10
35.9744
 20
37.1297
 11
35.8964
 21
36.8284
  0
LINE
  8
0
 10
35.8964
 20
36.8284
 11
35.7612
 21
36.5481
  0
LINE
  8
0
 10
35.7612
 20
36.5481
 11
35.5739
 21
36.2996
  0
LINE
  8
0
 10
35.5739
 20
36.2996
 11
35.3417
 21
36.0924
  0
LINE
  8
0
 10
35.3417
 20
36.0924
 11
35.0735
 21
35.9345
  0
LINE
  8
0
 10
35.0735
 20
35.9345
 11
34.7797
 21
35.8319
  0
LINE
  8
0
 10
34.7797
 20
35.8319
 11
34.4715
 21
35.7886
  0
LINE
  8
0
 10
34.4715
 20
35.7886
 11
34.1608
 21
35.8063
  0
LINE
  8
0
 10
-40.5098
 20
29.6715
 11
-40.8003
 21
29.7831
  0
LINE
  8
0
 10
-40.8003
 20
29.7831
 11
-41.0634
 21
29.9492
  0
LINE
  8
0
 10
-41.0634
 20
29.9492
 11
-41.2891
 21
30.1635
  0
LINE
  8
0
 10
-41.2891
 20
30.1635
 11
-41.4686
 21
30.4177
  0
LINE
  8
0
 10
-41.4686
 20
30.4177
 11
-41.5951
 21
30.7021
  0
LINE
  8
0
 10
-41.5951
 20
30.7021
 11
-41.6636
 21
31.0056
  0
LINE
  8
0
 10
-41.6636
 20
31.0056
 11
-41.6717
 21
31.3167
  0
LINE
  8
0
 10
-41.6717
 20
31.3167
 11
-41.6189
 21
31.6234
  0
LINE
  8
0
 10
-41.6189
 20
31.6234
 11
-41.5072
 21
31.9139
  0
LINE
  8
0
 10
-41.5072
 20
31.9139
 11
-41.3411
 21
32.1771
  0
LINE
  8
0
 10
-41.3411
 20
32.1771
 11
-41.1268
 21
32.4027
  0
LINE
  8
0
 10
-41.1268
 20
32.4027
 11
-40.8726
 21
32.5822
  0
LINE
  8
0
 10
-40.8726
 20
32.5822
 11
-40.5882
 21
32.7087
  0
LINE
  8
0
 10
-40.5882
 20
32.7087
 11
-40.2847
 21
32.7773
  0
LINE
  8
0
 10
-40.2847
 20
32.7773
 11
-39.9736
 21
32.7853
  0
LINE
  8
0
 10
-39.9736
 20
32.7853
 11
-39.6669
 21
32.7325
  0
LINE
  8
0
 10
-39.6669
 20
32.7325
 11
-39.3764
 21
32.6209
  0
LINE
  8
0
 10
-39.3764
 20
32.6209
 11
-39.1133
 21
32.4548
  0
LINE
  8
0
 10
-39.1133
 20
32.4548
 11
-38.8876
 21
32.2405
  0
LINE
  8
0
 10
-38.8876
 20
32.2405
 11
-38.7081
 21
31.9863
  0
LINE
  8
0
 10
-38.7081
 20
31.9863
 11
-38.5816
 21
31.7019
  0
LINE
  8
0
 10
-38.5816
 20
31.7019
 11
-38.513
 21
31.3984
  0
LINE
  8
0
 10
-38.513
 20
31.3984
 11
-38.505
 21
31.0873
  0
LINE
  8
0
 10
-38.505
 20
31.0873
 11
-38.5578
 21
30.7806
  0
LINE
  8
0
 10
-38.5578
 20
30.7806
 11
-38.6694
 21
30.4901
  0
LINE
  8
0
 10
-38.6694
 20
30.4901
 11
-38.8356
 21
30.2269
  0
LINE
  8
0
 10
-38.8356
 20
30.2269
 11
-39.0499
 21
30.0013
  0
LINE
  8
0
 10
-39.0499
 20
30.0013
 11
-39.3041
 21
29.8217
  0
LINE
  8
0
 10
-39.3041
 20
29.8217
 11
-39.5884
 21
29.6953
  0
LINE
  8
0
 10
-39.5884
 20
29.6953
 11
-39.892
 21
29.6267
  0
LINE
  8
0
 10
-39.892
 20
29.6267
 11
-40.2031
 21
29.6187
  0
LINE
  8
0
 10
-40.2031
 20
29.6187
 11
-40.5098
 21
29.6715
  0
LINE
  8
0
 10
39.892
 20
29.6267
 11
39.5884
 21
29.6953
  0
LINE
  8
0
 10
39.5884
 20
29.6953
 11
39.3041
 21
29.8217
  0
LINE
  8
0
 10
39.3041
 20
29.8217
 11
39.0499
 21
30.0013
  0
LINE
  8
0
 10
39.0499
 20
30.0013
 11
38.8356
 21
30.2269
  0
LINE
  8
0
 10
38.8356
 20
30.2269
 11
38.6694
 21
30.4901
  0
LINE
  8
0
 10
38.6694
 20
30.4901
 11
38.5578
 21
30.7806
  0
LINE
  8
0
 10
38.5578
 20
30.7806
 11
38.505
 21
31.0873
  0
LINE
  8
0
 10
38.505
 20
31.0873
 11
38.513
 21
31.3984
  0
LINE
  8
0
 10
38.513
 20
31.3984
 11
38.5816
 21
31.7019
  0
LINE
  8
0
 10
38.5816
 20
31.7019
 11
38.7081
 21
31.9863
  0
LINE
  8
0
 10
38.7081
 20
31.9863
 11
38.8876
 21
32.2405
  0
LINE
  8
0
 10
38.8876
 20
32.2405
 11
39.1133
 21
32.4548
  0
LINE
  8
0
 10
39.1133
 20
32.4548
 11
39.3764
 21
32.6209
  0
LINE
  8
0
 10
39.3764
 20
32.6209
 11
39.6669
 21
32.7325
  0
LINE
  8
0
 10
39.6669
 20
32.7325
 11
39.9736
 21
32.7853
  0
LINE
  8
0
 10
39.9736
 20
32.7853
 11
40.2847
 21
32.7773
  0
LINE
  8
0
 10
40.2847
 20
32.7773
 11
40.5882
 21
32.7087
  0
LINE
  8
0
 10
40.5882
 20
32.7087
 11
40.8726
 21
32.5822
  0
LINE
  8
0
 10
40.8726
 20
32.5822
 11
41.1268
 21
32.4027
  0
LINE
  8
0
 10
41.1268
 20
32.4027
 11
41.3411
 21
32.1771
  0
LINE
  8
0
 10
41.3411
 20
32.1771
 11
41.5072
 21
31.9139
  0
LINE
  8
0
 10
41.5072
 20
31.9139
 11
41.6189
 21
31.6234
  0
LINE
  8
0
 10
41.6189
 20
31.6234
 11
41.6717
 21
31.3167
  0
LINE
  8
0
 10
41.6717
 20
31.3167
 11
41.6636
 21
31.0056
  0
LINE
  8
0
 10
41.6636
 20
31.0056
 11
41.5951
 21
30.7021
  0
LINE
  8
0
 10
41.5951
 20
30.7021
 11
41.4686
 21
30.4177
  0
LINE
  8
0
 10
41.4686
 20
30.4177
 11
41.2891
 21
30.1635
  0
LINE
  8
0
 10
41.2891
 20
30.1635
 11
41.0634
 21
29.9492
  0
LINE
  8
0
 10
41.0634
 20
29.9492
 11
40.8003
 21
29.7831
  0
LINE
  8
0
 10
40.8003
 20
29.7831
 11
40.5098
 21
29.6715
  0
LINE
  8
0
 10
40.5098
 20
29.6715
 11
40.2031
 21
29.6187
  0
LINE
  8
0
 10
40.2031
 20
29.6187
 11
39.892
 21
29.6267
  0
LINE
  8
0
 10
-44.841
 20
22.5991
 11
-45.1459
 21
22.6614
  0
LINE
  8
0
 10
-45.1459
 20
22.6614
 11
-45.4328
 21
22.782
  0
LINE
  8
0
 10
-45.4328
 20
22.782
 11
-45.6907
 21
22.9562
  0
LINE
  8
0
 10
-45.6907
 20
22.9562
 11
-45.9096
 21
23.1774
  0
LINE
  8
0
 10
-45.9096
 20
23.1774
 11
-46.0812
 21
23.437
  0
LINE
  8
0
 10
-46.0812
 20
23.437
 11
-46.1988
 21
23.7251
  0
LINE
  8
0
 10
-46.1988
 20
23.7251
 11
-46.2579
 21
24.0307
  0
LINE
  8
0
 10
-46.2579
 20
24.0307
 11
-46.2563
 21
24.3419
  0
LINE
  8
0
 10
-46.2563
 20
24.3419
 11
-46.194
 21
24.6468
  0
LINE
  8
0
 10
-46.194
 20
24.6468
 11
-46.0734
 21
24.9337
  0
LINE
  8
0
 10
-46.0734
 20
24.9337
 11
-45.8992
 21
25.1915
  0
LINE
  8
0
 10
-45.8992
 20
25.1915
 11
-45.678
 21
25.4105
  0
LINE
  8
0
 10
-45.678
 20
25.4105
 11
-45.4184
 21
25.582
  0
LINE
  8
0
 10
-45.4184
 20
25.582
 11
-45.1302
 21
25.6996
  0
LINE
  8
0
 10
-45.1302
 20
25.6996
 11
-44.8247
 21
25.7588
  0
LINE
  8
0
 10
-44.8247
 20
25.7588
 11
-44.5135
 21
25.7572
  0
LINE
  8
0
 10
-44.5135
 20
25.7572
 11
-44.2086
 21
25.6949
  0
LINE
  8
0
 10
-44.2086
 20
25.6949
 11
-43.9217
 21
25.5743
  0
LINE
  8
0
 10
-43.9217
 20
25.5743
 11
-43.6638
 21
25.4001
  0
LINE
  8
0
 10
-43.6638
 20
25.4001
 11
-43.4449
 21
25.1789
  0
LINE
  8
0
 10
-43.4449
 20
25.1789
 11
-43.2734
 21
24.9192
  0
LINE
  8
0
 10
-43.2734
 20
24.9192
 11
-43.1558
 21
24.6311
  0
LINE
  8
0
 10
-43.1558
 20
24.6311
 11
-43.0966
 21
24.3256
  0
LINE
  8
0
 10
-43.0966
 20
24.3256
 11
-43.0982
 21
24.0144
  0
LINE
  8
0
 10
-43.0982
 20
24.0144
 11
-43.1605
 21
23.7094
  0
LINE
  8
0
 10
-43.1605
 20
23.7094
 11
-43.2811
 21
23.4225
  0
LINE
  8
0
 10
-43.2811
 20
23.4225
 11
-43.4553
 21
23.1647
  0
LINE
  8
0
 10
-43.4553
 20
23.1647
 11
-43.6765
 21
22.9458
  0
LINE
  8
0
 10
-43.6765
 20
22.9458
 11
-43.9362
 21
22.7742
  0
LINE
  8
0
 10
-43.9362
 20
22.7742
 11
-44.2243
 21
22.6566
  0
LINE
  8
0
 10
-44.2243
 20
22.6566
 11
-44.5298
 21
22.5975
  0
LINE
  8
0
 10
-44.5298
 20
22.5975
 11
-44.841
 21
22.5991
  0
LINE
  8
0
 10
44.2243
 20
22.6566
 11
43.9362
 21
22.7742
  0
LINE
  8
0
 10
43.9362
 20
22.7742
 11
43.6765
 21
22.9458
  0
LINE
  8
0
 10
43.6765
 20
22.9458
 11
43.4553
 21
23.1647
  0
LINE
  8
0
 10
43.4553
 20
23.1647
 11
43.2811
 21
23.4225
  0
LINE
  8
0
 10
43.2811
 20
23.4225
 11
43.1605
 21
23.7094
  0
LINE
  8
0
 10
43.1605
 20
23.7094
 11
43.0982
 21
24.0144
  0
LINE
  8
0
 10
43.0982
 20
24.0144
 11
43.0966
 21
24.3256
  0
LINE
  8
0
 10
43.0966
 20
24.3256
 11
43.1558
 21
24.6311
  0
LINE
  8
0
 10
43.1558
 20
24.6311
 11
43.2734
 21
24.9192
  0
LINE
  8
0
 10
43.2734
 20
24.9192
 11
43.4449
 21
25.1789
  0
LINE
  8
0
 10
43.4449
 20
25.1789
 11
43.6638
 21
25.4001
  0
LINE
  8
0
 10
43.6638
 20
25.4001
 11
43.9217
 21
25.5743
  0
LINE
  8
0
 10
43.9217
 20
25.5743
 11
44.2086
 21
25.6949
  0
LINE
  8
0
 10
44.2086
 20
25.6949
 11
44.5135
 21
25.7572
  0
LINE
  8
0
 10
44.5135
 20
25.7572
 11
44.8247
 21
25.7588
  0
LINE
  8
0
 10
44.8247
 20
25.7588
 11
45.1302
 21
25.6996
  0
LINE
  8
0
 10
45.1302
 20
25.6996
 11
45.4184
 21
25.582
  0
LINE
  8
0
 10
45.4184
 20
25.582
 11
45.678
 21
25.4105
  0
LINE
  8
0
 10
45.678
 20
25.4105
 11
45.8992
 21
25.1915
  0
LINE
  8
0
 10
45.8992
 20
25.1915
 11
46.0734
 21
24.9337
  0
LINE
  8
0
 10
46.0734
 20
24.9337
 11
46.194
 21
24.6468
  0
LINE
  8
0
 10
46.194
 20
24.6468
 11
46.2563
 21
24.3419
  0
LINE
  8
0
 10
46.2563
 20
24.3419
 11
46.2579
 21
24.0307
  0
LINE
  8
0
 10
46.2579
 20
24.0307
 11
46.1988
 21
23.7251
  0
LINE
  8
0
 10
46.1988
 20
23.7251
 11
46.0812
 21
23.437
  0
LINE
  8
0
 10
46.0812
 20
23.437
 11
45.9096
 21
23.1774
  0
LINE
  8
0
 10
45.9096
 20
23.1774
 11
45.6907
 21
22.9562
  0
LINE
  8
0
 10
45.6907
 20
22.9562
 11
45.4328
 21
22.782
  0
LINE
  8
0
 10
45.4328
 20
22.782
 11
45.1459
 21
22.6614
  0
LINE
  8
0
 10
45.1459
 20
22.6614
 11
44.841
 21
22.5991
  0
LINE
  8
0
 10
44.841
 20
22.5991
 11
44.5298
 21
22.5975
  0
LINE
  8
0
 10
44.5298
 20
22.5975
 11
44.2243
 21
22.6566
  0
LINE
  8
0
 10
47.6419
 20
14.9599
 11
47.3503
 21
15.0685
  0
LINE
  8
0
 10
47.3503
 20
15.0685
 11
47.0854
 21
15.2319
  0
LINE
  8
0
 10
47.0854
 20
15.2319
 11
46.8576
 21
15.4439
  0
LINE
  8
0
 10
46.8576
 20
15.4439
 11
46.6754
 21
15.6962
  0
LINE
  8
0
 10
46.6754
 20
15.6962
 11
46.546
 21
15.9793
  0
LINE
  8
0
 10
46.546
 20
15.9793
 11
46.4743
 21
16.2821
  0
LINE
  8
0
 10
46.4743
 20
16.2821
 11
46.4631
 21
16.5931
  0
LINE
  8
0
 10
46.4631
 20
16.5931
 11
46.5127
 21
16.9003
  0
LINE
  8
0
 10
46.5127
 20
16.9003
 11
46.6213
 21
17.192
  0
LINE
  8
0
 10
46.6213
 20
17.192
 11
46.7847
 21
17.4568
  0
LINE
  8
0
 10
46.7847
 20
17.4568
 11
46.9967
 21
17.6847
  0
LINE
  8
0
 10
46.9967
 20
17.6847
 11
47.249
 21
17.8668
  0
LINE
  8
0
 10
47.249
 20
17.8668
 11
47.532
 21
17.9962
  0
LINE
  8
0
 10
47.532
 20
17.9962
 11
47.8349
 21
18.0679
  0
LINE
  8
0
 10
47.8349
 20
18.0679
 11
48.1459
 21
18.0792
  0
LINE
  8
0
 10
48.1459
 20
18.0792
 11
48.4531
 21
18.0295
  0
LINE
  8
0
 10
48.4531
 20
18.0295
 11
48.7447
 21
17.9209
  0
LINE
  8
0
 10
48.7447
 20
17.9209
 11
49.0096
 21
17.7575
  0
LINE
  8
0
 10
49.0096
 20
17.7575
 11
49.2374
 21
17.5455
  0
LINE
  8
0
 10
49.2374
 20
17.5455
 11
49.4196
 21
17.2932
  0
LINE
  8
0
 10
49.4196
 20
17.2932
 11
49.549
 21
17.0102
  0
LINE
  8
0
 10
49.549
 20
17.0102
 11
49.6207
 21
16.7074
  0
LINE
  8
0
 10
49.6207
 20
16.7074
 11
49.632
 21
16.3964
  0
LINE
  8
0
 10
49.632
 20
16.3964
 11
49.5823
 21
16.0891
  0
LINE
  8
0
 10
49.5823
 20
16.0891
 11
49.4737
 21
15.7975
  0
LINE
  8
0
 10
49.4737
 20
15.7975
 11
49.3103
 21
15.5327
  0
LINE
  8
0
 10
49.3103
 20
15.5327
 11
49.0983
 21
15.3048
  0
LINE
  8
0
 10
49.0983
 20
15.3048
 11
48.846
 21
15.1227
  0
LINE
  8
0
 10
48.846
 20
15.1227
 11
48.563
 21
14.9932
  0
LINE
  8
0
 10
48.563
 20
14.9932
 11
48.2601
 21
14.9215
  0
LINE
  8
0
 10
48.2601
 20
14.9215
 11
47.9491
 21
14.9103
  0
LINE
  8
0
 10
47.9491
 20
14.9103
 11
47.6419
 21
14.9599
  0
LINE
  8
0
 10
-48.2601
 20
14.9215
 11
-48.563
 21
14.9932
  0
LINE
  8
0
 10
-48.563
 20
14.9932
 11
-48.846
 21
15.1227
  0
LINE
  8
0
 10
-48.846
 20
15.1227
 11
-49.0983
 21
15.3048
  0
LINE
  8
0
 10
-49.0983
 20
15.3048
 11
-49.3103
 21
15.5327
  0
LINE
  8
0
 10
-49.3103
 20
15.5327
 11
-49.4737
 21
15.7975
  0
LINE
  8
0
 10
-49.4737
 20
15.7975
 11
-49.5823
 21
16.0891
  0
LINE
  8
0
 10
-49.5823
 20
16.0891
 11
-49.632
 21
16.3964
  0
LINE
  8
0
 10
-49.632
 20
16.3964
 11
-49.6207
 21
16.7074
  0
LINE
  8
0
 10
-49.6207
 20
16.7074
 11
-49.549
 21
17.0102
  0
LINE
  8
0
 10
-49.549
 20
17.0102
 11
-49.4196
 21
17.2932
  0
LINE
  8
0
 10
-49.4196
 20
17.2932
 11
-49.2374
 21
17.5455
  0
LINE
  8
0
 10
-49.2374
 20
17.5455
 11
-49.0096
 21
17.7575
  0
LINE
  8
0
 10
-49.0096
 20
17.7575
 11
-48.7447
 21
17.9209
  0
LINE
  8
0
 10
-48.7447
 20
17.9209
 11
-48.4531
 21
18.0295
  0
LINE
  8
0
 10
-48.4531
 20
18.0295
 11
-48.1459
 21
18.0792
  0
LINE
  8
0
 10
-48.1459
 20
18.0792
 11
-47.8349
 21
18.0679
  0
LINE
  8
0
 10
-47.8349
 20
18.0679
 11
-47.532
 21
17.9962
  0
LINE
  8
0
 10
-47.532
 20
17.9962
 11
-47.249
 21
17.8668
  0
LINE
  8
0
 10
-47.249
 20
17.8668
 11
-46.9967
 21
17.6847
  0
LINE
  8
0
 10
-46.9967
 20
17.6847
 11
-46.7847
 21
17.4568
  0
LINE
  8
0
 10
-46.7847
 20
17.4568
 11
-46.6213
 21
17.192
  0
LINE
  8
0
 10
-46.6213
 20
17.192
 11
-46.5127
 21
16.9003
  0
LINE
  8
0
 10
-46.5127
 20
16.9003
 11
-46.4631
 21
16.5931
  0
LINE
  8
0
 10
-46.4631
 20
16.5931
 11
-46.4743
 21
16.2821
  0
LINE
  8
0
 10
-46.4743
 20
16.2821
 11
-46.546
 21
15.9793
  0
LINE
  8
0
 10
-46.546
 20
15.9793
 11
-46.6754
 21
15.6962
  0
LINE
  8
0
 10
-46.6754
 20
15.6962
 11
-46.8576
 21
15.4439
  0
LINE
  8
0
 10
-46.8576
 20
15.4439
 11
-47.0854
 21
15.2319
  0
LINE
  8
0
 10
-47.0854
 20
15.2319
 11
-47.3503
 21
15.0685
  0
LINE
  8
0
 10
-47.3503
 20
15.0685
 11
-47.6419
 21
14.9599
  0
LINE
  8
0
 10
-47.6419
 20
14.9599
 11
-47.9491
 21
14.9103
  0
LINE
  8
0
 10
-47.9491
 20
14.9103
 11
-48.2601
 21
14.9215
  0
LINE
  8
0
 10
-50.3684
 20
6.79555
 11
-50.6689
 21
6.87662
  0
LINE
  8
0
 10
-50.6689
 20
6.87662
 11
-50.9478
 21
7.01474
  0
LINE
  8
0
 10
-50.9478
 20
7.01474
 11
-51.1943
 21
7.20461
  0
LINE
  8
0
 10
-51.1943
 20
7.20461
 11
-51.3991
 21
7.43893
  0
LINE
  8
0
 10
-51.3991
 20
7.43893
 11
-51.5543
 21
7.70871
  0
LINE
  8
0
 10
-51.5543
 20
7.70871
 11
-51.6538
 21
8.00357
  0
LINE
  8
0
 10
-51.6538
 20
8.00357
 11
-51.6939
 21
8.31219
  0
LINE
  8
0
 10
-51.6939
 20
8.31219
 11
-51.673
 21
8.6227
  0
LINE
  8
0
 10
-51.673
 20
8.6227
 11
-51.5919
 21
8.92316
  0
LINE
  8
0
 10
-51.5919
 20
8.92316
 11
-51.4538
 21
9.20203
  0
LINE
  8
0
 10
-51.4538
 20
9.20203
 11
-51.2639
 21
9.44859
  0
LINE
  8
0
 10
-51.2639
 20
9.44859
 11
-51.0296
 21
9.65338
  0
LINE
  8
0
 10
-51.0296
 20
9.65338
 11
-50.7598
 21
9.80852
  0
LINE
  8
0
 10
-50.7598
 20
9.80852
 11
-50.465
 21
9.90805
  0
LINE
  8
0
 10
-50.465
 20
9.90805
 11
-50.1564
 21
9.94814
  0
LINE
  8
0
 10
-50.1564
 20
9.94814
 11
-49.8459
 21
9.92725
  0
LINE
  8
0
 10
-49.8459
 20
9.92725
 11
-49.5454
 21
9.84618
  0
LINE
  8
0
 10
-49.5454
 20
9.84618
 11
-49.2665
 21
9.70805
  0
LINE
  8
0
 10
-49.2665
 20
9.70805
 11
-49.0199
 21
9.51819
  0
LINE
  8
0
 10
-49.0199
 20
9.51819
 11
-48.8152
 21
9.28386
  0
LINE
  8
0
 10
-48.8152
 20
9.28386
 11
-48.66
 21
9.01408
  0
LINE
  8
0
 10
-48.66
 20
9.01408
 11
-48.5605
 21
8.71922
  0
LINE
  8
0
 10
-48.5605
 20
8.71922
 11
-48.5204
 21
8.4106
  0
LINE
  8
0
 10
-48.5204
 20
8.4106
 11
-48.5413
 21
8.1001
  0
LINE
  8
0
 10
-48.5413
 20
8.1001
 11
-48.6224
 21
7.79964
  0
LINE
  8
0
 10
-48.6224
 20
7.79964
 11
-48.7605
 21
7.52077
  0
LINE
  8
0
 10
-48.7605
 20
7.52077
 11
-48.9504
 21
7.2742
  0
LINE
  8
0
 10
-48.9504
 20
7.2742
 11
-49.1847
 21
7.06941
  0
LINE
  8
0
 10
-49.1847
 20
7.06941
 11
-49.4545
 21
6.91428
  0
LINE
  8
0
 10
-49.4545
 20
6.91428
 11
-49.7493
 21
6.81474
  0
LINE
  8
0
 10
-49.7493
 20
6.81474
 11
-50.0579
 21
6.77466
  0
LINE
  8
0
 10
-50.0579
 20
6.77466
 11
-50.3684
 21
6.79555
  0
LINE
  8
0
 10
49.7493
 20
6.81474
 11
49.4545
 21
6.91428
  0
LINE
  8
0
 10
49.4545
 20
6.91428
 11
49.1847
 21
7.06941
  0
LINE
  8
0
 10
49.1847
 20
7.06941
 11
48.9504
 21
7.2742
  0
LINE
  8
0
 10
48.9504
 20
7.2742
 11
48.7605
 21
7.52077
  0
LINE
  8
0
 10
48.7605
 20
7.52077
 11
48.6224
 21
7.79964
  0
LINE
  8
0
 10
48.6224
 20
7.79964
 11
48.5413
 21
8.1001
  0
LINE
  8
0
 10
48.5413
 20
8.1001
 11
48.5204
 21
8.4106
  0
LINE
  8
0
 10
48.5204
 20
8.4106
 11
48.5605
 21
8.71922
  0
LINE
  8
0
 10
48.5605
 20
8.71922
 11
48.66
 21
9.01408
  0
LINE
  8
0
 10
48.66
 20
9.01408
 11
48.8152
 21
9.28386
  0
LINE
  8
0
 10
48.8152
 20
9.28386
 11
49.0199
 21
9.51819
  0
LINE
  8
0
 10
49.0199
 20
9.51819
 11
49.2665
 21
9.70805
  0
LINE
  8
0
 10
49.2665
 20
9.70805
 11
49.5454
 21
9.84618
  0
LINE
  8
0
 10
49.5454
 20
9.84618
 11
49.8459
 21
9.92725
  0
LINE
  8
0
 10
49.8459
 20
9.92725
 11
50.1564
 21
9.94814
  0
LINE
  8
0
 10
50.1564
 20
9.94814
 11
50.465
 21
9.90805
  0
LINE
  8
0
 10
50.465
 20
9.90805
 11
50.7598
 21
9.80852
  0
LINE
  8
0
 10
50.7598
 20
9.80852
 11
51.0296
 21
9.65338
  0
LINE
  8
0
 10
51.0296
 20
9.65338
 11
51.2639
 21
9.44859
  0
LINE
  8
0
 10
51.2639
 20
9.44859
 11
51.4538
 21
9.20203
  0
LINE
  8
0
 10
51.4538
 20
9.20203
 11
51.5919
 21
8.92316
  0
LINE
  8
0
 10
51.5919
 20
8.92316
 11
51.673
 21
8.6227
  0
LINE
  8
0
 10
51.673
 20
8.6227
 11
51.6939
 21
8.31219
  0
LINE
  8
0
 10
51.6939
 20
8.31219
 11
51.6538
 21
8.00357
  0
LINE
  8
0
 10
51.6538
 20
8.00357
 11
51.5543
 21
7.70871
  0
LINE
  8
0
 10
51.5543
 20
7.70871
 11
51.3991
 21
7.43893
  0
LINE
  8
0
 10
51.3991
 20
7.43893
 11
51.1943
 21
7.20461
  0
LINE
  8
0
 10
51.1943
 20
7.20461
 11
50.9478
 21
7.01474
  0
LINE
  8
0
 10
50.9478
 20
7.01474
 11
50.6689
 21
6.87662
  0
LINE
  8
0
 10
50.6689
 20
6.87662
 11
50.3684
 21
6.79555
  0
LINE
  8
0
 10
50.3684
 20
6.79555
 11
50.0579
 21
6.77466
  0
LINE
  8
0
 10
50.0579
 20
6.77466
 11
49.7493
 21
6.81474
  0
LINE
  8
0
 10
-51.1097
 20
-1.55699
 11
-51.4075
 21
-1.46664
  0
LINE
  8
0
 10
-51.4075
 20
-1.46664
 11
-51.682
 21
-1.31995
  0
LINE
  8
0
 10
-51.682
 20
-1.31995
 11
-51.9225
 21
-1.12253
  0
LINE
  8
0
 10
-51.9225
 20
-1.12253
 11
-52.1199
 21
-0.881958
  0
LINE
  8
0
 10
-52.1199
 20
-0.881958
 11
-52.2666
 21
-0.607498
  0
LINE
  8
0
 10
-52.2666
 20
-0.607498
 11
-52.357
 21
-0.309692
  0
LINE
  8
0
 10
-52.357
 20
-0.309692
 11
-52.3875
 21
0
  0
LINE
  8
0
 10
-52.3875
 20
0
 11
-52.357
 21
0.309692
  0
LINE
  8
0
 10
-52.357
 20
0.309692
 11
-52.2666
 21
0.607498
  0
LINE
  8
0
 10
-52.2666
 20
0.607498
 11
-52.1199
 21
0.881958
  0
LINE
  8
0
 10
-52.1199
 20
0.881958
 11
-51.9225
 21
1.12253
  0
LINE
  8
0
 10
-51.9225
 20
1.12253
 11
-51.682
 21
1.31995
  0
LINE
  8
0
 10
-51.682
 20
1.31995
 11
-51.4075
 21
1.46664
  0
LINE
  8
0
 10
-51.4075
 20
1.46664
 11
-51.1097
 21
1.55699
  0
LINE
  8
0
 10
-51.1097
 20
1.55699
 11
-50.8
 21
1.58749
  0
LINE
  8
0
 10
-50.8
 20
1.58749
 11
-50.4903
 21
1.55699
  0
LINE
  8
0
 10
-50.4903
 20
1.55699
 11
-50.1925
 21
1.46664
  0
LINE
  8
0
 10
-50.1925
 20
1.46664
 11
-49.918
 21
1.31995
  0
LINE
  8
0
 10
-49.918
 20
1.31995
 11
-49.6775
 21
1.12253
  0
LINE
  8
0
 10
-49.6775
 20
1.12253
 11
-49.48
 21
0.881958
  0
LINE
  8
0
 10
-49.48
 20
0.881958
 11
-49.3333
 21
0.607498
  0
LINE
  8
0
 10
-49.3333
 20
0.607498
 11
-49.243
 21
0.309692
  0
LINE
  8
0
 10
-49.243
 20
0.309692
 11
-49.2125
 21
0
  0
LINE
  8
0
 10
-49.2125
 20
0
 11
-49.243
 21
-0.309692
  0
LINE
  8
0
 10
-49.243
 20
-0.309692
 11
-49.3333
 21
-0.607498
  0
LINE
  8
0
 10
-49.3333
 20
-0.607498
 11
-49.48
 21
-0.881958
  0
LINE
  8
0
 10
-49.48
 20
-0.881958
 11
-49.6775
 21
-1.12253
  0
LINE
  8
0
 10
-49.6775
 20
-1.12253
 11
-49.918
 21
-1.31995
  0
LINE
  8
0
 10
-49.918
 20
-1.31995
 11
-50.1925
 21
-1.46664
  0
LINE
  8
0
 10
-50.1925
 20
-1.46664
 11
-50.4903
 21
-1.55699
  0
LINE
  8
0
 10
-50.4903
 20
-1.55699
 11
-50.8
 21
-1.58749
  0
LINE
  8
0
 10
-50.8
 20
-1.58749
 11
-51.1097
 21
-1.55699
  0
LINE
  8
0
 10
50.4903
 20
-1.55699
 11
50.1925
 21
-1.46664
  0
LINE
  8
0
 10
50.1925
 20
-1.46664
 11
49.918
 21
-1.31995
  0
LINE
  8
0
 10
49.918
 20
-1.31995
 11
49.6775
 21
-1.12253
  0
LINE
  8
0
 10
49.6775
 20
-1.12253
 11
49.48
 21
-0.881958
  0
LINE
  8
0
 10
49.48
 20
-0.881958
 11
49.3333
 21
-0.607498
  0
LINE
  8
0
 10
49.3333
 20
-0.607498
 11
49.243
 21
-0.309692
  0
LINE
  8
0
 10
49.243
 20
-0.309692
 11
49.2125
 21
0
  0
LINE
  8
0
 10
49.2125
 20
0
 11
49.243
 21
0.309692
  0
LINE
  8
0
 10
49.243
 20
0.309692
 11
49.3333
 21
0.607498
  0
LINE
  8
0
 10
49.3333
 20
0.607498
 11
49.48
 21
0.881958
  0
LINE
  8
0
 10
49.48
 20
0.881958
 11
49.6775
 21
1.12253
  0
LINE
  8
0
 10
49.6775
 20
1.12253
 11
49.918
 21
1.31995
  0
LINE
  8
0
 10
49.918
 20
1.31995
 11
50.1925
 21
1.46664
  0
LINE
  8
0
 10
50.1925
 20
1.46664
 11
50.4903
 21
1.55699
  0
LINE
  8
0
 10
50.4903
 20
1.55699
 11
50.8
 21
1.58749
  0
LINE
  8
0
 10
50.8
 20
1.58749
 11
51.1097
 21
1.55699
  0
LINE
  8
0
 10
51.1097
 20
1.55699
 11
51.4075
 21
1.46664
  0
LINE
  8
0
 10
51.4075
 20
1.46664
 11
51.682
 21
1.31995
  0
LINE
  8
0
 10
51.682
 20
1.31995
 11
51.9225
 21
1.12253
  0
LINE
  8
0
 10
51.9225
 20
1.12253
 11
52.1199
 21
0.881958
  0
LINE
  8
0
 10
52.1199
 20
0.881958
 11
52.2666
 21
0.607498
  0
LINE
  8
0
 10
52.2666
 20
0.607498
 11
52.357
 21
0.309692
  0
LINE
  8
0
 10
52.357
 20
0.309692
 11
52.3875
 21
0
  0
LINE
  8
0
 10
52.3875
 20
0
 11
52.357
 21
-0.309692
  0
LINE
  8
0
 10
52.357
 20
-0.309692
 11
52.2666
 21
-0.607498
  0
LINE
  8
0
 10
52.2666
 20
-0.607498
 11
52.1199
 21
-0.881958
  0
LINE
  8
0
 10
52.1199
 20
-0.881958
 11
51.9225
 21
-1.12253
  0
LINE
  8
0
 10
51.9225
 20
-1.12253
 11
51.682
 21
-1.31995
  0
LINE
  8
0
 10
51.682
 20
-1.31995
 11
51.4075
 21
-1.46664
  0
LINE
  8
0
 10
51.4075
 20
-1.46664
 11
51.1097
 21
-1.55699
  0
LINE
  8
0
 10
51.1097
 20
-1.55699
 11
50.8
 21
-1.58749
  0
LINE
  8
0
 10
50.8
 20
-1.58749
 11
50.4903
 21
-1.55699
  0
LINE
  8
0
 10
-50.465
 20
-9.90805
 11
-50.7598
 21
-9.80852
  0
LINE
  8
0
 10
-50.7598
 20
-9.80852
 11
-51.0296
 21
-9.65338
  0
LINE
  8
0
 10
-51.0296
 20
-9.65338
 11
-51.2639
 21
-9.44859
  0
LINE
  8
0
 10
-51.2639
 20
-9.44859
 11
-51.4538
 21
-9.20203
  0
LINE
  8
0
 10
-51.4538
 20
-9.20203
 11
-51.5919
 21
-8.92316
  0
LINE
  8
0
 10
-51.5919
 20
-8.92316
 11
-51.673
 21
-8.6227
  0
LINE
  8
0
 10
-51.673
 20
-8.6227
 11
-51.6939
 21
-8.31219
  0
LINE
  8
0
 10
-51.6939
 20
-8.31219
 11
-51.6538
 21
-8.00357
  0
LINE
  8
0
 10
-51.6538
 20
-8.00357
 11
-51.5543
 21
-7.70871
  0
LINE
  8
0
 10
-51.5543
 20
-7.70871
 11
-51.3991
 21
-7.43893
  0
LINE
  8
0
 10
-51.3991
 20
-7.43893
 11
-51.1943
 21
-7.20461
  0
LINE
  8
0
 10
-51.1943
 20
-7.20461
 11
-50.9478
 21
-7.01474
  0
LINE
  8
0
 10
-50.9478
 20
-7.01474
 11
-50.6689
 21
-6.87662
  0
LINE
  8
0
 10
-50.6689
 20
-6.87662
 11
-50.3684
 21
-6.79555
  0
LINE
  8
0
 10
-50.3684
 20
-6.79555
 11
-50.0579
 21
-6.77466
  0
LINE
  8
0
 10
-50.0579
 20
-6.77466
 11
-49.7493
 21
-6.81474
  0
LINE
  8
0
 10
-49.7493
 20
-6.81474
 11
-49.4545
 21
-6.91428
  0
LINE
  8
0
 10
-49.4545
 20
-6.91428
 11
-49.1847
 21
-7.06941
  0
LINE
  8
0
 10
-49.1847
 20
-7.06941
 11
-48.9504
 21
-7.2742
  0
LINE
  8
0
 10
-48.9504
 20
-7.2742
 11
-48.7605
 21
-7.52077
  0
LINE
  8
0
 10
-48.7605
 20
-7.52077
 11
-48.6224
 21
-7.79964
  0
LINE
  8
0
 10
-48.6224
 20
-7.79964
 11
-48.5413
 21
-8.1001
  0
LINE
  8
0
 10
-48.5413
 20
-8.1001
 11
-48.5204
 21
-8.4106
  0
LINE
  8
0
 10
-48.5204
 20
-8.4106
 11
-48.5605
 21
-8.71922
  0
LINE
  8
0
 10
-48.5605
 20
-8.71922
 11
-48.66
 21
-9.01408
  0
LINE
  8
0
 10
-48.66
 20
-9.01408
 11
-48.8152
 21
-9.28386
  0
LINE
  8
0
 10
-48.8152
 20
-9.28386
 11
-49.0199
 21
-9.51819
  0
LINE
  8
0
 10
-49.0199
 20
-9.51819
 11
-49.2665
 21
-9.70805
  0
LINE
  8
0
 10
-49.2665
 20
-9.70805
 11
-49.5454
 21
-9.84618
  0
LINE
  8
0
 10
-49.5454
 20
-9.84618
 11
-49.8459
 21
-9.92725
  0
LINE
  8
0
 10
-49.8459
 20
-9.92725
 11
-50.1564
 21
-9.94814
  0
LINE
  8
0
 10
-50.1564
 20
-9.94814
 11
-50.465
 21
-9.90805
  0
LINE
  8
0
 10
49.8459
 20
-9.92725
 11
49.5454
 21
-9.84618
  0
LINE
  8
0
 10
49.5454
 20
-9.84618
 11
49.2665
 21
-9.70805
  0
LINE
  8
0
 10
49.2665
 20
-9.70805
 11
49.0199
 21
-9.51819
  0
LINE
  8
0
 10
49.0199
 20
-9.51819
 11
48.8152
 21
-9.28386
  0
LINE
  8
0
 10
48.8152
 20
-9.28386
 11
48.66
 21
-9.01408
  0
LINE
  8
0
 10
48.66
 20
-9.01408
 11
48.5605
 21
-8.71922
  0
LINE
  8
0
 10
48.5605
 20
-8.71922
 11
48.5204
 21
-8.4106
  0
LINE
  8
0
 10
48.5204
 20
-8.4106
 11
48.5413
 21
-8.1001
  0
LINE
  8
0
 10
48.5413
 20
-8.1001
 11
48.6224
 21
-7.79964
  0
LINE
  8
0
 10
48.6224
 20
-7.79964
 11
48.7605
 21
-7.52077
  0
LINE
  8
0
 10
48.7605
 20
-7.52077
 11
48.9504
 21
-7.2742
  0
LINE
  8
0
 10
48.9504
 20
-7.2742
 11
49.1847
 21
-7.06941
  0
LINE
  8
0
 10
49.1847
 20
-7.06941
 11
49.4545
 21
-6.91428
  0
LINE
  8
0
 10
49.4545
 20
-6.91428
 11
49.7493
 21
-6.81474
  0
LINE
  8
0
 10
49.7493
 20
-6.81474
 11
50.0579
 21
-6.77466
  0
LINE
  8
0
 10
50.0579
 20
-6.77466
 11
50.3684
 21
-6.79555
  0
LINE
  8
0
 10
50.3684
 20
-6.79555
 11
50.6689
 21
-6.87662
  0
LINE
  8
0
 10
50.6689
 20
-6.87662
 11
50.9478
 21
-7.01474
  0
LINE
  8
0
 10
50.9478
 20
-7.01474
 11
51.1943
 21
-7.20461
  0
LINE
  8
0
 10
51.1943
 20
-7.20461
 11
51.3991
 21
-7.43893
  0
LINE
  8
0
 10
51.3991
 20
-7.43893
 11
51.5543
 21
-7.70871
  0
LINE
  8
0
 10
51.5543
 20
-7.70871
 11
51.6538
 21
-8.00357
  0
LINE
  8
0
 10
51.6538
 20
-8.00357
 11
51.6939
 21
-8.31219
  0
LINE
  8
0
 10
51.6939
 20
-8.31219
 11
51.673
 21
-8.6227
  0
LINE
  8
0
 10
51.673
 20
-8.6227
 11
51.5919
 21
-8.92316
  0
LINE
  8
0
 10
51.5919
 20
-8.92316
 11
51.4538
 21
-9.20203
  0
LINE
  8
0
 10
51.4538
 20
-9.20203
 11
51.2639
 21
-9.44859
  0
LINE
  8
0
 10
51.2639
 20
-9.44859
 11
51.0296
 21
-9.65338
  0
LINE
  8
0
 10
51.0296
 20
-9.65338
 11
50.7598
 21
-9.80852
  0
LINE
  8
0
 10
50.7598
 20
-9.80852
 11
50.465
 21
-9.90805
  0
LINE
  8
0
 10
50.465
 20
-9.90805
 11
50.1564
 21
-9.94814
  0
LINE
  8
0
 10
50.1564
 20
-9.94814
 11
49.8459
 21
-9.92725
  0
LINE
  8
0
 10
47.8349
 20
-18.0679
 11
47.532
 21
-17.9962
  0
LINE
  8
0
 10
47.532
 20
-17.9962
 11
47.249
 21
-17.8668
  0
LINE
  8
0
 10
47.249
 20
-17.8668
 11
46.9967
 21
-17.6847
  0
LINE
  8
0
 10
46.9967
 20
-17.6847
 11
46.7847
 21
-17.4568
  0
LINE
  8
0
 10
46.7847
 20
-17.4568
 11
46.6213
 21
-17.192
  0
LINE
  8
0
 10
46.6213
 20
-17.192
 11
46.5127
 21
-16.9003
  0
LINE
  8
0
 10
46.5127
 20
-16.9003
 11
46.4631
 21
-16.5931
  0
LINE
  8
0
 10
46.4631
 20
-16.5931
 11
46.4743
 21
-16.2821
  0
LINE
  8
0
 10
46.4743
 20
-16.2821
 11
46.546
 21
-15.9793
  0
LINE
  8
0
 10
46.546
 20
-15.9793
 11
46.6754
 21
-15.6962
  0
LINE
  8
0
 10
46.6754
 20
-15.6962
 11
46.8576
 21
-15.4439
  0
LINE
  8
0
 10
46.8576
 20
-15.4439
 11
47.0854
 21
-15.2319
  0
LINE
  8
0
 10
47.0854
 20
-15.2319
 11
47.3503
 21
-15.0685
  0
LINE
  8
0
 10
47.3503
 20
-15.0685
 11
47.6419
 21
-14.9599
  0
LINE
  8
0
 10
47.6419
 20
-14.9599
 11
47.9491
 21
-14.9103
  0
LINE
  8
0
 10
47.9491
 20
-14.9103
 11
48.2601
 21
-14.9215
  0
LINE
  8
0
 10
48.2601
 20
-14.9215
 11
48.563
 21
-14.9932
  0
LINE
  8
0
 10
48.563
 20
-14.9932
 11
48.846
 21
-15.1227
  0
LINE
  8
0
 10
48.846
 20
-15.1227
 11
49.0983
 21
-15.3048
  0
LINE
  8
0
 10
49.0983
 20
-15.3048
 11
49.3103
 21
-15.5327
  0
LINE
  8
0
 10
49.3103
 20
-15.5327
 11
49.4737
 21
-15.7975
  0
LINE
  8
0
 10
49.4737
 20
-15.7975
 11
49.5823
 21
-16.0891
  0
LINE
  8
0
 10
49.5823
 20
-16.0891
 11
49.632
 21
-16.3964
  0
LINE
  8
0
 10
49.632
 20
-16.3964
 11
49.6207
 21
-16.7074
  0
LINE
  8
0
 10
49.6207
 20
-16.7074
 11
49.549
 21
-17.0102
  0
LINE
  8
0
 10
49.549
 20
-17.0102
 11
49.4196
 21
-17.2932
  0
LINE
  8
0
 10
49.4196
 20
-17.2932
 11
49.2374
 21
-17.5455
  0
LINE
  8
0
 10
49.2374
 20
-17.5455
 11
49.0096
 21
-17.7575
  0
LINE
  8
0
 10
49.0096
 20
-17.7575
 11
48.7447
 21
-17.9209
  0
LINE
  8
0
 10
48.7447
 20
-17.9209
 11
48.4531
 21
-18.0295
  0
LINE
  8
0
 10
48.4531
 20
-18.0295
 11
48.1459
 21
-18.0792
  0
LINE
  8
0
 10
48.1459
 20
-18.0792
 11
47.8349
 21
-18.0679
  0
LINE
  8
0
 10
-48.4531
 20
-18.0295
 11
-48.7447
 21
-17.9209
  0
LINE
  8
0
 10
-48.7447
 20
-17.9209
 11
-49.0096
 21
-17.7575
  0
LINE
  8
0
 10
-49.0096
 20
-17.7575
 11
-49.2374
 21
-17.5455
  0
LINE
  8
0
 10
-49.2374
 20
-17.5455
 11
-49.4196
 21
-17.2932
  0
LINE
  8
0
 10
-49.4196
 20
-17.2932
 11
-49.549
 21
-17.0102
  0
LINE
  8
0
 10
-49.549
 20
-17.0102
 11
-49.6207
 21
-16.7074
  0
LINE
  8
0
 10
-49.6207
 20
-16.7074
 11
-49.632
 21
-16.3964
  0
LINE
  8
0
 10
-49.632
 20
-16.3964
 11
-49.5823
 21
-16.0891
  0
LINE
  8
0
 10
-49.5823
 20
-16.0891
 11
-49.4737
 21
-15.7975
  0
LINE
  8
0
 10
-49.4737
 20
-15.7975
 11
-49.3103
 21
-15.5327
  0
LINE
  8
0
 10
-49.3103
 20
-15.5327
 11
-49.0983
 21
-15.3048
  0
LINE
  8
0
 10
-49.0983
 20
-15.3048
 11
-48.846
 21
-15.1227
  0
LINE
  8
0
 10
-48.846
 20
-15.1227
 11
-48.563
 21
-14.9932
  0
LINE
  8
0
 10
-48.563
 20
-14.9932
 11
-48.2601
 21
-14.9215
  0
LINE
  8
0
 10
-48.2601
 20
-14.9215
 11
-47.9491
 21
-14.9103
  0
LINE
  8
0
 10
-47.9491
 20
-14.9103
 11
-47.6419
 21
-14.9599
  0
LINE
  8
0
 10
-47.6419
 20
-14.9599
 11
-47.3503
 21
-15.0685
  0
LINE
  8
0
 10
-47.3503
 20
-15.0685
 11
-47.0854
 21
-15.2319
  0
LINE
  8
0
 10
-47.0854
 20
-15.2319
 11
-46.8576
 21
-15.4439
  0
LINE
  8
0
 10
-46.8576
 20
-15.4439
 11
-46.6754
 21
-15.6962
  0
LINE
  8
0
 10
-46.6754
 20
-15.6962
 11
-46.546
 21
-15.9793
  0
LINE
  8
0
 10
-46.546
 20
-15.9793
 11
-46.4743
 21
-16.2821
  0
LINE
  8
0
 10
-46.4743
 20
-16.2821
 11
-46.4631
 21
-16.5931
  0
LINE
  8
0
 10
-46.4631
 20
-16.5931
 11
-46.5127
 21
-16.9003
  0
LINE
  8
0
 10
-46.5127
 20
-16.9003
 11
-46.6213
 21
-17.192
  0
LINE
  8
0
 10
-46.6213
 20
-17.192
 11
-46.7847
 21
-17.4568
  0
LINE
  8
0
 10
-46.7847
 20
-17.4568
 11
-46.9967
 21
-17.6847
  0
LINE
  8
0
 10
-46.9967
 20
-17.6847
 11
-47.249
 21
-17.8668
  0
LINE
  8
0
 10
-47.249
 20
-17.8668
 11
-47.532
 21
-17.9962
  0
LINE
  8
0
 10
-47.532
 20
-17.9962
 11
-47.8349
 21
-18.0679
  0
LINE
  8
0
 10
-47.8349
 20
-18.0679
 11
-48.1459
 21
-18.0792
  0
LINE
  8
0
 10
-48.1459
 20
-18.0792
 11
-48.4531
 21
-18.0295
  0
LINE
  8
0
 10
-45.1302
 20
-25.6996
 11
-45.4184
 21
-25.582
  0
LINE
  8
0
 10
-45.4184
 20
-25.582
 11
-45.678
 21
-25.4105
  0
LINE
  8
0
 10
-45.678
 20
-25.4105
 11
-45.8992
 21
-25.1915
  0
LINE
  8
0
 10
-45.8992
 20
-25.1915
 11
-46.0734
 21
-24.9337
  0
LINE
  8
0
 10
-46.0734
 20
-24.9337
 11
-46.194
 21
-24.6468
  0
LINE
  8
0
 10
-46.194
 20
-24.6468
 11
-46.2563
 21
-24.3419
  0
LINE
  8
0
 10
-46.2563
 20
-24.3419
 11
-46.2579
 21
-24.0307
  0
LINE
  8
0
 10
-46.2579
 20
-24.0307
 11
-46.1988
 21
-23.7251
  0
LINE
  8
0
 10
-46.1988
 20
-23.7251
 11
-46.0812
 21
-23.437
  0
LINE
  8
0
 10
-46.0812
 20
-23.437
 11
-45.9096
 21
-23.1774
  0
LINE
  8
0
 10
-45.9096
 20
-23.1774
 11
-45.6907
 21
-22.9562
  0
LINE
  8
0
 10
-45.6907
 20
-22.9562
 11
-45.4328
 21
-22.782
  0
LINE
  8
0
 10
-45.4328
 20
-22.782
 11
-45.1459
 21
-22.6614
  0
LINE
  8
0
 10
-45.1459
 20
-22.6614
 11
-44.841
 21
-22.5991
  0
LINE
  8
0
 10
-44.841
 20
-22.5991
 11
-44.5298
 21
-22.5975
  0
LINE
  8
0
 10
-44.5298
 20
-22.5975
 11
-44.2243
 21
-22.6566
  0
LINE
  8
0
 10
-44.2243
 20
-22.6566
 11
-43.9362
 21
-22.7742
  0
LINE
  8
0
 10
-43.9362
 20
-22.7742
 11
-43.6765
 21
-22.9458
  0
LINE
  8
0
 10
-43.6765
 20
-22.9458
 11
-43.4553
 21
-23.1647
  0
LINE
  8
0
 10
-43.4553
 20
-23.1647
 11
-43.2811
 21
-23.4225
  0
LINE
  8
0
 10
-43.2811
 20
-23.4225
 11
-43.1605
 21
-23.7094
  0
LINE
  8
0
 10
-43.1605
 20
-23.7094
 11
-43.0982
 21
-24.0144
  0
LINE
  8
0
 10
-43.0982
 20
-24.0144
 11
-43.0966
 21
-24.3256
  0
LINE
  8
0
 10
-43.0966
 20
-24.3256
 11
-43.1558
 21
-24.6311
  0
LINE
  8
0
 10
-43.1558
 20
-24.6311
 11
-43.2734
 21
-24.9192
  0
LINE
  8
0
 10
-43.2734
 20
-24.9192
 11
-43.4449
 21
-25.1789
  0
LINE
  8
0
 10
-43.4449
 20
-25.1789
 11
-43.6638
 21
-25.4001
  0
LINE
  8
0
 10
-43.6638
 20
-25.4001
 11
-43.9217
 21
-25.5743
  0
LINE
  8
0
 10
-43.9217
 20
-25.5743
 11
-44.2086
 21
-25.6949
  0
LINE
  8
0
 10
-44.2086
 20
-25.6949
 11
-44.5135
 21
-25.7572
  0
LINE
  8
0
 10
-44.5135
 20
-25.7572
 11
-44.8247
 21
-25.7588
  0
LINE
  8
0
 10
-44.8247
 20
-25.7588
 11
-45.1302
 21
-25.6996
  0
LINE
  8
0
 10
44.5135
 20
-25.7572
 11
44.2086
 21
-25.6949
  0
LINE
  8
0
 10
44.2086
 20
-25.6949
 11
43.9217
 21
-25.5743
  0
LINE
  8
0
 10
43.9217
 20
-25.5743
 11
43.6638
 21
-25.4001
  0
LINE
  8
0
 10
43.6638
 20
-25.4001
 11
43.4449
 21
-25.1789
  0
LINE
  8
0
 10
43.4449
 20
-25.1789
 11
43.2734
 21
-24.9192
  0
LINE
  8
0
 10
43.2734
 20
-24.9192
 11
43.1558
 21
-24.6311
  0
LINE
  8
0
 10
43.1558
 20
-24.6311
 11
43.0966
 21
-24.3256
  0
LINE
  8
0
 10
43.0966
 20
-24.3256
 11
43.0982
 21
-24.0144
  0
LINE
  8
0
 10
43.0982
 20
-24.0144
 11
43.1605
 21
-23.7094
  0
LINE
  8
0
 10
43.1605
 20
-23.7094
 11
43.2811
 21
-23.4225
  0
LINE
  8
0
 10
43.2811
 20
-23.4225
 11
43.4553
 21
-23.1647
  0
LINE
  8
0
 10
43.4553
 20
-23.1647
 11
43.6765
 21
-22.9458
  0
LINE
  8
0
 10
43.6765
 20
-22.9458
 11
43.9362
 21
-22.7742
  0
LINE
  8
0
 10
43.9362
 20
-22.7742
 11
44.2243
 21
-22.6566
  0
LINE
  8
0
 10
44.2243
 20
-22.6566
 11
44.5298
 21
-22.5975
  0
LINE
  8
0
 10
44.5298
 20
-22.5975
 11
44.841
 21
-22.5991
  0
LINE
  8
0
 10
44.841
 20
-22.5991
 11
45.1459
 21
-22.6614
  0
LINE
  8
0
 10
45.1459
 20
-22.6614
 11
45.4328
 21
-22.782
  0
LINE
  8
0
 10
45.4328
 20
-22.782
 11
45.6907
 21
-22.9562
  0
LINE
  8
0
 10
45.6907
 20
-22.9562
 11
45.9096
 21
-23.1774
  0
LINE
  8
0
 10
45.9096
 20
-23.1774
 11
46.0812
 21
-23.437
  0
LINE
  8
0
 10
46.0812
 20
-23.437
 11
46.1988
 21
-23.7251
  0
LINE
  8
0
 10
46.1988
 20
-23.7251
 11
46.2579
 21
-24.0307
  0
LINE
  8
0
 10
46.2579
 20
-24.0307
 11
46.2563
 21
-24.3419
  0
LINE
  8
0
 10
46.2563
 20
-24.3419
 11
46.194
 21
-24.6468
  0
LINE
  8
0
 10
46.194
 20
-24.6468
 11
46.0734
 21
-24.9337
  0
LINE
  8
0
 10
46.0734
 20
-24.9337
 11
45.8992
 21
-25.1915
  0
LINE
  8
0
 10
45.8992
 20
-25.1915
 11
45.678
 21
-25.4105
  0
LINE
  8
0
 10
45.678
 20
-25.4105
 11
45.4184
 21
-25.582
  0
LINE
  8
0
 10
45.4184
 20
-25.582
 11
45.1302
 21
-25.6996
  0
LINE
  8
0
 10
45.1302
 20
-25.6996
 11
44.8247
 21
-25.7588
  0
LINE
  8
0
 10
44.8247
 20
-25.7588
 11
44.5135
 21
-25.7572
  0
LINE
  8
0
 10
39.6669
 20
-32.7325
 11
39.3764
 21
-32.6209
  0
LINE
  8
0
 10
39.3764
 20
-32.6209
 11
39.1133
 21
-32.4548
  0
LINE
  8
0
 10
39.1133
 20
-32.4548
 11
38.8876
 21
-32.2405
  0
LINE
  8
0
 10
38.8876
 20
-32.2405
 11
38.7081
 21
-31.9863
  0
LINE
  8
0
 10
38.7081
 20
-31.9863
 11
38.5816
 21
-31.7019
  0
LINE
  8
0
 10
38.5816
 20
-31.7019
 11
38.513
 21
-31.3984
  0
LINE
  8
0
 10
38.513
 20
-31.3984
 11
38.505
 21
-31.0873
  0
LINE
  8
0
 10
38.505
 20
-31.0873
 11
38.5578
 21
-30.7806
  0
LINE
  8
0
 10
38.5578
 20
-30.7806
 11
38.6694
 21
-30.4901
  0
LINE
  8
0
 10
38.6694
 20
-30.4901
 11
38.8356
 21
-30.2269
  0
LINE
  8
0
 10
38.8356
 20
-30.2269
 11
39.0499
 21
-30.0013
  0
LINE
  8
0
 10
39.0499
 20
-30.0013
 11
39.3041
 21
-29.8217
  0
LINE
  8
0
 10
39.3041
 20
-29.8217
 11
39.5884
 21
-29.6953
  0
LINE
  8
0
 10
39.5884
 20
-29.6953
 11
39.892
 21
-29.6267
  0
LINE
  8
0
 10
39.892
 20
-29.6267
 11
40.2031
 21
-29.6187
  0
LINE
  8
0
 10
40.2031
 20
-29.6187
 11
40.5098
 21
-29.6715
  0
LINE
  8
0
 10
40.5098
 20
-29.6715
 11
40.8003
 21
-29.7831
  0
LINE
  8
0
 10
40.8003
 20
-29.7831
 11
41.0634
 21
-29.9492
  0
LINE
  8
0
 10
41.0634
 20
-29.9492
 11
41.2891
 21
-30.1635
  0
LINE
  8
0
 10
41.2891
 20
-30.1635
 11
41.4686
 21
-30.4177
  0
LINE
  8
0
 10
41.4686
 20
-30.4177
 11
41.5951
 21
-30.7021
  0
LINE
  8
0
 10
41.5951
 20
-30.7021
 11
41.6636
 21
-31.0056
  0
LINE
  8
0
 10
41.6636
 20
-31.0056
 11
41.6717
 21
-31.3167
  0
LINE
  8
0
 10
41.6717
 20
-31.3167
 11
41.6189
 21
-31.6234
  0
LINE
  8
0
 10
41.6189
 20
-31.6234
 11
41.5072
 21
-31.9139
  0
LINE
  8
0
 10
41.5072
 20
-31.9139
 11
41.3411
 21
-32.1771
  0
LINE
  8
0
 10
41.3411
 20
-32.1771
 11
41.1268
 21
-32.4027
  0
LINE
  8
0
 10
41.1268
 20
-32.4027
 11
40.8726
 21
-32.5822
  0
LINE
  8
0
 10
40.8726
 20
-32.5822
 11
40.5882
 21
-32.7087
  0
LINE
  8
0
 10
40.5882
 20
-32.7087
 11
40.2847
 21
-32.7773
  0
LINE
  8
0
 10
40.2847
 20
-32.7773
 11
39.9736
 21
-32.7853
  0
LINE
  8
0
 10
39.9736
 20
-32.7853
 11
39.6669
 21
-32.7325
  0
LINE
  8
0
 10
-40.2847
 20
-32.7773
 11
-40.5882
 21
-32.7087
  0
LINE
  8
0
 10
-40.5882
 20
-32.7087
 11
-40.8726
 21
-32.5822
  0
LINE
  8
0
 10
-40.8726
 20
-32.5822
 11
-41.1268
 21
-32.4027
  0
LINE
  8
0
 10
-41.1268
 20
-32.4027
 11
-41.3411
 21
-32.1771
  0
LINE
  8
0
 10
-41.3411
 20
-32.1771
 11
-41.5072
 21
-31.9139
  0
LINE
  8
0
 10
-41.5072
 20
-31.9139
 11
-41.6189
 21
-31.6234
  0
LINE
  8
0
 10
-41.6189
 20
-31.6234
 11
-41.6717
 21
-31.3167
  0
LINE
  8
0
 10
-41.6717
 20
-31.3167
 11
-41.6636
 21
-31.0056
  0
LINE
  8
0
 10
-41.6636
 20
-31.0056
 11
-41.5951
 21
-30.7021
  0
LINE
  8
0
 10
-41.5951
 20
-30.7021
 11
-41.4686
 21
-30.4177
  0
LINE
  8
0
 10
-41.4686
 20
-30.4177
 11
-41.2891
 21
-30.1635
  0
LINE
  8
0
 10
-41.2891
 20
-30.1635
 11
-41.0634
 21
-29.9492
  0
LINE
  8
0
 10
-41.0634
 20
-29.9492
 11
-40.8003
 21
-29.7831
  0
LINE
  8
0
 10
-40.8003
 20
-29.7831
 11
-40.5098
 21
-29.6715
  0
LINE
  8
0
 10
-40.5098
 20
-29.6715
 11
-40.2031
 21
-29.6187
  0
LINE
  8
0
 10
-40.2031
 20
-29.6187
 11
-39.892
 21
-29.6267
  0
LINE
  8
0
 10
-39.892
 20
-29.6267
 11
-39.5884
 21
-29.6953
  0
LINE
  8
0
 10
-39.5884
 20
-29.6953
 11
-39.3041
 21
-29.8217
  0
LINE
  8
0
 10
-39.3041
 20
-29.8217
 11
-39.0499
 21
-30.0013
  0
LINE
  8
0
 10
-39.0499
 20
-30.0013
 11
-38.8356
 21
-30.2269
  0
LINE
  8
0
 10
-38.8356
 20
-30.2269
 11
-38.6694
 21
-30.4901
  0
LINE
  8
0
 10
-38.6694
 20
-30.4901
 11
-38.5578
 21
-30.7806
  0
LINE
  8
0
 10
-38.5578
 20
-30.7806
 11
-38.505
 21
-31.0873
  0
LINE
  8
0
 10
-38.505
 20
-31.0873
 11
-38.513
 21
-31.3984
  0
LINE
  8
0
 10
-38.513
 20
-31.3984
 11
-38.5816
 21
-31.7019
  0
LINE
  8
0
 10
-38.5816
 20
-31.7019
 11
-38.7081
 21
-31.9863
  0
LINE
  8
0
 10
-38.7081
 20
-31.9863
 11
-38.8876
 21
-32.2405
  0
LINE
  8
0
 10
-38.8876
 20
-32.2405
 11
-39.1133
 21
-32.4548
  0
LINE
  8
0
 10
-39.1133
 20
-32.4548
 11
-39.3764
 21
-32.6209
  0
LINE
  8
0
 10
-39.3764
 20
-32.6209
 11
-39.6669
 21
-32.7325
  0
LINE
  8
0
 10
-39.6669
 20
-32.7325
 11
-39.9736
 21
-32.7853
  0
LINE
  8
0
 10
-39.9736
 20
-32.7853
 11
-40.2847
 21
-32.7773
  0
LINE
  8
0
 10
-34.651
 20
-38.9432
 11
-34.9523
 21
-38.8653
  0
LINE
  8
0
 10
-34.9523
 20
-38.8653
 11
-35.2326
 21
-38.73
  0
LINE
  8
0
 10
-35.2326
 20
-38.73
 11
-35.4811
 21
-38.5427
  0
LINE
  8
0
 10
-35.4811
 20
-38.5427
 11
-35.6883
 21
-38.3105
  0
LINE
  8
0
 10
-35.6883
 20
-38.3105
 11
-35.8462
 21
-38.0424
  0
LINE
  8
0
 10
-35.8462
 20
-38.0424
 11
-35.9488
 21
-37.7486
  0
LINE
  8
0
 10
-35.9488
 20
-37.7486
 11
-35.992
 21
-37.4404
  0
LINE
  8
0
 10
-35.992
 20
-37.4404
 11
-35.9744
 21
-37.1297
  0
LINE
  8
0
 10
-35.9744
 20
-37.1297
 11
-35.8964
 21
-36.8284
  0
LINE
  8
0
 10
-35.8964
 20
-36.8284
 11
-35.7612
 21
-36.5481
  0
LINE
  8
0
 10
-35.7612
 20
-36.5481
 11
-35.5739
 21
-36.2996
  0
LINE
  8
0
 10
-35.5739
 20
-36.2996
 11
-35.3417
 21
-36.0924
  0
LINE
  8
0
 10
-35.3417
 20
-36.0924
 11
-35.0735
 21
-35.9345
  0
LINE
  8
0
 10
-35.0735
 20
-35.9345
 11
-34.7797
 21
-35.8319
  0
LINE
  8
0
 10
-34.7797
 20
-35.8319
 11
-34.4715
 21
-35.7886
  0
LINE
  8
0
 10
-34.4715
 20
-35.7886
 11
-34.1608
 21
-35.8063
  0
LINE
  8
0
 10
-34.1608
 20
-35.8063
 11
-33.8595
 21
-35.8843
  0
LINE
  8
0
 10
-33.8595
 20
-35.8843
 11
-33.5792
 21
-36.0195
  0
LINE
  8
0
 10
-33.5792
 20
-36.0195
 11
-33.3307
 21
-36.2068
  0
LINE
  8
0
 10
-33.3307
 20
-36.2068
 11
-33.1235
 21
-36.439
  0
LINE
  8
0
 10
-33.1235
 20
-36.439
 11
-32.9656
 21
-36.7072
  0
LINE
  8
0
 10
-32.9656
 20
-36.7072
 11
-32.863
 21
-37.001
  0
LINE
  8
0
 10
-32.863
 20
-37.001
 11
-32.8197
 21
-37.3092
  0
LINE
  8
0
 10
-32.8197
 20
-37.3092
 11
-32.8374
 21
-37.6199
  0
LINE
  8
0
 10
-32.8374
 20
-37.6199
 11
-32.9154
 21
-37.9211
  0
LINE
  8
0
 10
-32.9154
 20
-37.9211
 11
-33.0506
 21
-38.2014
  0
LINE
  8
0
 10
-33.0506
 20
-38.2014
 11
-33.2379
 21
-38.45
  0
LINE
  8
0
 10
-33.2379
 20
-38.45
 11
-33.4701
 21
-38.6572
  0
LINE
  8
0
 10
-33.4701
 20
-38.6572
 11
-33.7383
 21
-38.8151
  0
LINE
  8
0
 10
-33.7383
 20
-38.8151
 11
-34.0321
 21
-38.9176
  0
LINE
  8
0
 10
-34.0321
 20
-38.9176
 11
-34.3403
 21
-38.9609
  0
LINE
  8
0
 10
-34.3403
 20
-38.9609
 11
-34.651
 21
-38.9432
  0
LINE
  8
0
 10
34.0321
 20
-38.9176
 11
33.7383
 21
-38.8151
  0
LINE
  8
0
 10
33.7383
 20
-38.8151
 11
33.4701
 21
-38.6572
  0
LINE
  8
0
 10
33.4701
 20
-38.6572
 11
33.2379
 21
-38.45
  0
LINE
  8
0
 10
33.2379
 20
-38.45
 11
33.0506
 21
-38.2014
  0
LINE
  8
0
 10
33.0506
 20
-38.2014
 11
32.9154
 21
-37.9211
  0
LINE
  8
0
 10
32.9154
 20
-37.9211
 11
32.8374
 21
-37.6199
  0
LINE
  8
0
 10
32.8374
 20
-37.6199
 11
32.8197
 21
-37.3092
  0
LINE
  8
0
 10
32.8197
 20
-37.3092
 11
32.863
 21
-37.001
  0
LINE
  8
0
 10
32.863
 20
-37.001
 11
32.9656
 21
-36.7072
  0
LINE
  8
0
 10
32.9656
 20
-36.7072
 11
33.1235
 21
-36.439
  0
LINE
  8
0
 10
33.1235
 20
-36.439
 11
33.3307
 21
-36.2068
  0
LINE
  8
0
 10
33.3307
 20
-36.2068
 11
33.5792
 21
-36.0195
  0
LINE
  8
0
 10
33.5792
 20
-36.0195
 11
33.8595
 21
-35.8843
  0
LINE
  8
0
 10
33.8595
 20
-35.8843
 11
34.1608
 21
-35.8063
  0
LINE
  8
0
 10
34.1608
 20
-35.8063
 11
34.4715
 21
-35.7886
  0
LINE
  8
0
 10
34.4715
 20
-35.7886
 11
34.7797
 21
-35.8319
  0
LINE
  8
0
 10
34.7797
 20
-35.8319
 11
35.0735
 21
-35.9345
  0
LINE
  8
0
 10
35.0735
 20
-35.9345
 11
35.3417
 21
-36.0924
  0
LINE
  8
0
 10
35.3417
 20
-36.0924
 11
35.5739
 21
-36.2996
  0
LINE
  8
0
 10
35.5739
 20
-36.2996
 11
35.7612
 21
-36.5481
  0
LINE
  8
0
 10
35.7612
 20
-36.5481
 11
35.8964
 21
-36.8284
  0
LINE
  8
0
 10
35.8964
 20
-36.8284
 11
35.9744
 21
-37.1297
  0
LINE
  8
0
 10
35.9744
 20
-37.1297
 11
35.992
 21
-37.4404
  0
LINE
  8
0
 10
35.992
 20
-37.4404
 11
35.9488
 21
-37.7486
  0
LINE
  8
0
 10
35.9488
 20
-37.7486
 11
35.8462
 21
-38.0424
  0
LINE
  8
0
 10
35.8462
 20
-38.0424
 11
35.6883
 21
-38.3105
  0
LINE
  8
0
 10
35.6883
 20
-38.3105
 11
35.4811
 21
-38.5427
  0
LINE
  8
0
 10
35.4811
 20
-38.5427
 11
35.2326
 21
-38.73
  0
LINE
  8
0
 10
35.2326
 20
-38.73
 11
34.9523
 21
-38.8653
  0
LINE
  8
0
 10
34.9523
 20
-38.8653
 11
34.651
 21
-38.9432
  0
LINE
  8
0
 10
34.651
 20
-38.9432
 11
34.3403
 21
-38.9609
  0
LINE
  8
0
 10
34.3403
 20
-38.9609
 11
34.0321
 21
-38.9176
  0
LINE
  8
0
 10
-28.0786
 20
-44.0882
 11
-28.3773
 21
-44.0009
  0
LINE
  8
0
 10
-28.3773
 20
-44.0009
 11
-28.6532
 21
-43.8571
  0
LINE
  8
0
 10
-28.6532
 20
-43.8571
 11
-28.8958
 21
-43.6621
  0
LINE
  8
0
 10
-28.8958
 20
-43.6621
 11
-29.0957
 21
-43.4236
  0
LINE
  8
0
 10
-29.0957
 20
-43.4236
 11
-29.2453
 21
-43.1507
  0
LINE
  8
0
 10
-29.2453
 20
-43.1507
 11
-29.3387
 21
-42.8538
  0
LINE
  8
0
 10
-29.3387
 20
-42.8538
 11
-29.3724
 21
-42.5444
  0
LINE
  8
0
 10
-29.3724
 20
-42.5444
 11
-29.3451
 21
-42.2345
  0
LINE
  8
0
 10
-29.3451
 20
-42.2345
 11
-29.2578
 21
-41.9357
  0
LINE
  8
0
 10
-29.2578
 20
-41.9357
 11
-29.114
 21
-41.6598
  0
LINE
  8
0
 10
-29.114
 20
-41.6598
 11
-28.919
 21
-41.4172
  0
LINE
  8
0
 10
-28.919
 20
-41.4172
 11
-28.6805
 21
-41.2173
  0
LINE
  8
0
 10
-28.6805
 20
-41.2173
 11
-28.4076
 21
-41.0677
  0
LINE
  8
0
 10
-28.4076
 20
-41.0677
 11
-28.1107
 21
-40.9743
  0
LINE
  8
0
 10
-28.1107
 20
-40.9743
 11
-27.8014
 21
-40.9406
  0
LINE
  8
0
 10
-27.8014
 20
-40.9406
 11
-27.4914
 21
-40.9679
  0
LINE
  8
0
 10
-27.4914
 20
-40.9679
 11
-27.1926
 21
-41.0552
  0
LINE
  8
0
 10
-27.1926
 20
-41.0552
 11
-26.9167
 21
-41.1991
  0
LINE
  8
0
 10
-26.9167
 20
-41.1991
 11
-26.6741
 21
-41.394
  0
LINE
  8
0
 10
-26.6741
 20
-41.394
 11
-26.4742
 21
-41.6325
  0
LINE
  8
0
 10
-26.4742
 20
-41.6325
 11
-26.3247
 21
-41.9054
  0
LINE
  8
0
 10
-26.3247
 20
-41.9054
 11
-26.2312
 21
-42.2023
  0
LINE
  8
0
 10
-26.2312
 20
-42.2023
 11
-26.1975
 21
-42.5116
  0
LINE
  8
0
 10
-26.1975
 20
-42.5116
 11
-26.2248
 21
-42.8217
  0
LINE
  8
0
 10
-26.2248
 20
-42.8217
 11
-26.3121
 21
-43.1204
  0
LINE
  8
0
 10
-26.3121
 20
-43.1204
 11
-26.456
 21
-43.3963
  0
LINE
  8
0
 10
-26.456
 20
-43.3963
 11
-26.6509
 21
-43.6389
  0
LINE
  8
0
 10
-26.6509
 20
-43.6389
 11
-26.8894
 21
-43.8388
  0
LINE
  8
0
 10
-26.8894
 20
-43.8388
 11
-27.1623
 21
-43.9884
  0
LINE
  8
0
 10
-27.1623
 20
-43.9884
 11
-27.4592
 21
-44.0818
  0
LINE
  8
0
 10
-27.4592
 20
-44.0818
 11
-27.7686
 21
-44.1155
  0
LINE
  8
0
 10
-27.7686
 20
-44.1155
 11
-28.0786
 21
-44.0882
  0
LINE
  8
0
 10
27.4592
 20
-44.0818
 11
27.1623
 21
-43.9884
  0
LINE
  8
0
 10
27.1623
 20
-43.9884
 11
26.8894
 21
-43.8388
  0
LINE
  8
0
 10
26.8894
 20
-43.8388
 11
26.6509
 21
-43.6389
  0
LINE
  8
0
 10
26.6509
 20
-43.6389
 11
26.456
 21
-43.3963
  0
LINE
  8
0
 10
26.456
 20
-43.3963
 11
26.3121
 21
-43.1204
  0
LINE
  8
0
 10
26.3121
 20
-43.1204
 11
26.2248
 21
-42.8217
  0
LINE
  8
0
 10
26.2248
 20
-42.8217
 11
26.1975
 21
-42.5116
  0
LINE
  8
0
 10
26.1975
 20
-42.5116
 11
26.2312
 21
-42.2023
  0
LINE
  8
0
 10
26.2312
 20
-42.2023
 11
26.3247
 21
-41.9054
  0
LINE
  8
0
 10
26.3247
 20
-41.9054
 11
26.4742
 21
-41.6325
  0
LINE
  8
0
 10
26.4742
 20
-41.6325
 11
26.6741
 21
-41.394
  0
LINE
  8
0
 10
26.6741
 20
-41.394
 11
26.9167
 21
-41.1991
  0
LINE
  8
0
 10
26.9167
 20
-41.1991
 11
27.1926
 21
-41.0552
  0
LINE
  8
0
 10
27.1926
 20
-41.0552
 11
27.4914
 21
-40.9679
  0
LINE
  8
0
 10
27.4914
 20
-40.9679
 11
27.8014
 21
-40.9406
  0
LINE
  8
0
 10
27.8014
 20
-40.9406
 11
28.1107
 21
-40.9743
  0
LINE
  8
0
 10
28.1107
 20
-40.9743
 11
28.4076
 21
-41.0677
  0
LINE
  8
0
 10
28.4076
 20
-41.0677
 11
28.6805
 21
-41.2173
  0
LINE
  8
0
 10
28.6805
 20
-41.2173
 11
28.919
 21
-41.4172
  0
LINE
  8
0
 10
28.919
 20
-41.4172
 11
29.114
 21
-41.6598
  0
LINE
  8
0
 10
29.114
 20
-41.6598
 11
29.2578
 21
-41.9357
  0
LINE
  8
0
 10
29.2578
 20
-41.9357
 11
29.3451
 21
-42.2345
  0
LINE
  8
0
 10
29.3451
 20
-42.2345
 11
29.3724
 21
-42.5444
  0
LINE
  8
0
 10
29.3724
 20
-42.5444
 11
29.3387
 21
-42.8538
  0
LINE
  8
0
 10
29.3387
 20
-42.8538
 11
29.2453
 21
-43.1507
  0
LINE
  8
0
 10
29.2453
 20
-43.1507
 11
29.0957
 21
-43.4236
  0
LINE
  8
0
 10
29.0957
 20
-43.4236
 11
28.8958
 21
-43.6621
  0
LINE
  8
0
 10
28.8958
 20
-43.6621
 11
28.6532
 21
-43.8571
  0
LINE
  8
0
 10
28.6532
 20
-43.8571
 11
28.3773
 21
-44.0009
  0
LINE
  8
0
 10
28.3773
 20
-44.0009
 11
28.0786
 21
-44.0882
  0
LINE
  8
0
 10
28.0786
 20
-44.0882
 11
27.7686
 21
-44.1155
  0
LINE
  8
0
 10
27.7686
 20
-44.1155
 11
27.4592
 21
-44.0818
  0
LINE
  8
0
 10
-20.7479
 20
-48.0715
 11
-21.0438
 21
-47.9751
  0
LINE
  8
0
 10
-21.0438
 20
-47.9751
 11
-21.3152
 21
-47.8227
  0
LINE
  8
0
 10
-21.3152
 20
-47.8227
 11
-21.5516
 21
-47.6204
  0
LINE
  8
0
 10
-21.5516
 20
-47.6204
 11
-21.744
 21
-47.3758
  0
LINE
  8
0
 10
-21.744
 20
-47.3758
 11
-21.885
 21
-47.0983
  0
LINE
  8
0
 10
-21.885
 20
-47.0983
 11
-21.9692
 21
-46.7987
  0
LINE
  8
0
 10
-21.9692
 20
-46.7987
 11
-21.9933
 21
-46.4885
  0
LINE
  8
0
 10
-21.9933
 20
-46.4885
 11
-21.9564
 21
-46.1795
  0
LINE
  8
0
 10
-21.9564
 20
-46.1795
 11
-21.8599
 21
-45.8836
  0
LINE
  8
0
 10
-21.8599
 20
-45.8836
 11
-21.7076
 21
-45.6122
  0
LINE
  8
0
 10
-21.7076
 20
-45.6122
 11
-21.5052
 21
-45.3758
  0
LINE
  8
0
 10
-21.5052
 20
-45.3758
 11
-21.2606
 21
-45.1834
  0
LINE
  8
0
 10
-21.2606
 20
-45.1834
 11
-20.9832
 21
-45.0424
  0
LINE
  8
0
 10
-20.9832
 20
-45.0424
 11
-20.6836
 21
-44.9582
  0
LINE
  8
0
 10
-20.6836
 20
-44.9582
 11
-20.3733
 21
-44.9341
  0
LINE
  8
0
 10
-20.3733
 20
-44.9341
 11
-20.0643
 21
-44.971
  0
LINE
  8
0
 10
-20.0643
 20
-44.971
 11
-19.7684
 21
-45.0675
  0
LINE
  8
0
 10
-19.7684
 20
-45.0675
 11
-19.4971
 21
-45.2198
  0
LINE
  8
0
 10
-19.4971
 20
-45.2198
 11
-19.2606
 21
-45.4222
  0
LINE
  8
0
 10
-19.2606
 20
-45.4222
 11
-19.0682
 21
-45.6668
  0
LINE
  8
0
 10
-19.0682
 20
-45.6668
 11
-18.9272
 21
-45.9442
  0
LINE
  8
0
 10
-18.9272
 20
-45.9442
 11
-18.843
 21
-46.2438
  0
LINE
  8
0
 10
-18.843
 20
-46.2438
 11
-18.819
 21
-46.5541
  0
LINE
  8
0
 10
-18.819
 20
-46.5541
 11
-18.8559
 21
-46.8631
  0
LINE
  8
0
 10
-18.8559
 20
-46.8631
 11
-18.9523
 21
-47.159
  0
LINE
  8
0
 10
-18.9523
 20
-47.159
 11
-19.1047
 21
-47.4303
  0
LINE
  8
0
 10
-19.1047
 20
-47.4303
 11
-19.307
 21
-47.6668
  0
LINE
  8
0
 10
-19.307
 20
-47.6668
 11
-19.5516
 21
-47.8592
  0
LINE
  8
0
 10
-19.5516
 20
-47.8592
 11
-19.8291
 21
-48.0002
  0
LINE
  8
0
 10
-19.8291
 20
-48.0002
 11
-20.1287
 21
-48.0843
  0
LINE
  8
0
 10
-20.1287
 20
-48.0843
 11
-20.4389
 21
-48.1084
  0
LINE
  8
0
 10
-20.4389
 20
-48.1084
 11
-20.7479
 21
-48.0715
  0
LINE
  8
0
 10
20.1287
 20
-48.0843
 11
19.8291
 21
-48.0002
  0
LINE
  8
0
 10
19.8291
 20
-48.0002
 11
19.5516
 21
-47.8592
  0
LINE
  8
0
 10
19.5516
 20
-47.8592
 11
19.307
 21
-47.6668
  0
LINE
  8
0
 10
19.307
 20
-47.6668
 11
19.1047
 21
-47.4303
  0
LINE
  8
0
 10
19.1047
 20
-47.4303
 11
18.9523
 21
-47.159
  0
LINE
  8
0
 10
18.9523
 20
-47.159
 11
18.8559
 21
-46.8631
  0
LINE
  8
0
 10
18.8559
 20
-46.8631
 11
18.819
 21
-46.5541
  0
LINE
  8
0
 10
18.819
 20
-46.5541
 11
18.843
 21
-46.2438
  0
LINE
  8
0
 10
18.843
 20
-46.2438
 11
18.9272
 21
-45.9442
  0
LINE
  8
0
 10
18.9272
 20
-45.9442
 11
19.0682
 21
-45.6668
  0
LINE
  8
0
 10
19.0682
 20
-45.6668
 11
19.2606
 21
-45.4222
  0
LINE
  8
0
 10
19.2606
 20
-45.4222
 11
19.4971
 21
-45.2198
  0
LINE
  8
0
 10
19.4971
 20
-45.2198
 11
19.7684
 21
-45.0675
  0
LINE
  8
0
 10
19.7684
 20
-45.0675
 11
20.0643
 21
-44.971
  0
LINE
  8
0
 10
20.0643
 20
-44.971
 11
20.3733
 21
-44.9341
  0
LINE
  8
0
 10
20.3733
 20
-44.9341
 11
20.6836
 21
-44.9582
  0
LINE
  8
0
 10
20.6836
 20
-44.9582
 11
20.9832
 21
-45.0424
  0
LINE
  8
0
 10
20.9832
 20
-45.0424
 11
21.2606
 21
-45.1834
  0
LINE
  8
0
 10
21.2606
 20
-45.1834
 11
21.5052
 21
-45.3758
  0
LINE
  8
0
 10
21.5052
 20
-45.3758
 11
21.7076
 21
-45.6122
  0
LINE
  8
0
 10
21.7076
 20
-45.6122
 11
21.8599
 21
-45.8836
  0
LINE
  8
0
 10
21.8599
 20
-45.8836
 11
21.9564
 21
-46.1795
  0
LINE
  8
0
 10
21.9564
 20
-46.1795
 11
21.9933
 21
-46.4885
  0
LINE
  8
0
 10
21.9933
 20
-46.4885
 11
21.9692
 21
-46.7987
  0
LINE
  8
0
 10
21.9692
 20
-46.7987
 11
21.885
 21
-47.0983
  0
LINE
  8
0
 10
21.885
 20
-47.0983
 11
21.744
 21
-47.3758
  0
LINE
  8
0
 10
21.744
 20
-47.3758
 11
21.5516
 21
-47.6204
  0
LINE
  8
0
 10
21.5516
 20
-47.6204
 11
21.3152
 21
-47.8227
  0
LINE
  8
0
 10
21.3152
 20
-47.8227
 11
21.0438
 21
-47.9751
  0
LINE
  8
0
 10
21.0438
 20
-47.9751
 11
20.7479
 21
-48.0715
  0
LINE
  8
0
 10
20.7479
 20
-48.0715
 11
20.4389
 21
-48.1084
  0
LINE
  8
0
 10
20.4389
 20
-48.1084
 11
20.1287
 21
-48.0843
  0
LINE
  8
0
 10
-12.8604
 20
-50.7845
 11
-13.1531
 21
-50.6788
  0
LINE
  8
0
 10
-13.1531
 20
-50.6788
 11
-13.4196
 21
-50.5182
  0
LINE
  8
0
 10
-13.4196
 20
-50.5182
 11
-13.6497
 21
-50.3086
  0
LINE
  8
0
 10
-13.6497
 20
-50.3086
 11
-13.8344
 21
-50.0581
  0
LINE
  8
0
 10
-13.8344
 20
-50.0581
 11
-13.9667
 21
-49.7765
  0
LINE
  8
0
 10
-13.9667
 20
-49.7765
 11
-14.0416
 21
-49.4744
  0
LINE
  8
0
 10
-14.0416
 20
-49.4744
 11
-14.056
 21
-49.1635
  0
LINE
  8
0
 10
-14.056
 20
-49.1635
 11
-14.0096
 21
-48.8558
  0
LINE
  8
0
 10
-14.0096
 20
-48.8558
 11
-13.904
 21
-48.5631
  0
LINE
  8
0
 10
-13.904
 20
-48.5631
 11
-13.7433
 21
-48.2966
  0
LINE
  8
0
 10
-13.7433
 20
-48.2966
 11
-13.5337
 21
-48.0665
  0
LINE
  8
0
 10
-13.5337
 20
-48.0665
 11
-13.2833
 21
-47.8818
  0
LINE
  8
0
 10
-13.2833
 20
-47.8818
 11
-13.0016
 21
-47.7495
  0
LINE
  8
0
 10
-13.0016
 20
-47.7495
 11
-12.6995
 21
-47.6746
  0
LINE
  8
0
 10
-12.6995
 20
-47.6746
 11
-12.3887
 21
-47.6601
  0
LINE
  8
0
 10
-12.3887
 20
-47.6601
 11
-12.0809
 21
-47.7066
  0
LINE
  8
0
 10
-12.0809
 20
-47.7066
 11
-11.7882
 21
-47.8122
  0
LINE
  8
0
 10
-11.7882
 20
-47.8122
 11
-11.5217
 21
-47.9729
  0
LINE
  8
0
 10
-11.5217
 20
-47.9729
 11
-11.2916
 21
-48.1825
  0
LINE
  8
0
 10
-11.2916
 20
-48.1825
 11
-11.1069
 21
-48.4329
  0
LINE
  8
0
 10
-11.1069
 20
-48.4329
 11
-10.9746
 21
-48.7146
  0
LINE
  8
0
 10
-10.9746
 20
-48.7146
 11
-10.8997
 21
-49.0166
  0
LINE
  8
0
 10
-10.8997
 20
-49.0166
 11
-10.8853
 21
-49.3275
  0
LINE
  8
0
 10
-10.8853
 20
-49.3275
 11
-10.9317
 21
-49.6352
  0
LINE
  8
0
 10
-10.9317
 20
-49.6352
 11
-11.0373
 21
-49.928
  0
LINE
  8
0
 10
-11.0373
 20
-49.928
 11
-11.198
 21
-50.1945
  0
LINE
  8
0
 10
-11.198
 20
-50.1945
 11
-11.4076
 21
-50.4245
  0
LINE
  8
0
 10
-11.4076
 20
-50.4245
 11
-11.658
 21
-50.6093
  0
LINE
  8
0
 10
-11.658
 20
-50.6093
 11
-11.9397
 21
-50.7416
  0
LINE
  8
0
 10
-11.9397
 20
-50.7416
 11
-12.2418
 21
-50.8164
  0
LINE
  8
0
 10
-12.2418
 20
-50.8164
 11
-12.5526
 21
-50.8309
  0
LINE
  8
0
 10
-12.5526
 20
-50.8309
 11
-12.8604
 21
-50.7845
  0
LINE
  8
0
 10
12.2418
 20
-50.8164
 11
11.9397
 21
-50.7416
  0
LINE
  8
0
 10
11.9397
 20
-50.7416
 11
11.658
 21
-50.6093
  0
LINE
  8
0
 10
11.658
 20
-50.6093
 11
11.4076
 21
-50.4245
  0
LINE
  8
0
 10
11.4076
 20
-50.4245
 11
11.198
 21
-50.1945
  0
LINE
  8
0
 10
11.198
 20
-50.1945
 11
11.0373
 21
-49.928
  0
LINE
  8
0
 10
11.0373
 20
-49.928
 11
10.9317
 21
-49.6352
  0
LINE
  8
0
 10
10.9317
 20
-49.6352
 11
10.8853
 21
-49.3275
  0
LINE
  8
0
 10
10.8853
 20
-49.3275
 11
10.8997
 21
-49.0166
  0
LINE
  8
0
 10
10.8997
 20
-49.0166
 11
10.9746
 21
-48.7146
  0
LINE
  8
0
 10
10.9746
 20
-48.7146
 11
11.1069
 21
-48.4329
  0
LINE
  8
0
 10
11.1069
 20
-48.4329
 11
11.2916
 21
-48.1825
  0
LINE
  8
0
 10
11.2916
 20
-48.1825
 11
11.5217
 21
-47.9729
  0
LINE
  8
0
 10
11.5217
 20
-47.9729
 11
11.7882
 21
-47.8122
  0
LINE
  8
0
 10
11.7882
 20
-47.8122
 11
12.0809
 21
-47.7066
  0
LINE
  8
0
 10
12.0809
 20
-47.7066
 11
12.3887
 21
-47.6601
  0
LINE
  8
0
 10
12.3887
 20
-47.6601
 11
12.6995
 21
-47.6746
  0
LINE
  8
0
 10
12.6995
 20
-47.6746
 11
13.0016
 21
-47.7495
  0
LINE
  8
0
 10
13.0016
 20
-47.7495
 11
13.2833
 21
-47.8818
  0
LINE
  8
0
 10
13.2833
 20
-47.8818
 11
13.5337
 21
-48.0665
  0
LINE
  8
0
 10
13.5337
 20
-48.0665
 11
13.7433
 21
-48.2966
  0
LINE
  8
0
 10
13.7433
 20
-48.2966
 11
13.904
 21
-48.5631
  0
LINE
  8
0
 10
13.904
 20
-48.5631
 11
14.0096
 21
-48.8558
  0
LINE
  8
0
 10
14.0096
 20
-48.8558
 11
14.056
 21
-49.1635
  0
LINE
  8
0
 10
14.056
 20
-49.1635
 11
14.0416
 21
-49.4744
  0
LINE
  8
0
 10
14.0416
 20
-49.4744
 11
13.9667
 21
-49.7765
  0
LINE
  8
0
 10
13.9667
 20
-49.7765
 11
13.8344
 21
-50.0581
  0
LINE
  8
0
 10
13.8344
 20
-50.0581
 11
13.6497
 21
-50.3086
  0
LINE
  8
0
 10
13.6497
 20
-50.3086
 11
13.4196
 21
-50.5182
  0
LINE
  8
0
 10
13.4196
 20
-50.5182
 11
13.1531
 21
-50.6788
  0
LINE
  8
0
 10
13.1531
 20
-50.6788
 11
12.8604
 21
-50.7845
  0
LINE
  8
0
 10
12.8604
 20
-50.7845
 11
12.5526
 21
-50.8309
  0
LINE
  8
0
 10
12.5526
 20
-50.8309
 11
12.2418
 21
-50.8164
  0
LINE
  8
0
 10
4.01495
 20
-52.2037
 11
3.71071
 21
-52.1383
  0
LINE
  8
0
 10
3.71071
 20
-52.1383
 11
3.42506
 21
-52.0148
  0
LINE
  8
0
 10
3.42506
 20
-52.0148
 11
3.16902
 21
-51.8379
  0
LINE
  8
0
 10
3.16902
 20
-51.8379
 11
2.95241
 21
-51.6144
  0
LINE
  8
0
 10
2.95241
 20
-51.6144
 11
2.78354
 21
-51.353
  0
LINE
  8
0
 10
2.78354
 20
-51.353
 11
2.66891
 21
-51.0637
  0
LINE
  8
0
 10
2.66891
 20
-51.0637
 11
2.61295
 21
-50.7576
  0
LINE
  8
0
 10
2.61295
 20
-50.7576
 11
2.61777
 21
-50.4464
  0
LINE
  8
0
 10
2.61777
 20
-50.4464
 11
2.68321
 21
-50.1422
  0
LINE
  8
0
 10
2.68321
 20
-50.1422
 11
2.80675
 21
-49.8565
  0
LINE
  8
0
 10
2.80675
 20
-49.8565
 11
2.98363
 21
-49.6005
  0
LINE
  8
0
 10
2.98363
 20
-49.6005
 11
3.20706
 21
-49.3839
  0
LINE
  8
0
 10
3.20706
 20
-49.3839
 11
3.46848
 21
-49.215
  0
LINE
  8
0
 10
3.46848
 20
-49.215
 11
3.7578
 21
-49.1004
  0
LINE
  8
0
 10
3.7578
 20
-49.1004
 11
4.06393
 21
-49.0444
  0
LINE
  8
0
 10
4.06393
 20
-49.0444
 11
4.37509
 21
-49.0492
  0
LINE
  8
0
 10
4.37509
 20
-49.0492
 11
4.67934
 21
-49.1147
  0
LINE
  8
0
 10
4.67934
 20
-49.1147
 11
4.96498
 21
-49.2382
  0
LINE
  8
0
 10
4.96498
 20
-49.2382
 11
5.22102
 21
-49.4151
  0
LINE
  8
0
 10
5.22102
 20
-49.4151
 11
5.43764
 21
-49.6385
  0
LINE
  8
0
 10
5.43764
 20
-49.6385
 11
5.60651
 21
-49.8999
  0
LINE
  8
0
 10
5.60651
 20
-49.8999
 11
5.72113
 21
-50.1893
  0
LINE
  8
0
 10
5.72113
 20
-50.1893
 11
5.7771
 21
-50.4954
  0
LINE
  8
0
 10
5.7771
 20
-50.4954
 11
5.77228
 21
-50.8066
  0
LINE
  8
0
 10
5.77228
 20
-50.8066
 11
5.70683
 21
-51.1108
  0
LINE
  8
0
 10
5.70683
 20
-51.1108
 11
5.5833
 21
-51.3964
  0
LINE
  8
0
 10
5.5833
 20
-51.3964
 11
5.40642
 21
-51.6525
  0
LINE
  8
0
 10
5.40642
 20
-51.6525
 11
5.18298
 21
-51.8691
  0
LINE
  8
0
 10
5.18298
 20
-51.8691
 11
4.92157
 21
-52.038
  0
LINE
  8
0
 10
4.92157
 20
-52.038
 11
4.63225
 21
-52.1526
  0
LINE
  8
0
 10
4.63225
 20
-52.1526
 11
4.32611
 21
-52.2086
  0
LINE
  8
0
 10
4.32611
 20
-52.2086
 11
4.01495
 21
-52.2037
  0
LINE
  8
0
 10
-4.63225
 20
-52.1526
 11
-4.92157
 21
-52.038
  0
LINE
  8
0
 10
-4.92157
 20
-52.038
 11
-5.18298
 21
-51.8691
  0
LINE
  8
0
 10
-5.18298
 20
-51.8691
 11
-5.40642
 21
-51.6525
  0
LINE
  8
0
 10
-5.40642
 20
-51.6525
 11
-5.5833
 21
-51.3964
  0
LINE
  8
0
 10
-5.5833
 20
-51.3964
 11
-5.70683
 21
-51.1108
  0
LINE
  8
0
 10
-5.70683
 20
-51.1108
 11
-5.77228
 21
-50.8066
  0
LINE
  8
0
 10
-5.77228
 20
-50.8066
 11
-5.7771
 21
-50.4954
  0
LINE
  8
0
 10
-5.7771
 20
-50.4954
 11
-5.72113
 21
-50.1893
  0
LINE
  8
0
 10
-5.72113
 20
-50.1893
 11
-5.60651
 21
-49.8999
  0
LINE
  8
0
 10
-5.60651
 20
-49.8999
 11
-5.43764
 21
-49.6385
  0
LINE
  8
0
 10
-5.43764
 20
-49.6385
 11
-5.22102
 21
-49.4151
  0
LINE
  8
0
 10
-5.22102
 20
-49.4151
 11
-4.96498
 21
-49.2382
  0
LINE
  8
0
 10
-4.96498
 20
-49.2382
 11
-4.67934
 21
-49.1147
  0
LINE
  8
0
 10
-4.67934
 20
-49.1147
 11
-4.37509
 21
-49.0492
  0
LINE
  8
0
 10
-4.37509
 20
-49.0492
 11
-4.06393
 21
-49.0444
  0
LINE
  8
0
 10
-4.06393
 20
-49.0444
 11
-3.7578
 21
-49.1004
  0
LINE
  8
0
 10
-3.7578
 20
-49.1004
 11
-3.46848
 21
-49.215
  0
LINE
  8
0
 10
-3.46848
 20
-49.215
 11
-3.20706
 21
-49.3839
  0
LINE
  8
0
 10
-3.20706
 20
-49.3839
 11
-2.98363
 21
-49.6005
  0
LINE
  8
0
 10
-2.98363
 20
-49.6005
 11
-2.80675
 21
-49.8565
  0
LINE
  8
0
 10
-2.80675
 20
-49.8565
 11
-2.68321
 21
-50.1422
  0
LINE
  8
0
 10
-2.68321
 20
-50.1422
 11
-2.61777
 21
-50.4464
  0
LINE
  8
0
 10
-2.61777
 20
-50.4464
 11
-2.61295
 21
-50.7576
  0
LINE
  8
0
 10
-2.61295
 20
-50.7576
 11
-2.66891
 21
-51.0637
  0
LINE
  8
0
 10
-2.66891
 20
-51.0637
 11
-2.78354
 21
-51.353
  0
LINE
  8
0
 10
-2.78354
 20
-51.353
 11
-2.95241
 21
-51.6144
  0
LINE
  8
0
 10
-2.95241
 20
-51.6144
 11
-3.16902
 21
-51.8379
  0
LINE
  8
0
 10
-3.16902
 20
-51.8379
 11
-3.42506
 21
-52.0148
  0
LINE
  8
0
 10
-3.42506
 20
-52.0148
 11
-3.71071
 21
-52.1383
  0
LINE
  8
0
 10
-3.71071
 20
-52.1383
 11
-4.01495
 21
-52.2037
  0
LINE
  8
0
 10
-4.01495
 20
-52.2037
 11
-4.32611
 21
-52.2086
  0
LINE
  8
0
 10
-4.32611
 20
-52.2086
 11
-4.63225
 21
-52.1526
  0
ENDSEC
  0
SECTION
  2
OBJECTS
  0
DICTIONARY
  0
ENDSEC
  0
EOF
