<?xml version="1.0" encoding="UTF-8" standalone="no"?>
<!-- Created with Inkscape (http://www.inkscape.org/) -->

<svg
   xmlns:dc="http://purl.org/dc/elements/1.1/"
   xmlns:cc="http://creativecommons.org/ns#"
   xmlns:rdf="http://www.w3.org/1999/02/22-rdf-syntax-ns#"
   xmlns:svg="http://www.w3.org/2000/svg"
   xmlns="http://www.w3.org/2000/svg"
   xmlns:sodipodi="http://sodipodi.sourceforge.net/DTD/sodipodi-0.dtd"
   xmlns:inkscape="http://www.inkscape.org/namespaces/inkscape"
   width="210mm"
   height="297mm"
   viewBox="0 0 210 297"
   version="1.1"
   id="svg8"
   inkscape:version="0.92.3 (2405546, 2018-03-11)"
   sodipodi:docname="dodeca.svg">
  <defs
     id="defs2" />
  <sodipodi:namedview
     id="base"
     pagecolor="#ffffff"
     bordercolor="#666666"
     borderopacity="1.0"
     inkscape:pageopacity="0.0"
     inkscape:pageshadow="2"
     inkscape:zoom="0.7"
     inkscape:cx="42.857143"
     inkscape:cy="902.85714"
     inkscape:document-units="mm"
     inkscape:current-layer="layer1"
     showgrid="false"
     inkscape:window-width="1920"
     inkscape:window-height="1025"
     inkscape:window-x="0"
     inkscape:window-y="27"
     inkscape:window-maximized="1" />
  <metadata
     id="metadata5">
    <rdf:RDF>
      <cc:Work
         rdf:about="">
        <dc:format>image/svg+xml</dc:format>
        <dc:type
           rdf:resource="http://purl.org/dc/dcmitype/StillImage" />
        <dc:title></dc:title>
      </cc:Work>
    </rdf:RDF>
  </metadata>
  <g
     inkscape:label="Layer 1"
     inkscape:groupmode="layer"
     id="layer1">
    <path
       style="fill:none;fill-opacity:1;stroke:#ff0000;stroke-width:1.33333337;stroke-linecap:round;stroke-linejoin:round;stroke-miterlimit:4;stroke-dasharray:none;stroke-dashoffset:0;stroke-opacity:1"
       d="M -102.02148 -187.30664 L -213.72852 -106.14648 L -171.06055 25.171875 L -213.72852 156.49219 L -256.39648 25.171875 L -394.47461 25.171875 L -437.14258 156.49219 L -479.81055 25.171875 L -617.88867 25.171875 L -660.55664 156.49219 L -548.84961 237.65234 L -506.18164 368.97266 L -368.10352 368.97266 L -325.43555 237.65234 L -282.76758 368.97266 L -144.68945 368.97266 L -102.02148 237.65234 L -59.351562 368.97266 L -102.02148 500.29297 L 9.6855469 581.45312 L 121.39453 500.29297 L 78.724609 368.97266 L 121.39453 237.65234 L 164.0625 368.97266 L 302.14062 368.97266 L 344.80859 237.65234 L 387.47656 368.97266 L 525.55469 368.97266 L 568.22266 237.65234 L 456.51562 156.49219 L 413.84766 25.171875 L 275.76953 25.171875 L 233.10156 156.49219 L 190.43359 25.171875 L 52.355469 25.171875 L 9.6855469 156.49219 L -32.982422 25.171875 L 9.6855469 -106.14648 L -102.02148 -187.30664 z "
       transform="scale(0.26458333)"
       id="path817" />
    <path
       style="fill:none;stroke:#000000;stroke-width:0.26458332px;stroke-linecap:butt;stroke-linejoin:miter;stroke-opacity:1"
       d="m -145.21645,62.878847 29.55581,-21.473622 29.555818,21.473622 29.555818,-21.473622 29.555821,21.473622 L 2.5626342,41.405225 32.118969,62.878847 61.674787,41.405225 91.230605,62.878847 120.78642,41.405225"
       id="path896"
       inkscape:connector-curvature="0" />
    <path
       style="fill:none;stroke:#000000;stroke-width:0.26458332px;stroke-linecap:butt;stroke-linejoin:miter;stroke-opacity:1"
       d="M -45.25977,6.6600585 H -8.726599"
       id="path898"
       inkscape:connector-curvature="0" />
    <path
       style="fill:none;stroke:#000000;stroke-width:0.26458332px;stroke-linecap:butt;stroke-linejoin:miter;stroke-opacity:1"
       d="M -15.703434,97.624015 H 20.829219"
       id="path900"
       inkscape:connector-curvature="0" />
  </g>
</svg>
