<?xml version="1.0" encoding="UTF-8" standalone="no"?>
<svg
   xmlns:dc="http://purl.org/dc/elements/1.1/"
   xmlns:cc="http://creativecommons.org/ns#"
   xmlns:rdf="http://www.w3.org/1999/02/22-rdf-syntax-ns#"
   xmlns:svg="http://www.w3.org/2000/svg"
   xmlns="http://www.w3.org/2000/svg"
   xmlns:sodipodi="http://sodipodi.sourceforge.net/DTD/sodipodi-0.dtd"
   xmlns:inkscape="http://www.inkscape.org/namespaces/inkscape"
   width="210mm"
   height="297mm"
   viewBox="0 0 210 297"
   version="1.1"
   id="svg8"
   inkscape:version="1.0.2 (e86c870879, 2021-01-15)"
   sodipodi:docname="dodecamiddle3.svg">
  <defs
     id="defs2" />
  <sodipodi:namedview
     id="base"
     pagecolor="#ffffff"
     bordercolor="#666666"
     borderopacity="1.0"
     inkscape:pageopacity="0.0"
     inkscape:pageshadow="2"
     inkscape:zoom="1"
     inkscape:cx="182.47859"
     inkscape:cy="383.87764"
     inkscape:document-units="mm"
     inkscape:current-layer="layer1"
     inkscape:document-rotation="0"
     showgrid="false"
     inkscape:window-width="1920"
     inkscape:window-height="1016"
     inkscape:window-x="0"
     inkscape:window-y="0"
     inkscape:window-maximized="1" />
  <metadata
     id="metadata5">
    <rdf:RDF>
      <cc:Work
         rdf:about="">
        <dc:format>image/svg+xml</dc:format>
        <dc:type
           rdf:resource="http://purl.org/dc/dcmitype/StillImage" />
        <dc:title></dc:title>
      </cc:Work>
    </rdf:RDF>
  </metadata>
  <g
     inkscape:label="Layer 1"
     inkscape:groupmode="layer"
     id="layer1">
    <g
       id="g1285"
       transform="translate(-107.47871,5.5149089)">
      <path
         id="path1126"
         style="fill:none;fill-opacity:1;stroke:#000000;stroke-width:1.64459;stroke-linecap:square;stroke-linejoin:round;stroke-miterlimit:4;stroke-dasharray:none;stroke-opacity:1"
         inkscape:transform-center-x="1.4114025e-06"
         inkscape:transform-center-y="1.6550053"
         d="m 845.66211,13.572266 -76.8418,55.828125 29.34961,90.333989 h 94.98242 l 76.8418,55.82812 h -0.32422 c -47.32894,-34.3865 -47.32926,-34.3865 -94.6582,0 -47.32895,34.38652 -47.32809,34.38689 -29.25,90.02539 l -0.0996,0.30664 76.8418,55.83008 c -47.32895,-34.38648 -47.32926,-34.38648 -94.65821,0 h -0.32422 l -0.10156,0.3125 v -0.006 c -47.32894,34.38652 -47.32808,34.38689 -29.25,90.02539 l 76.8418,55.83008 h -0.32227 c -47.32894,-34.38648 -47.32926,-34.38648 -94.6582,0 l -0.10156,0.3125 v -0.006 c -47.32895,34.38652 -47.32809,34.38689 -29.25,90.02539 l 76.84179,55.82813 c -47.32894,-34.38649 -47.32925,-34.38649 -94.6582,0 h -0.32422 l -0.0996,0.30859 c -47.32894,34.38652 -47.32808,34.38689 -29.25,90.02539 l 76.8418,55.82812 c -18.07805,55.63854 -18.07898,55.63891 29.25,90.0254 l 0.0996,0.30664 h 0.008 l -0.006,0.002 c 47.32895,34.38652 47.32926,34.38652 94.65821,0 l -0.006,-0.002 h 0.32812 l 76.8418,55.83007 76.84182,-55.83007 -29.3516,-90.33204 h -94.98046 l -76.84179,-55.82812 h 0.32422 c 47.32849,34.38615 47.32866,34.38549 94.65625,0 47.32841,-34.38613 47.32747,-34.38877 29.25,-90.02539 l 0.10156,-0.30859 -76.8418,-55.82813 c 47.32895,34.38648 47.32926,34.38648 94.6582,0 h 0.32227 c 47.32785,-34.38574 47.32685,-34.38675 29.25005,-90.02148 l 0.1015,-0.31055 -76.84178,-55.83008 h 0.32421 c 47.32895,34.38648 47.32926,34.38648 94.65817,0 47.329,-34.38652 47.3281,-34.38689 29.25,-90.02539 l 0.1,-0.30664 -76.55855,-55.625 c 47.03095,34.16966 47.14765,34.11098 94.37695,-0.20313 l -0.01,-0.002 h 0.3282 c 47.3278,-34.38574 47.3268,-34.38675 29.25,-90.02148 l 0.1015,-0.31055 -76.8418,-55.82812 -29.3515,-90.333989 c -47.32897,-34.386491 -47.32928,-34.386491 -94.65823,0 h -0.32226 z M 999.34375,305.89453 h 0.008 l -0.006,0.002 z"
         transform="scale(0.26458333)" />
      <path
         style="fill:none;stroke:#ff0000;stroke-width:0.264583px;stroke-linecap:butt;stroke-linejoin:miter;stroke-opacity:1"
         d="m 276.97533,42.263054 -20.33105,14.77119 7.76541,23.900349 -20.33054,14.771709 7.76542,23.900348 -20.41633,14.77171 7.85121,23.90035 -20.33106,14.77119 7.76593,23.90086 -20.33105,14.7712 7.73906,23.81922 25.15712,0.0811"
         id="path1196"
         sodipodi:nodetypes="cccccccccccc" />
      <path
         style="fill:none;stroke:#ff0000;stroke-width:0.264583px;stroke-linecap:butt;stroke-linejoin:miter;stroke-opacity:1"
         d="m 269.20941,18.362186 h -25.04499 l -7.8512,23.900868"
         id="path1198" />
      <path
         style="fill:none;stroke:#ff0000;stroke-width:0.264583px;stroke-linecap:butt;stroke-linejoin:miter;stroke-opacity:1"
         d="m 256.64428,57.034244 h -25.04499 l -7.8512,23.900868"
         id="path1202" />
      <path
         style="fill:none;stroke:#ff0000;stroke-width:0.264583px;stroke-linecap:butt;stroke-linejoin:miter;stroke-opacity:1"
         d="m 244.07915,95.706302 h -25.04499 l -7.8512,23.900868"
         id="path1204" />
      <path
         style="fill:none;stroke:#ff0000;stroke-width:0.264583px;stroke-linecap:butt;stroke-linejoin:miter;stroke-opacity:1"
         d="m 231.42826,134.37836 h -25.04499 l -7.8512,23.90087"
         id="path1206" />
      <path
         style="fill:none;stroke:#ff0000;stroke-width:0.264583px;stroke-linecap:butt;stroke-linejoin:miter;stroke-opacity:1"
         d="m 218.83626,173.13155 h -25.04499 l -7.8512,23.90087"
         id="path1208" />
      <path
         style="fill:none;stroke:#ff0000;stroke-width:0.264583px;stroke-linecap:butt;stroke-linejoin:miter;stroke-opacity:1"
         d="m 226.68745,197.03242 h 25.04499 l 7.8512,-23.90087"
         id="path1210" />
      <path
         style="fill:none;stroke:#ff0000;stroke-width:0.264583px;stroke-linecap:butt;stroke-linejoin:miter;stroke-opacity:1"
         d="m 239.25258,158.3614 h 25.04499 l 7.8512,-23.90087"
         id="path1212" />
      <path
         style="fill:none;stroke:#ff0000;stroke-width:0.264583px;stroke-linecap:butt;stroke-linejoin:miter;stroke-opacity:1"
         d="m 251.8182,119.6883 h 25.04499 l 7.8512,-23.900866"
         id="path1214" />
      <path
         style="fill:none;stroke:#ff0000;stroke-width:0.264583px;stroke-linecap:butt;stroke-linejoin:miter;stroke-opacity:1"
         d="m 264.38334,81.017276 h 25.04499 l 7.8512,-23.900866"
         id="path1216" />
      <path
         style="fill:none;stroke:#ff0000;stroke-width:0.264583px;stroke-linecap:butt;stroke-linejoin:miter;stroke-opacity:1"
         d="m 247.04538,211.72195 -7.85275,23.90036"
         id="path1218" />
    </g>
    <path
       id="path1012"
       style="fill:none;stroke:#000000;stroke-width:0.999999px;stroke-linecap:butt;stroke-linejoin:miter;stroke-opacity:1"
       d="M 116.69922 38.136719 C 68.698847 73.010207 68.69845 73.009774 87.033203 129.4375 C 39.032834 164.31099 39.032435 164.31252 57.367188 220.74023 L 58.328125 217.78125 C 40.376881 273.02937 40.40486 273.83785 86.685547 307.4707 C 39.654275 341.64329 39.725456 342.05945 57.935547 398.10352 C 40.398749 452.09554 40.760084 453.21014 86.681641 486.58203 C 40.17163 520.37587 39.757583 521.25303 57.367188 575.4707 C 39.633946 630.06756 40.123039 630.53727 87.597656 665.0293 L 116.69531 575.47266 L 210.85938 575.47461 C 258.3323 540.98433 258.82108 540.51208 241.08984 485.91992 C 258.82324 431.32257 258.33609 430.85346 210.86133 396.36133 C 258.33479 361.87065 258.82365 361.40062 241.0918 306.80664 C 258.82453 252.21129 258.33551 251.73976 210.86133 217.24805 C 258.33412 182.75786 258.82483 182.28697 241.09375 127.69531 C 258.82709 73.098136 258.33995 72.628817 210.86523 38.136719 L 116.69922 38.136719 z "
       transform="scale(0.26458333)" />
    <path
       style="fill:none;stroke:#ff0000;stroke-width:0.264583px;stroke-linecap:butt;stroke-linejoin:miter;stroke-opacity:1"
       d="m 55.791425,10.09034 7.997962,23.69571 -7.998994,23.694163 7.998478,23.695709 -7.998478,23.694678 7.99796,23.69571 -7.998476,23.69468"
       id="path1071" />
    <path
       style="fill:none;stroke:#ff0000;stroke-width:0.264583px;stroke-linecap:butt;stroke-linejoin:miter;stroke-opacity:1"
       d="m 30.876668,10.09034 -7.849134,24.156665 -7.594885,23.374283 7.502901,23.730334 -7.60677,23.979928 7.605737,23.40994 -7.756116,23.51846 7.998478,23.69571"
       id="path1073" />
    <path
       style="fill:none;stroke:#000000;stroke-width:0.264583px;stroke-linecap:butt;stroke-linejoin:miter;stroke-opacity:1"
       d="M 25.269633,-12.589426 H 50.184389"
       id="path1075" />
    <path
       style="fill:none;stroke:#000000;stroke-width:0.264583px;stroke-linecap:butt;stroke-linejoin:miter;stroke-opacity:1"
       d="M 23.027535,34.247005 H 47.942291"
       id="path1077" />
    <path
       style="fill:none;stroke:#000000;stroke-width:0.264583px;stroke-linecap:butt;stroke-linejoin:miter;stroke-opacity:1"
       d="M 30.875637,57.480213 H 55.790393"
       id="path1079" />
    <path
       style="fill:none;stroke:#000000;stroke-width:0.264583px;stroke-linecap:butt;stroke-linejoin:miter;stroke-opacity:1"
       d="M 22.93555,81.351622 H 47.850306"
       id="path1081" />
    <path
       style="fill:none;stroke:#000000;stroke-width:0.264583px;stroke-linecap:butt;stroke-linejoin:miter;stroke-opacity:1"
       d="M 30.875637,104.8706 H 55.790393"
       id="path1083" />
    <path
       style="fill:none;stroke:#000000;stroke-width:0.264583px;stroke-linecap:butt;stroke-linejoin:miter;stroke-opacity:1"
       d="M 22.934517,128.74149 H 47.849273"
       id="path1085" />
    <path
       style="fill:none;stroke:#ff0000;stroke-width:0.264583px;stroke-linecap:butt;stroke-linejoin:miter;stroke-opacity:1"
       d="m 47.849273,128.74149 7.940604,23.5195 -20.397719,-14.46889"
       id="path1289"
       sodipodi:nodetypes="ccc" />
    <path
       style="fill:none;stroke:#ff0000;stroke-width:0.264583px;stroke-linecap:butt;stroke-linejoin:miter;stroke-opacity:1"
       d="M 47.850306,81.351622 55.790393,104.8706 35.393191,90.402232"
       id="path1291"
       sodipodi:nodetypes="ccc" />
    <path
       style="fill:none;stroke:#ff0000;stroke-width:0.264583px;stroke-linecap:butt;stroke-linejoin:miter;stroke-opacity:1"
       d="M 47.942291,34.247005 55.790393,57.480213 35.485176,43.297615"
       id="path1293"
       sodipodi:nodetypes="ccc" />
    <path
       style="fill:none;stroke:#ff0000;stroke-width:0.264583px;stroke-linecap:butt;stroke-linejoin:miter;stroke-opacity:1"
       d="m 30.875637,104.8706 -7.94112,23.87089 20.697731,-14.81991"
       id="path1295"
       sodipodi:nodetypes="ccc" />
    <path
       style="fill:none;stroke:#ff0000;stroke-width:0.264583px;stroke-linecap:butt;stroke-linejoin:miter;stroke-opacity:1"
       d="m 30.875637,57.480213 -7.69899,23.69534 20.456119,-14.644361"
       id="path1297"
       sodipodi:nodetypes="ccc" />
    <path
       style="fill:none;stroke:#ff0000;stroke-width:0.264583px;stroke-linecap:butt;stroke-linejoin:miter;stroke-opacity:1"
       d="M 23.027535,34.247005 43.18364,19.602275"
       id="path1299"
       sodipodi:nodetypes="cc" />
    <path
       style="fill:none;stroke:#000000;stroke-width:0.264583px;stroke-linecap:butt;stroke-linejoin:miter;stroke-opacity:1"
       d="M 63.789387,33.78605 43.18364,19.602275"
       id="path1299-3"
       sodipodi:nodetypes="cc" />
    <path
       style="fill:none;stroke:#000000;stroke-width:0.264583px;stroke-linecap:butt;stroke-linejoin:miter;stroke-opacity:1"
       d="M 15.236053,152.43683 35.392158,137.7921"
       id="path1341"
       sodipodi:nodetypes="cc" />
    <path
       style="fill:none;stroke:#000000;stroke-width:0.264583px;stroke-linecap:butt;stroke-linejoin:miter;stroke-opacity:1"
       d="M 15.237086,105.04696 35.393191,90.402232"
       id="path1343"
       sodipodi:nodetypes="cc" />
    <path
       style="fill:none;stroke:#000000;stroke-width:0.264583px;stroke-linecap:butt;stroke-linejoin:miter;stroke-opacity:1"
       d="M 15.329071,57.942343 35.485176,43.297615"
       id="path1345"
       sodipodi:nodetypes="cc" />
    <path
       style="fill:none;stroke:#000000;stroke-width:0.264583px;stroke-linecap:butt;stroke-linejoin:miter;stroke-opacity:1"
       d="M 63.788353,128.56631 43.632248,113.92158"
       id="path1347"
       sodipodi:nodetypes="cc" />
    <path
       style="fill:none;stroke:#000000;stroke-width:0.264583px;stroke-linecap:butt;stroke-linejoin:miter;stroke-opacity:1"
       d="M 63.788871,81.175922 43.632766,66.531192"
       id="path1349"
       sodipodi:nodetypes="cc" />
  </g>
</svg>
