<?xml version="1.0" encoding="UTF-8" standalone="no"?>
<!-- Created with Inkscape (http://www.inkscape.org/) -->

<svg
   width="210mm"
   height="297mm"
   viewBox="0 0 210 297"
   version="1.1"
   id="svg5"
   inkscape:version="1.1.1 (3bf5ae0d25, 2021-09-20)"
   sodipodi:docname="fastsnail.svg"
   xmlns:inkscape="http://www.inkscape.org/namespaces/inkscape"
   xmlns:sodipodi="http://sodipodi.sourceforge.net/DTD/sodipodi-0.dtd"
   xmlns="http://www.w3.org/2000/svg"
   xmlns:svg="http://www.w3.org/2000/svg">
  <sodipodi:namedview
     id="namedview7"
     pagecolor="#ffffff"
     bordercolor="#666666"
     borderopacity="1.0"
     inkscape:pageshadow="2"
     inkscape:pageopacity="0.0"
     inkscape:pagecheckerboard="0"
     inkscape:document-units="mm"
     showgrid="false"
     inkscape:zoom="0.5"
     inkscape:cx="387"
     inkscape:cy="477"
     inkscape:window-width="1920"
     inkscape:window-height="1016"
     inkscape:window-x="0"
     inkscape:window-y="0"
     inkscape:window-maximized="1"
     inkscape:current-layer="layer1" />
  <defs
     id="defs2" />
  <g
     inkscape:label="Layer 1"
     inkscape:groupmode="layer"
     id="layer1">
    <path
       id="path8032"
       style="fill:#000000;fill-opacity:1;stroke:#000000;stroke-width:0.0616291;stroke-linecap:round;stroke-linejoin:round;stroke-miterlimit:4;stroke-dasharray:none"
       d="m 185.05963,110.41218 c -2.174,0 -3.93638,1.76237 -3.93637,3.93638 4.8e-4,0.75284 0.21643,1.47923 0.60874,2.10009 0.62347,0.80614 0.11583,2.47515 -0.57235,3.46243 -5.49529,8.8797 -16.46207,27.74896 -35.86727,35.93978 -11.22123,4.30583 -22.13128,3.30344 -28.8954,6.39884 -16.595962,28.7387 -49.03312,21.97853 -60.862828,11.26707 -9.569879,5.13058 -10.307723,12.27931 -24.556155,20.54972 38.953822,0.3202 91.467033,0.0539 130.422303,-0.0376 0,0 -5.32643,-10.28603 2.71597,-22.16949 12.55339,-18.54891 26.14833,-35.84322 31.74699,-44.38913 0.63056,-1.05731 1.27462,-2.27826 2.49278,-2.31518 2.17399,0.004 3.93637,-1.76237 3.93637,-3.93637 1e-5,-2.17401 -1.76237,-3.93638 -3.93637,-3.93638 -2.17401,0 -3.93638,1.76238 -3.93638,3.93638 1.7e-4,0.50139 0.096,0.99225 0.27684,1.44853 0.5099,1.36579 0.52395,1.99842 -1.00814,3.88518 -8.28167,10.20609 -25.77028,33.82419 -31.64951,33.80518 -2.20354,-0.007 -8.36875,-1.59292 -6.39056,-3.48159 15.39281,-14.69626 24.91311,-29.32312 28.54019,-37.05528 0.52318,-0.9304 0.8927,-1.39137 2.19326,-1.76335 1.52366,-0.54319 2.61427,-1.99866 2.61426,-3.70885 0,-2.174 -1.76237,-3.93638 -3.93637,-3.93637 z m 0.93982,3.12044 c 0.78589,-3e-5 1.42298,0.63706 1.42296,1.42295 -1.5e-4,0.78576 -0.63719,1.42266 -1.42296,1.42264 -0.78576,2e-5 -1.4228,-0.63688 -1.42295,-1.42264 -3e-5,-0.78589 0.63707,-1.42298 1.42295,-1.42295 z m 13.42826,7.12687 c 0.78589,-2e-5 1.42298,0.63707 1.42295,1.42296 3e-5,0.78588 -0.63706,1.42298 -1.42295,1.42295 -0.78589,3e-5 -1.42298,-0.63707 -1.42295,-1.42295 -3e-5,-0.78589 0.63706,-1.42298 1.42295,-1.42296 z"
       sodipodi:nodetypes="sccccccccsccsscccssccssscccccccccc" />
    <path
       style="fill:#000000;fill-opacity:1;stroke:none;stroke-width:0.946942;stroke-linecap:square;stroke-linejoin:round"
       d="m 134.99878,156.96684 c 4.15269,-22.07451 -7.23189,-45.43954 -29.23708,-53.95228 -22.359352,-8.649729 -49.371896,1.59321 -58.50092,23.96113 -8.018327,19.64646 1.069031,43.14383 21.366622,50.81478 17.687907,6.6847 39.001818,-1.47317 46.052078,-19.19452 6.08914,-15.30552 -1.04819,-33.56155 -16.890255,-39.37103 -13.54345,-4.96656 -29.813223,1.33532 -35.042491,14.92743 -4.418178,11.48388 0.994435,25.13687 12.905505,29.33203 9.92606,3.49603 21.806075,-1.17704 25.473011,-11.15625 3.00639,-8.18165 -0.90565,-17.86998 -9.409009,-20.69911 -6.835815,-2.27434 -14.980025,0.99694 -17.344814,7.87797 -1.855431,5.39893 0.779522,11.76052 6.396104,13.47416 4.272847,1.30365 9.335686,-0.79053 10.661833,-5.08485 0.968427,-3.13594 -0.611049,-6.80924 -3.856827,-7.66287 -2.237326,-0.58841 -4.870799,0.55074 -5.430068,2.76213 -0.35216,1.39277 0.385713,3.01361 1.764655,3.27689 0.786718,0.15022 1.293051,0.89836 1.13101,1.67113 -0.162282,0.77293 -0.931826,1.27763 -1.718716,1.12718 -3.202955,-0.61153 -4.712719,-3.91458 -4.000426,-6.73167 0.997796,-3.9459 5.349893,-5.83029 9.037298,-4.8605 4.967572,1.30647 7.265631,6.65239 5.856601,11.21508 -1.839046,5.95517 -8.614202,8.75692 -14.338825,7.01033 -7.279965,-2.22113 -10.605274,-10.25249 -8.258806,-17.08021 2.920155,-8.49703 12.774941,-12.45335 21.063842,-9.69556 10.129258,3.37007 14.714278,14.72708 11.182318,24.33902 -4.249702,11.56515 -17.840492,16.90935 -29.220583,12.9012 -13.51095,-4.75865 -19.583199,-20.08044 -14.614345,-32.99566 5.83116,-15.15655 23.810872,-22.11912 38.809035,-16.61912 17.422843,6.38918 25.211763,26.31413 18.552863,43.05175 4.45771,-1.8049 11.50219,-1.91502 17.61039,-2.63858 z"
       id="path6560"
       sodipodi:nodetypes="csssscsssssssscscccsssscsssscc" />
    <path
       style="fill:#000000;fill-opacity:1;stroke:#000000;stroke-width:2.3;stroke-linecap:round;stroke-linejoin:miter;stroke-miterlimit:4;stroke-dasharray:none;stroke-opacity:1"
       d="M 14.453342,133.23769 H 37.82374"
       id="path7842" />
    <path
       style="fill:#000000;fill-opacity:1;stroke:#000000;stroke-width:2.3;stroke-linecap:round;stroke-linejoin:miter;stroke-miterlimit:4;stroke-dasharray:none;stroke-opacity:1"
       d="M 12.774969,139.64696 H 36.145367"
       id="path7844" />
    <path
       style="fill:#000000;fill-opacity:1;stroke:#000000;stroke-width:2.3;stroke-linecap:round;stroke-linejoin:miter;stroke-miterlimit:4;stroke-dasharray:none;stroke-opacity:1"
       d="M 11.586413,145.78872 H 34.956811"
       id="path7928" />
  </g>
</svg>
