<?xml version="1.0" encoding="UTF-8" standalone="no"?>
<!-- Created with Inkscape (http://www.inkscape.org/) -->

<svg
   width="210mm"
   height="297mm"
   viewBox="0 0 210 297"
   version="1.1"
   id="svg5"
   inkscape:version="1.1.1 (3bf5ae0d25, 2021-09-20)"
   sodipodi:docname="fastsnail.svg"
   xmlns:inkscape="http://www.inkscape.org/namespaces/inkscape"
   xmlns:sodipodi="http://sodipodi.sourceforge.net/DTD/sodipodi-0.dtd"
   xmlns="http://www.w3.org/2000/svg"
   xmlns:svg="http://www.w3.org/2000/svg">
  <sodipodi:namedview
     id="namedview7"
     pagecolor="#ffffff"
     bordercolor="#666666"
     borderopacity="1.0"
     inkscape:pageshadow="2"
     inkscape:pageopacity="0.0"
     inkscape:pagecheckerboard="0"
     inkscape:document-units="mm"
     showgrid="false"
     inkscape:zoom="0.35355339"
     inkscape:cx="264.45794"
     inkscape:cy="538.81537"
     inkscape:window-width="1920"
     inkscape:window-height="1016"
     inkscape:window-x="0"
     inkscape:window-y="0"
     inkscape:window-maximized="1"
     inkscape:current-layer="layer1" />
  <defs
     id="defs2" />
  <g
     inkscape:label="Layer 1"
     inkscape:groupmode="layer"
     id="layer1">
    <path
       id="path8032"
       style="fill:#000000;fill-opacity:1;stroke:#000000;stroke-width:0.0616291;stroke-linecap:round;stroke-linejoin:round;stroke-miterlimit:4;stroke-dasharray:none"
       d="m 77.570459,200.17589 c -17.841021,-0.12675 -35.313435,9.89152 -42.302845,27.01696 -8.018327,19.64646 1.069065,43.14404 21.366654,50.81499 17.687906,6.6847 39.001708,-1.47335 46.051972,-19.1947 6.08914,-15.30552 -1.04786,-33.56176 -16.889928,-39.37124 -13.543449,-4.96656 -29.813554,1.33566 -35.042821,14.92777 -4.418179,11.48388 0.994603,25.1369 12.905671,29.33206 9.926061,3.49603 21.805929,-1.17721 25.472863,-11.15642 3.006392,-8.18165 -0.905367,-17.86987 -9.408726,-20.699 -6.835814,-2.27434 -14.980406,0.99705 -17.345194,7.87807 -1.855433,5.39894 0.779926,11.76048 6.396508,13.47412 4.272847,1.30365 9.335733,-0.79064 10.66188,-5.08496 0.968428,-3.13594 -0.611351,-6.80947 -3.857127,-7.6631 -2.237327,-0.58841 -4.870892,0.55071 -5.43016,2.76211 -0.352161,1.39276 0.385807,3.01352 1.764749,3.2768 0.786718,0.15022 1.293239,0.89844 1.131197,1.67121 -0.162282,0.77293 -0.931867,1.27803 -1.718757,1.12758 -3.202956,-0.61153 -4.712565,-3.9148 -4.000272,-6.73189 0.997794,-3.9459 5.349769,-5.83047 9.037174,-4.86068 4.967571,1.30647 7.265519,6.65264 5.856489,11.21534 -1.839045,5.95516 -8.614037,8.75701 -14.33866,7.01042 -7.279963,-2.22113 -10.605394,-10.25289 -8.258926,-17.08061 2.920156,-8.49703 12.77493,-12.45333 21.063831,-9.69553 10.129258,3.37007 14.714222,14.72714 11.182262,24.33908 -4.249703,11.56515 -17.840348,16.90969 -29.220437,12.90154 -13.510951,-4.75865 -19.583466,-20.0807 -14.614612,-32.99592 5.83116,-15.15655 23.810838,-22.11914 38.809,-16.61914 17.422846,6.38918 25.211776,26.31401 18.552876,43.05163 4.45771,-1.8049 11.50261,-1.91504 17.61081,-2.6386 4.15269,-22.07451 -7.2323,-45.43952 -29.237495,-53.95226 -5.240472,-2.02728 -10.736439,-3.01682 -16.197976,-3.05563 z m 95.495981,10.45363 c -2.174,0 -3.93621,1.76218 -3.9362,3.93619 4.8e-4,0.75284 0.21644,1.47927 0.60875,2.10013 0.62347,0.80614 0.11561,2.47505 -0.57257,3.46233 -5.49529,8.8797 -16.46187,27.7491 -35.86707,35.93992 -11.22122,4.30583 -22.13127,3.30318 -28.89539,6.39858 -16.595963,28.73869 -49.033241,21.97847 -60.86295,11.26701 -9.569878,5.13058 -10.30769,12.27975 -24.556123,20.55017 38.953822,0.32019 91.467263,0.0538 130.422533,-0.0377 0,0 -5.32681,-10.28625 2.71559,-22.16971 12.55339,-18.5489 26.14876,-35.84311 31.74742,-44.38902 0.63056,-1.05731 1.27419,-2.27818 2.49235,-2.3151 2.17399,0.004 3.93671,-1.76219 3.93671,-3.93619 1e-5,-2.17401 -1.76271,-3.93672 -3.93671,-3.93672 -2.17401,0 -3.93619,1.76272 -3.93619,3.93672 1.7e-4,0.50139 0.0961,0.9922 0.27698,1.44849 0.5099,1.36579 0.52389,1.99827 -1.0082,3.88503 -8.28167,10.20609 -25.77052,33.82418 -31.64975,33.80517 -2.20354,-0.007 -8.3685,-1.59277 -6.39031,-3.48144 15.39281,-14.69626 24.91278,-29.32346 28.53986,-37.05562 0.52318,-0.9304 0.89311,-1.39122 2.19367,-1.7632 1.52366,-0.54319 2.61432,-1.99863 2.61431,-3.70882 0,-2.174 -1.76271,-3.9362 -3.93671,-3.93619 z m 0.93999,3.12022 c 0.78589,-3e-5 1.42319,0.63728 1.42317,1.42317 -1.5e-4,0.78576 -0.6374,1.42267 -1.42317,1.42266 -0.78576,1e-5 -1.42302,-0.6369 -1.42317,-1.42266 -3e-5,-0.78589 0.63729,-1.4232 1.42317,-1.42317 z m 13.42812,7.1267 c 0.78589,-2e-5 1.4232,0.63728 1.42317,1.42317 3e-5,0.78588 -0.63728,1.4232 -1.42317,1.42317 -0.78589,3e-5 -1.42268,-0.63729 -1.42265,-1.42317 -3e-5,-0.78589 0.63676,-1.42319 1.42265,-1.42317 z" />
    <path
       id="path8032-3"
       style="fill:#000000;fill-opacity:1;stroke:#000000;stroke-width:0.0645872;stroke-linecap:round;stroke-linejoin:round;stroke-miterlimit:4;stroke-dasharray:none"
       d="M 73.671779,-1.9895734 C 55.027552,-0.57464112 37.648144,11.403803 31.833616,29.895866 25.163122,51.110116 36.69191,74.862963 58.556076,81.114184 77.609147,86.561691 99.161843,76.192906 104.98824,57.073205 110.02036,40.559964 100.98314,22.112042 83.933778,17.418533 69.358206,13.406022 52.91222,21.399145 48.629554,36.048321 c -3.6184,12.376988 3.218819,26.166824 16.022619,29.515254 10.670019,2.790409 22.672108,-3.120649 25.636406,-13.861 2.430316,-8.805684 -2.495373,-18.584846 -11.62168,-20.802129 -7.336595,-1.782481 -15.559132,2.34053 -17.432146,9.732186 -1.469595,5.799592 1.834504,12.215054 7.849101,13.517677 4.575645,0.990965 9.681716,-1.635409 10.694309,-6.235428 0.739462,-3.359177 -1.229063,-7.058817 -4.692991,-7.668856 -2.387707,-0.4205 -5.039427,0.997604 -5.431731,3.355703 -0.134016,0.805775 0.07294,1.653817 0.523975,2.285882 0.878586,1.124746 1.162052,1.968495 0.501001,2.644567 -0.661052,0.676072 -1.7835,0.624942 -2.81663,-0.633248 -1.039419,-1.302174 -1.49132,-3.06863 -1.213712,-4.737806 0.69989,-4.207651 5.081662,-6.553338 9.016915,-5.860283 5.301457,0.93366 8.165103,6.317927 7.089217,11.205431 -1.404238,6.379089 -8.237069,9.892928 -14.367364,8.565262 C 60.590982,55.383147 56.421317,47.283147 58.279831,39.948747 60.592735,30.821156 70.54198,25.834505 79.438117,27.995889 90.309435,30.637123 96.082953,42.100854 93.227774,52.445921 89.792383,64.893175 76.061778,71.653712 63.82875,68.454546 49.30515,64.656359 41.634151,49.180597 45.703543,35.260954 50.479149,18.92567 68.65335,10.094588 84.79449,14.538062 c 18.75061,5.161854 28.61343,25.295917 23.11045,43.354263 4.49911,-2.271648 11.84729,-2.997663 18.16396,-4.283097 C 128.49153,30.194365 114.57462,6.7792403 90.854024,-0.20305448 85.205025,-1.8658624 79.3792,-2.4226933 73.671779,-1.9895734 Z M 185.0343,6.6672053 c -2.27835,0 -4.12514,1.8467626 -4.12513,4.1251327 5e-4,0.788965 0.22683,1.550274 0.63797,2.200934 0.65339,0.844834 0.12116,2.59385 -0.60005,3.628518 -5.75906,9.305916 -26.56369,32.911994 -47.96107,38.335546 -6.89463,1.74757 -18.58429,2.354915 -25.67308,5.59889 C 88.413256,94.438453 53.860143,86.15589 41.462621,74.930292 31.4334,80.307134 15.841668,87.799456 0.90932684,96.466848 41.732888,96.802407 101.7636,96.52323 142.58868,96.427338 c 0,0 4.23933,-10.779979 12.66775,-23.233832 13.15594,-19.439226 31.60969,-34.569206 37.47708,-43.52531 0.66083,-1.10806 1.33535,-2.38753 2.61198,-2.426222 2.27834,0.0042 4.12567,-1.846773 4.12567,-4.125133 1e-5,-2.27836 -1.84732,-4.125678 -4.12567,-4.125678 -2.27836,0 -4.12512,1.847339 -4.12512,4.125678 1.8e-4,0.525466 0.10071,1.039835 0.29027,1.518015 0.53438,1.431347 0.54904,2.094185 -1.05659,4.071518 -8.67918,10.69596 -35.24735,35.84821 -41.40878,35.828277 -4.90553,-0.171733 -4.73612,-5.06405 -2.66298,-7.043385 16.13165,-15.401664 33.93775,-32.860941 37.73892,-40.964236 0.54829,-0.975058 0.93598,-1.457997 2.29897,-1.847832 1.59679,-0.569262 2.7398,-2.094561 2.73979,-3.886839 -0.0677,-2.6640634 -2.20844,-4.0668609 -4.12567,-4.1251537 z m 1.7532,2.1845438 c 0.82361,-3.15e-5 1.4915,0.6678687 1.49148,1.4914809 -1.6e-4,0.823475 -0.66799,1.490956 -1.49148,1.490946 -0.82347,1e-5 -1.49132,-0.667471 -1.49148,-1.490946 -3e-5,-0.8236122 0.66788,-1.4915124 1.49148,-1.4914809 z m 9.5111,11.8396339 c 0.82362,-2.1e-5 1.49152,0.667858 1.49148,1.49147 4e-5,0.823611 -0.66786,1.491512 -1.49148,1.491491 -0.82361,2.1e-5 -1.49096,-0.66788 -1.49093,-1.491491 -3e-5,-0.823612 0.66732,-1.491491 1.49093,-1.49147 z"
       sodipodi:nodetypes="ccsssssscsssscczccsssscssscccscccccsccccsccsscccccccccccsccccccc" />
    <path
       id="path8032-6"
       style="fill:#000000;fill-opacity:1;stroke:#000000;stroke-width:0.0560165;stroke-linecap:round;stroke-linejoin:round;stroke-miterlimit:4;stroke-dasharray:none"
       d="M 72.749324,99.985975 C 56.63325,98.182919 39.890263,105.58571 31.951158,120.40543 c -9.107824,17.0013 -3.116755,39.10287 14.50604,47.95829 15.357015,7.71688 35.396516,2.35926 43.447027,-12.99339 6.953033,-13.25973 2.229052,-30.4386 -11.542179,-37.1896 -11.773078,-5.77148 -27.077499,-1.61415 -33.091059,10.17805 -5.080821,9.96315 -1.479861,22.81758 8.890565,27.73723 8.642173,4.09978 19.823711,0.99955 24.083019,-7.6745 3.492057,-7.11159 0.872772,-16.23984 -6.546413,-19.6021 -5.964245,-2.70292 -13.636473,-0.51643 -16.42543,5.48013 -2.188253,4.70497 -0.407979,10.70514 4.507162,12.78581 3.739227,1.58286 8.514223,0.1688 10.119455,-3.58771 1.172236,-2.74319 0.0918,-6.21353 -2.76155,-7.29239 -1.966833,-0.74365 -4.455355,0.0369 -5.170207,1.983 -0.45016,1.22572 0.06356,2.76071 1.285195,3.12921 0.696959,0.21025 1.084034,0.93458 0.864418,1.61781 -0.21985,0.68337 -0.963345,1.06714 -1.660445,0.85666 -2.837561,-0.85595 -3.889608,-3.98493 -2.979095,-6.46414 1.275442,-3.47261 5.387927,-4.76437 8.62952,-3.53871 4.366978,1.65117 5.938333,6.70152 4.23277,10.6928 -2.226079,5.20934 -8.615757,7.10099 -13.625447,4.98031 -6.370797,-2.69685 -8.616815,-10.27219 -5.849454,-16.2223 3.443953,-7.40484 12.726973,-10.04863 19.95904,-6.77114 8.837783,4.00514 11.907693,14.70572 7.805164,23.06052 -4.936211,10.05257 -17.727795,13.59774 -27.635927,8.8974 -11.76338,-5.58044 -15.802773,-20.0061 -10.088685,-31.21104 6.705723,-13.14948 23.618078,-17.74197 36.655711,-11.3506 15.145375,7.42464 20.300773,26.1736 12.697152,40.67401 3.481392,-1.00262 10.121325,-3.39292 13.628775,-3.57079 2.35069,0.0783 3.37294,-0.28311 3.93886,-4.08516 3.65998,-18.48207 -4.95503,-35.50024 -22.722224,-44.60224 -4.54546,-2.3286 -9.420099,-3.74327 -14.353592,-4.295245 z m 73.393336,7.589315 c -1.97601,0 -3.57773,1.6017 -3.57773,3.57773 4.4e-4,0.68427 0.19673,1.34455 0.55331,1.90886 0.5384,0.63678 0.8519,1.36465 0.82812,2.09551 -0.50683,15.58021 -17.09604,32.60938 -22.6657,35.88047 -2.3583,1.38504 -8.40485,3.43601 -10.72858,3.38286 -7.7087,-0.17632 -14.27848,2.71964 -19.368411,5.04889 -14.33627,20.79797 -42.407849,16.96408 -53.160209,7.22813 -8.698336,4.66333 -20.468718,17.04409 -39.8814347,18.67864 35.4062417,0.29103 93.9178927,0.0489 129.3254547,-0.0343 0,0 8.01783,1.29378 11.10048,-15.34396 0.80698,-4.35547 -0.97715,-8.4908 1.51062,-11.98111 8.94556,-12.55055 21.51278,-27.09458 25.4943,-33.17206 0.57313,-0.96102 1.15815,-2.0707 2.26537,-2.10426 1.976,0.004 3.57819,-1.60171 3.57819,-3.57773 1e-5,-1.97601 -1.60218,-3.57819 -3.57819,-3.57819 -1.97602,0 -3.57772,1.60219 -3.57772,3.57819 1.6e-4,0.45574 0.0874,0.90185 0.25176,1.31658 0.46346,1.2414 0.47618,1.81628 -0.91638,3.53122 -7.52745,9.2766 -23.42357,30.74377 -28.76737,30.72648 -2.00286,-0.006 -4.36651,0.0944 -5.83712,-1.90991 -1.04216,-1.42036 -0.3498,-3.11014 0.46295,-3.96595 11.83503,-12.46214 14.79022,-24.50537 16.76655,-31.84659 0.28604,-1.15251 0.51471,-2.23829 1.12371,-2.49073 1.38489,-0.49372 2.37623,-1.81661 2.37622,-3.37106 -4e-5,-2.11344 -1.79232,-3.59882 -3.57819,-3.57774 z m -0.33563,2.11434 c 0.71432,-3e-5 1.29358,0.57924 1.29356,1.29356 -1.4e-4,0.7142 -0.57935,1.29311 -1.29356,1.2931 -0.7142,1e-5 -1.29343,-0.5789 -1.29356,-1.2931 -3e-5,-0.71432 0.57925,-1.29359 1.29356,-1.29356 z m 21.95849,9.44398 c 0.71432,-2e-5 1.29359,0.57923 1.29356,1.29355 3e-5,0.71431 -0.57924,1.29358 -1.29356,1.29357 -0.71432,1e-5 -1.29311,-0.57926 -1.29309,-1.29357 -2e-5,-0.71432 0.57877,-1.29357 1.29309,-1.29355 z"
       sodipodi:nodetypes="csssssssssssscscccsssscsssscccsccscccssccccssccssccccscccsssccsccscsss" />
    <path
       style="fill:#000000;fill-opacity:1;stroke:#000000;stroke-width:2.3;stroke-linecap:round;stroke-linejoin:miter;stroke-miterlimit:4;stroke-dasharray:none;stroke-opacity:1"
       d="m -59.41295,386.86975 h 23.370398"
       id="path7842" />
    <path
       style="fill:#000000;fill-opacity:1;stroke:#000000;stroke-width:2.3;stroke-linecap:round;stroke-linejoin:miter;stroke-miterlimit:4;stroke-dasharray:none;stroke-opacity:1"
       d="m -61.091323,393.27902 h 23.370398"
       id="path7844" />
    <path
       style="fill:#000000;fill-opacity:1;stroke:#000000;stroke-width:2.3;stroke-linecap:round;stroke-linejoin:miter;stroke-miterlimit:4;stroke-dasharray:none;stroke-opacity:1"
       d="m -62.279879,399.42078 h 23.370398"
       id="path7928" />
  </g>
</svg>
