<?xml version="1.0" encoding="UTF-8" standalone="no"?>
<!-- Created with Inkscape (http://www.inkscape.org/) -->

<svg
   xmlns:dc="http://purl.org/dc/elements/1.1/"
   xmlns:cc="http://creativecommons.org/ns#"
   xmlns:rdf="http://www.w3.org/1999/02/22-rdf-syntax-ns#"
   xmlns:svg="http://www.w3.org/2000/svg"
   xmlns="http://www.w3.org/2000/svg"
   xmlns:sodipodi="http://sodipodi.sourceforge.net/DTD/sodipodi-0.dtd"
   xmlns:inkscape="http://www.inkscape.org/namespaces/inkscape"
   version="1.1"
   id="svg2"
   width="213.04982"
   height="155.3658"
   viewBox="0 0 213.04982 155.3658"
   sodipodi:docname="fpsac-tshirt.svg"
   inkscape:version="0.92.3 (2405546, 2018-03-11)"
   inkscape:export-filename="/home/bjy/makeme/fpsac-tshirt.png"
   inkscape:export-xdpi="96"
   inkscape:export-ydpi="96">
  <metadata
     id="metadata8">
    <rdf:RDF>
      <cc:Work
         rdf:about="">
        <dc:format>image/svg+xml</dc:format>
        <dc:type
           rdf:resource="http://purl.org/dc/dcmitype/StillImage" />
        <dc:title></dc:title>
      </cc:Work>
    </rdf:RDF>
  </metadata>
  <defs
     id="defs6" />
  <sodipodi:namedview
     pagecolor="#ffffff"
     bordercolor="#666666"
     borderopacity="1"
     objecttolerance="10"
     gridtolerance="10"
     guidetolerance="10"
     inkscape:pageopacity="0"
     inkscape:pageshadow="2"
     inkscape:window-width="1920"
     inkscape:window-height="1025"
     id="namedview4"
     showgrid="false"
     inkscape:snap-center="true"
     inkscape:snap-global="true"
     inkscape:zoom="3.337544"
     inkscape:cx="88.883295"
     inkscape:cy="75.115624"
     inkscape:window-x="0"
     inkscape:window-y="27"
     inkscape:window-maximized="1"
     inkscape:current-layer="svg2"
     fit-margin-top="0"
     fit-margin-left="0"
     fit-margin-right="0"
     fit-margin-bottom="0" />
  <g
     id="g1105"
     transform="matrix(0.14300973,0,0,0.14300973,56.489403,130.77053)"
     style="fill:#ff3eb2;fill-opacity:1;stroke:none">
    <path
       id="rect873"
       d="m -260.07227,-914.14062 v 14.38281 251.68164 h -118.64843 -16.28321 v 14.98047 118.40234 h 16.28321 V -633.0957 h 133.63086 v -14.98047 -251.68164 H 5.3925781 v -14.38281 H -245.08984 Z"
       style="fill:#ff3eb2;fill-opacity:1;stroke:none;stroke-width:1.33333337;stroke-linecap:round;stroke-linejoin:round;stroke-miterlimit:4;stroke-dasharray:none;stroke-dashoffset:0;stroke-opacity:1"
       inkscape:connector-curvature="0" />
    <path
       sodipodi:nodetypes="cccccccc"
       id="path888-7"
       d="m -327.91188,-746.82496 c -18.22823,4.2e-4 -33.0051,14.22291 -33.00586,31.76758 0.0167,12.26267 7.36452,23.42117 18.87891,28.66992 l -18.35536,33.84435 65.31639,0.77549 -18.48642,-34.70773 c 11.39872,-5.29594 18.64703,-16.39944 18.6582,-28.58203 -7.6e-4,-17.54467 -14.77763,-31.76716 -33.00586,-31.76758 z"
       style="fill:#ff3eb2;fill-opacity:1;stroke:none;stroke-width:1.83601892;stroke-linecap:round;stroke-linejoin:round;stroke-miterlimit:4;stroke-dasharray:none;stroke-dashoffset:0;stroke-opacity:1"
       inkscape:connector-curvature="0" />
    <path
       id="path888-7-3"
       d="m -194.87994,-613.19376 a 33.006645,31.768896 0 0 0 -33.00586,31.76758 33.006645,31.768896 0 0 0 18.87891,28.66992 l -17.93164,36.38672 65.3164,1.19922 -18.91015,-37.67383 a 33.006645,31.768896 0 0 0 18.6582,-28.58203 33.006645,31.768896 0 0 0 -33.00586,-31.76758 z"
       style="fill:#ff3eb2;fill-opacity:1;stroke:none;stroke-width:1.83601892;stroke-linecap:round;stroke-linejoin:round;stroke-miterlimit:4;stroke-dasharray:none;stroke-dashoffset:0;stroke-opacity:1"
       inkscape:connector-curvature="0" />
    <path
       sodipodi:nodetypes="cccccccc"
       id="path888-7-2"
       d="m -61.248736,-746.82496 c -18.228227,4.2e-4 -33.005106,14.22291 -33.005861,31.76758 0.01674,12.26267 7.364521,23.42117 18.878911,28.66992 l -18.779099,33.84435 64.468944,1.19922 -17.215235,-35.13146 c 11.398718,-5.29594 18.647025,-16.39944 18.6582,-28.58203 -7.55e-4,-17.54467 -14.777634,-31.76716 -33.00586,-31.76758 z"
       style="fill:#ff3eb2;fill-opacity:1;stroke:none;stroke-width:1.83601892;stroke-linecap:round;stroke-linejoin:round;stroke-miterlimit:4;stroke-dasharray:none;stroke-dashoffset:0;stroke-opacity:1"
       inkscape:connector-curvature="0" />
    <path
       sodipodi:nodetypes="cccccccc"
       id="path888-7-1"
       d="m -194.87993,-880.45616 c -18.22823,4.2e-4 -33.0051,14.22291 -33.00586,31.76758 0.0167,12.26267 7.36452,23.42117 18.87891,28.66992 l -15.813,34.26808 61.07912,0.35176 -16.79151,-34.70773 c 11.39872,-5.29594 18.64703,-16.39944 18.6582,-28.58203 -7.6e-4,-17.54467 -14.77763,-31.76716 -33.00586,-31.76758 z"
       style="fill:#ff3eb2;fill-opacity:1;stroke:none;stroke-width:1.83601892;stroke-linecap:round;stroke-linejoin:round;stroke-miterlimit:4;stroke-dasharray:none;stroke-dashoffset:0;stroke-opacity:1"
       inkscape:connector-curvature="0" />
    <path
       inkscape:connector-curvature="0"
       id="rect910"
       d="m -394.80566,-914.41699 v 132.11133 h 34.04883 l 19.14258,-37.58594 c -11.51439,-5.24875 -18.86221,-16.40725 -18.87891,-28.66992 7.6e-4,-17.54467 14.77763,-31.76716 33.00586,-31.76758 18.22823,4.2e-4 33.0051,14.22291 33.00586,31.76758 -0.0112,12.18259 -7.25948,23.28609 -18.6582,28.58203 l 19.50781,37.67383 h 28.16602 v -132.11133 z"
       style="fill:#ff3eb2;fill-opacity:1;stroke:none;stroke-width:1.33333337;stroke-linecap:round;stroke-linejoin:round;stroke-miterlimit:4;stroke-dasharray:none;stroke-dashoffset:0;stroke-opacity:1" />
    <path
       sodipodi:nodetypes="cccccccccccc"
       inkscape:connector-curvature="0"
       id="rect910-9"
       d="m -240.4078,-781.32012 0.42373,133.80625 11.5912,-0.42373 19.14258,-37.58594 c -11.51439,-5.24875 -18.86221,-16.40725 -18.87891,-28.66992 7.6e-4,-17.54467 14.77763,-31.76716 33.00586,-31.76758 18.22823,4.2e-4 33.00511,14.22291 33.00587,31.76758 -0.0112,12.18259 -7.25949,23.28609 -18.65821,28.58203 l 19.50782,37.67383 33.6291,-0.73769 v -131.83344 z"
       style="fill:#ff3eb2;fill-opacity:1;stroke:none;stroke-width:1.33333337;stroke-linecap:round;stroke-linejoin:round;stroke-miterlimit:4;stroke-dasharray:none;stroke-dashoffset:0;stroke-opacity:1" />
    <path
       sodipodi:nodetypes="cccccccccccc"
       inkscape:connector-curvature="0"
       id="rect910-9-3"
       d="m -128.5629,-894.1893 0.92414,113.68057 32.277224,-1.06075 19.14258,-37.58595 c -11.51439,-5.24875 -18.86221,-16.40725 -18.87891,-28.66992 7.6e-4,-17.54467 14.77763,-31.76716 33.00586,-31.76758 18.22823,4.2e-4 33.005111,14.22291 33.005871,31.76758 -0.0112,12.18259 -7.25949,23.28609 -18.658211,28.58203 l 19.507821,37.67384 31.9341878,-0.31396 2.5423729,-112.34193 z"
       style="fill:#ff3eb2;fill-opacity:1;stroke:none;stroke-width:1.33333337;stroke-linecap:round;stroke-linejoin:round;stroke-miterlimit:4;stroke-dasharray:none;stroke-dashoffset:0;stroke-opacity:1" />
    <path
       sodipodi:nodetypes="cccccccccccc"
       inkscape:connector-curvature="0"
       id="rect910-9-0"
       d="m -375.06198,-628.79662 0.84746,114.31473 11.5912,-0.42373 19.14258,-37.58595 c -11.51439,-5.24875 -18.86221,-16.40725 -18.87891,-28.66992 7.6e-4,-17.54467 14.77763,-31.76716 33.00586,-31.76758 18.22823,4.2e-4 33.00511,14.22291 33.00587,31.76758 -0.0112,12.18259 -7.25949,23.28609 -18.65821,28.58203 l 19.50782,37.67384 33.62911,-0.73769 -0.42373,-112.34192 z"
       style="fill:#ff3eb2;fill-opacity:1;stroke:none;stroke-width:1.33333337;stroke-linecap:round;stroke-linejoin:round;stroke-miterlimit:4;stroke-dasharray:none;stroke-dashoffset:0;stroke-opacity:1" />
    <path
       sodipodi:nodetypes="cccccccccccc"
       inkscape:connector-curvature="0"
       id="rect910-9-6"
       d="m -127.63876,-648.67529 0.42373,133.80625 31.231517,-0.0814 19.14258,-37.58594 c -11.51439,-5.24875 -18.86221,-16.40725 -18.87891,-28.66992 7.6e-4,-17.54467 14.77763,-31.76716 33.00586,-31.76758 18.22823,4.2e-4 33.00511,14.22291 33.00587,31.76758 -0.0112,12.18259 -7.25949,23.28609 -18.65821,28.58203 l 19.50782,37.67383 34.0528389,0.5335 v -131.83344 z"
       style="fill:#ff3eb2;fill-opacity:1;stroke:none;stroke-width:1.33333337;stroke-linecap:round;stroke-linejoin:round;stroke-miterlimit:4;stroke-dasharray:none;stroke-dashoffset:0;stroke-opacity:1" />
  </g>
  <g
     aria-label="FPSAC 2020 "
     style="font-style:normal;font-weight:normal;font-size:24.89588928px;line-height:1.25;font-family:sans-serif;letter-spacing:0px;word-spacing:0px;fill:#ff3eb2;fill-opacity:1;stroke:none;stroke-width:0.37343833"
     id="text1083"
     transform="translate(-27.106873,-18.070603)">
    <path
       d="m 91.09017,18.827114 h 10.43002 v 2.066553 h -7.974469 v 5.348727 h 7.196469 v 2.066553 h -7.196469 v 8.667368 H 91.09017 Z"
       style="font-size:24.89588928px;fill:#ff3eb2;fill-opacity:1;stroke:none;stroke-width:0.37343833"
       id="path1469"
       inkscape:connector-curvature="0" />
    <path
       d="m 107.89003,20.845043 v 6.819625 h 3.08768 q 1.71402,0 2.65005,-0.887402 0.93602,-0.887402 0.93602,-2.528489 0,-1.62893 -0.93602,-2.516332 -0.93603,-0.887402 -2.65005,-0.887402 z m -2.45555,-2.017929 h 5.54323 q 3.0512,0 4.60719,1.385806 1.56815,1.37365 1.56815,4.035857 0,2.68652 -1.56815,4.06017 -1.55599,1.37365 -4.60719,1.37365 h -3.08768 v 7.293718 h -2.45555 z"
       style="font-size:24.89588928px;fill:#ff3eb2;fill-opacity:1;stroke:none;stroke-width:0.37343833"
       id="path1471"
       inkscape:connector-curvature="0" />
    <path
       d="m 131.33933,19.422768 v 2.39477 q -1.39796,-0.668591 -2.63789,-0.996808 -1.23993,-0.328217 -2.39477,-0.328217 -2.00577,0 -3.09983,0.777996 -1.0819,0.777997 -1.0819,2.212428 0,1.203463 0.71721,1.823429 0.72938,0.60781 2.7473,0.984652 l 1.48306,0.303905 q 2.7473,0.522717 4.04801,1.847742 1.31287,1.312869 1.31287,3.525297 0,2.637894 -1.7748,3.999388 -1.76265,1.361494 -5.17854,1.361494 -1.28856,0 -2.7473,-0.291748 -1.44659,-0.291749 -3.00258,-0.86309 v -2.528489 q 1.49521,0.838777 2.92964,1.264244 1.43443,0.425467 2.82024,0.425467 2.10302,0 3.2457,-0.826621 1.14268,-0.826622 1.14268,-2.358302 0,-1.337182 -0.82662,-2.090866 -0.81446,-0.753684 -2.68652,-1.130526 l -1.49521,-0.291749 q -2.7473,-0.547029 -3.97507,-1.714023 -1.22778,-1.166995 -1.22778,-3.245705 0,-2.406927 1.68971,-3.792733 1.70187,-1.385806 4.68014,-1.385806 1.2764,0 2.60142,0.230967 1.32503,0.230968 2.71083,0.692904 z"
       style="font-size:24.89588928px;fill:#ff3eb2;fill-opacity:1;stroke:none;stroke-width:0.37343833"
       id="path1473"
       inkscape:connector-curvature="0" />
    <path
       d="m 142.81478,21.246197 -3.33079,9.032054 h 6.67375 z m -1.3858,-2.419083 h 2.78377 l 6.91687,18.149201 h -2.5528 l -1.65324,-4.655823 h -8.18112 l -1.65324,4.655823 h -2.58927 z"
       style="font-size:24.89588928px;fill:#ff3eb2;fill-opacity:1;stroke:none;stroke-width:0.37343833"
       id="path1475"
       inkscape:connector-curvature="0" />
    <path
       d="m 166.92052,20.225077 v 2.589269 q -1.23993,-1.154838 -2.65005,-1.72618 -1.39796,-0.571341 -2.97827,-0.571341 -3.11198,0 -4.76523,1.908523 -1.65324,1.896367 -1.65324,5.494601 0,3.586077 1.65324,5.4946 1.65325,1.896367 4.76523,1.896367 1.58031,0 2.97827,-0.571342 1.41012,-0.571341 2.65005,-1.726179 v 2.564957 q -1.28856,0.875246 -2.73514,1.312869 -1.43444,0.437623 -3.03905,0.437623 -4.12095,0 -6.49141,-2.516332 -2.37046,-2.528489 -2.37046,-6.892563 0,-4.376231 2.37046,-6.892564 2.37046,-2.528488 6.49141,-2.528488 1.62893,0 3.06336,0.437623 1.44659,0.425467 2.71083,1.288557 z"
       style="font-size:24.89588928px;fill:#ff3eb2;fill-opacity:1;stroke:none;stroke-width:0.37343833"
       id="path1477"
       inkscape:connector-curvature="0" />
    <path
       d="m 180.99739,34.909761 h 8.57012 v 2.066554 h -11.52407 v -2.066554 q 1.39796,-1.446587 3.80489,-3.877826 2.41908,-2.443396 3.03905,-3.148455 1.17915,-1.325025 1.64108,-2.23674 0.47409,-0.923871 0.47409,-1.811273 0,-1.446588 -1.02112,-2.358302 -1.00896,-0.911715 -2.63789,-0.911715 -1.15484,0 -2.4434,0.401154 -1.2764,0.401155 -2.73514,1.21562 V 19.70236 q 1.48306,-0.595653 2.77161,-0.899558 1.28856,-0.303905 2.3583,-0.303905 2.82024,0 4.4978,1.410118 1.67755,1.410119 1.67755,3.768421 0,1.11837 -0.42546,2.127334 -0.41332,0.996809 -1.51953,2.358302 -0.3039,0.35253 -1.93283,2.042241 -1.62893,1.677555 -4.59505,4.704448 z"
       style="font-size:24.89588928px;fill:#ff3eb2;fill-opacity:1;stroke:none;stroke-width:0.37343833"
       id="path1479"
       inkscape:connector-curvature="0" />
    <path
       d="m 199.98537,20.443888 q -1.89637,0 -2.85671,1.872054 -0.94818,1.859898 -0.94818,5.604007 0,3.731952 0.94818,5.604006 0.96034,1.859898 2.85671,1.859898 1.90852,0 2.85671,-1.859898 0.96033,-1.872054 0.96033,-5.604006 0,-3.744109 -0.96033,-5.604007 -0.94819,-1.872054 -2.85671,-1.872054 z m 0,-1.944991 q 3.0512,0 4.65582,2.419083 1.61678,2.406927 1.61678,7.001969 0,4.582885 -1.61678,7.001968 -1.60462,2.406927 -4.65582,2.406927 -3.05121,0 -4.66798,-2.406927 -1.60462,-2.419083 -1.60462,-7.001968 0,-4.595042 1.60462,-7.001969 1.61677,-2.419083 4.66798,-2.419083 z"
       style="font-size:24.89588928px;fill:#ff3eb2;fill-opacity:1;stroke:none;stroke-width:0.37343833"
       id="path1481"
       inkscape:connector-curvature="0" />
    <path
       d="m 212.70076,34.909761 h 8.57011 v 2.066554 H 209.7468 v -2.066554 q 1.39796,-1.446587 3.80489,-3.877826 2.41908,-2.443396 3.03905,-3.148455 1.17915,-1.325025 1.64108,-2.23674 0.4741,-0.923871 0.4741,-1.811273 0,-1.446588 -1.02112,-2.358302 -1.00897,-0.911715 -2.6379,-0.911715 -1.15484,0 -2.44339,0.401154 -1.2764,0.401155 -2.73515,1.21562 V 19.70236 q 1.48306,-0.595653 2.77161,-0.899558 1.28856,-0.303905 2.35831,-0.303905 2.82023,0 4.49779,1.410118 1.67755,1.410119 1.67755,3.768421 0,1.11837 -0.42546,2.127334 -0.41331,0.996809 -1.51953,2.358302 -0.3039,0.35253 -1.93283,2.042241 -1.62893,1.677555 -4.59504,4.704448 z"
       style="font-size:24.89588928px;fill:#ff3eb2;fill-opacity:1;stroke:none;stroke-width:0.37343833"
       id="path1483"
       inkscape:connector-curvature="0" />
    <path
       d="m 231.68874,20.443888 q -1.89637,0 -2.85671,1.872054 -0.94818,1.859898 -0.94818,5.604007 0,3.731952 0.94818,5.604006 0.96034,1.859898 2.85671,1.859898 1.90852,0 2.8567,-1.859898 0.96034,-1.872054 0.96034,-5.604006 0,-3.744109 -0.96034,-5.604007 -0.94818,-1.872054 -2.8567,-1.872054 z m 0,-1.944991 q 3.0512,0 4.65582,2.419083 1.61678,2.406927 1.61678,7.001969 0,4.582885 -1.61678,7.001968 -1.60462,2.406927 -4.65582,2.406927 -3.05121,0 -4.66798,-2.406927 -1.60462,-2.419083 -1.60462,-7.001968 0,-4.595042 1.60462,-7.001969 1.61677,-2.419083 4.66798,-2.419083 z"
       style="font-size:24.89588928px;fill:#ff3eb2;fill-opacity:1;stroke:none;stroke-width:0.37343833"
       id="path1485"
       inkscape:connector-curvature="0" />
  </g>
  <g
     aria-label="ONLINE "
     style="font-style:normal;font-weight:normal;font-size:9.9583559px;line-height:1.25;font-family:sans-serif;letter-spacing:0px;word-spacing:0px;fill:#ff3eb2;fill-opacity:1;stroke:none;stroke-width:0.37343833"
     id="text1091"
     transform="translate(-27.106873,-18.070603)">
    <path
       d="m 104.71264,48.433116 q -4.38595,0 -6.977653,3.26953 -2.571765,3.269531 -2.571765,8.911465 0,5.621998 2.571765,8.891529 2.591703,3.269531 6.977653,3.269531 4.38596,0 6.93779,-3.269531 2.57176,-3.269531 2.57176,-8.891529 0,-5.641934 -2.57176,-8.911465 -2.55183,-3.26953 -6.93779,-3.26953 z m 0,-3.269531 q 6.25996,0 10.00796,4.20653 3.748,4.186595 3.748,11.243996 0,7.037466 -3.748,11.243996 -3.748,4.186594 -10.00796,4.186594 -6.279887,0 -10.047822,-4.186594 -3.747998,-4.186594 -3.747998,-11.243996 0,-7.057401 3.747998,-11.243996 3.767935,-4.20653 10.047822,-4.20653 z"
       style="font-size:40.82926178px;fill:#ff3eb2;fill-opacity:1;stroke:none;stroke-width:0.37343833"
       id="path1488"
       inkscape:connector-curvature="0" />
    <path
       d="m 124.76843,45.701861 h 5.42263 L 143.3888,70.602129 V 45.701861 h 3.90749 v 29.764692 h -5.42264 L 128.67591,50.566285 v 24.900268 h -3.90748 z"
       style="font-size:40.82926178px;fill:#ff3eb2;fill-opacity:1;stroke:none;stroke-width:0.37343833"
       id="path1490"
       inkscape:connector-curvature="0" />
    <path
       d="m 155.31063,45.701861 h 4.0271 v 26.375544 h 14.49359 v 3.389148 h -18.52069 z"
       style="font-size:40.82926178px;fill:#ff3eb2;fill-opacity:1;stroke:none;stroke-width:0.37343833"
       id="path1492"
       inkscape:connector-curvature="0" />
    <path
       d="m 178.03785,45.701861 h 4.02711 v 29.764692 h -4.02711 z"
       style="font-size:40.82926178px;fill:#ff3eb2;fill-opacity:1;stroke:none;stroke-width:0.37343833"
       id="path1494"
       inkscape:connector-curvature="0" />
    <path
       d="m 190.0793,45.701861 h 5.42263 l 13.19774,24.900268 V 45.701861 h 3.90749 v 29.764692 h -5.42264 L 193.98678,50.566285 v 24.900268 h -3.90748 z"
       style="font-size:40.82926178px;fill:#ff3eb2;fill-opacity:1;stroke:none;stroke-width:0.37343833"
       id="path1496"
       inkscape:connector-curvature="0" />
    <path
       d="m 220.6215,45.701861 h 18.81974 v 3.389148 h -14.79263 v 8.811784 h 14.17461 v 3.389148 h -14.17461 v 10.785464 h 15.15148 v 3.389148 H 220.6215 Z"
       style="font-size:40.82926178px;fill:#ff3eb2;fill-opacity:1;stroke:none;stroke-width:0.37343833"
       id="path1498"
       inkscape:connector-curvature="0" />
  </g>
  <g
     id="text1116"
     style="font-style:normal;font-weight:normal;font-size:26.66666603px;line-height:1.25;font-family:sans-serif;letter-spacing:0px;word-spacing:0px;fill:#ff3eb2;fill-opacity:1;stroke:none"
     aria-label="What about Type B? "
     transform="matrix(0.10248948,0,0,0.10248948,123.10481,224.18391)">
    <path
       inkscape:connector-curvature="0"
       id="path1246"
       style="font-size:120px;fill:#ff3eb2;fill-opacity:1"
       d="m -456.22415,-1287.8286 h 11.95312 l 18.39844,73.9453 18.33984,-73.9453 h 13.30079 l 18.39843,73.9453 18.33985,-73.9453 h 12.01172 l -21.97266,87.4805 h -14.88281 l -18.45703,-75.9375 -18.63282,75.9375 h -14.88281 z" />
    <path
       inkscape:connector-curvature="0"
       id="path1248"
       style="font-size:120px;fill:#ff3eb2;fill-opacity:1"
       d="m -275.7554,-1239.9575 v 39.6094 h -10.78125 v -39.2579 q 0,-9.3164 -3.63281,-13.9453 -3.63282,-4.6289 -10.89844,-4.6289 -8.73047,0 -13.76953,5.5664 -5.03907,5.5664 -5.03907,15.1758 v 37.0899 h -10.83984 v -91.1719 h 10.83984 v 35.7422 q 3.86719,-5.918 9.08204,-8.8477 5.27343,-2.9297 12.1289,-2.9297 11.3086,0 17.10938,7.0313 5.80078,6.9726 5.80078,20.5664 z" />
    <path
       inkscape:connector-curvature="0"
       id="path1250"
       style="font-size:120px;fill:#ff3eb2;fill-opacity:1"
       d="m -224.31009,-1233.3364 q -13.06641,0 -18.10547,2.9883 -5.03906,2.9882 -5.03906,10.1953 0,5.7422 3.75,9.1406 3.80859,3.3398 10.3125,3.3398 8.96484,0 14.35547,-6.3281 5.44922,-6.3867 5.44922,-16.9336 v -2.4023 z m 21.50391,-4.4532 v 37.4415 h -10.78125 v -9.961 q -3.69141,5.9766 -9.19922,8.8477 -5.50781,2.8125 -13.47656,2.8125 -10.07813,0 -16.05469,-5.625 -5.91797,-5.6836 -5.91797,-15.1758 0,-11.0742 7.38281,-16.6992 7.44141,-5.625 22.14844,-5.625 h 15.11719 v -1.0547 q 0,-7.4414 -4.92188,-11.4844 -4.86328,-4.1016 -13.71094,-4.1016 -5.625,0 -10.95703,1.3477 -5.33203,1.3477 -10.2539,4.043 v -9.961 q 5.91797,-2.2851 11.48437,-3.3984 5.56641,-1.1719 10.83985,-1.1719 14.23828,0 21.26953,7.3828 7.03125,7.3828 7.03125,22.3828 z" />
    <path
       inkscape:connector-curvature="0"
       id="path1252"
       style="font-size:120px;fill:#ff3eb2;fill-opacity:1"
       d="m -169.8765,-1284.606 v 18.6329 h 22.20704 v 8.3789 h -22.20704 v 35.625 q 0,8.0273 2.16797,10.3125 2.22657,2.2851 8.96485,2.2851 h 11.07422 v 9.0235 h -11.07422 q -12.48047,0 -17.22657,-4.629 -4.74609,-4.6875 -4.74609,-16.9921 v -35.625 h -7.91016 v -8.3789 h 7.91016 v -18.6329 z" />
    <path
       inkscape:connector-curvature="0"
       id="path1254"
       style="font-size:120px;fill:#ff3eb2;fill-opacity:1"
       d="m -65.403839,-1233.3364 q -13.066406,0 -18.105469,2.9883 -5.039062,2.9882 -5.039062,10.1953 0,5.7422 3.75,9.1406 3.808593,3.3398 10.3125,3.3398 8.964843,0 14.355468,-6.3281 5.449219,-6.3867 5.449219,-16.9336 v -2.4023 z m 21.503906,-4.4532 v 37.4415 h -10.78125 v -9.961 q -3.691406,5.9766 -9.199219,8.8477 -5.507812,2.8125 -13.476562,2.8125 -10.078125,0 -16.054688,-5.625 -5.917968,-5.6836 -5.917968,-15.1758 0,-11.0742 7.382812,-16.6992 7.441406,-5.625 22.148438,-5.625 h 15.117187 v -1.0547 q 0,-7.4414 -4.921875,-11.4844 -4.863281,-4.1016 -13.710937,-4.1016 -5.625,0 -10.957032,1.3477 -5.332031,1.3477 -10.253906,4.043 v -9.961 q 5.917969,-2.2851 11.484375,-3.3984 5.566406,-1.1719 10.839844,-1.1719 14.238281,0 21.269531,7.3828 7.03125,7.3828 7.03125,22.3828 z" />
    <path
       inkscape:connector-curvature="0"
       id="path1256"
       style="font-size:120px;fill:#ff3eb2;fill-opacity:1"
       d="m 25.475067,-1233.1021 q 0,-11.8945 -4.921875,-18.6328 -4.863281,-6.7968 -13.4179686,-6.7968 -8.5546875,0 -13.4765625,6.7968 -4.8632809,6.7383 -4.8632809,18.6328 0,11.8946 4.8632809,18.6915 4.921875,6.7382 13.4765625,6.7382 8.5546876,0 13.4179686,-6.7382 4.921875,-6.7969 4.921875,-18.6915 z m -36.679687,-22.9101 q 3.3984371,-5.8594 8.5546871,-8.6719 5.2148438,-2.8711 12.421875,-2.8711 11.9531249,0 19.3945309,9.4922 7.5,9.4922 7.5,24.9609 0,15.4688 -7.5,24.961 -7.441406,9.4922 -19.3945309,9.4922 -7.2070312,0 -12.421875,-2.8125 -5.15625,-2.8711 -8.5546871,-8.7305 v 9.8438 h -10.839844 v -91.1719 h 10.839844 z" />
    <path
       inkscape:connector-curvature="0"
       id="path1258"
       style="font-size:120px;fill:#ff3eb2;fill-opacity:1"
       d="m 79.967255,-1258.4146 q -8.671875,0 -13.710938,6.7969 -5.039062,6.7383 -5.039062,18.5156 0,11.7774 4.980468,18.5743 5.039063,6.7382 13.769532,6.7382 8.613281,0 13.652343,-6.7968 5.039063,-6.7969 5.039063,-18.5157 0,-11.6601 -5.039063,-18.457 -5.039062,-6.8555 -13.652343,-6.8555 z m 0,-9.1406 q 14.0625,0 22.089845,9.1406 8.02734,9.1407 8.02734,25.3125 0,16.1133 -8.02734,25.3125 -8.027345,9.1407 -22.089845,9.1407 -14.121094,0 -22.148438,-9.1407 -7.96875,-9.1992 -7.96875,-25.3125 0,-16.1718 7.96875,-25.3125 8.027344,-9.1406 22.148438,-9.1406 z" />
    <path
       inkscape:connector-curvature="0"
       id="path1260"
       style="font-size:120px;fill:#ff3eb2;fill-opacity:1"
       d="m 126.78366,-1226.2466 v -39.7265 h 10.78125 v 39.3164 q 0,9.3164 3.63281,14.0039 3.63282,4.6289 10.89844,4.6289 8.73047,0 13.76953,-5.5664 5.09766,-5.5664 5.09766,-15.1758 v -37.207 h 10.78125 v 65.625 h -10.78125 v -10.0782 q -3.92578,5.9766 -9.14063,8.9063 -5.15625,2.8711 -12.01172,2.8711 -11.30859,0 -17.16796,-7.0313 -5.85938,-7.0312 -5.85938,-20.5664 z m 27.12891,-41.3086 z" />
    <path
       inkscape:connector-curvature="0"
       id="path1262"
       style="font-size:120px;fill:#ff3eb2;fill-opacity:1"
       d="m 214.73288,-1284.606 v 18.6329 h 22.20703 v 8.3789 h -22.20703 v 35.625 q 0,8.0273 2.16797,10.3125 2.22656,2.2851 8.96484,2.2851 h 11.07422 v 9.0235 h -11.07422 q -12.48047,0 -17.22656,-4.629 -4.74609,-4.6875 -4.74609,-16.9921 v -35.625 h -7.91016 v -8.3789 h 7.91016 v -18.6329 z" />
    <path
       inkscape:connector-curvature="0"
       id="path1264"
       style="font-size:120px;fill:#ff3eb2;fill-opacity:1"
       d="m 277.72116,-1287.8286 h 74.00391 v 9.9609 h -31.05469 v 77.5196 h -11.89453 v -77.5196 h -31.05469 z" />
    <path
       inkscape:connector-curvature="0"
       id="path1266"
       style="font-size:120px;fill:#ff3eb2;fill-opacity:1"
       d="m 371.29538,-1194.2544 q -4.57031,11.7188 -8.90625,15.293 -4.33594,3.5742 -11.60156,3.5742 h -8.61328 v -9.0234 h 6.32812 q 4.45313,0 6.91406,-2.1094 2.46094,-2.1094 5.44922,-9.961 l 1.9336,-4.9218 -26.54297,-64.5703 h 11.42578 l 20.50781,51.3281 20.50781,-51.3281 h 11.42578 z" />
    <path
       inkscape:connector-curvature="0"
       id="path1268"
       style="font-size:120px;fill:#ff3eb2;fill-opacity:1"
       d="m 425.436,-1210.1919 v 34.8047 h -10.83984 v -90.5859 H 425.436 v 9.9609 q 3.39844,-5.8594 8.55469,-8.6719 5.21485,-2.8711 12.42188,-2.8711 11.95312,0 19.39453,9.4922 7.5,9.4922 7.5,24.9609 0,15.4688 -7.5,24.961 -7.44141,9.4922 -19.39453,9.4922 -7.20703,0 -12.42188,-2.8125 -5.15625,-2.8711 -8.55469,-8.7305 z m 36.67969,-22.9102 q 0,-11.8945 -4.92187,-18.6328 -4.86328,-6.7968 -13.41797,-6.7968 -8.55469,0 -13.47656,6.7968 -4.86329,6.7383 -4.86329,18.6328 0,11.8946 4.86329,18.6915 4.92187,6.7382 13.47656,6.7382 8.55469,0 13.41797,-6.7382 4.92187,-6.7969 4.92187,-18.6915 z" />
    <path
       inkscape:connector-curvature="0"
       id="path1270"
       style="font-size:120px;fill:#ff3eb2;fill-opacity:1"
       d="m 547.311,-1235.856 v 5.2735 h -49.57031 q 0.70313,11.1328 6.67969,16.9922 6.03516,5.8007 16.75781,5.8007 6.21094,0 12.01172,-1.5234 5.85938,-1.5234 11.60156,-4.5703 v 10.1953 q -5.80078,2.4609 -11.89453,3.75 -6.09375,1.2891 -12.36328,1.2891 -15.70312,0 -24.90234,-9.1407 -9.14063,-9.1406 -9.14063,-24.7265 0,-16.1133 8.67188,-25.5469 8.73047,-9.4922 23.49609,-9.4922 13.24219,0 20.91797,8.5547 7.73437,8.4961 7.73437,23.1445 z m -10.78125,-3.164 q -0.11718,-8.8477 -4.98046,-14.1211 -4.80469,-5.2735 -12.77344,-5.2735 -9.02344,0 -14.47266,5.0977 -5.39062,5.0977 -6.21094,14.3555 z" />
    <path
       inkscape:connector-curvature="0"
       id="path1272"
       style="font-size:120px;fill:#ff3eb2;fill-opacity:1"
       d="m 615.51413,-1242.1255 v 32.0508 h 18.98437 q 9.55079,0 14.1211,-3.9258 4.6289,-3.9844 4.6289,-12.1289 0,-8.2031 -4.6289,-12.0703 -4.57031,-3.9258 -14.1211,-3.9258 z m 0,-35.9766 v 26.3672 h 17.51953 q 8.67188,0 12.89063,-3.2226 4.27734,-3.2813 4.27734,-9.961 0,-6.6211 -4.27734,-9.9023 -4.21875,-3.2813 -12.89063,-3.2813 z m -11.83594,-9.7265 h 30.23438 q 13.53515,0 20.85937,5.625 7.32422,5.625 7.32422,15.9961 0,8.0273 -3.75,12.7734 -3.75,4.7461 -11.01562,5.918 8.73046,1.875 13.53515,7.8515 4.86328,5.918 4.86328,14.8243 0,11.7187 -7.96875,18.1054 -7.96875,6.3868 -22.67578,6.3868 h -31.40625 z" />
    <path
       inkscape:connector-curvature="0"
       id="path1274"
       style="font-size:120px;fill:#ff3eb2;fill-opacity:1"
       d="m 697.07663,-1215.231 h 11.89453 v 14.8829 h -11.89453 z m 11.54297,-8.6132 h -11.19141 v -9.0235 q 0,-5.9179 1.64063,-9.7265 1.64062,-3.8086 6.91406,-8.8477 l 5.27344,-5.2148 q 3.33984,-3.1055 4.80468,-5.8594 1.52344,-2.7539 1.52344,-5.625 0,-5.2149 -3.86719,-8.4375 -3.80859,-3.2227 -10.13671,-3.2227 -4.62891,0 -9.90235,2.0508 -5.21484,2.0508 -10.89844,5.9766 v -11.0157 q 5.50782,-3.3398 11.13282,-4.9804 5.68359,-1.6406 11.71875,-1.6406 10.78125,0 17.28515,5.6835 6.5625,5.6836 6.5625,15 0,4.4532 -2.10937,8.4961 -2.10938,3.9844 -7.38281,9.0235 l -5.15625,5.039 q -2.75391,2.7539 -3.92579,4.336 -1.11328,1.5234 -1.58203,2.9883 -0.35156,1.2304 -0.52734,2.9882 -0.17578,1.7579 -0.17578,4.8047 z" />
  </g>
  <path
     style="color:#000000;font-style:normal;font-variant:normal;font-weight:normal;font-stretch:normal;font-size:medium;line-height:normal;font-family:sans-serif;font-variant-ligatures:normal;font-variant-position:normal;font-variant-caps:normal;font-variant-numeric:normal;font-variant-alternates:normal;font-feature-settings:normal;text-indent:0;text-align:start;text-decoration:none;text-decoration-line:none;text-decoration-style:solid;text-decoration-color:#000000;letter-spacing:normal;word-spacing:normal;text-transform:none;writing-mode:lr-tb;direction:ltr;text-orientation:mixed;dominant-baseline:auto;baseline-shift:baseline;text-anchor:start;white-space:normal;shape-padding:0;clip-rule:nonzero;display:inline;overflow:visible;visibility:visible;opacity:1;isolation:auto;mix-blend-mode:normal;color-interpolation:sRGB;color-interpolation-filters:linearRGB;solid-color:#000000;solid-opacity:1;vector-effect:none;fill:#ff3eb2;fill-opacity:1;fill-rule:nonzero;stroke:none;stroke-width:1.53734219;stroke-linecap:round;stroke-linejoin:round;stroke-miterlimit:4;stroke-dasharray:none;stroke-dashoffset:0;stroke-opacity:1;color-rendering:auto;image-rendering:auto;shape-rendering:auto;text-rendering:auto;enable-background:accumulate"
     d="M 207.15513,82.987974 68.5315,83.233494 c -3.249865,0.006 -5.891888,2.64178 -5.891888,5.89328 V 105.1637 c 0,3.25151 2.641365,5.89968 5.894682,5.89328 L 191.2076,110.81202 c 2.1626,3.8009 4.7082,5.79427 7.60577,6.73013 3.00275,0.96982 6.30093,0.8778 10.02688,0.88487 a 0.76874796,0.76874796 0 0 0 0.23379,-1.5016 c -3.46206,-1.09759 -5.24009,-1.68762 -6.05585,-2.43536 -0.40788,-0.37387 -0.64321,-0.78435 -0.83711,-1.4882 -0.14761,-0.53582 -0.24958,-1.29649 -0.3444,-2.19067 h 5.31985 c 3.25151,0 5.89329,-2.6415 5.89329,-5.89301 V 88.880974 c 0,-3.25151 -2.64155,-5.89873 -5.89469,-5.893 z m 0.003,1.53736 c 2.42478,-0.004 4.35454,1.92924 4.35454,4.35564 v 16.037206 c 0,2.42641 -1.92952,4.35566 -4.35593,4.35566 h -6.17623 a 0.76874796,0.76874796 0 0 0 -0.76561,0.83711 c 0.12169,1.36299 0.23954,2.41068 0.48433,3.29927 0.2448,0.88859 0.64777,1.63316 1.28039,2.21302 0.52524,0.48144 1.20353,0.84427 2.01554,1.19073 -1.71782,-0.0861 -3.29088,-0.27658 -4.70899,-0.7346 -2.65453,-0.85737 -4.88675,-2.57239 -6.96502,-6.40332 a 0.76874796,0.76874796 0 0 0 -0.67734,-0.40221 l -123.112383,0.24579 c -2.424592,0.005 -4.354255,-1.92952 -4.354255,-4.35593 V 89.126774 c 0,-2.42641 1.929283,-4.35163 4.357328,-4.35592 z"
     id="rect1120-5"
     inkscape:connector-curvature="0" />
  <g
     id="text1116-8"
     style="font-style:normal;font-weight:normal;font-size:26.66666603px;line-height:1.25;font-family:sans-serif;letter-spacing:0px;word-spacing:0px;fill:#ff3eb2;fill-opacity:1;stroke:none"
     aria-label="Is there a (q,t)-analogue?  "
     transform="matrix(0.10248948,0,0,0.10248948,112.92994,221.69359)">
    <path
       inkscape:connector-curvature="0"
       id="path1199"
       style="font-size:120px;fill:#ff3eb2;fill-opacity:1"
       d="m -1011.7195,-898.40356 h 11.83589 v 87.48046 h -11.83589 z" />
    <path
       inkscape:connector-curvature="0"
       id="path1201"
       style="font-size:120px;fill:#ff3eb2;fill-opacity:1"
       d="m -934.96173,-874.6145 v 10.19531 q -4.57031,-2.34375 -9.49219,-3.51562 -4.92187,-1.17188 -10.19531,-1.17188 -8.02734,0 -12.07031,2.46094 -3.98438,2.46094 -3.98438,7.38281 0,3.75 2.8711,5.91797 2.87109,2.10937 11.54296,4.04297 l 3.69141,0.82031 q 11.48438,2.46094 16.28906,6.97266 4.86328,4.45312 4.86328,12.48047 0,9.14062 -7.26562,14.47265 -7.20703,5.33203 -19.86328,5.33203 -5.27344,0 -11.01563,-1.05468 -5.68359,-0.9961 -12.01172,-3.04688 v -11.13281 q 5.97657,3.10547 11.77735,4.6875 5.80078,1.52344 11.48437,1.52344 7.61719,0 11.71875,-2.57813 4.10157,-2.63672 4.10157,-7.38281 0,-4.39453 -2.98829,-6.73828 -2.92968,-2.34375 -12.94921,-4.51172 l -3.75,-0.87891 q -10.01954,-2.10937 -14.47266,-6.44531 -4.45313,-4.39453 -4.45313,-12.01172 0,-9.25781 6.5625,-14.29687 6.5625,-5.03907 18.63282,-5.03907 5.97656,0 11.25,0.87891 5.27343,0.87891 9.72656,2.63672 z" />
    <path
       inkscape:connector-curvature="0"
       id="path1203"
       style="font-size:120px;fill:#ff3eb2;fill-opacity:1"
       d="m -865.35236,-895.18091 v 18.63281 h 22.20704 v 8.37891 h -22.20704 v 35.625 q 0,8.02734 2.16797,10.3125 2.22657,2.28516 8.96485,2.28516 h 11.07422 v 9.02343 h -11.07422 q -12.48047,0 -17.22657,-4.6289 -4.74609,-4.6875 -4.74609,-16.99219 v -35.625 h -7.91016 v -8.37891 h 7.91016 v -18.63281 z" />
    <path
       inkscape:connector-curvature="0"
       id="path1205"
       style="font-size:120px;fill:#ff3eb2;fill-opacity:1"
       d="m -774.35626,-850.53247 v 39.60937 h -10.78125 v -39.25781 q 0,-9.3164 -3.63281,-13.94531 -3.63282,-4.62891 -10.89844,-4.62891 -8.73047,0 -13.76953,5.56641 -5.03907,5.56641 -5.03907,15.17578 v 37.08984 h -10.83984 v -91.17187 h 10.83984 v 35.74219 q 3.86719,-5.91797 9.08204,-8.84766 5.27343,-2.92969 12.1289,-2.92969 11.3086,0 17.10938,7.03125 5.80078,6.97266 5.80078,20.56641 z" />
    <path
       inkscape:connector-curvature="0"
       id="path1207"
       style="font-size:120px;fill:#ff3eb2;fill-opacity:1"
       d="m -696.60236,-846.43091 v 5.27344 h -49.57031 q 0.70313,11.13281 6.67969,16.99219 6.03516,5.80078 16.75781,5.80078 6.21094,0 12.01172,-1.52344 5.85938,-1.52344 11.60156,-4.57031 v 10.19531 q -5.80078,2.46094 -11.89453,3.75 -6.09375,1.28906 -12.36328,1.28906 -15.70312,0 -24.90234,-9.14062 -9.14063,-9.14063 -9.14063,-24.72656 0,-16.11329 8.67188,-25.54688 8.73047,-9.49219 23.49609,-9.49219 13.24219,0 20.91797,8.55469 7.73437,8.49609 7.73437,23.14453 z m -10.78125,-3.16406 q -0.11718,-8.84766 -4.98046,-14.12109 -4.80469,-5.27344 -12.77344,-5.27344 -9.02344,0 -14.47266,5.09765 -5.39062,5.09766 -6.21094,14.35547 z" />
    <path
       inkscape:connector-curvature="0"
       id="path1209"
       style="font-size:120px;fill:#ff3eb2;fill-opacity:1"
       d="m -640.8797,-866.46997 q -1.81641,-1.05469 -3.98437,-1.52344 -2.10938,-0.52734 -4.6875,-0.52734 -9.14063,0 -14.0625,5.97656 -4.86329,5.91797 -4.86329,17.05078 v 34.57031 h -10.83984 v -65.625 h 10.83984 v 10.19532 q 3.39844,-5.97657 8.84766,-8.84766 5.44922,-2.92969 13.24219,-2.92969 1.11328,0 2.46094,0.17578 1.34765,0.11719 2.98828,0.41016 z" />
    <path
       inkscape:connector-curvature="0"
       id="path1211"
       style="font-size:120px;fill:#ff3eb2;fill-opacity:1"
       d="m -575.89923,-846.43091 v 5.27344 h -49.57031 q 0.70312,11.13281 6.67968,16.99219 6.03516,5.80078 16.75782,5.80078 6.21093,0 12.01172,-1.52344 5.85937,-1.52344 11.60156,-4.57031 v 10.19531 q -5.80078,2.46094 -11.89453,3.75 -6.09375,1.28906 -12.36328,1.28906 -15.70313,0 -24.90235,-9.14062 -9.14062,-9.14063 -9.14062,-24.72656 0,-16.11329 8.67187,-25.54688 8.73047,-9.49219 23.4961,-9.49219 13.24218,0 20.91796,8.55469 7.73438,8.49609 7.73438,23.14453 z m -10.78125,-3.16406 q -0.11719,-8.84766 -4.98047,-14.12109 -4.80469,-5.27344 -12.77344,-5.27344 -9.02343,0 -14.47265,5.09765 -5.39063,5.09766 -6.21094,14.35547 z" />
    <path
       inkscape:connector-curvature="0"
       id="path1213"
       style="font-size:120px;fill:#ff3eb2;fill-opacity:1"
       d="m -490.17657,-843.91138 q -13.06641,0 -18.10547,2.98828 -5.03907,2.98829 -5.03907,10.19532 0,5.74218 3.75,9.14062 3.8086,3.33985 10.3125,3.33985 8.96485,0 14.35547,-6.32813 5.44922,-6.38672 5.44922,-16.93359 v -2.40235 z m 21.5039,-4.45312 v 37.4414 h -10.78125 v -9.96093 q -3.6914,5.97656 -9.19922,8.84765 -5.50781,2.8125 -13.47656,2.8125 -10.07812,0 -16.05469,-5.625 -5.91797,-5.68359 -5.91797,-15.17578 0,-11.07422 7.38282,-16.69922 7.4414,-5.625 22.14843,-5.625 h 15.11719 v -1.05468 q 0,-7.44141 -4.92187,-11.48438 -4.86328,-4.10156 -13.71094,-4.10156 -5.625,0 -10.95703,1.34765 -5.33203,1.34766 -10.25391,4.04297 v -9.96093 q 5.91797,-2.28516 11.48438,-3.39844 5.5664,-1.17188 10.83984,-1.17188 14.23828,0 21.26953,7.38282 7.03125,7.38281 7.03125,22.38281 z" />
    <path
       inkscape:connector-curvature="0"
       id="path1215"
       style="font-size:120px;fill:#ff3eb2;fill-opacity:1"
       d="m -382.30548,-901.97778 q -7.85156,13.47656 -11.66016,26.66015 -3.80859,13.1836 -3.80859,26.71875 0,13.53516 3.80859,26.83594 3.86719,13.24219 11.66016,26.66016 h -9.375 q -8.78906,-13.76953 -13.18359,-27.07032 -4.33594,-13.30078 -4.33594,-26.42578 0,-13.0664 4.33594,-26.30859 4.33593,-13.24219 13.18359,-27.07031 z" />
    <path
       inkscape:connector-curvature="0"
       id="path1217"
       style="font-size:120px;fill:#ff3eb2;fill-opacity:1"
       d="m -354.88361,-843.677 q 0,11.89453 4.86329,18.6914 4.92187,6.73829 13.47656,6.73829 8.55469,0 13.47656,-6.73829 4.92188,-6.79687 4.92188,-18.6914 0,-11.89453 -4.92188,-18.63281 -4.92187,-6.79688 -13.47656,-6.79688 -8.55469,0 -13.47656,6.79688 -4.86329,6.73828 -4.86329,18.63281 z m 36.73829,22.91015 q -3.39844,5.85938 -8.61329,8.73047 -5.15625,2.8125 -12.42187,2.8125 -11.89453,0 -19.39453,-9.49218 -7.44141,-9.49219 -7.44141,-24.96094 0,-15.46875 7.44141,-24.96094 7.5,-9.49219 19.39453,-9.49219 7.26562,0 12.42187,2.8711 5.21485,2.8125 8.61329,8.67187 v -9.96094 h 10.78125 v 90.58594 h -10.78125 z" />
    <path
       inkscape:connector-curvature="0"
       id="path1219"
       style="font-size:120px;fill:#ff3eb2;fill-opacity:1"
       d="m -282.40314,-825.80591 h 12.36328 v 10.07813 l -9.60937,18.75 h -7.55859 l 4.80468,-18.75 z" />
    <path
       inkscape:connector-curvature="0"
       id="path1221"
       style="font-size:120px;fill:#ff3eb2;fill-opacity:1"
       d="m -236.28986,-895.18091 v 18.63281 h 22.20704 v 8.37891 h -22.20704 v 35.625 q 0,8.02734 2.16797,10.3125 2.22657,2.28516 8.96485,2.28516 h 11.07422 v 9.02343 h -11.07422 q -12.48047,0 -17.22657,-4.6289 -4.74609,-4.6875 -4.74609,-16.99219 v -35.625 h -7.91016 v -8.37891 h 7.91016 v -18.63281 z" />
    <path
       inkscape:connector-curvature="0"
       id="path1223"
       style="font-size:120px;fill:#ff3eb2;fill-opacity:1"
       d="m -201.54376,-901.97778 h 9.375 q 8.78906,13.82812 13.125,27.07031 4.39453,13.24219 4.39453,26.30859 0,13.125 -4.39453,26.42578 -4.33594,13.30079 -13.125,27.07032 h -9.375 q 7.79297,-13.41797 11.60156,-26.66016 3.86719,-13.30078 3.86719,-26.83594 0,-13.53515 -3.86719,-26.71875 -3.80859,-13.18359 -11.60156,-26.66015 z" />
    <path
       inkscape:connector-curvature="0"
       id="path1225"
       style="font-size:120px;fill:#ff3eb2;fill-opacity:1"
       d="m -158.41876,-848.59888 h 31.58203 v 9.60938 h -31.58203 z" />
    <path
       inkscape:connector-curvature="0"
       id="path1227"
       style="font-size:120px;fill:#ff3eb2;fill-opacity:1"
       d="m -79.78595,-843.91138 q -13.066406,0 -18.105468,2.98828 -5.039062,2.98829 -5.039062,10.19532 0,5.74218 3.749999,9.14062 3.808594,3.33985 10.3125,3.33985 8.964844,0 14.355469,-6.32813 5.449219,-6.38672 5.449219,-16.93359 v -2.40235 z m 21.503907,-4.45312 v 37.4414 h -10.78125 v -9.96093 q -3.691407,5.97656 -9.199219,8.84765 -5.507813,2.8125 -13.476563,2.8125 -10.078125,0 -16.054685,-5.625 -5.91797,-5.68359 -5.91797,-15.17578 0,-11.07422 7.38281,-16.69922 7.441408,-5.625 22.148439,-5.625 h 15.117188 v -1.05468 q 0,-7.44141 -4.921875,-11.48438 -4.863282,-4.10156 -13.710938,-4.10156 -5.625,0 -10.957031,1.34765 -5.332033,1.34766 -10.253903,4.04297 v -9.96093 q 5.91797,-2.28516 11.484372,-3.39844 5.566406,-1.17188 10.839843,-1.17188 14.238282,0 21.269532,7.38282 7.03125,7.38281 7.03125,22.38281 z" />
    <path
       inkscape:connector-curvature="0"
       id="path1229"
       style="font-size:120px;fill:#ff3eb2;fill-opacity:1"
       d="m 18.534363,-850.53247 v 39.60937 H 7.7531128 v -39.25781 q 0,-9.3164 -3.6328125,-13.94531 -3.63281251,-4.62891 -10.8984375,-4.62891 -8.7304688,0 -13.7695308,5.56641 -5.039063,5.56641 -5.039063,15.17578 v 37.08984 h -10.839844 v -65.625 h 10.839844 v 10.19532 q 3.867188,-5.91797 9.082031,-8.84766 5.273438,-2.92969 12.1289065,-2.92969 11.3085938,0 17.1093755,7.03125 5.800781,6.97266 5.800781,20.56641 z" />
    <path
       inkscape:connector-curvature="0"
       id="path1231"
       style="font-size:120px;fill:#ff3eb2;fill-opacity:1"
       d="m 69.979675,-843.91138 q -13.066406,0 -18.105468,2.98828 -5.039063,2.98829 -5.039063,10.19532 0,5.74218 3.75,9.14062 3.808594,3.33985 10.3125,3.33985 8.964844,0 14.355469,-6.32813 5.449219,-6.38672 5.449219,-16.93359 v -2.40235 z m 21.503907,-4.45312 v 37.4414 h -10.78125 v -9.96093 q -3.691407,5.97656 -9.199219,8.84765 -5.507813,2.8125 -13.476563,2.8125 -10.078125,0 -16.054687,-5.625 -5.917969,-5.68359 -5.917969,-15.17578 0,-11.07422 7.382813,-16.69922 7.441406,-5.625 22.148437,-5.625 h 15.117188 v -1.05468 q 0,-7.44141 -4.921875,-11.48438 -4.863282,-4.10156 -13.710938,-4.10156 -5.625,0 -10.957031,1.34765 -5.332031,1.34766 -10.253906,4.04297 v -9.96093 q 5.917968,-2.28516 11.484375,-3.39844 5.566406,-1.17188 10.839843,-1.17188 14.238282,0 21.269532,7.38282 7.03125,7.38281 7.03125,22.38281 z" />
    <path
       inkscape:connector-curvature="0"
       id="path1233"
       style="font-size:120px;fill:#ff3eb2;fill-opacity:1"
       d="m 113.74921,-902.09497 h 10.78125 v 91.17187 h -10.78125 z" />
    <path
       inkscape:connector-curvature="0"
       id="path1235"
       style="font-size:120px;fill:#ff3eb2;fill-opacity:1"
       d="m 172.46014,-868.9895 q -8.67187,0 -13.71093,6.79687 -5.03907,6.73828 -5.03907,18.51563 0,11.77734 4.98047,18.57422 5.03907,6.73828 13.76953,6.73828 8.61329,0 13.65235,-6.79688 5.03906,-6.79687 5.03906,-18.51562 0,-11.66016 -5.03906,-18.45703 -5.03906,-6.85547 -13.65235,-6.85547 z m 0,-9.14063 q 14.0625,0 22.08985,9.14063 8.02734,9.14062 8.02734,25.3125 0,16.11328 -8.02734,25.3125 -8.02735,9.14062 -22.08985,9.14062 -14.12109,0 -22.14843,-9.14062 -7.96875,-9.19922 -7.96875,-25.3125 0,-16.17188 7.96875,-25.3125 8.02734,-9.14063 22.14843,-9.14063 z" />
    <path
       inkscape:connector-curvature="0"
       id="path1237"
       style="font-size:120px;fill:#ff3eb2;fill-opacity:1"
       d="m 263.57343,-844.49731 q 0,-11.71875 -4.86329,-18.16407 -4.80468,-6.44531 -13.53515,-6.44531 -8.67188,0 -13.53516,6.44531 -4.80469,6.44532 -4.80469,18.16407 0,11.66015 4.80469,18.10546 4.86328,6.44532 13.53516,6.44532 8.73047,0 13.53515,-6.44532 4.86329,-6.44531 4.86329,-18.10546 z m 10.78125,25.42968 q 0,16.75782 -7.44141,24.90235 -7.44141,8.20312 -22.79297,8.20312 -5.68359,0 -10.72266,-0.8789 -5.03906,-0.82032 -9.78515,-2.57813 v -10.48828 q 4.74609,2.57812 9.375,3.80859 4.6289,1.23047 9.43359,1.23047 10.60547,0 15.87891,-5.5664 5.27344,-5.50782 5.27344,-16.69922 v -5.33203 q -3.33985,5.80078 -8.55469,8.67187 -5.21485,2.87109 -12.48047,2.87109 -12.07031,0 -19.45313,-9.19921 -7.38281,-9.19922 -7.38281,-24.375 0,-15.23438 7.38281,-24.4336 7.38282,-9.19922 19.45313,-9.19922 7.26562,0 12.48047,2.8711 5.21484,2.87109 8.55469,8.67187 v -9.96094 h 10.78125 z" />
    <path
       inkscape:connector-curvature="0"
       id="path1239"
       style="font-size:120px;fill:#ff3eb2;fill-opacity:1"
       d="m 295.44843,-836.82153 v -39.72657 h 10.78125 v 39.31641 q 0,9.31641 3.63281,14.00391 3.63281,4.6289 10.89844,4.6289 8.73046,0 13.76953,-5.5664 5.09765,-5.56641 5.09765,-15.17578 v -37.20704 h 10.78125 v 65.625 h -10.78125 v -10.07812 q -3.92578,5.97656 -9.14062,8.90625 -5.15625,2.87109 -12.01172,2.87109 -11.30859,0 -17.16797,-7.03125 -5.85937,-7.03125 -5.85937,-20.5664 z m 27.1289,-41.3086 z" />
    <path
       inkscape:connector-curvature="0"
       id="path1241"
       style="font-size:120px;fill:#ff3eb2;fill-opacity:1"
       d="m 428.86639,-846.43091 v 5.27344 h -49.57031 q 0.70313,11.13281 6.67969,16.99219 6.03516,5.80078 16.75781,5.80078 6.21094,0 12.01172,-1.52344 5.85938,-1.52344 11.60156,-4.57031 v 10.19531 q -5.80078,2.46094 -11.89453,3.75 -6.09375,1.28906 -12.36328,1.28906 -15.70312,0 -24.90234,-9.14062 -9.14063,-9.14063 -9.14063,-24.72656 0,-16.11329 8.67188,-25.54688 8.73047,-9.49219 23.49609,-9.49219 13.24219,0 20.91797,8.55469 7.73437,8.49609 7.73437,23.14453 z m -10.78125,-3.16406 q -0.11718,-8.84766 -4.98046,-14.12109 -4.80469,-5.27344 -12.77344,-5.27344 -9.02344,0 -14.47266,5.09765 -5.39062,5.09766 -6.21094,14.35547 z" />
    <path
       inkscape:connector-curvature="0"
       id="path1243"
       style="font-size:120px;fill:#ff3eb2;fill-opacity:1"
       d="m 458.16327,-825.80591 h 11.89453 v 14.88281 h -11.89453 z m 11.54297,-8.61328 h -11.19141 v -9.02344 q 0,-5.91797 1.64063,-9.72656 1.64062,-3.80859 6.91406,-8.84766 l 5.27344,-5.21484 q 3.33984,-3.10547 4.80468,-5.85937 1.52344,-2.75391 1.52344,-5.625 0,-5.21485 -3.86719,-8.4375 -3.80859,-3.22266 -10.13671,-3.22266 -4.62891,0 -9.90235,2.05078 -5.21484,2.05078 -10.89844,5.97656 v -11.01562 q 5.50782,-3.33985 11.13282,-4.98047 5.68359,-1.64063 11.71875,-1.64063 10.78125,0 17.28515,5.6836 6.5625,5.68359 6.5625,15 0,4.45312 -2.10937,8.49609 -2.10938,3.98438 -7.38281,9.02344 l -5.15625,5.03906 q -2.75391,2.75391 -3.92579,4.33594 -1.11328,1.52344 -1.58203,2.98828 -0.35156,1.23047 -0.52734,2.98828 -0.17578,1.75781 -0.17578,4.80469 z" />
  </g>
  <path
     style="color:#000000;font-style:normal;font-variant:normal;font-weight:normal;font-stretch:normal;font-size:medium;line-height:normal;font-family:sans-serif;font-variant-ligatures:normal;font-variant-position:normal;font-variant-caps:normal;font-variant-numeric:normal;font-variant-alternates:normal;font-feature-settings:normal;text-indent:0;text-align:start;text-decoration:none;text-decoration-line:none;text-decoration-style:solid;text-decoration-color:#000000;letter-spacing:normal;word-spacing:normal;text-transform:none;writing-mode:lr-tb;direction:ltr;text-orientation:mixed;dominant-baseline:auto;baseline-shift:baseline;text-anchor:start;white-space:normal;shape-padding:0;clip-rule:nonzero;display:inline;overflow:visible;visibility:visible;opacity:1;isolation:auto;mix-blend-mode:normal;color-interpolation:sRGB;color-interpolation-filters:linearRGB;solid-color:#000000;solid-opacity:1;vector-effect:none;fill:#ff3eb2;fill-opacity:1;fill-rule:nonzero;stroke:none;stroke-width:1.53734219;stroke-linecap:round;stroke-linejoin:round;stroke-miterlimit:4;stroke-dasharray:none;stroke-dashoffset:0;stroke-opacity:1;color-rendering:auto;image-rendering:auto;shape-rendering:auto;text-rendering:auto;enable-background:accumulate"
     d="m 172.16851,119.68096 -165.892687,0.2458 c -3.250027,0.005 -5.89188996,2.64159 -5.89188996,5.893 v 16.0372 c 0,3.25151 2.64178096,5.89329 5.89328696,5.89329 h 5.31985 c -0.09482,0.89412 -0.196791,1.65461 -0.344396,2.1904 -0.193901,0.70384 -0.429507,1.11432 -0.837389,1.48819 -0.815765,0.74774 -2.593513,1.33778 -6.05557,2.43536 a 0.76874796,0.76874796 0 0 0 0.233788,1.5016 c 3.725943,-0.007 7.02385,0.0849 10.026604,-0.88488 2.897936,-0.93596 5.4441,-2.92964 7.606888,-6.7315 l 149.943745,-0.24496 c 3.25001,-0.005 5.89189,-2.64151 5.89189,-5.89302 v -16.0372 c 0,-3.25151 -2.64125,-5.8981 -5.89412,-5.89328 z m 0.002,1.53735 c 2.42504,-0.004 4.35453,1.92953 4.35453,4.35593 v 16.0372 c 0,2.42642 -1.92914,4.35174 -4.35704,4.35566 l -150.380931,0.24579 a 0.76874796,0.76874796 0 0 0 -0.674268,0.40195 c -2.07827,3.83093 -4.310482,5.54595 -6.965021,6.40331 -1.417956,0.45796 -2.991096,0.64853 -4.708708,0.7346 0.811751,-0.34639 1.490144,-0.70939 2.015266,-1.19073 0.632616,-0.57986 1.035587,-1.32443 1.280383,-2.21302 0.244795,-0.88858 0.362361,-1.93627 0.484055,-3.29927 A 0.76874796,0.76874796 0 0 0 12.45317,146.21289 H 6.277217 c -2.426413,0 -4.355932,-1.92951 -4.355932,-4.35593 v -16.0372 c 0,-2.4264 1.929287,-4.3521 4.357049,-4.35564 z"
     id="rect1120-5-1"
     inkscape:connector-curvature="0" />
</svg>
