<?xml version="1.0" encoding="UTF-8" standalone="no"?>
<!-- Created with Inkscape (http://www.inkscape.org/) -->

<svg
   xmlns:dc="http://purl.org/dc/elements/1.1/"
   xmlns:cc="http://creativecommons.org/ns#"
   xmlns:rdf="http://www.w3.org/1999/02/22-rdf-syntax-ns#"
   xmlns:svg="http://www.w3.org/2000/svg"
   xmlns="http://www.w3.org/2000/svg"
   xmlns:sodipodi="http://sodipodi.sourceforge.net/DTD/sodipodi-0.dtd"
   xmlns:inkscape="http://www.inkscape.org/namespaces/inkscape"
   version="1.1"
   id="svg2"
   width="400"
   height="400"
   viewBox="0 0 400 400"
   sodipodi:docname="fpsac-tshirt.svg"
   inkscape:version="0.92.3 (2405546, 2018-03-11)">
  <metadata
     id="metadata8">
    <rdf:RDF>
      <cc:Work
         rdf:about="">
        <dc:format>image/svg+xml</dc:format>
        <dc:type
           rdf:resource="http://purl.org/dc/dcmitype/StillImage" />
        <dc:title></dc:title>
      </cc:Work>
    </rdf:RDF>
  </metadata>
  <defs
     id="defs6" />
  <sodipodi:namedview
     pagecolor="#ffffff"
     bordercolor="#666666"
     borderopacity="1"
     objecttolerance="10"
     gridtolerance="10"
     guidetolerance="10"
     inkscape:pageopacity="0"
     inkscape:pageshadow="2"
     inkscape:window-width="1920"
     inkscape:window-height="1025"
     id="namedview4"
     showgrid="false"
     inkscape:snap-center="true"
     inkscape:snap-global="true"
     inkscape:zoom="1.18"
     inkscape:cx="62.058299"
     inkscape:cy="61.382762"
     inkscape:window-x="0"
     inkscape:window-y="27"
     inkscape:window-maximized="1"
     inkscape:current-layer="svg2" />
  <g
     id="g1390"
     transform="matrix(0.14300973,0,0,0.14300973,120.02607,300.78208)">
    <g
       style="fill:#ff3eb2;fill-opacity:1;stroke:none"
       transform="translate(-309.20941,-1058.2616)"
       id="g1105">
      <path
         inkscape:connector-curvature="0"
         style="fill:#ff3eb2;fill-opacity:1;stroke:none;stroke-width:1.33333337;stroke-linecap:round;stroke-linejoin:round;stroke-miterlimit:4;stroke-dasharray:none;stroke-dashoffset:0;stroke-opacity:1"
         d="m -260.07227,-914.14062 v 14.38281 251.68164 h -118.64843 -16.28321 v 14.98047 118.40234 h 16.28321 V -633.0957 h 133.63086 v -14.98047 -251.68164 H 5.3925781 v -14.38281 H -245.08984 Z"
         id="rect873" />
      <path
         inkscape:connector-curvature="0"
         style="fill:#ff3eb2;fill-opacity:1;stroke:none;stroke-width:1.83601892;stroke-linecap:round;stroke-linejoin:round;stroke-miterlimit:4;stroke-dasharray:none;stroke-dashoffset:0;stroke-opacity:1"
         d="m -327.91188,-746.82496 c -18.22823,4.2e-4 -33.0051,14.22291 -33.00586,31.76758 0.0167,12.26267 7.36452,23.42117 18.87891,28.66992 l -18.35536,33.84435 65.31639,0.77549 -18.48642,-34.70773 c 11.39872,-5.29594 18.64703,-16.39944 18.6582,-28.58203 -7.6e-4,-17.54467 -14.77763,-31.76716 -33.00586,-31.76758 z"
         id="path888-7"
         sodipodi:nodetypes="cccccccc" />
      <path
         inkscape:connector-curvature="0"
         style="fill:#ff3eb2;fill-opacity:1;stroke:none;stroke-width:1.83601892;stroke-linecap:round;stroke-linejoin:round;stroke-miterlimit:4;stroke-dasharray:none;stroke-dashoffset:0;stroke-opacity:1"
         d="m -194.87994,-613.19376 a 33.006645,31.768896 0 0 0 -33.00586,31.76758 33.006645,31.768896 0 0 0 18.87891,28.66992 l -17.93164,36.38672 65.3164,1.19922 -18.91015,-37.67383 a 33.006645,31.768896 0 0 0 18.6582,-28.58203 33.006645,31.768896 0 0 0 -33.00586,-31.76758 z"
         id="path888-7-3" />
      <path
         inkscape:connector-curvature="0"
         style="fill:#ff3eb2;fill-opacity:1;stroke:none;stroke-width:1.83601892;stroke-linecap:round;stroke-linejoin:round;stroke-miterlimit:4;stroke-dasharray:none;stroke-dashoffset:0;stroke-opacity:1"
         d="m -61.248736,-746.82496 c -18.228227,4.2e-4 -33.005106,14.22291 -33.005861,31.76758 0.01674,12.26267 7.364521,23.42117 18.878911,28.66992 l -18.779099,33.84435 64.468944,1.19922 -17.215235,-35.13146 c 11.398718,-5.29594 18.647025,-16.39944 18.6582,-28.58203 -7.55e-4,-17.54467 -14.777634,-31.76716 -33.00586,-31.76758 z"
         id="path888-7-2"
         sodipodi:nodetypes="cccccccc" />
      <path
         inkscape:connector-curvature="0"
         style="fill:#ff3eb2;fill-opacity:1;stroke:none;stroke-width:1.83601892;stroke-linecap:round;stroke-linejoin:round;stroke-miterlimit:4;stroke-dasharray:none;stroke-dashoffset:0;stroke-opacity:1"
         d="m -194.87993,-880.45616 c -18.22823,4.2e-4 -33.0051,14.22291 -33.00586,31.76758 0.0167,12.26267 7.36452,23.42117 18.87891,28.66992 l -15.813,34.26808 61.07912,0.35176 -16.79151,-34.70773 c 11.39872,-5.29594 18.64703,-16.39944 18.6582,-28.58203 -7.6e-4,-17.54467 -14.77763,-31.76716 -33.00586,-31.76758 z"
         id="path888-7-1"
         sodipodi:nodetypes="cccccccc" />
      <path
         style="fill:#ff3eb2;fill-opacity:1;stroke:none;stroke-width:1.33333337;stroke-linecap:round;stroke-linejoin:round;stroke-miterlimit:4;stroke-dasharray:none;stroke-dashoffset:0;stroke-opacity:1"
         d="m -394.80566,-914.41699 v 132.11133 h 34.04883 l 19.14258,-37.58594 c -11.51439,-5.24875 -18.86221,-16.40725 -18.87891,-28.66992 7.6e-4,-17.54467 14.77763,-31.76716 33.00586,-31.76758 18.22823,4.2e-4 33.0051,14.22291 33.00586,31.76758 -0.0112,12.18259 -7.25948,23.28609 -18.6582,28.58203 l 19.50781,37.67383 h 28.16602 v -132.11133 z"
         id="rect910"
         inkscape:connector-curvature="0" />
      <path
         style="fill:#ff3eb2;fill-opacity:1;stroke:none;stroke-width:1.33333337;stroke-linecap:round;stroke-linejoin:round;stroke-miterlimit:4;stroke-dasharray:none;stroke-dashoffset:0;stroke-opacity:1"
         d="m -240.4078,-781.32012 0.42373,133.80625 11.5912,-0.42373 19.14258,-37.58594 c -11.51439,-5.24875 -18.86221,-16.40725 -18.87891,-28.66992 7.6e-4,-17.54467 14.77763,-31.76716 33.00586,-31.76758 18.22823,4.2e-4 33.00511,14.22291 33.00587,31.76758 -0.0112,12.18259 -7.25949,23.28609 -18.65821,28.58203 l 19.50782,37.67383 33.6291,-0.73769 v -131.83344 z"
         id="rect910-9"
         inkscape:connector-curvature="0"
         sodipodi:nodetypes="cccccccccccc" />
      <path
         style="fill:#ff3eb2;fill-opacity:1;stroke:none;stroke-width:1.33333337;stroke-linecap:round;stroke-linejoin:round;stroke-miterlimit:4;stroke-dasharray:none;stroke-dashoffset:0;stroke-opacity:1"
         d="m -128.5629,-894.1893 0.92414,113.68057 32.277224,-1.06075 19.14258,-37.58595 c -11.51439,-5.24875 -18.86221,-16.40725 -18.87891,-28.66992 7.6e-4,-17.54467 14.77763,-31.76716 33.00586,-31.76758 18.22823,4.2e-4 33.005111,14.22291 33.005871,31.76758 -0.0112,12.18259 -7.25949,23.28609 -18.658211,28.58203 l 19.507821,37.67384 31.9341878,-0.31396 2.5423729,-112.34193 z"
         id="rect910-9-3"
         inkscape:connector-curvature="0"
         sodipodi:nodetypes="cccccccccccc" />
      <path
         style="fill:#ff3eb2;fill-opacity:1;stroke:none;stroke-width:1.33333337;stroke-linecap:round;stroke-linejoin:round;stroke-miterlimit:4;stroke-dasharray:none;stroke-dashoffset:0;stroke-opacity:1"
         d="m -375.06198,-628.79662 0.84746,114.31473 11.5912,-0.42373 19.14258,-37.58595 c -11.51439,-5.24875 -18.86221,-16.40725 -18.87891,-28.66992 7.6e-4,-17.54467 14.77763,-31.76716 33.00586,-31.76758 18.22823,4.2e-4 33.00511,14.22291 33.00587,31.76758 -0.0112,12.18259 -7.25949,23.28609 -18.65821,28.58203 l 19.50782,37.67384 33.62911,-0.73769 -0.42373,-112.34192 z"
         id="rect910-9-0"
         inkscape:connector-curvature="0"
         sodipodi:nodetypes="cccccccccccc" />
      <path
         style="fill:#ff3eb2;fill-opacity:1;stroke:none;stroke-width:1.33333337;stroke-linecap:round;stroke-linejoin:round;stroke-miterlimit:4;stroke-dasharray:none;stroke-dashoffset:0;stroke-opacity:1"
         d="m -127.63876,-648.67529 0.42373,133.80625 31.231517,-0.0814 19.14258,-37.58594 c -11.51439,-5.24875 -18.86221,-16.40725 -18.87891,-28.66992 7.6e-4,-17.54467 14.77763,-31.76716 33.00586,-31.76758 18.22823,4.2e-4 33.00511,14.22291 33.00587,31.76758 -0.0112,12.18259 -7.25949,23.28609 -18.65821,28.58203 l 19.50782,37.67383 34.0528389,0.5335 v -131.83344 z"
         id="rect910-9-6"
         inkscape:connector-curvature="0"
         sodipodi:nodetypes="cccccccccccc" />
    </g>
    <text
       id="text1083"
       y="-1844.67"
       x="-219.42073"
       style="font-style:normal;font-weight:normal;font-size:174.08528137px;line-height:1.25;font-family:sans-serif;letter-spacing:0px;word-spacing:0px;fill:#ff3eb2;fill-opacity:1;stroke:none;stroke-width:2.61127925"
       xml:space="preserve"><tspan
         id="tspan1085"
         style="font-size:174.08528137px;fill:#ff3eb2;fill-opacity:1;stroke:none;stroke-width:2.61127925"
         y="-1844.67"
         x="-219.42073"
         sodipodi:role="line">FPSAC 2020 </tspan></text>
    <text
       id="text1091"
       y="-1575.5259"
       x="-219.57881"
       style="font-style:normal;font-weight:normal;font-size:69.63411713px;line-height:1.25;font-family:sans-serif;letter-spacing:0px;word-spacing:0px;fill:#ff3eb2;fill-opacity:1;stroke:none;stroke-width:2.61127925"
       xml:space="preserve"><tspan
         style="font-size:285.49987793px;fill:#ff3eb2;fill-opacity:1;stroke:none;stroke-width:2.61127925"
         y="-1575.5259"
         x="-219.57881"
         id="tspan1089"
         sodipodi:role="line">ONLINE</tspan><tspan
         style="fill:#ff3eb2;fill-opacity:1;stroke:none;stroke-width:2.61127925"
         id="tspan1093"
         y="-1409.6416"
         x="-219.57881"
         sodipodi:role="line" /></text>
    <g
       transform="matrix(0.71666089,0,0,0.71666089,211.07385,-440.6825)"
       aria-label="What about Type B?
"
       style="font-style:normal;font-weight:normal;font-size:26.66666603px;line-height:1.25;font-family:sans-serif;letter-spacing:0px;word-spacing:0px;fill:#ff3eb2;fill-opacity:1;stroke:none"
       id="text1116">
      <path
         d="m -456.22415,-1287.8286 h 11.95312 l 18.39844,73.9453 18.33984,-73.9453 h 13.30079 l 18.39843,73.9453 18.33985,-73.9453 h 12.01172 l -21.97266,87.4805 h -14.88281 l -18.45703,-75.9375 -18.63282,75.9375 h -14.88281 z"
         style="font-size:120px;fill:#ff3eb2;fill-opacity:1"
         id="path1246"
         inkscape:connector-curvature="0" />
      <path
         d="m -275.7554,-1239.9575 v 39.6094 h -10.78125 v -39.2579 q 0,-9.3164 -3.63281,-13.9453 -3.63282,-4.6289 -10.89844,-4.6289 -8.73047,0 -13.76953,5.5664 -5.03907,5.5664 -5.03907,15.1758 v 37.0899 h -10.83984 v -91.1719 h 10.83984 v 35.7422 q 3.86719,-5.918 9.08204,-8.8477 5.27343,-2.9297 12.1289,-2.9297 11.3086,0 17.10938,7.0313 5.80078,6.9726 5.80078,20.5664 z"
         style="font-size:120px;fill:#ff3eb2;fill-opacity:1"
         id="path1248"
         inkscape:connector-curvature="0" />
      <path
         d="m -224.31009,-1233.3364 q -13.06641,0 -18.10547,2.9883 -5.03906,2.9882 -5.03906,10.1953 0,5.7422 3.75,9.1406 3.80859,3.3398 10.3125,3.3398 8.96484,0 14.35547,-6.3281 5.44922,-6.3867 5.44922,-16.9336 v -2.4023 z m 21.50391,-4.4532 v 37.4415 h -10.78125 v -9.961 q -3.69141,5.9766 -9.19922,8.8477 -5.50781,2.8125 -13.47656,2.8125 -10.07813,0 -16.05469,-5.625 -5.91797,-5.6836 -5.91797,-15.1758 0,-11.0742 7.38281,-16.6992 7.44141,-5.625 22.14844,-5.625 h 15.11719 v -1.0547 q 0,-7.4414 -4.92188,-11.4844 -4.86328,-4.1016 -13.71094,-4.1016 -5.625,0 -10.95703,1.3477 -5.33203,1.3477 -10.2539,4.043 v -9.961 q 5.91797,-2.2851 11.48437,-3.3984 5.56641,-1.1719 10.83985,-1.1719 14.23828,0 21.26953,7.3828 7.03125,7.3828 7.03125,22.3828 z"
         style="font-size:120px;fill:#ff3eb2;fill-opacity:1"
         id="path1250"
         inkscape:connector-curvature="0" />
      <path
         d="m -169.8765,-1284.606 v 18.6329 h 22.20704 v 8.3789 h -22.20704 v 35.625 q 0,8.0273 2.16797,10.3125 2.22657,2.2851 8.96485,2.2851 h 11.07422 v 9.0235 h -11.07422 q -12.48047,0 -17.22657,-4.629 -4.74609,-4.6875 -4.74609,-16.9921 v -35.625 h -7.91016 v -8.3789 h 7.91016 v -18.6329 z"
         style="font-size:120px;fill:#ff3eb2;fill-opacity:1"
         id="path1252"
         inkscape:connector-curvature="0" />
      <path
         d="m -65.403839,-1233.3364 q -13.066406,0 -18.105469,2.9883 -5.039062,2.9882 -5.039062,10.1953 0,5.7422 3.75,9.1406 3.808593,3.3398 10.3125,3.3398 8.964843,0 14.355468,-6.3281 5.449219,-6.3867 5.449219,-16.9336 v -2.4023 z m 21.503906,-4.4532 v 37.4415 h -10.78125 v -9.961 q -3.691406,5.9766 -9.199219,8.8477 -5.507812,2.8125 -13.476562,2.8125 -10.078125,0 -16.054688,-5.625 -5.917968,-5.6836 -5.917968,-15.1758 0,-11.0742 7.382812,-16.6992 7.441406,-5.625 22.148438,-5.625 h 15.117187 v -1.0547 q 0,-7.4414 -4.921875,-11.4844 -4.863281,-4.1016 -13.710937,-4.1016 -5.625,0 -10.957032,1.3477 -5.332031,1.3477 -10.253906,4.043 v -9.961 q 5.917969,-2.2851 11.484375,-3.3984 5.566406,-1.1719 10.839844,-1.1719 14.238281,0 21.269531,7.3828 7.03125,7.3828 7.03125,22.3828 z"
         style="font-size:120px;fill:#ff3eb2;fill-opacity:1"
         id="path1254"
         inkscape:connector-curvature="0" />
      <path
         d="m 25.475067,-1233.1021 q 0,-11.8945 -4.921875,-18.6328 -4.863281,-6.7968 -13.4179686,-6.7968 -8.5546875,0 -13.4765625,6.7968 -4.8632809,6.7383 -4.8632809,18.6328 0,11.8946 4.8632809,18.6915 4.921875,6.7382 13.4765625,6.7382 8.5546876,0 13.4179686,-6.7382 4.921875,-6.7969 4.921875,-18.6915 z m -36.679687,-22.9101 q 3.3984371,-5.8594 8.5546871,-8.6719 5.2148438,-2.8711 12.421875,-2.8711 11.9531249,0 19.3945309,9.4922 7.5,9.4922 7.5,24.9609 0,15.4688 -7.5,24.961 -7.441406,9.4922 -19.3945309,9.4922 -7.2070312,0 -12.421875,-2.8125 -5.15625,-2.8711 -8.5546871,-8.7305 v 9.8438 h -10.839844 v -91.1719 h 10.839844 z"
         style="font-size:120px;fill:#ff3eb2;fill-opacity:1"
         id="path1256"
         inkscape:connector-curvature="0" />
      <path
         d="m 79.967255,-1258.4146 q -8.671875,0 -13.710938,6.7969 -5.039062,6.7383 -5.039062,18.5156 0,11.7774 4.980468,18.5743 5.039063,6.7382 13.769532,6.7382 8.613281,0 13.652343,-6.7968 5.039063,-6.7969 5.039063,-18.5157 0,-11.6601 -5.039063,-18.457 -5.039062,-6.8555 -13.652343,-6.8555 z m 0,-9.1406 q 14.0625,0 22.089845,9.1406 8.02734,9.1407 8.02734,25.3125 0,16.1133 -8.02734,25.3125 -8.027345,9.1407 -22.089845,9.1407 -14.121094,0 -22.148438,-9.1407 -7.96875,-9.1992 -7.96875,-25.3125 0,-16.1718 7.96875,-25.3125 8.027344,-9.1406 22.148438,-9.1406 z"
         style="font-size:120px;fill:#ff3eb2;fill-opacity:1"
         id="path1258"
         inkscape:connector-curvature="0" />
      <path
         d="m 126.78366,-1226.2466 v -39.7265 h 10.78125 v 39.3164 q 0,9.3164 3.63281,14.0039 3.63282,4.6289 10.89844,4.6289 8.73047,0 13.76953,-5.5664 5.09766,-5.5664 5.09766,-15.1758 v -37.207 h 10.78125 v 65.625 h -10.78125 v -10.0782 q -3.92578,5.9766 -9.14063,8.9063 -5.15625,2.8711 -12.01172,2.8711 -11.30859,0 -17.16796,-7.0313 -5.85938,-7.0312 -5.85938,-20.5664 z m 27.12891,-41.3086 z"
         style="font-size:120px;fill:#ff3eb2;fill-opacity:1"
         id="path1260"
         inkscape:connector-curvature="0" />
      <path
         d="m 214.73288,-1284.606 v 18.6329 h 22.20703 v 8.3789 h -22.20703 v 35.625 q 0,8.0273 2.16797,10.3125 2.22656,2.2851 8.96484,2.2851 h 11.07422 v 9.0235 h -11.07422 q -12.48047,0 -17.22656,-4.629 -4.74609,-4.6875 -4.74609,-16.9921 v -35.625 h -7.91016 v -8.3789 h 7.91016 v -18.6329 z"
         style="font-size:120px;fill:#ff3eb2;fill-opacity:1"
         id="path1262"
         inkscape:connector-curvature="0" />
      <path
         d="m 277.72116,-1287.8286 h 74.00391 v 9.9609 h -31.05469 v 77.5196 h -11.89453 v -77.5196 h -31.05469 z"
         style="font-size:120px;fill:#ff3eb2;fill-opacity:1"
         id="path1264"
         inkscape:connector-curvature="0" />
      <path
         d="m 371.29538,-1194.2544 q -4.57031,11.7188 -8.90625,15.293 -4.33594,3.5742 -11.60156,3.5742 h -8.61328 v -9.0234 h 6.32812 q 4.45313,0 6.91406,-2.1094 2.46094,-2.1094 5.44922,-9.961 l 1.9336,-4.9218 -26.54297,-64.5703 h 11.42578 l 20.50781,51.3281 20.50781,-51.3281 h 11.42578 z"
         style="font-size:120px;fill:#ff3eb2;fill-opacity:1"
         id="path1266"
         inkscape:connector-curvature="0" />
      <path
         d="m 425.436,-1210.1919 v 34.8047 h -10.83984 v -90.5859 H 425.436 v 9.9609 q 3.39844,-5.8594 8.55469,-8.6719 5.21485,-2.8711 12.42188,-2.8711 11.95312,0 19.39453,9.4922 7.5,9.4922 7.5,24.9609 0,15.4688 -7.5,24.961 -7.44141,9.4922 -19.39453,9.4922 -7.20703,0 -12.42188,-2.8125 -5.15625,-2.8711 -8.55469,-8.7305 z m 36.67969,-22.9102 q 0,-11.8945 -4.92187,-18.6328 -4.86328,-6.7968 -13.41797,-6.7968 -8.55469,0 -13.47656,6.7968 -4.86329,6.7383 -4.86329,18.6328 0,11.8946 4.86329,18.6915 4.92187,6.7382 13.47656,6.7382 8.55469,0 13.41797,-6.7382 4.92187,-6.7969 4.92187,-18.6915 z"
         style="font-size:120px;fill:#ff3eb2;fill-opacity:1"
         id="path1268"
         inkscape:connector-curvature="0" />
      <path
         d="m 547.311,-1235.856 v 5.2735 h -49.57031 q 0.70313,11.1328 6.67969,16.9922 6.03516,5.8007 16.75781,5.8007 6.21094,0 12.01172,-1.5234 5.85938,-1.5234 11.60156,-4.5703 v 10.1953 q -5.80078,2.4609 -11.89453,3.75 -6.09375,1.2891 -12.36328,1.2891 -15.70312,0 -24.90234,-9.1407 -9.14063,-9.1406 -9.14063,-24.7265 0,-16.1133 8.67188,-25.5469 8.73047,-9.4922 23.49609,-9.4922 13.24219,0 20.91797,8.5547 7.73437,8.4961 7.73437,23.1445 z m -10.78125,-3.164 q -0.11718,-8.8477 -4.98046,-14.1211 -4.80469,-5.2735 -12.77344,-5.2735 -9.02344,0 -14.47266,5.0977 -5.39062,5.0977 -6.21094,14.3555 z"
         style="font-size:120px;fill:#ff3eb2;fill-opacity:1"
         id="path1270"
         inkscape:connector-curvature="0" />
      <path
         d="m 615.51413,-1242.1255 v 32.0508 h 18.98437 q 9.55079,0 14.1211,-3.9258 4.6289,-3.9844 4.6289,-12.1289 0,-8.2031 -4.6289,-12.0703 -4.57031,-3.9258 -14.1211,-3.9258 z m 0,-35.9766 v 26.3672 h 17.51953 q 8.67188,0 12.89063,-3.2226 4.27734,-3.2813 4.27734,-9.961 0,-6.6211 -4.27734,-9.9023 -4.21875,-3.2813 -12.89063,-3.2813 z m -11.83594,-9.7265 h 30.23438 q 13.53515,0 20.85937,5.625 7.32422,5.625 7.32422,15.9961 0,8.0273 -3.75,12.7734 -3.75,4.7461 -11.01562,5.918 8.73046,1.875 13.53515,7.8515 4.86328,5.918 4.86328,14.8243 0,11.7187 -7.96875,18.1054 -7.96875,6.3868 -22.67578,6.3868 h -31.40625 z"
         style="font-size:120px;fill:#ff3eb2;fill-opacity:1"
         id="path1272"
         inkscape:connector-curvature="0" />
      <path
         d="m 697.07663,-1215.231 h 11.89453 v 14.8829 h -11.89453 z m 11.54297,-8.6132 h -11.19141 v -9.0235 q 0,-5.9179 1.64063,-9.7265 1.64062,-3.8086 6.91406,-8.8477 l 5.27344,-5.2148 q 3.33984,-3.1055 4.80468,-5.8594 1.52344,-2.7539 1.52344,-5.625 0,-5.2149 -3.86719,-8.4375 -3.80859,-3.2227 -10.13671,-3.2227 -4.62891,0 -9.90235,2.0508 -5.21484,2.0508 -10.89844,5.9766 v -11.0157 q 5.50782,-3.3398 11.13282,-4.9804 5.68359,-1.6406 11.71875,-1.6406 10.78125,0 17.28515,5.6835 6.5625,5.6836 6.5625,15 0,4.4532 -2.10937,8.4961 -2.10938,3.9844 -7.38281,9.0235 l -5.15625,5.039 q -2.75391,2.7539 -3.92579,4.336 -1.11328,1.5234 -1.58203,2.9883 -0.35156,1.2304 -0.52734,2.9882 -0.17578,1.7579 -0.17578,4.8047 z"
         style="font-size:120px;fill:#ff3eb2;fill-opacity:1"
         id="path1274"
         inkscape:connector-curvature="0" />
    </g>
    <path
       inkscape:connector-curvature="0"
       id="rect1120-5"
       d="m 798.79834,-1427.9995 -969.33008,1.7168 c -22.72478,0.04 -41.19921,18.4727 -41.19921,41.209 v 112.1386 c 0,22.7363 18.46983,41.2537 41.21875,41.209 l 857.79687,-1.7129 c 15.12211,26.5779 32.9223,40.5166 53.18359,47.0606 20.99685,6.7815 44.05947,6.1381 70.11329,6.1875 a 5.3754941,5.3754941 0 0 0 1.63476,-10.5 c -24.20854,-7.6749 -36.64145,-11.8007 -42.3457,-17.0293 -2.85213,-2.6143 -4.49766,-5.4846 -5.85352,-10.4063 -1.03218,-3.7467 -1.74517,-9.0657 -2.4082,-15.3183 h 37.19922 c 22.73625,0 41.20898,-18.4708 41.20898,-41.2071 v -112.1406 c 0,-22.7363 -18.47112,-41.2471 -41.21875,-41.207 z m 0.0195,10.75 c 16.95531,-0.03 30.44922,13.4903 30.44922,30.457 v 112.1406 c 0,16.9668 -13.49223,30.4571 -30.45898,30.4571 h -43.1875 a 5.3754941,5.3754941 0 0 0 -5.35352,5.8535 c 0.85095,9.5308 1.67499,16.8568 3.38672,23.0703 1.71173,6.2135 4.52953,11.4199 8.95313,15.4746 3.67276,3.3665 8.4157,5.9036 14.09375,8.3262 -12.01194,-0.6017 -23.0116,-1.934 -32.92774,-5.1367 -18.56194,-5.9952 -34.17075,-17.9875 -48.70312,-44.7754 a 5.3754941,5.3754941 0 0 0 -4.73633,-2.8125 l -860.86719,1.7187 c -16.95403,0.033 -30.44726,-13.4922 -30.44726,-30.459 v -112.1386 c 0,-16.9668 13.49057,-30.429 30.46875,-30.459 z"
       style="color:#000000;font-style:normal;font-variant:normal;font-weight:normal;font-stretch:normal;font-size:medium;line-height:normal;font-family:sans-serif;font-variant-ligatures:normal;font-variant-position:normal;font-variant-caps:normal;font-variant-numeric:normal;font-variant-alternates:normal;font-feature-settings:normal;text-indent:0;text-align:start;text-decoration:none;text-decoration-line:none;text-decoration-style:solid;text-decoration-color:#000000;letter-spacing:normal;word-spacing:normal;text-transform:none;writing-mode:lr-tb;direction:ltr;text-orientation:mixed;dominant-baseline:auto;baseline-shift:baseline;text-anchor:start;white-space:normal;shape-padding:0;clip-rule:nonzero;display:inline;overflow:visible;visibility:visible;opacity:1;isolation:auto;mix-blend-mode:normal;color-interpolation:sRGB;color-interpolation-filters:linearRGB;solid-color:#000000;solid-opacity:1;vector-effect:none;fill:#ff3eb2;fill-opacity:1;fill-rule:nonzero;stroke:none;stroke-width:10.74991322;stroke-linecap:round;stroke-linejoin:round;stroke-miterlimit:4;stroke-dasharray:none;stroke-dashoffset:0;stroke-opacity:1;color-rendering:auto;image-rendering:auto;shape-rendering:auto;text-rendering:auto;enable-background:accumulate" />
    <g
       transform="matrix(0.71666089,0,0,0.71666089,68.691889,-435.04999)"
       aria-label="Is there a (q,t)-analogue?

"
       style="font-style:normal;font-weight:normal;font-size:26.66666603px;line-height:1.25;font-family:sans-serif;letter-spacing:0px;word-spacing:0px;fill:#ff3eb2;fill-opacity:1;stroke:none"
       id="text1116-8">
      <path
         d="m -1011.7195,-898.40356 h 11.83589 v 87.48046 h -11.83589 z"
         style="font-size:120px;fill:#ff3eb2;fill-opacity:1"
         id="path1199"
         inkscape:connector-curvature="0" />
      <path
         d="m -934.96173,-874.6145 v 10.19531 q -4.57031,-2.34375 -9.49219,-3.51562 -4.92187,-1.17188 -10.19531,-1.17188 -8.02734,0 -12.07031,2.46094 -3.98438,2.46094 -3.98438,7.38281 0,3.75 2.8711,5.91797 2.87109,2.10937 11.54296,4.04297 l 3.69141,0.82031 q 11.48438,2.46094 16.28906,6.97266 4.86328,4.45312 4.86328,12.48047 0,9.14062 -7.26562,14.47265 -7.20703,5.33203 -19.86328,5.33203 -5.27344,0 -11.01563,-1.05468 -5.68359,-0.9961 -12.01172,-3.04688 v -11.13281 q 5.97657,3.10547 11.77735,4.6875 5.80078,1.52344 11.48437,1.52344 7.61719,0 11.71875,-2.57813 4.10157,-2.63672 4.10157,-7.38281 0,-4.39453 -2.98829,-6.73828 -2.92968,-2.34375 -12.94921,-4.51172 l -3.75,-0.87891 q -10.01954,-2.10937 -14.47266,-6.44531 -4.45313,-4.39453 -4.45313,-12.01172 0,-9.25781 6.5625,-14.29687 6.5625,-5.03907 18.63282,-5.03907 5.97656,0 11.25,0.87891 5.27343,0.87891 9.72656,2.63672 z"
         style="font-size:120px;fill:#ff3eb2;fill-opacity:1"
         id="path1201"
         inkscape:connector-curvature="0" />
      <path
         d="m -865.35236,-895.18091 v 18.63281 h 22.20704 v 8.37891 h -22.20704 v 35.625 q 0,8.02734 2.16797,10.3125 2.22657,2.28516 8.96485,2.28516 h 11.07422 v 9.02343 h -11.07422 q -12.48047,0 -17.22657,-4.6289 -4.74609,-4.6875 -4.74609,-16.99219 v -35.625 h -7.91016 v -8.37891 h 7.91016 v -18.63281 z"
         style="font-size:120px;fill:#ff3eb2;fill-opacity:1"
         id="path1203"
         inkscape:connector-curvature="0" />
      <path
         d="m -774.35626,-850.53247 v 39.60937 h -10.78125 v -39.25781 q 0,-9.3164 -3.63281,-13.94531 -3.63282,-4.62891 -10.89844,-4.62891 -8.73047,0 -13.76953,5.56641 -5.03907,5.56641 -5.03907,15.17578 v 37.08984 h -10.83984 v -91.17187 h 10.83984 v 35.74219 q 3.86719,-5.91797 9.08204,-8.84766 5.27343,-2.92969 12.1289,-2.92969 11.3086,0 17.10938,7.03125 5.80078,6.97266 5.80078,20.56641 z"
         style="font-size:120px;fill:#ff3eb2;fill-opacity:1"
         id="path1205"
         inkscape:connector-curvature="0" />
      <path
         d="m -696.60236,-846.43091 v 5.27344 h -49.57031 q 0.70313,11.13281 6.67969,16.99219 6.03516,5.80078 16.75781,5.80078 6.21094,0 12.01172,-1.52344 5.85938,-1.52344 11.60156,-4.57031 v 10.19531 q -5.80078,2.46094 -11.89453,3.75 -6.09375,1.28906 -12.36328,1.28906 -15.70312,0 -24.90234,-9.14062 -9.14063,-9.14063 -9.14063,-24.72656 0,-16.11329 8.67188,-25.54688 8.73047,-9.49219 23.49609,-9.49219 13.24219,0 20.91797,8.55469 7.73437,8.49609 7.73437,23.14453 z m -10.78125,-3.16406 q -0.11718,-8.84766 -4.98046,-14.12109 -4.80469,-5.27344 -12.77344,-5.27344 -9.02344,0 -14.47266,5.09765 -5.39062,5.09766 -6.21094,14.35547 z"
         style="font-size:120px;fill:#ff3eb2;fill-opacity:1"
         id="path1207"
         inkscape:connector-curvature="0" />
      <path
         d="m -640.8797,-866.46997 q -1.81641,-1.05469 -3.98437,-1.52344 -2.10938,-0.52734 -4.6875,-0.52734 -9.14063,0 -14.0625,5.97656 -4.86329,5.91797 -4.86329,17.05078 v 34.57031 h -10.83984 v -65.625 h 10.83984 v 10.19532 q 3.39844,-5.97657 8.84766,-8.84766 5.44922,-2.92969 13.24219,-2.92969 1.11328,0 2.46094,0.17578 1.34765,0.11719 2.98828,0.41016 z"
         style="font-size:120px;fill:#ff3eb2;fill-opacity:1"
         id="path1209"
         inkscape:connector-curvature="0" />
      <path
         d="m -575.89923,-846.43091 v 5.27344 h -49.57031 q 0.70312,11.13281 6.67968,16.99219 6.03516,5.80078 16.75782,5.80078 6.21093,0 12.01172,-1.52344 5.85937,-1.52344 11.60156,-4.57031 v 10.19531 q -5.80078,2.46094 -11.89453,3.75 -6.09375,1.28906 -12.36328,1.28906 -15.70313,0 -24.90235,-9.14062 -9.14062,-9.14063 -9.14062,-24.72656 0,-16.11329 8.67187,-25.54688 8.73047,-9.49219 23.4961,-9.49219 13.24218,0 20.91796,8.55469 7.73438,8.49609 7.73438,23.14453 z m -10.78125,-3.16406 q -0.11719,-8.84766 -4.98047,-14.12109 -4.80469,-5.27344 -12.77344,-5.27344 -9.02343,0 -14.47265,5.09765 -5.39063,5.09766 -6.21094,14.35547 z"
         style="font-size:120px;fill:#ff3eb2;fill-opacity:1"
         id="path1211"
         inkscape:connector-curvature="0" />
      <path
         d="m -490.17657,-843.91138 q -13.06641,0 -18.10547,2.98828 -5.03907,2.98829 -5.03907,10.19532 0,5.74218 3.75,9.14062 3.8086,3.33985 10.3125,3.33985 8.96485,0 14.35547,-6.32813 5.44922,-6.38672 5.44922,-16.93359 v -2.40235 z m 21.5039,-4.45312 v 37.4414 h -10.78125 v -9.96093 q -3.6914,5.97656 -9.19922,8.84765 -5.50781,2.8125 -13.47656,2.8125 -10.07812,0 -16.05469,-5.625 -5.91797,-5.68359 -5.91797,-15.17578 0,-11.07422 7.38282,-16.69922 7.4414,-5.625 22.14843,-5.625 h 15.11719 v -1.05468 q 0,-7.44141 -4.92187,-11.48438 -4.86328,-4.10156 -13.71094,-4.10156 -5.625,0 -10.95703,1.34765 -5.33203,1.34766 -10.25391,4.04297 v -9.96093 q 5.91797,-2.28516 11.48438,-3.39844 5.5664,-1.17188 10.83984,-1.17188 14.23828,0 21.26953,7.38282 7.03125,7.38281 7.03125,22.38281 z"
         style="font-size:120px;fill:#ff3eb2;fill-opacity:1"
         id="path1213"
         inkscape:connector-curvature="0" />
      <path
         d="m -382.30548,-901.97778 q -7.85156,13.47656 -11.66016,26.66015 -3.80859,13.1836 -3.80859,26.71875 0,13.53516 3.80859,26.83594 3.86719,13.24219 11.66016,26.66016 h -9.375 q -8.78906,-13.76953 -13.18359,-27.07032 -4.33594,-13.30078 -4.33594,-26.42578 0,-13.0664 4.33594,-26.30859 4.33593,-13.24219 13.18359,-27.07031 z"
         style="font-size:120px;fill:#ff3eb2;fill-opacity:1"
         id="path1215"
         inkscape:connector-curvature="0" />
      <path
         d="m -354.88361,-843.677 q 0,11.89453 4.86329,18.6914 4.92187,6.73829 13.47656,6.73829 8.55469,0 13.47656,-6.73829 4.92188,-6.79687 4.92188,-18.6914 0,-11.89453 -4.92188,-18.63281 -4.92187,-6.79688 -13.47656,-6.79688 -8.55469,0 -13.47656,6.79688 -4.86329,6.73828 -4.86329,18.63281 z m 36.73829,22.91015 q -3.39844,5.85938 -8.61329,8.73047 -5.15625,2.8125 -12.42187,2.8125 -11.89453,0 -19.39453,-9.49218 -7.44141,-9.49219 -7.44141,-24.96094 0,-15.46875 7.44141,-24.96094 7.5,-9.49219 19.39453,-9.49219 7.26562,0 12.42187,2.8711 5.21485,2.8125 8.61329,8.67187 v -9.96094 h 10.78125 v 90.58594 h -10.78125 z"
         style="font-size:120px;fill:#ff3eb2;fill-opacity:1"
         id="path1217"
         inkscape:connector-curvature="0" />
      <path
         d="m -282.40314,-825.80591 h 12.36328 v 10.07813 l -9.60937,18.75 h -7.55859 l 4.80468,-18.75 z"
         style="font-size:120px;fill:#ff3eb2;fill-opacity:1"
         id="path1219"
         inkscape:connector-curvature="0" />
      <path
         d="m -236.28986,-895.18091 v 18.63281 h 22.20704 v 8.37891 h -22.20704 v 35.625 q 0,8.02734 2.16797,10.3125 2.22657,2.28516 8.96485,2.28516 h 11.07422 v 9.02343 h -11.07422 q -12.48047,0 -17.22657,-4.6289 -4.74609,-4.6875 -4.74609,-16.99219 v -35.625 h -7.91016 v -8.37891 h 7.91016 v -18.63281 z"
         style="font-size:120px;fill:#ff3eb2;fill-opacity:1"
         id="path1221"
         inkscape:connector-curvature="0" />
      <path
         d="m -201.54376,-901.97778 h 9.375 q 8.78906,13.82812 13.125,27.07031 4.39453,13.24219 4.39453,26.30859 0,13.125 -4.39453,26.42578 -4.33594,13.30079 -13.125,27.07032 h -9.375 q 7.79297,-13.41797 11.60156,-26.66016 3.86719,-13.30078 3.86719,-26.83594 0,-13.53515 -3.86719,-26.71875 -3.80859,-13.18359 -11.60156,-26.66015 z"
         style="font-size:120px;fill:#ff3eb2;fill-opacity:1"
         id="path1223"
         inkscape:connector-curvature="0" />
      <path
         d="m -158.41876,-848.59888 h 31.58203 v 9.60938 h -31.58203 z"
         style="font-size:120px;fill:#ff3eb2;fill-opacity:1"
         id="path1225"
         inkscape:connector-curvature="0" />
      <path
         d="m -79.78595,-843.91138 q -13.066406,0 -18.105468,2.98828 -5.039062,2.98829 -5.039062,10.19532 0,5.74218 3.749999,9.14062 3.808594,3.33985 10.3125,3.33985 8.964844,0 14.355469,-6.32813 5.449219,-6.38672 5.449219,-16.93359 v -2.40235 z m 21.503907,-4.45312 v 37.4414 h -10.78125 v -9.96093 q -3.691407,5.97656 -9.199219,8.84765 -5.507813,2.8125 -13.476563,2.8125 -10.078125,0 -16.054685,-5.625 -5.91797,-5.68359 -5.91797,-15.17578 0,-11.07422 7.38281,-16.69922 7.441408,-5.625 22.148439,-5.625 h 15.117188 v -1.05468 q 0,-7.44141 -4.921875,-11.48438 -4.863282,-4.10156 -13.710938,-4.10156 -5.625,0 -10.957031,1.34765 -5.332033,1.34766 -10.253903,4.04297 v -9.96093 q 5.91797,-2.28516 11.484372,-3.39844 5.566406,-1.17188 10.839843,-1.17188 14.238282,0 21.269532,7.38282 7.03125,7.38281 7.03125,22.38281 z"
         style="font-size:120px;fill:#ff3eb2;fill-opacity:1"
         id="path1227"
         inkscape:connector-curvature="0" />
      <path
         d="m 18.534363,-850.53247 v 39.60937 H 7.7531128 v -39.25781 q 0,-9.3164 -3.6328125,-13.94531 -3.63281251,-4.62891 -10.8984375,-4.62891 -8.7304688,0 -13.7695308,5.56641 -5.039063,5.56641 -5.039063,15.17578 v 37.08984 h -10.839844 v -65.625 h 10.839844 v 10.19532 q 3.867188,-5.91797 9.082031,-8.84766 5.273438,-2.92969 12.1289065,-2.92969 11.3085938,0 17.1093755,7.03125 5.800781,6.97266 5.800781,20.56641 z"
         style="font-size:120px;fill:#ff3eb2;fill-opacity:1"
         id="path1229"
         inkscape:connector-curvature="0" />
      <path
         d="m 69.979675,-843.91138 q -13.066406,0 -18.105468,2.98828 -5.039063,2.98829 -5.039063,10.19532 0,5.74218 3.75,9.14062 3.808594,3.33985 10.3125,3.33985 8.964844,0 14.355469,-6.32813 5.449219,-6.38672 5.449219,-16.93359 v -2.40235 z m 21.503907,-4.45312 v 37.4414 h -10.78125 v -9.96093 q -3.691407,5.97656 -9.199219,8.84765 -5.507813,2.8125 -13.476563,2.8125 -10.078125,0 -16.054687,-5.625 -5.917969,-5.68359 -5.917969,-15.17578 0,-11.07422 7.382813,-16.69922 7.441406,-5.625 22.148437,-5.625 h 15.117188 v -1.05468 q 0,-7.44141 -4.921875,-11.48438 -4.863282,-4.10156 -13.710938,-4.10156 -5.625,0 -10.957031,1.34765 -5.332031,1.34766 -10.253906,4.04297 v -9.96093 q 5.917968,-2.28516 11.484375,-3.39844 5.566406,-1.17188 10.839843,-1.17188 14.238282,0 21.269532,7.38282 7.03125,7.38281 7.03125,22.38281 z"
         style="font-size:120px;fill:#ff3eb2;fill-opacity:1"
         id="path1231"
         inkscape:connector-curvature="0" />
      <path
         d="m 113.74921,-902.09497 h 10.78125 v 91.17187 h -10.78125 z"
         style="font-size:120px;fill:#ff3eb2;fill-opacity:1"
         id="path1233"
         inkscape:connector-curvature="0" />
      <path
         d="m 172.46014,-868.9895 q -8.67187,0 -13.71093,6.79687 -5.03907,6.73828 -5.03907,18.51563 0,11.77734 4.98047,18.57422 5.03907,6.73828 13.76953,6.73828 8.61329,0 13.65235,-6.79688 5.03906,-6.79687 5.03906,-18.51562 0,-11.66016 -5.03906,-18.45703 -5.03906,-6.85547 -13.65235,-6.85547 z m 0,-9.14063 q 14.0625,0 22.08985,9.14063 8.02734,9.14062 8.02734,25.3125 0,16.11328 -8.02734,25.3125 -8.02735,9.14062 -22.08985,9.14062 -14.12109,0 -22.14843,-9.14062 -7.96875,-9.19922 -7.96875,-25.3125 0,-16.17188 7.96875,-25.3125 8.02734,-9.14063 22.14843,-9.14063 z"
         style="font-size:120px;fill:#ff3eb2;fill-opacity:1"
         id="path1235"
         inkscape:connector-curvature="0" />
      <path
         d="m 263.57343,-844.49731 q 0,-11.71875 -4.86329,-18.16407 -4.80468,-6.44531 -13.53515,-6.44531 -8.67188,0 -13.53516,6.44531 -4.80469,6.44532 -4.80469,18.16407 0,11.66015 4.80469,18.10546 4.86328,6.44532 13.53516,6.44532 8.73047,0 13.53515,-6.44532 4.86329,-6.44531 4.86329,-18.10546 z m 10.78125,25.42968 q 0,16.75782 -7.44141,24.90235 -7.44141,8.20312 -22.79297,8.20312 -5.68359,0 -10.72266,-0.8789 -5.03906,-0.82032 -9.78515,-2.57813 v -10.48828 q 4.74609,2.57812 9.375,3.80859 4.6289,1.23047 9.43359,1.23047 10.60547,0 15.87891,-5.5664 5.27344,-5.50782 5.27344,-16.69922 v -5.33203 q -3.33985,5.80078 -8.55469,8.67187 -5.21485,2.87109 -12.48047,2.87109 -12.07031,0 -19.45313,-9.19921 -7.38281,-9.19922 -7.38281,-24.375 0,-15.23438 7.38281,-24.4336 7.38282,-9.19922 19.45313,-9.19922 7.26562,0 12.48047,2.8711 5.21484,2.87109 8.55469,8.67187 v -9.96094 h 10.78125 z"
         style="font-size:120px;fill:#ff3eb2;fill-opacity:1"
         id="path1237"
         inkscape:connector-curvature="0" />
      <path
         d="m 295.44843,-836.82153 v -39.72657 h 10.78125 v 39.31641 q 0,9.31641 3.63281,14.00391 3.63281,4.6289 10.89844,4.6289 8.73046,0 13.76953,-5.5664 5.09765,-5.56641 5.09765,-15.17578 v -37.20704 h 10.78125 v 65.625 h -10.78125 v -10.07812 q -3.92578,5.97656 -9.14062,8.90625 -5.15625,2.87109 -12.01172,2.87109 -11.30859,0 -17.16797,-7.03125 -5.85937,-7.03125 -5.85937,-20.5664 z m 27.1289,-41.3086 z"
         style="font-size:120px;fill:#ff3eb2;fill-opacity:1"
         id="path1239"
         inkscape:connector-curvature="0" />
      <path
         d="m 428.86639,-846.43091 v 5.27344 h -49.57031 q 0.70313,11.13281 6.67969,16.99219 6.03516,5.80078 16.75781,5.80078 6.21094,0 12.01172,-1.52344 5.85938,-1.52344 11.60156,-4.57031 v 10.19531 q -5.80078,2.46094 -11.89453,3.75 -6.09375,1.28906 -12.36328,1.28906 -15.70312,0 -24.90234,-9.14062 -9.14063,-9.14063 -9.14063,-24.72656 0,-16.11329 8.67188,-25.54688 8.73047,-9.49219 23.49609,-9.49219 13.24219,0 20.91797,8.55469 7.73437,8.49609 7.73437,23.14453 z m -10.78125,-3.16406 q -0.11718,-8.84766 -4.98046,-14.12109 -4.80469,-5.27344 -12.77344,-5.27344 -9.02344,0 -14.47266,5.09765 -5.39062,5.09766 -6.21094,14.35547 z"
         style="font-size:120px;fill:#ff3eb2;fill-opacity:1"
         id="path1241"
         inkscape:connector-curvature="0" />
      <path
         d="m 458.16327,-825.80591 h 11.89453 v 14.88281 h -11.89453 z m 11.54297,-8.61328 h -11.19141 v -9.02344 q 0,-5.91797 1.64063,-9.72656 1.64062,-3.80859 6.91406,-8.84766 l 5.27344,-5.21484 q 3.33984,-3.10547 4.80468,-5.85937 1.52344,-2.75391 1.52344,-5.625 0,-5.21485 -3.86719,-8.4375 -3.80859,-3.22266 -10.13671,-3.22266 -4.62891,0 -9.90235,2.05078 -5.21484,2.05078 -10.89844,5.97656 v -11.01562 q 5.50782,-3.33985 11.13282,-4.98047 5.68359,-1.64063 11.71875,-1.64063 10.78125,0 17.28515,5.6836 6.5625,5.68359 6.5625,15 0,4.45312 -2.10937,8.49609 -2.10938,3.98438 -7.38281,9.02344 l -5.15625,5.03906 q -2.75391,2.75391 -3.92579,4.33594 -1.11328,1.52344 -1.58203,2.98828 -0.35156,1.23047 -0.52734,2.98828 -0.17578,1.75781 -0.17578,4.80469 z"
         style="font-size:120px;fill:#ff3eb2;fill-opacity:1"
         id="path1243"
         inkscape:connector-curvature="0" />
    </g>
    <path
       inkscape:connector-curvature="0"
       id="rect1120-5-1"
       d="m 482.91944,-1148.3765 -1160.00977,1.7188 c -22.72591,0.034 -41.19922,18.4714 -41.19922,41.207 v 112.1406 c 0,22.7363 18.47273,41.209 41.20899,41.209 h 37.19921 c -0.66301,6.2522 -1.37607,11.5699 -2.4082,15.31642 -1.35586,4.92164 -3.00334,7.79194 -5.85547,10.40625 -5.70425,5.22861 -18.13521,9.35443 -42.34375,17.02929 a 5.3754941,5.3754941 0 0 0 1.63477,10.5 c 26.05377,-0.0495 49.11448,0.59399 70.11133,-6.1875 20.26391,-6.54477 38.06804,-20.48565 53.1914,-47.07026 l 1048.48633,-1.7129 c 22.72579,-0.037 41.19922,-18.4708 41.19922,-41.2071 v -112.1406 c 0,-22.7363 -18.46902,-41.2427 -41.21484,-41.209 z m 0.0156,10.75 c 16.95714,-0.025 30.44922,13.4923 30.44922,30.459 v 112.1406 c 0,16.9668 -13.48963,30.4297 -30.4668,30.4571 l -1051.54492,1.7187 a 5.3754941,5.3754941 0 0 0 -4.71484,2.8106 c -14.53237,26.78795 -30.14118,38.78027 -48.70313,44.77535 -9.9151,3.20234 -20.91533,4.53488 -32.92578,5.13672 5.67619,-2.42215 10.41987,-4.96043 14.0918,-8.32618 4.42359,-4.05473 7.24138,-9.26114 8.95312,-15.47461 1.71174,-6.21348 2.53382,-13.53948 3.38477,-23.07028 a 5.3754941,5.3754941 0 0 0 -5.35352,-5.8516 h -43.18554 c -16.96677,0 -30.45899,-13.4922 -30.45899,-30.459 v -112.1406 c 0,-16.9667 13.4906,-30.4322 30.4668,-30.457 z"
       style="color:#000000;font-style:normal;font-variant:normal;font-weight:normal;font-stretch:normal;font-size:medium;line-height:normal;font-family:sans-serif;font-variant-ligatures:normal;font-variant-position:normal;font-variant-caps:normal;font-variant-numeric:normal;font-variant-alternates:normal;font-feature-settings:normal;text-indent:0;text-align:start;text-decoration:none;text-decoration-line:none;text-decoration-style:solid;text-decoration-color:#000000;letter-spacing:normal;word-spacing:normal;text-transform:none;writing-mode:lr-tb;direction:ltr;text-orientation:mixed;dominant-baseline:auto;baseline-shift:baseline;text-anchor:start;white-space:normal;shape-padding:0;clip-rule:nonzero;display:inline;overflow:visible;visibility:visible;opacity:1;isolation:auto;mix-blend-mode:normal;color-interpolation:sRGB;color-interpolation-filters:linearRGB;solid-color:#000000;solid-opacity:1;vector-effect:none;fill:#ff3eb2;fill-opacity:1;fill-rule:nonzero;stroke:none;stroke-width:10.74991322;stroke-linecap:round;stroke-linejoin:round;stroke-miterlimit:4;stroke-dasharray:none;stroke-dashoffset:0;stroke-opacity:1;color-rendering:auto;image-rendering:auto;shape-rendering:auto;text-rendering:auto;enable-background:accumulate" />
  </g>
</svg>
