solid OpenSCAD_Model
  facet normal 0.990268 0 -0.139173
    outer loop
      vertex -25.1612 -19.32 6.52698
      vertex -25.7923 0.39 2.03622
      vertex -25.1612 0.39 6.52698
    endloop
  endfacet
  facet normal 0.990268 0 -0.139173
    outer loop
      vertex -25.7923 0.39 2.03622
      vertex -25.1612 -19.32 6.52698
      vertex -25.7923 -19.32 2.03622
    endloop
  endfacet
  facet normal 0 1 0
    outer loop
      vertex -22.8473 -19.32 6.09812
      vertex -25.7923 -19.32 2.03622
      vertex -25.1612 -19.32 6.52698
    endloop
  endfacet
  facet normal 0 1 -0
    outer loop
      vertex -16.0877 -19.32 0.672319
      vertex -22.8473 -19.32 6.09812
      vertex -15.4618 -19.32 5.1258
    endloop
  endfacet
  facet normal 0 1 0
    outer loop
      vertex -22.8473 -19.32 6.09812
      vertex -16.0877 -19.32 0.672319
      vertex -25.7923 -19.32 2.03622
    endloop
  endfacet
  facet normal -0.990268 0 0.139173
    outer loop
      vertex -16.0877 -19.32 0.672319
      vertex -15.4618 0.39 5.1258
      vertex -16.0877 0.39 0.672319
    endloop
  endfacet
  facet normal -0.990268 0 0.139173
    outer loop
      vertex -15.4618 0.39 5.1258
      vertex -16.0877 -19.32 0.672319
      vertex -15.4618 -19.32 5.1258
    endloop
  endfacet
  facet normal 0 -1 0
    outer loop
      vertex -25.7923 0.39 2.03622
      vertex -22.8473 0.39 6.09812
      vertex -25.1612 0.39 6.52698
    endloop
  endfacet
  facet normal 0 -1 0
    outer loop
      vertex -16.0877 0.39 0.672319
      vertex -22.8473 0.39 6.09812
      vertex -25.7923 0.39 2.03622
    endloop
  endfacet
  facet normal 0 -1 0
    outer loop
      vertex -22.8473 0.39 6.09812
      vertex -16.0877 0.39 0.672319
      vertex -15.4618 0.39 5.1258
    endloop
  endfacet
  facet normal 0.139173 0 0.990268
    outer loop
      vertex -25.7923 0.39 2.03622
      vertex -16.0877 -19.32 0.672319
      vertex -16.0877 0.39 0.672319
    endloop
  endfacet
  facet normal 0.139173 0 0.990268
    outer loop
      vertex -16.0877 -19.32 0.672319
      vertex -25.7923 0.39 2.03622
      vertex -25.7923 -19.32 2.03622
    endloop
  endfacet
  facet normal -0.990268 0 -0.139173
    outer loop
      vertex 25.7923 -19.32 2.03622
      vertex 25.1612 0.39 6.52698
      vertex 25.7923 0.39 2.03622
    endloop
  endfacet
  facet normal -0.990268 -0 -0.139173
    outer loop
      vertex 25.1612 0.39 6.52698
      vertex 25.7923 -19.32 2.03622
      vertex 25.1612 -19.32 6.52698
    endloop
  endfacet
  facet normal 0 1 0
    outer loop
      vertex 25.7923 -19.32 2.03622
      vertex 22.8473 -19.32 6.09812
      vertex 25.1612 -19.32 6.52698
    endloop
  endfacet
  facet normal 0 1 0
    outer loop
      vertex 16.0877 -19.32 0.672319
      vertex 22.8473 -19.32 6.09812
      vertex 25.7923 -19.32 2.03622
    endloop
  endfacet
  facet normal 0 1 0
    outer loop
      vertex 22.8473 -19.32 6.09812
      vertex 16.0877 -19.32 0.672319
      vertex 15.4618 -19.32 5.1258
    endloop
  endfacet
  facet normal 0.990268 -0 0.139173
    outer loop
      vertex 15.4618 -19.32 5.1258
      vertex 16.0877 0.39 0.672319
      vertex 15.4618 0.39 5.1258
    endloop
  endfacet
  facet normal 0.990268 0 0.139173
    outer loop
      vertex 16.0877 0.39 0.672319
      vertex 15.4618 -19.32 5.1258
      vertex 16.0877 -19.32 0.672319
    endloop
  endfacet
  facet normal 0 -1 0
    outer loop
      vertex 22.8473 0.39 6.09812
      vertex 25.7923 0.39 2.03622
      vertex 25.1612 0.39 6.52698
    endloop
  endfacet
  facet normal 0 -1 0
    outer loop
      vertex 16.0877 0.39 0.672319
      vertex 22.8473 0.39 6.09812
      vertex 15.4618 0.39 5.1258
    endloop
  endfacet
  facet normal 0 -1 -0
    outer loop
      vertex 22.8473 0.39 6.09812
      vertex 16.0877 0.39 0.672319
      vertex 25.7923 0.39 2.03622
    endloop
  endfacet
  facet normal -0.139173 0 0.990268
    outer loop
      vertex 16.0877 0.39 0.672319
      vertex 25.7923 -19.32 2.03622
      vertex 25.7923 0.39 2.03622
    endloop
  endfacet
  facet normal -0.139173 0 0.990268
    outer loop
      vertex 25.7923 -19.32 2.03622
      vertex 16.0877 0.39 0.672319
      vertex 16.0877 -19.32 0.672319
    endloop
  endfacet
  facet normal 0 -1 0
    outer loop
      vertex -26.289 -20.31 5.72205e-07
      vertex -22.8473 -20.31 6.09812
      vertex -26.289 -20.31 6.73601
    endloop
  endfacet
  facet normal 0 -1 0
    outer loop
      vertex -14.351 -20.31 5.72205e-07
      vertex -22.8473 -20.31 6.09812
      vertex -26.289 -20.31 5.72205e-07
    endloop
  endfacet
  facet normal 0 -1 0
    outer loop
      vertex -22.8473 -20.31 6.09812
      vertex -14.351 -20.31 5.72205e-07
      vertex -15.2664 -20.31 5.10008
    endloop
  endfacet
  facet normal 0 -1 0
    outer loop
      vertex -15.2664 -20.31 5.10008
      vertex -14.351 -20.31 5.72205e-07
      vertex -14.351 -20.31 5.02804
    endloop
  endfacet
  facet normal 0 -1 0
    outer loop
      vertex 14.351 -20.31 5.72205e-07
      vertex 15.2664 -20.31 5.10008
      vertex 14.351 -20.31 5.02804
    endloop
  endfacet
  facet normal 0 -1 0
    outer loop
      vertex 14.351 -20.31 5.72205e-07
      vertex 22.8473 -20.31 6.09812
      vertex 15.2664 -20.31 5.10008
    endloop
  endfacet
  facet normal 0 -1 0
    outer loop
      vertex 26.289 -20.31 5.72205e-07
      vertex 22.8473 -20.31 6.09812
      vertex 14.351 -20.31 5.72205e-07
    endloop
  endfacet
  facet normal 0 -1 0
    outer loop
      vertex 22.8473 -20.31 6.09812
      vertex 26.289 -20.31 5.72205e-07
      vertex 26.289 -20.31 6.73601
    endloop
  endfacet
  facet normal -0.0784625 -1.06785e-05 0.996917
    outer loop
      vertex 14.351 7.37214 5.02804
      vertex 15.2664 7.06694 5.10008
      vertex 14.6783 7.27519 5.05379
    endloop
  endfacet
  facet normal -0.078459 0 0.996917
    outer loop
      vertex 15.2664 7.06694 5.10008
      vertex 14.351 7.37214 5.02804
      vertex 14.351 -20.31 5.02804
    endloop
  endfacet
  facet normal -0.078459 0 0.996917
    outer loop
      vertex 15.2664 7.06694 5.10008
      vertex 14.351 -20.31 5.02804
      vertex 15.2664 -20.31 5.10008
    endloop
  endfacet
  facet normal -0.130526 0 0.991445
    outer loop
      vertex 21.5645 4.42281 5.92925
      vertex 22.8473 0.39 6.09812
      vertex 22.8473 3.72636 6.09812
    endloop
  endfacet
  facet normal -0.130526 -6.07272e-08 0.991445
    outer loop
      vertex 15.4618 0.39 5.1258
      vertex 21.5645 4.42281 5.92925
      vertex 19.32 5.49341 5.63375
    endloop
  endfacet
  facet normal -0.130526 -3.91913e-08 0.991445
    outer loop
      vertex 15.4618 0.39 5.1258
      vertex 19.32 5.49341 5.63375
      vertex 17.0225 6.44507 5.33127
    endloop
  endfacet
  facet normal -0.130526 4.22744e-08 0.991445
    outer loop
      vertex 21.5645 4.42281 5.92925
      vertex 15.4618 0.39 5.1258
      vertex 22.8473 0.39 6.09812
    endloop
  endfacet
  facet normal -0.130526 0 0.991445
    outer loop
      vertex 15.2664 -20.31 5.10008
      vertex 15.4618 0.39 5.1258
      vertex 15.2664 7.06694 5.10008
    endloop
  endfacet
  facet normal -0.130526 -2.09967e-08 0.991445
    outer loop
      vertex 15.2664 7.06694 5.10008
      vertex 15.4618 0.39 5.1258
      vertex 17.0225 6.44507 5.33127
    endloop
  endfacet
  facet normal -0.130526 0 0.991445
    outer loop
      vertex 15.4618 -19.32 5.1258
      vertex 22.8473 -20.31 6.09812
      vertex 22.8473 -19.32 6.09812
    endloop
  endfacet
  facet normal -0.130526 1.31997e-07 0.991445
    outer loop
      vertex 15.4618 -19.32 5.1258
      vertex 15.2664 -20.31 5.10008
      vertex 22.8473 -20.31 6.09812
    endloop
  endfacet
  facet normal -0.130526 0 0.991445
    outer loop
      vertex 15.4618 0.39 5.1258
      vertex 15.2664 -20.31 5.10008
      vertex 15.4618 -19.32 5.1258
    endloop
  endfacet
  facet normal 0.0784625 -1.06785e-05 0.996917
    outer loop
      vertex -15.2664 7.06694 5.10008
      vertex -14.351 7.37214 5.02804
      vertex -14.6783 7.27519 5.05379
    endloop
  endfacet
  facet normal 0.078459 0 0.996917
    outer loop
      vertex -14.351 7.37214 5.02804
      vertex -15.2664 7.06694 5.10008
      vertex -14.351 -20.31 5.02804
    endloop
  endfacet
  facet normal 0.078459 0 0.996917
    outer loop
      vertex -14.351 -20.31 5.02804
      vertex -15.2664 7.06694 5.10008
      vertex -15.2664 -20.31 5.10008
    endloop
  endfacet
  facet normal -0.182235 -5.6094e-08 0.983255
    outer loop
      vertex 23.75 3.23621 6.26543
      vertex 25.1612 0.39 6.52698
      vertex 25.8704 1.93685 6.65842
    endloop
  endfacet
  facet normal -0.182236 0 0.983255
    outer loop
      vertex 22.8473 0.39 6.09812
      vertex 23.75 3.23621 6.26543
      vertex 22.8473 3.72636 6.09812
    endloop
  endfacet
  facet normal -0.182235 -6.46208e-08 0.983255
    outer loop
      vertex 23.75 3.23621 6.26543
      vertex 22.8473 0.39 6.09812
      vertex 25.1612 0.39 6.52698
    endloop
  endfacet
  facet normal -0.182236 9.00842e-09 0.983255
    outer loop
      vertex 25.1612 0.39 6.52698
      vertex 26.289 1.64912 6.73601
      vertex 25.8704 1.93685 6.65842
    endloop
  endfacet
  facet normal -0.182235 0 0.983255
    outer loop
      vertex 26.289 1.64912 6.73601
      vertex 25.1612 0.39 6.52698
      vertex 26.289 -20.31 6.73601
    endloop
  endfacet
  facet normal -0.182235 0 0.983255
    outer loop
      vertex 25.1612 -19.32 6.52698
      vertex 26.289 -20.31 6.73601
      vertex 25.1612 0.39 6.52698
    endloop
  endfacet
  facet normal -0.182235 0 0.983255
    outer loop
      vertex 22.8473 -20.31 6.09812
      vertex 25.1612 -19.32 6.52698
      vertex 22.8473 -19.32 6.09812
    endloop
  endfacet
  facet normal -0.182235 8.7883e-08 0.983255
    outer loop
      vertex 25.1612 -19.32 6.52698
      vertex 22.8473 -20.31 6.09812
      vertex 26.289 -20.31 6.73601
    endloop
  endfacet
  facet normal 0.182236 0 0.983255
    outer loop
      vertex -23.75 3.23621 6.26543
      vertex -22.8473 0.39 6.09812
      vertex -22.8473 3.72636 6.09812
    endloop
  endfacet
  facet normal 0.182235 -6.46208e-08 0.983255
    outer loop
      vertex -23.75 3.23621 6.26543
      vertex -25.1612 0.39 6.52698
      vertex -22.8473 0.39 6.09812
    endloop
  endfacet
  facet normal 0.182236 9.00842e-09 0.983255
    outer loop
      vertex -26.289 1.64912 6.73601
      vertex -25.1612 0.39 6.52698
      vertex -25.8704 1.93685 6.65842
    endloop
  endfacet
  facet normal 0.182235 -5.6094e-08 0.983255
    outer loop
      vertex -25.8704 1.93685 6.65842
      vertex -25.1612 0.39 6.52698
      vertex -23.75 3.23621 6.26543
    endloop
  endfacet
  facet normal 0.182235 0 0.983255
    outer loop
      vertex -25.1612 -19.32 6.52698
      vertex -22.8473 -20.31 6.09812
      vertex -22.8473 -19.32 6.09812
    endloop
  endfacet
  facet normal 0.182235 -0 0.983255
    outer loop
      vertex -26.289 -20.31 6.73601
      vertex -25.1612 0.39 6.52698
      vertex -26.289 1.64912 6.73601
    endloop
  endfacet
  facet normal 0.182235 8.7883e-08 0.983255
    outer loop
      vertex -25.1612 -19.32 6.52698
      vertex -26.289 -20.31 6.73601
      vertex -22.8473 -20.31 6.09812
    endloop
  endfacet
  facet normal 0.182235 0 0.983255
    outer loop
      vertex -25.1612 0.39 6.52698
      vertex -26.289 -20.31 6.73601
      vertex -25.1612 -19.32 6.52698
    endloop
  endfacet
  facet normal 0.130526 0 0.991445
    outer loop
      vertex -15.2664 7.06694 5.10008
      vertex -15.4618 0.39 5.1258
      vertex -15.2664 -20.31 5.10008
    endloop
  endfacet
  facet normal 0.130526 -2.09967e-08 0.991445
    outer loop
      vertex -17.0225 6.44507 5.33127
      vertex -15.4618 0.39 5.1258
      vertex -15.2664 7.06694 5.10008
    endloop
  endfacet
  facet normal 0.130526 -3.91913e-08 0.991445
    outer loop
      vertex -19.32 5.49341 5.63375
      vertex -15.4618 0.39 5.1258
      vertex -17.0225 6.44507 5.33127
    endloop
  endfacet
  facet normal 0.130526 -6.07272e-08 0.991445
    outer loop
      vertex -21.5645 4.42281 5.92925
      vertex -15.4618 0.39 5.1258
      vertex -19.32 5.49341 5.63375
    endloop
  endfacet
  facet normal 0.130526 -0 0.991445
    outer loop
      vertex -22.8473 0.39 6.09812
      vertex -21.5645 4.42281 5.92925
      vertex -22.8473 3.72636 6.09812
    endloop
  endfacet
  facet normal 0.130526 4.22744e-08 0.991445
    outer loop
      vertex -21.5645 4.42281 5.92925
      vertex -22.8473 0.39 6.09812
      vertex -15.4618 0.39 5.1258
    endloop
  endfacet
  facet normal 0.130526 -0 0.991445
    outer loop
      vertex -15.4618 -19.32 5.1258
      vertex -15.2664 -20.31 5.10008
      vertex -15.4618 0.39 5.1258
    endloop
  endfacet
  facet normal 0.130526 -0 0.991445
    outer loop
      vertex -22.8473 -20.31 6.09812
      vertex -15.4618 -19.32 5.1258
      vertex -22.8473 -19.32 6.09812
    endloop
  endfacet
  facet normal 0.130526 1.31997e-07 0.991445
    outer loop
      vertex -15.4618 -19.32 5.1258
      vertex -22.8473 -20.31 6.09812
      vertex -15.2664 -20.31 5.10008
    endloop
  endfacet
  facet normal 1 0 0
    outer loop
      vertex -14.351 7.37214 5.02804
      vertex -14.351 7.62939e-07 1
      vertex -14.351 7.37214 5.72205e-07
    endloop
  endfacet
  facet normal 1 0 0
    outer loop
      vertex -14.351 7.37214 5.02804
      vertex -14.351 -5.08 1.7
      vertex -14.351 7.62939e-07 1
    endloop
  endfacet
  facet normal 1 -0 0
    outer loop
      vertex -14.351 -20.31 5.02804
      vertex -14.351 -5.08 1.7
      vertex -14.351 7.37214 5.02804
    endloop
  endfacet
  facet normal 1 0 0
    outer loop
      vertex -14.351 -10.16 1.7
      vertex -14.351 -15.24 1
      vertex -14.351 -10.16 1
    endloop
  endfacet
  facet normal 1 0 0
    outer loop
      vertex -14.351 -5.08 1.7
      vertex -14.351 -20.31 5.02804
      vertex -14.351 -10.16 1.7
    endloop
  endfacet
  facet normal 1 0 0
    outer loop
      vertex -14.351 -10.16 1.7
      vertex -14.351 -20.31 5.02804
      vertex -14.351 -15.24 1
    endloop
  endfacet
  facet normal 1 0 0
    outer loop
      vertex -14.351 -20.31 5.72205e-07
      vertex -14.351 -15.24 1
      vertex -14.351 -20.31 5.02804
    endloop
  endfacet
  facet normal 1 0 0
    outer loop
      vertex -14.351 -15.24 1
      vertex -14.351 -20.31 5.72205e-07
      vertex -14.351 -15.24 5.72205e-07
    endloop
  endfacet
  facet normal 1 0 0
    outer loop
      vertex -14.351 7.37214 5.72205e-07
      vertex -14.351 7.62939e-07 1
      vertex -14.351 7.62939e-07 5.72205e-07
    endloop
  endfacet
  facet normal 1 0 0
    outer loop
      vertex -14.351 7.62939e-07 1
      vertex -14.351 -5.08 1.7
      vertex -14.351 -5.08 1
    endloop
  endfacet
  facet normal -1 0 0
    outer loop
      vertex 14.351 -15.24 5.72205e-07
      vertex 14.351 -20.31 5.72205e-07
      vertex 14.351 -15.24 1
    endloop
  endfacet
  facet normal -1 0 0
    outer loop
      vertex 14.351 -10.16 1
      vertex 14.351 -15.24 1
      vertex 14.351 -10.16 1.7
    endloop
  endfacet
  facet normal -1 0 0
    outer loop
      vertex 14.351 7.62939e-07 1
      vertex 14.351 7.37214 5.72205e-07
      vertex 14.351 7.62939e-07 5.72205e-07
    endloop
  endfacet
  facet normal -1 0 0
    outer loop
      vertex 14.351 7.37214 5.72205e-07
      vertex 14.351 7.62939e-07 1
      vertex 14.351 7.37214 5.02804
    endloop
  endfacet
  facet normal -1 0 0
    outer loop
      vertex 14.351 -5.08 1.7
      vertex 14.351 7.62939e-07 1
      vertex 14.351 -5.08 1
    endloop
  endfacet
  facet normal -1 0 0
    outer loop
      vertex 14.351 7.62939e-07 1
      vertex 14.351 -5.08 1.7
      vertex 14.351 7.37214 5.02804
    endloop
  endfacet
  facet normal -1 0 0
    outer loop
      vertex 14.351 -20.31 5.02804
      vertex 14.351 -5.08 1.7
      vertex 14.351 -10.16 1.7
    endloop
  endfacet
  facet normal -1 0 0
    outer loop
      vertex 14.351 -20.31 5.02804
      vertex 14.351 -10.16 1.7
      vertex 14.351 -15.24 1
    endloop
  endfacet
  facet normal -1 0 0
    outer loop
      vertex 14.351 -5.08 1.7
      vertex 14.351 -20.31 5.02804
      vertex 14.351 7.37214 5.02804
    endloop
  endfacet
  facet normal -1 0 0
    outer loop
      vertex 14.351 -20.31 5.02804
      vertex 14.351 -15.24 1
      vertex 14.351 -20.31 5.72205e-07
    endloop
  endfacet
  facet normal 0.382683 0.92388 -0
    outer loop
      vertex 19.32 5.49341 5.72205e-07
      vertex 17.0225 6.44507 5.33127
      vertex 19.32 5.49341 5.63375
    endloop
  endfacet
  facet normal 0.382683 0.92388 0
    outer loop
      vertex 17.0225 6.44507 5.33127
      vertex 19.32 5.49341 5.72205e-07
      vertex 17.0225 6.44507 5.72205e-07
    endloop
  endfacet
  facet normal 0.284015 0.95882 -0
    outer loop
      vertex 14.6783 7.27519 5.72205e-07
      vertex 14.351 7.37214 5.02804
      vertex 14.6783 7.27519 5.05379
    endloop
  endfacet
  facet normal 0.284015 0.95882 0
    outer loop
      vertex 14.351 7.37214 5.02804
      vertex 14.6783 7.27519 5.72205e-07
      vertex 14.351 7.37214 5.72205e-07
    endloop
  endfacet
  facet normal 0 0 -1
    outer loop
      vertex -26.289 -20.31 5.72205e-07
      vertex -14.351 -15.24 5.72205e-07
      vertex -14.351 -20.31 5.72205e-07
    endloop
  endfacet
  facet normal 1.09936e-15 -2.5886e-15 -1
    outer loop
      vertex -26.289 1.64912 5.72205e-07
      vertex -14.351 -15.24 5.72205e-07
      vertex -26.289 -20.31 5.72205e-07
    endloop
  endfacet
  facet normal 0 0 -1
    outer loop
      vertex -14.351 7.62939e-07 5.72205e-07
      vertex -14.6783 7.27519 5.72205e-07
      vertex -14.351 7.37214 5.72205e-07
    endloop
  endfacet
  facet normal 0 0 -1
    outer loop
      vertex -14.351 7.62939e-07 5.72205e-07
      vertex -17.0225 6.44507 5.72205e-07
      vertex -14.6783 7.27519 5.72205e-07
    endloop
  endfacet
  facet normal 0 0 -1
    outer loop
      vertex -14.351 7.62939e-07 5.72205e-07
      vertex -19.32 5.49341 5.72205e-07
      vertex -17.0225 6.44507 5.72205e-07
    endloop
  endfacet
  facet normal 0 0 -1
    outer loop
      vertex -14.351 7.62939e-07 5.72205e-07
      vertex -21.5645 4.42281 5.72205e-07
      vertex -19.32 5.49341 5.72205e-07
    endloop
  endfacet
  facet normal 0 0 -1
    outer loop
      vertex -14.351 7.62939e-07 5.72205e-07
      vertex -23.75 3.23621 5.72205e-07
      vertex -21.5645 4.42281 5.72205e-07
    endloop
  endfacet
  facet normal 0 0 -1
    outer loop
      vertex -14.351 7.62939e-07 5.72205e-07
      vertex -25.8704 1.93685 5.72205e-07
      vertex -23.75 3.23621 5.72205e-07
    endloop
  endfacet
  facet normal -5.15249e-16 -3.72988e-15 -1
    outer loop
      vertex -14.351 -15.24 5.72205e-07
      vertex -26.289 1.64912 5.72205e-07
      vertex -14.351 7.62939e-07 5.72205e-07
    endloop
  endfacet
  facet normal 0 0 -1
    outer loop
      vertex -14.351 7.62939e-07 5.72205e-07
      vertex -26.289 1.64912 5.72205e-07
      vertex -25.8704 1.93685 5.72205e-07
    endloop
  endfacet
  facet normal 0 -3.72988e-15 -1
    outer loop
      vertex -14.351 -15.24 5.72205e-07
      vertex 14.351 7.62939e-07 5.72205e-07
      vertex 14.351 -15.24 5.72205e-07
    endloop
  endfacet
  facet normal -0 -3.72988e-15 -1
    outer loop
      vertex 14.351 7.62939e-07 5.72205e-07
      vertex -14.351 -15.24 5.72205e-07
      vertex -14.351 7.62939e-07 5.72205e-07
    endloop
  endfacet
  facet normal -1.09936e-15 -2.5886e-15 -1
    outer loop
      vertex 14.351 -15.24 5.72205e-07
      vertex 26.289 1.64912 5.72205e-07
      vertex 26.289 -20.31 5.72205e-07
    endloop
  endfacet
  facet normal 5.15249e-16 -3.72988e-15 -1
    outer loop
      vertex 14.351 7.62939e-07 5.72205e-07
      vertex 26.289 1.64912 5.72205e-07
      vertex 14.351 -15.24 5.72205e-07
    endloop
  endfacet
  facet normal -0 0 -1
    outer loop
      vertex 26.289 1.64912 5.72205e-07
      vertex 14.351 7.62939e-07 5.72205e-07
      vertex 25.8704 1.93685 5.72205e-07
    endloop
  endfacet
  facet normal -0 0 -1
    outer loop
      vertex 25.8704 1.93685 5.72205e-07
      vertex 14.351 7.62939e-07 5.72205e-07
      vertex 23.75 3.23621 5.72205e-07
    endloop
  endfacet
  facet normal -0 0 -1
    outer loop
      vertex 21.5645 4.42281 5.72205e-07
      vertex 14.351 7.62939e-07 5.72205e-07
      vertex 19.32 5.49341 5.72205e-07
    endloop
  endfacet
  facet normal -0 0 -1
    outer loop
      vertex 19.32 5.49341 5.72205e-07
      vertex 14.351 7.62939e-07 5.72205e-07
      vertex 17.0225 6.44507 5.72205e-07
    endloop
  endfacet
  facet normal 0 0 -1
    outer loop
      vertex 14.351 -15.24 5.72205e-07
      vertex 26.289 -20.31 5.72205e-07
      vertex 14.351 -20.31 5.72205e-07
    endloop
  endfacet
  facet normal -0 0 -1
    outer loop
      vertex 23.75 3.23621 5.72205e-07
      vertex 14.351 7.62939e-07 5.72205e-07
      vertex 21.5645 4.42281 5.72205e-07
    endloop
  endfacet
  facet normal -0 0 -1
    outer loop
      vertex 17.0225 6.44507 5.72205e-07
      vertex 14.351 7.62939e-07 5.72205e-07
      vertex 14.6783 7.27519 5.72205e-07
    endloop
  endfacet
  facet normal -0 0 -1
    outer loop
      vertex 14.6783 7.27519 5.72205e-07
      vertex 14.351 7.62939e-07 5.72205e-07
      vertex 14.351 7.37214 5.72205e-07
    endloop
  endfacet
  facet normal 0.430511 0.902585 -0
    outer loop
      vertex 21.5645 4.42281 5.72205e-07
      vertex 19.32 5.49341 5.63375
      vertex 21.5645 4.42281 5.92925
    endloop
  endfacet
  facet normal 0.430511 0.902585 0
    outer loop
      vertex 19.32 5.49341 5.63375
      vertex 21.5645 4.42281 5.72205e-07
      vertex 19.32 5.49341 5.72205e-07
    endloop
  endfacet
  facet normal -0.333807 0.942642 0
    outer loop
      vertex -14.6783 7.27519 5.72205e-07
      vertex -15.2664 7.06694 5.10008
      vertex -14.6783 7.27519 5.05379
    endloop
  endfacet
  facet normal -0.333807 0.942641 -2.23878e-08
    outer loop
      vertex -17.0225 6.44507 5.72205e-07
      vertex -15.2664 7.06694 5.10008
      vertex -14.6783 7.27519 5.72205e-07
    endloop
  endfacet
  facet normal -0.333807 0.942641 0
    outer loop
      vertex -15.2664 7.06694 5.10008
      vertex -17.0225 6.44507 5.72205e-07
      vertex -17.0225 6.44507 5.33127
    endloop
  endfacet
  facet normal 0.333807 0.942641 -0
    outer loop
      vertex 17.0225 6.44507 5.72205e-07
      vertex 15.2664 7.06694 5.10008
      vertex 17.0225 6.44507 5.33127
    endloop
  endfacet
  facet normal 0.333807 0.942641 -2.23878e-08
    outer loop
      vertex 14.6783 7.27519 5.72205e-07
      vertex 15.2664 7.06694 5.10008
      vertex 17.0225 6.44507 5.72205e-07
    endloop
  endfacet
  facet normal 0.333807 0.942642 0
    outer loop
      vertex 15.2664 7.06694 5.10008
      vertex 14.6783 7.27519 5.72205e-07
      vertex 14.6783 7.27519 5.05379
    endloop
  endfacet
  facet normal -0.522499 0.85264 0
    outer loop
      vertex -25.8704 1.93685 5.72205e-07
      vertex -23.75 3.23621 6.26543
      vertex -23.75 3.23621 5.72205e-07
    endloop
  endfacet
  facet normal -0.522499 0.85264 0
    outer loop
      vertex -23.75 3.23621 6.26543
      vertex -25.8704 1.93685 5.72205e-07
      vertex -25.8704 1.93685 6.65842
    endloop
  endfacet
  facet normal 0.522499 0.85264 -0
    outer loop
      vertex 25.8704 1.93685 5.72205e-07
      vertex 23.75 3.23621 6.26543
      vertex 25.8704 1.93685 6.65842
    endloop
  endfacet
  facet normal 0.522499 0.85264 0
    outer loop
      vertex 23.75 3.23621 6.26543
      vertex 25.8704 1.93685 5.72205e-07
      vertex 23.75 3.23621 5.72205e-07
    endloop
  endfacet
  facet normal 0.477158 0.878817 -0
    outer loop
      vertex 23.75 3.23621 5.72205e-07
      vertex 22.8473 3.72636 6.09812
      vertex 23.75 3.23621 6.26543
    endloop
  endfacet
  facet normal 0.477159 0.878817 7.59336e-08
    outer loop
      vertex 21.5645 4.42281 5.72205e-07
      vertex 22.8473 3.72636 6.09812
      vertex 23.75 3.23621 5.72205e-07
    endloop
  endfacet
  facet normal 0.477159 0.878817 0
    outer loop
      vertex 22.8473 3.72636 6.09812
      vertex 21.5645 4.42281 5.72205e-07
      vertex 21.5645 4.42281 5.92925
    endloop
  endfacet
  facet normal 0.566406 0.824126 -0
    outer loop
      vertex 26.289 1.64912 5.72205e-07
      vertex 25.8704 1.93685 6.65842
      vertex 26.289 1.64912 6.73601
    endloop
  endfacet
  facet normal 0.566406 0.824126 0
    outer loop
      vertex 25.8704 1.93685 6.65842
      vertex 26.289 1.64912 5.72205e-07
      vertex 25.8704 1.93685 5.72205e-07
    endloop
  endfacet
  facet normal -0.284015 0.95882 0
    outer loop
      vertex -14.6783 7.27519 5.72205e-07
      vertex -14.351 7.37214 5.02804
      vertex -14.351 7.37214 5.72205e-07
    endloop
  endfacet
  facet normal -0.284015 0.95882 0
    outer loop
      vertex -14.351 7.37214 5.02804
      vertex -14.6783 7.27519 5.72205e-07
      vertex -14.6783 7.27519 5.05379
    endloop
  endfacet
  facet normal -0.477159 0.878817 0
    outer loop
      vertex -21.5645 4.42281 5.72205e-07
      vertex -22.8473 3.72636 6.09812
      vertex -21.5645 4.42281 5.92925
    endloop
  endfacet
  facet normal -0.477159 0.878817 7.59336e-08
    outer loop
      vertex -23.75 3.23621 5.72205e-07
      vertex -22.8473 3.72636 6.09812
      vertex -21.5645 4.42281 5.72205e-07
    endloop
  endfacet
  facet normal -0.477158 0.878817 0
    outer loop
      vertex -22.8473 3.72636 6.09812
      vertex -23.75 3.23621 5.72205e-07
      vertex -23.75 3.23621 6.26543
    endloop
  endfacet
  facet normal -0.430511 0.902585 0
    outer loop
      vertex -21.5645 4.42281 5.72205e-07
      vertex -19.32 5.49341 5.63375
      vertex -19.32 5.49341 5.72205e-07
    endloop
  endfacet
  facet normal -0.430511 0.902585 0
    outer loop
      vertex -19.32 5.49341 5.63375
      vertex -21.5645 4.42281 5.72205e-07
      vertex -21.5645 4.42281 5.92925
    endloop
  endfacet
  facet normal -0.382683 0.92388 0
    outer loop
      vertex -19.32 5.49341 5.72205e-07
      vertex -17.0225 6.44507 5.33127
      vertex -17.0225 6.44507 5.72205e-07
    endloop
  endfacet
  facet normal -0.382683 0.92388 0
    outer loop
      vertex -17.0225 6.44507 5.33127
      vertex -19.32 5.49341 5.72205e-07
      vertex -19.32 5.49341 5.63375
    endloop
  endfacet
  facet normal -0.566406 0.824126 0
    outer loop
      vertex -26.289 1.64912 5.72205e-07
      vertex -25.8704 1.93685 6.65842
      vertex -25.8704 1.93685 5.72205e-07
    endloop
  endfacet
  facet normal -0.566406 0.824126 0
    outer loop
      vertex -25.8704 1.93685 6.65842
      vertex -26.289 1.64912 5.72205e-07
      vertex -26.289 1.64912 6.73601
    endloop
  endfacet
  facet normal -1 0 0
    outer loop
      vertex -26.289 -20.31 5.72205e-07
      vertex -26.289 1.64912 6.73601
      vertex -26.289 1.64912 5.72205e-07
    endloop
  endfacet
  facet normal -1 -0 0
    outer loop
      vertex -26.289 1.64912 6.73601
      vertex -26.289 -20.31 5.72205e-07
      vertex -26.289 -20.31 6.73601
    endloop
  endfacet
  facet normal 1 -0 0
    outer loop
      vertex 26.289 -20.31 6.73601
      vertex 26.289 1.64912 5.72205e-07
      vertex 26.289 1.64912 6.73601
    endloop
  endfacet
  facet normal 1 0 0
    outer loop
      vertex 26.289 1.64912 5.72205e-07
      vertex 26.289 -20.31 6.73601
      vertex 26.289 -20.31 5.72205e-07
    endloop
  endfacet
  facet normal 0 -1 0
    outer loop
      vertex -14.351 -15.24 5.72205e-07
      vertex 14.351 -15.24 1
      vertex -14.351 -15.24 1
    endloop
  endfacet
  facet normal 0 -1 -0
    outer loop
      vertex 14.351 -15.24 1
      vertex -14.351 -15.24 5.72205e-07
      vertex 14.351 -15.24 5.72205e-07
    endloop
  endfacet
  facet normal -0 0 1
    outer loop
      vertex -14.351 7.62939e-07 1
      vertex 14.351 -5.08 1
      vertex 14.351 7.62939e-07 1
    endloop
  endfacet
  facet normal 0 0 1
    outer loop
      vertex 14.351 -5.08 1
      vertex -14.351 7.62939e-07 1
      vertex -14.351 -5.08 1
    endloop
  endfacet
  facet normal -0 0 1
    outer loop
      vertex -14.351 -10.16 1
      vertex 14.351 -15.24 1
      vertex 14.351 -10.16 1
    endloop
  endfacet
  facet normal 0 0 1
    outer loop
      vertex 14.351 -15.24 1
      vertex -14.351 -10.16 1
      vertex -14.351 -15.24 1
    endloop
  endfacet
  facet normal 0 1 -0
    outer loop
      vertex 14.351 7.62939e-07 5.72205e-07
      vertex -14.351 7.62939e-07 1
      vertex 14.351 7.62939e-07 1
    endloop
  endfacet
  facet normal 0 1 0
    outer loop
      vertex -14.351 7.62939e-07 1
      vertex 14.351 7.62939e-07 5.72205e-07
      vertex -14.351 7.62939e-07 5.72205e-07
    endloop
  endfacet
  facet normal 0 -1 0
    outer loop
      vertex -14.351 -10.16 1
      vertex 14.351 -10.16 1.7
      vertex -14.351 -10.16 1.7
    endloop
  endfacet
  facet normal 0 -1 -0
    outer loop
      vertex 14.351 -10.16 1.7
      vertex -14.351 -10.16 1
      vertex 14.351 -10.16 1
    endloop
  endfacet
  facet normal -0 0 1
    outer loop
      vertex -14.351 -5.08 1.7
      vertex 14.351 -10.16 1.7
      vertex 14.351 -5.08 1.7
    endloop
  endfacet
  facet normal 0 0 1
    outer loop
      vertex 14.351 -10.16 1.7
      vertex -14.351 -5.08 1.7
      vertex -14.351 -10.16 1.7
    endloop
  endfacet
  facet normal 0 1 -0
    outer loop
      vertex 14.351 -5.08 1
      vertex -14.351 -5.08 1.7
      vertex 14.351 -5.08 1.7
    endloop
  endfacet
  facet normal 0 1 0
    outer loop
      vertex -14.351 -5.08 1.7
      vertex 14.351 -5.08 1
      vertex -14.351 -5.08 1
    endloop
  endfacet
endsolid OpenSCAD_Model
