<?xml version="1.0" encoding="UTF-8" standalone="no"?>
<!-- Created with Inkscape (http://www.inkscape.org/) -->

<svg
   xmlns:dc="http://purl.org/dc/elements/1.1/"
   xmlns:cc="http://creativecommons.org/ns#"
   xmlns:rdf="http://www.w3.org/1999/02/22-rdf-syntax-ns#"
   xmlns:svg="http://www.w3.org/2000/svg"
   xmlns="http://www.w3.org/2000/svg"
   xmlns:sodipodi="http://sodipodi.sourceforge.net/DTD/sodipodi-0.dtd"
   xmlns:inkscape="http://www.inkscape.org/namespaces/inkscape"
   id="svg3053"
   version="1.1"
   inkscape:version="0.48.5 r10040"
   width="2828.4512"
   height="1997.4963"
   sodipodi:docname="20181205_093356.jpg">
  <metadata
     id="metadata3059">
    <rdf:RDF>
      <cc:Work
         rdf:about="">
        <dc:format>image/svg+xml</dc:format>
        <dc:type
           rdf:resource="http://purl.org/dc/dcmitype/StillImage" />
        <dc:title></dc:title>
      </cc:Work>
    </rdf:RDF>
  </metadata>
  <defs
     id="defs3057" />
  <sodipodi:namedview
     pagecolor="#ffffff"
     bordercolor="#666666"
     borderopacity="1"
     objecttolerance="10"
     gridtolerance="10"
     guidetolerance="10"
     inkscape:pageopacity="0"
     inkscape:pageshadow="2"
     inkscape:window-width="1680"
     inkscape:window-height="1024"
     id="namedview3055"
     showgrid="false"
     showguides="true"
     inkscape:guide-bbox="true"
     fit-margin-top="0"
     fit-margin-left="0"
     fit-margin-right="0"
     fit-margin-bottom="0"
     inkscape:zoom="0.13573883"
     inkscape:cx="1723.9325"
     inkscape:cy="2752.0312"
     inkscape:window-x="0"
     inkscape:window-y="0"
     inkscape:window-maximized="1"
     inkscape:current-layer="svg3053" />
  <path
     style="fill:#1c2636"
     d="m 2571.1893,852.44554 c -25.8136,-0.3376 -51.801,8.4254 -73.1876,24.6563 -38.9875,42.7836 61.3743,18.1748 82.4063,37.9063 45.3391,36.2126 74.1251,88.26286 108.9063,133.87496 68.1858,94.2098 84.6931,216.3153 63.1562,328.8124 -18.4423,81.9187 -43.9296,162.9589 -82.2812,237.7188 -49.2129,102.3385 -138.1351,180.0572 -237.6563,232.0312 -41.6232,17.7994 -81.1995,47.2379 -128.0625,46.2188 -62.4048,19.5461 -121.4283,57.0793 -188.75,56.2812 l -41.875,2.3126 c -15.4765,4.75 -32.2267,2.2443 -48.125,1.5937 -50.9427,2.7358 -109.7398,-26.1283 -97.0625,-86.0313 -11.4363,-12.9735 -31.9284,-31.0267 -31.9284,-31.0267 0,0 50.0304,22.3614 57.939,53.2564 29.9012,50.6692 45.491,39.3223 54.625,0 -2.2508,-20.5677 -34.474,-65.7271 -50.1731,-77.42 -43.6534,-32.5138 -38.9708,-42.3891 -110.2907,-32.6817 -26.4129,72.4601 -74.2742,144.9935 -45.7655,216.7783 65.1158,10.2979 20.3196,-85.6856 64.8437,-112.6563 21.8965,5.749 7.5937,77.9804 49.5,90.5 73.1042,29.9915 156.0079,16.8997 232.3125,5.1876 36.949,-25.1456 73.4729,-4.9877 109.6875,-13.0313 121.3084,-41.6992 244.4607,-90.8329 342.7187,-175.2813 95.6316,-80.5228 148.2733,-197.4381 186.6876,-313.5937 48.3887,-137.0739 62.3176,-298.9736 -15.0313,-428.4375 -42.7366,-59.99656 -82.9922,-123.83466 -138,-173.68746 -19.1998,-15.6057 -41.8171,-22.9833 -64.5937,-23.2813 z"
     id="path3118"
     inkscape:connector-curvature="0"
     sodipodi:nodetypes="sccccccccccccccsccccccccccs" />
  <path
     style="fill:#1c2636"
     d="m 2366.7024,1101.2081 c -34.7002,-37.9657 -64.0389,-84.4761 -69.5,-137.05626 -26.3771,-155.9308 -19.3941,-315.21234 -19.996,-472.78374 -1.7073,-59.28683 6.1913,-120.7215 -8.7956,-178.46291 -10.6259,-63.49712 -84.8247,-23.87757 -111.2257,7.28429 -51.8798,51.38158 -90.4304,114.44199 -131.6828,174.64609 -68.5201,105.12492 -122.4146,218.9037 -187.7021,325.93957 -20.3217,60.2987 -89.0551,32.4957 -123.8247,3.2607 -38.0846,-41.5525 -80.1725,-83.2285 -92.9638,-140.451 -20.8057,-62.81719 -21.0892,-129.186 -22.262,-194.52972 -17.5641,33.5468 -37.5406,81.70391 -53.8367,121.81113 -26.2866,59.01159 -42.9529,121.75353 -70.2608,180.30109 -20.8765,40.1456 -29.8585,93.3717 -71.7966,117.2841 -41.5382,17.0902 -95.6879,-14.3865 -50.0627,-55.1556 56.3203,-104.04489 80.8864,-221.61028 130.9828,-328.54165 36.8974,-83.22121 75.6273,-167.55665 132.3757,-239.28385 21.6661,-23.58045 64.46,-55.82005 86.6843,-31.10665 13.1441,10.06712 5.8689,62.70257 12.7759,87.36529 -19.0303,97.34681 -40.4061,196.84863 -29.0787,296.5069 12.1254,42.12441 29.5971,98.37135 69.468,117.45274 43.1169,-56.70981 68.6749,-124.91499 105.8531,-185.62474 74.3132,-128.45112 148.2306,-263.48227 265.41,-358.26719 41.6441,-34.41736 104.5339,-55.07362 154.1153,-26.0144 36.3128,30.61083 43.2311,81.76582 52.1203,125.95157 30.2455,98.38266 15.0018,203.05223 16.4375,304.35607 1.1741,110.57123 -5.2551,222.22521 11.1242,331.92201 0.8237,50.1165 43.5125,84.62016 53.6054,129.18026 1.998,18.9716 -34.658,24.6718 -47.9643,24.0159 z"
     id="path3102"
     inkscape:connector-curvature="0" />
  <path
     style="fill:#1c2636"
     d="m 1922.8946,1735.3879 c 0,-0.2425 -0.45,-0.7191 -1,-1.059 -0.55,-0.3399 -1,-0.1415 -1,0.441 0,0.5825 0.45,1.059 1,1.059 0.55,0 1,-0.1984 1,-0.441 z"
     id="path3100"
     inkscape:connector-curvature="0" />
  <path
     style="fill:#1c2636"
     d="m 491.44478,986.93524 c -25.6937,-17.0556 -47.494,-5.7021 -67.1642,-27.4969 -16.1439,-31.1714 -3.9985,-69.19 3.3425,-101.533 21.7806,-69.2121 10.2777,-142.79458 15.8407,-214.06071 -5.5642,-22.04126 15.9892,-60.88521 -15.2119,-69.2782 -54.8813,-21.09208 -114.08297,-25.62357 -171.51983,-36.72744 -52.86533,-8.69165 -106.5939,-9.83632 -160.029641,-10.6088 -7.45905,32.86418 2.84313,72.55836 1.0492,108.1751 1.4721,71.18228 -1.95035,142.60689 -0.43838,213.63215 10.341861,53.4092 -39.14237,-12.2473 -59.29692,-15.0279 -46.26935,-15.5639 -20.6828,-70.24701 -28.14011,-106.75156 -0.90105,-80.34133 -0.70675,-160.69298 -3.76433,-240.97347 -13.66983,-31.9965 0.0638,-67.76665 -1.34022,-104.96928 1.25527,-96.36163 12.99004,-192.10856 20.29301,-288.053687 12.27268,-24.46179 -15.52691,-60.73193 14.33535,-73.51495 34.38128,-12.8372388 18.79786,44.90337 52.8028,50.1693 38.115851,19.1771 20.622121,48.347347 20.033931,83.009817 -6.06715,73.71973 -7.86359,147.78468 -16.248751,221.31976 -2.11005,22.04171 -8.35022,65.66076 25.893681,60.09232 110.04548,4.01304 218.00029,29.81734 322.00671,64.777 10.5338,-28.84747 4.5515,-70.64342 8.015,-104.61182 2.9663,-108.44304 15.5817,-216.41115 15.1679,-324.963737 -4.524,-25.42847 17.1699,-95.71549 48.1315,-59.26374 2.9151,39.06443 51.1638,57.91661 43.1205,99.512997 0.3588,88.19986 -5.007,176.11834 -11.0655,264.06005 -2.6712,74.56599 -9.9216,149.34671 -5.5252,223.83974 -11.1176,38.28225 -4.1376,80.40102 -8.5755,120.21651 -5.2064,70.22855 3.8494,142.63305 -17.6554,210.72015 -17.9345,9.9414 -2.2773,64.9099 -24.0569,58.3103 z"
     id="path3090"
     inkscape:connector-curvature="0" />
  <path
     style="fill:#1c2636"
     d="m 853.70238,536.84109 c 59.3693,-8.41987 118.0094,-21.78798 178.00002,-25.9358 -4.851,-73.26484 -13.1571,-146.61944 -23.369,-219.38446 -2.1338,-36.2609 -24.61162,-37.78321 -36.46002,-4.9906 -43.8405,71.10765 -84.5719,143.7509 -121.989,218.52016 -5.2061,8.48155 -19.5399,38.65045 3.818,31.7907 z m 392.73132,440.54645 c -39.1716,0.648 -69.7268,-24.8075 -87.9162,-58.3358 -54.7807,-100.0357 -86.0494,-211.07679 -112.6487,-321.38947 -26.2763,-26.24128 -78.41862,1.41629 -114.16642,3.21422 -46.243,9.17676 -93.4987,12.26876 -139.4766,22.5288 -28.4244,26.87826 -40.5099,67.98894 -61.1844,101.1579 -26.1288,51.59965 -44.1227,106.75735 -67.0894,159.66565 -22.6376,32.4576 -90.3862,-1.5296 -66.7204,-41.3235 19.2976,-70.93249 46.4717,-140.12375 83.8404,-203.48046 -15.888,-16.31588 -63.2187,-33.54511 -25.1821,-59.61949 30.09,-20.99955 82.2965,-6.61794 84.8236,-57.37396 22.9133,-26.78935 35.875,-60.66744 50.6162,-93.41716 14.0049,-35.96056 41.5159,-62.484 56.2268,-98.20223 22.0498,-37.75332 46.8273,-74.0872 69.3959,-111.20465 25.8536,-28.20428 43.3447,-64.07083 73.141,-88.63876 13.50532,-4.74338 30.83902,-32.893716 48.53772,-42.642136 40.5593,3.13646 27.5025,60.069976 43.0788,87.619486 6.6295,85.23489 11.7853,170.62005 21.2294,255.61429 0.3773,36.49568 1.2146,84.28936 50.1819,79.84752 31.8018,0.55722 26.2102,53.21728 25.6326,63.87601 -22.3917,2.53121 -69.3157,-1.8726 -53.6704,35.62149 17.4797,90.33542 46.9136,178.63345 85.5734,262.17995 10.1331,29.0312 37.3567,48.8126 54.4561,68.0555 -2.0355,10.3197 -2.2028,40.5588 -18.6792,36.2468 z"
     id="path3084"
     inkscape:connector-curvature="0" />
  <path
     style="fill:#1c2636"
     d="m 2046.7227,1041.6936 c -1.218,-1.2179 -0.6891,-3.3333 0.8333,-3.3333 0.8333,0 1.5,0.8889 1.5,2 0,1.9922 -1.0655,2.6011 -2.3333,1.3333 z"
     id="path3680"
     inkscape:connector-curvature="0" />
  <path
     style="fill:#1c2636"
     d="m 1942.1522,1474.6391 c -0.9436,-1.6211 -1.0381,-1.5866 -1.0658,0.3894 -0.017,1.1925 0.303,2.9925 0.7106,4 0.6671,1.6493 0.7733,1.6105 1.0658,-0.3894 0.1786,-1.2217 -0.1412,-3.0217 -0.7106,-4 z"
     id="path3674"
     inkscape:connector-curvature="0" />
  <path
     style="fill:#1c2636"
     d="m 1947.0349,1489.6773 c -1.7811,-5.5703 -3.3837,-6.7301 -2.5107,-1.817 0.6941,3.9063 2.3598,7.0053 3.274,6.0912 0.2514,-0.2515 -0.092,-2.1748 -0.7633,-4.2742 z"
     id="path3672"
     inkscape:connector-curvature="0" />
  <path
     style="fill:#1c2636"
     d="m 1956.7453,1531.6103 c -0.2515,-0.9625 -0.4573,-0.175 -0.4573,1.75 0,1.925 0.2058,2.7125 0.4573,1.75 0.2516,-0.9625 0.2516,-2.5375 0,-3.5 z"
     id="path3670"
     inkscape:connector-curvature="0" />
  <path
     style="fill:#1c2636"
     d="m 1959.3345,1544.1103 c -0.6901,-5.5216 -2.2785,-7.2865 -2.2785,-2.5318 0,4.0476 0.8111,6.7818 2.0118,6.7818 0.4389,0 0.5589,-1.9125 0.2667,-4.25 z"
     id="path3668"
     inkscape:connector-curvature="0" />
  <path
     style="fill:#1c2636"
     d="m 1965.115,1635.3603 c 1.1931,-16.2522 1.1552,-14.186 0.5875,-32 -0.4877,-15.3032 -1.75,-26.9395 -3.7154,-34.25 -0.5545,-2.0625 -1.1033,-3.7499 -1.2196,-3.7498 -0.1163,10e-5 -0.2526,21.9236 -0.3029,48.719 l -0.091,48.7188 1.9121,-7.469 c 1.0516,-4.1079 2.325,-13.094 2.8297,-19.969 z"
     id="path3666"
     inkscape:connector-curvature="0" />
  <path
     style="fill:#1c2636"
     d="m 2046.6955,1042.6664 c -1.2362,-1.2362 -0.6227,-4.3061 0.8605,-4.3061 0.825,0 1.5,0.8734 1.5,1.941 0,2.0872 -1.3179,3.4077 -2.3605,2.3651 z"
     id="path3664"
     inkscape:connector-curvature="0" />
  <path
     style="fill:#1c2636"
     d="m 1964.104,1632.1182 c 1.5055,-20.2792 0.101,-54.7579 -2.2305,-54.7579 -0.5151,0 -0.774,11.4016 -0.6076,26.75 0.1596,14.7125 -0.074,29.3786 -0.5193,32.5914 -0.8638,6.234 -0.078,12.4456 1.3895,10.9785 0.4828,-0.4828 1.3683,-7.4857 1.9679,-15.562 z"
     id="path3578"
     inkscape:connector-curvature="0" />
  <path
     style="fill:#000000"
     d="m 681.21458,1920.774 c -142.5213,0.9751 -265.8687,-130.7973 -256.023,-272.7374 9.2956,-134.9624 70.6742,-266.1818 161.6761,-365.4393 36.6877,-62.7858 132.8947,-56.737 167.8428,-97.8223 33.3029,-60.3734 125.2853,-31.4979 183.4742,-44.2789 141.06652,1.6443 281.94712,23.8909 423.01752,7.3196 134.633,-9.922 269.7922,-10.633 403.7385,-28.424 133.5601,-9.7382 271.5984,-4.4592 399.1684,38.823 47.687,19.98 92.7102,54.8905 121.6671,98.9206 40.119,58.3624 15.7114,130.6569 -31.6126,175.9675 -40.0934,66.7595 -83.154,135.2956 -152.7765,174.76 -47.5002,30.5155 -85.8988,67.5271 -140.8051,82.4341 -97.7739,37.3916 -194.9542,80.872 -300.7799,89.1465 -178.2925,29.7427 -360.2702,32.218 -537.2501,70.3 -138.83792,7.1895 -270.92202,57.0214 -408.55342,71.1321 -10.9241,0.2071 -21.8711,0.4079 -32.784,-0.1015 z m 331.04132,-105.941 c 122.3686,-9.018 241.7009,-41.4166 364.289,-49.0215 142.2566,-14.5298 288.0235,-20.4567 422.154,-75.313 93.9387,5.9902 66.2386,-150.7761 -16.6409,-104.9109 -53.9203,32.1284 -179.3933,9.2783 -160.0853,104.4109 -20.6536,61.6031 -66.5304,-14.246 -51.9695,-46.3611 -154.166,35.8699 -299.2536,106.5225 -456.6448,128.941 -51.2114,-37.267 31.4499,-66.2027 66.4475,-69.5265 43.6413,-9.548 131.5097,-16.3869 109.6365,-78.4259 29.7556,-98.5836 -99.866,-28.1616 -123.7136,-73.2304 0.4279,-83.0997 141.7308,3.8611 112.9675,-98.3139 4.0673,-67.4019 -19.3559,-141.7105 -101.945,-116.3518 -46.5837,11.7607 -159.6971,-3.7312 -75.7585,-59.0486 44.1774,-8.717 157.9078,38.3927 149.3947,-33.889 -44.1954,-70.5337 -142.6176,-14.8137 -210.4439,-41.899 -53.88532,0.6453 -157.92832,-14.7706 -181.96352,12.1329 52.7861,51.1807 137.1966,55.4343 184.59042,115.6063 113.224,118.7542 97.7547,318.7677 -6.7506,438.1874 -2.8733,12.8757 -64.70702,52.8788 -23.564,47.0131 z M 705.96938,1683.3148 c 65.6683,-2.084 182.9711,-69.5292 113.297,-140.3303 -51.3228,-55.6025 -126.5478,-50.8475 -157.857,20.6936 -49.4052,40.3194 -26.2029,131.9815 44.56,119.6367 z M 1927.77,1643.3117 c 61.1404,-26.836 133.8114,-48.5 171.8674,-107.112 -57.3766,-22.9888 -147.8612,16.2853 -193.2974,42.4518 0.08,20.2749 -1.0954,57.6034 21.43,64.6602 z m -560.9509,-1.2903 c 70.57,-18.1826 140.5161,-38.7178 211.2179,-56.3944 4.3833,-36.9455 4.423,-101.9216 -47.387,-74.1277 -63.1803,12.8845 -126.2159,26.4648 -189.2302,40.1342 -5.5212,25.9967 -20.4601,95.0274 25.3993,90.3879 z m 225.2159,-62.5401 c 1.3267,-2.6158 -5.0588,0.1039 0,0 z m -1.8145,-1.6494 c 1.9656,-8.8551 -8.1117,-1.7563 0,0 z m 45.0797,-7.4646 c 72.3192,-19.7763 148.3583,-21.9492 219.8621,-45.0834 -7.0034,-54.2283 -34.2828,-94.0747 -92.9366,-63.5902 -56.4376,14.1096 -165.9966,1.3483 -136.3388,93.4302 5.6283,-1.6427 -0.094,21.5982 9.4133,15.2434 z m 512.5073,-55.0277 c 39.9156,-27.0085 91.1598,-86.34 80.6775,-127.8816 -33.6912,32.4858 -121.1997,-2.0691 -88.5081,77.4205 2.8268,12.31 -10.7044,48.9357 7.8306,50.4611 z m -231.047,-3.2947 c 51.5466,-33.6189 171.1936,-4.283 173.9,-81.679 -41.5806,-50.4643 -126.231,3.8943 -183.6903,-0.5448 -26.9465,16.9299 -24.5488,77.6597 9.7903,82.2238 z m 159.4239,-74.1437 c -1.9716,-6.3719 3.2611,-2.511 0,0 z m -717.7998,53.3733 c 70.6241,-23.2059 149.6375,-19.7589 215.6195,-56.0478 -0.6163,-48.0445 -5.2707,-133.9663 -77.0509,-100.2461 -53.35,24.1013 -140.1632,-25.8064 -174.6622,30.3746 16.5131,36.0724 -20.2422,121.8618 36.0936,125.9193 z m 762.2907,-16.1297 c 1.732,-5.5146 -5.8119,1.9894 0,0 z M 746.80458,1464.3617 c 18.8424,-16.7235 -10.0483,-4.3501 0,0 z m 9.8989,-11.7952 c 0.1493,-3.6392 -2.96,1.664 0,0 z m -3.4434,-2.1738 c -3.5808,-2.3602 1.5487,4.5382 0,0 z m 878.33082,-21.7919 c 68.3713,-13.9625 137.9762,-23.07 204.6788,-44.2457 8.7089,-58.5642 -33.0503,-120.9548 -95.4298,-77.3529 -58.7634,2.8495 -153.063,7.0581 -119.5193,91.2795 1.8207,6.5404 -6.1867,34.0069 10.2703,30.3191 z m 187.5346,-48.3471 c -7.2539,-36.3031 5.1663,-44.9283 0,0 z m -1136.86952,33.2397 c 5.9412,-4.4055 -6.1901,2.674 0,0 z m 1229.08482,-39.6596 c 46.1967,-20.51 146.1626,13.0499 152.6843,-48.8025 -4.1494,-50.6289 -18.4068,-119.9462 -84.2047,-71.3096 -70.7173,1.4172 -132.0899,45.4034 -94.0128,117.4196 7.4231,6.1776 17.1142,3.3862 25.5332,2.6925 z m 327.1262,-2.6823 c 11.2771,-57.7028 -14.9937,-116.2002 -69.8693,-140.7838 -65.3039,-33.3281 -55.8638,109.22 -7.3588,110.8519 27.2807,4.5609 59.2524,7.7837 77.2281,29.9319 z m -26.3032,-93.2845 c -5.6573,-6.7264 6.844,1.6252 0,0 z m -843.8187,5.85 c 72.1303,-6.3383 160.2205,10.2172 216.7074,-39.8954 61.3447,39.7453 141.8038,6.3196 206.3227,-4.3515 17.7076,-44.698 41.0185,-68.1098 73.841,-16.6566 40.0587,4.7251 121.727,-22.8985 138.6482,-38.566 -174.3731,-36.3067 -350.2871,13.6529 -525.7063,11.7881 -56.1663,11.7293 -159.9773,-8.226 -184.2419,34.9522 3.8078,38.4616 37.8644,58.7499 74.4289,52.7292 z m -469.01692,-3.0773 c 1.7135,-2.463 -4.4416,-0.8195 0,0 z m -128.4009,-3.0571 c 20.3894,-11.8454 -13.9363,-32.0255 0,0 z m 77.4707,-7.1628 c 8.7404,-17.0625 -17.2789,4.5773 0,0 z m 8.7913,-0.969 c -1.1116,-4.2232 -4.4967,1.4543 0,0 z m -2.6965,-4.3222 c -0.9462,-4.8173 -3.9049,0.9159 0,0 z M 2065.233,1242.0358 c -1.612,-11.0296 -3.9802,8.0592 0,0 z M 767.92908,1216.0525 c -5.4408,-15.2179 -10.4129,1.5743 0,0 z m -294.3721,596.8498 c -1.6886,-4.0042 2.8612,0.792 0,0 z m 1261.86322,-752.321 c -13.3294,-7.1592 11.5117,-8.241 0,0 z"
     id="path4594"
     inkscape:connector-curvature="0" />
</svg>
