<?xml version="1.0" encoding="UTF-8" standalone="no"?>
<!-- Created with Inkscape (http://www.inkscape.org/) -->

<svg
   xmlns:dc="http://purl.org/dc/elements/1.1/"
   xmlns:cc="http://creativecommons.org/ns#"
   xmlns:rdf="http://www.w3.org/1999/02/22-rdf-syntax-ns#"
   xmlns:svg="http://www.w3.org/2000/svg"
   xmlns="http://www.w3.org/2000/svg"
   xmlns:sodipodi="http://sodipodi.sourceforge.net/DTD/sodipodi-0.dtd"
   xmlns:inkscape="http://www.inkscape.org/namespaces/inkscape"
   width="210mm"
   height="297mm"
   viewBox="0 0 210 297"
   version="1.1"
   id="svg8"
   inkscape:version="0.92.3 (2405546, 2018-03-11)"
   sodipodi:docname="happybirthday.svg">
  <defs
     id="defs2">
    <inkscape:perspective
       sodipodi:type="inkscape:persp3d"
       inkscape:vp_x="0 : 148.5 : 1"
       inkscape:vp_y="0 : 1000 : 0"
       inkscape:vp_z="210 : 148.5 : 1"
       inkscape:persp3d-origin="105 : 99 : 1"
       id="perspective827" />
  </defs>
  <sodipodi:namedview
     id="base"
     pagecolor="#ffffff"
     bordercolor="#666666"
     borderopacity="1.0"
     inkscape:pageopacity="0.0"
     inkscape:pageshadow="2"
     inkscape:zoom="0.49497475"
     inkscape:cx="467.87743"
     inkscape:cy="465.49649"
     inkscape:document-units="mm"
     inkscape:current-layer="layer1"
     showgrid="false"
     showguides="true"
     inkscape:measure-start="0,0"
     inkscape:measure-end="0,0"
     inkscape:snap-global="false"
     inkscape:window-width="1920"
     inkscape:window-height="1025"
     inkscape:window-x="0"
     inkscape:window-y="27"
     inkscape:window-maximized="1" />
  <metadata
     id="metadata5">
    <rdf:RDF>
      <cc:Work
         rdf:about="">
        <dc:format>image/svg+xml</dc:format>
        <dc:type
           rdf:resource="http://purl.org/dc/dcmitype/StillImage" />
        <dc:title></dc:title>
      </cc:Work>
    </rdf:RDF>
  </metadata>
  <g
     inkscape:label="Layer 1"
     inkscape:groupmode="layer"
     id="layer1">
    <path
       sodipodi:type="inkscape:offset"
       inkscape:radius="1.0099975"
       inkscape:original="M 40.410156 28.763672 C 34.451687 32.211744 38.935429 44.239827 39.810547 50.75 C 40.948559 59.215886 43.220074 67.003292 42.152344 75.472656 C 47.216695 75.88121 46.586742 64.830787 45.539062 60.507812 C 45.062295 58.540558 44.839114 56.568788 44.462891 54.599609 C 49.137994 55.167027 56.397384 55.638411 61.380859 54.341797 C 62.94006 61.343513 64.057676 68.416419 65.804688 75.386719 C 69.973757 75.815041 66.485489 65.857657 65.939453 62.089844 C 64.365378 51.228253 58.87877 40.928309 60.230469 29.792969 C 55.226098 32.11386 57.081659 39.579128 58.457031 43.566406 C 59.680156 47.11231 60.57177 50.712177 61.376953 54.326172 C 60.348899 52.084259 49.696782 53.984061 44.210938 53.220703 C 42.731903 45.069865 41.710995 36.910679 40.410156 28.763672 z M 140.3418 34.78125 C 138.05573 34.77305 135.51479 35.798911 133.04102 37.259766 C 130.71078 38.635853 128.47641 40.415799 126.60547 42.162109 A 0.529691 0.50320364 0 0 0 126.375 42.220703 L 124.83398 43.009766 A 0.529691 0.50320364 0 0 0 124.60156 43.248047 C 124.36828 43.745309 124.23685 44.270196 124.09375 44.761719 C 123.99695 44.864442 123.85926 44.992091 123.72461 45.15625 A 0.529691 0.50320364 0 0 0 123.82227 45.865234 C 122.42159 52.113863 124.31472 60.991894 125.55664 67.072266 A 0.529691 0.50320364 0 0 0 126.3418 67.412109 C 127.75157 66.641533 128.41064 65.177561 128.63867 63.443359 C 128.86671 61.709157 128.6969 59.646038 128.39844 57.445312 C 127.81176 53.118415 126.74435 48.254536 126.98242 44.630859 C 129.55524 43.014248 131.90862 40.586756 134.05664 38.871094 C 135.16635 37.984754 136.22215 37.304756 137.1582 37.021484 C 138.08078 36.742289 138.85289 36.803729 139.69141 37.388672 C 146.85664 45.108578 139.01805 57.150214 130.82227 55.853516 A 0.529691 0.50320364 0 0 0 130.2168 56.447266 C 130.34976 57.072695 130.87343 57.533585 131.49219 57.693359 C 132.11095 57.853132 132.8283 57.802768 133.63086 57.625 C 135.23597 57.269472 137.19844 56.36761 139.12891 55.078125 C 142.98854 52.50003 146.75247 48.34524 146.49023 43.728516 C 146.43483 40.566616 145.82117 38.35719 144.73438 36.898438 C 143.64551 35.436903 142.0578 34.787404 140.3418 34.78125 z M 172.18555 35.414062 C 169.60347 34.846269 164.79551 37.283126 167.26953 41.126953 C 167.71334 41.629746 168.01423 42.331204 168.4082 42.90625 C 166.66892 50.993731 165.29154 63.568898 162.28516 64.599609 C 163.47631 64.444622 159.79732 66.024705 156.57422 65.953125 C 147.73698 61.781746 155.8315 42.912408 154.46094 35.626953 C 147.34194 38.038241 150.12353 56.386111 148.50781 62.65625 C 154.2627 75.120954 166.78066 71.942634 168.95312 61.582031 C 170.09256 56.147998 171.08185 53.017733 171.85742 50.476562 C 175.35187 63.020795 173.02556 80.865231 166.83984 89.029297 C 163.43024 96.298974 150.1418 104.54327 145.16797 98.179688 C 140.41576 96.248858 145.91378 82.739734 139.64062 87.828125 C 136.2476 94.657679 142.34564 104.7146 150.51367 104.7832 C 164.21765 103.30861 173.10552 90.318509 174.83398 78.175781 C 176.91597 71.171427 174.70129 56.291631 172.95898 45.46875 C 173.10748 43.892277 173.03734 42.283323 172.375 40.025391 C 174.4822 37.178139 173.73479 35.754738 172.18555 35.414062 z M 112.29688 36.349609 C 111.05477 36.364779 109.75116 36.650793 108.4375 37.253906 A 0.529691 0.50320364 0 0 0 108.34375 37.310547 C 108.06247 37.517899 106.93975 38.22505 106.29492 38.857422 C 106.24492 38.906492 106.21522 38.968189 106.16992 39.017578 C 106.28736 38.387405 106.35637 37.725266 106.51172 37.121094 A 0.529691 0.50320364 0 0 0 105.87695 36.511719 C 103.79377 36.97822 102.68748 38.691871 102.16211 40.609375 C 101.63674 42.526878 101.61714 44.724719 101.66797 46.494141 A 0.529691 0.50320364 0 0 0 101.67383 46.558594 C 102.33947 50.650122 101.72299 55.233746 101.28906 59.714844 C 100.85509 64.195941 100.59879 68.58463 102.13086 72.318359 A 0.529691 0.50320364 0 0 0 103.10156 72.353516 C 105.37271 67.850602 105.47509 61.784107 105.41406 55.464844 C 105.36366 50.246533 105.24485 44.887869 105.97461 40.099609 C 106.00221 40.137139 105.9995 40.189529 106.0332 40.21875 C 106.29504 40.445776 106.55948 40.448605 106.85547 40.445312 C 107.15146 40.442012 107.50882 40.397451 107.97461 40.306641 A 0.529691 0.50320364 0 0 0 108.06055 40.28125 C 111.20348 39.118109 113.3499 39.535811 114.8125 40.759766 C 116.27511 41.983721 117.07512 44.128709 117.15039 46.546875 C 117.22569 48.96504 116.57977 51.629943 115.2793 53.810547 C 113.97884 55.991151 112.05016 57.677566 109.53906 58.263672 A 0.529691 0.50320364 0 0 0 109.39844 58.316406 C 108.2779 58.934739 107.50455 59.388057 107.00391 59.707031 C 106.75359 59.866519 106.57357 59.990728 106.4375 60.099609 C 106.3695 60.154049 106.31269 60.201168 106.25195 60.271484 C 106.22155 60.306634 106.189 60.34528 106.1543 60.417969 C 106.1196 60.490659 106.069 60.620253 106.125 60.796875 C 106.181 60.973497 106.35837 61.101096 106.46875 61.138672 C 106.57913 61.176252 106.64877 61.173595 106.70312 61.171875 C 106.81184 61.168475 106.87805 61.150419 106.95312 61.130859 C 107.10326 61.091749 107.26729 61.033673 107.4707 60.953125 C 107.87751 60.792039 108.42129 60.547739 109.05078 60.238281 C 110.30976 59.619363 111.90355 58.746896 113.32227 57.818359 C 114.67241 56.93471 115.82493 56.033747 116.44336 55.121094 C 121.31884 52.149701 122.49029 47.407837 121.32031 43.472656 C 120.14615 39.523451 116.64451 36.296489 112.29688 36.349609 z M 78.994141 38.046875 L 77.542969 38.724609 L 76.089844 39.400391 C 77.332006 45.570319 78.373682 51.784319 78.949219 58.046875 C 79.444436 63.43545 75.811583 74.034965 81.972656 72.927734 C 82.200898 69.508471 82.177901 66.066109 82.042969 62.619141 C 83.303428 62.369736 85.312407 61.809532 86.357422 61.736328 C 93.198089 59.971385 85.502253 59.592005 82.792969 61.326172 C 82.258171 61.629677 82.29133 61.679565 81.998047 61.875 C 81.633085 53.89425 80.49064 45.887481 78.994141 38.046875 z M 83.230469 39.34375 C 77.675064 42.362855 84.369353 49.231369 85.830078 52.873047 C 90.07103 57.242206 89.752688 69.600123 97.609375 68.146484 C 92.063602 58.92187 86.303612 49.636091 83.230469 39.34375 z "
       style="fill:#0055d4;fill-opacity:0.96296297;stroke:none;stroke-width:2.41399074;stroke-linecap:round;stroke-linejoin:round;stroke-miterlimit:4;stroke-dasharray:none;stroke-dashoffset:0;stroke-opacity:0.96581199"
       id="path937"
       d="m 40.421875,27.753906 a 1.0100985,1.0100985 0 0 0 -0.517578,0.134766 c -1.757474,1.017022 -2.759833,2.719111 -3.207031,4.617187 -0.447199,1.898077 -0.40229,4.027955 -0.152344,6.216797 0.499891,4.377684 1.845514,9.051351 2.263672,12.16211 1.150758,8.560711 3.377682,16.244169 2.341797,24.460937 a 1.0100985,1.0100985 0 0 0 0.919921,1.132813 c 1.628161,0.131347 2.990073,-0.77779 3.757813,-2.039063 0.76774,-1.261273 1.133237,-2.858242 1.314453,-4.568359 0.362433,-3.420235 -0.06177,-7.293657 -0.621094,-9.601563 -0.35705,-1.473276 -0.571833,-3.020525 -0.832031,-4.574219 4.390194,0.475134 10.174387,0.782259 14.900391,-0.203124 1.447094,6.663012 2.550756,13.423254 4.234375,20.140624 a 1.0100985,1.0100985 0 0 0 0.876953,0.757813 c 0.711893,0.07314 1.428533,-0.08858 1.955078,-0.503906 0.526545,-0.415326 0.818551,-1.003477 0.980469,-1.605469 0.323835,-1.203983 0.22182,-2.602197 0.0039,-4.113281 C 68.204797,67.145799 67.1868,63.652081 66.939453,61.945312 65.330598,50.84373 59.929099,40.650877 61.232422,29.914062 a 1.0100985,1.0100985 0 0 0 -1.427734,-1.037109 c -1.460185,0.677194 -2.475803,1.785402 -3.070313,3.058594 -0.59451,1.273191 -0.798492,2.694603 -0.792969,4.123047 0.01105,2.856886 0.855157,5.792927 1.560547,7.83789 0.969071,2.809387 1.647806,5.687923 2.326172,8.572266 -0.230359,-0.04427 -0.423917,-0.125931 -0.673828,-0.15625 -1.33477,-0.161931 -2.96183,-0.153628 -4.716797,-0.103516 -3.235266,0.09238 -6.808925,0.278321 -9.355469,0.03711 -1.396873,-7.853051 -2.411834,-15.738857 -3.673828,-23.642578 a 1.0100985,1.0100985 0 0 0 -0.986328,-0.84961 z m 99.923825,6.017578 c -2.5909,-0.0093 -5.2621,1.109577 -7.81836,2.619141 -2.33979,1.38173 -4.52809,3.144616 -6.40429,4.876953 -0.0667,0.02291 -0.13987,0.01883 -0.20313,0.05078 a 1.0100985,1.0100985 0 0 0 -0.006,0.0039 l -1.54101,0.789062 c -0.29344,0.150412 -0.54129,0.400991 -0.68555,0.708984 -0.24421,0.521071 -0.36132,0.988266 -0.48047,1.41211 -0.081,0.08165 -0.14588,0.139597 -0.26367,0.283203 a 1.0100985,1.0100985 0 0 0 0,0.002 c -0.32414,0.396713 -0.30264,0.928255 -0.13672,1.416016 -1.37561,6.607527 0.53637,15.35018 1.75977,21.339844 0.19833,0.971853 1.42378,1.483735 2.26171,1.023437 1.76412,-0.965643 2.56138,-2.812836 2.8125,-4.722656 0.24999,-1.901119 0.0607,-4.030202 -0.24218,-6.263672 -0.0213,-0.156969 -0.0499,-0.32044 -0.0723,-0.478516 0.28414,0.942047 1.03598,1.613109 1.91406,1.839844 0.85148,0.219863 1.72208,0.135992 2.60938,-0.06055 1.7875,-0.395927 3.82735,-1.349083 5.83984,-2.693359 4.02155,-2.686249 8.09589,-7.043578 7.80664,-12.236328 -0.0612,-3.267252 -0.68563,-5.68804 -1.95117,-7.386719 -1.28424,-1.723777 -3.2306,-2.516378 -5.19922,-2.523438 z m 32.05664,0.65625 c -1.71546,-0.377227 -3.73363,0.169371 -5.21875,1.414063 -0.74256,0.622346 -1.34982,1.468184 -1.54492,2.503906 -0.19509,1.035723 0.0559,2.201139 0.78125,3.328125 a 1.0100985,1.0100985 0 0 0 0.0918,0.121094 c 0.22256,0.25214 0.5109,0.79308 0.82812,1.3125 -0.84784,4.031277 -1.60606,8.974048 -2.5039,13.076172 -0.46314,2.116033 -0.96717,3.999524 -1.50782,5.353515 -0.54064,1.353992 -1.19311,2.046404 -1.37109,2.107422 a 1.0100985,1.0100985 0 0 0 -0.5,0.38086 c -0.19909,0.08261 -0.33236,0.149179 -0.67383,0.255859 -1.02721,0.320922 -2.56194,0.610916 -3.93554,0.623047 -1.75647,-0.908613 -2.70129,-2.432128 -3.15039,-4.626953 -0.46596,-2.27721 -0.34463,-5.169997 0.0234,-8.197266 0.36806,-3.027269 0.97175,-6.18931 1.4043,-9.078125 0.43255,-2.888815 0.71881,-5.485767 0.32812,-7.5625 a 1.0100985,1.0100985 0 0 0 -1.3164,-0.769531 c -2.1673,0.734091 -3.51337,2.666283 -4.33399,4.978516 -0.82061,2.312232 -1.18747,5.09797 -1.38867,7.976562 -0.40238,5.757185 -0.17125,12.010374 -0.88476,14.779297 a 1.0100985,1.0100985 0 0 0 0.0625,0.675781 c 3.00796,6.515044 8.02686,9.191044 12.61132,8.59961 4.58447,-0.591435 8.57635,-4.349282 9.73829,-9.890626 0.71117,-3.391627 1.23571,-4.922685 1.8125,-6.925781 0.87,5.189511 0.93178,10.956637 0.22265,16.402344 -0.90244,6.930312 -3.02565,13.306008 -5.9414,17.154297 a 1.0100985,1.0100985 0 0 0 -0.10938,0.179687 c -1.55293,3.311031 -5.61431,7.137664 -9.78516,9.212891 -2.08542,1.037613 -4.19027,1.642205 -5.96289,1.634766 -1.77261,-0.0074 -3.17092,-0.553068 -4.21484,-1.888672 a 1.0100985,1.0100985 0 0 0 -0.41406,-0.314453 c -0.74462,-0.302541 -1.14607,-1.07453 -1.3711,-2.382813 -0.22502,-1.308282 -0.1915,-2.97736 -0.19335,-4.490234 -9.3e-4,-0.756438 -0.011,-1.475813 -0.0879,-2.13086 -0.0768,-0.655046 -0.18533,-1.265444 -0.60937,-1.824218 -0.42404,-0.558775 -1.32187,-0.843231 -2.04492,-0.664063 -0.72305,0.179168 -1.39726,0.608833 -2.23828,1.291016 a 1.0100985,1.0100985 0 0 0 -0.26758,0.335937 c -1.89168,3.807608 -1.12131,8.384261 1.15039,12 2.27169,3.615744 6.12276,6.376304 10.61914,6.414064 a 1.0100985,1.0100985 0 0 0 0.11523,-0.006 c 14.23034,-1.53123 23.34989,-14.844162 25.18164,-27.324219 1.12452,-3.783164 1.04862,-9.297643 0.53321,-15.294922 -0.51362,-5.976314 -1.50128,-12.391813 -2.3711,-17.796875 0.12431,-1.497528 0.0106,-3.137398 -0.53125,-5.173828 0.90751,-1.334735 1.38292,-2.502196 1.2168,-3.572266 -0.18472,-1.18989 -1.21853,-1.970877 -2.24805,-2.197266 z m -60.11718,0.91211 c -1.38849,0.01696 -2.83565,0.337786 -4.26954,0.996094 a 1.0100985,1.0100985 0 0 0 -0.01,0.0039 c -0.0952,0.04496 -0.1867,0.100048 -0.27148,0.164062 -0.0342,0.02491 -0.26546,0.185194 -0.41211,0.285156 -0.0582,-0.311464 -0.0263,-0.654375 -0.25,-0.86914 -0.37403,-0.359067 -0.91878,-0.504144 -1.41407,-0.394531 a 1.0100985,1.0100985 0 0 0 -0.002,0 c -2.52347,0.565097 -3.88842,2.698305 -4.46875,4.816406 -0.57565,2.101027 -0.58103,4.380773 -0.5293,6.181641 0.002,0.0652 0.007,0.130978 0.0176,0.195312 a 1.0100985,1.0100985 0 0 0 0.002,0.002 c 0.63058,3.875972 0.0419,8.389809 -0.39453,12.896485 -0.436388,4.506096 -0.738538,9.056507 0.91407,13.083984 a 1.0100985,1.0100985 0 0 0 0,0.002 c 0.22867,0.556281 0.79542,0.924463 1.37109,0.945313 0.57567,0.02085 1.16262,-0.302971 1.43359,-0.837891 a 1.0100985,1.0100985 0 0 0 0.002,-0.002 c 1.55578,-3.084587 2.02206,-6.810516 2.22265,-10.701172 0.21873,0.05394 0.46598,0.07554 0.50782,0.07422 0.20757,-0.0065 0.40412,-0.05636 0.47265,-0.07422 0.21252,-0.05536 0.41306,-0.12705 0.63477,-0.214844 0.44536,-0.17635 1.00701,-0.429839 1.65429,-0.748047 1.29337,-0.635822 2.91275,-1.520879 4.37891,-2.480469 1.32281,-0.865758 2.47869,-1.756327 3.25586,-2.818359 5.06025,-3.194426 6.42758,-8.390647 5.1582,-12.660156 -1.28765,-4.33093 -5.14999,-7.905009 -10.0039,-7.845703 z m -33.308598,1.697265 a 1.0100985,1.0100985 0 0 0 -0.410156,0.09375 l -1.449218,0.677735 -1.453126,0.675781 a 1.0100985,1.0100985 0 0 0 -0.564453,1.115234 c 1.237829,6.148403 2.272805,12.32647 2.84375,18.539063 0.221488,2.410063 -0.53753,6.429226 -0.617187,9.759766 -0.03983,1.665269 0.0538,3.198493 0.769531,4.435546 0.357863,0.618527 0.915667,1.150191 1.626953,1.431641 0.711287,0.28145 1.528046,0.317937 2.427735,0.15625 a 1.0100985,1.0100985 0 0 0 0.830078,-0.927734 c 0.212349,-3.18117 0.173029,-6.3683 0.06641,-9.550782 1.249253,-0.27851 2.754021,-0.655308 3.380859,-0.699218 a 1.0100985,1.0100985 0 0 0 0.181641,-0.0293 c 0.8815,-0.227434 1.541358,-0.434929 2.044922,-0.636719 0.132372,-0.05304 0.204774,-0.157106 0.318359,-0.205078 0.156637,0.408215 0.293539,0.808156 0.458985,1.207031 0.74033,1.784871 1.608511,3.462582 2.945312,4.660156 1.336801,1.197574 3.201306,1.808202 5.416016,1.398438 a 1.0100985,1.0100985 0 0 0 0.68164,-1.511719 C 92.923934,58.394186 87.221023,49.17509 84.199219,39.054688 a 1.0100985,1.0100985 0 0 0 -1.451172,-0.597657 c -1.181974,0.642348 -1.842493,1.576784 -2.246094,2.576172 -0.186635,-1.05464 -0.315474,-2.127129 -0.515625,-3.175781 a 1.0100985,1.0100985 0 0 0 -1.009766,-0.820313 z m 59.345708,0.81836 c 0.21473,0.02648 0.43379,0.14812 0.6914,0.316406 6.41272,7.068531 -0.9194,17.809107 -8.0332,16.683594 a 1.0100985,1.0100985 0 0 0 -0.002,0 c -0.47333,-0.07377 -0.97991,0.08043 -1.33008,0.423828 -0.31085,0.304831 -0.40981,0.775658 -0.37305,1.21875 -0.58113,-4.015778 -1.38148,-8.254803 -1.25781,-11.392578 2.50472,-1.685434 4.73804,-3.902283 6.66992,-5.445313 1.06245,-0.848591 2.05499,-1.457411 2.76367,-1.671875 0.36687,-0.111023 0.6255,-0.163095 0.8711,-0.132812 z m -33.28125,2.61914 c 0.007,0.02183 0.10595,0.143253 0.14062,0.216797 l -0.0215,0.0059 c -0.12844,-0.174649 -0.13581,-0.273815 -0.11914,-0.222657 z m 6.90429,0.13086 c 0.92517,0.0889 1.63057,0.437476 2.21875,0.929687 1.15623,0.967566 1.90764,2.828676 1.97656,5.042969 0.069,2.215499 -0.5381,4.718786 -1.72851,6.714844 -1.19278,2.000053 -2.89855,3.471676 -5.10352,3.986328 h 0.008 c -0.13903,0.03131 -0.27401,0.08178 -0.40039,0.150391 a 1.0100985,1.0100985 0 0 0 -0.006,0.002 c -1.13126,0.624246 -1.91679,1.084597 -2.44922,1.423828 -0.0571,0.03636 -0.0887,0.06363 -0.14063,0.09766 0.0118,-1.180367 0.11509,-2.299436 0.10352,-3.498047 -0.0464,-4.802064 -0.0783,-9.626515 0.45703,-14.001953 0.3847,-0.0053 0.79227,-0.05782 1.28711,-0.154297 a 1.0100985,1.0100985 0 0 0 0.0137,-0.0039 c 0.0774,-0.01617 0.15414,-0.03856 0.22852,-0.06641 1.46437,-0.541937 2.60999,-0.711946 3.53515,-0.623047 z m -30.437498,6.626953 c 1.227313,2.329952 2.854009,4.694368 3.384766,6.017578 a 1.0100985,1.0100985 0 0 0 0.212891,0.326172 c 1.14529,1.179913 2.009002,3.339304 2.863281,5.65039 -1.479758,-0.07025 -3.481128,0.214484 -5.103516,1.025391 -0.253593,-4.355858 -0.729996,-8.696561 -1.357422,-13.019531 z m 0.78711,13.214844 c -0.02158,0.01225 -0.01103,0.0098 -0.03125,0.02148 -0.0045,0.0029 -0.01109,0.003 -0.01563,0.0059 z"
       transform="translate(-6.9490077,8.5526249)" />
    <path
       sodipodi:type="inkscape:offset"
       inkscape:radius="1.2294137"
       inkscape:original="M 185.27148 98.583984 L 182.41211 100.16211 C 174.16364 110.89846 175.86814 126.72285 174.8457 141.48633 C 170.75635 136.69186 164.24188 133.71957 158.80469 138.28516 C 142.37266 149.67909 162.79479 189.02667 176.77734 171.63086 C 185.03562 159.77252 173.50949 163.03362 170.09961 170.94922 C 158.86172 170.28807 163.36316 150.26545 162.19727 142.64844 C 164.8455 145.48323 169.28534 150.2613 172.59375 154.77148 C 172.31959 155.6941 172.15612 156.66612 171.81445 157.55859 C 172.70076 157.39756 173.43861 157.14002 174.14062 156.86133 C 174.17714 156.92255 174.27235 157.02441 174.30664 157.08398 C 174.43772 156.95828 174.53854 156.81176 174.66602 156.68359 C 177.20103 155.51655 178.40175 153.56472 178.67383 151.32422 C 186.55428 137.15219 182.32916 114.85153 185.27148 98.583984 z M 127.93164 103.8418 C 124.65424 105.89204 122.39115 109.01164 120.95312 112.2207 C 118.7873 115.96008 119.4536 120.09386 118.78125 124.04688 C 117.87869 128.83808 116.8711 134.83375 110.86719 137.0918 C 107.91235 137.93867 102.62598 140.13599 100.76758 139.56445 C 103.421 128.16384 105.05666 116.50063 103.95898 104.88477 C 102.37801 105.91302 100.14818 106.51737 99.826172 108.39648 C 96.277927 117.25128 97.477495 126.75153 96.396484 135.91016 C 96.794196 138.89387 94.950056 142.7936 93.353516 144.02734 C 94.934338 143.79224 90.990074 145.29705 92.859375 143.73047 C 93.385111 141.89169 88.895693 145.04091 87.589844 145.7168 C 84.782094 147.33554 80.643646 147.92191 78.894531 150.65039 C 82.015751 151.52434 85.544503 149.13005 88.873047 148.88281 C 91.004033 148.58158 95.509367 146.15669 93.201172 149.41797 C 92.232953 152.52969 91.80314 155.8421 90.417969 158.91992 C 88.916851 163.56462 86.393871 168.14941 86.460938 173.0293 C 88.074095 176.74588 93.529021 172.77108 92.671875 169.86523 C 94.766555 161.78269 97.181799 153.75996 99.267578 145.67578 C 101.81617 144.37353 107.30547 143.00928 107.34961 140.69727 C 105.79738 140.0901 101.72529 141.43401 105.31641 140.31055 C 109.66053 139.21071 114.04178 141.83143 118.31836 140.66797 C 121.80438 138.86309 120.38985 134.75347 121.87695 131.95508 C 122.89186 128.41502 124.12869 124.92133 125.26758 121.4082 C 126.02274 130.6001 128.2863 139.86262 126.54688 149.06836 C 128.44499 153.05443 126.15574 157.12741 125.18164 161.04492 C 124.48072 164.51365 123.50053 171.64741 124.24023 175.14062 C 127.09233 177.95476 130.15619 168.74797 130.54102 166.47266 C 132.6342 159.26282 133.73035 151.84788 136.43945 144.76562 C 137.52569 142.40998 139.63454 136.44702 141.70117 141.24609 C 143.4331 144.46455 144.26039 148.02552 144.63086 151.53125 C 145.30251 159.26925 140.21699 166.82843 142.70703 174.52148 C 143.80578 178.44246 147.21624 171.74422 148.10938 170.00586 C 151.47047 161.62792 148.31383 152.66699 150.3457 144.11523 C 150.45439 140.89015 149.98176 136.61409 146.1582 134.88477 C 141.74042 133.82795 137.97466 137.01875 135.32031 139.55469 C 133.98557 140.72525 132.3556 143.8882 132.79297 140.53125 C 132.29886 130.50232 131.45138 120.46539 132.11133 110.42773 C 131.98533 107.91907 131.90506 103.40283 127.93164 103.8418 z M 29.533203 104.56836 C 13.860262 104.45876 2.2920478 115.07082 -4.8808594 126.06055 C -8.5134132 127.29545 -10.614258 130.13475 -10.625 133.61523 C -9.315654 143.06201 -14.977848 153.31371 -11.984375 161.98828 C -2.0375974 155.47419 -6.4653408 140.47267 -4.09375 129.26953 C -0.38506733 127.20128 1.9049701 123.55692 4.0566406 120.36133 C 6.738035 107.1645 31.715115 103.4736 32.958984 119.21484 C 31.932427 124.11224 29.821376 130.2654 26.230469 135.19531 C 17.411174 133.73537 7.1092995 136.35003 2.1875 142.4707 C 3.7026269 152.28607 16.741957 145.7936 24.908203 139.75977 C 31.842898 142.6283 37.801958 148.95745 35.519531 155.10547 C 36.947651 169.46622 14.964168 178.50233 4.5996094 165.80664 C -5.1926243 157.15852 -6.760235 171.74148 2.9238281 173.3457 C 22.866687 182.12724 48.297916 162.97593 40.607422 145.4043 C 38.860094 140.59152 34.619915 137.48581 29.492188 135.94727 C 29.753208 135.69436 30.000252 135.44758 30.214844 135.21875 C 38.809059 127.19972 44.45486 110.77151 30.384766 104.58594 C 30.099042 104.57694 29.816255 104.57036 29.533203 104.56836 z M 47.271484 122.125 C 46.792345 123.09418 40.36596 124.69437 44.695312 125.29297 C 49.522887 131.18451 56.753014 120.9518 47.271484 122.125 z M 52.333984 133.74805 C 47.735642 135.07293 44.837966 138.80361 45.205078 143.34961 C 47.577871 154.06957 44.531291 165.41452 44.908203 175.57227 C 58.264189 168.04407 49.306686 146.85009 52.333984 133.74805 z M 60.21875 134.7168 A 0.59769384 0.59769384 0 0 0 59.943359 134.78125 L 58.693359 135.41797 A 0.59769384 0.59769384 0 0 0 58.402344 135.75 C 54.360324 147.03968 58.996147 161.36343 58.783203 173.44336 A 0.59769384 0.59769384 0 0 0 59.572266 174.01953 C 59.87884 173.91541 60.048172 173.69359 60.267578 173.50781 C 60.509665 173.88082 60.710369 174.26747 61.150391 174.59766 A 0.59769384 0.59769384 0 0 0 62.107422 174.13672 C 62.139312 173.03828 62.031712 171.98839 62.013672 170.97656 C 62.731656 168.94155 63.062328 166.25211 63.404297 163.58789 C 63.75413 160.8624 64.131643 158.18045 64.845703 156.47852 A 0.59769384 0.59769384 0 0 0 64.882812 156.35547 C 65.793131 151.3345 68.469858 146.76843 72.162109 144.02344 C 75.85436 141.27844 80.521796 140.31165 85.658203 142.44336 A 0.59769384 0.59769384 0 0 0 86.478516 141.97852 C 86.604321 141.12511 86.246272 140.32636 85.613281 139.8418 C 84.98029 139.35723 84.128569 139.10976 83.132812 138.99805 C 81.1413 138.77462 78.522755 139.12191 75.833984 139.94336 C 73.145214 140.76481 70.396126 142.06603 68.216797 143.82227 C 66.037468 145.5785 64.409441 147.81705 64.109375 150.47852 L 64.117188 150.42969 C 63.684897 152.62689 62.493792 155.69249 61.333984 158.85742 C 60.593193 150.9922 59.749741 143.17604 60.806641 135.39453 A 0.59769384 0.59769384 0 0 0 60.21875 134.7168 z M 223.39258 137.09766 C 223.38758 137.09853 223.38235 137.10056 223.37695 137.10156 C 221.6392 137.23024 220.35263 138.65733 219.97852 140.32812 C 219.96782 140.37602 219.95933 140.42583 219.95312 140.47461 C 219.29524 145.6932 220.86859 166.02692 222.85742 170.70703 C 224.51825 174.93339 229.20555 176.97247 233.11523 175.2168 C 233.64731 175.00166 234.12989 174.73115 234.57617 174.42383 C 234.70077 175.13932 234.911 175.76059 235.23828 176.23438 C 241.49212 190.02687 232.65425 198.91491 223.33789 209.83008 C 207.09696 228.85821 193.73866 201.23957 189.57617 209.15625 C 185.24583 217.39213 214.30679 241.29472 237.20703 201.5625 C 245.26374 185.46907 244.28665 179.75962 240.57812 163.41992 C 239.99844 160.86578 241.39265 143.27638 241.77539 140.59766 C 241.87685 139.89206 241.48408 139.21337 240.85352 139.00391 C 239.84554 138.66799 238.67385 138.8851 237.99414 139.59375 C 237.31445 140.30241 237.0969 141.14657 236.93164 141.93359 C 236.60115 143.50761 236.42169 145.22551 236.25586 145.54688 C 236.19106 145.67188 236.14516 145.80714 236.11719 145.94727 C 235.38569 149.67372 234.70241 168.23584 232.67578 171.21094 C 230.73054 171.4715 228.77184 170.95 227.81641 169.28906 C 225.39257 164.675 223.92441 144.02214 224.77344 138.7832 C 224.92263 137.87107 224.24683 137.04587 223.39258 137.09766 z M 17.388672 138.17773 C 19.134078 138.15413 20.990784 138.45555 22.830078 139.01562 C 19.261683 142.24707 14.674479 144.2499 8.8515625 143.73828 C 10.241185 139.85365 13.544953 138.22981 17.388672 138.17773 z M 210.93945 138.19727 C 210.59827 138.18927 210.22885 138.23 209.83789 138.33594 C 203.20323 138.89322 195.57032 139.30736 190.80664 143.70312 C 191.19616 143.61542 191.41442 143.57162 191.76953 143.49219 C 184.31177 149.72221 183.23923 163.31466 184.13867 173.33594 C 191.67315 178.21856 198.72767 168.8361 203.75586 158.14062 C 204.0277 160.98425 204.73955 163.4229 206.05469 164.81055 C 217.32249 167.40689 213.3065 148.69273 212.375 140.8125 C 213.87981 139.92954 212.88294 138.24443 210.93945 138.19727 z M 203.99219 141.79688 C 198.80489 148.84285 198.59685 166.53896 191.38086 171.70117 C 194.28602 168.98953 189.43987 150.60621 195.0625 142.76562 C 200.45255 141.61545 199.95208 141.97682 203.99219 141.79688 z M 232.43945 171.64258 C 232.40175 171.69568 232.36753 171.74116 232.33203 171.78906 C 232.36393 171.73446 232.40076 171.67105 232.41016 171.66016 L 232.43945 171.64258 z "
       style="fill:#0055d4;fill-opacity:0.96296297;stroke:none;stroke-width:2.96499991;stroke-linecap:round;stroke-linejoin:round;stroke-miterlimit:4;stroke-dasharray:none;stroke-dashoffset:0;stroke-opacity:0.96581199"
       id="path967"
       d="m 185.20898,97.355469 a 1.2295367,1.2295367 0 0 0 -0.53125,0.152343 l -2.85937,1.578126 a 1.2295367,1.2295367 0 0 0 -0.38086,0.328124 c -8.14942,10.607428 -7.0352,25.488118 -7.7168,39.390628 -1.80827,-1.61168 -3.80319,-2.99579 -6.0664,-3.61524 -3.11882,-0.85362 -6.59501,-0.36631 -9.58789,2.11914 -4.44821,3.10759 -6.3935,8.1263 -6.58008,13.39649 -0.18718,5.2869 1.31891,10.90191 3.8125,15.62304 2.49359,4.72114 5.96226,8.59043 10.01172,10.17774 4.04946,1.5873 8.6968,0.53378 12.42578,-4.10547 a 1.2295367,1.2295367 0 0 0 0.0508,-0.0664 c 2.12611,-3.05295 3.09971,-5.14218 3.13867,-6.89843 0.0195,-0.87813 -0.30468,-1.78469 -0.99609,-2.30274 -0.69142,-0.51804 -1.52222,-0.58327 -2.28907,-0.47461 -1.53368,0.21732 -3.14172,1.11474 -4.70117,2.45899 -1.31518,1.13369 -2.49623,2.6682 -3.41992,4.41015 -1.9629,-0.30438 -3.25087,-1.19597 -4.16015,-2.81054 -1.0229,-1.8163 -1.55542,-4.46518 -1.76172,-7.39649 -0.32192,-4.57408 -0.0193,-9.39125 -0.10743,-13.42578 2.44564,2.66109 5.28108,5.85595 7.75,9.16016 -0.19289,0.74727 -0.35843,1.50081 -0.57421,2.06445 a 1.2295367,1.2295367 0 0 0 1.36914,1.64844 c 0.70651,-0.12837 1.25124,-0.34247 1.8164,-0.54297 a 1.2295367,1.2295367 0 0 0 1.30664,-0.25391 c 0.2106,-0.20195 0.27857,-0.30081 0.32227,-0.35547 2.56693,-1.30568 3.98541,-3.50435 4.35156,-5.89062 4.03074,-7.37627 4.92491,-16.58962 5.2207,-25.94531 0.2983,-9.43469 -0.008,-19.04103 1.42774,-26.976566 a 1.2295367,1.2295367 0 0 0 -1.27149,-1.447265 z m -57.4121,5.263671 a 1.2295367,1.2295367 0 0 0 -0.51758,0.17969 c -3.5181,2.20081 -5.90141,5.50883 -7.41602,8.86719 -2.37516,4.15455 -1.67294,8.50741 -2.29492,12.16992 -2.1e-4,0.001 2e-4,0.003 0,0.004 -0.45196,2.39959 -0.92725,4.98545 -1.94531,7.15821 -1.02104,2.17909 -2.50187,3.93256 -5.18946,4.94336 -1.5506,0.4502 -3.54491,1.18375 -5.38476,1.74218 -0.93629,0.28419 -1.82697,0.51845 -2.54492,0.64258 -0.11931,0.0206 -0.11928,-0.003 -0.22852,0.01 2.46687,-10.99929 3.97534,-22.27379 2.9082,-33.56641 a 1.2295367,1.2295367 0 0 0 -1.89453,-0.91601 c -0.66131,0.43011 -1.6148,0.83889 -2.53711,1.43554 -0.922302,0.59665 -1.899626,1.51683 -2.136716,2.90039 -3.576533,9.15021 -2.391919,18.70117 -3.439453,27.57617 a 1.2295367,1.2295367 0 0 0 0.002,0.30665 c 0.156706,1.17563 -0.14213,2.73442 -0.693359,4.08984 -0.372215,0.91524 -0.83238,1.39695 -1.271484,1.95312 -0.346292,-0.14444 -0.690284,-0.19458 -0.927735,-0.16406 -0.740354,0.0952 -1.290246,0.39747 -1.945312,0.74219 -1.310133,0.68944 -2.842999,1.68762 -3.314453,1.93164 a 1.2295367,1.2295367 0 0 0 -0.04883,0.0273 c -1.233093,0.71091 -2.935483,1.26301 -4.617187,1.98633 -1.681704,0.72332 -3.409287,1.64623 -4.5,3.34766 a 1.2295367,1.2295367 0 0 0 0.703125,1.84765 c 1.957162,0.54802 3.861064,0.0648 5.605469,-0.47265 1.744404,-0.53749 3.392955,-1.14767 4.796875,-1.25195 a 1.2295367,1.2295367 0 0 0 0.08008,-0.01 c 1.043829,-0.14755 2.025468,-0.52187 2.919922,-0.80664 -0.958631,3.16841 -1.411282,6.33071 -2.667969,9.12305 a 1.2295367,1.2295367 0 0 0 -0.04883,0.125 c -1.449958,4.4864 -4.08866,9.19175 -4.015625,14.50586 a 1.2295367,1.2295367 0 0 0 0.101562,0.47265 c 0.535916,1.23471 1.607973,2.04813 2.722657,2.20899 1.114684,0.16085 2.171686,-0.19531 3.078125,-0.75 0.906439,-0.5547 1.687372,-1.33079 2.220703,-2.25782 0.439488,-0.76391 0.626556,-1.67849 0.523437,-2.61132 2.031947,-7.83378 4.367693,-15.64493 6.419924,-23.53711 1.15493,-0.53398 2.84595,-1.13414 4.46875,-1.89258 0.89716,-0.4193 1.74568,-0.877 2.45117,-1.47266 0.55976,-0.47262 0.98682,-1.13433 1.18555,-1.90039 1.03316,0.0622 2.10458,0.22508 3.23047,0.41797 2.17525,0.37267 4.53932,0.79993 7.00585,0.12891 a 1.2295367,1.2295367 0 0 0 0.24219,-0.0937 c 2.14163,-1.10883 2.88753,-3.13746 3.17774,-4.87305 0.29021,-1.7356 0.35162,-3.31914 0.90234,-4.35547 a 1.2295367,1.2295367 0 0 0 0.0957,-0.23828 c 0.48291,-1.68439 1.07423,-3.38184 1.62891,-5.06836 0.89965,7.33536 1.97976,14.57966 0.65039,21.61523 a 1.2295367,1.2295367 0 0 0 0.0996,0.75782 c 0.79669,1.67306 0.73037,3.34145 0.30469,5.21093 -0.42569,1.86949 -1.23651,3.85866 -1.75391,5.93946 a 1.2295367,1.2295367 0 0 0 -0.0117,0.0527 c -0.72166,3.57138 -1.79502,10.55334 -0.93945,14.59375 a 1.2295367,1.2295367 0 0 0 0.33984,0.62109 c 0.51497,0.50812 1.19023,0.85702 1.89258,0.88282 0.70236,0.0258 1.32906,-0.24929 1.82617,-0.60938 0.99422,-0.72018 1.68045,-1.80493 2.3086,-3.0039 1.25629,-2.39795 2.1132,-5.20964 2.34961,-6.60743 l -0.0312,0.13868 c 2.12075,-7.30483 3.21807,-14.66931 5.85546,-21.57813 0.58068,-1.26386 1.39789,-3.26239 2.09571,-4.16016 0.14807,-0.19049 0.25925,-0.2846 0.33984,-0.34765 -0.11,-0.0116 0.14044,0.0309 0.5586,1.00195 a 1.2295367,1.2295367 0 0 0 0.0469,0.0957 c 1.62784,3.02503 2.4269,6.4209 2.78711,9.81836 0.30705,3.56538 -0.7315,7.26095 -1.61719,11.1211 -0.88397,3.85269 -1.60111,7.91808 -0.25976,12.09765 0.17144,0.60767 0.39545,1.1302 0.8457,1.55469 0.45358,0.42763 1.20678,0.61763 1.76953,0.49805 1.12551,-0.23915 1.69089,-0.98797 2.30664,-1.77149 1.23152,-1.56703 2.30803,-3.71408 2.75195,-4.57812 a 1.2295367,1.2295367 0 0 0 0.0469,-0.10547 c 1.78646,-4.45298 1.82094,-8.98158 1.70508,-13.36914 -0.11586,-4.38756 -0.37458,-8.65075 0.58594,-12.69336 a 1.2295367,1.2295367 0 0 0 0.0332,-0.24414 c 0.057,-1.69077 -0.0244,-3.70084 -0.68555,-5.61719 -0.66119,-1.91634 -1.98349,-3.76178 -4.22461,-4.77539 a 1.2295367,1.2295367 0 0 0 -0.2207,-0.0742 c -2.55805,-0.61193 -4.94777,0.0233 -6.94727,1.09961 -1.98219,1.06696 -3.64155,2.55861 -4.98632,3.8418 -8.3e-4,7.2e-4 -0.001,0.001 -0.002,0.002 -0.24709,0.21693 -0.32795,0.37363 -0.54883,0.61914 -0.49927,-9.64471 -1.24658,-19.23064 -0.62109,-28.74414 a 1.2295367,1.2295367 0 0 0 0.002,-0.14258 c -0.0618,-1.23047 -0.0813,-3.08851 -0.72851,-4.77539 -0.32363,-0.84343 -0.83288,-1.67813 -1.66016,-2.26172 -0.82727,-0.58358 -1.9318,-0.84404 -3.15429,-0.70898 z m -98.255864,0.7207 c -16.09179,-0.11253 -27.9110095,10.67397 -35.2324222,21.76563 -3.7746019,1.4648 -6.1503118,4.68333 -6.1621098,8.50586 a 1.2295367,1.2295367 0 0 0 0.01172,0.17187 c 0.613284,4.42477 -0.42132,9.2286 -1.304687,14.08789 -0.883368,4.8593 -1.623428,9.81317 0,14.51758 a 1.2295367,1.2295367 0 0 0 1.835937,0.62891 c 5.4051867,-3.53983 6.8952426,-9.4411 7.3378908,-15.54102 0.4320032,-5.95322 0.014224,-12.26843 1.0429687,-17.53515 3.68921504,-2.29642 5.9799022,-5.8837 8.0058594,-8.89258 a 1.2295367,1.2295367 0 0 0 0.1855469,-0.44336 c 1.196835,-5.89038 7.5925972,-9.87951 13.8945312,-10.44531 3.150967,-0.2829 6.20432,0.29709 8.46875,1.76757 2.225466,1.44518 3.752979,3.71155 4.076172,7.21485 -0.976249,4.5708 -2.947675,10.21101 -6.132813,14.79492 -9.0037,-1.23318 -19.1631807,1.32606 -24.3398434,7.76367 a 1.2295367,1.2295367 0 0 0 -0.25585935,0.95703 c 0.42245905,2.7368 1.81628875,4.66031 3.76757815,5.50586 1.9512894,0.84556 4.2369857,0.69902 6.6191406,0.0859 4.529271,-1.16568 9.531013,-4.13043 13.597656,-7.0625 3.077425,1.37146 5.941224,3.41364 7.736328,5.76172 1.90136,2.48707 2.645637,5.11082 1.673829,7.72851 a 1.2295367,1.2295367 0 0 0 -0.07031,0.54883 C 35.597027,168.3005 15.198,176.84391 5.5527344,165.0293 a 1.2295367,1.2295367 0 0 0 -0.1386719,-0.14453 c -2.5887536,-2.28629 -4.79560645,-3.24183 -6.7265625,-2.99415 -1.930956,0.24769 -3.1874098,1.90305 -3.4453125,3.66211 -0.5158053,3.51813 2.0353299,8.10385 7.4804687,9.00586 l -0.2949218,-0.0879 c 10.4495006,4.60128 22.2321496,1.8924 30.4355466,-4.22851 4.101699,-3.06046 7.335634,-6.98979 9.050781,-11.37696 1.709951,-4.37387 1.869675,-9.22728 -0.166015,-13.91015 -1.692846,-4.62885 -5.542702,-7.69396 -10.117188,-9.47461 4.226026,-4.18899 7.64958,-10.13448 8.388672,-16.11524 0.774171,-6.26461 -1.683037,-12.62575 -9.140625,-15.90429 a 1.2295367,1.2295367 0 0 0 -0.455078,-0.10352 c -0.29239,-0.009 -0.586494,-0.0155 -0.882812,-0.0176 z m 17.580078,17.56446 c -0.515427,0.0306 -0.782811,0.46479 -0.94336,0.57812 -3.994655,2.34138 1.258578,-1.5724 -3.46875,1.84375 -0.898357,1.7769 -1.533778,2.18123 0.345704,2.82617 0.33373,0.14454 0.729826,0.21081 1.15039,0.28125 1.340782,1.37424 2.930056,2.04288 4.376953,1.90821 1.604489,-0.14934 2.93797,-1.01371 3.759766,-2.13672 0.410898,-0.56151 0.703691,-1.20247 0.777344,-1.91211 0.07365,-0.70964 -0.116667,-1.51 -0.623047,-2.12305 -1.012762,-1.2261 -2.807363,-1.58333 -5.375,-1.26562 z m 5.208984,11.61523 a 1.2295367,1.2295367 0 0 0 -0.335937,0.0469 c -5.056297,1.45682 -8.426907,5.76566 -8.013672,10.88281 a 1.2295367,1.2295367 0 0 0 0.02344,0.16601 c 2.285251,10.32446 -0.711491,21.56499 -0.324218,32.00196 a 1.2295367,1.2295367 0 0 0 1.832031,1.02539 c 3.605163,-2.03208 5.77186,-5.07681 6.93164,-8.54883 1.159781,-3.47202 1.37664,-7.36818 1.279297,-11.37305 -0.194684,-8.00973 -1.612444,-16.54511 -0.191406,-22.69531 a 1.2295367,1.2295367 0 0 0 -1.201172,-1.50586 z m 7.898438,0.96875 c 1.276206,-1.10224 -9.076466,4.4392 -2.095704,0.83594 -0.410246,0.20985 -0.73441,0.57945 -0.888671,1.01367 -4.252695,11.88089 0.517636,26.33615 0.310547,38.08399 a 1.2295367,1.2295367 0 0 0 0,0.002 c -0.01944,1.16525 1.308099,2.13307 2.412109,1.75976 0.04485,-0.0152 0.03046,-0.032 0.07227,-0.0488 0.147571,0.16577 0.161951,0.2869 0.373047,0.44531 0.532323,0.39998 1.290709,0.47449 1.890625,0.18554 0.599905,-0.28893 1.014072,-0.92819 1.033204,-1.59374 v -0.002 c 0.03325,-1.15086 -0.06668,-2.17074 -0.08984,-3.08203 0.723516,-2.1904 1.049374,-4.79164 1.376953,-7.34375 0.348483,-2.71498 0.760135,-5.36723 1.355469,-6.78711 v -0.002 c 0.0508,-0.1203 0.08924,-0.24469 0.113281,-0.37305 a 1.2295367,1.2295367 0 0 0 0,-0.008 c 0.858192,-4.73346 3.40799,-9.03919 6.804687,-11.56445 3.405058,-2.53149 7.519698,-3.41184 12.291016,-1.43165 1.022465,0.42416 2.346248,-0.32482 2.507812,-1.41992 0.191029,-1.29586 -0.360873,-2.54804 -1.333984,-3.29297 -0.895236,-0.68532 -1.973319,-0.96436 -3.091797,-1.08984 -2.25044,-0.25248 -4.985442,0.13386 -7.794922,0.99219 -2.811781,0.85903 -5.687669,2.21062 -8.029297,4.09765 -2.246502,1.81037 -4.016952,4.20526 -4.46875,7.10938 a 1.2295367,1.2295367 0 0 0 -0.06641,0.2168 c -0.119313,0.60643 -0.589705,1.73183 -0.832031,2.51171 -0.485466,-5.78459 -0.817181,-11.51428 -0.05273,-17.14257 a 1.2295367,1.2295367 0 0 0 0,-0.002 c 0.138406,-1.02406 -0.761728,-2.06146 -1.794922,-2.07031 z m 163.089844,2.38281 a 1.2295367,1.2295367 0 0 0 -0.0312,0.004 c -2.36077,0.17481 -4.035,2.07199 -4.50781,4.18359 a 1.2295367,1.2295367 0 0 0 0,0.002 c -0.0201,0.0898 -0.0342,0.17574 -0.0449,0.25976 a 1.2295367,1.2295367 0 0 0 -0.002,0 c -0.36893,2.92655 -0.10845,9.21615 0.45508,15.58008 0.28176,3.18197 0.64717,6.3476 1.07031,9.0332 0.42209,2.67887 0.86741,4.82685 1.46485,6.23829 1.90438,4.81797 7.32357,7.20823 11.88476,5.16796 0.12079,-0.0495 0.21386,-0.12368 0.33008,-0.17773 0.11214,0.25039 0.13033,0.54169 0.28906,0.77148 l -0.10742,-0.1914 c 2.99596,6.60741 2.37861,11.75727 -0.0977,16.83008 -2.47627,5.0728 -6.94331,9.98072 -11.61914,15.45898 -3.91086,4.58203 -7.44217,6.19193 -10.67773,6.38086 -3.23556,0.18893 -6.3197,-1.09879 -9.16406,-2.80664 -2.84436,-1.70785 -5.36813,-3.80185 -7.63282,-5.07813 -1.13234,-0.63813 -2.22626,-1.12264 -3.43359,-1.0625 -1.20732,0.0601 -2.354,0.87938 -3.00586,2.11914 -0.73009,1.38857 -0.71543,3.02352 -0.22266,4.60547 0.49278,1.58196 1.45741,3.16654 2.78711,4.66016 2.6594,2.98723 6.80904,5.6247 11.8711,6.70117 10.12412,2.15294 23.73192,-2.22154 35.34765,-22.375 a 1.2295367,1.2295367 0 0 0 0.0352,-0.0625 c 8.12663,-16.23309 7.1826,-22.61031 3.4707,-38.96484 -0.054,-0.23779 -0.13651,-1.93843 -0.082,-3.96289 0.0545,-2.02447 0.18631,-4.53467 0.34766,-7.05078 0.32264,-5.03136 0.78151,-10.18689 0.94922,-11.36133 0.18081,-1.25745 -0.51137,-2.52324 -1.75,-2.93555 h -0.002 c -1.42936,-0.47565 -3.05184,-0.2227 -4.13281,0.9043 -0.92659,0.96608 -1.20539,2.1131 -1.3789,2.93945 -0.17454,0.83124 -0.30412,1.67296 -0.41016,2.33398 -0.053,0.33052 -0.10151,0.61714 -0.14063,0.81641 -0.0391,0.19928 -0.13545,0.3864 -0.0137,0.15039 -0.12191,0.2356 -0.20329,0.4808 -0.25195,0.72461 a 1.2295367,1.2295367 0 0 0 -0.002,0.004 c -0.42614,2.17084 -0.73874,7.58214 -1.25196,13.03515 -0.2566,2.72651 -0.55405,5.42401 -0.90625,7.58985 -0.30369,1.86755 -0.7012,3.03712 -0.9414,3.60742 -1.27381,0.012 -2.36705,-0.32071 -2.91407,-1.25586 -0.45309,-0.87312 -1.0322,-2.98267 -1.48632,-5.58594 -0.45651,-2.61692 -0.83757,-5.76838 -1.11719,-8.93945 -0.55916,-6.34112 -0.67223,-12.92148 -0.30664,-15.17969 0.26372,-1.61237 -0.98723,-3.21322 -2.66797,-3.11133 z m -0.0312,0.004 c -0.0343,-0.009 0.32502,-0.0554 0,0 z m -12.31836,1.09375 c 0.12819,-0.17296 -0.28312,-0.031 -1.23437,0.14258 -6.60692,0.55495 -14.54531,0.87397 -19.76172,5.6875 a 1.2295367,1.2295367 0 0 0 -0.35938,1.19726 c -3.13531,3.33971 -5.0195,7.87027 -5.99805,12.75391 -1.12041,5.59169 -1.1592,11.59205 -0.70117,16.69531 a 1.2295367,1.2295367 0 0 0 0.55664,0.92188 c 2.1079,1.36599 4.34524,1.78354 6.44532,1.36328 2.10007,-0.42026 4.0284,-1.60926 5.80468,-3.24609 2.84647,-2.623 5.27728,-6.55321 7.47852,-10.75391 0.41951,1.52343 0.99718,2.90683 1.96289,3.92578 a 1.2295367,1.2295367 0 0 0 0.61719,0.35156 c 3.11628,0.71806 5.64612,-0.12313 7.11328,-1.98242 1.46715,-1.85929 1.9744,-4.4273 2.125,-7.21875 0.29255,-5.4227 -0.88,-11.8189 -1.36524,-15.71289 0.1947,-0.2365 0.48882,-0.39734 0.58008,-0.69141 0.19415,-0.6256 0.0785,-1.30123 -0.21289,-1.8164 -0.5828,-1.03035 -1.72912,-1.58512 -3.05078,-1.61719 z m -193.5625,2.4375 c 0.753681,-0.0102 1.594977,0.25234 2.398438,0.37109 -2.493211,1.67927 -5.431926,2.65012 -8.892579,2.70704 1.416623,-2.12193 3.660284,-3.03973 6.494141,-3.07813 z m 184.45117,3.68164 c -2.06714,3.86723 -3.24712,9.03212 -4.59765,14.04688 -1.00104,3.71701 -2.17589,7.15203 -3.64454,9.8125 0.032,-2.26849 -0.11334,-4.96592 -0.18359,-7.82032 -0.13974,-5.67838 0.20247,-11.76941 2.44336,-15.2539 3.10138,-0.64406 4.49411,-0.76517 5.98242,-0.78516 z m 30.02539,28.32422 1.50196,0.99219 c -0.01,0.015 0.0116,-0.007 -0.0449,0.0586 l -0.27148,0.23047 z"
       transform="matrix(0.94611801,0,0,1.1403125,2.2555562,-10.884364)" />
    <path
       sodipodi:type="inkscape:offset"
       inkscape:radius="1.7804117"
       inkscape:original="M 168.48828 194.57031 C 167.81441 194.58172 167.66978 194.54257 167.00977 194.71875 C 165.70627 195.06672 164.77162 195.87324 163.53125 196.66406 C 163.2721 196.82929 163.01858 197.00803 162.77734 197.20508 C 162.50642 197.42638 162.25659 197.67915 161.99609 197.91602 C 161.72675 198.21039 161.44712 198.49131 161.18945 198.79883 C 159.4224 200.90783 158.10236 203.44256 156.9668 206.0332 C 156.70176 206.69153 156.41985 207.34099 156.17188 208.00781 C 154.75945 211.80587 153.85813 215.82004 153.07227 219.83398 C 152.88392 220.91076 152.7537 221.74854 152.61133 222.58594 C 152.82762 219.53985 153.08439 216.49456 153.08984 213.4375 C 153.07554 212.8845 153.07477 212.33163 153.04688 211.7793 C 152.93465 209.55232 152.58915 207.31758 151.71484 205.30273 C 151.55351 205.00772 151.41111 204.69625 151.23047 204.41602 C 150.63124 203.48637 149.7949 202.70884 148.74805 202.61914 C 148.51509 202.59924 148.28228 202.64039 148.04883 202.65039 C 146.38723 203.08344 147.33023 202.76012 144.625 204.51562 C 143.49388 205.24965 142.60746 206.36761 141.84961 207.54883 C 141.61919 207.93561 141.3778 208.31419 141.1582 208.70898 C 139.72255 211.28987 138.6741 214.11632 137.76758 216.98047 C 137.20585 218.88267 137.07512 219.27437 136.56445 221.21875 C 135.72898 224.39994 135.0359 227.6247 134.35352 230.85156 C 133.61102 234.4593 133.05641 238.11192 132.47461 241.75781 C 132.50767 237.83524 132.53919 233.91242 132.66992 229.99219 C 132.8084 225.45116 132.94414 220.90882 132.99414 216.36523 C 133.01774 214.21603 132.99308 212.06614 133.04688 209.91797 L 133.04492 209.91797 L 130.85156 211.18555 C 130.94156 213.29352 130.99307 215.40128 131.00977 217.51172 C 131.0341 222.02729 130.93069 226.54341 130.8125 231.05664 C 130.66747 236.09308 130.58459 241.13136 130.52539 246.16992 C 130.52059 249.85207 130.54769 253.53364 130.62109 257.21484 C 130.62879 257.61103 130.63658 258.00613 130.64258 258.40234 C 130.64788 258.69222 130.6523 258.98351 130.6543 259.27344 C 130.65625 259.43894 130.65342 259.60401 130.6543 259.76953 C 130.6543 259.80948 130.6283 259.90957 130.6582 259.88867 C 131.91177 259.0093 132.43382 258.82672 132.66602 258.63281 C 132.76076 258.58711 132.73553 258.58439 132.83984 258.53711 C 132.85334 258.53091 132.80769 258.52391 132.80469 258.50781 C 132.77749 258.35615 132.76485 258.20094 132.75195 258.04688 C 132.7513 258.03907 132.75064 258.03124 132.75 258.02344 C 132.7584 257.84601 132.83997 257.85278 132.82812 257.45508 C 132.69341 253.54751 133.07052 249.65534 133.46875 245.78125 C 134.08903 240.40638 135.11734 235.10891 136.21484 229.83789 C 136.90724 226.60407 137.61999 223.37327 138.47656 220.18945 C 139.00712 218.21744 139.12559 217.87505 139.70898 215.94727 C 140.64273 213.0754 141.72675 210.24401 143.21289 207.67773 C 143.44134 207.28322 143.69183 206.90527 143.93164 206.51953 C 144.46095 205.69782 145.10966 205.00052 145.81445 204.375 C 145.9217 204.34342 145.85663 204.38105 146.16797 204.28125 C 146.39115 204.25895 146.61391 204.20884 146.83789 204.21484 C 147.83259 204.24034 148.63898 204.92559 149.22266 205.79492 C 149.40048 206.05977 149.53863 206.35468 149.69727 206.63477 C 150.57754 208.59405 150.92631 210.78071 151.05078 212.95898 C 151.08198 213.50355 151.08552 214.05037 151.10352 214.5957 C 151.1271 218.50143 150.79562 222.39406 150.54297 226.28516 C 150.28373 229.93427 150.04898 233.58511 149.81445 237.23633 C 149.76513 238.38779 149.70867 239.54026 149.69727 240.69336 C 149.69507 240.92269 149.68993 241.64628 149.74023 241.93555 C 149.75363 242.01236 149.79777 242.07899 149.82617 242.15039 C 150.53882 241.68048 151.30104 241.29433 151.96289 240.74023 C 152.01107 240.6999 152.07225 240.68113 152.11914 240.63867 C 152.27294 240.4994 152.19401 240.19905 152.22461 239.97852 C 152.2736 239.6254 152.31712 239.27249 152.35742 238.91797 C 152.55554 237.17436 152.71589 235.42374 152.89648 233.67773 C 153.24084 230.43828 153.59012 227.19652 154.07031 223.97852 C 154.38105 221.89614 154.57233 220.88132 154.93555 218.80859 C 155.73061 214.79324 156.65326 210.77944 158.10156 206.99414 C 158.35649 206.32785 158.64723 205.68061 158.91992 205.02344 C 160.09183 202.42463 161.45496 199.88648 163.2793 197.80273 C 163.54638 197.49767 163.83623 197.2207 164.11523 196.92969 C 163.90533 197.03789 164.35714 196.75159 164.57031 196.58008 C 164.64082 196.5883 164.94926 196.41906 165.14453 196.35938 C 165.78819 196.16261 165.92024 196.1948 166.58203 196.1543 C 167.95878 196.20141 169.25929 196.79654 170.29688 197.82812 C 170.53643 198.0663 170.74604 198.33952 170.9707 198.5957 C 172.26347 200.345 173.03858 202.47769 173.53125 204.67383 C 173.64747 205.19189 173.73188 205.71983 173.83203 206.24219 C 174.4471 209.86939 174.53127 213.5706 174.60938 217.25195 C 174.6654 221.52676 174.44422 225.79879 174.13086 230.05664 C 173.74969 234.32313 173.4081 238.59099 173.19922 242.87305 L 175.11914 241.7793 C 175.337 237.50046 175.67788 233.23332 176.05273 228.96875 C 176.36479 224.6986 176.58127 220.41565 176.54297 216.12891 C 176.47997 212.42294 176.40716 208.69739 175.80469 205.04297 C 175.70559 204.51308 175.62107 203.9788 175.50586 203.45312 C 175.01459 201.21165 174.24015 199.0307 172.95117 197.22266 C 172.72386 196.95385 172.51226 196.66689 172.26953 196.41602 C 171.22301 195.33442 169.89954 194.67472 168.48828 194.57031 z M 102.53516 205.1875 C 100.74508 205.58306 99.034559 206.37172 97.425781 207.33398 C 96.90879 207.64321 96.407546 207.98492 95.898438 208.31055 C 92.963661 210.12171 90.256672 212.3285 87.791016 214.87891 C 86.43131 216.28535 86.166311 216.64974 84.900391 218.15234 C 83.2042 220.26784 81.616529 222.5134 80.373047 225.00977 C 79.596559 226.56862 79.527518 226.89617 78.929688 228.53711 C 77.948054 231.57978 77.535228 234.81161 77.65625 238.04688 C 77.681539 238.72293 77.754034 239.39591 77.802734 240.07031 C 78.165248 243.51639 78.936645 246.89846 80.042969 250.13281 C 80.264798 250.78135 80.515773 251.41661 80.751953 252.05859 C 82.016598 255.32403 83.675232 258.39343 85.78125 261.05078 C 86.22116 261.60585 86.69508 262.12346 87.152344 262.66016 C 89.574152 265.29425 92.430801 267.39416 95.601562 268.66992 C 96.207911 268.91387 96.835108 269.09043 97.451172 269.30078 C 99.886132 269.97959 102.40869 270.15282 104.88672 269.66797 C 106.55102 269.34232 106.9359 269.10038 108.52734 268.46289 C 111.67262 266.85081 114.62908 264.76193 117.0332 261.93555 C 118.30401 260.44155 118.69128 259.76387 119.79883 258.11133 C 121.4526 255.44208 122.81963 252.54313 123.79883 249.47266 C 124.36635 247.69313 124.49574 246.96188 124.91211 245.14648 C 125.42275 242.44682 125.653 239.67879 125.5625 236.91797 C 125.50694 235.22265 125.41278 234.69996 125.21875 233.02734 C 124.74677 229.97322 123.9221 226.9889 122.80273 224.16016 C 122.59017 223.62301 122.35528 223.09731 122.13086 222.56641 C 121.05235 220.18206 119.7836 217.89949 118.24805 215.85742 C 117.97424 215.49329 117.68272 215.14667 117.40039 214.79102 C 116.35565 213.5539 115.21562 212.41545 113.9668 211.44922 C 113.32767 210.95472 112.95245 210.72265 112.29102 210.2832 C 110.86944 209.34589 109.34078 208.67809 107.75977 208.1875 C 106.64373 207.88307 105.50757 207.68053 104.36719 207.53711 C 103.86011 207.48361 104.10283 207.5074 103.63281 207.4668 L 101.6543 209.07812 C 102.13216 209.10343 101.88349 209.0863 102.39844 209.125 C 103.54455 209.24036 104.68636 209.42748 105.81055 209.70703 C 106.31573 209.85577 106.73171 209.969 107.22852 210.15625 C 108.30679 210.56267 109.34302 211.10774 110.3418 211.71875 C 111.00853 212.14811 111.37685 212.36852 112.02148 212.85352 C 113.27158 213.79404 114.41512 214.90755 115.46289 216.12305 C 116.20193 217.04209 116.44845 217.3143 117.12891 218.30078 C 118.31156 220.01531 119.32876 221.87125 120.20508 223.80664 C 120.42958 224.33267 120.66637 224.85238 120.87891 225.38477 C 121.9981 228.18813 122.81364 231.15105 123.2832 234.18164 C 123.47869 235.86182 123.57 236.33566 123.625 238.03906 C 123.7134 240.77494 123.48932 243.51836 122.98047 246.19336 C 122.56603 248.00765 122.44576 248.70263 121.87695 250.48047 C 120.90062 253.53201 119.53365 256.40789 117.87305 259.04883 C 117.42685 259.7046 117.0028 260.38131 116.53516 261.01758 C 115.59641 262.29485 114.64143 263.41595 113.52148 264.49023 C 112.99035 264.99972 112.39784 265.42219 111.86523 265.92969 C 111.83664 265.95729 112.00731 265.9462 111.97461 265.9668 C 111.40278 266.32621 110.80491 266.63205 110.2207 266.96484 C 108.65282 267.61532 108.26062 267.86481 106.61719 268.20703 C 104.15906 268.71884 101.64631 268.57456 99.220703 267.92773 C 98.606279 267.72559 97.983738 267.55674 97.378906 267.32031 C 94.221597 266.08608 91.37705 264.01681 88.976562 261.39844 C 88.524211 260.86525 88.054248 260.35019 87.619141 259.79883 C 85.53264 257.1549 83.888513 254.10571 82.638672 250.85938 C 82.404019 250.22122 82.153644 249.59015 81.933594 248.94531 C 80.835973 245.72887 80.070789 242.36421 79.728516 238.93555 C 79.684251 238.2659 79.616723 237.59689 79.595703 236.92578 C 79.49517 233.71379 79.930731 230.51186 80.917969 227.49805 C 81.13433 226.91262 81.328648 226.31684 81.566406 225.74219 C 82.877154 222.57419 84.794773 219.79617 86.863281 217.22461 C 87.33006 216.67428 87.785436 216.11174 88.263672 215.57422 C 89.221611 214.49754 90.268944 213.42215 91.3125 212.45312 C 91.831527 211.97118 92.37279 211.51972 92.902344 211.05273 C 93.432831 210.62721 93.985759 210.23708 94.492188 209.77539 C 94.570174 209.70434 94.299645 209.83533 94.203125 209.86523 C 94.701205 209.54333 95.191428 209.20633 95.697266 208.90039 C 97.224392 207.97677 98.857726 207.18907 100.57227 206.86133 L 102.53516 205.1875 z M 63.496094 212.09961 C 62.677109 212.11514 62.50136 212.06309 61.699219 212.30273 C 60.114993 212.77603 58.978192 213.87162 57.470703 214.94727 C 57.15574 215.17201 56.847879 215.41754 56.554688 215.68555 C 56.22542 215.98656 55.922073 216.33015 55.605469 216.65234 C 55.27813 217.05274 54.9362 217.43524 54.623047 217.85352 C 52.475442 220.72212 50.872312 224.16771 49.492188 227.69141 C 49.170077 228.58686 48.828721 229.46996 48.527344 230.37695 C 46.810729 235.54295 45.712914 241.00326 44.757812 246.46289 C 44.529861 247.9214 44.371586 249.05537 44.199219 250.18945 C 44.461678 246.05222 44.772611 241.9158 44.779297 237.76367 C 44.761937 237.01149 44.762366 236.25908 44.728516 235.50781 C 44.592121 232.47875 44.170023 229.43781 43.107422 226.69727 C 42.911346 226.29601 42.739072 225.87334 42.519531 225.49219 C 41.791255 224.2277 40.776211 223.17084 39.503906 223.04883 C 39.220776 223.02173 38.936075 223.07624 38.652344 223.08984 C 36.632906 223.67886 37.780018 223.23918 34.492188 225.62695 C 33.117473 226.62535 32.040203 228.14724 31.119141 229.75391 C 30.839097 230.27999 30.546195 230.79505 30.279297 231.33203 C 28.534461 234.84249 27.259954 238.6863 26.158203 242.58203 C 25.475496 245.16934 25.315949 245.70102 24.695312 248.3457 C 23.67991 252.67266 22.839112 257.06014 22.009766 261.44922 C 21.107728 266.35436 20.433503 271.32035 19.726562 276.27734 C 19.766759 270.94376 19.804064 265.60972 19.962891 260.2793 C 20.131196 254.10273 20.296662 247.9242 20.357422 241.74414 C 20.386132 238.82088 20.354562 235.89648 20.419922 232.97461 L 17.753906 234.69922 C 17.863309 237.56642 17.924952 240.43413 17.945312 243.30469 C 17.974873 249.44663 17.85068 255.58781 17.707031 261.72656 C 17.530766 268.57697 17.429422 275.42992 17.357422 282.2832 C 17.351615 287.29155 17.383406 292.2996 17.472656 297.30664 C 17.482086 297.84553 17.4925 298.38491 17.5 298.92383 C 17.50614 299.31811 17.511472 299.71307 17.513672 300.10742 C 17.515808 300.33253 17.512572 300.55613 17.513672 300.78125 C 17.513672 300.8356 17.481258 300.97371 17.517578 300.94531 C 19.040342 299.74982 19.674575 299.49988 19.957031 299.23633 C 20.072889 299.17375 20.042283 299.17022 20.169922 299.10547 C 20.186322 299.09697 20.130153 299.08831 20.126953 299.06641 C 20.093943 298.86013 20.07814 298.64902 20.0625 298.43945 C 20.061674 298.42841 20.061361 298.4173 20.060547 298.40625 C 20.07066 298.16496 20.170643 298.17502 20.15625 297.63477 C 19.99251 292.31982 20.449599 287.02528 20.933594 281.75586 C 21.687456 274.44514 22.935661 267.23978 24.269531 260.07031 C 25.111048 255.67177 25.978489 251.2778 27.019531 246.94727 C 27.664351 244.26499 27.808556 243.79984 28.517578 241.17773 C 29.652426 237.27151 30.969194 233.41831 32.775391 229.92773 C 33.053047 229.39113 33.358936 228.87819 33.650391 228.35352 C 34.293374 227.23642 35.08147 226.28806 35.9375 225.4375 C 36.067614 225.39467 35.988014 225.44462 36.367188 225.30859 C 36.638438 225.27829 36.909427 225.21075 37.181641 225.21875 C 38.390558 225.25343 39.370692 226.18476 40.080078 227.36719 C 40.2962 227.72743 40.465395 228.12881 40.658203 228.50977 C 41.728057 231.17473 42.149503 234.14851 42.300781 237.11133 C 42.338601 237.85203 42.345328 238.59614 42.367188 239.33789 C 42.395837 244.65033 41.99065 249.94378 41.683594 255.23633 C 41.368512 260.19974 41.085819 265.16654 40.800781 270.13281 C 40.740816 271.69899 40.67007 273.26753 40.65625 274.83594 C 40.65356 275.14786 40.649858 276.13194 40.710938 276.52539 C 40.727116 276.62987 40.779953 276.71931 40.814453 276.81641 C 41.679903 276.17773 42.606176 275.65307 43.410156 274.90039 C 43.469344 274.84498 43.543966 274.81813 43.601562 274.75977 C 43.788499 274.57034 43.691326 274.16324 43.728516 273.86328 C 43.788046 273.38297 43.841655 272.90213 43.890625 272.41992 C 44.131413 270.04831 44.327389 267.66785 44.546875 265.29297 C 44.965394 260.88678 45.387094 256.47857 45.970703 252.10156 C 46.348357 249.26917 46.581989 247.88762 47.023438 245.06836 C 47.989724 239.60681 49.110882 234.14864 50.871094 229 C 51.180925 228.09373 51.533813 227.21222 51.865234 226.31836 C 53.289524 222.78354 54.946835 219.33033 57.164062 216.49609 C 57.488659 216.08115 57.842558 215.70442 58.181641 215.30859 C 57.925754 215.45621 58.475499 215.06671 58.736328 214.83203 C 58.825695 214.83987 59.195335 214.61403 59.431641 214.5332 C 60.213928 214.26552 60.373428 214.30901 61.177734 214.25391 C 62.850986 214.31799 64.432316 215.12616 65.693359 216.5293 C 65.984516 216.85325 66.23867 217.22772 66.511719 217.57617 C 68.082904 219.95551 69.02622 222.85663 69.625 225.84375 C 69.766239 226.54839 69.868517 227.26411 69.990234 227.97461 C 70.737764 232.90821 70.840617 237.94391 70.935547 242.95117 C 71.003637 248.76563 70.734362 254.5758 70.353516 260.36719 C 69.890264 266.17034 69.47262 271.97646 69.21875 277.80078 L 71.554688 276.3125 C 71.819466 270.49256 72.231919 264.68725 72.6875 258.88672 C 73.066772 253.07859 73.331656 247.25451 73.285156 241.42383 C 73.208579 236.38308 73.118937 231.31437 72.386719 226.34375 C 72.266288 225.62301 72.165408 224.89666 72.025391 224.18164 C 71.428314 221.13287 70.484548 218.16821 68.917969 215.70898 C 68.641707 215.34335 68.384847 214.95255 68.089844 214.61133 C 66.817936 213.14016 65.211293 212.24163 63.496094 212.09961 z "
       style="fill:#0055d4;fill-opacity:0.85882353;stroke:none;stroke-width:1.20720887;stroke-linecap:round;stroke-linejoin:round;stroke-miterlimit:4;stroke-dasharray:none;stroke-dashoffset:0;stroke-opacity:1"
       id="path1088"
       d="m 168.45898,192.79102 c -0.60063,0.0102 -1.12207,-0.003 -1.9082,0.20703 -1.76095,0.47008 -2.85702,1.45028 -3.97656,2.16406 -0.3061,0.19516 -0.61781,0.4141 -0.92383,0.66406 -0.37002,0.30226 -0.63831,0.57953 -0.85156,0.77344 a 1.7805898,1.7805898 0 0 0 -0.11719,0.11523 c -0.23586,0.25778 -0.53531,0.55698 -0.85742,0.94141 -1.93773,2.31271 -3.32048,4.99791 -4.48828,7.66211 a 1.7805898,1.7805898 0 0 0 -0.0215,0.0508 c -0.25319,0.62891 -0.54056,1.29155 -0.81054,2.01758 -0.0622,0.16732 -0.096,0.34189 -0.15625,0.50976 -0.22838,-1.1153 -0.53326,-2.22713 -1,-3.30273 a 1.7805898,1.7805898 0 0 0 -0.0703,-0.14453 c -0.11982,-0.21911 -0.2755,-0.571 -0.55078,-0.99805 -0.76302,-1.18375 -1.98773,-2.44794 -3.82617,-2.60547 -0.54057,-0.0462 -0.85237,0.0222 -0.92773,0.0254 a 1.7805898,1.7805898 0 0 0 -0.37305,0.0566 c -0.40285,0.105 -0.6494,0.16269 -0.93164,0.25 -0.28224,0.0873 -0.6251,0.23874 -0.87891,0.39649 -0.50761,0.31549 -0.81757,0.59377 -2.13281,1.44726 -1.46729,0.95219 -2.48182,2.28384 -3.30469,3.56641 a 1.7805898,1.7805898 0 0 0 -0.0312,0.0488 c -0.21204,0.35593 -0.46476,0.75042 -0.71875,1.20703 -1.52508,2.74166 -2.60724,5.6802 -3.53125,8.59961 a 1.7805898,1.7805898 0 0 0 -0.01,0.0332 c -0.55929,1.89391 -0.70404,2.3293 -1.21875,4.28906 -0.0727,0.27688 -0.12082,0.5549 -0.19141,0.83204 0.0396,-1.73867 0.10583,-3.4707 0.125,-5.21289 0.0239,-2.17586 -0.002,-4.31704 0.0508,-6.42188 a 1.7805898,1.7805898 0 0 0 -1.77929,-1.82617 h -0.002 a 1.7805898,1.7805898 0 0 0 -0.89062,0.24023 l -2.19336,1.26758 a 1.7805898,1.7805898 0 0 0 -0.88867,1.61719 c 0.0891,2.08636 0.1397,4.17282 0.15625,6.26367 0.0241,4.48071 -0.0773,8.97635 -0.19532,13.48438 -0.14538,5.04977 -0.22981,10.09583 -0.28906,15.13867 a 1.7805898,1.7805898 0 0 0 0,0.0195 c -0.005,3.69243 0.024,7.38591 0.0977,11.08203 0.008,0.39652 0.0156,0.78889 0.0215,1.17969 a 1.7805898,1.7805898 0 0 0 0,0.006 c 0.005,0.28617 0.008,0.56954 0.01,0.84961 a 1.7805898,1.7805898 0 0 0 0,0.01 c 0.001,0.10268 1.6e-4,0.23912 0,0.37891 -0.008,0.0771 -0.0871,0.11467 0.0449,0.64258 0.0165,0.066 0.038,0.14206 0.0742,0.23242 0.0362,0.0904 0.16369,0.31193 0.16406,0.3125 3.7e-4,5.6e-4 0.32572,0.37461 0.32617,0.375 4.5e-4,3.9e-4 0.53657,0.32011 0.53711,0.32031 5.4e-4,2e-4 0.61461,0.11523 0.61524,0.11524 6.2e-4,0 0.49536,-0.0662 0.49609,-0.0664 7.3e-4,-2e-4 0.24595,-0.084 0.33398,-0.12891 0.088,-0.0449 0.15601,-0.0891 0.21289,-0.1289 a 1.7805898,1.7805898 0 0 0 0.002,-0.002 c 0.57908,-0.40622 0.96214,-0.63347 1.24609,-0.79492 0.28396,-0.16145 0.47191,-0.20927 0.88086,-0.55078 l -0.36719,0.23633 c 0.0564,-0.0272 0.0841,-0.0476 0.14258,-0.082 0.0112,-0.005 0.0246,-0.0129 0.041,-0.0215 0.0684,-0.0358 0.16967,-0.0916 0.16992,-0.0918 3.1e-4,-2e-4 0.29081,-0.22832 0.29101,-0.22852 2.1e-4,-2e-4 0.3417,-0.46269 0.3418,-0.46289 1e-4,-2e-4 0.1953,-0.73222 0.19531,-0.73242 1e-5,-1.3e-4 -0.0375,-0.23723 -0.0703,-0.44531 8e-5,2.6e-4 0.004,0.01 0.004,0.01 -0.004,-0.022 -0.0101,-0.097 -0.0156,-0.15039 0.0338,-0.20266 0.075,-0.40674 0.0684,-0.62891 a 1.7805898,1.7805898 0 0 0 0,-0.008 c -0.1291,-3.74491 0.23429,-7.54914 0.63086,-11.4082 0.60948,-5.28132 1.62336,-10.52343 2.7168,-15.77539 l 0.002,-0.004 c 4e-4,-0.002 -3.9e-4,-0.004 0,-0.006 0.69019,-3.22329 1.3967,-6.42071 2.23828,-9.54883 0.52231,-1.94135 0.63403,-2.26166 1.20703,-4.15429 0.91487,-2.81378 1.96187,-5.528 3.35157,-7.92774 0.18834,-0.32525 0.42255,-0.68272 0.67382,-1.08593 0.34953,-0.54262 0.81733,-1.01534 1.3086,-1.48243 -0.002,-7.6e-4 0.0636,-0.008 0.0547,-0.008 a 1.7805898,1.7805898 0 0 0 0.002,0 c 0.20246,0.005 0.54916,0.19422 0.95117,0.79297 0.0619,0.0922 0.18867,0.33234 0.33594,0.59961 0.743,1.66363 1.0763,3.62523 1.19336,5.67383 0.0269,0.47005 0.0312,0.98952 0.0488,1.54687 0.0229,3.79786 -0.30245,7.64754 -0.55665,11.5625 l 0.002,-0.0117 c -0.25981,3.65706 -0.49594,7.31355 -0.73047,10.96485 a 1.7805898,1.7805898 0 0 0 -0.002,0.0371 c -0.049,1.14416 -0.10729,2.31614 -0.11914,3.51562 -0.002,0.23865 -0.0694,0.7613 0.0703,1.56445 a 1.7805898,1.7805898 0 0 0 0,0.002 c 0.0972,0.55718 0.25071,0.73023 0.18555,0.5664 a 1.7805898,1.7805898 0 0 0 2.63476,0.82813 c 0.5998,-0.3955 1.43327,-0.8066 2.29883,-1.53125 -0.31218,0.26131 -0.21556,0.23794 0.20898,-0.14649 0.66126,-0.59878 0.676,-1.2954 0.6836,-1.57031 0.008,-0.2749 0.0187,-0.37116 -0.01,-0.16601 0.0515,-0.3709 0.0971,-0.73782 0.13867,-1.10352 0.20105,-1.76936 0.36186,-3.52566 0.54102,-5.25781 l -0.002,0.004 c 0.34418,-3.23776 0.69298,-6.45302 1.16601,-9.62304 0.30653,-2.05417 0.49314,-3.04413 0.85547,-5.11133 0.001,-0.006 8.5e-4,-0.009 0.002,-0.0156 0.78618,-3.96611 1.69043,-7.86766 3.07422,-11.48437 0.22489,-0.58778 0.50124,-1.20738 0.7793,-1.875 l 0.002,-0.004 c 1.13737,-2.52168 2.43323,-4.90301 4.07422,-6.77734 0.18645,-0.21297 0.44383,-0.4628 0.73438,-0.76367 0.0132,-0.009 0.0307,-0.0232 0.0449,-0.0332 0.0431,-0.0182 0.0977,-0.0401 0.13086,-0.0547 0.12349,-0.0546 0.23642,-0.0916 0.13476,-0.0606 0.46751,-0.14292 0.43451,-0.0953 0.91211,-0.11523 0.88246,0.0444 1.72765,0.40965 2.46485,1.14257 0.10755,0.10694 0.29261,0.33175 0.50976,0.58399 1.07653,1.46415 1.78673,3.35166 2.24414,5.39062 0.0974,0.43412 0.17815,0.93298 0.28125,1.47461 0.58617,3.45677 0.67584,7.07047 0.75391,10.75 0.0544,4.19339 -0.16348,8.40922 -0.47461,12.63672 -0.38117,4.26839 -0.72336,8.55159 -0.93359,12.86133 a 1.7805898,1.7805898 0 0 0 2.6582,1.63281 L 176,243.32617 a 1.7805898,1.7805898 0 0 0 0.89648,-1.45703 c 0.21613,-4.24468 0.55567,-8.48898 0.92969,-12.74414 a 1.7805898,1.7805898 0 0 0 0.002,-0.0273 c 0.31401,-4.29677 0.53503,-8.62711 0.4961,-12.98438 a 1.7805898,1.7805898 0 0 0 -0.002,-0.0137 c -0.0631,-3.709 -0.13141,-7.52238 -0.76172,-11.3457 a 1.7805898,1.7805898 0 0 0 -0.006,-0.0391 c -0.093,-0.49712 -0.18032,-1.04834 -0.31055,-1.64257 -0.52334,-2.38778 -1.35759,-4.79819 -2.84375,-6.88282 a 1.7805898,1.7805898 0 0 0 -0.0898,-0.11718 c -0.17568,-0.20776 -0.40676,-0.52767 -0.76172,-0.89454 -1.31656,-1.36068 -3.04979,-2.24373 -4.92969,-2.38281 a 1.7805898,1.7805898 0 0 0 -0.16016,-0.004 z m -65.86132,10.61718 a 1.7805898,1.7805898 0 0 0 -0.44727,0.041 c -2.04359,0.45158 -3.920558,1.32976 -5.638671,2.35742 -0.569069,0.34038 -1.075321,0.68476 -1.548828,0.98828 -0.0032,0.002 -0.0066,0.004 -0.0098,0.006 -0.0043,0.003 -0.0094,0.007 -0.01367,0.01 -3.059179,1.89084 -5.872837,4.18736 -8.427734,6.83007 -1.38617,1.43382 -1.719237,1.87748 -2.972657,3.36524 a 1.7805898,1.7805898 0 0 0 -0.02734,0.0332 c -1.741653,2.1722 -3.40926,4.5214 -4.732422,7.17774 -0.802088,1.61024 -0.934648,2.10017 -1.521485,3.71093 a 1.7805898,1.7805898 0 0 0 -0.02344,0.0625 c -1.049961,3.25446 -1.485753,6.69238 -1.357422,10.12305 0.02839,0.75896 0.104704,1.45327 0.150391,2.08594 a 1.7805898,1.7805898 0 0 0 0.0039,0.0566 c 0.377326,3.58689 1.178862,7.09895 2.326172,10.45312 0.239693,0.70077 0.496185,1.34926 0.722656,1.96485 a 1.7805898,1.7805898 0 0 0 0.01172,0.0273 c 1.318285,3.40395 3.057023,6.63132 5.294922,9.45508 0.491874,0.62064 0.98025,1.15361 1.410156,1.6582 a 1.7805898,1.7805898 0 0 0 0.04492,0.0508 c 2.574846,2.80055 5.640831,5.06696 9.095703,6.45704 0.724793,0.2916 1.38282,0.47467 1.9375,0.66406 a 1.7805898,1.7805898 0 0 0 0.09766,0.0293 c 2.665878,0.74319 5.475944,0.94431 8.255864,0.4004 1.77662,-0.34763 2.42186,-0.68427 3.96093,-1.30079 a 1.7805898,1.7805898 0 0 0 0.15039,-0.0684 c 3.29783,-1.69027 6.45848,-3.91171 9.04883,-6.95704 1.32731,-1.56042 1.79959,-2.36134 2.88867,-3.98632 a 1.7805898,1.7805898 0 0 0 0.0352,-0.0547 c 1.72638,-2.78645 3.15526,-5.81675 4.18164,-9.03516 0.58662,-1.83941 0.74325,-2.67655 1.1543,-4.46875 a 1.7805898,1.7805898 0 0 0 0.0137,-0.0684 c 0.53378,-2.822 0.7747,-5.71859 0.67969,-8.61718 -0.0573,-1.74917 -0.16415,-2.38781 -0.35547,-4.03711 a 1.7805898,1.7805898 0 0 0 -0.008,-0.0664 c -0.49306,-3.19047 -1.35261,-6.30108 -2.51954,-9.25 -0.23144,-0.58487 -0.47243,-1.12405 -0.6875,-1.63281 a 1.7805898,1.7805898 0 0 0 -0.0176,-0.041 c -1.11876,-2.47331 -2.44659,-4.87001 -4.08203,-7.04492 -0.31246,-0.41552 -0.61545,-0.7741 -0.87696,-1.10352 a 1.7805898,1.7805898 0 0 0 -0.0352,-0.041 c -1.10929,-1.31355 -2.33375,-2.54205 -3.70313,-3.60156 -0.69264,-0.53591 -1.13768,-0.81266 -1.78125,-1.24024 a 1.7805898,1.7805898 0 0 0 -0.004,-0.004 c -1.58682,-1.04627 -3.27683,-1.7807 -4.98437,-2.31055 a 1.7805898,1.7805898 0 0 0 -0.0586,-0.0156 c -1.21859,-0.3324 -2.43765,-0.54817 -3.63868,-0.69922 a 1.7805898,1.7805898 0 0 0 -0.0352,-0.006 c -0.21446,-0.0226 -0.26296,-0.0248 -0.32813,-0.0312 a 1.7805898,1.7805898 0 0 0 -1.6289,-2.32618 z m -2.720707,5.63672 a 1.7805898,1.7805898 0 0 0 1.683597,1.81055 c 0.46335,0.0245 0.25109,0.0113 0.66992,0.043 1.06571,0.10768 2.11609,0.28093 3.14062,0.53515 0.48345,0.14178 0.83755,0.24141 1.22852,0.38868 0.93841,0.3537 1.87782,0.8455 2.81055,1.41601 5.1e-4,3.2e-4 0.001,-3.2e-4 0.002,0 0.65273,0.41967 0.96087,0.6021 1.53906,1.03711 1.12317,0.84502 2.17492,1.86567 3.15235,2.99805 0.72095,0.89539 0.91842,1.10816 1.56054,2.03906 1.11179,1.6118 2.0792,3.3727 2.91797,5.22461 6.1e-4,0.001 0.001,0.003 0.002,0.004 0.23006,0.53761 0.45339,1.0349 0.64063,1.5039 1.06823,2.67572 1.84795,5.50797 2.29687,8.40039 0.19158,1.63684 0.27177,2.02597 0.32422,3.65039 0.0839,2.59517 -0.13033,5.20516 -0.61328,7.75 -0.40738,1.78727 -0.50727,2.39304 -1.05078,4.0918 -0.92648,2.89573 -2.22784,5.63189 -3.80859,8.14844 -0.45953,0.6773 -0.86693,1.32386 -1.27344,1.87695 -0.89194,1.21358 -1.77228,2.24626 -2.81055,3.24219 -0.40859,0.39194 -0.99956,0.81354 -1.65234,1.43554 a 1.7805898,1.7805898 0 0 0 -0.008,0.008 c -0.0172,0.0166 -0.0402,0.0511 -0.0586,0.0703 -0.34606,0.19891 -0.69562,0.3985 -1.10156,0.62695 -1.52371,0.63601 -1.71801,0.80745 -3.21484,1.11914 -2.15064,0.44779 -4.3701,0.32552 -6.558598,-0.25586 -0.634714,-0.20619 -1.204108,-0.36555 -1.667968,-0.54687 -2.863688,-1.11945 -5.489152,-3.01812 -7.730469,-5.46094 -0.46478,-0.54592 -0.907344,-1.03453 -1.279297,-1.50586 -1.955012,-2.47731 -3.518999,-5.36761 -4.714844,-8.47265 -5.29e-4,-0.001 -0.0014,-0.003 -0.002,-0.004 -0.241662,-0.65597 -0.482983,-1.26551 -0.68164,-1.84766 -1.054605,-3.09038 -1.786605,-6.31832 -2.115235,-9.59375 -0.04668,-0.69319 -0.11085,-1.33171 -0.128906,-1.9082 -0.09422,-3.01027 0.315673,-6.00141 1.232422,-8.80469 0.222837,-0.60651 0.407055,-1.16579 0.603516,-1.64062 1.213966,-2.93409 3.018174,-5.56924 5.02539,-8.06641 0.477863,-0.56395 0.921349,-1.10948 1.357422,-1.59961 0.920906,-1.03505 1.932164,-2.07371 2.929688,-3 0.469537,-0.43598 0.995359,-0.87509 1.544921,-1.35937 0.0041,-0.004 0.0076,-0.006 0.01172,-0.01 0.463771,-0.36776 1.020887,-0.75859 1.611328,-1.29687 0.0353,-0.0322 0.09599,-0.10118 0.15625,-0.16992 0.257474,-0.16919 0.534046,-0.35444 0.771485,-0.49805 1.086423,-0.65708 2.176061,-1.03455 3.257812,-1.37891 z m -36.414062,1.27539 c -0.738764,0.014 -1.335205,-0.003 -2.273438,0.27735 -2.082441,0.62214 -3.365266,1.91093 -4.751953,2.90039 -0.367524,0.26224 -0.73237,0.55163 -1.083984,0.87304 -0.425325,0.38883 -0.746013,0.75685 -1.017578,1.03321 a 1.7805898,1.7805898 0 0 0 -0.109376,0.12109 c -0.294472,0.3602 -0.655588,0.76256 -1.029296,1.26172 -2.302772,3.07586 -3.956148,6.6632 -5.363282,10.25586 a 1.7805898,1.7805898 0 0 0 -0.01758,0.0449 c -0.3127,0.86929 -0.659331,1.76794 -0.978515,2.72852 -0.261848,0.788 -0.423517,1.60871 -0.658203,2.40625 -0.257399,-2.09394 -0.640696,-4.18038 -1.41211,-6.16993 a 1.7805898,1.7805898 0 0 0 -0.06055,-0.13671 c -0.160155,-0.32775 -0.341913,-0.78712 -0.644531,-1.3125 -0.871225,-1.51269 -2.233432,-3.1195 -4.388672,-3.32618 -0.62123,-0.0595 -0.994049,0.0278 -1.107422,0.0332 a 1.7805898,1.7805898 0 0 0 -0.412109,0.0703 c -0.491197,0.14327 -0.794448,0.22143 -1.125,0.33594 -0.330553,0.11451 -0.71001,0.30535 -0.998047,0.50586 -0.576074,0.40101 -0.97964,0.79632 -2.585938,1.96289 -1.712943,1.24404 -2.893394,2.97812 -3.871093,4.68359 a 1.7805898,1.7805898 0 0 0 -0.02734,0.0488 c -0.264576,0.49702 -0.56532,1.02554 -0.861328,1.62109 -1.82159,3.66488 -3.124093,7.61198 -4.240235,11.5586 a 1.7805898,1.7805898 0 0 0 -0.0078,0.0293 c -0.6806,2.57933 -0.850593,3.15342 -1.474609,5.8125 -0.405281,1.72703 -0.707462,3.46784 -1.066407,5.20313 0.09259,-3.79199 0.204822,-7.58028 0.242188,-11.38086 0.02895,-2.94774 -0.0039,-5.86555 0.06055,-8.74805 a 1.7805898,1.7805898 0 0 0 -2.746094,-1.5332 l -2.666016,1.72461 a 1.7805898,1.7805898 0 0 0 -0.8125,1.5625 c 0.10865,2.84746 0.169215,5.69534 0.189453,8.54883 0.02935,6.11093 -0.0928,12.23546 -0.236328,18.36914 -0.176537,6.86208 -0.279522,13.72106 -0.351562,20.57812 a 1.7805898,1.7805898 0 0 0 0,0.0176 c -0.0058,5.01726 0.02769,10.03598 0.117187,15.05664 0.0095,0.54104 0.01993,1.07881 0.02734,1.61133 a 1.7805898,1.7805898 0 0 0 0,0.002 c 0.0061,0.39182 0.0096,0.78108 0.01172,1.16602 a 1.7805898,1.7805898 0 0 0 0,0.008 c 0.0018,0.19455 -0.0011,0.41186 0,0.65625 1.3e-5,0.003 -1.4e-5,0.005 0,0.008 -0.0147,0.0631 -0.06176,0.0953 0.02734,0.51758 0.02497,0.11832 0.06124,0.27829 0.189453,0.50781 0.06411,0.11477 0.288521,0.38422 0.289062,0.38477 5.41e-4,5.5e-4 0.538415,0.37275 0.539063,0.37305 6.47e-4,2.9e-4 0.684787,0.15623 0.685547,0.15625 7.6e-4,2e-5 0.413274,-0.0296 0.566406,-0.0762 0.306265,-0.0933 0.471072,-0.21487 0.585937,-0.30468 a 1.7805898,1.7805898 0 0 0 0.002,-0.002 c 1.428701,-1.12164 1.71076,-1.02115 2.554687,-1.80859 l -0.369141,0.26562 c 0.07052,-0.0381 0.107429,-0.0666 0.171875,-0.10937 -9.2e-5,5e-5 0.01144,-0.006 0.01367,-0.008 6.45e-4,-3.4e-4 0.0013,-0.002 0.002,-0.002 0.06159,-0.0323 0.21252,-0.12669 0.212891,-0.12695 3.75e-4,-2.7e-4 0.284912,-0.25168 0.285156,-0.25195 2.45e-4,-2.7e-4 0.306519,-0.47044 0.306641,-0.47071 1.22e-4,-2.7e-4 0.158196,-0.68722 0.158203,-0.6875 5e-6,-2.1e-4 -0.05638,-0.34805 -0.08398,-0.51757 -0.0056,-0.0504 -0.01023,-0.1066 -0.01563,-0.16993 0.04977,-0.23636 0.09094,-0.53657 0.08203,-0.87109 a 1.7805898,1.7805898 0 0 0 0,-0.008 c -0.159261,-5.16957 0.286895,-10.38501 0.769531,-15.64063 v -0.004 c 5.42e-4,-0.006 0.0014,-0.0117 0.002,-0.0176 0.745499,-7.22003 1.981255,-14.36844 3.310547,-21.51367 l 0.002,-0.008 c 0.839726,-4.389 1.701486,-8.75283 2.730469,-13.0332 0.640985,-2.66632 0.775268,-3.09256 1.484375,-5.71484 7.4e-4,-0.003 0.0012,-0.003 0.002,-0.006 1.117266,-3.84194 2.403095,-7.57635 4.121094,-10.89649 0.241395,-0.46652 0.532103,-0.95799 0.835937,-1.5039 l 0.002,-0.002 c 0.476466,-0.82727 1.089395,-1.5316 1.742188,-2.21484 0.03729,-0.007 0.210596,-0.0268 0.191406,-0.0273 a 1.7805898,1.7805898 0 0 0 0.002,0 c 0.323217,0.009 0.872509,0.36945 1.421875,1.28515 0.112941,0.18826 0.269124,0.53076 0.460938,0.91797 0.952163,2.38429 1.364501,5.15496 1.509766,8 0.03458,0.67723 0.04095,1.39682 0.0625,2.14649 0.02813,5.21553 -0.371362,10.47072 -0.679688,15.78515 -0.315325,4.96792 -0.597993,9.93598 -0.882812,14.89844 a 1.7805898,1.7805898 0 0 0 -0.002,0.0332 c -0.05965,1.5581 -0.132284,3.14438 -0.146484,4.75586 -0.0028,0.33013 -0.05562,1.12959 0.07617,1.97852 0.08249,0.52846 0.227448,0.73121 0.185547,0.61328 a 1.7805898,1.7805898 0 0 0 2.734375,0.83594 c 0.751922,-0.5549 1.755159,-1.11198 2.755859,-2.04883 -0.276364,0.25872 -0.16369,0.22181 0.242188,-0.18945 0.649695,-0.65836 0.625925,-1.31375 0.632812,-1.61524 0.0069,-0.30149 0.01094,-0.44803 -0.0059,-0.3125 0.06132,-0.49477 0.115869,-0.98863 0.166015,-1.48242 0.243076,-2.39414 0.439813,-4.77955 0.658203,-7.14258 l -0.002,0.004 c 0.418444,-4.4054 0.840208,-8.79185 1.417969,-13.125 0.373075,-2.79805 0.602826,-4.15968 1.041016,-6.95703 l 0.002,-0.0117 c 0.0015,-0.009 0.0024,-0.0139 0.0039,-0.0234 0.959137,-5.41727 2.06667,-10.77526 3.773438,-15.76758 0.285122,-0.834 0.624889,-1.68775 0.960937,-2.59179 l 0.002,-0.002 c 1.395352,-3.46268 2.997269,-6.7687 5.046875,-9.38867 0.252127,-0.3223 0.576884,-0.67455 0.9375,-1.09375 0.03618,-0.028 0.08294,-0.0683 0.125,-0.10156 0.06674,-0.0305 0.138481,-0.0618 0.1875,-0.0859 0.146215,-0.072 0.284719,-0.12567 0.191406,-0.0937 a 1.7805898,1.7805898 0 0 0 0,-0.002 c 0.589705,-0.20179 0.553436,-0.13793 1.160157,-0.16797 1.123401,0.0599 2.224852,0.58359 3.201172,1.66992 0.161924,0.18016 0.39062,0.50152 0.667968,0.86133 1.377197,2.09438 2.272082,4.77115 2.841797,7.61328 0.126087,0.62905 0.227128,1.31904 0.351563,2.04883 0.724271,4.78009 0.830884,9.73667 0.925781,14.74219 l -0.002,-0.0117 c 0.06728,5.74561 -0.19879,11.50892 -0.578125,17.27734 -0.46319,5.80404 -0.881762,11.6234 -1.136719,17.47266 a 1.7805898,1.7805898 0 0 0 2.736328,1.58007 l 2.335938,-1.48828 a 1.7805898,1.7805898 0 0 0 0.822265,-1.42187 c 0.263406,-5.78978 0.674018,-11.57548 1.128907,-17.36719 a 1.7805898,1.7805898 0 0 0 0.002,-0.0234 c 0.380802,-5.83157 0.648568,-11.69774 0.601562,-17.59179 a 1.7805898,1.7805898 0 0 0 -0.002,-0.0137 c -0.07662,-5.04372 -0.161418,-10.18996 -0.916015,-15.3125 a 1.7805898,1.7805898 0 0 0 -0.0059,-0.0332 c -0.115021,-0.68836 -0.216418,-1.43103 -0.36914,-2.21094 -0.623247,-3.18239 -1.612663,-6.35508 -3.353516,-9.08789 a 1.7805898,1.7805898 0 0 0 -0.08203,-0.11718 c -0.228399,-0.30229 -0.499924,-0.7243 -0.900391,-1.1875 -1.522479,-1.761 -3.555389,-2.93566 -5.794922,-3.1211 a 1.7805898,1.7805898 0 0 0 -0.179687,-0.006 z m 70.095699,46.58203 c 0.0827,0.0462 0.25847,0.14779 0.26368,0.15235 -0.17053,-0.11091 -0.27063,-0.15547 -0.26368,-0.15235 z m -21.97656,10.79102 c 0.37521,0.0633 0.0309,0.0135 0,0 z m -90.654296,29.79297 c 0.08854,0.0534 0.26823,0.16406 0.269532,0.16601 -0.176436,-0.12271 -0.278432,-0.1703 -0.269532,-0.16601 z" />
  </g>
</svg>
