<?xml version="1.0" encoding="UTF-8" standalone="no"?>
<svg
   xmlns:dc="http://purl.org/dc/elements/1.1/"
   xmlns:cc="http://creativecommons.org/ns#"
   xmlns:rdf="http://www.w3.org/1999/02/22-rdf-syntax-ns#"
   xmlns:svg="http://www.w3.org/2000/svg"
   xmlns="http://www.w3.org/2000/svg"
   xmlns:sodipodi="http://sodipodi.sourceforge.net/DTD/sodipodi-0.dtd"
   xmlns:inkscape="http://www.inkscape.org/namespaces/inkscape"
   width="300mm"
   height="577mm"
   viewBox="-3 -588 300 577"
   version="1.1"
   id="svg6"
   sodipodi:docname="hat.svg"
   inkscape:version="0.92.5 (2060ec1f9f, 2020-04-08)">
  <metadata
     id="metadata12">
    <rdf:RDF>
      <cc:Work
         rdf:about="">
        <dc:format>image/svg+xml</dc:format>
        <dc:type
           rdf:resource="http://purl.org/dc/dcmitype/StillImage" />
      </cc:Work>
    </rdf:RDF>
  </metadata>
  <defs
     id="defs10" />
  <sodipodi:namedview
     pagecolor="#ffffff"
     bordercolor="#666666"
     borderopacity="1"
     objecttolerance="10"
     gridtolerance="10"
     guidetolerance="10"
     inkscape:pageopacity="0"
     inkscape:pageshadow="2"
     inkscape:window-width="1680"
     inkscape:window-height="1013"
     id="namedview8"
     showgrid="false"
     inkscape:zoom="0.30608614"
     inkscape:cx="566.92913"
     inkscape:cy="1090.3937"
     inkscape:window-x="0"
     inkscape:window-y="0"
     inkscape:window-maximized="1"
     inkscape:current-layer="svg6" />
  <title
     id="title2">OpenSCAD Model</title>
  <path
     style="fill:none;stroke:#000000;stroke-width:0.5"
     d="m 187.944,-382.731 c 29.17471,-20.6863 64.59682,-37.35559 81.75375,-70.48024 15.24437,-29.68043 2.30322,-64.65156 -14.52671,-90.1796 -14.70235,-24.87841 -40.91743,-46.35778 -71.33944,-43.79614 -34.12835,2.24211 -63.61272,21.73543 -93.7194,35.97098 -5.754306,5.63471 1.942162,13.45752 8.501021,10.81744 29.276079,-2.18251 61.878219,5.01482 80.361569,29.67401 19.60486,23.73548 30.32148,57.44407 17.91381,87.04045 -3.92942,12.48845 -12.37983,23.05873 -17.54006,34.74157 -0.45325,4.44702 4.52595,7.89096 8.59546,6.21153 z"
     id="path833" />
  <path
     style="fill:none;stroke:#000000;stroke-width:0.5"
     d="m 188.967,-393.886 c 16.69706,-25.13686 26.09461,-57.72337 14.33,-86.86 -11.24193,-30.90266 -36.41713,-59.07788 -70.26839,-64.03445 -12.70072,-2.42832 -25.71786,-2.46375 -38.58831,-1.78955 32.55151,-14.51141 64.75479,-37.65849 102.1017,-33.859 32.33479,5.06142 52.51978,34.80627 65.21573,62.45626 11.33094,23.2079 12.19141,52.95629 -4.92942,73.66051 -18.82247,24.15226 -46.75714,38.16572 -71.20731,55.67123 1.11533,-1.74833 2.23067,-3.49667 3.346,-5.245 z"
     id="path831" />
  <path
     style="fill:none;stroke:#000000;stroke-width:0.5"
     d="m 110.355,-114.706 c 28.31747,-2.26987 55.90222,-20.39904 67.62174,-47.06952 19.46722,-42.74169 14.70808,-91.44654 7.77911,-136.52835 -8.18728,-45.93388 -16.88005,-91.82105 -28.83685,-136.94479 -6.93047,-28.78623 -7.89826,-58.88087 -3.076,-88.04834 -3.31824,-8.83083 -15.65061,-5.63453 -23.00049,-8.57889 -12.10612,-1.41888 -24.27902,-6.12306 -36.35441,-5.47911 -6.839243,6.30948 -4.482442,17.74691 -7.1829,26.187 -3.011331,19.61246 -5.116636,39.37968 -5.7907,59.217 -5.911778,-27.13589 -13.922922,-53.92086 -24.3084,-79.651 -6.884547,-6.11008 -15.615907,2.64948 -23.035225,3.86707 -11.518925,5.15777 -24.7864693,7.52239 -35.219265,14.43493 -2.6761573,8.29554 4.5528616,16.43184 5.2496714,24.8539 12.8373056,46.13125 1.5262815,93.72084 2.1661802,140.57681 -0.7560998,59.73448 -5.56698331,122.43464 18.9829384,178.54729 12.276584,28.652 38.896257,52.54226 71.015535,54.25992 4.650005,0.62104 9.314595,0.36335 13.989065,0.35608 z"
     id="path829" />
  <path
     style="fill:none;stroke:#000000;stroke-width:0.5"
     d="m 166.863,-363.849 c 10.92353,58.61464 27.22115,119.52068 12.86,179.02 -6.67742,28.56283 -27.56019,55.08906 -57.22638,61.42698 -31.238317,8.78862 -66.814858,-5.93278 -83.300788,-33.90904 -25.555758,-41.84186 -27.196618,-92.81631 -27.35133,-140.47445 0.437653,-41.90977 1.16974,-83.82555 4.706603,-125.60547 1.466545,-29.22298 -2.114668,-58.88512 -12.306675,-86.40002 15.987457,-5.96533 31.974913,-11.93067 47.96237,-17.896 18.822681,47.68429 28.59318,98.22763 34.865096,148.93371 2.483514,14.65347 2.024658,4.78336 1.516005,-4.48117 -2.507174,-49.5939 -1.271478,-99.58757 8.637699,-148.39154 16.78047,3.09867 33.56093,6.19733 50.3414,9.296 -8.10682,40.96316 0.46812,82.57099 11.51017,122.09398 3.03084,12.03261 5.50972,24.19162 7.78583,36.38702 z"
     id="path827" />
  <path
     style="fill:none;stroke:#000000;stroke-width:0.5"
     d="m 91.1582,-11.7531 c 56.27303,-1.257568 116.46855,-11.274978 160.0719,-49.725327 26.22285,-23.699923 48.98464,-57.380033 44.97593,-94.274733 -4.89808,-37.30459 -33.09085,-67.47631 -64.27003,-86.09384 -9.22204,-0.38751 -10.91678,11.77274 -16.04941,17.51194 -23.28417,36.58599 -41.13104,76.28398 -63.83888,113.17584 -9.95954,17.243987 -28.48528,32.645719 -49.63097,28.09008 -13.957275,-1.600694 -25.45823,-10.477936 -37.455195,-16.526225 -8.863698,1.171832 -11.219592,12.753194 -17.060081,18.460537 -9.677422,14.082981 -20.247282,27.644096 -29.363364,42.055328 -0.5427,9.442875 12.025641,11.615061 18.1814,16.3015 16.822531,8.469806 35.756707,11.332723 54.4387,11.0249 z"
     id="path825" />
  <path
     style="fill:none;stroke:#000000;stroke-width:0.5"
     d="m 83.6721,-18.1777 c -21.060019,-0.250146 -41.941055,-6.818498 -59.006,-19.2373 13.2286,-18.6436 26.4572,-37.2872 39.6858,-55.9308 19.8417,14.802259 48.93941,24.853422 71.3221,9.5152 23.14922,-17.58904 33.81402,-45.89914 47.84627,-70.40314 14.63701,-27.70552 30.0755,-54.99748 46.88273,-81.45026 31.07746,19.81798 60.49425,51.74924 59.94266,90.79118 -1.83051,34.6304 -25.02517,64.427808 -51.31957,85.228079 C 195.02552,-26.116695 137.46026,-18.425999 83.6721,-18.1777 Z"
     id="path4" />
</svg>
