<?xml version="1.0" standalone="no"?>
<!DOCTYPE svg PUBLIC "-//W3C//DTD SVG 1.1//EN" "http://www.w3.org/Graphics/SVG/1.1/DTD/svg11.dtd">
<svg width="473mm" height="659mm" viewBox="-1 -672 473 659" xmlns="http://www.w3.org/2000/svg" version="1.1">
<title>OpenSCAD Model</title>
<path d="
M 254.276,-527.056 L 254.273,-527.117 L 254.28,-527.118 L 254.283,-527.056 L 268.951,-527.687 L 269.57,-527.744
 L 282.449,-529.571 L 283.162,-529.714 L 294.368,-532.642 L 295.158,-532.905 L 304.822,-536.839 L 305.645,-537.246
 L 313.896,-542.095 L 314.687,-542.645 L 321.655,-548.317 L 322.348,-548.974 L 328.16,-555.378 L 328.711,-556.079
 L 333.492,-563.123 L 333.895,-563.804 L 337.768,-571.396 L 338.041,-572.009 L 341.125,-580.055 L 341.3,-580.578
 L 343.708,-588.982 L 343.815,-589.41 L 345.658,-598.07 L 345.72,-598.409 L 347.101,-607.224 L 347.136,-607.482
 L 348.155,-616.345 L 348.174,-616.531 L 348.924,-625.334 L 348.933,-625.454 L 349.502,-634.083 L 349.506,-634.143
 L 349.979,-642.485 L 350.428,-650.39 L 350.919,-657.715 L 351.511,-664.441 L 351.373,-666.423 L 350.63,-668.265
 L 349.354,-669.788 L 347.67,-670.842 L 345.742,-671.323 L 343.76,-671.186 L 341.918,-670.443 L 340.395,-669.166
 L 339.551,-667.926 L 336.719,-662.477 L 333.85,-657.283 L 330.893,-652.304 L 327.835,-647.55 L 324.663,-643.034
 L 321.367,-638.766 L 317.939,-634.757 L 314.369,-631.011 L 310.645,-627.537 L 306.753,-624.338 L 302.679,-621.416
 L 298.403,-618.774 L 293.904,-616.415 L 289.156,-614.341 L 284.134,-612.558 L 278.811,-611.073 L 273.16,-609.895
 L 267.157,-609.037 L 260.776,-608.511 L 254.005,-608.332 L 247.234,-608.511 L 240.853,-609.037 L 234.85,-609.895
 L 229.199,-611.073 L 223.876,-612.558 L 218.854,-614.341 L 214.106,-616.415 L 209.607,-618.774 L 205.331,-621.416
 L 201.257,-624.338 L 197.365,-627.537 L 193.641,-631.011 L 190.071,-634.757 L 186.643,-638.766 L 183.347,-643.034
 L 180.175,-647.55 L 177.117,-652.304 L 174.16,-657.283 L 171.291,-662.477 L 168.459,-667.926 L 167.278,-669.524
 L 165.662,-670.679 L 163.767,-671.277 L 161.781,-671.261 L 159.896,-670.632 L 158.298,-669.451 L 157.144,-667.835
 L 156.545,-665.94 L 156.499,-664.441 L 157.091,-657.715 L 157.582,-650.39 L 158.031,-642.485 L 158.504,-634.143
 L 158.508,-634.083 L 159.077,-625.454 L 159.087,-625.334 L 159.836,-616.531 L 159.855,-616.345 L 160.874,-607.482
 L 160.909,-607.224 L 162.29,-598.409 L 162.352,-598.07 L 164.195,-589.41 L 164.302,-588.982 L 166.71,-580.578
 L 166.885,-580.055 L 169.969,-572.009 L 170.242,-571.396 L 174.115,-563.804 L 174.518,-563.123 L 179.299,-556.079
 L 179.85,-555.378 L 185.662,-548.974 L 186.355,-548.317 L 193.323,-542.645 L 194.114,-542.095 L 202.365,-537.246
 L 203.188,-536.839 L 212.852,-532.905 L 213.642,-532.642 L 224.848,-529.714 L 225.561,-529.571 L 238.44,-527.744
 L 239.059,-527.687 L 253.727,-527.056 L 253.731,-527.13 L 253.736,-527.129 L 253.733,-527.056 L 253.738,-527.056
 L 254.028,-527.089 L 254.271,-527.056 z
M 254.005,-533.4 L 254,-533.4 L 254,-533.4 L 239.332,-534.031 L 226.454,-535.858 L 215.247,-538.786
 L 205.583,-542.721 L 197.332,-547.57 L 190.364,-553.241 L 184.553,-559.645 L 179.772,-566.689 L 175.898,-574.282
 L 172.815,-582.328 L 170.406,-590.731 L 168.563,-599.392 L 167.182,-608.207 L 166.163,-617.07 L 165.414,-625.873
 L 164.844,-634.502 L 164.371,-642.844 L 163.92,-650.784 L 163.423,-658.205 L 162.825,-664.998 L 165.694,-659.478
 L 168.65,-654.126 L 171.715,-648.963 L 174.905,-644.005 L 178.234,-639.267 L 181.713,-634.76 L 185.356,-630.499
 L 189.174,-626.495 L 193.179,-622.758 L 197.386,-619.3 L 201.808,-616.129 L 206.46,-613.255 L 211.357,-610.686
 L 216.518,-608.432 L 221.958,-606.5 L 227.696,-604.899 L 233.752,-603.638 L 240.143,-602.724 L 246.889,-602.168
 L 254.005,-601.98 L 261.121,-602.168 L 267.867,-602.724 L 274.258,-603.638 L 280.314,-604.899 L 286.052,-606.5
 L 291.492,-608.432 L 296.653,-610.686 L 301.55,-613.255 L 306.202,-616.129 L 310.624,-619.3 L 314.831,-622.758
 L 318.836,-626.495 L 322.654,-630.499 L 326.297,-634.76 L 329.776,-639.267 L 333.105,-644.005 L 336.295,-648.963
 L 339.36,-654.126 L 342.316,-659.478 L 345.185,-664.998 L 344.587,-658.205 L 344.09,-650.784 L 343.639,-642.844
 L 343.166,-634.502 L 342.596,-625.873 L 341.847,-617.07 L 340.828,-608.207 L 339.447,-599.392 L 337.604,-590.731
 L 335.195,-582.328 L 332.112,-574.282 L 328.238,-566.689 L 323.457,-559.645 L 317.646,-553.241 L 310.678,-547.57
 L 302.427,-542.721 L 292.763,-538.786 L 281.556,-535.858 L 268.678,-534.031 L 254.01,-533.4 L 254.01,-533.4
 z
M 92.4841,-109.559 L 92.4798,-109.613 L 92.6582,-109.627 L 92.6625,-109.573 L 101.381,-110.267 L 101.679,-110.298
 L 101.689,-110.299 L 101.983,-110.344 L 110.401,-111.82 L 110.715,-111.883 L 110.725,-111.885 L 111.032,-111.964
 L 118.846,-114.16 L 119.161,-114.257 L 119.171,-114.26 L 119.487,-114.376 L 126.717,-117.254 L 127.034,-117.39
 L 127.043,-117.395 L 127.344,-117.543 L 134.012,-121.065 L 134.303,-121.228 L 134.312,-121.234 L 134.603,-121.418
 L 140.729,-125.544 L 141,-125.736 L 141.008,-125.743 L 141.266,-125.947 L 146.871,-130.638 L 147.107,-130.846
 L 147.114,-130.853 L 147.342,-131.075 L 152.446,-136.292 L 152.653,-136.514 L 152.659,-136.521 L 152.847,-136.742
 L 157.469,-142.449 L 157.632,-142.659 L 157.638,-142.666 L 157.801,-142.897 L 161.963,-149.055 L 162.101,-149.268
 L 162.105,-149.275 L 162.232,-149.489 L 165.952,-156.06 L 166.059,-156.258 L 166.063,-156.264 L 166.166,-156.472
 L 169.465,-163.422 L 169.551,-163.613 L 169.554,-163.619 L 169.632,-163.808 L 172.529,-171.101 L 172.598,-171.284
 L 172.6,-171.289 L 172.658,-171.457 L 175.171,-179.06 L 175.219,-179.21 L 175.22,-179.215 L 175.27,-179.387
 L 177.418,-187.267 L 177.457,-187.417 L 177.458,-187.421 L 177.492,-187.567 L 179.295,-195.692 L 179.325,-195.836
 L 179.326,-195.84 L 179.35,-195.966 L 180.826,-204.308 L 180.845,-204.427 L 180.846,-204.43 L 180.865,-204.558
 L 182.031,-213.089 L 182.044,-213.186 L 182.044,-213.189 L 182.058,-213.317 L 182.934,-222.012 L 182.945,-222.139
 L 182.951,-222.22 L 183.553,-231.047 L 183.545,-231.137 L 183.563,-231.206 L 183.822,-237.168 L 183.826,-237.284
 L 183.977,-243.293 L 183.978,-243.402 L 184.026,-249.46 L 184.026,-249.561 L 183.977,-255.658 L 183.976,-255.753
 L 183.834,-261.889 L 183.832,-261.977 L 183.604,-268.15 L 183.601,-268.23 L 183.294,-274.439 L 183.29,-274.513
 L 182.908,-280.759 L 182.904,-280.825 L 182.454,-287.11 L 182.45,-287.168 L 181.939,-293.495 L 181.935,-293.545
 L 181.369,-299.918 L 181.366,-299.96 L 180.753,-306.384 L 180.749,-306.418 L 180.096,-312.9 L 180.093,-312.926
 L 179.405,-319.492 L 178.693,-326.126 L 177.963,-332.839 L 177.223,-339.645 L 176.479,-346.567 L 175.741,-353.604
 L 175.011,-360.793 L 175.006,-360.809 L 175.006,-360.839 L 174.01,-369.996 L 173.996,-370.109 L 172.907,-378.691
 L 172.893,-378.792 L 171.731,-386.9 L 171.719,-386.979 L 170.512,-394.714 L 170.504,-394.761 L 169.28,-402.229
 L 168.081,-409.488 L 166.943,-416.612 L 165.906,-423.662 L 165.003,-430.699 L 164.265,-437.768 L 163.72,-444.898
 L 163.391,-452.104 L 163.298,-459.386 L 163.455,-466.738 L 163.875,-474.138 L 164.567,-481.561 L 165.536,-488.975
 L 166.785,-496.344 L 168.317,-503.626 L 170.167,-510.915 L 170.348,-512.893 L 169.503,-515.666 L 169.433,-515.787
 L 168.178,-517.328 L 165.635,-518.718 L 116.295,-532.365 L 114.321,-532.589 L 112.374,-532.192 L 111.453,-531.759
 L 111.33,-531.689 L 109.78,-530.446 L 108.69,-528.785 L 108.347,-527.826 L 105.454,-517.077 L 105.43,-516.987
 L 102.837,-506.756 L 102.813,-506.658 L 100.506,-496.908 L 100.482,-496.803 L 98.4466,-487.501 L 98.4235,-487.391
 L 96.6425,-478.498 L 96.6208,-478.384 L 95.073,-469.85 L 95.0533,-469.735 L 93.7175,-461.515 L 93.7003,-461.403
 L 92.5527,-453.444 L 92.5383,-453.338 L 91.98,-448.941 L 91.4217,-453.338 L 91.4073,-453.444 L 90.2594,-461.405
 L 90.2422,-461.517 L 88.9067,-469.735 L 88.887,-469.85 L 87.3392,-478.384 L 87.3175,-478.498 L 85.5361,-487.393
 L 85.513,-487.503 L 83.4778,-496.805 L 83.4539,-496.91 L 81.1472,-506.658 L 81.1232,-506.756 L 78.5296,-516.988
 L 78.506,-517.079 L 75.6129,-527.826 L 74.8027,-529.64 L 73.4715,-531.114 L 72.6305,-531.689 L 72.5072,-531.759
 L 70.6492,-532.463 L 68.6647,-532.557 L 67.6651,-532.365 L 18.3255,-518.718 L 16.5171,-517.895 L 14.5274,-515.787
 L 14.4572,-515.666 L 13.7403,-513.813 L 13.7932,-510.915 L 15.6429,-503.626 L 17.175,-496.344 L 18.4245,-488.975
 L 19.393,-481.561 L 20.0845,-474.138 L 20.5047,-466.738 L 20.6623,-459.386 L 20.569,-452.104 L 20.2401,-444.898
 L 19.695,-437.768 L 18.9572,-430.699 L 18.0541,-423.662 L 17.0168,-416.612 L 15.8796,-409.49 L 14.6781,-402.221
 L 13.4556,-394.76 L 13.448,-394.713 L 12.2404,-386.978 L 12.2286,-386.899 L 11.0668,-378.79 L 11.0531,-378.69
 L 9.96336,-370.107 L 9.95004,-369.994 L 8.95399,-360.839 L 8.95538,-360.811 L 8.94939,-360.793 L 8.21921,-353.604
 L 7.48053,-346.567 L 6.73701,-339.645 L 5.99734,-332.839 L 5.26653,-326.117 L 4.55464,-319.491 L 3.86655,-312.925
 L 3.86397,-312.9 L 3.21063,-306.417 L 3.20734,-306.384 L 2.59439,-299.959 L 2.59052,-299.917 L 2.02516,-293.544
 L 2.02092,-293.494 L 1.51016,-287.167 L 1.50574,-287.109 L 1.0563,-280.824 L 1.05196,-280.758 L 0.670395,-274.511
 L 0.666336,-274.438 L 0.358932,-268.229 L 0.355469,-268.148 L 0.128235,-261.975 L 0.12561,-261.888 L -0.0155334,-255.752
 L -0.0169983,-255.657 L -0.0663757,-249.56 L -0.066391,-249.458 L -0.0184631,-243.402 L -0.0166626,-243.293 L 0.133972,-237.284
 L 0.137955,-237.168 L 0.39682,-231.206 L 0.413406,-231.124 L 0.406738,-231.047 L 1.00854,-222.22 L 1.01462,-222.139
 L 1.02605,-222.012 L 1.90164,-213.317 L 1.91583,-213.189 L 1.91626,-213.186 L 1.92867,-213.089 L 3.09523,-204.558
 L 3.114,-204.43 L 3.11461,-204.427 L 3.13437,-204.308 L 4.61003,-195.966 L 4.6337,-195.84 L 4.63454,-195.836
 L 4.66457,-195.692 L 6.46751,-187.567 L 6.5016,-187.421 L 6.50275,-187.417 L 6.54156,-187.267 L 8.69023,-179.387
 L 8.73991,-179.215 L 8.74146,-179.21 L 8.78893,-179.06 L 11.3019,-171.457 L 11.36,-171.289 L 11.362,-171.284
 L 11.4314,-171.101 L 14.3276,-163.808 L 14.4059,-163.619 L 14.4085,-163.613 L 14.4952,-163.422 L 17.7938,-156.472
 L 17.8973,-156.264 L 17.9006,-156.258 L 18.0078,-156.06 L 21.7281,-149.489 L 21.8549,-149.275 L 21.8591,-149.268
 L 21.9971,-149.055 L 26.1587,-142.897 L 26.3223,-142.666 L 26.3275,-142.659 L 26.4907,-142.449 L 31.1133,-136.742
 L 31.3009,-136.521 L 31.3071,-136.514 L 31.5142,-136.292 L 36.6178,-131.075 L 36.8458,-130.853 L 36.8531,-130.846
 L 37.089,-130.638 L 42.6938,-125.947 L 42.952,-125.743 L 42.9603,-125.736 L 43.2308,-125.544 L 49.357,-121.418
 L 49.6476,-121.234 L 49.6567,-121.228 L 49.9479,-121.065 L 56.616,-117.543 L 56.9167,-117.395 L 56.9265,-117.39
 L 57.2427,-117.254 L 64.4734,-114.376 L 64.7886,-114.26 L 64.7986,-114.257 L 65.1136,-114.16 L 72.9277,-111.964
 L 73.2354,-111.885 L 73.2452,-111.883 L 73.5587,-111.82 L 81.9775,-110.344 L 82.2714,-110.299 L 82.2807,-110.298
 L 82.5794,-110.267 L 91.0771,-109.59 L 91.2,-109.558 L 91.5226,-109.555 L 91.6249,-109.547 L 91.7061,-109.553
 L 92.3351,-109.547 z
M 91.98,-115.889 L 91.8309,-115.877 L 91.8017,-115.903 L 83.0836,-116.597 L 83.0742,-116.598 L 74.6554,-118.075
 L 74.6456,-118.077 L 66.8315,-120.273 L 66.8216,-120.276 L 59.5909,-123.154 L 59.5812,-123.159 L 52.9131,-126.68
 L 52.9039,-126.685 L 46.7777,-130.811 L 46.7694,-130.817 L 41.1646,-135.508 L 41.1573,-135.515 L 36.0537,-140.732
 L 36.0475,-140.739 L 31.4249,-146.446 L 31.4198,-146.453 L 27.2582,-152.61 L 27.2541,-152.617 L 23.5338,-159.189
 L 23.5305,-159.195 L 20.2319,-166.145 L 20.2293,-166.151 L 17.3331,-173.444 L 17.3311,-173.45 L 14.8181,-181.053
 L 14.8166,-181.058 L 12.6679,-188.938 L 12.6667,-188.942 L 10.8638,-197.068 L 10.863,-197.072 L 9.3873,-205.414
 L 9.38669,-205.418 L 8.22012,-213.95 L 8.2197,-213.953 L 7.3441,-222.649 L 7.34384,-222.652 L 6.74203,-231.479
 L 6.74327,-231.479 L 6.74084,-231.481 L 6.48198,-237.443 L 6.33133,-243.452 L 6.2834,-249.508 L 6.33278,-255.606
 L 6.47394,-261.742 L 6.70117,-267.915 L 7.00858,-274.124 L 7.39014,-280.371 L 7.83957,-286.656 L 8.35033,-292.983
 L 8.91568,-299.356 L 9.52863,-305.781 L 10.182,-312.263 L 10.8683,-318.813 L 11.5802,-325.439 L 12.3101,-332.153
 L 13.0507,-338.967 L 13.7948,-345.895 L 14.5356,-352.951 L 15.2669,-360.152 L 15.2672,-360.152 L 15.2667,-360.153
 L 16.2628,-369.307 L 17.3526,-377.89 L 18.5144,-385.998 L 19.722,-393.733 L 20.9445,-401.194 L 22.1473,-408.471
 L 23.2934,-415.649 L 24.345,-422.796 L 25.2651,-429.965 L 26.0198,-437.196 L 26.5791,-444.511 L 26.9171,-451.918
 L 27.0132,-459.414 L 26.8509,-466.986 L 26.4178,-474.613 L 25.7048,-482.267 L 24.7053,-489.917 L 23.4147,-497.528
 L 21.8299,-505.061 L 19.9481,-512.477 L 20.0183,-512.598 L 69.3579,-526.245 L 69.4812,-526.175 L 72.3743,-515.428
 L 74.9678,-505.196 L 77.2746,-495.448 L 79.3098,-486.146 L 81.0911,-477.251 L 82.6389,-468.716 L 83.9744,-460.499
 L 85.1223,-452.538 L 86.1075,-444.779 L 86.9557,-437.159 L 87.6919,-429.615 L 88.3397,-422.083 L 88.9196,-414.5
 L 89.4493,-406.806 L 89.9422,-398.946 L 90.4078,-390.868 L 90.8522,-382.53 L 91.2786,-373.893 L 91.6879,-364.923
 L 91.98,-357.962 L 92.272,-364.923 L 92.6814,-373.892 L 93.1078,-382.53 L 93.5522,-390.868 L 94.0178,-398.945
 L 94.5106,-406.805 L 95.0403,-414.499 L 95.6203,-422.082 L 96.2679,-429.614 L 97.0041,-437.157 L 97.8523,-444.777
 L 98.8377,-452.538 L 99.9853,-460.497 L 101.321,-468.716 L 102.869,-477.251 L 104.65,-486.144 L 106.685,-495.446
 L 108.992,-505.196 L 111.585,-515.427 L 114.479,-526.175 L 114.602,-526.245 L 163.942,-512.598 L 164.012,-512.477
 L 162.13,-505.061 L 160.545,-497.528 L 159.255,-489.917 L 158.255,-482.267 L 157.542,-474.613 L 157.109,-466.986
 L 156.947,-459.414 L 157.043,-451.918 L 157.381,-444.511 L 157.94,-437.196 L 158.695,-429.965 L 159.615,-422.796
 L 160.667,-415.649 L 161.813,-408.471 L 163.015,-401.194 L 164.238,-393.734 L 165.445,-385.999 L 166.607,-377.891
 L 167.697,-369.309 L 168.693,-360.153 L 168.693,-360.152 L 168.693,-360.152 L 169.424,-352.951 L 170.165,-345.895
 L 170.909,-338.967 L 171.65,-332.153 L 172.38,-325.439 L 173.092,-318.813 L 173.778,-312.264 L 174.431,-305.781
 L 175.044,-299.357 L 175.61,-292.984 L 176.12,-286.657 L 176.57,-280.372 L 176.951,-274.125 L 177.259,-267.916
 L 177.486,-261.743 L 177.627,-255.607 L 177.677,-249.51 L 177.629,-243.452 L 177.478,-237.443 L 177.219,-231.481
 L 177.217,-231.479 L 177.218,-231.479 L 176.616,-222.652 L 176.616,-222.649 L 175.74,-213.953 L 175.74,-213.95
 L 174.573,-205.418 L 174.573,-205.414 L 173.097,-197.072 L 173.096,-197.068 L 171.293,-188.942 L 171.292,-188.938
 L 169.143,-181.058 L 169.142,-181.053 L 166.629,-173.45 L 166.627,-173.444 L 163.731,-166.151 L 163.728,-166.145
 L 160.43,-159.195 L 160.426,-159.189 L 156.706,-152.617 L 156.702,-152.61 L 152.54,-146.453 L 152.535,-146.446
 L 147.912,-140.739 L 147.906,-140.732 L 142.803,-135.515 L 142.795,-135.508 L 137.191,-130.817 L 137.182,-130.811
 L 131.056,-126.685 L 131.047,-126.68 L 124.379,-123.159 L 124.369,-123.154 L 117.138,-120.276 L 117.128,-120.273
 L 109.314,-118.077 L 109.305,-118.075 L 100.886,-116.598 L 100.876,-116.597 L 92.1583,-115.903 L 92.1291,-115.877
 z
M 388.088,-13.3543 L 389.888,-14.1949 L 391.341,-15.5506 L 392.303,-17.2888 L 392.681,-19.2392 L 392.834,-23.6893
 L 392.982,-28.1475 L 393.122,-32.6311 L 393.123,-32.6507 L 393.249,-37.1557 L 393.25,-37.1802 L 393.36,-41.7365
 L 393.361,-41.7648 L 393.452,-46.3882 L 393.453,-46.4193 L 393.523,-51.1251 L 393.523,-51.1578 L 393.57,-55.9606
 L 393.57,-55.9941 L 393.592,-60.9076 L 393.592,-60.9408 L 393.588,-65.9781 L 393.587,-66.0106 L 393.557,-71.1837
 L 393.557,-71.2149 L 393.499,-76.5353 L 393.498,-76.5645 L 393.414,-82.0427 L 393.413,-82.0697 L 393.302,-87.7154
 L 393.301,-87.74 L 393.164,-93.5624 L 393.164,-93.5842 L 393.001,-99.5917 L 393.001,-99.6104 L 392.815,-105.811
 L 392.607,-112.227 L 392.379,-118.847 L 392.137,-125.617 L 392.144,-125.674 L 392.084,-127.347 L 392.026,-129.005
 L 391.969,-130.67 L 391.915,-132.316 L 391.863,-133.969 L 391.813,-135.607 L 391.766,-137.249 L 391.722,-138.875
 L 391.682,-140.496 L 391.644,-142.118 L 391.611,-143.728 L 391.583,-145.326 L 391.559,-146.923 L 391.54,-148.511
 L 391.528,-150.089 L 391.522,-151.66 L 391.523,-153.218 L 391.532,-154.769 L 391.55,-156.308 L 391.577,-157.859
 L 391.572,-157.887 L 391.771,-163.885 L 392.132,-169.778 L 392.699,-175.467 L 393.531,-180.92 L 394.684,-186.101
 L 396.21,-190.975 L 398.146,-195.511 L 400.511,-199.684 L 403.305,-203.477 L 406.516,-206.877 L 410.123,-209.878
 L 414.106,-212.478 L 418.444,-214.682 L 423.125,-216.494 L 428.141,-217.921 L 433.492,-218.971 L 439.181,-219.648
 L 445.219,-219.953 L 451.614,-219.882 L 458.544,-219.416 L 460.36,-219.556 L 462.206,-220.289 L 463.736,-221.556
 L 464.8,-223.234 L 465.292,-225.159 L 471.696,-293.439 L 471.513,-295.655 L 470.711,-297.472 L 469.387,-298.953
 L 467.669,-299.953 L 465.728,-300.372 L 456.668,-300.878 L 456.161,-300.886 L 447.616,-300.682 L 447.089,-300.647
 L 439.019,-299.778 L 438.491,-299.698 L 430.851,-298.219 L 430.348,-298.1 L 423.086,-296.069 L 422.63,-295.923
 L 415.687,-293.404 L 415.296,-293.248 L 408.606,-290.305 L 408.289,-290.155 L 401.78,-286.852 L 401.536,-286.721
 L 395.139,-283.115 L 394.959,-283.01 L 388.608,-279.15 L 388.476,-279.068 L 382.12,-274.99 L 382.019,-274.923
 L 375.625,-270.645 L 375.535,-270.584 L 369.089,-266.11 L 368.998,-266.045 L 362.5,-261.365 L 362.399,-261.29
 L 355.868,-256.386 L 355.753,-256.297 L 349.213,-251.148 L 349.083,-251.043 L 342.567,-245.629 L 342.425,-245.507
 L 335.968,-239.81 L 335.814,-239.67 L 329.453,-233.677 L 329.29,-233.518 L 323.066,-227.216 L 322.935,-227.048
 L 322.92,-227.062 L 318.878,-222.687 L 318.76,-222.555 L 314.806,-218.026 L 314.686,-217.885 L 310.839,-213.21
 L 310.718,-213.058 L 306.99,-208.235 L 306.869,-208.073 L 303.273,-203.101 L 303.153,-202.929 L 299.701,-197.807
 L 299.582,-197.623 L 296.288,-192.352 L 296.171,-192.156 L 293.048,-186.734 L 292.933,-186.526 L 289.995,-180.953
 L 289.885,-180.733 L 287.145,-175.008 L 287.039,-174.777 L 284.511,-168.9 L 284.412,-168.657 L 282.109,-162.629
 L 282.018,-162.374 L 279.954,-156.194 L 279.872,-155.929 L 278.061,-149.598 L 277.989,-149.322 L 276.446,-142.839
 L 276.385,-142.555 L 275.123,-135.921 L 275.074,-135.63 L 274.108,-128.844 L 274.073,-128.548 L 273.415,-121.611
 L 273.394,-121.311 L 273.06,-114.223 L 273.053,-113.921 L 273.057,-106.688 L 273.101,-106.688 L 273.063,-106.263
 L 273.682,-97.0745 L 273.749,-96.493 L 275.123,-87.9533 L 275.251,-87.3454 L 277.336,-79.4257 L 277.533,-78.8093
 L 280.285,-71.4817 L 280.549,-70.8776 L 283.926,-64.115 L 284.25,-63.5438 L 288.209,-57.32 L 288.579,-56.7986
 L 293.077,-51.0886 L 293.478,-50.6278 L 298.473,-45.4081 L 298.888,-45.0122 L 304.339,-40.2606 L 304.754,-39.9281
 L 310.617,-35.6245 L 311.022,-35.3501 L 317.255,-31.4761 L 317.645,-31.2527 L 324.206,-27.7921 L 324.577,-27.6117
 L 331.424,-24.5509 L 331.776,-24.4061 L 338.866,-21.7335 L 339.2,-21.618 L 346.49,-19.3246 L 346.81,-19.2332
 L 354.258,-17.3124 L 354.567,-17.241 L 362.128,-15.6888 L 362.43,-15.6343 L 370.062,-14.4489 L 370.362,-14.4096
 L 378.02,-13.5914 L 378.323,-13.5664 L 385.963,-13.1182 z
M 378.695,-19.9055 L 371.037,-20.7236 L 363.405,-21.909 L 355.843,-23.4613 L 348.396,-25.382 L 341.105,-27.6754
 L 334.016,-30.348 L 327.169,-33.4088 L 320.607,-36.8693 L 314.374,-40.7434 L 308.511,-45.0471 L 303.061,-49.7987
 L 298.065,-55.0184 L 293.567,-60.7284 L 289.607,-66.9522 L 286.23,-73.7148 L 283.477,-81.0424 L 281.392,-88.9621
 L 280.018,-97.5018 L 279.398,-106.69 L 279.407,-106.691 L 279.403,-113.925 L 279.737,-121.012 L 280.394,-127.949
 L 281.361,-134.734 L 282.623,-141.369 L 284.166,-147.852 L 285.977,-154.183 L 288.041,-160.363 L 290.344,-166.39
 L 292.872,-172.267 L 295.612,-177.991 L 298.551,-183.565 L 301.673,-188.987 L 304.967,-194.258 L 308.418,-199.38
 L 312.015,-204.352 L 315.742,-209.175 L 319.589,-213.85 L 323.543,-218.378 L 327.584,-222.753 L 327.584,-222.754
 L 333.808,-229.055 L 340.168,-235.049 L 346.626,-240.745 L 353.142,-246.159 L 359.681,-251.308 L 366.212,-256.212
 L 372.709,-260.893 L 379.156,-265.367 L 385.55,-269.645 L 391.905,-273.724 L 398.257,-277.584 L 404.654,-281.189
 L 411.163,-284.492 L 417.853,-287.435 L 424.796,-289.954 L 432.058,-291.985 L 439.699,-293.464 L 447.769,-294.333
 L 456.313,-294.538 L 465.374,-294.032 L 458.97,-225.752 L 451.863,-226.23 L 445.094,-226.304 L 438.646,-225.979
 L 432.504,-225.249 L 426.658,-224.101 L 421.105,-222.521 L 415.854,-220.488 L 410.923,-217.984 L 406.344,-214.994
 L 402.161,-211.515 L 398.422,-207.555 L 395.173,-203.145 L 392.446,-198.331 L 390.245,-193.175 L 388.544,-187.742
 L 387.286,-182.089 L 386.397,-176.261 L 385.801,-170.287 L 385.428,-164.184 L 385.222,-157.981 L 385.228,-157.973
 L 385.2,-156.402 L 385.182,-154.824 L 385.173,-153.239 L 385.172,-151.648 L 385.178,-150.051 L 385.191,-148.448
 L 385.209,-146.839 L 385.234,-145.224 L 385.263,-143.604 L 385.296,-141.978 L 385.333,-140.347 L 385.374,-138.71
 L 385.419,-137.069 L 385.466,-135.422 L 385.516,-133.771 L 385.568,-132.115 L 385.623,-130.454 L 385.68,-128.789
 L 385.738,-127.12 L 385.798,-125.446 L 385.789,-125.445 L 386.033,-118.629 L 386.26,-112.021 L 386.468,-105.621
 L 386.654,-99.4201 L 386.816,-93.4127 L 386.953,-87.5903 L 387.065,-81.9445 L 387.149,-76.4664 L 387.207,-71.1461
 L 387.238,-65.9729 L 387.242,-60.9357 L 387.22,-56.0222 L 387.173,-51.2194 L 387.103,-46.5136 L 387.012,-41.8902
 L 386.902,-37.3339 L 386.775,-32.829 L 386.636,-28.359 L 386.488,-23.9074 L 386.335,-19.4573 z
" stroke="black" fill="lightgray" stroke-width="0.5"/>
</svg>
