<?xml version="1.0" standalone="no"?>
<!DOCTYPE svg PUBLIC "-//W3C//DTD SVG 1.1//EN" "http://www.w3.org/Graphics/SVG/1.1/DTD/svg11.dtd">
<svg width="485mm" height="661mm" viewBox="-25 -672 485 661" xmlns="http://www.w3.org/2000/svg" version="1.1">
<title>OpenSCAD Model</title>
<path d="
M 254.276,-527.056 L 254.273,-527.117 L 254.279,-527.118 L 254.282,-527.056 L 268.978,-527.686 L 269.592,-527.743
 L 282.549,-529.57 L 283.251,-529.709 L 294.58,-532.636 L 295.352,-532.889 L 305.178,-536.823 L 305.979,-537.211
 L 314.424,-542.058 L 315.196,-542.579 L 322.383,-548.248 L 323.065,-548.871 L 329.116,-555.269 L 329.667,-555.938
 L 334.7,-562.975 L 335.111,-563.631 L 339.244,-571.213 L 339.53,-571.811 L 342.874,-579.844 L 343.064,-580.361
 L 345.729,-588.748 L 345.849,-589.178 L 347.939,-597.818 L 348.012,-598.163 L 349.627,-606.956 L 349.671,-607.223
 L 350.907,-616.062 L 350.932,-616.26 L 351.88,-625.038 L 351.893,-625.172 L 352.638,-633.778 L 352.644,-633.852
 L 353.267,-642.174 L 353.839,-650.089 L 354.42,-657.428 L 355.067,-664.161 L 354.945,-666.144 L 354.217,-667.992
 L 352.952,-669.525 L 351.277,-670.592 L 349.353,-671.089 L 347.37,-670.967 L 345.522,-670.239 L 343.989,-668.975
 L 343.122,-667.716 L 340.28,-662.294 L 337.376,-657.144 L 334.351,-652.211 L 331.189,-647.501 L 327.88,-643.025
 L 324.415,-638.791 L 320.788,-634.805 L 316.992,-631.076 L 313.018,-627.609 L 308.858,-624.408 L 304.502,-621.479
 L 299.937,-618.826 L 295.148,-616.453 L 290.12,-614.366 L 284.838,-612.572 L 279.282,-611.079 L 273.437,-609.898
 L 267.285,-609.037 L 260.81,-608.511 L 254.005,-608.332 L 247.2,-608.511 L 240.725,-609.037 L 234.573,-609.898
 L 228.728,-611.079 L 223.172,-612.572 L 217.89,-614.366 L 212.862,-616.453 L 208.074,-618.826 L 203.508,-621.479
 L 199.152,-624.408 L 194.992,-627.609 L 191.018,-631.076 L 187.222,-634.805 L 183.595,-638.791 L 180.13,-643.025
 L 176.821,-647.501 L 173.659,-652.211 L 170.634,-657.144 L 167.73,-662.294 L 164.888,-667.716 L 163.702,-669.31
 L 162.082,-670.459 L 160.185,-671.051 L 158.199,-671.028 L 156.316,-670.392 L 154.723,-669.206 L 153.573,-667.586
 L 152.981,-665.689 L 152.943,-664.161 L 153.59,-657.428 L 154.171,-650.089 L 154.743,-642.174 L 155.366,-633.852
 L 155.372,-633.778 L 156.117,-625.172 L 156.13,-625.038 L 157.078,-616.26 L 157.103,-616.062 L 158.339,-607.223
 L 158.383,-606.956 L 159.998,-598.163 L 160.071,-597.818 L 162.161,-589.178 L 162.281,-588.748 L 164.946,-580.361
 L 165.136,-579.844 L 168.48,-571.811 L 168.766,-571.213 L 172.899,-563.631 L 173.31,-562.975 L 178.343,-555.938
 L 178.894,-555.269 L 184.945,-548.871 L 185.627,-548.248 L 192.814,-542.579 L 193.586,-542.058 L 202.031,-537.211
 L 202.832,-536.823 L 212.658,-532.889 L 213.43,-532.636 L 224.76,-529.709 L 225.461,-529.57 L 238.418,-527.743
 L 239.032,-527.686 L 253.728,-527.056 L 253.731,-527.129 L 253.736,-527.129 L 253.733,-527.056 L 253.738,-527.056
 L 254.028,-527.089 L 254.271,-527.056 z
M 254.005,-533.4 L 254,-533.4 L 254,-533.4 L 239.304,-534.031 L 226.348,-535.857 L 215.018,-538.785
 L 205.192,-542.718 L 196.747,-547.565 L 189.559,-553.234 L 183.508,-559.632 L 178.474,-566.669 L 174.342,-574.252
 L 170.998,-582.284 L 168.333,-590.67 L 166.243,-599.311 L 164.628,-608.103 L 163.392,-616.942 L 162.444,-625.72
 L 161.698,-634.326 L 161.076,-642.647 L 160.503,-650.571 L 159.916,-657.981 L 159.264,-664.768 L 162.151,-659.26
 L 165.16,-653.924 L 168.314,-648.78 L 171.629,-643.842 L 175.117,-639.125 L 178.786,-634.64 L 182.645,-630.4
 L 186.702,-626.415 L 190.964,-622.696 L 195.44,-619.252 L 200.138,-616.093 L 205.065,-613.229 L 210.232,-610.669
 L 215.649,-608.421 L 221.326,-606.493 L 227.273,-604.895 L 233.503,-603.635 L 240.028,-602.723 L 246.859,-602.168
 L 254.005,-601.98 L 261.151,-602.168 L 267.982,-602.723 L 274.507,-603.635 L 280.737,-604.895 L 286.684,-606.493
 L 292.361,-608.421 L 297.778,-610.669 L 302.945,-613.229 L 307.872,-616.093 L 312.57,-619.252 L 317.046,-622.696
 L 321.308,-626.415 L 325.365,-630.4 L 329.224,-634.64 L 332.893,-639.125 L 336.381,-643.842 L 339.696,-648.78
 L 342.85,-653.924 L 345.859,-659.26 L 348.746,-664.768 L 348.094,-657.981 L 347.507,-650.571 L 346.934,-642.647
 L 346.312,-634.326 L 345.566,-625.72 L 344.618,-616.942 L 343.382,-608.103 L 341.767,-599.311 L 339.677,-590.67
 L 337.012,-582.284 L 333.668,-574.252 L 329.536,-566.669 L 324.502,-559.632 L 318.451,-553.234 L 311.263,-547.565
 L 302.818,-542.718 L 292.992,-538.785 L 281.662,-535.857 L 268.706,-534.031 L 254.01,-533.4 L 254.01,-533.4
 z
M 103.763,-110.637 L 104.042,-110.667 L 104.051,-110.668 L 104.325,-110.709 L 112.638,-112.158 L 112.932,-112.216
 L 112.942,-112.219 L 113.24,-112.293 L 120.885,-114.395 L 121.198,-114.49 L 121.208,-114.493 L 121.513,-114.603
 L 128.516,-117.326 L 128.828,-117.458 L 128.838,-117.462 L 129.147,-117.612 L 135.534,-120.924 L 135.839,-121.093
 L 135.849,-121.098 L 136.145,-121.284 L 141.941,-125.151 L 142.226,-125.353 L 142.235,-125.359 L 142.507,-125.575
 L 147.738,-129.964 L 147.995,-130.191 L 148.003,-130.199 L 148.242,-130.434 L 152.932,-135.311 L 153.149,-135.548
 L 153.156,-135.556 L 153.362,-135.806 L 157.537,-141.138 L 157.717,-141.379 L 157.722,-141.387 L 157.891,-141.637
 L 161.576,-147.393 L 161.719,-147.627 L 161.723,-147.634 L 161.858,-147.878 L 165.077,-154.026 L 165.192,-154.255
 L 165.195,-154.263 L 165.295,-154.486 L 168.074,-160.994 L 168.158,-161.202 L 168.161,-161.209 L 168.238,-161.421
 L 170.601,-168.26 L 170.663,-168.45 L 170.665,-168.456 L 170.722,-168.65 L 172.693,-175.792 L 172.739,-175.966
 L 172.74,-175.971 L 172.78,-176.144 L 174.385,-183.561 L 174.416,-183.715 L 174.417,-183.72 L 174.445,-183.877
 L 175.708,-191.543 L 175.728,-191.672 L 175.729,-191.676 L 175.748,-191.824 L 176.695,-199.715 L 176.71,-199.845
 L 176.71,-199.849 L 176.72,-199.963 L 177.376,-208.058 L 177.384,-208.167 L 177.384,-208.171 L 177.39,-208.275
 L 177.781,-216.552 L 177.784,-216.623 L 177.787,-216.741 L 177.938,-225.184 L 177.928,-225.254 L 177.939,-225.321
 L 177.92,-231.026 L 177.919,-231.12 L 177.814,-236.897 L 177.812,-236.98 L 177.63,-242.82 L 177.628,-242.891
 L 177.377,-248.788 L 177.374,-248.849 L 177.064,-254.802 L 177.061,-254.851 L 176.701,-260.861 L 176.699,-260.899
 L 176.299,-266.965 L 176.297,-266.991 L 175.867,-273.13 L 175.419,-279.317 L 174.963,-285.563 L 174.513,-291.856
 L 174.081,-298.216 L 173.677,-304.64 L 173.316,-311.138 L 173.01,-317.714 L 172.77,-324.382 L 172.611,-331.15
 L 172.543,-338.025 L 172.578,-345.025 L 172.729,-352.167 L 173.058,-361.249 L 173.495,-369.708 L 174.046,-377.593
 L 174.718,-384.978 L 175.521,-391.935 L 176.467,-398.537 L 177.569,-404.86 L 178.841,-410.974 L 180.3,-416.948
 L 181.962,-422.838 L 183.842,-428.694 L 185.95,-434.555 L 188.297,-440.449 L 190.887,-446.393 L 193.723,-452.398
 L 196.803,-458.469 L 200.12,-464.602 L 203.668,-470.793 L 207.436,-477.028 L 211.447,-483.354 L 212.235,-485.178
 L 212.287,-488.111 L 212.257,-488.248 L 211.535,-490.099 L 209.509,-492.219 L 166.944,-519.827 L 165.129,-520.635
 L 163.153,-520.841 L 162.144,-520.706 L 162.005,-520.676 L 160.153,-519.956 L 158.614,-518.7 L 157.999,-517.888
 L 152.007,-508.508 L 151.957,-508.428 L 146.407,-499.449 L 146.354,-499.361 L 141.226,-490.755 L 141.169,-490.658
 L 136.44,-482.394 L 136.381,-482.288 L 132.027,-474.332 L 131.966,-474.217 L 127.959,-466.523 L 127.896,-466.4
 L 124.212,-458.933 L 124.177,-458.86 L 124.148,-458.799 L 120.757,-451.508 L 120.726,-451.441 L 120.694,-451.367
 L 117.567,-444.199 L 117.538,-444.131 L 117.505,-444.052 L 114.616,-436.952 L 114.585,-436.874 L 114.557,-436.802
 L 111.876,-429.714 L 111.847,-429.635 L 111.821,-429.562 L 109.325,-422.428 L 109.298,-422.348 L 109.275,-422.278
 L 106.94,-415.041 L 106.915,-414.962 L 106.895,-414.895 L 104.702,-407.499 L 104.662,-407.361 L 102.595,-399.762
 L 102.56,-399.629 L 100.604,-391.775 L 100.574,-391.651 L 98.7195,-383.508 L 98.6941,-383.391 L 96.9323,-374.923
 L 96.9106,-374.814 L 95.2354,-365.991 L 95.2171,-365.89 L 93.98,-358.746 L 92.7426,-365.892 L 92.7243,-365.993
 L 91.0494,-374.814 L 91.0277,-374.923 L 89.2655,-383.393 L 89.2401,-383.51 L 87.3857,-391.651 L 87.356,-391.775
 L 85.3995,-399.629 L 85.3651,-399.762 L 83.2978,-407.361 L 83.2584,-407.499 L 81.0651,-414.895 L 81.044,-414.965
 L 81.0199,-415.041 L 78.6853,-422.278 L 78.6614,-422.351 L 78.6349,-422.428 L 76.1388,-429.562 L 76.1119,-429.638
 L 76.0837,-429.714 L 73.4033,-436.802 L 73.3746,-436.877 L 73.3443,-436.952 L 70.4546,-444.052 L 70.4208,-444.133
 L 70.3926,-444.199 L 67.2664,-451.367 L 67.2326,-451.443 L 67.2027,-451.508 L 63.8119,-458.799 L 63.7824,-458.862
 L 63.7477,-458.933 L 60.0638,-466.4 L 60.0011,-466.523 L 55.994,-474.217 L 55.9327,-474.332 L 51.5781,-482.29
 L 51.519,-482.395 L 46.79,-490.66 L 46.7335,-490.756 L 41.6056,-499.362 L 41.5522,-499.45 L 36.0026,-508.429
 L 35.9524,-508.509 L 29.961,-517.888 L 28.6427,-519.375 L 26.9297,-520.381 L 25.9548,-520.676 L 25.8161,-520.706
 L 23.8325,-520.818 L 21.9115,-520.311 L 21.0155,-519.827 L -21.5493,-492.219 L -23.0264,-490.891 L -24.2973,-488.248
 L -24.3273,-488.111 L -24.4428,-486.127 L -23.4868,-483.354 L -19.4756,-477.028 L -15.7084,-470.793 L -12.1599,-464.602
 L -8.84264,-458.469 L -5.76324,-452.398 L -2.92737,-446.393 L -0.337082,-440.449 L 2.01001,-434.555 L 4.11842,-428.694
 L 5.99753,-422.838 L 7.65955,-416.948 L 9.11891,-410.974 L 10.3914,-404.86 L 11.4929,-398.537 L 12.4386,-391.935
 L 13.2418,-384.978 L 13.9142,-377.593 L 14.4652,-369.708 L 14.9024,-361.249 L 15.231,-352.167 L 15.3817,-345.025
 L 15.4173,-338.025 L 15.3494,-331.15 L 15.1897,-324.382 L 14.9503,-317.714 L 14.6439,-311.138 L 14.2827,-304.64
 L 13.8795,-298.217 L 13.4465,-291.856 L 12.9968,-285.563 L 12.5412,-279.314 L 12.092,-273.115 L 11.6626,-266.991
 L 11.6608,-266.965 L 11.261,-260.898 L 11.2586,-260.86 L 10.8986,-254.85 L 10.8959,-254.801 L 10.5858,-248.848
 L 10.5829,-248.787 L 10.3323,-242.89 L 10.3296,-242.818 L 10.1476,-236.98 L 10.1455,-236.897 L 10.0409,-231.118
 L 10.0399,-231.024 L 10.0213,-225.321 L 10.0339,-225.239 L 10.0218,-225.184 L 10.1732,-216.741 L 10.1764,-216.623
 L 10.1794,-216.552 L 10.5699,-208.275 L 10.5757,-208.171 L 10.5759,-208.167 L 10.5838,-208.058 L 11.2398,-199.963
 L 11.2501,-199.849 L 11.2505,-199.845 L 11.2647,-199.715 L 12.2118,-191.824 L 12.2312,-191.676 L 12.2319,-191.672
 L 12.2517,-191.543 L 13.5151,-183.877 L 13.5429,-183.72 L 13.5438,-183.715 L 13.5751,-183.561 L 15.1801,-176.144
 L 15.22,-175.971 L 15.2214,-175.966 L 15.2667,-175.792 L 17.2381,-168.65 L 17.295,-168.456 L 17.2969,-168.45
 L 17.3591,-168.26 L 19.7217,-161.421 L 19.799,-161.209 L 19.8016,-161.202 L 19.8862,-160.994 L 22.6647,-154.486
 L 22.7651,-154.263 L 22.7684,-154.255 L 22.8829,-154.026 L 26.1022,-147.878 L 26.2369,-147.634 L 26.2413,-147.627
 L 26.384,-147.393 L 30.069,-141.637 L 30.2379,-141.387 L 30.2434,-141.379 L 30.4227,-141.138 L 34.5981,-135.806
 L 34.8042,-135.556 L 34.8108,-135.548 L 35.0277,-135.311 L 39.7185,-130.434 L 39.9573,-130.199 L 39.9651,-130.191
 L 40.2217,-129.964 L 45.4527,-125.575 L 45.7254,-125.359 L 45.7342,-125.353 L 46.0187,-125.151 L 51.8152,-121.284
 L 52.1112,-121.098 L 52.1207,-121.093 L 52.4256,-120.924 L 58.8127,-117.612 L 59.1218,-117.462 L 59.1316,-117.458
 L 59.444,-117.326 L 66.4471,-114.603 L 66.752,-114.493 L 66.7617,-114.49 L 67.0749,-114.395 L 74.7196,-112.293
 L 75.0182,-112.219 L 75.0275,-112.216 L 75.3225,-112.158 L 83.6349,-110.709 L 83.9088,-110.668 L 83.9175,-110.667
 L 84.1967,-110.637 L 93.2036,-109.872 L 93.5502,-109.898 L 93.6306,-109.877 L 94.7564,-109.872 z
M 94.1111,-116.295 L 93.98,-119.281 L 93.8489,-116.295 L 93.7405,-116.2 L 84.7337,-116.964 L 84.7249,-116.965
 L 76.4125,-118.414 L 76.4032,-118.416 L 68.7584,-120.518 L 68.7487,-120.521 L 61.7456,-123.244 L 61.7358,-123.249
 L 55.3487,-126.561 L 55.3393,-126.567 L 49.5428,-130.434 L 49.534,-130.44 L 44.303,-134.829 L 44.2952,-134.836
 L 39.6044,-139.713 L 39.5977,-139.721 L 35.4223,-145.053 L 35.4169,-145.061 L 31.7319,-150.817 L 31.7275,-150.824
 L 28.5082,-156.972 L 28.5048,-156.979 L 25.7262,-163.487 L 25.7237,-163.494 L 23.3611,-170.333 L 23.3592,-170.339
 L 21.3878,-177.482 L 21.3865,-177.487 L 19.7815,-184.904 L 19.7806,-184.909 L 18.5172,-192.576 L 18.5165,-192.58
 L 17.5695,-200.472 L 17.5691,-200.476 L 16.9131,-208.571 L 16.9129,-208.574 L 16.5223,-216.852 L 16.5222,-216.855
 L 16.3708,-225.298 L 16.3728,-225.3 L 16.3712,-225.3 L 16.3898,-231.003 L 16.4945,-236.782 L 16.6765,-242.62
 L 16.9272,-248.517 L 17.2373,-254.471 L 17.5972,-260.481 L 17.9971,-266.547 L 18.4265,-272.671 L 18.8746,-278.855
 L 19.3301,-285.102 L 19.7812,-291.416 L 20.2159,-297.801 L 20.6216,-304.265 L 20.9856,-310.813 L 21.2951,-317.453
 L 21.537,-324.193 L 21.6986,-331.043 L 21.7674,-338.01 L 21.7313,-345.109 L 21.5787,-352.345 L 21.5787,-352.345
 L 21.2464,-361.529 L 20.8038,-370.092 L 20.2441,-378.103 L 19.5586,-385.631 L 18.7367,-392.749 L 17.7652,-399.532
 L 16.6293,-406.052 L 15.3134,-412.375 L 13.8015,-418.564 L 12.0783,-424.671 L 10.131,-430.74 L 7.9489,-436.805
 L 5.52484,-442.892 L 2.8555,-449.018 L -0.0593719,-455.191 L -3.21758,-461.417 L -6.61194,-467.692 L -10.2354,-474.013
 L -14.0763,-480.371 L -18.1238,-486.754 L -18.0938,-486.892 L 24.471,-514.5 L 24.6097,-514.47 L 30.6011,-505.091
 L 36.1506,-496.112 L 41.2785,-487.506 L 46.0075,-479.242 L 50.3621,-471.283 L 54.3692,-463.59 L 58.0531,-456.124
 L 58.0541,-456.122 L 61.4449,-448.83 L 61.4459,-448.828 L 64.5721,-441.66 L 64.5731,-441.658 L 67.4629,-434.558
 L 67.4638,-434.556 L 70.1442,-427.468 L 70.1451,-427.465 L 72.6412,-420.331 L 72.642,-420.328 L 74.9765,-413.091
 L 74.9772,-413.089 L 77.1705,-405.694 L 79.2378,-398.095 L 81.1943,-390.24 L 83.0486,-382.099 L 84.8109,-373.629
 L 86.4857,-364.809 L 88.079,-355.607 L 88.0774,-355.605 L 88.0792,-355.605 L 88.9656,-349.937 L 89.7649,-344.197
 L 90.4835,-338.38 L 91.1284,-332.478 L 91.7065,-326.488 L 92.2242,-320.408 L 92.6876,-314.239 L 93.1021,-307.983
 L 93.4726,-301.643 L 93.8033,-295.224 L 93.98,-291.331 L 94.1566,-295.224 L 94.4873,-301.642 L 94.8578,-307.982
 L 95.2723,-314.238 L 95.7357,-320.407 L 96.2534,-326.487 L 96.8314,-332.476 L 97.4763,-338.378 L 98.1949,-344.196
 L 98.9942,-349.935 L 99.8808,-355.605 L 99.8826,-355.605 L 99.881,-355.607 L 101.474,-364.807 L 103.149,-373.629
 L 104.911,-382.097 L 106.766,-390.24 L 108.722,-398.095 L 110.789,-405.694 L 112.983,-413.089 L 112.983,-413.091
 L 115.318,-420.328 L 115.319,-420.331 L 117.815,-427.465 L 117.816,-427.468 L 120.496,-434.556 L 120.497,-434.558
 L 123.387,-441.658 L 123.388,-441.66 L 126.514,-448.828 L 126.515,-448.83 L 129.906,-456.122 L 129.907,-456.124
 L 133.591,-463.59 L 137.598,-471.283 L 141.952,-479.24 L 146.681,-487.504 L 151.809,-496.11 L 157.358,-505.09
 L 163.35,-514.47 L 163.489,-514.5 L 206.054,-486.892 L 206.084,-486.754 L 202.036,-480.371 L 198.195,-474.013
 L 194.572,-467.692 L 191.178,-461.417 L 188.019,-455.191 L 185.104,-449.018 L 182.435,-442.892 L 180.011,-436.805
 L 177.829,-430.74 L 175.882,-424.671 L 174.159,-418.564 L 172.647,-412.375 L 171.331,-406.052 L 170.195,-399.532
 L 169.223,-392.749 L 168.401,-385.631 L 167.716,-378.103 L 167.156,-370.092 L 166.714,-361.529 L 166.381,-352.345
 L 166.381,-352.345 L 166.229,-345.109 L 166.193,-338.01 L 166.261,-331.043 L 166.423,-324.193 L 166.665,-317.453
 L 166.974,-310.813 L 167.338,-304.265 L 167.744,-297.801 L 168.179,-291.416 L 168.63,-285.102 L 169.085,-278.855
 L 169.533,-272.671 L 169.963,-266.547 L 170.363,-260.481 L 170.723,-254.472 L 171.033,-248.518 L 171.283,-242.622
 L 171.466,-236.782 L 171.57,-231.005 L 171.589,-225.3 L 171.587,-225.3 L 171.589,-225.298 L 171.438,-216.855
 L 171.438,-216.852 L 171.047,-208.574 L 171.047,-208.571 L 170.391,-200.476 L 170.391,-200.472 L 169.443,-192.58
 L 169.443,-192.576 L 168.179,-184.909 L 168.178,-184.904 L 166.574,-177.487 L 166.572,-177.482 L 164.601,-170.339
 L 164.599,-170.333 L 162.236,-163.494 L 162.234,-163.487 L 159.455,-156.979 L 159.452,-156.972 L 156.232,-150.824
 L 156.228,-150.817 L 152.543,-145.061 L 152.538,-145.053 L 148.362,-139.721 L 148.356,-139.713 L 143.665,-134.836
 L 143.657,-134.829 L 138.426,-130.44 L 138.417,-130.434 L 132.621,-126.567 L 132.611,-126.561 L 126.224,-123.249
 L 126.214,-123.244 L 119.211,-120.521 L 119.202,-120.518 L 111.557,-118.416 L 111.547,-118.414 L 103.235,-116.965
 L 103.226,-116.964 L 94.2195,-116.2 z
M 370.781,-11.339 L 372.655,-11.9992 L 374.233,-13.2062 L 375.361,-14.8417 L 375.928,-16.7457 L 376.511,-21.1223
 L 377.089,-25.5205 L 377.092,-25.5426 L 377.657,-29.9585 L 377.661,-29.9905 L 378.209,-34.453 L 378.213,-34.4936
 L 378.739,-39.0198 L 378.745,-39.0675 L 379.245,-43.6734 L 379.25,-43.7268 L 379.72,-48.4274 L 379.726,-48.4848
 L 380.162,-53.294 L 380.167,-53.3542 L 380.568,-58.2848 L 380.573,-58.3463 L 380.934,-63.4099 L 380.938,-63.4718
 L 381.259,-68.679 L 381.263,-68.7401 L 381.541,-74.1004 L 381.544,-74.1602 L 381.779,-79.6822 L 381.781,-79.7399
 L 381.971,-85.4313 L 381.973,-85.4865 L 382.118,-91.3543 L 382.119,-91.4066 L 382.218,-97.4569 L 382.219,-97.506
 L 382.273,-103.745 L 382.274,-103.79 L 382.284,-110.222 L 382.283,-110.264 L 382.25,-116.893 L 382.25,-116.931
 L 382.174,-123.719 L 382.183,-123.782 L 382.159,-125.456 L 382.131,-127.135 L 382.101,-128.809 L 382.069,-130.476
 L 382.035,-132.138 L 381.999,-133.794 L 381.961,-135.443 L 381.922,-137.086 L 381.882,-138.722 L 381.841,-140.352
 L 381.8,-141.975 L 381.759,-143.589 L 381.719,-145.198 L 381.679,-146.799 L 381.642,-148.383 L 381.606,-149.972
 L 381.574,-151.546 L 381.546,-153.104 L 381.522,-154.661 L 381.504,-156.218 L 381.497,-156.264 L 381.492,-162.288
 L 381.627,-168.216 L 381.978,-173.936 L 382.63,-179.416 L 383.665,-184.623 L 385.15,-189.532 L 387.122,-194.123
 L 389.59,-198.377 L 392.539,-202.277 L 395.943,-205.808 L 399.768,-208.963 L 403.979,-211.739 L 408.549,-214.137
 L 413.453,-216.163 L 418.679,-217.824 L 424.219,-219.126 L 430.071,-220.073 L 436.238,-220.667 L 442.724,-220.906
 L 449.701,-220.778 L 451.509,-221.006 L 453.317,-221.829 L 454.783,-223.17 L 455.763,-224.898 L 456.161,-226.844
 L 459.214,-295.356 L 458.926,-297.548 L 458.04,-299.326 L 456.647,-300.743 L 454.885,-301.661 L 452.926,-301.989
 L 443.887,-302.068 L 443.4,-302.054 L 434.982,-301.481 L 434.464,-301.424 L 426.624,-300.239 L 426.093,-300.135
 L 418.786,-298.383 L 418.265,-298.235 L 411.437,-295.967 L 410.951,-295.783 L 404.54,-293.054 L 404.113,-292.853
 L 398.046,-289.72 L 397.695,-289.524 L 391.892,-286.044 L 391.623,-285.874 L 385.996,-282.104 L 385.806,-281.971
 L 380.271,-277.962 L 380.145,-277.869 L 374.627,-273.661 L 374.547,-273.599 L 368.989,-269.219 L 368.932,-269.174
 L 363.3,-264.63 L 363.246,-264.586 L 357.531,-259.871 L 357.466,-259.818 L 351.677,-254.911 L 351.594,-254.84
 L 345.754,-249.715 L 345.652,-249.624 L 339.792,-244.254 L 339.673,-244.143 L 333.827,-238.505 L 333.696,-238.375
 L 327.902,-232.45 L 327.76,-232.301 L 322.054,-226.076 L 321.957,-225.908 L 321.929,-225.932 L 318.203,-221.614
 L 318.1,-221.492 L 314.437,-217.024 L 314.332,-216.893 L 310.75,-212.281 L 310.644,-212.141 L 307.154,-207.383
 L 307.048,-207.234 L 303.663,-202.328 L 303.557,-202.17 L 300.288,-197.115 L 300.182,-196.946 L 297.043,-191.741
 L 296.939,-191.562 L 293.941,-186.205 L 293.839,-186.016 L 290.996,-180.506 L 290.898,-180.306 L 288.223,-174.643
 L 288.128,-174.432 L 285.634,-168.614 L 285.545,-168.394 L 283.246,-162.42 L 283.162,-162.189 L 281.071,-156.059
 L 280.994,-155.819 L 279.124,-149.532 L 279.056,-149.283 L 277.421,-142.839 L 277.361,-142.583 L 275.975,-135.981
 L 275.926,-135.717 L 274.802,-128.957 L 274.763,-128.688 L 273.916,-121.77 L 273.889,-121.496 L 273.331,-114.42
 L 273.315,-114.144 L 273.062,-106.914 L 273.098,-106.913 L 273.049,-106.565 L 273.231,-97.3739 L 273.256,-96.9195
 L 274.039,-88.3789 L 274.104,-87.8836 L 275.464,-79.9682 L 275.578,-79.4378 L 277.49,-72.1222 L 277.662,-71.5672
 L 280.101,-64.8262 L 280.337,-64.2616 L 283.279,-58.0696 L 283.578,-57.5139 L 286.998,-51.8451 L 287.354,-51.3179
 L 291.229,-46.1465 L 291.628,-45.6648 L 295.934,-40.965 L 296.361,-40.5409 L 301.074,-36.2868 L 301.512,-35.9262
 L 306.608,-32.0922 L 307.039,-31.7948 L 312.495,-28.3555 L 312.908,-28.1165 L 318.699,-25.0468 L 319.085,-24.8588
 L 325.19,-22.1344 L 325.544,-21.989 L 331.937,-19.5862 L 332.258,-19.4754 L 338.916,-17.3714 L 339.204,-17.2878
 L 346.104,-15.4609 L 346.362,-15.3985 L 353.479,-13.8283 L 353.708,-13.7822 L 361.018,-12.4496 L 361.222,-12.4158
 L 368.699,-11.3035 z
M 362.156,-18.6967 L 354.847,-20.0292 L 347.73,-21.5994 L 340.83,-23.4263 L 334.171,-25.5303 L 327.778,-27.9331
 L 321.673,-30.6575 L 315.881,-33.7272 L 310.425,-37.1665 L 305.329,-41.0005 L 300.616,-45.2546 L 296.31,-49.9544
 L 292.435,-55.1258 L 289.014,-60.7946 L 286.073,-66.9866 L 283.634,-73.7276 L 281.722,-81.0431 L 280.362,-88.9586
 L 279.58,-97.4992 L 279.398,-106.69 L 279.408,-106.692 L 279.662,-113.921 L 280.219,-120.998 L 281.066,-127.916
 L 282.19,-134.676 L 283.576,-141.278 L 285.211,-147.722 L 287.081,-154.009 L 289.172,-160.139 L 291.471,-166.113
 L 293.965,-171.931 L 296.639,-177.595 L 299.482,-183.104 L 302.48,-188.461 L 305.62,-193.667 L 308.889,-198.721
 L 312.274,-203.627 L 315.765,-208.385 L 319.347,-212.997 L 323.011,-217.465 L 326.737,-221.783 L 326.735,-221.785
 L 332.441,-228.01 L 338.236,-233.935 L 344.081,-239.573 L 349.942,-244.942 L 355.782,-250.067 L 361.572,-254.973
 L 367.287,-259.688 L 372.919,-264.232 L 378.477,-268.612 L 383.996,-272.819 L 389.531,-276.828 L 395.157,-280.598
 L 400.961,-284.078 L 407.027,-287.211 L 413.439,-289.941 L 420.267,-292.208 L 427.574,-293.96 L 435.413,-295.145
 L 443.831,-295.718 L 452.87,-295.639 L 449.817,-227.127 L 442.665,-227.258 L 435.816,-227.006 L 429.258,-226.374
 L 422.984,-225.358 L 416.989,-223.95 L 411.275,-222.134 L 405.855,-219.895 L 400.749,-217.214 L 395.99,-214.078
 L 391.623,-210.476 L 387.704,-206.41 L 384.291,-201.899 L 381.438,-196.98 L 379.175,-191.712 L 377.498,-186.165
 L 376.353,-180.412 L 375.651,-174.506 L 375.282,-168.483 L 375.142,-162.359 L 375.147,-156.157 L 375.155,-156.146
 L 375.173,-154.576 L 375.197,-153.001 L 375.225,-151.42 L 375.258,-149.833 L 375.293,-148.241 L 375.331,-146.643
 L 375.371,-145.039 L 375.411,-143.429 L 375.452,-141.814 L 375.493,-140.193 L 375.534,-138.567 L 375.574,-136.935
 L 375.612,-135.298 L 375.65,-133.655 L 375.686,-132.007 L 375.72,-130.353 L 375.752,-128.695 L 375.782,-127.031
 L 375.809,-125.362 L 375.834,-123.688 L 375.824,-123.687 L 375.9,-116.861 L 375.934,-110.232 L 375.924,-103.8
 L 375.869,-97.5614 L 375.77,-91.511 L 375.625,-85.6433 L 375.435,-79.9519 L 375.2,-74.4299 L 374.921,-69.0696
 L 374.6,-63.8624 L 374.239,-58.7988 L 373.838,-53.8683 L 373.402,-49.0591 L 372.932,-44.3585 L 372.432,-39.7526
 L 371.906,-35.2265 L 371.358,-30.764 L 370.794,-26.3481 L 370.217,-21.961 L 369.634,-17.5844 z
" stroke="black" fill="lightgray" stroke-width="0.5"/>
</svg>
