<?xml version="1.0" encoding="UTF-8" standalone="no"?>
<!-- Created with Inkscape (http://www.inkscape.org/) -->

<svg
   xmlns:dc="http://purl.org/dc/elements/1.1/"
   xmlns:cc="http://creativecommons.org/ns#"
   xmlns:rdf="http://www.w3.org/1999/02/22-rdf-syntax-ns#"
   xmlns:svg="http://www.w3.org/2000/svg"
   xmlns="http://www.w3.org/2000/svg"
   xmlns:sodipodi="http://sodipodi.sourceforge.net/DTD/sodipodi-0.dtd"
   xmlns:inkscape="http://www.inkscape.org/namespaces/inkscape"
   width="8.5in"
   height="11in"
   viewBox="0 0 215.9 279.4"
   version="1.1"
   id="svg8"
   inkscape:version="0.92.5 (2060ec1f9f, 2020-04-08)"
   sodipodi:docname="heliwhopter.svg">
  <defs
     id="defs2" />
  <sodipodi:namedview
     id="base"
     pagecolor="#ffffff"
     bordercolor="#666666"
     borderopacity="1.0"
     inkscape:pageopacity="0.0"
     inkscape:pageshadow="2"
     inkscape:zoom="0.5"
     inkscape:cx="12.545351"
     inkscape:cy="537.30174"
     inkscape:document-units="mm"
     inkscape:current-layer="layer1"
     showgrid="true"
     inkscape:snap-center="true"
     inkscape:snap-grids="true"
     inkscape:snap-global="true"
     inkscape:window-width="1920"
     inkscape:window-height="1016"
     inkscape:window-x="0"
     inkscape:window-y="27"
     inkscape:window-maximized="1"
     units="in">
    <inkscape:grid
       type="xygrid"
       id="grid819"
       units="mm"
       spacingx="2"
       spacingy="2"
       empspacing="4" />
  </sodipodi:namedview>
  <metadata
     id="metadata5">
    <rdf:RDF>
      <cc:Work
         rdf:about="">
        <dc:format>image/svg+xml</dc:format>
        <dc:type
           rdf:resource="http://purl.org/dc/dcmitype/StillImage" />
        <dc:title></dc:title>
      </cc:Work>
    </rdf:RDF>
  </metadata>
  <g
     inkscape:label="Layer 1"
     inkscape:groupmode="layer"
     id="layer1"
     transform="translate(0,-17.6)">
    <g
       id="g927"
       transform="matrix(0.9,0,0,0.9,28.000082,48.499891)">
      <g
         transform="matrix(0.5,0,0,0.5,56,60.5)"
         id="g827">
        <path
           style="fill:none;stroke:#000000;stroke-width:0.26458332px;stroke-linecap:butt;stroke-linejoin:miter;stroke-opacity:1"
           d="m 128,113 -8,8 h -16 l -8,8"
           id="path821"
           inkscape:connector-curvature="0" />
        <path
           inkscape:connector-curvature="0"
           id="path823"
           d="m 120,137 -8,-8 v -16 l -8,-8"
           style="fill:none;stroke:#000000;stroke-width:0.26458332px;stroke-linecap:butt;stroke-linejoin:miter;stroke-opacity:1" />
      </g>
      <path
         id="path835"
         transform="scale(0.26458333)"
         d="m 415.18945,196.47266 c -12.0277,-0.25239 -18.95289,6.56117 -18.73633,18.41796 1.48519,-0.20725 2.83412,-0.37607 4.17774,-0.54296 v 2.30664 a 241.88976,241.88976 0 0 0 -22.38477,3.18554 l 14.82422,222.36524 H 182.17383 a 241.88976,241.88976 0 0 0 -0.37695,7.55859 h -1.9375 c 0.11344,-1.4589 0.22852,-2.92454 0.36914,-4.55273 -7.47063,-0.16554 -15.78877,6.70532 -17.47071,16.94726 -0.11599,0.70634 -0.19959,1.42882 -0.25,2.16602 -0.0252,0.3686 -0.0429,0.74132 -0.0508,1.11719 -0.2524,12.0277 6.56118,18.95094 18.41797,18.73437 -0.20724,-1.48503 -0.37608,-2.83228 -0.54297,-4.17578 h 2.30664 a 241.88976,241.88976 0 0 0 3.18555,22.38477 l 222.36523,-14.82618 v 210.89649 a 241.88976,241.88976 0 0 0 7.5586,0.3789 v 1.93555 c -1.4589,-0.11345 -2.92454,-0.22853 -4.55274,-0.36914 -0.18266,8.24345 8.20281,17.51901 20.23047,17.77149 12.02771,0.25239 18.95094,-6.55923 18.73438,-18.41602 -1.48503,0.20724 -2.83229,0.37608 -4.17578,0.54297 v -2.30664 a 241.88976,241.88976 0 0 0 22.38476,-3.18555 L 453.54297,472.44141 h 210.89648 a 241.88976,241.88976 0 0 0 0.37891,-7.5586 h 1.93555 c -0.11342,1.45847 -0.22858,2.92508 -0.36914,4.55274 8.24345,0.18266 17.51901,-8.20281 17.77148,-20.23047 0.2524,-12.02771 -6.55922,-18.9529 -18.41602,-18.73633 0.20726,1.48518 0.37608,2.83411 0.54297,4.17773 h -2.30664 a 241.88976,241.88976 0 0 0 -3.18554,-22.38476 L 438.42578,427.08594 V 216.18945 a 241.88976,241.88976 0 0 0 -7.56055,-0.3789 V 213.875 c 1.45903,0.11346 2.92634,0.22851 4.55469,0.36914 0.18267,-8.24345 -8.2028,-17.51912 -20.23047,-17.77148 z"
         style="fill:none;stroke:#000000;stroke-width:0.99999994px;stroke-linecap:butt;stroke-linejoin:miter;stroke-opacity:1"
         inkscape:connector-curvature="0" />
    </g>
    <g
       id="g937"
       transform="matrix(0,0.9,-0.9,0,260.96644,58.982733)">
      <path
         sodipodi:nodetypes="csssc"
         inkscape:connector-curvature="0"
         id="path844"
         transform="scale(0.26458333)"
         d="m -90.708984,457.32227 c 3.4e-5,136.32541 54.155108,267.06727 150.551729,363.46389 96.396625,96.39662 227.138485,150.5517 363.463895,150.55173 136.32541,-3e-5 267.06728,-54.1551 363.4639,-150.55172 96.39662,-96.39662 150.5517,-227.13849 150.55173,-363.4639"
         style="fill:none;fill-opacity:1;stroke:#ff0000;stroke-width:1.33333337;stroke-linecap:square;stroke-linejoin:round;stroke-miterlimit:4;stroke-dasharray:none;stroke-dashoffset:0;stroke-opacity:1" />
      <path
         id="path846"
         transform="scale(0.26458333)"
         d="m -120.91602,445.32812 c -9.28913,0.0476 -18.54921,3.21929 -14.39257,9.5625 0.42604,0.65015 -0.22341,1.57245 -0.19141,2.43165 h -15.68164 c -3e-5,152.36376 60.526215,298.48716 168.263671,406.22461 107.737449,107.73744 253.860839,168.26362 406.224609,168.26362 152.36377,0 298.48716,-60.52618 406.22461,-168.26362 107.73746,-107.73745 168.2637,-253.86085 168.26367,-406.22461 h -0.20898 c 1.1e-4,-15.11755 -60.47234,-15.11755 -60.26367,0 h -15.5 c 0.0113,-1.00415 -0.8453,-2.05785 -0.34961,-2.8125 4.04114,-6.15262 -5.27728,-9.2293 -14.56641,-9.18165 -9.28913,0.0476 -18.54923,3.21929 -14.39258,9.5625 0.42603,0.65012 -0.22353,1.57245 -0.1914,2.43165 h -15.47266 -0.20899 c 0,2.52223 0.0191,5.0419 0.0527,7.56054 h 0.0859 C 874.82148,582.4339 827.28171,694.75344 744.00977,778.02539 658.95398,863.08118 543.59369,910.86514 423.30664,910.86523 303.0196,910.86514 187.6593,863.08118 102.60352,778.02539 17.547736,692.96961 -30.236235,577.6093 -30.236328,457.32227 c 1.07e-4,-15.11754 -60.472334,-15.11754 -60.263672,0 H -106 c 0.0115,-1.00413 -0.84529,-2.05783 -0.34961,-2.8125 4.04116,-6.15263 -5.27727,-9.22929 -14.56641,-9.18165 z"
         style="fill:none;fill-opacity:1;stroke:#000000;stroke-width:1.33333337;stroke-linecap:square;stroke-linejoin:round;stroke-miterlimit:4;stroke-dasharray:none;stroke-dashoffset:0;stroke-opacity:1"
         inkscape:connector-curvature="0" />
      <path
         inkscape:transform-center-x="116.9054"
         inkscape:transform-center-y="50.458035"
         inkscape:connector-curvature="0"
         id="path866"
         d="m -7.6077621,168.50892 5.404725,5.89823"
         style="fill:none;stroke:#000000;stroke-width:0.26458332px;stroke-linecap:butt;stroke-linejoin:miter;stroke-opacity:1" />
      <path
         style="fill:none;stroke:#000000;stroke-width:0.26458332px;stroke-linecap:butt;stroke-linejoin:miter;stroke-opacity:1"
         d="m 61.01842,239.16934 7.992396,0.34896"
         id="path887"
         inkscape:connector-curvature="0"
         inkscape:transform-center-y="118.34382"
         inkscape:transform-center-x="46.985382" />
      <path
         inkscape:transform-center-x="-50.458035"
         inkscape:transform-center-y="116.9054"
         inkscape:connector-curvature="0"
         id="path889"
         d="m 159.50892,240.60776 5.89823,-5.40472"
         style="fill:none;stroke:#000000;stroke-width:0.26458332px;stroke-linecap:butt;stroke-linejoin:miter;stroke-opacity:1" />
      <path
         style="fill:none;stroke:#000000;stroke-width:0.26458332px;stroke-linecap:butt;stroke-linejoin:miter;stroke-opacity:1"
         d="m 230.16934,171.98158 0.34896,-7.99239"
         id="path891"
         inkscape:connector-curvature="0"
         inkscape:transform-center-y="46.985385"
         inkscape:transform-center-x="-118.34382" />
      <path
         inkscape:connector-curvature="0"
         id="path919"
         d="m 252,121 h 8"
         style="fill:none;stroke:#000000;stroke-width:0.26458332px;stroke-linecap:butt;stroke-linejoin:miter;stroke-opacity:1" />
      <path
         inkscape:connector-curvature="0"
         id="path921"
         d="m -20,121 h 8"
         style="fill:none;stroke:#000000;stroke-width:0.26458332px;stroke-linecap:butt;stroke-linejoin:miter;stroke-opacity:1" />
    </g>
  </g>
</svg>
