<?xml version="1.0" encoding="UTF-8" standalone="no"?>
<!-- Created with Inkscape (http://www.inkscape.org/) -->

<svg
   version="1.1"
   id="svg870"
   width="2867.0872"
   height="2245.9492"
   viewBox="0 0 2867.0872 2245.9492"
   sodipodi:docname="hutroof.svg"
   inkscape:version="1.1.2 (0a00cf5339, 2022-02-04)"
   xmlns:inkscape="http://www.inkscape.org/namespaces/inkscape"
   xmlns:sodipodi="http://sodipodi.sourceforge.net/DTD/sodipodi-0.dtd"
   xmlns="http://www.w3.org/2000/svg"
   xmlns:svg="http://www.w3.org/2000/svg">
  <defs
     id="defs874" />
  <sodipodi:namedview
     id="namedview872"
     pagecolor="#ffffff"
     bordercolor="#666666"
     borderopacity="1.0"
     inkscape:pageshadow="2"
     inkscape:pageopacity="0.0"
     inkscape:pagecheckerboard="0"
     showgrid="false"
     inkscape:zoom="0.15494792"
     inkscape:cx="1135.8655"
     inkscape:cy="1990.9916"
     inkscape:window-width="1920"
     inkscape:window-height="1016"
     inkscape:window-x="0"
     inkscape:window-y="0"
     inkscape:window-maximized="1"
     inkscape:current-layer="g876"
     fit-margin-top="0"
     fit-margin-left="0"
     fit-margin-right="0"
     fit-margin-bottom="0" />
  <g
     inkscape:groupmode="layer"
     inkscape:label="Image"
     id="g876"
     transform="translate(1608.384,-1462.8348)">
    <path
       id="path3595"
       style="fill:none;fill-opacity:1;stroke:#0e0000;stroke-width:3.77953;stroke-linecap:butt;stroke-linejoin:miter;stroke-miterlimit:4;stroke-dasharray:none;stroke-opacity:1"
       d="m -172.66602,1464.7246 c -5.52694,24.9802 -11.67525,50.5473 -18.11718,76.3906 h 50.36328 c -7.35028,-25.9059 -14.28789,-51.4212 -20.65625,-76.3906 z m -22.44726,94.6445 c -6.3702,24.9048 -13.77522,50.6242 -20.97852,76.2305 h 104.28516 c -8.08593,-25.5901 -16.46781,-51.3988 -23.67774,-76.2305 z m 10.82617,94.4239 v 76.3379 h 103.552735 c -8.944957,-25.8589 -17.211733,-51.1246 -25.328125,-76.3379 z m -37.0293,0.2402 c -7.24825,25.2277 -14.37658,50.3003 -22.41992,76.1191 h 52.92969 v -76.1191 z m -28.39257,94.3418 c -7.98236,25.1738 -16.24331,50.522 -24.97071,76.1777 h 227.765628 c -9.639307,-25.7712 -18.416766,-50.9406 -27.285157,-76.1777 z m -30.9336,94.3711 c -8.6971,25.1608 -18.40591,50.824 -27.81054,76.375 h 177.10546 v -76.375 z m 155.32813,0.2383 v 76.1582 H -9.8085938 c -10.1951032,-25.4293 -20.9151132,-51.1594 -30.4003902,-76.1582 z m -189.75,93.9511 c -9.52167,25.5084 -18.6499,50.7879 -28.86914,76.6153 h 43.60937 v -76.6153 z m 19.48828,0.4375 v 76.2168 H 23.123047 v -13.5097 C 14.174578,1978.9514 5.9475226,1958.2546 -2.53125,1937.373 Z m 324.123045,75.045 v 1.1504 h 0.505859 c -0.162703,-0.3809 -0.343307,-0.7697 -0.505859,-1.1504 z m -380.044925,19.3652 c -10.14025,25.2919 -20.86702,50.7894 -31.66992,76.3223 h 171.28516 v -76.3223 z m 146.86719,0.2383 v 76.1035 H 70.623047 c -11.579364,-25.5546 -22.533808,-50.833 -33.457031,-76.1035 z m 184.638672,94.0879 v 76.3789 H 114.96484 c -12.20965,-25.4941 -24.857078,-51.1028 -36.435543,-76.3789 z m -370.744142,0.2383 c -6.07263,14.1735 -11.93954,28.239 -18.21484,42.4707 v 33.6933 h 382.439451 v -76.164 z m -23.92383,54.8828 c -3.13648,7.0549 -6.58344,14.1732 -9.76953,21.2402 h 9.76953 z m 524.42969,38.9394 v 76.3555 h 50.9375 c -12.92661,-25.5995 -24.93637,-50.9147 -37.24414,-76.3555 z m -312.01562,0.014 v 76.3437 h 305.94531 v -76.3437 z m -230.44141,0.2383 c -11.56939,25.3624 -22.81099,50.6519 -35.01562,76.1269 h 257.99609 v -76.1269 z m 439.0625,93.916 v 76.584 h 192.68555 v -21.0293 c -9.73957,-18.5327 -19.61959,-37.0781 -29.04102,-55.5547 z m -482.57617,0.1992 c -12.3201,25.4243 -25.80865,50.9254 -38.75781,76.4024 h 115.29296 v -76.4024 z m 83.24414,0.2402 v 76.1836 H 0.5 v -76.1836 z m 596.64062,63.959 v 12.2012 h 6.37891 c -2.16544,-4.074 -4.22872,-8.1292 -6.37891,-12.2012 z m -306.5,30.4141 v 71.8359 l 4.548832,4.4532 H 261.66016 c -14.23549,-25.468 -28.43138,-50.8643 -42.07813,-76.2891 z m -421.5039,0.2402 c -13.0488,25.3815 -25.96065,50.6955 -39.63086,76.0703 h 310.93359 l 73,-76.0703 z m 348.39062,0 64.14844,62.8164 v -62.8164 z m 323.4668,93.8516 v 76.5293 h 167.61914 c -14.98063,-25.5041 -29.00326,-51.013 -43.40039,-76.5293 z m -721.52149,0.2012 c -13.88117,25.4843 -28.09194,50.9271 -42.59765,76.3457 h 273.04297 l 3.79883,-3.959 v -72.3867 z m 242.3086,0.2382 v 63.7461 l 61.17187,-63.7461 z m 252.037108,0 77.7441408,76.1309 H 140.47656 v -76.1309 z m 185.587892,93.834 v 76.3633 h 266.59961 c -15.70757,-25.452 -31.79554,-50.8433 -46.92578,-76.3633 z m -97.0449231,0.012 0.6191406,76.3536 H 97.070312 v -76.3536 z m -635.5175769,0.2403 c -14.67316,25.4319 -29.38878,50.8263 -44.68555,76.1328 h 311.38086 v -76.1328 z m 636.2812488,93.9336 0.6210932,76.5937 H 236.12109 v -76.5937 z m 233.2187512,0.1875 v 76.4218 h 189.0664 c -16.48746,-25.4159 -32.4254,-50.8807 -48.33789,-76.4218 z m -924.96484,0.014 c -15.6231,25.5625 -31.56576,51.0374 -47.82422,76.4102 h 93.00195 v -76.4102 z m 54.98828,0.2383 v 76.1914 h 275.49609 l -2.23242,-76.1914 z m 969.0332,94.3809 v 76.3086 h 152.96289 c -17.2852,-25.3282 -34.11247,-50.7963 -50.82422,-76.3086 z m -331.50586,0.012 0.619141,76.2969 H 331.27344 v -76.2969 z m -752.3418,0.2402 c -16.52123,25.4867 -33.36516,50.8466 -50.52734,76.0782 h 443.60742 l -2.22851,-76.0782 z m 902.92188,93.8692 v 76.541 h 337.125 v -76.541 z m 345.25586,0.1894 v 76.3672 h 54.19336 c -18.19437,-25.3152 -35.95656,-50.8046 -53.57227,-76.3672 z m -1311.13282,0.012 c -17.62839,25.6189 -35.5891,51.0667 -53.8789,76.3554 h 309.2168 v -76.3554 z m 267.125,0.2402 v 76.1367 h 191.67579 l -2.23047,-76.1367 z m 548.939458,0 0.617188,76.1367 H 150.69531 v -76.1367 z m -883.150388,94.3262 c -18.77833,25.6521 -37.88133,51.1071 -57.3418,76.3476 h 325.57617 v -76.3476 z m 278.10742,0.012 v 76.3359 h 495.648437 v -28.7246 l -245.935547,0.1895 -1.40039,-47.8008 z m 605.810546,0.2402 0.382813,47.2871 -98.417969,0.076 v 28.7539 h 708.26758 v -10.5273 c -16.38041,-21.7318 -32.46389,-43.628 -48.41211,-65.5899 z m -760.316406,93.916 v 76.5781 h 312.1543 v -76.5781 z m -194.66797,0.1895 c -20.08135,25.7234 -40.54347,51.188 -61.33598,76.4062 h 248.48051 v -76.4062 z m 1164.71484,0.012 v 76.3945 h 446.07813 v -45.7226 c -7.94312,-10.1794 -15.766,-20.4325 -23.61328,-30.6719 z m -648.33984,0.2402 v 76.1758 h 637.43164 v -76.1758 z m 1103.29883,41.9668 v 34.1875 h 27.41797 c -9.14043,-11.3965 -18.39917,-22.7081 -27.41797,-34.1875 z m -58.68555,52.2071 v 76.4668 h 164.05469 c -21.47408,-25.2414 -42.61011,-50.7462 -63.4668,-76.4668 z m -1637.69926,0.1894 c -21.5148,25.7445 -43.4273,51.1608 -65.6875,76.293 h 219.47856 v -76.293 z m 165.65239,0.014 v 76.2812 h 594.78515 v -76.2812 z m 609.35156,0.2383 v 76.0625 h 849.9375 v -76.0625 z m -794.76565,93.8535 v 76.5254 h 374.58596 v -76.5254 z m -61.959,0.1894 c -23.1814,25.8034 -46.7028,51.2897 -70.6757,76.3516 h 123.5937 v -76.3516 z m 1772.02543,0 v 76.3516 h 194.21875 c -22.80828,-25.1791 -45.36626,-50.594 -67.53516,-76.3516 z m -545.9707,0.012 v 76.3398 h 535.30078 v -76.3398 z m -778.03516,0.2402 v 76.1211 h 764.9336 v -76.1211 z m -535.36327,93.6015 c -25.2333,25.9884 -51.015,51.406 -77.1074,76.4864 h 123.4062 v -76.4864 z m 1572.96483,0.1876 v 76.3144 h 568.87891 c -24.31762,-25.0931 -48.30725,-50.5265 -71.95703,-76.3144 z m -624.12695,0.014 v 76.3028 h 611.92188 v -76.3028 z m -889.41208,0.2403 v 76.082 h 874.4238 v -76.082 z m 1306.71286,93.8808 v 76.5449 h 385.375 v -76.5449 z m 394.67969,0.1875 v 76.375 h 475.50585 c -26.0778,-24.9927 -51.69246,-50.5455 -77.06444,-76.375 z m -1856.98045,0 c -27.5031,25.9857 -55.414,51.4943 -83.8516,76.373 h 172.1914 v -76.373 z m 99.3183,0.012 v 76.3613 h 550.7227 v -76.3613 z m 564.20317,0.2402 v 76.1406 h 786.9707 v -76.1406 z m -767.87497,94.1387 c -30.5808,26.2448 -61.8577,51.5858 -93.4961,76.4336 h 358.6426 v -76.4336 z m 2097.22262,0.1894 v 76.2598 h 442.75588 c -28.2494,-24.9232 -56.1536,-50.3155 -83.6426,-76.2598 z m -748.978514,0.014 v 76.2481 H 693.25977 v -76.2481 z m -1067.330106,0.2403 v 76.0273 H -59.056641 v -76.0273 z m 1568.10745,93.8164 v 69.9316 l 462.45508,-0.2832 v -69.6484 z m -1965.66795,0.1894 c -31.6838,24.3289 -63.693,48.1976 -96.4141,71.0078 l 413.2598,-0.2539 v -70.7539 z m 2439.30076,0 v 69.4531 l 320.01754,-0.1972 c -27.8139,-22.5152 -55.1806,-45.7161 -82.3144,-69.2559 z m -2109.26756,0.014 v 70.7324 l 660.87694,-0.4062 v -70.3262 z m 677.06834,0.2402 v 70.0762 l 944.38282,-0.5781 v -69.4981 z" />
  </g>
</svg>
