  0
SECTION
  2
HEADER
  9
$ACADVER
  1
AC1014
  9
$HANDSEED
  5
FFFF
  9
$MEASUREMENT
 70
     1
  0
ENDSEC
  0
SECTION
  2
TABLES
  0
TABLE
  2
VPORT
  5
8
330
0
100
AcDbSymbolTable
 70
     4
  0
VPORT
  5
2E
330
8
100
AcDbSymbolTableRecord
100
AcDbViewportTableRecord
  2
*ACTIVE
 70
     0
 10
0.0
 20
0.0
 11
1.0
 21
1.0
 12
210.0
 22
148.5
 13
0.0
 23
0.0
 14
10.0
 24
10.0
 15
10.0
 25
10.0
 16
0.0
 26
0.0
 36
1.0
 17
0.0
 27
0.0
 37
0.0
 40
341.0
 41
1.24
 42
50.0
 43
0.0
 44
0.0
 50
0.0
 51
0.0
 71
     0
 72
   100
 73
     1
 74
     3
 75
     0
 76
     0
 77
     0
 78
     0
  0
ENDTAB
  0
TABLE
  2
LTYPE
  5
5
330
0
100
AcDbSymbolTable
 70
     1
  0
LTYPE
  5
14
330
5
100
AcDbSymbolTableRecord
100
AcDbLinetypeTableRecord
  2
BYBLOCK
 70
     0
  3

 72
    65
 73
     0
 40
0.0
  0
LTYPE
  5
15
330
5
100
AcDbSymbolTableRecord
100
AcDbLinetypeTableRecord
  2
BYLAYER
 70
     0
  3

 72
    65
 73
     0
 40
0.0
  0
LTYPE
  5
16
330
5
100
AcDbSymbolTableRecord
100
AcDbLinetypeTableRecord
  2
CONTINUOUS
 70
     0
  3
Solid line
 72
    65
 73
     0
 40
0.0
  0
ENDTAB
  0
TABLE
  2
LAYER
  5
2
100
AcDbSymbolTable
 70
2
  0
LAYER
  5
50
100
AcDbSymbolTableRecord
100
AcDbLayerTableRecord
  2
0
 70
0
  6
CONTINUOUS
  0
LAYER
  5
51
100
AcDbSymbolTableRecord
100
AcDbLayerTableRecord
  2
Layer_1
 70
0
  6
CONTINUOUS
  0
ENDTAB
  0
TABLE
  2
STYLE
  5
3
330
0
100
AcDbSymbolTable
 70
     1
  0
STYLE
  5
11
330
3
100
AcDbSymbolTableRecord
100
AcDbTextStyleTableRecord
  2
STANDARD
 70
     0
 40
0.0
 41
1.0
 50
0.0
 71
     0
 42
2.5
  3
txt
  4

  0
ENDTAB
  0
TABLE
  2
VIEW
  5
6
330
0
100
AcDbSymbolTable
 70
     0
  0
ENDTAB
  0
TABLE
  2
UCS
  5
7
330
0
100
AcDbSymbolTable
 70
     0
  0
ENDTAB
  0
TABLE
  2
APPID
  5
9
330
0
100
AcDbSymbolTable
 70
     2
  0
APPID
  5
12
330
9
100
AcDbSymbolTableRecord
100
AcDbRegAppTableRecord
  2
ACAD
 70
     0
  0
ENDTAB
  0
TABLE
  2
DIMSTYLE
  5
A
330
0
100
AcDbSymbolTable
 70
     1
  0
DIMSTYLE
105
27
330
A
100
AcDbSymbolTableRecord
100
AcDbDimStyleTableRecord
  2
ISO-25
 70
     0
  3

  4

  5

  6

  7

 40
1.0
 41
2.5
 42
0.625
 43
3.75
 44
1.25
 45
0.0
 46
0.0
 47
0.0
 48
0.0
140
2.5
141
2.5
142
0.0
143
0.03937007874016
144
1.0
145
0.0
146
1.0
147
0.625
 71
     0
 72
     0
 73
     0
 74
     0
 75
     0
 76
     0
 77
     1
 78
     8
170
     0
171
     3
172
     1
173
     0
174
     0
175
     0
176
     0
177
     0
178
     0
270
     2
271
     2
272
     2
273
     2
274
     3
340
11
275
     0
280
     0
281
     0
282
     0
283
     0
284
     8
285
     0
286
     0
287
     3
288
     0
  0
ENDTAB
  0
TABLE
  2
BLOCK_RECORD
  5
1
330
0
100
AcDbSymbolTable
 70
     1
  0
BLOCK_RECORD
  5
1F
330
1
100
AcDbSymbolTableRecord
100
AcDbBlockTableRecord
  2
*MODEL_SPACE
  0
BLOCK_RECORD
  5
1B
330
1
100
AcDbSymbolTableRecord
100
AcDbBlockTableRecord
  2
*PAPER_SPACE
  0
ENDTAB
  0
ENDSEC
  0
SECTION
  2
BLOCKS
  0
BLOCK
  5
20
330
1F
100
AcDbEntity
  8
0
100
AcDbBlockBegin
  2
*MODEL_SPACE
 70
     0
 10
0.0
 20
0.0
 30
0.0
  3
*MODEL_SPACE
  1

  0
ENDBLK
  5
21
330
1F
100
AcDbEntity
  8
0
100
AcDbBlockEnd
  0
BLOCK
  5
1C
330
1B
100
AcDbEntity
 67
     1
  8
0
100
AcDbBlockBegin
  2
*PAPER_SPACE
  1

  0
ENDBLK
  5
1D
330
1B
100
AcDbEntity
 67
     1
  8
0
100
AcDbBlockEnd
  0
ENDSEC
  0
SECTION
  2
ENTITIES
  0
SPLINE
  5
100
100
AcDbEntity
  8
Layer_1
 62
3
100
AcDbSpline
 70
8
 71
3
 72
8
 73
4
 74
0
 40
0
 40
0
 40
0
 40
0
 40
1
 40
1
 40
1
 40
1
 10
415.856041
 20
541.239449
 30
0.0
 10
436.741455
 20
538.394513
 30
0.0
 10
453.651987
 20
535.865046
 30
0.0
 10
467.097392
 20
533.610595
 30
0.0
  0
SPLINE
  5
101
100
AcDbEntity
  8
Layer_1
 62
3
100
AcDbSpline
 70
8
 71
3
 72
8
 73
4
 74
0
 40
0
 40
0
 40
0
 40
0
 40
1
 40
1
 40
1
 40
1
 10
467.097392
 20
533.610595
 30
0.0
 10
480.542825
 20
531.356145
 30
0.0
 10
490.523102
 20
529.376683
 30
0.0
 10
497.547978
 20
527.631789
 30
0.0
  0
SPLINE
  5
102
100
AcDbEntity
  8
Layer_1
 62
3
100
AcDbSpline
 70
8
 71
3
 72
8
 73
4
 74
0
 40
0
 40
0
 40
0
 40
0
 40
1
 40
1
 40
1
 40
1
 10
497.547978
 20
527.631789
 30
0.0
 10
504.572825
 20
525.886923
 30
0.0
 10
508.642299
 20
524.376567
 30
0.0
 10
510.266098
 20
523.060356
 30
0.0
  0
SPLINE
  5
103
100
AcDbEntity
  8
Layer_1
 62
3
100
AcDbSpline
 70
8
 71
3
 72
8
 73
4
 74
0
 40
0
 40
0
 40
0
 40
0
 40
1
 40
1
 40
1
 40
1
 10
510.266098
 20
523.060356
 30
0.0
 10
511.889868
 20
521.744117
 30
0.0
 10
511.067962
 20
520.621994
 30
0.0
 10
508.310135
 20
519.653509
 30
0.0
  0
SPLINE
  5
104
100
AcDbEntity
  8
Layer_1
 62
3
100
AcDbSpline
 70
8
 71
3
 72
8
 73
4
 74
0
 40
0
 40
0
 40
0
 40
0
 40
1
 40
1
 40
1
 40
1
 10
508.310135
 20
519.653509
 30
0.0
 10
505.552280
 20
518.685024
 30
0.0
 10
500.858476
 20
517.870176
 30
0.0
 10
494.738447
 20
517.168545
 30
0.0
  0
SPLINE
  5
105
100
AcDbEntity
  8
Layer_1
 62
3
100
AcDbSpline
 70
8
 71
3
 72
8
 73
4
 74
0
 40
0
 40
0
 40
0
 40
0
 40
1
 40
1
 40
1
 40
1
 10
494.738447
 20
517.168545
 30
0.0
 10
488.618391
 20
516.466885
 30
0.0
 10
481.072139
 20
515.878441
 30
0.0
 10
472.609361
 20
515.362734
 30
0.0
  0
SPLINE
  5
106
100
AcDbEntity
  8
Layer_1
 62
3
100
AcDbSpline
 70
8
 71
3
 72
8
 73
4
 74
0
 40
0
 40
0
 40
0
 40
0
 40
1
 40
1
 40
1
 40
1
 10
472.609361
 20
515.362734
 30
0.0
 10
464.146611
 20
514.847027
 30
0.0
 10
454.767335
 20
514.404057
 30
0.0
 10
444.981288
 20
513.993345
 30
0.0
  0
SPLINE
  5
107
100
AcDbEntity
  8
Layer_1
 62
3
100
AcDbSpline
 70
8
 71
3
 72
8
 73
4
 74
0
 40
0
 40
0
 40
0
 40
0
 40
1
 40
1
 40
1
 40
1
 10
444.981288
 20
513.993345
 30
0.0
 10
435.195241
 20
513.582661
 30
0.0
 10
425.002422
 20
513.204265
 30
0.0
 10
414.912557
 20
512.817676
 30
0.0
  0
SPLINE
  5
108
100
AcDbEntity
  8
Layer_1
 62
3
100
AcDbSpline
 70
8
 71
3
 72
8
 73
4
 74
0
 40
0
 40
0
 40
0
 40
0
 40
1
 40
1
 40
1
 40
1
 10
414.912557
 20
512.817676
 30
0.0
 10
439.928872
 20
507.447071
 30
0.0
 10
459.048643
 20
503.067090
 30
0.0
 10
473.305068
 20
499.504167
 30
0.0
  0
SPLINE
  5
109
100
AcDbEntity
  8
Layer_1
 62
3
100
AcDbSpline
 70
8
 71
3
 72
8
 73
4
 74
0
 40
0
 40
0
 40
0
 40
0
 40
1
 40
1
 40
1
 40
1
 10
473.305068
 20
499.504167
 30
0.0
 10
487.561465
 20
495.941244
 30
0.0
 10
496.954517
 20
493.195351
 30
0.0
 10
502.517310
 20
491.092951
 30
0.0
  0
SPLINE
  5
10a
100
AcDbEntity
  8
Layer_1
 62
3
100
AcDbSpline
 70
8
 71
3
 72
8
 73
4
 74
0
 40
0
 40
0
 40
0
 40
0
 40
1
 40
1
 40
1
 40
1
 10
502.517310
 20
491.092951
 30
0.0
 10
508.080132
 20
488.990523
 30
0.0
 10
509.812724
 20
487.531616
 30
0.0
 10
508.748230
 20
486.542580
 30
0.0
  0
SPLINE
  5
10b
100
AcDbEntity
  8
Layer_1
 62
3
100
AcDbSpline
 70
8
 71
3
 72
8
 73
4
 74
0
 40
0
 40
0
 40
0
 40
0
 40
1
 40
1
 40
1
 40
1
 10
508.748230
 20
486.542580
 30
0.0
 10
507.683735
 20
485.553572
 30
0.0
 10
503.822126
 20
485.034463
 30
0.0
 10
498.196602
 20
484.811688
 30
0.0
  0
SPLINE
  5
10c
100
AcDbEntity
  8
Layer_1
 62
3
100
AcDbSpline
 70
8
 71
3
 72
8
 73
4
 74
0
 40
0
 40
0
 40
0
 40
0
 40
1
 40
1
 40
1
 40
1
 10
498.196602
 20
484.811688
 30
0.0
 10
492.571077
 20
484.588885
 30
0.0
 10
485.181609
 20
484.662586
 30
0.0
 10
477.061370
 20
484.858743
 30
0.0
  0
SPLINE
  5
10d
100
AcDbEntity
  8
Layer_1
 62
3
100
AcDbSpline
 70
8
 71
3
 72
8
 73
4
 74
0
 40
0
 40
0
 40
0
 40
0
 40
1
 40
1
 40
1
 40
1
 10
477.061370
 20
484.858743
 30
0.0
 10
468.941102
 20
485.055184
 30
0.0
 10
460.090035
 20
485.374195
 30
0.0
 10
451.541310
 20
485.642523
 30
0.0
  0
SPLINE
  5
10e
100
AcDbEntity
  8
Layer_1
 62
3
100
AcDbSpline
 70
8
 71
3
 72
8
 73
4
 74
0
 40
0
 40
0
 40
0
 40
0
 40
1
 40
1
 40
1
 40
1
 10
451.541310
 20
485.642523
 30
0.0
 10
442.992614
 20
485.910964
 30
0.0
 10
434.746233
 20
486.128409
 30
0.0
 10
427.835367
 20
486.121578
 30
0.0
  0
SPLINE
  5
10f
100
AcDbEntity
  8
Layer_1
 62
3
100
AcDbSpline
 70
8
 71
3
 72
8
 73
4
 74
0
 40
0
 40
0
 40
0
 40
0
 40
1
 40
1
 40
1
 40
1
 10
427.835367
 20
486.121578
 30
0.0
 10
420.924472
 20
486.115909
 30
0.0
 10
415.349093
 20
485.883468
 30
0.0
 10
412.142343
 20
485.254432
 30
0.0
  0
SPLINE
  5
110
100
AcDbEntity
  8
Layer_1
 62
3
100
AcDbSpline
 70
8
 71
3
 72
8
 73
4
 74
0
 40
0
 40
0
 40
0
 40
0
 40
1
 40
1
 40
1
 40
1
 10
412.142343
 20
485.254432
 30
0.0
 10
436.546120
 20
478.733017
 30
0.0
 10
455.379817
 20
473.439628
 30
0.0
 10
469.579493
 20
469.167931
 30
0.0
  0
SPLINE
  5
111
100
AcDbEntity
  8
Layer_1
 62
3
100
AcDbSpline
 70
8
 71
3
 72
8
 73
4
 74
0
 40
0
 40
0
 40
0
 40
0
 40
1
 40
1
 40
1
 40
1
 10
469.579493
 20
469.167931
 30
0.0
 10
483.779169
 20
464.896233
 30
0.0
 10
493.344794
 20
461.646227
 30
0.0
 10
499.212425
 20
459.211493
 30
0.0
  0
SPLINE
  5
112
100
AcDbEntity
  8
Layer_1
 62
3
100
AcDbSpline
 70
8
 71
3
 72
8
 73
4
 74
0
 40
0
 40
0
 40
0
 40
0
 40
1
 40
1
 40
1
 40
1
 10
499.212425
 20
459.211493
 30
0.0
 10
505.080085
 20
456.776787
 30
0.0
 10
507.249751
 20
455.157383
 30
0.0
 10
506.657509
 20
454.146888
 30
0.0
  0
SPLINE
  5
113
100
AcDbEntity
  8
Layer_1
 62
3
100
AcDbSpline
 70
8
 71
3
 72
8
 73
4
 74
0
 40
0
 40
0
 40
0
 40
0
 40
1
 40
1
 40
1
 40
1
 10
506.657509
 20
454.146888
 30
0.0
 10
506.065238
 20
453.136394
 30
0.0
 10
502.711058
 20
452.734838
 30
0.0
 10
497.530998
 20
452.735858
 30
0.0
  0
SPLINE
  5
114
100
AcDbEntity
  8
Layer_1
 62
3
100
AcDbSpline
 70
8
 71
3
 72
8
 73
4
 74
0
 40
0
 40
0
 40
0
 40
0
 40
1
 40
1
 40
1
 40
1
 10
497.530998
 20
452.735858
 30
0.0
 10
492.350939
 20
452.736850
 30
0.0
 10
485.344998
 20
453.140391
 30
0.0
 10
477.449235
 20
453.740145
 30
0.0
  0
SPLINE
  5
115
100
AcDbEntity
  8
Layer_1
 62
3
100
AcDbSpline
 70
8
 71
3
 72
8
 73
4
 74
0
 40
0
 40
0
 40
0
 40
0
 40
1
 40
1
 40
1
 40
1
 10
477.449235
 20
453.740145
 30
0.0
 10
469.553499
 20
454.339871
 30
0.0
 10
460.767912
 20
455.135783
 30
0.0
 10
452.028557
 20
455.921518
 30
0.0
  0
SPLINE
  5
116
100
AcDbEntity
  8
Layer_1
 62
3
100
AcDbSpline
 70
8
 71
3
 72
8
 73
4
 74
0
 40
0
 40
0
 40
0
 40
0
 40
1
 40
1
 40
1
 40
1
 10
452.028557
 20
455.921518
 30
0.0
 10
443.289203
 20
456.707254
 30
0.0
 10
434.596082
 20
457.482784
 30
0.0
 10
426.885222
 20
458.041748
 30
0.0
  0
SPLINE
  5
117
100
AcDbEntity
  8
Layer_1
 62
3
100
AcDbSpline
 70
8
 71
3
 72
8
 73
4
 74
0
 40
0
 40
0
 40
0
 40
0
 40
1
 40
1
 40
1
 40
1
 10
426.885222
 20
458.041748
 30
0.0
 10
419.174391
 20
458.600712
 30
0.0
 10
412.445820
 20
458.943109
 30
0.0
 10
407.635597
 20
458.862576
 30
0.0
  0
SPLINE
  5
118
100
AcDbEntity
  8
Layer_1
 62
3
100
AcDbSpline
 70
8
 71
3
 72
8
 73
4
 74
0
 40
0
 40
0
 40
0
 40
0
 40
1
 40
1
 40
1
 40
1
 10
407.635597
 20
458.862576
 30
0.0
 10
428.961373
 20
451.102450
 30
0.0
 10
445.865613
 20
444.719509
 30
0.0
 10
458.994728
 20
439.512435
 30
0.0
  0
SPLINE
  5
119
100
AcDbEntity
  8
Layer_1
 62
3
100
AcDbSpline
 70
8
 71
3
 72
8
 73
4
 74
0
 40
0
 40
0
 40
0
 40
0
 40
1
 40
1
 40
1
 40
1
 10
458.994728
 20
439.512435
 30
0.0
 10
472.123843
 20
434.305332
 30
0.0
 10
481.477833
 20
430.274126
 30
0.0
 10
487.703140
 20
427.217414
 30
0.0
  0
SPLINE
  5
11a
100
AcDbEntity
  8
Layer_1
 62
3
100
AcDbSpline
 70
8
 71
3
 72
8
 73
4
 74
0
 40
0
 40
0
 40
0
 40
0
 40
1
 40
1
 40
1
 40
1
 10
487.703140
 20
427.217414
 30
0.0
 10
493.928419
 20
424.160702
 30
0.0
 10
497.024986
 20
422.078542
 30
0.0
 10
497.639282
 20
420.769502
 30
0.0
  0
SPLINE
  5
11b
100
AcDbEntity
  8
Layer_1
 62
3
100
AcDbSpline
 70
8
 71
3
 72
8
 73
4
 74
0
 40
0
 40
0
 40
0
 40
0
 40
1
 40
1
 40
1
 40
1
 10
497.639282
 20
420.769502
 30
0.0
 10
498.253550
 20
419.460491
 30
0.0
 10
496.385518
 20
418.924658
 30
0.0
 10
492.681628
 20
418.960658
 30
0.0
  0
SPLINE
  5
11c
100
AcDbEntity
  8
Layer_1
 62
3
100
AcDbSpline
 70
8
 71
3
 72
8
 73
4
 74
0
 40
0
 40
0
 40
0
 40
0
 40
1
 40
1
 40
1
 40
1
 10
492.681628
 20
418.960658
 30
0.0
 10
488.977710
 20
418.996658
 30
0.0
 10
483.437906
 20
419.604491
 30
0.0
 10
476.708655
 20
420.582813
 30
0.0
  0
SPLINE
  5
11d
100
AcDbEntity
  8
Layer_1
 62
3
100
AcDbSpline
 70
8
 71
3
 72
8
 73
4
 74
0
 40
0
 40
0
 40
0
 40
0
 40
1
 40
1
 40
1
 40
1
 10
476.708655
 20
420.582813
 30
0.0
 10
469.979376
 20
421.561106
 30
0.0
 10
462.060652
 20
422.909943
 30
0.0
 10
453.598838
 20
424.427896
 30
0.0
  0
SPLINE
  5
11e
100
AcDbEntity
  8
Layer_1
 62
3
100
AcDbSpline
 70
8
 71
3
 72
8
 73
4
 74
0
 40
0
 40
0
 40
0
 40
0
 40
1
 40
1
 40
1
 40
1
 10
453.598838
 20
424.427896
 30
0.0
 10
445.137052
 20
425.945849
 30
0.0
 10
436.132205
 20
427.632973
 30
0.0
 10
427.230680
 20
429.287868
 30
0.0
  0
SPLINE
  5
11f
100
AcDbEntity
  8
Layer_1
 62
3
100
AcDbSpline
 70
8
 71
3
 72
8
 73
4
 74
0
 40
0
 40
0
 40
0
 40
0
 40
1
 40
1
 40
1
 40
1
 10
427.230680
 20
429.287868
 30
0.0
 10
418.329184
 20
430.942791
 30
0.0
 10
409.531011
 20
432.565512
 30
0.0
 10
401.482630
 20
433.954715
 30
0.0
  0
SPLINE
  5
120
100
AcDbEntity
  8
Layer_1
 62
3
100
AcDbSpline
 70
8
 71
3
 72
8
 73
4
 74
0
 40
0
 40
0
 40
0
 40
0
 40
1
 40
1
 40
1
 40
1
 10
401.482630
 20
433.954715
 30
0.0
 10
421.288639
 20
424.218359
 30
0.0
 10
437.104743
 20
416.221172
 30
0.0
 10
449.483726
 20
409.722236
 30
0.0
  0
SPLINE
  5
121
100
AcDbEntity
  8
Layer_1
 62
3
100
AcDbSpline
 70
8
 71
3
 72
8
 73
4
 74
0
 40
0
 40
0
 40
0
 40
0
 40
1
 40
1
 40
1
 40
1
 10
449.483726
 20
409.722236
 30
0.0
 10
461.862680
 20
403.223301
 30
0.0
 10
470.804485
 20
398.222589
 30
0.0
 10
476.861924
 20
394.479213
 30
0.0
  0
SPLINE
  5
122
100
AcDbEntity
  8
Layer_1
 62
3
100
AcDbSpline
 70
8
 71
3
 72
8
 73
4
 74
0
 40
0
 40
0
 40
0
 40
0
 40
1
 40
1
 40
1
 40
1
 10
476.861924
 20
394.479213
 30
0.0
 10
482.919335
 20
390.735808
 30
0.0
 10
486.092353
 20
388.249710
 30
0.0
 10
486.933732
 20
386.779975
 30
0.0
  0
SPLINE
  5
123
100
AcDbEntity
  8
Layer_1
 62
3
100
AcDbSpline
 70
8
 71
3
 72
8
 73
4
 74
0
 40
0
 40
0
 40
0
 40
0
 40
1
 40
1
 40
1
 40
1
 10
486.933732
 20
386.779975
 30
0.0
 10
487.775083
 20
385.310268
 30
0.0
 10
486.284797
 20
384.856894
 30
0.0
 10
483.015628
 20
385.178939
 30
0.0
  0
SPLINE
  5
124
100
AcDbEntity
  8
Layer_1
 62
3
100
AcDbSpline
 70
8
 71
3
 72
8
 73
4
 74
0
 40
0
 40
0
 40
0
 40
0
 40
1
 40
1
 40
1
 40
1
 10
483.015628
 20
385.178939
 30
0.0
 10
479.746432
 20
385.500983
 30
0.0
 10
474.698324
 20
386.598472
 30
0.0
 10
468.424091
 20
388.230406
 30
0.0
  0
SPLINE
  5
125
100
AcDbEntity
  8
Layer_1
 62
3
100
AcDbSpline
 70
8
 71
3
 72
8
 73
4
 74
0
 40
0
 40
0
 40
0
 40
0
 40
1
 40
1
 40
1
 40
1
 10
468.424091
 20
388.230406
 30
0.0
 10
462.149830
 20
389.862369
 30
0.0
 10
454.649414
 20
392.028803
 30
0.0
 10
446.475600
 20
394.488765
 30
0.0
  0
SPLINE
  5
126
100
AcDbEntity
  8
Layer_1
 62
3
100
AcDbSpline
 70
8
 71
3
 72
8
 73
4
 74
0
 40
0
 40
0
 40
0
 40
0
 40
1
 40
1
 40
1
 40
1
 10
446.475600
 20
394.488765
 30
0.0
 10
438.301786
 20
396.948728
 30
0.0
 10
429.454545
 20
399.702246
 30
0.0
 10
420.486633
 20
402.508346
 30
0.0
  0
SPLINE
  5
127
100
AcDbEntity
  8
Layer_1
 62
3
100
AcDbSpline
 70
8
 71
3
 72
8
 73
4
 74
0
 40
0
 40
0
 40
0
 40
0
 40
1
 40
1
 40
1
 40
1
 10
420.486633
 20
402.508346
 30
0.0
 10
411.518750
 20
405.314447
 30
0.0
 10
402.430167
 20
408.173159
 30
0.0
 10
393.773698
 20
410.843509
 30
0.0
  0
SPLINE
  5
128
100
AcDbEntity
  8
Layer_1
 62
3
100
AcDbSpline
 70
8
 71
3
 72
8
 73
4
 74
0
 40
0
 40
0
 40
0
 40
0
 40
1
 40
1
 40
1
 40
1
 10
393.773698
 20
410.843509
 30
0.0
 10
410.016954
 20
402.093184
 30
0.0
 10
423.604346
 20
394.600876
 30
0.0
 10
434.752526
 20
388.264025
 30
0.0
  0
SPLINE
  5
129
100
AcDbEntity
  8
Layer_1
 62
3
100
AcDbSpline
 70
8
 71
3
 72
8
 73
4
 74
0
 40
0
 40
0
 40
0
 40
0
 40
1
 40
1
 40
1
 40
1
 10
434.752526
 20
388.264025
 30
0.0
 10
445.900677
 20
381.927146
 30
0.0
 10
454.609616
 20
376.745726
 30
0.0
 10
461.095937
 20
372.617093
 30
0.0
  0
SPLINE
  5
12a
100
AcDbEntity
  8
Layer_1
 62
3
100
AcDbSpline
 70
8
 71
3
 72
8
 73
4
 74
0
 40
0
 40
0
 40
0
 40
0
 40
1
 40
1
 40
1
 40
1
 10
461.095937
 20
372.617093
 30
0.0
 10
467.582258
 20
368.488460
 30
0.0
 10
471.845991
 20
365.412671
 30
0.0
 10
474.103701
 20
363.287055
 30
0.0
  0
SPLINE
  5
12b
100
AcDbEntity
  8
Layer_1
 62
3
100
AcDbSpline
 70
8
 71
3
 72
8
 73
4
 74
0
 40
0
 40
0
 40
0
 40
0
 40
1
 40
1
 40
1
 40
1
 10
474.103701
 20
363.287055
 30
0.0
 10
476.361439
 20
361.161468
 30
0.0
 10
476.613184
 20
359.986054
 30
0.0
 10
475.075587
 20
359.658255
 30
0.0
  0
SPLINE
  5
12c
100
AcDbEntity
  8
Layer_1
 62
3
100
AcDbSpline
 70
8
 71
3
 72
8
 73
4
 74
0
 40
0
 40
0
 40
0
 40
0
 40
1
 40
1
 40
1
 40
1
 10
475.075587
 20
359.658255
 30
0.0
 10
473.537962
 20
359.330428
 30
0.0
 10
470.210995
 20
359.850161
 30
0.0
 10
465.311282
 20
361.114980
 30
0.0
  0
SPLINE
  5
12d
100
AcDbEntity
  8
Layer_1
 62
3
100
AcDbSpline
 70
8
 71
3
 72
8
 73
4
 74
0
 40
0
 40
0
 40
0
 40
0
 40
1
 40
1
 40
1
 40
1
 10
465.311282
 20
361.114980
 30
0.0
 10
460.411597
 20
362.379742
 30
0.0
 10
453.939165
 20
364.389477
 30
0.0
 10
446.110611
 20
367.041572
 30
0.0
  0
SPLINE
  5
12e
100
AcDbEntity
  8
Layer_1
 62
3
100
AcDbSpline
 70
8
 71
3
 72
8
 73
4
 74
0
 40
0
 40
0
 40
0
 40
0
 40
1
 40
1
 40
1
 40
1
 10
446.110611
 20
367.041572
 30
0.0
 10
438.282057
 20
369.693666
 30
0.0
 10
429.097408
 20
372.988148
 30
0.0
 10
418.773288
 20
376.822375
 30
0.0
  0
SPLINE
  5
12f
100
AcDbEntity
  8
Layer_1
 62
3
100
AcDbSpline
 70
8
 71
3
 72
8
 73
4
 74
0
 40
0
 40
0
 40
0
 40
0
 40
1
 40
1
 40
1
 40
1
 10
418.773288
 20
376.822375
 30
0.0
 10
408.449140
 20
380.656602
 30
0.0
 10
396.985521
 20
385.030573
 30
0.0
 10
384.599055
 20
389.841704
 30
0.0
  0
SPLINE
  5
130
100
AcDbEntity
  8
Layer_1
 62
3
100
AcDbSpline
 70
8
 71
3
 72
8
 73
4
 74
0
 40
0
 40
0
 40
0
 40
0
 40
1
 40
1
 40
1
 40
1
 10
384.599055
 20
389.841704
 30
0.0
 10
400.318328
 20
377.725266
 30
0.0
 10
413.217978
 20
367.587978
 30
0.0
 10
423.597940
 20
359.219339
 30
0.0
  0
SPLINE
  5
131
100
AcDbEntity
  8
Layer_1
 62
3
100
AcDbSpline
 70
8
 71
3
 72
8
 73
4
 74
0
 40
0
 40
0
 40
0
 40
0
 40
1
 40
1
 40
1
 40
1
 10
423.597940
 20
359.219339
 30
0.0
 10
433.977902
 20
350.850699
 30
0.0
 10
441.838148
 20
344.250709
 30
0.0
 10
447.478583
 20
339.208838
 30
0.0
  0
SPLINE
  5
132
100
AcDbEntity
  8
Layer_1
 62
3
100
AcDbSpline
 70
8
 71
3
 72
8
 73
4
 74
0
 40
0
 40
0
 40
0
 40
0
 40
1
 40
1
 40
1
 40
1
 10
447.478583
 20
339.208838
 30
0.0
 10
453.119046
 20
334.166939
 30
0.0
 10
456.539698
 20
330.683216
 30
0.0
 10
458.040444
 20
328.547055
 30
0.0
  0
SPLINE
  5
133
100
AcDbEntity
  8
Layer_1
 62
3
100
AcDbSpline
 70
8
 71
3
 72
8
 73
4
 74
0
 40
0
 40
0
 40
0
 40
0
 40
1
 40
1
 40
1
 40
1
 10
458.040444
 20
328.547055
 30
0.0
 10
459.541219
 20
326.410923
 30
0.0
 10
459.122088
 20
325.622409
 30
0.0
 10
457.082986
 20
325.970986
 30
0.0
  0
SPLINE
  5
134
100
AcDbEntity
  8
Layer_1
 62
3
100
AcDbSpline
 70
8
 71
3
 72
8
 73
4
 74
0
 40
0
 40
0
 40
0
 40
0
 40
1
 40
1
 40
1
 40
1
 10
457.082986
 20
325.970986
 30
0.0
 10
455.043883
 20
326.319562
 30
0.0
 10
451.384809
 20
327.805257
 30
0.0
 10
446.405669
 20
330.217512
 30
0.0
  0
SPLINE
  5
135
100
AcDbEntity
  8
Layer_1
 62
3
100
AcDbSpline
 70
8
 71
3
 72
8
 73
4
 74
0
 40
0
 40
0
 40
0
 40
0
 40
1
 40
1
 40
1
 40
1
 10
446.405669
 20
330.217512
 30
0.0
 10
441.426501
 20
332.629795
 30
0.0
 10
435.127294
 20
335.968639
 30
0.0
 10
427.807899
 20
340.023572
 30
0.0
  0
SPLINE
  5
136
100
AcDbEntity
  8
Layer_1
 62
3
100
AcDbSpline
 70
8
 71
3
 72
8
 73
4
 74
0
 40
0
 40
0
 40
0
 40
0
 40
1
 40
1
 40
1
 40
1
 10
427.807899
 20
340.023572
 30
0.0
 10
420.488532
 20
344.078504
 30
0.0
 10
412.148976
 20
348.849496
 30
0.0
 10
403.089194
 20
354.126076
 30
0.0
  0
SPLINE
  5
137
100
AcDbEntity
  8
Layer_1
 62
3
100
AcDbSpline
 70
8
 71
3
 72
8
 73
4
 74
0
 40
0
 40
0
 40
0
 40
0
 40
1
 40
1
 40
1
 40
1
 10
403.089194
 20
354.126076
 30
0.0
 10
394.029383
 20
359.402627
 30
0.0
 10
384.249345
 20
365.184765
 30
0.0
 10
374.048957
 20
371.261934
 30
0.0
  0
SPLINE
  5
138
100
AcDbEntity
  8
Layer_1
 62
3
100
AcDbSpline
 70
8
 71
3
 72
8
 73
4
 74
0
 40
0
 40
0
 40
0
 40
0
 40
1
 40
1
 40
1
 40
1
 10
374.048957
 20
371.261934
 30
0.0
 10
385.596879
 20
359.354580
 30
0.0
 10
395.500649
 20
348.982980
 30
0.0
 10
403.812369
 20
340.098463
 30
0.0
  0
SPLINE
  5
139
100
AcDbEntity
  8
Layer_1
 62
3
100
AcDbSpline
 70
8
 71
3
 72
8
 73
4
 74
0
 40
0
 40
0
 40
0
 40
0
 40
1
 40
1
 40
1
 40
1
 10
403.812369
 20
340.098463
 30
0.0
 10
412.124088
 20
331.213918
 30
0.0
 10
418.843786
 20
323.816457
 30
0.0
 10
424.023591
 20
317.857380
 30
0.0
  0
SPLINE
  5
13a
100
AcDbEntity
  8
Layer_1
 62
3
100
AcDbSpline
 70
8
 71
3
 72
8
 73
4
 74
0
 40
0
 40
0
 40
0
 40
0
 40
1
 40
1
 40
1
 40
1
 10
424.023591
 20
317.857380
 30
0.0
 10
429.203367
 20
311.898274
 30
0.0
 10
432.843279
 20
307.377524
 30
0.0
 10
434.995427
 20
304.246460
 30
0.0
  0
SPLINE
  5
13b
100
AcDbEntity
  8
Layer_1
 62
3
100
AcDbSpline
 70
8
 71
3
 72
8
 73
4
 74
0
 40
0
 40
0
 40
0
 40
0
 40
1
 40
1
 40
1
 40
1
 10
434.995427
 20
304.246460
 30
0.0
 10
437.147575
 20
301.115367
 30
0.0
 10
437.811987
 20
299.373959
 30
0.0
 10
437.040765
 20
298.973480
 30
0.0
  0
SPLINE
  5
13c
100
AcDbEntity
  8
Layer_1
 62
3
100
AcDbSpline
 70
8
 71
3
 72
8
 73
4
 74
0
 40
0
 40
0
 40
0
 40
0
 40
1
 40
1
 40
1
 40
1
 10
437.040765
 20
298.973480
 30
0.0
 10
436.269543
 20
298.573030
 30
0.0
 10
434.062715
 20
299.513509
 30
0.0
 10
430.472409
 20
301.746274
 30
0.0
  0
SPLINE
  5
13d
100
AcDbEntity
  8
Layer_1
 62
3
100
AcDbSpline
 70
8
 71
3
 72
8
 73
4
 74
0
 40
0
 40
0
 40
0
 40
0
 40
1
 40
1
 40
1
 40
1
 10
430.472409
 20
301.746274
 30
0.0
 10
426.882104
 20
303.979011
 30
0.0
 10
421.908321
 20
307.504006
 30
0.0
 10
415.603219
 20
312.272589
 30
0.0
  0
SPLINE
  5
13e
100
AcDbEntity
  8
Layer_1
 62
3
100
AcDbSpline
 70
8
 71
3
 72
8
 73
4
 74
0
 40
0
 40
0
 40
0
 40
0
 40
1
 40
1
 40
1
 40
1
 10
415.603219
 20
312.272589
 30
0.0
 10
409.298117
 20
317.041143
 30
0.0
 10
401.661666
 20
323.053228
 30
0.0
 10
392.746054
 20
330.260202
 30
0.0
  0
SPLINE
  5
13f
100
AcDbEntity
  8
Layer_1
 62
3
100
AcDbSpline
 70
8
 71
3
 72
8
 73
4
 74
0
 40
0
 40
0
 40
0
 40
0
 40
1
 40
1
 40
1
 40
1
 10
392.746054
 20
330.260202
 30
0.0
 10
383.830413
 20
337.467146
 30
0.0
 10
373.635581
 20
345.868951
 30
0.0
 10
362.213717
 20
355.416917
 30
0.0
  0
SPLINE
  5
140
100
AcDbEntity
  8
Layer_1
 62
3
100
AcDbSpline
 70
8
 71
3
 72
8
 73
4
 74
0
 40
0
 40
0
 40
0
 40
0
 40
1
 40
1
 40
1
 40
1
 10
362.213717
 20
355.416917
 30
0.0
 10
368.835506
 20
346.108592
 30
0.0
 10
375.228709
 20
337.080898
 30
0.0
 10
381.143735
 20
328.640343
 30
0.0
  0
SPLINE
  5
141
100
AcDbEntity
  8
Layer_1
 62
3
100
AcDbSpline
 70
8
 71
3
 72
8
 73
4
 74
0
 40
0
 40
0
 40
0
 40
0
 40
1
 40
1
 40
1
 40
1
 10
381.143735
 20
328.640343
 30
0.0
 10
387.058762
 20
320.199817
 30
0.0
 10
392.495556
 20
312.346432
 30
0.0
 10
397.204526
 20
305.386753
 30
0.0
  0
SPLINE
  5
142
100
AcDbEntity
  8
Layer_1
 62
3
100
AcDbSpline
 70
8
 71
3
 72
8
 73
4
 74
0
 40
0
 40
0
 40
0
 40
0
 40
1
 40
1
 40
1
 40
1
 10
397.204526
 20
305.386753
 30
0.0
 10
401.913496
 20
298.427074
 30
0.0
 10
405.894614
 20
292.361046
 30
0.0
 10
408.898233
 20
287.495263
 30
0.0
  0
SPLINE
  5
143
100
AcDbEntity
  8
Layer_1
 62
3
100
AcDbSpline
 70
8
 71
3
 72
8
 73
4
 74
0
 40
0
 40
0
 40
0
 40
0
 40
1
 40
1
 40
1
 40
1
 10
408.898233
 20
287.495263
 30
0.0
 10
411.901852
 20
282.629480
 30
0.0
 10
413.928000
 20
278.963915
 30
0.0
 10
414.727002
 20
276.805077
 30
0.0
  0
SPLINE
  5
144
100
AcDbEntity
  8
Layer_1
 62
3
100
AcDbSpline
 70
8
 71
3
 72
8
 73
4
 74
0
 40
0
 40
0
 40
0
 40
0
 40
1
 40
1
 40
1
 40
1
 10
414.727002
 20
276.805077
 30
0.0
 10
415.525975
 20
274.646239
 30
0.0
 10
415.097830
 20
273.994129
 30
0.0
 10
413.192920
 20
275.155313
 30
0.0
  0
SPLINE
  5
145
100
AcDbEntity
  8
Layer_1
 62
3
100
AcDbSpline
 70
8
 71
3
 72
8
 73
4
 74
0
 40
0
 40
0
 40
0
 40
0
 40
1
 40
1
 40
1
 40
1
 10
413.192920
 20
275.155313
 30
0.0
 10
411.287981
 20
276.316469
 30
0.0
 10
407.906277
 20
279.290891
 30
0.0
 10
402.798132
 20
284.385118
 30
0.0
  0
SPLINE
  5
146
100
AcDbEntity
  8
Layer_1
 62
3
100
AcDbSpline
 70
8
 71
3
 72
8
 73
4
 74
0
 40
0
 40
0
 40
0
 40
0
 40
1
 40
1
 40
1
 40
1
 10
402.798132
 20
284.385118
 30
0.0
 10
397.689987
 20
289.479345
 30
0.0
 10
390.855430
 20
296.693376
 30
0.0
 10
382.044784
 20
306.333694
 30
0.0
  0
SPLINE
  5
147
100
AcDbEntity
  8
Layer_1
 62
3
100
AcDbSpline
 70
8
 71
3
 72
8
 73
4
 74
0
 40
0
 40
0
 40
0
 40
0
 40
1
 40
1
 40
1
 40
1
 10
382.044784
 20
306.333694
 30
0.0
 10
373.234139
 20
315.974041
 30
0.0
 10
362.447433
 20
328.040702
 30
0.0
 10
349.434992
 20
342.840189
 30
0.0
  0
SPLINE
  5
148
100
AcDbEntity
  8
Layer_1
 62
3
100
AcDbSpline
 70
8
 71
3
 72
8
 73
4
 74
0
 40
0
 40
0
 40
0
 40
0
 40
1
 40
1
 40
1
 40
1
 10
349.434992
 20
342.840189
 30
0.0
 10
360.233830
 20
320.527928
 30
0.0
 10
368.477348
 20
303.153080
 30
0.0
 10
374.591565
 20
289.892466
 30
0.0
  0
SPLINE
  5
149
100
AcDbEntity
  8
Layer_1
 62
3
100
AcDbSpline
 70
8
 71
3
 72
8
 73
4
 74
0
 40
0
 40
0
 40
0
 40
0
 40
1
 40
1
 40
1
 40
1
 10
374.591565
 20
289.892466
 30
0.0
 10
380.705783
 20
276.631852
 30
0.0
 10
384.690699
 20
267.485471
 30
0.0
 10
386.972362
 20
261.630142
 30
0.0
  0
SPLINE
  5
14a
100
AcDbEntity
  8
Layer_1
 62
3
100
AcDbSpline
 70
8
 71
3
 72
8
 73
4
 74
0
 40
0
 40
0
 40
0
 40
0
 40
1
 40
1
 40
1
 40
1
 10
386.972362
 20
261.630142
 30
0.0
 10
389.253997
 20
255.774813
 30
0.0
 10
389.832406
 20
253.210507
 30
0.0
 10
389.133581
 20
253.114072
 30
0.0
  0
SPLINE
  5
14b
100
AcDbEntity
  8
Layer_1
 62
3
100
AcDbSpline
 70
8
 71
3
 72
8
 73
4
 74
0
 40
0
 40
0
 40
0
 40
0
 40
1
 40
1
 40
1
 40
1
 10
389.133581
 20
253.114072
 30
0.0
 10
388.434756
 20
253.017694
 30
0.0
 10
386.458724
 20
255.389017
 30
0.0
 10
383.631506
 20
259.405087
 30
0.0
  0
SPLINE
  5
14c
100
AcDbEntity
  8
Layer_1
 62
3
100
AcDbSpline
 70
8
 71
3
 72
8
 73
4
 74
0
 40
0
 40
0
 40
0
 40
0
 40
1
 40
1
 40
1
 40
1
 10
383.631506
 20
259.405087
 30
0.0
 10
380.804287
 20
263.421128
 30
0.0
 10
377.125880
 20
269.081830
 30
0.0
 10
373.022362
 20
275.564013
 30
0.0
  0
SPLINE
  5
14d
100
AcDbEntity
  8
Layer_1
 62
3
100
AcDbSpline
 70
8
 71
3
 72
8
 73
4
 74
0
 40
0
 40
0
 40
0
 40
0
 40
1
 40
1
 40
1
 40
1
 10
373.022362
 20
275.564013
 30
0.0
 10
368.918816
 20
282.046195
 30
0.0
 10
364.390129
 20
289.349830
 30
0.0
 10
359.862350
 20
296.651707
 30
0.0
  0
SPLINE
  5
14e
100
AcDbEntity
  8
Layer_1
 62
3
100
AcDbSpline
 70
8
 71
3
 72
8
 73
4
 74
0
 40
0
 40
0
 40
0
 40
0
 40
1
 40
1
 40
1
 40
1
 10
359.862350
 20
296.651707
 30
0.0
 10
355.334542
 20
303.953613
 30
0.0
 10
350.807669
 20
311.253789
 30
0.0
 10
346.707694
 20
317.729027
 30
0.0
  0
SPLINE
  5
14f
100
AcDbEntity
  8
Layer_1
 62
3
100
AcDbSpline
 70
8
 71
3
 72
8
 73
4
 74
0
 40
0
 40
0
 40
0
 40
0
 40
1
 40
1
 40
1
 40
1
 10
346.707694
 20
317.729027
 30
0.0
 10
342.607748
 20
324.204293
 30
0.0
 10
338.934728
 20
329.854592
 30
0.0
 10
336.114680
 20
333.856800
 30
0.0
  0
SPLINE
  5
150
100
AcDbEntity
  8
Layer_1
 62
3
100
AcDbSpline
 70
8
 71
3
 72
8
 73
4
 74
0
 40
0
 40
0
 40
0
 40
0
 40
1
 40
1
 40
1
 40
1
 10
336.114680
 20
333.856800
 30
0.0
 10
343.015965
 20
312.493748
 30
0.0
 10
348.333420
 20
295.611874
 30
0.0
 10
352.310712
 20
282.521594
 30
0.0
  0
SPLINE
  5
151
100
AcDbEntity
  8
Layer_1
 62
3
100
AcDbSpline
 70
8
 71
3
 72
8
 73
4
 74
0
 40
0
 40
0
 40
0
 40
0
 40
1
 40
1
 40
1
 40
1
 10
352.310712
 20
282.521594
 30
0.0
 10
356.288003
 20
269.431342
 30
0.0
 10
358.925159
 20
260.132655
 30
0.0
 10
360.465931
 20
253.936006
 30
0.0
  0
SPLINE
  5
152
100
AcDbEntity
  8
Layer_1
 62
3
100
AcDbSpline
 70
8
 71
3
 72
8
 73
4
 74
0
 40
0
 40
0
 40
0
 40
0
 40
1
 40
1
 40
1
 40
1
 10
360.465931
 20
253.936006
 30
0.0
 10
362.006702
 20
247.739357
 30
0.0
 10
362.451033
 20
244.644746
 30
0.0
 10
362.042731
 20
243.962561
 30
0.0
  0
SPLINE
  5
153
100
AcDbEntity
  8
Layer_1
 62
3
100
AcDbSpline
 70
8
 71
3
 72
8
 73
4
 74
0
 40
0
 40
0
 40
0
 40
0
 40
1
 40
1
 40
1
 40
1
 10
362.042731
 20
243.962561
 30
0.0
 10
361.634400
 20
243.280375
 30
0.0
 10
360.373408
 20
245.010671
 30
0.0
 10
358.503449
 20
248.463808
 30
0.0
  0
SPLINE
  5
154
100
AcDbEntity
  8
Layer_1
 62
3
100
AcDbSpline
 70
8
 71
3
 72
8
 73
4
 74
0
 40
0
 40
0
 40
0
 40
0
 40
1
 40
1
 40
1
 40
1
 10
358.503449
 20
248.463808
 30
0.0
 10
356.633518
 20
251.916945
 30
0.0
 10
354.154620
 20
257.092980
 30
0.0
 10
351.310507
 20
263.302299
 30
0.0
  0
SPLINE
  5
155
100
AcDbEntity
  8
Layer_1
 62
3
100
AcDbSpline
 70
8
 71
3
 72
8
 73
4
 74
0
 40
0
 40
0
 40
0
 40
0
 40
1
 40
1
 40
1
 40
1
 10
351.310507
 20
263.302299
 30
0.0
 10
348.466394
 20
269.511619
 30
0.0
 10
345.257065
 20
276.754252
 30
0.0
 10
341.926243
 20
284.340586
 30
0.0
  0
SPLINE
  5
156
100
AcDbEntity
  8
Layer_1
 62
3
100
AcDbSpline
 70
8
 71
3
 72
8
 73
4
 74
0
 40
0
 40
0
 40
0
 40
0
 40
1
 40
1
 40
1
 40
1
 10
341.926243
 20
284.340586
 30
0.0
 10
338.595449
 20
291.926948
 30
0.0
 10
335.143134
 20
299.857011
 30
0.0
 10
331.813077
 20
307.441247
 30
0.0
  0
SPLINE
  5
157
100
AcDbEntity
  8
Layer_1
 62
3
100
AcDbSpline
 70
8
 71
3
 72
8
 73
4
 74
0
 40
0
 40
0
 40
0
 40
0
 40
1
 40
1
 40
1
 40
1
 10
331.813077
 20
307.441247
 30
0.0
 10
328.482992
 20
315.025455
 30
0.0
 10
325.275165
 20
322.263836
 30
0.0
 10
322.433320
 20
328.466778
 30
0.0
  0
SPLINE
  5
158
100
AcDbEntity
  8
Layer_1
 62
3
100
AcDbSpline
 70
8
 71
3
 72
8
 73
4
 74
0
 40
0
 40
0
 40
0
 40
0
 40
1
 40
1
 40
1
 40
1
 10
322.433320
 20
328.466778
 30
0.0
 10
326.116743
 20
303.988025
 30
0.0
 10
328.834772
 20
285.038220
 30
0.0
 10
330.749745
 20
270.687969
 30
0.0
  0
SPLINE
  5
159
100
AcDbEntity
  8
Layer_1
 62
3
100
AcDbSpline
 70
8
 71
3
 72
8
 73
4
 74
0
 40
0
 40
0
 40
0
 40
0
 40
1
 40
1
 40
1
 40
1
 10
330.749745
 20
270.687969
 30
0.0
 10
332.664690
 20
256.337688
 30
0.0
 10
333.776551
 20
246.586932
 30
0.0
 10
334.247584
 20
240.506306
 30
0.0
  0
SPLINE
  5
15a
100
AcDbEntity
  8
Layer_1
 62
3
100
AcDbSpline
 70
8
 71
3
 72
8
 73
4
 74
0
 40
0
 40
0
 40
0
 40
0
 40
1
 40
1
 40
1
 40
1
 10
334.247584
 20
240.506306
 30
0.0
 10
334.718646
 20
234.425650
 30
0.0
 10
334.548879
 20
232.015124
 30
0.0
 10
333.900567
 20
232.345276
 30
0.0
  0
SPLINE
  5
15b
100
AcDbEntity
  8
Layer_1
 62
3
100
AcDbSpline
 70
8
 71
3
 72
8
 73
4
 74
0
 40
0
 40
0
 40
0
 40
0
 40
1
 40
1
 40
1
 40
1
 10
333.900567
 20
232.345276
 30
0.0
 10
333.252283
 20
232.675398
 30
0.0
 10
332.125455
 20
235.746227
 30
0.0
 10
330.682394
 20
240.628309
 30
0.0
  0
SPLINE
  5
15c
100
AcDbEntity
  8
Layer_1
 62
3
100
AcDbSpline
 70
8
 71
3
 72
8
 73
4
 74
0
 40
0
 40
0
 40
0
 40
0
 40
1
 40
1
 40
1
 40
1
 10
330.682394
 20
240.628309
 30
0.0
 10
329.239304
 20
245.510362
 30
0.0
 10
327.479981
 20
252.203698
 30
0.0
 10
325.566680
 20
259.778835
 30
0.0
  0
SPLINE
  5
15d
100
AcDbEntity
  8
Layer_1
 62
3
100
AcDbSpline
 70
8
 71
3
 72
8
 73
4
 74
0
 40
0
 40
0
 40
0
 40
0
 40
1
 40
1
 40
1
 40
1
 10
325.566680
 20
259.778835
 30
0.0
 10
323.653380
 20
267.354000
 30
0.0
 10
321.586129
 20
275.810995
 30
0.0
 10
319.527156
 20
284.220369
 30
0.0
  0
SPLINE
  5
15e
100
AcDbEntity
  8
Layer_1
 62
3
100
AcDbSpline
 70
8
 71
3
 72
8
 73
4
 74
0
 40
0
 40
0
 40
0
 40
0
 40
1
 40
1
 40
1
 40
1
 10
319.527156
 20
284.220369
 30
0.0
 10
317.468211
 20
292.629742
 30
0.0
 10
315.417572
 20
300.991521
 30
0.0
 10
313.537493
 20
308.376283
 30
0.0
  0
SPLINE
  5
15f
100
AcDbEntity
  8
Layer_1
 62
3
100
AcDbSpline
 70
8
 71
3
 72
8
 73
4
 74
0
 40
0
 40
0
 40
0
 40
0
 40
1
 40
1
 40
1
 40
1
 10
313.537493
 20
308.376283
 30
0.0
 10
311.657443
 20
315.761074
 30
0.0
 10
309.947981
 20
322.168791
 30
0.0
 10
308.571392
 20
326.670094
 30
0.0
  0
SPLINE
  5
160
100
AcDbEntity
  8
Layer_1
 62
3
100
AcDbSpline
 70
8
 71
3
 72
8
 73
4
 74
0
 40
0
 40
0
 40
0
 40
0
 40
1
 40
1
 40
1
 40
1
 10
308.571392
 20
326.670094
 30
0.0
 10
306.913635
 20
303.160734
 30
0.0
 10
305.481685
 20
284.582154
 30
0.0
 10
304.241528
 20
270.190857
 30
0.0
  0
SPLINE
  5
161
100
AcDbEntity
  8
Layer_1
 62
3
100
AcDbSpline
 70
8
 71
3
 72
8
 73
4
 74
0
 40
0
 40
0
 40
0
 40
0
 40
1
 40
1
 40
1
 40
1
 10
304.241528
 20
270.190857
 30
0.0
 10
303.001398
 20
255.799559
 30
0.0
 10
301.953005
 20
245.595515
 30
0.0
 10
301.062387
 20
238.835197
 30
0.0
  0
SPLINE
  5
162
100
AcDbEntity
  8
Layer_1
 62
3
100
AcDbSpline
 70
8
 71
3
 72
8
 73
4
 74
0
 40
0
 40
0
 40
0
 40
0
 40
1
 40
1
 40
1
 40
1
 10
301.062387
 20
238.835197
 30
0.0
 10
300.171742
 20
232.074850
 30
0.0
 10
299.438816
 20
228.758258
 30
0.0
 10
298.829594
 20
228.141836
 30
0.0
  0
SPLINE
  5
163
100
AcDbEntity
  8
Layer_1
 62
3
100
AcDbSpline
 70
8
 71
3
 72
8
 73
4
 74
0
 40
0
 40
0
 40
0
 40
0
 40
1
 40
1
 40
1
 40
1
 10
298.829594
 20
228.141836
 30
0.0
 10
298.220343
 20
227.525414
 30
0.0
 10
297.734769
 20
229.609191
 30
0.0
 10
297.338825
 20
233.649609
 30
0.0
  0
SPLINE
  5
164
100
AcDbEntity
  8
Layer_1
 62
3
100
AcDbSpline
 70
8
 71
3
 72
8
 73
4
 74
0
 40
0
 40
0
 40
0
 40
0
 40
1
 40
1
 40
1
 40
1
 10
297.338825
 20
233.649609
 30
0.0
 10
296.942882
 20
237.690000
 30
0.0
 10
296.636542
 20
243.687061
 30
0.0
 10
296.385761
 20
250.897209
 30
0.0
  0
SPLINE
  5
165
100
AcDbEntity
  8
Layer_1
 62
3
100
AcDbSpline
 70
8
 71
3
 72
8
 73
4
 74
0
 40
0
 40
0
 40
0
 40
0
 40
1
 40
1
 40
1
 40
1
 10
296.385761
 20
250.897209
 30
0.0
 10
296.134894
 20
258.107357
 30
0.0
 10
295.939786
 20
266.530620
 30
0.0
 10
295.766079
 20
275.423414
 30
0.0
  0
SPLINE
  5
166
100
AcDbEntity
  8
Layer_1
 62
3
100
AcDbSpline
 70
8
 71
3
 72
8
 73
4
 74
0
 40
0
 40
0
 40
0
 40
0
 40
1
 40
1
 40
1
 40
1
 10
295.766079
 20
275.423414
 30
0.0
 10
295.592315
 20
284.316236
 30
0.0
 10
295.440180
 20
293.678617
 30
0.0
 10
295.275430
 20
302.767030
 30
0.0
  0
SPLINE
  5
167
100
AcDbEntity
  8
Layer_1
 62
3
100
AcDbSpline
 70
8
 71
3
 72
8
 73
4
 74
0
 40
0
 40
0
 40
0
 40
0
 40
1
 40
1
 40
1
 40
1
 10
295.275430
 20
302.767030
 30
0.0
 10
295.110737
 20
311.855443
 30
0.0
 10
294.933402
 20
320.669858
 30
0.0
 10
294.709493
 20
328.466778
 30
0.0
  0
SPLINE
  5
168
100
AcDbEntity
  8
Layer_1
 62
3
100
AcDbSpline
 70
8
 71
3
 72
8
 73
4
 74
0
 40
0
 40
0
 40
0
 40
0
 40
1
 40
1
 40
1
 40
1
 10
294.709493
 20
328.466778
 30
0.0
 10
287.514879
 20
311.841978
 30
0.0
 10
281.358938
 20
297.858954
 30
0.0
 10
276.162664
 20
286.316844
 30
0.0
  0
SPLINE
  5
169
100
AcDbEntity
  8
Layer_1
 62
3
100
AcDbSpline
 70
8
 71
3
 72
8
 73
4
 74
0
 40
0
 40
0
 40
0
 40
0
 40
1
 40
1
 40
1
 40
1
 10
276.162664
 20
286.316844
 30
0.0
 10
270.966390
 20
274.774762
 30
0.0
 10
266.729797
 20
265.673594
 30
0.0
 10
263.373917
 20
258.812476
 30
0.0
  0
SPLINE
  5
16a
100
AcDbEntity
  8
Layer_1
 62
3
100
AcDbSpline
 70
8
 71
3
 72
8
 73
4
 74
0
 40
0
 40
0
 40
0
 40
0
 40
1
 40
1
 40
1
 40
1
 10
263.373917
 20
258.812476
 30
0.0
 10
260.018036
 20
251.951386
 30
0.0
 10
257.542866
 20
247.330375
 30
0.0
 10
255.869444
 20
244.748551
 30
0.0
  0
SPLINE
  5
16b
100
AcDbEntity
  8
Layer_1
 62
3
100
AcDbSpline
 70
8
 71
3
 72
8
 73
4
 74
0
 40
0
 40
0
 40
0
 40
0
 40
1
 40
1
 40
1
 40
1
 10
255.869444
 20
244.748551
 30
0.0
 10
254.196023
 20
242.166756
 30
0.0
 10
253.324344
 20
241.624176
 30
0.0
 10
253.175445
 20
242.919978
 30
0.0
  0
SPLINE
  5
16c
100
AcDbEntity
  8
Layer_1
 62
3
100
AcDbSpline
 70
8
 71
3
 72
8
 73
4
 74
0
 40
0
 40
0
 40
0
 40
0
 40
1
 40
1
 40
1
 40
1
 10
253.175445
 20
242.919978
 30
0.0
 10
253.026541
 20
244.215780
 30
0.0
 10
253.600427
 20
247.349934
 30
0.0
 10
254.818117
 20
252.121606
 30
0.0
  0
SPLINE
  5
16d
100
AcDbEntity
  8
Layer_1
 62
3
100
AcDbSpline
 70
8
 71
3
 72
8
 73
4
 74
0
 40
0
 40
0
 40
0
 40
0
 40
1
 40
1
 40
1
 40
1
 10
254.818117
 20
252.121606
 30
0.0
 10
256.035810
 20
256.893307
 30
0.0
 10
257.897310
 20
263.302498
 30
0.0
 10
260.323656
 20
271.148372
 30
0.0
  0
SPLINE
  5
16e
100
AcDbEntity
  8
Layer_1
 62
3
100
AcDbSpline
 70
8
 71
3
 72
8
 73
4
 74
0
 40
0
 40
0
 40
0
 40
0
 40
1
 40
1
 40
1
 40
1
 10
260.323656
 20
271.148372
 30
0.0
 10
262.750003
 20
278.994246
 30
0.0
 10
265.741194
 20
288.276775
 30
0.0
 10
269.218261
 20
298.795124
 30
0.0
  0
SPLINE
  5
16f
100
AcDbEntity
  8
Layer_1
 62
3
100
AcDbSpline
 70
8
 71
3
 72
8
 73
4
 74
0
 40
0
 40
0
 40
0
 40
0
 40
1
 40
1
 40
1
 40
1
 10
269.218261
 20
298.795124
 30
0.0
 10
272.695329
 20
309.313502
 30
0.0
 10
276.658274
 20
321.067672
 30
0.0
 10
281.028127
 20
333.856800
 30
0.0
  0
SPLINE
  5
170
100
AcDbEntity
  8
Layer_1
 62
3
100
AcDbSpline
 70
8
 71
3
 72
8
 73
4
 74
0
 40
0
 40
0
 40
0
 40
0
 40
1
 40
1
 40
1
 40
1
 10
281.028127
 20
333.856800
 30
0.0
 10
274.254979
 20
324.300643
 30
0.0
 10
267.728139
 20
315.137849
 30
0.0
 10
261.646716
 20
306.686409
 30
0.0
  0
SPLINE
  5
171
100
AcDbEntity
  8
Layer_1
 62
3
100
AcDbSpline
 70
8
 71
3
 72
8
 73
4
 74
0
 40
0
 40
0
 40
0
 40
0
 40
1
 40
1
 40
1
 40
1
 10
261.646716
 20
306.686409
 30
0.0
 10
255.565290
 20
298.234942
 30
0.0
 10
249.929283
 20
290.494828
 30
0.0
 10
244.937801
 20
283.784032
 30
0.0
  0
SPLINE
  5
172
100
AcDbEntity
  8
Layer_1
 62
3
100
AcDbSpline
 70
8
 71
3
 72
8
 73
4
 74
0
 40
0
 40
0
 40
0
 40
0
 40
1
 40
1
 40
1
 40
1
 10
244.937801
 20
283.784032
 30
0.0
 10
239.946321
 20
277.073235
 30
0.0
 10
235.599367
 20
271.391754
 30
0.0
 10
232.096048
 20
267.057581
 30
0.0
  0
SPLINE
  5
173
100
AcDbEntity
  8
Layer_1
 62
3
100
AcDbSpline
 70
8
 71
3
 72
8
 73
4
 74
0
 40
0
 40
0
 40
0
 40
0
 40
1
 40
1
 40
1
 40
1
 10
232.096048
 20
267.057581
 30
0.0
 10
228.592732
 20
262.723408
 30
0.0
 10
225.933049
 20
259.736513
 30
0.0
 10
224.316116
 20
258.414917
 30
0.0
  0
SPLINE
  5
174
100
AcDbEntity
  8
Layer_1
 62
3
100
AcDbSpline
 70
8
 71
3
 72
8
 73
4
 74
0
 40
0
 40
0
 40
0
 40
0
 40
1
 40
1
 40
1
 40
1
 10
224.316116
 20
258.414917
 30
0.0
 10
222.699183
 20
257.093348
 30
0.0
 10
222.124997
 20
257.437020
 30
0.0
 10
222.792667
 20
259.763981
 30
0.0
  0
SPLINE
  5
175
100
AcDbEntity
  8
Layer_1
 62
3
100
AcDbSpline
 70
8
 71
3
 72
8
 73
4
 74
0
 40
0
 40
0
 40
0
 40
0
 40
1
 40
1
 40
1
 40
1
 10
222.792667
 20
259.763981
 30
0.0
 10
223.460337
 20
262.090913
 30
0.0
 10
225.369865
 20
266.401134
 30
0.0
 10
228.720359
 20
273.012605
 30
0.0
  0
SPLINE
  5
176
100
AcDbEntity
  8
Layer_1
 62
3
100
AcDbSpline
 70
8
 71
3
 72
8
 73
4
 74
0
 40
0
 40
0
 40
0
 40
0
 40
1
 40
1
 40
1
 40
1
 10
228.720359
 20
273.012605
 30
0.0
 10
232.070856
 20
279.624076
 30
0.0
 10
236.862317
 20
288.536769
 30
0.0
 10
243.293856
 20
300.068702
 30
0.0
  0
SPLINE
  5
177
100
AcDbEntity
  8
Layer_1
 62
3
100
AcDbSpline
 70
8
 71
3
 72
8
 73
4
 74
0
 40
0
 40
0
 40
0
 40
0
 40
1
 40
1
 40
1
 40
1
 10
243.293856
 20
300.068702
 30
0.0
 10
249.725398
 20
311.600636
 30
0.0
 10
257.797015
 20
325.751811
 30
0.0
 10
267.707820
 20
342.840189
 30
0.0
  0
SPLINE
  5
178
100
AcDbEntity
  8
Layer_1
 62
3
100
AcDbSpline
 70
8
 71
3
 72
8
 73
4
 74
0
 40
0
 40
0
 40
0
 40
0
 40
1
 40
1
 40
1
 40
1
 10
267.707820
 20
342.840189
 30
0.0
 10
253.980850
 20
330.609515
 30
0.0
 10
242.377872
 20
320.432032
 30
0.0
 10
232.720880
 20
312.135676
 30
0.0
  0
SPLINE
  5
179
100
AcDbEntity
  8
Layer_1
 62
3
100
AcDbSpline
 70
8
 71
3
 72
8
 73
4
 74
0
 40
0
 40
0
 40
0
 40
0
 40
1
 40
1
 40
1
 40
1
 10
232.720880
 20
312.135676
 30
0.0
 10
223.063892
 20
303.839320
 30
0.0
 10
215.352893
 20
297.424063
 30
0.0
 10
209.409877
 20
292.717871
 30
0.0
  0
SPLINE
  5
17a
100
AcDbEntity
  8
Layer_1
 62
3
100
AcDbSpline
 70
8
 71
3
 72
8
 73
4
 74
0
 40
0
 40
0
 40
0
 40
0
 40
1
 40
1
 40
1
 40
1
 10
209.409877
 20
292.717871
 30
0.0
 10
203.466864
 20
288.011707
 30
0.0
 10
199.291833
 20
285.014551
 30
0.0
 10
196.706784
 20
283.554397
 30
0.0
  0
SPLINE
  5
17b
100
AcDbEntity
  8
Layer_1
 62
3
100
AcDbSpline
 70
8
 71
3
 72
8
 73
4
 74
0
 40
0
 40
0
 40
0
 40
0
 40
1
 40
1
 40
1
 40
1
 10
196.706784
 20
283.554397
 30
0.0
 10
194.121734
 20
282.094271
 30
0.0
 10
193.126666
 20
282.171090
 30
0.0
 10
193.543574
 20
283.612791
 30
0.0
  0
SPLINE
  5
17c
100
AcDbEntity
  8
Layer_1
 62
3
100
AcDbSpline
 70
8
 71
3
 72
8
 73
4
 74
0
 40
0
 40
0
 40
0
 40
0
 40
1
 40
1
 40
1
 40
1
 10
193.543574
 20
283.612791
 30
0.0
 10
193.960485
 20
285.054548
 30
0.0
 10
195.789370
 20
287.861187
 30
0.0
 10
198.852228
 20
291.860674
 30
0.0
  0
SPLINE
  5
17d
100
AcDbEntity
  8
Layer_1
 62
3
100
AcDbSpline
 70
8
 71
3
 72
8
 73
4
 74
0
 40
0
 40
0
 40
0
 40
0
 40
1
 40
1
 40
1
 40
1
 10
198.852228
 20
291.860674
 30
0.0
 10
201.915085
 20
295.860189
 30
0.0
 10
206.211917
 20
301.052523
 30
0.0
 10
211.564718
 20
307.265613
 30
0.0
  0
SPLINE
  5
17e
100
AcDbEntity
  8
Layer_1
 62
3
100
AcDbSpline
 70
8
 71
3
 72
8
 73
4
 74
0
 40
0
 40
0
 40
0
 40
0
 40
1
 40
1
 40
1
 40
1
 10
211.564718
 20
307.265613
 30
0.0
 10
216.917518
 20
313.478702
 30
0.0
 10
223.326286
 20
320.712576
 30
0.0
 10
230.613018
 20
328.795143
 30
0.0
  0
SPLINE
  5
17f
100
AcDbEntity
  8
Layer_1
 62
3
100
AcDbSpline
 70
8
 71
3
 72
8
 73
4
 74
0
 40
0
 40
0
 40
0
 40
0
 40
1
 40
1
 40
1
 40
1
 10
230.613018
 20
328.795143
 30
0.0
 10
237.899752
 20
336.877710
 30
0.0
 10
246.064450
 20
345.808998
 30
0.0
 10
254.929107
 20
355.416888
 30
0.0
  0
SPLINE
  5
180
100
AcDbEntity
  8
Layer_1
 62
3
100
AcDbSpline
 70
8
 71
3
 72
8
 73
4
 74
0
 40
0
 40
0
 40
0
 40
0
 40
1
 40
1
 40
1
 40
1
 10
254.929107
 20
355.416888
 30
0.0
 10
246.182221
 20
349.927228
 30
0.0
 10
237.392028
 20
344.405339
 30
0.0
 10
228.961664
 20
339.151521
 30
0.0
  0
SPLINE
  5
181
100
AcDbEntity
  8
Layer_1
 62
3
100
AcDbSpline
 70
8
 71
3
 72
8
 73
4
 74
0
 40
0
 40
0
 40
0
 40
0
 40
1
 40
1
 40
1
 40
1
 10
228.961664
 20
339.151521
 30
0.0
 10
220.531297
 20
333.897704
 30
0.0
 10
212.460761
 20
328.912016
 30
0.0
 10
205.153186
 20
324.494816
 30
0.0
  0
SPLINE
  5
182
100
AcDbEntity
  8
Layer_1
 62
3
100
AcDbSpline
 70
8
 71
3
 72
8
 73
4
 74
0
 40
0
 40
0
 40
0
 40
0
 40
1
 40
1
 40
1
 40
1
 10
205.153186
 20
324.494816
 30
0.0
 10
197.845608
 20
320.077587
 30
0.0
 10
191.300995
 20
316.228847
 30
0.0
 10
185.922479
 20
313.248983
 30
0.0
  0
SPLINE
  5
183
100
AcDbEntity
  8
Layer_1
 62
3
100
AcDbSpline
 70
8
 71
3
 72
8
 73
4
 74
0
 40
0
 40
0
 40
0
 40
0
 40
1
 40
1
 40
1
 40
1
 10
185.922479
 20
313.248983
 30
0.0
 10
180.543963
 20
310.269090
 30
0.0
 10
176.331546
 20
308.158072
 30
0.0
 10
173.688358
 20
307.216290
 30
0.0
  0
SPLINE
  5
184
100
AcDbEntity
  8
Layer_1
 62
3
100
AcDbSpline
 70
8
 71
3
 72
8
 73
4
 74
0
 40
0
 40
0
 40
0
 40
0
 40
1
 40
1
 40
1
 40
1
 10
173.688358
 20
307.216290
 30
0.0
 10
171.045170
 20
306.274479
 30
0.0
 10
169.971216
 20
306.501931
 30
0.0
 10
170.869626
 20
308.198976
 30
0.0
  0
SPLINE
  5
185
100
AcDbEntity
  8
Layer_1
 62
3
100
AcDbSpline
 70
8
 71
3
 72
8
 73
4
 74
0
 40
0
 40
0
 40
0
 40
0
 40
1
 40
1
 40
1
 40
1
 10
170.869626
 20
308.198976
 30
0.0
 10
171.768039
 20
309.896022
 30
0.0
 10
174.638815
 20
313.062690
 30
0.0
 10
179.885095
 20
317.999310
 30
0.0
  0
SPLINE
  5
186
100
AcDbEntity
  8
Layer_1
 62
3
100
AcDbSpline
 70
8
 71
3
 72
8
 73
4
 74
0
 40
0
 40
0
 40
0
 40
0
 40
1
 40
1
 40
1
 40
1
 10
179.885095
 20
317.999310
 30
0.0
 10
185.131375
 20
322.935959
 30
0.0
 10
192.753153
 20
329.642561
 30
0.0
 10
203.153570
 20
338.419559
 30
0.0
  0
SPLINE
  5
187
100
AcDbEntity
  8
Layer_1
 62
3
100
AcDbSpline
 70
8
 71
3
 72
8
 73
4
 74
0
 40
0
 40
0
 40
0
 40
0
 40
1
 40
1
 40
1
 40
1
 10
203.153570
 20
338.419559
 30
0.0
 10
213.553987
 20
347.196529
 30
0.0
 10
226.733040
 20
358.043839
 30
0.0
 10
243.093864
 20
371.261906
 30
0.0
  0
SPLINE
  5
188
100
AcDbEntity
  8
Layer_1
 62
3
100
AcDbSpline
 70
8
 71
3
 72
8
 73
4
 74
0
 40
0
 40
0
 40
0
 40
0
 40
1
 40
1
 40
1
 40
1
 10
243.093864
 20
371.261906
 30
0.0
 10
222.472845
 20
360.076706
 30
0.0
 10
206.252535
 20
351.499323
 30
0.0
 10
193.728674
 20
345.112413
 30
0.0
  0
SPLINE
  5
189
100
AcDbEntity
  8
Layer_1
 62
3
100
AcDbSpline
 70
8
 71
3
 72
8
 73
4
 74
0
 40
0
 40
0
 40
0
 40
0
 40
1
 40
1
 40
1
 40
1
 10
193.728674
 20
345.112413
 30
0.0
 10
181.204809
 20
338.725531
 30
0.0
 10
172.377397
 20
334.529121
 30
0.0
 10
166.542168
 20
332.105839
 30
0.0
  0
SPLINE
  5
18a
100
AcDbEntity
  8
Layer_1
 62
3
100
AcDbSpline
 70
8
 71
3
 72
8
 73
4
 74
0
 40
0
 40
0
 40
0
 40
0
 40
1
 40
1
 40
1
 40
1
 10
166.542168
 20
332.105839
 30
0.0
 10
160.706940
 20
329.682586
 30
0.0
 10
157.863900
 20
329.032488
 30
0.0
 10
157.308783
 20
329.738173
 30
0.0
  0
SPLINE
  5
18b
100
AcDbEntity
  8
Layer_1
 62
3
100
AcDbSpline
 70
8
 71
3
 72
8
 73
4
 74
0
 40
0
 40
0
 40
0
 40
0
 40
1
 40
1
 40
1
 40
1
 10
157.308783
 20
329.738173
 30
0.0
 10
156.753669
 20
330.443858
 30
0.0
 10
158.486477
 20
332.505383
 30
0.0
 10
161.802950
 20
335.505345
 30
0.0
  0
SPLINE
  5
18c
100
AcDbEntity
  8
Layer_1
 62
3
100
AcDbSpline
 70
8
 71
3
 72
8
 73
4
 74
0
 40
0
 40
0
 40
0
 40
0
 40
1
 40
1
 40
1
 40
1
 10
161.802950
 20
335.505345
 30
0.0
 10
165.119426
 20
338.505307
 30
0.0
 10
170.019561
 20
342.443735
 30
0.0
 10
175.799103
 20
346.903313
 30
0.0
  0
SPLINE
  5
18d
100
AcDbEntity
  8
Layer_1
 62
3
100
AcDbSpline
 70
8
 71
3
 72
8
 73
4
 74
0
 40
0
 40
0
 40
0
 40
0
 40
1
 40
1
 40
1
 40
1
 10
175.799103
 20
346.903313
 30
0.0
 10
181.578643
 20
351.362891
 30
0.0
 10
188.237585
 20
356.343562
 30
0.0
 10
195.071669
 20
361.428066
 30
0.0
  0
SPLINE
  5
18e
100
AcDbEntity
  8
Layer_1
 62
3
100
AcDbSpline
 70
8
 71
3
 72
8
 73
4
 74
0
 40
0
 40
0
 40
0
 40
0
 40
1
 40
1
 40
1
 40
1
 10
195.071669
 20
361.428066
 30
0.0
 10
201.905756
 20
366.512542
 30
0.0
 10
208.914982
 20
371.700794
 30
0.0
 10
215.395089
 20
376.575534
 30
0.0
  0
SPLINE
  5
18f
100
AcDbEntity
  8
Layer_1
 62
3
100
AcDbSpline
 70
8
 71
3
 72
8
 73
4
 74
0
 40
0
 40
0
 40
0
 40
0
 40
1
 40
1
 40
1
 40
1
 10
215.395089
 20
376.575534
 30
0.0
 10
221.875194
 20
381.450246
 30
0.0
 10
227.826181
 20
386.011389
 30
0.0
 10
232.543789
 20
389.841676
 30
0.0
  0
SPLINE
  5
190
100
AcDbEntity
  8
Layer_1
 62
3
100
AcDbSpline
 70
8
 71
3
 72
8
 73
4
 74
0
 40
0
 40
0
 40
0
 40
0
 40
1
 40
1
 40
1
 40
1
 10
232.543789
 20
389.841676
 30
0.0
 10
214.486835
 20
381.405997
 30
0.0
 10
199.577758
 20
374.628557
 30
0.0
 10
187.464603
 20
369.323972
 30
0.0
  0
SPLINE
  5
191
100
AcDbEntity
  8
Layer_1
 62
3
100
AcDbSpline
 70
8
 71
3
 72
8
 73
4
 74
0
 40
0
 40
0
 40
0
 40
0
 40
1
 40
1
 40
1
 40
1
 10
187.464603
 20
369.323972
 30
0.0
 10
175.351445
 20
364.019386
 30
0.0
 10
166.034211
 20
360.187654
 30
0.0
 10
159.160946
 20
357.643361
 30
0.0
  0
SPLINE
  5
192
100
AcDbEntity
  8
Layer_1
 62
3
100
AcDbSpline
 70
8
 71
3
 72
8
 73
4
 74
0
 40
0
 40
0
 40
0
 40
0
 40
1
 40
1
 40
1
 40
1
 10
159.160946
 20
357.643361
 30
0.0
 10
152.287682
 20
355.099096
 30
0.0
 10
147.858386
 20
353.842243
 30
0.0
 10
145.521108
 20
353.687471
 30
0.0
  0
SPLINE
  5
193
100
AcDbEntity
  8
Layer_1
 62
3
100
AcDbSpline
 70
8
 71
3
 72
8
 73
4
 74
0
 40
0
 40
0
 40
0
 40
0
 40
1
 40
1
 40
1
 40
1
 10
145.521108
 20
353.687471
 30
0.0
 10
143.183832
 20
353.532699
 30
0.0
 10
142.938570
 20
354.479924
 30
0.0
 10
144.433372
 20
356.343817
 30
0.0
  0
SPLINE
  5
194
100
AcDbEntity
  8
Layer_1
 62
3
100
AcDbSpline
 70
8
 71
3
 72
8
 73
4
 74
0
 40
0
 40
0
 40
0
 40
0
 40
1
 40
1
 40
1
 40
1
 10
144.433372
 20
356.343817
 30
0.0
 10
145.928177
 20
358.207710
 30
0.0
 10
149.163043
 20
360.988243
 30
0.0
 10
153.786025
 20
364.500028
 30
0.0
  0
SPLINE
  5
195
100
AcDbEntity
  8
Layer_1
 62
3
100
AcDbSpline
 70
8
 71
3
 72
8
 73
4
 74
0
 40
0
 40
0
 40
0
 40
0
 40
1
 40
1
 40
1
 40
1
 10
153.786025
 20
364.500028
 30
0.0
 10
158.409003
 20
368.011786
 30
0.0
 10
164.420096
 20
372.254797
 30
0.0
 10
171.467348
 20
377.043647
 30
0.0
  0
SPLINE
  5
196
100
AcDbEntity
  8
Layer_1
 62
3
100
AcDbSpline
 70
8
 71
3
 72
8
 73
4
 74
0
 40
0
 40
0
 40
0
 40
0
 40
1
 40
1
 40
1
 40
1
 10
171.467348
 20
377.043647
 30
0.0
 10
178.514597
 20
381.832498
 30
0.0
 10
186.598009
 20
387.167187
 30
0.0
 10
195.365628
 20
392.862274
 30
0.0
  0
SPLINE
  5
197
100
AcDbEntity
  8
Layer_1
 62
3
100
AcDbSpline
 70
8
 71
3
 72
8
 73
4
 74
0
 40
0
 40
0
 40
0
 40
0
 40
1
 40
1
 40
1
 40
1
 10
195.365628
 20
392.862274
 30
0.0
 10
204.133246
 20
398.557389
 30
0.0
 10
213.585069
 20
404.612929
 30
0.0
 10
223.369149
 20
410.843509
 30
0.0
  0
SPLINE
  5
198
100
AcDbEntity
  8
Layer_1
 62
3
100
AcDbSpline
 70
8
 71
3
 72
8
 73
4
 74
0
 40
0
 40
0
 40
0
 40
0
 40
1
 40
1
 40
1
 40
1
 10
223.369149
 20
410.843509
 30
0.0
 10
199.098731
 20
402.825515
 30
0.0
 10
180.411925
 20
396.901389
 30
0.0
 10
166.337495
 20
392.706879
 30
0.0
  0
SPLINE
  5
199
100
AcDbEntity
  8
Layer_1
 62
3
100
AcDbSpline
 70
8
 71
3
 72
8
 73
4
 74
0
 40
0
 40
0
 40
0
 40
0
 40
1
 40
1
 40
1
 40
1
 10
166.337495
 20
392.706879
 30
0.0
 10
152.263063
 20
388.512397
 30
0.0
 10
142.801010
 20
386.047531
 30
0.0
 10
136.980096
 20
384.948113
 30
0.0
  0
SPLINE
  5
19a
100
AcDbEntity
  8
Layer_1
 62
3
100
AcDbSpline
 70
8
 71
3
 72
8
 73
4
 74
0
 40
0
 40
0
 40
0
 40
0
 40
1
 40
1
 40
1
 40
1
 10
136.980096
 20
384.948113
 30
0.0
 10
131.159183
 20
383.848696
 30
0.0
 10
128.979408
 20
384.114699
 30
0.0
 10
129.469544
 20
385.381899
 30
0.0
  0
SPLINE
  5
19b
100
AcDbEntity
  8
Layer_1
 62
3
100
AcDbSpline
 70
8
 71
3
 72
8
 73
4
 74
0
 40
0
 40
0
 40
0
 40
0
 40
1
 40
1
 40
1
 40
1
 10
129.469544
 20
385.381899
 30
0.0
 10
129.959677
 20
386.649128
 30
0.0
 10
133.119720
 20
388.917553
 30
0.0
 10
137.978430
 20
391.823008
 30
0.0
  0
SPLINE
  5
19c
100
AcDbEntity
  8
Layer_1
 62
3
100
AcDbSpline
 70
8
 71
3
 72
8
 73
4
 74
0
 40
0
 40
0
 40
0
 40
0
 40
1
 40
1
 40
1
 40
1
 10
137.978430
 20
391.823008
 30
0.0
 10
142.837143
 20
394.728435
 30
0.0
 10
149.394529
 20
398.270863
 30
0.0
 10
156.679350
 20
402.086098
 30
0.0
  0
SPLINE
  5
19d
100
AcDbEntity
  8
Layer_1
 62
3
100
AcDbSpline
 70
8
 71
3
 72
8
 73
4
 74
0
 40
0
 40
0
 40
0
 40
0
 40
1
 40
1
 40
1
 40
1
 10
156.679350
 20
402.086098
 30
0.0
 10
163.964171
 20
405.901332
 30
0.0
 10
171.976431
 20
409.989345
 30
0.0
 10
179.744890
 20
413.985940
 30
0.0
  0
SPLINE
  5
19e
100
AcDbEntity
  8
Layer_1
 62
3
100
AcDbSpline
 70
8
 71
3
 72
8
 73
4
 74
0
 40
0
 40
0
 40
0
 40
0
 40
1
 40
1
 40
1
 40
1
 10
179.744890
 20
413.985940
 30
0.0
 10
187.513353
 20
417.982535
 30
0.0
 10
195.038016
 20
421.887685
 30
0.0
 10
201.347649
 20
425.337222
 30
0.0
  0
SPLINE
  5
19f
100
AcDbEntity
  8
Layer_1
 62
3
100
AcDbSpline
 70
8
 71
3
 72
8
 73
4
 74
0
 40
0
 40
0
 40
0
 40
0
 40
1
 40
1
 40
1
 40
1
 10
201.347649
 20
425.337222
 30
0.0
 10
207.657281
 20
428.786759
 30
0.0
 10
212.751879
 20
431.780655
 30
0.0
 10
215.660211
 20
433.954687
 30
0.0
  0
SPLINE
  5
1a0
100
AcDbEntity
  8
Layer_1
 62
3
100
AcDbSpline
 70
8
 71
3
 72
8
 73
4
 74
0
 40
0
 40
0
 40
0
 40
0
 40
1
 40
1
 40
1
 40
1
 10
215.660211
 20
433.954687
 30
0.0
 10
190.429943
 20
430.235575
 30
0.0
 10
170.986178
 20
427.618658
 30
0.0
 10
156.329634
 20
425.913619
 30
0.0
  0
SPLINE
  5
1a1
100
AcDbEntity
  8
Layer_1
 62
3
100
AcDbSpline
 70
8
 71
3
 72
8
 73
4
 74
0
 40
0
 40
0
 40
0
 40
0
 40
1
 40
1
 40
1
 40
1
 10
156.329634
 20
425.913619
 30
0.0
 10
141.673088
 20
424.208551
 30
0.0
 10
131.803761
 20
423.415332
 30
0.0
 10
125.722363
 20
423.343644
 30
0.0
  0
SPLINE
  5
1a2
100
AcDbEntity
  8
Layer_1
 62
3
100
AcDbSpline
 70
8
 71
3
 72
8
 73
4
 74
0
 40
0
 40
0
 40
0
 40
0
 40
1
 40
1
 40
1
 40
1
 10
125.722363
 20
423.343644
 30
0.0
 10
119.640969
 20
423.271928
 30
0.0
 10
117.347499
 20
423.921742
 30
0.0
 10
117.842672
 20
425.102712
 30
0.0
  0
SPLINE
  5
1a3
100
AcDbEntity
  8
Layer_1
 62
3
100
AcDbSpline
 70
8
 71
3
 72
8
 73
4
 74
0
 40
0
 40
0
 40
0
 40
0
 40
1
 40
1
 40
1
 40
1
 10
117.842672
 20
425.102712
 30
0.0
 10
118.337845
 20
426.283710
 30
0.0
 10
121.621657
 20
427.995865
 30
0.0
 10
126.694823
 20
430.048828
 30
0.0
  0
SPLINE
  5
1a4
100
AcDbEntity
  8
Layer_1
 62
3
100
AcDbSpline
 70
8
 71
3
 72
8
 73
4
 74
0
 40
0
 40
0
 40
0
 40
0
 40
1
 40
1
 40
1
 40
1
 10
126.694823
 20
430.048828
 30
0.0
 10
131.767991
 20
432.101792
 30
0.0
 10
138.630506
 20
434.495622
 30
0.0
 10
146.283089
 20
437.039915
 30
0.0
  0
SPLINE
  5
1a5
100
AcDbEntity
  8
Layer_1
 62
3
100
AcDbSpline
 70
8
 71
3
 72
8
 73
4
 74
0
 40
0
 40
0
 40
0
 40
0
 40
1
 40
1
 40
1
 40
1
 10
146.283089
 20
437.039915
 30
0.0
 10
153.935671
 20
439.584208
 30
0.0
 10
162.378315
 20
442.278992
 30
0.0
 10
170.611736
 20
444.933921
 30
0.0
  0
SPLINE
  5
1a6
100
AcDbEntity
  8
Layer_1
 62
3
100
AcDbSpline
 70
8
 71
3
 72
8
 73
4
 74
0
 40
0
 40
0
 40
0
 40
0
 40
1
 40
1
 40
1
 40
1
 10
170.611736
 20
444.933921
 30
0.0
 10
178.845154
 20
447.588850
 30
0.0
 10
186.869347
 20
450.203924
 30
0.0
 10
193.685029
 20
452.588825
 30
0.0
  0
SPLINE
  5
1a7
100
AcDbEntity
  8
Layer_1
 62
3
100
AcDbSpline
 70
8
 71
3
 72
8
 73
4
 74
0
 40
0
 40
0
 40
0
 40
0
 40
1
 40
1
 40
1
 40
1
 10
193.685029
 20
452.588825
 30
0.0
 10
200.500710
 20
454.973698
 30
0.0
 10
206.107877
 20
457.128397
 30
0.0
 10
209.507241
 20
458.862548
 30
0.0
  0
SPLINE
  5
1a8
100
AcDbEntity
  8
Layer_1
 62
3
100
AcDbSpline
 70
8
 71
3
 72
8
 73
4
 74
0
 40
0
 40
0
 40
0
 40
0
 40
1
 40
1
 40
1
 40
1
 10
209.507241
 20
458.862548
 30
0.0
 10
183.136317
 20
456.637351
 30
0.0
 10
163.057453
 20
455.211184
 30
0.0
 10
148.138466
 20
454.440217
 30
0.0
  0
SPLINE
  5
1a9
100
AcDbEntity
  8
Layer_1
 62
3
100
AcDbSpline
 70
8
 71
3
 72
8
 73
4
 74
0
 40
0
 40
0
 40
0
 40
0
 40
1
 40
1
 40
1
 40
1
 10
148.138466
 20
454.440217
 30
0.0
 10
133.219480
 20
453.669250
 30
0.0
 10
123.460367
 20
453.553483
 30
0.0
 10
117.728940
 20
453.949200
 30
0.0
  0
SPLINE
  5
1aa
100
AcDbEntity
  8
Layer_1
 62
3
100
AcDbSpline
 70
8
 71
3
 72
8
 73
4
 74
0
 40
0
 40
0
 40
0
 40
0
 40
1
 40
1
 40
1
 40
1
 10
117.728940
 20
453.949200
 30
0.0
 10
111.997511
 20
454.344917
 30
0.0
 10
110.293770
 20
455.252060
 30
0.0
 10
111.485526
 20
456.526913
 30
0.0
  0
SPLINE
  5
1ab
100
AcDbEntity
  8
Layer_1
 62
3
100
AcDbSpline
 70
8
 71
3
 72
8
 73
4
 74
0
 40
0
 40
0
 40
0
 40
0
 40
1
 40
1
 40
1
 40
1
 10
111.485526
 20
456.526913
 30
0.0
 10
112.677282
 20
457.801739
 30
0.0
 10
116.764534
 20
459.444274
 30
0.0
 10
122.615096
 20
461.310690
 30
0.0
  0
SPLINE
  5
1ac
100
AcDbEntity
  8
Layer_1
 62
3
100
AcDbSpline
 70
8
 71
3
 72
8
 73
4
 74
0
 40
0
 40
0
 40
0
 40
0
 40
1
 40
1
 40
1
 40
1
 10
122.615096
 20
461.310690
 30
0.0
 10
128.465654
 20
463.177134
 30
0.0
 10
136.079524
 20
465.267487
 30
0.0
 10
144.324510
 20
467.437975
 30
0.0
  0
SPLINE
  5
1ad
100
AcDbEntity
  8
Layer_1
 62
3
100
AcDbSpline
 70
8
 71
3
 72
8
 73
4
 74
0
 40
0
 40
0
 40
0
 40
0
 40
1
 40
1
 40
1
 40
1
 10
144.324510
 20
467.437975
 30
0.0
 10
152.569497
 20
469.608463
 30
0.0
 10
161.445603
 20
471.859087
 30
0.0
 10
169.820640
 20
474.046101
 30
0.0
  0
SPLINE
  5
1ae
100
AcDbEntity
  8
Layer_1
 62
3
100
AcDbSpline
 70
8
 71
3
 72
8
 73
4
 74
0
 40
0
 40
0
 40
0
 40
0
 40
1
 40
1
 40
1
 40
1
 10
169.820640
 20
474.046101
 30
0.0
 10
178.195674
 20
476.233087
 30
0.0
 10
186.069643
 20
478.356463
 30
0.0
 10
192.310350
 20
480.272428
 30
0.0
  0
SPLINE
  5
1af
100
AcDbEntity
  8
Layer_1
 62
3
100
AcDbSpline
 70
8
 71
3
 72
8
 73
4
 74
0
 40
0
 40
0
 40
0
 40
0
 40
1
 40
1
 40
1
 40
1
 10
192.310350
 20
480.272428
 30
0.0
 10
198.551058
 20
482.188422
 30
0.0
 10
203.158505
 20
483.897005
 30
0.0
 10
205.000506
 20
485.254403
 30
0.0
  0
SPLINE
  5
1b0
100
AcDbEntity
  8
Layer_1
 62
3
100
AcDbSpline
 70
8
 71
3
 72
8
 73
4
 74
0
 40
0
 40
0
 40
0
 40
0
 40
1
 40
1
 40
1
 40
1
 10
205.000506
 20
485.254403
 30
0.0
 10
184.574407
 20
483.411373
 30
0.0
 10
167.754824
 20
482.099528
 30
0.0
 10
154.141376
 20
481.259906
 30
0.0
  0
SPLINE
  5
1b1
100
AcDbEntity
  8
Layer_1
 62
3
100
AcDbSpline
 70
8
 71
3
 72
8
 73
4
 74
0
 40
0
 40
0
 40
0
 40
0
 40
1
 40
1
 40
1
 40
1
 10
154.141376
 20
481.259906
 30
0.0
 10
140.527928
 20
480.420312
 30
0.0
 10
130.120614
 20
480.052913
 30
0.0
 10
122.519055
 20
480.098750
 30
0.0
  0
SPLINE
  5
1b2
100
AcDbEntity
  8
Layer_1
 62
3
100
AcDbSpline
 70
8
 71
3
 72
8
 73
4
 74
0
 40
0
 40
0
 40
0
 40
0
 40
1
 40
1
 40
1
 40
1
 10
122.519055
 20
480.098750
 30
0.0
 10
114.917496
 20
480.144671
 30
0.0
 10
110.121693
 20
480.603713
 30
0.0
 10
107.731261
 20
481.417115
 30
0.0
  0
SPLINE
  5
1b3
100
AcDbEntity
  8
Layer_1
 62
3
100
AcDbSpline
 70
8
 71
3
 72
8
 73
4
 74
0
 40
0
 40
0
 40
0
 40
0
 40
1
 40
1
 40
1
 40
1
 10
107.731261
 20
481.417115
 30
0.0
 10
105.340830
 20
482.230488
 30
0.0
 10
105.355772
 20
483.398164
 30
0.0
 10
107.375709
 20
484.861124
 30
0.0
  0
SPLINE
  5
1b4
100
AcDbEntity
  8
Layer_1
 62
3
100
AcDbSpline
 70
8
 71
3
 72
8
 73
4
 74
0
 40
0
 40
0
 40
0
 40
0
 40
1
 40
1
 40
1
 40
1
 10
107.375709
 20
484.861124
 30
0.0
 10
109.395646
 20
486.324113
 30
0.0
 10
113.420574
 20
488.082387
 30
0.0
 10
119.050118
 20
490.077014
 30
0.0
  0
SPLINE
  5
1b5
100
AcDbEntity
  8
Layer_1
 62
3
100
AcDbSpline
 70
8
 71
3
 72
8
 73
4
 74
0
 40
0
 40
0
 40
0
 40
0
 40
1
 40
1
 40
1
 40
1
 10
119.050118
 20
490.077014
 30
0.0
 10
124.679659
 20
492.071641
 30
0.0
 10
131.913816
 20
494.302592
 30
0.0
 10
140.352202
 20
496.710935
 30
0.0
  0
SPLINE
  5
1b6
100
AcDbEntity
  8
Layer_1
 62
3
100
AcDbSpline
 70
8
 71
3
 72
8
 73
4
 74
0
 40
0
 40
0
 40
0
 40
0
 40
1
 40
1
 40
1
 40
1
 10
140.352202
 20
496.710935
 30
0.0
 10
148.790591
 20
499.119250
 30
0.0
 10
158.433211
 20
501.704957
 30
0.0
 10
168.879682
 20
504.409039
 30
0.0
  0
SPLINE
  5
1b7
100
AcDbEntity
  8
Layer_1
 62
3
100
AcDbSpline
 70
8
 71
3
 72
8
 73
4
 74
0
 40
0
 40
0
 40
0
 40
0
 40
1
 40
1
 40
1
 40
1
 10
168.879682
 20
504.409039
 30
0.0
 10
179.326154
 20
507.113121
 30
0.0
 10
190.576477
 20
509.935606
 30
0.0
 10
202.230272
 20
512.817534
 30
0.0
  0
SPLINE
  5
1b8
100
AcDbEntity
  8
Layer_1
 62
3
100
AcDbSpline
 70
8
 71
3
 72
8
 73
4
 74
0
 40
0
 40
0
 40
0
 40
0
 40
1
 40
1
 40
1
 40
1
 10
202.230272
 20
512.817534
 30
0.0
 10
187.557525
 20
512.948211
 30
0.0
 10
174.430661
 20
513.190120
 30
0.0
 10
162.955913
 20
513.550998
 30
0.0
  0
SPLINE
  5
1b9
100
AcDbEntity
  8
Layer_1
 62
3
100
AcDbSpline
 70
8
 71
3
 72
8
 73
4
 74
0
 40
0
 40
0
 40
0
 40
0
 40
1
 40
1
 40
1
 40
1
 10
162.955913
 20
513.550998
 30
0.0
 10
151.481163
 20
513.911877
 30
0.0
 10
141.658534
 20
514.391726
 30
0.0
 10
133.594257
 20
514.998170
 30
0.0
  0
SPLINE
  5
1ba
100
AcDbEntity
  8
Layer_1
 62
3
100
AcDbSpline
 70
8
 71
3
 72
8
 73
4
 74
0
 40
0
 40
0
 40
0
 40
0
 40
1
 40
1
 40
1
 40
1
 10
133.594257
 20
514.998170
 30
0.0
 10
125.529982
 20
515.604614
 30
0.0
 10
119.224060
 20
516.337654
 30
0.0
 10
114.782729
 20
517.204970
 30
0.0
  0
SPLINE
  5
1bb
100
AcDbEntity
  8
Layer_1
 62
3
100
AcDbSpline
 70
8
 71
3
 72
8
 73
4
 74
0
 40
0
 40
0
 40
0
 40
0
 40
1
 40
1
 40
1
 40
1
 10
114.782729
 20
517.204970
 30
0.0
 10
110.341400
 20
518.072258
 30
0.0
 10
107.764662
 20
519.073795
 30
0.0
 10
107.158751
 20
520.217235
 30
0.0
  0
SPLINE
  5
1bc
100
AcDbEntity
  8
Layer_1
 62
3
100
AcDbSpline
 70
8
 71
3
 72
8
 73
4
 74
0
 40
0
 40
0
 40
0
 40
0
 40
1
 40
1
 40
1
 40
1
 10
107.158751
 20
520.217235
 30
0.0
 10
106.552843
 20
521.360702
 30
0.0
 10
107.917761
 20
522.646044
 30
0.0
 10
111.359747
 20
524.080942
 30
0.0
  0
SPLINE
  5
1bd
100
AcDbEntity
  8
Layer_1
 62
3
100
AcDbSpline
 70
8
 71
3
 72
8
 73
4
 74
0
 40
0
 40
0
 40
0
 40
0
 40
1
 40
1
 40
1
 40
1
 10
111.359747
 20
524.080942
 30
0.0
 10
114.801732
 20
525.515811
 30
0.0
 10
120.320785
 20
527.100265
 30
0.0
 10
128.023138
 20
528.841899
 30
0.0
  0
SPLINE
  5
1be
100
AcDbEntity
  8
Layer_1
 62
3
100
AcDbSpline
 70
8
 71
3
 72
8
 73
4
 74
0
 40
0
 40
0
 40
0
 40
0
 40
1
 40
1
 40
1
 40
1
 10
128.023138
 20
528.841899
 30
0.0
 10
135.725494
 20
530.583534
 30
0.0
 10
145.611150
 20
532.482378
 30
0.0
 10
157.786350
 20
534.546057
 30
0.0
  0
SPLINE
  5
1bf
100
AcDbEntity
  8
Layer_1
 62
3
100
AcDbSpline
 70
8
 71
3
 72
8
 73
4
 74
0
 40
0
 40
0
 40
0
 40
0
 40
1
 40
1
 40
1
 40
1
 10
157.786350
 20
534.546057
 30
0.0
 10
169.961547
 20
536.609764
 30
0.0
 10
184.426285
 20
538.838277
 30
0.0
 10
201.286800
 20
541.239307
 30
0.0
  0
SPLINE
  5
1c0
100
AcDbEntity
  8
Layer_1
 62
3
100
AcDbSpline
 70
8
 71
3
 72
8
 73
4
 74
0
 40
0
 40
0
 40
0
 40
0
 40
1
 40
1
 40
1
 40
1
 10
351.428570
 20
541.454825
 30
0.0
 10
351.428567
 20
516.680477
 30
0.0
 10
343.260035
 20
493.788038
 30
0.0
 10
329.999981
 20
481.400872
 30
0.0
  0
SPLINE
  5
1c1
100
AcDbEntity
  8
Layer_1
 62
3
100
AcDbSpline
 70
8
 71
3
 72
8
 73
4
 74
0
 40
0
 40
0
 40
0
 40
0
 40
1
 40
1
 40
1
 40
1
 10
329.999981
 20
481.400872
 30
0.0
 10
316.739933
 20
469.013701
 30
0.0
 10
300.402880
 20
469.013701
 30
0.0
 10
287.142832
 20
481.400872
 30
0.0
  0
SPLINE
  5
1c2
100
AcDbEntity
  8
Layer_1
 62
3
100
AcDbSpline
 70
8
 71
3
 72
8
 73
4
 74
0
 40
0
 40
0
 40
0
 40
0
 40
1
 40
1
 40
1
 40
1
 10
287.142832
 20
481.400872
 30
0.0
 10
273.882789
 20
493.788050
 30
0.0
 10
265.714268
 20
516.680486
 30
0.0
 10
265.714271
 20
541.454825
 30
0.0
  0
LWPOLYLINE
  5
1c3
100
AcDbEntity
  8
Layer_1
 62
3
100
AcDbPolyline
 90
9
 70
0
 10
201.286800
 20
541.239307
 30
0.0
 10
228.107957
 20
541.239307
 30
0.0
 10
254.929110
 20
541.239307
 30
0.0
 10
281.750267
 20
541.239307
 30
0.0
 10
308.571420
 20
541.239307
 30
0.0
 10
335.392583
 20
541.239307
 30
0.0
 10
362.213745
 20
541.239307
 30
0.0
 10
389.034879
 20
541.239307
 30
0.0
 10
415.856041
 20
541.239449
 30
0.0
  0
SPLINE
  5
1c4
100
AcDbEntity
  8
Layer_1
 62
3
100
AcDbSpline
 70
8
 71
3
 72
8
 73
4
 74
0
 40
0
 40
0
 40
0
 40
0
 40
1
 40
1
 40
1
 40
1
 10
415.856041
 20
541.239449
 30
0.0
 10
415.856041
 20
531.657156
 30
0.0
 10
415.536548
 20
522.165883
 30
0.0
 10
414.912557
 20
512.817676
 30
0.0
  0
SPLINE
  5
1c5
100
AcDbEntity
  8
Layer_1
 62
3
100
AcDbSpline
 70
8
 71
3
 72
8
 73
4
 74
0
 40
0
 40
0
 40
0
 40
0
 40
1
 40
1
 40
1
 40
1
 10
414.912557
 20
512.817676
 30
0.0
 10
414.288595
 20
503.469496
 30
0.0
 10
413.360192
 20
494.264409
 30
0.0
 10
412.142343
 20
485.254545
 30
0.0
  0
SPLINE
  5
1c6
100
AcDbEntity
  8
Layer_1
 62
3
100
AcDbSpline
 70
8
 71
3
 72
8
 73
4
 74
0
 40
0
 40
0
 40
0
 40
0
 40
1
 40
1
 40
1
 40
1
 10
412.142343
 20
485.254545
 30
0.0
 10
410.924494
 20
476.244680
 30
0.0
 10
409.417228
 20
467.430009
 30
0.0
 10
407.635597
 20
458.862690
 30
0.0
  0
SPLINE
  5
1c7
100
AcDbEntity
  8
Layer_1
 62
3
100
AcDbSpline
 70
8
 71
3
 72
8
 73
4
 74
0
 40
0
 40
0
 40
0
 40
0
 40
1
 40
1
 40
1
 40
1
 10
407.635597
 20
458.862690
 30
0.0
 10
405.853965
 20
450.295370
 30
0.0
 10
403.797940
 20
441.975373
 30
0.0
 10
401.482630
 20
433.954828
 30
0.0
  0
SPLINE
  5
1c8
100
AcDbEntity
  8
Layer_1
 62
3
100
AcDbSpline
 70
8
 71
3
 72
8
 73
4
 74
0
 40
0
 40
0
 40
0
 40
0
 40
1
 40
1
 40
1
 40
1
 10
401.482630
 20
433.954828
 30
0.0
 10
399.167291
 20
425.934255
 30
0.0
 10
396.592639
 20
418.213162
 30
0.0
 10
393.773698
 20
410.843622
 30
0.0
  0
SPLINE
  5
1c9
100
AcDbEntity
  8
Layer_1
 62
3
100
AcDbSpline
 70
8
 71
3
 72
8
 73
4
 74
0
 40
0
 40
0
 40
0
 40
0
 40
1
 40
1
 40
1
 40
1
 10
393.773698
 20
410.843622
 30
0.0
 10
390.954756
 20
403.474082
 30
0.0
 10
387.891524
 20
396.456094
 30
0.0
 10
384.599055
 20
389.841817
 30
0.0
  0
SPLINE
  5
1ca
100
AcDbEntity
  8
Layer_1
 62
3
100
AcDbSpline
 70
8
 71
3
 72
8
 73
4
 74
0
 40
0
 40
0
 40
0
 40
0
 40
1
 40
1
 40
1
 40
1
 10
384.599055
 20
389.841817
 30
0.0
 10
381.306586
 20
383.227512
 30
0.0
 10
377.784879
 20
377.016888
 30
0.0
 10
374.048957
 20
371.262047
 30
0.0
  0
SPLINE
  5
1cb
100
AcDbEntity
  8
Layer_1
 62
3
100
AcDbSpline
 70
8
 71
3
 72
8
 73
4
 74
0
 40
0
 40
0
 40
0
 40
0
 40
1
 40
1
 40
1
 40
1
 10
374.048957
 20
371.262047
 30
0.0
 10
370.313065
 20
365.507206
 30
0.0
 10
366.362957
 20
360.208148
 30
0.0
 10
362.213717
 20
355.417030
 30
0.0
  0
SPLINE
  5
1cc
100
AcDbEntity
  8
Layer_1
 62
3
100
AcDbSpline
 70
8
 71
3
 72
8
 73
4
 74
0
 40
0
 40
0
 40
0
 40
0
 40
1
 40
1
 40
1
 40
1
 10
362.213717
 20
355.417030
 30
0.0
 10
358.064447
 20
350.625883
 30
0.0
 10
353.794847
 20
346.433641
 30
0.0
 10
349.434992
 20
342.840302
 30
0.0
  0
SPLINE
  5
1cd
100
AcDbEntity
  8
Layer_1
 62
3
100
AcDbSpline
 70
8
 71
3
 72
8
 73
4
 74
0
 40
0
 40
0
 40
0
 40
0
 40
1
 40
1
 40
1
 40
1
 10
349.434992
 20
342.840302
 30
0.0
 10
345.075137
 20
339.246964
 30
0.0
 10
340.624998
 20
336.252472
 30
0.0
 10
336.114680
 20
333.856913
 30
0.0
  0
SPLINE
  5
1ce
100
AcDbEntity
  8
Layer_1
 62
3
100
AcDbSpline
 70
8
 71
3
 72
8
 73
4
 74
0
 40
0
 40
0
 40
0
 40
0
 40
1
 40
1
 40
1
 40
1
 10
336.114680
 20
333.856913
 30
0.0
 10
331.604362
 20
331.461354
 30
0.0
 10
327.033893
 20
329.664671
 30
0.0
 10
322.433320
 20
328.466891
 30
0.0
  0
SPLINE
  5
1cf
100
AcDbEntity
  8
Layer_1
 62
3
100
AcDbSpline
 70
8
 71
3
 72
8
 73
4
 74
0
 40
0
 40
0
 40
0
 40
0
 40
1
 40
1
 40
1
 40
1
 10
322.433320
 20
328.466891
 30
0.0
 10
317.832746
 20
327.269112
 30
0.0
 10
313.202069
 20
326.670208
 30
0.0
 10
308.571392
 20
326.670208
 30
0.0
  0
SPLINE
  5
1d0
100
AcDbEntity
  8
Layer_1
 62
3
100
AcDbSpline
 70
8
 71
3
 72
8
 73
4
 74
0
 40
0
 40
0
 40
0
 40
0
 40
1
 40
1
 40
1
 40
1
 10
308.571392
 20
326.670208
 30
0.0
 10
303.940715
 20
326.670208
 30
0.0
 10
299.310066
 20
327.269112
 30
0.0
 10
294.709493
 20
328.466891
 30
0.0
  0
SPLINE
  5
1d1
100
AcDbEntity
  8
Layer_1
 62
3
100
AcDbSpline
 70
8
 71
3
 72
8
 73
4
 74
0
 40
0
 40
0
 40
0
 40
0
 40
1
 40
1
 40
1
 40
1
 10
294.709493
 20
328.466891
 30
0.0
 10
290.108920
 20
329.664671
 30
0.0
 10
285.538422
 20
331.461326
 30
0.0
 10
281.028138
 20
333.856913
 30
0.0
  0
SPLINE
  5
1d2
100
AcDbEntity
  8
Layer_1
 62
3
100
AcDbSpline
 70
8
 71
3
 72
8
 73
4
 74
0
 40
0
 40
0
 40
0
 40
0
 40
1
 40
1
 40
1
 40
1
 10
281.028138
 20
333.856913
 30
0.0
 10
276.517828
 20
336.252501
 30
0.0
 10
272.067695
 20
339.246964
 30
0.0
 10
267.707832
 20
342.840302
 30
0.0
  0
SPLINE
  5
1d3
100
AcDbEntity
  8
Layer_1
 62
3
100
AcDbSpline
 70
8
 71
3
 72
8
 73
4
 74
0
 40
0
 40
0
 40
0
 40
0
 40
1
 40
1
 40
1
 40
1
 10
267.707832
 20
342.840302
 30
0.0
 10
263.347965
 20
346.433669
 30
0.0
 10
259.078363
 20
350.625883
 30
0.0
 10
254.929119
 20
355.417030
 30
0.0
  0
SPLINE
  5
1d4
100
AcDbEntity
  8
Layer_1
 62
3
100
AcDbSpline
 70
8
 71
3
 72
8
 73
4
 74
0
 40
0
 40
0
 40
0
 40
0
 40
1
 40
1
 40
1
 40
1
 10
254.929119
 20
355.417030
 30
0.0
 10
250.779872
 20
360.208176
 30
0.0
 10
246.829776
 20
365.507206
 30
0.0
 10
243.093875
 20
371.262047
 30
0.0
  0
SPLINE
  5
1d5
100
AcDbEntity
  8
Layer_1
 62
3
100
AcDbSpline
 70
8
 71
3
 72
8
 73
4
 74
0
 40
0
 40
0
 40
0
 40
0
 40
1
 40
1
 40
1
 40
1
 10
243.093875
 20
371.262047
 30
0.0
 10
239.357974
 20
377.016888
 30
0.0
 10
235.836266
 20
383.227512
 30
0.0
 10
232.543800
 20
389.841817
 30
0.0
  0
SPLINE
  5
1d6
100
AcDbEntity
  8
Layer_1
 62
3
100
AcDbSpline
 70
8
 71
3
 72
8
 73
4
 74
0
 40
0
 40
0
 40
0
 40
0
 40
1
 40
1
 40
1
 40
1
 10
232.543800
 20
389.841817
 30
0.0
 10
229.251334
 20
396.456123
 30
0.0
 10
226.188105
 20
403.474110
 30
0.0
 10
223.369160
 20
410.843650
 30
0.0
  0
SPLINE
  5
1d7
100
AcDbEntity
  8
Layer_1
 62
3
100
AcDbSpline
 70
8
 71
3
 72
8
 73
4
 74
0
 40
0
 40
0
 40
0
 40
0
 40
1
 40
1
 40
1
 40
1
 10
223.369160
 20
410.843650
 30
0.0
 10
220.550216
 20
418.213191
 30
0.0
 10
217.975555
 20
425.934283
 30
0.0
 10
215.660222
 20
433.954828
 30
0.0
  0
SPLINE
  5
1d8
100
AcDbEntity
  8
Layer_1
 62
3
100
AcDbSpline
 70
8
 71
3
 72
8
 73
4
 74
0
 40
0
 40
0
 40
0
 40
0
 40
1
 40
1
 40
1
 40
1
 10
215.660222
 20
433.954828
 30
0.0
 10
213.344889
 20
441.975373
 30
0.0
 10
211.288884
 20
450.295370
 30
0.0
 10
209.507253
 20
458.862690
 30
0.0
  0
SPLINE
  5
1d9
100
AcDbEntity
  8
Layer_1
 62
3
100
AcDbSpline
 70
8
 71
3
 72
8
 73
4
 74
0
 40
0
 40
0
 40
0
 40
0
 40
1
 40
1
 40
1
 40
1
 10
209.507253
 20
458.862690
 30
0.0
 10
207.725621
 20
467.430009
 30
0.0
 10
206.218361
 20
476.244680
 30
0.0
 10
205.000517
 20
485.254545
 30
0.0
  0
SPLINE
  5
1da
100
AcDbEntity
  8
Layer_1
 62
3
100
AcDbSpline
 70
8
 71
3
 72
8
 73
4
 74
0
 40
0
 40
0
 40
0
 40
0
 40
1
 40
1
 40
1
 40
1
 10
205.000517
 20
485.254545
 30
0.0
 10
203.782677
 20
494.264409
 30
0.0
 10
202.854249
 20
503.469496
 30
0.0
 10
202.230283
 20
512.817676
 30
0.0
  0
SPLINE
  5
1db
100
AcDbEntity
  8
Layer_1
 62
3
100
AcDbSpline
 70
8
 71
3
 72
8
 73
4
 74
0
 40
0
 40
0
 40
0
 40
0
 40
1
 40
1
 40
1
 40
1
 10
202.230283
 20
512.817676
 30
0.0
 10
201.606316
 20
522.165883
 30
0.0
 10
201.286811
 20
531.657156
 30
0.0
 10
201.286811
 20
541.239449
 30
0.0
  0
LWPOLYLINE
  5
1dc
100
AcDbEntity
  8
Layer_1
 62
3
100
AcDbPolyline
 90
3
 70
0
 10
265.714271
 20
541.454825
 30
0.0
 10
308.571420
 20
541.454825
 30
0.0
 10
351.428570
 20
541.454825
 30
0.0
  0
ENDSEC
  0
SECTION
  2
OBJECTS
  0
DICTIONARY
  5
C
330
0
100
AcDbDictionary
  3
ACAD_GROUP
350
D
  3
ACAD_MLINESTYLE
350
17
  0
DICTIONARY
  5
D
330
C
100
AcDbDictionary
  0
DICTIONARY
  5
1A
330
C
100
AcDbDictionary
  0
DICTIONARY
  5
17
330
C
100
AcDbDictionary
  3
STANDARD
350
18
  0
DICTIONARY
  5
19
330
C
100
AcDbDictionary
  0
ENDSEC
  0
EOF
