  0
SECTION
  2
HEADER
  9
$ACADVER
  1
AC1014
  9
$HANDSEED
  5
FFFF
  9
$MEASUREMENT
 70
     1
  0
ENDSEC
  0
SECTION
  2
TABLES
  0
TABLE
  2
VPORT
  5
8
330
0
100
AcDbSymbolTable
 70
     4
  0
VPORT
  5
2E
330
8
100
AcDbSymbolTableRecord
100
AcDbViewportTableRecord
  2
*ACTIVE
 70
     0
 10
0.0
 20
0.0
 11
1.0
 21
1.0
 12
210.0
 22
148.5
 13
0.0
 23
0.0
 14
10.0
 24
10.0
 15
10.0
 25
10.0
 16
0.0
 26
0.0
 36
1.0
 17
0.0
 27
0.0
 37
0.0
 40
341.0
 41
1.24
 42
50.0
 43
0.0
 44
0.0
 50
0.0
 51
0.0
 71
     0
 72
   100
 73
     1
 74
     3
 75
     0
 76
     0
 77
     0
 78
     0
  0
ENDTAB
  0
TABLE
  2
LTYPE
  5
5
330
0
100
AcDbSymbolTable
 70
     1
  0
LTYPE
  5
14
330
5
100
AcDbSymbolTableRecord
100
AcDbLinetypeTableRecord
  2
BYBLOCK
 70
     0
  3

 72
    65
 73
     0
 40
0.0
  0
LTYPE
  5
15
330
5
100
AcDbSymbolTableRecord
100
AcDbLinetypeTableRecord
  2
BYLAYER
 70
     0
  3

 72
    65
 73
     0
 40
0.0
  0
LTYPE
  5
16
330
5
100
AcDbSymbolTableRecord
100
AcDbLinetypeTableRecord
  2
CONTINUOUS
 70
     0
  3
Solid line
 72
    65
 73
     0
 40
0.0
  0
ENDTAB
  0
TABLE
  2
LAYER
  5
2
100
AcDbSymbolTable
 70
2
  0
LAYER
  5
50
100
AcDbSymbolTableRecord
100
AcDbLayerTableRecord
  2
0
 70
0
  6
CONTINUOUS
  0
LAYER
  5
51
100
AcDbSymbolTableRecord
100
AcDbLayerTableRecord
  2
Layer_1
 70
0
  6
CONTINUOUS
  0
ENDTAB
  0
TABLE
  2
STYLE
  5
3
330
0
100
AcDbSymbolTable
 70
     1
  0
STYLE
  5
11
330
3
100
AcDbSymbolTableRecord
100
AcDbTextStyleTableRecord
  2
STANDARD
 70
     0
 40
0.0
 41
1.0
 50
0.0
 71
     0
 42
2.5
  3
txt
  4

  0
ENDTAB
  0
TABLE
  2
VIEW
  5
6
330
0
100
AcDbSymbolTable
 70
     0
  0
ENDTAB
  0
TABLE
  2
UCS
  5
7
330
0
100
AcDbSymbolTable
 70
     0
  0
ENDTAB
  0
TABLE
  2
APPID
  5
9
330
0
100
AcDbSymbolTable
 70
     2
  0
APPID
  5
12
330
9
100
AcDbSymbolTableRecord
100
AcDbRegAppTableRecord
  2
ACAD
 70
     0
  0
ENDTAB
  0
TABLE
  2
DIMSTYLE
  5
A
330
0
100
AcDbSymbolTable
 70
     1
  0
DIMSTYLE
105
27
330
A
100
AcDbSymbolTableRecord
100
AcDbDimStyleTableRecord
  2
ISO-25
 70
     0
  3

  4

  5

  6

  7

 40
1.0
 41
2.5
 42
0.625
 43
3.75
 44
1.25
 45
0.0
 46
0.0
 47
0.0
 48
0.0
140
2.5
141
2.5
142
0.0
143
0.03937007874016
144
1.0
145
0.0
146
1.0
147
0.625
 71
     0
 72
     0
 73
     0
 74
     0
 75
     0
 76
     0
 77
     1
 78
     8
170
     0
171
     3
172
     1
173
     0
174
     0
175
     0
176
     0
177
     0
178
     0
270
     2
271
     2
272
     2
273
     2
274
     3
340
11
275
     0
280
     0
281
     0
282
     0
283
     0
284
     8
285
     0
286
     0
287
     3
288
     0
  0
ENDTAB
  0
TABLE
  2
BLOCK_RECORD
  5
1
330
0
100
AcDbSymbolTable
 70
     1
  0
BLOCK_RECORD
  5
1F
330
1
100
AcDbSymbolTableRecord
100
AcDbBlockTableRecord
  2
*MODEL_SPACE
  0
BLOCK_RECORD
  5
1B
330
1
100
AcDbSymbolTableRecord
100
AcDbBlockTableRecord
  2
*PAPER_SPACE
  0
ENDTAB
  0
ENDSEC
  0
SECTION
  2
BLOCKS
  0
BLOCK
  5
20
330
1F
100
AcDbEntity
  8
0
100
AcDbBlockBegin
  2
*MODEL_SPACE
 70
     0
 10
0.0
 20
0.0
 30
0.0
  3
*MODEL_SPACE
  1

  0
ENDBLK
  5
21
330
1F
100
AcDbEntity
  8
0
100
AcDbBlockEnd
  0
BLOCK
  5
1C
330
1B
100
AcDbEntity
 67
     1
  8
0
100
AcDbBlockBegin
  2
*PAPER_SPACE
  1

  0
ENDBLK
  5
1D
330
1B
100
AcDbEntity
 67
     1
  8
0
100
AcDbBlockEnd
  0
ENDSEC
  0
SECTION
  2
ENTITIES
  0
SPLINE
  5
100
100
AcDbEntity
  8
Layer_1
 62
3
100
AcDbSpline
 70
0
 71
3
 72
10
 73
6
 74
4
 40
0.000000
 40
0.000000
 40
0.000000
 40
0.000000
 40
93.473670
 40
114.663672
 40
188.005641
 40
188.005641
 40
188.005641
 40
188.005641
 10
415.856041
 20
541.239449
 30
0.0
 10
470.925717
 20
538.609523
 30
0.0
 10
538.479406
 20
535.383407
 30
0.0
 10
468.497162
 20
508.117993
 30
0.0
 10
438.322983
 20
510.764445
 30
0.0
 10
414.912557
 20
512.817676
 30
0.0
 11
415.856041
 21
541.239449
 31
0.0
 11
507.808196
 21
524.442778
 31
0.0
 11
488.161870
 21
516.503128
 31
0.0
 11
414.912557
 21
512.817676
 31
0.0
  0
SPLINE
  5
101
100
AcDbEntity
  8
Layer_1
 62
3
100
AcDbSpline
 70
0
 71
3
 72
10
 73
6
 74
4
 40
0.000000
 40
0.000000
 40
0.000000
 40
0.000000
 40
97.231289
 40
137.422134
 40
194.015791
 40
194.015791
 40
194.015791
 40
194.015791
 10
414.912557
 20
512.817676
 30
0.0
 10
469.440485
 20
502.320710
 30
0.0
 10
546.507695
 20
487.484792
 30
0.0
 10
458.873287
 20
484.497898
 30
0.0
 10
429.385183
 20
484.975356
 30
0.0
 10
412.142343
 20
485.254545
 30
0.0
 11
414.912557
 21
512.817676
 31
0.0
 11
508.842096
 21
487.694671
 31
0.0
 11
468.735760
 21
485.089694
 31
0.0
 11
412.142343
 21
485.254545
 31
0.0
  0
SPLINE
  5
102
100
AcDbEntity
  8
Layer_1
 62
3
100
AcDbSpline
 70
0
 71
3
 72
10
 73
6
 74
4
 40
0.000000
 40
0.000000
 40
0.000000
 40
0.000000
 40
98.781671
 40
135.797296
 40
197.614704
 40
197.614704
 40
197.614704
 40
197.614704
 10
412.142343
 20
485.254545
 30
0.0
 10
467.530638
 20
472.122897
 30
0.0
 10
543.674124
 20
454.070538
 30
0.0
 10
456.432997
 20
453.950300
 30
0.0
 10
426.412568
 20
456.972429
 30
0.0
 10
407.635597
 20
458.862690
 30
0.0
 11
412.142343
 21
485.254545
 31
0.0
 11
506.294450
 21
455.368105
 31
0.0
 11
469.291546
 21
454.397741
 31
0.0
 11
407.635597
 21
458.862690
 31
0.0
  0
SPLINE
  5
103
100
AcDbEntity
  8
Layer_1
 62
3
100
AcDbSpline
 70
0
 71
3
 72
10
 73
6
 74
4
 40
0.000000
 40
0.000000
 40
0.000000
 40
0.000000
 40
95.773737
 40
122.348877
 40
191.570595
 40
191.570595
 40
191.570595
 40
191.570595
 10
407.635597
 20
458.862690
 30
0.0
 10
461.585697
 20
442.526850
 30
0.0
 10
530.505783
 20
421.658168
 30
0.0
 10
451.086696
 20
420.894365
 30
0.0
 10
422.290461
 20
428.476247
 30
0.0
 10
401.482630
 20
433.954828
 30
0.0
 11
407.635597
 21
458.862690
 31
0.0
 11
496.173618
 21
422.343824
 31
0.0
 11
469.606839
 21
421.677272
 31
0.0
 11
401.482630
 21
433.954828
 31
0.0
  0
SPLINE
  5
104
100
AcDbEntity
  8
Layer_1
 62
3
100
AcDbSpline
 70
0
 71
3
 72
10
 73
6
 74
4
 40
0.000000
 40
0.000000
 40
0.000000
 40
0.000000
 40
95.298172
 40
118.874920
 40
189.976874
 40
189.976874
 40
189.976874
 40
189.976874
 10
401.482630
 20
433.954828
 30
0.0
 10
453.693749
 20
412.287700
 30
0.0
 10
518.821888
 20
385.260129
 30
0.0
 10
441.820617
 20
390.915518
 30
0.0
 10
414.380624
 20
402.296623
 30
0.0
 10
393.773698
 20
410.843622
 30
0.0
 11
401.482630
 21
433.954828
 31
0.0
 11
485.294670
 21
388.597541
 31
0.0
 11
461.761582
 21
390.031719
 31
0.0
 11
393.773698
 21
410.843622
 31
0.0
  0
SPLINE
  5
105
100
AcDbEntity
  8
Layer_1
 62
3
100
AcDbSpline
 70
0
 71
3
 72
10
 73
6
 74
4
 40
0.000000
 40
0.000000
 40
0.000000
 40
0.000000
 40
89.582471
 40
101.277215
 40
181.341715
 40
181.341715
 40
181.341715
 40
181.341715
 10
393.773698
 20
410.843622
 30
0.0
 10
443.822196
 20
393.167531
 30
0.0
 10
500.404388
 20
373.183876
 30
0.0
 10
435.224598
 20
355.522956
 30
0.0
 10
408.188977
 20
373.850300
 30
0.0
 10
384.599055
 20
389.841817
 30
0.0
 11
393.773698
 21
410.843622
 31
0.0
 11
471.169298
 21
365.733311
 31
0.0
 11
459.895367
 21
362.624367
 31
0.0
 11
384.599055
 21
389.841817
 31
0.0
  0
SPLINE
  5
106
100
AcDbEntity
  8
Layer_1
 62
3
100
AcDbSpline
 70
0
 71
3
 72
10
 73
6
 74
4
 40
0.000000
 40
0.000000
 40
0.000000
 40
0.000000
 40
92.347540
 40
107.345837
 40
184.491107
 40
184.491107
 40
184.491107
 40
184.491107
 10
384.599055
 20
389.841817
 30
0.0
 10
431.998954
 20
360.629141
 30
0.0
 10
487.097140
 20
326.671992
 30
0.0
 10
417.120802
 20
335.509173
 30
0.0
 10
393.676885
 20
354.969389
 30
0.0
 10
374.048957
 20
371.262047
 30
0.0
 11
384.599055
 21
389.841817
 31
0.0
 11
455.888619
 21
331.140317
 31
0.0
 11
440.997598
 21
332.930962
 31
0.0
 11
374.048957
 21
371.262047
 31
0.0
  0
SPLINE
  5
107
100
AcDbEntity
  8
Layer_1
 62
3
100
AcDbSpline
 70
0
 71
3
 72
10
 73
6
 74
4
 40
0.000000
 40
0.000000
 40
0.000000
 40
0.000000
 40
86.142305
 40
92.988691
 40
174.993142
 40
174.993142
 40
174.993142
 40
174.993142
 10
374.048957
 20
371.262047
 30
0.0
 10
414.058403
 20
347.574894
 30
0.0
 10
457.247704
 20
322.005143
 30
0.0
 10
403.152992
 20
290.644339
 30
0.0
 10
381.863110
 20
324.328446
 30
0.0
 10
362.213717
 20
355.417030
 30
0.0
 11
374.048957
 21
371.262047
 31
0.0
 11
432.345431
 21
307.842666
 31
0.0
 11
426.422881
 21
304.408078
 31
0.0
 11
362.213717
 21
355.417030
 31
0.0
  0
SPLINE
  5
108
100
AcDbEntity
  8
Layer_1
 62
3
100
AcDbSpline
 70
0
 71
3
 72
10
 73
6
 74
4
 40
0.000000
 40
0.000000
 40
0.000000
 40
0.000000
 40
76.207835
 40
92.860832
 40
182.904499
 40
182.904499
 40
182.904499
 40
182.904499
 10
362.213717
 20
355.417030
 30
0.0
 10
378.544132
 20
337.244156
 30
0.0
 10
398.443083
 20
315.100131
 30
0.0
 10
421.181105
 20
247.653200
 30
0.0
 10
382.271590
 20
299.275286
 30
0.0
 10
349.434992
 20
342.840302
 30
0.0
 11
362.213717
 21
355.417030
 31
0.0
 11
405.578030
 21
292.749890
 31
0.0
 11
410.786477
 21
276.932356
 31
0.0
 11
349.434992
 21
342.840302
 31
0.0
  0
SPLINE
  5
109
100
AcDbEntity
  8
Layer_1
 62
3
100
AcDbSpline
 70
0
 71
3
 72
10
 73
6
 74
4
 40
0.000000
 40
0.000000
 40
0.000000
 40
0.000000
 40
97.353755
 40
132.296275
 40
193.345837
 40
193.345837
 40
193.345837
 40
193.345837
 10
349.434992
 20
342.840302
 30
0.0
 10
375.107261
 20
292.291524
 30
0.0
 10
409.993903
 20
223.599617
 30
0.0
 10
360.957923
 20
292.884463
 30
0.0
 10
345.772431
 20
317.928972
 30
0.0
 10
336.114680
 20
333.856913
 30
0.0
 11
349.434992
 21
342.840302
 31
0.0
 11
389.390888
 21
254.063729
 31
0.0
 11
368.792876
 21
282.289632
 31
0.0
 11
336.114680
 21
333.856913
 31
0.0
  0
SPLINE
  5
10a
100
AcDbEntity
  8
Layer_1
 62
3
100
AcDbSpline
 70
0
 71
3
 72
10
 73
6
 74
4
 40
0.000000
 40
0.000000
 40
0.000000
 40
0.000000
 40
92.139504
 40
120.135446
 40
184.245320
 40
184.245320
 40
184.245320
 40
184.245320
 10
336.114680
 20
333.856913
 30
0.0
 10
354.258599
 20
282.544742
 30
0.0
 10
377.915421
 20
215.641727
 30
0.0
 10
340.181480
 20
283.949500
 30
0.0
 10
329.717046
 20
310.197252
 30
0.0
 10
322.433320
 20
328.466891
 30
0.0
 11
336.114680
 21
333.856913
 31
0.0
 11
362.157790
 21
245.474536
 31
0.0
 11
348.353687
 21
269.830635
 31
0.0
 11
322.433320
 21
328.466891
 31
0.0
  0
SPLINE
  5
10b
100
AcDbEntity
  8
Layer_1
 62
3
100
AcDbSpline
 70
0
 71
3
 72
10
 73
6
 74
4
 40
0.000000
 40
0.000000
 40
0.000000
 40
0.000000
 40
96.248400
 40
132.535559
 40
193.476356
 40
193.476356
 40
193.476356
 40
193.476356
 10
322.433320
 20
328.466891
 30
0.0
 10
331.562859
 20
273.386125
 30
0.0
 10
344.134377
 20
197.539044
 30
0.0
 10
319.751668
 20
279.856652
 30
0.0
 10
312.879038
 20
308.633425
 30
0.0
 10
308.571392
 20
326.670208
 30
0.0
 11
322.433320
 21
328.466891
 31
0.0
 11
334.383354
 21
232.963220
 31
0.0
 11
323.608072
 21
267.613634
 31
0.0
 11
308.571392
 21
326.670208
 31
0.0
  0
SPLINE
  5
10c
100
AcDbEntity
  8
Layer_1
 62
3
100
AcDbSpline
 70
0
 71
3
 72
10
 73
6
 74
4
 40
0.000000
 40
0.000000
 40
0.000000
 40
0.000000
 40
97.409298
 40
126.399400
 40
196.396865
 40
196.396865
 40
196.396865
 40
196.396865
 10
308.571392
 20
326.670208
 30
0.0
 10
305.990725
 20
269.043678
 30
0.0
 10
302.642023
 20
194.266844
 30
0.0
 10
293.911956
 20
276.641089
 30
0.0
 10
294.379135
 20
306.999459
 30
0.0
 10
294.709493
 20
328.466891
 30
0.0
 11
308.571392
 21
326.670208
 31
0.0
 11
299.481308
 21
229.685974
 31
0.0
 11
296.152251
 21
258.484297
 31
0.0
 11
294.709493
 21
328.466891
 31
0.0
  0
SPLINE
  5
10d
100
AcDbEntity
  8
Layer_1
 62
3
100
AcDbSpline
 70
0
 71
3
 72
10
 73
6
 74
4
 40
0.000000
 40
0.000000
 40
0.000000
 40
0.000000
 40
88.506651
 40
98.050087
 40
178.392334
 40
178.392334
 40
178.392334
 40
178.392334
 10
294.709493
 20
328.466891
 30
0.0
 10
279.370246
 20
276.322037
 30
0.0
 10
262.377008
 20
218.554542
 30
0.0
 10
251.826582
 20
283.121208
 30
0.0
 10
267.245913
 20
309.911251
 30
0.0
 10
281.028127
 20
333.856913
 30
0.0
 11
294.709493
 21
328.466891
 31
0.0
 11
257.813040
 21
248.017659
 31
0.0
 11
256.247488
 21
257.431809
 31
0.0
 11
281.028127
 21
333.856913
 31
0.0
  0
SPLINE
  5
10e
100
AcDbEntity
  8
Layer_1
 62
3
100
AcDbSpline
 70
0
 71
3
 72
10
 73
6
 74
4
 40
0.000000
 40
0.000000
 40
0.000000
 40
0.000000
 40
76.722908
 40
91.755424
 40
183.040480
 40
183.040480
 40
183.040480
 40
183.040480
 10
281.028127
 20
333.856913
 30
0.0
 10
269.197428
 20
312.097281
 30
0.0
 10
255.048710
 20
286.074227
 30
0.0
 10
199.254048
 20
243.437722
 30
0.0
 10
236.084727
 20
296.920012
 30
0.0
 10
267.707820
 20
342.840302
 30
0.0
 11
281.028127
 21
333.856913
 31
0.0
 11
235.873204
 21
271.829197
 31
0.0
 11
223.881664
 21
262.763906
 31
0.0
 11
267.707820
 21
342.840302
 31
0.0
  0
SPLINE
  5
10f
100
AcDbEntity
  8
Layer_1
 62
3
100
AcDbSpline
 70
0
 71
3
 72
10
 73
6
 74
4
 40
0.000000
 40
0.000000
 40
0.000000
 40
0.000000
 40
88.835223
 40
99.839155
 40
179.011690
 40
179.011690
 40
179.011690
 40
179.011690
 10
267.707820
 20
342.840302
 30
0.0
 10
232.341586
 20
302.152795
 30
0.0
 10
192.594571
 20
256.425366
 30
0.0
 10
207.883633
 20
321.088455
 30
0.0
 10
232.934827
 20
339.368041
 30
0.0
 10
254.929107
 20
355.417030
 30
0.0
 11
267.707820
 21
342.840302
 31
0.0
 11
199.828419
 21
285.533376
 31
0.0
 11
202.319818
 21
296.251559
 31
0.0
 11
254.929107
 21
355.417030
 31
0.0
  0
SPLINE
  5
110
100
AcDbEntity
  8
Layer_1
 62
3
100
AcDbSpline
 70
0
 71
3
 72
10
 73
6
 74
4
 40
0.000000
 40
0.000000
 40
0.000000
 40
0.000000
 40
74.263481
 40
94.445053
 40
187.699770
 40
187.699770
 40
187.699770
 40
187.699770
 10
254.929107
 20
355.417030
 30
0.0
 10
236.335021
 20
341.109104
 30
0.0
 10
212.687874
 20
322.912909
 30
0.0
 10
141.673767
 20
299.652979
 30
0.0
 10
197.335209
 20
338.953513
 30
0.0
 10
243.093864
 20
371.262047
 30
0.0
 11
254.929107
 21
355.417030
 31
0.0
 11
191.674764
 21
316.507486
 31
0.0
 11
172.440424
 21
310.397166
 31
0.0
 11
243.093864
 21
371.262047
 31
0.0
  0
SPLINE
  5
111
100
AcDbEntity
  8
Layer_1
 62
3
100
AcDbSpline
 70
0
 71
3
 72
10
 73
6
 74
4
 40
0.000000
 40
0.000000
 40
0.000000
 40
0.000000
 40
94.203982
 40
126.186076
 40
189.737322
 40
189.737322
 40
189.737322
 40
189.737322
 10
243.093864
 20
371.262047
 30
0.0
 10
195.673586
 20
343.615409
 30
0.0
 10
132.154204
 20
306.582784
 30
0.0
 10
192.635900
 20
361.993133
 30
0.0
 10
216.601351
 20
378.716801
 30
0.0
 10
232.543789
 20
389.841817
 30
0.0
 11
243.093864
 21
371.262047
 31
0.0
 11
158.652625
 21
329.500014
 31
0.0
 11
181.845693
 21
351.521275
 31
0.0
 11
232.543789
 21
389.841817
 31
0.0
  0
SPLINE
  5
112
100
AcDbEntity
  8
Layer_1
 62
3
100
AcDbSpline
 70
0
 71
3
 72
10
 73
6
 74
4
 40
0.000000
 40
0.000000
 40
0.000000
 40
0.000000
 40
91.219300
 40
108.620023
 40
185.924107
 40
185.924107
 40
185.924107
 40
185.924107
 10
232.543789
 20
389.841817
 30
0.0
 10
185.392430
 20
362.269240
 30
0.0
 10
129.246619
 20
329.436999
 30
0.0
 10
172.644643
 20
387.532462
 30
0.0
 10
200.572586
 20
400.367157
 30
0.0
 10
223.369149
 20
410.843650
 30
0.0
 11
232.543789
 21
389.841817
 31
0.0
 11
148.568761
 21
354.216608
 31
0.0
 11
158.858673
 21
368.248816
 31
0.0
 11
223.369149
 21
410.843650
 31
0.0
  0
SPLINE
  5
113
100
AcDbEntity
  8
Layer_1
 62
3
100
AcDbSpline
 70
0
 71
3
 72
10
 73
6
 74
4
 40
0.000000
 40
0.000000
 40
0.000000
 40
0.000000
 40
97.115755
 40
137.576692
 40
196.175531
 40
196.175531
 40
196.175531
 40
196.175531
 10
223.369149
 20
410.843650
 30
0.0
 10
170.978832
 20
392.454834
 30
0.0
 10
96.761353
 20
366.404762
 30
0.0
 10
173.236963
 20
411.630055
 30
0.0
 10
199.892262
 20
425.657116
 30
0.0
 10
215.660211
 20
433.954828
 30
0.0
 11
223.369149
 21
410.843650
 31
0.0
 11
129.905350
 21
384.462064
 31
0.0
 11
164.170679
 21
405.978909
 31
0.0
 11
215.660211
 21
433.954828
 31
0.0
  0
SPLINE
  5
114
100
AcDbEntity
  8
Layer_1
 62
3
100
AcDbSpline
 70
0
 71
3
 72
10
 73
6
 74
4
 40
0.000000
 40
0.000000
 40
0.000000
 40
0.000000
 40
97.843106
 40
136.907053
 40
195.499615
 40
195.499615
 40
195.499615
 40
195.499615
 10
215.660211
 20
433.954828
 30
0.0
 10
160.331536
 20
424.532005
 30
0.0
 10
82.912838
 20
411.347111
 30
0.0
 10
164.266640
 20
444.017656
 30
0.0
 10
192.542259
 20
453.295882
 30
0.0
 10
209.507241
 20
458.862690
 30
0.0
 11
215.660211
 21
433.954828
 31
0.0
 11
118.314057
 21
424.105991
 31
0.0
 11
154.162014
 21
439.627458
 31
0.0
 11
209.507241
 21
458.862690
 31
0.0
  0
SPLINE
  5
115
100
AcDbEntity
  8
Layer_1
 62
3
100
AcDbSpline
 70
0
 71
3
 72
10
 73
6
 74
4
 40
0.000000
 40
0.000000
 40
0.000000
 40
0.000000
 40
98.268102
 40
142.086936
 40
196.635106
 40
196.635106
 40
196.635106
 40
196.635106
 10
209.507241
 20
458.862690
 30
0.0
 10
153.989298
 20
453.370242
 30
0.0
 10
73.715289
 20
445.428652
 30
0.0
 10
160.371681
 20
472.035624
 30
0.0
 10
189.080433
 20
480.539068
 30
0.0
 10
205.000506
 20
485.254545
 30
0.0
 11
209.507241
 21
458.862690
 31
0.0
 11
111.300869
 21
455.380090
 31
0.0
 11
152.737937
 21
469.629988
 31
0.0
 11
205.000506
 21
485.254545
 31
0.0
  0
SPLINE
  5
116
100
AcDbEntity
  8
Layer_1
 62
3
100
AcDbSpline
 70
0
 71
3
 72
10
 73
6
 74
4
 40
0.000000
 40
0.000000
 40
0.000000
 40
0.000000
 40
94.171232
 40
112.444172
 40
192.199602
 40
192.199602
 40
192.199602
 40
192.199602
 10
205.000506
 20
485.254545
 30
0.0
 10
150.308471
 20
474.374636
 30
0.0
 10
85.004020
 20
461.383594
 30
0.0
 10
144.002712
 20
507.680170
 30
0.0
 10
176.108859
 20
510.512944
 30
0.0
 10
202.230272
 20
512.817676
 30
0.0
 11
205.000506
 21
485.254545
 31
0.0
 11
110.938312
 21
480.724145
 31
0.0
 11
125.199702
 21
492.148378
 31
0.0
 11
202.230272
 21
512.817676
 31
0.0
  0
LINE
  5
117
100
AcDbEntity
  8
Layer_1
 62
3
100
AcDbLine
 10
201.286800
 20
541.239449
 30
0.0
 11
415.856041
 21
541.239449
 31
0.0
  0
SPLINE
  5
118
100
AcDbEntity
  8
Layer_1
 62
3
100
AcDbSpline
 70
0
 71
3
 72
10
 73
6
 74
4
 40
0.000000
 40
0.000000
 40
0.000000
 40
0.000000
 40
82.465693
 40
92.624916
 40
179.833678
 40
179.833678
 40
179.833678
 40
179.833678
 10
202.230272
 20
512.817676
 30
0.0
 10
168.657406
 20
502.978978
 30
0.0
 10
130.948588
 20
491.928218
 30
0.0
 10
102.632617
 20
551.499324
 30
0.0
 10
154.674703
 20
546.087031
 30
0.0
 10
201.286800
 20
541.239449
 30
0.0
 11
202.230272
 21
512.817676
 31
0.0
 11
119.841655
 21
516.382271
 31
0.0
 11
115.498023
 21
525.566098
 31
0.0
 11
201.286800
 21
541.239449
 31
0.0
  0
LINE
  5
119
100
AcDbEntity
  8
Layer_1
 62
3
100
AcDbLine
 10
265.714271
 20
541.454825
 30
0.0
 11
308.571420
 21
541.454825
 31
0.0
  0
LINE
  5
11a
100
AcDbEntity
  8
Layer_1
 62
3
100
AcDbLine
 10
308.571420
 20
541.454825
 30
0.0
 11
351.428570
 21
541.454825
 31
0.0
  0
SPLINE
  5
11b
100
AcDbEntity
  8
Layer_1
 62
3
100
AcDbSpline
 70
0
 71
3
 72
16
 73
12
 74
10
 40
0.000000
 40
0.000000
 40
0.000000
 40
0.000000
 40
23.970059
 40
45.902453
 40
65.228298
 40
81.532221
 40
96.273790
 40
112.577714
 40
131.903557
 40
153.835948
 40
177.805999
 40
177.805999
 40
177.805999
 40
177.805999
 10
351.428570
 20
541.454825
 30
0.0
 10
350.945681
 20
533.447383
 30
0.0
 10
350.020951
 20
518.113201
 30
0.0
 10
342.660841
 20
497.337454
 30
0.0
 10
331.634291
 20
481.290150
 30
0.0
 10
316.913544
 20
471.827826
 30
0.0
 10
300.229269
 20
471.827827
 30
0.0
 10
285.508519
 20
481.290148
 30
0.0
 10
274.481986
 20
497.337463
 30
0.0
 10
267.121883
 20
518.113207
 30
0.0
 10
266.197158
 20
533.447385
 30
0.0
 10
265.714271
 20
541.454825
 30
0.0
 11
351.428570
 21
541.454825
 31
0.0
 11
348.819687
 21
517.627164
 31
0.0
 11
341.448898
 21
496.970412
 31
0.0
 11
329.999981
 21
481.400872
 31
0.0
 11
315.942191
 21
473.142758
 31
0.0
 11
301.200622
 21
473.142758
 31
0.0
 11
287.142832
 21
481.400872
 31
0.0
 11
275.693926
 21
496.970419
 31
0.0
 11
268.323146
 21
517.627171
 31
0.0
 11
265.714271
 21
541.454825
 31
0.0
  0
SPLINE
  5
11c
100
AcDbEntity
  8
Layer_1
 62
3
100
AcDbSpline
 70
0
 71
3
 72
79
 73
75
 74
73
 40
0.000000
 40
0.000000
 40
0.000000
 40
0.000000
 40
9.550613
 40
19.033646
 40
28.442103
 40
37.768866
 40
47.006816
 40
56.148790
 40
65.187643
 40
74.116267
 40
82.927618
 40
91.614781
 40
100.170995
 40
108.589685
 40
116.864559
 40
124.989568
 40
132.959079
 40
140.767892
 40
148.411323
 40
155.885298
 40
163.186510
 40
170.312466
 40
177.261691
 40
184.033859
 40
190.630022
 40
197.052788
 40
203.267573
 40
209.245688
 40
215.001026
 40
220.548926
 40
225.906274
 40
231.091587
 40
236.125103
 40
241.028784
 40
245.826240
 40
250.542567
 40
255.204072
 40
259.837936
 40
264.471793
 40
269.133284
 40
273.849604
 40
278.647064
 40
283.550748
 40
288.584254
 40
293.769567
 40
299.126909
 40
304.674809
 40
310.430161
 40
316.408270
 40
322.623038
 40
329.045816
 40
335.641972
 40
342.414137
 40
349.363354
 40
356.489307
 40
363.790519
 40
371.264511
 40
378.907947
 40
386.716762
 40
394.686273
 40
402.811276
 40
411.086130
 40
419.504824
 40
428.061036
 40
436.748198
 40
445.559550
 40
454.488173
 40
463.527025
 40
472.668999
 40
481.906950
 40
491.233714
 40
500.642170
 40
510.125203
 40
519.675816
 40
519.675816
 40
519.675816
 40
519.675816
 10
415.856041
 20
541.239449
 30
0.0
 10
415.835696
 20
538.055845
 30
0.0
 10
415.795150
 20
531.711165
 30
0.0
 10
415.468038
 20
522.234929
 30
0.0
 10
414.949737
 20
512.842533
 30
0.0
 10
414.224696
 20
503.545531
 30
0.0
 10
413.301238
 20
494.355490
 30
0.0
 10
412.181375
 20
485.283961
 30
0.0
 10
410.868803
 20
476.342502
 30
0.0
 10
409.366789
 20
467.542669
 30
0.0
 10
407.678701
 20
458.896019
 30
0.0
 10
405.807868
 20
450.414107
 30
0.0
 10
403.757633
 20
442.108482
 30
0.0
 10
401.531364
 20
433.990674
 30
0.0
 10
399.132355
 20
426.072244
 30
0.0
 10
396.563966
 20
418.364722
 30
0.0
 10
393.829517
 20
410.879648
 30
0.0
 10
390.932332
 20
403.628548
 30
0.0
 10
387.875726
 20
396.622946
 30
0.0
 10
384.662993
 20
389.874361
 30
0.0
 10
381.297451
 20
383.394291
 30
0.0
 10
377.782353
 20
377.194247
 30
0.0
 10
374.120949
 20
371.285747
 30
0.0
 10
370.316509
 20
365.680273
 30
0.0
 10
366.372197
 20
360.389367
 30
0.0
 10
362.299447
 20
355.434614
 30
0.0
 10
358.119811
 20
350.844342
 30
0.0
 10
353.856462
 20
346.642647
 30
0.0
 10
349.525159
 20
342.839801
 30
0.0
 10
345.132401
 20
339.435926
 30
0.0
 10
340.684691
 20
336.431212
 30
0.0
 10
336.188558
 20
333.825948
 30
0.0
 10
331.650605
 20
331.620462
 30
0.0
 10
327.077514
 20
329.815130
 30
0.0
 10
322.476063
 20
328.410389
 30
0.0
 10
317.853172
 20
327.406642
 30
0.0
 10
313.215895
 20
326.804230
 30
0.0
 10
308.571395
 20
326.603396
 30
0.0
 10
303.926899
 20
326.804229
 30
0.0
 10
299.289631
 20
327.406642
 30
0.0
 10
294.666747
 20
328.410392
 30
0.0
 10
290.065294
 20
329.815125
 30
0.0
 10
285.492197
 20
331.620442
 30
0.0
 10
280.954258
 20
333.825952
 30
0.0
 10
276.458138
 20
336.431227
 30
0.0
 10
272.010427
 20
339.435934
 30
0.0
 10
267.617659
 20
342.839801
 30
0.0
 10
263.286362
 20
346.642658
 30
0.0
 10
259.023007
 20
350.844343
 30
0.0
 10
254.843383
 20
355.434622
 30
0.0
 10
250.770641
 20
360.389377
 30
0.0
 10
246.826328
 20
365.680281
 30
0.0
 10
243.021880
 20
371.285743
 30
0.0
 10
239.360496
 20
377.194250
 30
0.0
 10
235.845402
 20
383.394292
 30
0.0
 10
232.479857
 20
389.874365
 30
0.0
 10
229.267135
 20
396.622964
 30
0.0
 10
226.210528
 20
403.628574
 30
0.0
 10
223.313341
 20
410.879676
 30
0.0
 10
220.578889
 20
418.364747
 30
0.0
 10
218.010495
 20
426.072259
 30
0.0
 10
215.611489
 20
433.990682
 30
0.0
 10
213.385204
 20
442.108479
 30
0.0
 10
211.334978
 20
450.414107
 30
0.0
 10
209.464149
 20
458.896019
 30
0.0
 10
207.776062
 20
467.542669
 30
0.0
 10
206.274052
 20
476.342502
 30
0.0
 10
204.961487
 20
485.283961
 30
0.0
 10
203.841624
 20
494.355490
 30
0.0
 10
202.918153
 20
503.545531
 30
0.0
 10
202.193097
 20
512.842532
 30
0.0
 10
201.674821
 20
522.234930
 30
0.0
 10
201.347704
 20
531.711165
 30
0.0
 10
201.307157
 20
538.055845
 30
0.0
 10
201.286811
 20
541.239449
 30
0.0
 11
415.856041
 21
541.239449
 31
0.0
 11
415.750099
 21
531.689424
 31
0.0
 11
415.434493
 21
522.211644
 31
0.0
 11
414.912557
 21
512.817676
 31
0.0
 11
414.187670
 21
503.519124
 31
0.0
 11
413.263155
 21
494.327553
 31
0.0
 11
412.142343
 21
485.254545
 31
0.0
 11
410.828580
 21
476.311677
 31
0.0
 11
409.325216
 21
467.510528
 31
0.0
 11
407.635597
 21
458.862690
 31
0.0
 11
405.763060
 21
450.379742
 31
0.0
 11
403.710952
 21
442.073260
 31
0.0
 11
401.482630
 21
433.954828
 31
0.0
 11
399.081410
 21
426.036011
 31
0.0
 11
396.510653
 21
418.328418
 31
0.0
 11
393.773698
 21
410.843622
 31
0.0
 11
390.873883
 21
403.593198
 31
0.0
 11
387.814554
 21
396.588733
 31
0.0
 11
384.599055
 21
389.841817
 31
0.0
 11
381.230730
 21
383.364002
 31
0.0
 11
377.712918
 21
377.166886
 31
0.0
 11
374.048957
 21
371.262047
 31
0.0
 11
370.242218
 21
365.661066
 31
0.0
 11
366.296021
 21
360.375530
 31
0.0
 11
362.213717
 21
355.417030
 31
0.0
 11
358.025451
 21
350.825518
 31
0.0
 11
353.763648
 21
346.633276
 31
0.0
 11
349.434992
 21
342.840302
 31
0.0
 11
345.046157
 21
339.446583
 31
0.0
 11
340.603824
 21
336.452113
 31
0.0
 11
336.114680
 21
333.856913
 31
0.0
 11
331.585425
 21
331.660981
 31
0.0
 11
327.022745
 21
329.864304
 31
0.0
 11
322.433320
 21
328.466891
 31
0.0
 11
317.823827
 21
327.468738
 31
0.0
 11
313.200954
 21
326.869841
 31
0.0
 11
308.571392
 21
326.670208
 31
0.0
 11
303.941837
 21
326.869841
 31
0.0
 11
299.318978
 21
327.468738
 31
0.0
 11
294.709493
 21
328.466891
 31
0.0
 11
290.120061
 21
329.864298
 31
0.0
 11
285.557377
 21
331.660968
 31
0.0
 11
281.028138
 21
333.856913
 31
0.0
 11
276.539002
 21
336.452126
 31
0.0
 11
272.096671
 21
339.446589
 31
0.0
 11
267.707832
 21
342.840302
 31
0.0
 11
263.379168
 21
346.633288
 31
0.0
 11
259.117368
 21
350.825524
 31
0.0
 11
254.929119
 21
355.417030
 31
0.0
 11
250.846813
 21
360.375542
 31
0.0
 11
246.900617
 21
365.661072
 31
0.0
 11
243.093875
 21
371.262047
 31
0.0
 11
239.429929
 21
377.166886
 31
0.0
 11
235.912123
 21
383.364002
 31
0.0
 11
232.543800
 21
389.841817
 31
0.0
 11
229.328303
 21
396.588753
 31
0.0
 11
226.268976
 21
403.593225
 31
0.0
 11
223.369160
 21
410.843650
 31
0.0
 11
220.632201
 21
418.328445
 31
0.0
 11
218.061441
 21
426.036030
 31
0.0
 11
215.660222
 21
433.954828
 31
0.0
 11
213.431889
 21
442.073260
 31
0.0
 11
211.379785
 21
450.379742
 31
0.0
 11
209.507253
 21
458.862690
 31
0.0
 11
207.817635
 21
467.510528
 31
0.0
 11
206.314276
 21
476.311677
 31
0.0
 11
205.000517
 21
485.254545
 31
0.0
 11
203.879705
 21
494.327553
 31
0.0
 11
202.955179
 21
503.519124
 31
0.0
 11
202.230283
 21
512.817676
 31
0.0
 11
201.708361
 21
522.211644
 31
0.0
 11
201.392756
 21
531.689424
 31
0.0
 11
201.286811
 21
541.239449
 31
0.0
  0
ENDSEC
  0
SECTION
  2
OBJECTS
  0
DICTIONARY
  5
C
330
0
100
AcDbDictionary
  3
ACAD_GROUP
350
D
  3
ACAD_MLINESTYLE
350
17
  0
DICTIONARY
  5
D
330
C
100
AcDbDictionary
  0
DICTIONARY
  5
1A
330
C
100
AcDbDictionary
  0
DICTIONARY
  5
17
330
C
100
AcDbDictionary
  3
STANDARD
350
18
  0
DICTIONARY
  5
19
330
C
100
AcDbDictionary
  0
ENDSEC
  0
EOF
