  0
SECTION
  2
HEADER
  9
$ACADVER
  1
AC1014
  9
$HANDSEED
  5
FFFF
  9
$MEASUREMENT
 70
     1
  0
ENDSEC
  0
SECTION
  2
TABLES
  0
TABLE
  2
VPORT
  5
8
330
0
100
AcDbSymbolTable
 70
     4
  0
VPORT
  5
2E
330
8
100
AcDbSymbolTableRecord
100
AcDbViewportTableRecord
  2
*ACTIVE
 70
     0
 10
0.0
 20
0.0
 11
1.0
 21
1.0
 12
210.0
 22
148.5
 13
0.0
 23
0.0
 14
10.0
 24
10.0
 15
10.0
 25
10.0
 16
0.0
 26
0.0
 36
1.0
 17
0.0
 27
0.0
 37
0.0
 40
341.0
 41
1.24
 42
50.0
 43
0.0
 44
0.0
 50
0.0
 51
0.0
 71
     0
 72
   100
 73
     1
 74
     3
 75
     0
 76
     0
 77
     0
 78
     0
  0
ENDTAB
  0
TABLE
  2
LTYPE
  5
5
330
0
100
AcDbSymbolTable
 70
     1
  0
LTYPE
  5
14
330
5
100
AcDbSymbolTableRecord
100
AcDbLinetypeTableRecord
  2
BYBLOCK
 70
     0
  3

 72
    65
 73
     0
 40
0.0
  0
LTYPE
  5
15
330
5
100
AcDbSymbolTableRecord
100
AcDbLinetypeTableRecord
  2
BYLAYER
 70
     0
  3

 72
    65
 73
     0
 40
0.0
  0
LTYPE
  5
16
330
5
100
AcDbSymbolTableRecord
100
AcDbLinetypeTableRecord
  2
CONTINUOUS
 70
     0
  3
Solid line
 72
    65
 73
     0
 40
0.0
  0
ENDTAB
  0
TABLE
  2
LAYER
  5
2
100
AcDbSymbolTable
 70
2
  0
LAYER
  5
50
100
AcDbSymbolTableRecord
100
AcDbLayerTableRecord
  2
0
 70
0
  6
CONTINUOUS
  0
LAYER
  5
51
100
AcDbSymbolTableRecord
100
AcDbLayerTableRecord
  2
Layer_1
 70
0
  6
CONTINUOUS
  0
ENDTAB
  0
TABLE
  2
STYLE
  5
3
330
0
100
AcDbSymbolTable
 70
     1
  0
STYLE
  5
11
330
3
100
AcDbSymbolTableRecord
100
AcDbTextStyleTableRecord
  2
STANDARD
 70
     0
 40
0.0
 41
1.0
 50
0.0
 71
     0
 42
2.5
  3
txt
  4

  0
ENDTAB
  0
TABLE
  2
VIEW
  5
6
330
0
100
AcDbSymbolTable
 70
     0
  0
ENDTAB
  0
TABLE
  2
UCS
  5
7
330
0
100
AcDbSymbolTable
 70
     0
  0
ENDTAB
  0
TABLE
  2
APPID
  5
9
330
0
100
AcDbSymbolTable
 70
     2
  0
APPID
  5
12
330
9
100
AcDbSymbolTableRecord
100
AcDbRegAppTableRecord
  2
ACAD
 70
     0
  0
ENDTAB
  0
TABLE
  2
DIMSTYLE
  5
A
330
0
100
AcDbSymbolTable
 70
     1
  0
DIMSTYLE
105
27
330
A
100
AcDbSymbolTableRecord
100
AcDbDimStyleTableRecord
  2
ISO-25
 70
     0
  3

  4

  5

  6

  7

 40
1.0
 41
2.5
 42
0.625
 43
3.75
 44
1.25
 45
0.0
 46
0.0
 47
0.0
 48
0.0
140
2.5
141
2.5
142
0.0
143
0.03937007874016
144
1.0
145
0.0
146
1.0
147
0.625
 71
     0
 72
     0
 73
     0
 74
     0
 75
     0
 76
     0
 77
     1
 78
     8
170
     0
171
     3
172
     1
173
     0
174
     0
175
     0
176
     0
177
     0
178
     0
270
     2
271
     2
272
     2
273
     2
274
     3
340
11
275
     0
280
     0
281
     0
282
     0
283
     0
284
     8
285
     0
286
     0
287
     3
288
     0
  0
ENDTAB
  0
TABLE
  2
BLOCK_RECORD
  5
1
330
0
100
AcDbSymbolTable
 70
     1
  0
BLOCK_RECORD
  5
1F
330
1
100
AcDbSymbolTableRecord
100
AcDbBlockTableRecord
  2
*MODEL_SPACE
  0
BLOCK_RECORD
  5
1B
330
1
100
AcDbSymbolTableRecord
100
AcDbBlockTableRecord
  2
*PAPER_SPACE
  0
ENDTAB
  0
ENDSEC
  0
SECTION
  2
BLOCKS
  0
BLOCK
  5
20
330
1F
100
AcDbEntity
  8
0
100
AcDbBlockBegin
  2
*MODEL_SPACE
 70
     0
 10
0.0
 20
0.0
 30
0.0
  3
*MODEL_SPACE
  1

  0
ENDBLK
  5
21
330
1F
100
AcDbEntity
  8
0
100
AcDbBlockEnd
  0
BLOCK
  5
1C
330
1B
100
AcDbEntity
 67
     1
  8
0
100
AcDbBlockBegin
  2
*PAPER_SPACE
  1

  0
ENDBLK
  5
1D
330
1B
100
AcDbEntity
 67
     1
  8
0
100
AcDbBlockEnd
  0
ENDSEC
  0
SECTION
  2
ENTITIES
  0
LINE
  5
100
100
AcDbEntity
  8
Layer_1
 62
3
100
AcDbLine
 10
-354.910300
 20
1492.217200
 30
0.0
 11
-360.245642
 21
1499.318866
 31
0.0
  0
LINE
  5
101
100
AcDbEntity
  8
Layer_1
 62
3
100
AcDbLine
 10
-360.245642
 20
1499.318866
 30
0.0
 11
-359.866820
 21
1538.714827
 31
0.0
  0
LINE
  5
102
100
AcDbEntity
  8
Layer_1
 62
3
100
AcDbLine
 10
-359.866820
 20
1538.714827
 30
0.0
 11
-354.910300
 21
1545.628982
 31
0.0
  0
LINE
  5
103
100
AcDbEntity
  8
Layer_1
 62
3
100
AcDbLine
 10
-354.910300
 20
1545.628982
 30
0.0
 11
-347.257920
 21
1549.227677
 31
0.0
  0
LINE
  5
104
100
AcDbEntity
  8
Layer_1
 62
3
100
AcDbLine
 10
-347.257920
 20
1549.227677
 30
0.0
 11
-340.926483
 21
1554.624729
 31
0.0
  0
LINE
  5
105
100
AcDbEntity
  8
Layer_1
 62
3
100
AcDbLine
 10
-340.926483
 20
1554.624729
 30
0.0
 11
-307.970242
 21
1554.245936
 31
0.0
  0
LINE
  5
106
100
AcDbEntity
  8
Layer_1
 62
3
100
AcDbLine
 10
-307.970242
 20
1554.245936
 30
0.0
 11
-302.179883
 21
1549.227677
 31
0.0
  0
LINE
  5
107
100
AcDbEntity
  8
Layer_1
 62
3
100
AcDbLine
 10
-302.179883
 20
1549.227677
 30
0.0
 11
-294.527729
 21
1545.628982
 31
0.0
  0
LINE
  5
108
100
AcDbEntity
  8
Layer_1
 62
3
100
AcDbLine
 10
-294.527729
 20
1545.628982
 30
0.0
 11
-298.126425
 21
1553.281277
 31
0.0
  0
LINE
  5
109
100
AcDbEntity
  8
Layer_1
 62
3
100
AcDbLine
 10
-298.126425
 20
1553.281277
 30
0.0
 11
-298.126425
 21
1598.359342
 31
0.0
  0
LINE
  5
10a
100
AcDbEntity
  8
Layer_1
 62
3
100
AcDbLine
 10
-298.126425
 20
1598.359342
 30
0.0
 11
-294.527729
 21
1606.011525
 31
0.0
  0
LINE
  5
10b
100
AcDbEntity
  8
Layer_1
 62
3
100
AcDbLine
 10
-294.527729
 20
1606.011525
 30
0.0
 11
-286.378236
 21
1612.203411
 31
0.0
  0
LINE
  5
10c
100
AcDbEntity
  8
Layer_1
 62
3
100
AcDbLine
 10
-286.378236
 20
1612.203411
 30
0.0
 11
-253.043203
 21
1612.961027
 31
0.0
  0
LINE
  5
10d
100
AcDbEntity
  8
Layer_1
 62
3
100
AcDbLine
 10
-253.043203
 20
1612.961027
 30
0.0
 11
-241.115939
 21
1606.011525
 31
0.0
  0
LINE
  5
10e
100
AcDbEntity
  8
Layer_1
 62
3
100
AcDbLine
 10
-241.115939
 20
1606.011525
 30
0.0
 11
-237.517265
 21
1598.359342
 31
0.0
  0
LINE
  5
10f
100
AcDbEntity
  8
Layer_1
 62
3
100
AcDbLine
 10
-237.517265
 20
1598.359342
 30
0.0
 11
-231.830003
 21
1592.884253
 31
0.0
  0
LINE
  5
110
100
AcDbEntity
  8
Layer_1
 62
3
100
AcDbLine
 10
-231.830003
 20
1592.884253
 30
0.0
 11
-231.830003
 21
1560.306833
 31
0.0
  0
LINE
  5
111
100
AcDbEntity
  8
Layer_1
 62
3
100
AcDbLine
 10
-231.830003
 20
1560.306833
 30
0.0
 11
-237.517265
 21
1553.281277
 31
0.0
  0
LINE
  5
112
100
AcDbEntity
  8
Layer_1
 62
3
100
AcDbLine
 10
-237.517265
 20
1553.281277
 30
0.0
 11
-241.115939
 21
1545.628982
 31
0.0
  0
LINE
  5
113
100
AcDbEntity
  8
Layer_1
 62
3
100
AcDbLine
 10
-241.115939
 20
1545.628982
 30
0.0
 11
-233.463592
 21
1549.227677
 31
0.0
  0
LINE
  5
114
100
AcDbEntity
  8
Layer_1
 62
3
100
AcDbLine
 10
-233.463592
 20
1549.227677
 30
0.0
 11
-188.385549
 21
1549.227677
 31
0.0
  0
LINE
  5
115
100
AcDbEntity
  8
Layer_1
 62
3
100
AcDbLine
 10
-188.385549
 20
1549.227677
 30
0.0
 11
-180.733418
 21
1545.628982
 31
0.0
  0
LINE
  5
116
100
AcDbEntity
  8
Layer_1
 62
3
100
AcDbLine
 10
-180.733418
 20
1545.628982
 30
0.0
 11
-127.321617
 21
1545.628982
 31
0.0
  0
LINE
  5
117
100
AcDbEntity
  8
Layer_1
 62
3
100
AcDbLine
 10
-127.321617
 20
1545.628982
 30
0.0
 11
-127.321617
 21
1492.217200
 31
0.0
  0
LINE
  5
118
100
AcDbEntity
  8
Layer_1
 62
3
100
AcDbLine
 10
-127.321617
 20
1492.217200
 30
0.0
 11
-180.733418
 21
1492.217200
 31
0.0
  0
LINE
  5
119
100
AcDbEntity
  8
Layer_1
 62
3
100
AcDbLine
 10
-180.733418
 20
1492.217200
 30
0.0
 11
-188.385549
 21
1488.618504
 31
0.0
  0
LINE
  5
11a
100
AcDbEntity
  8
Layer_1
 62
3
100
AcDbLine
 10
-188.385549
 20
1488.618504
 30
0.0
 11
-198.873772
 21
1483.408964
 31
0.0
  0
LINE
  5
11b
100
AcDbEntity
  8
Layer_1
 62
3
100
AcDbLine
 10
-198.873772
 20
1483.408964
 30
0.0
 11
-227.284311
 21
1483.408964
 31
0.0
  0
LINE
  5
11c
100
AcDbEntity
  8
Layer_1
 62
3
100
AcDbLine
 10
-227.284311
 20
1483.408964
 30
0.0
 11
-233.463592
 21
1488.618504
 31
0.0
  0
LINE
  5
11d
100
AcDbEntity
  8
Layer_1
 62
3
100
AcDbLine
 10
-233.463592
 20
1488.618504
 30
0.0
 11
-241.115939
 21
1492.217200
 31
0.0
  0
LINE
  5
11e
100
AcDbEntity
  8
Layer_1
 62
3
100
AcDbLine
 10
-241.115939
 20
1492.217200
 30
0.0
 11
-237.517265
 21
1484.564989
 31
0.0
  0
LINE
  5
11f
100
AcDbEntity
  8
Layer_1
 62
3
100
AcDbLine
 10
-237.517265
 20
1484.564989
 30
0.0
 11
-237.517265
 21
1439.486924
 31
0.0
  0
LINE
  5
120
100
AcDbEntity
  8
Layer_1
 62
3
100
AcDbLine
 10
-237.517265
 20
1439.486924
 30
0.0
 11
-241.115916
 21
1431.834657
 31
0.0
  0
LINE
  5
121
100
AcDbEntity
  8
Layer_1
 62
3
100
AcDbLine
 10
-241.115916
 20
1431.834657
 30
0.0
 11
-249.633935
 21
1425.451488
 31
0.0
  0
LINE
  5
122
100
AcDbEntity
  8
Layer_1
 62
3
100
AcDbLine
 10
-249.633935
 20
1425.451488
 30
0.0
 11
-285.620620
 21
1425.451488
 31
0.0
  0
LINE
  5
123
100
AcDbEntity
  8
Layer_1
 62
3
100
AcDbLine
 10
-285.620620
 20
1425.451488
 30
0.0
 11
-294.527729
 21
1431.834657
 31
0.0
  0
LINE
  5
124
100
AcDbEntity
  8
Layer_1
 62
3
100
AcDbLine
 10
-294.527729
 20
1431.834657
 30
0.0
 11
-298.126425
 21
1439.486924
 31
0.0
  0
LINE
  5
125
100
AcDbEntity
  8
Layer_1
 62
3
100
AcDbLine
 10
-298.126425
 20
1439.486924
 30
0.0
 11
-306.076217
 21
1447.422288
 31
0.0
  0
LINE
  5
126
100
AcDbEntity
  8
Layer_1
 62
3
100
AcDbLine
 10
-306.076217
 20
1447.422288
 30
0.0
 11
-306.076217
 21
1476.590451
 31
0.0
  0
LINE
  5
127
100
AcDbEntity
  8
Layer_1
 62
3
100
AcDbLine
 10
-306.076217
 20
1476.590451
 30
0.0
 11
-298.126425
 21
1484.564989
 31
0.0
  0
LINE
  5
128
100
AcDbEntity
  8
Layer_1
 62
3
100
AcDbLine
 10
-298.126425
 20
1484.564989
 30
0.0
 11
-294.527729
 21
1492.217200
 31
0.0
  0
LINE
  5
129
100
AcDbEntity
  8
Layer_1
 62
3
100
AcDbLine
 10
-294.527729
 20
1492.217200
 30
0.0
 11
-302.179883
 21
1488.618504
 31
0.0
  0
LINE
  5
12a
100
AcDbEntity
  8
Layer_1
 62
3
100
AcDbLine
 10
-302.179883
 20
1488.618504
 30
0.0
 11
-347.257920
 21
1488.618504
 31
0.0
  0
LINE
  5
12b
100
AcDbEntity
  8
Layer_1
 62
3
100
AcDbLine
 10
-347.257920
 20
1488.618504
 30
0.0
 11
-354.910300
 21
1492.217200
 31
0.0
  0
LINE
  5
12c
100
AcDbEntity
  8
Layer_1
 62
7
100
AcDbLine
 10
-354.910300
 20
1492.217200
 30
0.0
 11
-354.910300
 21
1545.628982
 31
0.0
  0
LINE
  5
12d
100
AcDbEntity
  8
Layer_1
 62
7
100
AcDbLine
 10
-347.257920
 20
1488.618504
 30
0.0
 11
-347.257920
 21
1549.227677
 31
0.0
  0
LINE
  5
12e
100
AcDbEntity
  8
Layer_1
 62
7
100
AcDbLine
 10
-347.257920
 20
1549.227677
 30
0.0
 11
-302.179883
 21
1549.227677
 31
0.0
  0
LINE
  5
12f
100
AcDbEntity
  8
Layer_1
 62
7
100
AcDbLine
 10
-302.179883
 20
1549.227677
 30
0.0
 11
-302.179883
 21
1488.618504
 31
0.0
  0
LINE
  5
130
100
AcDbEntity
  8
Layer_1
 62
7
100
AcDbLine
 10
-294.527729
 20
1606.011525
 30
0.0
 11
-241.115939
 21
1606.011525
 31
0.0
  0
LINE
  5
131
100
AcDbEntity
  8
Layer_1
 62
7
100
AcDbLine
 10
-298.126425
 20
1598.359342
 30
0.0
 11
-237.517265
 21
1598.359342
 31
0.0
  0
LINE
  5
132
100
AcDbEntity
  8
Layer_1
 62
7
100
AcDbLine
 10
-237.517265
 20
1598.359342
 30
0.0
 11
-237.517260
 21
1553.281277
 31
0.0
  0
LINE
  5
133
100
AcDbEntity
  8
Layer_1
 62
7
100
AcDbLine
 10
-237.517260
 20
1553.281277
 30
0.0
 11
-298.126425
 21
1553.281277
 31
0.0
  0
LINE
  5
134
100
AcDbEntity
  8
Layer_1
 62
7
100
AcDbLine
 10
-237.517265
 20
1484.564989
 30
0.0
 11
-298.126425
 21
1484.564989
 31
0.0
  0
LINE
  5
135
100
AcDbEntity
  8
Layer_1
 62
7
100
AcDbLine
 10
-298.126425
 20
1484.564989
 30
0.0
 11
-298.126425
 21
1439.486924
 31
0.0
  0
LINE
  5
136
100
AcDbEntity
  8
Layer_1
 62
7
100
AcDbLine
 10
-298.126425
 20
1439.486924
 30
0.0
 11
-237.517260
 21
1439.486924
 31
0.0
  0
LINE
  5
137
100
AcDbEntity
  8
Layer_1
 62
7
100
AcDbLine
 10
-233.463592
 20
1549.227677
 30
0.0
 11
-233.463592
 21
1488.618504
 31
0.0
  0
LINE
  5
138
100
AcDbEntity
  8
Layer_1
 62
7
100
AcDbLine
 10
-233.463592
 20
1488.618504
 30
0.0
 11
-188.385549
 21
1488.618504
 31
0.0
  0
LINE
  5
139
100
AcDbEntity
  8
Layer_1
 62
7
100
AcDbLine
 10
-188.385549
 20
1488.618504
 30
0.0
 11
-188.385549
 21
1549.227677
 31
0.0
  0
LINE
  5
13a
100
AcDbEntity
  8
Layer_1
 62
7
100
AcDbLine
 10
-180.733418
 20
1545.628982
 30
0.0
 11
-180.733418
 21
1492.217200
 31
0.0
  0
LINE
  5
13b
100
AcDbEntity
  8
Layer_1
 62
7
100
AcDbLine
 10
-294.527729
 20
1431.834657
 30
0.0
 11
-241.115916
 21
1431.834657
 31
0.0
  0
LINE
  5
13c
100
AcDbEntity
  8
Layer_1
 62
7
100
AcDbLine
 10
-294.527729
 20
1545.628982
 30
0.0
 11
-294.527729
 21
1492.217200
 31
0.0
  0
LINE
  5
13d
100
AcDbEntity
  8
Layer_1
 62
7
100
AcDbLine
 10
-294.527729
 20
1492.217200
 30
0.0
 11
-241.115939
 21
1492.217200
 31
0.0
  0
LINE
  5
13e
100
AcDbEntity
  8
Layer_1
 62
7
100
AcDbLine
 10
-241.115939
 20
1492.217200
 30
0.0
 11
-241.115939
 21
1545.628982
 31
0.0
  0
LINE
  5
13f
100
AcDbEntity
  8
Layer_1
 62
7
100
AcDbLine
 10
-241.115939
 20
1545.628982
 30
0.0
 11
-294.527729
 21
1545.628982
 31
0.0
  0
SPLINE
  5
140
100
AcDbEntity
  8
Layer_1
 62
3
100
AcDbSpline
 70
0
 71
3
 72
13
 73
9
 74
7
 40
0.000000
 40
0.000000
 40
0.000000
 40
0.000000
 40
42.545784
 40
105.645130
 40
141.426610
 40
149.506418
 40
157.819971
 40
163.861483
 40
163.861483
 40
163.861483
 40
163.861483
 10
-313.766463
 20
1769.105374
 30
0.0
 10
-299.591021
 20
1769.690447
 30
0.0
 10
-264.392085
 20
1771.143240
 30
0.0
 10
-217.303855
 20
1770.242592
 30
0.0
 10
-181.525148
 20
1769.750305
 30
0.0
 10
-164.266446
 20
1769.606187
 30
0.0
 10
-156.531485
 20
1769.425482
 30
0.0
 10
-152.445435
 20
1766.792823
 30
0.0
 10
-150.725769
 20
1765.684835
 30
0.0
 11
-313.766463
 21
1769.105374
 31
0.0
 11
-271.244066
 21
1770.515856
 31
0.0
 11
-208.145840
 21
1770.139725
 31
0.0
 11
-172.367358
 21
1769.676526
 31
0.0
 11
-164.288061
 21
1769.585757
 31
0.0
 11
-156.037662
 21
1768.562968
 31
0.0
 11
-150.725769
 21
1765.684835
 31
0.0
  0
LINE
  5
141
100
AcDbEntity
  8
Layer_1
 62
3
100
AcDbLine
 10
-313.766463
 20
1769.105374
 30
0.0
 11
-313.766463
 21
1769.105374
 31
0.0
  0
LINE
  5
142
100
AcDbEntity
  8
Layer_1
 62
3
100
AcDbLine
 10
-347.457321
 20
1683.875687
 30
0.0
 11
-318.477372
 21
1714.360260
 31
0.0
  0
LINE
  5
143
100
AcDbEntity
  8
Layer_1
 62
3
100
AcDbLine
 10
-318.477372
 20
1714.360260
 30
0.0
 11
-298.151534
 21
1714.524953
 31
0.0
  0
SPLINE
  5
144
100
AcDbEntity
  8
Layer_1
 62
3
100
AcDbSpline
 70
0
 71
3
 72
25
 73
21
 74
19
 40
0.000000
 40
0.000000
 40
0.000000
 40
0.000000
 40
9.532429
 40
18.616193
 40
27.682443
 40
69.520221
 40
123.089244
 40
158.068432
 40
164.769928
 40
171.011859
 40
176.663518
 40
190.645275
 40
204.812578
 40
214.030106
 40
217.574879
 40
221.025284
 40
224.349112
 40
238.103711
 40
250.362958
 40
262.658408
 40
262.658408
 40
262.658408
 40
262.658408
 10
-150.725769
 20
1765.684835
 30
0.0
 10
-152.297005
 20
1762.846006
 30
0.0
 10
-155.365525
 20
1757.301964
 30
0.0
 10
-163.830391
 20
1752.813932
 30
0.0
 10
-182.896293
 20
1747.079971
 30
0.0
 10
-217.369354
 20
1740.986117
 30
0.0
 10
-260.212838
 20
1734.371075
 30
0.0
 10
-291.465974
 20
1728.162771
 30
0.0
 10
-307.514240
 20
1727.910037
 30
0.0
 10
-313.610979
 20
1729.181595
 30
0.0
 10
-321.942747
 20
1731.398359
 30
0.0
 10
-332.291342
 20
1736.207897
 30
0.0
 10
-342.369057
 20
1743.360615
 30
0.0
 10
-350.072582
 20
1748.387216
 30
0.0
 10
-352.848571
 20
1753.156461
 30
0.0
 10
-352.921071
 20
1756.885390
 30
0.0
 10
-348.155436
 20
1762.242425
 30
0.0
 10
-338.428270
 20
1765.233009
 30
0.0
 10
-325.974495
 20
1767.552599
 30
0.0
 10
-317.839805
 20
1768.587274
 30
0.0
 10
-313.766463
 20
1769.105374
 30
0.0
 11
-150.725769
 21
1765.684835
 31
0.0
 11
-156.127487
 21
1757.830623
 31
0.0
 11
-163.890507
 21
1753.113602
 31
0.0
 11
-172.500133
 21
1750.272612
 31
0.0
 11
-213.473044
 21
1741.809740
 31
0.0
 11
-266.305979
 21
1732.959806
 31
0.0
 11
-300.942858
 21
1728.078187
 31
0.0
 11
-307.643814
 21
1728.163176
 31
0.0
 11
-313.785275
 21
1729.278597
 31
0.0
 11
-319.234730
 21
1730.776826
 31
0.0
 11
-331.981283
 21
1736.522688
 31
0.0
 11
-343.844448
 21
1744.267220
 31
0.0
 11
-350.930822
 21
1750.161805
 31
0.0
 11
-352.569782
 21
1753.304929
 31
0.0
 11
-352.501635
 21
1756.754660
 31
0.0
 11
-350.512561
 21
1759.417632
 31
0.0
 11
-337.979555
 21
1765.084443
 31
0.0
 11
-325.948294
 21
1767.437718
 31
0.0
 11
-313.766463
 21
1769.105374
 31
0.0
  0
LINE
  5
145
100
AcDbEntity
  8
Layer_1
 62
3
100
AcDbLine
 10
-276.743040
 20
1713.875450
 30
0.0
 11
-292.942028
 21
1684.154135
 31
0.0
  0
LINE
  5
146
100
AcDbEntity
  8
Layer_1
 62
3
100
AcDbLine
 10
-292.942028
 20
1684.154135
 30
0.0
 11
-347.457321
 21
1683.875687
 31
0.0
  0
SPLINE
  5
147
100
AcDbEntity
  8
Layer_1
 62
3
100
AcDbSpline
 70
0
 71
3
 72
16
 73
12
 74
10
 40
0.000000
 40
0.000000
 40
0.000000
 40
0.000000
 40
42.101702
 40
109.848416
 40
164.304119
 40
166.136288
 40
168.223968
 40
174.327758
 40
210.403131
 40
274.254700
 40
310.466791
 40
310.466791
 40
310.466791
 40
310.466791
 10
-298.151534
 20
1714.524953
 30
0.0
 10
-285.061726
 20
1719.649306
 30
0.0
 10
-250.908839
 20
1733.019361
 30
0.0
 10
-191.198099
 20
1726.564886
 30
0.0
 10
-159.165457
 20
1732.430969
 30
0.0
 10
-133.331967
 20
1728.167098
 30
0.0
 10
-137.002256
 20
1724.951511
 30
0.0
 10
-149.940030
 20
1722.842115
 30
0.0
 10
-187.475952
 20
1723.306242
 30
0.0
 10
-231.967011
 20
1722.682801
 30
0.0
 10
-264.844859
 20
1716.215798
 30
0.0
 10
-276.743040
 20
1713.875450
 30
0.0
 11
-298.151534
 21
1714.524953
 31
0.0
 11
-258.034843
 21
1727.300101
 31
0.0
 11
-190.317489
 21
1729.294405
 31
0.0
 11
-135.866471
 21
1728.580061
 31
0.0
 11
-134.137590
 21
1727.973589
 31
0.0
 11
-135.492386
 21
1726.385214
 31
0.0
 11
-141.234837
 21
1724.316272
 31
0.0
 11
-177.288608
 21
1723.068007
 31
0.0
 11
-241.071603
 21
1720.109555
 31
0.0
 11
-276.743040
 21
1713.875450
 31
0.0
  0
SPLINE
  5
148
100
AcDbEntity
  8
Layer_1
 62
3
100
AcDbSpline
 70
0
 71
3
 72
10
 73
6
 74
4
 40
0.000000
 40
0.000000
 40
0.000000
 40
0.000000
 40
42.545784
 40
105.645130
 40
141.426609
 40
141.426609
 40
141.426609
 40
141.426609
 10
-175.526232
 20
1631.779298
 30
0.0
 10
-189.703412
 20
1631.323007
 30
0.0
 10
-224.906665
 20
1630.189992
 30
0.0
 10
-272.049806
 20
1631.556437
 30
0.0
 10
-305.000808
 20
1632.255054
 30
0.0
 10
-316.924612
 20
1632.507859
 30
0.0
 11
-175.526232
 21
1631.779298
 31
0.0
 11
-218.059797
 21
1630.759731
 31
0.0
 11
-281.151899
 21
1631.715823
 31
0.0
 11
-316.924612
 21
1632.507859
 31
0.0
  0
SPLINE
  5
149
100
AcDbEntity
  8
Layer_1
 62
3
100
AcDbSpline
 70
0
 71
3
 72
10
 73
6
 74
4
 40
0.000000
 40
0.000000
 40
0.000000
 40
0.000000
 40
8.079814
 40
16.393350
 40
22.434779
 40
22.434779
 40
22.434779
 40
22.434779
 10
-316.924612
 20
1632.507859
 30
0.0
 10
-319.599305
 20
1632.556064
 30
0.0
 10
-325.026060
 20
1632.653867
 30
0.0
 10
-332.757198
 20
1632.904498
 30
0.0
 10
-336.819104
 20
1635.574584
 30
0.0
 10
-338.528597
 20
1636.698315
 30
0.0
 11
-316.924612
 21
1632.507859
 31
0.0
 11
-325.002734
 21
1632.673203
 31
0.0
 11
-333.243383
 21
1633.771649
 31
0.0
 11
-338.528597
 21
1636.698315
 31
0.0
  0
LINE
  5
14a
100
AcDbEntity
  8
Layer_1
 62
3
100
AcDbLine
 10
-175.526232
 20
1631.779298
 30
0.0
 11
-175.526232
 21
1631.779298
 31
0.0
  0
LINE
  5
14b
100
AcDbEntity
  8
Layer_1
 62
3
100
AcDbLine
 10
-141.053395
 20
1716.695699
 30
0.0
 11
-170.312324
 21
1686.478802
 31
0.0
  0
LINE
  5
14c
100
AcDbEntity
  8
Layer_1
 62
3
100
AcDbLine
 10
-170.312324
 20
1686.478802
 30
0.0
 11
-190.638816
 21
1686.501480
 31
0.0
  0
SPLINE
  5
14d
100
AcDbEntity
  8
Layer_1
 62
3
100
AcDbSpline
 70
0
 71
3
 72
25
 73
21
 74
19
 40
0.000000
 40
0.000000
 40
0.000000
 40
0.000000
 40
9.532424
 40
18.616186
 40
27.682435
 40
69.520215
 40
123.089239
 40
158.068424
 40
164.769920
 40
171.011851
 40
176.663508
 40
190.645269
 40
204.812571
 40
214.030098
 40
217.574870
 40
221.025279
 40
224.349115
 40
238.103713
 40
250.362959
 40
262.658410
 40
262.658410
 40
262.658410
 40
262.658410
 10
-338.528597
 20
1636.698315
 30
0.0
 10
-336.931333
 20
1639.522580
 30
0.0
 10
-333.811984
 20
1645.038180
 30
0.0
 10
-325.306225
 20
1649.448213
 30
0.0
 10
-306.188420
 20
1655.006674
 30
0.0
 10
-271.660808
 20
1660.783428
 30
0.0
 10
-228.758328
 20
1667.004387
 30
0.0
 10
-197.449449
 20
1672.925141
 30
0.0
 10
-181.399538
 20
1673.030365
 30
0.0
 10
-175.314745
 20
1671.702820
 30
0.0
 10
-167.003701
 20
1669.409579
 30
0.0
 10
-156.699757
 20
1664.505107
 30
0.0
 10
-146.688210
 20
1657.260065
 30
0.0
 10
-139.031212
 20
1652.162873
 30
0.0
 10
-136.299175
 20
1647.368313
 30
0.0
 10
-136.260955
 20
1643.638872
 30
0.0
 10
-141.075620
 20
1638.325855
 30
0.0
 10
-150.829875
 20
1635.424813
 30
0.0
 10
-163.304443
 20
1633.219798
 30
0.0
 10
-171.448300
 20
1632.259937
 30
0.0
 10
-175.526232
 20
1631.779298
 30
0.0
 11
-338.528597
 21
1636.698315
 31
0.0
 11
-333.054915
 21
1644.502539
 31
0.0
 11
-325.248866
 21
1649.148003
 31
0.0
 11
-316.613490
 21
1651.909732
 31
0.0
 11
-275.564521
 21
1659.995647
 31
0.0
 11
-222.652473
 21
1668.359584
 31
0.0
 11
-187.972189
 21
1672.922620
 31
0.0
 11
-181.272296
 21
1672.776045
 31
0.0
 11
-175.141347
 21
1671.604222
 31
0.0
 11
-169.705894
 21
1670.055971
 31
0.0
 11
-157.012693
 21
1664.193183
 31
0.0
 11
-145.221214
 21
1656.339938
 31
0.0
 11
-138.189319
 21
1650.380469
 31
0.0
 11
-136.579318
 21
1647.222416
 31
0.0
 11
-136.679171
 21
1643.773452
 31
0.0
 11
-138.692639
 21
1641.128867
 31
0.0
 11
-151.277203
 21
1635.577497
 31
0.0
 11
-163.329586
 21
1633.334914
 31
0.0
 11
-175.526232
 21
1631.779298
 31
0.0
  0
LINE
  5
14e
100
AcDbEntity
  8
Layer_1
 62
3
100
AcDbLine
 10
-212.040434
 20
1687.347735
 30
0.0
 11
-195.568945
 21
1716.918899
 31
0.0
  0
LINE
  5
14f
100
AcDbEntity
  8
Layer_1
 62
3
100
AcDbLine
 10
-195.568945
 20
1716.918899
 30
0.0
 11
-141.053395
 21
1716.695699
 31
0.0
  0
LINE
  5
150
100
AcDbEntity
  8
Layer_1
 62
1
100
AcDbLine
 10
856.104245
 20
1019.748962
 30
0.0
 11
1013.688033
 21
1019.748962
 31
0.0
  0
LINE
  5
151
100
AcDbEntity
  8
Layer_1
 62
1
100
AcDbLine
 10
1013.688033
 20
1019.748962
 30
0.0
 11
1013.688033
 21
956.109354
 31
0.0
  0
LINE
  5
152
100
AcDbEntity
  8
Layer_1
 62
1
100
AcDbLine
 10
1013.688033
 20
956.109354
 30
0.0
 11
856.104245
 21
956.109354
 31
0.0
  0
LINE
  5
153
100
AcDbEntity
  8
Layer_1
 62
1
100
AcDbLine
 10
856.104245
 20
956.109354
 30
0.0
 11
856.104245
 21
1019.748962
 31
0.0
  0
LINE
  5
154
100
AcDbEntity
  8
Layer_1
 62
3
100
AcDbLine
 10
-354.064215
 20
1842.046115
 30
0.0
 11
-196.480427
 21
1842.046115
 31
0.0
  0
LINE
  5
155
100
AcDbEntity
  8
Layer_1
 62
3
100
AcDbLine
 10
-196.480427
 20
1842.046115
 30
0.0
 11
-196.480427
 21
1778.406507
 31
0.0
  0
LINE
  5
156
100
AcDbEntity
  8
Layer_1
 62
3
100
AcDbLine
 10
-196.480427
 20
1778.406507
 30
0.0
 11
-354.064215
 21
1778.406507
 31
0.0
  0
LINE
  5
157
100
AcDbEntity
  8
Layer_1
 62
3
100
AcDbLine
 10
-354.064215
 20
1778.406507
 30
0.0
 11
-354.064215
 21
1842.046115
 31
0.0
  0
LINE
  5
158
100
AcDbEntity
  8
Layer_1
 62
3
100
AcDbLine
 10
-342.740640
 20
1837.533509
 30
0.0
 11
-314.375558
 21
1837.533509
 31
0.0
  0
LINE
  5
159
100
AcDbEntity
  8
Layer_1
 62
3
100
AcDbLine
 10
-314.375558
 20
1837.533509
 30
0.0
 11
-314.375558
 21
1826.078380
 31
0.0
  0
LINE
  5
15a
100
AcDbEntity
  8
Layer_1
 62
3
100
AcDbLine
 10
-314.375558
 20
1826.078380
 30
0.0
 11
-342.740640
 21
1826.078380
 31
0.0
  0
LINE
  5
15b
100
AcDbEntity
  8
Layer_1
 62
3
100
AcDbLine
 10
-342.740640
 20
1826.078380
 30
0.0
 11
-342.740640
 21
1837.533509
 31
0.0
  0
LINE
  5
15c
100
AcDbEntity
  8
Layer_1
 62
3
100
AcDbLine
 10
-342.740640
 20
1837.533509
 30
0.0
 11
-314.375558
 21
1837.533509
 31
0.0
  0
LINE
  5
15d
100
AcDbEntity
  8
Layer_1
 62
3
100
AcDbLine
 10
-314.375558
 20
1837.533509
 30
0.0
 11
-314.375558
 21
1826.078380
 31
0.0
  0
LINE
  5
15e
100
AcDbEntity
  8
Layer_1
 62
3
100
AcDbLine
 10
-314.375558
 20
1826.078380
 30
0.0
 11
-342.740640
 21
1826.078380
 31
0.0
  0
LINE
  5
15f
100
AcDbEntity
  8
Layer_1
 62
3
100
AcDbLine
 10
-342.740640
 20
1826.078380
 30
0.0
 11
-342.740640
 21
1837.533509
 31
0.0
  0
LINE
  5
160
100
AcDbEntity
  8
Layer_1
 62
3
100
AcDbLine
 10
-342.740640
 20
1823.147097
 30
0.0
 11
-314.375558
 21
1823.147097
 31
0.0
  0
LINE
  5
161
100
AcDbEntity
  8
Layer_1
 62
3
100
AcDbLine
 10
-314.375558
 20
1823.147097
 30
0.0
 11
-314.375558
 21
1811.691968
 31
0.0
  0
LINE
  5
162
100
AcDbEntity
  8
Layer_1
 62
3
100
AcDbLine
 10
-314.375558
 20
1811.691968
 30
0.0
 11
-342.740640
 21
1811.691968
 31
0.0
  0
LINE
  5
163
100
AcDbEntity
  8
Layer_1
 62
3
100
AcDbLine
 10
-342.740640
 20
1811.691968
 30
0.0
 11
-342.740640
 21
1823.147097
 31
0.0
  0
LINE
  5
164
100
AcDbEntity
  8
Layer_1
 62
3
100
AcDbLine
 10
-342.740640
 20
1808.760685
 30
0.0
 11
-314.375558
 21
1808.760685
 31
0.0
  0
LINE
  5
165
100
AcDbEntity
  8
Layer_1
 62
3
100
AcDbLine
 10
-314.375558
 20
1808.760685
 30
0.0
 11
-314.375558
 21
1797.305555
 31
0.0
  0
LINE
  5
166
100
AcDbEntity
  8
Layer_1
 62
3
100
AcDbLine
 10
-314.375558
 20
1797.305555
 30
0.0
 11
-342.740640
 21
1797.305555
 31
0.0
  0
LINE
  5
167
100
AcDbEntity
  8
Layer_1
 62
3
100
AcDbLine
 10
-342.740640
 20
1797.305555
 30
0.0
 11
-342.740640
 21
1808.760685
 31
0.0
  0
LINE
  5
168
100
AcDbEntity
  8
Layer_1
 62
3
100
AcDbLine
 10
-342.740640
 20
1794.374274
 30
0.0
 11
-314.375558
 21
1794.374274
 31
0.0
  0
LINE
  5
169
100
AcDbEntity
  8
Layer_1
 62
3
100
AcDbLine
 10
-314.375558
 20
1794.374274
 30
0.0
 11
-314.375558
 21
1782.919144
 31
0.0
  0
LINE
  5
16a
100
AcDbEntity
  8
Layer_1
 62
3
100
AcDbLine
 10
-314.375558
 20
1782.919144
 30
0.0
 11
-342.740640
 21
1782.919144
 31
0.0
  0
LINE
  5
16b
100
AcDbEntity
  8
Layer_1
 62
3
100
AcDbLine
 10
-342.740640
 20
1782.919144
 30
0.0
 11
-342.740640
 21
1794.374274
 31
0.0
  0
LINE
  5
16c
100
AcDbEntity
  8
Layer_1
 62
3
100
AcDbLine
 10
-307.216788
 20
1837.533509
 30
0.0
 11
-278.851706
 21
1837.533509
 31
0.0
  0
LINE
  5
16d
100
AcDbEntity
  8
Layer_1
 62
3
100
AcDbLine
 10
-278.851706
 20
1837.533509
 30
0.0
 11
-278.851706
 21
1826.078380
 31
0.0
  0
LINE
  5
16e
100
AcDbEntity
  8
Layer_1
 62
3
100
AcDbLine
 10
-278.851706
 20
1826.078380
 30
0.0
 11
-307.216788
 21
1826.078380
 31
0.0
  0
LINE
  5
16f
100
AcDbEntity
  8
Layer_1
 62
3
100
AcDbLine
 10
-307.216788
 20
1826.078380
 30
0.0
 11
-307.216788
 21
1837.533509
 31
0.0
  0
LINE
  5
170
100
AcDbEntity
  8
Layer_1
 62
3
100
AcDbLine
 10
-307.216788
 20
1823.147097
 30
0.0
 11
-278.851706
 21
1823.147097
 31
0.0
  0
LINE
  5
171
100
AcDbEntity
  8
Layer_1
 62
3
100
AcDbLine
 10
-278.851706
 20
1823.147097
 30
0.0
 11
-278.851706
 21
1811.691968
 31
0.0
  0
LINE
  5
172
100
AcDbEntity
  8
Layer_1
 62
3
100
AcDbLine
 10
-278.851706
 20
1811.691968
 30
0.0
 11
-307.216788
 21
1811.691968
 31
0.0
  0
LINE
  5
173
100
AcDbEntity
  8
Layer_1
 62
3
100
AcDbLine
 10
-307.216788
 20
1811.691968
 30
0.0
 11
-307.216788
 21
1823.147097
 31
0.0
  0
LINE
  5
174
100
AcDbEntity
  8
Layer_1
 62
3
100
AcDbLine
 10
-307.216788
 20
1808.760685
 30
0.0
 11
-278.851706
 21
1808.760685
 31
0.0
  0
LINE
  5
175
100
AcDbEntity
  8
Layer_1
 62
3
100
AcDbLine
 10
-278.851706
 20
1808.760685
 30
0.0
 11
-278.851706
 21
1797.305555
 31
0.0
  0
LINE
  5
176
100
AcDbEntity
  8
Layer_1
 62
3
100
AcDbLine
 10
-278.851706
 20
1797.305555
 30
0.0
 11
-307.216788
 21
1797.305555
 31
0.0
  0
LINE
  5
177
100
AcDbEntity
  8
Layer_1
 62
3
100
AcDbLine
 10
-307.216788
 20
1797.305555
 30
0.0
 11
-307.216788
 21
1808.760685
 31
0.0
  0
LINE
  5
178
100
AcDbEntity
  8
Layer_1
 62
3
100
AcDbLine
 10
-307.216788
 20
1794.374274
 30
0.0
 11
-278.851706
 21
1794.374274
 31
0.0
  0
LINE
  5
179
100
AcDbEntity
  8
Layer_1
 62
3
100
AcDbLine
 10
-278.851706
 20
1794.374274
 30
0.0
 11
-278.851706
 21
1782.919144
 31
0.0
  0
LINE
  5
17a
100
AcDbEntity
  8
Layer_1
 62
3
100
AcDbLine
 10
-278.851706
 20
1782.919144
 30
0.0
 11
-307.216788
 21
1782.919144
 31
0.0
  0
LINE
  5
17b
100
AcDbEntity
  8
Layer_1
 62
3
100
AcDbLine
 10
-307.216788
 20
1782.919144
 30
0.0
 11
-307.216788
 21
1794.374274
 31
0.0
  0
LINE
  5
17c
100
AcDbEntity
  8
Layer_1
 62
3
100
AcDbLine
 10
-271.692934
 20
1837.533509
 30
0.0
 11
-243.327852
 21
1837.533509
 31
0.0
  0
LINE
  5
17d
100
AcDbEntity
  8
Layer_1
 62
3
100
AcDbLine
 10
-243.327852
 20
1837.533509
 30
0.0
 11
-243.327852
 21
1826.078380
 31
0.0
  0
LINE
  5
17e
100
AcDbEntity
  8
Layer_1
 62
3
100
AcDbLine
 10
-243.327852
 20
1826.078380
 30
0.0
 11
-271.692934
 21
1826.078380
 31
0.0
  0
LINE
  5
17f
100
AcDbEntity
  8
Layer_1
 62
3
100
AcDbLine
 10
-271.692934
 20
1826.078380
 30
0.0
 11
-271.692934
 21
1837.533509
 31
0.0
  0
LINE
  5
180
100
AcDbEntity
  8
Layer_1
 62
3
100
AcDbLine
 10
-271.692934
 20
1823.147097
 30
0.0
 11
-243.327852
 21
1823.147097
 31
0.0
  0
LINE
  5
181
100
AcDbEntity
  8
Layer_1
 62
3
100
AcDbLine
 10
-243.327852
 20
1823.147097
 30
0.0
 11
-243.327852
 21
1811.691968
 31
0.0
  0
LINE
  5
182
100
AcDbEntity
  8
Layer_1
 62
3
100
AcDbLine
 10
-243.327852
 20
1811.691968
 30
0.0
 11
-271.692934
 21
1811.691968
 31
0.0
  0
LINE
  5
183
100
AcDbEntity
  8
Layer_1
 62
3
100
AcDbLine
 10
-271.692934
 20
1811.691968
 30
0.0
 11
-271.692934
 21
1823.147097
 31
0.0
  0
LINE
  5
184
100
AcDbEntity
  8
Layer_1
 62
3
100
AcDbLine
 10
-271.692934
 20
1808.760685
 30
0.0
 11
-243.327852
 21
1808.760685
 31
0.0
  0
LINE
  5
185
100
AcDbEntity
  8
Layer_1
 62
3
100
AcDbLine
 10
-243.327852
 20
1808.760685
 30
0.0
 11
-243.327852
 21
1797.305555
 31
0.0
  0
LINE
  5
186
100
AcDbEntity
  8
Layer_1
 62
3
100
AcDbLine
 10
-243.327852
 20
1797.305555
 30
0.0
 11
-271.692934
 21
1797.305555
 31
0.0
  0
LINE
  5
187
100
AcDbEntity
  8
Layer_1
 62
3
100
AcDbLine
 10
-271.692934
 20
1797.305555
 30
0.0
 11
-271.692934
 21
1808.760685
 31
0.0
  0
LINE
  5
188
100
AcDbEntity
  8
Layer_1
 62
3
100
AcDbLine
 10
-271.692934
 20
1794.374274
 30
0.0
 11
-243.327852
 21
1794.374274
 31
0.0
  0
LINE
  5
189
100
AcDbEntity
  8
Layer_1
 62
3
100
AcDbLine
 10
-243.327852
 20
1794.374274
 30
0.0
 11
-243.327852
 21
1782.919144
 31
0.0
  0
LINE
  5
18a
100
AcDbEntity
  8
Layer_1
 62
3
100
AcDbLine
 10
-243.327852
 20
1782.919144
 30
0.0
 11
-271.692934
 21
1782.919144
 31
0.0
  0
LINE
  5
18b
100
AcDbEntity
  8
Layer_1
 62
3
100
AcDbLine
 10
-271.692934
 20
1782.919144
 30
0.0
 11
-271.692934
 21
1794.374274
 31
0.0
  0
LINE
  5
18c
100
AcDbEntity
  8
Layer_1
 62
3
100
AcDbLine
 10
-236.169082
 20
1837.533509
 30
0.0
 11
-207.804000
 21
1837.533509
 31
0.0
  0
LINE
  5
18d
100
AcDbEntity
  8
Layer_1
 62
3
100
AcDbLine
 10
-207.804000
 20
1837.533509
 30
0.0
 11
-207.804000
 21
1826.078380
 31
0.0
  0
LINE
  5
18e
100
AcDbEntity
  8
Layer_1
 62
3
100
AcDbLine
 10
-207.804000
 20
1826.078380
 30
0.0
 11
-236.169082
 21
1826.078380
 31
0.0
  0
LINE
  5
18f
100
AcDbEntity
  8
Layer_1
 62
3
100
AcDbLine
 10
-236.169082
 20
1826.078380
 30
0.0
 11
-236.169082
 21
1837.533509
 31
0.0
  0
LINE
  5
190
100
AcDbEntity
  8
Layer_1
 62
3
100
AcDbLine
 10
-236.169082
 20
1823.147097
 30
0.0
 11
-207.804000
 21
1823.147097
 31
0.0
  0
LINE
  5
191
100
AcDbEntity
  8
Layer_1
 62
3
100
AcDbLine
 10
-207.804000
 20
1823.147097
 30
0.0
 11
-207.804000
 21
1811.691968
 31
0.0
  0
LINE
  5
192
100
AcDbEntity
  8
Layer_1
 62
3
100
AcDbLine
 10
-207.804000
 20
1811.691968
 30
0.0
 11
-236.169082
 21
1811.691968
 31
0.0
  0
LINE
  5
193
100
AcDbEntity
  8
Layer_1
 62
3
100
AcDbLine
 10
-236.169082
 20
1811.691968
 30
0.0
 11
-236.169082
 21
1823.147097
 31
0.0
  0
LINE
  5
194
100
AcDbEntity
  8
Layer_1
 62
3
100
AcDbLine
 10
-236.169082
 20
1808.760685
 30
0.0
 11
-207.804000
 21
1808.760685
 31
0.0
  0
LINE
  5
195
100
AcDbEntity
  8
Layer_1
 62
3
100
AcDbLine
 10
-207.804000
 20
1808.760685
 30
0.0
 11
-207.804000
 21
1797.305555
 31
0.0
  0
LINE
  5
196
100
AcDbEntity
  8
Layer_1
 62
3
100
AcDbLine
 10
-207.804000
 20
1797.305555
 30
0.0
 11
-236.169082
 21
1797.305555
 31
0.0
  0
LINE
  5
197
100
AcDbEntity
  8
Layer_1
 62
3
100
AcDbLine
 10
-236.169082
 20
1797.305555
 30
0.0
 11
-236.169082
 21
1808.760685
 31
0.0
  0
LINE
  5
198
100
AcDbEntity
  8
Layer_1
 62
3
100
AcDbLine
 10
-236.169082
 20
1794.374274
 30
0.0
 11
-207.804000
 21
1794.374274
 31
0.0
  0
LINE
  5
199
100
AcDbEntity
  8
Layer_1
 62
3
100
AcDbLine
 10
-207.804000
 20
1794.374274
 30
0.0
 11
-207.804000
 21
1782.919144
 31
0.0
  0
LINE
  5
19a
100
AcDbEntity
  8
Layer_1
 62
3
100
AcDbLine
 10
-207.804000
 20
1782.919144
 30
0.0
 11
-236.169082
 21
1782.919144
 31
0.0
  0
LINE
  5
19b
100
AcDbEntity
  8
Layer_1
 62
3
100
AcDbLine
 10
-236.169082
 20
1782.919144
 30
0.0
 11
-236.169082
 21
1794.374274
 31
0.0
  0
LINE
  5
19c
100
AcDbEntity
  8
Layer_1
 62
3
100
AcDbLine
 10
-349.778486
 20
1914.903225
 30
0.0
 11
-192.194698
 21
1914.903225
 31
0.0
  0
LINE
  5
19d
100
AcDbEntity
  8
Layer_1
 62
3
100
AcDbLine
 10
-192.194698
 20
1914.903225
 30
0.0
 11
-192.194698
 21
1851.263617
 31
0.0
  0
LINE
  5
19e
100
AcDbEntity
  8
Layer_1
 62
3
100
AcDbLine
 10
-192.194698
 20
1851.263617
 30
0.0
 11
-349.778486
 21
1851.263617
 31
0.0
  0
LINE
  5
19f
100
AcDbEntity
  8
Layer_1
 62
3
100
AcDbLine
 10
-349.778486
 20
1851.263617
 30
0.0
 11
-349.778486
 21
1914.903225
 31
0.0
  0
SPLINE
  5
1a0
100
AcDbEntity
  8
Layer_1
 62
3
100
AcDbSpline
 70
0
 71
3
 72
16
 73
12
 74
10
 40
0.000000
 40
0.000000
 40
0.000000
 40
0.000000
 40
42.101704
 40
109.848417
 40
164.304120
 40
166.136291
 40
168.223968
 40
174.327760
 40
210.403134
 40
274.254704
 40
310.466795
 40
310.466795
 40
310.466795
 40
310.466795
 10
-190.638816
 20
1686.501480
 30
0.0
 10
-203.775172
 20
1681.497658
 30
0.0
 10
-238.049507
 20
1668.442083
 30
0.0
 10
-297.698407
 20
1675.445125
 30
0.0
 10
-329.783596
 20
1669.873735
 30
0.0
 10
-355.576816
 20
1674.374884
 30
0.0
 10
-351.877122
 20
1677.556595
 30
0.0
 10
-338.920517
 20
1679.547008
 30
0.0
 10
-301.390432
 20
1678.737842
 30
0.0
 10
-256.895528
 20
1678.952328
 30
0.0
 10
-223.959626
 20
1685.116852
 30
0.0
 10
-212.040434
 20
1687.347735
 30
0.0
 11
-190.638816
 21
1686.501480
 31
0.0
 11
-230.871237
 21
1674.095604
 31
0.0
 11
-298.604061
 21
1672.723819
 31
0.0
 11
-353.046212
 21
1673.938642
 31
0.0
 11
-354.769448
 21
1674.560981
 31
0.0
 11
-353.400109
 21
1676.136832
 31
0.0
 11
-347.638885
 21
1678.152910
 31
0.0
 11
-311.575162
 21
1679.069723
 31
0.0
 11
-247.767668
 21
1681.441775
 31
0.0
 11
-212.040434
 21
1687.347735
 31
0.0
  0
LINE
  5
1a1
100
AcDbEntity
  8
Layer_1
 62
3
100
AcDbLine
 10
-158.571426
 20
1585.178504
 30
0.0
 11
-158.571426
 21
1585.178504
 31
0.0
  0
LINE
  5
1a2
100
AcDbEntity
  8
Layer_1
 62
3
100
AcDbLine
 10
-207.857138
 20
1585.178532
 30
0.0
 11
-148.928567
 21
1585.178532
 31
0.0
  0
LINE
  5
1a3
100
AcDbEntity
  8
Layer_1
 62
3
100
AcDbLine
 10
-178.928568
 20
1618.928532
 30
0.0
 11
-177.857140
 21
1551.428533
 31
0.0
  0
SPLINE
  5
1a4
100
AcDbEntity
  8
Layer_1
 62
3
100
AcDbSpline
 70
0
 71
3
 72
25
 73
21
 74
19
 40
0.000000
 40
0.000000
 40
0.000000
 40
0.000000
 40
6.916967
 40
13.734941
 40
20.651908
 40
27.568875
 40
34.386850
 40
41.303817
 40
48.220784
 40
55.038758
 40
61.955725
 40
68.872692
 40
75.690666
 40
82.607633
 40
89.524600
 40
96.342575
 40
103.259542
 40
110.176509
 40
116.994483
 40
123.911450
 40
123.911450
 40
123.911450
 40
123.911450
 10
-158.571426
 20
1585.178504
 30
0.0
 10
-158.808252
 20
1582.861089
 30
0.0
 10
-159.278513
 20
1578.259425
 30
0.0
 10
-162.926978
 20
1572.178255
 30
0.0
 10
-168.268947
 20
1567.657064
 30
0.0
 10
-174.883970
 20
1565.259175
 30
0.0
 10
-181.903256
 20
1565.259175
 30
0.0
 10
-188.509014
 20
1567.657064
 30
0.0
 10
-193.887976
 20
1572.178255
 30
0.0
 10
-197.398993
 20
1578.259425
 30
0.0
 10
-198.624864
 20
1585.178504
 30
0.0
 10
-197.398993
 20
1592.097583
 30
0.0
 10
-193.887976
 20
1598.178753
 30
0.0
 10
-188.509014
 20
1602.699944
 30
0.0
 10
-181.903256
 20
1605.097833
 30
0.0
 10
-174.883970
 20
1605.097833
 30
0.0
 10
-168.268947
 20
1602.699944
 30
0.0
 10
-162.926978
 20
1598.178753
 30
0.0
 10
-159.278513
 20
1592.097583
 30
0.0
 10
-158.808252
 20
1587.495919
 30
0.0
 10
-158.571426
 20
1585.178504
 30
0.0
 11
-158.571426
 21
1585.178504
 31
0.0
 11
-159.778032
 21
1578.367591
 31
0.0
 11
-163.187020
 21
1572.463052
 31
0.0
 11
-168.482140
 21
1568.012644
 31
0.0
 11
-174.983867
 21
1565.652139
 31
0.0
 11
-181.801841
 21
1565.652139
 31
0.0
 11
-188.303568
 21
1568.012644
 31
0.0
 11
-193.598688
 21
1572.463052
 31
0.0
 11
-197.007675
 21
1578.367591
 31
0.0
 11
-198.214282
 21
1585.178504
 31
0.0
 11
-197.007675
 21
1591.989417
 31
0.0
 11
-193.598688
 21
1597.893956
 31
0.0
 11
-188.303568
 21
1602.344364
 31
0.0
 11
-181.801841
 21
1604.704869
 31
0.0
 11
-174.983867
 21
1604.704869
 31
0.0
 11
-168.482140
 21
1602.344364
 31
0.0
 11
-163.187020
 21
1597.893956
 31
0.0
 11
-159.778032
 21
1591.989417
 31
0.0
 11
-158.571426
 21
1585.178504
 31
0.0
  0
LINE
  5
1a5
100
AcDbEntity
  8
Layer_1
 62
3
100
AcDbLine
 10
-156.428570
 20
1451.249935
 30
0.0
 11
-156.428570
 21
1451.249935
 31
0.0
  0
LINE
  5
1a6
100
AcDbEntity
  8
Layer_1
 62
3
100
AcDbLine
 10
-205.714282
 20
1451.249964
 30
0.0
 11
-146.785711
 21
1451.249964
 31
0.0
  0
LINE
  5
1a7
100
AcDbEntity
  8
Layer_1
 62
3
100
AcDbLine
 10
-176.785712
 20
1484.999963
 30
0.0
 11
-175.714284
 21
1417.499964
 31
0.0
  0
LINE
  5
1a8
100
AcDbEntity
  8
Layer_1
 62
3
100
AcDbLine
 10
-249.675114
 20
2046.067266
 30
0.0
 11
-249.675114
 21
1922.317269
 31
0.0
  0
LINE
  5
1a9
100
AcDbEntity
  8
Layer_1
 62
3
100
AcDbLine
 10
-249.675114
 20
1922.317269
 30
0.0
 11
-279.139399
 21
1922.317269
 31
0.0
  0
LINE
  5
1aa
100
AcDbEntity
  8
Layer_1
 62
3
100
AcDbLine
 10
-279.139399
 20
1922.317269
 30
0.0
 11
-279.139399
 21
2046.067266
 31
0.0
  0
LINE
  5
1ab
100
AcDbEntity
  8
Layer_1
 62
3
100
AcDbLine
 10
-279.139399
 20
2046.067266
 30
0.0
 11
-249.675114
 21
2046.067266
 31
0.0
  0
LINE
  5
1ac
100
AcDbEntity
  8
Layer_1
 62
3
100
AcDbLine
 10
-287.555974
 20
2046.067266
 30
0.0
 11
-287.555974
 21
1922.317269
 31
0.0
  0
LINE
  5
1ad
100
AcDbEntity
  8
Layer_1
 62
3
100
AcDbLine
 10
-287.555974
 20
1922.317269
 30
0.0
 11
-317.020259
 21
1922.317269
 31
0.0
  0
LINE
  5
1ae
100
AcDbEntity
  8
Layer_1
 62
3
100
AcDbLine
 10
-317.020259
 20
1922.317269
 30
0.0
 11
-317.020259
 21
2046.067266
 31
0.0
  0
LINE
  5
1af
100
AcDbEntity
  8
Layer_1
 62
3
100
AcDbLine
 10
-317.020259
 20
2046.067266
 30
0.0
 11
-287.555974
 21
2046.067266
 31
0.0
  0
LINE
  5
1b0
100
AcDbEntity
  8
Layer_1
 62
3
100
AcDbLine
 10
-325.436818
 20
2046.067266
 30
0.0
 11
-325.436818
 21
1922.317269
 31
0.0
  0
LINE
  5
1b1
100
AcDbEntity
  8
Layer_1
 62
3
100
AcDbLine
 10
-325.436818
 20
1922.317269
 30
0.0
 11
-354.901102
 21
1922.317269
 31
0.0
  0
LINE
  5
1b2
100
AcDbEntity
  8
Layer_1
 62
3
100
AcDbLine
 10
-354.901102
 20
1922.317269
 30
0.0
 11
-354.901102
 21
2046.067266
 31
0.0
  0
LINE
  5
1b3
100
AcDbEntity
  8
Layer_1
 62
3
100
AcDbLine
 10
-354.901102
 20
2046.067266
 30
0.0
 11
-325.436818
 21
2046.067266
 31
0.0
  0
LINE
  5
1b4
100
AcDbEntity
  8
Layer_1
 62
3
100
AcDbLine
 10
-151.185636
 20
1906.666255
 30
0.0
 11
-151.185636
 21
1782.916258
 31
0.0
  0
LINE
  5
1b5
100
AcDbEntity
  8
Layer_1
 62
3
100
AcDbLine
 10
-151.185636
 20
1782.916258
 30
0.0
 11
-180.649921
 21
1782.916258
 31
0.0
  0
LINE
  5
1b6
100
AcDbEntity
  8
Layer_1
 62
3
100
AcDbLine
 10
-180.649921
 20
1782.916258
 30
0.0
 11
-180.649921
 21
1906.666255
 31
0.0
  0
LINE
  5
1b7
100
AcDbEntity
  8
Layer_1
 62
3
100
AcDbLine
 10
-180.649921
 20
1906.666255
 30
0.0
 11
-151.185636
 21
1906.666255
 31
0.0
  0
SPLINE
  5
1b8
100
AcDbEntity
  8
Layer_1
 62
3
100
AcDbSpline
 70
0
 71
3
 72
25
 73
21
 74
19
 40
0.000000
 40
0.000000
 40
0.000000
 40
0.000000
 40
6.916967
 40
13.734941
 40
20.651908
 40
27.568875
 40
34.386850
 40
41.303817
 40
48.220784
 40
55.038758
 40
61.955725
 40
68.872692
 40
75.690666
 40
82.607633
 40
89.524600
 40
96.342575
 40
103.259542
 40
110.176509
 40
116.994483
 40
123.911450
 40
123.911450
 40
123.911450
 40
123.911450
 10
-156.428570
 20
1451.249935
 30
0.0
 10
-156.665396
 20
1448.932520
 30
0.0
 10
-157.135657
 20
1444.330856
 30
0.0
 10
-160.784122
 20
1438.249686
 30
0.0
 10
-166.126091
 20
1433.728495
 30
0.0
 10
-172.741114
 20
1431.330607
 30
0.0
 10
-179.760400
 20
1431.330607
 30
0.0
 10
-186.366158
 20
1433.728495
 30
0.0
 10
-191.745120
 20
1438.249686
 30
0.0
 10
-195.256137
 20
1444.330856
 30
0.0
 10
-196.482008
 20
1451.249935
 30
0.0
 10
-195.256137
 20
1458.169014
 30
0.0
 10
-191.745120
 20
1464.250185
 30
0.0
 10
-186.366158
 20
1468.771375
 30
0.0
 10
-179.760400
 20
1471.169264
 30
0.0
 10
-172.741114
 20
1471.169264
 30
0.0
 10
-166.126091
 20
1468.771375
 30
0.0
 10
-160.784122
 20
1464.250185
 30
0.0
 10
-157.135657
 20
1458.169014
 30
0.0
 10
-156.665396
 20
1453.567350
 30
0.0
 10
-156.428570
 20
1451.249935
 30
0.0
 11
-156.428570
 21
1451.249935
 31
0.0
 11
-157.635176
 21
1444.439022
 31
0.0
 11
-161.044164
 21
1438.534483
 31
0.0
 11
-166.339284
 21
1434.084075
 31
0.0
 11
-172.841011
 21
1431.723571
 31
0.0
 11
-179.658985
 21
1431.723571
 31
0.0
 11
-186.160712
 21
1434.084075
 31
0.0
 11
-191.455832
 21
1438.534483
 31
0.0
 11
-194.864819
 21
1444.439022
 31
0.0
 11
-196.071426
 21
1451.249935
 31
0.0
 11
-194.864819
 21
1458.060848
 31
0.0
 11
-191.455832
 21
1463.965387
 31
0.0
 11
-186.160712
 21
1468.415795
 31
0.0
 11
-179.658985
 21
1470.776300
 31
0.0
 11
-172.841011
 21
1470.776300
 31
0.0
 11
-166.339284
 21
1468.415795
 31
0.0
 11
-161.044164
 21
1463.965387
 31
0.0
 11
-157.635176
 21
1458.060848
 31
0.0
 11
-156.428570
 21
1451.249935
 31
0.0
  0
ENDSEC
  0
SECTION
  2
OBJECTS
  0
DICTIONARY
  5
C
330
0
100
AcDbDictionary
  3
ACAD_GROUP
350
D
  3
ACAD_MLINESTYLE
350
17
  0
DICTIONARY
  5
D
330
C
100
AcDbDictionary
  0
DICTIONARY
  5
1A
330
C
100
AcDbDictionary
  0
DICTIONARY
  5
17
330
C
100
AcDbDictionary
  3
STANDARD
350
18
  0
DICTIONARY
  5
19
330
C
100
AcDbDictionary
  0
ENDSEC
  0
EOF
