  0
SECTION
  2
BLOCKS
  0
ENDSEC
  0
SECTION
  2
ENTITIES
  0
LINE
  8
0
 10
46
 20
63
 11
0
 21
63
  0
LINE
  8
0
 10
0
 20
63
 11
0
 21
0
  0
LINE
  8
0
 10
0
 20
0
 11
46
 21
0
  0
LINE
  8
0
 10
46
 20
0
 11
46
 21
63
  0
LINE
  8
0
 10
34.8797
 20
53.726
 11
36.4687
 21
57.956
  0
LINE
  8
0
 10
36.4687
 20
57.956
 11
36.6877
 21
57.956
  0
LINE
  8
0
 10
36.6877
 20
57.956
 11
35.0977
 21
53.726
  0
LINE
  8
0
 10
35.0977
 20
53.726
 11
34.8797
 21
53.726
  0
LINE
  8
0
 10
9.04369
 20
54.5
 11
10.1717
 21
57.7
  0
LINE
  8
0
 10
10.1717
 20
57.7
 11
10.3957
 21
57.7
  0
LINE
  8
0
 10
10.3957
 20
57.7
 11
11.5237
 21
54.5
  0
LINE
  8
0
 10
11.5237
 20
54.5
 11
11.2847
 21
54.5
  0
LINE
  8
0
 10
11.2847
 20
54.5
 11
10.9157
 21
55.59
  0
LINE
  8
0
 10
10.9157
 20
55.59
 11
9.6467
 21
55.59
  0
LINE
  8
0
 10
9.6467
 20
55.59
 11
9.26768
 21
54.5
  0
LINE
  8
0
 10
9.26768
 20
54.5
 11
9.04369
 21
54.5
  0
LINE
  8
0
 10
10.6477
 20
56.379
 11
10.4632
 21
56.9292
  0
LINE
  8
0
 10
10.4632
 20
56.9292
 11
10.2937
 21
57.49
  0
LINE
  8
0
 10
10.2937
 20
57.49
 11
10.2737
 21
57.49
  0
LINE
  8
0
 10
10.2737
 20
57.49
 11
10.1018
 21
56.9292
  0
LINE
  8
0
 10
10.1018
 20
56.9292
 11
9.91869
 21
56.379
  0
LINE
  8
0
 10
9.91869
 20
56.379
 11
9.71469
 21
55.78
  0
LINE
  8
0
 10
9.71469
 20
55.78
 11
10.8527
 21
55.78
  0
LINE
  8
0
 10
10.8527
 20
55.78
 11
10.6477
 21
56.379
  0
LINE
  8
0
 10
22.0417
 20
54.5
 11
22.0417
 21
57.7
  0
LINE
  8
0
 10
22.0417
 20
57.7
 11
22.7757
 21
57.7
  0
LINE
  8
0
 10
22.7757
 20
57.7
 11
23.8684
 21
57.2682
  0
LINE
  8
0
 10
23.8684
 20
57.2682
 11
24.2247
 21
56.112
  0
LINE
  8
0
 10
24.2247
 20
56.112
 11
23.869
 21
54.9419
  0
LINE
  8
0
 10
23.869
 20
54.9419
 11
22.7807
 21
54.5
  0
LINE
  8
0
 10
22.7807
 20
54.5
 11
22.0417
 21
54.5
  0
LINE
  8
0
 10
23.6967
 20
55.0874
 11
23.9917
 21
56.112
  0
LINE
  8
0
 10
23.9917
 20
56.112
 11
23.6967
 21
57.1222
  0
LINE
  8
0
 10
23.6967
 20
57.1222
 11
22.7567
 21
57.51
  0
LINE
  8
0
 10
22.7567
 20
57.51
 11
22.2657
 21
57.51
  0
LINE
  8
0
 10
22.2657
 20
57.51
 11
22.2657
 21
54.689
  0
LINE
  8
0
 10
22.2657
 20
54.689
 11
22.7567
 21
54.689
  0
LINE
  8
0
 10
22.7567
 20
54.689
 11
23.6967
 21
55.0874
  0
LINE
  8
0
 10
18.75
 20
46.5
 11
18.75
 21
53.5
  0
LINE
  8
0
 10
18.75
 20
53.5
 11
27.25
 21
53.5
  0
LINE
  8
0
 10
27.25
 20
53.5
 11
27.25
 21
46.5
  0
LINE
  8
0
 10
27.25
 20
46.5
 11
18.75
 21
46.5
  0
LINE
  8
0
 10
31.5
 20
46.5
 11
31.5
 21
53.5
  0
LINE
  8
0
 10
31.5
 20
53.5
 11
40
 21
53.5
  0
LINE
  8
0
 10
40
 20
53.5
 11
40
 21
46.5
  0
LINE
  8
0
 10
40
 20
46.5
 11
31.5
 21
46.5
  0
LINE
  8
0
 10
6
 20
46.5
 11
6
 21
53.5
  0
LINE
  8
0
 10
6
 20
53.5
 11
14.5
 21
53.5
  0
LINE
  8
0
 10
14.5
 20
53.5
 11
14.5
 21
46.5
  0
LINE
  8
0
 10
14.5
 20
46.5
 11
6
 21
46.5
  0
LINE
  8
0
 10
34.9232
 20
42.3919
 11
34.5877
 21
43.612
  0
LINE
  8
0
 10
34.5877
 20
43.612
 11
34.9232
 21
44.8179
  0
LINE
  8
0
 10
34.9232
 20
44.8179
 11
35.7837
 21
45.264
  0
LINE
  8
0
 10
35.7837
 20
45.264
 11
36.6442
 21
44.8179
  0
LINE
  8
0
 10
36.6442
 20
44.8179
 11
36.9797
 21
43.612
  0
LINE
  8
0
 10
36.9797
 20
43.612
 11
36.6442
 21
42.3919
  0
LINE
  8
0
 10
36.6442
 20
42.3919
 11
35.7837
 21
41.936
  0
LINE
  8
0
 10
35.7837
 20
41.936
 11
34.9232
 21
42.3919
  0
LINE
  8
0
 10
36.4799
 20
42.5415
 11
36.7457
 21
43.612
  0
LINE
  8
0
 10
36.7457
 20
43.612
 11
36.4799
 21
44.6681
  0
LINE
  8
0
 10
36.4799
 20
44.6681
 11
35.7837
 21
45.059
  0
LINE
  8
0
 10
35.7837
 20
45.059
 11
35.0869
 21
44.6681
  0
LINE
  8
0
 10
35.0869
 20
44.6681
 11
34.8207
 21
43.612
  0
LINE
  8
0
 10
34.8207
 20
43.612
 11
35.0869
 21
42.5415
  0
LINE
  8
0
 10
35.0869
 20
42.5415
 11
35.7837
 21
42.14
  0
LINE
  8
0
 10
35.7837
 20
42.14
 11
36.4799
 21
42.5415
  0
LINE
  8
0
 10
22.1927
 20
42
 11
22.1927
 21
45.2
  0
LINE
  8
0
 10
22.1927
 20
45.2
 11
24.0887
 21
45.2
  0
LINE
  8
0
 10
24.0887
 20
45.2
 11
24.0887
 21
45.005
  0
LINE
  8
0
 10
24.0887
 20
45.005
 11
22.4167
 21
45.005
  0
LINE
  8
0
 10
22.4167
 20
45.005
 11
22.4167
 21
43.794
  0
LINE
  8
0
 10
22.4167
 20
43.794
 11
23.8257
 21
43.794
  0
LINE
  8
0
 10
23.8257
 20
43.794
 11
23.8257
 21
43.6
  0
LINE
  8
0
 10
23.8257
 20
43.6
 11
22.4167
 21
43.6
  0
LINE
  8
0
 10
22.4167
 20
43.6
 11
22.4167
 21
42.194
  0
LINE
  8
0
 10
22.4167
 20
42.194
 11
24.1367
 21
42.194
  0
LINE
  8
0
 10
24.1367
 20
42.194
 11
24.1367
 21
42
  0
LINE
  8
0
 10
24.1367
 20
42
 11
22.1927
 21
42
  0
LINE
  8
0
 10
31.9191
 20
42
 11
31.9191
 21
45.2
  0
LINE
  8
0
 10
31.9191
 20
45.2
 11
32.2061
 21
45.2
  0
LINE
  8
0
 10
32.2061
 20
45.2
 11
32.7401
 21
43.716
  0
LINE
  8
0
 10
32.7401
 20
43.716
 11
32.9301
 21
43.152
  0
LINE
  8
0
 10
32.9301
 20
43.152
 11
32.9491
 21
43.152
  0
LINE
  8
0
 10
32.9491
 20
43.152
 11
33.1341
 21
43.716
  0
LINE
  8
0
 10
33.1341
 20
43.716
 11
33.6641
 21
45.2
  0
LINE
  8
0
 10
33.6641
 20
45.2
 11
33.9511
 21
45.2
  0
LINE
  8
0
 10
33.9511
 20
45.2
 11
33.9511
 21
42
  0
LINE
  8
0
 10
33.9511
 20
42
 11
33.7421
 21
42
  0
LINE
  8
0
 10
33.7421
 20
42
 11
33.7421
 21
44.242
  0
LINE
  8
0
 10
33.7421
 20
44.242
 11
33.7503
 21
44.5975
  0
LINE
  8
0
 10
33.7503
 20
44.5975
 11
33.7661
 21
44.956
  0
LINE
  8
0
 10
33.7661
 20
44.956
 11
33.7521
 21
44.956
  0
LINE
  8
0
 10
33.7521
 20
44.956
 11
33.5671
 21
44.387
  0
LINE
  8
0
 10
33.5671
 20
44.387
 11
33.0131
 21
42.884
  0
LINE
  8
0
 10
33.0131
 20
42.884
 11
32.8571
 21
42.884
  0
LINE
  8
0
 10
32.8571
 20
42.884
 11
32.2981
 21
44.387
  0
LINE
  8
0
 10
32.2981
 20
44.387
 11
32.1041
 21
44.956
  0
LINE
  8
0
 10
32.1041
 20
44.956
 11
32.0941
 21
44.956
  0
LINE
  8
0
 10
32.0941
 20
44.956
 11
32.1123
 21
44.5975
  0
LINE
  8
0
 10
32.1123
 20
44.5975
 11
32.1231
 21
44.242
  0
LINE
  8
0
 10
32.1231
 20
44.242
 11
32.1231
 21
42
  0
LINE
  8
0
 10
32.1231
 20
42
 11
31.9191
 21
42
  0
LINE
  8
0
 10
9.38469
 20
42
 11
9.38469
 21
45.2
  0
LINE
  8
0
 10
9.38469
 20
45.2
 11
10.1867
 21
45.2
  0
LINE
  8
0
 10
10.1867
 20
45.2
 11
10.9564
 21
45.0117
  0
LINE
  8
0
 10
10.9564
 20
45.0117
 11
11.2417
 21
44.423
  0
LINE
  8
0
 10
11.2417
 20
44.423
 11
11.0993
 21
43.9841
  0
LINE
  8
0
 10
11.0993
 20
43.9841
 11
10.6727
 21
43.723
  0
LINE
  8
0
 10
10.6727
 20
43.723
 11
10.6727
 21
43.704
  0
LINE
  8
0
 10
10.6727
 20
43.704
 11
11.2333
 21
43.4582
  0
LINE
  8
0
 10
11.2333
 20
43.4582
 11
11.4407
 21
42.932
  0
LINE
  8
0
 10
11.4407
 20
42.932
 11
11.1167
 21
42.2346
  0
LINE
  8
0
 10
11.1167
 20
42.2346
 11
10.2497
 21
42
  0
LINE
  8
0
 10
10.2497
 20
42
 11
9.38469
 21
42
  0
LINE
  8
0
 10
10.8042
 20
43.9512
 11
11.0177
 21
44.427
  0
LINE
  8
0
 10
11.0177
 20
44.427
 11
10.791
 21
44.8759
  0
LINE
  8
0
 10
10.791
 20
44.8759
 11
10.1227
 21
45.015
  0
LINE
  8
0
 10
10.1227
 20
45.015
 11
9.6077
 21
45.015
  0
LINE
  8
0
 10
9.6077
 20
45.015
 11
9.6077
 21
43.792
  0
LINE
  8
0
 10
9.6077
 20
43.792
 11
10.0987
 21
43.792
  0
LINE
  8
0
 10
10.0987
 20
43.792
 11
10.8042
 21
43.9512
  0
LINE
  8
0
 10
10.9427
 20
42.3649
 11
11.2167
 21
42.932
  0
LINE
  8
0
 10
11.2167
 20
42.932
 11
10.9483
 21
43.443
  0
LINE
  8
0
 10
10.9483
 20
43.443
 11
10.1917
 21
43.612
  0
LINE
  8
0
 10
10.1917
 20
43.612
 11
9.6077
 21
43.612
  0
LINE
  8
0
 10
9.6077
 20
43.612
 11
9.6077
 21
42.184
  0
LINE
  8
0
 10
9.6077
 20
42.184
 11
10.1917
 21
42.184
  0
LINE
  8
0
 10
10.1917
 20
42.184
 11
10.9427
 21
42.3649
  0
LINE
  8
0
 10
37.6403
 20
42
 11
37.6403
 21
45.2
  0
LINE
  8
0
 10
37.6403
 20
45.2
 11
38.3743
 21
45.2
  0
LINE
  8
0
 10
38.3743
 20
45.2
 11
39.4671
 21
44.7682
  0
LINE
  8
0
 10
39.4671
 20
44.7682
 11
39.8233
 21
43.612
  0
LINE
  8
0
 10
39.8233
 20
43.612
 11
39.4677
 21
42.4419
  0
LINE
  8
0
 10
39.4677
 20
42.4419
 11
38.3793
 21
42
  0
LINE
  8
0
 10
38.3793
 20
42
 11
37.6403
 21
42
  0
LINE
  8
0
 10
39.2953
 20
42.5874
 11
39.5903
 21
43.612
  0
LINE
  8
0
 10
39.5903
 20
43.612
 11
39.2953
 21
44.6222
  0
LINE
  8
0
 10
39.2953
 20
44.6222
 11
38.3553
 21
45.01
  0
LINE
  8
0
 10
38.3553
 20
45.01
 11
37.8643
 21
45.01
  0
LINE
  8
0
 10
37.8643
 20
45.01
 11
37.8643
 21
42.189
  0
LINE
  8
0
 10
37.8643
 20
42.189
 11
38.3553
 21
42.189
  0
LINE
  8
0
 10
38.3553
 20
42.189
 11
39.2953
 21
42.5874
  0
LINE
  8
0
 10
6
 20
34
 11
6
 21
41
  0
LINE
  8
0
 10
6
 20
41
 11
14.5
 21
41
  0
LINE
  8
0
 10
14.5
 20
41
 11
14.5
 21
34
  0
LINE
  8
0
 10
14.5
 20
34
 11
6
 21
34
  0
LINE
  8
0
 10
18.75
 20
34
 11
18.75
 21
41
  0
LINE
  8
0
 10
18.75
 20
41
 11
27.25
 21
41
  0
LINE
  8
0
 10
27.25
 20
41
 11
27.25
 21
34
  0
LINE
  8
0
 10
27.25
 20
34
 11
18.75
 21
34
  0
LINE
  8
0
 10
31.5
 20
34
 11
31.5
 21
41
  0
LINE
  8
0
 10
31.5
 20
41
 11
40
 21
41
  0
LINE
  8
0
 10
40
 20
41
 11
40
 21
34
  0
LINE
  8
0
 10
40
 20
34
 11
31.5
 21
34
  0
LINE
  8
0
 10
34.578
 20
28.934
 11
34.2334
 21
29.436
  0
LINE
  8
0
 10
34.2334
 20
29.436
 11
33.4689
 21
29.9437
  0
LINE
  8
0
 10
33.4689
 20
29.9437
 11
33.1784
 21
31.107
  0
LINE
  8
0
 10
33.1784
 20
31.107
 11
33.5045
 21
32.3157
  0
LINE
  8
0
 10
33.5045
 20
32.3157
 11
34.3594
 21
32.764
  0
LINE
  8
0
 10
34.3594
 20
32.764
 11
35.2099
 21
32.3157
  0
LINE
  8
0
 10
35.2099
 20
32.3157
 11
35.5354
 21
31.107
  0
LINE
  8
0
 10
35.5354
 20
31.107
 11
35.2449
 21
29.94
  0
LINE
  8
0
 10
35.2449
 20
29.94
 11
34.4804
 21
29.436
  0
LINE
  8
0
 10
34.4804
 20
29.436
 11
34.7529
 21
29.0704
  0
LINE
  8
0
 10
34.7529
 20
29.0704
 11
35.2444
 21
28.941
  0
LINE
  8
0
 10
35.2444
 20
28.941
 11
35.373
 21
28.9516
  0
LINE
  8
0
 10
35.373
 20
28.9516
 11
35.4724
 21
28.981
  0
LINE
  8
0
 10
35.4724
 20
28.981
 11
35.5164
 21
28.775
  0
LINE
  8
0
 10
35.5164
 20
28.775
 11
35.3672
 21
28.7426
  0
LINE
  8
0
 10
35.3672
 20
28.7426
 11
35.2144
 21
28.732
  0
LINE
  8
0
 10
35.2144
 20
28.732
 11
34.578
 21
28.934
  0
LINE
  8
0
 10
35.0526
 20
30.0334
 11
35.3124
 21
31.107
  0
LINE
  8
0
 10
35.3124
 20
31.107
 11
35.0526
 21
32.1706
  0
LINE
  8
0
 10
35.0526
 20
32.1706
 11
34.3594
 21
32.569
  0
LINE
  8
0
 10
34.3594
 20
32.569
 11
33.6642
 21
32.1706
  0
LINE
  8
0
 10
33.6642
 20
32.1706
 11
33.4064
 21
31.107
  0
LINE
  8
0
 10
33.4064
 20
31.107
 11
33.6642
 21
30.0334
  0
LINE
  8
0
 10
33.6642
 20
30.0334
 11
34.3594
 21
29.625
  0
LINE
  8
0
 10
34.3594
 20
29.625
 11
35.0526
 21
30.0334
  0
LINE
  8
0
 10
30.9024
 20
29.5707
 11
30.4217
 21
29.917
  0
LINE
  8
0
 10
30.4217
 20
29.917
 11
30.5677
 21
30.073
  0
LINE
  8
0
 10
30.5677
 20
30.073
 11
31.0046
 21
29.7579
  0
LINE
  8
0
 10
31.0046
 20
29.7579
 11
31.5547
 21
29.64
  0
LINE
  8
0
 10
31.5547
 20
29.64
 11
32.1727
 21
29.819
  0
LINE
  8
0
 10
32.1727
 20
29.819
 11
32.4007
 21
30.283
  0
LINE
  8
0
 10
32.4007
 20
30.283
 11
32.2146
 21
30.7162
  0
LINE
  8
0
 10
32.2146
 20
30.7162
 11
31.7727
 21
30.956
  0
LINE
  8
0
 10
31.7727
 20
30.956
 11
31.2867
 21
31.175
  0
LINE
  8
0
 10
31.2867
 20
31.175
 11
30.8282
 21
31.4414
  0
LINE
  8
0
 10
30.8282
 20
31.4414
 11
30.5917
 21
31.974
  0
LINE
  8
0
 10
30.5917
 20
31.974
 11
30.8706
 21
32.5426
  0
LINE
  8
0
 10
30.8706
 20
32.5426
 11
31.5687
 21
32.764
  0
LINE
  8
0
 10
31.5687
 20
32.764
 11
32.1152
 21
32.6499
  0
LINE
  8
0
 10
32.1152
 20
32.6499
 11
32.5117
 21
32.379
  0
LINE
  8
0
 10
32.5117
 20
32.379
 11
32.3807
 21
32.228
  0
LINE
  8
0
 10
32.3807
 20
32.228
 11
32.028
 21
32.4685
  0
LINE
  8
0
 10
32.028
 20
32.4685
 11
31.5687
 21
32.559
  0
LINE
  8
0
 10
31.5687
 20
32.559
 11
31.0227
 21
32.4031
  0
LINE
  8
0
 10
31.0227
 20
32.4031
 11
30.8157
 21
31.984
  0
LINE
  8
0
 10
30.8157
 20
31.984
 11
31.0224
 21
31.5759
  0
LINE
  8
0
 10
31.0224
 20
31.5759
 11
31.4187
 21
31.365
  0
LINE
  8
0
 10
31.4187
 20
31.365
 11
31.8997
 21
31.151
  0
LINE
  8
0
 10
31.8997
 20
31.151
 11
32.4057
 21
30.8486
  0
LINE
  8
0
 10
32.4057
 20
30.8486
 11
32.6237
 21
30.298
  0
LINE
  8
0
 10
32.6237
 20
30.298
 11
32.3315
 21
29.6821
  0
LINE
  8
0
 10
32.3315
 20
29.6821
 11
31.5547
 21
29.436
  0
LINE
  8
0
 10
31.5547
 20
29.436
 11
30.9024
 21
29.5707
  0
LINE
  8
0
 10
9.5517
 20
29.8875
 11
9.17569
 21
31.107
  0
LINE
  8
0
 10
9.17569
 20
31.107
 11
9.55531
 21
32.3172
  0
LINE
  8
0
 10
9.55531
 20
32.3172
 11
10.5507
 21
32.764
  0
LINE
  8
0
 10
10.5507
 20
32.764
 11
11.0398
 21
32.6465
  0
LINE
  8
0
 10
11.0398
 20
32.6465
 11
11.3827
 21
32.379
  0
LINE
  8
0
 10
11.3827
 20
32.379
 11
11.2457
 21
32.233
  0
LINE
  8
0
 10
11.2457
 20
32.233
 11
10.9439
 21
32.4691
  0
LINE
  8
0
 10
10.9439
 20
32.4691
 11
10.5507
 21
32.559
  0
LINE
  8
0
 10
10.5507
 20
32.559
 11
9.71532
 21
32.1675
  0
LINE
  8
0
 10
9.71532
 20
32.1675
 11
9.40869
 21
31.107
  0
LINE
  8
0
 10
9.40869
 20
31.107
 11
9.71356
 21
30.039
  0
LINE
  8
0
 10
9.71356
 20
30.039
 11
10.5367
 21
29.64
  0
LINE
  8
0
 10
10.5367
 20
29.64
 11
10.9718
 21
29.7384
  0
LINE
  8
0
 10
10.9718
 20
29.7384
 11
11.3387
 21
30.034
  0
LINE
  8
0
 10
11.3387
 20
30.034
 11
11.4697
 21
29.893
  0
LINE
  8
0
 10
11.4697
 20
29.893
 11
11.0594
 21
29.5587
  0
LINE
  8
0
 10
11.0594
 20
29.5587
 11
10.5217
 21
29.436
  0
LINE
  8
0
 10
10.5217
 20
29.436
 11
9.5517
 21
29.8875
  0
LINE
  8
0
 10
36.318
 20
29.5
 11
36.318
 21
32.7
  0
LINE
  8
0
 10
36.318
 20
32.7
 11
37.232
 21
32.7
  0
LINE
  8
0
 10
37.232
 20
32.7
 11
37.9984
 21
32.5066
  0
LINE
  8
0
 10
37.9984
 20
32.5066
 11
38.287
 21
31.855
  0
LINE
  8
0
 10
38.287
 20
31.855
 11
38.064
 21
31.2547
  0
LINE
  8
0
 10
38.064
 20
31.2547
 11
37.466
 21
30.986
  0
LINE
  8
0
 10
37.466
 20
30.986
 11
38.35
 21
29.5
  0
LINE
  8
0
 10
38.35
 20
29.5
 11
38.088
 21
29.5
  0
LINE
  8
0
 10
38.088
 20
29.5
 11
37.222
 21
30.972
  0
LINE
  8
0
 10
37.222
 20
30.972
 11
36.542
 21
30.972
  0
LINE
  8
0
 10
36.542
 20
30.972
 11
36.542
 21
29.5
  0
LINE
  8
0
 10
36.542
 20
29.5
 11
36.318
 21
29.5
  0
LINE
  8
0
 10
37.8299
 20
31.3289
 11
38.059
 21
31.855
  0
LINE
  8
0
 10
38.059
 20
31.855
 11
37.8299
 21
32.3625
  0
LINE
  8
0
 10
37.8299
 20
32.3625
 11
37.174
 21
32.51
  0
LINE
  8
0
 10
37.174
 20
32.51
 11
36.542
 21
32.51
  0
LINE
  8
0
 10
36.542
 20
32.51
 11
36.542
 21
31.156
  0
LINE
  8
0
 10
36.542
 20
31.156
 11
37.174
 21
31.156
  0
LINE
  8
0
 10
37.174
 20
31.156
 11
37.8299
 21
31.3289
  0
LINE
  8
0
 10
22.3047
 20
29.5
 11
22.3047
 21
32.7
  0
LINE
  8
0
 10
22.3047
 20
32.7
 11
24.1757
 21
32.7
  0
LINE
  8
0
 10
24.1757
 20
32.7
 11
24.1757
 21
32.505
  0
LINE
  8
0
 10
24.1757
 20
32.505
 11
22.5227
 21
32.505
  0
LINE
  8
0
 10
22.5227
 20
32.505
 11
22.5227
 21
31.23
  0
LINE
  8
0
 10
22.5227
 20
31.23
 11
23.9137
 21
31.23
  0
LINE
  8
0
 10
23.9137
 20
31.23
 11
23.9137
 21
31.036
  0
LINE
  8
0
 10
23.9137
 20
31.036
 11
22.5227
 21
31.036
  0
LINE
  8
0
 10
22.5227
 20
31.036
 11
22.5227
 21
29.5
  0
LINE
  8
0
 10
22.5227
 20
29.5
 11
22.3047
 21
29.5
  0
LINE
  8
0
 10
39.9446
 20
29.5
 11
39.9446
 21
32.505
  0
LINE
  8
0
 10
39.9446
 20
32.505
 11
38.8316
 21
32.505
  0
LINE
  8
0
 10
38.8316
 20
32.505
 11
38.8316
 21
32.7
  0
LINE
  8
0
 10
38.8316
 20
32.7
 11
41.2816
 21
32.7
  0
LINE
  8
0
 10
41.2816
 20
32.7
 11
41.2816
 21
32.505
  0
LINE
  8
0
 10
41.2816
 20
32.505
 11
40.1686
 21
32.505
  0
LINE
  8
0
 10
40.1686
 20
32.505
 11
40.1686
 21
29.5
  0
LINE
  8
0
 10
40.1686
 20
29.5
 11
39.9446
 21
29.5
  0
LINE
  8
0
 10
18.75
 20
21.5
 11
18.75
 21
28.5
  0
LINE
  8
0
 10
18.75
 20
28.5
 11
27.25
 21
28.5
  0
LINE
  8
0
 10
27.25
 20
28.5
 11
27.25
 21
21.5
  0
LINE
  8
0
 10
27.25
 20
21.5
 11
18.75
 21
21.5
  0
LINE
  8
0
 10
31.5
 20
21.5
 11
31.5
 21
28.5
  0
LINE
  8
0
 10
31.5
 20
28.5
 11
40
 21
28.5
  0
LINE
  8
0
 10
40
 20
28.5
 11
40
 21
21.5
  0
LINE
  8
0
 10
40
 20
21.5
 11
31.5
 21
21.5
  0
LINE
  8
0
 10
6
 20
21.5
 11
6
 21
28.5
  0
LINE
  8
0
 10
6
 20
28.5
 11
14.5
 21
28.5
  0
LINE
  8
0
 10
14.5
 20
28.5
 11
14.5
 21
21.5
  0
LINE
  8
0
 10
14.5
 20
21.5
 11
6
 21
21.5
  0
LINE
  8
0
 10
6.70306
 20
17.3875
 11
6.32706
 21
18.607
  0
LINE
  8
0
 10
6.32706
 20
18.607
 11
6.70668
 21
19.8172
  0
LINE
  8
0
 10
6.70668
 20
19.8172
 11
7.70206
 21
20.264
  0
LINE
  8
0
 10
7.70206
 20
20.264
 11
8.19118
 21
20.1465
  0
LINE
  8
0
 10
8.19118
 20
20.1465
 11
8.53406
 21
19.879
  0
LINE
  8
0
 10
8.53406
 20
19.879
 11
8.39706
 21
19.733
  0
LINE
  8
0
 10
8.39706
 20
19.733
 11
8.09531
 21
19.9691
  0
LINE
  8
0
 10
8.09531
 20
19.9691
 11
7.70206
 21
20.059
  0
LINE
  8
0
 10
7.70206
 20
20.059
 11
6.86668
 21
19.6675
  0
LINE
  8
0
 10
6.86668
 20
19.6675
 11
6.56006
 21
18.607
  0
LINE
  8
0
 10
6.56006
 20
18.607
 11
6.86493
 21
17.539
  0
LINE
  8
0
 10
6.86493
 20
17.539
 11
7.68806
 21
17.14
  0
LINE
  8
0
 10
7.68806
 20
17.14
 11
8.12318
 21
17.2384
  0
LINE
  8
0
 10
8.12318
 20
17.2384
 11
8.49005
 21
17.534
  0
LINE
  8
0
 10
8.49005
 20
17.534
 11
8.62106
 21
17.393
  0
LINE
  8
0
 10
8.62106
 20
17.393
 11
8.21082
 21
17.0587
  0
LINE
  8
0
 10
8.21082
 20
17.0587
 11
7.67307
 21
16.936
  0
LINE
  8
0
 10
7.67307
 20
16.936
 11
6.70306
 21
17.3875
  0
LINE
  8
0
 10
9.55469
 20
17
 11
9.55469
 21
20.2
  0
LINE
  8
0
 10
9.55469
 20
20.2
 11
9.76869
 21
20.2
  0
LINE
  8
0
 10
9.76869
 20
20.2
 11
9.76869
 21
17.194
  0
LINE
  8
0
 10
9.76869
 20
17.194
 11
11.4457
 21
17.194
  0
LINE
  8
0
 10
11.4457
 20
17.194
 11
11.4457
 21
17
  0
LINE
  8
0
 10
11.4457
 20
17
 11
9.55469
 21
17
  0
LINE
  8
0
 10
12.2423
 20
17
 11
12.2423
 21
20.2
  0
LINE
  8
0
 10
12.2423
 20
20.2
 11
13.1563
 21
20.2
  0
LINE
  8
0
 10
13.1563
 20
20.2
 11
13.9227
 21
20.0066
  0
LINE
  8
0
 10
13.9227
 20
20.0066
 11
14.2113
 21
19.355
  0
LINE
  8
0
 10
14.2113
 20
19.355
 11
13.9883
 21
18.7547
  0
LINE
  8
0
 10
13.9883
 20
18.7547
 11
13.3903
 21
18.486
  0
LINE
  8
0
 10
13.3903
 20
18.486
 11
14.2743
 21
17
  0
LINE
  8
0
 10
14.2743
 20
17
 11
14.0123
 21
17
  0
LINE
  8
0
 10
14.0123
 20
17
 11
13.1463
 21
18.472
  0
LINE
  8
0
 10
13.1463
 20
18.472
 11
12.4663
 21
18.472
  0
LINE
  8
0
 10
12.4663
 20
18.472
 11
12.4663
 21
17
  0
LINE
  8
0
 10
12.4663
 20
17
 11
12.2423
 21
17
  0
LINE
  8
0
 10
13.7542
 20
18.8289
 11
13.9833
 21
19.355
  0
LINE
  8
0
 10
13.9833
 20
19.355
 11
13.7542
 21
19.8625
  0
LINE
  8
0
 10
13.7542
 20
19.8625
 11
13.0983
 21
20.01
  0
LINE
  8
0
 10
13.0983
 20
20.01
 11
12.4663
 21
20.01
  0
LINE
  8
0
 10
12.4663
 20
20.01
 11
12.4663
 21
18.656
  0
LINE
  8
0
 10
12.4663
 20
18.656
 11
13.0983
 21
18.656
  0
LINE
  8
0
 10
13.0983
 20
18.656
 11
13.7542
 21
18.8289
  0
LINE
  8
0
 10
22.2477
 20
17.3546
 11
21.9687
 21
18.527
  0
LINE
  8
0
 10
21.9687
 20
18.527
 11
22.2477
 21
19.7204
  0
LINE
  8
0
 10
22.2477
 20
19.7204
 11
23.0337
 21
20.136
  0
LINE
  8
0
 10
23.0337
 20
20.136
 11
23.8197
 21
19.7204
  0
LINE
  8
0
 10
23.8197
 20
19.7204
 11
24.0987
 21
18.527
  0
LINE
  8
0
 10
24.0987
 20
18.527
 11
23.8197
 21
17.3546
  0
LINE
  8
0
 10
23.8197
 20
17.3546
 11
23.0337
 21
16.936
  0
LINE
  8
0
 10
23.0337
 20
16.936
 11
22.2477
 21
17.3546
  0
LINE
  8
0
 10
23.6485
 20
17.477
 11
23.8847
 21
18.527
  0
LINE
  8
0
 10
23.8847
 20
18.527
 11
23.6485
 21
19.5945
  0
LINE
  8
0
 10
23.6485
 20
19.5945
 11
23.0337
 21
19.951
  0
LINE
  8
0
 10
23.0337
 20
19.951
 11
22.4184
 21
19.5945
  0
LINE
  8
0
 10
22.4184
 20
19.5945
 11
22.1827
 21
18.527
  0
LINE
  8
0
 10
22.1827
 20
18.527
 11
22.4184
 21
17.477
  0
LINE
  8
0
 10
22.4184
 20
17.477
 11
23.0337
 21
17.12
  0
LINE
  8
0
 10
23.0337
 20
17.12
 11
23.6485
 21
17.477
  0
LINE
  8
0
 10
22.8492
 20
18.3546
 11
22.7667
 21
18.571
  0
LINE
  8
0
 10
22.7667
 20
18.571
 11
22.8492
 21
18.7882
  0
LINE
  8
0
 10
22.8492
 20
18.7882
 11
23.0337
 21
18.863
  0
LINE
  8
0
 10
23.0337
 20
18.863
 11
23.2182
 21
18.7882
  0
LINE
  8
0
 10
23.2182
 20
18.7882
 11
23.3007
 21
18.571
  0
LINE
  8
0
 10
23.3007
 20
18.571
 11
23.2182
 21
18.3546
  0
LINE
  8
0
 10
23.2182
 20
18.3546
 11
23.0337
 21
18.28
  0
LINE
  8
0
 10
23.0337
 20
18.28
 11
22.8492
 21
18.3546
  0
LINE
  8
0
 10
18.75
 20
9
 11
18.75
 21
16
  0
LINE
  8
0
 10
18.75
 20
16
 11
27.25
 21
16
  0
LINE
  8
0
 10
27.25
 20
16
 11
27.25
 21
9
  0
LINE
  8
0
 10
27.25
 20
9
 11
18.75
 21
9
  0
LINE
  8
0
 10
6
 20
9
 11
6
 21
16
  0
LINE
  8
0
 10
6
 20
16
 11
14.5
 21
16
  0
LINE
  8
0
 10
14.5
 20
16
 11
14.5
 21
9
  0
LINE
  8
0
 10
14.5
 20
9
 11
6
 21
9
  0
LINE
  8
0
 10
31.5
 20
9
 11
31.5
 21
16
  0
LINE
  8
0
 10
31.5
 20
16
 11
40
 21
16
  0
LINE
  8
0
 10
40
 20
16
 11
40
 21
9
  0
LINE
  8
0
 10
40
 20
9
 11
31.5
 21
9
  0
ENDSEC
  0
SECTION
  2
OBJECTS
  0
DICTIONARY
  0
ENDSEC
  0
EOF
