  0
SECTION
  2
BLOCKS
  0
ENDSEC
  0
SECTION
  2
ENTITIES
  0
LINE
  8
0
 10
46
 20
63
 11
0
 21
63
  0
LINE
  8
0
 10
0
 20
63
 11
0
 21
0
  0
LINE
  8
0
 10
0
 20
0
 11
46
 21
0
  0
LINE
  8
0
 10
46
 20
0
 11
46
 21
63
  0
LINE
  8
0
 10
31.5
 20
46.5
 11
31.5
 21
53.5
  0
LINE
  8
0
 10
31.5
 20
53.5
 11
40
 21
53.5
  0
LINE
  8
0
 10
40
 20
53.5
 11
40
 21
46.5
  0
LINE
  8
0
 10
40
 20
46.5
 11
31.5
 21
46.5
  0
LINE
  8
0
 10
6
 20
46.5
 11
6
 21
53.5
  0
LINE
  8
0
 10
6
 20
53.5
 11
14.5
 21
53.5
  0
LINE
  8
0
 10
14.5
 20
53.5
 11
14.5
 21
46.5
  0
LINE
  8
0
 10
14.5
 20
46.5
 11
6
 21
46.5
  0
LINE
  8
0
 10
18.75
 20
46.5
 11
18.75
 21
53.5
  0
LINE
  8
0
 10
18.75
 20
53.5
 11
27.25
 21
53.5
  0
LINE
  8
0
 10
27.25
 20
53.5
 11
27.25
 21
46.5
  0
LINE
  8
0
 10
27.25
 20
46.5
 11
18.75
 21
46.5
  0
LINE
  8
0
 10
18.75
 20
41
 11
27.25
 21
41
  0
LINE
  8
0
 10
27.25
 20
41
 11
27.25
 21
34
  0
LINE
  8
0
 10
27.25
 20
34
 11
18.75
 21
34
  0
LINE
  8
0
 10
18.75
 20
34
 11
18.75
 21
41
  0
LINE
  8
0
 10
6
 20
34
 11
6
 21
41
  0
LINE
  8
0
 10
6
 20
41
 11
14.5
 21
41
  0
LINE
  8
0
 10
14.5
 20
41
 11
14.5
 21
34
  0
LINE
  8
0
 10
14.5
 20
34
 11
6
 21
34
  0
LINE
  8
0
 10
31.5
 20
21.5
 11
31.5
 21
28.5
  0
LINE
  8
0
 10
31.5
 20
28.5
 11
40
 21
28.5
  0
LINE
  8
0
 10
40
 20
28.5
 11
40
 21
21.5
  0
LINE
  8
0
 10
40
 20
21.5
 11
31.5
 21
21.5
  0
LINE
  8
0
 10
6
 20
21.5
 11
6
 21
28.5
  0
LINE
  8
0
 10
6
 20
28.5
 11
14.5
 21
28.5
  0
LINE
  8
0
 10
14.5
 20
28.5
 11
14.5
 21
21.5
  0
LINE
  8
0
 10
14.5
 20
21.5
 11
6
 21
21.5
  0
LINE
  8
0
 10
18.75
 20
21.5
 11
18.75
 21
28.5
  0
LINE
  8
0
 10
18.75
 20
28.5
 11
27.25
 21
28.5
  0
LINE
  8
0
 10
27.25
 20
28.5
 11
27.25
 21
21.5
  0
LINE
  8
0
 10
27.25
 20
21.5
 11
18.75
 21
21.5
  0
LINE
  8
0
 10
31.5
 20
9
 11
31.5
 21
16
  0
LINE
  8
0
 10
31.5
 20
16
 11
40
 21
16
  0
LINE
  8
0
 10
40
 20
16
 11
40
 21
9
  0
LINE
  8
0
 10
40
 20
9
 11
31.5
 21
9
  0
LINE
  8
0
 10
18.75
 20
9
 11
18.75
 21
16
  0
LINE
  8
0
 10
18.75
 20
16
 11
27.25
 21
16
  0
LINE
  8
0
 10
27.25
 20
16
 11
27.25
 21
9
  0
LINE
  8
0
 10
27.25
 20
9
 11
18.75
 21
9
  0
LINE
  8
0
 10
6
 20
9
 11
6
 21
16
  0
LINE
  8
0
 10
6
 20
16
 11
14.5
 21
16
  0
LINE
  8
0
 10
14.5
 20
16
 11
14.5
 21
9
  0
LINE
  8
0
 10
14.5
 20
9
 11
6
 21
9
  0
LINE
  8
0
 10
40
 20
41
 11
40
 21
34
  0
LINE
  8
0
 10
40
 20
34
 11
31.5
 21
34
  0
LINE
  8
0
 10
31.5
 20
34
 11
31.5
 21
41
  0
LINE
  8
0
 10
31.5
 20
41
 11
40
 21
41
  0
ENDSEC
  0
SECTION
  2
OBJECTS
  0
DICTIONARY
  0
ENDSEC
  0
EOF
