  0
SECTION
  2
BLOCKS
  0
ENDSEC
  0
SECTION
  2
ENTITIES
  0
LINE
  8
0
 10
58
 20
63
 11
0
 21
63
  0
LINE
  8
0
 10
0
 20
63
 11
0
 21
0
  0
LINE
  8
0
 10
0
 20
0
 11
58
 21
0
  0
LINE
  8
0
 10
58
 20
0
 11
58
 21
63
  0
LINE
  8
0
 10
50.3663
 20
54.5
 11
50.3663
 21
57.7
  0
LINE
  8
0
 10
50.3663
 20
57.7
 11
50.6533
 21
57.7
  0
LINE
  8
0
 10
50.6533
 20
57.7
 11
51.1873
 21
56.216
  0
LINE
  8
0
 10
51.1873
 20
56.216
 11
51.3773
 21
55.652
  0
LINE
  8
0
 10
51.3773
 20
55.652
 11
51.3963
 21
55.652
  0
LINE
  8
0
 10
51.3963
 20
55.652
 11
51.5813
 21
56.216
  0
LINE
  8
0
 10
51.5813
 20
56.216
 11
52.1113
 21
57.7
  0
LINE
  8
0
 10
52.1113
 20
57.7
 11
52.3983
 21
57.7
  0
LINE
  8
0
 10
52.3983
 20
57.7
 11
52.3983
 21
54.5
  0
LINE
  8
0
 10
52.3983
 20
54.5
 11
52.1893
 21
54.5
  0
LINE
  8
0
 10
52.1893
 20
54.5
 11
52.1893
 21
56.742
  0
LINE
  8
0
 10
52.1893
 20
56.742
 11
52.1976
 21
57.0975
  0
LINE
  8
0
 10
52.1976
 20
57.0975
 11
52.2133
 21
57.456
  0
LINE
  8
0
 10
52.2133
 20
57.456
 11
52.1993
 21
57.456
  0
LINE
  8
0
 10
52.1993
 20
57.456
 11
52.0143
 21
56.887
  0
LINE
  8
0
 10
52.0143
 20
56.887
 11
51.4603
 21
55.384
  0
LINE
  8
0
 10
51.4603
 20
55.384
 11
51.3043
 21
55.384
  0
LINE
  8
0
 10
51.3043
 20
55.384
 11
50.7453
 21
56.887
  0
LINE
  8
0
 10
50.7453
 20
56.887
 11
50.5513
 21
57.456
  0
LINE
  8
0
 10
50.5513
 20
57.456
 11
50.5413
 21
57.456
  0
LINE
  8
0
 10
50.5413
 20
57.456
 11
50.5596
 21
57.0975
  0
LINE
  8
0
 10
50.5596
 20
57.0975
 11
50.5703
 21
56.742
  0
LINE
  8
0
 10
50.5703
 20
56.742
 11
50.5703
 21
54.5
  0
LINE
  8
0
 10
50.5703
 20
54.5
 11
50.3663
 21
54.5
  0
LINE
  8
0
 10
47.5957
 20
54.5
 11
47.5957
 21
54.694
  0
LINE
  8
0
 10
47.5957
 20
54.694
 11
48.4217
 21
54.694
  0
LINE
  8
0
 10
48.4217
 20
54.694
 11
48.4217
 21
57.505
  0
LINE
  8
0
 10
48.4217
 20
57.505
 11
47.5957
 21
57.505
  0
LINE
  8
0
 10
47.5957
 20
57.505
 11
47.5957
 21
57.7
  0
LINE
  8
0
 10
47.5957
 20
57.7
 11
49.4717
 21
57.7
  0
LINE
  8
0
 10
49.4717
 20
57.7
 11
49.4717
 21
57.505
  0
LINE
  8
0
 10
49.4717
 20
57.505
 11
48.6457
 21
57.505
  0
LINE
  8
0
 10
48.6457
 20
57.505
 11
48.6457
 21
54.694
  0
LINE
  8
0
 10
48.6457
 20
54.694
 11
49.4717
 21
54.694
  0
LINE
  8
0
 10
49.4717
 20
54.694
 11
49.4717
 21
54.5
  0
LINE
  8
0
 10
49.4717
 20
54.5
 11
47.5957
 21
54.5
  0
LINE
  8
0
 10
45.5731
 20
54.5
 11
45.5731
 21
57.505
  0
LINE
  8
0
 10
45.5731
 20
57.505
 11
44.4601
 21
57.505
  0
LINE
  8
0
 10
44.4601
 20
57.505
 11
44.4601
 21
57.7
  0
LINE
  8
0
 10
44.4601
 20
57.7
 11
46.9101
 21
57.7
  0
LINE
  8
0
 10
46.9101
 20
57.7
 11
46.9101
 21
57.505
  0
LINE
  8
0
 10
46.9101
 20
57.505
 11
45.7971
 21
57.505
  0
LINE
  8
0
 10
45.7971
 20
57.505
 11
45.7971
 21
54.5
  0
LINE
  8
0
 10
45.7971
 20
54.5
 11
45.5731
 21
54.5
  0
LINE
  8
0
 10
6
 20
46.5
 11
6
 21
53.5
  0
LINE
  8
0
 10
6
 20
53.5
 11
14.5
 21
53.5
  0
LINE
  8
0
 10
14.5
 20
53.5
 11
14.5
 21
46.5
  0
LINE
  8
0
 10
14.5
 20
46.5
 11
6
 21
46.5
  0
LINE
  8
0
 10
44.25
 20
46.5
 11
44.25
 21
53.5
  0
LINE
  8
0
 10
44.25
 20
53.5
 11
52.75
 21
53.5
  0
LINE
  8
0
 10
52.75
 20
53.5
 11
52.75
 21
46.5
  0
LINE
  8
0
 10
52.75
 20
46.5
 11
44.25
 21
46.5
  0
LINE
  8
0
 10
31.5
 20
46.5
 11
31.5
 21
53.5
  0
LINE
  8
0
 10
31.5
 20
53.5
 11
40
 21
53.5
  0
LINE
  8
0
 10
40
 20
53.5
 11
40
 21
46.5
  0
LINE
  8
0
 10
40
 20
46.5
 11
31.5
 21
46.5
  0
LINE
  8
0
 10
18.75
 20
46.5
 11
18.75
 21
53.5
  0
LINE
  8
0
 10
18.75
 20
53.5
 11
27.25
 21
53.5
  0
LINE
  8
0
 10
27.25
 20
53.5
 11
27.25
 21
46.5
  0
LINE
  8
0
 10
27.25
 20
46.5
 11
18.75
 21
46.5
  0
LINE
  8
0
 10
50.3663
 20
42
 11
50.3663
 21
45.2
  0
LINE
  8
0
 10
50.3663
 20
45.2
 11
50.6533
 21
45.2
  0
LINE
  8
0
 10
50.6533
 20
45.2
 11
51.1873
 21
43.716
  0
LINE
  8
0
 10
51.1873
 20
43.716
 11
51.3773
 21
43.152
  0
LINE
  8
0
 10
51.3773
 20
43.152
 11
51.3963
 21
43.152
  0
LINE
  8
0
 10
51.3963
 20
43.152
 11
51.5813
 21
43.716
  0
LINE
  8
0
 10
51.5813
 20
43.716
 11
52.1113
 21
45.2
  0
LINE
  8
0
 10
52.1113
 20
45.2
 11
52.3983
 21
45.2
  0
LINE
  8
0
 10
52.3983
 20
45.2
 11
52.3983
 21
42
  0
LINE
  8
0
 10
52.3983
 20
42
 11
52.1893
 21
42
  0
LINE
  8
0
 10
52.1893
 20
42
 11
52.1893
 21
44.242
  0
LINE
  8
0
 10
52.1893
 20
44.242
 11
52.1976
 21
44.5975
  0
LINE
  8
0
 10
52.1976
 20
44.5975
 11
52.2133
 21
44.956
  0
LINE
  8
0
 10
52.2133
 20
44.956
 11
52.1993
 21
44.956
  0
LINE
  8
0
 10
52.1993
 20
44.956
 11
52.0143
 21
44.387
  0
LINE
  8
0
 10
52.0143
 20
44.387
 11
51.4603
 21
42.884
  0
LINE
  8
0
 10
51.4603
 20
42.884
 11
51.3043
 21
42.884
  0
LINE
  8
0
 10
51.3043
 20
42.884
 11
50.7453
 21
44.387
  0
LINE
  8
0
 10
50.7453
 20
44.387
 11
50.5513
 21
44.956
  0
LINE
  8
0
 10
50.5513
 20
44.956
 11
50.5413
 21
44.956
  0
LINE
  8
0
 10
50.5413
 20
44.956
 11
50.5596
 21
44.5975
  0
LINE
  8
0
 10
50.5596
 20
44.5975
 11
50.5703
 21
44.242
  0
LINE
  8
0
 10
50.5703
 20
44.242
 11
50.5703
 21
42
  0
LINE
  8
0
 10
50.5703
 20
42
 11
50.3663
 21
42
  0
LINE
  8
0
 10
47.8047
 20
42
 11
47.8047
 21
45.2
  0
LINE
  8
0
 10
47.8047
 20
45.2
 11
48.0187
 21
45.2
  0
LINE
  8
0
 10
48.0187
 20
45.2
 11
48.0187
 21
42.194
  0
LINE
  8
0
 10
48.0187
 20
42.194
 11
49.6957
 21
42.194
  0
LINE
  8
0
 10
49.6957
 20
42.194
 11
49.6957
 21
42
  0
LINE
  8
0
 10
49.6957
 20
42
 11
47.8047
 21
42
  0
LINE
  8
0
 10
44.4451
 20
42
 11
45.5731
 21
45.2
  0
LINE
  8
0
 10
45.5731
 20
45.2
 11
45.7971
 21
45.2
  0
LINE
  8
0
 10
45.7971
 20
45.2
 11
46.9251
 21
42
  0
LINE
  8
0
 10
46.9251
 20
42
 11
46.6861
 21
42
  0
LINE
  8
0
 10
46.6861
 20
42
 11
46.3171
 21
43.09
  0
LINE
  8
0
 10
46.3171
 20
43.09
 11
45.0481
 21
43.09
  0
LINE
  8
0
 10
45.0481
 20
43.09
 11
44.6691
 21
42
  0
LINE
  8
0
 10
44.6691
 20
42
 11
44.4451
 21
42
  0
LINE
  8
0
 10
46.0491
 20
43.879
 11
45.8646
 21
44.4292
  0
LINE
  8
0
 10
45.8646
 20
44.4292
 11
45.6951
 21
44.99
  0
LINE
  8
0
 10
45.6951
 20
44.99
 11
45.6751
 21
44.99
  0
LINE
  8
0
 10
45.6751
 20
44.99
 11
45.5032
 21
44.4292
  0
LINE
  8
0
 10
45.5032
 20
44.4292
 11
45.3201
 21
43.879
  0
LINE
  8
0
 10
45.3201
 20
43.879
 11
45.1161
 21
43.28
  0
LINE
  8
0
 10
45.1161
 20
43.28
 11
46.2541
 21
43.28
  0
LINE
  8
0
 10
46.2541
 20
43.28
 11
46.0491
 21
43.879
  0
LINE
  8
0
 10
44.25
 20
34
 11
44.25
 21
41
  0
LINE
  8
0
 10
44.25
 20
41
 11
52.75
 21
41
  0
LINE
  8
0
 10
52.75
 20
41
 11
52.75
 21
34
  0
LINE
  8
0
 10
52.75
 20
34
 11
44.25
 21
34
  0
LINE
  8
0
 10
6
 20
34
 11
6
 21
41
  0
LINE
  8
0
 10
6
 20
41
 11
14.5
 21
41
  0
LINE
  8
0
 10
14.5
 20
41
 11
14.5
 21
34
  0
LINE
  8
0
 10
14.5
 20
34
 11
6
 21
34
  0
LINE
  8
0
 10
31.5
 20
34
 11
31.5
 21
41
  0
LINE
  8
0
 10
31.5
 20
41
 11
40
 21
41
  0
LINE
  8
0
 10
40
 20
41
 11
40
 21
34
  0
LINE
  8
0
 10
40
 20
34
 11
31.5
 21
34
  0
LINE
  8
0
 10
18.75
 20
34
 11
18.75
 21
41
  0
LINE
  8
0
 10
18.75
 20
41
 11
27.25
 21
41
  0
LINE
  8
0
 10
27.25
 20
41
 11
27.25
 21
34
  0
LINE
  8
0
 10
27.25
 20
34
 11
18.75
 21
34
  0
LINE
  8
0
 10
44.9531
 20
29.8875
 11
44.5771
 21
31.107
  0
LINE
  8
0
 10
44.5771
 20
31.107
 11
44.9567
 21
32.3172
  0
LINE
  8
0
 10
44.9567
 20
32.3172
 11
45.9521
 21
32.764
  0
LINE
  8
0
 10
45.9521
 20
32.764
 11
46.4412
 21
32.6465
  0
LINE
  8
0
 10
46.4412
 20
32.6465
 11
46.7841
 21
32.379
  0
LINE
  8
0
 10
46.7841
 20
32.379
 11
46.6471
 21
32.233
  0
LINE
  8
0
 10
46.6471
 20
32.233
 11
46.3453
 21
32.4691
  0
LINE
  8
0
 10
46.3453
 20
32.4691
 11
45.9521
 21
32.559
  0
LINE
  8
0
 10
45.9521
 20
32.559
 11
45.1167
 21
32.1675
  0
LINE
  8
0
 10
45.1167
 20
32.1675
 11
44.8101
 21
31.107
  0
LINE
  8
0
 10
44.8101
 20
31.107
 11
45.1149
 21
30.039
  0
LINE
  8
0
 10
45.1149
 20
30.039
 11
45.9381
 21
29.64
  0
LINE
  8
0
 10
45.9381
 20
29.64
 11
46.3732
 21
29.7384
  0
LINE
  8
0
 10
46.3732
 20
29.7384
 11
46.7401
 21
30.034
  0
LINE
  8
0
 10
46.7401
 20
30.034
 11
46.8711
 21
29.893
  0
LINE
  8
0
 10
46.8711
 20
29.893
 11
46.4608
 21
29.5587
  0
LINE
  8
0
 10
46.4608
 20
29.5587
 11
45.9231
 21
29.436
  0
LINE
  8
0
 10
45.9231
 20
29.436
 11
44.9531
 21
29.8875
  0
LINE
  8
0
 10
42.2281
 20
29.5707
 11
41.7474
 21
29.917
  0
LINE
  8
0
 10
41.7474
 20
29.917
 11
41.8934
 21
30.073
  0
LINE
  8
0
 10
41.8934
 20
30.073
 11
42.3303
 21
29.7579
  0
LINE
  8
0
 10
42.3303
 20
29.7579
 11
42.8804
 21
29.64
  0
LINE
  8
0
 10
42.8804
 20
29.64
 11
43.4984
 21
29.819
  0
LINE
  8
0
 10
43.4984
 20
29.819
 11
43.7264
 21
30.283
  0
LINE
  8
0
 10
43.7264
 20
30.283
 11
43.5403
 21
30.7162
  0
LINE
  8
0
 10
43.5403
 20
30.7162
 11
43.0984
 21
30.956
  0
LINE
  8
0
 10
43.0984
 20
30.956
 11
42.6124
 21
31.175
  0
LINE
  8
0
 10
42.6124
 20
31.175
 11
42.1539
 21
31.4414
  0
LINE
  8
0
 10
42.1539
 20
31.4414
 11
41.9174
 21
31.974
  0
LINE
  8
0
 10
41.9174
 20
31.974
 11
42.1963
 21
32.5426
  0
LINE
  8
0
 10
42.1963
 20
32.5426
 11
42.8944
 21
32.764
  0
LINE
  8
0
 10
42.8944
 20
32.764
 11
43.4409
 21
32.6499
  0
LINE
  8
0
 10
43.4409
 20
32.6499
 11
43.8374
 21
32.379
  0
LINE
  8
0
 10
43.8374
 20
32.379
 11
43.7064
 21
32.228
  0
LINE
  8
0
 10
43.7064
 20
32.228
 11
43.3537
 21
32.4685
  0
LINE
  8
0
 10
43.3537
 20
32.4685
 11
42.8944
 21
32.559
  0
LINE
  8
0
 10
42.8944
 20
32.559
 11
42.3484
 21
32.4031
  0
LINE
  8
0
 10
42.3484
 20
32.4031
 11
42.1414
 21
31.984
  0
LINE
  8
0
 10
42.1414
 20
31.984
 11
42.3481
 21
31.5759
  0
LINE
  8
0
 10
42.3481
 20
31.5759
 11
42.7444
 21
31.365
  0
LINE
  8
0
 10
42.7444
 20
31.365
 11
43.2254
 21
31.151
  0
LINE
  8
0
 10
43.2254
 20
31.151
 11
43.7314
 21
30.8486
  0
LINE
  8
0
 10
43.7314
 20
30.8486
 11
43.9494
 21
30.298
  0
LINE
  8
0
 10
43.9494
 20
30.298
 11
43.6572
 21
29.6821
  0
LINE
  8
0
 10
43.6572
 20
29.6821
 11
42.8804
 21
29.436
  0
LINE
  8
0
 10
42.8804
 20
29.436
 11
42.2281
 21
29.5707
  0
LINE
  8
0
 10
50.6533
 20
29.5
 11
50.6533
 21
32.7
  0
LINE
  8
0
 10
50.6533
 20
32.7
 11
50.8673
 21
32.7
  0
LINE
  8
0
 10
50.8673
 20
32.7
 11
50.8673
 21
29.694
  0
LINE
  8
0
 10
50.8673
 20
29.694
 11
52.5443
 21
29.694
  0
LINE
  8
0
 10
52.5443
 20
29.694
 11
52.5443
 21
29.5
  0
LINE
  8
0
 10
52.5443
 20
29.5
 11
50.6533
 21
29.5
  0
LINE
  8
0
 10
53.3899
 20
29.5
 11
53.3899
 21
32.7
  0
LINE
  8
0
 10
53.3899
 20
32.7
 11
55.2859
 21
32.7
  0
LINE
  8
0
 10
55.2859
 20
32.7
 11
55.2859
 21
32.505
  0
LINE
  8
0
 10
55.2859
 20
32.505
 11
53.6139
 21
32.505
  0
LINE
  8
0
 10
53.6139
 20
32.505
 11
53.6139
 21
31.294
  0
LINE
  8
0
 10
53.6139
 20
31.294
 11
55.0229
 21
31.294
  0
LINE
  8
0
 10
55.0229
 20
31.294
 11
55.0229
 21
31.1
  0
LINE
  8
0
 10
55.0229
 20
31.1
 11
53.6139
 21
31.1
  0
LINE
  8
0
 10
53.6139
 20
31.1
 11
53.6139
 21
29.694
  0
LINE
  8
0
 10
53.6139
 20
29.694
 11
55.3339
 21
29.694
  0
LINE
  8
0
 10
55.3339
 20
29.694
 11
55.3339
 21
29.5
  0
LINE
  8
0
 10
55.3339
 20
29.5
 11
53.3899
 21
29.5
  0
LINE
  8
0
 10
47.2937
 20
29.5
 11
48.4217
 21
32.7
  0
LINE
  8
0
 10
48.4217
 20
32.7
 11
48.6457
 21
32.7
  0
LINE
  8
0
 10
48.6457
 20
32.7
 11
49.7737
 21
29.5
  0
LINE
  8
0
 10
49.7737
 20
29.5
 11
49.5347
 21
29.5
  0
LINE
  8
0
 10
49.5347
 20
29.5
 11
49.1657
 21
30.59
  0
LINE
  8
0
 10
49.1657
 20
30.59
 11
47.8967
 21
30.59
  0
LINE
  8
0
 10
47.8967
 20
30.59
 11
47.5177
 21
29.5
  0
LINE
  8
0
 10
47.5177
 20
29.5
 11
47.2937
 21
29.5
  0
LINE
  8
0
 10
48.8977
 20
31.379
 11
48.7132
 21
31.9292
  0
LINE
  8
0
 10
48.7132
 20
31.9292
 11
48.5437
 21
32.49
  0
LINE
  8
0
 10
48.5437
 20
32.49
 11
48.5237
 21
32.49
  0
LINE
  8
0
 10
48.5237
 20
32.49
 11
48.3518
 21
31.9292
  0
LINE
  8
0
 10
48.3518
 20
31.9292
 11
48.1687
 21
31.379
  0
LINE
  8
0
 10
48.1687
 20
31.379
 11
47.9647
 21
30.78
  0
LINE
  8
0
 10
47.9647
 20
30.78
 11
49.1027
 21
30.78
  0
LINE
  8
0
 10
49.1027
 20
30.78
 11
48.8977
 21
31.379
  0
LINE
  8
0
 10
6
 20
21.5
 11
6
 21
28.5
  0
LINE
  8
0
 10
6
 20
28.5
 11
14.5
 21
28.5
  0
LINE
  8
0
 10
14.5
 20
28.5
 11
14.5
 21
21.5
  0
LINE
  8
0
 10
14.5
 20
21.5
 11
6
 21
21.5
  0
LINE
  8
0
 10
44.25
 20
21.5
 11
44.25
 21
28.5
  0
LINE
  8
0
 10
44.25
 20
28.5
 11
52.75
 21
28.5
  0
LINE
  8
0
 10
52.75
 20
28.5
 11
52.75
 21
21.5
  0
LINE
  8
0
 10
52.75
 20
21.5
 11
44.25
 21
21.5
  0
LINE
  8
0
 10
18.75
 20
21.5
 11
18.75
 21
28.5
  0
LINE
  8
0
 10
18.75
 20
28.5
 11
27.25
 21
28.5
  0
LINE
  8
0
 10
27.25
 20
28.5
 11
27.25
 21
21.5
  0
LINE
  8
0
 10
27.25
 20
21.5
 11
18.75
 21
21.5
  0
LINE
  8
0
 10
31.5
 20
21.5
 11
31.5
 21
28.5
  0
LINE
  8
0
 10
31.5
 20
28.5
 11
40
 21
28.5
  0
LINE
  8
0
 10
40
 20
28.5
 11
40
 21
21.5
  0
LINE
  8
0
 10
40
 20
21.5
 11
31.5
 21
21.5
  0
LINE
  8
0
 10
9.5517
 20
17.3875
 11
9.17569
 21
18.607
  0
LINE
  8
0
 10
9.17569
 20
18.607
 11
9.55531
 21
19.8172
  0
LINE
  8
0
 10
9.55531
 20
19.8172
 11
10.5507
 21
20.264
  0
LINE
  8
0
 10
10.5507
 20
20.264
 11
11.0398
 21
20.1465
  0
LINE
  8
0
 10
11.0398
 20
20.1465
 11
11.3827
 21
19.879
  0
LINE
  8
0
 10
11.3827
 20
19.879
 11
11.2457
 21
19.733
  0
LINE
  8
0
 10
11.2457
 20
19.733
 11
10.9439
 21
19.9691
  0
LINE
  8
0
 10
10.9439
 20
19.9691
 11
10.5507
 21
20.059
  0
LINE
  8
0
 10
10.5507
 20
20.059
 11
9.71532
 21
19.6675
  0
LINE
  8
0
 10
9.71532
 20
19.6675
 11
9.40869
 21
18.607
  0
LINE
  8
0
 10
9.40869
 20
18.607
 11
9.71356
 21
17.539
  0
LINE
  8
0
 10
9.71356
 20
17.539
 11
10.5367
 21
17.14
  0
LINE
  8
0
 10
10.5367
 20
17.14
 11
10.9718
 21
17.2384
  0
LINE
  8
0
 10
10.9718
 20
17.2384
 11
11.3387
 21
17.534
  0
LINE
  8
0
 10
11.3387
 20
17.534
 11
11.4697
 21
17.393
  0
LINE
  8
0
 10
11.4697
 20
17.393
 11
11.0594
 21
17.0587
  0
LINE
  8
0
 10
11.0594
 20
17.0587
 11
10.5217
 21
16.936
  0
LINE
  8
0
 10
10.5217
 20
16.936
 11
9.5517
 21
17.3875
  0
LINE
  8
0
 10
44.9531
 20
17.3875
 11
44.5771
 21
18.607
  0
LINE
  8
0
 10
44.5771
 20
18.607
 11
44.9567
 21
19.8172
  0
LINE
  8
0
 10
44.9567
 20
19.8172
 11
45.9521
 21
20.264
  0
LINE
  8
0
 10
45.9521
 20
20.264
 11
46.4412
 21
20.1465
  0
LINE
  8
0
 10
46.4412
 20
20.1465
 11
46.7841
 21
19.879
  0
LINE
  8
0
 10
46.7841
 20
19.879
 11
46.6471
 21
19.733
  0
LINE
  8
0
 10
46.6471
 20
19.733
 11
46.3453
 21
19.9691
  0
LINE
  8
0
 10
46.3453
 20
19.9691
 11
45.9521
 21
20.059
  0
LINE
  8
0
 10
45.9521
 20
20.059
 11
45.1167
 21
19.6675
  0
LINE
  8
0
 10
45.1167
 20
19.6675
 11
44.8101
 21
18.607
  0
LINE
  8
0
 10
44.8101
 20
18.607
 11
45.1149
 21
17.539
  0
LINE
  8
0
 10
45.1149
 20
17.539
 11
45.9381
 21
17.14
  0
LINE
  8
0
 10
45.9381
 20
17.14
 11
46.3732
 21
17.2384
  0
LINE
  8
0
 10
46.3732
 20
17.2384
 11
46.7401
 21
17.534
  0
LINE
  8
0
 10
46.7401
 20
17.534
 11
46.8711
 21
17.393
  0
LINE
  8
0
 10
46.8711
 20
17.393
 11
46.4608
 21
17.0587
  0
LINE
  8
0
 10
46.4608
 20
17.0587
 11
45.9231
 21
16.936
  0
LINE
  8
0
 10
45.9231
 20
16.936
 11
44.9531
 21
17.3875
  0
LINE
  8
0
 10
47.2937
 20
17
 11
48.4217
 21
20.2
  0
LINE
  8
0
 10
48.4217
 20
20.2
 11
48.6457
 21
20.2
  0
LINE
  8
0
 10
48.6457
 20
20.2
 11
49.7737
 21
17
  0
LINE
  8
0
 10
49.7737
 20
17
 11
49.5347
 21
17
  0
LINE
  8
0
 10
49.5347
 20
17
 11
49.1657
 21
18.09
  0
LINE
  8
0
 10
49.1657
 20
18.09
 11
47.8967
 21
18.09
  0
LINE
  8
0
 10
47.8967
 20
18.09
 11
47.5177
 21
17
  0
LINE
  8
0
 10
47.5177
 20
17
 11
47.2937
 21
17
  0
LINE
  8
0
 10
48.8977
 20
18.879
 11
48.7132
 21
19.4292
  0
LINE
  8
0
 10
48.7132
 20
19.4292
 11
48.5437
 21
19.99
  0
LINE
  8
0
 10
48.5437
 20
19.99
 11
48.5237
 21
19.99
  0
LINE
  8
0
 10
48.5237
 20
19.99
 11
48.3518
 21
19.4292
  0
LINE
  8
0
 10
48.3518
 20
19.4292
 11
48.1687
 21
18.879
  0
LINE
  8
0
 10
48.1687
 20
18.879
 11
47.9647
 21
18.28
  0
LINE
  8
0
 10
47.9647
 20
18.28
 11
49.1027
 21
18.28
  0
LINE
  8
0
 10
49.1027
 20
18.28
 11
48.8977
 21
18.879
  0
LINE
  8
0
 10
50.6533
 20
17
 11
50.6533
 21
20.2
  0
LINE
  8
0
 10
50.6533
 20
20.2
 11
50.8673
 21
20.2
  0
LINE
  8
0
 10
50.8673
 20
20.2
 11
50.8673
 21
17.194
  0
LINE
  8
0
 10
50.8673
 20
17.194
 11
52.5443
 21
17.194
  0
LINE
  8
0
 10
52.5443
 20
17.194
 11
52.5443
 21
17
  0
LINE
  8
0
 10
52.5443
 20
17
 11
50.6533
 21
17
  0
LINE
  8
0
 10
35.5811
 20
17.0189
 11
35.4917
 21
17.251
  0
LINE
  8
0
 10
35.4917
 20
17.251
 11
35.5811
 21
17.4859
  0
LINE
  8
0
 10
35.5811
 20
17.4859
 11
35.7837
 21
17.567
  0
LINE
  8
0
 10
35.7837
 20
17.567
 11
35.9863
 21
17.4859
  0
LINE
  8
0
 10
35.9863
 20
17.4859
 11
36.0757
 21
17.251
  0
LINE
  8
0
 10
36.0757
 20
17.251
 11
35.9863
 21
17.0189
  0
LINE
  8
0
 10
35.9863
 20
17.0189
 11
35.7837
 21
16.936
  0
LINE
  8
0
 10
35.7837
 20
16.936
 11
35.5811
 21
17.0189
  0
LINE
  8
0
 10
6
 20
9
 11
6
 21
16
  0
LINE
  8
0
 10
6
 20
16
 11
14.5
 21
16
  0
LINE
  8
0
 10
14.5
 20
16
 11
14.5
 21
9
  0
LINE
  8
0
 10
14.5
 20
9
 11
6
 21
9
  0
LINE
  8
0
 10
18.75
 20
9
 11
18.75
 21
16
  0
LINE
  8
0
 10
18.75
 20
16
 11
27.25
 21
16
  0
LINE
  8
0
 10
27.25
 20
16
 11
27.25
 21
9
  0
LINE
  8
0
 10
27.25
 20
9
 11
18.75
 21
9
  0
LINE
  8
0
 10
31.5
 20
9
 11
31.5
 21
16
  0
LINE
  8
0
 10
31.5
 20
16
 11
40
 21
16
  0
LINE
  8
0
 10
40
 20
16
 11
40
 21
9
  0
LINE
  8
0
 10
40
 20
9
 11
31.5
 21
9
  0
LINE
  8
0
 10
44.25
 20
9
 11
44.25
 21
16
  0
LINE
  8
0
 10
44.25
 20
16
 11
52.75
 21
16
  0
LINE
  8
0
 10
52.75
 20
16
 11
52.75
 21
9
  0
LINE
  8
0
 10
52.75
 20
9
 11
44.25
 21
9
  0
ENDSEC
  0
SECTION
  2
OBJECTS
  0
DICTIONARY
  0
ENDSEC
  0
EOF
