  0
SECTION
  2
HEADER
  9
$ACADVER
  1
AC1014
  9
$HANDSEED
  5
FFFF
  9
$MEASUREMENT
 70
     1
  0
ENDSEC
  0
SECTION
  2
TABLES
  0
TABLE
  2
VPORT
  5
8
330
0
100
AcDbSymbolTable
 70
     4
  0
VPORT
  5
2E
330
8
100
AcDbSymbolTableRecord
100
AcDbViewportTableRecord
  2
*ACTIVE
 70
     0
 10
0.0
 20
0.0
 11
1.0
 21
1.0
 12
210.0
 22
148.5
 13
0.0
 23
0.0
 14
10.0
 24
10.0
 15
10.0
 25
10.0
 16
0.0
 26
0.0
 36
1.0
 17
0.0
 27
0.0
 37
0.0
 40
341.0
 41
1.24
 42
50.0
 43
0.0
 44
0.0
 50
0.0
 51
0.0
 71
     0
 72
   100
 73
     1
 74
     3
 75
     0
 76
     0
 77
     0
 78
     0
  0
ENDTAB
  0
TABLE
  2
LTYPE
  5
5
330
0
100
AcDbSymbolTable
 70
     1
  0
LTYPE
  5
14
330
5
100
AcDbSymbolTableRecord
100
AcDbLinetypeTableRecord
  2
BYBLOCK
 70
     0
  3

 72
    65
 73
     0
 40
0.0
  0
LTYPE
  5
15
330
5
100
AcDbSymbolTableRecord
100
AcDbLinetypeTableRecord
  2
BYLAYER
 70
     0
  3

 72
    65
 73
     0
 40
0.0
  0
LTYPE
  5
16
330
5
100
AcDbSymbolTableRecord
100
AcDbLinetypeTableRecord
  2
CONTINUOUS
 70
     0
  3
Solid line
 72
    65
 73
     0
 40
0.0
  0
ENDTAB
  0
TABLE
  2
LAYER
  5
2
100
AcDbSymbolTable
 70
1
  0
LAYER
  5
50
100
AcDbSymbolTableRecord
100
AcDbLayerTableRecord
  2
0
 70
0
  6
CONTINUOUS
  0
ENDTAB
  0
TABLE
  2
STYLE
  5
3
330
0
100
AcDbSymbolTable
 70
     1
  0
STYLE
  5
11
330
3
100
AcDbSymbolTableRecord
100
AcDbTextStyleTableRecord
  2
STANDARD
 70
     0
 40
0.0
 41
1.0
 50
0.0
 71
     0
 42
2.5
  3
txt
  4

  0
ENDTAB
  0
TABLE
  2
VIEW
  5
6
330
0
100
AcDbSymbolTable
 70
     0
  0
ENDTAB
  0
TABLE
  2
UCS
  5
7
330
0
100
AcDbSymbolTable
 70
     0
  0
ENDTAB
  0
TABLE
  2
APPID
  5
9
330
0
100
AcDbSymbolTable
 70
     2
  0
APPID
  5
12
330
9
100
AcDbSymbolTableRecord
100
AcDbRegAppTableRecord
  2
ACAD
 70
     0
  0
ENDTAB
  0
TABLE
  2
DIMSTYLE
  5
A
330
0
100
AcDbSymbolTable
 70
     1
  0
DIMSTYLE
105
27
330
A
100
AcDbSymbolTableRecord
100
AcDbDimStyleTableRecord
  2
ISO-25
 70
     0
  3

  4

  5

  6

  7

 40
1.0
 41
2.5
 42
0.625
 43
3.75
 44
1.25
 45
0.0
 46
0.0
 47
0.0
 48
0.0
140
2.5
141
2.5
142
0.0
143
0.03937007874016
144
1.0
145
0.0
146
1.0
147
0.625
 71
     0
 72
     0
 73
     0
 74
     0
 75
     0
 76
     0
 77
     1
 78
     8
170
     0
171
     3
172
     1
173
     0
174
     0
175
     0
176
     0
177
     0
178
     0
270
     2
271
     2
272
     2
273
     2
274
     3
340
11
275
     0
280
     0
281
     0
282
     0
283
     0
284
     8
285
     0
286
     0
287
     3
288
     0
  0
ENDTAB
  0
TABLE
  2
BLOCK_RECORD
  5
1
330
0
100
AcDbSymbolTable
 70
     1
  0
BLOCK_RECORD
  5
1F
330
1
100
AcDbSymbolTableRecord
100
AcDbBlockTableRecord
  2
*MODEL_SPACE
  0
BLOCK_RECORD
  5
1B
330
1
100
AcDbSymbolTableRecord
100
AcDbBlockTableRecord
  2
*PAPER_SPACE
  0
ENDTAB
  0
ENDSEC
  0
SECTION
  2
BLOCKS
  0
BLOCK
  5
20
330
1F
100
AcDbEntity
  8
0
100
AcDbBlockBegin
  2
*MODEL_SPACE
 70
     0
 10
0.0
 20
0.0
 30
0.0
  3
*MODEL_SPACE
  1

  0
ENDBLK
  5
21
330
1F
100
AcDbEntity
  8
0
100
AcDbBlockEnd
  0
BLOCK
  5
1C
330
1B
100
AcDbEntity
 67
     1
  8
0
100
AcDbBlockBegin
  2
*PAPER_SPACE
  1

  0
ENDBLK
  5
1D
330
1B
100
AcDbEntity
 67
     1
  8
0
100
AcDbBlockEnd
  0
ENDSEC
  0
SECTION
  2
ENTITIES
  0
LWPOLYLINE
  5
100
100
AcDbEntity
  8
0
 62
7
100
AcDbPolyline
 90
4
 70
1
 10
58.000000
 20
62.999991
 30
0.0
 10
0.000000
 20
62.999991
 30
0.0
 10
0.000000
 20
-0.000012
 30
0.0
 10
58.000000
 20
-0.000012
 30
0.0
  0
LWPOLYLINE
  5
101
100
AcDbEntity
  8
0
 62
7
100
AcDbPolyline
 90
12
 70
1
 10
48.431699
 20
55.057991
 30
0.0
 10
48.431699
 20
56.035991
 30
0.0
 10
47.536701
 20
56.035991
 30
0.0
 10
47.536701
 20
56.219990
 30
0.0
 10
48.431699
 20
56.219990
 30
0.0
 10
48.431699
 20
57.196991
 30
0.0
 10
48.635700
 20
57.196991
 30
0.0
 10
48.635700
 20
56.219990
 30
0.0
 10
49.529701
 20
56.219990
 30
0.0
 10
49.529701
 20
56.035991
 30
0.0
 10
48.635700
 20
56.035991
 30
0.0
 10
48.635700
 20
55.057991
 30
0.0
  0
LWPOLYLINE
  5
102
100
AcDbEntity
  8
0
 62
7
100
AcDbPolyline
 90
4
 70
1
 10
6.000000
 20
46.499992
 30
0.0
 10
6.000000
 20
53.499992
 30
0.0
 10
14.500000
 20
53.499992
 30
0.0
 10
14.500000
 20
46.499992
 30
0.0
  0
LWPOLYLINE
  5
103
100
AcDbEntity
  8
0
 62
7
100
AcDbPolyline
 90
4
 70
1
 10
44.249999
 20
46.499992
 30
0.0
 10
44.249999
 20
53.499992
 30
0.0
 10
52.750000
 20
53.499992
 30
0.0
 10
52.750000
 20
46.499992
 30
0.0
  0
LWPOLYLINE
  5
104
100
AcDbEntity
  8
0
 62
7
100
AcDbPolyline
 90
4
 70
1
 10
31.500001
 20
46.499992
 30
0.0
 10
31.500001
 20
53.499992
 30
0.0
 10
39.999999
 20
53.499992
 30
0.0
 10
39.999999
 20
46.499992
 30
0.0
  0
LWPOLYLINE
  5
105
100
AcDbEntity
  8
0
 62
7
100
AcDbPolyline
 90
4
 70
1
 10
18.750000
 20
46.499992
 30
0.0
 10
18.750000
 20
53.499992
 30
0.0
 10
27.250001
 20
53.499992
 30
0.0
 10
27.250001
 20
46.499992
 30
0.0
  0
LWPOLYLINE
  5
106
100
AcDbEntity
  8
0
 62
7
100
AcDbPolyline
 90
4
 70
1
 10
47.536701
 20
43.535992
 30
0.0
 10
47.536701
 20
43.719992
 30
0.0
 10
49.529701
 20
43.719992
 30
0.0
 10
49.529701
 20
43.535992
 30
0.0
  0
LWPOLYLINE
  5
107
100
AcDbEntity
  8
0
 62
7
100
AcDbPolyline
 90
4
 70
1
 10
6.000000
 20
33.999991
 30
0.0
 10
6.000000
 20
40.999993
 30
0.0
 10
14.500000
 20
40.999993
 30
0.0
 10
14.500000
 20
33.999991
 30
0.0
  0
LWPOLYLINE
  5
108
100
AcDbEntity
  8
0
 62
7
100
AcDbPolyline
 90
4
 70
1
 10
44.249999
 20
33.999991
 30
0.0
 10
44.249999
 20
40.999993
 30
0.0
 10
52.750000
 20
40.999993
 30
0.0
 10
52.750000
 20
33.999991
 30
0.0
  0
LWPOLYLINE
  5
109
100
AcDbEntity
  8
0
 62
7
100
AcDbPolyline
 90
4
 70
1
 10
31.500001
 20
33.999991
 30
0.0
 10
31.500001
 20
40.999993
 30
0.0
 10
39.999999
 20
40.999993
 30
0.0
 10
39.999999
 20
33.999991
 30
0.0
  0
LWPOLYLINE
  5
10a
100
AcDbEntity
  8
0
 62
7
100
AcDbPolyline
 90
4
 70
1
 10
18.750000
 20
33.999991
 30
0.0
 10
18.750000
 20
40.999993
 30
0.0
 10
27.250001
 20
40.999993
 30
0.0
 10
27.250001
 20
33.999991
 30
0.0
  0
LWPOLYLINE
  5
10b
100
AcDbEntity
  8
0
 62
7
100
AcDbPolyline
 90
15
 70
1
 10
48.533701
 20
30.932981
 30
0.0
 10
47.935700
 20
30.111979
 30
0.0
 10
47.794701
 20
30.214002
 30
0.0
 10
48.358700
 20
31.044979
 30
0.0
 10
47.541699
 20
31.389995
 30
0.0
 10
47.595700
 20
31.535993
 30
0.0
 10
48.426701
 20
31.240003
 30
0.0
 10
48.455699
 20
32.187979
 30
0.0
 10
48.611700
 20
32.187979
 30
0.0
 10
48.640701
 20
31.240003
 30
0.0
 10
49.471699
 20
31.535993
 30
0.0
 10
49.525701
 20
31.389995
 30
0.0
 10
48.708699
 20
31.044979
 30
0.0
 10
49.272701
 20
30.214002
 30
0.0
 10
49.131699
 20
30.111979
 30
0.0
  0
LWPOLYLINE
  5
10c
100
AcDbEntity
  8
0
 62
7
100
AcDbPolyline
 90
4
 70
1
 10
6.000000
 20
21.500003
 30
0.0
 10
6.000000
 20
28.500005
 30
0.0
 10
14.500000
 20
28.500005
 30
0.0
 10
14.500000
 20
21.500003
 30
0.0
  0
LWPOLYLINE
  5
10d
100
AcDbEntity
  8
0
 62
7
100
AcDbPolyline
 90
4
 70
1
 10
18.750000
 20
21.500003
 30
0.0
 10
18.750000
 20
28.500005
 30
0.0
 10
27.250001
 20
28.500005
 30
0.0
 10
27.250001
 20
21.500003
 30
0.0
  0
LWPOLYLINE
  5
10e
100
AcDbEntity
  8
0
 62
7
100
AcDbPolyline
 90
4
 70
1
 10
31.500001
 20
21.500003
 30
0.0
 10
31.500001
 20
28.500005
 30
0.0
 10
39.999999
 20
28.500005
 30
0.0
 10
39.999999
 20
21.500003
 30
0.0
  0
LWPOLYLINE
  5
10f
100
AcDbEntity
  8
0
 62
7
100
AcDbPolyline
 90
4
 70
1
 10
44.249999
 20
21.500003
 30
0.0
 10
44.249999
 20
28.500005
 30
0.0
 10
52.750000
 20
28.500005
 30
0.0
 10
52.750000
 20
21.500003
 30
0.0
  0
LWPOLYLINE
  5
110
100
AcDbEntity
  8
0
 62
7
100
AcDbPolyline
 90
18
 70
1
 10
6.703060
 20
17.387478
 30
0.0
 10
6.327060
 20
18.606996
 30
0.0
 10
6.706680
 20
19.817200
 30
0.0
 10
7.702060
 20
20.264002
 30
0.0
 10
8.191180
 20
20.146500
 30
0.0
 10
8.534060
 20
19.878980
 30
0.0
 10
8.397060
 20
19.732983
 30
0.0
 10
8.095310
 20
19.969097
 30
0.0
 10
7.702060
 20
20.059003
 30
0.0
 10
6.866680
 20
19.667499
 30
0.0
 10
6.560060
 20
18.606996
 30
0.0
 10
6.864930
 20
17.538979
 30
0.0
 10
7.688060
 20
17.139987
 30
0.0
 10
8.123180
 20
17.238385
 30
0.0
 10
8.490050
 20
17.534004
 30
0.0
 10
8.621060
 20
17.392982
 30
0.0
 10
8.210820
 20
17.058680
 30
0.0
 10
7.673070
 20
16.935993
 30
0.0
  0
LWPOLYLINE
  5
111
100
AcDbEntity
  8
0
 62
7
100
AcDbPolyline
 90
12
 70
1
 10
12.242300
 20
16.999996
 30
0.0
 10
12.242300
 20
20.199999
 30
0.0
 10
13.156300
 20
20.199999
 30
0.0
 10
13.922700
 20
20.006589
 30
0.0
 10
14.211300
 20
19.354999
 30
0.0
 10
13.988300
 20
18.754686
 30
0.0
 10
13.390300
 20
18.486002
 30
0.0
 10
14.274300
 20
16.999996
 30
0.0
 10
14.012300
 20
16.999996
 30
0.0
 10
13.146300
 20
18.471979
 30
0.0
 10
12.466300
 20
18.471979
 30
0.0
 10
12.466300
 20
16.999996
 30
0.0
  0
LWPOLYLINE
  5
112
100
AcDbEntity
  8
0
 62
7
100
AcDbPolyline
 90
7
 70
1
 10
13.754200
 20
18.828902
 30
0.0
 10
13.983300
 20
19.354999
 30
0.0
 10
13.754200
 20
19.862497
 30
0.0
 10
13.098300
 20
20.010002
 30
0.0
 10
12.466300
 20
20.010002
 30
0.0
 10
12.466300
 20
18.655997
 30
0.0
 10
13.098300
 20
18.655997
 30
0.0
  0
LWPOLYLINE
  5
113
100
AcDbEntity
  8
0
 62
7
100
AcDbPolyline
 90
6
 70
1
 10
9.554690
 20
16.999996
 30
0.0
 10
9.554690
 20
20.199999
 30
0.0
 10
9.768690
 20
20.199999
 30
0.0
 10
9.768690
 20
17.193988
 30
0.0
 10
11.445700
 20
17.193988
 30
0.0
 10
11.445700
 20
16.999996
 30
0.0
  0
LWPOLYLINE
  5
114
100
AcDbEntity
  8
0
 62
7
100
AcDbPolyline
 90
4
 70
1
 10
47.536701
 20
18.990985
 30
0.0
 10
47.536701
 20
19.175982
 30
0.0
 10
49.529701
 20
19.175982
 30
0.0
 10
49.529701
 20
18.990985
 30
0.0
  0
LWPOLYLINE
  5
115
100
AcDbEntity
  8
0
 62
7
100
AcDbPolyline
 90
4
 70
1
 10
47.536701
 20
18.023986
 30
0.0
 10
47.536701
 20
18.208004
 30
0.0
 10
49.529701
 20
18.208004
 30
0.0
 10
49.529701
 20
18.023986
 30
0.0
  0
LWPOLYLINE
  5
116
100
AcDbEntity
  8
0
 62
7
100
AcDbPolyline
 90
8
 70
1
 10
35.581101
 20
17.018887
 30
0.0
 10
35.491700
 20
17.250980
 30
0.0
 10
35.581101
 20
17.485903
 30
0.0
 10
35.783700
 20
17.566998
 30
0.0
 10
35.986299
 20
17.485903
 30
0.0
 10
36.075699
 20
17.250980
 30
0.0
 10
35.986299
 20
17.018887
 30
0.0
 10
35.783700
 20
16.935993
 30
0.0
  0
LWPOLYLINE
  5
117
100
AcDbEntity
  8
0
 62
7
100
AcDbPolyline
 90
4
 70
1
 10
31.500001
 20
9.000001
 30
0.0
 10
31.500001
 20
16.000003
 30
0.0
 10
39.999999
 20
16.000003
 30
0.0
 10
39.999999
 20
9.000001
 30
0.0
  0
LWPOLYLINE
  5
118
100
AcDbEntity
  8
0
 62
7
100
AcDbPolyline
 90
4
 70
1
 10
18.750000
 20
9.000001
 30
0.0
 10
18.750000
 20
16.000003
 30
0.0
 10
27.250001
 20
16.000003
 30
0.0
 10
27.250001
 20
9.000001
 30
0.0
  0
LWPOLYLINE
  5
119
100
AcDbEntity
  8
0
 62
7
100
AcDbPolyline
 90
4
 70
1
 10
6.000000
 20
9.000001
 30
0.0
 10
6.000000
 20
16.000003
 30
0.0
 10
14.500000
 20
16.000003
 30
0.0
 10
14.500000
 20
9.000001
 30
0.0
  0
LWPOLYLINE
  5
11a
100
AcDbEntity
  8
0
 62
7
100
AcDbPolyline
 90
4
 70
1
 10
44.249999
 20
9.000001
 30
0.0
 10
44.249999
 20
16.000003
 30
0.0
 10
52.750000
 20
16.000003
 30
0.0
 10
52.750000
 20
9.000001
 30
0.0
  0
LWPOLYLINE
  5
11b
100
AcDbEntity
  8
0
 62
7
100
AcDbPolyline
 90
4
 70
1
 10
104.000001
 20
62.999991
 30
0.0
 10
58.000000
 20
62.999991
 30
0.0
 10
58.000000
 20
-0.000012
 30
0.0
 10
104.000001
 20
-0.000012
 30
0.0
  0
LWPOLYLINE
  5
11c
100
AcDbEntity
  8
0
 62
7
100
AcDbPolyline
 90
4
 70
1
 10
92.879701
 20
53.725991
 30
0.0
 10
94.468701
 20
57.955990
 30
0.0
 10
94.687701
 20
57.955990
 30
0.0
 10
93.097701
 20
53.725991
 30
0.0
  0
LWPOLYLINE
  5
11d
100
AcDbEntity
  8
0
 62
7
100
AcDbPolyline
 90
8
 70
1
 10
67.043692
 20
54.499992
 30
0.0
 10
68.171700
 20
57.699990
 30
0.0
 10
68.395702
 20
57.699990
 30
0.0
 10
69.523700
 20
54.499992
 30
0.0
 10
69.284702
 20
54.499992
 30
0.0
 10
68.915701
 20
55.589991
 30
0.0
 10
67.646701
 20
55.589991
 30
0.0
 10
67.267680
 20
54.499992
 30
0.0
  0
LWPOLYLINE
  5
11e
100
AcDbEntity
  8
0
 62
7
100
AcDbPolyline
 90
8
 70
1
 10
68.647702
 20
56.378992
 30
0.0
 10
68.463200
 20
56.929193
 30
0.0
 10
68.293700
 20
57.489990
 30
0.0
 10
68.273697
 20
57.489990
 30
0.0
 10
68.101800
 20
56.929193
 30
0.0
 10
67.918690
 20
56.378992
 30
0.0
 10
67.714691
 20
55.779991
 30
0.0
 10
68.852701
 20
55.779991
 30
0.0
  0
LWPOLYLINE
  5
11f
100
AcDbEntity
  8
0
 62
7
100
AcDbPolyline
 90
7
 70
1
 10
80.041700
 20
54.499992
 30
0.0
 10
80.041700
 20
57.699990
 30
0.0
 10
80.775702
 20
57.699990
 30
0.0
 10
81.868402
 20
57.268193
 30
0.0
 10
82.224700
 20
56.111993
 30
0.0
 10
81.869002
 20
54.941891
 30
0.0
 10
80.780702
 20
54.499992
 30
0.0
  0
LWPOLYLINE
  5
120
100
AcDbEntity
  8
0
 62
7
100
AcDbPolyline
 90
7
 70
1
 10
81.696700
 20
55.087391
 30
0.0
 10
81.991700
 20
56.111993
 30
0.0
 10
81.696700
 20
57.122190
 30
0.0
 10
80.756702
 20
57.509993
 30
0.0
 10
80.265701
 20
57.509993
 30
0.0
 10
80.265701
 20
54.688992
 30
0.0
 10
80.756702
 20
54.688992
 30
0.0
  0
LWPOLYLINE
  5
121
100
AcDbEntity
  8
0
 62
7
100
AcDbPolyline
 90
4
 70
1
 10
76.750000
 20
46.499992
 30
0.0
 10
76.750000
 20
53.499992
 30
0.0
 10
85.250001
 20
53.499992
 30
0.0
 10
85.250001
 20
46.499992
 30
0.0
  0
LWPOLYLINE
  5
122
100
AcDbEntity
  8
0
 62
7
100
AcDbPolyline
 90
4
 70
1
 10
89.500001
 20
46.499992
 30
0.0
 10
89.500001
 20
53.499992
 30
0.0
 10
98.000001
 20
53.499992
 30
0.0
 10
98.000001
 20
46.499992
 30
0.0
  0
LWPOLYLINE
  5
123
100
AcDbEntity
  8
0
 62
7
100
AcDbPolyline
 90
4
 70
1
 10
64.000002
 20
46.499992
 30
0.0
 10
64.000002
 20
53.499992
 30
0.0
 10
72.500001
 20
53.499992
 30
0.0
 10
72.500001
 20
46.499992
 30
0.0
  0
LWPOLYLINE
  5
124
100
AcDbEntity
  8
0
 62
7
100
AcDbPolyline
 90
8
 70
1
 10
92.923201
 20
42.391892
 30
0.0
 10
92.587701
 20
43.611991
 30
0.0
 10
92.923201
 20
44.817891
 30
0.0
 10
93.783701
 20
45.263991
 30
0.0
 10
94.644201
 20
44.817891
 30
0.0
 10
94.979701
 20
43.611991
 30
0.0
 10
94.644201
 20
42.391892
 30
0.0
 10
93.783701
 20
41.935991
 30
0.0
  0
LWPOLYLINE
  5
125
100
AcDbEntity
  8
0
 62
7
100
AcDbPolyline
 90
8
 70
1
 10
94.479901
 20
42.541492
 30
0.0
 10
94.745701
 20
43.611991
 30
0.0
 10
94.479901
 20
44.668092
 30
0.0
 10
93.783701
 20
45.058992
 30
0.0
 10
93.086901
 20
44.668092
 30
0.0
 10
92.820701
 20
43.611991
 30
0.0
 10
93.086901
 20
42.541492
 30
0.0
 10
93.783701
 20
42.139993
 30
0.0
  0
LWPOLYLINE
  5
126
100
AcDbEntity
  8
0
 62
7
100
AcDbPolyline
 90
12
 70
1
 10
80.192700
 20
41.999991
 30
0.0
 10
80.192700
 20
45.199991
 30
0.0
 10
82.088702
 20
45.199991
 30
0.0
 10
82.088702
 20
45.004991
 30
0.0
 10
80.416702
 20
45.004991
 30
0.0
 10
80.416702
 20
43.793993
 30
0.0
 10
81.825700
 20
43.793993
 30
0.0
 10
81.825700
 20
43.599992
 30
0.0
 10
80.416702
 20
43.599992
 30
0.0
 10
80.416702
 20
42.193991
 30
0.0
 10
82.136700
 20
42.193991
 30
0.0
 10
82.136700
 20
41.999991
 30
0.0
  0
LWPOLYLINE
  5
127
100
AcDbEntity
  8
0
 62
7
100
AcDbPolyline
 90
24
 70
1
 10
89.919101
 20
41.999991
 30
0.0
 10
89.919101
 20
45.199991
 30
0.0
 10
90.206101
 20
45.199991
 30
0.0
 10
90.740101
 20
43.715991
 30
0.0
 10
90.930101
 20
43.151992
 30
0.0
 10
90.949101
 20
43.151992
 30
0.0
 10
91.134101
 20
43.715991
 30
0.0
 10
91.664101
 20
45.199991
 30
0.0
 10
91.951101
 20
45.199991
 30
0.0
 10
91.951101
 20
41.999991
 30
0.0
 10
91.742101
 20
41.999991
 30
0.0
 10
91.742101
 20
44.241991
 30
0.0
 10
91.750300
 20
44.597490
 30
0.0
 10
91.766102
 20
44.955993
 30
0.0
 10
91.752102
 20
44.955993
 30
0.0
 10
91.567101
 20
44.386993
 30
0.0
 10
91.013101
 20
42.883990
 30
0.0
 10
90.857101
 20
42.883990
 30
0.0
 10
90.298101
 20
44.386993
 30
0.0
 10
90.104101
 20
44.955993
 30
0.0
 10
90.094100
 20
44.955993
 30
0.0
 10
90.112302
 20
44.597490
 30
0.0
 10
90.123101
 20
44.241991
 30
0.0
 10
90.123101
 20
41.999991
 30
0.0
  0
LWPOLYLINE
  5
128
100
AcDbEntity
  8
0
 62
7
100
AcDbPolyline
 90
12
 70
1
 10
67.384692
 20
41.999991
 30
0.0
 10
67.384692
 20
45.199991
 30
0.0
 10
68.186702
 20
45.199991
 30
0.0
 10
68.956402
 20
45.011693
 30
0.0
 10
69.241702
 20
44.422992
 30
0.0
 10
69.099300
 20
43.984091
 30
0.0
 10
68.672702
 20
43.722992
 30
0.0
 10
68.672702
 20
43.703995
 30
0.0
 10
69.233301
 20
43.458192
 30
0.0
 10
69.440700
 20
42.931991
 30
0.0
 10
69.116702
 20
42.234592
 30
0.0
 10
68.249702
 20
41.999991
 30
0.0
  0
LWPOLYLINE
  5
129
100
AcDbEntity
  8
0
 62
7
100
AcDbPolyline
 90
7
 70
1
 10
68.804200
 20
43.951192
 30
0.0
 10
69.017700
 20
44.426993
 30
0.0
 10
68.791000
 20
44.875893
 30
0.0
 10
68.122702
 20
45.014992
 30
0.0
 10
67.607701
 20
45.014992
 30
0.0
 10
67.607701
 20
43.791993
 30
0.0
 10
68.098702
 20
43.791993
 30
0.0
  0
LWPOLYLINE
  5
12a
100
AcDbEntity
  8
0
 62
7
100
AcDbPolyline
 90
7
 70
1
 10
68.942701
 20
42.364891
 30
0.0
 10
69.216701
 20
42.931991
 30
0.0
 10
68.948300
 20
43.442991
 30
0.0
 10
68.191700
 20
43.611991
 30
0.0
 10
67.607701
 20
43.611991
 30
0.0
 10
67.607701
 20
42.183993
 30
0.0
 10
68.191700
 20
42.183993
 30
0.0
  0
LWPOLYLINE
  5
12b
100
AcDbEntity
  8
0
 62
7
100
AcDbPolyline
 90
7
 70
1
 10
95.640301
 20
41.999991
 30
0.0
 10
95.640301
 20
45.199991
 30
0.0
 10
96.374301
 20
45.199991
 30
0.0
 10
97.467101
 20
44.768191
 30
0.0
 10
97.823301
 20
43.611991
 30
0.0
 10
97.467701
 20
42.441893
 30
0.0
 10
96.379301
 20
41.999991
 30
0.0
  0
LWPOLYLINE
  5
12c
100
AcDbEntity
  8
0
 62
7
100
AcDbPolyline
 90
7
 70
1
 10
97.295301
 20
42.587392
 30
0.0
 10
97.590301
 20
43.611991
 30
0.0
 10
97.295301
 20
44.622192
 30
0.0
 10
96.355301
 20
45.009991
 30
0.0
 10
95.864301
 20
45.009991
 30
0.0
 10
95.864301
 20
42.188991
 30
0.0
 10
96.355301
 20
42.188991
 30
0.0
  0
LWPOLYLINE
  5
12d
100
AcDbEntity
  8
0
 62
7
100
AcDbPolyline
 90
4
 70
1
 10
64.000002
 20
33.999991
 30
0.0
 10
64.000002
 20
40.999993
 30
0.0
 10
72.500001
 20
40.999993
 30
0.0
 10
72.500001
 20
33.999991
 30
0.0
  0
LWPOLYLINE
  5
12e
100
AcDbEntity
  8
0
 62
7
100
AcDbPolyline
 90
4
 70
1
 10
76.750000
 20
33.999991
 30
0.0
 10
76.750000
 20
40.999993
 30
0.0
 10
85.250001
 20
40.999993
 30
0.0
 10
85.250001
 20
33.999991
 30
0.0
  0
LWPOLYLINE
  5
12f
100
AcDbEntity
  8
0
 62
7
100
AcDbPolyline
 90
4
 70
1
 10
89.500001
 20
33.999991
 30
0.0
 10
89.500001
 20
40.999993
 30
0.0
 10
98.000001
 20
40.999993
 30
0.0
 10
98.000001
 20
33.999991
 30
0.0
  0
LWPOLYLINE
  5
130
100
AcDbEntity
  8
0
 62
7
100
AcDbPolyline
 90
17
 70
1
 10
92.578001
 20
28.934001
 30
0.0
 10
92.233401
 20
29.435995
 30
0.0
 10
91.468901
 20
29.943704
 30
0.0
 10
91.178401
 20
31.106997
 30
0.0
 10
91.504501
 20
32.315693
 30
0.0
 10
92.359401
 20
32.763993
 30
0.0
 10
93.209901
 20
32.315693
 30
0.0
 10
93.535401
 20
31.106997
 30
0.0
 10
93.244901
 20
29.939999
 30
0.0
 10
92.480401
 20
29.435995
 30
0.0
 10
92.752901
 20
29.070393
 30
0.0
 10
93.244401
 20
28.940986
 30
0.0
 10
93.373001
 20
28.951569
 30
0.0
 10
93.472401
 20
28.980991
 30
0.0
 10
93.516401
 20
28.774986
 30
0.0
 10
93.367201
 20
28.742601
 30
0.0
 10
93.214401
 20
28.732018
 30
0.0
  0
LWPOLYLINE
  5
131
100
AcDbEntity
  8
0
 62
7
100
AcDbPolyline
 90
8
 70
1
 10
93.052601
 20
30.033397
 30
0.0
 10
93.312401
 20
31.106997
 30
0.0
 10
93.052601
 20
32.170596
 30
0.0
 10
92.359401
 20
32.568992
 30
0.0
 10
91.664201
 20
32.170596
 30
0.0
 10
91.406401
 20
31.106997
 30
0.0
 10
91.664201
 20
30.033397
 30
0.0
 10
92.359401
 20
29.624987
 30
0.0
  0
LWPOLYLINE
  5
132
100
AcDbEntity
  8
0
 62
7
100
AcDbPolyline
 90
28
 70
1
 10
88.902400
 20
29.570694
 30
0.0
 10
88.421699
 20
29.916981
 30
0.0
 10
88.567702
 20
30.072979
 30
0.0
 10
89.004600
 20
29.757887
 30
0.0
 10
89.554701
 20
29.639988
 30
0.0
 10
90.172701
 20
29.818979
 30
0.0
 10
90.400701
 20
30.282979
 30
0.0
 10
90.214601
 20
30.716181
 30
0.0
 10
89.772701
 20
30.955999
 30
0.0
 10
89.286702
 20
31.174995
 30
0.0
 10
88.828200
 20
31.441404
 30
0.0
 10
88.591702
 20
31.973984
 30
0.0
 10
88.870600
 20
32.542592
 30
0.0
 10
89.568701
 20
32.763993
 30
0.0
 10
90.115201
 20
32.649891
 30
0.0
 10
90.511701
 20
32.378982
 30
0.0
 10
90.380701
 20
32.227984
 30
0.0
 10
90.028001
 20
32.468493
 30
0.0
 10
89.568701
 20
32.558991
 30
0.0
 10
89.022701
 20
32.403085
 30
0.0
 10
88.815701
 20
31.983985
 30
0.0
 10
89.022402
 20
31.575892
 30
0.0
 10
89.418700
 20
31.364992
 30
0.0
 10
89.899701
 20
31.150997
 30
0.0
 10
90.405701
 20
30.848579
 30
0.0
 10
90.623701
 20
30.297981
 30
0.0
 10
90.331501
 20
29.682084
 30
0.0
 10
89.554701
 20
29.435995
 30
0.0
  0
LWPOLYLINE
  5
133
100
AcDbEntity
  8
0
 62
7
100
AcDbPolyline
 90
18
 70
1
 10
67.551702
 20
29.887480
 30
0.0
 10
67.175692
 20
31.106997
 30
0.0
 10
67.555311
 20
32.317201
 30
0.0
 10
68.550700
 20
32.763993
 30
0.0
 10
69.039801
 20
32.646491
 30
0.0
 10
69.382701
 20
32.378982
 30
0.0
 10
69.245700
 20
32.232984
 30
0.0
 10
68.943900
 20
32.469091
 30
0.0
 10
68.550700
 20
32.558991
 30
0.0
 10
67.715321
 20
32.167500
 30
0.0
 10
67.408692
 20
31.106997
 30
0.0
 10
67.713561
 20
30.038980
 30
0.0
 10
68.536701
 20
29.639988
 30
0.0
 10
68.971800
 20
29.738387
 30
0.0
 10
69.338701
 20
30.033979
 30
0.0
 10
69.469701
 20
29.892983
 30
0.0
 10
69.059401
 20
29.558682
 30
0.0
 10
68.521702
 20
29.435995
 30
0.0
  0
LWPOLYLINE
  5
134
100
AcDbEntity
  8
0
 62
7
100
AcDbPolyline
 90
12
 70
1
 10
94.318001
 20
29.499997
 30
0.0
 10
94.318001
 20
32.699993
 30
0.0
 10
95.232001
 20
32.699993
 30
0.0
 10
95.998401
 20
32.506593
 30
0.0
 10
96.287001
 20
31.855001
 30
0.0
 10
96.064001
 20
31.254688
 30
0.0
 10
95.466001
 20
30.986003
 30
0.0
 10
96.350001
 20
29.499997
 30
0.0
 10
96.088001
 20
29.499997
 30
0.0
 10
95.222001
 20
30.971980
 30
0.0
 10
94.542001
 20
30.971980
 30
0.0
 10
94.542001
 20
29.499997
 30
0.0
  0
LWPOLYLINE
  5
135
100
AcDbEntity
  8
0
 62
7
100
AcDbPolyline
 90
7
 70
1
 10
95.829901
 20
31.328903
 30
0.0
 10
96.059001
 20
31.855001
 30
0.0
 10
95.829901
 20
32.362498
 30
0.0
 10
95.174001
 20
32.509993
 30
0.0
 10
94.542001
 20
32.509993
 30
0.0
 10
94.542001
 20
31.155998
 30
0.0
 10
95.174001
 20
31.155998
 30
0.0
  0
LWPOLYLINE
  5
136
100
AcDbEntity
  8
0
 62
7
100
AcDbPolyline
 90
10
 70
1
 10
80.304701
 20
29.499997
 30
0.0
 10
80.304701
 20
32.699993
 30
0.0
 10
82.175702
 20
32.699993
 30
0.0
 10
82.175702
 20
32.504992
 30
0.0
 10
80.522702
 20
32.504992
 30
0.0
 10
80.522702
 20
31.230002
 30
0.0
 10
81.913701
 20
31.230002
 30
0.0
 10
81.913701
 20
31.035983
 30
0.0
 10
80.522702
 20
31.035983
 30
0.0
 10
80.522702
 20
29.499997
 30
0.0
  0
LWPOLYLINE
  5
137
100
AcDbEntity
  8
0
 62
7
100
AcDbPolyline
 90
8
 70
1
 10
97.944601
 20
29.499997
 30
0.0
 10
97.944601
 20
32.504992
 30
0.0
 10
96.831601
 20
32.504992
 30
0.0
 10
96.831601
 20
32.699993
 30
0.0
 10
99.281601
 20
32.699993
 30
0.0
 10
99.281601
 20
32.504992
 30
0.0
 10
98.168601
 20
32.504992
 30
0.0
 10
98.168601
 20
29.499997
 30
0.0
  0
LWPOLYLINE
  5
138
100
AcDbEntity
  8
0
 62
7
100
AcDbPolyline
 90
4
 70
1
 10
76.750000
 20
21.500003
 30
0.0
 10
76.750000
 20
28.500005
 30
0.0
 10
85.250001
 20
28.500005
 30
0.0
 10
85.250001
 20
21.500003
 30
0.0
  0
LWPOLYLINE
  5
139
100
AcDbEntity
  8
0
 62
7
100
AcDbPolyline
 90
4
 70
1
 10
89.500001
 20
21.500003
 30
0.0
 10
89.500001
 20
28.500005
 30
0.0
 10
98.000001
 20
28.500005
 30
0.0
 10
98.000001
 20
21.500003
 30
0.0
  0
LWPOLYLINE
  5
13a
100
AcDbEntity
  8
0
 62
7
100
AcDbPolyline
 90
4
 70
1
 10
64.000002
 20
21.500003
 30
0.0
 10
64.000002
 20
28.500005
 30
0.0
 10
72.500001
 20
28.500005
 30
0.0
 10
72.500001
 20
21.500003
 30
0.0
  0
LWPOLYLINE
  5
13b
100
AcDbEntity
  8
0
 62
7
100
AcDbPolyline
 90
18
 70
1
 10
64.703060
 20
17.387478
 30
0.0
 10
64.327061
 20
18.606996
 30
0.0
 10
64.706680
 20
19.817200
 30
0.0
 10
65.702061
 20
20.264002
 30
0.0
 10
66.191180
 20
20.146500
 30
0.0
 10
66.534062
 20
19.878980
 30
0.0
 10
66.397061
 20
19.732983
 30
0.0
 10
66.095311
 20
19.969097
 30
0.0
 10
65.702061
 20
20.059003
 30
0.0
 10
64.866681
 20
19.667499
 30
0.0
 10
64.560061
 20
18.606996
 30
0.0
 10
64.864930
 20
17.538979
 30
0.0
 10
65.688062
 20
17.139987
 30
0.0
 10
66.123180
 20
17.238385
 30
0.0
 10
66.490051
 20
17.534004
 30
0.0
 10
66.621062
 20
17.392982
 30
0.0
 10
66.210820
 20
17.058680
 30
0.0
 10
65.673071
 20
16.935993
 30
0.0
  0
LWPOLYLINE
  5
13c
100
AcDbEntity
  8
0
 62
7
100
AcDbPolyline
 90
6
 70
1
 10
67.554692
 20
16.999996
 30
0.0
 10
67.554692
 20
20.199999
 30
0.0
 10
67.768692
 20
20.199999
 30
0.0
 10
67.768692
 20
17.193988
 30
0.0
 10
69.445701
 20
17.193988
 30
0.0
 10
69.445701
 20
16.999996
 30
0.0
  0
LWPOLYLINE
  5
13d
100
AcDbEntity
  8
0
 62
7
100
AcDbPolyline
 90
12
 70
1
 10
70.242300
 20
16.999996
 30
0.0
 10
70.242300
 20
20.199999
 30
0.0
 10
71.156301
 20
20.199999
 30
0.0
 10
71.922701
 20
20.006589
 30
0.0
 10
72.211300
 20
19.354999
 30
0.0
 10
71.988302
 20
18.754686
 30
0.0
 10
71.390301
 20
18.486002
 30
0.0
 10
72.274300
 20
16.999996
 30
0.0
 10
72.012302
 20
16.999996
 30
0.0
 10
71.146302
 20
18.471979
 30
0.0
 10
70.466302
 20
18.471979
 30
0.0
 10
70.466302
 20
16.999996
 30
0.0
  0
LWPOLYLINE
  5
13e
100
AcDbEntity
  8
0
 62
7
100
AcDbPolyline
 90
7
 70
1
 10
71.754201
 20
18.828902
 30
0.0
 10
71.983301
 20
19.354999
 30
0.0
 10
71.754201
 20
19.862497
 30
0.0
 10
71.098302
 20
20.010002
 30
0.0
 10
70.466302
 20
20.010002
 30
0.0
 10
70.466302
 20
18.655997
 30
0.0
 10
71.098302
 20
18.655997
 30
0.0
  0
LWPOLYLINE
  5
13f
100
AcDbEntity
  8
0
 62
7
100
AcDbPolyline
 90
8
 70
1
 10
80.247702
 20
17.354590
 30
0.0
 10
79.968701
 20
18.526986
 30
0.0
 10
80.247702
 20
19.720389
 30
0.0
 10
81.033702
 20
20.135996
 30
0.0
 10
81.819700
 20
19.720389
 30
0.0
 10
82.098700
 20
18.526986
 30
0.0
 10
81.819700
 20
17.354590
 30
0.0
 10
81.033702
 20
16.935993
 30
0.0
  0
LWPOLYLINE
  5
140
100
AcDbEntity
  8
0
 62
7
100
AcDbPolyline
 90
8
 70
1
 10
81.648501
 20
17.476987
 30
0.0
 10
81.884700
 20
18.526986
 30
0.0
 10
81.648501
 20
19.594500
 30
0.0
 10
81.033702
 20
19.951000
 30
0.0
 10
80.418400
 20
19.594500
 30
0.0
 10
80.182701
 20
18.526986
 30
0.0
 10
80.418400
 20
17.476987
 30
0.0
 10
81.033702
 20
17.119984
 30
0.0
  0
LWPOLYLINE
  5
141
100
AcDbEntity
  8
0
 62
7
100
AcDbPolyline
 90
8
 70
1
 10
80.849200
 20
18.354583
 30
0.0
 10
80.766700
 20
18.570986
 30
0.0
 10
80.849200
 20
18.788182
 30
0.0
 10
81.033702
 20
18.862980
 30
0.0
 10
81.218201
 20
18.788182
 30
0.0
 10
81.300701
 20
18.570986
 30
0.0
 10
81.218201
 20
18.354583
 30
0.0
 10
81.033702
 20
18.279997
 30
0.0
  0
LWPOLYLINE
  5
142
100
AcDbEntity
  8
0
 62
7
100
AcDbPolyline
 90
4
 70
1
 10
76.750000
 20
9.000001
 30
0.0
 10
76.750000
 20
16.000003
 30
0.0
 10
85.250001
 20
16.000003
 30
0.0
 10
85.250001
 20
9.000001
 30
0.0
  0
LWPOLYLINE
  5
143
100
AcDbEntity
  8
0
 62
7
100
AcDbPolyline
 90
4
 70
1
 10
64.000002
 20
9.000001
 30
0.0
 10
64.000002
 20
16.000003
 30
0.0
 10
72.500001
 20
16.000003
 30
0.0
 10
72.500001
 20
9.000001
 30
0.0
  0
LWPOLYLINE
  5
144
100
AcDbEntity
  8
0
 62
7
100
AcDbPolyline
 90
4
 70
1
 10
89.500001
 20
9.000001
 30
0.0
 10
89.500001
 20
16.000003
 30
0.0
 10
98.000001
 20
16.000003
 30
0.0
 10
98.000001
 20
9.000001
 30
0.0
  0
LWPOLYLINE
  5
145
100
AcDbEntity
  8
0
 62
7
100
AcDbPolyline
 90
4
 70
1
 10
162.000001
 20
62.999991
 30
0.0
 10
104.000001
 20
62.999991
 30
0.0
 10
104.000001
 20
-0.000012
 30
0.0
 10
162.000001
 20
-0.000012
 30
0.0
  0
LWPOLYLINE
  5
146
100
AcDbEntity
  8
0
 62
7
100
AcDbPolyline
 90
20
 70
1
 10
129.687301
 20
54.499992
 30
0.0
 10
129.687301
 20
56.618993
 30
0.0
 10
128.983301
 20
56.618993
 30
0.0
 10
128.983301
 20
56.783992
 30
0.0
 10
129.687301
 20
56.803995
 30
0.0
 10
129.687301
 20
57.101992
 30
0.0
 10
129.903801
 20
57.826191
 30
0.0
 10
130.558302
 20
58.083991
 30
0.0
 10
130.875400
 20
58.055093
 30
0.0
 10
131.214302
 20
57.942991
 30
0.0
 10
131.146301
 20
57.769991
 30
0.0
 10
130.859302
 20
57.873091
 30
0.0
 10
130.572301
 20
57.898994
 30
0.0
 10
130.048201
 20
57.682192
 30
0.0
 10
129.892301
 20
57.121992
 30
0.0
 10
129.892301
 20
56.803992
 30
0.0
 10
130.976301
 20
56.803992
 30
0.0
 10
130.976301
 20
56.618993
 30
0.0
 10
129.892301
 20
56.618993
 30
0.0
 10
129.892301
 20
54.499992
 30
0.0
  0
LWPOLYLINE
  5
147
100
AcDbEntity
  8
0
 62
7
100
AcDbPolyline
 90
17
 70
1
 10
138.835701
 20
54.499992
 30
0.0
 10
138.835701
 20
58.019990
 30
0.0
 10
139.054700
 20
58.019990
 30
0.0
 10
139.054700
 20
57.022993
 30
0.0
 10
139.039698
 20
56.404992
 30
0.0
 10
139.480401
 20
56.783593
 30
0.0
 10
139.982702
 20
56.931992
 30
0.0
 10
140.616501
 20
56.697092
 30
0.0
 10
140.823701
 20
55.979992
 30
0.0
 10
140.823701
 20
54.499992
 30
0.0
 10
140.604700
 20
54.499992
 30
0.0
 10
140.604700
 20
55.949991
 30
0.0
 10
140.449901
 20
56.542192
 30
0.0
 10
139.948700
 20
56.736992
 30
0.0
 10
139.503600
 20
56.605192
 30
0.0
 10
139.054700
 20
56.201991
 30
0.0
 10
139.054700
 20
54.499992
 30
0.0
  0
LWPOLYLINE
  5
148
100
AcDbEntity
  8
0
 62
7
100
AcDbPolyline
 90
15
 70
1
 10
113.938931
 20
54.523591
 30
0.0
 10
113.549701
 20
54.758990
 30
0.0
 10
113.539692
 20
54.758990
 30
0.0
 10
113.515691
 20
54.499992
 30
0.0
 10
113.335691
 20
54.499992
 30
0.0
 10
113.335691
 20
58.019990
 30
0.0
 10
113.554691
 20
58.019990
 30
0.0
 10
113.554691
 20
57.022993
 30
0.0
 10
113.539692
 20
56.517991
 30
0.0
 10
113.963821
 20
56.817991
 30
0.0
 10
114.424701
 20
56.931992
 30
0.0
 10
115.168501
 20
56.602893
 30
0.0
 10
115.416701
 20
55.717991
 30
0.0
 10
115.089601
 20
54.773191
 30
0.0
 10
114.332701
 20
54.435992
 30
0.0
  0
LWPOLYLINE
  5
149
100
AcDbEntity
  8
0
 62
7
100
AcDbPolyline
 90
9
 70
1
 10
114.943101
 20
54.929191
 30
0.0
 10
115.187701
 20
55.717991
 30
0.0
 10
115.004001
 20
56.450091
 30
0.0
 10
114.390701
 20
56.741992
 30
0.0
 10
113.990691
 20
56.635190
 30
0.0
 10
113.554691
 20
56.304990
 30
0.0
 10
113.554691
 20
54.977991
 30
0.0
 10
113.967561
 20
54.706193
 30
0.0
 10
114.322701
 20
54.624992
 30
0.0
  0
LWPOLYLINE
  5
14a
100
AcDbEntity
  8
0
 62
7
100
AcDbPolyline
 90
15
 70
1
 10
123.337701
 20
54.755493
 30
0.0
 10
123.052101
 20
55.677991
 30
0.0
 10
123.384401
 20
56.594093
 30
0.0
 10
124.151101
 20
56.931992
 30
0.0
 10
124.559901
 20
56.844492
 30
0.0
 10
124.929101
 20
56.597993
 30
0.0
 10
124.914102
 20
57.069991
 30
0.0
 10
124.914101
 20
58.019990
 30
0.0
 10
125.133101
 20
58.019990
 30
0.0
 10
125.133101
 20
54.499992
 30
0.0
 10
124.948101
 20
54.499992
 30
0.0
 10
124.924101
 20
54.843990
 30
0.0
 10
124.914100
 20
54.843990
 30
0.0
 10
124.544301
 20
54.557891
 30
0.0
 10
124.083101
 20
54.435992
 30
0.0
  0
LWPOLYLINE
  5
14b
100
AcDbEntity
  8
0
 62
7
100
AcDbPolyline
 90
9
 70
1
 10
124.518301
 20
54.739192
 30
0.0
 10
124.914101
 20
55.061991
 30
0.0
 10
124.914101
 20
56.388990
 30
0.0
 10
124.532801
 20
56.660392
 30
0.0
 10
124.165101
 20
56.741992
 30
0.0
 10
123.538901
 20
56.435692
 30
0.0
 10
123.281101
 20
55.677991
 30
0.0
 10
123.501601
 20
54.914891
 30
0.0
 10
124.112101
 20
54.624992
 30
0.0
  0
LWPOLYLINE
  5
14c
100
AcDbEntity
  8
0
 62
7
100
AcDbPolyline
 90
8
 70
1
 10
142.709101
 20
57.424591
 30
0.0
 10
142.642302
 20
57.593990
 30
0.0
 10
142.709101
 20
57.763892
 30
0.0
 10
142.870301
 20
57.827990
 30
0.0
 10
143.033901
 20
57.763892
 30
0.0
 10
143.099301
 20
57.593990
 30
0.0
 10
143.033901
 20
57.424591
 30
0.0
 10
142.870301
 20
57.360990
 30
0.0
  0
LWPOLYLINE
  5
14d
100
AcDbEntity
  8
0
 62
7
100
AcDbPolyline
 90
28
 70
1
 10
147.652401
 20
54.570692
 30
0.0
 10
147.171701
 20
54.916992
 30
0.0
 10
147.317701
 20
55.072993
 30
0.0
 10
147.754602
 20
54.757892
 30
0.0
 10
148.304700
 20
54.639991
 30
0.0
 10
148.922700
 20
54.818993
 30
0.0
 10
149.150700
 20
55.282992
 30
0.0
 10
148.964600
 20
55.716192
 30
0.0
 10
148.522701
 20
55.955992
 30
0.0
 10
148.036701
 20
56.174993
 30
0.0
 10
147.578202
 20
56.441391
 30
0.0
 10
147.341701
 20
56.973992
 30
0.0
 10
147.620601
 20
57.542592
 30
0.0
 10
148.318702
 20
57.763990
 30
0.0
 10
148.865201
 20
57.649891
 30
0.0
 10
149.261700
 20
57.378992
 30
0.0
 10
149.130700
 20
57.227992
 30
0.0
 10
148.778000
 20
57.468490
 30
0.0
 10
148.318702
 20
57.558991
 30
0.0
 10
147.772702
 20
57.403091
 30
0.0
 10
147.565700
 20
56.983991
 30
0.0
 10
147.772400
 20
56.575892
 30
0.0
 10
148.168701
 20
56.364993
 30
0.0
 10
148.649701
 20
56.150992
 30
0.0
 10
149.155700
 20
55.848592
 30
0.0
 10
149.373701
 20
55.297992
 30
0.0
 10
149.081501
 20
54.682092
 30
0.0
 10
148.304700
 20
54.435992
 30
0.0
  0
LWPOLYLINE
  5
14e
100
AcDbEntity
  8
0
 62
7
100
AcDbPolyline
 90
12
 70
1
 10
150.083401
 20
54.499992
 30
0.0
 10
150.083401
 20
57.699990
 30
0.0
 10
150.307400
 20
57.699990
 30
0.0
 10
150.307400
 20
56.293992
 30
0.0
 10
151.911402
 20
56.293992
 30
0.0
 10
151.911402
 20
57.699990
 30
0.0
 10
152.135401
 20
57.699990
 30
0.0
 10
152.135401
 20
54.499992
 30
0.0
 10
151.911402
 20
54.499992
 30
0.0
 10
151.911402
 20
56.099991
 30
0.0
 10
150.307400
 20
56.099991
 30
0.0
 10
150.307400
 20
54.499992
 30
0.0
  0
LWPOLYLINE
  5
14f
100
AcDbEntity
  8
0
 62
7
100
AcDbPolyline
 90
10
 70
1
 10
153.229000
 20
54.499992
 30
0.0
 10
153.229000
 20
57.699990
 30
0.0
 10
155.100001
 20
57.699990
 30
0.0
 10
155.100001
 20
57.504992
 30
0.0
 10
153.447001
 20
57.504992
 30
0.0
 10
153.447001
 20
56.229992
 30
0.0
 10
154.838000
 20
56.229992
 30
0.0
 10
154.838000
 20
56.035991
 30
0.0
 10
153.447001
 20
56.035991
 30
0.0
 10
153.447001
 20
54.499992
 30
0.0
  0
LWPOLYLINE
  5
150
100
AcDbEntity
  8
0
 62
7
100
AcDbPolyline
 90
8
 70
1
 10
156.694600
 20
54.499992
 30
0.0
 10
156.694600
 20
57.504992
 30
0.0
 10
155.581601
 20
57.504992
 30
0.0
 10
155.581601
 20
57.699990
 30
0.0
 10
158.031601
 20
57.699990
 30
0.0
 10
158.031601
 20
57.504992
 30
0.0
 10
156.918602
 20
57.504992
 30
0.0
 10
156.918602
 20
54.499992
 30
0.0
  0
LWPOLYLINE
  5
151
100
AcDbEntity
  8
0
 62
7
100
AcDbPolyline
 90
16
 70
1
 10
126.313101
 20
54.764192
 30
0.0
 10
125.949701
 20
55.675991
 30
0.0
 10
126.310401
 20
56.596892
 30
0.0
 10
127.116701
 20
56.931992
 30
0.0
 10
127.877701
 20
56.638191
 30
0.0
 10
128.161701
 20
55.826992
 30
0.0
 10
128.160405
 20
55.739092
 30
0.0
 10
128.151702
 20
55.651991
 30
0.0
 10
126.172701
 20
55.651991
 30
0.0
 10
126.461801
 20
54.910991
 30
0.0
 10
127.198701
 20
54.619991
 30
0.0
 10
127.622201
 20
54.691191
 30
0.0
 10
127.976701
 20
54.877992
 30
0.0
 10
128.064701
 20
54.708992
 30
0.0
 10
127.694901
 20
54.521090
 30
0.0
 10
127.179701
 20
54.435992
 30
0.0
  0
LWPOLYLINE
  5
152
100
AcDbEntity
  8
0
 62
7
100
AcDbPolyline
 90
5
 70
1
 10
127.724501
 20
56.513892
 30
0.0
 10
127.120701
 20
56.746993
 30
0.0
 10
126.499701
 20
56.500692
 30
0.0
 10
126.172701
 20
55.826992
 30
0.0
 10
127.952701
 20
55.826992
 30
0.0
  0
LWPOLYLINE
  5
153
100
AcDbEntity
  8
0
 62
7
100
AcDbPolyline
 90
19
 70
1
 10
110.673311
 20
54.591991
 30
0.0
 10
110.424061
 20
55.086992
 30
0.0
 10
110.844561
 20
55.693692
 30
0.0
 10
112.213061
 20
55.989991
 30
0.0
 10
112.063931
 20
56.512590
 30
0.0
 10
111.518051
 20
56.741992
 30
0.0
 10
111.017061
 20
56.633092
 30
0.0
 10
110.633061
 20
56.419992
 30
0.0
 10
110.536061
 20
56.583991
 30
0.0
 10
110.953191
 20
56.807892
 30
0.0
 10
111.542051
 20
56.931992
 30
0.0
 10
112.219681
 20
56.666692
 30
0.0
 10
112.427061
 20
56.018992
 30
0.0
 10
112.427061
 20
54.499992
 30
0.0
 10
112.247061
 20
54.499992
 30
0.0
 10
112.222061
 20
54.848991
 30
0.0
 10
112.213060
 20
54.848991
 30
0.0
 10
111.751561
 20
54.560391
 30
0.0
 10
111.236051
 20
54.435992
 30
0.0
  0
LWPOLYLINE
  5
154
100
AcDbEntity
  8
0
 62
7
100
AcDbPolyline
 90
7
 70
1
 10
111.730801
 20
54.729992
 30
0.0
 10
112.213061
 20
55.052993
 30
0.0
 10
112.213061
 20
55.817990
 30
0.0
 10
110.983311
 20
55.559892
 30
0.0
 10
110.643051
 20
55.096993
 30
0.0
 10
110.840061
 20
54.729891
 30
0.0
 10
111.274061
 20
54.619991
 30
0.0
  0
LWPOLYLINE
  5
155
100
AcDbEntity
  8
0
 62
7
100
AcDbPolyline
 90
18
 70
1
 10
116.456801
 20
54.760692
 30
0.0
 10
116.096301
 20
55.677991
 30
0.0
 10
116.470801
 20
56.604991
 30
0.0
 10
117.370301
 20
56.931992
 30
0.0
 10
117.863901
 20
56.822992
 30
0.0
 10
118.211301
 20
56.572992
 30
0.0
 10
118.085301
 20
56.423992
 30
0.0
 10
117.762901
 20
56.653891
 30
0.0
 10
117.375301
 20
56.741992
 30
0.0
 10
116.617101
 20
56.446590
 30
0.0
 10
116.325301
 20
55.677991
 30
0.0
 10
116.612701
 20
54.916693
 30
0.0
 10
117.370301
 20
54.624992
 30
0.0
 10
117.804401
 20
54.721890
 30
0.0
 10
118.158301
 20
54.967993
 30
0.0
 10
118.269301
 20
54.813992
 30
0.0
 10
117.862401
 20
54.539492
 30
0.0
 10
117.360301
 20
54.435992
 30
0.0
  0
LWPOLYLINE
  5
156
100
AcDbEntity
  8
0
 62
7
100
AcDbPolyline
 90
39
 70
1
 10
135.500002
 20
46.499992
 30
0.0
 10
135.500002
 20
53.499992
 30
0.0
 10
136.378902
 20
53.499992
 30
0.0
 10
136.156200
 20
53.550892
 30
0.0
 10
135.885100
 20
54.048992
 30
0.0
 10
135.987200
 20
54.339091
 30
0.0
 10
136.279102
 20
54.602992
 30
0.0
 10
136.279102
 20
54.621989
 30
0.0
 10
136.113700
 20
54.753992
 30
0.0
 10
136.036100
 20
54.984992
 30
0.0
 10
136.107702
 20
55.209692
 30
0.0
 10
136.318101
 20
55.420991
 30
0.0
 10
136.318101
 20
55.440994
 30
0.0
 10
136.122402
 20
55.692991
 30
0.0
 10
136.040101
 20
56.070990
 30
0.0
 10
136.296702
 20
56.690091
 30
0.0
 10
136.911101
 20
56.931992
 30
0.0
 10
137.083800
 20
56.908497
 30
0.0
 10
137.231101
 20
56.803992
 30
0.0
 10
138.204101
 20
56.803992
 30
0.0
 10
138.204101
 20
56.623991
 30
0.0
 10
137.494100
 20
56.623991
 30
0.0
 10
137.687301
 20
56.369091
 30
0.0
 10
137.771100
 20
56.030991
 30
0.0
 10
137.519600
 20
55.450992
 30
0.0
 10
136.911101
 20
55.224990
 30
0.0
 10
136.689600
 20
55.251105
 30
0.0
 10
136.468101
 20
55.331991
 30
0.0
 10
136.303102
 20
55.188592
 30
0.0
 10
136.240102
 20
55.015991
 30
0.0
 10
136.387702
 20
54.779392
 30
0.0
 10
136.779101
 20
54.703991
 30
0.0
 10
137.358101
 20
54.703991
 30
0.0
 10
138.005902
 20
54.580992
 30
0.0
 10
138.209102
 20
54.172991
 30
0.0
 10
137.873901
 20
53.614392
 30
0.0
 10
137.462800
 20
53.499992
 30
0.0
 10
144.000000
 20
53.499992
 30
0.0
 10
144.000000
 20
46.499992
 30
0.0
  0
LWPOLYLINE
  5
157
100
AcDbEntity
  8
0
 62
7
100
AcDbPolyline
 90
8
 70
1
 10
137.369301
 20
55.573492
 30
0.0
 10
137.562101
 20
56.035991
 30
0.0
 10
137.369301
 20
56.502491
 30
0.0
 10
136.911101
 20
56.686991
 30
0.0
 10
136.450102
 20
56.502491
 30
0.0
 10
136.259102
 20
56.035991
 30
0.0
 10
136.450102
 20
55.573492
 30
0.0
 10
136.911101
 20
55.395991
 30
0.0
  0
LWPOLYLINE
  5
158
100
AcDbEntity
  8
0
 62
7
100
AcDbPolyline
 90
11
 70
1
 10
137.712802
 20
53.732592
 30
0.0
 10
137.985100
 20
54.147991
 30
0.0
 10
137.834402
 20
54.424091
 30
0.0
 10
137.377101
 20
54.499992
 30
0.0
 10
136.823101
 20
54.499992
 30
0.0
 10
136.641800
 20
54.508697
 30
0.0
 10
136.468101
 20
54.542992
 30
0.0
 10
136.172800
 20
54.301391
 30
0.0
 10
136.089102
 20
54.043991
 30
0.0
 10
136.305401
 20
53.684390
 30
0.0
 10
136.959102
 20
53.539991
 30
0.0
  0
LWPOLYLINE
  5
159
100
AcDbEntity
  8
0
 62
7
100
AcDbPolyline
 90
6
 70
1
 10
142.817300
 20
54.499992
 30
0.0
 10
142.817300
 20
56.618993
 30
0.0
 10
141.645301
 20
56.618993
 30
0.0
 10
141.645301
 20
56.803992
 30
0.0
 10
143.031300
 20
56.803992
 30
0.0
 10
143.031300
 20
54.499992
 30
0.0
  0
LWPOLYLINE
  5
15a
100
AcDbEntity
  8
0
 62
7
100
AcDbPolyline
 90
4
 70
1
 10
122.750001
 20
46.499992
 30
0.0
 10
122.750001
 20
53.499992
 30
0.0
 10
131.250002
 20
53.499992
 30
0.0
 10
131.250002
 20
46.499992
 30
0.0
  0
LWPOLYLINE
  5
15b
100
AcDbEntity
  8
0
 62
7
100
AcDbPolyline
 90
4
 70
1
 10
148.250000
 20
46.499992
 30
0.0
 10
148.250000
 20
53.499992
 30
0.0
 10
156.750001
 20
53.499992
 30
0.0
 10
156.750001
 20
46.499992
 30
0.0
  0
LWPOLYLINE
  5
15c
100
AcDbEntity
  8
0
 62
7
100
AcDbPolyline
 90
4
 70
1
 10
110.000001
 20
46.499992
 30
0.0
 10
110.000001
 20
53.499992
 30
0.0
 10
118.500001
 20
53.499992
 30
0.0
 10
118.500001
 20
46.499992
 30
0.0
  0
LWPOLYLINE
  5
15d
100
AcDbEntity
  8
0
 62
7
100
AcDbPolyline
 90
14
 70
1
 10
117.170601
 20
42.119392
 30
0.0
 10
116.991301
 20
42.703992
 30
0.0
 10
116.991301
 20
45.334992
 30
0.0
 10
116.126301
 20
45.334992
 30
0.0
 10
116.126301
 20
45.519992
 30
0.0
 10
117.205301
 20
45.519992
 30
0.0
 10
117.205301
 20
42.674991
 30
0.0
 10
117.334101
 20
42.260092
 30
0.0
 10
117.710301
 20
42.124991
 30
0.0
 10
117.939201
 20
42.155592
 30
0.0
 10
118.197301
 20
42.252991
 30
0.0
 10
118.265301
 20
42.080990
 30
0.0
 10
117.987901
 20
41.979592
 30
0.0
 10
117.681301
 20
41.935991
 30
0.0
  0
LWPOLYLINE
  5
15e
100
AcDbEntity
  8
0
 62
7
100
AcDbPolyline
 90
13
 70
1
 10
113.422681
 20
41.999991
 30
0.0
 10
113.422681
 20
45.519992
 30
0.0
 10
113.641691
 20
45.519992
 30
0.0
 10
113.641691
 20
42.915992
 30
0.0
 10
113.661701
 20
42.915992
 30
0.0
 10
115.158701
 20
44.303990
 30
0.0
 10
115.425701
 20
44.303990
 30
0.0
 10
114.468701
 20
43.410993
 30
0.0
 10
115.581701
 20
41.999991
 30
0.0
 10
115.333701
 20
41.999991
 30
0.0
 10
114.317701
 20
43.280992
 30
0.0
 10
113.641691
 20
42.651990
 30
0.0
 10
113.641691
 20
41.999991
 30
0.0
  0
LWPOLYLINE
  5
15f
100
AcDbEntity
  8
0
 62
7
100
AcDbPolyline
 90
4
 70
1
 10
154.478302
 20
41.225992
 30
0.0
 10
156.067300
 20
45.455992
 30
0.0
 10
156.286301
 20
45.455992
 30
0.0
 10
154.696300
 20
41.225992
 30
0.0
  0
LWPOLYLINE
  5
160
100
AcDbEntity
  8
0
 62
7
100
AcDbPolyline
 90
8
 70
1
 10
111.511811
 20
44.924592
 30
0.0
 10
111.445051
 20
45.093991
 30
0.0
 10
111.511811
 20
45.263891
 30
0.0
 10
111.673071
 20
45.327991
 30
0.0
 10
111.836691
 20
45.263891
 30
0.0
 10
111.902051
 20
45.093991
 30
0.0
 10
111.836691
 20
44.924592
 30
0.0
 10
111.673071
 20
44.860991
 30
0.0
  0
LWPOLYLINE
  5
161
100
AcDbEntity
  8
0
 62
7
100
AcDbPolyline
 90
17
 70
1
 10
126.085701
 20
41.999991
 30
0.0
 10
126.085701
 20
44.303990
 30
0.0
 10
126.270701
 20
44.303990
 30
0.0
 10
126.294701
 20
43.919993
 30
0.0
 10
126.313701
 20
43.919993
 30
0.0
 10
126.733401
 20
44.285491
 30
0.0
 10
127.232701
 20
44.431991
 30
0.0
 10
127.866501
 20
44.197091
 30
0.0
 10
128.073701
 20
43.479991
 30
0.0
 10
128.073701
 20
41.999991
 30
0.0
 10
127.854701
 20
41.999991
 30
0.0
 10
127.854701
 20
43.449992
 30
0.0
 10
127.699901
 20
44.042191
 30
0.0
 10
127.198701
 20
44.236993
 30
0.0
 10
126.753601
 20
44.105191
 30
0.0
 10
126.304701
 20
43.701992
 30
0.0
 10
126.304701
 20
41.999991
 30
0.0
  0
LWPOLYLINE
  5
162
100
AcDbEntity
  8
0
 62
7
100
AcDbPolyline
 90
28
 70
1
 10
123.091101
 20
41.999991
 30
0.0
 10
123.091101
 20
44.303990
 30
0.0
 10
123.266101
 20
44.303990
 30
0.0
 10
123.290101
 20
44.053991
 30
0.0
 10
123.300102
 20
44.053991
 30
0.0
 10
123.521801
 20
44.329991
 30
0.0
 10
123.835101
 20
44.431991
 30
0.0
 10
124.141301
 20
44.328390
 30
0.0
 10
124.302101
 20
44.013991
 30
0.0
 10
124.555901
 20
44.323091
 30
0.0
 10
124.875101
 20
44.431991
 30
0.0
 10
125.248401
 20
44.255093
 30
0.0
 10
125.381101
 20
43.721992
 30
0.0
 10
125.381101
 20
41.999991
 30
0.0
 10
125.172101
 20
41.999991
 30
0.0
 10
125.172101
 20
43.696991
 30
0.0
 10
125.087401
 20
44.100891
 30
0.0
 10
124.831101
 20
44.236993
 30
0.0
 10
124.560801
 20
44.125391
 30
0.0
 10
124.331101
 20
43.790993
 30
0.0
 10
124.331101
 20
41.999991
 30
0.0
 10
124.136101
 20
41.999991
 30
0.0
 10
124.136101
 20
43.696991
 30
0.0
 10
124.052201
 20
44.100891
 30
0.0
 10
123.801101
 20
44.236993
 30
0.0
 10
123.526901
 20
44.125391
 30
0.0
 10
123.300101
 20
43.790993
 30
0.0
 10
123.300101
 20
41.999991
 30
0.0
  0
LWPOLYLINE
  5
163
100
AcDbEntity
  8
0
 62
7
100
AcDbPolyline
 90
34
 70
1
 10
135.500002
 20
33.999991
 30
0.0
 10
135.500002
 20
40.999993
 30
0.0
 10
135.987102
 20
40.999993
 30
0.0
 10
135.987102
 20
44.303990
 30
0.0
 10
136.172101
 20
44.303990
 30
0.0
 10
136.196099
 20
44.032991
 30
0.0
 10
136.206103
 20
44.032991
 30
0.0
 10
136.615202
 20
44.317992
 30
0.0
 10
137.076101
 20
44.431991
 30
0.0
 10
137.819900
 20
44.102891
 30
0.0
 10
138.068100
 20
43.217992
 30
0.0
 10
137.739702
 20
42.273192
 30
0.0
 10
136.974101
 20
41.935991
 30
0.0
 10
136.592802
 20
42.022991
 30
0.0
 10
136.201100
 20
42.268993
 30
0.0
 10
136.206100
 20
41.794992
 30
0.0
 10
136.206100
 20
40.999993
 30
0.0
 10
140.512702
 20
40.999993
 30
0.0
 10
140.512702
 20
41.883992
 30
0.0
 10
140.527704
 20
42.348992
 30
0.0
 10
140.141100
 20
42.056591
 30
0.0
 10
139.681701
 20
41.935991
 30
0.0
 10
138.936301
 20
42.255491
 30
0.0
 10
138.650702
 20
43.177993
 30
0.0
 10
138.983101
 20
44.094091
 30
0.0
 10
139.749702
 20
44.431991
 30
0.0
 10
140.157301
 20
44.345091
 30
0.0
 10
140.517700
 20
44.102992
 30
0.0
 10
140.527701
 20
44.102992
 30
0.0
 10
140.551699
 20
44.303990
 30
0.0
 10
140.731700
 20
44.303990
 30
0.0
 10
140.731700
 20
40.999993
 30
0.0
 10
144.000000
 20
40.999993
 30
0.0
 10
144.000000
 20
33.999991
 30
0.0
  0
LWPOLYLINE
  5
164
100
AcDbEntity
  8
0
 62
7
100
AcDbPolyline
 90
9
 70
1
 10
137.593202
 20
42.429193
 30
0.0
 10
137.839101
 20
43.217992
 30
0.0
 10
137.655401
 20
43.950092
 30
0.0
 10
137.042102
 20
44.241991
 30
0.0
 10
136.642102
 20
44.135192
 30
0.0
 10
136.206100
 20
43.804992
 30
0.0
 10
136.206100
 20
42.466991
 30
0.0
 10
136.617702
 20
42.203691
 30
0.0
 10
136.964100
 20
42.124991
 30
0.0
  0
LWPOLYLINE
  5
165
100
AcDbEntity
  8
0
 62
7
100
AcDbPolyline
 90
9
 70
1
 10
140.116901
 20
42.239193
 30
0.0
 10
140.512702
 20
42.561992
 30
0.0
 10
140.512702
 20
43.888992
 30
0.0
 10
140.131400
 20
44.160391
 30
0.0
 10
139.763701
 20
44.241991
 30
0.0
 10
139.137602
 20
43.935690
 30
0.0
 10
138.879702
 20
43.177993
 30
0.0
 10
139.100200
 20
42.414892
 30
0.0
 10
139.710700
 20
42.124991
 30
0.0
  0
LWPOLYLINE
  5
166
100
AcDbEntity
  8
0
 62
7
100
AcDbPolyline
 90
15
 70
1
 10
141.966302
 20
41.999991
 30
0.0
 10
141.966302
 20
44.303990
 30
0.0
 10
142.151301
 20
44.303990
 30
0.0
 10
142.175299
 20
43.791993
 30
0.0
 10
142.185303
 20
43.791993
 30
0.0
 10
142.654102
 20
44.252992
 30
0.0
 10
143.283300
 20
44.431991
 30
0.0
 10
143.520602
 20
44.412200
 30
0.0
 10
143.750300
 20
44.333992
 30
0.0
 10
143.692301
 20
44.142992
 30
0.0
 10
143.476401
 20
44.207492
 30
0.0
 10
143.249301
 20
44.226991
 30
0.0
 10
142.691800
 20
44.058492
 30
0.0
 10
142.185300
 20
43.484991
 30
0.0
 10
142.185300
 20
41.999991
 30
0.0
  0
LWPOLYLINE
  5
167
100
AcDbEntity
  8
0
 62
7
100
AcDbPolyline
 90
8
 70
1
 10
129.085901
 20
42.260690
 30
0.0
 10
128.749301
 20
43.177993
 30
0.0
 10
129.085901
 20
44.104992
 30
0.0
 10
129.882301
 20
44.431991
 30
0.0
 10
130.678301
 20
44.104992
 30
0.0
 10
131.015301
 20
43.177993
 30
0.0
 10
130.678301
 20
42.260690
 30
0.0
 10
129.882301
 20
41.935991
 30
0.0
  0
LWPOLYLINE
  5
168
100
AcDbEntity
  8
0
 62
7
100
AcDbPolyline
 90
8
 70
1
 10
130.531201
 20
42.416691
 30
0.0
 10
130.786301
 20
43.177993
 30
0.0
 10
130.531201
 20
43.946591
 30
0.0
 10
129.882301
 20
44.241991
 30
0.0
 10
129.233401
 20
43.946591
 30
0.0
 10
128.978301
 20
43.177993
 30
0.0
 10
129.233401
 20
42.416691
 30
0.0
 10
129.882301
 20
42.124991
 30
0.0
  0
LWPOLYLINE
  5
169
100
AcDbEntity
  8
0
 62
7
100
AcDbPolyline
 90
18
 70
1
 10
110.000001
 20
33.999991
 30
0.0
 10
110.000001
 20
40.999993
 30
0.0
 10
110.466801
 20
40.999993
 30
0.0
 10
110.283071
 20
41.066991
 30
0.0
 10
110.370061
 20
41.234991
 30
0.0
 10
110.635941
 20
41.136592
 30
0.0
 10
110.934051
 20
41.095992
 30
0.0
 10
111.481431
 20
41.291992
 30
0.0
 10
111.620061
 20
41.802993
 30
0.0
 10
111.620061
 20
44.118991
 30
0.0
 10
110.448061
 20
44.118991
 30
0.0
 10
110.448061
 20
44.303990
 30
0.0
 10
111.834061
 20
44.303990
 30
0.0
 10
111.834061
 20
41.831991
 30
0.0
 10
111.637681
 20
41.160492
 30
0.0
 10
111.174181
 20
40.999993
 30
0.0
 10
118.500001
 20
40.999993
 30
0.0
 10
118.500001
 20
33.999991
 30
0.0
  0
LWPOLYLINE
  5
16a
100
AcDbEntity
  8
0
 62
7
100
AcDbPolyline
 90
4
 70
1
 10
148.688102
 20
43.535992
 30
0.0
 10
148.688102
 20
43.719992
 30
0.0
 10
150.681100
 20
43.719992
 30
0.0
 10
150.681100
 20
43.535992
 30
0.0
  0
LWPOLYLINE
  5
16b
100
AcDbEntity
  8
0
 62
7
100
AcDbPolyline
 90
8
 70
1
 10
152.331100
 20
42.018893
 30
0.0
 10
152.241700
 20
42.250991
 30
0.0
 10
152.331100
 20
42.485893
 30
0.0
 10
152.533702
 20
42.566993
 30
0.0
 10
152.736301
 20
42.485893
 30
0.0
 10
152.825701
 20
42.250991
 30
0.0
 10
152.736301
 20
42.018893
 30
0.0
 10
152.533702
 20
41.935991
 30
0.0
  0
LWPOLYLINE
  5
16c
100
AcDbEntity
  8
0
 62
7
100
AcDbPolyline
 90
4
 70
1
 10
122.750001
 20
33.999991
 30
0.0
 10
122.750001
 20
40.999993
 30
0.0
 10
131.250002
 20
40.999993
 30
0.0
 10
131.250002
 20
33.999991
 30
0.0
  0
LWPOLYLINE
  5
16d
100
AcDbEntity
  8
0
 62
7
100
AcDbPolyline
 90
4
 70
1
 10
148.250000
 20
33.999991
 30
0.0
 10
148.250000
 20
40.999993
 30
0.0
 10
156.750001
 20
40.999993
 30
0.0
 10
156.750001
 20
33.999991
 30
0.0
  0
LWPOLYLINE
  5
16e
100
AcDbEntity
  8
0
 62
7
100
AcDbPolyline
 90
28
 70
1
 10
143.376301
 20
28.778002
 30
0.0
 10
142.704600
 20
28.906378
 30
0.0
 10
142.481300
 20
29.396995
 30
0.0
 10
142.525300
 20
30.392993
 30
0.0
 10
142.389101
 20
30.658899
 30
0.0
 10
141.801300
 20
30.779999
 30
0.0
 10
141.801300
 20
30.934992
 30
0.0
 10
142.389101
 20
31.056991
 30
0.0
 10
142.525300
 20
31.325993
 30
0.0
 10
142.481300
 20
32.330986
 30
0.0
 10
142.704600
 20
32.826492
 30
0.0
 10
143.376301
 20
32.955990
 30
0.0
 10
143.628301
 20
32.955990
 30
0.0
 10
143.628301
 20
32.809990
 30
0.0
 10
143.347300
 20
32.809990
 30
0.0
 10
142.808100
 20
32.690692
 30
0.0
 10
142.681301
 20
32.311989
 30
0.0
 10
142.715300
 20
31.373988
 30
0.0
 10
142.628702
 20
31.036089
 30
0.0
 10
142.301301
 20
30.866994
 30
0.0
 10
142.301301
 20
30.847944
 30
0.0
 10
142.628702
 20
30.679192
 30
0.0
 10
142.715300
 20
30.343992
 30
0.0
 10
142.681301
 20
29.415992
 30
0.0
 10
142.808100
 20
29.041395
 30
0.0
 10
143.347300
 20
28.923999
 30
0.0
 10
143.628301
 20
28.923999
 30
0.0
 10
143.628301
 20
28.778002
 30
0.0
  0
LWPOLYLINE
  5
16f
100
AcDbEntity
  8
0
 62
7
100
AcDbPolyline
 90
6
 70
0
 10
114.095801
 20
29.691000
 30
0.0
 10
113.918691
 20
30.359999
 30
0.0
 10
113.918691
 20
31.618992
 30
0.0
 10
113.213681
 20
31.618992
 30
0.0
 10
113.213681
 20
31.783987
 30
0.0
 10
113.923691
 20
31.804095
 30
0.0
  0
LWPOLYLINE
  5
170
100
AcDbEntity
  8
0
 62
7
100
AcDbPolyline
 90
16
 70
0
 10
113.923691
 20
31.803989
 30
0.0
 10
113.952701
 20
32.478991
 30
0.0
 10
114.132701
 20
32.478991
 30
0.0
 10
114.132701
 20
31.803989
 30
0.0
 10
115.377701
 20
31.803989
 30
0.0
 10
115.377701
 20
31.618992
 30
0.0
 10
114.132701
 20
31.618992
 30
0.0
 10
114.132701
 20
30.341002
 30
0.0
 10
114.262701
 20
29.815381
 30
0.0
 10
114.779701
 20
29.624987
 30
0.0
 10
115.116801
 20
29.656102
 30
0.0
 10
115.406701
 20
29.745002
 30
0.0
 10
115.464701
 20
29.580986
 30
0.0
 10
115.112901
 20
29.475894
 30
0.0
 10
114.750701
 20
29.435995
 30
0.0
 10
114.095801
 20
29.691000
 30
0.0
  0
LWPOLYLINE
  5
171
100
AcDbEntity
  8
0
 62
7
100
AcDbPolyline
 90
8
 70
1
 10
148.824101
 20
31.013996
 30
0.0
 10
148.824101
 20
31.208994
 30
0.0
 10
150.599100
 20
32.443992
 30
0.0
 10
150.599100
 20
32.209992
 30
0.0
 10
149.033100
 20
31.120994
 30
0.0
 10
149.033100
 20
31.101944
 30
0.0
 10
150.599100
 20
30.012998
 30
0.0
 10
150.599100
 20
29.779000
 30
0.0
  0
LWPOLYLINE
  5
172
100
AcDbEntity
  8
0
 62
7
100
AcDbPolyline
 90
26
 70
1
 10
110.877061
 20
29.546379
 30
0.0
 10
110.380071
 20
29.809004
 30
0.0
 10
110.502061
 20
29.967992
 30
0.0
 10
110.933691
 20
29.713701
 30
0.0
 10
111.537061
 20
29.619986
 30
0.0
 10
112.081941
 20
29.761088
 30
0.0
 10
112.266051
 20
30.092003
 30
0.0
 10
112.104931
 20
30.384182
 30
0.0
 10
111.430051
 20
30.639002
 30
0.0
 10
110.773681
 20
30.898585
 30
0.0
 10
110.511061
 20
31.299984
 30
0.0
 10
110.732941
 20
31.746098
 30
0.0
 10
111.425061
 20
31.931994
 30
0.0
 10
111.905181
 20
31.850079
 30
0.0
 10
112.320051
 20
31.642990
 30
0.0
 10
112.203061
 20
31.484002
 30
0.0
 10
111.853561
 20
31.675084
 30
0.0
 10
111.420061
 20
31.746998
 30
0.0
 10
110.882551
 20
31.614600
 30
0.0
 10
110.735061
 20
31.314986
 30
0.0
 10
110.948181
 20
31.025188
 30
0.0
 10
111.522061
 20
30.817993
 30
0.0
 10
112.279821
 20
30.519596
 30
0.0
 10
112.490051
 20
30.102004
 30
0.0
 10
112.238431
 20
29.634697
 30
0.0
 10
111.527051
 20
29.435995
 30
0.0
  0
LWPOLYLINE
  5
173
100
AcDbEntity
  8
0
 62
7
100
AcDbPolyline
 90
11
 70
1
 10
124.078101
 20
29.499997
 30
0.0
 10
123.028101
 20
31.803989
 30
0.0
 10
123.252101
 20
31.803989
 30
0.0
 10
123.893101
 20
30.359999
 30
0.0
 10
124.046201
 20
30.022391
 30
0.0
 10
124.185101
 20
29.698990
 30
0.0
 10
124.204101
 20
29.698990
 30
0.0
 10
124.486101
 20
30.359999
 30
0.0
 10
125.133101
 20
31.803989
 30
0.0
 10
125.342101
 20
31.803989
 30
0.0
 10
124.306101
 20
29.499997
 30
0.0
  0
LWPOLYLINE
  5
174
100
AcDbEntity
  8
0
 62
7
100
AcDbPolyline
 90
21
 70
1
 10
128.812301
 20
29.499997
 30
0.0
 10
129.746301
 20
30.694988
 30
0.0
 10
128.885301
 20
31.803989
 30
0.0
 10
129.133301
 20
31.803989
 30
0.0
 10
129.585301
 20
31.217990
 30
0.0
 10
129.727901
 20
31.025400
 30
0.0
 10
129.877301
 20
30.828999
 30
0.0
 10
129.896301
 20
30.828999
 30
0.0
 10
130.053601
 20
31.030189
 30
0.0
 10
130.640302
 20
31.803989
 30
0.0
 10
130.878302
 20
31.803989
 30
0.0
 10
130.008301
 20
30.684987
 30
0.0
 10
130.951301
 20
29.499997
 30
0.0
 10
130.703301
 20
29.499997
 30
0.0
 10
130.208301
 20
30.122985
 30
0.0
 10
130.046601
 20
30.335102
 30
0.0
 10
129.877301
 20
30.551002
 30
0.0
 10
129.858301
 20
30.551002
 30
0.0
 10
129.695301
 20
30.338383
 30
0.0
 10
129.532301
 20
30.118990
 30
0.0
 10
129.051301
 20
29.499997
 30
0.0
  0
LWPOLYLINE
  5
175
100
AcDbEntity
  8
0
 62
7
100
AcDbPolyline
 90
17
 70
1
 10
116.301401
 20
29.666579
 30
0.0
 10
116.096301
 20
30.365979
 30
0.0
 10
116.096301
 20
31.803989
 30
0.0
 10
116.310301
 20
31.803989
 30
0.0
 10
116.310301
 20
30.395003
 30
0.0
 10
116.465601
 20
29.819402
 30
0.0
 10
116.967301
 20
29.629987
 30
0.0
 10
117.417701
 20
29.756590
 30
0.0
 10
117.861301
 20
30.153994
 30
0.0
 10
117.861301
 20
31.803989
 30
0.0
 10
118.075301
 20
31.803989
 30
0.0
 10
118.075301
 20
29.499997
 30
0.0
 10
117.895301
 20
29.499997
 30
0.0
 10
117.871301
 20
29.942989
 30
0.0
 10
117.851301
 20
29.942989
 30
0.0
 10
117.438101
 20
29.579187
 30
0.0
 10
116.933301
 20
29.435995
 30
0.0
  0
LWPOLYLINE
  5
176
100
AcDbEntity
  8
0
 62
7
100
AcDbPolyline
 90
10
 70
1
 10
138.675700
 20
29.499997
 30
0.0
 10
138.675700
 20
29.615991
 30
0.0
 10
140.502701
 20
31.618992
 30
0.0
 10
138.869700
 20
31.618992
 30
0.0
 10
138.869700
 20
31.803989
 30
0.0
 10
140.828702
 20
31.803989
 30
0.0
 10
140.828702
 20
31.691991
 30
0.0
 10
139.000701
 20
29.688989
 30
0.0
 10
140.882701
 20
29.688989
 30
0.0
 10
140.882701
 20
29.499997
 30
0.0
  0
LWPOLYLINE
  5
177
100
AcDbEntity
  8
0
 62
7
100
AcDbPolyline
 90
23
 70
1
 10
126.231701
 20
29.499997
 30
0.0
 10
125.628701
 20
31.803989
 30
0.0
 10
125.856701
 20
31.803989
 30
0.0
 10
126.307401
 20
30.000589
 30
0.0
 10
126.372701
 20
29.698990
 30
0.0
 10
126.391701
 20
29.698990
 30
0.0
 10
126.547701
 20
30.305998
 30
0.0
 10
126.921701
 20
31.746998
 30
0.0
 10
127.159701
 20
31.746998
 30
0.0
 10
127.534701
 20
30.312004
 30
0.0
 10
127.689701
 20
29.698990
 30
0.0
 10
127.709701
 20
29.698990
 30
0.0
 10
127.854701
 20
30.312004
 30
0.0
 10
128.224701
 20
31.803989
 30
0.0
 10
128.438701
 20
31.803989
 30
0.0
 10
127.845701
 20
29.499997
 30
0.0
 10
127.568701
 20
29.499997
 30
0.0
 10
127.198701
 20
30.898003
 30
0.0
 10
127.123001
 20
31.221085
 30
0.0
 10
127.043701
 20
31.548005
 30
0.0
 10
127.023701
 20
31.548005
 30
0.0
 10
126.951801
 20
31.228679
 30
0.0
 10
126.508701
 20
29.499997
 30
0.0
  0
LWPOLYLINE
  5
178
100
AcDbEntity
  8
0
 62
7
100
AcDbPolyline
 90
24
 70
1
 10
135.500002
 20
21.500003
 30
0.0
 10
135.500002
 20
28.500005
 30
0.0
 10
135.814501
 20
28.500005
 30
0.0
 10
135.861102
 20
28.649997
 30
0.0
 10
135.965700
 20
28.622983
 30
0.0
 10
136.089102
 20
28.611077
 30
0.0
 10
136.535702
 20
28.786284
 30
0.0
 10
136.818100
 20
29.227000
 30
0.0
 10
136.901100
 20
29.430994
 30
0.0
 10
135.768101
 20
31.803989
 30
0.0
 10
135.992100
 20
31.803989
 30
0.0
 10
136.672100
 20
30.337986
 30
0.0
 10
136.825400
 20
30.016094
 30
0.0
 10
136.993101
 20
29.682983
 30
0.0
 10
137.013103
 20
29.682983
 30
0.0
 10
137.152401
 20
30.014189
 30
0.0
 10
137.285100
 20
30.337986
 30
0.0
 10
137.893102
 20
31.803989
 30
0.0
 10
138.102102
 20
31.803989
 30
0.0
 10
137.003102
 20
29.183000
 30
0.0
 10
136.676702
 20
28.651981
 30
0.0
 10
136.301300
 20
28.500005
 30
0.0
 10
144.000000
 20
28.500005
 30
0.0
 10
144.000000
 20
21.500003
 30
0.0
  0
LWPOLYLINE
  5
179
100
AcDbEntity
  8
0
 62
7
100
AcDbPolyline
 90
4
 70
1
 10
151.536702
 20
31.035983
 30
0.0
 10
151.536702
 20
31.220001
 30
0.0
 10
153.529702
 20
31.220001
 30
0.0
 10
153.529702
 20
31.035983
 30
0.0
  0
LWPOLYLINE
  5
17a
100
AcDbEntity
  8
0
 62
7
100
AcDbPolyline
 90
4
 70
1
 10
154.385301
 20
31.035983
 30
0.0
 10
154.385301
 20
31.220001
 30
0.0
 10
156.378301
 20
31.220001
 30
0.0
 10
156.378301
 20
31.035983
 30
0.0
  0
LWPOLYLINE
  5
17b
100
AcDbEntity
  8
0
 62
7
100
AcDbPolyline
 90
4
 70
1
 10
122.750001
 20
21.500003
 30
0.0
 10
122.750001
 20
28.500005
 30
0.0
 10
131.250002
 20
28.500005
 30
0.0
 10
131.250002
 20
21.500003
 30
0.0
  0
LWPOLYLINE
  5
17c
100
AcDbEntity
  8
0
 62
7
100
AcDbPolyline
 90
4
 70
1
 10
110.000001
 20
21.500003
 30
0.0
 10
110.000001
 20
28.500005
 30
0.0
 10
118.500001
 20
28.500005
 30
0.0
 10
118.500001
 20
21.500003
 30
0.0
  0
LWPOLYLINE
  5
17d
100
AcDbEntity
  8
0
 62
7
100
AcDbPolyline
 90
4
 70
1
 10
148.250000
 20
21.500003
 30
0.0
 10
148.250000
 20
28.500005
 30
0.0
 10
156.750001
 20
28.500005
 30
0.0
 10
156.750001
 20
21.500003
 30
0.0
  0
LWPOLYLINE
  5
17e
100
AcDbEntity
  8
0
 62
7
100
AcDbPolyline
 90
4
 70
1
 10
128.978301
 20
16.225984
 30
0.0
 10
130.567300
 20
20.455983
 30
0.0
 10
130.786301
 20
20.455983
 30
0.0
 10
129.196301
 20
16.225984
 30
0.0
  0
LWPOLYLINE
  5
17f
100
AcDbEntity
  8
0
 62
7
100
AcDbPolyline
 90
6
 70
1
 10
117.550301
 20
18.855995
 30
0.0
 10
117.453301
 20
19.914990
 30
0.0
 10
117.453301
 20
20.347980
 30
0.0
 10
117.822301
 20
20.347980
 30
0.0
 10
117.822301
 20
19.914990
 30
0.0
 10
117.725301
 20
18.855995
 30
0.0
  0
LWPOLYLINE
  5
180
100
AcDbEntity
  8
0
 62
7
100
AcDbPolyline
 90
6
 70
1
 10
116.539301
 20
18.855995
 30
0.0
 10
116.442301
 20
19.914990
 30
0.0
 10
116.442301
 20
20.347980
 30
0.0
 10
116.811301
 20
20.347980
 30
0.0
 10
116.811301
 20
19.914990
 30
0.0
 10
116.714301
 20
18.855995
 30
0.0
  0
LWPOLYLINE
  5
181
100
AcDbEntity
  8
0
 62
7
100
AcDbPolyline
 90
6
 70
1
 10
114.205701
 20
18.062986
 30
0.0
 10
114.181701
 20
19.917001
 30
0.0
 10
114.181701
 20
20.264002
 30
0.0
 10
114.385701
 20
20.264002
 30
0.0
 10
114.385701
 20
19.917001
 30
0.0
 10
114.361701
 20
18.062986
 30
0.0
  0
LWPOLYLINE
  5
182
100
AcDbEntity
  8
0
 62
7
100
AcDbPolyline
 90
18
 70
1
 10
138.772702
 20
16.999996
 30
0.0
 10
138.772702
 20
20.199999
 30
0.0
 10
139.005702
 20
20.199999
 30
0.0
 10
140.254702
 20
17.936991
 30
0.0
 10
140.600700
 20
17.305987
 30
0.0
 10
140.609696
 20
17.305987
 30
0.0
 10
140.591815
 20
17.769484
 30
0.0
 10
140.580689
 20
18.232981
 30
0.0
 10
140.580700
 20
20.199999
 30
0.0
 10
140.794700
 20
20.199999
 30
0.0
 10
140.794700
 20
16.999996
 30
0.0
 10
140.561700
 20
16.999996
 30
0.0
 10
139.311700
 20
19.261998
 30
0.0
 10
138.966702
 20
19.893003
 30
0.0
 10
138.956701
 20
19.893003
 30
0.0
 10
138.975407
 20
19.436994
 30
0.0
 10
138.986699
 20
18.980984
 30
0.0
 10
138.986702
 20
16.999996
 30
0.0
  0
LWPOLYLINE
  5
183
100
AcDbEntity
  8
0
 62
7
100
AcDbPolyline
 90
12
 70
1
 10
136.094100
 20
16.999996
 30
0.0
 10
136.094100
 20
20.199999
 30
0.0
 10
137.990101
 20
20.199999
 30
0.0
 10
137.990101
 20
20.005001
 30
0.0
 10
136.318101
 20
20.005001
 30
0.0
 10
136.318101
 20
18.794003
 30
0.0
 10
137.727100
 20
18.794003
 30
0.0
 10
137.727100
 20
18.599984
 30
0.0
 10
136.318101
 20
18.599984
 30
0.0
 10
136.318101
 20
17.193988
 30
0.0
 10
138.038102
 20
17.193988
 30
0.0
 10
138.038102
 20
16.999996
 30
0.0
  0
LWPOLYLINE
  5
184
100
AcDbEntity
  8
0
 62
7
100
AcDbPolyline
 90
8
 70
1
 10
142.520300
 20
16.999996
 30
0.0
 10
142.520300
 20
20.005001
 30
0.0
 10
141.407301
 20
20.005001
 30
0.0
 10
141.407301
 20
20.199999
 30
0.0
 10
143.857300
 20
20.199999
 30
0.0
 10
143.857300
 20
20.005001
 30
0.0
 10
142.744301
 20
20.005001
 30
0.0
 10
142.744301
 20
16.999996
 30
0.0
  0
LWPOLYLINE
  5
185
100
AcDbEntity
  8
0
 62
7
100
AcDbPolyline
 90
8
 70
1
 10
123.399101
 20
17.354590
 30
0.0
 10
123.120101
 20
18.526986
 30
0.0
 10
123.399101
 20
19.720389
 30
0.0
 10
124.185101
 20
20.135996
 30
0.0
 10
124.971101
 20
19.720389
 30
0.0
 10
125.250101
 20
18.526986
 30
0.0
 10
124.971101
 20
17.354590
 30
0.0
 10
124.185101
 20
16.935993
 30
0.0
  0
LWPOLYLINE
  5
186
100
AcDbEntity
  8
0
 62
7
100
AcDbPolyline
 90
8
 70
1
 10
124.799901
 20
17.476987
 30
0.0
 10
125.036101
 20
18.526986
 30
0.0
 10
124.799901
 20
19.594500
 30
0.0
 10
124.185101
 20
19.951000
 30
0.0
 10
123.569801
 20
19.594500
 30
0.0
 10
123.334101
 20
18.526986
 30
0.0
 10
123.569801
 20
17.476987
 30
0.0
 10
124.185101
 20
17.119984
 30
0.0
  0
LWPOLYLINE
  5
187
100
AcDbEntity
  8
0
 62
7
100
AcDbPolyline
 90
8
 70
1
 10
124.000601
 20
18.354583
 30
0.0
 10
123.918101
 20
18.570986
 30
0.0
 10
124.000601
 20
18.788182
 30
0.0
 10
124.185101
 20
18.862980
 30
0.0
 10
124.369601
 20
18.788182
 30
0.0
 10
124.452101
 20
18.570986
 30
0.0
 10
124.369601
 20
18.354583
 30
0.0
 10
124.185101
 20
18.279997
 30
0.0
  0
LWPOLYLINE
  5
188
100
AcDbEntity
  8
0
 62
7
100
AcDbPolyline
 90
8
 70
1
 10
154.468301
 20
17.512997
 30
0.0
 10
156.033301
 20
18.601995
 30
0.0
 10
156.033301
 20
18.621045
 30
0.0
 10
154.468301
 20
19.709991
 30
0.0
 10
154.468301
 20
19.943988
 30
0.0
 10
156.242300
 20
18.708993
 30
0.0
 10
156.242300
 20
18.513995
 30
0.0
 10
154.468301
 20
17.278999
 30
0.0
  0
LWPOLYLINE
  5
189
100
AcDbEntity
  8
0
 62
7
100
AcDbPolyline
 90
4
 70
1
 10
151.536702
 20
18.535982
 30
0.0
 10
151.536702
 20
18.719999
 30
0.0
 10
153.529702
 20
18.719999
 30
0.0
 10
153.529702
 20
18.535982
 30
0.0
  0
LWPOLYLINE
  5
18a
100
AcDbEntity
  8
0
 62
7
100
AcDbPolyline
 90
4
 70
1
 10
148.688102
 20
18.535982
 30
0.0
 10
148.688102
 20
18.719999
 30
0.0
 10
150.681100
 20
18.719999
 30
0.0
 10
150.681100
 20
18.535982
 30
0.0
  0
LWPOLYLINE
  5
18b
100
AcDbEntity
  8
0
 62
7
100
AcDbPolyline
 90
8
 70
1
 10
126.831101
 20
17.018887
 30
0.0
 10
126.741701
 20
17.250980
 30
0.0
 10
126.831101
 20
17.485903
 30
0.0
 10
127.033701
 20
17.566998
 30
0.0
 10
127.236301
 20
17.485903
 30
0.0
 10
127.325701
 20
17.250980
 30
0.0
 10
127.236301
 20
17.018887
 30
0.0
 10
127.033701
 20
16.935993
 30
0.0
  0
LWPOLYLINE
  5
18c
100
AcDbEntity
  8
0
 62
7
100
AcDbPolyline
 90
8
 70
1
 10
114.087901
 20
17.016400
 30
0.0
 10
114.001701
 20
17.242989
 30
0.0
 10
114.087901
 20
17.471192
 30
0.0
 10
114.283701
 20
17.548001
 30
0.0
 10
114.479401
 20
17.469684
 30
0.0
 10
114.565701
 20
17.242989
 30
0.0
 10
114.479401
 20
17.016400
 30
0.0
 10
114.283701
 20
16.935993
 30
0.0
  0
LWPOLYLINE
  5
18d
100
AcDbEntity
  8
0
 62
7
100
AcDbPolyline
 90
4
 70
1
 10
110.268051
 20
16.391983
 30
0.0
 10
110.268051
 20
16.615980
 30
0.0
 10
112.602051
 20
16.615980
 30
0.0
 10
112.602051
 20
16.391983
 30
0.0
  0
LWPOLYLINE
  5
18e
100
AcDbEntity
  8
0
 62
7
100
AcDbPolyline
 90
4
 70
1
 10
110.000001
 20
9.000001
 30
0.0
 10
110.000001
 20
16.000003
 30
0.0
 10
118.500001
 20
16.000003
 30
0.0
 10
118.500001
 20
9.000001
 30
0.0
  0
LWPOLYLINE
  5
18f
100
AcDbEntity
  8
0
 62
7
100
AcDbPolyline
 90
4
 70
1
 10
135.500002
 20
9.000001
 30
0.0
 10
135.500002
 20
16.000003
 30
0.0
 10
144.000000
 20
16.000003
 30
0.0
 10
144.000000
 20
9.000001
 30
0.0
  0
LWPOLYLINE
  5
190
100
AcDbEntity
  8
0
 62
7
100
AcDbPolyline
 90
4
 70
1
 10
122.750001
 20
9.000001
 30
0.0
 10
122.750001
 20
16.000003
 30
0.0
 10
131.250002
 20
16.000003
 30
0.0
 10
131.250002
 20
9.000001
 30
0.0
  0
LWPOLYLINE
  5
191
100
AcDbEntity
  8
0
 62
7
100
AcDbPolyline
 90
4
 70
1
 10
148.250000
 20
9.000001
 30
0.0
 10
148.250000
 20
16.000003
 30
0.0
 10
156.750001
 20
16.000003
 30
0.0
 10
156.750001
 20
9.000001
 30
0.0
  0
LWPOLYLINE
  5
192
100
AcDbEntity
  8
0
 62
7
100
AcDbPolyline
 90
4
 70
1
 10
58.000000
 20
125.999995
 30
0.0
 10
0.000000
 20
125.999995
 30
0.0
 10
0.000000
 20
62.999991
 30
0.0
 10
58.000000
 20
62.999991
 30
0.0
  0
LWPOLYLINE
  5
193
100
AcDbEntity
  8
0
 62
7
100
AcDbPolyline
 90
24
 70
1
 10
50.366300
 20
117.499996
 30
0.0
 10
50.366300
 20
120.699994
 30
0.0
 10
50.653299
 20
120.699994
 30
0.0
 10
51.187300
 20
119.215996
 30
0.0
 10
51.377300
 20
118.651994
 30
0.0
 10
51.396297
 20
118.651994
 30
0.0
 10
51.581299
 20
119.215996
 30
0.0
 10
52.111299
 20
120.699994
 30
0.0
 10
52.398300
 20
120.699994
 30
0.0
 10
52.398300
 20
117.499996
 30
0.0
 10
52.189301
 20
117.499996
 30
0.0
 10
52.189301
 20
119.741996
 30
0.0
 10
52.197609
 20
120.097495
 30
0.0
 10
52.213290
 20
120.455995
 30
0.0
 10
52.199305
 20
120.455995
 30
0.0
 10
52.014300
 20
119.886995
 30
0.0
 10
51.460299
 20
118.383995
 30
0.0
 10
51.304301
 20
118.383995
 30
0.0
 10
50.745300
 20
119.886995
 30
0.0
 10
50.551300
 20
120.455995
 30
0.0
 10
50.541298
 20
120.455995
 30
0.0
 10
50.559610
 20
120.097495
 30
0.0
 10
50.570289
 20
119.741996
 30
0.0
 10
50.570299
 20
117.499996
 30
0.0
  0
LWPOLYLINE
  5
194
100
AcDbEntity
  8
0
 62
7
100
AcDbPolyline
 90
12
 70
1
 10
47.595700
 20
117.499996
 30
0.0
 10
47.595700
 20
117.693996
 30
0.0
 10
48.421700
 20
117.693996
 30
0.0
 10
48.421700
 20
120.504996
 30
0.0
 10
47.595700
 20
120.504996
 30
0.0
 10
47.595700
 20
120.699994
 30
0.0
 10
49.471699
 20
120.699994
 30
0.0
 10
49.471699
 20
120.504996
 30
0.0
 10
48.645699
 20
120.504996
 30
0.0
 10
48.645699
 20
117.693996
 30
0.0
 10
49.471699
 20
117.693996
 30
0.0
 10
49.471699
 20
117.499996
 30
0.0
  0
LWPOLYLINE
  5
195
100
AcDbEntity
  8
0
 62
7
100
AcDbPolyline
 90
8
 70
1
 10
45.573101
 20
117.499996
 30
0.0
 10
45.573101
 20
120.504996
 30
0.0
 10
44.460099
 20
120.504996
 30
0.0
 10
44.460099
 20
120.699994
 30
0.0
 10
46.910101
 20
120.699994
 30
0.0
 10
46.910101
 20
120.504996
 30
0.0
 10
45.797100
 20
120.504996
 30
0.0
 10
45.797100
 20
117.499996
 30
0.0
  0
LWPOLYLINE
  5
196
100
AcDbEntity
  8
0
 62
7
100
AcDbPolyline
 90
4
 70
1
 10
6.000000
 20
109.499996
 30
0.0
 10
6.000000
 20
116.499995
 30
0.0
 10
14.500000
 20
116.499995
 30
0.0
 10
14.500000
 20
109.499996
 30
0.0
  0
LWPOLYLINE
  5
197
100
AcDbEntity
  8
0
 62
7
100
AcDbPolyline
 90
4
 70
1
 10
44.249999
 20
109.499996
 30
0.0
 10
44.249999
 20
116.499995
 30
0.0
 10
52.750000
 20
116.499995
 30
0.0
 10
52.750000
 20
109.499996
 30
0.0
  0
LWPOLYLINE
  5
198
100
AcDbEntity
  8
0
 62
7
100
AcDbPolyline
 90
4
 70
1
 10
31.500001
 20
109.499996
 30
0.0
 10
31.500001
 20
116.499995
 30
0.0
 10
39.999999
 20
116.499995
 30
0.0
 10
39.999999
 20
109.499996
 30
0.0
  0
LWPOLYLINE
  5
199
100
AcDbEntity
  8
0
 62
7
100
AcDbPolyline
 90
4
 70
1
 10
18.750000
 20
109.499996
 30
0.0
 10
18.750000
 20
116.499995
 30
0.0
 10
27.250001
 20
116.499995
 30
0.0
 10
27.250001
 20
109.499996
 30
0.0
  0
LWPOLYLINE
  5
19a
100
AcDbEntity
  8
0
 62
7
100
AcDbPolyline
 90
24
 70
1
 10
50.366300
 20
104.999995
 30
0.0
 10
50.366300
 20
108.199995
 30
0.0
 10
50.653299
 20
108.199995
 30
0.0
 10
51.187300
 20
106.715995
 30
0.0
 10
51.377300
 20
106.151996
 30
0.0
 10
51.396297
 20
106.151996
 30
0.0
 10
51.581299
 20
106.715995
 30
0.0
 10
52.111299
 20
108.199995
 30
0.0
 10
52.398300
 20
108.199995
 30
0.0
 10
52.398300
 20
104.999995
 30
0.0
 10
52.189301
 20
104.999995
 30
0.0
 10
52.189301
 20
107.241994
 30
0.0
 10
52.197609
 20
107.597494
 30
0.0
 10
52.213290
 20
107.955996
 30
0.0
 10
52.199305
 20
107.955996
 30
0.0
 10
52.014300
 20
107.386997
 30
0.0
 10
51.460299
 20
105.883994
 30
0.0
 10
51.304301
 20
105.883994
 30
0.0
 10
50.745300
 20
107.386997
 30
0.0
 10
50.551300
 20
107.955996
 30
0.0
 10
50.541298
 20
107.955996
 30
0.0
 10
50.559610
 20
107.597494
 30
0.0
 10
50.570289
 20
107.241994
 30
0.0
 10
50.570299
 20
104.999995
 30
0.0
  0
LWPOLYLINE
  5
19b
100
AcDbEntity
  8
0
 62
7
100
AcDbPolyline
 90
6
 70
1
 10
47.804700
 20
104.999995
 30
0.0
 10
47.804700
 20
108.199995
 30
0.0
 10
48.018700
 20
108.199995
 30
0.0
 10
48.018700
 20
105.193995
 30
0.0
 10
49.695701
 20
105.193995
 30
0.0
 10
49.695701
 20
104.999995
 30
0.0
  0
LWPOLYLINE
  5
19c
100
AcDbEntity
  8
0
 62
7
100
AcDbPolyline
 90
8
 70
1
 10
44.445100
 20
104.999995
 30
0.0
 10
45.573101
 20
108.199995
 30
0.0
 10
45.797100
 20
108.199995
 30
0.0
 10
46.925100
 20
104.999995
 30
0.0
 10
46.686100
 20
104.999995
 30
0.0
 10
46.317101
 20
106.089996
 30
0.0
 10
45.048099
 20
106.089996
 30
0.0
 10
44.669099
 20
104.999995
 30
0.0
  0
LWPOLYLINE
  5
19d
100
AcDbEntity
  8
0
 62
7
100
AcDbPolyline
 90
8
 70
1
 10
46.049099
 20
106.878997
 30
0.0
 10
45.864600
 20
107.429195
 30
0.0
 10
45.695100
 20
107.989995
 30
0.0
 10
45.675098
 20
107.989995
 30
0.0
 10
45.503200
 20
107.429195
 30
0.0
 10
45.320101
 20
106.878997
 30
0.0
 10
45.116099
 20
106.279996
 30
0.0
 10
46.254101
 20
106.279996
 30
0.0
  0
LWPOLYLINE
  5
19e
100
AcDbEntity
  8
0
 62
7
100
AcDbPolyline
 90
4
 70
1
 10
44.249999
 20
96.999995
 30
0.0
 10
44.249999
 20
103.999997
 30
0.0
 10
52.750000
 20
103.999997
 30
0.0
 10
52.750000
 20
96.999995
 30
0.0
  0
LWPOLYLINE
  5
19f
100
AcDbEntity
  8
0
 62
7
100
AcDbPolyline
 90
4
 70
1
 10
6.000000
 20
96.999995
 30
0.0
 10
6.000000
 20
103.999997
 30
0.0
 10
14.500000
 20
103.999997
 30
0.0
 10
14.500000
 20
96.999995
 30
0.0
  0
LWPOLYLINE
  5
1a0
100
AcDbEntity
  8
0
 62
7
100
AcDbPolyline
 90
4
 70
1
 10
31.500001
 20
96.999995
 30
0.0
 10
31.500001
 20
103.999997
 30
0.0
 10
39.999999
 20
103.999997
 30
0.0
 10
39.999999
 20
96.999995
 30
0.0
  0
LWPOLYLINE
  5
1a1
100
AcDbEntity
  8
0
 62
7
100
AcDbPolyline
 90
4
 70
1
 10
18.750000
 20
96.999995
 30
0.0
 10
18.750000
 20
103.999997
 30
0.0
 10
27.250001
 20
103.999997
 30
0.0
 10
27.250001
 20
96.999995
 30
0.0
  0
LWPOLYLINE
  5
1a2
100
AcDbEntity
  8
0
 62
7
100
AcDbPolyline
 90
18
 70
1
 10
44.953100
 20
92.887483
 30
0.0
 10
44.577101
 20
94.107001
 30
0.0
 10
44.956701
 20
95.317205
 30
0.0
 10
45.952100
 20
95.763996
 30
0.0
 10
46.441199
 20
95.646495
 30
0.0
 10
46.784099
 20
95.378985
 30
0.0
 10
46.647100
 20
95.232988
 30
0.0
 10
46.345300
 20
95.469094
 30
0.0
 10
45.952100
 20
95.558994
 30
0.0
 10
45.116700
 20
95.167504
 30
0.0
 10
44.810101
 20
94.107001
 30
0.0
 10
45.114901
 20
93.038984
 30
0.0
 10
45.938099
 20
92.639992
 30
0.0
 10
46.373201
 20
92.738391
 30
0.0
 10
46.740101
 20
93.033983
 30
0.0
 10
46.871099
 20
92.892987
 30
0.0
 10
46.460799
 20
92.558686
 30
0.0
 10
45.923099
 20
92.435998
 30
0.0
  0
LWPOLYLINE
  5
1a3
100
AcDbEntity
  8
0
 62
7
100
AcDbPolyline
 90
28
 70
1
 10
42.228101
 20
92.570698
 30
0.0
 10
41.747400
 20
92.916984
 30
0.0
 10
41.893400
 20
93.072983
 30
0.0
 10
42.330301
 20
92.757890
 30
0.0
 10
42.880399
 20
92.639992
 30
0.0
 10
43.498400
 20
92.818983
 30
0.0
 10
43.726399
 20
93.282982
 30
0.0
 10
43.540299
 20
93.716185
 30
0.0
 10
43.098400
 20
93.956003
 30
0.0
 10
42.612400
 20
94.174999
 30
0.0
 10
42.153901
 20
94.441408
 30
0.0
 10
41.917400
 20
94.973987
 30
0.0
 10
42.196300
 20
95.542596
 30
0.0
 10
42.894401
 20
95.763996
 30
0.0
 10
43.440900
 20
95.649895
 30
0.0
 10
43.837400
 20
95.378985
 30
0.0
 10
43.706399
 20
95.227987
 30
0.0
 10
43.353699
 20
95.468496
 30
0.0
 10
42.894401
 20
95.558994
 30
0.0
 10
42.348401
 20
95.403089
 30
0.0
 10
42.141399
 20
94.983989
 30
0.0
 10
42.348100
 20
94.575895
 30
0.0
 10
42.744401
 20
94.364996
 30
0.0
 10
43.225400
 20
94.151001
 30
0.0
 10
43.731400
 20
93.848582
 30
0.0
 10
43.949400
 20
93.297984
 30
0.0
 10
43.657200
 20
92.682087
 30
0.0
 10
42.880399
 20
92.435998
 30
0.0
  0
LWPOLYLINE
  5
1a4
100
AcDbEntity
  8
0
 62
7
100
AcDbPolyline
 90
6
 70
1
 10
50.653299
 20
92.500001
 30
0.0
 10
50.653299
 20
95.699996
 30
0.0
 10
50.867299
 20
95.699996
 30
0.0
 10
50.867299
 20
92.693994
 30
0.0
 10
52.544300
 20
92.693994
 30
0.0
 10
52.544300
 20
92.500001
 30
0.0
  0
LWPOLYLINE
  5
1a5
100
AcDbEntity
  8
0
 62
7
100
AcDbPolyline
 90
12
 70
1
 10
53.389900
 20
92.500001
 30
0.0
 10
53.389900
 20
95.699996
 30
0.0
 10
55.285899
 20
95.699996
 30
0.0
 10
55.285899
 20
95.504996
 30
0.0
 10
53.613899
 20
95.504996
 30
0.0
 10
53.613899
 20
94.293982
 30
0.0
 10
55.022901
 20
94.293982
 30
0.0
 10
55.022901
 20
94.099989
 30
0.0
 10
53.613899
 20
94.099989
 30
0.0
 10
53.613899
 20
92.693994
 30
0.0
 10
55.333900
 20
92.693994
 30
0.0
 10
55.333900
 20
92.500001
 30
0.0
  0
LWPOLYLINE
  5
1a6
100
AcDbEntity
  8
0
 62
7
100
AcDbPolyline
 90
8
 70
1
 10
47.293699
 20
92.500001
 30
0.0
 10
48.421700
 20
95.699996
 30
0.0
 10
48.645699
 20
95.699996
 30
0.0
 10
49.773700
 20
92.500001
 30
0.0
 10
49.534699
 20
92.500001
 30
0.0
 10
49.165700
 20
93.590005
 30
0.0
 10
47.896701
 20
93.590005
 30
0.0
 10
47.517701
 20
92.500001
 30
0.0
  0
LWPOLYLINE
  5
1a7
100
AcDbEntity
  8
0
 62
7
100
AcDbPolyline
 90
8
 70
1
 10
48.897699
 20
94.378992
 30
0.0
 10
48.713200
 20
94.929194
 30
0.0
 10
48.543699
 20
95.489994
 30
0.0
 10
48.523697
 20
95.489994
 30
0.0
 10
48.351800
 20
94.929194
 30
0.0
 10
48.168700
 20
94.378992
 30
0.0
 10
47.964701
 20
93.780002
 30
0.0
 10
49.102701
 20
93.780002
 30
0.0
  0
LWPOLYLINE
  5
1a8
100
AcDbEntity
  8
0
 62
7
100
AcDbPolyline
 90
4
 70
1
 10
6.000000
 20
84.500006
 30
0.0
 10
6.000000
 20
91.500008
 30
0.0
 10
14.500000
 20
91.500008
 30
0.0
 10
14.500000
 20
84.500006
 30
0.0
  0
LWPOLYLINE
  5
1a9
100
AcDbEntity
  8
0
 62
7
100
AcDbPolyline
 90
4
 70
1
 10
44.249999
 20
84.500006
 30
0.0
 10
44.249999
 20
91.500008
 30
0.0
 10
52.750000
 20
91.500008
 30
0.0
 10
52.750000
 20
84.500006
 30
0.0
  0
LWPOLYLINE
  5
1aa
100
AcDbEntity
  8
0
 62
7
100
AcDbPolyline
 90
4
 70
1
 10
18.750000
 20
84.500006
 30
0.0
 10
18.750000
 20
91.500008
 30
0.0
 10
27.250001
 20
91.500008
 30
0.0
 10
27.250001
 20
84.500006
 30
0.0
  0
LWPOLYLINE
  5
1ab
100
AcDbEntity
  8
0
 62
7
100
AcDbPolyline
 90
4
 70
1
 10
31.500001
 20
84.500006
 30
0.0
 10
31.500001
 20
91.500008
 30
0.0
 10
39.999999
 20
91.500008
 30
0.0
 10
39.999999
 20
84.500006
 30
0.0
  0
LWPOLYLINE
  5
1ac
100
AcDbEntity
  8
0
 62
7
100
AcDbPolyline
 90
18
 70
1
 10
9.551700
 20
80.387482
 30
0.0
 10
9.175690
 20
81.606999
 30
0.0
 10
9.555310
 20
82.817204
 30
0.0
 10
10.550700
 20
83.264005
 30
0.0
 10
11.039800
 20
83.146504
 30
0.0
 10
11.382700
 20
82.878984
 30
0.0
 10
11.245700
 20
82.732987
 30
0.0
 10
10.943900
 20
82.969101
 30
0.0
 10
10.550700
 20
83.059006
 30
0.0
 10
9.715320
 20
82.667502
 30
0.0
 10
9.408690
 20
81.606999
 30
0.0
 10
9.713560
 20
80.538982
 30
0.0
 10
10.536700
 20
80.139991
 30
0.0
 10
10.971800
 20
80.238389
 30
0.0
 10
11.338700
 20
80.534008
 30
0.0
 10
11.469700
 20
80.392985
 30
0.0
 10
11.059400
 20
80.058684
 30
0.0
 10
10.521700
 20
79.935997
 30
0.0
  0
LWPOLYLINE
  5
1ad
100
AcDbEntity
  8
0
 62
7
100
AcDbPolyline
 90
18
 70
1
 10
44.953100
 20
80.387482
 30
0.0
 10
44.577101
 20
81.606999
 30
0.0
 10
44.956701
 20
82.817204
 30
0.0
 10
45.952100
 20
83.264005
 30
0.0
 10
46.441199
 20
83.146504
 30
0.0
 10
46.784099
 20
82.878984
 30
0.0
 10
46.647100
 20
82.732987
 30
0.0
 10
46.345300
 20
82.969101
 30
0.0
 10
45.952100
 20
83.059006
 30
0.0
 10
45.116700
 20
82.667502
 30
0.0
 10
44.810101
 20
81.606999
 30
0.0
 10
45.114901
 20
80.538982
 30
0.0
 10
45.938099
 20
80.139991
 30
0.0
 10
46.373201
 20
80.238389
 30
0.0
 10
46.740101
 20
80.534008
 30
0.0
 10
46.871099
 20
80.392985
 30
0.0
 10
46.460799
 20
80.058684
 30
0.0
 10
45.923099
 20
79.935997
 30
0.0
  0
LWPOLYLINE
  5
1ae
100
AcDbEntity
  8
0
 62
7
100
AcDbPolyline
 90
8
 70
1
 10
47.293699
 20
80.000000
 30
0.0
 10
48.421700
 20
83.200003
 30
0.0
 10
48.645699
 20
83.200003
 30
0.0
 10
49.773700
 20
80.000000
 30
0.0
 10
49.534699
 20
80.000000
 30
0.0
 10
49.165700
 20
81.090004
 30
0.0
 10
47.896701
 20
81.090004
 30
0.0
 10
47.517701
 20
80.000000
 30
0.0
  0
LWPOLYLINE
  5
1af
100
AcDbEntity
  8
0
 62
7
100
AcDbPolyline
 90
8
 70
1
 10
48.897699
 20
81.878991
 30
0.0
 10
48.713200
 20
82.429192
 30
0.0
 10
48.543699
 20
82.990003
 30
0.0
 10
48.523697
 20
82.990003
 30
0.0
 10
48.351800
 20
82.429192
 30
0.0
 10
48.168700
 20
81.878991
 30
0.0
 10
47.964701
 20
81.280001
 30
0.0
 10
49.102701
 20
81.280001
 30
0.0
  0
LWPOLYLINE
  5
1b0
100
AcDbEntity
  8
0
 62
7
100
AcDbPolyline
 90
6
 70
1
 10
50.653299
 20
80.000000
 30
0.0
 10
50.653299
 20
83.200003
 30
0.0
 10
50.867299
 20
83.200003
 30
0.0
 10
50.867299
 20
80.193992
 30
0.0
 10
52.544300
 20
80.193992
 30
0.0
 10
52.544300
 20
80.000000
 30
0.0
  0
LWPOLYLINE
  5
1b1
100
AcDbEntity
  8
0
 62
7
100
AcDbPolyline
 90
8
 70
1
 10
35.581101
 20
80.018891
 30
0.0
 10
35.491700
 20
80.250983
 30
0.0
 10
35.581101
 20
80.485907
 30
0.0
 10
35.783700
 20
80.567002
 30
0.0
 10
35.986299
 20
80.485907
 30
0.0
 10
36.075699
 20
80.250983
 30
0.0
 10
35.986299
 20
80.018891
 30
0.0
 10
35.783700
 20
79.935997
 30
0.0
  0
LWPOLYLINE
  5
1b2
100
AcDbEntity
  8
0
 62
7
100
AcDbPolyline
 90
4
 70
1
 10
6.000000
 20
72.000005
 30
0.0
 10
6.000000
 20
79.000007
 30
0.0
 10
14.500000
 20
79.000007
 30
0.0
 10
14.500000
 20
72.000005
 30
0.0
  0
LWPOLYLINE
  5
1b3
100
AcDbEntity
  8
0
 62
7
100
AcDbPolyline
 90
4
 70
1
 10
18.750000
 20
72.000005
 30
0.0
 10
18.750000
 20
79.000007
 30
0.0
 10
27.250001
 20
79.000007
 30
0.0
 10
27.250001
 20
72.000005
 30
0.0
  0
LWPOLYLINE
  5
1b4
100
AcDbEntity
  8
0
 62
7
100
AcDbPolyline
 90
4
 70
1
 10
31.500001
 20
72.000005
 30
0.0
 10
31.500001
 20
79.000007
 30
0.0
 10
39.999999
 20
79.000007
 30
0.0
 10
39.999999
 20
72.000005
 30
0.0
  0
LWPOLYLINE
  5
1b5
100
AcDbEntity
  8
0
 62
7
100
AcDbPolyline
 90
4
 70
1
 10
44.249999
 20
72.000005
 30
0.0
 10
44.249999
 20
79.000007
 30
0.0
 10
52.750000
 20
79.000007
 30
0.0
 10
52.750000
 20
72.000005
 30
0.0
  0
ENDSEC
  0
SECTION
  2
OBJECTS
  0
DICTIONARY
  5
C
330
0
100
AcDbDictionary
  3
ACAD_GROUP
350
D
  3
ACAD_MLINESTYLE
350
17
  0
DICTIONARY
  5
D
330
C
100
AcDbDictionary
  0
DICTIONARY
  5
1A
330
C
100
AcDbDictionary
  0
DICTIONARY
  5
17
330
C
100
AcDbDictionary
  3
STANDARD
350
18
  0
DICTIONARY
  5
19
330
C
100
AcDbDictionary
  0
ENDSEC
  0
EOF
