  0
SECTION
  2
BLOCKS
  0
ENDSEC
  0
SECTION
  2
ENTITIES
  0
LINE
  8
0
 10
58
 20
63
 11
0
 21
63
  0
LINE
  8
0
 10
0
 20
63
 11
0
 21
0
  0
LINE
  8
0
 10
0
 20
0
 11
58
 21
0
  0
LINE
  8
0
 10
58
 20
0
 11
58
 21
63
  0
LINE
  8
0
 10
25.6003
 20
54.5
 11
25.6003
 21
56.542
  0
LINE
  8
0
 10
25.6003
 20
56.542
 11
24.9243
 21
56.542
  0
LINE
  8
0
 10
24.9243
 20
56.542
 11
24.9243
 21
56.843
  0
LINE
  8
0
 10
24.9243
 20
56.843
 11
25.6003
 21
56.868
  0
LINE
  8
0
 10
25.6003
 20
56.868
 11
25.6003
 21
57.066
  0
LINE
  8
0
 10
25.6003
 20
57.066
 11
25.8323
 21
57.7586
  0
LINE
  8
0
 10
25.8323
 20
57.7586
 11
26.5533
 21
58.02
  0
LINE
  8
0
 10
26.5533
 20
58.02
 11
26.8971
 21
57.9864
  0
LINE
  8
0
 10
26.8971
 20
57.9864
 11
27.2333
 21
57.883
  0
LINE
  8
0
 10
27.2333
 20
57.883
 11
27.1413
 21
57.583
  0
LINE
  8
0
 10
27.1413
 20
57.583
 11
26.8706
 21
57.6711
  0
LINE
  8
0
 10
26.8706
 20
57.6711
 11
26.5923
 21
57.694
  0
LINE
  8
0
 10
26.5923
 20
57.694
 11
26.1347
 21
57.5302
  0
LINE
  8
0
 10
26.1347
 20
57.5302
 11
25.9943
 21
57.08
  0
LINE
  8
0
 10
25.9943
 20
57.08
 11
25.9943
 21
56.868
  0
LINE
  8
0
 10
25.9943
 20
56.868
 11
26.9853
 21
56.868
  0
LINE
  8
0
 10
26.9853
 20
56.868
 11
26.9853
 21
56.542
  0
LINE
  8
0
 10
26.9853
 20
56.542
 11
25.9943
 21
56.542
  0
LINE
  8
0
 10
25.9943
 20
56.542
 11
25.9943
 21
54.5
  0
LINE
  8
0
 10
25.9943
 20
54.5
 11
25.6003
 21
54.5
  0
LINE
  8
0
 10
10.0122
 20
54.5214
 11
9.6467
 21
54.756
  0
LINE
  8
0
 10
9.6467
 20
54.756
 11
9.6317
 21
54.756
  0
LINE
  8
0
 10
9.6317
 20
54.756
 11
9.59769
 21
54.5
  0
LINE
  8
0
 10
9.59769
 20
54.5
 11
9.27769
 21
54.5
  0
LINE
  8
0
 10
9.27769
 20
54.5
 11
9.27769
 21
57.956
  0
LINE
  8
0
 10
9.27769
 20
57.956
 11
9.67569
 21
57.956
  0
LINE
  8
0
 10
9.67569
 20
57.956
 11
9.67569
 21
57.027
  0
LINE
  8
0
 10
9.67569
 20
57.027
 11
9.66669
 21
56.572
  0
LINE
  8
0
 10
9.66669
 20
56.572
 11
10.0474
 21
56.8341
  0
LINE
  8
0
 10
10.0474
 20
56.8341
 11
10.4687
 21
56.932
  0
LINE
  8
0
 10
10.4687
 20
56.932
 11
11.1982
 21
56.6035
  0
LINE
  8
0
 10
11.1982
 20
56.6035
 11
11.4507
 21
55.723
  0
LINE
  8
0
 10
11.4507
 20
55.723
 11
11.1272
 21
54.7739
  0
LINE
  8
0
 10
11.1272
 20
54.7739
 11
10.3807
 21
54.436
  0
LINE
  8
0
 10
10.3807
 20
54.436
 11
10.0122
 21
54.5214
  0
LINE
  8
0
 10
10.832
 20
55.0236
 11
11.0367
 21
55.718
  0
LINE
  8
0
 10
11.0367
 20
55.718
 11
10.8807
 21
56.3539
  0
LINE
  8
0
 10
10.8807
 20
56.3539
 11
10.3707
 21
56.596
  0
LINE
  8
0
 10
10.3707
 20
56.596
 11
10.0359
 21
56.5089
  0
LINE
  8
0
 10
10.0359
 20
56.5089
 11
9.67569
 21
56.238
  0
LINE
  8
0
 10
9.67569
 20
56.238
 11
9.67569
 21
55.051
  0
LINE
  8
0
 10
9.67569
 20
55.051
 11
10.0169
 21
54.8352
  0
LINE
  8
0
 10
10.0169
 20
54.8352
 11
10.3177
 21
54.771
  0
LINE
  8
0
 10
10.3177
 20
54.771
 11
10.832
 21
55.0236
  0
LINE
  8
0
 10
38.6358
 20
57.422
 11
38.5443
 21
57.644
  0
LINE
  8
0
 10
38.5443
 20
57.644
 11
38.6358
 21
57.8712
  0
LINE
  8
0
 10
38.6358
 20
57.8712
 11
38.8653
 21
57.956
  0
LINE
  8
0
 10
38.8653
 20
57.956
 11
39.0933
 21
57.8712
  0
LINE
  8
0
 10
39.0933
 20
57.8712
 11
39.1863
 21
57.644
  0
LINE
  8
0
 10
39.1863
 20
57.644
 11
39.0933
 21
57.422
  0
LINE
  8
0
 10
39.0933
 20
57.422
 11
38.8653
 21
57.338
  0
LINE
  8
0
 10
38.8653
 20
57.338
 11
38.6358
 21
57.422
  0
LINE
  8
0
 10
34.7777
 20
54.5
 11
34.7777
 21
57.956
  0
LINE
  8
0
 10
34.7777
 20
57.956
 11
35.1757
 21
57.956
  0
LINE
  8
0
 10
35.1757
 20
57.956
 11
35.1757
 21
57.027
  0
LINE
  8
0
 10
35.1757
 20
57.027
 11
35.1567
 21
56.469
  0
LINE
  8
0
 10
35.1567
 20
56.469
 11
35.5602
 21
56.7991
  0
LINE
  8
0
 10
35.5602
 20
56.7991
 11
36.0507
 21
56.932
  0
LINE
  8
0
 10
36.0507
 20
56.932
 11
36.6688
 21
56.6884
  0
LINE
  8
0
 10
36.6688
 20
56.6884
 11
36.8677
 21
55.976
  0
LINE
  8
0
 10
36.8677
 20
55.976
 11
36.8677
 21
54.5
  0
LINE
  8
0
 10
36.8677
 20
54.5
 11
36.4687
 21
54.5
  0
LINE
  8
0
 10
36.4687
 20
54.5
 11
36.4687
 21
55.922
  0
LINE
  8
0
 10
36.4687
 20
55.922
 11
36.3425
 21
56.4224
  0
LINE
  8
0
 10
36.3425
 20
56.4224
 11
35.9247
 21
56.586
  0
LINE
  8
0
 10
35.9247
 20
56.586
 11
35.5483
 21
56.4794
  0
LINE
  8
0
 10
35.5483
 20
56.4794
 11
35.1757
 21
56.156
  0
LINE
  8
0
 10
35.1757
 20
56.156
 11
35.1757
 21
54.5
  0
LINE
  8
0
 10
35.1757
 20
54.5
 11
34.7777
 21
54.5
  0
LINE
  8
0
 10
19.2997
 20
54.7594
 11
19.0181
 21
55.679
  0
LINE
  8
0
 10
19.0181
 20
55.679
 11
19.3456
 21
56.5961
  0
LINE
  8
0
 10
19.3456
 20
56.5961
 11
20.0931
 21
56.932
  0
LINE
  8
0
 10
20.0931
 20
56.932
 11
20.4752
 21
56.8497
  0
LINE
  8
0
 10
20.4752
 20
56.8497
 11
20.8071
 21
56.625
  0
LINE
  8
0
 10
20.8071
 20
56.625
 11
20.7931
 21
57.061
  0
LINE
  8
0
 10
20.7931
 20
57.061
 11
20.7931
 21
57.956
  0
LINE
  8
0
 10
20.7931
 20
57.956
 11
21.1911
 21
57.956
  0
LINE
  8
0
 10
21.1911
 20
57.956
 11
21.1911
 21
54.5
  0
LINE
  8
0
 10
21.1911
 20
54.5
 11
20.8611
 21
54.5
  0
LINE
  8
0
 10
20.8611
 20
54.5
 11
20.8271
 21
54.805
  0
LINE
  8
0
 10
20.8271
 20
54.805
 11
20.8121
 21
54.805
  0
LINE
  8
0
 10
20.8121
 20
54.805
 11
20.4648
 21
54.5459
  0
LINE
  8
0
 10
20.4648
 20
54.5459
 11
20.0441
 21
54.436
  0
LINE
  8
0
 10
20.0441
 20
54.436
 11
19.2997
 21
54.7594
  0
LINE
  8
0
 10
20.4691
 20
54.8619
 11
20.7931
 21
55.129
  0
LINE
  8
0
 10
20.7931
 20
55.129
 11
20.7931
 21
56.316
  0
LINE
  8
0
 10
20.7931
 20
56.316
 11
20.4778
 21
56.5317
  0
LINE
  8
0
 10
20.4778
 20
56.5317
 11
20.1701
 21
56.596
  0
LINE
  8
0
 10
20.1701
 20
56.596
 11
19.6476
 21
56.3439
  0
LINE
  8
0
 10
19.6476
 20
56.3439
 11
19.4311
 21
55.683
  0
LINE
  8
0
 10
19.4311
 20
55.683
 11
19.6148
 21
55.0136
  0
LINE
  8
0
 10
19.6148
 20
55.0136
 11
20.1271
 21
54.771
  0
LINE
  8
0
 10
20.1271
 20
54.771
 11
20.4691
 21
54.8619
  0
LINE
  8
0
 10
43.6391
 20
54.564
 11
43.1277
 21
54.908
  0
LINE
  8
0
 10
43.1277
 20
54.908
 11
43.3707
 21
55.192
  0
LINE
  8
0
 10
43.3707
 20
55.192
 11
43.7882
 21
54.901
  0
LINE
  8
0
 10
43.7882
 20
54.901
 11
44.2897
 21
54.79
  0
LINE
  8
0
 10
44.2897
 20
54.79
 11
44.8142
 21
54.9347
  0
LINE
  8
0
 10
44.8142
 20
54.9347
 11
44.9997
 21
55.315
  0
LINE
  8
0
 10
44.9997
 20
55.315
 11
44.835
 21
55.6715
  0
LINE
  8
0
 10
44.835
 20
55.6715
 11
44.4257
 21
55.884
  0
LINE
  8
0
 10
44.4257
 20
55.884
 11
43.9687
 21
56.085
  0
LINE
  8
0
 10
43.9687
 20
56.085
 11
43.5034
 21
56.3705
  0
LINE
  8
0
 10
43.5034
 20
56.3705
 11
43.2787
 21
56.914
  0
LINE
  8
0
 10
43.2787
 20
56.914
 11
43.5732
 21
57.5227
  0
LINE
  8
0
 10
43.5732
 20
57.5227
 11
44.3237
 21
57.764
  0
LINE
  8
0
 10
44.3237
 20
57.764
 11
44.877
 21
57.6544
  0
LINE
  8
0
 10
44.877
 20
57.6544
 11
45.3057
 21
57.37
  0
LINE
  8
0
 10
45.3057
 20
57.37
 11
45.0917
 21
57.105
  0
LINE
  8
0
 10
45.0917
 20
57.105
 11
44.7479
 21
57.3267
  0
LINE
  8
0
 10
44.7479
 20
57.3267
 11
44.3237
 21
57.409
  0
LINE
  8
0
 10
44.3237
 20
57.409
 11
43.8637
 21
57.2819
  0
LINE
  8
0
 10
43.8637
 20
57.2819
 11
43.6917
 21
56.938
  0
LINE
  8
0
 10
43.6917
 20
56.938
 11
43.8742
 21
56.5971
  0
LINE
  8
0
 10
43.8742
 20
56.5971
 11
44.2607
 21
56.404
  0
LINE
  8
0
 10
44.2607
 20
56.404
 11
44.7077
 21
56.207
  0
LINE
  8
0
 10
44.7077
 20
56.207
 11
45.208
 21
55.8961
  0
LINE
  8
0
 10
45.208
 20
55.8961
 11
45.4127
 21
55.349
  0
LINE
  8
0
 10
45.4127
 20
55.349
 11
45.1112
 21
54.7012
  0
LINE
  8
0
 10
45.1112
 20
54.7012
 11
44.2847
 21
54.436
  0
LINE
  8
0
 10
44.2847
 20
54.436
 11
43.6391
 21
54.564
  0
LINE
  8
0
 10
46.0354
 20
54.5
 11
46.0354
 21
57.7
  0
LINE
  8
0
 10
46.0354
 20
57.7
 11
46.4434
 21
57.7
  0
LINE
  8
0
 10
46.4434
 20
57.7
 11
46.4434
 21
56.356
  0
LINE
  8
0
 10
46.4434
 20
56.356
 11
47.7754
 21
56.356
  0
LINE
  8
0
 10
47.7754
 20
56.356
 11
47.7754
 21
57.7
  0
LINE
  8
0
 10
47.7754
 20
57.7
 11
48.1834
 21
57.7
  0
LINE
  8
0
 10
48.1834
 20
57.7
 11
48.1834
 21
54.5
  0
LINE
  8
0
 10
48.1834
 20
54.5
 11
47.7754
 21
54.5
  0
LINE
  8
0
 10
47.7754
 20
54.5
 11
47.7754
 21
56.005
  0
LINE
  8
0
 10
47.7754
 20
56.005
 11
46.4434
 21
56.005
  0
LINE
  8
0
 10
46.4434
 20
56.005
 11
46.4434
 21
54.5
  0
LINE
  8
0
 10
46.4434
 20
54.5
 11
46.0354
 21
54.5
  0
LINE
  8
0
 10
49.156
 20
54.5
 11
49.156
 21
57.7
  0
LINE
  8
0
 10
49.156
 20
57.7
 11
51.105
 21
57.7
  0
LINE
  8
0
 10
51.105
 20
57.7
 11
51.105
 21
57.359
  0
LINE
  8
0
 10
51.105
 20
57.359
 11
49.559
 21
57.359
  0
LINE
  8
0
 10
49.559
 20
57.359
 11
49.559
 21
56.292
  0
LINE
  8
0
 10
49.559
 20
56.292
 11
50.867
 21
56.292
  0
LINE
  8
0
 10
50.867
 20
56.292
 11
50.867
 21
55.951
  0
LINE
  8
0
 10
50.867
 20
55.951
 11
49.559
 21
55.951
  0
LINE
  8
0
 10
49.559
 20
55.951
 11
49.559
 21
54.5
  0
LINE
  8
0
 10
49.559
 20
54.5
 11
49.156
 21
54.5
  0
LINE
  8
0
 10
52.6026
 20
54.5
 11
52.6026
 21
57.359
  0
LINE
  8
0
 10
52.6026
 20
57.359
 11
51.5526
 21
57.359
  0
LINE
  8
0
 10
51.5526
 20
57.359
 11
51.5526
 21
57.7
  0
LINE
  8
0
 10
51.5526
 20
57.7
 11
54.0606
 21
57.7
  0
LINE
  8
0
 10
54.0606
 20
57.7
 11
54.0606
 21
57.359
  0
LINE
  8
0
 10
54.0606
 20
57.359
 11
53.0106
 21
57.359
  0
LINE
  8
0
 10
53.0106
 20
57.359
 11
53.0106
 21
54.5
  0
LINE
  8
0
 10
53.0106
 20
54.5
 11
52.6026
 21
54.5
  0
LINE
  8
0
 10
6.6053
 20
54.6129
 11
6.37006
 21
55.11
  0
LINE
  8
0
 10
6.37006
 20
55.11
 11
6.76805
 21
55.7199
  0
LINE
  8
0
 10
6.76805
 20
55.7199
 11
8.08105
 21
56.005
  0
LINE
  8
0
 10
8.08105
 20
56.005
 11
7.93556
 21
56.4237
  0
LINE
  8
0
 10
7.93556
 20
56.4237
 11
7.45406
 21
56.601
  0
LINE
  8
0
 10
7.45406
 20
56.601
 11
7.00844
 21
56.5104
  0
LINE
  8
0
 10
7.00844
 20
56.5104
 11
6.62805
 21
56.317
  0
LINE
  8
0
 10
6.62805
 20
56.317
 11
6.47206
 21
56.591
  0
LINE
  8
0
 10
6.47206
 20
56.591
 11
6.93181
 21
56.82
  0
LINE
  8
0
 10
6.93181
 20
56.82
 11
7.52206
 21
56.932
  0
LINE
  8
0
 10
7.52206
 20
56.932
 11
8.24368
 21
56.6656
  0
LINE
  8
0
 10
8.24368
 20
56.6656
 11
8.48006
 21
55.956
  0
LINE
  8
0
 10
8.48006
 20
55.956
 11
8.48006
 21
54.5
  0
LINE
  8
0
 10
8.48006
 20
54.5
 11
8.15405
 21
54.5
  0
LINE
  8
0
 10
8.15405
 20
54.5
 11
8.12006
 21
54.815
  0
LINE
  8
0
 10
8.12006
 20
54.815
 11
8.10606
 21
54.815
  0
LINE
  8
0
 10
8.10606
 20
54.815
 11
7.66643
 21
54.549
  0
LINE
  8
0
 10
7.66643
 20
54.549
 11
7.17206
 21
54.436
  0
LINE
  8
0
 10
7.17206
 20
54.436
 11
6.6053
 21
54.6129
  0
LINE
  8
0
 10
7.68044
 20
54.8482
 11
8.08105
 21
55.11
  0
LINE
  8
0
 10
8.08105
 20
55.11
 11
8.08105
 21
55.738
  0
LINE
  8
0
 10
8.08105
 20
55.738
 11
7.04094
 21
55.5247
  0
LINE
  8
0
 10
7.04094
 20
55.5247
 11
6.75906
 21
55.139
  0
LINE
  8
0
 10
6.75906
 20
55.139
 11
6.91705
 21
54.8462
  0
LINE
  8
0
 10
6.91705
 20
54.8462
 11
7.27905
 21
54.756
  0
LINE
  8
0
 10
7.27905
 20
54.756
 11
7.68044
 21
54.8482
  0
LINE
  8
0
 10
12.4322
 20
54.7612
 11
12.0623
 21
55.679
  0
LINE
  8
0
 10
12.0623
 20
55.679
 11
12.4532
 21
56.6051
  0
LINE
  8
0
 10
12.4532
 20
56.6051
 11
13.3803
 21
56.932
  0
LINE
  8
0
 10
13.3803
 20
56.932
 11
13.8816
 21
56.8302
  0
LINE
  8
0
 10
13.8816
 20
56.8302
 11
14.2403
 21
56.586
  0
LINE
  8
0
 10
14.2403
 20
56.586
 11
14.0413
 21
56.326
  0
LINE
  8
0
 10
14.0413
 20
56.326
 11
13.7381
 21
56.528
  0
LINE
  8
0
 10
13.7381
 20
56.528
 11
13.3943
 21
56.601
  0
LINE
  8
0
 10
13.3943
 20
56.601
 11
12.7313
 21
56.3459
  0
LINE
  8
0
 10
12.7313
 20
56.3459
 11
12.4763
 21
55.679
  0
LINE
  8
0
 10
12.4763
 20
55.679
 11
12.7264
 21
55.0181
  0
LINE
  8
0
 10
12.7264
 20
55.0181
 11
13.3853
 21
54.766
  0
LINE
  8
0
 10
13.3853
 20
54.766
 11
13.7864
 21
54.8532
  0
LINE
  8
0
 10
13.7864
 20
54.8532
 11
14.1193
 21
55.065
  0
LINE
  8
0
 10
14.1193
 20
55.065
 11
14.2943
 21
54.805
  0
LINE
  8
0
 10
14.2943
 20
54.805
 11
13.8598
 21
54.5331
  0
LINE
  8
0
 10
13.8598
 20
54.5331
 11
13.3563
 21
54.436
  0
LINE
  8
0
 10
13.3563
 20
54.436
 11
12.4322
 21
54.7612
  0
LINE
  8
0
 10
31.5
 20
46.5
 11
31.5
 21
53.5
  0
LINE
  8
0
 10
31.5
 20
53.5
 11
32.4043
 21
53.5
  0
LINE
  8
0
 10
32.4043
 20
53.5
 11
32.1123
 21
53.5629
  0
LINE
  8
0
 10
32.1123
 20
53.5629
 11
31.8271
 21
54.056
  0
LINE
  8
0
 10
31.8271
 20
54.056
 11
31.9266
 21
54.3418
  0
LINE
  8
0
 10
31.9266
 20
54.3418
 11
32.2151
 21
54.593
  0
LINE
  8
0
 10
32.2151
 20
54.593
 11
32.2151
 21
54.613
  0
LINE
  8
0
 10
32.2151
 20
54.613
 11
32.0463
 21
54.7592
  0
LINE
  8
0
 10
32.0463
 20
54.7592
 11
31.9721
 21
55.006
  0
LINE
  8
0
 10
31.9721
 20
55.006
 11
32.0456
 21
55.2397
  0
LINE
  8
0
 10
32.0456
 20
55.2397
 11
32.2541
 21
55.451
  0
LINE
  8
0
 10
32.2541
 20
55.451
 11
32.2541
 21
55.47
  0
LINE
  8
0
 10
32.2541
 20
55.47
 11
32.0486
 21
55.7166
  0
LINE
  8
0
 10
32.0486
 20
55.7166
 11
31.9631
 21
56.084
  0
LINE
  8
0
 10
31.9631
 20
56.084
 11
32.2392
 21
56.7019
  0
LINE
  8
0
 10
32.2392
 20
56.7019
 11
32.8911
 21
56.932
  0
LINE
  8
0
 10
32.8911
 20
56.932
 11
33.0788
 21
56.9165
  0
LINE
  8
0
 10
33.0788
 20
56.9165
 11
33.2411
 21
56.868
  0
LINE
  8
0
 10
33.2411
 20
56.868
 11
34.2181
 21
56.868
  0
LINE
  8
0
 10
34.2181
 20
56.868
 11
34.2181
 21
56.561
  0
LINE
  8
0
 10
34.2181
 20
56.561
 11
33.5861
 21
56.561
  0
LINE
  8
0
 10
33.5861
 20
56.561
 11
33.7376
 21
56.3485
  0
LINE
  8
0
 10
33.7376
 20
56.3485
 11
33.8051
 21
56.067
  0
LINE
  8
0
 10
33.8051
 20
56.067
 11
33.5397
 21
55.4721
  0
LINE
  8
0
 10
33.5397
 20
55.4721
 11
32.8911
 21
55.256
  0
LINE
  8
0
 10
32.8911
 20
55.256
 11
32.6958
 21
55.2779
  0
LINE
  8
0
 10
32.6958
 20
55.2779
 11
32.4931
 21
55.344
  0
LINE
  8
0
 10
32.4931
 20
55.344
 11
32.3567
 21
55.2186
  0
LINE
  8
0
 10
32.3567
 20
55.2186
 11
32.3081
 21
55.058
  0
LINE
  8
0
 10
32.3081
 20
55.058
 11
32.4369
 21
54.8359
  0
LINE
  8
0
 10
32.4369
 20
54.8359
 11
32.7991
 21
54.766
  0
LINE
  8
0
 10
32.7991
 20
54.766
 11
33.3291
 21
54.766
  0
LINE
  8
0
 10
33.3291
 20
54.766
 11
34.0062
 21
54.6387
  0
LINE
  8
0
 10
34.0062
 20
54.6387
 11
34.2281
 21
54.213
  0
LINE
  8
0
 10
34.2281
 20
54.213
 11
33.8727
 21
53.6369
  0
LINE
  8
0
 10
33.8727
 20
53.6369
 11
33.3417
 21
53.5
  0
LINE
  8
0
 10
33.3417
 20
53.5
 11
40
 21
53.5
  0
LINE
  8
0
 10
40
 20
53.5
 11
40
 21
46.5
  0
LINE
  8
0
 10
40
 20
46.5
 11
31.5
 21
46.5
  0
LINE
  8
0
 10
33.2768
 20
55.6761
 11
33.4361
 21
56.084
  0
LINE
  8
0
 10
33.4361
 20
56.084
 11
33.2768
 21
56.4865
  0
LINE
  8
0
 10
33.2768
 20
56.4865
 11
32.8911
 21
56.64
  0
LINE
  8
0
 10
32.8911
 20
56.64
 11
32.5081
 21
56.4865
  0
LINE
  8
0
 10
32.5081
 20
56.4865
 11
32.3471
 21
56.084
  0
LINE
  8
0
 10
32.3471
 20
56.084
 11
32.5081
 21
55.6761
  0
LINE
  8
0
 10
32.5081
 20
55.6761
 11
32.8911
 21
55.524
  0
LINE
  8
0
 10
32.8911
 20
55.524
 11
33.2768
 21
55.6761
  0
LINE
  8
0
 10
33.5954
 20
53.8188
 11
33.8341
 21
54.151
  0
LINE
  8
0
 10
33.8341
 20
54.151
 11
33.6992
 21
54.3768
  0
LINE
  8
0
 10
33.6992
 20
54.3768
 11
33.2951
 21
54.436
  0
LINE
  8
0
 10
33.2951
 20
54.436
 11
32.8331
 21
54.436
  0
LINE
  8
0
 10
32.8331
 20
54.436
 11
32.6403
 21
54.4474
  0
LINE
  8
0
 10
32.6403
 20
54.4474
 11
32.4731
 21
54.5
  0
LINE
  8
0
 10
32.4731
 20
54.5
 11
32.2386
 21
54.3033
  0
LINE
  8
0
 10
32.2386
 20
54.3033
 11
32.1721
 21
54.096
  0
LINE
  8
0
 10
32.1721
 20
54.096
 11
32.3688
 21
53.7868
  0
LINE
  8
0
 10
32.3688
 20
53.7868
 11
32.9451
 21
53.668
  0
LINE
  8
0
 10
32.9451
 20
53.668
 11
33.5954
 21
53.8188
  0
LINE
  8
0
 10
22.2827
 20
54.7651
 11
21.9107
 21
55.68
  0
LINE
  8
0
 10
21.9107
 20
55.68
 11
22.2813
 21
56.5977
  0
LINE
  8
0
 10
22.2813
 20
56.5977
 11
23.1117
 21
56.932
  0
LINE
  8
0
 10
23.1117
 20
56.932
 11
23.9018
 21
56.626
  0
LINE
  8
0
 10
23.9018
 20
56.626
 11
24.1857
 21
55.816
  0
LINE
  8
0
 10
24.1857
 20
55.816
 11
24.1819
 21
55.6926
  0
LINE
  8
0
 10
24.1819
 20
55.6926
 11
24.1707
 21
55.588
  0
LINE
  8
0
 10
24.1707
 20
55.588
 11
22.3237
 21
55.588
  0
LINE
  8
0
 10
22.3237
 20
55.588
 11
22.5901
 21
54.9819
  0
LINE
  8
0
 10
22.5901
 20
54.9819
 11
23.2277
 21
54.756
  0
LINE
  8
0
 10
23.2277
 20
54.756
 11
23.6094
 21
54.8152
  0
LINE
  8
0
 10
23.6094
 20
54.8152
 11
23.9477
 21
54.978
  0
LINE
  8
0
 10
23.9477
 20
54.978
 11
24.0887
 21
54.713
  0
LINE
  8
0
 10
24.0887
 20
54.713
 11
23.6886
 21
54.5179
  0
LINE
  8
0
 10
23.6886
 20
54.5179
 11
23.1797
 21
54.436
  0
LINE
  8
0
 10
23.1797
 20
54.436
 11
22.2827
 21
54.7651
  0
LINE
  8
0
 10
23.6306
 20
56.4235
 11
23.1167
 21
56.616
  0
LINE
  8
0
 10
23.1167
 20
56.616
 11
22.5969
 21
56.4201
  0
LINE
  8
0
 10
22.5969
 20
56.4201
 11
22.3187
 21
55.874
  0
LINE
  8
0
 10
22.3187
 20
55.874
 11
23.8167
 21
55.874
  0
LINE
  8
0
 10
23.8167
 20
55.874
 11
23.6306
 21
56.4235
  0
LINE
  8
0
 10
38.7103
 20
54.5
 11
38.7103
 21
56.542
  0
LINE
  8
0
 10
38.7103
 20
56.542
 11
37.6113
 21
56.542
  0
LINE
  8
0
 10
37.6113
 20
56.542
 11
37.6113
 21
56.868
  0
LINE
  8
0
 10
37.6113
 20
56.868
 11
39.1083
 21
56.868
  0
LINE
  8
0
 10
39.1083
 20
56.868
 11
39.1083
 21
54.5
  0
LINE
  8
0
 10
39.1083
 20
54.5
 11
38.7103
 21
54.5
  0
LINE
  8
0
 10
44.25
 20
46.5
 11
44.25
 21
53.5
  0
LINE
  8
0
 10
44.25
 20
53.5
 11
52.75
 21
53.5
  0
LINE
  8
0
 10
52.75
 20
53.5
 11
52.75
 21
46.5
  0
LINE
  8
0
 10
52.75
 20
46.5
 11
44.25
 21
46.5
  0
LINE
  8
0
 10
18.75
 20
46.5
 11
18.75
 21
53.5
  0
LINE
  8
0
 10
18.75
 20
53.5
 11
27.25
 21
53.5
  0
LINE
  8
0
 10
27.25
 20
53.5
 11
27.25
 21
46.5
  0
LINE
  8
0
 10
27.25
 20
46.5
 11
18.75
 21
46.5
  0
LINE
  8
0
 10
6
 20
46.5
 11
6
 21
53.5
  0
LINE
  8
0
 10
6
 20
53.5
 11
14.5
 21
53.5
  0
LINE
  8
0
 10
14.5
 20
53.5
 11
14.5
 21
46.5
  0
LINE
  8
0
 10
14.5
 20
46.5
 11
6
 21
46.5
  0
LINE
  8
0
 10
9.3407
 20
42
 11
9.3407
 21
45.456
  0
LINE
  8
0
 10
9.3407
 20
45.456
 11
9.73869
 21
45.456
  0
LINE
  8
0
 10
9.73869
 20
45.456
 11
9.73869
 21
43.12
  0
LINE
  8
0
 10
9.73869
 20
43.12
 11
9.7587
 21
43.12
  0
LINE
  8
0
 10
9.7587
 20
43.12
 11
11.0327
 21
44.368
  0
LINE
  8
0
 10
11.0327
 20
44.368
 11
11.4897
 21
44.368
  0
LINE
  8
0
 10
11.4897
 20
44.368
 11
10.5457
 21
43.427
  0
LINE
  8
0
 10
10.5457
 20
43.427
 11
11.6157
 21
42
  0
LINE
  8
0
 10
11.6157
 20
42
 11
11.1687
 21
42
  0
LINE
  8
0
 10
11.1687
 20
42
 11
10.2977
 21
43.183
  0
LINE
  8
0
 10
10.2977
 20
43.183
 11
9.73869
 21
42.643
  0
LINE
  8
0
 10
9.73869
 20
42.643
 11
9.73869
 21
42
  0
LINE
  8
0
 10
9.73869
 20
42
 11
9.3407
 21
42
  0
LINE
  8
0
 10
51.9993
 20
41.226
 11
50.4053
 21
45.456
  0
LINE
  8
0
 10
50.4053
 20
45.456
 11
50.7653
 21
45.456
  0
LINE
  8
0
 10
50.7653
 20
45.456
 11
52.3593
 21
41.226
  0
LINE
  8
0
 10
52.3593
 20
41.226
 11
51.9993
 21
41.226
  0
LINE
  8
0
 10
7.43855
 20
44.922
 11
7.34706
 21
45.144
  0
LINE
  8
0
 10
7.34706
 20
45.144
 11
7.43855
 21
45.3712
  0
LINE
  8
0
 10
7.43855
 20
45.3712
 11
7.66806
 21
45.456
  0
LINE
  8
0
 10
7.66806
 20
45.456
 11
7.89606
 21
45.3712
  0
LINE
  8
0
 10
7.89606
 20
45.3712
 11
7.98906
 21
45.144
  0
LINE
  8
0
 10
7.98906
 20
45.144
 11
7.89606
 21
44.922
  0
LINE
  8
0
 10
7.89606
 20
44.922
 11
7.66806
 21
44.838
  0
LINE
  8
0
 10
7.66806
 20
44.838
 11
7.43855
 21
44.922
  0
LINE
  8
0
 10
13.0729
 20
42.1514
 11
12.8743
 21
42.786
  0
LINE
  8
0
 10
12.8743
 20
42.786
 11
12.8743
 21
45.13
  0
LINE
  8
0
 10
12.8743
 20
45.13
 11
12.0673
 21
45.13
  0
LINE
  8
0
 10
12.0673
 20
45.13
 11
12.0673
 21
45.456
  0
LINE
  8
0
 10
12.0673
 20
45.456
 11
13.2733
 21
45.456
  0
LINE
  8
0
 10
13.2733
 20
45.456
 11
13.2733
 21
42.757
  0
LINE
  8
0
 10
13.2733
 20
42.757
 11
13.3986
 21
42.3821
  0
LINE
  8
0
 10
13.3986
 20
42.3821
 11
13.7353
 21
42.266
  0
LINE
  8
0
 10
13.7353
 20
42.266
 11
13.9442
 21
42.2927
  0
LINE
  8
0
 10
13.9442
 20
42.2927
 11
14.1823
 21
42.378
  0
LINE
  8
0
 10
14.1823
 20
42.378
 11
14.2843
 21
42.076
  0
LINE
  8
0
 10
14.2843
 20
42.076
 11
13.9823
 21
41.9771
  0
LINE
  8
0
 10
13.9823
 20
41.9771
 11
13.6473
 21
41.936
  0
LINE
  8
0
 10
13.6473
 20
41.936
 11
13.0729
 21
42.1514
  0
LINE
  8
0
 10
19.0181
 20
42
 11
19.0181
 21
44.368
  0
LINE
  8
0
 10
19.0181
 20
44.368
 11
19.3291
 21
44.368
  0
LINE
  8
0
 10
19.3291
 20
44.368
 11
19.3631
 21
44.062
  0
LINE
  8
0
 10
19.3631
 20
44.062
 11
19.3781
 21
44.062
  0
LINE
  8
0
 10
19.3781
 20
44.062
 11
19.5864
 21
44.3291
  0
LINE
  8
0
 10
19.5864
 20
44.3291
 11
19.9081
 21
44.432
  0
LINE
  8
0
 10
19.9081
 20
44.432
 11
20.1991
 21
44.3295
  0
LINE
  8
0
 10
20.1991
 20
44.3295
 11
20.3551
 21
44.023
  0
LINE
  8
0
 10
20.3551
 20
44.023
 11
20.5892
 21
44.3205
  0
LINE
  8
0
 10
20.5892
 20
44.3205
 11
20.9141
 21
44.432
  0
LINE
  8
0
 10
20.9141
 20
44.432
 11
21.2938
 21
44.2437
  0
LINE
  8
0
 10
21.2938
 20
44.2437
 11
21.4291
 21
43.7
  0
LINE
  8
0
 10
21.4291
 20
43.7
 11
21.4291
 21
42
  0
LINE
  8
0
 10
21.4291
 20
42
 11
21.0451
 21
42
  0
LINE
  8
0
 10
21.0451
 20
42
 11
21.0451
 21
43.666
  0
LINE
  8
0
 10
21.0451
 20
43.666
 11
20.9822
 21
43.9806
  0
LINE
  8
0
 10
20.9822
 20
43.9806
 11
20.7881
 21
44.086
  0
LINE
  8
0
 10
20.7881
 20
44.086
 11
20.5681
 21
43.9945
  0
LINE
  8
0
 10
20.5681
 20
43.9945
 11
20.3841
 21
43.72
  0
LINE
  8
0
 10
20.3841
 20
43.72
 11
20.3841
 21
42
  0
LINE
  8
0
 10
20.3841
 20
42
 11
20.0631
 21
42
  0
LINE
  8
0
 10
20.0631
 20
42
 11
20.0631
 21
43.666
  0
LINE
  8
0
 10
20.0631
 20
43.666
 11
19.9952
 21
43.9806
  0
LINE
  8
0
 10
19.9952
 20
43.9806
 11
19.7961
 21
44.086
  0
LINE
  8
0
 10
19.7961
 20
44.086
 11
19.5829
 21
43.9945
  0
LINE
  8
0
 10
19.5829
 20
43.9945
 11
19.4021
 21
43.72
  0
LINE
  8
0
 10
19.4021
 20
43.72
 11
19.4021
 21
42
  0
LINE
  8
0
 10
19.4021
 20
42
 11
19.0181
 21
42
  0
LINE
  8
0
 10
22.0277
 20
42
 11
22.0277
 21
44.368
  0
LINE
  8
0
 10
22.0277
 20
44.368
 11
22.3577
 21
44.368
  0
LINE
  8
0
 10
22.3577
 20
44.368
 11
22.3917
 21
43.969
  0
LINE
  8
0
 10
22.3917
 20
43.969
 11
22.4117
 21
43.969
  0
LINE
  8
0
 10
22.4117
 20
43.969
 11
22.8108
 21
44.2991
  0
LINE
  8
0
 10
22.8108
 20
44.2991
 11
23.3007
 21
44.432
  0
LINE
  8
0
 10
23.3007
 20
44.432
 11
23.9188
 21
44.1884
  0
LINE
  8
0
 10
23.9188
 20
44.1884
 11
24.1177
 21
43.476
  0
LINE
  8
0
 10
24.1177
 20
43.476
 11
24.1177
 21
42
  0
LINE
  8
0
 10
24.1177
 20
42
 11
23.7187
 21
42
  0
LINE
  8
0
 10
23.7187
 20
42
 11
23.7187
 21
43.422
  0
LINE
  8
0
 10
23.7187
 20
43.422
 11
23.5925
 21
43.9224
  0
LINE
  8
0
 10
23.5925
 20
43.9224
 11
23.1747
 21
44.086
  0
LINE
  8
0
 10
23.1747
 20
44.086
 11
22.7983
 21
43.9794
  0
LINE
  8
0
 10
22.7983
 20
43.9794
 11
22.4257
 21
43.656
  0
LINE
  8
0
 10
22.4257
 20
43.656
 11
22.4257
 21
42
  0
LINE
  8
0
 10
22.4257
 20
42
 11
22.0277
 21
42
  0
LINE
  8
0
 10
31.5
 20
34
 11
31.5
 21
41
  0
LINE
  8
0
 10
31.5
 20
41
 11
31.9291
 21
41
  0
LINE
  8
0
 10
31.9291
 20
41
 11
31.9291
 21
44.368
  0
LINE
  8
0
 10
31.9291
 20
44.368
 11
32.2591
 21
44.368
  0
LINE
  8
0
 10
32.2591
 20
44.368
 11
32.2931
 21
44.072
  0
LINE
  8
0
 10
32.2931
 20
44.072
 11
32.3081
 21
44.072
  0
LINE
  8
0
 10
32.3081
 20
44.072
 11
32.6891
 21
44.3304
  0
LINE
  8
0
 10
32.6891
 20
44.3304
 11
33.1241
 21
44.432
  0
LINE
  8
0
 10
33.1241
 20
44.432
 11
33.8519
 21
44.1029
  0
LINE
  8
0
 10
33.8519
 20
44.1029
 11
34.1021
 21
43.218
  0
LINE
  8
0
 10
34.1021
 20
43.218
 11
33.7779
 21
42.2732
  0
LINE
  8
0
 10
33.7779
 20
42.2732
 11
33.0271
 21
41.936
  0
LINE
  8
0
 10
33.0271
 20
41.936
 11
32.6707
 21
42.0159
  0
LINE
  8
0
 10
32.6707
 20
42.0159
 11
32.3181
 21
42.242
  0
LINE
  8
0
 10
32.3181
 20
42.242
 11
32.3271
 21
41.791
  0
LINE
  8
0
 10
32.3271
 20
41.791
 11
32.3271
 21
41
  0
LINE
  8
0
 10
32.3271
 20
41
 11
36.3917
 21
41
  0
LINE
  8
0
 10
36.3917
 20
41
 11
36.3917
 21
41.866
  0
LINE
  8
0
 10
36.3917
 20
41.866
 11
36.4107
 21
42.295
  0
LINE
  8
0
 10
36.4107
 20
42.295
 11
36.0559
 21
42.0409
  0
LINE
  8
0
 10
36.0559
 20
42.0409
 11
35.6427
 21
41.936
  0
LINE
  8
0
 10
35.6427
 20
41.936
 11
34.8983
 21
42.2594
  0
LINE
  8
0
 10
34.8983
 20
42.2594
 11
34.6167
 21
43.179
  0
LINE
  8
0
 10
34.6167
 20
43.179
 11
34.9442
 21
44.0961
  0
LINE
  8
0
 10
34.9442
 20
44.0961
 11
35.6917
 21
44.432
  0
LINE
  8
0
 10
35.6917
 20
44.432
 11
36.0794
 21
44.3499
  0
LINE
  8
0
 10
36.0794
 20
44.3499
 11
36.4207
 21
44.111
  0
LINE
  8
0
 10
36.4207
 20
44.111
 11
36.4347
 21
44.111
  0
LINE
  8
0
 10
36.4347
 20
44.111
 11
36.4687
 21
44.368
  0
LINE
  8
0
 10
36.4687
 20
44.368
 11
36.7897
 21
44.368
  0
LINE
  8
0
 10
36.7897
 20
44.368
 11
36.7897
 21
41
  0
LINE
  8
0
 10
36.7897
 20
41
 11
40
 21
41
  0
LINE
  8
0
 10
40
 20
41
 11
40
 21
34
  0
LINE
  8
0
 10
40
 20
34
 11
31.5
 21
34
  0
LINE
  8
0
 10
33.4822
 20
42.5236
 11
33.6881
 21
43.218
  0
LINE
  8
0
 10
33.6881
 20
43.218
 11
33.5321
 21
43.8539
  0
LINE
  8
0
 10
33.5321
 20
43.8539
 11
33.0221
 21
44.096
  0
LINE
  8
0
 10
33.0221
 20
44.096
 11
32.6873
 21
44.0089
  0
LINE
  8
0
 10
32.6873
 20
44.0089
 11
32.3271
 21
43.738
  0
LINE
  8
0
 10
32.3271
 20
43.738
 11
32.3271
 21
42.549
  0
LINE
  8
0
 10
32.3271
 20
42.549
 11
32.6671
 21
42.335
  0
LINE
  8
0
 10
32.6671
 20
42.335
 11
32.9591
 21
42.271
  0
LINE
  8
0
 10
32.9591
 20
42.271
 11
33.4822
 21
42.5236
  0
LINE
  8
0
 10
36.0677
 20
42.3619
 11
36.3917
 21
42.629
  0
LINE
  8
0
 10
36.3917
 20
42.629
 11
36.3917
 21
43.816
  0
LINE
  8
0
 10
36.3917
 20
43.816
 11
36.0764
 21
44.0317
  0
LINE
  8
0
 10
36.0764
 20
44.0317
 11
35.7687
 21
44.096
  0
LINE
  8
0
 10
35.7687
 20
44.096
 11
35.2462
 21
43.8439
  0
LINE
  8
0
 10
35.2462
 20
43.8439
 11
35.0297
 21
43.183
  0
LINE
  8
0
 10
35.0297
 20
43.183
 11
35.2134
 21
42.5136
  0
LINE
  8
0
 10
35.2134
 20
42.5136
 11
35.7257
 21
42.271
  0
LINE
  8
0
 10
35.7257
 20
42.271
 11
36.0677
 21
42.3619
  0
LINE
  8
0
 10
25.0656
 20
42.2612
 11
24.7153
 21
43.179
  0
LINE
  8
0
 10
24.7153
 20
43.179
 11
25.0656
 21
44.1051
  0
LINE
  8
0
 10
25.0656
 20
44.1051
 11
25.8823
 21
44.432
  0
LINE
  8
0
 10
25.8823
 20
44.432
 11
26.6991
 21
44.1051
  0
LINE
  8
0
 10
26.6991
 20
44.1051
 11
27.0493
 21
43.179
  0
LINE
  8
0
 10
27.0493
 20
43.179
 11
26.6991
 21
42.2612
  0
LINE
  8
0
 10
26.6991
 20
42.2612
 11
25.8823
 21
41.936
  0
LINE
  8
0
 10
25.8823
 20
41.936
 11
25.0656
 21
42.2612
  0
LINE
  8
0
 10
26.4283
 20
42.5181
 11
26.6353
 21
43.179
  0
LINE
  8
0
 10
26.6353
 20
43.179
 11
26.4283
 21
43.8459
  0
LINE
  8
0
 10
26.4283
 20
43.8459
 11
25.8823
 21
44.101
  0
LINE
  8
0
 10
25.8823
 20
44.101
 11
25.3358
 21
43.8459
  0
LINE
  8
0
 10
25.3358
 20
43.8459
 11
25.1283
 21
43.179
  0
LINE
  8
0
 10
25.1283
 20
43.179
 11
25.3358
 21
42.5181
  0
LINE
  8
0
 10
25.3358
 20
42.5181
 11
25.8823
 21
42.266
  0
LINE
  8
0
 10
25.8823
 20
42.266
 11
26.4283
 21
42.5181
  0
LINE
  8
0
 10
37.8833
 20
42
 11
37.8833
 21
44.368
  0
LINE
  8
0
 10
37.8833
 20
44.368
 11
38.2143
 21
44.368
  0
LINE
  8
0
 10
38.2143
 20
44.368
 11
38.2483
 21
43.813
  0
LINE
  8
0
 10
38.2483
 20
43.813
 11
38.2623
 21
43.813
  0
LINE
  8
0
 10
38.2623
 20
43.813
 11
38.7189
 21
44.265
  0
LINE
  8
0
 10
38.7189
 20
44.265
 11
39.3173
 21
44.432
  0
LINE
  8
0
 10
39.3173
 20
44.432
 11
39.5617
 21
44.4104
  0
LINE
  8
0
 10
39.5617
 20
44.4104
 11
39.7843
 21
44.334
  0
LINE
  8
0
 10
39.7843
 20
44.334
 11
39.6923
 21
43.989
  0
LINE
  8
0
 10
39.6923
 20
43.989
 11
39.4804
 21
44.0522
  0
LINE
  8
0
 10
39.4804
 20
44.0522
 11
39.2543
 21
44.072
  0
LINE
  8
0
 10
39.2543
 20
44.072
 11
38.7409
 21
43.9172
  0
LINE
  8
0
 10
38.7409
 20
43.9172
 11
38.2823
 21
43.392
  0
LINE
  8
0
 10
38.2823
 20
43.392
 11
38.2823
 21
42
  0
LINE
  8
0
 10
38.2823
 20
42
 11
37.8833
 21
42
  0
LINE
  8
0
 10
6
 20
34
 11
6
 21
41
  0
LINE
  8
0
 10
6
 20
41
 11
6.4427
 21
41
  0
LINE
  8
0
 10
6.4427
 20
41
 11
6.24406
 21
41.072
  0
LINE
  8
0
 10
6.24406
 20
41.072
 11
6.37506
 21
41.37
  0
LINE
  8
0
 10
6.37506
 20
41.37
 11
6.64131
 21
41.272
  0
LINE
  8
0
 10
6.64131
 20
41.272
 11
6.91505
 21
41.237
  0
LINE
  8
0
 10
6.91505
 20
41.237
 11
7.39069
 21
41.4091
  0
LINE
  8
0
 10
7.39069
 20
41.4091
 11
7.51306
 21
41.888
  0
LINE
  8
0
 10
7.51306
 20
41.888
 11
7.51306
 21
44.042
  0
LINE
  8
0
 10
7.51306
 20
44.042
 11
6.41406
 21
44.042
  0
LINE
  8
0
 10
6.41406
 20
44.042
 11
6.41406
 21
44.368
  0
LINE
  8
0
 10
6.41406
 20
44.368
 11
7.91106
 21
44.368
  0
LINE
  8
0
 10
7.91106
 20
44.368
 11
7.91106
 21
41.917
  0
LINE
  8
0
 10
7.91106
 20
41.917
 11
7.70169
 21
41.1929
  0
LINE
  8
0
 10
7.70169
 20
41.1929
 11
7.16493
 21
41
  0
LINE
  8
0
 10
7.16493
 20
41
 11
14.5
 21
41
  0
LINE
  8
0
 10
14.5
 20
41
 11
14.5
 21
34
  0
LINE
  8
0
 10
14.5
 20
34
 11
6
 21
34
  0
LINE
  8
0
 10
44.6401
 20
43.472
 11
44.6401
 21
43.773
  0
LINE
  8
0
 10
44.6401
 20
43.773
 11
46.7301
 21
43.773
  0
LINE
  8
0
 10
46.7301
 20
43.773
 11
46.7301
 21
43.472
  0
LINE
  8
0
 10
46.7301
 20
43.472
 11
44.6401
 21
43.472
  0
LINE
  8
0
 10
48.2546
 20
42.0489
 11
48.1397
 21
42.344
  0
LINE
  8
0
 10
48.1397
 20
42.344
 11
48.2546
 21
42.6435
  0
LINE
  8
0
 10
48.2546
 20
42.6435
 11
48.5337
 21
42.757
  0
LINE
  8
0
 10
48.5337
 20
42.757
 11
48.8128
 21
42.6435
  0
LINE
  8
0
 10
48.8128
 20
42.6435
 11
48.9277
 21
42.344
  0
LINE
  8
0
 10
48.9277
 20
42.344
 11
48.8128
 21
42.0489
  0
LINE
  8
0
 10
48.8128
 20
42.0489
 11
48.5337
 21
41.936
  0
LINE
  8
0
 10
48.5337
 20
41.936
 11
48.2546
 21
42.0489
  0
LINE
  8
0
 10
18.75
 20
34
 11
18.75
 21
41
  0
LINE
  8
0
 10
18.75
 20
41
 11
27.25
 21
41
  0
LINE
  8
0
 10
27.25
 20
41
 11
27.25
 21
34
  0
LINE
  8
0
 10
27.25
 20
34
 11
18.75
 21
34
  0
LINE
  8
0
 10
44.25
 20
34
 11
44.25
 21
41
  0
LINE
  8
0
 10
44.25
 20
41
 11
52.75
 21
41
  0
LINE
  8
0
 10
52.75
 20
41
 11
52.75
 21
34
  0
LINE
  8
0
 10
52.75
 20
34
 11
44.25
 21
34
  0
LINE
  8
0
 10
37.6553
 20
28.754
 11
37.6553
 21
28.988
  0
LINE
  8
0
 10
37.6553
 20
28.988
 11
38.6763
 21
28.988
  0
LINE
  8
0
 10
38.6763
 20
28.988
 11
38.6763
 21
32.7
  0
LINE
  8
0
 10
38.6763
 20
32.7
 11
37.6553
 21
32.7
  0
LINE
  8
0
 10
37.6553
 20
32.7
 11
37.6553
 21
32.933
  0
LINE
  8
0
 10
37.6553
 20
32.933
 11
38.9963
 21
32.933
  0
LINE
  8
0
 10
38.9963
 20
32.933
 11
38.9963
 21
28.754
  0
LINE
  8
0
 10
38.9963
 20
28.754
 11
37.6553
 21
28.754
  0
LINE
  8
0
 10
10.0243
 20
29.7064
 11
9.82669
 21
30.417
  0
LINE
  8
0
 10
9.82669
 20
30.417
 11
9.82669
 21
31.542
  0
LINE
  8
0
 10
9.82669
 20
31.542
 11
9.16069
 21
31.542
  0
LINE
  8
0
 10
9.16069
 20
31.542
 11
9.16069
 21
31.843
  0
LINE
  8
0
 10
9.16069
 20
31.843
 11
9.84169
 21
31.868
  0
LINE
  8
0
 10
9.84169
 20
31.868
 11
9.89468
 21
32.529
  0
LINE
  8
0
 10
9.89468
 20
32.529
 11
10.2257
 21
32.529
  0
LINE
  8
0
 10
10.2257
 20
32.529
 11
10.2257
 21
31.868
  0
LINE
  8
0
 10
10.2257
 20
31.868
 11
11.3867
 21
31.868
  0
LINE
  8
0
 10
11.3867
 20
31.868
 11
11.3867
 21
31.542
  0
LINE
  8
0
 10
11.3867
 20
31.542
 11
10.2257
 21
31.542
  0
LINE
  8
0
 10
10.2257
 20
31.542
 11
10.2257
 21
30.412
  0
LINE
  8
0
 10
10.2257
 20
30.412
 11
10.3533
 21
29.9267
  0
LINE
  8
0
 10
10.3533
 20
29.9267
 11
10.8237
 21
29.761
  0
LINE
  8
0
 10
10.8237
 20
29.761
 11
11.1294
 21
29.791
  0
LINE
  8
0
 10
11.1294
 20
29.791
 11
11.3917
 21
29.869
  0
LINE
  8
0
 10
11.3917
 20
29.869
 11
11.4797
 21
29.576
  0
LINE
  8
0
 10
11.4797
 20
29.576
 11
11.1242
 21
29.4771
  0
LINE
  8
0
 10
11.1242
 20
29.4771
 11
10.7357
 21
29.436
  0
LINE
  8
0
 10
10.7357
 20
29.436
 11
10.0243
 21
29.7064
  0
LINE
  8
0
 10
44.8101
 20
30.976
 11
44.8101
 21
31.278
  0
LINE
  8
0
 10
44.8101
 20
31.278
 11
46.6231
 21
32.508
  0
LINE
  8
0
 10
46.6231
 20
32.508
 11
46.6231
 21
32.123
  0
LINE
  8
0
 10
46.6231
 20
32.123
 11
45.1601
 21
31.137
  0
LINE
  8
0
 10
45.1601
 20
31.137
 11
45.1601
 21
31.117
  0
LINE
  8
0
 10
45.1601
 20
31.117
 11
46.6231
 21
30.13
  0
LINE
  8
0
 10
46.6231
 20
30.13
 11
46.6231
 21
29.746
  0
LINE
  8
0
 10
46.6231
 20
29.746
 11
44.8101
 21
30.976
  0
LINE
  8
0
 10
6.83955
 20
29.5459
 11
6.32706
 21
29.805
  0
LINE
  8
0
 10
6.32706
 20
29.805
 11
6.52106
 21
30.07
  0
LINE
  8
0
 10
6.52106
 20
30.07
 11
6.94919
 21
29.835
  0
LINE
  8
0
 10
6.94919
 20
29.835
 11
7.49806
 21
29.747
  0
LINE
  8
0
 10
7.49806
 20
29.747
 11
7.97269
 21
29.8557
  0
LINE
  8
0
 10
7.97269
 20
29.8557
 11
8.13007
 21
30.119
  0
LINE
  8
0
 10
8.13007
 20
30.119
 11
7.96281
 21
30.3665
  0
LINE
  8
0
 10
7.96281
 20
30.3665
 11
7.36206
 21
30.581
  0
LINE
  8
0
 10
7.36206
 20
30.581
 11
6.7303
 21
30.838
  0
LINE
  8
0
 10
6.7303
 20
30.838
 11
6.46306
 21
31.257
  0
LINE
  8
0
 10
6.46306
 20
31.257
 11
6.71443
 21
31.7381
  0
LINE
  8
0
 10
6.71443
 20
31.7381
 11
7.45406
 21
31.932
  0
LINE
  8
0
 10
7.45406
 20
31.932
 11
7.97382
 21
31.8414
  0
LINE
  8
0
 10
7.97382
 20
31.8414
 11
8.40205
 21
31.63
  0
LINE
  8
0
 10
8.40205
 20
31.63
 11
8.20805
 21
31.37
  0
LINE
  8
0
 10
8.20805
 20
31.37
 11
7.86218
 21
31.5501
  0
LINE
  8
0
 10
7.86218
 20
31.5501
 11
7.45406
 21
31.62
  0
LINE
  8
0
 10
7.45406
 20
31.62
 11
6.99681
 21
31.5182
  0
LINE
  8
0
 10
6.99681
 20
31.5182
 11
6.87106
 21
31.277
  0
LINE
  8
0
 10
6.87106
 20
31.277
 11
7.07043
 21
31.033
  0
LINE
  8
0
 10
7.07043
 20
31.033
 11
7.59006
 21
30.855
  0
LINE
  8
0
 10
7.59006
 20
30.855
 11
8.30093
 21
30.5749
  0
LINE
  8
0
 10
8.30093
 20
30.5749
 11
8.53406
 21
30.144
  0
LINE
  8
0
 10
8.53406
 20
30.144
 11
8.26218
 21
29.6445
  0
LINE
  8
0
 10
8.26218
 20
29.6445
 11
7.48405
 21
29.436
  0
LINE
  8
0
 10
7.48405
 20
29.436
 11
6.83955
 21
29.5459
  0
LINE
  8
0
 10
19.9711
 20
29.5
 11
18.9741
 21
31.868
  0
LINE
  8
0
 10
18.9741
 20
31.868
 11
19.3781
 21
31.868
  0
LINE
  8
0
 10
19.3781
 20
31.868
 11
19.9221
 21
30.522
  0
LINE
  8
0
 10
19.9221
 20
30.522
 11
20.0617
 21
30.1679
  0
LINE
  8
0
 10
20.0617
 20
30.1679
 11
20.1901
 21
29.825
  0
LINE
  8
0
 10
20.1901
 20
29.825
 11
20.2091
 21
29.825
  0
LINE
  8
0
 10
20.2091
 20
29.825
 11
20.3328
 21
30.1679
  0
LINE
  8
0
 10
20.3328
 20
30.1679
 11
20.4671
 21
30.522
  0
LINE
  8
0
 10
20.4671
 20
30.522
 11
21.0111
 21
31.868
  0
LINE
  8
0
 10
21.0111
 20
31.868
 11
21.3951
 21
31.868
  0
LINE
  8
0
 10
21.3951
 20
31.868
 11
20.4181
 21
29.5
  0
LINE
  8
0
 10
20.4181
 20
29.5
 11
19.9711
 21
29.5
  0
LINE
  8
0
 10
12.2473
 20
29.6792
 11
12.0483
 21
30.392
  0
LINE
  8
0
 10
12.0483
 20
30.392
 11
12.0483
 21
31.868
  0
LINE
  8
0
 10
12.0483
 20
31.868
 11
12.4513
 21
31.868
  0
LINE
  8
0
 10
12.4513
 20
31.868
 11
12.4513
 21
30.445
  0
LINE
  8
0
 10
12.4513
 20
30.445
 11
12.5761
 21
29.9446
  0
LINE
  8
0
 10
12.5761
 20
29.9446
 11
12.9963
 21
29.781
  0
LINE
  8
0
 10
12.9963
 20
29.781
 11
13.3667
 21
29.8855
  0
LINE
  8
0
 10
13.3667
 20
29.8855
 11
13.7303
 21
30.221
  0
LINE
  8
0
 10
13.7303
 20
30.221
 11
13.7303
 21
31.868
  0
LINE
  8
0
 10
13.7303
 20
31.868
 11
14.1283
 21
31.868
  0
LINE
  8
0
 10
14.1283
 20
31.868
 11
14.1283
 21
29.5
  0
LINE
  8
0
 10
14.1283
 20
29.5
 11
13.8033
 21
29.5
  0
LINE
  8
0
 10
13.8033
 20
29.5
 11
13.7693
 21
29.908
  0
LINE
  8
0
 10
13.7693
 20
29.908
 11
13.7493
 21
29.908
  0
LINE
  8
0
 10
13.7493
 20
29.908
 11
13.3569
 21
29.5677
  0
LINE
  8
0
 10
13.3569
 20
29.5677
 11
12.8693
 21
29.436
  0
LINE
  8
0
 10
12.8693
 20
29.436
 11
12.2473
 21
29.6792
  0
LINE
  8
0
 10
24.7353
 20
29.5
 11
25.6343
 21
30.727
  0
LINE
  8
0
 10
25.6343
 20
30.727
 11
24.8033
 21
31.868
  0
LINE
  8
0
 10
24.8033
 20
31.868
 11
25.2453
 21
31.868
  0
LINE
  8
0
 10
25.2453
 20
31.868
 11
25.6193
 21
31.346
  0
LINE
  8
0
 10
25.6193
 20
31.346
 11
25.7526
 21
31.148
  0
LINE
  8
0
 10
25.7526
 20
31.148
 11
25.8963
 21
30.947
  0
LINE
  8
0
 10
25.8963
 20
30.947
 11
25.9163
 21
30.947
  0
LINE
  8
0
 10
25.9163
 20
30.947
 11
26.0517
 21
31.1511
  0
LINE
  8
0
 10
26.0517
 20
31.1511
 11
26.1833
 21
31.356
  0
LINE
  8
0
 10
26.1833
 20
31.356
 11
26.5383
 21
31.868
  0
LINE
  8
0
 10
26.5383
 20
31.868
 11
26.9613
 21
31.868
  0
LINE
  8
0
 10
26.9613
 20
31.868
 11
26.1203
 21
30.693
  0
LINE
  8
0
 10
26.1203
 20
30.693
 11
27.0243
 21
29.5
  0
LINE
  8
0
 10
27.0243
 20
29.5
 11
26.5873
 21
29.5
  0
LINE
  8
0
 10
26.5873
 20
29.5
 11
26.1743
 21
30.045
  0
LINE
  8
0
 10
26.1743
 20
30.045
 11
26.0202
 21
30.2595
  0
LINE
  8
0
 10
26.0202
 20
30.2595
 11
25.8623
 21
30.474
  0
LINE
  8
0
 10
25.8623
 20
30.474
 11
25.8433
 21
30.474
  0
LINE
  8
0
 10
25.8433
 20
30.474
 11
25.6977
 21
30.2632
  0
LINE
  8
0
 10
25.6977
 20
30.2632
 11
25.5513
 21
30.045
  0
LINE
  8
0
 10
25.5513
 20
30.045
 11
25.1623
 21
29.5
  0
LINE
  8
0
 10
25.1623
 20
29.5
 11
24.7353
 21
29.5
  0
LINE
  8
0
 10
34.6707
 20
29.5
 11
34.6707
 21
29.713
  0
LINE
  8
0
 10
34.6707
 20
29.713
 11
36.2887
 21
31.542
  0
LINE
  8
0
 10
36.2887
 20
31.542
 11
34.8507
 21
31.542
  0
LINE
  8
0
 10
34.8507
 20
31.542
 11
34.8507
 21
31.868
  0
LINE
  8
0
 10
34.8507
 20
31.868
 11
36.8627
 21
31.868
  0
LINE
  8
0
 10
36.8627
 20
31.868
 11
36.8627
 21
31.654
  0
LINE
  8
0
 10
36.8627
 20
31.654
 11
35.2387
 21
29.825
  0
LINE
  8
0
 10
35.2387
 20
29.825
 11
36.9117
 21
29.825
  0
LINE
  8
0
 10
36.9117
 20
29.825
 11
36.9117
 21
29.5
  0
LINE
  8
0
 10
36.9117
 20
29.5
 11
34.6707
 21
29.5
  0
LINE
  8
0
 10
31.5
 20
21.5
 11
31.5
 21
28.5
  0
LINE
  8
0
 10
31.5
 20
28.5
 11
31.9019
 21
28.5
  0
LINE
  8
0
 10
31.9019
 20
28.5
 11
31.8021
 21
28.524
  0
LINE
  8
0
 10
31.8021
 20
28.524
 11
31.8851
 21
28.84
  0
LINE
  8
0
 10
31.8851
 20
28.84
 11
31.9883
 21
28.8159
  0
LINE
  8
0
 10
31.9883
 20
28.8159
 11
32.0991
 21
28.806
  0
LINE
  8
0
 10
32.0991
 20
28.806
 11
32.5023
 21
28.9501
  0
LINE
  8
0
 10
32.5023
 20
28.9501
 11
32.7451
 21
29.314
  0
LINE
  8
0
 10
32.7451
 20
29.314
 11
32.8181
 21
29.49
  0
LINE
  8
0
 10
32.8181
 20
29.49
 11
31.7151
 21
31.868
  0
LINE
  8
0
 10
31.7151
 20
31.868
 11
32.1181
 21
31.868
  0
LINE
  8
0
 10
32.1181
 20
31.868
 11
32.6971
 21
30.554
  0
LINE
  8
0
 10
32.6971
 20
30.554
 11
32.8407
 21
30.2171
  0
LINE
  8
0
 10
32.8407
 20
30.2171
 11
32.9881
 21
29.866
  0
LINE
  8
0
 10
32.9881
 20
29.866
 11
33.0081
 21
29.866
  0
LINE
  8
0
 10
33.0081
 20
29.866
 11
33.2611
 21
30.554
  0
LINE
  8
0
 10
33.2611
 20
30.554
 11
33.7761
 21
31.868
  0
LINE
  8
0
 10
33.7761
 20
31.868
 11
34.1551
 21
31.868
  0
LINE
  8
0
 10
34.1551
 20
31.868
 11
33.1151
 21
29.299
  0
LINE
  8
0
 10
33.1151
 20
29.299
 11
32.7491
 21
28.7116
  0
LINE
  8
0
 10
32.7491
 20
28.7116
 11
32.1778
 21
28.5
  0
LINE
  8
0
 10
32.1778
 20
28.5
 11
40
 21
28.5
  0
LINE
  8
0
 10
40
 20
28.5
 11
40
 21
21.5
  0
LINE
  8
0
 10
40
 20
21.5
 11
31.5
 21
21.5
  0
LINE
  8
0
 10
22.1437
 20
29.5
 11
21.6137
 21
31.868
  0
LINE
  8
0
 10
21.6137
 20
31.868
 11
22.0227
 21
31.868
  0
LINE
  8
0
 10
22.0227
 20
31.868
 11
22.3097
 21
30.504
  0
LINE
  8
0
 10
22.3097
 20
30.504
 11
22.3711
 21
30.1701
  0
LINE
  8
0
 10
22.3711
 20
30.1701
 11
22.4257
 21
29.84
  0
LINE
  8
0
 10
22.4257
 20
29.84
 11
22.4457
 21
29.84
  0
LINE
  8
0
 10
22.4457
 20
29.84
 11
22.5121
 21
30.1716
  0
LINE
  8
0
 10
22.5121
 20
30.1716
 11
22.5867
 21
30.504
  0
LINE
  8
0
 10
22.5867
 20
30.504
 11
22.8727
 21
31.74
  0
LINE
  8
0
 10
22.8727
 20
31.74
 11
23.2137
 21
31.74
  0
LINE
  8
0
 10
23.2137
 20
31.74
 11
23.5047
 21
30.498
  0
LINE
  8
0
 10
23.5047
 20
30.498
 11
23.5799
 21
30.1671
  0
LINE
  8
0
 10
23.5799
 20
30.1671
 11
23.6507
 21
29.84
  0
LINE
  8
0
 10
23.6507
 20
29.84
 11
23.6707
 21
29.84
  0
LINE
  8
0
 10
23.6707
 20
29.84
 11
23.7305
 21
30.1671
  0
LINE
  8
0
 10
23.7305
 20
30.1671
 11
23.7867
 21
30.498
  0
LINE
  8
0
 10
23.7867
 20
30.498
 11
24.0737
 21
31.868
  0
LINE
  8
0
 10
24.0737
 20
31.868
 11
24.4527
 21
31.868
  0
LINE
  8
0
 10
24.4527
 20
31.868
 11
23.9377
 21
29.5
  0
LINE
  8
0
 10
23.9377
 20
29.5
 11
23.4567
 21
29.5
  0
LINE
  8
0
 10
23.4567
 20
29.5
 11
23.1747
 21
30.706
  0
LINE
  8
0
 10
23.1747
 20
30.706
 11
23.0437
 21
31.399
  0
LINE
  8
0
 10
23.0437
 20
31.399
 11
23.0237
 21
31.399
  0
LINE
  8
0
 10
23.0237
 20
31.399
 11
22.9653
 21
31.0749
  0
LINE
  8
0
 10
22.9653
 20
31.0749
 11
22.8927
 21
30.693
  0
LINE
  8
0
 10
22.8927
 20
30.693
 11
22.6207
 21
29.5
  0
LINE
  8
0
 10
22.6207
 20
29.5
 11
22.1437
 21
29.5
  0
LINE
  8
0
 10
47.4887
 20
30.972
 11
47.4887
 21
31.273
  0
LINE
  8
0
 10
47.4887
 20
31.273
 11
49.5787
 21
31.273
  0
LINE
  8
0
 10
49.5787
 20
31.273
 11
49.5787
 21
30.972
  0
LINE
  8
0
 10
49.5787
 20
30.972
 11
47.4887
 21
30.972
  0
LINE
  8
0
 10
50.3373
 20
30.972
 11
50.3373
 21
31.273
  0
LINE
  8
0
 10
50.3373
 20
31.273
 11
52.4273
 21
31.273
  0
LINE
  8
0
 10
52.4273
 20
31.273
 11
52.4273
 21
30.972
  0
LINE
  8
0
 10
52.4273
 20
30.972
 11
50.3373
 21
30.972
  0
LINE
  8
0
 10
18.75
 20
21.5
 11
18.75
 21
28.5
  0
LINE
  8
0
 10
18.75
 20
28.5
 11
27.25
 21
28.5
  0
LINE
  8
0
 10
27.25
 20
28.5
 11
27.25
 21
21.5
  0
LINE
  8
0
 10
27.25
 20
21.5
 11
18.75
 21
21.5
  0
LINE
  8
0
 10
6
 20
21.5
 11
6
 21
28.5
  0
LINE
  8
0
 10
6
 20
28.5
 11
14.5
 21
28.5
  0
LINE
  8
0
 10
14.5
 20
28.5
 11
14.5
 21
21.5
  0
LINE
  8
0
 10
14.5
 20
21.5
 11
6
 21
21.5
  0
LINE
  8
0
 10
44.25
 20
21.5
 11
44.25
 21
28.5
  0
LINE
  8
0
 10
44.25
 20
28.5
 11
52.75
 21
28.5
  0
LINE
  8
0
 10
52.75
 20
28.5
 11
52.75
 21
21.5
  0
LINE
  8
0
 10
52.75
 20
21.5
 11
44.25
 21
21.5
  0
LINE
  8
0
 10
24.9053
 20
16.226
 11
26.4993
 21
20.456
  0
LINE
  8
0
 10
26.4993
 20
20.456
 11
26.8593
 21
20.456
  0
LINE
  8
0
 10
26.8593
 20
20.456
 11
25.2653
 21
16.226
  0
LINE
  8
0
 10
25.2653
 20
16.226
 11
24.9053
 21
16.226
  0
LINE
  8
0
 10
9.92369
 20
16.254
 11
9.92369
 21
20.433
  0
LINE
  8
0
 10
9.92369
 20
20.433
 11
11.2657
 21
20.433
  0
LINE
  8
0
 10
11.2657
 20
20.433
 11
11.2657
 21
20.2
  0
LINE
  8
0
 10
11.2657
 20
20.2
 11
10.2397
 21
20.2
  0
LINE
  8
0
 10
10.2397
 20
20.2
 11
10.2397
 21
16.488
  0
LINE
  8
0
 10
10.2397
 20
16.488
 11
11.2657
 21
16.488
  0
LINE
  8
0
 10
11.2657
 20
16.488
 11
11.2657
 21
16.254
  0
LINE
  8
0
 10
11.2657
 20
16.254
 11
9.92369
 21
16.254
  0
LINE
  8
0
 10
13.5553
 20
18.699
 11
13.4283
 21
19.793
  0
LINE
  8
0
 10
13.4283
 20
19.793
 11
13.4243
 21
20.328
  0
LINE
  8
0
 10
13.4243
 20
20.328
 11
13.9583
 21
20.328
  0
LINE
  8
0
 10
13.9583
 20
20.328
 11
13.9493
 21
19.793
  0
LINE
  8
0
 10
13.9493
 20
19.793
 11
13.8273
 21
18.699
  0
LINE
  8
0
 10
13.8273
 20
18.699
 11
13.5553
 21
18.699
  0
LINE
  8
0
 10
12.4373
 20
18.699
 11
12.3153
 21
19.793
  0
LINE
  8
0
 10
12.3153
 20
19.793
 11
12.3053
 21
20.328
  0
LINE
  8
0
 10
12.3053
 20
20.328
 11
12.8403
 21
20.328
  0
LINE
  8
0
 10
12.8403
 20
20.328
 11
12.8353
 21
19.793
  0
LINE
  8
0
 10
12.8353
 20
19.793
 11
12.7093
 21
18.699
  0
LINE
  8
0
 10
12.7093
 20
18.699
 11
12.4373
 21
18.699
  0
LINE
  8
0
 10
32.0361
 20
17
 11
32.0361
 21
20.2
  0
LINE
  8
0
 10
32.0361
 20
20.2
 11
34.0041
 21
20.2
  0
LINE
  8
0
 10
34.0041
 20
20.2
 11
34.0041
 21
19.859
  0
LINE
  8
0
 10
34.0041
 20
19.859
 11
32.4441
 21
19.859
  0
LINE
  8
0
 10
32.4441
 20
19.859
 11
32.4441
 21
18.856
  0
LINE
  8
0
 10
32.4441
 20
18.856
 11
33.7611
 21
18.856
  0
LINE
  8
0
 10
33.7611
 20
18.856
 11
33.7611
 21
18.51
  0
LINE
  8
0
 10
33.7611
 20
18.51
 11
32.4441
 21
18.51
  0
LINE
  8
0
 10
32.4441
 20
18.51
 11
32.4441
 21
17.345
  0
LINE
  8
0
 10
32.4441
 20
17.345
 11
34.0531
 21
17.345
  0
LINE
  8
0
 10
34.0531
 20
17.345
 11
34.0531
 21
17
  0
LINE
  8
0
 10
34.0531
 20
17
 11
32.0361
 21
17
  0
LINE
  8
0
 10
34.7287
 20
17
 11
34.7287
 21
20.2
  0
LINE
  8
0
 10
34.7287
 20
20.2
 11
35.1417
 21
20.2
  0
LINE
  8
0
 10
35.1417
 20
20.2
 11
36.1777
 21
18.179
  0
LINE
  8
0
 10
36.1777
 20
18.179
 11
36.4987
 21
17.525
  0
LINE
  8
0
 10
36.4987
 20
17.525
 11
36.5077
 21
17.525
  0
LINE
  8
0
 10
36.5077
 20
17.525
 11
36.4759
 21
18.0252
  0
LINE
  8
0
 10
36.4759
 20
18.0252
 11
36.4547
 21
18.542
  0
LINE
  8
0
 10
36.4547
 20
18.542
 11
36.4547
 21
20.2
  0
LINE
  8
0
 10
36.4547
 20
20.2
 11
36.8387
 21
20.2
  0
LINE
  8
0
 10
36.8387
 20
20.2
 11
36.8387
 21
17
  0
LINE
  8
0
 10
36.8387
 20
17
 11
36.4257
 21
17
  0
LINE
  8
0
 10
36.4257
 20
17
 11
35.3897
 21
19.02
  0
LINE
  8
0
 10
35.3897
 20
19.02
 11
35.0687
 21
19.674
  0
LINE
  8
0
 10
35.0687
 20
19.674
 11
35.0597
 21
19.674
  0
LINE
  8
0
 10
35.0597
 20
19.674
 11
35.0914
 21
19.1757
  0
LINE
  8
0
 10
35.0914
 20
19.1757
 11
35.1127
 21
18.673
  0
LINE
  8
0
 10
35.1127
 20
18.673
 11
35.1127
 21
17
  0
LINE
  8
0
 10
35.1127
 20
17
 11
34.7287
 21
17
  0
LINE
  8
0
 10
38.4283
 20
17
 11
38.4283
 21
19.859
  0
LINE
  8
0
 10
38.4283
 20
19.859
 11
37.3783
 21
19.859
  0
LINE
  8
0
 10
37.3783
 20
19.859
 11
37.3783
 21
20.2
  0
LINE
  8
0
 10
37.3783
 20
20.2
 11
39.8863
 21
20.2
  0
LINE
  8
0
 10
39.8863
 20
20.2
 11
39.8863
 21
19.859
  0
LINE
  8
0
 10
39.8863
 20
19.859
 11
38.8363
 21
19.859
  0
LINE
  8
0
 10
38.8363
 20
19.859
 11
38.8363
 21
17
  0
LINE
  8
0
 10
38.8363
 20
17
 11
38.4283
 21
17
  0
LINE
  8
0
 10
19.3698
 20
17.3609
 11
19.0721
 21
18.565
  0
LINE
  8
0
 10
19.0721
 20
18.565
 11
19.3698
 21
19.7326
  0
LINE
  8
0
 10
19.3698
 20
19.7326
 11
20.1851
 21
20.136
  0
LINE
  8
0
 10
20.1851
 20
20.136
 11
21.0003
 21
19.7326
  0
LINE
  8
0
 10
21.0003
 20
19.7326
 11
21.2981
 21
18.565
  0
LINE
  8
0
 10
21.2981
 20
18.565
 11
21.0003
 21
17.3609
  0
LINE
  8
0
 10
21.0003
 20
17.3609
 11
20.1851
 21
16.936
  0
LINE
  8
0
 10
20.1851
 20
16.936
 11
19.3698
 21
17.3609
  0
LINE
  8
0
 10
20.7169
 20
17.5745
 11
20.9241
 21
18.565
  0
LINE
  8
0
 10
20.9241
 20
18.565
 11
20.7169
 21
19.5189
  0
LINE
  8
0
 10
20.7169
 20
19.5189
 11
20.1851
 21
19.815
  0
LINE
  8
0
 10
20.1851
 20
19.815
 11
19.6532
 21
19.5189
  0
LINE
  8
0
 10
19.6532
 20
19.5189
 11
19.4461
 21
18.565
  0
LINE
  8
0
 10
19.4461
 20
18.565
 11
19.6532
 21
17.5745
  0
LINE
  8
0
 10
19.6532
 20
17.5745
 11
20.1851
 21
17.256
  0
LINE
  8
0
 10
20.1851
 20
17.256
 11
20.7169
 21
17.5745
  0
LINE
  8
0
 10
19.9737
 20
18.3591
 11
19.8831
 21
18.599
  0
LINE
  8
0
 10
19.8831
 20
18.599
 11
19.9737
 21
18.8341
  0
LINE
  8
0
 10
19.9737
 20
18.8341
 11
20.1851
 21
18.92
  0
LINE
  8
0
 10
20.1851
 20
18.92
 11
20.3956
 21
18.8341
  0
LINE
  8
0
 10
20.3956
 20
18.8341
 11
20.4861
 21
18.599
  0
LINE
  8
0
 10
20.4861
 20
18.599
 11
20.3956
 21
18.3591
  0
LINE
  8
0
 10
20.3956
 20
18.3591
 11
20.1851
 21
18.273
  0
LINE
  8
0
 10
20.1851
 20
18.273
 11
19.9737
 21
18.3591
  0
LINE
  8
0
 10
50.4443
 20
17.63
 11
51.9073
 21
18.617
  0
LINE
  8
0
 10
51.9073
 20
18.617
 11
51.9073
 21
18.637
  0
LINE
  8
0
 10
51.9073
 20
18.637
 11
50.4443
 21
19.623
  0
LINE
  8
0
 10
50.4443
 20
19.623
 11
50.4443
 21
20.008
  0
LINE
  8
0
 10
50.4443
 20
20.008
 11
52.2573
 21
18.778
  0
LINE
  8
0
 10
52.2573
 20
18.778
 11
52.2573
 21
18.476
  0
LINE
  8
0
 10
52.2573
 20
18.476
 11
50.4443
 21
17.246
  0
LINE
  8
0
 10
50.4443
 20
17.246
 11
50.4443
 21
17.63
  0
LINE
  8
0
 10
47.4887
 20
18.472
 11
47.4887
 21
18.773
  0
LINE
  8
0
 10
47.4887
 20
18.773
 11
49.5787
 21
18.773
  0
LINE
  8
0
 10
49.5787
 20
18.773
 11
49.5787
 21
18.472
  0
LINE
  8
0
 10
49.5787
 20
18.472
 11
47.4887
 21
18.472
  0
LINE
  8
0
 10
44.6401
 20
18.472
 11
44.6401
 21
18.773
  0
LINE
  8
0
 10
44.6401
 20
18.773
 11
46.7301
 21
18.773
  0
LINE
  8
0
 10
46.7301
 20
18.773
 11
46.7301
 21
18.472
  0
LINE
  8
0
 10
46.7301
 20
18.472
 11
44.6401
 21
18.472
  0
LINE
  8
0
 10
22.7546
 20
17.0489
 11
22.6397
 21
17.344
  0
LINE
  8
0
 10
22.6397
 20
17.344
 11
22.7546
 21
17.6435
  0
LINE
  8
0
 10
22.7546
 20
17.6435
 11
23.0337
 21
17.757
  0
LINE
  8
0
 10
23.0337
 20
17.757
 11
23.3128
 21
17.6435
  0
LINE
  8
0
 10
23.3128
 20
17.6435
 11
23.4277
 21
17.344
  0
LINE
  8
0
 10
23.4277
 20
17.344
 11
23.3128
 21
17.0489
  0
LINE
  8
0
 10
23.3128
 20
17.0489
 11
23.0337
 21
16.936
  0
LINE
  8
0
 10
23.0337
 20
16.936
 11
22.7546
 21
17.0489
  0
LINE
  8
0
 10
6.26805
 20
16.334
 11
6.26805
 21
16.68
  0
LINE
  8
0
 10
6.26805
 20
16.68
 11
8.60205
 21
16.68
  0
LINE
  8
0
 10
8.60205
 20
16.68
 11
8.60205
 21
16.334
  0
LINE
  8
0
 10
8.60205
 20
16.334
 11
6.26805
 21
16.334
  0
LINE
  8
0
 10
6
 20
9
 11
6
 21
16
  0
LINE
  8
0
 10
6
 20
16
 11
14.5
 21
16
  0
LINE
  8
0
 10
14.5
 20
16
 11
14.5
 21
9
  0
LINE
  8
0
 10
14.5
 20
9
 11
6
 21
9
  0
LINE
  8
0
 10
31.5
 20
9
 11
31.5
 21
16
  0
LINE
  8
0
 10
31.5
 20
16
 11
40
 21
16
  0
LINE
  8
0
 10
40
 20
16
 11
40
 21
9
  0
LINE
  8
0
 10
40
 20
9
 11
31.5
 21
9
  0
LINE
  8
0
 10
18.75
 20
9
 11
18.75
 21
16
  0
LINE
  8
0
 10
18.75
 20
16
 11
27.25
 21
16
  0
LINE
  8
0
 10
27.25
 20
16
 11
27.25
 21
9
  0
LINE
  8
0
 10
27.25
 20
9
 11
18.75
 21
9
  0
LINE
  8
0
 10
44.25
 20
9
 11
44.25
 21
16
  0
LINE
  8
0
 10
44.25
 20
16
 11
52.75
 21
16
  0
LINE
  8
0
 10
52.75
 20
16
 11
52.75
 21
9
  0
LINE
  8
0
 10
52.75
 20
9
 11
44.25
 21
9
  0
ENDSEC
  0
SECTION
  2
OBJECTS
  0
DICTIONARY
  0
ENDSEC
  0
EOF
