  0
SECTION
  2
BLOCKS
  0
ENDSEC
  0
SECTION
  2
ENTITIES
  0
LINE
  8
0
 10
46
 20
63
 11
0
 21
63
  0
LINE
  8
0
 10
0
 20
63
 11
0
 21
0
  0
LINE
  8
0
 10
0
 20
0
 11
46
 21
0
  0
LINE
  8
0
 10
46
 20
0
 11
46
 21
63
  0
LINE
  8
0
 10
31.5
 20
46.5
 11
31.5
 21
53.5
  0
LINE
  8
0
 10
31.5
 20
53.5
 11
40
 21
53.5
  0
LINE
  8
0
 10
40
 20
53.5
 11
40
 21
46.5
  0
LINE
  8
0
 10
40
 20
46.5
 11
31.5
 21
46.5
  0
LINE
  8
0
 10
18.75
 20
46.5
 11
18.75
 21
53.5
  0
LINE
  8
0
 10
18.75
 20
53.5
 11
27.25
 21
53.5
  0
LINE
  8
0
 10
27.25
 20
53.5
 11
27.25
 21
46.5
  0
LINE
  8
0
 10
27.25
 20
46.5
 11
18.75
 21
46.5
  0
LINE
  8
0
 10
6
 20
46.5
 11
6
 21
53.5
  0
LINE
  8
0
 10
6
 20
53.5
 11
14.5
 21
53.5
  0
LINE
  8
0
 10
14.5
 20
53.5
 11
14.5
 21
46.5
  0
LINE
  8
0
 10
14.5
 20
46.5
 11
6
 21
46.5
  0
LINE
  8
0
 10
6
 20
34
 11
6
 21
41
  0
LINE
  8
0
 10
6
 20
41
 11
14.5
 21
41
  0
LINE
  8
0
 10
14.5
 20
41
 11
14.5
 21
34
  0
LINE
  8
0
 10
14.5
 20
34
 11
6
 21
34
  0
LINE
  8
0
 10
31.5
 20
34
 11
31.5
 21
41
  0
LINE
  8
0
 10
31.5
 20
41
 11
40
 21
41
  0
LINE
  8
0
 10
40
 20
41
 11
40
 21
34
  0
LINE
  8
0
 10
40
 20
34
 11
31.5
 21
34
  0
LINE
  8
0
 10
18.75
 20
34
 11
18.75
 21
41
  0
LINE
  8
0
 10
18.75
 20
41
 11
27.25
 21
41
  0
LINE
  8
0
 10
27.25
 20
41
 11
27.25
 21
34
  0
LINE
  8
0
 10
27.25
 20
34
 11
18.75
 21
34
  0
LINE
  8
0
 10
6
 20
21.5
 11
6
 21
28.5
  0
LINE
  8
0
 10
6
 20
28.5
 11
14.5
 21
28.5
  0
LINE
  8
0
 10
14.5
 20
28.5
 11
14.5
 21
21.5
  0
LINE
  8
0
 10
14.5
 20
21.5
 11
6
 21
21.5
  0
LINE
  8
0
 10
18.75
 20
21.5
 11
18.75
 21
28.5
  0
LINE
  8
0
 10
18.75
 20
28.5
 11
27.25
 21
28.5
  0
LINE
  8
0
 10
27.25
 20
28.5
 11
27.25
 21
21.5
  0
LINE
  8
0
 10
27.25
 20
21.5
 11
18.75
 21
21.5
  0
LINE
  8
0
 10
31.5
 20
21.5
 11
31.5
 21
28.5
  0
LINE
  8
0
 10
31.5
 20
28.5
 11
40
 21
28.5
  0
LINE
  8
0
 10
40
 20
28.5
 11
40
 21
21.5
  0
LINE
  8
0
 10
40
 20
21.5
 11
31.5
 21
21.5
  0
LINE
  8
0
 10
6.6963
 20
17.3742
 11
6.29706
 21
18.6
  0
LINE
  8
0
 10
6.29706
 20
18.6
 11
6.69756
 21
19.8197
  0
LINE
  8
0
 10
6.69756
 20
19.8197
 11
7.72206
 21
20.264
  0
LINE
  8
0
 10
7.72206
 20
20.264
 11
8.23169
 21
20.1459
  0
LINE
  8
0
 10
8.23169
 20
20.1459
 11
8.59206
 21
19.874
  0
LINE
  8
0
 10
8.59206
 20
19.874
 11
8.36305
 21
19.615
  0
LINE
  8
0
 10
8.36305
 20
19.615
 11
8.08081
 21
19.828
  0
LINE
  8
0
 10
8.08081
 20
19.828
 11
7.72206
 21
19.909
  0
LINE
  8
0
 10
7.72206
 20
19.909
 11
6.98868
 21
19.559
  0
LINE
  8
0
 10
6.98868
 20
19.559
 11
6.71506
 21
18.609
  0
LINE
  8
0
 10
6.71506
 20
18.609
 11
6.98868
 21
17.6461
  0
LINE
  8
0
 10
6.98868
 20
17.6461
 11
7.72206
 21
17.29
  0
LINE
  8
0
 10
7.72206
 20
17.29
 11
8.11168
 21
17.3827
  0
LINE
  8
0
 10
8.11168
 20
17.3827
 11
8.43607
 21
17.648
  0
LINE
  8
0
 10
8.43607
 20
17.648
 11
8.67006
 21
17.398
  0
LINE
  8
0
 10
8.67006
 20
17.398
 11
8.24207
 21
17.0575
  0
LINE
  8
0
 10
8.24207
 20
17.0575
 11
7.69705
 21
16.936
  0
LINE
  8
0
 10
7.69705
 20
16.936
 11
6.6963
 21
17.3742
  0
LINE
  8
0
 10
12.1603
 20
17
 11
12.1603
 21
20.2
  0
LINE
  8
0
 10
12.1603
 20
20.2
 11
13.1513
 21
20.2
  0
LINE
  8
0
 10
13.1513
 20
20.2
 11
13.9509
 21
19.9996
  0
LINE
  8
0
 10
13.9509
 20
19.9996
 11
14.2653
 21
19.299
  0
LINE
  8
0
 10
14.2653
 20
19.299
 11
14.0702
 21
18.6967
  0
LINE
  8
0
 10
14.0702
 20
18.6967
 11
13.5503
 21
18.387
  0
LINE
  8
0
 10
13.5503
 20
18.387
 11
14.3623
 21
17
  0
LINE
  8
0
 10
14.3623
 20
17
 11
13.9003
 21
17
  0
LINE
  8
0
 10
13.9003
 20
17
 11
13.1323
 21
18.344
  0
LINE
  8
0
 10
13.1323
 20
18.344
 11
12.5633
 21
18.344
  0
LINE
  8
0
 10
12.5633
 20
18.344
 11
12.5633
 21
17
  0
LINE
  8
0
 10
12.5633
 20
17
 11
12.1603
 21
17
  0
LINE
  8
0
 10
13.6633
 20
18.8297
 11
13.8613
 21
19.299
  0
LINE
  8
0
 10
13.8613
 20
19.299
 11
13.6633
 21
19.7447
  0
LINE
  8
0
 10
13.6633
 20
19.7447
 11
13.0933
 21
19.874
  0
LINE
  8
0
 10
13.0933
 20
19.874
 11
12.5633
 21
19.874
  0
LINE
  8
0
 10
12.5633
 20
19.874
 11
12.5633
 21
18.674
  0
LINE
  8
0
 10
12.5633
 20
18.674
 11
13.0933
 21
18.674
  0
LINE
  8
0
 10
13.0933
 20
18.674
 11
13.6633
 21
18.8297
  0
LINE
  8
0
 10
9.47668
 20
17
 11
9.47668
 21
20.2
  0
LINE
  8
0
 10
9.47668
 20
20.2
 11
9.87569
 21
20.2
  0
LINE
  8
0
 10
9.87569
 20
20.2
 11
9.87569
 21
17.345
  0
LINE
  8
0
 10
9.87569
 20
17.345
 11
11.4547
 21
17.345
  0
LINE
  8
0
 10
11.4547
 20
17.345
 11
11.4547
 21
17
  0
LINE
  8
0
 10
11.4547
 20
17
 11
9.47668
 21
17
  0
LINE
  8
0
 10
35.5046
 20
17.0489
 11
35.3897
 21
17.344
  0
LINE
  8
0
 10
35.3897
 20
17.344
 11
35.5046
 21
17.6435
  0
LINE
  8
0
 10
35.5046
 20
17.6435
 11
35.7837
 21
17.757
  0
LINE
  8
0
 10
35.7837
 20
17.757
 11
36.0628
 21
17.6435
  0
LINE
  8
0
 10
36.0628
 20
17.6435
 11
36.1777
 21
17.344
  0
LINE
  8
0
 10
36.1777
 20
17.344
 11
36.0628
 21
17.0489
  0
LINE
  8
0
 10
36.0628
 20
17.0489
 11
35.7837
 21
16.936
  0
LINE
  8
0
 10
35.7837
 20
16.936
 11
35.5046
 21
17.0489
  0
LINE
  8
0
 10
31.5
 20
9
 11
31.5
 21
16
  0
LINE
  8
0
 10
31.5
 20
16
 11
40
 21
16
  0
LINE
  8
0
 10
40
 20
16
 11
40
 21
9
  0
LINE
  8
0
 10
40
 20
9
 11
31.5
 21
9
  0
LINE
  8
0
 10
18.75
 20
9
 11
18.75
 21
16
  0
LINE
  8
0
 10
18.75
 20
16
 11
27.25
 21
16
  0
LINE
  8
0
 10
27.25
 20
16
 11
27.25
 21
9
  0
LINE
  8
0
 10
27.25
 20
9
 11
18.75
 21
9
  0
LINE
  8
0
 10
6
 20
9
 11
6
 21
16
  0
LINE
  8
0
 10
6
 20
16
 11
14.5
 21
16
  0
LINE
  8
0
 10
14.5
 20
16
 11
14.5
 21
9
  0
LINE
  8
0
 10
14.5
 20
9
 11
6
 21
9
  0
ENDSEC
  0
SECTION
  2
OBJECTS
  0
DICTIONARY
  0
ENDSEC
  0
EOF
