  0
SECTION
  2
BLOCKS
  0
ENDSEC
  0
SECTION
  2
ENTITIES
  0
LINE
  8
0
 10
58
 20
63
 11
0
 21
63
  0
LINE
  8
0
 10
0
 20
63
 11
0
 21
0
  0
LINE
  8
0
 10
0
 20
0
 11
58
 21
0
  0
LINE
  8
0
 10
58
 20
0
 11
58
 21
63
  0
LINE
  8
0
 10
48.4317
 20
55.058
 11
48.4317
 21
56.036
  0
LINE
  8
0
 10
48.4317
 20
56.036
 11
47.5367
 21
56.036
  0
LINE
  8
0
 10
47.5367
 20
56.036
 11
47.5367
 21
56.22
  0
LINE
  8
0
 10
47.5367
 20
56.22
 11
48.4317
 21
56.22
  0
LINE
  8
0
 10
48.4317
 20
56.22
 11
48.4317
 21
57.197
  0
LINE
  8
0
 10
48.4317
 20
57.197
 11
48.6357
 21
57.197
  0
LINE
  8
0
 10
48.6357
 20
57.197
 11
48.6357
 21
56.22
  0
LINE
  8
0
 10
48.6357
 20
56.22
 11
49.5297
 21
56.22
  0
LINE
  8
0
 10
49.5297
 20
56.22
 11
49.5297
 21
56.036
  0
LINE
  8
0
 10
49.5297
 20
56.036
 11
48.6357
 21
56.036
  0
LINE
  8
0
 10
48.6357
 20
56.036
 11
48.6357
 21
55.058
  0
LINE
  8
0
 10
48.6357
 20
55.058
 11
48.4317
 21
55.058
  0
LINE
  8
0
 10
6
 20
46.5
 11
6
 21
53.5
  0
LINE
  8
0
 10
6
 20
53.5
 11
14.5
 21
53.5
  0
LINE
  8
0
 10
14.5
 20
53.5
 11
14.5
 21
46.5
  0
LINE
  8
0
 10
14.5
 20
46.5
 11
6
 21
46.5
  0
LINE
  8
0
 10
44.25
 20
46.5
 11
44.25
 21
53.5
  0
LINE
  8
0
 10
44.25
 20
53.5
 11
52.75
 21
53.5
  0
LINE
  8
0
 10
52.75
 20
53.5
 11
52.75
 21
46.5
  0
LINE
  8
0
 10
52.75
 20
46.5
 11
44.25
 21
46.5
  0
LINE
  8
0
 10
31.5
 20
46.5
 11
31.5
 21
53.5
  0
LINE
  8
0
 10
31.5
 20
53.5
 11
40
 21
53.5
  0
LINE
  8
0
 10
40
 20
53.5
 11
40
 21
46.5
  0
LINE
  8
0
 10
40
 20
46.5
 11
31.5
 21
46.5
  0
LINE
  8
0
 10
18.75
 20
46.5
 11
18.75
 21
53.5
  0
LINE
  8
0
 10
18.75
 20
53.5
 11
27.25
 21
53.5
  0
LINE
  8
0
 10
27.25
 20
53.5
 11
27.25
 21
46.5
  0
LINE
  8
0
 10
27.25
 20
46.5
 11
18.75
 21
46.5
  0
LINE
  8
0
 10
47.5367
 20
43.536
 11
47.5367
 21
43.72
  0
LINE
  8
0
 10
47.5367
 20
43.72
 11
49.5297
 21
43.72
  0
LINE
  8
0
 10
49.5297
 20
43.72
 11
49.5297
 21
43.536
  0
LINE
  8
0
 10
49.5297
 20
43.536
 11
47.5367
 21
43.536
  0
LINE
  8
0
 10
6
 20
34
 11
6
 21
41
  0
LINE
  8
0
 10
6
 20
41
 11
14.5
 21
41
  0
LINE
  8
0
 10
14.5
 20
41
 11
14.5
 21
34
  0
LINE
  8
0
 10
14.5
 20
34
 11
6
 21
34
  0
LINE
  8
0
 10
44.25
 20
34
 11
44.25
 21
41
  0
LINE
  8
0
 10
44.25
 20
41
 11
52.75
 21
41
  0
LINE
  8
0
 10
52.75
 20
41
 11
52.75
 21
34
  0
LINE
  8
0
 10
52.75
 20
34
 11
44.25
 21
34
  0
LINE
  8
0
 10
31.5
 20
34
 11
31.5
 21
41
  0
LINE
  8
0
 10
31.5
 20
41
 11
40
 21
41
  0
LINE
  8
0
 10
40
 20
41
 11
40
 21
34
  0
LINE
  8
0
 10
40
 20
34
 11
31.5
 21
34
  0
LINE
  8
0
 10
18.75
 20
34
 11
18.75
 21
41
  0
LINE
  8
0
 10
18.75
 20
41
 11
27.25
 21
41
  0
LINE
  8
0
 10
27.25
 20
41
 11
27.25
 21
34
  0
LINE
  8
0
 10
27.25
 20
34
 11
18.75
 21
34
  0
LINE
  8
0
 10
48.5337
 20
30.933
 11
47.9357
 21
30.112
  0
LINE
  8
0
 10
47.9357
 20
30.112
 11
47.7947
 21
30.214
  0
LINE
  8
0
 10
47.7947
 20
30.214
 11
48.3587
 21
31.045
  0
LINE
  8
0
 10
48.3587
 20
31.045
 11
47.5417
 21
31.39
  0
LINE
  8
0
 10
47.5417
 20
31.39
 11
47.5957
 21
31.536
  0
LINE
  8
0
 10
47.5957
 20
31.536
 11
48.4267
 21
31.24
  0
LINE
  8
0
 10
48.4267
 20
31.24
 11
48.4557
 21
32.188
  0
LINE
  8
0
 10
48.4557
 20
32.188
 11
48.6117
 21
32.188
  0
LINE
  8
0
 10
48.6117
 20
32.188
 11
48.6407
 21
31.24
  0
LINE
  8
0
 10
48.6407
 20
31.24
 11
49.4717
 21
31.536
  0
LINE
  8
0
 10
49.4717
 20
31.536
 11
49.5257
 21
31.39
  0
LINE
  8
0
 10
49.5257
 20
31.39
 11
48.7087
 21
31.045
  0
LINE
  8
0
 10
48.7087
 20
31.045
 11
49.2727
 21
30.214
  0
LINE
  8
0
 10
49.2727
 20
30.214
 11
49.1317
 21
30.112
  0
LINE
  8
0
 10
49.1317
 20
30.112
 11
48.5337
 21
30.933
  0
LINE
  8
0
 10
6
 20
21.5
 11
6
 21
28.5
  0
LINE
  8
0
 10
6
 20
28.5
 11
14.5
 21
28.5
  0
LINE
  8
0
 10
14.5
 20
28.5
 11
14.5
 21
21.5
  0
LINE
  8
0
 10
14.5
 20
21.5
 11
6
 21
21.5
  0
LINE
  8
0
 10
18.75
 20
21.5
 11
18.75
 21
28.5
  0
LINE
  8
0
 10
18.75
 20
28.5
 11
27.25
 21
28.5
  0
LINE
  8
0
 10
27.25
 20
28.5
 11
27.25
 21
21.5
  0
LINE
  8
0
 10
27.25
 20
21.5
 11
18.75
 21
21.5
  0
LINE
  8
0
 10
31.5
 20
21.5
 11
31.5
 21
28.5
  0
LINE
  8
0
 10
31.5
 20
28.5
 11
40
 21
28.5
  0
LINE
  8
0
 10
40
 20
28.5
 11
40
 21
21.5
  0
LINE
  8
0
 10
40
 20
21.5
 11
31.5
 21
21.5
  0
LINE
  8
0
 10
44.25
 20
21.5
 11
44.25
 21
28.5
  0
LINE
  8
0
 10
44.25
 20
28.5
 11
52.75
 21
28.5
  0
LINE
  8
0
 10
52.75
 20
28.5
 11
52.75
 21
21.5
  0
LINE
  8
0
 10
52.75
 20
21.5
 11
44.25
 21
21.5
  0
LINE
  8
0
 10
6.70306
 20
17.3875
 11
6.32706
 21
18.607
  0
LINE
  8
0
 10
6.32706
 20
18.607
 11
6.70668
 21
19.8172
  0
LINE
  8
0
 10
6.70668
 20
19.8172
 11
7.70206
 21
20.264
  0
LINE
  8
0
 10
7.70206
 20
20.264
 11
8.19118
 21
20.1465
  0
LINE
  8
0
 10
8.19118
 20
20.1465
 11
8.53406
 21
19.879
  0
LINE
  8
0
 10
8.53406
 20
19.879
 11
8.39706
 21
19.733
  0
LINE
  8
0
 10
8.39706
 20
19.733
 11
8.09531
 21
19.9691
  0
LINE
  8
0
 10
8.09531
 20
19.9691
 11
7.70206
 21
20.059
  0
LINE
  8
0
 10
7.70206
 20
20.059
 11
6.86668
 21
19.6675
  0
LINE
  8
0
 10
6.86668
 20
19.6675
 11
6.56006
 21
18.607
  0
LINE
  8
0
 10
6.56006
 20
18.607
 11
6.86493
 21
17.539
  0
LINE
  8
0
 10
6.86493
 20
17.539
 11
7.68806
 21
17.14
  0
LINE
  8
0
 10
7.68806
 20
17.14
 11
8.12318
 21
17.2384
  0
LINE
  8
0
 10
8.12318
 20
17.2384
 11
8.49005
 21
17.534
  0
LINE
  8
0
 10
8.49005
 20
17.534
 11
8.62106
 21
17.393
  0
LINE
  8
0
 10
8.62106
 20
17.393
 11
8.21082
 21
17.0587
  0
LINE
  8
0
 10
8.21082
 20
17.0587
 11
7.67307
 21
16.936
  0
LINE
  8
0
 10
7.67307
 20
16.936
 11
6.70306
 21
17.3875
  0
LINE
  8
0
 10
12.2423
 20
17
 11
12.2423
 21
20.2
  0
LINE
  8
0
 10
12.2423
 20
20.2
 11
13.1563
 21
20.2
  0
LINE
  8
0
 10
13.1563
 20
20.2
 11
13.9227
 21
20.0066
  0
LINE
  8
0
 10
13.9227
 20
20.0066
 11
14.2113
 21
19.355
  0
LINE
  8
0
 10
14.2113
 20
19.355
 11
13.9883
 21
18.7547
  0
LINE
  8
0
 10
13.9883
 20
18.7547
 11
13.3903
 21
18.486
  0
LINE
  8
0
 10
13.3903
 20
18.486
 11
14.2743
 21
17
  0
LINE
  8
0
 10
14.2743
 20
17
 11
14.0123
 21
17
  0
LINE
  8
0
 10
14.0123
 20
17
 11
13.1463
 21
18.472
  0
LINE
  8
0
 10
13.1463
 20
18.472
 11
12.4663
 21
18.472
  0
LINE
  8
0
 10
12.4663
 20
18.472
 11
12.4663
 21
17
  0
LINE
  8
0
 10
12.4663
 20
17
 11
12.2423
 21
17
  0
LINE
  8
0
 10
13.7542
 20
18.8289
 11
13.9833
 21
19.355
  0
LINE
  8
0
 10
13.9833
 20
19.355
 11
13.7542
 21
19.8625
  0
LINE
  8
0
 10
13.7542
 20
19.8625
 11
13.0983
 21
20.01
  0
LINE
  8
0
 10
13.0983
 20
20.01
 11
12.4663
 21
20.01
  0
LINE
  8
0
 10
12.4663
 20
20.01
 11
12.4663
 21
18.656
  0
LINE
  8
0
 10
12.4663
 20
18.656
 11
13.0983
 21
18.656
  0
LINE
  8
0
 10
13.0983
 20
18.656
 11
13.7542
 21
18.8289
  0
LINE
  8
0
 10
9.55469
 20
17
 11
9.55469
 21
20.2
  0
LINE
  8
0
 10
9.55469
 20
20.2
 11
9.76869
 21
20.2
  0
LINE
  8
0
 10
9.76869
 20
20.2
 11
9.76869
 21
17.194
  0
LINE
  8
0
 10
9.76869
 20
17.194
 11
11.4457
 21
17.194
  0
LINE
  8
0
 10
11.4457
 20
17.194
 11
11.4457
 21
17
  0
LINE
  8
0
 10
11.4457
 20
17
 11
9.55469
 21
17
  0
LINE
  8
0
 10
47.5367
 20
18.991
 11
47.5367
 21
19.176
  0
LINE
  8
0
 10
47.5367
 20
19.176
 11
49.5297
 21
19.176
  0
LINE
  8
0
 10
49.5297
 20
19.176
 11
49.5297
 21
18.991
  0
LINE
  8
0
 10
49.5297
 20
18.991
 11
47.5367
 21
18.991
  0
LINE
  8
0
 10
47.5367
 20
18.024
 11
47.5367
 21
18.208
  0
LINE
  8
0
 10
47.5367
 20
18.208
 11
49.5297
 21
18.208
  0
LINE
  8
0
 10
49.5297
 20
18.208
 11
49.5297
 21
18.024
  0
LINE
  8
0
 10
49.5297
 20
18.024
 11
47.5367
 21
18.024
  0
LINE
  8
0
 10
35.5811
 20
17.0189
 11
35.4917
 21
17.251
  0
LINE
  8
0
 10
35.4917
 20
17.251
 11
35.5811
 21
17.4859
  0
LINE
  8
0
 10
35.5811
 20
17.4859
 11
35.7837
 21
17.567
  0
LINE
  8
0
 10
35.7837
 20
17.567
 11
35.9863
 21
17.4859
  0
LINE
  8
0
 10
35.9863
 20
17.4859
 11
36.0757
 21
17.251
  0
LINE
  8
0
 10
36.0757
 20
17.251
 11
35.9863
 21
17.0189
  0
LINE
  8
0
 10
35.9863
 20
17.0189
 11
35.7837
 21
16.936
  0
LINE
  8
0
 10
35.7837
 20
16.936
 11
35.5811
 21
17.0189
  0
LINE
  8
0
 10
31.5
 20
9
 11
31.5
 21
16
  0
LINE
  8
0
 10
31.5
 20
16
 11
40
 21
16
  0
LINE
  8
0
 10
40
 20
16
 11
40
 21
9
  0
LINE
  8
0
 10
40
 20
9
 11
31.5
 21
9
  0
LINE
  8
0
 10
18.75
 20
9
 11
18.75
 21
16
  0
LINE
  8
0
 10
18.75
 20
16
 11
27.25
 21
16
  0
LINE
  8
0
 10
27.25
 20
16
 11
27.25
 21
9
  0
LINE
  8
0
 10
27.25
 20
9
 11
18.75
 21
9
  0
LINE
  8
0
 10
6
 20
9
 11
6
 21
16
  0
LINE
  8
0
 10
6
 20
16
 11
14.5
 21
16
  0
LINE
  8
0
 10
14.5
 20
16
 11
14.5
 21
9
  0
LINE
  8
0
 10
14.5
 20
9
 11
6
 21
9
  0
LINE
  8
0
 10
44.25
 20
9
 11
44.25
 21
16
  0
LINE
  8
0
 10
44.25
 20
16
 11
52.75
 21
16
  0
LINE
  8
0
 10
52.75
 20
16
 11
52.75
 21
9
  0
LINE
  8
0
 10
52.75
 20
9
 11
44.25
 21
9
  0
ENDSEC
  0
SECTION
  2
OBJECTS
  0
DICTIONARY
  0
ENDSEC
  0
EOF
