  0
SECTION
  2
BLOCKS
  0
ENDSEC
  0
SECTION
  2
ENTITIES
  0
LINE
  8
0
 10
58
 20
63
 11
0
 21
63
  0
LINE
  8
0
 10
0
 20
63
 11
0
 21
0
  0
LINE
  8
0
 10
0
 20
0
 11
58
 21
0
  0
LINE
  8
0
 10
58
 20
0
 11
58
 21
63
  0
LINE
  8
0
 10
25.6873
 20
54.5
 11
25.6873
 21
56.619
  0
LINE
  8
0
 10
25.6873
 20
56.619
 11
24.9833
 21
56.619
  0
LINE
  8
0
 10
24.9833
 20
56.619
 11
24.9833
 21
56.784
  0
LINE
  8
0
 10
24.9833
 20
56.784
 11
25.6873
 21
56.804
  0
LINE
  8
0
 10
25.6873
 20
56.804
 11
25.6873
 21
57.102
  0
LINE
  8
0
 10
25.6873
 20
57.102
 11
25.9038
 21
57.8262
  0
LINE
  8
0
 10
25.9038
 20
57.8262
 11
26.5583
 21
58.084
  0
LINE
  8
0
 10
26.5583
 20
58.084
 11
26.8754
 21
58.0551
  0
LINE
  8
0
 10
26.8754
 20
58.0551
 11
27.2143
 21
57.943
  0
LINE
  8
0
 10
27.2143
 20
57.943
 11
27.1463
 21
57.77
  0
LINE
  8
0
 10
27.1463
 20
57.77
 11
26.8593
 21
57.8731
  0
LINE
  8
0
 10
26.8593
 20
57.8731
 11
26.5723
 21
57.899
  0
LINE
  8
0
 10
26.5723
 20
57.899
 11
26.0482
 21
57.6822
  0
LINE
  8
0
 10
26.0482
 20
57.6822
 11
25.8923
 21
57.122
  0
LINE
  8
0
 10
25.8923
 20
57.122
 11
25.8923
 21
56.804
  0
LINE
  8
0
 10
25.8923
 20
56.804
 11
26.9763
 21
56.804
  0
LINE
  8
0
 10
26.9763
 20
56.804
 11
26.9763
 21
56.619
  0
LINE
  8
0
 10
26.9763
 20
56.619
 11
25.8923
 21
56.619
  0
LINE
  8
0
 10
25.8923
 20
56.619
 11
25.8923
 21
54.5
  0
LINE
  8
0
 10
25.8923
 20
54.5
 11
25.6873
 21
54.5
  0
LINE
  8
0
 10
34.8357
 20
54.5
 11
34.8357
 21
58.02
  0
LINE
  8
0
 10
34.8357
 20
58.02
 11
35.0547
 21
58.02
  0
LINE
  8
0
 10
35.0547
 20
58.02
 11
35.0547
 21
57.023
  0
LINE
  8
0
 10
35.0547
 20
57.023
 11
35.0397
 21
56.405
  0
LINE
  8
0
 10
35.0397
 20
56.405
 11
35.4804
 21
56.7836
  0
LINE
  8
0
 10
35.4804
 20
56.7836
 11
35.9827
 21
56.932
  0
LINE
  8
0
 10
35.9827
 20
56.932
 11
36.6165
 21
56.6971
  0
LINE
  8
0
 10
36.6165
 20
56.6971
 11
36.8237
 21
55.98
  0
LINE
  8
0
 10
36.8237
 20
55.98
 11
36.8237
 21
54.5
  0
LINE
  8
0
 10
36.8237
 20
54.5
 11
36.6047
 21
54.5
  0
LINE
  8
0
 10
36.6047
 20
54.5
 11
36.6047
 21
55.95
  0
LINE
  8
0
 10
36.6047
 20
55.95
 11
36.4499
 21
56.5422
  0
LINE
  8
0
 10
36.4499
 20
56.5422
 11
35.9487
 21
56.737
  0
LINE
  8
0
 10
35.9487
 20
56.737
 11
35.5036
 21
56.6052
  0
LINE
  8
0
 10
35.5036
 20
56.6052
 11
35.0547
 21
56.202
  0
LINE
  8
0
 10
35.0547
 20
56.202
 11
35.0547
 21
54.5
  0
LINE
  8
0
 10
35.0547
 20
54.5
 11
34.8357
 21
54.5
  0
LINE
  8
0
 10
9.93893
 20
54.5236
 11
9.5497
 21
54.759
  0
LINE
  8
0
 10
9.5497
 20
54.759
 11
9.53969
 21
54.759
  0
LINE
  8
0
 10
9.53969
 20
54.759
 11
9.51569
 21
54.5
  0
LINE
  8
0
 10
9.51569
 20
54.5
 11
9.33569
 21
54.5
  0
LINE
  8
0
 10
9.33569
 20
54.5
 11
9.33569
 21
58.02
  0
LINE
  8
0
 10
9.33569
 20
58.02
 11
9.55469
 21
58.02
  0
LINE
  8
0
 10
9.55469
 20
58.02
 11
9.55469
 21
57.023
  0
LINE
  8
0
 10
9.55469
 20
57.023
 11
9.53969
 21
56.518
  0
LINE
  8
0
 10
9.53969
 20
56.518
 11
9.96382
 21
56.818
  0
LINE
  8
0
 10
9.96382
 20
56.818
 11
10.4247
 21
56.932
  0
LINE
  8
0
 10
10.4247
 20
56.932
 11
11.1685
 21
56.6029
  0
LINE
  8
0
 10
11.1685
 20
56.6029
 11
11.4167
 21
55.718
  0
LINE
  8
0
 10
11.4167
 20
55.718
 11
11.0896
 21
54.7732
  0
LINE
  8
0
 10
11.0896
 20
54.7732
 11
10.3327
 21
54.436
  0
LINE
  8
0
 10
10.3327
 20
54.436
 11
9.93893
 21
54.5236
  0
LINE
  8
0
 10
10.9431
 20
54.9292
 11
11.1877
 21
55.718
  0
LINE
  8
0
 10
11.1877
 20
55.718
 11
11.004
 21
56.4501
  0
LINE
  8
0
 10
11.004
 20
56.4501
 11
10.3907
 21
56.742
  0
LINE
  8
0
 10
10.3907
 20
56.742
 11
9.99069
 21
56.6352
  0
LINE
  8
0
 10
9.99069
 20
56.6352
 11
9.55469
 21
56.305
  0
LINE
  8
0
 10
9.55469
 20
56.305
 11
9.55469
 21
54.978
  0
LINE
  8
0
 10
9.55469
 20
54.978
 11
9.96756
 21
54.7062
  0
LINE
  8
0
 10
9.96756
 20
54.7062
 11
10.3227
 21
54.625
  0
LINE
  8
0
 10
10.3227
 20
54.625
 11
10.9431
 21
54.9292
  0
LINE
  8
0
 10
19.3377
 20
54.7555
 11
19.0521
 21
55.678
  0
LINE
  8
0
 10
19.0521
 20
55.678
 11
19.3844
 21
56.5941
  0
LINE
  8
0
 10
19.3844
 20
56.5941
 11
20.1511
 21
56.932
  0
LINE
  8
0
 10
20.1511
 20
56.932
 11
20.5599
 21
56.8445
  0
LINE
  8
0
 10
20.5599
 20
56.8445
 11
20.9291
 21
56.598
  0
LINE
  8
0
 10
20.9291
 20
56.598
 11
20.9141
 21
57.07
  0
LINE
  8
0
 10
20.9141
 20
57.07
 11
20.9141
 21
58.02
  0
LINE
  8
0
 10
20.9141
 20
58.02
 11
21.1331
 21
58.02
  0
LINE
  8
0
 10
21.1331
 20
58.02
 11
21.1331
 21
54.5
  0
LINE
  8
0
 10
21.1331
 20
54.5
 11
20.9481
 21
54.5
  0
LINE
  8
0
 10
20.9481
 20
54.5
 11
20.9241
 21
54.844
  0
LINE
  8
0
 10
20.9241
 20
54.844
 11
20.9141
 21
54.844
  0
LINE
  8
0
 10
20.9141
 20
54.844
 11
20.5443
 21
54.5579
  0
LINE
  8
0
 10
20.5443
 20
54.5579
 11
20.0831
 21
54.436
  0
LINE
  8
0
 10
20.0831
 20
54.436
 11
19.3377
 21
54.7555
  0
LINE
  8
0
 10
20.5183
 20
54.7392
 11
20.9141
 21
55.062
  0
LINE
  8
0
 10
20.9141
 20
55.062
 11
20.9141
 21
56.389
  0
LINE
  8
0
 10
20.9141
 20
56.389
 11
20.5328
 21
56.6604
  0
LINE
  8
0
 10
20.5328
 20
56.6604
 11
20.1651
 21
56.742
  0
LINE
  8
0
 10
20.1651
 20
56.742
 11
19.5389
 21
56.4357
  0
LINE
  8
0
 10
19.5389
 20
56.4357
 11
19.2811
 21
55.678
  0
LINE
  8
0
 10
19.2811
 20
55.678
 11
19.5016
 21
54.9149
  0
LINE
  8
0
 10
19.5016
 20
54.9149
 11
20.1121
 21
54.625
  0
LINE
  8
0
 10
20.1121
 20
54.625
 11
20.5183
 21
54.7392
  0
LINE
  8
0
 10
38.7091
 20
57.4246
 11
38.6423
 21
57.594
  0
LINE
  8
0
 10
38.6423
 20
57.594
 11
38.7091
 21
57.7639
  0
LINE
  8
0
 10
38.7091
 20
57.7639
 11
38.8703
 21
57.828
  0
LINE
  8
0
 10
38.8703
 20
57.828
 11
39.0339
 21
57.7639
  0
LINE
  8
0
 10
39.0339
 20
57.7639
 11
39.0993
 21
57.594
  0
LINE
  8
0
 10
39.0993
 20
57.594
 11
39.0339
 21
57.4246
  0
LINE
  8
0
 10
39.0339
 20
57.4246
 11
38.8703
 21
57.361
  0
LINE
  8
0
 10
38.8703
 20
57.361
 11
38.7091
 21
57.4246
  0
LINE
  8
0
 10
43.6524
 20
54.5707
 11
43.1717
 21
54.917
  0
LINE
  8
0
 10
43.1717
 20
54.917
 11
43.3177
 21
55.073
  0
LINE
  8
0
 10
43.3177
 20
55.073
 11
43.7546
 21
54.7579
  0
LINE
  8
0
 10
43.7546
 20
54.7579
 11
44.3047
 21
54.64
  0
LINE
  8
0
 10
44.3047
 20
54.64
 11
44.9227
 21
54.819
  0
LINE
  8
0
 10
44.9227
 20
54.819
 11
45.1507
 21
55.283
  0
LINE
  8
0
 10
45.1507
 20
55.283
 11
44.9646
 21
55.7162
  0
LINE
  8
0
 10
44.9646
 20
55.7162
 11
44.5227
 21
55.956
  0
LINE
  8
0
 10
44.5227
 20
55.956
 11
44.0367
 21
56.175
  0
LINE
  8
0
 10
44.0367
 20
56.175
 11
43.5782
 21
56.4414
  0
LINE
  8
0
 10
43.5782
 20
56.4414
 11
43.3417
 21
56.974
  0
LINE
  8
0
 10
43.3417
 20
56.974
 11
43.6206
 21
57.5426
  0
LINE
  8
0
 10
43.6206
 20
57.5426
 11
44.3187
 21
57.764
  0
LINE
  8
0
 10
44.3187
 20
57.764
 11
44.8652
 21
57.6499
  0
LINE
  8
0
 10
44.8652
 20
57.6499
 11
45.2617
 21
57.379
  0
LINE
  8
0
 10
45.2617
 20
57.379
 11
45.1307
 21
57.228
  0
LINE
  8
0
 10
45.1307
 20
57.228
 11
44.778
 21
57.4685
  0
LINE
  8
0
 10
44.778
 20
57.4685
 11
44.3187
 21
57.559
  0
LINE
  8
0
 10
44.3187
 20
57.559
 11
43.7727
 21
57.4031
  0
LINE
  8
0
 10
43.7727
 20
57.4031
 11
43.5657
 21
56.984
  0
LINE
  8
0
 10
43.5657
 20
56.984
 11
43.7724
 21
56.5759
  0
LINE
  8
0
 10
43.7724
 20
56.5759
 11
44.1687
 21
56.365
  0
LINE
  8
0
 10
44.1687
 20
56.365
 11
44.6497
 21
56.151
  0
LINE
  8
0
 10
44.6497
 20
56.151
 11
45.1557
 21
55.8486
  0
LINE
  8
0
 10
45.1557
 20
55.8486
 11
45.3737
 21
55.298
  0
LINE
  8
0
 10
45.3737
 20
55.298
 11
45.0815
 21
54.6821
  0
LINE
  8
0
 10
45.0815
 20
54.6821
 11
44.3047
 21
54.436
  0
LINE
  8
0
 10
44.3047
 20
54.436
 11
43.6524
 21
54.5707
  0
LINE
  8
0
 10
46.0834
 20
54.5
 11
46.0834
 21
57.7
  0
LINE
  8
0
 10
46.0834
 20
57.7
 11
46.3074
 21
57.7
  0
LINE
  8
0
 10
46.3074
 20
57.7
 11
46.3074
 21
56.294
  0
LINE
  8
0
 10
46.3074
 20
56.294
 11
47.9114
 21
56.294
  0
LINE
  8
0
 10
47.9114
 20
56.294
 11
47.9114
 21
57.7
  0
LINE
  8
0
 10
47.9114
 20
57.7
 11
48.1354
 21
57.7
  0
LINE
  8
0
 10
48.1354
 20
57.7
 11
48.1354
 21
54.5
  0
LINE
  8
0
 10
48.1354
 20
54.5
 11
47.9114
 21
54.5
  0
LINE
  8
0
 10
47.9114
 20
54.5
 11
47.9114
 21
56.1
  0
LINE
  8
0
 10
47.9114
 20
56.1
 11
46.3074
 21
56.1
  0
LINE
  8
0
 10
46.3074
 20
56.1
 11
46.3074
 21
54.5
  0
LINE
  8
0
 10
46.3074
 20
54.5
 11
46.0834
 21
54.5
  0
LINE
  8
0
 10
49.229
 20
54.5
 11
49.229
 21
57.7
  0
LINE
  8
0
 10
49.229
 20
57.7
 11
51.1
 21
57.7
  0
LINE
  8
0
 10
51.1
 20
57.7
 11
51.1
 21
57.505
  0
LINE
  8
0
 10
51.1
 20
57.505
 11
49.447
 21
57.505
  0
LINE
  8
0
 10
49.447
 20
57.505
 11
49.447
 21
56.23
  0
LINE
  8
0
 10
49.447
 20
56.23
 11
50.838
 21
56.23
  0
LINE
  8
0
 10
50.838
 20
56.23
 11
50.838
 21
56.036
  0
LINE
  8
0
 10
50.838
 20
56.036
 11
49.447
 21
56.036
  0
LINE
  8
0
 10
49.447
 20
56.036
 11
49.447
 21
54.5
  0
LINE
  8
0
 10
49.447
 20
54.5
 11
49.229
 21
54.5
  0
LINE
  8
0
 10
52.6946
 20
54.5
 11
52.6946
 21
57.505
  0
LINE
  8
0
 10
52.6946
 20
57.505
 11
51.5816
 21
57.505
  0
LINE
  8
0
 10
51.5816
 20
57.505
 11
51.5816
 21
57.7
  0
LINE
  8
0
 10
51.5816
 20
57.7
 11
54.0316
 21
57.7
  0
LINE
  8
0
 10
54.0316
 20
57.7
 11
54.0316
 21
57.505
  0
LINE
  8
0
 10
54.0316
 20
57.505
 11
52.9186
 21
57.505
  0
LINE
  8
0
 10
52.9186
 20
57.505
 11
52.9186
 21
54.5
  0
LINE
  8
0
 10
52.9186
 20
54.5
 11
52.6946
 21
54.5
  0
LINE
  8
0
 10
22.3131
 20
54.7642
 11
21.9497
 21
55.676
  0
LINE
  8
0
 10
21.9497
 20
55.676
 11
22.3104
 21
56.5969
  0
LINE
  8
0
 10
22.3104
 20
56.5969
 11
23.1167
 21
56.932
  0
LINE
  8
0
 10
23.1167
 20
56.932
 11
23.8777
 21
56.6382
  0
LINE
  8
0
 10
23.8777
 20
56.6382
 11
24.1617
 21
55.827
  0
LINE
  8
0
 10
24.1617
 20
55.827
 11
24.1604
 21
55.7391
  0
LINE
  8
0
 10
24.1604
 20
55.7391
 11
24.1517
 21
55.652
  0
LINE
  8
0
 10
24.1517
 20
55.652
 11
22.1727
 21
55.652
  0
LINE
  8
0
 10
22.1727
 20
55.652
 11
22.4618
 21
54.911
  0
LINE
  8
0
 10
22.4618
 20
54.911
 11
23.1987
 21
54.62
  0
LINE
  8
0
 10
23.1987
 20
54.62
 11
23.6222
 21
54.6912
  0
LINE
  8
0
 10
23.6222
 20
54.6912
 11
23.9767
 21
54.878
  0
LINE
  8
0
 10
23.9767
 20
54.878
 11
24.0647
 21
54.709
  0
LINE
  8
0
 10
24.0647
 20
54.709
 11
23.6949
 21
54.5211
  0
LINE
  8
0
 10
23.6949
 20
54.5211
 11
23.1797
 21
54.436
  0
LINE
  8
0
 10
23.1797
 20
54.436
 11
22.3131
 21
54.7642
  0
LINE
  8
0
 10
23.7245
 20
56.5139
 11
23.1207
 21
56.747
  0
LINE
  8
0
 10
23.1207
 20
56.747
 11
22.4997
 21
56.5007
  0
LINE
  8
0
 10
22.4997
 20
56.5007
 11
22.1727
 21
55.827
  0
LINE
  8
0
 10
22.1727
 20
55.827
 11
23.9527
 21
55.827
  0
LINE
  8
0
 10
23.9527
 20
55.827
 11
23.7245
 21
56.5139
  0
LINE
  8
0
 10
6.67331
 20
54.592
 11
6.42406
 21
55.087
  0
LINE
  8
0
 10
6.42406
 20
55.087
 11
6.84456
 21
55.6937
  0
LINE
  8
0
 10
6.84456
 20
55.6937
 11
8.21306
 21
55.99
  0
LINE
  8
0
 10
8.21306
 20
55.99
 11
8.06393
 21
56.5126
  0
LINE
  8
0
 10
8.06393
 20
56.5126
 11
7.51805
 21
56.742
  0
LINE
  8
0
 10
7.51805
 20
56.742
 11
7.01706
 21
56.6331
  0
LINE
  8
0
 10
7.01706
 20
56.6331
 11
6.63306
 21
56.42
  0
LINE
  8
0
 10
6.63306
 20
56.42
 11
6.53606
 21
56.584
  0
LINE
  8
0
 10
6.53606
 20
56.584
 11
6.95319
 21
56.8079
  0
LINE
  8
0
 10
6.95319
 20
56.8079
 11
7.54205
 21
56.932
  0
LINE
  8
0
 10
7.54205
 20
56.932
 11
8.21968
 21
56.6667
  0
LINE
  8
0
 10
8.21968
 20
56.6667
 11
8.42706
 21
56.019
  0
LINE
  8
0
 10
8.42706
 20
56.019
 11
8.42706
 21
54.5
  0
LINE
  8
0
 10
8.42706
 20
54.5
 11
8.24706
 21
54.5
  0
LINE
  8
0
 10
8.24706
 20
54.5
 11
8.22206
 21
54.849
  0
LINE
  8
0
 10
8.22206
 20
54.849
 11
8.21306
 21
54.849
  0
LINE
  8
0
 10
8.21306
 20
54.849
 11
7.75156
 21
54.5604
  0
LINE
  8
0
 10
7.75156
 20
54.5604
 11
7.23605
 21
54.436
  0
LINE
  8
0
 10
7.23605
 20
54.436
 11
6.67331
 21
54.592
  0
LINE
  8
0
 10
7.7308
 20
54.73
 11
8.21306
 21
55.053
  0
LINE
  8
0
 10
8.21306
 20
55.053
 11
8.21306
 21
55.818
  0
LINE
  8
0
 10
8.21306
 20
55.818
 11
6.98331
 21
55.5599
  0
LINE
  8
0
 10
6.98331
 20
55.5599
 11
6.64305
 21
55.097
  0
LINE
  8
0
 10
6.64305
 20
55.097
 11
6.84006
 21
54.7299
  0
LINE
  8
0
 10
6.84006
 20
54.7299
 11
7.27406
 21
54.62
  0
LINE
  8
0
 10
7.27406
 20
54.62
 11
7.7308
 21
54.73
  0
LINE
  8
0
 10
12.4568
 20
54.7607
 11
12.0963
 21
55.678
  0
LINE
  8
0
 10
12.0963
 20
55.678
 11
12.4708
 21
56.605
  0
LINE
  8
0
 10
12.4708
 20
56.605
 11
13.3703
 21
56.932
  0
LINE
  8
0
 10
13.3703
 20
56.932
 11
13.8639
 21
56.823
  0
LINE
  8
0
 10
13.8639
 20
56.823
 11
14.2113
 21
56.573
  0
LINE
  8
0
 10
14.2113
 20
56.573
 11
14.0853
 21
56.424
  0
LINE
  8
0
 10
14.0853
 20
56.424
 11
13.7629
 21
56.6539
  0
LINE
  8
0
 10
13.7629
 20
56.6539
 11
13.3753
 21
56.742
  0
LINE
  8
0
 10
13.3753
 20
56.742
 11
12.6171
 21
56.4466
  0
LINE
  8
0
 10
12.6171
 20
56.4466
 11
12.3253
 21
55.678
  0
LINE
  8
0
 10
12.3253
 20
55.678
 11
12.6127
 21
54.9167
  0
LINE
  8
0
 10
12.6127
 20
54.9167
 11
13.3703
 21
54.625
  0
LINE
  8
0
 10
13.3703
 20
54.625
 11
13.8044
 21
54.7219
  0
LINE
  8
0
 10
13.8044
 20
54.7219
 11
14.1583
 21
54.968
  0
LINE
  8
0
 10
14.1583
 20
54.968
 11
14.2693
 21
54.814
  0
LINE
  8
0
 10
14.2693
 20
54.814
 11
13.8624
 21
54.5395
  0
LINE
  8
0
 10
13.8624
 20
54.5395
 11
13.3603
 21
54.436
  0
LINE
  8
0
 10
13.3603
 20
54.436
 11
12.4568
 21
54.7607
  0
LINE
  8
0
 10
31.5
 20
46.5
 11
31.5
 21
53.5
  0
LINE
  8
0
 10
31.5
 20
53.5
 11
32.3789
 21
53.5
  0
LINE
  8
0
 10
32.3789
 20
53.5
 11
32.1562
 21
53.5509
  0
LINE
  8
0
 10
32.1562
 20
53.5509
 11
31.8851
 21
54.049
  0
LINE
  8
0
 10
31.8851
 20
54.049
 11
31.9872
 21
54.3391
  0
LINE
  8
0
 10
31.9872
 20
54.3391
 11
32.2791
 21
54.603
  0
LINE
  8
0
 10
32.2791
 20
54.603
 11
32.2791
 21
54.622
  0
LINE
  8
0
 10
32.2791
 20
54.622
 11
32.1137
 21
54.754
  0
LINE
  8
0
 10
32.1137
 20
54.754
 11
32.0361
 21
54.985
  0
LINE
  8
0
 10
32.0361
 20
54.985
 11
32.1077
 21
55.2097
  0
LINE
  8
0
 10
32.1077
 20
55.2097
 11
32.3181
 21
55.421
  0
LINE
  8
0
 10
32.3181
 20
55.421
 11
32.3181
 21
55.441
  0
LINE
  8
0
 10
32.3181
 20
55.441
 11
32.1224
 21
55.693
  0
LINE
  8
0
 10
32.1224
 20
55.693
 11
32.0401
 21
56.071
  0
LINE
  8
0
 10
32.0401
 20
56.071
 11
32.2967
 21
56.6901
  0
LINE
  8
0
 10
32.2967
 20
56.6901
 11
32.9111
 21
56.932
  0
LINE
  8
0
 10
32.9111
 20
56.932
 11
33.0838
 21
56.9085
  0
LINE
  8
0
 10
33.0838
 20
56.9085
 11
33.2311
 21
56.804
  0
LINE
  8
0
 10
33.2311
 20
56.804
 11
34.2041
 21
56.804
  0
LINE
  8
0
 10
34.2041
 20
56.804
 11
34.2041
 21
56.624
  0
LINE
  8
0
 10
34.2041
 20
56.624
 11
33.4941
 21
56.624
  0
LINE
  8
0
 10
33.4941
 20
56.624
 11
33.6873
 21
56.3691
  0
LINE
  8
0
 10
33.6873
 20
56.3691
 11
33.7711
 21
56.031
  0
LINE
  8
0
 10
33.7711
 20
56.031
 11
33.5196
 21
55.451
  0
LINE
  8
0
 10
33.5196
 20
55.451
 11
32.9111
 21
55.225
  0
LINE
  8
0
 10
32.9111
 20
55.225
 11
32.6896
 21
55.2511
  0
LINE
  8
0
 10
32.6896
 20
55.2511
 11
32.4681
 21
55.332
  0
LINE
  8
0
 10
32.4681
 20
55.332
 11
32.3031
 21
55.1886
  0
LINE
  8
0
 10
32.3031
 20
55.1886
 11
32.2401
 21
55.016
  0
LINE
  8
0
 10
32.2401
 20
55.016
 11
32.3877
 21
54.7794
  0
LINE
  8
0
 10
32.3877
 20
54.7794
 11
32.7791
 21
54.704
  0
LINE
  8
0
 10
32.7791
 20
54.704
 11
33.3581
 21
54.704
  0
LINE
  8
0
 10
33.3581
 20
54.704
 11
34.0059
 21
54.581
  0
LINE
  8
0
 10
34.0059
 20
54.581
 11
34.2091
 21
54.173
  0
LINE
  8
0
 10
34.2091
 20
54.173
 11
33.8739
 21
53.6144
  0
LINE
  8
0
 10
33.8739
 20
53.6144
 11
33.4628
 21
53.5
  0
LINE
  8
0
 10
33.4628
 20
53.5
 11
40
 21
53.5
  0
LINE
  8
0
 10
40
 20
53.5
 11
40
 21
46.5
  0
LINE
  8
0
 10
40
 20
46.5
 11
31.5
 21
46.5
  0
LINE
  8
0
 10
33.3693
 20
55.5735
 11
33.5621
 21
56.036
  0
LINE
  8
0
 10
33.5621
 20
56.036
 11
33.3693
 21
56.5025
  0
LINE
  8
0
 10
33.3693
 20
56.5025
 11
32.9111
 21
56.687
  0
LINE
  8
0
 10
32.9111
 20
56.687
 11
32.4501
 21
56.5025
  0
LINE
  8
0
 10
32.4501
 20
56.5025
 11
32.2591
 21
56.036
  0
LINE
  8
0
 10
32.2591
 20
56.036
 11
32.4501
 21
55.5735
  0
LINE
  8
0
 10
32.4501
 20
55.5735
 11
32.9111
 21
55.396
  0
LINE
  8
0
 10
32.9111
 20
55.396
 11
33.3693
 21
55.5735
  0
LINE
  8
0
 10
33.7128
 20
53.7326
 11
33.9851
 21
54.148
  0
LINE
  8
0
 10
33.9851
 20
54.148
 11
33.8344
 21
54.4241
  0
LINE
  8
0
 10
33.8344
 20
54.4241
 11
33.3771
 21
54.5
  0
LINE
  8
0
 10
33.3771
 20
54.5
 11
32.8231
 21
54.5
  0
LINE
  8
0
 10
32.8231
 20
54.5
 11
32.6418
 21
54.5087
  0
LINE
  8
0
 10
32.6418
 20
54.5087
 11
32.4681
 21
54.543
  0
LINE
  8
0
 10
32.4681
 20
54.543
 11
32.1728
 21
54.3014
  0
LINE
  8
0
 10
32.1728
 20
54.3014
 11
32.0891
 21
54.044
  0
LINE
  8
0
 10
32.0891
 20
54.044
 11
32.3054
 21
53.6844
  0
LINE
  8
0
 10
32.3054
 20
53.6844
 11
32.9591
 21
53.54
  0
LINE
  8
0
 10
32.9591
 20
53.54
 11
33.7128
 21
53.7326
  0
LINE
  8
0
 10
38.8173
 20
54.5
 11
38.8173
 21
56.619
  0
LINE
  8
0
 10
38.8173
 20
56.619
 11
37.6453
 21
56.619
  0
LINE
  8
0
 10
37.6453
 20
56.619
 11
37.6453
 21
56.804
  0
LINE
  8
0
 10
37.6453
 20
56.804
 11
39.0313
 21
56.804
  0
LINE
  8
0
 10
39.0313
 20
56.804
 11
39.0313
 21
54.5
  0
LINE
  8
0
 10
39.0313
 20
54.5
 11
38.8173
 21
54.5
  0
LINE
  8
0
 10
18.75
 20
46.5
 11
18.75
 21
53.5
  0
LINE
  8
0
 10
18.75
 20
53.5
 11
27.25
 21
53.5
  0
LINE
  8
0
 10
27.25
 20
53.5
 11
27.25
 21
46.5
  0
LINE
  8
0
 10
27.25
 20
46.5
 11
18.75
 21
46.5
  0
LINE
  8
0
 10
44.25
 20
46.5
 11
44.25
 21
53.5
  0
LINE
  8
0
 10
44.25
 20
53.5
 11
52.75
 21
53.5
  0
LINE
  8
0
 10
52.75
 20
53.5
 11
52.75
 21
46.5
  0
LINE
  8
0
 10
52.75
 20
46.5
 11
44.25
 21
46.5
  0
LINE
  8
0
 10
6
 20
46.5
 11
6
 21
53.5
  0
LINE
  8
0
 10
6
 20
53.5
 11
14.5
 21
53.5
  0
LINE
  8
0
 10
14.5
 20
53.5
 11
14.5
 21
46.5
  0
LINE
  8
0
 10
14.5
 20
46.5
 11
6
 21
46.5
  0
LINE
  8
0
 10
13.1706
 20
42.1194
 11
12.9913
 21
42.704
  0
LINE
  8
0
 10
12.9913
 20
42.704
 11
12.9913
 21
45.335
  0
LINE
  8
0
 10
12.9913
 20
45.335
 11
12.1263
 21
45.335
  0
LINE
  8
0
 10
12.1263
 20
45.335
 11
12.1263
 21
45.52
  0
LINE
  8
0
 10
12.1263
 20
45.52
 11
13.2053
 21
45.52
  0
LINE
  8
0
 10
13.2053
 20
45.52
 11
13.2053
 21
42.675
  0
LINE
  8
0
 10
13.2053
 20
42.675
 11
13.3341
 21
42.2601
  0
LINE
  8
0
 10
13.3341
 20
42.2601
 11
13.7103
 21
42.125
  0
LINE
  8
0
 10
13.7103
 20
42.125
 11
13.9392
 21
42.1556
  0
LINE
  8
0
 10
13.9392
 20
42.1556
 11
14.1973
 21
42.253
  0
LINE
  8
0
 10
14.1973
 20
42.253
 11
14.2653
 21
42.081
  0
LINE
  8
0
 10
14.2653
 20
42.081
 11
13.9879
 21
41.9796
  0
LINE
  8
0
 10
13.9879
 20
41.9796
 11
13.6813
 21
41.936
  0
LINE
  8
0
 10
13.6813
 20
41.936
 11
13.1706
 21
42.1194
  0
LINE
  8
0
 10
9.42268
 20
42
 11
9.42268
 21
45.52
  0
LINE
  8
0
 10
9.42268
 20
45.52
 11
9.64169
 21
45.52
  0
LINE
  8
0
 10
9.64169
 20
45.52
 11
9.64169
 21
42.916
  0
LINE
  8
0
 10
9.64169
 20
42.916
 11
9.6617
 21
42.916
  0
LINE
  8
0
 10
9.6617
 20
42.916
 11
11.1587
 21
44.304
  0
LINE
  8
0
 10
11.1587
 20
44.304
 11
11.4257
 21
44.304
  0
LINE
  8
0
 10
11.4257
 20
44.304
 11
10.4687
 21
43.411
  0
LINE
  8
0
 10
10.4687
 20
43.411
 11
11.5817
 21
42
  0
LINE
  8
0
 10
11.5817
 20
42
 11
11.3337
 21
42
  0
LINE
  8
0
 10
11.3337
 20
42
 11
10.3177
 21
43.281
  0
LINE
  8
0
 10
10.3177
 20
43.281
 11
9.64169
 21
42.652
  0
LINE
  8
0
 10
9.64169
 20
42.652
 11
9.64169
 21
42
  0
LINE
  8
0
 10
9.64169
 20
42
 11
9.42268
 21
42
  0
LINE
  8
0
 10
50.4783
 20
41.226
 11
52.0673
 21
45.456
  0
LINE
  8
0
 10
52.0673
 20
45.456
 11
52.2863
 21
45.456
  0
LINE
  8
0
 10
52.2863
 20
45.456
 11
50.6963
 21
41.226
  0
LINE
  8
0
 10
50.6963
 20
41.226
 11
50.4783
 21
41.226
  0
LINE
  8
0
 10
7.51181
 20
44.9246
 11
7.44505
 21
45.094
  0
LINE
  8
0
 10
7.44505
 20
45.094
 11
7.51181
 21
45.2639
  0
LINE
  8
0
 10
7.51181
 20
45.2639
 11
7.67307
 21
45.328
  0
LINE
  8
0
 10
7.67307
 20
45.328
 11
7.83669
 21
45.2639
  0
LINE
  8
0
 10
7.83669
 20
45.2639
 11
7.90205
 21
45.094
  0
LINE
  8
0
 10
7.90205
 20
45.094
 11
7.83669
 21
44.9246
  0
LINE
  8
0
 10
7.83669
 20
44.9246
 11
7.67307
 21
44.861
  0
LINE
  8
0
 10
7.67307
 20
44.861
 11
7.51181
 21
44.9246
  0
LINE
  8
0
 10
22.0857
 20
42
 11
22.0857
 21
44.304
  0
LINE
  8
0
 10
22.0857
 20
44.304
 11
22.2707
 21
44.304
  0
LINE
  8
0
 10
22.2707
 20
44.304
 11
22.2947
 21
43.92
  0
LINE
  8
0
 10
22.2947
 20
43.92
 11
22.3137
 21
43.92
  0
LINE
  8
0
 10
22.3137
 20
43.92
 11
22.7334
 21
44.2855
  0
LINE
  8
0
 10
22.7334
 20
44.2855
 11
23.2327
 21
44.432
  0
LINE
  8
0
 10
23.2327
 20
44.432
 11
23.8665
 21
44.1971
  0
LINE
  8
0
 10
23.8665
 20
44.1971
 11
24.0737
 21
43.48
  0
LINE
  8
0
 10
24.0737
 20
43.48
 11
24.0737
 21
42
  0
LINE
  8
0
 10
24.0737
 20
42
 11
23.8547
 21
42
  0
LINE
  8
0
 10
23.8547
 20
42
 11
23.8547
 21
43.45
  0
LINE
  8
0
 10
23.8547
 20
43.45
 11
23.6999
 21
44.0422
  0
LINE
  8
0
 10
23.6999
 20
44.0422
 11
23.1987
 21
44.237
  0
LINE
  8
0
 10
23.1987
 20
44.237
 11
22.7536
 21
44.1052
  0
LINE
  8
0
 10
22.7536
 20
44.1052
 11
22.3047
 21
43.702
  0
LINE
  8
0
 10
22.3047
 20
43.702
 11
22.3047
 21
42
  0
LINE
  8
0
 10
22.3047
 20
42
 11
22.0857
 21
42
  0
LINE
  8
0
 10
19.0911
 20
42
 11
19.0911
 21
44.304
  0
LINE
  8
0
 10
19.0911
 20
44.304
 11
19.2661
 21
44.304
  0
LINE
  8
0
 10
19.2661
 20
44.304
 11
19.2901
 21
44.054
  0
LINE
  8
0
 10
19.2901
 20
44.054
 11
19.3001
 21
44.054
  0
LINE
  8
0
 10
19.3001
 20
44.054
 11
19.5218
 21
44.33
  0
LINE
  8
0
 10
19.5218
 20
44.33
 11
19.8351
 21
44.432
  0
LINE
  8
0
 10
19.8351
 20
44.432
 11
20.1413
 21
44.3284
  0
LINE
  8
0
 10
20.1413
 20
44.3284
 11
20.3021
 21
44.014
  0
LINE
  8
0
 10
20.3021
 20
44.014
 11
20.5559
 21
44.3231
  0
LINE
  8
0
 10
20.5559
 20
44.3231
 11
20.8751
 21
44.432
  0
LINE
  8
0
 10
20.8751
 20
44.432
 11
21.2484
 21
44.2551
  0
LINE
  8
0
 10
21.2484
 20
44.2551
 11
21.3811
 21
43.722
  0
LINE
  8
0
 10
21.3811
 20
43.722
 11
21.3811
 21
42
  0
LINE
  8
0
 10
21.3811
 20
42
 11
21.1721
 21
42
  0
LINE
  8
0
 10
21.1721
 20
42
 11
21.1721
 21
43.697
  0
LINE
  8
0
 10
21.1721
 20
43.697
 11
21.0874
 21
44.1009
  0
LINE
  8
0
 10
21.0874
 20
44.1009
 11
20.8311
 21
44.237
  0
LINE
  8
0
 10
20.8311
 20
44.237
 11
20.5608
 21
44.1254
  0
LINE
  8
0
 10
20.5608
 20
44.1254
 11
20.3311
 21
43.791
  0
LINE
  8
0
 10
20.3311
 20
43.791
 11
20.3311
 21
42
  0
LINE
  8
0
 10
20.3311
 20
42
 11
20.1361
 21
42
  0
LINE
  8
0
 10
20.1361
 20
42
 11
20.1361
 21
43.697
  0
LINE
  8
0
 10
20.1361
 20
43.697
 11
20.0522
 21
44.1009
  0
LINE
  8
0
 10
20.0522
 20
44.1009
 11
19.8011
 21
44.237
  0
LINE
  8
0
 10
19.8011
 20
44.237
 11
19.5269
 21
44.1254
  0
LINE
  8
0
 10
19.5269
 20
44.1254
 11
19.3001
 21
43.791
  0
LINE
  8
0
 10
19.3001
 20
43.791
 11
19.3001
 21
42
  0
LINE
  8
0
 10
19.3001
 20
42
 11
19.0911
 21
42
  0
LINE
  8
0
 10
31.5
 20
34
 11
31.5
 21
41
  0
LINE
  8
0
 10
31.5
 20
41
 11
31.9871
 21
41
  0
LINE
  8
0
 10
31.9871
 20
41
 11
31.9871
 21
44.304
  0
LINE
  8
0
 10
31.9871
 20
44.304
 11
32.1721
 21
44.304
  0
LINE
  8
0
 10
32.1721
 20
44.304
 11
32.1961
 21
44.033
  0
LINE
  8
0
 10
32.1961
 20
44.033
 11
32.2061
 21
44.033
  0
LINE
  8
0
 10
32.2061
 20
44.033
 11
32.6152
 21
44.318
  0
LINE
  8
0
 10
32.6152
 20
44.318
 11
33.0761
 21
44.432
  0
LINE
  8
0
 10
33.0761
 20
44.432
 11
33.8199
 21
44.1029
  0
LINE
  8
0
 10
33.8199
 20
44.1029
 11
34.0681
 21
43.218
  0
LINE
  8
0
 10
34.0681
 20
43.218
 11
33.7397
 21
42.2732
  0
LINE
  8
0
 10
33.7397
 20
42.2732
 11
32.9741
 21
41.936
  0
LINE
  8
0
 10
32.9741
 20
41.936
 11
32.5928
 21
42.023
  0
LINE
  8
0
 10
32.5928
 20
42.023
 11
32.2011
 21
42.269
  0
LINE
  8
0
 10
32.2011
 20
42.269
 11
32.2061
 21
41.795
  0
LINE
  8
0
 10
32.2061
 20
41.795
 11
32.2061
 21
41
  0
LINE
  8
0
 10
32.2061
 20
41
 11
36.5127
 21
41
  0
LINE
  8
0
 10
36.5127
 20
41
 11
36.5127
 21
41.884
  0
LINE
  8
0
 10
36.5127
 20
41.884
 11
36.5277
 21
42.349
  0
LINE
  8
0
 10
36.5277
 20
42.349
 11
36.1411
 21
42.0566
  0
LINE
  8
0
 10
36.1411
 20
42.0566
 11
35.6817
 21
41.936
  0
LINE
  8
0
 10
35.6817
 20
41.936
 11
34.9363
 21
42.2555
  0
LINE
  8
0
 10
34.9363
 20
42.2555
 11
34.6507
 21
43.178
  0
LINE
  8
0
 10
34.6507
 20
43.178
 11
34.9831
 21
44.0941
  0
LINE
  8
0
 10
34.9831
 20
44.0941
 11
35.7497
 21
44.432
  0
LINE
  8
0
 10
35.7497
 20
44.432
 11
36.1573
 21
44.3451
  0
LINE
  8
0
 10
36.1573
 20
44.3451
 11
36.5177
 21
44.103
  0
LINE
  8
0
 10
36.5177
 20
44.103
 11
36.5277
 21
44.103
  0
LINE
  8
0
 10
36.5277
 20
44.103
 11
36.5517
 21
44.304
  0
LINE
  8
0
 10
36.5517
 20
44.304
 11
36.7317
 21
44.304
  0
LINE
  8
0
 10
36.7317
 20
44.304
 11
36.7317
 21
41
  0
LINE
  8
0
 10
36.7317
 20
41
 11
40
 21
41
  0
LINE
  8
0
 10
40
 20
41
 11
40
 21
34
  0
LINE
  8
0
 10
40
 20
34
 11
31.5
 21
34
  0
LINE
  8
0
 10
33.5932
 20
42.4292
 11
33.8391
 21
43.218
  0
LINE
  8
0
 10
33.8391
 20
43.218
 11
33.6554
 21
43.9501
  0
LINE
  8
0
 10
33.6554
 20
43.9501
 11
33.0421
 21
44.242
  0
LINE
  8
0
 10
33.0421
 20
44.242
 11
32.6421
 21
44.1352
  0
LINE
  8
0
 10
32.6421
 20
44.1352
 11
32.2061
 21
43.805
  0
LINE
  8
0
 10
32.2061
 20
43.805
 11
32.2061
 21
42.467
  0
LINE
  8
0
 10
32.2061
 20
42.467
 11
32.6177
 21
42.2037
  0
LINE
  8
0
 10
32.6177
 20
42.2037
 11
32.9641
 21
42.125
  0
LINE
  8
0
 10
32.9641
 20
42.125
 11
33.5932
 21
42.4292
  0
LINE
  8
0
 10
36.1169
 20
42.2392
 11
36.5127
 21
42.562
  0
LINE
  8
0
 10
36.5127
 20
42.562
 11
36.5127
 21
43.889
  0
LINE
  8
0
 10
36.5127
 20
43.889
 11
36.1314
 21
44.1604
  0
LINE
  8
0
 10
36.1314
 20
44.1604
 11
35.7637
 21
44.242
  0
LINE
  8
0
 10
35.7637
 20
44.242
 11
35.1376
 21
43.9357
  0
LINE
  8
0
 10
35.1376
 20
43.9357
 11
34.8797
 21
43.178
  0
LINE
  8
0
 10
34.8797
 20
43.178
 11
35.1002
 21
42.4149
  0
LINE
  8
0
 10
35.1002
 20
42.4149
 11
35.7107
 21
42.125
  0
LINE
  8
0
 10
35.7107
 20
42.125
 11
36.1169
 21
42.2392
  0
LINE
  8
0
 10
37.9663
 20
42
 11
37.9663
 21
44.304
  0
LINE
  8
0
 10
37.9663
 20
44.304
 11
38.1513
 21
44.304
  0
LINE
  8
0
 10
38.1513
 20
44.304
 11
38.1753
 21
43.792
  0
LINE
  8
0
 10
38.1753
 20
43.792
 11
38.1853
 21
43.792
  0
LINE
  8
0
 10
38.1853
 20
43.792
 11
38.6541
 21
44.253
  0
LINE
  8
0
 10
38.6541
 20
44.253
 11
39.2833
 21
44.432
  0
LINE
  8
0
 10
39.2833
 20
44.432
 11
39.5206
 21
44.4122
  0
LINE
  8
0
 10
39.5206
 20
44.4122
 11
39.7503
 21
44.334
  0
LINE
  8
0
 10
39.7503
 20
44.334
 11
39.6923
 21
44.143
  0
LINE
  8
0
 10
39.6923
 20
44.143
 11
39.4764
 21
44.2075
  0
LINE
  8
0
 10
39.4764
 20
44.2075
 11
39.2493
 21
44.227
  0
LINE
  8
0
 10
39.2493
 20
44.227
 11
38.6918
 21
44.0585
  0
LINE
  8
0
 10
38.6918
 20
44.0585
 11
38.1853
 21
43.485
  0
LINE
  8
0
 10
38.1853
 20
43.485
 11
38.1853
 21
42
  0
LINE
  8
0
 10
38.1853
 20
42
 11
37.9663
 21
42
  0
LINE
  8
0
 10
25.0859
 20
42.2607
 11
24.7493
 21
43.178
  0
LINE
  8
0
 10
24.7493
 20
43.178
 11
25.0859
 21
44.105
  0
LINE
  8
0
 10
25.0859
 20
44.105
 11
25.8823
 21
44.432
  0
LINE
  8
0
 10
25.8823
 20
44.432
 11
26.6783
 21
44.105
  0
LINE
  8
0
 10
26.6783
 20
44.105
 11
27.0153
 21
43.178
  0
LINE
  8
0
 10
27.0153
 20
43.178
 11
26.6783
 21
42.2607
  0
LINE
  8
0
 10
26.6783
 20
42.2607
 11
25.8823
 21
41.936
  0
LINE
  8
0
 10
25.8823
 20
41.936
 11
25.0859
 21
42.2607
  0
LINE
  8
0
 10
26.5312
 20
42.4167
 11
26.7863
 21
43.178
  0
LINE
  8
0
 10
26.7863
 20
43.178
 11
26.5312
 21
43.9466
  0
LINE
  8
0
 10
26.5312
 20
43.9466
 11
25.8823
 21
44.242
  0
LINE
  8
0
 10
25.8823
 20
44.242
 11
25.2334
 21
43.9466
  0
LINE
  8
0
 10
25.2334
 20
43.9466
 11
24.9783
 21
43.178
  0
LINE
  8
0
 10
24.9783
 20
43.178
 11
25.2334
 21
42.4167
  0
LINE
  8
0
 10
25.2334
 20
42.4167
 11
25.8823
 21
42.125
  0
LINE
  8
0
 10
25.8823
 20
42.125
 11
26.5312
 21
42.4167
  0
LINE
  8
0
 10
6
 20
34
 11
6
 21
41
  0
LINE
  8
0
 10
6
 20
41
 11
6.4668
 21
41
  0
LINE
  8
0
 10
6.4668
 20
41
 11
6.28307
 21
41.067
  0
LINE
  8
0
 10
6.28307
 20
41.067
 11
6.37006
 21
41.235
  0
LINE
  8
0
 10
6.37006
 20
41.235
 11
6.63594
 21
41.1366
  0
LINE
  8
0
 10
6.63594
 20
41.1366
 11
6.93405
 21
41.096
  0
LINE
  8
0
 10
6.93405
 20
41.096
 11
7.48143
 21
41.292
  0
LINE
  8
0
 10
7.48143
 20
41.292
 11
7.62006
 21
41.803
  0
LINE
  8
0
 10
7.62006
 20
41.803
 11
7.62006
 21
44.119
  0
LINE
  8
0
 10
7.62006
 20
44.119
 11
6.44806
 21
44.119
  0
LINE
  8
0
 10
6.44806
 20
44.119
 11
6.44806
 21
44.304
  0
LINE
  8
0
 10
6.44806
 20
44.304
 11
7.83406
 21
44.304
  0
LINE
  8
0
 10
7.83406
 20
44.304
 11
7.83406
 21
41.832
  0
LINE
  8
0
 10
7.83406
 20
41.832
 11
7.63768
 21
41.1605
  0
LINE
  8
0
 10
7.63768
 20
41.1605
 11
7.17418
 21
41
  0
LINE
  8
0
 10
7.17418
 20
41
 11
14.5
 21
41
  0
LINE
  8
0
 10
14.5
 20
41
 11
14.5
 21
34
  0
LINE
  8
0
 10
14.5
 20
34
 11
6
 21
34
  0
LINE
  8
0
 10
44.6881
 20
43.536
 11
44.6881
 21
43.72
  0
LINE
  8
0
 10
44.6881
 20
43.72
 11
46.6811
 21
43.72
  0
LINE
  8
0
 10
46.6811
 20
43.72
 11
46.6811
 21
43.536
  0
LINE
  8
0
 10
46.6811
 20
43.536
 11
44.6881
 21
43.536
  0
LINE
  8
0
 10
48.3311
 20
42.0189
 11
48.2417
 21
42.251
  0
LINE
  8
0
 10
48.2417
 20
42.251
 11
48.3311
 21
42.4859
  0
LINE
  8
0
 10
48.3311
 20
42.4859
 11
48.5337
 21
42.567
  0
LINE
  8
0
 10
48.5337
 20
42.567
 11
48.7363
 21
42.4859
  0
LINE
  8
0
 10
48.7363
 20
42.4859
 11
48.8257
 21
42.251
  0
LINE
  8
0
 10
48.8257
 20
42.251
 11
48.7363
 21
42.0189
  0
LINE
  8
0
 10
48.7363
 20
42.0189
 11
48.5337
 21
41.936
  0
LINE
  8
0
 10
48.5337
 20
41.936
 11
48.3311
 21
42.0189
  0
LINE
  8
0
 10
18.75
 20
34
 11
18.75
 21
41
  0
LINE
  8
0
 10
18.75
 20
41
 11
27.25
 21
41
  0
LINE
  8
0
 10
27.25
 20
41
 11
27.25
 21
34
  0
LINE
  8
0
 10
27.25
 20
34
 11
18.75
 21
34
  0
LINE
  8
0
 10
44.25
 20
34
 11
44.25
 21
41
  0
LINE
  8
0
 10
44.25
 20
41
 11
52.75
 21
41
  0
LINE
  8
0
 10
52.75
 20
41
 11
52.75
 21
34
  0
LINE
  8
0
 10
52.75
 20
34
 11
44.25
 21
34
  0
LINE
  8
0
 10
39.3763
 20
28.778
 11
38.7046
 21
28.9064
  0
LINE
  8
0
 10
38.7046
 20
28.9064
 11
38.4813
 21
29.397
  0
LINE
  8
0
 10
38.4813
 20
29.397
 11
38.5253
 21
30.393
  0
LINE
  8
0
 10
38.5253
 20
30.393
 11
38.3891
 21
30.6589
  0
LINE
  8
0
 10
38.3891
 20
30.6589
 11
37.8013
 21
30.78
  0
LINE
  8
0
 10
37.8013
 20
30.78
 11
37.8013
 21
30.935
  0
LINE
  8
0
 10
37.8013
 20
30.935
 11
38.3891
 21
31.057
  0
LINE
  8
0
 10
38.3891
 20
31.057
 11
38.5253
 21
31.326
  0
LINE
  8
0
 10
38.5253
 20
31.326
 11
38.4813
 21
32.331
  0
LINE
  8
0
 10
38.4813
 20
32.331
 11
38.7046
 21
32.8265
  0
LINE
  8
0
 10
38.7046
 20
32.8265
 11
39.3763
 21
32.956
  0
LINE
  8
0
 10
39.3763
 20
32.956
 11
39.6283
 21
32.956
  0
LINE
  8
0
 10
39.6283
 20
32.956
 11
39.6283
 21
32.81
  0
LINE
  8
0
 10
39.6283
 20
32.81
 11
39.3473
 21
32.81
  0
LINE
  8
0
 10
39.3473
 20
32.81
 11
38.8081
 21
32.6907
  0
LINE
  8
0
 10
38.8081
 20
32.6907
 11
38.6813
 21
32.312
  0
LINE
  8
0
 10
38.6813
 20
32.312
 11
38.7153
 21
31.374
  0
LINE
  8
0
 10
38.7153
 20
31.374
 11
38.6287
 21
31.0361
  0
LINE
  8
0
 10
38.6287
 20
31.0361
 11
38.3013
 21
30.867
  0
LINE
  8
0
 10
38.3013
 20
30.867
 11
38.3013
 21
30.848
  0
LINE
  8
0
 10
38.3013
 20
30.848
 11
38.6287
 21
30.6792
  0
LINE
  8
0
 10
38.6287
 20
30.6792
 11
38.7153
 21
30.344
  0
LINE
  8
0
 10
38.7153
 20
30.344
 11
38.6813
 21
29.416
  0
LINE
  8
0
 10
38.6813
 20
29.416
 11
38.8081
 21
29.0414
  0
LINE
  8
0
 10
38.8081
 20
29.0414
 11
39.3473
 21
28.924
  0
LINE
  8
0
 10
39.3473
 20
28.924
 11
39.6283
 21
28.924
  0
LINE
  8
0
 10
39.6283
 20
28.924
 11
39.6283
 21
28.778
  0
LINE
  8
0
 10
39.6283
 20
28.778
 11
39.3763
 21
28.778
  0
LINE
  8
0
 10
10.0958
 20
29.691
 11
9.91869
 21
30.36
  0
LINE
  8
0
 10
9.91869
 20
30.36
 11
9.91869
 21
31.619
  0
LINE
  8
0
 10
9.91869
 20
31.619
 11
9.21368
 21
31.619
  0
LINE
  8
0
 10
9.21368
 20
31.619
 11
9.21368
 21
31.784
  0
LINE
  8
0
 10
9.21368
 20
31.784
 11
9.92369
 21
31.804
  0
LINE
  8
0
 10
9.92369
 20
31.804
 11
9.9527
 21
32.479
  0
LINE
  8
0
 10
9.9527
 20
32.479
 11
10.1327
 21
32.479
  0
LINE
  8
0
 10
10.1327
 20
32.479
 11
10.1327
 21
31.804
  0
LINE
  8
0
 10
10.1327
 20
31.804
 11
11.3777
 21
31.804
  0
LINE
  8
0
 10
11.3777
 20
31.804
 11
11.3777
 21
31.619
  0
LINE
  8
0
 10
11.3777
 20
31.619
 11
10.1327
 21
31.619
  0
LINE
  8
0
 10
10.1327
 20
31.619
 11
10.1327
 21
30.341
  0
LINE
  8
0
 10
10.1327
 20
30.341
 11
10.2627
 21
29.8154
  0
LINE
  8
0
 10
10.2627
 20
29.8154
 11
10.7797
 21
29.625
  0
LINE
  8
0
 10
10.7797
 20
29.625
 11
11.1168
 21
29.6561
  0
LINE
  8
0
 10
11.1168
 20
29.6561
 11
11.4067
 21
29.745
  0
LINE
  8
0
 10
11.4067
 20
29.745
 11
11.4647
 21
29.581
  0
LINE
  8
0
 10
11.4647
 20
29.581
 11
11.1129
 21
29.4759
  0
LINE
  8
0
 10
11.1129
 20
29.4759
 11
10.7507
 21
29.436
  0
LINE
  8
0
 10
10.7507
 20
29.436
 11
10.0958
 21
29.691
  0
LINE
  8
0
 10
44.8241
 20
31.014
 11
44.8241
 21
31.209
  0
LINE
  8
0
 10
44.8241
 20
31.209
 11
46.5991
 21
32.444
  0
LINE
  8
0
 10
46.5991
 20
32.444
 11
46.5991
 21
32.21
  0
LINE
  8
0
 10
46.5991
 20
32.21
 11
45.0331
 21
31.121
  0
LINE
  8
0
 10
45.0331
 20
31.121
 11
45.0331
 21
31.102
  0
LINE
  8
0
 10
45.0331
 20
31.102
 11
46.5991
 21
30.013
  0
LINE
  8
0
 10
46.5991
 20
30.013
 11
46.5991
 21
29.779
  0
LINE
  8
0
 10
46.5991
 20
29.779
 11
44.8241
 21
31.014
  0
LINE
  8
0
 10
6.87706
 20
29.5464
 11
6.38007
 21
29.809
  0
LINE
  8
0
 10
6.38007
 20
29.809
 11
6.50206
 21
29.968
  0
LINE
  8
0
 10
6.50206
 20
29.968
 11
6.93369
 21
29.7137
  0
LINE
  8
0
 10
6.93369
 20
29.7137
 11
7.53706
 21
29.62
  0
LINE
  8
0
 10
7.53706
 20
29.62
 11
8.08194
 21
29.7611
  0
LINE
  8
0
 10
8.08194
 20
29.7611
 11
8.26605
 21
30.092
  0
LINE
  8
0
 10
8.26605
 20
30.092
 11
8.10493
 21
30.3842
  0
LINE
  8
0
 10
8.10493
 20
30.3842
 11
7.43005
 21
30.639
  0
LINE
  8
0
 10
7.43005
 20
30.639
 11
6.77368
 21
30.8986
  0
LINE
  8
0
 10
6.77368
 20
30.8986
 11
6.51106
 21
31.3
  0
LINE
  8
0
 10
6.51106
 20
31.3
 11
6.73294
 21
31.7461
  0
LINE
  8
0
 10
6.73294
 20
31.7461
 11
7.42506
 21
31.932
  0
LINE
  8
0
 10
7.42506
 20
31.932
 11
7.90518
 21
31.8501
  0
LINE
  8
0
 10
7.90518
 20
31.8501
 11
8.32005
 21
31.643
  0
LINE
  8
0
 10
8.32005
 20
31.643
 11
8.20306
 21
31.484
  0
LINE
  8
0
 10
8.20306
 20
31.484
 11
7.85356
 21
31.6751
  0
LINE
  8
0
 10
7.85356
 20
31.6751
 11
7.42006
 21
31.747
  0
LINE
  8
0
 10
7.42006
 20
31.747
 11
6.88255
 21
31.6146
  0
LINE
  8
0
 10
6.88255
 20
31.6146
 11
6.73506
 21
31.315
  0
LINE
  8
0
 10
6.73506
 20
31.315
 11
6.94818
 21
31.0252
  0
LINE
  8
0
 10
6.94818
 20
31.0252
 11
7.52206
 21
30.818
  0
LINE
  8
0
 10
7.52206
 20
30.818
 11
8.27982
 21
30.5196
  0
LINE
  8
0
 10
8.27982
 20
30.5196
 11
8.49005
 21
30.102
  0
LINE
  8
0
 10
8.49005
 20
30.102
 11
8.23843
 21
29.6347
  0
LINE
  8
0
 10
8.23843
 20
29.6347
 11
7.52705
 21
29.436
  0
LINE
  8
0
 10
7.52705
 20
29.436
 11
6.87706
 21
29.5464
  0
LINE
  8
0
 10
20.0781
 20
29.5
 11
19.0281
 21
31.804
  0
LINE
  8
0
 10
19.0281
 20
31.804
 11
19.2521
 21
31.804
  0
LINE
  8
0
 10
19.2521
 20
31.804
 11
19.8931
 21
30.36
  0
LINE
  8
0
 10
19.8931
 20
30.36
 11
20.0462
 21
30.0224
  0
LINE
  8
0
 10
20.0462
 20
30.0224
 11
20.1851
 21
29.699
  0
LINE
  8
0
 10
20.1851
 20
29.699
 11
20.2041
 21
29.699
  0
LINE
  8
0
 10
20.2041
 20
29.699
 11
20.4861
 21
30.36
  0
LINE
  8
0
 10
20.4861
 20
30.36
 11
21.1331
 21
31.804
  0
LINE
  8
0
 10
21.1331
 20
31.804
 11
21.3421
 21
31.804
  0
LINE
  8
0
 10
21.3421
 20
31.804
 11
20.3061
 21
29.5
  0
LINE
  8
0
 10
20.3061
 20
29.5
 11
20.0781
 21
29.5
  0
LINE
  8
0
 10
24.8123
 20
29.5
 11
25.7463
 21
30.695
  0
LINE
  8
0
 10
25.7463
 20
30.695
 11
24.8853
 21
31.804
  0
LINE
  8
0
 10
24.8853
 20
31.804
 11
25.1333
 21
31.804
  0
LINE
  8
0
 10
25.1333
 20
31.804
 11
25.5853
 21
31.218
  0
LINE
  8
0
 10
25.5853
 20
31.218
 11
25.7279
 21
31.0254
  0
LINE
  8
0
 10
25.7279
 20
31.0254
 11
25.8773
 21
30.829
  0
LINE
  8
0
 10
25.8773
 20
30.829
 11
25.8963
 21
30.829
  0
LINE
  8
0
 10
25.8963
 20
30.829
 11
26.0536
 21
31.0302
  0
LINE
  8
0
 10
26.0536
 20
31.0302
 11
26.6403
 21
31.804
  0
LINE
  8
0
 10
26.6403
 20
31.804
 11
26.8783
 21
31.804
  0
LINE
  8
0
 10
26.8783
 20
31.804
 11
26.0083
 21
30.685
  0
LINE
  8
0
 10
26.0083
 20
30.685
 11
26.9513
 21
29.5
  0
LINE
  8
0
 10
26.9513
 20
29.5
 11
26.7033
 21
29.5
  0
LINE
  8
0
 10
26.7033
 20
29.5
 11
26.2083
 21
30.123
  0
LINE
  8
0
 10
26.2083
 20
30.123
 11
26.0466
 21
30.3351
  0
LINE
  8
0
 10
26.0466
 20
30.3351
 11
25.8773
 21
30.551
  0
LINE
  8
0
 10
25.8773
 20
30.551
 11
25.8583
 21
30.551
  0
LINE
  8
0
 10
25.8583
 20
30.551
 11
25.6953
 21
30.3384
  0
LINE
  8
0
 10
25.6953
 20
30.3384
 11
25.5323
 21
30.119
  0
LINE
  8
0
 10
25.5323
 20
30.119
 11
25.0513
 21
29.5
  0
LINE
  8
0
 10
25.0513
 20
29.5
 11
24.8123
 21
29.5
  0
LINE
  8
0
 10
12.3014
 20
29.6666
 11
12.0963
 21
30.366
  0
LINE
  8
0
 10
12.0963
 20
30.366
 11
12.0963
 21
31.804
  0
LINE
  8
0
 10
12.0963
 20
31.804
 11
12.3103
 21
31.804
  0
LINE
  8
0
 10
12.3103
 20
31.804
 11
12.3103
 21
30.395
  0
LINE
  8
0
 10
12.3103
 20
30.395
 11
12.4656
 21
29.8194
  0
LINE
  8
0
 10
12.4656
 20
29.8194
 11
12.9673
 21
29.63
  0
LINE
  8
0
 10
12.9673
 20
29.63
 11
13.4177
 21
29.7566
  0
LINE
  8
0
 10
13.4177
 20
29.7566
 11
13.8613
 21
30.154
  0
LINE
  8
0
 10
13.8613
 20
30.154
 11
13.8613
 21
31.804
  0
LINE
  8
0
 10
13.8613
 20
31.804
 11
14.0753
 21
31.804
  0
LINE
  8
0
 10
14.0753
 20
31.804
 11
14.0753
 21
29.5
  0
LINE
  8
0
 10
14.0753
 20
29.5
 11
13.8953
 21
29.5
  0
LINE
  8
0
 10
13.8953
 20
29.5
 11
13.8713
 21
29.943
  0
LINE
  8
0
 10
13.8713
 20
29.943
 11
13.8513
 21
29.943
  0
LINE
  8
0
 10
13.8513
 20
29.943
 11
13.4381
 21
29.5792
  0
LINE
  8
0
 10
13.4381
 20
29.5792
 11
12.9333
 21
29.436
  0
LINE
  8
0
 10
12.9333
 20
29.436
 11
12.3014
 21
29.6666
  0
LINE
  8
0
 10
34.6757
 20
29.5
 11
34.6757
 21
29.616
  0
LINE
  8
0
 10
34.6757
 20
29.616
 11
36.5027
 21
31.619
  0
LINE
  8
0
 10
36.5027
 20
31.619
 11
34.8697
 21
31.619
  0
LINE
  8
0
 10
34.8697
 20
31.619
 11
34.8697
 21
31.804
  0
LINE
  8
0
 10
34.8697
 20
31.804
 11
36.8287
 21
31.804
  0
LINE
  8
0
 10
36.8287
 20
31.804
 11
36.8287
 21
31.692
  0
LINE
  8
0
 10
36.8287
 20
31.692
 11
35.0007
 21
29.689
  0
LINE
  8
0
 10
35.0007
 20
29.689
 11
36.8827
 21
29.689
  0
LINE
  8
0
 10
36.8827
 20
29.689
 11
36.8827
 21
29.5
  0
LINE
  8
0
 10
36.8827
 20
29.5
 11
34.6757
 21
29.5
  0
LINE
  8
0
 10
22.2317
 20
29.5
 11
21.6287
 21
31.804
  0
LINE
  8
0
 10
21.6287
 20
31.804
 11
21.8567
 21
31.804
  0
LINE
  8
0
 10
21.8567
 20
31.804
 11
22.3074
 21
30.0006
  0
LINE
  8
0
 10
22.3074
 20
30.0006
 11
22.3727
 21
29.699
  0
LINE
  8
0
 10
22.3727
 20
29.699
 11
22.3917
 21
29.699
  0
LINE
  8
0
 10
22.3917
 20
29.699
 11
22.5477
 21
30.306
  0
LINE
  8
0
 10
22.5477
 20
30.306
 11
22.9217
 21
31.747
  0
LINE
  8
0
 10
22.9217
 20
31.747
 11
23.1597
 21
31.747
  0
LINE
  8
0
 10
23.1597
 20
31.747
 11
23.5347
 21
30.312
  0
LINE
  8
0
 10
23.5347
 20
30.312
 11
23.6897
 21
29.699
  0
LINE
  8
0
 10
23.6897
 20
29.699
 11
23.7097
 21
29.699
  0
LINE
  8
0
 10
23.7097
 20
29.699
 11
23.8547
 21
30.312
  0
LINE
  8
0
 10
23.8547
 20
30.312
 11
24.2247
 21
31.804
  0
LINE
  8
0
 10
24.2247
 20
31.804
 11
24.4387
 21
31.804
  0
LINE
  8
0
 10
24.4387
 20
31.804
 11
23.8457
 21
29.5
  0
LINE
  8
0
 10
23.8457
 20
29.5
 11
23.5687
 21
29.5
  0
LINE
  8
0
 10
23.5687
 20
29.5
 11
23.1987
 21
30.898
  0
LINE
  8
0
 10
23.1987
 20
30.898
 11
23.123
 21
31.2211
  0
LINE
  8
0
 10
23.123
 20
31.2211
 11
23.0437
 21
31.548
  0
LINE
  8
0
 10
23.0437
 20
31.548
 11
23.0237
 21
31.548
  0
LINE
  8
0
 10
23.0237
 20
31.548
 11
22.9518
 21
31.2287
  0
LINE
  8
0
 10
22.9518
 20
31.2287
 11
22.5087
 21
29.5
  0
LINE
  8
0
 10
22.5087
 20
29.5
 11
22.2317
 21
29.5
  0
LINE
  8
0
 10
31.5
 20
21.5
 11
31.5
 21
28.5
  0
LINE
  8
0
 10
31.5
 20
28.5
 11
31.8145
 21
28.5
  0
LINE
  8
0
 10
31.8145
 20
28.5
 11
31.8611
 21
28.65
  0
LINE
  8
0
 10
31.8611
 20
28.65
 11
31.9657
 21
28.623
  0
LINE
  8
0
 10
31.9657
 20
28.623
 11
32.0891
 21
28.611
  0
LINE
  8
0
 10
32.0891
 20
28.611
 11
32.5357
 21
28.7863
  0
LINE
  8
0
 10
32.5357
 20
28.7863
 11
32.8181
 21
29.227
  0
LINE
  8
0
 10
32.8181
 20
29.227
 11
32.9011
 21
29.431
  0
LINE
  8
0
 10
32.9011
 20
29.431
 11
31.7681
 21
31.804
  0
LINE
  8
0
 10
31.7681
 20
31.804
 11
31.9921
 21
31.804
  0
LINE
  8
0
 10
31.9921
 20
31.804
 11
32.6721
 21
30.338
  0
LINE
  8
0
 10
32.6721
 20
30.338
 11
32.8254
 21
30.0161
  0
LINE
  8
0
 10
32.8254
 20
30.0161
 11
32.9931
 21
29.683
  0
LINE
  8
0
 10
32.9931
 20
29.683
 11
33.0131
 21
29.683
  0
LINE
  8
0
 10
33.0131
 20
29.683
 11
33.1524
 21
30.0142
  0
LINE
  8
0
 10
33.1524
 20
30.0142
 11
33.2851
 21
30.338
  0
LINE
  8
0
 10
33.2851
 20
30.338
 11
33.8931
 21
31.804
  0
LINE
  8
0
 10
33.8931
 20
31.804
 11
34.1021
 21
31.804
  0
LINE
  8
0
 10
34.1021
 20
31.804
 11
33.0031
 21
29.183
  0
LINE
  8
0
 10
33.0031
 20
29.183
 11
32.6767
 21
28.652
  0
LINE
  8
0
 10
32.6767
 20
28.652
 11
32.3013
 21
28.5
  0
LINE
  8
0
 10
32.3013
 20
28.5
 11
40
 21
28.5
  0
LINE
  8
0
 10
40
 20
28.5
 11
40
 21
21.5
  0
LINE
  8
0
 10
40
 20
21.5
 11
31.5
 21
21.5
  0
LINE
  8
0
 10
47.5367
 20
31.036
 11
47.5367
 21
31.22
  0
LINE
  8
0
 10
47.5367
 20
31.22
 11
49.5297
 21
31.22
  0
LINE
  8
0
 10
49.5297
 20
31.22
 11
49.5297
 21
31.036
  0
LINE
  8
0
 10
49.5297
 20
31.036
 11
47.5367
 21
31.036
  0
LINE
  8
0
 10
50.3853
 20
31.036
 11
50.3853
 21
31.22
  0
LINE
  8
0
 10
50.3853
 20
31.22
 11
52.3783
 21
31.22
  0
LINE
  8
0
 10
52.3783
 20
31.22
 11
52.3783
 21
31.036
  0
LINE
  8
0
 10
52.3783
 20
31.036
 11
50.3853
 21
31.036
  0
LINE
  8
0
 10
18.75
 20
21.5
 11
18.75
 21
28.5
  0
LINE
  8
0
 10
18.75
 20
28.5
 11
27.25
 21
28.5
  0
LINE
  8
0
 10
27.25
 20
28.5
 11
27.25
 21
21.5
  0
LINE
  8
0
 10
27.25
 20
21.5
 11
18.75
 21
21.5
  0
LINE
  8
0
 10
6
 20
21.5
 11
6
 21
28.5
  0
LINE
  8
0
 10
6
 20
28.5
 11
14.5
 21
28.5
  0
LINE
  8
0
 10
14.5
 20
28.5
 11
14.5
 21
21.5
  0
LINE
  8
0
 10
14.5
 20
21.5
 11
6
 21
21.5
  0
LINE
  8
0
 10
44.25
 20
21.5
 11
44.25
 21
28.5
  0
LINE
  8
0
 10
44.25
 20
28.5
 11
52.75
 21
28.5
  0
LINE
  8
0
 10
52.75
 20
28.5
 11
52.75
 21
21.5
  0
LINE
  8
0
 10
52.75
 20
21.5
 11
44.25
 21
21.5
  0
LINE
  8
0
 10
24.9783
 20
16.226
 11
26.5673
 21
20.456
  0
LINE
  8
0
 10
26.5673
 20
20.456
 11
26.7863
 21
20.456
  0
LINE
  8
0
 10
26.7863
 20
20.456
 11
25.1963
 21
16.226
  0
LINE
  8
0
 10
25.1963
 20
16.226
 11
24.9783
 21
16.226
  0
LINE
  8
0
 10
13.5503
 20
18.856
 11
13.4533
 21
19.915
  0
LINE
  8
0
 10
13.4533
 20
19.915
 11
13.4533
 21
20.348
  0
LINE
  8
0
 10
13.4533
 20
20.348
 11
13.8223
 21
20.348
  0
LINE
  8
0
 10
13.8223
 20
20.348
 11
13.8223
 21
19.915
  0
LINE
  8
0
 10
13.8223
 20
19.915
 11
13.7253
 21
18.856
  0
LINE
  8
0
 10
13.7253
 20
18.856
 11
13.5503
 21
18.856
  0
LINE
  8
0
 10
12.5393
 20
18.856
 11
12.4423
 21
19.915
  0
LINE
  8
0
 10
12.4423
 20
19.915
 11
12.4423
 21
20.348
  0
LINE
  8
0
 10
12.4423
 20
20.348
 11
12.8113
 21
20.348
  0
LINE
  8
0
 10
12.8113
 20
20.348
 11
12.8113
 21
19.915
  0
LINE
  8
0
 10
12.8113
 20
19.915
 11
12.7143
 21
18.856
  0
LINE
  8
0
 10
12.7143
 20
18.856
 11
12.5393
 21
18.856
  0
LINE
  8
0
 10
10.2057
 20
18.063
 11
10.1817
 21
19.917
  0
LINE
  8
0
 10
10.1817
 20
19.917
 11
10.1817
 21
20.264
  0
LINE
  8
0
 10
10.1817
 20
20.264
 11
10.3857
 21
20.264
  0
LINE
  8
0
 10
10.3857
 20
20.264
 11
10.3857
 21
19.917
  0
LINE
  8
0
 10
10.3857
 20
19.917
 11
10.3617
 21
18.063
  0
LINE
  8
0
 10
10.3617
 20
18.063
 11
10.2057
 21
18.063
  0
LINE
  8
0
 10
34.7727
 20
17
 11
34.7727
 21
20.2
  0
LINE
  8
0
 10
34.7727
 20
20.2
 11
35.0057
 21
20.2
  0
LINE
  8
0
 10
35.0057
 20
20.2
 11
36.2547
 21
17.937
  0
LINE
  8
0
 10
36.2547
 20
17.937
 11
36.6007
 21
17.306
  0
LINE
  8
0
 10
36.6007
 20
17.306
 11
36.6097
 21
17.306
  0
LINE
  8
0
 10
36.6097
 20
17.306
 11
36.5918
 21
17.7695
  0
LINE
  8
0
 10
36.5918
 20
17.7695
 11
36.5807
 21
18.233
  0
LINE
  8
0
 10
36.5807
 20
18.233
 11
36.5807
 21
20.2
  0
LINE
  8
0
 10
36.5807
 20
20.2
 11
36.7947
 21
20.2
  0
LINE
  8
0
 10
36.7947
 20
20.2
 11
36.7947
 21
17
  0
LINE
  8
0
 10
36.7947
 20
17
 11
36.5617
 21
17
  0
LINE
  8
0
 10
36.5617
 20
17
 11
35.3117
 21
19.262
  0
LINE
  8
0
 10
35.3117
 20
19.262
 11
34.9667
 21
19.893
  0
LINE
  8
0
 10
34.9667
 20
19.893
 11
34.9567
 21
19.893
  0
LINE
  8
0
 10
34.9567
 20
19.893
 11
34.9754
 21
19.437
  0
LINE
  8
0
 10
34.9754
 20
19.437
 11
34.9867
 21
18.981
  0
LINE
  8
0
 10
34.9867
 20
18.981
 11
34.9867
 21
17
  0
LINE
  8
0
 10
34.9867
 20
17
 11
34.7727
 21
17
  0
LINE
  8
0
 10
32.0941
 20
17
 11
32.0941
 21
20.2
  0
LINE
  8
0
 10
32.0941
 20
20.2
 11
33.9901
 21
20.2
  0
LINE
  8
0
 10
33.9901
 20
20.2
 11
33.9901
 21
20.005
  0
LINE
  8
0
 10
33.9901
 20
20.005
 11
32.3181
 21
20.005
  0
LINE
  8
0
 10
32.3181
 20
20.005
 11
32.3181
 21
18.794
  0
LINE
  8
0
 10
32.3181
 20
18.794
 11
33.7271
 21
18.794
  0
LINE
  8
0
 10
33.7271
 20
18.794
 11
33.7271
 21
18.6
  0
LINE
  8
0
 10
33.7271
 20
18.6
 11
32.3181
 21
18.6
  0
LINE
  8
0
 10
32.3181
 20
18.6
 11
32.3181
 21
17.194
  0
LINE
  8
0
 10
32.3181
 20
17.194
 11
34.0381
 21
17.194
  0
LINE
  8
0
 10
34.0381
 20
17.194
 11
34.0381
 21
17
  0
LINE
  8
0
 10
34.0381
 20
17
 11
32.0941
 21
17
  0
LINE
  8
0
 10
38.5203
 20
17
 11
38.5203
 21
20.005
  0
LINE
  8
0
 10
38.5203
 20
20.005
 11
37.4073
 21
20.005
  0
LINE
  8
0
 10
37.4073
 20
20.005
 11
37.4073
 21
20.2
  0
LINE
  8
0
 10
37.4073
 20
20.2
 11
39.8573
 21
20.2
  0
LINE
  8
0
 10
39.8573
 20
20.2
 11
39.8573
 21
20.005
  0
LINE
  8
0
 10
39.8573
 20
20.005
 11
38.7443
 21
20.005
  0
LINE
  8
0
 10
38.7443
 20
20.005
 11
38.7443
 21
17
  0
LINE
  8
0
 10
38.7443
 20
17
 11
38.5203
 21
17
  0
LINE
  8
0
 10
19.3991
 20
17.3546
 11
19.1201
 21
18.527
  0
LINE
  8
0
 10
19.1201
 20
18.527
 11
19.3991
 21
19.7204
  0
LINE
  8
0
 10
19.3991
 20
19.7204
 11
20.1851
 21
20.136
  0
LINE
  8
0
 10
20.1851
 20
20.136
 11
20.9711
 21
19.7204
  0
LINE
  8
0
 10
20.9711
 20
19.7204
 11
21.2501
 21
18.527
  0
LINE
  8
0
 10
21.2501
 20
18.527
 11
20.9711
 21
17.3546
  0
LINE
  8
0
 10
20.9711
 20
17.3546
 11
20.1851
 21
16.936
  0
LINE
  8
0
 10
20.1851
 20
16.936
 11
19.3991
 21
17.3546
  0
LINE
  8
0
 10
20.7999
 20
17.477
 11
21.0361
 21
18.527
  0
LINE
  8
0
 10
21.0361
 20
18.527
 11
20.7999
 21
19.5945
  0
LINE
  8
0
 10
20.7999
 20
19.5945
 11
20.1851
 21
19.951
  0
LINE
  8
0
 10
20.1851
 20
19.951
 11
19.5698
 21
19.5945
  0
LINE
  8
0
 10
19.5698
 20
19.5945
 11
19.3341
 21
18.527
  0
LINE
  8
0
 10
19.3341
 20
18.527
 11
19.5698
 21
17.477
  0
LINE
  8
0
 10
19.5698
 20
17.477
 11
20.1851
 21
17.12
  0
LINE
  8
0
 10
20.1851
 20
17.12
 11
20.7999
 21
17.477
  0
LINE
  8
0
 10
20.0006
 20
18.3546
 11
19.9181
 21
18.571
  0
LINE
  8
0
 10
19.9181
 20
18.571
 11
20.0006
 21
18.7882
  0
LINE
  8
0
 10
20.0006
 20
18.7882
 11
20.1851
 21
18.863
  0
LINE
  8
0
 10
20.1851
 20
18.863
 11
20.3696
 21
18.7882
  0
LINE
  8
0
 10
20.3696
 20
18.7882
 11
20.4521
 21
18.571
  0
LINE
  8
0
 10
20.4521
 20
18.571
 11
20.3696
 21
18.3546
  0
LINE
  8
0
 10
20.3696
 20
18.3546
 11
20.1851
 21
18.28
  0
LINE
  8
0
 10
20.1851
 20
18.28
 11
20.0006
 21
18.3546
  0
LINE
  8
0
 10
50.4683
 20
17.513
 11
52.0333
 21
18.602
  0
LINE
  8
0
 10
52.0333
 20
18.602
 11
52.0333
 21
18.621
  0
LINE
  8
0
 10
52.0333
 20
18.621
 11
50.4683
 21
19.71
  0
LINE
  8
0
 10
50.4683
 20
19.71
 11
50.4683
 21
19.944
  0
LINE
  8
0
 10
50.4683
 20
19.944
 11
52.2423
 21
18.709
  0
LINE
  8
0
 10
52.2423
 20
18.709
 11
52.2423
 21
18.514
  0
LINE
  8
0
 10
52.2423
 20
18.514
 11
50.4683
 21
17.279
  0
LINE
  8
0
 10
50.4683
 20
17.279
 11
50.4683
 21
17.513
  0
LINE
  8
0
 10
47.5367
 20
18.536
 11
47.5367
 21
18.72
  0
LINE
  8
0
 10
47.5367
 20
18.72
 11
49.5297
 21
18.72
  0
LINE
  8
0
 10
49.5297
 20
18.72
 11
49.5297
 21
18.536
  0
LINE
  8
0
 10
49.5297
 20
18.536
 11
47.5367
 21
18.536
  0
LINE
  8
0
 10
44.6881
 20
18.536
 11
44.6881
 21
18.72
  0
LINE
  8
0
 10
44.6881
 20
18.72
 11
46.6811
 21
18.72
  0
LINE
  8
0
 10
46.6811
 20
18.72
 11
46.6811
 21
18.536
  0
LINE
  8
0
 10
46.6811
 20
18.536
 11
44.6881
 21
18.536
  0
LINE
  8
0
 10
22.8311
 20
17.0189
 11
22.7417
 21
17.251
  0
LINE
  8
0
 10
22.7417
 20
17.251
 11
22.8311
 21
17.4859
  0
LINE
  8
0
 10
22.8311
 20
17.4859
 11
23.0337
 21
17.567
  0
LINE
  8
0
 10
23.0337
 20
17.567
 11
23.2363
 21
17.4859
  0
LINE
  8
0
 10
23.2363
 20
17.4859
 11
23.3257
 21
17.251
  0
LINE
  8
0
 10
23.3257
 20
17.251
 11
23.2363
 21
17.0189
  0
LINE
  8
0
 10
23.2363
 20
17.0189
 11
23.0337
 21
16.936
  0
LINE
  8
0
 10
23.0337
 20
16.936
 11
22.8311
 21
17.0189
  0
LINE
  8
0
 10
10.0879
 20
17.0164
 11
10.0017
 21
17.243
  0
LINE
  8
0
 10
10.0017
 20
17.243
 11
10.0879
 21
17.4712
  0
LINE
  8
0
 10
10.0879
 20
17.4712
 11
10.2837
 21
17.548
  0
LINE
  8
0
 10
10.2837
 20
17.548
 11
10.4794
 21
17.4697
  0
LINE
  8
0
 10
10.4794
 20
17.4697
 11
10.5657
 21
17.243
  0
LINE
  8
0
 10
10.5657
 20
17.243
 11
10.4794
 21
17.0164
  0
LINE
  8
0
 10
10.4794
 20
17.0164
 11
10.2837
 21
16.936
  0
LINE
  8
0
 10
10.2837
 20
16.936
 11
10.0879
 21
17.0164
  0
LINE
  8
0
 10
6.26805
 20
16.392
 11
6.26805
 21
16.616
  0
LINE
  8
0
 10
6.26805
 20
16.616
 11
8.60205
 21
16.616
  0
LINE
  8
0
 10
8.60205
 20
16.616
 11
8.60205
 21
16.392
  0
LINE
  8
0
 10
8.60205
 20
16.392
 11
6.26805
 21
16.392
  0
LINE
  8
0
 10
6
 20
9
 11
6
 21
16
  0
LINE
  8
0
 10
6
 20
16
 11
14.5
 21
16
  0
LINE
  8
0
 10
14.5
 20
16
 11
14.5
 21
9
  0
LINE
  8
0
 10
14.5
 20
9
 11
6
 21
9
  0
LINE
  8
0
 10
31.5
 20
9
 11
31.5
 21
16
  0
LINE
  8
0
 10
31.5
 20
16
 11
40
 21
16
  0
LINE
  8
0
 10
40
 20
16
 11
40
 21
9
  0
LINE
  8
0
 10
40
 20
9
 11
31.5
 21
9
  0
LINE
  8
0
 10
18.75
 20
9
 11
18.75
 21
16
  0
LINE
  8
0
 10
18.75
 20
16
 11
27.25
 21
16
  0
LINE
  8
0
 10
27.25
 20
16
 11
27.25
 21
9
  0
LINE
  8
0
 10
27.25
 20
9
 11
18.75
 21
9
  0
LINE
  8
0
 10
44.25
 20
9
 11
44.25
 21
16
  0
LINE
  8
0
 10
44.25
 20
16
 11
52.75
 21
16
  0
LINE
  8
0
 10
52.75
 20
16
 11
52.75
 21
9
  0
LINE
  8
0
 10
52.75
 20
9
 11
44.25
 21
9
  0
ENDSEC
  0
SECTION
  2
OBJECTS
  0
DICTIONARY
  0
ENDSEC
  0
EOF
