<?xml version="1.0" encoding="UTF-8" standalone="no"?>
<!-- Created with Inkscape (http://www.inkscape.org/) -->

<svg
   xmlns:dc="http://purl.org/dc/elements/1.1/"
   xmlns:cc="http://creativecommons.org/ns#"
   xmlns:rdf="http://www.w3.org/1999/02/22-rdf-syntax-ns#"
   xmlns:svg="http://www.w3.org/2000/svg"
   xmlns="http://www.w3.org/2000/svg"
   xmlns:sodipodi="http://sodipodi.sourceforge.net/DTD/sodipodi-0.dtd"
   xmlns:inkscape="http://www.inkscape.org/namespaces/inkscape"
   width="358.20648"
   height="178.80629"
   id="svg2"
   version="1.1"
   inkscape:version="0.48.5 r10040"
   sodipodi:docname="logo.svg"
   inkscape:export-filename="/home/bjy/projects/mcilfatrick/logo.png"
   inkscape:export-xdpi="300"
   inkscape:export-ydpi="300">
  <defs
     id="defs4">
    <inkscape:path-effect
       effect="bend_path"
       id="path-effect6192"
       is_visible="true"
       bendpath="m 148.41428,785.93358 c 5.88556,-1.15293 13.01708,-1.68289 24.57429,0"
       prop_scale="1"
       scale_y_rel="false"
       vertical="false"
       bendpath-nodetypes="cc" />
    <inkscape:path-effect
       effect="envelope"
       id="path-effect6172"
       is_visible="true"
       yy="true"
       xx="true"
       bendpath1="m 59.537189,191.64399 c 12.342139,-15.83501 68.019111,-2.72464 91.336881,6.49358"
       bendpath2="m 150.87407,198.13757 0,13.70094"
       bendpath3="m 54.7625,211.83851 c 15.856974,6.32978 82.19675,5.02574 96.11157,0"
       bendpath4="m 54.7625,198.13757 0,13.70094"
       bendpath3-nodetypes="cc"
       bendpath1-nodetypes="cc" />
    <inkscape:path-effect
       effect="bend_path"
       id="path-effect6170"
       is_visible="true"
       bendpath="m 54.7625,204.98804 c 27.059798,-2.26463 57.88027,-1.84946 96.11157,0"
       prop_scale="1"
       scale_y_rel="false"
       vertical="false"
       bendpath-nodetypes="cc" />
    <inkscape:path-effect
       effect="envelope"
       id="path-effect6115"
       is_visible="true"
       yy="true"
       xx="true"
       bendpath1="m 54.7625,180.63851 40.827814,0"
       bendpath2="m 95.590314,180.63851 0,10"
       bendpath3="m 54.7625,190.63851 c 13.071842,1.07486 26.805635,0.82581 40.827814,0"
       bendpath4="m 54.7625,180.63851 0,10"
       bendpath3-nodetypes="cc" />
    <inkscape:path-effect
       effect="bend_path"
       id="path-effect6113"
       is_visible="true"
       bendpath="m 54.7625,185.63851 c 12.912924,3.92582 26.541179,4.08909 40.827814,0"
       prop_scale="1"
       scale_y_rel="false"
       vertical="false"
       bendpath-nodetypes="cc" />
    <inkscape:path-effect
       effect="envelope"
       id="path-effect5464"
       is_visible="true"
       yy="true"
       xx="true"
       bendpath1="m 52.670851,224.9231 c 12.236782,-1.47036 22.006418,-3.87956 43.769935,0"
       bendpath2="m 95.433351,224.9231 0.755576,14.32172"
       bendpath3="m 52.670851,240.83993 43.769935,0"
       bendpath4="m 52.670851,224.9231 0,15.91683"
       bendpath1-nodetypes="cc"
       bendpath2-nodetypes="cc" />
    <inkscape:path-effect
       effect="envelope"
       id="path-effect5462"
       is_visible="true"
       yy="true"
       xx="true"
       bendpath1="m 54.7625,195.99851 42.90875,0"
       bendpath2="m 97.67125,195.99851 0,15.84"
       bendpath3="m 54.7625,211.83851 c 10.484205,2.48688 16.580895,3.04781 42.90875,0"
       bendpath4="m 54.7625,195.99851 0,15.84"
       bendpath3-nodetypes="cc" />
    <inkscape:path-effect
       effect="bend_path"
       id="path-effect5449"
       is_visible="true"
       bendpath="m 54.7625,203.91851 42.90875,0"
       prop_scale="1"
       scale_y_rel="false"
       vertical="false" />
    <inkscape:path-effect
       effect="bend_path"
       id="path-effect5438"
       is_visible="true"
       bendpath="m 54.7625,228.03851 c 15.094995,8.07807 29.498621,5.20187 40.827814,0"
       prop_scale="1"
       scale_y_rel="false"
       vertical="false"
       bendpath-nodetypes="cc" />
    <inkscape:path-effect
       effect="envelope"
       id="path-effect5246"
       is_visible="true"
       yy="true"
       xx="true"
       bendpath1="m 54.7625,223.03851 40.827814,0"
       bendpath2="m 95.590314,223.03851 0,10"
       bendpath3="m 54.7625,233.03851 c 13.800385,11.37125 27.406567,11.18742 40.827814,0"
       bendpath4="m 54.7625,223.03851 0,10"
       bendpath3-nodetypes="cc" />
    <inkscape:path-effect
       effect="envelope"
       id="path-effect5199"
       is_visible="true"
       yy="true"
       xx="true"
       bendpath1="m 54.7625,195.99851 c -4.230794,-43.82722 31.660744,-53.41913 47.92015,-54.06998 16.25939,-0.65084 44.10881,31.16178 48.19142,54.06998"
       bendpath2="m 150.87407,195.99851 0,15.84"
       bendpath3="m 54.7625,211.83851 96.11157,0"
       bendpath4="m 54.7625,195.99851 0,15.84"
       bendpath1-nodetypes="csc" />
    <inkscape:path-effect
       effect="envelope"
       id="path-effect3350"
       is_visible="true"
       yy="true"
       xx="true"
       bendpath1="m 54.7625,183.52566 c 14.863,3.49701 28.685042,3.17717 41.727811,0"
       bendpath2="m 96.490311,183.52566 0,10"
       bendpath3="m 54.7625,193.52566 c 13.183034,6.7995 26.322294,9.11752 41.727811,0"
       bendpath4="m 54.7625,183.52566 0,10"
       bendpath3-nodetypes="cc"
       bendpath1-nodetypes="cc" />
    <inkscape:path-effect
       effect="envelope"
       id="path-effect3348"
       is_visible="true"
       yy="true"
       xx="true"
       bendpath1="m 54.7625,177.68566 99.27156,0"
       bendpath2="m 154.03406,177.68566 0,15.84"
       bendpath3="m 54.7625,193.52566 c 31.44269,12.63337 70.02598,10.98552 99.27156,0"
       bendpath4="m 54.7625,177.68566 0,15.84"
       bendpath3-nodetypes="cc" />
    <inkscape:path-effect
       effect="envelope"
       id="path-effect3346"
       is_visible="true"
       yy="true"
       xx="true"
       bendpath1="m 54.7625,177.58566 175.84437,0"
       bendpath2="m 230.60687,177.58566 0,15.94"
       bendpath3="m 54.7625,193.52566 175.84437,0"
       bendpath4="m 54.7625,177.58566 0,15.94" />
    <inkscape:path-effect
       effect="envelope"
       id="path-effect3088"
       is_visible="true"
       yy="true"
       xx="true"
       bendpath1="m 54.7625,177.58566 c 46.69432,-53.21671 123.20365,-43.25997 169.78345,-6.06092"
       bendpath2="m 230.60687,177.58566 0,15.94"
       bendpath3="m 54.7625,193.52566 175.84437,0"
       bendpath4="m 54.7625,177.58566 0,15.94"
       bendpath1-nodetypes="cc" />
    <path
       style="fill:none;stroke:#b0b0ae;stroke-width:1.25;stroke-linecap:round;stroke-linejoin:round;stroke-miterlimit:4;stroke-opacity:1;stroke-dasharray:none;stroke-dashoffset:0"
       d="m 180.71875,203.03125 c 15.90582,-15.48709 42.57545,-25.65625 72.8125,-25.65625 30.6092,0 57.57439,10.409 73.40625,26.21875"
       id="path4123-5"
       inkscape:connector-curvature="0"
       sodipodi:nodetypes="csc" />
    <path
       style="fill:none;stroke:#000000;stroke-width:1px;stroke-linecap:butt;stroke-linejoin:miter;stroke-opacity:1"
       d="m 168.69548,508.39503 c 0,-29.29441 143.94672,-30.80964 144.4518,-1.51523"
       id="path5962-8"
       inkscape:connector-curvature="0"
       sodipodi:nodetypes="cc" />
    <inkscape:path-effect
       effect="bend_path"
       id="path-effect6192-3"
       is_visible="true"
       bendpath="m 148.41428,785.93358 c 5.88556,-1.15293 13.01708,-1.68289 24.57429,0"
       prop_scale="1"
       scale_y_rel="false"
       vertical="false"
       bendpath-nodetypes="cc" />
    <inkscape:path-effect
       effect="bend_path"
       id="path-effect6192-3-3"
       is_visible="true"
       bendpath="m 148.41428,785.93358 c 5.88556,-1.15293 13.01708,-1.68289 24.57429,0"
       prop_scale="1"
       scale_y_rel="false"
       vertical="false"
       bendpath-nodetypes="cc" />
    <path
       sodipodi:nodetypes="cc"
       transform="translate(23.937425,-558.63591)"
       inkscape:connector-curvature="0"
       id="path4066-4"
       d="M 53.033009,651.35784 C 108.19927,610.51763 250.41482,612.11729 306.58129,650.34768"
       style="fill:none;stroke:none" />
    <path
       sodipodi:nodetypes="cc"
       transform="translate(23.937425,-558.63591)"
       inkscape:connector-curvature="0"
       id="path4066-4-7"
       d="M 53.033009,651.35784 C 108.19927,610.51763 250.41482,612.11729 306.58129,650.34768"
       style="fill:none;stroke:none" />
  </defs>
  <sodipodi:namedview
     id="base"
     pagecolor="#ffffff"
     bordercolor="#666666"
     borderopacity="1.0"
     inkscape:pageopacity="0.0"
     inkscape:pageshadow="2"
     inkscape:zoom="0.35"
     inkscape:cx="1171.7935"
     inkscape:cy="129.80925"
     inkscape:document-units="px"
     inkscape:current-layer="layer1"
     showgrid="false"
     showguides="true"
     inkscape:guide-bbox="true"
     inkscape:window-width="1366"
     inkscape:window-height="718"
     inkscape:window-x="1680"
     inkscape:window-y="282"
     inkscape:window-maximized="1"
     inkscape:object-paths="true"
     inkscape:snap-nodes="true"
     inkscape:snap-bbox="false"
     inkscape:bbox-nodes="true"
     inkscape:snap-global="false"
     inkscape:snap-smooth-nodes="true"
     inkscape:object-nodes="true"
     fit-margin-top="0"
     fit-margin-left="0"
     fit-margin-right="0"
     fit-margin-bottom="0" />
  <metadata
     id="metadata7">
    <rdf:RDF>
      <cc:Work
         rdf:about="">
        <dc:format>image/svg+xml</dc:format>
        <dc:type
           rdf:resource="http://purl.org/dc/dcmitype/StillImage" />
        <dc:title />
      </cc:Work>
    </rdf:RDF>
  </metadata>
  <g
     inkscape:label="Layer 1"
     inkscape:groupmode="layer"
     id="layer1"
     transform="translate(90055.938,40.00129)">
    <text
       xml:space="preserve"
       style="font-size:20px;font-style:normal;font-variant:normal;font-weight:normal;font-stretch:normal;line-height:125%;letter-spacing:0px;word-spacing:0px;fill:#000000;fill-opacity:1;stroke:none;font-family:Courier New;-inkscape-font-specification:Courier New"
       x="80"
       y="580.35712"
       id="text4969"
       sodipodi:linespacing="125%"
       transform="translate(23.937425,-558.63591)"><tspan
         sodipodi:role="line"
         id="tspan4971"
         x="80"
         y="580.35712" /></text>
    <path
       sodipodi:type="arc"
       style="fill:#803300;fill-opacity:1;stroke:none"
       id="path6102-5-7-3"
       sodipodi:cx="255.56859"
       sodipodi:cy="568.49908"
       sodipodi:rx="108.08632"
       sodipodi:ry="69.19545"
       d="m 363.65491,568.49908 c 0,38.2156 -48.3919,69.19545 -108.08632,69.19545 -59.69443,0 -108.08632,-30.97985 -108.08632,-69.19545 0,-38.21559 48.39189,-69.19545 108.08632,-69.19545 59.69442,0 108.08632,30.97986 108.08632,69.19545 z"
       transform="matrix(1.6570389,0,0,1.2920379,-90300.322,-685.12051)" />
    <g
       transform="matrix(1.8699798,0,0,1.8699798,-90069.379,-360.62285)"
       style="font-size:20px;font-style:normal;font-variant:normal;font-weight:normal;font-stretch:normal;line-height:125%;letter-spacing:0px;word-spacing:0px;fill:#ffffff;fill-opacity:1;stroke:none;font-family:Courier New;-inkscape-font-specification:Courier New"
       id="flowRoot2993-8-2-3-1-3-6">
      <path
         style="font-weight:900;letter-spacing:0.99000001px;fill:#ffffff;font-family:Chick;-inkscape-font-specification:Chick Heavy"
         d="m 55.545311,201.64735 c 0.135688,-0.43555 0.346861,-0.69648 0.619856,-0.75325 0.937626,-0.2439 1.76106,-0.47363 2.933794,-0.80921 0.254461,-0.0596 0.702032,0.68994 0.617856,1.18837 l -0.304531,5.34222 c 0.02535,0.28095 0.17661,0.4165 0.44919,0.40511 0.0477,-0.002 0.09538,-0.004 0.143036,-0.006 0.272319,-0.0113 0.396179,-0.1618 0.375346,-0.44892 0,0 0.344609,-4.43116 0.414461,-5.51112 0.06985,-1.07996 0.349919,-1.57254 1.235797,-1.75171 0.885878,-0.17917 1.169591,-0.31882 1.764392,-0.43226 0.627717,-0.11973 0.871108,0.5814 0.793089,1.15666 l -0.82029,11.99305 c -0.102412,0.51642 -0.306398,0.78719 -0.570019,0.75232 -0.04921,-0.007 -0.09841,-0.013 -0.147614,-0.0195 -0.04311,-0.006 -0.08622,-0.0114 -0.129329,-0.0172 -0.962132,-0.12747 -1.924309,-0.25454 -2.882491,-0.38835 -0.249403,-0.0348 -0.296398,-0.30623 -0.195768,-0.76054 l 0.261251,-1.95106 c 0.03297,-0.36931 -0.0958,-0.54115 -0.357778,-0.54865 -0.04585,-0.001 -0.09169,-0.003 -0.137544,-0.004 -0.262,-0.007 -0.393007,0.15148 -0.423231,0.50826 l -0.259735,1.88747 c -0.116288,0.43653 -0.334474,0.66069 -0.595479,0.62156 -1.037507,-0.15554 -2.06844,-0.32174 -3.09202,-0.49757 -0.257505,-0.0442 -0.285808,-0.2648 -0.163849,-0.62137 l 0.471617,-9.3344 z"
         id="path6152-5-7-7-7"
         inkscape:connector-curvature="0"
         sodipodi:nodetypes="cccccccczzsccccccccccccscccc" />
      <path
         style="letter-spacing:0.80000001px;fill:#ffffff"
         d="m 75.076133,206.76765 c -0.448151,3.03138 -1.930935,7.17258 -5.550551,6.79112 -3.619616,-0.38146 -4.022267,-4.62908 -4.073743,-7.46266 -0.08762,-4.82341 1.738877,-7.98302 5.634892,-8.73619 3.737991,-0.72262 4.56386,5.52199 3.989402,9.40773 z"
         id="path6154-9-57-1-5"
         inkscape:connector-curvature="0"
         sodipodi:nodetypes="szsss" />
      <path
         inkscape:connector-curvature="0"
         style="font-weight:900;letter-spacing:0.99000001px;fill:#ffffff;font-family:Chick;-inkscape-font-specification:Chick Heavy"
         d="m 89.440846,214.063 c -0.03814,0.74236 -0.194271,1.14729 -0.461817,1.13407 -1.070239,-0.0529 -2.140003,-0.11261 -3.209223,-0.17899 -0.253949,-0.0158 -0.358596,-0.42863 -0.32385,-1.15801 0.313479,-4.75414 0.351653,-7.30734 0.488215,-10.18101 0.02092,-0.4404 -0.09862,-0.66493 -0.362498,-0.65943 -0.04618,9.6e-4 -0.09236,0.002 -0.138546,0.003 -0.263915,0.006 -0.408149,0.23443 -0.428796,0.67191 -0.134782,2.85466 -0.167507,5.38477 -0.49638,10.11057 -0.05041,0.72427 -0.214674,1.11732 -0.481818,1.09895 -1.068613,-0.0735 -2.13665,-0.1534 -3.204072,-0.23927 -0.253517,-0.0204 -0.349333,-0.4211 -0.302249,-1.12297 0.393872,-4.57345 0.397554,-6.9899 0.522314,-9.74639 0.01911,-0.42243 -0.101641,-0.6357 -0.366428,-0.62493 -0.04634,0.002 -0.09268,0.004 -0.139026,0.006 -0.264832,0.011 -0.408696,0.23305 -0.427359,0.65136 -0.121808,2.7295 -0.117142,5.11584 -0.525942,9.64597 -0.06266,0.69428 -0.235311,1.06904 -0.501994,1.046 -1.060081,-0.0916 -2.119541,-0.18865 -3.178377,-0.29047 -0.266375,-0.0256 -0.35343,-0.40684 -0.281566,-1.06817 0.362351,-5.44363 0.6,-10.45611 1.164084,-14.01087 0.08626,-1.47961 1.00112,-2.8611 2.324702,-3.06795 1.87761,-0.29344 5.578766,-0.67634 8.811685,-0.93527 1.913861,-0.15329 2.31184,3.32424 2.189039,4.89161 -0.370413,4.86372 -0.326984,7.34344 -0.670094,14.02465 z"
         id="path6156-5-1-2-3"
         sodipodi:nodetypes="cccccccccccccccccccccssccc" />
      <path
         inkscape:connector-curvature="0"
         style="font-weight:900;letter-spacing:0.99000001px;fill:#ffffff;font-family:Chick;-inkscape-font-specification:Chick Heavy"
         d="m 99.595157,203.07665 c -0.04589,0.89045 -0.226589,1.55331 -0.55365,2.03217 -0.41437,0.60599 -1.062233,0.90656 -1.945798,0.88952 -0.487393,-0.0209 -0.974674,-0.0415 -1.461856,-0.0616 -0.263577,-0.005 -0.3988,0.0845 -0.405592,0.26973 -0.0068,0.18516 0.121647,0.28136 0.385282,0.28621 1.124429,0.0207 2.249423,0.043 3.375088,0.0663 0.01576,3.3e-4 0.03153,6.7e-4 0.04729,0.001 0.263461,0.006 0.38723,0.23856 0.371919,0.72056 -0.0609,1.91597 -0.121527,4.08637 -0.18637,7.05399 -0.01632,0.74658 -0.158428,1.15769 -0.426439,1.15486 -0.01604,-1.7e-4 -0.03207,-3.4e-4 -0.04811,-5.1e-4 -1.049552,-0.0112 -2.098924,-0.0287 -3.148019,-0.0527 -0.696689,-0.016 -1.328929,-0.41643 -1.893404,-1.13051 -0.564476,-0.71409 -1.06123,-1.73447 -1.498775,-2.90342 -0.436929,-1.18455 -0.753929,-2.32969 -0.953068,-3.4468 -0.19914,-1.11711 -0.280855,-2.20387 -0.230806,-3.36559 0.06112,-1.41864 0.135986,-2.84366 0.266907,-4.56298 0.103086,-1.35379 0.323168,-2.32968 0.911116,-3.56636 0.707233,-1.65896 1.960703,-1.68841 3.664557,-1.80543 2.33464,0.16634 3.331531,0.59341 3.721304,2.40427 l 0,0 c 0.186427,0.99539 0.106776,2.40648 0.03833,3.45719 -0.0729,1.06044 0.0107,1.64422 -0.02991,2.56004 z"
         id="path6158-9-6-2-5"
         sodipodi:nodetypes="cccccccccscccscsssccccccc" />
      <path
         style="letter-spacing:0.80000001px;fill:#ffffff"
         d="m 121.77701,213.79764 c 0.0312,0.62766 -0.0803,0.98121 -0.34766,1.00021 -1.06963,0.076 -2.13968,0.14635 -3.21009,0.21062 -0.25423,0.0153 -0.40534,-0.33893 -0.44226,-0.99816 -0.0769,-2.15277 -0.0843,-3.86131 -0.0733,-5.36632 0.011,-1.50501 0.0404,-2.80649 0.085,-4.14084 0.0137,-0.40898 -0.10918,-0.62392 -0.37137,-0.6385 -0.0459,-0.003 -0.0918,-0.005 -0.13766,-0.008 -0.26219,-0.0145 -0.40185,0.18784 -0.41603,0.60056 -0.0463,1.34655 -0.0767,2.65875 -0.0896,4.17713 -0.0129,1.51839 -0.008,3.24296 0.0626,5.41842 0.0217,0.66682 -0.0961,1.04039 -0.3638,1.0548 -1.07078,0.0576 -2.14189,0.10905 -3.21325,0.15415 -0.25446,0.0107 -0.39914,-0.36516 -0.42579,-1.05834 -0.0434,-2.26285 -0.0359,-4.04886 -0.0146,-5.61862 0.0212,-1.56975 0.0561,-2.92325 0.10928,-4.31747 0.0163,-0.42734 -0.10499,-0.65166 -0.3671,-0.66527 -0.0459,-0.002 -0.0917,-0.005 -0.13761,-0.007 -0.26211,-0.0135 -0.4032,0.19888 -0.41996,0.6293 -0.0547,1.40431 -0.0906,2.76638 -0.11391,4.34679 -0.0233,1.58041 -0.0338,3.37916 0.003,5.66029 0.0113,0.6992 -0.11323,1.08883 -0.38113,1.09838 -1.0649,0.038 -2.13001,0.0697 -3.19523,0.0951 -0.26798,0.006 -0.40591,-0.38711 -0.40852,-1.10696 l 0.14312,-16.82367 c -0.072,-1.70582 1.50491,-2.67993 2.21516,-2.64715 2.1997,0.10152 6.0324,0.29533 9.02469,0.67848 2.47795,0.26166 2.85101,2.42276 2.74725,4.58656 -0.36484,5.80696 -0.1778,8.77252 -0.26119,13.68527 z"
         id="path6162-9-98-1-6"
         inkscape:connector-curvature="0"
         sodipodi:nodetypes="ccccsccccscccccscccscccccscccc" />
      <path
         style="letter-spacing:0.80000001px;fill:#ffffff"
         d="m 131.38857,213.1074 c 0.0456,0.53578 -0.0559,0.84027 -0.32254,0.86641 -1.07336,0.10522 -2.14729,0.20683 -3.22178,0.30388 -0.23016,0.0208 -0.45762,0.01 -0.68202,-0.0337 -1.11589,-0.21601 -2.15844,-1.28018 -3.02314,-2.82895 -0.51307,-0.9433 -0.88521,-1.90524 -1.12384,-2.86763 -0.23862,-0.96238 -0.34459,-1.92354 -0.32145,-2.9311 0.0218,-0.94942 0.0894,-2.88127 0.40942,-3.72424 1.88713,-4.97171 6.67429,-6.01009 8.18229,-3.85031 0.0706,0.2325 0.19359,1.31123 0.17709,1.51976 l -0.0741,13.5459 z"
         id="path6164-9-13-5-2"
         inkscape:connector-curvature="0"
         sodipodi:nodetypes="cscccssscccc" />
      <path
         style="font-weight:900;letter-spacing:0.99000001px;fill:#ffffff;font-family:Chick;-inkscape-font-specification:Chick Heavy"
         d="m 140.97733,212.23198 c 0.0546,0.42878 -0.51607,0.76914 -0.78136,0.80044 -1.06799,0.12597 -1.65967,0.15339 -2.72988,0.27255 -0.68468,0.0762 -1.35456,-0.0874 -1.98918,-0.48493 -0.63463,-0.39752 -1.23133,-1.02608 -1.76179,-1.81242 -0.52439,-0.79777 -0.90383,-1.62965 -1.14809,-2.47372 -0.24426,-0.84407 -0.27807,-2.96252 0.13741,-4.31359 0.69679,-2.26589 1.49754,-3.83914 4.33121,-3.55583 0.0496,-0.66877 0.2857,-2.93979 0.82434,-3.98491 0.53864,-1.04513 1.37983,-0.86435 2.23446,-0.68096 0.67317,0.18353 1.15305,0.11654 1.26641,0.78888 0.0348,0.24997 0.0307,1.08827 -0.0136,0.69604 -0.3818,6.50489 -0.60761,9.49802 -0.36989,14.74867 z"
         id="path6166-0-3-0-9"
         inkscape:connector-curvature="0"
         sodipodi:nodetypes="cccccsscsccccc" />
      <path
         style="font-weight:900;letter-spacing:0.99000001px;fill:#ffffff;font-family:Chick;-inkscape-font-specification:Chick Heavy"
         d="m 142.04059,203.48375 c -0.19387,1.14311 -0.0776,3.76772 0.30503,4.88291 0.50443,1.534 1.57987,2.97859 3.1184,3.57952 0.88004,0.35513 1.83882,0.19033 2.74478,0.0561 0.76732,-0.12136 1.55426,-0.17409 2.3063,-0.35962 0.24939,-0.20117 0.0774,-0.55449 0.12418,-0.83118 -0.002,-1.08808 0.0407,-1.84958 0.0279,-2.91894 -0.007,-0.60721 -1.1552,-0.58956 -1.83008,-0.5838 -0.67488,0.006 -1.55154,0.0365 -2.32324,-0.0111 -0.44386,-0.35768 0.48128,-0.36677 0.72844,-0.32445 1.03305,0.001 2.21682,0.14045 3.06251,-0.5881 0.64654,-0.56671 0.60702,-1.49754 0.48445,-2.25727 -0.30188,-1.87118 -1.48859,-2.5803 -2.13172,-2.83596 -0.9703,-0.38571 -2.1792,-0.7669 -3.22526,-0.94487 -1.90676,-0.3244 -3.13674,1.6337 -3.39166,3.13676 z"
         id="path6168-5-3-9-1"
         inkscape:connector-curvature="0"
         sodipodi:nodetypes="ccccccszcccssssc" />
    </g>
    <g
       transform="matrix(7.0605448,0,0,7.0605448,-90405.408,-1245.908)"
       style="font-size:20px;font-style:normal;font-variant:normal;font-weight:normal;font-stretch:normal;line-height:125%;letter-spacing:0px;word-spacing:0px;fill:#ffffff;fill-opacity:1;stroke:none;font-family:Courier New;-inkscape-font-specification:Courier New"
       id="flowRoot2993-1-1-7-0-2">
      <path
         style="font-weight:900;letter-spacing:0.99000001px;fill:#ffffff;font-family:Chick;-inkscape-font-specification:Chick Heavy"
         d="m 60.535661,189.67235 c -0.143467,0.6935 -0.518327,1.23413 -1.127632,1.58065 -0.60932,0.34653 -1.375276,0.34499 -2.067733,0.11978 -1.124405,-0.33749 -2.336656,-1.03977 -2.913288,-1.99152 -0.347431,-0.59077 -0.377446,-0.84233 -0.190403,-1.47693 0.112225,-0.38075 0.224579,-0.76286 0.338567,-1.14535 0.441811,0.13196 0.884104,0.26127 1.326758,0.38806 0.54572,0.22564 0.906942,-0.001 1.084257,-0.6718 0.431345,-1.6318 0.703391,-2.98914 1.114877,-4.62822 0.06505,-0.25913 0.217199,-0.35585 0.46016,-0.29077 0.971826,0.26034 1.947426,0.49828 2.927064,0.71324 0.244902,0.0537 0.342437,0.21201 0.290661,0.47538 -0.233027,1.18524 -0.278759,2.09936 -0.51769,3.28602 -0.23893,1.18666 -0.46737,2.39316 -0.725598,3.64146 z"
         id="path6105-98-4-7"
         inkscape:connector-curvature="0"
         sodipodi:nodetypes="ssccsccsccccss" />
      <path
         style="font-weight:900;letter-spacing:0.99000001px;fill:#ffffff;font-family:Chick;-inkscape-font-specification:Chick Heavy"
         d="m 70.26672,194.15338 c -0.0267,0.35951 -0.188444,0.52913 -0.481787,0.49202 -1.180745,-0.14935 -2.354652,-0.35221 -3.517974,-0.59797 -1.488478,-0.31445 -2.630793,-1.28126 -3.457549,-2.62982 -0.810101,-1.36018 -1.077614,-2.71048 -0.826571,-4.11338 0.236558,-1.32196 0.877777,-2.34173 1.868214,-3.14665 1.003063,-0.80267 2.090032,-1.171 3.31714,-1.11407 1.117303,0.13898 2.238241,0.24741 3.36179,0.32463 0.08738,0.006 0.164372,0.0795 0.231594,0.22026 0.08052,0.12804 0.117672,0.25306 0.110735,0.37531 -0.0872,1.53501 -0.173912,3.06598 -0.266097,4.72184 -0.09219,1.65585 -0.18873,3.43665 -0.339495,5.46783 z"
         id="path6144-6-0-0"
         inkscape:connector-curvature="0" />
      <path
         style="font-weight:900;letter-spacing:0.99000001px;fill:#ffffff;font-family:Chick;-inkscape-font-specification:Chick Heavy"
         d="m 86.5925,192.73011 c 0.0603,0.31066 -0.04758,0.50582 -0.33101,0.57734 -1.13377,0.28608 -2.276824,0.5496 -3.429527,0.77715 -0.273777,0.054 -0.443669,-0.0936 -0.502999,-0.43084 -0.293632,-2.21715 -0.450947,-4.16597 -0.615903,-6.0022 -0.02529,-0.28141 -0.170375,-0.40464 -0.435587,-0.37586 -0.04641,0.005 -0.09283,0.01 -0.139246,0.015 -0.265252,0.0282 -0.387079,0.18075 -0.365155,0.46398 0.142997,1.84813 0.28,3.81672 0.542917,6.07232 0.04028,0.34569 -0.08191,0.5487 -0.37254,0.59489 -1.162555,0.18473 -2.333855,0.32644 -3.510356,0.41552 -0.279425,0.0212 -0.436167,-0.15775 -0.466929,-0.52022 -0.105614,-2.3709 -0.150361,-4.39874 -0.197456,-6.28218 -0.0072,-0.28864 -0.143558,-0.42535 -0.409111,-0.41776 -0.04647,10e-4 -0.09294,0.003 -0.139415,0.004 -0.265556,0.007 -0.396509,0.15118 -0.392818,0.44039 0.02406,1.88716 0.04608,3.92155 0.109929,6.3056 0.0098,0.36538 -0.131921,0.5607 -0.427047,0.56833 -1.173141,0.0303 -2.348585,0.006 -3.520803,-0.0747 -0.294898,-0.0202 -0.432081,-0.22076 -0.413697,-0.5842 0.211406,-4.17949 0.309329,-7.28367 0.435567,-10.41523 0.01098,-0.27229 0.141475,-0.40283 0.391723,-0.39338 3.459679,0.13069 6.938967,-0.0388 10.403221,-0.475 0.626437,-0.0789 1.185123,0.0821 1.691123,0.48369 0.505978,0.40163 0.815315,0.92892 0.914331,1.59629 0.178209,1.20129 0.351241,2.41457 0.534171,3.67907 0.182929,1.26451 0.375192,2.58029 0.646617,3.97819 z"
         id="path6109-7-1-9"
         inkscape:connector-curvature="0" />
      <path
         style="font-weight:900;letter-spacing:0.99000001px;fill:#ffffff;font-family:Chick;-inkscape-font-specification:Chick Heavy"
         d="m 95.518365,185.40022 c 0.386118,1.3329 0.264091,2.36025 -0.476717,3.61052 -0.744278,1.23738 -1.676848,1.79573 -3.272524,2.52556 -1.046603,0.47869 -2.262746,0.90037 -3.378844,1.20782 -0.280779,0.0773 -0.456527,-0.0378 -0.520033,-0.33916 -0.252434,-1.1978 -0.442893,-2.34326 -0.622905,-3.45265 -0.04529,-0.27909 0.06795,-0.44376 0.338283,-0.49909 1.169205,-0.23925 2.33533,-0.49997 3.497752,-0.77827 0.268766,-0.0643 0.391415,-0.15003 0.36825,-0.25553 -0.02317,-0.10547 -0.168457,-0.1256 -0.436187,-0.0621 -0.49389,0.12416 -0.988614,0.24503 -1.484087,0.36242 -1.611138,0.35899 -2.516683,-0.096 -2.705908,-1.26406 -0.07932,-0.53155 -0.159274,-1.05833 -0.239723,-1.5835 -0.0971,-0.6656 0.0337,-1.26661 0.381616,-1.8094 0.360494,-0.54509 0.847426,-0.87876 1.468811,-1.00688 1.174416,-0.24213 2.34463,-0.51217 3.509794,-0.80867 0.616484,-0.15686 1.19081,-0.0691 1.742395,0.26196 0.551577,0.33104 0.925633,0.81133 1.113316,1.4514 0.11073,0.37766 0.222594,0.75523 0.334068,1.13295 0.07557,0.2561 -0.0156,0.42135 -0.273808,0.49389 -1.704211,0.47889 -3.425694,0.90757 -5.156638,1.28672 -0.262265,0.0575 -0.375179,0.17747 -0.338537,0.36249 0.03663,0.18499 0.187172,0.24939 0.451443,0.19091 1.744178,-0.38587 3.479432,-0.8195 5.198095,-1.30142 0.260398,-0.073 0.427826,0.0177 0.502088,0.27406 z"
         id="path6111-04-3-3"
         inkscape:connector-curvature="0"
         sodipodi:nodetypes="ccsccccccccccccccccccccccc" />
    </g>
    <g
       style="font-size:20px;font-style:normal;font-variant:normal;font-weight:normal;font-stretch:normal;line-height:125%;letter-spacing:0px;word-spacing:0px;fill:#803300;fill-opacity:1;stroke:none;font-family:Courier New;-inkscape-font-specification:Courier New"
       id="flowRoot5584-3-8-7-6"
       transform="matrix(8.8051088,0,0,8.8051088,-90644.342,-1826.9495)">
      <path
         d="m 82.463381,217.85634 c -0.02381,0.17801 -0.104315,0.33194 -0.241526,0.46184 -0.128784,0.12281 -0.274101,0.17335 -0.435978,0.15169 -0.14717,-0.0197 -0.2438,-0.0532 -0.289883,-0.10061 -0.0461,-0.0474 -0.0765,-0.072 -0.09122,-0.0739 -0.01472,-0.002 -0.0236,0.009 -0.02694,0.0335 -0.0043,0.0323 0.02241,0.0565 0.08018,0.0726 0.13763,0.035 0.248767,0.12801 0.333394,0.27931 0.08571,0.14316 0.118266,0.29172 0.09771,0.44543 -0.02489,0.18608 -0.105399,0.34004 -0.241526,0.46183 -0.13504,0.11364 -0.287193,0.15925 -0.45643,0.13661 -0.191317,-0.0256 -0.336639,-0.11505 -0.435976,-0.26832 -0.09934,-0.15331 -0.135479,-0.33107 -0.108423,-0.53334 0.0022,-0.0163 0.0043,-0.0323 0.0065,-0.0486 0.01058,-0.0233 0.01697,-0.043 0.01913,-0.0592 0.0054,-0.0405 -0.0029,-0.0622 -0.02499,-0.0652 -0.02207,-0.003 -0.03583,0.0159 -0.04124,0.0563 -0.0022,0.0163 -0.0011,0.037 0.0029,0.0621 -0.0033,0.0243 -0.0054,0.0405 -0.0065,0.0486 -0.02381,0.17801 -0.08009,0.31871 -0.168804,0.42214 -0.149976,0.16936 -0.331667,0.23978 -0.545054,0.21123 -0.176601,-0.0236 -0.318774,-0.10862 -0.426562,-0.25471 -0.09933,-0.15331 -0.13602,-0.32702 -0.110045,-0.52121 0.02813,-0.21035 0.120766,-0.3709 0.277884,-0.48167 0.09803,-0.0609 0.207544,-0.0958 0.328525,-0.1043 0.06622,0.009 0.102584,-0.011 0.109066,-0.0595 0.0022,-0.0163 -0.0078,-0.0257 -0.02987,-0.0287 -0.0073,-9.8e-4 -0.05368,0.009 -0.138948,0.0308 -0.08526,0.0215 -0.164699,0.0274 -0.238281,0.0176 -0.169241,-0.0226 -0.307749,-0.10704 -0.415524,-0.25323 -0.09933,-0.15332 -0.13656,-0.32298 -0.11167,-0.50907 0.02381,-0.17799 0.103773,-0.32789 0.239904,-0.4497 0.136134,-0.12182 0.288811,-0.17137 0.458051,-0.14873 0.183956,0.0246 0.328206,0.12208 0.432732,0.29258 0.104524,0.17047 0.153112,0.25521 0.145757,0.2542 0.01472,0.002 0.02326,-0.006 0.02531,-0.0213 -0.0012,0.009 -0.02978,-0.0575 -0.08602,-0.19679 -0.05628,-0.13924 -0.07574,-0.27368 -0.05842,-0.40315 0.02489,-0.18607 0.104313,-0.33192 0.238278,-0.43754 0.142392,-0.11266 0.298226,-0.15777 0.467467,-0.13513 0.16188,0.0216 0.296695,0.10566 0.404488,0.25175 0.115127,0.14725 0.160795,0.30975 0.136991,0.48774 -0.02922,0.21846 -0.110269,0.37645 -0.243151,0.47398 -0.0422,0.0356 -0.05756,0.0663 -0.04609,0.0926 0.02206,0.003 0.05107,-0.0179 0.087,-0.0624 0.1344,-0.22085 0.33036,-0.31404 0.587903,-0.27961 0.169236,0.0227 0.307733,0.10714 0.415525,0.25323 0.107763,0.14625 0.149217,0.31232 0.12433,0.49841"
         style="font-weight:900;fill:#803300;font-family:Chick;-inkscape-font-specification:Chick Heavy"
         id="path5593-9-4-4-0"
         inkscape:connector-curvature="0"
         sodipodi:nodetypes="ccccccccccccccccccccccscccccccsccccccccccccccccc" />
    </g>
    <text
       xml:space="preserve"
       style="font-size:39.10031128px;font-style:normal;font-variant:normal;font-weight:normal;font-stretch:normal;line-height:125%;letter-spacing:0px;word-spacing:0px;fill:#ffffff;fill-opacity:1;stroke:none;font-family:Courier New;-inkscape-font-specification:Courier New"
       x="-89881.477"
       y="33.547733"
       id="text6194-8-1-6"
       sodipodi:linespacing="125%"><tspan
         sodipodi:role="line"
         id="tspan6196-1-1-2"
         x="-89881.477"
         y="33.547733"
         style="font-style:normal;font-variant:normal;font-weight:900;font-stretch:normal;fill:#ffffff;font-family:Chick;-inkscape-font-specification:Chick Heavy">-</tspan></text>
    <g
       style="font-size:93.32071686px;font-style:normal;font-variant:normal;font-weight:normal;font-stretch:normal;line-height:125%;letter-spacing:0px;word-spacing:0px;fill:#803300;fill-opacity:1;stroke:none;font-family:Courier New;-inkscape-font-specification:Courier New"
       id="text6194-2-2-6-3-6"
       transform="matrix(0.31898767,0,0,0.31898767,-89974.648,-228.13286)">
      <path
         d="m 128.01999,792.90242 c -3e-5,1.36873 -0.49774,2.613 -1.49313,3.73283 -0.93323,1.05765 -2.08419,1.58647 -3.45287,1.58645 -1.24429,2e-5 -2.08418,-0.15551 -2.51966,-0.4666 -0.43551,-0.31105 -0.71547,-0.46659 -0.83988,-0.46661 -0.12445,2e-5 -0.18666,0.0933 -0.18664,0.27997 -2e-5,0.24887 0.24883,0.40441 0.74656,0.4666 1.18204,0.12445 2.20857,0.71548 3.07959,1.77309 0.87096,0.99544 1.30646,2.08418 1.30649,3.26623 -3e-5,1.43093 -0.49774,2.6752 -1.49313,3.73283 -0.99545,0.99543 -2.20862,1.49314 -3.63951,1.49313 -1.61758,10e-6 -2.92407,-0.52881 -3.91947,-1.58645 -0.99544,-1.05763 -1.49315,-2.36411 -1.49313,-3.91947 -2e-5,-0.12442 -2e-5,-0.24884 0,-0.37329 0.0622,-0.18662 0.0933,-0.34216 0.0933,-0.4666 -2e-5,-0.31105 -0.0933,-0.46659 -0.27997,-0.4666 -0.18665,10e-6 -0.27997,0.15555 -0.27996,0.4666 -10e-6,0.12444 0.0311,0.27998 0.0933,0.4666 -10e-6,0.18666 -10e-6,0.31109 0,0.37329 -10e-6,1.36871 -0.31108,2.48856 -0.9332,3.35954 -1.05765,1.43093 -2.48857,2.14639 -4.29276,2.14638 -1.49314,10e-6 -2.76852,-0.4977 -3.82615,-1.49313 -0.99542,-1.05763 -1.49313,-2.33301 -1.49313,-3.82615 0,-1.61754 0.59103,-2.92403 1.7731,-3.91947 0.74655,-0.55991 1.61755,-0.93319 2.61298,-1.11985 0.55991,2e-5 0.83987,-0.18662 0.83988,-0.55993 -1e-5,-0.1244 -0.0933,-0.18662 -0.27996,-0.18664 -0.0622,2e-5 -0.43551,0.12445 -1.11985,0.37329 -0.68436,0.24887 -1.3376,0.3733 -1.95973,0.37328 -1.43093,2e-5 -2.6752,-0.49769 -3.73283,-1.49313 -0.99543,-1.05761 -1.493135,-2.30189 -1.493134,-3.73283 -10e-7,-1.36868 0.497704,-2.58185 1.493134,-3.63951 0.99541,-1.0576 2.20858,-1.58642 3.63951,-1.58645 1.55533,3e-5 2.86182,0.59106 3.91947,1.77309 1.05762,1.18209 1.55533,1.77312 1.49313,1.7731 0.12441,2e-5 0.18663,-0.0622 0.18664,-0.18665 -1e-5,0.0622 -0.31108,-0.40436 -0.93321,-1.39981 -0.62215,-0.99539 -0.93322,-1.99081 -0.93321,-2.98626 -1e-5,-1.43088 0.4977,-2.61294 1.49314,-3.54619 1.05762,-0.99538 2.30189,-1.49309 3.73282,-1.49313 1.36869,4e-5 2.58186,0.49775 3.63951,1.49313 1.11983,0.99546 1.67975,2.17752 1.67977,3.54619 -2e-5,1.6798 -0.49773,2.95519 -1.49313,3.82615 -0.31108,0.3111 -0.4044,0.55995 -0.27996,0.74657 0.18662,2e-5 0.40437,-0.18662 0.65325,-0.55993 0.87097,-1.80417 2.39521,-2.70627 4.57271,-2.7063 1.43089,3e-5 2.67517,0.49774 3.73283,1.49313 1.05761,0.99545 1.58642,2.20862 1.58645,3.63951"
         style="font-weight:900;fill:#803300;font-family:Chick;-inkscape-font-specification:Chick Heavy"
         id="path6228-3-8-0-1"
         inkscape:connector-curvature="0"
         sodipodi:nodetypes="ccccccccccccccccccccccscccccccsccccccccccccccccc" />
    </g>
    <g
       style="font-size:93.32071686px;font-style:normal;font-variant:normal;font-weight:normal;font-stretch:normal;line-height:125%;letter-spacing:0px;word-spacing:0px;fill:#803300;fill-opacity:1;stroke:none;font-family:Courier New;-inkscape-font-specification:Courier New"
       id="text6194-2-6-5-3-8"
       transform="matrix(0.30106629,0,0,0.30106629,-89924.624,-222.74698)">
      <path
         d="m 128.01999,792.90242 c -3e-5,1.36873 -0.49774,2.613 -1.49313,3.73283 -0.93323,1.05765 -2.08419,1.58647 -3.45287,1.58645 -1.24429,2e-5 -2.08418,-0.15551 -2.51966,-0.4666 -0.43551,-0.31105 -0.71547,-0.46659 -0.83988,-0.46661 -0.12445,2e-5 -0.18666,0.0933 -0.18664,0.27997 -2e-5,0.24887 0.24883,0.40441 0.74656,0.4666 1.18204,0.12445 2.20857,0.71548 3.07959,1.77309 0.87096,0.99544 1.30646,2.08418 1.30649,3.26623 -3e-5,1.43093 -0.49774,2.6752 -1.49313,3.73283 -0.99545,0.99543 -2.20862,1.49314 -3.63951,1.49313 -1.61758,10e-6 -2.92407,-0.52881 -3.91947,-1.58645 -0.99544,-1.05763 -1.49315,-2.36411 -1.49313,-3.91947 -2e-5,-0.12442 -2e-5,-0.24884 0,-0.37329 0.0622,-0.18662 0.0933,-0.34216 0.0933,-0.4666 -2e-5,-0.31105 -0.0933,-0.46659 -0.27997,-0.4666 -0.18665,10e-6 -0.27997,0.15555 -0.27996,0.4666 -10e-6,0.12444 0.0311,0.27998 0.0933,0.4666 -10e-6,0.18666 -10e-6,0.31109 0,0.37329 -10e-6,1.36871 -0.31108,2.48856 -0.9332,3.35954 -1.05765,1.43093 -2.48857,2.14639 -4.29276,2.14638 -1.49314,10e-6 -2.76852,-0.4977 -3.82615,-1.49313 -0.99542,-1.05763 -1.49313,-2.33301 -1.49313,-3.82615 0,-1.61754 0.59103,-2.92403 1.7731,-3.91947 0.74655,-0.55991 1.61755,-0.93319 2.61298,-1.11985 0.55991,2e-5 0.83987,-0.18662 0.83988,-0.55993 -1e-5,-0.1244 -0.0933,-0.18662 -0.27996,-0.18664 -0.0622,2e-5 -0.43551,0.12445 -1.11985,0.37329 -0.68436,0.24887 -1.3376,0.3733 -1.95973,0.37328 -1.43093,2e-5 -2.6752,-0.49769 -3.73283,-1.49313 -0.99543,-1.05761 -1.493135,-2.30189 -1.493134,-3.73283 -10e-7,-1.36868 0.497704,-2.58185 1.493134,-3.63951 0.99541,-1.0576 2.20858,-1.58642 3.63951,-1.58645 1.55533,3e-5 2.86182,0.59106 3.91947,1.77309 1.05762,1.18209 1.55533,1.77312 1.49313,1.7731 0.12441,2e-5 0.18663,-0.0622 0.18664,-0.18665 -1e-5,0.0622 -0.31108,-0.40436 -0.93321,-1.39981 -0.62215,-0.99539 -0.93322,-1.99081 -0.93321,-2.98626 -1e-5,-1.43088 0.4977,-2.61294 1.49314,-3.54619 1.05762,-0.99538 2.30189,-1.49309 3.73282,-1.49313 1.36869,4e-5 2.58186,0.49775 3.63951,1.49313 1.11983,0.99546 1.67975,2.17752 1.67977,3.54619 -2e-5,1.6798 -0.49773,2.95519 -1.49313,3.82615 -0.31108,0.3111 -0.4044,0.55995 -0.27996,0.74657 0.18662,2e-5 0.40437,-0.18662 0.65325,-0.55993 0.87097,-1.80417 2.39521,-2.70627 4.57271,-2.7063 1.43089,3e-5 2.67517,0.49774 3.73283,1.49313 1.05761,0.99545 1.58642,2.20862 1.58645,3.63951"
         style="font-weight:900;fill:#803300;font-family:Chick;-inkscape-font-specification:Chick Heavy"
         id="path6228-8-2-2-7"
         inkscape:connector-curvature="0"
         sodipodi:nodetypes="ccccccccccccccccccccccscccccccsccccccccccccccccc" />
    </g>
    <g
       style="font-size:93.32071686px;font-style:normal;font-variant:normal;font-weight:normal;font-stretch:normal;line-height:125%;letter-spacing:0px;word-spacing:0px;fill:#803300;fill-opacity:1;stroke:none;font-family:Courier New;-inkscape-font-specification:Courier New"
       id="text6194-2-9-1-1-9"
       transform="matrix(0.31637407,0,0,0.31637407,-89866.769,-224.81302)">
      <path
         d="m 128.4191,790.30818 c -3e-5,1.36873 -0.49774,2.613 -1.49313,3.73283 -0.93323,1.05765 -2.08419,1.58647 -3.45287,1.58645 -1.24429,2e-5 -2.08418,-0.15551 -2.51966,-0.4666 -0.43551,-0.31105 -0.71547,-0.46659 -0.83988,-0.46661 -0.12445,2e-5 -0.18666,0.0933 -0.18664,0.27997 -2e-5,0.24887 0.24883,0.40441 0.74656,0.4666 1.18204,0.12445 2.20857,0.71548 3.07959,1.77309 0.87096,0.99544 1.30646,2.08418 1.30649,3.26623 -3e-5,1.43093 -0.49774,2.6752 -1.49313,3.73283 -0.99545,0.99543 -2.20862,1.49314 -3.63951,1.49313 -1.61758,10e-6 -2.92407,-0.52881 -3.91947,-1.58645 -0.99544,-1.05763 -1.49315,-2.36411 -1.49313,-3.91947 -2e-5,-0.12442 -2e-5,-0.24884 0,-0.37329 0.0622,-0.18662 0.0933,-0.34216 0.0933,-0.4666 -2e-5,-0.31105 -0.0933,-0.46659 -0.27997,-0.4666 -0.18665,10e-6 -0.27997,0.15555 -0.27996,0.4666 -1e-5,0.12444 0.0311,0.27998 0.0933,0.4666 -1e-5,0.18666 -1e-5,0.31109 0,0.37329 -1e-5,1.36871 -0.31108,2.48856 -0.9332,3.35954 -1.05765,1.43093 -2.48857,2.14639 -4.29276,2.14638 -1.49314,10e-6 -2.76852,-0.4977 -3.82615,-1.49313 -0.99542,-1.05763 -1.49313,-2.33301 -1.49313,-3.82615 0,-1.61754 0.59103,-2.92403 1.7731,-3.91947 0.74655,-0.55991 1.61755,-0.93319 2.61298,-1.11985 0.55991,2e-5 0.83987,-0.18662 0.83988,-0.55993 -10e-6,-0.1244 -0.0933,-0.18662 -0.27996,-0.18664 -0.0622,2e-5 -0.43551,0.12445 -1.11985,0.37329 -0.68436,0.24887 -1.3376,0.3733 -1.95973,0.37328 -1.43093,2e-5 -2.6752,-0.49769 -3.73283,-1.49313 -0.99543,-1.05761 -1.49313,-2.30189 -1.49313,-3.73283 0,-1.36868 0.4977,-2.58185 1.49313,-3.63951 0.99541,-1.0576 2.20858,-1.58642 3.63951,-1.58645 1.55533,3e-5 2.86182,0.59106 3.91947,1.77309 1.05762,1.18209 1.55533,1.77312 1.49313,1.7731 0.12441,2e-5 0.18663,-0.0622 0.18664,-0.18665 -1e-5,0.0622 -0.31108,-0.40436 -0.93321,-1.39981 -0.62215,-0.99539 -0.93322,-1.99081 -0.93321,-2.98626 -1e-5,-1.43088 0.4977,-2.61294 1.49314,-3.54619 1.05762,-0.99538 2.30189,-1.49309 3.73282,-1.49313 1.36869,4e-5 2.58186,0.49775 3.63951,1.49313 1.11983,0.99546 1.67975,2.17752 1.67977,3.54619 -2e-5,1.6798 -0.49773,2.95519 -1.49313,3.82615 -0.31108,0.3111 -0.4044,0.55995 -0.27996,0.74657 0.18662,2e-5 0.40437,-0.18662 0.65325,-0.55993 0.87097,-1.80417 2.39521,-2.70627 4.57271,-2.7063 1.43089,3e-5 2.67517,0.49774 3.73283,1.49313 1.05761,0.99545 1.58642,2.20862 1.58645,3.63951"
         style="font-weight:900;fill:#803300;font-family:Chick;-inkscape-font-specification:Chick Heavy"
         id="path6228-2-9-7-2"
         inkscape:connector-curvature="0"
         sodipodi:nodetypes="ccccccccccccccccccccccscccccccsccccccccccccccccc" />
    </g>
    <g
       style="font-size:93.32071686px;font-style:normal;font-variant:normal;font-weight:normal;font-stretch:normal;line-height:125%;letter-spacing:0px;word-spacing:0px;fill:#803300;fill-opacity:1;stroke:none;font-family:Courier New;-inkscape-font-specification:Courier New"
       id="text6194-2-8-9-5-0"
       transform="matrix(0.30019509,0,0,0.30019509,-89846.995,-211.70043)">
      <path
         d="m 128.01999,792.90242 c -3e-5,1.36873 -0.49774,2.613 -1.49313,3.73283 -0.93323,1.05765 -2.08419,1.58647 -3.45287,1.58645 -1.24429,2e-5 -2.08418,-0.15551 -2.51966,-0.4666 -0.43551,-0.31105 -0.71547,-0.46659 -0.83988,-0.46661 -0.12445,2e-5 -0.18666,0.0933 -0.18664,0.27997 -2e-5,0.24887 0.24883,0.40441 0.74656,0.4666 1.18204,0.12445 2.20857,0.71548 3.07959,1.77309 0.87096,0.99544 1.30646,2.08418 1.30649,3.26623 -3e-5,1.43093 -0.49774,2.6752 -1.49313,3.73283 -0.99545,0.99543 -2.20862,1.49314 -3.63951,1.49313 -1.61758,10e-6 -2.92407,-0.52881 -3.91947,-1.58645 -0.99544,-1.05763 -1.49315,-2.36411 -1.49313,-3.91947 -2e-5,-0.12442 -2e-5,-0.24884 0,-0.37329 0.0622,-0.18662 0.0933,-0.34216 0.0933,-0.4666 -2e-5,-0.31105 -0.0933,-0.46659 -0.27997,-0.4666 -0.18665,10e-6 -0.27997,0.15555 -0.27996,0.4666 -10e-6,0.12444 0.0311,0.27998 0.0933,0.4666 -10e-6,0.18666 -10e-6,0.31109 0,0.37329 -10e-6,1.36871 -0.31108,2.48856 -0.9332,3.35954 -1.05765,1.43093 -2.48857,2.14639 -4.29276,2.14638 -1.49314,10e-6 -2.76852,-0.4977 -3.82615,-1.49313 -0.99542,-1.05763 -1.49313,-2.33301 -1.49313,-3.82615 0,-1.61754 0.59103,-2.92403 1.7731,-3.91947 0.74655,-0.55991 1.61755,-0.93319 2.61298,-1.11985 0.55991,2e-5 0.83987,-0.18662 0.83988,-0.55993 -1e-5,-0.1244 -0.0933,-0.18662 -0.27996,-0.18664 -0.0622,2e-5 -0.43551,0.12445 -1.11985,0.37329 -0.68436,0.24887 -1.3376,0.3733 -1.95973,0.37328 -1.43093,2e-5 -2.6752,-0.49769 -3.73283,-1.49313 -0.99543,-1.05761 -1.493135,-2.30189 -1.493134,-3.73283 -10e-7,-1.36868 0.497704,-2.58185 1.493134,-3.63951 0.99541,-1.0576 2.20858,-1.58642 3.63951,-1.58645 1.55533,3e-5 2.86182,0.59106 3.91947,1.77309 1.05762,1.18209 1.55533,1.77312 1.49313,1.7731 0.12441,2e-5 0.18663,-0.0622 0.18664,-0.18665 -1e-5,0.0622 -0.31108,-0.40436 -0.93321,-1.39981 -0.62215,-0.99539 -0.93322,-1.99081 -0.93321,-2.98626 -1e-5,-1.43088 0.4977,-2.61294 1.49314,-3.54619 1.05762,-0.99538 2.30189,-1.49309 3.73282,-1.49313 1.36869,4e-5 2.58186,0.49775 3.63951,1.49313 1.11983,0.99546 1.67975,2.17752 1.67977,3.54619 -2e-5,1.6798 -0.49773,2.95519 -1.49313,3.82615 -0.31108,0.3111 -0.4044,0.55995 -0.27996,0.74657 0.18662,2e-5 0.40437,-0.18662 0.65325,-0.55993 0.87097,-1.80417 2.39521,-2.70627 4.57271,-2.7063 1.43089,3e-5 2.67517,0.49774 3.73283,1.49313 1.05761,0.99545 1.58642,2.20862 1.58645,3.63951"
         style="font-weight:900;fill:#803300;font-family:Chick;-inkscape-font-specification:Chick Heavy"
         id="path6228-6-6-6-2"
         inkscape:connector-curvature="0"
         sodipodi:nodetypes="ccccccccccccccccccccccscccccccsccccccccccccccccc" />
    </g>
    <g
       style="font-size:93.32071686px;font-style:normal;font-variant:normal;font-weight:normal;font-stretch:normal;line-height:125%;letter-spacing:0px;word-spacing:0px;fill:#803300;fill-opacity:1;stroke:none;font-family:Courier New;-inkscape-font-specification:Courier New"
       id="text6194-2-7-0-5-3"
       transform="matrix(0.28314492,0,0,0.28314492,-89827.628,-203.70373)">
      <path
         d="m 126.01321,792.01052 c -3e-5,1.36873 -0.49774,2.613 -1.49313,3.73283 -0.93323,1.05765 -2.08419,1.58647 -3.45287,1.58645 -1.24429,2e-5 -2.08418,-0.15551 -2.51966,-0.4666 -0.43551,-0.31105 -0.71547,-0.46659 -0.83988,-0.46661 -0.12445,2e-5 -0.18666,0.0933 -0.18664,0.27997 -2e-5,0.24887 0.24883,0.40441 0.74656,0.4666 1.18204,0.12445 2.20857,0.71548 3.07959,1.77309 0.87096,0.99544 1.30646,2.08418 1.30649,3.26623 -3e-5,1.43093 -0.49774,2.6752 -1.49313,3.73283 -0.99545,0.99543 -2.20862,1.49314 -3.63951,1.49313 -1.61758,10e-6 -2.92407,-0.52881 -3.91947,-1.58645 -0.99544,-1.05763 -1.49315,-2.36411 -1.49313,-3.91947 -2e-5,-0.12442 -2e-5,-0.24884 0,-0.37329 0.0622,-0.18662 0.0933,-0.34216 0.0933,-0.4666 -2e-5,-0.31105 -0.0933,-0.46659 -0.27997,-0.4666 -0.18665,10e-6 -0.27997,0.15555 -0.27996,0.4666 -1e-5,0.12444 0.0311,0.27998 0.0933,0.4666 -1e-5,0.18666 -1e-5,0.31109 0,0.37329 -1e-5,1.36871 -0.31108,2.48856 -0.9332,3.35954 -1.05765,1.43093 -2.48857,2.14639 -4.29276,2.14638 -1.49314,10e-6 -2.76852,-0.4977 -3.82615,-1.49313 -0.99542,-1.05763 -1.49313,-2.33301 -1.49313,-3.82615 0,-1.61754 0.59103,-2.92403 1.7731,-3.91947 0.74655,-0.55991 1.61755,-0.93319 2.61298,-1.11985 0.55991,2e-5 0.83987,-0.18662 0.83988,-0.55993 -1e-5,-0.1244 -0.0933,-0.18662 -0.27996,-0.18664 -0.0622,2e-5 -0.43551,0.12445 -1.11985,0.37329 -0.68436,0.24887 -1.3376,0.3733 -1.95973,0.37328 -1.43093,2e-5 -2.6752,-0.49769 -3.732834,-1.49313 -0.99543,-1.05761 -1.493135,-2.30189 -1.493134,-3.73283 -1e-6,-1.36868 0.497704,-2.58185 1.493134,-3.63951 0.995414,-1.0576 2.208584,-1.58642 3.639514,-1.58645 1.55533,3e-5 2.86182,0.59106 3.91947,1.77309 1.05762,1.18209 1.55533,1.77312 1.49313,1.7731 0.12441,2e-5 0.18663,-0.0622 0.18664,-0.18665 -1e-5,0.0622 -0.31108,-0.40436 -0.93321,-1.39981 -0.62215,-0.99539 -0.93322,-1.99081 -0.93321,-2.98626 -1e-5,-1.43088 0.4977,-2.61294 1.49314,-3.54619 1.05762,-0.99538 2.30189,-1.49309 3.73282,-1.49313 1.36869,4e-5 2.58186,0.49775 3.63951,1.49313 1.11983,0.99546 1.67975,2.17752 1.67977,3.54619 -2e-5,1.6798 -0.49773,2.95519 -1.49313,3.82615 -0.31108,0.3111 -0.4044,0.55995 -0.27996,0.74657 0.18662,2e-5 0.40437,-0.18662 0.65325,-0.55993 0.87097,-1.80417 2.39521,-2.70627 4.57271,-2.7063 1.43089,3e-5 2.67517,0.49774 3.73283,1.49313 1.05761,0.99545 1.58642,2.20862 1.58645,3.63951"
         style="font-weight:900;fill:#803300;font-family:Chick;-inkscape-font-specification:Chick Heavy"
         id="path6228-35-6-4-7"
         inkscape:connector-curvature="0"
         sodipodi:nodetypes="ccccccccccccccccccccccscccccccsccccccccccccccccc" />
    </g>
    <text
       xml:space="preserve"
       style="font-size:126.05547333px;font-style:normal;font-variant:normal;font-weight:normal;font-stretch:normal;line-height:125%;letter-spacing:0px;word-spacing:0px;fill:#ffffff;fill-opacity:1;stroke:none;font-family:Courier New;-inkscape-font-specification:Courier New"
       x="-90047.266"
       y="70.307838"
       id="text6194-21-4-2-5"
       sodipodi:linespacing="125%"><tspan
         sodipodi:role="line"
         id="tspan6196-0-9-2-9"
         x="-90047.266"
         y="70.307838"
         style="font-style:normal;font-variant:normal;font-weight:900;font-stretch:normal;fill:#ffffff;font-family:Chick;-inkscape-font-specification:Chick Heavy">-</tspan></text>
    <text
       xml:space="preserve"
       style="font-size:76.36936951px;font-style:normal;font-variant:normal;font-weight:normal;font-stretch:normal;line-height:125%;letter-spacing:0px;word-spacing:0px;fill:#ffffff;fill-opacity:1;stroke:none;font-family:Courier New;-inkscape-font-specification:Courier New"
       x="-89730.438"
       y="59.962597"
       id="text6194-3-9-1-2"
       sodipodi:linespacing="125%"><tspan
         sodipodi:role="line"
         id="tspan6196-69-08-7-2"
         x="-89730.438"
         y="59.962597"
         style="font-style:normal;font-variant:normal;font-weight:900;font-stretch:normal;fill:#ffffff;font-family:Chick;-inkscape-font-specification:Chick Heavy">-</tspan></text>
    <path
       style="fill:none;stroke:none"
       d="m -90013.795,20.947785 c 77.687,-39.5641 173.992,-38.71487 254.286,-2.85715"
       id="path3288-9-2-8"
       inkscape:connector-curvature="0"
       sodipodi:nodetypes="cc" />
    <g
       id="g4550-3-4-9"
       transform="translate(-90082.718,-66.844875)"
       style="stroke:none">
      <g
         style="font-size:33px;font-style:normal;font-variant:normal;font-weight:900;font-stretch:normal;line-height:125%;letter-spacing:1.00999999px;word-spacing:0px;fill:#ffffff;fill-opacity:1;font-family:Chick;-inkscape-font-specification:Chick Heavy"
         id="text3053-1-1-7">
        <path
           d="m 96.275863,80.555129 c 0.218292,0.382032 0.149016,0.705854 -0.245562,0.9005 l -4.405676,2.17332 C 91.24974,83.81388 90.961525,83.7545 90.724126,83.383386 L 84.813317,73.04018 c -0.21832,-0.382001 -0.518486,-0.463855 -0.900499,-0.245562 l -0.200561,0.114614 c -0.382027,0.218332 -0.463881,0.518498 -0.245562,0.9005 l 5.910808,10.343206 c 0.2183,0.382028 0.136446,0.682194 -0.245562,0.900499 l -4.584246,2.619749 c -0.362927,0.207401 -0.663093,0.125547 -0.9005,-0.245562 L 77.736387,77.084418 c -0.218314,-0.382005 -0.51848,-0.463859 -0.9005,-0.245562 l -0.200561,0.114614 c -0.38202,0.218327 -0.463874,0.518493 -0.245562,0.900499 l 5.910809,10.343206 c 0.218306,0.382024 0.126231,0.665204 -0.245562,0.9005 l -4.466309,2.826589 c -0.371799,0.2353 -0.683011,0.136929 -0.9005,-0.245562 L 69.067138,78.27578 c -0.217481,-0.382477 -0.01706,-0.733678 0.245562,-0.9005 5.244629,-3.331505 13.496461,-7.882748 16.412513,-9.180776 0.923776,-0.411202 1.957858,-0.675403 3.008451,-0.388938 1.05057,0.286513 1.848751,0.907283 2.394546,1.862311 l 5.147653,10.887252"
           id="path4974-3"
           inkscape:connector-curvature="0"
           sodipodi:nodetypes="cssccccccssccccccssssssccc" />
        <path
           d="m 106.68129,65.954205 c 0.15878,0.410364 0.033,0.694932 -0.37735,0.853704 l -4.89342,1.893523 c -0.41035,0.158798 -0.53613,0.443366 -0.37734,0.853704 l 3.10823,8.032598 c 0.15878,0.410353 0.033,0.694921 -0.37734,0.853704 l -4.893426,1.893524 c -0.41035,0.158786 -0.694918,0.033 -0.853703,-0.377346 L 93.729718,68.87817 c -0.396961,-1.025862 -0.375325,-2.036792 0.06491,-3.032794 0.440241,-0.995971 1.173295,-1.692447 2.199167,-2.089429 l 4.862645,-1.881614 c 1.02587,-0.396946 2.0368,-0.37531 3.03279,0.06491 0.99598,0.440255 1.69246,1.17331 2.08943,2.199167 l 0.70263,1.815798"
           style="letter-spacing:0.37px;stroke:none"
           id="path4976-6"
           inkscape:connector-curvature="0" />
        <path
           d="m 122.40176,63.571792 c 0.65349,2.192696 0.44634,4.309025 -0.62146,6.348993 -1.07411,2.018897 -2.70751,3.355097 -4.90018,4.008603 l 0,0 -5.02842,1.498671 c -0.42167,0.125675 -0.69534,-0.02232 -0.82102,-0.443993 l -1.49867,-5.028419 c -0.12567,-0.421664 0.0223,-0.695336 0.44399,-0.821017 l 5.47118,-1.63063 c 0.42166,-0.125666 0.60736,-0.272838 0.5571,-0.441514 -0.0503,-0.16866 -0.28625,-0.190156 -0.70791,-0.06449 l -2.33085,0.72912 c -2.53002,0.754055 -4.06837,0.213947 -4.61506,-1.620327 l -0.713,-2.507822 c -0.2931,-1.060446 -0.19119,-2.06646 0.30571,-3.018044 0.518,-0.957838 1.30408,-1.593858 2.35825,-1.908061 l 5.97718,-1.78144 c 1.05417,-0.314168 2.06018,-0.212265 3.01804,0.305708 0.95785,0.518011 1.59387,1.304094 1.90807,2.358252 l 0.55611,1.865892 c 0.12566,0.421684 -0.0223,0.695356 -0.444,0.821017 l -8.34907,2.48836 c -0.42167,0.125686 -0.58852,0.336107 -0.50055,0.631266 0.088,0.295179 0.3428,0.379926 0.76447,0.254242 l 8.34907,-2.48836 c 0.42166,-0.125662 0.69533,0.02233 0.82102,0.443993"
           style="letter-spacing:0.5px"
           id="path4978-1"
           inkscape:connector-curvature="0" />
        <path
           d="m 127.60712,62.841179 c 1.06977,-0.256108 2.06871,-0.09939 2.99683,0.470158 0.92812,0.569564 1.52024,1.389225 1.77636,2.458986 0.25611,1.069773 0.0994,2.068716 -0.47016,2.996832 -0.56956,0.928122 -1.38922,1.520239 -2.45899,1.776355 -1.06977,0.256118 -2.06871,0.0994 -2.99683,-0.470158 -0.92812,-0.569554 -1.52024,-1.389216 -1.77635,-2.458987 -0.25612,-1.069763 -0.0994,-2.068706 0.47016,-2.996832 0.56955,-0.928111 1.38921,-1.520229 2.45898,-1.776354"
           style="letter-spacing:0.60000002px"
           id="path4980-2"
           inkscape:connector-curvature="0" />
        <path
           d="m 163.24623,63.847485 c 0.0656,0.435085 -0.11915,0.685429 -0.55421,0.751035 l -5.22097,0.787305 c -0.41334,0.06233 -0.66369,-0.122406 -0.75103,-0.554209 l -1.77636,-11.779818 c -0.0656,-0.435066 -0.31597,-0.619802 -0.75103,-0.554209 l -0.22842,0.03445 c -0.4351,0.06562 -0.61983,0.315969 -0.55421,0.751034 l 1.77636,11.779819 c 0.0656,0.435084 -0.11915,0.685428 -0.55421,0.751035 l -5.22097,0.787305 c -0.41334,0.06233 -0.66368,-0.122407 -0.75104,-0.554209 L 146.88378,54.2672 c -0.0656,-0.435067 -0.31596,-0.619803 -0.75103,-0.554209 l -0.22842,0.03444 c -0.43508,0.06562 -0.61982,0.315967 -0.55421,0.751034 l 1.77636,11.779819 c 0.0656,0.435082 -0.11913,0.685427 -0.55421,0.751035 l -5.18834,0.782384 c -0.43508,0.06561 -0.68543,-0.119127 -0.75103,-0.554208 l -2.26351,-15.010296 c -0.0656,-0.435064 0.11913,-0.685409 0.55421,-0.751034 l 18.04499,-2.721123 c 1.08768,-0.164002 2.06964,0.07728 2.94586,0.723832 0.87619,0.646594 1.3963,1.513733 1.56035,2.601418 l 1.77143,11.747188"
           id="path4982-9"
           inkscape:connector-curvature="0" />
        <path
           d="m 178.8172,62.611521 c 0.0382,0.438336 -0.1618,0.676628 -0.60012,0.714878 l -5.29289,0.461883 c -2.25742,0.196994 -4.26686,-0.433704 -6.02831,-1.892095 -1.74145,-1.482216 -2.71162,-3.362993 -2.91053,-5.642337 -0.18743,-2.147827 0.37325,-4.073859 1.68205,-5.778103 1.33072,-1.706129 3.0633,-2.729624 5.19775,-3.070489 l 5.91751,-0.51639 c 0.15341,-0.01337 0.30543,0.08378 0.45607,0.291456 0.17061,0.183879 0.26453,0.374435 0.28176,0.571669 l 1.29671,14.859528 m -3.27526,-6.405518 c -0.0287,-0.328742 -0.17314,-0.592181 -0.43334,-0.790319 -0.26213,-0.220036 -0.55757,-0.315715 -0.88631,-0.287036 -0.50409,0.044 -0.83659,0.282808 -0.9975,0.716429 -0.0362,0.0915 -0.0762,0.139159 -0.12002,0.142976 -0.0257,-0.04191 -0.01,-0.109575 0.0485,-0.202989 0.20385,-0.19445 0.28953,-0.477971 0.25703,-0.850564 -0.0268,-0.306825 -0.17028,-0.559306 -0.43048,-0.757445 -0.26213,-0.220035 -0.54661,-0.31667 -0.85343,-0.289905 -0.32876,0.0287 -0.60412,0.163146 -0.82607,0.403341 -0.20005,0.238302 -0.28668,0.510866 -0.2599,0.81769 0.021,0.241093 0.10687,0.46548 0.2575,0.673163 0.17253,0.205788 0.25881,0.308677 0.25881,0.308669 -0.02,0.02384 -0.041,0.03671 -0.0629,0.03861 0.0219,-0.0019 -0.0991,-0.123842 -0.36317,-0.365813 -0.26596,-0.26387 -0.56331,-0.381465 -0.89205,-0.352786 -0.32876,0.0287 -0.60316,0.174103 -0.8232,0.436216 -0.19813,0.260217 -0.28285,0.554697 -0.25416,0.88344 0.0268,0.306841 0.16026,0.571237 0.40047,0.793188 0.26021,0.198135 0.55469,0.282856 0.88344,0.254161 0.1315,-0.01147 0.27204,-0.04582 0.42164,-0.103045 0.16959,-0.08104 0.25439,-0.121569 0.2544,-0.121576 0.0438,-0.0038 0.0676,0.01619 0.0715,0.06001 0.006,0.06576 -0.0571,0.10437 -0.18864,0.115838 -0.21535,0.06297 -0.40495,0.167846 -0.5688,0.31464 -0.24388,0.242124 -0.34956,0.549475 -0.31704,0.922053 0.0287,0.328756 0.16313,0.60411 0.40334,0.826063 0.2602,0.198133 0.55468,0.282854 0.88344,0.254161 0.41641,-0.03633 0.73177,-0.218439 0.94609,-0.546316 0.11428,-0.208721 0.15708,-0.477459 0.1284,-0.806215 -1e-5,6e-6 -0.002,-0.02191 -0.006,-0.06575 -0.004,-0.04383 -0.007,-0.0767 -0.009,-0.09862 -0.006,-0.06574 0.0133,-0.100532 0.0571,-0.104363 0.0219,-0.0019 0.0467,0.02906 0.0744,0.09289 0.002,0.02192 -0.006,0.05575 -0.0243,0.101494 0.002,0.02192 0.004,0.04384 0.006,0.06575 0.0727,0.83284 0.51447,1.213875 1.32539,1.143105 0.32874,-0.02868 0.59314,-0.162174 0.79319,-0.400471 0.19812,-0.260204 0.28284,-0.554684 0.25416,-0.88344 -0.023,-0.262995 -0.14262,-0.495472 -0.35899,-0.697432 -0.19638,-0.225777 -0.42702,-0.338151 -0.69192,-0.337124 -0.13343,-0.01044 -0.203,-0.04853 -0.20873,-0.114287 -0.002,-0.02191 0.019,-0.03478 0.0629,-0.03861 0.0219,-0.0019 0.0796,0.02619 0.17298,0.08428 0.11531,0.05619 0.30447,0.07281 0.56749,0.04986 0.30682,-0.02677 0.5593,-0.170261 0.75744,-0.430478 0.22003,-0.262114 0.31667,-0.546592 0.2899,-0.853434"
           id="path4984-3"
           inkscape:connector-curvature="0" />
        <path
           d="m 194.41055,61.927148 c 0.0188,0.4396 -0.19167,0.668783 -0.63125,0.687549 l -5.30817,0.226611 c -2.26394,0.09665 -4.24342,-0.622574 -5.93843,-2.157676 -1.67398,-1.558015 -2.55976,-3.479982 -2.65735,-5.765906 -0.092,-2.154027 0.55362,-4.053289 1.93674,-5.697791 1.4051,-1.645412 3.18138,-2.591034 5.32885,-2.836868 l 5.90163,-0.251947 c 0.43958,-0.01875 0.66877,0.191667 0.68755,0.631249 l 0.22379,5.242225 c 0.0188,0.439611 -0.19166,0.668794 -0.63125,0.68755 l -5.20925,0.222389 c -0.79129,0.03379 -1.46563,0.227729 -2.02303,0.581815 -0.53543,0.353168 -0.79329,0.760537 -0.77357,1.222107 0.0197,0.461588 0.31133,0.845498 0.87492,1.151731 0.58554,0.30531 1.27396,0.441071 2.06525,0.407283 l 5.24222,-0.223795 c 0.43959,-0.01876 0.66877,0.191656 0.68755,0.631248 l 0.2238,5.242226"
           id="path4986-1"
           inkscape:connector-curvature="0" />
        <path
           d="m 211.6088,43.362491 -1.22316,5.312505 c -0.26446,1.099906 -0.88083,2.034656 -1.84913,2.804252 -0.94632,0.769627 -1.95848,1.154217 -3.03647,1.15377 l 1.056,4.28e-4 c 1.09999,4.55e-4 2.03483,0.385833 2.80453,1.156136 0.76968,0.770319 1.1543,1.705474 1.15387,2.805467 l -0.002,5.313 c -2e-4,0.44 -0.22029,0.659911 -0.66027,0.659732 l -5.28,-0.0021 c -0.41801,-1.69e-4 -0.63792,-0.220258 -0.65973,-0.660267 l 0.002,-5.016 c 1.7e-4,-0.439994 -0.21974,-0.660082 -0.65973,-0.660267 l -0.231,-9.4e-5 c -0.44001,-1.71e-4 -0.6601,0.219739 -0.66027,0.659733 l -0.002,5.016 c -1.9e-4,0.44 -0.22028,0.659911 -0.66027,0.659732 l -5.247,-0.0021 c -0.44,-1.78e-4 -0.65991,-0.220267 -0.65973,-0.660267 l 0.0101,-24.815998 c 1.7e-4,-0.439974 0.22026,-0.659884 0.66026,-0.659732 l 1.947,7.88e-4 c 1.1,4.72e-4 2.03484,0.38585 2.80454,1.156136 0.76968,0.770336 1.1543,1.705491 1.15386,2.805467 l -0.004,8.646 0.627,2.54e-4 c 0.43999,1.91e-4 0.71508,-0.219697 0.82527,-0.659666 l 1.19003,-5.015519 c 0.11017,-0.439935 0.38525,-0.659824 0.82526,-0.659665 l 5.28,0.0021 c 0.43999,1.98e-4 0.6049,0.220264 0.49474,0.6602"
           style="letter-spacing:1.60000002px;stroke:none"
           id="path4988-9"
           inkscape:connector-curvature="0" />
        <path
           d="m 221.4206,39.37962 c -0.0174,0.505724 -0.20837,0.939426 -0.57298,1.301108 -0.34265,0.362477 -0.75582,0.535403 -1.23953,0.518777 -0.43975,-0.01508 -0.7453,-0.09161 -0.91666,-0.229586 -0.12967,-0.07047 -0.21648,-0.10647 -0.26045,-0.108 -0.044,-0.0015 -0.0667,0.01974 -0.0682,0.0637 -0.003,0.08797 0.083,0.145955 0.25819,0.17396 0.41548,0.08032 0.77109,0.301655 1.06684,0.663995 0.29574,0.362379 0.43644,0.752436 0.4221,1.170171 -0.0181,0.527707 -0.20911,0.961409 -0.57298,1.301107 -0.36387,0.339733 -0.79866,0.50091 -1.30435,0.483532 -0.57167,-0.01961 -1.02698,-0.222349 -1.36594,-0.608223 -0.33897,-0.385839 -0.49901,-0.853605 -0.48014,-1.4033 7.5e-4,-0.02197 0.002,-0.06594 0.005,-0.131922 0.0242,-0.06519 0.0368,-0.108784 0.0375,-0.13079 0.004,-0.109916 -0.0273,-0.166016 -0.0933,-0.1683 -0.066,-0.0022 -0.10083,0.05159 -0.1046,0.161507 -7.6e-4,0.02201 0.009,0.06636 0.0285,0.133054 -0.002,0.06598 -0.004,0.109954 -0.005,0.131922 -0.0174,0.505721 -0.14126,0.908706 -0.3717,1.208959 -0.39039,0.4709 -0.90439,0.695397 -1.54201,0.67349 -0.52769,-0.0181 -0.97239,-0.209469 -1.33409,-0.574111 -0.33896,-0.385839 -0.49976,-0.831618 -0.4824,-1.337338 0.0204,-0.593631 0.24511,-1.048188 0.67419,-1.363672 0.27139,-0.210792 0.58411,-0.34314 0.93817,-0.397045 0.19788,0.0068 0.29871,-0.04476 0.30249,-0.154712 0.002,-0.06594 -0.0296,-0.100054 -0.0956,-0.102339 -0.022,-7.34e-4 -0.1558,0.04971 -0.40143,0.151316 -0.24487,0.07967 -0.47725,0.115714 -0.69712,0.108146 -0.5057,-0.01734 -0.92803,-0.21895 -1.26699,-0.604827 -0.36095,-0.386591 -0.53312,-0.821754 -0.51651,-1.30549 0.0174,-0.50568 0.21934,-0.939004 0.60595,-1.299975 0.36463,-0.361679 0.7888,-0.534227 1.27251,-0.517645 0.54968,0.0189 1.00424,0.243623 1.36368,0.674184 0.35943,0.430609 0.52816,0.645525 0.50617,0.644747 0.044,0.0015 0.0667,-0.0197 0.0682,-0.0637 -7.6e-4,0.02201 -0.10541,-0.135673 -0.31396,-0.47305 -0.20779,-0.359317 -0.30527,-0.725877 -0.29244,-1.099681 0.0166,-0.48369 0.20647,-0.884412 0.56958,-1.202166 0.38586,-0.338934 0.83164,-0.499734 1.33734,-0.482399 0.48371,0.01663 0.90642,0.207247 1.26813,0.571846 0.38368,0.365405 0.56722,0.789951 0.55062,1.273642 -0.0204,0.593674 -0.21138,1.027376 -0.57297,1.301107 -0.11372,0.106184 -0.1501,0.203993 -0.10914,0.293428 0.0879,0.003 0.16754,-0.07127 0.23879,-0.222938 0.32971,-0.627033 0.87933,-0.927352 1.64889,-0.900957 0.50569,0.01738 0.93939,0.208377 1.3011,0.572978 0.3617,0.364648 0.53387,0.799811 0.51652,1.30549 m -2.42363,22.861494 c -0.0151,0.439741 -0.24252,0.652063 -0.68225,0.636967 l -5.24391,-0.180025 c -0.43974,-0.0151 -0.65207,-0.242515 -0.63697,-0.682256 l 0.52083,-15.171062 c 0.0151,-0.439725 0.24251,-0.652047 0.68225,-0.636967 l 5.24391,0.180025 c 0.43974,0.01511 0.65206,0.242531 0.63697,0.682256 l -0.52083,15.171062 M 217.9896,40.252418 c 0.0143,-0.417733 -0.12712,-0.785802 -0.42436,-1.104211 -0.29651,-0.34035 -0.66462,-0.518085 -1.10436,-0.533204 -0.43975,-0.01507 -0.8298,0.125626 -1.17017,0.4221 -0.31839,0.297273 -0.48513,0.665769 -0.50023,1.105488 -0.0151,0.439762 0.12598,0.818825 0.42324,1.137191 0.31923,0.31916 0.69872,0.486279 1.13847,0.501356 0.43973,0.01512 0.81879,-0.125961 1.13719,-0.423232 0.31838,-0.297231 0.48512,-0.665727 0.50022,-1.105488"
           style="letter-spacing:1.60000002px;stroke:none"
           id="path4990-4"
           inkscape:connector-curvature="0"
           sodipodi:nodetypes="cccccccccccccccccccccccccccccccccccccscccccccccccssssccccccccscccc" />
        <path
           d="m 227.56026,62.714189 c -0.0253,0.43927 -0.25763,0.646242 -0.6969,0.620916 l -5.2383,-0.302016 c -0.43927,-0.02533 -0.64624,-0.257625 -0.62091,-0.696895 l 1.4284,-24.774857 c 0.0253,-0.439244 0.25762,-0.646216 0.6969,-0.620916 l 1.94377,0.112069 c 1.09817,0.06334 2.00946,0.501521 2.73387,1.31454 0.72439,0.813068 1.05493,1.768678 0.99163,2.866831 l -1.23846,21.480328"
           style="letter-spacing:1.60000002px;stroke:none"
           id="path4992-7"
           inkscape:connector-curvature="0" />
        <path
           d="m 241.70326,43.140683 c -0.0372,0.438449 -0.27494,0.639091 -0.71336,0.601927 l -2.43328,-0.20615 c -0.43844,-0.03712 -0.67623,0.163518 -0.71336,0.601927 l -0.0947,1.117995 1.57834,0.13372 c 0.43842,0.03716 0.63906,0.274948 0.60193,0.71336 l -0.36773,4.340451 c -0.0371,0.438442 -0.27494,0.639084 -0.71336,0.601927 l -1.57834,-0.133719 -1.05862,12.495236 c -0.0371,0.438429 -0.27493,0.639072 -0.71336,0.601928 l -5.32691,-0.451303 c -0.43843,-0.03714 -0.63908,-0.274931 -0.60193,-0.713361 l 1.81636,-21.439195 c 0.11478,-1.094193 0.58829,-1.992425 1.42055,-2.694698 0.83225,-0.702223 1.78545,-1.007845 2.85961,-0.916868 l 5.78727,0.490305 c 0.43841,0.03717 0.63905,0.274956 0.60192,0.71336 l -0.35101,4.143158"
           style="letter-spacing:-1px;stroke:none"
           id="path4994-8"
           inkscape:connector-curvature="0" />
        <path
           d="m 251.90964,65.137768 c -0.051,0.437038 -0.29496,0.630082 -0.73199,0.579132 l -5.27726,-0.615238 c -2.25076,-0.262401 -4.09167,-1.285458 -5.52274,-3.069175 -1.40668,-1.803017 -1.97754,-3.840829 -1.7126,-6.113443 0.24966,-2.141485 1.18732,-3.914834 2.81298,-5.32005 1.64751,-1.402642 3.55092,-2.05562 5.71026,-1.958938 l 5.90004,0.687845 c 0.15295,0.01785 0.28225,0.143667 0.3879,0.377458 0.13002,0.214515 0.18357,0.420099 0.16066,0.616753 l -1.72725,14.815656 m -1.91588,-6.934508 c 0.0382,-0.327773 -0.0501,-0.614935 -0.26503,-0.861485 -0.21236,-0.268388 -0.48242,-0.421692 -0.81019,-0.459913 -0.50261,-0.05859 -0.87644,0.108246 -1.1215,0.500499 -0.0539,0.08232 -0.10271,0.120928 -0.1464,0.115826 -0.0168,-0.04624 0.0127,-0.109253 0.0885,-0.189025 0.23889,-0.149333 0.38,-0.409745 0.42332,-0.781236 0.0357,-0.305921 -0.054,-0.582156 -0.26885,-0.828707 -0.21236,-0.268387 -0.47149,-0.420417 -0.77741,-0.456092 -0.32779,-0.0382 -0.62461,0.03794 -0.89044,0.228424 -0.24401,0.193053 -0.38384,0.442539 -0.4195,0.748459 -0.028,0.240379 0.0108,0.477468 0.11642,0.711266 0.12748,0.23636 0.19123,0.354536 0.19124,0.354529 -0.0244,0.01931 -0.0475,0.02769 -0.0694,0.02514 0.0218,0.0026 -0.0721,-0.141296 -0.28193,-0.43155 -0.20726,-0.312092 -0.47477,-0.487248 -0.80255,-0.525469 -0.32778,-0.03821 -0.62587,0.04886 -0.89426,0.261202 -0.24655,0.214904 -0.38893,0.486242 -0.42713,0.814015 -0.0357,0.305934 0.0417,0.591822 0.23224,0.857663 0.21489,0.246549 0.48623,0.388928 0.81402,0.427136 0.1311,0.01529 0.27569,0.01 0.43375,-0.01588 0.18245,-0.04517 0.27368,-0.06776 0.27369,-0.06776 0.0437,0.0051 0.063,0.0295 0.0579,0.0732 -0.008,0.06556 -0.077,0.0907 -0.20813,0.07541 -0.22362,0.01823 -0.43048,0.08271 -0.62057,0.193439 -0.28771,0.187954 -0.45321,0.467671 -0.49652,0.83915 -0.0382,0.327784 0.0379,0.624598 0.22843,0.890442 0.21489,0.246546 0.48623,0.388924 0.81401,0.427135 0.41518,0.04841 0.7608,-0.06634 1.03684,-0.344251 0.15403,-0.181379 0.25016,-0.43596 0.28838,-0.763744 -1e-5,4e-6 0.003,-0.02185 0.008,-0.06556 0.005,-0.0437 0.009,-0.07648 0.0115,-0.09833 0.008,-0.06555 0.0333,-0.09578 0.077,-0.09069 0.0218,0.0026 0.0399,0.03788 0.0541,0.105976 -0.003,0.02186 -0.0173,0.05336 -0.0442,0.09451 -0.003,0.02186 -0.005,0.04371 -0.008,0.06556 -0.0968,0.830379 0.25904,1.292697 1.06757,1.386954 0.32777,0.03822 0.61366,-0.0392 0.85766,-0.232246 0.24654,-0.214893 0.38892,-0.486231 0.42714,-0.814014 0.0306,-0.26222 -0.0397,-0.514056 -0.21093,-0.755508 -0.14681,-0.260748 -0.35004,-0.417336 -0.60971,-0.469764 -0.12857,-0.03713 -0.18903,-0.08848 -0.18138,-0.15404 0.003,-0.02185 0.0257,-0.03023 0.0694,-0.02513 0.0218,0.0026 0.0726,0.0417 0.15243,0.117441 0.1016,0.0783 0.28352,0.132731 0.54576,0.163297 0.30591,0.03567 0.58215,-0.05394 0.8287,-0.268846 0.26839,-0.212343 0.42042,-0.471481 0.4561,-0.777415"
           id="path4996-4"
           inkscape:connector-curvature="0" />
        <path
           d="m 265.41692,51.264842 c 0.43449,0.06936 0.61706,0.321287 0.54773,0.755773 l -0.68655,4.301556 c -0.0694,0.43451 -0.32129,0.617086 -0.75578,0.547728 l -3.06323,-0.488907 -0.73856,4.627431 c -0.0694,0.434505 0.11322,0.68643 0.54773,0.755774 l 2.41148,0.384885 c 0.43449,0.06935 0.61706,0.321276 0.54773,0.755773 l -0.65535,4.106031 c -0.0694,0.434499 -0.32128,0.617075 -0.75577,0.547728 l -5.73541,-0.915401 c -1.06453,-0.169905 -1.9163,-0.695724 -2.55531,-1.577461 -0.63902,-0.881734 -0.88271,-1.86746 -0.73106,-2.957182 l 3.39115,-21.247079 c 0.0693,-0.434476 0.32127,-0.617051 0.75577,-0.547729 l 1.95525,0.312069 c 1.08625,0.173397 1.94888,0.70095 2.58791,1.582662 0.639,0.881758 0.87182,1.865751 0.69846,2.951981 l -0.89459,5.605058 3.1284,0.49931"
           id="path4998-5"
           inkscape:connector-curvature="0" />
        <path
           d="m 279.80174,60.150849 c -0.0888,0.430947 -0.34873,0.602001 -0.77965,0.513163 l -5.13896,-1.059309 c -0.43095,-0.08882 -0.69084,0.08223 -0.77966,0.513163 l -1.73886,8.435645 c -0.0888,0.430939 -0.34873,0.601993 -0.77966,0.513163 l -5.13896,-1.059309 c -0.43094,-0.08883 -0.60199,-0.348716 -0.51316,-0.779656 l 2.39844,-11.635373 c 0.22207,-1.077336 0.78791,-1.915355 1.69751,-2.51406 0.90959,-0.598675 1.90307,-0.786981 2.98042,-0.564919 l 5.10664,1.052647 c 1.07734,0.222092 1.91535,0.787929 2.51406,1.697515 0.59867,0.90961 0.78698,1.903083 0.56492,2.980422 l -0.39308,1.906908"
           id="path5000-0"
           inkscape:connector-curvature="0" />
        <path
           d="m 292.81626,49.967193 c -0.12342,0.490741 -0.40141,0.874533 -0.83398,1.151378 -0.41126,0.282246 -0.85157,0.364342 -1.32095,0.246288 -0.42672,-0.107287 -0.70933,-0.246408 -0.84781,-0.417363 -0.11193,-0.09618 -0.18922,-0.149645 -0.23188,-0.160394 -0.0427,-0.01071 -0.0694,0.0053 -0.0801,0.04791 -0.0215,0.08536 0.0505,0.160161 0.21579,0.224401 0.38927,0.165966 0.69034,0.457182 0.90321,0.873649 0.21285,0.416503 0.2683,0.827435 0.16638,1.232798 -0.12878,0.512073 -0.40677,0.895865 -0.83398,1.151378 -0.42723,0.255542 -0.88619,0.321605 -1.37691,0.198189 -0.55473,-0.139482 -0.95718,-0.433506 -1.20733,-0.882074 -0.25017,-0.448535 -0.30819,-0.939508 -0.17405,-1.472918 0.005,-0.02132 0.0161,-0.06399 0.0322,-0.128014 0.0374,-0.05862 0.0588,-0.09861 0.0642,-0.119967 0.0268,-0.106661 0.008,-0.168048 -0.0558,-0.184162 -0.064,-0.01608 -0.10944,0.02921 -0.13625,0.135875 -0.005,0.02135 -0.005,0.06671 -1.9e-4,0.136062 -0.0161,0.06402 -0.0268,0.106696 -0.0322,0.128015 -0.12341,0.490738 -0.32935,0.858623 -0.61781,1.103654 -0.48075,0.378193 -1.03049,0.489484 -1.64922,0.333876 -0.51207,-0.128751 -0.90653,-0.409424 -1.18338,-0.842022 -0.25017,-0.448535 -0.31355,-0.918171 -0.19015,-1.408911 0.14486,-0.576046 0.46022,-0.973127 0.94609,-1.191242 0.30967,-0.148954 0.64325,-0.212523 1.00072,-0.190705 0.19201,0.04831 0.30144,0.01911 0.32827,-0.08759 0.0161,-0.06399 -0.008,-0.104039 -0.0719,-0.120155 -0.0213,-0.0053 -0.16277,0.0158 -0.42428,0.06344 -0.25616,0.02634 -0.49091,0.01268 -0.70427,-0.04099 -0.49072,-0.123381 -0.86117,-0.409358 -1.11132,-0.85793 -0.2715,-0.453896 -0.34824,-0.915547 -0.2302,-1.384955 0.1234,-0.4907 0.41206,-0.871809 0.86598,-1.14333 0.43258,-0.27684 0.88356,-0.356254 1.35295,-0.238241 0.53339,0.134155 0.93047,0.449515 1.19125,0.946081 0.26075,0.49661 0.38047,0.742222 0.35914,0.736835 0.0427,0.01075 0.0694,-0.0052 0.0801,-0.04791 -0.005,0.02136 -0.0745,-0.154819 -0.20737,-0.528529 -0.12752,-0.395002 -0.14567,-0.773868 -0.0544,-1.136599 0.11802,-0.469362 0.38797,-0.821151 0.80983,-1.055367 0.44854,-0.250137 0.91818,-0.313518 1.40891,-0.190141 0.46937,0.11806 0.8425,0.393369 1.11937,0.825926 0.29819,0.43797 0.38827,0.891636 0.27025,1.361 -0.14488,0.576087 -0.42287,0.959879 -0.83398,1.151378 -0.13351,0.07987 -0.18966,0.167836 -0.16844,0.263888 0.0853,0.02148 0.17879,-0.03441 0.28036,-0.16769 0.45428,-0.543601 1.0548,-0.721519 1.80157,-0.533757 0.49071,0.123423 0.8745,0.401414 1.15137,0.833974 0.27685,0.432602 0.35358,0.894254 0.2302,1.384956 m -7.32385,21.888964 c -0.10731,0.426713 -0.37432,0.586418 -0.80103,0.479114 l -5.08857,-1.279617 c -0.42672,-0.107306 -0.58642,-0.374316 -0.47912,-0.801031 l 3.70204,-14.721661 c 0.1073,-0.426699 0.37431,-0.586404 0.80103,-0.479114 l 5.08858,1.279617 c 0.4267,0.10732 0.58641,0.37433 0.47911,0.801031 l -3.70204,14.721661 m 3.78604,-21.757791 c 0.10193,-0.405359 0.0411,-0.794955 -0.18247,-1.168789 -0.21823,-0.395129 -0.5407,-0.646357 -0.96741,-0.753684 -0.42672,-0.107284 -0.83765,-0.05183 -1.23279,0.166374 -0.37382,0.223608 -0.61438,0.548758 -0.72168,0.975452 -0.10731,0.426735 -0.0492,0.826999 0.17442,1.200794 0.24491,0.379198 0.58073,0.62244 1.00745,0.729727 0.42671,0.107324 0.82698,0.04918 1.2008,-0.174421 0.3738,-0.223568 0.61436,-0.548719 0.72168,-0.975453"
           id="path5002-3"
           inkscape:connector-curvature="0"
           sodipodi:nodetypes="cccccccccccccccccccccccccccccccccccccccccccccccccsscsccscccccscccc" />
        <path
           d="m 300.49975,76.334009 c -0.12968,0.420454 -0.40475,0.565847 -0.82519,0.436179 l -5.07703,-1.565792 c -2.16537,-0.667813 -3.78924,-2.008948 -4.87163,-4.023407 -1.05489,-2.028995 -1.24518,-4.136684 -0.57089,-6.323072 0.63539,-2.060236 1.88025,-3.633223 3.73459,-4.718966 1.87535,-1.079234 3.86584,-1.374741 5.97148,-0.886521 l 5.64465,1.740848 c 0.42044,0.129684 0.56583,0.404749 0.43618,0.825196 l -1.54634,5.013964 c -0.12969,0.420464 -0.40475,0.565857 -0.8252,0.43618 l -4.98243,-1.536616 c -0.75683,-0.233402 -1.45717,-0.276722 -2.10101,-0.12996 -0.62283,0.153261 -1.00232,0.450628 -1.13847,0.892102 -0.13617,0.441487 0.01,0.900944 0.43824,1.378373 0.44933,0.483922 1.05242,0.842585 1.80925,1.075991 l 5.01397,1.54634 c 0.42044,0.129675 0.56583,0.40474 0.43618,0.825196 l -1.54635,5.013965"
           id="path5004-6"
           inkscape:connector-curvature="0" />
        <path
           d="m 323.48114,65.552116 -3.1335,4.460935 c -0.65916,0.919372 -1.58215,1.553231 -2.76896,1.90158 -1.16647,0.356652 -2.24895,0.331817 -3.24743,-0.0745 l 0.97812,0.398024 c 1.01886,0.414613 1.73978,1.123635 2.16278,2.127067 0.42297,1.003438 0.42716,2.014592 0.0126,3.033462 l -2.00256,4.921151 c -0.16586,0.407543 -0.45256,0.528396 -0.86009,0.362558 l -4.89058,-1.990122 c -0.38718,-0.157554 -0.50804,-0.44425 -0.36256,-0.860088 l 1.89061,-4.646055 c 0.16584,-0.407546 0.045,-0.694242 -0.36256,-0.860088 l -0.21396,-0.08707 c -0.40756,-0.16584 -0.69425,-0.04499 -0.86009,0.362558 l -1.89061,4.646055 c -0.16585,0.407546 -0.45255,0.528399 -0.86009,0.362558 l -4.86002,-1.977683 c -0.40755,-0.165844 -0.5284,-0.45254 -0.36256,-0.860089 l 9.35357,-22.985747 c 0.16584,-0.407524 0.45253,-0.528377 0.86009,-0.362558 l 1.80341,0.733858 c 1.01885,0.414631 1.73978,1.123653 2.16278,2.127067 0.42297,1.003456 0.42716,2.014609 0.0126,3.033462 l -3.25882,8.008332 0.58076,0.236327 c 0.40753,0.165853 0.74517,0.06573 1.01292,-0.300366 l 2.99099,-4.198278 c 0.26772,-0.366074 0.60536,-0.466196 1.01292,-0.300367 l 4.89059,1.990122 c 0.40752,0.165855 0.47743,0.431821 0.20972,0.797897"
           id="path5006-1"
           inkscape:connector-curvature="0" />
        <path
           d="m 324.2949,69.164058 2.59994,1.293654 c 0.39392,0.196021 0.49288,0.490989 0.29688,0.884907 l -2.5285,5.081697 c -0.19602,0.393936 -0.49099,0.492897 -0.88491,0.296883 l -2.59993,-1.293654 c -0.39394,-0.196 -0.4929,-0.490968 -0.29689,-0.884907 L 323.41,69.460941 c 0.196,-0.393915 0.49097,-0.492876 0.8849,-0.296883"
           id="path5008-0"
           inkscape:connector-curvature="0" />
        <path
           d="m 337.90794,86.385206 c -1.20858,1.942754 -2.93048,3.190481 -5.1657,3.743187 -2.22362,0.534016 -4.3068,0.196742 -6.24955,-1.011825 l 0,0 -4.45526,-2.771578 c -0.37361,-0.232418 -0.4442,-0.53543 -0.21179,-0.909037 l 2.77158,-4.455262 c 0.23242,-0.373602 0.53543,-0.444196 0.90904,-0.211784 l 4.84755,3.015617 c 0.3736,0.232419 0.60688,0.273907 0.69986,0.124462 0.093,-0.14944 -0.0474,-0.34037 -0.42096,-0.57279 l -2.09095,-1.261897 c -2.24165,-1.3945 -2.85696,-2.904346 -1.84594,-4.529542 l 1.4051,-2.19619 c 0.59971,-0.922385 1.42051,-1.512933 2.46238,-1.771648 1.06053,-0.247069 2.05781,-0.08009 2.99184,0.500944 l 5.29587,3.294518 c 0.934,0.581052 1.52455,1.401844 1.77165,2.46238 0.24706,1.060548 0.0801,2.057826 -0.50094,2.99184 l -1.02845,1.65321 c -0.23243,0.373608 -0.53545,0.444203 -0.90904,0.211784 l -7.39741,-4.601867 c -0.37362,-0.232411 -0.64177,-0.217857 -0.80445,0.04366 -0.1627,0.261531 -0.0572,0.508502 0.31637,0.740914 l 7.39742,4.601867 c 0.37359,0.232417 0.44418,0.535429 0.21178,0.909036"
           id="path5010-6"
           inkscape:connector-curvature="0" />
      </g>
      <path
         sodipodi:nodetypes="cc"
         transform="translate(23.937425,-558.63591)"
         inkscape:connector-curvature="0"
         id="path4705-5-3"
         d="M 53.033009,651.35784 C 108.19927,610.51763 250.41482,612.11729 306.58129,650.34768"
         style="fill:none;stroke:none" />
    </g>
  </g>
</svg>
