<?xml version="1.0" encoding="UTF-8" standalone="no"?>
<!-- Created with Inkscape (http://www.inkscape.org/) -->

<svg
   xmlns:dc="http://purl.org/dc/elements/1.1/"
   xmlns:cc="http://creativecommons.org/ns#"
   xmlns:rdf="http://www.w3.org/1999/02/22-rdf-syntax-ns#"
   xmlns:svg="http://www.w3.org/2000/svg"
   xmlns="http://www.w3.org/2000/svg"
   xmlns:sodipodi="http://sodipodi.sourceforge.net/DTD/sodipodi-0.dtd"
   xmlns:inkscape="http://www.inkscape.org/namespaces/inkscape"
   width="765"
   height="990"
   id="svg2"
   version="1.1"
   inkscape:version="0.48.5 r10040"
   sodipodi:docname="magpie.svg">
  <defs
     id="defs4" />
  <sodipodi:namedview
     id="base"
     pagecolor="#ffffff"
     bordercolor="#666666"
     borderopacity="1.0"
     inkscape:pageopacity="0.0"
     inkscape:pageshadow="2"
     inkscape:zoom="0.7"
     inkscape:cx="164.03337"
     inkscape:cy="462.83871"
     inkscape:document-units="px"
     inkscape:current-layer="layer1"
     showgrid="false"
     inkscape:window-width="1680"
     inkscape:window-height="1024"
     inkscape:window-x="0"
     inkscape:window-y="0"
     inkscape:window-maximized="1" />
  <metadata
     id="metadata7">
    <rdf:RDF>
      <cc:Work
         rdf:about="">
        <dc:format>image/svg+xml</dc:format>
        <dc:type
           rdf:resource="http://purl.org/dc/dcmitype/StillImage" />
        <dc:title />
      </cc:Work>
    </rdf:RDF>
  </metadata>
  <g
     inkscape:label="Layer 1"
     inkscape:groupmode="layer"
     id="layer1"
     transform="translate(0,-62.362183)">
    <rect
       style="fill:#000000;fill-opacity:1;stroke:none"
       id="rect3022"
       width="747.14282"
       height="518.57141"
       x="10"
       y="86.647919" />
    <path
       style="fill:#fff4c8;fill-opacity:1;stroke:none"
       d="m 400.71272,113.48119 c -47.28707,4.62441 -79.22049,12.46014 -103.55776,23.90193 -37.49723,17.62875 -43.5603,49.86774 -54.06105,92.23515 -0.4028,0.25553 -0.7467,0.46161 -1.15728,0.72329 -24.31905,15.50006 -66.24398,48.17702 -101.93975,75.90098 -0.75139,15.93748 -3.39774,31.30218 -8.33242,43.83195 62.65672,-21.0431 145.54168,-45.35148 171.52117,-40.74862 -27.58658,-1.10869 -118.91292,27.78517 -177.61811,50.43784 -0.0311,0.0182 -0.0556,0.0398 -0.0868,0.0578 -9.23276,5.38004 -16.15817,9.12382 -22.19082,8.96892 -29.264574,12.51755 -41.197823,20.34058 -14.895285,17.49445 57.570095,-10.74927 115.664255,-33.75619 208.744235,-42.64573 8.2835,5.82966 19.34276,12.86393 20.02094,19.21084 0.62486,5.84813 -4.1411,19.54638 -8.41922,32.20128 -8.55623,25.30987 -17.24096,41.91806 -18.49208,102.99313 l 11.31242,1.07053 c 1.23095,-60.09149 5.35414,-76.3516 13.94973,-101.77805 4.29782,-12.7132 7.60546,-22.65609 7.4066,-31.82516 -0.18726,-8.63426 -4.02165,-16.30929 -12.32502,-23.05879 10.60108,-0.80285 21.66446,-1.41423 33.27176,-1.76485 -3.89675,-9.81983 -8.246,-17.7469 -15.88365,-25.22868 4.70775,-4.79616 27.42331,-1.87177 41.14127,-2.80639 l -6.77008,-1.09944 c -27.54897,-5.23309 -48.55327,-21.14916 -79.27361,-24.62109 18.03261,-14.02797 33.18186,-32.20518 28.98983,-76.23578 -24.53245,-1.12794 -22.60839,-9.37404 -54.68599,9.89777 8.75941,-44.56376 14.78751,-55.56386 56.76326,-77.06537 40.17638,-20.57981 75.99559,-23.37232 96.61445,-20.9632 51.00257,5.95914 82.08581,47.74317 115.92099,85.15099 5.39381,5.96331 10.72432,12.32226 16.08618,19.06616 -2.14938,11.50264 -10.60388,52.66141 -21.87258,53.4663 -13.09312,0.93522 43.01952,27.11402 -2.8064,156.17483 118.30214,11.32588 59.90969,89.40203 135.76727,19.74085 17.98805,-21.83685 22.29943,-35.26594 17.88632,-54.27737 C 652.97601,360.05654 578.79045,259.33043 530.12341,204.76588 503.53813,161.07453 447.99979,108.85676 400.71272,113.48119 z m 10.09987,121.72093 c -4.06795,0.056 -8.01934,0.53649 -11.74638,1.47554 -9.575,4.95507 -16.14103,11.80888 -33.90828,18.83472 l 0.37612,3.84796 c 29.77225,-7.71841 41.35388,-21.70411 74.67343,-13.16403 3.94947,1.01226 8.00421,2.69332 12.26716,4.83163 l 1.73592,-3.47185 c -12.82394,-7.50285 -28.86952,-12.55413 -43.39797,-12.35397 z m 7.29086,21.17823 c -6.18887,0.0424 -12.07156,1.54004 -17.27238,3.64543 -10.4017,4.21076 -12.75069,11.75493 -13.04834,13.42443 -0.29763,1.66952 3.26008,10.34875 14.81316,12.15146 11.55313,1.80268 20.22311,-3.25144 34.5448,-24.01357 -6.37201,-3.81947 -12.84837,-5.25014 -19.03724,-5.20775 z m -9.46075,9.43183 c 3.87928,-2.6e-4 6.86895,2.11961 7.40657,4.60018 0.71686,3.30743 -4.41034,7.95005 -10.61802,7.26191 -6.2077,-0.68812 -6.62552,-8.92049 -0.8969,-11.08094 1.43217,-0.54011 2.81524,-0.78108 4.10835,-0.78115 z m -302.36399,64.83656 c -13.340926,10.44578 -20.180366,16.99308 -22.860401,18.9215 -10.00689,7.20061 -35.441787,29.58944 -23.434897,26.70423 17.320486,-7.64014 23.362162,-9.18148 38.657268,-14.58171 5.68118,-5.03569 8.07906,-16.54273 7.63803,-31.04402 z"
       id="path3050-6"
       inkscape:connector-curvature="0"
       sodipodi:nodetypes="zscsccccccccssccssccccccccssscscccczsccsccssssscsscssscccccc" />
    <path
       style="fill:#fff4c8;fill-opacity:1;stroke:none"
       d="m 93.718105,155.6392 c -3.296115,0.0392 -8.838036,0.41751 -15.102486,1.04154 -10.023147,0.99845 -18.067744,2.27123 -17.995698,2.86428 0.0721,0.59307 8.23293,0.27514 18.256077,-0.7233 6.114832,-0.60915 11.469646,-1.30442 14.726381,-1.9095 l 0.376118,-1.27302 c -0.0929,5.9e-4 -0.163616,-9.3e-4 -0.260392,0 z m 7.840555,2.57495 -8.824254,17.61957 c 9.027954,-1.37473 17.310804,-3.08173 23.753164,-5.06309 0.27168,-0.47882 0.57038,-0.97142 0.83904,-1.4466 -4.02174,-5.70137 -12.30514,-9.63668 -15.76795,-11.10988 z m -8.477064,0.37611 c -10.075989,1.52487 -24.882085,3.22482 -35.065556,2.51708 -2.622753,1.65198 -3.627595,3.00525 -5.468139,4.48446 -6.305041,5.06062 -7.453861,8.53012 -10.444437,13.88736 4.190566,0.0583 8.690039,-0.004 13.337624,-0.17361 1.727613,-1.78539 4.420869,-2.59676 7.088335,-2.11202 0.69947,0.40868 1.276821,0.99021 1.822717,1.64911 5.952224,-0.37811 12.0147,-0.905 17.93783,-1.59124 1.824976,-0.21145 3.620143,-0.45459 5.410283,-0.69438 l 5.381343,-17.96676 z m 27.253924,11.91999 c -0.41581,-0.0102 -0.86218,0.0115 -1.35981,0.029 l -19.847335,35.12339 c -7.406799,3.15344 -14.392411,3.87864 -21.178206,3.61649 L 62.760874,179.47916 c -6.29057,-0.12633 -6.063701,1.55354 -7.146191,4.9763 l 13.974146,24.70792 c -0.538444,0.56725 -3.235311,-0.70512 -5.323486,-1.99632 l -24.563249,-26.41488 2.112037,-4.31088 c -3.088666,0.69151 -4.758921,1.75034 -5.69959,4.54233 l 23.319159,27.83255 0.607593,11.71747 7.001525,0 0.665437,-4.62913 41.980305,-8.27455 -0.52079,-3.29823 16.8963,-29.0477 c -1.99728,-1.56121 0.50874,-4.62591 -5.72855,-4.77378 z m -4.65803,2.16988 c -6.58737,1.95367 -14.85001,3.59751 -23.811031,4.91844 l -11.167756,22.33549 6.480766,-21.67005 c -1.62489,0.21325 -3.265604,0.41607 -4.918427,0.60758 -5.732552,0.66416 -11.594074,1.18552 -17.359203,1.56233 2.1065,3.14338 3.287234,7.82814 5.468153,10.84949 2.878436,5.44922 5.553967,11.22778 8.563863,16.46228 6.402135,-0.10796 13.851198,-0.40106 19.008312,-4.13727 5.652143,-9.99729 11.970863,-20.79624 17.735323,-30.92829 z m -61.104362,8.27454 c -4.402723,0.14971 -8.653021,0.20143 -12.643271,0.14475 l 23.203459,24.88148 c -3.656894,-7.29073 -8.990589,-14.37114 -11.659599,-21.78577 0.09124,-1.24363 0.489738,-2.32323 1.099411,-3.24039 z m 55.404742,28.06403 -40.996609,8.59281 0.115738,9.17142 c 39.637521,39.77283 53.923501,137.24394 24.852569,137.68729 0.530827,0.18038 1.761774,0.6426 4.947356,1.88057 7.089166,2.75502 15.040596,-1.45624 26.588506,-8.18774 C 148.98645,314.2926 135.60955,218.86328 109.97788,209.0187 z M 93.949568,364.47022 c -0.145074,-0.0491 -0.334377,-0.10642 -0.37613,-0.11574 0.07274,0.039 0.202523,0.11574 0.202523,0.11574 0.05946,-9e-5 0.114462,8.9e-4 0.173607,0 z M 57.987112,211.42005 c -24.329629,14.57019 5.661603,112.09337 23.724218,137.07971 3.47651,-4.32357 5.608046,-4.83677 13.945218,-12.41182 -10.494663,-19.33581 -14.417563,-50.83446 -11.862109,-86.33301 -5.40976,-8.48181 -11.17822,-17.03036 -16.172981,-18.86365 l -0.462902,-7.34873 -8.968921,-0.75223 -0.202523,-11.37027 z"
       id="path3974"
       inkscape:connector-curvature="0" />
    <path
       style="fill:#fff4c8;fill-opacity:1;stroke:none"
       d="m 86.698039,184.55878 9.772785,-32.60461 -12.730183,-9.16317 15.388015,3.08537 14.998144,-30.01075 -9.77282,32.60459 12.73019,9.16316 -15.38801,-3.08534 z"
       id="path4110"
       inkscape:connector-curvature="0"
       sodipodi:nodetypes="ccccccccc"
       inkscape:transform-center-y="-18.412849"
       inkscape:transform-center-x="-2.8263439" />
    <text
       xml:space="preserve"
       style="font-size:56.80397796999999827px;font-style:normal;font-variant:normal;font-weight:normal;font-stretch:normal;line-height:125%;letter-spacing:0px;word-spacing:0px;fill:#fff4c8;fill-opacity:1;stroke:none;font-family:Courier New;-inkscape-font-specification:Courier New"
       x="42.140385"
       y="550.36243"
       id="text2985"
       sodipodi:linespacing="125%"><tspan
         sodipodi:role="line"
         id="tspan2987"
         x="42.140385"
         y="550.36243"
         style="font-weight:bold;-inkscape-font-specification:Courier New Bold;fill:#fff4c8;fill-opacity:1">the thieving magpies</tspan></text>
  </g>
</svg>
