<?xml version="1.0" encoding="UTF-8" standalone="no"?>
<svg
   xmlns:dc="http://purl.org/dc/elements/1.1/"
   xmlns:cc="http://creativecommons.org/ns#"
   xmlns:rdf="http://www.w3.org/1999/02/22-rdf-syntax-ns#"
   xmlns:svg="http://www.w3.org/2000/svg"
   xmlns="http://www.w3.org/2000/svg"
   xmlns:sodipodi="http://sodipodi.sourceforge.net/DTD/sodipodi-0.dtd"
   xmlns:inkscape="http://www.inkscape.org/namespaces/inkscape"
   width="210mm"
   height="297mm"
   viewBox="0 0 210 297"
   version="1.1"
   id="svg8"
   inkscape:version="1.0.2 (e86c870879, 2021-01-15)"
   sodipodi:docname="mandrelpad.svg">
  <defs
     id="defs2" />
  <sodipodi:namedview
     id="base"
     pagecolor="#ffffff"
     bordercolor="#666666"
     borderopacity="1.0"
     inkscape:pageopacity="0.0"
     inkscape:pageshadow="2"
     inkscape:zoom="0.7"
     inkscape:cx="458.88023"
     inkscape:cy="262.06278"
     inkscape:document-units="mm"
     inkscape:current-layer="layer1"
     inkscape:document-rotation="0"
     showgrid="false"
     inkscape:snap-midpoints="true"
     inkscape:snap-grids="false"
     inkscape:window-width="1920"
     inkscape:window-height="1016"
     inkscape:window-x="0"
     inkscape:window-y="0"
     inkscape:window-maximized="1" />
  <metadata
     id="metadata5">
    <rdf:RDF>
      <cc:Work
         rdf:about="">
        <dc:format>image/svg+xml</dc:format>
        <dc:type
           rdf:resource="http://purl.org/dc/dcmitype/StillImage" />
        <dc:title></dc:title>
      </cc:Work>
    </rdf:RDF>
  </metadata>
  <g
     inkscape:label="Layer 1"
     inkscape:groupmode="layer"
     id="layer1">
    <g
       id="g981"
       transform="translate(12.942294,9.8682453)">
      <g
         id="g910">
        <path
           id="rect837"
           style="fill:none;fill-opacity:0.665404;stroke:#550000;stroke-width:0.5;stroke-linecap:square;stroke-linejoin:round;stroke-miterlimit:4;stroke-dasharray:none;stroke-opacity:1"
           d="m 32.036949,5.8754624 c -12.743888,0 -12.743888,1.949e-4 -25.4877789,0.9432427 C 19.293061,7.7617528 19.293061,7.761948 32.036949,7.761948 H 133.98806 c 12.74389,0 12.74389,-1.952e-4 25.48778,-0.9432429 C 146.73195,5.8756573 146.73195,5.8754624 133.98806,5.8754624 Z" />
        <path
           id="rect837-3"
           style="fill:none;fill-opacity:0.665404;stroke:#550000;stroke-width:0.5;stroke-linecap:square;stroke-linejoin:round;stroke-miterlimit:4;stroke-dasharray:none;stroke-opacity:1"
           d="m 32.036947,7.761948 c -12.743888,0 -12.743888,1.949e-4 -25.4877792,0.9432427 C 19.293059,9.6482384 19.293059,9.6484336 32.036947,9.6484336 H 133.98806 c 12.74389,0 12.74389,-1.952e-4 25.48778,-0.9432429 C 146.73195,7.7621429 146.73195,7.761948 133.98806,7.761948 Z" />
        <path
           id="path866"
           style="fill:none;fill-opacity:0.665404;stroke:#550000;stroke-width:0.5;stroke-linecap:square;stroke-linejoin:round;stroke-miterlimit:4;stroke-dasharray:none;stroke-opacity:1"
           d="m 32.036948,9.6484336 c -12.743888,0 -12.743888,1.949e-4 -25.4877789,0.9432424 C 19.29306,11.534724 19.29306,11.534919 32.036948,11.534919 H 133.98806 c 12.74389,0 12.74389,-1.95e-4 25.48778,-0.943243 C 146.73195,9.6486285 146.73195,9.6484336 133.98806,9.6484336 Z" />
        <path
           id="path868"
           style="fill:none;fill-opacity:0.665404;stroke:#550000;stroke-width:0.5;stroke-linecap:square;stroke-linejoin:round;stroke-miterlimit:4;stroke-dasharray:none;stroke-opacity:1"
           d="m 32.036946,11.534919 c -12.743888,0 -12.743888,1.95e-4 -25.4877792,0.943243 12.7438912,0.943048 12.7438912,0.943243 25.4877792,0.943243 H 133.98806 c 12.74389,0 12.74389,-1.95e-4 25.48778,-0.943243 -12.74389,-0.943048 -12.74389,-0.943243 -25.48778,-0.943243 z" />
        <path
           id="path870"
           style="fill:none;fill-opacity:0.665404;stroke:#550000;stroke-width:0.5;stroke-linecap:square;stroke-linejoin:round;stroke-miterlimit:4;stroke-dasharray:none;stroke-opacity:1"
           d="m 32.036947,13.421405 c -12.743887,0 -12.743887,1.95e-4 -25.4877784,0.943243 C 19.29306,15.307695 19.29306,15.307891 32.036947,15.307891 H 133.98806 c 12.74389,0 12.74389,-1.96e-4 25.48778,-0.943243 -12.74389,-0.943048 -12.74389,-0.943243 -25.48778,-0.943243 z" />
        <path
           id="path872"
           style="fill:none;fill-opacity:0.665404;stroke:#550000;stroke-width:0.5;stroke-linecap:square;stroke-linejoin:round;stroke-miterlimit:4;stroke-dasharray:none;stroke-opacity:1"
           d="m 32.036945,15.307891 c -12.743888,0 -12.743888,1.95e-4 -25.4877787,0.943242 12.7438907,0.943048 12.7438907,0.943243 25.4877787,0.943243 H 133.98806 c 12.74389,0 12.74389,-1.95e-4 25.48778,-0.943243 -12.74389,-0.943047 -12.74389,-0.943242 -25.48778,-0.943242 z" />
        <path
           id="path874"
           style="fill:none;fill-opacity:0.665404;stroke:#550000;stroke-width:0.5;stroke-linecap:square;stroke-linejoin:round;stroke-miterlimit:4;stroke-dasharray:none;stroke-opacity:1"
           d="m 32.036946,17.194376 c -12.743887,0 -12.743887,1.95e-4 -25.4877784,0.943243 12.7438904,0.943048 12.7438904,0.943243 25.4877784,0.943243 H 133.98806 c 12.74389,0 12.74389,-1.95e-4 25.48778,-0.943243 -12.74389,-0.943048 -12.74389,-0.943243 -25.48778,-0.943243 z" />
        <path
           id="path876"
           style="fill:none;fill-opacity:0.665404;stroke:#550000;stroke-width:0.5;stroke-linecap:square;stroke-linejoin:round;stroke-miterlimit:4;stroke-dasharray:none;stroke-opacity:1"
           d="m 32.036944,19.080862 c -12.743887,0 -12.743887,1.95e-4 -25.4877787,0.943243 12.7438917,0.943048 12.7438917,0.943243 25.4877787,0.943243 H 133.98806 c 12.74389,0 12.74389,-1.95e-4 25.48778,-0.943243 -12.74389,-0.943048 -12.74389,-0.943243 -25.48778,-0.943243 z" />
        <path
           id="path878"
           style="fill:none;fill-opacity:0.665404;stroke:#550000;stroke-width:0.5;stroke-linecap:square;stroke-linejoin:round;stroke-miterlimit:4;stroke-dasharray:none;stroke-opacity:1"
           d="m 32.036946,20.967348 c -12.743888,0 -12.743888,1.95e-4 -25.4877784,0.943243 12.7438904,0.943047 12.7438904,0.943243 25.4877784,0.943243 H 133.98806 c 12.74389,0 12.74389,-1.96e-4 25.48778,-0.943243 -12.74389,-0.943048 -12.74389,-0.943243 -25.48778,-0.943243 z" />
        <path
           id="path880"
           style="fill:none;fill-opacity:0.665404;stroke:#550000;stroke-width:0.5;stroke-linecap:square;stroke-linejoin:round;stroke-miterlimit:4;stroke-dasharray:none;stroke-opacity:1"
           d="m 32.036944,22.853834 c -12.743888,0 -12.743888,1.94e-4 -25.4877787,0.943242 12.7438907,0.943048 12.7438907,0.943243 25.4877787,0.943243 H 133.98806 c 12.74389,0 12.74389,-1.95e-4 25.48778,-0.943243 -12.74389,-0.943048 -12.74389,-0.943242 -25.48778,-0.943242 z" />
        <path
           id="path882"
           style="fill:none;fill-opacity:0.665404;stroke:#550000;stroke-width:0.5;stroke-linecap:square;stroke-linejoin:round;stroke-miterlimit:4;stroke-dasharray:none;stroke-opacity:1"
           d="m 32.036946,24.740319 c -12.743888,0 -12.743888,1.95e-4 -25.4877794,0.943243 12.7438904,0.943048 12.7438904,0.943243 25.4877794,0.943243 H 133.98806 c 12.74389,0 12.74389,-1.95e-4 25.48778,-0.943243 -12.74389,-0.943048 -12.74389,-0.943243 -25.48778,-0.943243 z" />
        <path
           id="path884"
           style="fill:none;fill-opacity:0.665404;stroke:#550000;stroke-width:0.5;stroke-linecap:square;stroke-linejoin:round;stroke-miterlimit:4;stroke-dasharray:none;stroke-opacity:1"
           d="m 32.036943,26.626805 c -12.743888,0 -12.743888,1.95e-4 -25.4877787,0.943243 12.7438907,0.943048 12.7438907,0.943243 25.4877787,0.943243 H 133.98806 c 12.74389,0 12.74389,-1.95e-4 25.48778,-0.943243 C 146.73195,26.627 146.73195,26.626805 133.98806,26.626805 Z" />
        <path
           id="path886"
           style="fill:none;fill-opacity:0.665404;stroke:#550000;stroke-width:0.5;stroke-linecap:square;stroke-linejoin:round;stroke-miterlimit:4;stroke-dasharray:none;stroke-opacity:1"
           d="m 32.036944,28.513291 c -12.743887,0 -12.743887,1.95e-4 -25.4877779,0.943243 12.7438909,0.943047 12.7438909,0.943243 25.4877779,0.943243 H 133.98806 c 12.74389,0 12.74389,-1.96e-4 25.48778,-0.943243 -12.74389,-0.943048 -12.74389,-0.943243 -25.48778,-0.943243 z" />
        <path
           id="path888"
           style="fill:none;fill-opacity:0.665404;stroke:#550000;stroke-width:0.5;stroke-linecap:square;stroke-linejoin:round;stroke-miterlimit:4;stroke-dasharray:none;stroke-opacity:1"
           d="m 32.036943,30.399777 c -12.743888,0 -12.743888,1.95e-4 -25.4877792,0.943242 12.7438912,0.943048 12.7438912,0.943243 25.4877792,0.943243 H 133.98806 c 12.74389,0 12.74389,-1.95e-4 25.48778,-0.943243 -12.74389,-0.943047 -12.74389,-0.943242 -25.48778,-0.943242 z" />
        <path
           id="path890"
           style="fill:none;fill-opacity:0.665404;stroke:#550000;stroke-width:0.5;stroke-linecap:square;stroke-linejoin:round;stroke-miterlimit:4;stroke-dasharray:none;stroke-opacity:1"
           d="m 32.036943,32.286262 c -12.743887,0 -12.743887,1.95e-4 -25.4877779,0.943243 12.7438899,0.943048 12.7438899,0.943243 25.4877779,0.943243 H 133.98806 c 12.74389,0 12.74389,-1.95e-4 25.48778,-0.943243 -12.74389,-0.943048 -12.74389,-0.943243 -25.48778,-0.943243 z" />
        <path
           id="path892"
           style="fill:none;fill-opacity:0.665404;stroke:#550000;stroke-width:0.5;stroke-linecap:square;stroke-linejoin:round;stroke-miterlimit:4;stroke-dasharray:none;stroke-opacity:1"
           d="m 32.036941,34.172748 c -12.743887,0 -12.743887,1.95e-4 -25.4877782,0.943243 12.7438912,0.943048 12.7438912,0.943243 25.4877782,0.943243 H 133.98806 c 12.74389,0 12.74389,-1.95e-4 25.48778,-0.943243 -12.74389,-0.943048 -12.74389,-0.943243 -25.48778,-0.943243 z" />
      </g>
      <path
         id="path912"
         style="fill:none;fill-opacity:0.665404;stroke:#ff0000;stroke-width:0.499999;stroke-linecap:square;stroke-linejoin:round;stroke-miterlimit:4;stroke-dasharray:none;stroke-opacity:1"
         d="m 32.03711,5.875611 c -12.743889,0 -12.74396,4.77e-5 -25.4878503,0.9430941 C 19.29315,7.7617542 19.293221,7.7618018 32.03711,7.7618018 c -12.743889,0 -12.74396,4.76e-5 -25.4878503,0.943094 C 19.29315,9.6479423 19.293221,9.6485085 32.03711,9.6485085 c -12.743889,0 -12.74396,4.5e-5 -25.4878503,0.9430945 12.7438903,0.943049 12.7439613,0.943094 25.4878503,0.943094 -12.743889,0 -12.74396,5.63e-4 -25.4878503,0.943612 12.7438903,0.943049 12.7439613,0.943094 25.4878503,0.943094 -12.743888,0 -12.743958,4.8e-5 -25.4878503,0.943097 12.7438923,0.943046 12.7439623,0.943094 25.4878503,0.943094 -12.743889,0 -12.74396,5.64e-4 -25.4878503,0.943613 12.7438903,0.943046 12.7439613,0.943094 25.4878503,0.943094 -12.743888,0 -12.743958,4.7e-5 -25.4878503,0.943094 12.7438903,0.943049 12.7439613,0.943612 25.4878503,0.943612 -12.743888,0 -12.743958,4.8e-5 -25.4878503,0.943094 12.7438923,0.94305 12.7439623,0.943094 25.4878503,0.943094 -12.743889,0 -12.74396,4.8e-5 -25.4878503,0.943097 12.7438903,0.943049 12.7439613,0.94361 25.4878503,0.94361 -12.743889,0 -12.74396,4.5e-5 -25.4878503,0.943097 12.7438903,0.943038 12.7439613,0.943094 25.4878503,0.943094 -12.743889,0 -12.743958,5.61e-4 -25.4878503,0.943613 C 19.29315,26.626755 19.29322,26.6268 32.03711,26.6268 c -12.743889,0 -12.74396,4.5e-5 -25.4878503,0.943094 12.7438903,0.943051 12.7439613,0.943096 25.4878503,0.943096 -12.743888,0 -12.74396,5.72e-4 -25.4878503,0.94361 12.7438903,0.943052 12.7439623,0.943097 25.4878503,0.943094 -12.743889,0 -12.74396,4.5e-5 -25.4878503,0.943097 12.7438903,0.943049 12.7439613,0.94361 25.4878503,0.94361 -12.743888,0 -12.74396,4.5e-5 -25.4878503,0.943097 12.7438893,0.943038 12.7439613,0.943094 25.4878503,0.943094 -12.743888,0 -12.74396,4.5e-5 -25.4878503,0.943094 12.7438903,0.943052 12.7439623,0.943613 25.4878503,0.943613 h 101.95088 c 12.74389,0 12.74396,-5.61e-4 25.48785,-0.943613 -12.74389,-0.943049 -12.74396,-0.943094 -25.48785,-0.943094 12.74389,0 12.74396,-5.6e-5 25.48785,-0.943094 -12.74389,-0.943052 -12.74396,-0.943097 -25.48785,-0.943097 12.74389,0 12.74396,-5.61e-4 25.48785,-0.94361 -12.74389,-0.943052 -12.74396,-0.943097 -25.48785,-0.943097 12.74389,0 12.74396,-4.2e-5 25.48785,-0.943094 -12.74389,-0.943038 -12.74396,-0.94361 -25.48785,-0.94361 12.74389,0 12.74396,-4.5e-5 25.48785,-0.943096 -12.74389,-0.943049 -12.74396,-0.943094 -25.48785,-0.943094 12.74389,0 12.74396,-4.5e-5 25.48785,-0.943094 -12.74389,-0.943052 -12.74396,-0.943613 -25.48785,-0.943613 12.74389,0 12.74396,-5.6e-5 25.48785,-0.943094 -12.74389,-0.943052 -12.74396,-0.943097 -25.48785,-0.943097 12.74389,0 12.74396,-5.61e-4 25.48785,-0.94361 -12.74389,-0.943049 -12.74396,-0.943097 -25.48785,-0.943097 12.74389,0 12.74396,-4.4e-5 25.48785,-0.943094 -12.74389,-0.943046 -12.74396,-0.943094 -25.48785,-0.943094 12.74389,0 12.74396,-5.63e-4 25.48785,-0.943612 -12.74389,-0.943047 -12.74396,-0.943094 -25.48785,-0.943094 12.74389,0 12.74396,-4.8e-5 25.48785,-0.943094 -12.74389,-0.943049 -12.74396,-0.943613 -25.48785,-0.943613 12.74389,0 12.74396,-4.8e-5 25.48785,-0.943094 -12.74389,-0.943049 -12.74396,-0.943097 -25.48785,-0.943097 12.74389,0 12.74396,-4.5e-5 25.48785,-0.943094 -12.74389,-0.943049 -12.74396,-0.943612 -25.48785,-0.943612 12.74389,0 12.74396,-4.5e-5 25.48785,-0.943094 -12.74389,-0.9430495 -12.74396,-0.9430945 -25.48785,-0.9430945 12.74389,0 12.74396,-5.662e-4 25.48785,-0.9436127 -12.74389,-0.9430464 -12.74396,-0.943094 -25.48785,-0.943094 12.74389,0 12.74396,-4.76e-5 25.48785,-0.9430967 C 146.73195,5.8756587 146.73188,5.875611 133.98799,5.875611 Z" />
    </g>
  </g>
</svg>
