<?xml version="1.0" encoding="UTF-8" standalone="no"?>
<!-- Created with Inkscape (http://www.inkscape.org/) -->

<svg
   xmlns:dc="http://purl.org/dc/elements/1.1/"
   xmlns:cc="http://creativecommons.org/ns#"
   xmlns:rdf="http://www.w3.org/1999/02/22-rdf-syntax-ns#"
   xmlns:svg="http://www.w3.org/2000/svg"
   xmlns="http://www.w3.org/2000/svg"
   xmlns:sodipodi="http://sodipodi.sourceforge.net/DTD/sodipodi-0.dtd"
   xmlns:inkscape="http://www.inkscape.org/namespaces/inkscape"
   version="1.1"
   id="svg2"
   width="8.5in"
   height="11in"
   viewBox="0 0 816 1056"
   sodipodi:docname="maskpattern2.svg"
   inkscape:version="0.92.5 (2060ec1f9f, 2020-04-08)">
  <metadata
     id="metadata8">
    <rdf:RDF>
      <cc:Work
         rdf:about="">
        <dc:format>image/svg+xml</dc:format>
        <dc:type
           rdf:resource="http://purl.org/dc/dcmitype/StillImage" />
        <dc:title></dc:title>
      </cc:Work>
    </rdf:RDF>
  </metadata>
  <defs
     id="defs6" />
  <sodipodi:namedview
     pagecolor="#ffffff"
     bordercolor="#666666"
     borderopacity="1"
     objecttolerance="10"
     gridtolerance="10"
     guidetolerance="10"
     inkscape:pageopacity="0"
     inkscape:pageshadow="2"
     inkscape:window-width="1920"
     inkscape:window-height="1016"
     id="namedview4"
     showgrid="false"
     units="in"
     inkscape:snap-global="false"
     inkscape:zoom="0.30675956"
     inkscape:cx="432.10773"
     inkscape:cy="649.23318"
     inkscape:window-x="0"
     inkscape:window-y="27"
     inkscape:window-maximized="1"
     inkscape:current-layer="svg2"
     width="11in"
     inkscape:object-paths="true"
     inkscape:snap-object-midpoints="true" />
  <path
     inkscape:connector-curvature="0"
     style="fill:#000000;stroke-width:0.95864403"
     d="m -739.43677,724.5297 c -0.0589,-2.6114 0.3162,-5.0094 0.8334,-5.3291 0.57166,-0.3533 0.94037,1.5083 0.94037,4.7479 0,6.5966 -1.62624,7.1294 -1.77377,0.5812 z"
     id="path853-3" />
  <path
     inkscape:connector-curvature="0"
     style="fill:#000000;stroke-width:0.95864403"
     d="m -621.40677,540.6645 c 0.20683,-1.9772 0.37604,-0.3595 0.37604,3.5949 0,3.9544 -0.16921,5.5722 -0.37604,3.595 -0.20682,-1.9773 -0.20682,-5.2127 0,-7.1899 z"
     id="path843-5" />
  <g
     id="g858"
     transform="rotate(37.184913,419.00763,791.34269)">
    <path
       sodipodi:nodetypes="cccccsssc"
       inkscape:connector-curvature="0"
       id="path1066-2"
       d="m 697.37496,614.65082 c 55.34732,29.522 49.3959,23.6769 68.03402,32.6502 l -87.30112,239.5905 -228.5164,106.0924 -204.4378,-38.9707 c 8.0897,-87.4856 6.9437,-179.6715 43.647,-251.6053 93.9304,-184.09163 58.07434,-217.77335 13.2215,-369.57622 -26.95029,-91.21234 161.34787,-97.48467 215.38104,29.20074 46.49133,109.00292 106.02881,214.10408 179.97176,252.61838 z"
       style="fill:none;stroke:#000000;stroke-width:4;stroke-linecap:butt;stroke-linejoin:miter;stroke-miterlimit:4;stroke-dasharray:none;stroke-opacity:1" />
    <path
       transform="translate(-251.01092,-459.64338)"
       d="m 620.83984,707.68359 c -25.98438,0.27306 -50.10382,6.83385 -67.39648,22.23438 -17.29266,15.40053 -24.95505,41.10912 -17.15625,67.50391 22.68528,76.77752 42.14138,122.34331 44.74414,168.71093 2.60276,46.36759 -10.41302,97.12189 -56.77344,187.98239 -39.5151,77.4446 -37.51018,171.7184 -45.48242,257.9336 a 17.463637,17.463637 0 0 0 14.11914,18.7598 l 204.4375,38.9707 a 17.463637,17.463637 0 0 0 10.62305,-1.3145 L 936.47266,1362.373 a 17.463637,17.463637 0 0 0 9.05273,-9.8593 l 87.30081,-239.5899 a 17.463637,17.463637 0 0 0 -8.8321,-21.7129 c -19.9992,-9.6286 -12.4271,-3.006 -67.38863,-32.3222 a 17.463637,17.463637 0 0 0 -0.15235,-0.08 C 890.64771,1024.5329 830.44639,922.60443 784.47656,814.82422 752.6769,740.26718 679.73792,707.06468 620.83984,707.68359 Z"
       id="path837"
       style="fill:none;stroke:#00ff1b;stroke-width:4;stroke-linecap:butt;stroke-linejoin:miter;stroke-miterlimit:4;stroke-dasharray:none;stroke-opacity:1"
       inkscape:original="M 621.02344 725.14453 C 575.06356 725.62749 540.40025 749.71882 553.0332 792.47461 C 597.88604 944.27748 633.7429 977.95915 539.8125 1162.0508 C 503.1092 1233.9846 504.25376 1326.1707 496.16406 1413.6562 L 700.60156 1452.627 L 929.11914 1346.5352 L 1016.4199 1106.9453 C 997.7818 1097.972 1003.734 1103.8169 948.38672 1074.2949 C 874.44377 1035.7806 814.90539 930.6787 768.41406 821.67578 C 739.70894 754.37416 673.1113 724.59718 621.02344 725.14453 z "
       inkscape:radius="17.461891"
       sodipodi:type="inkscape:offset" />
    <path
       sodipodi:nodetypes="sscccsss"
       inkscape:connector-curvature="0"
       id="path847"
       d="m 370.41096,303.38982 c -16.46073,0.17298 -28.014,5.41162 -31.16602,8.21875 -3.15203,2.80714 -3.98675,-0.006 -0.88672,10.48633 13.66422,46.24606 27.28028,82.38438 36.38247,117.4294 l 136.87837,1.92307 c -5.76169,-11.98881 -11.34377,-24.12428 -16.7766,-36.32126 -4.18074,-9.386 -8.27309,-18.80842 -12.29088,-28.22847 -21.9904,-51.55839 -74.82998,-73.89988 -112.14062,-73.50782 z"
       style="fill:none;stroke:#000000;stroke-width:4;stroke-linecap:butt;stroke-linejoin:miter;stroke-miterlimit:4;stroke-dasharray:none;stroke-opacity:1" />
    <path
       transform="translate(-251.01092,-459.64338)"
       d="m 604.34961,771.99219 c 0.0221,0.0898 0.19979,0.69005 0.24414,0.85351 -0.0946,-0.89566 -0.31085,-1.1251 -0.24414,-0.85351 z m 17.25195,8.125 c -5.80019,0.0609 -10.55896,0.97376 -14.23047,2.00976 11.38475,37.88229 22.59147,69.41913 31.32227,100.13477 l 97.05078,1.36328 c -1.81213,-3.97859 -3.72093,-7.91458 -5.49805,-11.9043 -4.22379,-9.48265 -8.35303,-18.98718 -12.40039,-28.47656 -18.8143,-44.11175 -65.92247,-63.44557 -96.24414,-63.12695 z"
       id="path850"
       style="fill:none;stroke:#00ff1b;stroke-width:4;stroke-linecap:butt;stroke-linejoin:miter;stroke-miterlimit:4;stroke-dasharray:none;stroke-opacity:1"
       inkscape:original="M 621.42188 763.0332 C 604.96114 763.20618 593.40788 768.44482 590.25586 771.25195 C 587.10383 774.05909 586.26911 771.24595 589.36914 781.73828 C 603.03336 827.98434 616.64976 864.12295 625.75195 899.16797 L 762.63086 901.08984 C 756.86917 889.10103 751.28635 876.96651 745.85352 864.76953 C 741.67278 855.38353 737.58029 845.96107 733.5625 836.54102 C 711.5721 784.98263 658.73252 762.64114 621.42188 763.0332 z "
       inkscape:radius="-17.085821"
       sodipodi:type="inkscape:offset" />
  </g>
  <g
     transform="matrix(0.99230925,0.12378349,0.12378349,-0.99230925,-316.24363,965.49545)"
     id="g881">
    <path
       style="fill:none;stroke:#000000;stroke-width:4;stroke-linecap:butt;stroke-linejoin:miter;stroke-miterlimit:4;stroke-dasharray:none;stroke-opacity:1"
       d="m 697.37496,614.65082 c 55.34732,29.522 49.3959,23.6769 68.03402,32.6502 l -87.30112,239.5905 -228.5164,106.0924 -204.4378,-38.9707 c 8.0897,-87.4856 6.9437,-179.6715 43.647,-251.6053 93.9304,-184.09163 58.07434,-217.77335 13.2215,-369.57622 -26.95029,-91.21234 161.34787,-97.48467 215.38104,29.20074 46.49133,109.00292 106.02881,214.10408 179.97176,252.61838 z"
       id="path873"
       inkscape:connector-curvature="0"
       sodipodi:nodetypes="cccccsssc" />
    <path
       sodipodi:type="inkscape:offset"
       inkscape:radius="17.461891"
       inkscape:original="M 621.02344 725.14453 C 575.06356 725.62749 540.40025 749.71882 553.0332 792.47461 C 597.88604 944.27748 633.7429 977.95915 539.8125 1162.0508 C 503.1092 1233.9846 504.25376 1326.1707 496.16406 1413.6562 L 700.60156 1452.627 L 929.11914 1346.5352 L 1016.4199 1106.9453 C 997.7818 1097.972 1003.734 1103.8169 948.38672 1074.2949 C 874.44377 1035.7806 814.90539 930.6787 768.41406 821.67578 C 739.70894 754.37416 673.1113 724.59718 621.02344 725.14453 z "
       style="fill:none;stroke:#00ff1b;stroke-width:4;stroke-linecap:butt;stroke-linejoin:miter;stroke-miterlimit:4;stroke-dasharray:none;stroke-opacity:1"
       id="path875"
       d="m 620.83984,707.68359 c -25.98438,0.27306 -50.10382,6.83385 -67.39648,22.23438 -17.29266,15.40053 -24.95505,41.10912 -17.15625,67.50391 22.68528,76.77752 42.14138,122.34331 44.74414,168.71093 2.60276,46.36759 -10.41302,97.12189 -56.77344,187.98239 -39.5151,77.4446 -37.51018,171.7184 -45.48242,257.9336 a 17.463637,17.463637 0 0 0 14.11914,18.7598 l 204.4375,38.9707 a 17.463637,17.463637 0 0 0 10.62305,-1.3145 L 936.47266,1362.373 a 17.463637,17.463637 0 0 0 9.05273,-9.8593 l 87.30081,-239.5899 a 17.463637,17.463637 0 0 0 -8.8321,-21.7129 c -19.9992,-9.6286 -12.4271,-3.006 -67.38863,-32.3222 a 17.463637,17.463637 0 0 0 -0.15235,-0.08 C 890.64771,1024.5329 830.44639,922.60443 784.47656,814.82422 752.6769,740.26718 679.73792,707.06468 620.83984,707.68359 Z"
       transform="translate(-251.01092,-459.64338)" />
    <path
       style="fill:none;stroke:#000000;stroke-width:4;stroke-linecap:butt;stroke-linejoin:miter;stroke-miterlimit:4;stroke-dasharray:none;stroke-opacity:1"
       d="m 370.41096,303.38982 c -16.46073,0.17298 -28.014,5.41162 -31.16602,8.21875 -3.15203,2.80714 -3.98675,-0.006 -0.88672,10.48633 13.66422,46.24606 27.28028,82.38438 36.38247,117.4294 l 136.87837,1.92307 c -5.76169,-11.98881 -11.34377,-24.12428 -16.7766,-36.32126 -4.18074,-9.386 -8.27309,-18.80842 -12.29088,-28.22847 -21.9904,-51.55839 -74.82998,-73.89988 -112.14062,-73.50782 z"
       id="path877"
       inkscape:connector-curvature="0"
       sodipodi:nodetypes="sscccsss" />
    <path
       sodipodi:type="inkscape:offset"
       inkscape:radius="-17.085821"
       inkscape:original="M 621.42188 763.0332 C 604.96114 763.20618 593.40788 768.44482 590.25586 771.25195 C 587.10383 774.05909 586.26911 771.24595 589.36914 781.73828 C 603.03336 827.98434 616.64976 864.12295 625.75195 899.16797 L 762.63086 901.08984 C 756.86917 889.10103 751.28635 876.96651 745.85352 864.76953 C 741.67278 855.38353 737.58029 845.96107 733.5625 836.54102 C 711.5721 784.98263 658.73252 762.64114 621.42188 763.0332 z "
       style="fill:none;stroke:#00ff1b;stroke-width:4;stroke-linecap:butt;stroke-linejoin:miter;stroke-miterlimit:4;stroke-dasharray:none;stroke-opacity:1"
       id="path879"
       d="m 604.34961,771.99219 c 0.0221,0.0898 0.19979,0.69005 0.24414,0.85351 -0.0946,-0.89566 -0.31085,-1.1251 -0.24414,-0.85351 z m 17.25195,8.125 c -5.80019,0.0609 -10.55896,0.97376 -14.23047,2.00976 11.38475,37.88229 22.59147,69.41913 31.32227,100.13477 l 97.05078,1.36328 c -1.81213,-3.97859 -3.72093,-7.91458 -5.49805,-11.9043 -4.22379,-9.48265 -8.35303,-18.98718 -12.40039,-28.47656 -18.8143,-44.11175 -65.92247,-63.44557 -96.24414,-63.12695 z"
       transform="translate(-251.01092,-459.64338)" />
  </g>
</svg>
