<?xml version="1.0" encoding="utf-8" standalone="no"?>
<!DOCTYPE svg PUBLIC "-//W3C//DTD SVG 1.1//EN"
  "http://www.w3.org/Graphics/SVG/1.1/DTD/svg11.dtd">
<svg xmlns:xlink="http://www.w3.org/1999/xlink" width="279.493826pt" height="280.8pt" viewBox="0 0 279.493826 280.8" xmlns="http://www.w3.org/2000/svg" version="1.1">
 <metadata>
  <rdf:RDF xmlns:dc="http://purl.org/dc/elements/1.1/" xmlns:cc="http://creativecommons.org/ns#" xmlns:rdf="http://www.w3.org/1999/02/22-rdf-syntax-ns#">
   <cc:Work>
    <dc:type rdf:resource="http://purl.org/dc/dcmitype/StillImage"/>
    <dc:date>2023-07-04T15:54:45.002365</dc:date>
    <dc:format>image/svg+xml</dc:format>
    <dc:creator>
     <cc:Agent>
      <dc:title>Matplotlib v3.5.1, https://matplotlib.org/</dc:title>
     </cc:Agent>
    </dc:creator>
   </cc:Work>
  </rdf:RDF>
 </metadata>
 <defs>
  <style type="text/css">*{stroke-linejoin: round; stroke-linecap: butt}</style>
 </defs>
 <g id="figure_1">
  <g id="patch_1">
   <path d="M 0 280.8 
L 279.493826 280.8 
L 279.493826 0 
L 0 0 
L 0 280.8 
z
" style="fill: none"/>
  </g>
  <g id="axes_1">
   <g id="patch_2">
    <path d="M 7.2 273.6 
L 272.293826 273.6 
L 272.293826 7.2 
L 7.2 7.2 
z
" style="fill: #ffffff"/>
   </g>
   <g id="matplotlib.axis_1"/>
   <g id="matplotlib.axis_2"/>
   <g id="line2d_1">
    <path d="M 184.893541 71.752817 
L 190.291222 62.635609 
L 201.696113 62.798655 
L 207.366941 53.263652 
L 201.976093 43.435887 
L 190.566758 43.272777 
L 184.898224 52.803925 
L 173.684552 52.803925 
L 168.28687 61.921133 
L 157.479206 62.112482 
L 152.401666 70.652665 
L 140.666722 71.100062 
L 136.653753 78.705433 
L 140.639082 71.085541 
L 152.370346 70.550257 
L 157.353726 61.954789 
L 168.157423 61.605019 
L 173.386001 52.389791 
L 184.596866 52.138891 
L 190.012041 42.46155 
L 201.421048 42.276927 
L 206.952861 32.343441 
L 201.102102 22.547107 
L 189.693095 22.73173 
L 184.161282 32.665216 
L 172.954887 32.916016 
L 167.537521 42.597273 
L 156.754485 42.946374 
L 151.515647 52.179685 
L 139.802639 52.714137 
L 135.53686 61.165284 
L 139.769991 52.697736 
L 151.478399 52.07054 
L 156.609718 42.777046 
L 167.386084 42.261626 
L 172.61487 32.47723 
L 183.812322 31.964126 
L 189.068583 21.882121 
L 182.912303 12.323077 
L 171.714852 12.836181 
L 166.45859 22.918186 
L 155.690864 23.433193 
L 150.45804 33.225147 
L 138.763597 33.851595 
L 134.378398 43.051889 
L 138.726685 33.834092 
L 150.415616 33.112058 
L 155.530929 23.258207 
L 149.241771 14.10882 
L 137.55284 14.830854 
L 133.201744 24.637498 
L 120.160127 25.469668 
L 115.848882 35.293897 
L 121.333486 43.884269 
L 117.211606 54.137159 
L 122.486632 61.998003 
L 118.686655 72.486299 
L 123.608151 79.537857 
L 120.22801 90.072744 
L 124.691382 96.281025 
L 121.788002 106.694828 
L 125.732815 112.066909 
L 123.002296 123.580137 
L 126.950588 128.361256 
L 122.985494 123.594061 
L 125.636658 112.062302 
L 121.638753 106.729614 
L 124.404508 96.278417 
L 119.839075 90.144799 
L 123.006514 79.54402 
L 117.918895 72.611363 
L 121.427802 62.022135 
L 115.907999 54.331198 
L 119.662997 43.938333 
L 113.843062 35.571509 
L 102.201947 36.850915 
L 97.681693 47.274409 
L 104.252983 55.612131 
L 99.994629 66.171593 
L 106.245714 73.894293 
L 102.363427 84.394557 
L 108.159132 91.428472 
L 104.727328 101.698552 
L 109.979873 108.010972 
L 106.633872 119.252664 
L 111.165503 124.139904 
L 106.619073 119.266427 
L 109.894132 108.003863 
L 104.583376 101.740338 
L 107.887436 91.428452 
L 101.982302 84.48615 
L 105.663345 73.913656 
L 99.239349 66.334183 
L 103.218874 55.666512 
L 96.400801 47.529354 
L 100.566455 36.959149 
L 93.520341 28.379109 
L 82.859696 29.979053 
L 78.690926 40.557165 
L 85.731602 49.130581 
L 81.744987 59.817257 
L 88.549707 67.938478 
L 84.862519 78.528619 
L 91.273939 86.093255 
L 87.96988 96.405142 
L 93.875014 103.347443 
L 90.594038 114.630354 
L 95.847309 120.186215 
L 90.575474 114.647966 
L 93.778126 103.342573 
L 87.802621 96.46075 
L 90.965919 86.104817 
L 84.425597 78.651347 
L 87.890812 67.986511 
L 80.887807 60.035639 
L 84.567179 49.239327 
L 77.251234 40.899571 
L 66.23861 42.989625 
L 62.557805 53.790144 
L 69.870792 62.126527 
L 66.405576 72.791363 
L 73.408581 80.742235 
L 70.250813 91.080064 
L 76.803964 98.548154 
L 73.603166 109.847002 
L 79.596229 116.013751 
L 73.580815 109.868802 
L 76.69689 98.546296 
L 70.062063 91.150674 
L 73.067938 80.767663 
L 65.919455 72.947328 
L 69.145183 62.207629 
L 61.614865 54.067029 
L 64.964855 43.159367 
L 57.226973 34.828684 
L 46.102122 37.365852 
L 42.752132 48.273514 
L 50.490015 56.604197 
L 47.265573 67.339614 
L 54.798937 75.483508 
L 51.798811 85.846663 
L 58.961321 93.682344 
L 55.850096 104.987231 
L 62.569417 111.655775 
L 55.82441 105.013213 
L 58.846007 93.684041 
L 51.593034 85.932019 
L 54.432921 75.523812 
L 46.743192 67.527397 
L 49.715403 56.71943 
L 41.751121 48.604917 
L 30.757535 51.50598 
L 27.785323 62.313947 
L 35.749605 70.428459 
L 32.911996 80.828321 
L 40.607665 88.830913 
L 37.589672 100.146573 
L 44.98457 107.160192 
L 37.561619 100.17627 
L 40.487002 88.836315 
L 32.696152 80.926355 
L 22.05111 84.080384 
L 19.125727 95.420339 
L 27.107838 102.588897 
L 23.869197 115.249366 
L 31.880346 122.385458 
L 41.745111 119.82386 
L 50.222458 126.912318 
L 59.328637 124.324605 
L 68.129342 131.179659 
L 76.356598 128.67809 
L 85.33135 135.148254 
L 92.615034 132.821799 
L 101.621955 138.80112 
L 107.950122 136.709444 
L 118.056076 142.864105 
L 123.82328 140.586503 
L 118.064127 142.884387 
L 107.916026 136.799471 
L 101.608918 138.953814 
L 92.523905 133.093827 
L 85.279691 135.540419 
L 76.176543 129.252185 
L 68.011034 131.948489 
L 59.024392 125.339069 
L 50.004163 128.212084 
L 41.280319 121.429296 
L 31.524538 124.378893 
L 29.144023 135.845609 
L 37.66052 143.365663 
L 47.620805 139.692492 
L 56.347546 147.005481 
L 65.623961 143.446791 
L 74.410614 150.383825 
L 82.891236 147.045382 
L 91.598177 153.48285 
L 99.22477 150.438029 
L 108.882283 157.094139 
L 114.930676 154.294542 
L 108.8908 157.112466 
L 99.191514 150.517376 
L 91.593434 153.63267 
L 82.807258 147.303774 
L 74.37995 150.774601 
L 65.462416 144.006641 
L 56.268784 147.774038 
L 47.352967 140.692793 
L 37.50717 144.662646 
L 28.741565 137.4345 
L 18.404093 141.484375 
L 16.63141 152.11766 
L 25.403571 159.351213 
L 35.733063 155.304464 
L 44.664764 162.398324 
L 54.491278 158.436246 
L 63.423698 165.215504 
L 72.599331 161.455482 
L 81.385508 167.784377 
L 89.812815 164.31355 
L 99.529624 170.920555 
L 106.436912 167.641253 
L 99.540638 170.943653 
L 89.778244 164.404191 
L 81.386709 167.960634 
L 72.515144 161.751999 
L 63.405402 165.668966 
L 54.333351 159.077735 
L 44.607574 163.281034 
L 35.47666 156.4455 
L 25.284329 160.826251 
L 23.869002 171.94574 
L 33.003474 178.783938 
L 43.191682 174.404958 
L 52.263734 180.99619 
L 61.98951 176.792891 
L 70.845566 182.990672 
L 79.973176 179.066021 
L 89.729918 185.601697 
L 97.446803 181.807586 
L 89.743745 185.629691 
L 79.938321 179.167281 
L 70.854393 183.192003 
L 61.908428 177.12472 
L 52.261845 181.506714 
L 43.044589 175.120116 
L 32.975422 179.766289 
L 23.636823 173.209606 
L 13.322736 177.994447 
L 12.297958 189.358837 
L 21.636557 195.91552 
L 31.950645 191.130679 
L 41.164226 197.514732 
L 51.237467 192.866678 
L 60.166323 198.922359 
L 69.831836 194.531765 
L 79.622001 200.984118 
L 88.040548 196.654358 
L 79.638773 201.016576 
L 69.797816 194.64196 
L 60.183913 199.144441 
L 51.162693 193.227235 
L 41.181393 198.069574 
L 31.820869 191.902987 
L 21.642411 196.969947 
L 21.00428 208.321947 
L 30.364804 214.488534 
L 40.543263 209.421573 
L 49.55725 215.334034 
L 59.546259 210.487955 
L 69.37548 216.854968 
L 78.330977 211.98933 
L 69.395055 216.890825 
L 59.51411 210.604382 
L 49.583786 215.569609 
L 49.293947 226.668293 
L 59.174892 232.954736 
L 68.459203 227.578505 
L 79.49923 234.570935 
L 88.761638 229.157053 
L 89.373794 218.983527 
L 98.734962 213.111545 
L 99.087864 203.651406 
L 108.326976 197.399767 
L 108.490204 188.802154 
L 117.417047 182.266048 
L 117.455239 174.619939 
L 125.925203 167.90156 
L 125.891412 161.236752 
L 134.867753 153.527314 
L 134.48379 147.338559 
L 134.889531 153.525924 
L 125.966497 161.296999 
L 126.066394 167.961144 
L 117.685792 174.790669 
L 117.774055 182.436364 
L 108.980561 189.150801 
L 109.021618 197.749866 
L 99.95866 204.254247 
L 99.903655 213.720806 
L 90.757026 219.921677 
L 90.547556 230.111451 
L 100.717432 235.918866 
L 110.50117 230.143021 
L 110.085675 219.535155 
L 119.737452 213.495368 
L 119.219507 203.573278 
L 128.532243 197.360336 
L 127.977851 188.263149 
L 136.79084 181.971644 
L 136.25179 173.777421 
L 145.566462 166.649431 
L 144.772943 160.031944 
L 145.586524 166.646995 
L 136.316977 173.833569 
L 136.931861 182.022451 
L 128.197646 188.422865 
L 128.894418 197.510256 
L 119.702035 203.89992 
L 120.444054 213.807773 
L 110.954251 220.098994 
L 111.687286 230.689655 
L 102.104191 236.792621 
L 102.761396 247.875621 
L 112.326462 252.847409 
L 121.916726 246.739878 
L 121.260028 235.665433 
L 130.766737 229.363005 
L 130.035137 218.793085 
L 139.242863 212.392755 
L 138.502297 202.504298 
L 147.236512 196.103884 
L 146.539741 187.016494 
L 155.826034 179.816936 
L 154.841702 172.234355 
L 155.851405 179.813599 
L 146.615262 187.077382 
L 147.404513 196.157208 
L 138.758286 202.675994 
L 139.668479 212.550283 
L 130.596427 219.141514 
L 131.588572 229.690168 
L 122.265985 236.261887 
L 123.282723 247.309096 
L 133.420626 252.091264 
L 142.746845 245.516984 
L 141.730518 234.474243 
L 150.802569 227.883012 
L 149.810425 217.334358 
L 158.441536 210.826968 
L 157.529559 200.933311 
L 166.760355 193.673733 
L 165.53659 185.162094 
L 166.791251 193.669233 
L 157.615092 200.997751 
L 158.635742 210.880788 
L 150.100957 217.514012 
L 151.287524 228.042569 
L 142.365218 234.835132 
L 143.672448 245.847226 
L 134.550887 252.702635 
L 135.914313 263.990512 
L 146.405816 268.476923 
L 155.527378 261.621514 
L 154.163952 250.333637 
L 163.0827 243.543781 
L 161.774941 232.527232 
L 170.293404 225.906694 
L 169.104509 215.357476 
L 178.266388 208.040363 
L 176.750016 198.69588 
L 178.302441 208.034441 
L 169.198797 215.423884 
L 170.510052 225.958591 
L 162.094744 232.709765 
L 163.615691 243.698909 
L 154.858358 250.695717 
L 156.532007 261.941783 
L 167.131207 266.056642 
L 175.88854 259.059835 
L 174.214891 247.813768 
L 182.623451 241.068009 
L 181.101329 230.070375 
L 190.194115 222.689746 
L 188.334018 212.668997 
L 190.234265 222.68221 
L 181.202123 230.136929 
L 182.855695 241.115567 
L 193.321606 244.820903 
L 202.353749 237.366184 
L 200.109659 226.874932 
L 210.171411 218.536022 
L 207.884745 208.053968 
L 198.398313 204.32798 
L 195.706486 193.610438 
L 186.818413 190.351464 
L 183.727793 179.632684 
L 175.601417 176.820636 
L 172.143758 166.310937 
L 164.883678 163.911836 
L 161.111482 153.780328 
L 154.762431 151.752926 
L 150.204162 140.833571 
L 144.199655 139.286312 
L 150.20957 140.81243 
L 154.842932 151.700134 
L 161.21178 153.66446 
L 165.117297 163.745325 
L 172.416059 166.024032 
L 176.08453 176.462017 
L 184.275413 179.080227 
L 187.660839 189.709576 
L 196.647074 192.687216 
L 199.717989 203.302353 
L 209.344311 206.650383 
L 218.010155 198.772846 
L 215.540341 187.683124 
L 205.323266 184.800273 
L 202.561651 173.754491 
L 192.965128 171.180991 
L 189.934063 160.404148 
L 181.110808 158.120221 
L 177.850594 147.794388 
L 169.890849 145.774901 
L 165.99012 134.713452 
L 159.451305 133.423217 
L 165.994002 134.693619 
L 169.964393 145.730255 
L 177.942492 147.67597 
L 181.330627 157.960538 
L 190.188563 160.106027 
L 193.424893 170.823017 
L 203.077117 173.179011 
L 206.127913 184.148444 
L 216.426751 186.72398 
L 219.269677 197.723966 
L 230.013324 200.523761 
L 237.697544 192.96321 
L 234.852491 181.954996 
L 224.117137 179.157362 
L 221.060907 168.168387 
L 210.782238 165.597895 
L 207.540507 154.863016 
L 197.907178 152.511635 
L 194.519043 142.227066 
L 185.661107 140.081577 
L 181.683543 129.025001 
L 174.167905 127.61801 
L 181.68821 128.999841 
L 185.742353 140.028567 
L 194.621673 142.083766 
L 198.149575 152.321232 
L 207.821847 154.50691 
L 211.287062 165.171747 
L 221.626017 167.487874 
L 224.995256 178.384955 
L 235.815966 180.831754 
L 243.496862 172.667807 
L 240.12631 161.766481 
L 229.309977 159.320671 
L 225.844762 148.655835 
L 215.505806 146.339707 
L 211.984071 136.120138 
L 202.292827 133.930172 
L 198.241031 122.90783 
L 189.767817 121.441459 
L 198.246299 122.877056 
L 202.380545 133.868738 
L 212.09527 135.952069 
L 215.766447 146.118911 
L 226.146369 148.243922 
L 229.849337 158.828556 
L 240.726416 160.98823 
L 244.42758 171.781789 
L 255.584311 173.97324 
L 263.093194 165.381604 
L 259.39203 154.588045 
L 248.235299 152.396595 
L 244.533808 141.816181 
L 233.652327 139.655632 
L 229.988171 129.508234 
L 219.58788 127.379053 
L 215.460068 116.404475 
L 206.104352 114.959027 
L 215.465577 116.368357 
L 219.680174 127.3099 
L 230.104476 129.318227 
L 233.924751 139.407887 
L 244.846047 141.357213 
L 248.794241 151.848064 
L 260.007071 153.731555 
L 267.195868 144.922678 
L 263.247674 134.431827 
L 252.034843 132.548336 
L 248.217632 122.466766 
L 237.287899 120.515934 
L 233.078329 109.587441 
L 222.973229 108.259916 
L 233.083569 109.546927 
L 237.382343 120.44064 
L 248.334631 122.260585 
L 255.092759 113.451924 
L 250.793985 102.558211 
L 240.122749 101.450492 
L 235.301228 89.304332 
L 224.625583 88.239948 
L 218.150489 96.110687 
L 207.12568 95.358864 
L 201.279647 102.804846 
L 190.130427 102.431915 
L 184.944822 109.291587 
L 173.881028 109.332341 
L 169.35586 115.495724 
L 158.554551 115.952488 
L 154.664413 121.364292 
L 142.870906 122.325198 
L 139.54388 127.557693 
L 142.852471 122.313521 
L 154.63908 121.271418 
L 158.475347 115.821293 
L 169.269691 115.222085 
L 173.692312 108.984708 
L 184.753045 108.7213 
L 189.774233 101.740379 
L 200.929499 101.805297 
L 206.538302 94.179021 
L 217.582862 94.538664 
L 223.741725 86.418087 
L 218.927636 75.742086 
L 207.617469 74.664107 
L 201.718464 83.490272 
L 190.359915 82.70339 
L 184.946883 91.034971 
L 173.760845 90.587457 
L 168.862166 98.273099 
L 158.034254 98.182889 
L 153.653911 105.129001 
L 141.928456 105.420638 
L 138.680765 111.240716 
L 141.910793 105.410817 
L 153.634177 105.045259 
L 157.950029 98.058895 
L 168.778227 98.014694 
L 173.555961 90.253289 
L 184.748505 90.487088 
L 189.971889 82.035319 
L 201.347187 82.523581 
L 206.979184 73.524688 
L 218.319305 74.220088 
L 224.302038 64.867457 
L 219.486081 55.222991 
L 208.137478 54.527072 
L 202.159363 63.872483 
L 190.763799 63.383351 
L 185.142832 72.36462 
L 173.931606 72.13043 
L 168.718447 80.565654 
L 157.89025 80.609855 
L 153.112516 88.37126 
L 141.367952 88.737478 
L 137.707365 95.450491 
L 141.345466 88.725265 
L 153.087207 88.277609 
L 157.785677 80.467966 
L 168.612268 80.276282 
L 173.679868 71.752817 
L 184.893541 71.752817 
L 184.893541 71.752817 
" clip-path="url(#p0387416aba)" style="fill: none; stroke: #ff0000; stroke-linecap: square"/>
   </g>
   <g id="line2d_2">
    <path d="M 190.291222 62.635609 
L 184.898224 52.803925 
" clip-path="url(#p0387416aba)" style="fill: none; stroke: #0000ff; stroke-linecap: square"/>
   </g>
   <g id="line2d_3">
    <path d="M 184.898224 52.803925 
L 190.291222 62.635609 
" clip-path="url(#p0387416aba)" style="fill: none; stroke: #0000ff; stroke-linecap: square"/>
   </g>
   <g id="line2d_4">
    <path d="M 168.28687 61.921133 
L 173.679868 71.752817 
" clip-path="url(#p0387416aba)" style="fill: none; stroke: #0000ff; stroke-linecap: square"/>
   </g>
   <g id="line2d_5">
    <path d="M 152.401666 70.652665 
L 157.785677 80.467966 
" clip-path="url(#p0387416aba)" style="fill: none; stroke: #0000ff; stroke-linecap: square"/>
   </g>
   <g id="line2d_6">
    <path d="M 136.653753 78.705433 
L 141.345466 88.725265 
" clip-path="url(#p0387416aba)" style="fill: none; stroke: #0000ff; stroke-linecap: square"/>
   </g>
   <g id="line2d_7">
    <path d="M 136.653753 78.705433 
L 123.608151 79.537857 
" clip-path="url(#p0387416aba)" style="fill: none; stroke: #0000ff; stroke-linecap: square"/>
   </g>
   <g id="line2d_8">
    <path d="M 140.639082 71.085541 
L 135.53686 61.165284 
" clip-path="url(#p0387416aba)" style="fill: none; stroke: #0000ff; stroke-linecap: square"/>
   </g>
   <g id="line2d_9">
    <path d="M 157.353726 61.954789 
L 151.515647 52.179685 
" clip-path="url(#p0387416aba)" style="fill: none; stroke: #0000ff; stroke-linecap: square"/>
   </g>
   <g id="line2d_10">
    <path d="M 173.386001 52.389791 
L 167.537521 42.597273 
" clip-path="url(#p0387416aba)" style="fill: none; stroke: #0000ff; stroke-linecap: square"/>
   </g>
   <g id="line2d_11">
    <path d="M 190.012041 42.46155 
L 184.161282 32.665216 
" clip-path="url(#p0387416aba)" style="fill: none; stroke: #0000ff; stroke-linecap: square"/>
   </g>
   <g id="line2d_12">
    <path d="M 184.161282 32.665216 
L 190.012041 42.46155 
" clip-path="url(#p0387416aba)" style="fill: none; stroke: #0000ff; stroke-linecap: square"/>
   </g>
   <g id="line2d_13">
    <path d="M 167.537521 42.597273 
L 173.386001 52.389791 
" clip-path="url(#p0387416aba)" style="fill: none; stroke: #0000ff; stroke-linecap: square"/>
   </g>
   <g id="line2d_14">
    <path d="M 151.515647 52.179685 
L 157.353726 61.954789 
" clip-path="url(#p0387416aba)" style="fill: none; stroke: #0000ff; stroke-linecap: square"/>
   </g>
   <g id="line2d_15">
    <path d="M 135.53686 61.165284 
L 140.639082 71.085541 
" clip-path="url(#p0387416aba)" style="fill: none; stroke: #0000ff; stroke-linecap: square"/>
   </g>
   <g id="line2d_16">
    <path d="M 135.53686 61.165284 
L 122.486632 61.998003 
" clip-path="url(#p0387416aba)" style="fill: none; stroke: #0000ff; stroke-linecap: square"/>
   </g>
   <g id="line2d_17">
    <path d="M 139.769991 52.697736 
L 134.378398 43.051889 
" clip-path="url(#p0387416aba)" style="fill: none; stroke: #0000ff; stroke-linecap: square"/>
   </g>
   <g id="line2d_18">
    <path d="M 156.609718 42.777046 
L 150.45804 33.225147 
" clip-path="url(#p0387416aba)" style="fill: none; stroke: #0000ff; stroke-linecap: square"/>
   </g>
   <g id="line2d_19">
    <path d="M 172.61487 32.47723 
L 166.45859 22.918186 
" clip-path="url(#p0387416aba)" style="fill: none; stroke: #0000ff; stroke-linecap: square"/>
   </g>
   <g id="line2d_20">
    <path d="M 166.45859 22.918186 
L 172.61487 32.47723 
" clip-path="url(#p0387416aba)" style="fill: none; stroke: #0000ff; stroke-linecap: square"/>
   </g>
   <g id="line2d_21">
    <path d="M 150.45804 33.225147 
L 156.609718 42.777046 
" clip-path="url(#p0387416aba)" style="fill: none; stroke: #0000ff; stroke-linecap: square"/>
   </g>
   <g id="line2d_22">
    <path d="M 134.378398 43.051889 
L 139.769991 52.697736 
" clip-path="url(#p0387416aba)" style="fill: none; stroke: #0000ff; stroke-linecap: square"/>
   </g>
   <g id="line2d_23">
    <path d="M 134.378398 43.051889 
L 121.333486 43.884269 
" clip-path="url(#p0387416aba)" style="fill: none; stroke: #0000ff; stroke-linecap: square"/>
   </g>
   <g id="line2d_24">
    <path d="M 138.726685 33.834092 
L 133.201744 24.637498 
" clip-path="url(#p0387416aba)" style="fill: none; stroke: #0000ff; stroke-linecap: square"/>
   </g>
   <g id="line2d_25">
    <path d="M 133.201744 24.637498 
L 138.726685 33.834092 
" clip-path="url(#p0387416aba)" style="fill: none; stroke: #0000ff; stroke-linecap: square"/>
   </g>
   <g id="line2d_26">
    <path d="M 121.333486 43.884269 
L 134.378398 43.051889 
" clip-path="url(#p0387416aba)" style="fill: none; stroke: #0000ff; stroke-linecap: square"/>
   </g>
   <g id="line2d_27">
    <path d="M 122.486632 61.998003 
L 135.53686 61.165284 
" clip-path="url(#p0387416aba)" style="fill: none; stroke: #0000ff; stroke-linecap: square"/>
   </g>
   <g id="line2d_28">
    <path d="M 123.608151 79.537857 
L 136.653753 78.705433 
" clip-path="url(#p0387416aba)" style="fill: none; stroke: #0000ff; stroke-linecap: square"/>
   </g>
   <g id="line2d_29">
    <path d="M 124.691382 96.281025 
L 137.707365 95.450491 
" clip-path="url(#p0387416aba)" style="fill: none; stroke: #0000ff; stroke-linecap: square"/>
   </g>
   <g id="line2d_30">
    <path d="M 125.732815 112.066909 
L 138.680765 111.240716 
" clip-path="url(#p0387416aba)" style="fill: none; stroke: #0000ff; stroke-linecap: square"/>
   </g>
   <g id="line2d_31">
    <path d="M 126.950588 128.361256 
L 139.54388 127.557693 
" clip-path="url(#p0387416aba)" style="fill: none; stroke: #0000ff; stroke-linecap: square"/>
   </g>
   <g id="line2d_32">
    <path d="M 126.950588 128.361256 
L 123.82328 140.586503 
" clip-path="url(#p0387416aba)" style="fill: none; stroke: #0000ff; stroke-linecap: square"/>
   </g>
   <g id="line2d_33">
    <path d="M 122.985494 123.594061 
L 111.165503 124.139904 
" clip-path="url(#p0387416aba)" style="fill: none; stroke: #0000ff; stroke-linecap: square"/>
   </g>
   <g id="line2d_34">
    <path d="M 121.638753 106.729614 
L 109.979873 108.010972 
" clip-path="url(#p0387416aba)" style="fill: none; stroke: #0000ff; stroke-linecap: square"/>
   </g>
   <g id="line2d_35">
    <path d="M 119.839075 90.144799 
L 108.159132 91.428472 
" clip-path="url(#p0387416aba)" style="fill: none; stroke: #0000ff; stroke-linecap: square"/>
   </g>
   <g id="line2d_36">
    <path d="M 117.918895 72.611363 
L 106.245714 73.894293 
" clip-path="url(#p0387416aba)" style="fill: none; stroke: #0000ff; stroke-linecap: square"/>
   </g>
   <g id="line2d_37">
    <path d="M 115.907999 54.331198 
L 104.252983 55.612131 
" clip-path="url(#p0387416aba)" style="fill: none; stroke: #0000ff; stroke-linecap: square"/>
   </g>
   <g id="line2d_38">
    <path d="M 104.252983 55.612131 
L 115.907999 54.331198 
" clip-path="url(#p0387416aba)" style="fill: none; stroke: #0000ff; stroke-linecap: square"/>
   </g>
   <g id="line2d_39">
    <path d="M 106.245714 73.894293 
L 117.918895 72.611363 
" clip-path="url(#p0387416aba)" style="fill: none; stroke: #0000ff; stroke-linecap: square"/>
   </g>
   <g id="line2d_40">
    <path d="M 108.159132 91.428472 
L 119.839075 90.144799 
" clip-path="url(#p0387416aba)" style="fill: none; stroke: #0000ff; stroke-linecap: square"/>
   </g>
   <g id="line2d_41">
    <path d="M 109.979873 108.010972 
L 121.638753 106.729614 
" clip-path="url(#p0387416aba)" style="fill: none; stroke: #0000ff; stroke-linecap: square"/>
   </g>
   <g id="line2d_42">
    <path d="M 111.165503 124.139904 
L 122.985494 123.594061 
" clip-path="url(#p0387416aba)" style="fill: none; stroke: #0000ff; stroke-linecap: square"/>
   </g>
   <g id="line2d_43">
    <path d="M 111.165503 124.139904 
L 107.950122 136.709444 
" clip-path="url(#p0387416aba)" style="fill: none; stroke: #0000ff; stroke-linecap: square"/>
   </g>
   <g id="line2d_44">
    <path d="M 106.619073 119.266427 
L 95.847309 120.186215 
" clip-path="url(#p0387416aba)" style="fill: none; stroke: #0000ff; stroke-linecap: square"/>
   </g>
   <g id="line2d_45">
    <path d="M 104.583376 101.740338 
L 93.875014 103.347443 
" clip-path="url(#p0387416aba)" style="fill: none; stroke: #0000ff; stroke-linecap: square"/>
   </g>
   <g id="line2d_46">
    <path d="M 101.982302 84.48615 
L 91.273939 86.093255 
" clip-path="url(#p0387416aba)" style="fill: none; stroke: #0000ff; stroke-linecap: square"/>
   </g>
   <g id="line2d_47">
    <path d="M 99.239349 66.334183 
L 88.549707 67.938478 
" clip-path="url(#p0387416aba)" style="fill: none; stroke: #0000ff; stroke-linecap: square"/>
   </g>
   <g id="line2d_48">
    <path d="M 96.400801 47.529354 
L 85.731602 49.130581 
" clip-path="url(#p0387416aba)" style="fill: none; stroke: #0000ff; stroke-linecap: square"/>
   </g>
   <g id="line2d_49">
    <path d="M 85.731602 49.130581 
L 96.400801 47.529354 
" clip-path="url(#p0387416aba)" style="fill: none; stroke: #0000ff; stroke-linecap: square"/>
   </g>
   <g id="line2d_50">
    <path d="M 88.549707 67.938478 
L 99.239349 66.334183 
" clip-path="url(#p0387416aba)" style="fill: none; stroke: #0000ff; stroke-linecap: square"/>
   </g>
   <g id="line2d_51">
    <path d="M 91.273939 86.093255 
L 101.982302 84.48615 
" clip-path="url(#p0387416aba)" style="fill: none; stroke: #0000ff; stroke-linecap: square"/>
   </g>
   <g id="line2d_52">
    <path d="M 93.875014 103.347443 
L 104.583376 101.740338 
" clip-path="url(#p0387416aba)" style="fill: none; stroke: #0000ff; stroke-linecap: square"/>
   </g>
   <g id="line2d_53">
    <path d="M 95.847309 120.186215 
L 106.619073 119.266427 
" clip-path="url(#p0387416aba)" style="fill: none; stroke: #0000ff; stroke-linecap: square"/>
   </g>
   <g id="line2d_54">
    <path d="M 95.847309 120.186215 
L 92.615034 132.821799 
" clip-path="url(#p0387416aba)" style="fill: none; stroke: #0000ff; stroke-linecap: square"/>
   </g>
   <g id="line2d_55">
    <path d="M 90.575474 114.647966 
L 79.596229 116.013751 
" clip-path="url(#p0387416aba)" style="fill: none; stroke: #0000ff; stroke-linecap: square"/>
   </g>
   <g id="line2d_56">
    <path d="M 87.802621 96.46075 
L 76.803964 98.548154 
" clip-path="url(#p0387416aba)" style="fill: none; stroke: #0000ff; stroke-linecap: square"/>
   </g>
   <g id="line2d_57">
    <path d="M 84.425597 78.651347 
L 73.408581 80.742235 
" clip-path="url(#p0387416aba)" style="fill: none; stroke: #0000ff; stroke-linecap: square"/>
   </g>
   <g id="line2d_58">
    <path d="M 80.887807 60.035639 
L 69.870792 62.126527 
" clip-path="url(#p0387416aba)" style="fill: none; stroke: #0000ff; stroke-linecap: square"/>
   </g>
   <g id="line2d_59">
    <path d="M 69.870792 62.126527 
L 80.887807 60.035639 
" clip-path="url(#p0387416aba)" style="fill: none; stroke: #0000ff; stroke-linecap: square"/>
   </g>
   <g id="line2d_60">
    <path d="M 73.408581 80.742235 
L 84.425597 78.651347 
" clip-path="url(#p0387416aba)" style="fill: none; stroke: #0000ff; stroke-linecap: square"/>
   </g>
   <g id="line2d_61">
    <path d="M 76.803964 98.548154 
L 87.802621 96.46075 
" clip-path="url(#p0387416aba)" style="fill: none; stroke: #0000ff; stroke-linecap: square"/>
   </g>
   <g id="line2d_62">
    <path d="M 79.596229 116.013751 
L 90.575474 114.647966 
" clip-path="url(#p0387416aba)" style="fill: none; stroke: #0000ff; stroke-linecap: square"/>
   </g>
   <g id="line2d_63">
    <path d="M 79.596229 116.013751 
L 76.356598 128.67809 
" clip-path="url(#p0387416aba)" style="fill: none; stroke: #0000ff; stroke-linecap: square"/>
   </g>
   <g id="line2d_64">
    <path d="M 73.580815 109.868802 
L 62.569417 111.655775 
" clip-path="url(#p0387416aba)" style="fill: none; stroke: #0000ff; stroke-linecap: square"/>
   </g>
   <g id="line2d_65">
    <path d="M 70.062063 91.150674 
L 58.961321 93.682344 
" clip-path="url(#p0387416aba)" style="fill: none; stroke: #0000ff; stroke-linecap: square"/>
   </g>
   <g id="line2d_66">
    <path d="M 65.919455 72.947328 
L 54.798937 75.483508 
" clip-path="url(#p0387416aba)" style="fill: none; stroke: #0000ff; stroke-linecap: square"/>
   </g>
   <g id="line2d_67">
    <path d="M 61.614865 54.067029 
L 50.490015 56.604197 
" clip-path="url(#p0387416aba)" style="fill: none; stroke: #0000ff; stroke-linecap: square"/>
   </g>
   <g id="line2d_68">
    <path d="M 50.490015 56.604197 
L 61.614865 54.067029 
" clip-path="url(#p0387416aba)" style="fill: none; stroke: #0000ff; stroke-linecap: square"/>
   </g>
   <g id="line2d_69">
    <path d="M 54.798937 75.483508 
L 65.919455 72.947328 
" clip-path="url(#p0387416aba)" style="fill: none; stroke: #0000ff; stroke-linecap: square"/>
   </g>
   <g id="line2d_70">
    <path d="M 58.961321 93.682344 
L 70.062063 91.150674 
" clip-path="url(#p0387416aba)" style="fill: none; stroke: #0000ff; stroke-linecap: square"/>
   </g>
   <g id="line2d_71">
    <path d="M 62.569417 111.655775 
L 73.580815 109.868802 
" clip-path="url(#p0387416aba)" style="fill: none; stroke: #0000ff; stroke-linecap: square"/>
   </g>
   <g id="line2d_72">
    <path d="M 62.569417 111.655775 
L 59.328637 124.324605 
" clip-path="url(#p0387416aba)" style="fill: none; stroke: #0000ff; stroke-linecap: square"/>
   </g>
   <g id="line2d_73">
    <path d="M 55.82441 105.013213 
L 44.98457 107.160192 
" clip-path="url(#p0387416aba)" style="fill: none; stroke: #0000ff; stroke-linecap: square"/>
   </g>
   <g id="line2d_74">
    <path d="M 51.593034 85.932019 
L 40.607665 88.830913 
" clip-path="url(#p0387416aba)" style="fill: none; stroke: #0000ff; stroke-linecap: square"/>
   </g>
   <g id="line2d_75">
    <path d="M 46.743192 67.527397 
L 35.749605 70.428459 
" clip-path="url(#p0387416aba)" style="fill: none; stroke: #0000ff; stroke-linecap: square"/>
   </g>
   <g id="line2d_76">
    <path d="M 35.749605 70.428459 
L 46.743192 67.527397 
" clip-path="url(#p0387416aba)" style="fill: none; stroke: #0000ff; stroke-linecap: square"/>
   </g>
   <g id="line2d_77">
    <path d="M 40.607665 88.830913 
L 51.593034 85.932019 
" clip-path="url(#p0387416aba)" style="fill: none; stroke: #0000ff; stroke-linecap: square"/>
   </g>
   <g id="line2d_78">
    <path d="M 44.98457 107.160192 
L 55.82441 105.013213 
" clip-path="url(#p0387416aba)" style="fill: none; stroke: #0000ff; stroke-linecap: square"/>
   </g>
   <g id="line2d_79">
    <path d="M 44.98457 107.160192 
L 41.745111 119.82386 
" clip-path="url(#p0387416aba)" style="fill: none; stroke: #0000ff; stroke-linecap: square"/>
   </g>
   <g id="line2d_80">
    <path d="M 37.561619 100.17627 
L 27.107838 102.588897 
" clip-path="url(#p0387416aba)" style="fill: none; stroke: #0000ff; stroke-linecap: square"/>
   </g>
   <g id="line2d_81">
    <path d="M 27.107838 102.588897 
L 37.561619 100.17627 
" clip-path="url(#p0387416aba)" style="fill: none; stroke: #0000ff; stroke-linecap: square"/>
   </g>
   <g id="line2d_82">
    <path d="M 41.745111 119.82386 
L 44.98457 107.160192 
" clip-path="url(#p0387416aba)" style="fill: none; stroke: #0000ff; stroke-linecap: square"/>
   </g>
   <g id="line2d_83">
    <path d="M 59.328637 124.324605 
L 62.569417 111.655775 
" clip-path="url(#p0387416aba)" style="fill: none; stroke: #0000ff; stroke-linecap: square"/>
   </g>
   <g id="line2d_84">
    <path d="M 76.356598 128.67809 
L 79.596229 116.013751 
" clip-path="url(#p0387416aba)" style="fill: none; stroke: #0000ff; stroke-linecap: square"/>
   </g>
   <g id="line2d_85">
    <path d="M 92.615034 132.821799 
L 95.847309 120.186215 
" clip-path="url(#p0387416aba)" style="fill: none; stroke: #0000ff; stroke-linecap: square"/>
   </g>
   <g id="line2d_86">
    <path d="M 107.950122 136.709444 
L 111.165503 124.139904 
" clip-path="url(#p0387416aba)" style="fill: none; stroke: #0000ff; stroke-linecap: square"/>
   </g>
   <g id="line2d_87">
    <path d="M 123.82328 140.586503 
L 126.950588 128.361256 
" clip-path="url(#p0387416aba)" style="fill: none; stroke: #0000ff; stroke-linecap: square"/>
   </g>
   <g id="line2d_88">
    <path d="M 123.82328 140.586503 
L 134.48379 147.338559 
" clip-path="url(#p0387416aba)" style="fill: none; stroke: #0000ff; stroke-linecap: square"/>
   </g>
   <g id="line2d_89">
    <path d="M 118.064127 142.884387 
L 114.930676 154.294542 
" clip-path="url(#p0387416aba)" style="fill: none; stroke: #0000ff; stroke-linecap: square"/>
   </g>
   <g id="line2d_90">
    <path d="M 101.608918 138.953814 
L 99.22477 150.438029 
" clip-path="url(#p0387416aba)" style="fill: none; stroke: #0000ff; stroke-linecap: square"/>
   </g>
   <g id="line2d_91">
    <path d="M 85.279691 135.540419 
L 82.891236 147.045382 
" clip-path="url(#p0387416aba)" style="fill: none; stroke: #0000ff; stroke-linecap: square"/>
   </g>
   <g id="line2d_92">
    <path d="M 68.011034 131.948489 
L 65.623961 143.446791 
" clip-path="url(#p0387416aba)" style="fill: none; stroke: #0000ff; stroke-linecap: square"/>
   </g>
   <g id="line2d_93">
    <path d="M 50.004163 128.212084 
L 47.620805 139.692492 
" clip-path="url(#p0387416aba)" style="fill: none; stroke: #0000ff; stroke-linecap: square"/>
   </g>
   <g id="line2d_94">
    <path d="M 47.620805 139.692492 
L 50.004163 128.212084 
" clip-path="url(#p0387416aba)" style="fill: none; stroke: #0000ff; stroke-linecap: square"/>
   </g>
   <g id="line2d_95">
    <path d="M 65.623961 143.446791 
L 68.011034 131.948489 
" clip-path="url(#p0387416aba)" style="fill: none; stroke: #0000ff; stroke-linecap: square"/>
   </g>
   <g id="line2d_96">
    <path d="M 82.891236 147.045382 
L 85.279691 135.540419 
" clip-path="url(#p0387416aba)" style="fill: none; stroke: #0000ff; stroke-linecap: square"/>
   </g>
   <g id="line2d_97">
    <path d="M 99.22477 150.438029 
L 101.608918 138.953814 
" clip-path="url(#p0387416aba)" style="fill: none; stroke: #0000ff; stroke-linecap: square"/>
   </g>
   <g id="line2d_98">
    <path d="M 114.930676 154.294542 
L 118.064127 142.884387 
" clip-path="url(#p0387416aba)" style="fill: none; stroke: #0000ff; stroke-linecap: square"/>
   </g>
   <g id="line2d_99">
    <path d="M 114.930676 154.294542 
L 125.891412 161.236752 
" clip-path="url(#p0387416aba)" style="fill: none; stroke: #0000ff; stroke-linecap: square"/>
   </g>
   <g id="line2d_100">
    <path d="M 108.8908 157.112466 
L 106.436912 167.641253 
" clip-path="url(#p0387416aba)" style="fill: none; stroke: #0000ff; stroke-linecap: square"/>
   </g>
   <g id="line2d_101">
    <path d="M 91.593434 153.63267 
L 89.812815 164.31355 
" clip-path="url(#p0387416aba)" style="fill: none; stroke: #0000ff; stroke-linecap: square"/>
   </g>
   <g id="line2d_102">
    <path d="M 74.37995 150.774601 
L 72.599331 161.455482 
" clip-path="url(#p0387416aba)" style="fill: none; stroke: #0000ff; stroke-linecap: square"/>
   </g>
   <g id="line2d_103">
    <path d="M 56.268784 147.774038 
L 54.491278 158.436246 
" clip-path="url(#p0387416aba)" style="fill: none; stroke: #0000ff; stroke-linecap: square"/>
   </g>
   <g id="line2d_104">
    <path d="M 37.50717 144.662646 
L 35.733063 155.304464 
" clip-path="url(#p0387416aba)" style="fill: none; stroke: #0000ff; stroke-linecap: square"/>
   </g>
   <g id="line2d_105">
    <path d="M 35.733063 155.304464 
L 37.50717 144.662646 
" clip-path="url(#p0387416aba)" style="fill: none; stroke: #0000ff; stroke-linecap: square"/>
   </g>
   <g id="line2d_106">
    <path d="M 54.491278 158.436246 
L 56.268784 147.774038 
" clip-path="url(#p0387416aba)" style="fill: none; stroke: #0000ff; stroke-linecap: square"/>
   </g>
   <g id="line2d_107">
    <path d="M 72.599331 161.455482 
L 74.37995 150.774601 
" clip-path="url(#p0387416aba)" style="fill: none; stroke: #0000ff; stroke-linecap: square"/>
   </g>
   <g id="line2d_108">
    <path d="M 89.812815 164.31355 
L 91.593434 153.63267 
" clip-path="url(#p0387416aba)" style="fill: none; stroke: #0000ff; stroke-linecap: square"/>
   </g>
   <g id="line2d_109">
    <path d="M 106.436912 167.641253 
L 108.8908 157.112466 
" clip-path="url(#p0387416aba)" style="fill: none; stroke: #0000ff; stroke-linecap: square"/>
   </g>
   <g id="line2d_110">
    <path d="M 106.436912 167.641253 
L 117.455239 174.619939 
" clip-path="url(#p0387416aba)" style="fill: none; stroke: #0000ff; stroke-linecap: square"/>
   </g>
   <g id="line2d_111">
    <path d="M 99.540638 170.943653 
L 97.446803 181.807586 
" clip-path="url(#p0387416aba)" style="fill: none; stroke: #0000ff; stroke-linecap: square"/>
   </g>
   <g id="line2d_112">
    <path d="M 81.386709 167.960634 
L 79.973176 179.066021 
" clip-path="url(#p0387416aba)" style="fill: none; stroke: #0000ff; stroke-linecap: square"/>
   </g>
   <g id="line2d_113">
    <path d="M 63.405402 165.668966 
L 61.98951 176.792891 
" clip-path="url(#p0387416aba)" style="fill: none; stroke: #0000ff; stroke-linecap: square"/>
   </g>
   <g id="line2d_114">
    <path d="M 44.607574 163.281034 
L 43.191682 174.404958 
" clip-path="url(#p0387416aba)" style="fill: none; stroke: #0000ff; stroke-linecap: square"/>
   </g>
   <g id="line2d_115">
    <path d="M 43.191682 174.404958 
L 44.607574 163.281034 
" clip-path="url(#p0387416aba)" style="fill: none; stroke: #0000ff; stroke-linecap: square"/>
   </g>
   <g id="line2d_116">
    <path d="M 61.98951 176.792891 
L 63.405402 165.668966 
" clip-path="url(#p0387416aba)" style="fill: none; stroke: #0000ff; stroke-linecap: square"/>
   </g>
   <g id="line2d_117">
    <path d="M 79.973176 179.066021 
L 81.386709 167.960634 
" clip-path="url(#p0387416aba)" style="fill: none; stroke: #0000ff; stroke-linecap: square"/>
   </g>
   <g id="line2d_118">
    <path d="M 97.446803 181.807586 
L 99.540638 170.943653 
" clip-path="url(#p0387416aba)" style="fill: none; stroke: #0000ff; stroke-linecap: square"/>
   </g>
   <g id="line2d_119">
    <path d="M 97.446803 181.807586 
L 108.490204 188.802154 
" clip-path="url(#p0387416aba)" style="fill: none; stroke: #0000ff; stroke-linecap: square"/>
   </g>
   <g id="line2d_120">
    <path d="M 89.743745 185.629691 
L 88.040548 196.654358 
" clip-path="url(#p0387416aba)" style="fill: none; stroke: #0000ff; stroke-linecap: square"/>
   </g>
   <g id="line2d_121">
    <path d="M 70.854393 183.192003 
L 69.831836 194.531765 
" clip-path="url(#p0387416aba)" style="fill: none; stroke: #0000ff; stroke-linecap: square"/>
   </g>
   <g id="line2d_122">
    <path d="M 52.261845 181.506714 
L 51.237467 192.866678 
" clip-path="url(#p0387416aba)" style="fill: none; stroke: #0000ff; stroke-linecap: square"/>
   </g>
   <g id="line2d_123">
    <path d="M 32.975422 179.766289 
L 31.950645 191.130679 
" clip-path="url(#p0387416aba)" style="fill: none; stroke: #0000ff; stroke-linecap: square"/>
   </g>
   <g id="line2d_124">
    <path d="M 31.950645 191.130679 
L 32.975422 179.766289 
" clip-path="url(#p0387416aba)" style="fill: none; stroke: #0000ff; stroke-linecap: square"/>
   </g>
   <g id="line2d_125">
    <path d="M 51.237467 192.866678 
L 52.261845 181.506714 
" clip-path="url(#p0387416aba)" style="fill: none; stroke: #0000ff; stroke-linecap: square"/>
   </g>
   <g id="line2d_126">
    <path d="M 69.831836 194.531765 
L 70.854393 183.192003 
" clip-path="url(#p0387416aba)" style="fill: none; stroke: #0000ff; stroke-linecap: square"/>
   </g>
   <g id="line2d_127">
    <path d="M 88.040548 196.654358 
L 89.743745 185.629691 
" clip-path="url(#p0387416aba)" style="fill: none; stroke: #0000ff; stroke-linecap: square"/>
   </g>
   <g id="line2d_128">
    <path d="M 88.040548 196.654358 
L 99.087864 203.651406 
" clip-path="url(#p0387416aba)" style="fill: none; stroke: #0000ff; stroke-linecap: square"/>
   </g>
   <g id="line2d_129">
    <path d="M 79.638773 201.016576 
L 78.330977 211.98933 
" clip-path="url(#p0387416aba)" style="fill: none; stroke: #0000ff; stroke-linecap: square"/>
   </g>
   <g id="line2d_130">
    <path d="M 60.183913 199.144441 
L 59.546259 210.487955 
" clip-path="url(#p0387416aba)" style="fill: none; stroke: #0000ff; stroke-linecap: square"/>
   </g>
   <g id="line2d_131">
    <path d="M 41.181393 198.069574 
L 40.543263 209.421573 
" clip-path="url(#p0387416aba)" style="fill: none; stroke: #0000ff; stroke-linecap: square"/>
   </g>
   <g id="line2d_132">
    <path d="M 40.543263 209.421573 
L 41.181393 198.069574 
" clip-path="url(#p0387416aba)" style="fill: none; stroke: #0000ff; stroke-linecap: square"/>
   </g>
   <g id="line2d_133">
    <path d="M 59.546259 210.487955 
L 60.183913 199.144441 
" clip-path="url(#p0387416aba)" style="fill: none; stroke: #0000ff; stroke-linecap: square"/>
   </g>
   <g id="line2d_134">
    <path d="M 78.330977 211.98933 
L 79.638773 201.016576 
" clip-path="url(#p0387416aba)" style="fill: none; stroke: #0000ff; stroke-linecap: square"/>
   </g>
   <g id="line2d_135">
    <path d="M 78.330977 211.98933 
L 89.373794 218.983527 
" clip-path="url(#p0387416aba)" style="fill: none; stroke: #0000ff; stroke-linecap: square"/>
   </g>
   <g id="line2d_136">
    <path d="M 69.395055 216.890825 
L 68.459203 227.578505 
" clip-path="url(#p0387416aba)" style="fill: none; stroke: #0000ff; stroke-linecap: square"/>
   </g>
   <g id="line2d_137">
    <path d="M 68.459203 227.578505 
L 69.395055 216.890825 
" clip-path="url(#p0387416aba)" style="fill: none; stroke: #0000ff; stroke-linecap: square"/>
   </g>
   <g id="line2d_138">
    <path d="M 89.373794 218.983527 
L 78.330977 211.98933 
" clip-path="url(#p0387416aba)" style="fill: none; stroke: #0000ff; stroke-linecap: square"/>
   </g>
   <g id="line2d_139">
    <path d="M 99.087864 203.651406 
L 88.040548 196.654358 
" clip-path="url(#p0387416aba)" style="fill: none; stroke: #0000ff; stroke-linecap: square"/>
   </g>
   <g id="line2d_140">
    <path d="M 108.490204 188.802154 
L 97.446803 181.807586 
" clip-path="url(#p0387416aba)" style="fill: none; stroke: #0000ff; stroke-linecap: square"/>
   </g>
   <g id="line2d_141">
    <path d="M 117.455239 174.619939 
L 106.436912 167.641253 
" clip-path="url(#p0387416aba)" style="fill: none; stroke: #0000ff; stroke-linecap: square"/>
   </g>
   <g id="line2d_142">
    <path d="M 125.891412 161.236752 
L 114.930676 154.294542 
" clip-path="url(#p0387416aba)" style="fill: none; stroke: #0000ff; stroke-linecap: square"/>
   </g>
   <g id="line2d_143">
    <path d="M 134.48379 147.338559 
L 123.82328 140.586503 
" clip-path="url(#p0387416aba)" style="fill: none; stroke: #0000ff; stroke-linecap: square"/>
   </g>
   <g id="line2d_144">
    <path d="M 134.48379 147.338559 
L 144.199655 139.286312 
" clip-path="url(#p0387416aba)" style="fill: none; stroke: #0000ff; stroke-linecap: square"/>
   </g>
   <g id="line2d_145">
    <path d="M 134.889531 153.525924 
L 144.772943 160.031944 
" clip-path="url(#p0387416aba)" style="fill: none; stroke: #0000ff; stroke-linecap: square"/>
   </g>
   <g id="line2d_146">
    <path d="M 126.066394 167.961144 
L 136.25179 173.777421 
" clip-path="url(#p0387416aba)" style="fill: none; stroke: #0000ff; stroke-linecap: square"/>
   </g>
   <g id="line2d_147">
    <path d="M 117.774055 182.436364 
L 127.977851 188.263149 
" clip-path="url(#p0387416aba)" style="fill: none; stroke: #0000ff; stroke-linecap: square"/>
   </g>
   <g id="line2d_148">
    <path d="M 109.021618 197.749866 
L 119.219507 203.573278 
" clip-path="url(#p0387416aba)" style="fill: none; stroke: #0000ff; stroke-linecap: square"/>
   </g>
   <g id="line2d_149">
    <path d="M 99.903655 213.720806 
L 110.085675 219.535155 
" clip-path="url(#p0387416aba)" style="fill: none; stroke: #0000ff; stroke-linecap: square"/>
   </g>
   <g id="line2d_150">
    <path d="M 110.085675 219.535155 
L 99.903655 213.720806 
" clip-path="url(#p0387416aba)" style="fill: none; stroke: #0000ff; stroke-linecap: square"/>
   </g>
   <g id="line2d_151">
    <path d="M 119.219507 203.573278 
L 109.021618 197.749866 
" clip-path="url(#p0387416aba)" style="fill: none; stroke: #0000ff; stroke-linecap: square"/>
   </g>
   <g id="line2d_152">
    <path d="M 127.977851 188.263149 
L 117.774055 182.436364 
" clip-path="url(#p0387416aba)" style="fill: none; stroke: #0000ff; stroke-linecap: square"/>
   </g>
   <g id="line2d_153">
    <path d="M 136.25179 173.777421 
L 126.066394 167.961144 
" clip-path="url(#p0387416aba)" style="fill: none; stroke: #0000ff; stroke-linecap: square"/>
   </g>
   <g id="line2d_154">
    <path d="M 144.772943 160.031944 
L 134.889531 153.525924 
" clip-path="url(#p0387416aba)" style="fill: none; stroke: #0000ff; stroke-linecap: square"/>
   </g>
   <g id="line2d_155">
    <path d="M 144.772943 160.031944 
L 154.762431 151.752926 
" clip-path="url(#p0387416aba)" style="fill: none; stroke: #0000ff; stroke-linecap: square"/>
   </g>
   <g id="line2d_156">
    <path d="M 145.586524 166.646995 
L 154.841702 172.234355 
" clip-path="url(#p0387416aba)" style="fill: none; stroke: #0000ff; stroke-linecap: square"/>
   </g>
   <g id="line2d_157">
    <path d="M 136.931861 182.022451 
L 146.539741 187.016494 
" clip-path="url(#p0387416aba)" style="fill: none; stroke: #0000ff; stroke-linecap: square"/>
   </g>
   <g id="line2d_158">
    <path d="M 128.894418 197.510256 
L 138.502297 202.504298 
" clip-path="url(#p0387416aba)" style="fill: none; stroke: #0000ff; stroke-linecap: square"/>
   </g>
   <g id="line2d_159">
    <path d="M 120.444054 213.807773 
L 130.035137 218.793085 
" clip-path="url(#p0387416aba)" style="fill: none; stroke: #0000ff; stroke-linecap: square"/>
   </g>
   <g id="line2d_160">
    <path d="M 111.687286 230.689655 
L 121.260028 235.665433 
" clip-path="url(#p0387416aba)" style="fill: none; stroke: #0000ff; stroke-linecap: square"/>
   </g>
   <g id="line2d_161">
    <path d="M 121.260028 235.665433 
L 111.687286 230.689655 
" clip-path="url(#p0387416aba)" style="fill: none; stroke: #0000ff; stroke-linecap: square"/>
   </g>
   <g id="line2d_162">
    <path d="M 130.035137 218.793085 
L 120.444054 213.807773 
" clip-path="url(#p0387416aba)" style="fill: none; stroke: #0000ff; stroke-linecap: square"/>
   </g>
   <g id="line2d_163">
    <path d="M 138.502297 202.504298 
L 128.894418 197.510256 
" clip-path="url(#p0387416aba)" style="fill: none; stroke: #0000ff; stroke-linecap: square"/>
   </g>
   <g id="line2d_164">
    <path d="M 146.539741 187.016494 
L 136.931861 182.022451 
" clip-path="url(#p0387416aba)" style="fill: none; stroke: #0000ff; stroke-linecap: square"/>
   </g>
   <g id="line2d_165">
    <path d="M 154.841702 172.234355 
L 145.586524 166.646995 
" clip-path="url(#p0387416aba)" style="fill: none; stroke: #0000ff; stroke-linecap: square"/>
   </g>
   <g id="line2d_166">
    <path d="M 154.841702 172.234355 
L 164.883678 163.911836 
" clip-path="url(#p0387416aba)" style="fill: none; stroke: #0000ff; stroke-linecap: square"/>
   </g>
   <g id="line2d_167">
    <path d="M 155.851405 179.813599 
L 165.53659 185.162094 
" clip-path="url(#p0387416aba)" style="fill: none; stroke: #0000ff; stroke-linecap: square"/>
   </g>
   <g id="line2d_168">
    <path d="M 147.404513 196.157208 
L 157.529559 200.933311 
" clip-path="url(#p0387416aba)" style="fill: none; stroke: #0000ff; stroke-linecap: square"/>
   </g>
   <g id="line2d_169">
    <path d="M 139.668479 212.550283 
L 149.810425 217.334358 
" clip-path="url(#p0387416aba)" style="fill: none; stroke: #0000ff; stroke-linecap: square"/>
   </g>
   <g id="line2d_170">
    <path d="M 131.588572 229.690168 
L 141.730518 234.474243 
" clip-path="url(#p0387416aba)" style="fill: none; stroke: #0000ff; stroke-linecap: square"/>
   </g>
   <g id="line2d_171">
    <path d="M 141.730518 234.474243 
L 131.588572 229.690168 
" clip-path="url(#p0387416aba)" style="fill: none; stroke: #0000ff; stroke-linecap: square"/>
   </g>
   <g id="line2d_172">
    <path d="M 149.810425 217.334358 
L 139.668479 212.550283 
" clip-path="url(#p0387416aba)" style="fill: none; stroke: #0000ff; stroke-linecap: square"/>
   </g>
   <g id="line2d_173">
    <path d="M 157.529559 200.933311 
L 147.404513 196.157208 
" clip-path="url(#p0387416aba)" style="fill: none; stroke: #0000ff; stroke-linecap: square"/>
   </g>
   <g id="line2d_174">
    <path d="M 165.53659 185.162094 
L 155.851405 179.813599 
" clip-path="url(#p0387416aba)" style="fill: none; stroke: #0000ff; stroke-linecap: square"/>
   </g>
   <g id="line2d_175">
    <path d="M 165.53659 185.162094 
L 175.601417 176.820636 
" clip-path="url(#p0387416aba)" style="fill: none; stroke: #0000ff; stroke-linecap: square"/>
   </g>
   <g id="line2d_176">
    <path d="M 166.791251 193.669233 
L 176.750016 198.69588 
" clip-path="url(#p0387416aba)" style="fill: none; stroke: #0000ff; stroke-linecap: square"/>
   </g>
   <g id="line2d_177">
    <path d="M 158.635742 210.880788 
L 169.104509 215.357476 
" clip-path="url(#p0387416aba)" style="fill: none; stroke: #0000ff; stroke-linecap: square"/>
   </g>
   <g id="line2d_178">
    <path d="M 151.287524 228.042569 
L 161.774941 232.527232 
" clip-path="url(#p0387416aba)" style="fill: none; stroke: #0000ff; stroke-linecap: square"/>
   </g>
   <g id="line2d_179">
    <path d="M 143.672448 245.847226 
L 154.163952 250.333637 
" clip-path="url(#p0387416aba)" style="fill: none; stroke: #0000ff; stroke-linecap: square"/>
   </g>
   <g id="line2d_180">
    <path d="M 154.163952 250.333637 
L 143.672448 245.847226 
" clip-path="url(#p0387416aba)" style="fill: none; stroke: #0000ff; stroke-linecap: square"/>
   </g>
   <g id="line2d_181">
    <path d="M 161.774941 232.527232 
L 151.287524 228.042569 
" clip-path="url(#p0387416aba)" style="fill: none; stroke: #0000ff; stroke-linecap: square"/>
   </g>
   <g id="line2d_182">
    <path d="M 169.104509 215.357476 
L 158.635742 210.880788 
" clip-path="url(#p0387416aba)" style="fill: none; stroke: #0000ff; stroke-linecap: square"/>
   </g>
   <g id="line2d_183">
    <path d="M 176.750016 198.69588 
L 166.791251 193.669233 
" clip-path="url(#p0387416aba)" style="fill: none; stroke: #0000ff; stroke-linecap: square"/>
   </g>
   <g id="line2d_184">
    <path d="M 176.750016 198.69588 
L 186.818413 190.351464 
" clip-path="url(#p0387416aba)" style="fill: none; stroke: #0000ff; stroke-linecap: square"/>
   </g>
   <g id="line2d_185">
    <path d="M 178.302441 208.034441 
L 188.334018 212.668997 
" clip-path="url(#p0387416aba)" style="fill: none; stroke: #0000ff; stroke-linecap: square"/>
   </g>
   <g id="line2d_186">
    <path d="M 170.510052 225.958591 
L 181.101329 230.070375 
" clip-path="url(#p0387416aba)" style="fill: none; stroke: #0000ff; stroke-linecap: square"/>
   </g>
   <g id="line2d_187">
    <path d="M 163.615691 243.698909 
L 174.214891 247.813768 
" clip-path="url(#p0387416aba)" style="fill: none; stroke: #0000ff; stroke-linecap: square"/>
   </g>
   <g id="line2d_188">
    <path d="M 174.214891 247.813768 
L 163.615691 243.698909 
" clip-path="url(#p0387416aba)" style="fill: none; stroke: #0000ff; stroke-linecap: square"/>
   </g>
   <g id="line2d_189">
    <path d="M 181.101329 230.070375 
L 170.510052 225.958591 
" clip-path="url(#p0387416aba)" style="fill: none; stroke: #0000ff; stroke-linecap: square"/>
   </g>
   <g id="line2d_190">
    <path d="M 188.334018 212.668997 
L 178.302441 208.034441 
" clip-path="url(#p0387416aba)" style="fill: none; stroke: #0000ff; stroke-linecap: square"/>
   </g>
   <g id="line2d_191">
    <path d="M 188.334018 212.668997 
L 198.398313 204.32798 
" clip-path="url(#p0387416aba)" style="fill: none; stroke: #0000ff; stroke-linecap: square"/>
   </g>
   <g id="line2d_192">
    <path d="M 190.234265 222.68221 
L 200.109659 226.874932 
" clip-path="url(#p0387416aba)" style="fill: none; stroke: #0000ff; stroke-linecap: square"/>
   </g>
   <g id="line2d_193">
    <path d="M 200.109659 226.874932 
L 190.234265 222.68221 
" clip-path="url(#p0387416aba)" style="fill: none; stroke: #0000ff; stroke-linecap: square"/>
   </g>
   <g id="line2d_194">
    <path d="M 198.398313 204.32798 
L 188.334018 212.668997 
" clip-path="url(#p0387416aba)" style="fill: none; stroke: #0000ff; stroke-linecap: square"/>
   </g>
   <g id="line2d_195">
    <path d="M 186.818413 190.351464 
L 176.750016 198.69588 
" clip-path="url(#p0387416aba)" style="fill: none; stroke: #0000ff; stroke-linecap: square"/>
   </g>
   <g id="line2d_196">
    <path d="M 175.601417 176.820636 
L 165.53659 185.162094 
" clip-path="url(#p0387416aba)" style="fill: none; stroke: #0000ff; stroke-linecap: square"/>
   </g>
   <g id="line2d_197">
    <path d="M 164.883678 163.911836 
L 154.841702 172.234355 
" clip-path="url(#p0387416aba)" style="fill: none; stroke: #0000ff; stroke-linecap: square"/>
   </g>
   <g id="line2d_198">
    <path d="M 154.762431 151.752926 
L 144.772943 160.031944 
" clip-path="url(#p0387416aba)" style="fill: none; stroke: #0000ff; stroke-linecap: square"/>
   </g>
   <g id="line2d_199">
    <path d="M 144.199655 139.286312 
L 134.48379 147.338559 
" clip-path="url(#p0387416aba)" style="fill: none; stroke: #0000ff; stroke-linecap: square"/>
   </g>
   <g id="line2d_200">
    <path d="M 144.199655 139.286312 
L 139.54388 127.557693 
" clip-path="url(#p0387416aba)" style="fill: none; stroke: #0000ff; stroke-linecap: square"/>
   </g>
   <g id="line2d_201">
    <path d="M 150.20957 140.81243 
L 159.451305 133.423217 
" clip-path="url(#p0387416aba)" style="fill: none; stroke: #0000ff; stroke-linecap: square"/>
   </g>
   <g id="line2d_202">
    <path d="M 161.21178 153.66446 
L 169.890849 145.774901 
" clip-path="url(#p0387416aba)" style="fill: none; stroke: #0000ff; stroke-linecap: square"/>
   </g>
   <g id="line2d_203">
    <path d="M 172.416059 166.024032 
L 181.110808 158.120221 
" clip-path="url(#p0387416aba)" style="fill: none; stroke: #0000ff; stroke-linecap: square"/>
   </g>
   <g id="line2d_204">
    <path d="M 184.275413 179.080227 
L 192.965128 171.180991 
" clip-path="url(#p0387416aba)" style="fill: none; stroke: #0000ff; stroke-linecap: square"/>
   </g>
   <g id="line2d_205">
    <path d="M 196.647074 192.687216 
L 205.323266 184.800273 
" clip-path="url(#p0387416aba)" style="fill: none; stroke: #0000ff; stroke-linecap: square"/>
   </g>
   <g id="line2d_206">
    <path d="M 205.323266 184.800273 
L 196.647074 192.687216 
" clip-path="url(#p0387416aba)" style="fill: none; stroke: #0000ff; stroke-linecap: square"/>
   </g>
   <g id="line2d_207">
    <path d="M 192.965128 171.180991 
L 184.275413 179.080227 
" clip-path="url(#p0387416aba)" style="fill: none; stroke: #0000ff; stroke-linecap: square"/>
   </g>
   <g id="line2d_208">
    <path d="M 181.110808 158.120221 
L 172.416059 166.024032 
" clip-path="url(#p0387416aba)" style="fill: none; stroke: #0000ff; stroke-linecap: square"/>
   </g>
   <g id="line2d_209">
    <path d="M 169.890849 145.774901 
L 161.21178 153.66446 
" clip-path="url(#p0387416aba)" style="fill: none; stroke: #0000ff; stroke-linecap: square"/>
   </g>
   <g id="line2d_210">
    <path d="M 159.451305 133.423217 
L 150.20957 140.81243 
" clip-path="url(#p0387416aba)" style="fill: none; stroke: #0000ff; stroke-linecap: square"/>
   </g>
   <g id="line2d_211">
    <path d="M 159.451305 133.423217 
L 154.664413 121.364292 
" clip-path="url(#p0387416aba)" style="fill: none; stroke: #0000ff; stroke-linecap: square"/>
   </g>
   <g id="line2d_212">
    <path d="M 165.994002 134.693619 
L 174.167905 127.61801 
" clip-path="url(#p0387416aba)" style="fill: none; stroke: #0000ff; stroke-linecap: square"/>
   </g>
   <g id="line2d_213">
    <path d="M 177.942492 147.67597 
L 185.661107 140.081577 
" clip-path="url(#p0387416aba)" style="fill: none; stroke: #0000ff; stroke-linecap: square"/>
   </g>
   <g id="line2d_214">
    <path d="M 190.188563 160.106027 
L 197.907178 152.511635 
" clip-path="url(#p0387416aba)" style="fill: none; stroke: #0000ff; stroke-linecap: square"/>
   </g>
   <g id="line2d_215">
    <path d="M 203.077117 173.179011 
L 210.782238 165.597895 
" clip-path="url(#p0387416aba)" style="fill: none; stroke: #0000ff; stroke-linecap: square"/>
   </g>
   <g id="line2d_216">
    <path d="M 216.426751 186.72398 
L 224.117137 179.157362 
" clip-path="url(#p0387416aba)" style="fill: none; stroke: #0000ff; stroke-linecap: square"/>
   </g>
   <g id="line2d_217">
    <path d="M 224.117137 179.157362 
L 216.426751 186.72398 
" clip-path="url(#p0387416aba)" style="fill: none; stroke: #0000ff; stroke-linecap: square"/>
   </g>
   <g id="line2d_218">
    <path d="M 210.782238 165.597895 
L 203.077117 173.179011 
" clip-path="url(#p0387416aba)" style="fill: none; stroke: #0000ff; stroke-linecap: square"/>
   </g>
   <g id="line2d_219">
    <path d="M 197.907178 152.511635 
L 190.188563 160.106027 
" clip-path="url(#p0387416aba)" style="fill: none; stroke: #0000ff; stroke-linecap: square"/>
   </g>
   <g id="line2d_220">
    <path d="M 185.661107 140.081577 
L 177.942492 147.67597 
" clip-path="url(#p0387416aba)" style="fill: none; stroke: #0000ff; stroke-linecap: square"/>
   </g>
   <g id="line2d_221">
    <path d="M 174.167905 127.61801 
L 165.994002 134.693619 
" clip-path="url(#p0387416aba)" style="fill: none; stroke: #0000ff; stroke-linecap: square"/>
   </g>
   <g id="line2d_222">
    <path d="M 174.167905 127.61801 
L 169.35586 115.495724 
" clip-path="url(#p0387416aba)" style="fill: none; stroke: #0000ff; stroke-linecap: square"/>
   </g>
   <g id="line2d_223">
    <path d="M 181.68821 128.999841 
L 189.767817 121.441459 
" clip-path="url(#p0387416aba)" style="fill: none; stroke: #0000ff; stroke-linecap: square"/>
   </g>
   <g id="line2d_224">
    <path d="M 194.621673 142.083766 
L 202.292827 133.930172 
" clip-path="url(#p0387416aba)" style="fill: none; stroke: #0000ff; stroke-linecap: square"/>
   </g>
   <g id="line2d_225">
    <path d="M 207.821847 154.50691 
L 215.505806 146.339707 
" clip-path="url(#p0387416aba)" style="fill: none; stroke: #0000ff; stroke-linecap: square"/>
   </g>
   <g id="line2d_226">
    <path d="M 221.626017 167.487874 
L 229.309977 159.320671 
" clip-path="url(#p0387416aba)" style="fill: none; stroke: #0000ff; stroke-linecap: square"/>
   </g>
   <g id="line2d_227">
    <path d="M 229.309977 159.320671 
L 221.626017 167.487874 
" clip-path="url(#p0387416aba)" style="fill: none; stroke: #0000ff; stroke-linecap: square"/>
   </g>
   <g id="line2d_228">
    <path d="M 215.505806 146.339707 
L 207.821847 154.50691 
" clip-path="url(#p0387416aba)" style="fill: none; stroke: #0000ff; stroke-linecap: square"/>
   </g>
   <g id="line2d_229">
    <path d="M 202.292827 133.930172 
L 194.621673 142.083766 
" clip-path="url(#p0387416aba)" style="fill: none; stroke: #0000ff; stroke-linecap: square"/>
   </g>
   <g id="line2d_230">
    <path d="M 189.767817 121.441459 
L 181.68821 128.999841 
" clip-path="url(#p0387416aba)" style="fill: none; stroke: #0000ff; stroke-linecap: square"/>
   </g>
   <g id="line2d_231">
    <path d="M 189.767817 121.441459 
L 184.944822 109.291587 
" clip-path="url(#p0387416aba)" style="fill: none; stroke: #0000ff; stroke-linecap: square"/>
   </g>
   <g id="line2d_232">
    <path d="M 198.246299 122.877056 
L 206.104352 114.959027 
" clip-path="url(#p0387416aba)" style="fill: none; stroke: #0000ff; stroke-linecap: square"/>
   </g>
   <g id="line2d_233">
    <path d="M 212.09527 135.952069 
L 219.58788 127.379053 
" clip-path="url(#p0387416aba)" style="fill: none; stroke: #0000ff; stroke-linecap: square"/>
   </g>
   <g id="line2d_234">
    <path d="M 226.146369 148.243922 
L 233.652327 139.655632 
" clip-path="url(#p0387416aba)" style="fill: none; stroke: #0000ff; stroke-linecap: square"/>
   </g>
   <g id="line2d_235">
    <path d="M 240.726416 160.98823 
L 248.235299 152.396595 
" clip-path="url(#p0387416aba)" style="fill: none; stroke: #0000ff; stroke-linecap: square"/>
   </g>
   <g id="line2d_236">
    <path d="M 248.235299 152.396595 
L 240.726416 160.98823 
" clip-path="url(#p0387416aba)" style="fill: none; stroke: #0000ff; stroke-linecap: square"/>
   </g>
   <g id="line2d_237">
    <path d="M 233.652327 139.655632 
L 226.146369 148.243922 
" clip-path="url(#p0387416aba)" style="fill: none; stroke: #0000ff; stroke-linecap: square"/>
   </g>
   <g id="line2d_238">
    <path d="M 219.58788 127.379053 
L 212.09527 135.952069 
" clip-path="url(#p0387416aba)" style="fill: none; stroke: #0000ff; stroke-linecap: square"/>
   </g>
   <g id="line2d_239">
    <path d="M 206.104352 114.959027 
L 198.246299 122.877056 
" clip-path="url(#p0387416aba)" style="fill: none; stroke: #0000ff; stroke-linecap: square"/>
   </g>
   <g id="line2d_240">
    <path d="M 206.104352 114.959027 
L 201.279647 102.804846 
" clip-path="url(#p0387416aba)" style="fill: none; stroke: #0000ff; stroke-linecap: square"/>
   </g>
   <g id="line2d_241">
    <path d="M 215.465577 116.368357 
L 222.973229 108.259916 
" clip-path="url(#p0387416aba)" style="fill: none; stroke: #0000ff; stroke-linecap: square"/>
   </g>
   <g id="line2d_242">
    <path d="M 230.104476 129.318227 
L 237.287899 120.515934 
" clip-path="url(#p0387416aba)" style="fill: none; stroke: #0000ff; stroke-linecap: square"/>
   </g>
   <g id="line2d_243">
    <path d="M 244.846047 141.357213 
L 252.034843 132.548336 
" clip-path="url(#p0387416aba)" style="fill: none; stroke: #0000ff; stroke-linecap: square"/>
   </g>
   <g id="line2d_244">
    <path d="M 252.034843 132.548336 
L 244.846047 141.357213 
" clip-path="url(#p0387416aba)" style="fill: none; stroke: #0000ff; stroke-linecap: square"/>
   </g>
   <g id="line2d_245">
    <path d="M 237.287899 120.515934 
L 230.104476 129.318227 
" clip-path="url(#p0387416aba)" style="fill: none; stroke: #0000ff; stroke-linecap: square"/>
   </g>
   <g id="line2d_246">
    <path d="M 222.973229 108.259916 
L 215.465577 116.368357 
" clip-path="url(#p0387416aba)" style="fill: none; stroke: #0000ff; stroke-linecap: square"/>
   </g>
   <g id="line2d_247">
    <path d="M 222.973229 108.259916 
L 218.150489 96.110687 
" clip-path="url(#p0387416aba)" style="fill: none; stroke: #0000ff; stroke-linecap: square"/>
   </g>
   <g id="line2d_248">
    <path d="M 233.083569 109.546927 
L 240.122749 101.450492 
" clip-path="url(#p0387416aba)" style="fill: none; stroke: #0000ff; stroke-linecap: square"/>
   </g>
   <g id="line2d_249">
    <path d="M 240.122749 101.450492 
L 233.083569 109.546927 
" clip-path="url(#p0387416aba)" style="fill: none; stroke: #0000ff; stroke-linecap: square"/>
   </g>
   <g id="line2d_250">
    <path d="M 218.150489 96.110687 
L 222.973229 108.259916 
" clip-path="url(#p0387416aba)" style="fill: none; stroke: #0000ff; stroke-linecap: square"/>
   </g>
   <g id="line2d_251">
    <path d="M 201.279647 102.804846 
L 206.104352 114.959027 
" clip-path="url(#p0387416aba)" style="fill: none; stroke: #0000ff; stroke-linecap: square"/>
   </g>
   <g id="line2d_252">
    <path d="M 184.944822 109.291587 
L 189.767817 121.441459 
" clip-path="url(#p0387416aba)" style="fill: none; stroke: #0000ff; stroke-linecap: square"/>
   </g>
   <g id="line2d_253">
    <path d="M 169.35586 115.495724 
L 174.167905 127.61801 
" clip-path="url(#p0387416aba)" style="fill: none; stroke: #0000ff; stroke-linecap: square"/>
   </g>
   <g id="line2d_254">
    <path d="M 154.664413 121.364292 
L 159.451305 133.423217 
" clip-path="url(#p0387416aba)" style="fill: none; stroke: #0000ff; stroke-linecap: square"/>
   </g>
   <g id="line2d_255">
    <path d="M 139.54388 127.557693 
L 144.199655 139.286312 
" clip-path="url(#p0387416aba)" style="fill: none; stroke: #0000ff; stroke-linecap: square"/>
   </g>
   <g id="line2d_256">
    <path d="M 139.54388 127.557693 
L 126.950588 128.361256 
" clip-path="url(#p0387416aba)" style="fill: none; stroke: #0000ff; stroke-linecap: square"/>
   </g>
   <g id="line2d_257">
    <path d="M 142.852471 122.313521 
L 138.680765 111.240716 
" clip-path="url(#p0387416aba)" style="fill: none; stroke: #0000ff; stroke-linecap: square"/>
   </g>
   <g id="line2d_258">
    <path d="M 158.475347 115.821293 
L 153.653911 105.129001 
" clip-path="url(#p0387416aba)" style="fill: none; stroke: #0000ff; stroke-linecap: square"/>
   </g>
   <g id="line2d_259">
    <path d="M 173.692312 108.984708 
L 168.862166 98.273099 
" clip-path="url(#p0387416aba)" style="fill: none; stroke: #0000ff; stroke-linecap: square"/>
   </g>
   <g id="line2d_260">
    <path d="M 189.774233 101.740379 
L 184.946883 91.034971 
" clip-path="url(#p0387416aba)" style="fill: none; stroke: #0000ff; stroke-linecap: square"/>
   </g>
   <g id="line2d_261">
    <path d="M 206.538302 94.179021 
L 201.718464 83.490272 
" clip-path="url(#p0387416aba)" style="fill: none; stroke: #0000ff; stroke-linecap: square"/>
   </g>
   <g id="line2d_262">
    <path d="M 201.718464 83.490272 
L 206.538302 94.179021 
" clip-path="url(#p0387416aba)" style="fill: none; stroke: #0000ff; stroke-linecap: square"/>
   </g>
   <g id="line2d_263">
    <path d="M 184.946883 91.034971 
L 189.774233 101.740379 
" clip-path="url(#p0387416aba)" style="fill: none; stroke: #0000ff; stroke-linecap: square"/>
   </g>
   <g id="line2d_264">
    <path d="M 168.862166 98.273099 
L 173.692312 108.984708 
" clip-path="url(#p0387416aba)" style="fill: none; stroke: #0000ff; stroke-linecap: square"/>
   </g>
   <g id="line2d_265">
    <path d="M 153.653911 105.129001 
L 158.475347 115.821293 
" clip-path="url(#p0387416aba)" style="fill: none; stroke: #0000ff; stroke-linecap: square"/>
   </g>
   <g id="line2d_266">
    <path d="M 138.680765 111.240716 
L 142.852471 122.313521 
" clip-path="url(#p0387416aba)" style="fill: none; stroke: #0000ff; stroke-linecap: square"/>
   </g>
   <g id="line2d_267">
    <path d="M 138.680765 111.240716 
L 125.732815 112.066909 
" clip-path="url(#p0387416aba)" style="fill: none; stroke: #0000ff; stroke-linecap: square"/>
   </g>
   <g id="line2d_268">
    <path d="M 141.910793 105.410817 
L 137.707365 95.450491 
" clip-path="url(#p0387416aba)" style="fill: none; stroke: #0000ff; stroke-linecap: square"/>
   </g>
   <g id="line2d_269">
    <path d="M 157.950029 98.058895 
L 153.112516 88.37126 
" clip-path="url(#p0387416aba)" style="fill: none; stroke: #0000ff; stroke-linecap: square"/>
   </g>
   <g id="line2d_270">
    <path d="M 173.555961 90.253289 
L 168.718447 80.565654 
" clip-path="url(#p0387416aba)" style="fill: none; stroke: #0000ff; stroke-linecap: square"/>
   </g>
   <g id="line2d_271">
    <path d="M 189.971889 82.035319 
L 185.142832 72.36462 
" clip-path="url(#p0387416aba)" style="fill: none; stroke: #0000ff; stroke-linecap: square"/>
   </g>
   <g id="line2d_272">
    <path d="M 206.979184 73.524688 
L 202.159363 63.872483 
" clip-path="url(#p0387416aba)" style="fill: none; stroke: #0000ff; stroke-linecap: square"/>
   </g>
   <g id="line2d_273">
    <path d="M 202.159363 63.872483 
L 206.979184 73.524688 
" clip-path="url(#p0387416aba)" style="fill: none; stroke: #0000ff; stroke-linecap: square"/>
   </g>
   <g id="line2d_274">
    <path d="M 185.142832 72.36462 
L 189.971889 82.035319 
" clip-path="url(#p0387416aba)" style="fill: none; stroke: #0000ff; stroke-linecap: square"/>
   </g>
   <g id="line2d_275">
    <path d="M 168.718447 80.565654 
L 173.555961 90.253289 
" clip-path="url(#p0387416aba)" style="fill: none; stroke: #0000ff; stroke-linecap: square"/>
   </g>
   <g id="line2d_276">
    <path d="M 153.112516 88.37126 
L 157.950029 98.058895 
" clip-path="url(#p0387416aba)" style="fill: none; stroke: #0000ff; stroke-linecap: square"/>
   </g>
   <g id="line2d_277">
    <path d="M 137.707365 95.450491 
L 141.910793 105.410817 
" clip-path="url(#p0387416aba)" style="fill: none; stroke: #0000ff; stroke-linecap: square"/>
   </g>
   <g id="line2d_278">
    <path d="M 137.707365 95.450491 
L 124.691382 96.281025 
" clip-path="url(#p0387416aba)" style="fill: none; stroke: #0000ff; stroke-linecap: square"/>
   </g>
   <g id="line2d_279">
    <path d="M 141.345466 88.725265 
L 136.653753 78.705433 
" clip-path="url(#p0387416aba)" style="fill: none; stroke: #0000ff; stroke-linecap: square"/>
   </g>
   <g id="line2d_280">
    <path d="M 157.785677 80.467966 
L 152.401666 70.652665 
" clip-path="url(#p0387416aba)" style="fill: none; stroke: #0000ff; stroke-linecap: square"/>
   </g>
   <g id="line2d_281">
    <path d="M 173.679868 71.752817 
L 168.28687 61.921133 
" clip-path="url(#p0387416aba)" style="fill: none; stroke: #0000ff; stroke-linecap: square"/>
   </g>
  </g>
 </g>
 <defs>
  <clipPath id="p0387416aba">
   <rect x="7.2" y="7.2" width="265.093826" height="266.4"/>
  </clipPath>
 </defs>
</svg>
