  0
SECTION
  2
HEADER
  9
$ACADVER
  1
AC1014
  9
$HANDSEED
  5
FFFF
  9
$MEASUREMENT
 70
     1
  0
ENDSEC
  0
SECTION
  2
TABLES
  0
TABLE
  2
VPORT
  5
8
330
0
100
AcDbSymbolTable
 70
     4
  0
VPORT
  5
2E
330
8
100
AcDbSymbolTableRecord
100
AcDbViewportTableRecord
  2
*ACTIVE
 70
     0
 10
0.0
 20
0.0
 11
1.0
 21
1.0
 12
210.0
 22
148.5
 13
0.0
 23
0.0
 14
10.0
 24
10.0
 15
10.0
 25
10.0
 16
0.0
 26
0.0
 36
1.0
 17
0.0
 27
0.0
 37
0.0
 40
341.0
 41
1.24
 42
50.0
 43
0.0
 44
0.0
 50
0.0
 51
0.0
 71
     0
 72
   100
 73
     1
 74
     3
 75
     0
 76
     0
 77
     0
 78
     0
  0
ENDTAB
  0
TABLE
  2
LTYPE
  5
5
330
0
100
AcDbSymbolTable
 70
     1
  0
LTYPE
  5
14
330
5
100
AcDbSymbolTableRecord
100
AcDbLinetypeTableRecord
  2
BYBLOCK
 70
     0
  3

 72
    65
 73
     0
 40
0.0
  0
LTYPE
  5
15
330
5
100
AcDbSymbolTableRecord
100
AcDbLinetypeTableRecord
  2
BYLAYER
 70
     0
  3

 72
    65
 73
     0
 40
0.0
  0
LTYPE
  5
16
330
5
100
AcDbSymbolTableRecord
100
AcDbLinetypeTableRecord
  2
CONTINUOUS
 70
     0
  3
Solid line
 72
    65
 73
     0
 40
0.0
  0
ENDTAB
  0
TABLE
  2
LAYER
  5
2
100
AcDbSymbolTable
 70
1
  0
LAYER
  5
50
100
AcDbSymbolTableRecord
100
AcDbLayerTableRecord
  2
0
 70
0
  6
CONTINUOUS
  0
ENDTAB
  0
TABLE
  2
STYLE
  5
3
330
0
100
AcDbSymbolTable
 70
     1
  0
STYLE
  5
11
330
3
100
AcDbSymbolTableRecord
100
AcDbTextStyleTableRecord
  2
STANDARD
 70
     0
 40
0.0
 41
1.0
 50
0.0
 71
     0
 42
2.5
  3
txt
  4

  0
ENDTAB
  0
TABLE
  2
VIEW
  5
6
330
0
100
AcDbSymbolTable
 70
     0
  0
ENDTAB
  0
TABLE
  2
UCS
  5
7
330
0
100
AcDbSymbolTable
 70
     0
  0
ENDTAB
  0
TABLE
  2
APPID
  5
9
330
0
100
AcDbSymbolTable
 70
     2
  0
APPID
  5
12
330
9
100
AcDbSymbolTableRecord
100
AcDbRegAppTableRecord
  2
ACAD
 70
     0
  0
ENDTAB
  0
TABLE
  2
DIMSTYLE
  5
A
330
0
100
AcDbSymbolTable
 70
     1
  0
DIMSTYLE
105
27
330
A
100
AcDbSymbolTableRecord
100
AcDbDimStyleTableRecord
  2
ISO-25
 70
     0
  3

  4

  5

  6

  7

 40
1.0
 41
2.5
 42
0.625
 43
3.75
 44
1.25
 45
0.0
 46
0.0
 47
0.0
 48
0.0
140
2.5
141
2.5
142
0.0
143
0.03937007874016
144
1.0
145
0.0
146
1.0
147
0.625
 71
     0
 72
     0
 73
     0
 74
     0
 75
     0
 76
     0
 77
     1
 78
     8
170
     0
171
     3
172
     1
173
     0
174
     0
175
     0
176
     0
177
     0
178
     0
270
     2
271
     2
272
     2
273
     2
274
     3
340
11
275
     0
280
     0
281
     0
282
     0
283
     0
284
     8
285
     0
286
     0
287
     3
288
     0
  0
ENDTAB
  0
TABLE
  2
BLOCK_RECORD
  5
1
330
0
100
AcDbSymbolTable
 70
     1
  0
BLOCK_RECORD
  5
1F
330
1
100
AcDbSymbolTableRecord
100
AcDbBlockTableRecord
  2
*MODEL_SPACE
  0
BLOCK_RECORD
  5
1B
330
1
100
AcDbSymbolTableRecord
100
AcDbBlockTableRecord
  2
*PAPER_SPACE
  0
ENDTAB
  0
ENDSEC
  0
SECTION
  2
BLOCKS
  0
BLOCK
  5
20
330
1F
100
AcDbEntity
  8
0
100
AcDbBlockBegin
  2
*MODEL_SPACE
 70
     0
 10
0.0
 20
0.0
 30
0.0
  3
*MODEL_SPACE
  1

  0
ENDBLK
  5
21
330
1F
100
AcDbEntity
  8
0
100
AcDbBlockEnd
  0
BLOCK
  5
1C
330
1B
100
AcDbEntity
 67
     1
  8
0
100
AcDbBlockBegin
  2
*PAPER_SPACE
  1

  0
ENDBLK
  5
1D
330
1B
100
AcDbEntity
 67
     1
  8
0
100
AcDbBlockEnd
  0
ENDSEC
  0
SECTION
  2
ENTITIES
  0
SPLINE
  5
100
100
AcDbEntity
  8
0
 62
5
100
AcDbSpline
 70
0
 71
3
 72
10
 73
6
 74
4
 40
0.000000
 40
0.000000
 40
0.000000
 40
0.000000
 40
85.646583
 40
170.031107
 40
255.015843
 40
255.015843
 40
255.015843
 40
255.015843
 10
237.854421
 20
1276.270546
 30
0.0
 10
209.391127
 20
1272.995150
 30
0.0
 10
152.883964
 20
1266.492621
 30
0.0
 10
74.838722
 20
1223.949750
 30
0.0
 10
44.351859
 20
1175.554111
 30
0.0
 10
29.054408
 20
1151.270539
 30
0.0
 11
237.854421
 21
1276.270546
 31
0.0
 11
153.598870
 21
1260.897213
 31
0.0
 11
80.321412
 21
1219.050326
 31
0.0
 11
29.054408
 21
1151.270539
 31
0.0
  0
LINE
  5
101
100
AcDbEntity
  8
0
 62
5
100
AcDbLine
 10
44.454408
 20
1005.270529
 30
0.0
 11
46.454409
 21
1002.870529
 31
0.0
  0
SPLINE
  5
102
100
AcDbEntity
  8
0
 62
5
100
AcDbSpline
 70
0
 71
3
 72
10
 73
6
 74
4
 40
0.000000
 40
0.000000
 40
0.000000
 40
0.000000
 40
51.432732
 40
102.743460
 40
153.972105
 40
153.972105
 40
153.972105
 40
153.972105
 10
29.054408
 20
1151.270539
 30
0.0
 10
23.535649
 20
1134.966437
 30
0.0
 10
12.511223
 20
1102.396909
 30
0.0
 10
16.158592
 20
1048.791627
 30
0.0
 10
35.027505
 20
1019.769818
 30
0.0
 10
44.454408
 20
1005.270529
 30
0.0
 11
29.054408
 21
1151.270539
 31
0.0
 11
15.870694
 21
1101.556198
 31
0.0
 11
20.277096
 21
1050.435024
 31
0.0
 11
44.454408
 21
1005.270529
 31
0.0
  0
SPLINE
  5
103
100
AcDbEntity
  8
0
 62
5
100
AcDbSpline
 70
0
 71
3
 72
10
 73
6
 74
4
 40
0.000000
 40
0.000000
 40
0.000000
 40
0.000000
 40
44.339994
 40
88.192820
 40
130.930611
 40
130.930611
 40
130.930611
 40
130.930611
 10
46.454409
 20
1002.870529
 30
0.0
 10
57.908444
 20
993.368344
 30
0.0
 10
80.690669
 20
974.468375
 30
0.0
 10
131.415474
 20
972.484327
 30
0.0
 10
148.180061
 20
998.185447
 30
0.0
 10
156.454415
 20
1010.870530
 30
0.0
 11
46.454409
 21
1002.870529
 31
0.0
 11
83.694352
 21
978.803503
 31
0.0
 11
127.543177
 21
979.395792
 31
0.0
 11
156.454415
 21
1010.870530
 31
0.0
  0
SPLINE
  5
104
100
AcDbEntity
  8
0
 62
5
100
AcDbSpline
 70
0
 71
3
 72
10
 73
6
 74
4
 40
0.000000
 40
0.000000
 40
0.000000
 40
0.000000
 40
41.118641
 40
81.762631
 40
123.363012
 40
123.363012
 40
123.363012
 40
123.363012
 10
156.454415
 20
1010.870530
 30
0.0
 10
159.802504
 20
1024.763259
 30
0.0
 10
166.460031
 20
1052.388347
 30
0.0
 10
207.967486
 20
1073.073451
 30
0.0
 10
235.253012
 20
1068.024410
 30
0.0
 10
249.054421
 20
1065.470533
 30
0.0
 11
156.454415
 21
1010.870530
 31
0.0
 11
171.772587
 21
1049.029359
 31
0.0
 11
207.551203
 21
1068.312112
 31
0.0
 11
249.054421
 21
1065.470533
 31
0.0
  0
SPLINE
  5
105
100
AcDbEntity
  8
0
 62
5
100
AcDbSpline
 70
0
 71
3
 72
10
 73
6
 74
4
 40
0.000000
 40
0.000000
 40
0.000000
 40
0.000000
 40
86.570109
 40
174.305177
 40
262.157300
 40
262.157300
 40
262.157300
 40
262.157300
 10
249.054421
 20
1065.470533
 30
0.0
 10
274.848658
 20
1051.127393
 30
0.0
 10
326.784239
 20
1022.248099
 30
0.0
 10
365.491454
 20
938.469905
 30
0.0
 10
371.465443
 20
880.349897
 30
0.0
 10
374.454429
 20
851.270520
 30
0.0
 11
249.054421
 21
1065.470533
 31
0.0
 11
319.974483
 21
1015.824500
 31
0.0
 11
360.493006
 21
938.006177
 31
0.0
 11
374.454429
 21
851.270520
 31
0.0
  0
SPLINE
  5
106
100
AcDbEntity
  8
0
 62
5
100
AcDbSpline
 70
0
 71
3
 72
10
 73
6
 74
4
 40
0.000000
 40
0.000000
 40
0.000000
 40
0.000000
 40
165.664613
 40
332.131708
 40
498.623947
 40
498.623947
 40
498.623947
 40
498.623947
 10
374.454429
 20
851.270520
 30
0.0
 10
369.774446
 20
795.871015
 30
0.0
 10
360.391810
 20
684.803650
 30
0.0
 10
292.661727
 20
530.903647
 30
0.0
 10
241.058154
 20
432.884010
 30
0.0
 10
215.254419
 20
383.870491
 30
0.0
 11
374.454429
 21
851.270520
 31
0.0
 11
351.524560
 21
687.200458
 31
0.0
 11
291.071289
 21
532.098247
 31
0.0
 11
215.254419
 21
383.870491
 31
0.0
  0
LINE
  5
107
100
AcDbEntity
  8
0
 62
5
100
AcDbLine
 10
210.454419
 20
375.070490
 30
0.0
 11
311.454425
 21
324.270487
 31
0.0
  0
LINE
  5
108
100
AcDbEntity
  8
0
 62
5
100
AcDbLine
 10
311.454425
 20
324.270487
 30
0.0
 11
412.454431
 21
273.470484
 31
0.0
  0
SPLINE
  5
109
100
AcDbEntity
  8
0
 62
5
100
AcDbSpline
 70
0
 71
3
 72
10
 73
6
 74
4
 40
0.000000
 40
0.000000
 40
0.000000
 40
0.000000
 40
3.335675
 40
6.684370
 40
10.023995
 40
10.023995
 40
10.023995
 40
10.023995
 10
215.254419
 20
383.870491
 30
0.0
 10
214.724612
 20
382.892933
 30
0.0
 10
213.662931
 20
380.934003
 30
0.0
 10
212.045303
 20
378.010302
 30
0.0
 10
210.984234
 20
376.049541
 30
0.0
 10
210.454419
 20
375.070490
 30
0.0
 11
215.254419
 21
383.870491
 31
0.0
 11
213.660762
 21
380.940134
 31
0.0
 11
212.048417
 21
378.005156
 31
0.0
 11
210.454419
 21
375.070490
 31
0.0
  0
SPLINE
  5
10a
100
AcDbEntity
  8
0
 62
5
100
AcDbSpline
 70
0
 71
3
 72
10
 73
6
 74
4
 40
0.000000
 40
0.000000
 40
0.000000
 40
0.000000
 40
31.944312
 40
63.811026
 40
95.537778
 40
95.537778
 40
95.537778
 40
95.537778
 10
412.454431
 20
273.470484
 30
0.0
 10
417.442893
 20
282.877777
 30
0.0
 10
427.407698
 20
301.669512
 30
0.0
 10
442.132484
 20
329.907664
 30
0.0
 10
451.687461
 20
348.830096
 30
0.0
 10
456.454434
 20
358.270489
 30
0.0
 11
412.454431
 21
273.470484
 31
0.0
 11
427.387258
 21
301.709637
 31
0.0
 11
442.092189
 21
329.980691
 31
0.0
 11
456.454434
 21
358.270489
 31
0.0
  0
SPLINE
  5
10b
100
AcDbEntity
  8
0
 62
5
100
AcDbSpline
 70
0
 71
3
 72
10
 73
6
 74
4
 40
0.000000
 40
0.000000
 40
0.000000
 40
0.000000
 40
198.155420
 40
396.072139
 40
593.388836
 40
593.388836
 40
593.388836
 40
593.388836
 10
456.454434
 20
358.270489
 30
0.0
 10
485.532348
 20
417.499452
 30
0.0
 10
543.653148
 20
535.886031
 30
0.0
 10
601.969091
 20
728.276754
 30
0.0
 10
594.555574
 20
860.739634
 30
0.0
 10
590.854443
 20
926.870525
 30
0.0
 11
456.454434
 21
358.270489
 31
0.0
 11
538.883296
 21
538.467751
 31
0.0
 11
590.429042
 21
729.554286
 31
0.0
 11
590.854443
 21
926.870525
 31
0.0
  0
SPLINE
  5
10c
100
AcDbEntity
  8
0
 62
5
100
AcDbSpline
 70
0
 71
3
 72
10
 73
6
 74
4
 40
0.000000
 40
0.000000
 40
0.000000
 40
0.000000
 40
151.231880
 40
302.113108
 40
452.544051
 40
452.544051
 40
452.544051
 40
452.544051
 10
590.854443
 20
926.870525
 30
0.0
 10
578.593188
 20
975.940866
 30
0.0
 10
554.099109
 20
1073.967772
 30
0.0
 10
461.125239
 20
1201.625165
 30
0.0
 10
368.365156
 20
1243.542966
 30
0.0
 10
322.054426
 20
1264.470546
 30
0.0
 11
590.854443
 21
926.870525
 31
0.0
 11
544.655314
 21
1070.873032
 31
0.0
 11
453.295565
 21
1190.950261
 31
0.0
 11
322.054426
 21
1264.470546
 31
0.0
  0
LINE
  5
10d
100
AcDbEntity
  8
0
 62
5
100
AcDbLine
 10
237.854421
 20
1276.270546
 30
0.0
 11
237.854421
 21
1276.270546
 31
0.0
  0
SPLINE
  5
10e
100
AcDbEntity
  8
0
 62
5
100
AcDbSpline
 70
0
 71
3
 72
10
 73
6
 74
4
 40
0.000000
 40
0.000000
 40
0.000000
 40
0.000000
 40
28.251255
 40
56.728333
 40
85.358857
 40
85.358857
 40
85.358857
 40
85.358857
 10
322.054426
 20
1264.470546
 30
0.0
 10
312.974227
 20
1266.990551
 30
0.0
 10
294.741249
 20
1272.050704
 30
0.0
 10
266.449562
 20
1275.993683
 30
0.0
 10
247.403194
 20
1276.178093
 30
0.0
 10
237.854421
 20
1276.270546
 30
0.0
 11
322.054426
 21
1264.470546
 31
0.0
 11
294.672638
 21
1271.425481
 31
0.0
 11
266.470982
 21
1275.376497
 31
0.0
 11
237.854421
 21
1276.270546
 31
0.0
  0
LINE
  5
10f
100
AcDbEntity
  8
0
 62
7
100
AcDbLine
 10
15.854409
 20
1157.270536
 30
0.0
 11
16.054089
 21
1157.270536
 31
0.0
  0
SPLINE
  5
110
100
AcDbEntity
  8
0
 62
7
100
AcDbSpline
 70
0
 71
3
 72
10
 73
6
 74
4
 40
0.000000
 40
0.000000
 40
0.000000
 40
0.000000
 40
90.447967
 40
180.117439
 40
271.081330
 40
271.081330
 40
271.081330
 40
271.081330
 10
237.454424
 20
1290.670549
 30
0.0
 10
207.394301
 20
1287.202964
 30
0.0
 10
147.532786
 20
1280.297639
 30
0.0
 10
64.637612
 20
1234.944730
 30
0.0
 10
32.192976
 20
1183.285331
 30
0.0
 10
15.854409
 20
1157.270536
 30
0.0
 11
237.454424
 21
1290.670549
 31
0.0
 11
148.480062
 21
1274.410238
 31
0.0
 11
70.650079
 21
1229.878139
 31
0.0
 11
15.854409
 21
1157.270536
 31
0.0
  0
SPLINE
  5
111
100
AcDbEntity
  8
0
 62
7
100
AcDbSpline
 70
0
 71
3
 72
10
 73
6
 74
4
 40
0.000000
 40
0.000000
 40
0.000000
 40
0.000000
 40
56.381933
 40
112.892290
 40
170.127776
 40
170.127776
 40
170.127776
 40
170.127776
 10
16.054089
 20
1157.270536
 30
0.0
 10
9.971158
 20
1139.405826
 30
0.0
 10
-2.208560
 20
1103.635714
 30
0.0
 10
1.876983
 20
1044.400548
 30
0.0
 10
22.883749
 20
1012.248857
 30
0.0
 10
33.454090
 20
996.070528
 30
0.0
 11
16.054089
 21
1157.270536
 31
0.0
 11
1.519525
 21
1102.794222
 31
0.0
 11
6.370306
 21
1046.492442
 31
0.0
 11
33.454090
 21
996.070528
 31
0.0
  0
LINE
  5
112
100
AcDbEntity
  8
0
 62
7
100
AcDbLine
 10
33.653770
 20
995.870848
 30
0.0
 11
35.053770
 21
994.070848
 31
0.0
  0
SPLINE
  5
113
100
AcDbEntity
  8
0
 62
7
100
AcDbSpline
 70
0
 71
3
 72
10
 73
6
 74
4
 40
0.000000
 40
0.000000
 40
0.000000
 40
0.000000
 40
0.094739
 40
0.188302
 40
0.282446
 40
0.282446
 40
0.282446
 40
0.282446
 10
33.454090
 20
996.070528
 30
0.0
 10
33.475886
 20
996.047662
 30
0.0
 10
33.519208
 20
996.002212
 30
0.0
 10
33.589447
 20
995.939382
 30
0.0
 10
33.632285
 20
995.893740
 30
0.0
 10
33.653770
 20
995.870848
 30
0.0
 11
33.454090
 21
996.070528
 31
0.0
 11
33.520366
 21
996.002830
 31
0.0
 11
33.588348
 21
995.938546
 31
0.0
 11
33.653770
 21
995.870848
 31
0.0
  0
SPLINE
  5
114
100
AcDbEntity
  8
0
 62
7
100
AcDbSpline
 70
0
 71
3
 72
10
 73
6
 74
4
 40
0.000000
 40
0.000000
 40
0.000000
 40
0.000000
 40
0.188676
 40
0.377143
 40
0.566097
 40
0.566097
 40
0.566097
 40
0.566097
 10
35.053770
 20
994.070848
 30
0.0
 10
35.095715
 20
994.023857
 30
0.0
 10
35.179558
 20
993.929927
 30
0.0
 10
35.327067
 20
993.811157
 30
0.0
 10
35.411500
 20
993.717658
 30
0.0
 10
35.453770
 20
993.670848
 30
0.0
 11
35.053770
 21
994.070848
 31
0.0
 11
35.183216
 21
993.933580
 31
0.0
 11
35.323471
 21
993.807689
 31
0.0
 11
35.453770
 21
993.670848
 31
0.0
  0
SPLINE
  5
115
100
AcDbEntity
  8
0
 62
7
100
AcDbSpline
 70
0
 71
3
 72
10
 73
6
 74
4
 40
0.000000
 40
0.000000
 40
0.000000
 40
0.000000
 40
26.762429
 40
53.520336
 40
80.228990
 40
80.228990
 40
80.228990
 40
80.228990
 10
35.453770
 20
993.670848
 30
0.0
 10
41.733525
 20
987.252415
 30
0.0
 10
54.291974
 20
974.416632
 30
0.0
 10
79.516574
 20
963.376983
 30
0.0
 10
97.346850
 20
961.972462
 30
0.0
 10
106.253776
 20
961.270848
 30
0.0
 11
35.453770
 21
993.670848
 31
0.0
 11
55.360403
 21
975.783602
 31
0.0
 11
79.787526
 21
964.861092
 31
0.0
 11
106.253776
 21
961.270848
 31
0.0
  0
SPLINE
  5
116
100
AcDbEntity
  8
0
 62
7
100
AcDbSpline
 70
0
 71
3
 72
10
 73
6
 74
4
 40
0.000000
 40
0.000000
 40
0.000000
 40
0.000000
 40
27.027623
 40
54.430488
 40
83.722003
 40
83.722003
 40
83.722003
 40
83.722003
 10
106.253776
 20
961.270848
 30
0.0
 10
115.258986
 20
962.289972
 30
0.0
 10
133.394430
 20
964.342369
 30
0.0
 10
158.334497
 20
980.245880
 30
0.0
 10
166.193415
 20
997.800923
 30
0.0
 10
170.253776
 20
1006.870848
 30
0.0
 11
106.253776
 21
961.270848
 31
0.0
 11
132.795737
 21
966.371506
 31
0.0
 11
155.662321
 21
981.472377
 31
0.0
 11
170.253776
 21
1006.870848
 31
0.0
  0
SPLINE
  5
117
100
AcDbEntity
  8
0
 62
7
100
AcDbSpline
 70
0
 71
3
 72
10
 73
6
 74
4
 40
0.000000
 40
0.000000
 40
0.000000
 40
0.000000
 40
1.352703
 40
2.703921
 40
4.056623
 40
4.056623
 40
4.056623
 40
4.056623
 10
170.253776
 20
1006.870848
 30
0.0
 10
170.370419
 20
1007.306622
 30
0.0
 10
170.603577
 20
1008.177691
 30
0.0
 10
170.804648
 20
1009.518880
 30
0.0
 10
170.837181
 20
1010.420027
 30
0.0
 10
170.853456
 20
1010.870848
 30
0.0
 11
170.253776
 21
1006.870848
 31
0.0
 11
170.578894
 21
1008.183899
 31
0.0
 11
170.779229
 21
1009.520183
 31
0.0
 11
170.853456
 21
1010.870848
 31
0.0
  0
SPLINE
  5
118
100
AcDbEntity
  8
0
 62
7
100
AcDbSpline
 70
0
 71
3
 72
13
 73
9
 74
7
 40
0.000000
 40
0.000000
 40
0.000000
 40
0.000000
 40
16.231382
 40
31.195558
 40
46.837968
 40
63.530344
 40
80.530911
 40
97.227461
 40
97.227461
 40
97.227461
 40
97.227461
 10
170.853456
 20
1010.870848
 30
0.0
 10
171.398532
 20
1016.338610
 30
0.0
 10
172.446130
 20
1026.847259
 30
0.0
 10
181.800736
 20
1040.080682
 30
0.0
 10
194.825163
 20
1049.304687
 30
0.0
 10
210.479759
 20
1054.824522
 30
0.0
 10
227.522678
 20
1056.480121
 30
0.0
 10
238.442709
 20
1053.531744
 30
0.0
 10
243.853464
 20
1052.070856
 30
0.0
 11
170.853456
 21
1010.870848
 31
0.0
 11
173.891806
 21
1026.815320
 31
0.0
 11
182.218690
 21
1039.248725
 31
0.0
 11
194.853456
 21
1048.470856
 31
0.0
 11
210.554920
 21
1054.136492
 31
0.0
 11
227.504059
 21
1055.457850
 31
0.0
 11
243.853464
 21
1052.070856
 31
0.0
  0
SPLINE
  5
119
100
AcDbEntity
  8
0
 62
7
100
AcDbSpline
 70
0
 71
3
 72
10
 73
6
 74
4
 40
0.000000
 40
0.000000
 40
0.000000
 40
0.000000
 40
0.210701
 40
0.421395
 40
0.632096
 40
0.632096
 40
0.632096
 40
0.632096
 10
243.853464
 20
1052.070856
 30
0.0
 10
243.919701
 20
1052.047501
 30
0.0
 10
244.052174
 20
1052.000791
 30
0.0
 10
244.252096
 20
1051.934222
 30
0.0
 10
244.386128
 20
1051.892191
 30
0.0
 10
244.453144
 20
1051.871176
 30
0.0
 11
243.853464
 21
1052.070856
 31
0.0
 11
244.052378
 21
1052.001373
 31
0.0
 11
244.252282
 21
1051.934810
 31
0.0
 11
244.453144
 21
1051.871176
 31
0.0
  0
SPLINE
  5
11a
100
AcDbEntity
  8
0
 62
7
100
AcDbSpline
 70
0
 71
3
 72
13
 73
9
 74
7
 40
0.000000
 40
0.000000
 40
0.000000
 40
0.000000
 40
40.190017
 40
79.601564
 40
120.123196
 40
162.070157
 40
204.543999
 40
246.029819
 40
246.029819
 40
246.029819
 40
246.029819
 10
244.453144
 20
1051.871176
 30
0.0
 10
256.847313
 20
1046.516785
 30
0.0
 10
281.395579
 20
1035.911715
 30
0.0
 10
310.436309
 20
1007.229726
 30
0.0
 10
332.472619
 20
972.863867
 30
0.0
 10
347.772304
 20
933.903397
 30
0.0
 10
357.426554
 20
892.864191
 30
0.0
 10
359.184515
 20
864.892448
 30
0.0
 10
360.053152
 20
851.071160
 30
0.0
 11
244.453144
 21
1051.871176
 31
0.0
 11
280.283599
 21
1033.666342
 31
0.0
 11
308.983457
 21
1006.655453
 31
0.0
 11
331.053144
 21
972.671168
 31
0.0
 11
346.753695
 21
933.773350
 31
0.0
 11
356.304644
 21
892.387282
 31
0.0
 11
360.053152
 21
851.071160
 31
0.0
  0
SPLINE
  5
11b
100
AcDbEntity
  8
0
 62
7
100
AcDbSpline
 70
0
 71
3
 72
10
 73
6
 74
4
 40
0.000000
 40
0.000000
 40
0.000000
 40
0.000000
 40
0.066419
 40
0.133694
 40
0.199686
 40
0.199686
 40
0.199686
 40
0.199686
 10
360.053152
 20
851.071160
 30
0.0
 10
360.053388
 20
851.049020
 30
0.0
 10
360.053862
 20
851.004456
 30
0.0
 10
360.052444
 20
850.937900
 30
0.0
 10
360.052917
 20
850.893477
 30
0.0
 10
360.053152
 20
850.871480
 30
0.0
 11
360.053152
 21
851.071160
 31
0.0
 11
360.053508
 21
851.004742
 31
0.0
 11
360.052796
 21
850.937471
 31
0.0
 11
360.053152
 21
850.871480
 31
0.0
  0
SPLINE
  5
11c
100
AcDbEntity
  8
0
 62
7
100
AcDbSpline
 70
0
 71
3
 72
10
 73
6
 74
4
 40
0.000000
 40
0.000000
 40
0.000000
 40
0.000000
 40
161.423739
 40
325.373170
 40
491.090042
 40
491.090042
 40
491.090042
 40
491.090042
 10
360.053152
 20
850.871480
 30
0.0
 10
355.406309
 20
796.902718
 30
0.0
 10
346.039916
 20
688.120781
 30
0.0
 10
279.300351
 20
536.572766
 30
0.0
 10
228.293362
 20
439.478732
 30
0.0
 10
202.653136
 20
390.671440
 30
0.0
 11
360.053152
 21
850.871480
 31
0.0
 11
337.534340
 21
691.026159
 31
0.0
 11
278.005874
 21
538.265635
 31
0.0
 11
202.653136
 21
390.671440
 31
0.0
  0
SPLINE
  5
11d
100
AcDbEntity
  8
0
 62
7
100
AcDbSpline
 70
0
 71
3
 72
10
 73
6
 74
4
 40
0.000000
 40
0.000000
 40
0.000000
 40
0.000000
 40
0.091355
 40
0.190914
 40
0.283553
 40
0.283553
 40
0.283553
 40
0.283553
 10
202.653136
 20
390.671440
 30
0.0
 10
202.634531
 20
390.647023
 30
0.0
 10
202.595650
 20
390.595997
 30
0.0
 10
202.512489
 20
390.547001
 30
0.0
 10
202.472656
 20
390.496231
 30
0.0
 10
202.453456
 20
390.471760
 30
0.0
 11
202.653136
 21
390.671440
 31
0.0
 11
202.593403
 21
390.602320
 31
0.0
 11
202.514896
 21
390.541093
 31
0.0
 11
202.453456
 21
390.471760
 31
0.0
  0
SPLINE
  5
11e
100
AcDbEntity
  8
0
 62
7
100
AcDbSpline
 70
0
 71
3
 72
10
 73
6
 74
4
 40
0.000000
 40
0.000000
 40
0.000000
 40
0.000000
 40
3.124375
 40
6.378067
 40
9.752951
 40
9.752951
 40
9.752951
 40
9.752951
 10
202.453456
 20
390.471760
 30
0.0
 10
201.960827
 20
389.554180
 30
0.0
 10
200.955180
 20
387.681041
 30
0.0
 10
199.426717
 20
384.811769
 30
0.0
 10
198.384230
 20
382.863636
 30
0.0
 10
197.853456
 20
381.871760
 30
0.0
 11
202.453456
 21
390.471760
 31
0.0
 11
200.977031
 21
387.718237
 31
0.0
 11
199.444825
 21
384.847896
 31
0.0
 11
197.853456
 21
381.871760
 31
0.0
  0
LINE
  5
11f
100
AcDbEntity
  8
0
 62
7
100
AcDbLine
 10
204.053456
 20
362.271760
 30
0.0
 11
305.053464
 21
311.471760
 31
0.0
  0
SPLINE
  5
120
100
AcDbEntity
  8
0
 62
7
100
AcDbSpline
 70
0
 71
3
 72
13
 73
9
 74
7
 40
0.000000
 40
0.000000
 40
0.000000
 40
0.000000
 40
3.815034
 40
7.597764
 40
11.412797
 40
15.227831
 40
19.010561
 40
22.825595
 40
22.825595
 40
22.825595
 40
22.825595
 10
197.853456
 20
381.871760
 30
0.0
 10
197.341791
 20
380.699273
 30
0.0
 10
196.322794
 20
378.364228
 30
0.0
 10
196.024140
 20
374.505779
 30
0.0
 10
196.673232
 20
370.717812
 30
0.0
 10
198.320708
 20
367.245659
 30
0.0
 10
200.784050
 20
364.260903
 30
0.0
 10
202.960569
 20
362.936684
 30
0.0
 10
204.053456
 20
362.271760
 30
0.0
 11
197.853456
 21
381.871760
 31
0.0
 11
196.525253
 21
378.295399
 31
0.0
 11
196.181381
 21
374.528331
 31
0.0
 11
196.840101
 21
370.770597
 31
0.0
 11
198.462314
 21
367.317640
 31
0.0
 11
200.910093
 21
364.433646
 31
0.0
 11
204.053456
 21
362.271760
 31
0.0
  0
SPLINE
  5
121
100
AcDbEntity
  8
0
 62
7
100
AcDbSpline
 70
0
 71
3
 72
13
 73
9
 74
7
 40
0.000000
 40
0.000000
 40
0.000000
 40
0.000000
 40
29.310795
 40
83.745128
 40
113.055923
 40
120.469001
 40
127.668006
 40
135.081085
 40
135.081085
 40
135.081085
 40
135.081085
 10
305.053464
 20
311.471760
 30
0.0
 10
313.761617
 20
307.044962
 30
0.0
 10
338.642054
 20
294.396969
 30
0.0
 10
372.899895
 20
278.534670
 30
0.0
 10
398.861979
 20
262.736590
 30
0.0
 10
413.164295
 20
258.372933
 30
0.0
 10
420.742029
 20
260.711330
 30
0.0
 10
423.735041
 20
264.665639
 30
0.0
 10
425.253472
 20
266.671760
 30
0.0
 11
305.053464
 21
311.471760
 31
0.0
 11
331.238651
 21
298.301390
 31
0.0
 11
379.868285
 21
273.842130
 31
0.0
 11
406.053472
 21
260.671760
 31
0.0
 11
413.303298
 21
259.124584
 31
0.0
 11
420.174605
 21
261.271867
 31
0.0
 11
425.253472
 21
266.671760
 31
0.0
  0
LINE
  5
122
100
AcDbEntity
  8
0
 62
7
100
AcDbLine
 10
469.053472
 20
351.471760
 30
0.0
 11
469.253152
 21
351.471760
 31
0.0
  0
SPLINE
  5
123
100
AcDbEntity
  8
0
 62
7
100
AcDbSpline
 70
0
 71
3
 72
10
 73
6
 74
4
 40
0.000000
 40
0.000000
 40
0.000000
 40
0.000000
 40
31.868821
 40
63.703123
 40
95.445771
 40
95.445771
 40
95.445771
 40
95.445771
 10
425.253472
 20
266.671760
 30
0.0
 10
430.220263
 20
276.062101
 30
0.0
 10
440.148464
 20
294.832611
 30
0.0
 10
454.757983
 20
323.095992
 30
0.0
 10
464.292891
 20
342.022266
 30
0.0
 10
469.053472
 20
351.471760
 30
0.0
 11
425.253472
 21
266.671760
 31
0.0
 11
440.109444
 21
294.866119
 31
0.0
 11
454.722727
 21
323.148175
 31
0.0
 11
469.053472
 21
351.471760
 31
0.0
  0
SPLINE
  5
124
100
AcDbEntity
  8
0
 62
7
100
AcDbSpline
 70
0
 71
3
 72
10
 73
6
 74
4
 40
0.000000
 40
0.000000
 40
0.000000
 40
0.000000
 40
199.975016
 40
400.898883
 40
602.440479
 40
602.440479
 40
602.440479
 40
602.440479
 10
469.253152
 20
351.471760
 30
0.0
 10
498.604823
 20
411.243602
 30
0.0
 10
557.447435
 20
531.070893
 30
0.0
 10
616.493547
 20
726.443465
 30
0.0
 10
608.870522
 20
861.326684
 30
0.0
 10
605.053160
 20
928.871808
 30
0.0
 11
469.253152
 21
351.471760
 31
0.0
 11
552.443799
 21
533.321487
 31
0.0
 11
604.701777
 21
727.330518
 31
0.0
 11
605.053160
 21
928.871808
 31
0.0
  0
SPLINE
  5
125
100
AcDbEntity
  8
0
 62
7
100
AcDbSpline
 70
0
 71
3
 72
10
 73
6
 74
4
 40
0.000000
 40
0.000000
 40
0.000000
 40
0.000000
 40
0.066006
 40
0.133764
 40
0.199770
 40
0.199770
 40
0.199770
 40
0.199770
 10
605.053160
 20
928.871808
 30
0.0
 10
605.052224
 20
928.893810
 30
0.0
 10
605.050327
 20
928.938397
 30
0.0
 10
605.055993
 20
929.004899
 30
0.0
 10
605.054096
 20
929.049486
 30
0.0
 10
605.053160
 20
929.071488
 30
0.0
 11
605.053160
 21
928.871808
 31
0.0
 11
605.051738
 21
928.937799
 31
0.0
 11
605.054582
 21
929.005497
 31
0.0
 11
605.053160
 21
929.071488
 31
0.0
  0
LINE
  5
126
100
AcDbEntity
  8
0
 62
7
100
AcDbLine
 10
326.453144
 20
1278.071508
 30
0.0
 11
326.453144
 21
1278.271508
 31
0.0
  0
SPLINE
  5
127
100
AcDbEntity
  8
0
 62
7
100
AcDbSpline
 70
0
 71
3
 72
10
 73
6
 74
4
 40
0.000000
 40
0.000000
 40
0.000000
 40
0.000000
 40
155.969605
 40
311.936868
 40
468.347660
 40
468.347660
 40
468.347660
 40
468.347660
 10
605.053160
 20
929.071488
 30
0.0
 10
592.416604
 20
979.685010
 30
0.0
 10
567.143680
 20
1080.911294
 30
0.0
 10
470.815496
 20
1212.944327
 30
0.0
 10
374.619456
 20
1256.341908
 30
0.0
 10
326.453144
 20
1278.071508
 30
0.0
 11
605.053160
 21
929.071488
 31
0.0
 11
557.422042
 21
1077.590155
 31
0.0
 11
462.942593
 21
1201.684557
 31
0.0
 11
326.453144
 21
1278.071508
 31
0.0
  0
SPLINE
  5
128
100
AcDbEntity
  8
0
 62
7
100
AcDbSpline
 70
0
 71
3
 72
10
 73
6
 74
4
 40
0.000000
 40
0.000000
 40
0.000000
 40
0.000000
 40
0.131449
 40
0.270215
 40
0.401635
 40
0.401635
 40
0.401635
 40
0.401635
 10
326.453144
 20
1278.271508
 30
0.0
 10
326.409347
 20
1278.277178
 30
0.0
 10
326.319316
 20
1278.288834
 30
0.0
 10
326.186987
 20
1278.254702
 30
0.0
 10
326.096942
 20
1278.266009
 30
0.0
 10
326.053144
 20
1278.271508
 30
0.0
 11
326.453144
 21
1278.271508
 31
0.0
 11
326.321991
 21
1278.280326
 31
0.0
 11
326.184297
 21
1278.263117
 31
0.0
 11
326.053144
 21
1278.271508
 31
0.0
  0
LINE
  5
129
100
AcDbEntity
  8
0
 62
7
100
AcDbLine
 10
237.453144
 20
1290.671509
 30
0.0
 11
237.454424
 21
1290.670549
 31
0.0
  0
SPLINE
  5
12a
100
AcDbEntity
  8
0
 62
7
100
AcDbSpline
 70
0
 71
3
 72
10
 73
6
 74
4
 40
0.000000
 40
0.000000
 40
0.000000
 40
0.000000
 40
29.757075
 40
59.728093
 40
89.813588
 40
89.813588
 40
89.813588
 40
89.813588
 10
326.053144
 20
1278.271508
 30
0.0
 10
316.486218
 20
1280.915174
 30
0.0
 10
297.283584
 20
1286.221512
 30
0.0
 10
267.517211
 20
1290.375031
 30
0.0
 10
247.487226
 20
1290.572557
 30
0.0
 10
237.453144
 20
1290.671509
 30
0.0
 11
326.053144
 21
1278.271508
 31
0.0
 11
297.205255
 21
1285.571015
 31
0.0
 11
267.523817
 21
1289.727232
 31
0.0
 11
237.453144
 21
1290.671509
 31
0.0
  0
SPLINE
  5
12b
100
AcDbEntity
  8
0
 62
7
100
AcDbSpline
 70
0
 71
3
 72
10
 73
6
 74
4
 40
0.000000
 40
0.000000
 40
0.000000
 40
0.000000
 40
27.038011
 40
53.885465
 40
80.503434
 40
80.503434
 40
80.503434
 40
80.503434
 10
238.254424
 20
1261.870547
 30
0.0
 10
247.272299
 20
1261.779317
 30
0.0
 10
265.244492
 20
1261.597501
 30
0.0
 10
291.920103
 20
1257.829878
 30
0.0
 10
309.100898
 20
1253.050152
 30
0.0
 10
317.654424
 20
1250.670546
 30
0.0
 11
238.254424
 21
1261.870547
 31
0.0
 11
265.278663
 21
1261.007697
 31
0.0
 11
291.861118
 21
1257.244864
 31
0.0
 11
317.654424
 21
1250.670546
 31
0.0
  0
SPLINE
  5
12c
100
AcDbEntity
  8
0
 62
7
100
AcDbSpline
 70
0
 71
3
 72
10
 73
6
 74
4
 40
0.000000
 40
0.000000
 40
0.000000
 40
0.000000
 40
0.133338
 40
0.266674
 40
0.400011
 40
0.400011
 40
0.400011
 40
0.400011
 10
317.654424
 20
1250.670546
 30
0.0
 10
317.698867
 20
1250.670053
 30
0.0
 10
317.787754
 20
1250.669065
 30
0.0
 10
317.921094
 20
1250.669065
 30
0.0
 10
318.009981
 20
1250.670053
 30
0.0
 10
318.054424
 20
1250.670546
 30
0.0
 11
317.654424
 21
1250.670546
 31
0.0
 11
317.787756
 21
1250.669312
 31
0.0
 11
317.921092
 21
1250.669312
 31
0.0
 11
318.054424
 21
1250.670546
 31
0.0
  0
SPLINE
  5
12d
100
AcDbEntity
  8
0
 62
7
100
AcDbSpline
 70
0
 71
3
 72
10
 73
6
 74
4
 40
0.000000
 40
0.000000
 40
0.000000
 40
0.000000
 40
144.234042
 40
289.809368
 40
436.081781
 40
436.081781
 40
436.081781
 40
436.081781
 10
318.054424
 20
1250.670546
 30
0.0
 10
362.417377
 20
1230.528852
 30
0.0
 10
451.555829
 20
1190.058159
 30
0.0
 10
541.049644
 20
1066.998072
 30
0.0
 10
564.767291
 20
972.321755
 30
0.0
 10
576.654440
 20
924.870528
 30
0.0
 11
318.054424
 21
1250.670546
 31
0.0
 11
443.796007
 21
1180.012829
 31
0.0
 11
531.905716
 21
1064.129892
 31
0.0
 11
576.654440
 21
924.870528
 31
0.0
  0
SPLINE
  5
12e
100
AcDbEntity
  8
0
 62
7
100
AcDbSpline
 70
0
 71
3
 72
10
 73
6
 74
4
 40
0.000000
 40
0.000000
 40
0.000000
 40
0.000000
 40
0.066561
 40
0.133121
 40
0.199681
 40
0.199681
 40
0.199681
 40
0.199681
 10
576.654440
 20
924.870528
 30
0.0
 10
576.654317
 20
924.848341
 30
0.0
 10
576.654071
 20
924.803968
 30
0.0
 10
576.654071
 20
924.737408
 30
0.0
 10
576.654317
 20
924.693035
 30
0.0
 10
576.654440
 20
924.670848
 30
0.0
 11
576.654440
 21
924.870528
 31
0.0
 11
576.654132
 21
924.803968
 31
0.0
 11
576.654132
 21
924.737408
 31
0.0
 11
576.654440
 21
924.670848
 31
0.0
  0
SPLINE
  5
12f
100
AcDbEntity
  8
0
 62
7
100
AcDbSpline
 70
0
 71
3
 72
10
 73
6
 74
4
 40
0.000000
 40
0.000000
 40
0.000000
 40
0.000000
 40
193.021998
 40
387.862594
 40
584.129266
 40
584.129266
 40
584.129266
 40
584.129266
 10
576.654440
 20
924.670848
 30
0.0
 10
580.220504
 20
859.977483
 30
0.0
 10
587.386232
 20
729.981232
 30
0.0
 10
529.824224
 20
540.643018
 30
0.0
 10
472.447433
 20
423.736963
 30
0.0
 10
443.654432
 20
365.070800
 30
0.0
 11
576.654440
 21
924.670848
 31
0.0
 11
576.112044
 21
731.649612
 31
0.0
 11
525.290081
 21
543.553929
 31
0.0
 11
443.654432
 21
365.070800
 31
0.0
  0
SPLINE
  5
130
100
AcDbEntity
  8
0
 62
7
100
AcDbSpline
 70
0
 71
3
 72
10
 73
6
 74
4
 40
0.000000
 40
0.000000
 40
0.000000
 40
0.000000
 40
0.133338
 40
0.266674
 40
0.400011
 40
0.400011
 40
0.400011
 40
0.400011
 10
443.654432
 20
365.070800
 30
0.0
 10
443.653938
 20
365.026357
 30
0.0
 10
443.652951
 20
364.937470
 30
0.0
 10
443.652951
 20
364.804130
 30
0.0
 10
443.653938
 20
364.715243
 30
0.0
 10
443.654432
 20
364.670800
 30
0.0
 11
443.654432
 21
365.070800
 31
0.0
 11
443.653197
 21
364.937468
 31
0.0
 11
443.653197
 21
364.804132
 31
0.0
 11
443.654432
 21
364.670800
 31
0.0
  0
LINE
  5
131
100
AcDbEntity
  8
0
 62
7
100
AcDbLine
 10
406.054432
 20
292.670800
 30
0.0
 11
317.854424
 21
337.070800
 31
0.0
  0
LINE
  5
132
100
AcDbEntity
  8
0
 62
7
100
AcDbLine
 10
317.854424
 20
337.070800
 30
0.0
 11
230.054424
 21
381.270800
 31
0.0
  0
SPLINE
  5
133
100
AcDbEntity
  8
0
 62
7
100
AcDbSpline
 70
0
 71
3
 72
10
 73
6
 74
4
 40
0.000000
 40
0.000000
 40
0.000000
 40
0.000000
 40
26.941355
 40
54.042238
 40
81.228319
 40
81.228319
 40
81.228319
 40
81.228319
 10
443.654432
 20
364.670800
 30
0.0
 10
439.591682
 20
356.661707
 30
0.0
 10
431.442126
 20
340.596097
 30
0.0
 10
418.782768
 20
316.660819
 30
0.0
 10
410.301647
 20
300.675835
 30
0.0
 10
406.054432
 20
292.670800
 30
0.0
 11
443.654432
 21
364.670800
 31
0.0
 11
431.398366
 21
340.678604
 31
0.0
 11
418.790925
 21
316.688809
 31
0.0
 11
406.054432
 21
292.670800
 31
0.0
  0
SPLINE
  5
134
100
AcDbEntity
  8
0
 62
7
100
AcDbSpline
 70
0
 71
3
 72
10
 73
6
 74
4
 40
0.000000
 40
0.000000
 40
0.000000
 40
0.000000
 40
165.716326
 40
332.996544
 40
501.233732
 40
501.233732
 40
501.233732
 40
501.233732
 10
230.054424
 20
381.270800
 30
0.0
 10
255.762882
 20
430.046464
 30
0.0
 10
307.422414
 20
528.058094
 30
0.0
 10
374.997663
 20
682.984045
 30
0.0
 10
384.226735
 20
795.201885
 30
0.0
 10
388.854432
 20
851.470840
 30
0.0
 11
230.054424
 21
381.270800
 31
0.0
 11
305.504235
 21
528.814783
 31
0.0
 11
365.918755
 21
684.804388
 31
0.0
 11
388.854432
 21
851.470840
 31
0.0
  0
SPLINE
  5
135
100
AcDbEntity
  8
0
 62
7
100
AcDbSpline
 70
0
 71
3
 72
10
 73
6
 74
4
 40
0.000000
 40
0.000000
 40
0.000000
 40
0.000000
 40
0.066561
 40
0.133121
 40
0.199681
 40
0.199681
 40
0.199681
 40
0.199681
 10
388.854432
 20
851.470840
 30
0.0
 10
388.854555
 20
851.493027
 30
0.0
 10
388.854801
 20
851.537400
 30
0.0
 10
388.854801
 20
851.603960
 30
0.0
 10
388.854555
 20
851.648333
 30
0.0
 10
388.854432
 20
851.670520
 30
0.0
 11
388.854432
 21
851.470840
 31
0.0
 11
388.854740
 21
851.537400
 31
0.0
 11
388.854740
 21
851.603960
 31
0.0
 11
388.854432
 21
851.670520
 31
0.0
  0
SPLINE
  5
136
100
AcDbEntity
  8
0
 62
7
100
AcDbSpline
 70
0
 71
3
 72
13
 73
9
 74
7
 40
0.000000
 40
0.000000
 40
0.000000
 40
0.000000
 40
45.379435
 40
92.069498
 40
139.021719
 40
185.626287
 40
232.298082
 40
280.531726
 40
280.531726
 40
280.531726
 40
280.531726
 10
388.854432
 20
851.670520
 30
0.0
 10
387.928906
 20
866.791074
 30
0.0
 10
386.051123
 20
897.468886
 30
0.0
 10
375.359444
 20
942.781481
 30
0.0
 10
358.081712
 20
986.475383
 30
0.0
 10
332.567183
 20
1025.919448
 30
0.0
 10
298.304375
 20
1059.616276
 30
0.0
 10
269.097957
 20
1072.382419
 30
0.0
 10
254.254424
 20
1078.870536
 30
0.0
 11
388.854432
 21
851.670520
 31
0.0
 11
384.813882
 21
896.869714
 31
0.0
 11
374.302022
 21
942.361062
 31
0.0
 11
356.654432
 21
985.870528
 31
0.0
 11
331.178250
 21
1024.895519
 31
0.0
 11
297.176446
 21
1056.866345
 31
0.0
 11
254.254424
 21
1078.870536
 31
0.0
  0
SPLINE
  5
137
100
AcDbEntity
  8
0
 62
7
100
AcDbSpline
 70
0
 71
3
 72
10
 73
6
 74
4
 40
0.000000
 40
0.000000
 40
0.000000
 40
0.000000
 40
0.210831
 40
0.421679
 40
0.632096
 40
0.632096
 40
0.632096
 40
0.632096
 10
254.254424
 20
1078.870536
 30
0.0
 10
254.188193
 20
1078.894073
 30
0.0
 10
254.055726
 20
1078.941148
 30
0.0
 10
253.853653
 20
1079.001073
 30
0.0
 10
253.721001
 20
1079.047184
 30
0.0
 10
253.654744
 20
1079.070216
 30
0.0
 11
254.254424
 21
1078.870536
 31
0.0
 11
254.055147
 21
1078.939372
 31
0.0
 11
253.854021
 21
1079.002660
 31
0.0
 11
253.654744
 21
1079.070216
 31
0.0
  0
SPLINE
  5
138
100
AcDbEntity
  8
0
 62
7
100
AcDbSpline
 70
0
 71
3
 72
13
 73
9
 74
7
 40
0.000000
 40
0.000000
 40
0.000000
 40
0.000000
 40
25.084228
 40
49.877958
 40
74.514551
 40
98.221828
 40
122.393424
 40
147.839604
 40
147.839604
 40
147.839604
 40
147.839604
 10
253.654744
 20
1079.070216
 30
0.0
 10
245.533299
 20
1081.302063
 30
0.0
 10
229.384464
 20
1085.739909
 30
0.0
 10
204.187049
 20
1083.354070
 30
0.0
 10
180.947299
 20
1075.110873
 30
0.0
 10
161.386474
 20
1060.376995
 30
0.0
 10
146.832894
 20
1039.829811
 30
0.0
 10
144.071103
 20
1023.331347
 30
0.0
 10
142.654736
 20
1014.870208
 30
0.0
 11
253.654744
 21
1079.070216
 31
0.0
 11
229.108912
 21
1084.239415
 31
0.0
 11
204.387619
 21
1082.345561
 31
0.0
 11
181.254736
 21
1073.870216
 31
0.0
 11
162.348299
 21
1059.567013
 31
0.0
 11
148.767615
 21
1039.571235
 31
0.0
 11
142.654736
 21
1014.870208
 31
0.0
  0
SPLINE
  5
139
100
AcDbEntity
  8
0
 62
7
100
AcDbSpline
 70
0
 71
3
 72
10
 73
6
 74
4
 40
0.000000
 40
0.000000
 40
0.000000
 40
0.000000
 40
16.551379
 40
31.268037
 40
47.703969
 40
47.703969
 40
47.703969
 40
47.703969
 10
142.654736
 20
1014.870208
 30
0.0
 10
140.546880
 20
1009.623726
 30
0.0
 10
136.564824
 20
999.712334
 30
0.0
 10
121.991905
 20
991.051669
 30
0.0
 10
111.559051
 20
990.409181
 30
0.0
 10
106.054736
 20
990.070208
 30
0.0
 11
142.654736
 21
1014.870208
 31
0.0
 11
134.770484
 21
1000.317314
 31
0.0
 11
122.312663
 21
992.482600
 31
0.0
 11
106.054736
 21
990.070208
 31
0.0
  0
SPLINE
  5
13a
100
AcDbEntity
  8
0
 62
7
100
AcDbSpline
 70
0
 71
3
 72
10
 73
6
 74
4
 40
0.000000
 40
0.000000
 40
0.000000
 40
0.000000
 40
18.436213
 40
37.066871
 40
54.259503
 40
54.259503
 40
54.259503
 40
54.259503
 10
106.054736
 20
990.070208
 30
0.0
 10
99.919543
 20
990.650151
 30
0.0
 10
87.584449
 20
991.816155
 30
0.0
 10
70.522843
 20
999.203706
 30
0.0
 10
61.962897
 20
1007.627423
 30
0.0
 10
57.854732
 20
1011.670208
 30
0.0
 11
106.054736
 21
990.070208
 31
0.0
 11
87.817283
 21
992.770069
 31
0.0
 11
70.802158
 21
1000.358677
 31
0.0
 11
57.854732
 21
1011.670208
 31
0.0
  0
SPLINE
  5
13b
100
AcDbEntity
  8
0
 62
7
100
AcDbSpline
 70
0
 71
3
 72
16
 73
12
 74
10
 40
0.000000
 40
0.000000
 40
0.000000
 40
0.000000
 40
0.188574
 40
0.377144
 40
0.565718
 40
1.375670
 40
2.879866
 40
3.689818
 40
3.783950
 40
3.878081
 40
3.972212
 40
3.972212
 40
3.972212
 40
3.972212
 10
57.854732
 20
1011.670208
 30
0.0
 10
57.810953
 20
1011.715316
 30
0.0
 10
57.723395
 20
1011.805531
 30
0.0
 10
57.590577
 20
1011.939371
 30
0.0
 10
57.302185
 20
1012.210825
 30
0.0
 10
56.805929
 20
1012.886726
 30
0.0
 10
56.105188
 20
1013.655461
 30
0.0
 10
55.623586
 20
1014.301495
 30
0.0
 10
55.388602
 20
1014.537205
 30
0.0
 10
55.322155
 20
1014.603872
 30
0.0
 10
55.277419
 20
1014.647883
 30
0.0
 10
55.255051
 20
1014.669888
 30
0.0
 11
57.854732
 21
1011.670208
 31
0.0
 11
57.723147
 21
1011.805284
 31
0.0
 11
57.589808
 21
1011.938623
 31
0.0
 11
57.454732
 21
1012.070208
 31
0.0
 11
56.936213
 21
1012.692430
 31
0.0
 11
55.973250
 21
1013.847986
 31
0.0
 11
55.454731
 21
1014.470208
 31
0.0
 11
55.388607
 21
1014.537203
 31
0.0
 11
55.322046
 21
1014.603763
 31
0.0
 11
55.255051
 21
1014.669888
 31
0.0
  0
SPLINE
  5
13c
100
AcDbEntity
  8
0
 62
7
100
AcDbSpline
 70
0
 71
3
 72
10
 73
6
 74
4
 40
0.000000
 40
0.000000
 40
0.000000
 40
0.000000
 40
45.123301
 40
91.152459
 40
137.550895
 40
137.550895
 40
137.550895
 40
137.550895
 10
55.255051
 20
1014.669888
 30
0.0
 10
47.024068
 20
1027.482774
 30
0.0
 10
30.396863
 20
1053.365767
 30
0.0
 10
27.250184
 20
1101.241251
 30
0.0
 10
37.106968
 20
1130.554642
 30
0.0
 10
42.055050
 20
1145.269896
 30
0.0
 11
55.255051
 21
1014.669888
 31
0.0
 11
34.125692
 21
1054.540460
 31
0.0
 11
30.227565
 21
1100.404258
 31
0.0
 11
42.055050
 21
1145.269896
 31
0.0
  0
SPLINE
  5
13d
100
AcDbEntity
  8
0
 62
7
100
AcDbSpline
 70
0
 71
3
 72
10
 73
6
 74
4
 40
0.000000
 40
0.000000
 40
0.000000
 40
0.000000
 40
0.066561
 40
0.133121
 40
0.199681
 40
0.199681
 40
0.199681
 40
0.199681
 10
42.055050
 20
1145.269896
 30
0.0
 10
42.077237
 20
1145.269773
 30
0.0
 10
42.121610
 20
1145.269527
 30
0.0
 10
42.188171
 20
1145.269527
 30
0.0
 10
42.232544
 20
1145.269773
 30
0.0
 10
42.254730
 20
1145.269896
 30
0.0
 11
42.055050
 21
1145.269896
 31
0.0
 11
42.121610
 21
1145.269588
 31
0.0
 11
42.188171
 21
1145.269588
 31
0.0
 11
42.254730
 21
1145.269896
 31
0.0
  0
LINE
  5
13e
100
AcDbEntity
  8
0
 62
7
100
AcDbLine
 10
238.254424
 20
1261.870547
 30
0.0
 11
238.254424
 21
1261.870547
 31
0.0
  0
SPLINE
  5
13f
100
AcDbEntity
  8
0
 62
7
100
AcDbSpline
 70
0
 71
3
 72
10
 73
6
 74
4
 40
0.000000
 40
0.000000
 40
0.000000
 40
0.000000
 40
79.005927
 40
158.105579
 40
238.950779
 40
238.950779
 40
238.950779
 40
238.950779
 10
42.254730
 20
1145.269896
 30
0.0
 10
56.510968
 20
1167.822292
 30
0.0
 10
85.040355
 20
1212.953837
 30
0.0
 10
158.235264
 20
1252.687195
 30
0.0
 10
211.388011
 20
1258.787239
 30
0.0
 10
238.254424
 20
1261.870547
 30
0.0
 11
42.254730
 21
1145.269896
 31
0.0
 11
89.992843
 21
1208.222331
 31
0.0
 11
158.717694
 21
1247.384171
 31
0.0
 11
238.254424
 21
1261.870547
 31
0.0
  0
ENDSEC
  0
SECTION
  2
OBJECTS
  0
DICTIONARY
  5
C
330
0
100
AcDbDictionary
  3
ACAD_GROUP
350
D
  3
ACAD_MLINESTYLE
350
17
  0
DICTIONARY
  5
D
330
C
100
AcDbDictionary
  0
DICTIONARY
  5
1A
330
C
100
AcDbDictionary
  0
DICTIONARY
  5
17
330
C
100
AcDbDictionary
  3
STANDARD
350
18
  0
DICTIONARY
  5
19
330
C
100
AcDbDictionary
  0
ENDSEC
  0
EOF
