  0
SECTION
  2
HEADER
  9
$ACADVER
  1
AC1014
  9
$HANDSEED
  5
FFFF
  9
$MEASUREMENT
 70
     1
  0
ENDSEC
  0
SECTION
  2
TABLES
  0
TABLE
  2
VPORT
  5
8
330
0
100
AcDbSymbolTable
 70
     4
  0
VPORT
  5
2E
330
8
100
AcDbSymbolTableRecord
100
AcDbViewportTableRecord
  2
*ACTIVE
 70
     0
 10
0.0
 20
0.0
 11
1.0
 21
1.0
 12
210.0
 22
148.5
 13
0.0
 23
0.0
 14
10.0
 24
10.0
 15
10.0
 25
10.0
 16
0.0
 26
0.0
 36
1.0
 17
0.0
 27
0.0
 37
0.0
 40
341.0
 41
1.24
 42
50.0
 43
0.0
 44
0.0
 50
0.0
 51
0.0
 71
     0
 72
   100
 73
     1
 74
     3
 75
     0
 76
     0
 77
     0
 78
     0
  0
ENDTAB
  0
TABLE
  2
LTYPE
  5
5
330
0
100
AcDbSymbolTable
 70
     1
  0
LTYPE
  5
14
330
5
100
AcDbSymbolTableRecord
100
AcDbLinetypeTableRecord
  2
BYBLOCK
 70
     0
  3

 72
    65
 73
     0
 40
0.0
  0
LTYPE
  5
15
330
5
100
AcDbSymbolTableRecord
100
AcDbLinetypeTableRecord
  2
BYLAYER
 70
     0
  3

 72
    65
 73
     0
 40
0.0
  0
LTYPE
  5
16
330
5
100
AcDbSymbolTableRecord
100
AcDbLinetypeTableRecord
  2
CONTINUOUS
 70
     0
  3
Solid line
 72
    65
 73
     0
 40
0.0
  0
ENDTAB
  0
TABLE
  2
LAYER
  5
2
100
AcDbSymbolTable
 70
1
  0
LAYER
  5
50
100
AcDbSymbolTableRecord
100
AcDbLayerTableRecord
  2
0
 70
0
  6
CONTINUOUS
  0
ENDTAB
  0
TABLE
  2
STYLE
  5
3
330
0
100
AcDbSymbolTable
 70
     1
  0
STYLE
  5
11
330
3
100
AcDbSymbolTableRecord
100
AcDbTextStyleTableRecord
  2
STANDARD
 70
     0
 40
0.0
 41
1.0
 50
0.0
 71
     0
 42
2.5
  3
txt
  4

  0
ENDTAB
  0
TABLE
  2
VIEW
  5
6
330
0
100
AcDbSymbolTable
 70
     0
  0
ENDTAB
  0
TABLE
  2
UCS
  5
7
330
0
100
AcDbSymbolTable
 70
     0
  0
ENDTAB
  0
TABLE
  2
APPID
  5
9
330
0
100
AcDbSymbolTable
 70
     2
  0
APPID
  5
12
330
9
100
AcDbSymbolTableRecord
100
AcDbRegAppTableRecord
  2
ACAD
 70
     0
  0
ENDTAB
  0
TABLE
  2
DIMSTYLE
  5
A
330
0
100
AcDbSymbolTable
 70
     1
  0
DIMSTYLE
105
27
330
A
100
AcDbSymbolTableRecord
100
AcDbDimStyleTableRecord
  2
ISO-25
 70
     0
  3

  4

  5

  6

  7

 40
1.0
 41
2.5
 42
0.625
 43
3.75
 44
1.25
 45
0.0
 46
0.0
 47
0.0
 48
0.0
140
2.5
141
2.5
142
0.0
143
0.03937007874016
144
1.0
145
0.0
146
1.0
147
0.625
 71
     0
 72
     0
 73
     0
 74
     0
 75
     0
 76
     0
 77
     1
 78
     8
170
     0
171
     3
172
     1
173
     0
174
     0
175
     0
176
     0
177
     0
178
     0
270
     2
271
     2
272
     2
273
     2
274
     3
340
11
275
     0
280
     0
281
     0
282
     0
283
     0
284
     8
285
     0
286
     0
287
     3
288
     0
  0
ENDTAB
  0
TABLE
  2
BLOCK_RECORD
  5
1
330
0
100
AcDbSymbolTable
 70
     1
  0
BLOCK_RECORD
  5
1F
330
1
100
AcDbSymbolTableRecord
100
AcDbBlockTableRecord
  2
*MODEL_SPACE
  0
BLOCK_RECORD
  5
1B
330
1
100
AcDbSymbolTableRecord
100
AcDbBlockTableRecord
  2
*PAPER_SPACE
  0
ENDTAB
  0
ENDSEC
  0
SECTION
  2
BLOCKS
  0
BLOCK
  5
20
330
1F
100
AcDbEntity
  8
0
100
AcDbBlockBegin
  2
*MODEL_SPACE
 70
     0
 10
0.0
 20
0.0
 30
0.0
  3
*MODEL_SPACE
  1

  0
ENDBLK
  5
21
330
1F
100
AcDbEntity
  8
0
100
AcDbBlockEnd
  0
BLOCK
  5
1C
330
1B
100
AcDbEntity
 67
     1
  8
0
100
AcDbBlockBegin
  2
*PAPER_SPACE
  1

  0
ENDBLK
  5
1D
330
1B
100
AcDbEntity
 67
     1
  8
0
100
AcDbBlockEnd
  0
ENDSEC
  0
SECTION
  2
ENTITIES
  0
LINE
  5
100
100
AcDbEntity
  8
0
 62
7
100
AcDbLine
 10
116.958330
 20
720.135372
 30
0.0
 11
116.958330
 21
711.161738
 31
0.0
  0
LINE
  5
101
100
AcDbEntity
  8
0
 62
7
100
AcDbLine
 10
119.763503
 20
708.355103
 30
0.0
 11
128.728342
 21
708.355103
 31
0.0
  0
SPLINE
  5
102
100
AcDbEntity
  8
0
 62
7
100
AcDbSpline
 70
0
 71
3
 72
10
 73
6
 74
4
 40
0.000000
 40
0.000000
 40
0.000000
 40
0.000000
 40
1.403461
 40
2.781457
 40
4.184918
 40
4.184918
 40
4.184918
 40
4.184918
 10
116.958330
 20
711.161738
 30
0.0
 10
117.408224
 20
711.018182
 30
0.0
 10
118.299849
 20
710.733675
 30
0.0
 10
119.336139
 20
709.696844
 30
0.0
 10
119.620181
 20
708.805071
 30
0.0
 10
119.763503
 20
708.355103
 30
0.0
 11
116.958330
 21
711.161738
 31
0.0
 11
118.256362
 21
710.628057
 31
0.0
 11
119.230499
 21
709.653413
 31
0.0
 11
119.763503
 21
708.355103
 31
0.0
  0
LINE
  5
103
100
AcDbEntity
  8
0
 62
7
100
AcDbLine
 10
116.958330
 20
720.135372
 30
0.0
 11
116.958330
 21
720.135372
 31
0.0
  0
SPLINE
  5
104
100
AcDbEntity
  8
0
 62
7
100
AcDbSpline
 70
0
 71
3
 72
10
 73
6
 74
4
 40
0.000000
 40
0.000000
 40
0.000000
 40
0.000000
 40
6.071355
 40
11.983519
 40
18.054873
 40
18.054873
 40
18.054873
 40
18.054873
 10
128.728342
 20
708.355103
 30
0.0
 10
128.322272
 20
710.368722
 30
0.0
 10
127.520779
 20
714.343165
 30
0.0
 10
122.945338
 20
718.922593
 30
0.0
 10
118.971595
 20
719.727548
 30
0.0
 10
116.958330
 20
720.135372
 30
0.0
 11
128.728342
 21
708.355103
 31
0.0
 11
126.936348
 21
714.155973
 31
0.0
 11
122.757638
 21
718.338325
 31
0.0
 11
116.958330
 21
720.135372
 31
0.0
  0
LINE
  5
105
100
AcDbEntity
  8
0
 62
7
100
AcDbLine
 10
103.842113
 20
708.355103
 30
0.0
 11
112.815750
 21
708.355103
 31
0.0
  0
SPLINE
  5
106
100
AcDbEntity
  8
0
 62
7
100
AcDbSpline
 70
0
 71
3
 72
10
 73
6
 74
4
 40
0.000000
 40
0.000000
 40
0.000000
 40
0.000000
 40
6.071357
 40
11.983523
 40
18.054880
 40
18.054880
 40
18.054880
 40
18.054880
 10
115.622385
 20
720.125120
 30
0.0
 10
113.608764
 20
719.719050
 30
0.0
 10
109.634320
 20
718.917557
 30
0.0
 10
105.054890
 20
714.342113
 30
0.0
 10
104.249936
 20
710.368369
 30
0.0
 10
103.842113
 20
708.355103
 30
0.0
 11
115.622385
 21
720.125119
 31
0.0
 11
109.821512
 21
718.333125
 31
0.0
 11
105.639159
 21
714.154413
 31
0.0
 11
103.842113
 21
708.355103
 31
0.0
  0
LINE
  5
107
100
AcDbEntity
  8
0
 62
7
100
AcDbLine
 10
115.622385
 20
711.160275
 30
0.0
 11
115.622385
 21
720.125119
 31
0.0
  0
SPLINE
  5
108
100
AcDbEntity
  8
0
 62
7
100
AcDbSpline
 70
0
 71
3
 72
10
 73
6
 74
4
 40
0.000000
 40
0.000000
 40
0.000000
 40
0.000000
 40
1.403461
 40
2.781457
 40
4.184918
 40
4.184918
 40
4.184918
 40
4.184918
 10
112.815750
 20
708.355103
 30
0.0
 10
112.959306
 20
708.804996
 30
0.0
 10
113.243812
 20
709.696621
 30
0.0
 10
114.280643
 20
710.732912
 30
0.0
 10
115.172416
 20
711.016954
 30
0.0
 10
115.622385
 20
711.160275
 30
0.0
 11
112.815750
 21
708.355103
 31
0.0
 11
113.349430
 21
709.653135
 31
0.0
 11
114.324075
 21
710.627271
 31
0.0
 11
115.622385
 21
711.160275
 31
0.0
  0
LINE
  5
109
100
AcDbEntity
  8
0
 62
7
100
AcDbLine
 10
112.817212
 20
707.019158
 30
0.0
 11
103.852373
 21
707.019158
 31
0.0
  0
SPLINE
  5
10a
100
AcDbEntity
  8
0
 62
7
100
AcDbSpline
 70
0
 71
3
 72
16
 73
12
 74
10
 40
0.000000
 40
0.000000
 40
0.000000
 40
0.000000
 40
6.071356
 40
11.983520
 40
18.054876
 40
20.381375
 40
24.702015
 40
27.028513
 40
28.431974
 40
29.809971
 40
31.213431
 40
31.213431
 40
31.213431
 40
31.213431
 10
103.852373
 20
707.019158
 30
0.0
 10
104.312577
 20
704.937851
 30
0.0
 10
105.220920
 20
700.829809
 30
0.0
 10
109.004098
 20
697.240970
 30
0.0
 10
116.184182
 20
693.235347
 30
0.0
 10
115.493384
 20
698.517964
 30
0.0
 10
115.234004
 20
700.875150
 30
0.0
 10
116.279867
 20
704.386064
 30
0.0
 10
114.206998
 20
704.585846
 30
0.0
 10
113.263297
 20
705.691290
 30
0.0
 10
112.966812
 20
706.573842
 30
0.0
 10
112.817212
 20
707.019158
 30
0.0
 11
103.852373
 21
707.019158
 31
0.0
 11
105.644366
 21
701.218285
 31
0.0
 11
109.823077
 21
697.035933
 31
0.0
 11
115.622385
 21
695.238885
 31
0.0
 11
115.622385
 21
697.565384
 31
0.0
 11
115.622385
 21
701.886024
 31
0.0
 11
115.622385
 21
704.212522
 31
0.0
 11
114.324353
 21
704.746203
 31
0.0
 11
113.350216
 21
705.720847
 31
0.0
 11
112.817212
 21
707.019158
 31
0.0
  0
LINE
  5
10b
100
AcDbEntity
  8
0
 62
7
100
AcDbLine
 10
116.958330
 20
704.213985
 30
0.0
 11
116.958330
 21
695.249145
 31
0.0
  0
SPLINE
  5
10c
100
AcDbEntity
  8
0
 62
7
100
AcDbSpline
 70
0
 71
3
 72
10
 73
6
 74
4
 40
0.000000
 40
0.000000
 40
0.000000
 40
0.000000
 40
1.403461
 40
2.781457
 40
4.184918
 40
4.184918
 40
4.184918
 40
4.184918
 10
119.764965
 20
707.019158
 30
0.0
 10
119.621409
 20
706.569264
 30
0.0
 10
119.336903
 20
705.677639
 30
0.0
 10
118.300072
 20
704.641348
 30
0.0
 10
117.408299
 20
704.357306
 30
0.0
 10
116.958330
 20
704.213985
 30
0.0
 11
119.764965
 21
707.019158
 31
0.0
 11
119.231285
 21
705.721125
 31
0.0
 11
118.256640
 21
704.746989
 31
0.0
 11
116.958330
 21
704.213985
 31
0.0
  0
LINE
  5
10d
100
AcDbEntity
  8
0
 62
7
100
AcDbLine
 10
128.738603
 20
707.019158
 30
0.0
 11
119.764965
 21
707.019158
 31
0.0
  0
LINE
  5
10e
100
AcDbEntity
  8
0
 62
3
100
AcDbLine
 10
90.748657
 20
734.671640
 30
0.0
 11
144.615185
 21
734.671640
 31
0.0
  0
LINE
  5
10f
100
AcDbEntity
  8
0
 62
3
100
AcDbLine
 10
144.615185
 20
734.671640
 30
0.0
 11
144.615185
 21
681.043465
 31
0.0
  0
LINE
  5
110
100
AcDbEntity
  8
0
 62
3
100
AcDbLine
 10
144.615185
 20
681.043465
 30
0.0
 11
90.748657
 21
681.043465
 31
0.0
  0
LINE
  5
111
100
AcDbEntity
  8
0
 62
3
100
AcDbLine
 10
90.748657
 20
681.043465
 30
0.0
 11
90.748657
 21
734.671640
 31
0.0
  0
LINE
  5
112
100
AcDbEntity
  8
0
 62
7
100
AcDbLine
 10
333.579648
 20
720.536323
 30
0.0
 11
333.419981
 21
720.376654
 31
0.0
  0
LINE
  5
113
100
AcDbEntity
  8
0
 62
7
100
AcDbLine
 10
333.419981
 20
720.376654
 30
0.0
 11
321.821350
 21
713.417182
 31
0.0
  0
LINE
  5
114
100
AcDbEntity
  8
0
 62
7
100
AcDbLine
 10
321.821350
 20
713.417182
 30
0.0
 11
324.518125
 21
712.996770
 31
0.0
  0
LINE
  5
115
100
AcDbEntity
  8
0
 62
7
100
AcDbLine
 10
324.518125
 20
712.996770
 30
0.0
 11
310.613831
 21
699.007515
 31
0.0
  0
LINE
  5
116
100
AcDbEntity
  8
0
 62
7
100
AcDbLine
 10
310.613831
 20
699.007515
 30
0.0
 11
307.906796
 21
699.022140
 31
0.0
  0
LINE
  5
117
100
AcDbEntity
  8
0
 62
7
100
AcDbLine
 10
307.906796
 20
699.022140
 30
0.0
 11
303.198791
 21
694.457685
 31
0.0
  0
LINE
  5
118
100
AcDbEntity
  8
0
 62
7
100
AcDbLine
 10
303.198791
 20
694.457685
 30
0.0
 11
307.298891
 21
694.343430
 31
0.0
  0
LINE
  5
119
100
AcDbEntity
  8
0
 62
7
100
AcDbLine
 10
307.298891
 20
694.343430
 30
0.0
 11
307.391171
 21
690.243330
 31
0.0
  0
LINE
  5
11a
100
AcDbEntity
  8
0
 62
7
100
AcDbLine
 10
307.391171
 20
690.243330
 30
0.0
 11
311.980526
 21
694.929368
 31
0.0
  0
LINE
  5
11b
100
AcDbEntity
  8
0
 62
7
100
AcDbLine
 10
311.980526
 20
694.929368
 30
0.0
 11
311.979026
 21
697.636395
 31
0.0
  0
LINE
  5
11c
100
AcDbEntity
  8
0
 62
7
100
AcDbLine
 10
311.979026
 20
697.636395
 30
0.0
 11
326.035668
 21
711.471847
 31
0.0
  0
LINE
  5
11d
100
AcDbEntity
  8
0
 62
7
100
AcDbLine
 10
326.035668
 20
711.471847
 30
0.0
 11
326.442896
 21
708.773603
 31
0.0
  0
LINE
  5
11e
100
AcDbEntity
  8
0
 62
7
100
AcDbLine
 10
326.442896
 20
708.773603
 30
0.0
 11
333.459491
 21
720.337081
 31
0.0
  0
LINE
  5
11f
100
AcDbEntity
  8
0
 62
7
100
AcDbLine
 10
333.459491
 20
720.337081
 30
0.0
 11
333.619158
 21
720.496749
 31
0.0
  0
LINE
  5
120
100
AcDbEntity
  8
0
 62
7
100
AcDbLine
 10
333.619158
 20
720.496749
 30
0.0
 11
333.519551
 21
720.436689
 31
0.0
  0
LINE
  5
121
100
AcDbEntity
  8
0
 62
7
100
AcDbLine
 10
333.519551
 20
720.436689
 30
0.0
 11
333.579648
 21
720.536323
 31
0.0
  0
LINE
  5
122
100
AcDbEntity
  8
0
 62
3
100
AcDbLine
 10
291.475706
 20
732.203912
 30
0.0
 11
345.342233
 21
732.203912
 31
0.0
  0
LINE
  5
123
100
AcDbEntity
  8
0
 62
3
100
AcDbLine
 10
345.342233
 20
732.203912
 30
0.0
 11
345.342233
 21
678.575737
 31
0.0
  0
LINE
  5
124
100
AcDbEntity
  8
0
 62
3
100
AcDbLine
 10
345.342233
 20
678.575737
 30
0.0
 11
291.475705
 21
678.575737
 31
0.0
  0
LINE
  5
125
100
AcDbEntity
  8
0
 62
3
100
AcDbLine
 10
291.475705
 20
678.575737
 30
0.0
 11
291.475706
 21
732.203912
 31
0.0
  0
SPLINE
  5
126
100
AcDbEntity
  8
0
 62
7
100
AcDbSpline
 70
0
 71
3
 72
10
 73
6
 74
4
 40
0.000000
 40
0.000000
 40
0.000000
 40
0.000000
 40
6.071356
 40
11.983520
 40
18.054876
 40
18.054876
 40
18.054876
 40
18.054876
 10
116.958330
 20
695.249145
 30
0.0
 10
118.971950
 20
695.655215
 30
0.0
 10
122.946394
 20
696.456707
 30
0.0
 10
127.525823
 20
701.032148
 30
0.0
 10
128.330778
 20
705.005892
 30
0.0
 10
128.738603
 20
707.019158
 30
0.0
 11
116.958330
 21
695.249145
 31
0.0
 11
122.759202
 21
697.041139
 31
0.0
 11
126.941555
 21
701.219849
 31
0.0
 11
128.738603
 21
707.019158
 31
0.0
  0
SPLINE
  5
127
100
AcDbEntity
  8
0
 62
7
100
AcDbSpline
 70
0
 71
3
 72
10
 73
6
 74
4
 40
0.000000
 40
0.000000
 40
0.000000
 40
0.000000
 40
1.211400
 40
2.349738
 40
3.367293
 40
3.367293
 40
3.367293
 40
3.367293
 10
416.398606
 20
720.666227
 30
0.0
 10
416.580710
 20
720.307186
 30
0.0
 10
416.933936
 20
719.610758
 30
0.0
 10
417.405018
 20
718.573060
 30
0.0
 10
417.437034
 20
717.848887
 30
0.0
 10
417.452146
 20
717.507086
 30
0.0
 11
416.398606
 21
720.666227
 31
0.0
 11
416.938407
 21
719.581744
 31
0.0
 11
417.346754
 21
718.519168
 31
0.0
 11
417.452146
 21
717.507086
 31
0.0
  0
SPLINE
  5
128
100
AcDbEntity
  8
0
 62
7
100
AcDbSpline
 70
0
 71
3
 72
31
 73
27
 74
25
 40
0.000000
 40
0.000000
 40
0.000000
 40
0.000000
 40
3.807224
 40
11.947747
 40
19.415349
 40
23.573500
 40
26.735942
 40
28.380062
 40
29.912053
 40
30.995801
 40
32.403038
 40
33.780722
 40
35.323613
 40
37.506341
 40
38.734402
 40
41.348566
 40
45.335354
 40
52.642993
 40
61.548277
 40
65.886692
 40
67.441831
 40
69.545617
 40
71.573552
 40
74.402267
 40
77.815938
 40
80.180584
 40
80.180584
 40
80.180584
 40
80.180584
 10
417.452146
 20
717.507086
 30
0.0
 10
416.737691
 20
716.458244
 30
0.0
 10
414.495606
 20
713.166791
 30
0.0
 10
410.726596
 20
707.903058
 30
0.0
 10
406.875299
 20
702.564012
 30
0.0
 10
403.998314
 20
698.547661
 30
0.0
 10
402.256087
 20
696.148018
 30
0.0
 10
400.953419
 20
694.428782
 30
0.0
 10
399.579612
 20
693.874921
 30
0.0
 10
398.918041
 20
692.552822
 30
0.0
 10
399.434747
 20
691.284975
 30
0.0
 10
400.806779
 20
690.191950
 30
0.0
 10
402.233287
 20
691.676598
 30
0.0
 10
403.229458
 20
692.856415
 30
0.0
 10
404.150489
 20
694.672368
 30
0.0
 10
405.426662
 20
696.940242
 30
0.0
 10
408.097580
 20
700.711868
 30
0.0
 10
411.841197
 20
706.553089
 30
0.0
 10
416.285137
 20
710.799865
 30
0.0
 10
418.048180
 20
717.353852
 30
0.0
 10
420.900229
 20
716.273222
 30
0.0
 10
422.259004
 20
715.014778
 30
0.0
 10
423.295549
 20
712.657319
 30
0.0
 10
421.404173
 20
710.165664
 30
0.0
 10
419.199037
 20
708.476601
 30
0.0
 10
417.860214
 20
707.074206
 30
0.0
 10
417.312331
 20
706.500307
 30
0.0
 11
417.452146
 21
717.507086
 31
0.0
 11
415.300936
 21
714.365869
 31
0.0
 11
410.592923
 21
707.724880
 31
0.0
 11
406.231898
 21
701.662987
 31
0.0
 11
403.805083
 21
698.286482
 31
0.0
 11
401.937766
 21
695.734195
 31
0.0
 11
400.830811
 21
694.518555
 31
0.0
 11
399.576868
 21
693.638429
 31
0.0
 11
399.111751
 21
692.659564
 31
0.0
 11
399.569153
 21
691.328737
 31
0.0
 11
400.730034
 21
690.586868
 31
0.0
 11
402.004323
 21
691.456752
 31
0.0
 11
403.354073
 21
693.172118
 31
0.0
 11
403.942575
 21
694.249985
 31
0.0
 11
405.232969
 21
696.523470
 31
0.0
 11
407.450431
 21
699.836677
 31
0.0
 11
411.646902
 21
705.819254
 31
0.0
 11
416.691205
 21
713.158129
 31
0.0
 11
419.138221
 21
716.740581
 31
0.0
 11
420.626776
 21
716.290403
 31
0.0
 11
422.180705
 21
714.872229
 31
0.0
 11
422.856541
 21
712.960222
 31
0.0
 11
421.502690
 21
710.476533
 31
0.0
 11
418.979692
 21
708.177047
 31
0.0
 11
417.312331
 21
706.500307
 31
0.0
  0
SPLINE
  5
129
100
AcDbEntity
  8
0
 62
7
100
AcDbSpline
 70
0
 71
3
 72
10
 73
6
 74
4
 40
0.000000
 40
0.000000
 40
0.000000
 40
0.000000
 40
8.284954
 40
14.937018
 40
19.143458
 40
19.143458
 40
19.143458
 40
19.143458
 10
417.312331
 20
706.500307
 30
0.0
 10
420.090588
 20
706.792192
 30
0.0
 10
425.099533
 20
707.318433
 30
0.0
 10
430.351762
 20
712.427666
 30
0.0
 10
430.104121
 20
716.149607
 30
0.0
 10
430.008188
 20
717.591437
 30
0.0
 11
417.312331
 21
706.500307
 31
0.0
 11
425.366898
 21
708.440519
 31
0.0
 11
429.811746
 21
713.389587
 31
0.0
 11
430.008188
 21
717.591437
 31
0.0
  0
SPLINE
  5
12a
100
AcDbEntity
  8
0
 62
7
100
AcDbSpline
 70
0
 71
3
 72
10
 73
6
 74
4
 40
0.000000
 40
0.000000
 40
0.000000
 40
0.000000
 40
3.791567
 40
6.916107
 40
10.031581
 40
10.031581
 40
10.031581
 40
10.031581
 10
430.008188
 20
717.591437
 30
0.0
 10
428.745785
 20
717.570844
 30
0.0
 10
426.443066
 20
717.533280
 30
0.0
 10
423.082019
 20
717.770903
 30
0.0
 10
421.106633
 20
718.449173
 30
0.0
 10
420.120376
 20
718.787816
 30
0.0
 11
430.008188
 21
717.591437
 31
0.0
 11
426.216621
 21
717.590184
 31
0.0
 11
423.107893
 21
717.904118
 31
0.0
 11
420.120376
 21
718.787816
 31
0.0
  0
SPLINE
  5
12b
100
AcDbEntity
  8
0
 62
7
100
AcDbSpline
 70
0
 71
3
 72
10
 73
6
 74
4
 40
0.000000
 40
0.000000
 40
0.000000
 40
0.000000
 40
1.660181
 40
2.693005
 40
4.496831
 40
4.496831
 40
4.496831
 40
4.496831
 10
420.120376
 20
718.787816
 30
0.0
 10
420.344782
 20
719.380264
 30
0.0
 10
420.708794
 20
720.341284
 30
0.0
 10
419.059275
 20
721.397504
 30
0.0
 10
418.499662
 20
720.360985
 30
0.0
 10
418.143803
 20
719.701862
 30
0.0
 11
420.120376
 21
718.787816
 31
0.0
 11
420.279826
 21
720.440322
 31
0.0
 11
419.405848
 21
720.990673
 31
0.0
 11
418.143803
 21
719.701862
 31
0.0
  0
LINE
  5
12c
100
AcDbEntity
  8
0
 62
7
100
AcDbLine
 10
416.398606
 20
720.666227
 30
0.0
 11
416.398606
 21
720.666227
 31
0.0
  0
LINE
  5
12d
100
AcDbEntity
  8
0
 62
3
100
AcDbLine
 10
387.865613
 20
732.605668
 30
0.0
 11
441.732141
 21
732.605668
 31
0.0
  0
LINE
  5
12e
100
AcDbEntity
  8
0
 62
3
100
AcDbLine
 10
441.732141
 20
732.605668
 30
0.0
 11
441.732141
 21
678.977493
 31
0.0
  0
LINE
  5
12f
100
AcDbEntity
  8
0
 62
3
100
AcDbLine
 10
441.732141
 20
678.977493
 30
0.0
 11
387.865613
 21
678.977493
 31
0.0
  0
LINE
  5
130
100
AcDbEntity
  8
0
 62
3
100
AcDbLine
 10
387.865613
 20
678.977493
 30
0.0
 11
387.865613
 21
732.605668
 31
0.0
  0
SPLINE
  5
131
100
AcDbEntity
  8
0
 62
7
100
AcDbSpline
 70
0
 71
3
 72
10
 73
6
 74
4
 40
0.000000
 40
0.000000
 40
0.000000
 40
0.000000
 40
0.632782
 40
1.296617
 40
1.994124
 40
1.994124
 40
1.994124
 40
1.994124
 10
418.143803
 20
719.701862
 30
0.0
 10
417.956961
 20
719.799752
 30
0.0
 10
417.574108
 20
720.000336
 30
0.0
 10
416.992574
 20
720.322433
 30
0.0
 10
416.599833
 20
720.549755
 30
0.0
 10
416.398606
 20
720.666227
 30
0.0
 11
418.143803
 21
719.701862
 31
0.0
 11
417.584403
 21
719.997640
 31
0.0
 11
417.003406
 21
720.318762
 31
0.0
 11
416.398606
 21
720.666227
 31
0.0
  0
SPLINE
  5
132
100
AcDbEntity
  8
0
 62
7
100
AcDbSpline
 70
0
 71
3
 72
34
 73
30
 74
28
 40
0.000000
 40
0.000000
 40
0.000000
 40
0.000000
 40
1.530890
 40
4.807482
 40
7.962005
 40
10.793950
 40
13.698602
 40
16.259350
 40
19.344101
 40
23.278930
 40
25.788485
 40
26.987645
 40
29.268803
 40
32.010681
 40
34.255216
 40
36.589192
 40
39.255336
 40
42.371877
 40
46.018906
 40
49.642181
 40
52.405394
 40
55.447511
 40
57.345024
 40
59.384587
 40
62.169387
 40
64.942603
 40
66.917286
 40
68.980687
 40
70.773409
 40
70.773409
 40
70.773409
 40
70.773409
 10
512.689867
 20
694.709945
 30
0.0
 10
512.479844
 20
695.176123
 30
0.0
 10
511.820303
 20
696.640072
 30
0.0
 10
510.521754
 20
698.916181
 30
0.0
 10
508.616248
 20
701.555444
 30
0.0
 10
505.492901
 20
702.139282
 30
0.0
 10
502.830398
 20
701.716469
 30
0.0
 10
499.755369
 20
701.955019
 30
0.0
 10
497.926638
 20
704.971147
 30
0.0
 10
496.002263
 20
706.993438
 30
0.0
 10
496.450255
 20
711.163692
 30
0.0
 10
498.531891
 20
709.615692
 30
0.0
 10
498.749831
 20
707.557300
 30
0.0
 10
500.631636
 20
705.691326
 30
0.0
 10
503.019194
 20
704.987932
 30
0.0
 10
505.488487
 20
705.256333
 30
0.0
 10
507.865158
 20
706.912944
 30
0.0
 10
508.569996
 20
710.311458
 30
0.0
 10
507.043332
 20
713.466531
 30
0.0
 10
505.447791
 20
716.575537
 30
0.0
 10
502.233631
 20
717.704559
 30
0.0
 10
499.735486
 20
717.174316
 30
0.0
 10
497.336180
 20
719.192355
 30
0.0
 10
499.745060
 20
721.110587
 30
0.0
 10
502.204714
 20
720.749694
 30
0.0
 10
504.754872
 20
720.432874
 30
0.0
 10
506.690561
 20
719.136196
 30
0.0
 10
507.905805
 20
717.596241
 30
0.0
 10
508.525443
 20
716.469460
 30
0.0
 10
508.813515
 20
715.945617
 30
0.0
 11
512.689867
 21
694.709945
 31
0.0
 11
512.047169
 21
696.099392
 31
0.0
 11
510.430701
 21
698.949495
 31
0.0
 11
508.307903
 21
701.282892
 31
0.0
 11
505.560945
 21
701.971466
 31
0.0
 11
502.660210
 21
701.820678
 31
0.0
 11
500.139847
 21
702.273672
 31
0.0
 11
498.073908
 21
704.564433
 31
0.0
 11
496.340432
 21
708.096846
 31
0.0
 11
497.017673
 21
710.513292
 31
0.0
 11
498.026751
 21
709.865415
 31
0.0
 11
498.965651
 21
707.786437
 31
0.0
 11
500.861760
 21
705.805865
 31
0.0
 11
503.006189
 21
705.143021
 31
0.0
 11
505.322943
 21
705.426023
 31
0.0
 11
507.465218
 21
707.013155
 31
0.0
 11
508.211933
 21
710.038918
 31
0.0
 11
507.017812
 21
713.484916
 31
0.0
 11
504.937162
 21
716.451230
 31
0.0
 11
502.350514
 21
717.423133
 31
0.0
 11
499.327806
 21
717.766221
 31
0.0
 11
498.027143
 21
719.147825
 31
0.0
 11
499.448141
 21
720.610897
 31
0.0
 11
502.229119
 21
720.756737
 31
0.0
 11
504.937162
 21
720.159050
 31
0.0
 11
506.592181
 21
719.081883
 31
0.0
 11
507.909521
 21
717.493728
 31
0.0
 11
508.813515
 21
715.945617
 31
0.0
  0
SPLINE
  5
133
100
AcDbEntity
  8
0
 62
7
100
AcDbSpline
 70
0
 71
3
 72
19
 73
15
 74
13
 40
0.000000
 40
0.000000
 40
0.000000
 40
0.000000
 40
1.752093
 40
4.186336
 40
6.139990
 40
8.476090
 40
10.501924
 40
11.467750
 40
13.923615
 40
16.566258
 40
19.428951
 40
21.313766
 40
23.693686
 40
25.769520
 40
25.769520
 40
25.769520
 40
25.769520
 10
508.813515
 20
715.945617
 30
0.0
 10
509.196846
 20
716.405282
 30
0.0
 10
510.112754
 20
717.503574
 30
0.0
 10
510.174215
 20
719.632255
 30
0.0
 10
509.914599
 20
721.977864
 30
0.0
 10
507.949549
 20
723.214636
 30
0.0
 10
505.699718
 20
722.911851
 30
0.0
 10
505.415507
 20
725.151044
 30
0.0
 10
508.180315
 20
725.690357
 30
0.0
 10
510.465044
 20
724.578962
 30
0.0
 10
512.389163
 20
722.741082
 30
0.0
 10
512.755202
 20
720.330277
 30
0.0
 10
512.719691
 20
718.212604
 30
0.0
 10
513.153466
 20
716.781074
 30
0.0
 10
513.355553
 20
716.114157
 30
0.0
 11
508.813515
 21
715.945617
 31
0.0
 11
509.810415
 21
717.386457
 31
0.0
 11
510.113367
 21
719.801775
 31
0.0
 11
509.686883
 21
721.708310
 31
0.0
 11
507.713959
 21
722.959283
 31
0.0
 11
505.759818
 21
723.493453
 31
0.0
 11
505.631760
 21
724.450752
 31
0.0
 11
507.895325
 21
725.403403
 31
0.0
 11
510.368125
 21
724.471298
 31
0.0
 11
512.282985
 21
722.343312
 31
0.0
 11
512.682330
 21
720.501288
 31
0.0
 11
512.848858
 21
718.127201
 31
0.0
 11
513.355553
 21
716.114157
 31
0.0
  0
SPLINE
  5
134
100
AcDbEntity
  8
0
 62
7
100
AcDbSpline
 70
0
 71
3
 72
19
 73
15
 74
13
 40
0.000000
 40
0.000000
 40
0.000000
 40
0.000000
 40
1.548452
 40
3.142284
 40
4.774319
 40
6.356936
 40
7.991109
 40
9.093385
 40
10.421181
 40
12.195437
 40
14.112580
 40
16.475772
 40
18.993263
 40
21.189792
 40
21.189792
 40
21.189792
 40
21.189792
 10
513.355553
 20
716.114157
 30
0.0
 10
513.679938
 20
716.533151
 30
0.0
 10
514.338216
 20
717.383417
 30
0.0
 10
514.387994
 20
719.024045
 30
0.0
 10
514.566037
 20
720.632789
 30
0.0
 10
513.727708
 20
722.175557
 30
0.0
 10
512.299994
 20
722.737677
 30
0.0
 10
512.088958
 20
724.497711
 30
0.0
 10
513.990735
 20
724.669318
 30
0.0
 10
515.061222
 20
723.306835
 30
0.0
 10
516.361533
 20
721.746484
 30
0.0
 10
516.736354
 20
719.388141
 30
0.0
 10
516.201512
 20
717.075954
 30
0.0
 10
516.335333
 20
715.500127
 30
0.0
 10
516.397687
 20
714.765860
 30
0.0
 11
513.355553
 21
716.114157
 31
0.0
 11
514.176814
 21
717.426876
 31
0.0
 11
514.408543
 21
719.003773
 31
0.0
 11
514.393935
 21
720.635742
 31
0.0
 11
513.613857
 21
722.012752
 31
0.0
 11
512.396093
 21
723.102509
 31
0.0
 11
512.352795
 21
724.203935
 31
0.0
 11
513.652916
 21
724.473616
 31
0.0
 11
515.032014
 21
723.357340
 31
0.0
 11
516.128670
 21
721.784832
 31
0.0
 11
516.578282
 21
719.464805
 31
0.0
 11
516.317026
 21
716.960906
 31
0.0
 11
516.397687
 21
714.765860
 31
0.0
  0
LINE
  5
135
100
AcDbEntity
  8
0
 62
7
100
AcDbLine
 10
512.689867
 20
694.709945
 30
0.0
 11
512.689867
 21
694.709945
 31
0.0
  0
LINE
  5
136
100
AcDbEntity
  8
0
 62
3
100
AcDbLine
 10
481.637595
 20
735.605963
 30
0.0
 11
535.504123
 21
735.605963
 31
0.0
  0
LINE
  5
137
100
AcDbEntity
  8
0
 62
3
100
AcDbLine
 10
535.504123
 20
735.605963
 30
0.0
 11
535.504123
 21
681.977787
 31
0.0
  0
LINE
  5
138
100
AcDbEntity
  8
0
 62
3
100
AcDbLine
 10
535.504123
 20
681.977787
 30
0.0
 11
481.637595
 21
681.977787
 31
0.0
  0
LINE
  5
139
100
AcDbEntity
  8
0
 62
3
100
AcDbLine
 10
481.637595
 20
681.977787
 30
0.0
 11
481.637595
 21
735.605963
 31
0.0
  0
LINE
  5
13a
100
AcDbEntity
  8
0
 62
7
100
AcDbLine
 10
604.364040
 20
725.979068
 30
0.0
 11
604.364040
 21
714.846255
 31
0.0
  0
SPLINE
  5
13b
100
AcDbEntity
  8
0
 62
7
100
AcDbSpline
 70
0
 71
3
 72
28
 73
24
 74
22
 40
0.000000
 40
0.000000
 40
0.000000
 40
0.000000
 40
0.914533
 40
1.843768
 40
2.563567
 40
4.260772
 40
5.833807
 40
6.906219
 40
8.227423
 40
10.058833
 40
12.069043
 40
13.826483
 40
16.434498
 40
18.822830
 40
21.343788
 40
23.654583
 40
26.576266
 40
28.229160
 40
29.963961
 40
30.780135
 40
33.941771
 40
37.653903
 40
43.519205
 40
43.519205
 40
43.519205
 40
43.519205
 10
516.397687
 20
714.765860
 30
0.0
 10
516.683551
 20
714.927311
 30
0.0
 10
517.259875
 20
715.252809
 30
0.0
 10
517.247280
 20
716.200713
 30
0.0
 10
517.385958
 20
717.279489
 30
0.0
 10
517.623423
 20
718.648302
 30
0.0
 10
516.685153
 20
720.013262
 30
0.0
 10
517.771991
 20
721.378559
 30
0.0
 10
519.300368
 20
720.272202
 30
0.0
 10
519.151731
 20
718.471415
 30
0.0
 10
519.275112
 20
716.630655
 30
0.0
 10
519.187905
 20
714.498500
 30
0.0
 10
518.996079
 20
712.258049
 30
0.0
 10
518.836844
 20
709.756330
 30
0.0
 10
518.478308
 20
707.370592
 30
0.0
 10
518.524283
 20
704.779949
 30
0.0
 10
519.343866
 20
702.502174
 30
0.0
 10
521.019762
 20
701.130664
 30
0.0
 10
522.182697
 20
700.482650
 30
0.0
 10
524.313706
 20
699.925571
 30
0.0
 10
521.164193
 20
696.826426
 30
0.0
 10
518.182688
 20
694.896850
 30
0.0
 10
514.776094
 20
694.780933
 30
0.0
 10
512.689867
 20
694.709944
 30
0.0
 11
516.397687
 21
714.765860
 31
0.0
 11
517.111258
 21
715.337862
 31
0.0
 11
517.270524
 21
716.253347
 31
0.0
 11
517.349325
 21
716.968819
 31
0.0
 11
517.388081
 21
718.665582
 31
0.0
 11
517.035364
 21
720.198562
 31
0.0
 11
517.745985
 21
721.001734
 31
0.0
 11
518.899569
 21
720.357665
 31
0.0
 11
519.201254
 21
718.551274
 31
0.0
 11
519.242377
 21
716.541485
 31
0.0
 11
519.189121
 21
714.784852
 31
0.0
 11
518.999669
 21
712.183727
 31
0.0
 11
518.806567
 21
709.803215
 31
0.0
 11
518.540987
 21
707.296285
 31
0.0
 11
518.636083
 21
704.987447
 31
0.0
 11
519.768427
 21
702.294117
 31
0.0
 11
521.006889
 21
701.199461
 31
0.0
 11
522.550551
 21
700.407855
 31
0.0
 11
523.307707
 21
700.103135
 31
0.0
 11
521.644897
 21
697.414082
 31
0.0
 11
518.511602
 21
695.423507
 31
0.0
 11
512.689867
 21
694.709945
 31
0.0
  0
SPLINE
  5
13c
100
AcDbEntity
  8
0
 62
7
100
AcDbSpline
 70
0
 71
3
 72
10
 73
6
 74
4
 40
0.000000
 40
0.000000
 40
0.000000
 40
0.000000
 40
3.387496
 40
6.768574
 40
10.151655
 40
10.151655
 40
10.151655
 40
10.151655
 10
604.364040
 20
714.846255
 30
0.0
 10
605.492194
 20
714.793516
 30
0.0
 10
607.746364
 20
714.688139
 30
0.0
 10
611.111664
 20
714.308293
 30
0.0
 10
613.335683
 20
713.936501
 30
0.0
 10
614.448022
 20
713.750550
 30
0.0
 11
604.364040
 21
714.846255
 31
0.0
 11
607.745904
 21
714.650998
 31
0.0
 11
611.106423
 21
714.278712
 31
0.0
 11
614.448022
 21
713.750550
 31
0.0
  0
LINE
  5
13d
100
AcDbEntity
  8
0
 62
7
100
AcDbLine
 10
604.364040
 20
725.979068
 30
0.0
 11
604.364040
 21
725.979068
 31
0.0
  0
SPLINE
  5
13e
100
AcDbEntity
  8
0
 62
7
100
AcDbSpline
 70
0
 71
3
 72
10
 73
6
 74
4
 40
0.000000
 40
0.000000
 40
0.000000
 40
0.000000
 40
6.692725
 40
11.775864
 40
17.459681
 40
17.459681
 40
17.459681
 40
17.459681
 10
614.448022
 20
713.750550
 30
0.0
 10
614.018802
 20
715.916813
 30
0.0
 10
613.263588
 20
719.728357
 30
0.0
 10
610.121976
 20
725.228007
 30
0.0
 10
606.353433
 20
725.719573
 30
0.0
 10
604.364040
 20
725.979068
 30
0.0
 11
614.448022
 21
713.750550
 31
0.0
 11
612.719875
 21
720.216311
 31
0.0
 11
609.821917
 21
724.392451
 31
0.0
 11
604.364040
 21
725.979068
 31
0.0
  0
SPLINE
  5
13f
100
AcDbEntity
  8
0
 62
7
100
AcDbSpline
 70
0
 71
3
 72
10
 73
6
 74
4
 40
0.000000
 40
0.000000
 40
0.000000
 40
0.000000
 40
6.135268
 40
11.413651
 40
17.681863
 40
17.681863
 40
17.681863
 40
17.681863
 10
602.172630
 20
725.924842
 30
0.0
 10
600.076198
 20
725.542147
 30
0.0
 10
596.176133
 20
724.830204
 30
0.0
 10
592.618119
 20
719.570915
 30
0.0
 10
591.950238
 20
715.781363
 30
0.0
 10
591.587670
 20
713.724158
 30
0.0
 11
602.172630
 21
725.924843
 31
0.0
 11
596.346621
 21
724.001530
 31
0.0
 11
593.163269
 21
719.791115
 31
0.0
 11
591.587670
 21
713.724158
 31
0.0
  0
LINE
  5
140
100
AcDbEntity
  8
0
 62
7
100
AcDbLine
 10
602.172630
 20
714.869663
 30
0.0
 11
602.172630
 21
725.924843
 31
0.0
  0
SPLINE
  5
141
100
AcDbEntity
  8
0
 62
7
100
AcDbSpline
 70
0
 71
3
 72
10
 73
6
 74
4
 40
0.000000
 40
0.000000
 40
0.000000
 40
0.000000
 40
3.613120
 40
7.160789
 40
10.662811
 40
10.662811
 40
10.662811
 40
10.662811
 10
591.587670
 20
713.724158
 30
0.0
 10
592.770994
 20
713.950132
 30
0.0
 10
595.116206
 20
714.397988
 30
0.0
 10
598.655980
 20
714.773221
 30
0.0
 10
601.005484
 20
714.837654
 30
0.0
 10
602.172630
 20
714.869663
 30
0.0
 11
591.587670
 21
713.724158
 31
0.0
 11
595.145784
 21
714.352217
 31
0.0
 11
598.673461
 21
714.728318
 31
0.0
 11
602.172630
 21
714.869663
 31
0.0
  0
LINE
  5
142
100
AcDbEntity
  8
0
 62
7
100
AcDbLine
 10
591.261015
 20
711.460973
 30
0.0
 11
591.556485
 21
707.856353
 31
0.0
  0
LINE
  5
143
100
AcDbEntity
  8
0
 62
7
100
AcDbLine
 10
591.556485
 20
707.856353
 30
0.0
 11
594.670552
 21
707.790128
 31
0.0
  0
SPLINE
  5
144
100
AcDbEntity
  8
0
 62
7
100
AcDbSpline
 70
0
 71
3
 72
10
 73
6
 74
4
 40
0.000000
 40
0.000000
 40
0.000000
 40
0.000000
 40
4.153601
 40
8.313338
 40
12.503317
 40
12.503317
 40
12.503317
 40
12.503317
 10
603.690210
 20
712.591830
 30
0.0
 10
602.305345
 20
712.587711
 30
0.0
 10
599.533570
 20
712.579466
 30
0.0
 10
595.374484
 20
712.211311
 30
0.0
 10
592.635478
 20
711.711688
 30
0.0
 10
591.261015
 20
711.460973
 30
0.0
 11
603.690210
 21
712.591830
 31
0.0
 11
599.537223
 21
712.520425
 31
0.0
 11
595.394082
 21
712.149218
 31
0.0
 11
591.261015
 21
711.460973
 31
0.0
  0
LINE
  5
145
100
AcDbEntity
  8
0
 62
7
100
AcDbLine
 10
601.766715
 20
707.359222
 30
0.0
 11
602.043727
 21
700.304753
 31
0.0
  0
LINE
  5
146
100
AcDbEntity
  8
0
 62
7
100
AcDbLine
 10
602.043727
 20
700.304753
 30
0.0
 11
604.487085
 21
700.244678
 31
0.0
  0
LINE
  5
147
100
AcDbEntity
  8
0
 62
7
100
AcDbLine
 10
604.487085
 20
700.244678
 30
0.0
 11
604.427010
 21
707.285115
 31
0.0
  0
SPLINE
  5
148
100
AcDbEntity
  8
0
 62
7
100
AcDbSpline
 70
0
 71
3
 72
10
 73
6
 74
4
 40
0.000000
 40
0.000000
 40
0.000000
 40
0.000000
 40
2.922751
 40
5.890797
 40
8.308518
 40
8.308518
 40
8.308518
 40
8.308518
 10
594.670552
 20
707.790128
 30
0.0
 10
595.448829
 20
708.380076
 30
0.0
 10
597.017444
 20
709.569115
 30
0.0
 10
600.256701
 20
709.646481
 30
0.0
 10
601.298874
 20
708.067874
 30
0.0
 10
601.766715
 20
707.359222
 30
0.0
 11
594.670552
 21
707.790128
 31
0.0
 11
597.184605
 21
709.280770
 31
0.0
 11
600.150067
 21
709.156950
 31
0.0
 11
601.766715
 21
707.359222
 31
0.0
  0
LINE
  5
149
100
AcDbEntity
  8
0
 62
7
100
AcDbLine
 10
611.970187
 20
707.512253
 30
0.0
 11
614.613030
 21
707.767245
 31
0.0
  0
LINE
  5
14a
100
AcDbEntity
  8
0
 62
7
100
AcDbLine
 10
614.613030
 20
707.767245
 30
0.0
 11
614.935800
 21
711.472710
 31
0.0
  0
SPLINE
  5
14b
100
AcDbEntity
  8
0
 62
7
100
AcDbSpline
 70
0
 71
3
 72
10
 73
6
 74
4
 40
0.000000
 40
0.000000
 40
0.000000
 40
0.000000
 40
2.952519
 40
6.006962
 40
9.921072
 40
9.921072
 40
9.921072
 40
9.921072
 10
604.427010
 20
707.285115
 30
0.0
 10
604.822893
 20
708.261076
 30
0.0
 10
605.628325
 20
710.246690
 30
0.0
 10
609.650456
 20
710.555100
 30
0.0
 10
611.135862
 20
708.606657
 30
0.0
 10
611.970187
 20
707.512253
 30
0.0
 11
604.427010
 21
707.285115
 31
0.0
 11
606.008415
 21
709.778411
 31
0.0
 11
609.044542
 21
710.112417
 31
0.0
 11
611.970187
 21
707.512253
 31
0.0
  0
LINE
  5
14c
100
AcDbEntity
  8
0
 62
7
100
AcDbLine
 10
603.690195
 20
712.591845
 30
0.0
 11
603.690210
 21
712.591830
 31
0.0
  0
SPLINE
  5
14d
100
AcDbEntity
  8
0
 62
7
100
AcDbSpline
 70
0
 71
3
 72
10
 73
6
 74
4
 40
0.000000
 40
0.000000
 40
0.000000
 40
0.000000
 40
3.797218
 40
7.565162
 40
11.311238
 40
11.311238
 40
11.311238
 40
11.311238
 10
614.935800
 20
711.472710
 30
0.0
 10
613.685969
 20
711.673475
 30
0.0
 10
611.195943
 20
712.073457
 30
0.0
 10
607.441982
 20
712.459751
 30
0.0
 10
604.938362
 20
712.547899
 30
0.0
 10
603.690195
 20
712.591845
 30
0.0
 11
614.935800
 21
711.472710
 31
0.0
 11
611.181094
 21
712.039324
 31
0.0
 11
607.432241
 21
712.418136
 31
0.0
 11
603.690195
 21
712.591845
 31
0.0
  0
SPLINE
  5
14e
100
AcDbEntity
  8
0
 62
7
100
AcDbSpline
 70
0
 71
3
 72
19
 73
15
 74
13
 40
0.000000
 40
0.000000
 40
0.000000
 40
0.000000
 40
0.767664
 40
2.306108
 40
3.528320
 40
4.431531
 40
5.203337
 40
6.078512
 40
7.129224
 40
8.476745
 40
9.145806
 40
9.796920
 40
10.758131
 40
12.136686
 40
12.136686
 40
12.136686
 40
12.136686
 10
599.351228
 20
708.022965
 30
0.0
 10
599.377901
 20
707.767904
 30
0.0
 10
599.458029
 20
707.001684
 30
0.0
 10
599.504750
 20
705.845207
 30
0.0
 10
599.316151
 20
704.555313
 30
0.0
 10
598.510720
 20
703.932105
 30
0.0
 10
597.707329
 20
703.624355
 30
0.0
 10
596.758491
 20
703.754290
 30
0.0
 10
595.934532
 20
704.522221
 30
0.0
 10
595.161563
 20
705.133903
 30
0.0
 10
594.646981
 20
705.984140
 30
0.0
 10
593.808089
 20
705.856826
 30
0.0
 10
592.849329
 20
706.044607
 30
0.0
 10
592.062104
 20
706.009438
 30
0.0
 10
591.598282
 20
705.988718
 30
0.0
 11
599.351228
 21
708.022965
 31
0.0
 11
599.425752
 21
707.258927
 31
0.0
 11
599.453453
 21
705.720733
 31
0.0
 11
599.140523
 21
704.539260
 31
0.0
 11
598.456154
 21
703.949828
 31
0.0
 11
597.726624
 21
703.697897
 31
0.0
 11
596.860005
 21
703.819980
 31
0.0
 11
596.009109
 21
704.436398
 31
0.0
 11
595.043813
 21
705.376620
 31
0.0
 11
594.584243
 21
705.862867
 31
0.0
 11
593.934513
 21
705.905314
 31
0.0
 11
592.976837
 21
705.987676
 31
0.0
 11
591.598282
 21
705.988718
 31
0.0
  0
SPLINE
  5
14f
100
AcDbEntity
  8
0
 62
7
100
AcDbSpline
 70
0
 71
3
 72
10
 73
6
 74
4
 40
0.000000
 40
0.000000
 40
0.000000
 40
0.000000
 40
3.235961
 40
7.122237
 40
10.833965
 40
10.833965
 40
10.833965
 40
10.833965
 10
591.598282
 20
705.988718
 30
0.0
 10
591.687683
 20
704.914666
 30
0.0
 10
591.884450
 20
702.550717
 30
0.0
 10
592.723148
 20
698.986135
 30
0.0
 10
594.032771
 20
696.803202
 30
0.0
 10
594.672540
 20
695.736810
 30
0.0
 11
591.598282
 21
705.988718
 31
0.0
 11
591.939682
 21
702.770816
 31
0.0
 11
592.925400
 21
699.011627
 31
0.0
 11
594.672540
 21
695.736810
 31
0.0
  0
SPLINE
  5
150
100
AcDbEntity
  8
0
 62
7
100
AcDbSpline
 70
0
 71
3
 72
13
 73
9
 74
7
 40
0.000000
 40
0.000000
 40
0.000000
 40
0.000000
 40
3.038208
 40
5.639997
 40
8.101121
 40
8.661370
 40
9.742152
 40
11.173836
 40
11.173836
 40
11.173836
 40
11.173836
 10
594.672540
 20
695.736810
 30
0.0
 10
594.657583
 20
696.759493
 30
0.0
 10
594.629818
 20
698.657958
 30
0.0
 10
594.073871
 20
701.219017
 30
0.0
 10
593.023246
 20
703.145503
 30
0.0
 10
594.057800
 20
704.422162
 30
0.0
 10
595.002895
 20
703.402145
 30
0.0
 10
595.654493
 20
702.985078
 30
0.0
 10
596.025795
 20
702.747420
 30
0.0
 11
594.672540
 21
695.736810
 31
0.0
 11
594.523410
 21
698.771356
 31
0.0
 11
593.906163
 21
701.298867
 31
0.0
 11
593.548252
 21
703.733828
 31
0.0
 11
593.937115
 21
704.137144
 31
0.0
 11
594.872543
 21
703.595789
 31
0.0
 11
596.025795
 21
702.747420
 31
0.0
  0
SPLINE
  5
151
100
AcDbEntity
  8
0
 62
7
100
AcDbSpline
 70
0
 71
3
 72
10
 73
6
 74
4
 40
0.000000
 40
0.000000
 40
0.000000
 40
0.000000
 40
1.638046
 40
3.169653
 40
4.728256
 40
4.728256
 40
4.728256
 40
4.728256
 10
596.025795
 20
702.747420
 30
0.0
 10
596.522267
 20
702.482563
 30
0.0
 10
597.482951
 20
701.970059
 30
0.0
 10
599.135817
 20
702.357797
 30
0.0
 10
599.935929
 20
703.010894
 30
0.0
 10
600.339480
 20
703.340295
 30
0.0
 11
596.025795
 21
702.747420
 31
0.0
 11
597.554561
 21
702.159143
 31
0.0
 11
599.057564
 21
702.453767
 31
0.0
 11
600.339480
 21
703.340295
 31
0.0
  0
LINE
  5
152
100
AcDbEntity
  8
0
 62
7
100
AcDbLine
 10
599.351227
 20
708.022965
 30
0.0
 11
599.351228
 21
708.022965
 31
0.0
  0
SPLINE
  5
153
100
AcDbEntity
  8
0
 62
7
100
AcDbSpline
 70
0
 71
3
 72
13
 73
9
 74
7
 40
0.000000
 40
0.000000
 40
0.000000
 40
0.000000
 40
1.402718
 40
2.994811
 40
3.771348
 40
4.345728
 40
4.913580
 40
5.531961
 40
5.531961
 40
5.531961
 40
5.531961
 10
600.339480
 20
703.340295
 30
0.0
 10
600.529028
 20
703.776544
 30
0.0
 10
600.933713
 20
704.707939
 30
0.0
 10
600.779988
 20
705.988651
 30
0.0
 10
600.770927
 20
706.972399
 30
0.0
 10
600.467956
 20
707.578139
 30
0.0
 10
599.926158
 20
707.855706
 30
0.0
 10
599.548237
 20
707.965651
 30
0.0
 10
599.351227
 20
708.022965
 30
0.0
 11
600.339480
 21
703.340295
 31
0.0
 11
600.792562
 21
704.667825
 31
0.0
 11
600.787071
 21
706.259908
 31
0.0
 11
600.701198
 21
707.031683
 31
0.0
 11
600.423649
 21
707.534553
 31
0.0
 11
599.938756
 21
707.830079
 31
0.0
 11
599.351227
 21
708.022965
 31
0.0
  0
SPLINE
  5
154
100
AcDbEntity
  8
0
 62
7
100
AcDbSpline
 70
0
 71
3
 72
19
 73
15
 74
13
 40
0.000000
 40
0.000000
 40
0.000000
 40
0.000000
 40
0.767664
 40
2.306108
 40
3.528320
 40
4.431531
 40
5.203337
 40
6.078512
 40
7.129224
 40
8.476745
 40
9.145806
 40
9.796920
 40
10.758131
 40
12.136686
 40
12.136686
 40
12.136686
 40
12.136686
 10
606.776348
 20
708.022965
 30
0.0
 10
606.749674
 20
707.767904
 30
0.0
 10
606.669546
 20
707.001684
 30
0.0
 10
606.622825
 20
705.845207
 30
0.0
 10
606.811424
 20
704.555313
 30
0.0
 10
607.616855
 20
703.932105
 30
0.0
 10
608.420246
 20
703.624355
 30
0.0
 10
609.369084
 20
703.754290
 30
0.0
 10
610.193043
 20
704.522221
 30
0.0
 10
610.966012
 20
705.133903
 30
0.0
 10
611.480594
 20
705.984140
 30
0.0
 10
612.319486
 20
705.856826
 30
0.0
 10
613.278246
 20
706.044607
 30
0.0
 10
614.065471
 20
706.009438
 30
0.0
 10
614.529292
 20
705.988718
 30
0.0
 11
606.776347
 21
708.022965
 31
0.0
 11
606.701823
 21
707.258927
 31
0.0
 11
606.674122
 21
705.720733
 31
0.0
 11
606.987053
 21
704.539260
 31
0.0
 11
607.671421
 21
703.949828
 31
0.0
 11
608.400951
 21
703.697897
 31
0.0
 11
609.267570
 21
703.819980
 31
0.0
 11
610.118466
 21
704.436398
 31
0.0
 11
611.083762
 21
705.376620
 31
0.0
 11
611.543332
 21
705.862867
 31
0.0
 11
612.193062
 21
705.905314
 31
0.0
 11
613.150738
 21
705.987676
 31
0.0
 11
614.529292
 21
705.988718
 31
0.0
  0
SPLINE
  5
155
100
AcDbEntity
  8
0
 62
7
100
AcDbSpline
 70
0
 71
3
 72
10
 73
6
 74
4
 40
0.000000
 40
0.000000
 40
0.000000
 40
0.000000
 40
3.235961
 40
7.122237
 40
10.833965
 40
10.833965
 40
10.833965
 40
10.833965
 10
614.529292
 20
705.988718
 30
0.0
 10
614.439892
 20
704.914666
 30
0.0
 10
614.243125
 20
702.550717
 30
0.0
 10
613.404427
 20
698.986135
 30
0.0
 10
612.094804
 20
696.803202
 30
0.0
 10
611.455035
 20
695.736810
 30
0.0
 11
614.529292
 21
705.988718
 31
0.0
 11
614.187893
 21
702.770816
 31
0.0
 11
613.202175
 21
699.011627
 31
0.0
 11
611.455035
 21
695.736810
 31
0.0
  0
SPLINE
  5
156
100
AcDbEntity
  8
0
 62
7
100
AcDbSpline
 70
0
 71
3
 72
13
 73
9
 74
7
 40
0.000000
 40
0.000000
 40
0.000000
 40
0.000000
 40
3.038208
 40
5.639997
 40
8.101121
 40
8.661370
 40
9.742152
 40
11.173836
 40
11.173836
 40
11.173836
 40
11.173836
 10
611.455035
 20
695.736810
 30
0.0
 10
611.469992
 20
696.759493
 30
0.0
 10
611.497757
 20
698.657958
 30
0.0
 10
612.053704
 20
701.219017
 30
0.0
 10
613.104329
 20
703.145503
 30
0.0
 10
612.069775
 20
704.422162
 30
0.0
 10
611.124680
 20
703.402145
 30
0.0
 10
610.473082
 20
702.985078
 30
0.0
 10
610.101780
 20
702.747420
 30
0.0
 11
611.455035
 21
695.736810
 31
0.0
 11
611.604165
 21
698.771356
 31
0.0
 11
612.221412
 21
701.298867
 31
0.0
 11
612.579322
 21
703.733828
 31
0.0
 11
612.190460
 21
704.137144
 31
0.0
 11
611.255032
 21
703.595789
 31
0.0
 11
610.101780
 21
702.747420
 31
0.0
  0
SPLINE
  5
157
100
AcDbEntity
  8
0
 62
7
100
AcDbSpline
 70
0
 71
3
 72
10
 73
6
 74
4
 40
0.000000
 40
0.000000
 40
0.000000
 40
0.000000
 40
1.638046
 40
3.169653
 40
4.728256
 40
4.728256
 40
4.728256
 40
4.728256
 10
610.101780
 20
702.747420
 30
0.0
 10
609.605308
 20
702.482563
 30
0.0
 10
608.644624
 20
701.970059
 30
0.0
 10
606.991758
 20
702.357797
 30
0.0
 10
606.191646
 20
703.010894
 30
0.0
 10
605.788095
 20
703.340295
 30
0.0
 11
610.101780
 21
702.747420
 31
0.0
 11
608.573014
 21
702.159143
 31
0.0
 11
607.070011
 21
702.453767
 31
0.0
 11
605.788095
 21
703.340295
 31
0.0
  0
LINE
  5
158
100
AcDbEntity
  8
0
 62
7
100
AcDbLine
 10
606.776348
 20
708.022965
 30
0.0
 11
606.776347
 21
708.022965
 31
0.0
  0
LINE
  5
159
100
AcDbEntity
  8
0
 62
3
100
AcDbLine
 10
575.755410
 20
738.377738
 30
0.0
 11
629.621938
 21
738.377738
 31
0.0
  0
LINE
  5
15a
100
AcDbEntity
  8
0
 62
3
100
AcDbLine
 10
629.621938
 20
738.377738
 30
0.0
 11
629.621938
 21
684.749562
 31
0.0
  0
LINE
  5
15b
100
AcDbEntity
  8
0
 62
3
100
AcDbLine
 10
629.621938
 20
684.749562
 30
0.0
 11
575.755410
 21
684.749562
 31
0.0
  0
LINE
  5
15c
100
AcDbEntity
  8
0
 62
3
100
AcDbLine
 10
575.755410
 20
684.749562
 30
0.0
 11
575.755410
 21
738.377738
 31
0.0
  0
LINE
  5
15d
100
AcDbEntity
  8
0
 62
7
100
AcDbLine
 10
202.499197
 20
734.028930
 30
0.0
 11
202.499197
 21
721.709595
 31
0.0
  0
LINE
  5
15e
100
AcDbEntity
  8
0
 62
7
100
AcDbLine
 10
202.499197
 20
721.709595
 30
0.0
 11
207.886897
 21
721.709595
 31
0.0
  0
LINE
  5
15f
100
AcDbEntity
  8
0
 62
7
100
AcDbLine
 10
207.886897
 20
721.709595
 30
0.0
 11
207.886897
 21
728.666138
 31
0.0
  0
LINE
  5
160
100
AcDbEntity
  8
0
 62
7
100
AcDbLine
 10
207.886897
 20
728.666138
 30
0.0
 11
214.938652
 21
728.666138
 31
0.0
  0
LINE
  5
161
100
AcDbEntity
  8
0
 62
7
100
AcDbLine
 10
214.938652
 20
728.666138
 30
0.0
 11
214.938652
 21
734.028930
 31
0.0
  0
LINE
  5
162
100
AcDbEntity
  8
0
 62
7
100
AcDbLine
 10
214.938652
 20
734.028930
 30
0.0
 11
202.499197
 21
734.028930
 31
0.0
  0
LINE
  5
163
100
AcDbEntity
  8
0
 62
7
100
AcDbLine
 10
221.679863
 20
734.028930
 30
0.0
 11
221.679863
 21
728.666137
 31
0.0
  0
LINE
  5
164
100
AcDbEntity
  8
0
 62
7
100
AcDbLine
 10
221.679863
 20
728.666137
 30
0.0
 11
237.185235
 21
728.666137
 31
0.0
  0
LINE
  5
165
100
AcDbEntity
  8
0
 62
7
100
AcDbLine
 10
237.185235
 20
728.666137
 30
0.0
 11
237.185235
 21
734.028930
 31
0.0
  0
LINE
  5
166
100
AcDbEntity
  8
0
 62
7
100
AcDbLine
 10
237.185235
 20
734.028930
 30
0.0
 11
221.679863
 21
734.028930
 31
0.0
  0
LINE
  5
167
100
AcDbEntity
  8
0
 62
7
100
AcDbLine
 10
243.926445
 20
734.028930
 30
0.0
 11
243.926445
 21
728.666137
 31
0.0
  0
LINE
  5
168
100
AcDbEntity
  8
0
 62
7
100
AcDbLine
 10
243.926445
 20
728.666137
 30
0.0
 11
250.979670
 21
728.666137
 31
0.0
  0
LINE
  5
169
100
AcDbEntity
  8
0
 62
7
100
AcDbLine
 10
250.979670
 20
728.666137
 30
0.0
 11
250.979670
 21
721.709595
 31
0.0
  0
LINE
  5
16a
100
AcDbEntity
  8
0
 62
7
100
AcDbLine
 10
250.979670
 20
721.709595
 30
0.0
 11
256.365900
 21
721.709595
 31
0.0
  0
LINE
  5
16b
100
AcDbEntity
  8
0
 62
7
100
AcDbLine
 10
256.365900
 20
721.709595
 30
0.0
 11
256.365900
 21
734.028930
 31
0.0
  0
LINE
  5
16c
100
AcDbEntity
  8
0
 62
7
100
AcDbLine
 10
256.365900
 20
734.028930
 30
0.0
 11
243.926445
 21
734.028930
 31
0.0
  0
LINE
  5
16d
100
AcDbEntity
  8
0
 62
7
100
AcDbLine
 10
202.499197
 20
714.968385
 30
0.0
 11
202.499197
 21
699.461550
 31
0.0
  0
LINE
  5
16e
100
AcDbEntity
  8
0
 62
7
100
AcDbLine
 10
202.499197
 20
699.461550
 30
0.0
 11
207.886897
 21
699.461550
 31
0.0
  0
LINE
  5
16f
100
AcDbEntity
  8
0
 62
7
100
AcDbLine
 10
207.886897
 20
699.461550
 30
0.0
 11
207.886897
 21
714.968385
 31
0.0
  0
LINE
  5
170
100
AcDbEntity
  8
0
 62
7
100
AcDbLine
 10
207.886897
 20
714.968385
 30
0.0
 11
202.499197
 21
714.968385
 31
0.0
  0
LINE
  5
171
100
AcDbEntity
  8
0
 62
7
100
AcDbLine
 10
250.979670
 20
714.968385
 30
0.0
 11
250.979670
 21
699.461550
 31
0.0
  0
LINE
  5
172
100
AcDbEntity
  8
0
 62
7
100
AcDbLine
 10
250.979670
 20
699.461550
 30
0.0
 11
256.365900
 21
699.461550
 31
0.0
  0
LINE
  5
173
100
AcDbEntity
  8
0
 62
7
100
AcDbLine
 10
256.365900
 20
699.461550
 30
0.0
 11
256.365900
 21
714.968385
 31
0.0
  0
LINE
  5
174
100
AcDbEntity
  8
0
 62
7
100
AcDbLine
 10
256.365900
 20
714.968385
 30
0.0
 11
250.979670
 21
714.968385
 31
0.0
  0
LINE
  5
175
100
AcDbEntity
  8
0
 62
7
100
AcDbLine
 10
202.499197
 20
692.720340
 30
0.0
 11
202.499197
 21
680.401005
 31
0.0
  0
LINE
  5
176
100
AcDbEntity
  8
0
 62
7
100
AcDbLine
 10
202.499197
 20
680.401005
 30
0.0
 11
214.938652
 21
680.401005
 31
0.0
  0
LINE
  5
177
100
AcDbEntity
  8
0
 62
7
100
AcDbLine
 10
214.938652
 20
680.401005
 30
0.0
 11
214.938652
 21
685.763798
 31
0.0
  0
LINE
  5
178
100
AcDbEntity
  8
0
 62
7
100
AcDbLine
 10
214.938652
 20
685.763798
 30
0.0
 11
207.886897
 21
685.763798
 31
0.0
  0
LINE
  5
179
100
AcDbEntity
  8
0
 62
7
100
AcDbLine
 10
207.886897
 20
685.763798
 30
0.0
 11
207.886897
 21
692.720340
 31
0.0
  0
LINE
  5
17a
100
AcDbEntity
  8
0
 62
7
100
AcDbLine
 10
207.886897
 20
692.720340
 30
0.0
 11
202.499197
 21
692.720340
 31
0.0
  0
LINE
  5
17b
100
AcDbEntity
  8
0
 62
7
100
AcDbLine
 10
250.979670
 20
692.720340
 30
0.0
 11
250.979670
 21
685.763798
 31
0.0
  0
LINE
  5
17c
100
AcDbEntity
  8
0
 62
7
100
AcDbLine
 10
250.979670
 20
685.763798
 30
0.0
 11
243.926445
 21
685.763798
 31
0.0
  0
LINE
  5
17d
100
AcDbEntity
  8
0
 62
7
100
AcDbLine
 10
243.926445
 20
685.763798
 30
0.0
 11
243.926445
 21
680.401005
 31
0.0
  0
LINE
  5
17e
100
AcDbEntity
  8
0
 62
7
100
AcDbLine
 10
243.926445
 20
680.401005
 30
0.0
 11
256.365900
 21
680.401005
 31
0.0
  0
LINE
  5
17f
100
AcDbEntity
  8
0
 62
7
100
AcDbLine
 10
256.365900
 20
680.401005
 30
0.0
 11
256.365900
 21
692.720340
 31
0.0
  0
LINE
  5
180
100
AcDbEntity
  8
0
 62
7
100
AcDbLine
 10
256.365900
 20
692.720340
 30
0.0
 11
250.979670
 21
692.720340
 31
0.0
  0
LINE
  5
181
100
AcDbEntity
  8
0
 62
7
100
AcDbLine
 10
221.679862
 20
685.763798
 30
0.0
 11
221.679862
 21
680.401005
 31
0.0
  0
LINE
  5
182
100
AcDbEntity
  8
0
 62
7
100
AcDbLine
 10
221.679862
 20
680.401005
 30
0.0
 11
237.185235
 21
680.401005
 31
0.0
  0
LINE
  5
183
100
AcDbEntity
  8
0
 62
7
100
AcDbLine
 10
237.185235
 20
680.401005
 30
0.0
 11
237.185235
 21
685.763798
 31
0.0
  0
LINE
  5
184
100
AcDbEntity
  8
0
 62
7
100
AcDbLine
 10
237.185235
 20
685.763798
 30
0.0
 11
221.679862
 21
685.763798
 31
0.0
  0
SPLINE
  5
185
100
AcDbEntity
  8
0
 62
7
100
AcDbSpline
 70
0
 71
3
 72
13
 73
9
 74
7
 40
0.000000
 40
0.000000
 40
0.000000
 40
0.000000
 40
1.402718
 40
2.994811
 40
3.771348
 40
4.345728
 40
4.913580
 40
5.531961
 40
5.531961
 40
5.531961
 40
5.531961
 10
605.788095
 20
703.340295
 30
0.0
 10
605.598547
 20
703.776544
 30
0.0
 10
605.193862
 20
704.707939
 30
0.0
 10
605.347587
 20
705.988651
 30
0.0
 10
605.356648
 20
706.972399
 30
0.0
 10
605.659619
 20
707.578139
 30
0.0
 10
606.201417
 20
707.855706
 30
0.0
 10
606.579338
 20
707.965651
 30
0.0
 10
606.776348
 20
708.022965
 30
0.0
 11
605.788095
 21
703.340295
 31
0.0
 11
605.335013
 21
704.667825
 31
0.0
 11
605.340504
 21
706.259908
 31
0.0
 11
605.426378
 21
707.031683
 31
0.0
 11
605.703926
 21
707.534553
 31
0.0
 11
606.188819
 21
707.830079
 31
0.0
 11
606.776348
 21
708.022965
 31
0.0
  0
ENDSEC
  0
SECTION
  2
OBJECTS
  0
DICTIONARY
  5
C
330
0
100
AcDbDictionary
  3
ACAD_GROUP
350
D
  3
ACAD_MLINESTYLE
350
17
  0
DICTIONARY
  5
D
330
C
100
AcDbDictionary
  0
DICTIONARY
  5
1A
330
C
100
AcDbDictionary
  0
DICTIONARY
  5
17
330
C
100
AcDbDictionary
  3
STANDARD
350
18
  0
DICTIONARY
  5
19
330
C
100
AcDbDictionary
  0
ENDSEC
  0
EOF
