  0
SECTION
  2
HEADER
  9
$ACADVER
  1
AC1014
  9
$HANDSEED
  5
FFFF
  9
$MEASUREMENT
 70
     1
  0
ENDSEC
  0
SECTION
  2
TABLES
  0
TABLE
  2
VPORT
  5
8
330
0
100
AcDbSymbolTable
 70
     4
  0
VPORT
  5
2E
330
8
100
AcDbSymbolTableRecord
100
AcDbViewportTableRecord
  2
*ACTIVE
 70
     0
 10
0.0
 20
0.0
 11
1.0
 21
1.0
 12
210.0
 22
148.5
 13
0.0
 23
0.0
 14
10.0
 24
10.0
 15
10.0
 25
10.0
 16
0.0
 26
0.0
 36
1.0
 17
0.0
 27
0.0
 37
0.0
 40
341.0
 41
1.24
 42
50.0
 43
0.0
 44
0.0
 50
0.0
 51
0.0
 71
     0
 72
   100
 73
     1
 74
     3
 75
     0
 76
     0
 77
     0
 78
     0
  0
ENDTAB
  0
TABLE
  2
LTYPE
  5
5
330
0
100
AcDbSymbolTable
 70
     1
  0
LTYPE
  5
14
330
5
100
AcDbSymbolTableRecord
100
AcDbLinetypeTableRecord
  2
BYBLOCK
 70
     0
  3

 72
    65
 73
     0
 40
0.0
  0
LTYPE
  5
15
330
5
100
AcDbSymbolTableRecord
100
AcDbLinetypeTableRecord
  2
BYLAYER
 70
     0
  3

 72
    65
 73
     0
 40
0.0
  0
LTYPE
  5
16
330
5
100
AcDbSymbolTableRecord
100
AcDbLinetypeTableRecord
  2
CONTINUOUS
 70
     0
  3
Solid line
 72
    65
 73
     0
 40
0.0
  0
ENDTAB
  0
TABLE
  2
LAYER
  5
2
100
AcDbSymbolTable
 70
2
  0
LAYER
  5
50
100
AcDbSymbolTableRecord
100
AcDbLayerTableRecord
  2
0
 70
0
  6
CONTINUOUS
  0
LAYER
  5
51
100
AcDbSymbolTableRecord
100
AcDbLayerTableRecord
  2
Layer_1
 70
0
  6
CONTINUOUS
  0
ENDTAB
  0
TABLE
  2
STYLE
  5
3
330
0
100
AcDbSymbolTable
 70
     1
  0
STYLE
  5
11
330
3
100
AcDbSymbolTableRecord
100
AcDbTextStyleTableRecord
  2
STANDARD
 70
     0
 40
0.0
 41
1.0
 50
0.0
 71
     0
 42
2.5
  3
txt
  4

  0
ENDTAB
  0
TABLE
  2
VIEW
  5
6
330
0
100
AcDbSymbolTable
 70
     0
  0
ENDTAB
  0
TABLE
  2
UCS
  5
7
330
0
100
AcDbSymbolTable
 70
     0
  0
ENDTAB
  0
TABLE
  2
APPID
  5
9
330
0
100
AcDbSymbolTable
 70
     2
  0
APPID
  5
12
330
9
100
AcDbSymbolTableRecord
100
AcDbRegAppTableRecord
  2
ACAD
 70
     0
  0
ENDTAB
  0
TABLE
  2
DIMSTYLE
  5
A
330
0
100
AcDbSymbolTable
 70
     1
  0
DIMSTYLE
105
27
330
A
100
AcDbSymbolTableRecord
100
AcDbDimStyleTableRecord
  2
ISO-25
 70
     0
  3

  4

  5

  6

  7

 40
1.0
 41
2.5
 42
0.625
 43
3.75
 44
1.25
 45
0.0
 46
0.0
 47
0.0
 48
0.0
140
2.5
141
2.5
142
0.0
143
0.03937007874016
144
1.0
145
0.0
146
1.0
147
0.625
 71
     0
 72
     0
 73
     0
 74
     0
 75
     0
 76
     0
 77
     1
 78
     8
170
     0
171
     3
172
     1
173
     0
174
     0
175
     0
176
     0
177
     0
178
     0
270
     2
271
     2
272
     2
273
     2
274
     3
340
11
275
     0
280
     0
281
     0
282
     0
283
     0
284
     8
285
     0
286
     0
287
     3
288
     0
  0
ENDTAB
  0
TABLE
  2
BLOCK_RECORD
  5
1
330
0
100
AcDbSymbolTable
 70
     1
  0
BLOCK_RECORD
  5
1F
330
1
100
AcDbSymbolTableRecord
100
AcDbBlockTableRecord
  2
*MODEL_SPACE
  0
BLOCK_RECORD
  5
1B
330
1
100
AcDbSymbolTableRecord
100
AcDbBlockTableRecord
  2
*PAPER_SPACE
  0
ENDTAB
  0
ENDSEC
  0
SECTION
  2
BLOCKS
  0
BLOCK
  5
20
330
1F
100
AcDbEntity
  8
0
100
AcDbBlockBegin
  2
*MODEL_SPACE
 70
     0
 10
0.0
 20
0.0
 30
0.0
  3
*MODEL_SPACE
  1

  0
ENDBLK
  5
21
330
1F
100
AcDbEntity
  8
0
100
AcDbBlockEnd
  0
BLOCK
  5
1C
330
1B
100
AcDbEntity
 67
     1
  8
0
100
AcDbBlockBegin
  2
*PAPER_SPACE
  1

  0
ENDBLK
  5
1D
330
1B
100
AcDbEntity
 67
     1
  8
0
100
AcDbBlockEnd
  0
ENDSEC
  0
SECTION
  2
ENTITIES
  0
LINE
  5
100
100
AcDbEntity
  8
Layer_1
 62
7
100
AcDbLine
 10
52.313607
 20
626.157726
 30
0.0
 11
80.388780
 21
570.001844
 31
0.0
  0
LINE
  5
101
100
AcDbEntity
  8
Layer_1
 62
7
100
AcDbLine
 10
80.388780
 20
570.001844
 30
0.0
 11
52.313607
 21
513.845972
 31
0.0
  0
LINE
  5
102
100
AcDbEntity
  8
Layer_1
 62
7
100
AcDbLine
 10
52.313607
 20
513.845972
 30
0.0
 11
48.465797
 21
506.155890
 31
0.0
  0
LINE
  5
103
100
AcDbEntity
  8
Layer_1
 62
7
100
AcDbLine
 10
48.465797
 20
506.155890
 30
0.0
 11
63.845966
 21
498.465808
 31
0.0
  0
LINE
  5
104
100
AcDbEntity
  8
Layer_1
 62
7
100
AcDbLine
 10
63.845966
 20
498.465808
 30
0.0
 11
67.688237
 21
506.155890
 31
0.0
  0
LINE
  5
105
100
AcDbEntity
  8
Layer_1
 62
7
100
AcDbLine
 10
67.688237
 20
506.155890
 30
0.0
 11
90.000000
 21
550.779392
 31
0.0
  0
LINE
  5
106
100
AcDbEntity
  8
Layer_1
 62
7
100
AcDbLine
 10
90.000000
 20
550.779392
 30
0.0
 11
112.311763
 21
506.155890
 31
0.0
  0
LINE
  5
107
100
AcDbEntity
  8
Layer_1
 62
7
100
AcDbLine
 10
112.311763
 20
506.155890
 30
0.0
 11
116.154034
 21
498.465808
 31
0.0
  0
LINE
  5
108
100
AcDbEntity
  8
Layer_1
 62
7
100
AcDbLine
 10
116.154034
 20
498.465808
 30
0.0
 11
131.534203
 21
506.155890
 31
0.0
  0
LINE
  5
109
100
AcDbEntity
  8
Layer_1
 62
7
100
AcDbLine
 10
131.534203
 20
506.155890
 30
0.0
 11
127.686393
 21
513.845972
 31
0.0
  0
LINE
  5
10a
100
AcDbEntity
  8
Layer_1
 62
7
100
AcDbLine
 10
127.686393
 20
513.845972
 30
0.0
 11
99.611220
 21
570.001844
 31
0.0
  0
LINE
  5
10b
100
AcDbEntity
  8
Layer_1
 62
7
100
AcDbLine
 10
99.611220
 20
570.001844
 30
0.0
 11
127.686393
 21
626.157726
 31
0.0
  0
SPLINE
  5
10c
100
AcDbEntity
  8
Layer_1
 62
7
100
AcDbSpline
 70
0
 71
3
 72
16
 73
12
 74
10
 40
0.000000
 40
0.000000
 40
0.000000
 40
0.000000
 40
3.191689
 40
6.332104
 40
9.523793
 40
26.915861
 40
59.215416
 40
76.607484
 40
79.262522
 40
81.887394
 40
84.542432
 40
84.542432
 40
84.542432
 40
84.542432
 10
90.060900
 20
698.596211
 30
0.0
 10
88.993448
 20
698.485635
 30
0.0
 10
86.875693
 20
698.266258
 30
0.0
 10
84.056799
 20
696.528965
 30
0.0
 10
79.637559
 20
689.877801
 30
0.0
 10
72.689862
 20
673.666185
 30
0.0
 10
62.606106
 20
653.688893
 30
0.0
 10
54.052287
 20
638.472472
 30
0.0
 10
51.353437
 20
631.361626
 30
0.0
 10
51.348296
 20
628.636785
 30
0.0
 10
51.990613
 20
626.987220
 30
0.0
 10
52.313607
 20
626.157726
 30
0.0
 11
90.060900
 21
698.596211
 31
0.0
 11
86.920422
 21
698.026753
 31
0.0
 11
84.242846
 21
696.385781
 31
0.0
 11
82.309915
 21
693.845966
 31
0.0
 11
74.533095
 21
678.289453
 31
0.0
 11
60.090428
 21
649.398787
 31
0.0
 11
52.313607
 21
633.842274
 31
0.0
 11
51.507910
 21
631.312436
 31
0.0
 11
51.507910
 21
628.687564
 31
0.0
 11
52.313607
 21
626.157726
 31
0.0
  0
LINE
  5
10d
100
AcDbEntity
  8
Layer_1
 62
7
100
AcDbLine
 10
90.060900
 20
698.596211
 30
0.0
 11
90.060900
 21
698.596211
 31
0.0
  0
LINE
  5
10e
100
AcDbEntity
  8
Layer_1
 62
7
100
AcDbLine
 10
90.000000
 20
670.775715
 30
0.0
 11
110.390624
 21
630.000000
 31
0.0
  0
LINE
  5
10f
100
AcDbEntity
  8
Layer_1
 62
7
100
AcDbLine
 10
110.390624
 20
630.000000
 30
0.0
 11
90.000000
 21
589.218749
 31
0.0
  0
LINE
  5
110
100
AcDbEntity
  8
Layer_1
 62
7
100
AcDbLine
 10
90.000000
 20
589.218749
 30
0.0
 11
69.609376
 21
630.000000
 31
0.0
  0
LINE
  5
111
100
AcDbEntity
  8
Layer_1
 62
7
100
AcDbLine
 10
69.609376
 20
630.000000
 30
0.0
 11
90.000000
 21
670.775715
 31
0.0
  0
SPLINE
  5
112
100
AcDbEntity
  8
Layer_1
 62
7
100
AcDbSpline
 70
0
 71
3
 72
16
 73
12
 74
10
 40
0.000000
 40
0.000000
 40
0.000000
 40
0.000000
 40
2.655038
 40
5.279910
 40
7.934949
 40
25.327017
 40
57.626571
 40
75.018639
 40
78.169796
 40
81.271518
 40
84.422675
 40
84.422675
 40
84.422675
 40
84.422675
 10
127.686393
 20
626.157726
 30
0.0
 10
128.009387
 20
626.987220
 30
0.0
 10
128.651705
 20
628.636785
 30
0.0
 10
128.646561
 20
631.361626
 30
0.0
 10
125.947735
 20
638.472482
 30
0.0
 10
117.392993
 20
653.688501
 30
0.0
 10
107.315089
 20
673.668334
 30
0.0
 10
100.361593
 20
689.862696
 30
0.0
 10
95.969417
 20
696.497101
 30
0.0
 10
93.200881
 20
698.230359
 30
0.0
 10
91.113062
 20
698.473619
 30
0.0
 10
90.060900
 20
698.596211
 30
0.0
 11
127.686393
 21
626.157726
 31
0.0
 11
128.492090
 21
628.687564
 31
0.0
 11
128.492090
 21
631.312436
 31
0.0
 11
127.686393
 21
633.842274
 31
0.0
 11
119.909572
 21
649.398787
 31
0.0
 11
105.466905
 21
678.289453
 31
0.0
 11
97.690085
 21
693.845966
 31
0.0
 11
95.787704
 21
696.358085
 31
0.0
 11
93.154662
 21
697.997526
 31
0.0
 11
90.060900
 21
698.596211
 31
0.0
  0
LINE
  5
113
100
AcDbEntity
  8
Layer_1
 62
7
100
AcDbLine
 10
141.405636
 20
689.998156
 30
0.0
 11
141.405636
 21
600.059055
 31
0.0
  0
LINE
  5
114
100
AcDbEntity
  8
Layer_1
 62
7
100
AcDbLine
 10
141.405636
 20
600.059055
 30
0.0
 11
141.405636
 21
509.998167
 31
0.0
  0
LINE
  5
115
100
AcDbEntity
  8
Layer_1
 62
7
100
AcDbLine
 10
141.405636
 20
509.998167
 30
0.0
 11
141.405636
 21
501.405647
 31
0.0
  0
LINE
  5
116
100
AcDbEntity
  8
Layer_1
 62
7
100
AcDbLine
 10
141.405636
 20
501.405647
 30
0.0
 11
158.596211
 21
501.405647
 31
0.0
  0
LINE
  5
117
100
AcDbEntity
  8
Layer_1
 62
7
100
AcDbLine
 10
158.596211
 20
501.405647
 30
0.0
 11
158.596211
 21
509.998167
 31
0.0
  0
LINE
  5
118
100
AcDbEntity
  8
Layer_1
 62
7
100
AcDbLine
 10
158.596211
 20
509.998167
 30
0.0
 11
158.596211
 21
571.607408
 31
0.0
  0
LINE
  5
119
100
AcDbEntity
  8
Layer_1
 62
7
100
AcDbLine
 10
158.596211
 20
571.607408
 30
0.0
 11
202.848795
 21
505.231313
 31
0.0
  0
LINE
  5
11a
100
AcDbEntity
  8
Layer_1
 62
7
100
AcDbLine
 10
202.848795
 20
505.231313
 30
0.0
 11
207.615651
 21
498.078255
 31
0.0
  0
LINE
  5
11b
100
AcDbEntity
  8
Layer_1
 62
7
100
AcDbLine
 10
207.615651
 20
498.078255
 30
0.0
 11
221.921751
 21
507.617490
 31
0.0
  0
LINE
  5
11c
100
AcDbEntity
  8
Layer_1
 62
7
100
AcDbLine
 10
221.921751
 20
507.617490
 30
0.0
 11
217.154897
 21
514.770548
 31
0.0
  0
LINE
  5
11d
100
AcDbEntity
  8
Layer_1
 62
7
100
AcDbLine
 10
217.154897
 20
514.770548
 30
0.0
 11
162.554749
 21
596.665230
 31
0.0
  0
LINE
  5
11e
100
AcDbEntity
  8
Layer_1
 62
7
100
AcDbLine
 10
162.554749
 20
596.665230
 30
0.0
 11
213.844119
 21
622.309915
 31
0.0
  0
SPLINE
  5
11f
100
AcDbEntity
  8
Layer_1
 62
7
100
AcDbSpline
 70
0
 71
3
 72
10
 73
6
 74
4
 40
0.000000
 40
0.000000
 40
0.000000
 40
0.000000
 40
4.452069
 40
8.774234
 40
13.226302
 40
13.226302
 40
13.226302
 40
13.226302
 10
149.870818
 20
698.596211
 30
0.0
 10
148.382752
 20
698.341471
 30
0.0
 10
145.450041
 20
697.839422
 30
0.0
 10
142.093487
 20
694.430182
 30
0.0
 10
141.637172
 20
691.490008
 30
0.0
 10
141.405636
 20
689.998156
 30
0.0
 11
149.870818
 21
698.596211
 31
0.0
 11
145.588386
 21
697.378963
 31
0.0
 11
142.556045
 21
694.299025
 31
0.0
 11
141.405636
 21
689.998156
 31
0.0
  0
LINE
  5
120
100
AcDbEntity
  8
Layer_1
 62
7
100
AcDbLine
 10
149.870818
 20
698.596211
 30
0.0
 11
149.870818
 21
698.596211
 31
0.0
  0
LINE
  5
121
100
AcDbEntity
  8
Layer_1
 62
7
100
AcDbLine
 10
158.596211
 20
669.242126
 30
0.0
 11
195.485360
 21
632.358513
 31
0.0
  0
LINE
  5
122
100
AcDbEntity
  8
Layer_1
 62
7
100
AcDbLine
 10
195.485360
 20
632.358513
 30
0.0
 11
158.596211
 21
613.911172
 31
0.0
  0
LINE
  5
123
100
AcDbEntity
  8
Layer_1
 62
7
100
AcDbLine
 10
158.596211
 20
613.911172
 30
0.0
 11
158.596211
 21
669.242126
 31
0.0
  0
SPLINE
  5
124
100
AcDbEntity
  8
Layer_1
 62
7
100
AcDbSpline
 70
0
 71
3
 72
19
 73
15
 74
13
 40
0.000000
 40
0.000000
 40
0.000000
 40
0.000000
 40
2.711487
 40
5.390910
 40
8.102397
 40
10.813885
 40
13.493307
 40
16.204795
 40
38.204011
 40
79.059699
 40
101.058915
 40
103.352091
 40
105.625590
 40
107.918766
 40
107.918766
 40
107.918766
 40
107.918766
 10
213.844119
 20
622.309915
 30
0.0
 10
214.618678
 20
622.790406
 30
0.0
 10
216.158636
 20
623.745706
 30
0.0
 10
217.762941
 20
625.999902
 30
0.0
 10
218.633384
 20
628.597886
 30
0.0
 10
218.630822
 20
631.339144
 30
0.0
 10
217.819206
 20
633.981453
 30
0.0
 10
211.976652
 20
641.109537
 30
0.0
 10
195.773613
 20
655.735857
 30
0.0
 10
175.804959
 20
675.818003
 30
0.0
 10
161.126693
 20
691.828498
 30
0.0
 10
154.328277
 20
697.564837
 30
0.0
 10
152.162185
 20
698.447049
 30
0.0
 10
150.636798
 20
698.546348
 30
0.0
 10
149.870818
 20
698.596211
 30
0.0
 11
213.844119
 21
622.309915
 31
0.0
 11
216.048252
 21
623.889143
 31
0.0
 11
217.635972
 21
626.047488
 31
0.0
 11
218.487308
 21
628.621860
 31
0.0
 11
218.494631
 21
631.333337
 31
0.0
 11
217.671746
 21
633.883272
 31
0.0
 11
216.080833
 21
636.078986
 31
0.0
 11
200.524320
 21
651.634063
 31
0.0
 11
171.633654
 21
680.522064
 31
0.0
 11
156.077141
 21
696.077141
 31
0.0
 11
154.254315
 21
697.468530
 31
0.0
 11
152.147729
 21
698.323568
 31
0.0
 11
149.870818
 21
698.596211
 31
0.0
  0
LINE
  5
125
100
AcDbEntity
  8
Layer_1
 62
7
100
AcDbLine
 10
231.405636
 20
689.998156
 30
0.0
 11
231.405636
 21
509.998167
 31
0.0
  0
LINE
  5
126
100
AcDbEntity
  8
Layer_1
 62
7
100
AcDbLine
 10
231.405636
 20
509.998167
 30
0.0
 11
231.405636
 21
501.405647
 31
0.0
  0
LINE
  5
127
100
AcDbEntity
  8
Layer_1
 62
7
100
AcDbLine
 10
231.405636
 20
501.405647
 30
0.0
 11
248.596211
 21
501.405647
 31
0.0
  0
LINE
  5
128
100
AcDbEntity
  8
Layer_1
 62
7
100
AcDbLine
 10
248.596211
 20
501.405647
 30
0.0
 11
248.596211
 21
509.998167
 31
0.0
  0
LINE
  5
129
100
AcDbEntity
  8
Layer_1
 62
7
100
AcDbLine
 10
248.596211
 20
509.998167
 30
0.0
 11
248.596211
 21
669.242126
 31
0.0
  0
LINE
  5
12a
100
AcDbEntity
  8
Layer_1
 62
7
100
AcDbLine
 10
248.596211
 20
669.242126
 30
0.0
 11
293.922850
 21
623.921015
 31
0.0
  0
LINE
  5
12b
100
AcDbEntity
  8
Layer_1
 62
7
100
AcDbLine
 10
293.922850
 20
623.921015
 30
0.0
 11
300.001833
 21
617.842029
 31
0.0
  0
LINE
  5
12c
100
AcDbEntity
  8
Layer_1
 62
7
100
AcDbLine
 10
300.001833
 20
617.842029
 30
0.0
 11
312.154271
 21
630.000000
 31
0.0
  0
LINE
  5
12d
100
AcDbEntity
  8
Layer_1
 62
7
100
AcDbLine
 10
312.154271
 20
630.000000
 30
0.0
 11
306.080844
 21
636.078986
 31
0.0
  0
LINE
  5
12e
100
AcDbEntity
  8
Layer_1
 62
7
100
AcDbLine
 10
306.080844
 20
636.078986
 30
0.0
 11
246.077141
 21
696.077141
 31
0.0
  0
SPLINE
  5
12f
100
AcDbEntity
  8
Layer_1
 62
7
100
AcDbSpline
 70
0
 71
3
 72
10
 73
6
 74
4
 40
0.000000
 40
0.000000
 40
0.000000
 40
0.000000
 40
4.452069
 40
8.774234
 40
13.226302
 40
13.226302
 40
13.226302
 40
13.226302
 10
239.870818
 20
698.596211
 30
0.0
 10
238.382752
 20
698.341471
 30
0.0
 10
235.450041
 20
697.839422
 30
0.0
 10
232.093487
 20
694.430182
 30
0.0
 10
231.637172
 20
691.490008
 30
0.0
 10
231.405636
 20
689.998156
 30
0.0
 11
239.870818
 21
698.596211
 31
0.0
 11
235.588386
 21
697.378963
 31
0.0
 11
232.556045
 21
694.299025
 31
0.0
 11
231.405636
 21
689.998156
 31
0.0
  0
LINE
  5
130
100
AcDbEntity
  8
Layer_1
 62
7
100
AcDbLine
 10
239.870818
 20
698.596211
 30
0.0
 11
239.870818
 21
698.596211
 31
0.0
  0
SPLINE
  5
131
100
AcDbEntity
  8
Layer_1
 62
7
100
AcDbSpline
 70
0
 71
3
 72
10
 73
6
 74
4
 40
0.000000
 40
0.000000
 40
0.000000
 40
0.000000
 40
2.293176
 40
4.566675
 40
6.859851
 40
6.859851
 40
6.859851
 40
6.859851
 10
246.077141
 20
696.077141
 30
0.0
 10
245.493099
 20
696.575032
 30
0.0
 10
244.330026
 20
697.566542
 30
0.0
 10
242.161745
 20
698.446620
 30
0.0
 10
240.636651
 20
698.546205
 30
0.0
 10
239.870818
 20
698.596211
 30
0.0
 11
246.077141
 21
696.077141
 31
0.0
 11
244.254315
 21
697.468530
 31
0.0
 11
242.147729
 21
698.323568
 31
0.0
 11
239.870818
 21
698.596211
 31
0.0
  0
LINE
  5
132
100
AcDbEntity
  8
Layer_1
 62
7
100
AcDbLine
 10
352.309918
 20
693.845966
 30
0.0
 11
322.313613
 21
633.842274
 31
0.0
  0
SPLINE
  5
133
100
AcDbEntity
  8
Layer_1
 62
7
100
AcDbSpline
 70
0
 71
3
 72
10
 73
6
 74
4
 40
0.000000
 40
0.000000
 40
0.000000
 40
0.000000
 40
3.191685
 40
6.332094
 40
9.523779
 40
9.523779
 40
9.523779
 40
9.523779
 10
360.060888
 20
698.596211
 30
0.0
 10
358.994041
 20
698.485346
 30
0.0
 10
356.877487
 20
698.265395
 30
0.0
 10
354.049688
 20
696.532355
 30
0.0
 10
352.892964
 20
694.746250
 30
0.0
 10
352.309918
 20
693.845966
 30
0.0
 11
360.060888
 21
698.596211
 31
0.0
 11
356.920416
 21
698.026749
 31
0.0
 11
354.242845
 21
696.385778
 31
0.0
 11
352.309918
 21
693.845966
 31
0.0
  0
LINE
  5
134
100
AcDbEntity
  8
Layer_1
 62
7
100
AcDbLine
 10
322.313613
 20
626.157726
 30
0.0
 11
350.388794
 21
570.001844
 31
0.0
  0
LINE
  5
135
100
AcDbEntity
  8
Layer_1
 62
7
100
AcDbLine
 10
350.388794
 20
570.001844
 30
0.0
 11
322.313613
 21
513.845972
 31
0.0
  0
LINE
  5
136
100
AcDbEntity
  8
Layer_1
 62
7
100
AcDbLine
 10
322.313613
 20
513.845972
 30
0.0
 11
318.465808
 21
506.155890
 31
0.0
  0
LINE
  5
137
100
AcDbEntity
  8
Layer_1
 62
7
100
AcDbLine
 10
318.465808
 20
506.155890
 30
0.0
 11
333.845972
 21
498.465808
 31
0.0
  0
LINE
  5
138
100
AcDbEntity
  8
Layer_1
 62
7
100
AcDbLine
 10
333.845972
 20
498.465808
 30
0.0
 11
337.688249
 21
506.155890
 31
0.0
  0
LINE
  5
139
100
AcDbEntity
  8
Layer_1
 62
7
100
AcDbLine
 10
337.688249
 20
506.155890
 30
0.0
 11
360.000000
 21
550.779392
 31
0.0
  0
LINE
  5
13a
100
AcDbEntity
  8
Layer_1
 62
7
100
AcDbLine
 10
360.000000
 20
550.779392
 30
0.0
 11
382.311751
 21
506.155890
 31
0.0
  0
LINE
  5
13b
100
AcDbEntity
  8
Layer_1
 62
7
100
AcDbLine
 10
382.311751
 20
506.155890
 30
0.0
 11
386.154028
 21
498.465808
 31
0.0
  0
LINE
  5
13c
100
AcDbEntity
  8
Layer_1
 62
7
100
AcDbLine
 10
386.154028
 20
498.465808
 30
0.0
 11
401.534192
 21
506.155890
 31
0.0
  0
LINE
  5
13d
100
AcDbEntity
  8
Layer_1
 62
7
100
AcDbLine
 10
401.534192
 20
506.155890
 30
0.0
 11
397.686387
 21
513.845972
 31
0.0
  0
LINE
  5
13e
100
AcDbEntity
  8
Layer_1
 62
7
100
AcDbLine
 10
397.686387
 20
513.845972
 30
0.0
 11
369.611206
 21
570.001844
 31
0.0
  0
LINE
  5
13f
100
AcDbEntity
  8
Layer_1
 62
7
100
AcDbLine
 10
369.611206
 20
570.001844
 30
0.0
 11
397.686387
 21
626.157726
 31
0.0
  0
SPLINE
  5
140
100
AcDbEntity
  8
Layer_1
 62
7
100
AcDbSpline
 70
0
 71
3
 72
10
 73
6
 74
4
 40
0.000000
 40
0.000000
 40
0.000000
 40
0.000000
 40
2.655038
 40
5.279910
 40
7.934949
 40
7.934949
 40
7.934949
 40
7.934949
 10
322.313613
 20
633.842274
 30
0.0
 10
321.990965
 20
633.012959
 30
0.0
 10
321.349337
 20
631.363751
 30
0.0
 10
321.349337
 20
628.636249
 30
0.0
 10
321.990965
 20
626.987041
 30
0.0
 10
322.313613
 20
626.157726
 30
0.0
 11
322.313613
 21
633.842274
 31
0.0
 11
321.507916
 21
631.312436
 31
0.0
 11
321.507916
 21
628.687564
 31
0.0
 11
322.313613
 21
626.157726
 31
0.0
  0
LINE
  5
141
100
AcDbEntity
  8
Layer_1
 62
7
100
AcDbLine
 10
397.686387
 20
633.842274
 30
0.0
 11
367.690082
 21
693.845966
 31
0.0
  0
SPLINE
  5
142
100
AcDbEntity
  8
Layer_1
 62
7
100
AcDbSpline
 70
0
 71
3
 72
10
 73
6
 74
4
 40
0.000000
 40
0.000000
 40
0.000000
 40
0.000000
 40
2.655038
 40
5.279910
 40
7.934949
 40
7.934949
 40
7.934949
 40
7.934949
 10
397.686387
 20
626.157726
 30
0.0
 10
398.009035
 20
626.987041
 30
0.0
 10
398.650663
 20
628.636249
 30
0.0
 10
398.650663
 20
631.363751
 30
0.0
 10
398.009035
 20
633.012959
 30
0.0
 10
397.686387
 20
633.842274
 30
0.0
 11
397.686387
 21
626.157726
 31
0.0
 11
398.492084
 21
628.687564
 31
0.0
 11
398.492084
 21
631.312436
 31
0.0
 11
397.686387
 21
633.842274
 31
0.0
  0
LINE
  5
143
100
AcDbEntity
  8
Layer_1
 62
7
100
AcDbLine
 10
360.060888
 20
698.596211
 30
0.0
 11
360.060888
 21
698.596211
 31
0.0
  0
LINE
  5
144
100
AcDbEntity
  8
Layer_1
 62
7
100
AcDbLine
 10
360.000000
 20
670.775715
 30
0.0
 11
380.390627
 21
630.000000
 31
0.0
  0
LINE
  5
145
100
AcDbEntity
  8
Layer_1
 62
7
100
AcDbLine
 10
380.390627
 20
630.000000
 30
0.0
 11
360.000000
 21
589.218749
 31
0.0
  0
LINE
  5
146
100
AcDbEntity
  8
Layer_1
 62
7
100
AcDbLine
 10
360.000000
 20
589.218749
 30
0.0
 11
339.609373
 21
630.000000
 31
0.0
  0
LINE
  5
147
100
AcDbEntity
  8
Layer_1
 62
7
100
AcDbLine
 10
339.609373
 20
630.000000
 30
0.0
 11
360.000000
 21
670.775715
 31
0.0
  0
LINE
  5
148
100
AcDbEntity
  8
Layer_1
 62
7
100
AcDbLine
 10
425.434904
 20
700.871678
 30
0.0
 11
409.124636
 21
695.434915
 31
0.0
  0
LINE
  5
149
100
AcDbEntity
  8
Layer_1
 62
7
100
AcDbLine
 10
409.124636
 20
695.434915
 30
0.0
 11
411.843005
 21
687.279773
 31
0.0
  0
LINE
  5
14a
100
AcDbEntity
  8
Layer_1
 62
7
100
AcDbLine
 10
411.843005
 20
687.279773
 30
0.0
 11
471.846699
 21
507.279770
 31
0.0
  0
LINE
  5
14b
100
AcDbEntity
  8
Layer_1
 62
7
100
AcDbLine
 10
471.846699
 20
507.279770
 30
0.0
 11
474.565096
 21
499.124636
 31
0.0
  0
LINE
  5
14c
100
AcDbEntity
  8
Layer_1
 62
7
100
AcDbLine
 10
474.565096
 20
499.124636
 30
0.0
 11
490.875364
 21
504.561402
 31
0.0
  0
LINE
  5
14d
100
AcDbEntity
  8
Layer_1
 62
7
100
AcDbLine
 10
490.875364
 20
504.561402
 30
0.0
 11
488.156995
 21
512.716535
 31
0.0
  0
LINE
  5
14e
100
AcDbEntity
  8
Layer_1
 62
7
100
AcDbLine
 10
488.156995
 20
512.716535
 30
0.0
 11
428.153301
 21
692.716535
 31
0.0
  0
LINE
  5
14f
100
AcDbEntity
  8
Layer_1
 62
7
100
AcDbLine
 10
428.153301
 20
692.716535
 30
0.0
 11
425.434904
 21
700.871678
 31
0.0
  0
LINE
  5
150
100
AcDbEntity
  8
Layer_1
 62
7
100
AcDbLine
 10
474.565096
 20
700.871678
 30
0.0
 11
471.846699
 21
692.716535
 31
0.0
  0
LINE
  5
151
100
AcDbEntity
  8
Layer_1
 62
7
100
AcDbLine
 10
471.846699
 20
692.716535
 30
0.0
 11
411.843005
 21
512.716535
 31
0.0
  0
LINE
  5
152
100
AcDbEntity
  8
Layer_1
 62
7
100
AcDbLine
 10
411.843005
 20
512.716535
 30
0.0
 11
409.124636
 21
504.561402
 31
0.0
  0
LINE
  5
153
100
AcDbEntity
  8
Layer_1
 62
7
100
AcDbLine
 10
409.124636
 20
504.561402
 30
0.0
 11
425.434904
 21
499.124636
 31
0.0
  0
LINE
  5
154
100
AcDbEntity
  8
Layer_1
 62
7
100
AcDbLine
 10
425.434904
 20
499.124636
 30
0.0
 11
428.153301
 21
507.279770
 31
0.0
  0
LINE
  5
155
100
AcDbEntity
  8
Layer_1
 62
7
100
AcDbLine
 10
428.153301
 20
507.279770
 30
0.0
 11
488.156995
 21
687.279773
 31
0.0
  0
LINE
  5
156
100
AcDbEntity
  8
Layer_1
 62
7
100
AcDbLine
 10
488.156995
 20
687.279773
 30
0.0
 11
490.875364
 21
695.434915
 31
0.0
  0
LINE
  5
157
100
AcDbEntity
  8
Layer_1
 62
7
100
AcDbLine
 10
490.875364
 20
695.434915
 30
0.0
 11
474.565096
 21
700.871678
 31
0.0
  0
SPLINE
  5
158
100
AcDbEntity
  8
Layer_1
 62
7
100
AcDbSpline
 70
0
 71
3
 72
10
 73
6
 74
4
 40
0.000000
 40
0.000000
 40
0.000000
 40
0.000000
 40
3.151160
 40
6.252885
 40
9.404044
 40
9.404044
 40
9.404044
 40
9.404044
 10
367.690082
 20
693.845966
 30
0.0
 10
367.115808
 20
694.735422
 30
0.0
 10
365.976268
 20
696.500379
 30
0.0
 10
363.199138
 20
698.229533
 30
0.0
 10
361.112471
 20
698.473343
 30
0.0
 10
360.060888
 20
698.596211
 30
0.0
 11
367.690082
 21
693.845966
 31
0.0
 11
365.787700
 21
696.358087
 31
0.0
 11
363.154654
 21
697.997528
 31
0.0
 11
360.060888
 21
698.596211
 31
0.0
  0
ENDSEC
  0
SECTION
  2
OBJECTS
  0
DICTIONARY
  5
C
330
0
100
AcDbDictionary
  3
ACAD_GROUP
350
D
  3
ACAD_MLINESTYLE
350
17
  0
DICTIONARY
  5
D
330
C
100
AcDbDictionary
  0
DICTIONARY
  5
1A
330
C
100
AcDbDictionary
  0
DICTIONARY
  5
17
330
C
100
AcDbDictionary
  3
STANDARD
350
18
  0
DICTIONARY
  5
19
330
C
100
AcDbDictionary
  0
ENDSEC
  0
EOF
