<?xml version="1.0" encoding="UTF-8" standalone="no"?>
<!-- Created with matplotlib (http://matplotlib.org/) -->

<svg
   xmlns:dc="http://purl.org/dc/elements/1.1/"
   xmlns:cc="http://creativecommons.org/ns#"
   xmlns:rdf="http://www.w3.org/1999/02/22-rdf-syntax-ns#"
   xmlns:svg="http://www.w3.org/2000/svg"
   xmlns="http://www.w3.org/2000/svg"
   xmlns:sodipodi="http://sodipodi.sourceforge.net/DTD/sodipodi-0.dtd"
   xmlns:inkscape="http://www.inkscape.org/namespaces/inkscape"
   height="340.36pt"
   version="1.1"
   viewBox="0 0 336.550731 340.36"
   width="336.550731pt"
   id="svg2"
   inkscape:version="0.48.5 r10040"
   sodipodi:docname="road.svg">
  <metadata
     id="metadata34">
    <rdf:RDF>
      <cc:Work
         rdf:about="">
        <dc:format>image/svg+xml</dc:format>
        <dc:type
           rdf:resource="http://purl.org/dc/dcmitype/StillImage" />
      </cc:Work>
    </rdf:RDF>
  </metadata>
  <sodipodi:namedview
     pagecolor="#ffffff"
     bordercolor="#666666"
     borderopacity="1"
     objecttolerance="10"
     gridtolerance="10"
     guidetolerance="10"
     inkscape:pageopacity="0"
     inkscape:pageshadow="2"
     inkscape:window-width="1680"
     inkscape:window-height="1024"
     id="namedview32"
     showgrid="false"
     inkscape:object-nodes="true"
     inkscape:object-paths="true"
     inkscape:zoom="1.5689478"
     inkscape:cx="437.07199"
     inkscape:cy="239.7663"
     inkscape:window-x="0"
     inkscape:window-y="0"
     inkscape:window-maximized="1"
     inkscape:current-layer="svg2" />
  <defs
     id="defs4">
    <style
       type="text/css"
       id="style6">
*{stroke-linecap:butt;stroke-linejoin:round;}
  </style>
    <clipPath
       id="pd2ed6a857e-3">
      <rect
         height="318.95999"
         width="315.15073"
         x="10.7"
         y="10.7"
         id="rect30-6" />
    </clipPath>
    <clipPath
       id="clipPath3047">
      <rect
         height="318.95999"
         width="315.15073"
         x="10.7"
         y="10.7"
         id="rect3049" />
    </clipPath>
    <clipPath
       id="pd2ed6a857e-6">
      <rect
         height="318.95999"
         width="315.15073"
         x="10.7"
         y="10.7"
         id="rect30-2" />
    </clipPath>
    <clipPath
       id="clipPath3092">
      <rect
         height="318.95999"
         width="315.15073"
         x="10.7"
         y="10.7"
         id="rect3094" />
    </clipPath>
  </defs>
  <g
     id="matplotlib.axis_1"
     style="stroke-linecap:butt;stroke-linejoin:round" />
  <g
     id="matplotlib.axis_2"
     style="stroke-linecap:butt;stroke-linejoin:round" />
  <g
     id="line2d_1"
     style="stroke-linecap:butt;stroke-linejoin:round"
     transform="matrix(0.5599677,0,0,0.55996775,74.046596,74.884688)" />
  <g
     id="line2d_2"
     style="stroke-linecap:butt;stroke-linejoin:round"
     transform="matrix(0.5599677,0,0,0.55996775,210.95218,39.164668)" />
  <defs
     id="defs27">
    <clipPath
       id="pd2ed6a857e">
      <rect
         height="318.96"
         width="315.150731"
         x="10.7"
         y="10.7"
         id="rect30" />
    </clipPath>
  </defs>
  <g
     id="line2d_1-9"
     style="stroke-linecap:butt;stroke-linejoin:round"
     transform="matrix(0.5599677,0,0,0.55996775,347.85776,74.884693)" />
  <g
     id="line2d_2-2"
     style="stroke-linecap:butt;stroke-linejoin:round"
     transform="matrix(0.5599677,0,0,0.55996775,484.76334,39.164673)" />
  <path
     id="rect3129"
     style="color:#000000;fill:none;stroke:#000000;stroke-width:1.02685082;stroke-linecap:round;stroke-linejoin:miter;stroke-miterlimit:4;stroke-opacity:1;stroke-dashoffset:0;marker:none;visibility:visible;display:inline;overflow:visible;enable-background:accumulate"
     d="m 609.02351,91.675412 c -27.20394,6.79927 -56.45818,3.809031 -82.0936,-7.364308 -8.20568,18.929496 -17.89351,37.523716 -31.29064,53.343596 -12.25529,14.57601 -28.93801,26.98757 -48.41796,28.84792 -17.85351,1.85786 -35.33041,-6.21708 -48.26722,-18.09711 -19.10841,-17.39485 -31.49243,-40.69567 -41.71094,-64.094406 -7.13371,3.034309 -14.49472,5.538143 -22.0308,7.364303 -27.20393,6.799269 -56.45818,3.80903 -82.0936,-7.364308 -8.20569,18.929501 -17.89351,37.523711 -31.29064,53.343591 -12.25529,14.57602 -28.93802,26.98758 -48.41797,28.84793 -17.8535,1.85786 -35.3304,-6.21709 -48.26722,-18.09712 -19.1084,-17.39484 -31.492419,-40.69567 -41.710931,-64.094397 l 3e-6,-63.399154 547.622318,0 0,63.399159 c -7.13372,3.03431 -14.49472,5.538144 -22.0308,7.364304 z"
     inkscape:connector-curvature="0"
     sodipodi:nodetypes="cccccccccccccccc" />
</svg>
