<?xml version="1.0" encoding="UTF-8" standalone="no"?>
<!-- Created with Inkscape (http://www.inkscape.org/) -->

<svg
   xmlns:dc="http://purl.org/dc/elements/1.1/"
   xmlns:cc="http://creativecommons.org/ns#"
   xmlns:rdf="http://www.w3.org/1999/02/22-rdf-syntax-ns#"
   xmlns:svg="http://www.w3.org/2000/svg"
   xmlns="http://www.w3.org/2000/svg"
   xmlns:sodipodi="http://sodipodi.sourceforge.net/DTD/sodipodi-0.dtd"
   xmlns:inkscape="http://www.inkscape.org/namespaces/inkscape"
   version="1.1"
   id="svg4859"
   width="500"
   height="500"
   viewBox="0 0 500 500"
   sodipodi:docname="rose-silhouette.svg"
   inkscape:version="0.92.5 (2060ec1f9f, 2020-04-08)">
  <metadata
     id="metadata4865">
    <rdf:RDF>
      <cc:Work
         rdf:about="">
        <dc:format>image/svg+xml</dc:format>
        <dc:type
           rdf:resource="http://purl.org/dc/dcmitype/StillImage" />
        <dc:title></dc:title>
      </cc:Work>
    </rdf:RDF>
  </metadata>
  <defs
     id="defs4863" />
  <sodipodi:namedview
     pagecolor="#ffffff"
     bordercolor="#666666"
     borderopacity="1"
     objecttolerance="10"
     gridtolerance="10"
     guidetolerance="10"
     inkscape:pageopacity="0"
     inkscape:pageshadow="2"
     inkscape:window-width="1920"
     inkscape:window-height="1016"
     id="namedview4861"
     showgrid="false"
     inkscape:zoom="1.888"
     inkscape:cx="250"
     inkscape:cy="250"
     inkscape:window-x="0"
     inkscape:window-y="27"
     inkscape:window-maximized="1"
     inkscape:current-layer="svg4859" />
  <path
     style="fill:#000000"
     d="m 204.24209,402.80084 c -10.3546,-11.51007 -17.108,-24.14566 -19.5083,-36.5 -0.6679,-3.4375 -1.3721,-6.25 -1.5648,-6.25 -0.1928,0 -2.891,1.62512 -5.996,3.61138 -5.106,3.26627 -40.37,15.83383 -50.1433,17.87032 l -3.25,0.67721 v -4.91949 c 0,-6.54849 3.3985,-19.53736 6.4939,-24.81929 1.3706,-2.33872 4.3242,-5.82051 6.5635,-7.7373 2.2394,-1.9168 3.6539,-3.74323 3.1434,-4.05874 -2.8347,-1.75193 -26.4358,-9.95424 -32.5389,-11.30852 -3.9391,-0.87409 -7.3184,-1.72162 -7.509604,-1.88341 -0.1912,-0.16179 0.626304,-2.89721 1.816604,-6.07871 4.6491,-12.42571 6.0191,-20.98344 5.9802,-37.35345 -0.02,-8.525 -0.469,-18.875 -0.9972,-23 -2.4762,-19.34132 -2.4441,-21.4845 0.3946,-26.32841 1.4432,-2.46261 5.9987,-7.58701 10.1233,-11.38756 l 7.4992,-6.91008 -2.9845,-7.75067 c -4.2637,-11.0726 -4.0426,-12.93592 2.642,-22.26819 6.0571,-8.45615 10.5985,-14.16536 19.3254,-24.29475 l 5.5481,-6.43965 v -13.06035 c 0,-19.57581 1.9259,-22.9854 23.9318,-42.36819 6.6375,-5.846303 19.5627,-17.936854 28.7228,-26.867894 9.874,-9.627217 17.7575,-16.515068 19.3636,-16.918175 1.7724,-0.444849 4.4848,0.02911 7.8454,1.370872 7.7476,3.093364 10.8998,3.907651 26.1364,6.751673 32.7042,6.104472 53.7904,13.157582 65.4443,21.890411 2.8797,2.15791 4.5188,2.58277 10,2.59198 3.6056,0.006 8.1404,0.27324 10.0772,0.59376 l 3.5215,0.58276 3.8754,12.369713 3.8754,12.3697 2.9561,-2.21347 c 1.6258,-1.21741 3.5564,-2.64331 4.2902,-3.16868 1.7128,-1.22638 18.6005,0.83393 29.7294,3.62701 6.6979,1.68102 19.4991,6.37884 40.3374,14.80314 2.4861,1.00509 6.2819,13.65341 12.0115,40.02505 6.5775,30.27452 11.4803,49.36867 16.4531,64.07725 2.7107,8.01749 4.9254,15.21749 4.9216,16 0,0.78251 -1.6872,2.54775 -3.741,3.92275 -4.4223,2.96068 -32.1883,26.01321 -34.0856,28.2993 -1.1505,1.38633 -0.7753,1.72718 3.0095,2.73389 7.2948,1.94027 15.6891,7.03877 20.8051,12.63653 8.6903,9.50856 13.2203,22.49369 14.4911,41.5378 l 0.7144,10.70752 -2.7247,0.68386 c -1.4986,0.37613 -14.9281,0.41433 -29.8433,0.0849 -21.0953,-0.46593 -29.2287,-1.03054 -36.6186,-2.542 -23.093,-4.7232 -36.9052,-12.09844 -44,-23.49449 -1.925,-3.09203 -3.8288,-5.6276 -4.2306,-5.63459 -0.4018,-0.007 -3.1018,1.50193 -6,3.35318 -25.3785,16.21078 -50.553,21.30813 -74.8502,15.15572 -2.5432,-0.64398 -2.6057,-0.52522 -4.2944,8.16245 -3.2409,16.67221 -4.9248,19.14065 -29.3793,43.06593 -11.946,11.6875 -22.0216,21.25 -22.3901,21.25 -0.3686,0 -2.7954,-2.3625 -5.393,-5.25 z m 13.605,-47.10307 c 1.6852,-7.06919 5.2418,-18.21719 7.9035,-24.77333 l 4.8395,-11.92025 -2.8555,-1.47668 c -1.5706,-0.81217 -3.2657,-1.47667 -3.7668,-1.47667 -1.2066,0 -7.748,23.24287 -9.569,34 -0.7913,4.675 -1.6858,13.45 -1.9877,19.5 l -0.5488,11 1.4603,-6 c 0.8032,-3.3 2.8392,-11.78388 4.5245,-18.85307 z m -67.5289,-4.65865 c 4.6338,-2.25115 18.5322,-5.98089 22.3714,-6.00359 3.1278,-0.0185 5.7469,-1.46073 4.2889,-2.36179 -0.558,-0.3449 -5.4436,-0.17057 -10.8567,0.38741 -12.0021,1.23715 -18.5302,4.12502 -24.4041,10.79584 -6.3964,7.26411 -6.7898,9.09513 -0.8322,3.87263 2.9668,-2.60073 7.2115,-5.61145 9.4327,-6.6905 z m 34.0591,-18.46506 c 3.9037,-1.21771 9.7491,-3.97109 12.9899,-6.11862 7.0208,-4.65243 19.4125,-16.10936 19.4125,-17.94818 0,-2.06864 -5.5132,-3.29284 -19.83,-4.40328 -7.3314,-0.56865 -13.6929,-1.25826 -14.1366,-1.53247 -0.4437,-0.27422 -1.0976,-2.04929 -1.4532,-3.9446 -1.2691,-6.76497 -9.8287,-16.39411 -29.8467,-33.57607 -12.3118,-10.56754 -15.7791,-15.75386 -21.6301,-32.35435 -4.5186,-12.82005 -4.4006,-12.70102 -7.443,-7.50961 -6.4968,11.08594 -7.3749,21.51283 -3.652,43.36396 3.5699,20.95263 2.0263,31.80371 -6.4861,45.59487 -1.9373,3.13862 -3.5223,6.23054 -3.5223,6.87093 0,1.83214 14.3066,7.97142 24.8811,10.67701 17.9566,4.59439 37.7111,4.93732 50.7165,0.88041 z m 130.0361,-6.28527 c 10.5796,-3.59424 26.8101,-11.51782 36.8663,-17.99777 7.6914,-4.9562 17.5788,-14.62432 22.4006,-21.90381 2.8397,-4.28715 3.0994,-5.37322 3.0994,-12.9607 v -8.28144 l 4.7954,0.56794 c 4.5544,0.53941 4.955,0.38611 7.9733,-3.05157 10.027,-11.42007 9.039,-48.98629 -1.8664,-70.96625 -5.7198,-11.52831 -16.2606,-22.64435 -21.4725,-22.64435 -1.2419,0 -8.5526,4.51022 -16.3906,10.11194 -7.7818,5.56156 -14.2921,9.94906 -14.4674,9.75 -0.1753,-0.19907 3.2384,-5.98694 7.5859,-12.86194 4.3476,-6.875 9.8001,-16.325 12.1168,-21 3.7148,-7.49623 4.2064,-9.2895 4.1635,-15.18554 -0.047,-6.39929 -0.4296,-7.43247 -8.9443,-24.13119 l -8.8955,-17.445643 -16.0491,-0.72554 c -10.38,-0.46925 -18.6984,-1.40522 -23.5491,-2.64969 -16.4996,-4.23302 -30.2212,-5.76816 -37.875,-4.23739 -3.7327,0.74653 -4.1612,2.375 -0.625,2.375 1.375,0 2.5,0.3922 2.5,0.87155 0,0.47935 -4.8375,1.10514 -10.75,1.39064 -12.986,0.62706 -17.6197,2.17033 -26.4834,8.820373 -9.8389,7.3818 -18.684,19.00205 -26.202,34.42293 -3.4873,7.15302 -8.2056,15.25302 -10.4852,18 -2.2796,2.74697 -4.3787,6.1195 -4.6647,7.4945 -0.286,1.375 -1.6213,4.87247 -2.9673,7.77215 -2.5444,5.48111 -2.9302,10.07203 -1.5506,18.45017 0.5887,3.57433 1.8504,5.90046 5.1904,9.56872 10.3122,11.32563 16.8672,20.15058 19.8389,26.70896 6.4873,14.31735 11.5068,16.75536 27.9281,13.56482 5.8552,-1.13762 12.4458,-2.18009 14.6458,-2.31661 3.7954,-0.23551 3.4721,-0.44745 -6.32,-4.14362 -5.6759,-2.14247 -13.1009,-5.67998 -16.5,-7.86112 -6.8904,-4.42158 -22.7405,-20.02587 -25.2287,-24.83762 l -1.6095,-3.11234 3.011,1.77865 c 1.6561,0.97825 5.2947,4.373 8.0858,7.54388 3.4656,3.93707 7.1026,6.76354 11.4697,8.91344 6.3503,3.12622 6.5544,3.15529 29.2433,4.163 12.5666,0.55813 23.4144,1.32551 24.1062,1.70528 1.6798,0.92216 -10.6182,11.00812 -21.1142,17.31642 -19.2848,11.59051 -30.3725,11.55476 -54.1436,-0.17455 -6.6,-3.25662 -12.7583,-6.14744 -13.685,-6.42405 -2.1915,-0.65409 -7.1751,-16.11389 -9.3976,-29.15236 -1.1305,-6.63186 -1.5182,-13.0926 -1.2064,-20.10301 0.4185,-9.4088 0.7734,-10.93394 3.9789,-17.09532 23.6434,-45.44575 26.7501,-50.48632 36.4398,-59.12263 8.8966,-7.929343 16.5569,-11.308193 37.8703,-16.703853 16.3365,-4.13575 20.3317,-4.80176 28.5,-4.7511 5.225,0.0324 11.525,0.53796 14,1.12347 7.1641,1.6948 22.4256,2.68692 21.6342,1.4064 -1.0552,-1.70734 -20.5305,-8.893217 -37.0486,-13.669934 -17.2955,-5.001534 -36.9134,-9.213799 -47.0856,-10.109982 -11.1182,-0.97952 -13.3869,0.227956 -23.9683,12.756394 -9.2852,10.993802 -13.1607,14.702602 -29.5317,28.261385 -14.3844,11.91347 -22.8814,20.5097 -25.6978,25.99794 -2.0824,4.05799 -2.6663,6.99001 -3.2316,16.2263 -0.3794,6.20033 -1.0006,11.58399 -1.3803,11.96369 -0.3797,0.3797 -0.6903,-0.0596 -0.6903,-0.9763 0,-0.91667 -0.3699,-1.66667 -0.8219,-1.66667 -1.0102,0 -14.2442,20.0398 -18.3743,27.8235 -2.8387,5.34996 -2.983,6.16546 -2.5086,14.1765 0.6042,10.20326 5.9065,28.51946 11.8034,40.77372 4.8688,10.11754 14.0354,20.22997 24.6612,27.20569 9.5435,6.26521 48.3656,25.99113 59.867,30.41903 9.5649,3.68237 20.7311,6.20263 31.8604,7.19102 l 6.9872,0.62053 -2.9872,2.39977 c -3.9678,3.18751 -17.8408,10.39024 -20.0124,10.39024 -6.2332,0 11.0042,7.57807 24.0252,10.56213 4.1728,0.9563 11.1769,1.28426 23,1.07694 15.9759,-0.28014 17.5502,-0.48502 26.1337,-3.40112 z m -48.2737,-22.45547 0.14,-5.28248 -8,-0.55768 c -10.4377,-0.72761 -14.0724,-2.69384 -25.9235,-14.02361 -8.5231,-8.14815 -9.3709,-9.27728 -8.2856,-11.03495 1.8297,-2.96317 4.4535,-3.14679 13.119,-0.91812 9.3081,2.39394 20.2522,2.6222 27.1586,0.56644 2.7123,-0.80735 11.0065,-4.46567 18.4315,-8.12959 11.8518,-5.84839 14.3206,-7.51506 20.222,-13.65176 6.1695,-6.41557 7.1147,-7.02694 11.5,-7.43845 2.6279,-0.24659 6.5072,-1.17988 8.6206,-2.07397 3.5538,-1.50341 3.6781,-1.68652 1.653,-2.43565 -3.3577,-1.24207 -13.4504,0.75492 -31.7966,6.29142 -20.3141,6.13036 -27.5049,7.87181 -32.5839,7.89114 l -3.8848,0.0148 2.5425,-2 c 1.3985,-1.1 3.6307,-2 4.9606,-2 1.3298,0 5.6379,-1.125 9.5735,-2.5 3.9355,-1.375 8.0863,-2.5 9.224,-2.5 6.4337,0 18.9816,-13.00583 25.5241,-26.45577 7.2909,-14.98831 10.4242,-31.27345 6.9669,-36.20948 -1.3795,-1.96944 -1.286,-2.18985 1.4012,-3.30291 5.2212,-2.1627 7.4095,-5.48155 7.8771,-11.94708 0.5303,-7.33046 -1.7617,-14.71565 -5.7541,-18.54053 l -2.9003,-2.77873 -3.5444,6.86725 -3.5445,6.86725 0.7216,-6 c 0.3968,-3.3 0.6619,-9.825 0.5891,-14.5 -0.1753,-11.25097 -2.6672,-17.66651 -10.473,-26.9632 -3.3298,-3.96579 -5.8417,-7.42309 -5.5819,-7.68289 0.9079,-0.90782 11.7251,2.47819 16.091,5.03681 5.1652,3.02698 11.5507,10.6903 14.9624,17.95641 3.7458,7.97774 5.0156,15.87806 4.9269,30.65287 -0.085,14.17087 -1.2681,21.54721 -5.6881,35.46598 -1.3882,4.37153 -2.4045,8.06778 -2.2584,8.21389 0.1461,0.14611 2.9404,-1.74762 6.2096,-4.20828 7.5831,-5.70774 14.6265,-8.35203 23.1669,-8.69748 6.3827,-0.25816 6.7957,-0.14187 7.0996,1.99897 0.5198,3.6632 -4.5334,26.97501 -8.2206,37.924 -6.4146,19.0475 -14.1626,32.34902 -26.5303,45.54609 -13.6375,14.55205 -26.6625,23.31883 -47.5717,32.01914 -10.7936,4.49121 -10.3002,4.56321 -10.14,-1.47983 z m -60.36,-32.4893 c -20.3457,-3.5357 -36.5251,-13.43212 -42.986,-26.29318 -4.8904,-9.73474 -6.3407,-19.3581 -9.0429,-60 -0.6034,-9.075 -1.357,-17.625 -1.6748,-19 -1.2647,-5.47303 0.857,-0.77778 4.7491,10.50985 2.2571,6.54588 6.3206,16.60105 9.0299,22.34482 l 4.926,10.44321 -2.6348,5.3854 c -3.5729,7.30275 -3.0183,15.50954 1.6975,25.12042 5.815,11.85096 16.7971,20.97883 34.5818,28.74303 7.2976,3.18586 7.6176,3.83492 1.3542,2.74645 z m 15,-10.92737 c -5.5371,-1.03348 -15.8242,-4.70804 -21.2521,-7.59127 -5.5502,-2.94816 -13.7479,-10.58736 -13.7479,-12.81121 0,-1.28282 0.2082,-1.16167 9.6632,5.62201 12.8148,9.19416 29.3154,14.12828 44.0791,13.1808 5.6458,-0.36232 7.0375,-0.21619 5.6289,0.59105 -1.9205,1.10062 -19.8932,1.84443 -24.3712,1.00862 z m 52,-41.04117 c -14.1779,-2.28545 -32.0088,-5.80889 -38.5,-7.6077 l -8,-2.21694 15.5,-0.59322 c 18.0426,-0.69053 28.5868,-3.08783 37.7332,-8.57894 8.24,-4.94694 10.886,-7.81516 15.2464,-16.52697 l 3.8584,-7.70878 0.7196,7.68001 c 0.6774,7.22791 0.55,8.00519 -2.164,13.20395 -3.5502,6.80039 -13.8902,20.68414 -16.4084,22.03186 -1.8655,0.9984 -3.3831,1.05859 -7.9852,0.31673 z m -32,-11.74427 c 0,-0.2308 2.2218,-1.15762 4.9375,-2.05961 7.4562,-2.47657 11.7636,-7.75726 12.6391,-15.49491 0.7898,-6.98117 1.3026,-7.05422 2.5526,-0.36356 1.107,5.92526 -0.2935,10.60709 -3.9512,13.20918 -3.7219,2.64773 -16.178,6.27331 -16.178,4.7089 z m -19.6353,-2.66943 c -4.4678,-1.29487 -12.2193,-6.78343 -15.6571,-11.08624 -7.1451,-8.94288 -3.1554,-19.40154 8.4622,-22.18328 l 2.6698,-0.63926 -0.4836,9.74892 -0.4835,9.74892 2.8137,-8.03175 c 2.7554,-7.86524 12.2955,-23.02313 13.0554,-20.74333 0.2028,0.60829 -1.2442,4.3088 -3.2156,8.22335 -6.6527,13.21046 -8.0449,24.71954 -3.6471,30.15048 1.7305,2.13717 1.7597,2.0536 1.3348,-3.82129 -0.9128,-12.61835 5.1377,-23.71602 14.3337,-26.29075 5.8372,-1.63429 11.4732,-0.13031 14.0078,3.73795 2.3291,3.55456 2.1454,10.98434 -0.3942,15.95073 -2.2948,4.4876 -9.8561,13.32461 -11.401,13.32461 -0.5885,0 -0.2128,-0.96966 0.835,-2.1548 l 1.905,-2.1548 -2.8003,1.80272 c -1.5401,0.99149 -2.5837,2.36681 -2.3191,3.05626 0.265,0.69071 -0.4982,1.51616 -1.6998,1.83843 -3.2065,0.85995 -13.7007,0.57095 -17.3161,-0.47687 z m 11.6563,-12.01379 c -1.66,-3.51843 -2.7456,-5.27215 -2.4126,-3.89715 0.9367,3.86733 4.3558,11.36906 4.9232,10.80169 0.2791,-0.27907 -0.8507,-3.38611 -2.5106,-6.90454 z m 18.4226,-1.41966 c 1.8754,-3.95213 2.0191,-9.47416 0.3064,-11.77289 -0.6875,-0.92271 -2.703,-1.96306 -4.4789,-2.3119 -2.8923,-0.56813 -3.3392,-0.33502 -4.2883,2.23653 -0.5827,1.57892 -2.4748,4.05161 -4.2048,5.49487 -3.122,2.60466 -3.1345,2.6528 -1.6868,6.5 0.9993,2.6557 2.5399,4.41956 4.8937,5.6028 3.3303,1.6741 3.5036,1.66275 5.6689,-0.37138 1.2284,-1.15406 2.9338,-3.57417 3.7898,-5.37803 z m -9.4436,-0.97749 -2.5,-1.42913 3.25,-0.0354 c 3.1776,-0.0346 7.25,-2.90002 7.25,-5.10118 0,-0.58616 -0.4754,-2.04866 -1.0565,-3.25 -0.9938,-2.05478 -0.9345,-2.04431 1,0.17652 2.3432,2.68989 2.5443,4.34386 0.9068,7.45496 -2.1001,3.98988 -4.6087,4.60899 -8.8503,2.18426 z m 27.3741,4.49292 c 8.6714,-9.20048 11.3744,-15.07517 13.9056,-30.22163 2.55,-15.25928 2.0352,-17.23135 -6.6829,-25.60288 -7.7153,-7.40864 -9.387,-7.64408 -19.8303,-2.79286 -12.2679,5.69885 -17.3279,6.95422 -27.2665,6.76479 -5.0201,-0.0957 -11.6533,0.46499 -15,1.26786 -5.3866,1.29224 -5.7956,1.2839 -4,-0.0816 1.1,-0.83654 9.75,-5.33201 19.2222,-9.98993 19.8112,-9.74207 25.989,-11.34301 36.8358,-9.54564 8.3416,1.38225 14.7992,4.51355 19.9683,9.68264 5.3463,5.34627 8.1868,11.42239 10.1121,21.6302 2.7218,14.43061 0.8436,20.49778 -9.5883,30.97409 -6.0691,6.09488 -16.1231,12.68858 -22.0501,14.46099 -1.9435,0.58117 -0.9697,-0.87608 4.3741,-6.54604 z m -6.9634,1.50708 c 5.8313,-15.95441 7.589,-31.00942 4.334,-37.12046 -2.2761,-4.27311 -9.4801,-7.52675 -18.0609,-8.15706 -5.9051,-0.43376 -7.2418,-0.20385 -10,1.72001 -2.9391,2.04997 -2.8967,1.94534 0.5515,-1.3609 2.4656,-2.36413 4.6751,-3.57576 6.5,-3.56445 3.4594,0.0214 16.0158,3.24414 19.1266,4.90895 3.3924,1.8156 5.7852,8.17418 7.5538,20.07391 l 1.5606,10.5 -3.4931,5.08027 c -1.9211,2.79415 -4.6878,6.16915 -6.1482,7.5 -2.3688,2.15868 -2.5764,2.20396 -1.9243,0.41973 z m -1.3819,-14.36416 c -0.6792,-3.20055 -2.426,-8.02794 -3.8819,-10.72752 -2.1373,-3.9634 -3.7427,-5.45634 -8.3391,-7.75496 -5.1597,-2.58037 -6.0312,-2.73474 -9.317,-1.65034 -5.171,1.70658 -5.3449,0.61655 -0.2793,-1.7506 8.9432,-4.17913 17.5204,-4.08375 22.1931,0.24681 2.5157,2.33148 2.5954,2.7731 2.5954,14.394 0,6.59381 -0.3907,12.23018 -0.8682,12.52527 -0.4774,0.29509 -1.4238,-2.0821 -2.103,-5.28266 z m -64.0251,-3.38584 c 0,-3.45598 2.1927,-5.6629 9.6207,-9.66266 4.5894,-2.47121 6.7512,-4.49536 9.8756,-9.24649 2.2,-3.34548 5.575,-7.01231 7.5,-8.14852 l 3.5,-2.06583 -2.1922,2.43969 c -1.2058,1.34184 -3.3704,5.13838 -4.8103,8.43676 -1.4399,3.29838 -2.977,6.67205 -3.4158,7.49705 -0.4388,0.825 -3.5467,2.21996 -6.9065,3.0999 -6.7765,1.77484 -8.637,2.9896 -11.3335,7.4001 l -1.8342,3 v -2.75 z m 79.864,-3.25 c -0.3244,-0.55 -1.5353,-4.15 -2.6908,-8 -2.7501,-9.16225 -7.6314,-17.1231 -13.0047,-21.20907 -4.9045,-3.72956 -3.2625,-4.43019 3.3278,-1.41992 8.3889,3.83181 14.6548,13.47686 14.3761,22.12899 -0.1567,4.86398 -1.2997,9.70151 -2.0084,8.5 z m 152.3232,141.49051 c -8.5523,-8.10346 -20.2535,-14.47959 -28.452,-15.50393 -4.0656,-0.50795 -7.0283,-0.15251 -12.4464,1.4932 -5.7512,1.74686 -9.0688,2.09869 -17.3506,1.84003 -7.0813,-0.22117 -10.3635,0.0353 -10.6412,0.83153 -0.2923,0.83788 5.5336,1.25835 21.3988,1.54441 l 21.8005,0.39308 8.171,3.31571 c 4.4941,1.82363 11.6941,5.47952 16,8.12418 4.306,2.64467 8.054,4.82622 8.329,4.8479 0.275,0.0217 -2.7891,-3.07708 -6.8091,-6.88611 z m -42.0311,-25.01891 c 21.9915,-7.1304 40.7196,-19.10914 61.6083,-39.40543 l 8.3016,-8.06617 -5.4232,-14 c -2.9828,-7.7 -9.0422,-23.08563 -13.4655,-34.19029 -9.8035,-24.61192 -15.1936,-40.99817 -15.891,-48.30971 -0.2885,-3.025 -1.1458,-6.49506 -1.905,-7.71124 -2.0105,-3.22075 -34.0995,-18.81697 -43.885,-21.32949 -9.2534,-2.37589 -19.8583,-3.00102 -21.5868,-1.27248 -0.8964,0.89641 0.2114,2.03622 4.7072,4.84315 13.0246,8.1318 17.2023,11.28965 24.4345,18.46965 15.1309,15.02161 25.2344,33.59501 31.0071,57.00041 1.9889,8.06379 2.3384,11.99447 2.312,26 -0.026,13.82446 -0.3869,17.79723 -2.2254,24.5 -5.4881,20.00792 -15.6841,33.55729 -30.6486,40.72857 -2.75,1.31785 -6.575,3.12677 -8.5,4.01981 -3.3683,1.56258 -3.3999,1.62612 -0.8402,1.68767 1.4629,0.0352 6.8629,-1.29883 12,-2.96445 z"
     id="path5412"
     inkscape:connector-curvature="0" />
</svg>
