<?xml version="1.0" encoding="UTF-8" standalone="no"?>
<svg
   xmlns:dc="http://purl.org/dc/elements/1.1/"
   xmlns:cc="http://creativecommons.org/ns#"
   xmlns:rdf="http://www.w3.org/1999/02/22-rdf-syntax-ns#"
   xmlns:svg="http://www.w3.org/2000/svg"
   xmlns="http://www.w3.org/2000/svg"
   xmlns:sodipodi="http://sodipodi.sourceforge.net/DTD/sodipodi-0.dtd"
   xmlns:inkscape="http://www.inkscape.org/namespaces/inkscape"
   width="210mm"
   height="297mm"
   viewBox="0 0 210 297"
   version="1.1"
   id="svg8"
   inkscape:version="1.0.2 (e86c870879, 2021-01-15)"
   sodipodi:docname="roseleaf.svg">
  <defs
     id="defs2">
    <inkscape:path-effect
       effect="bend_path"
       id="path-effect888"
       is_visible="true"
       lpeversion="1"
       bendpath="m 18.353507,234.93909 c 66.929374,197.7776 192.881353,20.95848 268.219373,0"
       prop_scale="1"
       scale_y_rel="false"
       vertical="false"
       hide_knot="false"
       bendpath-nodetypes="cc" />
    <inkscape:path-effect
       effect="bend_path"
       id="path-effect884"
       is_visible="true"
       lpeversion="1"
       bendpath="m 18.397356,232.44672 c 66.929374,-197.777592 192.881354,-20.95848 268.219374,0"
       prop_scale="1"
       scale_y_rel="false"
       vertical="false"
       hide_knot="false"
       bendpath-nodetypes="cc" />
    <inkscape:path-effect
       effect="bend_path"
       id="path-effect880"
       is_visible="true"
       lpeversion="1"
       bendpath="m 18.396708,228.88838 c 117.071172,-143.025152 162.952242,-34.13174 268.057832,0"
       prop_scale="1"
       scale_y_rel="false"
       vertical="false"
       hide_knot="false"
       bendpath-nodetypes="cc" />
  </defs>
  <sodipodi:namedview
     id="base"
     pagecolor="#ffffff"
     bordercolor="#666666"
     borderopacity="1.0"
     inkscape:pageopacity="0.0"
     inkscape:pageshadow="2"
     inkscape:zoom="0.98994949"
     inkscape:cx="531.91765"
     inkscape:cy="955.83768"
     inkscape:document-units="mm"
     inkscape:current-layer="layer1"
     inkscape:document-rotation="0"
     showgrid="false"
     inkscape:snap-global="false"
     inkscape:window-width="1920"
     inkscape:window-height="1016"
     inkscape:window-x="0"
     inkscape:window-y="0"
     inkscape:window-maximized="1" />
  <metadata
     id="metadata5">
    <rdf:RDF>
      <cc:Work
         rdf:about="">
        <dc:format>image/svg+xml</dc:format>
        <dc:type
           rdf:resource="http://purl.org/dc/dcmitype/StillImage" />
        <dc:title></dc:title>
      </cc:Work>
    </rdf:RDF>
  </metadata>
  <g
     inkscape:label="Layer 1"
     inkscape:groupmode="layer"
     id="layer1">
    <path
       style="fill:none;stroke:#000000;stroke-width:3.3353;stroke-linecap:butt;stroke-linejoin:miter;stroke-miterlimit:4;stroke-dasharray:none;stroke-opacity:1"
       d="m 424.21875,500.99023 -53.50781,35.17579 19.50195,-30.78711 -32.01953,18.74804 -18.09766,13.95508 15.45508,-29.87305 0.87305,-1.42382 -0.98828,0.7207 -36.61133,33.32422 14.30859,-35.06641 -39.83984,43.58399 -2.47656,3.59961 1.13867,-6.34571 7.3125,-28.68164 -12.61133,17.79883 -18.66797,35.38672 2.65039,-38.07227 -26.96094,57.71094 -0.58593,-41.44922 -13.65039,41.3125 -2.41797,10.5918 -1.98438,-15.53125 -1.73633,-28.75195 -6.16992,19.88281 -9.83709,33.95015 -7.15705,-29.50093 -10.32653,43.77256 -9.75427,-15.27818 -4.99612,43.49121 -11.26487,-15.6477 -1.31055,14.86718 -3.37031,20.71149 -13.03008,-21.44781 -4.67451,45.32356 -10.26936,-10.63759 -0.36881,42.70553 -13.00178,-14.03603 -4.67061,44.72231 -11.27432,-8.56545 2.28946,37.39584 -12.580902,-4.51875 2.583328,30.57801 -11.890256,-3.33596 C 52.091604,863.72194 64.158981,914.4424 78.313552,963.70056 l 13.192405,-13.40591 -1.387718,45.90789 12.403351,-16.22234 2.31735,32.9566 9.72952,-14.45856 6.63962,43.16956 10.20413,-16.0544 0.88571,48.8454 7.66703,-16.3454 9.56548,40.6043 11.47934,-24.7426 1.31054,40.0898 1.3125,14.8672 5.89649,-19.9961 6.35937,-18.8555 1.32422,13.3887 8.77539,50.8047 9.13477,-34.0449 4.84961,65.039 8.04882,-41.455 8.94532,45.9062 6.16992,19.8828 1.73633,-28.7519 1.98633,-15.5313 2.41601,10.5918 13.65039,41.3125 0.58594,-41.4511 26.96289,57.7128 -2.65234,-38.0722 18.66796,35.3847 12.61133,17.7989 -7.3125,-28.6817 -1.13867,-6.3437 2.47656,3.5996 39.83985,43.584 -14.3086,-35.0664 36.61133,33.3242 0.98828,0.7207 -0.87109,-1.4238 -15.45703,-29.8731 18.09961,13.9531 32.01758,18.75 -19.50196,-30.7871 53.50977,35.1758 -22.90235,-27.5742 26.25782,12.8398 31.22265,11.42 -27.16601,-25.8262 47.23437,15.918 -26.88086,-22.3692 57.73633,12 -23.99609,-18.2363 54.90039,17.0625 -29.60352,-20.4414 58.46289,10.6445 -32.3125,-19.3027 35.90039,5.4765 11.23438,1.2989 -13.99024,-7.4395 -16.80078,-9.4531 13.08399,1.166 42.875,2.0898 -27.63477,-14.9746 50.42383,4.7032 -27.97461,-13.1934 53.76367,-0.2637 -29.95312,-12.4961 43.21875,-1.1699 -28.38477,-10.8965 51.17188,-5.1308 -29.25391,-11.8203 52.27148,0.4961 2.81446,-0.02 -3.71875,-1.3789 -25.11719,-9.5469 18.1543,-1.2265 35.10547,-2.8633 -30.58985,-10.5176 42.83789,-3.7832 -28.8789,-9.2519 50.62695,-7.7168 -24.64453,-8.6543 49.54297,0.7968 -29.16992,-10.5957 51.04101,-2.8671 -30.76367,-10.5137 41.10351,-2.4649 -28.95312,-9.455 46.50195,-5.3731 1.85742,-0.2129 -2.69336,-0.9804 -23.57226,-8.5782 16.53711,-1.459 29.9707,-2.582 -25.08203,-7.8555 47.2793,-7.3125 -26.45313,-7.8886 38.12891,-5.7539 -24.92383,-7.14847 45.42383,-9.02148 -25.38672,-8.76367 48.7168,-2.58204 -24.67383,-8.87695 47.37305,-4.96484 -25.90821,-9.35352 23.30664,-2.25781 19.24051,-2.04493 -24.27371,-6.36718 -4.34961,-1.51172 3.16406,-0.4668 42.7109,-5.08007 -20.29683,-9.09571 43.24613,4.26758 -23.3301,-12.13867 22.6875,1.05664 15.3585,0.40793 -17.171,-11.72238 30.243,-0.10129 -16.4266,-9.02371 45.384,-16.82105 -45.2199,-11.06372 20.4165,-6.65206 -34.231,-2.47294 18.8089,-11.08538 -16.9964,-0.22907 -22.6895,1.05664 13.8818,-11.40402 -33.79582,3.53292 17.27312,-14.74023 -39.68718,0.56445 -3.16602,-0.46679 4.35157,-1.51172 22.67773,-7.62277 -17.64453,-0.78934 -23.30664,-2.25781 25.9082,-9.35547 -47.37305,-4.96289 24.67383,-8.87696 -48.71679,-2.58203 25.38671,-8.76562 -45.42578,-9.01953 24.92578,-7.1504 -38.1289,-5.7539 26.45312,-7.88672 -47.27929,-7.3125 25.08203,-7.85547 -29.97071,-2.58398 -16.5371,-1.45899 23.57031,-8.57617 2.69336,-0.98242 -1.85547,-0.21289 -46.50196,-5.37305 28.95313,-9.45312 -41.10352,-2.4668 30.76368,-10.51172 -51.04102,-2.86719 29.16992,-10.5957 -49.54297,0.79688 24.64454,-8.65626 -50.62696,-7.71484 28.87891,-9.25195 -42.83789,-3.78516 30.58984,-10.51562 -35.10547,-2.86328 -18.15625,-1.22657 25.11914,-9.54687 3.71875,-1.38086 -2.81445,-0.0195 -52.27148,0.49804 29.2539,-11.82031 -51.17383,-5.13086 28.38672,-10.89648 -43.21875,-1.16992 29.95117,-12.4961 -53.76171,-0.26562 27.9746,-13.19141 -50.42382,4.70313 27.63476,-14.97461 -42.875,2.08789 -13.08398,1.16797 16.80078,-9.45508 13.99023,-7.4375 -11.23632,1.29883 -35.89844,5.47656 32.31055,-19.30469 -58.46094,10.64649 29.60351,-20.44141 -54.90039,17.06055 23.9961,-18.23438 -57.73633,12 26.88086,-22.36914 -47.23438,15.91797 27.16602,-25.82617 -31.22266,11.41992 -26.25781,12.83984 22.90039,-27.57422 z"
       transform="scale(0.26458333)"
       id="path886"
       sodipodi:nodetypes="ccccccccccccccccccccccccccccccccccccccccccccccccccccccccccccccccccccccccccccccccccccccccccccccccccccccccccccccccccccccccccccccccccccccccccccccccccccccccccccccccccccccccccccccccccccccccccccccccccccccccccccccccccccccccccccccccccccccccccccccccc" />
  </g>
</svg>
