<?xml version="1.0" encoding="UTF-8" standalone="no"?>
<svg
   xmlns:dc="http://purl.org/dc/elements/1.1/"
   xmlns:cc="http://creativecommons.org/ns#"
   xmlns:rdf="http://www.w3.org/1999/02/22-rdf-syntax-ns#"
   xmlns:svg="http://www.w3.org/2000/svg"
   xmlns="http://www.w3.org/2000/svg"
   xmlns:sodipodi="http://sodipodi.sourceforge.net/DTD/sodipodi-0.dtd"
   xmlns:inkscape="http://www.inkscape.org/namespaces/inkscape"
   width="8.5in"
   height="11in"
   viewBox="0 0 215.9 279.4"
   version="1.1"
   id="svg8"
   inkscape:version="1.0.2 (e86c870879, 2021-01-15)"
   sodipodi:docname="snailjet.svg">
  <defs
     id="defs2" />
  <sodipodi:namedview
     id="base"
     pagecolor="#ffffff"
     bordercolor="#666666"
     borderopacity="1.0"
     inkscape:pageopacity="0.0"
     inkscape:pageshadow="2"
     inkscape:zoom="0.49497475"
     inkscape:cx="441.46159"
     inkscape:cy="527.68197"
     inkscape:document-units="mm"
     inkscape:current-layer="layer1"
     inkscape:document-rotation="0"
     showgrid="false"
     units="in"
     inkscape:snap-global="false"
     inkscape:window-width="1920"
     inkscape:window-height="1016"
     inkscape:window-x="0"
     inkscape:window-y="0"
     inkscape:window-maximized="1" />
  <metadata
     id="metadata5">
    <rdf:RDF>
      <cc:Work
         rdf:about="">
        <dc:format>image/svg+xml</dc:format>
        <dc:type
           rdf:resource="http://purl.org/dc/dcmitype/StillImage" />
        <dc:title></dc:title>
      </cc:Work>
    </rdf:RDF>
  </metadata>
  <g
     inkscape:label="Layer 1"
     inkscape:groupmode="layer"
     id="layer1">
    <path
       id="rect833"
       style="fill:none;fill-opacity:0.665404;stroke:#ff0000;stroke-width:0.550111;stroke-linecap:square;stroke-linejoin:round"
       d="m 32.843015,6.3383424 c -7.754305,-0.090704 -7.188227,20.2676226 0,20.2426916 h 0.761193 C 26.946794,33.862602 20.717801,41.713181 13.61318,48.703198 l 2.7342,2.604492 c 7.8488,-9.107802 17.501274,-15.802245 26.177212,-24.726656 h 0.965833 C 36.833013,33.862602 30.604021,41.713181 23.499397,48.703198 l 2.734202,2.604492 C 34.082397,42.199888 43.734873,35.505445 52.410812,26.581034 h 0.965832 C 46.71923,33.862602 40.490238,41.713181 33.385617,48.703198 l 2.734199,2.604492 C 43.968617,42.199888 53.62109,35.505445 62.297029,26.581034 h 0.965832 C 56.605447,33.862602 50.376455,41.713181 43.271834,48.703198 l 2.734201,2.604492 C 53.854834,42.199888 63.507307,35.505445 72.183249,26.581034 h 0.965832 C 66.491667,33.862602 60.262674,41.713181 53.158053,48.703198 l 2.734199,2.604492 C 63.741053,42.199888 73.393527,35.505445 82.069466,26.581034 h 0.965832 C 76.377884,33.862602 70.148891,41.713181 63.04427,48.703198 l 2.734202,2.604492 C 73.62727,42.199888 83.279746,35.505445 91.955685,26.581034 h 0.965833 C 86.264104,33.862602 80.035111,41.713181 72.930487,48.703198 l 2.734202,2.604492 C 83.51349,42.199888 93.165963,35.505445 101.84191,26.581034 h 0.96583 C 96.150326,33.862602 89.92133,41.713181 82.816707,48.703198 l 2.734199,2.604492 C 93.399702,42.199888 103.05219,35.505445 111.72812,26.581034 h 0.96584 c -6.65741,7.281568 -12.886415,15.132147 -19.991036,22.122164 l 2.734202,2.604492 C 103.28593,42.199888 112.9384,35.505445 121.61434,26.581034 h 0.96584 c -6.65742,7.281568 -12.88641,15.132147 -19.99103,22.122164 l 2.7342,2.604492 c 7.8488,-9.107802 17.50127,-15.802245 26.17721,-24.726656 h 0.96583 c -6.65741,7.281568 -12.88641,15.132147 -19.99102,22.122164 l 2.7342,2.604492 c 7.8488,-9.107802 17.50127,-15.802245 26.17721,-24.726656 h 0.96583 c -6.65741,7.281568 -12.8864,15.132147 -19.99102,22.122164 l 2.73419,2.604492 c 7.84881,-9.107802 17.50128,-15.802245 26.17722,-24.726656 h 0.96583 c -6.65741,7.281568 -12.8864,15.132147 -19.99103,22.122164 l 2.7342,2.604492 c 7.8488,-9.107802 17.50128,-15.802245 26.17722,-24.726656 h 0.96583 c -6.65742,7.281568 -12.8864,15.132147 -19.99103,22.122164 l 2.7342,2.604492 c 7.8488,-9.107802 17.50128,-15.802245 26.17721,-24.726656 h 0.96584 c -6.65742,7.281568 -12.88641,15.132147 -19.99103,22.122164 l 2.7342,2.604492 c 7.8488,-9.107802 17.50127,-15.802245 26.17721,-24.726656 h 0.96584 c -6.65742,7.281568 -12.88641,15.132147 -19.99103,22.122164 l 2.7342,2.604492 c 7.8488,-9.107802 17.50127,-15.802245 26.17721,-24.726656 V 6.3383424 Z" />
    <path
       id="rect1584"
       style="fill:none;fill-opacity:0.665404;stroke:#ff0000;stroke-width:0.41274;stroke-linecap:square;stroke-linejoin:round"
       d="M 8.0280351,109.27388 7.5227903,58.88915 86.912853,58.093047 c 10.273385,9.45718 10.285356,42.983863 0.505244,50.384723 z"
       sodipodi:nodetypes="ccccc" />
    <path
       id="path1586"
       style="fill:none;fill-opacity:0.665404;stroke:#ff0000;stroke-width:0.55922;stroke-linecap:square;stroke-linejoin:round"
       d="m 131.51434,57.822793 c 8.7774,1.8713 15.88971,8.28315 18.6578,16.82025 2.76809,8.5371 0.77143,17.90246 -5.23787,24.56824 -6.00929,6.665787 -15.11827,9.619307 -23.89566,7.748007 l 5.23787,-24.568247 c -5.12849,-13.16049 -3.87781,-26.1892 5.23786,-24.56825 z"
       sodipodi:nodetypes="cssccc" />
    <path
       id="path1588"
       style="fill:none;fill-opacity:0.665404;stroke:#ff0000;stroke-width:0.559221;stroke-linecap:square;stroke-linejoin:round"
       d="m 94.18033,107.75902 c 8.91591,1.02514 17.70146,-2.78419 23.04721,-9.993027 5.34585,-7.208788 6.43977,-16.721957 2.8697,-24.955983 -3.57012,-8.233889 -11.26172,-13.937711 -20.177513,-14.962954 -8.651168,-0.876154 -3.43267,10.794331 -2.00881,17.469348 2.674613,0.307582 4.982003,2.018598 6.053073,4.488612 1.07116,2.470307 0.74293,5.324439 -0.86095,7.487137 -1.60377,2.162432 -4.239293,3.305064 -6.913912,2.997523 z"
       sodipodi:nodetypes="ccccccccc" />
    <path
       id="rect1594"
       style="fill:none;fill-opacity:0.665404;stroke:#ff0000;stroke-width:0.442136;stroke-linecap:square;stroke-linejoin:round"
       d="m 9.3343452,116.51452 c 2.0500898,-6.07291 4.1561998,-5.08051 6.2947298,0 2.14672,-5.36236 4.24839,-5.74194 6.29474,0 h 6.29473 6.29473 6.29473 6.29473 c 1.89655,-5.29043 3.92776,-7.04871 6.29474,0 2.21243,-4.86813 4.35443,-6.73376 6.29473,0 v 12.08007 c -2.96101,7.62885 -4.57794,3.37286 -6.29473,0 -1.94508,5.94513 -4.03279,6.35403 -6.29474,0 h -6.29473 -6.29473 -6.29473 -6.29474 c -2.53319,7.2155 -4.45673,4.31726 -6.29473,0 -2.40478,7.128 -4.38145,4.30097 -6.2947298,0 z"
       sodipodi:nodetypes="ccccccccccccccccccc" />
    <path
       id="path1598"
       style="fill:none;fill-opacity:0.665404;stroke:#ff0000;stroke-width:0.167766;stroke-linecap:square;stroke-linejoin:round"
       d="m 85.337646,121.44727 c 0,2.6924 -1.43638,5.18027 -3.76806,6.52647 -2.33168,1.3462 -5.20444,1.3462 -7.53612,0 -2.33168,-1.3462 -3.76806,-3.83407 -3.76806,-6.52647 h 7.53612 c 3.54056,-2.32796 7.4415,-2.77599 7.53612,0 z"
       sodipodi:nodetypes="cssccc" />
    <path
       id="path1601"
       style="fill:none;fill-opacity:0.665404;stroke:#ff0000;stroke-width:0.442136;stroke-linecap:square;stroke-linejoin:round"
       d="m 154.18414,61.860313 c 2.05009,-6.07292 4.1562,-5.08052 6.29473,0 2.14672,-5.36237 4.24839,-5.74195 6.29474,0 h 6.29473 6.29473 6.29473 6.29473 c 1.89655,-5.29044 3.92776,-7.04872 6.29474,0 2.21243,-4.86813 4.35443,-6.73377 6.29473,0 v 12.08006 c -2.96101,7.62884 -4.57794,3.37285 -6.29473,0 -1.94508,5.94512 -4.03279,6.35402 -6.29474,0 h -6.29473 -6.29473 -6.29473 -6.29474 c -2.53319,7.21549 -4.45673,4.31725 -6.29473,0 -2.40478,7.12799 -4.38145,4.30096 -6.29473,0 z"
       sodipodi:nodetypes="ccccccccccccccccccc" />
    <path
       id="path1603"
       style="fill:none;fill-opacity:0.665404;stroke:#ff0000;stroke-width:0.442136;stroke-linecap:square;stroke-linejoin:round"
       d="m 154.04288,88.230582 c 2.05009,-6.07292 4.1562,-5.08052 6.29473,0 2.14672,-5.36237 4.24839,-5.74195 6.29475,0 h 6.29473 6.29473 6.29473 6.29473 c 1.89655,-5.29044 3.92776,-7.04872 6.29474,0 2.21243,-4.86813 4.35443,-6.73377 6.29473,0 v 12.080058 c -2.96101,7.62884 -4.57794,3.37285 -6.29473,0 -1.94508,5.94512 -4.03279,6.35402 -6.29474,0 h -6.29473 -6.29473 -6.29473 -6.29474 c -2.5332,7.21549 -4.45674,4.31725 -6.29474,0 -2.40478,7.12799 -4.38145,4.30096 -6.29473,0 z"
       sodipodi:nodetypes="ccccccccccccccccccc" />
    <path
       id="path1606"
       style="fill:none;fill-opacity:0.665404;stroke:#ff0000;stroke-width:0.550111;stroke-linecap:square;stroke-linejoin:round"
       d="m 179.85662,242.12459 c 7.75431,0.0907 7.18823,-20.26763 0,-20.2427 h -0.76119 c 6.65741,-7.28156 12.88641,-15.13214 19.99103,-22.12216 l -2.7342,-2.60449 c -7.8488,9.1078 -17.50128,15.80224 -26.17721,24.72665 h -0.96584 c 6.65742,-7.28156 12.88641,-15.13214 19.99103,-22.12216 l -2.7342,-2.60449 c -7.8488,9.1078 -17.50127,15.80224 -26.17721,24.72665 h -0.96584 c 6.65742,-7.28156 12.88641,-15.13214 19.99103,-22.12216 l -2.7342,-2.60449 c -7.8488,9.1078 -17.50127,15.80224 -26.17721,24.72665 h -0.96583 c 6.65741,-7.28156 12.8864,-15.13214 19.99102,-22.12216 l -2.7342,-2.60449 c -7.8488,9.1078 -17.50127,15.80224 -26.17721,24.72665 h -0.96583 c 6.65741,-7.28156 12.8864,-15.13214 19.99103,-22.12216 l -2.7342,-2.60449 c -7.8488,9.1078 -17.50128,15.80224 -26.17722,24.72665 h -0.96583 c 6.65741,-7.28156 12.88641,-15.13214 19.99103,-22.12216 l -2.7342,-2.60449 c -7.8488,9.1078 -17.50128,15.80224 -26.17722,24.72665 h -0.96583 c 6.65742,-7.28156 12.88641,-15.13214 19.99103,-22.12216 l -2.7342,-2.60449 c -7.8488,9.1078 -17.50127,15.80224 -26.17722,24.72665 h -0.96583 c 6.65741,-7.28156 12.88641,-15.13214 19.99103,-22.12216 l -2.7342,-2.60449 c -7.84879,9.1078 -17.50128,15.80224 -26.17721,24.72665 h -0.96584 c 6.65741,-7.28156 12.88641,-15.13214 19.99104,-22.12216 l -2.73421,-2.60449 c -7.8488,9.1078 -17.501272,15.80224 -26.177212,24.72665 h -0.96584 c 6.65742,-7.28156 12.886412,-15.13214 19.991032,-22.12216 l -2.7342,-2.60449 c -7.848802,9.1078 -17.501272,15.80224 -26.177213,24.72665 h -0.96583 c 6.657411,-7.28156 12.886411,-15.13214 19.991023,-22.12216 l -2.734202,-2.60449 c -7.8488,9.1078 -17.501271,15.80224 -26.177211,24.72665 h -0.96583 c 6.65741,-7.28156 12.8864,-15.13214 19.991021,-22.12216 l -2.73419,-2.60449 c -7.848811,9.1078 -17.501281,15.80224 -26.177221,24.72665 h -0.96583 c 6.65741,-7.28156 12.8864,-15.13214 19.99103,-22.12216 l -2.7342,-2.60449 c -7.8488,9.1078 -17.50128,15.80224 -26.17722,24.72665 h -0.96583 c 6.65742,-7.28156 12.8864,-15.13214 19.99103,-22.12216 l -2.7342,-2.60449 c -7.8488,9.1078 -17.50128,15.80224 -26.17721,24.72665 h -0.96584 c 6.65742,-7.28156 12.88641,-15.13214 19.99103,-22.12216 l -2.7342,-2.60449 c -7.8488,9.1078 -17.50127,15.80224 -26.17721,24.72665 h -0.96584 c 6.65742,-7.28156 12.88641,-15.13214 19.99103,-22.12216 l -2.7342,-2.60449 c -7.8488,9.1078 -17.50127,15.80224 -26.17721,24.72665 v 20.2427 z" />
    <path
       id="path1608"
       style="fill:none;fill-opacity:0.665404;stroke:#ff0000;stroke-width:0.41274;stroke-linecap:square;stroke-linejoin:round"
       d="m 204.6716,139.18905 0.50525,50.38473 -79.39006,0.7961 c -10.27339,-9.45718 -10.28536,-42.98386 -0.50525,-50.38472 z"
       sodipodi:nodetypes="ccccc" />
    <path
       id="path1610"
       style="fill:none;fill-opacity:0.665404;stroke:#ff0000;stroke-width:0.55922;stroke-linecap:square;stroke-linejoin:round"
       d="m 81.185297,190.64013 c -8.7774,-1.8713 -15.88971,-8.28315 -18.6578,-16.82025 -2.76809,-8.5371 -0.77143,-17.90246 5.23787,-24.56824 6.00929,-6.66578 15.11827,-9.6193 23.895661,-7.748 l -5.23787,24.56824 c 5.12849,13.16049 3.87781,26.1892 -5.237861,24.56825 z"
       sodipodi:nodetypes="cssccc" />
    <path
       id="path1612"
       style="fill:none;fill-opacity:0.665404;stroke:#ff0000;stroke-width:0.559221;stroke-linecap:square;stroke-linejoin:round"
       d="m 118.51931,140.70391 c -8.91591,-1.02514 -17.70146,2.78419 -23.047212,9.99302 -5.34585,7.20879 -6.43977,16.72196 -2.8697,24.95599 3.57012,8.23389 11.261722,13.93771 20.177512,14.96295 8.65117,0.87616 3.43267,-10.79433 2.00881,-17.46935 -2.67461,-0.30758 -4.982,-2.01859 -6.05307,-4.48861 -1.07116,-2.47031 -0.74293,-5.32444 0.86095,-7.48714 1.60377,-2.16243 4.23929,-3.30506 6.91391,-2.99752 z"
       sodipodi:nodetypes="ccccccccc" />
    <path
       id="path1614"
       style="fill:none;fill-opacity:0.665404;stroke:#ff0000;stroke-width:0.442136;stroke-linecap:square;stroke-linejoin:round"
       d="m 203.36529,131.94841 c -2.05009,6.07291 -4.1562,5.08051 -6.29473,0 -2.14672,5.36236 -4.24839,5.74194 -6.29474,0 h -6.29473 -6.29473 -6.29473 -6.29473 c -1.89655,5.29043 -3.92776,7.04871 -6.29474,0 -2.21243,4.86813 -4.35443,6.73376 -6.29473,0 v -12.08007 c 2.96101,-7.62885 4.57794,-3.37286 6.29473,0 1.94508,-5.94513 4.03279,-6.35403 6.29474,0 h 6.29473 6.29473 6.29473 6.29474 c 2.53319,-7.2155 4.45673,-4.31726 6.29473,0 2.40478,-7.128 4.38145,-4.30097 6.29473,0 z"
       sodipodi:nodetypes="ccccccccccccccccccc" />
    <path
       id="path1616"
       style="fill:none;fill-opacity:0.665404;stroke:#ff0000;stroke-width:0.167766;stroke-linecap:square;stroke-linejoin:round"
       d="m 127.36199,127.01566 c 0,-2.6924 1.43638,-5.18027 3.76806,-6.52647 2.33168,-1.3462 5.20444,-1.3462 7.53612,0 2.33168,1.3462 3.76806,3.83407 3.76806,6.52647 h -7.53612 c -3.54056,2.32796 -7.4415,2.77599 -7.53612,0 z"
       sodipodi:nodetypes="cssccc" />
    <path
       id="path1618"
       style="fill:none;fill-opacity:0.665404;stroke:#ff0000;stroke-width:0.442136;stroke-linecap:square;stroke-linejoin:round"
       d="m 58.515497,186.60261 c -2.05009,6.07292 -4.1562,5.08052 -6.29473,0 -2.14672,5.36237 -4.24839,5.74195 -6.29474,0 h -6.29473 -6.29473 -6.29473 -6.29473 c -1.89655,5.29044 -3.92776,7.04872 -6.29474,0 -2.21243,4.86813 -4.35443,6.73377 -6.2947301,0 v -12.08006 c 2.9610101,-7.62884 4.5779401,-3.37285 6.2947301,0 1.94508,-5.94512 4.03279,-6.35402 6.29474,0 h 6.29473 6.29473 6.29473 6.29474 c 2.53319,-7.21549 4.45673,-4.31725 6.29473,0 2.40478,-7.12799 4.38145,-4.30096 6.29473,0 z"
       sodipodi:nodetypes="ccccccccccccccccccc" />
    <path
       id="path1620"
       style="fill:none;fill-opacity:0.665404;stroke:#ff0000;stroke-width:0.442136;stroke-linecap:square;stroke-linejoin:round"
       d="m 58.656757,160.23235 c -2.05009,6.07292 -4.1562,5.08052 -6.29473,0 -2.14672,5.36237 -4.24839,5.74195 -6.29475,0 h -6.29473 -6.29473 -6.29473 -6.29473 c -1.89655,5.29044 -3.92776,7.04872 -6.29474,0 -2.21243,4.86813 -4.35443,6.73377 -6.2947301,0 v -12.08006 c 2.9610101,-7.62884 4.5779401,-3.37285 6.2947301,0 1.94508,-5.94512 4.03279,-6.35402 6.29474,0 h 6.29473 6.29473 6.29473 6.29474 c 2.5332,-7.21549 4.45674,-4.31725 6.29474,0 2.40478,-7.12799 4.38145,-4.30096 6.29473,0 z"
       sodipodi:nodetypes="ccccccccccccccccccc" />
  </g>
</svg>
