<?xml version="1.0" encoding="UTF-8" standalone="no"?>
<svg
   xmlns:dc="http://purl.org/dc/elements/1.1/"
   xmlns:cc="http://creativecommons.org/ns#"
   xmlns:rdf="http://www.w3.org/1999/02/22-rdf-syntax-ns#"
   xmlns:svg="http://www.w3.org/2000/svg"
   xmlns="http://www.w3.org/2000/svg"
   xmlns:sodipodi="http://sodipodi.sourceforge.net/DTD/sodipodi-0.dtd"
   xmlns:inkscape="http://www.inkscape.org/namespaces/inkscape"
   width="210mm"
   height="297mm"
   viewBox="0 0 210 297"
   version="1.1"
   id="svg8"
   inkscape:version="1.0.2 (e86c870879, 2021-01-15)"
   sodipodi:docname="speedymollusc.svg">
  <defs
     id="defs2">
    <inkscape:path-effect
       effect="bend_path"
       id="path-effect1767"
       is_visible="true"
       lpeversion="1"
       bendpath="m 126.40838,333.75179 c 12.04122,-17.98721 28.18913,-45.56181 66.85499,-45.47111 32.47944,0.0762 45.15352,13.50221 62.25112,36.31713"
       prop_scale="1.1392253"
       scale_y_rel="false"
       vertical="false"
       hide_knot="false"
       bendpath-nodetypes="csc" />
    <inkscape:path-effect
       effect="bend_path"
       id="path-effect1169"
       is_visible="true"
       lpeversion="1"
       bendpath="m 16.362369,268.61086 c 12.041225,-17.98721 28.189136,-45.56181 66.854991,-45.47111 32.47944,0.0762 45.15352,13.50221 62.25112,36.31713"
       prop_scale="1.1392253"
       scale_y_rel="false"
       vertical="false"
       hide_knot="false"
       bendpath-nodetypes="csc" />
  </defs>
  <sodipodi:namedview
     id="base"
     pagecolor="#ffffff"
     bordercolor="#666666"
     borderopacity="1.0"
     inkscape:pageopacity="0.0"
     inkscape:pageshadow="2"
     inkscape:zoom="1.4"
     inkscape:cx="428.25497"
     inkscape:cy="276.36858"
     inkscape:document-units="mm"
     inkscape:current-layer="layer1"
     inkscape:document-rotation="0"
     showgrid="false"
     inkscape:window-width="1920"
     inkscape:window-height="1016"
     inkscape:window-x="0"
     inkscape:window-y="0"
     inkscape:window-maximized="1"
     inkscape:object-paths="true"
     inkscape:snap-smooth-nodes="true"
     inkscape:snap-others="false"
     inkscape:snap-global="true" />
  <metadata
     id="metadata5">
    <rdf:RDF>
      <cc:Work
         rdf:about="">
        <dc:format>image/svg+xml</dc:format>
        <dc:type
           rdf:resource="http://purl.org/dc/dcmitype/StillImage" />
        <dc:title></dc:title>
      </cc:Work>
    </rdf:RDF>
  </metadata>
  <g
     inkscape:label="Layer 1"
     inkscape:groupmode="layer"
     id="layer1">
    <path
       id="path915"
       style="fill:#000000;stroke:#000000;stroke-width:0.0846667;stroke-opacity:1;fill-opacity:1"
       d="m 74.588044,115.05726 c 3.063363,-4.27737 7.208673,-7.93374 8.979297,-13.06098 2.408858,-6.427164 3.625486,-13.411608 2.827693,-20.25539 -0.04592,-1.870687 -1.348861,-3.620354 -2.15244,-0.98096 -3.436272,5.071696 -8.901021,9.543377 -15.350479,9.250813 -5.102628,0.04077 -9.601615,-3.445865 -12.150669,-7.644219 -2.388758,-3.558328 -0.254296,-7.830069 2.757531,-10.199926 2.807034,-2.023522 5.494309,-4.463834 9.204827,-4.497278 3.876407,-0.48474 7.94807,-0.0089 11.21833,2.26422 2.206265,0.458552 4.808608,5.882509 5.43965,1.47803 0.422644,-2.575343 2.545118,-5.931735 1.56299,-7.407703 -0.69613,0.547477 -1.60031,0.771211 -2.485991,0.725173 -1.788197,-0.09295 -4.254909,-0.809128 -4.027732,-2.65729 -0.454441,1.147331 -1.569265,2.638144 -2.591063,2.65729 -1.009256,0.01891 -1.927756,-1.417687 -2.029497,-2.87998 -1.879408,2.04375 -6.000751,4.819371 -7.776613,1.106471 -2.43808,2.680411 -6.86289,2.598651 -7.12171,-2.978939 -1.256932,2.159536 -3.556071,4.758263 -5.47089,4.752448 -1.681005,-0.0051 -2.310436,-2.647431 -2.674894,-4.85819 -1.452325,1.767777 -3.500182,4.711895 -5.864351,4.85819 -1.286324,0.02088 -2.071879,-0.771425 -3.153221,-1.644352 -1.375073,3.039589 -1.853636,4.045673 -2.795638,6.052802 -1.796289,4.162539 -3.531165,8.372132 -4.69989,12.76671 -1.573664,2.204827 -0.889116,8.593217 -4.69324,7.045683 0.473715,-3.348874 2.878248,-6.139107 3.572646,-9.477634 1.534352,-4.551843 3.145173,-9.088643 5.029458,-13.531495 1.060519,-3.577343 2.446162,-7.066155 3.298036,-10.700514 0.331729,-1.310901 1.134526,-3.22971 0.886353,-3.317105 -0.500579,-0.176281 -2.69349,2.77641 -3.566395,2.940712 0.588403,-1.842081 3.51087,-4.960272 4.568313,-4.666245 1.010798,0.281057 -0.240605,3.716952 -0.934901,6.291368 -1.085068,4.023381 2.442131,-2.049372 3.288889,-3.200428 1.873882,-2.547296 5.820639,-3.216783 5.33664,0.668121 0.05479,1.547129 -1.305778,7.422152 0.275511,2.928997 1.042893,-2.942779 2.879274,-5.939275 6.175007,-6.624424 4.617362,-0.843912 1.152243,5.720852 -1.738474,5.781194 -2.318972,0.45243 -3.778413,8.076948 -1.3403,7.764033 2.124493,-0.272665 3.15142,-3.856775 4.308685,-5.496434 0.333231,-1.080391 2.73996,-7.850157 6.517218,-8.112427 1.620598,-0.06534 2.987248,0.572115 2.862611,2.233486 -0.209265,2.335416 -4.608847,4.356372 -5.80498,4.398705 -0.777635,0.936103 -1.066568,8.455264 1.98797,5.885917 2.505299,-2.107351 3.235882,-7.439018 5.433814,-9.761917 1.683837,-2.273524 4.592137,-3.929255 7.083039,-2.167033 0.806635,-2.745935 1.598828,-5.466111 2.79198,-8.05613 1.156642,-2.510766 2.01044,-7.231566 4.621036,-8.093125 2.231392,2.239592 0.227169,6.649627 -0.173063,9.384295 -1.138408,4.315788 -3.590874,8.08451 -6.09768,11.71148 -0.440016,1.050744 -2.024448,6.663103 -1.226878,7.022149 0.206972,0.09317 0.574353,-0.922367 1.163768,-1.570939 1.565345,-1.722451 3.279972,-11.308736 5.628545,-10.986888 1.116189,0.277491 1.410285,3.621817 0.404018,4.915558 -0.203158,1.947309 -3.108249,9.566221 0.69314,7.986677 2.581719,-2.517718 2.097,-8.038718 4.241874,-10.942508 0.311292,-1.825571 3.797966,-2.96884 2.31044,-0.282463 -2.386102,5.634147 -2.560007,11.871028 -4.440213,17.657896 -0.124092,2.98498 -3.06421,5.873222 -2.002158,8.679142 2.167701,4.152177 1.168269,8.995942 0.776224,13.454961 -1.040526,8.069538 -5.054184,15.580035 -10.644111,21.336815 -0.69293,0.51057 -1.455202,1.99974 -2.238056,2.05358 z m -3.59833,-26.28798 c 5.780802,-1.152072 10.034976,-6.196621 12.12555,-11.47335 1.715522,-3.43027 -2.894199,-6.785395 -5.84069,-7.874 -3.623805,-1.837285 -8.172981,-1.163302 -11.734501,0.52143 -3.166286,2.103982 -6.223786,5.021702 -7.337732,8.742486 -0.691484,3.903753 2.640064,6.966135 5.607723,8.85251 2.140539,1.270415 4.71381,1.801484 7.17965,1.230924 z M 47.122244,62.990357 c 3.190598,-1.450752 3.812532,-5.219861 4.23137,-9.504607 0.378912,-3.876297 -5.491126,4.731643 -6.559849,6.415994 0.06604,2.555979 0.801142,3.783087 2.328479,3.088613 z m 24.600727,0.776553 c 3.106368,-1.584938 5.965376,-6.287395 5.980063,-9.806656 -0.5054,-4.585143 -4.400102,1.415635 -4.85066,3.322156 -0.283245,1.006433 -2.815951,6.316492 -1.129403,6.4845 z M 57.521704,55.32937 c 2.14658,-0.662468 4.476293,-6.047063 1.073985,-2.427446 -0.128552,0.057 -2.974947,3.014112 -1.073985,2.427446 z m 9.634062,-1.62591 c 1.307227,-1.54375 1.269616,-2.687874 -0.502917,-1.389951 -0.603572,0.441972 -2.401389,2.505887 -2.350295,3.278711 0.65001,-0.0952 1.211919,0.0495 2.853212,-1.88876 z m 14.123928,-1.68982 c 2.972112,-4.263616 4.512747,-10.147173 4.851431,-15.299039 -1.481878,1.532004 -2.062843,6.237774 -2.998071,8.704769 -0.535697,1.97841 -1.798695,5.249106 -1.85336,6.59427 z m 34.370216,30.964127 c -2.05306,-0.227969 -3.16836,-2.240395 -2.89797,-4.176772 -0.0121,-3.919475 1.53787,-7.605408 1.98366,-11.467507 0.87084,-3.895176 1.94563,-7.745848 3.22022,-11.520671 0.66319,-3.074757 1.53684,-6.120311 3.09578,-8.888968 1.02437,-0.826996 1.04422,-4.917958 -0.41263,-2.450467 -2.05442,2.260971 -3.22717,5.159252 -5.05792,7.573724 -1.42052,1.343597 -4.73635,0.416133 -3.15895,-1.849504 0.64987,-2.127872 1.64214,-4.166489 1.93453,-6.40479 0.24864,-2.018658 1.82557,-3.487507 2.23434,-5.446388 -1.4864,-0.502582 -2.32168,2.899577 -3.24471,4.083449 -1.13669,1.750218 -2.61924,3.303656 -3.5956,5.188367 -1.29266,2.264881 -2.7456,4.456423 -3.69452,6.890805 -1.37965,1.620876 -2.73999,8.317899 -4.08685,9.887363 -0.3121,0.289105 -0.92496,0.393873 -1.48014,0.332632 -0.850611,-0.09384 -1.565851,-0.577358 -0.856611,-1.384669 0.689381,-2.022827 2.116991,-8.573384 2.754731,-10.608473 0.69141,-2.717865 0.98029,-5.524306 1.89573,-8.183496 0.68141,-2.815323 1.53207,-5.580887 2.17481,-8.404967 0.33798,-1.655513 2.2119,-3.821544 1.29898,-5.252672 -2.10264,0.639294 -3.50944,2.319277 -4.7773,4.012212 -1.19678,0.872963 -1.92967,3.636617 -3.188371,3.467906 -0.25885,-1.886585 1.947751,-3.29399 2.759551,-4.910786 1.16747,-1.709676 2.71506,-3.071545 4.4443,-4.171362 1.77971,-0.578233 4.42085,0.695724 4.33028,2.75289 0.0407,2.173615 -0.93752,4.176757 -1.28215,6.296196 -0.63204,2.359846 -1.66758,4.611438 -2.12197,7.013896 -0.51952,1.310307 -1.57176,3.385838 -1.03717,4.491059 1.35957,-1.472775 1.61796,-3.592312 2.94841,-5.110488 1.06279,-1.720353 2.42118,-3.189782 3.37109,-4.984332 1.2899,-1.190107 2.10688,-4.165866 4.24439,-3.509123 1.63081,1.105245 1.44429,3.413527 0.9759,5.072229 -0.33232,1.841684 -0.84848,3.636745 -1.05122,5.494744 1.33042,-1.15557 2.1904,-2.985823 3.7648,-3.928575 2.43664,-1.238634 3.12893,2.53807 2.55367,4.21978 -0.29481,3.657995 -1.78939,7.055195 -2.57985,10.613353 -1.04447,3.19225 -1.7176,6.491453 -2.59865,9.729072 -1.08655,4.195691 -2.67836,8.459964 -2.28426,12.875178 0.47181,3.19358 2.91058,0.186378 3.80091,-1.091595 0.4597,-0.623976 2.43041,-3.620562 1.59841,-1.282815 -0.80999,1.9794 -1.92929,4.460667 -4.17285,5.038843 -0.59683,0.105978 -1.21464,0.189414 -1.8048,-0.0053 z M 169.97664,64.72904 c -2.16742,0.05283 -3.88253,-1.160378 -3.02391,-3.202961 0.24074,-0.558277 0.67043,-1.023278 1.24261,-1.779573 -1.98208,1.082759 -2.88171,3.424791 -4.8844,4.499454 -0.87776,0.659036 -2.43775,0.186157 -2.85384,-0.955875 -0.14965,-0.895376 -0.39966,-2.168301 -1.10179,-0.692651 -0.97485,1.877286 -2.3468,2.131606 -4.23019,2.131606 -1.65372,0 -2.80033,-3.487412 -2.38632,-5.124846 0.43607,-1.724686 2.94278,-9.47542 4.45817,-9.406592 2.0396,0.09264 -0.57155,7.160244 -0.88147,8.821282 -0.0462,1.691048 -1.157,3.692927 -0.14324,5.209343 1.90159,-0.106621 2.83739,-2.396498 4.01919,-3.683464 1.04828,-1.561799 1.12032,-3.575218 2.11448,-5.204587 0.6959,-1.517397 0.69008,-3.295527 1.46198,-4.752165 2.13331,-1.525162 1.41397,2.34613 1.22543,3.504454 -0.6614,2.512725 -0.91459,5.107805 -1.60016,7.61513 -0.48054,2.615881 2.12809,0.17004 2.69528,-0.800005 1.3308,-1.507177 3.01706,-2.635717 4.25689,-4.242079 1.05064,-1.271552 3.50958,-3.789356 3.74788,-5.482761 0.0824,-1.580725 0.92099,-5.299315 2.92155,-4.51577 0.4573,1.847228 -1.52285,3.530622 -1.35582,4.911208 0.25768,1.530067 0.0298,4.632502 0.0334,6.19913 2.1368,1.008806 4.11047,-4.259766 5.3831,-5.845802 0.85468,-1.450715 3.08352,-2.786658 4.5029,-1.326346 0.75765,0.643763 0.39467,1.652463 0.41733,2.507609 -7.5e-4,0.755478 -0.86542,3.029985 -0.77561,0.988565 0.28269,-1.210088 -0.0361,-4.179149 -1.61551,-2.298166 -1.19341,1.375405 -1.62439,3.205891 -2.34391,4.837208 -0.6913,2.153619 -1.84121,3.525999 -1.19304,5.819102 0.43701,2.194567 2.99473,0.485228 4.0086,-0.303191 1.36585,-1.281752 2.34751,-2.158331 3.48617,-3.518262 -0.37777,1.288729 -0.91452,2.207513 -1.61622,3.209373 -1.18891,1.563034 -2.88716,3.212453 -5.02786,2.881632 -1.71829,0.09369 -3.10831,-1.186395 -3.80794,-2.638216 -0.57422,-1.338328 -0.13582,-2.282041 0.0928,-3.136433 -0.27698,-0.245224 -1.09733,-0.184589 -1.35334,-0.03865 -0.18081,0.103071 -0.11479,0.423867 0.0319,0.711888 0.0182,2.458392 -0.19503,2.701612 -2.4852,4.08273 -1.15998,0.699541 -2.40871,0.994027 -3.41992,1.018676 z m 3.03675,-4.612653 c 0.1959,-0.672968 -0.13233,-1.268177 -0.13233,-1.268177 -1.54862,0.03454 -2.48526,0.257539 -3.63103,0.772249 -0.54369,1.690824 -1.54264,3.082513 0.96686,3.358521 2.00088,0.220068 2.65451,-2.374829 2.7965,-2.862593 z m -0.26079,-2.451103 c 0.60886,-0.94208 1.27491,-4.183267 -0.19957,-2.647035 -0.89646,1.16456 -2.63728,2.449076 -3.09213,3.594836 0.91351,0.04616 2.42568,-0.690165 3.2917,-0.947801 z m -25.7652,7.063756 c -1.70336,0 -4.03986,-1.11532 -3.6448,-3.493232 0.22395,-2.476495 0.39067,-4.568834 1.14449,-6.945546 0.55249,-2.288717 1.66018,-4.480781 2.37937,-6.762516 1.50953,-3.736202 2.64439,-7.814195 5.51166,-10.800041 0.9825,-1.709656 3.04789,-2.860706 4.7678,-1.409278 2.08792,0.680208 1.50007,3.046589 1.18929,4.696193 -0.51893,3.388251 -2.48282,6.304872 -4.38314,9.069476 -2.01609,2.81537 -4.06346,5.622489 -6.54418,8.059697 -0.81658,1.593885 -0.6245,3.129043 -0.79227,4.893364 -0.007,3.588939 4.857,-1.609506 5.47172,-2.282243 -0.0808,1.542998 -0.95959,2.613091 -1.98302,3.77602 -0.75456,0.948952 -2.37554,1.198106 -3.11692,1.198106 z m 2.77363,-13.206247 c 1.7798,-1.955183 3.38221,-4.087264 4.81876,-6.307549 1.0377,-2.164927 2.36757,-4.323817 2.42457,-6.795763 0.49995,-1.133788 0.0619,-3.100802 -1.29223,-1.478004 -2.6963,2.871453 -3.61266,6.841811 -5.15739,10.360687 -0.44759,1.72582 -1.43767,3.476841 -1.81188,5.092145 0.41107,-0.18824 0.69827,-0.566812 1.01817,-0.871516 z m -25.05386,12.931148 c -0.3079,-0.270983 -0.49011,-0.530061 -1.23418,-1.754956 -0.61566,-1.013503 -0.78401,-2.554005 -0.41218,-3.771508 0.058,-0.189679 0.39763,-1.304003 0.75489,-2.476283 0.35725,-1.17228 0.80073,-2.41565 0.98552,-2.763039 0.18477,-0.347402 0.40092,-0.759715 0.48032,-0.916267 0.33937,-0.669205 0.851,-1.116269 1.60401,-1.401612 0.41264,-0.156367 1.04341,-0.47364 1.4017,-0.705064 0.53326,-0.34442 0.77729,-0.429148 1.34519,-0.467084 0.8454,-0.05648 1.29342,0.155433 1.55868,0.737231 l 0.18182,0.398804 0.79156,-0.07753 c 0.7818,-0.07659 0.79413,-0.07366 1.00447,0.240909 0.11716,0.17516 0.24189,0.445358 0.27727,0.60042 0.13812,0.605627 0.1844,1.998688 0.0824,2.481104 -0.059,0.279124 -0.19937,0.930133 -0.31192,1.446689 l -0.2046,0.939177 0.25453,0.101234 c 0.4221,0.167846 0.25866,0.560231 -0.29375,0.705248 -0.22893,0.06007 -0.37272,0.296826 -0.83456,1.374014 -0.3069,0.715759 -0.55798,1.356658 -0.55798,1.424217 0,0.274075 -0.82932,1.770742 -1.26985,2.291678 -1.17394,1.38828 -2.23268,1.867713 -4.12443,1.867713 -1.07907,0 -1.18984,-0.02065 -1.47893,-0.275021 z m 3.49124,-1.214783 c 1.06446,-1.093558 1.25606,-1.308252 1.51234,-1.694577 0.15374,-0.23173 0.43131,-0.815354 0.61685,-1.296943 0.18554,-0.481563 0.55024,-1.245995 0.81045,-1.698719 0.43031,-0.748633 0.46044,-0.847935 0.33287,-1.097235 -0.0771,-0.150771 -0.29125,-0.382328 -0.47579,-0.514598 -1.01362,-0.726454 -1.36069,-2.19588 -0.83083,-3.517573 0.16043,-0.400163 0.17091,-0.547457 0.0659,-0.926881 -0.2323,-0.839676 -0.38789,-0.69153 -1.36226,1.296942 -0.16718,0.341156 -0.30456,0.68371 -0.30531,0.761248 -0.001,0.07753 -0.038,0.140966 -0.083,0.140966 -0.0447,0 -0.13885,0.139568 -0.20896,0.310146 -0.21371,0.52002 -1.0149,2.991454 -1.10593,3.411505 -0.047,0.217106 -0.14632,0.546979 -0.22057,0.733061 -0.39747,0.995788 -0.38161,4.192679 0.0222,4.477516 0.26008,0.183459 0.86161,-0.0039 1.23188,-0.384858 z m 3.97006,-7.335009 c 0.38898,-0.977686 0.45228,-2.973605 0.0981,-3.097029 -0.21258,-0.07406 -0.79415,1.669534 -0.79415,2.38099 0,1.052865 0.39872,1.463113 0.69593,0.716039 z m 3.90819,8.01423 c -1.19425,-0.874841 -1.09813,-2.496017 -1.60671,-3.747854 -0.42888,-1.520556 -0.61002,-3.113029 -0.29953,-4.674958 0.31398,-2.298368 1.29846,-4.433435 1.62441,-6.730179 0.40505,-2.147518 1.0723,-4.254626 2.00958,-6.224103 1.64223,-2.371194 2.66944,-5.211997 4.82587,-7.197402 0.84172,-0.855896 2.31105,-0.926259 3.12564,0.0079 0.75908,1.095053 -0.009,2.437439 -0.13472,3.610368 -0.18834,2.286586 -0.72961,4.540159 -1.60765,6.658491 -0.74793,2.634927 -2.44913,4.827955 -3.76077,7.191138 -0.54939,0.916259 -1.3088,1.690679 -2.21179,2.246104 -0.95625,1.172374 -0.44877,2.778898 -0.41255,4.154558 0.13004,1.330204 0.19325,2.677583 0.46815,3.986207 0.96203,0.960841 2.14908,-0.948028 2.97174,-1.4732 1.11116,-0.815138 2.01159,-1.849626 2.81603,-2.958806 1.05194,-0.993894 -0.0858,0.69963 -0.3413,1.053928 -1.09695,1.638765 -2.27147,3.292788 -3.85306,4.496271 -0.94159,0.30713 -2.21075,0.577078 -3.09249,0.131841 -0.15537,-0.197152 -0.3342,-0.365753 -0.52085,-0.530328 z m 2.82823,-10.674682 c 1.29956,-1.86533 2.41048,-3.850777 3.53772,-5.822382 0.54265,-1.267207 1.15903,-2.516099 1.39694,-3.886891 0.39472,-1.931704 0.72143,-3.880683 1.01851,-5.829015 0.28259,-0.748373 -0.16042,-2.015219 -0.86377,-0.881754 -2.03396,2.77631 -3.18947,6.075263 -4.28172,9.307387 -0.63983,2.076421 -0.77474,4.274285 -1.41296,6.3507 -0.2053,0.473138 -0.74909,2.367535 0.23203,1.311027 0.13524,-0.175422 0.25617,-0.361283 0.37325,-0.549072 z M 92.700165,55.55022 c -0.0011,-0.08449 0.06075,-0.20645 0.138558,-0.271076 0.181427,-0.150574 0.183344,0.0033 0.0033,0.241494 -0.116389,0.153885 -0.139027,0.158622 -0.141557,0.02954 z m 0.563229,-0.837304 c 0,-0.05194 0.04503,-0.09441 0.09998,-0.09441 0.05495,0 0.07368,0.04247 0.04157,0.09441 -0.0321,0.05194 -0.07702,0.09441 -0.09998,0.09441 -0.02285,0 -0.04157,-0.04247 -0.04157,-0.09441 z M 28.863185,46.547691 c -0.531524,0.280603 -1.094569,0.538752 -1.435673,1.009219 -1.657994,1.698629 -2.912856,3.537941 -3.596176,5.722567 1.420868,1.213547 4.762181,1.704044 5.914972,1.341378 1.340441,-0.843602 2.41578,-2.076164 3.495772,-3.223735 0.865588,-1.301447 0.508006,-3.034561 -0.403016,-4.257621 -0.932725,-1.370474 -2.86757,-1.113371 -3.975879,-0.591808 z m 4.537115,0.452013 c 0.990153,0.804455 0.897159,4.163799 2.450422,2.131074 0.714197,-1.255923 2.723967,-2.234456 2.117294,-3.871302 -0.456126,-1.586452 -1.256511,-3.048343 -1.832578,-4.59356 -0.916428,-2.2536 -1.472557,-4.953861 -0.442898,-7.204776 0.791297,-1.729838 2.516263,-3.591964 4.647712,-3.198095 1.602432,0.296112 3.266135,1.349656 3.973713,2.877221 0.7894,1.704207 0.477348,3.625632 -0.152345,5.316184 -0.613989,1.106514 -0.877913,2.427618 -1.64573,3.38667 -0.492653,0.798562 -1.07432,1.735724 -1.509574,2.699591 0.178355,1.592507 1.098314,3.062329 1.161404,4.708739 0.246028,2.409666 0.11108,4.897345 -0.46829,7.24812 -0.300144,1.217824 -0.983779,2.352089 -1.618785,3.437135 -0.356559,0.609259 -0.8419,1.290354 -1.446365,1.818684 -0.934604,0.816886 -2.029006,1.430753 -3.19238,1.985011 -1.503518,0.71631 -3.214618,0.66376 -4.819157,0.597675 -1.350459,-0.05562 -2.546554,-0.299532 -3.781301,-0.875913 -1.385691,-0.646842 -2.159337,-1.911553 -3.083303,-3.189941 -0.843146,0.63202 -1.601151,1.234448 -2.491029,1.721539 -1.419426,0.776949 -4.970544,3.331985 -7.694367,2.392871 1.950985,-0.927519 4.684488,-1.841761 6.307723,-2.879674 1.174445,-0.750952 2.116266,-1.279327 3.298474,-2.300147 -0.113418,-1.747187 -0.372439,-3.667865 -0.231121,-5.141088 -1.209713,-1.279609 -2.594893,-2.506798 -3.063144,-4.277943 -0.574638,-1.595961 -0.660695,-3.467825 0.08854,-5.021559 1.633076,-3.424991 3.727718,-4.206337 6.580695,-5.978695 -1.218751,2.222692 -3.657157,3.265132 -4.757849,5.449254 -1.267245,1.816484 -1.265712,4.322598 -0.495545,6.356023 0.282613,0.672601 1.263104,1.969671 1.729489,2.19339 0.573737,-1.256938 1.450534,-3.457013 2.684907,-4.607767 1.118026,-1.153825 2.503541,-2.420596 4.197682,-2.417061 1.836267,-0.146026 2.566459,0.489868 3.487706,1.23834 z M 32.401117,63.39524 c 1.708356,-0.319246 2.970273,-1.433334 4.16401,-2.62949 1.106782,-1.109025 1.716865,-2.551263 2.225751,-3.952021 0.705826,-1.942854 0.574486,-4.088136 0.566802,-6.128998 -0.0024,-0.647034 -0.0683,-1.91236 -0.423962,-3.008229 -1.304145,0.778058 -2.816366,2.470526 -3.939245,3.430391 -0.814322,0.752645 -1.624279,1.59818 -2.427694,2.402074 -0.9534,0.808828 -1.758761,1.796542 -2.752792,2.475793 -0.992655,0.685984 -1.903999,1.397023 -2.90129,2.054566 -0.714048,0.525084 -1.597865,1.017802 -2.343236,1.860041 0.926354,1.193139 2.272082,3.030388 6.059739,3.567561 0.585207,0.08299 1.182245,-0.02967 1.771917,-0.07169 z m -4.363153,-7.502178 c -1.282108,0.08937 -3.648686,-0.960439 -4.332967,-1.402551 -0.207226,0.753763 -0.270412,1.979884 -0.27222,2.726567 0.0251,0.343543 0.107015,0.94661 0.365367,1.419068 1.412723,-0.581154 3.070226,-1.855904 4.23982,-2.743084 z M 40.825447,42.68998 c 1.531939,-2.026253 2.682429,-4.444995 2.93722,-6.99518 -0.01949,-1.557821 -0.5016,-3.120445 -1.928895,-4.06761 -1.038339,-0.689051 -2.405288,-0.959487 -3.077695,0.242402 -0.696996,1.245841 -1.055914,2.802529 -0.99479,4.199328 0.35084,2.380778 1.464036,4.558153 2.5315,6.6845 0.135299,0.157425 0.450915,0.144664 0.53266,-0.06344 z m -17.99166,-0.16933 c -0.202784,-0.338427 -0.134987,0.315027 0,0 z" />
    <path
       style="fill:#000000;stroke:#ff0000;stroke-width:0.264583px;stroke-linecap:butt;stroke-linejoin:miter;stroke-opacity:1;fill-opacity:1"
       d="M 12.436385,50.197602 H 192.26597"
       id="path1084" />
    <path
       style="fill:#000000;stroke:#ff0000;stroke-width:0.264583px;stroke-linecap:butt;stroke-linejoin:miter;stroke-opacity:1;fill-opacity:1"
       d="M 13.859117,64.72904 H 193.6887"
       id="path1086" />
    <path
       style="fill:#000000;stroke:#ff0000;stroke-width:0.264583px;stroke-linecap:butt;stroke-linejoin:miter;stroke-opacity:1;fill-opacity:1"
       d="M 13.106909,30.177443 H 192.9365"
       id="path1088" />
    <path
       style="fill:none;stroke:#ff0000;stroke-width:0.313026px;stroke-linecap:butt;stroke-linejoin:miter;stroke-opacity:1"
       d="M -27.780111,34.637505 H 223.9288"
       id="path1088-3" />
    <ellipse
       style="fill:none;fill-opacity:1;stroke:#ff0000;stroke-width:0.803201;stroke-linecap:square;stroke-linejoin:round;stroke-opacity:1"
       id="path1164"
       cx="118.33566"
       cy="262.09171"
       rx="133.12299"
       ry="127.16422" />
    <path
       id="path1167"
       style="fill:#000000;fill-opacity:1;stroke:#000000;stroke-width:0.0846667;stroke-opacity:1"
       d="m 75.828316,273.29155 c -0.563316,-1.62195 -0.995176,-3.1841 -1.359409,-4.78989 -0.692785,-3.03636 -0.996048,-6.1952 -1.64468,-9.95819 -1.134385,-7.01776 -2.168577,-15.49469 -4.618257,-22.63479 -0.495846,-1.79906 -2.159194,-3.96984 -1.89343,-0.6385 -0.438377,2.92969 -1.068316,5.99482 -1.798526,8.3238 -0.835636,2.60168 -1.907456,4.55394 -3.811872,5.45649 -2.724052,1.63303 -7.338405,0.1735 -11.902551,-2.25998 -4.063006,-1.97976 -6.017443,-6.53339 -5.433473,-10.53475 0.643713,-3.3731 1.262333,-7.25566 4.490177,-9.16597 2.525098,-1.98305 5.694181,-3.21066 8.92609,-2.84074 0.714969,0.0835 1.42661,0.24501 2.127818,0.49127 1.116197,-0.12214 2.697972,1.09925 3.87799,1.77087 1.166457,0.66391 1.926276,0.76165 1.54756,-1.73631 -0.393918,-2.93073 0.78539,-7.173 -0.62911,-8.54989 -0.562035,0.78225 -1.408409,1.27179 -2.313304,1.47916 -1.788857,0.40989 -4.584873,0.48581 -5.049978,-1.55138 -0.03022,1.27885 -0.494949,3.0989 -1.32243,3.68902 -0.07133,0.0515 -0.145736,0.0944 -0.22332,0.12779 -0.982612,0.42287 -2.526212,-0.68203 -3.302805,-2.15903 -0.999563,3.08789 -3.325742,7.56195 -6.969523,5.00837 -0.705416,3.96254 -4.376726,6.42898 -8.386397,1.48758 0.330836,2.78897 0.223849,6.66438 -1.221333,7.90256 -0.251346,0.21537 -0.542426,0.32455 -0.864646,0.35015 -1.357711,0.11542 -3.32239,-1.28588 -4.936869,-2.55674 0.199835,2.56316 0.987233,6.4841 -0.487647,8.28317 -0.874923,0.96244 -2.065083,0.93716 -3.540003,1.10557 1.255116,2.53177 2.662375,5.19655 3.406831,6.56644 2.535771,4.37262 5.295196,8.51562 8.660077,12.39393 1.170025,2.59653 7.333792,6.47259 4.085532,7.96892 -2.854722,-2.57374 -4.206505,-6.105 -6.860297,-8.89795 -3.284714,-4.18272 -6.480525,-8.59867 -9.165791,-13.20463 -2.46514,-3.39218 -4.534726,-7.05821 -7.008445,-10.48611 -0.874333,-1.25665 -1.88688,-3.38717 -2.151475,-3.24183 -0.533694,0.29317 0.372186,4.33998 -0.100977,5.18587 -1.189424,-1.83262 -1.655483,-6.66863 -0.568943,-7.35943 1.01886,-0.64776 2.918333,3.06481 4.580783,5.57396 1.325781,2.00102 1.294624,1.04124 0.965299,-0.48828 -0.339463,-1.57661 -0.976326,-3.88742 -1.108967,-4.69368 -0.587071,-3.5685 2.398866,-7.52252 4.966895,-3.87028 0.58704,0.5946 1.795661,2.47805 2.508843,3.46501 0.796222,1.10188 0.991764,1.19156 -0.02712,-1.22536 -0.444368,-1.06054 -0.812547,-2.20068 -1.012702,-3.37613 -0.40815,-2.44978 -0.06503,-5.06347 1.861486,-7.21642 2.066858,-2.21021 3.311145,-0.96624 3.687718,0.87398 0.384715,1.88001 -0.0059,4.5449 -1.271376,5.61227 -2.737801,3.23098 3.65911,8.68132 4.47213,7.78021 1.483234,-1.64393 -0.121257,-5.54368 -0.174521,-7.84203 -0.41738,-1.1832 -2.795533,-9.1578 1.403707,-12.06429 1.747583,-1.14428 3.657429,-1.35457 4.433784,0.37731 0.999555,2.32893 -2.420849,7.21005 -3.426176,7.93016 -0.08494,0.71051 1.01706,2.84816 2.288437,4.30607 1.287631,1.47655 2.628712,2.1821 3.236416,0.10816 1.016037,-3.46747 -1.252278,-9.16047 -0.02484,-12.77812 0.614746,-2.9533 2.873946,-6.03682 6.220309,-6.09942 0.344246,-0.002 0.696387,0.0292 1.054763,0.0972 -0.136731,-3.25656 -0.178174,-6.60594 0.503851,-9.90945 0.66031,-3.19835 0.286813,-8.79082 3.987931,-10.79421 3.832178,1.52321 2.22005,7.36402 2.465539,10.39452 -0.270097,4.99236 -2.215362,10.3215 -3.620934,15.08046 -0.09528,1.34039 0.42955,7.90068 1.490247,7.97645 0.249805,0.0179 0.209289,-1.20555 0.575194,-2.12408 0.971755,-2.43939 -0.336688,-13.5107 2.685387,-13.95851 1.503476,-0.0777 2.732162,3.54227 1.940728,5.26961 0.166181,1.10248 -0.0016,3.97034 0.307132,6.19034 0.313764,2.25615 1.029503,3.75453 2.748175,2.4048 1.975541,-3.46408 0.09412,-9.47569 2.081523,-13.2337 -0.01249,-2.1065 4.118585,-4.19734 2.760332,-0.82105 -1.699523,6.08125 -0.746841,14.59372 -1.048536,20.67383 0.62228,3.34288 -1.086533,7.14166 0.544602,10.02356 2.708591,3.88576 3.312569,10.05677 4.213807,14.73394 1.42893,8.38946 1.762745,16.49644 3.227778,22.84333 0,0 0,0 0,0 0.11553,0.50357 0.233343,0.99497 0.353466,1.47572 0.107734,0.57859 0.681812,2.17318 0.592328,2.27928 0,0 0,0 -10e-7,0 z M 61.17057,247.17041 c 1.221514,-1.34667 1.941497,-3.43132 2.411632,-5.90787 0.515046,-2.77092 0.785349,-6.24268 0.724083,-9.50406 0.19474,-3.89706 -3.787676,-6.17835 -7.15011,-6.57421 -0.296013,-0.0343 -0.57992,-0.0529 -0.846578,-0.0568 -4.156903,-0.59471 -7.900879,2.30803 -9.74978,5.78495 -1.292017,3.74174 -1.459419,7.94778 0.494897,11.8916 2.237562,3.68411 6.694575,5.01427 9.36358,5.62035 2.00972,0.38429 3.681869,0.0513 4.752276,-1.25394 z M 27.363793,236.75162 c 1.074811,-3.53336 -1.33284,-7.0441 -4.364431,-10.93673 -1.350801,-1.73446 -1.637097,0.36889 -1.35533,3.16195 0.294102,2.91533 1.121915,5.99461 1.490525,7.18336 2.212092,1.90287 3.723597,2.25364 4.229236,0.59142 z m 21.089343,-15.05543 c 1.978277,-2.93168 3.049009,-9.46 1.611715,-13.04424 -1.275652,-2.29651 -2.461218,-1.37457 -3.174205,0.41463 -0.724085,1.81705 -0.905342,4.35407 -0.653233,5.47436 0.105474,0.58749 0.18118,2.56326 0.505543,4.28763 0.325266,1.72917 0.873577,3.19526 1.71018,2.86762 z m -18.620376,0.79924 c 0.730853,-1.07188 0.754888,-3.28882 0.505712,-4.47885 -0.223771,-1.06869 -0.853878,-1.54514 -1.226952,1.51116 -0.04156,0.0742 -0.21706,1.31155 -0.18533,2.27737 0.03222,0.98065 0.255014,1.64589 0.90657,0.69032 z m 8.415396,-8.19972 c 0.408383,-2.07578 -0.131157,-3.70672 -1.361242,-1.02327 -0.400434,0.87356 -0.966914,3.95164 -0.397415,4.6892 0.630493,-0.55946 1.175516,-0.70186 1.758657,-3.66593 z m 15.295516,-9.28819 c 2.00524,-5.74561 2.460881,-12.84475 1.475761,-18.61378 -1.745392,2.28571 -1.049662,7.65169 -1.454521,10.72 -0.04373,2.53932 -0.498391,6.25825 -0.02124,7.89378 z m 37.640592,30.88249 c -1.593624,-0.40397 -2.3722,-2.73739 -2.003294,-4.92685 0.271962,-4.46128 1.962788,-8.5564 2.765717,-12.90689 1.220277,-4.34634 2.762708,-8.62128 4.711434,-12.70736 1.153863,-3.35169 2.648714,-6.72716 5.096289,-9.49493 1.60836,-0.79965 2.11323,-5.21119 -0.10304,-2.84122 -3.060075,2.12425 -4.881679,5.2355 -7.270091,7.76857 -1.670319,1.2676 -5.584424,0.14793 -3.525821,-2.39551 0.903504,-2.37514 2.279692,-4.6008 2.849236,-7.11358 0.494749,-2.2678 2.688874,-3.73881 3.468786,-5.89816 -1.960319,-0.79972 -3.379629,2.99888 -4.625382,4.24831 -1.615342,1.93807 -3.424796,3.50711 -4.679494,5.67639 -1.629519,2.56717 -3.256521,4.97635 -4.308116,7.79366 -0.09943,0.12297 -0.198515,0.27154 -0.297136,0.44232 0,0 -10e-7,0 -10e-7,0 -1.493707,2.38066 -2.730462,9.17173 -3.955872,10.89651 -0.307072,0.34224 -0.931503,0.49291 -1.505463,0.45869 -0.869752,-0.0518 -1.67433,-0.54058 -0.996133,-1.51526 0.554981,-2.35339 1.747211,-9.89927 2.419954,-12.24546 0.706846,-3.12639 0.970824,-6.33742 2.116538,-9.37931 0.573134,-2.20019 1.265301,-4.29751 1.963798,-6.46873 0.291253,-1.0316 0.580746,-2.07348 0.847019,-3.11296 0.435522,-1.88873 2.906934,-4.34206 1.737947,-5.98377 -0.969835,0.24643 -1.81494,0.65174 -2.56634,1.15712 -1.609916,0.89831 -2.879895,2.16341 -4.028992,3.44914 -1.69428,1.04055 -2.556236,4.23644 -4.339646,4.17048 -0.516273,-2.12 2.539815,-3.91546 3.660742,-5.79614 1.245409,-1.52348 2.859352,-2.79965 4.712629,-3.84098 0.506567,-0.34483 1.036539,-0.66778 1.587496,-0.96964 2.361378,-0.66373 5.928464,0.91778 5.687041,3.28334 -0.06754,2.4787 -1.464442,4.70145 -1.993296,7.10115 -0.904243,2.66057 -2.234833,5.19974 -2.823333,7.93123 -0.649329,1.50466 -1.871277,3.82738 -1.272894,5.10922 1.55107,-1.67367 1.905429,-4.08579 3.567636,-5.76196 1.348538,-1.91746 3.127829,-3.501 4.492302,-5.45466 1.756718,-1.23452 3.158664,-4.53667 6.025191,-3.43614 2.119315,1.53077 1.485795,4.12161 0.636139,5.90396 -0.721862,2.08568 -1.583684,3.90874 -2.088047,6.04661 1.802303,-1.11212 3.178943,-3.03192 5.437033,-3.75032 3.61799,-0.90468 3.55045,3.68031 2.50576,5.32541 -1.16857,4.01356 -3.66605,7.48739 -5.182489,11.34552 -1.680442,3.29426 -2.994759,7.1374 -4.276557,10.57385 -1.73384,4.80678 -3.50725,9.09351 -3.691651,14.34515 0.02414,3.5568 2.268882,0.54675 3.255967,-0.86432 0.415246,-0.56569 2.702078,-3.85105 1.536886,-1.24204 -1.035116,2.10838 -2.3459,4.7713 -4.135327,5.22625 -0.478689,0.0691 -0.969173,0.11574 -1.413153,-0.14638 z m 50.466006,5.24938 c -1.41954,-1.54452 -1.59566,-3.7703 0.71874,-4.68765 0.63318,-0.24477 1.32565,-0.27523 2.35788,-0.40733 -0.8163,-0.25305 -1.67557,-0.26992 -2.54339,-0.21498 -1.56285,0.0909 -3.13901,0.41464 -4.61368,0.0257 -1.15993,-0.11593 -1.90069,-1.60562 -1.30694,-2.84183 0.58373,-0.82224 1.42547,-2.09312 -0.28997,-1.36584 -2.22116,0.85606 -3.42485,0.13016 -4.9273,-1.13486 -1.31523,-1.10737 0.15613,-4.98069 1.67934,-6.15397 1.60438,-1.23578 9.61348,-6.09451 10.9739,-4.78662 0.91957,0.88403 -0.61482,2.26524 -2.51137,3.59502 -1.90246,1.33394 -4.17243,2.6503 -4.92587,3.24906 -1.35182,1.46682 -3.66898,2.30094 -4.01529,4.37185 1.56592,1.19675 4.03491,-0.0432 5.98613,-0.22259 2.0852,-0.51215 3.74057,-2.08344 5.82577,-2.59559 1.78037,-0.66257 3.22591,-2.08579 5.04584,-2.58675 2.98799,0.59605 -0.85179,3.04039 -1.93103,3.77341 -2.58968,1.42173 -4.91935,3.26551 -7.46872,4.7425 -2.43105,1.67705 1.32626,1.74691 2.58638,1.41962 0.15807,-0.0103 0.31581,-0.0174 0.47329,-0.0218 2.02447,-0.0672 4.00109,0.31248 6.07158,0.11233 1.7726,-0.11339 5.70997,-0.002 7.32036,-1.01014 1.42902,-1.06577 5.31038,-3.08717 5.9512,-0.83928 -1.34065,1.69168 -4.14422,1.27187 -5.25628,2.39706 -1.16549,1.28467 -4.10355,3.36295 -5.46624,4.47093 0.45696,2.35633 6.35833,0.21777 8.59131,0.11932 1.84058,-0.33567 4.39417,0.51494 3.89329,2.61569 -0.14364,1.02558 -1.27713,1.44069 -2.03983,2.04233 -0.67688,0.50891 -3.26757,1.42138 -1.3483,0.0808 1.2559,-0.60905 3.7911,-2.8996 1.1379,-2.83679 -1.96079,0.0157 -3.87222,0.94636 -5.77775,1.52335 -2.37271,0.96806 -4.26661,1.03329 -5.95393,3.14418 -1.70797,1.86212 1.31413,2.61026 2.61471,2.83583 1.95628,0.15263 3.2977,0.29711 5.18727,0.22834 -1.38838,0.59529 -2.52726,0.81779 -3.83812,0.97463 -2.10042,0.17365 -4.55866,0.0294 -5.50663,-1.80888 -1.08722,-1.2299 -0.77227,-3.17835 0.0932,-4.74436 0.84502,-1.39634 1.93996,-1.72432 2.85019,-2.1574 0.0466,-0.38961 -0.51977,-0.98364 -0.81189,-1.07855 -0.20534,-0.0667 -0.44747,0.21477 -0.61066,0.53452 -2.17741,1.78302 -2.50388,1.76983 -5.15678,1.04704 -1.33809,-0.36458 -2.38623,-1.07713 -3.05831,-1.80836 0,0 5e-5,0 5e-5,0 z m 5.96016,-1.10314 c 0.71531,-0.34012 1.02268,-1.02849 1.02268,-1.02849 -1.03672,-1.17687 -1.87062,-1.74929 -3.08039,-2.24488 -1.83125,0.85779 -3.64334,1.14846 -2.24098,3.25046 1.10475,1.65592 3.77214,0.27328 4.29869,0.0229 z m 1.97184,-1.99337 c 1.19525,-0.20618 4.53428,-2.04114 2.17755,-2.09474 -1.61817,0.13659 -3.90958,-0.28289 -5.20115,0.22215 0.57317,0.73447 2.23871,1.38767 3.0236,1.87259 z m -25.41822,-12.66101 c -1.48017,-0.95527 -3.10704,-3.36404 -1.40889,-5.48688 1.56206,-2.28253 2.98048,-4.37107 5.13182,-6.17661 2.03458,-1.99574 4.38574,-3.16181 6.77552,-4.88082 0.73167,-0.43006 1.47523,-0.87825 2.2069,-1.30831 3.39131,-2.01051 6.97828,-3.96293 11.54147,-3.95763 2.3871,-0.61524 5.73011,0.38536 6.52644,3.31019 1.7573,2.56558 -0.77994,4.01644 -2.33478,5.08955 -3.09673,2.32876 -7.36898,3.10045 -11.22656,3.97151 -3.92939,0.80545 -7.784,1.76479 -11.6871,2.402 -0.13258,0.0216 -0.26514,0.043 -0.3977,0.0641 -1.78759,0.9403 -2.60885,2.62286 -3.81505,4.17203 -0.65169,1.01776 -0.43321,1.54759 0.20797,1.79606 1.37426,0.54022 5.73724,-0.23002 6.35156,-0.33777 -1.14119,1.32759 -2.67286,1.70205 -4.33506,2.12191 -0.97599,0.29856 -2.12826,-0.0634 -2.91073,-0.43721 0,0 0,0 0,0 -0.25055,-0.11824 -0.46544,-0.23859 -0.62581,-0.34209 z m 11.19278,-10.55263 c 3.17374,-0.45165 6.35129,-1.05085 9.46606,-1.75749 2.6211,-0.98709 5.71008,-1.6677 7.61136,-3.68641 1.29542,-0.46286 2.52647,-2.60897 -0.3035,-2.48406 -5.10233,-0.0715 -9.08738,2.73039 -13.09515,4.66573 -1.65726,1.21791 -3.88571,2.07173 -5.32915,3.30634 0.5586,0.12965 1.10975,-0.006 1.65038,-0.0441 z m -32.97395,1.41954 c -0.26921,-0.39201 -0.36017,-0.66913 -0.88884,-2.21296 -0.42833,-1.25081 -0.31434,-3.01803 0.34649,-4.302 0.14194,-0.27556 0.6695,-1.30275 1.37377,-2.60691 0.67309,-1.24644 1.4581,-2.4935 1.77231,-2.84999 0.30074,-0.34123 0.65879,-0.74481 0.79219,-0.89844 0.5694,-0.65586 1.30705,-1.01836 2.31269,-1.1157 0.53388,-0.0517 1.43903,-0.21589 1.93998,-0.35305 0.25552,-0.07 0.46481,-0.11763 0.65521,-0.14458 0,0 0,0 0,0 0.38688,-0.0487 0.70733,-0.0166 1.19969,0.0938 1.10368,0.24726 1.60776,0.66069 1.74435,1.39816 0.0312,0.1685 0.0619,0.33698 0.0922,0.50545 0.33994,0.0768 0.67966,0.15601 1.01913,0.23757 1.00282,0.24086 1.02261,0.2625 1.16339,0.68676 0.0798,0.2402 0.13063,0.58332 0.11489,0.76606 -0.0614,0.71212 -0.5426,2.22285 -0.84877,2.69844 -0.32178,0.49991 -0.44576,0.68907 -0.91544,1.42427 -0.19723,0.30875 -0.39336,0.61804 -0.58838,0.92787 0.0845,0.0701 0.16874,0.14027 0.25279,0.21065 0.42227,0.35353 0.0738,0.70181 -0.59846,0.64199 -0.28114,-0.025 -0.53867,0.17052 -1.43706,1.16589 -0.59697,0.66139 -1.09242,1.26968 -1.11594,1.34297 -0.0875,0.27284 -1.51997,1.6589 -2.13042,2.07431 -0.74402,0.50634 -1.3883,0.83613 -2.05036,1.00741 -0.83623,0.22284 -1.68156,0.1828 -2.76295,-0.0637 -1.10409,-0.25168 -1.20105,-0.28265 -1.44253,-0.63412 2e-5,-4e-5 3e-5,-7e-5 5e-5,-1.1e-4 z m 3.9199,-0.51087 c 0.2819,-0.18215 0.54014,-0.34656 0.73975,-0.47377 0.84431,-0.52872 1.03882,-0.65863 1.37779,-0.9514 0.23211,-0.20045 0.73136,-0.76338 1.08701,-1.22183 0.37102,-0.47824 1.00738,-1.16345 1.46735,-1.57576 0.74146,-0.66464 0.81483,-0.75124 0.75429,-1.07286 -0.0362,-0.19279 -0.20188,-0.52026 -0.37134,-0.73126 -0.92658,-1.1536 -0.90241,-2.88121 0.17226,-4.13448 0.32552,-0.37961 0.38807,-0.53519 0.38067,-0.98869 -0.0157,-0.97026 -0.27584,-0.93706 -2.082,0.94587 -0.0789,0.0823 -0.1551,0.16525 -0.22533,0.24484 0,0 0,0 0,0 -0.20035,0.2313 -0.35044,0.43243 -0.36802,0.4956 -0.024,0.085 -0.0865,0.1435 -0.13991,0.12978 -0.053,-0.0136 -0.20541,0.11144 -0.33747,0.27832 -0.48009,0.60672 -1.95864,2.90349 -2.22701,3.45081 -0.11056,0.22559 -0.31221,0.56754 -0.44303,0.75221 -0.7058,0.9961 -1.51142,4.54936 -1.17243,4.96047 0.21916,0.2658 0.89211,0.21244 1.38725,-0.1079 5e-5,2e-5 1.1e-4,3e-5 1.7e-4,5e-5 z m 6.77789,-6.71012 c 0.80411,-0.9057 1.622,-3.0295 1.23046,-3.30938 -0.23331,-0.16681 -1.5509,1.49499 -1.79711,2.26729 -0.36822,1.15502 -0.0387,1.72374 0.56651,1.04204 4e-5,2e-5 9e-5,3e-5 1.4e-4,5e-5 z m 1.08755,10.12641 c -0.82189,-1.40959 -0.0716,-3.08894 -0.11977,-4.63028 0.14448,-1.78663 0.54691,-3.5874 1.52025,-5.11726 1.2717,-2.32162 3.3434,-4.13058 4.73028,-6.39325 1.42405,-2.06396 3.21163,-3.92988 5.3986,-5.41775 3.21092,-1.42509 6.33233,-3.72848 10.41576,-4.00568 1.69917,-0.1939 3.88037,0.96905 4.48624,2.60266 0.41688,1.69326 -1.48726,2.37288 -2.34053,3.38856 -1.61586,2.06229 -3.67229,3.81858 -5.97753,5.27278 -2.43792,2.06065 -5.6957,3.1315 -8.41351,4.79401 -1.09916,0.61985 -2.35469,1.00119 -3.64202,1.1176 -1.60666,0.71768 -1.79044,2.70483 -2.36633,4.12814 -0.47807,1.48611 -1.00677,2.84736 -1.347,4.36892 0.50767,1.40267 2.57726,0.025 3.70441,-0.0902 1.53874,-0.25912 3.01104,-0.79202 4.47165,-1.41451 1.64916,-0.36143 -0.4844,0.64023 -0.94274,0.84507 -2.04126,0.99991 -4.06644,2.04171 -6.19689,2.54284 -1.06105,-0.12222 -2.42191,-0.39702 -3.09192,-1.21948 -0.0675,-0.27142 -0.17244,-0.52238 -0.28898,-0.77212 z m 7.912,-9.81534 c 2.41351,-1.22261 4.7704,-2.56678 7.23713,-3.78779 1.33796,-0.89247 2.85707,-1.72543 3.92222,-2.88626 1.61884,-1.63485 3.14782,-3.26074 4.7102,-4.94002 0.74814,-0.4515 1.03244,-2.1556 -0.70382,-1.57272 -4.40013,1.08179 -7.76519,3.72444 -10.7204,6.32737 -1.84741,1.7358 -3.06962,3.92892 -4.79912,5.74311 -0.49145,0.40272 -1.95145,2.04783 -0.34269,1.48433 0.2403,-0.11014 0.46946,-0.2374 0.69648,-0.36802 z m -53.98581,-3.85728 c -0.01685,-0.0948 0.03244,-0.24393 0.111652,-0.33182 0.186865,-0.2073 0.212557,-0.0292 0.0478,0.27097 -0.107249,0.19534 -0.132504,0.2057 -0.159463,0.0608 z m 0.507796,-1.05029 c -0.0092,-0.0584 0.03634,-0.11478 0.101173,-0.1251 0.06476,-0.0103 0.09425,0.0341 0.06554,0.0985 -0.02872,0.0644 -0.07406,0.12069 -0.101089,0.12502 -0.02681,0.004 -0.05644,-0.04 -0.06563,-0.0984 z M 0.51922456,240.04398 c -0.06915,0.64231 -0.17185946,1.28914 0.0624046,1.88793 0.58639162,2.51573 1.61287082,4.7449 3.28825552,6.70936 1.9378183,-0.37268 4.3280063,-2.78379 4.6856211,-3.97764 0.02477,-1.67228 -0.4369004,-3.39554 -0.7866199,-5.09824 -0.6301286,-1.62732 -2.4226868,-2.51454 -4.1548973,-2.55547 -1.885862,-0.12312 -2.89321541,1.74866 -3.09476404,3.03406 z m 3.34031464,-3.61774 c 1.3959076,-0.31311 4.3563581,2.10273 3.5916116,-0.65909 -0.640892,-1.49381 -0.063006,-3.96721 -1.9621844,-4.58654 -1.7440532,-0.71826 -3.6388061,-1.02272 -5.45061793,-1.57396 -2.67241327,-0.72694 -5.58545847,-2.07564 -6.81648517,-4.60892 -0.9512076,-1.95745 -1.2661502,-4.95756 0.935904,-6.83642 1.644724,-1.40332 4.0552756,-2.3171 5.99945801,-1.87179 2.15936619,0.4946 3.48161879,2.29098 4.36432269,4.16886 0.4039884,1.42661 1.3061931,2.6666 1.5020261,4.09314 0.2864165,1.06379 0.6246025,2.26468 1.1293548,3.37531 1.5235444,1.00228 3.5032361,1.26531 4.9698011,2.42791 2.26681,1.56972 4.287278,3.53692 5.913757,5.74413 0.833783,1.13148 1.360126,2.53745 1.882152,3.81661 0.295438,0.72393 0.575865,1.60184 0.654935,2.45307 0.122407,1.31783 -0.01207,2.60735 -0.217342,3.89977 -0.26505,1.66874 -1.311774,2.96476 -2.292901,4.18022 -0.825695,1.02296 -1.720391,1.79911 -2.946273,2.39672 -1.373495,0.66956 -2.983474,0.46172 -4.694539,0.3713 0.136487,1.0826 0.298306,2.06193 0.287061,3.07818 -0.01792,1.61924 0.550896,6.01603 -1.7047758,7.50128 0.1091869,-2.08337 0.6429466,-4.78534 0.5116625,-6.72197 -0.096241,-1.41956 -0.090966,-2.46663 -0.4146136,-4.08339 -1.7030201,-1.03058 -3.6741318,-2.06862 -4.9802094,-3.12552 -1.8805934,0.15512 -3.77872879,0.48536 -5.7100527,-0.26952 -1.8132555,-0.55478 -3.6450336,-1.68011 -4.7117046,-3.27482 -2.3539268,-3.48946 -1.9563187,-5.77368 -1.8561505,-9.3869 1.3297032,2.51597 0.8959591,5.24948 2.3508058,7.55751 1.0103654,2.20033 3.4108257,3.80198 5.74192021,4.47732 0.78869703,0.20161 2.55327729,0.24053 3.02241789,0.006 -0.8698339,-1.27637 -2.45370132,-3.41094 -2.81237524,-5.1954 -0.42891929,-1.68587 -0.77986935,-3.69517 0.30153058,-5.16064 1.03242876,-1.68776 2.12202716,-1.90316 3.41150406,-2.1924 z M 18.227139,248.4158 c 0.710546,-1.55994 0.467696,-3.31781 0.147999,-5.1091 -0.29686,-1.66327 -1.170248,-3.17358 -2.067955,-4.59684 -1.257368,-1.99348 -3.186458,-3.3927 -5.011677,-4.87291 -0.569396,-0.46182 -1.7335666,-1.31917 -2.9588488,-1.79011 -0.2747781,1.76269 0.1956061,4.15973 0.319129,5.82852 0.1387327,1.21985 0.3828637,2.47462 0.6129219,3.69644 0.1391279,1.34648 0.556128,2.67665 0.591588,3.94482 0.04252,1.27152 0.1744989,2.48251 0.2215999,3.71904 0.08481,0.92388 0.05066,1.94965 0.433992,3.09316 1.633299,0.0337 4.067923,0.15682 6.746375,-2.46895 0.413533,-0.40539 0.656876,-0.95143 0.964867,-1.44407 z m -9.5013219,-1.50523 c -0.6623934,1.10221 -2.9993487,2.35031 -3.7844442,2.61539 0.5954686,0.65436 1.7183,1.49616 2.4215018,1.97899 0.3378891,0.20141 0.951813,0.52462 1.5389164,0.62307 0.2230126,-1.47811 -0.033818,-3.69917 -0.175974,-5.21745 z M 5.3991358,226.73903 c -0.5534211,-2.86532 -1.639912,-5.81942 -3.5703165,-7.9741 -1.34141462,-1.1525 -3.1131533,-1.84673 -5.1857781,-1.10915 -1.5078109,0.53657 -2.916386,1.71936 -2.4082337,3.24221 0.5267335,1.57853 1.6341971,3.02258 2.9249801,3.95422 2.3806717,1.34569 5.1998099,1.8622 7.8772683,2.42255 0.2424809,-0.01 0.478973,-0.30855 0.3621147,-0.5357 -1.16e-5,-1e-5 -2.32e-5,-2e-5 -3.48e-5,-3e-5 z m -12.244054,15.78896 c -0.4344527,-0.0484 0.2207479,0.31528 0,0 z"
       inkscape:path-effect="#path-effect1169"
       inkscape:original-d="m 89.53739,247.71273 c 3.063363,-4.27737 7.208673,-7.93374 8.979297,-13.06098 2.408853,-6.42717 3.625483,-13.41161 2.827693,-20.25539 -0.0459,-1.87069 -1.34886,-3.62036 -2.15244,-0.98096 -3.436272,5.07169 -8.901021,9.54338 -15.350479,9.25081 -5.102628,0.0408 -9.601615,-3.44586 -12.150669,-7.64422 -2.388758,-3.55833 -0.254296,-7.83007 2.757531,-10.19992 2.807034,-2.02353 5.494309,-4.46384 9.204827,-4.49728 3.876407,-0.48474 7.94807,-0.009 11.21833,2.26422 2.206265,0.45855 4.80861,5.88251 5.43965,1.47803 0.42264,-2.57534 2.54512,-5.93174 1.56299,-7.4077 -0.69613,0.54747 -1.60031,0.77121 -2.485991,0.72517 -1.788197,-0.093 -4.254909,-0.80913 -4.027732,-2.65729 -0.454441,1.14733 -1.569265,2.63814 -2.591063,2.65729 -1.009256,0.0189 -1.927756,-1.41769 -2.029497,-2.87998 -1.879408,2.04375 -6.000751,4.81937 -7.776613,1.10647 -2.43808,2.68041 -6.86289,2.59865 -7.12171,-2.97894 -1.256932,2.15954 -3.556071,4.75826 -5.47089,4.75245 -1.681005,-0.005 -2.310436,-2.64743 -2.674894,-4.85819 -1.452325,1.76778 -3.500182,4.71189 -5.864351,4.85819 -1.286324,0.0209 -2.071879,-0.77143 -3.153221,-1.64435 -1.375073,3.03959 -1.853636,4.04567 -2.795638,6.0528 -1.796289,4.16254 -3.531165,8.37213 -4.69989,12.76671 -1.573664,2.20483 -0.889116,8.59322 -4.69324,7.04568 0.473715,-3.34887 2.878248,-6.13911 3.572646,-9.47763 1.534352,-4.55185 3.145173,-9.08865 5.029458,-13.5315 1.060519,-3.57734 2.446162,-7.06615 3.298036,-10.70051 0.331729,-1.3109 1.134526,-3.22971 0.886353,-3.31711 -0.500579,-0.17628 -2.69349,2.77641 -3.566395,2.94072 0.588403,-1.84209 3.51087,-4.96028 4.568313,-4.66625 1.010798,0.28106 -0.240605,3.71695 -0.934901,6.29137 -1.085068,4.02338 2.442131,-2.04937 3.288889,-3.20043 1.873882,-2.5473 5.820639,-3.21678 5.33664,0.66812 0.05479,1.54713 -1.305778,7.42215 0.275511,2.929 1.042893,-2.94278 2.879274,-5.93928 6.175007,-6.62443 4.617362,-0.84391 1.152243,5.72086 -1.738474,5.7812 -2.318972,0.45243 -3.778413,8.07695 -1.3403,7.76403 2.124493,-0.27266 3.15142,-3.85677 4.308685,-5.49643 0.333231,-1.08039 2.73996,-7.85016 6.517218,-8.11243 1.620598,-0.0653 2.987248,0.57212 2.862611,2.23349 -0.209265,2.33541 -4.608847,4.35637 -5.80498,4.3987 -0.777635,0.9361 -1.066568,8.45527 1.98797,5.88592 2.505299,-2.10735 3.235882,-7.43902 5.433814,-9.76192 1.683837,-2.27352 4.592137,-3.92925 7.083039,-2.16703 0.806635,-2.74594 1.598828,-5.46611 2.79198,-8.05613 1.156642,-2.51077 2.01044,-7.23157 4.62104,-8.09313 2.23139,2.2396 0.22716,6.64963 -0.17307,9.3843 -1.13841,4.31579 -3.590871,8.08451 -6.097677,11.71148 -0.440016,1.05074 -2.024448,6.6631 -1.226878,7.02215 0.206972,0.0932 0.574353,-0.92237 1.163768,-1.57094 1.565345,-1.72245 3.279972,-11.30874 5.628547,-10.98689 1.11619,0.27749 1.41028,3.62182 0.40402,4.91556 -0.20316,1.94731 -3.108253,9.56622 0.69314,7.98668 2.58171,-2.51772 2.097,-8.03872 4.24187,-10.94251 0.31129,-1.82557 3.79797,-2.96884 2.31044,-0.28247 -2.3861,5.63415 -2.56001,11.87103 -4.44021,17.6579 -0.1241,2.98498 -3.06421,5.87322 -2.00216,8.67914 2.1677,4.15218 1.16827,8.99594 0.77622,13.45496 -1.04052,8.06954 -5.054181,15.58004 -10.644108,21.33682 -0.69293,0.51057 -1.455202,1.99974 -2.238056,2.05358 z m -3.59833,-26.28798 c 5.780802,-1.15207 10.034976,-6.19662 12.12555,-11.47335 1.71552,-3.43027 -2.894199,-6.7854 -5.84069,-7.874 -3.623805,-1.83729 -8.172981,-1.1633 -11.734501,0.52143 -3.166286,2.10398 -6.223786,5.0217 -7.337732,8.74248 -0.691484,3.90376 2.640064,6.96614 5.607723,8.85251 2.140539,1.27042 4.71381,1.80149 7.17965,1.23093 z M 62.07159,195.64583 c 3.190598,-1.45076 3.812532,-5.21987 4.23137,-9.50461 0.378912,-3.8763 -5.491126,4.73164 -6.559849,6.41599 0.06604,2.55598 0.801142,3.78309 2.328479,3.08862 z m 24.600727,0.77655 c 3.106368,-1.58494 5.965376,-6.2874 5.980063,-9.80666 -0.5054,-4.58514 -4.400102,1.41564 -4.85066,3.32216 -0.283245,1.00643 -2.815951,6.31649 -1.129403,6.4845 z M 72.47105,187.98484 c 2.14658,-0.66247 4.476293,-6.04706 1.073985,-2.42745 -0.128552,0.057 -2.974947,3.01411 -1.073985,2.42745 z m 9.634062,-1.62591 c 1.307227,-1.54375 1.269616,-2.68788 -0.502917,-1.38995 -0.603572,0.44197 -2.401389,2.50588 -2.350295,3.27871 0.65001,-0.0952 1.211919,0.0495 2.853212,-1.88876 z m 14.123928,-1.68982 c 2.972112,-4.26362 4.51275,-10.14717 4.85143,-15.29904 -1.48188,1.532 -2.062842,6.23777 -2.99807,8.70477 -0.535697,1.97841 -1.798695,5.2491 -1.85336,6.59427 z m 34.37022,30.96413 c -2.05306,-0.22797 -3.16836,-2.2404 -2.89797,-4.17678 -0.0121,-3.91947 1.53787,-7.6054 1.98366,-11.4675 0.87084,-3.89518 1.94563,-7.74585 3.22022,-11.52067 0.66319,-3.07476 1.53684,-6.12032 3.09578,-8.88897 1.02437,-0.827 1.04422,-4.91796 -0.41263,-2.45047 -2.05442,2.26097 -3.22717,5.15925 -5.05792,7.57372 -1.42052,1.3436 -4.73635,0.41614 -3.15895,-1.8495 0.64987,-2.12787 1.64214,-4.16649 1.93453,-6.40479 0.24864,-2.01866 1.82557,-3.48751 2.23434,-5.44639 -1.4864,-0.50258 -2.32168,2.89958 -3.24471,4.08345 -1.13669,1.75022 -2.61924,3.30366 -3.5956,5.18837 -1.29266,2.26488 -2.7456,4.45642 -3.69452,6.8908 -1.37965,1.62088 -2.73999,8.3179 -4.08685,9.88737 -0.3121,0.2891 -0.92496,0.39387 -1.48014,0.33263 -0.85062,-0.0938 -1.56586,-0.57736 -0.85662,-1.38467 0.68939,-2.02283 2.117,-8.57338 2.75474,-10.60847 0.69141,-2.71787 0.98029,-5.52431 1.89573,-8.1835 0.68141,-2.81532 1.53207,-5.58089 2.17481,-8.40497 0.33798,-1.65551 2.2119,-3.82154 1.29898,-5.25267 -2.10264,0.6393 -3.50944,2.31928 -4.7773,4.01221 -1.19678,0.87297 -1.92967,3.63662 -3.18838,3.46791 -0.25885,-1.88659 1.94776,-3.29399 2.75956,-4.91079 1.16747,-1.70967 2.71506,-3.07154 4.4443,-4.17136 1.77971,-0.57823 4.42085,0.69573 4.33028,2.75289 0.0407,2.17362 -0.93752,4.17676 -1.28215,6.2962 -0.63204,2.35984 -1.66758,4.61144 -2.12197,7.01389 -0.51952,1.31031 -1.57176,3.38584 -1.03717,4.49106 1.35957,-1.47277 1.61796,-3.59231 2.94841,-5.11049 1.06279,-1.72035 2.42118,-3.18978 3.37109,-4.98433 1.2899,-1.1901 2.10688,-4.16586 4.24439,-3.50912 1.63081,1.10524 1.44429,3.41353 0.9759,5.07223 -0.33232,1.84168 -0.84848,3.63674 -1.05122,5.49474 1.33042,-1.15557 2.1904,-2.98582 3.7648,-3.92857 2.43664,-1.23864 3.12893,2.53807 2.55367,4.21978 -0.29481,3.65799 -1.78939,7.05519 -2.57985,10.61335 -1.04447,3.19225 -1.7176,6.49145 -2.59865,9.72907 -1.08655,4.19569 -2.67836,8.45997 -2.28426,12.87518 0.47181,3.19358 2.91058,0.18638 3.80091,-1.09159 0.4597,-0.62398 2.43041,-3.62057 1.59841,-1.28282 -0.80999,1.9794 -1.92929,4.46067 -4.17285,5.03884 -0.59683,0.10598 -1.21464,0.18942 -1.8048,-0.005 z m 54.32673,-18.24873 c -2.16742,0.0528 -3.88253,-1.16038 -3.02391,-3.20296 0.24074,-0.55828 0.67043,-1.02328 1.24261,-1.77958 -1.98208,1.08276 -2.88171,3.4248 -4.8844,4.49946 -0.87776,0.65903 -2.43775,0.18616 -2.85384,-0.95588 -0.14965,-0.89537 -0.39966,-2.1683 -1.10179,-0.69265 -0.97485,1.87729 -2.3468,2.13161 -4.23019,2.13161 -1.65372,0 -2.80033,-3.48741 -2.38632,-5.12485 0.43607,-1.72468 2.94278,-9.47542 4.45817,-9.40659 2.0396,0.0926 -0.57155,7.16024 -0.88147,8.82128 -0.0462,1.69105 -1.157,3.69293 -0.14324,5.20935 1.90159,-0.10663 2.83739,-2.3965 4.01919,-3.68347 1.04828,-1.5618 1.12032,-3.57522 2.11448,-5.20459 0.6959,-1.51739 0.69008,-3.29552 1.46198,-4.75216 2.13331,-1.52516 1.41397,2.34613 1.22543,3.50445 -0.6614,2.51273 -0.91459,5.10781 -1.60016,7.61513 -0.48054,2.61588 2.12809,0.17004 2.69528,-0.8 1.3308,-1.50718 3.01706,-2.63572 4.25689,-4.24208 1.05064,-1.27155 3.50958,-3.78936 3.74788,-5.48276 0.0824,-1.58073 0.92099,-5.29932 2.92155,-4.51577 0.4573,1.84723 -1.52285,3.53062 -1.35582,4.91121 0.25768,1.53006 0.0298,4.6325 0.0334,6.19913 2.1368,1.0088 4.11047,-4.25977 5.3831,-5.84581 0.85468,-1.45071 3.08352,-2.78665 4.5029,-1.32634 0.75765,0.64376 0.39467,1.65246 0.41733,2.50761 -7.5e-4,0.75548 -0.86542,3.02998 -0.77561,0.98856 0.28269,-1.21009 -0.0361,-4.17915 -1.61551,-2.29816 -1.19341,1.3754 -1.62439,3.20589 -2.34391,4.8372 -0.6913,2.15362 -1.84121,3.526 -1.19304,5.81911 0.43701,2.19456 2.99473,0.48522 4.0086,-0.30319 1.36585,-1.28176 2.34751,-2.15834 3.48617,-3.51827 -0.37777,1.28873 -0.91452,2.20752 -1.61622,3.20938 -1.18891,1.56303 -2.88716,3.21245 -5.02786,2.88163 -1.71829,0.0937 -3.10831,-1.1864 -3.80794,-2.63822 -0.57422,-1.33833 -0.13582,-2.28204 0.0928,-3.13643 -0.27698,-0.24522 -1.09733,-0.18459 -1.35334,-0.0386 -0.18081,0.10307 -0.11479,0.42387 0.0319,0.71189 0.0182,2.45839 -0.19503,2.70161 -2.4852,4.08273 -1.15998,0.69954 -2.40871,0.99402 -3.41992,1.01867 z m 3.03675,-4.61265 c 0.1959,-0.67297 -0.13233,-1.26818 -0.13233,-1.26818 -1.54862,0.0345 -2.48526,0.25754 -3.63103,0.77225 -0.54369,1.69082 -1.54264,3.08251 0.96686,3.35852 2.00088,0.22007 2.65451,-2.37483 2.7965,-2.86259 z m -0.26079,-2.45111 c 0.60886,-0.94208 1.27491,-4.18326 -0.19957,-2.64703 -0.89646,1.16456 -2.63728,2.44907 -3.09213,3.59483 0.91351,0.0462 2.42568,-0.69016 3.2917,-0.9478 z m -25.7652,7.06376 c -1.70336,0 -4.03986,-1.11532 -3.6448,-3.49323 0.22395,-2.4765 0.39067,-4.56884 1.14449,-6.94555 0.55249,-2.28872 1.66018,-4.48078 2.37937,-6.76252 1.50953,-3.7362 2.64439,-7.81419 5.51166,-10.80004 0.9825,-1.70965 3.04789,-2.8607 4.7678,-1.40927 2.08792,0.6802 1.50007,3.04658 1.18929,4.69619 -0.51893,3.38825 -2.48282,6.30487 -4.38314,9.06947 -2.01609,2.81537 -4.06346,5.62249 -6.54418,8.0597 -0.81658,1.59389 -0.6245,3.12904 -0.79227,4.89337 -0.007,3.58893 4.857,-1.60951 5.47172,-2.28225 -0.0808,1.543 -0.95959,2.61309 -1.98302,3.77602 -0.75456,0.94895 -2.37554,1.19811 -3.11692,1.19811 z m 2.77363,-13.20625 c 1.7798,-1.95518 3.38221,-4.08726 4.81876,-6.30755 1.0377,-2.16492 2.36757,-4.32381 2.42457,-6.79576 0.49995,-1.13379 0.0619,-3.1008 -1.29223,-1.478 -2.6963,2.87145 -3.61266,6.84181 -5.15739,10.36068 -0.44759,1.72582 -1.43767,3.47684 -1.81188,5.09215 0.41107,-0.18824 0.69827,-0.56681 1.01817,-0.87152 z m -25.05386,12.93115 c -0.3079,-0.27098 -0.49011,-0.53006 -1.23418,-1.75496 -0.61566,-1.0135 -0.78401,-2.554 -0.41218,-3.7715 0.058,-0.18968 0.39763,-1.30401 0.75489,-2.47629 0.35725,-1.17228 0.80073,-2.41565 0.98552,-2.76304 0.18477,-0.3474 0.40092,-0.75971 0.48032,-0.91626 0.33937,-0.66921 0.851,-1.11627 1.60401,-1.40162 0.41264,-0.15636 1.04341,-0.47364 1.4017,-0.70506 0.53326,-0.34442 0.77729,-0.42915 1.34519,-0.46708 0.8454,-0.0565 1.29342,0.15543 1.55868,0.73723 l 0.18182,0.3988 0.79156,-0.0775 c 0.7818,-0.0766 0.79413,-0.0737 1.00447,0.24091 0.11716,0.17516 0.24189,0.44536 0.27727,0.60042 0.13812,0.60563 0.1844,1.99869 0.0824,2.4811 -0.059,0.27913 -0.19937,0.93014 -0.31192,1.44669 l -0.2046,0.93918 0.25453,0.10123 c 0.4221,0.16785 0.25866,0.56024 -0.29375,0.70525 -0.22893,0.0601 -0.37272,0.29683 -0.83456,1.37402 -0.3069,0.71576 -0.55798,1.35665 -0.55798,1.42421 0,0.27408 -0.82932,1.77075 -1.26985,2.29168 -1.17394,1.38828 -2.23268,1.86771 -4.12443,1.86771 -1.07907,0 -1.18984,-0.0207 -1.47893,-0.27502 z m 3.49124,-1.21478 c 1.06446,-1.09356 1.25606,-1.30826 1.51234,-1.69458 0.15374,-0.23173 0.43131,-0.81535 0.61685,-1.29694 0.18554,-0.48157 0.55024,-1.246 0.81045,-1.69872 0.43031,-0.74864 0.46044,-0.84794 0.33287,-1.09724 -0.0771,-0.15077 -0.29125,-0.38233 -0.47579,-0.5146 -1.01362,-0.72645 -1.36069,-2.19588 -0.83083,-3.51757 0.16043,-0.40016 0.17091,-0.54746 0.0659,-0.92688 -0.2323,-0.83968 -0.38789,-0.69153 -1.36226,1.29694 -0.16718,0.34116 -0.30456,0.68371 -0.30531,0.76125 -0.001,0.0775 -0.038,0.14097 -0.083,0.14097 -0.0447,0 -0.13885,0.13956 -0.20896,0.31014 -0.21371,0.52002 -1.0149,2.99146 -1.10593,3.41151 -0.047,0.2171 -0.14632,0.54698 -0.22057,0.73306 -0.39747,0.99579 -0.38161,4.19268 0.0222,4.47751 0.26008,0.18346 0.86161,-0.004 1.23188,-0.38485 z m 3.97006,-7.33501 c 0.38898,-0.97769 0.45228,-2.97361 0.0981,-3.09703 -0.21258,-0.0741 -0.79415,1.66953 -0.79415,2.38099 0,1.05286 0.39872,1.46311 0.69593,0.71604 z m 3.90819,8.01423 c -1.19425,-0.87484 -1.09813,-2.49602 -1.60671,-3.74786 -0.42888,-1.52055 -0.61002,-3.11303 -0.29953,-4.67495 0.31398,-2.29837 1.29846,-4.43344 1.62441,-6.73018 0.40505,-2.14752 1.0723,-4.25463 2.00958,-6.22411 1.64223,-2.37119 2.66944,-5.21199 4.82587,-7.1974 0.84172,-0.85589 2.31105,-0.92626 3.12564,0.008 0.75908,1.09505 -0.009,2.43744 -0.13472,3.61037 -0.18834,2.28659 -0.72961,4.54016 -1.60765,6.65849 -0.74793,2.63493 -2.44913,4.82796 -3.76077,7.19114 -0.54939,0.91626 -1.3088,1.69068 -2.21179,2.2461 -0.95625,1.17238 -0.44877,2.7789 -0.41255,4.15456 0.13004,1.3302 0.19325,2.67758 0.46815,3.98621 0.96203,0.96084 2.14908,-0.94803 2.97174,-1.4732 1.11116,-0.81514 2.01159,-1.84963 2.81603,-2.95881 1.05194,-0.99389 -0.0858,0.69963 -0.3413,1.05393 -1.09695,1.63876 -2.27147,3.29279 -3.85306,4.49627 -0.94159,0.30713 -2.21075,0.57708 -3.09249,0.13184 -0.15537,-0.19715 -0.3342,-0.36575 -0.52085,-0.53033 z m 2.82823,-10.67468 c 1.29956,-1.86533 2.41048,-3.85078 3.53772,-5.82239 0.54265,-1.2672 1.15903,-2.5161 1.39694,-3.88689 0.39472,-1.9317 0.72143,-3.88068 1.01851,-5.82901 0.28259,-0.74838 -0.16042,-2.01522 -0.86377,-0.88176 -2.03396,2.77631 -3.18947,6.07527 -4.28172,9.30739 -0.63983,2.07642 -0.77474,4.27429 -1.41296,6.3507 -0.2053,0.47314 -0.74909,2.36754 0.23203,1.31103 0.13524,-0.17542 0.25617,-0.36129 0.37325,-0.54907 z m -46.20473,2.30652 c -0.001,-0.0845 0.0607,-0.20645 0.13856,-0.27108 0.18143,-0.15057 0.18334,0.003 0.003,0.2415 -0.11639,0.15388 -0.13903,0.15862 -0.14156,0.0295 z m 0.56323,-0.83731 c 0,-0.0519 0.045,-0.0944 0.1,-0.0944 0.0549,0 0.0737,0.0425 0.0416,0.0944 -0.0321,0.0519 -0.077,0.0944 -0.1,0.0944 -0.0228,0 -0.0416,-0.0425 -0.0416,-0.0944 z m -64.400209,-8.16522 c -0.531524,0.2806 -1.094569,0.53875 -1.435673,1.00922 -1.657994,1.69863 -2.912856,3.53794 -3.596176,5.72257 1.420868,1.21354 4.762181,1.70404 5.914972,1.34137 1.340441,-0.8436 2.41578,-2.07616 3.495772,-3.22373 0.865588,-1.30145 0.508006,-3.03456 -0.403016,-4.25762 -0.932725,-1.37048 -2.86757,-1.11337 -3.975879,-0.59181 z m 4.537115,0.45201 c 0.990153,0.80446 0.897159,4.1638 2.450422,2.13108 0.714197,-1.25593 2.723967,-2.23446 2.117294,-3.87131 -0.456126,-1.58645 -1.256511,-3.04834 -1.832578,-4.59356 -0.916428,-2.2536 -1.472557,-4.95386 -0.442898,-7.20477 0.791297,-1.72984 2.516263,-3.59197 4.647712,-3.1981 1.602432,0.29612 3.266135,1.34966 3.973713,2.87722 0.7894,1.70421 0.477348,3.62564 -0.152345,5.31619 -0.613989,1.10651 -0.877913,2.42762 -1.64573,3.38667 -0.492653,0.79856 -1.07432,1.73572 -1.509574,2.69959 0.178355,1.59251 1.098314,3.06233 1.161404,4.70874 0.246028,2.40966 0.11108,4.89734 -0.46829,7.24812 -0.300144,1.21782 -0.983779,2.35209 -1.618785,3.43713 -0.356559,0.60926 -0.8419,1.29036 -1.446365,1.81869 -0.934604,0.81688 -2.029006,1.43075 -3.19238,1.98501 -1.503518,0.71631 -3.214618,0.66376 -4.819157,0.59767 -1.350459,-0.0556 -2.546554,-0.29953 -3.781301,-0.87591 -1.385691,-0.64684 -2.159337,-1.91155 -3.083303,-3.18994 -0.843146,0.63202 -1.601151,1.23445 -2.491029,1.72154 -1.419426,0.77695 -4.970544,3.33198 -7.694367,2.39287 1.950985,-0.92752 4.684488,-1.84176 6.307723,-2.87967 1.174445,-0.75096 2.116266,-1.27933 3.298474,-2.30015 -0.113418,-1.74719 -0.372439,-3.66787 -0.231121,-5.14109 -1.209713,-1.27961 -2.594893,-2.5068 -3.063144,-4.27794 -0.574638,-1.59596 -0.660695,-3.46783 0.08854,-5.02156 1.633076,-3.42499 3.727718,-4.20634 6.580695,-5.9787 -1.218751,2.2227 -3.657157,3.26514 -4.757849,5.44926 -1.267245,1.81648 -1.265712,4.3226 -0.495545,6.35602 0.282613,0.6726 1.263104,1.96967 1.729489,2.19339 0.573737,-1.25694 1.450534,-3.45701 2.684907,-4.60777 1.118026,-1.15382 2.503541,-2.42059 4.197682,-2.41706 1.836267,-0.14602 2.566459,0.48987 3.487706,1.23834 z m -0.999183,16.39554 c 1.708356,-0.31925 2.970273,-1.43334 4.16401,-2.62949 1.106782,-1.10903 1.716865,-2.55126 2.225751,-3.95202 0.705826,-1.94286 0.574486,-4.08814 0.566802,-6.129 -0.0024,-0.64703 -0.0683,-1.91236 -0.423962,-3.00823 -1.304145,0.77806 -2.816366,2.47053 -3.939245,3.43039 -0.814322,0.75265 -1.624279,1.59818 -2.427694,2.40208 -0.9534,0.80882 -1.758761,1.79654 -2.752792,2.47579 -0.992655,0.68598 -1.903999,1.39702 -2.90129,2.05456 -0.714048,0.52509 -1.597865,1.01781 -2.343236,1.86005 0.926354,1.19313 2.272082,3.03038 6.059739,3.56756 0.585207,0.083 1.182245,-0.0297 1.771917,-0.0717 z m -4.363153,-7.50218 c -1.282108,0.0894 -3.648686,-0.96044 -4.332967,-1.40255 -0.207226,0.75376 -0.270412,1.97988 -0.27222,2.72657 0.0251,0.34354 0.107015,0.94661 0.365367,1.41906 1.412723,-0.58115 3.070226,-1.8559 4.23982,-2.74308 z m 12.787483,-13.20308 c 1.531939,-2.02625 2.682429,-4.445 2.93722,-6.99518 -0.01949,-1.55782 -0.5016,-3.12045 -1.928895,-4.06761 -1.038339,-0.68905 -2.405288,-0.95949 -3.077695,0.2424 -0.696996,1.24584 -1.055914,2.80253 -0.99479,4.19933 0.35084,2.38078 1.464036,4.55815 2.5315,6.6845 0.135299,0.15742 0.450915,0.14466 0.53266,-0.0634 z m -17.99166,-0.16933 c -0.202784,-0.33843 -0.134987,0.31503 0,0 z" />
    <path
       style="fill:none;stroke:#000000;stroke-width:0.264583px;stroke-linecap:butt;stroke-linejoin:miter;stroke-opacity:1"
       d="m -12.384221,229.50053 c 0,0 45.522467,-49.78301 101.110439,-50.31044 55.587972,-0.52743 88.441992,50.31044 88.441992,50.31044"
       id="path1744"
       sodipodi:nodetypes="czc" />
  </g>
</svg>
