<?xml version="1.0" encoding="UTF-8" standalone="no"?>
<svg
   xmlns:dc="http://purl.org/dc/elements/1.1/"
   xmlns:cc="http://creativecommons.org/ns#"
   xmlns:rdf="http://www.w3.org/1999/02/22-rdf-syntax-ns#"
   xmlns:svg="http://www.w3.org/2000/svg"
   xmlns="http://www.w3.org/2000/svg"
   xmlns:sodipodi="http://sodipodi.sourceforge.net/DTD/sodipodi-0.dtd"
   xmlns:inkscape="http://www.inkscape.org/namespaces/inkscape"
   width="210mm"
   height="297mm"
   viewBox="0 0 210 297"
   version="1.1"
   id="svg1788"
   inkscape:version="1.0.2 (e86c870879, 2021-01-15)"
   sodipodi:docname="speedymollusc-decal.svg">
  <defs
     id="defs1782">
    <inkscape:path-effect
       effect="bend_path"
       id="path-effect1767"
       is_visible="true"
       lpeversion="1"
       bendpath="m 33.806302,112.07601 c 12.04122,-17.987208 28.18913,-45.561808 66.854988,-45.471108 32.47944,0.0762 45.15352,13.50221 62.25112,36.317128"
       prop_scale="1.1392253"
       scale_y_rel="false"
       vertical="false"
       hide_knot="false"
       bendpath-nodetypes="csc" />
  </defs>
  <sodipodi:namedview
     id="base"
     pagecolor="#ffffff"
     bordercolor="#666666"
     borderopacity="1.0"
     inkscape:pageopacity="0.0"
     inkscape:pageshadow="2"
     inkscape:zoom="0.49497475"
     inkscape:cx="400"
     inkscape:cy="560"
     inkscape:document-units="mm"
     inkscape:current-layer="layer1"
     inkscape:document-rotation="0"
     showgrid="false"
     inkscape:window-width="1920"
     inkscape:window-height="1016"
     inkscape:window-x="0"
     inkscape:window-y="0"
     inkscape:window-maximized="1" />
  <metadata
     id="metadata1785">
    <rdf:RDF>
      <cc:Work
         rdf:about="">
        <dc:format>image/svg+xml</dc:format>
        <dc:type
           rdf:resource="http://purl.org/dc/dcmitype/StillImage" />
        <dc:title></dc:title>
      </cc:Work>
    </rdf:RDF>
  </metadata>
  <g
     inkscape:label="Layer 1"
     inkscape:groupmode="layer"
     id="layer1">
    <path
       id="path1167-6"
       style="fill:#000000;fill-opacity:1;stroke:#000000;stroke-width:0.0846667;stroke-opacity:1"
       d="m 93.272244,116.7567 c -0.563316,-1.62195 -0.995177,-3.1841 -1.35941,-4.78989 -0.692784,-3.03636 -0.996048,-6.1952 -1.644677,-9.95819 -1.134386,-7.017758 -2.168578,-15.494691 -4.618258,-22.634785 -0.495846,-1.799062 -2.159194,-3.969844 -1.89343,-0.6385 -0.438376,2.929684 -1.068316,5.994818 -1.798526,8.323798 -0.835636,2.601674 -1.907457,4.553941 -3.811873,5.456492 -2.724052,1.633026 -7.3384,0.173498 -11.90255,-2.259988 -4.063008,-1.979751 -6.017439,-6.533394 -5.433474,-10.534746 0.643717,-3.373103 1.262335,-7.255658 4.490179,-9.165974 2.525099,-1.983042 5.69418,-3.210653 8.926088,-2.840741 0.714969,0.08349 1.426611,0.245014 2.127819,0.491278 1.116199,-0.122145 2.697975,1.099243 3.877992,1.77087 1.166456,0.66391 1.926274,0.761646 1.547558,-1.73631 -0.393917,-2.93073 0.785391,-7.172999 -0.62911,-8.549888 -0.562035,0.782247 -1.408408,1.271783 -2.313302,1.479154 -1.788861,0.409896 -4.584875,0.48581 -5.049976,-1.551385 -0.03022,1.278849 -0.494953,3.098906 -1.322434,3.689029 -0.07134,0.05146 -0.145739,0.0944 -0.223324,0.12779 -0.982606,0.422869 -2.526205,-0.68203 -3.302798,-2.159033 -0.999565,3.087893 -3.325741,7.561949 -6.969529,5.008372 -0.705415,3.962535 -4.376724,6.428976 -8.386395,1.487583 0.330837,2.788966 0.223849,6.664377 -1.221333,7.902552 -0.251346,0.215372 -0.542426,0.324549 -0.864647,0.35015 -1.357708,0.11542 -3.322386,-1.285881 -4.936866,-2.556737 0.199832,2.563166 0.987235,6.484097 -0.487646,8.283166 -0.874927,0.962441 -2.065083,0.937159 -3.540003,1.105572 1.255138,2.531826 2.662348,5.196508 3.40683,6.566438 2.535772,4.372628 5.295194,8.51563 8.660078,12.393933 1.170027,2.59653 7.33379,6.47259 4.085533,7.96892 -2.854726,-2.57374 -4.206505,-6.105 -6.860296,-8.89796 -3.284715,-4.182716 -6.480526,-8.59866 -9.165796,-13.204621 -2.465139,-3.392177 -4.53472,-7.058208 -7.008442,-10.486113 -0.874333,-1.256645 -1.886877,-3.387174 -2.151478,-3.241824 -0.533695,0.293175 0.372186,4.33998 -0.100974,5.185863 -1.189426,-1.83261 -1.655482,-6.668629 -0.568945,-7.359422 1.018862,-0.647769 2.918338,3.064802 4.580784,5.573959 1.325781,2.00102 1.294624,1.041237 0.965298,-0.488285 -0.339463,-1.576607 -0.976324,-3.887417 -1.108965,-4.693674 -0.587072,-3.568502 2.398868,-7.522521 4.966896,-3.870282 0.587045,0.594598 1.795663,2.478043 2.508845,3.465007 0.79622,1.10188 0.99176,1.191562 -0.02712,-1.225355 -0.444368,-1.060546 -0.812549,-2.20068 -1.012704,-3.376128 -0.408151,-2.449782 -0.06503,-5.06347 1.861491,-7.216426 2.066858,-2.210207 3.311144,-0.96624 3.687716,0.873982 0.384714,1.880008 -0.0059,4.544899 -1.271379,5.61227 -2.737797,3.230977 3.659109,8.681321 4.472129,7.78021 1.483241,-1.643934 -0.121257,-5.543682 -0.174515,-7.842029 -0.417382,-1.183201 -2.795533,-9.157804 1.40371,-12.064292 1.747572,-1.144274 3.657418,-1.354568 4.43378,0.377306 0.99955,2.328933 -2.420851,7.210059 -3.426175,7.93016 -0.08495,0.710509 1.017057,2.848167 2.288435,4.306076 1.28763,1.476547 2.628713,2.182095 3.236418,0.108155 1.016036,-3.467471 -1.252281,-9.160465 -0.02485,-12.778117 0.614749,-2.953298 2.873948,-6.036818 6.220308,-6.099424 0.344247,-0.0021 0.696388,0.02918 1.054765,0.09719 -0.136737,-3.256555 -0.178172,-6.605938 0.503851,-9.909454 0.660308,-3.198345 0.286813,-8.790818 3.987931,-10.794202 3.832178,1.523207 2.22005,7.364014 2.465539,10.394517 -0.270097,4.992357 -2.215361,10.321496 -3.620938,15.080464 -0.09528,1.340386 0.429548,7.900681 1.490245,7.976448 0.249814,0.01787 0.209297,-1.205558 0.575197,-2.124083 0.97176,-2.439394 -0.336692,-13.510695 2.68539,-13.95851 1.503476,-0.07765 2.732162,3.542269 1.940727,5.269609 0.166182,1.102485 -0.0016,3.970343 0.307134,6.190338 0.313764,2.256153 1.029503,3.754537 2.748173,2.4048 1.975542,-3.464078 0.09412,-9.475684 2.081524,-13.233698 -0.01249,-2.106495 4.118585,-4.197336 2.760332,-0.821047 -1.699523,6.081253 -0.746842,14.593717 -1.048537,20.673833 0.62228,3.342873 -1.086533,7.141655 0.544603,10.023551 2.70859,3.88577 3.312567,10.056778 4.213806,14.733948 1.42893,8.389454 1.762744,16.496435 3.227777,22.843325 0,0 0,0 0,0 0.115529,0.50357 0.233343,0.99497 0.353465,1.47573 0.107735,0.57859 0.681813,2.17317 0.59233,2.27927 -10e-7,0 -10e-7,0 -2e-6,0 z M 78.614498,90.635562 c 1.221514,-1.346673 1.941497,-3.431317 2.411633,-5.907873 0.515047,-2.770916 0.78535,-6.242675 0.724083,-9.504056 0.19474,-3.897058 -3.787677,-6.178356 -7.150111,-6.574214 -0.296013,-0.03434 -0.579919,-0.05292 -0.846577,-0.05682 -4.156906,-0.594708 -7.900878,2.308028 -9.749778,5.784954 -1.29202,3.741738 -1.459421,7.947775 0.494899,11.891597 2.237557,3.684114 6.694571,5.014272 9.363577,5.620354 2.00972,0.384284 3.681868,0.05134 4.752274,-1.253942 z M 44.807723,80.216771 c 1.074813,-3.533365 -1.332841,-7.044101 -4.364431,-10.936732 -1.350801,-1.734456 -1.637098,0.368894 -1.355331,3.161948 0.294102,2.915332 1.121915,5.994614 1.490526,7.183359 2.212063,1.90291 3.723596,2.253649 4.229236,0.591425 z M 65.897069,65.16134 c 1.978269,-2.931674 3.049002,-9.460003 1.611712,-13.044244 -1.275652,-2.296502 -2.461217,-1.374567 -3.174204,0.414635 -0.724085,1.817051 -0.905343,4.354068 -0.653234,5.474361 0.105471,0.58749 0.181178,2.563265 0.505541,4.28763 0.325268,1.729172 0.87358,3.195259 1.710185,2.867618 z m -18.620378,0.79924 c 0.730853,-1.071876 0.754888,-3.288816 0.50571,-4.478846 -0.223772,-1.068698 -0.85388,-1.545142 -1.226955,1.511157 -0.04156,0.07419 -0.217057,1.311546 -0.185326,2.277374 0.03222,0.980641 0.255016,1.645884 0.906571,0.690315 z m 8.415395,-8.199718 c 0.408383,-2.075779 -0.131155,-3.706729 -1.361235,-1.023281 -0.400442,0.873575 -0.966915,3.951646 -0.39742,4.68921 0.630492,-0.559458 1.175516,-0.701863 1.758655,-3.665929 z m 15.295516,-9.288193 c 2.005238,-5.745609 2.460881,-12.844744 1.475761,-18.613778 -1.745392,2.285712 -1.049659,7.651688 -1.454521,10.719998 -0.04373,2.539323 -0.498397,6.258254 -0.02124,7.89378 z m 37.640588,30.882494 c -1.59362,-0.403967 -2.3722,-2.73739 -2.00329,-4.92685 0.27196,-4.461278 1.96279,-8.556397 2.76572,-12.90689 1.22027,-4.34634 2.7627,-8.621283 4.71143,-12.707361 1.15386,-3.351693 2.64871,-6.72716 5.09628,-9.494928 1.60837,-0.799654 2.11324,-5.211196 -0.10304,-2.841219 -3.06007,2.124243 -4.88167,5.235493 -7.27008,7.768564 -1.67032,1.2676 -5.58443,0.147936 -3.52582,-2.395508 0.9035,-2.375143 2.27969,-4.600797 2.84923,-7.113579 0.49475,-2.267803 2.68888,-3.73881 3.46879,-5.898161 -1.96032,-0.799716 -3.37963,2.998878 -4.62538,4.248308 -1.61534,1.938072 -3.4248,3.507117 -4.6795,5.676396 -1.62952,2.567163 -3.25652,4.976351 -4.30811,7.793652 -0.0994,0.122974 -0.19852,0.271541 -0.29714,0.442323 0,0 0,0 0,0 -1.493706,2.380663 -2.730461,9.171732 -3.955872,10.896507 -0.307072,0.342246 -0.931503,0.492918 -1.505463,0.458694 -0.869751,-0.05183 -1.67433,-0.540578 -0.996132,-1.515256 0.55498,-2.353389 1.74721,-9.899274 2.419953,-12.24546 0.706846,-3.126395 0.970825,-6.337423 2.116538,-9.379315 0.573134,-2.200192 1.265306,-4.297507 1.963796,-6.468732 0.29126,-1.031599 0.58075,-2.073478 0.84702,-3.112957 0.43552,-1.88873 2.90694,-4.342059 1.73795,-5.983766 -0.96984,0.246432 -1.81494,0.651737 -2.56634,1.157118 -1.609917,0.898306 -2.879897,2.163406 -4.028993,3.449137 -1.694281,1.040555 -2.556237,4.236446 -4.339647,4.170481 -0.516273,-2.120001 2.539815,-3.915459 3.660742,-5.796134 1.24541,-1.523485 2.859353,-2.799654 4.712628,-3.840989 0.50657,-0.344831 1.03654,-0.66778 1.5875,-0.969637 2.36138,-0.663725 5.92846,0.917784 5.68704,3.283345 -0.0675,2.478695 -1.46444,4.701445 -1.9933,7.101143 -0.90424,2.660577 -2.23483,5.199738 -2.82333,7.931231 -0.64933,1.504659 -1.87128,3.827382 -1.2729,5.109227 1.55108,-1.673674 1.90543,-4.0858 3.56764,-5.761965 1.34854,-1.917462 3.12783,-3.500995 4.4923,-5.45466 1.75672,-1.23452 3.15867,-4.536675 6.02519,-3.436139 2.11932,1.530772 1.4858,4.121612 0.63614,5.903961 -0.72186,2.085678 -1.58368,3.908733 -2.08804,6.046603 1.8023,-1.112111 3.17894,-3.031917 5.43703,-3.750313 3.61799,-0.904685 3.55045,3.680307 2.50576,5.325409 -1.16857,4.013562 -3.66606,7.48739 -5.18249,11.345517 -1.68044,3.294266 -2.99476,7.137399 -4.27656,10.573849 -1.73384,4.806787 -3.50725,9.093511 -3.69165,14.345155 0.0241,3.5568 2.26888,0.546749 3.25597,-0.864323 0.41525,-0.565692 2.70208,-3.851045 1.53688,-1.242044 -1.03511,2.108381 -2.34589,4.7713 -4.13532,5.226254 -0.47869,0.06909 -0.96917,0.115738 -1.41316,-0.146381 z m 50.46601,5.249373 c -1.41954,-1.544513 -1.59566,-3.770292 0.71874,-4.687649 0.63318,-0.244766 1.32565,-0.275232 2.35788,-0.407327 -0.8163,-0.253047 -1.67557,-0.269917 -2.54339,-0.214981 -1.56285,0.09093 -3.13901,0.414637 -4.61368,0.02571 -1.15994,-0.115926 -1.90069,-1.605615 -1.30694,-2.841829 0.58373,-0.822237 1.42547,-2.093117 -0.28997,-1.365842 -2.22116,0.856069 -3.42485,0.130166 -4.9273,-1.134851 -1.31523,-1.107378 0.15613,-4.980695 1.67934,-6.153971 1.60438,-1.235785 9.61348,-6.094516 10.9739,-4.786626 0.91957,0.884031 -0.61482,2.26524 -2.51137,3.595027 -1.90246,1.333937 -4.17243,2.650292 -4.92587,3.249058 -1.35182,1.466814 -3.66898,2.300935 -4.0153,4.371851 1.56593,1.196746 4.03492,-0.04322 5.98614,-0.222593 2.0852,-0.512152 3.74057,-2.083439 5.82577,-2.595591 1.78037,-0.662573 3.22591,-2.085792 5.04584,-2.586751 2.98799,0.596051 -0.85179,3.04039 -1.93103,3.773409 -2.58968,1.421733 -4.91935,3.265514 -7.46872,4.742504 -2.43105,1.677043 1.32626,1.74691 2.58638,1.419622 0.15807,-0.01032 0.31582,-0.01741 0.47329,-0.02177 2.02447,-0.06718 4.00109,0.312486 6.07158,0.11233 1.7726,-0.113384 5.70997,-0.0023 7.32036,-1.010136 1.42902,-1.065769 5.31038,-3.087175 5.9512,-0.839281 -1.34065,1.691683 -4.14422,1.271875 -5.25628,2.397063 -1.16549,1.284667 -4.10355,3.362943 -5.46625,4.470925 0.45697,2.356336 6.35834,0.217774 8.59132,0.119323 1.84058,-0.33567 4.39417,0.514941 3.89329,2.615689 -0.14365,1.025582 -1.27713,1.440695 -2.03983,2.04233 -0.67688,0.508912 -3.26757,1.421381 -1.3483,0.08081 1.2559,-0.609055 3.7911,-2.899597 1.1379,-2.836794 -1.96079,0.01567 -3.87222,0.946364 -5.77775,1.523354 -2.37271,0.968058 -4.26661,1.033288 -5.95394,3.144181 -1.70796,1.862122 1.31414,2.61026 2.61472,2.835828 1.95628,0.152632 3.2977,0.297114 5.18727,0.228343 -1.38838,0.595291 -2.52726,0.817788 -3.83812,0.974624 -2.10042,0.173657 -4.55866,0.02938 -5.50663,-1.80888 -1.08722,-1.229899 -0.77227,-3.178343 0.0931,-4.744356 0.84502,-1.39634 1.93996,-1.724317 2.85019,-2.157399 0.0466,-0.389617 -0.51977,-0.983647 -0.81189,-1.07855 -0.20534,-0.06675 -0.44748,0.214772 -0.61066,0.534516 -2.17741,1.783026 -2.50388,1.769837 -5.15678,1.047039 -1.33809,-0.364575 -2.38623,-1.077132 -3.05831,-1.808354 0,0 5e-5,-7e-6 5e-5,-7e-6 z m 5.96016,-1.103134 c 0.71531,-0.340125 1.02268,-1.028495 1.02268,-1.028495 -1.03672,-1.176869 -1.87063,-1.749287 -3.08039,-2.244875 -1.83125,0.857788 -3.64334,1.148463 -2.24098,3.250457 1.10475,1.65592 3.77214,0.273277 4.29869,0.02291 z m 1.97184,-1.993377 c 1.19525,-0.206173 4.53428,-2.041138 2.17755,-2.094735 -1.61817,0.136586 -3.90958,-0.282893 -5.20115,0.222149 0.57317,0.734471 2.2387,1.387676 3.0236,1.872586 z M 141.60797,68.84702 c -1.48017,-0.955272 -3.10703,-3.364038 -1.40889,-5.486877 1.56206,-2.282528 2.98049,-4.371073 5.13182,-6.176614 2.03459,-1.99574 4.38575,-3.161805 6.77553,-4.880822 0.73168,-0.430056 1.47523,-0.878249 2.2069,-1.308305 3.39131,-2.010512 6.97828,-3.96293 11.54147,-3.957633 2.3871,-0.61524 5.73011,0.385365 6.52644,3.31019 1.7573,2.565579 -0.77994,4.016436 -2.33478,5.089551 -3.09673,2.328762 -7.36898,3.100448 -11.22657,3.971506 -3.92939,0.805456 -7.78399,1.76479 -11.68709,2.402007 -0.13258,0.02163 -0.26514,0.04299 -0.3977,0.06406 -1.78759,0.9403 -2.60886,2.622867 -3.81505,4.172028 -0.6517,1.017766 -0.43321,1.547595 0.20797,1.796068 1.37426,0.54022 5.73724,-0.230019 6.35155,-0.337778 -1.14118,1.327596 -2.67285,1.702058 -4.33505,2.121917 -0.97599,0.298561 -2.12826,-0.06339 -2.91073,-0.437208 0,0 0,0 0,0 -0.25055,-0.118244 -0.46544,-0.238592 -0.62582,-0.342095 z m 11.19279,-10.552628 c 3.17374,-0.451656 6.35128,-1.050856 9.46606,-1.757488 2.6211,-0.987099 5.71008,-1.6677 7.61136,-3.686411 1.29542,-0.462867 2.52647,-2.608978 -0.3035,-2.484065 -5.10233,-0.07147 -9.08739,2.730389 -13.09516,4.665731 -1.65725,1.217916 -3.8857,2.071732 -5.32914,3.306345 0.5586,0.129642 1.10975,-0.006 1.65038,-0.04411 z m -32.97395,1.41954 c -0.26921,-0.392015 -0.36017,-0.669128 -0.88884,-2.212963 -0.42833,-1.250808 -0.31434,-3.018026 0.34649,-4.302 0.14194,-0.275555 0.6695,-1.302751 1.37377,-2.606912 0.67309,-1.246439 1.4581,-2.493499 1.77231,-2.849982 0.30074,-0.341234 0.65879,-0.744816 0.79218,-0.898445 0.56941,-0.655861 1.30706,-1.01836 2.3127,-1.115696 0.53388,-0.05167 1.43903,-0.215891 1.93998,-0.353048 0.25552,-0.06995 0.46481,-0.11763 0.65521,-0.144583 0,0 0,0 0,0 0.38688,-0.04871 0.70733,-0.01656 1.19969,0.09377 1.10368,0.247264 1.60776,0.660688 1.74435,1.398159 0.0312,0.168501 0.0619,0.336986 0.0922,0.505453 0.33994,0.07682 0.67966,0.156006 1.01913,0.237564 1.00282,0.240865 1.02261,0.262509 1.16339,0.686769 0.0798,0.240193 0.13063,0.583313 0.11489,0.76606 -0.0614,0.712113 -0.5426,2.222844 -0.84878,2.698437 -0.32177,0.499907 -0.44576,0.689074 -0.91544,1.424266 -0.19723,0.308752 -0.39335,0.618046 -0.58837,0.927877 0.0845,0.07006 0.16874,0.140271 0.25279,0.210643 0.42227,0.353531 0.0738,0.701816 -0.59846,0.641998 -0.28114,-0.02501 -0.53867,0.170513 -1.43706,1.165884 -0.59697,0.661386 -1.09243,1.269678 -1.11594,1.342974 -0.0875,0.272834 -1.51997,1.658898 -2.13042,2.074311 -0.74402,0.50634 -1.3883,0.836126 -2.05036,1.007404 -0.83623,0.222847 -1.68156,0.182801 -2.76295,-0.0637 -1.10409,-0.25168 -1.20105,-0.282652 -1.44253,-0.634127 2e-5,-3.6e-5 3e-5,-7.2e-5 5e-5,-1.07e-4 z m 3.91989,-0.510873 c 0.28191,-0.182144 0.54015,-0.346558 0.73976,-0.47377 0.84431,-0.528721 1.03881,-0.658632 1.37779,-0.951394 0.23211,-0.200456 0.73136,-0.763385 1.08701,-1.221831 0.37102,-0.478242 1.00738,-1.163452 1.46734,-1.575766 0.74147,-0.664637 0.81484,-0.75124 0.7543,-1.072858 -0.0362,-0.192793 -0.20188,-0.520257 -0.37135,-0.731263 -0.92658,-1.1536 -0.9024,-2.881208 0.17226,-4.134472 0.32553,-0.379615 0.38808,-0.535197 0.38067,-0.988691 -0.0157,-0.970262 -0.27583,-0.937058 -2.08199,0.945872 -0.0789,0.08227 -0.1551,0.165248 -0.22533,0.244835 0,0 0,0 0,0 -0.20035,0.231303 -0.35045,0.432425 -0.36802,0.495602 -0.024,0.08499 -0.0865,0.143499 -0.13991,0.129774 -0.053,-0.01363 -0.20541,0.111444 -0.33747,0.278322 -0.48009,0.606719 -1.95864,2.903491 -2.22701,3.45081 -0.11056,0.225595 -0.31221,0.567543 -0.44303,0.752212 -0.7058,0.996101 -1.51142,4.549362 -1.17243,4.960473 0.21916,0.265796 0.89211,0.212437 1.38725,-0.107898 5e-5,1.4e-5 1.1e-4,2.8e-5 1.6e-4,4.3e-5 z m 6.77789,-6.710121 c 0.80412,-0.905698 1.62201,-3.029494 1.23047,-3.309379 -0.23331,-0.166806 -1.5509,1.49499 -1.79711,2.26729 -0.36822,1.155022 -0.0387,1.723746 0.5665,1.042042 5e-5,1.6e-5 1e-4,3.1e-5 1.4e-4,4.7e-5 z m 1.08756,10.126413 c -0.82189,-1.409588 -0.0716,-3.088943 -0.11977,-4.630275 0.14448,-1.786631 0.54691,-3.587409 1.52025,-5.117264 1.2717,-2.321619 3.3434,-4.130576 4.73028,-6.393253 1.42405,-2.06396 3.21163,-3.92988 5.3986,-5.417748 3.21092,-1.425094 6.33233,-3.728476 10.41576,-4.005684 1.69917,-0.1939 3.88036,0.969055 4.48624,2.602667 0.41688,1.693252 -1.48726,2.372879 -2.34053,3.38856 -1.61586,2.062282 -3.67229,3.818574 -5.97754,5.272772 -2.43791,2.060657 -5.69569,3.131502 -8.4135,4.794018 -1.09916,0.61985 -2.35469,1.001185 -3.64202,1.117601 -1.60666,0.717672 -1.79045,2.704824 -2.36633,4.12814 -0.47807,1.486109 -1.00678,2.847358 -1.347,4.368914 0.50767,1.40267 2.57726,0.02499 3.70441,-0.09018 1.53874,-0.259112 3.01104,-0.792015 4.47165,-1.414505 1.64916,-0.361435 -0.4844,0.640225 -0.94274,0.845072 -2.04126,0.999909 -4.06645,2.041708 -6.19689,2.542836 -1.06105,-0.122219 -2.42191,-0.397018 -3.09192,-1.219476 -0.0675,-0.271427 -0.17244,-0.522384 -0.28898,-0.77212 z m 7.912,-9.815345 c 2.41351,-1.222605 4.7704,-2.566771 7.23713,-3.787783 1.33796,-0.892471 2.85707,-1.725435 3.92221,-2.886267 1.61885,-1.634847 3.14783,-3.260731 4.71021,-4.940017 0.74814,-0.451501 1.03243,-2.155599 -0.70382,-1.57272 -4.40013,1.081792 -7.76519,3.724441 -10.72041,6.327372 -1.8474,1.735802 -3.06961,3.928924 -4.79911,5.743109 -0.49145,0.402717 -1.95145,2.047833 -0.34269,1.484334 0.24029,-0.110148 0.46946,-0.2374 0.69648,-0.368028 z M 85.538339,48.946733 c -0.01685,-0.09484 0.03244,-0.243936 0.111652,-0.331826 0.186865,-0.207292 0.212558,-0.02921 0.0478,0.270977 -0.107249,0.195333 -0.132504,0.205696 -0.159464,0.06076 z m 0.507796,-1.050291 c -0.0092,-0.05842 0.03634,-0.114781 0.101174,-0.125099 0.06476,-0.01031 0.09425,0.03409 0.06554,0.0985 -0.02871,0.06442 -0.07406,0.120694 -0.10109,0.125016 -0.02681,0.0043 -0.05644,-0.04 -0.06563,-0.09842 z M 17.963154,83.509131 c -0.06915,0.642308 -0.17186,1.289139 0.06241,1.887926 0.586388,2.515739 1.612869,4.744904 3.288254,6.709362 1.937819,-0.372676 4.328005,-2.783782 4.685619,-3.977634 0.02478,-1.672294 -0.4369,-3.395539 -0.786615,-5.098246 -0.630133,-1.627318 -2.42269,-2.514536 -4.1549,-2.555468 -1.885858,-0.12312 -2.893215,1.748661 -3.094764,3.03406 z m 3.340318,-3.617745 c 1.395905,-0.313102 4.356359,2.102728 3.59161,-0.659086 -0.64089,-1.493811 -0.063,-3.967212 -1.962187,-4.586534 -1.744049,-0.718266 -3.638806,-1.02272 -5.45062,-1.573965 -2.672407,-0.726948 -5.585453,-2.075639 -6.816479,-4.608923 -0.9512127,-1.95744 -1.2661523,-4.957556 0.935903,-6.83642 1.644723,-1.40332 4.055272,-2.317098 5.999456,-1.871788 2.159366,0.494603 3.48162,2.290981 4.364327,4.16886 0.403987,1.426606 1.306187,2.666602 1.502025,4.093133 0.286411,1.063796 0.624603,2.264683 1.12935,3.375323 1.523549,1.002276 3.503241,1.265296 4.969806,2.427904 2.266805,1.569724 4.287277,3.536914 5.913757,5.744126 0.833779,1.13149 1.360125,2.537449 1.882148,3.816615 0.295438,0.723931 0.575866,1.601841 0.654939,2.453062 0.122403,1.317835 -0.01207,2.607355 -0.217342,3.899774 -0.265052,1.668744 -1.311776,2.964758 -2.292903,4.180224 -0.825696,1.022955 -1.720389,1.799107 -2.946273,2.396714 -1.373494,0.669564 -2.983475,0.461728 -4.694537,0.3713 0.136485,1.082605 0.298302,2.061938 0.287061,3.078186 -0.01792,1.619239 0.550893,6.016039 -1.704777,7.501279 0.109184,-2.08336 0.642948,-4.78534 0.511661,-6.72196 -0.09624,-1.41957 -0.09097,-2.466638 -0.414611,-4.083405 C 24.842764,95.425227 22.871653,94.387188 21.565577,93.33029 19.684979,93.485417 17.786844,93.815651 15.85552,93.060774 14.042263,92.506 12.21049,91.380655 11.143794,89.785988 8.7898685,86.296525 9.1874744,84.012304 9.287643,80.399082 c 1.329705,2.515967 0.895959,5.249485 2.350808,7.557513 1.010363,2.200329 3.410828,3.801976 5.741918,4.477319 0.788701,0.201608 2.553281,0.240531 3.022418,0.0059 -0.869832,-1.276372 -2.453699,-3.410937 -2.812375,-5.195399 -0.428923,-1.685862 -0.779871,-3.695171 0.301527,-5.160635 1.03243,-1.687765 2.122027,-1.903168 3.411506,-2.192408 9e-6,-1.2e-5 1.8e-5,-2.3e-5 2.7e-5,-3.5e-5 z m 14.367596,11.989569 c 0.710548,-1.559941 0.4677,-3.317821 0.147998,-5.109099 -0.296855,-1.663283 -1.170244,-3.173583 -2.067955,-4.596841 -1.257366,-1.993485 -3.186456,-3.392704 -5.011672,-4.872923 -0.569125,-0.462175 -1.733548,-1.319155 -2.958855,-1.790103 -0.274774,1.762695 0.195611,4.159726 0.319133,5.828524 0.138734,1.219843 0.382863,2.474615 0.612918,3.696441 0.139134,1.346471 0.556129,2.676651 0.59159,3.944817 0.04252,1.271518 0.174498,2.48251 0.221599,3.719039 0.08481,0.923878 0.05067,1.949653 0.433996,3.093161 1.633297,0.03375 4.067922,0.156815 6.746375,-2.468954 0.41353,-0.405388 0.656874,-0.951428 0.964864,-1.444069 3e-6,2e-6 6e-6,4e-6 9e-6,7e-6 z m -9.501321,-1.505239 c -0.662394,1.10222 -2.999351,2.350315 -3.784445,2.615398 0.595472,0.654358 1.718301,1.496158 2.421501,1.978987 0.33789,0.201411 0.951816,0.524624 1.538919,0.623069 0.22301,-1.478109 -0.03382,-3.699169 -0.175975,-5.217454 z M 22.843063,70.204182 c -0.55342,-2.865323 -1.639911,-5.819418 -3.570316,-7.974094 -1.341424,-1.152492 -3.113153,-1.846732 -5.185774,-1.109161 -1.507812,0.536576 -2.916388,1.719365 -2.408238,3.242215 0.526738,1.578527 1.6342,3.022577 2.92498,3.954226 2.380671,1.345682 5.199813,1.862196 7.877269,2.422544 0.242481,-0.0099 0.478977,-0.308552 0.362114,-0.535701 z M 10.59901,85.993142 c -0.434451,-0.04839 0.220752,0.31528 0,0 z" />
  </g>
</svg>
