  0
SECTION
  2
HEADER
  9
$ACADVER
  1
AC1014
  9
$HANDSEED
  5
FFFF
  9
$MEASUREMENT
 70
     1
  0
ENDSEC
  0
SECTION
  2
TABLES
  0
TABLE
  2
VPORT
  5
8
330
0
100
AcDbSymbolTable
 70
     4
  0
VPORT
  5
2E
330
8
100
AcDbSymbolTableRecord
100
AcDbViewportTableRecord
  2
*ACTIVE
 70
     0
 10
0.0
 20
0.0
 11
1.0
 21
1.0
 12
210.0
 22
148.5
 13
0.0
 23
0.0
 14
10.0
 24
10.0
 15
10.0
 25
10.0
 16
0.0
 26
0.0
 36
1.0
 17
0.0
 27
0.0
 37
0.0
 40
341.0
 41
1.24
 42
50.0
 43
0.0
 44
0.0
 50
0.0
 51
0.0
 71
     0
 72
   100
 73
     1
 74
     3
 75
     0
 76
     0
 77
     0
 78
     0
  0
ENDTAB
  0
TABLE
  2
LTYPE
  5
5
330
0
100
AcDbSymbolTable
 70
     1
  0
LTYPE
  5
14
330
5
100
AcDbSymbolTableRecord
100
AcDbLinetypeTableRecord
  2
BYBLOCK
 70
     0
  3

 72
    65
 73
     0
 40
0.0
  0
LTYPE
  5
15
330
5
100
AcDbSymbolTableRecord
100
AcDbLinetypeTableRecord
  2
BYLAYER
 70
     0
  3

 72
    65
 73
     0
 40
0.0
  0
LTYPE
  5
16
330
5
100
AcDbSymbolTableRecord
100
AcDbLinetypeTableRecord
  2
CONTINUOUS
 70
     0
  3
Solid line
 72
    65
 73
     0
 40
0.0
  0
ENDTAB
  0
TABLE
  2
LAYER
  5
2
100
AcDbSymbolTable
 70
2
  0
LAYER
  5
50
100
AcDbSymbolTableRecord
100
AcDbLayerTableRecord
  2
0
 70
0
  6
CONTINUOUS
  0
LAYER
  5
51
100
AcDbSymbolTableRecord
100
AcDbLayerTableRecord
  2
Layer_1
 70
0
  6
CONTINUOUS
  0
ENDTAB
  0
TABLE
  2
STYLE
  5
3
330
0
100
AcDbSymbolTable
 70
     1
  0
STYLE
  5
11
330
3
100
AcDbSymbolTableRecord
100
AcDbTextStyleTableRecord
  2
STANDARD
 70
     0
 40
0.0
 41
1.0
 50
0.0
 71
     0
 42
2.5
  3
txt
  4

  0
ENDTAB
  0
TABLE
  2
VIEW
  5
6
330
0
100
AcDbSymbolTable
 70
     0
  0
ENDTAB
  0
TABLE
  2
UCS
  5
7
330
0
100
AcDbSymbolTable
 70
     0
  0
ENDTAB
  0
TABLE
  2
APPID
  5
9
330
0
100
AcDbSymbolTable
 70
     2
  0
APPID
  5
12
330
9
100
AcDbSymbolTableRecord
100
AcDbRegAppTableRecord
  2
ACAD
 70
     0
  0
ENDTAB
  0
TABLE
  2
DIMSTYLE
  5
A
330
0
100
AcDbSymbolTable
 70
     1
  0
DIMSTYLE
105
27
330
A
100
AcDbSymbolTableRecord
100
AcDbDimStyleTableRecord
  2
ISO-25
 70
     0
  3

  4

  5

  6

  7

 40
1.0
 41
2.5
 42
0.625
 43
3.75
 44
1.25
 45
0.0
 46
0.0
 47
0.0
 48
0.0
140
2.5
141
2.5
142
0.0
143
0.03937007874016
144
1.0
145
0.0
146
1.0
147
0.625
 71
     0
 72
     0
 73
     0
 74
     0
 75
     0
 76
     0
 77
     1
 78
     8
170
     0
171
     3
172
     1
173
     0
174
     0
175
     0
176
     0
177
     0
178
     0
270
     2
271
     2
272
     2
273
     2
274
     3
340
11
275
     0
280
     0
281
     0
282
     0
283
     0
284
     8
285
     0
286
     0
287
     3
288
     0
  0
ENDTAB
  0
TABLE
  2
BLOCK_RECORD
  5
1
330
0
100
AcDbSymbolTable
 70
     1
  0
BLOCK_RECORD
  5
1F
330
1
100
AcDbSymbolTableRecord
100
AcDbBlockTableRecord
  2
*MODEL_SPACE
  0
BLOCK_RECORD
  5
1B
330
1
100
AcDbSymbolTableRecord
100
AcDbBlockTableRecord
  2
*PAPER_SPACE
  0
ENDTAB
  0
ENDSEC
  0
SECTION
  2
BLOCKS
  0
BLOCK
  5
20
330
1F
100
AcDbEntity
  8
0
100
AcDbBlockBegin
  2
*MODEL_SPACE
 70
     0
 10
0.0
 20
0.0
 30
0.0
  3
*MODEL_SPACE
  1

  0
ENDBLK
  5
21
330
1F
100
AcDbEntity
  8
0
100
AcDbBlockEnd
  0
BLOCK
  5
1C
330
1B
100
AcDbEntity
 67
     1
  8
0
100
AcDbBlockBegin
  2
*PAPER_SPACE
  1

  0
ENDBLK
  5
1D
330
1B
100
AcDbEntity
 67
     1
  8
0
100
AcDbBlockEnd
  0
ENDSEC
  0
SECTION
  2
ENTITIES
  0
LINE
  5
100
100
AcDbEntity
  8
Layer_1
 62
7
100
AcDbLine
 10
299.111496
 20
432.118087
 30
0.0
 11
299.111496
 21
432.118087
 31
0.0
  0
SPLINE
  5
101
100
AcDbEntity
  8
Layer_1
 62
7
100
AcDbSpline
 70
0
 71
3
 72
25
 73
21
 74
19
 40
0.000000
 40
0.000000
 40
0.000000
 40
0.000000
 40
4.687380
 40
9.335053
 40
14.077820
 40
18.835307
 40
23.519683
 40
28.249643
 40
32.949945
 40
37.560624
 40
42.233063
 40
46.920443
 40
51.568117
 40
56.310883
 40
61.068370
 40
65.752746
 40
70.482706
 40
75.183009
 40
79.793687
 40
84.466127
 40
84.466127
 40
84.466127
 40
84.466127
 10
299.111496
 20
432.118087
 30
0.0
 10
299.682868
 20
430.646150
 30
0.0
 10
300.820772
 20
427.714745
 30
0.0
 10
304.332537
 20
424.390514
 30
0.0
 10
308.682109
 20
422.381022
 30
0.0
 10
313.494142
 20
421.974962
 30
0.0
 10
318.149902
 20
423.197034
 30
0.0
 10
322.111912
 20
425.909574
 30
0.0
 10
324.887622
 20
429.799443
 30
0.0
 10
326.143031
 20
434.388729
 30
0.0
 10
325.723748
 20
439.127613
 30
0.0
 10
323.670434
 20
443.431464
 30
0.0
 10
320.251039
 20
446.781013
 30
0.0
 10
315.876400
 20
448.783634
 30
0.0
 10
311.070675
 20
449.191423
 30
0.0
 10
306.414911
 20
447.969350
 30
0.0
 10
302.446660
 20
445.255100
 30
0.0
 10
299.695659
 20
441.372003
 30
0.0
 10
298.349020
 20
436.757711
 30
0.0
 10
298.856212
 20
433.671473
 30
0.0
 10
299.111496
 20
432.118087
 30
0.0
 11
299.111496
 21
432.118087
 31
0.0
 11
301.125840
 21
427.885600
 31
0.0
 11
304.442191
 21
424.629423
 31
0.0
 11
308.752895
 21
422.651629
 31
0.0
 11
313.493246
 21
422.248205
 31
0.0
 11
318.023465
 21
423.440049
 31
0.0
 11
321.923290
 21
426.116593
 31
0.0
 11
324.649297
 21
429.945657
 31
0.0
 11
325.863166
 21
434.393676
 31
0.0
 11
325.452287
 21
439.048015
 31
0.0
 11
323.437943
 21
443.280502
 31
0.0
 11
320.121592
 21
446.536679
 31
0.0
 11
315.810888
 21
448.514473
 31
0.0
 11
311.070537
 21
448.917896
 31
0.0
 11
306.540318
 21
447.726053
 31
0.0
 11
302.640493
 21
445.049509
 31
0.0
 11
299.914486
 21
441.220445
 31
0.0
 11
298.700617
 21
436.772425
 31
0.0
 11
299.111496
 21
432.118087
 31
0.0
  0
LINE
  5
102
100
AcDbEntity
  8
Layer_1
 62
7
100
AcDbLine
 10
294.211627
 20
368.789711
 30
0.0
 11
294.211627
 21
368.789711
 31
0.0
  0
SPLINE
  5
103
100
AcDbEntity
  8
Layer_1
 62
7
100
AcDbSpline
 70
0
 71
3
 72
25
 73
21
 74
19
 40
0.000000
 40
0.000000
 40
0.000000
 40
0.000000
 40
4.687380
 40
9.335053
 40
14.077820
 40
18.835307
 40
23.519683
 40
28.249643
 40
32.949945
 40
37.560624
 40
42.233063
 40
46.920443
 40
51.568117
 40
56.310883
 40
61.068370
 40
65.752746
 40
70.482706
 40
75.183009
 40
79.793687
 40
84.466127
 40
84.466127
 40
84.466127
 40
84.466127
 10
294.211627
 20
368.789711
 30
0.0
 10
294.782999
 20
367.317774
 30
0.0
 10
295.920903
 20
364.386368
 30
0.0
 10
299.432668
 20
361.062138
 30
0.0
 10
303.782240
 20
359.052646
 30
0.0
 10
308.594273
 20
358.646585
 30
0.0
 10
313.250033
 20
359.868658
 30
0.0
 10
317.212043
 20
362.581197
 30
0.0
 10
319.987753
 20
366.471067
 30
0.0
 10
321.243162
 20
371.060353
 30
0.0
 10
320.823879
 20
375.799237
 30
0.0
 10
318.770565
 20
380.103087
 30
0.0
 10
315.351170
 20
383.452636
 30
0.0
 10
310.976531
 20
385.455258
 30
0.0
 10
306.170806
 20
385.863047
 30
0.0
 10
301.515042
 20
384.640974
 30
0.0
 10
297.546791
 20
381.926724
 30
0.0
 10
294.795790
 20
378.043627
 30
0.0
 10
293.449151
 20
373.429335
 30
0.0
 10
293.956343
 20
370.343096
 30
0.0
 10
294.211627
 20
368.789711
 30
0.0
 11
294.211627
 21
368.789711
 31
0.0
 11
296.225971
 21
364.557223
 31
0.0
 11
299.542322
 21
361.301047
 31
0.0
 11
303.853026
 21
359.323253
 31
0.0
 11
308.593377
 21
358.919829
 31
0.0
 11
313.123596
 21
360.111672
 31
0.0
 11
317.023421
 21
362.788217
 31
0.0
 11
319.749428
 21
366.617280
 31
0.0
 11
320.963297
 21
371.065300
 31
0.0
 11
320.552418
 21
375.719638
 31
0.0
 11
318.538074
 21
379.952126
 31
0.0
 11
315.221723
 21
383.208302
 31
0.0
 11
310.911019
 21
385.186096
 31
0.0
 11
306.170668
 21
385.589520
 31
0.0
 11
301.640449
 21
384.397677
 31
0.0
 11
297.740624
 21
381.721132
 31
0.0
 11
295.014617
 21
377.892069
 31
0.0
 11
293.800748
 21
373.444049
 31
0.0
 11
294.211627
 21
368.789711
 31
0.0
  0
LINE
  5
104
100
AcDbEntity
  8
Layer_1
 62
7
100
AcDbLine
 10
296.681640
 20
298.160329
 30
0.0
 11
296.681640
 21
298.160329
 31
0.0
  0
SPLINE
  5
105
100
AcDbEntity
  8
Layer_1
 62
7
100
AcDbSpline
 70
0
 71
3
 72
25
 73
21
 74
19
 40
0.000000
 40
0.000000
 40
0.000000
 40
0.000000
 40
4.687380
 40
9.335053
 40
14.077820
 40
18.835307
 40
23.519683
 40
28.249643
 40
32.949945
 40
37.560624
 40
42.233063
 40
46.920443
 40
51.568117
 40
56.310883
 40
61.068370
 40
65.752746
 40
70.482706
 40
75.183009
 40
79.793687
 40
84.466127
 40
84.466127
 40
84.466127
 40
84.466127
 10
296.681640
 20
298.160329
 30
0.0
 10
297.253012
 20
296.688392
 30
0.0
 10
298.390916
 20
293.756987
 30
0.0
 10
301.902681
 20
290.432757
 30
0.0
 10
306.252253
 20
288.423264
 30
0.0
 10
311.064286
 20
288.017204
 30
0.0
 10
315.720046
 20
289.239276
 30
0.0
 10
319.682056
 20
291.951816
 30
0.0
 10
322.457766
 20
295.841685
 30
0.0
 10
323.713175
 20
300.430971
 30
0.0
 10
323.293892
 20
305.169855
 30
0.0
 10
321.240578
 20
309.473706
 30
0.0
 10
317.821183
 20
312.823255
 30
0.0
 10
313.446544
 20
314.825876
 30
0.0
 10
308.640819
 20
315.233666
 30
0.0
 10
303.985055
 20
314.011592
 30
0.0
 10
300.016804
 20
311.297342
 30
0.0
 10
297.265803
 20
307.414245
 30
0.0
 10
295.919164
 20
302.799953
 30
0.0
 10
296.426356
 20
299.713715
 30
0.0
 10
296.681640
 20
298.160329
 30
0.0
 11
296.681640
 21
298.160329
 31
0.0
 11
298.695984
 21
293.927842
 31
0.0
 11
302.012335
 21
290.671665
 31
0.0
 11
306.323038
 21
288.693871
 31
0.0
 11
311.063390
 21
288.290448
 31
0.0
 11
315.593609
 21
289.482291
 31
0.0
 11
319.493434
 21
292.158835
 31
0.0
 11
322.219441
 21
295.987899
 31
0.0
 11
323.433310
 21
300.435919
 31
0.0
 11
323.022431
 21
305.090257
 31
0.0
 11
321.008087
 21
309.322744
 31
0.0
 11
317.691736
 21
312.578921
 31
0.0
 11
313.381032
 21
314.556715
 31
0.0
 11
308.640681
 21
314.960139
 31
0.0
 11
304.110462
 21
313.768295
 31
0.0
 11
300.210637
 21
311.091751
 31
0.0
 11
297.484630
 21
307.262687
 31
0.0
 11
296.270761
 21
302.814668
 31
0.0
 11
296.681640
 21
298.160329
 31
0.0
  0
LINE
  5
106
100
AcDbEntity
  8
Layer_1
 62
7
100
AcDbLine
 10
319.108291
 20
496.778413
 30
0.0
 11
319.108291
 21
496.778413
 31
0.0
  0
LINE
  5
107
100
AcDbEntity
  8
Layer_1
 62
7
100
AcDbLine
 10
224.669663
 20
667.950773
 30
0.0
 11
230.122137
 21
676.963021
 31
0.0
  0
LINE
  5
108
100
AcDbEntity
  8
Layer_1
 62
7
100
AcDbLine
 10
230.122137
 20
676.963021
 30
0.0
 11
240.688781
 21
675.465213
 31
0.0
  0
LINE
  5
109
100
AcDbEntity
  8
Layer_1
 62
7
100
AcDbLine
 10
240.688781
 20
675.465213
 30
0.0
 11
233.644146
 21
683.341714
 31
0.0
  0
LINE
  5
10a
100
AcDbEntity
  8
Layer_1
 62
7
100
AcDbLine
 10
233.644146
 20
683.341714
 30
0.0
 11
238.360235
 21
692.745955
 31
0.0
  0
LINE
  5
10b
100
AcDbEntity
  8
Layer_1
 62
7
100
AcDbLine
 10
238.360235
 20
692.745955
 30
0.0
 11
228.553897
 21
688.601645
 31
0.0
  0
LINE
  5
10c
100
AcDbEntity
  8
Layer_1
 62
7
100
AcDbLine
 10
228.553897
 20
688.601645
 30
0.0
 11
220.902009
 21
695.911601
 31
0.0
  0
LINE
  5
10d
100
AcDbEntity
  8
Layer_1
 62
7
100
AcDbLine
 10
220.902009
 20
695.911601
 30
0.0
 11
221.885965
 21
685.473770
 31
0.0
  0
LINE
  5
10e
100
AcDbEntity
  8
Layer_1
 62
7
100
AcDbLine
 10
221.885965
 20
685.473770
 30
0.0
 11
212.440717
 21
680.587324
 31
0.0
  0
LINE
  5
10f
100
AcDbEntity
  8
Layer_1
 62
7
100
AcDbLine
 10
212.440717
 20
680.587324
 30
0.0
 11
222.855193
 21
678.280706
 31
0.0
  0
LINE
  5
110
100
AcDbEntity
  8
Layer_1
 62
7
100
AcDbLine
 10
222.855193
 20
678.280706
 30
0.0
 11
224.669663
 21
667.950773
 31
0.0
  0
LINE
  5
111
100
AcDbEntity
  8
Layer_1
 62
7
100
AcDbLine
 10
202.340616
 20
736.264718
 30
0.0
 11
207.042158
 21
742.176706
 31
0.0
  0
LINE
  5
112
100
AcDbEntity
  8
Layer_1
 62
7
100
AcDbLine
 10
207.042158
 20
742.176706
 30
0.0
 11
214.404100
 21
740.173872
 31
0.0
  0
LINE
  5
113
100
AcDbEntity
  8
Layer_1
 62
7
100
AcDbLine
 10
214.404100
 20
740.173872
 30
0.0
 11
210.130459
 21
746.391074
 31
0.0
  0
LINE
  5
114
100
AcDbEntity
  8
Layer_1
 62
7
100
AcDbLine
 10
210.130459
 20
746.391074
 30
0.0
 11
214.345394
 21
752.646759
 31
0.0
  0
LINE
  5
115
100
AcDbEntity
  8
Layer_1
 62
7
100
AcDbLine
 10
214.345394
 20
752.646759
 30
0.0
 11
207.002587
 21
750.577226
 31
0.0
  0
LINE
  5
116
100
AcDbEntity
  8
Layer_1
 62
7
100
AcDbLine
 10
207.002587
 20
750.577226
 30
0.0
 11
202.245618
 21
756.446294
 31
0.0
  0
LINE
  5
117
100
AcDbEntity
  8
Layer_1
 62
7
100
AcDbLine
 10
202.245618
 20
756.446294
 30
0.0
 11
201.981216
 21
748.950058
 31
0.0
  0
LINE
  5
118
100
AcDbEntity
  8
Layer_1
 62
7
100
AcDbLine
 10
201.981216
 20
748.950058
 30
0.0
 11
194.826283
 21
746.321643
 31
0.0
  0
LINE
  5
119
100
AcDbEntity
  8
Layer_1
 62
7
100
AcDbLine
 10
194.826283
 20
746.321643
 30
0.0
 11
202.005654
 21
743.758256
 31
0.0
  0
LINE
  5
11a
100
AcDbEntity
  8
Layer_1
 62
7
100
AcDbLine
 10
202.005654
 20
743.758256
 30
0.0
 11
202.340616
 21
736.264718
 31
0.0
  0
LINE
  5
11b
100
AcDbEntity
  8
Layer_1
 62
7
100
AcDbLine
 10
179.076367
 20
796.330900
 30
0.0
 11
183.777908
 21
802.242888
 31
0.0
  0
LINE
  5
11c
100
AcDbEntity
  8
Layer_1
 62
7
100
AcDbLine
 10
183.777908
 20
802.242888
 30
0.0
 11
191.139919
 21
800.240065
 31
0.0
  0
LINE
  5
11d
100
AcDbEntity
  8
Layer_1
 62
7
100
AcDbLine
 10
191.139919
 20
800.240065
 30
0.0
 11
186.866212
 21
806.457249
 31
0.0
  0
LINE
  5
11e
100
AcDbEntity
  8
Layer_1
 62
7
100
AcDbLine
 10
186.866212
 20
806.457249
 30
0.0
 11
191.081211
 21
812.712959
 31
0.0
  0
LINE
  5
11f
100
AcDbEntity
  8
Layer_1
 62
7
100
AcDbLine
 10
191.081211
 20
812.712959
 30
0.0
 11
183.738403
 21
810.643425
 31
0.0
  0
LINE
  5
120
100
AcDbEntity
  8
Layer_1
 62
7
100
AcDbLine
 10
183.738403
 20
810.643425
 30
0.0
 11
178.981435
 21
816.512493
 31
0.0
  0
LINE
  5
121
100
AcDbEntity
  8
Layer_1
 62
7
100
AcDbLine
 10
178.981435
 20
816.512493
 30
0.0
 11
178.716967
 21
809.016239
 31
0.0
  0
LINE
  5
122
100
AcDbEntity
  8
Layer_1
 62
7
100
AcDbLine
 10
178.716967
 20
809.016239
 30
0.0
 11
171.562033
 21
806.387825
 31
0.0
  0
LINE
  5
123
100
AcDbEntity
  8
Layer_1
 62
7
100
AcDbLine
 10
171.562033
 20
806.387825
 30
0.0
 11
178.741404
 21
803.824438
 31
0.0
  0
LINE
  5
124
100
AcDbEntity
  8
Layer_1
 62
7
100
AcDbLine
 10
178.741404
 20
803.824438
 30
0.0
 11
179.076367
 21
796.330900
 31
0.0
  0
LINE
  5
125
100
AcDbEntity
  8
Layer_1
 62
7
100
AcDbLine
 10
138.964545
 20
866.957175
 30
0.0
 11
143.666087
 21
872.869163
 31
0.0
  0
LINE
  5
126
100
AcDbEntity
  8
Layer_1
 62
7
100
AcDbLine
 10
143.666087
 20
872.869163
 30
0.0
 11
151.028031
 21
870.866323
 31
0.0
  0
LINE
  5
127
100
AcDbEntity
  8
Layer_1
 62
7
100
AcDbLine
 10
151.028031
 20
870.866323
 30
0.0
 11
146.754390
 21
877.083524
 31
0.0
  0
LINE
  5
128
100
AcDbEntity
  8
Layer_1
 62
7
100
AcDbLine
 10
146.754390
 20
877.083524
 30
0.0
 11
150.969323
 21
883.339216
 31
0.0
  0
LINE
  5
129
100
AcDbEntity
  8
Layer_1
 62
7
100
AcDbLine
 10
150.969323
 20
883.339216
 30
0.0
 11
143.626515
 21
881.269683
 31
0.0
  0
LINE
  5
12a
100
AcDbEntity
  8
Layer_1
 62
7
100
AcDbLine
 10
143.626515
 20
881.269683
 30
0.0
 11
138.869547
 21
887.138751
 31
0.0
  0
LINE
  5
12b
100
AcDbEntity
  8
Layer_1
 62
7
100
AcDbLine
 10
138.869547
 20
887.138751
 30
0.0
 11
138.605145
 21
879.642515
 31
0.0
  0
LINE
  5
12c
100
AcDbEntity
  8
Layer_1
 62
7
100
AcDbLine
 10
138.605145
 20
879.642515
 30
0.0
 11
131.450211
 21
877.014100
 31
0.0
  0
LINE
  5
12d
100
AcDbEntity
  8
Layer_1
 62
7
100
AcDbLine
 10
131.450211
 20
877.014100
 30
0.0
 11
138.629583
 21
874.450713
 31
0.0
  0
LINE
  5
12e
100
AcDbEntity
  8
Layer_1
 62
7
100
AcDbLine
 10
138.629583
 20
874.450713
 30
0.0
 11
138.964545
 21
866.957175
 31
0.0
  0
LINE
  5
12f
100
AcDbEntity
  8
Layer_1
 62
7
100
AcDbLine
 10
101.037343
 20
929.578276
 30
0.0
 11
105.738818
 21
935.490245
 31
0.0
  0
LINE
  5
130
100
AcDbEntity
  8
Layer_1
 62
7
100
AcDbLine
 10
105.738818
 20
935.490245
 30
0.0
 11
113.100827
 21
933.487430
 31
0.0
  0
LINE
  5
131
100
AcDbEntity
  8
Layer_1
 62
7
100
AcDbLine
 10
113.100827
 20
933.487430
 30
0.0
 11
108.827121
 21
939.704607
 31
0.0
  0
LINE
  5
132
100
AcDbEntity
  8
Layer_1
 62
7
100
AcDbLine
 10
108.827121
 20
939.704607
 30
0.0
 11
113.042120
 21
945.960317
 31
0.0
  0
LINE
  5
133
100
AcDbEntity
  8
Layer_1
 62
7
100
AcDbLine
 10
113.042120
 20
945.960317
 30
0.0
 11
105.699313
 21
943.890783
 31
0.0
  0
LINE
  5
134
100
AcDbEntity
  8
Layer_1
 62
7
100
AcDbLine
 10
105.699313
 20
943.890783
 30
0.0
 11
100.942345
 21
949.759851
 31
0.0
  0
LINE
  5
135
100
AcDbEntity
  8
Layer_1
 62
7
100
AcDbLine
 10
100.942345
 20
949.759851
 30
0.0
 11
100.677943
 21
942.263615
 31
0.0
  0
LINE
  5
136
100
AcDbEntity
  8
Layer_1
 62
7
100
AcDbLine
 10
100.677943
 20
942.263615
 30
0.0
 11
93.522943
 21
939.635183
 31
0.0
  0
LINE
  5
137
100
AcDbEntity
  8
Layer_1
 62
7
100
AcDbLine
 10
93.522943
 20
939.635183
 30
0.0
 11
100.702381
 21
937.071813
 31
0.0
  0
LINE
  5
138
100
AcDbEntity
  8
Layer_1
 62
7
100
AcDbLine
 10
100.702381
 20
937.071813
 30
0.0
 11
101.037343
 21
929.578276
 31
0.0
  0
SPLINE
  5
139
100
AcDbEntity
  8
Layer_1
 62
7
100
AcDbSpline
 70
0
 71
3
 72
22
 73
18
 74
16
 40
0.000000
 40
0.000000
 40
0.000000
 40
0.000000
 40
7.032656
 40
13.919223
 40
21.048405
 40
28.145202
 40
34.969011
 40
41.968837
 40
46.656217
 40
51.303890
 40
56.046657
 40
60.804143
 40
65.488520
 40
70.218480
 40
74.918782
 40
79.529461
 40
84.201900
 40
84.201900
 40
84.201900
 40
84.201900
 10
319.108291
 20
496.778413
 30
0.0
 10
320.097152
 20
494.591240
 30
0.0
 10
322.054333
 20
490.262326
 30
0.0
 10
328.643500
 20
486.724617
 30
0.0
 10
335.945151
 20
486.690519
 30
0.0
 10
342.349170
 20
490.318240
 30
0.0
 10
346.059738
 20
496.589453
 30
0.0
 10
346.065340
 20
503.082774
 30
0.0
 10
343.666431
 20
508.089611
 30
0.0
 10
340.248051
 20
511.441934
 30
0.0
 10
335.873135
 20
513.443799
 30
0.0
 10
331.067485
 20
513.851793
 30
0.0
 10
326.411701
 20
512.629665
 30
0.0
 10
322.443456
 20
509.915430
 30
0.0
 10
319.692453
 20
506.032329
 30
0.0
 10
318.345814
 20
501.418038
 30
0.0
 10
318.853007
 20
498.331799
 30
0.0
 10
319.108291
 20
496.778413
 30
0.0
 11
319.108291
 21
496.778413
 31
0.0
 11
322.687588
 21
490.724747
 31
0.0
 11
328.678521
 21
487.328641
 31
0.0
 11
335.807683
 21
487.311957
 31
0.0
 11
341.973222
 21
490.826308
 31
0.0
 11
345.432088
 21
496.708536
 31
0.0
 11
345.449082
 21
503.708341
 31
0.0
 11
343.434738
 21
507.940829
 31
0.0
 11
340.118387
 21
511.197005
 31
0.0
 11
335.807683
 21
513.174799
 31
0.0
 11
331.067332
 21
513.578223
 31
0.0
 11
326.537113
 21
512.386380
 31
0.0
 11
322.637288
 21
509.709835
 31
0.0
 11
319.911280
 21
505.880772
 31
0.0
 11
318.697412
 21
501.432752
 31
0.0
 11
319.108291
 21
496.778413
 31
0.0
  0
SPLINE
  5
13a
100
AcDbEntity
  8
Layer_1
 62
1
100
AcDbSpline
 70
0
 71
3
 72
10
 73
6
 74
4
 40
0.000000
 40
0.000000
 40
0.000000
 40
0.000000
 40
197.965929
 40
300.914330
 40
334.806600
 40
334.806600
 40
334.806600
 40
334.806600
 10
293.178597
 20
221.920547
 30
0.0
 10
284.083179
 20
287.234819
 30
0.0
 10
270.257862
 20
386.514531
 30
0.0
 10
293.923138
 20
501.226068
 30
0.0
 10
323.161057
 20
536.572068
 30
0.0
 10
330.402613
 20
545.326454
 30
0.0
 11
293.178597
 21
221.920547
 31
0.0
 11
281.081723
 21
419.516536
 31
0.0
 11
309.878170
 21
518.355485
 31
0.0
 11
330.402613
 21
545.326454
 31
0.0
  0
SPLINE
  5
13b
100
AcDbEntity
  8
Layer_1
 62
1
100
AcDbSpline
 70
0
 71
3
 72
10
 73
6
 74
4
 40
0.000000
 40
0.000000
 40
0.000000
 40
0.000000
 40
198.231568
 40
291.611837
 40
322.058399
 40
322.058399
 40
322.058399
 40
322.058399
 10
269.540449
 20
301.571819
 30
0.0
 10
253.864858
 20
365.323503
 30
0.0
 10
230.805019
 20
459.106475
 30
0.0
 10
249.367458
 20
574.396642
 30
0.0
 10
280.640391
 20
602.112533
 30
0.0
 10
288.329786
 20
608.927321
 30
0.0
 11
269.540449
 21
301.571819
 31
0.0
 11
240.936389
 21
497.728803
 31
0.0
 11
266.720791
 21
587.478673
 31
0.0
 11
288.329786
 21
608.927321
 31
0.0
  0
SPLINE
  5
13c
100
AcDbEntity
  8
Layer_1
 62
1
100
AcDbSpline
 70
0
 71
3
 72
10
 73
6
 74
4
 40
0.000000
 40
0.000000
 40
0.000000
 40
0.000000
 40
197.162891
 40
249.911071
 40
278.118310
 40
278.118310
 40
278.118310
 40
278.118310
 10
216.560441
 20
481.774668
 30
0.0
 10
187.136145
 20
542.171638
 30
0.0
 10
149.839789
 20
618.726975
 30
0.0
 10
205.875268
 20
727.287095
 30
0.0
 10
232.719200
 20
713.548917
 30
0.0
 10
242.072411
 20
708.762133
 30
0.0
 11
216.560441
 21
481.774668
 31
0.0
 11
182.841282
 21
676.032805
 31
0.0
 11
215.291510
 21
717.618298
 31
0.0
 11
242.072411
 21
708.762133
 31
0.0
  0
SPLINE
  5
13d
100
AcDbEntity
  8
Layer_1
 62
1
100
AcDbSpline
 70
0
 71
3
 72
10
 73
6
 74
4
 40
0.000000
 40
0.000000
 40
0.000000
 40
0.000000
 40
96.087274
 40
175.671622
 40
210.659247
 40
210.659247
 40
210.659247
 40
210.659247
 10
182.838393
 20
681.977939
 30
0.0
 10
181.272817
 20
714.492912
 30
0.0
 10
178.410552
 20
773.938433
 30
0.0
 10
140.514004
 20
835.676333
 30
0.0
 10
115.485068
 20
864.413542
 30
0.0
 10
107.841811
 20
873.189219
 30
0.0
 11
182.838393
 21
681.977939
 31
0.0
 11
169.543257
 21
777.140976
 31
0.0
 11
130.359581
 21
846.410795
 31
0.0
 11
107.841811
 21
873.189219
 31
0.0
  0
SPLINE
  5
13e
100
AcDbEntity
  8
Layer_1
 62
1
100
AcDbSpline
 70
0
 71
3
 72
10
 73
6
 74
4
 40
0.000000
 40
0.000000
 40
0.000000
 40
0.000000
 40
103.213158
 40
157.412283
 40
175.023508
 40
175.023508
 40
175.023508
 40
175.023508
 10
206.989602
 20
515.258488
 30
0.0
 10
213.563809
 20
548.996599
 30
0.0
 10
223.590252
 20
600.451211
 30
0.0
 10
252.737006
 20
653.758281
 30
0.0
 10
272.234022
 20
667.834519
 30
0.0
 10
277.015594
 20
671.286665
 30
0.0
 11
206.989602
 21
515.258488
 31
0.0
 11
233.671638
 21
614.963177
 31
0.0
 11
263.124282
 21
660.461385
 31
0.0
 11
277.015594
 21
671.286665
 31
0.0
  0
SPLINE
  5
13f
100
AcDbEntity
  8
Layer_1
 62
1
100
AcDbSpline
 70
0
 71
3
 72
10
 73
6
 74
4
 40
0.000000
 40
0.000000
 40
0.000000
 40
0.000000
 40
94.931838
 40
156.108965
 40
202.389879
 40
202.389879
 40
202.389879
 40
202.389879
 10
164.441294
 20
634.945612
 30
0.0
 10
166.232284
 20
666.412863
 30
0.0
 10
169.177447
 20
718.158620
 30
0.0
 10
154.458523
 20
787.103476
 30
0.0
 10
128.679585
 20
812.832768
 30
0.0
 10
117.576899
 20
823.914071
 30
0.0
 11
164.441294
 21
634.945612
 31
0.0
 11
164.526748
 21
729.877412
 31
0.0
 11
147.552773
 21
788.652620
 31
0.0
 11
117.576899
 21
823.914071
 31
0.0
  0
SPLINE
  5
140
100
AcDbEntity
  8
Layer_1
 62
1
100
AcDbSpline
 70
0
 71
3
 72
10
 73
6
 74
4
 40
0.000000
 40
0.000000
 40
0.000000
 40
0.000000
 40
151.404437
 40
225.440106
 40
248.858156
 40
248.858156
 40
248.858156
 40
248.858156
 10
272.588259
 20
334.721088
 30
0.0
 10
266.248068
 20
384.522661
 30
0.0
 10
256.807570
 20
458.676842
 30
0.0
 10
274.861177
 20
544.986889
 30
0.0
 10
297.915770
 20
568.249563
 30
0.0
 10
303.455770
 20
573.839564
 30
0.0
 11
272.588259
 21
334.721088
 31
0.0
 11
265.202359
 21
485.945265
 31
0.0
 11
287.758788
 21
556.461135
 31
0.0
 11
303.455770
 21
573.839564
 31
0.0
  0
LINE
  5
141
100
AcDbEntity
  8
Layer_1
 62
7
100
AcDbLine
 10
339.393764
 20
461.855660
 30
0.0
 11
339.393764
 21
461.855660
 31
0.0
  0
SPLINE
  5
142
100
AcDbEntity
  8
Layer_1
 62
7
100
AcDbSpline
 70
0
 71
3
 72
25
 73
21
 74
19
 40
0.000000
 40
0.000000
 40
0.000000
 40
0.000000
 40
1.785669
 40
3.556211
 40
5.362979
 40
7.175355
 40
8.959880
 40
10.761769
 40
12.552361
 40
14.308810
 40
16.088787
 40
17.874455
 40
19.644998
 40
21.451766
 40
23.264142
 40
25.048666
 40
26.850556
 40
28.641148
 40
30.397597
 40
32.177574
 40
32.177574
 40
32.177574
 40
32.177574
 10
339.393764
 20
461.855660
 30
0.0
 10
339.611430
 20
461.294922
 30
0.0
 10
340.044917
 20
460.178197
 30
0.0
 10
341.382732
 20
458.911823
 30
0.0
 10
343.039712
 20
458.146302
 30
0.0
 10
344.872868
 20
457.991612
 30
0.0
 10
346.646491
 20
458.457164
 30
0.0
 10
348.155828
 20
459.490512
 30
0.0
 10
349.213241
 20
460.972367
 30
0.0
 10
349.691492
 20
462.720667
 30
0.0
 10
349.531766
 20
464.525956
 30
0.0
 10
348.749550
 20
466.165518
 30
0.0
 10
347.446924
 20
467.441537
 30
0.0
 10
345.780394
 20
468.204441
 30
0.0
 10
343.949642
 20
468.359789
 30
0.0
 10
342.176018
 20
467.894237
 30
0.0
 10
340.664303
 20
466.860237
 30
0.0
 10
339.616303
 20
465.380962
 30
0.0
 10
339.103297
 20
463.623136
 30
0.0
 10
339.296513
 20
462.447426
 30
0.0
 10
339.393764
 20
461.855660
 30
0.0
 11
339.393764
 21
461.855660
 31
0.0
 11
340.161133
 21
460.243284
 31
0.0
 11
341.424505
 21
459.002836
 31
0.0
 11
343.066678
 21
458.249390
 31
0.0
 11
344.872526
 21
458.095705
 31
0.0
 11
346.598324
 21
458.549741
 31
0.0
 11
348.083972
 21
459.569377
 31
0.0
 11
349.122451
 21
461.028068
 31
0.0
 11
349.584877
 21
462.722552
 31
0.0
 11
349.428352
 21
464.495633
 31
0.0
 11
348.660983
 21
466.108009
 31
0.0
 11
347.397611
 21
467.348457
 31
0.0
 11
345.755438
 21
468.101903
 31
0.0
 11
343.949590
 21
468.255588
 31
0.0
 11
342.223792
 21
467.801553
 31
0.0
 11
340.738144
 21
466.781917
 31
0.0
 11
339.699665
 21
465.323226
 31
0.0
 11
339.237239
 21
463.628742
 31
0.0
 11
339.393764
 21
461.855660
 31
0.0
  0
LINE
  5
143
100
AcDbEntity
  8
Layer_1
 62
7
100
AcDbLine
 10
330.640883
 20
402.793394
 30
0.0
 11
330.640883
 21
402.793394
 31
0.0
  0
SPLINE
  5
144
100
AcDbEntity
  8
Layer_1
 62
7
100
AcDbSpline
 70
0
 71
3
 72
25
 73
21
 74
19
 40
0.000000
 40
0.000000
 40
0.000000
 40
0.000000
 40
1.785669
 40
3.556211
 40
5.362979
 40
7.175355
 40
8.959880
 40
10.761769
 40
12.552361
 40
14.308810
 40
16.088787
 40
17.874455
 40
19.644998
 40
21.451766
 40
23.264142
 40
25.048666
 40
26.850556
 40
28.641148
 40
30.397597
 40
32.177574
 40
32.177574
 40
32.177574
 40
32.177574
 10
330.640883
 20
402.793394
 30
0.0
 10
330.858549
 20
402.232656
 30
0.0
 10
331.292036
 20
401.115930
 30
0.0
 10
332.629851
 20
399.849557
 30
0.0
 10
334.286831
 20
399.084036
 30
0.0
 10
336.119987
 20
398.929346
 30
0.0
 10
337.893610
 20
399.394898
 30
0.0
 10
339.402947
 20
400.428246
 30
0.0
 10
340.460360
 20
401.910101
 30
0.0
 10
340.938611
 20
403.658401
 30
0.0
 10
340.778885
 20
405.463690
 30
0.0
 10
339.996670
 20
407.103252
 30
0.0
 10
338.694043
 20
408.379271
 30
0.0
 10
337.027514
 20
409.142174
 30
0.0
 10
335.196761
 20
409.297523
 30
0.0
 10
333.423137
 20
408.831971
 30
0.0
 10
331.911422
 20
407.797971
 30
0.0
 10
330.863422
 20
406.318696
 30
0.0
 10
330.350416
 20
404.560870
 30
0.0
 10
330.543632
 20
403.385160
 30
0.0
 10
330.640883
 20
402.793394
 30
0.0
 11
330.640883
 21
402.793394
 31
0.0
 11
331.408252
 21
401.181018
 31
0.0
 11
332.671624
 21
399.940570
 31
0.0
 11
334.313797
 21
399.187124
 31
0.0
 11
336.119645
 21
399.033439
 31
0.0
 11
337.845443
 21
399.487475
 31
0.0
 11
339.331091
 21
400.507111
 31
0.0
 11
340.369570
 21
401.965802
 31
0.0
 11
340.831996
 21
403.660286
 31
0.0
 11
340.675471
 21
405.433367
 31
0.0
 11
339.908102
 21
407.045743
 31
0.0
 11
338.644730
 21
408.286191
 31
0.0
 11
337.002557
 21
409.039637
 31
0.0
 11
335.196709
 21
409.193322
 31
0.0
 11
333.470911
 21
408.739286
 31
0.0
 11
331.985263
 21
407.719650
 31
0.0
 11
330.946784
 21
406.260960
 31
0.0
 11
330.484358
 21
404.566476
 31
0.0
 11
330.640883
 21
402.793394
 31
0.0
  0
LINE
  5
145
100
AcDbEntity
  8
Layer_1
 62
7
100
AcDbLine
 10
323.982473
 20
340.982333
 30
0.0
 11
323.982473
 21
340.982333
 31
0.0
  0
SPLINE
  5
146
100
AcDbEntity
  8
Layer_1
 62
7
100
AcDbSpline
 70
0
 71
3
 72
25
 73
21
 74
19
 40
0.000000
 40
0.000000
 40
0.000000
 40
0.000000
 40
1.785669
 40
3.556211
 40
5.362979
 40
7.175355
 40
8.959880
 40
10.761769
 40
12.552361
 40
14.308810
 40
16.088787
 40
17.874455
 40
19.644998
 40
21.451766
 40
23.264142
 40
25.048666
 40
26.850556
 40
28.641148
 40
30.397597
 40
32.177574
 40
32.177574
 40
32.177574
 40
32.177574
 10
323.982473
 20
340.982333
 30
0.0
 10
324.200139
 20
340.421595
 30
0.0
 10
324.633626
 20
339.304869
 30
0.0
 10
325.971441
 20
338.038495
 30
0.0
 10
327.628421
 20
337.272974
 30
0.0
 10
329.461577
 20
337.118285
 30
0.0
 10
331.235200
 20
337.583836
 30
0.0
 10
332.744537
 20
338.617184
 30
0.0
 10
333.801951
 20
340.099040
 30
0.0
 10
334.280201
 20
341.847339
 30
0.0
 10
334.120475
 20
343.652628
 30
0.0
 10
333.338260
 20
345.292191
 30
0.0
 10
332.035633
 20
346.568209
 30
0.0
 10
330.369104
 20
347.331113
 30
0.0
 10
328.538351
 20
347.486461
 30
0.0
 10
326.764727
 20
347.020909
 30
0.0
 10
325.253012
 20
345.986909
 30
0.0
 10
324.205012
 20
344.507634
 30
0.0
 10
323.692006
 20
342.749808
 30
0.0
 10
323.885222
 20
341.574099
 30
0.0
 10
323.982473
 20
340.982333
 30
0.0
 11
323.982473
 21
340.982333
 31
0.0
 11
324.749842
 21
339.369956
 31
0.0
 11
326.013214
 21
338.129508
 31
0.0
 11
327.655387
 21
337.376063
 31
0.0
 11
329.461235
 21
337.222377
 31
0.0
 11
331.187033
 21
337.676413
 31
0.0
 11
332.672681
 21
338.696049
 31
0.0
 11
333.711160
 21
340.154740
 31
0.0
 11
334.173586
 21
341.849224
 31
0.0
 11
334.017061
 21
343.622305
 31
0.0
 11
333.249692
 21
345.234681
 31
0.0
 11
331.986320
 21
346.475130
 31
0.0
 11
330.344147
 21
347.228575
 31
0.0
 11
328.538299
 21
347.382260
 31
0.0
 11
326.812501
 21
346.928225
 31
0.0
 11
325.326853
 21
345.908589
 31
0.0
 11
324.288374
 21
344.449898
 31
0.0
 11
323.825948
 21
342.755414
 31
0.0
 11
323.982473
 21
340.982333
 31
0.0
  0
LINE
  5
147
100
AcDbEntity
  8
Layer_1
 62
7
100
AcDbLine
 10
261.654608
 20
623.561534
 30
0.0
 11
261.654608
 21
623.561534
 31
0.0
  0
SPLINE
  5
148
100
AcDbEntity
  8
Layer_1
 62
7
100
AcDbSpline
 70
0
 71
3
 72
25
 73
21
 74
19
 40
0.000000
 40
0.000000
 40
0.000000
 40
0.000000
 40
1.785669
 40
3.556211
 40
5.362979
 40
7.175355
 40
8.959880
 40
10.761769
 40
12.552361
 40
14.308810
 40
16.088787
 40
17.874455
 40
19.644998
 40
21.451766
 40
23.264142
 40
25.048666
 40
26.850556
 40
28.641148
 40
30.397597
 40
32.177574
 40
32.177574
 40
32.177574
 40
32.177574
 10
261.654608
 20
623.561534
 30
0.0
 10
261.872273
 20
623.000796
 30
0.0
 10
262.305760
 20
621.884070
 30
0.0
 10
263.643576
 20
620.617697
 30
0.0
 10
265.300556
 20
619.852176
 30
0.0
 10
267.133711
 20
619.697486
 30
0.0
 10
268.907334
 20
620.163038
 30
0.0
 10
270.416671
 20
621.196386
 30
0.0
 10
271.474085
 20
622.678241
 30
0.0
 10
271.952336
 20
624.426541
 30
0.0
 10
271.792609
 20
626.231830
 30
0.0
 10
271.010394
 20
627.871392
 30
0.0
 10
269.707767
 20
629.147411
 30
0.0
 10
268.041238
 20
629.910314
 30
0.0
 10
266.210486
 20
630.065663
 30
0.0
 10
264.436861
 20
629.600111
 30
0.0
 10
262.925146
 20
628.566111
 30
0.0
 10
261.877146
 20
627.086836
 30
0.0
 10
261.364140
 20
625.329010
 30
0.0
 10
261.557357
 20
624.153300
 30
0.0
 10
261.654608
 20
623.561534
 30
0.0
 11
261.654608
 21
623.561534
 31
0.0
 11
262.421977
 21
621.949158
 31
0.0
 11
263.685349
 21
620.708710
 31
0.0
 11
265.327522
 21
619.955264
 31
0.0
 11
267.133370
 21
619.801579
 31
0.0
 11
268.859168
 21
620.255615
 31
0.0
 11
270.344815
 21
621.275251
 31
0.0
 11
271.383294
 21
622.733942
 31
0.0
 11
271.845720
 21
624.428425
 31
0.0
 11
271.689195
 21
626.201507
 31
0.0
 11
270.921826
 21
627.813883
 31
0.0
 11
269.658454
 21
629.054331
 31
0.0
 11
268.016281
 21
629.807777
 31
0.0
 11
266.210433
 21
629.961462
 31
0.0
 11
264.484635
 21
629.507426
 31
0.0
 11
262.998987
 21
628.487790
 31
0.0
 11
261.960508
 21
627.029099
 31
0.0
 11
261.498082
 21
625.334616
 31
0.0
 11
261.654608
 21
623.561534
 31
0.0
  0
LINE
  5
149
100
AcDbEntity
  8
Layer_1
 62
7
100
AcDbLine
 10
241.240453
 20
592.451151
 30
0.0
 11
241.240453
 21
592.451151
 31
0.0
  0
SPLINE
  5
14a
100
AcDbEntity
  8
Layer_1
 62
7
100
AcDbSpline
 70
0
 71
3
 72
25
 73
21
 74
19
 40
0.000000
 40
0.000000
 40
0.000000
 40
0.000000
 40
1.785669
 40
3.556211
 40
5.362979
 40
7.175355
 40
8.959880
 40
10.761769
 40
12.552361
 40
14.308810
 40
16.088787
 40
17.874455
 40
19.644998
 40
21.451766
 40
23.264142
 40
25.048666
 40
26.850556
 40
28.641148
 40
30.397597
 40
32.177574
 40
32.177574
 40
32.177574
 40
32.177574
 10
241.240453
 20
592.451151
 30
0.0
 10
241.458118
 20
591.890413
 30
0.0
 10
241.891605
 20
590.773687
 30
0.0
 10
243.229421
 20
589.507314
 30
0.0
 10
244.886401
 20
588.741793
 30
0.0
 10
246.719556
 20
588.587103
 30
0.0
 10
248.493179
 20
589.052655
 30
0.0
 10
250.002516
 20
590.086003
 30
0.0
 10
251.059930
 20
591.567858
 30
0.0
 10
251.538181
 20
593.316158
 30
0.0
 10
251.378454
 20
595.121447
 30
0.0
 10
250.596239
 20
596.761009
 30
0.0
 10
249.293612
 20
598.037028
 30
0.0
 10
247.627083
 20
598.799931
 30
0.0
 10
245.796331
 20
598.955280
 30
0.0
 10
244.022706
 20
598.489728
 30
0.0
 10
242.510991
 20
597.455728
 30
0.0
 10
241.462991
 20
595.976453
 30
0.0
 10
240.949985
 20
594.218627
 30
0.0
 10
241.143202
 20
593.042917
 30
0.0
 10
241.240453
 20
592.451151
 30
0.0
 11
241.240453
 21
592.451151
 31
0.0
 11
242.007822
 21
590.838775
 31
0.0
 11
243.271194
 21
589.598327
 31
0.0
 11
244.913367
 21
588.844881
 31
0.0
 11
246.719215
 21
588.691196
 31
0.0
 11
248.445013
 21
589.145232
 31
0.0
 11
249.930660
 21
590.164868
 31
0.0
 11
250.969139
 21
591.623558
 31
0.0
 11
251.431565
 21
593.318042
 31
0.0
 11
251.275040
 21
595.091124
 31
0.0
 11
250.507671
 21
596.703500
 31
0.0
 11
249.244299
 21
597.943948
 31
0.0
 11
247.602126
 21
598.697394
 31
0.0
 11
245.796278
 21
598.851079
 31
0.0
 11
244.070480
 21
598.397043
 31
0.0
 11
242.584832
 21
597.377407
 31
0.0
 11
241.546353
 21
595.918716
 31
0.0
 11
241.083927
 21
594.224232
 31
0.0
 11
241.240453
 21
592.451151
 31
0.0
  0
LINE
  5
14b
100
AcDbEntity
  8
Layer_1
 62
7
100
AcDbLine
 10
228.946510
 20
556.217130
 30
0.0
 11
228.946510
 21
556.217130
 31
0.0
  0
LINE
  5
14c
100
AcDbEntity
  8
Layer_1
 62
7
100
AcDbLine
 10
207.613725
 20
630.733114
 30
0.0
 11
212.315266
 21
636.645101
 31
0.0
  0
LINE
  5
14d
100
AcDbEntity
  8
Layer_1
 62
7
100
AcDbLine
 10
212.315266
 20
636.645101
 30
0.0
 11
219.677210
 21
634.642261
 31
0.0
  0
LINE
  5
14e
100
AcDbEntity
  8
Layer_1
 62
7
100
AcDbLine
 10
219.677210
 20
634.642261
 30
0.0
 11
215.403569
 21
640.859462
 31
0.0
  0
LINE
  5
14f
100
AcDbEntity
  8
Layer_1
 62
7
100
AcDbLine
 10
215.403569
 20
640.859462
 30
0.0
 11
219.618502
 21
647.115155
 31
0.0
  0
LINE
  5
150
100
AcDbEntity
  8
Layer_1
 62
7
100
AcDbLine
 10
219.618502
 20
647.115155
 30
0.0
 11
212.275695
 21
645.045621
 31
0.0
  0
LINE
  5
151
100
AcDbEntity
  8
Layer_1
 62
7
100
AcDbLine
 10
212.275695
 20
645.045621
 30
0.0
 11
207.518726
 21
650.914690
 31
0.0
  0
LINE
  5
152
100
AcDbEntity
  8
Layer_1
 62
7
100
AcDbLine
 10
207.518726
 20
650.914690
 30
0.0
 11
207.254323
 21
643.418460
 31
0.0
  0
LINE
  5
153
100
AcDbEntity
  8
Layer_1
 62
7
100
AcDbLine
 10
207.254323
 20
643.418460
 30
0.0
 11
200.099391
 21
640.790039
 31
0.0
  0
LINE
  5
154
100
AcDbEntity
  8
Layer_1
 62
7
100
AcDbLine
 10
200.099391
 20
640.790039
 30
0.0
 11
207.278760
 21
638.226658
 31
0.0
  0
LINE
  5
155
100
AcDbEntity
  8
Layer_1
 62
7
100
AcDbLine
 10
207.278760
 20
638.226658
 30
0.0
 11
207.613725
 21
630.733114
 31
0.0
  0
LINE
  5
156
100
AcDbEntity
  8
Layer_1
 62
7
100
AcDbLine
 10
67.545277
 20
990.726212
 30
0.0
 11
72.246752
 21
996.638181
 31
0.0
  0
LINE
  5
157
100
AcDbEntity
  8
Layer_1
 62
7
100
AcDbLine
 10
72.246752
 20
996.638181
 30
0.0
 11
79.608763
 21
994.635359
 31
0.0
  0
LINE
  5
158
100
AcDbEntity
  8
Layer_1
 62
7
100
AcDbLine
 10
79.608763
 20
994.635359
 30
0.0
 11
75.335056
 21
1000.852543
 31
0.0
  0
LINE
  5
159
100
AcDbEntity
  8
Layer_1
 62
7
100
AcDbLine
 10
75.335056
 20
1000.852543
 30
0.0
 11
79.550055
 21
1007.108253
 31
0.0
  0
LINE
  5
15a
100
AcDbEntity
  8
Layer_1
 62
7
100
AcDbLine
 10
79.550055
 20
1007.108253
 30
0.0
 11
72.207247
 21
1005.038719
 31
0.0
  0
LINE
  5
15b
100
AcDbEntity
  8
Layer_1
 62
7
100
AcDbLine
 10
72.207247
 20
1005.038719
 30
0.0
 11
67.450279
 21
1010.907787
 31
0.0
  0
LINE
  5
15c
100
AcDbEntity
  8
Layer_1
 62
7
100
AcDbLine
 10
67.450279
 20
1010.907787
 30
0.0
 11
67.185811
 21
1003.411533
 31
0.0
  0
LINE
  5
15d
100
AcDbEntity
  8
Layer_1
 62
7
100
AcDbLine
 10
67.185811
 20
1003.411533
 30
0.0
 11
60.030877
 21
1000.783119
 31
0.0
  0
LINE
  5
15e
100
AcDbEntity
  8
Layer_1
 62
7
100
AcDbLine
 10
60.030877
 20
1000.783119
 30
0.0
 11
67.210249
 21
998.219732
 31
0.0
  0
LINE
  5
15f
100
AcDbEntity
  8
Layer_1
 62
7
100
AcDbLine
 10
67.210249
 20
998.219732
 30
0.0
 11
67.545277
 21
990.726212
 31
0.0
  0
SPLINE
  5
160
100
AcDbEntity
  8
Layer_1
 62
7
100
AcDbSpline
 70
0
 71
3
 72
25
 73
21
 74
19
 40
0.000000
 40
0.000000
 40
0.000000
 40
0.000000
 40
1.785669
 40
3.556211
 40
5.362979
 40
7.175355
 40
8.959880
 40
10.761769
 40
12.552361
 40
14.308810
 40
16.088787
 40
17.874455
 40
19.644998
 40
21.451766
 40
23.264142
 40
25.048666
 40
26.850556
 40
28.641148
 40
30.397597
 40
32.177574
 40
32.177574
 40
32.177574
 40
32.177574
 10
228.946510
 20
556.217130
 30
0.0
 10
229.164175
 20
555.656392
 30
0.0
 10
229.597662
 20
554.539666
 30
0.0
 10
230.935478
 20
553.273292
 30
0.0
 10
232.592458
 20
552.507771
 30
0.0
 10
234.425613
 20
552.353082
 30
0.0
 10
236.199236
 20
552.818633
 30
0.0
 10
237.708573
 20
553.851982
 30
0.0
 10
238.765987
 20
555.333837
 30
0.0
 10
239.244238
 20
557.082136
 30
0.0
 10
239.084511
 20
558.887425
 30
0.0
 10
238.302296
 20
560.526988
 30
0.0
 10
236.999669
 20
561.803006
 30
0.0
 10
235.333140
 20
562.565910
 30
0.0
 10
233.502388
 20
562.721258
 30
0.0
 10
231.728763
 20
562.255706
 30
0.0
 10
230.217048
 20
561.221706
 30
0.0
 10
229.169048
 20
559.742431
 30
0.0
 10
228.656042
 20
557.984606
 30
0.0
 10
228.849259
 20
556.808896
 30
0.0
 10
228.946510
 20
556.217130
 30
0.0
 11
228.946510
 21
556.217130
 31
0.0
 11
229.713879
 21
554.604753
 31
0.0
 11
230.977250
 21
553.364305
 31
0.0
 11
232.619423
 21
552.610860
 31
0.0
 11
234.425272
 21
552.457175
 31
0.0
 11
236.151070
 21
552.911210
 31
0.0
 11
237.636717
 21
553.930846
 31
0.0
 11
238.675196
 21
555.389537
 31
0.0
 11
239.137622
 21
557.084021
 31
0.0
 11
238.981097
 21
558.857102
 31
0.0
 11
238.213728
 21
560.469479
 31
0.0
 11
236.950356
 21
561.709927
 31
0.0
 11
235.308183
 21
562.463372
 31
0.0
 11
233.502335
 21
562.617057
 31
0.0
 11
231.776537
 21
562.163022
 31
0.0
 11
230.290889
 21
561.143386
 31
0.0
 11
229.252410
 21
559.684695
 31
0.0
 11
228.789984
 21
557.990211
 31
0.0
 11
228.946510
 21
556.217130
 31
0.0
  0
LINE
  5
161
100
AcDbEntity
  8
Layer_1
 62
7
100
AcDbLine
 10
101.891375
 20
893.706639
 30
0.0
 11
101.891375
 21
893.706639
 31
0.0
  0
SPLINE
  5
162
100
AcDbEntity
  8
Layer_1
 62
7
100
AcDbSpline
 70
0
 71
3
 72
25
 73
21
 74
19
 40
0.000000
 40
0.000000
 40
0.000000
 40
0.000000
 40
1.785669
 40
3.556211
 40
5.362979
 40
7.175355
 40
8.959880
 40
10.761769
 40
12.552361
 40
14.308810
 40
16.088787
 40
17.874455
 40
19.644998
 40
21.451766
 40
23.264142
 40
25.048666
 40
26.850556
 40
28.641148
 40
30.397597
 40
32.177574
 40
32.177574
 40
32.177574
 40
32.177574
 10
101.891375
 20
893.706639
 30
0.0
 10
102.109040
 20
893.145901
 30
0.0
 10
102.542527
 20
892.029175
 30
0.0
 10
103.880343
 20
890.762802
 30
0.0
 10
105.537323
 20
889.997281
 30
0.0
 10
107.370478
 20
889.842591
 30
0.0
 10
109.144101
 20
890.308143
 30
0.0
 10
110.653438
 20
891.341491
 30
0.0
 10
111.710852
 20
892.823346
 30
0.0
 10
112.189103
 20
894.571646
 30
0.0
 10
112.029376
 20
896.376935
 30
0.0
 10
111.247161
 20
898.016497
 30
0.0
 10
109.944534
 20
899.292516
 30
0.0
 10
108.278005
 20
900.055419
 30
0.0
 10
106.447253
 20
900.210768
 30
0.0
 10
104.673628
 20
899.745216
 30
0.0
 10
103.161913
 20
898.711216
 30
0.0
 10
102.113913
 20
897.231941
 30
0.0
 10
101.600907
 20
895.474115
 30
0.0
 10
101.794124
 20
894.298405
 30
0.0
 10
101.891375
 20
893.706639
 30
0.0
 11
101.891375
 21
893.706639
 31
0.0
 11
102.658744
 21
892.094263
 31
0.0
 11
103.922116
 21
890.853815
 31
0.0
 11
105.564289
 21
890.100369
 31
0.0
 11
107.370137
 21
889.946684
 31
0.0
 11
109.095935
 21
890.400720
 31
0.0
 11
110.581582
 21
891.420356
 31
0.0
 11
111.620061
 21
892.879047
 31
0.0
 11
112.082488
 21
894.573530
 31
0.0
 11
111.925962
 21
896.346612
 31
0.0
 11
111.158593
 21
897.958988
 31
0.0
 11
109.895221
 21
899.199436
 31
0.0
 11
108.253048
 21
899.952882
 31
0.0
 11
106.447200
 21
900.106567
 31
0.0
 11
104.721402
 21
899.652531
 31
0.0
 11
103.235755
 21
898.632895
 31
0.0
 11
102.197276
 21
897.174204
 31
0.0
 11
101.734849
 21
895.479721
 31
0.0
 11
101.891375
 21
893.706639
 31
0.0
  0
LINE
  5
163
100
AcDbEntity
  8
Layer_1
 62
7
100
AcDbLine
 10
71.490122
 20
958.307721
 30
0.0
 11
71.490122
 21
958.307721
 31
0.0
  0
SPLINE
  5
164
100
AcDbEntity
  8
Layer_1
 62
7
100
AcDbSpline
 70
0
 71
3
 72
25
 73
21
 74
19
 40
0.000000
 40
0.000000
 40
0.000000
 40
0.000000
 40
1.785669
 40
3.556211
 40
5.362979
 40
7.175355
 40
8.959880
 40
10.761769
 40
12.552361
 40
14.308810
 40
16.088787
 40
17.874455
 40
19.644998
 40
21.451766
 40
23.264142
 40
25.048666
 40
26.850556
 40
28.641148
 40
30.397597
 40
32.177574
 40
32.177574
 40
32.177574
 40
32.177574
 10
71.490122
 20
958.307721
 30
0.0
 10
71.707788
 20
957.746983
 30
0.0
 10
72.141275
 20
956.630257
 30
0.0
 10
73.479090
 20
955.363884
 30
0.0
 10
75.136070
 20
954.598363
 30
0.0
 10
76.969226
 20
954.443673
 30
0.0
 10
78.742849
 20
954.909225
 30
0.0
 10
80.252186
 20
955.942573
 30
0.0
 10
81.309599
 20
957.424428
 30
0.0
 10
81.787850
 20
959.172728
 30
0.0
 10
81.628124
 20
960.978017
 30
0.0
 10
80.845909
 20
962.617579
 30
0.0
 10
79.543282
 20
963.893598
 30
0.0
 10
77.876753
 20
964.656501
 30
0.0
 10
76.046000
 20
964.811850
 30
0.0
 10
74.272376
 20
964.346298
 30
0.0
 10
72.760661
 20
963.312298
 30
0.0
 10
71.712661
 20
961.833023
 30
0.0
 10
71.199655
 20
960.075197
 30
0.0
 10
71.392871
 20
958.899487
 30
0.0
 10
71.490122
 20
958.307721
 30
0.0
 11
71.490122
 21
958.307721
 31
0.0
 11
72.257491
 21
956.695345
 31
0.0
 11
73.520863
 21
955.454897
 31
0.0
 11
75.163036
 21
954.701451
 31
0.0
 11
76.968884
 21
954.547766
 31
0.0
 11
78.694682
 21
955.001802
 31
0.0
 11
80.180330
 21
956.021438
 31
0.0
 11
81.218809
 21
957.480129
 31
0.0
 11
81.681235
 21
959.174612
 31
0.0
 11
81.524710
 21
960.947694
 31
0.0
 11
80.757341
 21
962.560070
 31
0.0
 11
79.493969
 21
963.800518
 31
0.0
 11
77.851796
 21
964.553964
 31
0.0
 11
76.045948
 21
964.707649
 31
0.0
 11
74.320150
 21
964.253613
 31
0.0
 11
72.834502
 21
963.233977
 31
0.0
 11
71.796023
 21
961.775286
 31
0.0
 11
71.333597
 21
960.080803
 31
0.0
 11
71.490122
 21
958.307721
 31
0.0
  0
LINE
  5
165
100
AcDbEntity
  8
Layer_1
 62
7
100
AcDbLine
 10
129.934459
 20
773.705742
 30
0.0
 11
129.934459
 21
773.705742
 31
0.0
  0
SPLINE
  5
166
100
AcDbEntity
  8
Layer_1
 62
7
100
AcDbSpline
 70
0
 71
3
 72
25
 73
21
 74
19
 40
0.000000
 40
0.000000
 40
0.000000
 40
0.000000
 40
1.785669
 40
3.556211
 40
5.362979
 40
7.175355
 40
8.959880
 40
10.761769
 40
12.552361
 40
14.308810
 40
16.088787
 40
17.874455
 40
19.644998
 40
21.451766
 40
23.264142
 40
25.048666
 40
26.850556
 40
28.641148
 40
30.397597
 40
32.177574
 40
32.177574
 40
32.177574
 40
32.177574
 10
129.934459
 20
773.705742
 30
0.0
 10
130.152124
 20
773.145004
 30
0.0
 10
130.585612
 20
772.028278
 30
0.0
 10
131.923427
 20
770.761905
 30
0.0
 10
133.580407
 20
769.996384
 30
0.0
 10
135.413562
 20
769.841694
 30
0.0
 10
137.187185
 20
770.307245
 30
0.0
 10
138.696522
 20
771.340594
 30
0.0
 10
139.753936
 20
772.822449
 30
0.0
 10
140.232187
 20
774.570749
 30
0.0
 10
140.072460
 20
776.376038
 30
0.0
 10
139.290245
 20
778.015600
 30
0.0
 10
137.987618
 20
779.291619
 30
0.0
 10
136.321089
 20
780.054522
 30
0.0
 10
134.490337
 20
780.209871
 30
0.0
 10
132.716712
 20
779.744319
 30
0.0
 10
131.204997
 20
778.710319
 30
0.0
 10
130.156997
 20
777.231044
 30
0.0
 10
129.643991
 20
775.473218
 30
0.0
 10
129.837208
 20
774.297508
 30
0.0
 10
129.934459
 20
773.705742
 30
0.0
 11
129.934459
 21
773.705742
 31
0.0
 11
130.701828
 21
772.093366
 31
0.0
 11
131.965200
 21
770.852918
 31
0.0
 11
133.607373
 21
770.099472
 31
0.0
 11
135.413221
 21
769.945787
 31
0.0
 11
137.139019
 21
770.399822
 31
0.0
 11
138.624666
 21
771.419458
 31
0.0
 11
139.663145
 21
772.878149
 31
0.0
 11
140.125572
 21
774.572633
 31
0.0
 11
139.969046
 21
776.345715
 31
0.0
 11
139.201677
 21
777.958091
 31
0.0
 11
137.938305
 21
779.198539
 31
0.0
 11
136.296132
 21
779.951985
 31
0.0
 11
134.490284
 21
780.105670
 31
0.0
 11
132.764486
 21
779.651634
 31
0.0
 11
131.278839
 21
778.631998
 31
0.0
 11
130.240360
 21
777.173307
 31
0.0
 11
129.777933
 21
775.478823
 31
0.0
 11
129.934459
 21
773.705742
 31
0.0
  0
LINE
  5
167
100
AcDbEntity
  8
Layer_1
 62
7
100
AcDbLine
 10
142.402854
 20
735.406450
 30
0.0
 11
142.402854
 21
735.406450
 31
0.0
  0
SPLINE
  5
168
100
AcDbEntity
  8
Layer_1
 62
7
100
AcDbSpline
 70
0
 71
3
 72
25
 73
21
 74
19
 40
0.000000
 40
0.000000
 40
0.000000
 40
0.000000
 40
1.785669
 40
3.556211
 40
5.362979
 40
7.175355
 40
8.959880
 40
10.761769
 40
12.552361
 40
14.308810
 40
16.088787
 40
17.874455
 40
19.644998
 40
21.451766
 40
23.264142
 40
25.048666
 40
26.850556
 40
28.641148
 40
30.397597
 40
32.177574
 40
32.177574
 40
32.177574
 40
32.177574
 10
142.402854
 20
735.406450
 30
0.0
 10
142.620519
 20
734.845712
 30
0.0
 10
143.054006
 20
733.728986
 30
0.0
 10
144.391822
 20
732.462613
 30
0.0
 10
146.048802
 20
731.697092
 30
0.0
 10
147.881957
 20
731.542402
 30
0.0
 10
149.655580
 20
732.007953
 30
0.0
 10
151.164917
 20
733.041302
 30
0.0
 10
152.222331
 20
734.523157
 30
0.0
 10
152.700582
 20
736.271457
 30
0.0
 10
152.540855
 20
738.076746
 30
0.0
 10
151.758640
 20
739.716308
 30
0.0
 10
150.456013
 20
740.992327
 30
0.0
 10
148.789484
 20
741.755230
 30
0.0
 10
146.958732
 20
741.910579
 30
0.0
 10
145.185107
 20
741.445027
 30
0.0
 10
143.673392
 20
740.411027
 30
0.0
 10
142.625392
 20
738.931752
 30
0.0
 10
142.112386
 20
737.173926
 30
0.0
 10
142.305603
 20
735.998216
 30
0.0
 10
142.402854
 20
735.406450
 30
0.0
 11
142.402854
 21
735.406450
 31
0.0
 11
143.170223
 21
733.794074
 31
0.0
 11
144.433594
 21
732.553626
 31
0.0
 11
146.075767
 21
731.800180
 31
0.0
 11
147.881616
 21
731.646495
 31
0.0
 11
149.607414
 21
732.100530
 31
0.0
 11
151.093061
 21
733.120166
 31
0.0
 11
152.131540
 21
734.578857
 31
0.0
 11
152.593966
 21
736.273341
 31
0.0
 11
152.437441
 21
738.046423
 31
0.0
 11
151.670072
 21
739.658799
 31
0.0
 11
150.406700
 21
740.899247
 31
0.0
 11
148.764527
 21
741.652693
 31
0.0
 11
146.958679
 21
741.806378
 31
0.0
 11
145.232881
 21
741.352342
 31
0.0
 11
143.747233
 21
740.332706
 31
0.0
 11
142.708754
 21
738.874015
 31
0.0
 11
142.246328
 21
737.179531
 31
0.0
 11
142.402854
 21
735.406450
 31
0.0
  0
LINE
  5
169
100
AcDbEntity
  8
Layer_1
 62
7
100
AcDbLine
 10
148.140606
 20
694.676447
 30
0.0
 11
148.140606
 21
694.676447
 31
0.0
  0
SPLINE
  5
16a
100
AcDbEntity
  8
Layer_1
 62
7
100
AcDbSpline
 70
0
 71
3
 72
25
 73
21
 74
19
 40
0.000000
 40
0.000000
 40
0.000000
 40
0.000000
 40
1.785669
 40
3.556211
 40
5.362979
 40
7.175355
 40
8.959880
 40
10.761769
 40
12.552361
 40
14.308810
 40
16.088787
 40
17.874455
 40
19.644998
 40
21.451766
 40
23.264142
 40
25.048666
 40
26.850556
 40
28.641148
 40
30.397597
 40
32.177574
 40
32.177574
 40
32.177574
 40
32.177574
 10
148.140606
 20
694.676447
 30
0.0
 10
148.358272
 20
694.115709
 30
0.0
 10
148.791759
 20
692.998983
 30
0.0
 10
150.129574
 20
691.732609
 30
0.0
 10
151.786554
 20
690.967088
 30
0.0
 10
153.619710
 20
690.812399
 30
0.0
 10
155.393333
 20
691.277950
 30
0.0
 10
156.902670
 20
692.311298
 30
0.0
 10
157.960084
 20
693.793154
 30
0.0
 10
158.438334
 20
695.541453
 30
0.0
 10
158.278608
 20
697.346742
 30
0.0
 10
157.496393
 20
698.986305
 30
0.0
 10
156.193766
 20
700.262323
 30
0.0
 10
154.527237
 20
701.025227
 30
0.0
 10
152.696484
 20
701.180575
 30
0.0
 10
150.922860
 20
700.715023
 30
0.0
 10
149.411145
 20
699.681023
 30
0.0
 10
148.363145
 20
698.201748
 30
0.0
 10
147.850139
 20
696.443922
 30
0.0
 10
148.043356
 20
695.268213
 30
0.0
 10
148.140606
 20
694.676447
 30
0.0
 11
148.140606
 21
694.676447
 31
0.0
 11
148.907976
 21
693.064070
 31
0.0
 11
150.171347
 21
691.823622
 31
0.0
 11
151.813520
 21
691.070177
 31
0.0
 11
153.619368
 21
690.916491
 31
0.0
 11
155.345166
 21
691.370527
 31
0.0
 11
156.830814
 21
692.390163
 31
0.0
 11
157.869293
 21
693.848854
 31
0.0
 11
158.331719
 21
695.543338
 31
0.0
 11
158.175194
 21
697.316419
 31
0.0
 11
157.407825
 21
698.928795
 31
0.0
 11
156.144453
 21
700.169244
 31
0.0
 11
154.502280
 21
700.922689
 31
0.0
 11
152.696432
 21
701.076374
 31
0.0
 11
150.970634
 21
700.622339
 31
0.0
 11
149.484986
 21
699.602703
 31
0.0
 11
148.446507
 21
698.144012
 31
0.0
 11
147.984081
 21
696.449528
 31
0.0
 11
148.140606
 21
694.676447
 31
0.0
  0
LINE
  5
16b
100
AcDbEntity
  8
Layer_1
 62
7
100
AcDbLine
 10
127.783159
 20
387.043775
 30
0.0
 11
127.783159
 21
387.043775
 31
0.0
  0
SPLINE
  5
16c
100
AcDbEntity
  8
Layer_1
 62
7
100
AcDbSpline
 70
0
 71
3
 72
25
 73
21
 74
19
 40
0.000000
 40
0.000000
 40
0.000000
 40
0.000000
 40
4.672439
 40
9.283118
 40
13.983420
 40
18.713381
 40
23.397757
 40
28.155243
 40
32.898010
 40
37.545684
 40
42.233063
 40
46.905503
 40
51.516181
 40
56.216484
 40
60.946444
 40
65.630820
 40
70.388307
 40
75.131073
 40
79.778747
 40
84.466127
 40
84.466127
 40
84.466127
 40
84.466127
 10
127.783159
 20
387.043775
 30
0.0
 10
128.038443
 20
385.490389
 30
0.0
 10
128.545636
 20
382.404151
 30
0.0
 10
127.198996
 20
377.789859
 30
0.0
 10
124.447995
 20
373.906762
 30
0.0
 10
120.479745
 20
371.192512
 30
0.0
 10
115.823980
 20
369.970439
 30
0.0
 10
111.018256
 20
370.378228
 30
0.0
 10
106.643617
 20
372.380849
 30
0.0
 10
103.224222
 20
375.730398
 30
0.0
 10
101.170907
 20
380.034249
 30
0.0
 10
100.751625
 20
384.773133
 30
0.0
 10
102.007033
 20
389.362419
 30
0.0
 10
104.782743
 20
393.252288
 30
0.0
 10
108.744754
 20
395.964828
 30
0.0
 10
113.400513
 20
397.186900
 30
0.0
 10
118.212546
 20
396.780840
 30
0.0
 10
122.562119
 20
394.771348
 30
0.0
 10
126.073883
 20
391.447117
 30
0.0
 10
127.211787
 20
388.515712
 30
0.0
 10
127.783159
 20
387.043775
 30
0.0
 11
127.783159
 21
387.043775
 31
0.0
 11
128.194038
 21
382.389437
 31
0.0
 11
126.980170
 21
377.941417
 31
0.0
 11
124.254163
 21
374.112353
 31
0.0
 11
120.354338
 21
371.435809
 31
0.0
 11
115.824118
 21
370.243966
 31
0.0
 11
111.083767
 21
370.647389
 31
0.0
 11
106.773063
 21
372.625183
 31
0.0
 11
103.456712
 21
375.881360
 31
0.0
 11
101.442368
 21
380.113847
 31
0.0
 11
101.031490
 21
384.768186
 31
0.0
 11
102.245358
 21
389.216205
 31
0.0
 11
104.971365
 21
393.045269
 31
0.0
 11
108.871190
 21
395.721813
 31
0.0
 11
113.401410
 21
396.913657
 31
0.0
 11
118.141761
 21
396.510233
 31
0.0
 11
122.452465
 21
394.532439
 31
0.0
 11
125.768816
 21
391.276262
 31
0.0
 11
127.783159
 21
387.043775
 31
0.0
  0
LINE
  5
16d
100
AcDbEntity
  8
Layer_1
 62
7
100
AcDbLine
 10
164.275921
 20
334.605275
 30
0.0
 11
164.275921
 21
334.605275
 31
0.0
  0
SPLINE
  5
16e
100
AcDbEntity
  8
Layer_1
 62
7
100
AcDbSpline
 70
0
 71
3
 72
25
 73
21
 74
19
 40
0.000000
 40
0.000000
 40
0.000000
 40
0.000000
 40
4.672439
 40
9.283118
 40
13.983420
 40
18.713381
 40
23.397757
 40
28.155243
 40
32.898010
 40
37.545684
 40
42.233063
 40
46.905503
 40
51.516181
 40
56.216484
 40
60.946444
 40
65.630820
 40
70.388307
 40
75.131073
 40
79.778747
 40
84.466127
 40
84.466127
 40
84.466127
 40
84.466127
 10
164.275921
 20
334.605275
 30
0.0
 10
164.531205
 20
333.051889
 30
0.0
 10
165.038398
 20
329.965651
 30
0.0
 10
163.691758
 20
325.351359
 30
0.0
 10
160.940757
 20
321.468262
 30
0.0
 10
156.972506
 20
318.754012
 30
0.0
 10
152.316742
 20
317.531938
 30
0.0
 10
147.511018
 20
317.939728
 30
0.0
 10
143.136379
 20
319.942349
 30
0.0
 10
139.716984
 20
323.291898
 30
0.0
 10
137.663669
 20
327.595749
 30
0.0
 10
137.244387
 20
332.334633
 30
0.0
 10
138.499795
 20
336.923919
 30
0.0
 10
141.275505
 20
340.813788
 30
0.0
 10
145.237515
 20
343.526328
 30
0.0
 10
149.893275
 20
344.748400
 30
0.0
 10
154.705308
 20
344.342340
 30
0.0
 10
159.054880
 20
342.332847
 30
0.0
 10
162.566645
 20
339.008617
 30
0.0
 10
163.704549
 20
336.077212
 30
0.0
 10
164.275921
 20
334.605275
 30
0.0
 11
164.275921
 21
334.605275
 31
0.0
 11
164.686800
 21
329.950936
 31
0.0
 11
163.472932
 21
325.502916
 31
0.0
 11
160.746924
 21
321.673853
 31
0.0
 11
156.847100
 21
318.997309
 31
0.0
 11
152.316880
 21
317.805465
 31
0.0
 11
147.576529
 21
318.208889
 31
0.0
 11
143.265825
 21
320.186683
 31
0.0
 11
139.949474
 21
323.442860
 31
0.0
 11
137.935130
 21
327.675347
 31
0.0
 11
137.524251
 21
332.329685
 31
0.0
 11
138.738120
 21
336.777705
 31
0.0
 11
141.464127
 21
340.606769
 31
0.0
 11
145.363952
 21
343.283313
 31
0.0
 11
149.894172
 21
344.475156
 31
0.0
 11
154.634523
 21
344.071733
 31
0.0
 11
158.945227
 21
342.093938
 31
0.0
 11
162.261577
 21
338.837762
 31
0.0
 11
164.275921
 21
334.605275
 31
0.0
  0
LINE
  5
16f
100
AcDbEntity
  8
Layer_1
 62
7
100
AcDbLine
 10
198.104076
 20
272.225823
 30
0.0
 11
198.104076
 21
272.225823
 31
0.0
  0
SPLINE
  5
170
100
AcDbEntity
  8
Layer_1
 62
7
100
AcDbSpline
 70
0
 71
3
 72
25
 73
21
 74
19
 40
0.000000
 40
0.000000
 40
0.000000
 40
0.000000
 40
4.672439
 40
9.283118
 40
13.983420
 40
18.713381
 40
23.397757
 40
28.155243
 40
32.898010
 40
37.545684
 40
42.233063
 40
46.905503
 40
51.516181
 40
56.216484
 40
60.946444
 40
65.630820
 40
70.388307
 40
75.131073
 40
79.778747
 40
84.466127
 40
84.466127
 40
84.466127
 40
84.466127
 10
198.104076
 20
272.225823
 30
0.0
 10
198.359360
 20
270.672437
 30
0.0
 10
198.866552
 20
267.586199
 30
0.0
 10
197.519913
 20
262.971906
 30
0.0
 10
194.768912
 20
259.088810
 30
0.0
 10
190.800661
 20
256.374560
 30
0.0
 10
186.144897
 20
255.152486
 30
0.0
 10
181.339172
 20
255.560275
 30
0.0
 10
176.964533
 20
257.562897
 30
0.0
 10
173.545138
 20
260.912446
 30
0.0
 10
171.491824
 20
265.216297
 30
0.0
 10
171.072541
 20
269.955181
 30
0.0
 10
172.327950
 20
274.544466
 30
0.0
 10
175.103660
 20
278.434336
 30
0.0
 10
179.065670
 20
281.146875
 30
0.0
 10
183.721430
 20
282.368948
 30
0.0
 10
188.533463
 20
281.962888
 30
0.0
 10
192.883035
 20
279.953395
 30
0.0
 10
196.394800
 20
276.629165
 30
0.0
 10
197.532704
 20
273.697760
 30
0.0
 10
198.104076
 20
272.225823
 30
0.0
 11
198.104076
 21
272.225823
 31
0.0
 11
198.514955
 21
267.571484
 31
0.0
 11
197.301086
 21
263.123464
 31
0.0
 11
194.575079
 21
259.294401
 31
0.0
 11
190.675254
 21
256.617856
 31
0.0
 11
186.145035
 21
255.426013
 31
0.0
 11
181.404684
 21
255.829437
 31
0.0
 11
177.093980
 21
257.807231
 31
0.0
 11
173.777629
 21
261.063407
 31
0.0
 11
171.763285
 21
265.295895
 31
0.0
 11
171.352406
 21
269.950233
 31
0.0
 11
172.566275
 21
274.398253
 31
0.0
 11
175.292282
 21
278.227317
 31
0.0
 11
179.192107
 21
280.903861
 31
0.0
 11
183.722326
 21
282.095704
 31
0.0
 11
188.462677
 21
281.692281
 31
0.0
 11
192.773381
 21
279.714486
 31
0.0
 11
196.089732
 21
276.458310
 31
0.0
 11
198.104076
 21
272.225823
 31
0.0
  0
LINE
  5
171
100
AcDbEntity
  8
Layer_1
 62
7
100
AcDbLine
 10
77.537787
 20
433.224279
 30
0.0
 11
77.537787
 21
433.224279
 31
0.0
  0
LINE
  5
172
100
AcDbEntity
  8
Layer_1
 62
7
100
AcDbLine
 10
72.156227
 20
627.826423
 30
0.0
 11
62.844810
 21
632.954479
 31
0.0
  0
LINE
  5
173
100
AcDbEntity
  8
Layer_1
 62
7
100
AcDbLine
 10
62.844810
 20
632.954479
 30
0.0
 11
54.456604
 21
626.469890
 31
0.0
  0
LINE
  5
174
100
AcDbEntity
  8
Layer_1
 62
7
100
AcDbLine
 10
54.456604
 20
626.469890
 30
0.0
 11
56.546421
 21
636.749549
 31
0.0
  0
LINE
  5
175
100
AcDbEntity
  8
Layer_1
 62
7
100
AcDbLine
 10
56.546421
 20
636.749549
 30
0.0
 11
47.673145
 21
642.578601
 31
0.0
  0
LINE
  5
176
100
AcDbEntity
  8
Layer_1
 62
7
100
AcDbLine
 10
47.673145
 20
642.578601
 30
0.0
 11
58.276139
 21
643.803727
 31
0.0
  0
LINE
  5
177
100
AcDbEntity
  8
Layer_1
 62
7
100
AcDbLine
 10
58.276139
 20
643.803727
 30
0.0
 11
61.180359
 21
653.890861
 31
0.0
  0
LINE
  5
178
100
AcDbEntity
  8
Layer_1
 62
7
100
AcDbLine
 10
61.180359
 20
653.890861
 30
0.0
 11
65.643550
 21
644.368373
 31
0.0
  0
LINE
  5
179
100
AcDbEntity
  8
Layer_1
 62
7
100
AcDbLine
 10
65.643550
 20
644.368373
 30
0.0
 11
76.311728
 21
644.773514
 31
0.0
  0
LINE
  5
17a
100
AcDbEntity
  8
Layer_1
 62
7
100
AcDbLine
 10
76.311728
 20
644.773514
 30
0.0
 11
68.467149
 21
637.663171
 31
0.0
  0
LINE
  5
17b
100
AcDbEntity
  8
Layer_1
 62
7
100
AcDbLine
 10
68.467149
 20
637.663171
 30
0.0
 11
72.156227
 21
627.826423
 31
0.0
  0
LINE
  5
17c
100
AcDbEntity
  8
Layer_1
 62
7
100
AcDbLine
 10
56.705534
 20
697.949976
 30
0.0
 11
49.623272
 21
700.761794
 31
0.0
  0
LINE
  5
17d
100
AcDbEntity
  8
Layer_1
 62
7
100
AcDbLine
 10
49.623272
 20
700.761794
 30
0.0
 11
44.267533
 21
695.413100
 31
0.0
  0
LINE
  5
17e
100
AcDbEntity
  8
Layer_1
 62
7
100
AcDbLine
 10
44.267533
 20
695.413100
 30
0.0
 11
44.802613
 21
702.895415
 31
0.0
  0
LINE
  5
17f
100
AcDbEntity
  8
Layer_1
 62
7
100
AcDbLine
 10
44.802613
 20
702.895415
 30
0.0
 11
37.966681
 21
706.243758
 31
0.0
  0
LINE
  5
180
100
AcDbEntity
  8
Layer_1
 62
7
100
AcDbLine
 10
37.966681
 20
706.243758
 30
0.0
 11
45.379628
 21
708.056276
 31
0.0
  0
LINE
  5
181
100
AcDbEntity
  8
Layer_1
 62
7
100
AcDbLine
 10
45.379628
 20
708.056276
 30
0.0
 11
46.510525
 21
715.474367
 31
0.0
  0
LINE
  5
182
100
AcDbEntity
  8
Layer_1
 62
7
100
AcDbLine
 10
46.510525
 20
715.474367
 30
0.0
 11
50.556908
 21
709.112243
 31
0.0
  0
LINE
  5
183
100
AcDbEntity
  8
Layer_1
 62
7
100
AcDbLine
 10
50.556908
 20
709.112243
 30
0.0
 11
58.091776
 21
710.348529
 31
0.0
  0
LINE
  5
184
100
AcDbEntity
  8
Layer_1
 62
7
100
AcDbLine
 10
58.091776
 20
710.348529
 30
0.0
 11
53.179624
 21
704.604015
 31
0.0
  0
LINE
  5
185
100
AcDbEntity
  8
Layer_1
 62
7
100
AcDbLine
 10
53.179624
 20
704.604015
 30
0.0
 11
56.705534
 21
697.949976
 31
0.0
  0
LINE
  5
186
100
AcDbEntity
  8
Layer_1
 62
7
100
AcDbLine
 10
46.264887
 20
761.389885
 30
0.0
 11
39.182626
 21
764.201703
 31
0.0
  0
LINE
  5
187
100
AcDbEntity
  8
Layer_1
 62
7
100
AcDbLine
 10
39.182626
 20
764.201703
 30
0.0
 11
33.826888
 21
758.853002
 31
0.0
  0
LINE
  5
188
100
AcDbEntity
  8
Layer_1
 62
7
100
AcDbLine
 10
33.826888
 20
758.853002
 30
0.0
 11
34.361968
 21
766.335317
 31
0.0
  0
LINE
  5
189
100
AcDbEntity
  8
Layer_1
 62
7
100
AcDbLine
 10
34.361968
 20
766.335317
 30
0.0
 11
27.526034
 21
769.683667
 31
0.0
  0
LINE
  5
18a
100
AcDbEntity
  8
Layer_1
 62
7
100
AcDbLine
 10
27.526034
 20
769.683667
 30
0.0
 11
34.938988
 21
771.496187
 31
0.0
  0
LINE
  5
18b
100
AcDbEntity
  8
Layer_1
 62
7
100
AcDbLine
 10
34.938988
 20
771.496187
 30
0.0
 11
36.069886
 21
778.914278
 31
0.0
  0
LINE
  5
18c
100
AcDbEntity
  8
Layer_1
 62
7
100
AcDbLine
 10
36.069886
 20
778.914278
 30
0.0
 11
40.116268
 21
772.552154
 31
0.0
  0
LINE
  5
18d
100
AcDbEntity
  8
Layer_1
 62
7
100
AcDbLine
 10
40.116268
 20
772.552154
 30
0.0
 11
47.651136
 21
773.788440
 31
0.0
  0
LINE
  5
18e
100
AcDbEntity
  8
Layer_1
 62
7
100
AcDbLine
 10
47.651136
 20
773.788440
 30
0.0
 11
42.738977
 21
768.043924
 31
0.0
  0
LINE
  5
18f
100
AcDbEntity
  8
Layer_1
 62
7
100
AcDbLine
 10
42.738977
 20
768.043924
 30
0.0
 11
46.264887
 21
761.389885
 31
0.0
  0
LINE
  5
190
100
AcDbEntity
  8
Layer_1
 62
7
100
AcDbLine
 10
45.036991
 20
842.246028
 30
0.0
 11
37.954730
 21
845.057846
 31
0.0
  0
LINE
  5
191
100
AcDbEntity
  8
Layer_1
 62
7
100
AcDbLine
 10
37.954730
 20
845.057846
 30
0.0
 11
32.598992
 21
839.709145
 31
0.0
  0
LINE
  5
192
100
AcDbEntity
  8
Layer_1
 62
7
100
AcDbLine
 10
32.598992
 20
839.709145
 30
0.0
 11
33.134072
 21
847.191460
 31
0.0
  0
LINE
  5
193
100
AcDbEntity
  8
Layer_1
 62
7
100
AcDbLine
 10
33.134072
 20
847.191460
 30
0.0
 11
26.298138
 21
850.539809
 31
0.0
  0
LINE
  5
194
100
AcDbEntity
  8
Layer_1
 62
7
100
AcDbLine
 10
26.298138
 20
850.539809
 30
0.0
 11
33.711092
 21
852.352329
 31
0.0
  0
LINE
  5
195
100
AcDbEntity
  8
Layer_1
 62
7
100
AcDbLine
 10
33.711092
 20
852.352329
 30
0.0
 11
34.841989
 21
859.770420
 31
0.0
  0
LINE
  5
196
100
AcDbEntity
  8
Layer_1
 62
7
100
AcDbLine
 10
34.841989
 20
859.770420
 30
0.0
 11
38.888372
 21
853.408296
 31
0.0
  0
LINE
  5
197
100
AcDbEntity
  8
Layer_1
 62
7
100
AcDbLine
 10
38.888372
 20
853.408296
 30
0.0
 11
46.423240
 21
854.644583
 31
0.0
  0
LINE
  5
198
100
AcDbEntity
  8
Layer_1
 62
7
100
AcDbLine
 10
46.423240
 20
854.644583
 30
0.0
 11
41.511081
 21
848.900067
 31
0.0
  0
LINE
  5
199
100
AcDbEntity
  8
Layer_1
 62
7
100
AcDbLine
 10
41.511081
 20
848.900067
 30
0.0
 11
45.036991
 21
842.246028
 31
0.0
  0
LINE
  5
19a
100
AcDbEntity
  8
Layer_1
 62
7
100
AcDbLine
 10
45.993834
 20
915.097027
 30
0.0
 11
38.911559
 21
917.908841
 31
0.0
  0
LINE
  5
19b
100
AcDbEntity
  8
Layer_1
 62
7
100
AcDbLine
 10
38.911559
 20
917.908841
 30
0.0
 11
33.555820
 21
912.560147
 31
0.0
  0
LINE
  5
19c
100
AcDbEntity
  8
Layer_1
 62
7
100
AcDbLine
 10
33.555820
 20
912.560147
 30
0.0
 11
34.090889
 21
920.042452
 31
0.0
  0
LINE
  5
19d
100
AcDbEntity
  8
Layer_1
 62
7
100
AcDbLine
 10
34.090889
 20
920.042452
 30
0.0
 11
27.254961
 21
923.390803
 31
0.0
  0
LINE
  5
19e
100
AcDbEntity
  8
Layer_1
 62
7
100
AcDbLine
 10
27.254961
 20
923.390803
 30
0.0
 11
34.667948
 21
925.203332
 31
0.0
  0
LINE
  5
19f
100
AcDbEntity
  8
Layer_1
 62
7
100
AcDbLine
 10
34.667948
 20
925.203332
 30
0.0
 11
35.798839
 21
932.621421
 31
0.0
  0
LINE
  5
1a0
100
AcDbEntity
  8
Layer_1
 62
7
100
AcDbLine
 10
35.798839
 20
932.621421
 30
0.0
 11
39.845201
 21
926.259292
 31
0.0
  0
LINE
  5
1a1
100
AcDbEntity
  8
Layer_1
 62
7
100
AcDbLine
 10
39.845201
 20
926.259292
 30
0.0
 11
47.380049
 21
927.495573
 31
0.0
  0
LINE
  5
1a2
100
AcDbEntity
  8
Layer_1
 62
7
100
AcDbLine
 10
47.380049
 20
927.495573
 30
0.0
 11
42.467911
 21
921.751063
 31
0.0
  0
LINE
  5
1a3
100
AcDbEntity
  8
Layer_1
 62
7
100
AcDbLine
 10
42.467911
 20
921.751063
 30
0.0
 11
45.993834
 21
915.097027
 31
0.0
  0
SPLINE
  5
1a4
100
AcDbEntity
  8
Layer_1
 62
7
100
AcDbSpline
 70
0
 71
3
 72
25
 73
21
 74
19
 40
0.000000
 40
0.000000
 40
0.000000
 40
0.000000
 40
4.672439
 40
9.283118
 40
13.983420
 40
18.713381
 40
23.397757
 40
28.155243
 40
32.898010
 40
37.545684
 40
42.233063
 40
46.905503
 40
51.516181
 40
56.216484
 40
60.946444
 40
65.630820
 40
70.388307
 40
75.131073
 40
79.778747
 40
84.466127
 40
84.466127
 40
84.466127
 40
84.466127
 10
77.537787
 20
433.224279
 30
0.0
 10
77.793071
 20
431.670893
 30
0.0
 10
78.300264
 20
428.584655
 30
0.0
 10
76.953624
 20
423.970362
 30
0.0
 10
74.202623
 20
420.087266
 30
0.0
 10
70.234372
 20
417.373016
 30
0.0
 10
65.578608
 20
416.150942
 30
0.0
 10
60.772884
 20
416.558731
 30
0.0
 10
56.398244
 20
418.561353
 30
0.0
 10
52.978850
 20
421.910902
 30
0.0
 10
50.925535
 20
426.214753
 30
0.0
 10
50.506252
 20
430.953636
 30
0.0
 10
51.761661
 20
435.542922
 30
0.0
 10
54.537371
 20
439.432792
 30
0.0
 10
58.499381
 20
442.145331
 30
0.0
 10
63.155141
 20
443.367404
 30
0.0
 10
67.967174
 20
442.961343
 30
0.0
 10
72.316746
 20
440.951851
 30
0.0
 10
75.828511
 20
437.627621
 30
0.0
 10
76.966415
 20
434.696216
 30
0.0
 10
77.537787
 20
433.224279
 30
0.0
 11
77.537787
 21
433.224279
 31
0.0
 11
77.948666
 21
428.569940
 31
0.0
 11
76.734798
 21
424.121920
 31
0.0
 11
74.008790
 21
420.292857
 31
0.0
 11
70.108965
 21
417.616312
 31
0.0
 11
65.578746
 21
416.424469
 31
0.0
 11
60.838395
 21
416.827893
 31
0.0
 11
56.527691
 21
418.805687
 31
0.0
 11
53.211340
 21
422.061863
 31
0.0
 11
51.196996
 21
426.294351
 31
0.0
 11
50.786117
 21
430.948689
 31
0.0
 11
51.999986
 21
435.396709
 31
0.0
 11
54.725993
 21
439.225772
 31
0.0
 11
58.625818
 21
441.902317
 31
0.0
 11
63.156038
 21
443.094160
 31
0.0
 11
67.896389
 21
442.690736
 31
0.0
 11
72.207093
 21
440.712942
 31
0.0
 11
75.523443
 21
437.456766
 31
0.0
 11
77.537787
 21
433.224279
 31
0.0
  0
SPLINE
  5
1a5
100
AcDbEntity
  8
Layer_1
 62
1
100
AcDbSpline
 70
0
 71
3
 72
10
 73
6
 74
4
 40
0.000000
 40
0.000000
 40
0.000000
 40
0.000000
 40
198.689409
 40
302.479080
 40
336.673239
 40
336.673239
 40
336.673239
 40
336.673239
 10
239.962235
 20
207.919997
 30
0.0
 10
214.510218
 20
269.028157
 30
0.0
 10
175.762794
 20
362.057472
 30
0.0
 10
97.058297
 20
449.448225
 30
0.0
 10
53.763149
 20
465.696823
 30
0.0
 10
43.034058
 20
469.723433
 30
0.0
 11
239.962235
 21
207.919997
 31
0.0
 11
149.814649
 21
384.981834
 31
0.0
 11
74.543445
 21
456.441904
 31
0.0
 11
43.034058
 21
469.723433
 31
0.0
  0
SPLINE
  5
1a6
100
AcDbEntity
  8
Layer_1
 62
1
100
AcDbSpline
 70
0
 71
3
 72
10
 73
6
 74
4
 40
0.000000
 40
0.000000
 40
0.000000
 40
0.000000
 40
198.668699
 40
292.809097
 40
323.497631
 40
323.497631
 40
323.497631
 40
323.497631
 10
219.871856
 20
288.504642
 30
0.0
 10
200.881219
 20
351.529393
 30
0.0
 10
172.891751
 20
444.418813
 30
0.0
 10
98.416870
 20
534.672624
 30
0.0
 10
57.212071
 20
543.329793
 30
0.0
 10
47.082088
 20
545.458112
 30
0.0
 11
219.871856
 21
288.504642
 31
0.0
 11
144.752711
 21
472.424098
 31
0.0
 11
76.718536
 21
537.491490
 31
0.0
 11
47.082088
 21
545.458112
 31
0.0
  0
SPLINE
  5
1a7
100
AcDbEntity
  8
Layer_1
 62
1
100
AcDbSpline
 70
0
 71
3
 72
10
 73
6
 74
4
 40
0.000000
 40
0.000000
 40
0.000000
 40
0.000000
 40
197.502227
 40
250.717197
 40
278.688774
 40
278.688774
 40
278.688774
 40
278.688774
 10
173.987385
 20
470.574237
 30
0.0
 10
168.413492
 20
537.290605
 30
0.0
 10
161.337770
 20
621.983022
 30
0.0
 10
58.534403
 20
688.605142
 30
0.0
 10
41.999213
 20
663.333555
 30
0.0
 10
36.302267
 20
654.626618
 30
0.0
 11
173.987385
 21
470.574237
 31
0.0
 11
104.265014
 21
655.360386
 31
0.0
 11
54.985294
 21
675.443767
 31
0.0
 11
36.302267
 21
654.626618
 31
0.0
  0
SPLINE
  5
1a8
100
AcDbEntity
  8
Layer_1
 62
1
100
AcDbSpline
 70
0
 71
3
 72
10
 73
6
 74
4
 40
0.000000
 40
0.000000
 40
0.000000
 40
0.000000
 40
96.309378
 40
175.546497
 40
210.290374
 40
210.290374
 40
210.290374
 40
210.290374
 10
101.240015
 20
660.510441
 30
0.0
 10
86.037019
 20
689.380339
 30
0.0
 10
58.325982
 20
742.002518
 30
0.0
 10
59.604840
 20
814.316250
 30
0.0
 10
66.664566
 20
851.567250
 30
0.0
 10
68.816523
 20
862.922161
 30
0.0
 11
101.240015
 21
660.510441
 31
0.0
 11
64.293114
 21
749.450998
 31
0.0
 11
62.952208
 21
828.676771
 31
0.0
 11
68.816523
 21
862.922161
 31
0.0
  0
SPLINE
  5
1a9
100
AcDbEntity
  8
Layer_1
 62
1
100
AcDbSpline
 70
0
 71
3
 72
10
 73
6
 74
4
 40
0.000000
 40
0.000000
 40
0.000000
 40
0.000000
 40
104.036725
 40
158.731831
 40
176.459858
 40
176.459858
 40
176.459858
 40
176.459858
 10
165.224673
 20
504.270665
 30
0.0
 10
142.326245
 20
530.269671
 30
0.0
 10
107.389453
 20
569.937103
 30
0.0
 10
55.131112
 20
601.744737
 30
0.0
 10
31.025308
 20
604.373788
 30
0.0
 10
25.124591
 20
605.017338
 30
0.0
 11
165.224673
 21
504.270665
 31
0.0
 11
91.343734
 21
577.518511
 31
0.0
 11
42.667487
 21
602.461999
 31
0.0
 11
25.124591
 21
605.017338
 31
0.0
  0
SPLINE
  5
1aa
100
AcDbEntity
  8
Layer_1
 62
1
100
AcDbSpline
 70
0
 71
3
 72
10
 73
6
 74
4
 40
0.000000
 40
0.000000
 40
0.000000
 40
0.000000
 40
95.374799
 40
156.535424
 40
202.490991
 40
202.490991
 40
202.490991
 40
202.490991
 10
141.123115
 20
628.810895
 30
0.0
 10
123.570574
 20
655.152040
 30
0.0
 10
94.762183
 20
698.384867
 30
0.0
 10
72.272785
 20
765.279314
 30
0.0
 10
81.513896
 20
800.401218
 30
0.0
 10
85.478567
 20
815.469407
 30
0.0
 11
141.123115
 21
628.810895
 31
0.0
 11
92.706037
 21
710.982294
 31
0.0
 11
77.475242
 21
770.216111
 31
0.0
 11
85.478567
 21
815.469407
 31
0.0
  0
SPLINE
  5
1ab
100
AcDbEntity
  8
Layer_1
 62
1
100
AcDbSpline
 70
0
 71
3
 72
10
 73
6
 74
4
 40
0.000000
 40
0.000000
 40
0.000000
 40
0.000000
 40
151.988970
 40
226.645028
 40
250.259825
 40
250.259825
 40
250.259825
 40
250.259825
 10
200.351440
 20
315.716497
 30
0.0
 10
180.422580
 20
362.022446
 30
0.0
 10
150.704786
 20
431.073597
 30
0.0
 10
91.307903
 20
496.692819
 30
0.0
 10
59.495349
 20
505.523435
 30
0.0
 10
51.850691
 20
507.645460
 30
0.0
 11
200.351440
 21
315.716497
 31
0.0
 11
129.738413
 21
450.306420
 31
0.0
 11
74.294469
 21
500.301380
 31
0.0
 11
51.850691
 21
507.645460
 31
0.0
  0
LINE
  5
1ac
100
AcDbEntity
  8
Layer_1
 62
7
100
AcDbLine
 10
77.754136
 20
393.021593
 30
0.0
 11
77.754136
 21
393.021593
 31
0.0
  0
SPLINE
  5
1ad
100
AcDbEntity
  8
Layer_1
 62
7
100
AcDbSpline
 70
0
 71
3
 72
25
 73
21
 74
19
 40
0.000000
 40
0.000000
 40
0.000000
 40
0.000000
 40
1.779977
 40
3.536426
 40
5.327018
 40
7.128907
 40
8.913432
 40
10.725807
 40
12.532576
 40
14.303118
 40
16.088787
 40
17.868764
 40
19.625213
 40
21.415804
 40
23.217694
 40
25.002218
 40
26.814594
 40
28.621363
 40
30.391905
 40
32.177574
 40
32.177574
 40
32.177574
 40
32.177574
 10
77.754136
 20
393.021593
 30
0.0
 10
77.851386
 20
392.429827
 30
0.0
 10
78.044603
 20
391.254117
 30
0.0
 10
77.531597
 20
389.496292
 30
0.0
 10
76.483597
 20
388.017017
 30
0.0
 10
74.971882
 20
386.983017
 30
0.0
 10
73.198258
 20
386.517465
 30
0.0
 10
71.367505
 20
386.672813
 30
0.0
 10
69.700976
 20
387.435717
 30
0.0
 10
68.398349
 20
388.711735
 30
0.0
 10
67.616134
 20
390.351297
 30
0.0
 10
67.456407
 20
392.156587
 30
0.0
 10
67.934658
 20
393.904886
 30
0.0
 10
68.992072
 20
395.386741
 30
0.0
 10
70.501409
 20
396.420090
 30
0.0
 10
72.275032
 20
396.885641
 30
0.0
 10
74.108188
 20
396.730951
 30
0.0
 10
75.765167
 20
395.965431
 30
0.0
 10
77.102983
 20
394.699057
 30
0.0
 10
77.536470
 20
393.582331
 30
0.0
 10
77.754136
 20
393.021593
 30
0.0
 11
77.754136
 21
393.021593
 31
0.0
 11
77.910661
 21
391.248512
 31
0.0
 11
77.448235
 21
389.554028
 31
0.0
 11
76.409756
 21
388.095337
 31
0.0
 11
74.924108
 21
387.075701
 31
0.0
 11
73.198310
 21
386.621665
 31
0.0
 11
71.392462
 21
386.775351
 31
0.0
 11
69.750289
 21
387.528796
 31
0.0
 11
68.486917
 21
388.769244
 31
0.0
 11
67.719548
 21
390.381621
 31
0.0
 11
67.563023
 21
392.154702
 31
0.0
 11
68.025449
 21
393.849186
 31
0.0
 11
69.063928
 21
395.307877
 31
0.0
 11
70.549576
 21
396.327513
 31
0.0
 11
72.275374
 21
396.781548
 31
0.0
 11
74.081222
 21
396.627863
 31
0.0
 11
75.723395
 21
395.874418
 31
0.0
 11
76.986766
 21
394.633969
 31
0.0
 11
77.754136
 21
393.021593
 31
0.0
  0
LINE
  5
1ae
100
AcDbEntity
  8
Layer_1
 62
7
100
AcDbLine
 10
115.411196
 20
346.169194
 30
0.0
 11
115.411196
 21
346.169194
 31
0.0
  0
SPLINE
  5
1af
100
AcDbEntity
  8
Layer_1
 62
7
100
AcDbSpline
 70
0
 71
3
 72
22
 73
18
 74
16
 40
0.000000
 40
0.000000
 40
0.000000
 40
0.000000
 40
1.779977
 40
3.536426
 40
5.327018
 40
7.128907
 40
8.913432
 40
10.725807
 40
12.532576
 40
14.303118
 40
16.088787
 40
18.755387
 40
21.354933
 40
24.058476
 40
26.774354
 40
29.397809
 40
32.076916
 40
32.076916
 40
32.076916
 40
32.076916
 10
115.411196
 20
346.169194
 30
0.0
 10
115.508447
 20
345.577428
 30
0.0
 10
115.701664
 20
344.401718
 30
0.0
 10
115.188658
 20
342.643893
 30
0.0
 10
114.140657
 20
341.164616
 30
0.0
 10
112.628945
 20
340.130622
 30
0.0
 10
110.855312
 20
339.665049
 30
0.0
 10
109.024589
 20
339.820475
 30
0.0
 10
107.357954
 20
340.583091
 30
0.0
 10
106.055714
 20
341.860166
 30
0.0
 10
105.141844
 20
343.767533
 30
0.0
 10
105.143978
 20
346.241179
 30
0.0
 10
106.557528
 20
348.630213
 30
0.0
 10
108.997154
 20
350.012202
 30
0.0
 10
111.778736
 20
349.999212
 30
0.0
 10
114.288894
 20
348.651513
 30
0.0
 10
115.034487
 20
347.002403
 30
0.0
 10
115.411196
 20
346.169194
 30
0.0
 11
115.411196
 21
346.169194
 31
0.0
 11
115.567722
 21
344.396113
 31
0.0
 11
115.105296
 21
342.701629
 31
0.0
 11
114.066817
 21
341.242938
 31
0.0
 11
112.581169
 21
340.223302
 31
0.0
 11
110.855371
 21
339.769266
 31
0.0
 11
109.049523
 21
339.922952
 31
0.0
 11
107.407350
 21
340.676397
 31
0.0
 11
106.143978
 21
341.916845
 31
0.0
 11
105.376609
 21
343.529221
 31
0.0
 11
105.383083
 21
346.195814
 31
0.0
 11
106.700746
 21
348.436663
 31
0.0
 11
109.049523
 21
349.775463
 31
0.0
 11
111.765394
 21
349.769107
 31
0.0
 11
114.047654
 21
348.475353
 31
0.0
 11
115.411196
 21
346.169194
 31
0.0
  0
LINE
  5
1b0
100
AcDbEntity
  8
Layer_1
 62
7
100
AcDbLine
 10
152.654196
 20
295.908036
 30
0.0
 11
152.654196
 21
295.908036
 31
0.0
  0
SPLINE
  5
1b1
100
AcDbEntity
  8
Layer_1
 62
7
100
AcDbSpline
 70
0
 71
3
 72
22
 73
18
 74
16
 40
0.000000
 40
0.000000
 40
0.000000
 40
0.000000
 40
1.779977
 40
3.536426
 40
5.327018
 40
7.128907
 40
8.913432
 40
10.725807
 40
12.532576
 40
14.303118
 40
16.088787
 40
18.755387
 40
21.354933
 40
24.058476
 40
26.774354
 40
29.397809
 40
32.076916
 40
32.076916
 40
32.076916
 40
32.076916
 10
152.654196
 20
295.908036
 30
0.0
 10
152.751446
 20
295.316270
 30
0.0
 10
152.944663
 20
294.140560
 30
0.0
 10
152.431657
 20
292.382735
 30
0.0
 10
151.383656
 20
290.903458
 30
0.0
 10
149.871944
 20
289.869464
 30
0.0
 10
148.098312
 20
289.403891
 30
0.0
 10
146.267588
 20
289.559317
 30
0.0
 10
144.600953
 20
290.321933
 30
0.0
 10
143.298713
 20
291.599008
 30
0.0
 10
142.384843
 20
293.506375
 30
0.0
 10
142.386977
 20
295.980021
 30
0.0
 10
143.800527
 20
298.369055
 30
0.0
 10
146.240153
 20
299.751044
 30
0.0
 10
149.021735
 20
299.738054
 30
0.0
 10
151.531894
 20
298.390355
 30
0.0
 10
152.277486
 20
296.741245
 30
0.0
 10
152.654196
 20
295.908036
 30
0.0
 11
152.654196
 21
295.908036
 31
0.0
 11
152.810721
 21
294.134955
 31
0.0
 11
152.348295
 21
292.440471
 31
0.0
 11
151.309816
 21
290.981780
 31
0.0
 11
149.824168
 21
289.962144
 31
0.0
 11
148.098370
 21
289.508108
 31
0.0
 11
146.292522
 21
289.661794
 31
0.0
 11
144.650349
 21
290.415239
 31
0.0
 11
143.386977
 21
291.655687
 31
0.0
 11
142.619608
 21
293.268063
 31
0.0
 11
142.626082
 21
295.934656
 31
0.0
 11
143.943745
 21
298.175505
 31
0.0
 11
146.292522
 21
299.514305
 31
0.0
 11
149.008393
 21
299.507949
 31
0.0
 11
151.290653
 21
298.214195
 31
0.0
 11
152.654196
 21
295.908036
 31
0.0
  0
LINE
  5
1b2
100
AcDbEntity
  8
Layer_1
 62
7
100
AcDbLine
 10
62.731116
 20
571.227287
 30
0.0
 11
62.731116
 21
571.227287
 31
0.0
  0
SPLINE
  5
1b3
100
AcDbEntity
  8
Layer_1
 62
7
100
AcDbSpline
 70
0
 71
3
 72
25
 73
21
 74
19
 40
0.000000
 40
0.000000
 40
0.000000
 40
0.000000
 40
1.779977
 40
3.536426
 40
5.327018
 40
7.128907
 40
8.913432
 40
10.725807
 40
12.532576
 40
14.303118
 40
16.088787
 40
17.868764
 40
19.625213
 40
21.415804
 40
23.217694
 40
25.002218
 40
26.814594
 40
28.621363
 40
30.391905
 40
32.177574
 40
32.177574
 40
32.177574
 40
32.177574
 10
62.731116
 20
571.227287
 30
0.0
 10
62.828367
 20
570.635521
 30
0.0
 10
63.021584
 20
569.459811
 30
0.0
 10
62.508578
 20
567.701986
 30
0.0
 10
61.460578
 20
566.222711
 30
0.0
 10
59.948863
 20
565.188711
 30
0.0
 10
58.175238
 20
564.723159
 30
0.0
 10
56.344486
 20
564.878507
 30
0.0
 10
54.677957
 20
565.641411
 30
0.0
 10
53.375330
 20
566.917429
 30
0.0
 10
52.593115
 20
568.556992
 30
0.0
 10
52.433388
 20
570.362281
 30
0.0
 10
52.911639
 20
572.110580
 30
0.0
 10
53.969053
 20
573.592435
 30
0.0
 10
55.478390
 20
574.625784
 30
0.0
 10
57.252013
 20
575.091335
 30
0.0
 10
59.085168
 20
574.936646
 30
0.0
 10
60.742148
 20
574.171125
 30
0.0
 10
62.079964
 20
572.904751
 30
0.0
 10
62.513451
 20
571.788025
 30
0.0
 10
62.731116
 20
571.227287
 30
0.0
 11
62.731116
 21
571.227287
 31
0.0
 11
62.887642
 21
569.454206
 31
0.0
 11
62.425216
 21
567.759722
 31
0.0
 11
61.386737
 21
566.301031
 31
0.0
 11
59.901089
 21
565.281395
 31
0.0
 11
58.175291
 21
564.827360
 31
0.0
 11
56.369443
 21
564.981045
 31
0.0
 11
54.727270
 21
565.734490
 31
0.0
 11
53.463898
 21
566.974938
 31
0.0
 11
52.696529
 21
568.587315
 31
0.0
 11
52.540004
 21
570.360396
 31
0.0
 11
53.002430
 21
572.054880
 31
0.0
 11
54.040909
 21
573.513571
 31
0.0
 11
55.526556
 21
574.533207
 31
0.0
 11
57.252354
 21
574.987242
 31
0.0
 11
59.058203
 21
574.833557
 31
0.0
 11
60.700376
 21
574.080112
 31
0.0
 11
61.963747
 21
572.839663
 31
0.0
 11
62.731116
 21
571.227287
 31
0.0
  0
LINE
  5
1b4
100
AcDbEntity
  8
Layer_1
 62
7
100
AcDbLine
 10
96.252933
 20
554.306774
 30
0.0
 11
96.252933
 21
554.306774
 31
0.0
  0
SPLINE
  5
1b5
100
AcDbEntity
  8
Layer_1
 62
7
100
AcDbSpline
 70
0
 71
3
 72
22
 73
18
 74
16
 40
0.000000
 40
0.000000
 40
0.000000
 40
0.000000
 40
1.779977
 40
3.536426
 40
5.327018
 40
7.128907
 40
8.913432
 40
10.725807
 40
12.532576
 40
14.303118
 40
16.088787
 40
18.755387
 40
21.354933
 40
24.058476
 40
26.774354
 40
29.397809
 40
32.076916
 40
32.076916
 40
32.076916
 40
32.076916
 10
96.252933
 20
554.306774
 30
0.0
 10
96.350183
 20
553.715008
 30
0.0
 10
96.543400
 20
552.539298
 30
0.0
 10
96.030394
 20
550.781473
 30
0.0
 10
94.982393
 20
549.302196
 30
0.0
 10
93.470681
 20
548.268202
 30
0.0
 10
91.697049
 20
547.802629
 30
0.0
 10
89.866325
 20
547.958055
 30
0.0
 10
88.199690
 20
548.720670
 30
0.0
 10
86.897450
 20
549.997746
 30
0.0
 10
85.983580
 20
551.905113
 30
0.0
 10
85.985714
 20
554.378759
 30
0.0
 10
87.399264
 20
556.767792
 30
0.0
 10
89.838890
 20
558.149781
 30
0.0
 10
92.620472
 20
558.136792
 30
0.0
 10
95.130631
 20
556.789093
 30
0.0
 10
95.876223
 20
555.139983
 30
0.0
 10
96.252933
 20
554.306774
 30
0.0
 11
96.252933
 21
554.306774
 31
0.0
 11
96.409458
 21
552.533692
 31
0.0
 11
95.947032
 21
550.839209
 31
0.0
 11
94.908553
 21
549.380518
 31
0.0
 11
93.422905
 21
548.360882
 31
0.0
 11
91.697107
 21
547.906846
 31
0.0
 11
89.891259
 21
548.060531
 31
0.0
 11
88.249086
 21
548.813977
 31
0.0
 11
86.985714
 21
550.054425
 31
0.0
 11
86.218345
 21
551.666801
 31
0.0
 11
86.224819
 21
554.333394
 31
0.0
 11
87.542482
 21
556.574243
 31
0.0
 11
89.891259
 21
557.913043
 31
0.0
 11
92.607130
 21
557.906687
 31
0.0
 11
94.889391
 21
556.612933
 31
0.0
 11
96.252933
 21
554.306774
 31
0.0
  0
LINE
  5
1b6
100
AcDbEntity
  8
Layer_1
 62
7
100
AcDbLine
 10
125.351627
 20
528.962630
 30
0.0
 11
125.351627
 21
528.962630
 31
0.0
  0
LINE
  5
1b7
100
AcDbEntity
  8
Layer_1
 62
7
100
AcDbLine
 10
105.879812
 20
603.968212
 30
0.0
 11
98.797551
 21
606.780030
 31
0.0
  0
LINE
  5
1b8
100
AcDbEntity
  8
Layer_1
 62
7
100
AcDbLine
 10
98.797551
 20
606.780030
 30
0.0
 11
93.441813
 21
601.431330
 31
0.0
  0
LINE
  5
1b9
100
AcDbEntity
  8
Layer_1
 62
7
100
AcDbLine
 10
93.441813
 20
601.431330
 30
0.0
 11
93.976893
 21
608.913644
 31
0.0
  0
LINE
  5
1ba
100
AcDbEntity
  8
Layer_1
 62
7
100
AcDbLine
 10
93.976893
 20
608.913644
 30
0.0
 11
87.140959
 21
612.261994
 31
0.0
  0
LINE
  5
1bb
100
AcDbEntity
  8
Layer_1
 62
7
100
AcDbLine
 10
87.140959
 20
612.261994
 30
0.0
 11
94.553913
 21
614.074514
 31
0.0
  0
LINE
  5
1bc
100
AcDbEntity
  8
Layer_1
 62
7
100
AcDbLine
 10
94.553913
 20
614.074514
 30
0.0
 11
95.684810
 21
621.492605
 31
0.0
  0
LINE
  5
1bd
100
AcDbEntity
  8
Layer_1
 62
7
100
AcDbLine
 10
95.684810
 20
621.492605
 30
0.0
 11
99.731191
 21
615.130488
 31
0.0
  0
LINE
  5
1be
100
AcDbEntity
  8
Layer_1
 62
7
100
AcDbLine
 10
99.731191
 20
615.130488
 30
0.0
 11
107.266061
 21
616.366767
 31
0.0
  0
LINE
  5
1bf
100
AcDbEntity
  8
Layer_1
 62
7
100
AcDbLine
 10
107.266061
 20
616.366767
 30
0.0
 11
102.353900
 21
610.622258
 31
0.0
  0
LINE
  5
1c0
100
AcDbEntity
  8
Layer_1
 62
7
100
AcDbLine
 10
102.353900
 20
610.622258
 30
0.0
 11
105.879812
 21
603.968212
 31
0.0
  0
LINE
  5
1c1
100
AcDbEntity
  8
Layer_1
 62
7
100
AcDbLine
 10
43.859837
 20
984.494873
 30
0.0
 11
36.777562
 21
987.306688
 31
0.0
  0
LINE
  5
1c2
100
AcDbEntity
  8
Layer_1
 62
7
100
AcDbLine
 10
36.777562
 20
987.306688
 30
0.0
 11
31.421858
 21
981.957996
 31
0.0
  0
LINE
  5
1c3
100
AcDbEntity
  8
Layer_1
 62
7
100
AcDbLine
 10
31.421858
 20
981.957996
 30
0.0
 11
31.956892
 21
989.440298
 31
0.0
  0
LINE
  5
1c4
100
AcDbEntity
  8
Layer_1
 62
7
100
AcDbLine
 10
31.956892
 20
989.440298
 30
0.0
 11
25.120938
 21
992.788642
 31
0.0
  0
LINE
  5
1c5
100
AcDbEntity
  8
Layer_1
 62
7
100
AcDbLine
 10
25.120938
 20
992.788642
 30
0.0
 11
32.533951
 21
994.601178
 31
0.0
  0
LINE
  5
1c6
100
AcDbEntity
  8
Layer_1
 62
7
100
AcDbLine
 10
32.533951
 20
994.601178
 30
0.0
 11
33.664842
 21
1002.019267
 31
0.0
  0
LINE
  5
1c7
100
AcDbEntity
  8
Layer_1
 62
7
100
AcDbLine
 10
33.664842
 20
1002.019267
 30
0.0
 11
37.711204
 21
995.657138
 31
0.0
  0
LINE
  5
1c8
100
AcDbEntity
  8
Layer_1
 62
7
100
AcDbLine
 10
37.711204
 20
995.657138
 30
0.0
 11
45.246052
 21
996.893419
 31
0.0
  0
LINE
  5
1c9
100
AcDbEntity
  8
Layer_1
 62
7
100
AcDbLine
 10
45.246052
 20
996.893419
 30
0.0
 11
40.333914
 21
991.148909
 31
0.0
  0
LINE
  5
1ca
100
AcDbEntity
  8
Layer_1
 62
7
100
AcDbLine
 10
40.333914
 20
991.148909
 30
0.0
 11
43.859837
 21
984.494873
 31
0.0
  0
SPLINE
  5
1cb
100
AcDbEntity
  8
Layer_1
 62
7
100
AcDbSpline
 70
0
 71
3
 72
22
 73
18
 74
16
 40
0.000000
 40
0.000000
 40
0.000000
 40
0.000000
 40
1.779977
 40
3.536426
 40
5.327018
 40
7.128907
 40
8.913432
 40
10.725807
 40
12.532576
 40
14.303118
 40
16.088787
 40
18.755387
 40
21.354933
 40
24.058476
 40
26.774354
 40
29.397809
 40
32.076916
 40
32.076916
 40
32.076916
 40
32.076916
 10
125.351627
 20
528.962630
 30
0.0
 10
125.448878
 20
528.370864
 30
0.0
 10
125.642094
 20
527.195154
 30
0.0
 10
125.129089
 20
525.437329
 30
0.0
 10
124.081088
 20
523.958052
 30
0.0
 10
122.569375
 20
522.924058
 30
0.0
 10
120.795743
 20
522.458486
 30
0.0
 10
118.965019
 20
522.613912
 30
0.0
 10
117.298385
 20
523.376527
 30
0.0
 10
115.996144
 20
524.653603
 30
0.0
 10
115.082274
 20
526.560969
 30
0.0
 10
115.084409
 20
529.034615
 30
0.0
 10
116.497958
 20
531.423649
 30
0.0
 10
118.937585
 20
532.805638
 30
0.0
 10
121.719166
 20
532.792648
 30
0.0
 10
124.229325
 20
531.444949
 30
0.0
 10
124.974918
 20
529.795839
 30
0.0
 10
125.351627
 20
528.962630
 30
0.0
 11
125.351627
 21
528.962630
 31
0.0
 11
125.508152
 21
527.189549
 31
0.0
 11
125.045726
 21
525.495065
 31
0.0
 11
124.007247
 21
524.036374
 31
0.0
 11
122.521599
 21
523.016738
 31
0.0
 11
120.795801
 21
522.562703
 31
0.0
 11
118.989953
 21
522.716388
 31
0.0
 11
117.347780
 21
523.469833
 31
0.0
 11
116.084409
 21
524.710281
 31
0.0
 11
115.317039
 21
526.322658
 31
0.0
 11
115.323513
 21
528.989250
 31
0.0
 11
116.641177
 21
531.230099
 31
0.0
 11
118.989954
 21
532.568900
 31
0.0
 11
121.705825
 21
532.562544
 31
0.0
 11
123.988085
 21
531.268789
 31
0.0
 11
125.351627
 21
528.962630
 31
0.0
  0
LINE
  5
1cc
100
AcDbEntity
  8
Layer_1
 62
7
100
AcDbLine
 10
63.521428
 20
883.611993
 30
0.0
 11
63.521428
 21
883.611993
 31
0.0
  0
SPLINE
  5
1cd
100
AcDbEntity
  8
Layer_1
 62
7
100
AcDbSpline
 70
0
 71
3
 72
25
 73
21
 74
19
 40
0.000000
 40
0.000000
 40
0.000000
 40
0.000000
 40
1.779977
 40
3.536426
 40
5.327018
 40
7.128907
 40
8.913432
 40
10.725807
 40
12.532576
 40
14.303118
 40
16.088787
 40
17.868764
 40
19.625213
 40
21.415804
 40
23.217694
 40
25.002218
 40
26.814594
 40
28.621363
 40
30.391905
 40
32.177574
 40
32.177574
 40
32.177574
 40
32.177574
 10
63.521428
 20
883.611993
 30
0.0
 10
63.618679
 20
883.020227
 30
0.0
 10
63.811895
 20
881.844517
 30
0.0
 10
63.298889
 20
880.086691
 30
0.0
 10
62.250889
 20
878.607416
 30
0.0
 10
60.739174
 20
877.573416
 30
0.0
 10
58.965550
 20
877.107864
 30
0.0
 10
57.134797
 20
877.263213
 30
0.0
 10
55.468268
 20
878.026116
 30
0.0
 10
54.165641
 20
879.302135
 30
0.0
 10
53.383426
 20
880.941697
 30
0.0
 10
53.223700
 20
882.746986
 30
0.0
 10
53.701951
 20
884.495286
 30
0.0
 10
54.759364
 20
885.977141
 30
0.0
 10
56.268701
 20
887.010489
 30
0.0
 10
58.042324
 20
887.476041
 30
0.0
 10
59.875480
 20
887.321351
 30
0.0
 10
61.532460
 20
886.555830
 30
0.0
 10
62.870275
 20
885.289457
 30
0.0
 10
63.303762
 20
884.172731
 30
0.0
 10
63.521428
 20
883.611993
 30
0.0
 11
63.521428
 21
883.611993
 31
0.0
 11
63.677953
 21
881.838911
 31
0.0
 11
63.215527
 21
880.144428
 31
0.0
 11
62.177048
 21
878.685737
 31
0.0
 11
60.691400
 21
877.666101
 31
0.0
 11
58.965602
 21
877.212065
 31
0.0
 11
57.159754
 21
877.365750
 31
0.0
 11
55.517581
 21
878.119196
 31
0.0
 11
54.254209
 21
879.359644
 31
0.0
 11
53.486840
 21
880.972020
 31
0.0
 11
53.330315
 21
882.745102
 31
0.0
 11
53.792741
 21
884.439585
 31
0.0
 11
54.831220
 21
885.898276
 31
0.0
 11
56.316868
 21
886.917912
 31
0.0
 11
58.042666
 21
887.371948
 31
0.0
 11
59.848514
 21
887.218263
 31
0.0
 11
61.490687
 21
886.464817
 31
0.0
 11
62.754059
 21
885.224369
 31
0.0
 11
63.521428
 21
883.611993
 31
0.0
  0
LINE
  5
1ce
100
AcDbEntity
  8
Layer_1
 62
7
100
AcDbLine
 10
56.952228
 20
954.482986
 30
0.0
 11
56.952228
 21
954.482986
 31
0.0
  0
SPLINE
  5
1cf
100
AcDbEntity
  8
Layer_1
 62
7
100
AcDbSpline
 70
0
 71
3
 72
25
 73
21
 74
19
 40
0.000000
 40
0.000000
 40
0.000000
 40
0.000000
 40
1.779977
 40
3.536426
 40
5.327018
 40
7.128907
 40
8.913432
 40
10.725807
 40
12.532576
 40
14.303118
 40
16.088787
 40
17.868764
 40
19.625213
 40
21.415804
 40
23.217694
 40
25.002218
 40
26.814594
 40
28.621363
 40
30.391905
 40
32.177574
 40
32.177574
 40
32.177574
 40
32.177574
 10
56.952228
 20
954.482986
 30
0.0
 10
57.049479
 20
953.891220
 30
0.0
 10
57.242695
 20
952.715510
 30
0.0
 10
56.729690
 20
950.957684
 30
0.0
 10
55.681689
 20
949.478409
 30
0.0
 10
54.169975
 20
948.444409
 30
0.0
 10
52.396350
 20
947.978857
 30
0.0
 10
50.565598
 20
948.134205
 30
0.0
 10
48.899068
 20
948.897109
 30
0.0
 10
47.596442
 20
950.173128
 30
0.0
 10
46.814226
 20
951.812690
 30
0.0
 10
46.654500
 20
953.617979
 30
0.0
 10
47.132751
 20
955.366279
 30
0.0
 10
48.190164
 20
956.848134
 30
0.0
 10
49.699501
 20
957.881482
 30
0.0
 10
51.473124
 20
958.347033
 30
0.0
 10
53.306280
 20
958.192344
 30
0.0
 10
54.963260
 20
957.426823
 30
0.0
 10
56.301075
 20
956.160449
 30
0.0
 10
56.734562
 20
955.043724
 30
0.0
 10
56.952228
 20
954.482986
 30
0.0
 11
56.952228
 21
954.482986
 31
0.0
 11
57.108753
 21
952.709904
 31
0.0
 11
56.646327
 21
951.015420
 31
0.0
 11
55.607848
 21
949.556729
 31
0.0
 11
54.122200
 21
948.537093
 31
0.0
 11
52.396402
 21
948.083058
 31
0.0
 11
50.590554
 21
948.236743
 31
0.0
 11
48.948381
 21
948.990189
 31
0.0
 11
47.685010
 21
950.230637
 31
0.0
 11
46.917640
 21
951.843013
 31
0.0
 11
46.761115
 21
953.616094
 31
0.0
 11
47.223541
 21
955.310578
 31
0.0
 11
48.262020
 21
956.769269
 31
0.0
 11
49.747668
 21
957.788905
 31
0.0
 11
51.473466
 21
958.242941
 31
0.0
 11
53.279314
 21
958.089256
 31
0.0
 11
54.921487
 21
957.335810
 31
0.0
 11
56.184859
 21
956.095362
 31
0.0
 11
56.952228
 21
954.482986
 31
0.0
  0
LINE
  5
1d0
100
AcDbEntity
  8
Layer_1
 62
7
100
AcDbLine
 10
100.344665
 20
765.921043
 30
0.0
 11
100.344665
 21
765.921043
 31
0.0
  0
SPLINE
  5
1d1
100
AcDbEntity
  8
Layer_1
 62
7
100
AcDbSpline
 70
0
 71
3
 72
22
 73
18
 74
16
 40
0.000000
 40
0.000000
 40
0.000000
 40
0.000000
 40
1.779977
 40
3.536426
 40
5.327018
 40
7.128907
 40
8.913432
 40
10.725807
 40
12.532576
 40
14.303118
 40
16.088787
 40
18.755387
 40
21.354933
 40
24.058475
 40
26.774354
 40
29.397808
 40
32.076915
 40
32.076915
 40
32.076915
 40
32.076915
 10
100.344665
 20
765.921043
 30
0.0
 10
100.441916
 20
765.329277
 30
0.0
 10
100.635132
 20
764.153567
 30
0.0
 10
100.122127
 20
762.395741
 30
0.0
 10
99.074126
 20
760.916465
 30
0.0
 10
97.562413
 20
759.882470
 30
0.0
 10
95.788781
 20
759.416898
 30
0.0
 10
93.958057
 20
759.572324
 30
0.0
 10
92.291422
 20
760.334939
 30
0.0
 10
90.989182
 20
761.612015
 30
0.0
 10
90.075312
 20
763.519381
 30
0.0
 10
90.077447
 20
765.993027
 30
0.0
 10
91.490996
 20
768.382061
 30
0.0
 10
93.930623
 20
769.764050
 30
0.0
 10
96.712204
 20
769.751060
 30
0.0
 10
99.222363
 20
768.403362
 30
0.0
 10
99.967956
 20
766.754252
 30
0.0
 10
100.344665
 20
765.921043
 30
0.0
 11
100.344665
 21
765.921043
 31
0.0
 11
100.501190
 21
764.147961
 31
0.0
 11
100.038764
 21
762.453477
 31
0.0
 11
99.000285
 21
760.994786
 31
0.0
 11
97.514637
 21
759.975150
 31
0.0
 11
95.788839
 21
759.521115
 31
0.0
 11
93.982991
 21
759.674800
 31
0.0
 11
92.340818
 21
760.428245
 31
0.0
 11
91.077446
 21
761.668694
 31
0.0
 11
90.310077
 21
763.281070
 31
0.0
 11
90.316551
 21
765.947662
 31
0.0
 11
91.634215
 21
768.188511
 31
0.0
 11
93.982992
 21
769.527312
 31
0.0
 11
96.698863
 21
769.520956
 31
0.0
 11
98.981123
 21
768.227201
 31
0.0
 11
100.344665
 21
765.921043
 31
0.0
  0
LINE
  5
1d2
100
AcDbEntity
  8
Layer_1
 62
7
100
AcDbLine
 10
109.050184
 20
726.631786
 30
0.0
 11
109.050184
 21
726.631786
 31
0.0
  0
SPLINE
  5
1d3
100
AcDbEntity
  8
Layer_1
 62
7
100
AcDbSpline
 70
0
 71
3
 72
22
 73
18
 74
16
 40
0.000000
 40
0.000000
 40
0.000000
 40
0.000000
 40
1.779977
 40
3.536426
 40
5.327018
 40
7.128907
 40
8.913432
 40
10.725807
 40
12.532576
 40
14.303118
 40
16.088787
 40
18.755387
 40
21.354933
 40
24.058475
 40
26.774354
 40
29.397808
 40
32.076915
 40
32.076915
 40
32.076915
 40
32.076915
 10
109.050184
 20
726.631786
 30
0.0
 10
109.147435
 20
726.040020
 30
0.0
 10
109.340652
 20
724.864310
 30
0.0
 10
108.827646
 20
723.106485
 30
0.0
 10
107.779645
 20
721.627208
 30
0.0
 10
106.267933
 20
720.593213
 30
0.0
 10
104.494300
 20
720.127641
 30
0.0
 10
102.663577
 20
720.283067
 30
0.0
 10
100.996942
 20
721.045682
 30
0.0
 10
99.694702
 20
722.322758
 30
0.0
 10
98.780832
 20
724.230125
 30
0.0
 10
98.782966
 20
726.703771
 30
0.0
 10
100.196516
 20
729.092804
 30
0.0
 10
102.636142
 20
730.474793
 30
0.0
 10
105.417723
 20
730.461803
 30
0.0
 10
107.927882
 20
729.114105
 30
0.0
 10
108.673475
 20
727.464995
 30
0.0
 10
109.050184
 20
726.631786
 30
0.0
 11
109.050184
 21
726.631786
 31
0.0
 11
109.206710
 21
724.858704
 31
0.0
 11
108.744283
 21
723.164221
 31
0.0
 11
107.705805
 21
721.705530
 31
0.0
 11
106.220157
 21
720.685894
 31
0.0
 11
104.494359
 21
720.231858
 31
0.0
 11
102.688511
 21
720.385543
 31
0.0
 11
101.046338
 21
721.138989
 31
0.0
 11
99.782966
 21
722.379437
 31
0.0
 11
99.015597
 21
723.991813
 31
0.0
 11
99.022071
 21
726.658406
 31
0.0
 11
100.339734
 21
728.899254
 31
0.0
 11
102.688511
 21
730.238055
 31
0.0
 11
105.404382
 21
730.231699
 31
0.0
 11
107.686642
 21
728.937944
 31
0.0
 11
109.050184
 21
726.631786
 31
0.0
  0
LINE
  5
1d4
100
AcDbEntity
  8
Layer_1
 62
7
100
AcDbLine
 10
124.822493
 20
688.541747
 30
0.0
 11
124.822493
 21
688.541747
 31
0.0
  0
SPLINE
  5
1d5
100
AcDbEntity
  8
Layer_1
 62
7
100
AcDbSpline
 70
0
 71
3
 72
25
 73
21
 74
19
 40
0.000000
 40
0.000000
 40
0.000000
 40
0.000000
 40
1.779977
 40
3.536426
 40
5.327018
 40
7.128907
 40
8.913432
 40
10.725807
 40
12.532576
 40
14.303118
 40
16.088787
 40
17.868764
 40
19.625213
 40
21.415804
 40
23.217694
 40
25.002218
 40
26.814594
 40
28.621363
 40
30.391905
 40
32.177574
 40
32.177574
 40
32.177574
 40
32.177574
 10
124.822493
 20
688.541747
 30
0.0
 10
124.919744
 20
687.949981
 30
0.0
 10
125.112960
 20
686.774271
 30
0.0
 10
124.599954
 20
685.016445
 30
0.0
 10
123.551954
 20
683.537170
 30
0.0
 10
122.040239
 20
682.503170
 30
0.0
 10
120.266615
 20
682.037618
 30
0.0
 10
118.435862
 20
682.192966
 30
0.0
 10
116.769333
 20
682.955870
 30
0.0
 10
115.466706
 20
684.231889
 30
0.0
 10
114.684491
 20
685.871451
 30
0.0
 10
114.524765
 20
687.676740
 30
0.0
 10
115.003016
 20
689.425040
 30
0.0
 10
116.060429
 20
690.906895
 30
0.0
 10
117.569766
 20
691.940243
 30
0.0
 10
119.343389
 20
692.405795
 30
0.0
 10
121.176545
 20
692.251105
 30
0.0
 10
122.833525
 20
691.485584
 30
0.0
 10
124.171340
 20
690.219210
 30
0.0
 10
124.604827
 20
689.102485
 30
0.0
 10
124.822493
 20
688.541747
 30
0.0
 11
124.822493
 21
688.541747
 31
0.0
 11
124.979018
 21
686.768665
 31
0.0
 11
124.516592
 21
685.074181
 31
0.0
 11
123.478113
 21
683.615490
 31
0.0
 11
121.992465
 21
682.595854
 31
0.0
 11
120.266667
 21
682.141819
 31
0.0
 11
118.460819
 21
682.295504
 31
0.0
 11
116.818646
 21
683.048950
 31
0.0
 11
115.555274
 21
684.289398
 31
0.0
 11
114.787905
 21
685.901774
 31
0.0
 11
114.631380
 21
687.674855
 31
0.0
 11
115.093806
 21
689.369339
 31
0.0
 11
116.132285
 21
690.828030
 31
0.0
 11
117.617933
 21
691.847666
 31
0.0
 11
119.343731
 21
692.301702
 31
0.0
 11
121.149579
 21
692.148017
 31
0.0
 11
122.791752
 21
691.394571
 31
0.0
 11
124.055124
 21
690.154123
 31
0.0
 11
124.822493
 21
688.541747
 31
0.0
  0
LINE
  5
1d6
100
AcDbEntity
  8
Layer_1
 62
7
100
AcDbLine
 10
616.142825
 20
663.882293
 30
0.0
 11
616.142825
 21
663.882293
 31
0.0
  0
SPLINE
  5
1d7
100
AcDbEntity
  8
Layer_1
 62
7
100
AcDbSpline
 70
0
 71
3
 72
25
 73
21
 74
19
 40
0.000000
 40
0.000000
 40
0.000000
 40
0.000000
 40
4.729960
 40
9.414336
 40
14.171823
 40
18.914590
 40
23.562263
 40
28.249643
 40
32.922082
 40
37.532761
 40
42.233063
 40
46.963023
 40
51.647400
 40
56.404886
 40
61.147653
 40
65.795326
 40
70.482706
 40
75.155145
 40
79.765824
 40
84.466126
 40
84.466126
 40
84.466126
 40
84.466126
 10
616.142825
 20
663.882293
 30
0.0
 10
617.387107
 20
662.888166
 30
0.0
 10
619.863679
 20
660.909493
 30
0.0
 10
624.587551
 20
659.754758
 30
0.0
 10
629.374820
 20
660.144300
 30
0.0
 10
633.754394
 20
662.151800
 30
0.0
 10
637.172491
 20
665.500066
 30
0.0
 10
639.226156
 20
669.804261
 30
0.0
 10
639.645336
 20
674.543055
 30
0.0
 10
638.389986
 20
679.132357
 30
0.0
 10
635.614139
 20
683.022253
 30
0.0
 10
631.652621
 20
685.734668
 30
0.0
 10
626.995037
 20
686.957208
 30
0.0
 10
622.189892
 20
686.549380
 30
0.0
 10
617.814779
 20
684.546444
 30
0.0
 10
614.396676
 20
681.198171
 30
0.0
 10
612.338645
 20
676.889511
 30
0.0
 10
611.936835
 20
672.168485
 30
0.0
 10
613.127509
 20
667.513027
 30
0.0
 10
615.131290
 20
665.100279
 30
0.0
 10
616.142825
 20
663.882293
 30
0.0
 11
616.142825
 21
663.882293
 31
0.0
 11
620.042650
 21
661.205748
 31
0.0
 11
624.572869
 21
660.013905
 31
0.0
 11
629.313220
 21
660.417329
 31
0.0
 11
633.623924
 21
662.395123
 31
0.0
 11
636.940275
 21
665.651299
 31
0.0
 11
638.954619
 21
669.883787
 31
0.0
 11
639.365498
 21
674.538125
 31
0.0
 11
638.151629
 21
678.986145
 31
0.0
 11
635.425622
 21
682.815208
 31
0.0
 11
631.525797
 21
685.491753
 31
0.0
 11
626.995578
 21
686.683596
 31
0.0
 11
622.255227
 21
686.280172
 31
0.0
 11
617.944523
 21
684.302378
 31
0.0
 11
614.628172
 21
681.046202
 31
0.0
 11
612.613828
 21
676.813715
 31
0.0
 11
612.202949
 21
672.159376
 31
0.0
 11
613.416818
 21
667.711356
 31
0.0
 11
616.142825
 21
663.882293
 31
0.0
  0
LINE
  5
1d8
100
AcDbEntity
  8
Layer_1
 62
7
100
AcDbLine
 10
644.148754
 20
606.632825
 30
0.0
 11
644.148754
 21
606.632825
 31
0.0
  0
SPLINE
  5
1d9
100
AcDbEntity
  8
Layer_1
 62
7
100
AcDbSpline
 70
0
 71
3
 72
22
 73
18
 74
16
 40
0.000000
 40
0.000000
 40
0.000000
 40
0.000000
 40
4.729960
 40
9.414336
 40
14.171823
 40
18.914590
 40
23.562263
 40
28.249643
 40
32.922082
 40
37.532761
 40
42.233063
 40
49.330393
 40
56.248125
 40
63.345455
 40
70.377574
 40
77.169786
 40
84.201906
 40
84.201906
 40
84.201906
 40
84.201906
 10
644.148754
 20
606.632825
 30
0.0
 10
645.393036
 20
605.638698
 30
0.0
 10
647.869608
 20
603.660025
 30
0.0
 10
652.593479
 20
602.505290
 30
0.0
 10
657.380752
 20
602.894831
 30
0.0
 10
661.760312
 20
604.902334
 30
0.0
 10
665.178457
 20
608.250590
 30
0.0
 10
667.231942
 20
612.554822
 30
0.0
 10
667.651793
 20
617.293478
 30
0.0
 10
666.393957
 20
621.883293
 30
0.0
 10
663.161131
 20
626.426761
 30
0.0
 10
657.456452
 20
629.637395
 30
0.0
 10
650.124211
 20
629.634840
 30
0.0
 10
643.706558
 20
626.034566
 30
0.0
 10
640.038922
 20
619.769888
 30
0.0
 10
639.892871
 20
612.343091
 30
0.0
 10
642.713808
 20
608.558141
 30
0.0
 10
644.148754
 20
606.632825
 30
0.0
 11
644.148754
 21
606.632825
 31
0.0
 11
648.048579
 21
603.956280
 31
0.0
 11
652.578798
 21
602.764437
 31
0.0
 11
657.319149
 21
603.167860
 31
0.0
 11
661.629853
 21
605.145655
 31
0.0
 11
664.946204
 21
608.401831
 31
0.0
 11
666.960548
 21
612.634318
 31
0.0
 11
667.371427
 21
617.288657
 31
0.0
 11
666.157558
 21
621.736677
 31
0.0
 11
663.431551
 21
625.565740
 31
0.0
 11
657.249019
 21
629.051193
 31
0.0
 11
650.331286
 21
629.051193
 31
0.0
 11
644.148755
 21
625.565739
 31
0.0
 11
640.598890
 21
619.495388
 31
0.0
 11
640.598889
 21
612.703176
 31
0.0
 11
644.148754
 21
606.632825
 31
0.0
  0
LINE
  5
1da
100
AcDbEntity
  8
Layer_1
 62
7
100
AcDbLine
 10
682.255200
 20
546.678627
 30
0.0
 11
682.255200
 21
546.678627
 31
0.0
  0
SPLINE
  5
1db
100
AcDbEntity
  8
Layer_1
 62
7
100
AcDbSpline
 70
0
 71
3
 72
25
 73
21
 74
19
 40
0.000000
 40
0.000000
 40
0.000000
 40
0.000000
 40
4.729960
 40
9.414336
 40
14.171823
 40
18.914590
 40
23.562263
 40
28.249643
 40
32.922082
 40
37.532761
 40
42.233063
 40
46.963023
 40
51.647400
 40
56.404886
 40
61.147653
 40
65.795326
 40
70.482706
 40
75.155145
 40
79.765824
 40
84.466126
 40
84.466126
 40
84.466126
 40
84.466126
 10
682.255200
 20
546.678627
 30
0.0
 10
683.499482
 20
545.684500
 30
0.0
 10
685.976055
 20
543.705827
 30
0.0
 10
690.699927
 20
542.551092
 30
0.0
 10
695.487195
 20
542.940634
 30
0.0
 10
699.866769
 20
544.948134
 30
0.0
 10
703.284866
 20
548.296400
 30
0.0
 10
705.338531
 20
552.600595
 30
0.0
 10
705.757711
 20
557.339389
 30
0.0
 10
704.502362
 20
561.928690
 30
0.0
 10
701.726514
 20
565.818587
 30
0.0
 10
697.764996
 20
568.531002
 30
0.0
 10
693.107412
 20
569.753542
 30
0.0
 10
688.302267
 20
569.345714
 30
0.0
 10
683.927155
 20
567.342778
 30
0.0
 10
680.509052
 20
563.994505
 30
0.0
 10
678.451021
 20
559.685845
 30
0.0
 10
678.049211
 20
554.964819
 30
0.0
 10
679.239884
 20
550.309361
 30
0.0
 10
681.243665
 20
547.896613
 30
0.0
 10
682.255200
 20
546.678627
 30
0.0
 11
682.255200
 21
546.678627
 31
0.0
 11
686.155025
 21
544.002082
 31
0.0
 11
690.685244
 21
542.810239
 31
0.0
 11
695.425595
 21
543.213663
 31
0.0
 11
699.736299
 21
545.191457
 31
0.0
 11
703.052650
 21
548.447633
 31
0.0
 11
705.066994
 21
552.680120
 31
0.0
 11
705.477873
 21
557.334459
 31
0.0
 11
704.264004
 21
561.782479
 31
0.0
 11
701.537997
 21
565.611542
 31
0.0
 11
697.638172
 21
568.288087
 31
0.0
 11
693.107953
 21
569.479930
 31
0.0
 11
688.367602
 21
569.076506
 31
0.0
 11
684.056898
 21
567.098712
 31
0.0
 11
680.740547
 21
563.842536
 31
0.0
 11
678.726203
 21
559.610049
 31
0.0
 11
678.315324
 21
554.955710
 31
0.0
 11
679.529193
 21
550.507690
 31
0.0
 11
682.255200
 21
546.678627
 31
0.0
  0
LINE
  5
1dc
100
AcDbEntity
  8
Layer_1
 62
7
100
AcDbLine
 10
600.532944
 20
729.696771
 30
0.0
 11
600.532944
 21
729.696771
 31
0.0
  0
LINE
  5
1dd
100
AcDbEntity
  8
Layer_1
 62
7
100
AcDbLine
 10
431.578847
 20
831.573884
 30
0.0
 11
431.711459
 21
842.055518
 31
0.0
  0
LINE
  5
1de
100
AcDbEntity
  8
Layer_1
 62
7
100
AcDbLine
 10
431.711459
 20
842.055518
 30
0.0
 11
441.625161
 21
845.945812
 31
0.0
  0
LINE
  5
1df
100
AcDbEntity
  8
Layer_1
 62
7
100
AcDbLine
 10
441.625161
 20
845.945812
 30
0.0
 11
431.513289
 21
849.308646
 31
0.0
  0
LINE
  5
1e0
100
AcDbEntity
  8
Layer_1
 62
7
100
AcDbLine
 10
431.513289
 20
849.308646
 30
0.0
 11
430.808531
 21
859.768222
 31
0.0
  0
LINE
  5
1e1
100
AcDbEntity
  8
Layer_1
 62
7
100
AcDbLine
 10
430.808531
 20
859.768222
 30
0.0
 11
424.426436
 21
851.364936
 31
0.0
  0
LINE
  5
1e2
100
AcDbEntity
  8
Layer_1
 62
7
100
AcDbLine
 10
424.426436
 20
851.364936
 30
0.0
 11
414.077175
 21
853.939011
 31
0.0
  0
LINE
  5
1e3
100
AcDbEntity
  8
Layer_1
 62
7
100
AcDbLine
 10
414.077175
 20
853.939011
 30
0.0
 11
420.244697
 21
845.382664
 31
0.0
  0
LINE
  5
1e4
100
AcDbEntity
  8
Layer_1
 62
7
100
AcDbLine
 10
420.244697
 20
845.382664
 30
0.0
 11
414.553260
 21
836.513960
 31
0.0
  0
LINE
  5
1e5
100
AcDbEntity
  8
Layer_1
 62
7
100
AcDbLine
 10
414.553260
 20
836.513960
 30
0.0
 11
424.747083
 21
839.629124
 31
0.0
  0
LINE
  5
1e6
100
AcDbEntity
  8
Layer_1
 62
7
100
AcDbLine
 10
424.747083
 20
839.629124
 30
0.0
 11
431.578847
 21
831.573884
 31
0.0
  0
LINE
  5
1e7
100
AcDbEntity
  8
Layer_1
 62
7
100
AcDbLine
 10
377.453143
 20
879.773565
 30
0.0
 11
378.514167
 21
887.201603
 31
0.0
  0
LINE
  5
1e8
100
AcDbEntity
  8
Layer_1
 62
7
100
AcDbLine
 10
378.514167
 20
887.201603
 30
0.0
 11
385.909744
 21
889.081304
 31
0.0
  0
LINE
  5
1e9
100
AcDbEntity
  8
Layer_1
 62
7
100
AcDbLine
 10
385.909744
 20
889.081304
 30
0.0
 11
379.042580
 21
892.367476
 31
0.0
  0
LINE
  5
1ea
100
AcDbEntity
  8
Layer_1
 62
7
100
AcDbLine
 10
379.042580
 20
892.367476
 30
0.0
 11
379.507209
 21
899.854320
 31
0.0
  0
LINE
  5
1eb
100
AcDbEntity
  8
Layer_1
 62
7
100
AcDbLine
 10
379.507209
 20
899.854320
 30
0.0
 11
374.202040
 21
894.457264
 31
0.0
  0
LINE
  5
1ec
100
AcDbEntity
  8
Layer_1
 62
7
100
AcDbLine
 10
374.202040
 20
894.457264
 30
0.0
 11
367.093615
 21
897.204694
 31
0.0
  0
LINE
  5
1ed
100
AcDbEntity
  8
Layer_1
 62
7
100
AcDbLine
 10
367.093615
 20
897.204694
 30
0.0
 11
370.682006
 21
890.582947
 31
0.0
  0
LINE
  5
1ee
100
AcDbEntity
  8
Layer_1
 62
7
100
AcDbLine
 10
370.682006
 20
890.582947
 30
0.0
 11
365.824131
 21
884.794104
 31
0.0
  0
LINE
  5
1ef
100
AcDbEntity
  8
Layer_1
 62
7
100
AcDbLine
 10
365.824131
 20
884.794104
 30
0.0
 11
373.347038
 21
886.098707
 31
0.0
  0
LINE
  5
1f0
100
AcDbEntity
  8
Layer_1
 62
7
100
AcDbLine
 10
373.347038
 20
886.098707
 30
0.0
 11
377.453143
 21
879.773565
 31
0.0
  0
LINE
  5
1f1
100
AcDbEntity
  8
Layer_1
 62
7
100
AcDbLine
 10
326.717587
 20
920.371323
 30
0.0
 11
327.778611
 21
927.799361
 31
0.0
  0
LINE
  5
1f2
100
AcDbEntity
  8
Layer_1
 62
7
100
AcDbLine
 10
327.778611
 20
927.799361
 30
0.0
 11
335.174193
 21
929.679057
 31
0.0
  0
LINE
  5
1f3
100
AcDbEntity
  8
Layer_1
 62
7
100
AcDbLine
 10
335.174193
 20
929.679057
 30
0.0
 11
328.307029
 21
932.965229
 31
0.0
  0
LINE
  5
1f4
100
AcDbEntity
  8
Layer_1
 62
7
100
AcDbLine
 10
328.307029
 20
932.965229
 30
0.0
 11
328.771653
 21
940.452078
 31
0.0
  0
LINE
  5
1f5
100
AcDbEntity
  8
Layer_1
 62
7
100
AcDbLine
 10
328.771653
 20
940.452078
 30
0.0
 11
323.466480
 21
935.055017
 31
0.0
  0
LINE
  5
1f6
100
AcDbEntity
  8
Layer_1
 62
7
100
AcDbLine
 10
323.466480
 20
935.055017
 30
0.0
 11
316.358054
 21
937.802447
 31
0.0
  0
LINE
  5
1f7
100
AcDbEntity
  8
Layer_1
 62
7
100
AcDbLine
 10
316.358054
 20
937.802447
 30
0.0
 11
319.946445
 21
931.180700
 31
0.0
  0
LINE
  5
1f8
100
AcDbEntity
  8
Layer_1
 62
7
100
AcDbLine
 10
319.946445
 20
931.180700
 30
0.0
 11
315.088570
 21
925.391857
 31
0.0
  0
LINE
  5
1f9
100
AcDbEntity
  8
Layer_1
 62
7
100
AcDbLine
 10
315.088570
 20
925.391857
 30
0.0
 11
322.611482
 21
926.696465
 31
0.0
  0
LINE
  5
1fa
100
AcDbEntity
  8
Layer_1
 62
7
100
AcDbLine
 10
322.611482
 20
926.696465
 30
0.0
 11
326.717587
 21
920.371323
 31
0.0
  0
LINE
  5
1fb
100
AcDbEntity
  8
Layer_1
 62
7
100
AcDbLine
 10
256.014022
 20
961.843489
 30
0.0
 11
257.075046
 21
969.271527
 31
0.0
  0
LINE
  5
1fc
100
AcDbEntity
  8
Layer_1
 62
7
100
AcDbLine
 10
257.075046
 20
969.271527
 30
0.0
 11
264.470627
 21
971.151223
 31
0.0
  0
LINE
  5
1fd
100
AcDbEntity
  8
Layer_1
 62
7
100
AcDbLine
 10
264.470627
 20
971.151223
 30
0.0
 11
257.603464
 21
974.437395
 31
0.0
  0
LINE
  5
1fe
100
AcDbEntity
  8
Layer_1
 62
7
100
AcDbLine
 10
257.603464
 20
974.437395
 30
0.0
 11
258.068088
 21
981.924244
 31
0.0
  0
LINE
  5
1ff
100
AcDbEntity
  8
Layer_1
 62
7
100
AcDbLine
 10
258.068088
 20
981.924244
 30
0.0
 11
252.762915
 21
976.527184
 31
0.0
  0
LINE
  5
200
100
AcDbEntity
  8
Layer_1
 62
7
100
AcDbLine
 10
252.762915
 20
976.527184
 30
0.0
 11
245.654489
 21
979.274614
 31
0.0
  0
LINE
  5
201
100
AcDbEntity
  8
Layer_1
 62
7
100
AcDbLine
 10
245.654489
 20
979.274614
 30
0.0
 11
249.242880
 21
972.652866
 31
0.0
  0
LINE
  5
202
100
AcDbEntity
  8
Layer_1
 62
7
100
AcDbLine
 10
249.242880
 20
972.652866
 30
0.0
 11
244.385005
 21
966.864024
 31
0.0
  0
LINE
  5
203
100
AcDbEntity
  8
Layer_1
 62
7
100
AcDbLine
 10
244.385005
 20
966.864024
 30
0.0
 11
251.907917
 21
968.168631
 31
0.0
  0
LINE
  5
204
100
AcDbEntity
  8
Layer_1
 62
7
100
AcDbLine
 10
251.907917
 20
968.168631
 30
0.0
 11
256.014022
 21
961.843489
 31
0.0
  0
LINE
  5
205
100
AcDbEntity
  8
Layer_1
 62
7
100
AcDbLine
 10
191.278861
 20
997.455375
 30
0.0
 11
192.339895
 21
1004.883422
 31
0.0
  0
LINE
  5
206
100
AcDbEntity
  8
Layer_1
 62
7
100
AcDbLine
 10
192.339895
 20
1004.883422
 30
0.0
 11
199.735472
 21
1006.763123
 31
0.0
  0
LINE
  5
207
100
AcDbEntity
  8
Layer_1
 62
7
100
AcDbLine
 10
199.735472
 20
1006.763123
 30
0.0
 11
192.868323
 21
1010.049300
 31
0.0
  0
LINE
  5
208
100
AcDbEntity
  8
Layer_1
 62
7
100
AcDbLine
 10
192.868323
 20
1010.049300
 30
0.0
 11
193.332941
 21
1017.536144
 31
0.0
  0
LINE
  5
209
100
AcDbEntity
  8
Layer_1
 62
7
100
AcDbLine
 10
193.332941
 20
1017.536144
 30
0.0
 11
188.027744
 21
1012.139060
 31
0.0
  0
LINE
  5
20a
100
AcDbEntity
  8
Layer_1
 62
7
100
AcDbLine
 10
188.027744
 20
1012.139060
 30
0.0
 11
180.919324
 21
1014.886495
 31
0.0
  0
LINE
  5
20b
100
AcDbEntity
  8
Layer_1
 62
7
100
AcDbLine
 10
180.919324
 20
1014.886495
 30
0.0
 11
184.507729
 21
1008.264761
 31
0.0
  0
LINE
  5
20c
100
AcDbEntity
  8
Layer_1
 62
7
100
AcDbLine
 10
184.507729
 20
1008.264761
 30
0.0
 11
179.649868
 21
1002.475933
 31
0.0
  0
LINE
  5
20d
100
AcDbEntity
  8
Layer_1
 62
7
100
AcDbLine
 10
179.649868
 20
1002.475933
 30
0.0
 11
187.172766
 21
1003.780526
 31
0.0
  0
LINE
  5
20e
100
AcDbEntity
  8
Layer_1
 62
7
100
AcDbLine
 10
187.172766
 20
1003.780526
 30
0.0
 11
191.278861
 21
997.455375
 31
0.0
  0
SPLINE
  5
20f
100
AcDbEntity
  8
Layer_1
 62
7
100
AcDbSpline
 70
0
 71
3
 72
25
 73
21
 74
19
 40
0.000000
 40
0.000000
 40
0.000000
 40
0.000000
 40
4.729960
 40
9.414336
 40
14.171823
 40
18.914590
 40
23.562263
 40
28.249643
 40
32.922082
 40
37.532761
 40
42.233063
 40
46.963023
 40
51.647400
 40
56.404886
 40
61.147653
 40
65.795326
 40
70.482706
 40
75.155145
 40
79.765824
 40
84.466126
 40
84.466126
 40
84.466126
 40
84.466126
 10
600.532944
 20
729.696771
 30
0.0
 10
601.777226
 20
728.702644
 30
0.0
 10
604.253799
 20
726.723971
 30
0.0
 10
608.977671
 20
725.569237
 30
0.0
 10
613.764939
 20
725.958778
 30
0.0
 10
618.144514
 20
727.966279
 30
0.0
 10
621.562610
 20
731.314545
 30
0.0
 10
623.616275
 20
735.618739
 30
0.0
 10
624.035456
 20
740.357533
 30
0.0
 10
622.780106
 20
744.946835
 30
0.0
 10
620.004259
 20
748.836731
 30
0.0
 10
616.042741
 20
751.549147
 30
0.0
 10
611.385157
 20
752.771687
 30
0.0
 10
606.580011
 20
752.363859
 30
0.0
 10
602.204899
 20
750.360922
 30
0.0
 10
598.786796
 20
747.012650
 30
0.0
 10
596.728765
 20
742.703990
 30
0.0
 10
596.326955
 20
737.982963
 30
0.0
 10
597.517628
 20
733.327506
 30
0.0
 10
599.521410
 20
730.914757
 30
0.0
 10
600.532944
 20
729.696771
 30
0.0
 11
600.532944
 21
729.696771
 31
0.0
 11
604.432769
 21
727.020227
 31
0.0
 11
608.962989
 21
725.828384
 31
0.0
 11
613.703340
 21
726.231807
 31
0.0
 11
618.014044
 21
728.209601
 31
0.0
 11
621.330395
 21
731.465778
 31
0.0
 11
623.344739
 21
735.698265
 31
0.0
 11
623.755617
 21
740.352603
 31
0.0
 11
622.541749
 21
744.800623
 31
0.0
 11
619.815742
 21
748.629687
 31
0.0
 11
615.915917
 21
751.306231
 31
0.0
 11
611.385697
 21
752.498074
 31
0.0
 11
606.645346
 21
752.094651
 31
0.0
 11
602.334642
 21
750.116857
 31
0.0
 11
599.018292
 21
746.860680
 31
0.0
 11
597.003948
 21
742.628193
 31
0.0
 11
596.593069
 21
737.973855
 31
0.0
 11
597.806937
 21
733.525835
 31
0.0
 11
600.532944
 21
729.696771
 31
0.0
  0
SPLINE
  5
210
100
AcDbEntity
  8
Layer_1
 62
1
100
AcDbSpline
 70
0
 71
3
 72
10
 73
6
 74
4
 40
0.000000
 40
0.000000
 40
0.000000
 40
0.000000
 40
199.070623
 40
301.986820
 40
335.663586
 40
335.663586
 40
335.663586
 40
335.663586
 10
718.045741
 20
478.933262
 30
0.0
 10
676.964526
 20
530.947697
 30
0.0
 10
614.645007
 20
609.852730
 30
0.0
 10
576.437626
 20
720.938885
 30
0.0
 10
583.780959
 20
766.140830
 30
0.0
 10
585.591445
 20
777.285294
 30
0.0
 11
718.045741
 21
478.933262
 31
0.0
 11
606.945750
 21
644.117719
 31
0.0
 11
581.551454
 21
743.851732
 31
0.0
 11
585.591445
 21
777.285294
 31
0.0
  0
SPLINE
  5
211
100
AcDbEntity
  8
Layer_1
 62
1
100
AcDbSpline
 70
0
 71
3
 72
10
 73
6
 74
4
 40
0.000000
 40
0.000000
 40
0.000000
 40
0.000000
 40
199.562485
 40
292.919940
 40
323.125643
 40
323.125643
 40
323.125643
 40
323.125643
 10
657.012887
 20
536.308667
 30
0.0
 10
611.063639
 20
583.720031
 30
0.0
 10
543.618843
 20
653.310936
 30
0.0
 10
500.554909
 20
762.401002
 30
0.0
 10
513.582526
 20
802.024389
 30
0.0
 10
516.767199
 20
811.710547
 30
0.0
 11
657.012887
 21
536.308667
 31
0.0
 11
532.350052
 21
692.143077
 31
0.0
 11
508.975772
 21
782.527020
 31
0.0
 11
516.767199
 21
811.710547
 31
0.0
  0
SPLINE
  5
212
100
AcDbEntity
  8
Layer_1
 62
1
100
AcDbSpline
 70
0
 71
3
 72
10
 73
6
 74
4
 40
0.000000
 40
0.000000
 40
0.000000
 40
0.000000
 40
198.551381
 40
250.955853
 40
279.195093
 40
279.195093
 40
279.195093
 40
279.195093
 10
519.364347
 20
666.359564
 30
0.0
 10
463.060292
 20
703.738890
 30
0.0
 10
391.895679
 20
750.983894
 30
0.0
 10
385.212737
 20
873.820918
 30
0.0
 10
415.323338
 20
875.035643
 30
0.0
 10
425.867254
 20
875.461008
 30
0.0
 11
519.364347
 21
666.359564
 31
0.0
 11
391.238675
 21
818.038380
 31
0.0
 11
398.164399
 21
869.983188
 31
0.0
 11
425.867254
 21
875.461008
 31
0.0
  0
SPLINE
  5
213
100
AcDbEntity
  8
Layer_1
 62
1
100
AcDbSpline
 70
0
 71
3
 72
10
 73
6
 74
4
 40
0.000000
 40
0.000000
 40
0.000000
 40
0.000000
 40
96.725158
 40
177.041422
 40
212.331482
 40
212.331482
 40
212.331482
 40
212.331482
 10
388.208673
 20
823.185599
 30
0.0
 10
370.270765
 20
850.587921
 30
0.0
 10
337.438017
 20
900.743911
 30
0.0
 10
273.305595
 20
935.502583
 30
0.0
 10
236.976982
 20
948.112286
 30
0.0
 10
225.887286
 20
951.961532
 30
0.0
 11
388.208673
 21
823.185599
 31
0.0
 11
328.233918
 21
899.072257
 31
0.0
 11
259.024892
 21
939.825332
 31
0.0
 11
225.887286
 21
951.961532
 31
0.0
  0
SPLINE
  5
214
100
AcDbEntity
  8
Layer_1
 62
1
100
AcDbSpline
 70
0
 71
3
 72
10
 73
6
 74
4
 40
0.000000
 40
0.000000
 40
0.000000
 40
0.000000
 40
103.222477
 40
157.134885
 40
174.591791
 40
174.591791
 40
174.591791
 40
174.591791
 10
494.024455
 20
690.658814
 30
0.0
 10
482.545785
 20
723.050869
 30
0.0
 10
465.071883
 20
772.361078
 30
0.0
 10
463.087541
 20
832.993169
 30
0.0
 10
472.829956
 20
854.821639
 30
0.0
 10
475.212947
 20
860.160874
 30
0.0
 11
494.024455
 21
690.658814
 31
0.0
 11
466.358155
 21
790.104556
 31
0.0
 11
468.695383
 21
843.966277
 31
0.0
 11
475.212947
 21
860.160874
 31
0.0
  0
SPLINE
  5
215
100
AcDbEntity
  8
Layer_1
 62
1
100
AcDbSpline
 70
0
 71
3
 72
10
 73
6
 74
4
 40
0.000000
 40
0.000000
 40
0.000000
 40
0.000000
 40
95.372102
 40
157.047941
 40
203.727332
 40
203.727332
 40
203.727332
 40
203.727332
 10
396.227062
 20
773.422764
 30
0.0
 10
381.729395
 20
801.580566
 30
0.0
 10
357.856284
 20
847.947635
 30
0.0
 10
310.087361
 20
900.294135
 30
0.0
 10
274.669150
 20
909.920284
 30
0.0
 10
259.410999
 20
914.067225
 30
0.0
 11
396.227062
 21
773.422764
 31
0.0
 11
347.957993
 21
855.678067
 31
0.0
 11
303.327410
 21
898.245897
 31
0.0
 11
259.410999
 21
914.067225
 31
0.0
  0
SPLINE
  5
216
100
AcDbEntity
  8
Layer_1
 62
1
100
AcDbSpline
 70
0
 71
3
 72
10
 73
6
 74
4
 40
0.000000
 40
0.000000
 40
0.000000
 40
0.000000
 40
152.221880
 40
226.199083
 40
249.444599
 40
249.444599
 40
249.444599
 40
249.444599
 10
642.771433
 20
566.513031
 30
0.0
 10
611.970866
 20
606.460586
 30
0.0
 10
566.201757
 20
665.821962
 30
0.0
 10
537.634799
 20
749.535383
 30
0.0
 10
545.785888
 20
781.182692
 30
0.0
 10
547.734777
 20
788.749422
 30
0.0
 11
642.771433
 21
566.513031
 31
0.0
 11
559.365648
 21
693.851069
 31
0.0
 11
542.990584
 21
765.993178
 31
0.0
 11
547.734777
 21
788.749422
 31
0.0
  0
LINE
  5
217
100
AcDbEntity
  8
Layer_1
 62
7
100
AcDbLine
 10
635.884744
 20
709.411479
 30
0.0
 11
635.884744
 21
709.411479
 31
0.0
  0
SPLINE
  5
218
100
AcDbEntity
  8
Layer_1
 62
7
100
AcDbSpline
 70
0
 71
3
 72
25
 73
21
 74
19
 40
0.000000
 40
0.000000
 40
0.000000
 40
0.000000
 40
1.801890
 40
3.586414
 40
5.398790
 40
7.205558
 40
8.976101
 40
10.761769
 40
12.541746
 40
14.298195
 40
16.088787
 40
17.890677
 40
19.675201
 40
21.487577
 40
23.294345
 40
25.064888
 40
26.850556
 40
28.630533
 40
30.386982
 40
32.177574
 40
32.177574
 40
32.177574
 40
32.177574
 10
635.884744
 20
709.411479
 30
0.0
 10
636.358756
 20
709.032764
 30
0.0
 10
637.302212
 20
708.278984
 30
0.0
 10
639.101783
 20
707.839085
 30
0.0
 10
640.925504
 20
707.987482
 30
0.0
 10
642.593913
 20
708.752244
 30
0.0
 10
643.896045
 20
710.027774
 30
0.0
 10
644.678394
 20
711.667467
 30
0.0
 10
644.838082
 20
713.472722
 30
0.0
 10
644.359853
 20
715.221028
 30
0.0
 10
643.302388
 20
716.702893
 30
0.0
 10
641.793238
 20
717.736194
 30
0.0
 10
640.018920
 20
718.201924
 30
0.0
 10
638.188388
 20
718.046561
 30
0.0
 10
636.521679
 20
717.283537
 30
0.0
 10
635.219544
 20
716.008005
 30
0.0
 10
634.435532
 20
714.366610
 30
0.0
 10
634.282462
 20
712.568124
 30
0.0
 10
634.736052
 20
710.794616
 30
0.0
 10
635.499397
 20
709.875474
 30
0.0
 10
635.884744
 20
709.411479
 30
0.0
 11
635.884744
 21
709.411479
 31
0.0
 11
637.370391
 21
708.391843
 31
0.0
 11
639.096189
 21
707.937808
 31
0.0
 11
640.902038
 21
708.091493
 31
0.0
 11
642.544211
 21
708.844938
 31
0.0
 11
643.807582
 21
710.085387
 31
0.0
 11
644.574951
 21
711.697763
 31
0.0
 11
644.731477
 21
713.470844
 31
0.0
 11
644.269051
 21
715.165328
 31
0.0
 11
643.230572
 21
716.624019
 31
0.0
 11
641.744924
 21
717.643655
 31
0.0
 11
640.019126
 21
718.097690
 31
0.0
 11
638.213278
 21
717.944005
 31
0.0
 11
636.571105
 21
717.190560
 31
0.0
 11
635.307733
 21
715.950112
 31
0.0
 11
634.540364
 21
714.337735
 31
0.0
 11
634.383839
 21
712.564654
 31
0.0
 11
634.846265
 21
710.870170
 31
0.0
 11
635.884744
 21
709.411479
 31
0.0
  0
LINE
  5
219
100
AcDbEntity
  8
Layer_1
 62
7
100
AcDbLine
 10
658.381397
 20
653.965026
 30
0.0
 11
658.381397
 21
653.965026
 31
0.0
  0
SPLINE
  5
21a
100
AcDbEntity
  8
Layer_1
 62
7
100
AcDbSpline
 70
0
 71
3
 72
25
 73
21
 74
19
 40
0.000000
 40
0.000000
 40
0.000000
 40
0.000000
 40
1.801890
 40
3.586414
 40
5.398790
 40
7.205558
 40
8.976101
 40
10.761769
 40
12.541746
 40
14.298195
 40
16.088787
 40
17.890677
 40
19.675201
 40
21.487577
 40
23.294345
 40
25.064888
 40
26.850556
 40
28.630533
 40
30.386982
 40
32.177574
 40
32.177574
 40
32.177574
 40
32.177574
 10
658.381397
 20
653.965026
 30
0.0
 10
658.855409
 20
653.586311
 30
0.0
 10
659.798866
 20
652.832530
 30
0.0
 10
661.598436
 20
652.392631
 30
0.0
 10
663.422157
 20
652.541028
 30
0.0
 10
665.090567
 20
653.305790
 30
0.0
 10
666.392699
 20
654.581320
 30
0.0
 10
667.175048
 20
656.221013
 30
0.0
 10
667.334735
 20
658.026269
 30
0.0
 10
666.856507
 20
659.774574
 30
0.0
 10
665.799041
 20
661.256439
 30
0.0
 10
664.289891
 20
662.289741
 30
0.0
 10
662.515573
 20
662.755470
 30
0.0
 10
660.685042
 20
662.600107
 30
0.0
 10
659.018332
 20
661.837084
 30
0.0
 10
657.716198
 20
660.561551
 30
0.0
 10
656.932186
 20
658.920157
 30
0.0
 10
656.779115
 20
657.121670
 30
0.0
 10
657.232705
 20
655.348163
 30
0.0
 10
657.996051
 20
654.429020
 30
0.0
 10
658.381397
 20
653.965026
 30
0.0
 11
658.381397
 21
653.965026
 31
0.0
 11
659.867045
 21
652.945390
 31
0.0
 11
661.592843
 21
652.491354
 31
0.0
 11
663.398691
 21
652.645039
 31
0.0
 11
665.040864
 21
653.398485
 31
0.0
 11
666.304236
 21
654.638933
 31
0.0
 11
667.071605
 21
656.251309
 31
0.0
 11
667.228130
 21
658.024390
 31
0.0
 11
666.765704
 21
659.718874
 31
0.0
 11
665.727225
 21
661.177565
 31
0.0
 11
664.241577
 21
662.197201
 31
0.0
 11
662.515779
 21
662.651237
 31
0.0
 11
660.709931
 21
662.497552
 31
0.0
 11
659.067758
 21
661.744106
 31
0.0
 11
657.804386
 21
660.503658
 31
0.0
 11
657.037017
 21
658.891282
 31
0.0
 11
656.880492
 21
657.118200
 31
0.0
 11
657.342918
 21
655.423717
 31
0.0
 11
658.381397
 21
653.965026
 31
0.0
  0
LINE
  5
21b
100
AcDbEntity
  8
Layer_1
 62
7
100
AcDbLine
 10
684.091727
 20
597.166293
 30
0.0
 11
684.091727
 21
597.166293
 31
0.0
  0
SPLINE
  5
21c
100
AcDbEntity
  8
Layer_1
 62
7
100
AcDbSpline
 70
0
 71
3
 72
25
 73
21
 74
19
 40
0.000000
 40
0.000000
 40
0.000000
 40
0.000000
 40
1.801890
 40
3.586414
 40
5.398790
 40
7.205558
 40
8.976101
 40
10.761769
 40
12.541746
 40
14.298195
 40
16.088787
 40
17.890677
 40
19.675201
 40
21.487577
 40
23.294345
 40
25.064888
 40
26.850556
 40
28.630533
 40
30.386982
 40
32.177574
 40
32.177574
 40
32.177574
 40
32.177574
 10
684.091727
 20
597.166293
 30
0.0
 10
684.565739
 20
596.787578
 30
0.0
 10
685.509195
 20
596.033798
 30
0.0
 10
687.308766
 20
595.593899
 30
0.0
 10
689.132487
 20
595.742296
 30
0.0
 10
690.800896
 20
596.507058
 30
0.0
 10
692.103029
 20
597.782588
 30
0.0
 10
692.885377
 20
599.422281
 30
0.0
 10
693.045065
 20
601.227536
 30
0.0
 10
692.566837
 20
602.975841
 30
0.0
 10
691.509371
 20
604.457707
 30
0.0
 10
690.000221
 20
605.491008
 30
0.0
 10
688.225903
 20
605.956738
 30
0.0
 10
686.395372
 20
605.801374
 30
0.0
 10
684.728662
 20
605.038351
 30
0.0
 10
683.426527
 20
603.762819
 30
0.0
 10
682.642516
 20
602.121424
 30
0.0
 10
682.489445
 20
600.322938
 30
0.0
 10
682.943035
 20
598.549430
 30
0.0
 10
683.706380
 20
597.630288
 30
0.0
 10
684.091727
 20
597.166293
 30
0.0
 11
684.091727
 21
597.166293
 31
0.0
 11
685.577375
 21
596.146657
 31
0.0
 11
687.303173
 21
595.692621
 31
0.0
 11
689.109021
 21
595.846307
 31
0.0
 11
690.751194
 21
596.599752
 31
0.0
 11
692.014565
 21
597.840200
 31
0.0
 11
692.781935
 21
599.452576
 31
0.0
 11
692.938460
 21
601.225658
 31
0.0
 11
692.476034
 21
602.920142
 31
0.0
 11
691.437555
 21
604.378833
 31
0.0
 11
689.951907
 21
605.398469
 31
0.0
 11
688.226109
 21
605.852504
 31
0.0
 11
686.420261
 21
605.698819
 31
0.0
 11
684.778088
 21
604.945374
 31
0.0
 11
683.514716
 21
603.704925
 31
0.0
 11
682.747347
 21
602.092549
 31
0.0
 11
682.590822
 21
600.319468
 31
0.0
 11
683.053248
 21
598.624984
 31
0.0
 11
684.091727
 21
597.166293
 31
0.0
  0
LINE
  5
21d
100
AcDbEntity
  8
Layer_1
 62
7
100
AcDbLine
 10
486.213535
 20
811.288555
 30
0.0
 11
486.213535
 21
811.288555
 31
0.0
  0
SPLINE
  5
21e
100
AcDbEntity
  8
Layer_1
 62
7
100
AcDbSpline
 70
0
 71
3
 72
25
 73
21
 74
19
 40
0.000000
 40
0.000000
 40
0.000000
 40
0.000000
 40
1.801890
 40
3.586414
 40
5.398790
 40
7.205558
 40
8.976101
 40
10.761769
 40
12.541746
 40
14.298195
 40
16.088787
 40
17.890677
 40
19.675201
 40
21.487577
 40
23.294345
 40
25.064888
 40
26.850556
 40
28.630533
 40
30.386982
 40
32.177574
 40
32.177574
 40
32.177574
 40
32.177574
 10
486.213535
 20
811.288555
 30
0.0
 10
486.687547
 20
810.909840
 30
0.0
 10
487.631004
 20
810.156060
 30
0.0
 10
489.430574
 20
809.716161
 30
0.0
 10
491.254295
 20
809.864558
 30
0.0
 10
492.922705
 20
810.629320
 30
0.0
 10
494.224837
 20
811.904850
 30
0.0
 10
495.007185
 20
813.544543
 30
0.0
 10
495.166873
 20
815.349798
 30
0.0
 10
494.688645
 20
817.098104
 30
0.0
 10
493.631179
 20
818.579969
 30
0.0
 10
492.122029
 20
819.613270
 30
0.0
 10
490.347711
 20
820.079000
 30
0.0
 10
488.517180
 20
819.923637
 30
0.0
 10
486.850470
 20
819.160613
 30
0.0
 10
485.548336
 20
817.885081
 30
0.0
 10
484.764324
 20
816.243686
 30
0.0
 10
484.611253
 20
814.445200
 30
0.0
 10
485.064843
 20
812.671692
 30
0.0
 10
485.828189
 20
811.752550
 30
0.0
 10
486.213535
 20
811.288555
 30
0.0
 11
486.213535
 21
811.288555
 31
0.0
 11
487.699183
 21
810.268919
 31
0.0
 11
489.424981
 21
809.814884
 31
0.0
 11
491.230829
 21
809.968569
 31
0.0
 11
492.873002
 21
810.722014
 31
0.0
 11
494.136374
 21
811.962462
 31
0.0
 11
494.903743
 21
813.574839
 31
0.0
 11
495.060268
 21
815.347920
 31
0.0
 11
494.597842
 21
817.042404
 31
0.0
 11
493.559363
 21
818.501095
 31
0.0
 11
492.073715
 21
819.520731
 31
0.0
 11
490.347917
 21
819.974766
 31
0.0
 11
488.542069
 21
819.821081
 31
0.0
 11
486.899896
 21
819.067636
 31
0.0
 11
485.636524
 21
817.827188
 31
0.0
 11
484.869155
 21
816.214811
 31
0.0
 11
484.712630
 21
814.441730
 31
0.0
 11
485.175056
 21
812.747246
 31
0.0
 11
486.213535
 21
811.288555
 31
0.0
  0
LINE
  5
21f
100
AcDbEntity
  8
Layer_1
 62
7
100
AcDbLine
 10
484.377021
 20
774.324310
 30
0.0
 11
484.377021
 21
774.324310
 31
0.0
  0
SPLINE
  5
220
100
AcDbEntity
  8
Layer_1
 62
7
100
AcDbSpline
 70
0
 71
3
 72
25
 73
21
 74
19
 40
0.000000
 40
0.000000
 40
0.000000
 40
0.000000
 40
1.801890
 40
3.586414
 40
5.398790
 40
7.205558
 40
8.976101
 40
10.761769
 40
12.541746
 40
14.298195
 40
16.088787
 40
17.890677
 40
19.675201
 40
21.487577
 40
23.294345
 40
25.064888
 40
26.850556
 40
28.630533
 40
30.386982
 40
32.177574
 40
32.177574
 40
32.177574
 40
32.177574
 10
484.377021
 20
774.324310
 30
0.0
 10
484.851033
 20
773.945595
 30
0.0
 10
485.794489
 20
773.191815
 30
0.0
 10
487.594060
 20
772.751916
 30
0.0
 10
489.417781
 20
772.900313
 30
0.0
 10
491.086190
 20
773.665075
 30
0.0
 10
492.388322
 20
774.940605
 30
0.0
 10
493.170671
 20
776.580298
 30
0.0
 10
493.330359
 20
778.385553
 30
0.0
 10
492.852130
 20
780.133858
 30
0.0
 10
491.794665
 20
781.615724
 30
0.0
 10
490.285515
 20
782.649025
 30
0.0
 10
488.511197
 20
783.114754
 30
0.0
 10
486.680665
 20
782.959391
 30
0.0
 10
485.013956
 20
782.196368
 30
0.0
 10
483.711821
 20
780.920836
 30
0.0
 10
482.927809
 20
779.279441
 30
0.0
 10
482.774739
 20
777.480955
 30
0.0
 10
483.228329
 20
775.707447
 30
0.0
 10
483.991674
 20
774.788305
 30
0.0
 10
484.377021
 20
774.324310
 30
0.0
 11
484.377021
 21
774.324310
 31
0.0
 11
485.862668
 21
773.304674
 31
0.0
 11
487.588466
 21
772.850638
 31
0.0
 11
489.394314
 21
773.004324
 31
0.0
 11
491.036487
 21
773.757769
 31
0.0
 11
492.299859
 21
774.998217
 31
0.0
 11
493.067228
 21
776.610593
 31
0.0
 11
493.223754
 21
778.383675
 31
0.0
 11
492.761328
 21
780.078159
 31
0.0
 11
491.722849
 21
781.536850
 31
0.0
 11
490.237201
 21
782.556486
 31
0.0
 11
488.511403
 21
783.010521
 31
0.0
 11
486.705555
 21
782.856836
 31
0.0
 11
485.063382
 21
782.103391
 31
0.0
 11
483.800010
 21
780.862942
 31
0.0
 11
483.032641
 21
779.250566
 31
0.0
 11
482.876116
 21
777.477485
 31
0.0
 11
483.338542
 21
775.783001
 31
0.0
 11
484.377021
 21
774.324310
 31
0.0
  0
LINE
  5
221
100
AcDbEntity
  8
Layer_1
 62
7
100
AcDbLine
 10
492.181963
 20
736.909286
 30
0.0
 11
492.181963
 21
736.909286
 31
0.0
  0
LINE
  5
222
100
AcDbEntity
  8
Layer_1
 62
7
100
AcDbLine
 10
435.760703
 20
790.969223
 30
0.0
 11
436.821727
 21
798.397262
 31
0.0
  0
LINE
  5
223
100
AcDbEntity
  8
Layer_1
 62
7
100
AcDbLine
 10
436.821727
 20
798.397262
 30
0.0
 11
444.217309
 21
800.276957
 31
0.0
  0
LINE
  5
224
100
AcDbEntity
  8
Layer_1
 62
7
100
AcDbLine
 10
444.217309
 20
800.276957
 30
0.0
 11
437.350145
 21
803.563130
 31
0.0
  0
LINE
  5
225
100
AcDbEntity
  8
Layer_1
 62
7
100
AcDbLine
 10
437.350145
 20
803.563130
 30
0.0
 11
437.814769
 21
811.049978
 31
0.0
  0
LINE
  5
226
100
AcDbEntity
  8
Layer_1
 62
7
100
AcDbLine
 10
437.814769
 20
811.049978
 30
0.0
 11
432.509596
 21
805.652918
 31
0.0
  0
LINE
  5
227
100
AcDbEntity
  8
Layer_1
 62
7
100
AcDbLine
 10
432.509596
 20
805.652918
 30
0.0
 11
425.401170
 21
808.400348
 31
0.0
  0
LINE
  5
228
100
AcDbEntity
  8
Layer_1
 62
7
100
AcDbLine
 10
425.401170
 20
808.400348
 30
0.0
 11
428.989556
 21
801.778605
 31
0.0
  0
LINE
  5
229
100
AcDbEntity
  8
Layer_1
 62
7
100
AcDbLine
 10
428.989556
 20
801.778605
 30
0.0
 11
424.131686
 21
795.989758
 31
0.0
  0
LINE
  5
22a
100
AcDbEntity
  8
Layer_1
 62
7
100
AcDbLine
 10
424.131686
 20
795.989758
 30
0.0
 11
431.654593
 21
797.294370
 31
0.0
  0
LINE
  5
22b
100
AcDbEntity
  8
Layer_1
 62
7
100
AcDbLine
 10
431.654593
 20
797.294370
 30
0.0
 11
435.760703
 21
790.969223
 31
0.0
  0
LINE
  5
22c
100
AcDbEntity
  8
Layer_1
 62
7
100
AcDbLine
 10
131.134904
 20
1033.968861
 30
0.0
 11
132.195937
 21
1041.396908
 31
0.0
  0
LINE
  5
22d
100
AcDbEntity
  8
Layer_1
 62
7
100
AcDbLine
 10
132.195937
 20
1041.396908
 30
0.0
 11
139.591494
 21
1043.276580
 31
0.0
  0
LINE
  5
22e
100
AcDbEntity
  8
Layer_1
 62
7
100
AcDbLine
 10
139.591494
 20
1043.276580
 30
0.0
 11
132.724365
 21
1046.562786
 31
0.0
  0
LINE
  5
22f
100
AcDbEntity
  8
Layer_1
 62
7
100
AcDbLine
 10
132.724365
 20
1046.562786
 30
0.0
 11
133.189003
 21
1054.049649
 31
0.0
  0
LINE
  5
230
100
AcDbEntity
  8
Layer_1
 62
7
100
AcDbLine
 10
133.189003
 20
1054.049649
 30
0.0
 11
127.883786
 21
1048.652546
 31
0.0
  0
LINE
  5
231
100
AcDbEntity
  8
Layer_1
 62
7
100
AcDbLine
 10
127.883786
 20
1048.652546
 30
0.0
 11
120.775366
 21
1051.399981
 31
0.0
  0
LINE
  5
232
100
AcDbEntity
  8
Layer_1
 62
7
100
AcDbLine
 10
120.775366
 20
1051.399981
 30
0.0
 11
124.363771
 21
1044.778247
 31
0.0
  0
LINE
  5
233
100
AcDbEntity
  8
Layer_1
 62
7
100
AcDbLine
 10
124.363771
 20
1044.778247
 30
0.0
 11
119.505911
 21
1038.989419
 31
0.0
  0
LINE
  5
234
100
AcDbEntity
  8
Layer_1
 62
7
100
AcDbLine
 10
119.505911
 20
1038.989419
 30
0.0
 11
127.028808
 21
1040.294012
 31
0.0
  0
LINE
  5
235
100
AcDbEntity
  8
Layer_1
 62
7
100
AcDbLine
 10
127.028808
 20
1040.294012
 30
0.0
 11
131.134904
 21
1033.968861
 31
0.0
  0
SPLINE
  5
236
100
AcDbEntity
  8
Layer_1
 62
7
100
AcDbSpline
 70
0
 71
3
 72
25
 73
21
 74
19
 40
0.000000
 40
0.000000
 40
0.000000
 40
0.000000
 40
1.801890
 40
3.586414
 40
5.398790
 40
7.205558
 40
8.976101
 40
10.761769
 40
12.541746
 40
14.298195
 40
16.088787
 40
17.890677
 40
19.675201
 40
21.487577
 40
23.294345
 40
25.064888
 40
26.850556
 40
28.630533
 40
30.386982
 40
32.177574
 40
32.177574
 40
32.177574
 40
32.177574
 10
492.181963
 20
736.909286
 30
0.0
 10
492.655976
 20
736.530571
 30
0.0
 10
493.599432
 20
735.776791
 30
0.0
 10
495.399002
 20
735.336892
 30
0.0
 10
497.222724
 20
735.485289
 30
0.0
 10
498.891133
 20
736.250051
 30
0.0
 10
500.193265
 20
737.525581
 30
0.0
 10
500.975614
 20
739.165274
 30
0.0
 10
501.135301
 20
740.970529
 30
0.0
 10
500.657073
 20
742.718835
 30
0.0
 10
499.599607
 20
744.200700
 30
0.0
 10
498.090457
 20
745.234001
 30
0.0
 10
496.316140
 20
745.699731
 30
0.0
 10
494.485608
 20
745.544368
 30
0.0
 10
492.818898
 20
744.781344
 30
0.0
 10
491.516764
 20
743.505812
 30
0.0
 10
490.732752
 20
741.864417
 30
0.0
 10
490.579682
 20
740.065931
 30
0.0
 10
491.033271
 20
738.292423
 30
0.0
 10
491.796617
 20
737.373281
 30
0.0
 10
492.181963
 20
736.909286
 30
0.0
 11
492.181963
 21
736.909286
 31
0.0
 11
493.667611
 21
735.889650
 31
0.0
 11
495.393409
 21
735.435615
 31
0.0
 11
497.199257
 21
735.589300
 31
0.0
 11
498.841430
 21
736.342745
 31
0.0
 11
500.104802
 21
737.583193
 31
0.0
 11
500.872171
 21
739.195570
 31
0.0
 11
501.028696
 21
740.968651
 31
0.0
 11
500.566270
 21
742.663135
 31
0.0
 11
499.527791
 21
744.121826
 31
0.0
 11
498.042144
 21
745.141462
 31
0.0
 11
496.316346
 21
745.595497
 31
0.0
 11
494.510497
 21
745.441812
 31
0.0
 11
492.868324
 21
744.688367
 31
0.0
 11
491.604953
 21
743.447919
 31
0.0
 11
490.837583
 21
741.835542
 31
0.0
 11
490.681058
 21
740.062461
 31
0.0
 11
491.143484
 21
738.367977
 31
0.0
 11
492.181963
 21
736.909286
 31
0.0
  0
LINE
  5
237
100
AcDbEntity
  8
Layer_1
 62
7
100
AcDbLine
 10
210.285780
 20
966.808975
 30
0.0
 11
210.285780
 21
966.808975
 31
0.0
  0
SPLINE
  5
238
100
AcDbEntity
  8
Layer_1
 62
7
100
AcDbSpline
 70
0
 71
3
 72
25
 73
21
 74
19
 40
0.000000
 40
0.000000
 40
0.000000
 40
0.000000
 40
1.801890
 40
3.586414
 40
5.398790
 40
7.205558
 40
8.976101
 40
10.761769
 40
12.541746
 40
14.298195
 40
16.088787
 40
17.890677
 40
19.675201
 40
21.487577
 40
23.294345
 40
25.064888
 40
26.850556
 40
28.630533
 40
30.386982
 40
32.177574
 40
32.177574
 40
32.177574
 40
32.177574
 10
210.285780
 20
966.808975
 30
0.0
 10
210.759793
 20
966.430260
 30
0.0
 10
211.703249
 20
965.676480
 30
0.0
 10
213.502819
 20
965.236581
 30
0.0
 10
215.326541
 20
965.384978
 30
0.0
 10
216.994950
 20
966.149740
 30
0.0
 10
218.297082
 20
967.425270
 30
0.0
 10
219.079431
 20
969.064963
 30
0.0
 10
219.239118
 20
970.870218
 30
0.0
 10
218.760890
 20
972.618523
 30
0.0
 10
217.703424
 20
974.100389
 30
0.0
 10
216.194274
 20
975.133690
 30
0.0
 10
214.419957
 20
975.599419
 30
0.0
 10
212.589425
 20
975.444056
 30
0.0
 10
210.922716
 20
974.681033
 30
0.0
 10
209.620581
 20
973.405501
 30
0.0
 10
208.836569
 20
971.764106
 30
0.0
 10
208.683499
 20
969.965620
 30
0.0
 10
209.137088
 20
968.192112
 30
0.0
 10
209.900434
 20
967.272970
 30
0.0
 10
210.285780
 20
966.808975
 30
0.0
 11
210.285780
 21
966.808975
 31
0.0
 11
211.771428
 21
965.789339
 31
0.0
 11
213.497226
 21
965.335303
 31
0.0
 11
215.303074
 21
965.488989
 31
0.0
 11
216.945247
 21
966.242434
 31
0.0
 11
218.208619
 21
967.482882
 31
0.0
 11
218.975988
 21
969.095258
 31
0.0
 11
219.132513
 21
970.868340
 31
0.0
 11
218.670087
 21
972.562824
 31
0.0
 11
217.631608
 21
974.021515
 31
0.0
 11
216.145961
 21
975.041151
 31
0.0
 11
214.420163
 21
975.495186
 31
0.0
 11
212.614314
 21
975.341501
 31
0.0
 11
210.972141
 21
974.588056
 31
0.0
 11
209.708770
 21
973.347607
 31
0.0
 11
208.941401
 21
971.735231
 31
0.0
 11
208.784875
 21
969.962150
 31
0.0
 11
209.247301
 21
968.267666
 31
0.0
 11
210.285780
 21
966.808975
 31
0.0
  0
LINE
  5
239
100
AcDbEntity
  8
Layer_1
 62
7
100
AcDbLine
 10
151.060090
 20
1007.830315
 30
0.0
 11
151.060090
 21
1007.830315
 31
0.0
  0
SPLINE
  5
23a
100
AcDbEntity
  8
Layer_1
 62
7
100
AcDbSpline
 70
0
 71
3
 72
25
 73
21
 74
19
 40
0.000000
 40
0.000000
 40
0.000000
 40
0.000000
 40
1.801890
 40
3.586414
 40
5.398790
 40
7.205558
 40
8.976101
 40
10.761769
 40
12.541746
 40
14.298195
 40
16.088787
 40
17.890677
 40
19.675201
 40
21.487577
 40
23.294345
 40
25.064888
 40
26.850556
 40
28.630533
 40
30.386982
 40
32.177574
 40
32.177574
 40
32.177574
 40
32.177574
 10
151.060090
 20
1007.830315
 30
0.0
 10
151.534103
 20
1007.451600
 30
0.0
 10
152.477559
 20
1006.697819
 30
0.0
 10
154.277129
 20
1006.257920
 30
0.0
 10
156.100851
 20
1006.406317
 30
0.0
 10
157.769260
 20
1007.171079
 30
0.0
 10
159.071392
 20
1008.446609
 30
0.0
 10
159.853741
 20
1010.086302
 30
0.0
 10
160.013429
 20
1011.891558
 30
0.0
 10
159.535200
 20
1013.639863
 30
0.0
 10
158.477734
 20
1015.121728
 30
0.0
 10
156.968585
 20
1016.155030
 30
0.0
 10
155.194267
 20
1016.620759
 30
0.0
 10
153.363735
 20
1016.465396
 30
0.0
 10
151.697026
 20
1015.702373
 30
0.0
 10
150.394891
 20
1014.426840
 30
0.0
 10
149.610879
 20
1012.785446
 30
0.0
 10
149.457809
 20
1010.986959
 30
0.0
 10
149.911399
 20
1009.213452
 30
0.0
 10
150.674744
 20
1008.294309
 30
0.0
 10
151.060090
 20
1007.830315
 30
0.0
 11
151.060090
 21
1007.830315
 31
0.0
 11
152.545738
 21
1006.810679
 31
0.0
 11
154.271536
 21
1006.356643
 31
0.0
 11
156.077384
 21
1006.510328
 31
0.0
 11
157.719557
 21
1007.263774
 31
0.0
 11
158.982929
 21
1008.504222
 31
0.0
 11
159.750298
 21
1010.116598
 31
0.0
 11
159.906823
 21
1011.889679
 31
0.0
 11
159.444397
 21
1013.584163
 31
0.0
 11
158.405918
 21
1015.042854
 31
0.0
 11
156.920271
 21
1016.062490
 31
0.0
 11
155.194473
 21
1016.516526
 31
0.0
 11
153.388625
 21
1016.362841
 31
0.0
 11
151.746452
 21
1015.609395
 31
0.0
 11
150.483080
 21
1014.368947
 31
0.0
 11
149.715711
 21
1012.756571
 31
0.0
 11
149.559185
 21
1010.983489
 31
0.0
 11
150.021611
 21
1009.289006
 31
0.0
 11
151.060090
 21
1007.830315
 31
0.0
  0
LINE
  5
23b
100
AcDbEntity
  8
Layer_1
 62
7
100
AcDbLine
 10
295.681089
 20
876.652212
 30
0.0
 11
295.681089
 21
876.652212
 31
0.0
  0
SPLINE
  5
23c
100
AcDbEntity
  8
Layer_1
 62
7
100
AcDbSpline
 70
0
 71
3
 72
25
 73
21
 74
19
 40
0.000000
 40
0.000000
 40
0.000000
 40
0.000000
 40
1.801890
 40
3.586414
 40
5.398790
 40
7.205558
 40
8.976101
 40
10.761769
 40
12.541746
 40
14.298195
 40
16.088787
 40
17.890677
 40
19.675201
 40
21.487577
 40
23.294345
 40
25.064888
 40
26.850556
 40
28.630533
 40
30.386982
 40
32.177574
 40
32.177574
 40
32.177574
 40
32.177574
 10
295.681089
 20
876.652212
 30
0.0
 10
296.155101
 20
876.273497
 30
0.0
 10
297.098557
 20
875.519717
 30
0.0
 10
298.898128
 20
875.079818
 30
0.0
 10
300.721849
 20
875.228215
 30
0.0
 10
302.390258
 20
875.992977
 30
0.0
 10
303.692391
 20
877.268507
 30
0.0
 10
304.474739
 20
878.908200
 30
0.0
 10
304.634427
 20
880.713455
 30
0.0
 10
304.156199
 20
882.461761
 30
0.0
 10
303.098733
 20
883.943626
 30
0.0
 10
301.589583
 20
884.976927
 30
0.0
 10
299.815265
 20
885.442657
 30
0.0
 10
297.984734
 20
885.287294
 30
0.0
 10
296.318024
 20
884.524270
 30
0.0
 10
295.015889
 20
883.248738
 30
0.0
 10
294.231878
 20
881.607344
 30
0.0
 10
294.078807
 20
879.808857
 30
0.0
 10
294.532397
 20
878.035349
 30
0.0
 10
295.295742
 20
877.116207
 30
0.0
 10
295.681089
 20
876.652212
 30
0.0
 11
295.681089
 21
876.652212
 31
0.0
 11
297.166737
 21
875.632576
 31
0.0
 11
298.892535
 21
875.178541
 31
0.0
 11
300.698383
 21
875.332226
 31
0.0
 11
302.340556
 21
876.085672
 31
0.0
 11
303.603928
 21
877.326120
 31
0.0
 11
304.371297
 21
878.938496
 31
0.0
 11
304.527822
 21
880.711577
 31
0.0
 11
304.065396
 21
882.406061
 31
0.0
 11
303.026917
 21
883.864752
 31
0.0
 11
301.541269
 21
884.884388
 31
0.0
 11
299.815471
 21
885.338424
 31
0.0
 11
298.009623
 21
885.184738
 31
0.0
 11
296.367450
 21
884.431293
 31
0.0
 11
295.104078
 21
883.190845
 31
0.0
 11
294.336709
 21
881.578469
 31
0.0
 11
294.180184
 21
879.805387
 31
0.0
 11
294.642610
 21
878.110903
 31
0.0
 11
295.681089
 21
876.652212
 31
0.0
  0
LINE
  5
23d
100
AcDbEntity
  8
Layer_1
 62
7
100
AcDbLine
 10
325.982583
 20
849.605194
 30
0.0
 11
325.982583
 21
849.605194
 31
0.0
  0
SPLINE
  5
23e
100
AcDbEntity
  8
Layer_1
 62
7
100
AcDbSpline
 70
0
 71
3
 72
25
 73
21
 74
19
 40
0.000000
 40
0.000000
 40
0.000000
 40
0.000000
 40
1.801890
 40
3.586414
 40
5.398790
 40
7.205558
 40
8.976101
 40
10.761769
 40
12.541746
 40
14.298195
 40
16.088787
 40
17.890677
 40
19.675201
 40
21.487577
 40
23.294345
 40
25.064888
 40
26.850556
 40
28.630533
 40
30.386982
 40
32.177574
 40
32.177574
 40
32.177574
 40
32.177574
 10
325.982583
 20
849.605194
 30
0.0
 10
326.456595
 20
849.226479
 30
0.0
 10
327.400051
 20
848.472699
 30
0.0
 10
329.199622
 20
848.032800
 30
0.0
 10
331.023343
 20
848.181197
 30
0.0
 10
332.691753
 20
848.945959
 30
0.0
 10
333.993885
 20
850.221489
 30
0.0
 10
334.776233
 20
851.861182
 30
0.0
 10
334.935921
 20
853.666437
 30
0.0
 10
334.457693
 20
855.414743
 30
0.0
 10
333.400227
 20
856.896608
 30
0.0
 10
331.891077
 20
857.929909
 30
0.0
 10
330.116759
 20
858.395639
 30
0.0
 10
328.286228
 20
858.240276
 30
0.0
 10
326.619518
 20
857.477252
 30
0.0
 10
325.317384
 20
856.201720
 30
0.0
 10
324.533372
 20
854.560325
 30
0.0
 10
324.380301
 20
852.761839
 30
0.0
 10
324.833891
 20
850.988331
 30
0.0
 10
325.597236
 20
850.069189
 30
0.0
 10
325.982583
 20
849.605194
 30
0.0
 11
325.982583
 21
849.605194
 31
0.0
 11
327.468231
 21
848.585558
 31
0.0
 11
329.194029
 21
848.131523
 31
0.0
 11
330.999877
 21
848.285208
 31
0.0
 11
332.642050
 21
849.038653
 31
0.0
 11
333.905422
 21
850.279101
 31
0.0
 11
334.672791
 21
851.891478
 31
0.0
 11
334.829316
 21
853.664559
 31
0.0
 11
334.366890
 21
855.359043
 31
0.0
 11
333.328411
 21
856.817734
 31
0.0
 11
331.842763
 21
857.837370
 31
0.0
 11
330.116965
 21
858.291405
 31
0.0
 11
328.311117
 21
858.137720
 31
0.0
 11
326.668944
 21
857.384275
 31
0.0
 11
325.405572
 21
856.143827
 31
0.0
 11
324.638203
 21
854.531450
 31
0.0
 11
324.481678
 21
852.758369
 31
0.0
 11
324.944104
 21
851.063885
 31
0.0
 11
325.982583
 21
849.605194
 31
0.0
  0
LINE
  5
23f
100
AcDbEntity
  8
Layer_1
 62
7
100
AcDbLine
 10
351.692991
 20
817.148769
 30
0.0
 11
351.692991
 21
817.148769
 31
0.0
  0
SPLINE
  5
240
100
AcDbEntity
  8
Layer_1
 62
7
100
AcDbSpline
 70
0
 71
3
 72
25
 73
21
 74
19
 40
0.000000
 40
0.000000
 40
0.000000
 40
0.000000
 40
1.801890
 40
3.586414
 40
5.398790
 40
7.205558
 40
8.976101
 40
10.761769
 40
12.541746
 40
14.298195
 40
16.088787
 40
17.890677
 40
19.675201
 40
21.487577
 40
23.294345
 40
25.064888
 40
26.850556
 40
28.630533
 40
30.386982
 40
32.177574
 40
32.177574
 40
32.177574
 40
32.177574
 10
351.692991
 20
817.148769
 30
0.0
 10
352.167003
 20
816.770054
 30
0.0
 10
353.110459
 20
816.016274
 30
0.0
 10
354.910029
 20
815.576375
 30
0.0
 10
356.733751
 20
815.724772
 30
0.0
 10
358.402160
 20
816.489534
 30
0.0
 10
359.704292
 20
817.765064
 30
0.0
 10
360.486641
 20
819.404757
 30
0.0
 10
360.646329
 20
821.210012
 30
0.0
 10
360.168100
 20
822.958318
 30
0.0
 10
359.110635
 20
824.440183
 30
0.0
 10
357.601485
 20
825.473484
 30
0.0
 10
355.827167
 20
825.939214
 30
0.0
 10
353.996635
 20
825.783851
 30
0.0
 10
352.329926
 20
825.020827
 30
0.0
 10
351.027791
 20
823.745295
 30
0.0
 10
350.243779
 20
822.103901
 30
0.0
 10
350.090709
 20
820.305414
 30
0.0
 10
350.544299
 20
818.531906
 30
0.0
 10
351.307644
 20
817.612764
 30
0.0
 10
351.692991
 20
817.148769
 30
0.0
 11
351.692991
 21
817.148769
 31
0.0
 11
353.178638
 21
816.129133
 31
0.0
 11
354.904436
 21
815.675098
 31
0.0
 11
356.710284
 21
815.828783
 31
0.0
 11
358.352457
 21
816.582228
 31
0.0
 11
359.615829
 21
817.822677
 31
0.0
 11
360.383198
 21
819.435053
 31
0.0
 11
360.539724
 21
821.208134
 31
0.0
 11
360.077297
 21
822.902618
 31
0.0
 11
359.038819
 21
824.361309
 31
0.0
 11
357.553171
 21
825.380945
 31
0.0
 11
355.827373
 21
825.834981
 31
0.0
 11
354.021525
 21
825.681295
 31
0.0
 11
352.379352
 21
824.927850
 31
0.0
 11
351.115980
 21
823.687402
 31
0.0
 11
350.348611
 21
822.075026
 31
0.0
 11
350.192085
 21
820.301944
 31
0.0
 11
350.654512
 21
818.607460
 31
0.0
 11
351.692991
 21
817.148769
 31
0.0
  0
LINE
  5
241
100
AcDbEntity
  8
Layer_1
 62
7
100
AcDbLine
 10
490.721664
 20
540.737053
 30
0.0
 11
490.721664
 21
540.737053
 31
0.0
  0
SPLINE
  5
242
100
AcDbEntity
  8
Layer_1
 62
7
100
AcDbSpline
 70
0
 71
3
 72
25
 73
21
 74
19
 40
0.000000
 40
0.000000
 40
0.000000
 40
0.000000
 40
4.700302
 40
9.310981
 40
13.983420
 40
18.670800
 40
23.318473
 40
28.061240
 40
32.818727
 40
37.503103
 40
42.233063
 40
46.933366
 40
51.544044
 40
56.216484
 40
60.903863
 40
65.551537
 40
70.294304
 40
75.051790
 40
79.736166
 40
84.466127
 40
84.466127
 40
84.466127
 40
84.466127
 10
490.721664
 20
540.737053
 30
0.0
 10
491.733199
 20
539.519067
 30
0.0
 10
493.736980
 20
537.106319
 30
0.0
 10
494.927654
 20
532.450861
 30
0.0
 10
494.525844
 20
527.729835
 30
0.0
 10
492.467813
 20
523.421175
 30
0.0
 10
489.049709
 20
520.072902
 30
0.0
 10
484.674597
 20
518.069966
 30
0.0
 10
479.869452
 20
517.662138
 30
0.0
 10
475.211868
 20
518.884678
 30
0.0
 10
471.250350
 20
521.597093
 30
0.0
 10
468.474502
 20
525.486990
 30
0.0
 10
467.219153
 20
530.076291
 30
0.0
 10
467.638333
 20
534.815086
 30
0.0
 10
469.691998
 20
539.119280
 30
0.0
 10
473.110095
 20
542.467546
 30
0.0
 10
477.489669
 20
544.475046
 30
0.0
 10
482.276938
 20
544.864588
 30
0.0
 10
487.000810
 20
543.709853
 30
0.0
 10
489.477382
 20
541.731180
 30
0.0
 10
490.721664
 20
540.737053
 30
0.0
 11
490.721664
 21
540.737053
 31
0.0
 11
493.447671
 21
536.907990
 31
0.0
 11
494.661540
 21
532.459970
 31
0.0
 11
494.250661
 21
527.805632
 31
0.0
 11
492.236317
 21
523.573144
 31
0.0
 11
488.919966
 21
520.316968
 31
0.0
 11
484.609262
 21
518.339174
 31
0.0
 11
479.868911
 21
517.935750
 31
0.0
 11
475.338692
 21
519.127594
 31
0.0
 11
471.438867
 21
521.804138
 31
0.0
 11
468.712860
 21
525.633202
 31
0.0
 11
467.498991
 21
530.081221
 31
0.0
 11
467.909870
 21
534.735560
 31
0.0
 11
469.924214
 21
538.968047
 31
0.0
 11
473.240565
 21
542.224223
 31
0.0
 11
477.551269
 21
544.202018
 31
0.0
 11
482.291620
 21
544.605441
 31
0.0
 11
486.821839
 21
543.413598
 31
0.0
 11
490.721664
 21
540.737053
 31
0.0
  0
LINE
  5
243
100
AcDbEntity
  8
Layer_1
 62
7
100
AcDbLine
 10
549.029107
 20
513.239285
 30
0.0
 11
549.029107
 21
513.239285
 31
0.0
  0
SPLINE
  5
244
100
AcDbEntity
  8
Layer_1
 62
7
100
AcDbSpline
 70
0
 71
3
 72
25
 73
21
 74
19
 40
0.000000
 40
0.000000
 40
0.000000
 40
0.000000
 40
4.700302
 40
9.310981
 40
13.983420
 40
18.670800
 40
23.318473
 40
28.061240
 40
32.818727
 40
37.503103
 40
42.233063
 40
46.933366
 40
51.544044
 40
56.216484
 40
60.903863
 40
65.551537
 40
70.294304
 40
75.051790
 40
79.736166
 40
84.466127
 40
84.466127
 40
84.466127
 40
84.466127
 10
549.029107
 20
513.239285
 30
0.0
 10
550.040641
 20
512.021299
 30
0.0
 10
552.044423
 20
509.608550
 30
0.0
 10
553.235096
 20
504.953093
 30
0.0
 10
552.833286
 20
500.232066
 30
0.0
 10
550.775255
 20
495.923406
 30
0.0
 10
547.357152
 20
492.575134
 30
0.0
 10
542.982040
 20
490.572197
 30
0.0
 10
538.176894
 20
490.164369
 30
0.0
 10
533.519311
 20
491.386909
 30
0.0
 10
529.557792
 20
494.099325
 30
0.0
 10
526.781945
 20
497.989221
 30
0.0
 10
525.526596
 20
502.578523
 30
0.0
 10
525.945776
 20
507.317317
 30
0.0
 10
527.999441
 20
511.621511
 30
0.0
 10
531.417538
 20
514.969777
 30
0.0
 10
535.797112
 20
516.977278
 30
0.0
 10
540.584380
 20
517.366820
 30
0.0
 10
545.308252
 20
516.212085
 30
0.0
 10
547.784825
 20
514.233412
 30
0.0
 10
549.029107
 20
513.239285
 30
0.0
 11
549.029107
 21
513.239285
 31
0.0
 11
551.755114
 21
509.410221
 31
0.0
 11
552.968983
 21
504.962201
 31
0.0
 11
552.558104
 21
500.307863
 31
0.0
 11
550.543760
 21
496.075376
 31
0.0
 11
547.227409
 21
492.819199
 31
0.0
 11
542.916705
 21
490.841405
 31
0.0
 11
538.176354
 21
490.437982
 31
0.0
 11
533.646134
 21
491.629825
 31
0.0
 11
529.746310
 21
494.306369
 31
0.0
 11
527.020302
 21
498.135433
 31
0.0
 11
525.806434
 21
502.583453
 31
0.0
 11
526.217313
 21
507.237791
 31
0.0
 11
528.231657
 21
511.470278
 31
0.0
 11
531.548008
 21
514.726455
 31
0.0
 11
535.858711
 21
516.704249
 31
0.0
 11
540.599062
 21
517.107673
 31
0.0
 11
545.129282
 21
515.915829
 31
0.0
 11
549.029107
 21
513.239285
 31
0.0
  0
LINE
  5
245
100
AcDbEntity
  8
Layer_1
 62
7
100
AcDbLine
 10
610.091311
 20
475.824222
 30
0.0
 11
610.091311
 21
475.824222
 31
0.0
  0
SPLINE
  5
246
100
AcDbEntity
  8
Layer_1
 62
7
100
AcDbSpline
 70
0
 71
3
 72
25
 73
21
 74
19
 40
0.000000
 40
0.000000
 40
0.000000
 40
0.000000
 40
4.700302
 40
9.310981
 40
13.983420
 40
18.670800
 40
23.318473
 40
28.061240
 40
32.818727
 40
37.503103
 40
42.233063
 40
46.933366
 40
51.544044
 40
56.216484
 40
60.903863
 40
65.551537
 40
70.294304
 40
75.051790
 40
79.736166
 40
84.466127
 40
84.466127
 40
84.466127
 40
84.466127
 10
610.091311
 20
475.824222
 30
0.0
 10
611.102846
 20
474.606236
 30
0.0
 10
613.106627
 20
472.193488
 30
0.0
 10
614.297300
 20
467.538030
 30
0.0
 10
613.895491
 20
462.817004
 30
0.0
 10
611.837460
 20
458.508344
 30
0.0
 10
608.419356
 20
455.160071
 30
0.0
 10
604.044244
 20
453.157135
 30
0.0
 10
599.239099
 20
452.749307
 30
0.0
 10
594.581515
 20
453.971847
 30
0.0
 10
590.619997
 20
456.684262
 30
0.0
 10
587.844149
 20
460.574159
 30
0.0
 10
586.588800
 20
465.163460
 30
0.0
 10
587.007980
 20
469.902255
 30
0.0
 10
589.061645
 20
474.206449
 30
0.0
 10
592.479742
 20
477.554715
 30
0.0
 10
596.859316
 20
479.562215
 30
0.0
 10
601.646585
 20
479.951757
 30
0.0
 10
606.370457
 20
478.797022
 30
0.0
 10
608.847029
 20
476.818349
 30
0.0
 10
610.091311
 20
475.824222
 30
0.0
 11
610.091311
 21
475.824222
 31
0.0
 11
612.817318
 21
471.995159
 31
0.0
 11
614.031187
 21
467.547139
 31
0.0
 11
613.620308
 21
462.892800
 31
0.0
 11
611.605964
 21
458.660313
 31
0.0
 11
608.289613
 21
455.404137
 31
0.0
 11
603.978909
 21
453.426343
 31
0.0
 11
599.238558
 21
453.022919
 31
0.0
 11
594.708339
 21
454.214762
 31
0.0
 11
590.808514
 21
456.891307
 31
0.0
 11
588.082507
 21
460.720370
 31
0.0
 11
586.868638
 21
465.168390
 31
0.0
 11
587.279517
 21
469.822729
 31
0.0
 11
589.293861
 21
474.055216
 31
0.0
 11
592.610212
 21
477.311392
 31
0.0
 11
596.920916
 21
479.289186
 31
0.0
 11
601.661267
 21
479.692610
 31
0.0
 11
606.191486
 21
478.500767
 31
0.0
 11
610.091311
 21
475.824222
 31
0.0
  0
LINE
  5
247
100
AcDbEntity
  8
Layer_1
 62
7
100
AcDbLine
 10
423.690954
 20
556.063721
 30
0.0
 11
423.690954
 21
556.063721
 31
0.0
  0
LINE
  5
248
100
AcDbEntity
  8
Layer_1
 62
7
100
AcDbLine
 10
319.931223
 20
721.952109
 30
0.0
 11
309.255887
 21
721.821903
 31
0.0
  0
LINE
  5
249
100
AcDbEntity
  8
Layer_1
 62
7
100
AcDbLine
 10
309.255887
 20
721.821903
 30
0.0
 11
305.293701
 21
712.088083
 31
0.0
  0
LINE
  5
24a
100
AcDbEntity
  8
Layer_1
 62
7
100
AcDbLine
 10
305.293701
 20
712.088083
 30
0.0
 11
301.868721
 21
722.016478
 31
0.0
  0
LINE
  5
24b
100
AcDbEntity
  8
Layer_1
 62
7
100
AcDbLine
 10
301.868721
 20
722.016478
 30
0.0
 11
291.215852
 21
722.708448
 31
0.0
  0
LINE
  5
24c
100
AcDbEntity
  8
Layer_1
 62
7
100
AcDbLine
 10
291.215852
 20
722.708448
 30
0.0
 11
299.774431
 21
728.974741
 31
0.0
  0
LINE
  5
24d
100
AcDbEntity
  8
Layer_1
 62
7
100
AcDbLine
 10
299.774431
 20
728.974741
 30
0.0
 11
297.152787
 21
739.136218
 31
0.0
  0
LINE
  5
24e
100
AcDbEntity
  8
Layer_1
 62
7
100
AcDbLine
 10
297.152787
 20
739.136218
 30
0.0
 11
305.867255
 21
733.080604
 31
0.0
  0
LINE
  5
24f
100
AcDbEntity
  8
Layer_1
 62
7
100
AcDbLine
 10
305.867255
 20
733.080604
 30
0.0
 11
314.899855
 21
738.668771
 31
0.0
  0
LINE
  5
250
100
AcDbEntity
  8
Layer_1
 62
7
100
AcDbLine
 10
314.899855
 20
738.668771
 30
0.0
 11
311.727122
 21
728.659912
 31
0.0
  0
LINE
  5
251
100
AcDbEntity
  8
Layer_1
 62
7
100
AcDbLine
 10
311.727122
 20
728.659912
 30
0.0
 11
319.931223
 21
721.952109
 31
0.0
  0
LINE
  5
252
100
AcDbEntity
  8
Layer_1
 62
7
100
AcDbLine
 10
270.840809
 20
775.095715
 30
0.0
 11
263.275500
 21
774.053943
 31
0.0
  0
LINE
  5
253
100
AcDbEntity
  8
Layer_1
 62
7
100
AcDbLine
 10
263.275500
 20
774.053943
 30
0.0
 11
261.361063
 21
766.792557
 31
0.0
  0
LINE
  5
254
100
AcDbEntity
  8
Layer_1
 62
7
100
AcDbLine
 10
261.361063
 20
766.792557
 30
0.0
 11
258.014162
 21
773.535118
 31
0.0
  0
LINE
  5
255
100
AcDbEntity
  8
Layer_1
 62
7
100
AcDbLine
 10
258.014162
 20
773.535118
 30
0.0
 11
250.388961
 21
773.078920
 31
0.0
  0
LINE
  5
256
100
AcDbEntity
  8
Layer_1
 62
7
100
AcDbLine
 10
250.388961
 20
773.078920
 30
0.0
 11
255.885754
 21
778.287827
 31
0.0
  0
LINE
  5
257
100
AcDbEntity
  8
Layer_1
 62
7
100
AcDbLine
 10
255.885754
 20
778.287827
 30
0.0
 11
253.087551
 21
785.267272
 31
0.0
  0
LINE
  5
258
100
AcDbEntity
  8
Layer_1
 62
7
100
AcDbLine
 10
253.087551
 20
785.267272
 30
0.0
 11
259.831669
 21
781.743991
 31
0.0
  0
LINE
  5
259
100
AcDbEntity
  8
Layer_1
 62
7
100
AcDbLine
 10
259.831669
 20
781.743991
 30
0.0
 11
265.727490
 21
786.513722
 31
0.0
  0
LINE
  5
25a
100
AcDbEntity
  8
Layer_1
 62
7
100
AcDbLine
 10
265.727490
 20
786.513722
 30
0.0
 11
264.398778
 21
779.127316
 31
0.0
  0
LINE
  5
25b
100
AcDbEntity
  8
Layer_1
 62
7
100
AcDbLine
 10
264.398778
 20
779.127316
 30
0.0
 11
270.840809
 21
775.095715
 31
0.0
  0
LINE
  5
25c
100
AcDbEntity
  8
Layer_1
 62
7
100
AcDbLine
 10
229.492803
 20
824.910686
 30
0.0
 11
221.927494
 21
823.868914
 31
0.0
  0
LINE
  5
25d
100
AcDbEntity
  8
Layer_1
 62
7
100
AcDbLine
 10
221.927494
 20
823.868914
 30
0.0
 11
220.013061
 21
816.607524
 31
0.0
  0
LINE
  5
25e
100
AcDbEntity
  8
Layer_1
 62
7
100
AcDbLine
 10
220.013061
 20
816.607524
 30
0.0
 11
216.666160
 21
823.350084
 31
0.0
  0
LINE
  5
25f
100
AcDbEntity
  8
Layer_1
 62
7
100
AcDbLine
 10
216.666160
 20
823.350084
 30
0.0
 11
209.040954
 21
822.893891
 31
0.0
  0
LINE
  5
260
100
AcDbEntity
  8
Layer_1
 62
7
100
AcDbLine
 10
209.040954
 20
822.893891
 30
0.0
 11
214.537752
 21
828.102803
 31
0.0
  0
LINE
  5
261
100
AcDbEntity
  8
Layer_1
 62
7
100
AcDbLine
 10
214.537752
 20
828.102803
 30
0.0
 11
211.739550
 21
835.082248
 31
0.0
  0
LINE
  5
262
100
AcDbEntity
  8
Layer_1
 62
7
100
AcDbLine
 10
211.739550
 20
835.082248
 30
0.0
 11
218.483668
 21
831.558967
 31
0.0
  0
LINE
  5
263
100
AcDbEntity
  8
Layer_1
 62
7
100
AcDbLine
 10
218.483668
 20
831.558967
 30
0.0
 11
224.379488
 21
836.328698
 31
0.0
  0
LINE
  5
264
100
AcDbEntity
  8
Layer_1
 62
7
100
AcDbLine
 10
224.379488
 20
836.328698
 30
0.0
 11
223.050772
 21
828.942287
 31
0.0
  0
LINE
  5
265
100
AcDbEntity
  8
Layer_1
 62
7
100
AcDbLine
 10
223.050772
 20
828.942287
 30
0.0
 11
229.492803
 21
824.910686
 31
0.0
  0
LINE
  5
266
100
AcDbEntity
  8
Layer_1
 62
7
100
AcDbLine
 10
187.254228
 20
894.331352
 30
0.0
 11
179.688919
 21
893.289580
 31
0.0
  0
LINE
  5
267
100
AcDbEntity
  8
Layer_1
 62
7
100
AcDbLine
 10
179.688919
 20
893.289580
 30
0.0
 11
177.774487
 21
886.028189
 31
0.0
  0
LINE
  5
268
100
AcDbEntity
  8
Layer_1
 62
7
100
AcDbLine
 10
177.774487
 20
886.028189
 30
0.0
 11
174.427586
 21
892.770750
 31
0.0
  0
LINE
  5
269
100
AcDbEntity
  8
Layer_1
 62
7
100
AcDbLine
 10
174.427586
 20
892.770750
 30
0.0
 11
166.802380
 21
892.314557
 31
0.0
  0
LINE
  5
26a
100
AcDbEntity
  8
Layer_1
 62
7
100
AcDbLine
 10
166.802380
 20
892.314557
 30
0.0
 11
172.299178
 21
897.523469
 31
0.0
  0
LINE
  5
26b
100
AcDbEntity
  8
Layer_1
 62
7
100
AcDbLine
 10
172.299178
 20
897.523469
 30
0.0
 11
169.500975
 21
904.502913
 31
0.0
  0
LINE
  5
26c
100
AcDbEntity
  8
Layer_1
 62
7
100
AcDbLine
 10
169.500975
 20
904.502913
 30
0.0
 11
176.245093
 21
900.979633
 31
0.0
  0
LINE
  5
26d
100
AcDbEntity
  8
Layer_1
 62
7
100
AcDbLine
 10
176.245093
 20
900.979633
 30
0.0
 11
182.140914
 21
905.749363
 31
0.0
  0
LINE
  5
26e
100
AcDbEntity
  8
Layer_1
 62
7
100
AcDbLine
 10
182.140914
 20
905.749363
 30
0.0
 11
180.812197
 21
898.362952
 31
0.0
  0
LINE
  5
26f
100
AcDbEntity
  8
Layer_1
 62
7
100
AcDbLine
 10
180.812197
 20
898.362952
 30
0.0
 11
187.254228
 21
894.331352
 31
0.0
  0
LINE
  5
270
100
AcDbEntity
  8
Layer_1
 62
7
100
AcDbLine
 10
150.984233
 20
957.891908
 30
0.0
 11
143.418914
 21
956.850127
 31
0.0
  0
LINE
  5
271
100
AcDbEntity
  8
Layer_1
 62
7
100
AcDbLine
 10
143.418914
 20
956.850127
 30
0.0
 11
141.504477
 21
949.588741
 31
0.0
  0
LINE
  5
272
100
AcDbEntity
  8
Layer_1
 62
7
100
AcDbLine
 10
141.504477
 20
949.588741
 30
0.0
 11
138.157571
 21
956.331287
 31
0.0
  0
LINE
  5
273
100
AcDbEntity
  8
Layer_1
 62
7
100
AcDbLine
 10
138.157571
 20
956.331287
 30
0.0
 11
130.532370
 21
955.875099
 31
0.0
  0
LINE
  5
274
100
AcDbEntity
  8
Layer_1
 62
7
100
AcDbLine
 10
130.532370
 20
955.875099
 30
0.0
 11
136.029193
 21
961.084035
 31
0.0
  0
LINE
  5
275
100
AcDbEntity
  8
Layer_1
 62
7
100
AcDbLine
 10
136.029193
 20
961.084035
 30
0.0
 11
133.230985
 21
968.063474
 31
0.0
  0
LINE
  5
276
100
AcDbEntity
  8
Layer_1
 62
7
100
AcDbLine
 10
133.230985
 20
968.063474
 30
0.0
 11
139.975088
 21
964.540180
 31
0.0
  0
LINE
  5
277
100
AcDbEntity
  8
Layer_1
 62
7
100
AcDbLine
 10
139.975088
 20
964.540180
 30
0.0
 11
145.870894
 21
969.309896
 31
0.0
  0
LINE
  5
278
100
AcDbEntity
  8
Layer_1
 62
7
100
AcDbLine
 10
145.870894
 20
969.309896
 30
0.0
 11
144.542192
 21
961.923499
 31
0.0
  0
LINE
  5
279
100
AcDbEntity
  8
Layer_1
 62
7
100
AcDbLine
 10
144.542192
 20
961.923499
 30
0.0
 11
150.984233
 21
957.891908
 31
0.0
  0
SPLINE
  5
27a
100
AcDbEntity
  8
Layer_1
 62
7
100
AcDbSpline
 70
0
 71
3
 72
25
 73
21
 74
19
 40
0.000000
 40
0.000000
 40
0.000000
 40
0.000000
 40
4.700302
 40
9.310981
 40
13.983420
 40
18.670800
 40
23.318473
 40
28.061240
 40
32.818727
 40
37.503103
 40
42.233063
 40
46.933366
 40
51.544044
 40
56.216484
 40
60.903863
 40
65.551537
 40
70.294304
 40
75.051790
 40
79.736166
 40
84.466127
 40
84.466127
 40
84.466127
 40
84.466127
 10
423.690954
 20
556.063721
 30
0.0
 10
424.702488
 20
554.845735
 30
0.0
 10
426.706270
 20
552.432986
 30
0.0
 10
427.896943
 20
547.777529
 30
0.0
 10
427.495133
 20
543.056502
 30
0.0
 10
425.437102
 20
538.747842
 30
0.0
 10
422.018999
 20
535.399570
 30
0.0
 10
417.643887
 20
533.396633
 30
0.0
 10
412.838741
 20
532.988805
 30
0.0
 10
408.181157
 20
534.211345
 30
0.0
 10
404.219639
 20
536.923761
 30
0.0
 10
401.443792
 20
540.813657
 30
0.0
 10
400.188442
 20
545.402959
 30
0.0
 10
400.607623
 20
550.141753
 30
0.0
 10
402.661288
 20
554.445947
 30
0.0
 10
406.079385
 20
557.794213
 30
0.0
 10
410.458959
 20
559.801714
 30
0.0
 10
415.246227
 20
560.191255
 30
0.0
 10
419.970099
 20
559.036520
 30
0.0
 10
422.446672
 20
557.057848
 30
0.0
 10
423.690954
 20
556.063721
 30
0.0
 11
423.690954
 21
556.063721
 31
0.0
 11
426.416961
 21
552.234657
 31
0.0
 11
427.630829
 21
547.786637
 31
0.0
 11
427.219950
 21
543.132299
 31
0.0
 11
425.205607
 21
538.899812
 31
0.0
 11
421.889256
 21
535.643635
 31
0.0
 11
417.578552
 21
533.665841
 31
0.0
 11
412.838201
 21
533.262417
 31
0.0
 11
408.307981
 21
534.454261
 31
0.0
 11
404.408156
 21
537.130805
 31
0.0
 11
401.682149
 21
540.959869
 31
0.0
 11
400.468281
 21
545.407889
 31
0.0
 11
400.879160
 21
550.062227
 31
0.0
 11
402.893503
 21
554.294714
 31
0.0
 11
406.209854
 21
557.550891
 31
0.0
 11
410.520558
 21
559.528685
 31
0.0
 11
415.260909
 21
559.932108
 31
0.0
 11
419.791129
 21
558.740265
 31
0.0
 11
423.690954
 21
556.063721
 31
0.0
  0
SPLINE
  5
27b
100
AcDbEntity
  8
Layer_1
 62
1
100
AcDbSpline
 70
0
 71
3
 72
10
 73
6
 74
4
 40
0.000000
 40
0.000000
 40
0.000000
 40
0.000000
 40
200.506998
 40
305.099486
 40
339.381166
 40
339.381166
 40
339.381166
 40
339.381166
 10
679.088650
 20
440.683086
 30
0.0
 10
625.915730
 20
481.089822
 30
0.0
 10
545.005682
 20
542.574331
 30
0.0
 10
432.549935
 20
579.710239
 30
0.0
 10
386.572725
 20
572.511155
 30
0.0
 10
375.223055
 20
570.734030
 30
0.0
 11
679.088650
 21
440.683086
 31
0.0
 11
510.851575
 21
549.767194
 31
0.0
 11
409.274471
 21
574.700717
 31
0.0
 11
375.223055
 21
570.734030
 31
0.0
  0
SPLINE
  5
27c
100
AcDbEntity
  8
Layer_1
 62
1
100
AcDbSpline
 70
0
 71
3
 72
10
 73
6
 74
4
 40
0.000000
 40
0.000000
 40
0.000000
 40
0.000000
 40
200.429986
 40
295.301973
 40
325.993511
 40
325.993511
 40
325.993511
 40
325.993511
 10
620.652944
 20
500.608513
 30
0.0
 10
572.072096
 20
545.831582
 30
0.0
 10
500.495878
 20
612.460640
 30
0.0
 10
390.395856
 20
654.219058
 30
0.0
 10
350.028604
 20
641.434428
 30
0.0
 10
340.161622
 20
638.309476
 30
0.0
 11
620.652944
 21
500.608513
 31
0.0
 11
461.938706
 21
623.009371
 31
0.0
 11
369.884461
 21
645.959531
 31
0.0
 11
340.161622
 21
638.309476
 31
0.0
  0
SPLINE
  5
27d
100
AcDbEntity
  8
Layer_1
 62
1
100
AcDbSpline
 70
0
 71
3
 72
10
 73
6
 74
4
 40
0.000000
 40
0.000000
 40
0.000000
 40
0.000000
 40
199.224744
 40
252.564724
 40
280.331184
 40
280.331184
 40
280.331184
 40
280.331184
 10
488.198699
 20
635.759453
 30
0.0
 10
449.633980
 20
690.683024
 30
0.0
 10
400.744030
 20
760.311707
 30
0.0
 10
277.287920
 20
768.078985
 30
0.0
 10
275.757114
 20
737.893829
 30
0.0
 10
275.233049
 20
727.560064
 30
0.0
 11
488.198699
 21
635.759453
 31
0.0
 11
333.716850
 21
761.560315
 31
0.0
 11
280.812099
 21
754.760257
 31
0.0
 11
275.233049
 21
727.560064
 31
0.0
  0
SPLINE
  5
27e
100
AcDbEntity
  8
Layer_1
 62
1
100
AcDbSpline
 70
0
 71
3
 72
10
 73
6
 74
4
 40
0.000000
 40
0.000000
 40
0.000000
 40
0.000000
 40
97.165941
 40
176.792617
 40
211.597707
 40
211.597707
 40
211.597707
 40
211.597707
 10
328.474510
 20
764.535338
 30
0.0
 10
300.621938
 20
782.048981
 30
0.0
 10
249.944415
 20
813.914906
 30
0.0
 10
214.128355
 20
877.197414
 30
0.0
 10
201.239125
 20
913.016774
 30
0.0
 10
197.318790
 20
923.911442
 30
0.0
 11
328.474510
 21
764.535338
 31
0.0
 11
251.185462
 21
823.421866
 31
0.0
 11
209.679268
 21
891.375110
 31
0.0
 11
197.318790
 21
923.911442
 31
0.0
  0
SPLINE
  5
27f
100
AcDbEntity
  8
Layer_1
 62
1
100
AcDbSpline
 70
0
 71
3
 72
10
 73
6
 74
4
 40
0.000000
 40
0.000000
 40
0.000000
 40
0.000000
 40
104.862996
 40
159.768063
 40
177.459840
 40
177.459840
 40
177.459840
 40
177.459840
 10
463.450398
 20
660.639559
 30
0.0
 10
430.407349
 20
671.900957
 30
0.0
 10
380.063337
 20
689.058696
 30
0.0
 10
318.589787
 20
691.047833
 30
0.0
 10
296.258131
 20
681.448970
 30
0.0
 10
290.815929
 20
679.109737
 30
0.0
 11
463.450398
 21
660.639559
 31
0.0
 11
362.166893
 21
687.803860
 31
0.0
 11
307.309803
 21
685.509041
 31
0.0
 11
290.815929
 21
679.109737
 31
0.0
  0
SPLINE
  5
280
100
AcDbEntity
  8
Layer_1
 62
1
100
AcDbSpline
 70
0
 71
3
 72
10
 73
6
 74
4
 40
0.000000
 40
0.000000
 40
0.000000
 40
0.000000
 40
96.251931
 40
157.895029
 40
203.927060
 40
203.927060
 40
203.927060
 40
203.927060
 10
379.156965
 20
756.662441
 30
0.0
 10
350.548815
 20
770.866707
 30
0.0
 10
303.619006
 20
794.167880
 30
0.0
 10
250.129129
 20
840.876874
 30
0.0
 10
240.170699
 20
875.986393
 30
0.0
 10
235.913386
 20
890.996009
 30
0.0
 11
379.156965
 21
756.662441
 31
0.0
 11
295.381580
 21
804.055680
 31
0.0
 11
252.027093
 21
847.876451
 31
0.0
 11
235.913386
 21
890.996009
 31
0.0
  0
SPLINE
  5
281
100
AcDbEntity
  8
Layer_1
 62
1
100
AcDbSpline
 70
0
 71
3
 72
10
 73
6
 74
4
 40
0.000000
 40
0.000000
 40
0.000000
 40
0.000000
 40
153.382487
 40
228.596314
 40
252.236559
 40
252.236559
 40
252.236559
 40
252.236559
 10
589.890402
 20
514.591560
 30
0.0
 10
549.038864
 20
544.887397
 30
0.0
 10
488.155048
 20
590.039336
 30
0.0
 10
403.483755
 20
617.814547
 30
0.0
 10
371.254472
 20
609.816479
 30
0.0
 10
363.547069
 20
607.903798
 30
0.0
 11
589.890402
 21
514.591560
 31
0.0
 11
460.199150
 21
596.483966
 31
0.0
 11
386.723851
 21
612.561909
 31
0.0
 11
363.547069
 21
607.903798
 31
0.0
  0
LINE
  5
282
100
AcDbEntity
  8
Layer_1
 62
7
100
AcDbLine
 10
444.351177
 20
521.353333
 30
0.0
 11
444.351177
 21
521.353333
 31
0.0
  0
SPLINE
  5
283
100
AcDbEntity
  8
Layer_1
 62
7
100
AcDbSpline
 70
0
 71
3
 72
22
 73
18
 74
16
 40
0.000000
 40
0.000000
 40
0.000000
 40
0.000000
 40
1.790591
 40
3.547041
 40
5.327018
 40
7.112686
 40
8.883228
 40
10.689997
 40
12.502373
 40
14.286897
 40
16.088787
 40
18.767690
 40
21.355199
 40
24.034102
 40
26.737846
 40
29.373173
 40
32.076918
 40
32.076918
 40
32.076918
 40
32.076918
 10
444.351177
 20
521.353333
 30
0.0
 10
444.736524
 20
520.889338
 30
0.0
 10
445.499869
 20
519.970196
 30
0.0
 10
445.953459
 20
518.196688
 30
0.0
 10
445.800389
 20
516.398200
 30
0.0
 10
445.016376
 20
514.756812
 30
0.0
 10
443.714246
 20
513.481258
 30
0.0
 10
442.047518
 20
512.718315
 30
0.0
 10
440.217057
 20
512.562651
 30
0.0
 10
438.442478
 20
513.029491
 30
0.0
 10
436.685147
 20
514.228650
 30
0.0
 10
435.426516
 20
516.361876
 30
0.0
 10
435.427260
 20
519.132065
 30
0.0
 10
436.843417
 20
521.538629
 30
0.0
 10
439.268442
 20
522.890410
 30
0.0
 10
442.120778
 20
522.949252
 30
0.0
 10
443.601387
 20
521.889831
 30
0.0
 10
444.351177
 20
521.353333
 30
0.0
 11
444.351177
 21
521.353333
 31
0.0
 11
445.389656
 21
519.894642
 31
0.0
 11
445.852083
 21
518.200158
 31
0.0
 11
445.695557
 21
516.427077
 31
0.0
 11
444.928188
 21
514.814700
 31
0.0
 11
443.664816
 21
513.574252
 31
0.0
 11
442.022643
 21
512.820807
 31
0.0
 11
440.216795
 21
512.667122
 31
0.0
 11
438.490997
 21
513.121157
 31
0.0
 11
437.005350
 21
514.140793
 31
0.0
 11
435.653020
 21
516.453308
 31
0.0
 11
435.653020
 21
519.040818
 31
0.0
 11
437.005350
 21
521.353332
 31
0.0
 11
439.360600
 21
522.681124
 31
0.0
 11
441.995927
 21
522.681124
 31
0.0
 11
444.351177
 21
521.353333
 31
0.0
  0
LINE
  5
284
100
AcDbEntity
  8
Layer_1
 62
7
100
AcDbLine
 10
500.822203
 20
499.264890
 30
0.0
 11
500.822203
 21
499.264890
 31
0.0
  0
SPLINE
  5
285
100
AcDbEntity
  8
Layer_1
 62
7
100
AcDbSpline
 70
0
 71
3
 72
25
 73
21
 74
19
 40
0.000000
 40
0.000000
 40
0.000000
 40
0.000000
 40
1.790591
 40
3.547041
 40
5.327018
 40
7.112686
 40
8.883228
 40
10.689997
 40
12.502373
 40
14.286897
 40
16.088787
 40
17.879378
 40
19.635827
 40
21.415804
 40
23.201473
 40
24.972015
 40
26.778784
 40
28.591160
 40
30.375684
 40
32.177574
 40
32.177574
 40
32.177574
 40
32.177574
 10
500.822203
 20
499.264890
 30
0.0
 10
501.207550
 20
498.800895
 30
0.0
 10
501.970895
 20
497.881753
 30
0.0
 10
502.424485
 20
496.108245
 30
0.0
 10
502.271414
 20
494.309758
 30
0.0
 10
501.487403
 20
492.668364
 30
0.0
 10
500.185268
 20
491.392832
 30
0.0
 10
498.518558
 20
490.629808
 30
0.0
 10
496.688027
 20
490.474445
 30
0.0
 10
494.913709
 20
490.940175
 30
0.0
 10
493.404559
 20
491.973476
 30
0.0
 10
492.347093
 20
493.455341
 30
0.0
 10
491.868865
 20
495.203647
 30
0.0
 10
492.028553
 20
497.008902
 30
0.0
 10
492.810901
 20
498.648595
 30
0.0
 10
494.113034
 20
499.924125
 30
0.0
 10
495.781443
 20
500.688887
 30
0.0
 10
497.605164
 20
500.837284
 30
0.0
 10
499.404735
 20
500.397385
 30
0.0
 10
500.348191
 20
499.643605
 30
0.0
 10
500.822203
 20
499.264890
 30
0.0
 11
500.822203
 21
499.264890
 31
0.0
 11
501.860682
 21
497.806199
 31
0.0
 11
502.323108
 21
496.111715
 31
0.0
 11
502.166583
 21
494.338633
 31
0.0
 11
501.399214
 21
492.726257
 31
0.0
 11
500.135842
 21
491.485809
 31
0.0
 11
498.493669
 21
490.732364
 31
0.0
 11
496.687821
 21
490.578678
 31
0.0
 11
494.962023
 21
491.032714
 31
0.0
 11
493.476375
 21
492.052350
 31
0.0
 11
492.437896
 21
493.511041
 31
0.0
 11
491.975470
 21
495.205525
 31
0.0
 11
492.131995
 21
496.978606
 31
0.0
 11
492.899364
 21
498.590982
 31
0.0
 11
494.162736
 21
499.831431
 31
0.0
 11
495.804909
 21
500.584876
 31
0.0
 11
497.610757
 21
500.738561
 31
0.0
 11
499.336555
 21
500.284526
 31
0.0
 11
500.822203
 21
499.264890
 31
0.0
  0
LINE
  5
286
100
AcDbEntity
  8
Layer_1
 62
7
100
AcDbLine
 10
558.670629
 20
474.021019
 30
0.0
 11
558.670629
 21
474.021019
 31
0.0
  0
SPLINE
  5
287
100
AcDbEntity
  8
Layer_1
 62
7
100
AcDbSpline
 70
0
 71
3
 72
25
 73
21
 74
19
 40
0.000000
 40
0.000000
 40
0.000000
 40
0.000000
 40
1.790591
 40
3.547041
 40
5.327018
 40
7.112686
 40
8.883228
 40
10.689997
 40
12.502373
 40
14.286897
 40
16.088787
 40
17.879378
 40
19.635827
 40
21.415804
 40
23.201473
 40
24.972015
 40
26.778784
 40
28.591160
 40
30.375684
 40
32.177574
 40
32.177574
 40
32.177574
 40
32.177574
 10
558.670629
 20
474.021019
 30
0.0
 10
559.055975
 20
473.557024
 30
0.0
 10
559.819321
 20
472.637882
 30
0.0
 10
560.272911
 20
470.864374
 30
0.0
 10
560.119840
 20
469.065888
 30
0.0
 10
559.335828
 20
467.424494
 30
0.0
 10
558.033694
 20
466.148961
 30
0.0
 10
556.366984
 20
465.385938
 30
0.0
 10
554.536453
 20
465.230575
 30
0.0
 10
552.762135
 20
465.696304
 30
0.0
 10
551.252985
 20
466.729605
 30
0.0
 10
550.195519
 20
468.211471
 30
0.0
 10
549.717291
 20
469.959776
 30
0.0
 10
549.876978
 20
471.765031
 30
0.0
 10
550.659327
 20
473.404724
 30
0.0
 10
551.961459
 20
474.680254
 30
0.0
 10
553.629869
 20
475.445017
 30
0.0
 10
555.453590
 20
475.593413
 30
0.0
 10
557.253160
 20
475.153514
 30
0.0
 10
558.196617
 20
474.399734
 30
0.0
 10
558.670629
 20
474.021019
 30
0.0
 11
558.670629
 21
474.021019
 31
0.0
 11
559.709108
 21
472.562328
 31
0.0
 11
560.171534
 21
470.867844
 31
0.0
 11
560.015009
 21
469.094763
 31
0.0
 11
559.247640
 21
467.482387
 31
0.0
 11
557.984268
 21
466.241939
 31
0.0
 11
556.342095
 21
465.488493
 31
0.0
 11
554.536247
 21
465.334808
 31
0.0
 11
552.810449
 21
465.788844
 31
0.0
 11
551.324801
 21
466.808480
 31
0.0
 11
550.286322
 21
468.267171
 31
0.0
 11
549.823896
 21
469.961654
 31
0.0
 11
549.980421
 21
471.734736
 31
0.0
 11
550.747790
 21
473.347112
 31
0.0
 11
552.011162
 21
474.587560
 31
0.0
 11
553.653335
 21
475.341006
 31
0.0
 11
555.459183
 21
475.494691
 31
0.0
 11
557.184981
 21
475.040655
 31
0.0
 11
558.670629
 21
474.021019
 31
0.0
  0
LINE
  5
288
100
AcDbEntity
  8
Layer_1
 62
7
100
AcDbLine
 10
340.591324
 20
668.308809
 30
0.0
 11
340.591324
 21
668.308809
 31
0.0
  0
SPLINE
  5
289
100
AcDbEntity
  8
Layer_1
 62
7
100
AcDbSpline
 70
0
 71
3
 72
22
 73
18
 74
16
 40
0.000000
 40
0.000000
 40
0.000000
 40
0.000000
 40
1.790591
 40
3.547041
 40
5.327018
 40
7.112686
 40
8.883228
 40
10.689997
 40
12.502373
 40
14.286897
 40
16.088787
 40
18.767690
 40
21.355199
 40
24.034102
 40
26.737846
 40
29.373173
 40
32.076918
 40
32.076918
 40
32.076918
 40
32.076918
 10
340.591324
 20
668.308809
 30
0.0
 10
340.976671
 20
667.844815
 30
0.0
 10
341.740016
 20
666.925672
 30
0.0
 10
342.193606
 20
665.152165
 30
0.0
 10
342.040536
 20
663.353677
 30
0.0
 10
341.256522
 20
661.712288
 30
0.0
 10
339.954393
 20
660.436735
 30
0.0
 10
338.287664
 20
659.673792
 30
0.0
 10
336.457203
 20
659.518128
 30
0.0
 10
334.682625
 20
659.984968
 30
0.0
 10
332.925293
 20
661.184126
 30
0.0
 10
331.666662
 20
663.317353
 30
0.0
 10
331.667406
 20
666.087542
 30
0.0
 10
333.083564
 20
668.494105
 30
0.0
 10
335.508588
 20
669.845887
 30
0.0
 10
338.360924
 20
669.904729
 30
0.0
 10
339.841533
 20
668.845308
 30
0.0
 10
340.591324
 20
668.308809
 30
0.0
 11
340.591324
 21
668.308809
 31
0.0
 11
341.629803
 21
666.850118
 31
0.0
 11
342.092229
 21
665.155635
 31
0.0
 11
341.935704
 21
663.382553
 31
0.0
 11
341.168335
 21
661.770177
 31
0.0
 11
339.904963
 21
660.529729
 31
0.0
 11
338.262790
 21
659.776283
 31
0.0
 11
336.456942
 21
659.622598
 31
0.0
 11
334.731144
 21
660.076634
 31
0.0
 11
333.245496
 21
661.096270
 31
0.0
 11
331.893167
 21
663.408785
 31
0.0
 11
331.893167
 21
665.996294
 31
0.0
 11
333.245496
 21
668.308809
 31
0.0
 11
335.600747
 21
669.636601
 31
0.0
 11
338.236074
 21
669.636601
 31
0.0
 11
340.591324
 21
668.308809
 31
0.0
  0
LINE
  5
28a
100
AcDbEntity
  8
Layer_1
 62
7
100
AcDbLine
 10
378.238768
 20
670.111905
 30
0.0
 11
378.238768
 21
670.111905
 31
0.0
  0
SPLINE
  5
28b
100
AcDbEntity
  8
Layer_1
 62
7
100
AcDbSpline
 70
0
 71
3
 72
25
 73
21
 74
19
 40
0.000000
 40
0.000000
 40
0.000000
 40
0.000000
 40
1.790591
 40
3.547041
 40
5.327018
 40
7.112686
 40
8.883228
 40
10.689997
 40
12.502373
 40
14.286897
 40
16.088787
 40
17.879378
 40
19.635827
 40
21.415804
 40
23.201473
 40
24.972015
 40
26.778784
 40
28.591160
 40
30.375684
 40
32.177574
 40
32.177574
 40
32.177574
 40
32.177574
 10
378.238768
 20
670.111905
 30
0.0
 10
378.624115
 20
669.647910
 30
0.0
 10
379.387460
 20
668.728768
 30
0.0
 10
379.841050
 20
666.955260
 30
0.0
 10
379.687980
 20
665.156774
 30
0.0
 10
378.903968
 20
663.515379
 30
0.0
 10
377.601833
 20
662.239847
 30
0.0
 10
375.935124
 20
661.476823
 30
0.0
 10
374.104592
 20
661.321460
 30
0.0
 10
372.330274
 20
661.787190
 30
0.0
 10
370.821124
 20
662.820491
 30
0.0
 10
369.763659
 20
664.302357
 30
0.0
 10
369.285430
 20
666.050662
 30
0.0
 10
369.445118
 20
667.855917
 30
0.0
 10
370.227467
 20
669.495610
 30
0.0
 10
371.529599
 20
670.771140
 30
0.0
 10
373.198008
 20
671.535902
 30
0.0
 10
375.021730
 20
671.684299
 30
0.0
 10
376.821300
 20
671.244400
 30
0.0
 10
377.764756
 20
670.490620
 30
0.0
 10
378.238768
 20
670.111905
 30
0.0
 11
378.238768
 21
670.111905
 31
0.0
 11
379.277247
 21
668.653214
 31
0.0
 11
379.739673
 21
666.958730
 31
0.0
 11
379.583148
 21
665.185649
 31
0.0
 11
378.815779
 21
663.573273
 31
0.0
 11
377.552407
 21
662.332824
 31
0.0
 11
375.910234
 21
661.579379
 31
0.0
 11
374.104386
 21
661.425694
 31
0.0
 11
372.378588
 21
661.879729
 31
0.0
 11
370.892940
 21
662.899365
 31
0.0
 11
369.854461
 21
664.358056
 31
0.0
 11
369.392035
 21
666.052540
 31
0.0
 11
369.548561
 21
667.825622
 31
0.0
 11
370.315930
 21
669.437998
 31
0.0
 11
371.579302
 21
670.678446
 31
0.0
 11
373.221475
 21
671.431891
 31
0.0
 11
375.027323
 21
671.585577
 31
0.0
 11
376.753121
 21
671.131541
 31
0.0
 11
378.238768
 21
670.111905
 31
0.0
  0
LINE
  5
28c
100
AcDbEntity
  8
Layer_1
 62
7
100
AcDbLine
 10
416.345128
 20
662.448676
 30
0.0
 11
416.345128
 21
662.448676
 31
0.0
  0
LINE
  5
28d
100
AcDbEntity
  8
Layer_1
 62
7
100
AcDbLine
 10
361.286260
 20
717.846132
 30
0.0
 11
353.720951
 21
716.804360
 31
0.0
  0
LINE
  5
28e
100
AcDbEntity
  8
Layer_1
 62
7
100
AcDbLine
 10
353.720951
 20
716.804360
 30
0.0
 11
351.806519
 21
709.542969
 31
0.0
  0
LINE
  5
28f
100
AcDbEntity
  8
Layer_1
 62
7
100
AcDbLine
 10
351.806519
 20
709.542969
 30
0.0
 11
348.459618
 21
716.285530
 31
0.0
  0
LINE
  5
290
100
AcDbEntity
  8
Layer_1
 62
7
100
AcDbLine
 10
348.459618
 20
716.285530
 30
0.0
 11
340.834412
 21
715.829337
 31
0.0
  0
LINE
  5
291
100
AcDbEntity
  8
Layer_1
 62
7
100
AcDbLine
 10
340.834412
 20
715.829337
 30
0.0
 11
346.331210
 21
721.038249
 31
0.0
  0
LINE
  5
292
100
AcDbEntity
  8
Layer_1
 62
7
100
AcDbLine
 10
346.331210
 20
721.038249
 30
0.0
 11
343.533007
 21
728.017693
 31
0.0
  0
LINE
  5
293
100
AcDbEntity
  8
Layer_1
 62
7
100
AcDbLine
 10
343.533007
 20
728.017693
 30
0.0
 11
350.277120
 21
724.494417
 31
0.0
  0
LINE
  5
294
100
AcDbEntity
  8
Layer_1
 62
7
100
AcDbLine
 10
350.277120
 20
724.494417
 30
0.0
 11
356.172946
 21
729.264143
 31
0.0
  0
LINE
  5
295
100
AcDbEntity
  8
Layer_1
 62
7
100
AcDbLine
 10
356.172946
 20
729.264143
 30
0.0
 11
354.844224
 21
721.877737
 31
0.0
  0
LINE
  5
296
100
AcDbEntity
  8
Layer_1
 62
7
100
AcDbLine
 10
354.844224
 20
721.877737
 30
0.0
 11
361.286260
 21
717.846132
 31
0.0
  0
LINE
  5
297
100
AcDbEntity
  8
Layer_1
 62
7
100
AcDbLine
 10
113.795976
 20
1016.944568
 30
0.0
 11
106.230657
 21
1015.902786
 31
0.0
  0
LINE
  5
298
100
AcDbEntity
  8
Layer_1
 62
7
100
AcDbLine
 10
106.230657
 20
1015.902786
 30
0.0
 11
104.316249
 21
1008.641420
 31
0.0
  0
LINE
  5
299
100
AcDbEntity
  8
Layer_1
 62
7
100
AcDbLine
 10
104.316249
 20
1008.641420
 30
0.0
 11
100.969314
 21
1015.383947
 31
0.0
  0
LINE
  5
29a
100
AcDbEntity
  8
Layer_1
 62
7
100
AcDbLine
 10
100.969314
 20
1015.383947
 30
0.0
 11
93.344093
 21
1014.927740
 31
0.0
  0
LINE
  5
29b
100
AcDbEntity
  8
Layer_1
 62
7
100
AcDbLine
 10
93.344093
 20
1014.927740
 30
0.0
 11
98.840935
 21
1020.136695
 31
0.0
  0
LINE
  5
29c
100
AcDbEntity
  8
Layer_1
 62
7
100
AcDbLine
 10
98.840935
 20
1020.136695
 30
0.0
 11
96.042728
 21
1027.116134
 31
0.0
  0
LINE
  5
29d
100
AcDbEntity
  8
Layer_1
 62
7
100
AcDbLine
 10
96.042728
 20
1027.116134
 30
0.0
 11
102.786831
 21
1023.592840
 31
0.0
  0
LINE
  5
29e
100
AcDbEntity
  8
Layer_1
 62
7
100
AcDbLine
 10
102.786831
 20
1023.592840
 30
0.0
 11
108.682637
 21
1028.362556
 31
0.0
  0
LINE
  5
29f
100
AcDbEntity
  8
Layer_1
 62
7
100
AcDbLine
 10
108.682637
 20
1028.362556
 30
0.0
 11
107.353935
 21
1020.976159
 31
0.0
  0
LINE
  5
2a0
100
AcDbEntity
  8
Layer_1
 62
7
100
AcDbLine
 10
107.353935
 20
1020.976159
 30
0.0
 11
113.795976
 21
1016.944568
 31
0.0
  0
SPLINE
  5
2a1
100
AcDbEntity
  8
Layer_1
 62
7
100
AcDbSpline
 70
0
 71
3
 72
25
 73
21
 74
19
 40
0.000000
 40
0.000000
 40
0.000000
 40
0.000000
 40
1.790591
 40
3.547041
 40
5.327018
 40
7.112686
 40
8.883228
 40
10.689997
 40
12.502373
 40
14.286897
 40
16.088787
 40
17.879378
 40
19.635827
 40
21.415804
 40
23.201473
 40
24.972015
 40
26.778784
 40
28.591160
 40
30.375684
 40
32.177574
 40
32.177574
 40
32.177574
 40
32.177574
 10
416.345128
 20
662.448676
 30
0.0
 10
416.730474
 20
661.984681
 30
0.0
 10
417.493819
 20
661.065539
 30
0.0
 10
417.947409
 20
659.292031
 30
0.0
 10
417.794339
 20
657.493545
 30
0.0
 10
417.010327
 20
655.852151
 30
0.0
 10
415.708192
 20
654.576618
 30
0.0
 10
414.041483
 20
653.813595
 30
0.0
 10
412.210951
 20
653.658232
 30
0.0
 10
410.436633
 20
654.123961
 30
0.0
 10
408.927484
 20
655.157262
 30
0.0
 10
407.870018
 20
656.639128
 30
0.0
 10
407.391789
 20
658.387433
 30
0.0
 10
407.551477
 20
660.192688
 30
0.0
 10
408.333826
 20
661.832382
 30
0.0
 10
409.635958
 20
663.107911
 30
0.0
 10
411.304367
 20
663.872674
 30
0.0
 10
413.128089
 20
664.021070
 30
0.0
 10
414.927659
 20
663.581171
 30
0.0
 10
415.871115
 20
662.827391
 30
0.0
 10
416.345128
 20
662.448676
 30
0.0
 11
416.345128
 21
662.448676
 31
0.0
 11
417.383606
 21
660.989985
 31
0.0
 11
417.846033
 21
659.295501
 31
0.0
 11
417.689507
 21
657.522420
 31
0.0
 11
416.922138
 21
655.910044
 31
0.0
 11
415.658766
 21
654.669596
 31
0.0
 11
414.016593
 21
653.916150
 31
0.0
 11
412.210745
 21
653.762465
 31
0.0
 11
410.484947
 21
654.216501
 31
0.0
 11
408.999300
 21
655.236137
 31
0.0
 11
407.960821
 21
656.694828
 31
0.0
 11
407.498394
 21
658.389311
 31
0.0
 11
407.654920
 21
660.162393
 31
0.0
 11
408.422289
 21
661.774769
 31
0.0
 11
409.685661
 21
663.015217
 31
0.0
 11
411.327834
 21
663.768663
 31
0.0
 11
413.133682
 21
663.922348
 31
0.0
 11
414.859480
 21
663.468312
 31
0.0
 11
416.345128
 21
662.448676
 31
0.0
  0
LINE
  5
2a2
100
AcDbEntity
  8
Layer_1
 62
7
100
AcDbLine
 10
182.196979
 20
939.229834
 30
0.0
 11
182.196979
 21
939.229834
 31
0.0
  0
SPLINE
  5
2a3
100
AcDbEntity
  8
Layer_1
 62
7
100
AcDbSpline
 70
0
 71
3
 72
25
 73
21
 74
19
 40
0.000000
 40
0.000000
 40
0.000000
 40
0.000000
 40
1.790591
 40
3.547041
 40
5.327018
 40
7.112686
 40
8.883228
 40
10.689997
 40
12.502373
 40
14.286897
 40
16.088787
 40
17.879378
 40
19.635827
 40
21.415804
 40
23.201473
 40
24.972015
 40
26.778784
 40
28.591160
 40
30.375684
 40
32.177574
 40
32.177574
 40
32.177574
 40
32.177574
 10
182.196979
 20
939.229834
 30
0.0
 10
182.582326
 20
938.765839
 30
0.0
 10
183.345671
 20
937.846697
 30
0.0
 10
183.799261
 20
936.073189
 30
0.0
 10
183.646190
 20
934.274702
 30
0.0
 10
182.862178
 20
932.633308
 30
0.0
 10
181.560044
 20
931.357776
 30
0.0
 10
179.893334
 20
930.594752
 30
0.0
 10
178.062803
 20
930.439389
 30
0.0
 10
176.288485
 20
930.905119
 30
0.0
 10
174.779335
 20
931.938420
 30
0.0
 10
173.721869
 20
933.420285
 30
0.0
 10
173.243641
 20
935.168591
 30
0.0
 10
173.403329
 20
936.973846
 30
0.0
 10
174.185677
 20
938.613539
 30
0.0
 10
175.487809
 20
939.889069
 30
0.0
 10
177.156219
 20
940.653831
 30
0.0
 10
178.979940
 20
940.802228
 30
0.0
 10
180.779511
 20
940.362329
 30
0.0
 10
181.722967
 20
939.608549
 30
0.0
 10
182.196979
 20
939.229834
 30
0.0
 11
182.196979
 21
939.229834
 31
0.0
 11
183.235458
 21
937.771143
 31
0.0
 11
183.697884
 21
936.076659
 31
0.0
 11
183.541359
 21
934.303577
 31
0.0
 11
182.773990
 21
932.691201
 31
0.0
 11
181.510618
 21
931.450753
 31
0.0
 11
179.868445
 21
930.697308
 31
0.0
 11
178.062597
 21
930.543622
 31
0.0
 11
176.336799
 21
930.997658
 31
0.0
 11
174.851151
 21
932.017294
 31
0.0
 11
173.812672
 21
933.475985
 31
0.0
 11
173.350246
 21
935.170469
 31
0.0
 11
173.506771
 21
936.943550
 31
0.0
 11
174.274140
 21
938.555926
 31
0.0
 11
175.537512
 21
939.796375
 31
0.0
 11
177.179685
 21
940.549820
 31
0.0
 11
178.985533
 21
940.703505
 31
0.0
 11
180.711331
 21
940.249470
 31
0.0
 11
182.196979
 21
939.229834
 31
0.0
  0
LINE
  5
2a4
100
AcDbEntity
  8
Layer_1
 62
7
100
AcDbLine
 10
140.417558
 20
997.380883
 30
0.0
 11
140.417558
 21
997.380883
 31
0.0
  0
SPLINE
  5
2a5
100
AcDbEntity
  8
Layer_1
 62
7
100
AcDbSpline
 70
0
 71
3
 72
22
 73
18
 74
16
 40
0.000000
 40
0.000000
 40
0.000000
 40
0.000000
 40
1.790591
 40
3.547041
 40
5.327018
 40
7.112686
 40
8.883228
 40
10.689997
 40
12.502373
 40
14.286897
 40
16.088787
 40
18.767690
 40
21.355199
 40
24.034102
 40
26.737846
 40
29.373173
 40
32.076918
 40
32.076918
 40
32.076918
 40
32.076918
 10
140.417558
 20
997.380883
 30
0.0
 10
140.802904
 20
996.916889
 30
0.0
 10
141.566249
 20
995.997746
 30
0.0
 10
142.019839
 20
994.224239
 30
0.0
 10
141.866769
 20
992.425751
 30
0.0
 10
141.082756
 20
990.784362
 30
0.0
 10
139.780626
 20
989.508809
 30
0.0
 10
138.113898
 20
988.745866
 30
0.0
 10
136.283437
 20
988.590202
 30
0.0
 10
134.508858
 20
989.057042
 30
0.0
 10
132.751527
 20
990.256200
 30
0.0
 10
131.492896
 20
992.389427
 30
0.0
 10
131.493640
 20
995.159616
 30
0.0
 10
132.909797
 20
997.566179
 30
0.0
 10
135.334822
 20
998.917961
 30
0.0
 10
138.187158
 20
998.976803
 30
0.0
 10
139.667767
 20
997.917382
 30
0.0
 10
140.417558
 20
997.380883
 30
0.0
 11
140.417558
 21
997.380883
 31
0.0
 11
141.456037
 21
995.922192
 31
0.0
 11
141.918463
 21
994.227709
 31
0.0
 11
141.761937
 21
992.454627
 31
0.0
 11
140.994568
 21
990.842251
 31
0.0
 11
139.731196
 21
989.601803
 31
0.0
 11
138.089023
 21
988.848357
 31
0.0
 11
136.283175
 21
988.694672
 31
0.0
 11
134.557377
 21
989.148708
 31
0.0
 11
133.071730
 21
990.168344
 31
0.0
 11
131.719400
 21
992.480859
 31
0.0
 11
131.719401
 21
995.068368
 31
0.0
 11
133.071730
 21
997.380883
 31
0.0
 11
135.426980
 21
998.708675
 31
0.0
 11
138.062307
 21
998.708675
 31
0.0
 11
140.417558
 21
997.380883
 31
0.0
  0
LINE
  5
2a6
100
AcDbEntity
  8
Layer_1
 62
7
100
AcDbLine
 10
274.019840
 20
855.383996
 30
0.0
 11
274.019840
 21
855.383996
 31
0.0
  0
SPLINE
  5
2a7
100
AcDbEntity
  8
Layer_1
 62
7
100
AcDbSpline
 70
0
 71
3
 72
22
 73
18
 74
16
 40
0.000000
 40
0.000000
 40
0.000000
 40
0.000000
 40
1.790591
 40
3.547041
 40
5.327018
 40
7.112686
 40
8.883228
 40
10.689997
 40
12.502373
 40
14.286897
 40
16.088787
 40
18.767690
 40
21.355199
 40
24.034102
 40
26.737846
 40
29.373173
 40
32.076918
 40
32.076918
 40
32.076918
 40
32.076918
 10
274.019840
 20
855.383996
 30
0.0
 10
274.405186
 20
854.920002
 30
0.0
 10
275.168532
 20
854.000859
 30
0.0
 10
275.622122
 20
852.227352
 30
0.0
 10
275.469051
 20
850.428864
 30
0.0
 10
274.685038
 20
848.787475
 30
0.0
 10
273.382909
 20
847.511922
 30
0.0
 10
271.716180
 20
846.748979
 30
0.0
 10
269.885719
 20
846.593315
 30
0.0
 10
268.111141
 20
847.060155
 30
0.0
 10
266.353809
 20
848.259313
 30
0.0
 10
265.095178
 20
850.392540
 30
0.0
 10
265.095922
 20
853.162729
 30
0.0
 10
266.512080
 20
855.569292
 30
0.0
 10
268.937104
 20
856.921074
 30
0.0
 10
271.789440
 20
856.979916
 30
0.0
 10
273.270049
 20
855.920495
 30
0.0
 10
274.019840
 20
855.383996
 30
0.0
 11
274.019840
 21
855.383996
 31
0.0
 11
275.058319
 21
853.925305
 31
0.0
 11
275.520745
 21
852.230822
 31
0.0
 11
275.364220
 21
850.457740
 31
0.0
 11
274.596851
 21
848.845364
 31
0.0
 11
273.333479
 21
847.604916
 31
0.0
 11
271.691306
 21
846.851470
 31
0.0
 11
269.885458
 21
846.697785
 31
0.0
 11
268.159660
 21
847.151821
 31
0.0
 11
266.674012
 21
848.171457
 31
0.0
 11
265.321683
 21
850.483972
 31
0.0
 11
265.321683
 21
853.071481
 31
0.0
 11
266.674012
 21
855.383996
 31
0.0
 11
269.029263
 21
856.711788
 31
0.0
 11
271.664590
 21
856.711788
 31
0.0
 11
274.019840
 21
855.383996
 31
0.0
  0
LINE
  5
2a8
100
AcDbEntity
  8
Layer_1
 62
7
100
AcDbLine
 10
301.566689
 20
825.632315
 30
0.0
 11
301.566689
 21
825.632315
 31
0.0
  0
SPLINE
  5
2a9
100
AcDbEntity
  8
Layer_1
 62
7
100
AcDbSpline
 70
0
 71
3
 72
25
 73
21
 74
19
 40
0.000000
 40
0.000000
 40
0.000000
 40
0.000000
 40
1.790591
 40
3.547041
 40
5.327018
 40
7.112686
 40
8.883228
 40
10.689997
 40
12.502373
 40
14.286897
 40
16.088787
 40
17.879378
 40
19.635827
 40
21.415804
 40
23.201473
 40
24.972015
 40
26.778784
 40
28.591160
 40
30.375684
 40
32.177574
 40
32.177574
 40
32.177574
 40
32.177574
 10
301.566689
 20
825.632315
 30
0.0
 10
301.952035
 20
825.168320
 30
0.0
 10
302.715381
 20
824.249178
 30
0.0
 10
303.168971
 20
822.475670
 30
0.0
 10
303.015900
 20
820.677184
 30
0.0
 10
302.231888
 20
819.035790
 30
0.0
 10
300.929754
 20
817.760257
 30
0.0
 10
299.263044
 20
816.997234
 30
0.0
 10
297.432513
 20
816.841871
 30
0.0
 10
295.658195
 20
817.307600
 30
0.0
 10
294.149045
 20
818.340901
 30
0.0
 10
293.091579
 20
819.822767
 30
0.0
 10
292.613351
 20
821.571072
 30
0.0
 10
292.773039
 20
823.376327
 30
0.0
 10
293.555387
 20
825.016020
 30
0.0
 10
294.857519
 20
826.291550
 30
0.0
 10
296.525929
 20
827.056313
 30
0.0
 10
298.349650
 20
827.204709
 30
0.0
 10
300.149220
 20
826.764810
 30
0.0
 10
301.092677
 20
826.011030
 30
0.0
 10
301.566689
 20
825.632315
 30
0.0
 11
301.566689
 21
825.632315
 31
0.0
 11
302.605168
 21
824.173624
 31
0.0
 11
303.067594
 21
822.479140
 31
0.0
 11
302.911069
 21
820.706059
 31
0.0
 11
302.143700
 21
819.093683
 31
0.0
 11
300.880328
 21
817.853235
 31
0.0
 11
299.238155
 21
817.099789
 31
0.0
 11
297.432307
 21
816.946104
 31
0.0
 11
295.706509
 21
817.400140
 31
0.0
 11
294.220861
 21
818.419776
 31
0.0
 11
293.182382
 21
819.878467
 31
0.0
 11
292.719956
 21
821.572950
 31
0.0
 11
292.876481
 21
823.346032
 31
0.0
 11
293.643850
 21
824.958408
 31
0.0
 11
294.907222
 21
826.198856
 31
0.0
 11
296.549395
 21
826.952302
 31
0.0
 11
298.355243
 21
827.105987
 31
0.0
 11
300.081041
 21
826.651951
 31
0.0
 11
301.566689
 21
825.632315
 31
0.0
  0
LINE
  5
2aa
100
AcDbEntity
  8
Layer_1
 62
7
100
AcDbLine
 10
334.622862
 20
800.388464
 30
0.0
 11
334.622862
 21
800.388464
 31
0.0
  0
LINE
  5
2ab
100
AcDbEntity
  8
Layer_1
 62
5
100
AcDbLine
 10
17.162827
 20
1128.851093
 30
0.0
 11
17.156923
 21
377.058841
 31
0.0
  0
LINE
  5
2ac
100
AcDbEntity
  8
Layer_1
 62
5
100
AcDbLine
 10
17.156923
 20
377.058841
 30
0.0
 11
31.357173
 21
325.025165
 31
0.0
  0
LINE
  5
2ad
100
AcDbEntity
  8
Layer_1
 62
5
100
AcDbLine
 10
31.357173
 20
325.025165
 30
0.0
 11
244.422103
 21
115.826067
 31
0.0
  0
LINE
  5
2ae
100
AcDbEntity
  8
Layer_1
 62
5
100
AcDbLine
 10
244.422103
 20
115.826067
 30
0.0
 11
297.418502
 21
101.882525
 31
0.0
  0
LINE
  5
2af
100
AcDbEntity
  8
Layer_1
 62
5
100
AcDbLine
 10
297.418502
 20
101.882525
 30
0.0
 11
400.001343
 21
477.780351
 31
0.0
  0
LINE
  5
2b0
100
AcDbEntity
  8
Layer_1
 62
5
100
AcDbLine
 10
400.001343
 20
477.780351
 30
0.0
 11
438.796730
 21
439.689216
 31
0.0
  0
LINE
  5
2b1
100
AcDbEntity
  8
Layer_1
 62
5
100
AcDbLine
 10
438.796730
 20
439.689216
 30
0.0
 11
729.848915
 21
363.116953
 31
0.0
  0
LINE
  5
2b2
100
AcDbEntity
  8
Layer_1
 62
5
100
AcDbLine
 10
729.848915
 20
363.116953
 30
0.0
 11
782.845806
 21
377.058785
 31
0.0
  0
LINE
  5
2b3
100
AcDbEntity
  8
Layer_1
 62
5
100
AcDbLine
 10
782.845806
 20
377.058785
 30
0.0
 11
680.262944
 21
752.956626
 31
0.0
  0
LINE
  5
2b4
100
AcDbEntity
  8
Layer_1
 62
5
100
AcDbLine
 10
680.262944
 20
752.956626
 30
0.0
 11
671.525369
 21
784.978709
 31
0.0
  0
LINE
  5
2b5
100
AcDbEntity
  8
Layer_1
 62
5
100
AcDbLine
 10
671.525369
 20
784.978709
 30
0.0
 11
106.260561
 21
1105.410002
 31
0.0
  0
LINE
  5
2b6
100
AcDbEntity
  8
Layer_1
 62
5
100
AcDbLine
 10
106.260561
 20
1105.410002
 30
0.0
 11
17.162827
 21
1128.851093
 31
0.0
  0
LINE
  5
2b7
100
AcDbEntity
  8
Layer_1
 62
5
100
AcDbLine
 10
17.156923
 20
377.058841
 30
0.0
 11
297.418502
 21
101.882525
 31
0.0
  0
LINE
  5
2b8
100
AcDbEntity
  8
Layer_1
 62
5
100
AcDbLine
 10
297.418502
 20
101.882525
 30
0.0
 11
17.162827
 21
1128.851093
 31
0.0
  0
LINE
  5
2b9
100
AcDbEntity
  8
Layer_1
 62
5
100
AcDbLine
 10
17.162827
 20
1128.851093
 30
0.0
 11
400.001343
 21
477.780351
 31
0.0
  0
LINE
  5
2ba
100
AcDbEntity
  8
Layer_1
 62
5
100
AcDbLine
 10
400.001343
 20
477.780351
 30
0.0
 11
782.845806
 21
377.058785
 31
0.0
  0
LINE
  5
2bb
100
AcDbEntity
  8
Layer_1
 62
5
100
AcDbLine
 10
782.845806
 20
377.058785
 30
0.0
 11
17.162827
 21
1128.851093
 31
0.0
  0
LINE
  5
2bc
100
AcDbEntity
  8
Layer_1
 62
5
100
AcDbLine
 10
17.162827
 20
1128.851093
 30
0.0
 11
680.262055
 21
752.953368
 31
0.0
  0
SPLINE
  5
2bd
100
AcDbEntity
  8
Layer_1
 62
7
100
AcDbSpline
 70
0
 71
3
 72
25
 73
21
 74
19
 40
0.000000
 40
0.000000
 40
0.000000
 40
0.000000
 40
1.790591
 40
3.547041
 40
5.327018
 40
7.112686
 40
8.883228
 40
10.689997
 40
12.502373
 40
14.286897
 40
16.088787
 40
17.879378
 40
19.635827
 40
21.415804
 40
23.201473
 40
24.972015
 40
26.778784
 40
28.591160
 40
30.375684
 40
32.177574
 40
32.177574
 40
32.177574
 40
32.177574
 10
334.622862
 20
800.388464
 30
0.0
 10
335.008209
 20
799.924469
 30
0.0
 10
335.771554
 20
799.005327
 30
0.0
 10
336.225144
 20
797.231819
 30
0.0
 10
336.072073
 20
795.433333
 30
0.0
 10
335.288062
 20
793.791939
 30
0.0
 10
333.985927
 20
792.516406
 30
0.0
 10
332.319217
 20
791.753383
 30
0.0
 10
330.488686
 20
791.598020
 30
0.0
 10
328.714368
 20
792.063749
 30
0.0
 10
327.205218
 20
793.097050
 30
0.0
 10
326.147752
 20
794.578916
 30
0.0
 10
325.669524
 20
796.327221
 30
0.0
 10
325.829212
 20
798.132476
 30
0.0
 10
326.611560
 20
799.772169
 30
0.0
 10
327.913693
 20
801.047699
 30
0.0
 10
329.582102
 20
801.812461
 30
0.0
 10
331.405823
 20
801.960858
 30
0.0
 10
333.205394
 20
801.520959
 30
0.0
 10
334.148850
 20
800.767179
 30
0.0
 10
334.622862
 20
800.388464
 30
0.0
 11
334.622862
 21
800.388464
 31
0.0
 11
335.661341
 21
798.929773
 31
0.0
 11
336.123767
 21
797.235289
 31
0.0
 11
335.967242
 21
795.462208
 31
0.0
 11
335.199873
 21
793.849832
 31
0.0
 11
333.936501
 21
792.609383
 31
0.0
 11
332.294328
 21
791.855938
 31
0.0
 11
330.488480
 21
791.702253
 31
0.0
 11
328.762682
 21
792.156288
 31
0.0
 11
327.277034
 21
793.175924
 31
0.0
 11
326.238555
 21
794.634615
 31
0.0
 11
325.776129
 21
796.329099
 31
0.0
 11
325.932654
 21
798.102181
 31
0.0
 11
326.700024
 21
799.714557
 31
0.0
 11
327.963395
 21
800.955005
 31
0.0
 11
329.605568
 21
801.708450
 31
0.0
 11
331.411416
 21
801.862136
 31
0.0
 11
333.137214
 21
801.408100
 31
0.0
 11
334.622862
 21
800.388464
 31
0.0
  0
ENDSEC
  0
SECTION
  2
OBJECTS
  0
DICTIONARY
  5
C
330
0
100
AcDbDictionary
  3
ACAD_GROUP
350
D
  3
ACAD_MLINESTYLE
350
17
  0
DICTIONARY
  5
D
330
C
100
AcDbDictionary
  0
DICTIONARY
  5
1A
330
C
100
AcDbDictionary
  0
DICTIONARY
  5
17
330
C
100
AcDbDictionary
  3
STANDARD
350
18
  0
DICTIONARY
  5
19
330
C
100
AcDbDictionary
  0
ENDSEC
  0
EOF
