  0
SECTION
  2
HEADER
  9
$ACADVER
  1
AC1014
  9
$HANDSEED
  5
FFFF
  9
$MEASUREMENT
 70
     1
  0
ENDSEC
  0
SECTION
  2
TABLES
  0
TABLE
  2
VPORT
  5
8
330
0
100
AcDbSymbolTable
 70
     4
  0
VPORT
  5
2E
330
8
100
AcDbSymbolTableRecord
100
AcDbViewportTableRecord
  2
*ACTIVE
 70
     0
 10
0.0
 20
0.0
 11
1.0
 21
1.0
 12
210.0
 22
148.5
 13
0.0
 23
0.0
 14
10.0
 24
10.0
 15
10.0
 25
10.0
 16
0.0
 26
0.0
 36
1.0
 17
0.0
 27
0.0
 37
0.0
 40
341.0
 41
1.24
 42
50.0
 43
0.0
 44
0.0
 50
0.0
 51
0.0
 71
     0
 72
   100
 73
     1
 74
     3
 75
     0
 76
     0
 77
     0
 78
     0
  0
ENDTAB
  0
TABLE
  2
LTYPE
  5
5
330
0
100
AcDbSymbolTable
 70
     1
  0
LTYPE
  5
14
330
5
100
AcDbSymbolTableRecord
100
AcDbLinetypeTableRecord
  2
BYBLOCK
 70
     0
  3

 72
    65
 73
     0
 40
0.0
  0
LTYPE
  5
15
330
5
100
AcDbSymbolTableRecord
100
AcDbLinetypeTableRecord
  2
BYLAYER
 70
     0
  3

 72
    65
 73
     0
 40
0.0
  0
LTYPE
  5
16
330
5
100
AcDbSymbolTableRecord
100
AcDbLinetypeTableRecord
  2
CONTINUOUS
 70
     0
  3
Solid line
 72
    65
 73
     0
 40
0.0
  0
ENDTAB
  0
TABLE
  2
LAYER
  5
2
100
AcDbSymbolTable
 70
2
  0
LAYER
  5
50
100
AcDbSymbolTableRecord
100
AcDbLayerTableRecord
  2
0
 70
0
  6
CONTINUOUS
  0
LAYER
  5
51
100
AcDbSymbolTableRecord
100
AcDbLayerTableRecord
  2
Layer_1
 70
0
  6
CONTINUOUS
  0
ENDTAB
  0
TABLE
  2
STYLE
  5
3
330
0
100
AcDbSymbolTable
 70
     1
  0
STYLE
  5
11
330
3
100
AcDbSymbolTableRecord
100
AcDbTextStyleTableRecord
  2
STANDARD
 70
     0
 40
0.0
 41
1.0
 50
0.0
 71
     0
 42
2.5
  3
txt
  4

  0
ENDTAB
  0
TABLE
  2
VIEW
  5
6
330
0
100
AcDbSymbolTable
 70
     0
  0
ENDTAB
  0
TABLE
  2
UCS
  5
7
330
0
100
AcDbSymbolTable
 70
     0
  0
ENDTAB
  0
TABLE
  2
APPID
  5
9
330
0
100
AcDbSymbolTable
 70
     2
  0
APPID
  5
12
330
9
100
AcDbSymbolTableRecord
100
AcDbRegAppTableRecord
  2
ACAD
 70
     0
  0
ENDTAB
  0
TABLE
  2
DIMSTYLE
  5
A
330
0
100
AcDbSymbolTable
 70
     1
  0
DIMSTYLE
105
27
330
A
100
AcDbSymbolTableRecord
100
AcDbDimStyleTableRecord
  2
ISO-25
 70
     0
  3

  4

  5

  6

  7

 40
1.0
 41
2.5
 42
0.625
 43
3.75
 44
1.25
 45
0.0
 46
0.0
 47
0.0
 48
0.0
140
2.5
141
2.5
142
0.0
143
0.03937007874016
144
1.0
145
0.0
146
1.0
147
0.625
 71
     0
 72
     0
 73
     0
 74
     0
 75
     0
 76
     0
 77
     1
 78
     8
170
     0
171
     3
172
     1
173
     0
174
     0
175
     0
176
     0
177
     0
178
     0
270
     2
271
     2
272
     2
273
     2
274
     3
340
11
275
     0
280
     0
281
     0
282
     0
283
     0
284
     8
285
     0
286
     0
287
     3
288
     0
  0
ENDTAB
  0
TABLE
  2
BLOCK_RECORD
  5
1
330
0
100
AcDbSymbolTable
 70
     1
  0
BLOCK_RECORD
  5
1F
330
1
100
AcDbSymbolTableRecord
100
AcDbBlockTableRecord
  2
*MODEL_SPACE
  0
BLOCK_RECORD
  5
1B
330
1
100
AcDbSymbolTableRecord
100
AcDbBlockTableRecord
  2
*PAPER_SPACE
  0
ENDTAB
  0
ENDSEC
  0
SECTION
  2
BLOCKS
  0
BLOCK
  5
20
330
1F
100
AcDbEntity
  8
0
100
AcDbBlockBegin
  2
*MODEL_SPACE
 70
     0
 10
0.0
 20
0.0
 30
0.0
  3
*MODEL_SPACE
  1

  0
ENDBLK
  5
21
330
1F
100
AcDbEntity
  8
0
100
AcDbBlockEnd
  0
BLOCK
  5
1C
330
1B
100
AcDbEntity
 67
     1
  8
0
100
AcDbBlockBegin
  2
*PAPER_SPACE
  1

  0
ENDBLK
  5
1D
330
1B
100
AcDbEntity
 67
     1
  8
0
100
AcDbBlockEnd
  0
ENDSEC
  0
SECTION
  2
ENTITIES
  0
LINE
  5
100
100
AcDbEntity
  8
Layer_1
 62
7
100
AcDbLine
 10
36.427839
 20
854.458700
 30
0.0
 11
13.356306
 21
831.798291
 31
0.0
  0
LINE
  5
101
100
AcDbEntity
  8
Layer_1
 62
7
100
AcDbLine
 10
13.356306
 20
831.798291
 30
0.0
 11
13.356198
 21
226.047248
 31
0.0
  0
LINE
  5
102
100
AcDbEntity
  8
Layer_1
 62
7
100
AcDbLine
 10
13.356198
 20
226.047248
 30
0.0
 11
41.430540
 21
158.301683
 31
0.0
  0
LINE
  5
103
100
AcDbEntity
  8
Layer_1
 62
7
100
AcDbLine
 10
41.430540
 20
158.301683
 30
0.0
 11
423.542488
 21
740.238173
 31
0.0
  0
LINE
  5
104
100
AcDbEntity
  8
Layer_1
 62
7
100
AcDbLine
 10
423.542488
 20
740.238173
 30
0.0
 11
404.327487
 21
752.185947
 31
0.0
  0
LINE
  5
105
100
AcDbEntity
  8
Layer_1
 62
7
100
AcDbLine
 10
404.327487
 20
752.185947
 30
0.0
 11
189.795651
 21
657.042800
 31
0.0
  0
LINE
  5
106
100
AcDbEntity
  8
Layer_1
 62
7
100
AcDbLine
 10
189.795651
 20
657.042800
 30
0.0
 11
181.106807
 21
631.690579
 31
0.0
  0
LINE
  5
107
100
AcDbEntity
  8
Layer_1
 62
7
100
AcDbLine
 10
181.106807
 20
631.690579
 30
0.0
 11
36.427839
 21
854.458700
 31
0.0
  0
LINE
  5
108
100
AcDbEntity
  8
Layer_1
 62
1
100
AcDbLine
 10
36.427839
 20
854.458700
 30
0.0
 11
41.430540
 21
158.301683
 31
0.0
  0
LINE
  5
109
100
AcDbEntity
  8
Layer_1
 62
1
100
AcDbLine
 10
41.430540
 20
158.301683
 30
0.0
 11
181.106807
 21
631.690579
 31
0.0
  0
LINE
  5
10a
100
AcDbEntity
  8
Layer_1
 62
1
100
AcDbLine
 10
181.106807
 20
631.690579
 30
0.0
 11
423.542488
 21
740.238173
 31
0.0
  0
LINE
  5
10b
100
AcDbEntity
  8
Layer_1
 62
7
100
AcDbLine
 10
65.652137
 20
332.668089
 30
0.0
 11
71.050234
 21
328.972528
 31
0.0
  0
LINE
  5
10c
100
AcDbEntity
  8
Layer_1
 62
7
100
AcDbLine
 10
71.050234
 20
328.972528
 30
0.0
 11
76.530048
 21
332.545805
 31
0.0
  0
LINE
  5
10d
100
AcDbEntity
  8
Layer_1
 62
7
100
AcDbLine
 10
76.530048
 20
332.545805
 30
0.0
 11
74.683461
 21
326.269915
 31
0.0
  0
LINE
  5
10e
100
AcDbEntity
  8
Layer_1
 62
7
100
AcDbLine
 10
74.683461
 20
326.269915
 30
0.0
 11
79.775205
 21
322.162508
 31
0.0
  0
LINE
  5
10f
100
AcDbEntity
  8
Layer_1
 62
7
100
AcDbLine
 10
79.775205
 20
322.162508
 30
0.0
 11
73.235854
 21
321.979347
 31
0.0
  0
LINE
  5
110
100
AcDbEntity
  8
Layer_1
 62
7
100
AcDbLine
 10
73.235854
 20
321.979347
 30
0.0
 11
70.902912
 21
315.867551
 31
0.0
  0
LINE
  5
111
100
AcDbEntity
  8
Layer_1
 62
7
100
AcDbLine
 10
70.902912
 20
315.867551
 30
0.0
 11
68.707958
 21
322.030249
 31
0.0
  0
LINE
  5
112
100
AcDbEntity
  8
Layer_1
 62
7
100
AcDbLine
 10
68.707958
 20
322.030249
 30
0.0
 11
62.174377
 21
322.360358
 31
0.0
  0
LINE
  5
113
100
AcDbEntity
  8
Layer_1
 62
7
100
AcDbLine
 10
62.174377
 20
322.360358
 30
0.0
 11
67.357170
 21
326.352264
 31
0.0
  0
LINE
  5
114
100
AcDbEntity
  8
Layer_1
 62
7
100
AcDbLine
 10
67.357170
 20
326.352264
 30
0.0
 11
65.652137
 21
332.668089
 31
0.0
  0
LINE
  5
115
100
AcDbEntity
  8
Layer_1
 62
7
100
AcDbLine
 10
65.652137
 20
332.668089
 30
0.0
 11
71.050234
 21
328.972528
 31
0.0
  0
LINE
  5
116
100
AcDbEntity
  8
Layer_1
 62
7
100
AcDbLine
 10
71.050234
 20
328.972528
 30
0.0
 11
76.530048
 21
332.545805
 31
0.0
  0
LINE
  5
117
100
AcDbEntity
  8
Layer_1
 62
7
100
AcDbLine
 10
76.530048
 20
332.545805
 30
0.0
 11
74.683461
 21
326.269915
 31
0.0
  0
LINE
  5
118
100
AcDbEntity
  8
Layer_1
 62
7
100
AcDbLine
 10
74.683461
 20
326.269915
 30
0.0
 11
79.775205
 21
322.162508
 31
0.0
  0
LINE
  5
119
100
AcDbEntity
  8
Layer_1
 62
7
100
AcDbLine
 10
79.775205
 20
322.162508
 30
0.0
 11
73.235854
 21
321.979347
 31
0.0
  0
LINE
  5
11a
100
AcDbEntity
  8
Layer_1
 62
7
100
AcDbLine
 10
73.235854
 20
321.979347
 30
0.0
 11
70.902912
 21
315.867551
 31
0.0
  0
LINE
  5
11b
100
AcDbEntity
  8
Layer_1
 62
7
100
AcDbLine
 10
70.902912
 20
315.867551
 30
0.0
 11
68.707958
 21
322.030249
 31
0.0
  0
LINE
  5
11c
100
AcDbEntity
  8
Layer_1
 62
7
100
AcDbLine
 10
68.707958
 20
322.030249
 30
0.0
 11
62.174377
 21
322.360358
 31
0.0
  0
LINE
  5
11d
100
AcDbEntity
  8
Layer_1
 62
7
100
AcDbLine
 10
62.174377
 20
322.360358
 30
0.0
 11
67.357170
 21
326.352264
 31
0.0
  0
LINE
  5
11e
100
AcDbEntity
  8
Layer_1
 62
7
100
AcDbLine
 10
67.357170
 20
326.352264
 30
0.0
 11
65.652137
 21
332.668089
 31
0.0
  0
LINE
  5
11f
100
AcDbEntity
  8
Layer_1
 62
7
100
AcDbLine
 10
66.016525
 20
353.632532
 30
0.0
 11
71.456126
 21
349.298864
 31
0.0
  0
LINE
  5
120
100
AcDbEntity
  8
Layer_1
 62
7
100
AcDbLine
 10
71.456126
 20
349.298864
 30
0.0
 11
77.511551
 21
352.718405
 31
0.0
  0
LINE
  5
121
100
AcDbEntity
  8
Layer_1
 62
7
100
AcDbLine
 10
77.511551
 20
352.718405
 30
0.0
 11
75.101608
 21
346.152248
 31
0.0
  0
LINE
  5
122
100
AcDbEntity
  8
Layer_1
 62
7
100
AcDbLine
 10
75.101608
 20
346.152248
 30
0.0
 11
80.187230
 21
341.401024
 31
0.0
  0
LINE
  5
123
100
AcDbEntity
  8
Layer_1
 62
7
100
AcDbLine
 10
80.187230
 20
341.401024
 30
0.0
 11
73.258200
 21
341.676575
 31
0.0
  0
LINE
  5
124
100
AcDbEntity
  8
Layer_1
 62
7
100
AcDbLine
 10
73.258200
 20
341.676575
 30
0.0
 11
70.345863
 21
335.320615
 31
0.0
  0
LINE
  5
125
100
AcDbEntity
  8
Layer_1
 62
7
100
AcDbLine
 10
70.345863
 20
335.320615
 30
0.0
 11
68.473431
 21
342.057080
 31
0.0
  0
LINE
  5
126
100
AcDbEntity
  8
Layer_1
 62
7
100
AcDbLine
 10
68.473431
 20
342.057080
 30
0.0
 11
61.587887
 21
342.880104
 31
0.0
  0
LINE
  5
127
100
AcDbEntity
  8
Layer_1
 62
7
100
AcDbLine
 10
61.587887
 20
342.880104
 30
0.0
 11
67.359687
 21
346.767905
 31
0.0
  0
LINE
  5
128
100
AcDbEntity
  8
Layer_1
 62
7
100
AcDbLine
 10
67.359687
 20
346.767905
 30
0.0
 11
66.016525
 21
353.632532
 31
0.0
  0
LINE
  5
129
100
AcDbEntity
  8
Layer_1
 62
7
100
AcDbLine
 10
66.516344
 20
380.569919
 30
0.0
 11
71.933903
 21
375.574369
 31
0.0
  0
LINE
  5
12a
100
AcDbEntity
  8
Layer_1
 62
7
100
AcDbLine
 10
71.933903
 20
375.574369
 30
0.0
 11
78.568134
 21
378.779641
 31
0.0
  0
LINE
  5
12b
100
AcDbEntity
  8
Layer_1
 62
7
100
AcDbLine
 10
78.568134
 20
378.779641
 30
0.0
 11
75.546881
 21
371.968818
 31
0.0
  0
LINE
  5
12c
100
AcDbEntity
  8
Layer_1
 62
7
100
AcDbLine
 10
75.546881
 20
371.968818
 30
0.0
 11
80.560696
 21
366.554440
 31
0.0
  0
LINE
  5
12d
100
AcDbEntity
  8
Layer_1
 62
7
100
AcDbLine
 10
80.560696
 20
366.554440
 30
0.0
 11
73.275896
 21
367.340661
 31
0.0
  0
LINE
  5
12e
100
AcDbEntity
  8
Layer_1
 62
7
100
AcDbLine
 10
73.275896
 20
367.340661
 30
0.0
 11
69.740375
 21
360.789118
 31
0.0
  0
LINE
  5
12f
100
AcDbEntity
  8
Layer_1
 62
7
100
AcDbLine
 10
69.740375
 20
360.789118
 30
0.0
 11
68.259377
 21
368.085860
 31
0.0
  0
LINE
  5
130
100
AcDbEntity
  8
Layer_1
 62
7
100
AcDbLine
 10
68.259377
 20
368.085860
 30
0.0
 11
61.060490
 21
369.451161
 31
0.0
  0
LINE
  5
131
100
AcDbEntity
  8
Layer_1
 62
7
100
AcDbLine
 10
61.060490
 20
369.451161
 30
0.0
 11
67.429978
 21
373.174563
 31
0.0
  0
LINE
  5
132
100
AcDbEntity
  8
Layer_1
 62
7
100
AcDbLine
 10
67.429978
 20
373.174563
 30
0.0
 11
66.516344
 21
380.569919
 31
0.0
  0
LINE
  5
133
100
AcDbEntity
  8
Layer_1
 62
7
100
AcDbLine
 10
67.134389
 20
410.359839
 30
0.0
 11
72.463277
 21
404.684554
 31
0.0
  0
LINE
  5
134
100
AcDbEntity
  8
Layer_1
 62
7
100
AcDbLine
 10
72.463277
 20
404.684554
 30
0.0
 11
79.674000
 21
407.613853
 31
0.0
  0
LINE
  5
135
100
AcDbEntity
  8
Layer_1
 62
7
100
AcDbLine
 10
79.674000
 20
407.613853
 30
0.0
 11
75.996983
 21
400.609335
 31
0.0
  0
LINE
  5
136
100
AcDbEntity
  8
Layer_1
 62
7
100
AcDbLine
 10
75.996983
 20
400.609335
 30
0.0
 11
80.870600
 21
394.518664
 31
0.0
  0
LINE
  5
137
100
AcDbEntity
  8
Layer_1
 62
7
100
AcDbLine
 10
80.870600
 20
394.518664
 30
0.0
 11
73.269187
 21
395.864907
 31
0.0
  0
LINE
  5
138
100
AcDbEntity
  8
Layer_1
 62
7
100
AcDbLine
 10
73.269187
 20
395.864907
 30
0.0
 11
69.070527
 21
389.171365
 31
0.0
  0
LINE
  5
139
100
AcDbEntity
  8
Layer_1
 62
7
100
AcDbLine
 10
69.070527
 20
389.171365
 30
0.0
 11
68.049614
 21
397.007917
 31
0.0
  0
LINE
  5
13a
100
AcDbEntity
  8
Layer_1
 62
7
100
AcDbLine
 10
68.049614
 20
397.007917
 30
0.0
 11
60.581083
 21
398.961751
 31
0.0
  0
LINE
  5
13b
100
AcDbEntity
  8
Layer_1
 62
7
100
AcDbLine
 10
60.581083
 20
398.961751
 30
0.0
 11
67.551532
 21
402.458750
 31
0.0
  0
LINE
  5
13c
100
AcDbEntity
  8
Layer_1
 62
7
100
AcDbLine
 10
67.551532
 20
402.458750
 30
0.0
 11
67.134389
 21
410.359839
 31
0.0
  0
LINE
  5
13d
100
AcDbEntity
  8
Layer_1
 62
7
100
AcDbLine
 10
67.866448
 20
442.162364
 30
0.0
 11
73.037485
 21
435.795719
 31
0.0
  0
LINE
  5
13e
100
AcDbEntity
  8
Layer_1
 62
7
100
AcDbLine
 10
73.037485
 20
435.795719
 30
0.0
 11
80.816731
 21
438.386639
 31
0.0
  0
LINE
  5
13f
100
AcDbEntity
  8
Layer_1
 62
7
100
AcDbLine
 10
80.816731
 20
438.386639
 30
0.0
 11
76.443530
 21
431.244491
 31
0.0
  0
LINE
  5
140
100
AcDbEntity
  8
Layer_1
 62
7
100
AcDbLine
 10
76.443530
 20
431.244491
 30
0.0
 11
81.106412
 21
424.470854
 31
0.0
  0
LINE
  5
141
100
AcDbEntity
  8
Layer_1
 62
7
100
AcDbLine
 10
81.106412
 20
424.470854
 30
0.0
 11
73.232583
 21
426.423398
 31
0.0
  0
LINE
  5
142
100
AcDbEntity
  8
Layer_1
 62
7
100
AcDbLine
 10
73.232583
 20
426.423398
 30
0.0
 11
68.335159
 21
419.646139
 31
0.0
  0
LINE
  5
143
100
AcDbEntity
  8
Layer_1
 62
7
100
AcDbLine
 10
68.335159
 20
419.646139
 30
0.0
 11
67.842069
 21
427.995034
 31
0.0
  0
LINE
  5
144
100
AcDbEntity
  8
Layer_1
 62
7
100
AcDbLine
 10
67.842069
 20
427.995034
 30
0.0
 11
60.152413
 21
430.580094
 31
0.0
  0
LINE
  5
145
100
AcDbEntity
  8
Layer_1
 62
7
100
AcDbLine
 10
60.152413
 20
430.580094
 30
0.0
 11
67.721489
 21
433.787437
 31
0.0
  0
LINE
  5
146
100
AcDbEntity
  8
Layer_1
 62
7
100
AcDbLine
 10
67.721489
 20
433.787437
 30
0.0
 11
67.866448
 21
442.162364
 31
0.0
  0
LINE
  5
147
100
AcDbEntity
  8
Layer_1
 62
7
100
AcDbLine
 10
68.709935
 20
475.540707
 30
0.0
 11
73.651948
 21
468.477551
 31
0.0
  0
LINE
  5
148
100
AcDbEntity
  8
Layer_1
 62
7
100
AcDbLine
 10
73.651948
 20
468.477551
 30
0.0
 11
81.985978
 21
470.667480
 31
0.0
  0
LINE
  5
149
100
AcDbEntity
  8
Layer_1
 62
7
100
AcDbLine
 10
81.985978
 20
470.667480
 30
0.0
 11
76.880707
 21
463.448537
 31
0.0
  0
LINE
  5
14a
100
AcDbEntity
  8
Layer_1
 62
7
100
AcDbLine
 10
76.880707
 20
463.448537
 30
0.0
 11
81.260754
 21
455.991945
 31
0.0
  0
LINE
  5
14b
100
AcDbEntity
  8
Layer_1
 62
7
100
AcDbLine
 10
81.260754
 20
455.991945
 30
0.0
 11
73.163504
 21
458.593537
 31
0.0
  0
LINE
  5
14c
100
AcDbEntity
  8
Layer_1
 62
7
100
AcDbLine
 10
73.163504
 20
458.593537
 30
0.0
 11
67.536495
 21
451.795180
 31
0.0
  0
LINE
  5
14d
100
AcDbEntity
  8
Layer_1
 62
7
100
AcDbLine
 10
67.536495
 20
451.795180
 30
0.0
 11
67.637395
 21
460.622005
 31
0.0
  0
LINE
  5
14e
100
AcDbEntity
  8
Layer_1
 62
7
100
AcDbLine
 10
67.637395
 20
460.622005
 30
0.0
 11
59.779664
 21
463.876980
 31
0.0
  0
LINE
  5
14f
100
AcDbEntity
  8
Layer_1
 62
7
100
AcDbLine
 10
59.779664
 20
463.876980
 30
0.0
 11
67.939265
 21
466.730652
 31
0.0
  0
LINE
  5
150
100
AcDbEntity
  8
Layer_1
 62
7
100
AcDbLine
 10
67.939265
 20
466.730652
 30
0.0
 11
68.709935
 21
475.540707
 31
0.0
  0
LINE
  5
151
100
AcDbEntity
  8
Layer_1
 62
7
100
AcDbLine
 10
69.662258
 20
510.219307
 30
0.0
 11
74.302659
 21
502.461176
 31
0.0
  0
LINE
  5
152
100
AcDbEntity
  8
Layer_1
 62
7
100
AcDbLine
 10
74.302659
 20
502.461176
 30
0.0
 11
83.171897
 21
504.187794
 31
0.0
  0
LINE
  5
153
100
AcDbEntity
  8
Layer_1
 62
7
100
AcDbLine
 10
83.171897
 20
504.187794
 30
0.0
 11
77.303685
 21
496.957285
 31
0.0
  0
LINE
  5
154
100
AcDbEntity
  8
Layer_1
 62
7
100
AcDbLine
 10
77.303685
 20
496.957285
 30
0.0
 11
81.327837
 21
488.824607
 31
0.0
  0
LINE
  5
155
100
AcDbEntity
  8
Layer_1
 62
7
100
AcDbLine
 10
81.327837
 20
488.824607
 30
0.0
 11
73.060675
 21
492.114027
 31
0.0
  0
LINE
  5
156
100
AcDbEntity
  8
Layer_1
 62
7
100
AcDbLine
 10
73.060675
 20
492.114027
 30
0.0
 11
66.678502
 21
485.361135
 31
0.0
  0
LINE
  5
157
100
AcDbEntity
  8
Layer_1
 62
7
100
AcDbLine
 10
66.678502
 20
485.361135
 30
0.0
 11
67.437332
 21
494.624627
 31
0.0
  0
LINE
  5
158
100
AcDbEntity
  8
Layer_1
 62
7
100
AcDbLine
 10
67.437332
 20
494.624627
 30
0.0
 11
59.468780
 21
498.583788
 31
0.0
  0
LINE
  5
159
100
AcDbEntity
  8
Layer_1
 62
7
100
AcDbLine
 10
59.468780
 20
498.583788
 30
0.0
 11
68.204915
 21
501.019507
 31
0.0
  0
LINE
  5
15a
100
AcDbEntity
  8
Layer_1
 62
7
100
AcDbLine
 10
68.204915
 20
501.019507
 30
0.0
 11
69.662258
 21
510.219307
 31
0.0
  0
LINE
  5
15b
100
AcDbEntity
  8
Layer_1
 62
7
100
AcDbLine
 10
70.720468
 20
546.005126
 30
0.0
 11
74.985847
 21
537.560399
 31
0.0
  0
LINE
  5
15c
100
AcDbEntity
  8
Layer_1
 62
7
100
AcDbLine
 10
74.985847
 20
537.560399
 30
0.0
 11
84.364854
 21
538.762191
 31
0.0
  0
LINE
  5
15d
100
AcDbEntity
  8
Layer_1
 62
7
100
AcDbLine
 10
84.364854
 20
538.762191
 30
0.0
 11
77.708291
 21
531.589329
 31
0.0
  0
LINE
  5
15e
100
AcDbEntity
  8
Layer_1
 62
7
100
AcDbLine
 10
77.708291
 20
531.589329
 30
0.0
 11
81.303142
 21
522.794411
 31
0.0
  0
LINE
  5
15f
100
AcDbEntity
  8
Layer_1
 62
7
100
AcDbLine
 10
81.303142
 20
522.794411
 30
0.0
 11
72.923772
 21
526.806055
 31
0.0
  0
LINE
  5
160
100
AcDbEntity
  8
Layer_1
 62
7
100
AcDbLine
 10
72.923772
 20
526.806055
 30
0.0
 11
65.766507
 21
520.168703
 31
0.0
  0
LINE
  5
161
100
AcDbEntity
  8
Layer_1
 62
7
100
AcDbLine
 10
65.766507
 20
520.168703
 30
0.0
 11
67.244340
 21
529.820906
 31
0.0
  0
LINE
  5
162
100
AcDbEntity
  8
Layer_1
 62
7
100
AcDbLine
 10
67.244340
 20
529.820906
 30
0.0
 11
59.226056
 21
534.513714
 31
0.0
  0
LINE
  5
163
100
AcDbEntity
  8
Layer_1
 62
7
100
AcDbLine
 10
59.226056
 20
534.513714
 30
0.0
 11
68.518767
 21
536.467446
 31
0.0
  0
LINE
  5
164
100
AcDbEntity
  8
Layer_1
 62
7
100
AcDbLine
 10
68.518767
 20
536.467446
 30
0.0
 11
70.720468
 21
546.005126
 31
0.0
  0
LINE
  5
165
100
AcDbEntity
  8
Layer_1
 62
7
100
AcDbLine
 10
71.880968
 20
582.753574
 30
0.0
 11
75.697710
 21
573.637582
 31
0.0
  0
LINE
  5
166
100
AcDbEntity
  8
Layer_1
 62
7
100
AcDbLine
 10
75.697710
 20
573.637582
 30
0.0
 11
85.555197
 21
574.254348
 31
0.0
  0
LINE
  5
167
100
AcDbEntity
  8
Layer_1
 62
7
100
AcDbLine
 10
85.555197
 20
574.254348
 30
0.0
 11
78.090745
 21
567.211878
 31
0.0
  0
LINE
  5
168
100
AcDbEntity
  8
Layer_1
 62
7
100
AcDbLine
 10
78.090745
 20
567.211878
 30
0.0
 11
81.183169
 21
557.775610
 31
0.0
  0
LINE
  5
169
100
AcDbEntity
  8
Layer_1
 62
7
100
AcDbLine
 10
81.183169
 20
557.775610
 30
0.0
 11
72.753132
 21
562.539106
 31
0.0
  0
LINE
  5
16a
100
AcDbEntity
  8
Layer_1
 62
7
100
AcDbLine
 10
72.753132
 20
562.539106
 30
0.0
 11
64.806870
 21
556.090403
 31
0.0
  0
LINE
  5
16b
100
AcDbEntity
  8
Layer_1
 62
7
100
AcDbLine
 10
64.806870
 20
556.090403
 30
0.0
 11
67.061279
 21
566.076885
 31
0.0
  0
LINE
  5
16c
100
AcDbEntity
  8
Layer_1
 62
7
100
AcDbLine
 10
67.061279
 20
566.076885
 30
0.0
 11
59.057796
 21
571.527634
 31
0.0
  0
LINE
  5
16d
100
AcDbEntity
  8
Layer_1
 62
7
100
AcDbLine
 10
59.057796
 20
571.527634
 30
0.0
 11
68.881121
 21
572.936110
 31
0.0
  0
LINE
  5
16e
100
AcDbEntity
  8
Layer_1
 62
7
100
AcDbLine
 10
68.881121
 20
572.936110
 30
0.0
 11
71.880968
 21
582.753574
 31
0.0
  0
LINE
  5
16f
100
AcDbEntity
  8
Layer_1
 62
7
100
AcDbLine
 10
73.139403
 20
620.351248
 30
0.0
 11
76.434300
 21
610.586328
 31
0.0
  0
LINE
  5
170
100
AcDbEntity
  8
Layer_1
 62
7
100
AcDbLine
 10
76.434300
 20
610.586328
 30
0.0
 11
86.733192
 21
610.559701
 31
0.0
  0
LINE
  5
171
100
AcDbEntity
  8
Layer_1
 62
7
100
AcDbLine
 10
86.733192
 20
610.559701
 30
0.0
 11
78.447561
 21
603.723408
 31
0.0
  0
LINE
  5
172
100
AcDbEntity
  8
Layer_1
 62
7
100
AcDbLine
 10
78.447561
 20
603.723408
 30
0.0
 11
80.965344
 21
593.673737
 31
0.0
  0
LINE
  5
173
100
AcDbEntity
  8
Layer_1
 62
7
100
AcDbLine
 10
80.965344
 20
593.673737
 30
0.0
 11
72.549633
 21
599.213584
 31
0.0
  0
LINE
  5
174
100
AcDbEntity
  8
Layer_1
 62
7
100
AcDbLine
 10
72.549633
 20
599.213584
 30
0.0
 11
63.806818
 21
593.029169
 31
0.0
  0
LINE
  5
175
100
AcDbEntity
  8
Layer_1
 62
7
100
AcDbLine
 10
63.806818
 20
593.029169
 30
0.0
 11
66.891263
 21
603.289287
 31
0.0
  0
LINE
  5
176
100
AcDbEntity
  8
Layer_1
 62
7
100
AcDbLine
 10
66.891263
 20
603.289287
 30
0.0
 11
58.970123
 21
609.516778
 31
0.0
  0
LINE
  5
177
100
AcDbEntity
  8
Layer_1
 62
7
100
AcDbLine
 10
58.970123
 20
609.516778
 30
0.0
 11
69.292111
 21
610.318019
 31
0.0
  0
LINE
  5
178
100
AcDbEntity
  8
Layer_1
 62
7
100
AcDbLine
 10
69.292111
 20
610.318019
 30
0.0
 11
73.139403
 21
620.351248
 31
0.0
  0
LINE
  5
179
100
AcDbEntity
  8
Layer_1
 62
7
100
AcDbLine
 10
74.490714
 20
658.706092
 30
0.0
 11
77.191593
 21
648.321596
 31
0.0
  0
LINE
  5
17a
100
AcDbEntity
  8
Layer_1
 62
7
100
AcDbLine
 10
77.191593
 20
648.321596
 30
0.0
 11
87.889132
 21
647.595554
 31
0.0
  0
LINE
  5
17b
100
AcDbEntity
  8
Layer_1
 62
7
100
AcDbLine
 10
87.889132
 20
647.595554
 30
0.0
 11
78.775606
 21
641.043737
 31
0.0
  0
LINE
  5
17c
100
AcDbEntity
  8
Layer_1
 62
7
100
AcDbLine
 10
78.775606
 20
641.043737
 30
0.0
 11
80.648083
 21
630.415631
 31
0.0
  0
LINE
  5
17d
100
AcDbEntity
  8
Layer_1
 62
7
100
AcDbLine
 10
80.648083
 20
630.415631
 30
0.0
 11
72.314722
 21
636.750871
 31
0.0
  0
LINE
  5
17e
100
AcDbEntity
  8
Layer_1
 62
7
100
AcDbLine
 10
72.314722
 20
636.750871
 30
0.0
 11
62.774441
 21
630.908379
 31
0.0
  0
LINE
  5
17f
100
AcDbEntity
  8
Layer_1
 62
7
100
AcDbLine
 10
62.774441
 20
630.908379
 30
0.0
 11
66.737675
 21
641.375600
 31
0.0
  0
LINE
  5
180
100
AcDbEntity
  8
Layer_1
 62
7
100
AcDbLine
 10
66.737675
 20
641.375600
 30
0.0
 11
58.968979
 21
648.392846
 31
0.0
  0
LINE
  5
181
100
AcDbEntity
  8
Layer_1
 62
7
100
AcDbLine
 10
58.968979
 20
648.392846
 30
0.0
 11
69.751738
 21
648.526691
 31
0.0
  0
LINE
  5
182
100
AcDbEntity
  8
Layer_1
 62
7
100
AcDbLine
 10
69.751738
 20
648.526691
 30
0.0
 11
74.490714
 21
658.706092
 31
0.0
  0
LINE
  5
183
100
AcDbEntity
  8
Layer_1
 62
7
100
AcDbLine
 10
75.928968
 20
697.741522
 30
0.0
 11
77.965319
 21
686.773764
 31
0.0
  0
LINE
  5
184
100
AcDbEntity
  8
Layer_1
 62
7
100
AcDbLine
 10
77.965319
 20
686.773764
 30
0.0
 11
89.013208
 21
685.295133
 31
0.0
  0
LINE
  5
185
100
AcDbEntity
  8
Layer_1
 62
7
100
AcDbLine
 10
89.013208
 20
685.295133
 30
0.0
 11
79.071941
 21
679.108053
 31
0.0
  0
LINE
  5
186
100
AcDbEntity
  8
Layer_1
 62
7
100
AcDbLine
 10
79.071941
 20
679.108053
 30
0.0
 11
80.230628
 21
667.943407
 31
0.0
  0
LINE
  5
187
100
AcDbEntity
  8
Layer_1
 62
7
100
AcDbLine
 10
80.230628
 20
667.943407
 30
0.0
 11
72.050222
 21
675.087329
 31
0.0
  0
LINE
  5
188
100
AcDbEntity
  8
Layer_1
 62
7
100
AcDbLine
 10
72.050222
 20
675.087329
 30
0.0
 11
61.718442
 21
669.665825
 31
0.0
  0
LINE
  5
189
100
AcDbEntity
  8
Layer_1
 62
7
100
AcDbLine
 10
61.718442
 20
669.665825
 30
0.0
 11
66.603951
 21
680.268101
 31
0.0
  0
LINE
  5
18a
100
AcDbEntity
  8
Layer_1
 62
7
100
AcDbLine
 10
66.603951
 20
680.268101
 30
0.0
 11
59.059873
 21
688.082074
 31
0.0
  0
LINE
  5
18b
100
AcDbEntity
  8
Layer_1
 62
7
100
AcDbLine
 10
59.059873
 20
688.082074
 30
0.0
 11
70.259672
 21
687.490706
 31
0.0
  0
LINE
  5
18c
100
AcDbEntity
  8
Layer_1
 62
7
100
AcDbLine
 10
70.259672
 20
687.490706
 30
0.0
 11
75.928968
 21
697.741522
 31
0.0
  0
LINE
  5
18d
100
AcDbEntity
  8
Layer_1
 62
7
100
AcDbLine
 10
77.447514
 20
737.392555
 30
0.0
 11
78.751109
 21
725.884710
 31
0.0
  0
LINE
  5
18e
100
AcDbEntity
  8
Layer_1
 62
7
100
AcDbLine
 10
78.751109
 20
725.884710
 30
0.0
 11
90.095707
 21
723.603664
 31
0.0
  0
LINE
  5
18f
100
AcDbEntity
  8
Layer_1
 62
7
100
AcDbLine
 10
90.095707
 20
723.603664
 30
0.0
 11
79.333961
 21
717.862960
 31
0.0
  0
LINE
  5
190
100
AcDbEntity
  8
Layer_1
 62
7
100
AcDbLine
 10
79.333961
 20
717.862960
 30
0.0
 11
79.713176
 21
706.210445
 31
0.0
  0
LINE
  5
191
100
AcDbEntity
  8
Layer_1
 62
7
100
AcDbLine
 10
79.713176
 20
706.210445
 30
0.0
 11
71.758441
 21
714.170331
 31
0.0
  0
LINE
  5
192
100
AcDbEntity
  8
Layer_1
 62
7
100
AcDbLine
 10
71.758441
 20
714.170331
 30
0.0
 11
60.648212
 21
709.249723
 31
0.0
  0
LINE
  5
193
100
AcDbEntity
  8
Layer_1
 62
7
100
AcDbLine
 10
60.648212
 20
709.249723
 30
0.0
 11
66.493673
 21
719.909915
 31
0.0
  0
LINE
  5
194
100
AcDbEntity
  8
Layer_1
 62
7
100
AcDbLine
 10
66.493673
 20
719.909915
 30
0.0
 11
59.247958
 21
728.521327
 31
0.0
  0
LINE
  5
195
100
AcDbEntity
  8
Layer_1
 62
7
100
AcDbLine
 10
59.247958
 20
728.521327
 30
0.0
 11
70.815369
 21
727.149791
 31
0.0
  0
LINE
  5
196
100
AcDbEntity
  8
Layer_1
 62
7
100
AcDbLine
 10
70.815369
 20
727.149791
 30
0.0
 11
77.447514
 21
737.392555
 31
0.0
  0
LINE
  5
197
100
AcDbEntity
  8
Layer_1
 62
7
100
AcDbLine
 10
115.743760
 20
317.888251
 30
0.0
 11
109.204142
 21
317.714985
 31
0.0
  0
LINE
  5
198
100
AcDbEntity
  8
Layer_1
 62
7
100
AcDbLine
 10
109.204142
 20
317.714985
 30
0.0
 11
106.541803
 21
323.690655
 31
0.0
  0
LINE
  5
199
100
AcDbEntity
  8
Layer_1
 62
7
100
AcDbLine
 10
106.541803
 20
323.690655
 30
0.0
 11
104.685736
 21
317.417562
 31
0.0
  0
LINE
  5
19a
100
AcDbEntity
  8
Layer_1
 62
7
100
AcDbLine
 10
104.685736
 20
317.417562
 30
0.0
 11
98.179830
 21
316.732112
 31
0.0
  0
LINE
  5
19b
100
AcDbEntity
  8
Layer_1
 62
7
100
AcDbLine
 10
98.179830
 20
316.732112
 30
0.0
 11
103.572332
 21
313.028385
 31
0.0
  0
LINE
  5
19c
100
AcDbEntity
  8
Layer_1
 62
7
100
AcDbLine
 10
103.572332
 20
313.028385
 30
0.0
 11
102.213798
 21
306.629084
 31
0.0
  0
LINE
  5
19d
100
AcDbEntity
  8
Layer_1
 62
7
100
AcDbLine
 10
102.213798
 20
306.629084
 30
0.0
 11
107.402618
 21
310.613154
 31
0.0
  0
LINE
  5
19e
100
AcDbEntity
  8
Layer_1
 62
7
100
AcDbLine
 10
107.402618
 20
310.613154
 30
0.0
 11
113.068904
 21
307.343619
 31
0.0
  0
LINE
  5
19f
100
AcDbEntity
  8
Layer_1
 62
7
100
AcDbLine
 10
113.068904
 20
307.343619
 30
0.0
 11
110.883265
 21
313.509626
 31
0.0
  0
LINE
  5
1a0
100
AcDbEntity
  8
Layer_1
 62
7
100
AcDbLine
 10
110.883265
 20
313.509626
 30
0.0
 11
115.743760
 21
317.888251
 31
0.0
  0
LINE
  5
1a1
100
AcDbEntity
  8
Layer_1
 62
7
100
AcDbLine
 10
115.743760
 20
317.888251
 30
0.0
 11
109.204142
 21
317.714985
 31
0.0
  0
LINE
  5
1a2
100
AcDbEntity
  8
Layer_1
 62
7
100
AcDbLine
 10
109.204142
 20
317.714985
 30
0.0
 11
106.541803
 21
323.690655
 31
0.0
  0
LINE
  5
1a3
100
AcDbEntity
  8
Layer_1
 62
7
100
AcDbLine
 10
106.541803
 20
323.690655
 30
0.0
 11
104.685736
 21
317.417562
 31
0.0
  0
LINE
  5
1a4
100
AcDbEntity
  8
Layer_1
 62
7
100
AcDbLine
 10
104.685736
 20
317.417562
 30
0.0
 11
98.179830
 21
316.732112
 31
0.0
  0
LINE
  5
1a5
100
AcDbEntity
  8
Layer_1
 62
7
100
AcDbLine
 10
98.179830
 20
316.732112
 30
0.0
 11
103.572332
 21
313.028385
 31
0.0
  0
LINE
  5
1a6
100
AcDbEntity
  8
Layer_1
 62
7
100
AcDbLine
 10
103.572332
 20
313.028385
 30
0.0
 11
102.213798
 21
306.629084
 31
0.0
  0
LINE
  5
1a7
100
AcDbEntity
  8
Layer_1
 62
7
100
AcDbLine
 10
102.213798
 20
306.629084
 30
0.0
 11
107.402618
 21
310.613154
 31
0.0
  0
LINE
  5
1a8
100
AcDbEntity
  8
Layer_1
 62
7
100
AcDbLine
 10
107.402618
 20
310.613154
 30
0.0
 11
113.068904
 21
307.343619
 31
0.0
  0
LINE
  5
1a9
100
AcDbEntity
  8
Layer_1
 62
7
100
AcDbLine
 10
113.068904
 20
307.343619
 30
0.0
 11
110.883265
 21
313.509626
 31
0.0
  0
LINE
  5
1aa
100
AcDbEntity
  8
Layer_1
 62
7
100
AcDbLine
 10
110.883265
 20
313.509626
 30
0.0
 11
115.743760
 21
317.888251
 31
0.0
  0
LINE
  5
1ab
100
AcDbEntity
  8
Layer_1
 62
7
100
AcDbLine
 10
126.818336
 20
335.692589
 30
0.0
 11
119.897464
 21
335.005953
 31
0.0
  0
LINE
  5
1ac
100
AcDbEntity
  8
Layer_1
 62
7
100
AcDbLine
 10
119.897464
 20
335.005953
 30
0.0
 11
116.668253
 21
341.164982
 31
0.0
  0
LINE
  5
1ad
100
AcDbEntity
  8
Layer_1
 62
7
100
AcDbLine
 10
116.668253
 20
341.164982
 30
0.0
 11
115.127737
 21
334.342296
 31
0.0
  0
LINE
  5
1ae
100
AcDbEntity
  8
Layer_1
 62
7
100
AcDbLine
 10
115.127737
 20
334.342296
 30
0.0
 11
108.277476
 21
333.112826
 31
0.0
  0
LINE
  5
1af
100
AcDbEntity
  8
Layer_1
 62
7
100
AcDbLine
 10
108.277476
 20
333.112826
 30
0.0
 11
114.246254
 21
329.582801
 31
0.0
  0
LINE
  5
1b0
100
AcDbEntity
  8
Layer_1
 62
7
100
AcDbLine
 10
114.246254
 20
329.582801
 30
0.0
 11
113.241767
 21
322.663918
 31
0.0
  0
LINE
  5
1b1
100
AcDbEntity
  8
Layer_1
 62
7
100
AcDbLine
 10
113.241767
 20
322.663918
 30
0.0
 11
118.471194
 21
327.304936
 31
0.0
  0
LINE
  5
1b2
100
AcDbEntity
  8
Layer_1
 62
7
100
AcDbLine
 10
118.471194
 20
327.304936
 30
0.0
 11
124.700649
 21
324.258300
 31
0.0
  0
LINE
  5
1b3
100
AcDbEntity
  8
Layer_1
 62
7
100
AcDbLine
 10
124.700649
 20
324.258300
 30
0.0
 11
121.963831
 21
330.656621
 31
0.0
  0
LINE
  5
1b4
100
AcDbEntity
  8
Layer_1
 62
7
100
AcDbLine
 10
121.963831
 20
330.656621
 30
0.0
 11
126.818336
 21
335.692589
 31
0.0
  0
LINE
  5
1b5
100
AcDbEntity
  8
Layer_1
 62
7
100
AcDbLine
 10
141.021600
 20
358.586691
 30
0.0
 11
133.759935
 21
357.332223
 31
0.0
  0
LINE
  5
1b6
100
AcDbEntity
  8
Layer_1
 62
7
100
AcDbLine
 10
133.759935
 20
357.332223
 30
0.0
 11
129.928312
 21
363.625509
 31
0.0
  0
LINE
  5
1b7
100
AcDbEntity
  8
Layer_1
 62
7
100
AcDbLine
 10
129.928312
 20
363.625509
 30
0.0
 11
128.768373
 21
356.265493
 31
0.0
  0
LINE
  5
1b8
100
AcDbEntity
  8
Layer_1
 62
7
100
AcDbLine
 10
128.768373
 20
356.265493
 30
0.0
 11
121.618422
 21
354.440109
 31
0.0
  0
LINE
  5
1b9
100
AcDbEntity
  8
Layer_1
 62
7
100
AcDbLine
 10
121.618422
 20
354.440109
 30
0.0
 11
128.163203
 21
351.145828
 31
0.0
  0
LINE
  5
1ba
100
AcDbEntity
  8
Layer_1
 62
7
100
AcDbLine
 10
128.163203
 20
351.145828
 30
0.0
 11
127.575912
 21
343.724392
 31
0.0
  0
LINE
  5
1bb
100
AcDbEntity
  8
Layer_1
 62
7
100
AcDbLine
 10
127.575912
 20
343.724392
 30
0.0
 11
132.780751
 21
349.048438
 31
0.0
  0
LINE
  5
1bc
100
AcDbEntity
  8
Layer_1
 62
7
100
AcDbLine
 10
132.780751
 20
349.048438
 30
0.0
 11
139.567735
 21
346.287122
 31
0.0
  0
LINE
  5
1bd
100
AcDbEntity
  8
Layer_1
 62
7
100
AcDbLine
 10
139.567735
 20
346.287122
 30
0.0
 11
136.239718
 21
352.871832
 31
0.0
  0
LINE
  5
1be
100
AcDbEntity
  8
Layer_1
 62
7
100
AcDbLine
 10
136.239718
 20
352.871832
 30
0.0
 11
141.021600
 21
358.586691
 31
0.0
  0
LINE
  5
1bf
100
AcDbEntity
  8
Layer_1
 62
7
100
AcDbLine
 10
156.674080
 20
383.940609
 30
0.0
 11
149.117888
 21
382.067146
 31
0.0
  0
LINE
  5
1c0
100
AcDbEntity
  8
Layer_1
 62
7
100
AcDbLine
 10
149.117888
 20
382.067146
 30
0.0
 11
144.652297
 21
388.441612
 31
0.0
  0
LINE
  5
1c1
100
AcDbEntity
  8
Layer_1
 62
7
100
AcDbLine
 10
144.652297
 20
388.441612
 30
0.0
 11
143.937939
 21
380.562943
 31
0.0
  0
LINE
  5
1c2
100
AcDbEntity
  8
Layer_1
 62
7
100
AcDbLine
 10
143.937939
 20
380.562943
 30
0.0
 11
136.538603
 21
378.093482
 31
0.0
  0
LINE
  5
1c3
100
AcDbEntity
  8
Layer_1
 62
7
100
AcDbLine
 10
136.538603
 20
378.093482
 30
0.0
 11
143.653294
 21
375.097649
 31
0.0
  0
LINE
  5
1c4
100
AcDbEntity
  8
Layer_1
 62
7
100
AcDbLine
 10
143.653294
 20
375.097649
 30
0.0
 11
143.545841
 21
367.196972
 31
0.0
  0
LINE
  5
1c5
100
AcDbEntity
  8
Layer_1
 62
7
100
AcDbLine
 10
143.545841
 20
367.196972
 30
0.0
 11
148.657324
 21
373.224123
 31
0.0
  0
LINE
  5
1c6
100
AcDbEntity
  8
Layer_1
 62
7
100
AcDbLine
 10
148.657324
 20
373.224123
 30
0.0
 11
155.990250
 21
370.810697
 31
0.0
  0
LINE
  5
1c7
100
AcDbEntity
  8
Layer_1
 62
7
100
AcDbLine
 10
155.990250
 20
370.810697
 30
0.0
 11
152.034626
 21
377.531500
 31
0.0
  0
LINE
  5
1c8
100
AcDbEntity
  8
Layer_1
 62
7
100
AcDbLine
 10
152.034626
 20
377.531500
 30
0.0
 11
156.674080
 21
383.940609
 31
0.0
  0
LINE
  5
1c9
100
AcDbEntity
  8
Layer_1
 62
7
100
AcDbLine
 10
173.323354
 20
411.046664
 30
0.0
 11
165.524423
 21
408.506886
 31
0.0
  0
LINE
  5
1ca
100
AcDbEntity
  8
Layer_1
 62
7
100
AcDbLine
 10
165.524423
 20
408.506886
 30
0.0
 11
160.397681
 21
414.905796
 31
0.0
  0
LINE
  5
1cb
100
AcDbEntity
  8
Layer_1
 62
7
100
AcDbLine
 10
160.397681
 20
414.905796
 30
0.0
 11
160.193286
 21
406.533617
 31
0.0
  0
LINE
  5
1cc
100
AcDbEntity
  8
Layer_1
 62
7
100
AcDbLine
 10
160.193286
 20
406.533617
 30
0.0
 11
152.600181
 21
403.376183
 31
0.0
  0
LINE
  5
1cd
100
AcDbEntity
  8
Layer_1
 62
7
100
AcDbLine
 10
152.600181
 20
403.376183
 30
0.0
 11
160.272787
 21
400.741658
 31
0.0
  0
LINE
  5
1ce
100
AcDbEntity
  8
Layer_1
 62
7
100
AcDbLine
 10
160.272787
 20
400.741658
 30
0.0
 11
160.706729
 21
392.391346
 31
0.0
  0
LINE
  5
1cf
100
AcDbEntity
  8
Layer_1
 62
7
100
AcDbLine
 10
160.706729
 20
392.391346
 30
0.0
 11
165.653058
 21
399.135308
 31
0.0
  0
LINE
  5
1d0
100
AcDbEntity
  8
Layer_1
 62
7
100
AcDbLine
 10
165.653058
 20
399.135308
 30
0.0
 11
173.514354
 21
397.131965
 31
0.0
  0
LINE
  5
1d1
100
AcDbEntity
  8
Layer_1
 62
7
100
AcDbLine
 10
173.514354
 20
397.131965
 30
0.0
 11
168.898745
 21
403.934474
 31
0.0
  0
LINE
  5
1d2
100
AcDbEntity
  8
Layer_1
 62
7
100
AcDbLine
 10
168.898745
 20
403.934474
 30
0.0
 11
173.323354
 21
411.046664
 31
0.0
  0
LINE
  5
1d3
100
AcDbEntity
  8
Layer_1
 62
7
100
AcDbLine
 10
190.734485
 20
439.536623
 30
0.0
 11
182.749792
 21
436.287570
 31
0.0
  0
LINE
  5
1d4
100
AcDbEntity
  8
Layer_1
 62
7
100
AcDbLine
 10
182.749792
 20
436.287570
 30
0.0
 11
176.939448
 21
442.650882
 31
0.0
  0
LINE
  5
1d5
100
AcDbEntity
  8
Layer_1
 62
7
100
AcDbLine
 10
176.939448
 20
442.650882
 30
0.0
 11
177.308177
 21
433.816802
 31
0.0
  0
LINE
  5
1d6
100
AcDbEntity
  8
Layer_1
 62
7
100
AcDbLine
 10
177.308177
 20
433.816802
 30
0.0
 11
169.581861
 21
429.932266
 31
0.0
  0
LINE
  5
1d7
100
AcDbEntity
  8
Layer_1
 62
7
100
AcDbLine
 10
169.581861
 20
429.932266
 30
0.0
 11
177.794440
 21
427.721545
 31
0.0
  0
LINE
  5
1d8
100
AcDbEntity
  8
Layer_1
 62
7
100
AcDbLine
 10
177.794440
 20
427.721545
 30
0.0
 11
178.829655
 21
418.957457
 31
0.0
  0
LINE
  5
1d9
100
AcDbEntity
  8
Layer_1
 62
7
100
AcDbLine
 10
178.829655
 20
418.957457
 30
0.0
 11
183.536581
 21
426.425247
 31
0.0
  0
LINE
  5
1da
100
AcDbEntity
  8
Layer_1
 62
7
100
AcDbLine
 10
183.536581
 20
426.425247
 30
0.0
 11
191.902695
 21
424.893278
 31
0.0
  0
LINE
  5
1db
100
AcDbEntity
  8
Layer_1
 62
7
100
AcDbLine
 10
191.902695
 20
424.893278
 30
0.0
 11
186.599155
 21
431.719331
 31
0.0
  0
LINE
  5
1dc
100
AcDbEntity
  8
Layer_1
 62
7
100
AcDbLine
 10
186.599155
 20
431.719331
 30
0.0
 11
190.734485
 21
439.536623
 31
0.0
  0
LINE
  5
1dd
100
AcDbEntity
  8
Layer_1
 62
7
100
AcDbLine
 10
208.760060
 20
469.177656
 30
0.0
 11
200.651401
 21
465.181213
 31
0.0
  0
LINE
  5
1de
100
AcDbEntity
  8
Layer_1
 62
7
100
AcDbLine
 10
200.651401
 20
465.181213
 30
0.0
 11
194.140065
 21
471.445963
 31
0.0
  0
LINE
  5
1df
100
AcDbEntity
  8
Layer_1
 62
7
100
AcDbLine
 10
194.140065
 20
471.445963
 30
0.0
 11
195.143255
 21
462.188005
 31
0.0
  0
LINE
  5
1e0
100
AcDbEntity
  8
Layer_1
 62
7
100
AcDbLine
 10
195.143255
 20
462.188005
 30
0.0
 11
187.348815
 21
457.542474
 31
0.0
  0
LINE
  5
1e1
100
AcDbEntity
  8
Layer_1
 62
7
100
AcDbLine
 10
187.348815
 20
457.542474
 30
0.0
 11
196.077479
 21
455.817172
 31
0.0
  0
LINE
  5
1e2
100
AcDbEntity
  8
Layer_1
 62
7
100
AcDbLine
 10
196.077479
 20
455.817172
 30
0.0
 11
197.771583
 21
446.681326
 31
0.0
  0
LINE
  5
1e3
100
AcDbEntity
  8
Layer_1
 62
7
100
AcDbLine
 10
197.771583
 20
446.681326
 30
0.0
 11
202.163006
 21
454.873000
 31
0.0
  0
LINE
  5
1e4
100
AcDbEntity
  8
Layer_1
 62
7
100
AcDbLine
 10
202.163006
 20
454.873000
 30
0.0
 11
211.004460
 21
453.872265
 31
0.0
  0
LINE
  5
1e5
100
AcDbEntity
  8
Layer_1
 62
7
100
AcDbLine
 10
211.004460
 20
453.872265
 30
0.0
 11
204.989844
 21
460.660284
 31
0.0
  0
LINE
  5
1e6
100
AcDbEntity
  8
Layer_1
 62
7
100
AcDbLine
 10
204.989844
 20
460.660284
 30
0.0
 11
208.760060
 21
469.177656
 31
0.0
  0
LINE
  5
1e7
100
AcDbEntity
  8
Layer_1
 62
7
100
AcDbLine
 10
227.297766
 20
499.806044
 30
0.0
 11
219.131339
 21
495.029397
 31
0.0
  0
LINE
  5
1e8
100
AcDbEntity
  8
Layer_1
 62
7
100
AcDbLine
 10
219.131339
 20
495.029397
 30
0.0
 11
211.906981
 21
501.130112
 31
0.0
  0
LINE
  5
1e9
100
AcDbEntity
  8
Layer_1
 62
7
100
AcDbLine
 10
211.906981
 20
501.130112
 30
0.0
 11
213.603545
 21
491.492609
 31
0.0
  0
LINE
  5
1ea
100
AcDbEntity
  8
Layer_1
 62
7
100
AcDbLine
 10
213.603545
 20
491.492609
 30
0.0
 11
205.810145
 21
486.057864
 31
0.0
  0
LINE
  5
1eb
100
AcDbEntity
  8
Layer_1
 62
7
100
AcDbLine
 10
205.810145
 20
486.057864
 30
0.0
 11
215.025106
 21
484.878194
 31
0.0
  0
LINE
  5
1ec
100
AcDbEntity
  8
Layer_1
 62
7
100
AcDbLine
 10
215.025106
 20
484.878194
 30
0.0
 11
217.432875
 21
475.418620
 31
0.0
  0
LINE
  5
1ed
100
AcDbEntity
  8
Layer_1
 62
7
100
AcDbLine
 10
217.432875
 20
475.418620
 30
0.0
 11
221.431472
 21
484.327057
 31
0.0
  0
LINE
  5
1ee
100
AcDbEntity
  8
Layer_1
 62
7
100
AcDbLine
 10
221.431472
 20
484.327057
 30
0.0
 11
230.712954
 21
483.915464
 31
0.0
  0
LINE
  5
1ef
100
AcDbEntity
  8
Layer_1
 62
7
100
AcDbLine
 10
230.712954
 20
483.915464
 30
0.0
 11
223.969263
 21
490.600834
 31
0.0
  0
LINE
  5
1f0
100
AcDbEntity
  8
Layer_1
 62
7
100
AcDbLine
 10
223.969263
 20
490.600834
 30
0.0
 11
227.297766
 21
499.806044
 31
0.0
  0
LINE
  5
1f1
100
AcDbEntity
  8
Layer_1
 62
7
100
AcDbLine
 10
246.272130
 20
531.298403
 30
0.0
 11
238.118084
 21
525.714464
 31
0.0
  0
LINE
  5
1f2
100
AcDbEntity
  8
Layer_1
 62
7
100
AcDbLine
 10
238.118084
 20
525.714464
 30
0.0
 11
230.174302
 21
531.583603
 31
0.0
  0
LINE
  5
1f3
100
AcDbEntity
  8
Layer_1
 62
7
100
AcDbLine
 10
230.174302
 20
531.583603
 30
0.0
 11
232.620137
 21
521.617043
 31
0.0
  0
LINE
  5
1f4
100
AcDbEntity
  8
Layer_1
 62
7
100
AcDbLine
 10
232.620137
 20
521.617043
 30
0.0
 11
224.900532
 21
515.370930
 31
0.0
  0
LINE
  5
1f5
100
AcDbEntity
  8
Layer_1
 62
7
100
AcDbLine
 10
224.900532
 20
515.370930
 30
0.0
 11
234.566188
 21
514.795182
 31
0.0
  0
LINE
  5
1f6
100
AcDbEntity
  8
Layer_1
 62
7
100
AcDbLine
 10
234.566188
 20
514.795182
 30
0.0
 11
237.738988
 21
505.065732
 31
0.0
  0
LINE
  5
1f7
100
AcDbEntity
  8
Layer_1
 62
7
100
AcDbLine
 10
237.738988
 20
505.065732
 30
0.0
 11
241.266858
 21
514.676472
 31
0.0
  0
LINE
  5
1f8
100
AcDbEntity
  8
Layer_1
 62
7
100
AcDbLine
 10
241.266858
 20
514.676472
 30
0.0
 11
250.947361
 21
514.909453
 31
0.0
  0
LINE
  5
1f9
100
AcDbEntity
  8
Layer_1
 62
7
100
AcDbLine
 10
250.947361
 20
514.909453
 30
0.0
 11
243.462051
 21
521.424947
 31
0.0
  0
LINE
  5
1fa
100
AcDbEntity
  8
Layer_1
 62
7
100
AcDbLine
 10
243.462051
 20
521.424947
 30
0.0
 11
246.272130
 21
531.298403
 31
0.0
  0
LINE
  5
1fb
100
AcDbEntity
  8
Layer_1
 62
7
100
AcDbLine
 10
265.625250
 20
563.557130
 30
0.0
 11
257.557192
 21
557.144919
 31
0.0
  0
LINE
  5
1fc
100
AcDbEntity
  8
Layer_1
 62
7
100
AcDbLine
 10
257.557192
 20
557.144919
 30
0.0
 11
248.893439
 21
562.713337
 31
0.0
  0
LINE
  5
1fd
100
AcDbEntity
  8
Layer_1
 62
7
100
AcDbLine
 10
248.893439
 20
562.713337
 30
0.0
 11
252.140846
 21
552.474149
 31
0.0
  0
LINE
  5
1fe
100
AcDbEntity
  8
Layer_1
 62
7
100
AcDbLine
 10
252.140846
 20
552.474149
 30
0.0
 11
244.570853
 21
545.400938
 31
0.0
  0
LINE
  5
1ff
100
AcDbEntity
  8
Layer_1
 62
7
100
AcDbLine
 10
244.570853
 20
545.400938
 30
0.0
 11
254.645922
 21
545.484969
 31
0.0
  0
LINE
  5
200
100
AcDbEntity
  8
Layer_1
 62
7
100
AcDbLine
 10
254.645922
 20
545.484969
 30
0.0
 11
258.631159
 21
535.545065
 31
0.0
  0
LINE
  5
201
100
AcDbEntity
  8
Layer_1
 62
7
100
AcDbLine
 10
258.631159
 20
535.545065
 30
0.0
 11
261.610486
 21
545.836198
 31
0.0
  0
LINE
  5
202
100
AcDbEntity
  8
Layer_1
 62
7
100
AcDbLine
 10
261.610486
 20
545.836198
 30
0.0
 11
271.643491
 21
546.766210
 31
0.0
  0
LINE
  5
203
100
AcDbEntity
  8
Layer_1
 62
7
100
AcDbLine
 10
271.643491
 20
546.766210
 30
0.0
 11
263.409751
 21
553.042431
 31
0.0
  0
LINE
  5
204
100
AcDbEntity
  8
Layer_1
 62
7
100
AcDbLine
 10
263.409751
 20
553.042431
 30
0.0
 11
265.625250
 21
563.557130
 31
0.0
  0
LINE
  5
205
100
AcDbEntity
  8
Layer_1
 62
7
100
AcDbLine
 10
285.311402
 20
596.502168
 30
0.0
 11
277.405878
 21
589.247156
 31
0.0
  0
LINE
  5
206
100
AcDbEntity
  8
Layer_1
 62
7
100
AcDbLine
 10
277.405878
 20
589.247156
 30
0.0
 11
268.027652
 21
594.444590
 31
0.0
  0
LINE
  5
207
100
AcDbEntity
  8
Layer_1
 62
7
100
AcDbLine
 10
268.027652
 20
594.444590
 30
0.0
 11
272.124777
 21
583.994890
 31
0.0
  0
LINE
  5
208
100
AcDbEntity
  8
Layer_1
 62
7
100
AcDbLine
 10
272.124777
 20
583.994890
 30
0.0
 11
264.782725
 21
576.085587
 31
0.0
  0
LINE
  5
209
100
AcDbEntity
  8
Layer_1
 62
7
100
AcDbLine
 10
264.782725
 20
576.085587
 30
0.0
 11
275.220415
 21
576.882315
 31
0.0
  0
LINE
  5
20a
100
AcDbEntity
  8
Layer_1
 62
7
100
AcDbLine
 10
275.220415
 20
576.882315
 30
0.0
 11
280.061001
 21
566.796661
 31
0.0
  0
LINE
  5
20b
100
AcDbEntity
  8
Layer_1
 62
7
100
AcDbLine
 10
280.061001
 20
566.796661
 30
0.0
 11
282.414721
 21
577.738778
 31
0.0
  0
LINE
  5
20c
100
AcDbEntity
  8
Layer_1
 62
7
100
AcDbLine
 10
282.414721
 20
577.738778
 30
0.0
 11
292.748420
 21
579.414803
 31
0.0
  0
LINE
  5
20d
100
AcDbEntity
  8
Layer_1
 62
7
100
AcDbLine
 10
292.748420
 20
579.414803
 30
0.0
 11
283.765414
 21
585.380657
 31
0.0
  0
LINE
  5
20e
100
AcDbEntity
  8
Layer_1
 62
7
100
AcDbLine
 10
283.765414
 20
585.380657
 30
0.0
 11
285.311402
 21
596.502168
 31
0.0
  0
LINE
  5
20f
100
AcDbEntity
  8
Layer_1
 62
7
100
AcDbLine
 10
305.293994
 20
630.065979
 30
0.0
 11
297.629935
 21
621.960386
 31
0.0
  0
LINE
  5
210
100
AcDbEntity
  8
Layer_1
 62
7
100
AcDbLine
 10
297.629935
 20
621.960386
 30
0.0
 11
287.548929
 21
626.715964
 31
0.0
  0
LINE
  5
211
100
AcDbEntity
  8
Layer_1
 62
7
100
AcDbLine
 10
287.548929
 20
626.715964
 30
0.0
 11
292.539213
 21
616.123239
 31
0.0
  0
LINE
  5
212
100
AcDbEntity
  8
Layer_1
 62
7
100
AcDbLine
 10
292.539213
 20
616.123239
 30
0.0
 11
285.505360
 21
607.375851
 31
0.0
  0
LINE
  5
213
100
AcDbEntity
  8
Layer_1
 62
7
100
AcDbLine
 10
285.505360
 20
607.375851
 30
0.0
 11
296.253590
 21
608.934764
 31
0.0
  0
LINE
  5
214
100
AcDbEntity
  8
Layer_1
 62
7
100
AcDbLine
 10
296.253590
 20
608.934764
 30
0.0
 11
301.987432
 21
598.773001
 31
0.0
  0
LINE
  5
215
100
AcDbEntity
  8
Layer_1
 62
7
100
AcDbLine
 10
301.987432
 20
598.773001
 30
0.0
 11
303.639917
 21
610.329201
 31
0.0
  0
LINE
  5
216
100
AcDbEntity
  8
Layer_1
 62
7
100
AcDbLine
 10
303.639917
 20
610.329201
 30
0.0
 11
314.217480
 21
612.796273
 31
0.0
  0
LINE
  5
217
100
AcDbEntity
  8
Layer_1
 62
7
100
AcDbLine
 10
314.217480
 20
612.796273
 30
0.0
 11
304.490548
 21
618.379464
 31
0.0
  0
LINE
  5
218
100
AcDbEntity
  8
Layer_1
 62
7
100
AcDbLine
 10
304.490548
 20
618.379464
 30
0.0
 11
305.293994
 21
630.065979
 31
0.0
  0
LINE
  5
219
100
AcDbEntity
  8
Layer_1
 62
7
100
AcDbLine
 10
325.543337
 20
664.190376
 30
0.0
 11
318.201479
 21
655.233425
 31
0.0
  0
LINE
  5
21a
100
AcDbEntity
  8
Layer_1
 62
7
100
AcDbLine
 10
318.201479
 20
655.233425
 30
0.0
 11
307.435696
 21
659.476181
 31
0.0
  0
LINE
  5
21b
100
AcDbEntity
  8
Layer_1
 62
7
100
AcDbLine
 10
307.435696
 20
659.476181
 30
0.0
 11
313.357358
 21
648.812937
 31
0.0
  0
LINE
  5
21c
100
AcDbEntity
  8
Layer_1
 62
7
100
AcDbLine
 10
313.357358
 20
648.812937
 30
0.0
 11
306.713286
 21
639.232685
 31
0.0
  0
LINE
  5
21d
100
AcDbEntity
  8
Layer_1
 62
7
100
AcDbLine
 10
306.713286
 20
639.232685
 30
0.0
 11
317.714939
 21
641.599373
 31
0.0
  0
LINE
  5
21e
100
AcDbEntity
  8
Layer_1
 62
7
100
AcDbLine
 10
317.714939
 20
641.599373
 30
0.0
 11
324.374457
 21
631.435694
 31
0.0
  0
LINE
  5
21f
100
AcDbEntity
  8
Layer_1
 62
7
100
AcDbLine
 10
324.374457
 20
631.435694
 30
0.0
 11
325.252187
 21
643.561645
 31
0.0
  0
LINE
  5
220
100
AcDbEntity
  8
Layer_1
 62
7
100
AcDbLine
 10
325.252187
 20
643.561645
 30
0.0
 11
336.012067
 21
646.860397
 31
0.0
  0
LINE
  5
221
100
AcDbEntity
  8
Layer_1
 62
7
100
AcDbLine
 10
336.012067
 20
646.860397
 30
0.0
 11
325.552889
 21
651.987939
 31
0.0
  0
LINE
  5
222
100
AcDbEntity
  8
Layer_1
 62
7
100
AcDbLine
 10
325.552889
 20
651.987939
 30
0.0
 11
325.543337
 21
664.190376
 31
0.0
  0
ENDSEC
  0
SECTION
  2
OBJECTS
  0
DICTIONARY
  5
C
330
0
100
AcDbDictionary
  3
ACAD_GROUP
350
D
  3
ACAD_MLINESTYLE
350
17
  0
DICTIONARY
  5
D
330
C
100
AcDbDictionary
  0
DICTIONARY
  5
1A
330
C
100
AcDbDictionary
  0
DICTIONARY
  5
17
330
C
100
AcDbDictionary
  3
STANDARD
350
18
  0
DICTIONARY
  5
19
330
C
100
AcDbDictionary
  0
ENDSEC
  0
EOF
