  0
SECTION
  2
HEADER
  9
$ACADVER
  1
AC1014
  9
$HANDSEED
  5
FFFF
  9
$MEASUREMENT
 70
     1
  0
ENDSEC
  0
SECTION
  2
TABLES
  0
TABLE
  2
VPORT
  5
8
330
0
100
AcDbSymbolTable
 70
     4
  0
VPORT
  5
2E
330
8
100
AcDbSymbolTableRecord
100
AcDbViewportTableRecord
  2
*ACTIVE
 70
     0
 10
0.0
 20
0.0
 11
1.0
 21
1.0
 12
210.0
 22
148.5
 13
0.0
 23
0.0
 14
10.0
 24
10.0
 15
10.0
 25
10.0
 16
0.0
 26
0.0
 36
1.0
 17
0.0
 27
0.0
 37
0.0
 40
341.0
 41
1.24
 42
50.0
 43
0.0
 44
0.0
 50
0.0
 51
0.0
 71
     0
 72
   100
 73
     1
 74
     3
 75
     0
 76
     0
 77
     0
 78
     0
  0
ENDTAB
  0
TABLE
  2
LTYPE
  5
5
330
0
100
AcDbSymbolTable
 70
     1
  0
LTYPE
  5
14
330
5
100
AcDbSymbolTableRecord
100
AcDbLinetypeTableRecord
  2
BYBLOCK
 70
     0
  3

 72
    65
 73
     0
 40
0.0
  0
LTYPE
  5
15
330
5
100
AcDbSymbolTableRecord
100
AcDbLinetypeTableRecord
  2
BYLAYER
 70
     0
  3

 72
    65
 73
     0
 40
0.0
  0
LTYPE
  5
16
330
5
100
AcDbSymbolTableRecord
100
AcDbLinetypeTableRecord
  2
CONTINUOUS
 70
     0
  3
Solid line
 72
    65
 73
     0
 40
0.0
  0
ENDTAB
  0
TABLE
  2
LAYER
  5
2
100
AcDbSymbolTable
 70
2
  0
LAYER
  5
50
100
AcDbSymbolTableRecord
100
AcDbLayerTableRecord
  2
0
 70
0
  6
CONTINUOUS
  0
LAYER
  5
51
100
AcDbSymbolTableRecord
100
AcDbLayerTableRecord
  2
Layer_1
 70
0
  6
CONTINUOUS
  0
ENDTAB
  0
TABLE
  2
STYLE
  5
3
330
0
100
AcDbSymbolTable
 70
     1
  0
STYLE
  5
11
330
3
100
AcDbSymbolTableRecord
100
AcDbTextStyleTableRecord
  2
STANDARD
 70
     0
 40
0.0
 41
1.0
 50
0.0
 71
     0
 42
2.5
  3
txt
  4

  0
ENDTAB
  0
TABLE
  2
VIEW
  5
6
330
0
100
AcDbSymbolTable
 70
     0
  0
ENDTAB
  0
TABLE
  2
UCS
  5
7
330
0
100
AcDbSymbolTable
 70
     0
  0
ENDTAB
  0
TABLE
  2
APPID
  5
9
330
0
100
AcDbSymbolTable
 70
     2
  0
APPID
  5
12
330
9
100
AcDbSymbolTableRecord
100
AcDbRegAppTableRecord
  2
ACAD
 70
     0
  0
ENDTAB
  0
TABLE
  2
DIMSTYLE
  5
A
330
0
100
AcDbSymbolTable
 70
     1
  0
DIMSTYLE
105
27
330
A
100
AcDbSymbolTableRecord
100
AcDbDimStyleTableRecord
  2
ISO-25
 70
     0
  3

  4

  5

  6

  7

 40
1.0
 41
2.5
 42
0.625
 43
3.75
 44
1.25
 45
0.0
 46
0.0
 47
0.0
 48
0.0
140
2.5
141
2.5
142
0.0
143
0.03937007874016
144
1.0
145
0.0
146
1.0
147
0.625
 71
     0
 72
     0
 73
     0
 74
     0
 75
     0
 76
     0
 77
     1
 78
     8
170
     0
171
     3
172
     1
173
     0
174
     0
175
     0
176
     0
177
     0
178
     0
270
     2
271
     2
272
     2
273
     2
274
     3
340
11
275
     0
280
     0
281
     0
282
     0
283
     0
284
     8
285
     0
286
     0
287
     3
288
     0
  0
ENDTAB
  0
TABLE
  2
BLOCK_RECORD
  5
1
330
0
100
AcDbSymbolTable
 70
     1
  0
BLOCK_RECORD
  5
1F
330
1
100
AcDbSymbolTableRecord
100
AcDbBlockTableRecord
  2
*MODEL_SPACE
  0
BLOCK_RECORD
  5
1B
330
1
100
AcDbSymbolTableRecord
100
AcDbBlockTableRecord
  2
*PAPER_SPACE
  0
ENDTAB
  0
ENDSEC
  0
SECTION
  2
BLOCKS
  0
BLOCK
  5
20
330
1F
100
AcDbEntity
  8
0
100
AcDbBlockBegin
  2
*MODEL_SPACE
 70
     0
 10
0.0
 20
0.0
 30
0.0
  3
*MODEL_SPACE
  1

  0
ENDBLK
  5
21
330
1F
100
AcDbEntity
  8
0
100
AcDbBlockEnd
  0
BLOCK
  5
1C
330
1B
100
AcDbEntity
 67
     1
  8
0
100
AcDbBlockBegin
  2
*PAPER_SPACE
  1

  0
ENDBLK
  5
1D
330
1B
100
AcDbEntity
 67
     1
  8
0
100
AcDbBlockEnd
  0
ENDSEC
  0
SECTION
  2
ENTITIES
  0
LINE
  5
100
100
AcDbEntity
  8
Layer_1
 62
7
100
AcDbLine
 10
519.064983
 20
708.408017
 30
0.0
 11
496.301981
 21
722.561917
 31
0.0
  0
LINE
  5
101
100
AcDbEntity
  8
Layer_1
 62
7
100
AcDbLine
 10
496.301981
 20
722.561917
 30
0.0
 11
242.157399
 21
609.850834
 31
0.0
  0
LINE
  5
102
100
AcDbEntity
  8
Layer_1
 62
7
100
AcDbLine
 10
242.157399
 20
609.850834
 30
0.0
 11
231.864183
 21
579.817391
 31
0.0
  0
LINE
  5
103
100
AcDbEntity
  8
Layer_1
 62
7
100
AcDbLine
 10
231.864183
 20
579.817391
 30
0.0
 11
60.470620
 21
843.719067
 31
0.0
  0
LINE
  5
104
100
AcDbEntity
  8
Layer_1
 62
7
100
AcDbLine
 10
60.470620
 20
843.719067
 30
0.0
 11
33.138989
 21
816.874472
 31
0.0
  0
LINE
  5
105
100
AcDbEntity
  8
Layer_1
 62
7
100
AcDbLine
 10
33.138989
 20
816.874472
 30
0.0
 11
33.138861
 21
99.273075
 31
0.0
  0
LINE
  5
106
100
AcDbEntity
  8
Layer_1
 62
7
100
AcDbLine
 10
33.138861
 20
99.273075
 30
0.0
 11
66.397057
 21
19.018467
 31
0.0
  0
LINE
  5
107
100
AcDbEntity
  8
Layer_1
 62
1
100
AcDbLine
 10
60.470620
 20
843.719067
 30
0.0
 11
66.397057
 21
19.018467
 31
0.0
  0
LINE
  5
108
100
AcDbEntity
  8
Layer_1
 62
1
100
AcDbLine
 10
66.397057
 20
19.018467
 30
0.0
 11
231.864183
 21
579.817391
 31
0.0
  0
LINE
  5
109
100
AcDbEntity
  8
Layer_1
 62
1
100
AcDbLine
 10
231.864183
 20
579.817391
 30
0.0
 11
519.064983
 21
708.408017
 31
0.0
  0
LINE
  5
10a
100
AcDbEntity
  8
Layer_1
 62
7
100
AcDbLine
 10
95.091108
 20
225.581176
 30
0.0
 11
101.485949
 21
221.203239
 31
0.0
  0
LINE
  5
10b
100
AcDbEntity
  8
Layer_1
 62
7
100
AcDbLine
 10
101.485949
 20
221.203239
 30
0.0
 11
107.977597
 21
225.436313
 31
0.0
  0
LINE
  5
10c
100
AcDbEntity
  8
Layer_1
 62
7
100
AcDbLine
 10
107.977597
 20
225.436313
 30
0.0
 11
105.790043
 21
218.001597
 31
0.0
  0
LINE
  5
10d
100
AcDbEntity
  8
Layer_1
 62
7
100
AcDbLine
 10
105.790043
 20
218.001597
 30
0.0
 11
111.821964
 21
213.135768
 31
0.0
  0
LINE
  5
10e
100
AcDbEntity
  8
Layer_1
 62
7
100
AcDbLine
 10
111.821964
 20
213.135768
 30
0.0
 11
104.075138
 21
212.918786
 31
0.0
  0
LINE
  5
10f
100
AcDbEntity
  8
Layer_1
 62
7
100
AcDbLine
 10
104.075138
 20
212.918786
 30
0.0
 11
101.311426
 21
205.678463
 31
0.0
  0
LINE
  5
110
100
AcDbEntity
  8
Layer_1
 62
7
100
AcDbLine
 10
101.311426
 20
205.678463
 30
0.0
 11
98.711178
 21
212.979087
 31
0.0
  0
LINE
  5
111
100
AcDbEntity
  8
Layer_1
 62
7
100
AcDbLine
 10
98.711178
 20
212.979087
 30
0.0
 11
90.971189
 21
213.370150
 31
0.0
  0
LINE
  5
112
100
AcDbEntity
  8
Layer_1
 62
7
100
AcDbLine
 10
90.971189
 20
213.370150
 30
0.0
 11
97.110971
 21
218.099151
 31
0.0
  0
LINE
  5
113
100
AcDbEntity
  8
Layer_1
 62
7
100
AcDbLine
 10
97.110971
 20
218.099151
 30
0.0
 11
95.091108
 21
225.581176
 31
0.0
  0
LINE
  5
114
100
AcDbEntity
  8
Layer_1
 62
7
100
AcDbLine
 10
95.091108
 20
225.581176
 30
0.0
 11
101.485949
 21
221.203239
 31
0.0
  0
LINE
  5
115
100
AcDbEntity
  8
Layer_1
 62
7
100
AcDbLine
 10
101.485949
 20
221.203239
 30
0.0
 11
107.977597
 21
225.436313
 31
0.0
  0
LINE
  5
116
100
AcDbEntity
  8
Layer_1
 62
7
100
AcDbLine
 10
107.977597
 20
225.436313
 30
0.0
 11
105.790043
 21
218.001597
 31
0.0
  0
LINE
  5
117
100
AcDbEntity
  8
Layer_1
 62
7
100
AcDbLine
 10
105.790043
 20
218.001597
 30
0.0
 11
111.821964
 21
213.135768
 31
0.0
  0
LINE
  5
118
100
AcDbEntity
  8
Layer_1
 62
7
100
AcDbLine
 10
111.821964
 20
213.135768
 30
0.0
 11
104.075138
 21
212.918786
 31
0.0
  0
LINE
  5
119
100
AcDbEntity
  8
Layer_1
 62
7
100
AcDbLine
 10
104.075138
 20
212.918786
 30
0.0
 11
101.311426
 21
205.678463
 31
0.0
  0
LINE
  5
11a
100
AcDbEntity
  8
Layer_1
 62
7
100
AcDbLine
 10
101.311426
 20
205.678463
 30
0.0
 11
98.711178
 21
212.979087
 31
0.0
  0
LINE
  5
11b
100
AcDbEntity
  8
Layer_1
 62
7
100
AcDbLine
 10
98.711178
 20
212.979087
 30
0.0
 11
90.971189
 21
213.370150
 31
0.0
  0
LINE
  5
11c
100
AcDbEntity
  8
Layer_1
 62
7
100
AcDbLine
 10
90.971189
 20
213.370150
 30
0.0
 11
97.110971
 21
218.099151
 31
0.0
  0
LINE
  5
11d
100
AcDbEntity
  8
Layer_1
 62
7
100
AcDbLine
 10
97.110971
 20
218.099151
 30
0.0
 11
95.091108
 21
225.581176
 31
0.0
  0
LINE
  5
11e
100
AcDbEntity
  8
Layer_1
 62
7
100
AcDbLine
 10
95.522780
 20
250.416650
 30
0.0
 11
101.966789
 21
245.282780
 31
0.0
  0
LINE
  5
11f
100
AcDbEntity
  8
Layer_1
 62
7
100
AcDbLine
 10
101.966789
 20
245.282780
 30
0.0
 11
109.140333
 21
249.333731
 31
0.0
  0
LINE
  5
120
100
AcDbEntity
  8
Layer_1
 62
7
100
AcDbLine
 10
109.140333
 20
249.333731
 30
0.0
 11
106.285400
 21
241.555150
 31
0.0
  0
LINE
  5
121
100
AcDbEntity
  8
Layer_1
 62
7
100
AcDbLine
 10
106.285400
 20
241.555150
 30
0.0
 11
112.310068
 21
235.926625
 31
0.0
  0
LINE
  5
122
100
AcDbEntity
  8
Layer_1
 62
7
100
AcDbLine
 10
112.310068
 20
235.926625
 30
0.0
 11
104.101611
 21
236.253056
 31
0.0
  0
LINE
  5
123
100
AcDbEntity
  8
Layer_1
 62
7
100
AcDbLine
 10
104.101611
 20
236.253056
 30
0.0
 11
100.651518
 21
228.723485
 31
0.0
  0
LINE
  5
124
100
AcDbEntity
  8
Layer_1
 62
7
100
AcDbLine
 10
100.651518
 20
228.723485
 30
0.0
 11
98.433347
 21
236.703820
 31
0.0
  0
LINE
  5
125
100
AcDbEntity
  8
Layer_1
 62
7
100
AcDbLine
 10
98.433347
 20
236.703820
 30
0.0
 11
90.276405
 21
237.678813
 31
0.0
  0
LINE
  5
126
100
AcDbEntity
  8
Layer_1
 62
7
100
AcDbLine
 10
90.276405
 20
237.678813
 30
0.0
 11
97.113953
 21
242.284487
 31
0.0
  0
LINE
  5
127
100
AcDbEntity
  8
Layer_1
 62
7
100
AcDbLine
 10
97.113953
 20
242.284487
 30
0.0
 11
95.522780
 21
250.416650
 31
0.0
  0
LINE
  5
128
100
AcDbEntity
  8
Layer_1
 62
7
100
AcDbLine
 10
96.114889
 20
282.327955
 30
0.0
 11
102.532786
 21
276.409989
 31
0.0
  0
LINE
  5
129
100
AcDbEntity
  8
Layer_1
 62
7
100
AcDbLine
 10
102.532786
 20
276.409989
 30
0.0
 11
110.392011
 21
280.207107
 31
0.0
  0
LINE
  5
12a
100
AcDbEntity
  8
Layer_1
 62
7
100
AcDbLine
 10
110.392011
 20
280.207107
 30
0.0
 11
106.812891
 21
272.138683
 31
0.0
  0
LINE
  5
12b
100
AcDbEntity
  8
Layer_1
 62
7
100
AcDbLine
 10
106.812891
 20
272.138683
 30
0.0
 11
112.752494
 21
265.724554
 31
0.0
  0
LINE
  5
12c
100
AcDbEntity
  8
Layer_1
 62
7
100
AcDbLine
 10
112.752494
 20
265.724554
 30
0.0
 11
104.122575
 21
266.655948
 31
0.0
  0
LINE
  5
12d
100
AcDbEntity
  8
Layer_1
 62
7
100
AcDbLine
 10
104.122575
 20
266.655948
 30
0.0
 11
99.934229
 21
258.894680
 31
0.0
  0
LINE
  5
12e
100
AcDbEntity
  8
Layer_1
 62
7
100
AcDbLine
 10
99.934229
 20
258.894680
 30
0.0
 11
98.179768
 21
267.538747
 31
0.0
  0
LINE
  5
12f
100
AcDbEntity
  8
Layer_1
 62
7
100
AcDbLine
 10
98.179768
 20
267.538747
 30
0.0
 11
89.651625
 21
269.156147
 31
0.0
  0
LINE
  5
130
100
AcDbEntity
  8
Layer_1
 62
7
100
AcDbLine
 10
89.651625
 20
269.156147
 30
0.0
 11
97.197223
 21
273.567065
 31
0.0
  0
LINE
  5
131
100
AcDbEntity
  8
Layer_1
 62
7
100
AcDbLine
 10
97.197223
 20
273.567065
 30
0.0
 11
96.114889
 21
282.327955
 31
0.0
  0
LINE
  5
132
100
AcDbEntity
  8
Layer_1
 62
7
100
AcDbLine
 10
96.847054
 20
317.618506
 30
0.0
 11
103.159907
 21
310.895295
 31
0.0
  0
LINE
  5
133
100
AcDbEntity
  8
Layer_1
 62
7
100
AcDbLine
 10
103.159907
 20
310.895295
 30
0.0
 11
111.702071
 21
314.365481
 31
0.0
  0
LINE
  5
134
100
AcDbEntity
  8
Layer_1
 62
7
100
AcDbLine
 10
111.702071
 20
314.365481
 30
0.0
 11
107.346104
 21
306.067596
 31
0.0
  0
LINE
  5
135
100
AcDbEntity
  8
Layer_1
 62
7
100
AcDbLine
 10
107.346104
 20
306.067596
 30
0.0
 11
113.119621
 21
298.852299
 31
0.0
  0
LINE
  5
136
100
AcDbEntity
  8
Layer_1
 62
7
100
AcDbLine
 10
113.119621
 20
298.852299
 30
0.0
 11
104.114627
 21
300.447123
 31
0.0
  0
LINE
  5
137
100
AcDbEntity
  8
Layer_1
 62
7
100
AcDbLine
 10
104.114627
 20
300.447123
 30
0.0
 11
99.140696
 21
292.517636
 31
0.0
  0
LINE
  5
138
100
AcDbEntity
  8
Layer_1
 62
7
100
AcDbLine
 10
99.140696
 20
292.517636
 30
0.0
 11
97.931274
 21
301.801186
 31
0.0
  0
LINE
  5
139
100
AcDbEntity
  8
Layer_1
 62
7
100
AcDbLine
 10
97.931274
 20
301.801186
 30
0.0
 11
89.083697
 21
304.115790
 31
0.0
  0
LINE
  5
13a
100
AcDbEntity
  8
Layer_1
 62
7
100
AcDbLine
 10
89.083697
 20
304.115790
 30
0.0
 11
97.341221
 21
308.258501
 31
0.0
  0
LINE
  5
13b
100
AcDbEntity
  8
Layer_1
 62
7
100
AcDbLine
 10
97.341221
 20
308.258501
 30
0.0
 11
96.847054
 21
317.618506
 31
0.0
  0
LINE
  5
13c
100
AcDbEntity
  8
Layer_1
 62
7
100
AcDbLine
 10
97.714286
 20
355.293284
 30
0.0
 11
103.840142
 21
347.751055
 31
0.0
  0
LINE
  5
13d
100
AcDbEntity
  8
Layer_1
 62
7
100
AcDbLine
 10
103.840142
 20
347.751055
 30
0.0
 11
113.055805
 21
350.820381
 31
0.0
  0
LINE
  5
13e
100
AcDbEntity
  8
Layer_1
 62
7
100
AcDbLine
 10
113.055805
 20
350.820381
 30
0.0
 11
107.875104
 21
342.359455
 31
0.0
  0
LINE
  5
13f
100
AcDbEntity
  8
Layer_1
 62
7
100
AcDbLine
 10
107.875104
 20
342.359455
 30
0.0
 11
113.398975
 21
334.335083
 31
0.0
  0
LINE
  5
140
100
AcDbEntity
  8
Layer_1
 62
7
100
AcDbLine
 10
113.398975
 20
334.335083
 30
0.0
 11
104.071264
 21
336.648160
 31
0.0
  0
LINE
  5
141
100
AcDbEntity
  8
Layer_1
 62
7
100
AcDbLine
 10
104.071264
 20
336.648160
 30
0.0
 11
98.269544
 21
328.619497
 31
0.0
  0
LINE
  5
142
100
AcDbEntity
  8
Layer_1
 62
7
100
AcDbLine
 10
98.269544
 20
328.619497
 30
0.0
 11
97.685406
 21
338.509994
 31
0.0
  0
LINE
  5
143
100
AcDbEntity
  8
Layer_1
 62
7
100
AcDbLine
 10
97.685406
 20
338.509994
 30
0.0
 11
88.575874
 21
341.572378
 31
0.0
  0
LINE
  5
144
100
AcDbEntity
  8
Layer_1
 62
7
100
AcDbLine
 10
88.575874
 20
341.572378
 30
0.0
 11
97.542561
 21
345.371949
 31
0.0
  0
LINE
  5
145
100
AcDbEntity
  8
Layer_1
 62
7
100
AcDbLine
 10
97.542561
 20
345.371949
 30
0.0
 11
97.714286
 21
355.293284
 31
0.0
  0
LINE
  5
146
100
AcDbEntity
  8
Layer_1
 62
7
100
AcDbLine
 10
98.713521
 20
394.834852
 30
0.0
 11
104.568064
 21
386.467503
 31
0.0
  0
LINE
  5
147
100
AcDbEntity
  8
Layer_1
 62
7
100
AcDbLine
 10
104.568064
 20
386.467503
 30
0.0
 11
114.440950
 21
389.061796
 31
0.0
  0
LINE
  5
148
100
AcDbEntity
  8
Layer_1
 62
7
100
AcDbLine
 10
114.440950
 20
389.061796
 30
0.0
 11
108.393004
 21
380.509894
 31
0.0
  0
LINE
  5
149
100
AcDbEntity
  8
Layer_1
 62
7
100
AcDbLine
 10
108.393004
 20
380.509894
 30
0.0
 11
113.581816
 21
371.676461
 31
0.0
  0
LINE
  5
14a
100
AcDbEntity
  8
Layer_1
 62
7
100
AcDbLine
 10
113.581816
 20
371.676461
 30
0.0
 11
103.989430
 21
374.758431
 31
0.0
  0
LINE
  5
14b
100
AcDbEntity
  8
Layer_1
 62
7
100
AcDbLine
 10
103.989430
 20
374.758431
 30
0.0
 11
97.323408
 21
366.704775
 31
0.0
  0
LINE
  5
14c
100
AcDbEntity
  8
Layer_1
 62
7
100
AcDbLine
 10
97.323408
 20
366.704775
 30
0.0
 11
97.442939
 21
377.161450
 31
0.0
  0
LINE
  5
14d
100
AcDbEntity
  8
Layer_1
 62
7
100
AcDbLine
 10
97.442939
 20
377.161450
 30
0.0
 11
88.134299
 21
381.017448
 31
0.0
  0
LINE
  5
14e
100
AcDbEntity
  8
Layer_1
 62
7
100
AcDbLine
 10
88.134299
 20
381.017448
 30
0.0
 11
97.800549
 21
384.398043
 31
0.0
  0
LINE
  5
14f
100
AcDbEntity
  8
Layer_1
 62
7
100
AcDbLine
 10
97.800549
 20
384.398043
 30
0.0
 11
98.713521
 21
394.834852
 31
0.0
  0
LINE
  5
150
100
AcDbEntity
  8
Layer_1
 62
7
100
AcDbLine
 10
99.841688
 20
435.916765
 30
0.0
 11
105.338926
 21
426.726116
 31
0.0
  0
LINE
  5
151
100
AcDbEntity
  8
Layer_1
 62
7
100
AcDbLine
 10
105.338926
 20
426.726116
 30
0.0
 11
115.845846
 21
428.771549
 31
0.0
  0
LINE
  5
152
100
AcDbEntity
  8
Layer_1
 62
7
100
AcDbLine
 10
115.845846
 20
428.771549
 30
0.0
 11
108.894084
 21
420.205945
 31
0.0
  0
LINE
  5
153
100
AcDbEntity
  8
Layer_1
 62
7
100
AcDbLine
 10
108.894084
 20
420.205945
 30
0.0
 11
113.661286
 21
410.571590
 31
0.0
  0
LINE
  5
154
100
AcDbEntity
  8
Layer_1
 62
7
100
AcDbLine
 10
113.661286
 20
410.571590
 30
0.0
 11
103.867614
 21
414.468392
 31
0.0
  0
LINE
  5
155
100
AcDbEntity
  8
Layer_1
 62
7
100
AcDbLine
 10
103.867614
 20
414.468392
 30
0.0
 11
96.306989
 21
406.468597
 31
0.0
  0
LINE
  5
156
100
AcDbEntity
  8
Layer_1
 62
7
100
AcDbLine
 10
96.306989
 20
406.468597
 30
0.0
 11
97.205935
 21
417.442569
 31
0.0
  0
LINE
  5
157
100
AcDbEntity
  8
Layer_1
 62
7
100
AcDbLine
 10
97.205935
 20
417.442569
 30
0.0
 11
87.766010
 21
422.132778
 31
0.0
  0
LINE
  5
158
100
AcDbEntity
  8
Layer_1
 62
7
100
AcDbLine
 10
87.766010
 20
422.132778
 30
0.0
 11
98.115250
 21
425.018246
 31
0.0
  0
LINE
  5
159
100
AcDbEntity
  8
Layer_1
 62
7
100
AcDbLine
 10
98.115250
 20
425.018246
 30
0.0
 11
99.841688
 21
435.916765
 31
0.0
  0
LINE
  5
15a
100
AcDbEntity
  8
Layer_1
 62
7
100
AcDbLine
 10
101.095293
 20
478.310343
 30
0.0
 11
106.148264
 21
468.306318
 31
0.0
  0
LINE
  5
15b
100
AcDbEntity
  8
Layer_1
 62
7
100
AcDbLine
 10
106.148264
 20
468.306318
 30
0.0
 11
117.259080
 21
469.730018
 31
0.0
  0
LINE
  5
15c
100
AcDbEntity
  8
Layer_1
 62
7
100
AcDbLine
 10
117.259080
 20
469.730018
 30
0.0
 11
109.373400
 21
461.232706
 31
0.0
  0
LINE
  5
15d
100
AcDbEntity
  8
Layer_1
 62
7
100
AcDbLine
 10
109.373400
 20
461.232706
 30
0.0
 11
113.632030
 21
450.813829
 31
0.0
  0
LINE
  5
15e
100
AcDbEntity
  8
Layer_1
 62
7
100
AcDbLine
 10
113.632030
 20
450.813829
 30
0.0
 11
103.705431
 21
455.566213
 31
0.0
  0
LINE
  5
15f
100
AcDbEntity
  8
Layer_1
 62
7
100
AcDbLine
 10
103.705431
 20
455.566213
 30
0.0
 11
95.226596
 21
447.703291
 31
0.0
  0
LINE
  5
160
100
AcDbEntity
  8
Layer_1
 62
7
100
AcDbLine
 10
95.226596
 20
447.703291
 30
0.0
 11
96.977308
 21
459.137749
 31
0.0
  0
LINE
  5
161
100
AcDbEntity
  8
Layer_1
 62
7
100
AcDbLine
 10
96.977308
 20
459.137749
 30
0.0
 11
87.478469
 21
464.697071
 31
0.0
  0
LINE
  5
162
100
AcDbEntity
  8
Layer_1
 62
7
100
AcDbLine
 10
87.478469
 20
464.697071
 30
0.0
 11
98.487054
 21
467.011555
 31
0.0
  0
LINE
  5
163
100
AcDbEntity
  8
Layer_1
 62
7
100
AcDbLine
 10
98.487054
 20
467.011555
 30
0.0
 11
101.095293
 21
478.310343
 31
0.0
  0
LINE
  5
164
100
AcDbEntity
  8
Layer_1
 62
7
100
AcDbLine
 10
102.470077
 20
521.844296
 30
0.0
 11
106.991570
 21
511.045059
 31
0.0
  0
LINE
  5
165
100
AcDbEntity
  8
Layer_1
 62
7
100
AcDbLine
 10
106.991570
 20
511.045059
 30
0.0
 11
118.669217
 21
511.775710
 31
0.0
  0
LINE
  5
166
100
AcDbEntity
  8
Layer_1
 62
7
100
AcDbLine
 10
118.669217
 20
511.775710
 30
0.0
 11
109.826473
 21
503.432867
 31
0.0
  0
LINE
  5
167
100
AcDbEntity
  8
Layer_1
 62
7
100
AcDbLine
 10
109.826473
 20
503.432867
 30
0.0
 11
113.489904
 21
492.254216
 31
0.0
  0
LINE
  5
168
100
AcDbEntity
  8
Layer_1
 62
7
100
AcDbLine
 10
113.489904
 20
492.254216
 30
0.0
 11
103.503284
 21
497.897279
 31
0.0
  0
LINE
  5
169
100
AcDbEntity
  8
Layer_1
 62
7
100
AcDbLine
 10
103.503284
 20
497.897279
 30
0.0
 11
94.089765
 21
490.257840
 31
0.0
  0
LINE
  5
16a
100
AcDbEntity
  8
Layer_1
 62
7
100
AcDbLine
 10
94.089765
 20
490.257840
 30
0.0
 11
96.760445
 21
502.088300
 31
0.0
  0
LINE
  5
16b
100
AcDbEntity
  8
Layer_1
 62
7
100
AcDbLine
 10
96.760445
 20
502.088300
 30
0.0
 11
87.279139
 21
508.545516
 31
0.0
  0
LINE
  5
16c
100
AcDbEntity
  8
Layer_1
 62
7
100
AcDbLine
 10
87.279139
 20
508.545516
 30
0.0
 11
98.916316
 21
510.214062
 31
0.0
  0
LINE
  5
16d
100
AcDbEntity
  8
Layer_1
 62
7
100
AcDbLine
 10
98.916316
 20
510.214062
 30
0.0
 11
102.470077
 21
521.844296
 31
0.0
  0
LINE
  5
16e
100
AcDbEntity
  8
Layer_1
 62
7
100
AcDbLine
 10
103.960878
 20
566.384282
 30
0.0
 11
107.864170
 21
554.816295
 31
0.0
  0
LINE
  5
16f
100
AcDbEntity
  8
Layer_1
 62
7
100
AcDbLine
 10
107.864170
 20
554.816295
 30
0.0
 11
120.064726
 21
554.784753
 31
0.0
  0
LINE
  5
170
100
AcDbEntity
  8
Layer_1
 62
7
100
AcDbLine
 10
120.064726
 20
554.784753
 30
0.0
 11
110.249174
 21
546.686155
 31
0.0
  0
LINE
  5
171
100
AcDbEntity
  8
Layer_1
 62
7
100
AcDbLine
 10
110.249174
 20
546.686155
 30
0.0
 11
113.231859
 21
534.780839
 31
0.0
  0
LINE
  5
172
100
AcDbEntity
  8
Layer_1
 62
7
100
AcDbLine
 10
113.231859
 20
534.780839
 30
0.0
 11
103.262210
 21
541.343604
 31
0.0
  0
LINE
  5
173
100
AcDbEntity
  8
Layer_1
 62
7
100
AcDbLine
 10
103.262210
 20
541.343604
 30
0.0
 11
92.905057
 21
534.017253
 31
0.0
  0
LINE
  5
174
100
AcDbEntity
  8
Layer_1
 62
7
100
AcDbLine
 10
92.905057
 20
534.017253
 30
0.0
 11
96.559036
 21
546.171875
 31
0.0
  0
LINE
  5
175
100
AcDbEntity
  8
Layer_1
 62
7
100
AcDbLine
 10
96.559036
 20
546.171875
 30
0.0
 11
87.175278
 21
553.549256
 31
0.0
  0
LINE
  5
176
100
AcDbEntity
  8
Layer_1
 62
7
100
AcDbLine
 10
87.175278
 20
553.549256
 30
0.0
 11
99.403194
 21
554.498444
 31
0.0
  0
LINE
  5
177
100
AcDbEntity
  8
Layer_1
 62
7
100
AcDbLine
 10
99.403194
 20
554.498444
 30
0.0
 11
103.960878
 21
566.384282
 31
0.0
  0
LINE
  5
178
100
AcDbEntity
  8
Layer_1
 62
7
100
AcDbLine
 10
105.561705
 20
611.821249
 30
0.0
 11
108.761295
 21
599.519282
 31
0.0
  0
LINE
  5
179
100
AcDbEntity
  8
Layer_1
 62
7
100
AcDbLine
 10
108.761295
 20
599.519282
 30
0.0
 11
121.434106
 21
598.659179
 31
0.0
  0
LINE
  5
17a
100
AcDbEntity
  8
Layer_1
 62
7
100
AcDbLine
 10
121.434106
 20
598.659179
 30
0.0
 11
110.637791
 21
590.897586
 31
0.0
  0
LINE
  5
17b
100
AcDbEntity
  8
Layer_1
 62
7
100
AcDbLine
 10
110.637791
 20
590.897586
 30
0.0
 11
112.856017
 21
578.307028
 31
0.0
  0
LINE
  5
17c
100
AcDbEntity
  8
Layer_1
 62
7
100
AcDbLine
 10
112.856017
 20
578.307028
 30
0.0
 11
102.983923
 21
585.812053
 31
0.0
  0
LINE
  5
17d
100
AcDbEntity
  8
Layer_1
 62
7
100
AcDbLine
 10
102.983923
 20
585.812053
 30
0.0
 11
91.682053
 21
578.890761
 31
0.0
  0
LINE
  5
17e
100
AcDbEntity
  8
Layer_1
 62
7
100
AcDbLine
 10
91.682053
 20
578.890761
 30
0.0
 11
96.377089
 21
591.290726
 31
0.0
  0
LINE
  5
17f
100
AcDbEntity
  8
Layer_1
 62
7
100
AcDbLine
 10
96.377089
 20
591.290726
 30
0.0
 11
87.173923
 21
599.603689
 31
0.0
  0
LINE
  5
180
100
AcDbEntity
  8
Layer_1
 62
7
100
AcDbLine
 10
87.173923
 20
599.603689
 30
0.0
 11
99.947690
 21
599.762248
 31
0.0
  0
LINE
  5
181
100
AcDbEntity
  8
Layer_1
 62
7
100
AcDbLine
 10
99.947690
 20
599.762248
 30
0.0
 11
105.561705
 21
611.821249
 31
0.0
  0
LINE
  5
182
100
AcDbEntity
  8
Layer_1
 62
7
100
AcDbLine
 10
107.265530
 20
658.064470
 30
0.0
 11
109.677888
 21
645.071543
 31
0.0
  0
LINE
  5
183
100
AcDbEntity
  8
Layer_1
 62
7
100
AcDbLine
 10
109.677888
 20
645.071543
 30
0.0
 11
122.765741
 21
643.319887
 31
0.0
  0
LINE
  5
184
100
AcDbEntity
  8
Layer_1
 62
7
100
AcDbLine
 10
122.765741
 20
643.319887
 30
0.0
 11
110.988844
 21
635.990379
 31
0.0
  0
LINE
  5
185
100
AcDbEntity
  8
Layer_1
 62
7
100
AcDbLine
 10
110.988844
 20
635.990379
 30
0.0
 11
112.361479
 21
622.764210
 31
0.0
  0
LINE
  5
186
100
AcDbEntity
  8
Layer_1
 62
7
100
AcDbLine
 10
112.361479
 20
622.764210
 30
0.0
 11
102.670583
 21
631.227239
 31
0.0
  0
LINE
  5
187
100
AcDbEntity
  8
Layer_1
 62
7
100
AcDbLine
 10
102.670583
 20
631.227239
 30
0.0
 11
90.431067
 21
624.804668
 31
0.0
  0
LINE
  5
188
100
AcDbEntity
  8
Layer_1
 62
7
100
AcDbLine
 10
90.431067
 20
624.804668
 30
0.0
 11
96.218672
 21
637.364627
 31
0.0
  0
LINE
  5
189
100
AcDbEntity
  8
Layer_1
 62
7
100
AcDbLine
 10
96.218672
 20
637.364627
 30
0.0
 11
87.281599
 21
646.621429
 31
0.0
  0
LINE
  5
18a
100
AcDbEntity
  8
Layer_1
 62
7
100
AcDbLine
 10
87.281599
 20
646.621429
 30
0.0
 11
100.549412
 21
645.920867
 31
0.0
  0
LINE
  5
18b
100
AcDbEntity
  8
Layer_1
 62
7
100
AcDbLine
 10
100.549412
 20
645.920867
 30
0.0
 11
107.265530
 21
658.064470
 31
0.0
  0
LINE
  5
18c
100
AcDbEntity
  8
Layer_1
 62
7
100
AcDbLine
 10
109.064471
 20
705.036963
 30
0.0
 11
110.608772
 21
691.404224
 31
0.0
  0
LINE
  5
18d
100
AcDbEntity
  8
Layer_1
 62
7
100
AcDbLine
 10
110.608772
 20
691.404224
 30
0.0
 11
124.048120
 21
688.701988
 31
0.0
  0
LINE
  5
18e
100
AcDbEntity
  8
Layer_1
 62
7
100
AcDbLine
 10
124.048120
 20
688.701988
 30
0.0
 11
111.299245
 21
681.901279
 31
0.0
  0
LINE
  5
18f
100
AcDbEntity
  8
Layer_1
 62
7
100
AcDbLine
 10
111.299245
 20
681.901279
 30
0.0
 11
111.748481
 21
668.097158
 31
0.0
  0
LINE
  5
190
100
AcDbEntity
  8
Layer_1
 62
7
100
AcDbLine
 10
111.748481
 20
668.097158
 30
0.0
 11
102.324925
 21
677.526815
 31
0.0
  0
LINE
  5
191
100
AcDbEntity
  8
Layer_1
 62
7
100
AcDbLine
 10
102.324925
 20
677.526815
 30
0.0
 11
89.163222
 21
671.697630
 31
0.0
  0
LINE
  5
192
100
AcDbEntity
  8
Layer_1
 62
7
100
AcDbLine
 10
89.163222
 20
671.697630
 30
0.0
 11
96.088032
 21
684.326199
 31
0.0
  0
LINE
  5
193
100
AcDbEntity
  8
Layer_1
 62
7
100
AcDbLine
 10
96.088032
 20
684.326199
 30
0.0
 11
87.504415
 21
694.527686
 31
0.0
  0
LINE
  5
194
100
AcDbEntity
  8
Layer_1
 62
7
100
AcDbLine
 10
87.504415
 20
694.527686
 30
0.0
 11
101.207717
 21
692.902898
 31
0.0
  0
LINE
  5
195
100
AcDbEntity
  8
Layer_1
 62
7
100
AcDbLine
 10
101.207717
 20
692.902898
 30
0.0
 11
109.064471
 21
705.036963
 31
0.0
  0
LINE
  5
196
100
AcDbEntity
  8
Layer_1
 62
7
100
AcDbLine
 10
154.432019
 20
208.072280
 30
0.0
 11
146.684878
 21
207.867021
 31
0.0
  0
LINE
  5
197
100
AcDbEntity
  8
Layer_1
 62
7
100
AcDbLine
 10
146.684878
 20
207.867021
 30
0.0
 11
143.530945
 21
214.946082
 31
0.0
  0
LINE
  5
198
100
AcDbEntity
  8
Layer_1
 62
7
100
AcDbLine
 10
143.530945
 20
214.946082
 30
0.0
 11
141.332160
 21
207.514679
 31
0.0
  0
LINE
  5
199
100
AcDbEntity
  8
Layer_1
 62
7
100
AcDbLine
 10
141.332160
 20
207.514679
 30
0.0
 11
133.624956
 21
206.702663
 31
0.0
  0
LINE
  5
19a
100
AcDbEntity
  8
Layer_1
 62
7
100
AcDbLine
 10
133.624956
 20
206.702663
 30
0.0
 11
140.013169
 21
202.315052
 31
0.0
  0
LINE
  5
19b
100
AcDbEntity
  8
Layer_1
 62
7
100
AcDbLine
 10
140.013169
 20
202.315052
 30
0.0
 11
138.403786
 21
194.734137
 31
0.0
  0
LINE
  5
19c
100
AcDbEntity
  8
Layer_1
 62
7
100
AcDbLine
 10
138.403786
 20
194.734137
 30
0.0
 11
144.550708
 21
199.453855
 31
0.0
  0
LINE
  5
19d
100
AcDbEntity
  8
Layer_1
 62
7
100
AcDbLine
 10
144.550708
 20
199.453855
 30
0.0
 11
151.263258
 21
195.580609
 31
0.0
  0
LINE
  5
19e
100
AcDbEntity
  8
Layer_1
 62
7
100
AcDbLine
 10
151.263258
 20
195.580609
 30
0.0
 11
148.674046
 21
202.885153
 31
0.0
  0
LINE
  5
19f
100
AcDbEntity
  8
Layer_1
 62
7
100
AcDbLine
 10
148.674046
 20
202.885153
 30
0.0
 11
154.432019
 21
208.072280
 31
0.0
  0
LINE
  5
1a0
100
AcDbEntity
  8
Layer_1
 62
7
100
AcDbLine
 10
154.432019
 20
208.072280
 30
0.0
 11
146.684878
 21
207.867021
 31
0.0
  0
LINE
  5
1a1
100
AcDbEntity
  8
Layer_1
 62
7
100
AcDbLine
 10
146.684878
 20
207.867021
 30
0.0
 11
143.530945
 21
214.946082
 31
0.0
  0
LINE
  5
1a2
100
AcDbEntity
  8
Layer_1
 62
7
100
AcDbLine
 10
143.530945
 20
214.946082
 30
0.0
 11
141.332160
 21
207.514679
 31
0.0
  0
LINE
  5
1a3
100
AcDbEntity
  8
Layer_1
 62
7
100
AcDbLine
 10
141.332160
 20
207.514679
 30
0.0
 11
133.624956
 21
206.702663
 31
0.0
  0
LINE
  5
1a4
100
AcDbEntity
  8
Layer_1
 62
7
100
AcDbLine
 10
133.624956
 20
206.702663
 30
0.0
 11
140.013169
 21
202.315052
 31
0.0
  0
LINE
  5
1a5
100
AcDbEntity
  8
Layer_1
 62
7
100
AcDbLine
 10
140.013169
 20
202.315052
 30
0.0
 11
138.403786
 21
194.734137
 31
0.0
  0
LINE
  5
1a6
100
AcDbEntity
  8
Layer_1
 62
7
100
AcDbLine
 10
138.403786
 20
194.734137
 30
0.0
 11
144.550708
 21
199.453855
 31
0.0
  0
LINE
  5
1a7
100
AcDbEntity
  8
Layer_1
 62
7
100
AcDbLine
 10
144.550708
 20
199.453855
 30
0.0
 11
151.263258
 21
195.580609
 31
0.0
  0
LINE
  5
1a8
100
AcDbEntity
  8
Layer_1
 62
7
100
AcDbLine
 10
151.263258
 20
195.580609
 30
0.0
 11
148.674046
 21
202.885153
 31
0.0
  0
LINE
  5
1a9
100
AcDbEntity
  8
Layer_1
 62
7
100
AcDbLine
 10
148.674046
 20
202.885153
 30
0.0
 11
154.432019
 21
208.072280
 31
0.0
  0
LINE
  5
1aa
100
AcDbEntity
  8
Layer_1
 62
7
100
AcDbLine
 10
167.551487
 20
229.164142
 30
0.0
 11
159.352694
 21
228.350721
 31
0.0
  0
LINE
  5
1ab
100
AcDbEntity
  8
Layer_1
 62
7
100
AcDbLine
 10
159.352694
 20
228.350721
 30
0.0
 11
155.527218
 21
235.646999
 31
0.0
  0
LINE
  5
1ac
100
AcDbEntity
  8
Layer_1
 62
7
100
AcDbLine
 10
155.527218
 20
235.646999
 30
0.0
 11
153.702250
 21
227.564521
 31
0.0
  0
LINE
  5
1ad
100
AcDbEntity
  8
Layer_1
 62
7
100
AcDbLine
 10
153.702250
 20
227.564521
 30
0.0
 11
145.587105
 21
226.108033
 31
0.0
  0
LINE
  5
1ae
100
AcDbEntity
  8
Layer_1
 62
7
100
AcDbLine
 10
145.587105
 20
226.108033
 30
0.0
 11
152.658002
 21
221.926198
 31
0.0
  0
LINE
  5
1af
100
AcDbEntity
  8
Layer_1
 62
7
100
AcDbLine
 10
152.658002
 20
221.926198
 30
0.0
 11
151.468040
 21
213.729761
 31
0.0
  0
LINE
  5
1b0
100
AcDbEntity
  8
Layer_1
 62
7
100
AcDbLine
 10
151.468040
 20
213.729761
 30
0.0
 11
157.663067
 21
219.227732
 31
0.0
  0
LINE
  5
1b1
100
AcDbEntity
  8
Layer_1
 62
7
100
AcDbLine
 10
157.663067
 20
219.227732
 30
0.0
 11
165.042774
 21
215.618542
 31
0.0
  0
LINE
  5
1b2
100
AcDbEntity
  8
Layer_1
 62
7
100
AcDbLine
 10
165.042774
 20
215.618542
 30
0.0
 11
161.800610
 21
223.198296
 31
0.0
  0
LINE
  5
1b3
100
AcDbEntity
  8
Layer_1
 62
7
100
AcDbLine
 10
161.800610
 20
223.198296
 30
0.0
 11
167.551487
 21
229.164142
 31
0.0
  0
LINE
  5
1b4
100
AcDbEntity
  8
Layer_1
 62
7
100
AcDbLine
 10
184.377347
 20
256.285581
 30
0.0
 11
175.774834
 21
254.799478
 31
0.0
  0
LINE
  5
1b5
100
AcDbEntity
  8
Layer_1
 62
7
100
AcDbLine
 10
175.774834
 20
254.799478
 30
0.0
 11
171.235712
 21
262.254804
 31
0.0
  0
LINE
  5
1b6
100
AcDbEntity
  8
Layer_1
 62
7
100
AcDbLine
 10
171.235712
 20
262.254804
 30
0.0
 11
169.861593
 21
253.535780
 31
0.0
  0
LINE
  5
1b7
100
AcDbEntity
  8
Layer_1
 62
7
100
AcDbLine
 10
169.861593
 20
253.535780
 30
0.0
 11
161.391423
 21
251.373343
 31
0.0
  0
LINE
  5
1b8
100
AcDbEntity
  8
Layer_1
 62
7
100
AcDbLine
 10
161.391423
 20
251.373343
 30
0.0
 11
169.144681
 21
247.470781
 31
0.0
  0
LINE
  5
1b9
100
AcDbEntity
  8
Layer_1
 62
7
100
AcDbLine
 10
169.144681
 20
247.470781
 30
0.0
 11
168.448947
 21
238.678996
 31
0.0
  0
LINE
  5
1ba
100
AcDbEntity
  8
Layer_1
 62
7
100
AcDbLine
 10
168.448947
 20
238.678996
 30
0.0
 11
174.614846
 21
244.986114
 31
0.0
  0
LINE
  5
1bb
100
AcDbEntity
  8
Layer_1
 62
7
100
AcDbLine
 10
174.614846
 20
244.986114
 30
0.0
 11
182.655029
 21
241.714928
 31
0.0
  0
LINE
  5
1bc
100
AcDbEntity
  8
Layer_1
 62
7
100
AcDbLine
 10
182.655029
 20
241.714928
 30
0.0
 11
178.712502
 21
249.515488
 31
0.0
  0
LINE
  5
1bd
100
AcDbEntity
  8
Layer_1
 62
7
100
AcDbLine
 10
178.712502
 20
249.515488
 30
0.0
 11
184.377347
 21
256.285581
 31
0.0
  0
LINE
  5
1be
100
AcDbEntity
  8
Layer_1
 62
7
100
AcDbLine
 10
202.920016
 20
286.321034
 30
0.0
 11
193.968593
 21
284.101641
 31
0.0
  0
LINE
  5
1bf
100
AcDbEntity
  8
Layer_1
 62
7
100
AcDbLine
 10
193.968593
 20
284.101641
 30
0.0
 11
188.678443
 21
291.653136
 31
0.0
  0
LINE
  5
1c0
100
AcDbEntity
  8
Layer_1
 62
7
100
AcDbLine
 10
188.678443
 20
291.653136
 30
0.0
 11
187.832180
 21
282.319691
 31
0.0
  0
LINE
  5
1c1
100
AcDbEntity
  8
Layer_1
 62
7
100
AcDbLine
 10
187.832180
 20
282.319691
 30
0.0
 11
179.066576
 21
279.394250
 31
0.0
  0
LINE
  5
1c2
100
AcDbEntity
  8
Layer_1
 62
7
100
AcDbLine
 10
179.066576
 20
279.394250
 30
0.0
 11
187.494977
 21
275.845244
 31
0.0
  0
LINE
  5
1c3
100
AcDbEntity
  8
Layer_1
 62
7
100
AcDbLine
 10
187.494977
 20
275.845244
 30
0.0
 11
187.367683
 21
266.485728
 31
0.0
  0
LINE
  5
1c4
100
AcDbEntity
  8
Layer_1
 62
7
100
AcDbLine
 10
187.367683
 20
266.485728
 30
0.0
 11
193.422987
 21
273.625777
 31
0.0
  0
LINE
  5
1c5
100
AcDbEntity
  8
Layer_1
 62
7
100
AcDbLine
 10
193.422987
 20
273.625777
 30
0.0
 11
202.109919
 21
270.766718
 31
0.0
  0
LINE
  5
1c6
100
AcDbEntity
  8
Layer_1
 62
7
100
AcDbLine
 10
202.109919
 20
270.766718
 30
0.0
 11
197.423899
 21
278.728500
 31
0.0
  0
LINE
  5
1c7
100
AcDbEntity
  8
Layer_1
 62
7
100
AcDbLine
 10
197.423899
 20
278.728500
 30
0.0
 11
202.920016
 21
286.321034
 31
0.0
  0
LINE
  5
1c8
100
AcDbEntity
  8
Layer_1
 62
7
100
AcDbLine
 10
222.643536
 20
318.432151
 30
0.0
 11
213.404552
 21
315.423411
 31
0.0
  0
LINE
  5
1c9
100
AcDbEntity
  8
Layer_1
 62
7
100
AcDbLine
 10
213.404552
 20
315.423411
 30
0.0
 11
207.331171
 21
323.003863
 31
0.0
  0
LINE
  5
1ca
100
AcDbEntity
  8
Layer_1
 62
7
100
AcDbLine
 10
207.331171
 20
323.003863
 30
0.0
 11
207.089035
 21
313.085782
 31
0.0
  0
LINE
  5
1cb
100
AcDbEntity
  8
Layer_1
 62
7
100
AcDbLine
 10
207.089035
 20
313.085782
 30
0.0
 11
198.093882
 21
309.345337
 31
0.0
  0
LINE
  5
1cc
100
AcDbEntity
  8
Layer_1
 62
7
100
AcDbLine
 10
198.093882
 20
309.345337
 30
0.0
 11
207.183216
 21
306.224353
 31
0.0
  0
LINE
  5
1cd
100
AcDbEntity
  8
Layer_1
 62
7
100
AcDbLine
 10
207.183216
 20
306.224353
 30
0.0
 11
207.697284
 21
296.332178
 31
0.0
  0
LINE
  5
1ce
100
AcDbEntity
  8
Layer_1
 62
7
100
AcDbLine
 10
207.697284
 20
296.332178
 30
0.0
 11
213.556940
 21
304.321395
 31
0.0
  0
LINE
  5
1cf
100
AcDbEntity
  8
Layer_1
 62
7
100
AcDbLine
 10
213.556940
 20
304.321395
 30
0.0
 11
222.869803
 21
301.948139
 31
0.0
  0
LINE
  5
1d0
100
AcDbEntity
  8
Layer_1
 62
7
100
AcDbLine
 10
222.869803
 20
301.948139
 30
0.0
 11
217.401934
 21
310.006714
 31
0.0
  0
LINE
  5
1d1
100
AcDbEntity
  8
Layer_1
 62
7
100
AcDbLine
 10
217.401934
 20
310.006714
 30
0.0
 11
222.643536
 21
318.432151
 31
0.0
  0
LINE
  5
1d2
100
AcDbEntity
  8
Layer_1
 62
7
100
AcDbLine
 10
243.269587
 20
352.182707
 30
0.0
 11
233.810541
 21
348.333725
 31
0.0
  0
LINE
  5
1d3
100
AcDbEntity
  8
Layer_1
 62
7
100
AcDbLine
 10
233.810541
 20
348.333725
 30
0.0
 11
226.927333
 21
355.872006
 31
0.0
  0
LINE
  5
1d4
100
AcDbEntity
  8
Layer_1
 62
7
100
AcDbLine
 10
226.927333
 20
355.872006
 30
0.0
 11
227.364146
 21
345.406736
 31
0.0
  0
LINE
  5
1d5
100
AcDbEntity
  8
Layer_1
 62
7
100
AcDbLine
 10
227.364146
 20
345.406736
 30
0.0
 11
218.211186
 21
340.804931
 31
0.0
  0
LINE
  5
1d6
100
AcDbEntity
  8
Layer_1
 62
7
100
AcDbLine
 10
218.211186
 20
340.804931
 30
0.0
 11
227.940196
 21
338.186005
 31
0.0
  0
LINE
  5
1d7
100
AcDbEntity
  8
Layer_1
 62
7
100
AcDbLine
 10
227.940196
 20
338.186005
 30
0.0
 11
229.166561
 21
327.803652
 31
0.0
  0
LINE
  5
1d8
100
AcDbEntity
  8
Layer_1
 62
7
100
AcDbLine
 10
229.166561
 20
327.803652
 30
0.0
 11
234.742608
 21
336.650349
 31
0.0
  0
LINE
  5
1d9
100
AcDbEntity
  8
Layer_1
 62
7
100
AcDbLine
 10
234.742608
 20
336.650349
 30
0.0
 11
244.653504
 21
334.835506
 31
0.0
  0
LINE
  5
1da
100
AcDbEntity
  8
Layer_1
 62
7
100
AcDbLine
 10
244.653504
 20
334.835506
 30
0.0
 11
238.370679
 21
342.921973
 31
0.0
  0
LINE
  5
1db
100
AcDbEntity
  8
Layer_1
 62
7
100
AcDbLine
 10
238.370679
 20
342.921973
 30
0.0
 11
243.269587
 21
352.182707
 31
0.0
  0
LINE
  5
1dc
100
AcDbEntity
  8
Layer_1
 62
7
100
AcDbLine
 10
264.623538
 20
387.296880
 30
0.0
 11
255.017636
 21
382.562504
 31
0.0
  0
LINE
  5
1dd
100
AcDbEntity
  8
Layer_1
 62
7
100
AcDbLine
 10
255.017636
 20
382.562504
 30
0.0
 11
247.303998
 21
389.984024
 31
0.0
  0
LINE
  5
1de
100
AcDbEntity
  8
Layer_1
 62
7
100
AcDbLine
 10
247.303998
 20
389.984024
 30
0.0
 11
248.492424
 21
379.016608
 31
0.0
  0
LINE
  5
1df
100
AcDbEntity
  8
Layer_1
 62
7
100
AcDbLine
 10
248.492424
 20
379.016608
 30
0.0
 11
239.258761
 21
373.513292
 31
0.0
  0
LINE
  5
1e0
100
AcDbEntity
  8
Layer_1
 62
7
100
AcDbLine
 10
239.258761
 20
373.513292
 30
0.0
 11
249.599150
 21
371.469418
 31
0.0
  0
LINE
  5
1e1
100
AcDbEntity
  8
Layer_1
 62
7
100
AcDbLine
 10
249.599150
 20
371.469418
 30
0.0
 11
251.606067
 21
360.646661
 31
0.0
  0
LINE
  5
1e2
100
AcDbEntity
  8
Layer_1
 62
7
100
AcDbLine
 10
251.606067
 20
360.646661
 30
0.0
 11
256.808354
 21
370.350906
 31
0.0
  0
LINE
  5
1e3
100
AcDbEntity
  8
Layer_1
 62
7
100
AcDbLine
 10
256.808354
 20
370.350906
 30
0.0
 11
267.282360
 21
369.165389
 31
0.0
  0
LINE
  5
1e4
100
AcDbEntity
  8
Layer_1
 62
7
100
AcDbLine
 10
267.282360
 20
369.165389
 30
0.0
 11
260.157161
 21
377.206797
 31
0.0
  0
LINE
  5
1e5
100
AcDbEntity
  8
Layer_1
 62
7
100
AcDbLine
 10
260.157161
 20
377.206797
 30
0.0
 11
264.623538
 21
387.296880
 31
0.0
  0
LINE
  5
1e6
100
AcDbEntity
  8
Layer_1
 62
7
100
AcDbLine
 10
286.584182
 20
423.580720
 30
0.0
 11
276.909846
 21
417.922077
 31
0.0
  0
LINE
  5
1e7
100
AcDbEntity
  8
Layer_1
 62
7
100
AcDbLine
 10
276.909846
 20
417.922077
 30
0.0
 11
268.351530
 21
425.149274
 31
0.0
  0
LINE
  5
1e8
100
AcDbEntity
  8
Layer_1
 62
7
100
AcDbLine
 10
268.351530
 20
425.149274
 30
0.0
 11
270.361359
 21
413.732232
 31
0.0
  0
LINE
  5
1e9
100
AcDbEntity
  8
Layer_1
 62
7
100
AcDbLine
 10
270.361359
 20
413.732232
 30
0.0
 11
261.128928
 21
407.293974
 31
0.0
  0
LINE
  5
1ea
100
AcDbEntity
  8
Layer_1
 62
7
100
AcDbLine
 10
261.128928
 20
407.293974
 30
0.0
 11
272.045408
 21
405.896481
 31
0.0
  0
LINE
  5
1eb
100
AcDbEntity
  8
Layer_1
 62
7
100
AcDbLine
 10
272.045408
 20
405.896481
 30
0.0
 11
274.897765
 21
394.690222
 31
0.0
  0
LINE
  5
1ec
100
AcDbEntity
  8
Layer_1
 62
7
100
AcDbLine
 10
274.897765
 20
394.690222
 30
0.0
 11
279.634692
 21
405.243579
 31
0.0
  0
LINE
  5
1ed
100
AcDbEntity
  8
Layer_1
 62
7
100
AcDbLine
 10
279.634692
 20
405.243579
 30
0.0
 11
290.629976
 21
404.755986
 31
0.0
  0
LINE
  5
1ee
100
AcDbEntity
  8
Layer_1
 62
7
100
AcDbLine
 10
290.629976
 20
404.755986
 30
0.0
 11
282.641080
 21
412.675792
 31
0.0
  0
LINE
  5
1ef
100
AcDbEntity
  8
Layer_1
 62
7
100
AcDbLine
 10
282.641080
 20
412.675792
 30
0.0
 11
286.584182
 21
423.580720
 31
0.0
  0
LINE
  5
1f0
100
AcDbEntity
  8
Layer_1
 62
7
100
AcDbLine
 10
309.062113
 20
460.888062
 30
0.0
 11
299.402444
 21
454.273063
 31
0.0
  0
LINE
  5
1f1
100
AcDbEntity
  8
Layer_1
 62
7
100
AcDbLine
 10
299.402444
 20
454.273063
 30
0.0
 11
289.991864
 21
461.225923
 31
0.0
  0
LINE
  5
1f2
100
AcDbEntity
  8
Layer_1
 62
7
100
AcDbLine
 10
289.991864
 20
461.225923
 30
0.0
 11
292.889315
 21
449.419064
 31
0.0
  0
LINE
  5
1f3
100
AcDbEntity
  8
Layer_1
 62
7
100
AcDbLine
 10
292.889315
 20
449.419064
 30
0.0
 11
283.744305
 21
442.019622
 31
0.0
  0
LINE
  5
1f4
100
AcDbEntity
  8
Layer_1
 62
7
100
AcDbLine
 10
283.744305
 20
442.019622
 30
0.0
 11
295.194700
 21
441.337564
 31
0.0
  0
LINE
  5
1f5
100
AcDbEntity
  8
Layer_1
 62
7
100
AcDbLine
 10
295.194700
 20
441.337564
 30
0.0
 11
298.953349
 21
429.811596
 31
0.0
  0
LINE
  5
1f6
100
AcDbEntity
  8
Layer_1
 62
7
100
AcDbLine
 10
298.953349
 20
429.811596
 30
0.0
 11
303.132631
 21
441.196934
 31
0.0
  0
LINE
  5
1f7
100
AcDbEntity
  8
Layer_1
 62
7
100
AcDbLine
 10
303.132631
 20
441.196934
 30
0.0
 11
314.600614
 21
441.472935
 31
0.0
  0
LINE
  5
1f8
100
AcDbEntity
  8
Layer_1
 62
7
100
AcDbLine
 10
314.600614
 20
441.472935
 30
0.0
 11
305.733160
 21
449.191497
 31
0.0
  0
LINE
  5
1f9
100
AcDbEntity
  8
Layer_1
 62
7
100
AcDbLine
 10
305.733160
 20
449.191497
 30
0.0
 11
309.062113
 21
460.888062
 31
0.0
  0
LINE
  5
1fa
100
AcDbEntity
  8
Layer_1
 62
7
100
AcDbLine
 10
331.988737
 20
499.103278
 30
0.0
 11
322.430933
 21
491.507069
 31
0.0
  0
LINE
  5
1fb
100
AcDbEntity
  8
Layer_1
 62
7
100
AcDbLine
 10
322.430933
 20
491.507069
 30
0.0
 11
312.167440
 21
498.103681
 31
0.0
  0
LINE
  5
1fc
100
AcDbEntity
  8
Layer_1
 62
7
100
AcDbLine
 10
312.167440
 20
498.103681
 30
0.0
 11
316.014473
 21
485.973854
 31
0.0
  0
LINE
  5
1fd
100
AcDbEntity
  8
Layer_1
 62
7
100
AcDbLine
 10
316.014473
 20
485.973854
 30
0.0
 11
307.046700
 21
477.594593
 31
0.0
  0
LINE
  5
1fe
100
AcDbEntity
  8
Layer_1
 62
7
100
AcDbLine
 10
307.046700
 20
477.594593
 30
0.0
 11
318.982105
 21
477.694140
 31
0.0
  0
LINE
  5
1ff
100
AcDbEntity
  8
Layer_1
 62
7
100
AcDbLine
 10
318.982105
 20
477.694140
 30
0.0
 11
323.703205
 21
465.918859
 31
0.0
  0
LINE
  5
200
100
AcDbEntity
  8
Layer_1
 62
7
100
AcDbLine
 10
323.703205
 20
465.918859
 30
0.0
 11
327.232657
 21
478.110223
 31
0.0
  0
LINE
  5
201
100
AcDbEntity
  8
Layer_1
 62
7
100
AcDbLine
 10
327.232657
 20
478.110223
 30
0.0
 11
339.118230
 21
479.211959
 31
0.0
  0
LINE
  5
202
100
AcDbEntity
  8
Layer_1
 62
7
100
AcDbLine
 10
339.118230
 20
479.211959
 30
0.0
 11
329.364151
 21
486.647067
 31
0.0
  0
LINE
  5
203
100
AcDbEntity
  8
Layer_1
 62
7
100
AcDbLine
 10
329.364151
 20
486.647067
 30
0.0
 11
331.988737
 21
499.103278
 31
0.0
  0
LINE
  5
204
100
AcDbEntity
  8
Layer_1
 62
7
100
AcDbLine
 10
355.309886
 20
538.131532
 30
0.0
 11
345.944627
 21
529.536901
 31
0.0
  0
LINE
  5
205
100
AcDbEntity
  8
Layer_1
 62
7
100
AcDbLine
 10
345.944627
 20
529.536901
 30
0.0
 11
334.834736
 21
535.694028
 31
0.0
  0
LINE
  5
206
100
AcDbEntity
  8
Layer_1
 62
7
100
AcDbLine
 10
334.834736
 20
535.694028
 30
0.0
 11
339.688384
 21
523.314818
 31
0.0
  0
LINE
  5
207
100
AcDbEntity
  8
Layer_1
 62
7
100
AcDbLine
 10
339.688384
 20
523.314818
 30
0.0
 11
330.990641
 21
513.945083
 31
0.0
  0
LINE
  5
208
100
AcDbEntity
  8
Layer_1
 62
7
100
AcDbLine
 10
330.990641
 20
513.945083
 30
0.0
 11
343.355624
 21
514.888924
 31
0.0
  0
LINE
  5
209
100
AcDbEntity
  8
Layer_1
 62
7
100
AcDbLine
 10
343.355624
 20
514.888924
 30
0.0
 11
349.090012
 21
502.940980
 31
0.0
  0
LINE
  5
20a
100
AcDbEntity
  8
Layer_1
 62
7
100
AcDbLine
 10
349.090012
 20
502.940980
 30
0.0
 11
351.878340
 21
515.903531
 31
0.0
  0
LINE
  5
20b
100
AcDbEntity
  8
Layer_1
 62
7
100
AcDbLine
 10
351.878340
 20
515.903531
 30
0.0
 11
364.120130
 21
517.889029
 31
0.0
  0
LINE
  5
20c
100
AcDbEntity
  8
Layer_1
 62
7
100
AcDbLine
 10
364.120130
 20
517.889029
 30
0.0
 11
353.478435
 21
524.956463
 31
0.0
  0
LINE
  5
20d
100
AcDbEntity
  8
Layer_1
 62
7
100
AcDbLine
 10
353.478435
 20
524.956463
 30
0.0
 11
355.309886
 21
538.131532
 31
0.0
  0
LINE
  5
20e
100
AcDbEntity
  8
Layer_1
 62
7
100
AcDbLine
 10
378.982212
 20
577.892814
 30
0.0
 11
369.903003
 21
568.290544
 31
0.0
  0
LINE
  5
20f
100
AcDbEntity
  8
Layer_1
 62
7
100
AcDbLine
 10
369.903003
 20
568.290544
 30
0.0
 11
357.960566
 21
573.924227
 31
0.0
  0
LINE
  5
210
100
AcDbEntity
  8
Layer_1
 62
7
100
AcDbLine
 10
357.960566
 20
573.924227
 30
0.0
 11
363.872293
 21
561.375583
 31
0.0
  0
LINE
  5
211
100
AcDbEntity
  8
Layer_1
 62
7
100
AcDbLine
 10
363.872293
 20
561.375583
 30
0.0
 11
355.539657
 21
551.013012
 31
0.0
  0
LINE
  5
212
100
AcDbEntity
  8
Layer_1
 62
7
100
AcDbLine
 10
355.539657
 20
551.013012
 30
0.0
 11
368.272520
 21
552.859775
 31
0.0
  0
LINE
  5
213
100
AcDbEntity
  8
Layer_1
 62
7
100
AcDbLine
 10
368.272520
 20
552.859775
 30
0.0
 11
375.065102
 21
540.821669
 31
0.0
  0
LINE
  5
214
100
AcDbEntity
  8
Layer_1
 62
7
100
AcDbLine
 10
375.065102
 20
540.821669
 30
0.0
 11
377.022713
 21
554.511691
 31
0.0
  0
LINE
  5
215
100
AcDbEntity
  8
Layer_1
 62
7
100
AcDbLine
 10
377.022713
 20
554.511691
 30
0.0
 11
389.553395
 21
557.434301
 31
0.0
  0
LINE
  5
216
100
AcDbEntity
  8
Layer_1
 62
7
100
AcDbLine
 10
389.553395
 20
557.434301
 30
0.0
 11
378.030411
 21
564.048414
 31
0.0
  0
LINE
  5
217
100
AcDbEntity
  8
Layer_1
 62
7
100
AcDbLine
 10
378.030411
 20
564.048414
 30
0.0
 11
378.982212
 21
577.892814
 31
0.0
  0
LINE
  5
218
100
AcDbEntity
  8
Layer_1
 62
7
100
AcDbLine
 10
402.970543
 20
618.318192
 30
0.0
 11
394.273030
 21
607.707363
 31
0.0
  0
LINE
  5
219
100
AcDbEntity
  8
Layer_1
 62
7
100
AcDbLine
 10
394.273030
 20
607.707363
 30
0.0
 11
381.519373
 21
612.733533
 31
0.0
  0
LINE
  5
21a
100
AcDbEntity
  8
Layer_1
 62
7
100
AcDbLine
 10
381.519373
 20
612.733533
 30
0.0
 11
388.534454
 21
600.101348
 31
0.0
  0
LINE
  5
21b
100
AcDbEntity
  8
Layer_1
 62
7
100
AcDbLine
 10
388.534454
 20
600.101348
 30
0.0
 11
380.663572
 21
588.752128
 31
0.0
  0
LINE
  5
21c
100
AcDbEntity
  8
Layer_1
 62
7
100
AcDbLine
 10
380.663572
 20
588.752128
 30
0.0
 11
393.696652
 21
591.555819
 31
0.0
  0
LINE
  5
21d
100
AcDbEntity
  8
Layer_1
 62
7
100
AcDbLine
 10
393.696652
 20
591.555819
 30
0.0
 11
401.585833
 21
579.515443
 31
0.0
  0
LINE
  5
21e
100
AcDbEntity
  8
Layer_1
 62
7
100
AcDbLine
 10
401.585833
 20
579.515443
 30
0.0
 11
402.625632
 21
593.880420
 31
0.0
  0
LINE
  5
21f
100
AcDbEntity
  8
Layer_1
 62
7
100
AcDbLine
 10
402.625632
 20
593.880420
 30
0.0
 11
415.372297
 21
597.788277
 31
0.0
  0
LINE
  5
220
100
AcDbEntity
  8
Layer_1
 62
7
100
AcDbLine
 10
415.372297
 20
597.788277
 30
0.0
 11
402.981859
 21
603.862606
 31
0.0
  0
LINE
  5
221
100
AcDbEntity
  8
Layer_1
 62
7
100
AcDbLine
 10
402.981859
 20
603.862606
 30
0.0
 11
402.970543
 21
618.318192
 31
0.0
  0
LINE
  5
222
100
AcDbEntity
  8
Layer_1
 62
7
100
AcDbLine
 10
66.658163
 20
18.762466
 30
0.0
 11
825.503621
 21
341.748159
 31
0.0
  0
LINE
  5
223
100
AcDbEntity
  8
Layer_1
 62
7
100
AcDbLine
 10
825.503621
 20
341.748159
 30
0.0
 11
814.399594
 21
366.144628
 31
0.0
  0
LINE
  5
224
100
AcDbEntity
  8
Layer_1
 62
7
100
AcDbLine
 10
814.399594
 20
366.144628
 30
0.0
 11
540.388249
 21
413.166296
 31
0.0
  0
LINE
  5
225
100
AcDbEntity
  8
Layer_1
 62
7
100
AcDbLine
 10
540.388249
 20
413.166296
 30
0.0
 11
515.176263
 21
393.870864
 31
0.0
  0
LINE
  5
226
100
AcDbEntity
  8
Layer_1
 62
7
100
AcDbLine
 10
515.176263
 20
393.870864
 30
0.0
 11
518.758032
 21
708.524668
 31
0.0
  0
LINE
  5
227
100
AcDbEntity
  8
Layer_1
 62
1
100
AcDbLine
 10
518.758032
 20
708.524668
 30
0.0
 11
66.658163
 21
18.762466
 31
0.0
  0
LINE
  5
228
100
AcDbEntity
  8
Layer_1
 62
1
100
AcDbLine
 10
66.658163
 20
18.762466
 30
0.0
 11
515.176263
 21
393.870864
 31
0.0
  0
LINE
  5
229
100
AcDbEntity
  8
Layer_1
 62
1
100
AcDbLine
 10
515.176263
 20
393.870864
 30
0.0
 11
825.503621
 21
341.748159
 31
0.0
  0
LINE
  5
22a
100
AcDbEntity
  8
Layer_1
 62
7
100
AcDbLine
 10
205.016022
 20
174.802856
 30
0.0
 11
207.912898
 21
167.614780
 31
0.0
  0
LINE
  5
22b
100
AcDbEntity
  8
Layer_1
 62
7
100
AcDbLine
 10
207.912898
 20
167.614780
 30
0.0
 11
215.662410
 21
167.540831
 31
0.0
  0
LINE
  5
22c
100
AcDbEntity
  8
Layer_1
 62
7
100
AcDbLine
 10
215.662410
 20
167.540831
 30
0.0
 11
209.721323
 21
162.564499
 31
0.0
  0
LINE
  5
22d
100
AcDbEntity
  8
Layer_1
 62
7
100
AcDbLine
 10
209.721323
 20
162.564499
 30
0.0
 11
212.045725
 21
155.171427
 31
0.0
  0
LINE
  5
22e
100
AcDbEntity
  8
Layer_1
 62
7
100
AcDbLine
 10
212.045725
 20
155.171427
 30
0.0
 11
205.477047
 21
159.283952
 31
0.0
  0
LINE
  5
22f
100
AcDbEntity
  8
Layer_1
 62
7
100
AcDbLine
 10
205.477047
 20
159.283952
 30
0.0
 11
199.164097
 21
154.788729
 31
0.0
  0
LINE
  5
230
100
AcDbEntity
  8
Layer_1
 62
7
100
AcDbLine
 10
199.164097
 20
154.788729
 30
0.0
 11
201.045523
 21
162.306749
 31
0.0
  0
LINE
  5
231
100
AcDbEntity
  8
Layer_1
 62
7
100
AcDbLine
 10
201.045523
 20
162.306749
 30
0.0
 11
194.819503
 21
166.921620
 31
0.0
  0
LINE
  5
232
100
AcDbEntity
  8
Layer_1
 62
7
100
AcDbLine
 10
194.819503
 20
166.921620
 30
0.0
 11
202.550956
 21
167.455476
 31
0.0
  0
LINE
  5
233
100
AcDbEntity
  8
Layer_1
 62
7
100
AcDbLine
 10
202.550956
 20
167.455476
 30
0.0
 11
205.016022
 21
174.802856
 31
0.0
  0
LINE
  5
234
100
AcDbEntity
  8
Layer_1
 62
7
100
AcDbLine
 10
205.016022
 20
174.802856
 30
0.0
 11
207.912898
 21
167.614780
 31
0.0
  0
LINE
  5
235
100
AcDbEntity
  8
Layer_1
 62
7
100
AcDbLine
 10
207.912898
 20
167.614780
 30
0.0
 11
215.662410
 21
167.540831
 31
0.0
  0
LINE
  5
236
100
AcDbEntity
  8
Layer_1
 62
7
100
AcDbLine
 10
215.662410
 20
167.540831
 30
0.0
 11
209.721323
 21
162.564499
 31
0.0
  0
LINE
  5
237
100
AcDbEntity
  8
Layer_1
 62
7
100
AcDbLine
 10
209.721323
 20
162.564499
 30
0.0
 11
212.045725
 21
155.171427
 31
0.0
  0
LINE
  5
238
100
AcDbEntity
  8
Layer_1
 62
7
100
AcDbLine
 10
212.045725
 20
155.171427
 30
0.0
 11
205.477047
 21
159.283952
 31
0.0
  0
LINE
  5
239
100
AcDbEntity
  8
Layer_1
 62
7
100
AcDbLine
 10
205.477047
 20
159.283952
 30
0.0
 11
199.164097
 21
154.788729
 31
0.0
  0
LINE
  5
23a
100
AcDbEntity
  8
Layer_1
 62
7
100
AcDbLine
 10
199.164097
 20
154.788729
 30
0.0
 11
201.045523
 21
162.306749
 31
0.0
  0
LINE
  5
23b
100
AcDbEntity
  8
Layer_1
 62
7
100
AcDbLine
 10
201.045523
 20
162.306749
 30
0.0
 11
194.819503
 21
166.921620
 31
0.0
  0
LINE
  5
23c
100
AcDbEntity
  8
Layer_1
 62
7
100
AcDbLine
 10
194.819503
 20
166.921620
 30
0.0
 11
202.550956
 21
167.455476
 31
0.0
  0
LINE
  5
23d
100
AcDbEntity
  8
Layer_1
 62
7
100
AcDbLine
 10
202.550956
 20
167.455476
 30
0.0
 11
205.016022
 21
174.802856
 31
0.0
  0
LINE
  5
23e
100
AcDbEntity
  8
Layer_1
 62
7
100
AcDbLine
 10
219.138680
 20
195.236593
 30
0.0
 11
221.657560
 21
187.392034
 31
0.0
  0
LINE
  5
23f
100
AcDbEntity
  8
Layer_1
 62
7
100
AcDbLine
 10
221.657560
 20
187.392034
 30
0.0
 11
229.873751
 21
186.788592
 31
0.0
  0
LINE
  5
240
100
AcDbEntity
  8
Layer_1
 62
7
100
AcDbLine
 10
229.873751
 20
186.788592
 30
0.0
 11
223.186576
 21
181.895878
 31
0.0
  0
LINE
  5
241
100
AcDbEntity
  8
Layer_1
 62
7
100
AcDbLine
 10
223.186576
 20
181.895878
 30
0.0
 11
225.082270
 21
173.871959
 31
0.0
  0
LINE
  5
242
100
AcDbEntity
  8
Layer_1
 62
7
100
AcDbLine
 10
225.082270
 20
173.871959
 30
0.0
 11
218.430481
 21
178.692646
 31
0.0
  0
LINE
  5
243
100
AcDbEntity
  8
Layer_1
 62
7
100
AcDbLine
 10
218.430481
 20
178.692646
 30
0.0
 11
211.385894
 21
174.337032
 31
0.0
  0
LINE
  5
244
100
AcDbEntity
  8
Layer_1
 62
7
100
AcDbLine
 10
211.385894
 20
174.337032
 30
0.0
 11
213.962043
 21
182.209102
 31
0.0
  0
LINE
  5
245
100
AcDbEntity
  8
Layer_1
 62
7
100
AcDbLine
 10
213.962043
 20
182.209102
 30
0.0
 11
207.712555
 21
187.541102
 31
0.0
  0
LINE
  5
246
100
AcDbEntity
  8
Layer_1
 62
7
100
AcDbLine
 10
207.712555
 20
187.541102
 30
0.0
 11
215.956481
 21
187.585612
 31
0.0
  0
LINE
  5
247
100
AcDbEntity
  8
Layer_1
 62
7
100
AcDbLine
 10
215.956481
 20
187.585612
 30
0.0
 11
219.138680
 21
195.236593
 31
0.0
  0
LINE
  5
248
100
AcDbEntity
  8
Layer_1
 62
7
100
AcDbLine
 10
237.316174
 20
221.471316
 30
0.0
 11
239.378787
 21
212.988548
 31
0.0
  0
LINE
  5
249
100
AcDbEntity
  8
Layer_1
 62
7
100
AcDbLine
 10
239.378787
 20
212.988548
 30
0.0
 11
248.025067
 21
211.793827
 31
0.0
  0
LINE
  5
24a
100
AcDbEntity
  8
Layer_1
 62
7
100
AcDbLine
 10
248.025067
 20
211.793827
 30
0.0
 11
240.574456
 21
207.061178
 31
0.0
  0
LINE
  5
24b
100
AcDbEntity
  8
Layer_1
 62
7
100
AcDbLine
 10
240.574456
 20
207.061178
 30
0.0
 11
241.963976
 21
198.430467
 31
0.0
  0
LINE
  5
24c
100
AcDbEntity
  8
Layer_1
 62
7
100
AcDbLine
 10
241.963976
 20
198.430467
 30
0.0
 11
235.296622
 21
203.988290
 31
0.0
  0
LINE
  5
24d
100
AcDbEntity
  8
Layer_1
 62
7
100
AcDbLine
 10
235.296622
 20
203.988290
 30
0.0
 11
227.509114
 21
199.848936
 31
0.0
  0
LINE
  5
24e
100
AcDbEntity
  8
Layer_1
 62
7
100
AcDbLine
 10
227.509114
 20
199.848936
 30
0.0
 11
230.839081
 21
208.016516
 31
0.0
  0
LINE
  5
24f
100
AcDbEntity
  8
Layer_1
 62
7
100
AcDbLine
 10
230.839081
 20
208.016516
 30
0.0
 11
224.636616
 21
214.088964
 31
0.0
  0
LINE
  5
250
100
AcDbEntity
  8
Layer_1
 62
7
100
AcDbLine
 10
224.636616
 20
214.088964
 30
0.0
 11
233.361990
 21
213.578974
 31
0.0
  0
LINE
  5
251
100
AcDbEntity
  8
Layer_1
 62
7
100
AcDbLine
 10
233.361990
 20
213.578974
 30
0.0
 11
237.316174
 21
221.471316
 31
0.0
  0
LINE
  5
252
100
AcDbEntity
  8
Layer_1
 62
7
100
AcDbLine
 10
257.482961
 20
250.441295
 30
0.0
 11
259.011886
 21
241.346458
 31
0.0
  0
LINE
  5
253
100
AcDbEntity
  8
Layer_1
 62
7
100
AcDbLine
 10
259.011886
 20
241.346458
 30
0.0
 11
268.045463
 21
239.501128
 31
0.0
  0
LINE
  5
254
100
AcDbEntity
  8
Layer_1
 62
7
100
AcDbLine
 10
268.045463
 20
239.501128
 30
0.0
 11
259.821044
 21
235.007990
 31
0.0
  0
LINE
  5
255
100
AcDbEntity
  8
Layer_1
 62
7
100
AcDbLine
 10
259.821044
 20
235.007990
 30
0.0
 11
260.628323
 21
225.802431
 31
0.0
  0
LINE
  5
256
100
AcDbEntity
  8
Layer_1
 62
7
100
AcDbLine
 10
260.628323
 20
225.802431
 30
0.0
 11
254.016417
 21
232.120349
 31
0.0
  0
LINE
  5
257
100
AcDbEntity
  8
Layer_1
 62
7
100
AcDbLine
 10
254.016417
 20
232.120349
 30
0.0
 11
245.481767
 21
228.276328
 31
0.0
  0
LINE
  5
258
100
AcDbEntity
  8
Layer_1
 62
7
100
AcDbLine
 10
245.481767
 20
228.276328
 30
0.0
 11
249.619812
 21
236.674161
 31
0.0
  0
LINE
  5
259
100
AcDbEntity
  8
Layer_1
 62
7
100
AcDbLine
 10
249.619812
 20
236.674161
 30
0.0
 11
243.537828
 21
243.503984
 31
0.0
  0
LINE
  5
25a
100
AcDbEntity
  8
Layer_1
 62
7
100
AcDbLine
 10
243.537828
 20
243.503984
 30
0.0
 11
252.707172
 21
242.376202
 31
0.0
  0
LINE
  5
25b
100
AcDbEntity
  8
Layer_1
 62
7
100
AcDbLine
 10
252.707172
 20
242.376202
 30
0.0
 11
257.482961
 21
250.441295
 31
0.0
  0
LINE
  5
25c
100
AcDbEntity
  8
Layer_1
 62
7
100
AcDbLine
 10
279.083471
 20
281.321046
 30
0.0
 11
280.002855
 21
271.648090
 31
0.0
  0
LINE
  5
25d
100
AcDbEntity
  8
Layer_1
 62
7
100
AcDbLine
 10
280.002855
 20
271.648090
 30
0.0
 11
289.374902
 21
269.095846
 31
0.0
  0
LINE
  5
25e
100
AcDbEntity
  8
Layer_1
 62
7
100
AcDbLine
 10
289.374902
 20
269.095846
 30
0.0
 11
280.373624
 21
264.924044
 31
0.0
  0
LINE
  5
25f
100
AcDbEntity
  8
Layer_1
 62
7
100
AcDbLine
 10
280.373624
 20
264.924044
 30
0.0
 11
280.524724
 21
255.183363
 31
0.0
  0
LINE
  5
260
100
AcDbEntity
  8
Layer_1
 62
7
100
AcDbLine
 10
280.524724
 20
255.183363
 30
0.0
 11
274.042232
 21
262.277996
 31
0.0
  0
LINE
  5
261
100
AcDbEntity
  8
Layer_1
 62
7
100
AcDbLine
 10
274.042232
 20
262.277996
 30
0.0
 11
264.763572
 21
258.810165
 31
0.0
  0
LINE
  5
262
100
AcDbEntity
  8
Layer_1
 62
7
100
AcDbLine
 10
264.763572
 20
258.810165
 30
0.0
 11
269.758459
 21
267.366699
 31
0.0
  0
LINE
  5
263
100
AcDbEntity
  8
Layer_1
 62
7
100
AcDbLine
 10
269.758459
 20
267.366699
 30
0.0
 11
263.872830
 21
274.964142
 31
0.0
  0
LINE
  5
264
100
AcDbEntity
  8
Layer_1
 62
7
100
AcDbLine
 10
263.872830
 20
274.964142
 30
0.0
 11
273.442317
 21
273.157728
 31
0.0
  0
LINE
  5
265
100
AcDbEntity
  8
Layer_1
 62
7
100
AcDbLine
 10
273.442317
 20
273.157728
 30
0.0
 11
279.083471
 21
281.321046
 31
0.0
  0
LINE
  5
266
100
AcDbEntity
  8
Layer_1
 62
7
100
AcDbLine
 10
301.828398
 20
313.681551
 30
0.0
 11
302.064676
 21
303.472126
 31
0.0
  0
LINE
  5
267
100
AcDbEntity
  8
Layer_1
 62
7
100
AcDbLine
 10
302.064676
 20
303.472126
 30
0.0
 11
311.720539
 21
300.160245
 31
0.0
  0
LINE
  5
268
100
AcDbEntity
  8
Layer_1
 62
7
100
AcDbLine
 10
311.720539
 20
300.160245
 30
0.0
 11
301.946952
 21
296.393325
 31
0.0
  0
LINE
  5
269
100
AcDbEntity
  8
Layer_1
 62
7
100
AcDbLine
 10
301.946952
 20
296.393325
 30
0.0
 11
301.370785
 21
286.164869
 31
0.0
  0
LINE
  5
26a
100
AcDbEntity
  8
Layer_1
 62
7
100
AcDbLine
 10
301.370785
 20
286.164869
 30
0.0
 11
295.094084
 21
294.046203
 31
0.0
  0
LINE
  5
26b
100
AcDbEntity
  8
Layer_1
 62
7
100
AcDbLine
 10
295.094084
 20
294.046203
 30
0.0
 11
285.082131
 21
291.036547
 31
0.0
  0
LINE
  5
26c
100
AcDbEntity
  8
Layer_1
 62
7
100
AcDbLine
 10
285.082131
 20
291.036547
 30
0.0
 11
290.976514
 21
299.674406
 31
0.0
  0
LINE
  5
26d
100
AcDbEntity
  8
Layer_1
 62
7
100
AcDbLine
 10
290.976514
 20
299.674406
 30
0.0
 11
285.364953
 21
308.042792
 31
0.0
  0
LINE
  5
26e
100
AcDbEntity
  8
Layer_1
 62
7
100
AcDbLine
 10
285.364953
 20
308.042792
 30
0.0
 11
295.284566
 21
305.499939
 31
0.0
  0
LINE
  5
26f
100
AcDbEntity
  8
Layer_1
 62
7
100
AcDbLine
 10
295.284566
 20
305.499939
 30
0.0
 11
301.828398
 21
313.681551
 31
0.0
  0
LINE
  5
270
100
AcDbEntity
  8
Layer_1
 62
7
100
AcDbLine
 10
325.534276
 20
347.252784
 30
0.0
 11
325.016879
 21
336.556057
 31
0.0
  0
LINE
  5
271
100
AcDbEntity
  8
Layer_1
 62
7
100
AcDbLine
 10
325.016879
 20
336.556057
 30
0.0
 11
334.896342
 21
332.435938
 31
0.0
  0
LINE
  5
272
100
AcDbEntity
  8
Layer_1
 62
7
100
AcDbLine
 10
334.896342
 20
332.435938
 30
0.0
 11
324.362828
 21
329.158491
 31
0.0
  0
LINE
  5
273
100
AcDbEntity
  8
Layer_1
 62
7
100
AcDbLine
 10
324.362828
 20
329.158491
 30
0.0
 11
322.991858
 21
318.496997
 31
0.0
  0
LINE
  5
274
100
AcDbEntity
  8
Layer_1
 62
7
100
AcDbLine
 10
322.991858
 20
318.496997
 30
0.0
 11
316.999172
 21
327.168143
 31
0.0
  0
LINE
  5
275
100
AcDbEntity
  8
Layer_1
 62
7
100
AcDbLine
 10
316.999172
 20
327.168143
 30
0.0
 11
306.272404
 21
324.699093
 31
0.0
  0
LINE
  5
276
100
AcDbEntity
  8
Layer_1
 62
7
100
AcDbLine
 10
306.272404
 20
324.699093
 30
0.0
 11
313.102244
 21
333.335610
 31
0.0
  0
LINE
  5
277
100
AcDbEntity
  8
Layer_1
 62
7
100
AcDbLine
 10
313.102244
 20
333.335610
 30
0.0
 11
307.843706
 21
342.471146
 31
0.0
  0
LINE
  5
278
100
AcDbEntity
  8
Layer_1
 62
7
100
AcDbLine
 10
307.843706
 20
342.471146
 30
0.0
 11
318.057448
 21
339.137653
 31
0.0
  0
LINE
  5
279
100
AcDbEntity
  8
Layer_1
 62
7
100
AcDbLine
 10
318.057448
 20
339.137653
 30
0.0
 11
325.534276
 21
347.252784
 31
0.0
  0
LINE
  5
27a
100
AcDbEntity
  8
Layer_1
 62
7
100
AcDbLine
 10
350.071468
 20
381.846325
 30
0.0
 11
348.733508
 21
370.718752
 31
0.0
  0
LINE
  5
27b
100
AcDbEntity
  8
Layer_1
 62
7
100
AcDbLine
 10
348.733508
 20
370.718752
 30
0.0
 11
358.771098
 21
365.746437
 31
0.0
  0
LINE
  5
27c
100
AcDbEntity
  8
Layer_1
 62
7
100
AcDbLine
 10
358.771098
 20
365.746437
 30
0.0
 11
347.498041
 21
363.043395
 31
0.0
  0
LINE
  5
27d
100
AcDbEntity
  8
Layer_1
 62
7
100
AcDbLine
 10
347.498041
 20
363.043395
 30
0.0
 11
345.268972
 21
352.010708
 31
0.0
  0
LINE
  5
27e
100
AcDbEntity
  8
Layer_1
 62
7
100
AcDbLine
 10
345.268972
 20
352.010708
 30
0.0
 11
339.639784
 21
361.467704
 31
0.0
  0
LINE
  5
27f
100
AcDbEntity
  8
Layer_1
 62
7
100
AcDbLine
 10
339.639784
 20
361.467704
 30
0.0
 11
328.224553
 21
359.621440
 31
0.0
  0
LINE
  5
280
100
AcDbEntity
  8
Layer_1
 62
7
100
AcDbLine
 10
328.224553
 20
359.621440
 30
0.0
 11
336.018593
 21
368.169233
 31
0.0
  0
LINE
  5
281
100
AcDbEntity
  8
Layer_1
 62
7
100
AcDbLine
 10
336.018593
 20
368.169233
 30
0.0
 11
331.192661
 21
378.060865
 31
0.0
  0
LINE
  5
282
100
AcDbEntity
  8
Layer_1
 62
7
100
AcDbLine
 10
331.192661
 20
378.060865
 30
0.0
 11
341.638811
 21
373.886689
 31
0.0
  0
LINE
  5
283
100
AcDbEntity
  8
Layer_1
 62
7
100
AcDbLine
 10
341.638811
 20
373.886689
 30
0.0
 11
350.071468
 21
381.846325
 31
0.0
  0
LINE
  5
284
100
AcDbEntity
  8
Layer_1
 62
7
100
AcDbLine
 10
375.341502
 20
417.321957
 30
0.0
 11
373.120451
 21
405.826986
 31
0.0
  0
LINE
  5
285
100
AcDbEntity
  8
Layer_1
 62
7
100
AcDbLine
 10
373.120451
 20
405.826986
 30
0.0
 11
383.245795
 21
399.963653
 31
0.0
  0
LINE
  5
286
100
AcDbEntity
  8
Layer_1
 62
7
100
AcDbLine
 10
383.245795
 20
399.963653
 30
0.0
 11
371.261685
 21
397.919576
 31
0.0
  0
LINE
  5
287
100
AcDbEntity
  8
Layer_1
 62
7
100
AcDbLine
 10
371.261685
 20
397.919576
 30
0.0
 11
368.116122
 21
386.584304
 31
0.0
  0
LINE
  5
288
100
AcDbEntity
  8
Layer_1
 62
7
100
AcDbLine
 10
368.116122
 20
386.584304
 30
0.0
 11
362.930570
 21
396.815961
 31
0.0
  0
LINE
  5
289
100
AcDbEntity
  8
Layer_1
 62
7
100
AcDbLine
 10
362.930570
 20
396.815961
 30
0.0
 11
350.861161
 21
395.673707
 31
0.0
  0
LINE
  5
28a
100
AcDbEntity
  8
Layer_1
 62
7
100
AcDbLine
 10
350.861161
 20
395.673707
 30
0.0
 11
359.640436
 21
404.041301
 31
0.0
  0
LINE
  5
28b
100
AcDbEntity
  8
Layer_1
 62
7
100
AcDbLine
 10
359.640436
 20
404.041301
 30
0.0
 11
355.326694
 21
414.670621
 31
0.0
  0
LINE
  5
28c
100
AcDbEntity
  8
Layer_1
 62
7
100
AcDbLine
 10
355.326694
 20
414.670621
 30
0.0
 11
365.938115
 21
409.610416
 31
0.0
  0
LINE
  5
28d
100
AcDbEntity
  8
Layer_1
 62
7
100
AcDbLine
 10
365.938115
 20
409.610416
 30
0.0
 11
375.341502
 21
417.321957
 31
0.0
  0
LINE
  5
28e
100
AcDbEntity
  8
Layer_1
 62
7
100
AcDbLine
 10
401.265633
 20
453.570712
 30
0.0
 11
398.103966
 21
441.778432
 31
0.0
  0
LINE
  5
28f
100
AcDbEntity
  8
Layer_1
 62
7
100
AcDbLine
 10
398.103966
 20
441.778432
 30
0.0
 11
408.242186
 21
434.990866
 31
0.0
  0
LINE
  5
290
100
AcDbEntity
  8
Layer_1
 62
7
100
AcDbLine
 10
408.242186
 20
434.990866
 30
0.0
 11
395.583669
 21
433.689209
 31
0.0
  0
LINE
  5
291
100
AcDbEntity
  8
Layer_1
 62
7
100
AcDbLine
 10
395.583669
 20
433.689209
 30
0.0
 11
391.468752
 21
422.126320
 31
0.0
  0
LINE
  5
292
100
AcDbEntity
  8
Layer_1
 62
7
100
AcDbLine
 10
391.468752
 20
422.126320
 30
0.0
 11
386.807007
 21
433.114128
 31
0.0
  0
LINE
  5
293
100
AcDbEntity
  8
Layer_1
 62
7
100
AcDbLine
 10
386.807007
 20
433.114128
 30
0.0
 11
374.125629
 21
432.755432
 31
0.0
  0
LINE
  5
294
100
AcDbEntity
  8
Layer_1
 62
7
100
AcDbLine
 10
374.125629
 20
432.755432
 30
0.0
 11
383.903043
 21
440.847932
 31
0.0
  0
LINE
  5
295
100
AcDbEntity
  8
Layer_1
 62
7
100
AcDbLine
 10
383.903043
 20
440.847932
 30
0.0
 11
380.180436
 21
452.189134
 31
0.0
  0
LINE
  5
296
100
AcDbEntity
  8
Layer_1
 62
7
100
AcDbLine
 10
380.180436
 20
452.189134
 30
0.0
 11
390.884932
 21
446.202761
 31
0.0
  0
LINE
  5
297
100
AcDbEntity
  8
Layer_1
 62
7
100
AcDbLine
 10
390.884932
 20
446.202761
 30
0.0
 11
401.265633
 21
453.570712
 31
0.0
  0
LINE
  5
298
100
AcDbEntity
  8
Layer_1
 62
7
100
AcDbLine
 10
427.778438
 20
490.505136
 30
0.0
 11
423.624255
 21
478.491872
 31
0.0
  0
LINE
  5
299
100
AcDbEntity
  8
Layer_1
 62
7
100
AcDbLine
 10
423.624255
 20
478.491872
 30
0.0
 11
433.696406
 21
470.752900
 31
0.0
  0
LINE
  5
29a
100
AcDbEntity
  8
Layer_1
 62
7
100
AcDbLine
 10
433.696406
 20
470.752900
 30
0.0
 11
420.408267
 21
470.275285
 31
0.0
  0
LINE
  5
29b
100
AcDbEntity
  8
Layer_1
 62
7
100
AcDbLine
 10
420.408267
 20
470.275285
 30
0.0
 11
415.277269
 21
458.565651
 31
0.0
  0
LINE
  5
29c
100
AcDbEntity
  8
Layer_1
 62
7
100
AcDbLine
 10
415.277269
 20
458.565651
 30
0.0
 11
411.218911
 21
470.283730
 31
0.0
  0
LINE
  5
29d
100
AcDbEntity
  8
Layer_1
 62
7
100
AcDbLine
 10
411.218911
 20
470.283730
 30
0.0
 11
397.975629
 21
470.785747
 31
0.0
  0
LINE
  5
29e
100
AcDbEntity
  8
Layer_1
 62
7
100
AcDbLine
 10
397.975629
 20
470.785747
 30
0.0
 11
408.755579
 21
478.505537
 31
0.0
  0
LINE
  5
29f
100
AcDbEntity
  8
Layer_1
 62
7
100
AcDbLine
 10
408.755579
 20
478.505537
 30
0.0
 11
405.701778
 21
490.525433
 31
0.0
  0
LINE
  5
2a0
100
AcDbEntity
  8
Layer_1
 62
7
100
AcDbLine
 10
405.701778
 20
490.525433
 30
0.0
 11
416.422488
 21
483.578444
 31
0.0
  0
LINE
  5
2a1
100
AcDbEntity
  8
Layer_1
 62
7
100
AcDbLine
 10
416.422488
 20
483.578444
 30
0.0
 11
427.778438
 21
490.505136
 31
0.0
  0
LINE
  5
2a2
100
AcDbEntity
  8
Layer_1
 62
7
100
AcDbLine
 10
454.823788
 20
528.053605
 30
0.0
 11
449.631400
 21
515.901457
 31
0.0
  0
LINE
  5
2a3
100
AcDbEntity
  8
Layer_1
 62
7
100
AcDbLine
 10
449.631400
 20
515.901457
 30
0.0
 11
459.554949
 21
507.190351
 31
0.0
  0
LINE
  5
2a4
100
AcDbEntity
  8
Layer_1
 62
7
100
AcDbLine
 10
459.554949
 20
507.190351
 30
0.0
 11
445.690031
 21
507.615821
 31
0.0
  0
LINE
  5
2a5
100
AcDbEntity
  8
Layer_1
 62
7
100
AcDbLine
 10
445.690031
 20
507.615821
 30
0.0
 11
439.502922
 21
495.845716
 31
0.0
  0
LINE
  5
2a6
100
AcDbEntity
  8
Layer_1
 62
7
100
AcDbLine
 10
439.502922
 20
495.845716
 30
0.0
 11
436.126300
 21
508.260818
 31
0.0
  0
LINE
  5
2a7
100
AcDbEntity
  8
Layer_1
 62
7
100
AcDbLine
 10
436.126300
 20
508.260818
 30
0.0
 11
422.378906
 21
509.697595
 31
0.0
  0
LINE
  5
2a8
100
AcDbEntity
  8
Layer_1
 62
7
100
AcDbLine
 10
422.378906
 20
509.697595
 30
0.0
 11
434.156973
 21
516.945082
 31
0.0
  0
LINE
  5
2a9
100
AcDbEntity
  8
Layer_1
 62
7
100
AcDbLine
 10
434.156973
 20
516.945082
 30
0.0
 11
431.847724
 21
529.603163
 31
0.0
  0
LINE
  5
2aa
100
AcDbEntity
  8
Layer_1
 62
7
100
AcDbLine
 10
431.847724
 20
529.603163
 30
0.0
 11
442.503567
 21
521.667254
 31
0.0
  0
LINE
  5
2ab
100
AcDbEntity
  8
Layer_1
 62
7
100
AcDbLine
 10
442.503567
 20
521.667254
 30
0.0
 11
454.823788
 21
528.053605
 31
0.0
  0
LINE
  5
2ac
100
AcDbEntity
  8
Layer_1
 62
7
100
AcDbLine
 10
482.352461
 20
566.156405
 30
0.0
 11
476.082934
 21
553.952740
 31
0.0
  0
LINE
  5
2ad
100
AcDbEntity
  8
Layer_1
 62
7
100
AcDbLine
 10
476.082934
 20
553.952740
 30
0.0
 11
485.772274
 21
544.255583
 31
0.0
  0
LINE
  5
2ae
100
AcDbEntity
  8
Layer_1
 62
7
100
AcDbLine
 10
485.772274
 20
544.255583
 30
0.0
 11
471.391334
 21
545.659875
 31
0.0
  0
LINE
  5
2af
100
AcDbEntity
  8
Layer_1
 62
7
100
AcDbLine
 10
471.391334
 20
545.659875
 30
0.0
 11
464.115301
 21
533.920415
 31
0.0
  0
LINE
  5
2b0
100
AcDbEntity
  8
Layer_1
 62
7
100
AcDbLine
 10
464.115301
 20
533.920415
 30
0.0
 11
461.496899
 21
546.991980
 31
0.0
  0
LINE
  5
2b1
100
AcDbEntity
  8
Layer_1
 62
7
100
AcDbLine
 10
461.496899
 20
546.991980
 30
0.0
 11
447.310723
 21
549.433747
 31
0.0
  0
LINE
  5
2b2
100
AcDbEntity
  8
Layer_1
 62
7
100
AcDbLine
 10
447.310723
 20
549.433747
 30
0.0
 11
460.073417
 21
556.108128
 31
0.0
  0
LINE
  5
2b3
100
AcDbEntity
  8
Layer_1
 62
7
100
AcDbLine
 10
460.073417
 20
556.108128
 30
0.0
 11
458.581909
 21
569.356683
 31
0.0
  0
LINE
  5
2b4
100
AcDbEntity
  8
Layer_1
 62
7
100
AcDbLine
 10
458.581909
 20
569.356683
 30
0.0
 11
469.088065
 21
560.410113
 31
0.0
  0
LINE
  5
2b5
100
AcDbEntity
  8
Layer_1
 62
7
100
AcDbLine
 10
469.088065
 20
560.410113
 30
0.0
 11
482.352461
 21
566.156405
 31
0.0
  0
LINE
  5
2b6
100
AcDbEntity
  8
Layer_1
 62
7
100
AcDbLine
 10
244.708099
 20
127.342935
 30
0.0
 11
238.145655
 21
131.465393
 31
0.0
  0
LINE
  5
2b7
100
AcDbEntity
  8
Layer_1
 62
7
100
AcDbLine
 10
238.145655
 20
131.465393
 30
0.0
 11
239.443410
 21
139.105827
 31
0.0
  0
LINE
  5
2b8
100
AcDbEntity
  8
Layer_1
 62
7
100
AcDbLine
 10
239.443410
 20
139.105827
 30
0.0
 11
233.494811
 21
134.138477
 31
0.0
  0
LINE
  5
2b9
100
AcDbEntity
  8
Layer_1
 62
7
100
AcDbLine
 10
233.494811
 20
134.138477
 30
0.0
 11
226.629357
 21
137.733740
 31
0.0
  0
LINE
  5
2ba
100
AcDbEntity
  8
Layer_1
 62
7
100
AcDbLine
 10
226.629357
 20
137.733740
 30
0.0
 11
229.515355
 21
130.541285
 31
0.0
  0
LINE
  5
2bb
100
AcDbEntity
  8
Layer_1
 62
7
100
AcDbLine
 10
229.515355
 20
130.541285
 30
0.0
 11
223.974515
 21
125.122847
 31
0.0
  0
LINE
  5
2bc
100
AcDbEntity
  8
Layer_1
 62
7
100
AcDbLine
 10
223.974515
 20
125.122847
 30
0.0
 11
231.706767
 21
125.645019
 31
0.0
  0
LINE
  5
2bd
100
AcDbEntity
  8
Layer_1
 62
7
100
AcDbLine
 10
231.706767
 20
125.645019
 30
0.0
 11
235.147792
 21
118.700977
 31
0.0
  0
LINE
  5
2be
100
AcDbEntity
  8
Layer_1
 62
7
100
AcDbLine
 10
235.147792
 20
118.700977
 30
0.0
 11
237.040578
 21
126.216145
 31
0.0
  0
LINE
  5
2bf
100
AcDbEntity
  8
Layer_1
 62
7
100
AcDbLine
 10
237.040578
 20
126.216145
 30
0.0
 11
244.708099
 21
127.342935
 31
0.0
  0
LINE
  5
2c0
100
AcDbEntity
  8
Layer_1
 62
7
100
AcDbLine
 10
244.708099
 20
127.342935
 30
0.0
 11
238.145655
 21
131.465393
 31
0.0
  0
LINE
  5
2c1
100
AcDbEntity
  8
Layer_1
 62
7
100
AcDbLine
 10
238.145655
 20
131.465393
 30
0.0
 11
239.443410
 21
139.105827
 31
0.0
  0
LINE
  5
2c2
100
AcDbEntity
  8
Layer_1
 62
7
100
AcDbLine
 10
239.443410
 20
139.105827
 30
0.0
 11
233.494811
 21
134.138477
 31
0.0
  0
LINE
  5
2c3
100
AcDbEntity
  8
Layer_1
 62
7
100
AcDbLine
 10
233.494811
 20
134.138477
 30
0.0
 11
226.629357
 21
137.733740
 31
0.0
  0
LINE
  5
2c4
100
AcDbEntity
  8
Layer_1
 62
7
100
AcDbLine
 10
226.629357
 20
137.733740
 30
0.0
 11
229.515355
 21
130.541285
 31
0.0
  0
LINE
  5
2c5
100
AcDbEntity
  8
Layer_1
 62
7
100
AcDbLine
 10
229.515355
 20
130.541285
 30
0.0
 11
223.974515
 21
125.122847
 31
0.0
  0
LINE
  5
2c6
100
AcDbEntity
  8
Layer_1
 62
7
100
AcDbLine
 10
223.974515
 20
125.122847
 30
0.0
 11
231.706767
 21
125.645019
 31
0.0
  0
LINE
  5
2c7
100
AcDbEntity
  8
Layer_1
 62
7
100
AcDbLine
 10
231.706767
 20
125.645019
 30
0.0
 11
235.147792
 21
118.700977
 31
0.0
  0
LINE
  5
2c8
100
AcDbEntity
  8
Layer_1
 62
7
100
AcDbLine
 10
235.147792
 20
118.700977
 30
0.0
 11
237.040578
 21
126.216145
 31
0.0
  0
LINE
  5
2c9
100
AcDbEntity
  8
Layer_1
 62
7
100
AcDbLine
 10
237.040578
 20
126.216145
 30
0.0
 11
244.708099
 21
127.342935
 31
0.0
  0
LINE
  5
2ca
100
AcDbEntity
  8
Layer_1
 62
7
100
AcDbLine
 10
267.317397
 20
137.629174
 30
0.0
 11
260.041968
 21
141.495696
 31
0.0
  0
LINE
  5
2cb
100
AcDbEntity
  8
Layer_1
 62
7
100
AcDbLine
 10
260.041968
 20
141.495696
 30
0.0
 11
260.901111
 21
149.689096
 31
0.0
  0
LINE
  5
2cc
100
AcDbEntity
  8
Layer_1
 62
7
100
AcDbLine
 10
260.901111
 20
149.689096
 30
0.0
 11
254.902862
 21
143.972632
 31
0.0
  0
LINE
  5
2cd
100
AcDbEntity
  8
Layer_1
 62
7
100
AcDbLine
 10
254.902862
 20
143.972632
 30
0.0
 11
247.340687
 21
147.257512
 31
0.0
  0
LINE
  5
2ce
100
AcDbEntity
  8
Layer_1
 62
7
100
AcDbLine
 10
247.340687
 20
147.257512
 30
0.0
 11
250.908985
 21
139.858013
 31
0.0
  0
LINE
  5
2cf
100
AcDbEntity
  8
Layer_1
 62
7
100
AcDbLine
 10
250.908985
 20
139.858013
 30
0.0
 11
245.376159
 21
133.694782
 31
0.0
  0
LINE
  5
2d0
100
AcDbEntity
  8
Layer_1
 62
7
100
AcDbLine
 10
245.376159
 20
133.694782
 30
0.0
 11
253.579746
 21
134.838110
 31
0.0
  0
LINE
  5
2d1
100
AcDbEntity
  8
Layer_1
 62
7
100
AcDbLine
 10
253.579746
 20
134.838110
 30
0.0
 11
257.722446
 21
127.744143
 31
0.0
  0
LINE
  5
2d2
100
AcDbEntity
  8
Layer_1
 62
7
100
AcDbLine
 10
257.722446
 20
127.744143
 30
0.0
 11
259.224232
 21
135.850248
 31
0.0
  0
LINE
  5
2d3
100
AcDbEntity
  8
Layer_1
 62
7
100
AcDbLine
 10
259.224232
 20
135.850248
 30
0.0
 11
267.317397
 21
137.629174
 31
0.0
  0
LINE
  5
2d4
100
AcDbEntity
  8
Layer_1
 62
7
100
AcDbLine
 10
296.353358
 20
150.880400
 30
0.0
 11
288.369087
 21
154.410718
 31
0.0
  0
LINE
  5
2d5
100
AcDbEntity
  8
Layer_1
 62
7
100
AcDbLine
 10
288.369087
 20
154.410718
 30
0.0
 11
288.722333
 21
163.131998
 31
0.0
  0
LINE
  5
2d6
100
AcDbEntity
  8
Layer_1
 62
7
100
AcDbLine
 10
288.722333
 20
163.131998
 30
0.0
 11
282.746609
 21
156.635823
 31
0.0
  0
LINE
  5
2d7
100
AcDbEntity
  8
Layer_1
 62
7
100
AcDbLine
 10
282.746609
 20
156.635823
 30
0.0
 11
274.497688
 21
159.529822
 31
0.0
  0
LINE
  5
2d8
100
AcDbEntity
  8
Layer_1
 62
7
100
AcDbLine
 10
274.497688
 20
159.529822
 30
0.0
 11
278.788749
 21
151.984639
 31
0.0
  0
LINE
  5
2d9
100
AcDbEntity
  8
Layer_1
 62
7
100
AcDbLine
 10
278.788749
 20
151.984639
 30
0.0
 11
273.337387
 21
145.051950
 31
0.0
  0
LINE
  5
2da
100
AcDbEntity
  8
Layer_1
 62
7
100
AcDbLine
 10
273.337387
 20
145.051950
 30
0.0
 11
281.965141
 21
146.884951
 31
0.0
  0
LINE
  5
2db
100
AcDbEntity
  8
Layer_1
 62
7
100
AcDbLine
 10
281.965141
 20
146.884951
 30
0.0
 11
286.844934
 21
139.706315
 31
0.0
  0
LINE
  5
2dc
100
AcDbEntity
  8
Layer_1
 62
7
100
AcDbLine
 10
286.844934
 20
139.706315
 30
0.0
 11
287.886106
 21
148.384345
 31
0.0
  0
LINE
  5
2dd
100
AcDbEntity
  8
Layer_1
 62
7
100
AcDbLine
 10
287.886106
 20
148.384345
 30
0.0
 11
296.353358
 21
150.880400
 31
0.0
  0
LINE
  5
2de
100
AcDbEntity
  8
Layer_1
 62
7
100
AcDbLine
 10
328.433274
 20
165.605820
 30
0.0
 11
319.752196
 21
168.719109
 31
0.0
  0
LINE
  5
2df
100
AcDbEntity
  8
Layer_1
 62
7
100
AcDbLine
 10
319.752196
 20
168.719109
 30
0.0
 11
319.533585
 21
177.936645
 31
0.0
  0
LINE
  5
2e0
100
AcDbEntity
  8
Layer_1
 62
7
100
AcDbLine
 10
319.533585
 20
177.936645
 30
0.0
 11
313.656745
 21
170.636501
 31
0.0
  0
LINE
  5
2e1
100
AcDbEntity
  8
Layer_1
 62
7
100
AcDbLine
 10
313.656745
 20
170.636501
 30
0.0
 11
304.739064
 21
173.059101
 31
0.0
  0
LINE
  5
2e2
100
AcDbEntity
  8
Layer_1
 62
7
100
AcDbLine
 10
304.739064
 20
173.059101
 30
0.0
 11
309.788046
 21
165.434066
 31
0.0
  0
LINE
  5
2e3
100
AcDbEntity
  8
Layer_1
 62
7
100
AcDbLine
 10
309.788046
 20
165.434066
 30
0.0
 11
304.495225
 21
157.713781
 31
0.0
  0
LINE
  5
2e4
100
AcDbEntity
  8
Layer_1
 62
7
100
AcDbLine
 10
304.495225
 20
157.713781
 30
0.0
 11
313.492516
 21
160.301400
 31
0.0
  0
LINE
  5
2e5
100
AcDbEntity
  8
Layer_1
 62
7
100
AcDbLine
 10
313.492516
 20
160.301400
 30
0.0
 11
319.139052
 21
153.107401
 31
0.0
  0
LINE
  5
2e6
100
AcDbEntity
  8
Layer_1
 62
7
100
AcDbLine
 10
319.139052
 20
153.107401
 30
0.0
 11
319.650690
 21
162.331662
 31
0.0
  0
LINE
  5
2e7
100
AcDbEntity
  8
Layer_1
 62
7
100
AcDbLine
 10
319.650690
 20
162.331662
 30
0.0
 11
328.433274
 21
165.605820
 31
0.0
  0
LINE
  5
2e8
100
AcDbEntity
  8
Layer_1
 62
7
100
AcDbLine
 10
362.646418
 20
181.404610
 30
0.0
 11
353.288535
 21
184.020210
 31
0.0
  0
LINE
  5
2e9
100
AcDbEntity
  8
Layer_1
 62
7
100
AcDbLine
 10
353.288535
 20
184.020210
 30
0.0
 11
352.434012
 21
193.695901
 31
0.0
  0
LINE
  5
2ea
100
AcDbEntity
  8
Layer_1
 62
7
100
AcDbLine
 10
352.434012
 20
193.695901
 30
0.0
 11
346.736052
 21
185.574313
 31
0.0
  0
LINE
  5
2eb
100
AcDbEntity
  8
Layer_1
 62
7
100
AcDbLine
 10
346.736052
 20
185.574313
 30
0.0
 11
337.175637
 21
187.445718
 31
0.0
  0
LINE
  5
2ec
100
AcDbEntity
  8
Layer_1
 62
7
100
AcDbLine
 10
337.175637
 20
187.445718
 30
0.0
 11
343.011977
 21
179.810690
 31
0.0
  0
LINE
  5
2ed
100
AcDbEntity
  8
Layer_1
 62
7
100
AcDbLine
 10
343.011977
 20
179.810690
 30
0.0
 11
337.957835
 21
171.291592
 31
0.0
  0
LINE
  5
2ee
100
AcDbEntity
  8
Layer_1
 62
7
100
AcDbLine
 10
337.957835
 20
171.291592
 30
0.0
 11
347.262861
 21
174.694481
 31
0.0
  0
LINE
  5
2ef
100
AcDbEntity
  8
Layer_1
 62
7
100
AcDbLine
 10
347.262861
 20
174.694481
 30
0.0
 11
353.699644
 21
167.557984
 31
0.0
  0
LINE
  5
2f0
100
AcDbEntity
  8
Layer_1
 62
7
100
AcDbLine
 10
353.699644
 20
167.557984
 30
0.0
 11
353.614114
 21
177.296099
 31
0.0
  0
LINE
  5
2f1
100
AcDbEntity
  8
Layer_1
 62
7
100
AcDbLine
 10
353.614114
 20
177.296099
 30
0.0
 11
362.646418
 21
181.404610
 31
0.0
  0
LINE
  5
2f2
100
AcDbEntity
  8
Layer_1
 62
7
100
AcDbLine
 10
398.519371
 20
198.067899
 30
0.0
 11
388.512664
 21
200.106039
 31
0.0
  0
LINE
  5
2f3
100
AcDbEntity
  8
Layer_1
 62
7
100
AcDbLine
 10
388.512664
 20
200.106039
 30
0.0
 11
386.960674
 21
210.195417
 31
0.0
  0
LINE
  5
2f4
100
AcDbEntity
  8
Layer_1
 62
7
100
AcDbLine
 10
386.960674
 20
210.195417
 30
0.0
 11
381.524627
 21
201.242090
 31
0.0
  0
LINE
  5
2f5
100
AcDbEntity
  8
Layer_1
 62
7
100
AcDbLine
 10
381.524627
 20
201.242090
 30
0.0
 11
371.355504
 21
202.483955
 31
0.0
  0
LINE
  5
2f6
100
AcDbEntity
  8
Layer_1
 62
7
100
AcDbLine
 10
371.355504
 20
202.483955
 30
0.0
 11
378.002541
 21
194.912343
 31
0.0
  0
LINE
  5
2f7
100
AcDbEntity
  8
Layer_1
 62
7
100
AcDbLine
 10
378.002541
 20
194.912343
 30
0.0
 11
373.269665
 21
185.590481
 31
0.0
  0
LINE
  5
2f8
100
AcDbEntity
  8
Layer_1
 62
7
100
AcDbLine
 10
373.269665
 20
185.590481
 30
0.0
 11
382.813814
 21
189.864304
 31
0.0
  0
LINE
  5
2f9
100
AcDbEntity
  8
Layer_1
 62
7
100
AcDbLine
 10
382.813814
 20
189.864304
 30
0.0
 11
390.057858
 21
182.861210
 31
0.0
  0
LINE
  5
2fa
100
AcDbEntity
  8
Layer_1
 62
7
100
AcDbLine
 10
390.057858
 20
182.861210
 30
0.0
 11
389.309419
 21
193.074175
 31
0.0
  0
LINE
  5
2fb
100
AcDbEntity
  8
Layer_1
 62
7
100
AcDbLine
 10
389.309419
 20
193.074175
 30
0.0
 11
398.519371
 21
198.067899
 31
0.0
  0
LINE
  5
2fc
100
AcDbEntity
  8
Layer_1
 62
7
100
AcDbLine
 10
435.753916
 20
215.462870
 30
0.0
 11
425.134298
 21
216.845395
 31
0.0
  0
LINE
  5
2fd
100
AcDbEntity
  8
Layer_1
 62
7
100
AcDbLine
 10
425.134298
 20
216.845395
 30
0.0
 11
422.826355
 21
227.297790
 31
0.0
  0
LINE
  5
2fe
100
AcDbEntity
  8
Layer_1
 62
7
100
AcDbLine
 10
422.826355
 20
227.297790
 30
0.0
 11
417.737668
 21
217.509949
 31
0.0
  0
LINE
  5
2ff
100
AcDbEntity
  8
Layer_1
 62
7
100
AcDbLine
 10
417.737668
 20
217.509949
 30
0.0
 11
407.001769
 21
218.046125
 31
0.0
  0
LINE
  5
300
100
AcDbEntity
  8
Layer_1
 62
7
100
AcDbLine
 10
407.001769
 20
218.046125
 30
0.0
 11
414.476397
 21
210.614368
 31
0.0
  0
LINE
  5
301
100
AcDbEntity
  8
Layer_1
 62
7
100
AcDbLine
 10
414.476397
 20
210.614368
 30
0.0
 11
410.149187
 21
200.493350
 31
0.0
  0
LINE
  5
302
100
AcDbEntity
  8
Layer_1
 62
7
100
AcDbLine
 10
410.149187
 20
200.493350
 30
0.0
 11
419.857456
 21
205.688123
 31
0.0
  0
LINE
  5
303
100
AcDbEntity
  8
Layer_1
 62
7
100
AcDbLine
 10
419.857456
 20
205.688123
 30
0.0
 11
427.918991
 21
198.896812
 31
0.0
  0
LINE
  5
304
100
AcDbEntity
  8
Layer_1
 62
7
100
AcDbLine
 10
427.918991
 20
198.896812
 30
0.0
 11
426.444392
 21
209.539098
 31
0.0
  0
LINE
  5
305
100
AcDbEntity
  8
Layer_1
 62
7
100
AcDbLine
 10
426.444392
 20
209.539098
 30
0.0
 11
435.753916
 21
215.462870
 31
0.0
  0
LINE
  5
306
100
AcDbEntity
  8
Layer_1
 62
7
100
AcDbLine
 10
474.141677
 20
233.495249
 30
0.0
 11
462.952884
 21
234.146343
 31
0.0
  0
LINE
  5
307
100
AcDbEntity
  8
Layer_1
 62
7
100
AcDbLine
 10
462.952884
 20
234.146343
 30
0.0
 11
459.834143
 21
244.905088
 31
0.0
  0
LINE
  5
308
100
AcDbEntity
  8
Layer_1
 62
7
100
AcDbLine
 10
459.834143
 20
244.905088
 30
0.0
 11
455.180015
 21
234.287775
 31
0.0
  0
LINE
  5
309
100
AcDbEntity
  8
Layer_1
 62
7
100
AcDbLine
 10
455.180015
 20
234.287775
 30
0.0
 11
443.927016
 21
234.045025
 31
0.0
  0
LINE
  5
30a
100
AcDbEntity
  8
Layer_1
 62
7
100
AcDbLine
 10
443.927016
 20
234.045025
 30
0.0
 11
452.239392
 21
226.832056
 31
0.0
  0
LINE
  5
30b
100
AcDbEntity
  8
Layer_1
 62
7
100
AcDbLine
 10
452.239392
 20
226.832056
 30
0.0
 11
448.403393
 21
215.923284
 31
0.0
  0
LINE
  5
30c
100
AcDbEntity
  8
Layer_1
 62
7
100
AcDbLine
 10
448.403393
 20
215.923284
 30
0.0
 11
458.194859
 21
222.082749
 31
0.0
  0
LINE
  5
30d
100
AcDbEntity
  8
Layer_1
 62
7
100
AcDbLine
 10
458.194859
 20
222.082749
 30
0.0
 11
467.077081
 21
215.583506
 31
0.0
  0
LINE
  5
30e
100
AcDbEntity
  8
Layer_1
 62
7
100
AcDbLine
 10
467.077081
 20
215.583506
 30
0.0
 11
464.816154
 21
226.603216
 31
0.0
  0
LINE
  5
30f
100
AcDbEntity
  8
Layer_1
 62
7
100
AcDbLine
 10
464.816154
 20
226.603216
 30
0.0
 11
474.141677
 21
233.495249
 31
0.0
  0
LINE
  5
310
100
AcDbEntity
  8
Layer_1
 62
7
100
AcDbLine
 10
513.527230
 20
252.092918
 30
0.0
 11
501.820652
 21
251.939817
 31
0.0
  0
LINE
  5
311
100
AcDbEntity
  8
Layer_1
 62
7
100
AcDbLine
 10
501.820652
 20
251.939817
 30
0.0
 11
497.840458
 21
262.942513
 31
0.0
  0
LINE
  5
312
100
AcDbEntity
  8
Layer_1
 62
7
100
AcDbLine
 10
497.840458
 20
262.942513
 30
0.0
 11
493.709155
 21
251.508814
 31
0.0
  0
LINE
  5
313
100
AcDbEntity
  8
Layer_1
 62
7
100
AcDbLine
 10
493.709155
 20
251.508814
 30
0.0
 11
481.996254
 21
250.417531
 31
0.0
  0
LINE
  5
314
100
AcDbEntity
  8
Layer_1
 62
7
100
AcDbLine
 10
481.996254
 20
250.417531
 30
0.0
 11
491.149539
 21
243.504202
 31
0.0
  0
LINE
  5
315
100
AcDbEntity
  8
Layer_1
 62
7
100
AcDbLine
 10
491.149539
 20
243.504202
 30
0.0
 11
487.890758
 21
231.827056
 31
0.0
  0
LINE
  5
316
100
AcDbEntity
  8
Layer_1
 62
7
100
AcDbLine
 10
487.890758
 20
231.827056
 30
0.0
 11
497.679110
 21
238.988095
 31
0.0
  0
LINE
  5
317
100
AcDbEntity
  8
Layer_1
 62
7
100
AcDbLine
 10
497.679110
 20
238.988095
 30
0.0
 11
507.377974
 21
232.862505
 31
0.0
  0
LINE
  5
318
100
AcDbEntity
  8
Layer_1
 62
7
100
AcDbLine
 10
507.377974
 20
232.862505
 30
0.0
 11
504.274213
 21
244.201579
 31
0.0
  0
LINE
  5
319
100
AcDbEntity
  8
Layer_1
 62
7
100
AcDbLine
 10
504.274213
 20
244.201579
 30
0.0
 11
513.527230
 21
252.092918
 31
0.0
  0
LINE
  5
31a
100
AcDbEntity
  8
Layer_1
 62
7
100
AcDbLine
 10
553.789400
 20
271.197642
 30
0.0
 11
541.623847
 21
270.171333
 31
0.0
  0
LINE
  5
31b
100
AcDbEntity
  8
Layer_1
 62
7
100
AcDbLine
 10
541.623847
 20
270.171333
 30
0.0
 11
536.736265
 21
281.350157
 31
0.0
  0
LINE
  5
31c
100
AcDbEntity
  8
Layer_1
 62
7
100
AcDbLine
 10
536.736265
 20
281.350157
 30
0.0
 11
533.216408
 21
269.121381
 31
0.0
  0
LINE
  5
31d
100
AcDbEntity
  8
Layer_1
 62
7
100
AcDbLine
 10
533.216408
 20
269.121381
 30
0.0
 11
521.108042
 21
267.116278
 31
0.0
  0
LINE
  5
31e
100
AcDbEntity
  8
Layer_1
 62
7
100
AcDbLine
 10
521.108042
 20
267.116278
 30
0.0
 11
531.098198
 21
260.584772
 31
0.0
  0
LINE
  5
31f
100
AcDbEntity
  8
Layer_1
 62
7
100
AcDbLine
 10
531.098198
 20
260.584772
 30
0.0
 11
528.502394
 21
248.166727
 31
0.0
  0
LINE
  5
320
100
AcDbEntity
  8
Layer_1
 62
7
100
AcDbLine
 10
528.502394
 20
248.166727
 30
0.0
 11
538.196513
 21
256.358823
 31
0.0
  0
LINE
  5
321
100
AcDbEntity
  8
Layer_1
 62
7
100
AcDbLine
 10
538.196513
 20
256.358823
 30
0.0
 11
548.700584
 21
250.689150
 31
0.0
  0
LINE
  5
322
100
AcDbEntity
  8
Layer_1
 62
7
100
AcDbLine
 10
548.700584
 20
250.689150
 30
0.0
 11
544.701715
 21
262.283629
 31
0.0
  0
LINE
  5
323
100
AcDbEntity
  8
Layer_1
 62
7
100
AcDbLine
 10
544.701715
 20
262.283629
 30
0.0
 11
553.789400
 21
271.197642
 31
0.0
  0
LINE
  5
324
100
AcDbEntity
  8
Layer_1
 62
7
100
AcDbLine
 10
594.830541
 20
290.760496
 30
0.0
 11
582.271955
 21
288.796399
 31
0.0
  0
LINE
  5
325
100
AcDbEntity
  8
Layer_1
 62
7
100
AcDbLine
 10
582.271955
 20
288.796399
 30
0.0
 11
576.436280
 21
300.078456
 31
0.0
  0
LINE
  5
326
100
AcDbEntity
  8
Layer_1
 62
7
100
AcDbLine
 10
576.436280
 20
300.078456
 30
0.0
 11
573.616124
 21
287.084247
 31
0.0
  0
LINE
  5
327
100
AcDbEntity
  8
Layer_1
 62
7
100
AcDbLine
 10
573.616124
 20
287.084247
 30
0.0
 11
561.183628
 21
284.105033
 31
0.0
  0
LINE
  5
328
100
AcDbEntity
  8
Layer_1
 62
7
100
AcDbLine
 10
561.183628
 20
284.105033
 30
0.0
 11
571.999255
 21
278.038250
 31
0.0
  0
LINE
  5
329
100
AcDbEntity
  8
Layer_1
 62
7
100
AcDbLine
 10
571.999255
 20
278.038250
 30
0.0
 11
570.151221
 21
264.914937
 31
0.0
  0
LINE
  5
32a
100
AcDbEntity
  8
Layer_1
 62
7
100
AcDbLine
 10
570.151221
 20
264.914937
 30
0.0
 11
579.655809
 21
274.159682
 31
0.0
  0
LINE
  5
32b
100
AcDbEntity
  8
Layer_1
 62
7
100
AcDbLine
 10
579.655809
 20
274.159682
 30
0.0
 11
590.946156
 21
269.028242
 31
0.0
  0
LINE
  5
32c
100
AcDbEntity
  8
Layer_1
 62
7
100
AcDbLine
 10
590.946156
 20
269.028242
 30
0.0
 11
586.004681
 21
280.808569
 31
0.0
  0
LINE
  5
32d
100
AcDbEntity
  8
Layer_1
 62
7
100
AcDbLine
 10
586.004681
 20
280.808569
 30
0.0
 11
594.830541
 21
290.760496
 31
0.0
  0
LINE
  5
32e
100
AcDbEntity
  8
Layer_1
 62
7
100
AcDbLine
 10
636.570230
 20
310.738905
 30
0.0
 11
623.691338
 21
307.777530
 31
0.0
  0
LINE
  5
32f
100
AcDbEntity
  8
Layer_1
 62
7
100
AcDbLine
 10
623.691338
 20
307.777530
 30
0.0
 11
616.872573
 21
319.085254
 31
0.0
  0
LINE
  5
330
100
AcDbEntity
  8
Layer_1
 62
7
100
AcDbLine
 10
616.872573
 20
319.085254
 30
0.0
 11
614.839259
 21
305.363643
 31
0.0
  0
LINE
  5
331
100
AcDbEntity
  8
Layer_1
 62
7
100
AcDbLine
 10
614.839259
 20
305.363643
 30
0.0
 11
602.160468
 21
301.355660
 31
0.0
  0
LINE
  5
332
100
AcDbEntity
  8
Layer_1
 62
7
100
AcDbLine
 10
602.160468
 20
301.355660
 30
0.0
 11
613.782698
 21
295.836595
 31
0.0
  0
LINE
  5
333
100
AcDbEntity
  8
Layer_1
 62
7
100
AcDbLine
 10
613.782698
 20
295.836595
 30
0.0
 11
612.765535
 21
282.051801
 31
0.0
  0
LINE
  5
334
100
AcDbEntity
  8
Layer_1
 62
7
100
AcDbLine
 10
612.765535
 20
282.051801
 30
0.0
 11
621.981787
 21
292.362457
 31
0.0
  0
LINE
  5
335
100
AcDbEntity
  8
Layer_1
 62
7
100
AcDbLine
 10
621.981787
 20
292.362457
 30
0.0
 11
634.031937
 21
287.850968
 31
0.0
  0
LINE
  5
336
100
AcDbEntity
  8
Layer_1
 62
7
100
AcDbLine
 10
634.031937
 20
287.850968
 30
0.0
 11
628.105658
 21
299.742345
 31
0.0
  0
LINE
  5
337
100
AcDbEntity
  8
Layer_1
 62
7
100
AcDbLine
 10
628.105658
 20
299.742345
 30
0.0
 11
636.570230
 21
310.738905
 31
0.0
  0
LINE
  5
338
100
AcDbEntity
  8
Layer_1
 62
7
100
AcDbLine
 10
678.940991
 20
331.094983
 30
0.0
 11
665.820896
 21
327.082558
 31
0.0
  0
LINE
  5
339
100
AcDbEntity
  8
Layer_1
 62
7
100
AcDbLine
 10
665.820896
 20
327.082558
 30
0.0
 11
657.990202
 21
338.334153
 31
0.0
  0
LINE
  5
33a
100
AcDbEntity
  8
Layer_1
 62
7
100
AcDbLine
 10
657.990202
 20
338.334153
 30
0.0
 11
656.829021
 21
323.931545
 31
0.0
  0
LINE
  5
33b
100
AcDbEntity
  8
Layer_1
 62
7
100
AcDbLine
 10
656.829021
 20
323.931545
 30
0.0
 11
643.987809
 21
318.846383
 31
0.0
  0
LINE
  5
33c
100
AcDbEntity
  8
Layer_1
 62
7
100
AcDbLine
 10
643.987809
 20
318.846383
 30
0.0
 11
656.390250
 21
313.957487
 31
0.0
  0
LINE
  5
33d
100
AcDbEntity
  8
Layer_1
 62
7
100
AcDbLine
 10
656.390250
 20
313.957487
 30
0.0
 11
656.284634
 21
299.563090
 31
0.0
  0
LINE
  5
33e
100
AcDbEntity
  8
Layer_1
 62
7
100
AcDbLine
 10
656.284634
 20
299.563090
 30
0.0
 11
665.110950
 21
310.944209
 31
0.0
  0
LINE
  5
33f
100
AcDbEntity
  8
Layer_1
 62
7
100
AcDbLine
 10
665.110950
 20
310.944209
 30
0.0
 11
677.886888
 21
307.133143
 31
0.0
  0
LINE
  5
340
100
AcDbEntity
  8
Layer_1
 62
7
100
AcDbLine
 10
677.886888
 20
307.133143
 30
0.0
 11
670.939406
 21
319.055933
 31
0.0
  0
LINE
  5
341
100
AcDbEntity
  8
Layer_1
 62
7
100
AcDbLine
 10
670.939406
 20
319.055933
 30
0.0
 11
678.940991
 21
331.094983
 31
0.0
  0
ENDSEC
  0
SECTION
  2
OBJECTS
  0
DICTIONARY
  5
C
330
0
100
AcDbDictionary
  3
ACAD_GROUP
350
D
  3
ACAD_MLINESTYLE
350
17
  0
DICTIONARY
  5
D
330
C
100
AcDbDictionary
  0
DICTIONARY
  5
1A
330
C
100
AcDbDictionary
  0
DICTIONARY
  5
17
330
C
100
AcDbDictionary
  3
STANDARD
350
18
  0
DICTIONARY
  5
19
330
C
100
AcDbDictionary
  0
ENDSEC
  0
EOF
