  0
SECTION
  2
HEADER
  9
$ACADVER
  1
AC1014
  9
$HANDSEED
  5
FFFF
  9
$MEASUREMENT
 70
     1
  0
ENDSEC
  0
SECTION
  2
TABLES
  0
TABLE
  2
VPORT
  5
8
330
0
100
AcDbSymbolTable
 70
     4
  0
VPORT
  5
2E
330
8
100
AcDbSymbolTableRecord
100
AcDbViewportTableRecord
  2
*ACTIVE
 70
     0
 10
0.0
 20
0.0
 11
1.0
 21
1.0
 12
210.0
 22
148.5
 13
0.0
 23
0.0
 14
10.0
 24
10.0
 15
10.0
 25
10.0
 16
0.0
 26
0.0
 36
1.0
 17
0.0
 27
0.0
 37
0.0
 40
341.0
 41
1.24
 42
50.0
 43
0.0
 44
0.0
 50
0.0
 51
0.0
 71
     0
 72
   100
 73
     1
 74
     3
 75
     0
 76
     0
 77
     0
 78
     0
  0
ENDTAB
  0
TABLE
  2
LTYPE
  5
5
330
0
100
AcDbSymbolTable
 70
     1
  0
LTYPE
  5
14
330
5
100
AcDbSymbolTableRecord
100
AcDbLinetypeTableRecord
  2
BYBLOCK
 70
     0
  3

 72
    65
 73
     0
 40
0.0
  0
LTYPE
  5
15
330
5
100
AcDbSymbolTableRecord
100
AcDbLinetypeTableRecord
  2
BYLAYER
 70
     0
  3

 72
    65
 73
     0
 40
0.0
  0
LTYPE
  5
16
330
5
100
AcDbSymbolTableRecord
100
AcDbLinetypeTableRecord
  2
CONTINUOUS
 70
     0
  3
Solid line
 72
    65
 73
     0
 40
0.0
  0
ENDTAB
  0
TABLE
  2
LAYER
  5
2
100
AcDbSymbolTable
 70
1
  0
LAYER
  5
50
100
AcDbSymbolTableRecord
100
AcDbLayerTableRecord
  2
0
 70
0
  6
CONTINUOUS
  0
ENDTAB
  0
TABLE
  2
STYLE
  5
3
330
0
100
AcDbSymbolTable
 70
     1
  0
STYLE
  5
11
330
3
100
AcDbSymbolTableRecord
100
AcDbTextStyleTableRecord
  2
STANDARD
 70
     0
 40
0.0
 41
1.0
 50
0.0
 71
     0
 42
2.5
  3
txt
  4

  0
ENDTAB
  0
TABLE
  2
VIEW
  5
6
330
0
100
AcDbSymbolTable
 70
     0
  0
ENDTAB
  0
TABLE
  2
UCS
  5
7
330
0
100
AcDbSymbolTable
 70
     0
  0
ENDTAB
  0
TABLE
  2
APPID
  5
9
330
0
100
AcDbSymbolTable
 70
     2
  0
APPID
  5
12
330
9
100
AcDbSymbolTableRecord
100
AcDbRegAppTableRecord
  2
ACAD
 70
     0
  0
ENDTAB
  0
TABLE
  2
DIMSTYLE
  5
A
330
0
100
AcDbSymbolTable
 70
     1
  0
DIMSTYLE
105
27
330
A
100
AcDbSymbolTableRecord
100
AcDbDimStyleTableRecord
  2
ISO-25
 70
     0
  3

  4

  5

  6

  7

 40
1.0
 41
2.5
 42
0.625
 43
3.75
 44
1.25
 45
0.0
 46
0.0
 47
0.0
 48
0.0
140
2.5
141
2.5
142
0.0
143
0.03937007874016
144
1.0
145
0.0
146
1.0
147
0.625
 71
     0
 72
     0
 73
     0
 74
     0
 75
     0
 76
     0
 77
     1
 78
     8
170
     0
171
     3
172
     1
173
     0
174
     0
175
     0
176
     0
177
     0
178
     0
270
     2
271
     2
272
     2
273
     2
274
     3
340
11
275
     0
280
     0
281
     0
282
     0
283
     0
284
     8
285
     0
286
     0
287
     3
288
     0
  0
ENDTAB
  0
TABLE
  2
BLOCK_RECORD
  5
1
330
0
100
AcDbSymbolTable
 70
     1
  0
BLOCK_RECORD
  5
1F
330
1
100
AcDbSymbolTableRecord
100
AcDbBlockTableRecord
  2
*MODEL_SPACE
  0
BLOCK_RECORD
  5
1B
330
1
100
AcDbSymbolTableRecord
100
AcDbBlockTableRecord
  2
*PAPER_SPACE
  0
ENDTAB
  0
ENDSEC
  0
SECTION
  2
BLOCKS
  0
BLOCK
  5
20
330
1F
100
AcDbEntity
  8
0
100
AcDbBlockBegin
  2
*MODEL_SPACE
 70
     0
 10
0.0
 20
0.0
 30
0.0
  3
*MODEL_SPACE
  1

  0
ENDBLK
  5
21
330
1F
100
AcDbEntity
  8
0
100
AcDbBlockEnd
  0
BLOCK
  5
1C
330
1B
100
AcDbEntity
 67
     1
  8
0
100
AcDbBlockBegin
  2
*PAPER_SPACE
  1

  0
ENDBLK
  5
1D
330
1B
100
AcDbEntity
 67
     1
  8
0
100
AcDbBlockEnd
  0
ENDSEC
  0
SECTION
  2
ENTITIES
  0
SPLINE
  5
100
100
AcDbEntity
  8
0
 62
5
100
AcDbSpline
 70
0
 71
3
 72
10
 73
6
 74
4
 40
0.000000
 40
0.000000
 40
0.000000
 40
0.000000
 40
72.875315
 40
145.673174
 40
218.470920
 40
218.470920
 40
218.470920
 40
218.470920
 10
198.242641
 20
673.217814
 30
0.0
 10
174.854649
 20
680.206230
 30
0.0
 10
128.103523
 20
694.175635
 30
0.0
 10
68.592901
 20
740.260483
 30
0.0
 10
44.556620
 20
782.797849
 30
0.0
 10
32.538489
 20
804.066515
 30
0.0
 11
198.242641
 21
673.217814
 31
0.0
 11
129.848126
 21
698.377342
 31
0.0
 11
72.498724
 21
743.216770
 31
0.0
 11
32.538489
 21
804.066515
 31
0.0
  0
SPLINE
  5
101
100
AcDbEntity
  8
0
 62
5
100
AcDbSpline
 70
0
 71
3
 72
10
 73
6
 74
4
 40
0.000000
 40
0.000000
 40
0.000000
 40
0.000000
 40
72.017273
 40
144.158693
 40
216.217836
 40
216.217836
 40
216.217836
 40
216.217836
 10
32.538489
 20
804.066515
 30
0.0
 10
24.752225
 20
826.871881
 30
0.0
 10
9.166276
 20
872.521926
 30
0.0
 10
7.364099
 20
946.007215
 30
0.0
 10
19.710977
 20
992.600759
 30
0.0
 10
25.880894
 20
1015.884238
 30
0.0
 11
32.538489
 21
804.066515
 31
0.0
 11
12.769604
 21
873.317355
 31
0.0
 11
10.754477
 21
945.430625
 31
0.0
 11
25.880894
 21
1015.884238
 31
0.0
  0
SPLINE
  5
102
100
AcDbEntity
  8
0
 62
5
100
AcDbSpline
 70
0
 71
3
 72
10
 73
6
 74
4
 40
0.000000
 40
0.000000
 40
0.000000
 40
0.000000
 40
75.019188
 40
149.980723
 40
224.953785
 40
224.953785
 40
224.953785
 40
224.953785
 10
25.880894
 20
1015.884238
 30
0.0
 10
36.223654
 20
1038.788601
 30
0.0
 10
56.901225
 20
1084.579725
 30
0.0
 10
111.990770
 20
1138.979598
 30
0.0
 10
158.450266
 20
1158.224989
 30
0.0
 10
181.681799
 20
1167.848424
 30
0.0
 11
25.880894
 21
1015.884238
 31
0.0
 11
60.925164
 21
1082.215058
 31
0.0
 11
114.422974
 21
1134.724258
 31
0.0
 11
181.681799
 21
1167.848424
 31
0.0
  0
SPLINE
  5
103
100
AcDbEntity
  8
0
 62
5
100
AcDbSpline
 70
0
 71
3
 72
10
 73
6
 74
4
 40
0.000000
 40
0.000000
 40
0.000000
 40
0.000000
 40
85.993625
 40
172.031573
 40
258.109484
 40
258.109484
 40
258.109484
 40
258.109484
 10
181.681799
 20
1167.848424
 30
0.0
 10
210.043422
 20
1173.313205
 30
0.0
 10
266.781286
 20
1184.245585
 30
0.0
 10
353.714296
 20
1163.502096
 30
0.0
 10
400.215058
 20
1129.324967
 30
0.0
 10
423.470837
 20
1112.232435
 30
0.0
 11
181.681799
 21
1167.848424
 31
0.0
 11
267.067394
 21
1178.056446
 31
0.0
 11
350.834913
 21
1158.421497
 31
0.0
 11
423.470837
 21
1112.232435
 31
0.0
  0
LINE
  5
104
100
AcDbEntity
  8
0
 62
5
100
AcDbLine
 10
511.519326
 20
904.394283
 30
0.0
 11
487.658220
 21
879.548843
 31
0.0
  0
LINE
  5
105
100
AcDbEntity
  8
0
 62
5
100
AcDbLine
 10
487.658220
 20
879.548843
 30
0.0
 11
501.182259
 21
874.467327
 31
0.0
  0
LINE
  5
106
100
AcDbEntity
  8
0
 62
5
100
AcDbLine
 10
501.182259
 20
874.467327
 30
0.0
 11
454.587639
 21
825.950555
 31
0.0
  0
LINE
  5
107
100
AcDbEntity
  8
0
 62
5
100
AcDbLine
 10
454.587639
 20
825.950555
 30
0.0
 11
451.866545
 21
842.280667
 31
0.0
  0
LINE
  5
108
100
AcDbEntity
  8
0
 62
5
100
AcDbLine
 10
451.866545
 20
842.280667
 30
0.0
 11
416.074870
 21
805.012491
 31
0.0
  0
SPLINE
  5
109
100
AcDbEntity
  8
0
 62
5
100
AcDbSpline
 70
0
 71
3
 72
10
 73
6
 74
4
 40
0.000000
 40
0.000000
 40
0.000000
 40
0.000000
 40
77.482243
 40
154.900422
 40
232.372597
 40
232.372597
 40
232.372597
 40
232.372597
 10
423.470837
 20
1112.232435
 30
0.0
 10
441.212224
 20
1093.297880
 30
0.0
 10
476.680329
 20
1055.444426
 30
0.0
 10
507.949609
 20
982.163232
 30
0.0
 10
510.329144
 20
930.323290
 30
0.0
 10
511.519326
 20
904.394283
 30
0.0
 11
423.470837
 21
1112.232435
 31
0.0
 11
473.036001
 21
1052.677482
 31
0.0
 11
503.329729
 21
981.432380
 31
0.0
 11
511.519326
 21
904.394283
 31
0.0
  0
SPLINE
  5
10a
100
AcDbEntity
  8
0
 62
5
100
AcDbSpline
 70
0
 71
3
 72
10
 73
6
 74
4
 40
0.000000
 40
0.000000
 40
0.000000
 40
0.000000
 40
72.066508
 40
144.149802
 40
216.270515
 40
216.270515
 40
216.270515
 40
216.270515
 10
416.074870
 20
805.012491
 30
0.0
 10
428.189228
 20
825.993232
 30
0.0
 10
452.420765
 20
867.959600
 30
0.0
 10
457.951168
 20
943.027405
 30
0.0
 10
441.061268
 20
988.390679
 30
0.0
 10
432.614127
 20
1011.078201
 30
0.0
 11
416.074870
 21
805.012491
 31
0.0
 11
447.282794
 21
869.971302
 31
0.0
 11
452.808521
 21
941.842490
 31
0.0
 11
432.614127
 21
1011.078201
 31
0.0
  0
SPLINE
  5
10b
100
AcDbEntity
  8
0
 62
5
100
AcDbSpline
 70
0
 71
3
 72
10
 73
6
 74
4
 40
0.000000
 40
0.000000
 40
0.000000
 40
0.000000
 40
74.147303
 40
148.267367
 40
222.336484
 40
222.336484
 40
222.336484
 40
222.336484
 10
432.614127
 20
1011.078201
 30
0.0
 10
419.173231
 20
1032.035198
 30
0.0
 10
392.296376
 20
1073.941494
 30
0.0
 10
326.517975
 20
1115.104438
 30
0.0
 10
276.871089
 20
1119.679543
 30
0.0
 10
252.056181
 20
1121.966309
 30
0.0
 11
432.614127
 21
1011.078201
 31
0.0
 11
388.042841
 21
1070.333774
 31
0.0
 11
325.050650
 21
1109.394852
 31
0.0
 11
252.056181
 21
1121.966309
 31
0.0
  0
SPLINE
  5
10c
100
AcDbEntity
  8
0
 62
5
100
AcDbSpline
 70
0
 71
3
 72
10
 73
6
 74
4
 40
0.000000
 40
0.000000
 40
0.000000
 40
0.000000
 40
65.026386
 40
130.067230
 40
195.189088
 40
195.189088
 40
195.189088
 40
195.189088
 10
252.056181
 20
1121.966309
 30
0.0
 10
230.393901
 20
1119.110618
 30
0.0
 10
187.064525
 20
1113.398600
 30
0.0
 10
129.834224
 20
1077.484731
 30
0.0
 10
104.517860
 20
1041.961666
 30
0.0
 10
91.851799
 20
1024.189078
 30
0.0
 11
252.056181
 21
1121.966309
 31
0.0
 11
188.367325
 21
1108.845313
 31
0.0
 11
133.065959
 21
1074.609802
 31
0.0
 11
91.851799
 21
1024.189078
 31
0.0
  0
SPLINE
  5
10d
100
AcDbEntity
  8
0
 62
5
100
AcDbSpline
 70
0
 71
3
 72
10
 73
6
 74
4
 40
0.000000
 40
0.000000
 40
0.000000
 40
0.000000
 40
71.123318
 40
142.169695
 40
213.123918
 40
213.123918
 40
213.123918
 40
213.123918
 10
91.851799
 20
1024.189078
 30
0.0
 10
81.783994
 20
1002.598167
 30
0.0
 10
61.659277
 20
959.439702
 30
0.0
 10
58.226746
 20
885.580169
 30
0.0
 10
77.176416
 20
841.716965
 30
0.0
 10
86.645103
 20
819.799596
 30
0.0
 11
91.851799
 21
1024.189078
 31
0.0
 11
66.111953
 21
957.886841
 31
0.0
 11
63.541331
 21
886.886984
 31
0.0
 11
86.645103
 21
819.799596
 31
0.0
  0
SPLINE
  5
10e
100
AcDbEntity
  8
0
 62
5
100
AcDbSpline
 70
0
 71
3
 72
10
 73
6
 74
4
 40
0.000000
 40
0.000000
 40
0.000000
 40
0.000000
 40
15.512623
 40
31.025886
 40
46.542953
 40
46.542953
 40
46.542953
 40
46.542953
 10
86.645103
 20
819.799596
 30
0.0
 10
89.328314
 20
815.375925
 30
0.0
 10
94.694849
 20
806.528399
 30
0.0
 10
104.180469
 20
794.207196
 30
0.0
 10
111.175608
 20
786.585441
 30
0.0
 10
114.673606
 20
782.774096
 30
0.0
 11
86.645103
 21
819.799596
 31
0.0
 11
94.933891
 21
806.687105
 31
0.0
 11
104.347415
 21
794.356374
 31
0.0
 11
114.673606
 21
782.774096
 31
0.0
  0
LINE
  5
10f
100
AcDbEntity
  8
0
 62
5
100
AcDbLine
 10
166.463263
 20
739.318654
 30
0.0
 11
146.011966
 21
741.690494
 31
0.0
  0
LINE
  5
110
100
AcDbEntity
  8
0
 62
5
100
AcDbLine
 10
146.011966
 20
741.690494
 30
0.0
 11
177.350390
 21
700.606892
 31
0.0
  0
LINE
  5
111
100
AcDbEntity
  8
0
 62
5
100
AcDbLine
 10
177.350390
 20
700.606892
 30
0.0
 11
185.979435
 21
713.733588
 31
0.0
  0
LINE
  5
112
100
AcDbEntity
  8
0
 62
5
100
AcDbLine
 10
185.979435
 20
713.733588
 30
0.0
 11
218.832137
 21
670.664787
 31
0.0
  0
LINE
  5
113
100
AcDbEntity
  8
0
 62
5
100
AcDbLine
 10
218.832137
 20
670.664787
 30
0.0
 11
198.242641
 21
673.217814
 31
0.0
  0
SPLINE
  5
114
100
AcDbEntity
  8
0
 62
5
100
AcDbSpline
 70
0
 71
3
 72
10
 73
6
 74
4
 40
0.000000
 40
0.000000
 40
0.000000
 40
0.000000
 40
22.492710
 40
45.389217
 40
67.722957
 40
67.722957
 40
67.722957
 40
67.722957
 10
114.673606
 20
782.774096
 30
0.0
 10
120.257587
 20
777.756445
 30
0.0
 10
131.525795
 20
767.631064
 30
0.0
 10
150.897447
 20
755.724826
 30
0.0
 10
161.317876
 20
744.741827
 30
0.0
 10
166.463263
 20
739.318654
 30
0.0
 11
114.673606
 21
782.774096
 31
0.0
 11
131.846715
 21
768.248039
 31
0.0
 11
150.413326
 21
754.849123
 31
0.0
 11
166.463263
 21
739.318654
 31
0.0
  0
SPLINE
  5
115
100
AcDbEntity
  8
0
 62
7
100
AcDbSpline
 70
0
 71
3
 72
10
 73
6
 74
4
 40
0.000000
 40
0.000000
 40
0.000000
 40
0.000000
 40
5.723114
 40
11.452823
 40
17.189360
 40
17.189360
 40
17.189360
 40
17.189360
 10
93.166553
 20
719.556507
 30
0.0
 10
94.628721
 20
720.782273
 30
0.0
 10
97.554743
 20
723.235217
 30
0.0
 10
101.714664
 20
727.182276
 30
0.0
 10
104.332026
 20
729.968129
 30
0.0
 10
105.641487
 20
731.361885
 30
0.0
 11
93.166553
 21
719.556507
 31
0.0
 11
97.514508
 21
723.277973
 31
0.0
 11
101.673675
 21
727.218900
 31
0.0
 11
105.641487
 21
731.361885
 31
0.0
  0
SPLINE
  5
116
100
AcDbEntity
  8
0
 62
7
100
AcDbSpline
 70
0
 71
3
 72
10
 73
6
 74
4
 40
0.000000
 40
0.000000
 40
0.000000
 40
0.000000
 40
7.713052
 40
15.419481
 40
23.125675
 40
23.125675
 40
23.125675
 40
23.125675
 10
11.987895
 20
855.764147
 30
0.0
 10
13.377331
 20
853.601639
 30
0.0
 10
16.155010
 20
849.278481
 30
0.0
 10
20.894092
 20
843.155793
 30
0.0
 10
24.719156
 20
839.712202
 30
0.0
 10
26.631658
 20
837.990432
 30
0.0
 11
11.987895
 21
855.764147
 31
0.0
 11
16.251834
 21
849.336861
 31
0.0
 11
21.060794
 21
843.314989
 31
0.0
 11
26.631658
 21
837.990432
 31
0.0
  0
SPLINE
  5
117
100
AcDbEntity
  8
0
 62
7
100
AcDbSpline
 70
0
 71
3
 72
10
 73
6
 74
4
 40
0.000000
 40
0.000000
 40
0.000000
 40
0.000000
 40
3.561534
 40
7.134687
 40
10.709594
 40
10.709594
 40
10.709594
 40
10.709594
 10
26.631658
 20
837.990432
 30
0.0
 10
27.560120
 20
837.249853
 30
0.0
 10
29.420071
 20
835.766279
 30
0.0
 10
32.438516
 20
833.842204
 30
0.0
 10
34.577722
 20
832.790341
 30
0.0
 10
35.647588
 20
832.264281
 30
0.0
 11
26.631658
 21
837.990432
 31
0.0
 11
29.454650
 21
835.818971
 31
0.0
 11
32.469147
 21
833.900578
 31
0.0
 11
35.647588
 21
832.264281
 31
0.0
  0
SPLINE
  5
118
100
AcDbEntity
  8
0
 62
7
100
AcDbSpline
 70
0
 71
3
 72
10
 73
6
 74
4
 40
0.000000
 40
0.000000
 40
0.000000
 40
0.000000
 40
9.816575
 40
19.669999
 40
29.515302
 40
29.515302
 40
29.515302
 40
29.515302
 10
20.302424
 20
1012.777274
 30
0.0
 10
20.842687
 20
1009.549995
 30
0.0
 10
21.925241
 20
1003.083322
 30
0.0
 10
23.485338
 20
993.369133
 30
0.0
 10
24.632126
 20
986.903693
 30
0.0
 10
25.205284
 20
983.672305
 30
0.0
 11
20.302424
 21
1012.777274
 31
0.0
 11
21.912540
 21
1003.093644
 31
0.0
 11
23.512181
 21
993.370933
 31
0.0
 11
25.205284
 21
983.672305
 31
0.0
  0
SPLINE
  5
119
100
AcDbEntity
  8
0
 62
7
100
AcDbSpline
 70
0
 71
3
 72
10
 73
6
 74
4
 40
0.000000
 40
0.000000
 40
0.000000
 40
0.000000
 40
4.602764
 40
9.206823
 40
13.809641
 40
13.809641
 40
13.809641
 40
13.809641
 10
25.205284
 20
983.672305
 30
0.0
 10
25.539588
 20
982.174893
 30
0.0
 10
26.208290
 20
979.179646
 30
0.0
 10
27.140195
 20
974.671592
 30
0.0
 10
27.807324
 20
971.675981
 30
0.0
 10
28.140844
 20
970.178377
 30
0.0
 11
25.205284
 21
983.672305
 31
0.0
 11
26.196348
 21
979.177505
 31
0.0
 11
27.151739
 21
974.673664
 31
0.0
 11
28.140844
 21
970.178377
 31
0.0
  0
LINE
  5
11a
100
AcDbEntity
  8
0
 62
7
100
AcDbLine
 10
127.485638
 20
1147.925558
 30
0.0
 11
127.486677
 21
1147.937018
 31
0.0
  0
LINE
  5
11b
100
AcDbEntity
  8
0
 62
7
100
AcDbLine
 10
127.486677
 20
1147.937018
 30
0.0
 11
123.708623
 21
1123.704110
 31
0.0
  0
LINE
  5
11c
100
AcDbEntity
  8
0
 62
7
100
AcDbLine
 10
212.457537
 20
1178.065350
 30
0.0
 11
212.461156
 21
1178.074333
 31
0.0
  0
LINE
  5
11d
100
AcDbEntity
  8
0
 62
7
100
AcDbLine
 10
212.461156
 20
1178.074333
 30
0.0
 11
205.043974
 21
1159.511490
 31
0.0
  0
SPLINE
  5
11e
100
AcDbEntity
  8
0
 62
7
100
AcDbSpline
 70
0
 71
3
 72
10
 73
6
 74
4
 40
0.000000
 40
0.000000
 40
0.000000
 40
0.000000
 40
9.783993
 40
19.600470
 40
29.410022
 40
29.410022
 40
29.410022
 40
29.410022
 10
63.551387
 20
1091.547303
 30
0.0
 10
63.659572
 20
1088.287770
 30
0.0
 10
63.876301
 20
1081.757882
 30
0.0
 10
64.142531
 20
1071.957964
 30
0.0
 10
64.417330
 20
1065.421634
 30
0.0
 10
64.554681
 20
1062.154622
 30
0.0
 11
63.551387
 21
1091.547303
 31
0.0
 11
63.866149
 21
1081.768374
 31
0.0
 11
64.166895
 21
1071.956506
 31
0.0
 11
64.554681
 21
1062.154622
 31
0.0
  0
SPLINE
  5
11f
100
AcDbEntity
  8
0
 62
7
100
AcDbSpline
 70
0
 71
3
 72
10
 73
6
 74
4
 40
0.000000
 40
0.000000
 40
0.000000
 40
0.000000
 40
6.009764
 40
12.026868
 40
18.049377
 40
18.049377
 40
18.049377
 40
18.049377
 10
313.227879
 20
1173.999910
 30
0.0
 10
312.022744
 20
1172.399697
 30
0.0
 10
309.611002
 20
1169.197318
 30
0.0
 10
306.012395
 20
1164.375665
 30
0.0
 10
303.633895
 20
1161.143232
 30
0.0
 10
302.444110
 20
1159.526290
 30
0.0
 11
313.227879
 21
1173.999910
 31
0.0
 11
309.615939
 21
1169.196666
 31
0.0
 11
306.018945
 21
1164.373060
 31
0.0
 11
302.444110
 21
1159.526290
 31
0.0
  0
SPLINE
  5
120
100
AcDbEntity
  8
0
 62
7
100
AcDbSpline
 70
0
 71
3
 72
10
 73
6
 74
4
 40
0.000000
 40
0.000000
 40
0.000000
 40
0.000000
 40
5.699959
 40
11.408050
 40
17.122472
 40
17.122472
 40
17.122472
 40
17.122472
 10
413.173936
 20
1125.122369
 30
0.0
 10
411.660680
 20
1123.973455
 30
0.0
 10
408.632007
 20
1121.673987
 30
0.0
 10
404.101855
 20
1118.202156
 30
0.0
 10
401.094147
 20
1115.867454
 30
0.0
 10
399.589459
 20
1114.699456
 30
0.0
 11
413.173936
 21
1125.122369
 31
0.0
 11
408.636764
 21
1121.672211
 31
0.0
 11
404.107123
 21
1118.198790
 31
0.0
 11
399.589459
 21
1114.699456
 31
0.0
  0
SPLINE
  5
121
100
AcDbEntity
  8
0
 62
7
100
AcDbSpline
 70
0
 71
3
 72
10
 73
6
 74
4
 40
0.000000
 40
0.000000
 40
0.000000
 40
0.000000
 40
5.969116
 40
11.939561
 40
17.910624
 40
17.910624
 40
17.910624
 40
17.910624
 10
488.449586
 20
1032.766813
 30
0.0
 10
486.567236
 20
1032.122070
 30
0.0
 10
482.802116
 20
1030.832439
 30
0.0
 10
477.168012
 20
1028.857244
 30
0.0
 10
473.424168
 20
1027.505148
 30
0.0
 10
471.552149
 20
1026.829065
 30
0.0
 11
488.449586
 21
1032.766813
 31
0.0
 11
482.804864
 21
1030.825816
 31
0.0
 11
477.171348
 21
1028.848518
 31
0.0
 11
471.552149
 21
1026.829065
 31
0.0
  0
SPLINE
  5
122
100
AcDbEntity
  8
0
 62
7
100
AcDbSpline
 70
0
 71
3
 72
10
 73
6
 74
4
 40
0.000000
 40
0.000000
 40
0.000000
 40
0.000000
 40
5.656562
 40
11.317578
 40
16.981597
 40
16.981597
 40
16.981597
 40
16.981597
 10
513.850561
 20
912.661577
 30
0.0
 10
511.970375
 20
912.803543
 30
0.0
 10
508.208524
 20
913.087587
 30
0.0
 10
502.557299
 20
913.419088
 30
0.0
 10
498.785275
 20
913.570580
 30
0.0
 10
496.898763
 20
913.646346
 30
0.0
 11
513.850561
 21
912.661577
 31
0.0
 11
508.208887
 21
913.071710
 31
0.0
 11
502.557494
 21
913.401642
 31
0.0
 11
496.898763
 21
913.646346
 31
0.0
  0
SPLINE
  5
123
100
AcDbEntity
  8
0
 62
5
100
AcDbSpline
 70
0
 71
3
 72
10
 73
6
 74
4
 40
0.000000
 40
0.000000
 40
0.000000
 40
0.000000
 40
72.875315
 40
145.673175
 40
218.470922
 40
218.470922
 40
218.470922
 40
218.470922
 10
379.666255
 20
1203.901195
 30
0.0
 10
403.476933
 20
1198.526458
 30
0.0
 10
451.072980
 20
1187.782697
 30
0.0
 10
513.592161
 20
1145.869937
 30
0.0
 10
540.477548
 20
1105.073536
 30
0.0
 10
553.920230
 20
1084.675352
 30
0.0
 11
379.666255
 21
1203.901195
 31
0.0
 11
449.619420
 21
1183.471648
 31
0.0
 11
509.897368
 21
1142.653791
 31
0.0
 11
553.920230
 21
1084.675352
 31
0.0
  0
SPLINE
  5
124
100
AcDbEntity
  8
0
 62
5
100
AcDbSpline
 70
0
 71
3
 72
10
 73
6
 74
4
 40
0.000000
 40
0.000000
 40
0.000000
 40
0.000000
 40
72.017274
 40
144.158694
 40
216.217837
 40
216.217837
 40
216.217837
 40
216.217837
 10
553.920230
 20
1084.675352
 30
0.0
 10
563.245881
 20
1062.455026
 30
0.0
 10
581.913260
 20
1017.976071
 30
0.0
 10
588.730153
 20
944.785460
 30
0.0
 10
579.594367
 20
897.457443
 30
0.0
 10
575.029081
 20
873.806937
 30
0.0
 11
553.920230
 21
1084.675352
 31
0.0
 11
578.372672
 21
1016.936398
 31
0.0
 11
585.308311
 21
945.129146
 31
0.0
 11
575.029081
 21
873.806937
 31
0.0
  0
SPLINE
  5
125
100
AcDbEntity
  8
0
 62
5
100
AcDbSpline
 70
0
 71
3
 72
10
 73
6
 74
4
 40
0.000000
 40
0.000000
 40
0.000000
 40
0.000000
 40
75.019189
 40
149.980725
 40
224.953787
 40
224.953787
 40
224.953787
 40
224.953787
 10
575.029081
 20
873.806937
 30
0.0
 10
566.274802
 20
850.249663
 30
0.0
 10
548.772971
 20
803.153220
 30
0.0
 10
497.527485
 20
745.117849
 30
0.0
 10
452.490903
 20
722.744289
 30
0.0
 10
429.970881
 20
711.556650
 30
0.0
 11
575.029081
 21
873.806937
 31
0.0
 11
544.596926
 21
805.237537
 31
0.0
 11
494.810328
 21
749.197137
 31
0.0
 11
429.970881
 21
711.556650
 31
0.0
  0
SPLINE
  5
126
100
AcDbEntity
  8
0
 62
5
100
AcDbSpline
 70
0
 71
3
 72
10
 73
6
 74
4
 40
0.000000
 40
0.000000
 40
0.000000
 40
0.000000
 40
85.993625
 40
172.031574
 40
258.109486
 40
258.109486
 40
258.109486
 40
258.109486
 10
429.970881
 20
711.556650
 30
0.0
 10
402.048720
 20
704.167577
 30
0.0
 10
346.190006
 20
689.385623
 30
0.0
 10
258.043242
 20
704.143293
 30
0.0
 10
209.316821
 20
735.064692
 30
0.0
 10
184.947953
 20
750.528981
 30
0.0
 11
429.970881
 21
711.556650
 31
0.0
 11
345.481857
 21
695.540769
 31
0.0
 11
260.568905
 21
709.408687
 31
0.0
 11
184.947953
 21
750.528981
 31
0.0
  0
LINE
  5
127
100
AcDbEntity
  8
0
 62
5
100
AcDbLine
 10
82.910059
 20
951.868253
 30
0.0
 11
105.018546
 21
978.285352
 31
0.0
  0
LINE
  5
128
100
AcDbEntity
  8
0
 62
5
100
AcDbLine
 10
105.018546
 20
978.285352
 30
0.0
 11
91.179027
 21
982.431333
 31
0.0
  0
LINE
  5
129
100
AcDbEntity
  8
0
 62
5
100
AcDbLine
 10
91.179027
 20
982.431333
 30
0.0
 11
134.351231
 21
1034.017152
 31
0.0
  0
LINE
  5
12a
100
AcDbEntity
  8
0
 62
5
100
AcDbLine
 10
134.351231
 20
1034.017152
 30
0.0
 11
138.181290
 21
1017.911017
 31
0.0
  0
LINE
  5
12b
100
AcDbEntity
  8
0
 62
5
100
AcDbLine
 10
138.181290
 20
1017.911017
 30
0.0
 11
171.344035
 21
1057.536683
 31
0.0
  0
SPLINE
  5
12c
100
AcDbEntity
  8
0
 62
5
100
AcDbSpline
 70
0
 71
3
 72
10
 73
6
 74
4
 40
0.000000
 40
0.000000
 40
0.000000
 40
0.000000
 40
77.482243
 40
154.900423
 40
232.372598
 40
232.372598
 40
232.372598
 40
232.372598
 10
184.947953
 20
750.528981
 30
0.0
 10
165.954795
 20
768.207615
 30
0.0
 10
127.984181
 20
803.550266
 30
0.0
 10
91.782931
 20
874.524705
 30
0.0
 10
85.868370
 20
926.081080
 30
0.0
 10
82.910059
 20
951.868253
 30
0.0
 11
184.947953
 21
750.528981
 31
0.0
 11
131.431021
 21
806.559651
 31
0.0
 11
96.342108
 21
875.569380
 31
0.0
 11
82.910059
 21
951.868253
 31
0.0
  0
SPLINE
  5
12d
100
AcDbEntity
  8
0
 62
5
100
AcDbSpline
 70
0
 71
3
 72
10
 73
6
 74
4
 40
0.000000
 40
0.000000
 40
0.000000
 40
0.000000
 40
72.066509
 40
144.149803
 40
216.270517
 40
216.270517
 40
216.270517
 40
216.270517
 10
171.344035
 20
1057.536683
 30
0.0
 10
160.690915
 20
1035.777543
 30
0.0
 10
139.382193
 20
992.254194
 30
0.0
 10
138.991711
 20
916.983958
 30
0.0
 10
158.940409
 20
872.880163
 30
0.0
 10
168.917346
 20
850.822543
 30
0.0
 11
171.344035
 21
1057.536683
 31
0.0
 11
144.645563
 21
990.598105
 31
0.0
 11
144.041423
 21
918.517341
 31
0.0
 11
168.917346
 21
850.822543
 31
0.0
  0
SPLINE
  5
12e
100
AcDbEntity
  8
0
 62
5
100
AcDbSpline
 70
0
 71
3
 72
10
 73
6
 74
4
 40
0.000000
 40
0.000000
 40
0.000000
 40
0.000000
 40
74.147304
 40
148.267368
 40
222.336485
 40
222.336485
 40
222.336485
 40
222.336485
 10
168.917346
 20
850.822543
 30
0.0
 10
183.758186
 20
830.832472
 30
0.0
 10
213.434412
 20
790.859674
 30
0.0
 10
281.870579
 20
754.285404
 30
0.0
 10
331.714008
 20
753.111783
 30
0.0
 10
356.627155
 20
752.525174
 30
0.0
 11
168.917346
 21
850.822543
 31
0.0
 11
217.431614
 21
794.749480
 31
0.0
 11
282.944522
 21
760.081874
 31
0.0
 11
356.627155
 21
752.525174
 31
0.0
  0
SPLINE
  5
12f
100
AcDbEntity
  8
0
 62
5
100
AcDbSpline
 70
0
 71
3
 72
10
 73
6
 74
4
 40
0.000000
 40
0.000000
 40
0.000000
 40
0.000000
 40
65.026386
 40
130.067231
 40
195.189089
 40
195.189089
 40
195.189089
 40
195.189089
 10
356.627155
 20
752.525174
 30
0.0
 10
378.043813
 20
756.853695
 30
0.0
 10
420.881892
 20
765.511699
 30
0.0
 10
475.525699
 20
805.250443
 30
0.0
 10
498.356782
 20
842.419626
 30
0.0
 10
509.779428
 20
861.015785
 30
0.0
 11
356.627155
 21
752.525174
 31
0.0
 11
419.271151
 21
769.965375
 31
0.0
 11
472.105157
 21
807.897937
 31
0.0
 11
509.779428
 21
861.015785
 31
0.0
  0
SPLINE
  5
130
100
AcDbEntity
  8
0
 62
5
100
AcDbSpline
 70
0
 71
3
 72
10
 73
6
 74
4
 40
0.000000
 40
0.000000
 40
0.000000
 40
0.000000
 40
71.123318
 40
142.169696
 40
213.123920
 40
213.123920
 40
213.123920
 40
213.123920
 10
509.779428
 20
861.015785
 30
0.0
 10
518.349100
 20
883.243894
 30
0.0
 10
535.479173
 20
927.676067
 30
0.0
 10
533.859205
 20
1001.597571
 30
0.0
 10
511.957999
 20
1044.064120
 30
0.0
 10
501.014502
 20
1065.283615
 30
0.0
 11
509.779428
 21
861.015785
 31
0.0
 11
530.930836
 21
928.921192
 31
0.0
 11
528.646283
 21
999.930830
 31
0.0
 11
501.014502
 21
1065.283615
 31
0.0
  0
SPLINE
  5
131
100
AcDbEntity
  8
0
 62
5
100
AcDbSpline
 70
0
 71
3
 72
10
 73
6
 74
4
 40
0.000000
 40
0.000000
 40
0.000000
 40
0.000000
 40
15.512623
 40
31.025886
 40
46.542954
 40
46.542954
 40
46.542954
 40
46.542954
 10
501.014502
 20
1065.283615
 30
0.0
 10
498.035426
 20
1069.513699
 30
0.0
 10
492.077151
 20
1077.974040
 30
0.0
 10
481.772162
 20
1089.618620
 30
0.0
 10
474.272805
 20
1096.744821
 30
0.0
 10
470.522666
 20
1100.308358
 30
0.0
 11
501.014502
 21
1065.283615
 31
0.0
 11
491.849507
 21
1077.799378
 31
0.0
 11
481.615796
 21
1089.458388
 31
0.0
 11
470.522666
 21
1100.308358
 31
0.0
  0
LINE
  5
132
100
AcDbEntity
  8
0
 62
5
100
AcDbLine
 10
415.886005
 20
1140.125182
 30
0.0
 11
436.451540
 21
1139.155670
 31
0.0
  0
LINE
  5
133
100
AcDbEntity
  8
0
 62
5
100
AcDbLine
 10
436.451540
 20
1139.155670
 30
0.0
 11
402.380351
 21
1178.002977
 31
0.0
  0
LINE
  5
134
100
AcDbEntity
  8
0
 62
5
100
AcDbLine
 10
402.380351
 20
1178.002977
 30
0.0
 11
394.667987
 21
1164.317583
 31
0.0
  0
LINE
  5
135
100
AcDbEntity
  8
0
 62
5
100
AcDbLine
 10
394.667987
 20
1164.317583
 30
0.0
 11
358.950470
 21
1205.042031
 31
0.0
  0
LINE
  5
136
100
AcDbEntity
  8
0
 62
5
100
AcDbLine
 10
358.950470
 20
1205.042031
 30
0.0
 11
379.666255
 21
1203.901195
 31
0.0
  0
SPLINE
  5
137
100
AcDbEntity
  8
0
 62
5
100
AcDbSpline
 70
0
 71
3
 72
10
 73
6
 74
4
 40
0.000000
 40
0.000000
 40
0.000000
 40
0.000000
 40
22.492710
 40
45.389217
 40
67.722957
 40
67.722957
 40
67.722957
 40
67.722957
 10
470.522666
 20
1100.308358
 30
0.0
 10
464.609027
 20
1104.932917
 30
0.0
 10
452.675584
 20
1114.265055
 30
0.0
 10
432.535989
 20
1124.820438
 30
0.0
 10
421.389772
 20
1135.066094
 30
0.0
 10
415.886005
 20
1140.125182
 30
0.0
 11
470.522666
 21
1100.308358
 31
0.0
 11
452.397551
 21
1113.627601
 31
0.0
 11
432.959170
 21
1125.727162
 31
0.0
 11
415.886005
 21
1140.125182
 31
0.0
  0
SPLINE
  5
138
100
AcDbEntity
  8
0
 62
7
100
AcDbSpline
 70
0
 71
3
 72
10
 73
6
 74
4
 40
0.000000
 40
0.000000
 40
0.000000
 40
0.000000
 40
5.723114
 40
11.452823
 40
17.189360
 40
17.189360
 40
17.189360
 40
17.189360
 10
487.661842
 20
1164.847228
 30
0.0
 10
486.286806
 20
1163.524460
 30
0.0
 10
483.535149
 20
1160.877401
 30
0.0
 10
479.654519
 20
1156.655443
 30
0.0
 10
477.233537
 20
1153.697334
 30
0.0
 10
476.022325
 20
1152.217398
 30
0.0
 11
487.661842
 21
1164.847228
 31
0.0
 11
483.578209
 21
1160.837493
 31
0.0
 11
479.697913
 21
1156.621705
 31
0.0
 11
476.022325
 21
1152.217398
 31
0.0
  0
SPLINE
  5
139
100
AcDbEntity
  8
0
 62
7
100
AcDbSpline
 70
0
 71
3
 72
10
 73
6
 74
4
 40
0.000000
 40
0.000000
 40
0.000000
 40
0.000000
 40
7.713052
 40
15.419481
 40
23.125675
 40
23.125675
 40
23.125675
 40
23.125675
 10
577.953701
 20
1034.502008
 30
0.0
 10
576.419813
 20
1036.564570
 30
0.0
 10
573.353356
 20
1040.687922
 30
0.0
 10
568.207171
 20
1046.472642
 30
0.0
 10
564.155847
 20
1049.646947
 30
0.0
 10
562.130216
 20
1051.234075
 30
0.0
 11
577.953701
 21
1034.502008
 31
0.0
 11
573.260745
 21
1040.623066
 31
0.0
 11
568.051730
 21
1046.302432
 31
0.0
 11
562.130216
 21
1051.234075
 31
0.0
  0
SPLINE
  5
13a
100
AcDbEntity
  8
0
 62
7
100
AcDbSpline
 70
0
 71
3
 72
10
 73
6
 74
4
 40
0.000000
 40
0.000000
 40
0.000000
 40
0.000000
 40
3.561534
 40
7.134687
 40
10.709594
 40
10.709594
 40
10.709594
 40
10.709594
 10
562.130216
 20
1051.234075
 30
0.0
 10
561.153342
 20
1051.909513
 30
0.0
 10
559.196408
 20
1053.262591
 30
0.0
 10
556.053601
 20
1054.976019
 30
0.0
 10
553.847549
 20
1055.879321
 30
0.0
 10
552.744252
 20
1056.331082
 30
0.0
 11
562.130216
 21
1051.234075
 31
0.0
 11
559.165509
 21
1053.207660
 31
0.0
 11
556.027028
 21
1054.915689
 31
0.0
 11
552.744252
 21
1056.331082
 31
0.0
  0
SPLINE
  5
13b
100
AcDbEntity
  8
0
 62
7
100
AcDbSpline
 70
0
 71
3
 72
10
 73
6
 74
4
 40
0.000000
 40
0.000000
 40
0.000000
 40
0.000000
 40
9.816576
 40
19.670000
 40
29.515302
 40
29.515302
 40
29.515302
 40
29.515302
 10
580.382324
 20
877.287646
 30
0.0
 10
579.622905
 20
880.470491
 30
0.0
 10
578.101216
 20
886.848127
 30
0.0
 10
575.881299
 20
896.433081
 30
0.0
 10
574.295609
 20
902.805100
 30
0.0
 10
573.503091
 20
905.989796
 30
0.0
 11
580.382324
 21
877.287646
 31
0.0
 11
578.114592
 21
886.838696
 31
0.0
 11
575.854641
 21
896.429451
 31
0.0
 11
573.503091
 21
905.989796
 31
0.0
  0
SPLINE
  5
13c
100
AcDbEntity
  8
0
 62
7
100
AcDbSpline
 70
0
 71
3
 72
10
 73
6
 74
4
 40
0.000000
 40
0.000000
 40
0.000000
 40
0.000000
 40
4.602764
 40
9.206823
 40
13.809641
 40
13.809641
 40
13.809641
 40
13.809641
 10
573.503091
 20
905.989796
 30
0.0
 10
573.067297
 20
907.460880
 30
0.0
 10
572.195586
 20
910.403461
 30
0.0
 10
570.957965
 20
914.837341
 30
0.0
 10
570.087797
 20
917.780393
 30
0.0
 10
569.652772
 20
919.251721
 30
0.0
 11
573.503091
 21
905.989796
 31
0.0
 11
572.207354
 21
910.406413
 31
0.0
 11
570.946589
 21
914.834485
 31
0.0
 11
569.652772
 21
919.251721
 31
0.0
  0
LINE
  5
13d
100
AcDbEntity
  8
0
 62
7
100
AcDbLine
 10
482.679793
 20
735.134504
 30
0.0
 11
482.679539
 21
735.122999
 31
0.0
  0
LINE
  5
13e
100
AcDbEntity
  8
0
 62
7
100
AcDbLine
 10
482.679539
 20
735.122999
 30
0.0
 11
484.793704
 21
759.557357
 31
0.0
  0
LINE
  5
13f
100
AcDbEntity
  8
0
 62
7
100
AcDbLine
 10
399.964806
 20
699.261649
 30
0.0
 11
399.961809
 21
699.252440
 31
0.0
  0
LINE
  5
140
100
AcDbEntity
  8
0
 62
7
100
AcDbLine
 10
399.961809
 20
699.252440
 30
0.0
 11
406.093860
 21
718.278519
 31
0.0
  0
SPLINE
  5
141
100
AcDbEntity
  8
0
 62
7
100
AcDbSpline
 70
0
 71
3
 72
10
 73
6
 74
4
 40
0.000000
 40
0.000000
 40
0.000000
 40
0.000000
 40
9.783993
 40
19.600470
 40
29.410022
 40
29.410022
 40
29.410022
 40
29.410022
 10
542.614212
 20
795.747716
 30
0.0
 10
542.283660
 20
798.992249
 30
0.0
 10
541.621456
 20
805.492088
 30
0.0
 10
540.686530
 20
815.250939
 30
0.0
 10
539.965951
 20
821.753238
 30
0.0
 10
539.605789
 20
825.003241
 30
0.0
 11
542.614212
 21
795.747716
 31
0.0
 11
541.632300
 21
805.482313
 31
0.0
 11
540.662123
 21
815.250730
 31
0.0
 11
539.605789
 21
825.003241
 31
0.0
  0
SPLINE
  5
142
100
AcDbEntity
  8
0
 62
7
100
AcDbSpline
 70
0
 71
3
 72
10
 73
6
 74
4
 40
0.000000
 40
0.000000
 40
0.000000
 40
0.000000
 40
6.009764
 40
12.026868
 40
18.049377
 40
18.049377
 40
18.049377
 40
18.049377
 10
299.152105
 20
696.435148
 30
0.0
 10
300.245134
 20
698.113933
 30
0.0
 10
302.432527
 20
701.473552
 30
0.0
 10
305.693420
 20
706.529726
 30
0.0
 10
307.845597
 20
709.917058
 30
0.0
 10
308.922168
 20
711.611485
 30
0.0
 11
299.152105
 21
696.435148
 31
0.0
 11
302.427557
 21
701.473866
 31
0.0
 11
305.686708
 21
706.531877
 31
0.0
 11
308.922168
 21
711.611485
 31
0.0
  0
SPLINE
  5
143
100
AcDbEntity
  8
0
 62
7
100
AcDbSpline
 70
0
 71
3
 72
10
 73
6
 74
4
 40
0.000000
 40
0.000000
 40
0.000000
 40
0.000000
 40
5.699959
 40
11.408050
 40
17.122472
 40
17.122472
 40
17.122472
 40
17.122472
 10
196.101171
 20
738.372406
 30
0.0
 10
197.532426
 20
739.621991
 30
0.0
 10
200.396976
 20
742.122943
 30
0.0
 10
204.679430
 20
745.896069
 30
0.0
 10
207.520659
 20
748.430741
 30
0.0
 10
208.942061
 20
749.698779
 30
0.0
 11
196.101171
 21
738.372406
 31
0.0
 11
200.392109
 21
742.124390
 31
0.0
 11
204.673944
 21
745.899068
 31
0.0
 11
208.942061
 21
749.698779
 31
0.0
  0
SPLINE
  5
144
100
AcDbEntity
  8
0
 62
7
100
AcDbSpline
 70
0
 71
3
 72
10
 73
6
 74
4
 40
0.000000
 40
0.000000
 40
0.000000
 40
0.000000
 40
5.969117
 40
11.939562
 40
17.910624
 40
17.910624
 40
17.910624
 40
17.910624
 10
114.693562
 20
825.371105
 30
0.0
 10
116.527482
 20
826.142904
 30
0.0
 10
120.195730
 20
827.686675
 30
0.0
 10
125.681776
 20
830.042058
 30
0.0
 10
129.324532
 20
831.646695
 30
0.0
 10
131.146004
 20
832.449055
 30
0.0
 11
114.693562
 21
825.371105
 31
0.0
 11
120.192536
 21
827.693095
 31
0.0
 11
125.677852
 21
830.050535
 31
0.0
 11
131.146004
 21
832.449055
 31
0.0
  0
SPLINE
  5
145
100
AcDbEntity
  8
0
 62
7
100
AcDbSpline
 70
0
 71
3
 72
10
 73
6
 74
4
 40
0.000000
 40
0.000000
 40
0.000000
 40
0.000000
 40
5.656562
 40
11.317578
 40
16.981597
 40
16.981597
 40
16.981597
 40
16.981597
 10
81.148910
 20
943.461044
 30
0.0
 10
83.034402
 20
943.447824
 30
0.0
 10
86.806869
 20
943.421371
 30
0.0
 10
92.467539
 20
943.476613
 30
0.0
 10
96.241101
 20
943.583098
 30
0.0
 10
98.128383
 20
943.636355
 30
0.0
 11
81.148910
 21
943.461044
 31
0.0
 11
86.805422
 21
943.437187
 31
0.0
 11
92.466153
 21
943.494005
 31
0.0
 11
98.128383
 21
943.636355
 31
0.0
  0
SPLINE
  5
146
100
AcDbEntity
  8
0
 62
5
100
AcDbSpline
 70
0
 71
3
 72
10
 73
6
 74
4
 40
0.000000
 40
0.000000
 40
0.000000
 40
0.000000
 40
86.869794
 40
173.674669
 40
260.446288
 40
260.446288
 40
260.446288
 40
260.446288
 10
244.972634
 20
453.525787
 30
0.0
 10
240.000464
 20
424.784346
 30
0.0
 10
230.059840
 20
367.322944
 30
0.0
 10
254.292723
 20
279.715881
 30
0.0
 10
293.561432
 20
236.489133
 30
0.0
 10
313.192025
 20
214.879900
 30
0.0
 11
244.972634
 21
453.525787
 31
0.0
 11
236.585992
 21
367.061775
 31
0.0
 11
260.077660
 21
283.496065
 31
0.0
 11
313.192025
 21
214.879900
 31
0.0
  0
SPLINE
  5
147
100
AcDbEntity
  8
0
 62
5
100
AcDbSpline
 70
0
 71
3
 72
10
 73
6
 74
4
 40
0.000000
 40
0.000000
 40
0.000000
 40
0.000000
 40
75.284743
 40
150.524485
 40
225.848724
 40
225.848724
 40
225.848724
 40
225.848724
 10
313.192025
 20
214.879900
 30
0.0
 10
333.962072
 20
200.452524
 30
0.0
 10
375.489751
 20
171.606395
 30
0.0
 10
452.663118
 20
157.945027
 30
0.0
 10
501.717907
 20
170.031784
 30
0.0
 10
526.259067
 20
176.078554
 30
0.0
 11
313.192025
 21
214.879900
 31
0.0
 11
377.980424
 21
176.535985
 31
0.0
 11
452.036543
 21
163.242749
 31
0.0
 11
526.259067
 21
176.078554
 31
0.0
  0
SPLINE
  5
148
100
AcDbEntity
  8
0
 62
5
100
AcDbSpline
 70
0
 71
3
 72
10
 73
6
 74
4
 40
0.000000
 40
0.000000
 40
0.000000
 40
0.000000
 40
84.028247
 40
168.107058
 40
251.880613
 40
251.880613
 40
251.880613
 40
251.880613
 10
526.259067
 20
176.078554
 30
0.0
 10
551.696801
 20
188.051784
 30
0.0
 10
602.587577
 20
212.005449
 30
0.0
 10
662.989396
 20
274.859146
 30
0.0
 10
680.532175
 20
328.552894
 30
0.0
 10
689.287613
 20
355.350945
 30
0.0
 11
526.259067
 21
176.078554
 31
0.0
 11
599.929326
 21
216.494382
 31
0.0
 11
657.364734
 21
277.898131
 31
0.0
 11
689.287613
 21
355.350945
 31
0.0
  0
SPLINE
  5
149
100
AcDbEntity
  8
0
 62
5
100
AcDbSpline
 70
0
 71
3
 72
10
 73
6
 74
4
 40
0.000000
 40
0.000000
 40
0.000000
 40
0.000000
 40
80.348517
 40
160.739941
 40
241.225420
 40
241.225420
 40
241.225420
 40
241.225420
 10
689.287613
 20
355.350945
 30
0.0
 10
690.982597
 20
382.337034
 30
0.0
 10
694.373468
 20
436.323623
 30
0.0
 10
661.452552
 20
513.622287
 30
0.0
 10
621.834842
 20
550.261544
 30
0.0
 10
602.014406
 20
568.591884
 30
0.0
 11
689.287613
 21
355.350945
 31
0.0
 11
688.044033
 21
435.689838
 31
0.0
 11
657.054987
 21
509.868407
 31
0.0
 11
602.014406
 21
568.591884
 31
0.0
  0
LINE
  5
14a
100
AcDbEntity
  8
0
 62
5
100
AcDbLine
 10
559.715073
 20
593.927569
 30
0.0
 11
526.267068
 21
608.293409
 31
0.0
  0
LINE
  5
14b
100
AcDbEntity
  8
0
 62
5
100
AcDbLine
 10
526.267068
 20
608.293409
 30
0.0
 11
518.468235
 21
619.485233
 31
0.0
  0
LINE
  5
14c
100
AcDbEntity
  8
0
 62
5
100
AcDbLine
 10
518.468235
 20
619.485233
 30
0.0
 11
540.020752
 21
622.190314
 31
0.0
  0
LINE
  5
14d
100
AcDbEntity
  8
0
 62
5
100
AcDbLine
 10
540.020752
 20
622.190314
 30
0.0
 11
520.326466
 21
650.453030
 31
0.0
  0
LINE
  5
14e
100
AcDbEntity
  8
0
 62
5
100
AcDbLine
 10
520.326466
 20
650.453030
 30
0.0
 11
500.632176
 21
678.715742
 31
0.0
  0
LINE
  5
14f
100
AcDbEntity
  8
0
 62
5
100
AcDbLine
 10
500.632176
 20
678.715742
 30
0.0
 11
489.530590
 21
661.012828
 31
0.0
  0
LINE
  5
150
100
AcDbEntity
  8
0
 62
5
100
AcDbLine
 10
489.530590
 20
661.012828
 30
0.0
 11
457.862720
 21
706.458462
 31
0.0
  0
LINE
  5
151
100
AcDbEntity
  8
0
 62
5
100
AcDbLine
 10
457.862720
 20
706.458462
 30
0.0
 11
480.937856
 21
706.978487
 31
0.0
  0
SPLINE
  5
152
100
AcDbEntity
  8
0
 62
5
100
AcDbSpline
 70
0
 71
3
 72
10
 73
6
 74
4
 40
0.000000
 40
0.000000
 40
0.000000
 40
0.000000
 40
16.461719
 40
32.913965
 40
49.377197
 40
49.377197
 40
49.377197
 40
49.377197
 10
602.014406
 20
568.591884
 30
0.0
 10
597.542621
 20
571.774211
 30
0.0
 10
588.601623
 20
578.137034
 30
0.0
 10
574.458453
 20
586.601515
 30
0.0
 10
564.630626
 20
591.485008
 30
0.0
 10
559.715073
 20
593.927569
 30
0.0
 11
602.014406
 21
568.591884
 31
0.0
 11
588.477332
 21
577.958624
 31
0.0
 11
574.361715
 21
586.409998
 31
0.0
 11
559.715073
 21
593.927569
 31
0.0
  0
SPLINE
  5
153
100
AcDbEntity
  8
0
 62
5
100
AcDbSpline
 70
0
 71
3
 72
10
 73
6
 74
4
 40
0.000000
 40
0.000000
 40
0.000000
 40
0.000000
 40
111.687682
 40
223.329048
 40
334.872145
 40
334.872145
 40
334.872145
 40
334.872145
 10
480.937856
 20
706.978487
 30
0.0
 10
517.928099
 20
701.179817
 30
0.0
 10
591.893247
 20
689.584882
 30
0.0
 10
690.562311
 20
628.599173
 30
0.0
 10
732.117358
 20
566.181159
 30
0.0
 10
752.885733
 20
534.985894
 30
0.0
 11
480.937856
 21
706.978487
 31
0.0
 11
589.867260
 21
682.310226
 31
0.0
 11
684.534541
 21
623.133367
 31
0.0
 11
752.885733
 21
534.985894
 31
0.0
  0
SPLINE
  5
154
100
AcDbEntity
  8
0
 62
5
100
AcDbSpline
 70
0
 71
3
 72
10
 73
6
 74
4
 40
0.000000
 40
0.000000
 40
0.000000
 40
0.000000
 40
81.218713
 40
162.393161
 40
243.674764
 40
243.674764
 40
243.674764
 40
243.674764
 10
752.885733
 20
534.985894
 30
0.0
 10
763.352891
 20
509.864698
 30
0.0
 10
784.281501
 20
459.635997
 30
0.0
 10
787.753643
 20
376.317023
 30
0.0
 10
772.345062
 20
324.186178
 30
0.0
 10
764.635690
 20
298.103563
 30
0.0
 11
752.885733
 21
534.985894
 31
0.0
 11
779.631004
 21
458.297109
 31
0.0
 11
783.327102
 21
377.206851
 31
0.0
 11
764.635690
 21
298.103563
 31
0.0
  0
SPLINE
  5
155
100
AcDbEntity
  8
0
 62
5
100
AcDbSpline
 70
0
 71
3
 72
10
 73
6
 74
4
 40
0.000000
 40
0.000000
 40
0.000000
 40
0.000000
 40
109.724374
 40
219.367356
 40
328.828309
 40
328.828309
 40
328.828309
 40
328.828309
 10
764.635690
 20
298.103563
 30
0.0
 10
748.807106
 20
264.994932
 30
0.0
 10
717.161679
 20
198.802229
 30
0.0
 10
637.054150
 20
118.854735
 30
0.0
 10
568.501774
 20
92.039702
 30
0.0
 10
534.254062
 20
78.643325
 30
0.0
 11
764.635690
 21
298.103563
 31
0.0
 11
711.696952
 21
201.994624
 31
0.0
 11
633.209659
 21
125.435311
 31
0.0
 11
534.254062
 21
78.643325
 31
0.0
  0
SPLINE
  5
156
100
AcDbEntity
  8
0
 62
5
100
AcDbSpline
 70
0
 71
3
 72
10
 73
6
 74
4
 40
0.000000
 40
0.000000
 40
0.000000
 40
0.000000
 40
103.101624
 40
206.209587
 40
309.353378
 40
309.353378
 40
309.353378
 40
309.353378
 10
534.254062
 20
78.643325
 30
0.0
 10
500.106228
 20
72.999663
 30
0.0
 10
431.808459
 20
61.711994
 30
0.0
 10
328.114679
 20
88.481465
 30
0.0
 10
273.378954
 20
130.798071
 30
0.0
 10
246.006337
 20
151.960049
 30
0.0
 11
534.254062
 21
78.643325
 31
0.0
 11
431.604896
 21
68.994827
 31
0.0
 11
331.725159
 21
94.593463
 31
0.0
 11
246.006337
 21
151.960049
 31
0.0
  0
LINE
  5
157
100
AcDbEntity
  8
0
 62
5
100
AcDbLine
 10
145.387854
 20
358.292749
 30
0.0
 11
170.284057
 21
382.101016
 31
0.0
  0
LINE
  5
158
100
AcDbEntity
  8
0
 62
5
100
AcDbLine
 10
170.284057
 20
382.101016
 30
0.0
 11
153.594954
 21
389.115273
 31
0.0
  0
LINE
  5
159
100
AcDbEntity
  8
0
 62
5
100
AcDbLine
 10
153.594954
 20
389.115273
 30
0.0
 11
214.728915
 21
447.577750
 31
0.0
  0
LINE
  5
15a
100
AcDbEntity
  8
0
 62
5
100
AcDbLine
 10
214.728915
 20
447.577750
 30
0.0
 11
220.076431
 21
429.717520
 31
0.0
  0
LINE
  5
15b
100
AcDbEntity
  8
0
 62
5
100
AcDbLine
 10
220.076431
 20
429.717520
 30
0.0
 11
244.972634
 21
453.525787
 31
0.0
  0
SPLINE
  5
15c
100
AcDbEntity
  8
0
 62
5
100
AcDbSpline
 70
0
 71
3
 72
10
 73
6
 74
4
 40
0.000000
 40
0.000000
 40
0.000000
 40
0.000000
 40
77.979788
 40
155.944168
 40
233.955608
 40
233.955608
 40
233.955608
 40
233.955608
 10
246.006337
 20
151.960049
 30
0.0
 10
228.374241
 20
171.182894
 30
0.0
 10
193.113533
 20
209.624786
 30
0.0
 10
158.657087
 20
281.215096
 30
0.0
 10
149.811821
 20
332.595031
 30
0.0
 10
145.387854
 20
358.292749
 30
0.0
 11
246.006337
 21
151.960049
 31
0.0
 11
196.184059
 21
211.948281
 31
0.0
 11
162.193511
 21
282.112996
 31
0.0
 11
145.387854
 21
358.292749
 31
0.0
  0
SPLINE
  5
15d
100
AcDbEntity
  8
0
 62
7
100
AcDbSpline
 70
0
 71
3
 72
10
 73
6
 74
4
 40
0.000000
 40
0.000000
 40
0.000000
 40
0.000000
 40
4.554312
 40
9.108765
 40
13.663401
 40
13.663401
 40
13.663401
 40
13.663401
 10
226.622727
 20
350.219613
 30
0.0
 10
228.133201
 20
350.067581
 30
0.0
 10
231.154195
 20
349.763513
 30
0.0
 10
235.688186
 20
349.331788
 30
0.0
 10
238.712448
 20
349.060943
 30
0.0
 10
240.224610
 20
348.925518
 30
0.0
 11
226.622727
 21
350.219613
 31
0.0
 11
231.154551
 21
349.767581
 31
0.0
 11
235.688512
 21
349.336038
 31
0.0
 11
240.224610
 21
348.925518
 31
0.0
  0
SPLINE
  5
15e
100
AcDbEntity
  8
0
 62
7
100
AcDbSpline
 70
0
 71
3
 72
10
 73
6
 74
4
 40
0.000000
 40
0.000000
 40
0.000000
 40
0.000000
 40
0.402056
 40
1.145552
 40
1.374184
 40
1.374184
 40
1.374184
 40
1.374184
 10
240.224610
 20
348.925518
 30
0.0
 10
240.358133
 20
348.914001
 30
0.0
 10
240.738571
 20
348.881189
 30
0.0
 10
241.194948
 20
348.841933
 30
0.0
 10
241.517825
 20
348.814481
 30
0.0
 10
241.593762
 20
348.808024
 30
0.0
 11
240.224610
 21
348.925518
 31
0.0
 11
240.625180
 21
348.890980
 31
0.0
 11
241.365954
 21
348.827411
 31
0.0
 11
241.593762
 21
348.808024
 31
0.0
  0
SPLINE
  5
15f
100
AcDbEntity
  8
0
 62
7
100
AcDbSpline
 70
0
 71
3
 72
10
 73
6
 74
4
 40
0.000000
 40
0.000000
 40
0.000000
 40
0.000000
 40
3.764425
 40
7.527355
 40
11.288633
 40
11.288633
 40
11.288633
 40
11.288633
 10
265.331991
 20
250.714252
 30
0.0
 10
266.567488
 20
250.933556
 30
0.0
 10
269.037990
 20
251.372077
 30
0.0
 10
272.740058
 20
252.045926
 30
0.0
 10
275.205491
 20
252.506430
 30
0.0
 10
276.437937
 20
252.736631
 30
0.0
 11
265.331991
 21
250.714252
 31
0.0
 11
269.037997
 21
251.374867
 31
0.0
 11
272.740073
 21
252.048866
 31
0.0
 11
276.437937
 21
252.736631
 31
0.0
  0
LINE
  5
160
100
AcDbEntity
  8
0
 62
7
100
AcDbLine
 10
281.644982
 20
253.746206
 30
0.0
 11
281.503903
 21
253.718216
 31
0.0
  0
SPLINE
  5
161
100
AcDbEntity
  8
0
 62
7
100
AcDbSpline
 70
0
 71
3
 72
10
 73
6
 74
4
 40
0.000000
 40
0.000000
 40
0.000000
 40
0.000000
 40
1.837962
 40
3.573873
 40
5.304025
 40
5.304025
 40
5.304025
 40
5.304025
 10
276.437937
 20
252.736631
 30
0.0
 10
277.039678
 20
252.851749
 30
0.0
 10
278.209749
 20
253.075594
 30
0.0
 10
279.945756
 20
253.410480
 30
0.0
 10
281.079201
 20
253.634421
 30
0.0
 10
281.644982
 20
253.746206
 30
0.0
 11
276.437937
 21
252.736631
 31
0.0
 11
278.243069
 21
253.082463
 31
0.0
 11
279.947391
 21
253.412123
 31
0.0
 11
281.644982
 21
253.746206
 31
0.0
  0
SPLINE
  5
162
100
AcDbEntity
  8
0
 62
7
100
AcDbSpline
 70
0
 71
3
 72
10
 73
6
 74
4
 40
0.000000
 40
0.000000
 40
0.000000
 40
0.000000
 40
6.429622
 40
12.859891
 40
19.291254
 40
19.291254
 40
19.291254
 40
19.291254
 10
335.327575
 20
183.092080
 30
0.0
 10
337.270707
 20
183.996295
 30
0.0
 10
341.157168
 20
185.804816
 30
0.0
 10
346.959514
 20
188.577040
 30
0.0
 10
350.807067
 20
190.468258
 30
0.0
 10
352.731007
 20
191.413947
 30
0.0
 11
335.327575
 21
183.092080
 31
0.0
 11
341.152344
 21
185.814597
 31
0.0
 11
346.953957
 21
188.587619
 31
0.0
 11
352.731007
 21
191.413947
 31
0.0
  0
SPLINE
  5
163
100
AcDbEntity
  8
0
 62
7
100
AcDbSpline
 70
0
 71
3
 72
10
 73
6
 74
4
 40
0.000000
 40
0.000000
 40
0.000000
 40
0.000000
 40
5.446586
 40
10.893927
 40
16.342371
 40
16.342371
 40
16.342371
 40
16.342371
 10
418.554597
 20
152.447093
 30
0.0
 10
419.979067
 20
153.572727
 30
0.0
 10
422.828204
 20
155.824150
 30
0.0
 10
427.068151
 20
159.244552
 30
0.0
 10
429.869974
 20
161.555574
 30
0.0
 10
431.271027
 20
162.711202
 30
0.0
 11
418.554597
 21
152.447093
 31
0.0
 11
422.822317
 21
155.831153
 31
0.0
 11
427.061607
 21
159.251963
 31
0.0
 11
431.271027
 21
162.711202
 31
0.0
  0
LINE
  5
164
100
AcDbEntity
  8
0
 62
7
100
AcDbLine
 10
436.400242
 20
167.074817
 30
0.0
 11
436.548320
 21
167.202748
 31
0.0
  0
LINE
  5
165
100
AcDbEntity
  8
0
 62
7
100
AcDbLine
 10
436.548320
 20
167.202748
 30
0.0
 11
436.433940
 21
167.103935
 31
0.0
  0
SPLINE
  5
166
100
AcDbEntity
  8
0
 62
7
100
AcDbSpline
 70
0
 71
3
 72
10
 73
6
 74
4
 40
0.000000
 40
0.000000
 40
0.000000
 40
0.000000
 40
2.366364
 40
4.584789
 40
6.734309
 40
6.734309
 40
6.734309
 40
6.734309
 10
431.271027
 20
162.711202
 30
0.0
 10
431.875130
 20
163.218398
 30
0.0
 10
433.045570
 20
164.201080
 30
0.0
 10
434.755180
 20
165.655841
 30
0.0
 10
435.857685
 20
166.606826
 30
0.0
 10
436.400242
 20
167.074817
 30
0.0
 11
431.271027
 21
162.711202
 31
0.0
 11
433.081601
 21
164.234849
 31
0.0
 11
434.771030
 21
165.672637
 31
0.0
 11
436.400242
 21
167.074817
 31
0.0
  0
SPLINE
  5
167
100
AcDbEntity
  8
0
 62
7
100
AcDbSpline
 70
0
 71
3
 72
10
 73
6
 74
4
 40
0.000000
 40
0.000000
 40
0.000000
 40
0.000000
 40
1.773418
 40
3.547093
 40
5.321108
 40
5.321108
 40
5.321108
 40
5.321108
 10
504.355414
 20
156.493930
 30
0.0
 10
504.736751
 20
156.945625
 30
0.0
 10
505.499481
 20
157.849081
 30
0.0
 10
506.634339
 20
159.212237
 30
0.0
 10
507.384084
 20
160.126756
 30
0.0
 10
507.758993
 20
160.584059
 30
0.0
 11
504.355414
 21
156.493930
 31
0.0
 11
505.497870
 21
157.850324
 31
0.0
 11
506.632545
 21
159.213569
 31
0.0
 11
507.758993
 21
160.584059
 31
0.0
  0
LINE
  5
168
100
AcDbEntity
  8
0
 62
7
100
AcDbLine
 10
521.863994
 20
178.141185
 30
0.0
 11
521.776193
 21
178.023030
 31
0.0
  0
SPLINE
  5
169
100
AcDbEntity
  8
0
 62
7
100
AcDbSpline
 70
0
 71
3
 72
10
 73
6
 74
4
 40
0.000000
 40
0.000000
 40
0.000000
 40
0.000000
 40
7.508910
 40
15.016136
 40
22.525400
 40
22.525400
 40
22.525400
 40
22.525400
 10
507.758993
 20
160.584059
 30
0.0
 10
509.388993
 20
162.483843
 30
0.0
 10
512.648627
 20
166.282986
 30
0.0
 10
517.302489
 20
172.177200
 30
0.0
 10
520.343355
 20
176.153010
 30
0.0
 10
521.863994
 20
178.141185
 30
0.0
 11
507.758993
 21
160.584059
 31
0.0
 11
512.609678
 21
166.315951
 31
0.0
 11
517.286668
 21
172.188276
 31
0.0
 11
521.863994
 21
178.141185
 31
0.0
  0
SPLINE
  5
16a
100
AcDbEntity
  8
0
 62
7
100
AcDbSpline
 70
0
 71
3
 72
10
 73
6
 74
4
 40
0.000000
 40
0.000000
 40
0.000000
 40
0.000000
 40
2.570100
 40
5.140844
 40
7.712678
 40
7.712678
 40
7.712678
 40
7.712678
 10
594.157079
 20
197.380396
 30
0.0
 10
594.586896
 20
198.121477
 30
0.0
 10
595.446638
 20
199.603825
 30
0.0
 10
596.704576
 20
201.846100
 30
0.0
 10
597.519034
 20
203.354470
 30
0.0
 10
597.926349
 20
204.108815
 30
0.0
 11
594.157079
 21
197.380396
 31
0.0
 11
595.441214
 21
199.606696
 31
0.0
 11
596.698327
 21
201.849104
 31
0.0
 11
597.926349
 21
204.108815
 31
0.0
  0
LINE
  5
16b
100
AcDbEntity
  8
0
 62
7
100
AcDbLine
 10
608.067475
 20
226.996005
 30
0.0
 11
608.031014
 21
226.878769
 31
0.0
  0
SPLINE
  5
16c
100
AcDbEntity
  8
0
 62
7
100
AcDbSpline
 70
0
 71
3
 72
10
 73
6
 74
4
 40
0.000000
 40
0.000000
 40
0.000000
 40
0.000000
 40
8.373556
 40
16.732786
 40
25.067721
 40
25.067721
 40
25.067721
 40
25.067721
 10
597.926349
 20
204.108815
 30
0.0
 10
599.226455
 20
206.578454
 30
0.0
 10
601.824442
 20
211.513507
 30
0.0
 10
605.349741
 20
219.102760
 30
0.0
 10
607.162443
 20
224.367477
 30
0.0
 10
608.067475
 20
226.996005
 30
0.0
 11
597.926349
 21
204.108815
 31
0.0
 11
601.765352
 21
211.550487
 31
0.0
 11
605.219014
 21
219.162908
 31
0.0
 11
608.067475
 21
226.996005
 31
0.0
  0
SPLINE
  5
16d
100
AcDbEntity
  8
0
 62
7
100
AcDbSpline
 70
0
 71
3
 72
10
 73
6
 74
4
 40
0.000000
 40
0.000000
 40
0.000000
 40
0.000000
 40
4.731118
 40
9.472722
 40
14.277850
 40
14.277850
 40
14.277850
 40
14.277850
 10
684.093813
 20
302.327856
 30
0.0
 10
683.452554
 20
303.770022
 30
0.0
 10
682.168616
 20
306.657549
 30
0.0
 10
679.544262
 20
310.666907
 30
0.0
 10
677.341027
 20
312.969537
 30
0.0
 10
676.232080
 20
314.128513
 30
0.0
 11
684.093813
 21
302.327856
 31
0.0
 11
682.055989
 21
306.597605
 31
0.0
 11
679.445303
 21
310.555777
 31
0.0
 11
676.232080
 21
314.128513
 31
0.0
  0
SPLINE
  5
16e
100
AcDbEntity
  8
0
 62
7
100
AcDbSpline
 70
0
 71
3
 72
10
 73
6
 74
4
 40
0.000000
 40
0.000000
 40
0.000000
 40
0.000000
 40
0.938942
 40
1.965971
 40
2.693930
 40
2.693930
 40
2.693930
 40
2.693930
 10
676.232080
 20
314.128513
 30
0.0
 10
676.017851
 20
314.357217
 30
0.0
 10
675.569296
 20
314.836081
 30
0.0
 10
674.867595
 20
315.399186
 30
0.0
 10
674.430511
 20
315.787886
 30
0.0
 10
674.249211
 20
315.949118
 30
0.0
 11
676.232080
 21
314.128513
 31
0.0
 11
675.574902
 21
314.799132
 31
0.0
 11
674.796560
 21
315.469186
 31
0.0
 11
674.249211
 21
315.949118
 31
0.0
  0
LINE
  5
16f
100
AcDbEntity
  8
0
 62
7
100
AcDbLine
 10
687.195275
 20
421.189618
 30
0.0
 11
687.357574
 21
421.220121
 31
0.0
  0
SPLINE
  5
170
100
AcDbEntity
  8
0
 62
7
100
AcDbSpline
 70
0
 71
3
 72
10
 73
6
 74
4
 40
0.000000
 40
0.000000
 40
0.000000
 40
0.000000
 40
5.292790
 40
10.576067
 40
15.840596
 40
15.840596
 40
15.840596
 40
15.840596
 10
702.899575
 20
423.208295
 30
0.0
 10
701.141238
 20
423.061864
 30
0.0
 10
697.627725
 20
422.769265
 30
0.0
 10
692.389463
 20
422.086541
 30
0.0
 10
688.924618
 20
421.488238
 30
0.0
 10
687.195275
 20
421.189618
 30
0.0
 11
702.899575
 21
423.208295
 31
0.0
 11
697.628611
 21
422.728122
 31
0.0
 11
692.389075
 21
422.049681
 31
0.0
 11
687.195275
 21
421.189618
 31
0.0
  0
SPLINE
  5
171
100
AcDbEntity
  8
0
 62
7
100
AcDbSpline
 70
0
 71
3
 72
10
 73
6
 74
4
 40
0.000000
 40
0.000000
 40
0.000000
 40
0.000000
 40
4.897943
 40
9.793990
 40
14.687840
 40
14.687840
 40
14.687840
 40
14.687840
 10
658.832507
 20
530.632791
 30
0.0
 10
657.514492
 20
529.669243
 30
0.0
 10
654.878971
 20
527.742520
 30
0.0
 10
650.973574
 20
524.789371
 30
0.0
 10
648.403021
 20
522.779000
 30
0.0
 10
647.118033
 20
521.774040
 30
0.0
 11
658.832507
 21
530.632791
 31
0.0
 11
654.886305
 21
527.731527
 31
0.0
 11
650.981122
 21
524.778423
 31
0.0
 11
647.118033
 21
521.774040
 31
0.0
  0
SPLINE
  5
172
100
AcDbEntity
  8
0
 62
7
100
AcDbSpline
 70
0
 71
3
 72
10
 73
6
 74
4
 40
0.000000
 40
0.000000
 40
0.000000
 40
0.000000
 40
0.480251
 40
1.281240
 40
1.554525
 40
1.554525
 40
1.554525
 40
1.554525
 10
647.118033
 20
521.774040
 30
0.0
 10
646.992125
 20
521.675176
 30
0.0
 10
646.656219
 20
521.411420
 30
0.0
 10
646.252781
 20
521.086217
 30
0.0
 10
645.971767
 20
520.864269
 30
0.0
 10
645.900279
 20
520.807807
 30
0.0
 11
647.118033
 21
521.774040
 31
0.0
 11
646.740785
 21
521.476846
 31
0.0
 11
646.114598
 21
520.977372
 31
0.0
 11
645.900279
 21
520.807807
 31
0.0
  0
LINE
  5
173
100
AcDbEntity
  8
0
 62
7
100
AcDbLine
 10
561.157666
 20
591.749846
 30
0.0
 11
561.192230
 21
591.807766
 31
0.0
  0
SPLINE
  5
174
100
AcDbEntity
  8
0
 62
7
100
AcDbSpline
 70
0
 71
3
 72
10
 73
6
 74
4
 40
0.000000
 40
0.000000
 40
0.000000
 40
0.000000
 40
4.626214
 40
9.252648
 40
13.879400
 40
13.879400
 40
13.879400
 40
13.879400
 10
568.365155
 20
603.610864
 30
0.0
 10
567.553541
 20
602.299652
 30
0.0
 10
565.930272
 20
599.677166
 30
0.0
 10
563.527376
 20
595.723565
 30
0.0
 10
561.947588
 20
593.074449
 30
0.0
 10
561.157666
 20
591.749846
 30
0.0
 11
568.365155
 21
603.610864
 31
0.0
 11
565.935658
 21
599.673937
 31
0.0
 11
563.532977
 21
595.720328
 31
0.0
 11
561.157666
 21
591.749846
 31
0.0
  0
SPLINE
  5
175
100
AcDbEntity
  8
0
 62
5
100
AcDbSpline
 70
0
 71
3
 72
10
 73
6
 74
4
 40
0.000000
 40
0.000000
 40
0.000000
 40
0.000000
 40
86.869795
 40
173.674670
 40
260.446289
 40
260.446289
 40
260.446289
 40
260.446289
 10
545.581012
 20
234.986817
 30
0.0
 10
554.667910
 20
262.703621
 30
0.0
 10
572.834915
 20
318.116514
 30
0.0
 10
561.560399
 20
408.311389
 30
0.0
 10
528.974165
 20
456.774990
 30
0.0
 10
512.684170
 20
481.002148
 30
0.0
 11
545.581012
 21
234.986817
 31
0.0
 11
566.415593
 21
319.321161
 31
0.0
 11
555.288496
 21
405.409918
 31
0.0
 11
512.684170
 21
481.002148
 31
0.0
  0
SPLINE
  5
176
100
AcDbEntity
  8
0
 62
5
100
AcDbSpline
 70
0
 71
3
 72
10
 73
6
 74
4
 40
0.000000
 40
0.000000
 40
0.000000
 40
0.000000
 40
75.284743
 40
150.524486
 40
225.848725
 40
225.848725
 40
225.848725
 40
225.848725
 10
512.684170
 20
481.002148
 30
0.0
 10
494.225452
 20
498.288552
 30
0.0
 10
457.319050
 20
532.851028
 30
0.0
 10
382.941968
 20
557.557531
 30
0.0
 10
332.653067
 20
552.711032
 30
0.0
 10
307.494505
 20
550.286423
 30
0.0
 11
512.684170
 21
481.002148
 31
0.0
 11
454.139946
 21
528.334657
 31
0.0
 11
382.793796
 21
552.224942
 31
0.0
 11
307.494505
 21
550.286423
 31
0.0
  0
SPLINE
  5
177
100
AcDbEntity
  8
0
 62
5
100
AcDbSpline
 70
0
 71
3
 72
10
 73
6
 74
4
 40
0.000000
 40
0.000000
 40
0.000000
 40
0.000000
 40
84.028247
 40
168.107059
 40
251.880614
 40
251.880614
 40
251.880614
 40
251.880614
 10
307.494505
 20
550.286423
 30
0.0
 10
280.589556
 20
542.127975
 30
0.0
 10
226.763467
 20
525.806170
 30
0.0
 10
157.886659
 20
472.374417
 30
0.0
 10
132.744110
 20
421.791614
 30
0.0
 10
120.195697
 20
396.546207
 30
0.0
 11
307.494505
 21
550.286423
 31
0.0
 11
228.742770
 21
520.979248
 31
0.0
 11
163.011257
 21
468.552016
 31
0.0
 11
120.195697
 21
396.546207
 31
0.0
  0
SPLINE
  5
178
100
AcDbEntity
  8
0
 62
5
100
AcDbSpline
 70
0
 71
3
 72
10
 73
6
 74
4
 40
0.000000
 40
0.000000
 40
0.000000
 40
0.000000
 40
80.348518
 40
160.739942
 40
241.225421
 40
241.225421
 40
241.225421
 40
241.225421
 10
120.195697
 20
396.546207
 30
0.0
 10
114.605867
 20
370.091042
 30
0.0
 10
103.423221
 20
317.166583
 30
0.0
 10
124.788595
 20
235.911485
 30
0.0
 10
158.675272
 20
193.915161
 30
0.0
 10
175.628517
 20
172.904723
 30
0.0
 11
120.195697
 21
396.546207
 31
0.0
 11
109.777666
 21
316.875956
 31
0.0
 11
129.683972
 21
238.988088
 31
0.0
 11
175.628517
 21
172.904723
 31
0.0
  0
LINE
  5
179
100
AcDbEntity
  8
0
 62
5
100
AcDbLine
 10
213.807405
 20
141.703711
 30
0.0
 11
244.819033
 21
122.639994
 31
0.0
  0
LINE
  5
17a
100
AcDbEntity
  8
0
 62
5
100
AcDbLine
 10
244.819033
 20
122.639994
 30
0.0
 11
250.912734
 21
110.435670
 31
0.0
  0
LINE
  5
17b
100
AcDbEntity
  8
0
 62
5
100
AcDbLine
 10
250.912734
 20
110.435670
 30
0.0
 11
229.195750
 21
110.884109
 31
0.0
  0
LINE
  5
17c
100
AcDbEntity
  8
0
 62
5
100
AcDbLine
 10
229.195750
 20
110.884109
 30
0.0
 11
244.584066
 21
80.064542
 31
0.0
  0
LINE
  5
17d
100
AcDbEntity
  8
0
 62
5
100
AcDbLine
 10
244.584066
 20
80.064542
 30
0.0
 11
259.972386
 21
49.244977
 31
0.0
  0
LINE
  5
17e
100
AcDbEntity
  8
0
 62
5
100
AcDbLine
 10
259.972386
 20
49.244977
 30
0.0
 11
273.523435
 21
65.151184
 31
0.0
  0
LINE
  5
17f
100
AcDbEntity
  8
0
 62
5
100
AcDbLine
 10
273.523435
 20
65.151184
 30
0.0
 11
298.267429
 21
15.594202
 31
0.0
  0
LINE
  5
180
100
AcDbEntity
  8
0
 62
5
100
AcDbLine
 10
298.267429
 20
15.594202
 30
0.0
 11
275.360731
 21
18.425375
 31
0.0
  0
SPLINE
  5
181
100
AcDbEntity
  8
0
 62
5
100
AcDbSpline
 70
0
 71
3
 72
10
 73
6
 74
4
 40
0.000000
 40
0.000000
 40
0.000000
 40
0.000000
 40
16.461720
 40
32.913965
 40
49.377197
 40
49.377197
 40
49.377197
 40
49.377197
 10
175.628517
 20
172.904723
 30
0.0
 10
179.591637
 20
169.107652
 30
0.0
 10
187.515598
 20
161.515695
 30
0.0
 10
200.282036
 20
151.090017
 30
0.0
 10
209.297945
 20
144.833176
 30
0.0
 10
213.807405
 20
141.703711
 30
0.0
 11
175.628517
 21
172.904723
 31
0.0
 11
187.664443
 21
161.674198
 31
0.0
 11
200.405520
 21
151.265484
 31
0.0
 11
213.807405
 21
141.703711
 31
0.0
  0
SPLINE
  5
182
100
AcDbEntity
  8
0
 62
5
100
AcDbSpline
 70
0
 71
3
 72
10
 73
6
 74
4
 40
0.000000
 40
0.000000
 40
0.000000
 40
0.000000
 40
111.687682
 40
223.329049
 40
334.872147
 40
334.872147
 40
334.872147
 40
334.872147
 10
275.360731
 20
18.425375
 30
0.0
 10
239.602127
 20
29.526047
 30
0.0
 10
168.099747
 20
51.722788
 30
0.0
 10
79.315751
 20
126.370246
 30
0.0
 10
47.249913
 20
194.153817
 30
0.0
 10
31.224054
 20
228.030680
 30
0.0
 11
275.360731
 21
18.425375
 31
0.0
 11
171.159090
 21
58.626821
 31
0.0
 11
86.072321
 21
130.904319
 31
0.0
 11
31.224054
 21
228.030680
 31
0.0
  0
SPLINE
  5
183
100
AcDbEntity
  8
0
 62
5
100
AcDbSpline
 70
0
 71
3
 72
10
 73
6
 74
4
 40
0.000000
 40
0.000000
 40
0.000000
 40
0.000000
 40
81.218713
 40
162.393162
 40
243.674765
 40
243.674765
 40
243.674765
 40
243.674765
 10
31.224054
 20
228.030680
 30
0.0
 10
24.509869
 20
254.404068
 30
0.0
 10
11.085157
 20
307.136470
 30
0.0
 10
19.730263
 20
390.078434
 30
0.0
 10
42.534558
 20
439.424291
 30
0.0
 10
53.944226
 20
464.113493
 30
0.0
 11
31.224054
 21
228.030680
 31
0.0
 11
15.880639
 21
307.786927
 31
0.0
 11
23.981011
 21
388.556198
 31
0.0
 11
53.944226
 21
464.113493
 31
0.0
  0
SPLINE
  5
184
100
AcDbEntity
  8
0
 62
5
100
AcDbSpline
 70
0
 71
3
 72
10
 73
6
 74
4
 40
0.000000
 40
0.000000
 40
0.000000
 40
0.000000
 40
109.724374
 40
219.367357
 40
328.828310
 40
328.828310
 40
328.828310
 40
328.828310
 10
53.944226
 20
464.113493
 30
0.0
 10
74.406024
 20
494.577248
 30
0.0
 10
115.314441
 20
555.482161
 30
0.0
 10
206.167185
 20
622.969915
 30
0.0
 10
277.883116
 20
639.562067
 30
0.0
 10
313.711292
 20
647.851250
 30
0.0
 11
53.944226
 21
464.113493
 31
0.0
 11
120.258550
 21
551.531161
 31
0.0
 11
209.016922
 21
615.901459
 31
0.0
 11
313.711292
 21
647.851250
 31
0.0
  0
SPLINE
  5
185
100
AcDbEntity
  8
0
 62
5
100
AcDbSpline
 70
0
 71
3
 72
10
 73
6
 74
4
 40
0.000000
 40
0.000000
 40
0.000000
 40
0.000000
 40
103.101624
 40
206.209588
 40
309.353380
 40
309.353380
 40
309.353380
 40
309.353380
 10
313.711292
 20
647.851250
 30
0.0
 10
348.316565
 20
648.484123
 30
0.0
 10
417.529241
 20
649.749906
 30
0.0
 10
516.245926
 20
608.228577
 30
0.0
 10
564.267697
 20
558.422911
 30
0.0
 10
588.282754
 20
533.515752
 30
0.0
 11
313.711292
 21
647.851250
 31
0.0
 11
416.674703
 21
642.514517
 31
0.0
 11
511.787410
 21
602.704654
 31
0.0
 11
588.282754
 21
533.515752
 31
0.0
  0
LINE
  5
186
100
AcDbEntity
  8
0
 62
5
100
AcDbLine
 10
657.921465
 20
314.774553
 30
0.0
 11
629.836342
 21
294.827612
 31
0.0
  0
LINE
  5
187
100
AcDbEntity
  8
0
 62
5
100
AcDbLine
 10
629.836342
 20
294.827612
 30
0.0
 11
645.332081
 21
285.467695
 31
0.0
  0
LINE
  5
188
100
AcDbEntity
  8
0
 62
5
100
AcDbLine
 10
645.332081
 20
285.467695
 30
0.0
 11
576.367557
 21
236.486913
 31
0.0
  0
LINE
  5
189
100
AcDbEntity
  8
0
 62
5
100
AcDbLine
 10
576.367557
 20
236.486913
 30
0.0
 11
573.666134
 21
254.933758
 31
0.0
  0
LINE
  5
18a
100
AcDbEntity
  8
0
 62
5
100
AcDbLine
 10
573.666134
 20
254.933758
 30
0.0
 11
545.581012
 21
234.986817
 31
0.0
  0
SPLINE
  5
18b
100
AcDbEntity
  8
0
 62
5
100
AcDbSpline
 70
0
 71
3
 72
10
 73
6
 74
4
 40
0.000000
 40
0.000000
 40
0.000000
 40
0.000000
 40
77.979788
 40
155.944169
 40
233.955609
 40
233.955609
 40
233.955609
 40
233.955609
 10
588.282754
 20
533.515752
 30
0.0
 10
602.941376
 20
511.939530
 30
0.0
 10
632.255726
 20
468.791349
 30
0.0
 10
655.968068
 20
392.961645
 30
0.0
 10
657.270201
 20
340.842158
 30
0.0
 10
657.921465
 20
314.774553
 30
0.0
 11
588.282754
 21
533.515752
 31
0.0
 11
628.880760
 21
466.937608
 31
0.0
 11
652.338825
 21
392.585985
 31
0.0
 11
657.921465
 21
314.774553
 31
0.0
  0
SPLINE
  5
18c
100
AcDbEntity
  8
0
 62
7
100
AcDbSpline
 70
0
 71
3
 72
10
 73
6
 74
4
 40
0.000000
 40
0.000000
 40
0.000000
 40
0.000000
 40
4.554312
 40
9.108765
 40
13.663401
 40
13.663401
 40
13.663401
 40
13.663401
 10
578.715548
 20
334.540759
 30
0.0
 10
577.243079
 20
334.910191
 30
0.0
 10
574.298096
 20
335.649065
 30
0.0
 10
569.874613
 20
336.733618
 30
0.0
 10
566.921578
 20
337.440094
 30
0.0
 10
565.445031
 20
337.793339
 30
0.0
 11
578.715548
 21
334.540759
 31
0.0
 11
574.297154
 21
335.645090
 31
0.0
 11
569.873673
 21
336.729461
 31
0.0
 11
565.445031
 21
337.793339
 31
0.0
  0
SPLINE
  5
18d
100
AcDbEntity
  8
0
 62
7
100
AcDbSpline
 70
0
 71
3
 72
10
 73
6
 74
4
 40
0.000000
 40
0.000000
 40
0.000000
 40
0.000000
 40
0.402056
 40
1.145552
 40
1.374184
 40
1.374184
 40
1.374184
 40
1.374184
 10
565.445031
 20
337.793339
 30
0.0
 10
565.314589
 20
337.824093
 30
0.0
 10
564.942928
 20
337.911719
 30
0.0
 10
564.497066
 20
338.016731
 30
0.0
 10
564.181580
 20
338.090708
 30
0.0
 10
564.107382
 20
338.108106
 30
0.0
 11
565.445031
 21
337.793339
 31
0.0
 11
565.053702
 21
337.885591
 31
0.0
 11
564.329973
 21
338.055894
 31
0.0
 11
564.107382
 21
338.108106
 31
0.0
  0
SPLINE
  5
18e
100
AcDbEntity
  8
0
 62
7
100
AcDbSpline
 70
0
 71
3
 72
10
 73
6
 74
4
 40
0.000000
 40
0.000000
 40
0.000000
 40
0.000000
 40
3.764425
 40
7.527355
 40
11.288633
 40
11.288633
 40
11.288633
 40
11.288633
 10
554.842779
 20
438.607156
 30
0.0
 10
553.588541
 20
438.569306
 30
0.0
 10
551.080562
 20
438.493621
 30
0.0
 10
547.319912
 20
438.363662
 30
0.0
 10
544.813762
 20
438.265491
 30
0.0
 10
543.560963
 20
438.216417
 30
0.0
 11
554.842779
 21
438.607156
 31
0.0
 11
551.080150
 21
438.490862
 31
0.0
 11
547.319471
 21
438.360755
 31
0.0
 11
543.560963
 21
438.216417
 31
0.0
  0
LINE
  5
18f
100
AcDbEntity
  8
0
 62
7
100
AcDbLine
 10
538.262561
 20
437.972489
 30
0.0
 11
538.406207
 21
437.979728
 31
0.0
  0
SPLINE
  5
190
100
AcDbEntity
  8
0
 62
7
100
AcDbSpline
 70
0
 71
3
 72
10
 73
6
 74
4
 40
0.000000
 40
0.000000
 40
0.000000
 40
0.000000
 40
1.837962
 40
3.573873
 40
5.304025
 40
5.304025
 40
5.304025
 40
5.304025
 10
543.560963
 20
438.216417
 30
0.0
 10
542.948889
 20
438.189762
 30
0.0
 10
541.758726
 20
438.137934
 30
0.0
 10
539.992508
 20
438.058293
 30
0.0
 10
538.838571
 20
438.001059
 30
0.0
 10
538.262561
 20
437.972489
 30
0.0
 11
543.560963
 21
438.216417
 31
0.0
 11
541.724762
 21
438.135969
 31
0.0
 11
539.990653
 21
438.056905
 31
0.0
 11
538.262561
 21
437.972489
 31
0.0
  0
SPLINE
  5
191
100
AcDbEntity
  8
0
 62
7
100
AcDbSpline
 70
0
 71
3
 72
10
 73
6
 74
4
 40
0.000000
 40
0.000000
 40
0.000000
 40
0.000000
 40
6.429622
 40
12.859891
 40
19.291254
 40
19.291254
 40
19.291254
 40
19.291254
 10
495.391499
 20
515.663533
 30
0.0
 10
493.337796
 20
515.050611
 30
0.0
 10
489.230184
 20
513.824705
 30
0.0
 10
483.087202
 20
511.923068
 30
0.0
 10
479.006096
 20
510.609697
 30
0.0
 10
476.965369
 20
509.952957
 30
0.0
 11
495.391499
 21
515.663533
 31
0.0
 11
489.233538
 21
513.814328
 31
0.0
 11
483.091167
 21
511.911794
 31
0.0
 11
476.965369
 21
509.952957
 31
0.0
  0
SPLINE
  5
192
100
AcDbEntity
  8
0
 62
7
100
AcDbSpline
 70
0
 71
3
 72
10
 73
6
 74
4
 40
0.000000
 40
0.000000
 40
0.000000
 40
0.000000
 40
5.446586
 40
10.893927
 40
16.342371
 40
16.342371
 40
16.342371
 40
16.342371
 10
417.487215
 20
558.051916
 30
0.0
 10
415.914590
 20
557.144713
 30
0.0
 10
412.769122
 20
555.330182
 30
0.0
 10
408.078049
 20
552.560681
 30
0.0
 10
404.970755
 20
550.680321
 30
0.0
 10
403.416950
 20
549.740046
 30
0.0
 11
417.487215
 21
558.051916
 31
0.0
 11
412.773931
 21
555.322400
 31
0.0
 11
408.083449
 21
552.552400
 31
0.0
 11
403.416950
 21
549.740046
 31
0.0
  0
LINE
  5
193
100
AcDbEntity
  8
0
 62
7
100
AcDbLine
 10
397.709249
 20
546.166235
 30
0.0
 11
397.544186
 21
546.061126
 31
0.0
  0
LINE
  5
194
100
AcDbEntity
  8
0
 62
7
100
AcDbLine
 10
397.544186
 20
546.061126
 30
0.0
 11
397.671684
 21
546.142311
 31
0.0
  0
SPLINE
  5
195
100
AcDbEntity
  8
0
 62
7
100
AcDbSpline
 70
0
 71
3
 72
10
 73
6
 74
4
 40
0.000000
 40
0.000000
 40
0.000000
 40
0.000000
 40
2.366364
 40
4.584789
 40
6.734309
 40
6.734309
 40
6.734309
 40
6.734309
 10
403.416950
 20
549.740046
 30
0.0
 10
402.745691
 20
549.325799
 30
0.0
 10
401.445138
 20
548.523205
 30
0.0
 10
399.542666
 20
547.331697
 30
0.0
 10
398.313927
 20
546.550615
 30
0.0
 10
397.709249
 20
546.166235
 30
0.0
 11
403.416950
 21
549.740046
 31
0.0
 11
401.404592
 21
548.495017
 31
0.0
 11
399.524548
 21
547.317376
 31
0.0
 11
397.709249
 21
546.166235
 31
0.0
  0
SPLINE
  5
196
100
AcDbEntity
  8
0
 62
7
100
AcDbSpline
 70
0
 71
3
 72
10
 73
6
 74
4
 40
0.000000
 40
0.000000
 40
0.000000
 40
0.000000
 40
1.773418
 40
3.547093
 40
5.321108
 40
5.321108
 40
5.321108
 40
5.321108
 10
332.006307
 20
566.488246
 30
0.0
 10
331.563508
 20
566.096615
 30
0.0
 10
330.677844
 20
565.313296
 30
0.0
 10
329.357332
 20
564.129089
 30
0.0
 10
328.482912
 20
563.332941
 30
0.0
 10
328.045660
 20
562.934829
 30
0.0
 11
332.006307
 21
566.488246
 31
0.0
 11
330.679258
 21
565.311832
 31
0.0
 11
329.358914
 21
564.127512
 31
0.0
 11
328.045660
 21
562.934829
 31
0.0
  0
LINE
  5
197
100
AcDbEntity
  8
0
 62
7
100
AcDbLine
 10
311.544071
 20
547.608339
 30
0.0
 11
311.648076
 21
547.712515
 31
0.0
  0
SPLINE
  5
198
100
AcDbEntity
  8
0
 62
7
100
AcDbSpline
 70
0
 71
3
 72
10
 73
6
 74
4
 40
0.000000
 40
0.000000
 40
0.000000
 40
0.000000
 40
7.508910
 40
15.016136
 40
22.525400
 40
22.525400
 40
22.525400
 40
22.525400
 10
328.045660
 20
562.934829
 30
0.0
 10
326.157431
 20
561.291456
 30
0.0
 10
322.381398
 20
558.005079
 30
0.0
 10
316.922102
 20
552.847922
 30
0.0
 10
313.336910
 20
549.355025
 30
0.0
 10
311.544071
 20
547.608339
 30
0.0
 11
328.045660
 21
562.934829
 31
0.0
 11
322.415156
 21
557.966816
 31
0.0
 11
316.936150
 21
552.834669
 31
0.0
 11
311.544071
 21
547.608339
 31
0.0
  0
SPLINE
  5
199
100
AcDbEntity
  8
0
 62
7
100
AcDbSpline
 70
0
 71
3
 72
10
 73
6
 74
4
 40
0.000000
 40
0.000000
 40
0.000000
 40
0.000000
 40
2.570100
 40
5.140844
 40
7.712678
 40
7.712678
 40
7.712678
 40
7.712678
 10
237.225390
 20
539.054326
 30
0.0
 10
236.692664
 20
538.383396
 30
0.0
 10
235.627079
 20
537.041368
 30
0.0
 10
234.057322
 20
535.005179
 30
0.0
 10
233.032770
 20
533.630837
 30
0.0
 10
232.520386
 20
532.943521
 30
0.0
 11
237.225390
 21
539.054326
 31
0.0
 11
235.632029
 21
537.037741
 31
0.0
 11
234.063070
 21
535.001300
 31
0.0
 11
232.520386
 21
532.943521
 31
0.0
  0
LINE
  5
19a
100
AcDbEntity
  8
0
 62
7
100
AcDbLine
 10
219.167970
 20
511.768561
 30
0.0
 11
219.221045
 21
511.879272
 31
0.0
  0
SPLINE
  5
19b
100
AcDbEntity
  8
0
 62
7
100
AcDbSpline
 70
0
 71
3
 72
10
 73
6
 74
4
 40
0.000000
 40
0.000000
 40
0.000000
 40
0.000000
 40
8.373556
 40
16.732786
 40
25.067721
 40
25.067721
 40
25.067721
 40
25.067721
 10
232.520386
 20
532.943521
 30
0.0
 10
230.875941
 20
530.688483
 30
0.0
 10
227.589865
 20
526.182266
 30
0.0
 10
223.001441
 20
519.184349
 30
0.0
 10
220.444553
 20
514.238090
 30
0.0
 10
219.167970
 20
511.768561
 30
0.0
 11
232.520386
 21
532.943521
 31
0.0
 11
227.642969
 21
526.137108
 31
0.0
 11
223.122065
 21
519.105881
 31
0.0
 11
219.167970
 21
511.768561
 31
0.0
  0
SPLINE
  5
19c
100
AcDbEntity
  8
0
 62
7
100
AcDbSpline
 70
0
 71
3
 72
10
 73
6
 74
4
 40
0.000000
 40
0.000000
 40
0.000000
 40
0.000000
 40
4.731118
 40
9.472722
 40
14.277850
 40
14.277850
 40
14.277850
 40
14.277850
 10
133.022521
 20
448.255937
 30
0.0
 10
133.447901
 20
446.736033
 30
0.0
 10
134.299604
 20
443.692858
 30
0.0
 10
136.314902
 20
439.345359
 30
0.0
 10
138.160993
 20
436.747610
 30
0.0
 10
139.090181
 20
435.440093
 30
0.0
 11
133.022521
 21
448.255937
 31
0.0
 11
134.419732
 21
443.735840
 31
0.0
 11
136.428929
 21
439.440966
 31
0.0
 11
139.090181
 21
435.440093
 31
0.0
  0
SPLINE
  5
19d
100
AcDbEntity
  8
0
 62
7
100
AcDbSpline
 70
0
 71
3
 72
10
 73
6
 74
4
 40
0.000000
 40
0.000000
 40
0.000000
 40
0.000000
 40
0.938942
 40
1.965971
 40
2.693930
 40
2.693930
 40
2.693930
 40
2.693930
 10
139.090181
 20
435.440093
 30
0.0
 10
139.268986
 20
435.182744
 30
0.0
 10
139.643370
 20
434.643903
 30
0.0
 10
140.256010
 20
433.985009
 30
0.0
 10
140.632117
 20
433.537042
 30
0.0
 10
140.788124
 20
433.351227
 30
0.0
 11
139.090181
 21
435.440093
 31
0.0
 11
139.643179
 21
434.681275
 31
0.0
 11
140.316145
 21
433.905449
 31
0.0
 11
140.788124
 21
433.351227
 31
0.0
  0
LINE
  5
19e
100
AcDbEntity
  8
0
 62
7
100
AcDbLine
 10
112.719865
 20
331.099887
 30
0.0
 11
112.554859
 21
331.093239
 31
0.0
  0
SPLINE
  5
19f
100
AcDbEntity
  8
0
 62
7
100
AcDbSpline
 70
0
 71
3
 72
10
 73
6
 74
4
 40
0.000000
 40
0.000000
 40
0.000000
 40
0.000000
 40
5.292790
 40
10.576067
 40
15.840596
 40
15.840596
 40
15.840596
 40
15.840596
 10
96.888824
 20
331.379534
 30
0.0
 10
98.649811
 20
331.269474
 30
0.0
 10
102.168621
 20
331.049551
 30
0.0
 10
107.450519
 20
330.965556
 30
0.0
 10
110.965499
 20
331.055163
 30
0.0
 10
112.719865
 20
331.099887
 30
0.0
 11
96.888824
 21
331.379534
 31
0.0
 11
102.173710
 21
331.090388
 31
0.0
 11
107.456247
 21
331.001970
 31
0.0
 11
112.719865
 21
331.099887
 31
0.0
  0
SPLINE
  5
1a0
100
AcDbEntity
  8
0
 62
7
100
AcDbSpline
 70
0
 71
3
 72
10
 73
6
 74
4
 40
0.000000
 40
0.000000
 40
0.000000
 40
0.000000
 40
4.897943
 40
9.793990
 40
14.687840
 40
14.687840
 40
14.687840
 40
14.687840
 10
124.914572
 20
218.700848
 30
0.0
 10
126.358366
 20
219.463113
 30
0.0
 10
129.245396
 20
220.987348
 30
0.0
 10
133.537706
 20
223.343040
 30
0.0
 10
136.372583
 20
224.959459
 30
0.0
 10
137.789703
 20
225.767487
 30
0.0
 11
124.914572
 21
218.700848
 31
0.0
 11
129.239733
 21
220.999288
 31
0.0
 11
133.531825
 21
223.354967
 31
0.0
 11
137.789703
 21
225.767487
 31
0.0
  0
SPLINE
  5
1a1
100
AcDbEntity
  8
0
 62
7
100
AcDbSpline
 70
0
 71
3
 72
10
 73
6
 74
4
 40
0.000000
 40
0.000000
 40
0.000000
 40
0.000000
 40
0.480251
 40
1.281240
 40
1.554525
 40
1.554525
 40
1.554525
 40
1.554525
 10
137.789703
 20
225.767487
 30
0.0
 10
137.928615
 20
225.847051
 30
0.0
 10
138.299214
 20
226.059316
 30
0.0
 10
138.745541
 20
226.322587
 30
0.0
 10
139.055766
 20
226.501445
 30
0.0
 10
139.134684
 20
226.546945
 30
0.0
 11
137.789703
 21
225.767487
 31
0.0
 11
138.206056
 21
226.006842
 31
0.0
 11
138.898045
 21
226.410246
 31
0.0
 11
139.134684
 21
226.546945
 31
0.0
  0
LINE
  5
1a2
100
AcDbEntity
  8
0
 62
7
100
AcDbLine
 10
212.695807
 20
144.067586
 30
0.0
 11
212.653210
 21
144.015290
 31
0.0
  0
SPLINE
  5
1a3
100
AcDbEntity
  8
0
 62
7
100
AcDbSpline
 70
0
 71
3
 72
10
 73
6
 74
4
 40
0.000000
 40
0.000000
 40
0.000000
 40
0.000000
 40
4.626214
 40
9.252648
 40
13.879400
 40
13.879400
 40
13.879400
 40
13.879400
 10
203.844731
 20
133.376931
 30
0.0
 10
204.837884
 20
134.556609
 30
0.0
 10
206.824238
 20
136.916023
 30
0.0
 10
209.774982
 20
140.479446
 30
0.0
 10
211.722176
 20
142.871512
 30
0.0
 10
212.695807
 20
144.067586
 30
0.0
 11
203.844731
 21
133.376931
 31
0.0
 11
206.819378
 21
136.919999
 31
0.0
 11
209.769909
 21
140.483461
 31
0.0
 11
212.695807
 21
144.067586
 31
0.0
  0
ENDSEC
  0
SECTION
  2
OBJECTS
  0
DICTIONARY
  5
C
330
0
100
AcDbDictionary
  3
ACAD_GROUP
350
D
  3
ACAD_MLINESTYLE
350
17
  0
DICTIONARY
  5
D
330
C
100
AcDbDictionary
  0
DICTIONARY
  5
1A
330
C
100
AcDbDictionary
  0
DICTIONARY
  5
17
330
C
100
AcDbDictionary
  3
STANDARD
350
18
  0
DICTIONARY
  5
19
330
C
100
AcDbDictionary
  0
ENDSEC
  0
EOF
