<?xml version="1.0" encoding="UTF-8" standalone="no"?>
<!-- Created with matplotlib (http://matplotlib.org/) -->

<svg
   xmlns:dc="http://purl.org/dc/elements/1.1/"
   xmlns:cc="http://creativecommons.org/ns#"
   xmlns:rdf="http://www.w3.org/1999/02/22-rdf-syntax-ns#"
   xmlns:svg="http://www.w3.org/2000/svg"
   xmlns="http://www.w3.org/2000/svg"
   xmlns:sodipodi="http://sodipodi.sourceforge.net/DTD/sodipodi-0.dtd"
   xmlns:inkscape="http://www.inkscape.org/namespaces/inkscape"
   height="8.5in"
   version="1.1"
   viewBox="0 0 792.00003 612.00003"
   width="11in"
   id="svg1061"
   sodipodi:docname="torus2.svg"
   inkscape:version="0.92.3 (2405546, 2018-03-11)">
  <metadata
     id="metadata1065">
    <rdf:RDF>
      <cc:Work
         rdf:about="">
        <dc:format>image/svg+xml</dc:format>
        <dc:type
           rdf:resource="http://purl.org/dc/dcmitype/StillImage" />
        <dc:title></dc:title>
      </cc:Work>
    </rdf:RDF>
  </metadata>
  <sodipodi:namedview
     pagecolor="#ffffff"
     bordercolor="#666666"
     borderopacity="1"
     objecttolerance="10"
     gridtolerance="10"
     guidetolerance="10"
     inkscape:pageopacity="0"
     inkscape:pageshadow="2"
     inkscape:window-width="1920"
     inkscape:window-height="1025"
     id="namedview1063"
     showgrid="false"
     units="in"
     inkscape:zoom="0.67311848"
     inkscape:cx="910.07154"
     inkscape:cy="189.54743"
     inkscape:window-x="0"
     inkscape:window-y="27"
     inkscape:window-maximized="1"
     inkscape:current-layer="svg1061" />
  <defs
     id="defs1008"
     style="stroke-linecap:butt;stroke-linejoin:round">
    <style
       type="text/css"
       id="style1006">
*{stroke-linecap:butt;stroke-linejoin:round;}
  </style>
  </defs>
  <g
     id="matplotlib.axis_1"
     style="stroke-linecap:butt;stroke-linejoin:round"
     transform="translate(0,271.64002)" />
  <g
     id="matplotlib.axis_2"
     style="stroke-linecap:butt;stroke-linejoin:round"
     transform="translate(0,271.64002)" />
  <g
     id="g1161"
     transform="matrix(1.6,0,0,1.6,170.44964,-418.33972)"
     style="stroke-linecap:butt;stroke-linejoin:round">
    <g
       transform="translate(0,271.64002)"
       style="stroke-linecap:butt;stroke-linejoin:round"
       id="line2d_1">
      <path
         sodipodi:nodetypes="ccccccccccccccccccccccc"
         inkscape:connector-curvature="0"
         id="path1018"
         d="m 249.83327,309.36579 c 45.60955,-20.28594 78.55435,-67.40817 79.01386,-117.70943 1.29666,-43.83814 -23.10769,-86.18761 -59.7278,-109.627937 C 229.67,55.785764 176.25245,46.746035 132.67305,68.189495 86.737853,89.842222 58.590194,140.999 60.792746,191.18519 c 0.07905,10.99407 2.562527,21.88331 4.504515,32.53236 l -2.908073,17.22668 7.229717,-0.27564 -5.410567,39.16876 -7.635295,-4.43975 -2.908073,17.22669 C 14.935047,240.47926 6.3854122,166.9319 34.887264,108.17015 55.110535,64.45064 96.406656,31.354725 143.60896,21.518818 c 62.12578,-13.4208638 132.13944,1.92511 178.14025,47.166217 39.97732,38.426235 57.60177,97.766675 46.0711,151.892045 -6.67777,33.35189 -23.47874,64.45696 -47.18533,88.78871 l -18.88063,10.24231 1.1802,-10.24231 H 285.23412 267.5337 l 0.76261,8.82487 -22.87469,0.23564 z"
         clip-path="url(#p49f095f293)"
         style="fill:none;stroke:#0000ff;stroke-linecap:square;stroke-linejoin:round" />
    </g>
    <g
       transform="translate(0,271.64002)"
       style="stroke-linecap:butt;stroke-linejoin:round"
       id="line2d_2">
      <path
         sodipodi:nodetypes="cc"
         inkscape:connector-curvature="0"
         id="path1021"
         d="m 320.83545,309.36579 c -3.54221,-6.23897 -7.14542,-12.45745 -10.84476,-18.6202"
         clip-path="url(#p49f095f293)"
         style="fill:none;stroke:#000000;stroke-linecap:square;stroke-linejoin:round" />
    </g>
    <g
       transform="translate(0,271.64002)"
       style="stroke-linecap:butt;stroke-linejoin:round"
       id="line2d_3">
      <path
         sodipodi:nodetypes="cccc"
         inkscape:connector-curvature="0"
         id="path1024"
         d="m 343.17506,233.39912 c -5.76495,-5.48999 -11.63279,-10.8703 -17.66771,-16.06409 -0.26902,-0.22781 -1.18095,-1.00527 -1.11794,-0.94973 -0.1751,-0.14731 -1.51603,-1.27533 -0.91868,-0.77284"
         clip-path="url(#p49f095f293)"
         style="fill:none;stroke:#000000;stroke-linecap:square;stroke-linejoin:round" />
    </g>
    <g
       transform="translate(0,271.64002)"
       style="stroke-linecap:butt;stroke-linejoin:round"
       id="line2d_4">
      <path
         sodipodi:nodetypes="ccc"
         inkscape:connector-curvature="0"
         id="path1027"
         d="m 374.82244,188.73948 c -0.20424,-0.12532 -1.23561,-0.75798 -1.7599,-1.07961 -7.56965,-4.62975 -15.24478,-9.22005 -23.03128,-13.61436"
         clip-path="url(#p49f095f293)"
         style="fill:none;stroke:#000000;stroke-linecap:square;stroke-linejoin:round" />
    </g>
    <g
       transform="translate(0,271.64002)"
       style="stroke-linecap:butt;stroke-linejoin:round"
       id="line2d_5">
      <path
         sodipodi:nodetypes="ccccc"
         inkscape:connector-curvature="0"
         id="path1030"
         d="m 334.05498,121.55697 c -7.10782,-2.14045 -14.26732,-4.10795 -21.4864,-5.80791 -3.34181,-0.77635 -6.70149,-1.47839 -10.08137,-2.06863 -0.73123,-0.11952 -1.28259,-0.22065 -1.95748,-0.32171 -0.0916,-0.0145 -1.32056,-0.20852 -0.59154,-0.0934"
         clip-path="url(#p49f095f293)"
         style="fill:none;stroke:#000000;stroke-linecap:square;stroke-linejoin:round" />
    </g>
    <g
       transform="translate(0,271.64002)"
       style="stroke-linecap:butt;stroke-linejoin:round"
       id="line2d_6">
      <path
         sodipodi:nodetypes="ccc"
         inkscape:connector-curvature="0"
         id="path1033"
         d="m 343.75229,86.180917 c -1.31995,-0.220666 -2.75644,-0.464677 -3.84834,-0.64441 -12.46769,-2.037983 -25.03835,-4.004143 -37.657,-5.479615"
         clip-path="url(#p49f095f293)"
         style="fill:none;stroke:#000000;stroke-linecap:square;stroke-linejoin:round" />
    </g>
    <g
       transform="translate(0,271.64002)"
       style="stroke-linecap:butt;stroke-linejoin:round"
       id="line2d_7">
      <path
         sodipodi:nodetypes="ccccc"
         inkscape:connector-curvature="0"
         id="path1036"
         d="m 250.41702,47.929124 c -2.46952,0.03521 -4.93866,0.09499 -7.40719,0.183803 -10.06637,0.52217 -20.40641,1.300325 -29.77686,5.315933 -2.7563,1.188152 -5.72624,3.1361 -7.54765,5.130799 -0.63374,0.722417 -0.60322,0.674411 -1.17287,1.433715"
         clip-path="url(#p49f095f293)"
         style="fill:none;stroke:#000000;stroke-linecap:square;stroke-linejoin:round" />
    </g>
    <g
       transform="translate(0,271.64002)"
       style="stroke-linecap:butt;stroke-linejoin:round"
       id="line2d_8">
      <path
         sodipodi:nodetypes="cccccc"
         inkscape:connector-curvature="0"
         id="path1039"
         d="m 243.63562,19.787781 c -0.69524,-0.0037 -2.70556,-0.01431 -3.49957,-0.01847 -2.11956,-0.01151 -3.76863,-0.0194 -5.90972,-0.0291 -1.69127,-0.0062 -3.65768,-0.01321 -5.51385,-0.01441 -17.42512,0.07779 -35.379,0.02285 -52.60632,3.836073 -9.86119,2.310705 -20.06028,6.087855 -26.83722,13.97402"
         clip-path="url(#p49f095f293)"
         style="fill:none;stroke:#000000;stroke-linecap:square;stroke-linejoin:round" />
    </g>
    <g
       transform="translate(0,271.64002)"
       style="stroke-linecap:butt;stroke-linejoin:round"
       id="line2d_9">
      <path
         sodipodi:nodetypes="ccc"
         inkscape:connector-curvature="0"
         id="path1042"
         d="m 77.73069,84.355191 c 4.449095,4.646317 9.355727,8.867126 14.523435,12.649824 1.027208,0.762762 3.249117,2.274508 3.509801,2.440158"
         clip-path="url(#p49f095f293)"
         style="fill:none;stroke:#000000;stroke-linecap:square;stroke-linejoin:round" />
    </g>
    <g
       transform="translate(0,271.64002)"
       style="stroke-linecap:butt;stroke-linejoin:round"
       id="line2d_10">
      <path
         sodipodi:nodetypes="cc"
         inkscape:connector-curvature="0"
         id="path1045"
         d="m 19.472512,142.73591 c 7.49833,2.87483 15.158684,5.47936 22.923196,7.73798"
         clip-path="url(#p49f095f293)"
         style="fill:none;stroke:#000000;stroke-linecap:square;stroke-linejoin:round" />
    </g>
    <g
       transform="translate(0,271.64002)"
       style="stroke-linecap:butt;stroke-linejoin:round"
       id="line2d_11">
      <path
         sodipodi:nodetypes="ccc"
         inkscape:connector-curvature="0"
         id="path1048"
         d="m 44.53146,224.64826 c 7.039152,-0.67126 14.063504,-1.49286 21.063055,-2.50029 l -0.03313,0.005"
         clip-path="url(#p49f095f293)"
         style="fill:none;stroke:#000000;stroke-linecap:square;stroke-linejoin:round" />
    </g>
  </g>
  <defs
     id="defs1059">
    <clipPath
       id="p49f095f293"
       style="stroke-linecap:butt;stroke-linejoin:round">
      <rect
         height="318.95999"
         width="371.36014"
         x="10.7"
         y="10.7"
         id="rect1056"
         style="stroke-linecap:butt;stroke-linejoin:round" />
    </clipPath>
  </defs>
  <g
     style="stroke-linecap:butt;stroke-linejoin:round"
     transform="matrix(-1.6,0,0,-1.6,624.08143,1049.3883)"
     id="g2044">
    <g
       id="g2002"
       style="stroke-linecap:butt;stroke-linejoin:round"
       transform="translate(0,271.64002)">
      <path
         style="fill:none;stroke:#0000ff;stroke-linecap:square;stroke-linejoin:round"
         clip-path="url(#p49f095f293)"
         d="m 249.83327,309.36579 c 45.60955,-20.28594 78.55435,-67.40817 79.01386,-117.70943 1.29666,-43.83814 -23.10769,-86.18761 -59.7278,-109.627937 C 229.67,55.785764 176.25245,46.746035 132.67305,68.189495 86.737853,89.842222 58.590194,140.999 60.792746,191.18519 c 0.07905,10.99407 2.562527,21.88331 4.504515,32.53236 l -2.908073,17.22668 7.229717,-0.27564 -5.410567,39.16876 -7.635295,-4.43975 -2.908073,17.22669 C 14.935047,240.47926 6.3854122,166.9319 34.887264,108.17015 55.110535,64.45064 96.406656,31.354725 143.60896,21.518818 c 62.12578,-13.4208638 132.13944,1.92511 178.14025,47.166217 39.97732,38.426235 57.60177,97.766675 46.0711,151.892045 -6.67777,33.35189 -23.47874,64.45696 -47.18533,88.78871 l -18.88063,10.24231 1.1802,-10.24231 H 285.23412 267.5337 l 0.76261,8.82487 -22.87469,0.23564 z"
         id="path2000"
         inkscape:connector-curvature="0"
         sodipodi:nodetypes="ccccccccccccccccccccccc" />
    </g>
    <g
       id="g2006"
       style="stroke-linecap:butt;stroke-linejoin:round"
       transform="translate(0,271.64002)">
      <path
         style="fill:none;stroke:#000000;stroke-linecap:square;stroke-linejoin:round"
         clip-path="url(#p49f095f293)"
         d="m 320.83545,309.36579 c -3.54221,-6.23897 -7.14542,-12.45745 -10.84476,-18.6202"
         id="path2004"
         inkscape:connector-curvature="0"
         sodipodi:nodetypes="cc" />
    </g>
    <g
       id="g2010"
       style="stroke-linecap:butt;stroke-linejoin:round"
       transform="translate(0,271.64002)">
      <path
         style="fill:none;stroke:#000000;stroke-linecap:square;stroke-linejoin:round"
         clip-path="url(#p49f095f293)"
         d="m 343.17506,233.39912 c -5.76495,-5.48999 -11.63279,-10.8703 -17.66771,-16.06409 -0.26902,-0.22781 -1.18095,-1.00527 -1.11794,-0.94973 -0.1751,-0.14731 -1.51603,-1.27533 -0.91868,-0.77284"
         id="path2008"
         inkscape:connector-curvature="0"
         sodipodi:nodetypes="cccc" />
    </g>
    <g
       id="g2014"
       style="stroke-linecap:butt;stroke-linejoin:round"
       transform="translate(0,271.64002)">
      <path
         style="fill:none;stroke:#000000;stroke-linecap:square;stroke-linejoin:round"
         clip-path="url(#p49f095f293)"
         d="m 374.82244,188.73948 c -0.20424,-0.12532 -1.23561,-0.75798 -1.7599,-1.07961 -7.56965,-4.62975 -15.24478,-9.22005 -23.03128,-13.61436"
         id="path2012"
         inkscape:connector-curvature="0"
         sodipodi:nodetypes="ccc" />
    </g>
    <g
       id="g2018"
       style="stroke-linecap:butt;stroke-linejoin:round"
       transform="translate(0,271.64002)">
      <path
         style="fill:none;stroke:#000000;stroke-linecap:square;stroke-linejoin:round"
         clip-path="url(#p49f095f293)"
         d="m 334.05498,121.55697 c -7.10782,-2.14045 -14.26732,-4.10795 -21.4864,-5.80791 -3.34181,-0.77635 -6.70149,-1.47839 -10.08137,-2.06863 -0.73123,-0.11952 -1.28259,-0.22065 -1.95748,-0.32171 -0.0916,-0.0145 -1.32056,-0.20852 -0.59154,-0.0934"
         id="path2016"
         inkscape:connector-curvature="0"
         sodipodi:nodetypes="ccccc" />
    </g>
    <g
       id="g2022"
       style="stroke-linecap:butt;stroke-linejoin:round"
       transform="translate(0,271.64002)">
      <path
         style="fill:none;stroke:#000000;stroke-linecap:square;stroke-linejoin:round"
         clip-path="url(#p49f095f293)"
         d="m 343.75229,86.180917 c -1.31995,-0.220666 -2.75644,-0.464677 -3.84834,-0.64441 -12.46769,-2.037983 -25.03835,-4.004143 -37.657,-5.479615"
         id="path2020"
         inkscape:connector-curvature="0"
         sodipodi:nodetypes="ccc" />
    </g>
    <g
       id="g2026"
       style="stroke-linecap:butt;stroke-linejoin:round"
       transform="translate(0,271.64002)">
      <path
         style="fill:none;stroke:#000000;stroke-linecap:square;stroke-linejoin:round"
         clip-path="url(#p49f095f293)"
         d="m 250.41702,47.929124 c -2.46952,0.03521 -4.93866,0.09499 -7.40719,0.183803 -10.06637,0.52217 -20.40641,1.300325 -29.77686,5.315933 -2.7563,1.188152 -5.72624,3.1361 -7.54765,5.130799 -0.63374,0.722417 -0.60322,0.674411 -1.17287,1.433715"
         id="path2024"
         inkscape:connector-curvature="0"
         sodipodi:nodetypes="ccccc" />
    </g>
    <g
       id="g2030"
       style="stroke-linecap:butt;stroke-linejoin:round"
       transform="translate(0,271.64002)">
      <path
         style="fill:none;stroke:#000000;stroke-linecap:square;stroke-linejoin:round"
         clip-path="url(#p49f095f293)"
         d="m 243.63562,19.787781 c -0.69524,-0.0037 -2.70556,-0.01431 -3.49957,-0.01847 -2.11956,-0.01151 -3.76863,-0.0194 -5.90972,-0.0291 -1.69127,-0.0062 -3.65768,-0.01321 -5.51385,-0.01441 -17.42512,0.07779 -35.379,0.02285 -52.60632,3.836073 -9.86119,2.310705 -20.06028,6.087855 -26.83722,13.97402"
         id="path2028"
         inkscape:connector-curvature="0"
         sodipodi:nodetypes="cccccc" />
    </g>
    <g
       id="g2034"
       style="stroke-linecap:butt;stroke-linejoin:round"
       transform="translate(0,271.64002)">
      <path
         style="fill:none;stroke:#000000;stroke-linecap:square;stroke-linejoin:round"
         clip-path="url(#p49f095f293)"
         d="m 77.73069,84.355191 c 4.449095,4.646317 9.355727,8.867126 14.523435,12.649824 1.027208,0.762762 3.249117,2.274508 3.509801,2.440158"
         id="path2032"
         inkscape:connector-curvature="0"
         sodipodi:nodetypes="ccc" />
    </g>
    <g
       id="g2038"
       style="stroke-linecap:butt;stroke-linejoin:round"
       transform="translate(0,271.64002)">
      <path
         style="fill:none;stroke:#000000;stroke-linecap:square;stroke-linejoin:round"
         clip-path="url(#p49f095f293)"
         d="m 19.472512,142.73591 c 7.49833,2.87483 15.158684,5.47936 22.923196,7.73798"
         id="path2036"
         inkscape:connector-curvature="0"
         sodipodi:nodetypes="cc" />
    </g>
    <g
       id="g2042"
       style="stroke-linecap:butt;stroke-linejoin:round"
       transform="translate(0,271.64002)">
      <path
         style="fill:none;stroke:#000000;stroke-linecap:square;stroke-linejoin:round"
         clip-path="url(#p49f095f293)"
         d="m 44.53146,224.64826 c 7.039152,-0.67126 14.063504,-1.49286 21.063055,-2.50029 l -0.03313,0.005"
         id="path2040"
         inkscape:connector-curvature="0"
         sodipodi:nodetypes="ccc" />
    </g>
  </g>
</svg>
