<?xml version="1.0" encoding="utf-8" standalone="no"?>
<!DOCTYPE svg PUBLIC "-//W3C//DTD SVG 1.1//EN"
  "http://www.w3.org/Graphics/SVG/1.1/DTD/svg11.dtd">
<!-- Created with matplotlib (http://matplotlib.org/) -->
<svg height="340.36pt" version="1.1" viewBox="0 0 340.36 340.36" width="340.36pt" xmlns="http://www.w3.org/2000/svg" xmlns:xlink="http://www.w3.org/1999/xlink">
 <defs>
  <style type="text/css">
*{stroke-linecap:butt;stroke-linejoin:round;}
  </style>
 </defs>
 <g id="figure_1">
  <g id="patch_1">
   <path d="M 0 340.36 
L 340.36 340.36 
L 340.36 0 
L 0 0 
z
" style="fill:#ffffff;"/>
  </g>
  <g id="axes_1">
   <g id="patch_2">
    <path d="M 10.7 329.66 
L 329.66 329.66 
L 329.66 10.7 
L 10.7 10.7 
z
" style="fill:#ffffff;"/>
   </g>
   <g id="matplotlib.axis_1"/>
   <g id="matplotlib.axis_2"/>
   <g id="line2d_1">
    <path clip-path="url(#pbe9bec4ed1)" d="M 170.18 170.18 
L 173.175584 169.695354 
L 176.167652 168.984037 
L 179.138108 168.042903 
L 182.068009 166.870615 
L 184.937776 165.467777 
L 187.727429 163.837048 
L 190.416833 161.983213 
L 192.985966 159.913225 
L 195.415177 157.636219 
L 197.685468 155.163474 
L 199.778752 152.508356 
L 201.678119 149.686212 
L 203.368075 146.71424 
L 204.834781 143.611316 
L 206.066251 140.3978 
L 207.05254 137.095309 
L 207.785896 133.726472 
L 208.260883 130.314658 
L 208.474464 126.883691 
L 208.426056 123.457556 
L 208.117538 120.060097 
L 207.553226 116.714707 
L 206.739798 113.444029 
L 205.686193 110.269666 
L 204.403454 107.2119 
L 202.904545 104.289439 
L 201.204126 101.519181 
L 199.318298 98.916027 
L 197.264318 96.492711 
L 195.060297 94.259695 
L 192.724881 92.225092 
L 190.276922 90.394654 
L 187.735155 88.771803 
L 185.117884 87.357721 
L 182.44269 86.151488 
L 179.726169 85.150268 
L 176.983707 84.349542 
L 173.769973 83.660781 
L 170.559547 83.22549 
L 167.369136 83.030987 
L 164.212553 83.063921 
L 161.100895 83.310976 
L 158.042863 83.759528 
L 154.622224 84.50443 
L 151.288297 85.48371 
L 148.047785 86.68694 
L 144.907412 88.107528 
L 141.875042 89.742478 
L 138.96059 91.591704 
L 136.516995 93.386949 
L 134.183573 95.349321 
L 131.972409 97.480295 
L 129.897285 99.780524 
L 127.973515 102.249301 
L 126.217695 104.884095 
L 124.647397 107.680163 
L 123.280812 110.630239 
L 122.285546 113.273939 
L 121.464953 116.015472 
L 120.830178 118.845229 
L 120.391817 121.751988 
L 120.159689 124.722943 
L 120.141687 125.223359 
L 115.438338 155.529798 
L 113.767225 152.703186 
L 112.283248 149.813791 
L 110.988717 146.875 
L 109.884868 143.900203 
L 108.971843 140.902674 
L 108.126649 137.293942 
L 107.550982 133.692912 
L 107.238792 130.120046 
L 107.181902 126.59413 
L 107.370213 123.131845 
L 107.791986 119.747352 
L 108.434228 116.451946 
L 109.283138 113.253791 
L 110.324648 110.157808 
L 111.544998 107.165735 
L 113.177735 103.80464 
L 115.018804 100.577533 
L 117.054438 97.47599 
L 119.275535 94.491062 
L 121.677891 91.615532 
L 124.261844 88.845977 
L 127.031342 86.184351 
L 129.992585 83.638928 
L 133.152387 81.224592 
L 136.516467 78.962524 
L 139.564926 77.164892 
L 142.765239 75.518033 
L 146.114134 74.043001 
L 149.605174 72.761803 
L 153.228519 71.696646 
L 156.970858 70.86919 
L 160.168406 70.375992 
L 163.425649 70.072883 
L 166.729784 69.969523 
L 170.066755 70.074217 
L 173.421432 70.393747 
L 176.777824 70.933244 
L 180.119292 71.696095 
L 183.428776 72.683894 
L 186.689014 73.896411 
L 189.882764 75.331615 
L 192.993012 76.985708 
L 196.00316 78.853194 
L 198.897212 80.926968 
L 201.659927 83.198424 
L 204.276963 85.657576 
L 206.734992 88.293192 
L 209.021803 91.092934 
L 211.126374 94.043504 
L 213.038938 97.130787 
L 214.751015 100.340003 
L 216.25544 103.655845 
L 217.546366 107.062615 
L 218.619262 110.544361 
L 219.470886 114.084992 
L 220.099261 117.668397 
L 220.503632 121.278549 
L 220.684423 124.899594 
L 220.643186 128.515942 
L 220.382544 132.112336 
L 219.906138 135.673922 
L 219.218571 139.186299 
L 218.325352 142.635574 
L 217.232842 146.008399 
L 215.948207 149.292011 
L 214.479365 152.474265 
L 212.834948 155.543663 
L 211.024255 158.489389 
L 209.057215 161.301336 
L 206.944345 163.970145 
L 204.696711 166.487239 
L 202.32588 168.844867 
L 200.849231 170.18 
L 200.849231 170.18 
" style="fill:none;stroke:#0000ff;stroke-linecap:square;"/>
   </g>
   <g id="line2d_2">
    <path clip-path="url(#pbe9bec4ed1)" d="M 106.67727 131.51726 
L 106.675093 131.517007 
L 107.123948 131.569303 
L 107.123235 131.569233 
L 107.567097 131.612442 
L 107.567884 131.612505 
L 108.006227 131.647085 
L 108.008547 131.647227 
L 108.44088 131.673637 
L 108.444761 131.673808 
L 108.87062 131.692505 
L 108.876086 131.692655 
L 109.29504 131.704092 
L 109.302113 131.704172 
L 109.713758 131.708797 
L 109.722456 131.708761 
L 110.126419 131.707018 
L 110.136756 131.706819 
L 110.532693 131.699145 
L 110.544681 131.698739 
L 110.932276 131.685563 
L 110.945922 131.684907 
L 111.324889 131.666649 
L 111.340196 131.665702 
L 111.710273 131.642775 
L 111.727246 131.641498 
L 112.088198 131.614303 
L 112.106834 131.612657 
L 112.458453 131.581586 
L 112.478749 131.579536 
L 112.820848 131.544969 
L 112.842799 131.542481 
L 113.175216 131.504787 
L 113.198815 131.501829 
L 113.521409 131.461367 
L 113.546645 131.457907 
L 113.859299 131.415022 
L 113.886159 131.411033 
L 114.188774 131.36606 
L 114.217246 131.361512 
L 114.50974 131.314774 
L 114.539808 131.309643 
L 114.822121 131.26145 
L 114.853768 131.255712 
L 115.125855 131.206361 
L 115.159063 131.199993 
L 115.420893 131.149771 
L 115.455644 131.142754 
L 115.707203 131.091935 
L 115.743475 131.084248 
L 115.984763 131.033095 
L 116.022536 131.024721 
L 116.253564 130.973485 
L 116.292816 130.964407 
L 116.513608 130.913328 
L 116.554315 130.903531 
L 116.764907 130.852837 
L 116.807047 130.842308 
L 117.007481 130.792216 
L 117.05103 130.780942 
L 117.241361 130.73166 
L 117.286296 130.719631 
L 117.466586 130.671356 
L 117.512882 130.65856 
L 117.6832 130.611478 
L 117.730832 130.597908 
L 117.891255 130.552196 
L 117.9402 130.537843 
L 118.090809 130.493669 
L 118.141041 130.478527 
L 118.281925 130.43605 
L 118.333421 130.420111 
L 118.46467 130.379481 
L 118.517406 130.362742 
L 118.639118 130.324101 
L 118.693068 130.306555 
L 118.805342 130.270037 
L 118.860484 130.251683 
L 118.963423 130.217414 
L 119.019733 130.198248 
L 119.113441 130.166347 
L 119.170897 130.146366 
L 119.255481 130.116946 
L 119.314059 130.096148 
L 119.389629 130.069314 
" style="fill:none;stroke:#000000;stroke-linecap:square;"/>
   </g>
   <g id="line2d_3">
    <path clip-path="url(#pbe9bec4ed1)" d="M 116.027607 97.485607 
L 116.028288 97.483104 
L 115.601379 99.335205 
L 115.601462 99.334705 
L 115.397809 101.087882 
L 115.423022 102.718935 
L 115.671889 104.205391 
L 116.127245 105.528317 
L 116.760331 106.67446 
L 117.532654 107.637814 
L 118.579453 108.555841 
L 119.678993 109.231555 
L 120.923304 109.754709 
L 122.302316 110.103845 
L 123.637943 110.227941 
L 123.616135 110.227822 
" style="fill:none;stroke:#000000;stroke-linecap:square;"/>
   </g>
   <g id="line2d_4">
    <path clip-path="url(#pbe9bec4ed1)" d="M 142.515485 74.613007 
L 142.517291 74.610675 
L 138.778683 79.619287 
L 136.506745 83.004995 
L 134.858088 85.861559 
L 133.874023 87.965811 
L 133.21949 89.871837 
L 132.924712 91.344711 
L 132.875257 92.607867 
L 133.033749 93.64143 
L 133.391332 94.531587 
L 133.895818 95.195621 
L 134.245564 95.477716 
L 134.233105 95.469387 
" style="fill:none;stroke:#000000;stroke-linecap:square;"/>
   </g>
   <g id="line2d_5">
    <path clip-path="url(#pbe9bec4ed1)" d="M 161.828639 69.411644 
L 161.830448 69.409851 
L 157.493022 73.849486 
L 154.255862 77.460814 
L 151.934373 80.379616 
L 150.417645 82.638538 
L 149.51509 84.369088 
L 149.094231 85.618219 
L 149.02433 86.451125 
L 149.022828 86.436109 
" style="fill:none;stroke:#000000;stroke-linecap:square;"/>
   </g>
   <g id="line2d_6">
    <path clip-path="url(#pbe9bec4ed1)" d="M 180.736292 70.983211 
L 180.738683 70.981597 
L 175.626275 74.558796 
L 171.704326 77.566637 
L 168.840162 80.038512 
L 166.981747 81.921046 
L 166.017893 83.172544 
L 166.027563 83.156856 
" style="fill:none;stroke:#000000;stroke-linecap:square;"/>
   </g>
   <g id="line2d_7">
    <path clip-path="url(#pbe9bec4ed1)" d="M 198.675233 79.977334 
L 198.67731 79.97653 
L 192.636718 82.424695 
L 188.067991 84.51049 
L 185.008074 86.136763 
L 183.81723 86.890429 
L 183.830812 86.880949 
" style="fill:none;stroke:#000000;stroke-linecap:square;"/>
   </g>
   <g id="line2d_8">
    <path clip-path="url(#pbe9bec4ed1)" d="M 213.558773 96.781211 
L 213.561107 96.780934 
L 213.083243 96.837558 
L 213.083936 96.837474 
L 212.618273 96.893468 
L 212.617355 96.89358 
L 212.16364 96.94894 
L 212.161138 96.949249 
L 211.71913 97.00397 
L 211.715072 97.004479 
L 211.284537 97.058556 
L 211.278947 97.059268 
L 210.859663 97.112695 
L 210.852566 97.113613 
L 210.444318 97.166385 
L 210.435738 97.16751 
L 210.038322 97.219622 
L 210.02828 97.220957 
L 209.6415 97.272402 
L 209.630016 97.273952 
L 209.253684 97.324723 
L 209.24078 97.326489 
L 208.874716 97.37658 
L 208.860408 97.378566 
L 208.504441 97.427969 
L 208.488749 97.430178 
L 208.142713 97.478885 
L 208.125653 97.481321 
L 207.789392 97.529324 
L 207.770979 97.53199 
L 207.444342 97.57928 
L 207.424592 97.58218 
L 207.107436 97.628748 
L 207.086362 97.631886 
L 206.77855 97.677721 
L 206.756167 97.681101 
L 206.457568 97.726193 
L 206.433887 97.72982 
L 206.144378 97.774157 
L 206.119411 97.778034 
L 205.838872 97.821605 
L 205.81263 97.825738 
L 205.540949 97.868529 
L 205.513443 97.872922 
L 205.250513 97.91492 
L 205.221751 97.919579 
L 204.967471 97.96077 
L 204.937463 97.965699 
L 204.691737 98.006067 
L 204.66049 98.011273 
L 204.423226 98.050803 
L 204.390749 98.05629 
L 204.161861 98.094964 
L 204.12816 98.100739 
L 203.907567 98.138541 
L 203.87265 98.144609 
L 203.660275 98.181519 
L 203.624147 98.187887 
L 203.419919 98.223887 
L 203.382584 98.230561 
L 203.186436 98.265628 
L 203.1479 98.272615 
L 202.959767 98.30673 
L 202.920035 98.314037 
L 202.73986 98.347175 
L 202.698934 98.354809 
L 202.526662 98.386947 
L 202.484547 98.394916 
L 202.320127 98.426029 
L 202.276825 98.43434 
L 202.120211 98.464402 
L 202.075725 98.473063 
L 201.926873 98.502046 
L 201.881205 98.511066 
L 201.740077 98.538942 
L 201.693228 98.548329 
L 201.559789 98.575067 
L 201.511761 98.58483 
L 201.385978 98.610399 
L 201.336771 98.620547 
L 201.218617 98.644915 
L 201.168232 98.655456 
L 201.057681 98.678588 
L 201.006119 98.689534 
L 200.903149 98.711394 
L 200.850409 98.722754 
L 200.755002 98.743305 
L 200.701084 98.755089 
L 200.613225 98.774293 
L 200.558129 98.786511 
L 200.477805 98.804327 
L 200.421529 98.816991 
L 200.348731 98.833376 
L 200.291274 98.846498 
L 200.225995 98.861408 
L 200.167357 98.874998 
L 200.109593 98.888388 
L 200.049772 98.902459 
L 199.999522 98.91428 
L 199.938516 98.928845 
L 199.895782 98.939049 
L 199.833589 98.95412 
L 199.798376 98.962654 
L 199.734993 98.978245 
L 199.707306 98.985055 
L 199.642732 99.001179 
L 199.622581 99.006211 
L 199.556813 99.022881 
L 199.544209 99.026077 
L 199.477245 99.043308 
L 199.4722 99.044607 
L 199.404039 99.062414 
L 199.406568 99.061754 
L 199.337207 99.080153 
L 199.347328 99.077468 
L 199.276764 99.096474 
L 199.294496 99.091697 
" style="fill:none;stroke:#000000;stroke-linecap:square;"/>
   </g>
   <g id="line2d_9">
    <path clip-path="url(#pbe9bec4ed1)" d="M 221.121347 120.361625 
L 221.12408 120.362061 
L 220.619882 120.281726 
L 220.620686 120.281853 
L 220.131265 120.204847 
L 220.130183 120.204679 
L 219.655198 120.130884 
L 219.652268 120.130434 
L 219.191393 120.059736 
L 219.186654 120.059018 
L 218.739575 119.991308 
L 218.733063 119.990335 
L 218.299477 119.92551 
L 218.291227 119.924292 
L 217.870846 119.862252 
L 217.86089 119.860802 
L 217.453437 119.801452 
L 217.441806 119.79978 
L 217.047014 119.743028 
L 217.033739 119.741145 
L 216.651352 119.686904 
L 216.63646 119.68482 
L 216.266235 119.633005 
L 216.249752 119.630729 
L 215.891453 119.58126 
L 215.873406 119.578802 
L 215.526809 119.531602 
L 215.507221 119.528971 
L 215.172109 119.483963 
L 215.151003 119.481168 
L 214.827172 119.438282 
L 214.804568 119.435331 
L 214.49182 119.394498 
L 214.467739 119.391399 
L 214.165886 119.352552 
L 214.140347 119.349313 
L 213.849208 119.312389 
L 213.822228 119.309017 
L 213.541631 119.273953 
L 213.513228 119.270457 
L 213.243008 119.237194 
L 213.213197 119.23358 
L 212.953199 119.202061 
L 212.921994 119.198336 
L 212.672067 119.168505 
L 212.639482 119.164677 
L 212.399485 119.136481 
L 212.365532 119.132555 
L 212.13533 119.105941 
L 212.100021 119.101925 
L 211.879486 119.076844 
L 211.842831 119.072743 
L 211.631841 119.049146 
L 211.59385 119.044968 
L 211.392291 119.022806 
L 211.352973 119.018557 
L 211.160735 118.997785 
L 211.120097 118.993471 
L 210.937078 118.974044 
L 210.895128 118.969671 
L 210.721232 118.951545 
L 210.677976 118.947119 
L 210.513111 118.930253 
L 210.468555 118.92578 
L 210.312637 118.91013 
L 210.266785 118.905617 
L 210.119735 118.891144 
L 210.07259 118.886595 
L 209.934335 118.873259 
L 209.885902 118.868681 
L 209.756372 118.856442 
L 209.706652 118.851842 
L 209.585786 118.840661 
L 209.534781 118.836044 
L 209.42252 118.825884 
L 209.370231 118.821256 
L 209.266523 118.812079 
L 209.21295 118.807447 
L 209.117748 118.799216 
L 209.06289 118.794585 
L 208.976151 118.787264 
L 208.920008 118.782641 
L 208.841695 118.776193 
L 208.784265 118.771584 
L 208.714344 118.765973 
L 208.655624 118.761383 
L 208.594068 118.756574 
L 208.534055 118.752011 
L 208.480841 118.747966 
L 208.419531 118.743437 
L 208.374641 118.740121 
L 208.312029 118.735632 
L 208.275448 118.73301 
L 208.21153 118.728567 
L 208.183249 118.726602 
L 208.118019 118.722212 
L 208.098033 118.720868 
L 208.031485 118.71654 
L 208.019794 118.71578 
L 207.95192 118.711519 
L 207.948528 118.711306 
L 207.879322 118.707121 
L 207.884237 118.707419 
L 207.813689 118.703317 
L 207.826925 118.704086 
L 207.755028 118.700075 
L 207.7766 118.701278 
" style="fill:none;stroke:#000000;stroke-linecap:square;"/>
   </g>
   <g id="line2d_10">
    <path clip-path="url(#pbe9bec4ed1)" d="M 217.900676 146.684792 
L 217.90386 146.686445 
L 217.411196 146.430588 
L 217.412354 146.431184 
L 216.934789 146.185167 
L 216.933965 146.184745 
L 216.471191 145.948247 
L 216.468427 145.946846 
L 216.020145 145.71956 
L 216.015483 145.717214 
L 215.5814 145.498846 
L 215.574879 145.49559 
L 215.154713 145.285855 
L 215.146372 145.281723 
L 214.739847 145.08035 
L 214.729721 145.075372 
L 214.336571 144.882098 
L 214.324697 144.876304 
L 213.944663 144.690879 
L 213.931075 144.684298 
L 213.563906 144.50648 
L 213.548636 144.499138 
L 213.194089 144.328696 
L 213.177168 144.32062 
L 212.835009 144.15733 
L 212.816468 144.148545 
L 212.486468 143.992194 
L 212.466335 143.982723 
L 212.148275 143.833105 
L 212.126578 143.822971 
L 211.820244 143.67989 
L 211.79701 143.669113 
L 211.502196 143.532379 
L 211.477449 143.520981 
L 211.193958 143.390413 
L 211.167723 143.378413 
L 210.895363 143.253836 
L 210.867662 143.241251 
L 210.606247 143.122498 
L 210.577103 143.109348 
L 210.326455 142.996258 
L 210.295888 142.982558 
L 210.055837 142.874977 
L 210.023866 142.860744 
L 209.794246 142.758523 
L 209.760891 142.743772 
L 209.541542 142.646769 
L 209.50682 142.631515 
L 209.297591 142.539595 
L 209.261519 142.52385 
L 209.062263 142.436882 
L 209.024857 142.42066 
L 208.835432 142.338518 
L 208.796707 142.321832 
L 208.61698 142.244395 
L 208.576949 142.227257 
L 208.406792 142.154411 
L 208.365467 142.13683 
L 208.204757 142.068464 
L 208.162151 142.050453 
L 208.010769 141.986461 
L 207.966893 141.968029 
L 207.824729 141.908309 
L 207.779593 141.889465 
L 207.646539 141.83392 
L 207.600153 141.814674 
L 207.476109 141.76321 
L 207.428481 141.743571 
L 207.313352 141.696099 
L 207.264489 141.676074 
L 207.158183 141.632509 
L 207.108093 141.612106 
L 207.010526 141.572366 
L 206.959214 141.551592 
L 206.870305 141.515598 
L 206.817777 141.49446 
L 206.737451 141.462137 
L 206.683712 141.440642 
L 206.611898 141.411919 
L 206.556951 141.390072 
L 206.493584 141.36488 
L 206.437432 141.342688 
L 206.382453 141.32096 
L 206.325097 141.298428 
L 206.278449 141.280103 
L 206.219892 141.257235 
L 206.181525 141.242253 
L 206.121766 141.219055 
L 206.091634 141.207359 
L 206.030674 141.183835 
L 206.008735 141.175369 
L 205.946573 141.151524 
L 205.93279 141.146237 
L 205.869425 141.122074 
L 205.863766 141.119916 
L 205.799195 141.095439 
L 205.801633 141.096363 
L 205.735853 141.071576 
L 205.746366 141.075537 
L 205.679372 141.050442 
L 205.697941 141.057398 
" style="fill:none;stroke:#000000;stroke-linecap:square;"/>
   </g>
   <g id="line2d_11">
    <path clip-path="url(#pbe9bec4ed1)" d="M 202.535848 169.279639 
L 202.537068 169.281126 
L 202.183352 168.85008 
L 202.183101 168.849778 
L 201.837157 168.433902 
L 201.835437 168.431861 
L 201.497379 168.030831 
L 201.494193 168.0271 
L 201.164118 167.640591 
L 201.159472 167.635218 
L 200.837463 167.262908 
L 200.831362 167.255941 
L 200.517487 166.897512 
L 200.50994 166.888997 
L 200.204255 166.544134 
L 200.19527 166.534116 
L 199.897819 166.202505 
L 199.887406 166.191028 
L 199.598223 165.872363 
L 199.586391 165.859471 
L 199.305499 165.553448 
L 199.29226 165.539183 
L 199.019674 165.245503 
L 199.005038 165.229906 
L 198.740764 164.948278 
L 198.724745 164.931388 
L 198.46878 164.661523 
L 198.451389 164.643379 
L 198.203726 164.384997 
L 198.184977 164.365636 
L 197.945599 164.118461 
L 197.925506 164.097919 
L 197.694394 163.861681 
L 197.672968 163.839994 
L 197.450097 163.614428 
L 197.427352 163.59163 
L 197.212691 163.376481 
L 197.188641 163.352604 
L 196.982156 163.14762 
L 196.956815 163.122696 
L 196.758469 162.927633 
L 196.731849 162.901692 
L 196.541602 162.716311 
L 196.513717 162.689384 
L 196.331524 162.513454 
L 196.302388 162.485567 
L 196.128205 162.318863 
L 196.09783 162.290045 
L 195.931609 162.132347 
L 195.900009 162.102623 
L 195.7417 161.95372 
L 195.708888 161.923115 
L 195.558441 161.7828 
L 195.524429 161.751339 
L 195.381794 161.619411 
L 195.346593 161.587116 
L 195.211718 161.463383 
L 195.175341 161.430276 
L 195.048173 161.314549 
L 195.010631 161.280652 
L 194.891119 161.172749 
L 194.852423 161.138082 
L 194.740513 161.037828 
L 194.700675 161.00241 
L 194.596316 160.909634 
L 194.555345 160.873483 
L 194.458485 160.788022 
L 194.416392 160.751155 
L 194.32698 160.67285 
L 194.283774 160.635284 
L 194.201761 160.563982 
L 194.157451 160.525733 
L 194.082787 160.461286 
L 194.037382 160.42237 
L 193.970019 160.364636 
L 193.923526 160.325065 
L 193.863418 160.273907 
L 193.815847 160.233695 
L 193.762947 160.188982 
L 193.714304 160.148142 
L 193.668569 160.109746 
L 193.618861 160.06829 
L 193.58025 160.036091 
L 193.529482 159.994029 
L 193.497954 159.967908 
L 193.446133 159.925252 
L 193.421648 159.905098 
L 193.36878 159.861857 
L 193.351302 159.847563 
L 193.297391 159.803746 
L 193.286885 159.795207 
L 193.231935 159.750823 
L 193.228369 159.747942 
L 193.172384 159.702998 
L 193.175727 159.705682 
L 193.11871 159.660185 
L 193.128934 159.668343 
L 193.070888 159.6223 
L 193.087966 159.635846 
" style="fill:none;stroke:#000000;stroke-linecap:square;"/>
   </g>
   <g id="line2d_12">
    <path clip-path="url(#pbe9bec4ed1)" d="M 174.52205 170.18 
L 174.491253 170.123024 
L 174.461919 170.068758 
L 174.430162 170.01085 
L 174.404893 169.964777 
L 174.372179 169.905959 
L 174.351042 169.867958 
L 174.317374 169.808249 
L 174.30043 169.778201 
L 174.265812 169.71762 
L 174.253117 169.695406 
L 174.217552 169.633972 
L 174.209159 169.619475 
L 174.172651 169.557205 
L 174.168608 169.55031 
L 174.131162 169.487222 
L 174.131514 169.487816 
L 174.093132 169.423926 
L 174.097921 169.431898 
L 174.058608 169.367222 
L 174.067873 169.382463 
" style="fill:none;stroke:#000000;stroke-linecap:square;"/>
   </g>
   <g id="line2d_13">
    <path clip-path="url(#pbe9bec4ed1)" d="M 195.737692 170.18 
L 198.186212 168.233137 
L 200.537969 166.123695 
L 202.781371 163.857358 
L 204.905144 161.440661 
L 206.898389 158.880964 
L 208.750632 156.186425 
L 210.451876 153.365979 
L 211.992646 150.429314 
L 213.364045 147.386848 
L 214.557808 144.249705 
L 215.566353 141.029687 
L 216.382843 137.739243 
L 217.001248 134.39143 
L 217.416405 130.999869 
L 217.624082 127.578696 
L 217.621038 124.142499 
L 217.405089 120.706249 
L 216.975161 117.285221 
L 216.331343 113.894904 
L 215.474934 110.550904 
L 214.408482 107.268835 
L 213.135809 104.064203 
L 211.662033 100.952281 
L 209.993566 97.947979 
L 208.138109 95.065703 
L 206.104622 92.319219 
L 203.90328 89.721512 
L 201.545414 87.284637 
L 199.043429 85.019588 
L 196.410702 82.93616 
L 193.661468 81.042829 
L 190.810675 79.346634 
L 187.873834 77.853085 
L 184.866843 76.56608 
L 181.805801 75.487854 
L 178.706812 74.618943 
L 175.585777 73.95818 
L 172.458186 73.502729 
L 169.338915 73.248137 
L 166.24202 73.188433 
L 162.573584 73.363583 
L 158.976416 73.793673 
L 155.468063 74.461606 
L 152.063071 75.348781 
L 148.772851 76.435718 
L 145.605695 77.702727 
L 142.566909 79.130588 
L 139.187256 80.975698 
L 135.986085 82.989617 
L 132.960649 85.151178 
L 130.10655 87.444507 
L 127.419252 89.859495 
L 124.895569 92.391768 
L 122.534993 95.042088 
L 120.340683 97.815174 
L 118.319993 100.718042 
L 116.484488 103.758071 
L 114.849484 106.941084 
L 113.621395 109.785292 
L 112.566604 112.735691 
L 111.698237 115.788725 
L 111.029417 118.938021 
L 110.572792 122.174427 
L 110.340124 125.486178 
L 110.34194 128.859151 
L 110.587247 132.277174 
L 111.083326 135.722376 
L 111.835575 139.175527 
L 112.847429 142.616377 
L 114.120311 146.023973 
L 115.653634 149.376936 
L 116.222229 150.478725 
L 116.222229 150.478725 
" style="fill:none;stroke:#0000ff;stroke-linecap:square;"/>
   </g>
   <g id="line2d_14">
    <path clip-path="url(#pbe9bec4ed1)" d="M 175.291538 170.18 
L 178.273403 169.321101 
L 181.223916 168.234358 
L 184.124626 166.919309 
L 186.956545 165.377284 
L 189.700347 163.611507 
L 192.336575 161.627163 
L 194.845868 159.431453 
L 197.209197 157.033617 
L 199.408102 154.444921 
L 201.424943 151.678628 
L 203.24314 148.749919 
L 204.84741 145.675799 
L 206.224002 142.474958 
L 207.360901 139.167608 
L 208.248033 135.775284 
L 208.877433 132.320627 
L 209.200865 129.411062 
L 209.33926 126.488436 
L 209.291746 123.566839 
L 209.058654 120.660409 
L 208.641524 117.783208 
L 208.0431 114.949101 
L 207.267316 112.171622 
L 206.109502 108.931782 
L 204.714559 105.813794 
L 203.095509 102.837671 
L 201.267311 100.021669 
L 199.246622 97.382043 
L 197.051518 94.932838 
L 194.701186 92.685712 
L 192.215589 90.649823 
L 189.615109 88.831749 
L 186.920186 87.235483 
L 184.150954 85.862479 
L 181.326886 84.711764 
L 178.466474 83.78011 
L 175.58693 83.062268 
L 172.70395 82.551246 
L 169.354694 82.205186 
L 166.038799 82.114077 
L 162.771885 82.261745 
L 159.56623 82.63178 
L 156.431068 83.208373 
L 153.373064 83.977083 
L 149.978673 85.075039 
L 146.696367 86.393319 
L 143.53078 87.922234 
L 140.487458 89.656813 
L 137.574097 91.596123 
L 134.801401 93.742053 
L 132.501699 95.791729 
L 130.332067 98.004008 
L 128.305954 100.379916 
L 126.438367 102.918891 
L 124.745529 105.618301 
L 123.244493 108.473092 
L 121.952736 111.475558 
L 121.025348 114.158764 
L 120.27536 116.934544 
L 119.713151 119.793114 
L 119.348499 122.723195 
L 119.190399 125.712067 
L 119.246882 128.74564 
L 119.357796 130.274432 
L 119.357796 130.274432 
" style="fill:none;stroke:#0000ff;stroke-linecap:square;"/>
   </g>
   <g id="line2d_15">
    <path clip-path="url(#pbe9bec4ed1)" d="M 98.618462 170.18 
L 98.618462 119.064615 
L 149.733846 119.064615 
L 149.733846 170.18 
L 98.618462 170.18 
" style="fill:none;stroke:#0000ff;stroke-linecap:square;"/>
   </g>
  </g>
 </g>
 <defs>
  <clipPath id="pbe9bec4ed1">
   <rect height="318.96" width="318.96" x="10.7" y="10.7"/>
  </clipPath>
 </defs>
</svg>
