<?xml version="1.0" encoding="utf-8" standalone="no"?>
<!DOCTYPE svg PUBLIC "-//W3C//DTD SVG 1.1//EN"
  "http://www.w3.org/Graphics/SVG/1.1/DTD/svg11.dtd">
<!-- Created with matplotlib (http://matplotlib.org/) -->
<svg height="340.36pt" version="1.1" viewBox="0 0 340.36 340.36" width="340.36pt" xmlns="http://www.w3.org/2000/svg" xmlns:xlink="http://www.w3.org/1999/xlink">
 <defs>
  <style type="text/css">
*{stroke-linecap:butt;stroke-linejoin:round;}
  </style>
 </defs>
 <g id="figure_1">
  <g id="patch_1">
   <path d="M 0 340.36 
L 340.36 340.36 
L 340.36 0 
L 0 0 
z
" style="fill:#ffffff;"/>
  </g>
  <g id="axes_1">
   <g id="patch_2">
    <path d="M 10.7 329.66 
L 329.66 329.66 
L 329.66 10.7 
L 10.7 10.7 
z
" style="fill:#ffffff;"/>
   </g>
   <g id="matplotlib.axis_1"/>
   <g id="matplotlib.axis_2"/>
   <g id="line2d_1">
    <path clip-path="url(#p4431c7985f)" d="M 170.18 170.18 
L 172.917845 168.476023 
L 175.558169 166.600511 
L 178.088167 164.559498 
L 180.49535 162.360043 
L 182.767645 160.010224 
L 184.893489 157.519125 
L 186.861929 154.896808 
L 188.662729 152.154278 
L 190.286466 149.303434 
L 191.724638 146.357007 
L 192.969752 143.328489 
L 194.015425 140.232039 
L 194.856466 137.082392 
L 195.488953 133.894738 
L 195.910301 130.684599 
L 196.119315 127.467697 
L 196.116227 124.259801 
L 195.902724 121.076577 
L 195.481947 117.933427 
L 194.858477 114.845319 
L 194.0383 111.826627 
L 193.028743 108.89096 
L 191.838397 106.051006 
L 190.477006 103.318378 
L 188.95534 100.703479 
L 187.285049 98.215377 
L 185.478488 95.861711 
L 183.148896 93.223291 
L 180.664462 90.794847 
L 178.048161 88.580789 
L 175.322592 86.582379 
L 172.509467 84.797924 
L 169.629132 83.223088 
L 166.700148 81.851303 
L 163.243308 80.496399 
L 159.764515 79.391534 
L 156.281109 78.521013 
L 152.805808 77.86991 
L 149.347064 77.425478 
L 145.420569 77.158843 
L 141.525051 77.143155 
L 138.1426 77.336049 
L 134.78528 77.727642 
L 131.455312 78.327436 
L 128.157488 79.14744 
L 124.89994 80.20069 
L 121.694504 81.499781 
L 119.000148 82.817259 
L 116.367217 84.32865 
L 113.809067 86.037405 
L 111.34032 87.944935 
L 108.976525 90.050488 
L 106.733813 92.351108 
L 104.62856 94.841659 
L 102.677078 97.5149 
L 100.895339 100.361589 
L 99.298731 103.370616 
L 97.901856 106.529139 
L 96.718355 109.822727 
L 95.760763 113.235497 
L 95.040386 116.750244 
L 94.567191 120.348568 
L 94.349704 124.010987 
L 94.394919 127.717052 
L 94.637192 130.823436 
L 95.067843 133.93263 
L 95.688195 137.031612 
L 96.498668 140.107112 
L 97.498737 143.145676 
L 97.951549 144.347721 
L 93.232908 174.651782 
L 90.252099 171.273105 
L 87.488224 167.732797 
L 84.950228 164.046754 
L 82.646009 160.231378 
L 80.582391 156.303543 
L 78.765088 152.280548 
L 77.198664 148.180078 
L 75.886486 144.020148 
L 74.830671 139.819036 
L 74.032032 135.595212 
L 73.49002 131.367236 
L 73.202681 127.153644 
L 73.166611 122.972812 
L 73.376936 118.842794 
L 73.827311 114.781146 
L 74.509943 110.804717 
L 75.415656 106.929441 
L 76.533989 103.170108 
L 77.853336 99.540134 
L 79.361139 96.051338 
L 81.044111 92.713736 
L 82.888512 89.535349 
L 84.880456 86.522065 
L 87.006244 83.677533 
L 89.252715 81.003132 
L 91.6076 78.498001 
L 94.56112 75.710959 
L 97.638789 73.154609 
L 100.828193 70.817208 
L 104.120971 68.685079 
L 107.512819 66.744011 
L 111.003152 64.980781 
L 114.594422 63.384661 
L 118.917932 61.724728 
L 123.393724 60.280193 
L 127.357359 59.218416 
L 131.441843 58.329738 
L 135.647545 57.628747 
L 139.97126 57.133848 
L 144.405613 56.866222 
L 148.938693 56.848655 
L 152.779853 57.041778 
L 156.666098 57.437725 
L 160.583286 58.048722 
L 164.51534 58.885764 
L 168.444486 59.958258 
L 172.351514 61.273725 
L 176.216087 62.837568 
L 180.017065 64.652899 
L 183.732838 66.720433 
L 187.341662 69.038444 
L 190.137219 71.070485 
L 192.839703 73.256996 
L 195.438591 75.593818 
L 197.923743 78.075901 
L 200.28548 80.697356 
L 202.514653 83.451515 
L 204.602703 86.330996 
L 206.54171 89.327774 
L 208.324435 92.433251 
L 209.944353 95.638331 
L 211.395675 98.933491 
L 212.673362 102.308858 
L 213.773135 105.754279 
L 214.691476 109.259385 
L 215.42562 112.813664 
L 215.973544 116.406516 
L 216.333954 120.027316 
L 216.50626 123.665465 
L 216.490558 127.31044 
L 216.287599 130.951836 
L 215.898765 134.579413 
L 215.326035 138.183121 
L 214.571958 141.75314 
L 213.639621 145.279903 
L 212.53262 148.754119 
L 211.255028 152.166794 
L 209.81137 155.509245 
L 208.206591 158.773117 
L 205.982221 162.730271 
L 203.525733 166.537241 
L 200.849231 170.18 
L 200.849231 170.18 
" style="fill:none;stroke:#0000ff;stroke-linecap:square;"/>
   </g>
   <g id="line2d_2">
    <path clip-path="url(#p4431c7985f)" d="M 200.035402 170.18 
L 200.028668 170.171095 
L 199.512911 169.489121 
L 199.497354 169.46865 
L 199.00283 168.817929 
L 198.978696 168.786325 
L 198.504828 168.165778 
L 198.472353 168.123451 
L 198.018591 167.532049 
L 197.977997 167.47939 
L 197.543811 166.916151 
L 197.495314 166.85353 
L 197.080195 166.317517 
L 197.023998 166.245287 
L 196.627459 165.735605 
L 196.563758 165.654098 
L 196.18533 165.169893 
L 196.114311 165.079429 
L 195.753544 164.619885 
L 195.675385 164.520766 
L 195.331849 164.085103 
L 195.246718 163.977615 
L 194.919999 163.56509 
L 194.828058 163.449504 
L 194.517758 163.059406 
L 194.419162 162.935983 
L 194.124901 162.567632 
L 194.019794 162.436617 
L 193.741208 162.089364 
L 193.62973 161.950991 
L 193.366468 161.624216 
L 193.248751 161.478707 
L 193.000477 161.171816 
L 192.876648 161.019382 
L 192.643041 160.731809 
L 192.513219 160.572649 
L 192.29397 160.303854 
L 192.158268 160.138158 
L 191.953082 159.887622 
L 191.811607 159.715571 
L 191.620203 159.4828 
L 191.473057 159.304564 
L 191.295163 159.089084 
L 191.142442 158.904827 
L 190.9778 158.706187 
L 190.819595 158.516062 
L 190.667957 158.33383 
L 190.504353 158.137983 
L 190.365483 157.971745 
L 190.196562 157.770314 
L 190.070235 157.619677 
L 189.89607 157.412794 
L 189.782071 157.277379 
L 189.602735 157.065168 
L 189.500858 156.944616 
L 189.316417 156.727195 
L 189.226467 156.621161 
L 189.036982 156.39864 
L 188.958773 156.306796 
L 188.764302 156.079281 
L 188.697657 156.001312 
L 188.498253 155.768902 
L 188.443004 155.704509 
L 188.238717 155.467298 
L 188.194705 155.416194 
L 187.98558 155.174271 
L 187.952655 155.136182 
L 187.738732 154.889631 
L 187.716751 154.864297 
L 187.498068 154.613196 
L 187.486897 154.600368 
L 187.263489 154.344791 
L 187.263 154.344232 
L 187.034896 154.084248 
L 187.044972 154.095732 
L 186.812199 153.831408 
L 186.832728 153.854719 
" style="fill:none;stroke:#000000;stroke-linecap:square;"/>
   </g>
   <g id="line2d_3">
    <path clip-path="url(#p4431c7985f)" d="M 214.108448 145.862737 
L 214.116496 145.868772 
L 213.440857 145.362138 
L 213.438665 145.360499 
L 212.788515 144.874578 
L 212.776378 144.865536 
L 212.150971 144.39964 
L 212.129168 144.383451 
L 211.527791 143.936926 
L 211.496588 143.913834 
L 210.918558 143.486053 
L 210.878208 143.456289 
L 210.322875 143.046657 
L 210.273617 143.010442 
L 209.740361 142.61839 
L 209.682422 142.575933 
L 209.170649 142.200917 
L 209.104244 142.152418 
L 208.613388 141.793919 
L 208.538722 141.739567 
L 208.068241 141.39709 
L 207.985508 141.337066 
L 207.534887 141.010137 
L 207.44427 140.944613 
L 207.013014 140.63278 
L 206.914688 140.56192 
L 206.502326 140.264749 
L 206.396455 140.18871 
L 206.002538 139.905787 
L 205.889278 139.824717 
L 205.513374 139.555648 
L 205.392874 139.469688 
L 205.034574 139.214093 
L 204.906972 139.12338 
L 204.565883 138.880897 
L 204.431312 138.785559 
L 204.10706 138.55584 
L 203.965644 138.456002 
L 203.657871 138.238716 
L 203.509729 138.134493 
L 203.218095 137.929321 
L 203.063336 137.820828 
L 202.787516 137.627465 
L 202.626244 137.514808 
L 202.365928 137.332963 
L 202.198242 137.216245 
L 201.953133 137.045637 
L 201.779125 136.924956 
L 201.548943 136.765317 
L 201.368698 136.640766 
L 201.153175 136.49184 
L 200.966773 136.363509 
L 200.765654 136.225047 
L 200.573171 136.093023 
L 200.386214 135.96479 
L 200.187719 135.829155 
L 200.014692 135.710922 
L 199.810251 135.571754 
L 199.650936 135.463305 
L 199.440608 135.32068 
L 199.294797 135.221805 
L 199.078638 135.075795 
L 198.946135 134.986294 
L 198.724194 134.836968 
L 198.604813 134.756647 
L 198.377138 134.604073 
L 198.270703 134.532746 
L 198.037336 134.376988 
L 197.943679 134.314478 
L 197.704658 134.155597 
L 197.623624 134.101732 
L 197.378983 133.939788 
L 197.310424 133.894404 
L 197.060194 133.729453 
L 197.003971 133.692392 
L 196.748178 133.52449 
L 196.704162 133.495598 
L 196.442828 133.324798 
L 196.410898 133.303929 
L 196.144044 133.130282 
L 196.124087 133.117296 
L 195.851728 132.940852 
L 195.843638 132.935611 
L 195.565787 132.756418 
L 195.569467 132.758791 
L 195.286134 132.576896 
L 195.301495 132.586757 
L 195.012685 132.402205 
L 195.039645 132.419432 
" style="fill:none;stroke:#000000;stroke-linecap:square;"/>
   </g>
   <g id="line2d_4">
    <path clip-path="url(#p4431c7985f)" d="M 216.916786 120.464677 
L 216.924593 120.467973 
L 216.19198 120.158678 
L 216.189842 120.157779 
L 215.481762 119.86004 
L 215.469936 119.855087 
L 214.785717 119.568552 
L 214.764446 119.559681 
L 214.103444 119.28401 
L 214.072962 119.271351 
L 213.434563 119.00622 
L 213.39509 118.989896 
L 212.778707 118.734996 
L 212.730452 118.715126 
L 212.135523 118.470158 
L 212.078685 118.446857 
L 211.504673 118.211536 
L 211.439443 118.184914 
L 210.885835 117.958966 
L 210.812392 117.929126 
L 210.278696 117.712289 
L 210.197212 117.679334 
L 209.682958 117.471354 
L 209.593595 117.435381 
L 209.098335 117.236017 
L 209.001247 117.197119 
L 208.524551 117.006137 
L 208.419884 116.964405 
L 207.96134 116.781581 
L 207.849233 116.737102 
L 207.40845 116.562221 
L 207.289035 116.515079 
L 206.865636 116.347932 
L 206.739038 116.298208 
L 206.332664 116.138596 
L 206.199001 116.086368 
L 205.809308 115.934098 
L 205.668691 115.879442 
L 205.295352 115.73433 
L 205.147888 115.677319 
L 204.790587 115.539184 
L 204.636377 115.479889 
L 204.294815 115.348559 
L 204.133953 115.28705 
L 203.807843 115.162357 
L 203.640419 115.098702 
L 203.329488 114.980485 
L 203.155585 114.914747 
L 202.859571 114.80285 
L 202.67927 114.735095 
L 202.397923 114.629367 
L 202.211299 114.559655 
L 201.944381 114.45995 
L 201.751505 114.388342 
L 201.498788 114.294518 
L 201.299725 114.221073 
L 201.060994 114.132994 
L 200.855807 114.05777 
L 200.630855 113.975301 
L 200.419602 113.898355 
L 200.208232 113.821367 
L 199.990967 113.742754 
L 199.792993 113.671122 
L 199.569767 113.590896 
L 199.385011 113.524497 
L 199.155871 113.442713 
L 198.984163 113.381428 
L 198.749154 113.298139 
L 198.590334 113.241852 
L 198.349495 113.157108 
L 198.203412 113.105707 
L 197.956781 113.019561 
L 197.823291 112.972934 
L 197.570902 112.885436 
L 197.449867 112.843476 
L 197.191752 112.754677 
L 197.083044 112.717279 
L 196.819233 112.627229 
L 196.72273 112.594289 
L 196.453247 112.503037 
L 196.368835 112.474454 
L 196.093705 112.38205 
L 196.021276 112.357724 
L 195.740519 112.264217 
L 195.679971 112.244051 
L 195.393608 112.14949 
L 195.344846 112.133389 
L 195.052891 112.037823 
L 195.015827 112.02569 
L 194.718296 111.929169 
L 194.692846 111.920912 
L 194.389751 111.823484 
L 194.375838 111.819012 
L 194.06719 111.720726 
L 194.064743 111.719947 
L 193.750549 111.620854 
L 193.759503 111.623678 
L 193.439771 111.523827 
L 193.460063 111.530164 
L 193.134797 111.429606 
L 193.166373 111.439368 
" style="fill:none;stroke:#000000;stroke-linecap:square;"/>
   </g>
   <g id="line2d_5">
    <path clip-path="url(#p4431c7985f)" d="M 212.374016 98.681624 
L 212.388406 98.684325 
L 211.621069 98.540309 
L 211.626208 98.541266 
L 210.881504 98.402621 
L 210.877615 98.401903 
L 210.15496 98.268466 
L 210.142257 98.26614 
L 209.441088 98.137758 
L 209.419774 98.133889 
L 208.739555 98.01041 
L 208.709825 98.005061 
L 208.050038 97.886343 
L 208.012078 97.879574 
L 207.37223 97.765477 
L 207.326217 97.757347 
L 206.705832 97.647738 
L 206.651937 97.638305 
L 206.050561 97.533052 
L 205.988944 97.522372 
L 205.40614 97.421352 
L 205.336956 97.409478 
L 204.772306 97.31257 
L 204.695703 97.299555 
L 204.148804 97.206641 
L 204.064924 97.192537 
L 203.535391 97.103503 
L 203.444367 97.088361 
L 202.93183 97.003098 
L 202.833791 96.986966 
L 202.337894 96.905367 
L 202.232964 96.888294 
L 201.753367 96.810256 
L 201.641663 96.792288 
L 201.178038 96.717711 
L 201.059672 96.698894 
L 200.611704 96.62768 
L 200.486784 96.60806 
L 200.054172 96.540114 
L 199.9228 96.519735 
L 199.505255 96.454965 
L 199.367528 96.433872 
L 198.964771 96.372188 
L 198.820783 96.350423 
L 198.432548 96.291737 
L 198.282389 96.269343 
L 197.908418 96.213571 
L 197.752173 96.190589 
L 197.392222 96.137646 
L 197.229972 96.11412 
L 196.883804 96.063925 
L 196.715627 96.039894 
L 196.383015 95.992367 
L 196.208986 95.967873 
L 195.889713 95.922936 
L 195.709902 95.898019 
L 195.40376 95.855596 
L 195.218236 95.830296 
L 194.925024 95.790311 
L 194.73385 95.764669 
L 194.453378 95.727049 
L 194.256617 95.701104 
L 193.988699 95.665777 
L 193.786409 95.639569 
L 193.53087 95.606463 
L 193.323108 95.580032 
L 193.079778 95.549076 
L 192.866598 95.522462 
L 192.635316 95.493589 
L 192.41677 95.466831 
L 192.19738 95.439971 
L 191.973515 95.41311 
L 191.765869 95.388195 
L 191.536734 95.361271 
L 191.34069 95.338235 
L 191.106329 95.311288 
L 190.92175 95.290065 
L 190.682207 95.263135 
L 190.508963 95.243659 
L 190.264278 95.216787 
L 190.102246 95.198993 
L 189.852458 95.172221 
L 189.701518 95.156044 
L 189.446665 95.129413 
L 189.306703 95.114788 
L 189.046822 95.088341 
L 188.91773 95.075204 
L 188.652856 95.048982 
L 188.53453 95.037268 
L 188.264695 95.011316 
L 188.157037 95.000961 
L 187.882274 94.975321 
L 187.785189 94.966261 
L 187.505529 94.940978 
L 187.418928 94.933149 
L 187.1344 94.908268 
L 187.058197 94.901604 
L 186.768831 94.877171 
L 186.702944 94.871607 
L 186.408769 94.847668 
L 186.353121 94.84314 
L 186.054164 94.819743 
L 186.00868 94.816184 
L 185.704968 94.793377 
L 185.669579 94.79072 
L 185.361138 94.768553 
L 185.335777 94.76673 
L 185.022632 94.745254 
L 185.007236 94.744198 
L 184.689414 94.723463 
L 184.683921 94.723105 
L 184.361447 94.703164 
L 184.3658 94.703433 
L 184.0387 94.684341 
L 184.052845 94.685167 
L 183.721144 94.666978 
L 183.745028 94.668287 
L 183.408751 94.651058 
L 183.442324 94.652778 
" style="fill:none;stroke:#000000;stroke-linecap:square;"/>
   </g>
   <g id="line2d_6">
    <path clip-path="url(#p4431c7985f)" d="M 202.306657 81.463373 
L 202.321517 81.463371 
L 191.58728 81.566069 
L 182.989051 81.856015 
L 176.189309 82.293075 
L 170.820689 82.858251 
L 168.001766 83.286284 
L 168.034041 83.280747 
" style="fill:none;stroke:#000000;stroke-linecap:square;"/>
   </g>
   <g id="line2d_7">
    <path clip-path="url(#p4431c7985f)" d="M 188.742489 68.850359 
L 188.755031 68.848456 
L 171.259537 71.615311 
L 161.848812 73.297216 
L 156.180875 74.521057 
L 152.506318 75.51043 
L 149.456341 76.557468 
L 147.568994 77.384527 
L 147.573069 77.382559 
L 146.61963 77.884307 
L 146.64355 77.871059 
" style="fill:none;stroke:#000000;stroke-linecap:square;"/>
   </g>
   <g id="line2d_8">
    <path clip-path="url(#p4431c7985f)" d="M 172.063955 60.252539 
L 172.074429 60.249879 
L 161.532316 62.820377 
L 138.489485 68.2852 
L 134.821483 69.468074 
L 131.836496 70.64365 
L 129.500071 71.774641 
L 127.561985 72.931539 
L 125.922724 74.161969 
L 124.663673 75.370576 
L 123.766496 76.485625 
L 123.013122 77.766683 
L 122.520735 79.056539 
L 122.27435 80.325974 
L 122.247579 81.554962 
L 122.247152 81.545239 
L 122.292566 82.039203 
L 122.28972 82.012564 
" style="fill:none;stroke:#000000;stroke-linecap:square;"/>
   </g>
   <g id="line2d_9">
    <path clip-path="url(#p4431c7985f)" d="M 147.320002 55.654169 
L 147.334086 55.650789 
L 140.109009 57.285921 
L 119.831857 61.676984 
L 115.01076 63.03576 
L 115.012962 63.035068 
L 110.955604 64.417488 
L 110.962458 64.414868 
L 107.700299 65.755046 
L 107.709939 65.750621 
L 104.626476 67.283531 
L 104.637206 67.277498 
L 102.347495 68.652191 
L 102.357588 68.645406 
L 100.271692 70.151908 
L 100.279782 70.145287 
L 98.438331 71.778001 
L 98.443291 71.772935 
L 96.88336 73.519489 
L 96.884586 73.517868 
L 95.916531 74.893565 
L 95.13187 76.316364 
L 94.537033 77.775089 
L 94.134678 79.257185 
L 93.923436 80.749138 
L 93.897884 82.236973 
L 94.048728 83.706774 
L 94.476535 85.53808 
L 95.207237 87.439954 
L 96.120899 89.15618 
L 97.195218 90.745971 
L 98.546288 92.380649 
L 100.27716 94.101251 
L 101.938543 95.487787 
L 104.017402 96.95015 
L 103.986577 96.930086 
" style="fill:none;stroke:#000000;stroke-linecap:square;"/>
   </g>
   <g id="line2d_10">
    <path clip-path="url(#p4431c7985f)" d="M 73.468655 114.225463 
L 73.461887 114.222889 
L 74.286532 114.536511 
L 74.293134 114.538937 
L 75.094482 114.833332 
L 75.114513 114.840442 
L 75.891952 115.116367 
L 75.925441 115.12785 
L 76.678445 115.386058 
L 76.725391 115.401612 
L 77.453512 115.642846 
L 77.51389 115.662174 
L 78.216755 115.887169 
L 78.290514 115.909982 
L 78.967819 116.119462 
L 79.054887 116.145479 
L 79.706395 116.340155 
L 79.806679 116.369103 
L 80.432214 116.54967 
L 80.5456 116.581286 
L 81.145042 116.748426 
L 81.271404 116.782455 
L 81.844686 116.936833 
L 81.983879 116.973028 
L 82.530983 117.115292 
L 82.68285 117.153418 
L 83.203802 117.284197 
L 83.368175 117.324026 
L 83.863043 117.443933 
L 84.039743 117.485247 
L 84.50863 117.594875 
L 84.697468 117.637466 
L 85.140515 117.73739 
L 85.341296 117.781058 
L 85.758671 117.871832 
L 85.971192 117.916388 
L 86.363092 117.99855 
L 86.587146 118.043812 
L 86.953794 118.117878 
L 87.18917 118.163674 
L 87.530809 118.230144 
L 87.777291 118.27631 
L 88.094185 118.335662 
L 88.351557 118.382044 
L 88.643985 118.434741 
L 88.912029 118.48119 
L 89.180287 118.527674 
L 89.458783 118.574052 
L 89.703179 118.61475 
L 89.991909 118.660924 
L 90.212761 118.696243 
L 90.511506 118.742091 
L 90.709141 118.772421 
L 91.017685 118.817825 
L 91.192438 118.843541 
L 91.510565 118.888392 
L 91.662777 118.909851 
L 91.990275 118.954046 
L 92.120289 118.97159 
L 92.456949 119.015031 
L 92.565112 119.028988 
L 92.910728 119.071585 
L 92.997388 119.082266 
L 93.351756 119.123935 
L 93.417264 119.131637 
L 93.780186 119.172298 
L 93.824889 119.177306 
L 94.196171 119.216885 
L 94.220415 119.21947 
L 94.599866 119.257898 
L 94.603998 119.258316 
L 94.991433 119.29553 
L 94.975793 119.294028 
L 95.371031 119.329968 
L 95.335957 119.326779 
" style="fill:none;stroke:#000000;stroke-linecap:square;"/>
   </g>
   <g id="line2d_11">
    <path clip-path="url(#p4431c7985f)" d="M 76.252079 148.306686 
L 76.235021 148.309235 
L 77.209866 148.163533 
L 77.210157 148.163488 
L 78.141182 148.019962 
L 78.158248 148.017252 
L 79.046712 147.876179 
L 79.079997 147.870743 
L 79.927127 147.732379 
L 79.976094 147.724162 
L 80.783081 147.58874 
L 80.847212 147.577696 
L 81.615212 147.44543 
L 81.694006 147.431518 
L 82.424142 147.302604 
L 82.517117 147.285791 
L 83.210477 147.160406 
L 83.317168 147.140663 
L 83.974806 147.018969 
L 84.094766 146.996273 
L 84.717703 146.878417 
L 84.8505 146.85275 
L 85.439724 146.738864 
L 85.584944 146.710212 
L 86.141413 146.600417 
L 86.298657 146.568769 
L 86.823295 146.463174 
L 86.992179 146.428522 
L 87.485882 146.327224 
L 87.666038 146.289566 
L 88.129669 146.192651 
L 88.320744 146.151985 
L 88.755137 146.059533 
L 88.956793 146.015861 
L 89.362754 145.92794 
L 89.574664 145.881265 
L 89.952971 145.797938 
L 90.174825 145.748265 
L 90.526227 145.669585 
L 90.757726 145.616923 
L 91.082948 145.542938 
L 91.323805 145.487294 
L 91.623543 145.418046 
L 91.873486 145.359431 
L 92.148413 145.294956 
L 92.407179 145.233381 
L 92.657943 145.17371 
L 92.925283 145.109187 
L 93.152506 145.054346 
L 93.42818 144.986888 
L 93.632463 144.936899 
L 93.916244 144.86652 
L 94.098165 144.821402 
L 94.389834 144.748115 
L 94.549948 144.707883 
L 94.849299 144.631702 
L 94.98814 144.596369 
L 95.294975 144.517309 
L 95.413056 144.486883 
L 95.727186 144.404958 
L 95.825003 144.379447 
L 96.146249 144.294672 
L 96.224273 144.274082 
L 96.552466 144.18647 
L 96.611153 144.170803 
L 96.946131 144.080369 
L 96.985918 144.069627 
L 97.327527 143.976384 
L 97.348832 143.970569 
L 97.696927 143.87453 
L 97.700153 143.87364 
L 98.054596 143.774819 
L 98.040127 143.778854 
" style="fill:none;stroke:#000000;stroke-linecap:square;"/>
   </g>
   <g id="line2d_12">
    <path clip-path="url(#p4431c7985f)" d="M 92.387053 175.369777 
L 92.36994 175.379146 
L 93.189517 174.930442 
" style="fill:none;stroke:#000000;stroke-linecap:square;"/>
   </g>
   <g id="line2d_13">
    <path clip-path="url(#p4431c7985f)" d="M 195.737692 170.18 
L 198.424419 166.860371 
L 200.911546 163.375311 
L 203.186854 159.737514 
L 205.238883 155.960573 
L 207.057004 152.058953 
L 208.631493 148.047971 
L 209.95362 143.943751 
L 211.015728 139.76319 
L 211.811333 135.523893 
L 212.335215 131.244107 
L 212.583509 126.942636 
L 212.582047 123.498774 
L 212.402101 120.063375 
L 212.043794 116.646558 
L 211.507926 113.258489 
L 210.795996 109.909332 
L 209.91022 106.609192 
L 208.853536 103.368054 
L 207.629617 100.195722 
L 206.242867 97.101752 
L 204.698416 94.095383 
L 203.002106 91.18547 
L 201.160467 88.38041 
L 198.665067 85.03347 
L 195.969273 81.876665 
L 193.089854 78.922386 
L 190.044768 76.181188 
L 186.852948 73.661621 
L 183.534062 71.370101 
L 180.108239 69.310813 
L 176.595782 67.485654 
L 173.016859 65.894232 
L 169.391188 64.533909 
L 165.737727 63.399914 
L 162.074368 62.485506 
L 158.417659 61.782201 
L 154.782557 61.280054 
L 150.46734 60.92737 
L 146.221072 60.827929 
L 142.05848 60.9608 
L 137.989992 61.305675 
L 134.021919 61.843989 
L 129.522689 62.695669 
L 125.162391 63.770779 
L 120.935873 65.05906 
L 116.836099 66.559164 
L 112.856489 68.278275 
L 109.538034 69.936777 
L 106.305326 71.778452 
L 103.161976 73.816398 
L 100.115261 76.063546 
L 97.176189 78.531359 
L 94.359272 81.22874 
L 92.117737 83.65602 
L 89.984629 86.247753 
L 87.972259 89.003043 
L 86.093479 91.918936 
L 84.36137 94.990434 
L 82.788934 98.210584 
L 81.38882 101.570597 
L 80.173077 105.06001 
L 79.152938 108.666861 
L 78.338649 112.377886 
L 77.739338 116.178722 
L 77.362913 120.054101 
L 77.216004 123.988038 
L 77.303928 127.964013 
L 77.630683 131.965125 
L 78.198957 135.974237 
L 79.010157 139.974099 
L 80.064441 143.947449 
L 81.360757 147.877103 
L 82.896883 151.746027 
L 84.669467 155.537399 
L 86.674053 159.23466 
L 88.905116 162.821561 
L 91.356084 166.282209 
L 94.019348 169.601105 
L 94.019348 169.601105 
" style="fill:none;stroke:#0000ff;stroke-linecap:square;"/>
   </g>
   <g id="line2d_14">
    <path clip-path="url(#p4431c7985f)" d="M 175.291538 170.18 
L 178.019159 168.152893 
L 180.628844 165.955471 
L 183.107904 163.595101 
L 185.444057 161.080149 
L 187.625517 158.41997 
L 189.64109 155.624894 
L 191.480267 152.706197 
L 193.133328 149.676061 
L 194.59144 146.547526 
L 195.846753 143.334427 
L 196.892503 140.051318 
L 197.7231 136.713379 
L 198.334215 133.336316 
L 198.722857 129.936241 
L 198.88744 126.529546 
L 198.82784 123.132755 
L 198.545426 119.762377 
L 198.043089 116.434739 
L 197.32524 113.165818 
L 196.397792 109.971067 
L 195.268114 106.865238 
L 193.944972 103.862208 
L 192.438429 100.974808 
L 190.759736 98.214665 
L 188.921184 95.592054 
L 186.935944 93.115774 
L 184.817876 90.793041 
L 182.581331 88.629414 
L 180.240926 86.628754 
L 177.31597 84.44599 
L 174.287467 82.501462 
L 171.179366 80.792451 
L 168.014113 79.31329 
L 164.812172 78.055803 
L 161.591629 77.009862 
L 157.831229 76.041675 
L 154.08596 75.326783 
L 150.370105 74.846685 
L 146.692948 74.58506 
L 143.059437 74.529236 
L 139.471186 74.671356 
L 135.927762 75.009068 
L 132.428161 75.545603 
L 128.97234 76.289176 
L 125.562622 77.251775 
L 122.204803 78.447516 
L 119.375398 79.668983 
L 116.60017 81.080751 
L 113.890199 82.689796 
L 111.258591 84.501187 
L 108.720146 86.517726 
L 106.290952 88.739735 
L 103.98796 91.164956 
L 101.828554 93.788557 
L 99.83015 96.603217 
L 98.009824 99.599263 
L 96.384001 102.764849 
L 94.968183 106.08616 
L 93.776741 109.547624 
L 92.822742 113.132112 
L 92.217566 116.199863 
L 91.791318 119.328902 
L 91.549156 122.507396 
L 91.495444 125.723074 
L 91.633726 128.963275 
L 91.966704 132.215007 
L 92.496217 135.464994 
L 93.223216 138.699724 
L 94.147739 141.905504 
L 95.268889 145.06851 
L 96.584808 148.174847 
L 97.165108 149.398397 
L 97.165108 149.398397 
" style="fill:none;stroke:#0000ff;stroke-linecap:square;"/>
   </g>
   <g id="line2d_15">
    <path clip-path="url(#p4431c7985f)" d="M 98.618462 170.18 
L 98.618462 119.064615 
L 149.733846 119.064615 
L 149.733846 170.18 
L 98.618462 170.18 
" style="fill:none;stroke:#0000ff;stroke-linecap:square;"/>
   </g>
  </g>
 </g>
 <defs>
  <clipPath id="p4431c7985f">
   <rect height="318.96" width="318.96" x="10.7" y="10.7"/>
  </clipPath>
 </defs>
</svg>
