<?xml version="1.0" encoding="utf-8" standalone="no"?>
<!DOCTYPE svg PUBLIC "-//W3C//DTD SVG 1.1//EN"
  "http://www.w3.org/Graphics/SVG/1.1/DTD/svg11.dtd">
<!-- Created with matplotlib (http://matplotlib.org/) -->
<svg height="340.36pt" version="1.1" viewBox="0 0 392.760146 340.36" width="392.760146pt" xmlns="http://www.w3.org/2000/svg" xmlns:xlink="http://www.w3.org/1999/xlink">
 <defs>
  <style type="text/css">
*{stroke-linecap:butt;stroke-linejoin:round;}
  </style>
 </defs>
 <g id="figure_1">
  <g id="patch_1">
   <path d="M 0 340.36 
L 392.760146 340.36 
L 392.760146 0 
L 0 0 
z
" style="fill:#ffffff;"/>
  </g>
  <g id="axes_1">
   <g id="patch_2">
    <path d="M 10.7 329.66 
L 382.060146 329.66 
L 382.060146 10.7 
L 10.7 10.7 
z
" style="fill:#ffffff;"/>
   </g>
   <g id="matplotlib.axis_1"/>
   <g id="matplotlib.axis_2"/>
   <g id="line2d_1">
    <path clip-path="url(#p49f095f293)" d="M 249.833267 309.365795 
L 256.044637 306.340586 
L 262.110074 303.003957 
L 268.010685 299.363373 
L 273.727936 295.427557 
L 279.243748 291.206475 
L 284.540602 286.71132 
L 289.601636 281.954486 
L 294.410755 276.949524 
L 298.952725 271.711102 
L 303.213274 266.254944 
L 307.179193 260.597764 
L 310.838422 254.757192 
L 314.18014 248.751684 
L 317.194845 242.600426 
L 319.874431 236.323232 
L 322.212246 229.940428 
L 324.203157 223.472731 
L 325.843586 216.941117 
L 327.131547 210.366689 
L 328.066667 203.770531 
L 328.65019 197.17357 
L 328.88497 190.596419 
L 328.775443 184.059237 
L 328.327595 177.581575 
L 327.548898 171.182236 
L 326.44824 164.879131 
L 325.035836 158.689146 
L 323.323123 152.628024 
L 321.322638 146.710246 
L 319.047886 140.948938 
L 316.51319 135.355791 
L 313.733534 129.940992 
L 310.724394 124.71319 
L 307.501566 119.679472 
L 304.08099 114.845366 
L 300.478567 110.214872 
L 296.709984 105.790515 
L 292.790548 101.573423 
L 288.735018 97.563432 
L 284.557454 93.759213 
L 280.271088 90.158421 
L 275.888198 86.757864 
L 271.420014 83.553694 
L 266.876644 80.541602 
L 262.267016 77.71703 
L 257.59886 75.075386 
L 252.878705 72.612261 
L 248.111912 70.323635 
L 243.302731 68.206074 
L 238.454393 66.256908 
L 233.569225 64.474381 
L 228.648795 62.857765 
L 223.694082 61.407441 
L 218.705661 60.124929 
L 213.683906 59.012875 
L 208.629197 58.074992 
L 203.542126 57.315961 
L 198.423688 56.741293 
L 193.275457 56.357167 
L 188.099733 56.170253 
L 182.899662 56.187525 
L 177.679319 56.416074 
L 172.443766 56.862937 
L 167.199068 57.534931 
L 161.952298 58.438508 
L 156.711499 59.579624 
L 151.485647 60.96363 
L 146.284577 62.595174 
L 141.118917 64.47813 
L 135.999998 66.615528 
L 130.939771 69.00951 
L 125.950711 71.661292 
L 121.045726 74.571137 
L 116.238069 77.73834 
L 111.541244 81.161219 
L 106.96893 84.837112 
L 102.534888 88.762382 
L 98.252897 92.932425 
L 94.136671 97.341679 
L 90.199798 101.983639 
L 86.455672 106.850869 
L 82.917429 111.935024 
L 79.597892 117.226861 
L 76.509512 122.716259 
L 73.66431 128.39224 
L 71.073821 134.242987 
L 68.749042 140.255865 
L 66.700374 146.417448 
L 64.937566 152.713543 
L 63.469661 159.129218 
L 62.304939 165.648838 
L 61.450862 172.2561 
L 60.914016 178.934075 
L 60.700061 185.665254 
L 60.813674 192.431599 
L 61.258501 199.214601 
L 62.037103 205.995342 
L 63.150918 212.754563 
L 64.600213 219.472737 
L 65.450421 222.810275 
L 53.66497 292.624292 
L 48.530642 285.248234 
L 43.77083 277.644215 
L 39.395011 269.834179 
L 35.411421 261.84037 
L 31.827062 253.685274 
L 28.647714 245.391565 
L 25.87795 236.982051 
L 23.521138 228.47963 
L 21.579452 219.907248 
L 20.053872 211.28785 
L 18.944189 202.644342 
L 18.248997 193.999542 
L 17.965693 185.376139 
L 18.090467 176.796636 
L 18.618291 168.283296 
L 19.542919 159.858076 
L 20.856873 151.542558 
L 22.551446 143.357867 
L 24.616704 135.324579 
L 27.041501 127.462626 
L 29.813499 119.791184 
L 32.919209 112.328555 
L 36.344043 105.092048 
L 40.072388 98.097845 
L 44.087697 91.360871 
L 48.372607 84.894664 
L 52.909075 78.711244 
L 57.67854 72.820996 
L 62.662107 67.232558 
L 67.840754 61.952731 
L 73.195554 56.986403 
L 78.707913 52.336502 
L 84.359819 48.00398 
L 90.134097 43.987823 
L 96.014655 40.285104 
L 101.986724 36.891082 
L 108.037077 33.799339 
L 114.154219 31.001974 
L 120.32853 28.489839 
L 126.552363 26.25284 
L 132.820077 24.280272 
L 139.128 22.561204 
L 145.474319 21.084889 
L 151.858893 19.841192 
L 158.282994 18.821003 
L 164.748995 18.016631 
L 171.259997 17.422137 
L 177.819444 17.033602 
L 184.43071 16.84931 
L 191.096706 16.869839 
L 197.819501 17.098049 
L 204.599981 17.538999 
L 211.437549 18.199762 
L 218.329871 19.089193 
L 225.272683 20.217626 
L 232.259641 21.59654 
L 239.28223 23.238195 
L 246.329722 25.155254 
L 253.389186 27.360399 
L 260.445544 29.865958 
L 267.481673 32.683544 
L 274.478544 35.823719 
L 281.415402 39.295682 
L 288.269972 43.107002 
L 295.018695 47.263376 
L 301.636982 51.768436 
L 308.099484 56.623596 
L 314.380368 61.827945 
L 320.453603 67.378172 
L 326.293234 73.268546 
L 331.873654 79.490926 
L 337.169871 86.034805 
L 342.157744 92.887394 
L 346.814216 100.033728 
L 349.011319 103.711811 
L 351.117519 107.456801 
L 353.130326 111.26628 
L 355.047352 115.13772 
L 356.866315 119.068493 
L 358.585044 123.055875 
L 360.201481 127.09705 
L 361.713687 131.189121 
L 363.119839 135.329111 
L 364.418242 139.513973 
L 365.607319 143.740595 
L 366.685625 148.005805 
L 367.651839 152.306378 
L 368.504769 156.639043 
L 369.243354 161.000489 
L 369.866658 165.387369 
L 370.373881 169.796311 
L 370.764346 174.223917 
L 371.037508 178.666774 
L 371.192949 183.121457 
L 371.230378 187.584536 
L 371.14963 192.052582 
L 370.950662 196.522167 
L 370.633556 200.989877 
L 370.198511 205.452309 
L 369.645848 209.906083 
L 368.975999 214.347838 
L 368.189515 218.774245 
L 367.287052 223.182005 
L 366.26938 227.567853 
L 365.13737 231.928567 
L 363.891998 236.260964 
L 362.534338 240.561909 
L 361.065562 244.828315 
L 359.486935 249.057148 
L 357.799811 253.245426 
L 356.005634 257.390225 
L 354.105929 261.488681 
L 352.102306 265.53799 
L 349.996447 269.535411 
L 347.790115 273.478266 
L 345.485139 277.363947 
L 343.08342 281.18991 
L 340.586922 284.953682 
L 337.997674 288.652858 
L 335.317761 292.285106 
L 332.549327 295.848163 
L 329.694568 299.33984 
L 326.755733 302.758021 
L 320.635059 309.365795 
L 320.635059 309.365795 
" style="fill:none;stroke:#0000ff;stroke-linecap:square;"/>
   </g>
   <g id="line2d_2">
    <path clip-path="url(#p49f095f293)" d="M 320.835451 309.365795 
L 320.837964 309.370212 
L 319.045287 306.219392 
L 318.9868 306.117493 
L 317.332571 303.235444 
L 317.215578 303.033364 
L 315.69386 300.404983 
L 315.520621 300.108285 
L 314.125956 297.719759 
L 313.898514 297.333484 
L 312.625893 295.172179 
L 312.346087 294.700894 
L 311.19092 292.755251 
L 310.860399 292.203091 
L 309.818488 290.462533 
L 309.438723 289.833241 
L 308.506237 288.28809 
L 308.078529 287.58505 
L 307.251986 286.226454 
L 306.777479 285.452724 
L 306.053721 284.272587 
L 305.533409 283.430924 
L 304.909591 282.421848 
L 304.344322 281.514735 
L 303.817892 280.669963 
L 303.20838 279.69963 
L 302.777067 279.012999 
L 302.123895 277.981446 
L 301.785697 277.447341 
L 301.089322 276.356354 
L 300.842495 275.969666 
L 300.103253 274.820836 
L 299.946301 274.576927 
L 299.164411 273.371663 
L 299.096078 273.266333 
L 298.271645 272.005877 
L 298.29091 272.03533 
L 297.423929 270.720772 
L 297.529996 270.881593 
" style="fill:none;stroke:#000000;stroke-linecap:square;"/>
   </g>
   <g id="line2d_3">
    <path clip-path="url(#p49f095f293)" d="M 361.761305 251.66491 
L 361.833163 251.737169 
L 359.263321 249.152991 
L 359.259249 249.148922 
L 356.864642 246.756132 
L 356.787742 246.67978 
L 354.560436 244.468394 
L 354.413495 244.323448 
L 352.346246 242.284308 
L 352.131767 242.074141 
L 350.217964 240.19884 
L 349.938184 239.926531 
L 348.171803 238.207346 
L 347.828716 237.875715 
L 346.204278 236.305547 
L 345.799651 235.917177 
L 344.312178 234.489492 
L 343.847569 234.046752 
L 342.492551 232.755537 
L 341.969322 232.260602 
L 340.742687 231.100319 
L 340.162016 230.555186 
L 339.060101 229.520729 
L 338.422997 228.927241 
L 337.442519 228.013903 
L 336.74983 227.373755 
L 335.88787 226.577192 
L 335.140291 225.891952 
L 334.394268 225.208153 
L 333.592353 224.479273 
L 332.960009 223.904533 
L 332.104176 223.133359 
L 331.583558 222.664251 
L 330.674096 221.852037 
L 330.263542 221.485392 
L 329.300618 220.633307 
L 328.998744 220.366187 
L 327.982409 219.475331 
L 327.788095 219.305011 
L 326.718289 218.376418 
L 326.630671 218.300367 
L 325.507225 217.335016 
L 325.525685 217.350879 
L 324.34833 216.349704 
L 324.472488 216.45528 
L 323.240855 215.419178 
L 323.470558 215.612409 
" style="fill:none;stroke:#000000;stroke-linecap:square;"/>
   </g>
   <g id="line2d_4">
    <path clip-path="url(#p49f095f293)" d="M 374.822441 188.739482 
L 374.918605 188.798475 
L 371.901478 186.947638 
L 371.919377 186.958534 
L 369.080471 185.230383 
L 369.022975 185.19566 
L 366.354797 183.584304 
L 366.224503 183.50626 
L 363.720186 182.006242 
L 363.51944 181.887016 
L 361.172697 180.493275 
L 360.903613 180.33486 
L 358.708691 179.042696 
L 358.37317 178.846957 
L 356.324809 177.651995 
L 355.924557 177.420682 
L 354.017956 176.318846 
L 353.554497 176.053604 
L 351.785282 175.041091 
L 351.259971 174.743474 
L 349.624164 173.816726 
L 349.0382 173.488207 
L 347.532195 172.643891 
L 346.886634 172.285871 
L 345.507168 171.520857 
L 344.802931 171.134676 
L 343.547068 170.446019 
L 342.78495 170.032962 
L 341.650057 169.417882 
L 340.830739 168.97919 
L 339.814472 168.435059 
L 338.938524 167.971935 
L 338.038806 167.496257 
L 337.1067 167.009874 
L 336.321711 166.600271 
L 335.333825 166.091782 
L 334.661985 165.74598 
L 333.618608 165.216521 
L 333.058565 164.932337 
L 331.959909 164.383037 
L 331.510526 164.158365 
L 330.356729 163.590352 
L 330.017074 163.423147 
L 328.808204 162.837558 
L 328.577537 162.725824 
L 327.313603 162.123808 
L 327.191369 162.06559 
L 325.872325 161.448316 
L 325.85814 161.441678 
L 324.48389 160.810348 
L 324.577532 160.853366 
L 323.14794 160.209214 
L 323.349341 160.299959 
" style="fill:none;stroke:#000000;stroke-linecap:square;"/>
   </g>
   <g id="line2d_5">
    <path clip-path="url(#p49f095f293)" d="M 365.076926 131.817762 
L 365.160155 131.847075 
L 361.95989 130.720012 
L 361.970816 130.723816 
L 358.934255 129.66656 
L 358.875372 129.6463 
L 355.996092 128.655636 
L 355.869685 128.612675 
L 353.141756 127.685594 
L 352.949922 127.621228 
L 350.367867 126.754906 
L 350.112526 126.670369 
L 347.67129 125.862155 
L 347.354202 125.758624 
L 345.049124 125.006023 
L 344.671901 124.884628 
L 342.498683 124.185286 
L 342.062797 124.047118 
L 340.017482 123.398811 
L 339.524283 123.244924 
L 337.603232 122.645544 
L 337.053951 122.476965 
L 335.253821 121.924511 
L 334.649584 121.742244 
L 332.967311 121.234809 
L 332.309145 121.039839 
L 330.741929 120.5756 
L 330.030771 120.368904 
L 328.576054 119.946113 
L 327.81276 119.728659 
L 326.468217 119.345632 
L 325.653567 119.118391 
L 324.417091 118.7735 
L 323.551799 118.537445 
L 322.421486 118.229106 
L 321.506207 117.985223 
L 320.480347 117.71189 
L 319.515681 117.461182 
L 318.592744 117.221333 
L 317.579247 116.964825 
L 316.757874 116.756955 
L 315.696064 116.495702 
L 314.975054 116.318312 
L 313.865417 116.053402 
L 313.243717 115.90499 
L 312.086717 115.637554 
L 311.56341 115.516602 
L 310.359496 115.247816 
L 309.93379 115.15278 
L 308.683404 114.883877 
L 308.354621 114.813176 
L 307.058208 114.545447 
L 306.82577 114.49745 
L 305.483787 114.232256 
L 305.347204 114.205268 
L 303.960129 113.944042 
L 303.918984 113.936295 
L 302.487327 113.680554 
L 302.541262 113.690188 
L 301.065577 113.441536 
L 301.214274 113.466588 
L 299.695172 113.226726 
L 299.938337 113.265115 
" style="fill:none;stroke:#000000;stroke-linecap:square;"/>
   </g>
   <g id="line2d_6">
    <path clip-path="url(#p49f095f293)" d="M 343.752289 86.180917 
L 340.505867 85.635935 
L 340.58654 85.649262 
L 337.341377 85.113209 
L 337.360841 85.116371 
L 334.25528 84.611944 
L 334.215694 84.605626 
L 331.244272 84.131411 
L 331.147641 84.116272 
L 328.305273 83.670953 
L 328.15346 83.647624 
L 325.435412 83.229971 
L 325.230148 83.199067 
L 322.63202 82.807931 
L 322.374912 82.770052 
L 319.892611 82.404357 
L 319.585157 82.36009 
L 317.214885 82.018833 
L 316.858476 81.968758 
L 314.596709 81.650996 
L 314.192644 81.595691 
L 312.036119 81.300539 
L 311.585608 81.240583 
L 309.531308 80.967206 
L 309.035482 80.903186 
L 307.080626 80.650795 
L 306.540542 80.583306 
L 304.682571 80.351151 
L 304.099221 80.280804 
L 302.335788 80.068168 
L 301.710107 79.995595 
L 300.039068 79.801787 
L 299.371937 79.727643 
L 297.791341 79.551993 
L 297.083598 79.476961 
L 295.591676 79.318811 
L 294.844122 79.243612 
L 293.439282 79.10231 
L 292.652686 79.027701 
L 291.333501 78.902591 
L 290.50861 78.829376 
L 289.273811 78.719794 
L 288.411356 78.648826 
L 287.259823 78.554085 
L 286.360527 78.486273 
L 285.291278 78.40566 
L 284.355867 78.341973 
L 283.368051 78.274733 
L 282.397257 78.216209 
L 281.49014 78.161538 
L 280.484715 78.109286 
L 279.657672 78.066318 
L 278.618397 78.021526 
L 277.870895 77.989322 
L 276.798587 77.95326 
L 276.130175 77.930794 
L 275.0257 77.904824 
L 274.435994 77.890969 
L 273.300276 77.876545 
L 272.78894 77.870062 
L 271.622973 77.86874 
L 271.1897 77.868259 
L 269.994563 77.881699 
L 269.639057 77.885706 
L 268.415922 77.915678 
L 268.137872 77.922499 
L 266.888017 77.970886 
L 266.687076 77.978671 
L 265.411903 78.047474 
L 265.287658 78.054181 
L 263.988701 78.14552 
L 263.940647 78.148901 
L 262.619585 78.265018 
L 262.647091 78.262599 
L 261.305766 78.405859 
L 261.408044 78.394931 
L 260.048471 78.56782 
L 260.22454 78.545423 
L 258.848919 78.750549 
L 259.097569 78.713461 
" style="fill:none;stroke:#000000;stroke-linecap:square;"/>
   </g>
   <g id="line2d_7">
    <path clip-path="url(#p49f095f293)" d="M 304.49374 49.368778 
L 304.590729 49.372859 
L 301.367271 49.237212 
L 301.418578 49.239347 
L 298.298414 49.10949 
L 298.305769 49.109792 
L 295.284441 48.98575 
L 295.249464 48.984337 
L 292.322807 48.866181 
L 292.247014 48.863184 
L 289.411144 48.751032 
L 289.295953 48.74659 
L 286.547255 48.640604 
L 286.393997 48.634875 
L 283.729116 48.535261 
L 283.539038 48.52842 
L 280.954867 48.435424 
L 280.729143 48.427669 
L 278.222818 48.341575 
L 277.96255 48.333131 
L 275.531447 48.254261 
L 275.237675 48.245379 
L 272.879396 48.174088 
L 272.553104 48.165054 
L 270.265481 48.101729 
L 269.907598 48.092865 
L 267.688685 48.037918 
L 267.300098 48.029586 
L 265.148168 47.983455 
L 264.729721 47.97606 
L 262.643263 47.939201 
L 262.195768 47.933197 
L 260.173485 47.90608 
L 259.697725 47.901972 
L 257.738533 47.885076 
L 257.235268 47.883426 
L 255.338291 47.877229 
L 254.808265 47.878659 
L 252.972832 47.883634 
L 252.416778 47.88883 
L 250.642424 47.905435 
L 250.061071 47.915153 
L 248.347528 47.943821 
L 247.741608 47.958889 
L 246.088803 48.000017 
L 245.459059 48.02134 
L 243.867105 48.075275 
L 243.214296 48.103844 
L 241.683487 48.170869 
L 241.008398 48.207761 
L 239.539197 48.288081 
L 238.842647 48.334464 
L 237.435674 48.428187 
L 236.718522 48.485326 
L 235.37454 48.592444 
L 234.637701 48.661707 
L 233.357593 48.782075 
L 232.602042 48.864935 
L 231.386798 48.998247 
L 230.613584 49.096287 
L 229.464266 49.242056 
L 228.674524 49.356974 
L 227.592242 49.514501 
L 226.787203 49.648113 
L 225.773082 49.816466 
L 224.954087 49.970706 
L 224.009225 50.148691 
L 223.177739 50.325616 
L 222.303168 50.51175 
L 221.460792 50.713538 
L 220.65743 50.906024 
L 219.805917 51.134977 
L 219.074517 51.331677 
L 218.215785 51.590214 
L 217.556885 51.788631 
L 216.693026 52.079286 
L 216.10689 52.276539 
L 215.240189 52.601953 
L 214.72675 52.794769 
L 213.859692 53.157681 
L 213.418498 53.342382 
L 212.553776 53.745615 
L 212.183928 53.918115 
L 211.324454 54.364564 
L 211.024558 54.520375 
L 210.173461 55.012985 
L 209.941576 55.147226 
L 209.102206 55.688975 
L 208.9358 55.796399 
L 208.111727 56.390266 
L 208.007644 56.465288 
L 207.202641 57.114231 
L 207.157077 57.15097 
L 206.375115 57.857894 
L 206.383601 57.850221 
L 205.628826 58.617946 
L 205.68623 58.559544 
L 204.962942 59.390768 
L 205.063477 59.275203 
L 204.513357 59.993259 
" style="fill:none;stroke:#000000;stroke-linecap:square;"/>
   </g>
   <g id="line2d_8">
    <path clip-path="url(#p49f095f293)" d="M 243.635619 19.787781 
L 243.754576 19.788409 
L 240.483138 19.771125 
L 240.581654 19.771641 
L 237.347133 19.754686 
L 237.426315 19.755054 
L 234.226319 19.740208 
L 234.287216 19.740417 
L 231.119647 19.72956 
L 231.16325 19.729628 
L 228.026317 19.724742 
L 228.053562 19.724715 
L 224.945794 19.72789 
L 224.95756 19.727838 
L 221.87782 19.741274 
L 221.874933 19.741298 
L 218.822435 19.767306 
L 218.805662 19.767533 
L 215.779988 19.808536 
L 215.750039 19.80912 
L 212.75116 19.867648 
L 212.708685 19.868772 
L 209.736977 19.947463 
L 209.682565 19.94934 
L 206.738828 20.050924 
L 206.673005 20.053798 
L 203.758481 20.181094 
L 203.681708 20.185243 
L 200.798099 20.341137 
L 200.710772 20.346876 
L 197.86025 20.534304 
L 197.762697 20.541993 
L 194.947916 20.763915 
L 194.840399 20.773958 
L 192.064501 21.03333 
L 191.947219 21.046187 
L 189.213831 21.345919 
L 189.086921 21.362112 
L 186.400148 21.705031 
L 186.263692 21.725155 
L 183.628102 22.113951 
L 183.482133 22.138684 
L 180.90273 22.575855 
L 180.747247 22.60597 
L 178.229432 23.093764 
L 178.064409 23.130144 
L 175.61393 23.670487 
L 175.439338 23.714136 
L 173.062229 24.308565 
L 172.878053 24.360626 
L 170.580555 25.010211 
L 170.386822 25.071979 
L 168.175292 25.777249 
L 167.972098 25.850187 
L 165.852901 26.611055 
L 165.640443 26.696802 
L 163.619838 27.512493 
L 163.39845 27.61288 
L 161.482458 28.481865 
L 161.252644 28.598919 
L 159.446909 29.518857 
L 159.209385 29.654804 
L 157.519028 30.622498 
L 157.274757 30.779766 
L 155.704232 31.791133 
L 155.454458 31.97234 
L 154.007402 33.022393 
L 153.753687 33.230338 
L 152.432783 34.313199 
L 152.177032 34.550839 
L 150.983881 35.659763 
L 150.728366 35.930189 
L 149.663374 37.057613 
L 149.410746 37.364017 
L 148.473034 38.501634 
L 148.226329 38.847267 
L 147.413669 39.986122 
L 147.176304 40.374252 
L 146.485081 41.50485 
L 146.260832 41.938713 
L 145.68604 43.051155 
L 145.479025 43.533898 
L 145.014292 44.618023 
L 144.828925 45.152658 
L 144.466576 46.198196 
L 144.307524 46.78754 
L 144.038666 47.784271 
L 143.910791 48.430899 
L 143.725437 49.368808 
L 143.633736 50.075007 
L 143.520946 50.944439 
L 143.470479 51.712161 
L 143.418522 52.503959 
L 143.414344 53.334793 
L 143.410875 54.040428 
L 143.457967 54.935571 
L 143.490212 55.547253 
L 143.593409 56.507491 
L 143.648352 57.018254 
L 143.812278 58.043956 
L 143.876847 58.447732 
L 144.105857 59.53885 
L 144.1671 59.830512 
L 144.465227 60.986588 
L 144.510471 61.161972 
L 144.881386 62.382159 
L 144.898386 62.438068 
L 145.34536 63.721151 
L 145.322429 63.655339 
L 145.848309 64.999766 
L 145.774418 64.810901 
" style="fill:none;stroke:#000000;stroke-linecap:square;"/>
   </g>
   <g id="line2d_9">
    <path clip-path="url(#p49f095f293)" d="M 61.934847 61.65522 
L 61.881452 61.545053 
L 63.312974 64.497919 
L 63.293638 64.462234 
L 64.80401 67.24913 
L 64.827788 67.288921 
L 66.389737 69.902216 
L 66.465036 70.017694 
L 68.052513 72.451842 
L 68.187004 72.642494 
L 69.77546 74.893928 
L 69.976016 75.158582 
L 71.542599 77.225568 
L 71.815259 77.56247 
L 73.338962 79.444943 
L 73.688918 79.851839 
L 75.150666 81.551227 
L 75.582267 82.025441 
L 76.964954 83.54448 
L 77.481734 84.082998 
L 78.770216 85.425545 
L 79.374926 86.025089 
L 80.555977 87.195938 
L 81.250639 87.85304 
L 82.312875 88.857751 
L 83.098835 89.568821 
L 84.032619 90.413555 
L 84.910613 91.174936 
L 85.707938 91.866304 
L 86.678152 92.674331 
L 87.332515 93.219262 
L 88.394656 94.070302 
L 88.900925 94.475919 
L 90.054282 95.366413 
L 90.408561 95.639928 
L 91.652072 96.566422 
L 91.851566 96.715047 
L 93.183874 97.674216 
L 93.226755 97.705086 
L 94.646269 98.693757 
L 94.531554 98.613865 
L 96.036495 99.629029 
L 95.763923 99.445177 
" style="fill:none;stroke:#000000;stroke-linecap:square;"/>
   </g>
   <g id="line2d_10">
    <path clip-path="url(#p49f095f293)" d="M 18.006437 142.17596 
L 17.841541 142.112972 
L 21.9552 143.684187 
L 21.937209 143.677601 
L 25.737075 145.068442 
L 25.861671 145.11217 
L 29.35308 146.337406 
L 29.615658 146.425796 
L 32.804993 147.499312 
L 33.200766 147.627142 
L 36.09521 148.561937 
L 36.619291 148.724402 
L 39.226615 149.532601 
L 39.874094 149.725294 
L 42.202474 150.418173 
L 42.968475 150.637069 
L 45.026337 151.225082 
L 45.90607 151.466514 
L 47.70196 151.959333 
L 48.690759 152.219972 
L 50.233231 152.62652 
L 51.326586 152.903351 
L 52.624115 153.231849 
L 53.817699 153.522149 
L 54.878603 153.780156 
L 56.168286 154.081471 
L 57.00067 154.275928 
L 58.382537 154.586053 
L 58.994242 154.723322 
L 60.4646 155.040278 
L 60.863168 155.126188 
L 62.418552 155.448206 
L 62.611195 155.488086 
L 64.248373 155.813586 
L 64.241953 155.812309 
L 65.957923 156.139883 
L 65.758936 156.1019 
" style="fill:none;stroke:#000000;stroke-linecap:square;"/>
   </g>
   <g id="line2d_11">
    <path clip-path="url(#p49f095f293)" d="M 21.016348 226.380588 
L 20.943473 226.384712 
L 25.017807 226.154132 
L 25.093184 226.149375 
L 28.800985 225.915307 
L 29.015745 225.90039 
L 32.377284 225.66684 
L 32.723276 225.640671 
L 35.757353 225.41115 
L 36.227092 225.372803 
L 38.95113 225.150391 
L 39.537753 225.099077 
L 41.967886 224.886476 
L 42.665107 224.821527 
L 44.816264 224.621109 
L 45.618335 224.541953 
L 47.504315 224.355805 
L 48.40599 224.261957 
L 50.039539 224.091914 
L 51.036037 223.982957 
L 52.428915 223.830643 
L 53.515888 223.706216 
L 54.678933 223.573068 
L 55.852439 223.432856 
L 56.795623 223.320153 
L 58.052096 223.163877 
L 58.784584 223.072764 
L 60.120809 222.900169 
L 60.651008 222.83168 
L 62.064101 222.642533 
L 62.399705 222.597607 
L 63.887087 222.391684 
L 64.035125 222.371187 
L 65.594507 222.148268 
L 65.561376 222.153005 
" style="fill:none;stroke:#000000;stroke-linecap:square;"/>
   </g>
   <g id="line2d_12">
    <path clip-path="url(#p49f095f293)" d="M 285.234163 309.365795 
L 291.400185 304.549304 
L 297.3297 299.42606 
L 303.004179 294.008116 
L 308.405678 288.308734 
L 313.516931 282.342371 
L 318.321454 276.124655 
L 322.803635 269.672355 
L 326.948845 263.003336 
L 330.743531 256.136505 
L 334.175322 249.091755 
L 337.233123 241.889885 
L 339.907211 234.552515 
L 342.189326 227.101997 
L 344.072754 219.561296 
L 345.552404 211.953884 
L 346.624877 204.303601 
L 347.288519 196.634521 
L 347.54347 188.970803 
L 347.391693 181.336533 
L 346.836993 173.755563 
L 345.885015 166.25134 
L 344.543226 158.846734 
L 342.820879 151.563865 
L 340.728961 144.423928 
L 338.280109 137.447024 
L 335.488519 130.651995 
L 332.369827 124.056272 
L 328.940971 117.675725 
L 325.220031 111.524542 
L 321.226059 105.615116 
L 316.97888 99.957958 
L 312.498894 94.561632 
L 307.806853 89.432723 
L 302.923639 84.575825 
L 297.870035 79.993573 
L 292.666492 75.686696 
L 287.332909 71.654114 
L 281.888411 67.89306 
L 276.351151 64.399246 
L 270.738115 61.167046 
L 265.064969 58.189726 
L 259.345909 55.459683 
L 253.593557 52.968716 
L 247.818884 50.708311 
L 242.031164 48.669935 
L 236.237973 46.845333 
L 230.445219 45.226825 
L 224.657221 43.807585 
L 218.876824 42.581896 
L 213.105553 41.545377 
L 207.343813 40.695162 
L 201.591122 40.030025 
L 195.846371 39.550443 
L 190.108119 39.258592 
L 184.374891 39.158276 
L 178.645486 39.254777 
L 172.919266 39.554658 
L 167.196427 40.065512 
L 161.478233 40.795676 
L 155.767194 41.75393 
L 150.067207 42.949195 
L 144.383633 44.390239 
L 138.723321 46.085412 
L 133.094592 48.0424 
L 127.507173 50.268023 
L 121.972098 52.76806 
L 116.501583 55.547108 
L 111.108879 58.608484 
L 105.808112 61.95414 
L 100.614116 65.584622 
L 95.54226 69.499046 
L 90.608284 73.695092 
L 85.828136 78.169027 
L 81.217817 82.915737 
L 76.793242 87.928772 
L 72.57011 93.200403 
L 68.563788 98.72169 
L 64.789212 104.482543 
L 61.260794 110.471802 
L 57.992351 116.677304 
L 54.99704 123.085953 
L 52.287301 129.683792 
L 49.874819 136.456067 
L 47.770478 143.387286 
L 45.984335 150.461278 
L 44.525589 157.661245 
L 43.402556 164.96981 
L 42.622645 172.369065 
L 42.192335 179.840612 
L 42.117147 187.365605 
L 42.401627 194.924794 
L 43.049311 202.49856 
L 44.062706 210.066964 
L 45.443254 217.609789 
L 47.191311 225.106584 
L 49.306111 232.536723 
L 51.785741 239.879454 
L 54.627109 247.11396 
L 57.825923 254.219426 
L 59.557695 257.717283 
L 59.557695 257.717283 
" style="fill:none;stroke:#0000ff;stroke-linecap:square;"/>
   </g>
  </g>
 </g>
 <defs>
  <clipPath id="p49f095f293">
   <rect height="318.96" width="371.360146" x="10.7" y="10.7"/>
  </clipPath>
 </defs>
</svg>
