  0
SECTION
  2
HEADER
  9
$ACADVER
  1
AC1014
  9
$HANDSEED
  5
FFFF
  9
$MEASUREMENT
 70
     1
  0
ENDSEC
  0
SECTION
  2
TABLES
  0
TABLE
  2
VPORT
  5
8
330
0
100
AcDbSymbolTable
 70
     4
  0
VPORT
  5
2E
330
8
100
AcDbSymbolTableRecord
100
AcDbViewportTableRecord
  2
*ACTIVE
 70
     0
 10
0.0
 20
0.0
 11
1.0
 21
1.0
 12
210.0
 22
148.5
 13
0.0
 23
0.0
 14
10.0
 24
10.0
 15
10.0
 25
10.0
 16
0.0
 26
0.0
 36
1.0
 17
0.0
 27
0.0
 37
0.0
 40
341.0
 41
1.24
 42
50.0
 43
0.0
 44
0.0
 50
0.0
 51
0.0
 71
     0
 72
   100
 73
     1
 74
     3
 75
     0
 76
     0
 77
     0
 78
     0
  0
ENDTAB
  0
TABLE
  2
LTYPE
  5
5
330
0
100
AcDbSymbolTable
 70
     1
  0
LTYPE
  5
14
330
5
100
AcDbSymbolTableRecord
100
AcDbLinetypeTableRecord
  2
BYBLOCK
 70
     0
  3

 72
    65
 73
     0
 40
0.0
  0
LTYPE
  5
15
330
5
100
AcDbSymbolTableRecord
100
AcDbLinetypeTableRecord
  2
BYLAYER
 70
     0
  3

 72
    65
 73
     0
 40
0.0
  0
LTYPE
  5
16
330
5
100
AcDbSymbolTableRecord
100
AcDbLinetypeTableRecord
  2
CONTINUOUS
 70
     0
  3
Solid line
 72
    65
 73
     0
 40
0.0
  0
ENDTAB
  0
TABLE
  2
LAYER
  5
2
100
AcDbSymbolTable
 70
1
  0
LAYER
  5
50
100
AcDbSymbolTableRecord
100
AcDbLayerTableRecord
  2
0
 70
0
  6
CONTINUOUS
  0
ENDTAB
  0
TABLE
  2
STYLE
  5
3
330
0
100
AcDbSymbolTable
 70
     1
  0
STYLE
  5
11
330
3
100
AcDbSymbolTableRecord
100
AcDbTextStyleTableRecord
  2
STANDARD
 70
     0
 40
0.0
 41
1.0
 50
0.0
 71
     0
 42
2.5
  3
txt
  4

  0
ENDTAB
  0
TABLE
  2
VIEW
  5
6
330
0
100
AcDbSymbolTable
 70
     0
  0
ENDTAB
  0
TABLE
  2
UCS
  5
7
330
0
100
AcDbSymbolTable
 70
     0
  0
ENDTAB
  0
TABLE
  2
APPID
  5
9
330
0
100
AcDbSymbolTable
 70
     2
  0
APPID
  5
12
330
9
100
AcDbSymbolTableRecord
100
AcDbRegAppTableRecord
  2
ACAD
 70
     0
  0
ENDTAB
  0
TABLE
  2
DIMSTYLE
  5
A
330
0
100
AcDbSymbolTable
 70
     1
  0
DIMSTYLE
105
27
330
A
100
AcDbSymbolTableRecord
100
AcDbDimStyleTableRecord
  2
ISO-25
 70
     0
  3

  4

  5

  6

  7

 40
1.0
 41
2.5
 42
0.625
 43
3.75
 44
1.25
 45
0.0
 46
0.0
 47
0.0
 48
0.0
140
2.5
141
2.5
142
0.0
143
0.03937007874016
144
1.0
145
0.0
146
1.0
147
0.625
 71
     0
 72
     0
 73
     0
 74
     0
 75
     0
 76
     0
 77
     1
 78
     8
170
     0
171
     3
172
     1
173
     0
174
     0
175
     0
176
     0
177
     0
178
     0
270
     2
271
     2
272
     2
273
     2
274
     3
340
11
275
     0
280
     0
281
     0
282
     0
283
     0
284
     8
285
     0
286
     0
287
     3
288
     0
  0
ENDTAB
  0
TABLE
  2
BLOCK_RECORD
  5
1
330
0
100
AcDbSymbolTable
 70
     1
  0
BLOCK_RECORD
  5
1F
330
1
100
AcDbSymbolTableRecord
100
AcDbBlockTableRecord
  2
*MODEL_SPACE
  0
BLOCK_RECORD
  5
1B
330
1
100
AcDbSymbolTableRecord
100
AcDbBlockTableRecord
  2
*PAPER_SPACE
  0
ENDTAB
  0
ENDSEC
  0
SECTION
  2
BLOCKS
  0
BLOCK
  5
20
330
1F
100
AcDbEntity
  8
0
100
AcDbBlockBegin
  2
*MODEL_SPACE
 70
     0
 10
0.0
 20
0.0
 30
0.0
  3
*MODEL_SPACE
  1

  0
ENDBLK
  5
21
330
1F
100
AcDbEntity
  8
0
100
AcDbBlockEnd
  0
BLOCK
  5
1C
330
1B
100
AcDbEntity
 67
     1
  8
0
100
AcDbBlockBegin
  2
*PAPER_SPACE
  1

  0
ENDBLK
  5
1D
330
1B
100
AcDbEntity
 67
     1
  8
0
100
AcDbBlockEnd
  0
ENDSEC
  0
SECTION
  2
ENTITIES
  0
SPLINE
  5
100
100
AcDbEntity
  8
0
 62
5
100
AcDbSpline
 70
0
 71
3
 72
10
 73
6
 74
4
 40
0.000000
 40
0.000000
 40
0.000000
 40
0.000000
 40
79.305031
 40
158.553798
 40
237.759361
 40
237.759361
 40
237.759361
 40
237.759361
 10
570.182844
 20
100.730419
 30
0.0
 10
593.075944
 20
114.315184
 30
0.0
 10
638.845901
 20
141.475076
 30
0.0
 10
685.703607
 20
209.858658
 30
0.0
 10
692.971872
 20
262.668018
 30
0.0
 10
696.605014
 20
289.065498
 30
0.0
 11
570.182844
 21
100.730419
 31
0.0
 11
635.229037
 21
146.098697
 31
0.0
 11
679.718861
 21
211.680880
 31
0.0
 11
696.605014
 21
289.065498
 31
0.0
  0
SPLINE
  5
101
100
AcDbEntity
  8
0
 62
5
100
AcDbSpline
 70
0
 71
3
 72
10
 73
6
 74
4
 40
0.000000
 40
0.000000
 40
0.000000
 40
0.000000
 40
69.168393
 40
138.330072
 40
207.590391
 40
207.590391
 40
207.590391
 40
207.590391
 10
696.605014
 20
289.065498
 30
0.0
 10
694.610551
 20
312.216420
 30
0.0
 10
690.621818
 20
358.516018
 30
0.0
 10
655.525233
 20
421.166663
 30
0.0
 10
619.210729
 20
450.028824
 30
0.0
 10
601.040539
 20
464.470188
 30
0.0
 11
696.605014
 21
289.065498
 31
0.0
 11
685.771591
 21
357.380237
 31
0.0
 11
652.318514
 21
417.913116
 31
0.0
 11
601.040539
 21
464.470188
 31
0.0
  0
SPLINE
  5
102
100
AcDbEntity
  8
0
 62
5
100
AcDbSpline
 70
0
 71
3
 72
10
 73
6
 74
4
 40
0.000000
 40
0.000000
 40
0.000000
 40
0.000000
 40
76.213537
 40
152.334918
 40
228.272131
 40
228.272131
 40
228.272131
 40
228.272131
 10
601.040539
 20
464.470188
 30
0.0
 10
578.609674
 20
476.576273
 30
0.0
 10
533.775068
 20
500.773803
 30
0.0
 10
455.423912
 20
511.339323
 30
0.0
 10
406.939397
 20
494.848098
 30
0.0
 10
382.726501
 20
486.612472
 30
0.0
 11
601.040539
 21
464.470188
 31
0.0
 11
531.882644
 21
496.496567
 31
0.0
 11
456.289803
 21
505.451285
 31
0.0
 11
382.726501
 21
486.612472
 31
0.0
  0
SPLINE
  5
103
100
AcDbEntity
  8
0
 62
5
100
AcDbSpline
 70
0
 71
3
 72
10
 73
6
 74
4
 40
0.000000
 40
0.000000
 40
0.000000
 40
0.000000
 40
79.761585
 40
159.611396
 40
239.514889
 40
239.514889
 40
239.514889
 40
239.514889
 10
382.726501
 20
486.612472
 30
0.0
 10
360.170862
 20
472.031474
 30
0.0
 10
315.034633
 20
442.853348
 30
0.0
 10
273.753148
 20
370.038632
 30
0.0
 10
269.730180
 20
316.565113
 30
0.0
 10
267.718020
 20
289.819370
 30
0.0
 11
382.726501
 21
486.612472
 31
0.0
 11
319.461331
 21
438.038522
 31
0.0
 11
279.636261
 21
368.829012
 31
0.0
 11
267.718020
 21
289.819370
 31
0.0
  0
LINE
  5
104
100
AcDbEntity
  8
0
 62
5
100
AcDbLine
 10
274.925244
 20
237.767596
 30
0.0
 11
270.272328
 21
210.204910
 31
0.0
  0
LINE
  5
105
100
AcDbEntity
  8
0
 62
5
100
AcDbLine
 10
270.272328
 20
210.204910
 30
0.0
 11
281.839874
 21
210.645934
 31
0.0
  0
LINE
  5
106
100
AcDbEntity
  8
0
 62
5
100
AcDbLine
 10
281.839874
 20
210.645934
 30
0.0
 11
273.182967
 21
147.975921
 31
0.0
  0
LINE
  5
107
100
AcDbEntity
  8
0
 62
5
100
AcDbLine
 10
273.182967
 20
147.975921
 30
0.0
 11
260.966496
 21
155.079520
 31
0.0
  0
LINE
  5
108
100
AcDbEntity
  8
0
 62
5
100
AcDbLine
 10
260.966496
 20
155.079520
 30
0.0
 11
256.313579
 21
127.516818
 31
0.0
  0
SPLINE
  5
109
100
AcDbEntity
  8
0
 62
5
100
AcDbSpline
 70
0
 71
3
 72
10
 73
6
 74
4
 40
0.000000
 40
0.000000
 40
0.000000
 40
0.000000
 40
17.569987
 40
35.153246
 40
52.611585
 40
52.611585
 40
52.611585
 40
52.611585
 10
267.718020
 20
289.819370
 30
0.0
 10
268.005756
 20
283.963696
 30
0.0
 10
268.581445
 20
272.247925
 30
0.0
 10
271.666091
 20
254.955975
 30
0.0
 10
273.841445
 20
243.483423
 30
0.0
 10
274.925244
 20
237.767596
 30
0.0
 11
267.718020
 21
289.819370
 31
0.0
 11
268.952289
 21
272.292789
 31
0.0
 11
271.703842
 21
254.926156
 31
0.0
 11
274.925244
 21
237.767596
 31
0.0
  0
SPLINE
  5
10a
100
AcDbEntity
  8
0
 62
5
100
AcDbSpline
 70
0
 71
3
 72
10
 73
6
 74
4
 40
0.000000
 40
0.000000
 40
0.000000
 40
0.000000
 40
103.250727
 40
206.484759
 40
309.640382
 40
309.640382
 40
309.640382
 40
309.640382
 10
256.313579
 20
127.516818
 30
0.0
 10
238.904816
 20
157.467529
 30
0.0
 10
204.090104
 20
217.364108
 30
0.0
 10
192.435251
 20
324.276351
 30
0.0
 10
214.994108
 20
389.862707
 30
0.0
 10
226.269251
 20
422.643427
 30
0.0
 11
256.313579
 21
127.516818
 31
0.0
 11
210.849041
 21
220.218967
 31
0.0
 11
200.019900
 21
322.883444
 31
0.0
 11
226.269251
 21
422.643427
 31
0.0
  0
SPLINE
  5
10b
100
AcDbEntity
  8
0
 62
5
100
AcDbSpline
 70
0
 71
3
 72
10
 73
6
 74
4
 40
0.000000
 40
0.000000
 40
0.000000
 40
0.000000
 40
76.550273
 40
153.037818
 40
229.582564
 40
229.582564
 40
229.582564
 40
229.582564
 10
226.269251
 20
422.643427
 30
0.0
 10
239.236966
 20
444.773599
 30
0.0
 10
265.161771
 20
489.015807
 30
0.0
 10
326.802307
 20
538.274435
 30
0.0
 10
375.743975
 20
553.613268
 30
0.0
 10
400.223956
 20
561.285552
 30
0.0
 11
226.269251
 21
422.643427
 31
0.0
 11
268.966571
 21
486.179898
 31
0.0
 11
328.749003
 21
533.891589
 31
0.0
 11
400.223956
 21
561.285552
 31
0.0
  0
SPLINE
  5
10c
100
AcDbEntity
  8
0
 62
5
100
AcDbSpline
 70
0
 71
3
 72
10
 73
6
 74
4
 40
0.000000
 40
0.000000
 40
0.000000
 40
0.000000
 40
101.898306
 40
203.806784
 40
305.475187
 40
305.475187
 40
305.475187
 40
305.475187
 10
400.223956
 20
561.285552
 30
0.0
 10
434.078023
 20
565.366546
 30
0.0
 10
501.789534
 20
573.528941
 30
0.0
 10
604.211107
 20
548.715268
 30
0.0
 10
658.257176
 20
506.768339
 30
0.0
 10
685.248342
 20
485.819608
 30
0.0
 11
400.223956
 21
561.285552
 31
0.0
 11
501.941655
 21
567.349758
 31
0.0
 11
600.730611
 21
542.328168
 31
0.0
 11
685.248342
 21
485.819608
 31
0.0
  0
SPLINE
  5
10d
100
AcDbEntity
  8
0
 62
5
100
AcDbSpline
 70
0
 71
3
 72
10
 73
6
 74
4
 40
0.000000
 40
0.000000
 40
0.000000
 40
0.000000
 40
87.863941
 40
175.715038
 40
263.610670
 40
263.610670
 40
263.610670
 40
263.610670
 10
685.248342
 20
485.819608
 30
0.0
 10
704.158262
 20
463.200141
 30
0.0
 10
741.975338
 20
417.964514
 30
0.0
 10
768.165138
 20
330.724812
 30
0.0
 10
762.030297
 20
272.108121
 30
0.0
 10
758.962099
 20
242.792348
 30
0.0
 11
685.248342
 21
485.819608
 31
0.0
 11
736.887425
 21
414.731794
 31
0.0
 11
762.264870
 21
330.625905
 31
0.0
 11
758.962099
 21
242.792348
 31
0.0
  0
LINE
  5
10e
100
AcDbEntity
  8
0
 62
5
100
AcDbLine
 10
683.465574
 20
100.730419
 30
0.0
 11
653.256568
 21
84.342724
 31
0.0
  0
LINE
  5
10f
100
AcDbEntity
  8
0
 62
5
100
AcDbLine
 10
653.256568
 20
84.342724
 30
0.0
 11
655.144888
 21
100.730419
 31
0.0
  0
LINE
  5
110
100
AcDbEntity
  8
0
 62
5
100
AcDbLine
 10
655.144888
 20
100.730419
 30
0.0
 11
626.824201
 21
100.730419
 31
0.0
  0
LINE
  5
111
100
AcDbEntity
  8
0
 62
5
100
AcDbLine
 10
626.824201
 20
100.730419
 30
0.0
 11
598.503531
 21
100.730419
 31
0.0
  0
LINE
  5
112
100
AcDbEntity
  8
0
 62
5
100
AcDbLine
 10
598.503531
 20
100.730419
 30
0.0
 11
599.723707
 21
86.610628
 31
0.0
  0
LINE
  5
113
100
AcDbEntity
  8
0
 62
5
100
AcDbLine
 10
599.723707
 20
86.610628
 30
0.0
 11
563.124204
 21
86.233604
 31
0.0
  0
LINE
  5
114
100
AcDbEntity
  8
0
 62
5
100
AcDbLine
 10
563.124204
 20
86.233604
 30
0.0
 11
570.182844
 21
100.730419
 31
0.0
  0
SPLINE
  5
115
100
AcDbEntity
  8
0
 62
5
100
AcDbSpline
 70
0
 71
3
 72
10
 73
6
 74
4
 40
0.000000
 40
0.000000
 40
0.000000
 40
0.000000
 40
54.275462
 40
108.553789
 40
162.840492
 40
162.840492
 40
162.840492
 40
162.840492
 10
758.962099
 20
242.792348
 30
0.0
 10
754.333527
 20
225.262128
 30
0.0
 10
745.076138
 20
190.200764
 30
0.0
 10
719.145357
 20
141.771091
 30
0.0
 10
695.359447
 20
114.411347
 30
0.0
 10
683.465574
 20
100.730419
 30
0.0
 11
758.962099
 21
242.792348
 31
0.0
 11
743.069299
 21
190.895868
 31
0.0
 11
717.522448
 21
143.005417
 31
0.0
 11
683.465574
 21
100.730419
 31
0.0
  0
SPLINE
  5
116
100
AcDbEntity
  8
0
 62
7
100
AcDbSpline
 70
0
 71
3
 72
10
 73
6
 74
4
 40
0.000000
 40
0.000000
 40
0.000000
 40
0.000000
 40
11.790483
 40
23.579879
 40
35.365831
 40
35.365831
 40
35.365831
 40
35.365831
 10
666.434711
 20
130.522738
 30
0.0
 10
664.401121
 20
133.885895
 30
0.0
 10
660.334127
 20
140.611900
 30
0.0
 10
654.094069
 20
150.614329
 30
0.0
 10
649.821180
 20
157.209727
 30
0.0
 10
647.685048
 20
160.506944
 30
0.0
 11
666.434711
 21
130.522738
 31
0.0
 11
660.310559
 21
140.597967
 31
0.0
 11
654.065158
 21
150.597208
 31
0.0
 11
647.685048
 21
160.506944
 31
0.0
  0
LINE
  5
117
100
AcDbEntity
  8
0
 62
7
100
AcDbLine
 10
646.410792
 20
162.438832
 30
0.0
 11
646.492872
 21
162.314512
 31
0.0
  0
LINE
  5
118
100
AcDbEntity
  8
0
 62
7
100
AcDbLine
 10
646.492872
 20
162.314512
 30
0.0
 11
646.499272
 21
162.306512
 31
0.0
  0
SPLINE
  5
119
100
AcDbEntity
  8
0
 62
7
100
AcDbSpline
 70
0
 71
3
 72
10
 73
6
 74
4
 40
0.000000
 40
0.000000
 40
0.000000
 40
0.000000
 40
0.768028
 40
1.751807
 40
2.314286
 40
2.314286
 40
2.314286
 40
2.314286
 10
647.685048
 20
160.506944
 30
0.0
 10
647.544048
 20
160.720626
 30
0.0
 10
647.222439
 20
161.208015
 30
0.0
 10
646.797794
 20
161.852048
 30
0.0
 10
646.514020
 20
162.282315
 30
0.0
 10
646.410792
 20
162.438832
 30
0.0
 11
647.685048
 21
160.506944
 31
0.0
 11
647.262081
 21
161.148010
 31
0.0
 11
646.720469
 21
161.969275
 31
0.0
 11
646.410792
 21
162.438832
 31
0.0
  0
SPLINE
  5
11a
100
AcDbEntity
  8
0
 62
7
100
AcDbSpline
 70
0
 71
3
 72
10
 73
6
 74
4
 40
0.000000
 40
0.000000
 40
0.000000
 40
0.000000
 40
0.725271
 40
1.882809
 40
2.969916
 40
2.969916
 40
2.969916
 40
2.969916
 10
749.267683
 20
193.051823
 30
0.0
 10
749.097213
 20
193.223247
 30
0.0
 10
748.654671
 20
193.668267
 30
0.0
 10
747.956603
 20
194.370224
 30
0.0
 10
747.429010
 20
194.900764
 30
0.0
 10
747.173491
 20
195.157710
 30
0.0
 11
749.267683
 21
193.051823
 31
0.0
 11
748.756272
 21
193.566096
 31
0.0
 11
747.940050
 21
194.386872
 31
0.0
 11
747.173491
 21
195.157710
 31
0.0
  0
SPLINE
  5
11b
100
AcDbEntity
  8
0
 62
7
100
AcDbSpline
 70
0
 71
3
 72
10
 73
6
 74
4
 40
0.000000
 40
0.000000
 40
0.000000
 40
0.000000
 40
12.907541
 40
25.816928
 40
38.726116
 40
38.726116
 40
38.726116
 40
38.726116
 10
747.173491
 20
195.157710
 30
0.0
 10
744.130042
 20
198.198930
 30
0.0
 10
738.042707
 20
204.281804
 30
0.0
 10
728.844911
 20
213.339594
 30
0.0
 10
722.634755
 20
219.297937
 30
0.0
 10
719.529701
 20
222.277085
 30
0.0
 11
747.173491
 21
195.157710
 31
0.0
 11
738.032041
 21
204.270256
 31
0.0
 11
728.825360
 21
213.319526
 31
0.0
 11
719.529701
 21
222.277085
 31
0.0
  0
SPLINE
  5
11c
100
AcDbEntity
  8
0
 62
7
100
AcDbSpline
 70
0
 71
3
 72
10
 73
6
 74
4
 40
0.000000
 40
0.000000
 40
0.000000
 40
0.000000
 40
9.323355
 40
18.641335
 40
27.948745
 40
27.948745
 40
27.948745
 40
27.948745
 10
730.499620
 20
317.242856
 30
0.0
 10
727.787998
 20
318.761257
 30
0.0
 10
722.366318
 20
321.797183
 30
0.0
 10
714.172869
 20
326.232269
 30
0.0
 10
708.662472
 20
329.092615
 30
0.0
 10
705.908837
 20
330.521976
 30
0.0
 11
730.499620
 21
317.242856
 31
0.0
 11
722.353946
 21
321.778597
 31
0.0
 11
714.157210
 21
326.210107
 31
0.0
 11
705.908837
 21
330.521976
 31
0.0
  0
SPLINE
  5
11d
100
AcDbEntity
  8
0
 62
7
100
AcDbSpline
 70
0
 71
3
 72
10
 73
6
 74
4
 40
0.000000
 40
0.000000
 40
0.000000
 40
0.000000
 40
6.140789
 40
12.353624
 40
18.129024
 40
18.129024
 40
18.129024
 40
18.129024
 10
705.908837
 20
330.521976
 30
0.0
 10
704.082582
 20
331.446509
 30
0.0
 10
700.408644
 20
333.306423
 30
0.0
 10
694.973189
 20
335.948305
 30
0.0
 10
691.345029
 20
337.623306
 30
0.0
 10
689.597142
 20
338.430247
 30
0.0
 11
705.908837
 21
330.521976
 31
0.0
 11
700.422674
 21
333.280834
 31
0.0
 11
694.832948
 21
335.992712
 31
0.0
 11
689.597142
 21
338.430247
 31
0.0
  0
SPLINE
  5
11e
100
AcDbEntity
  8
0
 62
7
100
AcDbSpline
 70
0
 71
3
 72
10
 73
6
 74
4
 40
0.000000
 40
0.000000
 40
0.000000
 40
0.000000
 40
0.860938
 40
1.927341
 40
1.961860
 40
1.961860
 40
1.961860
 40
1.961860
 10
689.597142
 20
338.430247
 30
0.0
 10
689.335531
 20
338.548216
 30
0.0
 10
688.749874
 20
338.812307
 30
0.0
 10
688.153219
 20
339.080001
 30
0.0
 10
687.818982
 20
339.231513
 30
0.0
 10
687.808502
 20
339.236263
 30
0.0
 11
689.597142
 21
338.430247
 31
0.0
 11
688.812208
 21
338.783933
 31
0.0
 11
687.839943
 21
339.222013
 31
0.0
 11
687.808502
 21
339.236263
 31
0.0
  0
SPLINE
  5
11f
100
AcDbEntity
  8
0
 62
7
100
AcDbSpline
 70
0
 71
3
 72
10
 73
6
 74
4
 40
0.000000
 40
0.000000
 40
0.000000
 40
0.000000
 40
1.052776
 40
2.483065
 40
3.849773
 40
3.849773
 40
3.849773
 40
3.849773
 10
754.572691
 20
384.807253
 30
0.0
 10
754.241693
 20
384.923825
 30
0.0
 10
753.461005
 20
385.198769
 30
0.0
 10
752.250614
 20
385.625037
 30
0.0
 10
751.371223
 20
385.934739
 30
0.0
 10
750.941523
 20
386.086069
 30
0.0
 11
754.572691
 21
384.807253
 31
0.0
 11
753.579697
 21
385.156967
 31
0.0
 11
752.230624
 21
385.632078
 31
0.0
 11
750.941523
 21
386.086069
 31
0.0
  0
SPLINE
  5
120
100
AcDbEntity
  8
0
 62
7
100
AcDbSpline
 70
0
 71
3
 72
10
 73
6
 74
4
 40
0.000000
 40
0.000000
 40
0.000000
 40
0.000000
 40
16.121911
 40
32.272104
 40
48.434114
 40
48.434114
 40
48.434114
 40
48.434114
 10
750.941523
 20
386.086069
 30
0.0
 10
745.863649
 20
387.845224
 30
0.0
 10
735.698992
 20
391.366619
 30
0.0
 10
720.379402
 20
396.465593
 30
0.0
 10
710.086105
 20
399.637822
 30
0.0
 10
704.937573
 20
401.224516
 30
0.0
 11
750.941523
 21
386.086069
 31
0.0
 11
735.697187
 21
391.332612
 31
0.0
 11
720.364897
 21
396.407019
 31
0.0
 11
704.937573
 21
401.224516
 31
0.0
  0
SPLINE
  5
121
100
AcDbEntity
  8
0
 62
7
100
AcDbSpline
 70
0
 71
3
 72
10
 73
6
 74
4
 40
0.000000
 40
0.000000
 40
0.000000
 40
0.000000
 40
9.367562
 40
18.731054
 40
28.089055
 40
28.089055
 40
28.089055
 40
28.089055
 10
654.044728
 20
467.624638
 30
0.0
 10
650.942021
 20
467.976028
 30
0.0
 10
644.737956
 20
468.678656
 30
0.0
 10
635.418541
 20
469.587781
 30
0.0
 10
629.197226
 20
470.077932
 30
0.0
 10
626.087481
 20
470.322935
 30
0.0
 11
654.044728
 21
467.624638
 31
0.0
 11
644.733972
 21
468.654702
 31
0.0
 11
635.414248
 21
469.558996
 31
0.0
 11
626.087481
 21
470.322935
 31
0.0
  0
SPLINE
  5
122
100
AcDbEntity
  8
0
 62
7
100
AcDbSpline
 70
0
 71
3
 72
10
 73
6
 74
4
 40
0.000000
 40
0.000000
 40
0.000000
 40
0.000000
 40
12.559802
 40
25.134088
 40
37.592784
 40
37.592784
 40
37.592784
 40
37.592784
 10
626.087481
 20
470.322935
 30
0.0
 10
621.908819
 20
470.573934
 30
0.0
 10
613.546674
 20
471.076221
 30
0.0
 10
601.001561
 20
471.284769
 30
0.0
 10
592.680413
 20
470.604665
 30
0.0
 10
588.539051
 20
470.266183
 30
0.0
 11
626.087481
 21
470.322935
 31
0.0
 11
613.545158
 21
470.985323
 31
0.0
 11
600.971219
 21
471.078771
 31
0.0
 11
588.539051
 21
470.266183
 31
0.0
  0
SPLINE
  5
123
100
AcDbEntity
  8
0
 62
7
100
AcDbSpline
 70
0
 71
3
 72
10
 73
6
 74
4
 40
0.000000
 40
0.000000
 40
0.000000
 40
0.000000
 40
1.182275
 40
2.408051
 40
3.958255
 40
3.958255
 40
3.958255
 40
3.958255
 10
588.539051
 20
470.266183
 30
0.0
 10
588.148128
 20
470.216313
 30
0.0
 10
587.351896
 20
470.114737
 30
0.0
 10
586.044667
 20
469.935465
 30
0.0
 10
585.130067
 20
469.794874
 30
0.0
 10
584.619323
 20
469.716363
 30
0.0
 11
588.539051
 21
470.266183
 31
0.0
 11
587.366513
 21
470.114768
 31
0.0
 11
586.152235
 21
469.947260
 31
0.0
 11
584.619323
 21
469.716363
 31
0.0
  0
SPLINE
  5
124
100
AcDbEntity
  8
0
 62
7
100
AcDbSpline
 70
0
 71
3
 72
10
 73
6
 74
4
 40
0.000000
 40
0.000000
 40
0.000000
 40
0.000000
 40
0.027207
 40
0.245457
 40
0.390885
 40
0.390885
 40
0.390885
 40
0.390885
 10
584.619323
 20
469.716363
 30
0.0
 10
584.628293
 20
469.717700
 30
0.0
 10
584.709217
 20
469.729769
 30
0.0
 10
584.838086
 20
469.748994
 30
0.0
 10
584.957986
 20
469.766876
 30
0.0
 10
585.005931
 20
469.774027
 30
0.0
 11
584.619323
 21
469.716363
 31
0.0
 11
584.646232
 21
469.720376
 31
0.0
 11
584.862094
 21
469.752574
 31
0.0
 11
585.005931
 21
469.774027
 31
0.0
  0
SPLINE
  5
125
100
AcDbEntity
  8
0
 62
7
100
AcDbSpline
 70
0
 71
3
 72
10
 73
6
 74
4
 40
0.000000
 40
0.000000
 40
0.000000
 40
0.000000
 40
1.547516
 40
3.536524
 40
5.251472
 40
5.251472
 40
5.251472
 40
5.251472
 10
657.639592
 20
516.725618
 30
0.0
 10
657.124208
 20
516.747287
 30
0.0
 10
655.946408
 20
516.796808
 30
0.0
 10
654.197469
 20
516.870489
 30
0.0
 10
652.963905
 20
516.922325
 30
0.0
 10
652.392760
 20
516.946325
 30
0.0
 11
657.639592
 21
516.725618
 31
0.0
 11
656.093443
 21
516.790644
 31
0.0
 11
654.106195
 21
516.874296
 31
0.0
 11
652.392760
 21
516.946325
 31
0.0
  0
SPLINE
  5
126
100
AcDbEntity
  8
0
 62
7
100
AcDbSpline
 70
0
 71
3
 72
10
 73
6
 74
4
 40
0.000000
 40
0.000000
 40
0.000000
 40
0.000000
 40
27.086653
 40
54.201486
 40
81.311365
 40
81.311365
 40
81.311365
 40
81.311365
 10
652.392760
 20
516.946325
 30
0.0
 10
643.371327
 20
517.306506
 30
0.0
 10
625.319075
 20
518.027243
 30
0.0
 10
598.231067
 20
519.062524
 30
0.0
 10
580.154368
 20
519.040217
 30
0.0
 10
571.116844
 20
519.029064
 30
0.0
 11
652.392760
 21
516.946325
 31
0.0
 11
625.327363
 21
518.019220
 31
0.0
 11
598.226337
 21
518.884377
 31
0.0
 11
571.116844
 21
519.029064
 31
0.0
  0
SPLINE
  5
127
100
AcDbEntity
  8
0
 62
7
100
AcDbSpline
 70
0
 71
3
 72
13
 73
9
 74
7
 40
0.000000
 40
0.000000
 40
0.000000
 40
0.000000
 40
2.087829
 40
4.166774
 40
6.239492
 40
17.253017
 40
28.294173
 40
39.350456
 40
39.350456
 40
39.350456
 40
39.350456
 10
409.279924
 20
535.658231
 30
0.0
 10
408.828249
 20
535.128504
 30
0.0
 10
407.926822
 20
534.071302
 30
0.0
 10
406.698636
 20
532.390579
 30
0.0
 10
403.936577
 20
528.154461
 30
0.0
 10
400.813353
 20
520.629027
 30
0.0
 10
399.278764
 20
509.505003
 30
0.0
 10
400.741700
 20
502.240776
 30
0.0
 10
401.473668
 20
498.606176
 30
0.0
 11
409.279924
 21
535.658231
 31
0.0
 11
407.945296
 21
534.052679
 31
0.0
 11
406.712723
 21
532.378530
 31
0.0
 11
405.582276
 21
530.641219
 31
0.0
 11
401.273971
 21
520.505330
 31
0.0
 11
399.900385
 21
509.549948
 31
0.0
 11
401.473668
 21
498.606176
 31
0.0
  0
LINE
  5
128
100
AcDbEntity
  8
0
 62
7
100
AcDbLine
 10
403.807524
 20
491.716104
 30
0.0
 11
403.689284
 21
492.018288
 31
0.0
  0
SPLINE
  5
129
100
AcDbEntity
  8
0
 62
7
100
AcDbSpline
 70
0
 71
3
 72
10
 73
6
 74
4
 40
0.000000
 40
0.000000
 40
0.000000
 40
0.000000
 40
2.514443
 40
4.905858
 40
7.279422
 40
7.279422
 40
7.279422
 40
7.279422
 10
401.473668
 20
498.606176
 30
0.0
 10
401.698114
 20
497.798468
 30
0.0
 10
402.136023
 20
496.222573
 30
0.0
 10
402.930323
 20
493.928112
 30
0.0
 10
403.515855
 20
492.451596
 30
0.0
 10
403.807524
 20
491.716104
 30
0.0
 11
401.473668
 21
498.606176
 31
0.0
 11
402.172591
 21
496.190822
 31
0.0
 11
402.948794
 21
493.928882
 31
0.0
 11
403.807524
 21
491.716104
 31
0.0
  0
SPLINE
  5
12a
100
AcDbEntity
  8
0
 62
7
100
AcDbSpline
 70
0
 71
3
 72
10
 73
6
 74
4
 40
0.000000
 40
0.000000
 40
0.000000
 40
0.000000
 40
14.818182
 40
29.611066
 40
44.424916
 40
44.424916
 40
44.424916
 40
44.424916
 10
269.545382
 20
497.067312
 30
0.0
 10
271.797845
 20
492.666451
 30
0.0
 10
276.298924
 20
483.872243
 30
0.0
 10
284.880137
 20
471.731305
 30
0.0
 10
291.504302
 20
464.410403
 30
0.0
 10
294.818730
 20
460.747360
 30
0.0
 11
269.545382
 21
497.067312
 31
0.0
 11
276.607955
 21
484.040471
 31
0.0
 11
285.102083
 21
471.929351
 31
0.0
 11
294.818730
 21
460.747360
 31
0.0
  0
SPLINE
  5
12b
100
AcDbEntity
  8
0
 62
7
100
AcDbSpline
 70
0
 71
3
 72
13
 73
9
 74
7
 40
0.000000
 40
0.000000
 40
0.000000
 40
0.000000
 40
12.614298
 40
25.218337
 40
37.800134
 40
38.235843
 40
38.745551
 40
39.027494
 40
39.027494
 40
39.027494
 40
39.027494
 10
238.282761
 20
354.957447
 30
0.0
 10
242.355148
 20
353.812012
 30
0.0
 10
250.496611
 20
351.522073
 30
0.0
 10
262.375249
 20
348.642085
 30
0.0
 10
271.698183
 20
346.708682
 30
0.0
 10
275.390552
 20
346.005111
 30
0.0
 10
276.152602
 20
345.859584
 30
0.0
 10
275.792284
 20
345.928443
 30
0.0
 10
275.663958
 20
345.952967
 30
0.0
 11
238.282761
 21
354.957447
 31
0.0
 11
250.445720
 21
351.613356
 31
0.0
 11
262.695236
 21
348.644994
 31
0.0
 11
275.012236
 21
346.077287
 31
0.0
 11
275.440218
 21
345.995595
 31
0.0
 11
275.940888
 21
345.900035
 31
0.0
 11
275.663958
 21
345.952967
 31
0.0
  0
SPLINE
  5
12c
100
AcDbEntity
  8
0
 62
7
100
AcDbSpline
 70
0
 71
3
 72
10
 73
6
 74
4
 40
0.000000
 40
0.000000
 40
0.000000
 40
0.000000
 40
11.732574
 40
23.465956
 40
35.199202
 40
35.199202
 40
35.199202
 40
35.199202
 10
206.601025
 20
233.649773
 30
0.0
 10
210.504953
 20
233.882874
 30
0.0
 10
218.313077
 20
234.349094
 30
0.0
 10
230.014741
 20
235.215898
 30
0.0
 10
237.804905
 20
235.924274
 30
0.0
 10
241.699964
 20
236.278460
 30
0.0
 11
206.601025
 21
233.649773
 31
0.0
 11
218.311040
 21
234.376987
 31
0.0
 11
230.012009
 21
235.248526
 31
0.0
 11
241.699964
 21
236.278460
 31
0.0
  0
SPLINE
  5
12d
100
AcDbEntity
  8
0
 62
5
100
AcDbSpline
 70
0
 71
3
 72
10
 73
6
 74
4
 40
0.000000
 40
0.000000
 40
0.000000
 40
0.000000
 40
79.305031
 40
158.553798
 40
237.759361
 40
237.759361
 40
237.759361
 40
237.759361
 10
213.133298
 20
492.220972
 30
0.0
 10
190.240198
 20
478.636207
 30
0.0
 10
144.470241
 20
451.476314
 30
0.0
 10
97.612534
 20
383.092733
 30
0.0
 10
90.344269
 20
330.283373
 30
0.0
 10
86.711128
 20
303.885893
 30
0.0
 11
213.133298
 21
492.220972
 31
0.0
 11
148.087105
 21
446.852694
 31
0.0
 11
103.597280
 21
381.270511
 31
0.0
 11
86.711128
 21
303.885893
 31
0.0
  0
SPLINE
  5
12e
100
AcDbEntity
  8
0
 62
5
100
AcDbSpline
 70
0
 71
3
 72
10
 73
6
 74
4
 40
0.000000
 40
0.000000
 40
0.000000
 40
0.000000
 40
69.168393
 40
138.330072
 40
207.590391
 40
207.590391
 40
207.590391
 40
207.590391
 10
86.711128
 20
303.885893
 30
0.0
 10
88.705591
 20
280.734971
 30
0.0
 10
92.694323
 20
234.435373
 30
0.0
 10
127.790909
 20
171.784728
 30
0.0
 10
164.105412
 20
142.922567
 30
0.0
 10
182.275603
 20
128.481203
 30
0.0
 11
86.711128
 21
303.885893
 31
0.0
 11
97.544551
 21
235.571154
 31
0.0
 11
130.997628
 21
175.038275
 31
0.0
 11
182.275603
 21
128.481203
 31
0.0
  0
SPLINE
  5
12f
100
AcDbEntity
  8
0
 62
5
100
AcDbSpline
 70
0
 71
3
 72
10
 73
6
 74
4
 40
0.000000
 40
0.000000
 40
0.000000
 40
0.000000
 40
76.213537
 40
152.334918
 40
228.272131
 40
228.272131
 40
228.272131
 40
228.272131
 10
182.275603
 20
128.481203
 30
0.0
 10
204.706467
 20
116.375118
 30
0.0
 10
249.541073
 20
92.177588
 30
0.0
 10
327.892230
 20
81.612068
 30
0.0
 10
376.376744
 20
98.103293
 30
0.0
 10
400.589640
 20
106.338919
 30
0.0
 11
182.275603
 21
128.481203
 31
0.0
 11
251.433497
 21
96.454824
 31
0.0
 11
327.026338
 21
87.500106
 31
0.0
 11
400.589640
 21
106.338919
 31
0.0
  0
SPLINE
  5
130
100
AcDbEntity
  8
0
 62
5
100
AcDbSpline
 70
0
 71
3
 72
10
 73
6
 74
4
 40
0.000000
 40
0.000000
 40
0.000000
 40
0.000000
 40
79.761585
 40
159.611396
 40
239.514889
 40
239.514889
 40
239.514889
 40
239.514889
 10
400.589640
 20
106.338919
 30
0.0
 10
423.145280
 20
120.919917
 30
0.0
 10
468.281509
 20
150.098043
 30
0.0
 10
509.562994
 20
222.912759
 30
0.0
 10
513.585962
 20
276.386278
 30
0.0
 10
515.598121
 20
303.132021
 30
0.0
 11
400.589640
 21
106.338919
 31
0.0
 11
463.854811
 21
154.912869
 31
0.0
 11
503.679880
 21
224.122379
 31
0.0
 11
515.598121
 21
303.132021
 31
0.0
  0
LINE
  5
131
100
AcDbEntity
  8
0
 62
5
100
AcDbLine
 10
508.390897
 20
355.183795
 30
0.0
 11
513.043814
 21
382.746481
 31
0.0
  0
LINE
  5
132
100
AcDbEntity
  8
0
 62
5
100
AcDbLine
 10
513.043814
 20
382.746481
 30
0.0
 11
501.476267
 21
382.305457
 31
0.0
  0
LINE
  5
133
100
AcDbEntity
  8
0
 62
5
100
AcDbLine
 10
501.476267
 20
382.305457
 30
0.0
 11
510.133174
 21
444.975470
 31
0.0
  0
LINE
  5
134
100
AcDbEntity
  8
0
 62
5
100
AcDbLine
 10
510.133174
 20
444.975470
 30
0.0
 11
522.349646
 21
437.871871
 31
0.0
  0
LINE
  5
135
100
AcDbEntity
  8
0
 62
5
100
AcDbLine
 10
522.349646
 20
437.871871
 30
0.0
 11
527.002562
 21
465.434573
 31
0.0
  0
SPLINE
  5
136
100
AcDbEntity
  8
0
 62
5
100
AcDbSpline
 70
0
 71
3
 72
10
 73
6
 74
4
 40
0.000000
 40
0.000000
 40
0.000000
 40
0.000000
 40
17.569987
 40
35.153246
 40
52.611585
 40
52.611585
 40
52.611585
 40
52.611585
 10
515.598121
 20
303.132021
 30
0.0
 10
515.310385
 20
308.987695
 30
0.0
 10
514.734696
 20
320.703466
 30
0.0
 10
511.650051
 20
337.995416
 30
0.0
 10
509.474697
 20
349.467968
 30
0.0
 10
508.390897
 20
355.183795
 30
0.0
 11
515.598121
 21
303.132021
 31
0.0
 11
514.363853
 21
320.658602
 31
0.0
 11
511.612299
 21
338.025235
 31
0.0
 11
508.390897
 21
355.183795
 31
0.0
  0
SPLINE
  5
137
100
AcDbEntity
  8
0
 62
5
100
AcDbSpline
 70
0
 71
3
 72
10
 73
6
 74
4
 40
0.000000
 40
0.000000
 40
0.000000
 40
0.000000
 40
103.250727
 40
206.484759
 40
309.640382
 40
309.640382
 40
309.640382
 40
309.640382
 10
527.002562
 20
465.434573
 30
0.0
 10
544.411326
 20
435.483862
 30
0.0
 10
579.226037
 20
375.587283
 30
0.0
 10
590.880891
 20
268.675040
 30
0.0
 10
568.322034
 20
203.088684
 30
0.0
 10
557.046890
 20
170.307964
 30
0.0
 11
527.002562
 21
465.434573
 31
0.0
 11
572.467101
 21
372.732424
 31
0.0
 11
583.296241
 21
270.067947
 31
0.0
 11
557.046890
 21
170.307964
 31
0.0
  0
SPLINE
  5
138
100
AcDbEntity
  8
0
 62
5
100
AcDbSpline
 70
0
 71
3
 72
10
 73
6
 74
4
 40
0.000000
 40
0.000000
 40
0.000000
 40
0.000000
 40
76.550273
 40
153.037818
 40
229.582564
 40
229.582564
 40
229.582564
 40
229.582564
 10
557.046890
 20
170.307964
 30
0.0
 10
544.079175
 20
148.177792
 30
0.0
 10
518.154371
 20
103.935583
 30
0.0
 10
456.513835
 20
54.676956
 30
0.0
 10
407.572166
 20
39.338123
 30
0.0
 10
383.092185
 20
31.665839
 30
0.0
 11
557.046890
 21
170.307964
 31
0.0
 11
514.349571
 21
106.771493
 31
0.0
 11
454.567138
 21
59.059802
 31
0.0
 11
383.092185
 21
31.665839
 31
0.0
  0
SPLINE
  5
139
100
AcDbEntity
  8
0
 62
5
100
AcDbSpline
 70
0
 71
3
 72
10
 73
6
 74
4
 40
0.000000
 40
0.000000
 40
0.000000
 40
0.000000
 40
101.898306
 40
203.806784
 40
305.475187
 40
305.475187
 40
305.475187
 40
305.475187
 10
383.092185
 20
31.665839
 30
0.0
 10
349.238119
 20
27.584845
 30
0.0
 10
281.526607
 20
19.422450
 30
0.0
 10
179.105035
 20
44.236123
 30
0.0
 10
125.058966
 20
86.183052
 30
0.0
 10
98.067799
 20
107.131783
 30
0.0
 11
383.092185
 21
31.665839
 31
0.0
 11
281.374487
 21
25.601633
 31
0.0
 11
182.585531
 21
50.623223
 31
0.0
 11
98.067799
 21
107.131783
 31
0.0
  0
SPLINE
  5
13a
100
AcDbEntity
  8
0
 62
5
100
AcDbSpline
 70
0
 71
3
 72
10
 73
6
 74
4
 40
0.000000
 40
0.000000
 40
0.000000
 40
0.000000
 40
87.863941
 40
175.715038
 40
263.610670
 40
263.610670
 40
263.610670
 40
263.610670
 10
98.067799
 20
107.131783
 30
0.0
 10
79.157879
 20
129.751249
 30
0.0
 10
41.340803
 20
174.986877
 30
0.0
 10
15.151004
 20
262.226579
 30
0.0
 10
21.285845
 20
320.843270
 30
0.0
 10
24.354043
 20
350.159043
 30
0.0
 11
98.067799
 21
107.131783
 31
0.0
 11
46.428717
 21
178.219596
 31
0.0
 11
21.051272
 21
262.325486
 31
0.0
 11
24.354043
 21
350.159043
 31
0.0
  0
LINE
  5
13b
100
AcDbEntity
  8
0
 62
5
100
AcDbLine
 10
99.850567
 20
492.220972
 30
0.0
 11
130.059574
 21
508.608667
 31
0.0
  0
LINE
  5
13c
100
AcDbEntity
  8
0
 62
5
100
AcDbLine
 10
130.059574
 20
508.608667
 30
0.0
 11
128.171254
 21
492.220972
 31
0.0
  0
LINE
  5
13d
100
AcDbEntity
  8
0
 62
5
100
AcDbLine
 10
128.171254
 20
492.220972
 30
0.0
 11
156.491940
 21
492.220972
 31
0.0
  0
LINE
  5
13e
100
AcDbEntity
  8
0
 62
5
100
AcDbLine
 10
156.491940
 20
492.220972
 30
0.0
 11
184.812611
 21
492.220972
 31
0.0
  0
LINE
  5
13f
100
AcDbEntity
  8
0
 62
5
100
AcDbLine
 10
184.812611
 20
492.220972
 30
0.0
 11
183.592435
 21
506.340763
 31
0.0
  0
LINE
  5
140
100
AcDbEntity
  8
0
 62
5
100
AcDbLine
 10
183.592435
 20
506.340763
 30
0.0
 11
220.191937
 21
506.717787
 31
0.0
  0
LINE
  5
141
100
AcDbEntity
  8
0
 62
5
100
AcDbLine
 10
220.191937
 20
506.717787
 30
0.0
 11
213.133298
 21
492.220972
 31
0.0
  0
SPLINE
  5
142
100
AcDbEntity
  8
0
 62
5
100
AcDbSpline
 70
0
 71
3
 72
10
 73
6
 74
4
 40
0.000000
 40
0.000000
 40
0.000000
 40
0.000000
 40
54.275462
 40
108.553789
 40
162.840492
 40
162.840492
 40
162.840492
 40
162.840492
 10
24.354043
 20
350.159043
 30
0.0
 10
28.982615
 20
367.689263
 30
0.0
 10
38.240004
 20
402.750627
 30
0.0
 10
64.170784
 20
451.180300
 30
0.0
 10
87.956694
 20
478.540044
 30
0.0
 10
99.850567
 20
492.220972
 30
0.0
 11
24.354043
 21
350.159043
 31
0.0
 11
40.246843
 21
402.055523
 31
0.0
 11
65.793694
 21
449.945974
 31
0.0
 11
99.850567
 21
492.220972
 31
0.0
  0
SPLINE
  5
143
100
AcDbEntity
  8
0
 62
7
100
AcDbSpline
 70
0
 71
3
 72
10
 73
6
 74
4
 40
0.000000
 40
0.000000
 40
0.000000
 40
0.000000
 40
11.790483
 40
23.579879
 40
35.365831
 40
35.365831
 40
35.365831
 40
35.365831
 10
116.881430
 20
462.428653
 30
0.0
 10
118.915021
 20
459.065496
 30
0.0
 10
122.982014
 20
452.339491
 30
0.0
 10
129.222073
 20
442.337062
 30
0.0
 10
133.494961
 20
435.741664
 30
0.0
 10
135.631093
 20
432.444447
 30
0.0
 11
116.881430
 21
462.428653
 31
0.0
 11
123.005583
 21
452.353424
 31
0.0
 11
129.250983
 21
442.354183
 31
0.0
 11
135.631093
 21
432.444447
 31
0.0
  0
LINE
  5
144
100
AcDbEntity
  8
0
 62
7
100
AcDbLine
 10
136.905349
 20
430.512559
 30
0.0
 11
136.823269
 21
430.636879
 31
0.0
  0
LINE
  5
145
100
AcDbEntity
  8
0
 62
7
100
AcDbLine
 10
136.823269
 20
430.636879
 30
0.0
 11
136.816869
 21
430.644879
 31
0.0
  0
SPLINE
  5
146
100
AcDbEntity
  8
0
 62
7
100
AcDbSpline
 70
0
 71
3
 72
10
 73
6
 74
4
 40
0.000000
 40
0.000000
 40
0.000000
 40
0.000000
 40
0.768028
 40
1.751807
 40
2.314286
 40
2.314286
 40
2.314286
 40
2.314286
 10
135.631093
 20
432.444447
 30
0.0
 10
135.772093
 20
432.230765
 30
0.0
 10
136.093703
 20
431.743376
 30
0.0
 10
136.518348
 20
431.099343
 30
0.0
 10
136.802121
 20
430.669076
 30
0.0
 10
136.905349
 20
430.512559
 30
0.0
 11
135.631093
 21
432.444447
 31
0.0
 11
136.054060
 21
431.803381
 31
0.0
 11
136.595673
 21
430.982116
 31
0.0
 11
136.905349
 21
430.512559
 31
0.0
  0
SPLINE
  5
147
100
AcDbEntity
  8
0
 62
7
100
AcDbSpline
 70
0
 71
3
 72
10
 73
6
 74
4
 40
0.000000
 40
0.000000
 40
0.000000
 40
0.000000
 40
0.725271
 40
1.882809
 40
2.969916
 40
2.969916
 40
2.969916
 40
2.969916
 10
34.048458
 20
399.899568
 30
0.0
 10
34.218929
 20
399.728144
 30
0.0
 10
34.661470
 20
399.283124
 30
0.0
 10
35.359539
 20
398.581166
 30
0.0
 10
35.887131
 20
398.050627
 30
0.0
 10
36.142650
 20
397.793681
 30
0.0
 11
34.048458
 21
399.899568
 31
0.0
 11
34.559870
 21
399.385295
 31
0.0
 11
35.376092
 21
398.564519
 31
0.0
 11
36.142650
 21
397.793681
 31
0.0
  0
SPLINE
  5
148
100
AcDbEntity
  8
0
 62
7
100
AcDbSpline
 70
0
 71
3
 72
10
 73
6
 74
4
 40
0.000000
 40
0.000000
 40
0.000000
 40
0.000000
 40
12.907541
 40
25.816928
 40
38.726116
 40
38.726116
 40
38.726116
 40
38.726116
 10
36.142650
 20
397.793681
 30
0.0
 10
39.186100
 20
394.752461
 30
0.0
 10
45.273434
 20
388.669587
 30
0.0
 10
54.471231
 20
379.611797
 30
0.0
 10
60.681387
 20
373.653454
 30
0.0
 10
63.786441
 20
370.674306
 30
0.0
 11
36.142650
 21
397.793681
 31
0.0
 11
45.284101
 21
388.681135
 31
0.0
 11
54.490782
 21
379.631865
 31
0.0
 11
63.786441
 21
370.674306
 31
0.0
  0
SPLINE
  5
149
100
AcDbEntity
  8
0
 62
7
100
AcDbSpline
 70
0
 71
3
 72
10
 73
6
 74
4
 40
0.000000
 40
0.000000
 40
0.000000
 40
0.000000
 40
9.323355
 40
18.641335
 40
27.948745
 40
27.948745
 40
27.948745
 40
27.948745
 10
52.816521
 20
275.708534
 30
0.0
 10
55.528143
 20
274.190134
 30
0.0
 10
60.949823
 20
271.154208
 30
0.0
 10
69.143273
 20
266.719122
 30
0.0
 10
74.653670
 20
263.858776
 30
0.0
 10
77.407304
 20
262.429415
 30
0.0
 11
52.816521
 21
275.708534
 31
0.0
 11
60.962196
 21
271.172794
 31
0.0
 11
69.158931
 21
266.741284
 31
0.0
 11
77.407304
 21
262.429415
 31
0.0
  0
SPLINE
  5
14a
100
AcDbEntity
  8
0
 62
7
100
AcDbSpline
 70
0
 71
3
 72
10
 73
6
 74
4
 40
0.000000
 40
0.000000
 40
0.000000
 40
0.000000
 40
6.140789
 40
12.353624
 40
18.129024
 40
18.129024
 40
18.129024
 40
18.129024
 10
77.407304
 20
262.429415
 30
0.0
 10
79.233560
 20
261.504882
 30
0.0
 10
82.907498
 20
259.644968
 30
0.0
 10
88.342953
 20
257.003086
 30
0.0
 10
91.971113
 20
255.328085
 30
0.0
 10
93.718999
 20
254.521144
 30
0.0
 11
77.407304
 21
262.429415
 31
0.0
 11
82.893467
 21
259.670557
 31
0.0
 11
88.483193
 21
256.958679
 31
0.0
 11
93.718999
 21
254.521144
 31
0.0
  0
SPLINE
  5
14b
100
AcDbEntity
  8
0
 62
7
100
AcDbSpline
 70
0
 71
3
 72
10
 73
6
 74
4
 40
0.000000
 40
0.000000
 40
0.000000
 40
0.000000
 40
0.860938
 40
1.927341
 40
1.961860
 40
1.961860
 40
1.961860
 40
1.961860
 10
93.718999
 20
254.521144
 30
0.0
 10
93.980611
 20
254.403175
 30
0.0
 10
94.566267
 20
254.139084
 30
0.0
 10
95.162923
 20
253.871390
 30
0.0
 10
95.497159
 20
253.719878
 30
0.0
 10
95.507639
 20
253.715128
 30
0.0
 11
93.718999
 21
254.521144
 31
0.0
 11
94.503933
 21
254.167458
 31
0.0
 11
95.476199
 21
253.729378
 31
0.0
 11
95.507639
 21
253.715128
 31
0.0
  0
SPLINE
  5
14c
100
AcDbEntity
  8
0
 62
7
100
AcDbSpline
 70
0
 71
3
 72
10
 73
6
 74
4
 40
0.000000
 40
0.000000
 40
0.000000
 40
0.000000
 40
1.052776
 40
2.483065
 40
3.849773
 40
3.849773
 40
3.849773
 40
3.849773
 10
28.743451
 20
208.144138
 30
0.0
 10
29.074449
 20
208.027566
 30
0.0
 10
29.855137
 20
207.752622
 30
0.0
 10
31.065527
 20
207.326354
 30
0.0
 10
31.944918
 20
207.016652
 30
0.0
 10
32.374618
 20
206.865322
 30
0.0
 11
28.743451
 21
208.144138
 31
0.0
 11
29.736445
 21
207.794424
 31
0.0
 11
31.085517
 21
207.319313
 31
0.0
 11
32.374618
 21
206.865322
 31
0.0
  0
SPLINE
  5
14d
100
AcDbEntity
  8
0
 62
7
100
AcDbSpline
 70
0
 71
3
 72
10
 73
6
 74
4
 40
0.000000
 40
0.000000
 40
0.000000
 40
0.000000
 40
16.121911
 40
32.272104
 40
48.434114
 40
48.434114
 40
48.434114
 40
48.434114
 10
32.374618
 20
206.865322
 30
0.0
 10
37.452493
 20
205.106167
 30
0.0
 10
47.617149
 20
201.584772
 30
0.0
 10
62.936739
 20
196.485798
 30
0.0
 10
73.230037
 20
193.313569
 30
0.0
 10
78.378568
 20
191.726875
 30
0.0
 11
32.374618
 21
206.865322
 31
0.0
 11
47.618955
 21
201.618779
 31
0.0
 11
62.951245
 21
196.544372
 31
0.0
 11
78.378568
 21
191.726875
 31
0.0
  0
SPLINE
  5
14e
100
AcDbEntity
  8
0
 62
7
100
AcDbSpline
 70
0
 71
3
 72
10
 73
6
 74
4
 40
0.000000
 40
0.000000
 40
0.000000
 40
0.000000
 40
9.367562
 40
18.731054
 40
28.089055
 40
28.089055
 40
28.089055
 40
28.089055
 10
129.271414
 20
125.326753
 30
0.0
 10
132.374120
 20
124.975363
 30
0.0
 10
138.578185
 20
124.272735
 30
0.0
 10
147.897600
 20
123.363610
 30
0.0
 10
154.118915
 20
122.873459
 30
0.0
 10
157.228660
 20
122.628456
 30
0.0
 11
129.271414
 21
125.326753
 31
0.0
 11
138.582170
 21
124.296689
 31
0.0
 11
147.901893
 21
123.392395
 31
0.0
 11
157.228660
 21
122.628456
 31
0.0
  0
SPLINE
  5
14f
100
AcDbEntity
  8
0
 62
7
100
AcDbSpline
 70
0
 71
3
 72
10
 73
6
 74
4
 40
0.000000
 40
0.000000
 40
0.000000
 40
0.000000
 40
12.559802
 40
25.134088
 40
37.592784
 40
37.592784
 40
37.592784
 40
37.592784
 10
157.228660
 20
122.628456
 30
0.0
 10
161.407323
 20
122.377457
 30
0.0
 10
169.769467
 20
121.875170
 30
0.0
 10
182.314580
 20
121.666622
 30
0.0
 10
190.635728
 20
122.346726
 30
0.0
 10
194.777090
 20
122.685208
 30
0.0
 11
157.228660
 21
122.628456
 31
0.0
 11
169.770983
 21
121.966068
 31
0.0
 11
182.344922
 21
121.872620
 31
0.0
 11
194.777090
 21
122.685208
 31
0.0
  0
SPLINE
  5
150
100
AcDbEntity
  8
0
 62
7
100
AcDbSpline
 70
0
 71
3
 72
10
 73
6
 74
4
 40
0.000000
 40
0.000000
 40
0.000000
 40
0.000000
 40
1.182275
 40
2.408051
 40
3.958255
 40
3.958255
 40
3.958255
 40
3.958255
 10
194.777090
 20
122.685208
 30
0.0
 10
195.168014
 20
122.735078
 30
0.0
 10
195.964245
 20
122.836654
 30
0.0
 10
197.271475
 20
123.015926
 30
0.0
 10
198.186074
 20
123.156517
 30
0.0
 10
198.696818
 20
123.235028
 30
0.0
 11
194.777090
 21
122.685208
 31
0.0
 11
195.949629
 21
122.836623
 31
0.0
 11
197.163906
 21
123.004131
 31
0.0
 11
198.696818
 21
123.235028
 31
0.0
  0
SPLINE
  5
151
100
AcDbEntity
  8
0
 62
7
100
AcDbSpline
 70
0
 71
3
 72
10
 73
6
 74
4
 40
0.000000
 40
0.000000
 40
0.000000
 40
0.000000
 40
0.027207
 40
0.245457
 40
0.390885
 40
0.390885
 40
0.390885
 40
0.390885
 10
198.696818
 20
123.235028
 30
0.0
 10
198.687849
 20
123.233691
 30
0.0
 10
198.606925
 20
123.221622
 30
0.0
 10
198.478056
 20
123.202397
 30
0.0
 10
198.358156
 20
123.184515
 30
0.0
 10
198.310210
 20
123.177364
 30
0.0
 11
198.696818
 21
123.235028
 31
0.0
 11
198.669909
 21
123.231015
 31
0.0
 11
198.454047
 21
123.198817
 31
0.0
 11
198.310210
 21
123.177364
 31
0.0
  0
SPLINE
  5
152
100
AcDbEntity
  8
0
 62
7
100
AcDbSpline
 70
0
 71
3
 72
10
 73
6
 74
4
 40
0.000000
 40
0.000000
 40
0.000000
 40
0.000000
 40
1.547516
 40
3.536524
 40
5.251472
 40
5.251472
 40
5.251472
 40
5.251472
 10
125.676550
 20
76.225773
 30
0.0
 10
126.191933
 20
76.204104
 30
0.0
 10
127.369734
 20
76.154583
 30
0.0
 10
129.118673
 20
76.080902
 30
0.0
 10
130.352236
 20
76.029066
 30
0.0
 10
130.923382
 20
76.005066
 30
0.0
 11
125.676550
 21
76.225773
 31
0.0
 11
127.222699
 21
76.160746
 31
0.0
 11
129.209947
 21
76.077095
 31
0.0
 11
130.923382
 21
76.005066
 31
0.0
  0
SPLINE
  5
153
100
AcDbEntity
  8
0
 62
7
100
AcDbSpline
 70
0
 71
3
 72
10
 73
6
 74
4
 40
0.000000
 40
0.000000
 40
0.000000
 40
0.000000
 40
27.086653
 40
54.201486
 40
81.311365
 40
81.311365
 40
81.311365
 40
81.311365
 10
130.923382
 20
76.005066
 30
0.0
 10
139.944815
 20
75.644885
 30
0.0
 10
157.997067
 20
74.924148
 30
0.0
 10
185.085074
 20
73.888867
 30
0.0
 10
203.161774
 20
73.911174
 30
0.0
 10
212.199298
 20
73.922327
 30
0.0
 11
130.923382
 21
76.005066
 31
0.0
 11
157.988778
 21
74.932171
 31
0.0
 11
185.089805
 21
74.067014
 31
0.0
 11
212.199298
 21
73.922327
 31
0.0
  0
SPLINE
  5
154
100
AcDbEntity
  8
0
 62
7
100
AcDbSpline
 70
0
 71
3
 72
13
 73
9
 74
7
 40
0.000000
 40
0.000000
 40
0.000000
 40
0.000000
 40
2.087829
 40
4.166774
 40
6.239492
 40
17.253017
 40
28.294173
 40
39.350456
 40
39.350456
 40
39.350456
 40
39.350456
 10
374.036218
 20
57.293160
 30
0.0
 10
374.487892
 20
57.822887
 30
0.0
 10
375.389320
 20
58.880089
 30
0.0
 10
376.617506
 20
60.560812
 30
0.0
 10
379.379564
 20
64.796930
 30
0.0
 10
382.502788
 20
72.322364
 30
0.0
 10
384.037378
 20
83.446388
 30
0.0
 10
382.574442
 20
90.710615
 30
0.0
 10
381.842473
 20
94.345215
 30
0.0
 11
374.036218
 21
57.293160
 31
0.0
 11
375.370846
 21
58.898712
 31
0.0
 11
376.603419
 21
60.572861
 31
0.0
 11
377.733865
 21
62.310172
 31
0.0
 11
382.042171
 21
72.446061
 31
0.0
 11
383.415757
 21
83.401443
 31
0.0
 11
381.842473
 21
94.345215
 31
0.0
  0
LINE
  5
155
100
AcDbEntity
  8
0
 62
7
100
AcDbLine
 10
379.508617
 20
101.235287
 30
0.0
 11
379.626857
 21
100.933103
 31
0.0
  0
SPLINE
  5
156
100
AcDbEntity
  8
0
 62
7
100
AcDbSpline
 70
0
 71
3
 72
10
 73
6
 74
4
 40
0.000000
 40
0.000000
 40
0.000000
 40
0.000000
 40
2.514443
 40
4.905858
 40
7.279422
 40
7.279422
 40
7.279422
 40
7.279422
 10
381.842473
 20
94.345215
 30
0.0
 10
381.618028
 20
95.152923
 30
0.0
 10
381.180118
 20
96.728818
 30
0.0
 10
380.385818
 20
99.023279
 30
0.0
 10
379.800286
 20
100.499795
 30
0.0
 10
379.508617
 20
101.235287
 30
0.0
 11
381.842473
 21
94.345215
 31
0.0
 11
381.143551
 21
96.760568
 31
0.0
 11
380.367348
 21
99.022509
 31
0.0
 11
379.508617
 21
101.235287
 31
0.0
  0
SPLINE
  5
157
100
AcDbEntity
  8
0
 62
7
100
AcDbSpline
 70
0
 71
3
 72
10
 73
6
 74
4
 40
0.000000
 40
0.000000
 40
0.000000
 40
0.000000
 40
14.818182
 40
29.611066
 40
44.424916
 40
44.424916
 40
44.424916
 40
44.424916
 10
513.770760
 20
95.884079
 30
0.0
 10
511.518297
 20
100.284940
 30
0.0
 10
507.017217
 20
109.079148
 30
0.0
 10
498.436004
 20
121.220086
 30
0.0
 10
491.811840
 20
128.540988
 30
0.0
 10
488.497412
 20
132.204031
 30
0.0
 11
513.770760
 21
95.884079
 31
0.0
 11
506.708187
 21
108.910920
 31
0.0
 11
498.214059
 21
121.022040
 31
0.0
 11
488.497412
 21
132.204031
 31
0.0
  0
SPLINE
  5
158
100
AcDbEntity
  8
0
 62
7
100
AcDbSpline
 70
0
 71
3
 72
13
 73
9
 74
7
 40
0.000000
 40
0.000000
 40
0.000000
 40
0.000000
 40
12.614298
 40
25.218337
 40
37.800134
 40
38.235843
 40
38.745551
 40
39.027494
 40
39.027494
 40
39.027494
 40
39.027494
 10
545.033380
 20
237.993944
 30
0.0
 10
540.960993
 20
239.139379
 30
0.0
 10
532.819530
 20
241.429318
 30
0.0
 10
520.940892
 20
244.309306
 30
0.0
 10
511.617959
 20
246.242709
 30
0.0
 10
507.925590
 20
246.946280
 30
0.0
 10
507.163539
 20
247.091807
 30
0.0
 10
507.523858
 20
247.022948
 30
0.0
 10
507.652184
 20
246.998424
 30
0.0
 11
545.033380
 21
237.993944
 31
0.0
 11
532.870422
 21
241.338035
 31
0.0
 11
520.620906
 21
244.306397
 31
0.0
 11
508.303905
 21
246.874104
 31
0.0
 11
507.875924
 21
246.955796
 31
0.0
 11
507.375254
 21
247.051355
 31
0.0
 11
507.652184
 21
246.998424
 31
0.0
  0
SPLINE
  5
159
100
AcDbEntity
  8
0
 62
7
100
AcDbSpline
 70
0
 71
3
 72
10
 73
6
 74
4
 40
0.000000
 40
0.000000
 40
0.000000
 40
0.000000
 40
11.732574
 40
23.465956
 40
35.199202
 40
35.199202
 40
35.199202
 40
35.199202
 10
576.715117
 20
359.301618
 30
0.0
 10
572.811189
 20
359.068517
 30
0.0
 10
565.003064
 20
358.602297
 30
0.0
 10
553.301400
 20
357.735493
 30
0.0
 10
545.511237
 20
357.027116
 30
0.0
 10
541.616177
 20
356.672931
 30
0.0
 11
576.715117
 21
359.301618
 31
0.0
 11
565.005101
 21
358.574404
 31
0.0
 11
553.304133
 21
357.702865
 31
0.0
 11
541.616177
 21
356.672931
 31
0.0
  0
ENDSEC
  0
SECTION
  2
OBJECTS
  0
DICTIONARY
  5
C
330
0
100
AcDbDictionary
  3
ACAD_GROUP
350
D
  3
ACAD_MLINESTYLE
350
17
  0
DICTIONARY
  5
D
330
C
100
AcDbDictionary
  0
DICTIONARY
  5
1A
330
C
100
AcDbDictionary
  0
DICTIONARY
  5
17
330
C
100
AcDbDictionary
  3
STANDARD
350
18
  0
DICTIONARY
  5
19
330
C
100
AcDbDictionary
  0
ENDSEC
  0
EOF
