  0
SECTION
  2
HEADER
  9
$ACADVER
  1
AC1014
  9
$HANDSEED
  5
FFFF
  9
$MEASUREMENT
 70
     1
  0
ENDSEC
  0
SECTION
  2
TABLES
  0
TABLE
  2
VPORT
  5
8
330
0
100
AcDbSymbolTable
 70
     4
  0
VPORT
  5
2E
330
8
100
AcDbSymbolTableRecord
100
AcDbViewportTableRecord
  2
*ACTIVE
 70
     0
 10
0.0
 20
0.0
 11
1.0
 21
1.0
 12
210.0
 22
148.5
 13
0.0
 23
0.0
 14
10.0
 24
10.0
 15
10.0
 25
10.0
 16
0.0
 26
0.0
 36
1.0
 17
0.0
 27
0.0
 37
0.0
 40
341.0
 41
1.24
 42
50.0
 43
0.0
 44
0.0
 50
0.0
 51
0.0
 71
     0
 72
   100
 73
     1
 74
     3
 75
     0
 76
     0
 77
     0
 78
     0
  0
ENDTAB
  0
TABLE
  2
LTYPE
  5
5
330
0
100
AcDbSymbolTable
 70
     1
  0
LTYPE
  5
14
330
5
100
AcDbSymbolTableRecord
100
AcDbLinetypeTableRecord
  2
BYBLOCK
 70
     0
  3

 72
    65
 73
     0
 40
0.0
  0
LTYPE
  5
15
330
5
100
AcDbSymbolTableRecord
100
AcDbLinetypeTableRecord
  2
BYLAYER
 70
     0
  3

 72
    65
 73
     0
 40
0.0
  0
LTYPE
  5
16
330
5
100
AcDbSymbolTableRecord
100
AcDbLinetypeTableRecord
  2
CONTINUOUS
 70
     0
  3
Solid line
 72
    65
 73
     0
 40
0.0
  0
ENDTAB
  0
TABLE
  2
LAYER
  5
2
100
AcDbSymbolTable
 70
1
  0
LAYER
  5
50
100
AcDbSymbolTableRecord
100
AcDbLayerTableRecord
  2
0
 70
0
  6
CONTINUOUS
  0
ENDTAB
  0
TABLE
  2
STYLE
  5
3
330
0
100
AcDbSymbolTable
 70
     1
  0
STYLE
  5
11
330
3
100
AcDbSymbolTableRecord
100
AcDbTextStyleTableRecord
  2
STANDARD
 70
     0
 40
0.0
 41
1.0
 50
0.0
 71
     0
 42
2.5
  3
txt
  4

  0
ENDTAB
  0
TABLE
  2
VIEW
  5
6
330
0
100
AcDbSymbolTable
 70
     0
  0
ENDTAB
  0
TABLE
  2
UCS
  5
7
330
0
100
AcDbSymbolTable
 70
     0
  0
ENDTAB
  0
TABLE
  2
APPID
  5
9
330
0
100
AcDbSymbolTable
 70
     2
  0
APPID
  5
12
330
9
100
AcDbSymbolTableRecord
100
AcDbRegAppTableRecord
  2
ACAD
 70
     0
  0
ENDTAB
  0
TABLE
  2
DIMSTYLE
  5
A
330
0
100
AcDbSymbolTable
 70
     1
  0
DIMSTYLE
105
27
330
A
100
AcDbSymbolTableRecord
100
AcDbDimStyleTableRecord
  2
ISO-25
 70
     0
  3

  4

  5

  6

  7

 40
1.0
 41
2.5
 42
0.625
 43
3.75
 44
1.25
 45
0.0
 46
0.0
 47
0.0
 48
0.0
140
2.5
141
2.5
142
0.0
143
0.03937007874016
144
1.0
145
0.0
146
1.0
147
0.625
 71
     0
 72
     0
 73
     0
 74
     0
 75
     0
 76
     0
 77
     1
 78
     8
170
     0
171
     3
172
     1
173
     0
174
     0
175
     0
176
     0
177
     0
178
     0
270
     2
271
     2
272
     2
273
     2
274
     3
340
11
275
     0
280
     0
281
     0
282
     0
283
     0
284
     8
285
     0
286
     0
287
     3
288
     0
  0
ENDTAB
  0
TABLE
  2
BLOCK_RECORD
  5
1
330
0
100
AcDbSymbolTable
 70
     1
  0
BLOCK_RECORD
  5
1F
330
1
100
AcDbSymbolTableRecord
100
AcDbBlockTableRecord
  2
*MODEL_SPACE
  0
BLOCK_RECORD
  5
1B
330
1
100
AcDbSymbolTableRecord
100
AcDbBlockTableRecord
  2
*PAPER_SPACE
  0
ENDTAB
  0
ENDSEC
  0
SECTION
  2
BLOCKS
  0
BLOCK
  5
20
330
1F
100
AcDbEntity
  8
0
100
AcDbBlockBegin
  2
*MODEL_SPACE
 70
     0
 10
0.0
 20
0.0
 30
0.0
  3
*MODEL_SPACE
  1

  0
ENDBLK
  5
21
330
1F
100
AcDbEntity
  8
0
100
AcDbBlockEnd
  0
BLOCK
  5
1C
330
1B
100
AcDbEntity
 67
     1
  8
0
100
AcDbBlockBegin
  2
*PAPER_SPACE
  1

  0
ENDBLK
  5
1D
330
1B
100
AcDbEntity
 67
     1
  8
0
100
AcDbBlockEnd
  0
ENDSEC
  0
SECTION
  2
ENTITIES
  0
SPLINE
  5
100
100
AcDbEntity
  8
0
 62
5
100
AcDbSpline
 70
0
 71
3
 72
10
 73
6
 74
4
 40
0.000000
 40
0.000000
 40
0.000000
 40
0.000000
 40
79.305031
 40
158.553798
 40
237.759361
 40
237.759361
 40
237.759361
 40
237.759361
 10
570.182844
 20
100.730419
 30
0.0
 10
593.075944
 20
114.315184
 30
0.0
 10
638.845901
 20
141.475076
 30
0.0
 10
685.703607
 20
209.858658
 30
0.0
 10
692.971872
 20
262.668018
 30
0.0
 10
696.605014
 20
289.065498
 30
0.0
 11
570.182844
 21
100.730419
 31
0.0
 11
635.229037
 21
146.098697
 31
0.0
 11
679.718861
 21
211.680880
 31
0.0
 11
696.605014
 21
289.065498
 31
0.0
  0
SPLINE
  5
101
100
AcDbEntity
  8
0
 62
5
100
AcDbSpline
 70
0
 71
3
 72
10
 73
6
 74
4
 40
0.000000
 40
0.000000
 40
0.000000
 40
0.000000
 40
69.168393
 40
138.330072
 40
207.590391
 40
207.590391
 40
207.590391
 40
207.590391
 10
696.605014
 20
289.065498
 30
0.0
 10
694.610551
 20
312.216420
 30
0.0
 10
690.621818
 20
358.516018
 30
0.0
 10
655.525233
 20
421.166663
 30
0.0
 10
619.210729
 20
450.028824
 30
0.0
 10
601.040539
 20
464.470188
 30
0.0
 11
696.605014
 21
289.065498
 31
0.0
 11
685.771591
 21
357.380237
 31
0.0
 11
652.318514
 21
417.913116
 31
0.0
 11
601.040539
 21
464.470188
 31
0.0
  0
SPLINE
  5
102
100
AcDbEntity
  8
0
 62
5
100
AcDbSpline
 70
0
 71
3
 72
10
 73
6
 74
4
 40
0.000000
 40
0.000000
 40
0.000000
 40
0.000000
 40
76.213537
 40
152.334918
 40
228.272131
 40
228.272131
 40
228.272131
 40
228.272131
 10
601.040539
 20
464.470188
 30
0.0
 10
578.609674
 20
476.576273
 30
0.0
 10
533.775068
 20
500.773803
 30
0.0
 10
455.423912
 20
511.339323
 30
0.0
 10
406.939397
 20
494.848098
 30
0.0
 10
382.726501
 20
486.612472
 30
0.0
 11
601.040539
 21
464.470188
 31
0.0
 11
531.882644
 21
496.496567
 31
0.0
 11
456.289803
 21
505.451285
 31
0.0
 11
382.726501
 21
486.612472
 31
0.0
  0
SPLINE
  5
103
100
AcDbEntity
  8
0
 62
5
100
AcDbSpline
 70
0
 71
3
 72
10
 73
6
 74
4
 40
0.000000
 40
0.000000
 40
0.000000
 40
0.000000
 40
79.761585
 40
159.611396
 40
239.514889
 40
239.514889
 40
239.514889
 40
239.514889
 10
382.726501
 20
486.612472
 30
0.0
 10
360.170862
 20
472.031474
 30
0.0
 10
315.034633
 20
442.853348
 30
0.0
 10
273.753148
 20
370.038632
 30
0.0
 10
269.730180
 20
316.565113
 30
0.0
 10
267.718020
 20
289.819370
 30
0.0
 11
382.726501
 21
486.612472
 31
0.0
 11
319.461331
 21
438.038522
 31
0.0
 11
279.636261
 21
368.829012
 31
0.0
 11
267.718020
 21
289.819370
 31
0.0
  0
LINE
  5
104
100
AcDbEntity
  8
0
 62
5
100
AcDbLine
 10
274.925244
 20
237.767596
 30
0.0
 11
270.272328
 21
210.204910
 31
0.0
  0
LINE
  5
105
100
AcDbEntity
  8
0
 62
5
100
AcDbLine
 10
270.272328
 20
210.204910
 30
0.0
 11
281.839874
 21
210.645934
 31
0.0
  0
LINE
  5
106
100
AcDbEntity
  8
0
 62
5
100
AcDbLine
 10
281.839874
 20
210.645934
 30
0.0
 11
273.182967
 21
147.975921
 31
0.0
  0
LINE
  5
107
100
AcDbEntity
  8
0
 62
5
100
AcDbLine
 10
273.182967
 20
147.975921
 30
0.0
 11
260.966496
 21
155.079520
 31
0.0
  0
LINE
  5
108
100
AcDbEntity
  8
0
 62
5
100
AcDbLine
 10
260.966496
 20
155.079520
 30
0.0
 11
256.313579
 21
127.516818
 31
0.0
  0
SPLINE
  5
109
100
AcDbEntity
  8
0
 62
5
100
AcDbSpline
 70
0
 71
3
 72
10
 73
6
 74
4
 40
0.000000
 40
0.000000
 40
0.000000
 40
0.000000
 40
17.569987
 40
35.153246
 40
52.611585
 40
52.611585
 40
52.611585
 40
52.611585
 10
267.718020
 20
289.819370
 30
0.0
 10
268.005756
 20
283.963696
 30
0.0
 10
268.581445
 20
272.247925
 30
0.0
 10
271.666091
 20
254.955975
 30
0.0
 10
273.841445
 20
243.483423
 30
0.0
 10
274.925244
 20
237.767596
 30
0.0
 11
267.718020
 21
289.819370
 31
0.0
 11
268.952289
 21
272.292789
 31
0.0
 11
271.703842
 21
254.926156
 31
0.0
 11
274.925244
 21
237.767596
 31
0.0
  0
SPLINE
  5
10a
100
AcDbEntity
  8
0
 62
5
100
AcDbSpline
 70
0
 71
3
 72
10
 73
6
 74
4
 40
0.000000
 40
0.000000
 40
0.000000
 40
0.000000
 40
103.250727
 40
206.484759
 40
309.640382
 40
309.640382
 40
309.640382
 40
309.640382
 10
256.313579
 20
127.516818
 30
0.0
 10
238.904816
 20
157.467529
 30
0.0
 10
204.090104
 20
217.364108
 30
0.0
 10
192.435251
 20
324.276351
 30
0.0
 10
214.994108
 20
389.862707
 30
0.0
 10
226.269251
 20
422.643427
 30
0.0
 11
256.313579
 21
127.516818
 31
0.0
 11
210.849041
 21
220.218967
 31
0.0
 11
200.019900
 21
322.883444
 31
0.0
 11
226.269251
 21
422.643427
 31
0.0
  0
SPLINE
  5
10b
100
AcDbEntity
  8
0
 62
5
100
AcDbSpline
 70
0
 71
3
 72
10
 73
6
 74
4
 40
0.000000
 40
0.000000
 40
0.000000
 40
0.000000
 40
76.550273
 40
153.037818
 40
229.582564
 40
229.582564
 40
229.582564
 40
229.582564
 10
226.269251
 20
422.643427
 30
0.0
 10
239.236966
 20
444.773599
 30
0.0
 10
265.161771
 20
489.015807
 30
0.0
 10
326.802307
 20
538.274435
 30
0.0
 10
375.743975
 20
553.613268
 30
0.0
 10
400.223956
 20
561.285552
 30
0.0
 11
226.269251
 21
422.643427
 31
0.0
 11
268.966571
 21
486.179898
 31
0.0
 11
328.749003
 21
533.891589
 31
0.0
 11
400.223956
 21
561.285552
 31
0.0
  0
SPLINE
  5
10c
100
AcDbEntity
  8
0
 62
5
100
AcDbSpline
 70
0
 71
3
 72
10
 73
6
 74
4
 40
0.000000
 40
0.000000
 40
0.000000
 40
0.000000
 40
101.898306
 40
203.806784
 40
305.475187
 40
305.475187
 40
305.475187
 40
305.475187
 10
400.223956
 20
561.285552
 30
0.0
 10
434.078023
 20
565.366546
 30
0.0
 10
501.789534
 20
573.528941
 30
0.0
 10
604.211107
 20
548.715268
 30
0.0
 10
658.257176
 20
506.768339
 30
0.0
 10
685.248342
 20
485.819608
 30
0.0
 11
400.223956
 21
561.285552
 31
0.0
 11
501.941655
 21
567.349758
 31
0.0
 11
600.730611
 21
542.328168
 31
0.0
 11
685.248342
 21
485.819608
 31
0.0
  0
SPLINE
  5
10d
100
AcDbEntity
  8
0
 62
5
100
AcDbSpline
 70
0
 71
3
 72
10
 73
6
 74
4
 40
0.000000
 40
0.000000
 40
0.000000
 40
0.000000
 40
87.863941
 40
175.715038
 40
263.610670
 40
263.610670
 40
263.610670
 40
263.610670
 10
685.248342
 20
485.819608
 30
0.0
 10
704.158262
 20
463.200141
 30
0.0
 10
741.975338
 20
417.964514
 30
0.0
 10
768.165138
 20
330.724812
 30
0.0
 10
762.030297
 20
272.108121
 30
0.0
 10
758.962099
 20
242.792348
 30
0.0
 11
685.248342
 21
485.819608
 31
0.0
 11
736.887425
 21
414.731794
 31
0.0
 11
762.264870
 21
330.625905
 31
0.0
 11
758.962099
 21
242.792348
 31
0.0
  0
LINE
  5
10e
100
AcDbEntity
  8
0
 62
5
100
AcDbLine
 10
683.465574
 20
100.730419
 30
0.0
 11
653.256568
 21
84.342724
 31
0.0
  0
LINE
  5
10f
100
AcDbEntity
  8
0
 62
5
100
AcDbLine
 10
653.256568
 20
84.342724
 30
0.0
 11
655.144888
 21
100.730419
 31
0.0
  0
LINE
  5
110
100
AcDbEntity
  8
0
 62
5
100
AcDbLine
 10
655.144888
 20
100.730419
 30
0.0
 11
626.824201
 21
100.730419
 31
0.0
  0
LINE
  5
111
100
AcDbEntity
  8
0
 62
5
100
AcDbLine
 10
626.824201
 20
100.730419
 30
0.0
 11
598.503531
 21
100.730419
 31
0.0
  0
LINE
  5
112
100
AcDbEntity
  8
0
 62
5
100
AcDbLine
 10
598.503531
 20
100.730419
 30
0.0
 11
599.723707
 21
86.610628
 31
0.0
  0
LINE
  5
113
100
AcDbEntity
  8
0
 62
5
100
AcDbLine
 10
599.723707
 20
86.610628
 30
0.0
 11
563.124204
 21
86.233604
 31
0.0
  0
LINE
  5
114
100
AcDbEntity
  8
0
 62
5
100
AcDbLine
 10
563.124204
 20
86.233604
 30
0.0
 11
570.182844
 21
100.730419
 31
0.0
  0
SPLINE
  5
115
100
AcDbEntity
  8
0
 62
5
100
AcDbSpline
 70
0
 71
3
 72
10
 73
6
 74
4
 40
0.000000
 40
0.000000
 40
0.000000
 40
0.000000
 40
54.275462
 40
108.553789
 40
162.840492
 40
162.840492
 40
162.840492
 40
162.840492
 10
758.962099
 20
242.792348
 30
0.0
 10
754.333527
 20
225.262128
 30
0.0
 10
745.076138
 20
190.200764
 30
0.0
 10
719.145357
 20
141.771091
 30
0.0
 10
695.359447
 20
114.411347
 30
0.0
 10
683.465574
 20
100.730419
 30
0.0
 11
758.962099
 21
242.792348
 31
0.0
 11
743.069299
 21
190.895868
 31
0.0
 11
717.522448
 21
143.005417
 31
0.0
 11
683.465574
 21
100.730419
 31
0.0
  0
SPLINE
  5
116
100
AcDbEntity
  8
0
 62
7
100
AcDbSpline
 70
0
 71
3
 72
10
 73
6
 74
4
 40
0.000000
 40
0.000000
 40
0.000000
 40
0.000000
 40
11.484867
 40
22.978702
 40
34.477713
 40
34.477713
 40
34.477713
 40
34.477713
 10
683.786326
 20
100.730419
 30
0.0
 10
681.890161
 20
104.056135
 30
0.0
 10
678.096348
 20
110.710164
 30
0.0
 10
672.322029
 20
120.647078
 30
0.0
 10
668.397445
 20
127.230357
 30
0.0
 10
666.434711
 20
130.522738
 30
0.0
 11
683.786326
 21
100.730419
 31
0.0
 11
678.084176
 21
110.699754
 31
0.0
 11
672.304467
 21
120.634704
 31
0.0
 11
666.434711
 21
130.522738
 31
0.0
  0
SPLINE
  5
117
100
AcDbEntity
  8
0
 62
7
100
AcDbSpline
 70
0
 71
3
 72
10
 73
6
 74
4
 40
0.000000
 40
0.000000
 40
0.000000
 40
0.000000
 40
12.736613
 40
25.472541
 40
38.209870
 40
38.209870
 40
38.209870
 40
38.209870
 10
719.529701
 20
222.277085
 30
0.0
 10
716.443901
 20
225.193016
 30
0.0
 10
710.272467
 20
231.024719
 30
0.0
 10
700.863872
 20
239.611379
 30
0.0
 10
694.462319
 20
245.190109
 30
0.0
 10
691.261366
 20
247.979628
 30
0.0
 11
719.529701
 21
222.277085
 31
0.0
 11
710.247103
 21
230.998019
 31
0.0
 11
700.831932
 21
239.574640
 31
0.0
 11
691.261366
 21
247.979628
 31
0.0
  0
SPLINE
  5
118
100
AcDbEntity
  8
0
 62
7
100
AcDbSpline
 70
0
 71
3
 72
10
 73
6
 74
4
 40
0.000000
 40
0.000000
 40
0.000000
 40
0.000000
 40
0.889028
 40
1.923599
 40
2.347031
 40
2.347031
 40
2.347031
 40
2.347031
 10
691.261366
 20
247.979628
 30
0.0
 10
691.035475
 20
248.171441
 30
0.0
 10
690.546712
 20
248.586469
 30
0.0
 10
689.951665
 20
249.094390
 30
0.0
 10
689.580466
 20
249.408091
 30
0.0
 10
689.472662
 20
249.499196
 30
0.0
 11
691.261366
 21
247.979628
 31
0.0
 11
690.583921
 21
248.555336
 31
0.0
 11
689.795942
 21
249.225728
 31
0.0
 11
689.472662
 21
249.499196
 31
0.0
  0
SPLINE
  5
119
100
AcDbEntity
  8
0
 62
7
100
AcDbSpline
 70
0
 71
3
 72
10
 73
6
 74
4
 40
0.000000
 40
0.000000
 40
0.000000
 40
0.000000
 40
0.938257
 40
2.059288
 40
2.197741
 40
2.197741
 40
2.197741
 40
2.197741
 10
689.472662
 20
249.499196
 30
0.0
 10
689.288552
 20
249.654082
 30
0.0
 10
688.884468
 20
249.994027
 30
0.0
 10
687.601556
 20
251.073194
 30
0.0
 10
687.963037
 20
250.769161
 30
0.0
 10
688.002774
 20
250.735740
 30
0.0
 11
689.472662
 21
249.499196
 31
0.0
 11
688.754673
 21
250.103198
 31
0.0
 11
687.896816
 21
250.824857
 31
0.0
 11
688.002774
 21
250.735740
 31
0.0
  0
SPLINE
  5
11a
100
AcDbEntity
  8
0
 62
7
100
AcDbSpline
 70
0
 71
3
 72
10
 73
6
 74
4
 40
0.000000
 40
0.000000
 40
0.000000
 40
0.000000
 40
0.808153
 40
2.094808
 40
3.303450
 40
3.303450
 40
3.303450
 40
3.303450
 10
770.165506
 20
293.732506
 30
0.0
 10
769.935889
 20
293.873373
 30
0.0
 10
769.340698
 20
294.238514
 30
0.0
 10
768.402073
 20
294.814286
 30
0.0
 10
767.693080
 20
295.249216
 30
0.0
 10
767.349666
 20
295.459882
 30
0.0
 11
770.165506
 21
293.732506
 31
0.0
 11
769.476651
 21
294.155103
 31
0.0
 11
768.379909
 21
294.827887
 31
0.0
 11
767.349666
 21
295.459882
 31
0.0
  0
SPLINE
  5
11b
100
AcDbEntity
  8
0
 62
7
100
AcDbSpline
 70
0
 71
3
 72
10
 73
6
 74
4
 40
0.000000
 40
0.000000
 40
0.000000
 40
0.000000
 40
14.229744
 40
28.507534
 40
42.808788
 40
42.808788
 40
42.808788
 40
42.808788
 10
767.349666
 20
295.459882
 30
0.0
 10
763.298025
 20
297.926176
 30
0.0
 10
755.181063
 20
302.867093
 30
0.0
 10
742.913016
 20
310.156511
 30
0.0
 10
734.639683
 20
314.879449
 30
0.0
 10
730.499620
 20
317.242856
 30
0.0
 11
767.349666
 21
295.459882
 31
0.0
 11
755.181622
 21
302.837165
 31
0.0
 11
742.898971
 21
310.116709
 31
0.0
 11
730.499620
 21
317.242856
 31
0.0
  0
SPLINE
  5
11c
100
AcDbEntity
  8
0
 62
7
100
AcDbSpline
 70
0
 71
3
 72
10
 73
6
 74
4
 40
0.000000
 40
0.000000
 40
0.000000
 40
0.000000
 40
11.876046
 40
23.748749
 40
35.616983
 40
35.616983
 40
35.616983
 40
35.616983
 10
704.937573
 20
401.224516
 30
0.0
 10
701.141383
 20
402.347213
 30
0.0
 10
693.550070
 20
404.592292
 30
0.0
 10
682.093274
 20
407.712140
 30
0.0
 10
674.403499
 20
409.582279
 30
0.0
 10
670.559335
 20
410.517172
 30
0.0
 11
704.937573
 21
401.224516
 31
0.0
 11
693.537031
 21
404.551391
 31
0.0
 11
682.078555
 21
407.660153
 31
0.0
 11
670.559335
 21
410.517172
 31
0.0
  0
SPLINE
  5
11d
100
AcDbEntity
  8
0
 62
7
100
AcDbSpline
 70
0
 71
3
 72
10
 73
6
 74
4
 40
0.000000
 40
0.000000
 40
0.000000
 40
0.000000
 40
5.489401
 40
10.978780
 40
16.468138
 40
16.468138
 40
16.468138
 40
16.468138
 10
670.559335
 20
410.517172
 30
0.0
 10
668.775123
 20
410.923150
 30
0.0
 10
665.206704
 20
411.735106
 30
0.0
 10
659.830527
 20
412.847262
 30
0.0
 10
656.229602
 20
413.500408
 30
0.0
 10
654.429144
 20
413.826980
 30
0.0
 11
670.559335
 21
410.517172
 31
0.0
 11
665.202771
 21
411.717478
 31
0.0
 11
659.826316
 21
412.825191
 31
0.0
 11
654.429144
 21
413.826980
 31
0.0
  0
SPLINE
  5
11e
100
AcDbEntity
  8
0
 62
7
100
AcDbSpline
 70
0
 71
3
 72
10
 73
6
 74
4
 40
0.000000
 40
0.000000
 40
0.000000
 40
0.000000
 40
1.107163
 40
2.129330
 40
3.174016
 40
3.174016
 40
3.174016
 40
3.174016
 10
654.429144
 20
413.826980
 30
0.0
 10
654.065083
 20
413.887476
 30
0.0
 10
653.364909
 20
414.003825
 30
0.0
 10
652.322140
 20
414.182879
 30
0.0
 10
651.641304
 20
414.288387
 30
0.0
 10
651.297176
 20
414.341716
 30
0.0
 11
654.429144
 21
413.826980
 31
0.0
 11
653.337127
 21
414.009489
 31
0.0
 11
652.329097
 21
414.178897
 31
0.0
 11
651.297176
 21
414.341716
 31
0.0
  0
SPLINE
  5
11f
100
AcDbEntity
  8
0
 62
7
100
AcDbSpline
 70
0
 71
3
 72
10
 73
6
 74
4
 40
0.000000
 40
0.000000
 40
0.000000
 40
0.000000
 40
0.576787
 40
1.267582
 40
1.576975
 40
1.576975
 40
1.576975
 40
1.576975
 10
651.297176
 20
414.341716
 30
0.0
 10
651.140210
 20
414.366512
 30
0.0
 10
650.795251
 20
414.421006
 30
0.0
 10
649.772297
 20
414.582518
 30
0.0
 10
650.214060
 20
414.512740
 30
0.0
 10
650.350712
 20
414.491156
 30
0.0
 11
651.297176
 21
414.341716
 31
0.0
 11
650.727452
 21
414.431702
 31
0.0
 11
650.045109
 21
414.539431
 31
0.0
 11
650.350712
 21
414.491156
 31
0.0
  0
SPLINE
  5
120
100
AcDbEntity
  8
0
 62
7
100
AcDbSpline
 70
0
 71
3
 72
10
 73
6
 74
4
 40
0.000000
 40
0.000000
 40
0.000000
 40
0.000000
 40
2.176778
 40
4.313419
 40
6.243074
 40
6.243074
 40
6.243074
 40
6.243074
 10
720.453269
 20
457.826198
 30
0.0
 10
719.737666
 20
457.946188
 30
0.0
 10
718.319655
 20
458.183954
 30
0.0
 10
716.267621
 20
458.530110
 30
0.0
 10
714.930469
 20
458.751971
 30
0.0
 10
714.295925
 20
458.857254
 30
0.0
 11
720.453269
 21
457.826198
 31
0.0
 11
718.306520
 21
458.186522
 31
0.0
 11
716.199420
 21
458.540592
 31
0.0
 11
714.295925
 21
458.857254
 31
0.0
  0
SPLINE
  5
121
100
AcDbEntity
  8
0
 62
7
100
AcDbSpline
 70
0
 71
3
 72
10
 73
6
 74
4
 40
0.000000
 40
0.000000
 40
0.000000
 40
0.000000
 40
20.253973
 40
40.562875
 40
60.890518
 40
60.890518
 40
60.890518
 40
60.890518
 10
714.295925
 20
458.857254
 30
0.0
 10
707.631308
 20
459.935534
 30
0.0
 10
694.284001
 20
462.095019
 30
0.0
 10
674.211032
 20
465.112761
 30
0.0
 10
660.768896
 20
466.787088
 30
0.0
 10
654.044728
 20
467.624638
 30
0.0
 11
714.295925
 21
458.857254
 31
0.0
 11
694.295963
 21
462.054900
 31
0.0
 11
674.205714
 21
465.027004
 31
0.0
 11
654.044728
 21
467.624638
 31
0.0
  0
SPLINE
  5
122
100
AcDbEntity
  8
0
 62
7
100
AcDbSpline
 70
0
 71
3
 72
10
 73
6
 74
4
 40
0.000000
 40
0.000000
 40
0.000000
 40
0.000000
 40
3.951630
 40
7.903362
 40
11.855359
 40
11.855359
 40
11.855359
 40
11.855359
 10
571.116844
 20
519.029064
 30
0.0
 10
569.799805
 20
519.007647
 30
0.0
 10
567.165694
 20
518.964812
 30
0.0
 10
563.215028
 20
518.867838
 30
0.0
 10
560.581933
 20
518.779267
 30
0.0
 10
559.265341
 20
518.734979
 30
0.0
 11
571.116844
 21
519.029064
 31
0.0
 11
567.165828
 21
518.959360
 31
0.0
 11
563.215300
 21
518.861860
 31
0.0
 11
559.265341
 21
518.734979
 31
0.0
  0
SPLINE
  5
123
100
AcDbEntity
  8
0
 62
7
100
AcDbSpline
 70
0
 71
3
 72
10
 73
6
 74
4
 40
0.000000
 40
0.000000
 40
0.000000
 40
0.000000
 40
16.219201
 40
32.438543
 40
48.626215
 40
48.626215
 40
48.626215
 40
48.626215
 10
559.265341
 20
518.734979
 30
0.0
 10
553.871659
 20
518.417143
 30
0.0
 10
543.084249
 20
517.781469
 30
0.0
 10
526.929058
 20
515.658312
 30
0.0
 10
516.721272
 20
512.037916
 30
0.0
 10
511.622367
 20
510.229487
 30
0.0
 11
559.265341
 21
518.734979
 31
0.0
 11
543.086867
 21
517.586303
 31
0.0
 11
527.058526
 21
515.104498
 31
0.0
 11
511.622367
 21
510.229487
 31
0.0
  0
SPLINE
  5
124
100
AcDbEntity
  8
0
 62
7
100
AcDbSpline
 70
0
 71
3
 72
10
 73
6
 74
4
 40
0.000000
 40
0.000000
 40
0.000000
 40
0.000000
 40
4.986850
 40
10.035358
 40
14.686909
 40
14.686909
 40
14.686909
 40
14.686909
 10
511.622367
 20
510.229487
 30
0.0
 10
510.124184
 20
509.508133
 30
0.0
 10
507.109295
 20
508.056506
 30
0.0
 10
503.000685
 20
505.339649
 30
0.0
 10
500.665796
 20
503.096085
 30
0.0
 10
499.546128
 20
502.020209
 30
0.0
 11
511.622367
 21
510.229487
 31
0.0
 11
507.179067
 21
507.965474
 31
0.0
 11
502.992211
 21
505.144539
 31
0.0
 11
499.546128
 21
502.020209
 31
0.0
  0
SPLINE
  5
125
100
AcDbEntity
  8
0
 62
7
100
AcDbSpline
 70
0
 71
3
 72
10
 73
6
 74
4
 40
0.000000
 40
0.000000
 40
0.000000
 40
0.000000
 40
1.114778
 40
1.863077
 40
2.965116
 40
2.965116
 40
2.965116
 40
2.965116
 10
499.546128
 20
502.020209
 30
0.0
 10
499.299272
 20
501.742440
 30
0.0
 10
498.886713
 20
501.278216
 30
0.0
 10
498.256462
 20
500.516451
 30
0.0
 10
497.888618
 20
500.021219
 30
0.0
 10
497.669536
 20
499.726265
 30
0.0
 11
499.546128
 21
502.020209
 31
0.0
 11
498.811486
 21
501.181739
 31
0.0
 11
498.335814
 21
500.604081
 31
0.0
 11
497.669536
 21
499.726265
 31
0.0
  0
SPLINE
  5
126
100
AcDbEntity
  8
0
 62
7
100
AcDbSpline
 70
0
 71
3
 72
13
 73
9
 74
7
 40
0.000000
 40
0.000000
 40
0.000000
 40
0.000000
 40
1.663775
 40
3.830259
 40
5.599390
 40
8.796839
 40
11.834651
 40
15.055056
 40
15.055056
 40
15.055056
 40
15.055056
 10
560.266605
 20
564.055211
 30
0.0
 10
559.712021
 20
564.058150
 30
0.0
 10
558.435286
 20
564.064916
 30
0.0
 10
556.568848
 20
564.074778
 30
0.0
 10
554.191193
 20
564.087227
 30
0.0
 10
551.523101
 20
564.101564
 30
0.0
 10
548.371249
 20
564.116886
 30
0.0
 10
546.285198
 20
564.126418
 30
0.0
 10
545.211741
 20
564.131323
 30
0.0
 11
560.266605
 21
564.055211
 31
0.0
 11
558.602853
 21
564.064024
 31
0.0
 11
556.436399
 21
564.075458
 31
0.0
 11
554.667293
 21
564.084763
 31
0.0
 11
551.469887
 21
564.101570
 31
0.0
 11
548.432112
 21
564.116446
 31
0.0
 11
545.211741
 21
564.131323
 31
0.0
  0
SPLINE
  5
127
100
AcDbEntity
  8
0
 62
7
100
AcDbSpline
 70
0
 71
3
 72
10
 73
6
 74
4
 40
0.000000
 40
0.000000
 40
0.000000
 40
0.000000
 40
2.829953
 40
5.816360
 40
8.822193
 40
8.822193
 40
8.822193
 40
8.822193
 10
545.211741
 20
564.131323
 30
0.0
 10
544.268430
 20
564.134731
 30
0.0
 10
542.329656
 20
564.141736
 30
0.0
 10
539.388937
 20
564.150664
 30
0.0
 10
537.391525
 20
564.153138
 30
0.0
 10
536.389582
 20
564.154379
 30
0.0
 11
545.211741
 21
564.131323
 31
0.0
 11
542.381805
 21
564.141282
 31
0.0
 11
539.395411
 21
564.149752
 31
0.0
 11
536.389582
 21
564.154379
 31
0.0
  0
SPLINE
  5
128
100
AcDbEntity
  8
0
 62
7
100
AcDbSpline
 70
0
 71
3
 72
10
 73
6
 74
4
 40
0.000000
 40
0.000000
 40
0.000000
 40
0.000000
 40
28.089312
 40
56.338550
 40
84.541292
 40
84.541292
 40
84.541292
 40
84.541292
 10
536.389582
 20
564.154379
 30
0.0
 10
527.029491
 20
564.110449
 30
0.0
 10
508.256018
 20
564.022339
 30
0.0
 10
480.039172
 20
562.930454
 30
0.0
 10
461.487613
 20
559.653693
 30
0.0
 10
452.219474
 20
558.016662
 30
0.0
 11
536.389582
 21
564.154379
 31
0.0
 11
508.301775
 21
563.863614
 31
0.0
 11
480.096294
 21
562.291889
 31
0.0
 11
452.219474
 21
558.016662
 31
0.0
  0
SPLINE
  5
129
100
AcDbEntity
  8
0
 62
7
100
AcDbSpline
 70
0
 71
3
 72
10
 73
6
 74
4
 40
0.000000
 40
0.000000
 40
0.000000
 40
0.000000
 40
16.403979
 40
32.799005
 40
49.135723
 40
49.135723
 40
49.135723
 40
49.135723
 10
452.219474
 20
558.016662
 30
0.0
 10
446.938818
 20
556.616807
 30
0.0
 10
436.380389
 20
553.817861
 30
0.0
 10
421.201801
 20
547.011988
 30
0.0
 10
413.249161
 20
539.438320
 30
0.0
 10
409.279924
 20
535.658231
 30
0.0
 11
452.219474
 21
558.016662
 31
0.0
 11
436.484175
 21
553.380834
 31
0.0
 11
421.725356
 21
546.241217
 31
0.0
 11
409.279924
 21
535.658231
 31
0.0
  0
SPLINE
  5
12a
100
AcDbEntity
  8
0
 62
7
100
AcDbSpline
 70
0
 71
3
 72
10
 73
6
 74
4
 40
0.000000
 40
0.000000
 40
0.000000
 40
0.000000
 40
10.294109
 40
20.584666
 40
30.850975
 40
30.850975
 40
30.850975
 40
30.850975
 10
294.818730
 20
460.747360
 30
0.0
 10
297.239801
 20
458.314647
 30
0.0
 10
302.081108
 20
453.450060
 30
0.0
 10
309.862613
 20
446.708980
 30
0.0
 10
315.327169
 20
442.573129
 30
0.0
 10
318.056224
 20
440.507642
 30
0.0
 11
294.818730
 21
460.747360
 31
0.0
 11
302.169659
 21
453.540937
 31
0.0
 11
309.938775
 21
446.792871
 31
0.0
 11
318.056224
 21
440.507642
 31
0.0
  0
SPLINE
  5
12b
100
AcDbEntity
  8
0
 62
7
100
AcDbSpline
 70
0
 71
3
 72
10
 73
6
 74
4
 40
0.000000
 40
0.000000
 40
0.000000
 40
0.000000
 40
2.573077
 40
5.301784
 40
6.839926
 40
6.839926
 40
6.839926
 40
6.839926
 10
318.056224
 20
440.507642
 30
0.0
 10
318.752467
 20
440.006732
 30
0.0
 10
320.187063
 20
438.974615
 30
0.0
 10
322.065040
 20
437.681435
 30
0.0
 10
323.246136
 20
436.889038
 30
0.0
 10
323.671906
 20
436.603390
 30
0.0
 11
318.056224
 21
440.507642
 31
0.0
 11
320.149913
 21
439.011918
 31
0.0
 11
322.395843
 21
437.462195
 31
0.0
 11
323.671906
 21
436.603390
 31
0.0
  0
SPLINE
  5
12c
100
AcDbEntity
  8
0
 62
7
100
AcDbSpline
 70
0
 71
3
 72
10
 73
6
 74
4
 40
0.000000
 40
0.000000
 40
0.000000
 40
0.000000
 40
12.874241
 40
25.787069
 40
38.720254
 40
38.720254
 40
38.720254
 40
38.720254
 10
201.605649
 20
367.338214
 30
0.0
 10
205.624631
 20
365.833138
 30
0.0
 10
213.674640
 20
362.818475
 30
0.0
 10
225.902792
 20
358.678239
 30
0.0
 10
234.153938
 20
356.198362
 30
0.0
 10
238.282761
 20
354.957447
 30
0.0
 11
201.605649
 21
367.338214
 31
0.0
 11
213.685960
 21
362.887127
 31
0.0
 11
225.918523
 21
358.751243
 31
0.0
 11
238.282761
 21
354.957447
 31
0.0
  0
LINE
  5
12d
100
AcDbEntity
  8
0
 62
7
100
AcDbLine
 10
275.400850
 20
240.278924
 30
0.0
 11
275.347843
 21
240.270924
 31
0.0
  0
SPLINE
  5
12e
100
AcDbEntity
  8
0
 62
7
100
AcDbSpline
 70
0
 71
3
 72
10
 73
6
 74
4
 40
0.000000
 40
0.000000
 40
0.000000
 40
0.000000
 40
11.313402
 40
22.626582
 40
33.940375
 40
33.940375
 40
33.940375
 40
33.940375
 10
241.699964
 20
236.278460
 30
0.0
 10
245.452527
 20
236.652638
 30
0.0
 10
252.957579
 20
237.400986
 30
0.0
 10
264.194131
 20
238.726130
 30
0.0
 10
271.665210
 20
239.761317
 30
0.0
 10
275.400850
 20
240.278924
 30
0.0
 11
241.699964
 21
236.278460
 31
0.0
 11
252.954121
 21
237.434761
 31
0.0
 11
264.188935
 21
238.764043
 31
0.0
 11
275.400850
 21
240.278924
 31
0.0
  0
SPLINE
  5
12f
100
AcDbEntity
  8
0
 62
5
100
AcDbSpline
 70
0
 71
3
 72
10
 73
6
 74
4
 40
0.000000
 40
0.000000
 40
0.000000
 40
0.000000
 40
79.305031
 40
158.553798
 40
237.759361
 40
237.759361
 40
237.759361
 40
237.759361
 10
224.348187
 20
492.220972
 30
0.0
 10
201.455087
 20
478.636207
 30
0.0
 10
155.685130
 20
451.476314
 30
0.0
 10
108.827424
 20
383.092733
 30
0.0
 10
101.559159
 20
330.283373
 30
0.0
 10
97.926017
 20
303.885893
 30
0.0
 11
224.348187
 21
492.220972
 31
0.0
 11
159.301994
 21
446.852694
 31
0.0
 11
114.812170
 21
381.270511
 31
0.0
 11
97.926017
 21
303.885893
 31
0.0
  0
SPLINE
  5
130
100
AcDbEntity
  8
0
 62
5
100
AcDbSpline
 70
0
 71
3
 72
10
 73
6
 74
4
 40
0.000000
 40
0.000000
 40
0.000000
 40
0.000000
 40
69.168393
 40
138.330072
 40
207.590391
 40
207.590391
 40
207.590391
 40
207.590391
 10
97.926017
 20
303.885893
 30
0.0
 10
99.920480
 20
280.734971
 30
0.0
 10
103.909213
 20
234.435373
 30
0.0
 10
139.005798
 20
171.784728
 30
0.0
 10
175.320302
 20
142.922567
 30
0.0
 10
193.490493
 20
128.481203
 30
0.0
 11
97.926017
 21
303.885893
 31
0.0
 11
108.759440
 21
235.571154
 31
0.0
 11
142.212517
 21
175.038275
 31
0.0
 11
193.490493
 21
128.481203
 31
0.0
  0
SPLINE
  5
131
100
AcDbEntity
  8
0
 62
5
100
AcDbSpline
 70
0
 71
3
 72
10
 73
6
 74
4
 40
0.000000
 40
0.000000
 40
0.000000
 40
0.000000
 40
76.213537
 40
152.334918
 40
228.272131
 40
228.272131
 40
228.272131
 40
228.272131
 10
193.490493
 20
128.481203
 30
0.0
 10
215.921357
 20
116.375118
 30
0.0
 10
260.755963
 20
92.177588
 30
0.0
 10
339.107119
 20
81.612068
 30
0.0
 10
387.591634
 20
98.103293
 30
0.0
 10
411.804530
 20
106.338919
 30
0.0
 11
193.490493
 21
128.481203
 31
0.0
 11
262.648387
 21
96.454824
 31
0.0
 11
338.241228
 21
87.500106
 31
0.0
 11
411.804530
 21
106.338919
 31
0.0
  0
SPLINE
  5
132
100
AcDbEntity
  8
0
 62
5
100
AcDbSpline
 70
0
 71
3
 72
10
 73
6
 74
4
 40
0.000000
 40
0.000000
 40
0.000000
 40
0.000000
 40
79.761585
 40
159.611396
 40
239.514889
 40
239.514889
 40
239.514889
 40
239.514889
 10
411.804530
 20
106.338919
 30
0.0
 10
434.360170
 20
120.919917
 30
0.0
 10
479.496398
 20
150.098043
 30
0.0
 10
520.777884
 20
222.912759
 30
0.0
 10
524.800851
 20
276.386278
 30
0.0
 10
526.813011
 20
303.132021
 30
0.0
 11
411.804530
 21
106.338919
 31
0.0
 11
475.069700
 21
154.912869
 31
0.0
 11
514.894770
 21
224.122379
 31
0.0
 11
526.813011
 21
303.132021
 31
0.0
  0
LINE
  5
133
100
AcDbEntity
  8
0
 62
5
100
AcDbLine
 10
519.605787
 20
355.183795
 30
0.0
 11
524.258704
 21
382.746481
 31
0.0
  0
LINE
  5
134
100
AcDbEntity
  8
0
 62
5
100
AcDbLine
 10
524.258704
 20
382.746481
 30
0.0
 11
512.691157
 21
382.305457
 31
0.0
  0
LINE
  5
135
100
AcDbEntity
  8
0
 62
5
100
AcDbLine
 10
512.691157
 20
382.305457
 30
0.0
 11
521.348064
 21
444.975470
 31
0.0
  0
LINE
  5
136
100
AcDbEntity
  8
0
 62
5
100
AcDbLine
 10
521.348064
 20
444.975470
 30
0.0
 11
533.564535
 21
437.871871
 31
0.0
  0
LINE
  5
137
100
AcDbEntity
  8
0
 62
5
100
AcDbLine
 10
533.564535
 20
437.871871
 30
0.0
 11
538.217452
 21
465.434573
 31
0.0
  0
SPLINE
  5
138
100
AcDbEntity
  8
0
 62
5
100
AcDbSpline
 70
0
 71
3
 72
10
 73
6
 74
4
 40
0.000000
 40
0.000000
 40
0.000000
 40
0.000000
 40
17.569987
 40
35.153246
 40
52.611585
 40
52.611585
 40
52.611585
 40
52.611585
 10
526.813011
 20
303.132021
 30
0.0
 10
526.525275
 20
308.987695
 30
0.0
 10
525.949586
 20
320.703466
 30
0.0
 10
522.864940
 20
337.995416
 30
0.0
 10
520.689586
 20
349.467968
 30
0.0
 10
519.605787
 20
355.183795
 30
0.0
 11
526.813011
 21
303.132021
 31
0.0
 11
525.578742
 21
320.658602
 31
0.0
 11
522.827189
 21
338.025235
 31
0.0
 11
519.605787
 21
355.183795
 31
0.0
  0
SPLINE
  5
139
100
AcDbEntity
  8
0
 62
5
100
AcDbSpline
 70
0
 71
3
 72
10
 73
6
 74
4
 40
0.000000
 40
0.000000
 40
0.000000
 40
0.000000
 40
103.250727
 40
206.484759
 40
309.640382
 40
309.640382
 40
309.640382
 40
309.640382
 10
538.217452
 20
465.434573
 30
0.0
 10
555.626215
 20
435.483862
 30
0.0
 10
590.440927
 20
375.587283
 30
0.0
 10
602.095780
 20
268.675040
 30
0.0
 10
579.536923
 20
203.088684
 30
0.0
 10
568.261780
 20
170.307964
 30
0.0
 11
538.217452
 21
465.434573
 31
0.0
 11
583.681990
 21
372.732424
 31
0.0
 11
594.511131
 21
270.067947
 31
0.0
 11
568.261780
 21
170.307964
 31
0.0
  0
SPLINE
  5
13a
100
AcDbEntity
  8
0
 62
5
100
AcDbSpline
 70
0
 71
3
 72
10
 73
6
 74
4
 40
0.000000
 40
0.000000
 40
0.000000
 40
0.000000
 40
76.550273
 40
153.037818
 40
229.582564
 40
229.582564
 40
229.582564
 40
229.582564
 10
568.261780
 20
170.307964
 30
0.0
 10
555.294065
 20
148.177792
 30
0.0
 10
529.369260
 20
103.935583
 30
0.0
 10
467.728724
 20
54.676956
 30
0.0
 10
418.787056
 20
39.338123
 30
0.0
 10
394.307075
 20
31.665839
 30
0.0
 11
568.261780
 21
170.307964
 31
0.0
 11
525.564460
 21
106.771493
 31
0.0
 11
465.782028
 21
59.059802
 31
0.0
 11
394.307075
 21
31.665839
 31
0.0
  0
SPLINE
  5
13b
100
AcDbEntity
  8
0
 62
5
100
AcDbSpline
 70
0
 71
3
 72
10
 73
6
 74
4
 40
0.000000
 40
0.000000
 40
0.000000
 40
0.000000
 40
101.898306
 40
203.806784
 40
305.475187
 40
305.475187
 40
305.475187
 40
305.475187
 10
394.307075
 20
31.665839
 30
0.0
 10
360.453008
 20
27.584845
 30
0.0
 10
292.741497
 20
19.422450
 30
0.0
 10
190.319924
 20
44.236123
 30
0.0
 10
136.273855
 20
86.183052
 30
0.0
 10
109.282689
 20
107.131783
 30
0.0
 11
394.307075
 21
31.665839
 31
0.0
 11
292.589376
 21
25.601633
 31
0.0
 11
193.800420
 21
50.623223
 31
0.0
 11
109.282689
 21
107.131783
 31
0.0
  0
SPLINE
  5
13c
100
AcDbEntity
  8
0
 62
5
100
AcDbSpline
 70
0
 71
3
 72
10
 73
6
 74
4
 40
0.000000
 40
0.000000
 40
0.000000
 40
0.000000
 40
87.863941
 40
175.715038
 40
263.610670
 40
263.610670
 40
263.610670
 40
263.610670
 10
109.282689
 20
107.131783
 30
0.0
 10
90.372769
 20
129.751249
 30
0.0
 10
52.555693
 20
174.986877
 30
0.0
 10
26.365893
 20
262.226579
 30
0.0
 10
32.500734
 20
320.843270
 30
0.0
 10
35.568932
 20
350.159043
 30
0.0
 11
109.282689
 21
107.131783
 31
0.0
 11
57.643606
 21
178.219596
 31
0.0
 11
32.266161
 21
262.325486
 31
0.0
 11
35.568932
 21
350.159043
 31
0.0
  0
LINE
  5
13d
100
AcDbEntity
  8
0
 62
5
100
AcDbLine
 10
111.065457
 20
492.220972
 30
0.0
 11
141.274463
 21
508.608667
 31
0.0
  0
LINE
  5
13e
100
AcDbEntity
  8
0
 62
5
100
AcDbLine
 10
141.274463
 20
508.608667
 30
0.0
 11
139.386143
 21
492.220972
 31
0.0
  0
LINE
  5
13f
100
AcDbEntity
  8
0
 62
5
100
AcDbLine
 10
139.386143
 20
492.220972
 30
0.0
 11
167.706830
 21
492.220972
 31
0.0
  0
LINE
  5
140
100
AcDbEntity
  8
0
 62
5
100
AcDbLine
 10
167.706830
 20
492.220972
 30
0.0
 11
196.027500
 21
492.220972
 31
0.0
  0
LINE
  5
141
100
AcDbEntity
  8
0
 62
5
100
AcDbLine
 10
196.027500
 20
492.220972
 30
0.0
 11
194.807324
 21
506.340763
 31
0.0
  0
LINE
  5
142
100
AcDbEntity
  8
0
 62
5
100
AcDbLine
 10
194.807324
 20
506.340763
 30
0.0
 11
231.406827
 21
506.717787
 31
0.0
  0
LINE
  5
143
100
AcDbEntity
  8
0
 62
5
100
AcDbLine
 10
231.406827
 20
506.717787
 30
0.0
 11
224.348187
 21
492.220972
 31
0.0
  0
SPLINE
  5
144
100
AcDbEntity
  8
0
 62
5
100
AcDbSpline
 70
0
 71
3
 72
10
 73
6
 74
4
 40
0.000000
 40
0.000000
 40
0.000000
 40
0.000000
 40
54.275462
 40
108.553789
 40
162.840492
 40
162.840492
 40
162.840492
 40
162.840492
 10
35.568932
 20
350.159043
 30
0.0
 10
40.197504
 20
367.689263
 30
0.0
 10
49.454893
 20
402.750627
 30
0.0
 10
75.385674
 20
451.180300
 30
0.0
 10
99.171584
 20
478.540044
 30
0.0
 10
111.065457
 20
492.220972
 30
0.0
 11
35.568932
 21
350.159043
 31
0.0
 11
51.461732
 21
402.055523
 31
0.0
 11
77.008583
 21
449.945974
 31
0.0
 11
111.065457
 21
492.220972
 31
0.0
  0
SPLINE
  5
145
100
AcDbEntity
  8
0
 62
7
100
AcDbSpline
 70
0
 71
3
 72
10
 73
6
 74
4
 40
0.000000
 40
0.000000
 40
0.000000
 40
0.000000
 40
11.484867
 40
22.978702
 40
34.477713
 40
34.477713
 40
34.477713
 40
34.477713
 10
110.744705
 20
492.220972
 30
0.0
 10
112.640871
 20
488.895256
 30
0.0
 10
116.434683
 20
482.241227
 30
0.0
 10
122.209002
 20
472.304313
 30
0.0
 10
126.133586
 20
465.721034
 30
0.0
 10
128.096320
 20
462.428653
 30
0.0
 11
110.744705
 21
492.220972
 31
0.0
 11
116.446855
 21
482.251637
 31
0.0
 11
122.226564
 21
472.316687
 31
0.0
 11
128.096320
 21
462.428653
 31
0.0
  0
SPLINE
  5
146
100
AcDbEntity
  8
0
 62
7
100
AcDbSpline
 70
0
 71
3
 72
10
 73
6
 74
4
 40
0.000000
 40
0.000000
 40
0.000000
 40
0.000000
 40
12.736613
 40
25.472541
 40
38.209870
 40
38.209870
 40
38.209870
 40
38.209870
 10
75.001330
 20
370.674306
 30
0.0
 10
78.087130
 20
367.758375
 30
0.0
 10
84.258564
 20
361.926671
 30
0.0
 10
93.667159
 20
353.340012
 30
0.0
 10
100.068712
 20
347.761282
 30
0.0
 10
103.269665
 20
344.971763
 30
0.0
 11
75.001330
 21
370.674306
 31
0.0
 11
84.283928
 21
361.953372
 31
0.0
 11
93.699099
 21
353.376751
 31
0.0
 11
103.269665
 21
344.971763
 31
0.0
  0
SPLINE
  5
147
100
AcDbEntity
  8
0
 62
7
100
AcDbSpline
 70
0
 71
3
 72
10
 73
6
 74
4
 40
0.000000
 40
0.000000
 40
0.000000
 40
0.000000
 40
0.889028
 40
1.923599
 40
2.347031
 40
2.347031
 40
2.347031
 40
2.347031
 10
103.269665
 20
344.971763
 30
0.0
 10
103.495556
 20
344.779950
 30
0.0
 10
103.984319
 20
344.364922
 30
0.0
 10
104.579366
 20
343.857001
 30
0.0
 10
104.950565
 20
343.543300
 30
0.0
 10
105.058369
 20
343.452195
 30
0.0
 11
103.269665
 21
344.971763
 31
0.0
 11
103.947110
 21
344.396055
 31
0.0
 11
104.735089
 21
343.725663
 31
0.0
 11
105.058369
 21
343.452195
 31
0.0
  0
SPLINE
  5
148
100
AcDbEntity
  8
0
 62
7
100
AcDbSpline
 70
0
 71
3
 72
10
 73
6
 74
4
 40
0.000000
 40
0.000000
 40
0.000000
 40
0.000000
 40
0.938257
 40
2.059288
 40
2.197741
 40
2.197741
 40
2.197741
 40
2.197741
 10
105.058369
 20
343.452195
 30
0.0
 10
105.242479
 20
343.297309
 30
0.0
 10
105.646563
 20
342.957364
 30
0.0
 10
106.929475
 20
341.878197
 30
0.0
 10
106.567994
 20
342.182230
 30
0.0
 10
106.528257
 20
342.215651
 30
0.0
 11
105.058369
 21
343.452195
 31
0.0
 11
105.776358
 21
342.848193
 31
0.0
 11
106.634215
 21
342.126534
 31
0.0
 11
106.528257
 21
342.215651
 31
0.0
  0
SPLINE
  5
149
100
AcDbEntity
  8
0
 62
7
100
AcDbSpline
 70
0
 71
3
 72
10
 73
6
 74
4
 40
0.000000
 40
0.000000
 40
0.000000
 40
0.000000
 40
0.808153
 40
2.094808
 40
3.303450
 40
3.303450
 40
3.303450
 40
3.303450
 10
24.365525
 20
299.218885
 30
0.0
 10
24.595143
 20
299.078018
 30
0.0
 10
25.190333
 20
298.712877
 30
0.0
 10
26.128958
 20
298.137105
 30
0.0
 10
26.837951
 20
297.702175
 30
0.0
 10
27.181365
 20
297.491509
 30
0.0
 11
24.365525
 21
299.218885
 31
0.0
 11
25.054380
 21
298.796288
 31
0.0
 11
26.151122
 21
298.123504
 31
0.0
 11
27.181365
 21
297.491509
 31
0.0
  0
SPLINE
  5
14a
100
AcDbEntity
  8
0
 62
7
100
AcDbSpline
 70
0
 71
3
 72
10
 73
6
 74
4
 40
0.000000
 40
0.000000
 40
0.000000
 40
0.000000
 40
14.229744
 40
28.507534
 40
42.808788
 40
42.808788
 40
42.808788
 40
42.808788
 10
27.181365
 20
297.491509
 30
0.0
 10
31.233006
 20
295.025215
 30
0.0
 10
39.349968
 20
290.084298
 30
0.0
 10
51.618015
 20
282.794880
 30
0.0
 10
59.891348
 20
278.071942
 30
0.0
 10
64.031411
 20
275.708534
 30
0.0
 11
27.181365
 21
297.491509
 31
0.0
 11
39.349409
 21
290.114226
 31
0.0
 11
51.632060
 21
282.834682
 31
0.0
 11
64.031411
 21
275.708534
 31
0.0
  0
SPLINE
  5
14b
100
AcDbEntity
  8
0
 62
7
100
AcDbSpline
 70
0
 71
3
 72
10
 73
6
 74
4
 40
0.000000
 40
0.000000
 40
0.000000
 40
0.000000
 40
11.876046
 40
23.748749
 40
35.616983
 40
35.616983
 40
35.616983
 40
35.616983
 10
89.593458
 20
191.726875
 30
0.0
 10
93.389648
 20
190.604178
 30
0.0
 10
100.980961
 20
188.359099
 30
0.0
 10
112.437757
 20
185.239251
 30
0.0
 10
120.127532
 20
183.369112
 30
0.0
 10
123.971696
 20
182.434219
 30
0.0
 11
89.593458
 21
191.726875
 31
0.0
 11
100.994000
 21
188.400000
 31
0.0
 11
112.452476
 21
185.291238
 31
0.0
 11
123.971696
 21
182.434219
 31
0.0
  0
SPLINE
  5
14c
100
AcDbEntity
  8
0
 62
7
100
AcDbSpline
 70
0
 71
3
 72
10
 73
6
 74
4
 40
0.000000
 40
0.000000
 40
0.000000
 40
0.000000
 40
5.489401
 40
10.978780
 40
16.468138
 40
16.468138
 40
16.468138
 40
16.468138
 10
123.971696
 20
182.434219
 30
0.0
 10
125.755908
 20
182.028241
 30
0.0
 10
129.324327
 20
181.216285
 30
0.0
 10
134.700505
 20
180.104129
 30
0.0
 10
138.301429
 20
179.450983
 30
0.0
 10
140.101887
 20
179.124411
 30
0.0
 11
123.971696
 21
182.434219
 31
0.0
 11
129.328260
 21
181.233913
 31
0.0
 11
134.704715
 21
180.126200
 31
0.0
 11
140.101887
 21
179.124411
 31
0.0
  0
SPLINE
  5
14d
100
AcDbEntity
  8
0
 62
7
100
AcDbSpline
 70
0
 71
3
 72
10
 73
6
 74
4
 40
0.000000
 40
0.000000
 40
0.000000
 40
0.000000
 40
1.107163
 40
2.129330
 40
3.174016
 40
3.174016
 40
3.174016
 40
3.174016
 10
140.101887
 20
179.124411
 30
0.0
 10
140.465948
 20
179.063915
 30
0.0
 10
141.166122
 20
178.947566
 30
0.0
 10
142.208891
 20
178.768512
 30
0.0
 10
142.889728
 20
178.663004
 30
0.0
 10
143.233855
 20
178.609675
 30
0.0
 11
140.101887
 21
179.124411
 31
0.0
 11
141.193904
 21
178.941902
 31
0.0
 11
142.201934
 21
178.772494
 31
0.0
 11
143.233855
 21
178.609675
 31
0.0
  0
SPLINE
  5
14e
100
AcDbEntity
  8
0
 62
7
100
AcDbSpline
 70
0
 71
3
 72
10
 73
6
 74
4
 40
0.000000
 40
0.000000
 40
0.000000
 40
0.000000
 40
0.576787
 40
1.267582
 40
1.576975
 40
1.576975
 40
1.576975
 40
1.576975
 10
143.233855
 20
178.609675
 30
0.0
 10
143.390821
 20
178.584879
 30
0.0
 10
143.735780
 20
178.530385
 30
0.0
 10
144.758734
 20
178.368873
 30
0.0
 10
144.316971
 20
178.438651
 30
0.0
 10
144.180319
 20
178.460235
 30
0.0
 11
143.233855
 21
178.609675
 31
0.0
 11
143.803579
 21
178.519689
 31
0.0
 11
144.485922
 21
178.411960
 31
0.0
 11
144.180319
 21
178.460235
 31
0.0
  0
SPLINE
  5
14f
100
AcDbEntity
  8
0
 62
7
100
AcDbSpline
 70
0
 71
3
 72
10
 73
6
 74
4
 40
0.000000
 40
0.000000
 40
0.000000
 40
0.000000
 40
2.176778
 40
4.313419
 40
6.243074
 40
6.243074
 40
6.243074
 40
6.243074
 10
74.077762
 20
135.125193
 30
0.0
 10
74.793365
 20
135.005203
 30
0.0
 10
76.211376
 20
134.767437
 30
0.0
 10
78.263410
 20
134.421281
 30
0.0
 10
79.600563
 20
134.199420
 30
0.0
 10
80.235106
 20
134.094137
 30
0.0
 11
74.077762
 21
135.125193
 31
0.0
 11
76.224511
 21
134.764869
 31
0.0
 11
78.331611
 21
134.410799
 31
0.0
 11
80.235106
 21
134.094137
 31
0.0
  0
SPLINE
  5
150
100
AcDbEntity
  8
0
 62
7
100
AcDbSpline
 70
0
 71
3
 72
10
 73
6
 74
4
 40
0.000000
 40
0.000000
 40
0.000000
 40
0.000000
 40
20.253973
 40
40.562875
 40
60.890518
 40
60.890518
 40
60.890518
 40
60.890518
 10
80.235106
 20
134.094137
 30
0.0
 10
86.899723
 20
133.015857
 30
0.0
 10
100.247030
 20
130.856372
 30
0.0
 10
120.319999
 20
127.838630
 30
0.0
 10
133.762135
 20
126.164303
 30
0.0
 10
140.486303
 20
125.326753
 30
0.0
 11
80.235106
 21
134.094137
 31
0.0
 11
100.235068
 21
130.896491
 31
0.0
 11
120.325317
 21
127.924387
 31
0.0
 11
140.486303
 21
125.326753
 31
0.0
  0
SPLINE
  5
151
100
AcDbEntity
  8
0
 62
7
100
AcDbSpline
 70
0
 71
3
 72
10
 73
6
 74
4
 40
0.000000
 40
0.000000
 40
0.000000
 40
0.000000
 40
3.951630
 40
7.903362
 40
11.855359
 40
11.855359
 40
11.855359
 40
11.855359
 10
223.414187
 20
73.922327
 30
0.0
 10
224.731226
 20
73.943744
 30
0.0
 10
227.365337
 20
73.986579
 30
0.0
 10
231.316003
 20
74.083553
 30
0.0
 10
233.949098
 20
74.172124
 30
0.0
 10
235.265690
 20
74.216412
 30
0.0
 11
223.414187
 21
73.922327
 31
0.0
 11
227.365203
 21
73.992031
 31
0.0
 11
231.315731
 21
74.089531
 31
0.0
 11
235.265690
 21
74.216412
 31
0.0
  0
SPLINE
  5
152
100
AcDbEntity
  8
0
 62
7
100
AcDbSpline
 70
0
 71
3
 72
10
 73
6
 74
4
 40
0.000000
 40
0.000000
 40
0.000000
 40
0.000000
 40
16.219201
 40
32.438543
 40
48.626215
 40
48.626215
 40
48.626215
 40
48.626215
 10
235.265690
 20
74.216412
 30
0.0
 10
240.659372
 20
74.534248
 30
0.0
 10
251.446782
 20
75.169922
 30
0.0
 10
267.601973
 20
77.293079
 30
0.0
 10
277.809759
 20
80.913475
 30
0.0
 10
282.908664
 20
82.721904
 30
0.0
 11
235.265690
 21
74.216412
 31
0.0
 11
251.444164
 21
75.365088
 31
0.0
 11
267.472505
 21
77.846893
 31
0.0
 11
282.908664
 21
82.721904
 31
0.0
  0
SPLINE
  5
153
100
AcDbEntity
  8
0
 62
7
100
AcDbSpline
 70
0
 71
3
 72
10
 73
6
 74
4
 40
0.000000
 40
0.000000
 40
0.000000
 40
0.000000
 40
4.986850
 40
10.035358
 40
14.686909
 40
14.686909
 40
14.686909
 40
14.686909
 10
282.908664
 20
82.721904
 30
0.0
 10
284.406847
 20
83.443258
 30
0.0
 10
287.421736
 20
84.894885
 30
0.0
 10
291.530346
 20
87.611742
 30
0.0
 10
293.865235
 20
89.855306
 30
0.0
 10
294.984904
 20
90.931182
 30
0.0
 11
282.908664
 21
82.721904
 31
0.0
 11
287.351964
 21
84.985917
 31
0.0
 11
291.538820
 21
87.806852
 31
0.0
 11
294.984904
 21
90.931182
 31
0.0
  0
SPLINE
  5
154
100
AcDbEntity
  8
0
 62
7
100
AcDbSpline
 70
0
 71
3
 72
10
 73
6
 74
4
 40
0.000000
 40
0.000000
 40
0.000000
 40
0.000000
 40
1.114778
 40
1.863077
 40
2.965116
 40
2.965116
 40
2.965116
 40
2.965116
 10
294.984904
 20
90.931182
 30
0.0
 10
295.231759
 20
91.208951
 30
0.0
 10
295.644318
 20
91.673175
 30
0.0
 10
296.274569
 20
92.434939
 30
0.0
 10
296.642413
 20
92.930172
 30
0.0
 10
296.861495
 20
93.225126
 30
0.0
 11
294.984904
 21
90.931182
 31
0.0
 11
295.719545
 21
91.769652
 31
0.0
 11
296.195217
 21
92.347310
 31
0.0
 11
296.861495
 21
93.225126
 31
0.0
  0
SPLINE
  5
155
100
AcDbEntity
  8
0
 62
7
100
AcDbSpline
 70
0
 71
3
 72
13
 73
9
 74
7
 40
0.000000
 40
0.000000
 40
0.000000
 40
0.000000
 40
1.663775
 40
3.830259
 40
5.599390
 40
8.796839
 40
11.834651
 40
15.055056
 40
15.055056
 40
15.055056
 40
15.055056
 10
234.264427
 20
28.896180
 30
0.0
 10
234.819010
 20
28.893241
 30
0.0
 10
236.095745
 20
28.886475
 30
0.0
 10
237.962183
 20
28.876613
 30
0.0
 10
240.339838
 20
28.864164
 30
0.0
 10
243.007930
 20
28.849827
 30
0.0
 10
246.159782
 20
28.834505
 30
0.0
 10
248.245833
 20
28.824973
 30
0.0
 10
249.319290
 20
28.820068
 30
0.0
 11
234.264427
 21
28.896180
 31
0.0
 11
235.928178
 21
28.887367
 31
0.0
 11
238.094632
 21
28.875932
 31
0.0
 11
239.863738
 21
28.866628
 31
0.0
 11
243.061144
 21
28.849821
 31
0.0
 11
246.098919
 21
28.834945
 31
0.0
 11
249.319290
 21
28.820068
 31
0.0
  0
SPLINE
  5
156
100
AcDbEntity
  8
0
 62
7
100
AcDbSpline
 70
0
 71
3
 72
10
 73
6
 74
4
 40
0.000000
 40
0.000000
 40
0.000000
 40
0.000000
 40
2.829953
 40
5.816360
 40
8.822193
 40
8.822193
 40
8.822193
 40
8.822193
 10
249.319290
 20
28.820068
 30
0.0
 10
250.262601
 20
28.816660
 30
0.0
 10
252.201375
 20
28.809655
 30
0.0
 10
255.142094
 20
28.800727
 30
0.0
 10
257.139506
 20
28.798253
 30
0.0
 10
258.141449
 20
28.797012
 30
0.0
 11
249.319290
 21
28.820068
 31
0.0
 11
252.149226
 21
28.810108
 31
0.0
 11
255.135620
 21
28.801639
 31
0.0
 11
258.141449
 21
28.797012
 31
0.0
  0
SPLINE
  5
157
100
AcDbEntity
  8
0
 62
7
100
AcDbSpline
 70
0
 71
3
 72
10
 73
6
 74
4
 40
0.000000
 40
0.000000
 40
0.000000
 40
0.000000
 40
28.089312
 40
56.338550
 40
84.541292
 40
84.541292
 40
84.541292
 40
84.541292
 10
258.141449
 20
28.797012
 30
0.0
 10
267.501540
 20
28.840942
 30
0.0
 10
286.275013
 20
28.929052
 30
0.0
 10
314.491859
 20
30.020937
 30
0.0
 10
333.043418
 20
33.297698
 30
0.0
 10
342.311557
 20
34.934729
 30
0.0
 11
258.141449
 21
28.797012
 31
0.0
 11
286.229256
 21
29.087777
 31
0.0
 11
314.434737
 21
30.659502
 31
0.0
 11
342.311557
 21
34.934729
 31
0.0
  0
SPLINE
  5
158
100
AcDbEntity
  8
0
 62
7
100
AcDbSpline
 70
0
 71
3
 72
10
 73
6
 74
4
 40
0.000000
 40
0.000000
 40
0.000000
 40
0.000000
 40
16.403979
 40
32.799005
 40
49.135723
 40
49.135723
 40
49.135723
 40
49.135723
 10
342.311557
 20
34.934729
 30
0.0
 10
347.592213
 20
36.334584
 30
0.0
 10
358.150642
 20
39.133530
 30
0.0
 10
373.329230
 20
45.939403
 30
0.0
 10
381.281870
 20
53.513071
 30
0.0
 10
385.251107
 20
57.293160
 30
0.0
 11
342.311557
 21
34.934729
 31
0.0
 11
358.046856
 21
39.570557
 31
0.0
 11
372.805675
 21
46.710174
 31
0.0
 11
385.251107
 21
57.293160
 31
0.0
  0
SPLINE
  5
159
100
AcDbEntity
  8
0
 62
7
100
AcDbSpline
 70
0
 71
3
 72
10
 73
6
 74
4
 40
0.000000
 40
0.000000
 40
0.000000
 40
0.000000
 40
10.294109
 40
20.584666
 40
30.850975
 40
30.850975
 40
30.850975
 40
30.850975
 10
499.712302
 20
132.204031
 30
0.0
 10
497.291230
 20
134.636744
 30
0.0
 10
492.449923
 20
139.501331
 30
0.0
 10
484.668418
 20
146.242411
 30
0.0
 10
479.203862
 20
150.378262
 30
0.0
 10
476.474807
 20
152.443749
 30
0.0
 11
499.712302
 21
132.204031
 31
0.0
 11
492.361372
 21
139.410454
 31
0.0
 11
484.592256
 21
146.158520
 31
0.0
 11
476.474807
 21
152.443749
 31
0.0
  0
SPLINE
  5
15a
100
AcDbEntity
  8
0
 62
7
100
AcDbSpline
 70
0
 71
3
 72
10
 73
6
 74
4
 40
0.000000
 40
0.000000
 40
0.000000
 40
0.000000
 40
2.573077
 40
5.301784
 40
6.839926
 40
6.839926
 40
6.839926
 40
6.839926
 10
476.474807
 20
152.443749
 30
0.0
 10
475.778564
 20
152.944659
 30
0.0
 10
474.343968
 20
153.976776
 30
0.0
 10
472.465991
 20
155.269956
 30
0.0
 10
471.284895
 20
156.062353
 30
0.0
 10
470.859125
 20
156.348001
 30
0.0
 11
476.474807
 21
152.443749
 31
0.0
 11
474.381118
 21
153.939473
 31
0.0
 11
472.135188
 21
155.489196
 31
0.0
 11
470.859125
 21
156.348001
 31
0.0
  0
SPLINE
  5
15b
100
AcDbEntity
  8
0
 62
7
100
AcDbSpline
 70
0
 71
3
 72
10
 73
6
 74
4
 40
0.000000
 40
0.000000
 40
0.000000
 40
0.000000
 40
12.874241
 40
25.787069
 40
38.720254
 40
38.720254
 40
38.720254
 40
38.720254
 10
592.925382
 20
225.613177
 30
0.0
 10
588.906400
 20
227.118253
 30
0.0
 10
580.856391
 20
230.132916
 30
0.0
 10
568.628239
 20
234.273152
 30
0.0
 10
560.377093
 20
236.753029
 30
0.0
 10
556.248270
 20
237.993944
 30
0.0
 11
592.925382
 21
225.613177
 31
0.0
 11
580.845071
 21
230.064264
 31
0.0
 11
568.612508
 21
234.200148
 31
0.0
 11
556.248270
 21
237.993944
 31
0.0
  0
LINE
  5
15c
100
AcDbEntity
  8
0
 62
7
100
AcDbLine
 10
519.130181
 20
352.672467
 30
0.0
 11
519.183189
 21
352.680467
 31
0.0
  0
SPLINE
  5
15d
100
AcDbEntity
  8
0
 62
7
100
AcDbSpline
 70
0
 71
3
 72
10
 73
6
 74
4
 40
0.000000
 40
0.000000
 40
0.000000
 40
0.000000
 40
11.313402
 40
22.626582
 40
33.940375
 40
33.940375
 40
33.940375
 40
33.940375
 10
552.831067
 20
356.672931
 30
0.0
 10
549.078504
 20
356.298753
 30
0.0
 10
541.573452
 20
355.550405
 30
0.0
 10
530.336900
 20
354.225261
 30
0.0
 10
522.865821
 20
353.190074
 30
0.0
 10
519.130181
 20
352.672467
 30
0.0
 11
552.831067
 21
356.672931
 31
0.0
 11
541.576910
 21
355.516630
 31
0.0
 11
530.342096
 21
354.187348
 31
0.0
 11
519.130181
 21
352.672467
 31
0.0
  0
ENDSEC
  0
SECTION
  2
OBJECTS
  0
DICTIONARY
  5
C
330
0
100
AcDbDictionary
  3
ACAD_GROUP
350
D
  3
ACAD_MLINESTYLE
350
17
  0
DICTIONARY
  5
D
330
C
100
AcDbDictionary
  0
DICTIONARY
  5
1A
330
C
100
AcDbDictionary
  0
DICTIONARY
  5
17
330
C
100
AcDbDictionary
  3
STANDARD
350
18
  0
DICTIONARY
  5
19
330
C
100
AcDbDictionary
  0
ENDSEC
  0
EOF
