  0
SECTION
  2
HEADER
  9
$ACADVER
  1
AC1014
  9
$HANDSEED
  5
FFFF
  9
$MEASUREMENT
 70
     1
  0
ENDSEC
  0
SECTION
  2
TABLES
  0
TABLE
  2
VPORT
  5
8
330
0
100
AcDbSymbolTable
 70
     4
  0
VPORT
  5
2E
330
8
100
AcDbSymbolTableRecord
100
AcDbViewportTableRecord
  2
*ACTIVE
 70
     0
 10
0.0
 20
0.0
 11
1.0
 21
1.0
 12
210.0
 22
148.5
 13
0.0
 23
0.0
 14
10.0
 24
10.0
 15
10.0
 25
10.0
 16
0.0
 26
0.0
 36
1.0
 17
0.0
 27
0.0
 37
0.0
 40
341.0
 41
1.24
 42
50.0
 43
0.0
 44
0.0
 50
0.0
 51
0.0
 71
     0
 72
   100
 73
     1
 74
     3
 75
     0
 76
     0
 77
     0
 78
     0
  0
ENDTAB
  0
TABLE
  2
LTYPE
  5
5
330
0
100
AcDbSymbolTable
 70
     1
  0
LTYPE
  5
14
330
5
100
AcDbSymbolTableRecord
100
AcDbLinetypeTableRecord
  2
BYBLOCK
 70
     0
  3

 72
    65
 73
     0
 40
0.0
  0
LTYPE
  5
15
330
5
100
AcDbSymbolTableRecord
100
AcDbLinetypeTableRecord
  2
BYLAYER
 70
     0
  3

 72
    65
 73
     0
 40
0.0
  0
LTYPE
  5
16
330
5
100
AcDbSymbolTableRecord
100
AcDbLinetypeTableRecord
  2
CONTINUOUS
 70
     0
  3
Solid line
 72
    65
 73
     0
 40
0.0
  0
ENDTAB
  0
TABLE
  2
LAYER
  5
2
100
AcDbSymbolTable
 70
1
  0
LAYER
  5
50
100
AcDbSymbolTableRecord
100
AcDbLayerTableRecord
  2
0
 70
0
  6
CONTINUOUS
  0
ENDTAB
  0
TABLE
  2
STYLE
  5
3
330
0
100
AcDbSymbolTable
 70
     1
  0
STYLE
  5
11
330
3
100
AcDbSymbolTableRecord
100
AcDbTextStyleTableRecord
  2
STANDARD
 70
     0
 40
0.0
 41
1.0
 50
0.0
 71
     0
 42
2.5
  3
txt
  4

  0
ENDTAB
  0
TABLE
  2
VIEW
  5
6
330
0
100
AcDbSymbolTable
 70
     0
  0
ENDTAB
  0
TABLE
  2
UCS
  5
7
330
0
100
AcDbSymbolTable
 70
     0
  0
ENDTAB
  0
TABLE
  2
APPID
  5
9
330
0
100
AcDbSymbolTable
 70
     2
  0
APPID
  5
12
330
9
100
AcDbSymbolTableRecord
100
AcDbRegAppTableRecord
  2
ACAD
 70
     0
  0
ENDTAB
  0
TABLE
  2
DIMSTYLE
  5
A
330
0
100
AcDbSymbolTable
 70
     1
  0
DIMSTYLE
105
27
330
A
100
AcDbSymbolTableRecord
100
AcDbDimStyleTableRecord
  2
ISO-25
 70
     0
  3

  4

  5

  6

  7

 40
1.0
 41
2.5
 42
0.625
 43
3.75
 44
1.25
 45
0.0
 46
0.0
 47
0.0
 48
0.0
140
2.5
141
2.5
142
0.0
143
0.03937007874016
144
1.0
145
0.0
146
1.0
147
0.625
 71
     0
 72
     0
 73
     0
 74
     0
 75
     0
 76
     0
 77
     1
 78
     8
170
     0
171
     3
172
     1
173
     0
174
     0
175
     0
176
     0
177
     0
178
     0
270
     2
271
     2
272
     2
273
     2
274
     3
340
11
275
     0
280
     0
281
     0
282
     0
283
     0
284
     8
285
     0
286
     0
287
     3
288
     0
  0
ENDTAB
  0
TABLE
  2
BLOCK_RECORD
  5
1
330
0
100
AcDbSymbolTable
 70
     1
  0
BLOCK_RECORD
  5
1F
330
1
100
AcDbSymbolTableRecord
100
AcDbBlockTableRecord
  2
*MODEL_SPACE
  0
BLOCK_RECORD
  5
1B
330
1
100
AcDbSymbolTableRecord
100
AcDbBlockTableRecord
  2
*PAPER_SPACE
  0
ENDTAB
  0
ENDSEC
  0
SECTION
  2
BLOCKS
  0
BLOCK
  5
20
330
1F
100
AcDbEntity
  8
0
100
AcDbBlockBegin
  2
*MODEL_SPACE
 70
     0
 10
0.0
 20
0.0
 30
0.0
  3
*MODEL_SPACE
  1

  0
ENDBLK
  5
21
330
1F
100
AcDbEntity
  8
0
100
AcDbBlockEnd
  0
BLOCK
  5
1C
330
1B
100
AcDbEntity
 67
     1
  8
0
100
AcDbBlockBegin
  2
*PAPER_SPACE
  1

  0
ENDBLK
  5
1D
330
1B
100
AcDbEntity
 67
     1
  8
0
100
AcDbBlockEnd
  0
ENDSEC
  0
SECTION
  2
ENTITIES
  0
LINE
  5
100
100
AcDbEntity
  8
0
 62
1
100
AcDbLine
 10
255.379917
 20
16.833839
 30
0.0
 11
262.033737
 21
20.074539
 31
0.0
  0
LINE
  5
101
100
AcDbEntity
  8
0
 62
1
100
AcDbLine
 10
262.033737
 20
20.074539
 30
0.0
 11
268.531237
 21
23.648849
 31
0.0
  0
LINE
  5
102
100
AcDbEntity
  8
0
 62
1
100
AcDbLine
 10
268.531237
 20
23.648849
 30
0.0
 11
274.852167
 21
27.548759
 31
0.0
  0
LINE
  5
103
100
AcDbEntity
  8
0
 62
1
100
AcDbLine
 10
274.852167
 20
27.548759
 30
0.0
 11
280.976676
 21
31.764938
 31
0.0
  0
LINE
  5
104
100
AcDbEntity
  8
0
 62
1
100
AcDbLine
 10
280.976676
 20
31.764938
 30
0.0
 11
286.885396
 21
36.286698
 31
0.0
  0
LINE
  5
105
100
AcDbEntity
  8
0
 62
1
100
AcDbLine
 10
286.885396
 20
36.286698
 30
0.0
 11
292.559566
 21
41.102058
 31
0.0
  0
LINE
  5
106
100
AcDbEntity
  8
0
 62
1
100
AcDbLine
 10
292.559566
 20
41.102058
 30
0.0
 11
297.981115
 21
46.197738
 31
0.0
  0
LINE
  5
107
100
AcDbEntity
  8
0
 62
1
100
AcDbLine
 10
297.981115
 20
46.197738
 30
0.0
 11
303.132795
 21
51.559217
 31
0.0
  0
LINE
  5
108
100
AcDbEntity
  8
0
 62
1
100
AcDbLine
 10
303.132795
 20
51.559217
 30
0.0
 11
307.998305
 21
57.170787
 31
0.0
  0
LINE
  5
109
100
AcDbEntity
  8
0
 62
1
100
AcDbLine
 10
307.998305
 20
57.170787
 30
0.0
 11
312.562345
 21
63.015607
 31
0.0
  0
LINE
  5
10a
100
AcDbEntity
  8
0
 62
1
100
AcDbLine
 10
312.562345
 20
63.015607
 30
0.0
 11
316.810774
 21
69.075767
 31
0.0
  0
LINE
  5
10b
100
AcDbEntity
  8
0
 62
1
100
AcDbLine
 10
316.810774
 20
69.075767
 30
0.0
 11
320.730654
 21
75.332376
 31
0.0
  0
LINE
  5
10c
100
AcDbEntity
  8
0
 62
1
100
AcDbLine
 10
320.730654
 20
75.332376
 30
0.0
 11
324.310414
 21
81.765676
 31
0.0
  0
LINE
  5
10d
100
AcDbEntity
  8
0
 62
1
100
AcDbLine
 10
324.310414
 20
81.765676
 30
0.0
 11
327.539874
 21
88.355116
 31
0.0
  0
LINE
  5
10e
100
AcDbEntity
  8
0
 62
1
100
AcDbLine
 10
327.539874
 20
88.355116
 30
0.0
 11
330.410334
 21
95.079445
 31
0.0
  0
LINE
  5
10f
100
AcDbEntity
  8
0
 62
1
100
AcDbLine
 10
330.410334
 20
95.079445
 30
0.0
 11
332.914674
 21
101.916915
 31
0.0
  0
LINE
  5
110
100
AcDbEntity
  8
0
 62
1
100
AcDbLine
 10
332.914674
 20
101.916915
 30
0.0
 11
335.047404
 21
108.845335
 31
0.0
  0
LINE
  5
111
100
AcDbEntity
  8
0
 62
1
100
AcDbLine
 10
335.047404
 20
108.845335
 30
0.0
 11
336.804683
 21
115.842214
 31
0.0
  0
LINE
  5
112
100
AcDbEntity
  8
0
 62
1
100
AcDbLine
 10
336.804683
 20
115.842214
 30
0.0
 11
338.184393
 21
122.884954
 31
0.0
  0
LINE
  5
113
100
AcDbEntity
  8
0
 62
1
100
AcDbLine
 10
338.184393
 20
122.884954
 30
0.0
 11
339.186123
 21
129.950984
 31
0.0
  0
LINE
  5
114
100
AcDbEntity
  8
0
 62
1
100
AcDbLine
 10
339.186123
 20
129.950984
 30
0.0
 11
339.811213
 21
137.017863
 31
0.0
  0
LINE
  5
115
100
AcDbEntity
  8
0
 62
1
100
AcDbLine
 10
339.811213
 20
137.017863
 30
0.0
 11
340.062713
 21
144.063523
 31
0.0
  0
LINE
  5
116
100
AcDbEntity
  8
0
 62
1
100
AcDbLine
 10
340.062713
 20
144.063523
 30
0.0
 11
339.945393
 21
151.066373
 31
0.0
  0
LINE
  5
117
100
AcDbEntity
  8
0
 62
1
100
AcDbLine
 10
339.945393
 20
151.066373
 30
0.0
 11
339.465643
 21
158.005452
 31
0.0
  0
LINE
  5
118
100
AcDbEntity
  8
0
 62
1
100
AcDbLine
 10
339.465643
 20
158.005452
 30
0.0
 11
338.631473
 21
164.860642
 31
0.0
  0
LINE
  5
119
100
AcDbEntity
  8
0
 62
1
100
AcDbLine
 10
338.631473
 20
164.860642
 30
0.0
 11
337.452413
 21
171.612732
 31
0.0
  0
LINE
  5
11a
100
AcDbEntity
  8
0
 62
1
100
AcDbLine
 10
337.452413
 20
171.612732
 30
0.0
 11
335.939394
 21
178.243651
 31
0.0
  0
LINE
  5
11b
100
AcDbEntity
  8
0
 62
1
100
AcDbLine
 10
335.939394
 20
178.243651
 30
0.0
 11
334.104684
 21
184.736531
 31
0.0
  0
LINE
  5
11c
100
AcDbEntity
  8
0
 62
1
100
AcDbLine
 10
334.104684
 20
184.736531
 30
0.0
 11
331.961704
 21
191.075851
 31
0.0
  0
LINE
  5
11d
100
AcDbEntity
  8
0
 62
1
100
AcDbLine
 10
331.961704
 20
191.075851
 30
0.0
 11
329.524904
 21
197.247550
 31
0.0
  0
LINE
  5
11e
100
AcDbEntity
  8
0
 62
1
100
AcDbLine
 10
329.524904
 20
197.247550
 30
0.0
 11
326.809654
 21
203.239120
 31
0.0
  0
LINE
  5
11f
100
AcDbEntity
  8
0
 62
1
100
AcDbLine
 10
326.809654
 20
203.239120
 30
0.0
 11
323.831994
 21
209.039630
 31
0.0
  0
LINE
  5
120
100
AcDbEntity
  8
0
 62
1
100
AcDbLine
 10
323.831994
 20
209.039630
 30
0.0
 11
320.608504
 21
214.639819
 31
0.0
  0
LINE
  5
121
100
AcDbEntity
  8
0
 62
1
100
AcDbLine
 10
320.608504
 20
214.639819
 30
0.0
 11
317.156104
 21
220.032109
 31
0.0
  0
LINE
  5
122
100
AcDbEntity
  8
0
 62
1
100
AcDbLine
 10
317.156104
 20
220.032109
 30
0.0
 11
313.491875
 21
225.210559
 31
0.0
  0
LINE
  5
123
100
AcDbEntity
  8
0
 62
1
100
AcDbLine
 10
313.491875
 20
225.210559
 30
0.0
 11
309.632835
 21
230.170899
 31
0.0
  0
LINE
  5
124
100
AcDbEntity
  8
0
 62
1
100
AcDbLine
 10
309.632835
 20
230.170899
 30
0.0
 11
305.595805
 21
234.910418
 31
0.0
  0
LINE
  5
125
100
AcDbEntity
  8
0
 62
1
100
AcDbLine
 10
305.595805
 20
234.910418
 30
0.0
 11
301.397175
 21
239.427908
 31
0.0
  0
LINE
  5
126
100
AcDbEntity
  8
0
 62
1
100
AcDbLine
 10
301.397175
 20
239.427908
 30
0.0
 11
297.052755
 21
243.723538
 31
0.0
  0
LINE
  5
127
100
AcDbEntity
  8
0
 62
1
100
AcDbLine
 10
297.052755
 20
243.723538
 30
0.0
 11
292.577616
 21
247.798748
 31
0.0
  0
LINE
  5
128
100
AcDbEntity
  8
0
 62
1
100
AcDbLine
 10
292.577616
 20
247.798748
 30
0.0
 11
287.985916
 21
251.656038
 31
0.0
  0
LINE
  5
129
100
AcDbEntity
  8
0
 62
1
100
AcDbLine
 10
287.985916
 20
251.656038
 30
0.0
 11
283.290826
 21
255.298827
 31
0.0
  0
LINE
  5
12a
100
AcDbEntity
  8
0
 62
1
100
AcDbLine
 10
283.290826
 20
255.298827
 30
0.0
 11
278.504356
 21
258.731237
 31
0.0
  0
LINE
  5
12b
100
AcDbEntity
  8
0
 62
1
100
AcDbLine
 10
278.504356
 20
258.731237
 30
0.0
 11
273.637347
 21
261.957887
 31
0.0
  0
LINE
  5
12c
100
AcDbEntity
  8
0
 62
1
100
AcDbLine
 10
273.637347
 20
261.957887
 30
0.0
 11
268.699357
 21
264.983667
 31
0.0
  0
LINE
  5
12d
100
AcDbEntity
  8
0
 62
1
100
AcDbLine
 10
268.699357
 20
264.983667
 30
0.0
 11
263.698677
 21
267.813477
 31
0.0
  0
LINE
  5
12e
100
AcDbEntity
  8
0
 62
1
100
AcDbLine
 10
263.698677
 20
267.813477
 30
0.0
 11
258.642287
 21
270.452067
 31
0.0
  0
LINE
  5
12f
100
AcDbEntity
  8
0
 62
1
100
AcDbLine
 10
258.642287
 20
270.452067
 30
0.0
 11
253.535948
 21
272.903717
 31
0.0
  0
LINE
  5
130
100
AcDbEntity
  8
0
 62
1
100
AcDbLine
 10
253.535948
 20
272.903717
 30
0.0
 11
248.384188
 21
275.172117
 31
0.0
  0
LINE
  5
131
100
AcDbEntity
  8
0
 62
1
100
AcDbLine
 10
248.384188
 20
275.172117
 30
0.0
 11
243.190488
 21
277.260126
 31
0.0
  0
LINE
  5
132
100
AcDbEntity
  8
0
 62
1
100
AcDbLine
 10
243.190488
 20
277.260126
 30
0.0
 11
237.957338
 21
279.169626
 31
0.0
  0
LINE
  5
133
100
AcDbEntity
  8
0
 62
1
100
AcDbLine
 10
237.957338
 20
279.169626
 30
0.0
 11
232.686409
 21
280.901396
 31
0.0
  0
LINE
  5
134
100
AcDbEntity
  8
0
 62
1
100
AcDbLine
 10
232.686409
 20
280.901396
 30
0.0
 11
227.378759
 21
282.455036
 31
0.0
  0
LINE
  5
135
100
AcDbEntity
  8
0
 62
1
100
AcDbLine
 10
227.378759
 20
282.455036
 30
0.0
 11
222.034989
 21
283.828906
 31
0.0
  0
LINE
  5
136
100
AcDbEntity
  8
0
 62
1
100
AcDbLine
 10
222.034989
 20
283.828906
 30
0.0
 11
216.655519
 21
285.020176
 31
0.0
  0
LINE
  5
137
100
AcDbEntity
  8
0
 62
1
100
AcDbLine
 10
216.655519
 20
285.020176
 30
0.0
 11
211.240750
 21
286.024866
 31
0.0
  0
LINE
  5
138
100
AcDbEntity
  8
0
 62
1
100
AcDbLine
 10
211.240750
 20
286.024866
 30
0.0
 11
205.791310
 21
286.837966
 31
0.0
  0
LINE
  5
139
100
AcDbEntity
  8
0
 62
1
100
AcDbLine
 10
205.791310
 20
286.837966
 30
0.0
 11
200.308270
 21
287.453566
 31
0.0
  0
LINE
  5
13a
100
AcDbEntity
  8
0
 62
1
100
AcDbLine
 10
200.308270
 20
287.453566
 30
0.0
 11
194.793320
 21
287.865056
 31
0.0
  0
LINE
  5
13b
100
AcDbEntity
  8
0
 62
1
100
AcDbLine
 10
194.793320
 20
287.865056
 30
0.0
 11
189.248911
 21
288.065286
 31
0.0
  0
LINE
  5
13c
100
AcDbEntity
  8
0
 62
1
100
AcDbLine
 10
189.248911
 20
288.065286
 30
0.0
 11
183.678421
 21
288.046786
 31
0.0
  0
LINE
  5
13d
100
AcDbEntity
  8
0
 62
1
100
AcDbLine
 10
183.678421
 20
288.046786
 30
0.0
 11
178.086221
 21
287.801956
 31
0.0
  0
LINE
  5
13e
100
AcDbEntity
  8
0
 62
1
100
AcDbLine
 10
178.086221
 20
287.801956
 30
0.0
 11
172.477722
 21
287.323256
 31
0.0
  0
LINE
  5
13f
100
AcDbEntity
  8
0
 62
1
100
AcDbLine
 10
172.477722
 20
287.323256
 30
0.0
 11
166.859422
 21
286.603396
 31
0.0
  0
LINE
  5
140
100
AcDbEntity
  8
0
 62
1
100
AcDbLine
 10
166.859422
 20
286.603396
 30
0.0
 11
161.238912
 21
285.635456
 31
0.0
  0
LINE
  5
141
100
AcDbEntity
  8
0
 62
1
100
AcDbLine
 10
161.238912
 20
285.635456
 30
0.0
 11
155.624792
 21
284.413056
 31
0.0
  0
LINE
  5
142
100
AcDbEntity
  8
0
 62
1
100
AcDbLine
 10
155.624792
 20
284.413056
 30
0.0
 11
150.026693
 21
282.930466
 31
0.0
  0
LINE
  5
143
100
AcDbEntity
  8
0
 62
1
100
AcDbLine
 10
150.026693
 20
282.930466
 30
0.0
 11
144.455133
 21
281.182696
 31
0.0
  0
LINE
  5
144
100
AcDbEntity
  8
0
 62
1
100
AcDbLine
 10
144.455133
 20
281.182696
 30
0.0
 11
138.921503
 21
279.165616
 31
0.0
  0
LINE
  5
145
100
AcDbEntity
  8
0
 62
1
100
AcDbLine
 10
138.921503
 20
279.165616
 30
0.0
 11
133.437953
 21
276.875966
 31
0.0
  0
LINE
  5
146
100
AcDbEntity
  8
0
 62
1
100
AcDbLine
 10
133.437953
 20
276.875966
 30
0.0
 11
128.017264
 21
274.311447
 31
0.0
  0
LINE
  5
147
100
AcDbEntity
  8
0
 62
1
100
AcDbLine
 10
128.017264
 20
274.311447
 30
0.0
 11
122.672824
 21
271.470777
 31
0.0
  0
LINE
  5
148
100
AcDbEntity
  8
0
 62
1
100
AcDbLine
 10
122.672824
 20
271.470777
 30
0.0
 11
117.418434
 21
268.353647
 31
0.0
  0
LINE
  5
149
100
AcDbEntity
  8
0
 62
1
100
AcDbLine
 10
117.418434
 20
268.353647
 30
0.0
 11
112.268314
 21
264.960837
 31
0.0
  0
LINE
  5
14a
100
AcDbEntity
  8
0
 62
1
100
AcDbLine
 10
112.268314
 20
264.960837
 30
0.0
 11
107.236925
 21
261.294137
 31
0.0
  0
LINE
  5
14b
100
AcDbEntity
  8
0
 62
1
100
AcDbLine
 10
107.236925
 20
261.294137
 30
0.0
 11
102.338905
 21
257.356397
 31
0.0
  0
LINE
  5
14c
100
AcDbEntity
  8
0
 62
1
100
AcDbLine
 10
102.338905
 20
257.356397
 30
0.0
 11
97.589015
 21
253.151518
 31
0.0
  0
LINE
  5
14d
100
AcDbEntity
  8
0
 62
1
100
AcDbLine
 10
97.589015
 20
253.151518
 30
0.0
 11
93.002004
 21
248.684428
 31
0.0
  0
LINE
  5
14e
100
AcDbEntity
  8
0
 62
1
100
AcDbLine
 10
93.002004
 20
248.684428
 30
0.0
 11
88.592568
 21
243.961088
 31
0.0
  0
LINE
  5
14f
100
AcDbEntity
  8
0
 62
1
100
AcDbLine
 10
88.592568
 20
243.961088
 30
0.0
 11
84.375259
 21
238.988468
 31
0.0
  0
LINE
  5
150
100
AcDbEntity
  8
0
 62
1
100
AcDbLine
 10
84.375259
 20
238.988468
 30
0.0
 11
80.364426
 21
233.774529
 31
0.0
  0
LINE
  5
151
100
AcDbEntity
  8
0
 62
1
100
AcDbLine
 10
80.364426
 20
233.774529
 30
0.0
 11
76.574143
 21
228.328219
 31
0.0
  0
LINE
  5
152
100
AcDbEntity
  8
0
 62
1
100
AcDbLine
 10
76.574143
 20
228.328219
 30
0.0
 11
73.018145
 21
222.659429
 31
0.0
  0
LINE
  5
153
100
AcDbEntity
  8
0
 62
1
100
AcDbLine
 10
73.018145
 20
222.659429
 30
0.0
 11
69.709771
 21
216.778999
 31
0.0
  0
LINE
  5
154
100
AcDbEntity
  8
0
 62
1
100
AcDbLine
 10
69.709771
 20
216.778999
 30
0.0
 11
66.661896
 21
210.698700
 31
0.0
  0
LINE
  5
155
100
AcDbEntity
  8
0
 62
1
100
AcDbLine
 10
66.661896
 20
210.698700
 30
0.0
 11
63.886879
 21
204.431190
 31
0.0
  0
LINE
  5
156
100
AcDbEntity
  8
0
 62
1
100
AcDbLine
 10
63.886879
 20
204.431190
 30
0.0
 11
61.396498
 21
197.989990
 31
0.0
  0
LINE
  5
157
100
AcDbEntity
  8
0
 62
1
100
AcDbLine
 10
61.396498
 20
197.989990
 30
0.0
 11
59.201897
 21
191.389501
 31
0.0
  0
LINE
  5
158
100
AcDbEntity
  8
0
 62
1
100
AcDbLine
 10
59.201897
 20
191.389501
 30
0.0
 11
57.313519
 21
184.644921
 31
0.0
  0
LINE
  5
159
100
AcDbEntity
  8
0
 62
1
100
AcDbLine
 10
57.313519
 20
184.644921
 30
0.0
 11
55.741050
 21
177.772231
 31
0.0
  0
LINE
  5
15a
100
AcDbEntity
  8
0
 62
1
100
AcDbLine
 10
55.741050
 20
177.772231
 30
0.0
 11
54.493361
 21
170.788202
 31
0.0
  0
LINE
  5
15b
100
AcDbEntity
  8
0
 62
1
100
AcDbLine
 10
54.493361
 20
170.788202
 30
0.0
 11
53.578445
 21
163.710282
 31
0.0
  0
LINE
  5
15c
100
AcDbEntity
  8
0
 62
1
100
AcDbLine
 10
53.578445
 20
163.710282
 30
0.0
 11
53.003358
 21
156.556612
 31
0.0
  0
LINE
  5
15d
100
AcDbEntity
  8
0
 62
1
100
AcDbLine
 10
53.003358
 20
156.556612
 30
0.0
 11
52.774163
 21
149.345953
 31
0.0
  0
LINE
  5
15e
100
AcDbEntity
  8
0
 62
1
100
AcDbLine
 10
52.774163
 20
149.345953
 30
0.0
 11
52.895869
 21
142.097623
 31
0.0
  0
LINE
  5
15f
100
AcDbEntity
  8
0
 62
1
100
AcDbLine
 10
52.895869
 20
142.097623
 30
0.0
 11
53.372382
 21
134.831443
 31
0.0
  0
LINE
  5
160
100
AcDbEntity
  8
0
 62
1
100
AcDbLine
 10
53.372382
 20
134.831443
 30
0.0
 11
54.206447
 21
127.567684
 31
0.0
  0
LINE
  5
161
100
AcDbEntity
  8
0
 62
1
100
AcDbLine
 10
54.206447
 20
127.567684
 30
0.0
 11
55.399602
 21
120.326984
 31
0.0
  0
LINE
  5
162
100
AcDbEntity
  8
0
 62
1
100
AcDbLine
 10
55.399602
 20
120.326984
 30
0.0
 11
56.952135
 21
113.130254
 31
0.0
  0
LINE
  5
163
100
AcDbEntity
  8
0
 62
1
100
AcDbLine
 10
56.952135
 20
113.130254
 30
0.0
 11
57.862906
 21
109.554975
 31
0.0
  0
LINE
  5
164
100
AcDbEntity
  8
0
 62
1
100
AcDbLine
 10
55.337913
 20
94.597555
 30
0.0
 11
52.812919
 21
79.640136
 31
0.0
  0
LINE
  5
165
100
AcDbEntity
  8
0
 62
1
100
AcDbLine
 10
52.812919
 20
79.640136
 30
0.0
 11
50.287927
 21
64.682727
 31
0.0
  0
SPLINE
  5
166
100
AcDbEntity
  8
0
 62
1
100
AcDbSpline
 70
0
 71
3
 72
10
 73
6
 74
4
 40
0.000000
 40
0.000000
 40
0.000000
 40
0.000000
 40
14.895948
 40
19.039658
 40
24.609002
 40
24.609002
 40
24.609002
 40
24.609002
 10
57.862906
 20
109.554975
 30
0.0
 10
59.674447
 20
105.314696
 30
0.0
 10
61.989917
 20
99.894870
 30
0.0
 10
59.848308
 20
88.942531
 30
0.0
 10
56.981631
 20
92.536702
 30
0.0
 10
55.337913
 20
94.597555
 30
0.0
 11
57.862906
 21
109.554975
 31
0.0
 11
60.866045
 21
94.964895
 31
0.0
 11
59.604484
 21
91.017896
 31
0.0
 11
55.337913
 21
94.597555
 31
0.0
  0
LINE
  5
167
100
AcDbEntity
  8
0
 62
1
100
AcDbLine
 10
47.762934
 20
49.725308
 30
0.0
 11
45.341185
 21
53.575367
 31
0.0
  0
LINE
  5
168
100
AcDbEntity
  8
0
 62
1
100
AcDbLine
 10
45.341185
 20
53.575367
 30
0.0
 11
40.790024
 21
61.435907
 31
0.0
  0
LINE
  5
169
100
AcDbEntity
  8
0
 62
1
100
AcDbLine
 10
40.790024
 20
61.435907
 30
0.0
 11
36.635888
 21
69.491237
 31
0.0
  0
LINE
  5
16a
100
AcDbEntity
  8
0
 62
1
100
AcDbLine
 10
36.635888
 20
69.491237
 30
0.0
 11
32.886309
 21
77.718226
 31
0.0
  0
LINE
  5
16b
100
AcDbEntity
  8
0
 62
1
100
AcDbLine
 10
32.886309
 20
77.718226
 30
0.0
 11
29.547507
 21
86.093576
 31
0.0
  0
LINE
  5
16c
100
AcDbEntity
  8
0
 62
1
100
AcDbLine
 10
29.547507
 20
86.093576
 30
0.0
 11
26.624409
 21
94.593885
 31
0.0
  0
LINE
  5
16d
100
AcDbEntity
  8
0
 62
1
100
AcDbLine
 10
26.624409
 20
94.593885
 30
0.0
 11
24.120669
 21
103.195685
 31
0.0
  0
LINE
  5
16e
100
AcDbEntity
  8
0
 62
1
100
AcDbLine
 10
24.120669
 20
103.195685
 30
0.0
 11
22.038686
 21
111.875525
 31
0.0
  0
LINE
  5
16f
100
AcDbEntity
  8
0
 62
1
100
AcDbLine
 10
22.038686
 20
111.875525
 30
0.0
 11
20.379622
 21
120.610004
 31
0.0
  0
LINE
  5
170
100
AcDbEntity
  8
0
 62
1
100
AcDbLine
 10
20.379622
 20
120.610004
 30
0.0
 11
19.143419
 21
129.375824
 31
0.0
  0
LINE
  5
171
100
AcDbEntity
  8
0
 62
1
100
AcDbLine
 10
19.143419
 20
129.375824
 30
0.0
 11
18.328806
 21
138.149853
 31
0.0
  0
LINE
  5
172
100
AcDbEntity
  8
0
 62
1
100
AcDbLine
 10
18.328806
 20
138.149853
 30
0.0
 11
17.933320
 21
146.909133
 31
0.0
  0
LINE
  5
173
100
AcDbEntity
  8
0
 62
1
100
AcDbLine
 10
17.933320
 20
146.909133
 30
0.0
 11
17.953310
 21
155.630962
 31
0.0
  0
LINE
  5
174
100
AcDbEntity
  8
0
 62
1
100
AcDbLine
 10
17.953310
 20
155.630962
 30
0.0
 11
18.383930
 21
164.292922
 31
0.0
  0
LINE
  5
175
100
AcDbEntity
  8
0
 62
1
100
AcDbLine
 10
18.383930
 20
164.292922
 30
0.0
 11
19.219171
 21
172.872962
 31
0.0
  0
LINE
  5
176
100
AcDbEntity
  8
0
 62
1
100
AcDbLine
 10
19.219171
 20
172.872962
 30
0.0
 11
20.451847
 21
181.349421
 31
0.0
  0
LINE
  5
177
100
AcDbEntity
  8
0
 62
1
100
AcDbLine
 10
20.451847
 20
181.349421
 30
0.0
 11
22.073606
 21
189.701091
 31
0.0
  0
LINE
  5
178
100
AcDbEntity
  8
0
 62
1
100
AcDbLine
 10
22.073606
 20
189.701091
 30
0.0
 11
24.074938
 21
197.907310
 31
0.0
  0
LINE
  5
179
100
AcDbEntity
  8
0
 62
1
100
AcDbLine
 10
24.074938
 20
197.907310
 30
0.0
 11
26.445186
 21
205.948040
 31
0.0
  0
LINE
  5
17a
100
AcDbEntity
  8
0
 62
1
100
AcDbLine
 10
26.445186
 20
205.948040
 30
0.0
 11
29.172570
 21
213.803920
 31
0.0
  0
LINE
  5
17b
100
AcDbEntity
  8
0
 62
1
100
AcDbLine
 10
29.172570
 20
213.803920
 30
0.0
 11
32.244206
 21
221.456409
 31
0.0
  0
LINE
  5
17c
100
AcDbEntity
  8
0
 62
1
100
AcDbLine
 10
32.244206
 20
221.456409
 30
0.0
 11
35.646157
 21
228.887839
 31
0.0
  0
LINE
  5
17d
100
AcDbEntity
  8
0
 62
1
100
AcDbLine
 10
35.646157
 20
228.887839
 30
0.0
 11
39.363473
 21
236.081528
 31
0.0
  0
LINE
  5
17e
100
AcDbEntity
  8
0
 62
1
100
AcDbLine
 10
39.363473
 20
236.081528
 30
0.0
 11
43.380265
 21
243.021938
 31
0.0
  0
LINE
  5
17f
100
AcDbEntity
  8
0
 62
1
100
AcDbLine
 10
43.380265
 20
243.021938
 30
0.0
 11
47.679790
 21
249.694738
 31
0.0
  0
LINE
  5
180
100
AcDbEntity
  8
0
 62
1
100
AcDbLine
 10
47.679790
 20
249.694738
 30
0.0
 11
52.244556
 21
256.086917
 31
0.0
  0
LINE
  5
181
100
AcDbEntity
  8
0
 62
1
100
AcDbLine
 10
52.244556
 20
256.086917
 30
0.0
 11
57.056445
 21
262.186967
 31
0.0
  0
LINE
  5
182
100
AcDbEntity
  8
0
 62
1
100
AcDbLine
 10
57.056445
 20
262.186967
 30
0.0
 11
62.096861
 21
267.984897
 31
0.0
  0
LINE
  5
183
100
AcDbEntity
  8
0
 62
1
100
AcDbLine
 10
62.096861
 20
267.984897
 30
0.0
 11
67.346894
 21
273.472397
 31
0.0
  0
LINE
  5
184
100
AcDbEntity
  8
0
 62
1
100
AcDbLine
 10
67.346894
 20
273.472397
 30
0.0
 11
72.787507
 21
278.642906
 31
0.0
  0
LINE
  5
185
100
AcDbEntity
  8
0
 62
1
100
AcDbLine
 10
72.787507
 20
278.642906
 30
0.0
 11
78.399744
 21
283.491666
 31
0.0
  0
LINE
  5
186
100
AcDbEntity
  8
0
 62
1
100
AcDbLine
 10
78.399744
 20
283.491666
 30
0.0
 11
84.164939
 21
288.015776
 31
0.0
  0
LINE
  5
187
100
AcDbEntity
  8
0
 62
1
100
AcDbLine
 10
84.164939
 20
288.015776
 30
0.0
 11
90.064954
 21
292.214236
 31
0.0
  0
LINE
  5
188
100
AcDbEntity
  8
0
 62
1
100
AcDbLine
 10
90.064954
 20
292.214236
 30
0.0
 11
96.082404
 21
296.087895
 31
0.0
  0
LINE
  5
189
100
AcDbEntity
  8
0
 62
1
100
AcDbLine
 10
96.082404
 20
296.087895
 30
0.0
 11
102.200895
 21
299.639445
 31
0.0
  0
LINE
  5
18a
100
AcDbEntity
  8
0
 62
1
100
AcDbLine
 10
102.200895
 20
299.639445
 30
0.0
 11
108.405275
 21
302.873335
 31
0.0
  0
LINE
  5
18b
100
AcDbEntity
  8
0
 62
1
100
AcDbLine
 10
108.405275
 20
302.873335
 30
0.0
 11
114.681784
 21
305.795645
 31
0.0
  0
LINE
  5
18c
100
AcDbEntity
  8
0
 62
1
100
AcDbLine
 10
114.681784
 20
305.795645
 30
0.0
 11
121.018314
 21
308.413915
 31
0.0
  0
LINE
  5
18d
100
AcDbEntity
  8
0
 62
1
100
AcDbLine
 10
121.018314
 20
308.413915
 30
0.0
 11
127.404484
 21
310.736925
 31
0.0
  0
LINE
  5
18e
100
AcDbEntity
  8
0
 62
1
100
AcDbLine
 10
127.404484
 20
310.736925
 30
0.0
 11
133.831813
 21
312.774475
 31
0.0
  0
LINE
  5
18f
100
AcDbEntity
  8
0
 62
1
100
AcDbLine
 10
133.831813
 20
312.774475
 30
0.0
 11
140.293733
 21
314.537035
 31
0.0
  0
LINE
  5
190
100
AcDbEntity
  8
0
 62
1
100
AcDbLine
 10
140.293733
 20
314.537035
 30
0.0
 11
146.785593
 21
316.035405
 31
0.0
  0
LINE
  5
191
100
AcDbEntity
  8
0
 62
1
100
AcDbLine
 10
146.785593
 20
316.035405
 30
0.0
 11
153.304562
 21
317.280354
 31
0.0
  0
LINE
  5
192
100
AcDbEntity
  8
0
 62
1
100
AcDbLine
 10
153.304562
 20
317.280354
 30
0.0
 11
159.849482
 21
318.282204
 31
0.0
  0
LINE
  5
193
100
AcDbEntity
  8
0
 62
1
100
AcDbLine
 10
159.849482
 20
318.282204
 30
0.0
 11
166.420662
 21
319.050424
 31
0.0
  0
LINE
  5
194
100
AcDbEntity
  8
0
 62
1
100
AcDbLine
 10
166.420662
 20
319.050424
 30
0.0
 11
173.019582
 21
319.593244
 31
0.0
  0
LINE
  5
195
100
AcDbEntity
  8
0
 62
1
100
AcDbLine
 10
173.019582
 20
319.593244
 30
0.0
 11
179.648531
 21
319.917344
 31
0.0
  0
LINE
  5
196
100
AcDbEntity
  8
0
 62
1
100
AcDbLine
 10
179.648531
 20
319.917344
 30
0.0
 11
186.310291
 21
320.027534
 31
0.0
  0
LINE
  5
197
100
AcDbEntity
  8
0
 62
1
100
AcDbLine
 10
186.310291
 20
320.027534
 30
0.0
 11
193.007691
 21
319.926564
 31
0.0
  0
LINE
  5
198
100
AcDbEntity
  8
0
 62
1
100
AcDbLine
 10
193.007691
 20
319.926564
 30
0.0
 11
199.743260
 21
319.615024
 31
0.0
  0
LINE
  5
199
100
AcDbEntity
  8
0
 62
1
100
AcDbLine
 10
199.743260
 20
319.615024
 30
0.0
 11
206.518840
 21
319.091264
 31
0.0
  0
LINE
  5
19a
100
AcDbEntity
  8
0
 62
1
100
AcDbLine
 10
206.518840
 20
319.091264
 30
0.0
 11
213.335240
 21
318.351504
 31
0.0
  0
LINE
  5
19b
100
AcDbEntity
  8
0
 62
1
100
AcDbLine
 10
213.335240
 20
318.351504
 30
0.0
 11
220.191899
 21
317.389964
 31
0.0
  0
LINE
  5
19c
100
AcDbEntity
  8
0
 62
1
100
AcDbLine
 10
220.191899
 20
317.389964
 30
0.0
 11
227.086689
 21
316.199035
 31
0.0
  0
LINE
  5
19d
100
AcDbEntity
  8
0
 62
1
100
AcDbLine
 10
227.086689
 20
316.199035
 30
0.0
 11
234.015659
 21
314.769605
 31
0.0
  0
LINE
  5
19e
100
AcDbEntity
  8
0
 62
1
100
AcDbLine
 10
234.015659
 20
314.769605
 30
0.0
 11
240.972858
 21
313.091345
 31
0.0
  0
LINE
  5
19f
100
AcDbEntity
  8
0
 62
1
100
AcDbLine
 10
240.972858
 20
313.091345
 30
0.0
 11
247.950288
 21
311.153065
 31
0.0
  0
LINE
  5
1a0
100
AcDbEntity
  8
0
 62
1
100
AcDbLine
 10
247.950288
 20
311.153065
 30
0.0
 11
254.937788
 21
308.943065
 31
0.0
  0
LINE
  5
1a1
100
AcDbEntity
  8
0
 62
1
100
AcDbLine
 10
254.937788
 20
308.943065
 30
0.0
 11
261.923037
 21
306.449515
 31
0.0
  0
LINE
  5
1a2
100
AcDbEntity
  8
0
 62
1
100
AcDbLine
 10
261.923037
 20
306.449515
 30
0.0
 11
268.891647
 21
303.660845
 31
0.0
  0
LINE
  5
1a3
100
AcDbEntity
  8
0
 62
1
100
AcDbLine
 10
268.891647
 20
303.660845
 30
0.0
 11
275.827146
 21
300.566065
 31
0.0
  0
LINE
  5
1a4
100
AcDbEntity
  8
0
 62
1
100
AcDbLine
 10
275.827146
 20
300.566065
 30
0.0
 11
282.711206
 21
297.155135
 31
0.0
  0
LINE
  5
1a5
100
AcDbEntity
  8
0
 62
1
100
AcDbLine
 10
282.711206
 20
297.155135
 30
0.0
 11
289.523756
 21
293.419286
 31
0.0
  0
LINE
  5
1a6
100
AcDbEntity
  8
0
 62
1
100
AcDbLine
 10
289.523756
 20
293.419286
 30
0.0
 11
296.243155
 21
289.351266
 31
0.0
  0
LINE
  5
1a7
100
AcDbEntity
  8
0
 62
1
100
AcDbLine
 10
296.243155
 20
289.351266
 30
0.0
 11
302.846465
 21
284.945596
 31
0.0
  0
LINE
  5
1a8
100
AcDbEntity
  8
0
 62
1
100
AcDbLine
 10
302.846465
 20
284.945596
 30
0.0
 11
309.309665
 21
280.198806
 31
0.0
  0
LINE
  5
1a9
100
AcDbEntity
  8
0
 62
1
100
AcDbLine
 10
309.309665
 20
280.198806
 30
0.0
 11
315.607925
 21
275.109587
 31
0.0
  0
LINE
  5
1aa
100
AcDbEntity
  8
0
 62
1
100
AcDbLine
 10
315.607925
 20
275.109587
 30
0.0
 11
321.715854
 21
269.678897
 31
0.0
  0
LINE
  5
1ab
100
AcDbEntity
  8
0
 62
1
100
AcDbLine
 10
321.715854
 20
269.678897
 30
0.0
 11
327.607834
 21
263.910047
 31
0.0
  0
LINE
  5
1ac
100
AcDbEntity
  8
0
 62
1
100
AcDbLine
 10
327.607834
 20
263.910047
 30
0.0
 11
333.258234
 21
257.808767
 31
0.0
  0
LINE
  5
1ad
100
AcDbEntity
  8
0
 62
1
100
AcDbLine
 10
333.258234
 20
257.808767
 30
0.0
 11
338.641723
 21
251.383198
 31
0.0
  0
LINE
  5
1ae
100
AcDbEntity
  8
0
 62
1
100
AcDbLine
 10
338.641723
 20
251.383198
 30
0.0
 11
343.733523
 21
244.643828
 31
0.0
  0
LINE
  5
1af
100
AcDbEntity
  8
0
 62
1
100
AcDbLine
 10
343.733523
 20
244.643828
 30
0.0
 11
348.509663
 21
237.603468
 31
0.0
  0
LINE
  5
1b0
100
AcDbEntity
  8
0
 62
1
100
AcDbLine
 10
348.509663
 20
237.603468
 30
0.0
 11
352.947203
 21
230.277119
 31
0.0
  0
LINE
  5
1b1
100
AcDbEntity
  8
0
 62
1
100
AcDbLine
 10
352.947203
 20
230.277119
 30
0.0
 11
355.032173
 21
226.511969
 31
0.0
  0
LINE
  5
1b2
100
AcDbEntity
  8
0
 62
1
100
AcDbLine
 10
355.032173
 20
226.511969
 30
0.0
 11
357.024482
 21
222.681879
 31
0.0
  0
LINE
  5
1b3
100
AcDbEntity
  8
0
 62
1
100
AcDbLine
 10
357.024482
 20
222.681879
 30
0.0
 11
358.921632
 21
218.789299
 31
0.0
  0
LINE
  5
1b4
100
AcDbEntity
  8
0
 62
1
100
AcDbLine
 10
358.921632
 20
218.789299
 30
0.0
 11
360.721242
 21
214.836769
 31
0.0
  0
LINE
  5
1b5
100
AcDbEntity
  8
0
 62
1
100
AcDbLine
 10
360.721242
 20
214.836769
 30
0.0
 11
362.421052
 21
210.826940
 31
0.0
  0
LINE
  5
1b6
100
AcDbEntity
  8
0
 62
1
100
AcDbLine
 10
362.421052
 20
210.826940
 30
0.0
 11
364.018892
 21
206.762560
 31
0.0
  0
LINE
  5
1b7
100
AcDbEntity
  8
0
 62
1
100
AcDbLine
 10
364.018892
 20
206.762560
 30
0.0
 11
365.512692
 21
202.646480
 31
0.0
  0
LINE
  5
1b8
100
AcDbEntity
  8
0
 62
1
100
AcDbLine
 10
365.512692
 20
202.646480
 30
0.0
 11
366.900542
 21
198.481630
 31
0.0
  0
LINE
  5
1b9
100
AcDbEntity
  8
0
 62
1
100
AcDbLine
 10
366.900542
 20
198.481630
 30
0.0
 11
368.180622
 21
194.271010
 31
0.0
  0
LINE
  5
1ba
100
AcDbEntity
  8
0
 62
1
100
AcDbLine
 10
368.180622
 20
194.271010
 30
0.0
 11
369.351242
 21
190.017731
 31
0.0
  0
LINE
  5
1bb
100
AcDbEntity
  8
0
 62
1
100
AcDbLine
 10
369.351242
 20
190.017731
 30
0.0
 11
370.410832
 21
185.724931
 31
0.0
  0
LINE
  5
1bc
100
AcDbEntity
  8
0
 62
1
100
AcDbLine
 10
370.410832
 20
185.724931
 30
0.0
 11
371.357952
 21
181.395821
 31
0.0
  0
LINE
  5
1bd
100
AcDbEntity
  8
0
 62
1
100
AcDbLine
 10
371.357952
 20
181.395821
 30
0.0
 11
372.191322
 21
177.033691
 31
0.0
  0
LINE
  5
1be
100
AcDbEntity
  8
0
 62
1
100
AcDbLine
 10
372.191322
 20
177.033691
 30
0.0
 11
372.909742
 21
172.641862
 31
0.0
  0
LINE
  5
1bf
100
AcDbEntity
  8
0
 62
1
100
AcDbLine
 10
372.909742
 20
172.641862
 30
0.0
 11
373.512172
 21
168.223682
 31
0.0
  0
LINE
  5
1c0
100
AcDbEntity
  8
0
 62
1
100
AcDbLine
 10
373.512172
 20
168.223682
 30
0.0
 11
373.997702
 21
163.782572
 31
0.0
  0
LINE
  5
1c1
100
AcDbEntity
  8
0
 62
1
100
AcDbLine
 10
373.997702
 20
163.782572
 30
0.0
 11
374.365562
 21
159.321962
 31
0.0
  0
LINE
  5
1c2
100
AcDbEntity
  8
0
 62
1
100
AcDbLine
 10
374.365562
 20
159.321962
 30
0.0
 11
374.615092
 21
154.845302
 31
0.0
  0
LINE
  5
1c3
100
AcDbEntity
  8
0
 62
1
100
AcDbLine
 10
374.615092
 20
154.845302
 30
0.0
 11
374.745792
 21
150.356063
 31
0.0
  0
LINE
  5
1c4
100
AcDbEntity
  8
0
 62
1
100
AcDbLine
 10
374.745792
 20
150.356063
 30
0.0
 11
374.757292
 21
145.857743
 31
0.0
  0
LINE
  5
1c5
100
AcDbEntity
  8
0
 62
1
100
AcDbLine
 10
374.757292
 20
145.857743
 30
0.0
 11
374.649302
 21
141.353843
 31
0.0
  0
LINE
  5
1c6
100
AcDbEntity
  8
0
 62
1
100
AcDbLine
 10
374.649302
 20
141.353843
 30
0.0
 11
374.421712
 21
136.847853
 31
0.0
  0
LINE
  5
1c7
100
AcDbEntity
  8
0
 62
1
100
AcDbLine
 10
374.421712
 20
136.847853
 30
0.0
 11
374.074542
 21
132.343264
 31
0.0
  0
LINE
  5
1c8
100
AcDbEntity
  8
0
 62
1
100
AcDbLine
 10
374.074542
 20
132.343264
 30
0.0
 11
373.607912
 21
127.843554
 31
0.0
  0
LINE
  5
1c9
100
AcDbEntity
  8
0
 62
1
100
AcDbLine
 10
373.607912
 20
127.843554
 30
0.0
 11
373.022082
 21
123.352204
 31
0.0
  0
LINE
  5
1ca
100
AcDbEntity
  8
0
 62
1
100
AcDbLine
 10
373.022082
 20
123.352204
 30
0.0
 11
372.317432
 21
118.872654
 31
0.0
  0
LINE
  5
1cb
100
AcDbEntity
  8
0
 62
1
100
AcDbLine
 10
372.317432
 20
118.872654
 30
0.0
 11
371.494472
 21
114.408344
 31
0.0
  0
LINE
  5
1cc
100
AcDbEntity
  8
0
 62
1
100
AcDbLine
 10
371.494472
 20
114.408344
 30
0.0
 11
370.553802
 21
109.962655
 31
0.0
  0
LINE
  5
1cd
100
AcDbEntity
  8
0
 62
1
100
AcDbLine
 10
370.553802
 20
109.962655
 30
0.0
 11
369.496172
 21
105.538945
 31
0.0
  0
LINE
  5
1ce
100
AcDbEntity
  8
0
 62
1
100
AcDbLine
 10
369.496172
 20
105.538945
 30
0.0
 11
368.322422
 21
101.140565
 31
0.0
  0
LINE
  5
1cf
100
AcDbEntity
  8
0
 62
1
100
AcDbLine
 10
368.322422
 20
101.140565
 30
0.0
 11
367.033512
 21
96.770785
 31
0.0
  0
LINE
  5
1d0
100
AcDbEntity
  8
0
 62
1
100
AcDbLine
 10
367.033512
 20
96.770785
 30
0.0
 11
365.630492
 21
92.432845
 31
0.0
  0
LINE
  5
1d1
100
AcDbEntity
  8
0
 62
1
100
AcDbLine
 10
365.630492
 20
92.432845
 30
0.0
 11
364.114542
 21
88.129946
 31
0.0
  0
LINE
  5
1d2
100
AcDbEntity
  8
0
 62
1
100
AcDbLine
 10
364.114542
 20
88.129946
 30
0.0
 11
362.486922
 21
83.865226
 31
0.0
  0
LINE
  5
1d3
100
AcDbEntity
  8
0
 62
1
100
AcDbLine
 10
362.486922
 20
83.865226
 30
0.0
 11
360.749002
 21
79.641776
 31
0.0
  0
LINE
  5
1d4
100
AcDbEntity
  8
0
 62
1
100
AcDbLine
 10
360.749002
 20
79.641776
 30
0.0
 11
358.902232
 21
75.462606
 31
0.0
  0
LINE
  5
1d5
100
AcDbEntity
  8
0
 62
1
100
AcDbLine
 10
358.902232
 20
75.462606
 30
0.0
 11
356.948183
 21
71.330707
 31
0.0
  0
LINE
  5
1d6
100
AcDbEntity
  8
0
 62
1
100
AcDbLine
 10
356.948183
 20
71.330707
 30
0.0
 11
354.888473
 21
67.248977
 31
0.0
  0
LINE
  5
1d7
100
AcDbEntity
  8
0
 62
1
100
AcDbLine
 10
354.888473
 20
67.248977
 30
0.0
 11
352.724833
 21
63.220257
 31
0.0
  0
LINE
  5
1d8
100
AcDbEntity
  8
0
 62
1
100
AcDbLine
 10
352.724833
 20
63.220257
 30
0.0
 11
350.459063
 21
59.247317
 31
0.0
  0
LINE
  5
1d9
100
AcDbEntity
  8
0
 62
1
100
AcDbLine
 10
350.459063
 20
59.247317
 30
0.0
 11
348.093043
 21
55.332867
 31
0.0
  0
LINE
  5
1da
100
AcDbEntity
  8
0
 62
1
100
AcDbLine
 10
348.093043
 20
55.332867
 30
0.0
 11
345.628733
 21
51.479537
 31
0.0
  0
LINE
  5
1db
100
AcDbEntity
  8
0
 62
1
100
AcDbLine
 10
345.628733
 20
51.479537
 30
0.0
 11
343.068163
 21
47.689888
 31
0.0
  0
LINE
  5
1dc
100
AcDbEntity
  8
0
 62
1
100
AcDbLine
 10
343.068163
 20
47.689888
 30
0.0
 11
340.413423
 21
43.966408
 31
0.0
  0
LINE
  5
1dd
100
AcDbEntity
  8
0
 62
1
100
AcDbLine
 10
340.413423
 20
43.966408
 30
0.0
 11
337.666663
 21
40.311508
 31
0.0
  0
LINE
  5
1de
100
AcDbEntity
  8
0
 62
1
100
AcDbLine
 10
337.666663
 20
40.311508
 30
0.0
 11
334.830104
 21
36.727528
 31
0.0
  0
LINE
  5
1df
100
AcDbEntity
  8
0
 62
1
100
AcDbLine
 10
334.830104
 20
36.727528
 30
0.0
 11
331.906024
 21
33.216718
 31
0.0
  0
LINE
  5
1e0
100
AcDbEntity
  8
0
 62
1
100
AcDbLine
 10
331.906024
 20
33.216718
 30
0.0
 11
328.896754
 21
29.781269
 31
0.0
  0
LINE
  5
1e1
100
AcDbEntity
  8
0
 62
1
100
AcDbLine
 10
328.896754
 20
29.781269
 30
0.0
 11
325.804684
 21
26.423269
 31
0.0
  0
LINE
  5
1e2
100
AcDbEntity
  8
0
 62
1
100
AcDbLine
 10
325.804684
 20
26.423269
 30
0.0
 11
322.632224
 21
23.144749
 31
0.0
  0
LINE
  5
1e3
100
AcDbEntity
  8
0
 62
1
100
AcDbLine
 10
322.632224
 20
23.144749
 30
0.0
 11
319.381864
 21
19.947649
 31
0.0
  0
LINE
  5
1e4
100
AcDbEntity
  8
0
 62
1
100
AcDbLine
 10
319.381864
 20
19.947649
 30
0.0
 11
316.056125
 21
16.833839
 31
0.0
  0
LINE
  5
1e5
100
AcDbEntity
  8
0
 62
1
100
AcDbLine
 10
316.056125
 20
16.833839
 30
0.0
 11
316.056125
 21
16.833839
 31
0.0
  0
LINE
  5
1e6
100
AcDbEntity
  8
0
 62
1
100
AcDbLine
 10
316.056125
 20
16.833839
 30
0.0
 11
300.887075
 21
16.833839
 31
0.0
  0
SPLINE
  5
1e7
100
AcDbEntity
  8
0
 62
1
100
AcDbSpline
 70
0
 71
3
 72
10
 73
6
 74
4
 40
0.000000
 40
0.000000
 40
0.000000
 40
0.000000
 40
7.437071
 40
17.966921
 40
24.425262
 40
24.425262
 40
24.425262
 40
24.425262
 10
50.287927
 20
64.682727
 30
0.0
 10
52.571545
 20
63.463562
 30
0.0
 10
58.088446
 20
60.518232
 30
0.0
 10
56.485151
 20
47.664797
 30
0.0
 10
50.165466
 20
49.157740
 30
0.0
 10
47.762934
 20
49.725308
 30
0.0
 11
50.287927
 21
64.682727
 31
0.0
 11
55.991449
 21
59.909902
 31
0.0
 11
54.218333
 21
49.530413
 31
0.0
 11
47.762934
 21
49.725308
 31
0.0
  0
LINE
  5
1e8
100
AcDbEntity
  8
0
 62
1
100
AcDbLine
 10
270.548967
 20
16.833839
 30
0.0
 11
255.379917
 21
16.833839
 31
0.0
  0
SPLINE
  5
1e9
100
AcDbEntity
  8
0
 62
1
100
AcDbSpline
 70
0
 71
3
 72
10
 73
6
 74
4
 40
0.000000
 40
0.000000
 40
0.000000
 40
0.000000
 40
9.802187
 40
26.020216
 40
35.677640
 40
35.677640
 40
35.677640
 40
35.677640
 10
300.887075
 20
16.833839
 30
0.0
 10
298.786937
 20
14.220724
 30
0.0
 10
293.212054
 20
7.284129
 30
0.0
 10
278.356958
 20
7.682972
 30
0.0
 10
272.671088
 20
14.346739
 30
0.0
 10
270.548967
 20
16.833839
 30
0.0
 11
300.887075
 21
16.833839
 31
0.0
 11
293.840315
 21
10.020173
 31
0.0
 11
277.624067
 21
10.260499
 31
0.0
 11
270.548967
 21
16.833839
 31
0.0
  0
LINE
  5
1ea
100
AcDbEntity
  8
0
 62
7
100
AcDbLine
 10
231.473149
 20
296.172425
 30
0.0
 11
233.447759
 21
295.675846
 31
0.0
  0
SPLINE
  5
1eb
100
AcDbEntity
  8
0
 62
7
100
AcDbSpline
 70
0
 71
3
 72
16
 73
12
 74
10
 40
0.000000
 40
0.000000
 40
0.000000
 40
0.000000
 40
8.126356
 40
16.258162
 40
24.402658
 40
24.408066
 40
24.413474
 40
24.418882
 40
26.253856
 40
28.099684
 40
29.953080
 40
29.953080
 40
29.953080
 40
29.953080
 10
261.345687
 20
297.960075
 30
0.0
 10
258.636584
 20
297.947220
 30
0.0
 10
253.216562
 20
297.921499
 30
0.0
 10
245.090216
 20
297.564071
 30
0.0
 10
239.669537
 20
297.219475
 30
0.0
 10
236.969717
 20
296.901824
 30
0.0
 10
236.964351
 20
296.901157
 30
0.0
 10
236.354287
 20
296.821333
 30
0.0
 10
235.132739
 20
296.687475
 30
0.0
 10
233.304338
 20
296.441633
 30
0.0
 10
232.084377
 20
296.262284
 30
0.0
 10
231.473149
 20
296.172425
 30
0.0
 11
261.345687
 21
297.960075
 31
0.0
 11
253.219848
 21
297.868440
 31
0.0
 11
245.094767
 21
297.537778
 31
0.0
 11
236.975088
 21
296.902455
 31
0.0
 11
236.969718
 21
296.901818
 31
0.0
 11
236.964351
 21
296.901151
 31
0.0
 11
236.958988
 21
296.900455
 31
0.0
 11
235.137251
 21
296.680451
 31
0.0
 11
233.307386
 21
296.438230
 31
0.0
 11
231.473149
 21
296.172425
 31
0.0
  0
LINE
  5
1ec
100
AcDbEntity
  8
0
 62
7
100
AcDbLine
 10
233.448759
 20
295.675846
 30
0.0
 11
236.442898
 21
294.821846
 31
0.0
  0
SPLINE
  5
1ed
100
AcDbEntity
  8
0
 62
7
100
AcDbSpline
 70
0
 71
3
 72
10
 73
6
 74
4
 40
0.000000
 40
0.000000
 40
0.000000
 40
0.000000
 40
0.000333
 40
0.000667
 40
0.001000
 40
0.001000
 40
0.001000
 40
0.001000
 10
233.447759
 20
295.675846
 30
0.0
 10
233.447870
 20
295.675845
 30
0.0
 10
233.448092
 20
295.675843
 30
0.0
 10
233.448425
 20
295.675843
 30
0.0
 10
233.448647
 20
295.675845
 30
0.0
 10
233.448759
 20
295.675846
 30
0.0
 11
233.447759
 21
295.675846
 31
0.0
 11
233.448092
 21
295.675843
 31
0.0
 11
233.448425
 21
295.675843
 31
0.0
 11
233.448759
 21
295.675846
 31
0.0
  0
SPLINE
  5
1ee
100
AcDbEntity
  8
0
 62
7
100
AcDbSpline
 70
0
 71
3
 72
10
 73
6
 74
4
 40
0.000000
 40
0.000000
 40
0.000000
 40
0.000000
 40
0.249971
 40
0.500088
 40
0.749854
 40
0.749854
 40
0.749854
 40
0.749854
 10
236.442898
 20
294.821846
 30
0.0
 10
236.525607
 20
294.831949
 30
0.0
 10
236.691074
 20
294.852161
 30
0.0
 10
236.938933
 20
294.884457
 30
0.0
 10
237.104382
 20
294.904254
 30
0.0
 10
237.187048
 20
294.914146
 30
0.0
 11
236.442898
 21
294.821846
 31
0.0
 11
236.690984
 21
294.852486
 31
0.0
 11
236.939103
 21
294.884038
 31
0.0
 11
237.187048
 21
294.914146
 31
0.0
  0
SPLINE
  5
1ef
100
AcDbEntity
  8
0
 62
7
100
AcDbSpline
 70
0
 71
3
 72
10
 73
6
 74
4
 40
0.000000
 40
0.000000
 40
0.000000
 40
0.000000
 40
16.118130
 40
32.273867
 40
48.461450
 40
48.461450
 40
48.461450
 40
48.461450
 10
237.187048
 20
294.914146
 30
0.0
 10
242.547704
 20
295.306687
 30
0.0
 10
253.281522
 20
296.092686
 30
0.0
 10
269.446599
 20
295.928247
 30
0.0
 10
280.221847
 20
295.614589
 30
0.0
 10
285.614776
 20
295.457606
 30
0.0
 11
237.187048
 21
294.914146
 31
0.0
 11
253.276905
 21
295.868414
 31
0.0
 11
269.432639
 21
295.877477
 31
0.0
 11
285.614776
 21
295.457606
 31
0.0
  0
SPLINE
  5
1f0
100
AcDbEntity
  8
0
 62
7
100
AcDbSpline
 70
0
 71
3
 72
10
 73
6
 74
4
 40
0.000000
 40
0.000000
 40
0.000000
 40
0.000000
 40
1.020353
 40
2.150736
 40
3.067733
 40
3.067733
 40
3.067733
 40
3.067733
 10
285.614776
 20
295.457606
 30
0.0
 10
285.954697
 20
295.446039
 30
0.0
 10
286.671195
 20
295.421659
 30
0.0
 10
287.693155
 20
295.386135
 30
0.0
 10
288.375211
 20
295.362653
 30
0.0
 10
288.680696
 20
295.352136
 30
0.0
 11
285.614776
 21
295.457606
 31
0.0
 11
286.634535
 21
295.422788
 31
0.0
 11
287.764243
 21
295.383733
 31
0.0
 11
288.680696
 21
295.352136
 31
0.0
  0
LINE
  5
1f1
100
AcDbEntity
  8
0
 62
7
100
AcDbLine
 10
291.654326
 20
295.243736
 30
0.0
 11
292.653356
 21
295.208636
 31
0.0
  0
LINE
  5
1f2
100
AcDbEntity
  8
0
 62
7
100
AcDbLine
 10
292.653356
 20
295.208636
 30
0.0
 11
292.723656
 21
297.206685
 31
0.0
  0
LINE
  5
1f3
100
AcDbEntity
  8
0
 62
7
100
AcDbLine
 10
292.723656
 20
297.206685
 30
0.0
 11
291.726096
 21
297.241885
 31
0.0
  0
SPLINE
  5
1f4
100
AcDbEntity
  8
0
 62
7
100
AcDbSpline
 70
0
 71
3
 72
10
 73
6
 74
4
 40
0.000000
 40
0.000000
 40
0.000000
 40
0.000000
 40
1.065708
 40
2.187584
 40
2.975605
 40
2.975605
 40
2.975605
 40
2.975605
 10
288.680696
 20
295.352136
 30
0.0
 10
289.035699
 20
295.339273
 30
0.0
 10
289.764415
 20
295.312870
 30
0.0
 10
290.755614
 20
295.276416
 30
0.0
 10
291.391826
 20
295.253281
 30
0.0
 10
291.654326
 20
295.243736
 30
0.0
 11
288.680696
 21
295.352136
 31
0.0
 11
289.745701
 21
295.313454
 31
0.0
 11
290.866827
 21
295.272417
 31
0.0
 11
291.654326
 21
295.243736
 31
0.0
  0
LINE
  5
1f5
100
AcDbEntity
  8
0
 62
7
100
AcDbLine
 10
261.345097
 20
297.959655
 30
0.0
 11
261.345687
 21
297.960075
 31
0.0
  0
LINE
  5
1f6
100
AcDbEntity
  8
0
 62
7
100
AcDbLine
 10
142.923333
 20
296.304805
 30
0.0
 11
140.749503
 21
295.638296
 31
0.0
  0
SPLINE
  5
1f7
100
AcDbEntity
  8
0
 62
7
100
AcDbSpline
 70
0
 71
3
 72
22
 73
18
 74
16
 40
0.000000
 40
0.000000
 40
0.000000
 40
0.000000
 40
0.787534
 40
1.908745
 40
2.974146
 40
2.975146
 40
2.976146
 40
2.977146
 40
3.893475
 40
5.025766
 40
6.049267
 40
6.050267
 40
6.051267
 40
6.052267
 40
14.153562
 40
22.268445
 40
30.390742
 40
30.390742
 40
30.390742
 40
30.390742
 10
291.726096
 20
297.241885
 30
0.0
 10
291.463764
 20
297.251733
 30
0.0
 10
290.827950
 20
297.275601
 30
0.0
 10
289.837104
 20
297.304899
 30
0.0
 10
289.108726
 20
297.349859
 30
0.0
 10
288.752926
 20
297.350277
 30
0.0
 10
288.751926
 20
297.350277
 30
0.0
 10
288.445816
 20
297.349900
 30
0.0
 10
287.763323
 20
297.391982
 30
0.0
 10
286.739637
 20
297.412169
 30
0.0
 10
286.021449
 20
297.455345
 30
0.0
 10
285.679616
 20
297.455747
 30
0.0
 10
285.678616
 20
297.455747
 30
0.0
 10
282.977519
 20
297.452495
 30
0.0
 10
277.575825
 20
297.729800
 30
0.0
 10
269.464782
 20
297.894025
 30
0.0
 10
264.052482
 20
297.937772
 30
0.0
 10
261.345097
 20
297.959655
 30
0.0
 11
291.726096
 21
297.241885
 31
0.0
 11
290.939084
 21
297.270567
 31
0.0
 11
289.818624
 21
297.311601
 31
0.0
 11
288.753926
 21
297.350275
 31
0.0
 11
288.752926
 21
297.350276
 31
0.0
 11
288.751926
 21
297.350276
 31
0.0
 11
288.750926
 21
297.350275
 31
0.0
 11
287.835140
 21
297.381826
 31
0.0
 11
286.703522
 21
297.420881
 31
0.0
 11
285.680616
 21
297.455745
 31
0.0
 11
285.679616
 21
297.455746
 31
0.0
 11
285.678616
 21
297.455746
 31
0.0
 11
285.677616
 21
297.455745
 31
0.0
 11
277.579641
 21
297.687671
 31
0.0
 11
269.466979
 21
297.877537
 31
0.0
 11
261.345097
 21
297.959655
 31
0.0
  0
LINE
  5
1f8
100
AcDbEntity
  8
0
 62
7
100
AcDbLine
 10
142.984853
 20
278.427776
 30
0.0
 11
143.362783
 21
277.504926
 31
0.0
  0
LINE
  5
1f9
100
AcDbEntity
  8
0
 62
7
100
AcDbLine
 10
143.362783
 20
277.504926
 30
0.0
 11
145.214343
 21
278.263716
 31
0.0
  0
LINE
  5
1fa
100
AcDbEntity
  8
0
 62
7
100
AcDbLine
 10
145.214343
 20
278.263716
 30
0.0
 11
144.833493
 21
279.188036
 31
0.0
  0
SPLINE
  5
1fb
100
AcDbEntity
  8
0
 62
7
100
AcDbSpline
 70
0
 71
3
 72
16
 73
12
 74
10
 40
0.000000
 40
0.000000
 40
0.000000
 40
0.000000
 40
2.176553
 40
4.359074
 40
6.552140
 40
6.553140
 40
6.554141
 40
6.555141
 40
10.236442
 40
13.910218
 40
17.575715
 40
17.575715
 40
17.575715
 40
17.575715
 10
140.749503
 20
295.638296
 30
0.0
 10
140.641806
 20
294.920621
 30
0.0
 10
140.426116
 20
293.483304
 30
0.0
 10
140.314550
 20
291.296250
 30
0.0
 10
140.401959
 20
289.840101
 30
0.0
 10
140.439004
 20
289.108485
 30
0.0
 10
140.438910
 20
289.107486
 30
0.0
 10
140.491244
 20
287.879613
 30
0.0
 10
140.847812
 20
285.446432
 30
0.0
 10
141.681613
 20
281.861003
 30
0.0
 10
142.550766
 20
279.571324
 30
0.0
 10
142.984853
 20
278.427776
 30
0.0
 11
140.749503
 21
295.638296
 31
0.0
 11
140.461681
 21
293.480857
 31
0.0
 11
140.355008
 21
291.300945
 31
0.0
 11
140.438953
 21
289.109486
 31
0.0
 11
140.438980
 21
289.108486
 31
0.0
 11
140.438933
 21
289.107486
 31
0.0
 11
140.438953
 21
289.106486
 31
0.0
 11
140.898268
 21
285.453952
 31
0.0
 11
141.760885
 21
281.882884
 31
0.0
 11
142.984853
 21
278.427776
 31
0.0
  0
SPLINE
  5
1fc
100
AcDbEntity
  8
0
 62
7
100
AcDbSpline
 70
0
 71
3
 72
10
 73
6
 74
4
 40
0.000000
 40
0.000000
 40
0.000000
 40
0.000000
 40
3.470866
 40
6.934652
 40
10.388636
 40
10.388636
 40
10.388636
 40
10.388636
 10
144.833493
 20
279.188036
 30
0.0
 10
144.425230
 20
280.271120
 30
0.0
 10
143.609538
 20
282.435077
 30
0.0
 10
142.785272
 20
285.812264
 30
0.0
 10
142.551029
 20
288.108130
 30
0.0
 10
142.434073
 20
289.254436
 30
0.0
 11
144.833493
 21
279.188036
 31
0.0
 11
143.675210
 21
282.459930
 31
0.0
 11
142.863376
 21
285.827235
 31
0.0
 11
142.434073
 21
289.254436
 31
0.0
  0
SPLINE
  5
1fd
100
AcDbEntity
  8
0
 62
7
100
AcDbSpline
 70
0
 71
3
 72
10
 73
6
 74
4
 40
0.000000
 40
0.000000
 40
0.000000
 40
0.000000
 40
0.005951
 40
0.011903
 40
0.017854
 40
0.017854
 40
0.017854
 40
0.017854
 10
142.434073
 20
289.254436
 30
0.0
 10
142.433754
 20
289.256394
 30
0.0
 10
142.433115
 20
289.260310
 30
0.0
 10
142.432115
 20
289.266176
 30
0.0
 10
142.431420
 20
289.270083
 30
0.0
 10
142.431073
 20
289.272036
 30
0.0
 11
142.434073
 21
289.254436
 31
0.0
 11
142.433108
 21
289.260308
 31
0.0
 11
142.432108
 21
289.266175
 31
0.0
 11
142.431073
 21
289.272036
 31
0.0
  0
LINE
  5
1fe
100
AcDbEntity
  8
0
 62
7
100
AcDbLine
 10
142.923263
 20
296.304755
 30
0.0
 11
142.923333
 21
296.304805
 31
0.0
  0
LINE
  5
1ff
100
AcDbEntity
  8
0
 62
7
100
AcDbLine
 10
60.909664
 20
272.014767
 30
0.0
 11
59.260250
 21
270.883907
 31
0.0
  0
LINE
  5
200
100
AcDbEntity
  8
0
 62
7
100
AcDbLine
 10
59.260250
 20
270.883907
 30
0.0
 11
59.825680
 21
270.059197
 31
0.0
  0
SPLINE
  5
201
100
AcDbEntity
  8
0
 62
7
100
AcDbSpline
 70
0
 71
3
 72
10
 73
6
 74
4
 40
0.000000
 40
0.000000
 40
0.000000
 40
0.000000
 40
2.361863
 40
4.717862
 40
7.073397
 40
7.073397
 40
7.073397
 40
7.073397
 10
142.431073
 20
289.272036
 30
0.0
 10
142.390640
 20
290.058779
 30
0.0
 10
142.309875
 20
291.630311
 30
0.0
 10
142.482252
 20
293.989643
 30
0.0
 10
142.776269
 20
295.533102
 30
0.0
 10
142.923263
 20
296.304755
 30
0.0
 11
142.431073
 21
289.272036
 31
0.0
 11
142.358831
 21
291.632793
 31
0.0
 11
142.527072
 21
293.982778
 31
0.0
 11
142.923263
 21
296.304755
 31
0.0
  0
LINE
  5
202
100
AcDbEntity
  8
0
 62
7
100
AcDbLine
 10
74.931147
 20
252.656858
 30
0.0
 11
76.221677
 21
254.146598
 31
0.0
  0
SPLINE
  5
203
100
AcDbEntity
  8
0
 62
7
100
AcDbSpline
 70
0
 71
3
 72
10
 73
6
 74
4
 40
0.000000
 40
0.000000
 40
0.000000
 40
0.000000
 40
7.701237
 40
15.393782
 40
23.085686
 40
23.085686
 40
23.085686
 40
23.085686
 10
59.825680
 20
270.059197
 30
0.0
 10
61.327875
 20
267.976401
 30
0.0
 10
64.330570
 20
263.813161
 30
0.0
 10
69.401532
 20
258.006516
 30
0.0
 10
73.087993
 20
254.440027
 30
0.0
 10
74.931147
 20
252.656858
 30
0.0
 11
59.825680
 21
270.059197
 31
0.0
 11
64.427041
 21
263.883719
 31
0.0
 11
69.478464
 21
258.082135
 31
0.0
 11
74.931147
 21
252.656858
 31
0.0
  0
LINE
  5
204
100
AcDbEntity
  8
0
 62
7
100
AcDbLine
 10
61.475094
 20
271.190057
 30
0.0
 11
60.909664
 21
272.014767
 31
0.0
  0
SPLINE
  5
205
100
AcDbEntity
  8
0
 62
7
100
AcDbSpline
 70
0
 71
3
 72
10
 73
6
 74
4
 40
0.000000
 40
0.000000
 40
0.000000
 40
0.000000
 40
7.529701
 40
15.053536
 40
22.577689
 40
22.577689
 40
22.577689
 40
22.577689
 10
76.221677
 20
254.146598
 30
0.0
 10
74.421380
 20
255.896296
 30
0.0
 10
70.822187
 20
259.394329
 30
0.0
 10
65.874909
 20
265.083373
 30
0.0
 10
62.941720
 20
269.154467
 30
0.0
 10
61.475094
 20
271.190057
 30
0.0
 11
76.221677
 21
254.146598
 31
0.0
 11
70.896000
 21
259.469525
 31
0.0
 11
65.966016
 21
265.153129
 31
0.0
 11
61.475094
 21
271.190057
 31
0.0
  0
SPLINE
  5
206
100
AcDbEntity
  8
0
 62
7
100
AcDbSpline
 70
0
 71
3
 72
10
 73
6
 74
4
 40
0.000000
 40
0.000000
 40
0.000000
 40
0.000000
 40
3.807477
 40
7.621358
 40
11.384204
 40
11.384204
 40
11.384204
 40
11.384204
 10
279.114236
 20
265.821407
 30
0.0
 10
277.845071
 20
265.812279
 30
0.0
 10
275.304605
 20
265.794007
 30
0.0
 10
271.512117
 20
265.617671
 30
0.0
 10
268.998386
 20
265.370126
 30
0.0
 10
267.749987
 20
265.247187
 30
0.0
 11
279.114236
 21
265.821407
 31
0.0
 11
275.307118
 21
265.769120
 31
0.0
 11
271.497738
 21
265.583894
 31
0.0
 11
267.749987
 21
265.247187
 31
0.0
  0
LINE
  5
207
100
AcDbEntity
  8
0
 62
7
100
AcDbLine
 10
267.544787
 20
265.236187
 30
0.0
 11
267.542787
 21
265.236187
 31
0.0
  0
SPLINE
  5
208
100
AcDbEntity
  8
0
 62
7
100
AcDbSpline
 70
0
 71
3
 72
22
 73
18
 74
16
 40
0.000000
 40
0.000000
 40
0.000000
 40
0.000000
 40
0.038131
 40
0.069591
 40
0.087917
 40
0.112384
 40
0.125333
 40
0.133328
 40
0.153638
 40
0.171077
 40
0.188288
 40
0.192081
 40
0.195827
 40
0.200171
 40
0.202171
 40
0.204174
 40
0.206174
 40
0.206174
 40
0.206174
 40
0.206174
 10
267.749987
 20
265.247187
 30
0.0
 10
267.737280
 20
265.247433
 30
0.0
 10
267.714089
 20
265.247881
 30
0.0
 10
267.684787
 20
265.248775
 30
0.0
 10
267.660039
 20
265.248148
 30
0.0
 10
267.641466
 20
265.247585
 30
0.0
 10
267.626334
 20
265.247382
 30
0.0
 10
267.612571
 20
265.247275
 30
0.0
 10
267.597463
 20
265.244728
 30
0.0
 10
267.579577
 20
265.240868
 30
0.0
 10
267.566933
 20
265.238663
 30
0.0
 10
267.558735
 20
265.237759
 30
0.0
 10
267.554801
 20
265.237257
 30
0.0
 10
267.551584
 20
265.236124
 30
0.0
 10
267.548783
 20
265.236101
 30
0.0
 10
267.546789
 20
265.236278
 30
0.0
 10
267.545454
 20
265.236217
 30
0.0
 10
267.544787
 20
265.236187
 30
0.0
 11
267.749987
 21
265.247187
 31
0.0
 11
267.711865
 21
265.248002
 31
0.0
 11
267.680409
 21
265.248539
 31
0.0
 11
267.662087
 21
265.248187
 31
0.0
 11
267.637628
 21
265.247559
 31
0.0
 11
267.624679
 21
265.247375
 31
0.0
 11
267.616687
 21
265.247187
 31
0.0
 11
267.596568
 21
265.244409
 31
0.0
 11
267.579472
 21
265.240965
 31
0.0
 11
267.562487
 21
265.238187
 31
0.0
 11
267.558720
 21
265.237746
 31
0.0
 11
267.555020
 21
265.237161
 31
0.0
 11
267.550787
 21
265.236187
 31
0.0
 11
267.548787
 21
265.236134
 31
0.0
 11
267.546787
 21
265.236234
 31
0.0
 11
267.544787
 21
265.236187
 31
0.0
  0
LINE
  5
209
100
AcDbEntity
  8
0
 62
7
100
AcDbLine
 10
266.836587
 20
265.142687
 30
0.0
 11
266.385417
 21
265.087087
 31
0.0
  0
SPLINE
  5
20a
100
AcDbEntity
  8
0
 62
7
100
AcDbSpline
 70
0
 71
3
 72
22
 73
18
 74
16
 40
0.000000
 40
0.000000
 40
0.000000
 40
0.000000
 40
0.000836
 40
0.001919
 40
0.003001
 40
0.011467
 40
0.019933
 40
0.028398
 40
0.049545
 40
0.073397
 40
0.109847
 40
0.127173
 40
0.147775
 40
0.166123
 40
0.327875
 40
0.513761
 40
0.712473
 40
0.712473
 40
0.712473
 40
0.712473
 10
267.542787
 20
265.236187
 30
0.0
 10
267.542508
 20
265.236176
 30
0.0
 10
267.541869
 20
265.236151
 30
0.0
 10
267.540870
 20
265.236214
 30
0.0
 10
267.537321
 20
265.236162
 30
0.0
 10
267.531492
 20
265.234414
 30
0.0
 10
267.523160
 20
265.233010
 30
0.0
 10
267.510781
 20
265.230134
 30
0.0
 10
267.493034
 20
265.228208
 30
0.0
 10
267.466296
 20
265.223486
 30
0.0
 10
267.440596
 20
265.220390
 30
0.0
 10
267.416038
 20
265.217001
 30
0.0
 10
267.397413
 20
265.214724
 30
0.0
 10
267.331493
 20
265.203230
 30
0.0
 10
267.210016
 20
265.190936
 30
0.0
 10
267.029539
 20
265.166719
 30
0.0
 10
266.902318
 20
265.150874
 30
0.0
 10
266.836587
 20
265.142687
 30
0.0
 11
267.542787
 21
265.236187
 31
0.0
 11
267.541951
 21
265.236167
 31
0.0
 11
267.540869
 21
265.236200
 31
0.0
 11
267.539787
 21
265.236187
 31
0.0
 11
267.531473
 21
265.234591
 31
0.0
 11
267.523173
 21
265.232924
 31
0.0
 11
267.514887
 21
265.231187
 31
0.0
 11
267.493968
 21
265.228087
 31
0.0
 11
267.470405
 21
265.224387
 31
0.0
 11
267.434287
 21
265.219487
 31
0.0
 11
267.417113
 21
265.217191
 31
0.0
 11
267.396694
 21
265.214450
 31
0.0
 11
267.378587
 21
265.211487
 31
0.0
 11
267.218146
 21
265.190939
 31
0.0
 11
267.033734
 21
265.167568
 31
0.0
 11
266.836587
 21
265.142687
 31
0.0
  0
LINE
  5
20b
100
AcDbEntity
  8
0
 62
7
100
AcDbLine
 10
266.225717
 20
265.066787
 30
0.0
 11
266.223717
 21
265.066787
 31
0.0
  0
SPLINE
  5
20c
100
AcDbEntity
  8
0
 62
7
100
AcDbSpline
 70
0
 71
3
 72
16
 73
12
 74
10
 40
0.000000
 40
0.000000
 40
0.000000
 40
0.000000
 40
0.028232
 40
0.060690
 40
0.085622
 40
0.110903
 40
0.131947
 40
0.147530
 40
0.152981
 40
0.157419
 40
0.161085
 40
0.161085
 40
0.161085
 40
0.161085
 10
266.385417
 20
265.087087
 30
0.0
 10
266.376081
 20
265.085905
 30
0.0
 10
266.356011
 20
265.083365
 30
0.0
 10
266.327655
 20
265.080125
 30
0.0
 10
266.300288
 20
265.076874
 30
0.0
 10
266.276777
 20
265.073491
 30
0.0
 10
266.256272
 20
265.071121
 30
0.0
 10
266.242251
 20
265.070364
 30
0.0
 10
266.233856
 20
265.069034
 30
0.0
 10
266.229465
 20
265.067950
 30
0.0
 10
266.226884
 20
265.067149
 30
0.0
 10
266.225717
 20
265.066787
 30
0.0
 11
266.385417
 21
265.087087
 31
0.0
 11
266.357402
 21
265.083594
 31
0.0
 11
266.325165
 21
265.079813
 31
0.0
 11
266.300417
 21
265.076787
 31
0.0
 11
266.275361
 21
265.073417
 31
0.0
 11
266.254439
 21
265.071157
 31
0.0
 11
266.238917
 21
265.069787
 31
0.0
 11
266.233539
 21
265.068898
 31
0.0
 11
266.229228
 21
265.067843
 31
0.0
 11
266.225717
 21
265.066787
 31
0.0
  0
LINE
  5
20d
100
AcDbEntity
  8
0
 62
7
100
AcDbLine
 10
266.636047
 20
263.102217
 30
0.0
 11
267.088687
 21
263.159417
 31
0.0
  0
SPLINE
  5
20e
100
AcDbEntity
  8
0
 62
7
100
AcDbSpline
 70
0
 71
3
 72
31
 73
27
 74
25
 40
0.000000
 40
0.000000
 40
0.000000
 40
0.000000
 40
0.003059
 40
0.007942
 40
0.010492
 40
0.529125
 40
1.492293
 40
2.010923
 40
2.014507
 40
2.021302
 40
2.025832
 40
2.026756
 40
2.028127
 40
2.028832
 40
2.029636
 40
2.031291
 40
2.033836
 40
2.035342
 40
2.037828
 40
2.040182
 40
2.054916
 40
2.074661
 40
2.099203
 40
2.124450
 40
2.157622
 40
2.186217
 40
2.186217
 40
2.186217
 40
2.186217
 10
266.223717
 20
265.066787
 30
0.0
 10
266.222715
 20
265.066594
 30
0.0
 10
266.220116
 20
265.066092
 30
0.0
 10
266.216688
 20
265.065420
 30
0.0
 10
266.043953
 20
265.032393
 30
0.0
 10
266.443017
 20
264.244305
 30
0.0
 10
266.478914
 20
263.952136
 30
0.0
 10
266.294343
 20
263.040735
 30
0.0
 10
266.466993
 20
263.080962
 30
0.0
 10
266.471841
 20
263.081928
 30
0.0
 10
266.475842
 20
263.082929
 30
0.0
 10
266.478121
 20
263.082931
 30
0.0
 10
266.479120
 20
263.082894
 30
0.0
 10
266.480080
 20
263.082929
 30
0.0
 10
266.481134
 20
263.082862
 30
0.0
 10
266.482790
 20
263.082822
 30
0.0
 10
266.484751
 20
263.082671
 30
0.0
 10
266.486748
 20
263.083616
 30
0.0
 10
266.488672
 20
263.084501
 30
0.0
 10
266.495133
 20
263.085647
 30
0.0
 10
266.507282
 20
263.087193
 30
0.0
 10
266.526847
 20
263.089404
 30
0.0
 10
266.549882
 20
263.091924
 30
0.0
 10
266.577359
 20
263.095059
 30
0.0
 10
266.606192
 20
263.098216
 30
0.0
 10
266.626599
 20
263.100951
 30
0.0
 10
266.636047
 20
263.102217
 30
0.0
 11
266.223717
 21
265.066787
 31
0.0
 11
266.220713
 21
265.066206
 31
0.0
 11
266.215921
 21
265.065274
 31
0.0
 11
266.213417
 21
265.064787
 31
0.0
 11
266.277960
 21
264.550187
 31
0.0
 11
266.397864
 21
263.594511
 31
0.0
 11
266.462447
 21
263.079917
 31
0.0
 11
266.465943
 21
263.080704
 31
0.0
 11
266.472584
 21
263.082144
 31
0.0
 11
266.477047
 21
263.082917
 31
0.0
 11
266.477971
 21
263.082926
 31
0.0
 11
266.479342
 21
263.082908
 31
0.0
 11
266.480047
 21
263.082917
 31
0.0
 11
266.480850
 21
263.082884
 31
0.0
 11
266.482504
 21
263.082817
 31
0.0
 11
266.485047
 21
263.082917
 31
0.0
 11
266.486447
 21
263.083471
 31
0.0
 11
266.488747
 21
263.084416
 31
0.0
 11
266.491047
 21
263.084917
 31
0.0
 11
266.505640
 21
263.086954
 31
0.0
 11
266.525254
 21
263.089213
 31
0.0
 11
266.549647
 21
263.091917
 31
0.0
 11
266.574736
 21
263.094743
 31
0.0
 11
266.607691
 21
263.098525
 31
0.0
 11
266.636047
 21
263.102217
 31
0.0
  0
LINE
  5
20f
100
AcDbEntity
  8
0
 62
7
100
AcDbLine
 10
267.204417
 20
263.174017
 30
0.0
 11
267.627747
 21
263.226717
 31
0.0
  0
LINE
  5
210
100
AcDbEntity
  8
0
 62
7
100
AcDbLine
 10
267.627747
 20
263.226717
 30
0.0
 11
267.627747
 21
263.229717
 31
0.0
  0
SPLINE
  5
211
100
AcDbEntity
  8
0
 62
7
100
AcDbSpline
 70
0
 71
3
 72
10
 73
6
 74
4
 40
0.000000
 40
0.000000
 40
0.000000
 40
0.000000
 40
0.039728
 40
0.076850
 40
0.116648
 40
0.116648
 40
0.116648
 40
0.116648
 10
267.088687
 20
263.159417
 30
0.0
 10
267.101836
 20
263.160986
 30
0.0
 10
267.127273
 20
263.164021
 30
0.0
 10
267.165843
 20
263.168945
 30
0.0
 10
267.191264
 20
263.172288
 30
0.0
 10
267.204417
 20
263.174017
 30
0.0
 11
267.088687
 21
263.159417
 31
0.0
 11
267.128129
 21
263.164180
 31
0.0
 11
267.164955
 21
263.168854
 31
0.0
 11
267.204417
 21
263.174017
 31
0.0
  0
SPLINE
  5
212
100
AcDbEntity
  8
0
 62
7
100
AcDbSpline
 70
0
 71
3
 72
13
 73
9
 74
7
 40
0.000000
 40
0.000000
 40
0.000000
 40
0.000000
 40
0.020657
 40
0.043857
 40
0.063388
 40
0.101307
 40
0.131351
 40
0.159305
 40
0.159305
 40
0.159305
 40
0.159305
 10
267.627747
 20
263.229717
 30
0.0
 10
267.634590
 20
263.230479
 30
0.0
 10
267.649120
 20
263.232096
 30
0.0
 10
267.670138
 20
263.234265
 30
0.0
 10
267.696832
 20
263.237454
 30
0.0
 10
267.725806
 20
263.240783
 30
0.0
 10
267.757533
 20
263.244741
 30
0.0
 10
267.776706
 20
263.247221
 30
0.0
 10
267.785947
 20
263.248417
 30
0.0
 11
267.627747
 21
263.229717
 31
0.0
 11
267.648280
 21
263.231976
 31
0.0
 11
267.671347
 21
263.234458
 31
0.0
 11
267.690747
 21
263.236717
 31
0.0
 11
267.728406
 21
263.241150
 31
0.0
 11
267.758221
 21
263.244850
 31
0.0
 11
267.785947
 21
263.248417
 31
0.0
  0
SPLINE
  5
213
100
AcDbEntity
  8
0
 62
7
100
AcDbSpline
 70
0
 71
3
 72
10
 73
6
 74
4
 40
0.000000
 40
0.000000
 40
0.000000
 40
0.000000
 40
3.726778
 40
7.528723
 40
11.338830
 40
11.338830
 40
11.338830
 40
11.338830
 10
267.785947
 20
263.248417
 30
0.0
 10
269.022227
 20
263.371967
 30
0.0
 10
271.519721
 20
263.621559
 30
0.0
 10
275.297413
 20
263.792195
 30
0.0
 10
277.834755
 20
263.809557
 30
0.0
 10
279.104786
 20
263.818247
 30
0.0
 11
267.785947
 21
263.248417
 31
0.0
 11
271.497434
 21
263.585671
 31
0.0
 11
275.295012
 21
263.767827
 31
0.0
 11
279.104786
 21
263.818247
 31
0.0
  0
LINE
  5
214
100
AcDbEntity
  8
0
 62
7
100
AcDbLine
 10
299.192195
 20
262.762087
 30
0.0
 11
297.529595
 21
264.122937
 31
0.0
  0
LINE
  5
215
100
AcDbEntity
  8
0
 62
7
100
AcDbLine
 10
297.529595
 20
264.122937
 30
0.0
 11
296.328425
 21
265.023807
 31
0.0
  0
SPLINE
  5
216
100
AcDbEntity
  8
0
 62
7
100
AcDbSpline
 70
0
 71
3
 72
10
 73
6
 74
4
 40
0.000000
 40
0.000000
 40
0.000000
 40
0.000000
 40
6.703529
 40
13.409131
 40
20.120253
 40
20.120253
 40
20.120253
 40
20.120253
 10
279.104786
 20
263.818247
 30
0.0
 10
281.339108
 20
263.778749
 30
0.0
 10
285.808442
 20
263.699741
 30
0.0
 10
292.506342
 20
263.323261
 30
0.0
 10
296.962966
 20
262.949196
 30
0.0
 10
299.192195
 20
262.762087
 30
0.0
 11
279.104786
 21
263.818247
 31
0.0
 11
285.806371
 21
263.656792
 31
0.0
 11
292.502078
 21
263.292635
 31
0.0
 11
299.192195
 21
262.762087
 31
0.0
  0
LINE
  5
217
100
AcDbEntity
  8
0
 62
7
100
AcDbLine
 10
279.114436
 20
265.819217
 30
0.0
 11
279.114236
 21
265.821407
 31
0.0
  0
LINE
  5
218
100
AcDbEntity
  8
0
 62
7
100
AcDbLine
 10
334.772444
 20
222.176389
 30
0.0
 11
335.343734
 21
221.256459
 31
0.0
  0
SPLINE
  5
219
100
AcDbEntity
  8
0
 62
7
100
AcDbSpline
 70
0
 71
3
 72
13
 73
9
 74
7
 40
0.000000
 40
0.000000
 40
0.000000
 40
0.000000
 40
5.739235
 40
11.482144
 40
17.230752
 40
17.232418
 40
17.234085
 40
17.235752
 40
17.235752
 40
17.235752
 40
17.235752
 10
296.328425
 20
265.023807
 30
0.0
 10
294.420581
 20
265.166564
 30
0.0
 10
290.603672
 20
265.452169
 30
0.0
 10
284.865635
 20
265.715586
 30
0.0
 10
281.035080
 20
265.815392
 30
0.0
 10
279.117770
 20
265.819220
 30
0.0
 10
279.116103
 20
265.819220
 30
0.0
 10
279.114992
 20
265.819218
 30
0.0
 10
279.114436
 20
265.819217
 30
0.0
 11
296.328425
 21
265.023807
 31
0.0
 11
290.603200
 21
265.424578
 31
0.0
 11
284.866735
 21
265.696546
 31
0.0
 11
279.119436
 21
265.819217
 31
0.0
 11
279.117770
 21
265.819220
 31
0.0
 11
279.116103
 21
265.819220
 31
0.0
 11
279.114436
 21
265.819217
 31
0.0
  0
LINE
  5
21a
100
AcDbEntity
  8
0
 62
7
100
AcDbLine
 10
335.346734
 20
221.255459
 30
0.0
 11
336.203654
 21
219.705659
 31
0.0
  0
LINE
  5
21b
100
AcDbEntity
  8
0
 62
7
100
AcDbLine
 10
336.203654
 20
219.705659
 30
0.0
 11
336.492234
 21
219.625059
 31
0.0
  0
LINE
  5
21c
100
AcDbEntity
  8
0
 62
7
100
AcDbLine
 10
336.492234
 20
219.625059
 30
0.0
 11
337.204153
 21
219.425849
 31
0.0
  0
LINE
  5
21d
100
AcDbEntity
  8
0
 62
7
100
AcDbLine
 10
337.204153
 20
219.425849
 30
0.0
 11
338.815483
 21
218.967349
 31
0.0
  0
LINE
  5
21e
100
AcDbEntity
  8
0
 62
7
100
AcDbLine
 10
338.815483
 20
218.967349
 30
0.0
 11
339.455613
 21
218.785709
 31
0.0
  0
LINE
  5
21f
100
AcDbEntity
  8
0
 62
7
100
AcDbLine
 10
339.455613
 20
218.785709
 30
0.0
 11
341.200243
 21
218.277409
 31
0.0
  0
LINE
  5
220
100
AcDbEntity
  8
0
 62
7
100
AcDbLine
 10
341.200243
 20
218.277409
 30
0.0
 11
341.770063
 21
218.111879
 31
0.0
  0
LINE
  5
221
100
AcDbEntity
  8
0
 62
7
100
AcDbLine
 10
341.770063
 20
218.111879
 30
0.0
 11
343.649463
 21
217.555239
 31
0.0
  0
LINE
  5
222
100
AcDbEntity
  8
0
 62
7
100
AcDbLine
 10
343.649463
 20
217.555239
 30
0.0
 11
344.150443
 21
217.408749
 31
0.0
  0
LINE
  5
223
100
AcDbEntity
  8
0
 62
7
100
AcDbLine
 10
344.150443
 20
217.408749
 30
0.0
 11
346.166063
 21
216.799379
 31
0.0
  0
LINE
  5
224
100
AcDbEntity
  8
0
 62
7
100
AcDbLine
 10
346.166063
 20
216.799379
 30
0.0
 11
346.593793
 21
216.670469
 31
0.0
  0
LINE
  5
225
100
AcDbEntity
  8
0
 62
7
100
AcDbLine
 10
346.593793
 20
216.670469
 30
0.0
 11
348.754443
 21
216.008369
 31
0.0
  0
LINE
  5
226
100
AcDbEntity
  8
0
 62
7
100
AcDbLine
 10
348.754443
 20
216.008369
 30
0.0
 11
349.106003
 21
215.898499
 31
0.0
  0
LINE
  5
227
100
AcDbEntity
  8
0
 62
7
100
AcDbLine
 10
349.106003
 20
215.898499
 30
0.0
 11
351.413133
 21
215.180729
 31
0.0
  0
LINE
  5
228
100
AcDbEntity
  8
0
 62
7
100
AcDbLine
 10
351.413133
 20
215.180729
 30
0.0
 11
351.688523
 21
215.094329
 31
0.0
  0
LINE
  5
229
100
AcDbEntity
  8
0
 62
7
100
AcDbLine
 10
351.688523
 20
215.094329
 30
0.0
 11
354.143603
 21
214.315029
 31
0.0
  0
LINE
  5
22a
100
AcDbEntity
  8
0
 62
7
100
AcDbLine
 10
354.143603
 20
214.315029
 30
0.0
 11
354.342823
 21
214.252029
 31
0.0
  0
LINE
  5
22b
100
AcDbEntity
  8
0
 62
7
100
AcDbLine
 10
354.342823
 20
214.252029
 30
0.0
 11
356.951713
 21
213.412680
 31
0.0
  0
LINE
  5
22c
100
AcDbEntity
  8
0
 62
7
100
AcDbLine
 10
356.951713
 20
213.412680
 30
0.0
 11
357.070362
 21
213.376080
 31
0.0
  0
LINE
  5
22d
100
AcDbEntity
  8
0
 62
7
100
AcDbLine
 10
357.070362
 20
213.376080
 30
0.0
 11
359.838912
 21
212.470800
 31
0.0
  0
LINE
  5
22e
100
AcDbEntity
  8
0
 62
7
100
AcDbLine
 10
359.838912
 20
212.470800
 30
0.0
 11
359.875512
 21
212.459100
 31
0.0
  0
LINE
  5
22f
100
AcDbEntity
  8
0
 62
7
100
AcDbLine
 10
359.875512
 20
212.459100
 30
0.0
 11
362.740752
 21
211.509890
 31
0.0
  0
SPLINE
  5
230
100
AcDbEntity
  8
0
 62
7
100
AcDbSpline
 70
0
 71
3
 72
10
 73
6
 74
4
 40
0.000000
 40
0.000000
 40
0.000000
 40
0.000000
 40
0.001054
 40
0.002108
 40
0.003163
 40
0.003163
 40
0.003163
 40
0.003163
 10
335.343734
 20
221.256459
 30
0.0
 10
335.344070
 20
221.256356
 30
0.0
 10
335.344742
 20
221.256151
 30
0.0
 10
335.345742
 20
221.255818
 30
0.0
 10
335.346403
 20
221.255579
 30
0.0
 10
335.346734
 20
221.255459
 30
0.0
 11
335.343734
 21
221.256459
 31
0.0
 11
335.344741
 21
221.256147
 31
0.0
 11
335.345741
 21
221.255814
 31
0.0
 11
335.346734
 21
221.255459
 31
0.0
  0
LINE
  5
231
100
AcDbEntity
  8
0
 62
7
100
AcDbLine
 10
362.758352
 20
211.503890
 30
0.0
 11
362.806752
 21
211.489290
 31
0.0
  0
LINE
  5
232
100
AcDbEntity
  8
0
 62
7
100
AcDbLine
 10
362.806752
 20
211.489290
 30
0.0
 11
364.781362
 21
210.824250
 31
0.0
  0
LINE
  5
233
100
AcDbEntity
  8
0
 62
7
100
AcDbLine
 10
364.781362
 20
210.824250
 30
0.0
 11
365.729112
 21
210.507840
 31
0.0
  0
SPLINE
  5
234
100
AcDbEntity
  8
0
 62
7
100
AcDbSpline
 70
0
 71
3
 72
10
 73
6
 74
4
 40
0.000000
 40
0.000000
 40
0.000000
 40
0.000000
 40
0.006198
 40
0.012397
 40
0.018595
 40
0.018595
 40
0.018595
 40
0.018595
 10
362.740752
 20
211.509890
 30
0.0
 10
362.742703
 20
211.509208
 30
0.0
 10
362.746604
 20
211.507846
 30
0.0
 10
362.752471
 20
211.505846
 30
0.0
 10
362.756392
 20
211.504542
 30
0.0
 10
362.758352
 20
211.503890
 30
0.0
 11
362.740752
 21
211.509890
 31
0.0
 11
362.746606
 21
211.507853
 31
0.0
 11
362.752473
 21
211.505853
 31
0.0
 11
362.758352
 21
211.503890
 31
0.0
  0
LINE
  5
235
100
AcDbEntity
  8
0
 62
7
100
AcDbLine
 10
366.498152
 20
212.360810
 30
0.0
 11
365.418562
 21
212.721160
 31
0.0
  0
LINE
  5
236
100
AcDbEntity
  8
0
 62
7
100
AcDbLine
 10
365.418562
 20
212.721160
 30
0.0
 11
363.449812
 21
213.381810
 31
0.0
  0
SPLINE
  5
237
100
AcDbEntity
  8
0
 62
7
100
AcDbSpline
 70
0
 71
3
 72
16
 73
12
 74
10
 40
0.000000
 40
0.000000
 40
0.000000
 40
0.000000
 40
0.036393
 40
0.103981
 40
0.140374
 40
0.659841
 40
1.164081
 40
1.683548
 40
2.203015
 40
2.707255
 40
3.226722
 40
3.226722
 40
3.226722
 40
3.226722
 10
365.729112
 20
210.507840
 30
0.0
 10
365.740630
 20
210.504033
 30
0.0
 10
365.773539
 20
210.493156
 30
0.0
 10
365.818024
 20
210.478618
 30
0.0
 10
366.014796
 20
210.412056
 30
0.0
 10
366.386608
 20
210.391564
 30
0.0
 10
366.865071
 20
210.634044
 30
0.0
 10
367.163467
 20
211.083752
 30
0.0
 10
367.194830
 20
211.617450
 30
0.0
 10
366.963162
 20
212.114100
 30
0.0
 10
366.654685
 20
212.277762
 30
0.0
 10
366.498152
 20
212.360810
 30
0.0
 11
365.729112
 21
210.507840
 31
0.0
 11
365.763671
 21
210.496432
 31
0.0
 11
365.827853
 21
210.475247
 31
0.0
 11
365.862412
 21
210.463840
 31
0.0
 11
366.381225
 21
210.437784
 31
0.0
 11
366.831369
 21
210.665004
 31
0.0
 11
367.118522
 21
211.097888
 31
0.0
 11
367.150210
 21
211.616388
 31
0.0
 11
366.927892
 21
212.068972
 31
0.0
 11
366.498152
 21
212.360810
 31
0.0
  0
LINE
  5
238
100
AcDbEntity
  8
0
 62
7
100
AcDbLine
 10
363.435212
 20
213.387810
 30
0.0
 11
363.416212
 21
213.393810
 31
0.0
  0
LINE
  5
239
100
AcDbEntity
  8
0
 62
7
100
AcDbLine
 10
363.416212
 20
213.393810
 30
0.0
 11
363.394212
 21
213.402810
 31
0.0
  0
LINE
  5
23a
100
AcDbEntity
  8
0
 62
7
100
AcDbLine
 10
363.394212
 20
213.402810
 30
0.0
 11
363.391212
 21
213.402810
 31
0.0
  0
SPLINE
  5
23b
100
AcDbEntity
  8
0
 62
7
100
AcDbSpline
 70
0
 71
3
 72
10
 73
6
 74
4
 40
0.000000
 40
0.000000
 40
0.000000
 40
0.000000
 40
0.005262
 40
0.010523
 40
0.015785
 40
0.015785
 40
0.015785
 40
0.015785
 10
363.449812
 20
213.381810
 30
0.0
 10
363.448194
 20
213.382486
 30
0.0
 10
363.444958
 20
213.383840
 30
0.0
 10
363.440091
 20
213.385840
 30
0.0
 10
363.436839
 20
213.387153
 30
0.0
 10
363.435212
 20
213.387810
 30
0.0
 11
363.449812
 21
213.381810
 31
0.0
 11
363.444956
 21
213.383835
 31
0.0
 11
363.440089
 21
213.385835
 31
0.0
 11
363.435212
 21
213.387810
 31
0.0
  0
LINE
  5
23c
100
AcDbEntity
  8
0
 62
7
100
AcDbLine
 10
360.498542
 20
214.360359
 30
0.0
 11
360.459042
 21
214.372059
 31
0.0
  0
LINE
  5
23d
100
AcDbEntity
  8
0
 62
7
100
AcDbLine
 10
360.459042
 20
214.372059
 30
0.0
 11
357.690482
 21
215.277339
 31
0.0
  0
SPLINE
  5
23e
100
AcDbEntity
  8
0
 62
7
100
AcDbSpline
 70
0
 71
3
 72
13
 73
9
 74
7
 40
0.000000
 40
0.000000
 40
0.000000
 40
0.000000
 40
0.788907
 40
2.254020
 40
3.042926
 40
3.044301
 40
3.045675
 40
3.047050
 40
3.047050
 40
3.047050
 40
3.047050
 10
363.391212
 20
213.402810
 30
0.0
 10
363.141763
 20
213.486124
 30
0.0
 10
362.429052
 20
213.724165
 30
0.0
 10
361.460640
 20
214.024042
 30
0.0
 10
360.757117
 20
214.295294
 30
0.0
 10
360.501210
 20
214.359695
 30
0.0
 10
360.499876
 20
214.360028
 30
0.0
 10
360.498987
 20
214.360249
 30
0.0
 10
360.498542
 20
214.360359
 30
0.0
 11
363.391212
 21
213.402810
 31
0.0
 11
362.642298
 21
213.650804
 31
0.0
 11
361.251457
 21
214.111365
 31
0.0
 11
360.502542
 21
214.359359
 31
0.0
 11
360.501209
 21
214.359695
 31
0.0
 11
360.499876
 21
214.360028
 31
0.0
 11
360.498542
 21
214.360359
 31
0.0
  0
LINE
  5
23f
100
AcDbEntity
  8
0
 62
7
100
AcDbLine
 10
357.685482
 20
215.278339
 30
0.0
 11
357.562442
 21
215.317839
 31
0.0
  0
LINE
  5
240
100
AcDbEntity
  8
0
 62
7
100
AcDbLine
 10
357.562442
 20
215.317839
 30
0.0
 11
354.952083
 21
216.157199
 31
0.0
  0
SPLINE
  5
241
100
AcDbEntity
  8
0
 62
7
100
AcDbSpline
 70
0
 71
3
 72
10
 73
6
 74
4
 40
0.000000
 40
0.000000
 40
0.000000
 40
0.000000
 40
0.001700
 40
0.003399
 40
0.005099
 40
0.005099
 40
0.005099
 40
0.005099
 10
357.690482
 20
215.277339
 30
0.0
 10
357.689927
 20
215.277452
 30
0.0
 10
357.688816
 20
215.277676
 30
0.0
 10
357.687150
 20
215.278010
 30
0.0
 10
357.686038
 20
215.278229
 30
0.0
 10
357.685482
 20
215.278339
 30
0.0
 11
357.690482
 21
215.277339
 31
0.0
 11
357.688816
 21
215.277676
 31
0.0
 11
357.687150
 21
215.278009
 31
0.0
 11
357.685482
 21
215.278339
 31
0.0
  0
LINE
  5
242
100
AcDbEntity
  8
0
 62
7
100
AcDbLine
 10
354.946083
 20
216.159199
 30
0.0
 11
354.746863
 21
216.222199
 31
0.0
  0
LINE
  5
243
100
AcDbEntity
  8
0
 62
7
100
AcDbLine
 10
354.746863
 20
216.222199
 30
0.0
 11
352.290323
 21
217.001489
 31
0.0
  0
SPLINE
  5
244
100
AcDbEntity
  8
0
 62
7
100
AcDbSpline
 70
0
 71
3
 72
10
 73
6
 74
4
 40
0.000000
 40
0.000000
 40
0.000000
 40
0.000000
 40
0.002108
 40
0.004216
 40
0.006325
 40
0.006325
 40
0.006325
 40
0.006325
 10
354.952083
 20
216.157199
 30
0.0
 10
354.951416
 20
216.157423
 30
0.0
 10
354.950084
 20
216.157871
 30
0.0
 10
354.948084
 20
216.158538
 30
0.0
 10
354.946750
 20
216.158979
 30
0.0
 10
354.946083
 20
216.159199
 30
0.0
 11
354.952083
 21
216.157199
 31
0.0
 11
354.950084
 21
216.157870
 31
0.0
 11
354.948084
 21
216.158537
 31
0.0
 11
354.946083
 21
216.159199
 31
0.0
  0
LINE
  5
245
100
AcDbEntity
  8
0
 62
7
100
AcDbLine
 10
352.285323
 20
217.003489
 30
0.0
 11
352.007003
 21
217.089889
 31
0.0
  0
SPLINE
  5
246
100
AcDbEntity
  8
0
 62
7
100
AcDbSpline
 70
0
 71
3
 72
10
 73
6
 74
4
 40
0.000000
 40
0.000000
 40
0.000000
 40
0.000000
 40
0.001795
 40
0.003590
 40
0.005385
 40
0.005385
 40
0.005385
 40
0.005385
 10
352.290323
 20
217.001489
 30
0.0
 10
352.289768
 20
217.001713
 30
0.0
 10
352.288658
 20
217.002160
 30
0.0
 10
352.286991
 20
217.002826
 30
0.0
 10
352.285879
 20
217.003268
 30
0.0
 10
352.285323
 20
217.003489
 30
0.0
 11
352.290323
 21
217.001489
 31
0.0
 11
352.288657
 21
217.002159
 31
0.0
 11
352.286991
 21
217.002826
 31
0.0
 11
352.285323
 21
217.003489
 31
0.0
  0
LINE
  5
247
100
AcDbEntity
  8
0
 62
7
100
AcDbLine
 10
349.693403
 20
217.811599
 30
0.0
 11
349.337453
 21
217.921469
 31
0.0
  0
SPLINE
  5
248
100
AcDbEntity
  8
0
 62
7
100
AcDbSpline
 70
0
 71
3
 72
13
 73
9
 74
7
 40
0.000000
 40
0.000000
 40
0.000000
 40
0.000000
 40
0.627014
 40
1.791468
 40
2.418482
 40
2.420182
 40
2.421882
 40
2.423581
 40
2.423581
 40
2.423581
 40
2.423581
 10
352.007003
 20
217.089889
 30
0.0
 10
351.807682
 20
217.152907
 30
0.0
 10
351.238195
 20
217.332957
 30
0.0
 10
350.463166
 20
217.551762
 30
0.0
 10
349.902720
 20
217.769344
 30
0.0
 10
349.696737
 20
217.810936
 30
0.0
 10
349.695070
 20
217.811269
 30
0.0
 10
349.693959
 20
217.811489
 30
0.0
 10
349.693403
 20
217.811599
 30
0.0
 11
352.007003
 21
217.089889
 31
0.0
 11
351.408477
 21
217.276740
 31
0.0
 11
350.296929
 21
217.623749
 31
0.0
 11
349.698403
 21
217.810599
 31
0.0
 11
349.696737
 21
217.810935
 31
0.0
 11
349.695070
 21
217.811269
 31
0.0
 11
349.693403
 21
217.811599
 31
0.0
  0
LINE
  5
249
100
AcDbEntity
  8
0
 62
7
100
AcDbLine
 10
347.170333
 20
218.584569
 30
0.0
 11
346.741143
 21
218.713479
 31
0.0
  0
SPLINE
  5
24a
100
AcDbEntity
  8
0
 62
7
100
AcDbSpline
 70
0
 71
3
 72
13
 73
9
 74
7
 40
0.000000
 40
0.000000
 40
0.000000
 40
0.000000
 40
0.586244
 40
1.674982
 40
2.261225
 40
2.262925
 40
2.264624
 40
2.266324
 40
2.266324
 40
2.266324
 40
2.266324
 10
349.337453
 20
217.921469
 30
0.0
 10
349.150768
 20
217.979338
 30
0.0
 10
348.617382
 20
218.144678
 30
0.0
 10
347.891860
 20
218.346385
 30
0.0
 10
347.366328
 20
218.545005
 30
0.0
 10
347.173667
 20
218.583906
 30
0.0
 10
347.172000
 20
218.584239
 30
0.0
 10
347.170889
 20
218.584459
 30
0.0
 10
347.170333
 20
218.584569
 30
0.0
 11
349.337453
 21
217.921469
 31
0.0
 11
348.776903
 21
218.093125
 31
0.0
 11
347.735883
 21
218.411914
 31
0.0
 11
347.175333
 21
218.583569
 31
0.0
 11
347.173667
 21
218.583905
 31
0.0
 11
347.172000
 21
218.584239
 31
0.0
 11
347.170333
 21
218.584569
 31
0.0
  0
LINE
  5
24b
100
AcDbEntity
  8
0
 62
7
100
AcDbLine
 10
344.718123
 20
219.325859
 30
0.0
 11
344.214213
 21
219.473809
 31
0.0
  0
SPLINE
  5
24c
100
AcDbEntity
  8
0
 62
7
100
AcDbSpline
 70
0
 71
3
 72
13
 73
9
 74
7
 40
0.000000
 40
0.000000
 40
0.000000
 40
0.000000
 40
0.547020
 40
1.562915
 40
2.109935
 40
2.111349
 40
2.112763
 40
2.114177
 40
2.114177
 40
2.114177
 40
2.114177
 10
346.741143
 20
218.713479
 30
0.0
 10
346.564961
 20
218.763453
 30
0.0
 10
346.061585
 20
218.906234
 30
0.0
 10
345.435325
 20
219.187894
 30
0.0
 10
344.849422
 20
219.193902
 30
0.0
 10
344.720125
 20
219.323861
 30
0.0
 10
344.719125
 20
219.324861
 30
0.0
 10
344.718457
 20
219.325526
 30
0.0
 10
344.718123
 20
219.325859
 30
0.0
 11
346.741143
 21
218.713479
 31
0.0
 11
346.217434
 21
218.871467
 31
0.0
 11
345.244832
 21
219.164872
 31
0.0
 11
344.721123
 21
219.322859
 31
0.0
 11
344.720125
 21
219.323861
 31
0.0
 11
344.719125
 21
219.324861
 31
0.0
 11
344.718123
 21
219.325859
 31
0.0
  0
LINE
  5
24d
100
AcDbEntity
  8
0
 62
7
100
AcDbLine
 10
342.328363
 20
220.033379
 30
0.0
 11
341.754133
 21
220.200369
 31
0.0
  0
SPLINE
  5
24e
100
AcDbEntity
  8
0
 62
7
100
AcDbSpline
 70
0
 71
3
 72
13
 73
9
 74
7
 40
0.000000
 40
0.000000
 40
0.000000
 40
0.000000
 40
0.508751
 40
1.453573
 40
1.962324
 40
1.963991
 40
1.965657
 40
1.967324
 40
1.967324
 40
1.967324
 40
1.967324
 10
344.214213
 20
219.473809
 30
0.0
 10
344.051918
 20
219.523854
 30
0.0
 10
343.588217
 20
219.666840
 30
0.0
 10
342.954043
 20
219.804094
 30
0.0
 10
342.502407
 20
220.033152
 30
0.0
 10
342.331697
 20
220.033382
 30
0.0
 10
342.330030
 20
220.033383
 30
0.0
 10
342.328919
 20
220.033380
 30
0.0
 10
342.328363
 20
220.033379
 30
0.0
 11
344.214213
 21
219.473809
 31
0.0
 11
343.726585
 21
219.618883
 31
0.0
 11
342.820991
 21
219.888306
 31
0.0
 11
342.333363
 21
220.033379
 31
0.0
 11
342.331697
 21
220.033382
 31
0.0
 11
342.330030
 21
220.033382
 31
0.0
 11
342.328363
 21
220.033379
 31
0.0
  0
LINE
  5
24f
100
AcDbEntity
  8
0
 62
7
100
AcDbLine
 10
340.002043
 20
220.708669
 30
0.0
 11
339.357523
 21
220.891779
 31
0.0
  0
SPLINE
  5
250
100
AcDbEntity
  8
0
 62
7
100
AcDbSpline
 70
0
 71
3
 72
13
 73
9
 74
7
 40
0.000000
 40
0.000000
 40
0.000000
 40
0.000000
 40
0.471481
 40
1.347089
 40
1.818571
 40
1.820571
 40
1.822571
 40
1.824571
 40
1.824571
 40
1.824571
 40
1.824571
 10
341.754133
 20
220.200369
 30
0.0
 10
341.603456
 20
220.245825
 30
0.0
 10
341.172951
 20
220.375699
 30
0.0
 10
340.584501
 20
220.500489
 30
0.0
 10
340.164555
 20
220.708424
 30
0.0
 10
340.006043
 20
220.708674
 30
0.0
 10
340.004043
 20
220.708674
 30
0.0
 10
340.002710
 20
220.708671
 30
0.0
 10
340.002043
 20
220.708669
 30
0.0
 11
341.754133
 21
220.200369
 31
0.0
 11
341.301443
 21
220.332151
 31
0.0
 11
340.460733
 21
220.576888
 31
0.0
 11
340.008043
 21
220.708669
 31
0.0
 11
340.006043
 21
220.708673
 31
0.0
 11
340.004043
 21
220.708673
 31
0.0
 11
340.002043
 21
220.708669
 31
0.0
  0
LINE
  5
251
100
AcDbEntity
  8
0
 62
7
100
AcDbLine
 10
337.738723
 20
221.353209
 30
0.0
 11
337.025343
 21
221.552419
 31
0.0
  0
SPLINE
  5
252
100
AcDbEntity
  8
0
 62
7
100
AcDbSpline
 70
0
 71
3
 72
13
 73
9
 74
7
 40
0.000000
 40
0.000000
 40
0.000000
 40
0.000000
 40
0.434910
 40
1.242600
 40
1.677510
 40
1.679510
 40
1.681510
 40
1.683510
 40
1.683510
 40
1.683510
 40
1.683510
 10
339.357523
 20
220.891779
 30
0.0
 10
339.218342
 20
220.933043
 30
0.0
 10
338.820680
 20
221.050939
 30
0.0
 10
338.277350
 20
221.164242
 30
0.0
 10
337.889045
 20
221.352991
 30
0.0
 10
337.742723
 20
221.353214
 30
0.0
 10
337.740723
 20
221.353214
 30
0.0
 10
337.739390
 20
221.353211
 30
0.0
 10
337.738723
 20
221.353209
 30
0.0
 11
339.357523
 21
220.891779
 31
0.0
 11
338.939390
 21
221.011409
 31
0.0
 11
338.162857
 21
221.233579
 31
0.0
 11
337.744723
 21
221.353209
 31
0.0
 11
337.742723
 21
221.353213
 31
0.0
 11
337.740723
 21
221.353213
 31
0.0
 11
337.738723
 21
221.353209
 31
0.0
  0
LINE
  5
253
100
AcDbEntity
  8
0
 62
7
100
AcDbLine
 10
335.534464
 20
221.967979
 30
0.0
 11
334.772444
 21
222.176389
 31
0.0
  0
LINE
  5
254
100
AcDbEntity
  8
0
 62
7
100
AcDbLine
 10
41.534177
 20
185.792601
 30
0.0
 11
41.184079
 21
184.351191
 31
0.0
  0
LINE
  5
255
100
AcDbEntity
  8
0
 62
7
100
AcDbLine
 10
41.184079
 20
184.351191
 30
0.0
 11
41.090329
 21
183.867791
 31
0.0
  0
SPLINE
  5
256
100
AcDbEntity
  8
0
 62
7
100
AcDbSpline
 70
0
 71
3
 72
13
 73
9
 74
7
 40
0.000000
 40
0.000000
 40
0.000000
 40
0.000000
 40
0.399441
 40
1.141260
 40
1.540701
 40
1.543058
 40
1.545415
 40
1.547772
 40
1.547772
 40
1.547772
 40
1.547772
 10
337.025343
 20
221.552419
 30
0.0
 10
336.897230
 20
221.588828
 30
0.0
 10
336.531192
 20
221.692853
 30
0.0
 10
336.032965
 20
221.814026
 30
0.0
 10
335.672456
 20
221.947959
 30
0.0
 10
335.539131
 20
221.967319
 30
0.0
 10
335.536798
 20
221.967652
 30
0.0
 10
335.535242
 20
221.967870
 30
0.0
 10
335.534464
 20
221.967979
 30
0.0
 11
337.025343
 21
221.552419
 31
0.0
 11
336.640634
 21
221.659898
 31
0.0
 11
335.926173
 21
221.859501
 31
0.0
 11
335.541464
 21
221.966979
 31
0.0
 11
335.539131
 21
221.967318
 31
0.0
 11
335.536798
 21
221.967651
 31
0.0
 11
335.534464
 21
221.967979
 31
0.0
  0
LINE
  5
257
100
AcDbEntity
  8
0
 62
7
100
AcDbLine
 10
57.030758
 20
180.265751
 30
0.0
 11
57.023458
 21
180.221851
 31
0.0
  0
LINE
  5
258
100
AcDbEntity
  8
0
 62
7
100
AcDbLine
 10
57.023458
 20
180.221851
 30
0.0
 11
58.006368
 21
180.034351
 31
0.0
  0
LINE
  5
259
100
AcDbEntity
  8
0
 62
7
100
AcDbLine
 10
58.006368
 20
180.034351
 30
0.0
 11
58.246602
 21
179.987451
 31
0.0
  0
SPLINE
  5
25a
100
AcDbEntity
  8
0
 62
7
100
AcDbSpline
 70
0
 71
3
 72
10
 73
6
 74
4
 40
0.000000
 40
0.000000
 40
0.000000
 40
0.000000
 40
5.447071
 40
10.894963
 40
16.344625
 40
16.344625
 40
16.344625
 40
16.344625
 10
41.090329
 20
183.867791
 30
0.0
 10
42.851224
 20
183.424969
 30
0.0
 10
46.373279
 20
182.539258
 30
0.0
 10
51.687139
 20
181.333361
 30
0.0
 10
55.249359
 20
180.621659
 30
0.0
 10
57.030758
 20
180.265751
 30
0.0
 11
41.090329
 21
183.867791
 31
0.0
 11
46.378024
 21
182.559793
 31
0.0
 11
51.691382
 21
181.356562
 31
0.0
 11
57.030758
 21
180.265751
 31
0.0
  0
LINE
  5
25b
100
AcDbEntity
  8
0
 62
7
100
AcDbLine
 10
58.621638
 20
181.951811
 30
0.0
 11
58.617238
 21
181.951811
 31
0.0
  0
SPLINE
  5
25c
100
AcDbEntity
  8
0
 62
7
100
AcDbSpline
 70
0
 71
3
 72
16
 73
12
 74
10
 40
0.000000
 40
0.000000
 40
0.000000
 40
0.000000
 40
0.000389
 40
0.001111
 40
0.001500
 40
0.516033
 40
1.015720
 40
1.530252
 40
2.044785
 40
2.544472
 40
3.059004
 40
3.059004
 40
3.059004
 40
3.059004
 10
58.246602
 20
179.987451
 30
0.0
 10
58.246732
 20
179.987451
 30
0.0
 10
58.247102
 20
179.987451
 30
0.0
 10
58.247602
 20
179.987451
 30
0.0
 10
58.419481
 20
179.987452
 30
0.0
 10
58.771102
 20
179.981193
 30
0.0
 10
59.206943
 20
180.301571
 30
0.0
 10
59.437993
 20
180.778845
 30
0.0
 10
59.398759
 20
181.307729
 30
0.0
 10
59.108499
 20
181.765548
 30
0.0
 10
58.785501
 20
181.889121
 30
0.0
 10
58.621638
 20
181.951811
 30
0.0
 11
58.246602
 21
179.987451
 31
0.0
 11
58.246991
 21
179.987451
 31
0.0
 11
58.247713
 21
179.987451
 31
0.0
 11
58.248102
 21
179.987451
 31
0.0
 11
58.760203
 21
180.037416
 31
0.0
 11
59.169732
 21
180.323726
 31
0.0
 11
59.392508
 21
180.787530
 31
0.0
 11
59.355516
 21
181.300731
 31
0.0
 11
59.079658
 21
181.717372
 31
0.0
 11
58.621638
 21
181.951811
 31
0.0
  0
SPLINE
  5
25d
100
AcDbEntity
  8
0
 62
7
100
AcDbSpline
 70
0
 71
3
 72
10
 73
6
 74
4
 40
0.000000
 40
0.000000
 40
0.000000
 40
0.000000
 40
0.007464
 40
0.015147
 40
0.022803
 40
0.022803
 40
0.022803
 40
0.022803
 10
58.617238
 20
181.951811
 30
0.0
 10
58.614780
 20
181.952225
 30
0.0
 10
58.609792
 20
181.953066
 30
0.0
 10
58.602599
 20
181.955582
 30
0.0
 10
58.597709
 20
181.957069
 30
0.0
 10
58.595268
 20
181.957811
 30
0.0
 11
58.617238
 21
181.951811
 31
0.0
 11
58.609916
 21
181.953256
 31
0.0
 11
58.602577
 21
181.955533
 31
0.0
 11
58.595268
 21
181.957811
 31
0.0
  0
LINE
  5
25e
100
AcDbEntity
  8
0
 62
7
100
AcDbLine
 10
41.534234
 20
185.792771
 30
0.0
 11
41.534177
 21
185.792601
 31
0.0
  0
LINE
  5
25f
100
AcDbEntity
  8
0
 62
7
100
AcDbLine
 10
333.909644
 20
177.623171
 30
0.0
 11
333.912644
 21
177.621171
 31
0.0
  0
SPLINE
  5
260
100
AcDbEntity
  8
0
 62
7
100
AcDbSpline
 70
0
 71
3
 72
10
 73
6
 74
4
 40
0.000000
 40
0.000000
 40
0.000000
 40
0.000000
 40
5.829375
 40
11.658951
 40
17.489761
 40
17.489761
 40
17.489761
 40
17.489761
 10
58.595268
 20
181.957811
 30
0.0
 10
56.688183
 20
182.330691
 30
0.0
 10
52.873946
 20
183.076465
 30
0.0
 10
47.186686
 20
184.362876
 30
0.0
 10
43.418518
 20
185.316105
 30
0.0
 10
41.534234
 20
185.792771
 30
0.0
 11
58.595268
 21
181.957811
 31
0.0
 11
52.879766
 21
183.104393
 31
0.0
 11
47.192965
 21
184.386675
 31
0.0
 11
41.534234
 21
185.792771
 31
0.0
  0
LINE
  5
261
100
AcDbEntity
  8
0
 62
7
100
AcDbLine
 10
333.480514
 20
175.715411
 30
0.0
 11
333.722214
 21
175.605541
 31
0.0
  0
LINE
  5
262
100
AcDbEntity
  8
0
 62
7
100
AcDbLine
 10
333.722214
 20
175.605541
 30
0.0
 11
334.633344
 21
175.195391
 31
0.0
  0
LINE
  5
263
100
AcDbEntity
  8
0
 62
7
100
AcDbLine
 10
334.633344
 20
175.195391
 30
0.0
 11
334.917524
 21
175.067951
 31
0.0
  0
LINE
  5
264
100
AcDbEntity
  8
0
 62
7
100
AcDbLine
 10
334.917524
 20
175.067951
 30
0.0
 11
334.986324
 21
175.037151
 31
0.0
  0
LINE
  5
265
100
AcDbEntity
  8
0
 62
7
100
AcDbLine
 10
334.986324
 20
175.037151
 30
0.0
 11
335.031724
 21
175.015151
 31
0.0
  0
LINE
  5
266
100
AcDbEntity
  8
0
 62
7
100
AcDbLine
 10
335.031724
 20
175.015151
 30
0.0
 11
335.037724
 21
175.013151
 31
0.0
  0
LINE
  5
267
100
AcDbEntity
  8
0
 62
7
100
AcDbLine
 10
335.037724
 20
175.013151
 30
0.0
 11
336.398564
 21
174.387671
 31
0.0
  0
LINE
  5
268
100
AcDbEntity
  8
0
 62
7
100
AcDbLine
 10
336.398564
 20
174.387671
 30
0.0
 11
336.411764
 21
174.380671
 31
0.0
  0
SPLINE
  5
269
100
AcDbEntity
  8
0
 62
7
100
AcDbSpline
 70
0
 71
3
 72
13
 73
9
 74
7
 40
0.000000
 40
0.000000
 40
0.000000
 40
0.000000
 40
0.451608
 40
0.892847
 40
1.344455
 40
1.796064
 40
2.237303
 40
2.688911
 40
2.688911
 40
2.688911
 40
2.688911
 10
333.912644
 20
177.621171
 30
0.0
 10
333.760658
 20
177.602092
 30
0.0
 10
333.460176
 20
177.564371
 30
0.0
 10
333.097163
 20
177.265338
 30
0.0
 10
332.894764
 20
176.850102
 30
0.0
 10
332.898268
 20
176.388178
 30
0.0
 10
333.096797
 20
175.961816
 30
0.0
 10
333.351622
 20
175.798180
 30
0.0
 10
333.480514
 20
175.715411
 30
0.0
 11
333.912644
 21
177.621171
 31
0.0
 11
333.471885
 21
177.522777
 31
0.0
 11
333.126013
 21
177.248798
 31
0.0
 11
332.929346
 21
176.842261
 31
0.0
 11
332.931430
 21
176.390657
 31
0.0
 11
333.125301
 21
175.994292
 31
0.0
 11
333.480514
 21
175.715411
 31
0.0
  0
LINE
  5
26a
100
AcDbEntity
  8
0
 62
7
100
AcDbLine
 10
336.414764
 20
174.380671
 30
0.0
 11
337.821013
 21
173.722961
 31
0.0
  0
LINE
  5
26b
100
AcDbEntity
  8
0
 62
7
100
AcDbLine
 10
337.821013
 20
173.722961
 30
0.0
 11
337.964563
 21
173.654161
 31
0.0
  0
LINE
  5
26c
100
AcDbEntity
  8
0
 62
7
100
AcDbLine
 10
337.964563
 20
173.654161
 30
0.0
 11
339.301963
 21
173.016952
 31
0.0
  0
LINE
  5
26d
100
AcDbEntity
  8
0
 62
7
100
AcDbLine
 10
339.301963
 20
173.016952
 30
0.0
 11
339.574423
 21
172.885112
 31
0.0
  0
LINE
  5
26e
100
AcDbEntity
  8
0
 62
7
100
AcDbLine
 10
339.574423
 20
172.885112
 30
0.0
 11
340.837123
 21
172.272812
 31
0.0
  0
LINE
  5
26f
100
AcDbEntity
  8
0
 62
7
100
AcDbLine
 10
340.837123
 20
172.272812
 30
0.0
 11
341.242883
 21
172.073592
 31
0.0
  0
LINE
  5
270
100
AcDbEntity
  8
0
 62
7
100
AcDbLine
 10
341.242883
 20
172.073592
 30
0.0
 11
342.430873
 21
171.487652
 31
0.0
  0
LINE
  5
271
100
AcDbEntity
  8
0
 62
7
100
AcDbLine
 10
342.430873
 20
171.487652
 30
0.0
 11
342.967003
 21
171.221052
 31
0.0
  0
LINE
  5
272
100
AcDbEntity
  8
0
 62
7
100
AcDbLine
 10
342.967003
 20
171.221052
 30
0.0
 11
344.084683
 21
170.661482
 31
0.0
  0
LINE
  5
273
100
AcDbEntity
  8
0
 62
7
100
AcDbLine
 10
344.084683
 20
170.661482
 30
0.0
 11
344.754123
 21
170.321642
 31
0.0
  0
LINE
  5
274
100
AcDbEntity
  8
0
 62
7
100
AcDbLine
 10
344.754123
 20
170.321642
 30
0.0
 11
345.795623
 21
169.792832
 31
0.0
  0
LINE
  5
275
100
AcDbEntity
  8
0
 62
7
100
AcDbLine
 10
345.795623
 20
169.792832
 30
0.0
 11
346.599823
 21
169.378282
 31
0.0
  0
LINE
  5
276
100
AcDbEntity
  8
0
 62
7
100
AcDbLine
 10
346.599823
 20
169.378282
 30
0.0
 11
347.569543
 21
168.880232
 31
0.0
  0
LINE
  5
277
100
AcDbEntity
  8
0
 62
7
100
AcDbLine
 10
347.569543
 20
168.880232
 30
0.0
 11
348.509983
 21
168.390972
 31
0.0
  0
LINE
  5
278
100
AcDbEntity
  8
0
 62
7
100
AcDbLine
 10
348.509983
 20
168.390972
 30
0.0
 11
349.402063
 21
167.923692
 31
0.0
  0
LINE
  5
279
100
AcDbEntity
  8
0
 62
7
100
AcDbLine
 10
349.402063
 20
167.923692
 30
0.0
 11
350.483123
 21
167.353862
 31
0.0
  0
LINE
  5
27a
100
AcDbEntity
  8
0
 62
7
100
AcDbLine
 10
350.483123
 20
167.353862
 30
0.0
 11
351.301963
 21
166.920272
 31
0.0
  0
LINE
  5
27b
100
AcDbEntity
  8
0
 62
7
100
AcDbLine
 10
351.301963
 20
166.920272
 30
0.0
 11
352.520713
 21
166.266952
 31
0.0
  0
LINE
  5
27c
100
AcDbEntity
  8
0
 62
7
100
AcDbLine
 10
352.520713
 20
166.266952
 30
0.0
 11
353.261923
 21
165.868512
 31
0.0
  0
LINE
  5
27d
100
AcDbEntity
  8
0
 62
7
100
AcDbLine
 10
353.261923
 20
165.868512
 30
0.0
 11
354.275603
 21
165.320662
 31
0.0
  0
LINE
  5
27e
100
AcDbEntity
  8
0
 62
7
100
AcDbLine
 10
354.275603
 20
165.320662
 30
0.0
 11
353.925503
 21
167.781602
 31
0.0
  0
LINE
  5
27f
100
AcDbEntity
  8
0
 62
7
100
AcDbLine
 10
353.925503
 20
167.781602
 30
0.0
 11
353.462613
 21
168.030632
 31
0.0
  0
SPLINE
  5
280
100
AcDbEntity
  8
0
 62
7
100
AcDbSpline
 70
0
 71
3
 72
10
 73
6
 74
4
 40
0.000000
 40
0.000000
 40
0.000000
 40
0.000000
 40
0.001000
 40
0.002000
 40
0.003000
 40
0.003000
 40
0.003000
 40
0.003000
 10
336.411764
 20
174.380671
 30
0.0
 10
336.412097
 20
174.380671
 30
0.0
 10
336.412764
 20
174.380670
 30
0.0
 10
336.413764
 20
174.380670
 30
0.0
 10
336.414430
 20
174.380671
 30
0.0
 10
336.414764
 20
174.380671
 30
0.0
 11
336.411764
 21
174.380671
 31
0.0
 11
336.412764
 21
174.380670
 31
0.0
 11
336.413764
 21
174.380670
 31
0.0
 11
336.414764
 21
174.380671
 31
0.0
  0
LINE
  5
281
100
AcDbEntity
  8
0
 62
7
100
AcDbLine
 10
352.237403
 20
168.686942
 30
0.0
 11
351.415623
 21
169.120532
 31
0.0
  0
LINE
  5
282
100
AcDbEntity
  8
0
 62
7
100
AcDbLine
 10
351.415623
 20
169.120532
 30
0.0
 11
350.334563
 21
169.693292
 31
0.0
  0
SPLINE
  5
283
100
AcDbEntity
  8
0
 62
7
100
AcDbSpline
 70
0
 71
3
 72
13
 73
9
 74
7
 40
0.000000
 40
0.000000
 40
0.000000
 40
0.000000
 40
0.358840
 40
1.025257
 40
1.384098
 40
1.386041
 40
1.387985
 40
1.389929
 40
1.389929
 40
1.389929
 40
1.389929
 10
353.462613
 20
168.030632
 30
0.0
 10
353.357056
 20
168.086904
 30
0.0
 10
353.055467
 20
168.247682
 30
0.0
 10
352.651829
 20
168.470900
 30
0.0
 10
352.344260
 20
168.622476
 30
0.0
 10
352.240738
 20
168.684946
 30
0.0
 10
352.239072
 20
168.685946
 30
0.0
 10
352.237959
 20
168.686610
 30
0.0
 10
352.237403
 20
168.686942
 30
0.0
 11
353.462613
 21
168.030632
 31
0.0
 11
353.146262
 21
168.200008
 31
0.0
 11
352.558753
 21
168.514565
 31
0.0
 11
352.242403
 21
168.683942
 31
0.0
 11
352.240738
 21
168.684945
 31
0.0
 11
352.239071
 21
168.685945
 31
0.0
 11
352.237403
 21
168.686942
 31
0.0
  0
LINE
  5
284
100
AcDbEntity
  8
0
 62
7
100
AcDbLine
 10
350.328563
 20
169.696292
 30
0.0
 11
349.432083
 21
170.162102
 31
0.0
  0
LINE
  5
285
100
AcDbEntity
  8
0
 62
7
100
AcDbLine
 10
349.432083
 20
170.162102
 30
0.0
 11
348.491653
 21
170.654292
 31
0.0
  0
SPLINE
  5
286
100
AcDbEntity
  8
0
 62
7
100
AcDbSpline
 70
0
 71
3
 72
10
 73
6
 74
4
 40
0.000000
 40
0.000000
 40
0.000000
 40
0.000000
 40
0.002236
 40
0.004472
 40
0.006708
 40
0.006708
 40
0.006708
 40
0.006708
 10
350.334563
 20
169.693292
 30
0.0
 10
350.333897
 20
169.693627
 30
0.0
 10
350.332566
 20
169.694297
 30
0.0
 10
350.330566
 20
169.695297
 30
0.0
 10
350.329230
 20
169.695960
 30
0.0
 10
350.328563
 20
169.696292
 30
0.0
 11
350.334563
 21
169.693292
 31
0.0
 11
350.332565
 21
169.694296
 31
0.0
 11
350.330565
 21
169.695296
 31
0.0
 11
350.328563
 21
169.696292
 31
0.0
  0
LINE
  5
287
100
AcDbEntity
  8
0
 62
7
100
AcDbLine
 10
348.483653
 20
170.659292
 30
0.0
 11
347.513933
 21
171.158812
 31
0.0
  0
LINE
  5
288
100
AcDbEntity
  8
0
 62
7
100
AcDbLine
 10
347.513933
 20
171.158812
 30
0.0
 11
346.706793
 21
171.573352
 31
0.0
  0
SPLINE
  5
289
100
AcDbEntity
  8
0
 62
7
100
AcDbSpline
 70
0
 71
3
 72
10
 73
6
 74
4
 40
0.000000
 40
0.000000
 40
0.000000
 40
0.000000
 40
0.003145
 40
0.006289
 40
0.009434
 40
0.009434
 40
0.009434
 40
0.009434
 10
348.491653
 20
170.654292
 30
0.0
 10
348.490766
 20
170.654851
 30
0.0
 10
348.488993
 20
170.655968
 30
0.0
 10
348.486326
 20
170.657635
 30
0.0
 10
348.484544
 20
170.658739
 30
0.0
 10
348.483653
 20
170.659292
 30
0.0
 11
348.491653
 21
170.654292
 31
0.0
 11
348.488991
 21
170.655967
 31
0.0
 11
348.486325
 21
170.657633
 31
0.0
 11
348.483653
 21
170.659292
 31
0.0
  0
LINE
  5
28a
100
AcDbEntity
  8
0
 62
7
100
AcDbLine
 10
346.700793
 20
171.578352
 30
0.0
 11
345.656363
 21
172.107162
 31
0.0
  0
SPLINE
  5
28b
100
AcDbEntity
  8
0
 62
7
100
AcDbSpline
 70
0
 71
3
 72
10
 73
6
 74
4
 40
0.000000
 40
0.000000
 40
0.000000
 40
0.000000
 40
0.002603
 40
0.005207
 40
0.007810
 40
0.007810
 40
0.007810
 40
0.007810
 10
346.706793
 20
171.573352
 30
0.0
 10
346.706128
 20
171.573909
 30
0.0
 10
346.704798
 20
171.575025
 30
0.0
 10
346.702798
 20
171.576691
 30
0.0
 10
346.701461
 20
171.577798
 30
0.0
 10
346.700793
 20
171.578352
 30
0.0
 11
346.706793
 21
171.573352
 31
0.0
 11
346.704797
 21
171.575023
 31
0.0
 11
346.702797
 21
171.576690
 31
0.0
 11
346.700793
 21
171.578352
 31
0.0
  0
LINE
  5
28c
100
AcDbEntity
  8
0
 62
7
100
AcDbLine
 10
344.978003
 20
172.451472
 30
0.0
 11
343.858863
 21
173.011052
 31
0.0
  0
LINE
  5
28d
100
AcDbEntity
  8
0
 62
7
100
AcDbLine
 10
343.858863
 20
173.011052
 30
0.0
 11
343.319793
 21
173.280582
 31
0.0
  0
SPLINE
  5
28e
100
AcDbEntity
  8
0
 62
7
100
AcDbSpline
 70
0
 71
3
 72
13
 73
9
 74
7
 40
0.000000
 40
0.000000
 40
0.000000
 40
0.000000
 40
0.195489
 40
0.558540
 40
0.754029
 40
0.756266
 40
0.758502
 40
0.760738
 40
0.760738
 40
0.760738
 40
0.760738
 10
345.656363
 20
172.107162
 30
0.0
 10
345.598261
 20
172.136664
 30
0.0
 10
345.432257
 20
172.220958
 30
0.0
 10
345.208035
 20
172.334527
 30
0.0
 10
345.041543
 20
172.419510
 30
0.0
 10
344.982006
 20
172.449477
 30
0.0
 10
344.980006
 20
172.450477
 30
0.0
 10
344.978671
 20
172.451140
 30
0.0
 10
344.978003
 20
172.451472
 30
0.0
 11
345.656363
 21
172.107162
 31
0.0
 11
345.482048
 21
172.195649
 31
0.0
 11
345.158319
 21
172.359984
 31
0.0
 11
344.984003
 21
172.448472
 31
0.0
 11
344.982005
 21
172.449476
 31
0.0
 11
344.980005
 21
172.450476
 31
0.0
 11
344.978003
 21
172.451472
 31
0.0
  0
LINE
  5
28f
100
AcDbEntity
  8
0
 62
7
100
AcDbLine
 10
343.313793
 20
173.283582
 30
0.0
 11
342.122883
 21
173.870981
 31
0.0
  0
LINE
  5
290
100
AcDbEntity
  8
0
 62
7
100
AcDbLine
 10
342.122883
 20
173.870981
 30
0.0
 11
341.714183
 21
174.070201
 31
0.0
  0
SPLINE
  5
291
100
AcDbEntity
  8
0
 62
7
100
AcDbSpline
 70
0
 71
3
 72
10
 73
6
 74
4
 40
0.000000
 40
0.000000
 40
0.000000
 40
0.000000
 40
0.002236
 40
0.004472
 40
0.006708
 40
0.006708
 40
0.006708
 40
0.006708
 10
343.319793
 20
173.280582
 30
0.0
 10
343.319127
 20
173.280917
 30
0.0
 10
343.317796
 20
173.281587
 30
0.0
 10
343.315796
 20
173.282587
 30
0.0
 10
343.314461
 20
173.283250
 30
0.0
 10
343.313793
 20
173.283582
 30
0.0
 11
343.319793
 21
173.280582
 31
0.0
 11
343.317795
 21
173.281586
 31
0.0
 11
343.315795
 21
173.282586
 31
0.0
 11
343.313793
 21
173.283582
 31
0.0
  0
LINE
  5
292
100
AcDbEntity
  8
0
 62
7
100
AcDbLine
 10
341.708183
 20
174.074201
 30
0.0
 11
340.442553
 21
174.686501
 31
0.0
  0
LINE
  5
293
100
AcDbEntity
  8
0
 62
7
100
AcDbLine
 10
340.442553
 20
174.686501
 30
0.0
 11
340.167163
 21
174.819801
 31
0.0
  0
SPLINE
  5
294
100
AcDbEntity
  8
0
 62
7
100
AcDbSpline
 70
0
 71
3
 72
10
 73
6
 74
4
 40
0.000000
 40
0.000000
 40
0.000000
 40
0.000000
 40
0.002404
 40
0.004807
 40
0.007211
 40
0.007211
 40
0.007211
 40
0.007211
 10
341.714183
 20
174.070201
 30
0.0
 10
341.713518
 20
174.070648
 30
0.0
 10
341.712187
 20
174.071541
 30
0.0
 10
341.710187
 20
174.072874
 30
0.0
 10
341.708851
 20
174.073759
 30
0.0
 10
341.708183
 20
174.074201
 30
0.0
 11
341.714183
 21
174.070201
 31
0.0
 11
341.712186
 21
174.071540
 31
0.0
 11
341.710186
 21
174.072873
 31
0.0
 11
341.708183
 21
174.074201
 31
0.0
  0
LINE
  5
295
100
AcDbEntity
  8
0
 62
7
100
AcDbLine
 10
340.161163
 20
174.823801
 30
0.0
 11
338.820833
 21
175.459541
 31
0.0
  0
LINE
  5
296
100
AcDbEntity
  8
0
 62
7
100
AcDbLine
 10
338.820833
 20
175.459541
 30
0.0
 11
338.674353
 21
175.529841
 31
0.0
  0
SPLINE
  5
297
100
AcDbEntity
  8
0
 62
7
100
AcDbSpline
 70
0
 71
3
 72
10
 73
6
 74
4
 40
0.000000
 40
0.000000
 40
0.000000
 40
0.000000
 40
0.002404
 40
0.004807
 40
0.007211
 40
0.007211
 40
0.007211
 40
0.007211
 10
340.167163
 20
174.819801
 30
0.0
 10
340.166498
 20
174.820248
 30
0.0
 10
340.165167
 20
174.821141
 30
0.0
 10
340.163167
 20
174.822474
 30
0.0
 10
340.161831
 20
174.823359
 30
0.0
 10
340.161163
 20
174.823801
 30
0.0
 11
340.167163
 21
174.819801
 31
0.0
 11
340.165167
 21
174.821140
 31
0.0
 11
340.163167
 21
174.822473
 31
0.0
 11
340.161163
 21
174.823801
 31
0.0
  0
LINE
  5
298
100
AcDbEntity
  8
0
 62
7
100
AcDbLine
 10
338.668353
 20
175.532841
 30
0.0
 11
337.257703
 21
176.193481
 31
0.0
  0
LINE
  5
299
100
AcDbEntity
  8
0
 62
7
100
AcDbLine
 10
337.257703
 20
176.193481
 30
0.0
 11
337.243103
 21
176.200481
 31
0.0
  0
SPLINE
  5
29a
100
AcDbEntity
  8
0
 62
7
100
AcDbSpline
 70
0
 71
3
 72
10
 73
6
 74
4
 40
0.000000
 40
0.000000
 40
0.000000
 40
0.000000
 40
0.002236
 40
0.004472
 40
0.006708
 40
0.006708
 40
0.006708
 40
0.006708
 10
338.674353
 20
175.529841
 30
0.0
 10
338.673688
 20
175.530177
 30
0.0
 10
338.672356
 20
175.530847
 30
0.0
 10
338.670356
 20
175.531847
 30
0.0
 10
338.669021
 20
175.532510
 30
0.0
 10
338.668353
 20
175.532841
 30
0.0
 11
338.674353
 21
175.529841
 31
0.0
 11
338.672356
 21
175.530846
 31
0.0
 11
338.670356
 21
175.531846
 31
0.0
 11
338.668353
 21
175.532841
 31
0.0
  0
LINE
  5
29b
100
AcDbEntity
  8
0
 62
7
100
AcDbLine
 10
337.234103
 20
176.205481
 30
0.0
 11
335.873264
 21
176.829501
 31
0.0
  0
SPLINE
  5
29c
100
AcDbEntity
  8
0
 62
7
100
AcDbSpline
 70
0
 71
3
 72
10
 73
6
 74
4
 40
0.000000
 40
0.000000
 40
0.000000
 40
0.000000
 40
0.003432
 40
0.006864
 40
0.010296
 40
0.010296
 40
0.010296
 40
0.010296
 10
337.243103
 20
176.200481
 30
0.0
 10
337.242106
 20
176.201041
 30
0.0
 10
337.240110
 20
176.202160
 30
0.0
 10
337.237110
 20
176.203827
 30
0.0
 10
337.235106
 20
176.204930
 30
0.0
 10
337.234103
 20
176.205481
 30
0.0
 11
337.243103
 21
176.200481
 31
0.0
 11
337.240109
 21
176.202158
 31
0.0
 11
337.237109
 21
176.203825
 31
0.0
 11
337.234103
 21
176.205481
 31
0.0
  0
LINE
  5
29d
100
AcDbEntity
  8
0
 62
7
100
AcDbLine
 10
335.868264
 20
176.832501
 30
0.0
 11
335.861264
 21
176.835501
 31
0.0
  0
LINE
  5
29e
100
AcDbEntity
  8
0
 62
7
100
AcDbLine
 10
335.861264
 20
176.835501
 30
0.0
 11
335.854264
 21
176.838501
 31
0.0
  0
SPLINE
  5
29f
100
AcDbEntity
  8
0
 62
7
100
AcDbSpline
 70
0
 71
3
 72
10
 73
6
 74
4
 40
0.000000
 40
0.000000
 40
0.000000
 40
0.000000
 40
0.001944
 40
0.003887
 40
0.005831
 40
0.005831
 40
0.005831
 40
0.005831
 10
335.873264
 20
176.829501
 30
0.0
 10
335.872709
 20
176.829836
 30
0.0
 10
335.871599
 20
176.830505
 30
0.0
 10
335.869933
 20
176.831505
 30
0.0
 10
335.868820
 20
176.832169
 30
0.0
 10
335.868264
 20
176.832501
 30
0.0
 11
335.873264
 21
176.829501
 31
0.0
 11
335.871599
 21
176.830505
 31
0.0
 11
335.869932
 21
176.831505
 31
0.0
 11
335.868264
 21
176.832501
 31
0.0
  0
LINE
  5
2a0
100
AcDbEntity
  8
0
 62
7
100
AcDbLine
 10
335.726794
 20
176.897201
 30
0.0
 11
335.451394
 21
177.020251
 31
0.0
  0
LINE
  5
2a1
100
AcDbEntity
  8
0
 62
7
100
AcDbLine
 10
335.451394
 20
177.020251
 30
0.0
 11
335.451394
 21
177.021251
 31
0.0
  0
LINE
  5
2a2
100
AcDbEntity
  8
0
 62
7
100
AcDbLine
 10
335.451394
 20
177.021251
 30
0.0
 11
334.538804
 21
177.431411
 31
0.0
  0
LINE
  5
2a3
100
AcDbEntity
  8
0
 62
7
100
AcDbLine
 10
334.538804
 20
177.431411
 30
0.0
 11
334.297104
 21
177.541271
 31
0.0
  0
SPLINE
  5
2a4
100
AcDbEntity
  8
0
 62
7
100
AcDbSpline
 70
0
 71
3
 72
13
 73
9
 74
7
 40
0.000000
 40
0.000000
 40
0.000000
 40
0.000000
 40
0.030086
 40
0.085959
 40
0.116045
 40
0.124143
 40
0.132240
 40
0.140337
 40
0.140337
 40
0.140337
 40
0.140337
 10
335.854264
 20
176.838501
 30
0.0
 10
335.845147
 20
176.842680
 30
0.0
 10
335.819099
 20
176.854618
 30
0.0
 10
335.784003
 20
176.870880
 30
0.0
 10
335.755386
 20
176.883697
 30
0.0
 10
335.741496
 20
176.890410
 30
0.0
 10
335.734160
 20
176.893838
 30
0.0
 10
335.729249
 20
176.896080
 30
0.0
 10
335.726794
 20
176.897201
 30
0.0
 11
335.854264
 21
176.838501
 31
0.0
 11
335.826919
 21
176.851049
 31
0.0
 11
335.776138
 21
176.874353
 31
0.0
 11
335.748794
 21
176.886901
 31
0.0
 11
335.741488
 21
176.890394
 31
0.0
 11
335.734155
 21
176.893827
 31
0.0
 11
335.726794
 21
176.897201
 31
0.0
  0
LINE
  5
2a5
100
AcDbEntity
  8
0
 62
7
100
AcDbLine
 10
333.907454
 20
177.623271
 30
0.0
 11
333.909644
 21
177.623171
 31
0.0
  0
SPLINE
  5
2a6
100
AcDbEntity
  8
0
 62
7
100
AcDbSpline
 70
0
 71
3
 72
10
 73
6
 74
4
 40
0.000000
 40
0.000000
 40
0.000000
 40
0.000000
 40
0.133620
 40
0.266945
 40
0.400565
 40
0.400565
 40
0.400565
 40
0.400565
 10
334.297104
 20
177.541271
 30
0.0
 10
334.255502
 20
177.557301
 30
0.0
 10
334.172391
 20
177.589325
 30
0.0
 10
334.040956
 20
177.616984
 30
0.0
 10
333.951987
 20
177.621174
 30
0.0
 10
333.907454
 20
177.623271
 30
0.0
 11
334.297104
 21
177.541271
 31
0.0
 11
334.171176
 21
177.585955
 31
0.0
 11
334.040709
 21
177.613411
 31
0.0
 11
333.907454
 21
177.623271
 31
0.0
  0
LINE
  5
2a7
100
AcDbEntity
  8
0
 62
7
100
AcDbLine
 10
22.360838
 20
107.492315
 30
0.0
 11
21.363280
 21
107.419015
 31
0.0
  0
LINE
  5
2a8
100
AcDbEntity
  8
0
 62
7
100
AcDbLine
 10
21.363280
 20
107.419015
 30
0.0
 11
21.509765
 21
105.423895
 31
0.0
  0
LINE
  5
2a9
100
AcDbEntity
  8
0
 62
7
100
AcDbLine
 10
21.509765
 20
105.423895
 30
0.0
 11
22.507323
 21
105.497195
 31
0.0
  0
SPLINE
  5
2aa
100
AcDbEntity
  8
0
 62
7
100
AcDbSpline
 70
0
 71
3
 72
10
 73
6
 74
4
 40
0.000000
 40
0.000000
 40
0.000000
 40
0.000000
 40
6.685920
 40
13.373265
 40
20.061531
 40
20.061531
 40
20.061531
 40
20.061531
 10
42.339841
 20
109.299925
 30
0.0
 10
40.123362
 20
109.067222
 30
0.0
 10
35.689932
 20
108.601766
 30
0.0
 10
29.029310
 20
108.002960
 30
0.0
 10
24.583764
 20
107.662537
 30
0.0
 10
22.360838
 20
107.492315
 30
0.0
 11
42.339841
 21
109.299925
 31
0.0
 11
35.688748
 21
108.618383
 31
0.0
 11
29.028437
 21
108.017690
 31
0.0
 11
22.360838
 21
107.492315
 31
0.0
  0
LINE
  5
2ab
100
AcDbEntity
  8
0
 62
7
100
AcDbLine
 10
42.814451
 20
107.351695
 30
0.0
 11
42.339841
 21
109.299925
 31
0.0
  0
LINE
  5
2ac
100
AcDbEntity
  8
0
 62
7
100
AcDbLine
 10
349.699193
 20
104.908325
 30
0.0
 11
349.075173
 21
102.757945
 31
0.0
  0
LINE
  5
2ad
100
AcDbEntity
  8
0
 62
7
100
AcDbLine
 10
349.075173
 20
102.757945
 30
0.0
 11
349.728493
 21
102.148565
 31
0.0
  0
LINE
  5
2ae
100
AcDbEntity
  8
0
 62
7
100
AcDbLine
 10
349.728493
 20
102.148565
 30
0.0
 11
350.279273
 21
101.634405
 31
0.0
  0
LINE
  5
2af
100
AcDbEntity
  8
0
 62
7
100
AcDbLine
 10
350.279273
 20
101.634405
 30
0.0
 11
351.603493
 21
100.392215
 31
0.0
  0
LINE
  5
2b0
100
AcDbEntity
  8
0
 62
7
100
AcDbLine
 10
351.603493
 20
100.392215
 30
0.0
 11
352.079563
 21
99.945445
 31
0.0
  0
LINE
  5
2b1
100
AcDbEntity
  8
0
 62
7
100
AcDbLine
 10
352.079563
 20
99.945445
 30
0.0
 11
353.554663
 21
98.550905
 31
0.0
  0
LINE
  5
2b2
100
AcDbEntity
  8
0
 62
7
100
AcDbLine
 10
353.554663
 20
98.550905
 30
0.0
 11
353.951643
 21
98.175905
 31
0.0
  0
LINE
  5
2b3
100
AcDbEntity
  8
0
 62
7
100
AcDbLine
 10
353.951643
 20
98.175905
 30
0.0
 11
355.580543
 21
96.623175
 31
0.0
  0
LINE
  5
2b4
100
AcDbEntity
  8
0
 62
7
100
AcDbLine
 10
355.580543
 20
96.623175
 30
0.0
 11
355.898413
 21
96.321415
 31
0.0
  0
LINE
  5
2b5
100
AcDbEntity
  8
0
 62
7
100
AcDbLine
 10
355.898413
 20
96.321415
 30
0.0
 11
357.686992
 21
94.603155
 31
0.0
  0
LINE
  5
2b6
100
AcDbEntity
  8
0
 62
7
100
AcDbLine
 10
357.686992
 20
94.603155
 30
0.0
 11
357.921372
 21
94.377565
 31
0.0
  0
LINE
  5
2b7
100
AcDbEntity
  8
0
 62
7
100
AcDbLine
 10
357.921372
 20
94.377565
 30
0.0
 11
359.876932
 21
92.489385
 31
0.0
  0
LINE
  5
2b8
100
AcDbEntity
  8
0
 62
7
100
AcDbLine
 10
359.876932
 20
92.489385
 30
0.0
 11
360.027812
 21
92.341435
 31
0.0
  0
LINE
  5
2b9
100
AcDbEntity
  8
0
 62
7
100
AcDbLine
 10
360.027812
 20
92.341435
 30
0.0
 11
362.151832
 21
90.273076
 31
0.0
  0
LINE
  5
2ba
100
AcDbEntity
  8
0
 62
7
100
AcDbLine
 10
362.151832
 20
90.273076
 30
0.0
 11
362.216232
 21
90.211576
 31
0.0
  0
LINE
  5
2bb
100
AcDbEntity
  8
0
 62
7
100
AcDbLine
 10
362.216232
 20
90.211576
 30
0.0
 11
364.483812
 21
87.990866
 31
0.0
  0
SPLINE
  5
2bc
100
AcDbEntity
  8
0
 62
7
100
AcDbSpline
 70
0
 71
3
 72
10
 73
6
 74
4
 40
0.000000
 40
0.000000
 40
0.000000
 40
0.000000
 40
6.796341
 40
13.593950
 40
20.392648
 40
20.392648
 40
20.392648
 40
20.392648
 10
22.507323
 20
105.497195
 30
0.0
 10
24.766135
 20
105.670632
 30
0.0
 10
29.284182
 20
106.017538
 30
0.0
 10
36.054192
 20
106.632562
 30
0.0
 10
40.560911
 20
107.111971
 30
0.0
 10
42.814451
 20
107.351695
 30
0.0
 11
22.507323
 21
105.497195
 31
0.0
 11
29.282489
 21
106.033271
 31
0.0
 11
36.052075
 21
106.649865
 31
0.0
 11
42.814451
 21
107.351695
 31
0.0
  0
LINE
  5
2bd
100
AcDbEntity
  8
0
 62
7
100
AcDbLine
 10
364.492812
 20
87.980866
 30
0.0
 11
364.497812
 21
87.978866
 31
0.0
  0
LINE
  5
2be
100
AcDbEntity
  8
0
 62
7
100
AcDbLine
 10
364.497812
 20
87.978866
 30
0.0
 11
364.522712
 21
87.952466
 31
0.0
  0
LINE
  5
2bf
100
AcDbEntity
  8
0
 62
7
100
AcDbLine
 10
364.522712
 20
87.952466
 30
0.0
 11
366.153072
 21
86.344076
 31
0.0
  0
LINE
  5
2c0
100
AcDbEntity
  8
0
 62
7
100
AcDbLine
 10
366.153072
 20
86.344076
 30
0.0
 11
366.866462
 21
85.640946
 31
0.0
  0
SPLINE
  5
2c1
100
AcDbEntity
  8
0
 62
7
100
AcDbSpline
 70
0
 71
3
 72
13
 73
9
 74
7
 40
0.000000
 40
0.000000
 40
0.000000
 40
0.000000
 40
0.001296
 40
0.003704
 40
0.005000
 40
0.007828
 40
0.010657
 40
0.013485
 40
0.013485
 40
0.013485
 40
0.013485
 10
364.483812
 20
87.990866
 30
0.0
 10
364.484071
 20
87.990520
 30
0.0
 10
364.484810
 20
87.989531
 30
0.0
 10
364.485825
 20
87.988210
 30
0.0
 10
364.487083
 20
87.986426
 30
0.0
 10
364.488836
 20
87.984886
 30
0.0
 10
364.490798
 20
87.982852
 30
0.0
 10
364.492141
 20
87.981528
 30
0.0
 10
364.492812
 20
87.980866
 30
0.0
 11
364.483812
 21
87.990866
 31
0.0
 11
364.484590
 21
87.989829
 31
0.0
 11
364.486034
 21
87.987903
 31
0.0
 11
364.486812
 21
87.986866
 31
0.0
 11
364.488806
 21
87.984860
 31
0.0
 11
364.490806
 21
87.982860
 31
0.0
 11
364.492812
 21
87.980866
 31
0.0
  0
LINE
  5
2c2
100
AcDbEntity
  8
0
 62
7
100
AcDbLine
 10
368.389892
 20
86.949056
 30
0.0
 11
367.557862
 21
87.767906
 31
0.0
  0
LINE
  5
2c3
100
AcDbEntity
  8
0
 62
7
100
AcDbLine
 10
367.557862
 20
87.767906
 30
0.0
 11
365.930422
 21
89.373366
 31
0.0
  0
SPLINE
  5
2c4
100
AcDbEntity
  8
0
 62
7
100
AcDbSpline
 70
0
 71
3
 72
16
 73
12
 74
10
 40
0.000000
 40
0.000000
 40
0.000000
 40
0.000000
 40
0.042969
 40
0.122769
 40
0.165738
 40
0.686983
 40
1.192852
 40
1.714097
 40
2.235342
 40
2.741211
 40
3.262456
 40
3.262456
 40
3.262456
 40
3.262456
 10
366.866462
 20
85.640946
 30
0.0
 10
366.876711
 20
85.630941
 30
0.0
 10
366.905994
 20
85.602356
 30
0.0
 10
366.945681
 20
85.563905
 30
0.0
 10
367.098038
 20
85.412846
 30
0.0
 10
367.423702
 20
85.226032
 30
0.0
 10
367.962627
 20
85.232464
 30
0.0
 10
368.430211
 20
85.505543
 30
0.0
 10
368.693618
 20
85.973091
 30
0.0
 10
368.702371
 20
86.523120
 30
0.0
 10
368.495086
 20
86.805667
 30
0.0
 10
368.389892
 20
86.949056
 30
0.0
 11
366.866462
 21
85.640946
 31
0.0
 11
366.897223
 21
85.610944
 31
0.0
 11
366.954351
 21
85.555227
 31
0.0
 11
366.985112
 21
85.525226
 31
0.0
 11
367.439948
 21
85.270627
 31
0.0
 11
367.945795
 21
85.275306
 31
0.0
 11
368.395843
 21
85.538277
 31
0.0
 11
368.652728
 21
85.991826
 31
0.0
 11
368.650594
 21
86.497690
 31
0.0
 11
368.389892
 21
86.949056
 31
0.0
  0
LINE
  5
2c5
100
AcDbEntity
  8
0
 62
7
100
AcDbLine
 10
365.920122
 20
89.382366
 30
0.0
 11
365.899522
 21
89.404366
 31
0.0
  0
LINE
  5
2c6
100
AcDbEntity
  8
0
 62
7
100
AcDbLine
 10
365.899522
 20
89.404366
 30
0.0
 11
365.894522
 21
89.409366
 31
0.0
  0
SPLINE
  5
2c7
100
AcDbEntity
  8
0
 62
7
100
AcDbSpline
 70
0
 71
3
 72
10
 73
6
 74
4
 40
0.000000
 40
0.000000
 40
0.000000
 40
0.000000
 40
0.004559
 40
0.009119
 40
0.013678
 40
0.013678
 40
0.013678
 40
0.013678
 10
365.930422
 20
89.373366
 30
0.0
 10
365.929283
 20
89.374372
 30
0.0
 10
365.927005
 20
89.376384
 30
0.0
 10
365.923572
 20
89.379384
 30
0.0
 10
365.921272
 20
89.381372
 30
0.0
 10
365.920122
 20
89.382366
 30
0.0
 11
365.930422
 21
89.373366
 31
0.0
 11
365.927002
 21
89.376381
 31
0.0
 11
365.923569
 21
89.379381
 31
0.0
 11
365.920122
 21
89.382366
 31
0.0
  0
LINE
  5
2c8
100
AcDbEntity
  8
0
 62
7
100
AcDbLine
 10
363.613622
 20
91.647396
 30
0.0
 11
363.549222
 21
91.708896
 31
0.0
  0
SPLINE
  5
2c9
100
AcDbEntity
  8
0
 62
7
100
AcDbSpline
 70
0
 71
3
 72
16
 73
12
 74
10
 40
0.000000
 40
0.000000
 40
0.000000
 40
0.000000
 40
0.002357
 40
0.004714
 40
0.007071
 40
0.832611
 40
2.365756
 40
3.191296
 40
3.192995
 40
3.194695
 40
3.196395
 40
3.196395
 40
3.196395
 40
3.196395
 10
365.894522
 20
89.409366
 30
0.0
 10
365.893968
 20
89.409923
 30
0.0
 10
365.892860
 20
89.411037
 30
0.0
 10
365.891193
 20
89.412704
 30
0.0
 10
365.694961
 20
89.607851
 30
0.0
 10
365.105966
 20
90.142768
 30
0.0
 10
364.501662
 20
90.969429
 30
0.0
 10
363.667722
 20
91.372893
 30
0.0
 10
363.614293
 20
91.644063
 30
0.0
 10
363.613959
 20
91.645729
 30
0.0
 10
363.613734
 20
91.646840
 30
0.0
 10
363.613622
 20
91.647396
 30
0.0
 11
365.894522
 21
89.409366
 31
0.0
 11
365.892859
 21
89.411036
 31
0.0
 11
365.891193
 21
89.412703
 31
0.0
 11
365.889522
 21
89.414366
 31
0.0
 11
365.299733
 21
89.992003
 31
0.0
 11
364.204411
 21
91.064758
 31
0.0
 11
363.614622
 21
91.642396
 31
0.0
 11
363.614292
 21
91.644063
 31
0.0
 11
363.613958
 21
91.645729
 31
0.0
 11
363.613622
 21
91.647396
 31
0.0
  0
LINE
  5
2ca
100
AcDbEntity
  8
0
 62
7
100
AcDbLine
 10
361.418342
 20
93.781185
 30
0.0
 11
361.267462
 21
93.927675
 31
0.0
  0
LINE
  5
2cb
100
AcDbEntity
  8
0
 62
7
100
AcDbLine
 10
361.267462
 20
93.927675
 30
0.0
 11
359.310442
 21
95.818785
 31
0.0
  0
SPLINE
  5
2cc
100
AcDbEntity
  8
0
 62
7
100
AcDbSpline
 70
0
 71
3
 72
13
 73
9
 74
7
 40
0.000000
 40
0.000000
 40
0.000000
 40
0.000000
 40
0.770250
 40
2.200714
 40
2.970965
 40
2.971436
 40
2.971907
 40
2.972379
 40
2.972379
 40
2.972379
 40
2.972379
 10
363.549222
 20
91.708896
 30
0.0
 10
363.365066
 20
91.887802
 30
0.0
 10
362.838907
 20
92.398965
 30
0.0
 10
362.131638
 20
93.092123
 30
0.0
 10
361.600677
 20
93.598643
 30
0.0
 10
361.419009
 20
93.780519
 30
0.0
 10
361.418676
 20
93.780852
 30
0.0
 10
361.418453
 20
93.781074
 30
0.0
 10
361.418342
 20
93.781185
 30
0.0
 11
363.549222
 21
91.708896
 31
0.0
 11
362.997031
 21
92.245897
 31
0.0
 11
361.971533
 21
93.243184
 31
0.0
 11
361.419342
 21
93.780185
 31
0.0
 11
361.419009
 21
93.780519
 31
0.0
 11
361.418676
 21
93.780852
 31
0.0
 11
361.418342
 21
93.781185
 31
0.0
  0
LINE
  5
2cd
100
AcDbEntity
  8
0
 62
7
100
AcDbLine
 10
359.309442
 20
95.819785
 30
0.0
 11
359.073602
 21
96.046835
 31
0.0
  0
SPLINE
  5
2ce
100
AcDbEntity
  8
0
 62
7
100
AcDbSpline
 70
0
 71
3
 72
10
 73
6
 74
4
 40
0.000000
 40
0.000000
 40
0.000000
 40
0.000000
 40
0.000471
 40
0.000943
 40
0.001414
 40
0.001414
 40
0.001414
 40
0.001414
 10
359.310442
 20
95.818785
 30
0.0
 10
359.310331
 20
95.818896
 30
0.0
 10
359.310109
 20
95.819119
 30
0.0
 10
359.309776
 20
95.819452
 30
0.0
 10
359.309554
 20
95.819674
 30
0.0
 10
359.309442
 20
95.819785
 30
0.0
 11
359.310442
 21
95.818785
 31
0.0
 11
359.310109
 21
95.819119
 31
0.0
 11
359.309776
 21
95.819452
 31
0.0
 11
359.309442
 21
95.819785
 31
0.0
  0
LINE
  5
2cf
100
AcDbEntity
  8
0
 62
7
100
AcDbLine
 10
357.281102
 20
97.769565
 30
0.0
 11
356.961763
 21
98.071325
 31
0.0
  0
LINE
  5
2d0
100
AcDbEntity
  8
0
 62
7
100
AcDbLine
 10
356.961763
 20
98.071325
 30
0.0
 11
355.331393
 21
99.626985
 31
0.0
  0
SPLINE
  5
2d1
100
AcDbEntity
  8
0
 62
7
100
AcDbSpline
 70
0
 71
3
 72
13
 73
9
 74
7
 40
0.000000
 40
0.000000
 40
0.000000
 40
0.000000
 40
0.643827
 40
1.839506
 40
2.483333
 40
2.484387
 40
2.485441
 40
2.486495
 40
2.486495
 40
2.486495
 40
2.486495
 10
359.073602
 20
96.046835
 30
0.0
 10
358.915713
 20
96.193516
 30
0.0
 10
358.464599
 20
96.612605
 30
0.0
 10
357.957057
 20
97.242434
 30
0.0
 10
357.349499
 20
97.563154
 30
0.0
 10
357.281771
 20
97.767566
 30
0.0
 10
357.281437
 20
97.768566
 30
0.0
 10
357.281214
 20
97.769232
 30
0.0
 10
357.281102
 20
97.769565
 30
0.0
 11
359.073602
 21
96.046835
 31
0.0
 11
358.609139
 21
96.492691
 31
0.0
 11
357.746565
 21
97.320709
 31
0.0
 11
357.282102
 21
97.766565
 31
0.0
 11
357.281770
 21
97.767566
 31
0.0
 11
357.281437
 21
97.768566
 31
0.0
 11
357.281102
 21
97.769565
 31
0.0
  0
LINE
  5
2d2
100
AcDbEntity
  8
0
 62
7
100
AcDbLine
 10
355.327393
 20
99.627985
 30
0.0
 11
354.930413
 21
100.004445
 31
0.0
  0
LINE
  5
2d3
100
AcDbEntity
  8
0
 62
7
100
AcDbLine
 10
354.930413
 20
100.004445
 30
0.0
 11
353.453853
 21
101.401905
 31
0.0
  0
SPLINE
  5
2d4
100
AcDbEntity
  8
0
 62
7
100
AcDbSpline
 70
0
 71
3
 72
10
 73
6
 74
4
 40
0.000000
 40
0.000000
 40
0.000000
 40
0.000000
 40
0.001374
 40
0.002749
 40
0.004123
 40
0.004123
 40
0.004123
 40
0.004123
 10
355.331393
 20
99.626985
 30
0.0
 10
355.330948
 20
99.627097
 30
0.0
 10
355.330060
 20
99.627321
 30
0.0
 10
355.328726
 20
99.627654
 30
0.0
 10
355.327837
 20
99.627875
 30
0.0
 10
355.327393
 20
99.627985
 30
0.0
 11
355.331393
 21
99.626985
 31
0.0
 11
355.330060
 21
99.627320
 31
0.0
 11
355.328726
 21
99.627654
 31
0.0
 11
355.327393
 21
99.627985
 31
0.0
  0
LINE
  5
2d5
100
AcDbEntity
  8
0
 62
7
100
AcDbLine
 10
353.450853
 20
101.402905
 30
0.0
 11
352.973323
 21
101.849685
 31
0.0
  0
LINE
  5
2d6
100
AcDbEntity
  8
0
 62
7
100
AcDbLine
 10
352.973323
 20
101.849685
 30
0.0
 11
351.647633
 21
103.096275
 31
0.0
  0
SPLINE
  5
2d7
100
AcDbEntity
  8
0
 62
7
100
AcDbSpline
 70
0
 71
3
 72
10
 73
6
 74
4
 40
0.000000
 40
0.000000
 40
0.000000
 40
0.000000
 40
0.001054
 40
0.002108
 40
0.003162
 40
0.003162
 40
0.003162
 40
0.003162
 10
353.453853
 20
101.401905
 30
0.0
 10
353.453519
 20
101.402017
 30
0.0
 10
353.452853
 20
101.402240
 30
0.0
 10
353.451853
 20
101.402573
 30
0.0
 10
353.451186
 20
101.402794
 30
0.0
 10
353.450853
 20
101.402905
 30
0.0
 11
353.453853
 21
101.401905
 31
0.0
 11
353.452853
 21
101.402239
 31
0.0
 11
353.451853
 21
101.402573
 31
0.0
 11
353.450853
 21
101.402905
 31
0.0
  0
LINE
  5
2d8
100
AcDbEntity
  8
0
 62
7
100
AcDbLine
 10
351.646633
 20
103.099275
 30
0.0
 11
351.092923
 21
103.614895
 31
0.0
  0
LINE
  5
2d9
100
AcDbEntity
  8
0
 62
7
100
AcDbLine
 10
351.092923
 20
103.614895
 30
0.0
 11
349.913723
 21
104.712065
 31
0.0
  0
SPLINE
  5
2da
100
AcDbEntity
  8
0
 62
7
100
AcDbSpline
 70
0
 71
3
 72
10
 73
6
 74
4
 40
0.000000
 40
0.000000
 40
0.000000
 40
0.000000
 40
0.001054
 40
0.002108
 40
0.003162
 40
0.003162
 40
0.003162
 40
0.003162
 10
351.647633
 20
103.096275
 30
0.0
 10
351.647522
 20
103.096608
 30
0.0
 10
351.647301
 20
103.097275
 30
0.0
 10
351.646967
 20
103.098275
 30
0.0
 10
351.646744
 20
103.098942
 30
0.0
 10
351.646633
 20
103.099275
 30
0.0
 11
351.647633
 21
103.096275
 31
0.0
 11
351.647300
 21
103.097275
 31
0.0
 11
351.646967
 21
103.098275
 31
0.0
 11
351.646633
 21
103.099275
 31
0.0
  0
LINE
  5
2db
100
AcDbEntity
  8
0
 62
7
100
AcDbLine
 10
349.908723
 20
104.717065
 30
0.0
 11
349.699193
 21
104.908325
 31
0.0
  0
SPLINE
  5
2dc
100
AcDbEntity
  8
0
 62
7
100
AcDbSpline
 70
0
 71
3
 72
10
 73
6
 74
4
 40
0.000000
 40
0.000000
 40
0.000000
 40
0.000000
 40
0.002357
 40
0.004714
 40
0.007071
 40
0.007071
 40
0.007071
 40
0.007071
 10
349.913723
 20
104.712065
 30
0.0
 10
349.913169
 20
104.712622
 30
0.0
 10
349.912061
 20
104.713736
 30
0.0
 10
349.910394
 20
104.715403
 30
0.0
 10
349.909280
 20
104.716511
 30
0.0
 10
349.908723
 20
104.717065
 30
0.0
 11
349.913723
 21
104.712065
 31
0.0
 11
349.912060
 21
104.713735
 31
0.0
 11
349.910393
 21
104.715402
 31
0.0
 11
349.908723
 21
104.717065
 31
0.0
  0
LINE
  5
2dd
100
AcDbEntity
  8
0
 62
7
100
AcDbLine
 10
305.518045
 20
57.696417
 30
0.0
 11
305.518045
 21
57.693417
 31
0.0
  0
LINE
  5
2de
100
AcDbEntity
  8
0
 62
7
100
AcDbLine
 10
305.518045
 20
57.693417
 30
0.0
 11
305.520045
 21
57.691417
 31
0.0
  0
SPLINE
  5
2df
100
AcDbEntity
  8
0
 62
7
100
AcDbSpline
 70
0
 71
3
 72
10
 73
6
 74
4
 40
0.000000
 40
0.000000
 40
0.000000
 40
0.000000
 40
0.517188
 40
1.478302
 40
1.997665
 40
1.997665
 40
1.997665
 40
1.997665
 10
307.183575
 20
58.799447
 30
0.0
 10
307.039792
 20
58.704332
 30
0.0
 10
306.628811
 20
58.432460
 30
0.0
 10
306.073319
 20
58.065260
 30
0.0
 10
305.662251
 20
57.792207
 30
0.0
 10
305.518045
 20
57.696417
 30
0.0
 11
307.183575
 21
58.799447
 31
0.0
 11
306.752215
 21
58.514119
 31
0.0
 11
305.950738
 21
57.983672
 31
0.0
 11
305.518045
 21
57.696417
 31
0.0
  0
SPLINE
  5
2e0
100
AcDbEntity
  8
0
 62
7
100
AcDbSpline
 70
0
 71
3
 72
22
 73
18
 74
16
 40
0.000000
 40
0.000000
 40
0.000000
 40
0.000000
 40
0.004714
 40
0.011985
 40
0.022316
 40
0.056906
 40
0.106979
 40
0.173448
 40
0.188685
 40
0.200154
 40
0.216890
 40
0.546202
 40
0.883148
 40
1.218376
 40
1.375572
 40
1.533405
 40
1.657962
 40
1.657962
 40
1.657962
 40
1.657962
 10
305.520045
 20
57.691417
 30
0.0
 10
305.520861
 20
57.690074
 30
0.0
 10
305.522934
 20
57.686660
 30
0.0
 10
305.526635
 20
57.680204
 30
0.0
 10
305.536176
 20
57.665649
 30
0.0
 10
305.553691
 20
57.639276
 30
0.0
 10
305.581572
 20
57.597314
 30
0.0
 10
305.605915
 20
57.560752
 30
0.0
 10
305.622896
 20
57.534744
 30
0.0
 10
305.630457
 20
57.522393
 30
0.0
 10
305.695582
 20
57.422580
 30
0.0
 10
305.821417
 20
57.232860
 30
0.0
 10
306.004662
 20
56.953817
 30
0.0
 10
306.156591
 20
56.722851
 30
0.0
 10
306.276338
 20
56.542179
 30
0.0
 10
306.357594
 20
56.420243
 30
0.0
 10
306.409632
 20
56.341805
 30
0.0
 10
306.432585
 20
56.307207
 30
0.0
 11
305.520045
 21
57.691417
 31
0.0
 11
305.522478
 21
57.687380
 31
0.0
 11
305.526178
 21
57.681121
 31
0.0
 11
305.531745
 21
57.672417
 31
0.0
 11
305.550838
 21
57.643574
 31
0.0
 11
305.578552
 21
57.601871
 31
0.0
 11
305.615245
 21
57.546447
 31
0.0
 11
305.623512
 21
57.533647
 31
0.0
 11
305.629578
 21
57.523914
 31
0.0
 11
305.638645
 21
57.509847
 31
0.0
 11
305.819804
 21
57.234842
 31
0.0
 11
306.005012
 21
56.953363
 31
0.0
 11
306.189425
 21
56.673417
 31
0.0
 11
306.276275
 21
56.542392
 31
0.0
 11
306.363695
 21
56.410979
 31
0.0
 11
306.432585
 21
56.307207
 31
0.0
  0
LINE
  5
2e1
100
AcDbEntity
  8
0
 62
7
100
AcDbLine
 10
315.061985
 20
42.662188
 30
0.0
 11
316.219204
 21
43.914628
 31
0.0
  0
LINE
  5
2e2
100
AcDbEntity
  8
0
 62
7
100
AcDbLine
 10
316.219204
 20
43.914628
 30
0.0
 11
316.459444
 21
44.203198
 31
0.0
  0
SPLINE
  5
2e3
100
AcDbEntity
  8
0
 62
7
100
AcDbSpline
 70
0
 71
3
 72
10
 73
6
 74
4
 40
0.000000
 40
0.000000
 40
0.000000
 40
0.000000
 40
5.380009
 40
10.761967
 40
16.145248
 40
16.145248
 40
16.145248
 40
16.145248
 10
306.432585
 20
56.307207
 30
0.0
 10
307.409529
 20
54.803314
 30
0.0
 10
309.363772
 20
51.794984
 30
0.0
 10
312.233938
 20
47.242273
 30
0.0
 10
314.119225
 20
44.189008
 30
0.0
 10
315.061985
 20
42.662188
 30
0.0
 11
306.432585
 21
56.307207
 31
0.0
 11
309.353154
 21
51.788936
 31
0.0
 11
312.226588
 21
47.238239
 31
0.0
 11
315.061985
 21
42.662188
 31
0.0
  0
SPLINE
  5
2e4
100
AcDbEntity
  8
0
 62
7
100
AcDbSpline
 70
0
 71
3
 72
10
 73
6
 74
4
 40
0.000000
 40
0.000000
 40
0.000000
 40
0.000000
 40
5.208153
 40
10.416543
 40
15.624905
 40
15.624905
 40
15.624905
 40
15.624905
 10
316.459444
 20
44.203198
 30
0.0
 10
315.546332
 20
45.679715
 30
0.0
 10
313.720066
 20
48.632816
 30
0.0
 10
310.941446
 20
53.038185
 30
0.0
 10
309.049797
 20
55.949956
 30
0.0
 10
308.103975
 20
57.405837
 30
0.0
 11
316.459444
 21
44.203198
 31
0.0
 11
313.713574
 21
48.628698
 31
0.0
 11
310.931639
 21
53.031897
 31
0.0
 11
308.103975
 21
57.405837
 31
0.0
  0
LINE
  5
2e5
100
AcDbEntity
  8
0
 62
7
100
AcDbLine
 10
307.858745
 20
57.775577
 30
0.0
 11
307.307955
 21
58.610537
 31
0.0
  0
SPLINE
  5
2e6
100
AcDbEntity
  8
0
 62
7
100
AcDbSpline
 70
0
 71
3
 72
13
 73
9
 74
7
 40
0.000000
 40
0.000000
 40
0.000000
 40
0.000000
 40
0.002357
 40
0.004714
 40
0.007071
 40
0.130517
 40
0.287596
 40
0.443816
 40
0.443816
 40
0.443816
 40
0.443816
 10
308.103975
 20
57.405837
 30
0.0
 10
308.103421
 20
57.406394
 30
0.0
 10
308.102313
 20
57.407508
 30
0.0
 10
308.100647
 20
57.409176
 30
0.0
 10
308.070263
 20
57.439223
 30
0.0
 10
308.028687
 20
57.526389
 30
0.0
 10
307.943831
 20
57.644050
 30
0.0
 10
307.887055
 20
57.731815
 30
0.0
 10
307.858745
 20
57.775577
 30
0.0
 11
308.103975
 21
57.405837
 31
0.0
 11
308.102312
 21
57.407508
 31
0.0
 11
308.100645
 21
57.409174
 31
0.0
 11
308.098975
 21
57.410837
 31
0.0
 11
308.031060
 21
57.513922
 31
0.0
 11
307.944693
 21
57.645126
 31
0.0
 11
307.858745
 21
57.775577
 31
0.0
  0
LINE
  5
2e7
100
AcDbEntity
  8
0
 62
7
100
AcDbLine
 10
307.189855
 20
58.792307
 30
0.0
 11
307.189855
 21
58.793307
 31
0.0
  0
LINE
  5
2e8
100
AcDbEntity
  8
0
 62
7
100
AcDbLine
 10
307.189855
 20
58.793307
 30
0.0
 11
307.187855
 21
58.796307
 31
0.0
  0
LINE
  5
2e9
100
AcDbEntity
  8
0
 62
7
100
AcDbLine
 10
307.187855
 20
58.796307
 30
0.0
 11
307.184855
 21
58.798307
 31
0.0
  0
LINE
  5
2ea
100
AcDbEntity
  8
0
 62
7
100
AcDbLine
 10
307.184855
 20
58.798307
 30
0.0
 11
307.183575
 21
58.799447
 31
0.0
  0
SPLINE
  5
2eb
100
AcDbEntity
  8
0
 62
7
100
AcDbSpline
 70
0
 71
3
 72
19
 73
15
 74
13
 40
0.000000
 40
0.000000
 40
0.000000
 40
0.000000
 40
0.016222
 40
0.027489
 40
0.042268
 40
0.043275
 40
0.044349
 40
0.045455
 40
0.111705
 40
0.161361
 40
0.195763
 40
0.205033
 40
0.211789
 40
0.216899
 40
0.216899
 40
0.216899
 40
0.216899
 10
307.307955
 20
58.610537
 30
0.0
 10
307.304983
 20
58.615050
 30
0.0
 10
307.299946
 20
58.622698
 30
0.0
 10
307.292031
 20
58.634398
 30
0.0
 10
307.287086
 20
58.641806
 30
0.0
 10
307.283988
 20
58.646617
 30
0.0
 10
307.283941
 20
58.647708
 30
0.0
 10
307.275946
 20
58.669151
 30
0.0
 10
307.248735
 20
58.698709
 30
0.0
 10
307.223297
 20
58.741713
 30
0.0
 10
307.206189
 20
58.767730
 30
0.0
 10
307.196895
 20
58.781734
 30
0.0
 10
307.193093
 20
58.787666
 30
0.0
 10
307.190830
 20
58.790910
 30
0.0
 10
307.189855
 20
58.792307
 30
0.0
 11
307.307955
 21
58.610537
 31
0.0
 11
307.298999
 21
58.624063
 31
0.0
 11
307.292710
 21
58.633411
 31
0.0
 11
307.284555
 21
58.645737
 31
0.0
 11
307.284082
 21
58.646626
 31
0.0
 11
307.283888
 21
58.647682
 31
0.0
 11
307.283555
 21
58.648737
 31
0.0
 11
307.247273
 21
58.704169
 31
0.0
 11
307.220303
 21
58.745862
 31
0.0
 11
307.201555
 21
58.774707
 31
0.0
 11
307.196455
 21
58.782448
 31
0.0
 11
307.192755
 21
58.788100
 31
0.0
 11
307.189855
 21
58.792307
 31
0.0
  0
ENDSEC
  0
SECTION
  2
OBJECTS
  0
DICTIONARY
  5
C
330
0
100
AcDbDictionary
  3
ACAD_GROUP
350
D
  3
ACAD_MLINESTYLE
350
17
  0
DICTIONARY
  5
D
330
C
100
AcDbDictionary
  0
DICTIONARY
  5
1A
330
C
100
AcDbDictionary
  0
DICTIONARY
  5
17
330
C
100
AcDbDictionary
  3
STANDARD
350
18
  0
DICTIONARY
  5
19
330
C
100
AcDbDictionary
  0
ENDSEC
  0
EOF
