<?xml version="1.0" encoding="UTF-8" standalone="no"?>
<!-- Created with matplotlib (http://matplotlib.org/) -->

<svg
   xmlns:dc="http://purl.org/dc/elements/1.1/"
   xmlns:cc="http://creativecommons.org/ns#"
   xmlns:rdf="http://www.w3.org/1999/02/22-rdf-syntax-ns#"
   xmlns:svg="http://www.w3.org/2000/svg"
   xmlns="http://www.w3.org/2000/svg"
   xmlns:sodipodi="http://sodipodi.sourceforge.net/DTD/sodipodi-0.dtd"
   xmlns:inkscape="http://www.inkscape.org/namespaces/inkscape"
   height="8.5in"
   version="1.1"
   viewBox="0 0 792.00003 612.00003"
   width="11in"
   id="svg1061"
   sodipodi:docname="torus1.svg"
   inkscape:version="0.92.3 (2405546, 2018-03-11)">
  <metadata
     id="metadata1065">
    <rdf:RDF>
      <cc:Work
         rdf:about="">
        <dc:format>image/svg+xml</dc:format>
        <dc:type
           rdf:resource="http://purl.org/dc/dcmitype/StillImage" />
        <dc:title />
      </cc:Work>
    </rdf:RDF>
  </metadata>
  <sodipodi:namedview
     pagecolor="#ffffff"
     bordercolor="#666666"
     borderopacity="1"
     objecttolerance="10"
     gridtolerance="10"
     guidetolerance="10"
     inkscape:pageopacity="0"
     inkscape:pageshadow="2"
     inkscape:window-width="1920"
     inkscape:window-height="1025"
     id="namedview1063"
     showgrid="false"
     units="in"
     inkscape:zoom="0.6731185"
     inkscape:cx="638.94542"
     inkscape:cy="248.97233"
     inkscape:window-x="0"
     inkscape:window-y="27"
     inkscape:window-maximized="1"
     inkscape:current-layer="svg1061" />
  <defs
     id="defs1008"
     style="stroke-linecap:butt;stroke-linejoin:round">
    <style
       type="text/css"
       id="style1006">
*{stroke-linecap:butt;stroke-linejoin:round;}
  </style>
  </defs>
  <g
     id="matplotlib.axis_1"
     style="stroke-linecap:butt;stroke-linejoin:round"
     transform="translate(0,271.64002)" />
  <g
     id="matplotlib.axis_2"
     style="stroke-linecap:butt;stroke-linejoin:round"
     transform="translate(0,271.64002)" />
  <g
     id="g1161"
     transform="matrix(1.6,0,0,1.6,170.44964,-418.33972)"
     style="stroke-linecap:butt;stroke-linejoin:round">
    <g
       transform="translate(0,271.64002)"
       style="stroke-linecap:butt;stroke-linejoin:round"
       id="line2d_1">
      <path
         sodipodi:nodetypes="ccccccccccccccccccccccc"
         inkscape:connector-curvature="0"
         id="path1018"
         d="m 249.83327,309.36579 c 45.60955,-20.28594 78.55435,-67.40817 79.01386,-117.70943 1.29666,-43.83814 -23.10769,-86.18761 -59.7278,-109.627937 C 229.67,55.785764 176.25245,46.746035 132.67305,68.189495 86.737853,89.842222 58.590194,140.999 60.792746,191.18519 c 0.07905,10.99407 2.562527,21.88331 4.504515,32.53236 l -2.908073,17.22668 7.229717,-0.27564 -5.410567,39.16876 -7.635295,-4.43975 -2.908073,17.22669 C 14.935047,240.47926 6.3854122,166.9319 34.887264,108.17015 55.110535,64.45064 96.406656,31.354725 143.60896,21.518818 c 62.12578,-13.4208638 132.13944,1.92511 178.14025,47.166217 39.97732,38.426235 57.60177,97.766675 46.0711,151.892045 -6.67777,33.35189 -23.47874,64.45696 -47.18533,88.78871 l -18.88063,10.24231 1.1802,-10.24231 H 285.23412 267.5337 l 0.76261,8.82487 -22.87469,0.23564 z"
         clip-path="url(#p49f095f293)"
         style="fill:none;stroke:#0000ff;stroke-linecap:square;stroke-linejoin:round" />
    </g>
    <g
       transform="translate(0,271.64002)"
       style="stroke-linecap:butt;stroke-linejoin:round"
       id="line2d_2">
      <path
         sodipodi:nodetypes="ccccc"
         inkscape:connector-curvature="0"
         id="path1021"
         d="m 309.99069,290.74559 c -3.79251,-6.31795 -7.68607,-12.57733 -11.71854,-18.74013 -0.15424,-0.23354 -0.74838,-1.13468 -0.79641,-1.20743 l 0.0513,0.0777 0.004,0.005"
         clip-path="url(#p49f095f293)"
         style="fill:none;stroke:#000000;stroke-linecap:square;stroke-linejoin:round" />
    </g>
    <g
       transform="translate(0,271.64002)"
       style="stroke-linecap:butt;stroke-linejoin:round"
       id="line2d_3">
      <path
         sodipodi:nodetypes="ccc"
         inkscape:connector-curvature="0"
         id="path1024"
         d="m 361.7613,251.66491 c -0.15053,-0.15138 -0.91914,-0.92427 -1.30887,-1.31618 -5.69797,-5.70919 -11.43483,-11.38572 -17.27737,-16.94961"
         clip-path="url(#p49f095f293)"
         style="fill:none;stroke:#000000;stroke-linecap:square;stroke-linejoin:round" />
    </g>
    <g
       transform="translate(0,271.64002)"
       style="stroke-linecap:butt;stroke-linejoin:round"
       id="line2d_4">
      <path
         sodipodi:nodetypes="cccc"
         inkscape:connector-curvature="0"
         id="path1027"
         d="m 350.03126,174.04551 c -5.07521,-2.8642 -10.19775,-5.64513 -15.36924,-8.29945 -3.30118,-1.6916 -7.12834,-3.55231 -10.19481,-4.94267 -0.19701,-0.0888 -1.62729,-0.73318 -1.1179,-0.50376"
         clip-path="url(#p49f095f293)"
         style="fill:none;stroke:#000000;stroke-linecap:square;stroke-linejoin:round" />
    </g>
    <g
       transform="translate(0,271.64002)"
       style="stroke-linecap:butt;stroke-linejoin:round"
       id="line2d_5">
      <path
         sodipodi:nodetypes="ccc"
         inkscape:connector-curvature="0"
         id="path1030"
         d="m 365.07693,131.81776 c -0.42267,-0.14886 -1.56921,-0.55264 -2.26948,-0.79926 -9.5017,-3.31522 -19.07922,-6.54854 -28.75247,-9.46153"
         clip-path="url(#p49f095f293)"
         style="fill:none;stroke:#000000;stroke-linecap:square;stroke-linejoin:round" />
    </g>
    <g
       transform="translate(0,271.64002)"
       style="stroke-linecap:butt;stroke-linejoin:round"
       id="line2d_6">
      <path
         sodipodi:nodetypes="ccccc"
         inkscape:connector-curvature="0"
         id="path1033"
         d="m 302.24695,80.056892 c -5.81602,-0.680056 -11.64225,-1.255872 -17.47328,-1.686436 -7.79295,-0.521557 -15.77809,-0.825762 -23.46777,0.03547 -0.77748,0.09946 -1.3345,0.169664 -2.44983,0.343638 -0.0966,0.01441 0.22861,-0.0341 0.24163,-0.03604"
         clip-path="url(#p49f095f293)"
         style="fill:none;stroke:#000000;stroke-linecap:square;stroke-linejoin:round" />
    </g>
    <g
       transform="translate(0,271.64002)"
       style="stroke-linecap:butt;stroke-linejoin:round"
       id="line2d_7">
      <path
         sodipodi:nodetypes="ccc"
         inkscape:connector-curvature="0"
         id="path1036"
         d="m 304.49374,49.368778 c -0.67956,-0.02852 -2.44288,-0.102857 -3.27927,-0.137942 -16.89908,-0.628658 -33.85703,-1.543248 -50.79745,-1.301712"
         clip-path="url(#p49f095f293)"
         style="fill:none;stroke:#000000;stroke-linecap:square;stroke-linejoin:round" />
    </g>
    <g
       transform="translate(0,271.64002)"
       style="stroke-linecap:butt;stroke-linejoin:round"
       id="line2d_8">
      <path
         sodipodi:nodetypes="csccc"
         inkscape:connector-curvature="0"
         id="path1039"
         d="m 149.26894,37.535894 c -0.86602,0.980901 -1.63643,2.031208 -2.31103,3.135633 -3.60726,5.905693 -4.47461,13.358819 -2.56788,20.021903 0.41377,1.579256 0.89507,2.916953 1.45866,4.306295 l -0.0739,-0.188865"
         clip-path="url(#p49f095f293)"
         style="fill:none;stroke:#000000;stroke-linecap:square;stroke-linejoin:round" />
    </g>
    <g
       transform="translate(0,271.64002)"
       style="stroke-linecap:butt;stroke-linejoin:round"
       id="line2d_9">
      <path
         sodipodi:nodetypes="cc"
         inkscape:connector-curvature="0"
         id="path1042"
         d="m 61.934847,61.65522 c 3.923198,8.425145 9.384451,16.004372 15.795843,22.699971"
         clip-path="url(#p49f095f293)"
         style="fill:none;stroke:#000000;stroke-linecap:square;stroke-linejoin:round" />
    </g>
    <g
       transform="translate(0,271.64002)"
       style="stroke-linecap:butt;stroke-linejoin:round"
       id="line2d_10">
      <path
         sodipodi:nodetypes="ccc"
         inkscape:connector-curvature="0"
         id="path1045"
         d="m 42.395708,150.47389 c 7.570827,2.20228 15.240682,4.07568 22.955923,5.5501 0.06763,0.0129 1.000551,0.19101 0.407326,0.0777"
         clip-path="url(#p49f095f293)"
         style="fill:none;stroke:#000000;stroke-linecap:square;stroke-linejoin:round" />
    </g>
    <g
       transform="translate(0,271.64002)"
       style="stroke-linecap:butt;stroke-linejoin:round"
       id="line2d_11">
      <path
         sodipodi:nodetypes="cc"
         inkscape:connector-curvature="0"
         id="path1048"
         d="m 22.594622,226.29119 c 7.320761,-0.41234 14.636758,-0.94679 21.936838,-1.64293"
         clip-path="url(#p49f095f293)"
         style="fill:none;stroke:#000000;stroke-linecap:square;stroke-linejoin:round" />
    </g>
  </g>
  <defs
     id="defs1059">
    <clipPath
       id="p49f095f293"
       style="stroke-linecap:butt;stroke-linejoin:round">
      <rect
         height="318.95999"
         width="371.36014"
         x="10.7"
         y="10.7"
         id="rect1056"
         style="stroke-linecap:butt;stroke-linejoin:round" />
    </clipPath>
  </defs>
  <g
     style="stroke-linecap:butt;stroke-linejoin:round"
     transform="matrix(-1.6,0,0,-1.6,612.86654,1049.3883)"
     id="g1998">
    <g
       id="g1956"
       style="stroke-linecap:butt;stroke-linejoin:round"
       transform="translate(0,271.64002)">
      <path
         style="fill:none;stroke:#0000ff;stroke-linecap:square;stroke-linejoin:round"
         clip-path="url(#p49f095f293)"
         d="m 249.83327,309.36579 c 45.60955,-20.28594 78.55435,-67.40817 79.01386,-117.70943 1.29666,-43.83814 -23.10769,-86.18761 -59.7278,-109.627937 C 229.67,55.785764 176.25245,46.746035 132.67305,68.189495 86.737853,89.842222 58.590194,140.999 60.792746,191.18519 c 0.07905,10.99407 2.562527,21.88331 4.504515,32.53236 l -2.908073,17.22668 7.229717,-0.27564 -5.410567,39.16876 -7.635295,-4.43975 -2.908073,17.22669 C 14.935047,240.47926 6.3854122,166.9319 34.887264,108.17015 55.110535,64.45064 96.406656,31.354725 143.60896,21.518818 c 62.12578,-13.4208638 132.13944,1.92511 178.14025,47.166217 39.97732,38.426235 57.60177,97.766675 46.0711,151.892045 -6.67777,33.35189 -23.47874,64.45696 -47.18533,88.78871 l -18.88063,10.24231 1.1802,-10.24231 H 285.23412 267.5337 l 0.76261,8.82487 -22.87469,0.23564 z"
         id="path1954"
         inkscape:connector-curvature="0"
         sodipodi:nodetypes="ccccccccccccccccccccccc" />
    </g>
    <g
       id="g1960"
       style="stroke-linecap:butt;stroke-linejoin:round"
       transform="translate(0,271.64002)">
      <path
         style="fill:none;stroke:#000000;stroke-linecap:square;stroke-linejoin:round"
         clip-path="url(#p49f095f293)"
         d="m 309.99069,290.74559 c -3.79251,-6.31795 -7.68607,-12.57733 -11.71854,-18.74013 -0.15424,-0.23354 -0.74838,-1.13468 -0.79641,-1.20743 l 0.0513,0.0777 0.004,0.005"
         id="path1958"
         inkscape:connector-curvature="0"
         sodipodi:nodetypes="ccccc" />
    </g>
    <g
       id="g1964"
       style="stroke-linecap:butt;stroke-linejoin:round"
       transform="translate(0,271.64002)">
      <path
         style="fill:none;stroke:#000000;stroke-linecap:square;stroke-linejoin:round"
         clip-path="url(#p49f095f293)"
         d="m 361.7613,251.66491 c -0.15053,-0.15138 -0.91914,-0.92427 -1.30887,-1.31618 -5.69797,-5.70919 -11.43483,-11.38572 -17.27737,-16.94961"
         id="path1962"
         inkscape:connector-curvature="0"
         sodipodi:nodetypes="ccc" />
    </g>
    <g
       id="g1968"
       style="stroke-linecap:butt;stroke-linejoin:round"
       transform="translate(0,271.64002)">
      <path
         style="fill:none;stroke:#000000;stroke-linecap:square;stroke-linejoin:round"
         clip-path="url(#p49f095f293)"
         d="m 350.03126,174.04551 c -5.07521,-2.8642 -10.19775,-5.64513 -15.36924,-8.29945 -3.30118,-1.6916 -7.12834,-3.55231 -10.19481,-4.94267 -0.19701,-0.0888 -1.62729,-0.73318 -1.1179,-0.50376"
         id="path1966"
         inkscape:connector-curvature="0"
         sodipodi:nodetypes="cccc" />
    </g>
    <g
       id="g1972"
       style="stroke-linecap:butt;stroke-linejoin:round"
       transform="translate(0,271.64002)">
      <path
         style="fill:none;stroke:#000000;stroke-linecap:square;stroke-linejoin:round"
         clip-path="url(#p49f095f293)"
         d="m 365.07693,131.81776 c -0.42267,-0.14886 -1.56921,-0.55264 -2.26948,-0.79926 -9.5017,-3.31522 -19.07922,-6.54854 -28.75247,-9.46153"
         id="path1970"
         inkscape:connector-curvature="0"
         sodipodi:nodetypes="ccc" />
    </g>
    <g
       id="g1976"
       style="stroke-linecap:butt;stroke-linejoin:round"
       transform="translate(0,271.64002)">
      <path
         style="fill:none;stroke:#000000;stroke-linecap:square;stroke-linejoin:round"
         clip-path="url(#p49f095f293)"
         d="m 302.24695,80.056892 c -5.81602,-0.680056 -11.64225,-1.255872 -17.47328,-1.686436 -7.79295,-0.521557 -15.77809,-0.825762 -23.46777,0.03547 -0.77748,0.09946 -1.3345,0.169664 -2.44983,0.343638 -0.0966,0.01441 0.22861,-0.0341 0.24163,-0.03604"
         id="path1974"
         inkscape:connector-curvature="0"
         sodipodi:nodetypes="ccccc" />
    </g>
    <g
       id="g1980"
       style="stroke-linecap:butt;stroke-linejoin:round"
       transform="translate(0,271.64002)">
      <path
         style="fill:none;stroke:#000000;stroke-linecap:square;stroke-linejoin:round"
         clip-path="url(#p49f095f293)"
         d="m 304.49374,49.368778 c -0.67956,-0.02852 -2.44288,-0.102857 -3.27927,-0.137942 -16.89908,-0.628658 -33.85703,-1.543248 -50.79745,-1.301712"
         id="path1978"
         inkscape:connector-curvature="0"
         sodipodi:nodetypes="ccc" />
    </g>
    <g
       id="g1984"
       style="stroke-linecap:butt;stroke-linejoin:round"
       transform="translate(0,271.64002)">
      <path
         style="fill:none;stroke:#000000;stroke-linecap:square;stroke-linejoin:round"
         clip-path="url(#p49f095f293)"
         d="m 149.26894,37.535894 c -0.86602,0.980901 -1.63643,2.031208 -2.31103,3.135633 -3.60726,5.905693 -4.47461,13.358819 -2.56788,20.021903 0.41377,1.579256 0.89507,2.916953 1.45866,4.306295 l -0.0739,-0.188865"
         id="path1982"
         inkscape:connector-curvature="0"
         sodipodi:nodetypes="csccc" />
    </g>
    <g
       id="g1988"
       style="stroke-linecap:butt;stroke-linejoin:round"
       transform="translate(0,271.64002)">
      <path
         style="fill:none;stroke:#000000;stroke-linecap:square;stroke-linejoin:round"
         clip-path="url(#p49f095f293)"
         d="m 61.934847,61.65522 c 3.923198,8.425145 9.384451,16.004372 15.795843,22.699971"
         id="path1986"
         inkscape:connector-curvature="0"
         sodipodi:nodetypes="cc" />
    </g>
    <g
       id="g1992"
       style="stroke-linecap:butt;stroke-linejoin:round"
       transform="translate(0,271.64002)">
      <path
         style="fill:none;stroke:#000000;stroke-linecap:square;stroke-linejoin:round"
         clip-path="url(#p49f095f293)"
         d="m 42.395708,150.47389 c 7.570827,2.20228 15.240682,4.07568 22.955923,5.5501 0.06763,0.0129 1.000551,0.19101 0.407326,0.0777"
         id="path1990"
         inkscape:connector-curvature="0"
         sodipodi:nodetypes="ccc" />
    </g>
    <g
       id="g1996"
       style="stroke-linecap:butt;stroke-linejoin:round"
       transform="translate(0,271.64002)">
      <path
         style="fill:none;stroke:#000000;stroke-linecap:square;stroke-linejoin:round"
         clip-path="url(#p49f095f293)"
         d="m 22.594622,226.29119 c 7.320761,-0.41234 14.636758,-0.94679 21.936838,-1.64293"
         id="path1994"
         inkscape:connector-curvature="0"
         sodipodi:nodetypes="cc" />
    </g>
  </g>
</svg>
