<?xml version="1.0" encoding="utf-8" standalone="no"?>
<!DOCTYPE svg PUBLIC "-//W3C//DTD SVG 1.1//EN"
  "http://www.w3.org/Graphics/SVG/1.1/DTD/svg11.dtd">
<!-- Created with matplotlib (http://matplotlib.org/) -->
<svg height="340.36pt" version="1.1" viewBox="0 0 395.36602 340.36" width="395.36602pt" xmlns="http://www.w3.org/2000/svg" xmlns:xlink="http://www.w3.org/1999/xlink">
 <defs>
  <style type="text/css">
*{stroke-linecap:butt;stroke-linejoin:round;}
  </style>
 </defs>
 <g id="figure_1">
  <g id="patch_1">
   <path d="M 0 340.36 
L 395.36602 340.36 
L 395.36602 0 
L 0 0 
z
" style="fill:#ffffff;"/>
  </g>
  <g id="axes_1">
   <g id="patch_2">
    <path d="M 10.7 329.66 
L 384.66602 329.66 
L 384.66602 10.7 
L 10.7 10.7 
z
" style="fill:#ffffff;"/>
   </g>
   <g id="matplotlib.axis_1"/>
   <g id="matplotlib.axis_2"/>
   <g id="line2d_1">
    <path clip-path="url(#pe9dc9a8678)" d="M 255.379929 323.526154 
L 262.033755 320.28545 
L 268.531252 316.711142 
L 274.852182 312.811228 
L 280.976691 308.59505 
L 286.885412 304.073287 
L 292.559577 299.257929 
L 297.981125 294.16225 
L 303.132813 288.800769 
L 307.998321 283.189197 
L 312.562363 277.34438 
L 316.810787 271.284222 
L 320.730674 265.027607 
L 324.310433 258.594307 
L 327.539886 252.004875 
L 330.410346 245.280537 
L 332.914692 238.443066 
L 335.047422 231.514655 
L 336.804703 224.517773 
L 338.18441 217.475027 
L 339.186142 210.409005 
L 339.811231 203.342121 
L 340.062735 196.296458 
L 339.945407 189.293612 
L 339.465657 182.354526 
L 338.631491 175.499342 
L 337.452429 168.747246 
L 335.939415 162.11633 
L 334.1047 155.623455 
L 331.961715 149.284134 
L 329.524925 143.112431 
L 326.809674 137.120865 
L 323.832014 131.320353 
L 320.608523 125.720159 
L 317.156124 120.327873 
L 313.491889 115.149418 
L 309.632854 110.18908 
L 305.595823 105.449562 
L 301.397194 100.932073 
L 297.052774 96.636438 
L 292.57763 92.561232 
L 287.985932 88.703944 
L 283.290835 85.061155 
L 278.504369 81.628742 
L 273.63736 78.402089 
L 268.699374 75.376313 
L 263.69869 72.546497 
L 258.642304 69.907915 
L 253.535956 67.456263 
L 248.384202 65.187862 
L 243.190501 63.099851 
L 237.957348 61.190348 
L 232.68642 59.458576 
L 227.378768 57.904941 
L 222.035005 56.531071 
L 216.655535 55.339802 
L 211.240763 54.33511 
L 205.791323 53.522011 
L 200.308283 52.906408 
L 194.793327 52.49492 
L 189.24892 52.294692 
L 183.678431 52.313193 
L 178.086227 52.558022 
L 172.477728 53.036717 
L 166.859435 53.75658 
L 161.23892 54.724521 
L 155.624803 55.946923 
L 150.026696 57.429515 
L 144.455138 59.17728 
L 138.921511 61.194364 
L 133.437956 63.484016 
L 128.017273 66.048529 
L 122.672826 68.889206 
L 117.418444 72.006329 
L 112.268321 75.399142 
L 107.236928 79.065843 
L 102.338912 83.003581 
L 97.58902 87.208461 
L 93.002009 91.675549 
L 88.592572 96.398888 
L 84.375263 101.371509 
L 80.36443 106.585448 
L 76.574147 112.031764 
L 73.018149 117.700555 
L 69.709774 123.58098 
L 66.661899 129.661279 
L 63.886882 135.928793 
L 61.396501 142.369988 
L 59.2019 148.97048 
L 57.313522 155.715065 
L 55.741053 162.587749 
L 54.493364 169.571782 
L 53.578448 176.6497 
L 53.003361 183.803369 
L 52.774166 191.014031 
L 52.895872 198.262364 
L 53.372385 205.528541 
L 54.20645 212.792296 
L 55.399605 220.032997 
L 56.952138 227.229728 
L 57.862909 230.80501 
L 47.762936 290.634682 
L 45.341187 286.784618 
L 40.790026 278.924078 
L 36.63589 270.86875 
L 32.886311 262.641761 
L 29.547508 254.266409 
L 26.62441 245.766103 
L 24.12067 237.164303 
L 22.038687 228.484463 
L 20.379623 219.749982 
L 19.14342 210.984157 
L 18.328807 202.210131 
L 17.933321 193.450852 
L 17.953306 184.729023 
L 18.383926 176.067056 
L 19.219167 167.487015 
L 20.451843 159.010562 
L 22.073602 150.658895 
L 24.074934 142.452673 
L 26.445182 134.411943 
L 29.172566 126.556055 
L 32.244203 118.903566 
L 35.646154 111.47214 
L 39.36347 104.278446 
L 43.380262 97.338037 
L 47.679787 90.665246 
L 52.244554 84.27306 
L 57.056443 78.173015 
L 62.096859 72.375084 
L 67.346892 66.88758 
L 72.787506 61.717072 
L 78.399743 56.868313 
L 84.164938 52.344199 
L 90.064953 48.145743 
L 96.082404 44.272084 
L 102.200904 40.72053 
L 108.405281 37.486638 
L 114.681794 34.56433 
L 121.018317 31.946066 
L 127.404488 29.623052 
L 133.831819 27.585501 
L 140.293742 25.822943 
L 146.785599 24.324569 
L 153.304566 23.079617 
L 159.849489 22.077769 
L 166.420672 21.309554 
L 173.019588 20.766732 
L 179.64854 20.442634 
L 186.310296 20.332444 
L 193.007699 20.433408 
L 199.743273 20.744952 
L 206.518855 21.26871 
L 213.335248 22.008467 
L 220.191911 22.970016 
L 227.086704 24.160946 
L 234.015668 25.590374 
L 240.972873 27.268632 
L 247.950302 29.206913 
L 254.937798 31.416916 
L 261.923054 33.910463 
L 268.891656 36.699136 
L 275.82716 39.793915 
L 282.711224 43.204838 
L 289.523769 46.940689 
L 296.243168 51.008716 
L 302.846479 55.414384 
L 309.30968 60.161168 
L 315.607937 65.250388 
L 321.715874 70.681083 
L 327.607854 76.449933 
L 333.258253 82.551211 
L 338.641741 88.976785 
L 343.733541 95.716155 
L 348.509679 102.756515 
L 352.947224 110.082858 
L 355.032195 113.848011 
L 357.024496 117.678096 
L 358.921646 121.570679 
L 360.721263 125.523212 
L 362.421071 129.533042 
L 364.018905 133.59742 
L 365.512714 137.713501 
L 366.900564 141.878354 
L 368.180641 146.088967 
L 369.351256 150.342252 
L 370.410846 154.635055 
L 371.357975 158.964158 
L 372.191337 163.326288 
L 372.909755 167.718123 
L 373.512186 172.136297 
L 373.99772 176.577408 
L 374.365577 181.038023 
L 374.61511 185.514685 
L 374.745807 190.003919 
L 374.757284 194.502235 
L 374.649289 199.006138 
L 374.421702 203.512131 
L 374.074527 208.016723 
L 373.607897 212.516428 
L 373.022069 217.007779 
L 372.317423 221.487326 
L 371.494459 225.951644 
L 370.553795 230.397335 
L 369.496164 234.821036 
L 368.322413 239.21942 
L 367.033497 243.5892 
L 365.630479 247.927137 
L 364.114527 252.230037 
L 362.486907 256.494758 
L 360.748986 260.718215 
L 358.902222 264.897378 
L 356.948166 269.029278 
L 354.888457 273.111009 
L 352.724816 277.139731 
L 350.459047 281.11267 
L 348.093032 285.027121 
L 345.628725 288.880451 
L 343.068152 292.6701 
L 340.413407 296.393579 
L 337.666646 300.048478 
L 334.830089 303.63246 
L 331.906011 307.143269 
L 328.896743 310.578722 
L 325.804666 313.93672 
L 322.632211 317.215239 
L 319.381854 320.412338 
L 316.056111 323.526154 
L 316.056111 323.526154 
" style="fill:none;stroke:#0000ff;stroke-linecap:square;"/>
   </g>
   <g id="line2d_2">
    <path clip-path="url(#pe9dc9a8678)" d="M 327.687422 316.959118 
L 327.767032 317.096626 
L 325.93198 313.927034 
L 325.933978 313.930456 
L 324.25239 311.050533 
L 324.179685 310.927056 
L 322.645473 308.321482 
L 322.500696 308.077631 
L 321.108282 305.732388 
L 320.893806 305.374089 
L 319.638087 303.276352 
L 319.356039 302.808983 
L 318.23236 300.947017 
L 317.88464 300.375455 
L 316.888765 298.738524 
L 316.477054 298.067189 
L 315.605144 296.645477 
L 315.130922 295.87837 
L 314.379514 294.662904 
L 313.844063 293.803641 
L 313.210049 292.786226 
L 312.61447 291.838073 
L 312.095083 291.011232 
L 311.440297 289.977128 
L 311.033095 289.334047 
L 310.319853 288.216635 
L 310.022706 287.751112 
L 309.251596 286.552758 
L 309.062673 286.259164 
L 308.234127 284.981981 
L 308.151886 284.855212 
L 307.26618 283.501078 
L 307.289364 283.536522 
L 306.346626 282.107099 
L 306.474247 282.3006 
" style="fill:none;stroke:#000000;stroke-linecap:square;"/>
   </g>
   <g id="line2d_3">
    <path clip-path="url(#pe9dc9a8678)" d="M 367.567146 254.005905 
L 367.68578 254.122927 
L 365.195232 251.66624 
L 365.220668 251.691165 
L 362.915345 249.432217 
L 362.850843 249.369438 
L 360.723431 247.298863 
L 360.571912 247.152404 
L 358.615752 245.261592 
L 358.379825 245.035144 
L 356.588872 243.316174 
L 356.270854 243.013126 
L 354.639628 241.458705 
L 354.241567 241.082169 
L 352.765115 239.685579 
L 352.288806 239.238422 
L 350.962672 237.993471 
L 350.409674 237.478331 
L 349.229866 236.379309 
L 348.601515 235.79862 
L 347.564473 234.840256 
L 346.8619 234.196269 
L 345.964478 233.373697 
L 345.188612 232.668493 
L 344.428052 231.977215 
L 343.579639 231.212728 
L 342.953553 230.648584 
L 342.03316 229.826609 
L 341.539508 229.385751 
L 340.547536 228.507963 
L 340.184614 228.186822 
L 339.121302 227.254789 
L 338.887726 227.050055 
L 337.753161 226.065251 
L 337.647855 225.973847 
L 336.441974 224.937661 
L 336.464158 224.956723 
L 335.18676 223.870476 
L 335.335938 223.997328 
" style="fill:none;stroke:#000000;stroke-linecap:square;"/>
   </g>
   <g id="line2d_4">
    <path clip-path="url(#pe9dc9a8678)" d="M 377.379374 187.094376 
L 377.474365 187.150793 
L 374.650419 185.473636 
L 374.651726 185.474405 
L 372.010894 183.919727 
L 371.921307 183.867463 
L 369.457201 182.429962 
L 369.279236 182.327113 
L 366.986024 181.001849 
L 366.721944 180.850714 
L 364.594309 179.633075 
L 364.246142 179.43582 
L 362.279248 178.321495 
L 361.848802 178.080167 
L 360.038261 177.065115 
L 359.527143 176.781656 
L 357.868985 175.862084 
L 357.278613 175.538343 
L 355.76926 174.710682 
L 355.100877 174.348427 
L 353.73712 173.609308 
L 352.991804 173.210239 
L 351.77078 172.556475 
L 350.949458 172.122232 
L 349.868628 171.550799 
L 348.972084 171.082973 
L 348.029219 170.590989 
L 347.058104 170.091133 
L 346.251265 169.675844 
L 345.206107 169.145481 
L 344.533628 168.804243 
L 343.414841 168.244878 
L 342.875318 167.975138 
L 341.683208 167.388264 
L 341.275482 167.187548 
L 340.010257 166.57466 
L 339.733403 166.440553 
L 338.395183 165.803154 
L 338.248494 165.733288 
L 336.837315 165.072898 
L 336.820294 165.064933 
L 335.336119 164.383104 
L 335.448465 164.434713 
L 333.891192 163.733032 
L 334.132785 163.841885 
" style="fill:none;stroke:#000000;stroke-linecap:square;"/>
   </g>
   <g id="line2d_5">
    <path clip-path="url(#pe9dc9a8678)" d="M 366.047409 128.904296 
L 366.179484 128.948611 
L 363.075926 127.907313 
L 363.12109 127.922266 
L 360.187264 126.950968 
L 360.148067 126.93817 
L 357.378313 126.033851 
L 357.257096 125.994842 
L 354.646196 125.15465 
L 354.445105 125.090908 
L 351.988251 124.312152 
L 351.709256 124.225101 
L 349.402026 123.505228 
L 349.046927 123.396245 
L 346.885259 122.732834 
L 346.455707 122.60326 
L 344.435875 121.994001 
L 343.933378 121.845146 
L 342.051971 121.287835 
L 341.477908 121.120985 
L 339.731814 120.613507 
L 339.087444 120.429934 
L 337.473829 119.970253 
L 336.760301 119.771218 
L 335.276594 119.357365 
L 334.494958 119.144132 
L 333.138837 118.774193 
L 332.290051 118.548028 
L 331.059424 118.220134 
L 330.144367 117.982319 
L 329.037361 117.694633 
L 328.056839 117.446471 
L 327.071788 117.197176 
L 326.026544 116.939999 
L 325.161972 116.727287 
L 324.052697 116.462464 
L 323.307306 116.284523 
L 322.134646 116.013467 
L 321.507305 115.868468 
L 320.271875 115.592646 
L 319.761602 115.478731 
L 318.463992 115.199672 
L 318.069944 115.114935 
L 316.710733 114.834238 
L 316.432188 114.776719 
L 315.011956 114.496062 
L 314.848299 114.463724 
L 313.367638 114.184874 
L 313.318343 114.175591 
L 311.777869 113.900412 
L 311.842481 113.911953 
L 310.242853 113.642417 
L 310.420968 113.672426 
L 308.762897 113.41062 
L 309.054141 113.456601 
" style="fill:none;stroke:#000000;stroke-linecap:square;"/>
   </g>
   <g id="line2d_6">
    <path clip-path="url(#pe9dc9a8678)" d="M 336.367455 81.281958 
L 336.482999 81.299354 
L 333.364367 80.829855 
L 333.408958 80.836424 
L 330.429822 80.397534 
L 330.405601 80.394047 
L 327.561353 79.984548 
L 327.470311 79.971756 
L 324.756676 79.590508 
L 324.600669 79.569155 
L 322.013687 79.215087 
L 321.79444 79.185909 
L 319.330451 78.85801 
L 319.049574 78.821743 
L 316.705198 78.519059 
L 316.364191 78.476447 
L 314.136322 78.198071 
L 313.736586 78.149867 
L 311.622371 77.89493 
L 311.165218 77.841905 
L 309.162048 77.609574 
L 308.648708 77.552522 
L 306.754208 77.341986 
L 306.185837 77.28173 
L 304.397855 77.092195 
L 303.775547 77.029594 
L 302.092139 76.860271 
L 301.416931 76.796227 
L 299.836356 76.646326 
L 299.109241 76.581789 
L 297.629948 76.450507 
L 296.85188 76.386483 
L 295.472497 76.272995 
L 294.644404 76.210551 
L 293.363727 76.113996 
L 292.48652 76.054272 
L 291.303501 75.973743 
L 290.378085 75.917955 
L 289.291821 75.852485 
L 288.319104 75.801933 
L 287.32882 75.750483 
L 286.309728 75.70656 
L 285.414765 75.668002 
L 284.350252 75.632202 
L 283.550049 75.605305 
L 282.441111 75.579229 
L 281.735186 75.562643 
L 280.582874 75.548008 
L 279.970807 75.540247 
L 278.776242 75.538892 
L 278.257649 75.538315 
L 277.022037 75.55221 
L 276.596548 75.557005 
L 275.321197 75.588256 
L 274.988428 75.596418 
L 273.674764 75.647276 
L 273.434288 75.656592 
L 272.08387 75.729454 
L 271.935186 75.737481 
L 270.549727 75.834902 
L 270.492222 75.838948 
L 269.073606 75.963639 
L 269.106522 75.960745 
L 267.656823 76.11558 
L 267.779214 76.102504 
L 266.300711 76.290516 
L 266.511406 76.263716 
" style="fill:none;stroke:#000000;stroke-linecap:square;"/>
   </g>
   <g id="line2d_7">
    <path clip-path="url(#pe9dc9a8678)" d="M 291.690286 44.115834 
L 291.815157 44.120328 
L 288.718419 44.008885 
L 288.79479 44.011509 
L 285.791758 43.908352 
L 285.82118 43.909307 
L 282.908671 43.814818 
L 282.892597 43.814332 
L 280.067707 43.728934 
L 280.007497 43.727267 
L 277.267594 43.651421 
L 277.164525 43.648868 
L 274.507245 43.583065 
L 274.362514 43.579961 
L 271.785758 43.524722 
L 271.600493 43.521447 
L 269.102421 43.477315 
L 268.877684 43.4743 
L 266.456714 43.441835 
L 266.19351 43.439562 
L 263.848313 43.419334 
L 263.547594 43.418348 
L 261.277093 43.410928 
L 260.939768 43.411838 
L 258.743135 43.41779 
L 258.370075 43.421276 
L 256.246725 43.441144 
L 255.838771 43.447964 
L 253.788356 43.482265 
L 253.346327 43.493257 
L 251.368735 43.542463 
L 250.893436 43.558557 
L 248.988778 43.623082 
L 248.48101 43.645304 
L 246.649614 43.725486 
L 246.110182 43.754964 
L 244.35258 43.851047 
L 243.782304 43.889021 
L 242.099216 44.001133 
L 241.498943 44.04896 
L 239.891261 44.177091 
L 239.261877 44.236253 
L 237.730641 44.380229 
L 237.073087 44.452342 
L 235.619459 44.6118 
L 234.934741 44.69862 
L 233.559979 44.872976 
L 232.849186 44.976407 
L 231.554606 45.164829 
L 230.818928 45.286929 
L 229.605861 45.488304 
L 228.846609 45.631292 
L 227.716359 45.844195 
L 226.934979 46.010457 
L 225.888774 46.233115 
L 225.086871 46.425208 
L 224.125804 46.655474 
L 223.305163 46.876127 
L 222.430136 47.111448 
L 221.592742 47.363561 
L 220.804398 47.600952 
L 219.952456 47.887597 
L 219.251115 48.123616 
L 218.387074 48.448031 
L 217.772664 48.678761 
L 216.899232 49.04434 
L 216.37122 49.265382 
L 215.491383 49.675664 
L 215.048709 49.882127 
L 214.165744 50.340777 
L 213.806753 50.527287 
L 212.924241 51.03808 
L 212.646626 51.198791 
L 211.768457 51.765582 
L 211.569206 51.894206 
L 210.699579 52.520901 
L 210.574935 52.610742 
L 209.718353 53.301265 
L 209.663779 53.345267 
L 208.82504 54.103521 
L 208.835206 54.094328 
L 208.019381 54.924151 
L 208.088159 54.854179 
L 207.300568 55.759301 
L 207.421045 55.620817 
" style="fill:none;stroke:#000000;stroke-linecap:square;"/>
   </g>
   <g id="line2d_8">
    <path clip-path="url(#pe9dc9a8678)" d="M 178.675526 16.862059 
L 178.803504 16.833846 
L 175.873714 17.479864 
L 175.982514 17.452663 
L 173.140247 18.163394 
L 173.229099 18.138278 
L 170.481796 18.91502 
L 170.549955 18.893289 
L 167.905197 19.736697 
L 167.951985 19.719903 
L 165.417375 20.629898 
L 165.442227 20.619867 
L 163.025244 21.595548 
L 163.027766 21.594405 
L 160.735612 22.633971 
L 160.71563 22.644149 
L 158.555064 23.744831 
L 158.512687 23.769086 
L 156.489855 24.927089 
L 156.425533 24.968501 
L 154.545784 26.178969 
L 154.460363 26.24094 
L 152.728084 27.497936 
L 152.622861 27.584176 
L 151.0413 28.88069 
L 150.91807 28.995193 
L 149.489188 30.323174 
L 149.350284 30.470184 
L 148.074617 31.820597 
L 147.922934 32.004568 
L 146.799486 33.367481 
L 146.638501 33.593021 
L 145.664659 34.957713 
L 145.49843 35.229524 
L 144.669924 36.584625 
L 144.503075 36.907436 
L 143.813965 38.241078 
L 143.651658 38.619567 
L 143.094367 39.919559 
L 142.942254 40.358283 
L 142.507634 41.612293 
L 142.371801 42.115603 
L 142.049243 43.311349 
L 141.936132 43.883322 
L 141.713703 45.008758 
L 141.63003 45.653124 
L 141.494645 46.696625 
L 141.44731 47.4167 
L 141.384925 48.367235 
L 141.380909 49.16587 
L 141.376733 50.013152 
L 141.423004 50.89269 
L 141.461721 51.627312 
L 141.565133 52.589553 
L 141.631126 53.203098 
L 141.798325 54.249279 
L 141.875898 54.734403 
L 142.113235 55.865195 
L 142.186826 56.215682 
L 142.50028 57.431191 
L 142.554656 57.641986 
L 142.949769 58.941773 
L 142.970205 59.008982 
L 143.452022 60.392089 
L 143.424453 60.312964 
L 143.997488 61.777945 
L 143.908639 61.55084 
" style="fill:none;stroke:#000000;stroke-linecap:square;"/>
   </g>
   <g id="line2d_9">
    <path clip-path="url(#pe9dc9a8678)" d="M 60.650357 69.73607 
L 60.583954 69.641939 
L 62.496034 72.352113 
L 62.503019 72.361331 
L 64.389052 74.849842 
L 64.478719 74.960637 
L 66.313376 77.227311 
L 66.493863 77.437164 
L 68.254133 79.483632 
L 68.532418 79.789393 
L 70.197659 81.618871 
L 70.579586 82.016864 
L 72.131515 83.63393 
L 72.621835 84.120061 
L 74.044482 85.530434 
L 74.646914 86.100294 
L 75.926529 87.310623 
L 76.643837 87.959582 
L 77.768776 88.977251 
L 78.602844 89.700541 
L 79.563433 90.533485 
L 80.515353 91.326276 
L 81.303733 91.982819 
L 82.373894 92.840284 
L 82.983866 93.328991 
L 84.172041 94.246367 
L 84.598896 94.575916 
L 85.904327 95.548544 
L 86.144691 95.727619 
L 87.566173 96.750987 
L 87.617839 96.788182 
L 89.153798 97.857956 
L 89.015583 97.761696 
" style="fill:none;stroke:#000000;stroke-linecap:square;"/>
   </g>
   <g id="line2d_10">
    <path clip-path="url(#pe9dc9a8678)" d="M 19.19424 148.884735 
L 19.043919 148.834133 
L 22.892044 150.129408 
L 22.924525 150.139899 
L 26.416633 151.267727 
L 26.625602 151.332507 
L 29.771098 152.307534 
L 30.150156 152.420344 
L 32.958937 153.256188 
L 33.501684 153.411286 
L 35.983953 154.120576 
L 36.684065 154.312714 
L 38.850169 154.90713 
L 39.70145 155.131521 
L 41.56175 155.621843 
L 42.558184 155.874134 
L 44.122945 156.270292 
L 45.25873 156.546534 
L 46.538027 156.857657 
L 47.807605 157.154275 
L 48.811255 157.388744 
L 50.209333 157.702507 
L 50.946836 157.868007 
L 52.468399 158.196002 
L 52.948891 158.29957 
L 54.589216 158.639174 
L 54.821436 158.687248 
L 56.576096 159.036105 
L 56.568358 159.034566 
L 58.433225 159.390564 
L 58.1934 159.344786 
" style="fill:none;stroke:#000000;stroke-linecap:square;"/>
   </g>
   <g id="line2d_11">
    <path clip-path="url(#pe9dc9a8678)" d="M 22.433868 233.865056 
L 22.393806 233.868086 
L 26.05471 233.591153 
L 26.189604 233.580141 
L 29.47599 233.311819 
L 29.776207 233.285558 
L 32.707639 233.029105 
L 33.164338 232.986561 
L 35.758915 232.744835 
L 36.363991 232.68512 
L 38.638445 232.460632 
L 39.384479 232.382984 
L 41.354261 232.177944 
L 42.234474 232.081702 
L 43.91384 231.898062 
L 44.922046 231.782652 
L 46.324134 231.622139 
L 47.454702 231.487057 
L 48.591602 231.351207 
L 49.839419 231.196008 
L 50.722243 231.086196 
L 52.082679 230.910474 
L 52.721618 230.827939 
L 54.190494 230.631325 
L 54.594881 230.577193 
L 56.16844 230.359338 
L 56.346797 230.334643 
L 58.021679 230.095214 
L 57.981768 230.10092 
" style="fill:none;stroke:#000000;stroke-linecap:square;"/>
   </g>
   <g id="line2d_12">
    <path clip-path="url(#pe9dc9a8678)" d="M 285.71802 323.526154 
L 292.332983 318.750344 
L 298.713997 313.644932 
L 304.841135 308.221844 
L 310.695049 302.494315 
L 316.257068 296.476869 
L 321.509312 290.185299 
L 326.434791 283.63663 
L 331.017517 276.849073 
L 335.242614 269.841978 
L 339.096421 262.635758 
L 342.5666 255.251821 
L 345.642235 247.712471 
L 348.313928 240.040817 
L 350.573891 232.260652 
L 352.416024 224.396334 
L 353.835988 216.472651 
L 354.831266 208.51467 
L 355.401212 200.547591 
L 355.547083 192.596575 
L 355.272059 184.686581 
L 354.581244 176.842186 
L 353.481649 169.087406 
L 351.982156 161.445516 
L 350.09346 153.938869 
L 347.827993 146.588719 
L 345.199826 139.415052 
L 342.224547 132.436423 
L 338.91912 125.669805 
L 335.301728 119.13046 
L 331.391589 112.831821 
L 327.208764 106.785399 
L 322.773944 101.000718 
L 318.10823 95.485273 
L 313.232902 90.24452 
L 308.169184 85.281901 
L 302.938011 80.598898 
L 297.559796 76.195126 
L 292.054209 72.068456 
L 286.439967 68.215177 
L 280.734643 64.630184 
L 274.954493 61.307203 
L 269.114316 58.239035 
L 263.227335 55.417828 
L 257.305116 52.83536 
L 251.357521 50.483344 
L 245.392697 48.353721 
L 239.417107 46.438966 
L 233.435602 44.732365 
L 227.451529 43.228286 
L 221.466887 41.922401 
L 215.482523 40.811878 
L 209.498358 39.89551 
L 203.513654 39.173787 
L 197.527296 38.648902 
L 191.538103 38.324678 
L 185.545126 38.20644 
L 179.547944 38.300814 
L 173.546941 38.615488 
L 167.543534 39.158931 
L 161.540369 39.940097 
L 155.54146 40.968123 
L 149.552272 42.252044 
L 143.579761 43.800523 
L 137.632358 45.621609 
L 131.719912 47.722526 
L 125.853604 50.109503 
L 120.045824 52.787629 
L 114.310038 55.76074 
L 108.660627 59.031339 
L 103.112731 62.600544 
L 97.682083 66.468055 
L 92.384843 70.632145 
L 87.237443 75.089672 
L 82.256438 79.836101 
L 77.458358 84.865544 
L 72.859587 90.170809 
L 68.476245 95.743453 
L 64.324082 101.573845 
L 60.418387 107.651227 
L 56.773914 113.963782 
L 53.404806 120.498696 
L 50.32454 127.242218 
L 47.545876 134.179725 
L 45.080809 141.295771 
L 42.940533 148.574147 
L 41.135404 155.997924 
L 39.674904 163.549505 
L 38.567611 171.210666 
L 37.821165 178.962598 
L 37.442236 186.785953 
L 37.436494 194.660882 
L 37.808567 202.567082 
L 38.562015 210.483836 
L 39.699288 218.390067 
L 41.22169 226.264387 
L 43.129348 234.085151 
L 45.42117 241.830523 
L 48.094816 249.478538 
L 51.146663 257.007173 
L 52.812922 260.719846 
L 52.812922 260.719846 
" style="fill:none;stroke:#0000ff;stroke-linecap:square;"/>
   </g>
  </g>
 </g>
 <defs>
  <clipPath id="pe9dc9a8678">
   <rect height="318.96" width="373.96602" x="10.7" y="10.7"/>
  </clipPath>
 </defs>
</svg>
