  0
SECTION
  2
HEADER
  9
$ACADVER
  1
AC1014
  9
$HANDSEED
  5
FFFF
  9
$MEASUREMENT
 70
     1
  0
ENDSEC
  0
SECTION
  2
TABLES
  0
TABLE
  2
VPORT
  5
8
330
0
100
AcDbSymbolTable
 70
     4
  0
VPORT
  5
2E
330
8
100
AcDbSymbolTableRecord
100
AcDbViewportTableRecord
  2
*ACTIVE
 70
     0
 10
0.0
 20
0.0
 11
1.0
 21
1.0
 12
210.0
 22
148.5
 13
0.0
 23
0.0
 14
10.0
 24
10.0
 15
10.0
 25
10.0
 16
0.0
 26
0.0
 36
1.0
 17
0.0
 27
0.0
 37
0.0
 40
341.0
 41
1.24
 42
50.0
 43
0.0
 44
0.0
 50
0.0
 51
0.0
 71
     0
 72
   100
 73
     1
 74
     3
 75
     0
 76
     0
 77
     0
 78
     0
  0
ENDTAB
  0
TABLE
  2
LTYPE
  5
5
330
0
100
AcDbSymbolTable
 70
     1
  0
LTYPE
  5
14
330
5
100
AcDbSymbolTableRecord
100
AcDbLinetypeTableRecord
  2
BYBLOCK
 70
     0
  3

 72
    65
 73
     0
 40
0.0
  0
LTYPE
  5
15
330
5
100
AcDbSymbolTableRecord
100
AcDbLinetypeTableRecord
  2
BYLAYER
 70
     0
  3

 72
    65
 73
     0
 40
0.0
  0
LTYPE
  5
16
330
5
100
AcDbSymbolTableRecord
100
AcDbLinetypeTableRecord
  2
CONTINUOUS
 70
     0
  3
Solid line
 72
    65
 73
     0
 40
0.0
  0
ENDTAB
  0
TABLE
  2
LAYER
  5
2
100
AcDbSymbolTable
 70
1
  0
LAYER
  5
50
100
AcDbSymbolTableRecord
100
AcDbLayerTableRecord
  2
0
 70
0
  6
CONTINUOUS
  0
ENDTAB
  0
TABLE
  2
STYLE
  5
3
330
0
100
AcDbSymbolTable
 70
     1
  0
STYLE
  5
11
330
3
100
AcDbSymbolTableRecord
100
AcDbTextStyleTableRecord
  2
STANDARD
 70
     0
 40
0.0
 41
1.0
 50
0.0
 71
     0
 42
2.5
  3
txt
  4

  0
ENDTAB
  0
TABLE
  2
VIEW
  5
6
330
0
100
AcDbSymbolTable
 70
     0
  0
ENDTAB
  0
TABLE
  2
UCS
  5
7
330
0
100
AcDbSymbolTable
 70
     0
  0
ENDTAB
  0
TABLE
  2
APPID
  5
9
330
0
100
AcDbSymbolTable
 70
     2
  0
APPID
  5
12
330
9
100
AcDbSymbolTableRecord
100
AcDbRegAppTableRecord
  2
ACAD
 70
     0
  0
ENDTAB
  0
TABLE
  2
DIMSTYLE
  5
A
330
0
100
AcDbSymbolTable
 70
     1
  0
DIMSTYLE
105
27
330
A
100
AcDbSymbolTableRecord
100
AcDbDimStyleTableRecord
  2
ISO-25
 70
     0
  3

  4

  5

  6

  7

 40
1.0
 41
2.5
 42
0.625
 43
3.75
 44
1.25
 45
0.0
 46
0.0
 47
0.0
 48
0.0
140
2.5
141
2.5
142
0.0
143
0.03937007874016
144
1.0
145
0.0
146
1.0
147
0.625
 71
     0
 72
     0
 73
     0
 74
     0
 75
     0
 76
     0
 77
     1
 78
     8
170
     0
171
     3
172
     1
173
     0
174
     0
175
     0
176
     0
177
     0
178
     0
270
     2
271
     2
272
     2
273
     2
274
     3
340
11
275
     0
280
     0
281
     0
282
     0
283
     0
284
     8
285
     0
286
     0
287
     3
288
     0
  0
ENDTAB
  0
TABLE
  2
BLOCK_RECORD
  5
1
330
0
100
AcDbSymbolTable
 70
     1
  0
BLOCK_RECORD
  5
1F
330
1
100
AcDbSymbolTableRecord
100
AcDbBlockTableRecord
  2
*MODEL_SPACE
  0
BLOCK_RECORD
  5
1B
330
1
100
AcDbSymbolTableRecord
100
AcDbBlockTableRecord
  2
*PAPER_SPACE
  0
ENDTAB
  0
ENDSEC
  0
SECTION
  2
BLOCKS
  0
BLOCK
  5
20
330
1F
100
AcDbEntity
  8
0
100
AcDbBlockBegin
  2
*MODEL_SPACE
 70
     0
 10
0.0
 20
0.0
 30
0.0
  3
*MODEL_SPACE
  1

  0
ENDBLK
  5
21
330
1F
100
AcDbEntity
  8
0
100
AcDbBlockEnd
  0
BLOCK
  5
1C
330
1B
100
AcDbEntity
 67
     1
  8
0
100
AcDbBlockBegin
  2
*PAPER_SPACE
  1

  0
ENDBLK
  5
1D
330
1B
100
AcDbEntity
 67
     1
  8
0
100
AcDbBlockEnd
  0
ENDSEC
  0
SECTION
  2
ENTITIES
  0
LINE
  5
100
100
AcDbEntity
  8
0
 62
5
100
AcDbLine
 10
255.379917
 20
16.833839
 30
0.0
 11
262.033737
 21
20.074539
 31
0.0
  0
LINE
  5
101
100
AcDbEntity
  8
0
 62
5
100
AcDbLine
 10
262.033737
 20
20.074539
 30
0.0
 11
268.531237
 21
23.648849
 31
0.0
  0
LINE
  5
102
100
AcDbEntity
  8
0
 62
5
100
AcDbLine
 10
268.531237
 20
23.648849
 30
0.0
 11
274.852167
 21
27.548759
 31
0.0
  0
LINE
  5
103
100
AcDbEntity
  8
0
 62
5
100
AcDbLine
 10
274.852167
 20
27.548759
 30
0.0
 11
280.976676
 21
31.764938
 31
0.0
  0
LINE
  5
104
100
AcDbEntity
  8
0
 62
5
100
AcDbLine
 10
280.976676
 20
31.764938
 30
0.0
 11
286.885396
 21
36.286698
 31
0.0
  0
LINE
  5
105
100
AcDbEntity
  8
0
 62
5
100
AcDbLine
 10
286.885396
 20
36.286698
 30
0.0
 11
292.559566
 21
41.102058
 31
0.0
  0
LINE
  5
106
100
AcDbEntity
  8
0
 62
5
100
AcDbLine
 10
292.559566
 20
41.102058
 30
0.0
 11
297.981115
 21
46.197738
 31
0.0
  0
LINE
  5
107
100
AcDbEntity
  8
0
 62
5
100
AcDbLine
 10
297.981115
 20
46.197738
 30
0.0
 11
303.132795
 21
51.559217
 31
0.0
  0
LINE
  5
108
100
AcDbEntity
  8
0
 62
5
100
AcDbLine
 10
303.132795
 20
51.559217
 30
0.0
 11
307.998305
 21
57.170787
 31
0.0
  0
LINE
  5
109
100
AcDbEntity
  8
0
 62
5
100
AcDbLine
 10
307.998305
 20
57.170787
 30
0.0
 11
312.562345
 21
63.015607
 31
0.0
  0
LINE
  5
10a
100
AcDbEntity
  8
0
 62
5
100
AcDbLine
 10
312.562345
 20
63.015607
 30
0.0
 11
316.810774
 21
69.075767
 31
0.0
  0
LINE
  5
10b
100
AcDbEntity
  8
0
 62
5
100
AcDbLine
 10
316.810774
 20
69.075767
 30
0.0
 11
320.730654
 21
75.332376
 31
0.0
  0
LINE
  5
10c
100
AcDbEntity
  8
0
 62
5
100
AcDbLine
 10
320.730654
 20
75.332376
 30
0.0
 11
324.310414
 21
81.765676
 31
0.0
  0
LINE
  5
10d
100
AcDbEntity
  8
0
 62
5
100
AcDbLine
 10
324.310414
 20
81.765676
 30
0.0
 11
327.539874
 21
88.355116
 31
0.0
  0
LINE
  5
10e
100
AcDbEntity
  8
0
 62
5
100
AcDbLine
 10
327.539874
 20
88.355116
 30
0.0
 11
330.410334
 21
95.079445
 31
0.0
  0
LINE
  5
10f
100
AcDbEntity
  8
0
 62
5
100
AcDbLine
 10
330.410334
 20
95.079445
 30
0.0
 11
332.914674
 21
101.916915
 31
0.0
  0
LINE
  5
110
100
AcDbEntity
  8
0
 62
5
100
AcDbLine
 10
332.914674
 20
101.916915
 30
0.0
 11
335.047404
 21
108.845335
 31
0.0
  0
LINE
  5
111
100
AcDbEntity
  8
0
 62
5
100
AcDbLine
 10
335.047404
 20
108.845335
 30
0.0
 11
336.804683
 21
115.842214
 31
0.0
  0
LINE
  5
112
100
AcDbEntity
  8
0
 62
5
100
AcDbLine
 10
336.804683
 20
115.842214
 30
0.0
 11
338.184393
 21
122.884954
 31
0.0
  0
LINE
  5
113
100
AcDbEntity
  8
0
 62
5
100
AcDbLine
 10
338.184393
 20
122.884954
 30
0.0
 11
339.186123
 21
129.950984
 31
0.0
  0
LINE
  5
114
100
AcDbEntity
  8
0
 62
5
100
AcDbLine
 10
339.186123
 20
129.950984
 30
0.0
 11
339.811213
 21
137.017863
 31
0.0
  0
LINE
  5
115
100
AcDbEntity
  8
0
 62
5
100
AcDbLine
 10
339.811213
 20
137.017863
 30
0.0
 11
340.062713
 21
144.063523
 31
0.0
  0
LINE
  5
116
100
AcDbEntity
  8
0
 62
5
100
AcDbLine
 10
340.062713
 20
144.063523
 30
0.0
 11
339.945393
 21
151.066373
 31
0.0
  0
LINE
  5
117
100
AcDbEntity
  8
0
 62
5
100
AcDbLine
 10
339.945393
 20
151.066373
 30
0.0
 11
339.465643
 21
158.005452
 31
0.0
  0
LINE
  5
118
100
AcDbEntity
  8
0
 62
5
100
AcDbLine
 10
339.465643
 20
158.005452
 30
0.0
 11
338.631473
 21
164.860642
 31
0.0
  0
LINE
  5
119
100
AcDbEntity
  8
0
 62
5
100
AcDbLine
 10
338.631473
 20
164.860642
 30
0.0
 11
337.452413
 21
171.612732
 31
0.0
  0
LINE
  5
11a
100
AcDbEntity
  8
0
 62
5
100
AcDbLine
 10
337.452413
 20
171.612732
 30
0.0
 11
335.939394
 21
178.243651
 31
0.0
  0
LINE
  5
11b
100
AcDbEntity
  8
0
 62
5
100
AcDbLine
 10
335.939394
 20
178.243651
 30
0.0
 11
334.104684
 21
184.736531
 31
0.0
  0
LINE
  5
11c
100
AcDbEntity
  8
0
 62
5
100
AcDbLine
 10
334.104684
 20
184.736531
 30
0.0
 11
331.961704
 21
191.075851
 31
0.0
  0
LINE
  5
11d
100
AcDbEntity
  8
0
 62
5
100
AcDbLine
 10
331.961704
 20
191.075851
 30
0.0
 11
329.524904
 21
197.247550
 31
0.0
  0
LINE
  5
11e
100
AcDbEntity
  8
0
 62
5
100
AcDbLine
 10
329.524904
 20
197.247550
 30
0.0
 11
326.809654
 21
203.239120
 31
0.0
  0
LINE
  5
11f
100
AcDbEntity
  8
0
 62
5
100
AcDbLine
 10
326.809654
 20
203.239120
 30
0.0
 11
323.831994
 21
209.039630
 31
0.0
  0
LINE
  5
120
100
AcDbEntity
  8
0
 62
5
100
AcDbLine
 10
323.831994
 20
209.039630
 30
0.0
 11
320.608504
 21
214.639819
 31
0.0
  0
LINE
  5
121
100
AcDbEntity
  8
0
 62
5
100
AcDbLine
 10
320.608504
 20
214.639819
 30
0.0
 11
317.156104
 21
220.032109
 31
0.0
  0
LINE
  5
122
100
AcDbEntity
  8
0
 62
5
100
AcDbLine
 10
317.156104
 20
220.032109
 30
0.0
 11
313.491875
 21
225.210559
 31
0.0
  0
LINE
  5
123
100
AcDbEntity
  8
0
 62
5
100
AcDbLine
 10
313.491875
 20
225.210559
 30
0.0
 11
309.632835
 21
230.170899
 31
0.0
  0
LINE
  5
124
100
AcDbEntity
  8
0
 62
5
100
AcDbLine
 10
309.632835
 20
230.170899
 30
0.0
 11
305.595805
 21
234.910418
 31
0.0
  0
LINE
  5
125
100
AcDbEntity
  8
0
 62
5
100
AcDbLine
 10
305.595805
 20
234.910418
 30
0.0
 11
301.397175
 21
239.427908
 31
0.0
  0
LINE
  5
126
100
AcDbEntity
  8
0
 62
5
100
AcDbLine
 10
301.397175
 20
239.427908
 30
0.0
 11
297.052755
 21
243.723538
 31
0.0
  0
LINE
  5
127
100
AcDbEntity
  8
0
 62
5
100
AcDbLine
 10
297.052755
 20
243.723538
 30
0.0
 11
292.577616
 21
247.798748
 31
0.0
  0
LINE
  5
128
100
AcDbEntity
  8
0
 62
5
100
AcDbLine
 10
292.577616
 20
247.798748
 30
0.0
 11
287.985916
 21
251.656038
 31
0.0
  0
LINE
  5
129
100
AcDbEntity
  8
0
 62
5
100
AcDbLine
 10
287.985916
 20
251.656038
 30
0.0
 11
283.290826
 21
255.298827
 31
0.0
  0
LINE
  5
12a
100
AcDbEntity
  8
0
 62
5
100
AcDbLine
 10
283.290826
 20
255.298827
 30
0.0
 11
278.504356
 21
258.731237
 31
0.0
  0
LINE
  5
12b
100
AcDbEntity
  8
0
 62
5
100
AcDbLine
 10
278.504356
 20
258.731237
 30
0.0
 11
273.637347
 21
261.957887
 31
0.0
  0
LINE
  5
12c
100
AcDbEntity
  8
0
 62
5
100
AcDbLine
 10
273.637347
 20
261.957887
 30
0.0
 11
268.699357
 21
264.983667
 31
0.0
  0
LINE
  5
12d
100
AcDbEntity
  8
0
 62
5
100
AcDbLine
 10
268.699357
 20
264.983667
 30
0.0
 11
263.698677
 21
267.813477
 31
0.0
  0
LINE
  5
12e
100
AcDbEntity
  8
0
 62
5
100
AcDbLine
 10
263.698677
 20
267.813477
 30
0.0
 11
258.642287
 21
270.452067
 31
0.0
  0
LINE
  5
12f
100
AcDbEntity
  8
0
 62
5
100
AcDbLine
 10
258.642287
 20
270.452067
 30
0.0
 11
253.535948
 21
272.903717
 31
0.0
  0
LINE
  5
130
100
AcDbEntity
  8
0
 62
5
100
AcDbLine
 10
253.535948
 20
272.903717
 30
0.0
 11
248.384188
 21
275.172117
 31
0.0
  0
LINE
  5
131
100
AcDbEntity
  8
0
 62
5
100
AcDbLine
 10
248.384188
 20
275.172117
 30
0.0
 11
243.190488
 21
277.260126
 31
0.0
  0
LINE
  5
132
100
AcDbEntity
  8
0
 62
5
100
AcDbLine
 10
243.190488
 20
277.260126
 30
0.0
 11
237.957338
 21
279.169626
 31
0.0
  0
LINE
  5
133
100
AcDbEntity
  8
0
 62
5
100
AcDbLine
 10
237.957338
 20
279.169626
 30
0.0
 11
232.686409
 21
280.901396
 31
0.0
  0
LINE
  5
134
100
AcDbEntity
  8
0
 62
5
100
AcDbLine
 10
232.686409
 20
280.901396
 30
0.0
 11
227.378759
 21
282.455036
 31
0.0
  0
LINE
  5
135
100
AcDbEntity
  8
0
 62
5
100
AcDbLine
 10
227.378759
 20
282.455036
 30
0.0
 11
222.034989
 21
283.828906
 31
0.0
  0
LINE
  5
136
100
AcDbEntity
  8
0
 62
5
100
AcDbLine
 10
222.034989
 20
283.828906
 30
0.0
 11
216.655519
 21
285.020176
 31
0.0
  0
LINE
  5
137
100
AcDbEntity
  8
0
 62
5
100
AcDbLine
 10
216.655519
 20
285.020176
 30
0.0
 11
211.240750
 21
286.024866
 31
0.0
  0
LINE
  5
138
100
AcDbEntity
  8
0
 62
5
100
AcDbLine
 10
211.240750
 20
286.024866
 30
0.0
 11
205.791310
 21
286.837966
 31
0.0
  0
LINE
  5
139
100
AcDbEntity
  8
0
 62
5
100
AcDbLine
 10
205.791310
 20
286.837966
 30
0.0
 11
200.308270
 21
287.453566
 31
0.0
  0
LINE
  5
13a
100
AcDbEntity
  8
0
 62
5
100
AcDbLine
 10
200.308270
 20
287.453566
 30
0.0
 11
194.793320
 21
287.865056
 31
0.0
  0
LINE
  5
13b
100
AcDbEntity
  8
0
 62
5
100
AcDbLine
 10
194.793320
 20
287.865056
 30
0.0
 11
189.248911
 21
288.065286
 31
0.0
  0
LINE
  5
13c
100
AcDbEntity
  8
0
 62
5
100
AcDbLine
 10
189.248911
 20
288.065286
 30
0.0
 11
183.678421
 21
288.046786
 31
0.0
  0
LINE
  5
13d
100
AcDbEntity
  8
0
 62
5
100
AcDbLine
 10
183.678421
 20
288.046786
 30
0.0
 11
178.086221
 21
287.801956
 31
0.0
  0
LINE
  5
13e
100
AcDbEntity
  8
0
 62
5
100
AcDbLine
 10
178.086221
 20
287.801956
 30
0.0
 11
172.477722
 21
287.323256
 31
0.0
  0
LINE
  5
13f
100
AcDbEntity
  8
0
 62
5
100
AcDbLine
 10
172.477722
 20
287.323256
 30
0.0
 11
166.859422
 21
286.603396
 31
0.0
  0
LINE
  5
140
100
AcDbEntity
  8
0
 62
5
100
AcDbLine
 10
166.859422
 20
286.603396
 30
0.0
 11
161.238912
 21
285.635456
 31
0.0
  0
LINE
  5
141
100
AcDbEntity
  8
0
 62
5
100
AcDbLine
 10
161.238912
 20
285.635456
 30
0.0
 11
155.624792
 21
284.413056
 31
0.0
  0
LINE
  5
142
100
AcDbEntity
  8
0
 62
5
100
AcDbLine
 10
155.624792
 20
284.413056
 30
0.0
 11
150.026693
 21
282.930466
 31
0.0
  0
LINE
  5
143
100
AcDbEntity
  8
0
 62
5
100
AcDbLine
 10
150.026693
 20
282.930466
 30
0.0
 11
144.455133
 21
281.182696
 31
0.0
  0
LINE
  5
144
100
AcDbEntity
  8
0
 62
5
100
AcDbLine
 10
144.455133
 20
281.182696
 30
0.0
 11
138.921503
 21
279.165616
 31
0.0
  0
LINE
  5
145
100
AcDbEntity
  8
0
 62
5
100
AcDbLine
 10
138.921503
 20
279.165616
 30
0.0
 11
133.437953
 21
276.875966
 31
0.0
  0
LINE
  5
146
100
AcDbEntity
  8
0
 62
5
100
AcDbLine
 10
133.437953
 20
276.875966
 30
0.0
 11
128.017264
 21
274.311447
 31
0.0
  0
LINE
  5
147
100
AcDbEntity
  8
0
 62
5
100
AcDbLine
 10
128.017264
 20
274.311447
 30
0.0
 11
122.672824
 21
271.470777
 31
0.0
  0
LINE
  5
148
100
AcDbEntity
  8
0
 62
5
100
AcDbLine
 10
122.672824
 20
271.470777
 30
0.0
 11
117.418434
 21
268.353647
 31
0.0
  0
LINE
  5
149
100
AcDbEntity
  8
0
 62
5
100
AcDbLine
 10
117.418434
 20
268.353647
 30
0.0
 11
112.268314
 21
264.960837
 31
0.0
  0
LINE
  5
14a
100
AcDbEntity
  8
0
 62
5
100
AcDbLine
 10
112.268314
 20
264.960837
 30
0.0
 11
107.236925
 21
261.294137
 31
0.0
  0
LINE
  5
14b
100
AcDbEntity
  8
0
 62
5
100
AcDbLine
 10
107.236925
 20
261.294137
 30
0.0
 11
102.338905
 21
257.356397
 31
0.0
  0
LINE
  5
14c
100
AcDbEntity
  8
0
 62
5
100
AcDbLine
 10
102.338905
 20
257.356397
 30
0.0
 11
97.589015
 21
253.151518
 31
0.0
  0
LINE
  5
14d
100
AcDbEntity
  8
0
 62
5
100
AcDbLine
 10
97.589015
 20
253.151518
 30
0.0
 11
93.002004
 21
248.684428
 31
0.0
  0
LINE
  5
14e
100
AcDbEntity
  8
0
 62
5
100
AcDbLine
 10
93.002004
 20
248.684428
 30
0.0
 11
88.592568
 21
243.961088
 31
0.0
  0
LINE
  5
14f
100
AcDbEntity
  8
0
 62
5
100
AcDbLine
 10
88.592568
 20
243.961088
 30
0.0
 11
84.375259
 21
238.988468
 31
0.0
  0
LINE
  5
150
100
AcDbEntity
  8
0
 62
5
100
AcDbLine
 10
84.375259
 20
238.988468
 30
0.0
 11
80.364426
 21
233.774529
 31
0.0
  0
LINE
  5
151
100
AcDbEntity
  8
0
 62
5
100
AcDbLine
 10
80.364426
 20
233.774529
 30
0.0
 11
76.574143
 21
228.328219
 31
0.0
  0
LINE
  5
152
100
AcDbEntity
  8
0
 62
5
100
AcDbLine
 10
76.574143
 20
228.328219
 30
0.0
 11
73.018145
 21
222.659429
 31
0.0
  0
LINE
  5
153
100
AcDbEntity
  8
0
 62
5
100
AcDbLine
 10
73.018145
 20
222.659429
 30
0.0
 11
69.709771
 21
216.778999
 31
0.0
  0
LINE
  5
154
100
AcDbEntity
  8
0
 62
5
100
AcDbLine
 10
69.709771
 20
216.778999
 30
0.0
 11
66.661896
 21
210.698700
 31
0.0
  0
LINE
  5
155
100
AcDbEntity
  8
0
 62
5
100
AcDbLine
 10
66.661896
 20
210.698700
 30
0.0
 11
63.886879
 21
204.431190
 31
0.0
  0
LINE
  5
156
100
AcDbEntity
  8
0
 62
5
100
AcDbLine
 10
63.886879
 20
204.431190
 30
0.0
 11
61.396498
 21
197.989990
 31
0.0
  0
LINE
  5
157
100
AcDbEntity
  8
0
 62
5
100
AcDbLine
 10
61.396498
 20
197.989990
 30
0.0
 11
59.201897
 21
191.389501
 31
0.0
  0
LINE
  5
158
100
AcDbEntity
  8
0
 62
5
100
AcDbLine
 10
59.201897
 20
191.389501
 30
0.0
 11
57.313519
 21
184.644921
 31
0.0
  0
LINE
  5
159
100
AcDbEntity
  8
0
 62
5
100
AcDbLine
 10
57.313519
 20
184.644921
 30
0.0
 11
55.741050
 21
177.772231
 31
0.0
  0
LINE
  5
15a
100
AcDbEntity
  8
0
 62
5
100
AcDbLine
 10
55.741050
 20
177.772231
 30
0.0
 11
54.493361
 21
170.788202
 31
0.0
  0
LINE
  5
15b
100
AcDbEntity
  8
0
 62
5
100
AcDbLine
 10
54.493361
 20
170.788202
 30
0.0
 11
53.578445
 21
163.710282
 31
0.0
  0
LINE
  5
15c
100
AcDbEntity
  8
0
 62
5
100
AcDbLine
 10
53.578445
 20
163.710282
 30
0.0
 11
53.003358
 21
156.556612
 31
0.0
  0
LINE
  5
15d
100
AcDbEntity
  8
0
 62
5
100
AcDbLine
 10
53.003358
 20
156.556612
 30
0.0
 11
52.774163
 21
149.345953
 31
0.0
  0
LINE
  5
15e
100
AcDbEntity
  8
0
 62
5
100
AcDbLine
 10
52.774163
 20
149.345953
 30
0.0
 11
52.895869
 21
142.097623
 31
0.0
  0
LINE
  5
15f
100
AcDbEntity
  8
0
 62
5
100
AcDbLine
 10
52.895869
 20
142.097623
 30
0.0
 11
53.372382
 21
134.831443
 31
0.0
  0
LINE
  5
160
100
AcDbEntity
  8
0
 62
5
100
AcDbLine
 10
53.372382
 20
134.831443
 30
0.0
 11
54.206447
 21
127.567684
 31
0.0
  0
LINE
  5
161
100
AcDbEntity
  8
0
 62
5
100
AcDbLine
 10
54.206447
 20
127.567684
 30
0.0
 11
55.399602
 21
120.326984
 31
0.0
  0
LINE
  5
162
100
AcDbEntity
  8
0
 62
5
100
AcDbLine
 10
55.399602
 20
120.326984
 30
0.0
 11
56.952135
 21
113.130254
 31
0.0
  0
LINE
  5
163
100
AcDbEntity
  8
0
 62
5
100
AcDbLine
 10
56.952135
 20
113.130254
 30
0.0
 11
57.862906
 21
109.554975
 31
0.0
  0
LINE
  5
164
100
AcDbEntity
  8
0
 62
5
100
AcDbLine
 10
55.337913
 20
94.597555
 30
0.0
 11
52.812919
 21
79.640136
 31
0.0
  0
LINE
  5
165
100
AcDbEntity
  8
0
 62
5
100
AcDbLine
 10
52.812919
 20
79.640136
 30
0.0
 11
50.287927
 21
64.682727
 31
0.0
  0
SPLINE
  5
166
100
AcDbEntity
  8
0
 62
5
100
AcDbSpline
 70
0
 71
3
 72
10
 73
6
 74
4
 40
0.000000
 40
0.000000
 40
0.000000
 40
0.000000
 40
14.895948
 40
19.039658
 40
24.609002
 40
24.609002
 40
24.609002
 40
24.609002
 10
57.862906
 20
109.554975
 30
0.0
 10
59.674447
 20
105.314696
 30
0.0
 10
61.989917
 20
99.894870
 30
0.0
 10
59.848308
 20
88.942531
 30
0.0
 10
56.981631
 20
92.536702
 30
0.0
 10
55.337913
 20
94.597555
 30
0.0
 11
57.862906
 21
109.554975
 31
0.0
 11
60.866045
 21
94.964895
 31
0.0
 11
59.604484
 21
91.017896
 31
0.0
 11
55.337913
 21
94.597555
 31
0.0
  0
LINE
  5
167
100
AcDbEntity
  8
0
 62
5
100
AcDbLine
 10
47.762934
 20
49.725308
 30
0.0
 11
45.341185
 21
53.575367
 31
0.0
  0
LINE
  5
168
100
AcDbEntity
  8
0
 62
5
100
AcDbLine
 10
45.341185
 20
53.575367
 30
0.0
 11
40.790024
 21
61.435907
 31
0.0
  0
LINE
  5
169
100
AcDbEntity
  8
0
 62
5
100
AcDbLine
 10
40.790024
 20
61.435907
 30
0.0
 11
36.635888
 21
69.491237
 31
0.0
  0
LINE
  5
16a
100
AcDbEntity
  8
0
 62
5
100
AcDbLine
 10
36.635888
 20
69.491237
 30
0.0
 11
32.886309
 21
77.718226
 31
0.0
  0
LINE
  5
16b
100
AcDbEntity
  8
0
 62
5
100
AcDbLine
 10
32.886309
 20
77.718226
 30
0.0
 11
29.547507
 21
86.093576
 31
0.0
  0
LINE
  5
16c
100
AcDbEntity
  8
0
 62
5
100
AcDbLine
 10
29.547507
 20
86.093576
 30
0.0
 11
26.624409
 21
94.593885
 31
0.0
  0
LINE
  5
16d
100
AcDbEntity
  8
0
 62
5
100
AcDbLine
 10
26.624409
 20
94.593885
 30
0.0
 11
24.120669
 21
103.195685
 31
0.0
  0
LINE
  5
16e
100
AcDbEntity
  8
0
 62
5
100
AcDbLine
 10
24.120669
 20
103.195685
 30
0.0
 11
22.038686
 21
111.875525
 31
0.0
  0
LINE
  5
16f
100
AcDbEntity
  8
0
 62
5
100
AcDbLine
 10
22.038686
 20
111.875525
 30
0.0
 11
20.379622
 21
120.610004
 31
0.0
  0
LINE
  5
170
100
AcDbEntity
  8
0
 62
5
100
AcDbLine
 10
20.379622
 20
120.610004
 30
0.0
 11
19.143419
 21
129.375824
 31
0.0
  0
LINE
  5
171
100
AcDbEntity
  8
0
 62
5
100
AcDbLine
 10
19.143419
 20
129.375824
 30
0.0
 11
18.328806
 21
138.149853
 31
0.0
  0
LINE
  5
172
100
AcDbEntity
  8
0
 62
5
100
AcDbLine
 10
18.328806
 20
138.149853
 30
0.0
 11
17.933320
 21
146.909133
 31
0.0
  0
LINE
  5
173
100
AcDbEntity
  8
0
 62
5
100
AcDbLine
 10
17.933320
 20
146.909133
 30
0.0
 11
17.953310
 21
155.630962
 31
0.0
  0
LINE
  5
174
100
AcDbEntity
  8
0
 62
5
100
AcDbLine
 10
17.953310
 20
155.630962
 30
0.0
 11
18.383930
 21
164.292922
 31
0.0
  0
LINE
  5
175
100
AcDbEntity
  8
0
 62
5
100
AcDbLine
 10
18.383930
 20
164.292922
 30
0.0
 11
19.219171
 21
172.872962
 31
0.0
  0
LINE
  5
176
100
AcDbEntity
  8
0
 62
5
100
AcDbLine
 10
19.219171
 20
172.872962
 30
0.0
 11
20.451847
 21
181.349421
 31
0.0
  0
LINE
  5
177
100
AcDbEntity
  8
0
 62
5
100
AcDbLine
 10
20.451847
 20
181.349421
 30
0.0
 11
22.073606
 21
189.701091
 31
0.0
  0
LINE
  5
178
100
AcDbEntity
  8
0
 62
5
100
AcDbLine
 10
22.073606
 20
189.701091
 30
0.0
 11
24.074938
 21
197.907310
 31
0.0
  0
LINE
  5
179
100
AcDbEntity
  8
0
 62
5
100
AcDbLine
 10
24.074938
 20
197.907310
 30
0.0
 11
26.445186
 21
205.948040
 31
0.0
  0
LINE
  5
17a
100
AcDbEntity
  8
0
 62
5
100
AcDbLine
 10
26.445186
 20
205.948040
 30
0.0
 11
29.172570
 21
213.803920
 31
0.0
  0
LINE
  5
17b
100
AcDbEntity
  8
0
 62
5
100
AcDbLine
 10
29.172570
 20
213.803920
 30
0.0
 11
32.244206
 21
221.456409
 31
0.0
  0
LINE
  5
17c
100
AcDbEntity
  8
0
 62
5
100
AcDbLine
 10
32.244206
 20
221.456409
 30
0.0
 11
35.646157
 21
228.887839
 31
0.0
  0
LINE
  5
17d
100
AcDbEntity
  8
0
 62
5
100
AcDbLine
 10
35.646157
 20
228.887839
 30
0.0
 11
39.363473
 21
236.081528
 31
0.0
  0
LINE
  5
17e
100
AcDbEntity
  8
0
 62
5
100
AcDbLine
 10
39.363473
 20
236.081528
 30
0.0
 11
43.380265
 21
243.021938
 31
0.0
  0
LINE
  5
17f
100
AcDbEntity
  8
0
 62
5
100
AcDbLine
 10
43.380265
 20
243.021938
 30
0.0
 11
47.679790
 21
249.694738
 31
0.0
  0
LINE
  5
180
100
AcDbEntity
  8
0
 62
5
100
AcDbLine
 10
47.679790
 20
249.694738
 30
0.0
 11
52.244556
 21
256.086917
 31
0.0
  0
LINE
  5
181
100
AcDbEntity
  8
0
 62
5
100
AcDbLine
 10
52.244556
 20
256.086917
 30
0.0
 11
57.056445
 21
262.186967
 31
0.0
  0
LINE
  5
182
100
AcDbEntity
  8
0
 62
5
100
AcDbLine
 10
57.056445
 20
262.186967
 30
0.0
 11
62.096861
 21
267.984897
 31
0.0
  0
LINE
  5
183
100
AcDbEntity
  8
0
 62
5
100
AcDbLine
 10
62.096861
 20
267.984897
 30
0.0
 11
67.346894
 21
273.472397
 31
0.0
  0
LINE
  5
184
100
AcDbEntity
  8
0
 62
5
100
AcDbLine
 10
67.346894
 20
273.472397
 30
0.0
 11
72.787507
 21
278.642906
 31
0.0
  0
LINE
  5
185
100
AcDbEntity
  8
0
 62
5
100
AcDbLine
 10
72.787507
 20
278.642906
 30
0.0
 11
78.399744
 21
283.491666
 31
0.0
  0
LINE
  5
186
100
AcDbEntity
  8
0
 62
5
100
AcDbLine
 10
78.399744
 20
283.491666
 30
0.0
 11
84.164939
 21
288.015776
 31
0.0
  0
LINE
  5
187
100
AcDbEntity
  8
0
 62
5
100
AcDbLine
 10
84.164939
 20
288.015776
 30
0.0
 11
90.064954
 21
292.214236
 31
0.0
  0
LINE
  5
188
100
AcDbEntity
  8
0
 62
5
100
AcDbLine
 10
90.064954
 20
292.214236
 30
0.0
 11
96.082404
 21
296.087895
 31
0.0
  0
LINE
  5
189
100
AcDbEntity
  8
0
 62
5
100
AcDbLine
 10
96.082404
 20
296.087895
 30
0.0
 11
102.200895
 21
299.639445
 31
0.0
  0
LINE
  5
18a
100
AcDbEntity
  8
0
 62
5
100
AcDbLine
 10
102.200895
 20
299.639445
 30
0.0
 11
108.405275
 21
302.873335
 31
0.0
  0
LINE
  5
18b
100
AcDbEntity
  8
0
 62
5
100
AcDbLine
 10
108.405275
 20
302.873335
 30
0.0
 11
114.681784
 21
305.795645
 31
0.0
  0
LINE
  5
18c
100
AcDbEntity
  8
0
 62
5
100
AcDbLine
 10
114.681784
 20
305.795645
 30
0.0
 11
121.018314
 21
308.413915
 31
0.0
  0
LINE
  5
18d
100
AcDbEntity
  8
0
 62
5
100
AcDbLine
 10
121.018314
 20
308.413915
 30
0.0
 11
127.404484
 21
310.736925
 31
0.0
  0
LINE
  5
18e
100
AcDbEntity
  8
0
 62
5
100
AcDbLine
 10
127.404484
 20
310.736925
 30
0.0
 11
133.831813
 21
312.774475
 31
0.0
  0
LINE
  5
18f
100
AcDbEntity
  8
0
 62
5
100
AcDbLine
 10
133.831813
 20
312.774475
 30
0.0
 11
140.293733
 21
314.537035
 31
0.0
  0
LINE
  5
190
100
AcDbEntity
  8
0
 62
5
100
AcDbLine
 10
140.293733
 20
314.537035
 30
0.0
 11
146.785593
 21
316.035405
 31
0.0
  0
LINE
  5
191
100
AcDbEntity
  8
0
 62
5
100
AcDbLine
 10
146.785593
 20
316.035405
 30
0.0
 11
153.304562
 21
317.280354
 31
0.0
  0
LINE
  5
192
100
AcDbEntity
  8
0
 62
5
100
AcDbLine
 10
153.304562
 20
317.280354
 30
0.0
 11
159.849482
 21
318.282204
 31
0.0
  0
LINE
  5
193
100
AcDbEntity
  8
0
 62
5
100
AcDbLine
 10
159.849482
 20
318.282204
 30
0.0
 11
166.420662
 21
319.050424
 31
0.0
  0
LINE
  5
194
100
AcDbEntity
  8
0
 62
5
100
AcDbLine
 10
166.420662
 20
319.050424
 30
0.0
 11
173.019582
 21
319.593244
 31
0.0
  0
LINE
  5
195
100
AcDbEntity
  8
0
 62
5
100
AcDbLine
 10
173.019582
 20
319.593244
 30
0.0
 11
179.648531
 21
319.917344
 31
0.0
  0
LINE
  5
196
100
AcDbEntity
  8
0
 62
5
100
AcDbLine
 10
179.648531
 20
319.917344
 30
0.0
 11
186.310291
 21
320.027534
 31
0.0
  0
LINE
  5
197
100
AcDbEntity
  8
0
 62
5
100
AcDbLine
 10
186.310291
 20
320.027534
 30
0.0
 11
193.007691
 21
319.926564
 31
0.0
  0
LINE
  5
198
100
AcDbEntity
  8
0
 62
5
100
AcDbLine
 10
193.007691
 20
319.926564
 30
0.0
 11
199.743260
 21
319.615024
 31
0.0
  0
LINE
  5
199
100
AcDbEntity
  8
0
 62
5
100
AcDbLine
 10
199.743260
 20
319.615024
 30
0.0
 11
206.518840
 21
319.091264
 31
0.0
  0
LINE
  5
19a
100
AcDbEntity
  8
0
 62
5
100
AcDbLine
 10
206.518840
 20
319.091264
 30
0.0
 11
213.335240
 21
318.351504
 31
0.0
  0
LINE
  5
19b
100
AcDbEntity
  8
0
 62
5
100
AcDbLine
 10
213.335240
 20
318.351504
 30
0.0
 11
220.191899
 21
317.389964
 31
0.0
  0
LINE
  5
19c
100
AcDbEntity
  8
0
 62
5
100
AcDbLine
 10
220.191899
 20
317.389964
 30
0.0
 11
227.086689
 21
316.199035
 31
0.0
  0
LINE
  5
19d
100
AcDbEntity
  8
0
 62
5
100
AcDbLine
 10
227.086689
 20
316.199035
 30
0.0
 11
234.015659
 21
314.769605
 31
0.0
  0
LINE
  5
19e
100
AcDbEntity
  8
0
 62
5
100
AcDbLine
 10
234.015659
 20
314.769605
 30
0.0
 11
240.972858
 21
313.091345
 31
0.0
  0
LINE
  5
19f
100
AcDbEntity
  8
0
 62
5
100
AcDbLine
 10
240.972858
 20
313.091345
 30
0.0
 11
247.950288
 21
311.153065
 31
0.0
  0
LINE
  5
1a0
100
AcDbEntity
  8
0
 62
5
100
AcDbLine
 10
247.950288
 20
311.153065
 30
0.0
 11
254.937788
 21
308.943065
 31
0.0
  0
LINE
  5
1a1
100
AcDbEntity
  8
0
 62
5
100
AcDbLine
 10
254.937788
 20
308.943065
 30
0.0
 11
261.923037
 21
306.449515
 31
0.0
  0
LINE
  5
1a2
100
AcDbEntity
  8
0
 62
5
100
AcDbLine
 10
261.923037
 20
306.449515
 30
0.0
 11
268.891647
 21
303.660845
 31
0.0
  0
LINE
  5
1a3
100
AcDbEntity
  8
0
 62
5
100
AcDbLine
 10
268.891647
 20
303.660845
 30
0.0
 11
275.827146
 21
300.566065
 31
0.0
  0
LINE
  5
1a4
100
AcDbEntity
  8
0
 62
5
100
AcDbLine
 10
275.827146
 20
300.566065
 30
0.0
 11
282.711206
 21
297.155135
 31
0.0
  0
LINE
  5
1a5
100
AcDbEntity
  8
0
 62
5
100
AcDbLine
 10
282.711206
 20
297.155135
 30
0.0
 11
289.523756
 21
293.419286
 31
0.0
  0
LINE
  5
1a6
100
AcDbEntity
  8
0
 62
5
100
AcDbLine
 10
289.523756
 20
293.419286
 30
0.0
 11
296.243155
 21
289.351266
 31
0.0
  0
LINE
  5
1a7
100
AcDbEntity
  8
0
 62
5
100
AcDbLine
 10
296.243155
 20
289.351266
 30
0.0
 11
302.846465
 21
284.945596
 31
0.0
  0
LINE
  5
1a8
100
AcDbEntity
  8
0
 62
5
100
AcDbLine
 10
302.846465
 20
284.945596
 30
0.0
 11
309.309665
 21
280.198806
 31
0.0
  0
LINE
  5
1a9
100
AcDbEntity
  8
0
 62
5
100
AcDbLine
 10
309.309665
 20
280.198806
 30
0.0
 11
315.607925
 21
275.109587
 31
0.0
  0
LINE
  5
1aa
100
AcDbEntity
  8
0
 62
5
100
AcDbLine
 10
315.607925
 20
275.109587
 30
0.0
 11
321.715854
 21
269.678897
 31
0.0
  0
LINE
  5
1ab
100
AcDbEntity
  8
0
 62
5
100
AcDbLine
 10
321.715854
 20
269.678897
 30
0.0
 11
327.607834
 21
263.910047
 31
0.0
  0
LINE
  5
1ac
100
AcDbEntity
  8
0
 62
5
100
AcDbLine
 10
327.607834
 20
263.910047
 30
0.0
 11
333.258234
 21
257.808767
 31
0.0
  0
LINE
  5
1ad
100
AcDbEntity
  8
0
 62
5
100
AcDbLine
 10
333.258234
 20
257.808767
 30
0.0
 11
338.641723
 21
251.383198
 31
0.0
  0
LINE
  5
1ae
100
AcDbEntity
  8
0
 62
5
100
AcDbLine
 10
338.641723
 20
251.383198
 30
0.0
 11
343.733523
 21
244.643828
 31
0.0
  0
LINE
  5
1af
100
AcDbEntity
  8
0
 62
5
100
AcDbLine
 10
343.733523
 20
244.643828
 30
0.0
 11
348.509663
 21
237.603468
 31
0.0
  0
LINE
  5
1b0
100
AcDbEntity
  8
0
 62
5
100
AcDbLine
 10
348.509663
 20
237.603468
 30
0.0
 11
352.947203
 21
230.277119
 31
0.0
  0
LINE
  5
1b1
100
AcDbEntity
  8
0
 62
5
100
AcDbLine
 10
352.947203
 20
230.277119
 30
0.0
 11
355.032173
 21
226.511969
 31
0.0
  0
LINE
  5
1b2
100
AcDbEntity
  8
0
 62
5
100
AcDbLine
 10
355.032173
 20
226.511969
 30
0.0
 11
357.024482
 21
222.681879
 31
0.0
  0
LINE
  5
1b3
100
AcDbEntity
  8
0
 62
5
100
AcDbLine
 10
357.024482
 20
222.681879
 30
0.0
 11
358.921632
 21
218.789299
 31
0.0
  0
LINE
  5
1b4
100
AcDbEntity
  8
0
 62
5
100
AcDbLine
 10
358.921632
 20
218.789299
 30
0.0
 11
360.721242
 21
214.836769
 31
0.0
  0
LINE
  5
1b5
100
AcDbEntity
  8
0
 62
5
100
AcDbLine
 10
360.721242
 20
214.836769
 30
0.0
 11
362.421052
 21
210.826940
 31
0.0
  0
LINE
  5
1b6
100
AcDbEntity
  8
0
 62
5
100
AcDbLine
 10
362.421052
 20
210.826940
 30
0.0
 11
364.018892
 21
206.762560
 31
0.0
  0
LINE
  5
1b7
100
AcDbEntity
  8
0
 62
5
100
AcDbLine
 10
364.018892
 20
206.762560
 30
0.0
 11
365.512692
 21
202.646480
 31
0.0
  0
LINE
  5
1b8
100
AcDbEntity
  8
0
 62
5
100
AcDbLine
 10
365.512692
 20
202.646480
 30
0.0
 11
366.900542
 21
198.481630
 31
0.0
  0
LINE
  5
1b9
100
AcDbEntity
  8
0
 62
5
100
AcDbLine
 10
366.900542
 20
198.481630
 30
0.0
 11
368.180622
 21
194.271010
 31
0.0
  0
LINE
  5
1ba
100
AcDbEntity
  8
0
 62
5
100
AcDbLine
 10
368.180622
 20
194.271010
 30
0.0
 11
369.351242
 21
190.017731
 31
0.0
  0
LINE
  5
1bb
100
AcDbEntity
  8
0
 62
5
100
AcDbLine
 10
369.351242
 20
190.017731
 30
0.0
 11
370.410832
 21
185.724931
 31
0.0
  0
LINE
  5
1bc
100
AcDbEntity
  8
0
 62
5
100
AcDbLine
 10
370.410832
 20
185.724931
 30
0.0
 11
371.357952
 21
181.395821
 31
0.0
  0
LINE
  5
1bd
100
AcDbEntity
  8
0
 62
5
100
AcDbLine
 10
371.357952
 20
181.395821
 30
0.0
 11
372.191322
 21
177.033691
 31
0.0
  0
LINE
  5
1be
100
AcDbEntity
  8
0
 62
5
100
AcDbLine
 10
372.191322
 20
177.033691
 30
0.0
 11
372.909742
 21
172.641862
 31
0.0
  0
LINE
  5
1bf
100
AcDbEntity
  8
0
 62
5
100
AcDbLine
 10
372.909742
 20
172.641862
 30
0.0
 11
373.512172
 21
168.223682
 31
0.0
  0
LINE
  5
1c0
100
AcDbEntity
  8
0
 62
5
100
AcDbLine
 10
373.512172
 20
168.223682
 30
0.0
 11
373.997702
 21
163.782572
 31
0.0
  0
LINE
  5
1c1
100
AcDbEntity
  8
0
 62
5
100
AcDbLine
 10
373.997702
 20
163.782572
 30
0.0
 11
374.365562
 21
159.321962
 31
0.0
  0
LINE
  5
1c2
100
AcDbEntity
  8
0
 62
5
100
AcDbLine
 10
374.365562
 20
159.321962
 30
0.0
 11
374.615092
 21
154.845302
 31
0.0
  0
LINE
  5
1c3
100
AcDbEntity
  8
0
 62
5
100
AcDbLine
 10
374.615092
 20
154.845302
 30
0.0
 11
374.745792
 21
150.356063
 31
0.0
  0
LINE
  5
1c4
100
AcDbEntity
  8
0
 62
5
100
AcDbLine
 10
374.745792
 20
150.356063
 30
0.0
 11
374.757292
 21
145.857743
 31
0.0
  0
LINE
  5
1c5
100
AcDbEntity
  8
0
 62
5
100
AcDbLine
 10
374.757292
 20
145.857743
 30
0.0
 11
374.649302
 21
141.353843
 31
0.0
  0
LINE
  5
1c6
100
AcDbEntity
  8
0
 62
5
100
AcDbLine
 10
374.649302
 20
141.353843
 30
0.0
 11
374.421712
 21
136.847853
 31
0.0
  0
LINE
  5
1c7
100
AcDbEntity
  8
0
 62
5
100
AcDbLine
 10
374.421712
 20
136.847853
 30
0.0
 11
374.074542
 21
132.343264
 31
0.0
  0
LINE
  5
1c8
100
AcDbEntity
  8
0
 62
5
100
AcDbLine
 10
374.074542
 20
132.343264
 30
0.0
 11
373.607912
 21
127.843554
 31
0.0
  0
LINE
  5
1c9
100
AcDbEntity
  8
0
 62
5
100
AcDbLine
 10
373.607912
 20
127.843554
 30
0.0
 11
373.022082
 21
123.352204
 31
0.0
  0
LINE
  5
1ca
100
AcDbEntity
  8
0
 62
5
100
AcDbLine
 10
373.022082
 20
123.352204
 30
0.0
 11
372.317432
 21
118.872654
 31
0.0
  0
LINE
  5
1cb
100
AcDbEntity
  8
0
 62
5
100
AcDbLine
 10
372.317432
 20
118.872654
 30
0.0
 11
371.494472
 21
114.408344
 31
0.0
  0
LINE
  5
1cc
100
AcDbEntity
  8
0
 62
5
100
AcDbLine
 10
371.494472
 20
114.408344
 30
0.0
 11
370.553802
 21
109.962655
 31
0.0
  0
LINE
  5
1cd
100
AcDbEntity
  8
0
 62
5
100
AcDbLine
 10
370.553802
 20
109.962655
 30
0.0
 11
369.496172
 21
105.538945
 31
0.0
  0
LINE
  5
1ce
100
AcDbEntity
  8
0
 62
5
100
AcDbLine
 10
369.496172
 20
105.538945
 30
0.0
 11
368.322422
 21
101.140565
 31
0.0
  0
LINE
  5
1cf
100
AcDbEntity
  8
0
 62
5
100
AcDbLine
 10
368.322422
 20
101.140565
 30
0.0
 11
367.033512
 21
96.770785
 31
0.0
  0
LINE
  5
1d0
100
AcDbEntity
  8
0
 62
5
100
AcDbLine
 10
367.033512
 20
96.770785
 30
0.0
 11
365.630492
 21
92.432845
 31
0.0
  0
LINE
  5
1d1
100
AcDbEntity
  8
0
 62
5
100
AcDbLine
 10
365.630492
 20
92.432845
 30
0.0
 11
364.114542
 21
88.129946
 31
0.0
  0
LINE
  5
1d2
100
AcDbEntity
  8
0
 62
5
100
AcDbLine
 10
364.114542
 20
88.129946
 30
0.0
 11
362.486922
 21
83.865226
 31
0.0
  0
LINE
  5
1d3
100
AcDbEntity
  8
0
 62
5
100
AcDbLine
 10
362.486922
 20
83.865226
 30
0.0
 11
360.749002
 21
79.641776
 31
0.0
  0
LINE
  5
1d4
100
AcDbEntity
  8
0
 62
5
100
AcDbLine
 10
360.749002
 20
79.641776
 30
0.0
 11
358.902232
 21
75.462606
 31
0.0
  0
LINE
  5
1d5
100
AcDbEntity
  8
0
 62
5
100
AcDbLine
 10
358.902232
 20
75.462606
 30
0.0
 11
356.948183
 21
71.330707
 31
0.0
  0
LINE
  5
1d6
100
AcDbEntity
  8
0
 62
5
100
AcDbLine
 10
356.948183
 20
71.330707
 30
0.0
 11
354.888473
 21
67.248977
 31
0.0
  0
LINE
  5
1d7
100
AcDbEntity
  8
0
 62
5
100
AcDbLine
 10
354.888473
 20
67.248977
 30
0.0
 11
352.724833
 21
63.220257
 31
0.0
  0
LINE
  5
1d8
100
AcDbEntity
  8
0
 62
5
100
AcDbLine
 10
352.724833
 20
63.220257
 30
0.0
 11
350.459063
 21
59.247317
 31
0.0
  0
LINE
  5
1d9
100
AcDbEntity
  8
0
 62
5
100
AcDbLine
 10
350.459063
 20
59.247317
 30
0.0
 11
348.093043
 21
55.332867
 31
0.0
  0
LINE
  5
1da
100
AcDbEntity
  8
0
 62
5
100
AcDbLine
 10
348.093043
 20
55.332867
 30
0.0
 11
345.628733
 21
51.479537
 31
0.0
  0
LINE
  5
1db
100
AcDbEntity
  8
0
 62
5
100
AcDbLine
 10
345.628733
 20
51.479537
 30
0.0
 11
343.068163
 21
47.689888
 31
0.0
  0
LINE
  5
1dc
100
AcDbEntity
  8
0
 62
5
100
AcDbLine
 10
343.068163
 20
47.689888
 30
0.0
 11
340.413423
 21
43.966408
 31
0.0
  0
LINE
  5
1dd
100
AcDbEntity
  8
0
 62
5
100
AcDbLine
 10
340.413423
 20
43.966408
 30
0.0
 11
337.666663
 21
40.311508
 31
0.0
  0
LINE
  5
1de
100
AcDbEntity
  8
0
 62
5
100
AcDbLine
 10
337.666663
 20
40.311508
 30
0.0
 11
334.830104
 21
36.727528
 31
0.0
  0
LINE
  5
1df
100
AcDbEntity
  8
0
 62
5
100
AcDbLine
 10
334.830104
 20
36.727528
 30
0.0
 11
331.906024
 21
33.216718
 31
0.0
  0
LINE
  5
1e0
100
AcDbEntity
  8
0
 62
5
100
AcDbLine
 10
331.906024
 20
33.216718
 30
0.0
 11
328.896754
 21
29.781269
 31
0.0
  0
LINE
  5
1e1
100
AcDbEntity
  8
0
 62
5
100
AcDbLine
 10
328.896754
 20
29.781269
 30
0.0
 11
325.804684
 21
26.423269
 31
0.0
  0
LINE
  5
1e2
100
AcDbEntity
  8
0
 62
5
100
AcDbLine
 10
325.804684
 20
26.423269
 30
0.0
 11
322.632224
 21
23.144749
 31
0.0
  0
LINE
  5
1e3
100
AcDbEntity
  8
0
 62
5
100
AcDbLine
 10
322.632224
 20
23.144749
 30
0.0
 11
319.381864
 21
19.947649
 31
0.0
  0
LINE
  5
1e4
100
AcDbEntity
  8
0
 62
5
100
AcDbLine
 10
319.381864
 20
19.947649
 30
0.0
 11
316.056125
 21
16.833839
 31
0.0
  0
LINE
  5
1e5
100
AcDbEntity
  8
0
 62
5
100
AcDbLine
 10
316.056125
 20
16.833839
 30
0.0
 11
316.056125
 21
16.833839
 31
0.0
  0
LINE
  5
1e6
100
AcDbEntity
  8
0
 62
5
100
AcDbLine
 10
316.056125
 20
16.833839
 30
0.0
 11
300.887075
 21
16.833839
 31
0.0
  0
SPLINE
  5
1e7
100
AcDbEntity
  8
0
 62
5
100
AcDbSpline
 70
0
 71
3
 72
10
 73
6
 74
4
 40
0.000000
 40
0.000000
 40
0.000000
 40
0.000000
 40
7.437071
 40
17.966921
 40
24.425262
 40
24.425262
 40
24.425262
 40
24.425262
 10
50.287927
 20
64.682727
 30
0.0
 10
52.571545
 20
63.463562
 30
0.0
 10
58.088446
 20
60.518232
 30
0.0
 10
56.485151
 20
47.664797
 30
0.0
 10
50.165466
 20
49.157740
 30
0.0
 10
47.762934
 20
49.725308
 30
0.0
 11
50.287927
 21
64.682727
 31
0.0
 11
55.991449
 21
59.909902
 31
0.0
 11
54.218333
 21
49.530413
 31
0.0
 11
47.762934
 21
49.725308
 31
0.0
  0
LINE
  5
1e8
100
AcDbEntity
  8
0
 62
5
100
AcDbLine
 10
270.548967
 20
16.833839
 30
0.0
 11
255.379917
 21
16.833839
 31
0.0
  0
LINE
  5
1e9
100
AcDbEntity
  8
0
 62
7
100
AcDbLine
 10
179.444821
 20
324.684684
 30
0.0
 11
178.466301
 21
324.475204
 31
0.0
  0
SPLINE
  5
1ea
100
AcDbEntity
  8
0
 62
5
100
AcDbSpline
 70
0
 71
3
 72
10
 73
6
 74
4
 40
0.000000
 40
0.000000
 40
0.000000
 40
0.000000
 40
9.802187
 40
26.020216
 40
35.677640
 40
35.677640
 40
35.677640
 40
35.677640
 10
300.887075
 20
16.833839
 30
0.0
 10
298.786937
 20
14.220724
 30
0.0
 10
293.212054
 20
7.284129
 30
0.0
 10
278.356958
 20
7.682972
 30
0.0
 10
272.671088
 20
14.346739
 30
0.0
 10
270.548967
 20
16.833839
 30
0.0
 11
300.887075
 21
16.833839
 31
0.0
 11
293.840315
 21
10.020173
 31
0.0
 11
277.624067
 21
10.260499
 31
0.0
 11
270.548967
 21
16.833839
 31
0.0
  0
SPLINE
  5
1eb
100
AcDbEntity
  8
0
 62
7
100
AcDbSpline
 70
0
 71
3
 72
13
 73
9
 74
7
 40
0.000000
 40
0.000000
 40
0.000000
 40
0.000000
 40
10.539578
 40
21.136989
 40
31.779494
 40
31.780437
 40
31.781542
 40
31.782680
 40
31.782680
 40
31.782680
 40
31.782680
 10
178.466301
 20
324.475204
 30
0.0
 10
175.017251
 20
323.694408
 30
0.0
 10
168.100225
 20
322.128531
 30
0.0
 10
158.631418
 20
317.733811
 30
0.0
 10
151.698702
 20
314.678699
 30
0.0
 10
149.747484
 20
311.646723
 30
0.0
 10
149.747434
 20
311.645631
 30
0.0
 10
149.747168
 20
311.644930
 30
0.0
 10
149.747033
 20
311.644575
 30
0.0
 11
178.466301
 21
324.475204
 31
0.0
 11
168.273102
 21
321.795391
 31
0.0
 11
158.494519
 21
317.710734
 31
0.0
 11
149.748033
 21
311.647575
 31
0.0
 11
149.747587
 21
311.646744
 31
0.0
 11
149.747379
 21
311.645659
 31
0.0
 11
149.747033
 21
311.644575
 31
0.0
  0
LINE
  5
1ec
100
AcDbEntity
  8
0
 62
7
100
AcDbLine
 10
140.771933
 20
295.752486
 30
0.0
 11
142.947233
 21
296.418985
 31
0.0
  0
SPLINE
  5
1ed
100
AcDbEntity
  8
0
 62
7
100
AcDbSpline
 70
0
 71
3
 72
10
 73
6
 74
4
 40
0.000000
 40
0.000000
 40
0.000000
 40
0.000000
 40
6.190424
 40
12.374206
 40
18.553760
 40
18.553760
 40
18.553760
 40
18.553760
 10
149.747033
 20
311.644575
 30
0.0
 10
148.292670
 20
310.173122
 30
0.0
 10
145.385505
 20
307.231796
 30
0.0
 10
142.288884
 20
301.762157
 30
0.0
 10
141.277468
 20
297.755253
 30
0.0
 10
140.771933
 20
295.752486
 30
0.0
 11
149.747033
 21
311.644575
 31
0.0
 11
145.594648
 21
307.053381
 31
0.0
 11
142.551364
 21
301.670299
 31
0.0
 11
140.771933
 21
295.752486
 31
0.0
  0
SPLINE
  5
1ee
100
AcDbEntity
  8
0
 62
7
100
AcDbSpline
 70
0
 71
3
 72
10
 73
6
 74
4
 40
0.000000
 40
0.000000
 40
0.000000
 40
0.000000
 40
5.390117
 40
10.791829
 40
16.191886
 40
16.191886
 40
16.191886
 40
16.191886
 10
142.947233
 20
296.418985
 30
0.0
 10
143.454611
 20
298.146958
 30
0.0
 10
144.470458
 20
301.606619
 30
0.0
 10
147.258501
 20
306.317830
 30
0.0
 10
149.805352
 20
308.874984
 30
0.0
 10
151.078583
 20
310.153365
 30
0.0
 11
142.947233
 21
296.418985
 31
0.0
 11
144.679507
 21
301.523159
 31
0.0
 11
147.430568
 21
306.171831
 31
0.0
 11
151.078583
 21
310.153365
 31
0.0
  0
SPLINE
  5
1ef
100
AcDbEntity
  8
0
 62
7
100
AcDbSpline
 70
0
 71
3
 72
10
 73
6
 74
4
 40
0.000000
 40
0.000000
 40
0.000000
 40
0.000000
 40
0.003300
 40
0.006600
 40
0.009900
 40
0.009900
 40
0.009900
 40
0.009900
 10
151.078583
 20
310.153365
 30
0.0
 10
151.079363
 20
310.154139
 30
0.0
 10
151.080925
 20
310.155689
 30
0.0
 10
151.083259
 20
310.158022
 30
0.0
 10
151.084808
 20
310.159584
 30
0.0
 10
151.085583
 20
310.160365
 30
0.0
 11
151.078583
 21
310.153365
 31
0.0
 11
151.080924
 21
310.155690
 31
0.0
 11
151.083257
 21
310.158024
 31
0.0
 11
151.085583
 21
310.160365
 31
0.0
  0
LINE
  5
1f0
100
AcDbEntity
  8
0
 62
7
100
AcDbLine
 10
178.882451
 20
322.519244
 30
0.0
 11
179.860961
 21
322.727254
 31
0.0
  0
LINE
  5
1f1
100
AcDbEntity
  8
0
 62
7
100
AcDbLine
 10
179.860961
 20
322.727254
 30
0.0
 11
179.444821
 21
324.684684
 31
0.0
  0
SPLINE
  5
1f2
100
AcDbEntity
  8
0
 62
7
100
AcDbSpline
 70
0
 71
3
 72
10
 73
6
 74
4
 40
0.000000
 40
0.000000
 40
0.000000
 40
0.000000
 40
10.162130
 40
20.412384
 40
30.733873
 40
30.733873
 40
30.733873
 40
30.733873
 10
151.085583
 20
310.160365
 30
0.0
 10
153.790448
 20
312.224136
 30
0.0
 10
159.223634
 20
316.369574
 30
0.0
 10
168.871563
 20
320.130918
 30
0.0
 10
175.537794
 20
321.721300
 30
0.0
 10
178.882451
 20
322.519244
 30
0.0
 11
151.085583
 21
310.160365
 31
0.0
 11
159.441738
 21
315.943405
 31
0.0
 11
168.900936
 21
319.891984
 31
0.0
 11
178.882451
 21
322.519244
 31
0.0
  0
SPLINE
  5
1f3
100
AcDbEntity
  8
0
 62
7
100
AcDbSpline
 70
0
 71
3
 72
10
 73
6
 74
4
 40
0.000000
 40
0.000000
 40
0.000000
 40
0.000000
 40
6.746895
 40
13.505500
 40
20.312777
 40
20.312777
 40
20.312777
 40
20.312777
 10
231.209459
 20
296.134875
 30
0.0
 10
228.994241
 20
295.748760
 30
0.0
 10
224.559960
 20
294.975860
 30
0.0
 10
218.018856
 20
293.080673
 30
0.0
 10
214.002941
 20
290.980653
 30
0.0
 10
211.987780
 20
289.926876
 30
0.0
 11
231.209459
 21
296.134875
 31
0.0
 11
224.585080
 21
294.854950
 31
0.0
 11
218.122038
 21
292.878128
 31
0.0
 11
211.987780
 21
289.926876
 31
0.0
  0
SPLINE
  5
1f4
100
AcDbEntity
  8
0
 62
7
100
AcDbSpline
 70
0
 71
3
 72
10
 73
6
 74
4
 40
0.000000
 40
0.000000
 40
0.000000
 40
0.000000
 40
0.001054
 40
0.002108
 40
0.003162
 40
0.003162
 40
0.003162
 40
0.003162
 10
211.987780
 20
289.926876
 30
0.0
 10
211.987668
 20
289.926543
 30
0.0
 10
211.987445
 20
289.925876
 30
0.0
 10
211.987112
 20
289.924876
 30
0.0
 10
211.986890
 20
289.924209
 30
0.0
 10
211.986780
 20
289.923876
 30
0.0
 11
211.987780
 21
289.926876
 31
0.0
 11
211.987445
 21
289.925876
 31
0.0
 11
211.987112
 21
289.924876
 31
0.0
 11
211.986780
 21
289.923876
 31
0.0
  0
LINE
  5
1f5
100
AcDbEntity
  8
0
 62
7
100
AcDbLine
 10
207.344680
 20
286.132856
 30
0.0
 11
207.322680
 21
286.150456
 31
0.0
  0
LINE
  5
1f6
100
AcDbEntity
  8
0
 62
7
100
AcDbLine
 10
207.322680
 20
286.150456
 30
0.0
 11
206.777750
 21
285.522036
 31
0.0
  0
LINE
  5
1f7
100
AcDbEntity
  8
0
 62
7
100
AcDbLine
 10
206.777750
 20
285.522036
 30
0.0
 11
206.666430
 21
285.394596
 31
0.0
  0
SPLINE
  5
1f8
100
AcDbEntity
  8
0
 62
7
100
AcDbSpline
 70
0
 71
3
 72
10
 73
6
 74
4
 40
0.000000
 40
0.000000
 40
0.000000
 40
0.000000
 40
2.063071
 40
4.135020
 40
6.010470
 40
6.010470
 40
6.010470
 40
6.010470
 10
211.986780
 20
289.923876
 30
0.0
 10
211.409934
 20
289.548970
 30
0.0
 10
210.253760
 20
288.797546
 30
0.0
 10
208.699140
 20
287.524280
 30
0.0
 10
207.780931
 20
286.581012
 30
0.0
 10
207.344680
 20
286.132856
 30
0.0
 11
211.986780
 21
289.923876
 31
0.0
 11
210.277810
 21
288.768157
 31
0.0
 11
208.676636
 21
287.453162
 31
0.0
 11
207.344680
 21
286.132856
 31
0.0
  0
LINE
  5
1f9
100
AcDbEntity
  8
0
 62
7
100
AcDbLine
 10
206.564030
 20
285.281056
 30
0.0
 11
206.564030
 21
285.278056
 31
0.0
  0
LINE
  5
1fa
100
AcDbEntity
  8
0
 62
7
100
AcDbLine
 10
206.564030
 20
285.278056
 30
0.0
 11
206.563030
 21
285.277056
 31
0.0
  0
SPLINE
  5
1fb
100
AcDbEntity
  8
0
 62
7
100
AcDbSpline
 70
0
 71
3
 72
19
 73
15
 74
13
 40
0.000000
 40
0.000000
 40
0.000000
 40
0.000000
 40
0.050812
 40
0.101752
 40
0.136040
 40
0.137893
 40
0.140424
 40
0.141697
 40
0.145510
 40
0.148562
 40
0.150949
 40
0.151827
 40
0.153226
 40
0.153956
 40
0.153956
 40
0.153956
 40
0.153956
 10
206.666430
 20
285.394596
 30
0.0
 10
206.655341
 20
285.381792
 30
0.0
 10
206.633136
 20
285.356151
 30
0.0
 10
206.602968
 20
285.322309
 30
0.0
 10
206.584545
 20
285.299829
 30
0.0
 10
206.575587
 20
285.290559
 30
0.0
 10
206.574245
 20
285.289233
 30
0.0
 10
206.572408
 20
285.287484
 30
0.0
 10
206.570681
 20
285.285330
 30
0.0
 10
206.569004
 20
285.282886
 30
0.0
 10
206.567580
 20
285.280991
 30
0.0
 10
206.565968
 20
285.280975
 30
0.0
 10
206.564983
 20
285.281135
 30
0.0
 10
206.564273
 20
285.281076
 30
0.0
 10
206.564030
 20
285.281056
 30
0.0
 11
206.666430
 21
285.394596
 31
0.0
 11
206.633074
 21
285.356265
 31
0.0
 11
206.599585
 21
285.317880
 31
0.0
 11
206.577030
 21
285.292056
 31
0.0
 11
206.575740
 21
285.290726
 31
0.0
 11
206.573940
 21
285.288946
 31
0.0
 11
206.573030
 21
285.288056
 31
0.0
 11
206.570585
 21
285.285130
 31
0.0
 11
206.568808
 21
285.282649
 31
0.0
 11
206.567030
 21
285.281056
 31
0.0
 11
206.566154
 21
285.280996
 31
0.0
 11
206.564759
 21
285.281096
 31
0.0
 11
206.564030
 21
285.281056
 31
0.0
  0
LINE
  5
1fc
100
AcDbEntity
  8
0
 62
7
100
AcDbLine
 10
208.073290
 20
283.964556
 30
0.0
 11
208.075290
 21
283.965556
 31
0.0
  0
LINE
  5
1fd
100
AcDbEntity
  8
0
 62
7
100
AcDbLine
 10
208.075290
 20
283.965556
 30
0.0
 11
208.075290
 21
283.968556
 31
0.0
  0
SPLINE
  5
1fe
100
AcDbEntity
  8
0
 62
7
100
AcDbSpline
 70
0
 71
3
 72
10
 73
6
 74
4
 40
0.000000
 40
0.000000
 40
0.000000
 40
0.000000
 40
0.518746
 40
1.482133
 40
2.000885
 40
2.000885
 40
2.000885
 40
2.000885
 10
206.563030
 20
285.277056
 30
0.0
 10
206.693499
 20
285.163576
 30
0.0
 10
207.066267
 20
284.839349
 30
0.0
 10
207.569387
 20
284.401503
 30
0.0
 10
207.942648
 20
284.077839
 30
0.0
 10
208.073290
 20
283.964556
 30
0.0
 11
206.563030
 21
285.277056
 31
0.0
 11
206.954425
 21
284.936605
 31
0.0
 11
207.681434
 21
284.304487
 31
0.0
 11
208.073290
 21
283.964556
 31
0.0
  0
LINE
  5
1ff
100
AcDbEntity
  8
0
 62
7
100
AcDbLine
 10
208.178090
 20
284.082096
 30
0.0
 11
208.286490
 21
284.209536
 31
0.0
  0
LINE
  5
200
100
AcDbEntity
  8
0
 62
7
100
AcDbLine
 10
208.286490
 20
284.209536
 30
0.0
 11
208.728870
 21
284.717836
 31
0.0
  0
LINE
  5
201
100
AcDbEntity
  8
0
 62
7
100
AcDbLine
 10
208.728870
 20
284.717836
 30
0.0
 11
208.729870
 21
284.718836
 31
0.0
  0
SPLINE
  5
202
100
AcDbEntity
  8
0
 62
7
100
AcDbSpline
 70
0
 71
3
 72
16
 73
12
 74
10
 40
0.000000
 40
0.000000
 40
0.000000
 40
0.000000
 40
0.002390
 40
0.006063
 40
0.011464
 40
0.012986
 40
0.015093
 40
0.016522
 40
0.051017
 40
0.102340
 40
0.153486
 40
0.153486
 40
0.153486
 40
0.153486
 10
208.075290
 20
283.968556
 30
0.0
 10
208.075781
 20
283.969193
 30
0.0
 10
208.077028
 20
283.970807
 30
0.0
 10
208.080371
 20
283.972707
 30
0.0
 10
208.083705
 20
283.974374
 30
0.0
 10
208.085184
 20
283.977020
 30
0.0
 10
208.085919
 20
283.978588
 30
0.0
 10
208.096460
 20
283.985966
 30
0.0
 10
208.112592
 20
284.010849
 30
0.0
 10
208.144669
 20
284.043258
 30
0.0
 10
208.166962
 20
284.069165
 30
0.0
 10
208.178090
 20
284.082096
 30
0.0
 11
208.075290
 21
283.968556
 31
0.0
 11
208.076845
 21
283.970371
 31
0.0
 11
208.079901
 21
283.972408
 31
0.0
 11
208.084290
 21
283.975556
 31
0.0
 11
208.085076
 21
283.976860
 31
0.0
 11
208.086183
 21
283.978652
 31
0.0
 11
208.087290
 21
283.979556
 31
0.0
 11
208.110164
 21
284.005376
 31
0.0
 11
208.144282
 21
284.043716
 31
0.0
 11
208.178090
 21
284.082096
 31
0.0
  0
SPLINE
  5
203
100
AcDbEntity
  8
0
 62
7
100
AcDbSpline
 70
0
 71
3
 72
13
 73
9
 74
7
 40
0.000000
 40
0.000000
 40
0.000000
 40
0.000000
 40
0.001498
 40
0.003579
 40
0.005437
 40
1.665056
 40
3.624110
 40
5.542421
 40
5.542421
 40
5.542421
 40
5.542421
 10
208.729870
 20
284.718836
 30
0.0
 10
208.730322
 20
284.719053
 30
0.0
 10
208.731403
 20
284.719571
 30
0.0
 10
208.733289
 20
284.719657
 30
0.0
 10
209.187009
 20
285.058067
 30
0.0
 10
209.928873
 20
286.011828
 30
0.0
 10
211.409166
 20
287.141133
 30
0.0
 10
212.483578
 20
287.856280
 30
0.0
 10
213.015140
 20
288.210096
 30
0.0
 11
208.729870
 21
284.718836
 31
0.0
 11
208.731255
 21
284.719406
 31
0.0
 11
208.733285
 21
284.719866
 31
0.0
 11
208.734870
 21
284.720836
 31
0.0
 11
209.915045
 21
285.887679
 31
0.0
 11
211.429711
 21
287.130126
 31
0.0
 11
213.015140
 21
288.210096
 31
0.0
  0
LINE
  5
204
100
AcDbEntity
  8
0
 62
7
100
AcDbLine
 10
236.187498
 20
294.790176
 30
0.0
 11
233.424809
 21
295.578266
 31
0.0
  0
LINE
  5
205
100
AcDbEntity
  8
0
 62
7
100
AcDbLine
 10
233.424809
 20
295.578266
 30
0.0
 11
231.209459
 21
296.134875
 31
0.0
  0
LINE
  5
206
100
AcDbEntity
  8
0
 62
7
100
AcDbLine
 10
296.518045
 20
265.008417
 30
0.0
 11
297.590315
 21
264.205687
 31
0.0
  0
SPLINE
  5
207
100
AcDbEntity
  8
0
 62
7
100
AcDbSpline
 70
0
 71
3
 72
10
 73
6
 74
4
 40
0.000000
 40
0.000000
 40
0.000000
 40
0.000000
 40
8.004065
 40
16.087603
 40
24.247526
 40
24.247526
 40
24.247526
 40
24.247526
 10
213.015140
 20
288.210096
 30
0.0
 10
215.404755
 20
289.415885
 30
0.0
 10
220.207712
 20
291.839435
 30
0.0
 10
228.130642
 20
293.706790
 30
0.0
 10
233.493474
 20
294.427917
 30
0.0
 10
236.187498
 20
294.790176
 30
0.0
 11
213.015140
 21
288.210096
 31
0.0
 11
220.296293
 21
291.534229
 31
0.0
 11
228.119365
 21
293.569696
 31
0.0
 11
236.187498
 21
294.790176
 31
0.0
  0
LINE
  5
208
100
AcDbEntity
  8
0
 62
7
100
AcDbLine
 10
297.592315
 20
264.204687
 30
0.0
 11
299.370635
 21
262.748637
 31
0.0
  0
SPLINE
  5
209
100
AcDbEntity
  8
0
 62
7
100
AcDbSpline
 70
0
 71
3
 72
10
 73
6
 74
4
 40
0.000000
 40
0.000000
 40
0.000000
 40
0.000000
 40
0.000745
 40
0.001491
 40
0.002236
 40
0.002236
 40
0.002236
 40
0.002236
 10
297.590315
 20
264.205687
 30
0.0
 10
297.590536
 20
264.205572
 30
0.0
 10
297.590976
 20
264.205342
 30
0.0
 10
297.591643
 20
264.205008
 30
0.0
 10
297.592091
 20
264.204794
 30
0.0
 10
297.592315
 20
264.204687
 30
0.0
 11
297.590315
 21
264.205687
 31
0.0
 11
297.590977
 21
264.205344
 31
0.0
 11
297.591644
 21
264.205010
 31
0.0
 11
297.592315
 21
264.204687
 31
0.0
  0
SPLINE
  5
20a
100
AcDbEntity
  8
0
 62
7
100
AcDbSpline
 70
0
 71
3
 72
10
 73
6
 74
4
 40
0.000000
 40
0.000000
 40
0.000000
 40
0.000000
 40
8.178158
 40
16.363877
 40
24.552992
 40
24.552992
 40
24.552992
 40
24.552992
 10
299.370635
 20
262.748637
 30
0.0
 10
302.083909
 20
262.484124
 30
0.0
 10
307.512966
 20
261.954854
 30
0.0
 10
315.638464
 20
260.970303
 30
0.0
 10
321.049710
 20
260.255515
 30
0.0
 10
323.755894
 20
259.898047
 30
0.0
 11
299.370635
 21
262.748637
 31
0.0
 11
307.507050
 21
261.923402
 31
0.0
 11
315.635392
 21
260.955902
 31
0.0
 11
323.755894
 21
259.898047
 31
0.0
  0
SPLINE
  5
20b
100
AcDbEntity
  8
0
 62
7
100
AcDbSpline
 70
0
 71
3
 72
10
 73
6
 74
4
 40
0.000000
 40
0.000000
 40
0.000000
 40
0.000000
 40
3.406314
 40
6.827024
 40
10.137223
 40
10.137223
 40
10.137223
 40
10.137223
 10
323.755894
 20
259.898047
 30
0.0
 10
324.880569
 20
259.742069
 30
0.0
 10
327.134671
 20
259.429452
 30
0.0
 10
330.479279
 20
258.947930
 30
0.0
 10
332.698615
 20
258.618599
 30
0.0
 10
333.790064
 20
258.456637
 30
0.0
 11
323.755894
 21
259.898047
 31
0.0
 11
327.129510
 21
259.427206
 31
0.0
 11
330.515375
 21
258.940198
 31
0.0
 11
333.790064
 21
258.456637
 31
0.0
  0
LINE
  5
20c
100
AcDbEntity
  8
0
 62
7
100
AcDbLine
 10
336.218784
 20
258.088967
 30
0.0
 11
337.207553
 21
257.941017
 31
0.0
  0
LINE
  5
20d
100
AcDbEntity
  8
0
 62
7
100
AcDbLine
 10
337.207553
 20
257.941017
 30
0.0
 11
337.506373
 21
259.918557
 31
0.0
  0
LINE
  5
20e
100
AcDbEntity
  8
0
 62
7
100
AcDbLine
 10
337.506373
 20
259.918557
 30
0.0
 11
336.516144
 21
260.067967
 31
0.0
  0
SPLINE
  5
20f
100
AcDbEntity
  8
0
 62
7
100
AcDbSpline
 70
0
 71
3
 72
10
 73
6
 74
4
 40
0.000000
 40
0.000000
 40
0.000000
 40
0.000000
 40
0.888154
 40
1.827731
 40
2.456392
 40
2.456392
 40
2.456392
 40
2.456392
 10
333.790064
 20
258.456637
 30
0.0
 10
334.082796
 20
258.412431
 30
0.0
 10
334.685209
 20
258.321458
 30
0.0
 10
335.494726
 20
258.198525
 30
0.0
 10
336.011588
 20
258.120318
 30
0.0
 10
336.218784
 20
258.088967
 30
0.0
 11
333.790064
 21
258.456637
 31
0.0
 11
334.668243
 21
258.323900
 31
0.0
 11
335.597204
 21
258.183065
 31
0.0
 11
336.218784
 21
258.088967
 31
0.0
  0
LINE
  5
210
100
AcDbEntity
  8
0
 62
7
100
AcDbLine
 10
296.517905
 20
265.008417
 30
0.0
 11
296.518045
 21
265.008417
 31
0.0
  0
LINE
  5
211
100
AcDbEntity
  8
0
 62
7
100
AcDbLine
 10
76.296385
 20
254.077748
 30
0.0
 11
75.005852
 21
252.588008
 31
0.0
  0
SPLINE
  5
212
100
AcDbEntity
  8
0
 62
7
100
AcDbSpline
 70
0
 71
3
 72
22
 73
18
 74
16
 40
0.000000
 40
0.000000
 40
0.000000
 40
0.000000
 40
0.628113
 40
1.566805
 40
2.454503
 40
2.455503
 40
2.456503
 40
2.457503
 40
5.774364
 40
9.201716
 40
12.617117
 40
12.618817
 40
12.620517
 40
12.622216
 40
21.840618
 40
31.071558
 40
40.309300
 40
40.309300
 40
40.309300
 40
40.309300
 10
336.516144
 20
260.067967
 30
0.0
 10
336.309171
 20
260.100067
 30
0.0
 10
335.792886
 20
260.180138
 30
0.0
 10
334.981894
 20
260.276502
 30
0.0
 10
334.384462
 20
260.432399
 30
0.0
 10
334.087894
 20
260.432718
 30
0.0
 10
334.086894
 20
260.432718
 30
0.0
 10
332.980604
 20
260.431348
 30
0.0
 10
330.772825
 20
260.995307
 30
0.0
 10
327.420518
 20
261.418136
 30
0.0
 10
325.145076
 20
261.653058
 30
0.0
 10
324.028068
 20
261.878854
 30
0.0
 10
324.026401
 20
261.879187
 30
0.0
 10
321.010943
 20
262.475916
 30
0.0
 10
314.866910
 20
262.997659
 30
0.0
 10
305.720626
 20
264.205898
 30
0.0
 10
299.586232
 20
264.740845
 30
0.0
 10
296.517905
 20
265.008417
 30
0.0
 11
336.516144
 21
260.067967
 31
0.0
 11
335.895001
 21
260.161283
 31
0.0
 11
334.966723
 21
260.300721
 31
0.0
 11
334.088894
 21
260.432717
 31
0.0
 11
334.087894
 21
260.432718
 31
0.0
 11
334.086894
 21
260.432718
 31
0.0
 11
334.085894
 21
260.432717
 31
0.0
 11
330.804661
 21
260.917572
 31
0.0
 11
327.412307
 21
261.406109
 31
0.0
 11
324.029734
 21
261.878517
 31
0.0
 11
324.028068
 21
261.878853
 31
0.0
 11
324.026401
 21
261.879187
 31
0.0
 11
324.024734
 21
261.879517
 31
0.0
 11
314.883274
 21
263.068062
 31
0.0
 11
305.714539
 21
264.137899
 31
0.0
 11
296.517905
 21
265.008417
 31
0.0
  0
LINE
  5
213
100
AcDbEntity
  8
0
 62
7
100
AcDbLine
 10
87.648917
 20
242.383898
 30
0.0
 11
87.622517
 21
242.348698
 31
0.0
  0
LINE
  5
214
100
AcDbEntity
  8
0
 62
7
100
AcDbLine
 10
87.622517
 20
242.348698
 30
0.0
 11
88.442830
 21
241.777408
 31
0.0
  0
LINE
  5
215
100
AcDbEntity
  8
0
 62
7
100
AcDbLine
 10
88.442830
 20
241.777408
 30
0.0
 11
88.581992
 21
241.682208
 31
0.0
  0
SPLINE
  5
216
100
AcDbEntity
  8
0
 62
7
100
AcDbSpline
 70
0
 71
3
 72
10
 73
6
 74
4
 40
0.000000
 40
0.000000
 40
0.000000
 40
0.000000
 40
5.421313
 40
10.841479
 40
16.258221
 40
16.258221
 40
16.258221
 40
16.258221
 10
75.005852
 20
252.588008
 30
0.0
 10
76.348276
 20
251.377923
 30
0.0
 10
79.032840
 20
248.958010
 30
0.0
 10
83.255635
 20
245.555380
 30
0.0
 10
86.184798
 20
243.440836
 30
0.0
 10
87.648917
 20
242.383898
 30
0.0
 11
75.005852
 21
252.588008
 31
0.0
 11
79.065962
 21
248.995496
 31
0.0
 11
83.285157
 21
245.593057
 31
0.0
 11
87.648917
 21
242.383898
 31
0.0
  0
LINE
  5
217
100
AcDbEntity
  8
0
 62
7
100
AcDbLine
 10
89.724707
 20
243.322228
 30
0.0
 11
89.720207
 21
243.327228
 31
0.0
  0
SPLINE
  5
218
100
AcDbEntity
  8
0
 62
7
100
AcDbSpline
 70
0
 71
3
 72
16
 73
12
 74
10
 40
0.000000
 40
0.000000
 40
0.000000
 40
0.000000
 40
0.002402
 40
0.004971
 40
0.007837
 40
0.522325
 40
1.021970
 40
1.536458
 40
2.050946
 40
2.550591
 40
3.065079
 40
3.065079
 40
3.065079
 40
3.065079
 10
88.581992
 20
241.682208
 30
0.0
 10
88.582687
 20
241.681804
 30
0.0
 10
88.584127
 20
241.680968
 30
0.0
 10
88.585959
 20
241.679082
 30
0.0
 10
88.713131
 20
241.561610
 30
0.0
 10
89.077464
 20
241.480732
 30
0.0
 10
89.588073
 20
241.570707
 30
0.0
 10
89.997290
 20
241.920837
 30
0.0
 10
90.174209
 20
242.418338
 30
0.0
 10
90.094489
 20
242.954921
 30
0.0
 10
89.849164
 20
243.198604
 30
0.0
 10
89.724707
 20
243.322228
 30
0.0
 11
88.581992
 21
241.682208
 31
0.0
 11
88.584014
 21
241.680912
 31
0.0
 11
88.585903
 21
241.679171
 31
0.0
 11
88.587992
 21
241.677208
 31
0.0
 11
89.076462
 21
241.515672
 31
0.0
 11
89.566787
 21
241.611729
 31
0.0
 11
89.958198
 21
241.945637
 31
0.0
 11
90.132106
 21
242.429841
 31
0.0
 11
90.048552
 21
242.922451
 31
0.0
 11
89.724707
 21
243.322228
 31
0.0
  0
LINE
  5
219
100
AcDbEntity
  8
0
 62
7
100
AcDbLine
 10
76.296385
 20
254.077718
 30
0.0
 11
76.296385
 21
254.077748
 31
0.0
  0
LINE
  5
21a
100
AcDbEntity
  8
0
 62
7
100
AcDbLine
 10
308.715795
 20
227.947869
 30
0.0
 11
308.718795
 21
227.945869
 31
0.0
  0
SPLINE
  5
21b
100
AcDbEntity
  8
0
 62
7
100
AcDbSpline
 70
0
 71
3
 72
10
 73
6
 74
4
 40
0.000000
 40
0.000000
 40
0.000000
 40
0.000000
 40
5.736555
 40
11.474844
 40
17.211800
 40
17.211800
 40
17.211800
 40
17.211800
 10
89.720207
 20
243.327228
 30
0.0
 10
88.160312
 20
244.433583
 30
0.0
 10
85.040052
 20
246.646627
 30
0.0
 10
80.554978
 20
250.231747
 30
0.0
 10
77.715806
 20
252.795827
 30
0.0
 10
76.296385
 20
254.077718
 30
0.0
 11
89.720207
 21
243.327228
 31
0.0
 11
85.073047
 21
246.690554
 31
0.0
 11
80.592405
 21
250.275498
 31
0.0
 11
76.296385
 21
254.077718
 31
0.0
  0
LINE
  5
21c
100
AcDbEntity
  8
0
 62
7
100
AcDbLine
 10
308.607465
 20
225.961009
 30
0.0
 11
308.898975
 21
225.914109
 31
0.0
  0
LINE
  5
21d
100
AcDbEntity
  8
0
 62
7
100
AcDbLine
 10
308.898975
 20
225.914109
 30
0.0
 11
309.886275
 21
225.757369
 31
0.0
  0
LINE
  5
21e
100
AcDbEntity
  8
0
 62
7
100
AcDbLine
 10
309.886275
 20
225.757369
 30
0.0
 11
309.886275
 21
225.760369
 31
0.0
  0
LINE
  5
21f
100
AcDbEntity
  8
0
 62
7
100
AcDbLine
 10
309.886275
 20
225.760369
 30
0.0
 11
310.202685
 21
225.709069
 31
0.0
  0
LINE
  5
220
100
AcDbEntity
  8
0
 62
7
100
AcDbLine
 10
310.202685
 20
225.709069
 30
0.0
 11
310.255385
 21
225.701069
 31
0.0
  0
LINE
  5
221
100
AcDbEntity
  8
0
 62
7
100
AcDbLine
 10
310.255385
 20
225.701069
 30
0.0
 11
310.265685
 21
225.698069
 31
0.0
  0
LINE
  5
222
100
AcDbEntity
  8
0
 62
7
100
AcDbLine
 10
310.265685
 20
225.698069
 30
0.0
 11
311.667545
 21
225.462239
 31
0.0
  0
LINE
  5
223
100
AcDbEntity
  8
0
 62
7
100
AcDbLine
 10
311.667545
 20
225.462239
 30
0.0
 11
311.676545
 21
225.459239
 31
0.0
  0
LINE
  5
224
100
AcDbEntity
  8
0
 62
7
100
AcDbLine
 10
311.676545
 20
225.459239
 30
0.0
 11
311.681545
 21
225.459239
 31
0.0
  0
LINE
  5
225
100
AcDbEntity
  8
0
 62
7
100
AcDbLine
 10
311.681545
 20
225.459239
 30
0.0
 11
313.141995
 21
225.198489
 31
0.0
  0
LINE
  5
226
100
AcDbEntity
  8
0
 62
7
100
AcDbLine
 10
313.141995
 20
225.198489
 30
0.0
 11
313.187395
 21
225.189489
 31
0.0
  0
LINE
  5
227
100
AcDbEntity
  8
0
 62
7
100
AcDbLine
 10
313.187395
 20
225.189489
 30
0.0
 11
314.659565
 21
224.912629
 31
0.0
  0
LINE
  5
228
100
AcDbEntity
  8
0
 62
7
100
AcDbLine
 10
314.659565
 20
224.912629
 30
0.0
 11
314.819235
 21
224.881929
 31
0.0
  0
LINE
  5
229
100
AcDbEntity
  8
0
 62
7
100
AcDbLine
 10
314.819235
 20
224.881929
 30
0.0
 11
316.235734
 21
224.600679
 31
0.0
  0
LINE
  5
22a
100
AcDbEntity
  8
0
 62
7
100
AcDbLine
 10
316.235734
 20
224.600679
 30
0.0
 11
316.509664
 21
224.543479
 31
0.0
  0
LINE
  5
22b
100
AcDbEntity
  8
0
 62
7
100
AcDbLine
 10
316.509664
 20
224.543479
 30
0.0
 11
317.864644
 21
224.263689
 31
0.0
  0
LINE
  5
22c
100
AcDbEntity
  8
0
 62
7
100
AcDbLine
 10
317.864644
 20
224.263689
 30
0.0
 11
318.255754
 21
224.180189
 31
0.0
  0
LINE
  5
22d
100
AcDbEntity
  8
0
 62
7
100
AcDbLine
 10
318.255754
 20
224.180189
 30
0.0
 11
319.547754
 21
223.903329
 31
0.0
  0
LINE
  5
22e
100
AcDbEntity
  8
0
 62
7
100
AcDbLine
 10
319.547754
 20
223.903329
 30
0.0
 11
320.056044
 21
223.789079
 31
0.0
  0
LINE
  5
22f
100
AcDbEntity
  8
0
 62
7
100
AcDbLine
 10
320.056044
 20
223.789079
 30
0.0
 11
321.286524
 21
223.513679
 31
0.0
  0
LINE
  5
230
100
AcDbEntity
  8
0
 62
7
100
AcDbLine
 10
321.286524
 20
223.513679
 30
0.0
 11
321.912004
 21
223.370129
 31
0.0
  0
LINE
  5
231
100
AcDbEntity
  8
0
 62
7
100
AcDbLine
 10
321.912004
 20
223.370129
 30
0.0
 11
323.079484
 21
223.100599
 31
0.0
  0
LINE
  5
232
100
AcDbEntity
  8
0
 62
7
100
AcDbLine
 10
323.079484
 20
223.100599
 30
0.0
 11
323.822164
 21
222.921889
 31
0.0
  0
LINE
  5
233
100
AcDbEntity
  8
0
 62
7
100
AcDbLine
 10
323.822164
 20
222.921889
 30
0.0
 11
324.926664
 21
222.658219
 31
0.0
  0
LINE
  5
234
100
AcDbEntity
  8
0
 62
7
100
AcDbLine
 10
324.926664
 20
222.658219
 30
0.0
 11
325.787984
 21
222.447279
 31
0.0
  0
LINE
  5
235
100
AcDbEntity
  8
0
 62
7
100
AcDbLine
 10
325.787984
 20
222.447279
 30
0.0
 11
326.830954
 21
222.189469
 31
0.0
  0
LINE
  5
236
100
AcDbEntity
  8
0
 62
7
100
AcDbLine
 10
326.830954
 20
222.189469
 30
0.0
 11
327.813864
 21
221.941909
 31
0.0
  0
LINE
  5
237
100
AcDbEntity
  8
0
 62
7
100
AcDbLine
 10
327.813864
 20
221.941909
 30
0.0
 11
328.790914
 21
221.694349
 31
0.0
  0
LINE
  5
238
100
AcDbEntity
  8
0
 62
7
100
AcDbLine
 10
328.790914
 20
221.694349
 30
0.0
 11
329.893944
 21
221.407239
 31
0.0
  0
LINE
  5
239
100
AcDbEntity
  8
0
 62
7
100
AcDbLine
 10
329.893944
 20
221.407239
 30
0.0
 11
330.806544
 21
221.169929
 31
0.0
  0
LINE
  5
23a
100
AcDbEntity
  8
0
 62
7
100
AcDbLine
 10
330.806544
 20
221.169929
 30
0.0
 11
332.034084
 21
220.844739
 31
0.0
  0
LINE
  5
23b
100
AcDbEntity
  8
0
 62
7
100
AcDbLine
 10
332.034084
 20
220.844739
 30
0.0
 11
332.880754
 21
220.617689
 31
0.0
  0
LINE
  5
23c
100
AcDbEntity
  8
0
 62
7
100
AcDbLine
 10
332.880754
 20
220.617689
 30
0.0
 11
334.234274
 21
220.248549
 31
0.0
  0
LINE
  5
23d
100
AcDbEntity
  8
0
 62
7
100
AcDbLine
 10
334.234274
 20
220.248549
 30
0.0
 11
335.010644
 21
220.036139
 31
0.0
  0
LINE
  5
23e
100
AcDbEntity
  8
0
 62
7
100
AcDbLine
 10
335.010644
 20
220.036139
 30
0.0
 11
336.065334
 21
219.741709
 31
0.0
  0
LINE
  5
23f
100
AcDbEntity
  8
0
 62
7
100
AcDbLine
 10
336.065334
 20
219.741709
 30
0.0
 11
335.258204
 21
221.200699
 31
0.0
  0
LINE
  5
240
100
AcDbEntity
  8
0
 62
7
100
AcDbLine
 10
335.258204
 20
221.200699
 30
0.0
 11
334.629784
 21
222.214369
 31
0.0
  0
LINE
  5
241
100
AcDbEntity
  8
0
 62
7
100
AcDbLine
 10
334.629784
 20
222.214369
 30
0.0
 11
333.402244
 21
222.551279
 31
0.0
  0
SPLINE
  5
242
100
AcDbEntity
  8
0
 62
7
100
AcDbSpline
 70
0
 71
3
 72
13
 73
9
 74
7
 40
0.000000
 40
0.000000
 40
0.000000
 40
0.000000
 40
0.486263
 40
0.959804
 40
1.446067
 40
1.932330
 40
2.405870
 40
2.892133
 40
2.892133
 40
2.892133
 40
2.892133
 10
308.718795
 20
227.945869
 30
0.0
 10
308.556630
 20
227.913330
 30
0.0
 10
308.236543
 20
227.849105
 30
0.0
 10
307.883059
 20
227.482066
 30
0.0
 10
307.733700
 20
227.005570
 30
0.0
 10
307.828837
 20
226.515361
 30
0.0
 10
308.139059
 20
226.111095
 30
0.0
 10
308.449956
 20
226.011478
 30
0.0
 10
308.607465
 20
225.961009
 30
0.0
 11
308.718795
 21
227.945869
 31
0.0
 11
308.254237
 21
227.802209
 31
0.0
 11
307.919148
 21
227.467611
 31
0.0
 11
307.774808
 21
227.003265
 31
0.0
 11
307.866316
 21
226.525689
 31
0.0
 11
308.161886
 21
226.155718
 31
0.0
 11
308.607465
 21
225.961009
 31
0.0
  0
LINE
  5
243
100
AcDbEntity
  8
0
 62
7
100
AcDbLine
 10
333.396244
 20
222.551279
 30
0.0
 11
332.546634
 21
222.776869
 31
0.0
  0
SPLINE
  5
244
100
AcDbEntity
  8
0
 62
7
100
AcDbSpline
 70
0
 71
3
 72
10
 73
6
 74
4
 40
0.000000
 40
0.000000
 40
0.000000
 40
0.000000
 40
0.002000
 40
0.004000
 40
0.006000
 40
0.006000
 40
0.006000
 40
0.006000
 10
333.402244
 20
222.551279
 30
0.0
 10
333.401577
 20
222.551281
 30
0.0
 10
333.400244
 20
222.551284
 30
0.0
 10
333.398244
 20
222.551284
 30
0.0
 10
333.396910
 20
222.551281
 30
0.0
 10
333.396244
 20
222.551279
 30
0.0
 11
333.402244
 21
222.551279
 31
0.0
 11
333.400244
 21
222.551283
 31
0.0
 11
333.398244
 21
222.551283
 31
0.0
 11
333.396244
 21
222.551279
 31
0.0
  0
LINE
  5
245
100
AcDbEntity
  8
0
 62
7
100
AcDbLine
 10
331.310174
 20
223.107989
 30
0.0
 11
330.396114
 21
223.345289
 31
0.0
  0
SPLINE
  5
246
100
AcDbEntity
  8
0
 62
7
100
AcDbSpline
 70
0
 71
3
 72
13
 73
9
 74
7
 40
0.000000
 40
0.000000
 40
0.000000
 40
0.000000
 40
0.330156
 40
0.943302
 40
1.273458
 40
1.275694
 40
1.277930
 40
1.280166
 40
1.280166
 40
1.280166
 40
1.280166
 10
332.546634
 20
222.776869
 30
0.0
 10
332.440016
 20
222.804485
 30
0.0
 10
332.135395
 20
222.883389
 30
0.0
 10
331.733459
 20
223.014365
 30
0.0
 10
331.413771
 20
223.055743
 30
0.0
 10
331.314177
 20
223.105995
 30
0.0
 10
331.312176
 20
223.106994
 30
0.0
 10
331.310841
 20
223.107657
 30
0.0
 10
331.310174
 20
223.107989
 30
0.0
 11
332.546634
 21
222.776869
 31
0.0
 11
332.227626
 21
222.861937
 31
0.0
 11
331.635182
 21
223.019921
 31
0.0
 11
331.316174
 21
223.104989
 31
0.0
 11
331.314176
 21
223.105994
 31
0.0
 11
331.312176
 21
223.106994
 31
0.0
 11
331.310174
 21
223.107989
 31
0.0
  0
LINE
  5
247
100
AcDbEntity
  8
0
 62
7
100
AcDbLine
 10
329.280694
 20
223.635399
 30
0.0
 11
328.300714
 21
223.882959
 31
0.0
  0
SPLINE
  5
248
100
AcDbEntity
  8
0
 62
7
100
AcDbSpline
 70
0
 71
3
 72
13
 73
9
 74
7
 40
0.000000
 40
0.000000
 40
0.000000
 40
0.000000
 40
0.296601
 40
0.847432
 40
1.144033
 40
1.146881
 40
1.149729
 40
1.152577
 40
1.152577
 40
1.152577
 40
1.152577
 10
330.396114
 20
223.345289
 30
0.0
 10
330.300297
 20
223.369744
 30
0.0
 10
330.026536
 20
223.439616
 30
0.0
 10
329.660711
 20
223.545741
 30
0.0
 10
329.380237
 20
223.597636
 30
0.0
 10
329.286031
 20
223.633409
 30
0.0
 10
329.283364
 20
223.634408
 30
0.0
 10
329.281584
 20
223.635069
 30
0.0
 10
329.280694
 20
223.635399
 30
0.0
 11
330.396114
 21
223.345289
 31
0.0
 11
330.109005
 21
223.419725
 31
0.0
 11
329.575803
 21
223.557963
 31
0.0
 11
329.288694
 21
223.632399
 31
0.0
 11
329.286030
 21
223.633407
 31
0.0
 11
329.283363
 21
223.634407
 31
0.0
 11
329.280694
 21
223.635399
 31
0.0
  0
LINE
  5
249
100
AcDbEntity
  8
0
 62
7
100
AcDbLine
 10
327.308864
 20
224.133519
 30
0.0
 11
326.262964
 21
224.391329
 31
0.0
  0
LINE
  5
24a
100
AcDbEntity
  8
0
 62
7
100
AcDbLine
 10
326.262964
 20
224.391329
 30
0.0
 11
325.398704
 21
224.603739
 31
0.0
  0
SPLINE
  5
24b
100
AcDbEntity
  8
0
 62
7
100
AcDbSpline
 70
0
 71
3
 72
13
 73
9
 74
7
 40
0.000000
 40
0.000000
 40
0.000000
 40
0.000000
 40
0.263526
 40
0.752932
 40
1.016458
 40
1.018694
 40
1.020930
 40
1.023166
 40
1.023166
 40
1.023166
 40
1.023166
 10
328.300714
 20
223.882959
 30
0.0
 10
328.215282
 20
223.903720
 30
0.0
 10
327.971189
 20
223.963038
 30
0.0
 10
327.649448
 20
224.064038
 30
0.0
 10
327.392621
 20
224.091251
 30
0.0
 10
327.312867
 20
224.131525
 30
0.0
 10
327.310867
 20
224.132524
 30
0.0
 10
327.309531
 20
224.133187
 30
0.0
 10
327.308864
 20
224.133519
 30
0.0
 11
328.300714
 21
223.882959
 31
0.0
 11
328.045123
 21
223.947141
 31
0.0
 11
327.570455
 21
224.066337
 31
0.0
 11
327.314864
 21
224.130519
 31
0.0
 11
327.312866
 21
224.131523
 31
0.0
 11
327.310866
 21
224.132523
 31
0.0
 11
327.308864
 21
224.133519
 31
0.0
  0
LINE
  5
24c
100
AcDbEntity
  8
0
 62
7
100
AcDbLine
 10
325.392704
 20
224.605739
 30
0.0
 11
324.282354
 21
224.869409
 31
0.0
  0
LINE
  5
24d
100
AcDbEntity
  8
0
 62
7
100
AcDbLine
 10
324.282354
 20
224.869409
 30
0.0
 11
323.536744
 21
225.048119
 31
0.0
  0
SPLINE
  5
24e
100
AcDbEntity
  8
0
 62
7
100
AcDbSpline
 70
0
 71
3
 72
10
 73
6
 74
4
 40
0.000000
 40
0.000000
 40
0.000000
 40
0.000000
 40
0.002108
 40
0.004216
 40
0.006325
 40
0.006325
 40
0.006325
 40
0.006325
 10
325.398704
 20
224.603739
 30
0.0
 10
325.398038
 20
224.603963
 30
0.0
 10
325.396706
 20
224.604411
 30
0.0
 10
325.394706
 20
224.605077
 30
0.0
 10
325.393371
 20
224.605518
 30
0.0
 10
325.392704
 20
224.605739
 30
0.0
 11
325.398704
 21
224.603739
 31
0.0
 11
325.396705
 21
224.604410
 31
0.0
 11
325.394705
 21
224.605077
 31
0.0
 11
325.392704
 21
224.605739
 31
0.0
  0
LINE
  5
24f
100
AcDbEntity
  8
0
 62
7
100
AcDbLine
 10
323.530744
 20
225.049119
 30
0.0
 11
322.357414
 21
225.320109
 31
0.0
  0
SPLINE
  5
250
100
AcDbEntity
  8
0
 62
7
100
AcDbSpline
 70
0
 71
3
 72
10
 73
6
 74
4
 40
0.000000
 40
0.000000
 40
0.000000
 40
0.000000
 40
0.002028
 40
0.004055
 40
0.006083
 40
0.006083
 40
0.006083
 40
0.006083
 10
323.536744
 20
225.048119
 30
0.0
 10
323.536078
 20
225.048232
 30
0.0
 10
323.534745
 20
225.048457
 30
0.0
 10
323.532745
 20
225.048791
 30
0.0
 10
323.531411
 20
225.049009
 30
0.0
 10
323.530744
 20
225.049119
 30
0.0
 11
323.536744
 21
225.048119
 31
0.0
 11
323.534745
 21
225.048456
 31
0.0
 11
323.532745
 21
225.048790
 31
0.0
 11
323.530744
 21
225.049119
 31
0.0
  0
LINE
  5
251
100
AcDbEntity
  8
0
 62
7
100
AcDbLine
 10
321.721454
 20
225.466129
 30
0.0
 11
320.486594
 21
225.741519
 31
0.0
  0
LINE
  5
252
100
AcDbEntity
  8
0
 62
7
100
AcDbLine
 10
320.486594
 20
225.741519
 30
0.0
 11
319.976824
 21
225.857239
 31
0.0
  0
SPLINE
  5
253
100
AcDbEntity
  8
0
 62
7
100
AcDbSpline
 70
0
 71
3
 72
13
 73
9
 74
7
 40
0.000000
 40
0.000000
 40
0.000000
 40
0.000000
 40
0.166837
 40
0.476677
 40
0.643513
 40
0.646532
 40
0.649550
 40
0.652569
 40
0.652569
 40
0.652569
 40
0.652569
 10
322.357414
 20
225.320109
 30
0.0
 10
322.303269
 20
225.332856
 30
0.0
 10
322.148570
 20
225.369276
 30
0.0
 10
321.938503
 20
225.411353
 30
0.0
 10
321.784718
 20
225.458981
 30
0.0
 10
321.727455
 20
225.465472
 30
0.0
 10
321.724455
 20
225.465807
 30
0.0
 10
321.722455
 20
225.466022
 30
0.0
 10
321.721454
 20
225.466129
 30
0.0
 11
322.357414
 21
225.320109
 31
0.0
 11
322.194869
 21
225.357707
 31
0.0
 11
321.892999
 21
225.427531
 31
0.0
 11
321.730454
 21
225.465129
 31
0.0
 11
321.727455
 21
225.465471
 31
0.0
 11
321.724455
 21
225.465805
 31
0.0
 11
321.721454
 21
225.466129
 31
0.0
  0
LINE
  5
254
100
AcDbEntity
  8
0
 62
7
100
AcDbLine
 10
319.969824
 20
225.857239
 30
0.0
 11
318.670504
 21
226.137029
 31
0.0
  0
LINE
  5
255
100
AcDbEntity
  8
0
 62
7
100
AcDbLine
 10
318.670504
 20
226.137029
 30
0.0
 11
318.276464
 21
226.222029
 31
0.0
  0
SPLINE
  5
256
100
AcDbEntity
  8
0
 62
7
100
AcDbSpline
 70
0
 71
3
 72
10
 73
6
 74
4
 40
0.000000
 40
0.000000
 40
0.000000
 40
0.000000
 40
0.002333
 40
0.004667
 40
0.007000
 40
0.007000
 40
0.007000
 40
0.007000
 10
319.976824
 20
225.857239
 30
0.0
 10
319.976047
 20
225.857241
 30
0.0
 10
319.974491
 20
225.857245
 30
0.0
 10
319.972158
 20
225.857245
 30
0.0
 10
319.970602
 20
225.857241
 30
0.0
 10
319.969824
 20
225.857239
 30
0.0
 11
319.976824
 21
225.857239
 31
0.0
 11
319.974491
 21
225.857244
 31
0.0
 11
319.972158
 21
225.857244
 31
0.0
 11
319.969824
 21
225.857239
 31
0.0
  0
LINE
  5
257
100
AcDbEntity
  8
0
 62
7
100
AcDbLine
 10
318.267464
 20
226.225029
 30
0.0
 11
316.908084
 21
226.503349
 31
0.0
  0
SPLINE
  5
258
100
AcDbEntity
  8
0
 62
7
100
AcDbSpline
 70
0
 71
3
 72
10
 73
6
 74
4
 40
0.000000
 40
0.000000
 40
0.000000
 40
0.000000
 40
0.003162
 40
0.006325
 40
0.009487
 40
0.009487
 40
0.009487
 40
0.009487
 10
318.276464
 20
226.222029
 30
0.0
 10
318.275466
 20
226.222366
 30
0.0
 10
318.273468
 20
226.223040
 30
0.0
 10
318.270468
 20
226.224040
 30
0.0
 10
318.268466
 20
226.224699
 30
0.0
 10
318.267464
 20
226.225029
 30
0.0
 11
318.276464
 21
226.222029
 31
0.0
 11
318.273468
 21
226.223038
 31
0.0
 11
318.270468
 21
226.224038
 31
0.0
 11
318.267464
 21
226.225029
 31
0.0
  0
LINE
  5
259
100
AcDbEntity
  8
0
 62
7
100
AcDbLine
 10
316.624234
 20
226.564949
 30
0.0
 11
315.201865
 21
226.843269
 31
0.0
  0
LINE
  5
25a
100
AcDbEntity
  8
0
 62
7
100
AcDbLine
 10
315.201865
 20
226.843269
 30
0.0
 11
315.037805
 21
226.876969
 31
0.0
  0
SPLINE
  5
25b
100
AcDbEntity
  8
0
 62
7
100
AcDbSpline
 70
0
 71
3
 72
13
 73
9
 74
7
 40
0.000000
 40
0.000000
 40
0.000000
 40
0.000000
 40
0.073366
 40
0.209618
 40
0.282984
 40
0.285522
 40
0.288061
 40
0.290600
 40
0.290600
 40
0.290600
 40
0.290600
 10
316.908084
 20
226.503349
 30
0.0
 10
316.884109
 20
226.508255
 30
0.0
 10
316.815607
 20
226.522272
 30
0.0
 10
316.724795
 20
226.546425
 30
0.0
 10
316.652870
 20
226.552469
 30
0.0
 10
316.628905
 20
226.562958
 30
0.0
 10
316.626571
 20
226.563955
 30
0.0
 10
316.625013
 20
226.564618
 30
0.0
 10
316.624234
 20
226.564949
 30
0.0
 11
316.908084
 21
226.503349
 31
0.0
 11
316.836309
 21
226.518541
 31
0.0
 11
316.703010
 21
226.546756
 31
0.0
 11
316.631234
 21
226.561949
 31
0.0
 11
316.628904
 21
226.562955
 31
0.0
 11
316.626570
 21
226.563955
 31
0.0
 11
316.624234
 21
226.564949
 31
0.0
  0
LINE
  5
25c
100
AcDbEntity
  8
0
 62
7
100
AcDbLine
 10
315.030805
 20
226.878969
 30
0.0
 11
313.549845
 21
227.157289
 31
0.0
  0
SPLINE
  5
25d
100
AcDbEntity
  8
0
 62
7
100
AcDbSpline
 70
0
 71
3
 72
10
 73
6
 74
4
 40
0.000000
 40
0.000000
 40
0.000000
 40
0.000000
 40
0.002427
 40
0.004853
 40
0.007280
 40
0.007280
 40
0.007280
 40
0.007280
 10
315.037805
 20
226.876969
 30
0.0
 10
315.037027
 20
226.877193
 30
0.0
 10
315.035473
 20
226.877642
 30
0.0
 10
315.033140
 20
226.878309
 30
0.0
 10
315.031583
 20
226.878749
 30
0.0
 10
315.030805
 20
226.878969
 30
0.0
 11
315.037805
 21
226.876969
 31
0.0
 11
315.035473
 21
226.877641
 31
0.0
 11
315.033140
 21
226.878308
 31
0.0
 11
315.030805
 21
226.878969
 31
0.0
  0
LINE
  5
25e
100
AcDbEntity
  8
0
 62
7
100
AcDbLine
 10
313.543845
 20
227.159289
 30
0.0
 11
313.494045
 21
227.169589
 31
0.0
  0
SPLINE
  5
25f
100
AcDbEntity
  8
0
 62
7
100
AcDbSpline
 70
0
 71
3
 72
10
 73
6
 74
4
 40
0.000000
 40
0.000000
 40
0.000000
 40
0.000000
 40
0.002108
 40
0.004216
 40
0.006325
 40
0.006325
 40
0.006325
 40
0.006325
 10
313.549845
 20
227.157289
 30
0.0
 10
313.549179
 20
227.157513
 30
0.0
 10
313.547846
 20
227.157961
 30
0.0
 10
313.545846
 20
227.158627
 30
0.0
 10
313.544512
 20
227.159068
 30
0.0
 10
313.543845
 20
227.159289
 30
0.0
 11
313.549845
 21
227.157289
 31
0.0
 11
313.547846
 21
227.157960
 31
0.0
 11
313.545846
 21
227.158626
 31
0.0
 11
313.543845
 21
227.159289
 31
0.0
  0
LINE
  5
260
100
AcDbEntity
  8
0
 62
7
100
AcDbLine
 10
313.491045
 20
227.169589
 30
0.0
 11
312.026205
 21
227.431789
 31
0.0
  0
SPLINE
  5
261
100
AcDbEntity
  8
0
 62
7
100
AcDbSpline
 70
0
 71
3
 72
10
 73
6
 74
4
 40
0.000000
 40
0.000000
 40
0.000000
 40
0.000000
 40
0.001000
 40
0.002000
 40
0.003000
 40
0.003000
 40
0.003000
 40
0.003000
 10
313.494045
 20
227.169589
 30
0.0
 10
313.493711
 20
227.169589
 30
0.0
 10
313.493045
 20
227.169590
 30
0.0
 10
313.492045
 20
227.169590
 30
0.0
 10
313.491378
 20
227.169589
 30
0.0
 10
313.491045
 20
227.169589
 30
0.0
 11
313.494045
 21
227.169589
 31
0.0
 11
313.493045
 21
227.169590
 31
0.0
 11
313.492045
 21
227.169590
 31
0.0
 11
313.491045
 21
227.169589
 31
0.0
  0
LINE
  5
262
100
AcDbEntity
  8
0
 62
7
100
AcDbLine
 10
312.014505
 20
227.432789
 30
0.0
 11
312.004205
 21
227.434789
 31
0.0
  0
SPLINE
  5
263
100
AcDbEntity
  8
0
 62
7
100
AcDbSpline
 70
0
 71
3
 72
10
 73
6
 74
4
 40
0.000000
 40
0.000000
 40
0.000000
 40
0.000000
 40
0.003914
 40
0.007828
 40
0.011743
 40
0.011743
 40
0.011743
 40
0.011743
 10
312.026205
 20
227.431789
 30
0.0
 10
312.024905
 20
227.431906
 30
0.0
 10
312.022306
 20
227.432141
 30
0.0
 10
312.018406
 20
227.432474
 30
0.0
 10
312.015805
 20
227.432684
 30
0.0
 10
312.014505
 20
227.432789
 30
0.0
 11
312.026205
 21
227.431789
 31
0.0
 11
312.022306
 21
227.432137
 31
0.0
 11
312.018406
 21
227.432471
 31
0.0
 11
312.014505
 21
227.432789
 31
0.0
  0
LINE
  5
264
100
AcDbEntity
  8
0
 62
7
100
AcDbLine
 10
311.938305
 20
227.448089
 30
0.0
 11
310.584785
 21
227.673669
 31
0.0
  0
LINE
  5
265
100
AcDbEntity
  8
0
 62
7
100
AcDbLine
 10
310.584785
 20
227.673669
 30
0.0
 11
310.573085
 21
227.676669
 31
0.0
  0
SPLINE
  5
266
100
AcDbEntity
  8
0
 62
7
100
AcDbSpline
 70
0
 71
3
 72
13
 73
9
 74
7
 40
0.000000
 40
0.000000
 40
0.000000
 40
0.000000
 40
0.014303
 40
0.040867
 40
0.055170
 40
0.059196
 40
0.063222
 40
0.067249
 40
0.067249
 40
0.067249
 40
0.067249
 10
312.004205
 20
227.434789
 30
0.0
 10
311.999519
 20
227.435670
 30
0.0
 10
311.986130
 20
227.438188
 30
0.0
 10
311.968122
 20
227.441878
 30
0.0
 10
311.953304
 20
227.444154
 30
0.0
 10
311.946112
 20
227.446116
 30
0.0
 10
311.942209
 20
227.447106
 30
0.0
 10
311.939606
 20
227.447761
 30
0.0
 10
311.938305
 20
227.448089
 30
0.0
 11
312.004205
 21
227.434789
 31
0.0
 11
311.990153
 21
227.437459
 31
0.0
 11
311.964057
 21
227.442418
 31
0.0
 11
311.950005
 21
227.445089
 31
0.0
 11
311.946109
 21
227.446105
 31
0.0
 11
311.942209
 21
227.447105
 31
0.0
 11
311.938305
 21
227.448089
 31
0.0
  0
LINE
  5
267
100
AcDbEntity
  8
0
 62
7
100
AcDbLine
 10
310.357725
 20
227.708969
 30
0.0
 11
310.193665
 21
227.736769
 31
0.0
  0
LINE
  5
268
100
AcDbEntity
  8
0
 62
7
100
AcDbLine
 10
310.193665
 20
227.736769
 30
0.0
 11
309.207815
 21
227.893509
 31
0.0
  0
SPLINE
  5
269
100
AcDbEntity
  8
0
 62
7
100
AcDbSpline
 70
0
 71
3
 72
13
 73
9
 74
7
 40
0.000000
 40
0.000000
 40
0.000000
 40
0.000000
 40
0.044330
 40
0.126659
 40
0.170989
 40
0.186656
 40
0.202322
 40
0.217989
 40
0.217989
 40
0.217989
 40
0.217989
 10
310.573085
 20
227.676669
 30
0.0
 10
310.558531
 20
227.679235
 30
0.0
 10
310.516949
 20
227.686569
 30
0.0
 10
310.460666
 20
227.695327
 30
0.0
 10
310.414193
 20
227.705540
 30
0.0
 10
310.389005
 20
227.707208
 30
0.0
 10
310.373377
 20
227.708276
 30
0.0
 10
310.362942
 20
227.708738
 30
0.0
 10
310.357725
 20
227.708969
 30
0.0
 11
310.573085
 21
227.676669
 31
0.0
 11
310.529410
 21
227.684265
 31
0.0
 11
310.448300
 21
227.698373
 31
0.0
 11
310.404625
 21
227.705969
 31
0.0
 11
310.389008
 21
227.707214
 31
0.0
 11
310.373373
 21
227.708214
 31
0.0
 11
310.357725
 21
227.708969
 31
0.0
  0
LINE
  5
26a
100
AcDbEntity
  8
0
 62
7
100
AcDbLine
 10
308.715625
 20
227.947709
 30
0.0
 11
308.715795
 21
227.947869
 31
0.0
  0
LINE
  5
26b
100
AcDbEntity
  8
0
 62
7
100
AcDbLine
 10
18.572753
 20
192.744751
 30
0.0
 11
17.923827
 21
190.852171
 31
0.0
  0
LINE
  5
26c
100
AcDbEntity
  8
0
 62
7
100
AcDbLine
 10
17.923827
 20
190.852171
 30
0.0
 11
18.871580
 21
190.529901
 31
0.0
  0
SPLINE
  5
26d
100
AcDbEntity
  8
0
 62
7
100
AcDbSpline
 70
0
 71
3
 72
13
 73
9
 74
7
 40
0.000000
 40
0.000000
 40
0.000000
 40
0.000000
 40
0.076801
 40
0.219430
 40
0.296231
 40
0.362840
 40
0.429413
 40
0.496022
 40
0.496022
 40
0.496022
 40
0.496022
 10
309.207815
 20
227.893509
 30
0.0
 10
309.182499
 20
227.897311
 30
0.0
 10
309.110167
 20
227.908174
 30
0.0
 10
309.012475
 20
227.922564
 30
0.0
 10
308.918272
 20
227.937278
 30
0.0
 10
308.848805
 20
227.946070
 30
0.0
 10
308.782214
 20
227.949612
 30
0.0
 10
308.737825
 20
227.948343
 30
0.0
 10
308.715625
 20
227.947709
 30
0.0
 11
309.207815
 21
227.893509
 31
0.0
 11
309.131862
 21
227.904890
 31
0.0
 11
308.990807
 21
227.926027
 31
0.0
 11
308.914855
 21
227.937409
 31
0.0
 11
308.848711
 21
227.945267
 31
0.0
 11
308.782227
 21
227.948704
 31
0.0
 11
308.715625
 21
227.947709
 31
0.0
  0
LINE
  5
26e
100
AcDbEntity
  8
0
 62
7
100
AcDbLine
 10
40.993650
 20
183.894161
 30
0.0
 11
41.085940
 21
184.371701
 31
0.0
  0
SPLINE
  5
26f
100
AcDbEntity
  8
0
 62
7
100
AcDbSpline
 70
0
 71
3
 72
10
 73
6
 74
4
 40
0.000000
 40
0.000000
 40
0.000000
 40
0.000000
 40
7.698453
 40
15.398906
 40
23.100970
 40
23.100970
 40
23.100970
 40
23.100970
 10
18.871580
 20
190.529901
 30
0.0
 10
21.305843
 20
189.717548
 30
0.0
 10
26.175000
 20
188.092630
 30
0.0
 10
33.551291
 20
185.876435
 30
0.0
 10
38.512691
 20
184.554965
 30
0.0
 10
40.993650
 20
183.894161
 30
0.0
 11
18.871580
 21
190.529901
 31
0.0
 11
26.186318
 21
188.129737
 31
0.0
 11
33.561594
 21
185.915625
 31
0.0
 11
40.993650
 21
183.894161
 31
0.0
  0
LINE
  5
270
100
AcDbEntity
  8
0
 62
7
100
AcDbLine
 10
41.085940
 20
184.372701
 30
0.0
 11
41.437502
 21
185.817001
 31
0.0
  0
SPLINE
  5
271
100
AcDbEntity
  8
0
 62
7
100
AcDbSpline
 70
0
 71
3
 72
10
 73
6
 74
4
 40
0.000000
 40
0.000000
 40
0.000000
 40
0.000000
 40
0.000333
 40
0.000667
 40
0.001000
 40
0.001000
 40
0.001000
 40
0.001000
 10
41.085940
 20
184.371701
 30
0.0
 10
41.085941
 20
184.371812
 30
0.0
 10
41.085943
 20
184.372034
 30
0.0
 10
41.085943
 20
184.372368
 30
0.0
 10
41.085941
 20
184.372590
 30
0.0
 10
41.085940
 20
184.372701
 30
0.0
 11
41.085940
 21
184.371701
 31
0.0
 11
41.085942
 21
184.372034
 31
0.0
 11
41.085942
 21
184.372368
 31
0.0
 11
41.085940
 21
184.372701
 31
0.0
  0
LINE
  5
272
100
AcDbEntity
  8
0
 62
7
100
AcDbLine
 10
19.517582
 20
192.420521
 30
0.0
 11
18.572753
 21
192.744751
 31
0.0
  0
LINE
  5
273
100
AcDbEntity
  8
0
 62
7
100
AcDbLine
 10
354.036603
 20
167.723752
 30
0.0
 11
354.385233
 21
165.261352
 31
0.0
  0
LINE
  5
274
100
AcDbEntity
  8
0
 62
7
100
AcDbLine
 10
354.385233
 20
165.261352
 30
0.0
 11
354.625463
 21
165.130982
 31
0.0
  0
LINE
  5
275
100
AcDbEntity
  8
0
 62
7
100
AcDbLine
 10
354.625463
 20
165.130982
 30
0.0
 11
355.291973
 21
164.772092
 31
0.0
  0
LINE
  5
276
100
AcDbEntity
  8
0
 62
7
100
AcDbLine
 10
355.291973
 20
164.772092
 30
0.0
 11
356.797833
 21
163.942992
 31
0.0
  0
LINE
  5
277
100
AcDbEntity
  8
0
 62
7
100
AcDbLine
 10
356.797833
 20
163.942992
 30
0.0
 11
357.386692
 21
163.622192
 31
0.0
  0
LINE
  5
278
100
AcDbEntity
  8
0
 62
7
100
AcDbLine
 10
357.386692
 20
163.622192
 30
0.0
 11
359.041972
 21
162.703732
 31
0.0
  0
LINE
  5
279
100
AcDbEntity
  8
0
 62
7
100
AcDbLine
 10
359.041972
 20
162.703732
 30
0.0
 11
359.551732
 21
162.422482
 31
0.0
  0
LINE
  5
27a
100
AcDbEntity
  8
0
 62
7
100
AcDbLine
 10
359.551732
 20
162.422482
 30
0.0
 11
361.359352
 21
161.407342
 31
0.0
  0
LINE
  5
27b
100
AcDbEntity
  8
0
 62
7
100
AcDbLine
 10
361.359352
 20
161.407342
 30
0.0
 11
361.787082
 21
161.167112
 31
0.0
  0
LINE
  5
27c
100
AcDbEntity
  8
0
 62
7
100
AcDbLine
 10
361.787082
 20
161.167112
 30
0.0
 11
363.751442
 21
160.053832
 31
0.0
  0
LINE
  5
27d
100
AcDbEntity
  8
0
 62
7
100
AcDbLine
 10
363.751442
 20
160.053832
 30
0.0
 11
364.100082
 21
159.857542
 31
0.0
  0
LINE
  5
27e
100
AcDbEntity
  8
0
 62
7
100
AcDbLine
 10
364.100082
 20
159.857542
 30
0.0
 11
366.225562
 21
158.641722
 31
0.0
  0
LINE
  5
27f
100
AcDbEntity
  8
0
 62
7
100
AcDbLine
 10
366.225562
 20
158.641722
 30
0.0
 11
366.486312
 21
158.490842
 31
0.0
  0
LINE
  5
280
100
AcDbEntity
  8
0
 62
7
100
AcDbLine
 10
366.486312
 20
158.490842
 30
0.0
 11
368.780252
 21
157.166622
 31
0.0
  0
LINE
  5
281
100
AcDbEntity
  8
0
 62
7
100
AcDbLine
 10
368.780252
 20
157.166622
 30
0.0
 11
368.956032
 21
157.065552
 31
0.0
  0
LINE
  5
282
100
AcDbEntity
  8
0
 62
7
100
AcDbLine
 10
368.956032
 20
157.065552
 30
0.0
 11
371.416972
 21
155.628542
 31
0.0
  0
LINE
  5
283
100
AcDbEntity
  8
0
 62
7
100
AcDbLine
 10
371.416972
 20
155.628542
 30
0.0
 11
371.504872
 21
155.577242
 31
0.0
  0
LINE
  5
284
100
AcDbEntity
  8
0
 62
7
100
AcDbLine
 10
371.504872
 20
155.577242
 30
0.0
 11
374.141592
 21
154.025972
 31
0.0
  0
LINE
  5
285
100
AcDbEntity
  8
0
 62
7
100
AcDbLine
 10
374.141592
 20
154.025972
 30
0.0
 11
374.144592
 21
154.022972
 31
0.0
  0
LINE
  5
286
100
AcDbEntity
  8
0
 62
7
100
AcDbLine
 10
374.144592
 20
154.022972
 30
0.0
 11
376.010802
 21
152.915553
 31
0.0
  0
LINE
  5
287
100
AcDbEntity
  8
0
 62
7
100
AcDbLine
 10
376.010802
 20
152.915553
 30
0.0
 11
376.287652
 21
152.750033
 31
0.0
  0
LINE
  5
288
100
AcDbEntity
  8
0
 62
7
100
AcDbLine
 10
376.287652
 20
152.750033
 30
0.0
 11
376.869192
 21
152.404323
 31
0.0
  0
LINE
  5
289
100
AcDbEntity
  8
0
 62
7
100
AcDbLine
 10
376.869192
 20
152.404323
 30
0.0
 11
376.962892
 21
152.350123
 31
0.0
  0
SPLINE
  5
28a
100
AcDbEntity
  8
0
 62
7
100
AcDbSpline
 70
0
 71
3
 72
10
 73
6
 74
4
 40
0.000000
 40
0.000000
 40
0.000000
 40
0.000000
 40
7.630937
 40
15.263848
 40
22.897821
 40
22.897821
 40
22.897821
 40
22.897821
 10
41.437502
 20
185.817001
 30
0.0
 10
38.980632
 20
186.476113
 30
0.0
 10
34.066258
 20
187.794508
 30
0.0
 10
26.758040
 20
190.001587
 30
0.0
 10
21.931180
 20
191.614172
 30
0.0
 10
19.517582
 20
192.420521
 30
0.0
 11
41.437502
 21
185.817001
 31
0.0
 11
34.077557
 21
187.832542
 31
0.0
 11
26.769831
 21
190.036739
 31
0.0
 11
19.517582
 21
192.420521
 31
0.0
  0
LINE
  5
28b
100
AcDbEntity
  8
0
 62
7
100
AcDbLine
 10
377.985431
 20
154.068382
 30
0.0
 11
377.891731
 21
154.125582
 31
0.0
  0
LINE
  5
28c
100
AcDbEntity
  8
0
 62
7
100
AcDbLine
 10
377.891731
 20
154.125582
 30
0.0
 11
377.030402
 21
154.635352
 31
0.0
  0
SPLINE
  5
28d
100
AcDbEntity
  8
0
 62
7
100
AcDbSpline
 70
0
 71
3
 72
16
 73
12
 74
10
 40
0.000000
 40
0.000000
 40
0.000000
 40
0.000000
 40
0.000778
 40
0.002222
 40
0.003000
 40
0.510266
 40
1.003249
 40
1.510514
 40
2.017780
 40
2.510763
 40
3.018029
 40
3.018029
 40
3.018029
 40
3.018029
 10
376.962892
 20
152.350123
 30
0.0
 10
376.963151
 20
152.350123
 30
0.0
 10
376.963892
 20
152.350123
 30
0.0
 10
376.964892
 20
152.350122
 30
0.0
 10
377.134727
 20
152.350183
 30
0.0
 10
377.447748
 20
152.153835
 30
0.0
 10
377.962131
 20
152.340907
 30
0.0
 10
378.333511
 20
152.698212
 30
0.0
 10
378.476810
 20
153.202919
 30
0.0
 10
378.367286
 20
153.724662
 30
0.0
 10
378.113922
 20
153.952723
 30
0.0
 10
377.985431
 20
154.068382
 30
0.0
 11
376.962892
 21
152.350123
 31
0.0
 11
376.963669
 21
152.350123
 31
0.0
 11
376.965114
 21
152.350123
 31
0.0
 11
376.965892
 21
152.350123
 31
0.0
 11
377.459549
 21
152.233417
 31
0.0
 11
377.934209
 21
152.366571
 31
0.0
 11
378.295137
 21
152.723012
 31
0.0
 11
378.435024
 21
153.210608
 31
0.0
 11
378.324431
 21
153.691026
 31
0.0
 11
377.985431
 21
154.068382
 31
0.0
  0
LINE
  5
28e
100
AcDbEntity
  8
0
 62
7
100
AcDbLine
 10
375.158262
 20
155.745702
 30
0.0
 11
375.139262
 21
155.757402
 31
0.0
  0
LINE
  5
28f
100
AcDbEntity
  8
0
 62
7
100
AcDbLine
 10
375.139262
 20
155.757402
 30
0.0
 11
372.518652
 21
157.301352
 31
0.0
  0
SPLINE
  5
290
100
AcDbEntity
  8
0
 62
7
100
AcDbSpline
 70
0
 71
3
 72
13
 73
9
 74
7
 40
0.000000
 40
0.000000
 40
0.000000
 40
0.000000
 40
0.563647
 40
1.610419
 40
2.174066
 40
2.175066
 40
2.176066
 40
2.177066
 40
2.177066
 40
2.177066
 40
2.177066
 10
377.030402
 20
154.635352
 30
0.0
 10
376.869798
 20
154.734677
 30
0.0
 10
376.410931
 20
155.018461
 30
0.0
 10
375.760808
 20
155.290212
 30
0.0
 10
375.348843
 20
155.745597
 30
0.0
 10
375.160262
 20
155.745703
 30
0.0
 10
375.159262
 20
155.745704
 30
0.0
 10
375.158595
 20
155.745703
 30
0.0
 10
375.158262
 20
155.745702
 30
0.0
 11
377.030402
 21
154.635352
 31
0.0
 11
376.545810
 21
154.923221
 31
0.0
 11
375.645853
 21
155.457834
 31
0.0
 11
375.161262
 21
155.745702
 31
0.0
 11
375.160262
 21
155.745703
 31
0.0
 11
375.159262
 21
155.745703
 31
0.0
 11
375.158262
 21
155.745702
 31
0.0
  0
LINE
  5
291
100
AcDbEntity
  8
0
 62
7
100
AcDbLine
 10
372.515652
 20
157.302352
 30
0.0
 11
372.426352
 21
157.355052
 31
0.0
  0
SPLINE
  5
292
100
AcDbEntity
  8
0
 62
7
100
AcDbSpline
 70
0
 71
3
 72
10
 73
6
 74
4
 40
0.000000
 40
0.000000
 40
0.000000
 40
0.000000
 40
0.001054
 40
0.002108
 40
0.003162
 40
0.003162
 40
0.003162
 40
0.003162
 10
372.518652
 20
157.301352
 30
0.0
 10
372.518319
 20
157.301464
 30
0.0
 10
372.517652
 20
157.301687
 30
0.0
 10
372.516652
 20
157.302020
 30
0.0
 10
372.515985
 20
157.302242
 30
0.0
 10
372.515652
 20
157.302352
 30
0.0
 11
372.518652
 21
157.301352
 31
0.0
 11
372.517652
 21
157.301687
 31
0.0
 11
372.516652
 21
157.302020
 31
0.0
 11
372.515652
 21
157.302352
 31
0.0
  0
LINE
  5
293
100
AcDbEntity
  8
0
 62
7
100
AcDbLine
 10
369.956022
 20
158.795072
 30
0.0
 11
369.778772
 21
158.897612
 31
0.0
  0
SPLINE
  5
294
100
AcDbEntity
  8
0
 62
7
100
AcDbSpline
 70
0
 71
3
 72
13
 73
9
 74
7
 40
0.000000
 40
0.000000
 40
0.000000
 40
0.000000
 40
0.739815
 40
2.113758
 40
2.853573
 40
2.855516
 40
2.857460
 40
2.859404
 40
2.859404
 40
2.859404
 40
2.859404
 10
372.426352
 20
157.355052
 30
0.0
 10
372.213232
 20
157.479127
 30
0.0
 10
371.604319
 20
157.833627
 30
0.0
 10
370.784480
 20
158.315902
 30
0.0
 10
370.171629
 20
158.665031
 30
0.0
 10
369.959358
 20
158.793076
 30
0.0
 10
369.957691
 20
158.794076
 30
0.0
 10
369.956578
 20
158.794740
 30
0.0
 10
369.956022
 20
158.795072
 30
0.0
 11
372.426352
 21
157.355052
 31
0.0
 11
371.787192
 21
157.727613
 31
0.0
 11
370.600181
 21
158.419511
 31
0.0
 11
369.961022
 21
158.792072
 31
0.0
 11
369.959357
 21
158.793075
 31
0.0
 11
369.957690
 21
158.794075
 31
0.0
 11
369.956022
 21
158.795072
 31
0.0
  0
LINE
  5
295
100
AcDbEntity
  8
0
 62
7
100
AcDbLine
 10
367.481292
 20
160.224832
 30
0.0
 11
367.217622
 21
160.377182
 31
0.0
  0
SPLINE
  5
296
100
AcDbEntity
  8
0
 62
7
100
AcDbSpline
 70
0
 71
3
 72
13
 73
9
 74
7
 40
0.000000
 40
0.000000
 40
0.000000
 40
0.000000
 40
0.686377
 40
1.961078
 40
2.647456
 40
2.649400
 40
2.651343
 40
2.653287
 40
2.653287
 40
2.653287
 40
2.653287
 10
369.778772
 20
158.897612
 30
0.0
 10
369.580579
 20
159.011920
 30
0.0
 10
369.014313
 20
159.338513
 30
0.0
 10
368.252414
 20
159.783750
 30
0.0
 10
367.681646
 20
160.103989
 30
0.0
 10
367.484628
 20
160.222836
 30
0.0
 10
367.482961
 20
160.223836
 30
0.0
 10
367.481848
 20
160.224500
 30
0.0
 10
367.481292
 20
160.224832
 30
0.0
 11
369.778772
 21
158.897612
 31
0.0
 11
369.184425
 21
159.240928
 31
0.0
 11
368.080639
 21
159.878516
 31
0.0
 11
367.486292
 21
160.221832
 31
0.0
 11
367.484627
 21
160.222835
 31
0.0
 11
367.482961
 21
160.223835
 31
0.0
 11
367.481292
 21
160.224832
 31
0.0
  0
LINE
  5
297
100
AcDbEntity
  8
0
 62
7
100
AcDbLine
 10
365.086202
 20
161.596462
 30
0.0
 11
364.737572
 21
161.794212
 31
0.0
  0
SPLINE
  5
298
100
AcDbEntity
  8
0
 62
7
100
AcDbSpline
 70
0
 71
3
 72
13
 73
9
 74
7
 40
0.000000
 40
0.000000
 40
0.000000
 40
0.000000
 40
0.635685
 40
1.816242
 40
2.451926
 40
2.453128
 40
2.454330
 40
2.455532
 40
2.455532
 40
2.455532
 40
2.455532
 10
367.217622
 20
160.377182
 30
0.0
 10
367.033410
 20
160.481936
 30
0.0
 10
366.507090
 20
160.781233
 30
0.0
 10
365.805631
 20
161.199933
 30
0.0
 10
365.264996
 20
161.476876
 30
0.0
 10
365.088203
 20
161.595130
 30
0.0
 10
365.087203
 20
161.595797
 30
0.0
 10
365.086536
 20
161.596240
 30
0.0
 10
365.086202
 20
161.596462
 30
0.0
 11
367.217622
 21
160.377182
 31
0.0
 11
366.665809
 21
160.692773
 31
0.0
 11
365.641015
 21
161.278871
 31
0.0
 11
365.089202
 21
161.594462
 31
0.0
 11
365.088203
 21
161.595130
 31
0.0
 11
365.087203
 21
161.595797
 31
0.0
 11
365.086202
 21
161.596462
 31
0.0
  0
LINE
  5
299
100
AcDbEntity
  8
0
 62
7
100
AcDbLine
 10
362.765282
 20
162.909962
 30
0.0
 11
362.336092
 21
163.153122
 31
0.0
  0
LINE
  5
29a
100
AcDbEntity
  8
0
 62
7
100
AcDbLine
 10
362.336092
 20
163.153122
 30
0.0
 11
360.525542
 21
164.166792
 31
0.0
  0
SPLINE
  5
29b
100
AcDbEntity
  8
0
 62
7
100
AcDbSpline
 70
0
 71
3
 72
13
 73
9
 74
7
 40
0.000000
 40
0.000000
 40
0.000000
 40
0.000000
 40
0.586230
 40
1.674942
 40
2.261172
 40
2.262871
 40
2.264571
 40
2.266271
 40
2.266271
 40
2.266271
 40
2.266271
 10
364.737572
 20
161.794212
 30
0.0
 10
364.568316
 20
161.892574
 30
0.0
 10
364.084727
 20
162.173607
 30
0.0
 10
363.406871
 20
162.486046
 30
0.0
 10
362.961307
 20
162.870478
 30
0.0
 10
362.768616
 20
162.909299
 30
0.0
 10
362.766950
 20
162.909632
 30
0.0
 10
362.765838
 20
162.909852
 30
0.0
 10
362.765282
 20
162.909962
 30
0.0
 11
364.737572
 21
161.794212
 31
0.0
 11
364.227534
 21
162.083221
 31
0.0
 11
363.280320
 21
162.619953
 31
0.0
 11
362.770282
 21
162.908962
 31
0.0
 11
362.768616
 21
162.909298
 31
0.0
 11
362.766949
 21
162.909632
 31
0.0
 11
362.765282
 21
162.909962
 31
0.0
  0
LINE
  5
29c
100
AcDbEntity
  8
0
 62
7
100
AcDbLine
 10
360.520542
 20
164.167792
 30
0.0
 11
360.009302
 21
164.453442
 31
0.0
  0
LINE
  5
29d
100
AcDbEntity
  8
0
 62
7
100
AcDbLine
 10
360.009302
 20
164.453442
 30
0.0
 11
358.351102
 21
165.370432
 31
0.0
  0
SPLINE
  5
29e
100
AcDbEntity
  8
0
 62
7
100
AcDbSpline
 70
0
 71
3
 72
10
 73
6
 74
4
 40
0.000000
 40
0.000000
 40
0.000000
 40
0.000000
 40
0.001700
 40
0.003399
 40
0.005099
 40
0.005099
 40
0.005099
 40
0.005099
 10
360.525542
 20
164.166792
 30
0.0
 10
360.524987
 20
164.166904
 30
0.0
 10
360.523876
 20
164.167129
 30
0.0
 10
360.522210
 20
164.167462
 30
0.0
 10
360.521098
 20
164.167682
 30
0.0
 10
360.520542
 20
164.167792
 30
0.0
 11
360.525542
 21
164.166792
 31
0.0
 11
360.523876
 21
164.167128
 31
0.0
 11
360.522210
 21
164.167461
 31
0.0
 11
360.520542
 21
164.167792
 31
0.0
  0
LINE
  5
29f
100
AcDbEntity
  8
0
 62
7
100
AcDbLine
 10
358.346102
 20
165.374432
 30
0.0
 11
357.757842
 21
165.696422
 31
0.0
  0
LINE
  5
2a0
100
AcDbEntity
  8
0
 62
7
100
AcDbLine
 10
357.757842
 20
165.696422
 30
0.0
 11
356.247593
 21
166.524062
 31
0.0
  0
SPLINE
  5
2a1
100
AcDbEntity
  8
0
 62
7
100
AcDbSpline
 70
0
 71
3
 72
10
 73
6
 74
4
 40
0.000000
 40
0.000000
 40
0.000000
 40
0.000000
 40
0.002134
 40
0.004269
 40
0.006403
 40
0.006403
 40
0.006403
 40
0.006403
 10
358.351102
 20
165.370432
 30
0.0
 10
358.350548
 20
165.370878
 30
0.0
 10
358.349439
 20
165.371769
 30
0.0
 10
358.347773
 20
165.373103
 30
0.0
 10
358.346659
 20
165.373989
 30
0.0
 10
358.346102
 20
165.374432
 30
0.0
 11
358.351102
 21
165.370432
 31
0.0
 11
358.349439
 21
165.371769
 31
0.0
 11
358.347772
 21
165.373102
 31
0.0
 11
358.346102
 21
165.374432
 31
0.0
  0
LINE
  5
2a2
100
AcDbEntity
  8
0
 62
7
100
AcDbLine
 10
356.242593
 20
166.527062
 30
0.0
 11
355.573153
 21
166.890332
 31
0.0
  0
LINE
  5
2a3
100
AcDbEntity
  8
0
 62
7
100
AcDbLine
 10
355.573153
 20
166.890332
 30
0.0
 11
354.209383
 21
167.628622
 31
0.0
  0
SPLINE
  5
2a4
100
AcDbEntity
  8
0
 62
7
100
AcDbSpline
 70
0
 71
3
 72
10
 73
6
 74
4
 40
0.000000
 40
0.000000
 40
0.000000
 40
0.000000
 40
0.001944
 40
0.003887
 40
0.005831
 40
0.005831
 40
0.005831
 40
0.005831
 10
356.247593
 20
166.524062
 30
0.0
 10
356.247038
 20
166.524396
 30
0.0
 10
356.245928
 20
166.525066
 30
0.0
 10
356.244262
 20
166.526066
 30
0.0
 10
356.243149
 20
166.526730
 30
0.0
 10
356.242593
 20
166.527062
 30
0.0
 11
356.247593
 21
166.524062
 31
0.0
 11
356.245928
 21
166.525065
 31
0.0
 11
356.244261
 21
166.526065
 31
0.0
 11
356.242593
 21
166.527062
 31
0.0
  0
LINE
  5
2a5
100
AcDbEntity
  8
0
 62
7
100
AcDbLine
 10
354.204383
 20
167.629622
 30
0.0
 11
354.036603
 21
167.723752
 31
0.0
  0
LINE
  5
2a6
100
AcDbEntity
  8
0
 62
7
100
AcDbLine
 10
335.186994
 20
117.482544
 30
0.0
 11
335.186994
 21
117.481544
 31
0.0
  0
SPLINE
  5
2a7
100
AcDbEntity
  8
0
 62
7
100
AcDbSpline
 70
0
 71
3
 72
10
 73
6
 74
4
 40
0.000000
 40
0.000000
 40
0.000000
 40
0.000000
 40
0.001700
 40
0.003399
 40
0.005099
 40
0.005099
 40
0.005099
 40
0.005099
 10
354.209383
 20
167.628622
 30
0.0
 10
354.208827
 20
167.628734
 30
0.0
 10
354.207717
 20
167.628959
 30
0.0
 10
354.206050
 20
167.629292
 30
0.0
 10
354.204938
 20
167.629512
 30
0.0
 10
354.204383
 20
167.629622
 30
0.0
 11
354.209383
 21
167.628622
 31
0.0
 11
354.207717
 21
167.628958
 31
0.0
 11
354.206050
 21
167.629291
 31
0.0
 11
354.204383
 21
167.629622
 31
0.0
  0
LINE
  5
2a8
100
AcDbEntity
  8
0
 62
7
100
AcDbLine
 10
334.539524
 20
115.728134
 30
0.0
 11
334.687484
 21
115.600694
 31
0.0
  0
LINE
  5
2a9
100
AcDbEntity
  8
0
 62
7
100
AcDbLine
 10
334.687484
 20
115.600694
 30
0.0
 11
335.449194
 21
114.954694
 31
0.0
  0
LINE
  5
2aa
100
AcDbEntity
  8
0
 62
7
100
AcDbLine
 10
335.449194
 20
114.954694
 30
0.0
 11
335.777324
 21
114.674914
 31
0.0
  0
SPLINE
  5
2ab
100
AcDbEntity
  8
0
 62
7
100
AcDbSpline
 70
0
 71
3
 72
13
 73
9
 74
7
 40
0.000000
 40
0.000000
 40
0.000000
 40
0.000000
 40
0.402095
 40
0.796708
 40
1.198803
 40
1.600898
 40
1.995510
 40
2.397605
 40
2.397605
 40
2.397605
 40
2.397605
 10
335.186994
 20
117.481544
 30
0.0
 10
335.052217
 20
117.464185
 30
0.0
 10
334.785173
 20
117.429788
 30
0.0
 10
334.450029
 20
117.184466
 30
0.0
 10
334.232774
 20
116.837654
 30
0.0
 10
334.172495
 20
116.432877
 30
0.0
 10
334.267771
 20
116.028616
 30
0.0
 10
334.448374
 20
115.828920
 30
0.0
 10
334.539524
 20
115.728134
 30
0.0
 11
335.186994
 21
117.481544
 31
0.0
 11
334.793952
 21
117.396698
 31
0.0
 11
334.471342
 21
117.169450
 31
0.0
 11
334.259100
 21
116.827933
 31
0.0
 11
334.198452
 21
116.430438
 31
0.0
 11
334.295949
 21
116.048060
 31
0.0
 11
334.539524
 21
115.728134
 31
0.0
  0
LINE
  5
2ac
100
AcDbEntity
  8
0
 62
7
100
AcDbLine
 10
335.789024
 20
114.664614
 30
0.0
 11
335.812424
 21
114.645614
 31
0.0
  0
LINE
  5
2ad
100
AcDbEntity
  8
0
 62
7
100
AcDbLine
 10
335.812424
 20
114.645614
 30
0.0
 11
335.817424
 21
114.640614
 31
0.0
  0
SPLINE
  5
2ae
100
AcDbEntity
  8
0
 62
7
100
AcDbSpline
 70
0
 71
3
 72
10
 73
6
 74
4
 40
0.000000
 40
0.000000
 40
0.000000
 40
0.000000
 40
0.005196
 40
0.010392
 40
0.015588
 40
0.015588
 40
0.015588
 40
0.015588
 10
335.777324
 20
114.674914
 30
0.0
 10
335.778616
 20
114.673762
 30
0.0
 10
335.781202
 20
114.671457
 30
0.0
 10
335.785102
 20
114.668023
 30
0.0
 10
335.787716
 20
114.665751
 30
0.0
 10
335.789024
 20
114.664614
 30
0.0
 11
335.777324
 21
114.674914
 31
0.0
 11
335.781206
 21
114.671461
 31
0.0
 11
335.785106
 21
114.668027
 31
0.0
 11
335.789024
 21
114.664614
 31
0.0
  0
LINE
  5
2af
100
AcDbEntity
  8
0
 62
7
100
AcDbLine
 10
335.832024
 20
114.628914
 30
0.0
 11
336.995113
 21
113.628434
 31
0.0
  0
LINE
  5
2b0
100
AcDbEntity
  8
0
 62
7
100
AcDbLine
 10
336.995113
 20
113.628434
 30
0.0
 11
337.097653
 21
113.539034
 31
0.0
  0
LINE
  5
2b1
100
AcDbEntity
  8
0
 62
7
100
AcDbLine
 10
337.097653
 20
113.539034
 30
0.0
 11
338.231443
 21
112.557584
 31
0.0
  0
LINE
  5
2b2
100
AcDbEntity
  8
0
 62
7
100
AcDbLine
 10
338.231443
 20
112.557584
 30
0.0
 11
338.462883
 21
112.353974
 31
0.0
  0
LINE
  5
2b3
100
AcDbEntity
  8
0
 62
7
100
AcDbLine
 10
338.462883
 20
112.353974
 30
0.0
 11
339.523433
 21
111.422335
 31
0.0
  0
LINE
  5
2b4
100
AcDbEntity
  8
0
 62
7
100
AcDbLine
 10
339.523433
 20
111.422335
 30
0.0
 11
339.885253
 21
111.103005
 31
0.0
  0
LINE
  5
2b5
100
AcDbEntity
  8
0
 62
7
100
AcDbLine
 10
339.885253
 20
111.103005
 30
0.0
 11
340.875483
 21
110.227025
 31
0.0
  0
LINE
  5
2b6
100
AcDbEntity
  8
0
 62
7
100
AcDbLine
 10
340.875483
 20
110.227025
 30
0.0
 11
341.367673
 21
109.787565
 31
0.0
  0
LINE
  5
2b7
100
AcDbEntity
  8
0
 62
7
100
AcDbLine
 10
341.367673
 20
109.787565
 30
0.0
 11
342.286123
 21
108.967255
 31
0.0
  0
LINE
  5
2b8
100
AcDbEntity
  8
0
 62
7
100
AcDbLine
 10
342.286123
 20
108.967255
 30
0.0
 11
342.910153
 21
108.404755
 31
0.0
  0
LINE
  5
2b9
100
AcDbEntity
  8
0
 62
7
100
AcDbLine
 10
342.910153
 20
108.404755
 30
0.0
 11
343.758293
 21
107.640105
 31
0.0
  0
LINE
  5
2ba
100
AcDbEntity
  8
0
 62
7
100
AcDbLine
 10
343.758293
 20
107.640105
 30
0.0
 11
344.515623
 21
106.951635
 31
0.0
  0
LINE
  5
2bb
100
AcDbEntity
  8
0
 62
7
100
AcDbLine
 10
344.515623
 20
106.951635
 30
0.0
 11
345.291983
 21
106.248505
 31
0.0
  0
LINE
  5
2bc
100
AcDbEntity
  8
0
 62
7
100
AcDbLine
 10
345.291983
 20
106.248505
 30
0.0
 11
346.185543
 21
105.426735
 31
0.0
  0
LINE
  5
2bd
100
AcDbEntity
  8
0
 62
7
100
AcDbLine
 10
346.185543
 20
105.426735
 30
0.0
 11
346.887193
 21
104.783665
 31
0.0
  0
LINE
  5
2be
100
AcDbEntity
  8
0
 62
7
100
AcDbLine
 10
346.887193
 20
104.783665
 30
0.0
 11
347.922843
 21
103.827125
 31
0.0
  0
LINE
  5
2bf
100
AcDbEntity
  8
0
 62
7
100
AcDbLine
 10
347.922843
 20
103.827125
 30
0.0
 11
348.549793
 21
103.247045
 31
0.0
  0
LINE
  5
2c0
100
AcDbEntity
  8
0
 62
7
100
AcDbLine
 10
348.549793
 20
103.247045
 30
0.0
 11
348.992183
 21
102.833955
 31
0.0
  0
LINE
  5
2c1
100
AcDbEntity
  8
0
 62
7
100
AcDbLine
 10
348.992183
 20
102.833955
 30
0.0
 11
349.617673
 21
104.984355
 31
0.0
  0
LINE
  5
2c2
100
AcDbEntity
  8
0
 62
7
100
AcDbLine
 10
349.617673
 20
104.984355
 30
0.0
 11
349.279293
 21
105.296355
 31
0.0
  0
LINE
  5
2c3
100
AcDbEntity
  8
0
 62
7
100
AcDbLine
 10
349.279293
 20
105.296355
 30
0.0
 11
348.242183
 21
106.254375
 31
0.0
  0
SPLINE
  5
2c4
100
AcDbEntity
  8
0
 62
7
100
AcDbSpline
 70
0
 71
3
 72
10
 73
6
 74
4
 40
0.000000
 40
0.000000
 40
0.000000
 40
0.000000
 40
0.006237
 40
0.012473
 40
0.018710
 40
0.018710
 40
0.018710
 40
0.018710
 10
335.817424
 20
114.640614
 30
0.0
 10
335.819036
 20
114.639302
 30
0.0
 10
335.822261
 20
114.636678
 30
0.0
 10
335.827128
 20
114.632778
 30
0.0
 10
335.830392
 20
114.630202
 30
0.0
 10
335.832024
 20
114.628914
 30
0.0
 11
335.817424
 21
114.640614
 31
0.0
 11
335.822266
 21
114.636684
 31
0.0
 11
335.827133
 21
114.632784
 31
0.0
 11
335.832024
 21
114.628914
 31
0.0
  0
LINE
  5
2c5
100
AcDbEntity
  8
0
 62
7
100
AcDbLine
 10
348.241183
 20
106.257375
 30
0.0
 11
347.538063
 21
106.901905
 31
0.0
  0
LINE
  5
2c6
100
AcDbEntity
  8
0
 62
7
100
AcDbLine
 10
347.538063
 20
106.901905
 30
0.0
 11
346.641573
 21
107.723685
 31
0.0
  0
SPLINE
  5
2c7
100
AcDbEntity
  8
0
 62
7
100
AcDbSpline
 70
0
 71
3
 72
10
 73
6
 74
4
 40
0.000000
 40
0.000000
 40
0.000000
 40
0.000000
 40
0.001054
 40
0.002108
 40
0.003162
 40
0.003162
 40
0.003162
 40
0.003162
 10
348.242183
 20
106.254375
 30
0.0
 10
348.242072
 20
106.254708
 30
0.0
 10
348.241851
 20
106.255375
 30
0.0
 10
348.241518
 20
106.256375
 30
0.0
 10
348.241294
 20
106.257042
 30
0.0
 10
348.241183
 20
106.257375
 30
0.0
 11
348.242183
 21
106.254375
 31
0.0
 11
348.241851
 21
106.255375
 31
0.0
 11
348.241517
 21
106.256375
 31
0.0
 11
348.241183
 21
106.257375
 31
0.0
  0
LINE
  5
2c8
100
AcDbEntity
  8
0
 62
7
100
AcDbLine
 10
346.636573
 20
107.728685
 30
0.0
 11
345.861673
 21
108.433265
 31
0.0
  0
LINE
  5
2c9
100
AcDbEntity
  8
0
 62
7
100
AcDbLine
 10
345.861673
 20
108.433265
 30
0.0
 11
345.101423
 21
109.124675
 31
0.0
  0
SPLINE
  5
2ca
100
AcDbEntity
  8
0
 62
7
100
AcDbSpline
 70
0
 71
3
 72
10
 73
6
 74
4
 40
0.000000
 40
0.000000
 40
0.000000
 40
0.000000
 40
0.002357
 40
0.004714
 40
0.007071
 40
0.007071
 40
0.007071
 40
0.007071
 10
346.641573
 20
107.723685
 30
0.0
 10
346.641019
 20
107.724242
 30
0.0
 10
346.639911
 20
107.725356
 30
0.0
 10
346.638244
 20
107.727023
 30
0.0
 10
346.637130
 20
107.728131
 30
0.0
 10
346.636573
 20
107.728685
 30
0.0
 11
346.641573
 21
107.723685
 31
0.0
 11
346.639910
 21
107.725355
 31
0.0
 11
346.638244
 21
107.727022
 31
0.0
 11
346.636573
 21
107.728685
 31
0.0
  0
LINE
  5
2cb
100
AcDbEntity
  8
0
 62
7
100
AcDbLine
 10
345.096423
 20
109.126675
 30
0.0
 11
344.246813
 21
109.891325
 31
0.0
  0
LINE
  5
2cc
100
AcDbEntity
  8
0
 62
7
100
AcDbLine
 10
344.246813
 20
109.891325
 30
0.0
 11
343.621323
 21
110.455285
 31
0.0
  0
SPLINE
  5
2cd
100
AcDbEntity
  8
0
 62
7
100
AcDbSpline
 70
0
 71
3
 72
10
 73
6
 74
4
 40
0.000000
 40
0.000000
 40
0.000000
 40
0.000000
 40
0.001795
 40
0.003590
 40
0.005385
 40
0.005385
 40
0.005385
 40
0.005385
 10
345.101423
 20
109.124675
 30
0.0
 10
345.100868
 20
109.124898
 30
0.0
 10
345.099758
 20
109.125345
 30
0.0
 10
345.098091
 20
109.126012
 30
0.0
 10
345.096979
 20
109.126454
 30
0.0
 10
345.096423
 20
109.126675
 30
0.0
 11
345.101423
 21
109.124675
 31
0.0
 11
345.099758
 21
109.125344
 31
0.0
 11
345.098091
 21
109.126011
 31
0.0
 11
345.096423
 21
109.126675
 31
0.0
  0
LINE
  5
2ce
100
AcDbEntity
  8
0
 62
7
100
AcDbLine
 10
343.618323
 20
110.459285
 30
0.0
 11
342.698403
 21
111.281075
 31
0.0
  0
SPLINE
  5
2cf
100
AcDbEntity
  8
0
 62
7
100
AcDbSpline
 70
0
 71
3
 72
10
 73
6
 74
4
 40
0.000000
 40
0.000000
 40
0.000000
 40
0.000000
 40
0.001667
 40
0.003333
 40
0.005000
 40
0.005000
 40
0.005000
 40
0.005000
 10
343.621323
 20
110.455285
 30
0.0
 10
343.620991
 20
110.455730
 30
0.0
 10
343.620326
 20
110.456620
 30
0.0
 10
343.619326
 20
110.457953
 30
0.0
 10
343.618657
 20
110.458841
 30
0.0
 10
343.618323
 20
110.459285
 30
0.0
 11
343.621323
 21
110.455285
 31
0.0
 11
343.620325
 21
110.456620
 31
0.0
 11
343.619325
 21
110.457953
 31
0.0
 11
343.618323
 21
110.459285
 31
0.0
  0
LINE
  5
2d0
100
AcDbEntity
  8
0
 62
7
100
AcDbLine
 10
342.201283
 20
111.725515
 30
0.0
 11
341.209593
 21
112.602964
 31
0.0
  0
LINE
  5
2d1
100
AcDbEntity
  8
0
 62
7
100
AcDbLine
 10
341.209593
 20
112.602964
 30
0.0
 11
340.846303
 21
112.925224
 31
0.0
  0
SPLINE
  5
2d2
100
AcDbEntity
  8
0
 62
7
100
AcDbSpline
 70
0
 71
3
 72
13
 73
9
 74
7
 40
0.000000
 40
0.000000
 40
0.000000
 40
0.000000
 40
0.171631
 40
0.490374
 40
0.662006
 40
0.663801
 40
0.665596
 40
0.667391
 40
0.667391
 40
0.667391
 40
0.667391
 10
342.698403
 20
111.281075
 30
0.0
 10
342.654859
 20
111.318521
 30
0.0
 10
342.530449
 20
111.425510
 30
0.0
 10
342.387476
 20
111.587467
 30
0.0
 10
342.224035
 20
111.667794
 30
0.0
 10
342.202621
 20
111.722183
 30
0.0
 10
342.201953
 20
111.723849
 30
0.0
 10
342.201507
 20
111.724959
 30
0.0
 10
342.201283
 20
111.725515
 30
0.0
 11
342.698403
 21
111.281075
 31
0.0
 11
342.570039
 21
111.395003
 31
0.0
 11
342.331648
 21
111.606586
 31
0.0
 11
342.203283
 21
111.720515
 31
0.0
 11
342.202620
 21
111.722182
 31
0.0
 11
342.201953
 21
111.723849
 31
0.0
 11
342.201283
 21
111.725515
 31
0.0
  0
LINE
  5
2d3
100
AcDbEntity
  8
0
 62
7
100
AcDbLine
 10
340.841303
 20
112.927224
 30
0.0
 11
339.779293
 21
113.860334
 31
0.0
  0
LINE
  5
2d4
100
AcDbEntity
  8
0
 62
7
100
AcDbLine
 10
339.779293
 20
113.860334
 30
0.0
 11
339.544923
 21
114.063944
 31
0.0
  0
SPLINE
  5
2d5
100
AcDbEntity
  8
0
 62
7
100
AcDbSpline
 70
0
 71
3
 72
10
 73
6
 74
4
 40
0.000000
 40
0.000000
 40
0.000000
 40
0.000000
 40
0.001795
 40
0.003590
 40
0.005385
 40
0.005385
 40
0.005385
 40
0.005385
 10
340.846303
 20
112.925224
 30
0.0
 10
340.845748
 20
112.925448
 30
0.0
 10
340.844638
 20
112.925895
 30
0.0
 10
340.842971
 20
112.926561
 30
0.0
 10
340.841859
 20
112.927003
 30
0.0
 10
340.841303
 20
112.927224
 30
0.0
 11
340.846303
 21
112.925224
 31
0.0
 11
340.844638
 21
112.925894
 31
0.0
 11
340.842971
 21
112.926561
 31
0.0
 11
340.841303
 21
112.927224
 31
0.0
  0
LINE
  5
2d6
100
AcDbEntity
  8
0
 62
7
100
AcDbLine
 10
339.539923
 20
114.068944
 30
0.0
 11
338.404663
 21
115.053314
 31
0.0
  0
LINE
  5
2d7
100
AcDbEntity
  8
0
 62
7
100
AcDbLine
 10
338.404663
 20
115.053314
 30
0.0
 11
338.299193
 21
115.144114
 31
0.0
  0
SPLINE
  5
2d8
100
AcDbEntity
  8
0
 62
7
100
AcDbSpline
 70
0
 71
3
 72
10
 73
6
 74
4
 40
0.000000
 40
0.000000
 40
0.000000
 40
0.000000
 40
0.002357
 40
0.004714
 40
0.007071
 40
0.007071
 40
0.007071
 40
0.007071
 10
339.544923
 20
114.063944
 30
0.0
 10
339.544369
 20
114.064502
 30
0.0
 10
339.543261
 20
114.065616
 30
0.0
 10
339.541595
 20
114.067282
 30
0.0
 10
339.540480
 20
114.068390
 30
0.0
 10
339.539923
 20
114.068944
 30
0.0
 11
339.544923
 21
114.063944
 31
0.0
 11
339.543261
 21
114.065615
 31
0.0
 11
339.541594
 21
114.067282
 31
0.0
 11
339.539923
 21
114.068944
 31
0.0
  0
LINE
  5
2d9
100
AcDbEntity
  8
0
 62
7
100
AcDbLine
 10
338.296193
 20
115.149114
 30
0.0
 11
337.121393
 21
116.156924
 31
0.0
  0
SPLINE
  5
2da
100
AcDbEntity
  8
0
 62
7
100
AcDbSpline
 70
0
 71
3
 72
10
 73
6
 74
4
 40
0.000000
 40
0.000000
 40
0.000000
 40
0.000000
 40
0.001944
 40
0.003887
 40
0.005831
 40
0.005831
 40
0.005831
 40
0.005831
 10
338.299193
 20
115.144114
 30
0.0
 10
338.298861
 20
115.144671
 30
0.0
 10
338.298197
 20
115.145783
 30
0.0
 10
338.297197
 20
115.147450
 30
0.0
 10
338.296528
 20
115.148560
 30
0.0
 10
338.296193
 20
115.149114
 30
0.0
 11
338.299193
 21
115.144114
 31
0.0
 11
338.298197
 21
115.145783
 31
0.0
 11
338.297197
 21
115.147450
 31
0.0
 11
338.296193
 21
115.149114
 31
0.0
  0
LINE
  5
2db
100
AcDbEntity
  8
0
 62
7
100
AcDbLine
 10
337.116393
 20
116.161924
 30
0.0
 11
337.113393
 21
116.164924
 31
0.0
  0
LINE
  5
2dc
100
AcDbEntity
  8
0
 62
7
100
AcDbLine
 10
337.113393
 20
116.164924
 30
0.0
 11
337.107393
 21
116.168924
 31
0.0
  0
LINE
  5
2dd
100
AcDbEntity
  8
0
 62
7
100
AcDbLine
 10
337.107393
 20
116.168924
 30
0.0
 11
337.089893
 21
116.185024
 31
0.0
  0
SPLINE
  5
2de
100
AcDbEntity
  8
0
 62
7
100
AcDbSpline
 70
0
 71
3
 72
10
 73
6
 74
4
 40
0.000000
 40
0.000000
 40
0.000000
 40
0.000000
 40
0.002357
 40
0.004714
 40
0.007071
 40
0.007071
 40
0.007071
 40
0.007071
 10
337.121393
 20
116.156924
 30
0.0
 10
337.120839
 20
116.157481
 30
0.0
 10
337.119732
 20
116.158596
 30
0.0
 10
337.118065
 20
116.160262
 30
0.0
 10
337.116951
 20
116.161370
 30
0.0
 10
337.116393
 20
116.161924
 30
0.0
 11
337.121393
 21
116.156924
 31
0.0
 11
337.119731
 21
116.158595
 31
0.0
 11
337.118064
 21
116.160262
 31
0.0
 11
337.116393
 21
116.161924
 31
0.0
  0
LINE
  5
2df
100
AcDbEntity
  8
0
 62
7
100
AcDbLine
 10
337.080893
 20
116.191024
 30
0.0
 11
336.739583
 21
116.479594
 31
0.0
  0
LINE
  5
2e0
100
AcDbEntity
  8
0
 62
7
100
AcDbLine
 10
336.739583
 20
116.479594
 30
0.0
 11
336.740583
 21
116.482594
 31
0.0
  0
LINE
  5
2e1
100
AcDbEntity
  8
0
 62
7
100
AcDbLine
 10
336.740583
 20
116.482594
 30
0.0
 11
335.978864
 21
117.128584
 31
0.0
  0
SPLINE
  5
2e2
100
AcDbEntity
  8
0
 62
7
100
AcDbSpline
 70
0
 71
3
 72
10
 73
6
 74
4
 40
0.000000
 40
0.000000
 40
0.000000
 40
0.000000
 40
0.003606
 40
0.007211
 40
0.010817
 40
0.010817
 40
0.010817
 40
0.010817
 10
337.089893
 20
116.185024
 30
0.0
 10
337.088896
 20
116.185695
 30
0.0
 10
337.086902
 20
116.187037
 30
0.0
 10
337.083902
 20
116.189037
 30
0.0
 10
337.081896
 20
116.190362
 30
0.0
 10
337.080893
 20
116.191024
 30
0.0
 11
337.089893
 21
116.185024
 31
0.0
 11
337.086901
 21
116.187035
 31
0.0
 11
337.083901
 21
116.189035
 31
0.0
 11
337.080893
 21
116.191024
 31
0.0
  0
LINE
  5
2e3
100
AcDbEntity
  8
0
 62
7
100
AcDbLine
 10
335.183454
 20
117.486004
 30
0.0
 11
335.186994
 21
117.482544
 31
0.0
  0
SPLINE
  5
2e4
100
AcDbEntity
  8
0
 62
7
100
AcDbSpline
 70
0
 71
3
 72
13
 73
9
 74
7
 40
0.000000
 40
0.000000
 40
0.000000
 40
0.000000
 40
0.050915
 40
0.145471
 40
0.196386
 40
0.429673
 40
0.661416
 40
0.894703
 40
0.894703
 40
0.894703
 40
0.894703
 10
335.978864
 20
117.128584
 30
0.0
 10
335.965957
 20
117.139605
 30
0.0
 10
335.929080
 20
117.171092
 30
0.0
 10
335.879098
 20
117.213363
 30
0.0
 10
335.783879
 20
117.296290
 30
0.0
 10
335.638133
 20
117.390216
 30
0.0
 10
335.416880
 20
117.472026
 30
0.0
 10
335.261435
 20
117.481334
 30
0.0
 10
335.183454
 20
117.486004
 30
0.0
 11
335.978864
 21
117.128584
 31
0.0
 11
335.940125
 21
117.161624
 31
0.0
 11
335.868182
 21
117.222984
 31
0.0
 11
335.829444
 21
117.256024
 31
0.0
 11
335.633676
 21
117.382902
 31
0.0
 11
335.415356
 21
117.460627
 31
0.0
 11
335.183454
 21
117.486004
 31
0.0
  0
LINE
  5
2e5
100
AcDbEntity
  8
0
 62
7
100
AcDbLine
 10
57.873002
 20
111.253825
 30
0.0
 11
57.862752
 21
111.252825
 31
0.0
  0
SPLINE
  5
2e6
100
AcDbEntity
  8
0
 62
7
100
AcDbSpline
 70
0
 71
3
 72
13
 73
9
 74
7
 40
0.000000
 40
0.000000
 40
0.000000
 40
0.000000
 40
0.037250
 40
0.074493
 40
0.111743
 40
0.113651
 40
0.115607
 40
0.117649
 40
0.117649
 40
0.117649
 40
0.117649
 10
57.990230
 20
111.262825
 30
0.0
 10
57.977824
 20
111.262350
 30
0.0
 10
57.953014
 20
111.261402
 30
0.0
 10
57.915818
 20
111.258815
 30
0.0
 10
57.890686
 20
111.254550
 30
0.0
 10
57.876978
 20
111.253702
 30
0.0
 10
57.875015
 20
111.253951
 30
0.0
 10
57.873683
 20
111.253867
 30
0.0
 10
57.873002
 20
111.253825
 30
0.0
 11
57.990230
 21
111.262825
 31
0.0
 11
57.953015
 21
111.261208
 31
0.0
 11
57.915893
 21
111.258207
 31
0.0
 11
57.878902
 21
111.253825
 31
0.0
 11
57.876995
 21
111.253762
 31
0.0
 11
57.875043
 21
111.253887
 31
0.0
 11
57.873002
 21
111.253825
 31
0.0
  0
LINE
  5
2e7
100
AcDbEntity
  8
0
 62
7
100
AcDbLine
 10
42.440878
 20
109.310435
 30
0.0
 11
42.915487
 21
107.362205
 31
0.0
  0
SPLINE
  5
2e8
100
AcDbEntity
  8
0
 62
7
100
AcDbSpline
 70
0
 71
3
 72
10
 73
6
 74
4
 40
0.000000
 40
0.000000
 40
0.000000
 40
0.000000
 40
5.180968
 40
10.362276
 40
15.544413
 40
15.544413
 40
15.544413
 40
15.544413
 10
57.862752
 20
111.252825
 30
0.0
 10
56.152537
 20
111.012585
 30
0.0
 10
52.731995
 20
110.532089
 30
0.0
 10
47.590453
 20
109.888198
 30
0.0
 10
44.157494
 20
109.503033
 30
0.0
 10
42.440878
 20
109.310435
 30
0.0
 11
57.862752
 21
111.252825
 31
0.0
 11
52.730374
 21
110.544920
 31
0.0
 11
47.589453
 21
109.899259
 31
0.0
 11
42.440878
 21
109.310435
 31
0.0
  0
LINE
  5
2e9
100
AcDbEntity
  8
0
 62
7
100
AcDbLine
 10
57.136189
 20
109.149305
 30
0.0
 11
57.140589
 21
109.121505
 31
0.0
  0
LINE
  5
2ea
100
AcDbEntity
  8
0
 62
7
100
AcDbLine
 10
57.140589
 20
109.121505
 30
0.0
 11
58.130823
 21
109.270915
 31
0.0
  0
LINE
  5
2eb
100
AcDbEntity
  8
0
 62
7
100
AcDbLine
 10
58.130823
 20
109.270915
 30
0.0
 11
58.164513
 21
109.276915
 31
0.0
  0
LINE
  5
2ec
100
AcDbEntity
  8
0
 62
7
100
AcDbLine
 10
58.164513
 20
109.276915
 30
0.0
 11
58.170413
 21
109.276915
 31
0.0
  0
SPLINE
  5
2ed
100
AcDbEntity
  8
0
 62
7
100
AcDbSpline
 70
0
 71
3
 72
10
 73
6
 74
4
 40
0.000000
 40
0.000000
 40
0.000000
 40
0.000000
 40
4.776963
 40
9.554563
 40
14.333060
 40
14.333060
 40
14.333060
 40
14.333060
 10
42.915487
 20
107.362205
 30
0.0
 10
44.497674
 20
107.541623
 30
0.0
 10
47.662259
 20
107.900482
 30
0.0
 10
52.403127
 20
108.493842
 30
0.0
 10
55.558403
 20
108.930803
 30
0.0
 10
57.136189
 20
109.149305
 30
0.0
 11
42.915487
 21
107.362205
 31
0.0
 11
47.660980
 21
107.909627
 31
0.0
 11
52.401445
 21
108.504142
 31
0.0
 11
57.136189
 21
109.149305
 31
0.0
  0
LINE
  5
2ee
100
AcDbEntity
  8
0
 62
7
100
AcDbLine
 10
57.990237
 20
111.263245
 30
0.0
 11
57.990230
 21
111.262825
 31
0.0
  0
LINE
  5
2ef
100
AcDbEntity
  8
0
 62
7
100
AcDbLine
 10
316.516094
 20
44.112928
 30
0.0
 11
316.294904
 21
43.849248
 31
0.0
  0
SPLINE
  5
2f0
100
AcDbEntity
  8
0
 62
7
100
AcDbSpline
 70
0
 71
3
 72
13
 73
9
 74
7
 40
0.000000
 40
0.000000
 40
0.000000
 40
0.000000
 40
0.497862
 40
0.982153
 40
1.480015
 40
1.977877
 40
2.462168
 40
2.960030
 40
2.960030
 40
2.960030
 40
2.960030
 10
58.170413
 20
109.276915
 30
0.0
 10
58.331682
 20
109.329126
 30
0.0
 10
58.649824
 20
109.432124
 30
0.0
 10
58.961026
 20
109.852298
 30
0.0
 10
59.044106
 20
110.357502
 30
0.0
 10
58.871478
 20
110.839512
 30
0.0
 10
58.489750
 20
111.196831
 30
0.0
 10
58.158268
 20
111.240904
 30
0.0
 10
57.990237
 20
111.263245
 30
0.0
 11
58.170413
 21
109.276915
 31
0.0
 11
58.625537
 21
109.478729
 31
0.0
 11
58.921365
 21
109.862165
 31
0.0
 11
59.001097
 21
110.353601
 31
0.0
 11
58.834240
 21
110.822670
 31
0.0
 11
58.474246
 21
111.146617
 31
0.0
 11
57.990237
 21
111.263245
 31
0.0
  0
LINE
  5
2f1
100
AcDbEntity
  8
0
 62
7
100
AcDbLine
 10
316.293904
 20
43.847248
 30
0.0
 11
315.116165
 21
42.572828
 31
0.0
  0
SPLINE
  5
2f2
100
AcDbEntity
  8
0
 62
7
100
AcDbSpline
 70
0
 71
3
 72
10
 73
6
 74
4
 40
0.000000
 40
0.000000
 40
0.000000
 40
0.000000
 40
0.000745
 40
0.001491
 40
0.002236
 40
0.002236
 40
0.002236
 40
0.002236
 10
316.294904
 20
43.849248
 30
0.0
 10
316.294789
 20
43.849028
 30
0.0
 10
316.294559
 20
43.848587
 30
0.0
 10
316.294226
 20
43.847920
 30
0.0
 10
316.294012
 20
43.847472
 30
0.0
 10
316.293904
 20
43.847248
 30
0.0
 11
316.294904
 21
43.849248
 31
0.0
 11
316.294561
 21
43.848586
 31
0.0
 11
316.294228
 21
43.847919
 31
0.0
 11
316.293904
 21
43.847248
 31
0.0
  0
LINE
  5
2f3
100
AcDbEntity
  8
0
 62
7
100
AcDbLine
 10
326.600544
 20
23.285239
 30
0.0
 11
326.647444
 21
23.204639
 31
0.0
  0
SPLINE
  5
2f4
100
AcDbEntity
  8
0
 62
7
100
AcDbSpline
 70
0
 71
3
 72
16
 73
12
 74
10
 40
0.000000
 40
0.000000
 40
0.000000
 40
0.000000
 40
7.204998
 40
14.409019
 40
21.610218
 40
21.688589
 40
21.791277
 40
21.892376
 40
22.072625
 40
22.255868
 40
22.448374
 40
22.448374
 40
22.448374
 40
22.448374
 10
315.116165
 20
42.572828
 30
0.0
 10
316.368089
 20
40.523245
 30
0.0
 10
318.871768
 20
36.424357
 30
0.0
 10
322.552289
 20
30.232073
 30
0.0
 10
324.994814
 20
26.067563
 30
0.0
 10
326.223308
 20
23.935401
 30
0.0
 10
326.270010
 20
23.853762
 30
0.0
 10
326.333854
 20
23.742807
 30
0.0
 10
326.411838
 20
23.609011
 30
0.0
 10
326.505407
 20
23.449032
 30
0.0
 10
326.568315
 20
23.340727
 30
0.0
 10
326.600544
 20
23.285239
 30
0.0
 11
315.116165
 21
42.572828
 31
0.0
 11
318.859530
 21
36.416595
 31
0.0
 11
322.546742
 21
30.227702
 31
0.0
 11
326.180134
 21
24.010329
 31
0.0
 11
326.219231
 21
23.942407
 31
0.0
 11
326.270310
 21
23.853324
 31
0.0
 11
326.320754
 21
23.765709
 31
0.0
 11
326.411374
 21
23.609896
 31
0.0
 11
326.503770
 21
23.451652
 31
0.0
 11
326.600544
 21
23.285239
 31
0.0
  0
LINE
  5
2f5
100
AcDbEntity
  8
0
 62
7
100
AcDbLine
 10
326.834174
 20
22.881709
 30
0.0
 11
326.836174
 21
22.880709
 31
0.0
  0
SPLINE
  5
2f6
100
AcDbEntity
  8
0
 62
7
100
AcDbSpline
 70
0
 71
3
 72
25
 73
21
 74
19
 40
0.000000
 40
0.000000
 40
0.000000
 40
0.000000
 40
0.103980
 40
0.199527
 40
0.276170
 40
0.308606
 40
0.333198
 40
0.351722
 40
0.355095
 40
0.359701
 40
0.363669
 40
0.365200
 40
0.366101
 40
0.367397
 40
0.368201
 40
0.369632
 40
0.370397
 40
0.371427
 40
0.372881
 40
0.374157
 40
0.374157
 40
0.374157
 40
0.374157
 10
326.647444
 20
23.204639
 30
0.0
 10
326.664677
 20
23.174566
 30
0.0
 10
326.697746
 20
23.116861
 30
0.0
 10
326.742799
 20
23.036581
 30
0.0
 10
326.775997
 20
22.976998
 30
0.0
 10
326.798937
 20
22.938778
 30
0.0
 10
326.812121
 20
22.917357
 30
0.0
 10
326.821109
 20
22.904624
 30
0.0
 10
326.824771
 20
22.896578
 30
0.0
 10
326.826570
 20
22.893021
 30
0.0
 10
326.829031
 20
22.890527
 30
0.0
 10
326.829583
 20
22.888462
 30
0.0
 10
326.830083
 20
22.887282
 30
0.0
 10
326.831362
 20
22.886981
 30
0.0
 10
326.831112
 20
22.885644
 30
0.0
 10
326.831313
 20
22.884753
 30
0.0
 10
326.830979
 20
22.883512
 30
0.0
 10
326.832312
 20
22.883210
 30
0.0
 10
326.833546
 20
22.882985
 30
0.0
 10
326.833974
 20
22.882115
 30
0.0
 10
326.834174
 20
22.881709
 30
0.0
 11
326.647444
 21
23.204639
 31
0.0
 11
326.699003
 21
23.114341
 31
0.0
 11
326.745835
 21
23.031060
 31
0.0
 11
326.783674
 21
22.964409
 31
0.0
 11
326.800337
 21
22.936579
 31
0.0
 11
326.813444
 21
22.915772
 31
0.0
 11
326.823174
 21
22.900009
 31
0.0
 11
326.824618
 21
22.896961
 31
0.0
 11
326.826896
 21
22.892957
 31
0.0
 11
326.829174
 21
22.889709
 31
0.0
 11
326.829684
 21
22.888264
 31
0.0
 11
326.830138
 21
22.887487
 31
0.0
 11
326.831174
 21
22.886709
 31
0.0
 11
326.831196
 21
22.885904
 31
0.0
 11
326.831198
 21
22.884473
 31
0.0
 11
326.831174
 21
22.883709
 31
0.0
 11
326.832103
 21
22.883264
 31
0.0
 11
326.833472
 21
22.882774
 31
0.0
 11
326.834174
 21
22.881709
 31
0.0
  0
LINE
  5
2f7
100
AcDbEntity
  8
0
 62
7
100
AcDbLine
 10
328.553684
 20
23.900589
 30
0.0
 11
328.530284
 21
23.940089
 31
0.0
  0
SPLINE
  5
2f8
100
AcDbEntity
  8
0
 62
7
100
AcDbSpline
 70
0
 71
3
 72
22
 73
18
 74
16
 40
0.000000
 40
0.000000
 40
0.000000
 40
0.000000
 40
0.000854
 40
0.001942
 40
0.003020
 40
0.521282
 40
1.483997
 40
2.002405
 40
2.003372
 40
2.004550
 40
2.006073
 40
2.007619
 40
2.010065
 40
2.012824
 40
2.015602
 40
2.020086
 40
2.023649
 40
2.023649
 40
2.023649
 40
2.023649
 10
326.836174
 20
22.880709
 30
0.0
 10
326.836227
 20
22.880425
 30
0.0
 10
326.836348
 20
22.879781
 30
0.0
 10
326.836022
 20
22.878792
 30
0.0
 10
326.860321
 20
22.704786
 30
0.0
 10
327.559539
 20
23.436529
 30
0.0
 10
327.771090
 20
23.568000
 30
0.0
 10
328.634003
 20
23.725415
 30
0.0
 10
328.564269
 20
23.883533
 30
0.0
 10
328.563849
 20
23.884722
 30
0.0
 10
328.562488
 20
23.885465
 30
0.0
 10
328.562097
 20
23.887364
 30
0.0
 10
328.561304
 20
23.889456
 30
0.0
 10
328.559677
 20
23.891600
 30
0.0
 10
328.557656
 20
23.894247
 30
0.0
 10
328.555647
 20
23.897254
 30
0.0
 10
328.554286
 20
23.899565
 30
0.0
 10
328.553684
 20
23.900589
 30
0.0
 11
326.836174
 21
22.880709
 31
0.0
 11
326.836270
 21
22.879860
 31
0.0
 11
326.836105
 21
22.878784
 31
0.0
 11
326.836174
 21
22.877709
 31
0.0
 11
327.283475
 21
23.139467
 31
0.0
 11
328.116223
 21
23.622531
 31
0.0
 11
328.564684
 21
23.882589
 31
0.0
 11
328.564305
 21
23.883478
 31
0.0
 11
328.563782
 21
23.884533
 31
0.0
 11
328.562684
 21
23.885589
 31
0.0
 11
328.562133
 21
23.887033
 31
0.0
 11
328.561242
 21
23.889311
 31
0.0
 11
328.559684
 21
23.891589
 31
0.0
 11
328.558017
 21
23.893811
 31
0.0
 11
328.555517
 21
23.897533
 31
0.0
 11
328.553684
 21
23.900589
 31
0.0
  0
LINE
  5
2f9
100
AcDbEntity
  8
0
 62
7
100
AcDbLine
 10
328.383814
 20
24.193529
 30
0.0
 11
328.331114
 21
24.287229
 31
0.0
  0
SPLINE
  5
2fa
100
AcDbEntity
  8
0
 62
7
100
AcDbSpline
 70
0
 71
3
 72
13
 73
9
 74
7
 40
0.000000
 40
0.000000
 40
0.000000
 40
0.000000
 40
0.009892
 40
0.018653
 40
0.030923
 40
0.103857
 40
0.194824
 40
0.292732
 40
0.292732
 40
0.292732
 40
0.292732
 10
328.530284
 20
23.940089
 30
0.0
 10
328.528620
 20
23.942936
 30
0.0
 10
328.525482
 20
23.948304
 30
0.0
 10
328.519993
 20
23.957030
 30
0.0
 10
328.503533
 20
23.983679
 30
0.0
 10
328.475101
 20
24.035087
 30
0.0
 10
328.431499
 20
24.110676
 30
0.0
 10
328.400094
 20
24.165243
 30
0.0
 10
328.383814
 20
24.193529
 30
0.0
 11
328.530284
 21
23.940089
 31
0.0
 11
328.525243
 21
23.948600
 31
0.0
 11
328.520625
 21
23.956044
 31
0.0
 11
328.514184
 21
23.966489
 31
0.0
 11
328.477844
 21
24.029724
 31
0.0
 11
328.432667
 21
24.108680
 31
0.0
 11
328.383814
 21
24.193529
 31
0.0
  0
LINE
  5
2fb
100
AcDbEntity
  8
0
 62
7
100
AcDbLine
 10
316.517144
 20
44.112428
 30
0.0
 11
316.516094
 21
44.112928
 31
0.0
  0
SPLINE
  5
2fc
100
AcDbEntity
  8
0
 62
7
100
AcDbSpline
 70
0
 71
3
 72
16
 73
12
 74
10
 40
0.000000
 40
0.000000
 40
0.000000
 40
0.000000
 40
0.191989
 40
0.374642
 40
0.554538
 40
0.655819
 40
0.758470
 40
0.836915
 40
8.245413
 40
15.660231
 40
23.078976
 40
23.078976
 40
23.078976
 40
23.078976
 10
328.331114
 20
24.287229
 30
0.0
 10
328.299122
 20
24.342655
 30
0.0
 10
328.236693
 20
24.450812
 30
0.0
 10
328.144589
 20
24.611076
 30
0.0
 10
328.067612
 20
24.745162
 30
0.0
 10
328.002874
 20
24.855520
 30
0.0
 10
327.954575
 20
24.936309
 30
0.0
 10
326.671339
 20
27.116574
 30
0.0
 10
324.186585
 20
31.417790
 30
0.0
 10
320.385815
 20
37.783763
 30
0.0
 10
317.806929
 20
42.002501
 30
0.0
 10
316.517144
 20
44.112428
 30
0.0
 11
328.331114
 21
24.287229
 31
0.0
 11
328.235191
 21
24.453538
 31
0.0
 11
328.144144
 21
24.611880
 31
0.0
 11
328.054254
 21
24.767709
 31
0.0
 11
328.002986
 21
24.855055
 31
0.0
 11
327.950549
 21
24.943303
 31
0.0
 11
327.910694
 21
25.010869
 31
0.0
 11
324.172311
 21
31.406987
 31
0.0
 11
320.375468
 21
37.775936
 31
0.0
 11
316.517144
 21
44.112428
 31
0.0
  0
ENDSEC
  0
SECTION
  2
OBJECTS
  0
DICTIONARY
  5
C
330
0
100
AcDbDictionary
  3
ACAD_GROUP
350
D
  3
ACAD_MLINESTYLE
350
17
  0
DICTIONARY
  5
D
330
C
100
AcDbDictionary
  0
DICTIONARY
  5
1A
330
C
100
AcDbDictionary
  0
DICTIONARY
  5
17
330
C
100
AcDbDictionary
  3
STANDARD
350
18
  0
DICTIONARY
  5
19
330
C
100
AcDbDictionary
  0
ENDSEC
  0
EOF
