<?xml version="1.0" encoding="utf-8" standalone="no"?>
<!DOCTYPE svg PUBLIC "-//W3C//DTD SVG 1.1//EN"
  "http://www.w3.org/Graphics/SVG/1.1/DTD/svg11.dtd">
<!-- Created with matplotlib (http://matplotlib.org/) -->
<svg height="340.36pt" version="1.1" viewBox="0 0 409.829454 340.36" width="409.829454pt" xmlns="http://www.w3.org/2000/svg" xmlns:xlink="http://www.w3.org/1999/xlink">
 <defs>
  <style type="text/css">
*{stroke-linecap:butt;stroke-linejoin:round;}
  </style>
 </defs>
 <g id="figure_1">
  <g id="patch_1">
   <path d="M 0 340.36 
L 409.829454 340.36 
L 409.829454 0 
L 0 0 
z
" style="fill:#ffffff;"/>
  </g>
  <g id="axes_1">
   <g id="patch_2">
    <path d="M 10.7 329.66 
L 399.129454 329.66 
L 399.129454 10.7 
L 10.7 10.7 
z
" style="fill:#ffffff;"/>
   </g>
   <g id="matplotlib.axis_1"/>
   <g id="matplotlib.axis_2"/>
   <g id="line2d_1">
    <path clip-path="url(#p6182de9dea)" d="M 280.589782 311.23085 
L 285.353892 307.496724 
L 289.970827 303.51002 
L 294.426156 299.277542 
L 298.705743 294.806941 
L 302.795791 290.106694 
L 306.682882 285.186081 
L 310.354021 280.055175 
L 313.79667 274.724821 
L 316.998793 269.206621 
L 319.948895 263.512918 
L 322.636065 257.656776 
L 325.050021 251.651966 
L 327.181156 245.512937 
L 329.020586 239.2548 
L 330.560199 232.893292 
L 331.792706 226.444749 
L 332.711692 219.926066 
L 333.311665 213.354656 
L 333.588113 206.748401 
L 333.537546 200.125597 
L 333.15755 193.504897 
L 332.446828 186.905241 
L 331.405245 180.345786 
L 330.033865 173.845826 
L 328.334981 167.424705 
L 326.312143 161.10173 
L 323.970179 154.896074 
L 321.315206 148.82667 
L 318.35463 142.912116 
L 315.097147 137.170554 
L 311.552721 131.619571 
L 307.732562 126.276075 
L 303.649084 121.156189 
L 299.315861 116.275131 
L 294.74756 111.64711 
L 289.959872 107.285211 
L 284.969423 103.201296 
L 279.793675 99.405901 
L 274.450819 95.908156 
L 268.959648 92.715694 
L 263.339428 89.834591 
L 257.609755 87.26931 
L 251.7904 85.022658 
L 245.901157 83.095761 
L 239.961677 81.488067 
L 233.991303 80.197347 
L 228.008904 79.219743 
L 222.032715 78.54981 
L 216.080175 78.180604 
L 210.167781 78.103774 
L 204.310948 78.309684 
L 198.52389 78.787554 
L 192.819514 79.525618 
L 187.209337 80.511302 
L 181.703426 81.731417 
L 176.310365 83.172359 
L 171.037251 84.820323 
L 165.889717 86.661523 
L 160.871985 88.68241 
L 155.98695 90.869884 
L 151.236291 93.211509 
L 146.620614 95.695709 
L 142.139614 98.311945 
L 137.792262 101.050875 
L 133.577006 103.904489 
L 129.491993 106.866207 
L 125.535288 109.930941 
L 121.7051 113.095119 
L 117.999997 116.356654 
L 114.419108 119.714871 
L 110.962302 123.170378 
L 107.630337 126.724888 
L 104.424972 130.380997 
L 101.349035 134.141921 
L 98.406453 138.011217 
L 95.602232 141.992486 
L 92.942401 146.089079 
L 90.43392 150.303832 
L 88.084565 154.638817 
L 85.902779 159.095143 
L 83.897526 163.672793 
L 82.07813 168.370513 
L 80.454108 173.185732 
L 79.035021 178.114535 
L 77.830315 183.151664 
L 76.849185 188.290545 
L 76.100445 193.523348 
L 75.592409 198.84106 
L 75.332789 204.233571 
L 75.328608 209.689781 
L 75.586124 215.197697 
L 76.110772 220.744547 
L 76.907114 226.316886 
L 77.978809 231.900705 
L 79.328584 237.481531 
L 80.958225 243.044525 
L 82.86857 248.574574 
L 85.059509 254.056371 
L 87.529991 259.474496 
L 90.278036 264.81348 
L 93.300743 270.057875 
L 96.594308 275.192302 
L 100.154033 280.201512 
L 103.974345 285.070428 
L 108.048805 289.784194 
L 112.370123 294.328215 
L 116.930165 298.6882 
L 121.71997 302.850204 
L 126.729754 306.80067 
L 131.948924 310.526475 
L 137.366091 314.014967 
L 142.969078 317.254021 
L 148.744938 320.232083 
L 154.67997 322.938221 
L 160.759742 325.362178 
L 166.969113 327.494427 
L 173.292266 329.326228 
L 179.71274 330.849683 
L 186.213471 332.057793 
L 192.776839 332.944518 
L 199.384723 333.504827 
L 206.018553 333.73476 
L 212.659387 333.631472 
L 219.287974 333.193288 
L 225.884839 332.41974 
L 232.430367 331.311613 
L 238.904896 329.870975 
L 245.288817 328.101201 
L 251.562672 326.006994 
L 257.707271 323.594396 
L 263.703795 320.870783 
L 269.53392 317.84486 
L 275.17993 314.526637 
L 280.624838 310.927398 
L 285.852504 307.059653 
L 290.847757 302.937085 
L 295.596501 298.574473 
L 300.085835 293.987615 
L 304.30415 289.193228 
L 308.24123 284.208834 
L 311.888334 279.052649 
L 315.238274 273.743437 
L 318.285475 268.300377 
L 321.02602 262.742902 
L 323.457679 257.090545 
L 325.579919 251.362768 
L 327.393893 245.578799 
L 328.90241 239.757458 
L 330.10988 233.91699 
L 331.022234 228.074908 
L 331.646833 222.247836 
L 331.992336 216.45137 
L 332.068566 210.69995 
L 331.886341 205.006756 
L 331.457294 199.38362 
L 330.793678 193.840964 
L 329.908155 188.387767 
L 328.813576 183.031553 
L 327.522757 177.778421 
L 326.048256 172.633087 
L 324.402145 167.598974 
L 322.595801 162.67832 
L 320.639699 157.872312 
L 318.543232 153.181252 
L 316.314549 148.60474 
L 313.960426 144.141869 
L 311.486174 139.791446 
L 308.895582 135.552201 
L 306.19092 131.423012 
L 303.372977 127.403113 
L 300.441172 123.492288 
L 297.3937 119.691045 
L 294.227744 116.000758 
L 290.939719 112.423772 
L 287.525549 108.963471 
L 283.980961 105.624302 
L 280.301784 102.411758 
L 276.484227 99.33233 
L 272.52514 96.39342 
L 268.422229 93.603231 
L 264.174243 90.97064 
L 259.781106 88.505053 
L 255.244015 86.216256 
L 250.565495 84.114267 
L 245.749414 82.209181 
L 240.80098 80.511031 
L 235.726697 79.029649 
L 230.534313 77.774541 
L 225.232742 76.754771 
L 219.831982 75.978861 
L 214.343019 75.454704 
L 208.777729 75.189485 
L 203.148775 75.189624 
L 197.469508 75.460723 
L 191.75387 76.00753 
L 186.016299 76.833911 
L 180.271636 77.942833 
L 174.535051 79.336354 
L 168.821956 81.015614 
L 163.147946 82.98084 
L 157.528725 85.231346 
L 151.980052 87.765541 
L 146.51769 90.580932 
L 141.157351 93.674135 
L 135.914654 97.040876 
L 130.805079 100.676002 
L 125.843921 104.573485 
L 121.046255 108.726423 
L 116.426883 113.127051 
L 112.000297 117.766739 
L 107.780631 122.635999 
L 103.781611 127.724494 
L 100.016507 133.02104 
L 96.498079 138.513621 
L 93.238522 144.189401 
L 90.249407 150.034738 
L 87.541625 156.035212 
L 85.125324 162.175642 
L 83.009844 168.440128 
L 81.203659 174.81208 
L 79.71431 181.274271 
L 78.548347 187.80888 
L 77.711263 194.397554 
L 77.207441 201.021475 
L 77.040097 207.66143 
L 77.211229 214.29789 
L 77.721573 220.911098 
L 78.57056 227.481163 
L 79.756285 233.988161 
L 81.275485 240.412237 
L 83.123517 246.73372 
L 85.294356 252.933238 
L 87.780599 258.991837 
L 90.573478 264.891106 
L 93.662892 270.613297 
L 97.037442 276.141455 
L 100.68449 281.459537 
L 104.590222 286.552536 
L 108.739733 291.406596 
L 113.117118 296.009124 
L 117.705586 300.348892 
L 122.487575 304.416128 
L 127.444888 308.202602 
L 132.558841 311.701687 
L 137.810414 314.908412 
L 143.180415 317.819498 
L 148.649646 320.433365 
L 154.199081 322.750133 
L 159.810033 324.771586 
L 165.464326 326.501119 
L 171.144462 327.943665 
L 176.833778 329.105594 
L 182.516589 329.994585 
L 188.178317 330.619483 
L 193.805604 330.990132 
L 199.386399 331.117187 
L 204.910024 331.011912 
L 210.36721 330.685964 
L 215.75011 330.151169 
L 221.052277 329.41929 
L 226.268614 328.501796 
L 231.395298 327.409631 
L 236.429672 326.152997 
L 241.370108 324.74115 
L 246.21585 323.182214 
L 250.966835 321.483025 
L 255.623496 319.649008 
L 260.186552 317.684097 
L 264.656794 315.590694 
L 269.034869 313.369691 
L 273.321072 311.020542 
L 277.515155 308.541389 
L 281.616157 305.929249 
L 285.622263 303.18024 
L 289.530701 300.28985 
L 293.337673 297.25322 
L 297.038329 294.065443 
L 300.626782 290.721848 
L 304.096149 287.21827 
L 307.438632 283.551278 
L 310.645624 279.718377 
L 313.707823 275.718163 
L 316.61537 271.550436 
L 319.357993 267.216277 
L 321.92515 262.71809 
L 324.306173 258.059609 
L 326.490408 253.245883 
L 328.46735 248.283238 
L 330.226764 243.179215 
L 331.7588 237.942507 
L 333.054091 232.582873 
L 334.103842 227.111053 
L 334.89991 221.538674 
L 335.434858 215.878163 
L 335.702015 210.142647 
L 335.695512 204.345873 
L 335.41031 198.502114 
L 334.84223 192.626095 
L 333.98796 186.732914 
L 332.845071 180.837975 
L 331.41202 174.956921 
L 329.688154 169.105579 
L 327.673711 163.299906 
L 325.369818 157.555934 
L 322.778497 151.88973 
L 319.902659 146.317346 
L 316.746109 140.854778 
L 313.313546 135.517923 
L 309.610565 130.322535 
L 305.643659 125.284181 
L 301.420219 120.418194 
L 296.94854 115.739623 
L 292.237814 111.263189 
L 287.298132 107.003221 
L 282.140477 102.973607 
L 276.776715 99.187734 
L 271.219583 95.658422 
L 265.482671 92.397863 
L 259.580402 89.417553 
L 253.527996 86.728227 
L 247.341444 84.339788 
L 241.03746 82.26124 
L 234.633434 80.500616 
L 228.147376 79.064919 
L 221.597852 77.960049 
L 215.003912 77.190746 
L 208.385008 76.760533 
L 201.760912 76.67166 
L 195.151619 76.925061 
L 188.577245 77.520313 
L 182.05792 78.455602 
L 175.613673 79.727705 
L 169.264314 81.331973 
L 163.029311 83.262332 
L 156.927661 85.51129 
L 150.977761 88.069964 
L 145.197281 90.92811 
L 139.603031 94.074178 
L 134.210834 97.495371 
L 129.035409 101.177726 
L 124.090245 105.106208 
L 119.387498 109.264814 
L 114.937892 113.636695 
L 110.750629 118.204292 
L 106.83332 122.949479 
L 103.191927 127.85372 
L 99.830728 132.898236 
L 96.752296 138.064172 
L 93.95751 143.332779 
L 91.445577 148.685582 
L 89.21409 154.104563 
L 87.259101 159.572325 
L 85.575225 165.072252 
L 84.155769 170.588665 
L 82.992878 176.106946 
L 82.077707 181.613658 
L 81.400618 187.096638 
L 80.95138 192.54506 
L 80.719397 197.949485 
L 80.693936 203.301864 
L 80.864364 208.595532 
L 81.220389 213.825156 
L 81.752285 218.986661 
L 82.451122 224.077127 
L 83.308963 229.094657 
L 84.31905 234.038221 
L 85.47595 238.907481 
L 86.77567 243.702592 
L 88.215718 248.423996 
L 89.79512 253.072209 
L 91.514375 257.6476 
L 93.375357 262.150185 
L 95.381155 266.579437 
L 97.535867 270.934106 
L 99.844356 275.212088 
L 102.311965 279.410309 
L 104.944241 283.524663 
L 107.746638 287.549981 
L 110.724255 291.48004 
L 113.881589 295.307606 
L 117.22233 299.02451 
L 120.749182 302.621743 
L 124.463739 306.089574 
L 128.366382 309.417681 
L 132.456223 312.595287 
L 136.731075 315.611303 
L 141.187446 318.45447 
L 145.820561 321.113492 
L 150.6244 323.577171 
L 155.591753 325.834525 
L 160.714283 327.874903 
L 165.982603 329.688078 
L 171.386352 331.264344 
L 176.914284 332.594583 
L 182.554344 333.670332 
L 188.293756 334.483836 
L 194.119101 335.028091 
L 200.016394 335.296874 
L 205.971158 335.284772 
L 211.968487 334.987203 
L 217.993113 334.400424 
L 224.029461 333.521552 
L 230.061701 332.348563 
L 236.073803 330.880309 
L 242.049574 329.116515 
L 247.972714 327.057795 
L 253.826847 324.705652 
L 259.595573 322.06249 
L 265.262504 319.131617 
L 270.811312 315.917261 
L 276.225773 312.42457 
L 281.489814 308.659625 
L 286.587565 304.629446 
L 291.50341 300.341993 
L 296.222049 295.806176 
L 300.728552 291.031847 
L 305.008425 286.029803 
L 309.047677 280.811773 
L 312.832886 275.390406 
L 316.351274 269.779253 
L 319.590775 263.992742 
L 322.540112 258.046147 
L 325.188871 251.955547 
L 327.527574 245.737779 
L 329.547753 239.410388 
L 331.242021 232.991561 
L 332.60414 226.500059 
L 333.629085 219.955135 
L 334.313103 213.376451 
L 334.65377 206.78398 
L 334.65003 200.197907 
L 334.302244 193.638516 
L 333.612211 187.126076 
L 332.58319 180.680716 
L 331.21991 174.322303 
L 329.528564 168.070306 
L 327.516792 161.943665 
L 325.193653 155.960656 
L 322.569574 150.138753 
L 319.656296 144.494501 
L 316.466797 139.04338 
L 313.015197 133.79969 
L 309.316661 128.776427 
L 305.387268 123.985187 
L 301.243887 119.436066 
L 296.904023 115.137589 
L 292.385662 111.096647 
L 287.707103 107.318455 
L 282.886786 103.806534 
L 277.94311 100.562714 
L 272.894252 97.587158 
L 267.757995 94.87842 
L 262.551547 92.43352 
L 257.291377 90.24805 
L 251.993068 88.3163 
L 246.671171 86.631417 
L 241.339092 85.185579 
L 236.008994 83.970188 
L 230.691721 82.976092 
L 225.396757 82.193803 
L 220.132207 81.613738 
L 214.904804 81.226463 
L 209.719959 81.022927 
L 204.581825 80.9947 
L 199.493403 81.134196 
L 194.456668 81.434869 
L 189.472724 81.891391 
L 184.541982 82.499783 
L 179.664356 83.257519 
L 174.839474 84.16356 
L 170.066901 85.218349 
L 165.346353 86.423737 
L 160.677919 87.782859 
L 156.062252 89.299948 
L 151.500752 90.980113 
L 146.995703 92.829083 
L 142.550385 94.852924 
L 138.169145 97.057771 
L 133.857422 99.449551 
L 129.62174 102.033739 
L 125.469666 104.815142 
L 121.409734 107.797712 
L 117.451353 110.984403 
L 113.604687 114.377053 
L 109.880529 117.976308 
L 106.290167 121.781569 
L 102.845241 125.790974 
L 99.557608 130.001392 
L 96.439206 134.408449 
L 93.501925 139.00656 
L 90.75749 143.788979 
L 88.217351 148.747859 
L 85.892583 153.874318 
L 83.793804 159.15851 
L 81.931095 164.5897 
L 80.313941 170.156337 
L 78.951175 175.846129 
L 77.850933 181.64611 
L 77.020623 187.542714 
L 76.46689 193.521835 
L 76.195597 199.568886 
L 76.211803 205.668857 
L 76.519748 211.806365 
L 77.12284 217.9657 
L 78.023638 224.130875 
L 79.223842 230.285663 
L 80.72428 236.413643 
L 82.524892 242.498239 
L 84.62472 248.522759 
L 87.02189 254.470443 
L 89.713599 260.324499 
L 92.696101 266.068158 
L 95.964692 271.684715 
L 99.5137 277.157587 
L 103.336471 282.470366 
L 107.42536 287.606879 
L 111.771732 292.55125 
L 116.365954 297.287971 
L 121.197403 301.801965 
L 126.25447 306.078664 
L 131.524579 310.104085 
L 136.994207 313.864903 
L 142.648909 317.348534 
L 148.473357 320.543215 
L 154.451379 323.43808 
L 160.566018 326.023244 
L 166.799584 328.289879 
L 173.133726 330.230286 
L 179.549513 331.837969 
L 186.027514 333.107702 
L 192.547897 334.035588 
L 199.090532 334.619112 
L 205.635098 334.857189 
L 212.161207 334.750198 
L 218.648524 334.300011 
L 225.076899 333.510003 
L 231.426502 332.38506 
L 237.67796 330.931564 
L 243.812498 329.157365 
L 249.812079 327.071747 
L 255.65954 324.685367 
L 261.338731 322.010181 
L 266.83464 319.059362 
L 272.133513 315.847189 
L 277.222968 312.388931 
L 282.092092 308.700712 
L 286.731519 304.799364 
L 291.133497 300.702263 
L 295.291933 296.427166 
L 299.202413 291.992027 
L 302.862203 287.41482 
L 306.27022 282.71335 
L 309.42698 277.905075 
L 312.334518 273.006924 
L 314.996281 268.035128 
L 317.416996 263.005062 
L 319.60251 257.931105 
L 321.559612 252.826512 
L 323.295832 247.703314 
L 324.819218 242.572241 
L 326.138111 237.44267 
L 327.260899 232.322605 
L 328.195776 227.21868 
L 328.950498 222.136199 
L 329.532152 217.079207 
L 329.946938 212.050583 
L 330.199976 207.052175 
L 330.295145 202.084952 
L 330.234959 197.149187 
L 330.020498 192.244659 
L 329.651386 187.370872 
L 329.125829 182.527287 
L 328.440714 177.713545 
L 327.591755 172.929697 
L 326.573698 168.176403 
L 325.38055 163.455116 
L 324.005838 158.768224 
L 322.442877 154.119163 
L 320.685031 149.512479 
L 318.725954 144.953855 
L 316.55982 140.450103 
L 314.181507 136.009113 
L 311.586761 131.639779 
L 308.772326 127.351904 
L 305.736034 123.156083 
L 302.476882 119.063572 
L 298.995067 115.08616 
L 295.292011 111.236027 
L 291.370356 107.525608 
L 287.233949 103.967466 
L 282.88781 100.57416 
L 278.338086 97.358136 
L 273.592004 94.331614 
L 268.657809 91.506498 
L 263.544702 88.894286 
L 258.262777 86.506001 
L 252.822954 84.352126 
L 247.236915 82.44255 
L 241.517043 80.786524 
L 235.676362 79.392624 
L 229.728484 78.268714 
L 223.687552 77.421928 
L 217.568194 76.858639 
L 211.385481 76.584441 
L 205.154877 76.604129 
L 198.892204 76.921683 
L 192.613603 77.540244 
L 186.335491 78.462097 
L 180.074526 79.688656 
L 173.847567 81.220435 
L 167.671632 83.057035 
L 161.563853 85.197121 
L 155.54143 87.638398 
L 149.621584 90.377595 
L 143.821498 93.410448 
L 138.158264 96.731676 
L 132.648818 100.334976 
L 127.309878 104.213007 
L 122.15787 108.357382 
L 117.208857 112.758673 
L 112.478463 117.406407 
L 107.981789 122.289081 
L 103.733336 127.394175 
L 99.746919 132.70818 
L 96.03558 138.216625 
L 92.611503 143.904118 
L 89.485932 149.754398 
L 86.669082 155.750389 
L 84.170062 161.874265 
L 81.996794 168.107533 
L 80.155942 174.43111 
L 78.652842 180.825425 
L 77.491442 187.270514 
L 76.674251 193.746141 
L 76.202294 200.231911 
L 76.075077 206.707398 
L 76.29057 213.152281 
L 76.845196 219.546479 
L 77.733837 225.870295 
L 78.949856 232.104561 
L 80.485131 238.230779 
L 82.330108 244.23127 
L 84.473873 250.089308 
L 86.904235 255.78926 
L 89.607828 261.316709 
L 92.570236 266.658569 
L 95.776121 271.803187 
L 99.209376 276.740434 
L 102.853288 281.461763 
L 106.690704 285.960268 
L 110.704221 290.230699 
L 114.876363 294.269464 
L 119.189776 298.074607 
L 123.627414 301.645746 
L 128.17272 304.983998 
L 132.809806 308.091867 
L 137.523611 310.973109 
L 142.300053 313.632569 
L 147.126156 316.075999 
L 151.990159 318.30985 
L 156.8816 320.34105 
L 161.79137 322.176772 
L 166.711742 323.82419 
L 171.636368 325.290231 
L 176.560242 326.581339 
L 181.479636 327.703244 
L 186.391996 328.660754 
L 191.295816 329.457569 
L 196.190468 330.096143 
L 201.07602 330.577574 
L 205.953014 330.901561 
L 210.822239 331.066405 
L 215.68449 331.069073 
L 220.540324 330.905316 
L 225.389829 330.56984 
L 230.232415 330.056505 
L 235.066633 329.358566 
L 239.890029 328.468921 
L 244.69904 327.380355 
L 249.488938 326.085785 
L 254.253803 324.578476 
L 258.986551 322.852245 
L 263.678976 320.901622 
L 268.321835 318.721996 
L 272.904948 316.309723 
L 277.417312 313.662217 
L 281.84723 310.778008 
L 286.182443 307.656777 
L 290.410267 304.299384 
L 294.517721 300.707858 
L 298.491663 296.885392 
L 302.318902 292.836314 
L 305.986318 288.566046 
L 309.480962 284.081068 
L 312.79015 279.388863 
L 315.90154 274.497863 
L 318.803212 269.417395 
L 321.483723 264.157625 
L 323.932164 258.729504 
L 326.138203 253.144713 
L 328.092128 247.415611 
L 329.784879 241.555193 
L 331.208076 235.577038 
L 332.354051 229.495272 
L 333.215867 223.324527 
L 333.787349 217.079904 
L 334.063104 210.776936 
L 334.038546 204.431551 
L 333.709922 198.060042 
L 333.074335 191.679024 
L 332.129775 185.3054 
L 330.87514 178.956319 
L 329.310269 172.649134 
L 327.435963 166.401353 
L 325.254015 160.230592 
L 322.767233 154.154517 
L 319.979462 148.190785 
L 316.895606 142.356985 
L 313.521641 136.670563 
L 309.864631 131.148755 
L 305.932732 125.808507 
L 301.735196 120.666399 
L 297.282366 115.738556 
L 292.585661 111.040564 
L 287.657562 106.587381 
L 282.511581 102.393246 
L 277.162228 98.471589 
L 271.624961 94.83494 
L 265.916138 91.494835 
L 260.052946 88.461734 
L 254.053333 85.744932 
L 247.93592 83.35248 
L 241.719909 81.291112 
L 235.42498 79.566173 
L 229.071179 78.18156 
L 222.678793 77.139677 
L 216.268228 76.441387 
L 209.859868 76.085989 
L 203.473937 76.071204 
L 197.130349 76.393172 
L 190.848564 77.046468 
L 184.647436 78.024138 
L 178.545064 79.317741 
L 172.558651 80.917419 
L 166.704359 82.811982 
L 160.997182 84.989009 
L 155.450822 87.434964 
L 150.077589 90.135337 
L 144.888305 93.074788 
L 139.892234 96.237317 
L 135.097036 99.606435 
L 130.508735 103.165354 
L 126.131727 106.897168 
L 121.968798 110.785058 
L 118.021185 114.812475 
L 114.288656 118.963336 
L 110.769624 123.222201 
L 107.461284 127.574443 
L 104.359779 132.006404 
L 101.460384 136.505529 
L 98.757721 141.06048 
L 96.245978 145.661227 
L 93.919147 150.299104 
L 91.771267 154.966847 
L 89.796667 159.65859 
L 87.990203 164.369831 
L 86.347477 169.097363 
L 84.865036 173.83917 
L 83.540544 178.594285 
L 82.372901 183.362618 
L 81.36233 188.14475 
L 80.510401 192.941701 
L 79.820004 197.754688 
L 79.295265 202.584863 
L 78.941416 207.433062 
L 78.764615 212.29957 
L 78.771745 217.183905 
L 78.970185 222.084643 
L 79.367581 226.999279 
L 79.971613 231.924132 
L 80.789785 236.854296 
L 81.829222 241.78363 
L 83.096498 246.704788 
L 84.597487 251.609271 
L 86.337233 256.487515 
L 88.319854 261.328995 
L 90.548462 266.122339 
L 93.025102 270.855457 
L 95.750722 275.515669 
L 98.725146 280.089841 
L 101.947072 284.564507 
L 105.414085 288.926001 
L 109.122669 293.160565 
L 113.068242 297.254464 
L 117.245192 301.194083 
L 121.646916 304.966014 
L 126.265868 308.557134 
L 131.093601 311.954679 
L 136.120818 315.146299 
L 141.337418 318.120116 
L 146.732539 320.864767 
L 152.294598 323.369443 
L 158.011338 325.62393 
L 163.86986 327.618637 
L 169.85666 329.344628 
L 175.957662 330.793654 
L 182.158254 331.95818 
L 188.443313 332.831411 
L 194.797244 333.407329 
L 201.204008 333.680715 
L 207.647156 333.647189 
L 210.877131 333.5142 
L 223.369973 341.36 
M 81.296211 341.36 
L 76.102207 336.295252 
L 71.029698 330.86926 
L 66.282165 325.293906 
L 61.858641 319.587615 
L 57.755997 313.767519 
L 53.969059 307.849176 
L 50.49078 301.846308 
L 47.312464 295.77058 
L 44.424055 289.631437 
L 41.814476 283.436001 
L 39.472026 277.189042 
L 37.384812 270.893042 
L 35.541224 264.548341 
L 33.930403 258.153377 
L 32.54271 251.705006 
L 31.370153 245.198894 
L 30.406747 238.629951 
L 29.648797 231.992803 
L 29.095086 225.282261 
L 28.746951 218.493786 
L 28.608263 211.623909 
L 28.685304 204.67062 
L 28.986558 197.633686 
L 29.522434 190.514923 
L 30.304923 183.318401 
L 31.347225 176.050582 
L 32.66334 168.720403 
L 34.26765 161.339301 
L 36.174504 153.921174 
L 38.397806 146.4823 
L 40.950632 139.041203 
L 43.844868 131.61848 
L 47.090887 124.236587 
L 50.697261 116.919598 
L 54.670524 109.692936 
L 59.014974 102.583085 
L 63.732523 95.617295 
L 68.822598 88.823276 
L 74.282084 82.228895 
L 80.105309 75.861877 
L 86.284076 69.749518 
L 89.50355 66.797182 
L 92.807726 63.918418 
L 96.194903 61.116398 
L 99.663239 58.394224 
L 103.210758 55.754915 
L 106.835355 53.201405 
L 110.534797 50.736535 
L 114.306731 48.363047 
L 118.148694 46.083581 
L 122.05811 43.900669 
L 126.032303 41.816734 
L 130.068502 39.83408 
L 134.163844 37.954895 
L 138.315385 36.181246 
L 142.520102 34.515074 
L 146.774905 32.958197 
L 151.076636 31.512303 
L 155.422083 30.178953 
L 159.807979 28.959578 
L 164.231016 27.855477 
L 168.687845 26.867822 
L 173.175084 25.997651 
L 177.689325 25.245873 
L 182.227139 24.613269 
L 186.785081 24.100489 
L 191.359697 23.708058 
L 195.947527 23.436373 
L 200.545112 23.285708 
L 205.148998 23.256214 
L 209.755743 23.347922 
L 214.361917 23.560743 
L 218.964109 23.894474 
L 223.558932 24.348796 
L 228.143026 24.923281 
L 232.71306 25.617392 
L 237.265737 26.430486 
L 241.797798 27.361818 
L 246.306024 28.410541 
L 250.787238 29.575713 
L 255.238308 30.856298 
L 259.656153 32.251167 
L 264.037739 33.759104 
L 268.380085 35.378808 
L 272.680265 37.108896 
L 276.935408 38.947905 
L 281.142701 40.894295 
L 285.299388 42.946454 
L 289.402776 45.102698 
L 293.450229 47.361276 
L 297.439177 49.720369 
L 301.36711 52.1781 
L 305.231583 54.732526 
L 309.030215 57.381651 
L 312.76069 60.12342 
L 316.420756 62.955727 
L 320.008227 65.876414 
L 323.520984 68.883274 
L 326.956974 71.974052 
L 330.314209 75.14645 
L 333.590769 78.398125 
L 336.7848 81.726693 
L 339.894516 85.129728 
L 342.918197 88.604769 
L 345.854191 92.149315 
L 348.700914 95.760829 
L 354.120548 103.174449 
L 359.165783 110.824672 
L 363.826404 118.690045 
L 368.093311 126.748652 
L 371.958534 134.978147 
L 375.415261 143.355785 
L 378.457865 151.858458 
L 381.081933 160.462732 
L 383.284308 169.14489 
L 385.063128 177.880981 
L 386.41787 186.646877 
L 387.349393 195.418346 
L 387.859983 204.171127 
L 387.953391 212.881027 
L 387.634866 221.524027 
L 386.911182 230.076406 
L 385.790644 238.514873 
L 384.283089 246.816721 
L 382.399861 254.959986 
L 380.153759 262.92362 
L 377.558977 270.687669 
L 374.630993 278.23346 
L 371.386448 285.543781 
L 367.842984 292.603064 
L 364.019056 299.397554 
L 359.933712 305.915467 
L 355.606347 312.147126 
L 351.056433 318.08507 
L 346.303234 323.724136 
L 341.365496 329.061504 
L 336.26115 334.096691 
L 331.006999 338.831509 
L 327.99017 341.36 
M 86.32476 341.36 
L 84.673955 340.006579 
L 81.356765 337.14282 
L 78.103808 334.18604 
L 74.918414 331.137622 
L 71.803852 327.999095 
L 68.763323 324.772131 
L 65.799956 321.458536 
L 62.916799 318.060251 
L 60.116813 314.579343 
L 57.40287 311.018002 
L 54.777745 307.378535 
L 52.244113 303.663361 
L 49.804543 299.875002 
L 47.461499 296.016081 
L 45.217331 292.089316 
L 43.074273 288.09751 
L 41.034445 284.043548 
L 39.099846 279.930392 
L 37.272354 275.761071 
L 35.553724 271.538678 
L 33.945589 267.266361 
L 32.449455 262.947323 
L 31.066705 258.584807 
L 29.798596 254.182098 
L 28.646259 249.742515 
L 27.610703 245.269403 
L 26.69281 240.76613 
L 25.893341 236.236081 
L 25.212932 231.682656 
L 24.652102 227.109257 
L 24.211249 222.519292 
L 23.890653 217.916166 
L 23.690478 213.303278 
L 23.610776 208.684014 
L 23.651486 204.061748 
L 23.812437 199.439834 
L 24.093353 194.821605 
L 24.493852 190.210367 
L 25.01345 185.609397 
L 25.651564 181.021942 
L 26.407513 176.451215 
L 27.280522 171.900388 
L 28.269724 167.372597 
L 29.374165 162.870935 
L 30.592802 158.39845 
L 31.924509 153.958145 
L 33.368079 149.552977 
L 34.922227 145.18585 
L 36.585592 140.859619 
L 38.356737 136.577088 
L 40.234158 132.341006 
L 42.216279 128.154069 
L 44.301459 124.018916 
L 46.487993 119.938131 
L 48.774114 115.91424 
L 51.157994 111.949713 
L 53.637749 108.046959 
L 56.211438 104.208331 
L 58.877065 100.436122 
L 61.632583 96.732562 
L 64.475894 93.099825 
L 67.404851 89.540023 
L 70.417259 86.055205 
L 73.510876 82.64736 
L 76.683415 79.318417 
L 83.255899 72.904632 
L 90.115565 66.828014 
L 97.242621 61.10171 
L 104.616659 55.73783 
L 112.216683 50.747422 
L 120.021142 46.140449 
L 128.007955 41.92575 
L 136.15455 38.111007 
L 144.437893 34.7027 
L 152.834538 31.706061 
L 161.320673 29.125021 
L 169.872189 26.962156 
L 178.464744 25.218636 
L 187.073859 23.894168 
L 195.675015 22.986954 
L 204.243769 22.493645 
L 212.755891 22.409311 
L 221.187511 22.727427 
L 229.51528 23.439872 
L 237.716551 24.536949 
L 245.769565 26.007433 
L 253.653646 27.83864 
L 261.349401 30.016533 
L 268.838924 32.525847 
L 276.105988 35.35026 
L 283.136232 38.472582 
L 289.917333 41.874982 
L 296.439151 45.539239 
L 302.693852 49.447013 
L 308.675989 53.580144 
L 314.382551 57.920952 
L 319.812953 62.452545 
L 324.968977 67.159122 
L 329.854647 72.026261 
L 334.476042 77.041175 
L 338.841027 82.192934 
L 342.958922 87.472625 
L 346.840094 92.873462 
L 350.495493 98.390806 
L 353.936143 104.022113 
L 357.172606 109.7668 
L 360.214456 115.626023 
L 363.069777 121.602393 
L 365.744725 127.699625 
L 368.243168 133.922153 
L 370.566432 140.274716 
L 372.713141 146.761938 
L 374.679183 153.387919 
L 376.457765 160.155849 
L 378.039568 167.067651 
L 379.412978 174.123671 
L 380.564386 181.322407 
L 381.478531 188.660298 
L 382.138886 196.131552 
L 382.528063 203.72804 
L 382.628223 211.439235 
L 382.421491 219.252202 
L 381.89036 227.15165 
L 381.018073 235.120012 
L 379.788981 243.137587 
L 378.188865 251.182706 
L 376.205227 259.231941 
L 373.827537 267.260338 
L 371.047436 275.241669 
L 367.858897 283.148708 
L 364.258346 290.953504 
L 360.244729 298.627671 
L 355.819551 306.142665 
L 353.453796 309.831576 
L 350.986869 313.470058 
L 348.419669 317.054617 
L 345.753247 320.581803 
L 342.988804 324.048209 
L 340.127688 327.450483 
L 337.171387 330.785333 
L 334.12153 334.049535 
L 330.979879 337.239936 
L 326.646967 341.36 
M 86.875025 341.36 
L 81.239915 336.311788 
L 74.7232 329.916126 
L 68.537405 323.234222 
L 62.695945 316.285653 
L 57.211216 309.090689 
L 52.09456 301.670268 
L 47.356218 294.045965 
L 43.005281 286.239964 
L 39.049635 278.275014 
L 35.495898 270.174381 
L 32.349358 261.961792 
L 29.61391 253.661361 
L 27.291992 245.2975 
L 25.384527 236.894824 
L 23.890863 228.478027 
L 22.808737 220.071746 
L 22.134241 211.70041 
L 21.861807 203.38807 
L 21.984217 195.15821 
L 22.492629 187.033552 
L 23.376641 179.035845 
L 24.624373 171.185651 
L 26.222585 163.502125 
L 28.15683 156.002803 
L 30.411633 148.703395 
L 32.970709 141.61759 
L 35.817199 134.756889 
L 38.93394 128.130459 
L 42.303752 121.745031 
L 45.909739 115.60483 
L 49.735595 109.711571 
L 53.765914 104.064502 
L 57.98648 98.660524 
L 62.384538 93.494378 
L 66.949027 88.558917 
L 71.670769 83.845455 
L 76.542593 79.344188 
L 81.559393 75.04468 
L 86.718107 70.936398 
L 92.017616 67.009265 
L 97.458569 63.254212 
L 103.043127 59.663687 
L 108.774659 56.232104 
L 114.657388 52.956212 
L 120.696001 49.835354 
L 126.895254 46.871623 
L 133.259573 44.069909 
L 139.792676 41.437843 
L 146.497205 38.985654 
L 153.37441 36.725945 
L 160.423854 34.673406 
L 167.643182 32.844477 
L 175.027919 31.256981 
L 182.571332 29.929725 
L 190.264342 28.882096 
L 198.095477 28.133653 
L 206.050889 27.703728 
L 214.114411 27.611041 
L 222.267659 27.873345 
L 230.49018 28.507089 
L 238.759627 29.527126 
L 247.051973 30.946453 
L 255.341746 32.775993 
L 263.602281 35.024417 
L 271.805985 37.698012 
L 279.924613 40.800587 
L 283.943085 42.513241 
L 287.929538 44.333421 
L 291.88038 46.260889 
L 295.792025 48.295248 
L 299.660908 50.435947 
L 303.483486 52.682279 
L 307.256252 55.033383 
L 310.975736 57.488252 
L 314.638515 60.045729 
L 318.241219 62.704518 
L 321.780539 65.463179 
L 325.253229 68.320142 
L 328.656116 71.273704 
L 331.986101 74.322035 
L 335.240167 77.463187 
L 338.415382 80.695093 
L 341.508906 84.015577 
L 344.517989 87.422356 
L 347.43998 90.913049 
L 350.272328 94.485177 
L 353.012583 98.136175 
L 355.658404 101.863392 
L 358.207554 105.664099 
L 360.657906 109.535496 
L 363.007445 113.474715 
L 365.254267 117.478826 
L 367.396581 121.544842 
L 369.432708 125.669727 
L 371.361085 129.850397 
L 373.180262 134.08373 
L 374.888903 138.366564 
L 376.485785 142.695712 
L 377.969797 147.067956 
L 379.339944 151.480058 
L 380.595337 155.928764 
L 381.735202 160.410806 
L 382.758871 164.922908 
L 383.665784 169.461787 
L 384.455487 174.024163 
L 385.127633 178.606755 
L 385.681975 183.206289 
L 386.118367 187.819502 
L 386.436764 192.443141 
L 386.637216 197.073969 
L 386.719871 201.708768 
L 386.684968 206.34434 
L 386.532838 210.97751 
L 386.263902 215.605128 
L 385.878666 220.224072 
L 385.377724 224.83125 
L 384.761752 229.423599 
L 384.031505 233.998093 
L 383.187821 238.551736 
L 382.231613 243.081571 
L 381.16387 247.584677 
L 379.985654 252.058174 
L 378.6981 256.499218 
L 377.302413 260.905009 
L 375.799866 265.272787 
L 374.191799 269.599836 
L 372.479618 273.883484 
L 370.664793 278.1211 
L 368.748857 282.310103 
L 366.733405 286.447955 
L 364.620092 290.532166 
L 360.1068 298.529939 
L 355.223392 306.284463 
L 349.985188 313.777573 
L 344.408388 320.99193 
L 338.510053 327.911047 
L 332.308083 334.519325 
L 325.821197 340.802095 
L 325.202372 341.36 
M 88.342392 341.36 
L 84.528295 337.487791 
L 80.041385 332.632689 
L 75.697034 327.612154 
L 71.489239 322.423638 
L 67.414183 317.063425 
L 63.470553 311.526966 
L 59.659748 305.809257 
L 55.985982 299.905223 
L 52.456285 293.810107 
L 49.080408 287.519845 
L 45.870652 281.031418 
L 42.841618 274.343178 
L 40.009918 267.455135 
L 37.393826 260.369195 
L 35.012913 253.089363 
L 32.887656 245.621886 
L 31.039039 237.975354 
L 29.488158 230.160741 
L 28.255834 222.191402 
L 27.362239 214.083027 
L 26.826551 205.853536 
L 26.666635 197.522951 
L 26.898755 189.113217 
L 27.537327 180.648007 
L 28.594707 172.152492 
L 30.081023 163.653095 
L 32.004039 155.177241 
L 33.131068 150.956921 
L 34.369071 146.753087 
L 35.71832 142.569332 
L 37.178931 138.40926 
L 38.75086 134.276478 
L 40.43391 130.174594 
L 42.227725 126.107201 
L 44.131798 122.077878 
L 46.145469 118.090176 
L 48.267929 114.147613 
L 50.498224 110.253672 
L 52.835257 106.411785 
L 55.27779 102.625336 
L 57.824453 98.897652 
L 60.473741 95.231993 
L 63.224024 91.631555 
L 66.07355 88.099458 
L 69.020447 84.638747 
L 72.062733 81.252383 
L 75.198316 77.943242 
L 78.425001 74.714111 
L 81.740497 71.567685 
L 85.142418 68.506562 
L 88.628294 65.533244 
L 92.195568 62.650133 
L 95.841612 59.859528 
L 99.563721 57.163623 
L 103.359126 54.564511 
L 107.224997 52.064174 
L 111.158447 49.664491 
L 115.156537 47.367231 
L 119.216282 45.174055 
L 123.334655 43.086517 
L 127.508592 41.106063 
L 131.734996 39.234031 
L 136.010743 37.47165 
L 140.332682 35.820046 
L 144.697645 34.280235 
L 149.102447 32.853132 
L 153.54389 31.539545 
L 158.018769 30.340182 
L 162.523872 29.255647 
L 167.055987 28.286447 
L 171.611902 27.432987 
L 176.18841 26.69558 
L 180.782311 26.074439 
L 185.390416 25.569687 
L 190.009547 25.181351 
L 194.636542 24.909373 
L 199.268254 24.753601 
L 203.901559 24.713802 
L 208.533351 24.789653 
L 213.160547 24.98075 
L 217.780092 25.286607 
L 222.388953 25.706659 
L 226.984128 26.240261 
L 231.562642 26.886692 
L 236.121553 27.645156 
L 240.657949 28.514782 
L 245.168951 29.494628 
L 249.651713 30.583681 
L 254.103427 31.780856 
L 258.521318 33.085002 
L 262.902648 34.494898 
L 267.244719 36.00926 
L 275.800477 39.345904 
L 284.167783 43.08335 
L 292.32649 47.209001 
L 300.257139 51.709272 
L 307.940997 56.569607 
L 315.36009 61.774493 
L 322.497248 67.307472 
L 329.336152 73.151158 
L 335.861386 79.287251 
L 342.058502 85.69656 
L 347.914087 92.359022 
L 353.415834 99.253743 
L 358.552626 106.359039 
L 363.314618 113.652496 
L 367.693321 121.111039 
L 371.681691 128.711027 
L 375.274208 136.428355 
L 378.466956 144.23859 
L 381.257688 152.117114 
L 383.645881 160.039295 
L 385.632772 167.980682 
L 387.221371 175.917205 
L 388.416453 183.825406 
L 389.224525 191.682672 
L 389.653748 199.467484 
L 389.713848 207.159663 
L 389.415972 214.740621 
L 388.772529 222.193598 
L 387.796983 229.503885 
L 386.503625 236.659021 
L 384.907313 243.64896 
L 383.023188 250.466193 
L 380.866376 257.105817 
L 378.451675 263.565541 
L 375.79324 269.845619 
L 372.904274 275.9487 
L 369.796744 281.879589 
L 366.481111 287.644927 
L 362.966124 293.252769 
L 359.258651 298.712104 
L 355.363587 304.03231 
L 351.283833 309.222585 
L 347.02035 314.291368 
L 342.572296 319.245801 
L 337.937232 324.091238 
L 333.11139 328.830843 
L 328.089989 333.465274 
L 322.867598 337.992478 
L 318.747671 341.36 
M 83.896026 341.36 
L 83.546528 341.051817 
L 80.18782 337.92822 
L 76.909547 334.713561 
L 73.714263 331.410205 
L 70.60443 328.0206 
L 67.582412 324.547265 
L 64.650477 320.992794 
L 61.810792 317.359846 
L 59.065424 313.651139 
L 56.416339 309.869452 
L 53.865401 306.017612 
L 51.414374 302.098497 
L 49.064917 298.115026 
L 46.818588 294.070157 
L 44.676844 289.966884 
L 42.641038 285.808231 
L 40.712425 281.597248 
L 38.892157 277.337008 
L 37.181288 273.030607 
L 35.580773 268.681151 
L 34.09147 264.291763 
L 32.714138 259.865573 
L 31.449444 255.40572 
L 30.297958 250.915343 
L 29.26016 246.397583 
L 28.336436 241.855581 
L 27.527084 237.29247 
L 26.832313 232.71138 
L 26.252243 228.115429 
L 25.78691 223.507725 
L 25.436267 218.891364 
L 25.200181 214.269426 
L 25.078439 209.644976 
L 25.070748 205.021059 
L 25.176737 200.400701 
L 25.395955 195.786909 
L 25.727877 191.182665 
L 26.171901 186.590929 
L 26.727353 182.014636 
L 27.393484 177.456696 
L 28.169474 172.919989 
L 29.054432 168.407371 
L 31.147333 159.465674 
L 33.663662 150.653841 
L 36.593798 141.993599 
L 39.927047 133.506133 
L 43.651648 125.212046 
L 47.754785 117.131325 
L 52.222596 109.283297 
L 57.040178 101.686575 
L 62.191595 94.359009 
L 67.659892 87.317616 
L 73.427106 80.578513 
L 79.474293 74.156837 
L 85.781561 68.066661 
L 92.328112 62.320902 
L 99.092306 56.931227 
L 106.051733 51.907954 
L 113.183315 47.259956 
L 120.463415 42.994566 
L 127.867981 39.117491 
L 135.372705 35.632731 
L 142.953205 32.542523 
L 150.585227 29.847291 
L 158.244874 27.545624 
L 165.90884 25.634282 
L 173.554668 24.108227 
L 181.161007 22.960688 
L 188.707877 22.183256 
L 196.176934 21.76602 
L 203.551709 21.697731 
L 210.817848 21.966005 
L 217.963304 22.557554 
L 224.9785 23.458451 
L 231.856444 24.654415 
L 238.592775 26.131122 
L 245.185742 27.874523 
L 251.636098 29.871173 
L 257.946911 32.108546 
L 264.123272 34.575346 
L 270.171919 37.261774 
L 276.100779 40.159758 
L 281.918444 43.263127 
L 287.633607 46.567708 
L 293.254489 50.071354 
L 298.788277 53.77389 
L 304.240618 57.676974 
L 309.615175 61.783888 
L 314.913277 66.09927 
L 320.133661 70.628789 
L 325.272314 75.378786 
L 330.322413 80.355894 
L 335.274352 85.56665 
L 340.115849 91.017105 
L 344.832121 96.71246 
L 349.406122 102.65672 
L 353.818818 108.85238 
L 358.049507 115.300156 
L 362.076166 121.998755 
L 365.87581 128.944694 
L 369.424867 136.132175 
L 372.699547 143.553 
L 375.676211 151.196545 
L 378.331726 159.049777 
L 380.643793 167.097317 
L 382.591264 175.321548 
L 384.154418 183.702752 
L 385.315212 192.219288 
L 386.057495 200.847786 
L 386.367188 209.56337 
L 386.356016 213.945691 
L 386.232425 218.339892 
L 385.995297 222.742546 
L 385.643662 227.150175 
L 385.1767 231.559264 
L 384.593746 235.96626 
L 383.894284 240.367589 
L 383.077954 244.759655 
L 382.144547 249.138854 
L 381.094003 253.501578 
L 379.926414 257.844221 
L 378.642021 262.163191 
L 377.241209 266.454909 
L 375.724507 270.715824 
L 374.092586 274.942412 
L 372.346255 279.131186 
L 370.486457 283.278701 
L 368.514266 287.381557 
L 366.430885 291.436408 
L 364.23764 295.439964 
L 361.935977 299.388997 
L 359.527457 303.280343 
L 357.013753 307.110909 
L 354.396644 310.877674 
L 351.678012 314.577694 
L 348.859836 318.208105 
L 345.944191 321.766124 
L 342.933237 325.249054 
L 339.829221 328.654284 
L 336.634467 331.979291 
L 333.351376 335.221646 
L 329.982419 338.379009 
L 326.630361 341.36 
M 83.885306 341.36 
L 79.843151 337.843577 
L 73.550883 331.909753 
L 67.593718 325.73083 
L 61.983704 319.328402 
L 56.731444 312.72483 
L 51.845987 305.943117 
L 47.334736 299.00676 
L 43.203351 291.939582 
L 39.455682 284.76553 
L 36.093714 277.508462 
L 33.117536 270.191907 
L 30.525337 262.838811 
L 28.313433 255.471266 
L 26.476327 248.11024 
L 25.006802 240.775297 
L 23.896052 233.484329 
L 23.133847 226.2533 
L 22.708737 219.096014 
L 22.60829 212.02392 
L 22.819357 205.045962 
L 23.328376 198.168483 
L 24.121686 191.395204 
L 25.185869 184.727279 
L 26.508095 178.163445 
L 28.076459 171.700259 
L 29.880307 165.332437 
L 31.910528 159.053273 
L 34.159796 152.855135 
L 36.622752 146.730007 
L 39.296109 140.670056 
L 42.178675 134.668189 
L 45.271292 128.718585 
L 48.576693 122.81715 
L 52.09928 116.961914 
L 55.844844 111.153325 
L 59.820231 105.39446 
L 64.032971 99.691134 
L 68.490893 94.051932 
L 73.201727 88.488157 
L 78.172711 83.013706 
L 83.410222 77.644889 
L 88.919422 72.400196 
L 94.703947 67.300018 
L 100.765632 62.36634 
L 107.104282 57.622408 
L 113.717491 53.09238 
L 120.600507 48.800963 
L 127.746158 44.773062 
L 135.144813 41.033422 
L 142.784403 37.606292 
L 150.650479 34.515099 
L 158.72631 31.782156 
L 166.993026 29.428385 
L 175.429775 27.473081 
L 184.013925 25.933699 
L 188.353765 25.324888 
L 192.721267 24.825684 
L 197.113196 24.437681 
L 201.526248 24.16233 
L 205.957057 24.00094 
L 210.402202 23.954672 
L 214.858215 24.024541 
L 219.321591 24.211414 
L 223.788789 24.516007 
L 228.256245 24.938889 
L 232.72038 25.48048 
L 237.1776 26.141049 
L 241.62431 26.920722 
L 246.056919 27.819476 
L 250.471844 28.837146 
L 254.865518 29.973425 
L 259.234397 31.227866 
L 263.574964 32.599886 
L 267.883737 34.088769 
L 272.15727 35.693667 
L 276.392164 37.413605 
L 280.585066 39.247486 
L 284.732677 41.19409 
L 288.831755 43.252084 
L 292.879119 45.420022 
L 296.871654 47.696347 
L 300.806312 50.079403 
L 304.680117 52.56743 
L 308.490167 55.158574 
L 312.233636 57.850891 
L 315.907778 60.642347 
L 319.509928 63.530829 
L 323.037504 66.514141 
L 326.488009 69.590018 
L 329.85903 72.75612 
L 333.148245 76.010044 
L 336.353417 79.349325 
L 339.472398 82.771438 
L 342.503132 86.273806 
L 345.443649 89.853802 
L 348.292073 93.50875 
L 351.046617 97.235935 
L 353.705582 101.032599 
L 356.267362 104.895949 
L 358.73044 108.823161 
L 361.093387 112.81138 
L 363.354865 116.857723 
L 365.513622 120.959286 
L 367.568495 125.113143 
L 369.518408 129.316348 
L 371.362371 133.565942 
L 373.09948 137.85895 
L 374.728913 142.192389 
L 376.249934 146.563262 
L 377.66189 150.968571 
L 378.96421 155.405308 
L 380.156402 159.870463 
L 381.238058 164.361026 
L 382.208845 168.873986 
L 383.068512 173.406333 
L 383.816886 177.95506 
L 384.45387 182.517166 
L 384.979445 187.089653 
L 385.393666 191.669532 
L 385.888652 200.839547 
L 385.940785 210.003476 
L 385.553215 219.137767 
L 384.730277 228.219089 
L 383.477491 237.224369 
L 381.801563 246.130829 
L 379.710387 254.916037 
L 377.213058 263.557947 
L 374.319874 272.034964 
L 371.042347 280.326001 
L 367.393207 288.410557 
L 363.386401 296.268795 
L 359.037085 303.881634 
L 354.361605 311.23085 
L 354.361605 311.23085 
" style="fill:none;stroke:#0000ff;stroke-linecap:square;"/>
   </g>
   <g id="line2d_2">
    <path clip-path="url(#p6182de9dea)" d="M 314.228956 311.23085 
L 308.799908 305.045348 
L 304.065702 299.958955 
L 298.926812 294.762686 
L 295.897563 291.849644 
L 391.659657 228.195592 
L 355.576111 187.237644 
L 339.978332 169.797528 
L 331.864642 161.041624 
L 326.165067 155.178959 
L 320.638643 149.849218 
L 316.601828 146.256354 
L 312.625995 143.033285 
L 312.665635 143.064271 
L 308.676018 140.208183 
L 308.849012 140.326353 
L 306.385455 138.778886 
L 136.049349 32.971501 
L 136.064429 32.813822 
L 134.273434 52.639977 
L 133.058328 68.777719 
L 132.27781 82.197665 
L 131.846263 93.443893 
L 131.699862 103.14748 
L 131.701172 102.880802 
L 45.383036 298.268772 
L 45.2157 298.328683 
L 55.140254 294.72812 
L 67.196518 290.089303 
L 78.721069 285.350169 
L 88.758032 280.960106 
L 97.623108 276.844555 
L 101.56421 274.935508 
L 101.311313 275.058779 
L 102.010559 341.36 
M 243.455391 341.36 
L 246.352724 339.39847 
L 249.104516 337.068112 
L 251.412023 334.56698 
L 253.260631 331.92835 
L 254.64932 329.192986 
L 255.591506 326.407089 
L 256.117753 323.599615 
L 256.114697 323.619728 
L 256.263201 320.672267 
L 256.258986 320.880044 
" style="fill:none;stroke:#000000;stroke-linecap:square;"/>
   </g>
   <g id="line2d_3">
    <path clip-path="url(#p6182de9dea)" d="M 380.304336 266.563919 
L 380.458811 266.651827 
L 371.261089 261.4689 
L 359.886831 255.345308 
L 348.782907 249.690441 
L 338.913023 244.936635 
L 330.014924 240.892976 
L 325.998895 239.147051 
L 326.257184 239.258584 
L 389.73458 183.565897 
L 389.858394 183.68083 
L 376.70228 171.318156 
L 365.259551 160.197435 
L 354.316871 149.184743 
L 342.422119 136.842819 
L 325.450201 119.174571 
L 318.648849 112.427184 
L 313.004369 107.146056 
L 307.294615 102.201256 
L 302.628679 98.533962 
L 298.733211 95.759796 
L 295.719885 93.807926 
L 291.856827 91.603131 
L 288.02428 89.762749 
L 284.249697 88.322036 
L 280.564743 87.308567 
L 277.003993 86.739367 
L 273.603164 86.618474 
L 270.397022 86.935291 
L 267.417155 87.664033 
L 264.689871 88.764422 
L 262.21722 90.194404 
L 262.23447 90.183618 
L 259.901742 91.991367 
L 260.062109 91.859189 
L 88.945003 61.60935 
L 91.23781 80.918582 
L 93.289912 96.239293 
L 95.322645 109.669061 
L 97.30483 121.205737 
L 99.252802 131.153855 
L 100.860432 138.403248 
L 100.791813 138.106182 
L 98.970152 341.36 
M 115.551079 341.36 
L 124.509964 333.692195 
L 134.442129 324.930692 
L 142.675961 317.404966 
L 145.64454 314.620021 
L 145.387328 314.862136 
L 147.112909 341.36 
M 329.33894 341.36 
L 329.350767 341.334693 
L 329.343585 341.354357 
L 330.323987 338.665569 
L 331.056722 335.922896 
L 331.543777 333.139437 
L 331.7896 330.328728 
L 331.800999 327.504504 
L 331.587003 324.680458 
L 331.158659 321.87001 
L 330.528782 319.08609 
L 329.711687 316.340943 
L 328.722883 313.64596 
L 327.578767 311.011544 
L 326.296319 308.447006 
L 324.892797 305.960494 
L 323.385465 303.558962 
L 320.90001 300.019428 
L 317.652391 296.016835 
L 314.315249 292.408088 
L 310.982548 289.191849 
L 307.730813 286.355611 
L 307.731933 286.356564 
L 304.302843 283.632367 
L 304.625185 283.8833 
" style="fill:none;stroke:#000000;stroke-linecap:square;"/>
   </g>
   <g id="line2d_4">
    <path clip-path="url(#p6182de9dea)" d="M 388.628831 188.938685 
L 388.776578 188.965383 
L 371.019984 185.86903 
L 355.622052 183.457515 
L 342.504234 181.631403 
L 331.43043 180.288498 
L 327.383579 179.851025 
L 327.734835 179.888399 
L 375.013048 133.615719 
L 367.215485 126.466512 
L 367.264528 126.513008 
L 359.764965 119.28718 
L 352.540461 111.992041 
L 345.49102 104.575398 
L 336.196239 94.433669 
L 312.092186 67.766393 
L 304.255451 59.592116 
L 298.807078 54.203898 
L 293.140917 48.911071 
L 293.163989 48.931539 
L 287.264254 43.800483 
L 287.320805 43.846611 
L 281.191431 38.967088 
L 281.281557 39.033346 
L 274.940448 34.509074 
L 275.061857 34.587474 
L 271.757576 32.453902 
L 271.892883 32.534777 
L 268.543365 30.532918 
L 268.690895 30.613679 
L 265.304232 28.759957 
L 245.823601 21.953325 
L 242.66556 21.558361 
L 242.806647 21.565813 
L 239.563751 21.394803 
L 239.687381 21.391918 
L 236.530261 21.465862 
L 236.632673 21.45524 
L 233.576997 21.772458 
L 233.65471 21.757783 
L 230.715463 22.313119 
L 230.7654 22.299172 
L 227.95655 23.083945 
L 227.976147 23.076581 
L 225.29763 24.084707 
L 222.739603 25.315825 
L 220.310706 26.759892 
L 218.018312 28.404714 
L 215.868402 30.236178 
L 213.865482 32.238512 
L 212.012537 34.394594 
L 210.311023 36.686276 
L 208.760904 39.094721 
L 207.360716 41.600742 
L 206.107667 44.185121 
L 204.997759 46.828913 
L 204.025927 49.513714 
L 203.186198 52.221898 
L 202.120462 56.413556 
L 201.200031 61.485102 
L 200.636703 66.367953 
L 200.368242 70.991699 
L 200.3353 75.306434 
L 200.335293 75.304963 
L 200.502901 79.681242 
L 200.483241 79.273216 
L 55.529238 95.08022 
L 55.489272 94.946553 
L 61.050775 113.269992 
L 66.686628 131.049361 
L 71.810686 146.400628 
L 76.216232 158.858557 
L 79.420724 167.408948 
L 82.93031 176.164806 
L 85.764953 182.687488 
L 85.639728 182.407634 
L 146.045877 341.36 
M 191.765962 341.36 
L 197.06081 332.837929 
L 196.987076 332.958687 
L 198.056855 331.190572 
L 197.905141 331.441326 
L 390.008936 248.409559 
L 380.944218 244.354186 
L 372.194821 240.842353 
L 364.043974 237.901001 
L 356.516867 235.455055 
L 349.61748 233.435099 
L 342.305668 231.520022 
L 334.765504 229.800535 
L 328.386955 228.549949 
L 328.386955 228.549949 
" style="fill:none;stroke:#000000;stroke-linecap:square;"/>
   </g>
   <g id="line2d_5">
    <path clip-path="url(#p6182de9dea)" d="M 369.538332 121.420898 
L 369.674499 121.407897 
L 352.414693 123.133814 
L 336.006641 124.998305 
L 320.970259 126.96152 
L 309.685977 128.653601 
L 305.805127 129.294083 
L 306.0942 129.245797 
L 117.941104 37.613079 
L 120.770741 47.131919 
L 123.807265 56.057414 
L 126.886578 64.157147 
L 129.935316 71.460927 
L 132.898226 78.010959 
L 136.209411 84.805528 
L 139.817755 91.645891 
L 143.024965 97.299532 
L 33.268367 131.588103 
L 56.437675 181.012379 
L 66.52717 202.122814 
L 71.864082 212.800602 
L 75.693737 220.024849 
L 79.506416 226.689005 
L 82.375509 231.268618 
L 85.289622 235.476156 
L 85.260247 235.435308 
L 88.290365 239.294409 
L 88.157388 239.13252 
L 90.088994 241.307989 
L 179.827313 341.36 
M 242.41753 341.36 
L 245.562547 331.780984 
L 247.805877 324.434628 
L 247.729936 324.690268 
L 385.312809 161.29433 
L 385.490227 161.283679 
L 374.95446 161.960775 
L 362.081521 163.03759 
L 349.690923 164.359615 
L 338.826145 165.763138 
L 329.163238 167.231324 
L 324.845208 167.960267 
L 325.122507 167.912753 
" style="fill:none;stroke:#000000;stroke-linecap:square;"/>
   </g>
   <g id="line2d_6">
    <path clip-path="url(#p6182de9dea)" d="M 333.973352 70.932609 
L 334.123182 70.881217 
L 315.32738 77.438804 
L 300.128547 82.99746 
L 287.58436 87.829389 
L 277.163956 92.081335 
L 268.266237 95.955821 
L 268.509647 95.846869 
L 54.914426 97.935169 
L 54.790751 97.807518 
L 62.168937 105.358889 
L 71.373128 114.422826 
L 80.449071 122.961089 
L 88.592698 130.28875 
L 96.002304 136.662531 
L 99.368681 139.463289 
L 99.151963 139.283884 
L 22.617782 174.971057 
L 22.53111 174.826048 
L 31.69859 190.378423 
L 39.569057 204.258705 
L 46.98974 217.89524 
L 54.952143 233.074448 
L 66.296902 254.788716 
L 70.936478 263.170837 
L 74.876103 269.821387 
L 78.97258 276.167348 
L 82.424775 280.994599 
L 85.387456 284.74869 
L 87.733577 287.466343 
L 90.824598 290.66477 
L 93.988382 293.50482 
L 97.208451 295.944962 
L 100.462127 297.949855 
L 103.720988 299.493473 
L 106.951876 300.561937 
L 110.118449 301.155684 
L 113.183162 301.290619 
L 116.109479 300.998044 
L 118.883655 300.317753 
L 118.864075 300.323277 
L 121.609723 299.24115 
L 121.418756 299.323128 
L 206.634223 341.36 
M 282.809801 341.36 
L 284.553836 328.361517 
L 285.881836 316.731368 
L 286.797802 306.635792 
L 287.284707 299.226264 
L 287.267387 299.53066 
L 349.921277 91.706877 
L 350.059649 91.648609 
L 333.491023 98.745414 
L 319.272552 105.128735 
L 307.284148 110.758124 
L 297.272201 115.676807 
L 293.642481 117.518956 
L 293.957205 117.358562 
" style="fill:none;stroke:#000000;stroke-linecap:square;"/>
   </g>
   <g id="line2d_7">
    <path clip-path="url(#p6182de9dea)" d="M 288.352282 39.912501 
L 288.437054 39.86186 
L 271.798734 49.925146 
L 258.693423 58.121861 
L 247.302232 65.51993 
L 237.61424 72.090072 
L 229.358849 77.972943 
L 223.420672 82.431218 
L 223.662874 82.24603 
L 25.183944 170.122928 
L 25.049586 170.055922 
L 41.228507 178.001142 
L 55.334939 184.62838 
L 67.416441 190.055089 
L 77.671042 194.445498 
L 81.433442 195.998793 
L 81.106708 195.864544 
L 22.761588 227.045264 
L 28.244982 236.092117 
L 28.210923 236.033747 
L 33.386783 245.070699 
L 38.27918 254.097158 
L 42.969493 263.191232 
L 49.052131 275.53016 
L 64.723436 307.880727 
L 69.957362 317.922601 
L 73.678737 324.621036 
L 77.6359 331.288889 
L 77.619483 331.262779 
L 81.846177 337.840746 
L 81.804807 337.780627 
L 84.279437 341.36 
M 170.954927 341.36 
L 172.145502 338.22943 
L 173.536206 333.974836 
L 174.687536 329.780024 
L 174.635356 329.978622 
L 175.184237 327.693441 
L 175.088842 328.090646 
L 250.038011 341.36 
M 318.56087 341.36 
L 318.198789 321.833956 
L 317.637508 304.806258 
L 316.902972 290.146769 
L 316.155177 279.394372 
L 315.268498 269.789369 
L 314.414064 262.642175 
L 314.443779 262.870854 
L 314.178023 260.941582 
L 314.219864 261.245307 
L 297.074572 45.551438 
L 297.181574 45.466226 
L 283.661149 56.332588 
L 270.930062 66.850187 
L 259.402212 76.701871 
L 250.870355 84.278518 
L 247.968065 86.93331 
L 248.183932 86.735078 
" style="fill:none;stroke:#000000;stroke-linecap:square;"/>
   </g>
   <g id="line2d_8">
    <path clip-path="url(#p6182de9dea)" d="M 244.152942 23.253732 
L 244.258169 23.162127 
L 229.867681 35.795122 
L 216.003397 48.271116 
L 204.13905 59.278143 
L 194.612961 68.435788 
L 188.149482 74.885702 
L 181.624889 81.698334 
L 176.855329 86.973925 
L 177.058476 86.744293 
L 24.602051 240.285312 
L 24.467691 240.259659 
L 41.520191 243.436446 
L 57.793826 246.241669 
L 72.778327 248.56798 
L 84.084938 250.103792 
L 87.989863 250.575778 
L 87.698835 250.541177 
L 187.753012 341.36 
M 238.445493 341.36 
L 237.305658 335.582238 
L 235.733871 328.640314 
L 235.784749 328.855011 
L 235.296221 326.876954 
L 350.263473 324.697985 
L 341.862649 270.76282 
L 338.088904 247.67154 
L 335.955884 235.926413 
L 334.302636 227.918743 
L 332.508832 220.453506 
L 331.037075 215.253652 
L 329.4179 210.398377 
L 329.43466 210.445817 
L 327.606541 205.892548 
L 327.68886 206.085199 
L 326.443791 203.455832 
L 239.717978 22.65698 
L 239.815475 22.532143 
L 227.645064 38.285402 
L 217.943437 51.238457 
L 210.069563 62.133698 
L 203.658711 71.383825 
L 198.317742 79.486607 
L 198.462236 79.262464 
" style="fill:none;stroke:#000000;stroke-linecap:square;"/>
   </g>
   <g id="line2d_9">
    <path clip-path="url(#p6182de9dea)" d="M 201.710203 18.058949 
L 166.268009 59.573124 
L 151.209517 77.480949 
L 143.689315 86.751567 
L 138.691789 93.2231 
L 134.197337 99.447841 
L 131.211596 103.952273 
L 128.583307 108.344028 
L 128.608375 108.300404 
L 126.345327 112.653896 
L 126.437839 112.465927 
L 125.254396 115.123601 
L 44.604553 298.713345 
L 44.446326 298.72072 
L 64.326476 297.689337 
L 80.473838 296.609572 
L 93.869258 295.484017 
L 105.063454 294.320467 
L 114.690186 293.092842 
L 114.426004 293.129266 
L 285.976171 341.36 
M 314.941217 341.36 
L 308.876311 330.505081 
L 302.554699 319.766744 
L 296.789066 310.451662 
L 291.460946 302.257855 
L 289.013632 298.626409 
L 289.171435 298.859327 
L 372.637351 286.033723 
L 372.679945 286.197202 
L 368.234775 268.699787 
L 364.566444 253.170787 
L 361.261639 238.001744 
L 357.868818 221.200048 
L 353.059143 197.177558 
L 350.952649 187.831527 
L 349.033168 180.3438 
L 346.877809 173.104548 
L 344.915635 167.503666 
L 343.122847 163.070091 
L 341.631689 159.80415 
L 339.560082 155.868063 
L 337.318258 152.255633 
L 334.910407 149.011348 
L 332.348401 146.175483 
L 329.652237 143.780983 
L 326.84986 141.850457 
L 323.976277 140.393664 
L 321.071988 139.40585 
L 318.180831 138.867197 
L 315.327148 138.743353 
L 315.347491 138.743533 
L 312.408659 139.013435 
L 312.614943 138.988218 
L 184.604013 21.475161 
L 176.154772 38.988405 
L 169.647175 53.009336 
L 164.13999 65.425517 
L 159.608085 76.218376 
L 155.901487 85.653459 
L 153.359012 92.630134 
L 153.460887 92.342769 
" style="fill:none;stroke:#000000;stroke-linecap:square;"/>
   </g>
   <g id="line2d_10">
    <path clip-path="url(#p6182de9dea)" d="M 157.801528 26.277457 
L 157.897792 26.138631 
L 147.520323 40.911146 
L 138.129966 53.811831 
L 128.775821 66.202214 
L 118.240477 79.723114 
L 103.150518 99.023531 
L 97.433009 106.710905 
L 93.00338 113.045639 
L 88.915931 119.397418 
L 85.945497 124.535173 
L 83.750229 128.783876 
L 82.244213 132.042992 
L 80.608008 136.179074 
L 79.328236 140.233406 
L 78.435917 144.173824 
L 77.953868 147.965082 
L 77.894052 151.570543 
L 78.255415 154.954279 
L 79.022549 158.083372 
L 80.165461 160.930199 
L 81.640555 163.474415 
L 83.405912 165.719936 
L 83.392794 165.704386 
L 85.512328 167.757957 
L 85.358795 167.617899 
L 79.617288 341.29332 
L 98.408065 336.292311 
L 113.284471 332.093755 
L 126.291685 328.181845 
L 137.431992 324.587749 
L 147.004551 321.25222 
L 153.95366 318.63534 
L 153.669287 318.745289 
L 368.816147 289.969194 
L 368.926364 290.071147 
L 355.619917 277.912919 
L 343.933927 267.600338 
L 333.855628 259.007332 
L 325.240908 251.920785 
L 322.064065 249.375978 
L 322.340127 249.596357 
L 387.082779 236.002999 
L 384.352392 225.782522 
L 384.368742 225.848095 
L 381.93081 215.723248 
L 379.762059 205.687859 
L 377.806243 195.644155 
L 375.422542 182.095517 
L 369.438163 146.650684 
L 367.22592 135.544865 
L 365.529365 128.072291 
L 363.597893 120.563043 
L 363.606341 120.592705 
L 361.390951 113.094262 
L 361.413829 113.163561 
L 358.869573 105.753721 
L 358.909936 105.858046 
L 355.996142 98.633885 
L 356.056352 98.765268 
L 354.417577 95.189681 
L 354.488175 95.330624 
L 352.740438 91.841767 
L 352.821402 91.989185 
L 350.962694 88.605255 
L 338.197624 72.391737 
L 335.747315 70.360675 
L 335.862265 70.442819 
L 333.219994 68.554957 
L 333.325783 68.619 
L 330.624124 66.98379 
L 330.716183 67.0299 
L 327.969249 65.654349 
L 328.042664 65.683762 
L 325.265862 64.571582 
L 325.315465 64.586674 
L 322.52524 63.738054 
L 322.545723 63.742382 
L 319.745292 63.152161 
L 316.926551 62.81474 
L 314.102185 62.726296 
L 311.284965 62.880515 
L 308.487524 63.268712 
L 305.722141 63.880011 
L 303.000539 64.701582 
L 300.333705 65.718906 
L 297.731735 66.916082 
L 295.203713 68.276144 
L 292.757617 69.781389 
L 290.400263 71.413693 
L 288.137277 73.154816 
L 285.9731 74.986684 
L 282.820716 77.94781 
L 279.317736 81.728936 
L 276.217305 85.542975 
L 273.504808 89.2971 
L 271.157038 92.917321 
L 271.157823 92.916078 
L 268.946054 96.696022 
L 269.14887 96.341427 
L 138.432792 31.728493 
L 138.470966 31.594304 
L 133.307752 50.033933 
L 128.499767 68.054812 
L 124.565835 83.753269 
L 121.581816 96.625893 
L 119.686189 105.558113 
L 117.937321 114.827618 
L 116.820139 121.851326 
L 116.865031 121.548037 
" style="fill:none;stroke:#000000;stroke-linecap:square;"/>
   </g>
   <g id="line2d_11">
    <path clip-path="url(#p6182de9dea)" d="M 110.435898 47.916332 
L 104.461522 56.646737 
L 104.500613 56.591611 
L 98.408236 65.037851 
L 92.208337 73.221601 
L 85.863393 81.249235 
L 77.138362 91.885091 
L 54.14868 119.518829 
L 47.165081 128.433008 
L 42.6017 134.588754 
L 38.163557 140.946606 
L 38.180555 140.920871 
L 33.935595 147.487066 
L 33.97326 147.424558 
L 30.009785 154.182506 
L 30.062629 154.083913 
L 26.480783 161.001216 
L 26.541222 160.869939 
L 24.896486 164.442787 
L 24.957409 164.297401 
L 23.449461 167.8964 
L 23.508541 167.738931 
L 22.152494 171.353749 
L 18.169797 191.6013 
L 18.225503 194.783456 
L 18.212924 194.642734 
L 18.502334 197.877213 
L 18.481992 197.755234 
L 19.001761 200.870152 
L 18.97676 200.770273 
L 19.723008 203.750356 
L 19.697487 203.6755 
L 20.662991 206.506643 
L 20.642121 206.459181 
L 21.81631 209.128786 
L 21.806248 209.110428 
L 23.183109 211.619416 
L 24.763678 213.977585 
L 26.536788 216.1778 
L 28.489327 218.214489 
L 30.606478 220.083726 
L 32.871989 221.783281 
L 35.268489 223.312623 
L 37.777805 224.672875 
L 40.381296 225.866738 
L 43.060175 226.898376 
L 45.795811 227.773271 
L 48.570016 228.498061 
L 51.365287 229.080362 
L 54.16502 229.528581 
L 58.46528 229.990699 
L 63.616028 230.184515 
L 68.529467 230.051509 
L 73.144697 229.663251 
L 77.42071 229.085551 
L 77.419255 229.085765 
L 81.727826 228.300826 
L 81.326683 228.378004 
L 110.241117 341.36 
M 175.396923 341.36 
L 183.939164 336.737205 
L 192.320414 331.96259 
L 198.476604 328.232476 
L 198.280615 328.353988 
L 199.927878 327.315123 
L 199.668551 327.478674 
L 389.023863 222.777328 
L 389.145662 222.839582 
L 373.665186 215.01433 
L 358.82835 207.763896 
L 345.094943 201.334236 
L 334.670876 196.693441 
L 331.054387 195.146761 
L 331.324079 195.26148 
L 221.954423 16.833846 
L 219.222012 26.381049 
L 216.983074 35.53922 
L 215.224216 44.024164 
L 213.867557 51.821565 
L 212.843817 58.937302 
L 211.982236 66.446483 
L 211.346579 74.154054 
L 211.0108 80.645364 
L 100.033754 50.540346 
L 92.993773 104.669954 
L 90.149755 127.894078 
L 88.908177 139.766579 
L 88.252707 147.916816 
L 87.884079 155.585689 
L 87.840714 160.989638 
L 88.035369 166.104082 
L 88.032564 166.053846 
L 88.51238 170.936884 
L 88.487307 170.728888 
L 88.946195 173.601725 
L 88.946195 173.601725 
" style="fill:none;stroke:#000000;stroke-linecap:square;"/>
   </g>
   <g id="line2d_12">
    <path clip-path="url(#p6182de9dea)" d="M 332.230058 311.23085 
L 336.932127 304.966161 
L 341.361729 298.441163 
L 345.503092 291.670653 
L 349.341366 284.670283 
L 352.862649 277.456483 
L 356.054005 270.046387 
L 358.903477 262.457778 
L 361.400095 254.709027 
L 363.533882 246.819044 
L 365.295862 238.807238 
L 366.67807 230.69347 
L 367.673556 222.498023 
L 368.276403 214.241564 
L 368.481742 205.945112 
L 368.285769 197.630004 
L 367.68577 189.317858 
L 366.680148 181.030538 
L 365.268447 172.790112 
L 363.451388 164.618804 
L 361.230899 156.538944 
L 358.610151 148.572913 
L 355.593584 140.743073 
L 352.186945 133.071702 
L 348.397313 125.580912 
L 344.233126 118.292566 
L 339.704197 111.22818 
L 334.821733 104.408829 
L 329.598333 97.855032 
L 324.047995 91.586647 
L 318.186094 85.622746 
L 312.029361 79.981495 
L 305.595851 74.680023 
L 298.904883 69.7343 
L 291.976986 65.158998 
L 284.833814 60.967373 
L 277.498051 57.17113 
L 269.993302 53.780309 
L 262.343965 50.803168 
L 254.575089 48.24608 
L 246.712214 46.113443 
L 238.7812 44.4076 
L 230.80804 43.128783 
L 222.818661 42.275067 
L 214.838721 41.842359 
L 206.89339 41.824399 
L 199.007138 42.212793 
L 191.203514 42.997079 
L 183.504933 44.164813 
L 175.93247 45.70169 
L 168.505669 47.591702 
L 161.242367 49.817309 
L 154.158536 52.359662 
L 147.268165 55.198829 
L 140.583156 58.314065 
L 134.113271 61.684091 
L 127.866107 65.287393 
L 121.847118 69.102535 
L 116.059678 73.108469 
L 110.505191 77.28486 
L 105.18324 81.612387 
L 100.091785 86.073047 
L 95.227393 90.650423 
L 90.58551 95.329936 
L 86.160758 100.099056 
L 81.947263 104.947469 
L 77.938989 109.86719 
L 74.130083 114.852622 
L 70.515215 119.900541 
L 67.089904 125.010005 
L 63.850805 130.182194 
L 60.795967 135.420153 
L 57.925028 140.728472 
L 55.239349 146.112894 
L 52.74208 151.579867 
L 50.438151 157.136071 
L 48.334191 162.787927 
L 46.438387 168.541135 
L 44.760285 174.400245 
L 43.310549 180.368288 
L 42.100697 186.446481 
L 41.142808 192.634012 
L 40.449242 198.927898 
L 40.032349 205.322929 
L 39.904199 211.811671 
L 40.076331 218.38453 
L 40.559517 225.029872 
L 41.363563 231.734173 
L 42.497126 238.482204 
L 43.967572 245.257239 
L 45.780857 252.041269 
L 47.941437 258.815232 
L 50.452209 265.559235 
L 53.31448 272.252773 
L 56.527958 278.874944 
L 60.090766 285.404641 
L 63.999478 291.820739 
L 68.249164 298.102254 
L 72.833455 304.228492 
L 77.744616 310.179176 
L 82.973617 315.934548 
L 88.510219 321.475469 
L 94.343055 326.783483 
L 100.459704 331.840883 
L 106.846773 336.630755 
L 113.489965 341.137012 
L 113.845265 341.36 
M 297.933399 341.36 
L 301.566782 338.903007 
L 308.299875 333.943625 
L 314.755265 328.646739 
L 320.913442 323.027796 
L 326.755864 317.103665 
L 332.265102 310.892591 
L 337.424971 304.414136 
L 342.220675 297.6891 
L 346.638937 290.739432 
L 350.668129 283.588115 
L 354.2984 276.259045 
L 357.521784 268.776884 
L 360.332302 261.166899 
L 362.72605 253.45479 
L 364.701265 245.666495 
L 366.258369 237.827993 
L 367.400001 229.965088 
L 368.131007 222.103189 
L 368.458415 214.26709 
L 368.391372 206.480739 
L 367.941057 198.767024 
L 367.120555 191.147556 
L 365.944705 183.642473 
L 364.429909 176.270255 
L 362.593918 169.047567 
L 360.455585 161.989127 
L 358.034595 155.107609 
L 355.351171 148.413575 
L 352.425763 141.915458 
L 349.278728 135.619575 
L 345.93 129.530192 
L 342.398762 123.64963 
L 338.703128 117.978414 
L 334.859834 112.515469 
L 330.883956 107.258348 
L 326.788659 102.203502 
L 322.584985 97.346572 
L 318.281691 92.682713 
L 313.885146 88.206923 
L 309.399297 83.914382 
L 304.825708 79.800785 
L 300.163687 75.862657 
L 295.410494 72.097634 
L 290.561635 68.504709 
L 285.611234 65.084416 
L 280.552461 61.838963 
L 275.378008 58.772283 
L 270.080579 55.890033 
L 264.653373 53.19951 
L 259.090537 50.70952 
L 253.387561 48.430192 
L 247.541611 46.372755 
L 241.551784 44.549283 
L 235.419282 42.972431 
L 229.147517 41.655165 
L 222.742142 40.610484 
L 216.211021 39.851166 
L 209.564148 39.389523 
L 202.813523 39.237174 
L 195.972998 39.404844 
L 189.05809 39.90219 
L 182.085783 40.737655 
L 175.074318 41.918348 
L 168.042978 43.449949 
L 161.011876 45.336654 
L 154.001746 47.581129 
L 147.033748 50.184502 
L 140.12928 53.14637 
L 133.309811 56.464819 
L 126.596729 60.136474 
L 120.011201 64.156543 
L 113.574063 68.518883 
L 107.30571 73.216066 
L 101.226021 78.239448 
L 95.354281 83.579239 
L 89.70913 89.224572 
L 84.308513 95.163569 
L 79.169648 101.383403 
L 74.308994 107.870353 
L 69.742226 114.609855 
L 65.484218 121.586547 
L 61.549022 128.784315 
L 57.949848 136.186319 
L 54.699046 143.775037 
L 51.808085 151.532284 
L 49.287526 159.439246 
L 47.146996 167.476507 
L 45.395153 175.624072 
L 44.039656 183.8614 
L 43.087121 192.167434 
L 42.54308 200.520637 
L 42.411935 208.899032 
L 42.696912 217.280247 
L 43.400009 225.64157 
L 44.521949 233.960006 
L 46.062129 242.212344 
L 48.01857 250.375235 
L 50.387879 258.425273 
L 53.165198 266.339091 
L 56.34418 274.093459 
L 59.916947 281.665396 
L 63.874083 289.032287 
L 68.204609 296.172008 
L 72.895995 303.063057 
L 77.934164 309.684695 
L 83.303518 316.017085 
L 88.986983 322.041441 
L 94.966059 327.740171 
L 101.220899 333.097027 
L 107.730392 338.097249 
L 112.423027 341.36 
M 288.624747 341.36 
L 293.392728 338.39345 
L 298.706424 334.855055 
L 303.845065 331.194538 
L 308.812826 327.417706 
L 313.613875 323.527927 
L 318.252041 319.526167 
L 322.730495 315.411114 
L 327.05145 311.179389 
L 331.215899 306.825846 
L 335.223405 302.343946 
L 339.071938 297.726196 
L 342.757788 292.964629 
L 346.275536 288.051291 
L 349.618093 282.978724 
L 352.776801 277.740409 
L 355.741582 272.331161 
L 358.50114 266.747451 
L 361.04318 260.987655 
L 363.354663 255.052233 
L 365.422062 248.943831 
L 367.23163 242.667318 
L 368.769653 236.229768 
L 370.022704 229.64039 
L 370.977867 222.910416 
L 371.622953 216.052962 
L 371.946685 209.082859 
L 371.938856 202.016468 
L 371.59047 194.871481 
L 370.893841 187.666727 
L 369.842678 180.421962 
L 368.432135 173.157678 
L 366.658845 165.894911 
L 364.520922 158.655064 
L 362.017957 151.459741 
L 359.150988 144.330603 
L 355.922462 137.289225 
L 352.336188 130.35699 
L 348.397281 123.55498 
L 344.112101 116.903891 
L 339.488199 110.423964 
L 334.534253 104.134923 
L 329.260011 98.055925 
L 323.676237 92.205521 
L 317.794666 86.601619 
L 311.627954 81.261462 
L 305.189639 76.201595 
L 298.494109 71.437845 
L 291.556568 66.985299 
L 284.393008 62.858273 
L 277.020187 59.070294 
L 269.455603 55.63406 
L 261.717474 52.561416 
L 253.824713 49.863309 
L 245.796903 47.549753 
L 237.654271 45.629779 
L 229.417659 44.111389 
L 221.108484 43.001501 
L 212.748696 42.305897 
L 204.360735 42.029163 
L 195.967471 42.174634 
L 187.592141 42.744333 
L 179.258279 43.738914 
L 170.989628 45.157606 
L 162.810061 46.998167 
L 154.743468 49.256827 
L 146.813657 51.928255 
L 139.044231 55.005525 
L 131.458463 58.480087 
L 124.07916 62.341757 
L 116.928524 66.578717 
L 110.028001 71.177524 
L 103.398134 76.123136 
L 97.058402 81.398958 
L 91.027072 86.986901 
L 85.321035 92.867457 
L 79.955663 99.019802 
L 74.944655 105.421903 
L 70.29991 112.050663 
L 66.031391 118.882068 
L 62.147023 125.891361 
L 58.652597 133.053233 
L 55.551698 140.342027 
L 52.845658 147.731956 
L 50.533537 155.197328 
L 48.612133 162.712786 
L 47.076019 170.253544 
L 45.917625 177.795624 
L 45.127345 185.316087 
L 44.693685 192.793257 
L 44.60344 200.20692 
L 44.841919 207.538514 
L 45.393185 214.77128 
L 46.240336 221.890395 
L 47.365811 228.883058 
L 48.75171 235.738546 
L 50.380135 242.448225 
L 52.233538 249.005515 
L 54.295073 255.405815 
L 56.548936 261.646382 
L 58.980693 267.726166 
L 61.577585 273.645602 
L 64.328792 279.406372 
L 67.225653 285.011121 
L 70.261832 290.463161 
L 73.433403 295.76614 
L 76.738868 300.923714 
L 80.179078 305.939206 
L 83.757064 310.815286 
L 87.477782 315.553665 
L 91.347766 320.154834 
L 95.374719 324.617845 
L 99.567055 328.940151 
L 103.933414 333.117513 
L 108.482182 337.143968 
L 113.675406 341.36 
M 296.99231 341.36 
L 301.006715 338.447448 
L 307.38621 333.417673 
L 313.544946 328.068318 
L 319.464627 322.410445 
L 325.12755 316.456058 
L 330.516631 310.218073 
L 335.615434 303.710297 
L 340.4082 296.947408 
L 344.87988 289.944929 
L 349.016175 282.719222 
L 352.80357 275.287459 
L 356.229384 267.667611 
L 359.281813 259.878426 
L 361.949991 251.939401 
L 364.224036 243.870759 
L 366.095123 235.693416 
L 367.555535 227.428934 
L 368.598738 219.099482 
L 369.219441 210.727778 
L 369.41367 202.337024 
L 369.178826 193.950839 
L 368.513756 185.593167 
L 367.418809 177.288196 
L 365.895897 169.060245 
L 363.948538 160.933662 
L 361.581903 152.932693 
L 358.802847 145.081358 
L 355.619931 137.403307 
L 352.043428 129.921672 
L 348.085323 122.658916 
L 343.759289 115.636671 
L 339.080649 108.875578 
L 334.066326 102.395118 
L 328.734761 96.213453 
L 323.105826 90.347263 
L 317.200704 84.811591 
L 311.041758 79.6197 
L 304.652376 74.782936 
L 298.056791 70.310611 
L 291.279897 66.209903 
L 284.347034 62.485779 
L 277.283766 59.140943 
L 270.11565 56.175809 
L 262.86799 53.588514 
L 255.565593 51.374954 
L 248.232526 49.528865 
L 240.891875 48.041933 
L 233.565516 46.903947 
L 226.273904 46.102988 
L 219.035883 45.62565 
L 211.868518 45.457299 
L 204.786965 45.582359 
L 197.804371 45.984627 
L 190.931816 46.647608 
L 184.178296 47.554861 
L 177.550746 48.690358 
L 171.054119 50.038843 
L 164.691496 51.586177 
L 158.464249 53.319666 
L 152.372248 55.228361 
L 146.414095 57.303315 
L 140.58741 59.537786 
L 134.889136 61.927373 
L 129.315867 64.470075 
L 123.86419 67.166264 
L 118.531037 70.018564 
L 113.31401 73.031638 
L 108.211701 76.211885 
L 103.223958 79.567066 
L 98.352112 83.105868 
L 93.599138 86.837447 
L 88.969751 90.770945 
L 84.47044 94.915046 
L 80.109424 99.277549 
L 75.896562 103.865008 
L 71.843201 108.682421 
L 67.961986 113.733001 
L 64.266645 119.017996 
L 60.771738 124.53658 
L 57.49241 130.285804 
L 54.444133 136.260589 
L 51.642449 142.453767 
L 49.102733 148.856161 
L 46.839966 155.456693 
L 44.868525 162.242514 
L 43.202003 169.199159 
L 41.853052 176.310707 
L 40.833242 183.559952 
L 40.152965 190.928579 
L 39.821346 198.397339 
L 39.846186 205.946212 
L 40.233931 213.554573 
L 40.989649 221.201338 
L 42.117034 228.865108 
L 43.618418 236.524292 
L 45.494794 244.157218 
L 47.745851 251.742235 
L 50.370011 259.257799 
L 53.364467 266.682545 
L 56.725225 273.995352 
L 60.447146 281.175399 
L 64.523982 288.202204 
L 68.948412 295.055674 
L 73.712071 301.716132 
L 78.805581 308.164355 
L 84.218572 314.381604 
L 89.9397 320.349654 
L 95.956666 326.05083 
L 102.256228 331.468038 
L 108.824215 336.584808 
L 115.608594 341.36 
M 298.511939 341.36 
L 302.926974 338.145618 
L 309.242256 333.082879 
L 315.253117 327.720241 
L 320.945017 322.07925 
L 326.305309 316.182582 
L 331.323365 310.053862 
L 335.990686 303.717474 
L 340.300978 297.198344 
L 344.250216 290.521711 
L 347.836665 283.712889 
L 351.06088 276.797017 
L 353.925656 269.798805 
L 356.435959 262.742283 
L 358.598803 255.650551 
L 360.423094 248.545546 
L 361.919437 241.447817 
L 363.099905 234.376328 
L 363.977775 227.348286 
L 364.567226 220.378997 
L 364.883021 213.481764 
L 364.940163 206.667816 
L 364.753536 199.946288 
L 364.337545 193.324239 
L 363.705749 186.80672 
L 362.870522 180.396886 
L 361.842719 174.096154 
L 360.631397 167.904408 
L 359.243565 161.820245 
L 357.684014 155.841261 
L 355.955206 149.964367 
L 354.057255 144.186133 
L 351.987997 138.503148 
L 349.743156 132.912381 
L 347.316596 127.411533 
L 344.700657 121.999354 
L 341.886547 116.675934 
L 338.864787 111.442923 
L 335.625655 106.303696 
L 332.159639 101.263447 
L 328.457855 96.329211 
L 324.512422 91.509819 
L 320.316785 86.815797 
L 315.865975 82.259211 
L 311.156817 77.853471 
L 306.188066 73.61311 
L 300.960501 69.553537 
L 295.476962 65.690785 
L 289.742346 62.041257 
L 283.763561 58.62147 
L 277.549458 55.447821 
L 271.110719 52.536359 
L 264.459745 49.90259 
L 257.610506 47.561286 
L 250.578398 45.526338 
L 243.38008 43.810622 
L 236.033321 42.425895 
L 228.556833 41.382712 
L 220.970124 40.69037 
L 213.293347 40.35687 
L 205.547164 40.388894 
L 197.75262 40.791805 
L 189.931029 41.569652 
L 182.103866 42.72519 
L 174.292684 44.259904 
L 166.519028 46.174036 
L 158.804373 48.466621 
L 151.170059 51.135517 
L 143.637242 54.177435 
L 136.226853 57.587969 
L 128.95955 61.361624 
L 121.855692 65.491834 
L 114.935296 69.970983 
L 108.218008 74.790419 
L 101.723066 79.940468 
L 95.469263 85.410439 
L 89.474909 91.188631 
L 83.757788 97.262344 
L 78.335107 103.617877 
L 73.223444 110.240539 
L 68.438696 117.114655 
L 63.996008 124.223577 
L 59.909713 131.549702 
L 56.193255 139.074489 
L 52.859118 146.778486 
L 49.91874 154.641366 
L 47.382438 162.641968 
L 45.259317 170.758347 
L 43.557193 178.96784 
L 42.282502 187.247129 
L 41.440222 195.572331 
L 41.033792 203.91909 
L 41.06504 212.262679 
L 41.53411 220.578122 
L 42.439409 228.840317 
L 43.777551 237.024179 
L 45.543323 245.10479 
L 47.729658 253.057553 
L 50.327624 260.858362 
L 53.326434 268.483776 
L 56.713469 275.911196 
L 60.474324 283.119043 
L 64.592876 290.086944 
L 69.051372 296.795905 
L 73.830538 303.228484 
L 78.909716 309.368955 
L 84.267021 315.203454 
L 89.879517 320.720118 
L 95.723419 325.909192 
L 101.774311 330.76312 
L 108.007378 335.276605 
L 114.397657 339.446639 
L 117.573355 341.36 
M 298.344472 341.36 
L 301.577146 339.373632 
L 306.817437 335.884139 
L 311.957769 332.1226 
L 316.985313 328.083972 
L 321.885861 323.76497 
L 326.644047 319.164184 
L 331.243597 314.282157 
L 335.667582 309.121417 
L 339.898673 303.686467 
L 343.919387 297.983749 
L 347.712323 292.021569 
L 351.260379 285.810007 
L 354.546955 279.360806 
L 357.556121 272.68724 
L 360.272775 265.803982 
L 362.682765 258.726956 
L 364.772994 251.473195 
L 366.531501 244.060696 
L 367.947514 236.508276 
L 369.011494 228.835447 
L 369.715158 221.062281 
L 370.051481 213.209305 
L 370.014698 205.297391 
L 369.600292 197.347662 
L 368.804974 189.381415 
L 367.626662 181.420044 
L 366.06446 173.484977 
L 364.118629 165.597625 
L 361.790571 157.779328 
L 359.082804 150.051317 
L 355.998948 142.434673 
L 352.543711 134.95029 
L 348.722878 127.61884 
L 344.543307 120.460735 
L 340.012922 113.496093 
L 335.140715 106.744694 
L 329.936745 100.22594 
L 324.412141 93.958801 
L 318.5791 87.96177 
L 312.450893 82.252798 
L 306.041855 76.849235 
L 299.367388 71.767759 
L 292.443944 67.024301 
L 285.289013 62.63397 
L 277.9211 58.610966 
L 270.359694 54.968495 
L 262.62523 51.718674 
L 254.739041 48.872447 
L 246.723298 46.439482 
L 238.600938 44.428087 
L 230.395589 42.84511 
L 222.131469 41.695858 
L 213.833284 40.984009 
L 205.526107 40.711534 
L 197.23525 40.87863 
L 188.986119 41.483662 
L 180.804063 42.523111 
L 172.714209 43.991547 
L 164.741287 45.881605 
L 156.909455 48.183991 
L 149.242112 50.887497 
L 141.761707 53.979044 
L 134.489554 57.443742 
L 127.445647 61.264981 
L 120.648474 65.424533 
L 114.114856 69.902695 
L 107.859782 74.678439 
L 101.896272 79.7296 
L 96.23526 85.033076 
L 90.885499 90.56505 
L 85.853499 96.301235 
L 81.143495 102.217127 
L 76.757449 108.288266 
L 72.695099 114.490513 
L 68.954038 120.800314 
L 65.529839 127.194973 
L 62.416223 133.652903 
L 59.605265 140.153868 
L 57.087639 146.679203 
L 54.852898 153.212004 
L 52.889783 159.737288 
L 51.186565 166.242118 
L 49.731394 172.715684 
L 48.512664 179.149338 
L 47.519384 185.536589 
L 46.741527 191.873035 
L 46.170368 198.15625 
L 45.798784 204.385619 
L 45.621504 210.562109 
L 45.635298 216.687995 
L 45.839097 222.766537 
L 46.234023 228.801616 
L 46.823331 234.797339 
L 47.612269 240.757633 
L 48.607841 246.685841 
L 49.818509 252.584341 
L 51.253839 258.454202 
L 52.924107 264.294907 
L 54.839898 270.104134 
L 57.011712 275.877618 
L 59.449588 281.609087 
L 62.162767 287.290273 
L 65.159396 292.910984 
L 68.446281 298.459236 
L 72.028686 303.921427 
L 75.910178 309.282545 
L 80.092522 314.526403 
L 84.57561 319.635885 
L 89.357435 324.593199 
L 94.434094 329.380126 
L 99.799825 333.978265 
L 105.447067 338.369262 
L 109.653959 341.36 
L 109.653959 341.36 
" style="fill:none;stroke:#0000ff;stroke-linecap:square;"/>
   </g>
   <g id="line2d_13">
    <path clip-path="url(#p6182de9dea)" d="M 306.40992 311.23085 
L 311.143009 306.231443 
L 315.666278 300.975591 
L 319.964624 295.474097 
L 324.023555 289.738612 
L 327.82922 283.781588 
L 331.368444 277.616234 
L 334.628749 271.256477 
L 337.598382 264.716924 
L 340.266337 258.012833 
L 342.622379 251.160078 
L 344.657067 244.175123 
L 346.361788 237.074994 
L 347.728779 229.877251 
L 348.751164 222.599956 
L 349.422984 215.261648 
L 349.739238 207.881304 
L 349.69592 200.478302 
L 349.290056 193.072384 
L 348.51975 185.683602 
L 347.384223 178.332271 
L 345.88385 171.038905 
L 344.020206 163.824157 
L 341.796095 156.708744 
L 339.215589 149.713369 
L 336.284053 142.858636 
L 333.00817 136.164955 
L 329.395956 129.652451 
L 325.45677 123.340851 
L 321.201313 117.249381 
L 316.64162 111.39665 
L 311.791041 105.800533 
L 306.664206 100.478049 
L 301.276984 95.445244 
L 295.646424 90.717065 
L 289.790687 86.307242 
L 283.728962 82.228171 
L 277.481362 78.490802 
L 271.06882 75.104535 
L 264.512954 72.077118 
L 257.835931 69.414568 
L 251.060314 67.121096 
L 244.208897 65.199047 
L 237.30453 63.648863 
L 230.369939 62.46906 
L 223.427533 61.656233 
L 216.49922 61.20507 
L 209.606209 61.108411 
L 202.768824 61.357311 
L 196.006323 61.941147 
L 189.336725 62.847738 
L 182.776657 64.063497 
L 176.341213 65.573608 
L 170.04384 67.362223 
L 163.896247 69.412684 
L 157.908348 71.707754 
L 152.088236 74.229876 
L 146.442185 76.961429 
L 140.974698 79.884996 
L 135.688588 82.983635 
L 130.585095 86.241136 
L 125.664038 89.642278 
L 120.924004 93.173066 
L 116.362562 96.82094 
L 111.97651 100.574965 
L 107.762135 104.425979 
L 103.715491 108.366698 
L 99.832685 112.391782 
L 96.110158 116.49783 
L 92.54495 120.68333 
L 89.134956 124.948533 
L 85.879134 129.295265 
L 82.777682 133.72668 
L 79.83216 138.246945 
L 77.045558 142.860894 
L 74.422302 147.573644 
L 71.968211 152.390206 
L 69.690394 157.315107 
L 67.597103 162.352038 
L 65.697557 167.503552 
L 64.001738 172.770812 
L 62.520167 178.153402 
L 61.263686 183.649205 
L 60.243228 189.25433 
L 59.46961 194.963103 
L 58.953323 200.768097 
L 58.704351 206.660209 
L 58.732004 212.628761 
L 59.044767 218.661632 
L 59.650181 224.745405 
L 60.554733 230.865525 
L 61.76378 237.006465 
L 63.28149 243.151891 
L 65.110797 249.284829 
L 67.253383 255.387824 
L 69.709675 261.443086 
L 72.478852 267.432632 
L 75.558867 273.338414 
L 78.946482 279.142432 
L 82.637303 284.826836 
L 86.625826 290.374014 
L 90.905481 295.766672 
L 95.468681 300.987892 
L 100.306868 306.021198 
L 105.410559 310.850592 
L 110.769385 315.460603 
L 116.372134 319.83632 
L 122.206784 323.963421 
L 128.260537 327.828204 
L 134.519846 331.417616 
L 140.970444 334.719278 
L 147.597367 337.721517 
L 154.384979 340.413398 
L 157.047218 341.36 
M 256.462494 341.36 
L 263.127245 338.812861 
L 269.932577 335.806045 
L 276.564727 332.455 
L 283.003573 328.769011 
L 289.22953 324.758761 
L 295.223681 320.436328 
L 300.967897 315.815151 
L 306.44497 310.909995 
L 311.638738 305.736895 
L 316.534216 300.313092 
L 321.117719 294.656952 
L 325.376982 288.787865 
L 329.301275 282.726136 
L 332.881507 276.492859 
L 336.110318 270.109774 
L 338.982162 263.599113 
L 341.49337 256.983436 
L 343.642195 250.285448 
L 345.42884 243.527816 
L 346.855463 236.732979 
L 347.926154 229.922945 
L 348.646891 223.119098 
L 349.025468 216.342007 
L 349.071395 209.611232 
L 348.795769 202.945155 
L 348.211122 196.360812 
L 347.331242 189.873758 
L 346.170963 183.497941 
L 344.745944 177.245614 
L 343.072425 171.12727 
L 341.166959 165.151612 
L 339.046152 159.325564 
L 336.726378 153.654307 
L 334.223509 148.141358 
L 331.552637 142.788694 
L 328.727817 137.596894 
L 325.761827 132.56533 
L 322.665945 127.692377 
L 319.449767 122.975656 
L 316.121059 118.412291 
L 312.68566 113.999184 
L 309.14744 109.733291 
L 305.508314 105.611899 
L 301.768332 101.632885 
L 297.925833 97.794961 
L 293.977668 94.097877 
L 289.919489 90.542587 
L 285.74609 87.131368 
L 281.451778 83.867877 
L 277.03077 80.757167 
L 272.477578 77.805634 
L 267.787382 75.020925 
L 262.95635 72.411806 
L 257.98192 69.987993 
L 252.863013 67.759961 
L 247.600194 65.738742 
L 242.195766 63.935711 
L 236.653818 62.362375 
L 230.980217 61.030174 
L 225.182564 59.950277 
L 219.27011 59.133412 
L 213.253656 58.589692 
L 207.145416 58.32848 
L 200.958883 58.358258 
L 194.708669 58.686526 
L 188.410353 59.319717 
L 182.080325 60.263139 
L 175.735627 61.520926 
L 169.393809 63.096016 
L 163.072789 64.99014 
L 156.790724 67.203826 
L 150.56589 69.736414 
L 144.416579 72.586078 
L 138.361004 75.749861 
L 132.417217 79.223706 
L 126.603037 83.002495 
L 120.935986 87.080085 
L 115.43324 91.449353 
L 110.111584 96.102222 
L 104.987363 101.029703 
L 100.076458 106.221919 
L 95.39424 111.668139 
L 90.955551 117.356799 
L 86.77466 123.275527 
L 82.86524 129.411159 
L 79.240329 135.749765 
L 75.912296 142.276662 
L 72.892803 148.976434 
L 70.192759 155.832954 
L 67.82228 162.829405 
L 65.790641 169.948306 
L 64.106222 177.171538 
L 62.776462 184.480382 
L 61.807797 191.855556 
L 61.205611 199.277259 
L 60.974178 206.725225 
L 61.116606 214.17878 
L 61.634785 221.61691 
L 62.529334 229.018332 
L 63.799554 236.361581 
L 65.443386 243.625094 
L 67.45737 250.787311 
L 69.836616 257.826779 
L 72.574784 264.722262 
L 75.664063 271.452864 
L 79.095176 277.998148 
L 82.857381 284.338266 
L 86.938498 290.454096 
L 91.324937 296.327369 
L 96.001751 301.940813 
L 100.952694 307.278282 
L 106.160307 312.324892 
L 111.606006 317.06715 
L 117.270194 321.49307 
L 123.132393 325.592293 
L 129.171376 329.356183 
L 135.365332 332.777917 
L 141.692029 335.852555 
L 148.128999 338.577091 
L 154.653726 340.950487 
L 155.929829 341.36 
M 242.873428 341.36 
L 246.996759 340.055944 
L 252.604891 338.079807 
L 258.074796 335.935038 
L 263.405915 333.633732 
L 268.598781 331.186529 
L 273.654796 328.602416 
L 278.57599 325.888563 
L 283.36475 323.050217 
L 288.023552 320.090646 
L 292.554682 317.011155 
L 296.959975 313.811168 
L 301.24056 310.488384 
L 305.396641 307.039006 
L 309.427313 303.458035 
L 313.33042 299.739606 
L 317.102468 295.877377 
L 320.738585 291.864908 
L 324.232541 287.696061 
L 327.576809 283.36535 
L 330.762677 278.868271 
L 333.780386 274.201566 
L 336.619304 269.363441 
L 339.268112 264.353718 
L 341.715007 259.173936 
L 343.9479 253.827402 
L 345.954625 248.319185 
L 347.723127 242.656088 
L 349.241653 236.846574 
L 350.498914 230.900672 
L 351.484244 224.82986 
L 352.187729 218.646937 
L 352.600327 212.36588 
L 352.713955 206.001701 
L 352.521568 199.570296 
L 352.017216 193.088306 
L 351.196075 186.572974 
L 350.054476 180.04201 
L 348.589907 173.513471 
L 346.801014 167.005648 
L 344.687586 160.536958 
L 342.250533 154.125858 
L 339.491863 147.79076 
L 336.414653 141.549962 
L 333.02302 135.421584 
L 329.322089 129.423515 
L 325.317968 123.573367 
L 321.017719 117.88843 
L 316.429334 112.385634 
L 311.561714 107.081515 
L 306.42465 101.99218 
L 301.028809 97.13327 
L 295.385712 92.519926 
L 289.507728 88.166754 
L 283.408057 84.08778 
L 277.100716 80.296415 
L 270.600529 76.805402 
L 263.923101 73.62677 
L 257.08481 70.771783 
L 250.102772 68.250883 
L 242.994822 66.073633 
L 235.779472 64.248657 
L 228.475877 62.783574 
L 221.103788 61.684944 
L 213.683491 60.958195 
L 206.235754 60.60757 
L 198.781753 60.636058 
L 191.34299 61.045344 
L 183.941212 61.835753 
L 176.598314 63.006199 
L 169.336233 64.554146 
L 162.176839 66.475573 
L 155.141815 68.764948 
L 148.252533 71.415211 
L 141.529921 74.417772 
L 134.994326 77.762516 
L 128.665377 81.437829 
L 122.561837 85.430627 
L 116.701468 89.726413 
L 111.100882 94.309344 
L 105.775407 99.16231 
L 100.738953 104.267042 
L 96.003887 109.604222 
L 91.580916 115.153623 
L 87.478988 120.894256 
L 83.705208 126.804535 
L 80.264762 132.862457 
L 77.16088 139.045789 
L 74.394805 145.332265 
L 71.965796 151.699795 
L 69.87116 158.126669 
L 68.106307 164.591764 
L 66.664841 171.074746 
L 65.538674 177.556264 
L 64.718175 184.018129 
L 64.192352 190.443477 
L 63.949049 196.81691 
L 63.975184 203.124609 
L 64.256993 209.354425 
L 64.780306 215.495927 
L 65.530828 221.540427 
L 66.494428 227.480958 
L 67.657437 233.312224 
L 69.006934 239.030507 
L 70.531025 244.63354 
L 72.219102 250.120347 
L 74.06207 255.491046 
L 76.052543 260.74663 
L 78.184991 265.888721 
L 80.455826 270.919307 
L 82.863435 275.840468 
L 85.408129 280.654101 
L 88.092024 285.361649 
L 90.91885 289.963851 
L 93.893687 294.460519 
L 97.022641 298.850348 
L 100.31249 303.130775 
L 103.770294 307.29789 
L 107.403013 311.346392 
L 111.217141 315.269607 
L 115.21837 319.059546 
L 119.411305 322.70701 
L 123.799227 326.201728 
L 128.383912 329.532521 
L 133.165505 332.687483 
L 138.142446 335.654184 
L 143.311434 338.419859 
L 148.667441 340.971615 
L 149.562463 341.36 
M 257.442403 341.36 
L 263.364328 338.77212 
L 269.722032 335.63575 
L 275.958073 332.18286 
L 282.054561 328.418968 
L 287.993865 324.350546 
L 293.758659 319.98501 
L 299.331948 315.330703 
L 304.697112 310.396893 
L 309.837946 305.193756 
L 314.738695 299.732376 
L 319.384102 294.024733 
L 323.759455 288.083697 
L 327.850637 281.923019 
L 331.644183 275.557314 
L 335.127332 269.002053 
L 338.288098 262.273536 
L 341.115323 255.388871 
L 343.598754 248.365942 
L 345.729107 241.223373 
L 347.498135 233.98048 
L 348.898704 226.657221 
L 349.924857 219.274134 
L 350.571884 211.85227 
L 350.83639 204.413111 
L 350.716351 196.978483 
L 350.211175 189.570463 
L 349.32175 182.21127 
L 348.050484 174.923151 
L 346.401343 167.728261 
L 344.379872 160.648534 
L 341.993204 153.705542 
L 339.250062 146.92036 
L 336.160743 140.313414 
L 332.737086 133.904336 
L 328.992426 127.711813 
L 324.941531 121.75344 
L 320.600521 116.045569 
L 315.986769 110.603177 
L 311.118785 105.439723 
L 306.01608 100.567037 
L 300.699018 95.995201 
L 295.188649 91.732465 
L 289.506525 87.78517 
L 283.674511 84.157695 
L 277.714581 80.852433 
L 271.648607 77.869788 
L 265.498149 75.208205 
L 259.284242 72.864226 
L 253.027186 70.832583 
L 246.746348 69.106316 
L 240.45998 67.676926 
L 234.185042 66.534559 
L 227.937066 65.668219 
L 221.730026 65.065999 
L 215.57625 64.715347 
L 209.486364 64.603339 
L 203.469262 64.716975 
L 197.53212 65.043469 
L 191.680446 65.570557 
L 185.918168 66.286787 
L 180.247752 67.181792 
L 174.670368 68.246555 
L 169.186076 69.473623 
L 163.794055 70.857291 
L 158.492842 72.393728 
L 153.280609 74.081041 
L 148.155432 75.91927 
L 143.115583 77.910307 
L 138.159803 80.057739 
L 133.287561 82.36662 
L 128.499285 84.843182 
L 123.796551 87.494496 
L 119.182234 90.328103 
L 114.660596 93.351645 
L 110.237326 96.572493 
L 105.919526 99.997413 
L 101.715651 103.632264 
L 97.635407 107.481746 
L 93.689608 111.549201 
L 89.890019 115.836455 
L 86.249168 120.343722 
L 82.780157 125.069539 
L 79.49646 130.010754 
L 76.411733 135.162534 
L 73.53962 140.518412 
L 70.893577 146.070355 
L 68.486702 151.808855 
L 66.331593 157.723026 
L 64.440211 163.800721 
L 62.823772 170.02865 
L 61.492649 176.392507 
L 60.456301 182.877089 
L 59.72321 189.466423 
L 59.300845 196.143876 
L 59.195626 202.892271 
L 59.412917 209.693985 
L 59.95701 216.531045 
L 60.831136 223.385214 
L 62.037463 230.238064 
L 63.577116 237.071048 
L 65.450183 243.865556 
L 67.655734 250.602971 
L 70.191831 257.264718 
L 73.055543 263.832305 
L 76.242956 270.287364 
L 79.749181 276.611693 
L 83.56836 282.787289 
L 87.693672 288.796389 
L 92.117334 294.621509 
L 96.830602 300.245486 
L 101.823774 305.651522 
L 107.086191 310.823232 
L 112.606238 315.744696 
L 118.37135 320.400517 
L 124.368018 324.775875 
L 130.5818 328.856597 
L 136.997338 332.62922 
L 143.598379 336.081062 
L 150.367801 339.200298 
L 155.694014 341.36 
M 258.833756 341.36 
L 265.10545 338.687888 
L 271.576907 335.520523 
L 277.841416 332.030526 
L 283.881696 328.232979 
L 289.681802 324.144299 
L 295.227265 319.782131 
L 300.505222 315.165206 
L 305.50453 310.313196 
L 310.215863 305.246539 
L 314.631794 299.986262 
L 318.746844 294.553778 
L 322.557521 288.970683 
L 326.062315 283.25854 
L 329.261672 277.43866 
L 332.157937 271.531887 
L 334.75526 265.558376 
L 337.059474 259.537397 
L 339.077932 253.487136 
L 340.819327 247.424521 
L 342.293466 241.365071 
L 343.511032 235.322767 
L 344.483316 229.309953 
L 345.221932 223.337275 
L 345.738518 217.413645 
L 346.044437 211.546251 
L 346.150472 205.740599 
L 346.066535 200.000599 
L 345.801388 194.328682 
L 345.3624 188.725966 
L 344.755335 183.19244 
L 343.984192 177.727202 
L 343.051104 172.328706 
L 341.956304 166.995045 
L 340.698163 161.724241 
L 339.273307 156.514538 
L 337.67681 151.364696 
L 335.90244 146.274257 
L 333.942977 141.243783 
L 331.790546 136.275052 
L 329.436981 131.371202 
L 326.87418 126.536821 
L 324.09444 121.777985 
L 321.090765 117.102235 
L 317.857129 112.518513 
L 314.388696 108.037053 
L 310.681992 103.669242 
L 306.735034 99.427453 
L 302.547416 95.324862 
L 298.120355 91.375255 
L 293.456702 87.592834 
L 288.560929 83.99202 
L 283.439084 80.587268 
L 278.098729 77.392893 
L 272.548857 74.422904 
L 266.799802 71.69086 
L 260.863132 69.209745 
L 254.751545 66.99185 
L 248.47875 65.048689 
L 242.059362 63.390921 
L 235.508788 62.028289 
L 228.843127 60.969581 
L 222.079065 60.222597 
L 215.233786 59.794131 
L 208.324887 59.689958 
L 201.370305 59.914834 
L 194.388242 60.472494 
L 187.397106 61.365659 
L 180.41546 62.596039 
L 173.461967 64.164346 
L 166.555346 66.070292 
L 159.714334 68.312602 
L 152.957643 70.88901 
L 146.303923 73.796264 
L 139.771723 77.030123 
L 133.379452 80.585355 
L 127.145337 84.455734 
L 121.087381 88.63403 
L 115.22331 93.112008 
L 109.570527 97.880423 
L 104.146054 102.929013 
L 98.966469 108.246502 
L 94.047849 113.820599 
L 89.405692 119.638003 
L 85.054851 125.684419 
L 81.009455 131.944568 
L 77.282828 138.402216 
L 73.887411 145.040202 
L 70.834673 151.840477 
L 68.135029 158.784153 
L 65.797757 165.851558 
L 63.830911 173.022305 
L 62.241242 180.275368 
L 61.034122 187.589168 
L 60.213466 194.941672 
L 59.781674 202.310502 
L 59.739565 209.67305 
L 60.086332 217.006608 
L 60.819503 224.288502 
L 61.934915 231.49624 
L 63.4267 238.607659 
L 65.287289 245.601086 
L 67.507433 252.455496 
L 70.076237 259.150673 
L 72.981217 265.667377 
L 76.208374 271.987503 
L 79.742288 278.09423 
L 83.566236 283.972176 
L 87.66232 289.607527 
L 92.011625 294.98816 
L 96.594389 300.103748 
L 101.390187 304.945839 
L 106.378135 309.50792 
L 111.5371 313.785447 
L 116.845921 317.775848 
L 122.283635 321.478495 
L 127.8297 324.894646 
L 133.464215 328.027348 
L 139.168138 330.88131 
L 144.92348 333.462742 
L 150.713492 335.779157 
L 156.522823 337.839154 
L 162.337654 339.652164 
L 168.689781 341.36 
M 252.204593 341.36 
L 256.23252 340.246621 
L 261.419973 338.61036 
L 266.56825 336.75714 
L 271.672428 334.678477 
L 276.726031 332.366378 
L 281.721058 329.813613 
L 286.648063 327.013946 
L 291.496265 323.962329 
L 296.253695 320.655049 
L 300.907368 317.089838 
L 305.443464 313.265952 
L 309.847521 309.184205 
L 314.104629 304.846984 
L 318.199623 300.258232 
L 322.117264 295.423409 
L 325.842411 290.349436 
L 329.360179 285.044627 
L 332.656079 279.518596 
L 335.716147 273.782173 
L 338.527045 267.847303 
L 341.076156 261.726946 
L 343.351654 255.434976 
L 345.342563 248.986086 
L 347.0388 242.395691 
L 348.43121 235.679842 
L 349.511586 228.855143 
L 350.272683 221.938676 
L 350.70823 214.947933 
L 350.812928 207.900752 
L 350.582459 200.815267 
L 350.013479 193.709852 
L 349.103624 186.60308 
L 347.851507 179.51368 
L 346.256724 172.460494 
L 344.319857 165.462447 
L 342.04248 158.538501 
L 339.427167 151.707619 
L 336.477507 144.988727 
L 333.198107 138.400667 
L 329.594614 131.962154 
L 325.673717 125.691723 
L 321.443169 119.607675 
L 316.911786 113.728019 
L 312.089463 108.070407 
L 306.987173 102.652063 
L 301.616968 97.489713 
L 295.991974 92.599504 
L 290.126378 87.996924 
L 284.035407 83.696715 
L 277.735308 79.712784 
L 271.243306 76.058113 
L 264.577562 72.74467 
L 257.757118 69.783311 
L 250.801836 67.183693 
L 243.732316 64.954186 
L 236.569817 63.101784 
L 229.336152 61.632026 
L 222.053586 60.548922 
L 214.744712 59.854885 
L 207.432327 59.550674 
L 200.139285 59.635351 
L 192.888356 60.106239 
L 185.702066 60.958915 
L 178.602538 62.187194 
L 171.611324 63.78315 
L 164.749237 65.737147 
L 158.036181 68.037887 
L 151.490987 70.672485 
L 145.131249 73.626561 
L 138.973175 76.884352 
L 133.031439 80.428848 
L 127.319062 84.241945 
L 121.847299 88.30462 
L 116.62555 92.597119 
L 111.661305 97.099166 
L 106.960103 101.790176 
L 102.525529 106.649485 
L 98.359245 111.65658 
L 94.461048 116.791329 
L 90.828971 122.034215 
L 87.459412 127.366553 
L 84.347301 132.770698 
L 81.486297 138.230237 
L 78.869019 143.730156 
L 76.4873 149.256986 
L 74.332462 154.798911 
L 72.395609 160.345847 
L 70.667933 165.88949 
L 69.141014 171.42331 
L 67.80712 176.942519 
L 66.65949 182.443982 
L 65.692589 187.926092 
L 64.902325 193.388598 
L 64.286216 198.832385 
L 63.843506 204.25922 
L 63.575204 209.671457 
L 63.484056 215.071726 
L 63.574447 220.462599 
L 63.852227 225.846259 
L 64.324489 231.224189 
L 64.999287 236.596888 
L 65.885342 241.96363 
L 66.991715 247.32228 
L 68.327502 252.669162 
L 69.901532 257.998996 
L 71.722094 263.304886 
L 73.796696 268.57836 
L 76.131862 273.809462 
L 78.73296 278.986868 
L 81.604072 284.098044 
L 84.747889 289.129414 
L 88.165651 294.066546 
L 91.857104 298.894343 
L 95.820491 303.597236 
L 100.05256 308.159364 
L 104.548602 312.564761 
L 109.302494 316.797515 
L 114.306766 320.841924 
L 119.552672 324.682631 
L 125.030275 328.304744 
L 130.728529 331.693938 
L 136.635372 334.836545 
L 142.737813 337.719619 
L 149.022016 340.331001 
L 151.770399 341.36 
L 151.770399 341.36 
" style="fill:none;stroke:#0000ff;stroke-linecap:square;"/>
   </g>
  </g>
 </g>
 <defs>
  <clipPath id="p6182de9dea">
   <rect height="318.96" width="388.429454" x="10.7" y="10.7"/>
  </clipPath>
 </defs>
</svg>
