<?xml version="1.0" encoding="UTF-8" standalone="no"?>
<!-- Svg Vector Icons : http://www.onlinewebfonts.com/icon -->

<svg
   xmlns:dc="http://purl.org/dc/elements/1.1/"
   xmlns:cc="http://creativecommons.org/ns#"
   xmlns:rdf="http://www.w3.org/1999/02/22-rdf-syntax-ns#"
   xmlns:svg="http://www.w3.org/2000/svg"
   xmlns="http://www.w3.org/2000/svg"
   xmlns:sodipodi="http://sodipodi.sourceforge.net/DTD/sodipodi-0.dtd"
   xmlns:inkscape="http://www.inkscape.org/namespaces/inkscape"
   version="1.1"
   x="0px"
   y="0px"
   viewBox="0 0 1000 1000"
   enable-background="new 0 0 1000 1000"
   xml:space="preserve"
   id="svg2512"
   sodipodi:docname="applepi.svg"
   inkscape:version="0.92.5 (2060ec1f9f, 2020-04-08)"><defs
   id="defs2516" /><sodipodi:namedview
   pagecolor="#ffffff"
   bordercolor="#666666"
   borderopacity="1"
   objecttolerance="10"
   gridtolerance="10"
   guidetolerance="10"
   inkscape:pageopacity="0"
   inkscape:pageshadow="2"
   inkscape:window-width="1920"
   inkscape:window-height="1016"
   id="namedview2514"
   showgrid="false"
   inkscape:zoom="0.856"
   inkscape:cx="500"
   inkscape:cy="500"
   inkscape:window-x="0"
   inkscape:window-y="27"
   inkscape:window-maximized="1"
   inkscape:current-layer="svg2512" />
<metadata
   id="metadata2470"> Svg Vector Icons : http://www.onlinewebfonts.com/icon <rdf:RDF><cc:Work
     rdf:about=""><dc:format>image/svg+xml</dc:format><dc:type
       rdf:resource="http://purl.org/dc/dcmitype/StillImage" /><dc:title></dc:title></cc:Work></rdf:RDF></metadata>
<g
   id="g2510"><g
     id="g2478"><g
       id="g2476"><path
         d="M521.9,294c17.2-28.8,44.5-69.9,78.9-109.5h0c29.2-33.5,86.3-76.6,86.3-76.6c8.6-6.5,7.7-15.5-2.1-20.1l-69-32.3c-9.8-4.6-23-1.2-29.5,7.4c0,0-51.1,73.2-111.1,229.2C289.6,208.1,113,325.8,113,530.5c0,213.8,164.5,538.6,387,440.5C734.2,1072.4,887,744.3,887,530.5C887,324,728.3,203,521.9,294z"
         id="path2472" /><path
         d="M480.3,224.7c10.7-0.9,20.2-10.4,21.1-21.1c0,0,6.9-83.6-51.4-141.9C391.6,3.3,308.1,10.3,308.1,10.3c-10.7,0.9-20.2,10.4-21.1,21.1c0,0-7,83.7,51.3,142C396.7,231.7,480.3,224.7,480.3,224.7z"
         id="path2474" /></g></g><g
     id="g2480" /><g
     id="g2482" /><g
     id="g2484" /><g
     id="g2486" /><g
     id="g2488" /><g
     id="g2490" /><g
     id="g2492" /><g
     id="g2494" /><g
     id="g2496" /><g
     id="g2498" /><g
     id="g2500" /><g
     id="g2502" /><g
     id="g2504" /><g
     id="g2506" /><g
     id="g2508" /></g>
<path
   inkscape:connector-curvature="0"
   id="rect4886"
   sodipodi:nodetypes="ccsssccccscccssscccsscccssssssccscccccc"
   style="fill:#ffffff;stroke-width:0.59214032"
   d="m 667.62591,476.77659 c -76.89925,0.41775 -153.80466,-0.0786 -230.70391,0.18799 -20.89548,0.15473 -25.2632,0.69112 -28.53667,1.17981 -19.74079,2.94699 -27.89888,6.46891 -40.15144,17.39103 -14.14806,12.61154 -23.81551,26.1758 -32.38318,45.40461 -2.76151,6.19777 -7.41852,18.65128 -9.56074,25.54482 l -0.92524,2.98434 10.71729,-0.0176 3.913,-5.84419 c 9.28564,-13.91044 20.3903,-25.65623 29.27994,-30.9803 11.09294,-6.64399 25.90469,-9.75567 46.60834,-9.77045 h 6.99723 c -1.60306,16.94196 -2.83257,33.91405 -4.16355,50.87591 -4.13444,53.00359 -4.19624,53.6755 -6.51488,67.36083 -6.75667,39.87591 -12.70346,54.98804 -30.72516,78.09309 -16.24031,20.81819 -19.02773,25.68466 -20.37426,35.5813 -1.87008,13.74502 5.97294,25.22479 20.37426,29.84341 6.71596,2.03469 14.5274,2.07449 20.99109,-0.69277 v 0.0176 c 7.43517,-3.37333 16.09968,-12.70079 21.49255,-23.12893 9.85991,-19.06624 20.84675,-71.81745 28.37384,-136.19394 0.63785,-5.45555 8.03781,-99.11422 8.03781,-101.63243 l 86.50934,-0.11722 c -5.68026,36.48684 -9.13021,73.27267 -12.5289,109.99427 -1.0576,12.77014 -1.44527,54.98236 -0.61682,66.59912 2.31419,32.44405 8.01191,52.65571 18.44669,65.37127 9.05495,11.03411 19.87032,17.80543 32.57562,20.41062 5.69895,1.16844 17.55724,0.86546 23.34303,-0.60397 9.7495,-2.4761 20.22684,-8.44597 29.0289,-16.53837 11.43403,-10.5117 18.80383,-23.73602 24.34536,-43.71689 2.13667,-7.70415 5.53216,-24.34029 5.53216,-27.05462 l -10.73641,0.19538 c -1.84054,8.23848 -2.56426,10.80445 -3.9901,14.03379 -4.07356,9.22474 -11.96883,16.08759 -22.28271,19.41584 -12.78735,3.51845 -26.38273,1.73995 -37.74213,-4.44093 -11.03989,-6.6457 -17.79841,-17.80486 -20.60557,-34.03569 -2.9415,-56.63881 4.1757,-113.45043 12.70284,-169.48782 l 83.27102,-0.14211 v -46.07936 z" /></svg>