<?xml version="1.0" encoding="UTF-8" standalone="no"?>
<!-- Generator: Adobe Illustrator 23.0.6, SVG Export Plug-In . SVG Version: 6.00 Build 0)  -->

<svg
   xmlns:dc="http://purl.org/dc/elements/1.1/"
   xmlns:cc="http://creativecommons.org/ns#"
   xmlns:rdf="http://www.w3.org/1999/02/22-rdf-syntax-ns#"
   xmlns:svg="http://www.w3.org/2000/svg"
   xmlns="http://www.w3.org/2000/svg"
   xmlns:sodipodi="http://sodipodi.sourceforge.net/DTD/sodipodi-0.dtd"
   xmlns:inkscape="http://www.inkscape.org/namespaces/inkscape"
   version="1.1"
   id="Layer_1"
   x="0px"
   y="0px"
   width="864px"
   height="864px"
   viewBox="0 0 864 864"
   enable-background="new 0 0 864 864"
   xml:space="preserve"
   sodipodi:docname="ButFirstTea.svg"
   inkscape:version="0.92.5 (2060ec1f9f, 2020-04-08)"><metadata
   id="metadata35"><rdf:RDF><cc:Work
       rdf:about=""><dc:format>image/svg+xml</dc:format><dc:type
         rdf:resource="http://purl.org/dc/dcmitype/StillImage" /><dc:title></dc:title></cc:Work></rdf:RDF></metadata><defs
   id="defs33" /><sodipodi:namedview
   pagecolor="#ffffff"
   bordercolor="#666666"
   borderopacity="1"
   objecttolerance="10"
   gridtolerance="10"
   guidetolerance="10"
   inkscape:pageopacity="0"
   inkscape:pageshadow="2"
   inkscape:window-width="1920"
   inkscape:window-height="1016"
   id="namedview31"
   showgrid="false"
   inkscape:zoom="1.0925926"
   inkscape:cx="380.98745"
   inkscape:cy="414.99582"
   inkscape:window-x="0"
   inkscape:window-y="27"
   inkscape:window-maximized="1"
   inkscape:current-layer="Layer_1" />
<g
   id="g28">
	<path
   d="m 771.12891,489.39453 c -4.60801,1.41581 -2.95335,8.66522 -4.99709,12.31569 -6.836,26.73035 -14.21276,56.51939 -38.5908,72.69408 -26.09654,17.02696 -58.76279,17.61933 -88.62305,13.64453 -11.13398,-1.33238 -21.95772,-4.85712 -32.72852,-7.37695 -4.57784,0.98666 -3.60437,6.95287 -0.0351,8.64257 13.12765,8.89447 29.75952,9.87467 45.09375,11.32611 25.96765,1.31235 52.72523,-0.23118 77.33029,-9.1641 19.33782,-9.96805 29.37712,-31.08329 36.18178,-50.73876 5.18645,-16.07018 8.3037,-32.92299 8.60902,-49.80606 -0.40858,-0.88313 -1.2303,-1.57298 -2.24023,-1.53711 z"
   id="path2"
   inkscape:connector-curvature="0" />
	<path
   d="m 530.76562,469.98633 c -6.2065,0.72019 -4.0387,8.60052 -4.0049,12.79669 2.29789,37.11161 12.38223,76.67672 40.63186,102.73065 11.49928,11.10313 27.21089,18.44781 41.42578,23.35742 -4.40197,5.33913 -1.70782,14.57284 5.36719,15.73047 39.65149,7.96107 81.40509,9.22307 120.70312,-1.12695 6.69129,-3.33528 5.75713,-12.18302 2.56445,-17.68164 15.01404,-9.96457 25.28304,-25.43016 34.00977,-40.86328 3.44266,11.3224 20.43898,15.61246 28.98047,7.57617 6.91431,-6.84324 -4.08439,-17.77693 3.50781,-24.0918 10.49689,-8.89813 26.66253,-6.3359 36.59571,-15.98828 8.33597,-11.43102 9.23393,-27.26322 5.02539,-40.39844 -5.13968,-16.34025 -26.21029,-22.17781 -40.6836,-14.89843 -3.27481,1.15843 -7.16191,4.38324 -9.42969,5.2832 0.0548,-4.21107 1.69404,-12.56313 -4.86523,-12.41016 -86.30321,8.41071 -173.44362,6.64251 -259.82813,-0.0156 z m 11.32227,9.80078 c 81.32071,5.90664 163.31118,7.06427 244.48633,-0.36328 -1.25752,36.83736 -14.73689,73.20102 -36.98438,102.64453 -7.62226,9.39805 -17.0904,19.82963 -30.15662,20.00263 -31.99959,2.99782 -64.40903,3.31907 -96.48205,0.39776 -30.49079,-4.40413 -58.06652,-24.55965 -71.12804,-52.54018 -10.82007,-21.88758 -14.9887,-46.36797 -16.29969,-70.63755 2.18815,0.16536 4.3763,0.33072 6.56445,0.49609 z m 276.63281,3.19727 c 9.7031,-0.38276 18.7881,6.93338 19.6836,16.76367 1.26214,9.51023 1.02144,20.39913 -5.72461,27.8164 -12.40755,6.21479 -29.20975,5.74523 -38.10352,17.9668 -4.40013,6.31499 -1.43818,14.32812 -0.83398,21.03906 -5.95734,3.37866 -15.96794,-1.08706 -14.02149,-8.875 -0.6321,-6.55521 6.34805,-10.30784 10.47266,-14.40625 8.99679,-7.71639 20.5038,-11.28129 30.49414,-17.41211 7.26299,-5.39148 14.43698,-15.94862 9.22461,-24.92773 -7.70534,-10.79901 -24.17232,-7.8566 -32.58789,0.47266 -1.61201,1.02348 -5.34682,6.71697 -4.21875,2.69335 0.72465,-4.56567 0.59819,-9.56687 5.17769,-12.07137 5.69356,-4.89293 12.73012,-8.98817 20.43754,-9.05948 z m -2.53906,19.90429 c 4.06801,-0.25629 8.61934,3.59386 5.80664,7.71094 -5.00619,11.26627 -18.58816,12.47749 -27.6875,19.04492 -3.47699,2.09522 -6.85015,4.37128 -10.01953,6.91016 2.39694,-4.81365 2.59787,-11.2006 5.78906,-15.22461 8.73136,-6.21314 13.7176,-18.87308 26.11133,-18.44141 z m -86.8125,106.75977 c 0.77089,1.84637 3.72051,6.89649 -0.70678,6.37785 -36.92948,8.31046 -76.12677,7.73436 -113.04908,-0.5302 0.77923,-3.39306 3.25567,-5.61527 6.71915,-4.09717 32.51815,2.94642 65.3895,2.67134 97.88632,-0.43017 3.01368,-0.18904 6.41095,-1.24452 9.15039,-1.32031 z"
   id="path4"
   inkscape:connector-curvature="0" />
	<path
   d="m 657.64062,245.57617 c -28.43655,-0.24642 -54.4382,21.17062 -61.39062,48.44336 -7.74182,28.27829 1.22817,61.13397 24.60352,79.54492 17.31872,14.54292 39.34739,21.37806 60.84375,26.95703 14.60821,5.51161 19.62773,24.23009 13.02929,37.59961 -2.24878,6.50375 -7.4633,11.31263 -10.97656,16.94336 -1.49537,4.95239 6.01486,7.9835 8.51795,3.48076 12.50984,-13.16974 19.48386,-34.17764 10.18908,-51.01787 -5.55813,-10.96674 -17.28858,-16.97922 -29.0293,-18.82422 -26.74568,-6.93971 -55.33526,-21.10582 -65.92773,-48.28515 -9.4331,-24.26843 -5.17325,-54.81795 15.30273,-72.32813 17.47352,-15.4499 44.5807,-17.83028 64.56641,-5.95703 15.58085,9.58 21.91164,29.22663 21.27344,46.55078 -0.16449,14.308 -12.37039,24.8649 -25.41389,28.15825 -15.81958,4.97923 -35.84791,4.9418 -47.89666,-8.18168 -10.19571,-11.26468 -5.82343,-29.69116 5.65625,-38.36524 8.64952,-8.03583 23.58791,-11.65759 32.95508,-2.79297 5.41929,4.73255 7.44496,14.90414 -0.24219,18.6211 -5.06555,3.41559 -12.7176,5.2948 -18.12109,3.39648 3.06707,-1.5807 8.80777,-1.07549 8.6875,-5.98633 -0.0624,-5.07026 -6.3142,-5.31949 -9.78711,-3.55273 -6.43175,1.2514 -11.71985,9.30622 -7.02539,15.02539 7.23946,7.0337 19.10954,4.75193 27.45117,1 8.35021,-3.62833 15.2342,-12.49477 12.7168,-21.94922 -2.90269,-15.69794 -21.01449,-24.27542 -35.66211,-19.92383 -19.2924,5.30265 -35.42021,25.41993 -30.86133,45.95313 3.72026,18.52657 23.39712,29.01726 41.11523,28.95898 17.74542,-0.003 37.64043,-5.04705 48.77149,-19.90625 10.90642,-15.54152 7.37656,-36.41438 0.45508,-52.82226 -9.11317,-20.81872 -31.75989,-31.7894 -53.80079,-30.74024 z"
   id="path6"
   inkscape:connector-curvature="0" />
	<path
   d="m 714.74414,345.56836 c -4.85447,0.0568 -5.85801,6.94434 -1.84142,9.18496 15.25214,17.07751 30.74562,37.08129 31.6754,60.84629 0.63524,15.0865 -8.63529,28.96728 -21.24218,36.55469 -3.50891,3.73742 1.96313,9.88751 6.10156,6.77343 17.92059,-10.36381 27.69071,-32.40188 23.42773,-52.65234 -4.49386,-23.37334 -19.49234,-43.24146 -35.58398,-60.05664 -0.75734,-0.45756 -1.65291,-0.68599 -2.53711,-0.65039 z"
   id="path8"
   inkscape:connector-curvature="0" />
	<path
   d="m 739.66406,189.36328 c -17.65359,-0.10593 -35.80507,8.20417 -44.70312,23.93555 -6.73471,11.51442 -9.93888,25.24231 -9.41016,38.48047 1.84294,5.33455 10.23639,2.58234 8.94727,-2.83594 0.5478,-18.23217 7.84481,-38.8902 25.90039,-46.47266 19.24183,-7.44004 41.86946,-4.14288 58.8125,7.1543 9.17309,5.74559 14.13226,16.12218 14.43164,26.76367 1.90214,12.10272 -3.71512,25.44541 -14.92188,30.78125 -7.33966,4.83216 -16.11931,4.73149 -24.34961,6.52539 -6.11152,2.7209 -13.19696,-0.43771 -19.23828,-2.28711 -10.11875,-3.30504 -17.15559,-14.75181 -12.58008,-25.06445 4.02523,-13.85398 18.16931,-26.70034 33.36719,-23.32813 9.54767,1.93341 18.7876,13.20069 13.00781,22.6504 -4.67266,5.76857 -14.20737,9.14656 -20.89062,5.16992 -3.78529,-2.726 0.46478,-7.11326 4.0625,-5.75 3.87493,0.16705 9.97028,3.95487 12.20703,-1.2793 1.85227,-4.64633 -3.73219,-7.21296 -7.50976,-7.30273 -7.53051,-2.23512 -17.79794,0.64938 -19.23047,9.34765 -1.99166,9.97557 9.10321,17.33108 18.16601,15.90039 11.26573,-0.87866 23.8468,-8.54959 24.16016,-20.98047 0.96416,-18.56704 -20.34698,-31.84553 -37.23242,-26.41406 -18.19334,5.06414 -31.83068,24.05324 -30.38672,42.91797 1.95525,15.19902 17.3375,24.01585 31.3125,25.98633 -9.4811,16.50192 -14.99809,36.4369 -11.49805,55.43555 5.38036,21.37488 25.54231,35.0962 31.56641,56.07421 4.51715,20.00818 -1.21817,43.81249 -18.33985,56.1211 -3.71095,1.73966 -11.01535,4.94217 -7.10351,10.13672 4.52434,4.26454 10.17135,-1.60726 14.1875,-3.90625 19.69233,-15.59335 26.16039,-44.20425 19.28125,-67.75 -6.56795,-20.1643 -26.0167,-33.59728 -30.98828,-54.42383 -2.0202,-17.06593 2.9851,-34.83487 12.25976,-49.15625 4.79265,-6.4885 14.09351,-2.9712 20.60352,-6.38086 14.49784,-4.35963 27.55432,-16.23542 29.02539,-31.94531 1.49156,-14.49588 -1.03787,-31.00881 -12.69141,-40.98828 -13.47128,-12.17481 -32.33167,-17.45714 -50.22461,-17.11524 z"
   id="path10"
   inkscape:connector-curvature="0" />
	<path
   d="m 105.89844,251.25195 c -13.807458,0.59951 -26.645034,6.86295 -38.154299,14.07422 -0.883196,-7.28766 -9.847955,-14.17902 -16.69336,-9.83984 -3.515996,2.81004 -1.384429,7.85888 2.292969,9.33008 3.262062,3.85329 1.659589,10.67047 -3.166016,12.73437 -6.813648,4.69092 -17.765937,9.04065 -23.792968,0.625 -4.386779,-4.89594 -2.685421,-15.79626 4.693359,-16.32226 2.184502,3.31627 6.948792,1.47604 6.71875,-2.36914 0.804239,-6.68321 -8.344393,-7.31296 -12.621094,-4.86719 -12.895768,6.57807 -11.559795,27.14654 0.779297,33.63476 9.307072,5.57379 20.495776,1.03348 28.642578,-4.49218 0.108932,28.94182 -0.244123,58.01611 0.712891,86.87304 1.105237,2.46922 -3.207214,1.55457 -3.738281,3.67578 -8.17288,5.10801 -15.610799,12.45305 -17.265625,22.35938 -4.355,19.42928 10.410267,38.85033 28.976998,43.66253 25.921393,7.38918 54.344901,-1.50837 75.148811,-17.64511 18.85068,-14.45548 27.9791,-43.02783 15.30778,-64.30453 -1.21513,-3.51476 -7.72414,-2.31373 -3.34152,-4.56545 -2.79194,-4.43178 -8.68903,-9.12292 -14.01394,-12.13572 -0.44922,5.36438 -1.3996,-0.45259 -3.39963,-1.82545 -5.29628,-2.72828 -11.50344,-4.55478 -16.91287,-5.95971 16.36017,-12.41161 29.71982,-33.19654 25.09073,-54.4393 -3.62125,-16.06366 -18.20824,-29.48498 -35.26456,-28.20328 z m -1.86328,8.66211 c 15.83522,-0.66777 26.98975,16.23519 24.58114,30.94455 -2.09981,18.00788 -15.39952,32.84862 -30.860441,41.22147 -4.440705,2.60684 -3.215867,9.82372 2.044922,10.4414 17.182179,3.03382 37.152449,9.61945 44.599609,27.10547 7.58156,16.02153 -1.31075,34.50149 -13.96425,45.22769 -17.9172,16.10631 -44.230028,23.725 -67.551374,16.62192 -14.509055,-4.4452 -25.399545,-20.95564 -19.5625,-35.88672 2.150169,-6.0733 6.372723,-11.18741 11.830078,-14.72851 0.70051,12.18297 -0.876524,24.65734 1.498047,36.66992 1.624824,5.40932 8.854272,11.48622 14.287109,7.47656 2.872123,-2.11162 2.22347,-6.10746 -0.486328,-8.04297 -3.872608,-9.85545 -1.692105,-20.78684 -2.896191,-31.09373 0.375927,-3.88303 -1.242484,-11.85879 4.9333,-11.19923 10.206035,-0.0183 23.351614,4.35094 24.990235,15.95703 1.236938,3.37273 -1.857651,5.04883 -4.392578,3.16992 -4.345585,-1.3839 -5.780668,4.28705 -3.06836,6.94726 4.82982,6.78902 16.025312,0.84902 16.083982,-6.61718 1.07861,-13.97185 -11.9907,-25.05857 -25.086764,-26.36484 -4.146133,-0.63909 -8.390261,-0.64589 -12.540187,-0.0356 -0.171566,-29.54022 0.59836,-59.13434 -0.365234,-88.64454 -1.073528,-3.37068 0.300925,-6.44837 3.884766,-7.42578 10.063486,-5.28787 20.197995,-11.67093 32.041019,-11.74414 z"
   id="path12"
   inkscape:connector-curvature="0" />
	<path
   d="M57.1109,377.414C55.2826,378.3533,57.3031,391.1708,57.1109,377.414L57.1109,377.414z"
   id="path14" />
	<path
   d="m 253.25977,310.91211 c -6.7673,0.23342 -6.34145,8.72074 -6.35607,13.49588 -0.54594,5.35294 0.35279,11.63197 -0.78651,16.51779 -6.07724,0.65123 -15.12106,-1.87717 -18.57031,4.83203 -0.14455,5.24274 7.16934,4.69915 10.80849,4.99268 2.63722,0.067 5.96919,0.17589 8.21299,0.57178 -1.25048,12.22005 2.06986,25.2941 -4.28711,36.57031 -4.0948,8.99524 -5.80269,20.9085 -15.62891,25.41015 -6.15962,1.24511 -7.1255,-7.28018 -7.77929,-11.5625 -2.30659,-15.14861 3.13805,-30.52976 1.20117,-45.7207 -0.68122,-5.36997 -7.8431,-7.42231 -10.95899,-2.76367 -4.08352,6.91157 -3.81768,15.49755 -7.52539,22.61328 -4.45964,10.94828 -9.08391,24.93154 -21.32422,29.31445 -4.87784,2.32607 -9.23347,-2.12597 -8.80273,-6.91992 -0.59164,-13.25217 1.78899,-26.27824 2.76367,-39.42383 0.79168,-5.35841 -6.19267,-10.92904 -10.37109,-6.22656 -5.38684,8.51177 -3.72331,19.4519 -4.0015,29.05968 0.56927,10.72056 0.47417,24.276 10.17142,31.19423 10.13836,5.45449 22.24314,-1.9742 27.95899,-10.60938 3.60693,-5.06372 6.25249,-10.73325 8.57812,-16.47656 -0.13552,12.32156 0.0987,27.85832 11.57031,35.43945 7.23948,5.22223 16.40944,0.1249 20.56641,-6.5332 3.55689,-4.85339 6.18394,-10.30874 8.55664,-15.81641 1.29867,8.89412 3.35524,20.89675 13.23437,24.04883 7.2236,1.9023 13.8591,-3.08589 17.15567,-9.18375 6.9846,-11.025 14.19638,-22.6532 16.58848,-35.65219 1.087,-3.77094 -3.92032,-6.87191 -6.2129,-3.25781 -8.47583,11.24871 -9.83831,26.58233 -19.27343,37.1211 -4.46609,4.30743 -9.71808,-1.36944 -10.03321,-6.10157 -2.80139,-15.59077 -0.31696,-31.73334 -1.01429,-47.30127 0.38513,-3.05082 -0.21456,-7.70755 4.12172,-6.95654 7.89871,0.40985 18.40938,-0.29654 22.12695,-8.58789 1.13219,-4.46793 -5.50785,-6.48636 -7.50391,-2.52148 -5.42646,1.84342 -12.106,1.58736 -17.3457,0.78906 -1.19621,-8.90987 2.19347,-18.06218 0.17969,-26.82227 -0.93496,-2.41717 -3.51739,-3.68308 -6.01953,-3.5332 z"
   id="path16"
   inkscape:connector-curvature="0" />
	<path
   d="M389.6333,353.9398c6.8338,0,6.905-10.6358,0-10.6355C382.7285,343.3043,382.7995,353.9398,389.6333,353.9398z"
   id="path18" />
	<path
   d="M465.7942,606.1764c0.2629-0.0201,0.6824-0.0702,1.2074-0.1457C466.3532,606.0853,465.8182,606.1415,465.7942,606.1764z"
   id="path20" />
	<path
   d="m 358.36719,287.9707 c -11.52054,0.77428 -17.46629,13.04135 -20.7013,22.66725 -8.71653,26.19717 -9.09688,54.24137 -9.28254,81.57624 0.56593,14.6996 1.27512,29.56134 2.65376,44.1237 -5.7964,3.35978 -11.75162,7.08885 -14.38867,13.63867 -3.10043,6.71674 -5.81481,15.81326 -1.46875,22.5 3.33411,2.46099 7.12842,-2.95426 5.5332,-5.85547 -0.40234,-8.40123 3.92861,-17.16061 11.17188,-21.55468 1.7303,13.13052 4.89987,27.09101 14.27343,36.98632 -1.25955,5.46688 -1.91116,11.47544 1.21289,16.56836 5.5187,11.13448 19.74558,13.32301 30.67774,10.11524 10.51886,-2.505 20.21341,-7.43823 30.09179,-11.67969 -0.84162,45.0639 -0.57441,90.14662 -0.72779,135.20641 -0.0942,12.73864 -1.93833,27.7082 6.91139,38.16078 6.7689,7.20796 18.75371,4.38559 24.02148,-3.20313 7.23708,-8.45097 10.75439,-20.54859 14.86524,-29.63476 7.23595,10.75999 23.01439,8.82895 32.62304,2.57226 5.59672,-3.39509 10.40011,-8.17563 14.56055,-13.04687 0.71308,9.12888 8.3479,18.36985 18.16016,16.96484 9.15256,-0.49406 16.44769,-8.20235 20.93554,-14.86133 0.8906,9.8854 4.66629,22.96837 16.06641,24.80469 8.83375,1.31779 15.7132,-6.00163 18.95508,-13.42773 5.09786,-10.25226 11.70039,-20.52855 12.90039,-32.125 0.2226,-4.47864 -5.62703,-4.65241 -7.37891,-1.26368 -8.18039,11.02021 -8.19699,26.65665 -18.28711,36.37891 -4.54703,3.86905 -9.18986,-1.32448 -9.79492,-5.90234 -3.39353,-13.16667 -0.46343,-26.71424 -0.58203,-40.08985 0.25876,-5.09789 -5.76921,-8.94265 -9.9707,-6.54882 -5.0477,-3.17236 -11.83416,-3.91749 -17.63282,-2.79297 -15.74231,4.41903 -20.88844,21.85431 -30.36523,33.19531 -6.9235,7.04048 -16.45171,13.84776 -26.76758,12.96289 -7.25824,-2.89047 -5.22604,-12.98947 -3.34961,-18.98437 2.81862,-4.90875 9.84973,-1.98402 14.31446,-4.30665 7.71228,-1.7517 17.93021,-7.06191 16.41992,-16.46093 -2.91425,-8.40183 -14.28513,-8.48569 -21.15235,-5.30274 -12.02805,4.92017 -21.27268,16.17793 -22.575,29.28472 -2.9866,14.6075 -10.46569,27.77415 -16.60859,41.20552 -2.00656,4.55304 -9.53307,8.1931 -11.96484,2.0332 -5.47417,-16.84559 -1.52403,-34.70435 -2.14848,-52.14061 -0.10541,-38.11399 1.01812,-76.24624 0.87895,-114.34377 -1.82921,-5.80328 6.37709,-5.16694 9.82031,-7.04882 12.42888,-4.38274 25.51736,-11.26288 38.79883,-7.38868 5.26589,1.79624 7.26789,7.60181 5.64453,12.60547 -0.9222,3.18248 0.70575,8.71644 4.92383,6.93946 7.45462,-2.85219 6.4932,-12.7748 2.4082,-18.06641 -5.9917,-11.36377 -20.5271,-12.83282 -31.80859,-10.29297 -10.26371,2.0753 -19.83278,6.47674 -29.45313,10.45899 0.71598,-6.82989 -1.4209,-15.12758 -8.76953,-17.35157 -3.64197,-2.24684 -9.40773,-0.0548 -8.625,4.72461 -0.1482,4.9093 7.02921,6.172 5.54687,11.51368 0.70543,3.94117 -1.34015,7.52782 -5.49804,7.92773 -12.4773,4.1839 -24.64162,12.43604 -38.25782,11.19922 -6.05075,-0.44403 -12.66738,-5.91275 -11.49609,-12.1543 10.68309,6.43065 25.08655,-0.56082 28.64063,-11.99609 5.77303,-16.70776 -6.62932,-34.37158 -21.88672,-40.6836 -5.66667,-2.49695 -11.94521,-3.75887 -18.13672,-3.19336 -0.31839,-5.74601 -0.6573,-11.78073 -0.78711,-17.35156 8.07266,11.72795 26.65568,10.99232 35.30469,0.33008 3.34003,-3.58928 5.92711,-7.80199 8.16406,-12.14453 2.02894,8.53404 6.7125,20.06116 17.07617,20.20508 12.57233,-1.16254 18.70231,-14.28583 22.88086,-24.57617 2.16719,-5.44344 3.95247,-11.02699 5.93164,-16.53907 4.81469,1.6592 10.05378,1.5771 15.01563,0.6875 -2.62279,11.66776 -6.96232,25.42989 -0.0625,36.42383 7.43982,9.60386 22.82279,7.20476 30.20703,-1.28711 6.08214,-6.09841 10.19018,-13.84015 13.59375,-21.67187 4.6473,8.34827 11.69586,14.97542 18.47265,21.57226 -8.98614,5.77985 -18.11988,16.56452 -14.17187,27.92774 4.04884,11.37967 19.77554,13.71659 28.61523,6.53906 10.75714,-7.50486 11.17664,-24.13136 2.56836,-33.4336 -2.46853,-2.41385 -1.87319,-3.00539 0.65235,-5.1582 3.99834,-4.61284 7.36716,-9.74812 10.22265,-15.13672 0.55333,9.43432 4.44492,21.89526 15.07422,23.8418 10.46117,0.33294 17.41122,-9.79882 21.61115,-18.14057 3.9117,-9.01412 9.76692,-17.9599 10.10565,-28.02349 -0.22025,-4.27558 -6.22167,-4.29804 -7.47071,-0.56641 -6.54906,11.91827 -7.83576,27.29044 -18.62304,36.55859 -5.25172,3.36358 -7.79221,-4.90273 -8.6875,-8.64257 -3.02068,-16.47787 -0.796,-33.42723 -0.65039,-50.05078 -0.5148,-4.44516 5.69952,-1.10958 8.05273,-2.32813 6.7473,0.21969 15.93049,-2.36237 17.4375,-9.84766 -0.39828,-4.21373 -6.08174,-4.36434 -8.31836,-1.38867 -4.93563,2.72305 -11.19412,1.08145 -16.63086,1.55078 -1.05747,-4.85629 0.98625,-11.54443 1.25196,-17.04492 1.05982,-5.12658 0.56985,-13.4425 -6.14454,-14.03515 -6.99633,0.67809 -7.69337,9.45927 -7.43359,14.9121 -0.28142,4.97712 0.7639,10.08056 -0.35742,14.9668 -5.90297,1.74131 -14.77397,-1.53186 -18.76172,4.63672 -0.20179,1.79829 1.31025,3.05399 -1.35742,2.14648 -17.27121,-1.86763 -34.20419,15.21484 -30.313,32.65455 0.23513,9.54223 -5.35025,18.12806 -10.00341,26.12866 -3.97095,5.92437 -12.26866,12.57845 -19.47461,8.36523 -4.11036,-6.1305 -0.11748,-13.98116 1.27344,-20.48437 1.80061,-7.25285 6.74917,-15.30633 3.66797,-22.83399 -4.58419,-5.85046 -13.01208,-1.02791 -18.69225,0.0254 -2.831,0.81817 -7.78864,2.45839 -4.78041,-2.04489 2.2245,-6.33564 3.71311,-16.61892 -4.12304,-19.67383 -7.34295,-3.18594 -14.46942,3.65107 -15.17774,10.77149 -1.37452,6.46249 1.39155,12.87287 6.13086,17.22851 -1.1519,7.62277 -6.59407,14.01722 -9.02863,21.33092 -3.06111,5.34787 -5.64546,14.45419 -13.07098,14.21596 -7.53797,-4.44807 -6.42048,-15.08829 -6.89844,-22.73633 -0.85081,-10.61721 3.24079,-21.77277 -0.32031,-32.13867 -2.53282,-5.70496 -10.92186,-2.51329 -11.57226,2.85742 -2.78076,11.17209 3.22853,22.89737 -2.28125,33.625 -4.05362,10.03724 -11.9429,22.61085 -24.53321,20.42578 -10.54764,-2.55602 -13.29015,-14.81091 -15.1875,-23.9668 1.575,-5.66698 8.25873,-7.96485 11.48438,-12.68945 17.90938,-18.57095 31.42397,-45.13486 25.51953,-71.47461 -1.96463,-9.34835 -8.87245,-19.18252 -19.33203,-19.13086 z m 1.09375,9.03516 c 10.03153,3.20792 11.36446,15.83865 10.97461,24.89258 -1.06279,21.77329 -14.04181,41.01613 -29.33985,55.33594 0.99436,-21.77251 0.1459,-44.09791 5.51758,-65.31836 1.99331,-5.95908 5.35244,-14.70686 12.84766,-14.91016 z m 163.78711,53.44336 c 3.74452,1.10135 9.11288,-1.40345 11.79687,1.35351 0.5916,7.42639 -0.005,15.00518 0.29297,22.4961 -0.91961,12.94521 -8.02625,24.72961 -15.83594,34.72656 -2.73794,3.49644 -5.03793,-3.03415 -7.58593,-4.26172 -9.57949,-8.91979 -19.43185,-21.91118 -14.99414,-35.84765 2.57717,-8.50019 13.1981,-15.73553 21.63085,-11.19532 1.92172,3.09496 0.94499,11.17818 6.5,10.28907 6.42644,-2.78861 5.19766,-11.80698 0.32032,-15.57032 -0.4695,-0.65292 -2.44783,-1.8905 -2.125,-1.99023 z m -94.54883,8.00781 c 2.43656,2.3052 0.24953,7.4398 -0.72852,9.23828 -1.45704,-2.55772 -2.23301,-7.39384 0.72852,-9.23828 z m -91.89844,25.7793 c -4.13534,-2.54821 4.73215,-3.89269 0,0 z m 176.94141,39.94922 c 6.85474,5.52064 9.59662,19.07105 -0.12305,23.28125 -6.48795,3.62015 -15.37691,-2.93339 -11.82617,-10.18164 1.8594,-5.89722 7.0018,-9.84164 11.94922,-13.09961 z m -169.48242,16.57812 c 14.08468,0.83939 29.46849,11.67704 29.9414,26.8086 0.49253,7.79931 -7.22034,15.93178 -15.10547,11.69335 5.22884,-1.79975 2.02038,-10.01659 -3.02734,-8.03906 -2.00038,0.14635 -4.11997,3.43182 -4.9375,-0.0645 -5.24833,-9.23497 -7.25485,-20.00266 -8.70313,-30.38867 0.60733,-0.0756 1.22312,-0.0445 1.83204,-0.01 z m 155.5,5.69336 c -7.63929,1.55888 -1.90173,-7.1712 0,0 z m 10.96875,5.11719 c -1.41548,6.98232 -7.99025,-3.99737 0,0 z m -28.05079,143.81836 c 2.73458,-0.0909 3.59149,3.2887 0.46875,3.89648 -3.84347,2.08133 -8.19063,3.11945 -12.40429,4.03321 3.31695,-3.29314 7.03102,-7.4249 11.93554,-7.92969 z m 52.46289,0.9707 c 1.89599,1.03031 4.51423,0.27069 3.10547,3.3125 -0.53071,7.04808 1.64546,14.60218 -3.08789,20.73828 -4.23693,6.57697 -9.79643,15.93364 -18.77148,15.51367 -9.28065,-3.56344 -6.25591,-15.84483 -2.68171,-22.60231 4.27639,-7.95019 10.85075,-18.60772 21.43561,-16.96214 z m -72.5,10.17188 c -4.93953,5.26978 -5.67241,-4.28288 0,0 z"
   id="path22"
   inkscape:connector-curvature="0" />
	<path
   d="M503.259,448.6106c0.0478,0.0303,0.099,0.0512,0.1473,0.0807c-0.0884-0.0573-0.1806-0.1169-0.2745-0.1774   C503.1774,448.5446,503.2125,448.58,503.259,448.6106z"
   id="path24" />
	<path
   d="M338.9872,381.8156c1.2016-1.054,2.3863-2.1429,3.5613-3.248C342.0398,378.925,338.9935,381.5355,338.9872,381.8156z"
   id="path26" />
</g>
</svg>