<?xml version="1.0" encoding="UTF-8" standalone="no"?>
<!-- Created with Inkscape (http://www.inkscape.org/) -->

<svg
   xmlns:dc="http://purl.org/dc/elements/1.1/"
   xmlns:cc="http://creativecommons.org/ns#"
   xmlns:rdf="http://www.w3.org/1999/02/22-rdf-syntax-ns#"
   xmlns:svg="http://www.w3.org/2000/svg"
   xmlns="http://www.w3.org/2000/svg"
   xmlns:sodipodi="http://sodipodi.sourceforge.net/DTD/sodipodi-0.dtd"
   xmlns:inkscape="http://www.inkscape.org/namespaces/inkscape"
   version="1.1"
   id="svg6076"
   width="666.66669"
   height="666.66669"
   viewBox="0 0 666.66669 666.66669"
   sodipodi:docname="pngwing.com.svg"
   inkscape:version="0.92.5 (2060ec1f9f, 2020-04-08)">
  <metadata
     id="metadata6082">
    <rdf:RDF>
      <cc:Work
         rdf:about="">
        <dc:format>image/svg+xml</dc:format>
        <dc:type
           rdf:resource="http://purl.org/dc/dcmitype/StillImage" />
        <dc:title></dc:title>
      </cc:Work>
    </rdf:RDF>
  </metadata>
  <defs
     id="defs6080" />
  <sodipodi:namedview
     pagecolor="#ffffff"
     bordercolor="#666666"
     borderopacity="1"
     objecttolerance="10"
     gridtolerance="10"
     guidetolerance="10"
     inkscape:pageopacity="0"
     inkscape:pageshadow="2"
     inkscape:window-width="1920"
     inkscape:window-height="1016"
     id="namedview6078"
     showgrid="false"
     inkscape:zoom="0.50063159"
     inkscape:cx="143.26866"
     inkscape:cy="243.33693"
     inkscape:window-x="0"
     inkscape:window-y="27"
     inkscape:window-maximized="1"
     inkscape:current-layer="svg6076" />
  <path
     style="fill:#000000;stroke-width:1.33333337"
     d="m 143.51765,641.65185 c -13.09912,-27.1591 -19.05244,-41.73557 -24.29423,-59.48353 -8.66017,-29.32209 -13.88288,-65.49785 -13.88386,-96.16829 -7.1e-4,-22.54235 1.87401,-36.71775 6.78895,-51.33334 2.94609,-8.76083 3.27558,-11.53449 2.65889,-22.38316 l -0.70392,-12.38317 5.56278,-3.60435 c 3.05952,-1.9824 6.00359,-4.20997 6.54236,-4.95017 1.74388,-2.39586 1.07778,-22.73294 -0.96516,-29.46724 -1.09205,-3.59988 -1.99205,-9.04871 -2,-12.10851 -0.0133,-5.1136 0.33583,-5.67313 4.31891,-6.92265 7.92911,-2.48743 28.05742,-4.31459 53,-4.81112 l 24.66667,-0.49106 -17.33333,1.25398 c -9.53334,0.68968 -23.03334,1.63184 -30,2.09368 l -12.66667,0.8397 7.33333,2.24476 c 10.52539,3.22184 14.67003,5.6677 21.90558,12.92699 l 6.40796,6.42899 -3.82343,-7.1714 c -3.14005,-5.8896 -5.01503,-7.72282 -10.49011,-10.25652 -3.66666,-1.69683 -6.36666,-3.21299 -6,-3.36927 0.36667,-0.15628 10.86667,-0.73671 23.33334,-1.28985 12.46666,-0.55315 25.06666,-1.38367 28,-1.84562 5.1033,-0.80366 5.03844,-0.73381 -1.50392,1.61974 -9.29826,3.34493 -13.36752,6.21881 -15.99215,11.29426 -2.86073,5.53207 -2.89883,17.19992 -0.0703,21.5169 1.99162,3.03957 2.51511,3.1711 7.19048,1.80665 6.51287,-1.90071 6.32284,-1.64461 3.84516,-5.18201 -2.50528,-3.57679 -2.88658,-10.61382 -0.54852,-10.12288 0.87312,0.18333 1.82012,-0.73234 2.10447,-2.03483 0.30703,-1.40635 -0.17017,-2.21863 -1.17496,-2 -3.81172,0.82941 -2.57901,-4.19795 1.55331,-6.33485 6.3616,-3.28971 7.93364,-0.70334 3.4793,5.72428 -6.76765,9.76573 -3.8134,15.52212 8.76622,17.08104 l 8.35085,1.03486 -14.57125,1.78044 c -8.01419,0.97926 -14.86419,2.07339 -15.22223,2.43142 -1.54215,1.54216 1.81108,2.40738 13.94805,3.59904 11.84412,1.1629 13.20767,1.05349 16.38243,-1.31443 1.90466,-1.4206 3.68242,-3.71933 3.95058,-5.10828 0.26817,-1.38895 1.03942,-2.87391 1.7139,-3.29992 1.83392,-1.15829 2.91148,-9.7618 1.89875,-15.16011 -0.53841,-2.86996 -2.96444,-6.92982 -6.12876,-10.25621 -2.88068,-3.02821 -4.93461,-5.99608 -4.56429,-6.59525 0.77894,-1.26038 -7.03451,-3.53924 -18.42365,-5.3734 -11.22944,-1.80846 -24.76592,-5.0471 -29.68388,-7.10195 -6.80406,-2.84292 -13.52102,-10.9333 -17.99014,-21.6686 -4.75408,-11.41982 -4.44988,-14.52535 0.47694,-4.86916 5.32954,10.44544 11.0316,17.38485 17.30679,21.06236 6.03936,3.53929 52.43755,15.40211 60.24491,15.40307 3.20815,3.8e-4 29.75196,-8.36098 30.666,-9.65987 0.13147,-0.18682 2.82811,-5.08343 5.99253,-10.88136 l 5.7535,-10.54172 1.09914,-19.02654 c 0.60452,-10.4646 1.26074,-28.82084 1.45824,-40.79162 0.35211,-21.34087 0.28407,-21.94699 -3.49066,-31.09842 -2.11736,-5.13333 -4.11902,-9.63333 -4.44811,-10 -0.32908,-0.36667 -1.77064,0.77939 -3.20345,2.54677 -1.82398,2.2499 -2.18418,3.63439 -1.20127,4.6173 2.43451,2.4345 -8.93809,6.01433 -19.2974,6.07434 -5.89967,0.0341 -8.64871,-0.37942 -7.47237,-1.12426 1.21966,-0.77228 1.49714,-2.02879 0.80524,-3.64626 -0.9394,-2.19596 -1.20955,-2.06386 -2.45168,1.19878 -0.76779,2.01666 -2.21407,3.66666 -3.21396,3.66666 -2.91054,0 2.09732,-7.5817 8.6661,-13.12018 5.83118,-4.91654 6.95475,-6.87982 3.9373,-6.87982 -4.0469,0 -16.93727,16.49416 -16.93727,21.67244 0,3.93555 5.30316,11.34574 14.51171,20.27745 5.7159,5.54405 6.81397,7.38109 6.77437,11.33333 -0.026,2.59423 -0.90472,6.21679 -1.95275,8.05012 -1.04802,1.83333 -1.92677,4.71875 -1.95274,6.41203 -0.0261,1.7042 -0.64252,2.71078 -1.38059,2.25464 -2.22488,-1.37506 -1.49585,-7.37278 1.33333,-10.96951 1.46667,-1.86456 2.66667,-4.55453 2.66667,-5.97771 0,-1.43537 -4.03833,-6.55032 -9.06905,-11.48686 -8.96315,-8.79533 -14.93095,-18.36754 -14.93095,-23.94887 0,-3.76066 6.78972,-18.75555 7.56516,-16.70744 0.32824,0.86694 -0.41239,3.56694 -1.64584,6 l -2.24264,4.42372 3.82832,-3.45216 c 7.35432,-6.63167 13.04921,-9.76368 19.18425,-10.55074 6.17407,-0.79206 9.31075,0.59251 9.31075,4.10988 0,1.17226 0.46449,1.16738 1.89511,-0.0199 1.555,-1.29054 1.76637,-1.08055 1.17781,1.17008 -0.51571,1.97208 -0.0817,2.74286 1.54417,2.74286 1.85251,0 2.09395,-0.78361 1.33512,-4.33333 -3.51836,-16.45877 -15.72389,-45.70732 -22.26501,-53.35448 l -3.15444,-3.68783 -2.94171,3.97888 c -1.61793,2.18838 -4.28781,4.67135 -5.93304,5.5177 -2.46837,1.26978 -2.69996,1.23056 -1.32468,-0.22439 2.35064,-2.48681 2.08022,-4.56628 -0.33333,-2.56321 -1.12479,0.93349 -2,1.07418 -2,0.3215 0,-0.73608 2.1,-2.94008 4.66667,-4.89777 3.03882,-2.31783 4.66666,-4.67107 4.66666,-6.74623 0,-1.75273 0.6,-3.55761 1.33334,-4.01084 2.06908,-1.27876 1.61102,-2.88281 -1.9793,-6.9313 -7.47825,-8.43259 -7.48912,-8.39523 1.21176,-4.16802 4.8014,2.3327 5.5962,3.18121 4.05906,4.33334 -1.6591,1.24352 -1.65746,1.87268 0.012,4.76598 3.22438,5.58676 4.47642,8.50257 5.29586,12.33334 0.57727,2.69857 1.58702,3.66666 3.82443,3.66666 3.40319,0 6.41275,6.33414 6.96863,14.66667 0.46705,7.00093 2.84674,11.90363 6.4412,13.27024 1.98661,0.75531 5.84473,5.57575 10.09673,12.61515 3.78484,6.26601 9.25227,14.39193 12.14981,18.05761 6.04354,7.64564 8.67908,17.12204 7.39555,26.59159 -0.88081,6.49849 -11.02108,38.43223 -13.00521,40.95601 -0.64452,0.81984 -1.77099,7.81378 -2.50326,15.5421 -1.41306,14.91357 -2.50193,18.81308 -9.39168,33.63397 -3.66492,7.88379 -4.50705,11.6112 -5.4223,24 -0.59595,8.06667 -1.61072,16.46667 -2.25506,18.66667 -1.1224,3.83231 -1.292,3.60121 -4.04548,-5.51205 -2.93038,-9.69875 -4.57585,-11.9584 -10.71393,-14.71299 l -3.47255,-1.55837 4.0785,-0.10827 c 4.4711,-0.11867 7.04849,1.4986 10.3931,6.52172 2.13806,3.21104 2.19507,3.04276 2.19507,-6.47788 v -9.77456 l -3.66667,0.94193 c -2.01666,0.51807 -9.59552,2.28123 -16.84189,3.91814 l -13.17524,2.97621 5.84191,1.50272 5.84189,1.50272 -5.33333,-0.66943 -5.33334,-0.66942 4.04499,3.26408 c 2.22473,1.79525 5.42735,6.2155 7.11691,9.82278 2.89974,6.19108 2.95709,6.83358 1.02305,11.46238 -1.88783,4.51906 -4.85121,6.69984 -4.85121,3.57022 0,-3.05448 -2.79504,-0.97546 -5.30624,3.94688 -1.48156,2.90412 -2.69376,5.60412 -2.69376,6 0,1.49742 9.22398,0.64499 10.24606,-0.94688 0.58855,-0.91666 2.67104,-5.74285 4.62776,-10.72485 l 3.55766,-9.05819 -2.92911,-3.16057 c -3.87236,-4.17833 -6.83753,-9.83235 -5.73477,-10.93509 1.32286,-1.32287 5.76096,3.18825 7.66937,7.79557 l 1.68063,4.05741 2.5741,-5.01745 c 3.22383,-6.28388 3.68988,-5.58525 8.41032,12.60752 2.01251,7.75628 4.07223,14.58169 4.57715,15.1676 0.50493,0.58591 1.33077,-4.8062 1.83521,-11.98244 0.50444,-7.17625 1.43786,-13.56841 2.07424,-14.2048 1.5002,-1.5002 17.1079,6.74637 27.40072,14.47759 l 7.98935,6.00101 1.45708,-4.34499 c 2.2622,-6.74585 6.65141,-8.5631 15.53511,-6.43193 6.53352,1.56736 7.65853,1.50616 10.85881,-0.59073 3.17298,-2.07902 4.43387,-2.15596 11.33404,-0.69164 6.70082,1.422 8.3303,1.3547 11.9005,-0.49154 5.8317,-3.01569 10.681,-2.6696 18.7192,1.336 5.1269,2.55482 7.6833,4.86594 9.6529,8.72675 1.4735,2.88837 4.6968,7.48488 7.1628,10.21445 2.466,2.72958 7.9348,11.55254 12.1528,19.60659 7.7536,14.80481 10.7373,19.3104 12.7881,19.3104 1.8921,0 1.2543,-31.45009 -0.9429,-46.49555 -5.0673,-34.69761 -22.0882,-85.66805 -30.4385,-91.15071 -0.8206,-0.53877 -7.2403,-0.98877 -14.266,-1 -13.3768,-0.0213 -12.4667,0.25366 -29.65726,-8.96197 -2.07054,-1.10999 -6.78413,-2.81469 -10.47464,-3.78823 -6.80778,-1.79585 -14.41947,-6.36853 -21.29981,-12.79574 -4.7534,-4.44034 -5.31754,-12.68262 -1.12759,-16.47447 3.16908,-2.86797 3.33065,-5.41854 0.73656,-11.62708 -3.55172,-8.50044 -0.82845,-12.91935 15.26344,-24.76731 5.5,-4.04948 13.99167,-11.16735 18.87036,-15.81748 9.97588,-9.50852 12.53654,-10.1736 21.51614,-5.58835 3.5379,1.80658 9.0645,3.09399 14.9468,3.48184 9.1204,0.60135 9.4948,0.77171 16.4099,7.46688 3.8921,3.76832 8.3595,8.9515 9.9275,11.51816 1.5681,2.56667 9.1227,13.66667 16.7882,24.66667 15.2701,21.91287 18.1268,26.9524 28.7202,50.66667 3.9311,8.8 19.5868,42.7 34.7905,75.33334 36.2856,77.88399 38.4293,84.42035 40.4835,123.44199 l 1.0013,19.02097 14.1529,14.43519 c 34.5117,35.20025 46.5418,54.31283 46.8522,74.43519 0.2309,14.97234 -2.6901,26.84301 -8.0707,32.79867 -5.1641,5.71606 -9.3155,7.3129 -21.7221,8.35544 -4.7667,0.40054 -13.1218,2.25473 -18.5669,4.12041 -15.1777,5.20041 -19.7929,4.69183 -43.2234,-4.76311 -11.1153,-4.4854 -20.9514,-8.44638 -21.8579,-8.80221 -0.9078,-0.35635 -2.2433,0.91861 -2.9732,2.83832 -1.534,4.03473 -3.7306,5.04508 -17.3786,7.9932 -15.4551,3.33849 -17.3758,3.02723 -25.3036,-4.10052 -6.6339,-5.96444 -7.1069,-6.16083 -11.2389,-4.66667 -6.3852,2.30892 -12.9446,1.88774 -17.4575,-1.12096 -2.2,-1.46669 -5.9829,-3.94217 -8.4063,-5.50108 -3.0118,-1.93728 -6.1378,-6.26057 -9.8767,-13.65959 l -5.4704,-10.82524 -1.9782,4.66667 c -1.0881,2.56667 -3.6241,10.96667 -5.6357,18.66667 -2.0116,7.7 -4.6222,17.36073 -5.8015,21.46829 -1.1793,4.10756 -2.2987,12.05167 -2.4877,17.65358 l -0.3435,10.18526 -69.00003,0.0133 c -37.95,0.007 -69,-0.1984 -69,-0.45688 0,-0.2585 3.71649,-3.4085 8.25886,-7 12.41128,-9.81322 12.85216,-10.2185 10.23526,-9.4091 -1.1949,0.36959 -7.30355,4.31856 -13.57478,8.77552 l -11.40224,8.10332 H 186.17793 154.2964 Z m 84.45247,10.89781 c 4.71474,-3.36437 8.57226,-6.36915 8.57226,-6.67729 0,-0.30814 -4.2,2.23256 -9.33334,5.646 -5.13333,3.41342 -9.33333,6.41821 -9.33333,6.67729 0,1.22304 2.16625,0.012 10.09441,-5.646 z m 40.19704,-20.66667 c 13.17692,-8.76877 20.2038,-13.9944 15.04188,-11.18608 -4.55592,2.47863 -31.43645,19.77086 -32.66666,21.01444 -3.20182,3.2366 4.16606,-0.87204 17.62478,-9.82836 z m -26.4086,5.91823 c 7.67778,-4.43328 22.90739,-15.45539 22.25571,-16.10708 -0.46751,-0.46749 -26.78956,16.07019 -29.40523,18.47477 -2.50984,2.30731 1.1551,1.0936 7.14952,-2.36769 z m 25.11715,-10.46583 c 8.25,-4.99673 15,-9.62672 15,-10.28885 0,-1.4167 0.60927,-1.76143 -17.66667,9.99591 -7.88333,5.07153 -14.33333,9.49712 -14.33333,9.83464 0,0.7827 -0.63291,1.13794 17,-9.5417 z m 274.82477,2.66298 c 4.1675,-1.85534 13.4414,-4.21446 20.8419,-5.30186 11.2719,-1.65625 13.7902,-2.48336 16.2882,-5.34965 7.1997,-8.26128 9.4654,-32.7781 4.304,-46.57316 -5.2295,-13.97711 -22.0457,-35.46147 -47.5686,-60.77367 l -3.3611,-3.33334 0.9012,3.33334 c 0.4956,1.83333 1.4466,9.60184 2.1134,17.26336 1.4311,16.44447 0.7563,18.07995 -6.9512,16.84745 -4.026,-0.64377 -6.6954,0.0107 -12.9673,3.1761 -4.3437,2.19272 -8.2592,4.57177 -8.7011,5.2868 -0.4419,0.71502 1.8734,7.02845 5.1452,14.02984 3.2717,7.00138 5.6062,12.72978 5.1878,12.72978 -0.4185,0 -5.561,-4.58606 -11.4279,-10.19126 l -10.6671,-10.19127 -13.4811,0.85912 c -16.2653,1.03655 -19.4811,1.81809 -19.4811,4.73467 0,2.9169 11.7111,21.8309 18.1341,29.28753 2.763,3.20765 10.3091,10.20675 16.769,15.55353 10.1431,8.39526 21.7221,19.96499 17.7636,17.74938 -29.4497,-16.48323 -41.1095,-26.68587 -52,-45.5016 -3.6667,-6.33496 -7.0655,-11.54406 -7.5529,-11.57578 -0.4874,-0.0317 -1.2506,4.59235 -1.6959,10.27568 -0.4453,5.68334 -1.0363,12.55987 -1.3132,15.28118 -0.2771,2.72256 0.1858,5.51706 1.0292,6.21349 0.843,0.69611 9.3328,4.36928 18.8661,8.16261 9.5334,3.79332 23.3334,9.90547 30.6667,13.58254 7.3333,3.67707 14.8333,7.20656 16.6667,7.84332 4.9654,1.72461 14.0357,0.34613 22.4914,-3.41813 z m 1.5086,-73.33167 c 0,-1.1 0.6,-2 1.3333,-2 0.7333,0 1.3333,0.9 1.3333,2 0,1.1 -0.6,2 -1.3333,2 -0.7333,0 -1.3333,-0.9 -1.3333,-2 z m -3.9324,-2 c -0.032,-2.38158 2.1871,-6.18972 3.0841,-5.29271 0.3465,0.34653 -0.1996,2.12916 -1.2136,3.96139 -1.0688,1.93132 -1.8549,2.49081 -1.8705,1.33132 z m -5.401,-3.74516 c 0,-1.64818 3.698,-6.34062 4.4023,-5.58608 1.008,1.08 -1.5276,6.66457 -3.026,6.66457 -0.7569,0 -1.3763,-0.48532 -1.3763,-1.07849 z m -306.90302,43.19721 c 6.73001,-3.38001 12.23638,-6.72461 12.23638,-7.43243 0,-2.71864 -14.39496,4.46159 -31.50868,15.71656 -15.12452,9.94676 -17.70132,13.20387 -3.45633,4.36884 5.77073,-3.57912 15.99861,-9.27296 22.72863,-12.65297 z m 43.69145,4.95552 c 9.83305,-7.10916 17.87827,-13.41133 17.87827,-14.00481 0,-0.59348 -7.05,4.03604 -15.66667,10.28781 -19.63821,14.2484 -22.61028,16.57615 -21.2116,16.61311 0.61696,0.0163 9.16696,-5.78694 19,-12.89611 z m -1.7884,-3.45573 c 7.88333,-5.78111 14.33333,-10.79568 14.33333,-11.1435 0,-0.92033 -1.99826,0.34438 -15.33333,9.70448 -14.67555,10.301 -16.66667,11.8596 -16.66667,13.04619 0,1.26049 1.15155,0.50392 17.66667,-11.60717 z m 133.35757,-12.61851 c -0.5663,-12.38773 -0.2731,-15.32876 2.1596,-21.66667 3.2132,-8.37125 3.3583,-9.33333 1.4079,-9.33333 -3.1705,0 -7.0501,12.48511 -7.0667,22.74165 -0.013,8.19312 2.4222,22.59168 3.8213,22.59168 0.1832,0 0.038,-6.45 -0.3221,-14.33333 z m -233.30976,1.68311 c 2.73903,-1.91848 2.75111,-2.01372 0.24887,-1.96055 -1.44651,0.0308 -4.73002,1.26271 -7.29668,2.73771 l -4.66667,2.68182 4.4178,-0.72126 c 2.4298,-0.39671 5.71331,-1.62868 7.29668,-2.73772 z m 215.57816,-2.10475 c -0.7306,-2.51809 -0.9839,-6.37836 -0.5629,-8.57836 0.5784,-3.02264 0.4248,-3.51132 -0.6284,-2 -1.8227,2.61544 -1.819,10.12381 0.01,13.53519 2.0934,3.91162 2.7222,2.34232 1.1846,-2.95683 z M 175.20904,574.6667 c 11.36667,-5.78943 20.06667,-10.55503 19.33333,-10.5902 -1.61514,-0.0775 -31.45978,14.35582 -38,18.37738 -9.39562,5.77734 -1.49052,2.47955 18.66667,-7.78718 z m -2.29517,-4.57103 c 11.571,-5.75507 20.76541,-10.73652 20.43202,-11.06989 -0.74864,-0.74864 -22.20681,7.02553 -29.42928,10.66206 -6.9289,3.48872 -12.39737,7.58063 -13.31032,9.95975 -0.40282,1.04973 -0.28198,1.68433 0.26851,1.41021 0.55049,-0.2741 10.46808,-5.20706 22.03907,-10.96213 z m 249.86671,-1.60543 c 1.1698,-1.78526 1.6593,-4.14586 1.1365,-5.47992 -0.7216,-1.84118 -1.348,-1.20024 -2.9219,2.98971 -3.0183,8.03555 -3.5321,11.05212 -2.3243,13.64443 0.833,1.78766 1.2129,1.10509 1.5762,-2.83118 0.2632,-2.8527 1.4033,-6.59806 2.5335,-8.32304 z m -139.75416,0.65866 c 16.70205,-11.20856 21.03641,-14.4822 19.17469,-14.4822 -0.75216,0 -4.28307,2.08222 -7.84648,4.62717 -3.5634,2.54495 -10.67892,7.44223 -15.81225,10.88285 -10.49378,7.03348 -12.34359,8.48998 -10.78263,8.48998 0.59621,0 7.46621,-4.28302 15.26667,-9.5178 z m 10.2665,-1.36991 3.91612,-4.22105 -5,3.71264 c -5.07042,3.76492 -5.86909,4.72945 -3.91612,4.72945 0.59614,0 2.84614,-1.89947 5,-4.22104 z m 201.28996,-14.92741 c 16.2457,-6.85192 29.9276,-14.0318 33.4487,-17.55286 2.5965,-2.59645 3.1775,-4.55236 3.1775,-10.69625 0,-6.39743 -0.3977,-7.62276 -2.6667,-8.21611 -1.4667,-0.38355 -2.6759,-1.67737 -2.6873,-2.87517 -0.098,-10.34023 -3.1089,-44.68759 -4.8078,-54.8445 -3.9184,-23.42596 -7.6906,-32.97947 -49.2255,-124.66667 -22.5092,-49.68856 -41.7689,-88.53768 -44.827,-90.42137 -1.4095,-0.86824 -4.6391,-5.88425 -7.1769,-11.14666 -2.5378,-5.26241 -6.7,-12.30057 -9.2493,-15.64036 -2.5493,-3.33979 -5.571,-8.31223 -6.7148,-11.04985 -2.346,-5.61475 -4.9773,-8.84104 -10.3114,-12.64312 -5.1313,-3.65754 -4.5718,-1.45164 1.7738,6.99388 2.9922,3.98245 6.3686,9.04081 7.503,11.24081 l 2.0625,4 -3.6796,-3.33333 c -2.0238,-1.83334 -6.2415,-7.29803 -9.3727,-12.14376 -5.6821,-8.79334 -8.5633,-10.84656 -13.0245,-9.28167 -2.0536,0.72036 -1.5856,1.86555 3.5884,8.78203 3.2725,4.3745 5.7237,8.17994 5.4471,8.45652 -1.0258,1.02585 -7.2672,-4.69631 -12.6702,-11.61616 -6.4693,-8.28547 -15.0993,-12.9889 -20.17849,-10.99743 -1.71379,0.67195 -5.81598,4.04852 -9.11598,7.50349 -3.3,3.45498 -9.25917,8.39847 -13.2426,10.98554 -8.17497,5.3093 -18.27621,14.25432 -20.23957,17.92289 -1.82191,3.40425 4.67653,17.86686 8.47432,18.85999 4.41427,1.15436 9.92539,-0.52364 13.21285,-4.02299 2.58731,-2.75407 2.75575,-3.44701 1.0934,-4.49827 -2.9831,-1.88648 -4.49586,-1.5756 -9.779,2.00963 -4.7093,3.19583 -6.88311,2.71844 -2.85273,-0.62648 2.73024,-2.26589 2.512,-4 -0.50341,-4 -1.37687,0 -3.25034,-0.9 -4.16326,-2 -1.98441,-2.39107 -1.65156,-2.43701 3.82458,-0.52803 4.40209,1.53458 10.84209,0.69854 10.84209,-1.40752 0,-0.66994 -1.20064,-1.59916 -2.66808,-2.0649 -1.46745,-0.46575 -3.33812,-2.0988 -4.15707,-3.629 -1.48837,-2.78107 -1.48712,-2.78103 3.1588,0.0903 5.44251,3.36366 8.29123,3.71164 7.14234,0.87248 -2.32143,-5.73673 -2.25667,-6.50204 0.28626,-3.383 l 2.67715,3.28366 0.95127,-5.28366 c 0.5232,-2.90601 1.51964,-6.18366 2.2143,-7.28366 0.99116,-1.5695 1.09292,-1.46136 0.4727,0.50233 -0.43468,1.37628 -0.13835,3.28792 0.65852,4.24811 1.03264,1.24425 1.03925,2.51113 0.0229,4.41001 -1.74103,3.25315 -1.87932,10.45123 -0.21251,11.06177 0.66735,0.24444 -1.39894,3.44444 -4.59174,7.11111 -5.76218,6.61736 -5.86728,6.66806 -14.21335,6.85486 -4.62455,0.10346 -9.06195,0.2535 -9.8609,0.33333 -1.88669,0.18852 -4.54736,6.06953 -4.54736,10.05127 0,4.14245 14.26774,13.4584 22.66667,14.79993 3.3,0.52711 10.11379,3.10893 15.14175,5.7374 8.21188,4.29293 10.42945,4.83535 21.80185,5.33275 13.9334,0.6094 13.5767,0.96112 7.5494,-7.44287 -3.7001,-5.15916 -0.6126,-3.30229 7.7595,4.66667 9.2683,8.82205 16.2753,18.3681 15.3165,20.86668 -0.363,0.946 0.4535,4.20724 1.8146,7.2472 4.4763,9.99824 11.6703,33.93753 15.1142,50.29511 4.258,20.22477 5.9184,37.37601 7.2855,75.25768 1.1103,30.76125 1.5994,33.42707 7.2775,39.66141 1.5001,1.64711 2.4093,3.31296 2.0203,3.70191 -1.2654,1.2654 -10.3249,-9.85928 -11.1267,-13.66304 -1.4214,-6.74395 -2.6483,-7.53913 -17.3976,-11.2764 -16.6823,-4.22705 -18.192,-4.40513 -14.6541,-1.72859 1.4131,1.06911 2.2567,2.25644 1.8746,2.63855 -0.8104,0.8104 -26.48,3.51128 -36.96738,3.8896 l -7.19009,0.25937 -5.76089,15.2586 c -8.75258,23.18251 -8.04596,27.9586 7.4407,50.29255 16.74846,24.15366 16.64516,24.1048 69.36706,32.81455 36.0186,5.95035 34.0056,5.71408 50.7071,5.95172 13.1665,0.18733 14.7019,-0.0792 24.6667,-4.28201 z M 354.79801,522.72429 c -9.96844,-13.26096 -13.3005,-21.3761 -13.90803,-33.8727 -0.38147,-7.84671 -0.13908,-10.29775 0.87535,-8.85156 0.77158,1.1 1.41208,3.84109 1.4233,6.09133 0.0437,8.77171 7.03026,26.31333 15.29325,38.39832 5.7107,8.35208 2.9142,7.01192 -3.68387,-1.76539 z m 94.41107,-21.24432 c 6.192,-2.8578 9.9256,-6.6887 13.7872,-14.14661 l 2.7616,-5.33333 0.059,5.06621 c 0.1189,10.22548 -6.6076,16.96385 -16.8749,16.90451 l -5.0662,-0.0293 5.3333,-2.46149 z m 44.7619,-10.41041 c 0.8562,-3.68143 0.2705,-11.09341 -2.1392,-27.06953 -1.8251,-12.1 -3.6804,-24.4 -4.1228,-27.33334 -1.4286,-9.4698 0.9374,-3.96693 4.9648,11.54782 5.6007,21.57481 7.5462,37.99777 5.0973,43.0284 -2.9389,6.03713 -5.2204,5.93306 -3.8001,-0.17335 z M 317.92764,251.81894 c 1.23794,-4.31641 2.27089,-6.00671 3.08066,-5.04115 0.86663,1.03336 -1.86616,9.22223 -3.07764,9.22223 -0.71331,0 -0.71455,-1.70013 -0.003,-4.18108 z m 44.10124,-53.67615 c -2.0075,-1.11279 -2.6322,-2.10135 -1.6942,-2.68108 1.7305,-1.06951 6.8744,1.36377 6.8744,3.25188 0,1.70636 -1.3379,1.55893 -5.1802,-0.5708 z m -69.37134,355.12893 c 1.27632,-0.68305 7.62253,-2.48205 14.1027,-3.99776 9.15056,-2.14032 13.94122,-2.55536 21.44881,-1.85824 6.08512,0.56504 9.66666,0.40935 9.66666,-0.42021 0,-1.97389 -20.10887,-3.39501 -24.48683,-1.73052 -2.02773,0.77093 -6.28352,1.40171 -9.45732,1.40171 -3.80653,0 -6.02264,0.65692 -6.5112,1.93012 -1.23696,3.22344 -11.29942,5.11737 -22.35422,4.20745 -12.91982,-1.06344 -22.36454,-3.83761 -32.8571,-9.651 -4.58333,-2.5394 -8.33333,-4.3582 -8.33333,-4.04177 0,0.31642 3.81379,3.06009 8.47508,6.09704 7.9344,5.16946 15.14224,7.4819 30.85825,9.90002 5.23002,0.80471 16.50194,-0.25988 19.4485,-1.83684 z m 80.55154,-2.60502 c 0.5144,-0.83243 -2.1882,-1.33334 -7.194,-1.33334 -8.114,0 -22.02182,-4.09886 -28.65502,-8.4451 -6.38959,-4.18663 -25.60906,-32.5141 -24.43984,-36.02175 0.26902,-0.80708 2.72853,2.03333 5.46557,6.31201 2.73704,4.27868 5.23055,7.52532 5.54111,7.21476 0.31057,-0.31057 -1.21495,-4.80031 -3.39005,-9.9772 -8.39301,-19.97595 -9.87926,-36.9388 -4.49593,-51.31248 1.9388,-5.17667 2.0381,-6.58536 0.58742,-8.33333 -2.20358,-2.65514 -4.08596,-2.70286 -4.08596,-0.10358 0,1.1 -0.61883,2 -1.37518,2 -0.75636,0 -1.72054,-0.9 -2.14265,-2 -1.74869,-4.55701 -3.1482,-1.4358 -3.13872,7 0.009,7.96323 0.61651,14.86748 3.31456,37.66667 1.31507,11.11261 -1.70445,1.54049 -6.09868,-19.33333 -2.31565,-11 -4.63504,-20.78999 -5.1542,-21.75552 -0.51916,-0.96554 -1.62412,4.47394 -2.45547,12.08773 -0.83134,7.61379 -1.8993,14.85377 -2.37325,16.08885 -1.06783,2.78271 -3.71291,2.89264 -5.90975,0.2456 -2.25508,-2.7172 -3.94349,-2.51792 -7.57548,0.89415 -1.69437,1.59179 -3.4562,2.51861 -3.91518,2.05963 -1.36,-1.36 11.30994,-31.72203 16.26006,-38.96532 3.22424,-4.7179 4.56394,-8.16563 4.56394,-11.74536 0,-6.07975 -1.87519,-5.41346 -4.05874,1.44214 -0.87264,2.73979 -3.54314,7.08143 -5.93445,9.6481 -5.15976,5.53814 -22.00681,30.65977 -22.00681,32.81565 0,0.82647 2.31753,4.43105 5.15009,8.01017 2.83255,3.57914 10.12244,14.30751 16.19977,23.84084 12.89011,20.22033 11.75774,18.67019 12.8446,17.58331 0.47364,-0.47362 -2.883,-6.53929 -7.45918,-13.47924 -4.57618,-6.93996 -7.90491,-13.29025 -7.39719,-14.11177 0.50772,-0.82151 -0.14147,-2.67003 -1.44264,-4.10782 -2.95117,-3.261 -1.23736,-5.33905 4.53865,-5.50328 6.44935,-0.18337 14.49956,7.51816 26.32686,25.18659 16.15644,24.1356 23.82371,31.31106 38.28709,35.83122 6.71025,2.09709 20.45775,2.47928 21.61865,0.601 z m -116.6667,-8.09671 c -8.68403,-2.56468 -13.12138,-3.24689 -11.66843,-1.79393 1.23068,1.23066 13.33233,4.31712 17.00176,4.33617 1.83333,0.009 -0.56667,-1.13448 -5.33333,-2.54224 z m 2.30556,-3.37552 c -0.44307,-0.44305 -1.59307,-0.49041 -2.55556,-0.1052 -1.06364,0.42563 -0.74771,0.74157 0.80556,0.80555 1.40554,0.0579 2.19305,-0.25724 1.75,-0.7003 z m 14.29444,-0.34412 c -1.55274,-1.40933 -19.36815,-5.85995 -20.18542,-5.04269 -0.65768,0.65768 10.4331,4.40876 15.58542,5.27124 5.8617,0.98122 5.92917,0.97786 4.6,-0.22855 z m 27.4,-0.18365 c 0,-0.73334 -2.25,-1.27352 -5,-1.20043 -4.4623,0.11867 -4.64154,0.24771 -1.66667,1.20043 4.76607,1.52636 6.66667,1.52636 6.66667,0 z m -165.59943,-13 c -1.41607,-4.95001 -2.92079,-15.13271 -3.34382,-22.62823 -0.42302,-7.49552 -1.28385,-13.31011 -1.91294,-12.92131 -0.6291,0.3888 -1.14382,-2.29309 -1.14382,-5.95976 0,-3.66667 -0.69084,-7.09363 -1.5352,-7.61547 -2.36137,-1.45941 -0.47135,24.67284 2.70918,37.4581 2.48662,9.99585 6.2721,20.66667 7.33154,20.66667 0.25835,0 -0.68888,-4.05 -2.10494,-9 z m 31.22156,-2.93299 c -2.17778,-1.87019 -7.24694,-7.0508 -11.26482,-11.51247 -6.54861,-7.27195 -7.48116,-9.06719 -9.00388,-17.33333 -0.93426,-5.07167 -2.20273,-10.12122 -2.81884,-11.22122 -1.97817,-3.53188 -1.26894,6.65631 1.2501,17.95792 1.92729,8.64682 2.8928,10.75654 5.18665,11.33334 1.5502,0.38981 4.16645,2.50874 5.81391,4.70874 6.95109,9.28242 10.92452,12.68078 12.90492,11.03719 1.5864,-1.3166 1.25278,-2.11836 -2.06804,-4.97017 z m 86.26676,6.07244 c -0.30556,-0.28996 -2.90452,-1.16892 -5.77547,-1.95324 -2.87096,-0.78432 -4.67096,-0.90531 -4,-0.26888 1.22879,1.16557 4.9475,2.30851 8.44214,2.59467 1.03888,0.0851 1.63888,-0.0825 1.33333,-0.37255 z m 58.58644,-1.80612 c -2.6554,-3.19714 -21.36801,-24.68304 -22.93436,-26.33334 -3.16463,-3.33422 1.71453,3.6795 10.89868,15.66667 5.47807,7.15 10.86317,13 11.96689,13 1.76058,0 1.76902,-0.28624 0.0688,-2.33333 z m -118.47534,0.52285 c 0,-0.26244 -3.45,-2.61994 -7.66666,-5.23891 -6.9845,-4.33805 -22.20392,-18.28394 -19.95363,-18.28394 0.52037,0 4.69783,2.76408 9.28321,6.14238 8.70898,6.41639 20.83967,13.1328 21.86594,12.10654 0.32837,-0.32838 -3.4813,-3.13872 -8.46591,-6.24523 -9.71251,-6.05301 -20.39628,-15.55423 -20.39628,-18.13865 0,-0.86886 1.03567,-1.97716 2.30148,-2.4629 3.2824,-1.25957 19.03853,0.59714 23.24928,2.73971 1.95291,0.99371 8.25291,6.91359 14,13.15528 5.74708,6.24169 10.92088,11.35327 11.49732,11.35904 0.57644,0.005 -2.87356,-4.80749 -7.66667,-10.69615 -9.11874,-11.20298 -10.01978,-12.74612 -6.69825,-11.47153 1.60945,0.61761 1.84064,0.0408 1.14529,-2.85735 l -0.87118,-3.63114 3.49398,3.20669 3.49399,3.20671 -2.56325,-6.54004 c -1.40979,-3.59702 -2.98006,-7.74003 -3.48948,-9.2067 -0.88222,-2.5399 -0.96504,-2.52033 -1.74271,0.41203 -1.20101,4.52869 -3.52336,3.46293 -3.23279,-1.48359 l 0.25035,-4.26177 -1.87917,4.23123 c -3.03976,6.84445 -6.52983,8.43266 -18.58487,8.45737 -8.59959,0.0176 -11.73121,0.60727 -15.933,3 -2.87632,1.63793 -5.47121,3.71276 -5.76643,4.61071 -0.85594,2.6035 17.03035,19.28736 25.72811,23.99849 8.39177,4.5454 8.60133,4.64022 8.60133,3.89172 z m -78.87598,-16.31264 c -5.1812,-11.05445 -8.55537,-13.8136 -5.23111,-4.27763 1.64547,4.7202 9.50563,17.44666 10.29063,16.66166 0.27894,-0.27894 -1.99784,-5.85175 -5.05952,-12.38403 z M 275.941,499.12512 c -12.38956,-18.59601 -12.99818,-19.83996 -12.38201,-25.30663 l 0.64803,-5.74928 -4.00739,3.13626 c -3.81312,2.98421 -4.1888,3.03213 -7.74953,0.98854 -3.53786,-2.03044 -3.91046,-1.99354 -6.82494,0.67591 -3.74628,3.43133 -9.08278,5.27695 -9.08278,3.14127 0,-0.82603 -0.53714,-1.16991 -1.19363,-0.76418 -0.65648,0.40574 -1.58876,-0.29204 -2.07172,-1.55061 -0.75264,-1.96133 -1.05547,-2.00787 -2.11929,-0.32567 -0.97002,1.53383 -1.24566,1.27151 -1.26162,-1.20062 -0.0172,-2.65988 -0.33868,-2.89914 -2.02041,-1.50342 -1.38181,1.1468 -2,1.19727 -2,0.16326 0,-0.82312 -0.9,-1.49659 -2,-1.49659 -2.32003,0 -2.80304,8.6942 -0.66667,12 1.05079,1.62597 1.29632,1.45367 1.31292,-0.92131 0.0107,-1.60672 0.62042,-3.29213 1.35375,-3.74536 0.7402,-0.45746 1.34241,0.54551 1.35375,2.25464 0.0156,2.34699 0.30608,2.62734 1.22234,1.17959 0.90208,-1.42532 1.33346,-0.92639 1.72916,2 l 0.52724,3.89911 1.49924,-3.33334 1.49924,-3.33333 0.16903,4 0.16903,4 1.48006,-3.33333 c 1.47662,-3.32555 1.48131,-3.32634 2.00823,-0.33334 0.62847,3.56979 2.56631,3.94714 3.42357,0.66667 0.37516,-1.43555 0.66928,-0.92253 0.76444,1.33333 0.23571,5.58774 2.35518,4.37219 3.48726,-2 0.89424,-5.03344 1.10768,-5.29418 1.91008,-2.33333 0.8872,3.27379 0.93553,3.24996 2.70496,-1.33333 l 1.80162,-4.66667 0.79204,4.5754 c 0.62898,3.63343 1.59202,4.78839 4.67772,5.60993 5.42296,1.44382 12.96618,9.13912 22.40827,22.86008 4.43283,6.44164 8.37656,11.39519 8.76387,11.00788 0.3873,-0.38729 -5.15934,-9.50498 -12.32586,-20.26153 z m 55.66651,-39.45843 c -0.3057,-0.55 -1.4572,-1 -2.55885,-1 -1.62955,0 -1.8318,1.18087 -1.08476,6.33334 0.50504,3.48333 1.28908,6.93333 1.74233,7.66666 0.90988,1.47218 2.7921,-11.39738 1.90128,-13 z m -124.06168,0 c 4.11109,-9.11778 7.12262,-12.04485 5.48722,-5.33333 -0.8179,3.35661 -0.2609,3.07271 6.58692,-3.35743 11.44945,-10.75104 17.13571,-12.80228 35.85599,-12.93445 l 15.60024,-0.11013 4.5999,-5.29898 c 5.77848,-6.65668 7.6512,-5.49225 2.19961,1.36768 -2.21893,2.79218 -3.75292,5.35819 -3.40884,5.70227 0.79985,0.79983 18.07551,-14.31839 18.07551,-15.81822 0,-5.10929 -20.48038,-5.26989 -36.85084,-0.28897 -9.35494,2.84636 -14.23668,3.55517 -23.43943,3.40329 -11.58063,-0.1911 -16.24867,-1.531 -19.334,-5.54952 -2.52324,-3.28644 -2.14606,-7.08754 0.62426,-6.29108 4.66988,1.3426 23.08467,3.86864 23.70199,3.25132 0.34888,-0.34888 -5.43136,-1.98864 -12.84498,-3.64389 -8.69453,-1.94127 -13.0209,-3.468 -12.1879,-4.301 0.83299,-0.83299 7.23824,-0.0448 18.04434,2.22041 24.00162,5.03132 28.7274,3.6894 6.4396,-1.82858 -19.76579,-4.89358 -24.52858,-4.80006 -29.58373,0.5809 -1.75477,1.86787 -5.30073,4.65574 -7.8799,6.19527 -8.80855,5.25789 -16.95291,14.66038 -19.36575,22.35732 -0.93291,2.97598 -0.81279,3.13294 1.15067,1.5034 1.90012,-1.57694 2.2036,-1.48669 2.27685,0.67714 0.0741,2.18824 0.22721,2.14292 1.23989,-0.36698 1.18566,-2.93858 4.03407,-5.48 3.97711,-3.54846 -0.0175,0.59328 -0.55335,3.32446 -1.1908,6.06929 -0.67771,2.91824 -0.66451,4.68499 0.0319,4.25464 0.65494,-0.40477 1.1908,-1.60055 1.1908,-2.65727 0,-1.05672 0.95536,-1.9213 2.12302,-1.9213 1.16767,0 3.67046,-1.21722 5.56176,-2.70491 5.21582,-4.10276 6.43162,-1.71003 4.4888,8.83404 -0.89757,4.87132 -1.38958,9.09931 -1.09336,9.39555 0.29624,0.29622 1.72883,-2.59379 3.18352,-6.42227 4.39295,-11.56127 5.7507,-8.91715 2.30758,4.49384 -2.87754,11.20796 -4.12023,18.18904 -2.32667,13.07041 0.38544,-1.1 2.52691,-6.05 4.7588,-11 z m -76.75931,-5.25 c -0.42563,-1.06364 -0.74157,-0.7477 -0.80555,0.80556 -0.0579,1.40555 0.25723,2.19306 0.7003,1.75 0.44305,-0.44305 0.49041,-1.59306 0.1052,-2.55556 z m 16.42252,-0.24052 c 0,-0.91656 0.9372,-2.83114 2.08267,-4.25464 1.95354,-2.42772 2.03662,-2.25753 1.34005,2.74516 -0.51843,3.72326 0.67408,1.53304 3.95012,-7.25501 5.0542,-13.55796 5.35432,-14.14845 6.35352,-12.50036 0.36304,0.59879 -0.41135,4.53673 -1.72084,8.751 -3.64313,11.72444 -4.37773,15.19279 -2.89556,13.67104 0.71427,-0.73333 2.89131,-6.43333 4.83787,-12.66667 1.94656,-6.23333 5.01756,-13.86225 6.82442,-16.95315 3.65588,-6.25384 14.1988,-14.26661 30.32794,-23.04966 9.76241,-5.31608 11.30613,-5.736 24,-6.52852 11.99873,-0.74911 12.88664,-0.96576 7.68349,-1.87484 -4.2486,-0.74231 -5.47892,-1.43192 -4.42853,-2.48231 1.2636,-1.2636 25.31733,2.12153 44.31152,6.23607 2.99107,0.64793 3.05952,0.57832 0.66667,-0.67796 -1.46667,-0.77002 -9.56667,-2.8804 -18,-4.68976 -14.056,-3.01568 -13.38412,-3.35582 2.66666,-1.34999 l 6,0.7498 -6,-2.82797 c -8.47622,-3.99511 -36.8076,-5.18372 -49.33333,-2.06974 -12.7629,3.17296 -33.36951,14.03971 -49.80204,26.26276 -7.9578,5.91926 -14.72186,10.50915 -15.03126,10.19976 -0.30938,-0.3094 3.60708,-4.49593 8.70327,-9.30341 14.54635,-13.72229 29.65253,-23.16331 45.2164,-28.25923 10.52949,-3.44754 7.24944,-4.14857 -3.76187,-0.804 -10.27472,3.12086 -38.37865,20.99046 -48.8644,31.06995 -6.33406,6.08865 -13.31388,20.13311 -14.4218,29.01887 l -0.74811,6 2.05602,-5.30112 c 2.69204,-6.94097 5.33984,-9.54757 4.09595,-4.03221 -0.49618,2.2 -1.16746,5.2 -1.49174,6.66666 -0.32428,1.46667 0.36134,0.58088 1.5236,-1.96841 1.16227,-2.54929 3.83712,-6.81171 5.94414,-9.47203 4.34796,-5.48973 18.27053,-16.64864 19.38341,-15.53576 0.40357,0.40356 -1.66197,5.13831 -4.59011,10.52164 -2.92812,5.38335 -6.27357,13.0468 -7.43433,17.0299 -2.49204,8.55137 -2.48456,8.47992 -0.77713,7.42466 0.73333,-0.45322 1.33333,-1.57396 1.33333,-2.49052 z m 193.81655,-4.50948 c -0.17162,-6.54893 0.93951,-8.7581 2.85012,-5.66666 2.14532,3.4712 16.66667,-0.0501 16.66667,-4.04155 0,-0.67303 -3.9929,-6.16936 -8.87307,-12.21411 -9.12817,-11.30641 -14.26678,-20.90396 -15.56845,-29.07768 -0.68437,-4.29748 -0.62507,-4.40296 0.74961,-1.33333 0.82104,1.83333 3.38616,7.53333 5.7003,12.66666 4.03529,8.95132 15.93221,25.09366 24.44381,33.16667 2.2806,2.16306 5.5229,3.83334 7.4411,3.83334 4.3489,0 10.1067,-3.74786 10.1067,-6.57871 0,-1.20115 -3.3473,-6.63124 -7.4385,-12.06688 -4.0912,-5.43564 -7.1291,-10.6894 -6.7509,-11.67502 0.3782,-0.98562 -0.3244,-2.19117 -1.5614,-2.679 -1.7448,-0.68805 -0.9037,-1.59629 3.7508,-4.05009 3.3,-1.73973 7.05,-3.19025 8.3333,-3.22339 3.4546,-0.0892 2.8303,3.35528 -1.1798,6.50964 l -3.5131,2.76344 h 6.116 6.1161 l -1.9218,-6.33333 c -1.057,-3.48333 -1.9283,-8.45257 -1.9363,-11.04276 -0.01,-2.59019 -0.8442,-7.90847 -1.8584,-11.8184 l -1.8441,-7.10897 3.7574,3.8184 c 3.034,3.08332 4.4143,6.7618 7.1695,19.10796 l 3.4122,15.28956 7.868,8.04377 c 4.3273,4.42408 8.9146,10.14378 10.1938,12.71044 2.2552,4.52464 4.2223,6.6041 6.2872,6.64626 0.55,0.0107 1,-3.82032 1,-8.51455 0,-8.32291 -0.1147,-8.60264 -4.6156,-11.25822 -3.4578,-2.04021 -6.1021,-5.66828 -10.5427,-14.46504 -3.2599,-6.45798 -7.8204,-14.44178 -10.1345,-17.74178 -2.3141,-3.3 -6.8833,-10.07708 -10.1538,-15.06018 -4.7654,-7.26076 -7.154,-9.57782 -12.0271,-11.66666 -7.1991,-3.08588 -9.6415,-3.19094 -13.1145,-0.5641 -2.9403,2.22394 -10.06031,2.54146 -16.37555,0.73027 -3.47397,-0.99632 -4.91168,-0.73004 -7.6383,1.41472 -4.35075,3.42229 -7.46454,3.57773 -12.94443,0.64615 -3.539,-1.89326 -5.20647,-2.09335 -8.12019,-0.97435 -3.5464,1.36196 -3.67113,1.74815 -3.80279,11.77448 -0.1252,9.53332 -0.25252,9.99133 -1.5847,5.69967 -1.90607,-6.14046 -2.81327,-6.6222 -12.51574,-6.64626 -7.4033,-0.0184 -8.53081,0.35054 -11.14524,3.64626 -2.58986,3.26477 -2.81566,4.68528 -2.06018,12.96006 1.38618,15.18291 4.71056,20.53011 25.34016,40.75919 10.06653,9.87108 19.60756,18.69115 21.20231,19.60015 1.59473,0.909 4.69952,1.509 6.89952,1.33333 3.9222,-0.31318 3.99642,-0.45556 3.81654,-7.3194 z m -13.6403,0.17487 c -6.59972,-5.64912 -6.4474,-7.70955 0.19537,-2.64285 2.50072,1.9074 5.28056,3.46798 6.17743,3.46798 2.4423,0 0.42722,-5.34109 -3.69883,-9.80394 -3.0778,-3.32903 -3.19184,-3.74443 -0.9134,-3.32724 1.43191,0.26218 4.57964,3.06764 6.99496,6.23433 3.54937,4.65352 4.12779,6.25039 3.01628,8.32724 -2.03553,3.80344 -5.45979,3.14733 -11.77181,-2.25552 z M 314.7646,439.11113 c -1.4116,-1.41158 -1.03366,-3.1111 0.69184,-3.1111 0.8694,0 2.9694,-1.30459 4.66667,-2.89908 3.36684,-3.16299 3.96024,-1.81196 1.53858,3.50301 -1.46066,3.20579 -4.93538,4.46889 -6.89709,2.50717 z m 4.65919,-18.9954 c -6.62852,-8.00304 -13.24771,-14.93052 -14.70931,-15.39441 -2.31148,-0.73364 -2.47848,-1.35691 -1.28268,-4.78719 1.12227,-3.21932 0.85595,-4.93917 -1.44982,-9.36291 l -2.82463,-5.41917 4.08297,2.41188 c 5.31794,3.14139 7.40843,6.48603 8.62446,13.79855 1.22461,7.36412 3.54614,12.01345 9.17957,18.38386 5.63894,6.37666 12.00814,14.92035 11.12291,14.92035 -0.3804,0 -6.11496,-6.54793 -12.74347,-14.55096 z m 11.11859,2.55096 c 0.45323,-0.73333 1.72404,-1.33333 2.82404,-1.33333 1.1,0 1.62919,0.6 1.17596,1.33333 -0.45323,0.73333 -1.72404,1.33333 -2.82404,1.33333 -1.1,0 -1.62919,-0.6 -1.17596,-1.33333 z m -1.25197,-2.53503 c -0.4525,-0.73214 0.39409,-1.98238 1.88129,-2.77832 3.07568,-1.64605 3.66756,0.18716 0.82272,2.54816 -1.21337,1.00702 -2.17339,1.08872 -2.70401,0.23016 z m -8.25318,-3.43193 c -1.05964,-2.76137 8.88718,-12.09435 10.38095,-9.74031 2.30891,3.63859 1.15107,7.6249 -2.80959,9.67303 -4.9245,2.54656 -6.61421,2.56157 -7.57136,0.0673 z m 28.31627,0.86736 c -0.37377,-0.60477 1.99081,-2.39697 5.25465,-3.98267 4.69143,-2.27928 5.93423,-2.48368 5.93423,-0.97601 0,3.82035 -9.33543,7.95763 -11.18888,4.95868 z m -59.47779,-8.13849 c 0,-2.35647 4.20393,-5.42858 7.42857,-5.42858 4.6085,0 4.00608,1.80654 -1.47381,4.41972 -5.44887,2.59839 -5.95476,2.6841 -5.95476,1.00886 z m 70.20737,-12.23348 c -2.479,-7.67579 -2.8815,-15.28772 -0.874,-16.52843 0.8084,-0.49965 1.3461,1.43768 1.3659,4.92131 0.018,3.15994 0.6387,8.37454 1.3796,11.588 1.8868,8.18428 0.7692,8.19569 -1.8715,0.0191 z m -33.39805,-4.63748 c -1.30062,-3.38939 -0.93098,-13.65838 0.52402,-14.55762 0.76698,-0.47402 1.33956,0.76684 1.34801,2.92131 0.008,2.05995 0.38657,5.99536 0.84112,8.74536 0.83225,5.03512 -1.1002,7.09421 -2.71315,2.89095 z m 10.84651,-7.98252 c -2.22767,-8.49344 -2.15023,-11.24176 0.31673,-11.24176 1.19931,0 3.34771,16.03921 2.49219,18.60577 -0.27011,0.81029 -1.53412,-2.50352 -2.80892,-7.36401 z m -154.43663,62.09157 c 0.0652,-1.77777 -0.0703,-1.77777 -1.2192,0 -0.71088,1.1 -1.25952,3.2 -1.2192,4.66667 l 0.0733,2.66667 1.14591,-2.66667 c 0.63025,-1.46667 1.17889,-3.56667 1.2192,-4.66667 z m 228.11417,-3.33333 c -0.9424,-1.13544 -2.0134,-1.76444 -2.38,-1.39777 -0.3667,0.36666 0.1044,1.59566 1.0466,2.7311 0.9424,1.13544 2.0134,1.76444 2.38,1.39778 0.3667,-0.36667 -0.1044,-1.59567 -1.0466,-2.73111 z m -102.6667,-0.43425 c 0,-0.6055 -1.5,-2.51008 -3.33334,-4.23242 -3.43009,-3.22241 -4.41124,-1.83877 -1.95309,2.75432 1.35676,2.53512 5.28643,3.63387 5.28643,1.4781 z M 124.645,426.33336 c 12.89055,-16.49074 13.63611,-17.87264 4.31617,-8 -4.32673,4.58333 -8.60585,8.33333 -9.50913,8.33333 -0.90329,0 -2.14737,1.35 -2.76463,3 -2.13158,5.69794 -2.98912,9 -2.33729,9 0.35976,0 4.99246,-5.55 10.29488,-12.33333 z m 281.40008,7.33333 c -0.6918,-1.28333 -2.918,-3.83333 -4.9471,-5.66667 -3.2383,-2.92593 -3.1445,-2.64074 0.7674,2.33334 4.6924,5.96641 6.2828,7.23483 4.1797,3.33333 z m -10.1531,-6.19348 c -1.9725,-2.58608 -4.5831,-4.98165 -5.8013,-5.32351 -4.0933,-1.14864 -13.5483,-2.39005 -13.5483,-1.77886 0,0.33286 3.487,1.87662 7.7488,3.43057 4.2619,1.55396 9.1643,4.33199 10.8942,6.1734 4.483,4.77194 4.9617,3.07714 0.7066,-2.5016 z M 129.77925,403.53398 c 6.50736,-3.923 16.3804,-8.573 21.9401,-10.33333 5.55968,-1.76035 10.11928,-3.57835 10.13244,-4.04 0.0884,-3.10317 -33.90281,3.14115 -37.90942,6.96411 -1.8156,1.73237 0.42557,1.52949 8.05476,-0.72911 5.79292,-1.715 6.24167,-1.71055 3.90418,0.0387 -2.4983,1.86954 -7.41561,3.49812 -15.69227,5.19716 -3.15361,0.64736 -3.66667,1.4021 -3.66667,5.39394 0,2.5527 0.3162,4.64127 0.70266,4.64127 0.38646,0 6.02686,-3.20972 12.53422,-7.13271 z m 26.65202,-4.4279 c 0.30554,-0.24167 -0.0365,-0.43939 -0.76,-0.43939 -1.89455,0 -12.46223,9.27719 -12.46223,10.94037 0,0.76959 2.85,-1.17944 6.33333,-4.33117 3.48334,-3.15173 6.58334,-5.92815 6.8889,-6.16981 z m 125.11172,5.89394 c -0.49029,-1.47252 -28.86285,-7.65254 -34.33395,-7.47852 -2.0774,0.0661 29.9762,8.79734 33.11111,9.01931 0.97779,0.0692 1.52805,-0.62412 1.22284,-1.54079 z m -131.00062,-19.9471 c 0.85759,-0.82718 -1.9969,-0.94803 -8,-0.33871 -10.40993,1.05663 -11.33333,1.36911 -11.33333,3.8352 0,1.38763 1.76171,1.34015 9,-0.24255 4.95,-1.08233 9.6,-2.54661 10.33333,-3.25394 z m 115.38306,-0.71956 c -3.85676,-10.3468 -4.07996,-10.61738 -3.29973,-4 0.6984,5.92336 0.54725,6.34034 -2.33496,6.44162 -2.82068,0.0991 -2.74291,0.26343 0.9183,1.93986 6.71094,3.07289 7.29334,2.53185 4.71639,-4.38148 z m -76.71639,-4.33334 c -0.45323,-0.73333 -1.66668,-1.33333 -2.69657,-1.33333 -1.0299,0 -5.64448,-3.49885 -10.25464,-7.77524 -18.42342,-17.08953 -43.72367,-30.93824 -46.95866,-25.70393 -1.20281,1.94618 5.13667,5.25718 8.74507,4.5674 2.45107,-0.46855 5.81447,1.04816 12.58811,5.67653 20.45064,13.97379 28.57669,20.58365 28.57669,23.24477 0,2.21754 0.89536,2.65714 5.41203,2.65714 3.26848,0 5.08564,-0.5281 4.58797,-1.33334 z m 109.29668,-7.12241 c -11.0788,-7.53643 -24.8693,-15.7494 -25.45746,-15.16125 -0.39222,0.39221 2.6498,3.19745 6.76001,6.23384 4.1216,3.04481 7.08131,6.1547 6.59947,6.93434 -1.35966,2.19996 2.22706,3.73935 8.76465,3.76174 5.40341,0.0185 5.7164,-0.14758 3.33333,-1.76867 z m -140.67763,-9.33045 c -3.3155,-3.03328 -20.16309,-13.1142 -20.81966,-12.45763 -0.9438,0.9438 18.42609,14.24383 20.74444,14.24383 1.77714,0 1.78644,-0.22064 0.0752,-1.7862 z m -28.80885,-8.04872 c -2.52932,-5.30404 -5.19866,-6.61058 -3.74235,-1.83175 0.97744,3.20743 4.69111,8.01881 5.53668,7.17325 0.28036,-0.28037 -0.52708,-2.68405 -1.79433,-5.3415 z M 294.99502,247.27062 c 2.33396,-5.12248 1.90774,-8.75935 -1.11931,-9.55094 -2.20741,-0.57725 -2.66667,-1.81869 -2.66667,-7.2085 0,-6.05635 0.23284,-6.51116 3.33334,-6.51116 2.80078,0 3.33333,-0.62718 3.33333,-3.92566 0,-4.64961 -5.43525,-11.65944 -7.87252,-10.15313 -0.90343,0.55835 -1.32053,1.85449 -0.92689,2.88032 1.10921,2.89057 -0.34911,2.21835 -3.90823,-1.80153 -2.36201,-2.66779 -3.04687,-4.64424 -2.51395,-7.25514 1.01152,-4.95572 -1.48242,-9.0782 -5.49198,-9.0782 -5.03575,0 -4.2196,5.24704 1.98378,12.75399 4.32386,5.23247 4.9356,6.63521 3.40679,7.81185 -1.58867,1.2227 -1.55708,2.12224 0.21423,6.10083 1.14272,2.56667 2.35965,3.91667 2.70432,3 0.34468,-0.91667 1.26549,-1.66667 2.04625,-1.66667 0.95353,0 1.17095,3.83775 0.66224,11.68971 -0.75787,11.6979 0.24552,16.3103 3.5482,16.3103 0.94584,0 2.41603,-1.52823 3.26707,-3.39607 z m -31.45263,-33.44299 4.20093,-2.17237 -3.67482,-3.16096 c -2.02115,-1.73852 -5.16248,-3.16095 -6.98072,-3.16095 -2.85527,0 -3.11775,0.35155 -1.92564,2.57901 0.75913,1.41846 1.38024,3.81846 1.38024,5.33334 0,3.3223 1.46518,3.4441 7.00001,0.58193 z m 8.59064,-30.80224 c -0.33805,-1.29729 -0.63688,-0.55871 -0.66405,1.64129 -0.0272,2.2 0.24941,3.26142 0.61465,2.35871 0.36523,-0.90271 0.38745,-2.70271 0.0495,-4 z m -49.8288,178.82743 c -0.13094,-3.40768 0.25157,-5.6686 0.85013,-5.02428 2.17758,2.34403 2.69474,6.69819 1.06094,8.93238 -1.43739,1.96558 -1.70646,1.41537 -1.91107,-3.9081 z m -8.42852,-6.8654 c 0,-0.55693 1.2,-1.76202 2.66666,-2.67797 2.91952,-1.82327 3.61582,-0.45857 1.06667,2.09057 -1.80599,1.80599 -3.73333,2.10924 -3.73333,0.5874 z m -58.66667,-20.29533 c 0,-1.75198 -1.20184,-2.94291 -3.56955,-3.53716 l -3.56954,-0.8959 3.82525,-3.05016 c 2.10389,-1.67758 4.3102,-2.75045 4.90288,-2.38414 1.56244,0.96564 1.32647,12.50863 -0.25571,12.50863 -0.73333,0 -1.33333,-1.18858 -1.33333,-2.64127 z m -14.65257,-10.00843 c -2.06004,-2.4822 -0.82207,-6.01697 2.10732,-6.01697 1.82445,0 1.91396,0.3508 0.5185,2.03222 -0.92762,1.11772 -1.25202,2.46678 -0.7209,2.9979 0.53112,0.53113 1.79616,-0.23338 2.8112,-1.69888 1.01502,-1.46552 2.47262,-3.39638 3.2391,-4.2908 1.89388,-2.21002 -2.63868,-4.94579 -11.63624,-7.02343 -10.89241,-2.51519 -14.93987,-6.04568 -21.47979,-18.73627 -3.19736,-6.20441 -7.75757,-13.98074 -10.13381,-17.28074 -2.37624,-3.3 -6.581126,-9.9 -9.344206,-14.66667 -4.78675,-8.25777 -5.04799,-9.32719 -5.53705,-22.66667 -0.2823,-7.7 -0.12141,-13.1 0.35751,-12 1.12919,2.59349 3.22765,3.95412 6.1376,3.97959 3.03172,0.0265 3.199126,-6.92332 0.2381,-9.88435 -2.34635,-2.34635 -5.90476,-2.80549 -5.90476,-0.76191 0,0.73334 -0.6,1.33334 -1.33334,1.33334 -3.46503,0 -0.45726,-33.56748 3.88795,-43.39056 2.48182,-5.61058 3.46089,-6.27827 11.597846,-7.90944 4.60237,-0.92263 4.34021,-1.64568 6.99767,19.3 l 0.93041,7.33333 0.73438,-7.646 c 0.41843,-4.35652 1.69177,-8.70392 2.95973,-10.10499 1.22394,-1.35244 2.22535,-4.54121 2.22535,-7.08614 0,-4.03235 0.57042,-4.83344 4.43746,-6.23178 6.47831,-2.34258 10.22609,-6.85813 8.79585,-10.59776 -2.43212,-6.35917 -10.18881,-2.11082 -8.80243,4.82108 0.85032,4.25159 -1.40139,5.90628 -10.31212,7.57795 l -4.78543,0.89775 v -5.52356 c 0,-10.1248 -8.15599,-8.9665 -9.333326,1.3255 l -0.66667,5.82783 -11.10884,3.15011 c -6.10986,1.73256 -11.42346,2.83548 -11.808,2.45094 -0.96918,-0.96918 29.940406,-36.52132 37.659766,-43.31617 l 6.29918,-5.54476 -7.18772,-0.15333 -7.18772,-0.15334 5.33333,-1.10316 c 2.93333,-0.60674 8.82664,-1.13774 13.09623,-1.18 7.45483,-0.0738 8.02363,0.17003 14.33333,6.14405 7.2944,6.90635 7.89639,9.47331 3.85674,16.44578 l -2.70375,4.66667 3.36877,-4 c 4.41806,-5.24591 4.43904,-11.20881 0.054,-15.3284 -1.83044,-1.71961 -3.12773,-3.3269 -2.88286,-3.57176 1.21552,-1.21553 8.72493,2.7411 10.06629,5.30384 1.409,2.69195 1.47028,2.61326 0.75519,-0.96986 -0.68302,-3.42244 -0.52328,-3.68793 1.30562,-2.17007 1.14611,0.95118 2.08384,1.12943 2.08384,0.3961 0,-2.84785 -4.10266,-4.52162 -10.16884,-4.14858 -3.92417,0.24132 -6.50454,-0.19809 -6.82597,-1.16238 -0.34611,-1.03834 2.2648,-1.70746 7.90568,-2.02605 l 8.4224,-0.4757 -8.33333,-0.25691 c -6.64043,-0.20471 -8.33334,-0.68998 -8.33334,-2.38873 0,-2.79991 3.77355,-10.68705 5.99538,-12.531 1.41768,-1.17657 1.54594,-0.54863 0.67594,3.30887 -0.79729,3.53511 -0.5683,5.2665 0.88935,6.72415 2.90431,2.90431 4.84908,2.39793 7.29339,-1.89904 1.21421,-2.13455 6.41538,-6.35713 11.69072,-9.49115 13.06969,-7.764563 13.42905,-9.488743 0.58494,-2.8065 -11.79385,6.13584 -12.46305,6.32341 -12.46305,3.49316 0,-1.1 -0.97347,-2 -2.16325,-2 -3.41687,0 -0.0855,-3.18219 6.38668,-6.100753 4.13533,-1.86478 5.71306,-2.08978 6.11878,-0.87263 0.97027,2.9108 4.20111,1.74614 6.27355,-2.26151 1.98115,-3.83111 1.93604,-3.95194 -2.49789,-6.69227 C 153.43473,80.723085 153.76212,59.064187 165.92,48.834 c 5.1344,-4.320308 9.03397,-5.359841 16.81587,-4.482708 7.92065,0.892772 14.46621,7.061555 17.17637,16.187679 3.88731,13.08999 4.1988,12.794365 -13.48097,12.794365 -16.2676,0 -18.39348,1.049003 -10.80092,5.329631 3.18366,1.794926 4.1816,1.760941 9.89309,-0.336911 l 6.35227,-2.333207 3.53488,4.128691 3.53489,4.128687 7.28371,-1.630021 c 10.72568,-2.400302 11.56625,-1.250983 3.82521,5.230181 -3.76495,3.1522 -6.84536,5.0754 -6.84536,4.27378 0,-2.03052 -4.69976,-1.82748 -6.4476,0.27855 -0.79244,0.95483 -1.15079,2.90483 -0.79633,4.33334 0.43672,1.76006 -1.7559,5.587803 -6.80206,11.874663 -6.97929,8.6953 -7.75521,9.25843 -12.36692,8.97539 -6.21029,-0.38115 -8.60981,1.1807 -8.03708,5.23136 0.31878,2.25457 1.42739,3.29671 3.80204,3.57408 2.76204,0.32262 5.20467,-1.73495 13.87724,-11.68968 6.95008,-7.97758 11.24623,-11.88004 12.64795,-11.48894 1.16752,0.32575 4.82276,0.91276 8.12276,1.30445 l 6,0.71217 -5.33333,-1.45811 c -2.93334,-0.80195 -5.62158,-1.71684 -5.97386,-2.03307 -0.35229,-0.31623 3.24771,-4.177543 8,-8.580693 4.75228,-4.40315 7.89052,-7.62951 6.97386,-7.16968 -2.43503,1.22149 -2.03536,-0.0459 0.66666,-2.11411 1.28334,-0.982284 1.89266,-1.265077 1.35406,-0.62843 -0.5386,0.63665 0.008,1.87956 1.215,2.76203 1.43042,1.04595 2.57908,4.80095 3.29972,10.78689 0.62835,5.219293 2.15695,10.626093 3.54172,12.527363 1.33993,1.83972 2.85703,4.47343 3.37131,5.8527 0.84905,2.27713 0.43324,2.42751 -4.52151,1.63522 -3.45534,-0.55254 -5.1589,-0.39094 -4.64498,0.4406 0.44636,0.72222 3.04051,1.70372 5.76479,2.1811 7.97312,1.39714 10.70543,3.74476 10.28019,8.83278 -0.49775,5.95557 -0.52665,6.01175 -1.94155,3.77449 -1.8072,-2.85759 -2.99181,-0.92415 -1.95785,3.19545 1.11973,4.46139 3.32325,3.86159 5.90577,-1.60752 1.1,-2.32953 2.46143,-4.24848 3.0254,-4.26436 2.13531,-0.0601 -0.76329,7.44855 -4.15393,10.76048 -1.94597,1.9008 -5.33813,5.42206 -7.53813,7.82502 -3.65704,3.99441 -3.74278,4.29057 -1,3.45414 1.71538,-0.5231 3,-0.34622 3,0.41308 0,2.45779 -4.1637,5.51843 -7.50727,5.51843 -1.82423,0 -2.95896,0.57896 -2.52163,1.28659 0.43733,0.70761 -3.27725,-0.64239 -8.25464,-3 -8.98165,-4.25431 -9.18353,-4.28339 -26.81084,-3.86108 -27.98489,0.67045 -35.60063,4.10512 -44.46588,20.0539 l -5.45448,9.81276 0.69825,12.18724 c 0.39512,6.89638 1.66119,14.41788 2.91631,17.32538 2.62921,6.09058 1.92292,10.78272 -3.00319,19.95097 l -3.45076,6.42243 -2.37662,-3.0891 -2.37663,-3.08909 -0.0479,4 c -0.0263,2.2 -0.43417,5.44383 -0.90634,7.2085 -0.60191,2.24957 -0.39723,2.92341 0.68488,2.25464 0.84884,-0.52462 1.54336,-0.31844 1.54336,0.45817 0,0.77661 1.23541,1.41203 2.74536,1.41203 1.5678,0 2.37636,0.59705 1.88506,1.39197 -0.47316,0.76557 0.0392,2.76472 1.13852,4.44253 1.16136,1.77244 1.54879,3.77871 0.92471,4.7885 -1.57529,2.54889 -7.33387,0.67082 -8.97591,-2.92735 -1.17928,-2.58413 -1.5274,-1.70945 -2.37037,5.95569 -0.54344,4.94158 -0.58667,11.84158 -0.096,15.33334 1.77018,12.59844 2.93244,14.46168 13.06452,20.94409 10.22964,6.54484 11.54415,6.95069 14.26555,4.40456 1.46385,-1.36957 1.64017,-1.08485 0.98913,1.59728 -0.43573,1.79517 -0.14389,4.04517 0.64855,5 1.13244,1.36452 0.47845,1.76449 -3.05582,1.86896 -3.95092,0.1168 -4.10408,0.24259 -1.2621,1.03677 3.50725,0.9801 6.2317,6.82362 4.8546,10.41231 -0.73655,1.91943 -1.03832,1.87729 -2.70268,-0.37732 -1.50155,-2.03408 -2.20906,-2.20708 -3.56331,-0.87133 -1.26369,1.24642 -1.28633,1.66666 -0.0897,1.66666 2.3525,0 1.94961,3.58054 -0.50906,4.52402 -3.54234,1.35933 -6.81434,0.90982 -8.54352,-1.17371 z m 2.25009,-20.22465 c 1.20529,-3.14095 -4.58092,-7.74259 -7.10337,-5.64915 -2.25252,1.86943 -2.3354,4.14891 -0.22748,6.25683 2.30325,2.30325 6.3423,1.96844 7.33085,-0.60768 z m -17.36118,-15.22867 c 1.812,-1.812 0.0673,-10.16476 -2.70152,-12.93359 -3.22525,-3.22525 -6.20149,-1.0385 -6.20149,4.55643 0,7.25168 5.16684,12.11333 8.90301,8.37716 z m -15.54753,-28.73616 c -1.52203,-8.70512 -3.12479,-23.0275 -3.56169,-31.8275 -0.79019,-15.9156 -0.77767,-16.00702 2.37258,-17.33333 2.51301,-1.05801 3.25175,-2.50599 3.57756,-7.0122 0.51768,-7.15995 -2.73724,-9.18127 -6.77958,-4.21015 -1.44116,1.7723 -3.49277,3.0357 -4.55912,2.80758 -1.460526,-0.31246 -1.288936,0.50985 0.69555,3.33333 2.23117,3.17444 2.75716,6.8092 3.43657,23.74811 0.45206,11.27064 1.96281,25.81957 3.46132,33.33333 1.46252,7.33334 2.66112,13.58334 2.66356,13.8889 0.002,0.30554 0.33207,0.22792 0.73251,-0.17252 0.40043,-0.40044 -0.51723,-7.85044 -2.03926,-16.55555 z m -4.50317,-2.49715 c 1.09118,-2.84356 -0.38253,-7.79566 -3.42084,-11.49508 l -2.602346,-3.1686 -2.92288,2.8787 c -3.23257,3.18369 -2.88269,7.95437 0.85767,11.69473 2.65484,2.65484 7.085296,2.70428 8.088396,0.0903 z m 15.79321,-5.93037 c 0.96508,-3.04072 -2.31735,-10.06625 -5.22429,-11.18175 -2.52396,-0.96853 -6.0879,2.47195 -6.0879,5.87702 0,6.07782 9.63307,10.59514 11.31219,5.30473 z m 4.56663,-24.15058 c 2.7333,-2.73332 3.28944,-3.83178 1.68161,-3.32148 -1.77696,0.56399 -2.90015,-0.34805 -4.31471,-3.50358 -2.29488,-5.11931 -4.20424,-5.942 -7.09095,-3.05528 -2.78357,2.78356 -2.75819,8.42086 0.0519,11.52596 3.06827,3.3904 4.95759,3.06894 9.67216,-1.64562 z m 9.24891,-22.87149 -3.03484,-4.26204 -0.91354,3.2754 c -0.50244,1.80147 -0.97334,5.59537 -1.04644,8.43091 -0.11666,4.52672 0.19218,5.07049 2.53243,4.4585 1.46595,-0.38334 3.11595,-0.003 3.66667,0.8445 0.56636,0.87186 1.18144,-0.63631 1.41594,-3.47187 0.29467,-3.56287 -0.46344,-6.24647 -2.62022,-9.2754 z m 1.53894,-8.37791 c 0,-3.3 -0.6,-6 -1.33333,-6 -1.47257,0 -1.86037,9.69518 -0.44444,11.11111 1.57536,1.57537 1.77777,0.99343 1.77777,-5.11111 z m -6.87456,-1.40953 c 1.12178,-2.46201 1.15626,-4.15177 0.124,-6.08044 -1.86369,-3.48232 -5.31756,-2.72768 -7.80585,1.70552 -1.65166,2.94263 -1.68759,3.88397 -0.21591,5.65723 2.61733,3.15369 6.13689,2.58224 7.8977,-1.28231 z m -28.49301,-9.85759 c 2.63171,-5.08917 2.57672,-7.94173 -0.17344,-8.99706 -2.736826,-1.05023 -7.125656,3.99394 -7.125656,8.18968 0,6.01846 4.35522,6.50022 7.299096,0.80738 z m 37.83041,-9.82061 c 0.8008,-0.96492 3.63436,-8.01492 6.29678,-15.66667 2.66242,-7.65174 5.42929,-15.01365 6.1486,-16.3598 0.71932,-1.34613 1.05218,-2.70317 0.73973,-3.01564 -0.31247,-0.31245 -2.88399,4.83894 -5.71449,11.44754 -2.83051,6.6086 -5.88062,12.01564 -6.77802,12.01564 -2.82909,0 -5.8221,4.04733 -5.8221,7.87301 0,5.42312 2.3158,7.09621 5.1295,3.70592 z m 72.8705,-26.96499 c -1.46667,-1.08234 -3.71667,-3.22973 -5,-4.77197 -2.32058,-2.78874 -2.33334,-2.7892 -2.33334,-0.0849 0,3.5739 3.45754,6.9203 7.09524,6.86721 2.87712,-0.042 2.87939,-0.0612 0.2381,-2.01032 z m 18,-3.32752 c 0,-1.44086 -0.50701,-2.61976 -1.12668,-2.61976 -2.00141,0 -5.82887,5.12056 -4.92302,6.58626 1.36069,2.20164 6.0497,-0.87272 6.0497,-3.9665 z M 116.49546,145.421 c 1.70375,-3.18349 1.81557,-11.66123 0.16723,-12.67995 -4.26367,-2.6351 -10.28943,9.03878 -6.8221,13.21666 2.30896,2.78212 4.9946,2.56553 6.65487,-0.53671 z m 52.21151,-0.83005 c 4.30947,-0.0785 7.8354,0.29548 7.8354,0.83097 0,1.14944 19.9151,0.44078 21.10695,-0.75108 1.2778,-1.2778 -2.74117,-3.29453 -6.61036,-3.31708 -1.92687,-0.0107 -4.30175,-0.98236 -5.27749,-2.15807 -1.38268,-1.66602 -3.62502,-2.0198 -10.16327,-1.60348 -4.61404,0.2938 -8.38916,0.41467 -8.38916,0.26859 0,-0.14607 1.95,-1.5144 4.33333,-3.04072 2.38334,-1.52633 3.66707,-2.78525 2.85274,-2.7976 -3.6693,-0.0557 -13.33615,8.00621 -16.76022,13.97754 -1.40782,2.45517 -1.34012,2.51069 0.85379,0.70013 1.44439,-1.192 5.46892,-2.02273 10.21829,-2.1092 z m -30.74801,-4.74648 c 1.19709,-2.23682 1.08241,-3.25022 -0.55284,-4.88547 -1.6986,-1.6986 -2.42853,-1.76008 -4.13016,-0.34785 -2.12497,1.76356 -2.75405,5.59062 -1.17803,7.16664 1.72648,1.72649 4.36882,0.85488 5.86103,-1.93332 z m 66.53576,-6.22459 c 3.78157,-6.99413 8.02071,-9.11681 8.09005,-4.05096 0.0412,3.01107 0.0972,3.02533 2,0.50959 3.59883,-4.75808 2.53131,-6.50656 -3.48025,-5.70024 -5.28907,0.70941 -5.37461,0.6595 -3.12668,-1.82445 2.04688,-2.26177 2.06783,-2.55381 0.1832,-2.55381 -1.17037,0 -2.49877,0.6 -2.952,1.33334 -0.45323,0.73333 -1.98864,1.33333 -3.41203,1.33333 -2.321,0 -2.58797,0.98574 -2.58797,9.55556 0,10.47823 0.32896,10.5652 5.28568,1.39764 z m 12.28587,4.38013 c 1.4421,-1.83333 3.68545,-3.33333 4.98524,-3.33333 1.29978,0 3.46247,-1.21463 4.80596,-2.69917 2.37107,-2.61999 2.36496,-2.80331 -0.20781,-6.24926 -2.83613,-3.79868 -5.82161,-5.46943 -5.82161,-3.25792 0,0.74207 0.90699,2.2562 2.01554,3.36474 1.79849,1.79849 1.53367,2.38307 -2.45919,5.42857 -2.46109,1.87717 -5.16809,3.41304 -6.01553,3.41304 -0.84746,0 -1.54082,1.5 -1.54082,3.33333 0,1.83334 0.36366,3.33334 0.80811,3.33334 0.44445,0 1.988,-1.5 3.43011,-3.33334 z m -87.64776,-4.79836 c 5.16902,-3.0498 5.76513,-3.8683 2.81722,-3.8683 -1.89844,0 -10.27757,6.54272 -8.48389,6.62453 0.50808,0.0232 3.05808,-1.21713 5.66667,-2.75623 z m 29.26909,-11.46922 c -3.75575,-2.74627 -5.32859,-2.01148 -2.11096,0.98619 1.60495,1.49523 3.00797,4.04523 3.11785,5.66667 0.14083,2.07803 0.37132,1.78699 0.78106,-0.98619 0.40209,-2.72153 -0.14903,-4.46826 -1.78795,-5.66667 z m 32.86179,3.52415 c 1.5966,-2.24222 2.58745,-4.39222 2.20189,-4.77778 -1.07811,-1.07811 -6.25656,4.59529 -6.25656,6.85455 0,2.90516 0.79841,2.49622 4.05467,-2.07677 z m -25.75824,-6.92323 c 2.43881,-3.15187 2.85053,-6.07854 1.17706,-8.36714 -3.51421,-4.80598 -11.5659,2.4843 -8.59901,7.78584 1.47729,2.63978 5.58049,2.96115 7.42195,0.5813 z m 17.73886,-11.73261 c 2.1251,-3.97078 1.10934,-9.820563 -1.80116,-10.372873 -3.21041,-0.60921 -7.56746,3.44728 -7.56746,7.045463 0,5.91475 6.70873,8.29746 9.36862,3.32741 z m 1.29804,-45.977037 c 0,-2.402354 -4.8586,-4.498196 -8.32582,-3.591493 -1.33391,0.348824 -3.0274,1.759279 -3.76331,3.134343 -1.22596,2.290736 -0.77577,2.500116 5.37556,2.500116 5.14148,0 6.71357,-0.478392 6.71357,-2.042966 z m 48.66667,238.118157 -5.33333,-0.87976 6,-1.78081 c 3.3,-0.97944 6.75,-1.79842 7.66667,-1.81992 0.91666,-0.0215 1.66666,-0.87454 1.66666,-1.89559 0,-1.02107 0.6,-1.48565 1.33334,-1.03243 0.73333,0.45323 1.33333,0.15323 1.33333,-0.66666 0,-0.8199 0.6,-1.1199 1.33333,-0.66667 0.73334,0.45323 1.33334,-0.17556 1.33334,-1.39729 0,-2.16856 0.27153,-2.15678 6.1581,0.26728 0.8203,0.33778 1.82959,-0.67891 2.24287,-2.25934 0.69681,-2.66461 0.39744,-2.80708 -4.11835,-1.9599 -9.18388,1.7229 -16.95474,4.94946 -22.83669,9.48208 -3.23807,2.49525 -6.17882,4.2454 -6.535,3.88921 -1.06135,-1.06135 11.97195,-14.52947 16.09653,-16.63356 2.74454,-1.40008 4.425,-1.55845 5.99936,-0.56537 1.70682,1.07664 2.82735,0.63496 5.104,-2.01182 2.42246,-2.81626 3.26011,-3.10661 4.94014,-1.7123 1.33322,1.10648 2.18329,1.19826 2.49298,0.26918 0.29164,-0.87493 1.63483,-0.59388 3.54035,0.7408 2.9214,2.04623 2.95341,2.2393 0.65972,3.9784 -2.27069,1.72168 -2.23647,1.83028 0.58932,1.87023 1.98669,0.0281 3,0.85477 3,2.44751 0,2.56654 -6.75805,9.62958 -11.57901,12.10157 -3.09291,1.58591 -12.27804,1.68833 -21.08766,0.23516 z m -99.33333,-12.07517 c -2.26555,-2.26555 -3.79356,-8 -2.13171,-8 0.29424,0 1.80197,2.14741 3.35055,4.77204 2.70826,4.59017 5.36692,5.47068 6.4756,2.14462 0.29028,-0.87084 -0.42222,-1.58333 -1.58334,-1.58333 -2.34874,0 -2.76734,-3.58801 -0.77777,-6.66667 1.13043,-1.74921 1.29505,-1.73333 1.31292,0.12667 0.0107,1.16968 1.22041,3.21267 2.68708,4.53999 3.2082,2.90338 3.42365,5.42421 0.55761,6.52401 -3.83826,1.47289 -7.19014,0.84347 -9.89094,-1.85733 z m -1.33334,-14.66667 c -1.49648,-2.93333 -2.15221,-5.33333 -1.4572,-5.33333 1.72615,0 6.79054,6.5977 6.79054,8.84648 0,3.50828 -2.63766,1.77081 -5.33334,-3.51315 z m 103.33334,-5.42413 c -2.17155,-0.8592 -1.86209,-1.07251 1.66667,-1.14882 4.50633,-0.0975 5.52686,0.50688 2.66666,1.57912 -0.91666,0.34364 -2.86666,0.15 -4.33333,-0.4303 z m -94.4208,-12.54296 -3.75415,-13.30043 4.9324,-12.20467 c 4.81995,-11.92644 4.8826,-12.30448 2.74836,-16.58268 -1.20123,-2.40791 -1.92329,-4.63876 -1.60461,-4.95745 0.31869,-0.31868 1.83349,1.87872 3.36621,4.8831 l 2.78679,5.46255 -2.69378,5.28021 c -3.80045,7.44951 -3.24813,8.6468 0.63958,1.38646 3.902,-7.28704 4.43325,-6.0498 0.61554,1.43354 -1.65366,3.24144 -3.30854,4.9622 -4.22658,4.39482 -1.00012,-0.61811 -1.2128,-0.16112 -0.63082,1.35549 0.5069,1.32095 0.3374,1.95389 -0.401,1.49753 -2.91777,-1.80328 -2.98928,6.53579 -0.1256,14.64747 1.8073,5.11942 2.77763,10.57283 2.52027,14.16442 -0.40055,5.59002 -0.5792,5.2706 -4.1726,-7.46036 z m 82.64303,10.41153 c -1.3091,-1.30908 -1.08235,-10.83417 0.27793,-11.67487 0.64175,-0.39661 0.86371,1.96798 0.49325,5.25466 -0.76417,6.77974 0.53334,7.50045 4.75732,2.64244 3.01991,-3.4732 6.16422,-4.295 7.59228,-1.98435 0.4633,0.74964 -0.98276,1.71229 -3.25464,2.16667 -2.24861,0.44973 -4.08837,1.64268 -4.08837,2.65101 0,1.87139 -4.16932,2.55291 -5.77777,0.94444 z m 54.8715,-6.55555 c -0.38858,-6.30732 0.33408,-13.13848 1.51758,-14.34522 0.60574,-0.61766 0.78662,2.98234 0.40193,8 -0.7598,9.91025 -1.5408,12.49198 -1.91951,6.34522 z m -35.7604,1.02919 c 0,-1.69187 5.26396,-6.91808 6.96807,-6.91808 0.84196,0 -0.19367,1.8 -2.3014,4 -4.08145,4.26012 -4.66667,4.62605 -4.66667,2.91808 z m -75.45619,-19.7454 c 0.33275,-0.86712 -0.55348,-1.87954 -1.96941,-2.2498 -1.41592,-0.37028 -2.5744,-1.6144 -2.5744,-2.76472 0,-1.62028 0.97629,-1.92726 4.33333,-1.3625 3.914,0.65846 4.10754,0.54424 2,-1.18032 -3.16981,-2.5938 -2.93168,-3.51988 0.66667,-2.59264 2.57849,0.66446 2.76283,0.48359 1.31195,-1.28721 -1.44383,-1.76219 -1.08642,-2.1806 2.47026,-2.89193 2.2871,-0.45743 4.79868,-0.43592 5.58131,0.0477 0.89768,0.5548 1.10431,0.0491 0.55973,-1.37012 -0.718,-1.87111 -0.43438,-2.02007 1.68576,-0.8854 3.53758,1.89325 4.66572,1.70344 2.85355,-0.48011 -1.18471,-1.42748 -1.04629,-2.03013 0.61245,-2.66666 3.42731,-1.31518 12.52691,-0.95086 15.46018,0.61898 3.99668,2.13896 4.94726,0.0536 1.3171,-2.88946 -4.2149,-3.41708 -2.73826,-3.21468 4.94246,0.67742 7.72798,3.91607 10.1698,6.60518 8.85677,9.75371 -0.81473,1.95363 -1.16791,1.69439 -2.09261,-1.53605 -1.06567,-3.72291 -3.24776,-6.04964 -5.71442,-6.09323 -1.12902,-0.02 -0.73926,2.40583 1.1031,6.86545 1.97212,4.77376 -19.60836,13.39121 -34.31151,13.70114 -5.4278,0.1144 -7.51888,-0.30259 -7.09227,-1.41432 z m 14.12286,-3.982 c 0,-2.62186 -0.51824,-3.27712 -2.10906,-2.66667 -1.15997,0.44513 -2.35997,0.80932 -2.66666,0.80932 -0.30668,0 -0.55762,1.2 -0.55762,2.66667 0,1.77777 0.8889,2.66667 2.66667,2.66667 1.98473,0 2.66667,-0.8889 2.66667,-3.47599 z m 20.1518,-3.4362 c 2.84984,-1.60171 5.18153,-3.33358 5.18153,-3.84862 0,-1.12046 -11.95205,-3.06492 -12.91575,-2.10122 -0.82262,0.82262 0.84671,8.86202 1.84015,8.86202 0.39189,0 3.04421,-1.31048 5.89407,-2.91218 z m -5.48514,-10.42115 c -4.78774,-1.53331 -6.94764,-1.53331 -6,0 0.45323,0.73333 2.73864,1.27352 5.0787,1.20043 4.06316,-0.12694 4.10462,-0.18095 0.9213,-1.20043 z m -45.40353,2.80427 c 3.05401,-5.98636 3.36595,-7.35044 1.40353,-6.1376 -2.31766,1.4324 -1.44382,-1.57774 1.40862,-4.8523 2.5671,-2.94697 2.65242,-2.96256 1.33812,-0.24429 -0.77211,1.59687 -1.04014,3.8512 -0.5956,5.00963 0.67145,1.7498 1.5762,1.43193 5.34654,-1.87848 6.85654,-6.02012 11.16551,-7.79388 22.28802,-9.17475 8.93389,-1.10915 18.47326,-0.37863 20.41528,1.56339 1.00301,1.003 -5.6226,2.0394 -18.86764,2.9513 -16.22934,1.11738 -19.78559,2.4348 -25.54472,9.46306 -2.68978,3.2825 -6.02416,6.57492 -7.40975,7.31646 -2.39399,1.28123 -2.38316,1.0815 0.2176,-4.01642 z m 80.71588,-24.15571 c 1.97114,-6.3724 4.47531,-10.0494 13.00902,-19.1018 10.79337,-11.44941 13.3155,-11.56893 18.57078,-0.88009 4.38847,8.9258 4.5136,9.8227 1.11688,8.00482 -1.67061,-0.89408 -2.97362,-3.39842 -3.50846,-6.74312 -0.46796,-2.92644 -1.31788,-5.60945 -1.88871,-5.96225 -2.03693,-1.25889 -5.48004,1.12445 -9.80243,6.78531 -2.4137,3.16113 -7.5687,9.2271 -11.45556,13.47994 -5.18381,5.67191 -6.79373,6.84899 -6.04152,4.41719 z m 20.20824,-34.31523 c -1.62982,-5.76974 -2.39652,-14.26588 -1.17312,-13 1.6506,1.70792 4.3192,9.65691 4.3192,12.86563 0,3.12956 -2.27258,3.22663 -3.14608,0.13437 z m -22.85392,-2.92704 -5.33333,-2.52376 6,-0.12613 c 3.3,-0.0693 7.5,-0.42425 9.33333,-0.78861 2.48103,-0.49308 2.14011,-0.0872 -1.33333,1.58718 l -4.66667,2.24967 4,0.93993 c 3.63674,0.85458 3.69728,0.95108 0.66667,1.06272 -1.83333,0.0676 -5.73333,-1.0129 -8.66667,-2.40098 z m 14.66667,-68.668773 c -0.73333,-0.27735 -2.97233,-0.86542 -4.97555,-1.30683 -13.56185,-2.98835 -24.69737,-29.842415 -20.94819,-50.517961 4.83167,-26.645025 25.62545,-41.86773806 43.92374,-32.155701 1.83333,0.973063 5.13333,3.265544 7.33333,5.094403 l 4,3.325197 -5.4594,5.518133 -5.45938,5.518132 -4.54062,-2.768136 c -6.37537,-3.886686 -10.0963,-3.489066 -15.2108,1.625436 -7.69132,7.691319 -10.51957,22.337518 -6.73913,34.89893 3.66129,12.165562 13.59489,17.687858 21.65809,12.040179 2.70066,-1.891612 3.01738,-1.691606 6.36382,4.018674 1.93694,3.305148 3.1508,6.609534 2.69744,7.343074 -2.31564,3.74679 -18.38847,8.97569 -22.64335,7.36647 z m 32.66667,-1.82292 C 269.5806,88.425067 265.31895,79.243984 265.35663,68.1499 c 0.0528,-15.53303 7.22605,-23.664562 20.51908,-23.260105 4.03333,0.12272 10.78333,0.235583 15,0.250807 l 7.66667,0.02768 v 23.791494 23.791501 l -9,0.0236 c -4.95,0.0129 -11.1,0.47631 -13.66667,1.02962 -3.50969,0.7566 -5.82364,0.3707 -9.33333,-1.55656 z m 15.19769,-14.764731 c 3.01017,-3.326208 2.53475,-17.205246 -0.65799,-19.208207 -3.23133,-2.027179 -8.5607,-0.08599 -10.31112,3.755761 -5.13496,11.269997 3.60799,23.586387 10.96911,15.452446 z M 100.61556,90.402907 C 99.405014,87.468627 84.542374,12.679227 84.542374,9.5219479 c 0,-0.968999 2.86804,-1.521947 7.89406,-1.521947 7.54587,0 7.926246,0.161729 8.623946,3.6666661 0.40144,2.016667 2.3464,12.366667 4.32212,23.000001 1.97573,10.633334 3.80909,18.69091 4.07414,17.905725 0.26506,-0.785186 2.14692,-10.985186 4.18193,-22.666668 l 3.70002,-21.2390581 6.26394,-0.406199 c 5.4679,-0.354579 6.43123,-0.01569 7.58031,2.6666661 1.17547,2.743968 8.0262,38.176469 8.0262,41.512112 0,0.736193 0.45,0.890824 1,0.343623 0.55,-0.547201 3.10157,-10.697201 5.67016,-22.555556 l 4.67016,-21.5606461 h 7.32984 c 5.73112,0 7.27851,0.436221 7.09449,2.0000001 -0.78996,6.712944 -17.01025,79.6082 -17.99232,80.85886 -1.05672,1.34572 -13.90002,1.45789 -15.22496,0.13296 -0.2587,-0.25871 -1.72016,-8.53771 -3.24768,-18.397767 -1.52751,-9.860062 -3.10736,-18.827385 -3.51077,-19.927385 -0.40342,-1.1 -2.62096,7.3 -4.92787,18.666668 l -4.19439,20.666674 -6.99688,0.4029 c -6.23753,0.35918 -7.13432,0.0698 -8.26326,-2.66667 z m 216.81571,2.04154 c -0.48889,-0.48889 -0.88889,-11.327948 -0.88889,-24.086799 v -23.19791 l 8.33333,0.10836 c 4.58334,0.0596 11.47232,-0.258511 15.30887,-0.706902 6.42623,-0.751058 7.27651,-0.514276 10.79767,3.00689 3.23565,3.23565 3.96877,5.3101 4.77765,13.51902 0.52558,5.333282 0.53908,14.470481 0.0301,20.304889 l -0.92532,10.608012 h -6.4945 -6.4945 l -0.0204,-15.000004 c -0.0107,-8.250001 -0.46123,-15.643766 -1,-16.43059 -2.01959,-2.949419 -5.69537,-3.186963 -8.34316,-0.53917 -2.32068,2.320673 -2.63643,4.472831 -2.63643,17.96976 v 15.333334 h -5.77777 c -3.17779,0 -6.17779,-0.4 -6.66667,-0.88889 z m 60.75901,-41.444445 0.3521,-42.3333351 11.1815,-0.390188 c 16.2936,-0.568582 24.599,1.504044 30.7749,7.6798921 13.7485,13.748491 15.1481,47.995441 2.6657,65.226857 -6.4891,8.958049 -14.7348,12.120999 -31.6408,12.137089 l -13.6854,0.013 z m 26.2818,24.369706 c 2.2276,-1.151959 5.0679,-4.588584 6.8714,-8.314048 8.7021,-17.976164 1.186,-43.055659 -12.9034,-43.055659 h -4.5644 v 26.666667 26.666668 h 3.3996 c 1.8697,0 5.1083,-0.883632 7.1968,-1.963628 z m 42.0703,15.748119 c -9.8453,-5.1903 -14,-12.053932 -14,-23.128117 0,-22.480308 26.1815,-33.390423 41.5068,-17.296382 6.1497,6.458087 8.702,15.770349 6.5316,23.830595 -1.7946,6.664845 -8.4296,14.551844 -14.3081,17.008024 -5.7159,2.38827 -14.7752,2.19813 -19.7303,-0.41412 z m 14.5138,-13.957451 c 1.8183,-0.82846 4.0371,-3.271481 4.9308,-5.428935 2.1431,-5.174007 -1.1135,-12.596224 -6.073,-13.840976 -5.633,-1.413804 -9.9367,0.472809 -12.2779,5.382275 -1.7954,3.765118 -1.8861,5.204706 -0.5335,8.470256 2.4849,5.999059 7.9879,8.135549 13.9536,5.41738 z m 42.1529,-27.230054 V 7.8606419 l 7,0.403013 7,0.403012 0.3523,41.6666681 0.3523,41.666672 h -7.3523 -7.3523 z m 25.0387,24.403014 c -0.3617,-17.176547 -0.4553,-17.678487 -3.3721,-18.092735 -2.5873,-0.367463 -3,-1.225847 -3,-6.240599 0,-5.014752 0.4127,-5.873136 3,-6.240599 2.6136,-0.371183 3.052,-1.327804 3.4031,-7.426068 l 0.403,-7.000001 h 6.5273 6.5273 l 0.403,7.000001 c 0.3759,6.528919 0.6498,7.028392 4.0697,7.421896 3.3852,0.389512 3.6666,0.87566 3.6666,6.333333 0,5.679375 -0.157,5.911438 -4,5.911438 h -4 v 18.000001 18.000004 h -6.6279 -6.628 z m 35.8346,15.228351 c -3.0361,-3.35481 -2.8004,-10.301234 0.46,-13.561684 5.7709,-5.770911 16,-1.50879 16,6.666667 0,2.222217 -1.1852,5.185187 -2.6667,6.666667 -3.4047,3.40474 -10.8078,3.5273 -13.7933,0.22835 z m 3.1171,-24.561685 c 0,-1.65 -0.8913,-14.629784 -1.9691,-28.843965 -1.0777,-14.21418 -1.638,-26.3641811 -1.2451,-27.0000001 0.737,-1.192457 16.9463,-1.655738 18.0851,-0.516894 0.3516,0.351528 -1.0235,12.8015281 -3.0556,27.6666681 -2.0321,14.865137 -3.7197,28.077525 -3.7502,29.360858 -0.04,1.691369 -1.156,2.333333 -4.0555,2.333333 -3.2565,0 -4.0018,-0.557673 -4.0096,-3 z"
     id="path6629"
     inkscape:connector-curvature="0" />
</svg>
