<?xml version="1.0" encoding="UTF-8" standalone="no"?>
<!-- Created with Inkscape (http://www.inkscape.org/) -->

<svg
   xmlns:dc="http://purl.org/dc/elements/1.1/"
   xmlns:cc="http://creativecommons.org/ns#"
   xmlns:rdf="http://www.w3.org/1999/02/22-rdf-syntax-ns#"
   xmlns:svg="http://www.w3.org/2000/svg"
   xmlns="http://www.w3.org/2000/svg"
   xmlns:sodipodi="http://sodipodi.sourceforge.net/DTD/sodipodi-0.dtd"
   xmlns:inkscape="http://www.inkscape.org/namespaces/inkscape"
   version="1.1"
   id="svg3240"
   width="1306.6667"
   height="1282.6667"
   viewBox="0 0 1306.6667 1282.6667"
   sodipodi:docname="pumpkinpi.svg"
   inkscape:version="0.92.5 (2060ec1f9f, 2020-04-08)">
  <metadata
     id="metadata3246">
    <rdf:RDF>
      <cc:Work
         rdf:about="">
        <dc:format>image/svg+xml</dc:format>
        <dc:type
           rdf:resource="http://purl.org/dc/dcmitype/StillImage" />
      </cc:Work>
    </rdf:RDF>
  </metadata>
  <defs
     id="defs3244" />
  <sodipodi:namedview
     pagecolor="#ffffff"
     bordercolor="#666666"
     borderopacity="1"
     objecttolerance="10"
     gridtolerance="10"
     guidetolerance="10"
     inkscape:pageopacity="0"
     inkscape:pageshadow="2"
     inkscape:window-width="1920"
     inkscape:window-height="1016"
     id="namedview3242"
     showgrid="false"
     inkscape:zoom="0.18399167"
     inkscape:cx="435.93223"
     inkscape:cy="811.15115"
     inkscape:window-x="0"
     inkscape:window-y="27"
     inkscape:window-maximized="1"
     inkscape:current-layer="svg3240" />
  <g
     id="g3882">
    <path
       inkscape:connector-curvature="0"
       id="path3805"
       d="m 635.89836,1275.821 c -110.4985,-8.4634 -196.1387,-137.2168 -231.8638,-348.58934 -15.4907,-91.65287 -19.6432,-212.37291 -10.0672,-292.66667 8.7995,-73.78213 27.8485,-134.49042 57.4483,-183.0843 26.9491,-44.24231 66.0253,-78.08188 109.5844,-94.89894 28.2076,-10.89021 53.8428,-15.3501 88.2316,-15.3501 65.8501,0 117.0797,20.05053 160.1146,62.66666 56.7118,56.15985 89.5801,145.25907 98.6181,267.33334 1.8692,25.24672 1.8363,104.22155 -0.057,136.66667 -9.9474,170.47416 -46.9925,304.76308 -106.1957,384.95998 -43.8168,59.3545 -100.9334,87.9321 -165.8134,82.9627 z m -157.3346,-35.1906 c -54.0732,-15.7827 -103.0643,-40.5817 -142.6655,-72.2165 -15.7593,-12.5891 -42.7533,-39.8274 -56.0085,-56.5155 -42.9496,-54.0727 -73.1293,-122.03944 -89.8166,-202.27271 -18.3385,-88.17234 -21.4968,-193.51701 -8.0926,-269.93326 24.4395,-139.32863 100.2666,-229.4751 227.9177,-270.95842 22.9821,-7.46858 57.7205,-15.54967 75.3334,-17.5246 l 7.3333,-0.8223 -3.3333,2.86387 c -1.8333,1.57512 -7.9312,6.76973 -13.5508,11.54357 -5.6196,4.77386 -14.2125,13.12582 -19.0953,18.55992 -60.2021,66.99937 -92.9053,162.09954 -100.8296,293.21052 -1.9153,31.68979 -0.7736,114.58707 2.0475,148.66667 9.5228,115.0392 29.8463,210.30004 61.7278,289.33334 20.7823,51.5185 40.4359,84.8033 74.8713,126.7996 4.0111,4.8918 3.328,4.8602 -15.8388,-0.7342 z m 329.3346,2.1925 c 0,-0.6195 1.5653,-2.5809 3.4785,-4.3588 5.2497,-4.8783 24.3444,-30.844 33.7534,-45.8991 44.3301,-70.9317 76.9915,-182.2949 90.7236,-309.33334 9.2136,-85.23763 10.521,-184.45778 3.2766,-248.66667 -11.0977,-98.36178 -36.8027,-172.32159 -79.9851,-230.13729 -9.8692,-13.21351 -32.8147,-36.9872 -45.8024,-47.45556 l -9.8887,-7.97048 6.5553,0.91211 c 27.7904,3.86672 71.2117,14.49225 94.5554,23.1384 51.0873,18.92196 88.6525,42.6964 122.76574,77.69656 50.634,51.95051 81.2053,122.06475 92.5769,212.32198 5.6501,44.84593 5.6732,115.91031 0.055,170.31626 -18.7954,182.02113 -93.018,309.19123 -218.84404,374.95863 -21.8399,11.4154 -38.6518,18.4226 -64.5538,26.9056 -24.5517,8.0409 -28.6667,9.1278 -28.6667,7.5717 z m -477.3334,-24.1079 c -15.0333,-5.011 -33.9616,-11.8332 -42.0629,-15.1605 C 165.80016,1153.1595 80.342964,1071.1338 34.596764,959.84488 3.5024636,884.20042 -9.9373364,792.93276 -4.0750364,697.23165 9.6172636,473.7097 120.85156,355.77933 339.89826,332.55193 c 10.6334,-1.12754 33.4334,-2.35703 50.6667,-2.7322 l 31.3333,-0.68212 -16,4.82517 c -183.1447,55.23155 -272.5344,199.03896 -266.8306,429.26888 2.3992,96.84151 16.27,175.96649 43.1246,246.00004 34.4485,89.8378 88.2395,158.7178 161.5884,206.916 9.8352,6.4629 17.0352,11.7344 16,11.7145 -1.0353,-0.02 -14.1824,-4.1362 -29.2157,-9.1472 z m 621.4511,-2.5673 c 84.88584,-55.7792 144.48684,-140.592 176.32794,-250.91604 19.6649,-68.13551 27.9601,-132.449 28.1179,-218 0.11,-59.60287 -2.0222,-85.25913 -10.7417,-129.2557 -28.0076,-141.3185 -110.593,-236.73679 -241.82184,-279.39833 -10.6334,-3.45682 -21.4334,-6.96322 -24,-7.79201 -6.8055,-2.19752 52.7265,-0.85855 76.4541,1.71957 169.41354,18.40767 272.48964,91.9843 318.73014,227.51239 30.7849,90.22883 34.589,222.05952 9.4485,327.43749 -35.7671,149.91953 -132.826,259.17873 -282.6327,318.15963 -17.96034,7.0712 -63.20534,22.2837 -66.27624,22.2837 -0.8186,0 6.5586,-5.2878 16.3939,-11.7507 z M 635.88966,294.73168 c -15.759,-5.16697 -22.1742,-14.5223 -24.2257,-35.3288 -4.1414,-42.00186 5.8068,-111.61424 22.3486,-156.38371 15.0795,-40.811739 47.8238,-92.330359 65.1294,-102.47213923 15.627,-9.15799997 39.7317,-6.34768997 68.9781,8.04196003 23.8821,11.7503802 31.5643,18.9246702 29.8797,27.9044102 -1.0688,5.69718 -5.7264,9.72398 -20.1014,17.37902 -49.5016,26.36074 -80.6713,64.593539 -94.7504,116.220709 -6.4889,23.79465 -7.554,32.77943 -8.1169,68.47185 -0.295,18.7 -0.8501,35.96282 -1.2336,38.36184 -0.9237,5.77746 -7.3024,12.8431 -14.0218,15.53166 -6.4719,2.58954 -19.2207,3.80283 -23.886,2.2732 z"
       style="fill:#000000;stroke-width:1.33333337" />
    <path
       d="m 853.552,619.28951 c -89.25687,0.5 -178.5209,-0.0941 -267.77778,0.225 -24.25335,0.18519 -29.32296,0.82718 -33.12248,1.41208 -22.91311,3.52718 -32.3822,7.74247 -46.60373,20.81485 -16.42163,15.09441 -27.64264,31.32909 -37.58711,54.34354 -3.20529,7.41793 -8.61068,22.3232 -11.09715,30.57389 l -1.07392,3.57188 12.43954,-0.0211 4.54182,-6.99476 c 10.77783,-16.64902 23.66699,-30.70724 33.98519,-37.07947 12.87556,-7.95201 30.06755,-11.67629 54.09825,-11.69398 h 8.12168 c -1.86067,20.27737 -3.28777,40.5908 -4.83263,60.89198 -4.79884,63.43855 -4.87058,64.24273 -7.56181,80.62233 -7.84247,47.72638 -14.74489,65.81368 -35.66266,93.46748 -18.85012,24.91674 -22.08547,30.74124 -23.64838,42.58624 -2.1706,16.4511 6.93278,30.1909 23.64838,35.7188 7.79521,2.4353 16.86194,2.4829 24.36433,-0.8292 v 0.021 c 8.63,-4.0374 18.68688,-15.2012 24.94639,-27.6823 11.44438,-22.8199 24.19679,-85.95637 32.93347,-163.00683 0.74036,-6.52959 9.32948,-118.62709 9.32948,-121.64108 l 100.4113,-0.14029 c -6.59307,43.6701 -10.59742,87.69806 -14.54228,131.64914 -1.22756,15.28422 -1.67753,65.80687 -0.71594,79.71065 2.68608,38.83141 9.29941,63.02221 21.41105,78.24111 10.51007,13.2064 23.06345,21.3108 37.81049,24.4289 6.61476,1.3984 20.37866,1.0358 27.09423,-0.7229 11.31622,-2.9636 23.47727,-10.1088 33.6938,-19.7943 13.27148,-12.5812 21.82559,-28.409 28.25764,-52.32356 2.48003,-9.22089 6.42117,-29.13222 6.42117,-32.38093 l -12.46174,0.23384 c -2.13631,9.86042 -2.97633,12.93155 -4.63131,16.79666 -4.72817,11.04084 -13.8922,19.25479 -25.86351,23.23829 -14.84226,4.2111 -30.62241,2.0825 -43.80725,-5.31523 -12.81399,-7.95406 -20.6586,-21.31015 -23.91686,-40.73639 -3.4142,-67.78944 4.84673,-135.7857 14.74417,-202.85532 l 96.65258,-0.17009 v -55.15112 z"
       style="fill:#ffffff;stroke-width:0.69792438"
       sodipodi:nodetypes="ccsssccccscccssscccsscccssssssccscccccc"
       id="rect4886"
       inkscape:connector-curvature="0" />
  </g>
</svg>
