<?xml version="1.0" encoding="UTF-8" standalone="no"?>
<!-- Created with Inkscape (http://www.inkscape.org/) -->

<svg
   xmlns:dc="http://purl.org/dc/elements/1.1/"
   xmlns:cc="http://creativecommons.org/ns#"
   xmlns:rdf="http://www.w3.org/1999/02/22-rdf-syntax-ns#"
   xmlns:svg="http://www.w3.org/2000/svg"
   xmlns="http://www.w3.org/2000/svg"
   xmlns:sodipodi="http://sodipodi.sourceforge.net/DTD/sodipodi-0.dtd"
   xmlns:inkscape="http://www.inkscape.org/namespaces/inkscape"
   version="1.1"
   id="svg6723"
   width="624"
   height="793.33331"
   viewBox="0 0 624 793.33331"
   sodipodi:docname="rosie.jpeg.svg"
   inkscape:version="0.92.5 (2060ec1f9f, 2020-04-08)">
  <metadata
     id="metadata6729">
    <rdf:RDF>
      <cc:Work
         rdf:about="">
        <dc:format>image/svg+xml</dc:format>
        <dc:type
           rdf:resource="http://purl.org/dc/dcmitype/StillImage" />
        <dc:title></dc:title>
      </cc:Work>
    </rdf:RDF>
  </metadata>
  <defs
     id="defs6727" />
  <sodipodi:namedview
     pagecolor="#ffffff"
     bordercolor="#666666"
     borderopacity="1"
     objecttolerance="10"
     gridtolerance="10"
     guidetolerance="10"
     inkscape:pageopacity="0"
     inkscape:pageshadow="2"
     inkscape:window-width="1920"
     inkscape:window-height="1016"
     id="namedview6725"
     showgrid="false"
     inkscape:zoom="0.594958"
     inkscape:cx="71.353434"
     inkscape:cy="366.44982"
     inkscape:window-x="0"
     inkscape:window-y="27"
     inkscape:window-maximized="1"
     inkscape:current-layer="svg6723" />
  <path
     style="fill:#000000;stroke-width:1.33333337"
     d="m 97.971745,797.72632 c -4.03333,-0.2691 -7.81833,-0.96992 -8.41112,-1.55736 -0.59279,-0.58744 0.2581,-4.90308 1.89087,-9.59029 3.81841,-10.96159 4.4221,-34.2076 1.05235,-40.5222 -29.05471,-54.44581 -36.66804,-74.46761 -45.86923,-120.62854 -5.55054,-27.84616 -6.00401,-31.69216 -6.21437,-52.70479 -0.32653,-32.61645 1.68532,-50.9063 7.44268,-67.66182 3.44983,-10.03999 5.12105,-17.92153 6.29159,-29.67151 l 1.59392,-16 6.11166,-5.62645 6.11166,-5.62645 -0.33564,-10.84239 c -0.1846,-5.96331 -1.2346,-14.71864 -2.33333,-19.45628 -4.88224,-21.0518 -1.79499,-24.84766 22.05752,-27.12036 7.40234,-0.70529 14.050745,-1.6482 14.774235,-2.09534 0.81898,-0.50616 0.61288,-1.8986 -0.5461,-3.68952 -1.02384,-1.5821 -2.267865,-4.52654 -2.764515,-6.5432 -0.69565,-2.82479 -1.69657,-3.66667 -4.3593,-3.66667 -3.21899,0 -3.39701,-0.31613 -2.59259,-4.60404 1.04085,-5.5482 -0.72517,-6.95889 -14.19677,-11.34036 -10.63343,-3.4584 -17.73714,-10.43563 -25.41305,-24.96056 -2.64352,-5.00228 -8.71655,-13.96255 -13.49563,-19.91172 -14.58892,-18.16085 -14.7839,-18.9624 -14.7898,-60.80273 -0.004,-31.34827 0.25915,-35.88356 2.19814,-37.82223 2.04855,-2.0482 2.30918,-2.00473 3.71358,0.61943 2.68643,5.01964 9.41658,2.74479 9.41658,-3.18289 0,-1.54282 -2.06983,-4.81127 -4.59962,-7.26324 l -4.59962,-4.45812 -9.54395,2.31965 c -6.15272,1.49543 -10.0026,1.86103 -10.83471,1.02892 -1.49642,-1.49643 13.96268,-20.53048 29.91123,-36.8283 5.68334,-5.8078 10.33334,-10.98886 10.33334,-11.51346 0,-2.02456 -3.65798,-3.62668 -11.85937,-5.19416 -12.95378,-2.47578 -33.92056,-8.77702 -37.91635,-11.39517 l -3.55762,-2.33104 V 71.903149 6.7231588 h 311.999985 312 V 75.835389 144.94761 l -11.6667,5.42675 c -21.0896,9.80981 -36.497,14.09598 -63.7719,17.74065 -16.4219,2.19441 -27.5852,2.61391 -70.3731,2.64441 -114.6145,0.0817 -153.9119,5.54691 -187.7677,26.1132 -11.2072,6.80804 -12.6153,4.70345 -4.7338,-7.07531 7.4986,-11.20652 11.2398,-21.98005 9.1928,-26.47262 -0.7837,-1.71993 -3.0767,-4.20889 -5.0958,-5.53101 -3.2776,-2.14632 -7.2755,-2.41743 -37.3163,-2.53058 -18.505,-0.0697 -34.3322,0.29774 -35.1716,0.81654 -1.1195,0.6919 -0.9626,2.60333 0.589,7.1733 1.1633,3.42655 2.1151,7.13702 2.1151,8.2455 0,1.10848 1.8018,3.0375 4.0039,4.28673 4.1393,2.34816 5.9937,6.18752 9.9755,20.65406 1.7287,6.28043 3.0755,8.38912 7.2387,11.33334 2.8131,1.98949 7.4399,7.20381 10.2817,11.58738 2.8418,4.38358 9.2169,13.46995 14.1669,20.19194 l 9,12.22178 v 11.27578 c 0,6.20168 -0.6359,13.09988 -1.4131,15.32933 -1.2002,3.44296 -2.0538,4.02525 -5.6667,3.86563 -3.5033,-0.15478 -4.331,0.35834 -4.6924,2.90932 -0.3154,2.22641 0.3407,3.30106 2.3334,3.82217 4.9608,1.29728 3.3406,11.03633 -5.103,30.67417 -2.9952,6.96613 -4.1249,11.66051 -4.1249,17.14051 0,8.66826 -4.7295,25.31482 -11.2397,39.56057 -3.2584,7.13021 -4.6059,12.24071 -5.0785,19.26089 -0.7104,10.55417 -0.3729,11.66133 3.9673,13.01567 4.5265,1.41248 27.0176,16.51238 27.0176,18.1389 0,0.78427 2.1908,2.34131 4.8684,3.4601 4.715,1.97004 4.9566,1.93008 7.6667,-1.26756 5.2151,-6.15342 9.2115,-7.78323 16.6619,-6.79491 8.673,1.15052 8.8289,2.948 0.2445,2.81849 -7.0774,-0.1068 -9.8644,1.4455 -12.805,7.132 -1.6677,3.22502 -2.8268,3.68163 -11.5201,4.53824 -10.5118,1.03582 -16.2684,3.3277 -18.4102,7.32966 -2.2278,4.16256 -1.5806,14.54493 1.5363,24.64592 2.8031,9.08434 3.5133,10.02317 19.4858,25.76126 14.0064,13.80074 17.225,16.33991 20.7575,16.37574 2.2995,0.0233 5.3455,0.92333 6.769,2 3.0545,2.31029 6.0785,2.55742 6.0785,0.49676 0,-0.80347 -1.2738,-3.2497 -2.8306,-5.43606 -4.2352,-5.94778 -1.2884,-7.39514 3.9831,-1.95634 4.2988,4.43517 4.4544,4.47797 13.9308,3.83096 5.2708,-0.35988 10.6334,-1.1982 11.9167,-1.86294 3.3787,-1.75005 2.8689,-5.49097 -1.3514,-9.91704 -6.3762,-6.68709 -11.3924,-13.89936 -10.3637,-14.9007 0.5446,-0.53004 3.7709,2.33629 7.1696,6.36962 9.0721,10.76604 16.31,17.42398 21.2234,19.52272 7.745,3.30828 15.1968,-0.96465 12.0168,-6.89048 -0.777,-1.44773 -4.233,-6.53224 -7.6801,-11.2989 -3.4471,-4.76667 -6.6584,-9.76014 -7.1362,-11.09659 -1.4461,-4.04451 1.3465,-7.26104 7.156,-8.24256 8.2323,-1.39083 9.5441,-4.41553 9.5123,-21.93237 -0.015,-8.08862 -0.3873,-15.84282 -0.8281,-17.23156 -0.4408,-1.38874 -3.1971,-4.18518 -6.1251,-6.21432 l -5.3238,-3.68935 -12.3015,2.29904 c -11.701,2.18681 -31.8564,2.33061 -33.9448,0.24219 -2.2436,-2.24359 3.2295,-3.8025 14.5269,-4.13768 6.8473,-0.20315 16.4985,-0.80531 21.4471,-1.33814 7.5089,-0.80849 9.6045,-0.57226 12.6667,1.42794 6.2349,4.07257 13.2574,11.91028 19.7576,22.05118 5.0769,7.9206 5.957,10.1501 4.7619,12.06379 -1.1596,1.85669 -0.4769,4.65867 3.265,13.40104 8.7072,20.34297 15.5694,30.23785 19.8351,28.60095 3.2478,-1.24632 2.4574,-3.30022 -3.7138,-9.64942 -3.2384,-3.3319 -7.1108,-9.27924 -8.8389,-13.57526 -1.6916,-4.20506 -4.2225,-9.67116 -5.6242,-12.14692 -1.4016,-2.47576 -2.1656,-4.87576 -1.6976,-5.33334 1.3383,-1.30844 8.0562,7.44596 13.1446,17.12922 2.5535,4.85925 5.9101,9.982 7.4592,11.38389 4.8205,4.36253 5.5708,0.81881 4.6603,-22.01173 -1.1962,-29.99339 -3.9275,-46.61782 -11.9386,-72.66667 -10.2514,-33.33336 -18.8679,-54.26964 -23.2852,-56.57764 -1.1639,-0.60813 -8.296,-1.81462 -15.8491,-2.68109 -16.0309,-1.839 -19.1093,-2.73783 -42.5072,-12.41145 -18.6842,-7.72479 -30.1985,-14.30078 -33.0387,-18.86895 -3.6346,-5.84595 -3.5871,-9.68608 0.1752,-14.15732 l 3.5626,-4.2339 -2.0102,-10.54731 c -1.8498,-9.70532 -1.8289,-10.94545 0.2613,-15.53483 2.8533,-6.26489 4.8814,-8.03328 24.9907,-21.79033 9.0022,-6.15844 18.2409,-12.54717 20.5306,-14.19717 4.1231,-2.97126 11.3925,-3.9883 13.8353,-1.93567 2.3251,1.95369 14.5116,5.40012 22.0866,6.24628 7.3859,0.82503 7.6671,1.01921 20.8982,14.42949 14.7687,14.96874 37.865,43.61898 44.6518,55.38915 2.3903,4.14557 7.8616,15.33741 12.1584,24.87074 4.2968,9.53334 18.3992,38.63334 31.3386,64.66667 36.5431,73.52252 48.1696,101.30349 56.7388,135.57495 2.7165,10.86431 3.4101,16.98784 3.4738,30.66667 0.1377,29.62792 -0.9062,27.30069 22.4228,49.98657 11.0904,10.78466 20.1643,20.18906 20.1643,20.89864 0,3.29907 -6.2428,-1.14032 -18.7379,-13.3248 -16.7543,-16.3379 -19.494,-16.9505 -18.8347,-4.21146 0.4272,8.25404 0.4254,8.25857 -4.6666,11.67336 -2.8018,1.87885 -7.7941,5.48488 -11.0941,8.01338 -3.3,2.52851 -12.6,7.37744 -20.6667,10.7754 -16.8515,7.09845 -20.6666,10.41168 -20.6666,17.94776 0,10.2472 15.6304,38.28357 30.4766,54.66619 l 6.6456,7.33333 12.2681,-0.34333 c 6.7474,-0.18883 15.3449,-1.19295 19.1055,-2.23138 3.7606,-1.03844 10.4369,-2.29577 14.8361,-2.79409 10.9257,-1.23759 15.3347,-3.67492 15.3347,-8.47705 0,-3.77394 -14.547,-26.04943 -28.93,-44.29988 -10.1606,-12.89276 -13.6844,-18.88446 -13.7114,-23.31428 -0.035,-5.70723 3.8958,-9.06207 9.2417,-7.88791 3.5985,0.79036 17.9341,9.78356 31.9303,20.03089 5.1245,3.75198 9.4694,4.32688 9.4694,1.25298 0,-1.13523 -1.9864,-5.18523 -4.4144,-9 -5.7091,-8.9702 -6.6863,-11.60261 -4.3074,-11.60261 3.2045,0 9.7554,9.36213 13.4427,19.21147 3.2409,8.65712 3.544,11.14328 3.5903,29.45519 0.071,28.25908 -1.9579,31.93724 -21.3344,38.66787 -11.1452,3.87136 -31.89,6.6607 -48.3101,6.49574 -14.5643,-0.14632 -28.9174,-5.30386 -42.9282,-15.42558 -3.2548,-2.35139 -10.8325,1.55717 -14.7001,7.58228 -1.6803,2.6177 -4.5283,5.06804 -6.3717,5.48206 -1.8333,0.41178 -8.1333,1.96836 -14,3.4591 -18.2623,4.6405 -16.9893,4.76818 -28.2401,-2.83258 l -10.1864,-6.88166 -8.9982,0.88665 c -8.8416,0.87123 -9.1746,0.78635 -19.1243,-4.87457 -9.5229,-5.41816 -14.4976,-10.462 -18.7693,-19.03022 -2.0744,-4.16081 -5.5025,-4.21745 -8.1774,-0.13509 -4.8444,7.39348 -13.8503,47.31872 -13.8206,61.27002 0.011,4.9128 1.3447,12.12107 3.4556,18.66931 3.9591,12.28137 3.7576,22.82344 -0.5465,28.58823 l -2.5473,3.41177 -119.1894,0.0796 c -65.55418,0.0437 -122.48942,-0.14064 -126.522755,-0.40975 z M 528.009,610.46356 c 6.1833,-2.8173 9.3633,-13.38643 5.9478,-19.76835 -0.7416,-1.38561 -6.2247,-5.05625 -12.1847,-8.157 -11.436,-5.94968 -27.4591,-19.63308 -35.642,-30.43756 -2.5177,-3.32429 -5.2333,-6.48297 -6.0346,-7.01929 -2.1319,-1.42672 -4.1325,1.93158 -5.9266,9.94814 -0.8708,3.89116 -4.4214,11.86407 -7.8902,17.71758 -7.0056,11.82166 -11.7193,15.13684 -25.6403,18.03281 -13.4904,2.80643 -15.9536,5.18343 -11.5756,11.17071 1.7376,2.37633 25.2859,8.57026 33.1124,8.70958 1.9452,0.0347 10.5288,-2.58997 19.0745,-5.83244 19.5454,-7.41598 24.2108,-8.24441 30.8373,-5.47569 6.8503,2.86223 9.8847,5.80244 9.8847,9.57775 0,3.53825 1.0516,3.8054 6.0373,1.53376 z M 427.9717,572.8992 c 16.0459,-4.35131 25.4133,-10.84091 29.6968,-20.57352 4.2617,-9.68307 6.3053,-35.55251 6.2884,-79.60253 -0.01,-21.26667 -0.5326,-43.46667 -1.1653,-49.33334 -1.1909,-11.04041 -5.2877,-27.08454 -9.8734,-38.66666 -1.4518,-3.66667 -3.6684,-11.71619 -4.9259,-17.88784 -4.1158,-20.2 -8.498,-35.82737 -11.9653,-42.66977 -7.266,-14.33882 -24.6172,-36.45813 -35.3313,-45.04033 -10.7207,-8.58754 -20.0538,-18.55068 -41.3998,-44.1945 -11.93,-14.3319 -12.8108,-15.09008 -16.7812,-14.44577 -2.3046,0.374 -12.2196,6.0432 -22.0333,12.59824 -9.8136,6.55504 -19.6444,12.8442 -21.8461,13.97593 -5.7932,2.97782 -8.2886,6.22396 -10.1583,13.21442 -1.4216,5.31536 -1.3529,6.64154 0.4903,9.4545 1.1791,1.79956 2.5524,5.44982 3.0518,8.11167 0.811,4.32344 0.5544,4.97416 -2.4061,6.09972 -3.9003,1.48289 -6.4049,7.54509 -4.8519,11.74345 1.2507,3.38088 11.9827,9.09643 33.9479,18.07957 12.1984,4.98882 17.5043,6.36202 30.7995,7.97107 16.2186,1.96285 26.7049,5.44883 33.4768,11.12872 1.8356,1.5396 5.0326,8.26053 8.1789,17.19425 2.8409,8.06667 7.5988,21.56667 10.5729,30 12.2837,34.83044 17.5488,67.09 17.9715,110.11228 0.2964,30.16813 -0.2171,32.21396 -7.661,30.52138 -5.0969,-1.15892 -28.2165,-2.42008 -44.0759,-2.40433 -12.5245,0.012 -30.0094,3.19984 -38,6.92716 -6.03,2.8128 -10.6666,11.67765 -10.6666,20.39373 0,7.74186 2.2683,18.78898 4.4123,21.48871 1.2268,1.54481 8.5577,2.5004 32.2543,4.20441 16.8667,1.21287 32.7667,2.75866 35.3334,3.43508 6.0399,1.59179 28.1001,0.48735 36.6666,-1.8357 z M 304.6384,282.37266 c 0,-0.92611 1.3465,-2.27611 2.9922,-3 4.5484,-2.00069 4.6021,-5.72635 0.096,-6.69435 -7.8543,-1.68741 -15.0886,-4.91513 -15.0886,-6.7321 0,-2.03387 0.8287,-2.23887 8,-1.97899 6.5609,0.23776 13.1527,-4.23796 15.6664,-10.63735 3.6109,-9.1925 7.006,-6.35924 6.9928,5.83567 -0.012,11.15489 -2.1148,16.47988 -8.268,20.93724 -5.6961,4.12625 -10.3912,5.15185 -10.3912,2.26988 z m -62.8169,256.36099 c 8.2336,-14.48116 8.9498,-18.60068 2.0757,-11.93873 -5.4686,5.29981 -12.5921,15.92292 -12.5921,18.77829 0,1.57173 2.3969,5.14993 3.4498,5.14993 0.1374,0 3.3174,-5.39528 7.0666,-11.98949 z M 109.85078,501.05648 c 14.71409,-19.78589 17.59783,-23.00519 25.9773,-29 3.58765,-2.56667 9.20316,-6.61667 12.47892,-9 4.11972,-2.99737 7.45252,-4.33571 10.81033,-4.34101 2.66993,-0.004 11.75437,-1.27175 20.18777,-2.81672 23.8745,-4.37378 26.1053,-4.40858 37.2335,-0.58091 10.663,3.66767 14.7665,4.22295 14.7665,1.99821 0,-2.63118 -14.6704,-8.13588 -27.023,-10.13969 -23.1857,-3.76115 -40.69722,-1.00487 -63.85793,10.05111 -9.62255,4.59341 -12.3489,6.6277 -16.3544,12.20308 -5.67135,7.8941 -10.836,11.32466 -20.01161,13.29248 -7.766925,1.6657 -12.753075,4.54493 -12.753075,7.36418 0,2.63871 1.71976,2.48196 7.65175,-0.6974 6.167295,-3.30546 7.894505,-3.33917 9.581505,-0.18698 1.02707,1.9191 0.56173,3.50158 -2.05842,7 -6.19236,8.26801 -11.868355,21.18698 -9.308585,21.18698 0.2931,0 5.998845,-7.35 12.679445,-16.33333 z m 50.12096,12.33333 c 4.22186,-4.40666 7.46446,-5.05518 9.99996,-2 2.3572,2.84018 3.1149,2.66367 16.5754,-3.86114 6.6502,-3.22363 17.4913,-7.42371 24.0913,-9.3335 18.7764,-5.4332 29.0735,-9.35908 29.7324,-11.33584 0.8442,-2.53261 -14.7928,-0.79708 -24.8772,2.76111 -4.137,1.45971 -12.3219,2.96516 -18.1885,3.34545 -9.7605,0.63268 -11.4054,0.3566 -19.3614,-3.24961 -5.7497,-2.60613 -9.9809,-5.62717 -12.49176,-8.91909 -3.4945,-4.58154 -4.18261,-4.90836 -8.63857,-4.10307 -11.62803,2.10147 -25.15027,17.4634 -18.81731,21.37739 1.5644,0.96686 9.66043,-3.5926 14.86734,-8.3729 3.43668,-3.1551 6.44168,-3.12854 6.44168,0.0569 0,0.84792 -3.74298,5.01606 -8.31772,9.26252 l -8.31774,7.72085 5.65376,5.32544 c 3.10958,2.929 6.1403,5.32545 6.73494,5.32545 0.59465,0 2.80569,-1.8 4.91342,-4 z m 28.93166,-78.33333 c 7.7079,-8.23831 9.276,-15.33569 5.7044,-25.81772 -3.6456,-10.69941 -17.3236,-16.56094 -30.92218,-13.25134 -3.5093,0.85408 -7.30496,2.26902 -8.4348,3.1443 -3.79377,2.93903 -8.97918,10.88759 -9.88117,15.14652 -1.06736,5.03983 1.05004,13.72273 4.33597,17.78069 2.85239,3.52256 14.47955,6.33184 27.01668,6.52759 7.9135,0.1236 9.0787,-0.21413 12.1811,-3.53004 z m -30.42278,-9.14896 c -3.23357,-5.51767 -3.44041,-6.6 -2.0148,-10.54247 0.87379,-2.41644 1.49903,-4.89941 1.38943,-5.51772 -0.9878,-5.57208 4.79433,-8.81319 13.63135,-7.64091 6.6548,0.88278 6.8824,1.06217 10.0071,7.88734 3.2482,7.09516 2.9451,12.28063 -0.8553,14.62939 -0.8238,0.50913 -2.0459,2.36742 -2.7159,4.12952 -1.0817,2.84517 -2.0364,3.20381 -8.5282,3.20381 -7.28029,0 -7.32486,-0.0251 -10.91368,-6.14896 z M 203.1729,434.62 c 2.6688,-4.38848 2.3211,-9.23019 -0.6629,-9.23019 -2.1547,0 -7.6595,10.18583 -6.51,12.04574 1.5379,2.48841 4.7028,1.2461 7.1729,-2.81555 z m -71.86782,-7.31563 c 0,-2.94442 -4.29343,-14.25041 -7.81569,-20.58122 -1.96814,-3.53749 -7.22744,-5.40371 -12.85098,-4.56005 -10.10509,1.51598 -16.487145,3.50241 -17.197145,5.35262 -1.00961,2.63101 4.17562,7.00909 10.233155,8.64021 5.98447,1.61146 21.32867,9.7935 23.68044,12.6272 2.4204,2.9164 3.95022,2.34371 3.95022,-1.47876 z M 213.995,410.01883 c 3.6499,-5.9056 2.4107,-7.72552 -7.3568,-10.80445 -6.979,-2.19994 -11.3331,-1.88098 -11.3331,0.83021 0,1.51925 13.3125,14.67856 14.8494,14.67856 0.5132,0 2.2414,-2.11695 3.8405,-4.70432 z M 130.97953,386.1598 c 2.00165,-2.00164 -12.33558,-10.3895 -20.67445,-12.0954 -4.98207,-1.01917 -5.43402,0.23316 -1.76669,4.89542 1.74311,2.21601 2.17747,3.87801 1.35375,5.17981 -1.84763,2.91999 -1.52388,3.69227 1.74627,4.16571 3.82539,0.55382 18.2409,-1.04531 19.34112,-2.14554 z m 78.55267,-10.19008 c 12.4671,-4.32776 17.0575,-7.93614 15.9104,-12.50668 -0.9433,-3.75822 0.4544,-5.62098 5.9363,-7.91144 10.1013,-4.22061 12.3998,-10.39076 14.4715,-38.84806 0.8534,-11.72255 2.2185,-26.21202 3.0335,-32.19883 1.6586,-12.18381 0.7886,-22.00481 -2.3775,-26.83686 -1.7585,-2.68379 -2.8257,-3.08423 -6.3251,-2.37326 -10.7578,2.1857 -24.2448,3.54198 -27.3982,2.75522 -1.9129,-0.47727 -4.4824,-1.77271 -5.71,-2.87875 -2.0041,-1.80581 -2.6504,-1.7016 -6.3333,1.02129 -2.2558,1.66776 -4.1014,3.4804 -4.1014,4.02808 0,2.88831 3.3067,8.88799 7.3891,13.40668 4.6762,5.17602 5.7472,7.76271 3.2139,7.76271 -3.7769,0 -17.0296,-18.82083 -18.1607,-25.79087 -0.9201,-5.67013 1.1302,-8.54062 11.5577,-16.18129 11.0086,-8.06639 20.9559,-12.69451 27.2847,-12.69451 3.2402,0 6.2845,-0.63621 6.765,-1.41381 2.579,-4.1728 -7.3568,-14.58619 -13.9172,-14.58619 -1.3099,0 -5.0121,3.15 -8.2269,7 -10.269,12.29771 -18.8753,20.97011 -20.0746,20.22887 -4.8018,-2.96768 5.7854,-19.05331 19.6736,-29.89092 5.0391,-3.93229 9.6678,-7.57768 10.2858,-8.10087 1.8321,-1.55085 -4.4146,-16.69748 -8.5009,-20.61238 l -3.7742,-3.61595 -9.7705,4.06745 c -5.3737,2.2371 -13.7602,4.76223 -18.6365,5.61142 -8.1176,1.41361 -9.5682,1.28793 -17.18405,-1.48894 -8.11701,-2.95961 -8.86348,-2.99736 -30.89655,-1.5626 -20.54042,1.33756 -23.26035,1.81151 -30.13145,5.25043 -6.741525,3.37408 -8.240315,4.94345 -13.951975,14.60901 -6.29488,10.6525 -6.40134,11.02163 -6.53766,22.66667 -0.11661,9.96161 0.42133,13.19501 3.39408,20.40103 1.94296,4.70976 3.53266,9.75705 3.53266,11.21618 0,2.79643 -4.98659,12.07192 -10.22163,19.01312 -3.79514,5.03203 -3.84411,6.52403 -0.44504,13.5593 4.3994,9.1057 2.95561,13.05893 -4.58389,12.55117 -4.00744,-0.26988 -4.74944,0.10844 -4.74944,2.42158 0,1.66251 1.25219,3.21751 3.1817,3.95111 1.74993,0.66532 4.89993,3.71247 7,6.77143 2.10006,3.05896 5.53187,7.60137 7.62624,10.09424 4.08952,4.86765 3.94471,8.52532 -0.33753,8.52532 -3.312,0 -6.80375,-3.43559 -6.80375,-6.69432 0,-2.3613 -7.50783,-10.61952 -9.66666,-10.63284 -0.55,-0.004 -1,3.32248 -1,7.39082 0,6.28631 0.52975,7.88795 3.52803,10.66667 1.94041,1.79832 3.98365,3.26967 4.54051,3.26967 0.55687,0 3.52602,2.1 6.59812,4.66666 5.08554,4.24886 6.338,4.66667 13.98884,4.66667 h 8.403195 l 8.46918,9.66667 c 4.65805,5.31666 9.06984,10.09822 9.80398,10.62569 1.9205,1.37983 37.84456,8.73503 59.33479,12.14837 8.3451,1.32548 13.9431,0.6072 24.8938,-3.19416 z m -7.3249,-30.01169 c 0.2402,-1.16895 4.761,-3.90349 10.2062,-6.17353 9.7712,-4.07344 12.4952,-6.65772 9.8286,-9.3243 -1.0005,-1.0005 -4.09,-0.71444 -10.5104,0.97316 -11.1355,2.927 -12.9617,3.79203 -19.9844,9.46604 -10.6875,8.63506 -13.3994,4.25039 -3.751,-6.06458 9.5656,-10.22635 31.5417,-17.55328 38.6598,-12.88934 6.539,4.28447 3.6279,18.98872 -4.7375,23.93028 -5.1257,3.02788 -20.3295,3.09134 -19.7113,0.0823 z m -3.6429,-38.02129 c -0.5369,-0.86872 -2.6844,-1.11796 -5.34,-0.61976 -3.6224,0.67957 -4.7135,0.32598 -5.9136,-1.91651 -2.1331,-3.98577 4.434,-10.28971 11.9756,-11.49565 3.4751,-0.5557 6.838,-2.21268 8.8721,-4.37161 3.2379,-3.43648 3.2989,-3.44586 5.2706,-0.81006 3.4564,4.6204 -1.4777,14.85959 -9.0578,18.79663 -4.3313,2.24962 -4.6597,2.27321 -5.8069,0.41696 z m -86.98265,-29.58575 c -3.92438,-4.17732 -3.71261,-6.65889 1.0291,-12.05941 7.82763,-8.91517 30.67148,-14.03921 47.27181,-10.6034 10.79874,2.23503 19.42244,6.24739 19.42244,9.03667 0,2.73429 -6.2078,4.03898 -8.8367,1.8572 -1.8318,-1.52024 -2.5901,-1.24362 -5.33332,1.94554 -3.56378,4.14314 -7.8287,4.24744 -7.8324,0.19155 -0.003,-3.09361 -3.62368,-4.19212 -5.66891,-1.71984 -0.78433,0.94812 -1.62916,3.52385 -1.87737,5.72385 -0.39686,3.5173 -1.17539,4.17722 -6.45132,5.46848 -3.3,0.80767 -11.1255,1.87887 -17.39,2.38044 -10.81849,0.8662 -11.53768,0.75476 -14.33333,-2.22108 z M 97.971745,262.15905 c 0,-2.5031 7.658655,-10.10256 10.181255,-10.10256 2.19488,0 1.75412,1.08568 -3.11249,7.66666 -3.30871,4.47428 -7.068765,5.77 -7.068765,2.4359 z m 14.666665,-12.63619 c 0,-0.77669 2.55,-2.72892 5.66667,-4.33828 4.55172,-2.35037 8.63672,-3.04528 20.7619,-3.53185 10.18882,-0.40887 15.58434,-0.11667 16.6,0.899 2.86992,2.86992 -0.99552,4.01808 -18.3619,5.45404 -9.53334,0.78826 -18.98334,1.76982 -21,2.18124 -2.16287,0.44124 -3.66667,0.16885 -3.66667,-0.66415 z M 83.878385,350.87423 c 1.212,-1.96107 -3.11643,-4.80795 -4.7803,-3.14408 -0.78502,0.78503 -1.02418,2.07959 -0.53147,2.87683 1.07999,1.74745 4.29692,1.9093 5.31177,0.26725 z M 65.907205,332.1771 c 2.15906,-4.03426 -1.83393,-12.41654 -5.65582,-11.87298 -2.26061,0.32151 -3.0457,1.45655 -3.37341,4.87708 -0.70907,7.401 6.0215,12.61588 9.02923,6.9959 z m -26.15023,-38.6694 c -0.28115,-5.82803 -3.47795,-9.25269 -6.38497,-6.84008 -2.71066,2.24964 -2.62846,6.5584 0.1844,9.66657 3.45342,3.81599 6.455,2.44773 6.20057,-2.82649 z m 19.54257,-2.1112 c 1.3342,-1.60761 1.22176,-2.65349 -0.5811,-5.405 -2.82189,-4.30676 -5.54294,-5.37395 -8.16135,-3.20085 -2.89825,2.40533 -1.84464,6.90033 2.08132,8.87947 4.25574,2.14538 4.66757,2.12847 6.66113,-0.27362 z m 3.33887,-29.87963 c 0,-7.24893 -3.57723,-10.47016 -6.80421,-6.12705 -3.21819,4.33128 0.15438,13.24412 4.6816,12.37225 1.55573,-0.2996 2.12261,-1.96749 2.12261,-6.2452 z m -13.25462,-20.63261 c 0.43789,-1.74472 0.59933,-4.89472 0.35873,-7 -0.50874,-4.45164 -4.31271,-5.67539 -8.38517,-2.69753 -2.54562,1.8614 -2.54793,2.00204 -0.12116,7.38365 2.82679,6.26869 6.86702,7.41611 8.1476,2.31388 z M 249.1463,233.69814 c -0.7958,-1.26957 -2.7356,-2.50005 -4.3107,-2.73439 -3.5445,-0.52733 -3.8796,3.09372 -0.6196,6.69592 2.0269,2.23976 2.4442,2.27978 4.3107,0.4133 1.5731,-1.57314 1.7211,-2.61763 0.6196,-4.37483 z M 83.305085,200.94538 c 0,-1.71112 -0.35866,-3.46977 -0.79702,-3.90813 -1.6602,-1.6602 -4.53631,0.76718 -4.53631,3.82856 0,2.30178 0.7429,3.19068 2.66666,3.19068 1.90476,0 2.66667,-0.8889 2.66667,-3.11111 z m -38.37688,-8.32577 c 1.71137,-3.75606 0.16045,-7.89646 -2.95787,-7.89646 -2.55652,0 -7.15027,6.81288 -6.22303,9.22923 1.33685,3.48379 7.38646,2.60557 9.1809,-1.33277 z m 11.33904,-26.23756 c 1.87487,-5.72227 0.99754,-9.30836 -2.12993,-8.70613 -2.40381,0.46288 -5.9966,9.82708 -4.8834,12.72804 1.29828,3.38325 5.34799,1.06089 7.01333,-4.02191 z m 73.379215,1.34111 c -0.30114,-0.91667 -2.75114,-1.85288 -5.44445,-2.0805 -3.72494,-0.31477 -4.89693,0.0841 -4.89693,1.66667 0,1.54543 1.40021,2.08049 5.44444,2.08049 3.75867,0 5.27492,-0.51605 4.89694,-1.66666 z M 93.971755,133.9778 c 0,-3.58646 -2.30726,-4.40935 -3.51784,-1.25464 -1.02468,2.67029 0.48747,6.38215 2.17509,5.33915 0.73851,-0.45643 1.34275,-2.29446 1.34275,-4.08451 z M 520.6384,116.08692 c 1.6832,-1.06216 2.1098,-7.87047 2.6934,-42.979581 0.3813,-22.94463 0.1927,-42.80012 -0.4191,-44.12332 -0.8638,-1.86818 -2.3595,-2.31512 -6.6933,-2 l -5.581,0.40581 -1.5673,16 c -1.6435,16.778 -2.2926,64.567251 -0.9452,69.591741 0.9986,3.72409 8.5587,5.60035 12.5125,3.10535 z m 30.3715,-17.781081 0.3715,-18.41731 4.6285,-1.93391 c 3.3406,-1.39577 4.6228,-2.76373 4.6081,-4.91602 -0.026,-3.86793 -1.1678,-5.34641 -5.6463,-7.31399 -3.1304,-1.37535 -3.6666,-2.39992 -3.6666,-7.00586 0,-4.56446 -0.5266,-5.59512 -3.4206,-6.69545 -2.21,-0.84022 -4.2749,-0.84335 -5.8342,-0.009 -3.3065,1.7696 -10.5294,13.29621 -11.5596,18.44743 -0.7181,3.59022 -0.2247,4.7601 3.3188,7.86946 l 4.1622,3.65226 v 15.59404 c 0,8.576721 0.376,16.573891 0.8356,17.771491 0.6247,1.62796 2.223,2.07608 6.3334,1.77572 l 5.4977,-0.40174 z m 41.5317,15.570841 c 1.5199,-1.93223 2.7635,-4.25132 2.7635,-5.15352 0,-0.90221 -1.2436,-3.22129 -2.7635,-5.15352 -5.2826,-6.715821 -15.9032,-3.42889 -15.9032,4.92185 0,8.80054 10.4368,12.33467 15.9032,5.38519 z m -365.264,-2.92949 c 4.3781,-3.26536 4.7296,-5.63842 1.4525,-9.80464 -2.5231,-3.207611 -3.2114,-3.364251 -12.0152,-2.734341 -11.5754,0.82821 -14.9719,-1.05011 -19.5053,-10.78689 -2.6017,-5.58783 -3.2113,-9.05097 -3.2089,-18.23149 0,-10.30957 0.3999,-12.05599 4.3982,-19.33333 3.364,-6.12282 5.7394,-8.68735 10.1231,-10.92928 l 5.7278,-2.92928 7.4353,2.78193 7.4354,2.78192 3.7589,-4.20701 c 2.0675,-2.31386 3.759,-4.7567 3.759,-5.42853 0,-3.3157 -14.7008,-10.73248 -21.7264,-10.9613 -7.2442,-0.23595 -20.9202,7.37745 -26.6351,14.82769 -7.7097,10.05071 -9.396,15.87357 -9.4793,32.73052 -0.073,14.71477 0.8935,19.62735 6.0441,30.7305 2.7327,5.890891 13.5405,13.527471 21.4774,15.175641 5.9914,1.24414 16.9302,-0.67764 20.9585,-3.68211 z m 105.0275,4.26892 c 2.9475,-0.7899 3,-1.16559 3,-21.471991 v -20.66802 l -5.0474,-5.04743 -5.0475,-5.04743 -14.6192,0.69877 c -8.0406,0.38432 -15.2193,1.25503 -15.9526,1.93491 -0.7597,0.7043 -1.5232,11.53443 -1.7746,25.17219 l -0.4413,23.936051 h 5.9653 c 3.6098,0 6.2233,-0.67239 6.6187,-1.70281 0.3594,-0.93654 0.7494,-8.25615 0.8667,-16.265791 0.214,-14.61718 0.8858,-16.93177 5.6556,-19.48444 2.5346,-1.35649 7.4586,0.37811 9.4225,3.31931 0.5388,0.80689 0.9888,8.48725 1,17.06748 0.018,13.437521 0.344,15.788831 2.3538,16.959451 2.7356,1.59335 3.9521,1.68455 8,0.59975 z m 65.5029,-2.52097 c 12.1252,-3.83034 14.9202,-6.41036 21.5634,-19.904551 4.1386,-8.40681 4.2145,-8.89718 3.6585,-23.65942 -0.5054,-13.41797 -1.0191,-16.02714 -4.6745,-23.74134 -4.3344,-9.14712 -8.9485,-14.29921 -15.9841,-17.84778 -5.4406,-2.74409 -33.9673,-3.12822 -36.0588,-0.48555 -0.7626,0.96359 -1.7008,19.75061 -2.224,44.53529 -0.7286,34.511331 -0.5682,43.003681 0.8225,43.561401 5.131,2.05773 22.7754,0.73935 32.897,-2.45805 z M 379.3565,98.191769 c -1.6115,-4.23862 -1.5845,-40.71822 0.036,-49.26571 1.4371,-7.57782 2.6974,-8.82 8.9783,-8.84915 12.4643,-0.0578 17.5271,8.33602 17.5711,29.13248 0.026,12.48721 -0.3142,14.45079 -3.5341,20.36681 -4.17,7.66153 -10.131,11.813631 -16.9603,11.813631 -3.9188,0 -5.1142,-0.62759 -6.0915,-3.198061 z m 88.9145,13.436301 c 6.4641,-3.14049 9.428,-8.20781 10.6028,-18.127521 1.0473,-8.8423 -0.093,-12.5408 -5.8209,-18.88094 -5.9002,-6.53088 -7.791,-7.59437 -16.4066,-9.22829 -5.6317,-1.06802 -7.9245,-0.82971 -14.0432,1.45957 -8.6707,3.24413 -12.8943,8.22729 -15.3679,18.13182 -2.2427,8.98013 -0.2567,16.082831 6.5049,23.263871 4.2003,4.4609 6.0383,5.36661 12.8983,6.35573 9.4373,1.36072 14.0017,0.73317 21.6326,-2.97424 z m -21.6326,-9.11915 c -8.183,-4.500101 -9.7869,-14.210521 -3.465,-20.978081 4.2174,-4.51479 4.9095,-4.66857 12.7983,-2.84359 5.9135,1.368 11.3161,6.92002 11.3268,11.63984 0.023,10.144321 -11.7463,17.083791 -20.6601,12.181831 z m -167.6248,9.8809 c 0.527,-1.28333 0.9581,-12.533321 0.9581,-24.999991 v -22.66667 l -8,-0.0831 c -4.4,-0.0457 -9.7356,-0.81339 -11.8568,-1.70598 -3.126,-1.31533 -5.1661,-1.24229 -10.7653,0.38545 -3.7997,1.10459 -7.9461,3.15495 -9.2144,4.55637 -3.2147,3.55218 -7.4968,15.33243 -7.4968,20.62404 0,6.88189 3.8659,16.557781 8.6364,21.615971 l 4.3451,4.60724 h 16.2178 c 14.1916,0 16.3374,-0.29152 17.1759,-2.33334 z m -28.1613,-11.6101 c -2.9677,-2.248711 -5.2346,-11.434921 -4.0544,-16.429171 3.312,-14.01546 21.8405,-12.00048 21.8405,2.37516 0,12.3407 -9.8137,20.095141 -17.7861,14.054011 z M 53.775795,110.87248 c 0.99222,-0.62874 3.77493,-9.67226 6.1838,-20.096711 4.13191,-17.88096 6.14028,-23.0356 8.18034,-20.99554 0.48361,0.48362 2.20228,9.27209 3.81926,19.52994 1.61698,10.25786 3.70477,19.572171 4.63952,20.698481 2.19355,2.64306 12.50577,2.72463 15.11087,0.11952 1.82892,-1.82891 3.17748,-6.81987 11.187605,-41.405011 1.86829,-8.06666 4.82437,-20.4754 6.56906,-27.57496 4.52809,-18.42589 4.52824,-18.42504 -3.33275,-18.42504 -7.968305,0 -7.767285,-0.39295 -13.982465,27.33334 -3.10437,13.84874 -5.04435,20 -6.30761,20 -1.77092,0 -4.56267,-11.56229 -9.11672,-37.75785 -1.39698,-8.03563 -2.24311,-10.00695 -4.79401,-11.16922 -3.90434,-1.77894 -9.49227,-0.44001 -11.1587,2.67374 -1.08325,2.02407 -6.34312,24.78965 -9.27502,40.14382 -0.4786,2.50644 -1.58445,4.79525 -2.45743,5.08624 -2.07347,0.69116 -5.35193,-11.45652 -8.3601,-30.97673 -2.47292,-16.04689 -5.3579,-19.6323 -14.04303,-17.45248 -4.25006,1.0667 -4.26104,3.13974 -0.12687,23.96617 1.76356,8.88413 4.50844,23.65297 6.09974,32.81964 3.20371,18.45491 6.2298,30.462571 8.31642,32.999991 1.55426,1.89005 10.11932,2.21181 12.84809,0.48266 z m 91.862615,-3.57899 c 5.09853,-2.07972 5.44833,-3.77831 1.33333,-6.47443 -2.29717,-1.505091 -4.24946,-1.675921 -8.33333,-0.72921 -8.37924,1.94246 -11.20714,1.54738 -14.82576,-2.071231 -5.65429,-5.6543 -3.87307,-6.56515 14.26669,-7.29546 16.20762,-0.65252 16.5686,-0.73404 17.00803,-3.84132 1.31861,-9.32423 -4.27636,-18.69291 -13.72713,-22.98579 -8.39219,-3.81204 -15.31271,-3.25766 -22.80851,1.82711 -9.73931,6.60666 -11.79685,10.18847 -12.2936,21.40098 -0.48857,11.02815 1.89016,16.354241 9.36809,20.975571 3.78639,2.33998 5.71799,2.5746 15.01219,1.82345 5.86667,-0.47414 12.61667,-1.65749 15,-2.62967 z M 127.56196,81.752929 c -8.69511,-1.07159 -5.97084,-8.3631 3.12464,-8.3631 5.446,0 9.77628,4.33171 7.3059,7.30832 -0.92433,1.11376 -2.65714,1.92899 -3.85068,1.81163 -1.19354,-0.11736 -4.15448,-0.45794 -6.57986,-0.75685 z m 462.92884,-7.3631 c 5.726,-40.1007 6.305,-45.37592 5.112,-46.56898 -0.6833,-0.6833 -4.7798,-1.05981 -9.1034,-0.83669 l -7.861,0.40567 0.4219,16 c 0.5147,19.52264 2.3482,42.67656 3.531,44.59036 0.4791,0.7753 1.9706,1.40964 3.3144,1.40964 2.0971,0 2.7467,-2.12532 4.5851,-15 z m -308.5245,398.683041 -8.6612,-8.31695 v -9.22652 c 0,-10.85804 1.6066,-12.27 7.1768,-6.30713 2.915,3.12053 4.0053,5.87513 4.6777,11.81858 0.4822,4.26234 1.9504,9.53454 3.2625,11.716 3.1006,5.15452 4.3774,8.63296 3.169,8.63296 -0.53,0 -4.8612,-3.74262 -9.6248,-8.31694 z m 58.2271,-2.01639 c -0.3313,-0.55 -0.8167,-4.9 -1.0787,-9.66667 -0.3711,-6.75316 -0.066,-8.66666 1.384,-8.66666 2.3499,0 5.9454,11.93658 4.8773,16.19204 -0.7491,2.98493 -3.8922,4.28353 -5.1826,2.14129 z"
     id="path7276"
     inkscape:connector-curvature="0" />
</svg>
