<?xml version="1.0" encoding="UTF-8" standalone="no"?>
<!-- Created with Inkscape (http://www.inkscape.org/) -->

<svg
   xmlns:dc="http://purl.org/dc/elements/1.1/"
   xmlns:cc="http://creativecommons.org/ns#"
   xmlns:rdf="http://www.w3.org/1999/02/22-rdf-syntax-ns#"
   xmlns:svg="http://www.w3.org/2000/svg"
   xmlns="http://www.w3.org/2000/svg"
   xmlns:sodipodi="http://sodipodi.sourceforge.net/DTD/sodipodi-0.dtd"
   xmlns:inkscape="http://www.inkscape.org/namespaces/inkscape"
   width="210mm"
   height="297mm"
   viewBox="0 0 210 297"
   version="1.1"
   id="svg8"
   sodipodi:docname="tears.svg"
   inkscape:version="0.92.5 (2060ec1f9f, 2020-04-08)">
  <defs
     id="defs2" />
  <sodipodi:namedview
     id="base"
     pagecolor="#ffffff"
     bordercolor="#666666"
     borderopacity="1.0"
     inkscape:pageopacity="0.0"
     inkscape:pageshadow="2"
     inkscape:zoom="0.7"
     inkscape:cx="579.28655"
     inkscape:cy="436.30314"
     inkscape:document-units="mm"
     inkscape:current-layer="layer1"
     showgrid="false"
     inkscape:window-width="1920"
     inkscape:window-height="1016"
     inkscape:window-x="0"
     inkscape:window-y="27"
     inkscape:window-maximized="1" />
  <metadata
     id="metadata5">
    <rdf:RDF>
      <cc:Work
         rdf:about="">
        <dc:format>image/svg+xml</dc:format>
        <dc:type
           rdf:resource="http://purl.org/dc/dcmitype/StillImage" />
      </cc:Work>
    </rdf:RDF>
  </metadata>
  <g
     inkscape:label="Layer 1"
     inkscape:groupmode="layer"
     id="layer1">
    <path
       style="fill:#000000;fill-opacity:1;stroke:#000000;stroke-width:0.35277778;stroke-linecap:square;stroke-linejoin:round;stroke-miterlimit:4;stroke-dasharray:none;stroke-dashoffset:0;stroke-opacity:1"
       d="M 99.938344,24.683221 C 80.870386,71.342098 33.191847,99.1451 14.041853,145.89221 2.1869804,173.35134 6.2016914,206.49784 23.871931,230.56799 47.09389,264.31641 92.593682,283.81632 132.40709,270.33166 179.18534,255.22002 211.30985,201.08944 197.16281,153.0522 185.77848,117.65719 155.0383,94.454193 131.6013,67.319525 119.88487,53.941803 106.83249,40.919138 100.16295,24.093378 l -0.15109,0.39675 z"
       id="path820"
       inkscape:connector-curvature="0"
       sodipodi:nodetypes="ccccccccc" />
    <flowRoot
       xml:space="preserve"
       id="flowRoot846"
       style="fill:black;fill-opacity:1;stroke:none;font-family:sans-serif;font-style:normal;font-weight:normal;font-size:26.66666667px;line-height:8.25;letter-spacing:-8.19999981px;word-spacing:0px;text-anchor:middle;text-align:center"><flowRegion
         id="flowRegion848"><rect
           id="rect850"
           width="142.85715"
           height="28.571428"
           x="434.28571"
           y="776.80542" /></flowRegion><flowPara
         id="flowPara852"></flowPara></flowRoot>    <flowRoot
       xml:space="preserve"
       id="flowRoot856"
       style="fill:black;fill-opacity:1;stroke:none;font-family:sans-serif;font-style:normal;font-weight:normal;font-size:26.66666667px;line-height:8.25;letter-spacing:-8.19999981px;word-spacing:0px;text-anchor:middle;text-align:center"><flowRegion
         id="flowRegion858"><rect
           id="rect860"
           width="100"
           height="337.14285"
           x="491.42856"
           y="119.66254" /></flowRegion><flowPara
         id="flowPara862"></flowPara></flowRoot>    <flowRoot
       xml:space="preserve"
       id="flowRoot864"
       style="fill:black;fill-opacity:1;stroke:none;font-family:sans-serif;font-style:normal;font-weight:normal;font-size:26.66666667px;line-height:8.25;letter-spacing:-8.19999981px;word-spacing:0px;text-anchor:middle;text-align:center"><flowRegion
         id="flowRegion866"><rect
           id="rect868"
           width="51.42857"
           height="122.85714"
           x="108.57143"
           y="345.37683" /></flowRegion><flowPara
         id="flowPara870"></flowPara></flowRoot>    <flowRoot
       xml:space="preserve"
       id="flowRoot902"
       style="font-style:normal;font-weight:normal;font-size:26.66666603px;line-height:8.25;font-family:sans-serif;text-align:center;letter-spacing:-8.19999981px;word-spacing:0px;text-anchor:middle;fill:#000000;fill-opacity:1;stroke:none"
       transform="scale(0.26458333)"><flowRegion
         id="flowRegion904"><rect
           id="rect906"
           width="768.57141"
           height="524.28571"
           x="122.85714"
           y="703.94824" /></flowRegion><flowPara
         id="flowPara908">My Students' Tears</flowPara></flowRoot>    <flowRoot
       xml:space="preserve"
       id="flowRoot910"
       style="fill:black;fill-opacity:1;stroke:none;font-family:sans-serif;font-style:normal;font-weight:normal;font-size:26.66666667px;line-height:8.25;letter-spacing:-8.19999981px;word-spacing:0px;text-anchor:middle;text-align:center"><flowRegion
         id="flowRegion912"><rect
           id="rect914"
           width="10"
           height="72.85714"
           x="505.71429"
           y="828.23395" /></flowRegion><flowPara
         id="flowPara916"></flowPara></flowRoot>    <flowRoot
       xml:space="preserve"
       id="flowRoot918"
       style="fill:black;fill-opacity:1;stroke:none;font-family:sans-serif;font-style:normal;font-weight:normal;font-size:26.66666667px;line-height:8.25;letter-spacing:-8.19999981px;word-spacing:0px;text-anchor:middle;text-align:center"><flowRegion
         id="flowRegion920"><rect
           id="rect922"
           width="1971.4286"
           height="734.28571"
           x="-351.42856"
           y="528.23395" /></flowRegion><flowPara
         id="flowPara924"></flowPara></flowRoot>    <flowRoot
       xml:space="preserve"
       id="flowRoot926"
       style="fill:black;fill-opacity:1;stroke:none;font-family:sans-serif;font-style:normal;font-weight:normal;font-size:26.66666667px;line-height:8.25;letter-spacing:-8.19999981px;word-spacing:0px;text-anchor:middle;text-align:center"><flowRegion
         id="flowRegion928"><rect
           id="rect930"
           width="34.285713"
           height="67.14286"
           x="850"
           y="868.23395" /></flowRegion><flowPara
         id="flowPara932"></flowPara></flowRoot>    <g
       aria-label="MY STUDENTS'
"
       transform="matrix(0.23573648,0,0,0.55052546,24.613277,128.88379)"
       style="font-style:normal;font-variant:normal;font-weight:bold;font-stretch:normal;font-size:85.33333588px;line-height:8.25;font-family:'TeX Gyre Heros';-inkscape-font-specification:'TeX Gyre Heros Bold';text-align:center;letter-spacing:0px;word-spacing:0px;text-anchor:middle;fill:#000000;fill-opacity:1;stroke:none"
       id="flowRoot834">
      <path
         d="M 85.947419,115.89679 V 53.688785 H 66.662085 L 55.739418,103.18212 44.475418,53.688785 H 25.360751 v 62.208005 h 12.8 V 67.427452 l 11.178667,48.469338 h 12.8 L 73.147419,67.427452 v 48.469338 z"
         style="font-style:normal;font-variant:normal;font-weight:bold;font-stretch:normal;font-family:'TeX Gyre Heros';-inkscape-font-specification:'TeX Gyre Heros Bold';letter-spacing:0px;fill:#ffffff"
         id="path1810" />
      <path
         d="m 146.27794,53.688785 h -14.336 L 120.0806,81.16612 107.36594,53.688785 H 93.11527 l 20.65067,39.168002 v 23.040003 h 12.8 V 92.856787 Z"
         style="font-style:normal;font-variant:normal;font-weight:bold;font-stretch:normal;font-family:'TeX Gyre Heros';-inkscape-font-specification:'TeX Gyre Heros Bold';letter-spacing:0px;fill:#ffffff"
         id="path1812" />
      <path
         d="m 225.46726,97.208787 c 0,-9.813334 -4.94934,-14.421334 -16.46934,-16.640001 l -9.728,-1.877333 c -9.13067,-1.792 -11.776,-3.584 -11.776,-8.106667 0,-4.693334 4.18133,-7.68 10.752,-7.68 8.10667,0 13.056,3.413333 13.056,9.728 h 11.94667 c 0,-13.141334 -9.216,-19.968001 -24.40534,-19.968001 -14.93333,0 -23.552,6.997334 -23.552,19.114668 0,9.728 4.864,14.250667 17.49334,16.725333 l 8.704,1.706667 c 8.53333,1.706667 11.69067,3.498667 11.69067,8.533334 0,5.205333 -4.77867,7.936003 -12.54401,7.936003 -8.704,0 -13.99466,-3.66934 -13.99466,-10.325337 h -12.45867 c 0,13.311997 9.89867,20.565337 25.77067,20.565337 16.04267,0 25.51467,-7.08267 25.51467,-19.712003 z"
         style="font-style:normal;font-variant:normal;font-weight:bold;font-stretch:normal;font-family:'TeX Gyre Heros';-inkscape-font-specification:'TeX Gyre Heros Bold';letter-spacing:0px;fill:#ffffff"
         id="path1814" />
      <path
         d="M 278.97114,64.355452 V 53.688785 h -49.83466 v 10.666667 h 18.85866 v 51.541338 h 12.8 V 64.355452 Z"
         style="font-style:normal;font-variant:normal;font-weight:bold;font-stretch:normal;font-family:'TeX Gyre Heros';-inkscape-font-specification:'TeX Gyre Heros Bold';letter-spacing:0px;fill:#ffffff"
         id="path1816" />
      <path
         d="M 335.88831,94.904787 V 53.688785 h -12.8 v 41.216002 c 0,7.509333 -3.84,11.093333 -11.86133,11.093333 -8.02133,0 -11.86133,-3.584 -11.86133,-11.093333 V 53.688785 h -12.8 v 41.216002 c 0,14.677333 10.41066,22.016003 24.66133,22.016003 14.25067,0 24.66133,-7.33867 24.66133,-22.016003 z"
         style="font-style:normal;font-variant:normal;font-weight:bold;font-stretch:normal;font-family:'TeX Gyre Heros';-inkscape-font-specification:'TeX Gyre Heros Bold';letter-spacing:0px;fill:#ffffff"
         id="path1818" />
      <path
         d="m 399.80285,84.75012 c 0,-9.557334 -2.64533,-18.005334 -7.59467,-23.893334 -4.18133,-5.034667 -10.06933,-7.168001 -19.62666,-7.168001 h -24.32001 v 62.208005 h 24.32001 c 9.472,0 15.36,-2.21867 19.62666,-7.25334 4.864,-5.80266 7.59467,-14.250663 7.59467,-23.89333 z m -12.8,0.08533 c 0,13.653334 -4.77867,20.394667 -14.42133,20.394667 H 361.06151 V 64.355452 h 11.52001 c 9.64266,0 14.42133,6.741334 14.42133,20.480001 z"
         style="font-style:normal;font-variant:normal;font-weight:bold;font-stretch:normal;font-family:'TeX Gyre Heros';-inkscape-font-specification:'TeX Gyre Heros Bold';letter-spacing:0px;fill:#ffffff"
         id="path1820" />
      <path
         d="m 456.54935,115.89679 v -10.66667 h -33.70666 v -16.128 h 29.78133 V 78.435453 H 422.84269 V 64.355452 h 32.17066 V 53.688785 h -44.97066 v 62.208005 z"
         style="font-style:normal;font-variant:normal;font-weight:bold;font-stretch:normal;font-family:'TeX Gyre Heros';-inkscape-font-specification:'TeX Gyre Heros Bold';letter-spacing:0px;fill:#ffffff"
         id="path1822" />
      <path
         d="M 516.62401,115.89679 V 53.688785 h -12.8 V 96.01412 L 479.16268,53.688785 h -13.14133 v 62.208005 h 12.8 V 72.888786 l 25.00266,43.008004 z"
         style="font-style:normal;font-variant:normal;font-weight:bold;font-stretch:normal;font-family:'TeX Gyre Heros';-inkscape-font-specification:'TeX Gyre Heros Bold';letter-spacing:0px;fill:#ffffff"
         id="path1824" />
      <path
         d="M 572.85852,64.355452 V 53.688785 h -49.83467 v 10.666667 h 18.85867 v 51.541338 h 12.8 V 64.355452 Z"
         style="font-style:normal;font-variant:normal;font-weight:bold;font-stretch:normal;font-family:'TeX Gyre Heros';-inkscape-font-specification:'TeX Gyre Heros Bold';letter-spacing:0px;fill:#ffffff"
         id="path1826" />
      <path
         d="m 628.41028,97.208787 c 0,-9.813334 -4.94933,-14.421334 -16.46933,-16.640001 l -9.728,-1.877333 c -9.13067,-1.792 -11.77601,-3.584 -11.77601,-8.106667 0,-4.693334 4.18134,-7.68 10.75201,-7.68 8.10666,0 13.056,3.413333 13.056,9.728 h 11.94666 c 0,-13.141334 -9.216,-19.968001 -24.40533,-19.968001 -14.93334,0 -23.552,6.997334 -23.552,19.114668 0,9.728 4.864,14.250667 17.49333,16.725333 l 8.704,1.706667 c 8.53334,1.706667 11.69067,3.498667 11.69067,8.533334 0,5.205333 -4.77867,7.936003 -12.544,7.936003 -8.704,0 -13.99467,-3.66934 -13.99467,-10.325337 h -12.45867 c 0,13.311997 9.89867,20.565337 25.77067,20.565337 16.04267,0 25.51467,-7.08267 25.51467,-19.712003 z"
         style="font-style:normal;font-variant:normal;font-weight:bold;font-stretch:normal;font-family:'TeX Gyre Heros';-inkscape-font-specification:'TeX Gyre Heros Bold';letter-spacing:0px;fill:#ffffff"
         id="path1828" />
      <path
         d="M 647.3543,64.782119 V 53.688785 h -11.776 v 11.093334 l 3.41334,11.008 h 4.77866 z"
         style="font-style:normal;font-variant:normal;font-weight:bold;font-stretch:normal;font-family:'TeX Gyre Heros';-inkscape-font-specification:'TeX Gyre Heros Bold';letter-spacing:0px;fill:#ffffff"
         id="path1830" />
    </g>
    <g
       aria-label="TEARS"
       transform="matrix(0.23573648,0,0,0.55052545,24.97538,173.04176)"
       style="font-style:normal;font-variant:normal;font-weight:bold;font-stretch:normal;font-size:85.33333588px;line-height:8.25;font-family:'TeX Gyre Heros';-inkscape-font-specification:'TeX Gyre Heros Bold';text-align:center;letter-spacing:0px;word-spacing:0px;text-anchor:middle;fill:#000000;fill-opacity:1;stroke:none"
       id="flowRoot834-3">
      <path
         d="M 242.10705,64.355452 V 53.688785 h -49.83467 v 10.666667 h 18.85867 v 51.541338 h 12.8 V 64.355452 Z"
         style="font-style:normal;font-variant:normal;font-weight:bold;font-stretch:normal;font-family:'TeX Gyre Heros';-inkscape-font-specification:'TeX Gyre Heros Bold';letter-spacing:0px;fill:#ffffff"
         id="path1799" />
      <path
         d="m 296.46423,115.89679 v -10.66667 h -33.70667 v -16.128 h 29.78133 V 78.435453 H 262.75756 V 64.355452 h 32.17067 V 53.688785 h -44.97067 v 62.208005 z"
         style="font-style:normal;font-variant:normal;font-weight:bold;font-stretch:normal;font-family:'TeX Gyre Heros';-inkscape-font-specification:'TeX Gyre Heros Bold';letter-spacing:0px;fill:#ffffff"
         id="path1801" />
      <path
         d="m 360.12288,115.89679 -21.504,-62.208005 h -14.16533 l -22.10134,62.208005 h 13.056 l 4.18134,-12.544 h 23.296 l 4.096,12.544 z m -20.736,-23.21067 h -16.21333 l 8.10666,-24.320001 z"
         style="font-style:normal;font-variant:normal;font-weight:bold;font-stretch:normal;font-family:'TeX Gyre Heros';-inkscape-font-specification:'TeX Gyre Heros Bold';letter-spacing:0px;fill:#ffffff"
         id="path1803" />
      <path
         d="m 419.51473,115.89679 v -2.304 c -1.96266,-1.10934 -2.73066,-2.38934 -2.73066,-5.12 -0.34134,-18.34667 -0.68267,-19.200004 -8.61867,-22.613337 6.99733,-2.730667 10.496,-7.765334 10.496,-15.36 0,-9.642667 -5.71733,-16.810668 -16.72533,-16.810668 h -33.36534 v 62.208005 h 12.8 V 91.235453 h 14.67734 c 5.54666,0 7.936,2.218667 7.936,7.424 l -0.17067,6.570667 c 0,5.80267 0.34133,7.68 1.96267,10.66667 z M 405.8614,72.291453 c 0,5.546666 -1.792,8.277333 -9.04533,8.277333 H 381.37073 V 64.355452 h 15.44534 c 6.99733,0 9.04533,2.56 9.04533,7.936001 z"
         style="font-style:normal;font-variant:normal;font-weight:bold;font-stretch:normal;font-family:'TeX Gyre Heros';-inkscape-font-specification:'TeX Gyre Heros Bold';letter-spacing:0px;fill:#ffffff"
         id="path1805" />
      <path
         d="m 477.37057,97.208787 c 0,-9.813334 -4.94933,-14.421334 -16.46933,-16.640001 l -9.728,-1.877333 c -9.13067,-1.792 -11.776,-3.584 -11.776,-8.106667 0,-4.693334 4.18133,-7.68 10.752,-7.68 8.10666,0 13.056,3.413333 13.056,9.728 h 11.94666 c 0,-13.141334 -9.216,-19.968001 -24.40533,-19.968001 -14.93333,0 -23.552,6.997334 -23.552,19.114668 0,9.728 4.864,14.250667 17.49333,16.725333 l 8.704,1.706667 c 8.53334,1.706667 11.69067,3.498667 11.69067,8.533334 0,5.205333 -4.77867,7.936003 -12.544,7.936003 -8.704,0 -13.99467,-3.66934 -13.99467,-10.325337 h -12.45866 c 0,13.311997 9.89866,20.565337 25.77066,20.565337 16.04267,0 25.51467,-7.08267 25.51467,-19.712003 z"
         style="font-style:normal;font-variant:normal;font-weight:bold;font-stretch:normal;font-family:'TeX Gyre Heros';-inkscape-font-specification:'TeX Gyre Heros Bold';letter-spacing:0px;fill:#ffffff"
         id="path1807" />
    </g>
  </g>
</svg>
